  0
SECTION
  2
BLOCKS
  0
ENDSEC
  0
SECTION
  2
ENTITIES
  0
LINE
  8
0
 10
237.898
 20
-227.348
 11
238.415
 21
-227.266
  0
LINE
  8
0
 10
238.415
 20
-227.266
 11
238.92
 21
-227.13
  0
LINE
  8
0
 10
238.92
 20
-227.13
 11
239.409
 21
-226.943
  0
LINE
  8
0
 10
239.409
 20
-226.943
 11
239.875
 21
-226.705
  0
LINE
  8
0
 10
239.875
 20
-226.705
 11
240.314
 21
-226.42
  0
LINE
  8
0
 10
240.314
 20
-226.42
 11
240.721
 21
-226.091
  0
LINE
  8
0
 10
240.721
 20
-226.091
 11
241.091
 21
-225.721
  0
LINE
  8
0
 10
241.091
 20
-225.721
 11
241.42
 21
-225.314
  0
LINE
  8
0
 10
241.42
 20
-225.314
 11
241.705
 21
-224.875
  0
LINE
  8
0
 10
241.705
 20
-224.875
 11
241.943
 21
-224.409
  0
LINE
  8
0
 10
241.943
 20
-224.409
 11
242.13
 21
-223.92
  0
LINE
  8
0
 10
242.13
 20
-223.92
 11
242.266
 21
-223.415
  0
LINE
  8
0
 10
242.266
 20
-223.415
 11
242.348
 21
-222.898
  0
LINE
  8
0
 10
242.348
 20
-222.898
 11
242.375
 21
-222.375
  0
LINE
  8
0
 10
242.375
 20
-222.375
 11
242.375
 21
222.375
  0
LINE
  8
0
 10
242.375
 20
222.375
 11
242.348
 21
222.898
  0
LINE
  8
0
 10
242.348
 20
222.898
 11
242.266
 21
223.415
  0
LINE
  8
0
 10
242.266
 20
223.415
 11
242.13
 21
223.92
  0
LINE
  8
0
 10
242.13
 20
223.92
 11
241.943
 21
224.409
  0
LINE
  8
0
 10
241.943
 20
224.409
 11
241.705
 21
224.875
  0
LINE
  8
0
 10
241.705
 20
224.875
 11
241.42
 21
225.314
  0
LINE
  8
0
 10
241.42
 20
225.314
 11
241.091
 21
225.721
  0
LINE
  8
0
 10
241.091
 20
225.721
 11
240.721
 21
226.091
  0
LINE
  8
0
 10
240.721
 20
226.091
 11
240.314
 21
226.42
  0
LINE
  8
0
 10
240.314
 20
226.42
 11
239.875
 21
226.705
  0
LINE
  8
0
 10
239.875
 20
226.705
 11
239.409
 21
226.943
  0
LINE
  8
0
 10
239.409
 20
226.943
 11
238.92
 21
227.13
  0
LINE
  8
0
 10
238.92
 20
227.13
 11
238.415
 21
227.266
  0
LINE
  8
0
 10
238.415
 20
227.266
 11
237.898
 21
227.348
  0
LINE
  8
0
 10
237.898
 20
227.348
 11
237.375
 21
227.375
  0
LINE
  8
0
 10
237.375
 20
227.375
 11
-237.375
 21
227.375
  0
LINE
  8
0
 10
-237.375
 20
227.375
 11
-237.898
 21
227.348
  0
LINE
  8
0
 10
-237.898
 20
227.348
 11
-238.415
 21
227.266
  0
LINE
  8
0
 10
-238.415
 20
227.266
 11
-238.92
 21
227.13
  0
LINE
  8
0
 10
-238.92
 20
227.13
 11
-239.409
 21
226.943
  0
LINE
  8
0
 10
-239.409
 20
226.943
 11
-239.875
 21
226.705
  0
LINE
  8
0
 10
-239.875
 20
226.705
 11
-240.314
 21
226.42
  0
LINE
  8
0
 10
-240.314
 20
226.42
 11
-240.721
 21
226.091
  0
LINE
  8
0
 10
-240.721
 20
226.091
 11
-241.091
 21
225.721
  0
LINE
  8
0
 10
-241.091
 20
225.721
 11
-241.42
 21
225.314
  0
LINE
  8
0
 10
-241.42
 20
225.314
 11
-241.705
 21
224.875
  0
LINE
  8
0
 10
-241.705
 20
224.875
 11
-241.943
 21
224.409
  0
LINE
  8
0
 10
-241.943
 20
224.409
 11
-242.13
 21
223.92
  0
LINE
  8
0
 10
-242.13
 20
223.92
 11
-242.266
 21
223.415
  0
LINE
  8
0
 10
-242.266
 20
223.415
 11
-242.348
 21
222.898
  0
LINE
  8
0
 10
-242.348
 20
222.898
 11
-242.375
 21
222.375
  0
LINE
  8
0
 10
-242.375
 20
222.375
 11
-242.375
 21
-222.375
  0
LINE
  8
0
 10
-242.375
 20
-222.375
 11
-242.348
 21
-222.898
  0
LINE
  8
0
 10
-242.348
 20
-222.898
 11
-242.266
 21
-223.415
  0
LINE
  8
0
 10
-242.266
 20
-223.415
 11
-242.13
 21
-223.92
  0
LINE
  8
0
 10
-242.13
 20
-223.92
 11
-241.943
 21
-224.409
  0
LINE
  8
0
 10
-241.943
 20
-224.409
 11
-241.705
 21
-224.875
  0
LINE
  8
0
 10
-241.705
 20
-224.875
 11
-241.42
 21
-225.314
  0
LINE
  8
0
 10
-241.42
 20
-225.314
 11
-241.091
 21
-225.721
  0
LINE
  8
0
 10
-241.091
 20
-225.721
 11
-240.721
 21
-226.091
  0
LINE
  8
0
 10
-240.721
 20
-226.091
 11
-240.314
 21
-226.42
  0
LINE
  8
0
 10
-240.314
 20
-226.42
 11
-239.875
 21
-226.705
  0
LINE
  8
0
 10
-239.875
 20
-226.705
 11
-239.409
 21
-226.943
  0
LINE
  8
0
 10
-239.409
 20
-226.943
 11
-238.92
 21
-227.13
  0
LINE
  8
0
 10
-238.92
 20
-227.13
 11
-238.415
 21
-227.266
  0
LINE
  8
0
 10
-238.415
 20
-227.266
 11
-237.898
 21
-227.348
  0
LINE
  8
0
 10
-237.898
 20
-227.348
 11
-237.375
 21
-227.375
  0
LINE
  8
0
 10
-237.375
 20
-227.375
 11
237.375
 21
-227.375
  0
LINE
  8
0
 10
237.375
 20
-227.375
 11
237.898
 21
-227.348
  0
LINE
  8
0
 10
231.977
 20
212.527
 11
231.46
 21
212.609
  0
LINE
  8
0
 10
231.46
 20
212.609
 11
230.955
 21
212.745
  0
LINE
  8
0
 10
230.955
 20
212.745
 11
230.466
 21
212.932
  0
LINE
  8
0
 10
230.466
 20
212.932
 11
230
 21
213.17
  0
LINE
  8
0
 10
230
 20
213.17
 11
229.561
 21
213.455
  0
LINE
  8
0
 10
229.561
 20
213.455
 11
229.154
 21
213.784
  0
LINE
  8
0
 10
229.154
 20
213.784
 11
228.784
 21
214.154
  0
LINE
  8
0
 10
228.784
 20
214.154
 11
228.455
 21
214.561
  0
LINE
  8
0
 10
228.455
 20
214.561
 11
228.17
 21
215
  0
LINE
  8
0
 10
228.17
 20
215
 11
227.932
 21
215.466
  0
LINE
  8
0
 10
227.932
 20
215.466
 11
227.745
 21
215.955
  0
LINE
  8
0
 10
227.745
 20
215.955
 11
227.609
 21
216.46
  0
LINE
  8
0
 10
227.609
 20
216.46
 11
227.527
 21
216.977
  0
LINE
  8
0
 10
227.527
 20
216.977
 11
227.5
 21
217.5
  0
LINE
  8
0
 10
227.5
 20
217.5
 11
227.527
 21
218.023
  0
LINE
  8
0
 10
227.527
 20
218.023
 11
227.609
 21
218.54
  0
LINE
  8
0
 10
227.609
 20
218.54
 11
227.745
 21
219.045
  0
LINE
  8
0
 10
227.745
 20
219.045
 11
227.932
 21
219.534
  0
LINE
  8
0
 10
227.932
 20
219.534
 11
228.17
 21
220
  0
LINE
  8
0
 10
228.17
 20
220
 11
228.455
 21
220.439
  0
LINE
  8
0
 10
228.455
 20
220.439
 11
228.784
 21
220.846
  0
LINE
  8
0
 10
228.784
 20
220.846
 11
229.154
 21
221.216
  0
LINE
  8
0
 10
229.154
 20
221.216
 11
229.561
 21
221.545
  0
LINE
  8
0
 10
229.561
 20
221.545
 11
230
 21
221.83
  0
LINE
  8
0
 10
230
 20
221.83
 11
230.466
 21
222.068
  0
LINE
  8
0
 10
230.466
 20
222.068
 11
230.955
 21
222.255
  0
LINE
  8
0
 10
230.955
 20
222.255
 11
231.46
 21
222.391
  0
LINE
  8
0
 10
231.46
 20
222.391
 11
231.977
 21
222.473
  0
LINE
  8
0
 10
231.977
 20
222.473
 11
232.5
 21
222.5
  0
LINE
  8
0
 10
232.5
 20
222.5
 11
233.023
 21
222.473
  0
LINE
  8
0
 10
233.023
 20
222.473
 11
233.54
 21
222.391
  0
LINE
  8
0
 10
233.54
 20
222.391
 11
234.045
 21
222.255
  0
LINE
  8
0
 10
234.045
 20
222.255
 11
234.534
 21
222.068
  0
LINE
  8
0
 10
234.534
 20
222.068
 11
235
 21
221.83
  0
LINE
  8
0
 10
235
 20
221.83
 11
235.439
 21
221.545
  0
LINE
  8
0
 10
235.439
 20
221.545
 11
235.846
 21
221.216
  0
LINE
  8
0
 10
235.846
 20
221.216
 11
236.216
 21
220.846
  0
LINE
  8
0
 10
236.216
 20
220.846
 11
236.545
 21
220.439
  0
LINE
  8
0
 10
236.545
 20
220.439
 11
236.83
 21
220
  0
LINE
  8
0
 10
236.83
 20
220
 11
237.068
 21
219.534
  0
LINE
  8
0
 10
237.068
 20
219.534
 11
237.255
 21
219.045
  0
LINE
  8
0
 10
237.255
 20
219.045
 11
237.391
 21
218.54
  0
LINE
  8
0
 10
237.391
 20
218.54
 11
237.473
 21
218.023
  0
LINE
  8
0
 10
237.473
 20
218.023
 11
237.5
 21
217.5
  0
LINE
  8
0
 10
237.5
 20
217.5
 11
237.473
 21
216.977
  0
LINE
  8
0
 10
237.473
 20
216.977
 11
237.391
 21
216.46
  0
LINE
  8
0
 10
237.391
 20
216.46
 11
237.255
 21
215.955
  0
LINE
  8
0
 10
237.255
 20
215.955
 11
237.068
 21
215.466
  0
LINE
  8
0
 10
237.068
 20
215.466
 11
236.83
 21
215
  0
LINE
  8
0
 10
236.83
 20
215
 11
236.545
 21
214.561
  0
LINE
  8
0
 10
236.545
 20
214.561
 11
236.216
 21
214.154
  0
LINE
  8
0
 10
236.216
 20
214.154
 11
235.846
 21
213.784
  0
LINE
  8
0
 10
235.846
 20
213.784
 11
235.439
 21
213.455
  0
LINE
  8
0
 10
235.439
 20
213.455
 11
235
 21
213.17
  0
LINE
  8
0
 10
235
 20
213.17
 11
234.534
 21
212.932
  0
LINE
  8
0
 10
234.534
 20
212.932
 11
234.045
 21
212.745
  0
LINE
  8
0
 10
234.045
 20
212.745
 11
233.54
 21
212.609
  0
LINE
  8
0
 10
233.54
 20
212.609
 11
233.023
 21
212.527
  0
LINE
  8
0
 10
233.023
 20
212.527
 11
232.5
 21
212.5
  0
LINE
  8
0
 10
232.5
 20
212.5
 11
231.977
 21
212.527
  0
LINE
  8
0
 10
-233.023
 20
212.527
 11
-233.54
 21
212.609
  0
LINE
  8
0
 10
-233.54
 20
212.609
 11
-234.045
 21
212.745
  0
LINE
  8
0
 10
-234.045
 20
212.745
 11
-234.534
 21
212.932
  0
LINE
  8
0
 10
-234.534
 20
212.932
 11
-235
 21
213.17
  0
LINE
  8
0
 10
-235
 20
213.17
 11
-235.439
 21
213.455
  0
LINE
  8
0
 10
-235.439
 20
213.455
 11
-235.846
 21
213.784
  0
LINE
  8
0
 10
-235.846
 20
213.784
 11
-236.216
 21
214.154
  0
LINE
  8
0
 10
-236.216
 20
214.154
 11
-236.545
 21
214.561
  0
LINE
  8
0
 10
-236.545
 20
214.561
 11
-236.83
 21
215
  0
LINE
  8
0
 10
-236.83
 20
215
 11
-237.068
 21
215.466
  0
LINE
  8
0
 10
-237.068
 20
215.466
 11
-237.255
 21
215.955
  0
LINE
  8
0
 10
-237.255
 20
215.955
 11
-237.391
 21
216.46
  0
LINE
  8
0
 10
-237.391
 20
216.46
 11
-237.473
 21
216.977
  0
LINE
  8
0
 10
-237.473
 20
216.977
 11
-237.5
 21
217.5
  0
LINE
  8
0
 10
-237.5
 20
217.5
 11
-237.473
 21
218.023
  0
LINE
  8
0
 10
-237.473
 20
218.023
 11
-237.391
 21
218.54
  0
LINE
  8
0
 10
-237.391
 20
218.54
 11
-237.255
 21
219.045
  0
LINE
  8
0
 10
-237.255
 20
219.045
 11
-237.068
 21
219.534
  0
LINE
  8
0
 10
-237.068
 20
219.534
 11
-236.83
 21
220
  0
LINE
  8
0
 10
-236.83
 20
220
 11
-236.545
 21
220.439
  0
LINE
  8
0
 10
-236.545
 20
220.439
 11
-236.216
 21
220.846
  0
LINE
  8
0
 10
-236.216
 20
220.846
 11
-235.846
 21
221.216
  0
LINE
  8
0
 10
-235.846
 20
221.216
 11
-235.439
 21
221.545
  0
LINE
  8
0
 10
-235.439
 20
221.545
 11
-235
 21
221.83
  0
LINE
  8
0
 10
-235
 20
221.83
 11
-234.534
 21
222.068
  0
LINE
  8
0
 10
-234.534
 20
222.068
 11
-234.045
 21
222.255
  0
LINE
  8
0
 10
-234.045
 20
222.255
 11
-233.54
 21
222.391
  0
LINE
  8
0
 10
-233.54
 20
222.391
 11
-233.023
 21
222.473
  0
LINE
  8
0
 10
-233.023
 20
222.473
 11
-232.5
 21
222.5
  0
LINE
  8
0
 10
-232.5
 20
222.5
 11
-231.977
 21
222.473
  0
LINE
  8
0
 10
-231.977
 20
222.473
 11
-231.46
 21
222.391
  0
LINE
  8
0
 10
-231.46
 20
222.391
 11
-230.955
 21
222.255
  0
LINE
  8
0
 10
-230.955
 20
222.255
 11
-230.466
 21
222.068
  0
LINE
  8
0
 10
-230.466
 20
222.068
 11
-230
 21
221.83
  0
LINE
  8
0
 10
-230
 20
221.83
 11
-229.561
 21
221.545
  0
LINE
  8
0
 10
-229.561
 20
221.545
 11
-229.154
 21
221.216
  0
LINE
  8
0
 10
-229.154
 20
221.216
 11
-228.784
 21
220.846
  0
LINE
  8
0
 10
-228.784
 20
220.846
 11
-228.455
 21
220.439
  0
LINE
  8
0
 10
-228.455
 20
220.439
 11
-228.17
 21
220
  0
LINE
  8
0
 10
-228.17
 20
220
 11
-227.932
 21
219.534
  0
LINE
  8
0
 10
-227.932
 20
219.534
 11
-227.745
 21
219.045
  0
LINE
  8
0
 10
-227.745
 20
219.045
 11
-227.609
 21
218.54
  0
LINE
  8
0
 10
-227.609
 20
218.54
 11
-227.527
 21
218.023
  0
LINE
  8
0
 10
-227.527
 20
218.023
 11
-227.5
 21
217.5
  0
LINE
  8
0
 10
-227.5
 20
217.5
 11
-227.527
 21
216.977
  0
LINE
  8
0
 10
-227.527
 20
216.977
 11
-227.609
 21
216.46
  0
LINE
  8
0
 10
-227.609
 20
216.46
 11
-227.745
 21
215.955
  0
LINE
  8
0
 10
-227.745
 20
215.955
 11
-227.932
 21
215.466
  0
LINE
  8
0
 10
-227.932
 20
215.466
 11
-228.17
 21
215
  0
LINE
  8
0
 10
-228.17
 20
215
 11
-228.455
 21
214.561
  0
LINE
  8
0
 10
-228.455
 20
214.561
 11
-228.784
 21
214.154
  0
LINE
  8
0
 10
-228.784
 20
214.154
 11
-229.154
 21
213.784
  0
LINE
  8
0
 10
-229.154
 20
213.784
 11
-229.561
 21
213.455
  0
LINE
  8
0
 10
-229.561
 20
213.455
 11
-230
 21
213.17
  0
LINE
  8
0
 10
-230
 20
213.17
 11
-230.466
 21
212.932
  0
LINE
  8
0
 10
-230.466
 20
212.932
 11
-230.955
 21
212.745
  0
LINE
  8
0
 10
-230.955
 20
212.745
 11
-231.46
 21
212.609
  0
LINE
  8
0
 10
-231.46
 20
212.609
 11
-231.977
 21
212.527
  0
LINE
  8
0
 10
-231.977
 20
212.527
 11
-232.5
 21
212.5
  0
LINE
  8
0
 10
-232.5
 20
212.5
 11
-233.023
 21
212.527
  0
LINE
  8
0
 10
-96.4358
 20
215.258
 11
-96.6814
 21
215.292
  0
LINE
  8
0
 10
-96.6814
 20
215.292
 11
-96.9217
 21
215.353
  0
LINE
  8
0
 10
-96.9217
 20
215.353
 11
-97.1538
 21
215.44
  0
LINE
  8
0
 10
-97.1538
 20
215.44
 11
-97.375
 21
215.551
  0
LINE
  8
0
 10
-97.375
 20
215.551
 11
-97.5825
 21
215.687
  0
LINE
  8
0
 10
-97.5825
 20
215.687
 11
-97.7739
 21
215.845
  0
LINE
  8
0
 10
-97.7739
 20
215.845
 11
-97.9467
 21
216.022
  0
LINE
  8
0
 10
-97.9467
 20
216.022
 11
-98.099
 21
216.218
  0
LINE
  8
0
 10
-98.099
 20
216.218
 11
-98.2288
 21
216.429
  0
LINE
  8
0
 10
-98.2288
 20
216.429
 11
-98.3346
 21
216.653
  0
LINE
  8
0
 10
-98.3346
 20
216.653
 11
-98.4151
 21
216.888
  0
LINE
  8
0
 10
-98.4151
 20
216.888
 11
-98.4693
 21
217.13
  0
LINE
  8
0
 10
-98.4693
 20
217.13
 11
-98.4966
 21
217.376
  0
LINE
  8
0
 10
-98.4966
 20
217.376
 11
-98.4966
 21
217.624
  0
LINE
  8
0
 10
-98.4966
 20
217.624
 11
-98.4693
 21
217.87
  0
LINE
  8
0
 10
-98.4693
 20
217.87
 11
-98.4151
 21
218.112
  0
LINE
  8
0
 10
-98.4151
 20
218.112
 11
-98.3346
 21
218.347
  0
LINE
  8
0
 10
-98.3346
 20
218.347
 11
-98.2288
 21
218.571
  0
LINE
  8
0
 10
-98.2288
 20
218.571
 11
-98.099
 21
218.782
  0
LINE
  8
0
 10
-98.099
 20
218.782
 11
-97.9467
 21
218.978
  0
LINE
  8
0
 10
-97.9467
 20
218.978
 11
-97.7739
 21
219.155
  0
LINE
  8
0
 10
-97.7739
 20
219.155
 11
-97.5825
 21
219.313
  0
LINE
  8
0
 10
-97.5825
 20
219.313
 11
-97.375
 21
219.449
  0
LINE
  8
0
 10
-97.375
 20
219.449
 11
-97.1538
 21
219.56
  0
LINE
  8
0
 10
-97.1538
 20
219.56
 11
-96.9217
 21
219.647
  0
LINE
  8
0
 10
-96.9217
 20
219.647
 11
-96.6814
 21
219.708
  0
LINE
  8
0
 10
-96.6814
 20
219.708
 11
-96.4358
 21
219.742
  0
LINE
  8
0
 10
-96.4358
 20
219.742
 11
-96.188
 21
219.749
  0
LINE
  8
0
 10
-96.188
 20
219.749
 11
-95.9409
 21
219.729
  0
LINE
  8
0
 10
-95.9409
 20
219.729
 11
-95.6976
 21
219.681
  0
LINE
  8
0
 10
-95.6976
 20
219.681
 11
-95.4611
 21
219.607
  0
LINE
  8
0
 10
-95.4611
 20
219.607
 11
-95.234
 21
219.508
  0
LINE
  8
0
 10
-95.234
 20
219.508
 11
-95.0194
 21
219.384
  0
LINE
  8
0
 10
-95.0194
 20
219.384
 11
-94.8196
 21
219.237
  0
LINE
  8
0
 10
-94.8196
 20
219.237
 11
-94.6372
 21
219.069
  0
LINE
  8
0
 10
-94.6372
 20
219.069
 11
-94.4744
 21
218.882
  0
LINE
  8
0
 10
-94.4744
 20
218.882
 11
-94.3332
 21
218.678
  0
LINE
  8
0
 10
-94.3332
 20
218.678
 11
-94.2152
 21
218.46
  0
LINE
  8
0
 10
-94.2152
 20
218.46
 11
-94.1219
 21
218.231
  0
LINE
  8
0
 10
-94.1219
 20
218.231
 11
-94.0545
 21
217.992
  0
LINE
  8
0
 10
-94.0545
 20
217.992
 11
-94.0137
 21
217.748
  0
LINE
  8
0
 10
-94.0137
 20
217.748
 11
-94
 21
217.5
  0
LINE
  8
0
 10
-94
 20
217.5
 11
-94.0137
 21
217.252
  0
LINE
  8
0
 10
-94.0137
 20
217.252
 11
-94.0545
 21
217.008
  0
LINE
  8
0
 10
-94.0545
 20
217.008
 11
-94.1219
 21
216.769
  0
LINE
  8
0
 10
-94.1219
 20
216.769
 11
-94.2152
 21
216.54
  0
LINE
  8
0
 10
-94.2152
 20
216.54
 11
-94.3332
 21
216.322
  0
LINE
  8
0
 10
-94.3332
 20
216.322
 11
-94.4744
 21
216.118
  0
LINE
  8
0
 10
-94.4744
 20
216.118
 11
-94.6372
 21
215.931
  0
LINE
  8
0
 10
-94.6372
 20
215.931
 11
-94.8196
 21
215.763
  0
LINE
  8
0
 10
-94.8196
 20
215.763
 11
-95.0194
 21
215.616
  0
LINE
  8
0
 10
-95.0194
 20
215.616
 11
-95.234
 21
215.492
  0
LINE
  8
0
 10
-95.234
 20
215.492
 11
-95.4611
 21
215.393
  0
LINE
  8
0
 10
-95.4611
 20
215.393
 11
-95.6976
 21
215.319
  0
LINE
  8
0
 10
-95.6976
 20
215.319
 11
-95.9409
 21
215.271
  0
LINE
  8
0
 10
-95.9409
 20
215.271
 11
-96.188
 21
215.251
  0
LINE
  8
0
 10
-96.188
 20
215.251
 11
-96.4358
 21
215.258
  0
LINE
  8
0
 10
192.314
 20
215.258
 11
192.069
 21
215.292
  0
LINE
  8
0
 10
192.069
 20
215.292
 11
191.828
 21
215.353
  0
LINE
  8
0
 10
191.828
 20
215.353
 11
191.596
 21
215.44
  0
LINE
  8
0
 10
191.596
 20
215.44
 11
191.375
 21
215.551
  0
LINE
  8
0
 10
191.375
 20
215.551
 11
191.167
 21
215.687
  0
LINE
  8
0
 10
191.167
 20
215.687
 11
190.976
 21
215.845
  0
LINE
  8
0
 10
190.976
 20
215.845
 11
190.803
 21
216.022
  0
LINE
  8
0
 10
190.803
 20
216.022
 11
190.651
 21
216.218
  0
LINE
  8
0
 10
190.651
 20
216.218
 11
190.521
 21
216.429
  0
LINE
  8
0
 10
190.521
 20
216.429
 11
190.415
 21
216.653
  0
LINE
  8
0
 10
190.415
 20
216.653
 11
190.335
 21
216.888
  0
LINE
  8
0
 10
190.335
 20
216.888
 11
190.281
 21
217.13
  0
LINE
  8
0
 10
190.281
 20
217.13
 11
190.253
 21
217.376
  0
LINE
  8
0
 10
190.253
 20
217.376
 11
190.253
 21
217.624
  0
LINE
  8
0
 10
190.253
 20
217.624
 11
190.281
 21
217.87
  0
LINE
  8
0
 10
190.281
 20
217.87
 11
190.335
 21
218.112
  0
LINE
  8
0
 10
190.335
 20
218.112
 11
190.415
 21
218.347
  0
LINE
  8
0
 10
190.415
 20
218.347
 11
190.521
 21
218.571
  0
LINE
  8
0
 10
190.521
 20
218.571
 11
190.651
 21
218.782
  0
LINE
  8
0
 10
190.651
 20
218.782
 11
190.803
 21
218.978
  0
LINE
  8
0
 10
190.803
 20
218.978
 11
190.976
 21
219.155
  0
LINE
  8
0
 10
190.976
 20
219.155
 11
191.167
 21
219.313
  0
LINE
  8
0
 10
191.167
 20
219.313
 11
191.375
 21
219.449
  0
LINE
  8
0
 10
191.375
 20
219.449
 11
191.596
 21
219.56
  0
LINE
  8
0
 10
191.596
 20
219.56
 11
191.828
 21
219.647
  0
LINE
  8
0
 10
191.828
 20
219.647
 11
192.069
 21
219.708
  0
LINE
  8
0
 10
192.069
 20
219.708
 11
192.314
 21
219.742
  0
LINE
  8
0
 10
192.314
 20
219.742
 11
192.562
 21
219.749
  0
LINE
  8
0
 10
192.562
 20
219.749
 11
192.809
 21
219.729
  0
LINE
  8
0
 10
192.809
 20
219.729
 11
193.052
 21
219.681
  0
LINE
  8
0
 10
193.052
 20
219.681
 11
193.289
 21
219.607
  0
LINE
  8
0
 10
193.289
 20
219.607
 11
193.516
 21
219.508
  0
LINE
  8
0
 10
193.516
 20
219.508
 11
193.731
 21
219.384
  0
LINE
  8
0
 10
193.731
 20
219.384
 11
193.93
 21
219.237
  0
LINE
  8
0
 10
193.93
 20
219.237
 11
194.113
 21
219.069
  0
LINE
  8
0
 10
194.113
 20
219.069
 11
194.276
 21
218.882
  0
LINE
  8
0
 10
194.276
 20
218.882
 11
194.417
 21
218.678
  0
LINE
  8
0
 10
194.417
 20
218.678
 11
194.535
 21
218.46
  0
LINE
  8
0
 10
194.535
 20
218.46
 11
194.628
 21
218.231
  0
LINE
  8
0
 10
194.628
 20
218.231
 11
194.696
 21
217.992
  0
LINE
  8
0
 10
194.696
 20
217.992
 11
194.736
 21
217.748
  0
LINE
  8
0
 10
194.736
 20
217.748
 11
194.75
 21
217.5
  0
LINE
  8
0
 10
194.75
 20
217.5
 11
194.736
 21
217.252
  0
LINE
  8
0
 10
194.736
 20
217.252
 11
194.696
 21
217.008
  0
LINE
  8
0
 10
194.696
 20
217.008
 11
194.628
 21
216.769
  0
LINE
  8
0
 10
194.628
 20
216.769
 11
194.535
 21
216.54
  0
LINE
  8
0
 10
194.535
 20
216.54
 11
194.417
 21
216.322
  0
LINE
  8
0
 10
194.417
 20
216.322
 11
194.276
 21
216.118
  0
LINE
  8
0
 10
194.276
 20
216.118
 11
194.113
 21
215.931
  0
LINE
  8
0
 10
194.113
 20
215.931
 11
193.93
 21
215.763
  0
LINE
  8
0
 10
193.93
 20
215.763
 11
193.731
 21
215.616
  0
LINE
  8
0
 10
193.731
 20
215.616
 11
193.516
 21
215.492
  0
LINE
  8
0
 10
193.516
 20
215.492
 11
193.289
 21
215.393
  0
LINE
  8
0
 10
193.289
 20
215.393
 11
193.052
 21
215.319
  0
LINE
  8
0
 10
193.052
 20
215.319
 11
192.809
 21
215.271
  0
LINE
  8
0
 10
192.809
 20
215.271
 11
192.562
 21
215.251
  0
LINE
  8
0
 10
192.562
 20
215.251
 11
192.314
 21
215.258
  0
LINE
  8
0
 10
-0.185791
 20
215.258
 11
-0.431335
 21
215.292
  0
LINE
  8
0
 10
-0.431335
 20
215.292
 11
-0.671646
 21
215.353
  0
LINE
  8
0
 10
-0.671646
 20
215.353
 11
-0.903809
 21
215.44
  0
LINE
  8
0
 10
-0.903809
 20
215.44
 11
-1.125
 21
215.551
  0
LINE
  8
0
 10
-1.125
 20
215.551
 11
-1.33252
 21
215.687
  0
LINE
  8
0
 10
-1.33252
 20
215.687
 11
-1.52388
 21
215.845
  0
LINE
  8
0
 10
-1.52388
 20
215.845
 11
-1.69673
 21
216.022
  0
LINE
  8
0
 10
-1.69673
 20
216.022
 11
-1.849
 21
216.218
  0
LINE
  8
0
 10
-1.849
 20
216.218
 11
-1.97881
 21
216.429
  0
LINE
  8
0
 10
-1.97881
 20
216.429
 11
-2.08461
 21
216.653
  0
LINE
  8
0
 10
-2.08461
 20
216.653
 11
-2.1651
 21
216.888
  0
LINE
  8
0
 10
-2.1651
 20
216.888
 11
-2.2193
 21
217.13
  0
LINE
  8
0
 10
-2.2193
 20
217.13
 11
-2.24658
 21
217.376
  0
LINE
  8
0
 10
-2.24658
 20
217.376
 11
-2.24658
 21
217.624
  0
LINE
  8
0
 10
-2.24658
 20
217.624
 11
-2.2193
 21
217.87
  0
LINE
  8
0
 10
-2.2193
 20
217.87
 11
-2.1651
 21
218.112
  0
LINE
  8
0
 10
-2.1651
 20
218.112
 11
-2.08461
 21
218.347
  0
LINE
  8
0
 10
-2.08461
 20
218.347
 11
-1.97881
 21
218.571
  0
LINE
  8
0
 10
-1.97881
 20
218.571
 11
-1.849
 21
218.782
  0
LINE
  8
0
 10
-1.849
 20
218.782
 11
-1.69673
 21
218.978
  0
LINE
  8
0
 10
-1.69673
 20
218.978
 11
-1.52388
 21
219.155
  0
LINE
  8
0
 10
-1.52388
 20
219.155
 11
-1.33252
 21
219.313
  0
LINE
  8
0
 10
-1.33252
 20
219.313
 11
-1.125
 21
219.449
  0
LINE
  8
0
 10
-1.125
 20
219.449
 11
-0.903809
 21
219.56
  0
LINE
  8
0
 10
-0.903809
 20
219.56
 11
-0.671646
 21
219.647
  0
LINE
  8
0
 10
-0.671646
 20
219.647
 11
-0.431335
 21
219.708
  0
LINE
  8
0
 10
-0.431335
 20
219.708
 11
-0.185791
 21
219.742
  0
LINE
  8
0
 10
-0.185791
 20
219.742
 11
0.0619965
 21
219.749
  0
LINE
  8
0
 10
0.0619965
 20
219.749
 11
0.309036
 21
219.729
  0
LINE
  8
0
 10
0.309036
 20
219.729
 11
0.552338
 21
219.681
  0
LINE
  8
0
 10
0.552338
 20
219.681
 11
0.788925
 21
219.607
  0
LINE
  8
0
 10
0.788925
 20
219.607
 11
1.01595
 21
219.508
  0
LINE
  8
0
 10
1.01595
 20
219.508
 11
1.23062
 21
219.384
  0
LINE
  8
0
 10
1.23062
 20
219.384
 11
1.43037
 21
219.237
  0
LINE
  8
0
 10
1.43037
 20
219.237
 11
1.61275
 21
219.069
  0
LINE
  8
0
 10
1.61275
 20
219.069
 11
1.77556
 21
218.882
  0
LINE
  8
0
 10
1.77556
 20
218.882
 11
1.91681
 21
218.678
  0
LINE
  8
0
 10
1.91681
 20
218.678
 11
2.03479
 21
218.46
  0
LINE
  8
0
 10
2.03479
 20
218.46
 11
2.12808
 21
218.231
  0
LINE
  8
0
 10
2.12808
 20
218.231
 11
2.19554
 21
217.992
  0
LINE
  8
0
 10
2.19554
 20
217.992
 11
2.23634
 21
217.748
  0
LINE
  8
0
 10
2.23634
 20
217.748
 11
2.25
 21
217.5
  0
LINE
  8
0
 10
2.25
 20
217.5
 11
2.23634
 21
217.252
  0
LINE
  8
0
 10
2.23634
 20
217.252
 11
2.19554
 21
217.008
  0
LINE
  8
0
 10
2.19554
 20
217.008
 11
2.12808
 21
216.769
  0
LINE
  8
0
 10
2.12808
 20
216.769
 11
2.03479
 21
216.54
  0
LINE
  8
0
 10
2.03479
 20
216.54
 11
1.91681
 21
216.322
  0
LINE
  8
0
 10
1.91681
 20
216.322
 11
1.77556
 21
216.118
  0
LINE
  8
0
 10
1.77556
 20
216.118
 11
1.61275
 21
215.931
  0
LINE
  8
0
 10
1.61275
 20
215.931
 11
1.43037
 21
215.763
  0
LINE
  8
0
 10
1.43037
 20
215.763
 11
1.23062
 21
215.616
  0
LINE
  8
0
 10
1.23062
 20
215.616
 11
1.01595
 21
215.492
  0
LINE
  8
0
 10
1.01595
 20
215.492
 11
0.788925
 21
215.393
  0
LINE
  8
0
 10
0.788925
 20
215.393
 11
0.552338
 21
215.319
  0
LINE
  8
0
 10
0.552338
 20
215.319
 11
0.309036
 21
215.271
  0
LINE
  8
0
 10
0.309036
 20
215.271
 11
0.0619965
 21
215.251
  0
LINE
  8
0
 10
0.0619965
 20
215.251
 11
-0.185791
 21
215.258
  0
LINE
  8
0
 10
-192.686
 20
215.258
 11
-192.931
 21
215.292
  0
LINE
  8
0
 10
-192.931
 20
215.292
 11
-193.172
 21
215.353
  0
LINE
  8
0
 10
-193.172
 20
215.353
 11
-193.404
 21
215.44
  0
LINE
  8
0
 10
-193.404
 20
215.44
 11
-193.625
 21
215.551
  0
LINE
  8
0
 10
-193.625
 20
215.551
 11
-193.833
 21
215.687
  0
LINE
  8
0
 10
-193.833
 20
215.687
 11
-194.024
 21
215.845
  0
LINE
  8
0
 10
-194.024
 20
215.845
 11
-194.197
 21
216.022
  0
LINE
  8
0
 10
-194.197
 20
216.022
 11
-194.349
 21
216.218
  0
LINE
  8
0
 10
-194.349
 20
216.218
 11
-194.479
 21
216.429
  0
LINE
  8
0
 10
-194.479
 20
216.429
 11
-194.585
 21
216.653
  0
LINE
  8
0
 10
-194.585
 20
216.653
 11
-194.665
 21
216.888
  0
LINE
  8
0
 10
-194.665
 20
216.888
 11
-194.719
 21
217.13
  0
LINE
  8
0
 10
-194.719
 20
217.13
 11
-194.747
 21
217.376
  0
LINE
  8
0
 10
-194.747
 20
217.376
 11
-194.747
 21
217.624
  0
LINE
  8
0
 10
-194.747
 20
217.624
 11
-194.719
 21
217.87
  0
LINE
  8
0
 10
-194.719
 20
217.87
 11
-194.665
 21
218.112
  0
LINE
  8
0
 10
-194.665
 20
218.112
 11
-194.585
 21
218.347
  0
LINE
  8
0
 10
-194.585
 20
218.347
 11
-194.479
 21
218.571
  0
LINE
  8
0
 10
-194.479
 20
218.571
 11
-194.349
 21
218.782
  0
LINE
  8
0
 10
-194.349
 20
218.782
 11
-194.197
 21
218.978
  0
LINE
  8
0
 10
-194.197
 20
218.978
 11
-194.024
 21
219.155
  0
LINE
  8
0
 10
-194.024
 20
219.155
 11
-193.833
 21
219.313
  0
LINE
  8
0
 10
-193.833
 20
219.313
 11
-193.625
 21
219.449
  0
LINE
  8
0
 10
-193.625
 20
219.449
 11
-193.404
 21
219.56
  0
LINE
  8
0
 10
-193.404
 20
219.56
 11
-193.172
 21
219.647
  0
LINE
  8
0
 10
-193.172
 20
219.647
 11
-192.931
 21
219.708
  0
LINE
  8
0
 10
-192.931
 20
219.708
 11
-192.686
 21
219.742
  0
LINE
  8
0
 10
-192.686
 20
219.742
 11
-192.438
 21
219.749
  0
LINE
  8
0
 10
-192.438
 20
219.749
 11
-192.191
 21
219.729
  0
LINE
  8
0
 10
-192.191
 20
219.729
 11
-191.948
 21
219.681
  0
LINE
  8
0
 10
-191.948
 20
219.681
 11
-191.711
 21
219.607
  0
LINE
  8
0
 10
-191.711
 20
219.607
 11
-191.484
 21
219.508
  0
LINE
  8
0
 10
-191.484
 20
219.508
 11
-191.269
 21
219.384
  0
LINE
  8
0
 10
-191.269
 20
219.384
 11
-191.07
 21
219.237
  0
LINE
  8
0
 10
-191.07
 20
219.237
 11
-190.887
 21
219.069
  0
LINE
  8
0
 10
-190.887
 20
219.069
 11
-190.724
 21
218.882
  0
LINE
  8
0
 10
-190.724
 20
218.882
 11
-190.583
 21
218.678
  0
LINE
  8
0
 10
-190.583
 20
218.678
 11
-190.465
 21
218.46
  0
LINE
  8
0
 10
-190.465
 20
218.46
 11
-190.372
 21
218.231
  0
LINE
  8
0
 10
-190.372
 20
218.231
 11
-190.304
 21
217.992
  0
LINE
  8
0
 10
-190.304
 20
217.992
 11
-190.264
 21
217.748
  0
LINE
  8
0
 10
-190.264
 20
217.748
 11
-190.25
 21
217.5
  0
LINE
  8
0
 10
-190.25
 20
217.5
 11
-190.264
 21
217.252
  0
LINE
  8
0
 10
-190.264
 20
217.252
 11
-190.304
 21
217.008
  0
LINE
  8
0
 10
-190.304
 20
217.008
 11
-190.372
 21
216.769
  0
LINE
  8
0
 10
-190.372
 20
216.769
 11
-190.465
 21
216.54
  0
LINE
  8
0
 10
-190.465
 20
216.54
 11
-190.583
 21
216.322
  0
LINE
  8
0
 10
-190.583
 20
216.322
 11
-190.724
 21
216.118
  0
LINE
  8
0
 10
-190.724
 20
216.118
 11
-190.887
 21
215.931
  0
LINE
  8
0
 10
-190.887
 20
215.931
 11
-191.07
 21
215.763
  0
LINE
  8
0
 10
-191.07
 20
215.763
 11
-191.269
 21
215.616
  0
LINE
  8
0
 10
-191.269
 20
215.616
 11
-191.484
 21
215.492
  0
LINE
  8
0
 10
-191.484
 20
215.492
 11
-191.711
 21
215.393
  0
LINE
  8
0
 10
-191.711
 20
215.393
 11
-191.948
 21
215.319
  0
LINE
  8
0
 10
-191.948
 20
215.319
 11
-192.191
 21
215.271
  0
LINE
  8
0
 10
-192.191
 20
215.271
 11
-192.438
 21
215.251
  0
LINE
  8
0
 10
-192.438
 20
215.251
 11
-192.686
 21
215.258
  0
LINE
  8
0
 10
96.0642
 20
215.258
 11
95.8186
 21
215.292
  0
LINE
  8
0
 10
95.8186
 20
215.292
 11
95.5783
 21
215.353
  0
LINE
  8
0
 10
95.5783
 20
215.353
 11
95.3462
 21
215.44
  0
LINE
  8
0
 10
95.3462
 20
215.44
 11
95.125
 21
215.551
  0
LINE
  8
0
 10
95.125
 20
215.551
 11
94.9175
 21
215.687
  0
LINE
  8
0
 10
94.9175
 20
215.687
 11
94.7261
 21
215.845
  0
LINE
  8
0
 10
94.7261
 20
215.845
 11
94.5533
 21
216.022
  0
LINE
  8
0
 10
94.5533
 20
216.022
 11
94.401
 21
216.218
  0
LINE
  8
0
 10
94.401
 20
216.218
 11
94.2712
 21
216.429
  0
LINE
  8
0
 10
94.2712
 20
216.429
 11
94.1654
 21
216.653
  0
LINE
  8
0
 10
94.1654
 20
216.653
 11
94.0849
 21
216.888
  0
LINE
  8
0
 10
94.0849
 20
216.888
 11
94.0307
 21
217.13
  0
LINE
  8
0
 10
94.0307
 20
217.13
 11
94.0034
 21
217.376
  0
LINE
  8
0
 10
94.0034
 20
217.376
 11
94.0034
 21
217.624
  0
LINE
  8
0
 10
94.0034
 20
217.624
 11
94.0307
 21
217.87
  0
LINE
  8
0
 10
94.0307
 20
217.87
 11
94.0849
 21
218.112
  0
LINE
  8
0
 10
94.0849
 20
218.112
 11
94.1654
 21
218.347
  0
LINE
  8
0
 10
94.1654
 20
218.347
 11
94.2712
 21
218.571
  0
LINE
  8
0
 10
94.2712
 20
218.571
 11
94.401
 21
218.782
  0
LINE
  8
0
 10
94.401
 20
218.782
 11
94.5533
 21
218.978
  0
LINE
  8
0
 10
94.5533
 20
218.978
 11
94.7261
 21
219.155
  0
LINE
  8
0
 10
94.7261
 20
219.155
 11
94.9175
 21
219.313
  0
LINE
  8
0
 10
94.9175
 20
219.313
 11
95.125
 21
219.449
  0
LINE
  8
0
 10
95.125
 20
219.449
 11
95.3462
 21
219.56
  0
LINE
  8
0
 10
95.3462
 20
219.56
 11
95.5783
 21
219.647
  0
LINE
  8
0
 10
95.5783
 20
219.647
 11
95.8186
 21
219.708
  0
LINE
  8
0
 10
95.8186
 20
219.708
 11
96.0642
 21
219.742
  0
LINE
  8
0
 10
96.0642
 20
219.742
 11
96.312
 21
219.749
  0
LINE
  8
0
 10
96.312
 20
219.749
 11
96.559
 21
219.729
  0
LINE
  8
0
 10
96.559
 20
219.729
 11
96.8023
 21
219.681
  0
LINE
  8
0
 10
96.8023
 20
219.681
 11
97.0389
 21
219.607
  0
LINE
  8
0
 10
97.0389
 20
219.607
 11
97.2659
 21
219.508
  0
LINE
  8
0
 10
97.2659
 20
219.508
 11
97.4806
 21
219.384
  0
LINE
  8
0
 10
97.4806
 20
219.384
 11
97.6804
 21
219.237
  0
LINE
  8
0
 10
97.6804
 20
219.237
 11
97.8628
 21
219.069
  0
LINE
  8
0
 10
97.8628
 20
219.069
 11
98.0256
 21
218.882
  0
LINE
  8
0
 10
98.0256
 20
218.882
 11
98.1668
 21
218.678
  0
LINE
  8
0
 10
98.1668
 20
218.678
 11
98.2848
 21
218.46
  0
LINE
  8
0
 10
98.2848
 20
218.46
 11
98.3781
 21
218.231
  0
LINE
  8
0
 10
98.3781
 20
218.231
 11
98.4455
 21
217.992
  0
LINE
  8
0
 10
98.4455
 20
217.992
 11
98.4863
 21
217.748
  0
LINE
  8
0
 10
98.4863
 20
217.748
 11
98.5
 21
217.5
  0
LINE
  8
0
 10
98.5
 20
217.5
 11
98.4863
 21
217.252
  0
LINE
  8
0
 10
98.4863
 20
217.252
 11
98.4455
 21
217.008
  0
LINE
  8
0
 10
98.4455
 20
217.008
 11
98.3781
 21
216.769
  0
LINE
  8
0
 10
98.3781
 20
216.769
 11
98.2848
 21
216.54
  0
LINE
  8
0
 10
98.2848
 20
216.54
 11
98.1668
 21
216.322
  0
LINE
  8
0
 10
98.1668
 20
216.322
 11
98.0256
 21
216.118
  0
LINE
  8
0
 10
98.0256
 20
216.118
 11
97.8628
 21
215.931
  0
LINE
  8
0
 10
97.8628
 20
215.931
 11
97.6804
 21
215.763
  0
LINE
  8
0
 10
97.6804
 20
215.763
 11
97.4806
 21
215.616
  0
LINE
  8
0
 10
97.4806
 20
215.616
 11
97.2659
 21
215.492
  0
LINE
  8
0
 10
97.2659
 20
215.492
 11
97.0389
 21
215.393
  0
LINE
  8
0
 10
97.0389
 20
215.393
 11
96.8023
 21
215.319
  0
LINE
  8
0
 10
96.8023
 20
215.319
 11
96.559
 21
215.271
  0
LINE
  8
0
 10
96.559
 20
215.271
 11
96.312
 21
215.251
  0
LINE
  8
0
 10
96.312
 20
215.251
 11
96.0642
 21
215.258
  0
LINE
  8
0
 10
-232.809
 20
175.271
 11
-233.052
 21
175.319
  0
LINE
  8
0
 10
-233.052
 20
175.319
 11
-233.289
 21
175.393
  0
LINE
  8
0
 10
-233.289
 20
175.393
 11
-233.516
 21
175.492
  0
LINE
  8
0
 10
-233.516
 20
175.492
 11
-233.731
 21
175.616
  0
LINE
  8
0
 10
-233.731
 20
175.616
 11
-233.93
 21
175.763
  0
LINE
  8
0
 10
-233.93
 20
175.763
 11
-234.113
 21
175.931
  0
LINE
  8
0
 10
-234.113
 20
175.931
 11
-234.276
 21
176.118
  0
LINE
  8
0
 10
-234.276
 20
176.118
 11
-234.417
 21
176.322
  0
LINE
  8
0
 10
-234.417
 20
176.322
 11
-234.535
 21
176.54
  0
LINE
  8
0
 10
-234.535
 20
176.54
 11
-234.628
 21
176.769
  0
LINE
  8
0
 10
-234.628
 20
176.769
 11
-234.696
 21
177.008
  0
LINE
  8
0
 10
-234.696
 20
177.008
 11
-234.736
 21
177.252
  0
LINE
  8
0
 10
-234.736
 20
177.252
 11
-234.75
 21
177.5
  0
LINE
  8
0
 10
-234.75
 20
177.5
 11
-234.736
 21
177.748
  0
LINE
  8
0
 10
-234.736
 20
177.748
 11
-234.696
 21
177.992
  0
LINE
  8
0
 10
-234.696
 20
177.992
 11
-234.628
 21
178.231
  0
LINE
  8
0
 10
-234.628
 20
178.231
 11
-234.535
 21
178.46
  0
LINE
  8
0
 10
-234.535
 20
178.46
 11
-234.417
 21
178.678
  0
LINE
  8
0
 10
-234.417
 20
178.678
 11
-234.276
 21
178.882
  0
LINE
  8
0
 10
-234.276
 20
178.882
 11
-234.113
 21
179.069
  0
LINE
  8
0
 10
-234.113
 20
179.069
 11
-233.93
 21
179.237
  0
LINE
  8
0
 10
-233.93
 20
179.237
 11
-233.731
 21
179.384
  0
LINE
  8
0
 10
-233.731
 20
179.384
 11
-233.516
 21
179.508
  0
LINE
  8
0
 10
-233.516
 20
179.508
 11
-233.289
 21
179.607
  0
LINE
  8
0
 10
-233.289
 20
179.607
 11
-233.052
 21
179.681
  0
LINE
  8
0
 10
-233.052
 20
179.681
 11
-232.809
 21
179.729
  0
LINE
  8
0
 10
-232.809
 20
179.729
 11
-232.562
 21
179.749
  0
LINE
  8
0
 10
-232.562
 20
179.749
 11
-232.314
 21
179.742
  0
LINE
  8
0
 10
-232.314
 20
179.742
 11
-232.069
 21
179.708
  0
LINE
  8
0
 10
-232.069
 20
179.708
 11
-231.828
 21
179.647
  0
LINE
  8
0
 10
-231.828
 20
179.647
 11
-231.596
 21
179.56
  0
LINE
  8
0
 10
-231.596
 20
179.56
 11
-231.375
 21
179.449
  0
LINE
  8
0
 10
-231.375
 20
179.449
 11
-231.167
 21
179.313
  0
LINE
  8
0
 10
-231.167
 20
179.313
 11
-230.976
 21
179.155
  0
LINE
  8
0
 10
-230.976
 20
179.155
 11
-230.803
 21
178.978
  0
LINE
  8
0
 10
-230.803
 20
178.978
 11
-230.651
 21
178.782
  0
LINE
  8
0
 10
-230.651
 20
178.782
 11
-230.521
 21
178.571
  0
LINE
  8
0
 10
-230.521
 20
178.571
 11
-230.415
 21
178.347
  0
LINE
  8
0
 10
-230.415
 20
178.347
 11
-230.335
 21
178.112
  0
LINE
  8
0
 10
-230.335
 20
178.112
 11
-230.281
 21
177.87
  0
LINE
  8
0
 10
-230.281
 20
177.87
 11
-230.253
 21
177.624
  0
LINE
  8
0
 10
-230.253
 20
177.624
 11
-230.253
 21
177.376
  0
LINE
  8
0
 10
-230.253
 20
177.376
 11
-230.281
 21
177.13
  0
LINE
  8
0
 10
-230.281
 20
177.13
 11
-230.335
 21
176.888
  0
LINE
  8
0
 10
-230.335
 20
176.888
 11
-230.415
 21
176.653
  0
LINE
  8
0
 10
-230.415
 20
176.653
 11
-230.521
 21
176.429
  0
LINE
  8
0
 10
-230.521
 20
176.429
 11
-230.651
 21
176.218
  0
LINE
  8
0
 10
-230.651
 20
176.218
 11
-230.803
 21
176.022
  0
LINE
  8
0
 10
-230.803
 20
176.022
 11
-230.976
 21
175.845
  0
LINE
  8
0
 10
-230.976
 20
175.845
 11
-231.167
 21
175.687
  0
LINE
  8
0
 10
-231.167
 20
175.687
 11
-231.375
 21
175.551
  0
LINE
  8
0
 10
-231.375
 20
175.551
 11
-231.596
 21
175.44
  0
LINE
  8
0
 10
-231.596
 20
175.44
 11
-231.828
 21
175.353
  0
LINE
  8
0
 10
-231.828
 20
175.353
 11
-232.069
 21
175.292
  0
LINE
  8
0
 10
-232.069
 20
175.292
 11
-232.314
 21
175.258
  0
LINE
  8
0
 10
-232.314
 20
175.258
 11
-232.562
 21
175.251
  0
LINE
  8
0
 10
-232.562
 20
175.251
 11
-232.809
 21
175.271
  0
LINE
  8
0
 10
232.314
 20
175.258
 11
232.069
 21
175.292
  0
LINE
  8
0
 10
232.069
 20
175.292
 11
231.828
 21
175.353
  0
LINE
  8
0
 10
231.828
 20
175.353
 11
231.596
 21
175.44
  0
LINE
  8
0
 10
231.596
 20
175.44
 11
231.375
 21
175.551
  0
LINE
  8
0
 10
231.375
 20
175.551
 11
231.167
 21
175.687
  0
LINE
  8
0
 10
231.167
 20
175.687
 11
230.976
 21
175.845
  0
LINE
  8
0
 10
230.976
 20
175.845
 11
230.803
 21
176.022
  0
LINE
  8
0
 10
230.803
 20
176.022
 11
230.651
 21
176.218
  0
LINE
  8
0
 10
230.651
 20
176.218
 11
230.521
 21
176.429
  0
LINE
  8
0
 10
230.521
 20
176.429
 11
230.415
 21
176.653
  0
LINE
  8
0
 10
230.415
 20
176.653
 11
230.335
 21
176.888
  0
LINE
  8
0
 10
230.335
 20
176.888
 11
230.281
 21
177.13
  0
LINE
  8
0
 10
230.281
 20
177.13
 11
230.253
 21
177.376
  0
LINE
  8
0
 10
230.253
 20
177.376
 11
230.253
 21
177.624
  0
LINE
  8
0
 10
230.253
 20
177.624
 11
230.281
 21
177.87
  0
LINE
  8
0
 10
230.281
 20
177.87
 11
230.335
 21
178.112
  0
LINE
  8
0
 10
230.335
 20
178.112
 11
230.415
 21
178.347
  0
LINE
  8
0
 10
230.415
 20
178.347
 11
230.521
 21
178.571
  0
LINE
  8
0
 10
230.521
 20
178.571
 11
230.651
 21
178.782
  0
LINE
  8
0
 10
230.651
 20
178.782
 11
230.803
 21
178.978
  0
LINE
  8
0
 10
230.803
 20
178.978
 11
230.976
 21
179.155
  0
LINE
  8
0
 10
230.976
 20
179.155
 11
231.167
 21
179.313
  0
LINE
  8
0
 10
231.167
 20
179.313
 11
231.375
 21
179.449
  0
LINE
  8
0
 10
231.375
 20
179.449
 11
231.596
 21
179.56
  0
LINE
  8
0
 10
231.596
 20
179.56
 11
231.828
 21
179.647
  0
LINE
  8
0
 10
231.828
 20
179.647
 11
232.069
 21
179.708
  0
LINE
  8
0
 10
232.069
 20
179.708
 11
232.314
 21
179.742
  0
LINE
  8
0
 10
232.314
 20
179.742
 11
232.562
 21
179.749
  0
LINE
  8
0
 10
232.562
 20
179.749
 11
232.809
 21
179.729
  0
LINE
  8
0
 10
232.809
 20
179.729
 11
233.052
 21
179.681
  0
LINE
  8
0
 10
233.052
 20
179.681
 11
233.289
 21
179.607
  0
LINE
  8
0
 10
233.289
 20
179.607
 11
233.516
 21
179.508
  0
LINE
  8
0
 10
233.516
 20
179.508
 11
233.731
 21
179.384
  0
LINE
  8
0
 10
233.731
 20
179.384
 11
233.93
 21
179.237
  0
LINE
  8
0
 10
233.93
 20
179.237
 11
234.113
 21
179.069
  0
LINE
  8
0
 10
234.113
 20
179.069
 11
234.276
 21
178.882
  0
LINE
  8
0
 10
234.276
 20
178.882
 11
234.417
 21
178.678
  0
LINE
  8
0
 10
234.417
 20
178.678
 11
234.535
 21
178.46
  0
LINE
  8
0
 10
234.535
 20
178.46
 11
234.628
 21
178.231
  0
LINE
  8
0
 10
234.628
 20
178.231
 11
234.696
 21
177.992
  0
LINE
  8
0
 10
234.696
 20
177.992
 11
234.736
 21
177.748
  0
LINE
  8
0
 10
234.736
 20
177.748
 11
234.75
 21
177.5
  0
LINE
  8
0
 10
234.75
 20
177.5
 11
234.736
 21
177.252
  0
LINE
  8
0
 10
234.736
 20
177.252
 11
234.696
 21
177.008
  0
LINE
  8
0
 10
234.696
 20
177.008
 11
234.628
 21
176.769
  0
LINE
  8
0
 10
234.628
 20
176.769
 11
234.535
 21
176.54
  0
LINE
  8
0
 10
234.535
 20
176.54
 11
234.417
 21
176.322
  0
LINE
  8
0
 10
234.417
 20
176.322
 11
234.276
 21
176.118
  0
LINE
  8
0
 10
234.276
 20
176.118
 11
234.113
 21
175.931
  0
LINE
  8
0
 10
234.113
 20
175.931
 11
233.93
 21
175.763
  0
LINE
  8
0
 10
233.93
 20
175.763
 11
233.731
 21
175.616
  0
LINE
  8
0
 10
233.731
 20
175.616
 11
233.516
 21
175.492
  0
LINE
  8
0
 10
233.516
 20
175.492
 11
233.289
 21
175.393
  0
LINE
  8
0
 10
233.289
 20
175.393
 11
233.052
 21
175.319
  0
LINE
  8
0
 10
233.052
 20
175.319
 11
232.809
 21
175.271
  0
LINE
  8
0
 10
232.809
 20
175.271
 11
232.562
 21
175.251
  0
LINE
  8
0
 10
232.562
 20
175.251
 11
232.314
 21
175.258
  0
LINE
  8
0
 10
-85.3589
 20
108.571
 11
-86.7029
 21
108.784
  0
LINE
  8
0
 10
-86.7029
 20
108.784
 11
-88.0172
 21
109.136
  0
LINE
  8
0
 10
-88.0172
 20
109.136
 11
-89.2876
 21
109.624
  0
LINE
  8
0
 10
-89.2876
 20
109.624
 11
-90.5
 21
110.242
  0
LINE
  8
0
 10
-90.5
 20
110.242
 11
-91.6412
 21
110.983
  0
LINE
  8
0
 10
-91.6412
 20
110.983
 11
-92.6987
 21
111.839
  0
LINE
  8
0
 10
-92.6987
 20
111.839
 11
-93.6609
 21
112.801
  0
LINE
  8
0
 10
-93.6609
 20
112.801
 11
-94.5172
 21
113.859
  0
LINE
  8
0
 10
-94.5172
 20
113.859
 11
-95.2583
 21
115
  0
LINE
  8
0
 10
-95.2583
 20
115
 11
-95.8761
 21
116.212
  0
LINE
  8
0
 10
-95.8761
 20
116.212
 11
-96.3637
 21
117.483
  0
LINE
  8
0
 10
-96.3637
 20
117.483
 11
-96.7159
 21
118.797
  0
LINE
  8
0
 10
-96.7159
 20
118.797
 11
-96.9288
 21
120.141
  0
LINE
  8
0
 10
-96.9288
 20
120.141
 11
-97
 21
121.5
  0
LINE
  8
0
 10
-97
 20
121.5
 11
-96.9288
 21
122.859
  0
LINE
  8
0
 10
-96.9288
 20
122.859
 11
-96.7159
 21
124.203
  0
LINE
  8
0
 10
-96.7159
 20
124.203
 11
-96.3637
 21
125.517
  0
LINE
  8
0
 10
-96.3637
 20
125.517
 11
-95.8761
 21
126.788
  0
LINE
  8
0
 10
-95.8761
 20
126.788
 11
-95.2583
 21
128
  0
LINE
  8
0
 10
-95.2583
 20
128
 11
-94.5172
 21
129.141
  0
LINE
  8
0
 10
-94.5172
 20
129.141
 11
-93.6609
 21
130.199
  0
LINE
  8
0
 10
-93.6609
 20
130.199
 11
-92.6987
 21
131.161
  0
LINE
  8
0
 10
-92.6987
 20
131.161
 11
-91.6412
 21
132.017
  0
LINE
  8
0
 10
-91.6412
 20
132.017
 11
-90.5
 21
132.758
  0
LINE
  8
0
 10
-90.5
 20
132.758
 11
-89.2876
 21
133.376
  0
LINE
  8
0
 10
-89.2876
 20
133.376
 11
-88.0172
 21
133.864
  0
LINE
  8
0
 10
-88.0172
 20
133.864
 11
-86.7029
 21
134.216
  0
LINE
  8
0
 10
-86.7029
 20
134.216
 11
-85.3589
 21
134.429
  0
LINE
  8
0
 10
-85.3589
 20
134.429
 11
-84
 21
134.5
  0
LINE
  8
0
 10
-84
 20
134.5
 11
-82.6411
 21
134.429
  0
LINE
  8
0
 10
-82.6411
 20
134.429
 11
-81.2971
 21
134.216
  0
LINE
  8
0
 10
-81.2971
 20
134.216
 11
-79.9828
 21
133.864
  0
LINE
  8
0
 10
-79.9828
 20
133.864
 11
-78.7124
 21
133.376
  0
LINE
  8
0
 10
-78.7124
 20
133.376
 11
-77.5
 21
132.758
  0
LINE
  8
0
 10
-77.5
 20
132.758
 11
-76.3588
 21
132.017
  0
LINE
  8
0
 10
-76.3588
 20
132.017
 11
-75.3013
 21
131.161
  0
LINE
  8
0
 10
-75.3013
 20
131.161
 11
-74.3391
 21
130.199
  0
LINE
  8
0
 10
-74.3391
 20
130.199
 11
-73.4828
 21
129.141
  0
LINE
  8
0
 10
-73.4828
 20
129.141
 11
-72.7417
 21
128
  0
LINE
  8
0
 10
-72.7417
 20
128
 11
-72.1239
 21
126.788
  0
LINE
  8
0
 10
-72.1239
 20
126.788
 11
-71.6363
 21
125.517
  0
LINE
  8
0
 10
-71.6363
 20
125.517
 11
-71.2841
 21
124.203
  0
LINE
  8
0
 10
-71.2841
 20
124.203
 11
-71.0712
 21
122.859
  0
LINE
  8
0
 10
-71.0712
 20
122.859
 11
-71
 21
121.5
  0
LINE
  8
0
 10
-71
 20
121.5
 11
-71.0712
 21
120.141
  0
LINE
  8
0
 10
-71.0712
 20
120.141
 11
-71.2841
 21
118.797
  0
LINE
  8
0
 10
-71.2841
 20
118.797
 11
-71.6363
 21
117.483
  0
LINE
  8
0
 10
-71.6363
 20
117.483
 11
-72.1239
 21
116.212
  0
LINE
  8
0
 10
-72.1239
 20
116.212
 11
-72.7417
 21
115
  0
LINE
  8
0
 10
-72.7417
 20
115
 11
-73.4828
 21
113.859
  0
LINE
  8
0
 10
-73.4828
 20
113.859
 11
-74.3391
 21
112.801
  0
LINE
  8
0
 10
-74.3391
 20
112.801
 11
-75.3013
 21
111.839
  0
LINE
  8
0
 10
-75.3013
 20
111.839
 11
-76.3588
 21
110.983
  0
LINE
  8
0
 10
-76.3588
 20
110.983
 11
-77.5
 21
110.242
  0
LINE
  8
0
 10
-77.5
 20
110.242
 11
-78.7124
 21
109.624
  0
LINE
  8
0
 10
-78.7124
 20
109.624
 11
-79.9828
 21
109.136
  0
LINE
  8
0
 10
-79.9828
 20
109.136
 11
-81.2971
 21
108.784
  0
LINE
  8
0
 10
-81.2971
 20
108.784
 11
-82.6411
 21
108.571
  0
LINE
  8
0
 10
-82.6411
 20
108.571
 11
-84
 21
108.5
  0
LINE
  8
0
 10
-84
 20
108.5
 11
-85.3589
 21
108.571
  0
LINE
  8
0
 10
185.376
 20
129.005
 11
185.132
 21
129.046
  0
LINE
  8
0
 10
185.132
 20
129.046
 11
184.897
 21
129.126
  0
LINE
  8
0
 10
184.897
 20
129.126
 11
184.68
 21
129.244
  0
LINE
  8
0
 10
184.68
 20
129.244
 11
184.484
 21
129.396
  0
LINE
  8
0
 10
184.484
 20
129.396
 11
184.316
 21
129.579
  0
LINE
  8
0
 10
184.316
 20
129.579
 11
184.181
 21
129.786
  0
LINE
  8
0
 10
184.181
 20
129.786
 11
184.081
 21
130.013
  0
LINE
  8
0
 10
184.081
 20
130.013
 11
184.02
 21
130.253
  0
LINE
  8
0
 10
184.02
 20
130.253
 11
184
 21
130.5
  0
LINE
  8
0
 10
184
 20
130.5
 11
184.02
 21
130.747
  0
LINE
  8
0
 10
184.02
 20
130.747
 11
184.081
 21
130.987
  0
LINE
  8
0
 10
184.081
 20
130.987
 11
184.181
 21
131.214
  0
LINE
  8
0
 10
184.181
 20
131.214
 11
184.316
 21
131.421
  0
LINE
  8
0
 10
184.316
 20
131.421
 11
184.484
 21
131.604
  0
LINE
  8
0
 10
184.484
 20
131.604
 11
184.68
 21
131.756
  0
LINE
  8
0
 10
184.68
 20
131.756
 11
184.897
 21
131.874
  0
LINE
  8
0
 10
184.897
 20
131.874
 11
185.132
 21
131.954
  0
LINE
  8
0
 10
185.132
 20
131.954
 11
185.376
 21
131.995
  0
LINE
  8
0
 10
185.376
 20
131.995
 11
185.624
 21
131.995
  0
LINE
  8
0
 10
185.624
 20
131.995
 11
185.868
 21
131.954
  0
LINE
  8
0
 10
185.868
 20
131.954
 11
186.103
 21
131.874
  0
LINE
  8
0
 10
186.103
 20
131.874
 11
186.32
 21
131.756
  0
LINE
  8
0
 10
186.32
 20
131.756
 11
186.516
 21
131.604
  0
LINE
  8
0
 10
186.516
 20
131.604
 11
186.684
 21
131.421
  0
LINE
  8
0
 10
186.684
 20
131.421
 11
186.819
 21
131.214
  0
LINE
  8
0
 10
186.819
 20
131.214
 11
186.919
 21
130.987
  0
LINE
  8
0
 10
186.919
 20
130.987
 11
186.98
 21
130.747
  0
LINE
  8
0
 10
186.98
 20
130.747
 11
187
 21
130.5
  0
LINE
  8
0
 10
187
 20
130.5
 11
186.98
 21
130.253
  0
LINE
  8
0
 10
186.98
 20
130.253
 11
186.919
 21
130.013
  0
LINE
  8
0
 10
186.919
 20
130.013
 11
186.819
 21
129.786
  0
LINE
  8
0
 10
186.819
 20
129.786
 11
186.684
 21
129.579
  0
LINE
  8
0
 10
186.684
 20
129.579
 11
186.516
 21
129.396
  0
LINE
  8
0
 10
186.516
 20
129.396
 11
186.32
 21
129.244
  0
LINE
  8
0
 10
186.32
 20
129.244
 11
186.103
 21
129.126
  0
LINE
  8
0
 10
186.103
 20
129.126
 11
185.868
 21
129.046
  0
LINE
  8
0
 10
185.868
 20
129.046
 11
185.624
 21
129.005
  0
LINE
  8
0
 10
185.624
 20
129.005
 11
185.376
 21
129.005
  0
LINE
  8
0
 10
-185.624
 20
129.005
 11
-185.868
 21
129.046
  0
LINE
  8
0
 10
-185.868
 20
129.046
 11
-186.103
 21
129.126
  0
LINE
  8
0
 10
-186.103
 20
129.126
 11
-186.32
 21
129.244
  0
LINE
  8
0
 10
-186.32
 20
129.244
 11
-186.516
 21
129.396
  0
LINE
  8
0
 10
-186.516
 20
129.396
 11
-186.684
 21
129.579
  0
LINE
  8
0
 10
-186.684
 20
129.579
 11
-186.819
 21
129.786
  0
LINE
  8
0
 10
-186.819
 20
129.786
 11
-186.919
 21
130.013
  0
LINE
  8
0
 10
-186.919
 20
130.013
 11
-186.98
 21
130.253
  0
LINE
  8
0
 10
-186.98
 20
130.253
 11
-187
 21
130.5
  0
LINE
  8
0
 10
-187
 20
130.5
 11
-186.98
 21
130.747
  0
LINE
  8
0
 10
-186.98
 20
130.747
 11
-186.919
 21
130.987
  0
LINE
  8
0
 10
-186.919
 20
130.987
 11
-186.819
 21
131.214
  0
LINE
  8
0
 10
-186.819
 20
131.214
 11
-186.684
 21
131.421
  0
LINE
  8
0
 10
-186.684
 20
131.421
 11
-186.516
 21
131.604
  0
LINE
  8
0
 10
-186.516
 20
131.604
 11
-186.32
 21
131.756
  0
LINE
  8
0
 10
-186.32
 20
131.756
 11
-186.103
 21
131.874
  0
LINE
  8
0
 10
-186.103
 20
131.874
 11
-185.868
 21
131.954
  0
LINE
  8
0
 10
-185.868
 20
131.954
 11
-185.624
 21
131.995
  0
LINE
  8
0
 10
-185.624
 20
131.995
 11
-185.376
 21
131.995
  0
LINE
  8
0
 10
-185.376
 20
131.995
 11
-185.132
 21
131.954
  0
LINE
  8
0
 10
-185.132
 20
131.954
 11
-184.897
 21
131.874
  0
LINE
  8
0
 10
-184.897
 20
131.874
 11
-184.68
 21
131.756
  0
LINE
  8
0
 10
-184.68
 20
131.756
 11
-184.484
 21
131.604
  0
LINE
  8
0
 10
-184.484
 20
131.604
 11
-184.316
 21
131.421
  0
LINE
  8
0
 10
-184.316
 20
131.421
 11
-184.181
 21
131.214
  0
LINE
  8
0
 10
-184.181
 20
131.214
 11
-184.081
 21
130.987
  0
LINE
  8
0
 10
-184.081
 20
130.987
 11
-184.02
 21
130.747
  0
LINE
  8
0
 10
-184.02
 20
130.747
 11
-184
 21
130.5
  0
LINE
  8
0
 10
-184
 20
130.5
 11
-184.02
 21
130.253
  0
LINE
  8
0
 10
-184.02
 20
130.253
 11
-184.081
 21
130.013
  0
LINE
  8
0
 10
-184.081
 20
130.013
 11
-184.181
 21
129.786
  0
LINE
  8
0
 10
-184.181
 20
129.786
 11
-184.316
 21
129.579
  0
LINE
  8
0
 10
-184.316
 20
129.579
 11
-184.484
 21
129.396
  0
LINE
  8
0
 10
-184.484
 20
129.396
 11
-184.68
 21
129.244
  0
LINE
  8
0
 10
-184.68
 20
129.244
 11
-184.897
 21
129.126
  0
LINE
  8
0
 10
-184.897
 20
129.126
 11
-185.132
 21
129.046
  0
LINE
  8
0
 10
-185.132
 20
129.046
 11
-185.376
 21
129.005
  0
LINE
  8
0
 10
-185.376
 20
129.005
 11
-185.624
 21
129.005
  0
LINE
  8
0
 10
139.186
 20
108.016
 11
138.876
 21
108.066
  0
LINE
  8
0
 10
138.876
 20
108.066
 11
138.573
 21
108.147
  0
LINE
  8
0
 10
138.573
 20
108.147
 11
138.28
 21
108.259
  0
LINE
  8
0
 10
138.28
 20
108.259
 11
138
 21
108.402
  0
LINE
  8
0
 10
138
 20
108.402
 11
137.737
 21
108.573
  0
LINE
  8
0
 10
137.737
 20
108.573
 11
137.493
 21
108.771
  0
LINE
  8
0
 10
137.493
 20
108.771
 11
137.271
 21
108.993
  0
LINE
  8
0
 10
137.271
 20
108.993
 11
137.073
 21
109.237
  0
LINE
  8
0
 10
137.073
 20
109.237
 11
136.902
 21
109.5
  0
LINE
  8
0
 10
136.902
 20
109.5
 11
136.759
 21
109.78
  0
LINE
  8
0
 10
136.759
 20
109.78
 11
136.647
 21
110.073
  0
LINE
  8
0
 10
136.647
 20
110.073
 11
136.566
 21
110.376
  0
LINE
  8
0
 10
136.566
 20
110.376
 11
136.516
 21
110.686
  0
LINE
  8
0
 10
136.516
 20
110.686
 11
136.5
 21
111
  0
LINE
  8
0
 10
136.5
 20
111
 11
136.516
 21
111.314
  0
LINE
  8
0
 10
136.516
 20
111.314
 11
136.566
 21
111.624
  0
LINE
  8
0
 10
136.566
 20
111.624
 11
136.647
 21
111.927
  0
LINE
  8
0
 10
136.647
 20
111.927
 11
136.759
 21
112.22
  0
LINE
  8
0
 10
136.759
 20
112.22
 11
136.902
 21
112.5
  0
LINE
  8
0
 10
136.902
 20
112.5
 11
137.073
 21
112.763
  0
LINE
  8
0
 10
137.073
 20
112.763
 11
137.271
 21
113.007
  0
LINE
  8
0
 10
137.271
 20
113.007
 11
137.493
 21
113.229
  0
LINE
  8
0
 10
137.493
 20
113.229
 11
137.737
 21
113.427
  0
LINE
  8
0
 10
137.737
 20
113.427
 11
138
 21
113.598
  0
LINE
  8
0
 10
138
 20
113.598
 11
138.28
 21
113.741
  0
LINE
  8
0
 10
138.28
 20
113.741
 11
138.573
 21
113.853
  0
LINE
  8
0
 10
138.573
 20
113.853
 11
138.876
 21
113.934
  0
LINE
  8
0
 10
138.876
 20
113.934
 11
139.186
 21
113.984
  0
LINE
  8
0
 10
139.186
 20
113.984
 11
139.5
 21
114
  0
LINE
  8
0
 10
139.5
 20
114
 11
139.814
 21
113.984
  0
LINE
  8
0
 10
139.814
 20
113.984
 11
140.124
 21
113.934
  0
LINE
  8
0
 10
140.124
 20
113.934
 11
140.427
 21
113.853
  0
LINE
  8
0
 10
140.427
 20
113.853
 11
140.72
 21
113.741
  0
LINE
  8
0
 10
140.72
 20
113.741
 11
141
 21
113.598
  0
LINE
  8
0
 10
141
 20
113.598
 11
141.263
 21
113.427
  0
LINE
  8
0
 10
141.263
 20
113.427
 11
141.507
 21
113.229
  0
LINE
  8
0
 10
141.507
 20
113.229
 11
141.729
 21
113.007
  0
LINE
  8
0
 10
141.729
 20
113.007
 11
141.927
 21
112.763
  0
LINE
  8
0
 10
141.927
 20
112.763
 11
142.098
 21
112.5
  0
LINE
  8
0
 10
142.098
 20
112.5
 11
142.241
 21
112.22
  0
LINE
  8
0
 10
142.241
 20
112.22
 11
142.353
 21
111.927
  0
LINE
  8
0
 10
142.353
 20
111.927
 11
142.434
 21
111.624
  0
LINE
  8
0
 10
142.434
 20
111.624
 11
142.484
 21
111.314
  0
LINE
  8
0
 10
142.484
 20
111.314
 11
142.5
 21
111
  0
LINE
  8
0
 10
142.5
 20
111
 11
142.484
 21
110.686
  0
LINE
  8
0
 10
142.484
 20
110.686
 11
142.434
 21
110.376
  0
LINE
  8
0
 10
142.434
 20
110.376
 11
142.353
 21
110.073
  0
LINE
  8
0
 10
142.353
 20
110.073
 11
142.241
 21
109.78
  0
LINE
  8
0
 10
142.241
 20
109.78
 11
142.098
 21
109.5
  0
LINE
  8
0
 10
142.098
 20
109.5
 11
141.927
 21
109.237
  0
LINE
  8
0
 10
141.927
 20
109.237
 11
141.729
 21
108.993
  0
LINE
  8
0
 10
141.729
 20
108.993
 11
141.507
 21
108.771
  0
LINE
  8
0
 10
141.507
 20
108.771
 11
141.263
 21
108.573
  0
LINE
  8
0
 10
141.263
 20
108.573
 11
141
 21
108.402
  0
LINE
  8
0
 10
141
 20
108.402
 11
140.72
 21
108.259
  0
LINE
  8
0
 10
140.72
 20
108.259
 11
140.427
 21
108.147
  0
LINE
  8
0
 10
140.427
 20
108.147
 11
140.124
 21
108.066
  0
LINE
  8
0
 10
140.124
 20
108.066
 11
139.814
 21
108.016
  0
LINE
  8
0
 10
139.814
 20
108.016
 11
139.5
 21
108
  0
LINE
  8
0
 10
139.5
 20
108
 11
139.186
 21
108.016
  0
LINE
  8
0
 10
54.1864
 20
108.016
 11
53.8763
 21
108.066
  0
LINE
  8
0
 10
53.8763
 20
108.066
 11
53.5729
 21
108.147
  0
LINE
  8
0
 10
53.5729
 20
108.147
 11
53.2798
 21
108.259
  0
LINE
  8
0
 10
53.2798
 20
108.259
 11
53
 21
108.402
  0
LINE
  8
0
 10
53
 20
108.402
 11
52.7366
 21
108.573
  0
LINE
  8
0
 10
52.7366
 20
108.573
 11
52.4926
 21
108.771
  0
LINE
  8
0
 10
52.4926
 20
108.771
 11
52.2706
 21
108.993
  0
LINE
  8
0
 10
52.2706
 20
108.993
 11
52.0729
 21
109.237
  0
LINE
  8
0
 10
52.0729
 20
109.237
 11
51.9019
 21
109.5
  0
LINE
  8
0
 10
51.9019
 20
109.5
 11
51.7594
 21
109.78
  0
LINE
  8
0
 10
51.7594
 20
109.78
 11
51.6468
 21
110.073
  0
LINE
  8
0
 10
51.6468
 20
110.073
 11
51.5656
 21
110.376
  0
LINE
  8
0
 10
51.5656
 20
110.376
 11
51.5164
 21
110.686
  0
LINE
  8
0
 10
51.5164
 20
110.686
 11
51.5
 21
111
  0
LINE
  8
0
 10
51.5
 20
111
 11
51.5164
 21
111.314
  0
LINE
  8
0
 10
51.5164
 20
111.314
 11
51.5656
 21
111.624
  0
LINE
  8
0
 10
51.5656
 20
111.624
 11
51.6468
 21
111.927
  0
LINE
  8
0
 10
51.6468
 20
111.927
 11
51.7594
 21
112.22
  0
LINE
  8
0
 10
51.7594
 20
112.22
 11
51.9019
 21
112.5
  0
LINE
  8
0
 10
51.9019
 20
112.5
 11
52.0729
 21
112.763
  0
LINE
  8
0
 10
52.0729
 20
112.763
 11
52.2706
 21
113.007
  0
LINE
  8
0
 10
52.2706
 20
113.007
 11
52.4926
 21
113.229
  0
LINE
  8
0
 10
52.4926
 20
113.229
 11
52.7366
 21
113.427
  0
LINE
  8
0
 10
52.7366
 20
113.427
 11
53
 21
113.598
  0
LINE
  8
0
 10
53
 20
113.598
 11
53.2798
 21
113.741
  0
LINE
  8
0
 10
53.2798
 20
113.741
 11
53.5729
 21
113.853
  0
LINE
  8
0
 10
53.5729
 20
113.853
 11
53.8763
 21
113.934
  0
LINE
  8
0
 10
53.8763
 20
113.934
 11
54.1864
 21
113.984
  0
LINE
  8
0
 10
54.1864
 20
113.984
 11
54.5
 21
114
  0
LINE
  8
0
 10
54.5
 20
114
 11
54.8136
 21
113.984
  0
LINE
  8
0
 10
54.8136
 20
113.984
 11
55.1237
 21
113.934
  0
LINE
  8
0
 10
55.1237
 20
113.934
 11
55.427
 21
113.853
  0
LINE
  8
0
 10
55.427
 20
113.853
 11
55.7202
 21
113.741
  0
LINE
  8
0
 10
55.7202
 20
113.741
 11
56
 21
113.598
  0
LINE
  8
0
 10
56
 20
113.598
 11
56.2634
 21
113.427
  0
LINE
  8
0
 10
56.2634
 20
113.427
 11
56.5074
 21
113.229
  0
LINE
  8
0
 10
56.5074
 20
113.229
 11
56.7294
 21
113.007
  0
LINE
  8
0
 10
56.7294
 20
113.007
 11
56.927
 21
112.763
  0
LINE
  8
0
 10
56.927
 20
112.763
 11
57.0981
 21
112.5
  0
LINE
  8
0
 10
57.0981
 20
112.5
 11
57.2406
 21
112.22
  0
LINE
  8
0
 10
57.2406
 20
112.22
 11
57.3532
 21
111.927
  0
LINE
  8
0
 10
57.3532
 20
111.927
 11
57.4344
 21
111.624
  0
LINE
  8
0
 10
57.4344
 20
111.624
 11
57.4836
 21
111.314
  0
LINE
  8
0
 10
57.4836
 20
111.314
 11
57.5
 21
111
  0
LINE
  8
0
 10
57.5
 20
111
 11
57.4836
 21
110.686
  0
LINE
  8
0
 10
57.4836
 20
110.686
 11
57.4344
 21
110.376
  0
LINE
  8
0
 10
57.4344
 20
110.376
 11
57.3532
 21
110.073
  0
LINE
  8
0
 10
57.3532
 20
110.073
 11
57.2406
 21
109.78
  0
LINE
  8
0
 10
57.2406
 20
109.78
 11
57.0981
 21
109.5
  0
LINE
  8
0
 10
57.0981
 20
109.5
 11
56.927
 21
109.237
  0
LINE
  8
0
 10
56.927
 20
109.237
 11
56.7294
 21
108.993
  0
LINE
  8
0
 10
56.7294
 20
108.993
 11
56.5074
 21
108.771
  0
LINE
  8
0
 10
56.5074
 20
108.771
 11
56.2634
 21
108.573
  0
LINE
  8
0
 10
56.2634
 20
108.573
 11
56
 21
108.402
  0
LINE
  8
0
 10
56
 20
108.402
 11
55.7202
 21
108.259
  0
LINE
  8
0
 10
55.7202
 20
108.259
 11
55.427
 21
108.147
  0
LINE
  8
0
 10
55.427
 20
108.147
 11
55.1237
 21
108.066
  0
LINE
  8
0
 10
55.1237
 20
108.066
 11
54.8136
 21
108.016
  0
LINE
  8
0
 10
54.8136
 20
108.016
 11
54.5
 21
108
  0
LINE
  8
0
 10
54.5
 20
108
 11
54.1864
 21
108.016
  0
LINE
  8
0
 10
-12.7463
 20
88.8138
 11
-12.9895
 21
88.8551
  0
LINE
  8
0
 10
-12.9895
 20
88.8551
 11
-13.2266
 21
88.9234
  0
LINE
  8
0
 10
-13.2266
 20
88.9234
 11
-13.4545
 21
89.0179
  0
LINE
  8
0
 10
-13.4545
 20
89.0179
 11
-13.6705
 21
89.1372
  0
LINE
  8
0
 10
-13.6705
 20
89.1372
 11
-13.8717
 21
89.28
  0
LINE
  8
0
 10
-13.8717
 20
89.28
 11
-14.0556
 21
89.4444
  0
LINE
  8
0
 10
-14.0556
 20
89.4444
 11
-14.22
 21
89.6283
  0
LINE
  8
0
 10
-14.22
 20
89.6283
 11
-14.3628
 21
89.8295
  0
LINE
  8
0
 10
-14.3628
 20
89.8295
 11
-14.4821
 21
90.0455
  0
LINE
  8
0
 10
-14.4821
 20
90.0455
 11
-14.5765
 21
90.2734
  0
LINE
  8
0
 10
-14.5765
 20
90.2734
 11
-14.6448
 21
90.5105
  0
LINE
  8
0
 10
-14.6448
 20
90.5105
 11
-14.6862
 21
90.7537
  0
LINE
  8
0
 10
-14.6862
 20
90.7537
 11
-14.7
 21
91
  0
LINE
  8
0
 10
-14.7
 20
91
 11
-14.6862
 21
91.2463
  0
LINE
  8
0
 10
-14.6862
 20
91.2463
 11
-14.6448
 21
91.4895
  0
LINE
  8
0
 10
-14.6448
 20
91.4895
 11
-14.5765
 21
91.7266
  0
LINE
  8
0
 10
-14.5765
 20
91.7266
 11
-14.4821
 21
91.9545
  0
LINE
  8
0
 10
-14.4821
 20
91.9545
 11
-14.3628
 21
92.1705
  0
LINE
  8
0
 10
-14.3628
 20
92.1705
 11
-14.22
 21
92.3717
  0
LINE
  8
0
 10
-14.22
 20
92.3717
 11
-14.0556
 21
92.5556
  0
LINE
  8
0
 10
-14.0556
 20
92.5556
 11
-13.8717
 21
92.72
  0
LINE
  8
0
 10
-13.8717
 20
92.72
 11
-13.6705
 21
92.8628
  0
LINE
  8
0
 10
-13.6705
 20
92.8628
 11
-13.4545
 21
92.9821
  0
LINE
  8
0
 10
-13.4545
 20
92.9821
 11
-13.2266
 21
93.0765
  0
LINE
  8
0
 10
-13.2266
 20
93.0765
 11
-12.9895
 21
93.1448
  0
LINE
  8
0
 10
-12.9895
 20
93.1448
 11
-12.7463
 21
93.1862
  0
LINE
  8
0
 10
-12.7463
 20
93.1862
 11
-12.5
 21
93.2
  0
LINE
  8
0
 10
-12.5
 20
93.2
 11
-12.2537
 21
93.1862
  0
LINE
  8
0
 10
-12.2537
 20
93.1862
 11
-12.0105
 21
93.1448
  0
LINE
  8
0
 10
-12.0105
 20
93.1448
 11
-11.7734
 21
93.0765
  0
LINE
  8
0
 10
-11.7734
 20
93.0765
 11
-11.5455
 21
92.9821
  0
LINE
  8
0
 10
-11.5455
 20
92.9821
 11
-11.3295
 21
92.8628
  0
LINE
  8
0
 10
-11.3295
 20
92.8628
 11
-11.1283
 21
92.72
  0
LINE
  8
0
 10
-11.1283
 20
92.72
 11
-10.9444
 21
92.5556
  0
LINE
  8
0
 10
-10.9444
 20
92.5556
 11
-10.78
 21
92.3717
  0
LINE
  8
0
 10
-10.78
 20
92.3717
 11
-10.6372
 21
92.1705
  0
LINE
  8
0
 10
-10.6372
 20
92.1705
 11
-10.5179
 21
91.9545
  0
LINE
  8
0
 10
-10.5179
 20
91.9545
 11
-10.4234
 21
91.7266
  0
LINE
  8
0
 10
-10.4234
 20
91.7266
 11
-10.3551
 21
91.4895
  0
LINE
  8
0
 10
-10.3551
 20
91.4895
 11
-10.3138
 21
91.2463
  0
LINE
  8
0
 10
-10.3138
 20
91.2463
 11
-10.3
 21
91
  0
LINE
  8
0
 10
-10.3
 20
91
 11
-10.3138
 21
90.7537
  0
LINE
  8
0
 10
-10.3138
 20
90.7537
 11
-10.3551
 21
90.5105
  0
LINE
  8
0
 10
-10.3551
 20
90.5105
 11
-10.4234
 21
90.2734
  0
LINE
  8
0
 10
-10.4234
 20
90.2734
 11
-10.5179
 21
90.0455
  0
LINE
  8
0
 10
-10.5179
 20
90.0455
 11
-10.6372
 21
89.8295
  0
LINE
  8
0
 10
-10.6372
 20
89.8295
 11
-10.78
 21
89.6283
  0
LINE
  8
0
 10
-10.78
 20
89.6283
 11
-10.9444
 21
89.4444
  0
LINE
  8
0
 10
-10.9444
 20
89.4444
 11
-11.1283
 21
89.28
  0
LINE
  8
0
 10
-11.1283
 20
89.28
 11
-11.3295
 21
89.1372
  0
LINE
  8
0
 10
-11.3295
 20
89.1372
 11
-11.5455
 21
89.0179
  0
LINE
  8
0
 10
-11.5455
 20
89.0179
 11
-11.7734
 21
88.9234
  0
LINE
  8
0
 10
-11.7734
 20
88.9234
 11
-12.0105
 21
88.8551
  0
LINE
  8
0
 10
-12.0105
 20
88.8551
 11
-12.2537
 21
88.8138
  0
LINE
  8
0
 10
-12.2537
 20
88.8138
 11
-12.5
 21
88.8
  0
LINE
  8
0
 10
-12.5
 20
88.8
 11
-12.7463
 21
88.8138
  0
LINE
  8
0
 10
-142.746
 20
88.8138
 11
-142.99
 21
88.8551
  0
LINE
  8
0
 10
-142.99
 20
88.8551
 11
-143.227
 21
88.9234
  0
LINE
  8
0
 10
-143.227
 20
88.9234
 11
-143.455
 21
89.0179
  0
LINE
  8
0
 10
-143.455
 20
89.0179
 11
-143.67
 21
89.1372
  0
LINE
  8
0
 10
-143.67
 20
89.1372
 11
-143.872
 21
89.28
  0
LINE
  8
0
 10
-143.872
 20
89.28
 11
-144.056
 21
89.4444
  0
LINE
  8
0
 10
-144.056
 20
89.4444
 11
-144.22
 21
89.6283
  0
LINE
  8
0
 10
-144.22
 20
89.6283
 11
-144.363
 21
89.8295
  0
LINE
  8
0
 10
-144.363
 20
89.8295
 11
-144.482
 21
90.0455
  0
LINE
  8
0
 10
-144.482
 20
90.0455
 11
-144.577
 21
90.2734
  0
LINE
  8
0
 10
-144.577
 20
90.2734
 11
-144.645
 21
90.5105
  0
LINE
  8
0
 10
-144.645
 20
90.5105
 11
-144.686
 21
90.7537
  0
LINE
  8
0
 10
-144.686
 20
90.7537
 11
-144.7
 21
91
  0
LINE
  8
0
 10
-144.7
 20
91
 11
-144.686
 21
91.2463
  0
LINE
  8
0
 10
-144.686
 20
91.2463
 11
-144.645
 21
91.4895
  0
LINE
  8
0
 10
-144.645
 20
91.4895
 11
-144.577
 21
91.7266
  0
LINE
  8
0
 10
-144.577
 20
91.7266
 11
-144.482
 21
91.9545
  0
LINE
  8
0
 10
-144.482
 20
91.9545
 11
-144.363
 21
92.1705
  0
LINE
  8
0
 10
-144.363
 20
92.1705
 11
-144.22
 21
92.3717
  0
LINE
  8
0
 10
-144.22
 20
92.3717
 11
-144.056
 21
92.5556
  0
LINE
  8
0
 10
-144.056
 20
92.5556
 11
-143.872
 21
92.72
  0
LINE
  8
0
 10
-143.872
 20
92.72
 11
-143.67
 21
92.8628
  0
LINE
  8
0
 10
-143.67
 20
92.8628
 11
-143.455
 21
92.9821
  0
LINE
  8
0
 10
-143.455
 20
92.9821
 11
-143.227
 21
93.0765
  0
LINE
  8
0
 10
-143.227
 20
93.0765
 11
-142.99
 21
93.1448
  0
LINE
  8
0
 10
-142.99
 20
93.1448
 11
-142.746
 21
93.1862
  0
LINE
  8
0
 10
-142.746
 20
93.1862
 11
-142.5
 21
93.2
  0
LINE
  8
0
 10
-142.5
 20
93.2
 11
-142.254
 21
93.1862
  0
LINE
  8
0
 10
-142.254
 20
93.1862
 11
-142.01
 21
93.1448
  0
LINE
  8
0
 10
-142.01
 20
93.1448
 11
-141.773
 21
93.0765
  0
LINE
  8
0
 10
-141.773
 20
93.0765
 11
-141.545
 21
92.9821
  0
LINE
  8
0
 10
-141.545
 20
92.9821
 11
-141.33
 21
92.8628
  0
LINE
  8
0
 10
-141.33
 20
92.8628
 11
-141.128
 21
92.72
  0
LINE
  8
0
 10
-141.128
 20
92.72
 11
-140.944
 21
92.5556
  0
LINE
  8
0
 10
-140.944
 20
92.5556
 11
-140.78
 21
92.3717
  0
LINE
  8
0
 10
-140.78
 20
92.3717
 11
-140.637
 21
92.1705
  0
LINE
  8
0
 10
-140.637
 20
92.1705
 11
-140.518
 21
91.9545
  0
LINE
  8
0
 10
-140.518
 20
91.9545
 11
-140.423
 21
91.7266
  0
LINE
  8
0
 10
-140.423
 20
91.7266
 11
-140.355
 21
91.4895
  0
LINE
  8
0
 10
-140.355
 20
91.4895
 11
-140.314
 21
91.2463
  0
LINE
  8
0
 10
-140.314
 20
91.2463
 11
-140.3
 21
91
  0
LINE
  8
0
 10
-140.3
 20
91
 11
-140.314
 21
90.7537
  0
LINE
  8
0
 10
-140.314
 20
90.7537
 11
-140.355
 21
90.5105
  0
LINE
  8
0
 10
-140.355
 20
90.5105
 11
-140.423
 21
90.2734
  0
LINE
  8
0
 10
-140.423
 20
90.2734
 11
-140.518
 21
90.0455
  0
LINE
  8
0
 10
-140.518
 20
90.0455
 11
-140.637
 21
89.8295
  0
LINE
  8
0
 10
-140.637
 20
89.8295
 11
-140.78
 21
89.6283
  0
LINE
  8
0
 10
-140.78
 20
89.6283
 11
-140.944
 21
89.4444
  0
LINE
  8
0
 10
-140.944
 20
89.4444
 11
-141.128
 21
89.28
  0
LINE
  8
0
 10
-141.128
 20
89.28
 11
-141.33
 21
89.1372
  0
LINE
  8
0
 10
-141.33
 20
89.1372
 11
-141.545
 21
89.0179
  0
LINE
  8
0
 10
-141.545
 20
89.0179
 11
-141.773
 21
88.9234
  0
LINE
  8
0
 10
-141.773
 20
88.9234
 11
-142.01
 21
88.8551
  0
LINE
  8
0
 10
-142.01
 20
88.8551
 11
-142.254
 21
88.8138
  0
LINE
  8
0
 10
-142.254
 20
88.8138
 11
-142.5
 21
88.8
  0
LINE
  8
0
 10
-142.5
 20
88.8
 11
-142.746
 21
88.8138
  0
LINE
  8
0
 10
-27.7463
 20
88.8138
 11
-27.9895
 21
88.8551
  0
LINE
  8
0
 10
-27.9895
 20
88.8551
 11
-28.2266
 21
88.9234
  0
LINE
  8
0
 10
-28.2266
 20
88.9234
 11
-28.4545
 21
89.0179
  0
LINE
  8
0
 10
-28.4545
 20
89.0179
 11
-28.6705
 21
89.1372
  0
LINE
  8
0
 10
-28.6705
 20
89.1372
 11
-28.8717
 21
89.28
  0
LINE
  8
0
 10
-28.8717
 20
89.28
 11
-29.0556
 21
89.4444
  0
LINE
  8
0
 10
-29.0556
 20
89.4444
 11
-29.22
 21
89.6283
  0
LINE
  8
0
 10
-29.22
 20
89.6283
 11
-29.3628
 21
89.8295
  0
LINE
  8
0
 10
-29.3628
 20
89.8295
 11
-29.4821
 21
90.0455
  0
LINE
  8
0
 10
-29.4821
 20
90.0455
 11
-29.5765
 21
90.2734
  0
LINE
  8
0
 10
-29.5765
 20
90.2734
 11
-29.6448
 21
90.5105
  0
LINE
  8
0
 10
-29.6448
 20
90.5105
 11
-29.6862
 21
90.7537
  0
LINE
  8
0
 10
-29.6862
 20
90.7537
 11
-29.7
 21
91
  0
LINE
  8
0
 10
-29.7
 20
91
 11
-29.6862
 21
91.2463
  0
LINE
  8
0
 10
-29.6862
 20
91.2463
 11
-29.6448
 21
91.4895
  0
LINE
  8
0
 10
-29.6448
 20
91.4895
 11
-29.5765
 21
91.7266
  0
LINE
  8
0
 10
-29.5765
 20
91.7266
 11
-29.4821
 21
91.9545
  0
LINE
  8
0
 10
-29.4821
 20
91.9545
 11
-29.3628
 21
92.1705
  0
LINE
  8
0
 10
-29.3628
 20
92.1705
 11
-29.22
 21
92.3717
  0
LINE
  8
0
 10
-29.22
 20
92.3717
 11
-29.0556
 21
92.5556
  0
LINE
  8
0
 10
-29.0556
 20
92.5556
 11
-28.8717
 21
92.72
  0
LINE
  8
0
 10
-28.8717
 20
92.72
 11
-28.6705
 21
92.8628
  0
LINE
  8
0
 10
-28.6705
 20
92.8628
 11
-28.4545
 21
92.9821
  0
LINE
  8
0
 10
-28.4545
 20
92.9821
 11
-28.2266
 21
93.0765
  0
LINE
  8
0
 10
-28.2266
 20
93.0765
 11
-27.9895
 21
93.1448
  0
LINE
  8
0
 10
-27.9895
 20
93.1448
 11
-27.7463
 21
93.1862
  0
LINE
  8
0
 10
-27.7463
 20
93.1862
 11
-27.5
 21
93.2
  0
LINE
  8
0
 10
-27.5
 20
93.2
 11
-27.2537
 21
93.1862
  0
LINE
  8
0
 10
-27.2537
 20
93.1862
 11
-27.0105
 21
93.1448
  0
LINE
  8
0
 10
-27.0105
 20
93.1448
 11
-26.7734
 21
93.0765
  0
LINE
  8
0
 10
-26.7734
 20
93.0765
 11
-26.5455
 21
92.9821
  0
LINE
  8
0
 10
-26.5455
 20
92.9821
 11
-26.3295
 21
92.8628
  0
LINE
  8
0
 10
-26.3295
 20
92.8628
 11
-26.1283
 21
92.72
  0
LINE
  8
0
 10
-26.1283
 20
92.72
 11
-25.9444
 21
92.5556
  0
LINE
  8
0
 10
-25.9444
 20
92.5556
 11
-25.78
 21
92.3717
  0
LINE
  8
0
 10
-25.78
 20
92.3717
 11
-25.6372
 21
92.1705
  0
LINE
  8
0
 10
-25.6372
 20
92.1705
 11
-25.5179
 21
91.9545
  0
LINE
  8
0
 10
-25.5179
 20
91.9545
 11
-25.4234
 21
91.7266
  0
LINE
  8
0
 10
-25.4234
 20
91.7266
 11
-25.3551
 21
91.4895
  0
LINE
  8
0
 10
-25.3551
 20
91.4895
 11
-25.3138
 21
91.2463
  0
LINE
  8
0
 10
-25.3138
 20
91.2463
 11
-25.3
 21
91
  0
LINE
  8
0
 10
-25.3
 20
91
 11
-25.3138
 21
90.7537
  0
LINE
  8
0
 10
-25.3138
 20
90.7537
 11
-25.3551
 21
90.5105
  0
LINE
  8
0
 10
-25.3551
 20
90.5105
 11
-25.4234
 21
90.2734
  0
LINE
  8
0
 10
-25.4234
 20
90.2734
 11
-25.5179
 21
90.0455
  0
LINE
  8
0
 10
-25.5179
 20
90.0455
 11
-25.6372
 21
89.8295
  0
LINE
  8
0
 10
-25.6372
 20
89.8295
 11
-25.78
 21
89.6283
  0
LINE
  8
0
 10
-25.78
 20
89.6283
 11
-25.9444
 21
89.4444
  0
LINE
  8
0
 10
-25.9444
 20
89.4444
 11
-26.1283
 21
89.28
  0
LINE
  8
0
 10
-26.1283
 20
89.28
 11
-26.3295
 21
89.1372
  0
LINE
  8
0
 10
-26.3295
 20
89.1372
 11
-26.5455
 21
89.0179
  0
LINE
  8
0
 10
-26.5455
 20
89.0179
 11
-26.7734
 21
88.9234
  0
LINE
  8
0
 10
-26.7734
 20
88.9234
 11
-27.0105
 21
88.8551
  0
LINE
  8
0
 10
-27.0105
 20
88.8551
 11
-27.2537
 21
88.8138
  0
LINE
  8
0
 10
-27.2537
 20
88.8138
 11
-27.5
 21
88.8
  0
LINE
  8
0
 10
-27.5
 20
88.8
 11
-27.7463
 21
88.8138
  0
LINE
  8
0
 10
-232.809
 20
86.5213
 11
-233.052
 21
86.5688
  0
LINE
  8
0
 10
-233.052
 20
86.5688
 11
-233.289
 21
86.6429
  0
LINE
  8
0
 10
-233.289
 20
86.6429
 11
-233.516
 21
86.7424
  0
LINE
  8
0
 10
-233.516
 20
86.7424
 11
-233.731
 21
86.8664
  0
LINE
  8
0
 10
-233.731
 20
86.8664
 11
-233.93
 21
87.0132
  0
LINE
  8
0
 10
-233.93
 20
87.0132
 11
-234.113
 21
87.1811
  0
LINE
  8
0
 10
-234.113
 20
87.1811
 11
-234.276
 21
87.368
  0
LINE
  8
0
 10
-234.276
 20
87.368
 11
-234.417
 21
87.5717
  0
LINE
  8
0
 10
-234.417
 20
87.5717
 11
-234.535
 21
87.7897
  0
LINE
  8
0
 10
-234.535
 20
87.7897
 11
-234.628
 21
88.0194
  0
LINE
  8
0
 10
-234.628
 20
88.0194
 11
-234.696
 21
88.258
  0
LINE
  8
0
 10
-234.696
 20
88.258
 11
-234.736
 21
88.5025
  0
LINE
  8
0
 10
-234.736
 20
88.5025
 11
-234.75
 21
88.75
  0
LINE
  8
0
 10
-234.75
 20
88.75
 11
-234.736
 21
88.9975
  0
LINE
  8
0
 10
-234.736
 20
88.9975
 11
-234.696
 21
89.242
  0
LINE
  8
0
 10
-234.696
 20
89.242
 11
-234.628
 21
89.4806
  0
LINE
  8
0
 10
-234.628
 20
89.4806
 11
-234.535
 21
89.7102
  0
LINE
  8
0
 10
-234.535
 20
89.7102
 11
-234.417
 21
89.9283
  0
LINE
  8
0
 10
-234.417
 20
89.9283
 11
-234.276
 21
90.132
  0
LINE
  8
0
 10
-234.276
 20
90.132
 11
-234.113
 21
90.3189
  0
LINE
  8
0
 10
-234.113
 20
90.3189
 11
-233.93
 21
90.4868
  0
LINE
  8
0
 10
-233.93
 20
90.4868
 11
-233.731
 21
90.6336
  0
LINE
  8
0
 10
-233.731
 20
90.6336
 11
-233.516
 21
90.7576
  0
LINE
  8
0
 10
-233.516
 20
90.7576
 11
-233.289
 21
90.8571
  0
LINE
  8
0
 10
-233.289
 20
90.8571
 11
-233.052
 21
90.9312
  0
LINE
  8
0
 10
-233.052
 20
90.9312
 11
-232.809
 21
90.9787
  0
LINE
  8
0
 10
-232.809
 20
90.9787
 11
-232.562
 21
90.9991
  0
LINE
  8
0
 10
-232.562
 20
90.9991
 11
-232.314
 21
90.9923
  0
LINE
  8
0
 10
-232.314
 20
90.9923
 11
-232.069
 21
90.9583
  0
LINE
  8
0
 10
-232.069
 20
90.9583
 11
-231.828
 21
90.8974
  0
LINE
  8
0
 10
-231.828
 20
90.8974
 11
-231.596
 21
90.8105
  0
LINE
  8
0
 10
-231.596
 20
90.8105
 11
-231.375
 21
90.6985
  0
LINE
  8
0
 10
-231.375
 20
90.6985
 11
-231.167
 21
90.563
  0
LINE
  8
0
 10
-231.167
 20
90.563
 11
-230.976
 21
90.4054
  0
LINE
  8
0
 10
-230.976
 20
90.4054
 11
-230.803
 21
90.2277
  0
LINE
  8
0
 10
-230.803
 20
90.2277
 11
-230.651
 21
90.0321
  0
LINE
  8
0
 10
-230.651
 20
90.0321
 11
-230.521
 21
89.8209
  0
LINE
  8
0
 10
-230.521
 20
89.8209
 11
-230.415
 21
89.5967
  0
LINE
  8
0
 10
-230.415
 20
89.5967
 11
-230.335
 21
89.3622
  0
LINE
  8
0
 10
-230.335
 20
89.3622
 11
-230.281
 21
89.1203
  0
LINE
  8
0
 10
-230.281
 20
89.1203
 11
-230.253
 21
88.8739
  0
LINE
  8
0
 10
-230.253
 20
88.8739
 11
-230.253
 21
88.6261
  0
LINE
  8
0
 10
-230.253
 20
88.6261
 11
-230.281
 21
88.3797
  0
LINE
  8
0
 10
-230.281
 20
88.3797
 11
-230.335
 21
88.1378
  0
LINE
  8
0
 10
-230.335
 20
88.1378
 11
-230.415
 21
87.9033
  0
LINE
  8
0
 10
-230.415
 20
87.9033
 11
-230.521
 21
87.6791
  0
LINE
  8
0
 10
-230.521
 20
87.6791
 11
-230.651
 21
87.4679
  0
LINE
  8
0
 10
-230.651
 20
87.4679
 11
-230.803
 21
87.2723
  0
LINE
  8
0
 10
-230.803
 20
87.2723
 11
-230.976
 21
87.0946
  0
LINE
  8
0
 10
-230.976
 20
87.0946
 11
-231.167
 21
86.937
  0
LINE
  8
0
 10
-231.167
 20
86.937
 11
-231.375
 21
86.8014
  0
LINE
  8
0
 10
-231.375
 20
86.8014
 11
-231.596
 21
86.6895
  0
LINE
  8
0
 10
-231.596
 20
86.6895
 11
-231.828
 21
86.6026
  0
LINE
  8
0
 10
-231.828
 20
86.6026
 11
-232.069
 21
86.5417
  0
LINE
  8
0
 10
-232.069
 20
86.5417
 11
-232.314
 21
86.5077
  0
LINE
  8
0
 10
-232.314
 20
86.5077
 11
-232.562
 21
86.5009
  0
LINE
  8
0
 10
-232.562
 20
86.5009
 11
-232.809
 21
86.5213
  0
LINE
  8
0
 10
232.314
 20
86.5077
 11
232.069
 21
86.5417
  0
LINE
  8
0
 10
232.069
 20
86.5417
 11
231.828
 21
86.6026
  0
LINE
  8
0
 10
231.828
 20
86.6026
 11
231.596
 21
86.6895
  0
LINE
  8
0
 10
231.596
 20
86.6895
 11
231.375
 21
86.8014
  0
LINE
  8
0
 10
231.375
 20
86.8014
 11
231.167
 21
86.937
  0
LINE
  8
0
 10
231.167
 20
86.937
 11
230.976
 21
87.0946
  0
LINE
  8
0
 10
230.976
 20
87.0946
 11
230.803
 21
87.2723
  0
LINE
  8
0
 10
230.803
 20
87.2723
 11
230.651
 21
87.4679
  0
LINE
  8
0
 10
230.651
 20
87.4679
 11
230.521
 21
87.6791
  0
LINE
  8
0
 10
230.521
 20
87.6791
 11
230.415
 21
87.9033
  0
LINE
  8
0
 10
230.415
 20
87.9033
 11
230.335
 21
88.1378
  0
LINE
  8
0
 10
230.335
 20
88.1378
 11
230.281
 21
88.3797
  0
LINE
  8
0
 10
230.281
 20
88.3797
 11
230.253
 21
88.6261
  0
LINE
  8
0
 10
230.253
 20
88.6261
 11
230.253
 21
88.8739
  0
LINE
  8
0
 10
230.253
 20
88.8739
 11
230.281
 21
89.1203
  0
LINE
  8
0
 10
230.281
 20
89.1203
 11
230.335
 21
89.3622
  0
LINE
  8
0
 10
230.335
 20
89.3622
 11
230.415
 21
89.5967
  0
LINE
  8
0
 10
230.415
 20
89.5967
 11
230.521
 21
89.8209
  0
LINE
  8
0
 10
230.521
 20
89.8209
 11
230.651
 21
90.0321
  0
LINE
  8
0
 10
230.651
 20
90.0321
 11
230.803
 21
90.2277
  0
LINE
  8
0
 10
230.803
 20
90.2277
 11
230.976
 21
90.4054
  0
LINE
  8
0
 10
230.976
 20
90.4054
 11
231.167
 21
90.563
  0
LINE
  8
0
 10
231.167
 20
90.563
 11
231.375
 21
90.6985
  0
LINE
  8
0
 10
231.375
 20
90.6985
 11
231.596
 21
90.8105
  0
LINE
  8
0
 10
231.596
 20
90.8105
 11
231.828
 21
90.8974
  0
LINE
  8
0
 10
231.828
 20
90.8974
 11
232.069
 21
90.9583
  0
LINE
  8
0
 10
232.069
 20
90.9583
 11
232.314
 21
90.9923
  0
LINE
  8
0
 10
232.314
 20
90.9923
 11
232.562
 21
90.9991
  0
LINE
  8
0
 10
232.562
 20
90.9991
 11
232.809
 21
90.9787
  0
LINE
  8
0
 10
232.809
 20
90.9787
 11
233.052
 21
90.9312
  0
LINE
  8
0
 10
233.052
 20
90.9312
 11
233.289
 21
90.8571
  0
LINE
  8
0
 10
233.289
 20
90.8571
 11
233.516
 21
90.7576
  0
LINE
  8
0
 10
233.516
 20
90.7576
 11
233.731
 21
90.6336
  0
LINE
  8
0
 10
233.731
 20
90.6336
 11
233.93
 21
90.4868
  0
LINE
  8
0
 10
233.93
 20
90.4868
 11
234.113
 21
90.3189
  0
LINE
  8
0
 10
234.113
 20
90.3189
 11
234.276
 21
90.132
  0
LINE
  8
0
 10
234.276
 20
90.132
 11
234.417
 21
89.9283
  0
LINE
  8
0
 10
234.417
 20
89.9283
 11
234.535
 21
89.7102
  0
LINE
  8
0
 10
234.535
 20
89.7102
 11
234.628
 21
89.4806
  0
LINE
  8
0
 10
234.628
 20
89.4806
 11
234.696
 21
89.242
  0
LINE
  8
0
 10
234.696
 20
89.242
 11
234.736
 21
88.9975
  0
LINE
  8
0
 10
234.736
 20
88.9975
 11
234.75
 21
88.75
  0
LINE
  8
0
 10
234.75
 20
88.75
 11
234.736
 21
88.5025
  0
LINE
  8
0
 10
234.736
 20
88.5025
 11
234.696
 21
88.258
  0
LINE
  8
0
 10
234.696
 20
88.258
 11
234.628
 21
88.0194
  0
LINE
  8
0
 10
234.628
 20
88.0194
 11
234.535
 21
87.7897
  0
LINE
  8
0
 10
234.535
 20
87.7897
 11
234.417
 21
87.5717
  0
LINE
  8
0
 10
234.417
 20
87.5717
 11
234.276
 21
87.368
  0
LINE
  8
0
 10
234.276
 20
87.368
 11
234.113
 21
87.1811
  0
LINE
  8
0
 10
234.113
 20
87.1811
 11
233.93
 21
87.0132
  0
LINE
  8
0
 10
233.93
 20
87.0132
 11
233.731
 21
86.8664
  0
LINE
  8
0
 10
233.731
 20
86.8664
 11
233.516
 21
86.7424
  0
LINE
  8
0
 10
233.516
 20
86.7424
 11
233.289
 21
86.6429
  0
LINE
  8
0
 10
233.289
 20
86.6429
 11
233.052
 21
86.5688
  0
LINE
  8
0
 10
233.052
 20
86.5688
 11
232.809
 21
86.5213
  0
LINE
  8
0
 10
232.809
 20
86.5213
 11
232.562
 21
86.5009
  0
LINE
  8
0
 10
232.562
 20
86.5009
 11
232.314
 21
86.5077
  0
LINE
  8
0
 10
-232.809
 20
-2.22867
 11
-233.052
 21
-2.18114
  0
LINE
  8
0
 10
-233.052
 20
-2.18114
 11
-233.289
 21
-2.10715
  0
LINE
  8
0
 10
-233.289
 20
-2.10715
 11
-233.516
 21
-2.00757
  0
LINE
  8
0
 10
-233.516
 20
-2.00757
 11
-233.731
 21
-1.88362
  0
LINE
  8
0
 10
-233.731
 20
-1.88362
 11
-233.93
 21
-1.7368
  0
LINE
  8
0
 10
-233.93
 20
-1.7368
 11
-234.113
 21
-1.56891
  0
LINE
  8
0
 10
-234.113
 20
-1.56891
 11
-234.276
 21
-1.38197
  0
LINE
  8
0
 10
-234.276
 20
-1.38197
 11
-234.417
 21
-1.17825
  0
LINE
  8
0
 10
-234.417
 20
-1.17825
 11
-234.535
 21
-0.960236
  0
LINE
  8
0
 10
-234.535
 20
-0.960236
 11
-234.628
 21
-0.73056
  0
LINE
  8
0
 10
-234.628
 20
-0.73056
 11
-234.696
 21
-0.49202
  0
LINE
  8
0
 10
-234.696
 20
-0.49202
 11
-234.736
 21
-0.247513
  0
LINE
  8
0
 10
-234.736
 20
-0.247513
 11
-234.75
 21
0
  0
LINE
  8
0
 10
-234.75
 20
0
 11
-234.736
 21
0.247513
  0
LINE
  8
0
 10
-234.736
 20
0.247513
 11
-234.696
 21
0.49202
  0
LINE
  8
0
 10
-234.696
 20
0.49202
 11
-234.628
 21
0.73056
  0
LINE
  8
0
 10
-234.628
 20
0.73056
 11
-234.535
 21
0.960236
  0
LINE
  8
0
 10
-234.535
 20
0.960236
 11
-234.417
 21
1.17825
  0
LINE
  8
0
 10
-234.417
 20
1.17825
 11
-234.276
 21
1.38197
  0
LINE
  8
0
 10
-234.276
 20
1.38197
 11
-234.113
 21
1.56891
  0
LINE
  8
0
 10
-234.113
 20
1.56891
 11
-233.93
 21
1.7368
  0
LINE
  8
0
 10
-233.93
 20
1.7368
 11
-233.731
 21
1.88362
  0
LINE
  8
0
 10
-233.731
 20
1.88362
 11
-233.516
 21
2.00757
  0
LINE
  8
0
 10
-233.516
 20
2.00757
 11
-233.289
 21
2.10715
  0
LINE
  8
0
 10
-233.289
 20
2.10715
 11
-233.052
 21
2.18114
  0
LINE
  8
0
 10
-233.052
 20
2.18114
 11
-232.809
 21
2.22867
  0
LINE
  8
0
 10
-232.809
 20
2.22867
 11
-232.562
 21
2.24915
  0
LINE
  8
0
 10
-232.562
 20
2.24915
 11
-232.314
 21
2.24231
  0
LINE
  8
0
 10
-232.314
 20
2.24231
 11
-232.069
 21
2.20825
  0
LINE
  8
0
 10
-232.069
 20
2.20825
 11
-231.828
 21
2.1474
  0
LINE
  8
0
 10
-231.828
 20
2.1474
 11
-231.596
 21
2.06049
  0
LINE
  8
0
 10
-231.596
 20
2.06049
 11
-231.375
 21
1.94855
  0
LINE
  8
0
 10
-231.375
 20
1.94855
 11
-231.167
 21
1.81296
  0
LINE
  8
0
 10
-231.167
 20
1.81296
 11
-230.976
 21
1.65536
  0
LINE
  8
0
 10
-230.976
 20
1.65536
 11
-230.803
 21
1.47769
  0
LINE
  8
0
 10
-230.803
 20
1.47769
 11
-230.651
 21
1.28206
  0
LINE
  8
0
 10
-230.651
 20
1.28206
 11
-230.521
 21
1.07088
  0
LINE
  8
0
 10
-230.521
 20
1.07088
 11
-230.415
 21
0.846695
  0
LINE
  8
0
 10
-230.415
 20
0.846695
 11
-230.335
 21
0.612228
  0
LINE
  8
0
 10
-230.335
 20
0.612228
 11
-230.281
 21
0.370331
  0
LINE
  8
0
 10
-230.281
 20
0.370331
 11
-230.253
 21
0.123947
  0
LINE
  8
0
 10
-230.253
 20
0.123947
 11
-230.253
 21
-0.123947
  0
LINE
  8
0
 10
-230.253
 20
-0.123947
 11
-230.281
 21
-0.370331
  0
LINE
  8
0
 10
-230.281
 20
-0.370331
 11
-230.335
 21
-0.612228
  0
LINE
  8
0
 10
-230.335
 20
-0.612228
 11
-230.415
 21
-0.846695
  0
LINE
  8
0
 10
-230.415
 20
-0.846695
 11
-230.521
 21
-1.07088
  0
LINE
  8
0
 10
-230.521
 20
-1.07088
 11
-230.651
 21
-1.28206
  0
LINE
  8
0
 10
-230.651
 20
-1.28206
 11
-230.803
 21
-1.47769
  0
LINE
  8
0
 10
-230.803
 20
-1.47769
 11
-230.976
 21
-1.65536
  0
LINE
  8
0
 10
-230.976
 20
-1.65536
 11
-231.167
 21
-1.81296
  0
LINE
  8
0
 10
-231.167
 20
-1.81296
 11
-231.375
 21
-1.94855
  0
LINE
  8
0
 10
-231.375
 20
-1.94855
 11
-231.596
 21
-2.06049
  0
LINE
  8
0
 10
-231.596
 20
-2.06049
 11
-231.828
 21
-2.1474
  0
LINE
  8
0
 10
-231.828
 20
-2.1474
 11
-232.069
 21
-2.20825
  0
LINE
  8
0
 10
-232.069
 20
-2.20825
 11
-232.314
 21
-2.24231
  0
LINE
  8
0
 10
-232.314
 20
-2.24231
 11
-232.562
 21
-2.24915
  0
LINE
  8
0
 10
-232.562
 20
-2.24915
 11
-232.809
 21
-2.22867
  0
LINE
  8
0
 10
232.314
 20
-2.24231
 11
232.069
 21
-2.20825
  0
LINE
  8
0
 10
232.069
 20
-2.20825
 11
231.828
 21
-2.1474
  0
LINE
  8
0
 10
231.828
 20
-2.1474
 11
231.596
 21
-2.06049
  0
LINE
  8
0
 10
231.596
 20
-2.06049
 11
231.375
 21
-1.94855
  0
LINE
  8
0
 10
231.375
 20
-1.94855
 11
231.167
 21
-1.81296
  0
LINE
  8
0
 10
231.167
 20
-1.81296
 11
230.976
 21
-1.65536
  0
LINE
  8
0
 10
230.976
 20
-1.65536
 11
230.803
 21
-1.47769
  0
LINE
  8
0
 10
230.803
 20
-1.47769
 11
230.651
 21
-1.28206
  0
LINE
  8
0
 10
230.651
 20
-1.28206
 11
230.521
 21
-1.07088
  0
LINE
  8
0
 10
230.521
 20
-1.07088
 11
230.415
 21
-0.846695
  0
LINE
  8
0
 10
230.415
 20
-0.846695
 11
230.335
 21
-0.612228
  0
LINE
  8
0
 10
230.335
 20
-0.612228
 11
230.281
 21
-0.370331
  0
LINE
  8
0
 10
230.281
 20
-0.370331
 11
230.253
 21
-0.123947
  0
LINE
  8
0
 10
230.253
 20
-0.123947
 11
230.253
 21
0.123947
  0
LINE
  8
0
 10
230.253
 20
0.123947
 11
230.281
 21
0.370331
  0
LINE
  8
0
 10
230.281
 20
0.370331
 11
230.335
 21
0.612228
  0
LINE
  8
0
 10
230.335
 20
0.612228
 11
230.415
 21
0.846695
  0
LINE
  8
0
 10
230.415
 20
0.846695
 11
230.521
 21
1.07088
  0
LINE
  8
0
 10
230.521
 20
1.07088
 11
230.651
 21
1.28206
  0
LINE
  8
0
 10
230.651
 20
1.28206
 11
230.803
 21
1.47769
  0
LINE
  8
0
 10
230.803
 20
1.47769
 11
230.976
 21
1.65536
  0
LINE
  8
0
 10
230.976
 20
1.65536
 11
231.167
 21
1.81296
  0
LINE
  8
0
 10
231.167
 20
1.81296
 11
231.375
 21
1.94855
  0
LINE
  8
0
 10
231.375
 20
1.94855
 11
231.596
 21
2.06049
  0
LINE
  8
0
 10
231.596
 20
2.06049
 11
231.828
 21
2.1474
  0
LINE
  8
0
 10
231.828
 20
2.1474
 11
232.069
 21
2.20825
  0
LINE
  8
0
 10
232.069
 20
2.20825
 11
232.314
 21
2.24231
  0
LINE
  8
0
 10
232.314
 20
2.24231
 11
232.562
 21
2.24915
  0
LINE
  8
0
 10
232.562
 20
2.24915
 11
232.809
 21
2.22867
  0
LINE
  8
0
 10
232.809
 20
2.22867
 11
233.052
 21
2.18114
  0
LINE
  8
0
 10
233.052
 20
2.18114
 11
233.289
 21
2.10715
  0
LINE
  8
0
 10
233.289
 20
2.10715
 11
233.516
 21
2.00757
  0
LINE
  8
0
 10
233.516
 20
2.00757
 11
233.731
 21
1.88362
  0
LINE
  8
0
 10
233.731
 20
1.88362
 11
233.93
 21
1.7368
  0
LINE
  8
0
 10
233.93
 20
1.7368
 11
234.113
 21
1.56891
  0
LINE
  8
0
 10
234.113
 20
1.56891
 11
234.276
 21
1.38197
  0
LINE
  8
0
 10
234.276
 20
1.38197
 11
234.417
 21
1.17825
  0
LINE
  8
0
 10
234.417
 20
1.17825
 11
234.535
 21
0.960236
  0
LINE
  8
0
 10
234.535
 20
0.960236
 11
234.628
 21
0.73056
  0
LINE
  8
0
 10
234.628
 20
0.73056
 11
234.696
 21
0.49202
  0
LINE
  8
0
 10
234.696
 20
0.49202
 11
234.736
 21
0.247513
  0
LINE
  8
0
 10
234.736
 20
0.247513
 11
234.75
 21
0
  0
LINE
  8
0
 10
234.75
 20
0
 11
234.736
 21
-0.247513
  0
LINE
  8
0
 10
234.736
 20
-0.247513
 11
234.696
 21
-0.49202
  0
LINE
  8
0
 10
234.696
 20
-0.49202
 11
234.628
 21
-0.73056
  0
LINE
  8
0
 10
234.628
 20
-0.73056
 11
234.535
 21
-0.960236
  0
LINE
  8
0
 10
234.535
 20
-0.960236
 11
234.417
 21
-1.17825
  0
LINE
  8
0
 10
234.417
 20
-1.17825
 11
234.276
 21
-1.38197
  0
LINE
  8
0
 10
234.276
 20
-1.38197
 11
234.113
 21
-1.56891
  0
LINE
  8
0
 10
234.113
 20
-1.56891
 11
233.93
 21
-1.7368
  0
LINE
  8
0
 10
233.93
 20
-1.7368
 11
233.731
 21
-1.88362
  0
LINE
  8
0
 10
233.731
 20
-1.88362
 11
233.516
 21
-2.00757
  0
LINE
  8
0
 10
233.516
 20
-2.00757
 11
233.289
 21
-2.10715
  0
LINE
  8
0
 10
233.289
 20
-2.10715
 11
233.052
 21
-2.18114
  0
LINE
  8
0
 10
233.052
 20
-2.18114
 11
232.809
 21
-2.22867
  0
LINE
  8
0
 10
232.809
 20
-2.22867
 11
232.562
 21
-2.24915
  0
LINE
  8
0
 10
232.562
 20
-2.24915
 11
232.314
 21
-2.24231
  0
LINE
  8
0
 10
-142.746
 20
-3.18616
 11
-142.99
 21
-3.14484
  0
LINE
  8
0
 10
-142.99
 20
-3.14484
 11
-143.227
 21
-3.07654
  0
LINE
  8
0
 10
-143.227
 20
-3.07654
 11
-143.455
 21
-2.98212
  0
LINE
  8
0
 10
-143.455
 20
-2.98212
 11
-143.67
 21
-2.86279
  0
LINE
  8
0
 10
-143.67
 20
-2.86279
 11
-143.872
 21
-2.72002
  0
LINE
  8
0
 10
-143.872
 20
-2.72002
 11
-144.056
 21
-2.55563
  0
LINE
  8
0
 10
-144.056
 20
-2.55563
 11
-144.22
 21
-2.37167
  0
LINE
  8
0
 10
-144.22
 20
-2.37167
 11
-144.363
 21
-2.17046
  0
LINE
  8
0
 10
-144.363
 20
-2.17046
 11
-144.482
 21
-1.95454
  0
LINE
  8
0
 10
-144.482
 20
-1.95454
 11
-144.577
 21
-1.72661
  0
LINE
  8
0
 10
-144.577
 20
-1.72661
 11
-144.645
 21
-1.48953
  0
LINE
  8
0
 10
-144.645
 20
-1.48953
 11
-144.686
 21
-1.24631
  0
LINE
  8
0
 10
-144.686
 20
-1.24631
 11
-144.7
 21
-1
  0
LINE
  8
0
 10
-144.7
 20
-1
 11
-144.686
 21
-0.753677
  0
LINE
  8
0
 10
-144.686
 20
-0.753677
 11
-144.645
 21
-0.510452
  0
LINE
  8
0
 10
-144.645
 20
-0.510452
 11
-144.577
 21
-0.273376
  0
LINE
  8
0
 10
-144.577
 20
-0.273376
 11
-144.482
 21
-0.0454407
  0
LINE
  8
0
 10
-144.482
 20
-0.0454407
 11
-144.363
 21
0.170471
  0
LINE
  8
0
 10
-144.363
 20
0.170471
 11
-144.22
 21
0.371674
  0
LINE
  8
0
 10
-144.22
 20
0.371674
 11
-144.056
 21
0.555634
  0
LINE
  8
0
 10
-144.056
 20
0.555634
 11
-143.872
 21
0.720016
  0
LINE
  8
0
 10
-143.872
 20
0.720016
 11
-143.67
 21
0.862793
  0
LINE
  8
0
 10
-143.67
 20
0.862793
 11
-143.455
 21
0.982132
  0
LINE
  8
0
 10
-143.455
 20
0.982132
 11
-143.227
 21
1.07654
  0
LINE
  8
0
 10
-143.227
 20
1.07654
 11
-142.99
 21
1.14484
  0
LINE
  8
0
 10
-142.99
 20
1.14484
 11
-142.746
 21
1.18616
  0
LINE
  8
0
 10
-142.746
 20
1.18616
 11
-142.5
 21
1.2
  0
LINE
  8
0
 10
-142.5
 20
1.2
 11
-142.254
 21
1.18616
  0
LINE
  8
0
 10
-142.254
 20
1.18616
 11
-142.01
 21
1.14484
  0
LINE
  8
0
 10
-142.01
 20
1.14484
 11
-141.773
 21
1.07654
  0
LINE
  8
0
 10
-141.773
 20
1.07654
 11
-141.545
 21
0.982132
  0
LINE
  8
0
 10
-141.545
 20
0.982132
 11
-141.33
 21
0.862793
  0
LINE
  8
0
 10
-141.33
 20
0.862793
 11
-141.128
 21
0.720016
  0
LINE
  8
0
 10
-141.128
 20
0.720016
 11
-140.944
 21
0.555634
  0
LINE
  8
0
 10
-140.944
 20
0.555634
 11
-140.78
 21
0.371674
  0
LINE
  8
0
 10
-140.78
 20
0.371674
 11
-140.637
 21
0.170471
  0
LINE
  8
0
 10
-140.637
 20
0.170471
 11
-140.518
 21
-0.0454407
  0
LINE
  8
0
 10
-140.518
 20
-0.0454407
 11
-140.423
 21
-0.273376
  0
LINE
  8
0
 10
-140.423
 20
-0.273376
 11
-140.355
 21
-0.510452
  0
LINE
  8
0
 10
-140.355
 20
-0.510452
 11
-140.314
 21
-0.753677
  0
LINE
  8
0
 10
-140.314
 20
-0.753677
 11
-140.3
 21
-1
  0
LINE
  8
0
 10
-140.3
 20
-1
 11
-140.314
 21
-1.24631
  0
LINE
  8
0
 10
-140.314
 20
-1.24631
 11
-140.355
 21
-1.48953
  0
LINE
  8
0
 10
-140.355
 20
-1.48953
 11
-140.423
 21
-1.72661
  0
LINE
  8
0
 10
-140.423
 20
-1.72661
 11
-140.518
 21
-1.95454
  0
LINE
  8
0
 10
-140.518
 20
-1.95454
 11
-140.637
 21
-2.17046
  0
LINE
  8
0
 10
-140.637
 20
-2.17046
 11
-140.78
 21
-2.37167
  0
LINE
  8
0
 10
-140.78
 20
-2.37167
 11
-140.944
 21
-2.55563
  0
LINE
  8
0
 10
-140.944
 20
-2.55563
 11
-141.128
 21
-2.72002
  0
LINE
  8
0
 10
-141.128
 20
-2.72002
 11
-141.33
 21
-2.86279
  0
LINE
  8
0
 10
-141.33
 20
-2.86279
 11
-141.545
 21
-2.98212
  0
LINE
  8
0
 10
-141.545
 20
-2.98212
 11
-141.773
 21
-3.07654
  0
LINE
  8
0
 10
-141.773
 20
-3.07654
 11
-142.01
 21
-3.14484
  0
LINE
  8
0
 10
-142.01
 20
-3.14484
 11
-142.254
 21
-3.18616
  0
LINE
  8
0
 10
-142.254
 20
-3.18616
 11
-142.5
 21
-3.2
  0
LINE
  8
0
 10
-142.5
 20
-3.2
 11
-142.746
 21
-3.18616
  0
LINE
  8
0
 10
-27.7463
 20
-3.18616
 11
-27.9895
 21
-3.14484
  0
LINE
  8
0
 10
-27.9895
 20
-3.14484
 11
-28.2266
 21
-3.07654
  0
LINE
  8
0
 10
-28.2266
 20
-3.07654
 11
-28.4545
 21
-2.98212
  0
LINE
  8
0
 10
-28.4545
 20
-2.98212
 11
-28.6705
 21
-2.86279
  0
LINE
  8
0
 10
-28.6705
 20
-2.86279
 11
-28.8717
 21
-2.72002
  0
LINE
  8
0
 10
-28.8717
 20
-2.72002
 11
-29.0556
 21
-2.55563
  0
LINE
  8
0
 10
-29.0556
 20
-2.55563
 11
-29.22
 21
-2.37167
  0
LINE
  8
0
 10
-29.22
 20
-2.37167
 11
-29.3628
 21
-2.17046
  0
LINE
  8
0
 10
-29.3628
 20
-2.17046
 11
-29.4821
 21
-1.95454
  0
LINE
  8
0
 10
-29.4821
 20
-1.95454
 11
-29.5765
 21
-1.72661
  0
LINE
  8
0
 10
-29.5765
 20
-1.72661
 11
-29.6448
 21
-1.48953
  0
LINE
  8
0
 10
-29.6448
 20
-1.48953
 11
-29.6862
 21
-1.24631
  0
LINE
  8
0
 10
-29.6862
 20
-1.24631
 11
-29.7
 21
-1
  0
LINE
  8
0
 10
-29.7
 20
-1
 11
-29.6862
 21
-0.753677
  0
LINE
  8
0
 10
-29.6862
 20
-0.753677
 11
-29.6448
 21
-0.510452
  0
LINE
  8
0
 10
-29.6448
 20
-0.510452
 11
-29.5765
 21
-0.273376
  0
LINE
  8
0
 10
-29.5765
 20
-0.273376
 11
-29.4821
 21
-0.0454407
  0
LINE
  8
0
 10
-29.4821
 20
-0.0454407
 11
-29.3628
 21
0.170471
  0
LINE
  8
0
 10
-29.3628
 20
0.170471
 11
-29.22
 21
0.371674
  0
LINE
  8
0
 10
-29.22
 20
0.371674
 11
-29.0556
 21
0.555634
  0
LINE
  8
0
 10
-29.0556
 20
0.555634
 11
-28.8717
 21
0.720016
  0
LINE
  8
0
 10
-28.8717
 20
0.720016
 11
-28.6705
 21
0.862793
  0
LINE
  8
0
 10
-28.6705
 20
0.862793
 11
-28.4545
 21
0.982132
  0
LINE
  8
0
 10
-28.4545
 20
0.982132
 11
-28.2266
 21
1.07654
  0
LINE
  8
0
 10
-28.2266
 20
1.07654
 11
-27.9895
 21
1.14484
  0
LINE
  8
0
 10
-27.9895
 20
1.14484
 11
-27.7463
 21
1.18616
  0
LINE
  8
0
 10
-27.7463
 20
1.18616
 11
-27.5
 21
1.2
  0
LINE
  8
0
 10
-27.5
 20
1.2
 11
-27.2537
 21
1.18616
  0
LINE
  8
0
 10
-27.2537
 20
1.18616
 11
-27.0105
 21
1.14484
  0
LINE
  8
0
 10
-27.0105
 20
1.14484
 11
-26.7734
 21
1.07654
  0
LINE
  8
0
 10
-26.7734
 20
1.07654
 11
-26.5455
 21
0.982132
  0
LINE
  8
0
 10
-26.5455
 20
0.982132
 11
-26.3295
 21
0.862793
  0
LINE
  8
0
 10
-26.3295
 20
0.862793
 11
-26.1283
 21
0.720016
  0
LINE
  8
0
 10
-26.1283
 20
0.720016
 11
-25.9444
 21
0.555634
  0
LINE
  8
0
 10
-25.9444
 20
0.555634
 11
-25.78
 21
0.371674
  0
LINE
  8
0
 10
-25.78
 20
0.371674
 11
-25.6372
 21
0.170471
  0
LINE
  8
0
 10
-25.6372
 20
0.170471
 11
-25.5179
 21
-0.0454407
  0
LINE
  8
0
 10
-25.5179
 20
-0.0454407
 11
-25.4234
 21
-0.273376
  0
LINE
  8
0
 10
-25.4234
 20
-0.273376
 11
-25.3551
 21
-0.510452
  0
LINE
  8
0
 10
-25.3551
 20
-0.510452
 11
-25.3138
 21
-0.753677
  0
LINE
  8
0
 10
-25.3138
 20
-0.753677
 11
-25.3
 21
-1
  0
LINE
  8
0
 10
-25.3
 20
-1
 11
-25.3138
 21
-1.24631
  0
LINE
  8
0
 10
-25.3138
 20
-1.24631
 11
-25.3551
 21
-1.48953
  0
LINE
  8
0
 10
-25.3551
 20
-1.48953
 11
-25.4234
 21
-1.72661
  0
LINE
  8
0
 10
-25.4234
 20
-1.72661
 11
-25.5179
 21
-1.95454
  0
LINE
  8
0
 10
-25.5179
 20
-1.95454
 11
-25.6372
 21
-2.17046
  0
LINE
  8
0
 10
-25.6372
 20
-2.17046
 11
-25.78
 21
-2.37167
  0
LINE
  8
0
 10
-25.78
 20
-2.37167
 11
-25.9444
 21
-2.55563
  0
LINE
  8
0
 10
-25.9444
 20
-2.55563
 11
-26.1283
 21
-2.72002
  0
LINE
  8
0
 10
-26.1283
 20
-2.72002
 11
-26.3295
 21
-2.86279
  0
LINE
  8
0
 10
-26.3295
 20
-2.86279
 11
-26.5455
 21
-2.98212
  0
LINE
  8
0
 10
-26.5455
 20
-2.98212
 11
-26.7734
 21
-3.07654
  0
LINE
  8
0
 10
-26.7734
 20
-3.07654
 11
-27.0105
 21
-3.14484
  0
LINE
  8
0
 10
-27.0105
 20
-3.14484
 11
-27.2537
 21
-3.18616
  0
LINE
  8
0
 10
-27.2537
 20
-3.18616
 11
-27.5
 21
-3.2
  0
LINE
  8
0
 10
-27.5
 20
-3.2
 11
-27.7463
 21
-3.18616
  0
LINE
  8
0
 10
54.1864
 20
-16.9836
 11
53.8763
 21
-16.9344
  0
LINE
  8
0
 10
53.8763
 20
-16.9344
 11
53.5729
 21
-16.8532
  0
LINE
  8
0
 10
53.5729
 20
-16.8532
 11
53.2798
 21
-16.7406
  0
LINE
  8
0
 10
53.2798
 20
-16.7406
 11
53
 21
-16.5981
  0
LINE
  8
0
 10
53
 20
-16.5981
 11
52.7366
 21
-16.427
  0
LINE
  8
0
 10
52.7366
 20
-16.427
 11
52.4926
 21
-16.2294
  0
LINE
  8
0
 10
52.4926
 20
-16.2294
 11
52.2706
 21
-16.0074
  0
LINE
  8
0
 10
52.2706
 20
-16.0074
 11
52.0729
 21
-15.7634
  0
LINE
  8
0
 10
52.0729
 20
-15.7634
 11
51.9019
 21
-15.5
  0
LINE
  8
0
 10
51.9019
 20
-15.5
 11
51.7594
 21
-15.2202
  0
LINE
  8
0
 10
51.7594
 20
-15.2202
 11
51.6468
 21
-14.927
  0
LINE
  8
0
 10
51.6468
 20
-14.927
 11
51.5656
 21
-14.6237
  0
LINE
  8
0
 10
51.5656
 20
-14.6237
 11
51.5164
 21
-14.3136
  0
LINE
  8
0
 10
51.5164
 20
-14.3136
 11
51.5
 21
-14
  0
LINE
  8
0
 10
51.5
 20
-14
 11
51.5164
 21
-13.6864
  0
LINE
  8
0
 10
51.5164
 20
-13.6864
 11
51.5656
 21
-13.3763
  0
LINE
  8
0
 10
51.5656
 20
-13.3763
 11
51.6468
 21
-13.0729
  0
LINE
  8
0
 10
51.6468
 20
-13.0729
 11
51.7594
 21
-12.7798
  0
LINE
  8
0
 10
51.7594
 20
-12.7798
 11
51.9019
 21
-12.5
  0
LINE
  8
0
 10
51.9019
 20
-12.5
 11
52.0729
 21
-12.2366
  0
LINE
  8
0
 10
52.0729
 20
-12.2366
 11
52.2706
 21
-11.9926
  0
LINE
  8
0
 10
52.2706
 20
-11.9926
 11
52.4926
 21
-11.7706
  0
LINE
  8
0
 10
52.4926
 20
-11.7706
 11
52.7366
 21
-11.5729
  0
LINE
  8
0
 10
52.7366
 20
-11.5729
 11
53
 21
-11.4019
  0
LINE
  8
0
 10
53
 20
-11.4019
 11
53.2798
 21
-11.2594
  0
LINE
  8
0
 10
53.2798
 20
-11.2594
 11
53.5729
 21
-11.1468
  0
LINE
  8
0
 10
53.5729
 20
-11.1468
 11
53.8763
 21
-11.0656
  0
LINE
  8
0
 10
53.8763
 20
-11.0656
 11
54.1864
 21
-11.0164
  0
LINE
  8
0
 10
54.1864
 20
-11.0164
 11
54.5
 21
-11
  0
LINE
  8
0
 10
54.5
 20
-11
 11
54.8136
 21
-11.0164
  0
LINE
  8
0
 10
54.8136
 20
-11.0164
 11
55.1237
 21
-11.0656
  0
LINE
  8
0
 10
55.1237
 20
-11.0656
 11
55.427
 21
-11.1468
  0
LINE
  8
0
 10
55.427
 20
-11.1468
 11
55.7202
 21
-11.2594
  0
LINE
  8
0
 10
55.7202
 20
-11.2594
 11
56
 21
-11.4019
  0
LINE
  8
0
 10
56
 20
-11.4019
 11
56.2634
 21
-11.5729
  0
LINE
  8
0
 10
56.2634
 20
-11.5729
 11
56.5074
 21
-11.7706
  0
LINE
  8
0
 10
56.5074
 20
-11.7706
 11
56.7294
 21
-11.9926
  0
LINE
  8
0
 10
56.7294
 20
-11.9926
 11
56.927
 21
-12.2366
  0
LINE
  8
0
 10
56.927
 20
-12.2366
 11
57.0981
 21
-12.5
  0
LINE
  8
0
 10
57.0981
 20
-12.5
 11
57.2406
 21
-12.7798
  0
LINE
  8
0
 10
57.2406
 20
-12.7798
 11
57.3532
 21
-13.0729
  0
LINE
  8
0
 10
57.3532
 20
-13.0729
 11
57.4344
 21
-13.3763
  0
LINE
  8
0
 10
57.4344
 20
-13.3763
 11
57.4836
 21
-13.6864
  0
LINE
  8
0
 10
57.4836
 20
-13.6864
 11
57.5
 21
-14
  0
LINE
  8
0
 10
57.5
 20
-14
 11
57.4836
 21
-14.3136
  0
LINE
  8
0
 10
57.4836
 20
-14.3136
 11
57.4344
 21
-14.6237
  0
LINE
  8
0
 10
57.4344
 20
-14.6237
 11
57.3532
 21
-14.927
  0
LINE
  8
0
 10
57.3532
 20
-14.927
 11
57.2406
 21
-15.2202
  0
LINE
  8
0
 10
57.2406
 20
-15.2202
 11
57.0981
 21
-15.5
  0
LINE
  8
0
 10
57.0981
 20
-15.5
 11
56.927
 21
-15.7634
  0
LINE
  8
0
 10
56.927
 20
-15.7634
 11
56.7294
 21
-16.0074
  0
LINE
  8
0
 10
56.7294
 20
-16.0074
 11
56.5074
 21
-16.2294
  0
LINE
  8
0
 10
56.5074
 20
-16.2294
 11
56.2634
 21
-16.427
  0
LINE
  8
0
 10
56.2634
 20
-16.427
 11
56
 21
-16.5981
  0
LINE
  8
0
 10
56
 20
-16.5981
 11
55.7202
 21
-16.7406
  0
LINE
  8
0
 10
55.7202
 20
-16.7406
 11
55.427
 21
-16.8532
  0
LINE
  8
0
 10
55.427
 20
-16.8532
 11
55.1237
 21
-16.9344
  0
LINE
  8
0
 10
55.1237
 20
-16.9344
 11
54.8136
 21
-16.9836
  0
LINE
  8
0
 10
54.8136
 20
-16.9836
 11
54.5
 21
-17
  0
LINE
  8
0
 10
54.5
 20
-17
 11
54.1864
 21
-16.9836
  0
LINE
  8
0
 10
139.186
 20
-16.9836
 11
138.876
 21
-16.9344
  0
LINE
  8
0
 10
138.876
 20
-16.9344
 11
138.573
 21
-16.8532
  0
LINE
  8
0
 10
138.573
 20
-16.8532
 11
138.28
 21
-16.7406
  0
LINE
  8
0
 10
138.28
 20
-16.7406
 11
138
 21
-16.5981
  0
LINE
  8
0
 10
138
 20
-16.5981
 11
137.737
 21
-16.427
  0
LINE
  8
0
 10
137.737
 20
-16.427
 11
137.493
 21
-16.2294
  0
LINE
  8
0
 10
137.493
 20
-16.2294
 11
137.271
 21
-16.0074
  0
LINE
  8
0
 10
137.271
 20
-16.0074
 11
137.073
 21
-15.7634
  0
LINE
  8
0
 10
137.073
 20
-15.7634
 11
136.902
 21
-15.5
  0
LINE
  8
0
 10
136.902
 20
-15.5
 11
136.759
 21
-15.2202
  0
LINE
  8
0
 10
136.759
 20
-15.2202
 11
136.647
 21
-14.927
  0
LINE
  8
0
 10
136.647
 20
-14.927
 11
136.566
 21
-14.6237
  0
LINE
  8
0
 10
136.566
 20
-14.6237
 11
136.516
 21
-14.3136
  0
LINE
  8
0
 10
136.516
 20
-14.3136
 11
136.5
 21
-14
  0
LINE
  8
0
 10
136.5
 20
-14
 11
136.516
 21
-13.6864
  0
LINE
  8
0
 10
136.516
 20
-13.6864
 11
136.566
 21
-13.3763
  0
LINE
  8
0
 10
136.566
 20
-13.3763
 11
136.647
 21
-13.0729
  0
LINE
  8
0
 10
136.647
 20
-13.0729
 11
136.759
 21
-12.7798
  0
LINE
  8
0
 10
136.759
 20
-12.7798
 11
136.902
 21
-12.5
  0
LINE
  8
0
 10
136.902
 20
-12.5
 11
137.073
 21
-12.2366
  0
LINE
  8
0
 10
137.073
 20
-12.2366
 11
137.271
 21
-11.9926
  0
LINE
  8
0
 10
137.271
 20
-11.9926
 11
137.493
 21
-11.7706
  0
LINE
  8
0
 10
137.493
 20
-11.7706
 11
137.737
 21
-11.5729
  0
LINE
  8
0
 10
137.737
 20
-11.5729
 11
138
 21
-11.4019
  0
LINE
  8
0
 10
138
 20
-11.4019
 11
138.28
 21
-11.2594
  0
LINE
  8
0
 10
138.28
 20
-11.2594
 11
138.573
 21
-11.1468
  0
LINE
  8
0
 10
138.573
 20
-11.1468
 11
138.876
 21
-11.0656
  0
LINE
  8
0
 10
138.876
 20
-11.0656
 11
139.186
 21
-11.0164
  0
LINE
  8
0
 10
139.186
 20
-11.0164
 11
139.5
 21
-11
  0
LINE
  8
0
 10
139.5
 20
-11
 11
139.814
 21
-11.0164
  0
LINE
  8
0
 10
139.814
 20
-11.0164
 11
140.124
 21
-11.0656
  0
LINE
  8
0
 10
140.124
 20
-11.0656
 11
140.427
 21
-11.1468
  0
LINE
  8
0
 10
140.427
 20
-11.1468
 11
140.72
 21
-11.2594
  0
LINE
  8
0
 10
140.72
 20
-11.2594
 11
141
 21
-11.4019
  0
LINE
  8
0
 10
141
 20
-11.4019
 11
141.263
 21
-11.5729
  0
LINE
  8
0
 10
141.263
 20
-11.5729
 11
141.507
 21
-11.7706
  0
LINE
  8
0
 10
141.507
 20
-11.7706
 11
141.729
 21
-11.9926
  0
LINE
  8
0
 10
141.729
 20
-11.9926
 11
141.927
 21
-12.2366
  0
LINE
  8
0
 10
141.927
 20
-12.2366
 11
142.098
 21
-12.5
  0
LINE
  8
0
 10
142.098
 20
-12.5
 11
142.241
 21
-12.7798
  0
LINE
  8
0
 10
142.241
 20
-12.7798
 11
142.353
 21
-13.0729
  0
LINE
  8
0
 10
142.353
 20
-13.0729
 11
142.434
 21
-13.3763
  0
LINE
  8
0
 10
142.434
 20
-13.3763
 11
142.484
 21
-13.6864
  0
LINE
  8
0
 10
142.484
 20
-13.6864
 11
142.5
 21
-14
  0
LINE
  8
0
 10
142.5
 20
-14
 11
142.484
 21
-14.3136
  0
LINE
  8
0
 10
142.484
 20
-14.3136
 11
142.434
 21
-14.6237
  0
LINE
  8
0
 10
142.434
 20
-14.6237
 11
142.353
 21
-14.927
  0
LINE
  8
0
 10
142.353
 20
-14.927
 11
142.241
 21
-15.2202
  0
LINE
  8
0
 10
142.241
 20
-15.2202
 11
142.098
 21
-15.5
  0
LINE
  8
0
 10
142.098
 20
-15.5
 11
141.927
 21
-15.7634
  0
LINE
  8
0
 10
141.927
 20
-15.7634
 11
141.729
 21
-16.0074
  0
LINE
  8
0
 10
141.729
 20
-16.0074
 11
141.507
 21
-16.2294
  0
LINE
  8
0
 10
141.507
 20
-16.2294
 11
141.263
 21
-16.427
  0
LINE
  8
0
 10
141.263
 20
-16.427
 11
141
 21
-16.5981
  0
LINE
  8
0
 10
141
 20
-16.5981
 11
140.72
 21
-16.7406
  0
LINE
  8
0
 10
140.72
 20
-16.7406
 11
140.427
 21
-16.8532
  0
LINE
  8
0
 10
140.427
 20
-16.8532
 11
140.124
 21
-16.9344
  0
LINE
  8
0
 10
140.124
 20
-16.9344
 11
139.814
 21
-16.9836
  0
LINE
  8
0
 10
139.814
 20
-16.9836
 11
139.5
 21
-17
  0
LINE
  8
0
 10
139.5
 20
-17
 11
139.186
 21
-16.9836
  0
LINE
  8
0
 10
-142.746
 20
-21.1862
 11
-142.99
 21
-21.1448
  0
LINE
  8
0
 10
-142.99
 20
-21.1448
 11
-143.227
 21
-21.0765
  0
LINE
  8
0
 10
-143.227
 20
-21.0765
 11
-143.455
 21
-20.9821
  0
LINE
  8
0
 10
-143.455
 20
-20.9821
 11
-143.67
 21
-20.8628
  0
LINE
  8
0
 10
-143.67
 20
-20.8628
 11
-143.872
 21
-20.72
  0
LINE
  8
0
 10
-143.872
 20
-20.72
 11
-144.056
 21
-20.5556
  0
LINE
  8
0
 10
-144.056
 20
-20.5556
 11
-144.22
 21
-20.3717
  0
LINE
  8
0
 10
-144.22
 20
-20.3717
 11
-144.363
 21
-20.1705
  0
LINE
  8
0
 10
-144.363
 20
-20.1705
 11
-144.482
 21
-19.9545
  0
LINE
  8
0
 10
-144.482
 20
-19.9545
 11
-144.577
 21
-19.7266
  0
LINE
  8
0
 10
-144.577
 20
-19.7266
 11
-144.645
 21
-19.4895
  0
LINE
  8
0
 10
-144.645
 20
-19.4895
 11
-144.686
 21
-19.2463
  0
LINE
  8
0
 10
-144.686
 20
-19.2463
 11
-144.7
 21
-19
  0
LINE
  8
0
 10
-144.7
 20
-19
 11
-144.686
 21
-18.7537
  0
LINE
  8
0
 10
-144.686
 20
-18.7537
 11
-144.645
 21
-18.5105
  0
LINE
  8
0
 10
-144.645
 20
-18.5105
 11
-144.577
 21
-18.2734
  0
LINE
  8
0
 10
-144.577
 20
-18.2734
 11
-144.482
 21
-18.0455
  0
LINE
  8
0
 10
-144.482
 20
-18.0455
 11
-144.363
 21
-17.8295
  0
LINE
  8
0
 10
-144.363
 20
-17.8295
 11
-144.22
 21
-17.6283
  0
LINE
  8
0
 10
-144.22
 20
-17.6283
 11
-144.056
 21
-17.4444
  0
LINE
  8
0
 10
-144.056
 20
-17.4444
 11
-143.872
 21
-17.28
  0
LINE
  8
0
 10
-143.872
 20
-17.28
 11
-143.67
 21
-17.1372
  0
LINE
  8
0
 10
-143.67
 20
-17.1372
 11
-143.455
 21
-17.0179
  0
LINE
  8
0
 10
-143.455
 20
-17.0179
 11
-143.227
 21
-16.9234
  0
LINE
  8
0
 10
-143.227
 20
-16.9234
 11
-142.99
 21
-16.8551
  0
LINE
  8
0
 10
-142.99
 20
-16.8551
 11
-142.746
 21
-16.8138
  0
LINE
  8
0
 10
-142.746
 20
-16.8138
 11
-142.5
 21
-16.8
  0
LINE
  8
0
 10
-142.5
 20
-16.8
 11
-142.254
 21
-16.8138
  0
LINE
  8
0
 10
-142.254
 20
-16.8138
 11
-142.01
 21
-16.8551
  0
LINE
  8
0
 10
-142.01
 20
-16.8551
 11
-141.773
 21
-16.9234
  0
LINE
  8
0
 10
-141.773
 20
-16.9234
 11
-141.545
 21
-17.0179
  0
LINE
  8
0
 10
-141.545
 20
-17.0179
 11
-141.33
 21
-17.1372
  0
LINE
  8
0
 10
-141.33
 20
-17.1372
 11
-141.128
 21
-17.28
  0
LINE
  8
0
 10
-141.128
 20
-17.28
 11
-140.944
 21
-17.4444
  0
LINE
  8
0
 10
-140.944
 20
-17.4444
 11
-140.78
 21
-17.6283
  0
LINE
  8
0
 10
-140.78
 20
-17.6283
 11
-140.637
 21
-17.8295
  0
LINE
  8
0
 10
-140.637
 20
-17.8295
 11
-140.518
 21
-18.0455
  0
LINE
  8
0
 10
-140.518
 20
-18.0455
 11
-140.423
 21
-18.2734
  0
LINE
  8
0
 10
-140.423
 20
-18.2734
 11
-140.355
 21
-18.5105
  0
LINE
  8
0
 10
-140.355
 20
-18.5105
 11
-140.314
 21
-18.7537
  0
LINE
  8
0
 10
-140.314
 20
-18.7537
 11
-140.3
 21
-19
  0
LINE
  8
0
 10
-140.3
 20
-19
 11
-140.314
 21
-19.2463
  0
LINE
  8
0
 10
-140.314
 20
-19.2463
 11
-140.355
 21
-19.4895
  0
LINE
  8
0
 10
-140.355
 20
-19.4895
 11
-140.423
 21
-19.7266
  0
LINE
  8
0
 10
-140.423
 20
-19.7266
 11
-140.518
 21
-19.9545
  0
LINE
  8
0
 10
-140.518
 20
-19.9545
 11
-140.637
 21
-20.1705
  0
LINE
  8
0
 10
-140.637
 20
-20.1705
 11
-140.78
 21
-20.3717
  0
LINE
  8
0
 10
-140.78
 20
-20.3717
 11
-140.944
 21
-20.5556
  0
LINE
  8
0
 10
-140.944
 20
-20.5556
 11
-141.128
 21
-20.72
  0
LINE
  8
0
 10
-141.128
 20
-20.72
 11
-141.33
 21
-20.8628
  0
LINE
  8
0
 10
-141.33
 20
-20.8628
 11
-141.545
 21
-20.9821
  0
LINE
  8
0
 10
-141.545
 20
-20.9821
 11
-141.773
 21
-21.0765
  0
LINE
  8
0
 10
-141.773
 20
-21.0765
 11
-142.01
 21
-21.1448
  0
LINE
  8
0
 10
-142.01
 20
-21.1448
 11
-142.254
 21
-21.1862
  0
LINE
  8
0
 10
-142.254
 20
-21.1862
 11
-142.5
 21
-21.2
  0
LINE
  8
0
 10
-142.5
 20
-21.2
 11
-142.746
 21
-21.1862
  0
LINE
  8
0
 10
-27.7463
 20
-21.1862
 11
-27.9895
 21
-21.1448
  0
LINE
  8
0
 10
-27.9895
 20
-21.1448
 11
-28.2266
 21
-21.0765
  0
LINE
  8
0
 10
-28.2266
 20
-21.0765
 11
-28.4545
 21
-20.9821
  0
LINE
  8
0
 10
-28.4545
 20
-20.9821
 11
-28.6705
 21
-20.8628
  0
LINE
  8
0
 10
-28.6705
 20
-20.8628
 11
-28.8717
 21
-20.72
  0
LINE
  8
0
 10
-28.8717
 20
-20.72
 11
-29.0556
 21
-20.5556
  0
LINE
  8
0
 10
-29.0556
 20
-20.5556
 11
-29.22
 21
-20.3717
  0
LINE
  8
0
 10
-29.22
 20
-20.3717
 11
-29.3628
 21
-20.1705
  0
LINE
  8
0
 10
-29.3628
 20
-20.1705
 11
-29.4821
 21
-19.9545
  0
LINE
  8
0
 10
-29.4821
 20
-19.9545
 11
-29.5765
 21
-19.7266
  0
LINE
  8
0
 10
-29.5765
 20
-19.7266
 11
-29.6448
 21
-19.4895
  0
LINE
  8
0
 10
-29.6448
 20
-19.4895
 11
-29.6862
 21
-19.2463
  0
LINE
  8
0
 10
-29.6862
 20
-19.2463
 11
-29.7
 21
-19
  0
LINE
  8
0
 10
-29.7
 20
-19
 11
-29.6862
 21
-18.7537
  0
LINE
  8
0
 10
-29.6862
 20
-18.7537
 11
-29.6448
 21
-18.5105
  0
LINE
  8
0
 10
-29.6448
 20
-18.5105
 11
-29.5765
 21
-18.2734
  0
LINE
  8
0
 10
-29.5765
 20
-18.2734
 11
-29.4821
 21
-18.0455
  0
LINE
  8
0
 10
-29.4821
 20
-18.0455
 11
-29.3628
 21
-17.8295
  0
LINE
  8
0
 10
-29.3628
 20
-17.8295
 11
-29.22
 21
-17.6283
  0
LINE
  8
0
 10
-29.22
 20
-17.6283
 11
-29.0556
 21
-17.4444
  0
LINE
  8
0
 10
-29.0556
 20
-17.4444
 11
-28.8717
 21
-17.28
  0
LINE
  8
0
 10
-28.8717
 20
-17.28
 11
-28.6705
 21
-17.1372
  0
LINE
  8
0
 10
-28.6705
 20
-17.1372
 11
-28.4545
 21
-17.0179
  0
LINE
  8
0
 10
-28.4545
 20
-17.0179
 11
-28.2266
 21
-16.9234
  0
LINE
  8
0
 10
-28.2266
 20
-16.9234
 11
-27.9895
 21
-16.8551
  0
LINE
  8
0
 10
-27.9895
 20
-16.8551
 11
-27.7463
 21
-16.8138
  0
LINE
  8
0
 10
-27.7463
 20
-16.8138
 11
-27.5
 21
-16.8
  0
LINE
  8
0
 10
-27.5
 20
-16.8
 11
-27.2537
 21
-16.8138
  0
LINE
  8
0
 10
-27.2537
 20
-16.8138
 11
-27.0105
 21
-16.8551
  0
LINE
  8
0
 10
-27.0105
 20
-16.8551
 11
-26.7734
 21
-16.9234
  0
LINE
  8
0
 10
-26.7734
 20
-16.9234
 11
-26.5455
 21
-17.0179
  0
LINE
  8
0
 10
-26.5455
 20
-17.0179
 11
-26.3295
 21
-17.1372
  0
LINE
  8
0
 10
-26.3295
 20
-17.1372
 11
-26.1283
 21
-17.28
  0
LINE
  8
0
 10
-26.1283
 20
-17.28
 11
-25.9444
 21
-17.4444
  0
LINE
  8
0
 10
-25.9444
 20
-17.4444
 11
-25.78
 21
-17.6283
  0
LINE
  8
0
 10
-25.78
 20
-17.6283
 11
-25.6372
 21
-17.8295
  0
LINE
  8
0
 10
-25.6372
 20
-17.8295
 11
-25.5179
 21
-18.0455
  0
LINE
  8
0
 10
-25.5179
 20
-18.0455
 11
-25.4234
 21
-18.2734
  0
LINE
  8
0
 10
-25.4234
 20
-18.2734
 11
-25.3551
 21
-18.5105
  0
LINE
  8
0
 10
-25.3551
 20
-18.5105
 11
-25.3138
 21
-18.7537
  0
LINE
  8
0
 10
-25.3138
 20
-18.7537
 11
-25.3
 21
-19
  0
LINE
  8
0
 10
-25.3
 20
-19
 11
-25.3138
 21
-19.2463
  0
LINE
  8
0
 10
-25.3138
 20
-19.2463
 11
-25.3551
 21
-19.4895
  0
LINE
  8
0
 10
-25.3551
 20
-19.4895
 11
-25.4234
 21
-19.7266
  0
LINE
  8
0
 10
-25.4234
 20
-19.7266
 11
-25.5179
 21
-19.9545
  0
LINE
  8
0
 10
-25.5179
 20
-19.9545
 11
-25.6372
 21
-20.1705
  0
LINE
  8
0
 10
-25.6372
 20
-20.1705
 11
-25.78
 21
-20.3717
  0
LINE
  8
0
 10
-25.78
 20
-20.3717
 11
-25.9444
 21
-20.5556
  0
LINE
  8
0
 10
-25.9444
 20
-20.5556
 11
-26.1283
 21
-20.72
  0
LINE
  8
0
 10
-26.1283
 20
-20.72
 11
-26.3295
 21
-20.8628
  0
LINE
  8
0
 10
-26.3295
 20
-20.8628
 11
-26.5455
 21
-20.9821
  0
LINE
  8
0
 10
-26.5455
 20
-20.9821
 11
-26.7734
 21
-21.0765
  0
LINE
  8
0
 10
-26.7734
 20
-21.0765
 11
-27.0105
 21
-21.1448
  0
LINE
  8
0
 10
-27.0105
 20
-21.1448
 11
-27.2537
 21
-21.1862
  0
LINE
  8
0
 10
-27.2537
 20
-21.1862
 11
-27.5
 21
-21.2
  0
LINE
  8
0
 10
-27.5
 20
-21.2
 11
-27.7463
 21
-21.1862
  0
LINE
  8
0
 10
-142.746
 20
-35.1862
 11
-142.99
 21
-35.1448
  0
LINE
  8
0
 10
-142.99
 20
-35.1448
 11
-143.227
 21
-35.0765
  0
LINE
  8
0
 10
-143.227
 20
-35.0765
 11
-143.455
 21
-34.9821
  0
LINE
  8
0
 10
-143.455
 20
-34.9821
 11
-143.67
 21
-34.8628
  0
LINE
  8
0
 10
-143.67
 20
-34.8628
 11
-143.872
 21
-34.72
  0
LINE
  8
0
 10
-143.872
 20
-34.72
 11
-144.056
 21
-34.5556
  0
LINE
  8
0
 10
-144.056
 20
-34.5556
 11
-144.22
 21
-34.3717
  0
LINE
  8
0
 10
-144.22
 20
-34.3717
 11
-144.363
 21
-34.1705
  0
LINE
  8
0
 10
-144.363
 20
-34.1705
 11
-144.482
 21
-33.9545
  0
LINE
  8
0
 10
-144.482
 20
-33.9545
 11
-144.577
 21
-33.7266
  0
LINE
  8
0
 10
-144.577
 20
-33.7266
 11
-144.645
 21
-33.4895
  0
LINE
  8
0
 10
-144.645
 20
-33.4895
 11
-144.686
 21
-33.2463
  0
LINE
  8
0
 10
-144.686
 20
-33.2463
 11
-144.7
 21
-33
  0
LINE
  8
0
 10
-144.7
 20
-33
 11
-144.686
 21
-32.7537
  0
LINE
  8
0
 10
-144.686
 20
-32.7537
 11
-144.645
 21
-32.5105
  0
LINE
  8
0
 10
-144.645
 20
-32.5105
 11
-144.577
 21
-32.2734
  0
LINE
  8
0
 10
-144.577
 20
-32.2734
 11
-144.482
 21
-32.0455
  0
LINE
  8
0
 10
-144.482
 20
-32.0455
 11
-144.363
 21
-31.8295
  0
LINE
  8
0
 10
-144.363
 20
-31.8295
 11
-144.22
 21
-31.6283
  0
LINE
  8
0
 10
-144.22
 20
-31.6283
 11
-144.056
 21
-31.4444
  0
LINE
  8
0
 10
-144.056
 20
-31.4444
 11
-143.872
 21
-31.28
  0
LINE
  8
0
 10
-143.872
 20
-31.28
 11
-143.67
 21
-31.1372
  0
LINE
  8
0
 10
-143.67
 20
-31.1372
 11
-143.455
 21
-31.0179
  0
LINE
  8
0
 10
-143.455
 20
-31.0179
 11
-143.227
 21
-30.9234
  0
LINE
  8
0
 10
-143.227
 20
-30.9234
 11
-142.99
 21
-30.8551
  0
LINE
  8
0
 10
-142.99
 20
-30.8551
 11
-142.746
 21
-30.8138
  0
LINE
  8
0
 10
-142.746
 20
-30.8138
 11
-142.5
 21
-30.8
  0
LINE
  8
0
 10
-142.5
 20
-30.8
 11
-142.254
 21
-30.8138
  0
LINE
  8
0
 10
-142.254
 20
-30.8138
 11
-142.01
 21
-30.8551
  0
LINE
  8
0
 10
-142.01
 20
-30.8551
 11
-141.773
 21
-30.9234
  0
LINE
  8
0
 10
-141.773
 20
-30.9234
 11
-141.545
 21
-31.0179
  0
LINE
  8
0
 10
-141.545
 20
-31.0179
 11
-141.33
 21
-31.1372
  0
LINE
  8
0
 10
-141.33
 20
-31.1372
 11
-141.128
 21
-31.28
  0
LINE
  8
0
 10
-141.128
 20
-31.28
 11
-140.944
 21
-31.4444
  0
LINE
  8
0
 10
-140.944
 20
-31.4444
 11
-140.78
 21
-31.6283
  0
LINE
  8
0
 10
-140.78
 20
-31.6283
 11
-140.637
 21
-31.8295
  0
LINE
  8
0
 10
-140.637
 20
-31.8295
 11
-140.518
 21
-32.0455
  0
LINE
  8
0
 10
-140.518
 20
-32.0455
 11
-140.423
 21
-32.2734
  0
LINE
  8
0
 10
-140.423
 20
-32.2734
 11
-140.355
 21
-32.5105
  0
LINE
  8
0
 10
-140.355
 20
-32.5105
 11
-140.314
 21
-32.7537
  0
LINE
  8
0
 10
-140.314
 20
-32.7537
 11
-140.3
 21
-33
  0
LINE
  8
0
 10
-140.3
 20
-33
 11
-140.314
 21
-33.2463
  0
LINE
  8
0
 10
-140.314
 20
-33.2463
 11
-140.355
 21
-33.4895
  0
LINE
  8
0
 10
-140.355
 20
-33.4895
 11
-140.423
 21
-33.7266
  0
LINE
  8
0
 10
-140.423
 20
-33.7266
 11
-140.518
 21
-33.9545
  0
LINE
  8
0
 10
-140.518
 20
-33.9545
 11
-140.637
 21
-34.1705
  0
LINE
  8
0
 10
-140.637
 20
-34.1705
 11
-140.78
 21
-34.3717
  0
LINE
  8
0
 10
-140.78
 20
-34.3717
 11
-140.944
 21
-34.5556
  0
LINE
  8
0
 10
-140.944
 20
-34.5556
 11
-141.128
 21
-34.72
  0
LINE
  8
0
 10
-141.128
 20
-34.72
 11
-141.33
 21
-34.8628
  0
LINE
  8
0
 10
-141.33
 20
-34.8628
 11
-141.545
 21
-34.9821
  0
LINE
  8
0
 10
-141.545
 20
-34.9821
 11
-141.773
 21
-35.0765
  0
LINE
  8
0
 10
-141.773
 20
-35.0765
 11
-142.01
 21
-35.1448
  0
LINE
  8
0
 10
-142.01
 20
-35.1448
 11
-142.254
 21
-35.1862
  0
LINE
  8
0
 10
-142.254
 20
-35.1862
 11
-142.5
 21
-35.2
  0
LINE
  8
0
 10
-142.5
 20
-35.2
 11
-142.746
 21
-35.1862
  0
LINE
  8
0
 10
-12.7463
 20
-35.1862
 11
-12.9895
 21
-35.1448
  0
LINE
  8
0
 10
-12.9895
 20
-35.1448
 11
-13.2266
 21
-35.0765
  0
LINE
  8
0
 10
-13.2266
 20
-35.0765
 11
-13.4545
 21
-34.9821
  0
LINE
  8
0
 10
-13.4545
 20
-34.9821
 11
-13.6705
 21
-34.8628
  0
LINE
  8
0
 10
-13.6705
 20
-34.8628
 11
-13.8717
 21
-34.72
  0
LINE
  8
0
 10
-13.8717
 20
-34.72
 11
-14.0556
 21
-34.5556
  0
LINE
  8
0
 10
-14.0556
 20
-34.5556
 11
-14.22
 21
-34.3717
  0
LINE
  8
0
 10
-14.22
 20
-34.3717
 11
-14.3628
 21
-34.1705
  0
LINE
  8
0
 10
-14.3628
 20
-34.1705
 11
-14.4821
 21
-33.9545
  0
LINE
  8
0
 10
-14.4821
 20
-33.9545
 11
-14.5765
 21
-33.7266
  0
LINE
  8
0
 10
-14.5765
 20
-33.7266
 11
-14.6448
 21
-33.4895
  0
LINE
  8
0
 10
-14.6448
 20
-33.4895
 11
-14.6862
 21
-33.2463
  0
LINE
  8
0
 10
-14.6862
 20
-33.2463
 11
-14.7
 21
-33
  0
LINE
  8
0
 10
-14.7
 20
-33
 11
-14.6862
 21
-32.7537
  0
LINE
  8
0
 10
-14.6862
 20
-32.7537
 11
-14.6448
 21
-32.5105
  0
LINE
  8
0
 10
-14.6448
 20
-32.5105
 11
-14.5765
 21
-32.2734
  0
LINE
  8
0
 10
-14.5765
 20
-32.2734
 11
-14.4821
 21
-32.0455
  0
LINE
  8
0
 10
-14.4821
 20
-32.0455
 11
-14.3628
 21
-31.8295
  0
LINE
  8
0
 10
-14.3628
 20
-31.8295
 11
-14.22
 21
-31.6283
  0
LINE
  8
0
 10
-14.22
 20
-31.6283
 11
-14.0556
 21
-31.4444
  0
LINE
  8
0
 10
-14.0556
 20
-31.4444
 11
-13.8717
 21
-31.28
  0
LINE
  8
0
 10
-13.8717
 20
-31.28
 11
-13.6705
 21
-31.1372
  0
LINE
  8
0
 10
-13.6705
 20
-31.1372
 11
-13.4545
 21
-31.0179
  0
LINE
  8
0
 10
-13.4545
 20
-31.0179
 11
-13.2266
 21
-30.9234
  0
LINE
  8
0
 10
-13.2266
 20
-30.9234
 11
-12.9895
 21
-30.8551
  0
LINE
  8
0
 10
-12.9895
 20
-30.8551
 11
-12.7463
 21
-30.8138
  0
LINE
  8
0
 10
-12.7463
 20
-30.8138
 11
-12.5
 21
-30.8
  0
LINE
  8
0
 10
-12.5
 20
-30.8
 11
-12.2537
 21
-30.8138
  0
LINE
  8
0
 10
-12.2537
 20
-30.8138
 11
-12.0105
 21
-30.8551
  0
LINE
  8
0
 10
-12.0105
 20
-30.8551
 11
-11.7734
 21
-30.9234
  0
LINE
  8
0
 10
-11.7734
 20
-30.9234
 11
-11.5455
 21
-31.0179
  0
LINE
  8
0
 10
-11.5455
 20
-31.0179
 11
-11.3295
 21
-31.1372
  0
LINE
  8
0
 10
-11.3295
 20
-31.1372
 11
-11.1283
 21
-31.28
  0
LINE
  8
0
 10
-11.1283
 20
-31.28
 11
-10.9444
 21
-31.4444
  0
LINE
  8
0
 10
-10.9444
 20
-31.4444
 11
-10.78
 21
-31.6283
  0
LINE
  8
0
 10
-10.78
 20
-31.6283
 11
-10.6372
 21
-31.8295
  0
LINE
  8
0
 10
-10.6372
 20
-31.8295
 11
-10.5179
 21
-32.0455
  0
LINE
  8
0
 10
-10.5179
 20
-32.0455
 11
-10.4234
 21
-32.2734
  0
LINE
  8
0
 10
-10.4234
 20
-32.2734
 11
-10.3551
 21
-32.5105
  0
LINE
  8
0
 10
-10.3551
 20
-32.5105
 11
-10.3138
 21
-32.7537
  0
LINE
  8
0
 10
-10.3138
 20
-32.7537
 11
-10.3
 21
-33
  0
LINE
  8
0
 10
-10.3
 20
-33
 11
-10.3138
 21
-33.2463
  0
LINE
  8
0
 10
-10.3138
 20
-33.2463
 11
-10.3551
 21
-33.4895
  0
LINE
  8
0
 10
-10.3551
 20
-33.4895
 11
-10.4234
 21
-33.7266
  0
LINE
  8
0
 10
-10.4234
 20
-33.7266
 11
-10.5179
 21
-33.9545
  0
LINE
  8
0
 10
-10.5179
 20
-33.9545
 11
-10.6372
 21
-34.1705
  0
LINE
  8
0
 10
-10.6372
 20
-34.1705
 11
-10.78
 21
-34.3717
  0
LINE
  8
0
 10
-10.78
 20
-34.3717
 11
-10.9444
 21
-34.5556
  0
LINE
  8
0
 10
-10.9444
 20
-34.5556
 11
-11.1283
 21
-34.72
  0
LINE
  8
0
 10
-11.1283
 20
-34.72
 11
-11.3295
 21
-34.8628
  0
LINE
  8
0
 10
-11.3295
 20
-34.8628
 11
-11.5455
 21
-34.9821
  0
LINE
  8
0
 10
-11.5455
 20
-34.9821
 11
-11.7734
 21
-35.0765
  0
LINE
  8
0
 10
-11.7734
 20
-35.0765
 11
-12.0105
 21
-35.1448
  0
LINE
  8
0
 10
-12.0105
 20
-35.1448
 11
-12.2537
 21
-35.1862
  0
LINE
  8
0
 10
-12.2537
 20
-35.1862
 11
-12.5
 21
-35.2
  0
LINE
  8
0
 10
-12.5
 20
-35.2
 11
-12.7463
 21
-35.1862
  0
LINE
  8
0
 10
232.314
 20
-90.9923
 11
232.069
 21
-90.9583
  0
LINE
  8
0
 10
232.069
 20
-90.9583
 11
231.828
 21
-90.8974
  0
LINE
  8
0
 10
231.828
 20
-90.8974
 11
231.596
 21
-90.8105
  0
LINE
  8
0
 10
231.596
 20
-90.8105
 11
231.375
 21
-90.6985
  0
LINE
  8
0
 10
231.375
 20
-90.6985
 11
231.167
 21
-90.563
  0
LINE
  8
0
 10
231.167
 20
-90.563
 11
230.976
 21
-90.4054
  0
LINE
  8
0
 10
230.976
 20
-90.4054
 11
230.803
 21
-90.2277
  0
LINE
  8
0
 10
230.803
 20
-90.2277
 11
230.651
 21
-90.0321
  0
LINE
  8
0
 10
230.651
 20
-90.0321
 11
230.521
 21
-89.8209
  0
LINE
  8
0
 10
230.521
 20
-89.8209
 11
230.415
 21
-89.5967
  0
LINE
  8
0
 10
230.415
 20
-89.5967
 11
230.335
 21
-89.3622
  0
LINE
  8
0
 10
230.335
 20
-89.3622
 11
230.281
 21
-89.1203
  0
LINE
  8
0
 10
230.281
 20
-89.1203
 11
230.253
 21
-88.8739
  0
LINE
  8
0
 10
230.253
 20
-88.8739
 11
230.253
 21
-88.6261
  0
LINE
  8
0
 10
230.253
 20
-88.6261
 11
230.281
 21
-88.3797
  0
LINE
  8
0
 10
230.281
 20
-88.3797
 11
230.335
 21
-88.1378
  0
LINE
  8
0
 10
230.335
 20
-88.1378
 11
230.415
 21
-87.9033
  0
LINE
  8
0
 10
230.415
 20
-87.9033
 11
230.521
 21
-87.6791
  0
LINE
  8
0
 10
230.521
 20
-87.6791
 11
230.651
 21
-87.4679
  0
LINE
  8
0
 10
230.651
 20
-87.4679
 11
230.803
 21
-87.2723
  0
LINE
  8
0
 10
230.803
 20
-87.2723
 11
230.976
 21
-87.0946
  0
LINE
  8
0
 10
230.976
 20
-87.0946
 11
231.167
 21
-86.937
  0
LINE
  8
0
 10
231.167
 20
-86.937
 11
231.375
 21
-86.8014
  0
LINE
  8
0
 10
231.375
 20
-86.8014
 11
231.596
 21
-86.6895
  0
LINE
  8
0
 10
231.596
 20
-86.6895
 11
231.828
 21
-86.6026
  0
LINE
  8
0
 10
231.828
 20
-86.6026
 11
232.069
 21
-86.5417
  0
LINE
  8
0
 10
232.069
 20
-86.5417
 11
232.314
 21
-86.5077
  0
LINE
  8
0
 10
232.314
 20
-86.5077
 11
232.562
 21
-86.5009
  0
LINE
  8
0
 10
232.562
 20
-86.5009
 11
232.809
 21
-86.5213
  0
LINE
  8
0
 10
232.809
 20
-86.5213
 11
233.052
 21
-86.5688
  0
LINE
  8
0
 10
233.052
 20
-86.5688
 11
233.289
 21
-86.6429
  0
LINE
  8
0
 10
233.289
 20
-86.6429
 11
233.516
 21
-86.7424
  0
LINE
  8
0
 10
233.516
 20
-86.7424
 11
233.731
 21
-86.8664
  0
LINE
  8
0
 10
233.731
 20
-86.8664
 11
233.93
 21
-87.0132
  0
LINE
  8
0
 10
233.93
 20
-87.0132
 11
234.113
 21
-87.1811
  0
LINE
  8
0
 10
234.113
 20
-87.1811
 11
234.276
 21
-87.368
  0
LINE
  8
0
 10
234.276
 20
-87.368
 11
234.417
 21
-87.5717
  0
LINE
  8
0
 10
234.417
 20
-87.5717
 11
234.535
 21
-87.7897
  0
LINE
  8
0
 10
234.535
 20
-87.7897
 11
234.628
 21
-88.0194
  0
LINE
  8
0
 10
234.628
 20
-88.0194
 11
234.696
 21
-88.258
  0
LINE
  8
0
 10
234.696
 20
-88.258
 11
234.736
 21
-88.5025
  0
LINE
  8
0
 10
234.736
 20
-88.5025
 11
234.75
 21
-88.75
  0
LINE
  8
0
 10
234.75
 20
-88.75
 11
234.736
 21
-88.9975
  0
LINE
  8
0
 10
234.736
 20
-88.9975
 11
234.696
 21
-89.242
  0
LINE
  8
0
 10
234.696
 20
-89.242
 11
234.628
 21
-89.4806
  0
LINE
  8
0
 10
234.628
 20
-89.4806
 11
234.535
 21
-89.7102
  0
LINE
  8
0
 10
234.535
 20
-89.7102
 11
234.417
 21
-89.9283
  0
LINE
  8
0
 10
234.417
 20
-89.9283
 11
234.276
 21
-90.132
  0
LINE
  8
0
 10
234.276
 20
-90.132
 11
234.113
 21
-90.3189
  0
LINE
  8
0
 10
234.113
 20
-90.3189
 11
233.93
 21
-90.4868
  0
LINE
  8
0
 10
233.93
 20
-90.4868
 11
233.731
 21
-90.6336
  0
LINE
  8
0
 10
233.731
 20
-90.6336
 11
233.516
 21
-90.7576
  0
LINE
  8
0
 10
233.516
 20
-90.7576
 11
233.289
 21
-90.8571
  0
LINE
  8
0
 10
233.289
 20
-90.8571
 11
233.052
 21
-90.9312
  0
LINE
  8
0
 10
233.052
 20
-90.9312
 11
232.809
 21
-90.9787
  0
LINE
  8
0
 10
232.809
 20
-90.9787
 11
232.562
 21
-90.9991
  0
LINE
  8
0
 10
232.562
 20
-90.9991
 11
232.314
 21
-90.9923
  0
LINE
  8
0
 10
-232.809
 20
-90.9787
 11
-233.052
 21
-90.9312
  0
LINE
  8
0
 10
-233.052
 20
-90.9312
 11
-233.289
 21
-90.8571
  0
LINE
  8
0
 10
-233.289
 20
-90.8571
 11
-233.516
 21
-90.7576
  0
LINE
  8
0
 10
-233.516
 20
-90.7576
 11
-233.731
 21
-90.6336
  0
LINE
  8
0
 10
-233.731
 20
-90.6336
 11
-233.93
 21
-90.4868
  0
LINE
  8
0
 10
-233.93
 20
-90.4868
 11
-234.113
 21
-90.3189
  0
LINE
  8
0
 10
-234.113
 20
-90.3189
 11
-234.276
 21
-90.132
  0
LINE
  8
0
 10
-234.276
 20
-90.132
 11
-234.417
 21
-89.9283
  0
LINE
  8
0
 10
-234.417
 20
-89.9283
 11
-234.535
 21
-89.7102
  0
LINE
  8
0
 10
-234.535
 20
-89.7102
 11
-234.628
 21
-89.4806
  0
LINE
  8
0
 10
-234.628
 20
-89.4806
 11
-234.696
 21
-89.242
  0
LINE
  8
0
 10
-234.696
 20
-89.242
 11
-234.736
 21
-88.9975
  0
LINE
  8
0
 10
-234.736
 20
-88.9975
 11
-234.75
 21
-88.75
  0
LINE
  8
0
 10
-234.75
 20
-88.75
 11
-234.736
 21
-88.5025
  0
LINE
  8
0
 10
-234.736
 20
-88.5025
 11
-234.696
 21
-88.258
  0
LINE
  8
0
 10
-234.696
 20
-88.258
 11
-234.628
 21
-88.0194
  0
LINE
  8
0
 10
-234.628
 20
-88.0194
 11
-234.535
 21
-87.7897
  0
LINE
  8
0
 10
-234.535
 20
-87.7897
 11
-234.417
 21
-87.5717
  0
LINE
  8
0
 10
-234.417
 20
-87.5717
 11
-234.276
 21
-87.368
  0
LINE
  8
0
 10
-234.276
 20
-87.368
 11
-234.113
 21
-87.1811
  0
LINE
  8
0
 10
-234.113
 20
-87.1811
 11
-233.93
 21
-87.0132
  0
LINE
  8
0
 10
-233.93
 20
-87.0132
 11
-233.731
 21
-86.8664
  0
LINE
  8
0
 10
-233.731
 20
-86.8664
 11
-233.516
 21
-86.7424
  0
LINE
  8
0
 10
-233.516
 20
-86.7424
 11
-233.289
 21
-86.6429
  0
LINE
  8
0
 10
-233.289
 20
-86.6429
 11
-233.052
 21
-86.5688
  0
LINE
  8
0
 10
-233.052
 20
-86.5688
 11
-232.809
 21
-86.5213
  0
LINE
  8
0
 10
-232.809
 20
-86.5213
 11
-232.562
 21
-86.5009
  0
LINE
  8
0
 10
-232.562
 20
-86.5009
 11
-232.314
 21
-86.5077
  0
LINE
  8
0
 10
-232.314
 20
-86.5077
 11
-232.069
 21
-86.5417
  0
LINE
  8
0
 10
-232.069
 20
-86.5417
 11
-231.828
 21
-86.6026
  0
LINE
  8
0
 10
-231.828
 20
-86.6026
 11
-231.596
 21
-86.6895
  0
LINE
  8
0
 10
-231.596
 20
-86.6895
 11
-231.375
 21
-86.8014
  0
LINE
  8
0
 10
-231.375
 20
-86.8014
 11
-231.167
 21
-86.937
  0
LINE
  8
0
 10
-231.167
 20
-86.937
 11
-230.976
 21
-87.0946
  0
LINE
  8
0
 10
-230.976
 20
-87.0946
 11
-230.803
 21
-87.2723
  0
LINE
  8
0
 10
-230.803
 20
-87.2723
 11
-230.651
 21
-87.4679
  0
LINE
  8
0
 10
-230.651
 20
-87.4679
 11
-230.521
 21
-87.6791
  0
LINE
  8
0
 10
-230.521
 20
-87.6791
 11
-230.415
 21
-87.9033
  0
LINE
  8
0
 10
-230.415
 20
-87.9033
 11
-230.335
 21
-88.1378
  0
LINE
  8
0
 10
-230.335
 20
-88.1378
 11
-230.281
 21
-88.3797
  0
LINE
  8
0
 10
-230.281
 20
-88.3797
 11
-230.253
 21
-88.6261
  0
LINE
  8
0
 10
-230.253
 20
-88.6261
 11
-230.253
 21
-88.8739
  0
LINE
  8
0
 10
-230.253
 20
-88.8739
 11
-230.281
 21
-89.1203
  0
LINE
  8
0
 10
-230.281
 20
-89.1203
 11
-230.335
 21
-89.3622
  0
LINE
  8
0
 10
-230.335
 20
-89.3622
 11
-230.415
 21
-89.5967
  0
LINE
  8
0
 10
-230.415
 20
-89.5967
 11
-230.521
 21
-89.8209
  0
LINE
  8
0
 10
-230.521
 20
-89.8209
 11
-230.651
 21
-90.0321
  0
LINE
  8
0
 10
-230.651
 20
-90.0321
 11
-230.803
 21
-90.2277
  0
LINE
  8
0
 10
-230.803
 20
-90.2277
 11
-230.976
 21
-90.4054
  0
LINE
  8
0
 10
-230.976
 20
-90.4054
 11
-231.167
 21
-90.563
  0
LINE
  8
0
 10
-231.167
 20
-90.563
 11
-231.375
 21
-90.6985
  0
LINE
  8
0
 10
-231.375
 20
-90.6985
 11
-231.596
 21
-90.8105
  0
LINE
  8
0
 10
-231.596
 20
-90.8105
 11
-231.828
 21
-90.8974
  0
LINE
  8
0
 10
-231.828
 20
-90.8974
 11
-232.069
 21
-90.9583
  0
LINE
  8
0
 10
-232.069
 20
-90.9583
 11
-232.314
 21
-90.9923
  0
LINE
  8
0
 10
-232.314
 20
-90.9923
 11
-232.562
 21
-90.9991
  0
LINE
  8
0
 10
-232.562
 20
-90.9991
 11
-232.809
 21
-90.9787
  0
LINE
  8
0
 10
-27.7463
 20
-113.186
 11
-27.9895
 21
-113.145
  0
LINE
  8
0
 10
-27.9895
 20
-113.145
 11
-28.2266
 21
-113.077
  0
LINE
  8
0
 10
-28.2266
 20
-113.077
 11
-28.4545
 21
-112.982
  0
LINE
  8
0
 10
-28.4545
 20
-112.982
 11
-28.6705
 21
-112.863
  0
LINE
  8
0
 10
-28.6705
 20
-112.863
 11
-28.8717
 21
-112.72
  0
LINE
  8
0
 10
-28.8717
 20
-112.72
 11
-29.0556
 21
-112.556
  0
LINE
  8
0
 10
-29.0556
 20
-112.556
 11
-29.22
 21
-112.372
  0
LINE
  8
0
 10
-29.22
 20
-112.372
 11
-29.3628
 21
-112.17
  0
LINE
  8
0
 10
-29.3628
 20
-112.17
 11
-29.4821
 21
-111.955
  0
LINE
  8
0
 10
-29.4821
 20
-111.955
 11
-29.5765
 21
-111.727
  0
LINE
  8
0
 10
-29.5765
 20
-111.727
 11
-29.6448
 21
-111.49
  0
LINE
  8
0
 10
-29.6448
 20
-111.49
 11
-29.6862
 21
-111.246
  0
LINE
  8
0
 10
-29.6862
 20
-111.246
 11
-29.7
 21
-111
  0
LINE
  8
0
 10
-29.7
 20
-111
 11
-29.6862
 21
-110.754
  0
LINE
  8
0
 10
-29.6862
 20
-110.754
 11
-29.6448
 21
-110.51
  0
LINE
  8
0
 10
-29.6448
 20
-110.51
 11
-29.5765
 21
-110.273
  0
LINE
  8
0
 10
-29.5765
 20
-110.273
 11
-29.4821
 21
-110.045
  0
LINE
  8
0
 10
-29.4821
 20
-110.045
 11
-29.3628
 21
-109.83
  0
LINE
  8
0
 10
-29.3628
 20
-109.83
 11
-29.22
 21
-109.628
  0
LINE
  8
0
 10
-29.22
 20
-109.628
 11
-29.0556
 21
-109.444
  0
LINE
  8
0
 10
-29.0556
 20
-109.444
 11
-28.8717
 21
-109.28
  0
LINE
  8
0
 10
-28.8717
 20
-109.28
 11
-28.6705
 21
-109.137
  0
LINE
  8
0
 10
-28.6705
 20
-109.137
 11
-28.4545
 21
-109.018
  0
LINE
  8
0
 10
-28.4545
 20
-109.018
 11
-28.2266
 21
-108.923
  0
LINE
  8
0
 10
-28.2266
 20
-108.923
 11
-27.9895
 21
-108.855
  0
LINE
  8
0
 10
-27.9895
 20
-108.855
 11
-27.7463
 21
-108.814
  0
LINE
  8
0
 10
-27.7463
 20
-108.814
 11
-27.5
 21
-108.8
  0
LINE
  8
0
 10
-27.5
 20
-108.8
 11
-27.2537
 21
-108.814
  0
LINE
  8
0
 10
-27.2537
 20
-108.814
 11
-27.0105
 21
-108.855
  0
LINE
  8
0
 10
-27.0105
 20
-108.855
 11
-26.7734
 21
-108.923
  0
LINE
  8
0
 10
-26.7734
 20
-108.923
 11
-26.5455
 21
-109.018
  0
LINE
  8
0
 10
-26.5455
 20
-109.018
 11
-26.3295
 21
-109.137
  0
LINE
  8
0
 10
-26.3295
 20
-109.137
 11
-26.1283
 21
-109.28
  0
LINE
  8
0
 10
-26.1283
 20
-109.28
 11
-25.9444
 21
-109.444
  0
LINE
  8
0
 10
-25.9444
 20
-109.444
 11
-25.78
 21
-109.628
  0
LINE
  8
0
 10
-25.78
 20
-109.628
 11
-25.6372
 21
-109.83
  0
LINE
  8
0
 10
-25.6372
 20
-109.83
 11
-25.5179
 21
-110.045
  0
LINE
  8
0
 10
-25.5179
 20
-110.045
 11
-25.4234
 21
-110.273
  0
LINE
  8
0
 10
-25.4234
 20
-110.273
 11
-25.3551
 21
-110.51
  0
LINE
  8
0
 10
-25.3551
 20
-110.51
 11
-25.3138
 21
-110.754
  0
LINE
  8
0
 10
-25.3138
 20
-110.754
 11
-25.3
 21
-111
  0
LINE
  8
0
 10
-25.3
 20
-111
 11
-25.3138
 21
-111.246
  0
LINE
  8
0
 10
-25.3138
 20
-111.246
 11
-25.3551
 21
-111.49
  0
LINE
  8
0
 10
-25.3551
 20
-111.49
 11
-25.4234
 21
-111.727
  0
LINE
  8
0
 10
-25.4234
 20
-111.727
 11
-25.5179
 21
-111.955
  0
LINE
  8
0
 10
-25.5179
 20
-111.955
 11
-25.6372
 21
-112.17
  0
LINE
  8
0
 10
-25.6372
 20
-112.17
 11
-25.78
 21
-112.372
  0
LINE
  8
0
 10
-25.78
 20
-112.372
 11
-25.9444
 21
-112.556
  0
LINE
  8
0
 10
-25.9444
 20
-112.556
 11
-26.1283
 21
-112.72
  0
LINE
  8
0
 10
-26.1283
 20
-112.72
 11
-26.3295
 21
-112.863
  0
LINE
  8
0
 10
-26.3295
 20
-112.863
 11
-26.5455
 21
-112.982
  0
LINE
  8
0
 10
-26.5455
 20
-112.982
 11
-26.7734
 21
-113.077
  0
LINE
  8
0
 10
-26.7734
 20
-113.077
 11
-27.0105
 21
-113.145
  0
LINE
  8
0
 10
-27.0105
 20
-113.145
 11
-27.2537
 21
-113.186
  0
LINE
  8
0
 10
-27.2537
 20
-113.186
 11
-27.5
 21
-113.2
  0
LINE
  8
0
 10
-27.5
 20
-113.2
 11
-27.7463
 21
-113.186
  0
LINE
  8
0
 10
-142.746
 20
-113.186
 11
-142.99
 21
-113.145
  0
LINE
  8
0
 10
-142.99
 20
-113.145
 11
-143.227
 21
-113.077
  0
LINE
  8
0
 10
-143.227
 20
-113.077
 11
-143.455
 21
-112.982
  0
LINE
  8
0
 10
-143.455
 20
-112.982
 11
-143.67
 21
-112.863
  0
LINE
  8
0
 10
-143.67
 20
-112.863
 11
-143.872
 21
-112.72
  0
LINE
  8
0
 10
-143.872
 20
-112.72
 11
-144.056
 21
-112.556
  0
LINE
  8
0
 10
-144.056
 20
-112.556
 11
-144.22
 21
-112.372
  0
LINE
  8
0
 10
-144.22
 20
-112.372
 11
-144.363
 21
-112.17
  0
LINE
  8
0
 10
-144.363
 20
-112.17
 11
-144.482
 21
-111.955
  0
LINE
  8
0
 10
-144.482
 20
-111.955
 11
-144.577
 21
-111.727
  0
LINE
  8
0
 10
-144.577
 20
-111.727
 11
-144.645
 21
-111.49
  0
LINE
  8
0
 10
-144.645
 20
-111.49
 11
-144.686
 21
-111.246
  0
LINE
  8
0
 10
-144.686
 20
-111.246
 11
-144.7
 21
-111
  0
LINE
  8
0
 10
-144.7
 20
-111
 11
-144.686
 21
-110.754
  0
LINE
  8
0
 10
-144.686
 20
-110.754
 11
-144.645
 21
-110.51
  0
LINE
  8
0
 10
-144.645
 20
-110.51
 11
-144.577
 21
-110.273
  0
LINE
  8
0
 10
-144.577
 20
-110.273
 11
-144.482
 21
-110.045
  0
LINE
  8
0
 10
-144.482
 20
-110.045
 11
-144.363
 21
-109.83
  0
LINE
  8
0
 10
-144.363
 20
-109.83
 11
-144.22
 21
-109.628
  0
LINE
  8
0
 10
-144.22
 20
-109.628
 11
-144.056
 21
-109.444
  0
LINE
  8
0
 10
-144.056
 20
-109.444
 11
-143.872
 21
-109.28
  0
LINE
  8
0
 10
-143.872
 20
-109.28
 11
-143.67
 21
-109.137
  0
LINE
  8
0
 10
-143.67
 20
-109.137
 11
-143.455
 21
-109.018
  0
LINE
  8
0
 10
-143.455
 20
-109.018
 11
-143.227
 21
-108.923
  0
LINE
  8
0
 10
-143.227
 20
-108.923
 11
-142.99
 21
-108.855
  0
LINE
  8
0
 10
-142.99
 20
-108.855
 11
-142.746
 21
-108.814
  0
LINE
  8
0
 10
-142.746
 20
-108.814
 11
-142.5
 21
-108.8
  0
LINE
  8
0
 10
-142.5
 20
-108.8
 11
-142.254
 21
-108.814
  0
LINE
  8
0
 10
-142.254
 20
-108.814
 11
-142.01
 21
-108.855
  0
LINE
  8
0
 10
-142.01
 20
-108.855
 11
-141.773
 21
-108.923
  0
LINE
  8
0
 10
-141.773
 20
-108.923
 11
-141.545
 21
-109.018
  0
LINE
  8
0
 10
-141.545
 20
-109.018
 11
-141.33
 21
-109.137
  0
LINE
  8
0
 10
-141.33
 20
-109.137
 11
-141.128
 21
-109.28
  0
LINE
  8
0
 10
-141.128
 20
-109.28
 11
-140.944
 21
-109.444
  0
LINE
  8
0
 10
-140.944
 20
-109.444
 11
-140.78
 21
-109.628
  0
LINE
  8
0
 10
-140.78
 20
-109.628
 11
-140.637
 21
-109.83
  0
LINE
  8
0
 10
-140.637
 20
-109.83
 11
-140.518
 21
-110.045
  0
LINE
  8
0
 10
-140.518
 20
-110.045
 11
-140.423
 21
-110.273
  0
LINE
  8
0
 10
-140.423
 20
-110.273
 11
-140.355
 21
-110.51
  0
LINE
  8
0
 10
-140.355
 20
-110.51
 11
-140.314
 21
-110.754
  0
LINE
  8
0
 10
-140.314
 20
-110.754
 11
-140.3
 21
-111
  0
LINE
  8
0
 10
-140.3
 20
-111
 11
-140.314
 21
-111.246
  0
LINE
  8
0
 10
-140.314
 20
-111.246
 11
-140.355
 21
-111.49
  0
LINE
  8
0
 10
-140.355
 20
-111.49
 11
-140.423
 21
-111.727
  0
LINE
  8
0
 10
-140.423
 20
-111.727
 11
-140.518
 21
-111.955
  0
LINE
  8
0
 10
-140.518
 20
-111.955
 11
-140.637
 21
-112.17
  0
LINE
  8
0
 10
-140.637
 20
-112.17
 11
-140.78
 21
-112.372
  0
LINE
  8
0
 10
-140.78
 20
-112.372
 11
-140.944
 21
-112.556
  0
LINE
  8
0
 10
-140.944
 20
-112.556
 11
-141.128
 21
-112.72
  0
LINE
  8
0
 10
-141.128
 20
-112.72
 11
-141.33
 21
-112.863
  0
LINE
  8
0
 10
-141.33
 20
-112.863
 11
-141.545
 21
-112.982
  0
LINE
  8
0
 10
-141.545
 20
-112.982
 11
-141.773
 21
-113.077
  0
LINE
  8
0
 10
-141.773
 20
-113.077
 11
-142.01
 21
-113.145
  0
LINE
  8
0
 10
-142.01
 20
-113.145
 11
-142.254
 21
-113.186
  0
LINE
  8
0
 10
-142.254
 20
-113.186
 11
-142.5
 21
-113.2
  0
LINE
  8
0
 10
-142.5
 20
-113.2
 11
-142.746
 21
-113.186
  0
LINE
  8
0
 10
-232.809
 20
-179.729
 11
-233.052
 21
-179.681
  0
LINE
  8
0
 10
-233.052
 20
-179.681
 11
-233.289
 21
-179.607
  0
LINE
  8
0
 10
-233.289
 20
-179.607
 11
-233.516
 21
-179.508
  0
LINE
  8
0
 10
-233.516
 20
-179.508
 11
-233.731
 21
-179.384
  0
LINE
  8
0
 10
-233.731
 20
-179.384
 11
-233.93
 21
-179.237
  0
LINE
  8
0
 10
-233.93
 20
-179.237
 11
-234.113
 21
-179.069
  0
LINE
  8
0
 10
-234.113
 20
-179.069
 11
-234.276
 21
-178.882
  0
LINE
  8
0
 10
-234.276
 20
-178.882
 11
-234.417
 21
-178.678
  0
LINE
  8
0
 10
-234.417
 20
-178.678
 11
-234.535
 21
-178.46
  0
LINE
  8
0
 10
-234.535
 20
-178.46
 11
-234.628
 21
-178.231
  0
LINE
  8
0
 10
-234.628
 20
-178.231
 11
-234.696
 21
-177.992
  0
LINE
  8
0
 10
-234.696
 20
-177.992
 11
-234.736
 21
-177.748
  0
LINE
  8
0
 10
-234.736
 20
-177.748
 11
-234.75
 21
-177.5
  0
LINE
  8
0
 10
-234.75
 20
-177.5
 11
-234.736
 21
-177.252
  0
LINE
  8
0
 10
-234.736
 20
-177.252
 11
-234.696
 21
-177.008
  0
LINE
  8
0
 10
-234.696
 20
-177.008
 11
-234.628
 21
-176.769
  0
LINE
  8
0
 10
-234.628
 20
-176.769
 11
-234.535
 21
-176.54
  0
LINE
  8
0
 10
-234.535
 20
-176.54
 11
-234.417
 21
-176.322
  0
LINE
  8
0
 10
-234.417
 20
-176.322
 11
-234.276
 21
-176.118
  0
LINE
  8
0
 10
-234.276
 20
-176.118
 11
-234.113
 21
-175.931
  0
LINE
  8
0
 10
-234.113
 20
-175.931
 11
-233.93
 21
-175.763
  0
LINE
  8
0
 10
-233.93
 20
-175.763
 11
-233.731
 21
-175.616
  0
LINE
  8
0
 10
-233.731
 20
-175.616
 11
-233.516
 21
-175.492
  0
LINE
  8
0
 10
-233.516
 20
-175.492
 11
-233.289
 21
-175.393
  0
LINE
  8
0
 10
-233.289
 20
-175.393
 11
-233.052
 21
-175.319
  0
LINE
  8
0
 10
-233.052
 20
-175.319
 11
-232.809
 21
-175.271
  0
LINE
  8
0
 10
-232.809
 20
-175.271
 11
-232.562
 21
-175.251
  0
LINE
  8
0
 10
-232.562
 20
-175.251
 11
-232.314
 21
-175.258
  0
LINE
  8
0
 10
-232.314
 20
-175.258
 11
-232.069
 21
-175.292
  0
LINE
  8
0
 10
-232.069
 20
-175.292
 11
-231.828
 21
-175.353
  0
LINE
  8
0
 10
-231.828
 20
-175.353
 11
-231.596
 21
-175.44
  0
LINE
  8
0
 10
-231.596
 20
-175.44
 11
-231.375
 21
-175.551
  0
LINE
  8
0
 10
-231.375
 20
-175.551
 11
-231.167
 21
-175.687
  0
LINE
  8
0
 10
-231.167
 20
-175.687
 11
-230.976
 21
-175.845
  0
LINE
  8
0
 10
-230.976
 20
-175.845
 11
-230.803
 21
-176.022
  0
LINE
  8
0
 10
-230.803
 20
-176.022
 11
-230.651
 21
-176.218
  0
LINE
  8
0
 10
-230.651
 20
-176.218
 11
-230.521
 21
-176.429
  0
LINE
  8
0
 10
-230.521
 20
-176.429
 11
-230.415
 21
-176.653
  0
LINE
  8
0
 10
-230.415
 20
-176.653
 11
-230.335
 21
-176.888
  0
LINE
  8
0
 10
-230.335
 20
-176.888
 11
-230.281
 21
-177.13
  0
LINE
  8
0
 10
-230.281
 20
-177.13
 11
-230.253
 21
-177.376
  0
LINE
  8
0
 10
-230.253
 20
-177.376
 11
-230.253
 21
-177.624
  0
LINE
  8
0
 10
-230.253
 20
-177.624
 11
-230.281
 21
-177.87
  0
LINE
  8
0
 10
-230.281
 20
-177.87
 11
-230.335
 21
-178.112
  0
LINE
  8
0
 10
-230.335
 20
-178.112
 11
-230.415
 21
-178.347
  0
LINE
  8
0
 10
-230.415
 20
-178.347
 11
-230.521
 21
-178.571
  0
LINE
  8
0
 10
-230.521
 20
-178.571
 11
-230.651
 21
-178.782
  0
LINE
  8
0
 10
-230.651
 20
-178.782
 11
-230.803
 21
-178.978
  0
LINE
  8
0
 10
-230.803
 20
-178.978
 11
-230.976
 21
-179.155
  0
LINE
  8
0
 10
-230.976
 20
-179.155
 11
-231.167
 21
-179.313
  0
LINE
  8
0
 10
-231.167
 20
-179.313
 11
-231.375
 21
-179.449
  0
LINE
  8
0
 10
-231.375
 20
-179.449
 11
-231.596
 21
-179.56
  0
LINE
  8
0
 10
-231.596
 20
-179.56
 11
-231.828
 21
-179.647
  0
LINE
  8
0
 10
-231.828
 20
-179.647
 11
-232.069
 21
-179.708
  0
LINE
  8
0
 10
-232.069
 20
-179.708
 11
-232.314
 21
-179.742
  0
LINE
  8
0
 10
-232.314
 20
-179.742
 11
-232.562
 21
-179.749
  0
LINE
  8
0
 10
-232.562
 20
-179.749
 11
-232.809
 21
-179.729
  0
LINE
  8
0
 10
232.314
 20
-179.742
 11
232.069
 21
-179.708
  0
LINE
  8
0
 10
232.069
 20
-179.708
 11
231.828
 21
-179.647
  0
LINE
  8
0
 10
231.828
 20
-179.647
 11
231.596
 21
-179.56
  0
LINE
  8
0
 10
231.596
 20
-179.56
 11
231.375
 21
-179.449
  0
LINE
  8
0
 10
231.375
 20
-179.449
 11
231.167
 21
-179.313
  0
LINE
  8
0
 10
231.167
 20
-179.313
 11
230.976
 21
-179.155
  0
LINE
  8
0
 10
230.976
 20
-179.155
 11
230.803
 21
-178.978
  0
LINE
  8
0
 10
230.803
 20
-178.978
 11
230.651
 21
-178.782
  0
LINE
  8
0
 10
230.651
 20
-178.782
 11
230.521
 21
-178.571
  0
LINE
  8
0
 10
230.521
 20
-178.571
 11
230.415
 21
-178.347
  0
LINE
  8
0
 10
230.415
 20
-178.347
 11
230.335
 21
-178.112
  0
LINE
  8
0
 10
230.335
 20
-178.112
 11
230.281
 21
-177.87
  0
LINE
  8
0
 10
230.281
 20
-177.87
 11
230.253
 21
-177.624
  0
LINE
  8
0
 10
230.253
 20
-177.624
 11
230.253
 21
-177.376
  0
LINE
  8
0
 10
230.253
 20
-177.376
 11
230.281
 21
-177.13
  0
LINE
  8
0
 10
230.281
 20
-177.13
 11
230.335
 21
-176.888
  0
LINE
  8
0
 10
230.335
 20
-176.888
 11
230.415
 21
-176.653
  0
LINE
  8
0
 10
230.415
 20
-176.653
 11
230.521
 21
-176.429
  0
LINE
  8
0
 10
230.521
 20
-176.429
 11
230.651
 21
-176.218
  0
LINE
  8
0
 10
230.651
 20
-176.218
 11
230.803
 21
-176.022
  0
LINE
  8
0
 10
230.803
 20
-176.022
 11
230.976
 21
-175.845
  0
LINE
  8
0
 10
230.976
 20
-175.845
 11
231.167
 21
-175.687
  0
LINE
  8
0
 10
231.167
 20
-175.687
 11
231.375
 21
-175.551
  0
LINE
  8
0
 10
231.375
 20
-175.551
 11
231.596
 21
-175.44
  0
LINE
  8
0
 10
231.596
 20
-175.44
 11
231.828
 21
-175.353
  0
LINE
  8
0
 10
231.828
 20
-175.353
 11
232.069
 21
-175.292
  0
LINE
  8
0
 10
232.069
 20
-175.292
 11
232.314
 21
-175.258
  0
LINE
  8
0
 10
232.314
 20
-175.258
 11
232.562
 21
-175.251
  0
LINE
  8
0
 10
232.562
 20
-175.251
 11
232.809
 21
-175.271
  0
LINE
  8
0
 10
232.809
 20
-175.271
 11
233.052
 21
-175.319
  0
LINE
  8
0
 10
233.052
 20
-175.319
 11
233.289
 21
-175.393
  0
LINE
  8
0
 10
233.289
 20
-175.393
 11
233.516
 21
-175.492
  0
LINE
  8
0
 10
233.516
 20
-175.492
 11
233.731
 21
-175.616
  0
LINE
  8
0
 10
233.731
 20
-175.616
 11
233.93
 21
-175.763
  0
LINE
  8
0
 10
233.93
 20
-175.763
 11
234.113
 21
-175.931
  0
LINE
  8
0
 10
234.113
 20
-175.931
 11
234.276
 21
-176.118
  0
LINE
  8
0
 10
234.276
 20
-176.118
 11
234.417
 21
-176.322
  0
LINE
  8
0
 10
234.417
 20
-176.322
 11
234.535
 21
-176.54
  0
LINE
  8
0
 10
234.535
 20
-176.54
 11
234.628
 21
-176.769
  0
LINE
  8
0
 10
234.628
 20
-176.769
 11
234.696
 21
-177.008
  0
LINE
  8
0
 10
234.696
 20
-177.008
 11
234.736
 21
-177.252
  0
LINE
  8
0
 10
234.736
 20
-177.252
 11
234.75
 21
-177.5
  0
LINE
  8
0
 10
234.75
 20
-177.5
 11
234.736
 21
-177.748
  0
LINE
  8
0
 10
234.736
 20
-177.748
 11
234.696
 21
-177.992
  0
LINE
  8
0
 10
234.696
 20
-177.992
 11
234.628
 21
-178.231
  0
LINE
  8
0
 10
234.628
 20
-178.231
 11
234.535
 21
-178.46
  0
LINE
  8
0
 10
234.535
 20
-178.46
 11
234.417
 21
-178.678
  0
LINE
  8
0
 10
234.417
 20
-178.678
 11
234.276
 21
-178.882
  0
LINE
  8
0
 10
234.276
 20
-178.882
 11
234.113
 21
-179.069
  0
LINE
  8
0
 10
234.113
 20
-179.069
 11
233.93
 21
-179.237
  0
LINE
  8
0
 10
233.93
 20
-179.237
 11
233.731
 21
-179.384
  0
LINE
  8
0
 10
233.731
 20
-179.384
 11
233.516
 21
-179.508
  0
LINE
  8
0
 10
233.516
 20
-179.508
 11
233.289
 21
-179.607
  0
LINE
  8
0
 10
233.289
 20
-179.607
 11
233.052
 21
-179.681
  0
LINE
  8
0
 10
233.052
 20
-179.681
 11
232.809
 21
-179.729
  0
LINE
  8
0
 10
232.809
 20
-179.729
 11
232.562
 21
-179.749
  0
LINE
  8
0
 10
232.562
 20
-179.749
 11
232.314
 21
-179.742
  0
LINE
  8
0
 10
185.376
 20
-181.995
 11
185.132
 21
-181.954
  0
LINE
  8
0
 10
185.132
 20
-181.954
 11
184.897
 21
-181.874
  0
LINE
  8
0
 10
184.897
 20
-181.874
 11
184.68
 21
-181.756
  0
LINE
  8
0
 10
184.68
 20
-181.756
 11
184.484
 21
-181.604
  0
LINE
  8
0
 10
184.484
 20
-181.604
 11
184.316
 21
-181.421
  0
LINE
  8
0
 10
184.316
 20
-181.421
 11
184.181
 21
-181.214
  0
LINE
  8
0
 10
184.181
 20
-181.214
 11
184.081
 21
-180.987
  0
LINE
  8
0
 10
184.081
 20
-180.987
 11
184.02
 21
-180.747
  0
LINE
  8
0
 10
184.02
 20
-180.747
 11
184
 21
-180.5
  0
LINE
  8
0
 10
184
 20
-180.5
 11
184.02
 21
-180.253
  0
LINE
  8
0
 10
184.02
 20
-180.253
 11
184.081
 21
-180.013
  0
LINE
  8
0
 10
184.081
 20
-180.013
 11
184.181
 21
-179.786
  0
LINE
  8
0
 10
184.181
 20
-179.786
 11
184.316
 21
-179.579
  0
LINE
  8
0
 10
184.316
 20
-179.579
 11
184.484
 21
-179.396
  0
LINE
  8
0
 10
184.484
 20
-179.396
 11
184.68
 21
-179.244
  0
LINE
  8
0
 10
184.68
 20
-179.244
 11
184.897
 21
-179.126
  0
LINE
  8
0
 10
184.897
 20
-179.126
 11
185.132
 21
-179.046
  0
LINE
  8
0
 10
185.132
 20
-179.046
 11
185.376
 21
-179.005
  0
LINE
  8
0
 10
185.376
 20
-179.005
 11
185.624
 21
-179.005
  0
LINE
  8
0
 10
185.624
 20
-179.005
 11
185.868
 21
-179.046
  0
LINE
  8
0
 10
185.868
 20
-179.046
 11
186.103
 21
-179.126
  0
LINE
  8
0
 10
186.103
 20
-179.126
 11
186.32
 21
-179.244
  0
LINE
  8
0
 10
186.32
 20
-179.244
 11
186.516
 21
-179.396
  0
LINE
  8
0
 10
186.516
 20
-179.396
 11
186.684
 21
-179.579
  0
LINE
  8
0
 10
186.684
 20
-179.579
 11
186.819
 21
-179.786
  0
LINE
  8
0
 10
186.819
 20
-179.786
 11
186.919
 21
-180.013
  0
LINE
  8
0
 10
186.919
 20
-180.013
 11
186.98
 21
-180.253
  0
LINE
  8
0
 10
186.98
 20
-180.253
 11
187
 21
-180.5
  0
LINE
  8
0
 10
187
 20
-180.5
 11
186.98
 21
-180.747
  0
LINE
  8
0
 10
186.98
 20
-180.747
 11
186.919
 21
-180.987
  0
LINE
  8
0
 10
186.919
 20
-180.987
 11
186.819
 21
-181.214
  0
LINE
  8
0
 10
186.819
 20
-181.214
 11
186.684
 21
-181.421
  0
LINE
  8
0
 10
186.684
 20
-181.421
 11
186.516
 21
-181.604
  0
LINE
  8
0
 10
186.516
 20
-181.604
 11
186.32
 21
-181.756
  0
LINE
  8
0
 10
186.32
 20
-181.756
 11
186.103
 21
-181.874
  0
LINE
  8
0
 10
186.103
 20
-181.874
 11
185.868
 21
-181.954
  0
LINE
  8
0
 10
185.868
 20
-181.954
 11
185.624
 21
-181.995
  0
LINE
  8
0
 10
185.624
 20
-181.995
 11
185.376
 21
-181.995
  0
LINE
  8
0
 10
-185.624
 20
-181.995
 11
-185.868
 21
-181.954
  0
LINE
  8
0
 10
-185.868
 20
-181.954
 11
-186.103
 21
-181.874
  0
LINE
  8
0
 10
-186.103
 20
-181.874
 11
-186.32
 21
-181.756
  0
LINE
  8
0
 10
-186.32
 20
-181.756
 11
-186.516
 21
-181.604
  0
LINE
  8
0
 10
-186.516
 20
-181.604
 11
-186.684
 21
-181.421
  0
LINE
  8
0
 10
-186.684
 20
-181.421
 11
-186.819
 21
-181.214
  0
LINE
  8
0
 10
-186.819
 20
-181.214
 11
-186.919
 21
-180.987
  0
LINE
  8
0
 10
-186.919
 20
-180.987
 11
-186.98
 21
-180.747
  0
LINE
  8
0
 10
-186.98
 20
-180.747
 11
-187
 21
-180.5
  0
LINE
  8
0
 10
-187
 20
-180.5
 11
-186.98
 21
-180.253
  0
LINE
  8
0
 10
-186.98
 20
-180.253
 11
-186.919
 21
-180.013
  0
LINE
  8
0
 10
-186.919
 20
-180.013
 11
-186.819
 21
-179.786
  0
LINE
  8
0
 10
-186.819
 20
-179.786
 11
-186.684
 21
-179.579
  0
LINE
  8
0
 10
-186.684
 20
-179.579
 11
-186.516
 21
-179.396
  0
LINE
  8
0
 10
-186.516
 20
-179.396
 11
-186.32
 21
-179.244
  0
LINE
  8
0
 10
-186.32
 20
-179.244
 11
-186.103
 21
-179.126
  0
LINE
  8
0
 10
-186.103
 20
-179.126
 11
-185.868
 21
-179.046
  0
LINE
  8
0
 10
-185.868
 20
-179.046
 11
-185.624
 21
-179.005
  0
LINE
  8
0
 10
-185.624
 20
-179.005
 11
-185.376
 21
-179.005
  0
LINE
  8
0
 10
-185.376
 20
-179.005
 11
-185.132
 21
-179.046
  0
LINE
  8
0
 10
-185.132
 20
-179.046
 11
-184.897
 21
-179.126
  0
LINE
  8
0
 10
-184.897
 20
-179.126
 11
-184.68
 21
-179.244
  0
LINE
  8
0
 10
-184.68
 20
-179.244
 11
-184.484
 21
-179.396
  0
LINE
  8
0
 10
-184.484
 20
-179.396
 11
-184.316
 21
-179.579
  0
LINE
  8
0
 10
-184.316
 20
-179.579
 11
-184.181
 21
-179.786
  0
LINE
  8
0
 10
-184.181
 20
-179.786
 11
-184.081
 21
-180.013
  0
LINE
  8
0
 10
-184.081
 20
-180.013
 11
-184.02
 21
-180.253
  0
LINE
  8
0
 10
-184.02
 20
-180.253
 11
-184
 21
-180.5
  0
LINE
  8
0
 10
-184
 20
-180.5
 11
-184.02
 21
-180.747
  0
LINE
  8
0
 10
-184.02
 20
-180.747
 11
-184.081
 21
-180.987
  0
LINE
  8
0
 10
-184.081
 20
-180.987
 11
-184.181
 21
-181.214
  0
LINE
  8
0
 10
-184.181
 20
-181.214
 11
-184.316
 21
-181.421
  0
LINE
  8
0
 10
-184.316
 20
-181.421
 11
-184.484
 21
-181.604
  0
LINE
  8
0
 10
-184.484
 20
-181.604
 11
-184.68
 21
-181.756
  0
LINE
  8
0
 10
-184.68
 20
-181.756
 11
-184.897
 21
-181.874
  0
LINE
  8
0
 10
-184.897
 20
-181.874
 11
-185.132
 21
-181.954
  0
LINE
  8
0
 10
-185.132
 20
-181.954
 11
-185.376
 21
-181.995
  0
LINE
  8
0
 10
-185.376
 20
-181.995
 11
-185.624
 21
-181.995
  0
LINE
  8
0
 10
-233.023
 20
-222.473
 11
-233.54
 21
-222.391
  0
LINE
  8
0
 10
-233.54
 20
-222.391
 11
-234.045
 21
-222.255
  0
LINE
  8
0
 10
-234.045
 20
-222.255
 11
-234.534
 21
-222.068
  0
LINE
  8
0
 10
-234.534
 20
-222.068
 11
-235
 21
-221.83
  0
LINE
  8
0
 10
-235
 20
-221.83
 11
-235.439
 21
-221.545
  0
LINE
  8
0
 10
-235.439
 20
-221.545
 11
-235.846
 21
-221.216
  0
LINE
  8
0
 10
-235.846
 20
-221.216
 11
-236.216
 21
-220.846
  0
LINE
  8
0
 10
-236.216
 20
-220.846
 11
-236.545
 21
-220.439
  0
LINE
  8
0
 10
-236.545
 20
-220.439
 11
-236.83
 21
-220
  0
LINE
  8
0
 10
-236.83
 20
-220
 11
-237.068
 21
-219.534
  0
LINE
  8
0
 10
-237.068
 20
-219.534
 11
-237.255
 21
-219.045
  0
LINE
  8
0
 10
-237.255
 20
-219.045
 11
-237.391
 21
-218.54
  0
LINE
  8
0
 10
-237.391
 20
-218.54
 11
-237.473
 21
-218.023
  0
LINE
  8
0
 10
-237.473
 20
-218.023
 11
-237.5
 21
-217.5
  0
LINE
  8
0
 10
-237.5
 20
-217.5
 11
-237.473
 21
-216.977
  0
LINE
  8
0
 10
-237.473
 20
-216.977
 11
-237.391
 21
-216.46
  0
LINE
  8
0
 10
-237.391
 20
-216.46
 11
-237.255
 21
-215.955
  0
LINE
  8
0
 10
-237.255
 20
-215.955
 11
-237.068
 21
-215.466
  0
LINE
  8
0
 10
-237.068
 20
-215.466
 11
-236.83
 21
-215
  0
LINE
  8
0
 10
-236.83
 20
-215
 11
-236.545
 21
-214.561
  0
LINE
  8
0
 10
-236.545
 20
-214.561
 11
-236.216
 21
-214.154
  0
LINE
  8
0
 10
-236.216
 20
-214.154
 11
-235.846
 21
-213.784
  0
LINE
  8
0
 10
-235.846
 20
-213.784
 11
-235.439
 21
-213.455
  0
LINE
  8
0
 10
-235.439
 20
-213.455
 11
-235
 21
-213.17
  0
LINE
  8
0
 10
-235
 20
-213.17
 11
-234.534
 21
-212.932
  0
LINE
  8
0
 10
-234.534
 20
-212.932
 11
-234.045
 21
-212.745
  0
LINE
  8
0
 10
-234.045
 20
-212.745
 11
-233.54
 21
-212.609
  0
LINE
  8
0
 10
-233.54
 20
-212.609
 11
-233.023
 21
-212.527
  0
LINE
  8
0
 10
-233.023
 20
-212.527
 11
-232.5
 21
-212.5
  0
LINE
  8
0
 10
-232.5
 20
-212.5
 11
-231.977
 21
-212.527
  0
LINE
  8
0
 10
-231.977
 20
-212.527
 11
-231.46
 21
-212.609
  0
LINE
  8
0
 10
-231.46
 20
-212.609
 11
-230.955
 21
-212.745
  0
LINE
  8
0
 10
-230.955
 20
-212.745
 11
-230.466
 21
-212.932
  0
LINE
  8
0
 10
-230.466
 20
-212.932
 11
-230
 21
-213.17
  0
LINE
  8
0
 10
-230
 20
-213.17
 11
-229.561
 21
-213.455
  0
LINE
  8
0
 10
-229.561
 20
-213.455
 11
-229.154
 21
-213.784
  0
LINE
  8
0
 10
-229.154
 20
-213.784
 11
-228.784
 21
-214.154
  0
LINE
  8
0
 10
-228.784
 20
-214.154
 11
-228.455
 21
-214.561
  0
LINE
  8
0
 10
-228.455
 20
-214.561
 11
-228.17
 21
-215
  0
LINE
  8
0
 10
-228.17
 20
-215
 11
-227.932
 21
-215.466
  0
LINE
  8
0
 10
-227.932
 20
-215.466
 11
-227.745
 21
-215.955
  0
LINE
  8
0
 10
-227.745
 20
-215.955
 11
-227.609
 21
-216.46
  0
LINE
  8
0
 10
-227.609
 20
-216.46
 11
-227.527
 21
-216.977
  0
LINE
  8
0
 10
-227.527
 20
-216.977
 11
-227.5
 21
-217.5
  0
LINE
  8
0
 10
-227.5
 20
-217.5
 11
-227.527
 21
-218.023
  0
LINE
  8
0
 10
-227.527
 20
-218.023
 11
-227.609
 21
-218.54
  0
LINE
  8
0
 10
-227.609
 20
-218.54
 11
-227.745
 21
-219.045
  0
LINE
  8
0
 10
-227.745
 20
-219.045
 11
-227.932
 21
-219.534
  0
LINE
  8
0
 10
-227.932
 20
-219.534
 11
-228.17
 21
-220
  0
LINE
  8
0
 10
-228.17
 20
-220
 11
-228.455
 21
-220.439
  0
LINE
  8
0
 10
-228.455
 20
-220.439
 11
-228.784
 21
-220.846
  0
LINE
  8
0
 10
-228.784
 20
-220.846
 11
-229.154
 21
-221.216
  0
LINE
  8
0
 10
-229.154
 20
-221.216
 11
-229.561
 21
-221.545
  0
LINE
  8
0
 10
-229.561
 20
-221.545
 11
-230
 21
-221.83
  0
LINE
  8
0
 10
-230
 20
-221.83
 11
-230.466
 21
-222.068
  0
LINE
  8
0
 10
-230.466
 20
-222.068
 11
-230.955
 21
-222.255
  0
LINE
  8
0
 10
-230.955
 20
-222.255
 11
-231.46
 21
-222.391
  0
LINE
  8
0
 10
-231.46
 20
-222.391
 11
-231.977
 21
-222.473
  0
LINE
  8
0
 10
-231.977
 20
-222.473
 11
-232.5
 21
-222.5
  0
LINE
  8
0
 10
-232.5
 20
-222.5
 11
-233.023
 21
-222.473
  0
LINE
  8
0
 10
231.977
 20
-222.473
 11
231.46
 21
-222.391
  0
LINE
  8
0
 10
231.46
 20
-222.391
 11
230.955
 21
-222.255
  0
LINE
  8
0
 10
230.955
 20
-222.255
 11
230.466
 21
-222.068
  0
LINE
  8
0
 10
230.466
 20
-222.068
 11
230
 21
-221.83
  0
LINE
  8
0
 10
230
 20
-221.83
 11
229.561
 21
-221.545
  0
LINE
  8
0
 10
229.561
 20
-221.545
 11
229.154
 21
-221.216
  0
LINE
  8
0
 10
229.154
 20
-221.216
 11
228.784
 21
-220.846
  0
LINE
  8
0
 10
228.784
 20
-220.846
 11
228.455
 21
-220.439
  0
LINE
  8
0
 10
228.455
 20
-220.439
 11
228.17
 21
-220
  0
LINE
  8
0
 10
228.17
 20
-220
 11
227.932
 21
-219.534
  0
LINE
  8
0
 10
227.932
 20
-219.534
 11
227.745
 21
-219.045
  0
LINE
  8
0
 10
227.745
 20
-219.045
 11
227.609
 21
-218.54
  0
LINE
  8
0
 10
227.609
 20
-218.54
 11
227.527
 21
-218.023
  0
LINE
  8
0
 10
227.527
 20
-218.023
 11
227.5
 21
-217.5
  0
LINE
  8
0
 10
227.5
 20
-217.5
 11
227.527
 21
-216.977
  0
LINE
  8
0
 10
227.527
 20
-216.977
 11
227.609
 21
-216.46
  0
LINE
  8
0
 10
227.609
 20
-216.46
 11
227.745
 21
-215.955
  0
LINE
  8
0
 10
227.745
 20
-215.955
 11
227.932
 21
-215.466
  0
LINE
  8
0
 10
227.932
 20
-215.466
 11
228.17
 21
-215
  0
LINE
  8
0
 10
228.17
 20
-215
 11
228.455
 21
-214.561
  0
LINE
  8
0
 10
228.455
 20
-214.561
 11
228.784
 21
-214.154
  0
LINE
  8
0
 10
228.784
 20
-214.154
 11
229.154
 21
-213.784
  0
LINE
  8
0
 10
229.154
 20
-213.784
 11
229.561
 21
-213.455
  0
LINE
  8
0
 10
229.561
 20
-213.455
 11
230
 21
-213.17
  0
LINE
  8
0
 10
230
 20
-213.17
 11
230.466
 21
-212.932
  0
LINE
  8
0
 10
230.466
 20
-212.932
 11
230.955
 21
-212.745
  0
LINE
  8
0
 10
230.955
 20
-212.745
 11
231.46
 21
-212.609
  0
LINE
  8
0
 10
231.46
 20
-212.609
 11
231.977
 21
-212.527
  0
LINE
  8
0
 10
231.977
 20
-212.527
 11
232.5
 21
-212.5
  0
LINE
  8
0
 10
232.5
 20
-212.5
 11
233.023
 21
-212.527
  0
LINE
  8
0
 10
233.023
 20
-212.527
 11
233.54
 21
-212.609
  0
LINE
  8
0
 10
233.54
 20
-212.609
 11
234.045
 21
-212.745
  0
LINE
  8
0
 10
234.045
 20
-212.745
 11
234.534
 21
-212.932
  0
LINE
  8
0
 10
234.534
 20
-212.932
 11
235
 21
-213.17
  0
LINE
  8
0
 10
235
 20
-213.17
 11
235.439
 21
-213.455
  0
LINE
  8
0
 10
235.439
 20
-213.455
 11
235.846
 21
-213.784
  0
LINE
  8
0
 10
235.846
 20
-213.784
 11
236.216
 21
-214.154
  0
LINE
  8
0
 10
236.216
 20
-214.154
 11
236.545
 21
-214.561
  0
LINE
  8
0
 10
236.545
 20
-214.561
 11
236.83
 21
-215
  0
LINE
  8
0
 10
236.83
 20
-215
 11
237.068
 21
-215.466
  0
LINE
  8
0
 10
237.068
 20
-215.466
 11
237.255
 21
-215.955
  0
LINE
  8
0
 10
237.255
 20
-215.955
 11
237.391
 21
-216.46
  0
LINE
  8
0
 10
237.391
 20
-216.46
 11
237.473
 21
-216.977
  0
LINE
  8
0
 10
237.473
 20
-216.977
 11
237.5
 21
-217.5
  0
LINE
  8
0
 10
237.5
 20
-217.5
 11
237.473
 21
-218.023
  0
LINE
  8
0
 10
237.473
 20
-218.023
 11
237.391
 21
-218.54
  0
LINE
  8
0
 10
237.391
 20
-218.54
 11
237.255
 21
-219.045
  0
LINE
  8
0
 10
237.255
 20
-219.045
 11
237.068
 21
-219.534
  0
LINE
  8
0
 10
237.068
 20
-219.534
 11
236.83
 21
-220
  0
LINE
  8
0
 10
236.83
 20
-220
 11
236.545
 21
-220.439
  0
LINE
  8
0
 10
236.545
 20
-220.439
 11
236.216
 21
-220.846
  0
LINE
  8
0
 10
236.216
 20
-220.846
 11
235.846
 21
-221.216
  0
LINE
  8
0
 10
235.846
 20
-221.216
 11
235.439
 21
-221.545
  0
LINE
  8
0
 10
235.439
 20
-221.545
 11
235
 21
-221.83
  0
LINE
  8
0
 10
235
 20
-221.83
 11
234.534
 21
-222.068
  0
LINE
  8
0
 10
234.534
 20
-222.068
 11
234.045
 21
-222.255
  0
LINE
  8
0
 10
234.045
 20
-222.255
 11
233.54
 21
-222.391
  0
LINE
  8
0
 10
233.54
 20
-222.391
 11
233.023
 21
-222.473
  0
LINE
  8
0
 10
233.023
 20
-222.473
 11
232.5
 21
-222.5
  0
LINE
  8
0
 10
232.5
 20
-222.5
 11
231.977
 21
-222.473
  0
LINE
  8
0
 10
-192.686
 20
-219.742
 11
-192.931
 21
-219.708
  0
LINE
  8
0
 10
-192.931
 20
-219.708
 11
-193.172
 21
-219.647
  0
LINE
  8
0
 10
-193.172
 20
-219.647
 11
-193.404
 21
-219.56
  0
LINE
  8
0
 10
-193.404
 20
-219.56
 11
-193.625
 21
-219.449
  0
LINE
  8
0
 10
-193.625
 20
-219.449
 11
-193.833
 21
-219.313
  0
LINE
  8
0
 10
-193.833
 20
-219.313
 11
-194.024
 21
-219.155
  0
LINE
  8
0
 10
-194.024
 20
-219.155
 11
-194.197
 21
-218.978
  0
LINE
  8
0
 10
-194.197
 20
-218.978
 11
-194.349
 21
-218.782
  0
LINE
  8
0
 10
-194.349
 20
-218.782
 11
-194.479
 21
-218.571
  0
LINE
  8
0
 10
-194.479
 20
-218.571
 11
-194.585
 21
-218.347
  0
LINE
  8
0
 10
-194.585
 20
-218.347
 11
-194.665
 21
-218.112
  0
LINE
  8
0
 10
-194.665
 20
-218.112
 11
-194.719
 21
-217.87
  0
LINE
  8
0
 10
-194.719
 20
-217.87
 11
-194.747
 21
-217.624
  0
LINE
  8
0
 10
-194.747
 20
-217.624
 11
-194.747
 21
-217.376
  0
LINE
  8
0
 10
-194.747
 20
-217.376
 11
-194.719
 21
-217.13
  0
LINE
  8
0
 10
-194.719
 20
-217.13
 11
-194.665
 21
-216.888
  0
LINE
  8
0
 10
-194.665
 20
-216.888
 11
-194.585
 21
-216.653
  0
LINE
  8
0
 10
-194.585
 20
-216.653
 11
-194.479
 21
-216.429
  0
LINE
  8
0
 10
-194.479
 20
-216.429
 11
-194.349
 21
-216.218
  0
LINE
  8
0
 10
-194.349
 20
-216.218
 11
-194.197
 21
-216.022
  0
LINE
  8
0
 10
-194.197
 20
-216.022
 11
-194.024
 21
-215.845
  0
LINE
  8
0
 10
-194.024
 20
-215.845
 11
-193.833
 21
-215.687
  0
LINE
  8
0
 10
-193.833
 20
-215.687
 11
-193.625
 21
-215.551
  0
LINE
  8
0
 10
-193.625
 20
-215.551
 11
-193.404
 21
-215.44
  0
LINE
  8
0
 10
-193.404
 20
-215.44
 11
-193.172
 21
-215.353
  0
LINE
  8
0
 10
-193.172
 20
-215.353
 11
-192.931
 21
-215.292
  0
LINE
  8
0
 10
-192.931
 20
-215.292
 11
-192.686
 21
-215.258
  0
LINE
  8
0
 10
-192.686
 20
-215.258
 11
-192.438
 21
-215.251
  0
LINE
  8
0
 10
-192.438
 20
-215.251
 11
-192.191
 21
-215.271
  0
LINE
  8
0
 10
-192.191
 20
-215.271
 11
-191.948
 21
-215.319
  0
LINE
  8
0
 10
-191.948
 20
-215.319
 11
-191.711
 21
-215.393
  0
LINE
  8
0
 10
-191.711
 20
-215.393
 11
-191.484
 21
-215.492
  0
LINE
  8
0
 10
-191.484
 20
-215.492
 11
-191.269
 21
-215.616
  0
LINE
  8
0
 10
-191.269
 20
-215.616
 11
-191.07
 21
-215.763
  0
LINE
  8
0
 10
-191.07
 20
-215.763
 11
-190.887
 21
-215.931
  0
LINE
  8
0
 10
-190.887
 20
-215.931
 11
-190.724
 21
-216.118
  0
LINE
  8
0
 10
-190.724
 20
-216.118
 11
-190.583
 21
-216.322
  0
LINE
  8
0
 10
-190.583
 20
-216.322
 11
-190.465
 21
-216.54
  0
LINE
  8
0
 10
-190.465
 20
-216.54
 11
-190.372
 21
-216.769
  0
LINE
  8
0
 10
-190.372
 20
-216.769
 11
-190.304
 21
-217.008
  0
LINE
  8
0
 10
-190.304
 20
-217.008
 11
-190.264
 21
-217.252
  0
LINE
  8
0
 10
-190.264
 20
-217.252
 11
-190.25
 21
-217.5
  0
LINE
  8
0
 10
-190.25
 20
-217.5
 11
-190.264
 21
-217.748
  0
LINE
  8
0
 10
-190.264
 20
-217.748
 11
-190.304
 21
-217.992
  0
LINE
  8
0
 10
-190.304
 20
-217.992
 11
-190.372
 21
-218.231
  0
LINE
  8
0
 10
-190.372
 20
-218.231
 11
-190.465
 21
-218.46
  0
LINE
  8
0
 10
-190.465
 20
-218.46
 11
-190.583
 21
-218.678
  0
LINE
  8
0
 10
-190.583
 20
-218.678
 11
-190.724
 21
-218.882
  0
LINE
  8
0
 10
-190.724
 20
-218.882
 11
-190.887
 21
-219.069
  0
LINE
  8
0
 10
-190.887
 20
-219.069
 11
-191.07
 21
-219.237
  0
LINE
  8
0
 10
-191.07
 20
-219.237
 11
-191.269
 21
-219.384
  0
LINE
  8
0
 10
-191.269
 20
-219.384
 11
-191.484
 21
-219.508
  0
LINE
  8
0
 10
-191.484
 20
-219.508
 11
-191.711
 21
-219.607
  0
LINE
  8
0
 10
-191.711
 20
-219.607
 11
-191.948
 21
-219.681
  0
LINE
  8
0
 10
-191.948
 20
-219.681
 11
-192.191
 21
-219.729
  0
LINE
  8
0
 10
-192.191
 20
-219.729
 11
-192.438
 21
-219.749
  0
LINE
  8
0
 10
-192.438
 20
-219.749
 11
-192.686
 21
-219.742
  0
LINE
  8
0
 10
-96.4358
 20
-219.742
 11
-96.6814
 21
-219.708
  0
LINE
  8
0
 10
-96.6814
 20
-219.708
 11
-96.9217
 21
-219.647
  0
LINE
  8
0
 10
-96.9217
 20
-219.647
 11
-97.1538
 21
-219.56
  0
LINE
  8
0
 10
-97.1538
 20
-219.56
 11
-97.375
 21
-219.449
  0
LINE
  8
0
 10
-97.375
 20
-219.449
 11
-97.5825
 21
-219.313
  0
LINE
  8
0
 10
-97.5825
 20
-219.313
 11
-97.7739
 21
-219.155
  0
LINE
  8
0
 10
-97.7739
 20
-219.155
 11
-97.9467
 21
-218.978
  0
LINE
  8
0
 10
-97.9467
 20
-218.978
 11
-98.099
 21
-218.782
  0
LINE
  8
0
 10
-98.099
 20
-218.782
 11
-98.2288
 21
-218.571
  0
LINE
  8
0
 10
-98.2288
 20
-218.571
 11
-98.3346
 21
-218.347
  0
LINE
  8
0
 10
-98.3346
 20
-218.347
 11
-98.4151
 21
-218.112
  0
LINE
  8
0
 10
-98.4151
 20
-218.112
 11
-98.4693
 21
-217.87
  0
LINE
  8
0
 10
-98.4693
 20
-217.87
 11
-98.4966
 21
-217.624
  0
LINE
  8
0
 10
-98.4966
 20
-217.624
 11
-98.4966
 21
-217.376
  0
LINE
  8
0
 10
-98.4966
 20
-217.376
 11
-98.4693
 21
-217.13
  0
LINE
  8
0
 10
-98.4693
 20
-217.13
 11
-98.4151
 21
-216.888
  0
LINE
  8
0
 10
-98.4151
 20
-216.888
 11
-98.3346
 21
-216.653
  0
LINE
  8
0
 10
-98.3346
 20
-216.653
 11
-98.2288
 21
-216.429
  0
LINE
  8
0
 10
-98.2288
 20
-216.429
 11
-98.099
 21
-216.218
  0
LINE
  8
0
 10
-98.099
 20
-216.218
 11
-97.9467
 21
-216.022
  0
LINE
  8
0
 10
-97.9467
 20
-216.022
 11
-97.7739
 21
-215.845
  0
LINE
  8
0
 10
-97.7739
 20
-215.845
 11
-97.5825
 21
-215.687
  0
LINE
  8
0
 10
-97.5825
 20
-215.687
 11
-97.375
 21
-215.551
  0
LINE
  8
0
 10
-97.375
 20
-215.551
 11
-97.1538
 21
-215.44
  0
LINE
  8
0
 10
-97.1538
 20
-215.44
 11
-96.9217
 21
-215.353
  0
LINE
  8
0
 10
-96.9217
 20
-215.353
 11
-96.6814
 21
-215.292
  0
LINE
  8
0
 10
-96.6814
 20
-215.292
 11
-96.4358
 21
-215.258
  0
LINE
  8
0
 10
-96.4358
 20
-215.258
 11
-96.188
 21
-215.251
  0
LINE
  8
0
 10
-96.188
 20
-215.251
 11
-95.9409
 21
-215.271
  0
LINE
  8
0
 10
-95.9409
 20
-215.271
 11
-95.6976
 21
-215.319
  0
LINE
  8
0
 10
-95.6976
 20
-215.319
 11
-95.4611
 21
-215.393
  0
LINE
  8
0
 10
-95.4611
 20
-215.393
 11
-95.234
 21
-215.492
  0
LINE
  8
0
 10
-95.234
 20
-215.492
 11
-95.0194
 21
-215.616
  0
LINE
  8
0
 10
-95.0194
 20
-215.616
 11
-94.8196
 21
-215.763
  0
LINE
  8
0
 10
-94.8196
 20
-215.763
 11
-94.6372
 21
-215.931
  0
LINE
  8
0
 10
-94.6372
 20
-215.931
 11
-94.4744
 21
-216.118
  0
LINE
  8
0
 10
-94.4744
 20
-216.118
 11
-94.3332
 21
-216.322
  0
LINE
  8
0
 10
-94.3332
 20
-216.322
 11
-94.2152
 21
-216.54
  0
LINE
  8
0
 10
-94.2152
 20
-216.54
 11
-94.1219
 21
-216.769
  0
LINE
  8
0
 10
-94.1219
 20
-216.769
 11
-94.0545
 21
-217.008
  0
LINE
  8
0
 10
-94.0545
 20
-217.008
 11
-94.0137
 21
-217.252
  0
LINE
  8
0
 10
-94.0137
 20
-217.252
 11
-94
 21
-217.5
  0
LINE
  8
0
 10
-94
 20
-217.5
 11
-94.0137
 21
-217.748
  0
LINE
  8
0
 10
-94.0137
 20
-217.748
 11
-94.0545
 21
-217.992
  0
LINE
  8
0
 10
-94.0545
 20
-217.992
 11
-94.1219
 21
-218.231
  0
LINE
  8
0
 10
-94.1219
 20
-218.231
 11
-94.2152
 21
-218.46
  0
LINE
  8
0
 10
-94.2152
 20
-218.46
 11
-94.3332
 21
-218.678
  0
LINE
  8
0
 10
-94.3332
 20
-218.678
 11
-94.4744
 21
-218.882
  0
LINE
  8
0
 10
-94.4744
 20
-218.882
 11
-94.6372
 21
-219.069
  0
LINE
  8
0
 10
-94.6372
 20
-219.069
 11
-94.8196
 21
-219.237
  0
LINE
  8
0
 10
-94.8196
 20
-219.237
 11
-95.0194
 21
-219.384
  0
LINE
  8
0
 10
-95.0194
 20
-219.384
 11
-95.234
 21
-219.508
  0
LINE
  8
0
 10
-95.234
 20
-219.508
 11
-95.4611
 21
-219.607
  0
LINE
  8
0
 10
-95.4611
 20
-219.607
 11
-95.6976
 21
-219.681
  0
LINE
  8
0
 10
-95.6976
 20
-219.681
 11
-95.9409
 21
-219.729
  0
LINE
  8
0
 10
-95.9409
 20
-219.729
 11
-96.188
 21
-219.749
  0
LINE
  8
0
 10
-96.188
 20
-219.749
 11
-96.4358
 21
-219.742
  0
LINE
  8
0
 10
96.0642
 20
-219.742
 11
95.8186
 21
-219.708
  0
LINE
  8
0
 10
95.8186
 20
-219.708
 11
95.5783
 21
-219.647
  0
LINE
  8
0
 10
95.5783
 20
-219.647
 11
95.3462
 21
-219.56
  0
LINE
  8
0
 10
95.3462
 20
-219.56
 11
95.125
 21
-219.449
  0
LINE
  8
0
 10
95.125
 20
-219.449
 11
94.9175
 21
-219.313
  0
LINE
  8
0
 10
94.9175
 20
-219.313
 11
94.7261
 21
-219.155
  0
LINE
  8
0
 10
94.7261
 20
-219.155
 11
94.5533
 21
-218.978
  0
LINE
  8
0
 10
94.5533
 20
-218.978
 11
94.401
 21
-218.782
  0
LINE
  8
0
 10
94.401
 20
-218.782
 11
94.2712
 21
-218.571
  0
LINE
  8
0
 10
94.2712
 20
-218.571
 11
94.1654
 21
-218.347
  0
LINE
  8
0
 10
94.1654
 20
-218.347
 11
94.0849
 21
-218.112
  0
LINE
  8
0
 10
94.0849
 20
-218.112
 11
94.0307
 21
-217.87
  0
LINE
  8
0
 10
94.0307
 20
-217.87
 11
94.0034
 21
-217.624
  0
LINE
  8
0
 10
94.0034
 20
-217.624
 11
94.0034
 21
-217.376
  0
LINE
  8
0
 10
94.0034
 20
-217.376
 11
94.0307
 21
-217.13
  0
LINE
  8
0
 10
94.0307
 20
-217.13
 11
94.0849
 21
-216.888
  0
LINE
  8
0
 10
94.0849
 20
-216.888
 11
94.1654
 21
-216.653
  0
LINE
  8
0
 10
94.1654
 20
-216.653
 11
94.2712
 21
-216.429
  0
LINE
  8
0
 10
94.2712
 20
-216.429
 11
94.401
 21
-216.218
  0
LINE
  8
0
 10
94.401
 20
-216.218
 11
94.5533
 21
-216.022
  0
LINE
  8
0
 10
94.5533
 20
-216.022
 11
94.7261
 21
-215.845
  0
LINE
  8
0
 10
94.7261
 20
-215.845
 11
94.9175
 21
-215.687
  0
LINE
  8
0
 10
94.9175
 20
-215.687
 11
95.125
 21
-215.551
  0
LINE
  8
0
 10
95.125
 20
-215.551
 11
95.3462
 21
-215.44
  0
LINE
  8
0
 10
95.3462
 20
-215.44
 11
95.5783
 21
-215.353
  0
LINE
  8
0
 10
95.5783
 20
-215.353
 11
95.8186
 21
-215.292
  0
LINE
  8
0
 10
95.8186
 20
-215.292
 11
96.0642
 21
-215.258
  0
LINE
  8
0
 10
96.0642
 20
-215.258
 11
96.312
 21
-215.251
  0
LINE
  8
0
 10
96.312
 20
-215.251
 11
96.559
 21
-215.271
  0
LINE
  8
0
 10
96.559
 20
-215.271
 11
96.8023
 21
-215.319
  0
LINE
  8
0
 10
96.8023
 20
-215.319
 11
97.0389
 21
-215.393
  0
LINE
  8
0
 10
97.0389
 20
-215.393
 11
97.2659
 21
-215.492
  0
LINE
  8
0
 10
97.2659
 20
-215.492
 11
97.4806
 21
-215.616
  0
LINE
  8
0
 10
97.4806
 20
-215.616
 11
97.6804
 21
-215.763
  0
LINE
  8
0
 10
97.6804
 20
-215.763
 11
97.8628
 21
-215.931
  0
LINE
  8
0
 10
97.8628
 20
-215.931
 11
98.0256
 21
-216.118
  0
LINE
  8
0
 10
98.0256
 20
-216.118
 11
98.1668
 21
-216.322
  0
LINE
  8
0
 10
98.1668
 20
-216.322
 11
98.2848
 21
-216.54
  0
LINE
  8
0
 10
98.2848
 20
-216.54
 11
98.3781
 21
-216.769
  0
LINE
  8
0
 10
98.3781
 20
-216.769
 11
98.4455
 21
-217.008
  0
LINE
  8
0
 10
98.4455
 20
-217.008
 11
98.4863
 21
-217.252
  0
LINE
  8
0
 10
98.4863
 20
-217.252
 11
98.5
 21
-217.5
  0
LINE
  8
0
 10
98.5
 20
-217.5
 11
98.4863
 21
-217.748
  0
LINE
  8
0
 10
98.4863
 20
-217.748
 11
98.4455
 21
-217.992
  0
LINE
  8
0
 10
98.4455
 20
-217.992
 11
98.3781
 21
-218.231
  0
LINE
  8
0
 10
98.3781
 20
-218.231
 11
98.2848
 21
-218.46
  0
LINE
  8
0
 10
98.2848
 20
-218.46
 11
98.1668
 21
-218.678
  0
LINE
  8
0
 10
98.1668
 20
-218.678
 11
98.0256
 21
-218.882
  0
LINE
  8
0
 10
98.0256
 20
-218.882
 11
97.8628
 21
-219.069
  0
LINE
  8
0
 10
97.8628
 20
-219.069
 11
97.6804
 21
-219.237
  0
LINE
  8
0
 10
97.6804
 20
-219.237
 11
97.4806
 21
-219.384
  0
LINE
  8
0
 10
97.4806
 20
-219.384
 11
97.2659
 21
-219.508
  0
LINE
  8
0
 10
97.2659
 20
-219.508
 11
97.0389
 21
-219.607
  0
LINE
  8
0
 10
97.0389
 20
-219.607
 11
96.8023
 21
-219.681
  0
LINE
  8
0
 10
96.8023
 20
-219.681
 11
96.559
 21
-219.729
  0
LINE
  8
0
 10
96.559
 20
-219.729
 11
96.312
 21
-219.749
  0
LINE
  8
0
 10
96.312
 20
-219.749
 11
96.0642
 21
-219.742
  0
LINE
  8
0
 10
192.314
 20
-219.742
 11
192.069
 21
-219.708
  0
LINE
  8
0
 10
192.069
 20
-219.708
 11
191.828
 21
-219.647
  0
LINE
  8
0
 10
191.828
 20
-219.647
 11
191.596
 21
-219.56
  0
LINE
  8
0
 10
191.596
 20
-219.56
 11
191.375
 21
-219.449
  0
LINE
  8
0
 10
191.375
 20
-219.449
 11
191.167
 21
-219.313
  0
LINE
  8
0
 10
191.167
 20
-219.313
 11
190.976
 21
-219.155
  0
LINE
  8
0
 10
190.976
 20
-219.155
 11
190.803
 21
-218.978
  0
LINE
  8
0
 10
190.803
 20
-218.978
 11
190.651
 21
-218.782
  0
LINE
  8
0
 10
190.651
 20
-218.782
 11
190.521
 21
-218.571
  0
LINE
  8
0
 10
190.521
 20
-218.571
 11
190.415
 21
-218.347
  0
LINE
  8
0
 10
190.415
 20
-218.347
 11
190.335
 21
-218.112
  0
LINE
  8
0
 10
190.335
 20
-218.112
 11
190.281
 21
-217.87
  0
LINE
  8
0
 10
190.281
 20
-217.87
 11
190.253
 21
-217.624
  0
LINE
  8
0
 10
190.253
 20
-217.624
 11
190.253
 21
-217.376
  0
LINE
  8
0
 10
190.253
 20
-217.376
 11
190.281
 21
-217.13
  0
LINE
  8
0
 10
190.281
 20
-217.13
 11
190.335
 21
-216.888
  0
LINE
  8
0
 10
190.335
 20
-216.888
 11
190.415
 21
-216.653
  0
LINE
  8
0
 10
190.415
 20
-216.653
 11
190.521
 21
-216.429
  0
LINE
  8
0
 10
190.521
 20
-216.429
 11
190.651
 21
-216.218
  0
LINE
  8
0
 10
190.651
 20
-216.218
 11
190.803
 21
-216.022
  0
LINE
  8
0
 10
190.803
 20
-216.022
 11
190.976
 21
-215.845
  0
LINE
  8
0
 10
190.976
 20
-215.845
 11
191.167
 21
-215.687
  0
LINE
  8
0
 10
191.167
 20
-215.687
 11
191.375
 21
-215.551
  0
LINE
  8
0
 10
191.375
 20
-215.551
 11
191.596
 21
-215.44
  0
LINE
  8
0
 10
191.596
 20
-215.44
 11
191.828
 21
-215.353
  0
LINE
  8
0
 10
191.828
 20
-215.353
 11
192.069
 21
-215.292
  0
LINE
  8
0
 10
192.069
 20
-215.292
 11
192.314
 21
-215.258
  0
LINE
  8
0
 10
192.314
 20
-215.258
 11
192.562
 21
-215.251
  0
LINE
  8
0
 10
192.562
 20
-215.251
 11
192.809
 21
-215.271
  0
LINE
  8
0
 10
192.809
 20
-215.271
 11
193.052
 21
-215.319
  0
LINE
  8
0
 10
193.052
 20
-215.319
 11
193.289
 21
-215.393
  0
LINE
  8
0
 10
193.289
 20
-215.393
 11
193.516
 21
-215.492
  0
LINE
  8
0
 10
193.516
 20
-215.492
 11
193.731
 21
-215.616
  0
LINE
  8
0
 10
193.731
 20
-215.616
 11
193.93
 21
-215.763
  0
LINE
  8
0
 10
193.93
 20
-215.763
 11
194.113
 21
-215.931
  0
LINE
  8
0
 10
194.113
 20
-215.931
 11
194.276
 21
-216.118
  0
LINE
  8
0
 10
194.276
 20
-216.118
 11
194.417
 21
-216.322
  0
LINE
  8
0
 10
194.417
 20
-216.322
 11
194.535
 21
-216.54
  0
LINE
  8
0
 10
194.535
 20
-216.54
 11
194.628
 21
-216.769
  0
LINE
  8
0
 10
194.628
 20
-216.769
 11
194.696
 21
-217.008
  0
LINE
  8
0
 10
194.696
 20
-217.008
 11
194.736
 21
-217.252
  0
LINE
  8
0
 10
194.736
 20
-217.252
 11
194.75
 21
-217.5
  0
LINE
  8
0
 10
194.75
 20
-217.5
 11
194.736
 21
-217.748
  0
LINE
  8
0
 10
194.736
 20
-217.748
 11
194.696
 21
-217.992
  0
LINE
  8
0
 10
194.696
 20
-217.992
 11
194.628
 21
-218.231
  0
LINE
  8
0
 10
194.628
 20
-218.231
 11
194.535
 21
-218.46
  0
LINE
  8
0
 10
194.535
 20
-218.46
 11
194.417
 21
-218.678
  0
LINE
  8
0
 10
194.417
 20
-218.678
 11
194.276
 21
-218.882
  0
LINE
  8
0
 10
194.276
 20
-218.882
 11
194.113
 21
-219.069
  0
LINE
  8
0
 10
194.113
 20
-219.069
 11
193.93
 21
-219.237
  0
LINE
  8
0
 10
193.93
 20
-219.237
 11
193.731
 21
-219.384
  0
LINE
  8
0
 10
193.731
 20
-219.384
 11
193.516
 21
-219.508
  0
LINE
  8
0
 10
193.516
 20
-219.508
 11
193.289
 21
-219.607
  0
LINE
  8
0
 10
193.289
 20
-219.607
 11
193.052
 21
-219.681
  0
LINE
  8
0
 10
193.052
 20
-219.681
 11
192.809
 21
-219.729
  0
LINE
  8
0
 10
192.809
 20
-219.729
 11
192.562
 21
-219.749
  0
LINE
  8
0
 10
192.562
 20
-219.749
 11
192.314
 21
-219.742
  0
LINE
  8
0
 10
-0.185791
 20
-219.742
 11
-0.431335
 21
-219.708
  0
LINE
  8
0
 10
-0.431335
 20
-219.708
 11
-0.671646
 21
-219.647
  0
LINE
  8
0
 10
-0.671646
 20
-219.647
 11
-0.903809
 21
-219.56
  0
LINE
  8
0
 10
-0.903809
 20
-219.56
 11
-1.125
 21
-219.449
  0
LINE
  8
0
 10
-1.125
 20
-219.449
 11
-1.33252
 21
-219.313
  0
LINE
  8
0
 10
-1.33252
 20
-219.313
 11
-1.52388
 21
-219.155
  0
LINE
  8
0
 10
-1.52388
 20
-219.155
 11
-1.69673
 21
-218.978
  0
LINE
  8
0
 10
-1.69673
 20
-218.978
 11
-1.849
 21
-218.782
  0
LINE
  8
0
 10
-1.849
 20
-218.782
 11
-1.97881
 21
-218.571
  0
LINE
  8
0
 10
-1.97881
 20
-218.571
 11
-2.08461
 21
-218.347
  0
LINE
  8
0
 10
-2.08461
 20
-218.347
 11
-2.1651
 21
-218.112
  0
LINE
  8
0
 10
-2.1651
 20
-218.112
 11
-2.2193
 21
-217.87
  0
LINE
  8
0
 10
-2.2193
 20
-217.87
 11
-2.24658
 21
-217.624
  0
LINE
  8
0
 10
-2.24658
 20
-217.624
 11
-2.24658
 21
-217.376
  0
LINE
  8
0
 10
-2.24658
 20
-217.376
 11
-2.2193
 21
-217.13
  0
LINE
  8
0
 10
-2.2193
 20
-217.13
 11
-2.1651
 21
-216.888
  0
LINE
  8
0
 10
-2.1651
 20
-216.888
 11
-2.08461
 21
-216.653
  0
LINE
  8
0
 10
-2.08461
 20
-216.653
 11
-1.97881
 21
-216.429
  0
LINE
  8
0
 10
-1.97881
 20
-216.429
 11
-1.849
 21
-216.218
  0
LINE
  8
0
 10
-1.849
 20
-216.218
 11
-1.69673
 21
-216.022
  0
LINE
  8
0
 10
-1.69673
 20
-216.022
 11
-1.52388
 21
-215.845
  0
LINE
  8
0
 10
-1.52388
 20
-215.845
 11
-1.33252
 21
-215.687
  0
LINE
  8
0
 10
-1.33252
 20
-215.687
 11
-1.125
 21
-215.551
  0
LINE
  8
0
 10
-1.125
 20
-215.551
 11
-0.903809
 21
-215.44
  0
LINE
  8
0
 10
-0.903809
 20
-215.44
 11
-0.671646
 21
-215.353
  0
LINE
  8
0
 10
-0.671646
 20
-215.353
 11
-0.431335
 21
-215.292
  0
LINE
  8
0
 10
-0.431335
 20
-215.292
 11
-0.185791
 21
-215.258
  0
LINE
  8
0
 10
-0.185791
 20
-215.258
 11
0.0619965
 21
-215.251
  0
LINE
  8
0
 10
0.0619965
 20
-215.251
 11
0.309036
 21
-215.271
  0
LINE
  8
0
 10
0.309036
 20
-215.271
 11
0.552338
 21
-215.319
  0
LINE
  8
0
 10
0.552338
 20
-215.319
 11
0.788925
 21
-215.393
  0
LINE
  8
0
 10
0.788925
 20
-215.393
 11
1.01595
 21
-215.492
  0
LINE
  8
0
 10
1.01595
 20
-215.492
 11
1.23062
 21
-215.616
  0
LINE
  8
0
 10
1.23062
 20
-215.616
 11
1.43037
 21
-215.763
  0
LINE
  8
0
 10
1.43037
 20
-215.763
 11
1.61275
 21
-215.931
  0
LINE
  8
0
 10
1.61275
 20
-215.931
 11
1.77556
 21
-216.118
  0
LINE
  8
0
 10
1.77556
 20
-216.118
 11
1.91681
 21
-216.322
  0
LINE
  8
0
 10
1.91681
 20
-216.322
 11
2.03479
 21
-216.54
  0
LINE
  8
0
 10
2.03479
 20
-216.54
 11
2.12808
 21
-216.769
  0
LINE
  8
0
 10
2.12808
 20
-216.769
 11
2.19554
 21
-217.008
  0
LINE
  8
0
 10
2.19554
 20
-217.008
 11
2.23634
 21
-217.252
  0
LINE
  8
0
 10
2.23634
 20
-217.252
 11
2.25
 21
-217.5
  0
LINE
  8
0
 10
2.25
 20
-217.5
 11
2.23634
 21
-217.748
  0
LINE
  8
0
 10
2.23634
 20
-217.748
 11
2.19554
 21
-217.992
  0
LINE
  8
0
 10
2.19554
 20
-217.992
 11
2.12808
 21
-218.231
  0
LINE
  8
0
 10
2.12808
 20
-218.231
 11
2.03479
 21
-218.46
  0
LINE
  8
0
 10
2.03479
 20
-218.46
 11
1.91681
 21
-218.678
  0
LINE
  8
0
 10
1.91681
 20
-218.678
 11
1.77556
 21
-218.882
  0
LINE
  8
0
 10
1.77556
 20
-218.882
 11
1.61275
 21
-219.069
  0
LINE
  8
0
 10
1.61275
 20
-219.069
 11
1.43037
 21
-219.237
  0
LINE
  8
0
 10
1.43037
 20
-219.237
 11
1.23062
 21
-219.384
  0
LINE
  8
0
 10
1.23062
 20
-219.384
 11
1.01595
 21
-219.508
  0
LINE
  8
0
 10
1.01595
 20
-219.508
 11
0.788925
 21
-219.607
  0
LINE
  8
0
 10
0.788925
 20
-219.607
 11
0.552338
 21
-219.681
  0
LINE
  8
0
 10
0.552338
 20
-219.681
 11
0.309036
 21
-219.729
  0
LINE
  8
0
 10
0.309036
 20
-219.729
 11
0.0619965
 21
-219.749
  0
LINE
  8
0
 10
0.0619965
 20
-219.749
 11
-0.185791
 21
-219.742
  0
ENDSEC
  0
SECTION
  2
OBJECTS
  0
DICTIONARY
  0
ENDSEC
  0
EOF
