  0
SECTION
  2
BLOCKS
  0
ENDSEC
  0
SECTION
  2
ENTITIES
  0
LINE
  8
0
 10
320.523
 20
-248.473
 11
321.04
 21
-248.391
  0
LINE
  8
0
 10
321.04
 20
-248.391
 11
321.545
 21
-248.255
  0
LINE
  8
0
 10
321.545
 20
-248.255
 11
322.034
 21
-248.068
  0
LINE
  8
0
 10
322.034
 20
-248.068
 11
322.5
 21
-247.83
  0
LINE
  8
0
 10
322.5
 20
-247.83
 11
322.939
 21
-247.545
  0
LINE
  8
0
 10
322.939
 20
-247.545
 11
323.346
 21
-247.216
  0
LINE
  8
0
 10
323.346
 20
-247.216
 11
323.716
 21
-246.846
  0
LINE
  8
0
 10
323.716
 20
-246.846
 11
324.045
 21
-246.439
  0
LINE
  8
0
 10
324.045
 20
-246.439
 11
324.33
 21
-246
  0
LINE
  8
0
 10
324.33
 20
-246
 11
324.568
 21
-245.534
  0
LINE
  8
0
 10
324.568
 20
-245.534
 11
324.755
 21
-245.045
  0
LINE
  8
0
 10
324.755
 20
-245.045
 11
324.891
 21
-244.54
  0
LINE
  8
0
 10
324.891
 20
-244.54
 11
324.973
 21
-244.023
  0
LINE
  8
0
 10
324.973
 20
-244.023
 11
325
 21
-243.5
  0
LINE
  8
0
 10
325
 20
-243.5
 11
325
 21
243.5
  0
LINE
  8
0
 10
325
 20
243.5
 11
324.973
 21
244.023
  0
LINE
  8
0
 10
324.973
 20
244.023
 11
324.891
 21
244.54
  0
LINE
  8
0
 10
324.891
 20
244.54
 11
324.755
 21
245.045
  0
LINE
  8
0
 10
324.755
 20
245.045
 11
324.568
 21
245.534
  0
LINE
  8
0
 10
324.568
 20
245.534
 11
324.33
 21
246
  0
LINE
  8
0
 10
324.33
 20
246
 11
324.045
 21
246.439
  0
LINE
  8
0
 10
324.045
 20
246.439
 11
323.716
 21
246.846
  0
LINE
  8
0
 10
323.716
 20
246.846
 11
323.346
 21
247.216
  0
LINE
  8
0
 10
323.346
 20
247.216
 11
322.939
 21
247.545
  0
LINE
  8
0
 10
322.939
 20
247.545
 11
322.5
 21
247.83
  0
LINE
  8
0
 10
322.5
 20
247.83
 11
322.034
 21
248.068
  0
LINE
  8
0
 10
322.034
 20
248.068
 11
321.545
 21
248.255
  0
LINE
  8
0
 10
321.545
 20
248.255
 11
321.04
 21
248.391
  0
LINE
  8
0
 10
321.04
 20
248.391
 11
320.523
 21
248.473
  0
LINE
  8
0
 10
320.523
 20
248.473
 11
320
 21
248.5
  0
LINE
  8
0
 10
320
 20
248.5
 11
-320
 21
248.5
  0
LINE
  8
0
 10
-320
 20
248.5
 11
-320.523
 21
248.473
  0
LINE
  8
0
 10
-320.523
 20
248.473
 11
-321.04
 21
248.391
  0
LINE
  8
0
 10
-321.04
 20
248.391
 11
-321.545
 21
248.255
  0
LINE
  8
0
 10
-321.545
 20
248.255
 11
-322.034
 21
248.068
  0
LINE
  8
0
 10
-322.034
 20
248.068
 11
-322.5
 21
247.83
  0
LINE
  8
0
 10
-322.5
 20
247.83
 11
-322.939
 21
247.545
  0
LINE
  8
0
 10
-322.939
 20
247.545
 11
-323.346
 21
247.216
  0
LINE
  8
0
 10
-323.346
 20
247.216
 11
-323.716
 21
246.846
  0
LINE
  8
0
 10
-323.716
 20
246.846
 11
-324.045
 21
246.439
  0
LINE
  8
0
 10
-324.045
 20
246.439
 11
-324.33
 21
246
  0
LINE
  8
0
 10
-324.33
 20
246
 11
-324.568
 21
245.534
  0
LINE
  8
0
 10
-324.568
 20
245.534
 11
-324.755
 21
245.045
  0
LINE
  8
0
 10
-324.755
 20
245.045
 11
-324.891
 21
244.54
  0
LINE
  8
0
 10
-324.891
 20
244.54
 11
-324.973
 21
244.023
  0
LINE
  8
0
 10
-324.973
 20
244.023
 11
-325
 21
243.5
  0
LINE
  8
0
 10
-325
 20
243.5
 11
-325
 21
-243.5
  0
LINE
  8
0
 10
-325
 20
-243.5
 11
-324.973
 21
-244.023
  0
LINE
  8
0
 10
-324.973
 20
-244.023
 11
-324.891
 21
-244.54
  0
LINE
  8
0
 10
-324.891
 20
-244.54
 11
-324.755
 21
-245.045
  0
LINE
  8
0
 10
-324.755
 20
-245.045
 11
-324.568
 21
-245.534
  0
LINE
  8
0
 10
-324.568
 20
-245.534
 11
-324.33
 21
-246
  0
LINE
  8
0
 10
-324.33
 20
-246
 11
-324.045
 21
-246.439
  0
LINE
  8
0
 10
-324.045
 20
-246.439
 11
-323.716
 21
-246.846
  0
LINE
  8
0
 10
-323.716
 20
-246.846
 11
-323.346
 21
-247.216
  0
LINE
  8
0
 10
-323.346
 20
-247.216
 11
-322.939
 21
-247.545
  0
LINE
  8
0
 10
-322.939
 20
-247.545
 11
-322.5
 21
-247.83
  0
LINE
  8
0
 10
-322.5
 20
-247.83
 11
-322.034
 21
-248.068
  0
LINE
  8
0
 10
-322.034
 20
-248.068
 11
-321.545
 21
-248.255
  0
LINE
  8
0
 10
-321.545
 20
-248.255
 11
-321.04
 21
-248.391
  0
LINE
  8
0
 10
-321.04
 20
-248.391
 11
-320.523
 21
-248.473
  0
LINE
  8
0
 10
-320.523
 20
-248.473
 11
-320
 21
-248.5
  0
LINE
  8
0
 10
-320
 20
-248.5
 11
320
 21
-248.5
  0
LINE
  8
0
 10
320
 20
-248.5
 11
320.523
 21
-248.473
  0
LINE
  8
0
 10
-240.523
 20
227.527
 11
-241.04
 21
227.609
  0
LINE
  8
0
 10
-241.04
 20
227.609
 11
-241.545
 21
227.745
  0
LINE
  8
0
 10
-241.545
 20
227.745
 11
-242.034
 21
227.932
  0
LINE
  8
0
 10
-242.034
 20
227.932
 11
-242.5
 21
228.17
  0
LINE
  8
0
 10
-242.5
 20
228.17
 11
-242.939
 21
228.455
  0
LINE
  8
0
 10
-242.939
 20
228.455
 11
-243.346
 21
228.784
  0
LINE
  8
0
 10
-243.346
 20
228.784
 11
-243.716
 21
229.154
  0
LINE
  8
0
 10
-243.716
 20
229.154
 11
-244.045
 21
229.561
  0
LINE
  8
0
 10
-244.045
 20
229.561
 11
-244.33
 21
230
  0
LINE
  8
0
 10
-244.33
 20
230
 11
-244.568
 21
230.466
  0
LINE
  8
0
 10
-244.568
 20
230.466
 11
-244.755
 21
230.955
  0
LINE
  8
0
 10
-244.755
 20
230.955
 11
-244.891
 21
231.46
  0
LINE
  8
0
 10
-244.891
 20
231.46
 11
-244.973
 21
231.977
  0
LINE
  8
0
 10
-244.973
 20
231.977
 11
-245
 21
232.5
  0
LINE
  8
0
 10
-245
 20
232.5
 11
-244.973
 21
233.023
  0
LINE
  8
0
 10
-244.973
 20
233.023
 11
-244.891
 21
233.54
  0
LINE
  8
0
 10
-244.891
 20
233.54
 11
-244.755
 21
234.045
  0
LINE
  8
0
 10
-244.755
 20
234.045
 11
-244.568
 21
234.534
  0
LINE
  8
0
 10
-244.568
 20
234.534
 11
-244.33
 21
235
  0
LINE
  8
0
 10
-244.33
 20
235
 11
-244.045
 21
235.439
  0
LINE
  8
0
 10
-244.045
 20
235.439
 11
-243.716
 21
235.846
  0
LINE
  8
0
 10
-243.716
 20
235.846
 11
-243.346
 21
236.216
  0
LINE
  8
0
 10
-243.346
 20
236.216
 11
-242.939
 21
236.545
  0
LINE
  8
0
 10
-242.939
 20
236.545
 11
-242.5
 21
236.83
  0
LINE
  8
0
 10
-242.5
 20
236.83
 11
-242.034
 21
237.068
  0
LINE
  8
0
 10
-242.034
 20
237.068
 11
-241.545
 21
237.255
  0
LINE
  8
0
 10
-241.545
 20
237.255
 11
-241.04
 21
237.391
  0
LINE
  8
0
 10
-241.04
 20
237.391
 11
-240.523
 21
237.473
  0
LINE
  8
0
 10
-240.523
 20
237.473
 11
-240
 21
237.5
  0
LINE
  8
0
 10
-240
 20
237.5
 11
-239.477
 21
237.473
  0
LINE
  8
0
 10
-239.477
 20
237.473
 11
-238.96
 21
237.391
  0
LINE
  8
0
 10
-238.96
 20
237.391
 11
-238.455
 21
237.255
  0
LINE
  8
0
 10
-238.455
 20
237.255
 11
-237.966
 21
237.068
  0
LINE
  8
0
 10
-237.966
 20
237.068
 11
-237.5
 21
236.83
  0
LINE
  8
0
 10
-237.5
 20
236.83
 11
-237.061
 21
236.545
  0
LINE
  8
0
 10
-237.061
 20
236.545
 11
-236.654
 21
236.216
  0
LINE
  8
0
 10
-236.654
 20
236.216
 11
-236.284
 21
235.846
  0
LINE
  8
0
 10
-236.284
 20
235.846
 11
-235.955
 21
235.439
  0
LINE
  8
0
 10
-235.955
 20
235.439
 11
-235.67
 21
235
  0
LINE
  8
0
 10
-235.67
 20
235
 11
-235.432
 21
234.534
  0
LINE
  8
0
 10
-235.432
 20
234.534
 11
-235.245
 21
234.045
  0
LINE
  8
0
 10
-235.245
 20
234.045
 11
-235.109
 21
233.54
  0
LINE
  8
0
 10
-235.109
 20
233.54
 11
-235.027
 21
233.023
  0
LINE
  8
0
 10
-235.027
 20
233.023
 11
-235
 21
232.5
  0
LINE
  8
0
 10
-235
 20
232.5
 11
-235.027
 21
231.977
  0
LINE
  8
0
 10
-235.027
 20
231.977
 11
-235.109
 21
231.46
  0
LINE
  8
0
 10
-235.109
 20
231.46
 11
-235.245
 21
230.955
  0
LINE
  8
0
 10
-235.245
 20
230.955
 11
-235.432
 21
230.466
  0
LINE
  8
0
 10
-235.432
 20
230.466
 11
-235.67
 21
230
  0
LINE
  8
0
 10
-235.67
 20
230
 11
-235.955
 21
229.561
  0
LINE
  8
0
 10
-235.955
 20
229.561
 11
-236.284
 21
229.154
  0
LINE
  8
0
 10
-236.284
 20
229.154
 11
-236.654
 21
228.784
  0
LINE
  8
0
 10
-236.654
 20
228.784
 11
-237.061
 21
228.455
  0
LINE
  8
0
 10
-237.061
 20
228.455
 11
-237.5
 21
228.17
  0
LINE
  8
0
 10
-237.5
 20
228.17
 11
-237.966
 21
227.932
  0
LINE
  8
0
 10
-237.966
 20
227.932
 11
-238.455
 21
227.745
  0
LINE
  8
0
 10
-238.455
 20
227.745
 11
-238.96
 21
227.609
  0
LINE
  8
0
 10
-238.96
 20
227.609
 11
-239.477
 21
227.527
  0
LINE
  8
0
 10
-239.477
 20
227.527
 11
-240
 21
227.5
  0
LINE
  8
0
 10
-240
 20
227.5
 11
-240.523
 21
227.527
  0
LINE
  8
0
 10
239.477
 20
227.527
 11
238.96
 21
227.609
  0
LINE
  8
0
 10
238.96
 20
227.609
 11
238.455
 21
227.745
  0
LINE
  8
0
 10
238.455
 20
227.745
 11
237.966
 21
227.932
  0
LINE
  8
0
 10
237.966
 20
227.932
 11
237.5
 21
228.17
  0
LINE
  8
0
 10
237.5
 20
228.17
 11
237.061
 21
228.455
  0
LINE
  8
0
 10
237.061
 20
228.455
 11
236.654
 21
228.784
  0
LINE
  8
0
 10
236.654
 20
228.784
 11
236.284
 21
229.154
  0
LINE
  8
0
 10
236.284
 20
229.154
 11
235.955
 21
229.561
  0
LINE
  8
0
 10
235.955
 20
229.561
 11
235.67
 21
230
  0
LINE
  8
0
 10
235.67
 20
230
 11
235.432
 21
230.466
  0
LINE
  8
0
 10
235.432
 20
230.466
 11
235.245
 21
230.955
  0
LINE
  8
0
 10
235.245
 20
230.955
 11
235.109
 21
231.46
  0
LINE
  8
0
 10
235.109
 20
231.46
 11
235.027
 21
231.977
  0
LINE
  8
0
 10
235.027
 20
231.977
 11
235
 21
232.5
  0
LINE
  8
0
 10
235
 20
232.5
 11
235.027
 21
233.023
  0
LINE
  8
0
 10
235.027
 20
233.023
 11
235.109
 21
233.54
  0
LINE
  8
0
 10
235.109
 20
233.54
 11
235.245
 21
234.045
  0
LINE
  8
0
 10
235.245
 20
234.045
 11
235.432
 21
234.534
  0
LINE
  8
0
 10
235.432
 20
234.534
 11
235.67
 21
235
  0
LINE
  8
0
 10
235.67
 20
235
 11
235.955
 21
235.439
  0
LINE
  8
0
 10
235.955
 20
235.439
 11
236.284
 21
235.846
  0
LINE
  8
0
 10
236.284
 20
235.846
 11
236.654
 21
236.216
  0
LINE
  8
0
 10
236.654
 20
236.216
 11
237.061
 21
236.545
  0
LINE
  8
0
 10
237.061
 20
236.545
 11
237.5
 21
236.83
  0
LINE
  8
0
 10
237.5
 20
236.83
 11
237.966
 21
237.068
  0
LINE
  8
0
 10
237.966
 20
237.068
 11
238.455
 21
237.255
  0
LINE
  8
0
 10
238.455
 20
237.255
 11
238.96
 21
237.391
  0
LINE
  8
0
 10
238.96
 20
237.391
 11
239.477
 21
237.473
  0
LINE
  8
0
 10
239.477
 20
237.473
 11
240
 21
237.5
  0
LINE
  8
0
 10
240
 20
237.5
 11
240.523
 21
237.473
  0
LINE
  8
0
 10
240.523
 20
237.473
 11
241.04
 21
237.391
  0
LINE
  8
0
 10
241.04
 20
237.391
 11
241.545
 21
237.255
  0
LINE
  8
0
 10
241.545
 20
237.255
 11
242.034
 21
237.068
  0
LINE
  8
0
 10
242.034
 20
237.068
 11
242.5
 21
236.83
  0
LINE
  8
0
 10
242.5
 20
236.83
 11
242.939
 21
236.545
  0
LINE
  8
0
 10
242.939
 20
236.545
 11
243.346
 21
236.216
  0
LINE
  8
0
 10
243.346
 20
236.216
 11
243.716
 21
235.846
  0
LINE
  8
0
 10
243.716
 20
235.846
 11
244.045
 21
235.439
  0
LINE
  8
0
 10
244.045
 20
235.439
 11
244.33
 21
235
  0
LINE
  8
0
 10
244.33
 20
235
 11
244.568
 21
234.534
  0
LINE
  8
0
 10
244.568
 20
234.534
 11
244.755
 21
234.045
  0
LINE
  8
0
 10
244.755
 20
234.045
 11
244.891
 21
233.54
  0
LINE
  8
0
 10
244.891
 20
233.54
 11
244.973
 21
233.023
  0
LINE
  8
0
 10
244.973
 20
233.023
 11
245
 21
232.5
  0
LINE
  8
0
 10
245
 20
232.5
 11
244.973
 21
231.977
  0
LINE
  8
0
 10
244.973
 20
231.977
 11
244.891
 21
231.46
  0
LINE
  8
0
 10
244.891
 20
231.46
 11
244.755
 21
230.955
  0
LINE
  8
0
 10
244.755
 20
230.955
 11
244.568
 21
230.466
  0
LINE
  8
0
 10
244.568
 20
230.466
 11
244.33
 21
230
  0
LINE
  8
0
 10
244.33
 20
230
 11
244.045
 21
229.561
  0
LINE
  8
0
 10
244.045
 20
229.561
 11
243.716
 21
229.154
  0
LINE
  8
0
 10
243.716
 20
229.154
 11
243.346
 21
228.784
  0
LINE
  8
0
 10
243.346
 20
228.784
 11
242.939
 21
228.455
  0
LINE
  8
0
 10
242.939
 20
228.455
 11
242.5
 21
228.17
  0
LINE
  8
0
 10
242.5
 20
228.17
 11
242.034
 21
227.932
  0
LINE
  8
0
 10
242.034
 20
227.932
 11
241.545
 21
227.745
  0
LINE
  8
0
 10
241.545
 20
227.745
 11
241.04
 21
227.609
  0
LINE
  8
0
 10
241.04
 20
227.609
 11
240.523
 21
227.527
  0
LINE
  8
0
 10
240.523
 20
227.527
 11
240
 21
227.5
  0
LINE
  8
0
 10
240
 20
227.5
 11
239.477
 21
227.527
  0
LINE
  8
0
 10
76.6667
 20
230.75
 11
76.4176
 21
230.768
  0
LINE
  8
0
 10
76.4176
 20
230.768
 11
76.1736
 21
230.821
  0
LINE
  8
0
 10
76.1736
 20
230.821
 11
75.9397
 21
230.908
  0
LINE
  8
0
 10
75.9397
 20
230.908
 11
75.7205
 21
231.028
  0
LINE
  8
0
 10
75.7205
 20
231.028
 11
75.5207
 21
231.177
  0
LINE
  8
0
 10
75.5207
 20
231.177
 11
75.3441
 21
231.354
  0
LINE
  8
0
 10
75.3441
 20
231.354
 11
75.1945
 21
231.554
  0
LINE
  8
0
 10
75.1945
 20
231.554
 11
75.0748
 21
231.773
  0
LINE
  8
0
 10
75.0748
 20
231.773
 11
74.9875
 21
232.007
  0
LINE
  8
0
 10
74.9875
 20
232.007
 11
74.9345
 21
232.251
  0
LINE
  8
0
 10
74.9345
 20
232.251
 11
74.9167
 21
232.5
  0
LINE
  8
0
 10
74.9167
 20
232.5
 11
74.9345
 21
232.749
  0
LINE
  8
0
 10
74.9345
 20
232.749
 11
74.9875
 21
232.993
  0
LINE
  8
0
 10
74.9875
 20
232.993
 11
75.0748
 21
233.227
  0
LINE
  8
0
 10
75.0748
 20
233.227
 11
75.1945
 21
233.446
  0
LINE
  8
0
 10
75.1945
 20
233.446
 11
75.3441
 21
233.646
  0
LINE
  8
0
 10
75.3441
 20
233.646
 11
75.5207
 21
233.823
  0
LINE
  8
0
 10
75.5207
 20
233.823
 11
75.7205
 21
233.972
  0
LINE
  8
0
 10
75.7205
 20
233.972
 11
75.9397
 21
234.092
  0
LINE
  8
0
 10
75.9397
 20
234.092
 11
76.1736
 21
234.179
  0
LINE
  8
0
 10
76.1736
 20
234.179
 11
76.4176
 21
234.232
  0
LINE
  8
0
 10
76.4176
 20
234.232
 11
76.6667
 21
234.25
  0
LINE
  8
0
 10
76.6667
 20
234.25
 11
195
 21
234.25
  0
LINE
  8
0
 10
195
 20
234.25
 11
195.249
 21
234.232
  0
LINE
  8
0
 10
195.249
 20
234.232
 11
195.493
 21
234.179
  0
LINE
  8
0
 10
195.493
 20
234.179
 11
195.727
 21
234.092
  0
LINE
  8
0
 10
195.727
 20
234.092
 11
195.946
 21
233.972
  0
LINE
  8
0
 10
195.946
 20
233.972
 11
196.146
 21
233.823
  0
LINE
  8
0
 10
196.146
 20
233.823
 11
196.323
 21
233.646
  0
LINE
  8
0
 10
196.323
 20
233.646
 11
196.472
 21
233.446
  0
LINE
  8
0
 10
196.472
 20
233.446
 11
196.592
 21
233.227
  0
LINE
  8
0
 10
196.592
 20
233.227
 11
196.679
 21
232.993
  0
LINE
  8
0
 10
196.679
 20
232.993
 11
196.732
 21
232.749
  0
LINE
  8
0
 10
196.732
 20
232.749
 11
196.75
 21
232.5
  0
LINE
  8
0
 10
196.75
 20
232.5
 11
196.732
 21
232.251
  0
LINE
  8
0
 10
196.732
 20
232.251
 11
196.679
 21
232.007
  0
LINE
  8
0
 10
196.679
 20
232.007
 11
196.592
 21
231.773
  0
LINE
  8
0
 10
196.592
 20
231.773
 11
196.472
 21
231.554
  0
LINE
  8
0
 10
196.472
 20
231.554
 11
196.323
 21
231.354
  0
LINE
  8
0
 10
196.323
 20
231.354
 11
196.146
 21
231.177
  0
LINE
  8
0
 10
196.146
 20
231.177
 11
195.946
 21
231.028
  0
LINE
  8
0
 10
195.946
 20
231.028
 11
195.727
 21
230.908
  0
LINE
  8
0
 10
195.727
 20
230.908
 11
195.493
 21
230.821
  0
LINE
  8
0
 10
195.493
 20
230.821
 11
195.249
 21
230.768
  0
LINE
  8
0
 10
195.249
 20
230.768
 11
195
 21
230.75
  0
LINE
  8
0
 10
195
 20
230.75
 11
76.6667
 21
230.75
  0
LINE
  8
0
 10
-190
 20
230.75
 11
-190.249
 21
230.768
  0
LINE
  8
0
 10
-190.249
 20
230.768
 11
-190.493
 21
230.821
  0
LINE
  8
0
 10
-190.493
 20
230.821
 11
-190.727
 21
230.908
  0
LINE
  8
0
 10
-190.727
 20
230.908
 11
-190.946
 21
231.028
  0
LINE
  8
0
 10
-190.946
 20
231.028
 11
-191.146
 21
231.177
  0
LINE
  8
0
 10
-191.146
 20
231.177
 11
-191.323
 21
231.354
  0
LINE
  8
0
 10
-191.323
 20
231.354
 11
-191.472
 21
231.554
  0
LINE
  8
0
 10
-191.472
 20
231.554
 11
-191.592
 21
231.773
  0
LINE
  8
0
 10
-191.592
 20
231.773
 11
-191.679
 21
232.007
  0
LINE
  8
0
 10
-191.679
 20
232.007
 11
-191.732
 21
232.251
  0
LINE
  8
0
 10
-191.732
 20
232.251
 11
-191.75
 21
232.5
  0
LINE
  8
0
 10
-191.75
 20
232.5
 11
-191.732
 21
232.749
  0
LINE
  8
0
 10
-191.732
 20
232.749
 11
-191.679
 21
232.993
  0
LINE
  8
0
 10
-191.679
 20
232.993
 11
-191.592
 21
233.227
  0
LINE
  8
0
 10
-191.592
 20
233.227
 11
-191.472
 21
233.446
  0
LINE
  8
0
 10
-191.472
 20
233.446
 11
-191.323
 21
233.646
  0
LINE
  8
0
 10
-191.323
 20
233.646
 11
-191.146
 21
233.823
  0
LINE
  8
0
 10
-191.146
 20
233.823
 11
-190.946
 21
233.972
  0
LINE
  8
0
 10
-190.946
 20
233.972
 11
-190.727
 21
234.092
  0
LINE
  8
0
 10
-190.727
 20
234.092
 11
-190.493
 21
234.179
  0
LINE
  8
0
 10
-190.493
 20
234.179
 11
-190.249
 21
234.232
  0
LINE
  8
0
 10
-190.249
 20
234.232
 11
-190
 21
234.25
  0
LINE
  8
0
 10
-190
 20
234.25
 11
-71.6667
 21
234.25
  0
LINE
  8
0
 10
-71.6667
 20
234.25
 11
-71.4176
 21
234.232
  0
LINE
  8
0
 10
-71.4176
 20
234.232
 11
-71.1736
 21
234.179
  0
LINE
  8
0
 10
-71.1736
 20
234.179
 11
-70.9397
 21
234.092
  0
LINE
  8
0
 10
-70.9397
 20
234.092
 11
-70.7205
 21
233.972
  0
LINE
  8
0
 10
-70.7205
 20
233.972
 11
-70.5207
 21
233.823
  0
LINE
  8
0
 10
-70.5207
 20
233.823
 11
-70.3441
 21
233.646
  0
LINE
  8
0
 10
-70.3441
 20
233.646
 11
-70.1945
 21
233.446
  0
LINE
  8
0
 10
-70.1945
 20
233.446
 11
-70.0748
 21
233.227
  0
LINE
  8
0
 10
-70.0748
 20
233.227
 11
-69.9875
 21
232.993
  0
LINE
  8
0
 10
-69.9875
 20
232.993
 11
-69.9345
 21
232.749
  0
LINE
  8
0
 10
-69.9345
 20
232.749
 11
-69.9167
 21
232.5
  0
LINE
  8
0
 10
-69.9167
 20
232.5
 11
-69.9345
 21
232.251
  0
LINE
  8
0
 10
-69.9345
 20
232.251
 11
-69.9875
 21
232.007
  0
LINE
  8
0
 10
-69.9875
 20
232.007
 11
-70.0748
 21
231.773
  0
LINE
  8
0
 10
-70.0748
 20
231.773
 11
-70.1945
 21
231.554
  0
LINE
  8
0
 10
-70.1945
 20
231.554
 11
-70.3441
 21
231.354
  0
LINE
  8
0
 10
-70.3441
 20
231.354
 11
-70.5207
 21
231.177
  0
LINE
  8
0
 10
-70.5207
 20
231.177
 11
-70.7205
 21
231.028
  0
LINE
  8
0
 10
-70.7205
 20
231.028
 11
-70.9397
 21
230.908
  0
LINE
  8
0
 10
-70.9397
 20
230.908
 11
-71.1736
 21
230.821
  0
LINE
  8
0
 10
-71.1736
 20
230.821
 11
-71.4176
 21
230.768
  0
LINE
  8
0
 10
-71.4176
 20
230.768
 11
-71.6667
 21
230.75
  0
LINE
  8
0
 10
-71.6667
 20
230.75
 11
-190
 21
230.75
  0
LINE
  8
0
 10
-56.6667
 20
230.75
 11
-56.9157
 21
230.768
  0
LINE
  8
0
 10
-56.9157
 20
230.768
 11
-57.1597
 21
230.821
  0
LINE
  8
0
 10
-57.1597
 20
230.821
 11
-57.3936
 21
230.908
  0
LINE
  8
0
 10
-57.3936
 20
230.908
 11
-57.6128
 21
231.028
  0
LINE
  8
0
 10
-57.6128
 20
231.028
 11
-57.8127
 21
231.177
  0
LINE
  8
0
 10
-57.8127
 20
231.177
 11
-57.9892
 21
231.354
  0
LINE
  8
0
 10
-57.9892
 20
231.354
 11
-58.1389
 21
231.554
  0
LINE
  8
0
 10
-58.1389
 20
231.554
 11
-58.2585
 21
231.773
  0
LINE
  8
0
 10
-58.2585
 20
231.773
 11
-58.3458
 21
232.007
  0
LINE
  8
0
 10
-58.3458
 20
232.007
 11
-58.3988
 21
232.251
  0
LINE
  8
0
 10
-58.3988
 20
232.251
 11
-58.4167
 21
232.5
  0
LINE
  8
0
 10
-58.4167
 20
232.5
 11
-58.3988
 21
232.749
  0
LINE
  8
0
 10
-58.3988
 20
232.749
 11
-58.3458
 21
232.993
  0
LINE
  8
0
 10
-58.3458
 20
232.993
 11
-58.2585
 21
233.227
  0
LINE
  8
0
 10
-58.2585
 20
233.227
 11
-58.1389
 21
233.446
  0
LINE
  8
0
 10
-58.1389
 20
233.446
 11
-57.9892
 21
233.646
  0
LINE
  8
0
 10
-57.9892
 20
233.646
 11
-57.8127
 21
233.823
  0
LINE
  8
0
 10
-57.8127
 20
233.823
 11
-57.6128
 21
233.972
  0
LINE
  8
0
 10
-57.6128
 20
233.972
 11
-57.3936
 21
234.092
  0
LINE
  8
0
 10
-57.3936
 20
234.092
 11
-57.1597
 21
234.179
  0
LINE
  8
0
 10
-57.1597
 20
234.179
 11
-56.9157
 21
234.232
  0
LINE
  8
0
 10
-56.9157
 20
234.232
 11
-56.6667
 21
234.25
  0
LINE
  8
0
 10
-56.6667
 20
234.25
 11
61.6667
 21
234.25
  0
LINE
  8
0
 10
61.6667
 20
234.25
 11
61.9157
 21
234.232
  0
LINE
  8
0
 10
61.9157
 20
234.232
 11
62.1597
 21
234.179
  0
LINE
  8
0
 10
62.1597
 20
234.179
 11
62.3936
 21
234.092
  0
LINE
  8
0
 10
62.3936
 20
234.092
 11
62.6128
 21
233.972
  0
LINE
  8
0
 10
62.6128
 20
233.972
 11
62.8127
 21
233.823
  0
LINE
  8
0
 10
62.8127
 20
233.823
 11
62.9892
 21
233.646
  0
LINE
  8
0
 10
62.9892
 20
233.646
 11
63.1389
 21
233.446
  0
LINE
  8
0
 10
63.1389
 20
233.446
 11
63.2585
 21
233.227
  0
LINE
  8
0
 10
63.2585
 20
233.227
 11
63.3458
 21
232.993
  0
LINE
  8
0
 10
63.3458
 20
232.993
 11
63.3988
 21
232.749
  0
LINE
  8
0
 10
63.3988
 20
232.749
 11
63.4167
 21
232.5
  0
LINE
  8
0
 10
63.4167
 20
232.5
 11
63.3988
 21
232.251
  0
LINE
  8
0
 10
63.3988
 20
232.251
 11
63.3458
 21
232.007
  0
LINE
  8
0
 10
63.3458
 20
232.007
 11
63.2585
 21
231.773
  0
LINE
  8
0
 10
63.2585
 20
231.773
 11
63.1389
 21
231.554
  0
LINE
  8
0
 10
63.1389
 20
231.554
 11
62.9892
 21
231.354
  0
LINE
  8
0
 10
62.9892
 20
231.354
 11
62.8127
 21
231.177
  0
LINE
  8
0
 10
62.8127
 20
231.177
 11
62.6128
 21
231.028
  0
LINE
  8
0
 10
62.6128
 20
231.028
 11
62.3936
 21
230.908
  0
LINE
  8
0
 10
62.3936
 20
230.908
 11
62.1597
 21
230.821
  0
LINE
  8
0
 10
62.1597
 20
230.821
 11
61.9157
 21
230.768
  0
LINE
  8
0
 10
61.9157
 20
230.768
 11
61.6667
 21
230.75
  0
LINE
  8
0
 10
61.6667
 20
230.75
 11
-56.6667
 21
230.75
  0
LINE
  8
0
 10
-210.186
 20
230.81
 11
-210.43
 21
230.855
  0
LINE
  8
0
 10
-210.43
 20
230.855
 11
-210.665
 21
230.935
  0
LINE
  8
0
 10
-210.665
 20
230.935
 11
-210.886
 21
231.049
  0
LINE
  8
0
 10
-210.886
 20
231.049
 11
-211.087
 21
231.193
  0
LINE
  8
0
 10
-211.087
 20
231.193
 11
-211.266
 21
231.366
  0
LINE
  8
0
 10
-211.266
 20
231.366
 11
-211.418
 21
231.562
  0
LINE
  8
0
 10
-211.418
 20
231.562
 11
-211.539
 21
231.778
  0
LINE
  8
0
 10
-211.539
 20
231.778
 11
-211.628
 21
232.01
  0
LINE
  8
0
 10
-211.628
 20
232.01
 11
-211.682
 21
232.252
  0
LINE
  8
0
 10
-211.682
 20
232.252
 11
-211.7
 21
232.5
  0
LINE
  8
0
 10
-211.7
 20
232.5
 11
-211.682
 21
232.748
  0
LINE
  8
0
 10
-211.682
 20
232.748
 11
-211.628
 21
232.99
  0
LINE
  8
0
 10
-211.628
 20
232.99
 11
-211.539
 21
233.222
  0
LINE
  8
0
 10
-211.539
 20
233.222
 11
-211.418
 21
233.438
  0
LINE
  8
0
 10
-211.418
 20
233.438
 11
-211.266
 21
233.634
  0
LINE
  8
0
 10
-211.266
 20
233.634
 11
-211.087
 21
233.807
  0
LINE
  8
0
 10
-211.087
 20
233.807
 11
-210.886
 21
233.951
  0
LINE
  8
0
 10
-210.886
 20
233.951
 11
-210.665
 21
234.065
  0
LINE
  8
0
 10
-210.665
 20
234.065
 11
-210.43
 21
234.145
  0
LINE
  8
0
 10
-210.43
 20
234.145
 11
-210.186
 21
234.19
  0
LINE
  8
0
 10
-210.186
 20
234.19
 11
-209.938
 21
234.199
  0
LINE
  8
0
 10
-209.938
 20
234.199
 11
-209.691
 21
234.172
  0
LINE
  8
0
 10
-209.691
 20
234.172
 11
-209.451
 21
234.109
  0
LINE
  8
0
 10
-209.451
 20
234.109
 11
-209.223
 21
234.012
  0
LINE
  8
0
 10
-209.223
 20
234.012
 11
-209.011
 21
233.883
  0
LINE
  8
0
 10
-209.011
 20
233.883
 11
-208.82
 21
233.724
  0
LINE
  8
0
 10
-208.82
 20
233.724
 11
-208.654
 21
233.539
  0
LINE
  8
0
 10
-208.654
 20
233.539
 11
-208.518
 21
233.332
  0
LINE
  8
0
 10
-208.518
 20
233.332
 11
-208.412
 21
233.107
  0
LINE
  8
0
 10
-208.412
 20
233.107
 11
-208.341
 21
232.87
  0
LINE
  8
0
 10
-208.341
 20
232.87
 11
-208.305
 21
232.624
  0
LINE
  8
0
 10
-208.305
 20
232.624
 11
-208.305
 21
232.376
  0
LINE
  8
0
 10
-208.305
 20
232.376
 11
-208.341
 21
232.13
  0
LINE
  8
0
 10
-208.341
 20
232.13
 11
-208.412
 21
231.893
  0
LINE
  8
0
 10
-208.412
 20
231.893
 11
-208.518
 21
231.668
  0
LINE
  8
0
 10
-208.518
 20
231.668
 11
-208.654
 21
231.461
  0
LINE
  8
0
 10
-208.654
 20
231.461
 11
-208.82
 21
231.276
  0
LINE
  8
0
 10
-208.82
 20
231.276
 11
-209.011
 21
231.117
  0
LINE
  8
0
 10
-209.011
 20
231.117
 11
-209.223
 21
230.988
  0
LINE
  8
0
 10
-209.223
 20
230.988
 11
-209.451
 21
230.891
  0
LINE
  8
0
 10
-209.451
 20
230.891
 11
-209.691
 21
230.828
  0
LINE
  8
0
 10
-209.691
 20
230.828
 11
-209.938
 21
230.801
  0
LINE
  8
0
 10
-209.938
 20
230.801
 11
-210.186
 21
230.81
  0
LINE
  8
0
 10
209.691
 20
230.828
 11
209.451
 21
230.891
  0
LINE
  8
0
 10
209.451
 20
230.891
 11
209.223
 21
230.988
  0
LINE
  8
0
 10
209.223
 20
230.988
 11
209.011
 21
231.117
  0
LINE
  8
0
 10
209.011
 20
231.117
 11
208.82
 21
231.276
  0
LINE
  8
0
 10
208.82
 20
231.276
 11
208.654
 21
231.461
  0
LINE
  8
0
 10
208.654
 20
231.461
 11
208.518
 21
231.668
  0
LINE
  8
0
 10
208.518
 20
231.668
 11
208.412
 21
231.893
  0
LINE
  8
0
 10
208.412
 20
231.893
 11
208.341
 21
232.13
  0
LINE
  8
0
 10
208.341
 20
232.13
 11
208.305
 21
232.376
  0
LINE
  8
0
 10
208.305
 20
232.376
 11
208.305
 21
232.624
  0
LINE
  8
0
 10
208.305
 20
232.624
 11
208.341
 21
232.87
  0
LINE
  8
0
 10
208.341
 20
232.87
 11
208.412
 21
233.107
  0
LINE
  8
0
 10
208.412
 20
233.107
 11
208.518
 21
233.332
  0
LINE
  8
0
 10
208.518
 20
233.332
 11
208.654
 21
233.539
  0
LINE
  8
0
 10
208.654
 20
233.539
 11
208.82
 21
233.724
  0
LINE
  8
0
 10
208.82
 20
233.724
 11
209.011
 21
233.883
  0
LINE
  8
0
 10
209.011
 20
233.883
 11
209.223
 21
234.012
  0
LINE
  8
0
 10
209.223
 20
234.012
 11
209.451
 21
234.109
  0
LINE
  8
0
 10
209.451
 20
234.109
 11
209.691
 21
234.172
  0
LINE
  8
0
 10
209.691
 20
234.172
 11
209.938
 21
234.199
  0
LINE
  8
0
 10
209.938
 20
234.199
 11
210.186
 21
234.19
  0
LINE
  8
0
 10
210.186
 20
234.19
 11
210.43
 21
234.145
  0
LINE
  8
0
 10
210.43
 20
234.145
 11
210.665
 21
234.065
  0
LINE
  8
0
 10
210.665
 20
234.065
 11
210.886
 21
233.951
  0
LINE
  8
0
 10
210.886
 20
233.951
 11
211.087
 21
233.807
  0
LINE
  8
0
 10
211.087
 20
233.807
 11
211.266
 21
233.634
  0
LINE
  8
0
 10
211.266
 20
233.634
 11
211.418
 21
233.438
  0
LINE
  8
0
 10
211.418
 20
233.438
 11
211.539
 21
233.222
  0
LINE
  8
0
 10
211.539
 20
233.222
 11
211.628
 21
232.99
  0
LINE
  8
0
 10
211.628
 20
232.99
 11
211.682
 21
232.748
  0
LINE
  8
0
 10
211.682
 20
232.748
 11
211.7
 21
232.5
  0
LINE
  8
0
 10
211.7
 20
232.5
 11
211.682
 21
232.252
  0
LINE
  8
0
 10
211.682
 20
232.252
 11
211.628
 21
232.01
  0
LINE
  8
0
 10
211.628
 20
232.01
 11
211.539
 21
231.778
  0
LINE
  8
0
 10
211.539
 20
231.778
 11
211.418
 21
231.562
  0
LINE
  8
0
 10
211.418
 20
231.562
 11
211.266
 21
231.366
  0
LINE
  8
0
 10
211.266
 20
231.366
 11
211.087
 21
231.193
  0
LINE
  8
0
 10
211.087
 20
231.193
 11
210.886
 21
231.049
  0
LINE
  8
0
 10
210.886
 20
231.049
 11
210.665
 21
230.935
  0
LINE
  8
0
 10
210.665
 20
230.935
 11
210.43
 21
230.855
  0
LINE
  8
0
 10
210.43
 20
230.855
 11
210.186
 21
230.81
  0
LINE
  8
0
 10
210.186
 20
230.81
 11
209.938
 21
230.801
  0
LINE
  8
0
 10
209.938
 20
230.801
 11
209.691
 21
230.828
  0
LINE
  8
0
 10
268.027
 20
229.355
 11
267.783
 21
229.391
  0
LINE
  8
0
 10
267.783
 20
229.391
 11
267.547
 21
229.464
  0
LINE
  8
0
 10
267.547
 20
229.464
 11
267.325
 21
229.571
  0
LINE
  8
0
 10
267.325
 20
229.571
 11
267.121
 21
229.71
  0
LINE
  8
0
 10
267.121
 20
229.71
 11
266.94
 21
229.878
  0
LINE
  8
0
 10
266.94
 20
229.878
 11
266.787
 21
230.071
  0
LINE
  8
0
 10
266.787
 20
230.071
 11
266.663
 21
230.284
  0
LINE
  8
0
 10
266.663
 20
230.284
 11
266.573
 21
230.514
  0
LINE
  8
0
 10
266.573
 20
230.514
 11
266.518
 21
230.754
  0
LINE
  8
0
 10
266.518
 20
230.754
 11
266.5
 21
231
  0
LINE
  8
0
 10
266.5
 20
231
 11
266.518
 21
231.246
  0
LINE
  8
0
 10
266.518
 20
231.246
 11
266.573
 21
231.486
  0
LINE
  8
0
 10
266.573
 20
231.486
 11
266.663
 21
231.716
  0
LINE
  8
0
 10
266.663
 20
231.716
 11
266.787
 21
231.929
  0
LINE
  8
0
 10
266.787
 20
231.929
 11
266.94
 21
232.122
  0
LINE
  8
0
 10
266.94
 20
232.122
 11
267.121
 21
232.29
  0
LINE
  8
0
 10
267.121
 20
232.29
 11
267.325
 21
232.429
  0
LINE
  8
0
 10
267.325
 20
232.429
 11
267.547
 21
232.536
  0
LINE
  8
0
 10
267.547
 20
232.536
 11
267.783
 21
232.609
  0
LINE
  8
0
 10
267.783
 20
232.609
 11
268.027
 21
232.645
  0
LINE
  8
0
 10
268.027
 20
232.645
 11
276.273
 21
232.645
  0
LINE
  8
0
 10
276.273
 20
232.645
 11
276.517
 21
232.609
  0
LINE
  8
0
 10
276.517
 20
232.609
 11
276.753
 21
232.536
  0
LINE
  8
0
 10
276.753
 20
232.536
 11
276.975
 21
232.429
  0
LINE
  8
0
 10
276.975
 20
232.429
 11
277.179
 21
232.29
  0
LINE
  8
0
 10
277.179
 20
232.29
 11
277.36
 21
232.122
  0
LINE
  8
0
 10
277.36
 20
232.122
 11
277.513
 21
231.929
  0
LINE
  8
0
 10
277.513
 20
231.929
 11
277.637
 21
231.716
  0
LINE
  8
0
 10
277.637
 20
231.716
 11
277.727
 21
231.486
  0
LINE
  8
0
 10
277.727
 20
231.486
 11
277.782
 21
231.246
  0
LINE
  8
0
 10
277.782
 20
231.246
 11
277.8
 21
231
  0
LINE
  8
0
 10
277.8
 20
231
 11
277.782
 21
230.754
  0
LINE
  8
0
 10
277.782
 20
230.754
 11
277.727
 21
230.514
  0
LINE
  8
0
 10
277.727
 20
230.514
 11
277.637
 21
230.284
  0
LINE
  8
0
 10
277.637
 20
230.284
 11
277.513
 21
230.071
  0
LINE
  8
0
 10
277.513
 20
230.071
 11
277.36
 21
229.878
  0
LINE
  8
0
 10
277.36
 20
229.878
 11
277.179
 21
229.71
  0
LINE
  8
0
 10
277.179
 20
229.71
 11
276.975
 21
229.571
  0
LINE
  8
0
 10
276.975
 20
229.571
 11
276.753
 21
229.464
  0
LINE
  8
0
 10
276.753
 20
229.464
 11
276.517
 21
229.391
  0
LINE
  8
0
 10
276.517
 20
229.391
 11
276.273
 21
229.355
  0
LINE
  8
0
 10
276.273
 20
229.355
 11
268.027
 21
229.355
  0
LINE
  8
0
 10
299.027
 20
229.355
 11
298.783
 21
229.391
  0
LINE
  8
0
 10
298.783
 20
229.391
 11
298.547
 21
229.464
  0
LINE
  8
0
 10
298.547
 20
229.464
 11
298.325
 21
229.571
  0
LINE
  8
0
 10
298.325
 20
229.571
 11
298.121
 21
229.71
  0
LINE
  8
0
 10
298.121
 20
229.71
 11
297.94
 21
229.878
  0
LINE
  8
0
 10
297.94
 20
229.878
 11
297.787
 21
230.071
  0
LINE
  8
0
 10
297.787
 20
230.071
 11
297.663
 21
230.284
  0
LINE
  8
0
 10
297.663
 20
230.284
 11
297.573
 21
230.514
  0
LINE
  8
0
 10
297.573
 20
230.514
 11
297.518
 21
230.754
  0
LINE
  8
0
 10
297.518
 20
230.754
 11
297.5
 21
231
  0
LINE
  8
0
 10
297.5
 20
231
 11
297.518
 21
231.246
  0
LINE
  8
0
 10
297.518
 20
231.246
 11
297.573
 21
231.486
  0
LINE
  8
0
 10
297.573
 20
231.486
 11
297.663
 21
231.716
  0
LINE
  8
0
 10
297.663
 20
231.716
 11
297.787
 21
231.929
  0
LINE
  8
0
 10
297.787
 20
231.929
 11
297.94
 21
232.122
  0
LINE
  8
0
 10
297.94
 20
232.122
 11
298.121
 21
232.29
  0
LINE
  8
0
 10
298.121
 20
232.29
 11
298.325
 21
232.429
  0
LINE
  8
0
 10
298.325
 20
232.429
 11
298.547
 21
232.536
  0
LINE
  8
0
 10
298.547
 20
232.536
 11
298.783
 21
232.609
  0
LINE
  8
0
 10
298.783
 20
232.609
 11
299.027
 21
232.645
  0
LINE
  8
0
 10
299.027
 20
232.645
 11
307.273
 21
232.645
  0
LINE
  8
0
 10
307.273
 20
232.645
 11
307.517
 21
232.609
  0
LINE
  8
0
 10
307.517
 20
232.609
 11
307.753
 21
232.536
  0
LINE
  8
0
 10
307.753
 20
232.536
 11
307.975
 21
232.429
  0
LINE
  8
0
 10
307.975
 20
232.429
 11
308.179
 21
232.29
  0
LINE
  8
0
 10
308.179
 20
232.29
 11
308.36
 21
232.122
  0
LINE
  8
0
 10
308.36
 20
232.122
 11
308.513
 21
231.929
  0
LINE
  8
0
 10
308.513
 20
231.929
 11
308.637
 21
231.716
  0
LINE
  8
0
 10
308.637
 20
231.716
 11
308.727
 21
231.486
  0
LINE
  8
0
 10
308.727
 20
231.486
 11
308.782
 21
231.246
  0
LINE
  8
0
 10
308.782
 20
231.246
 11
308.8
 21
231
  0
LINE
  8
0
 10
308.8
 20
231
 11
308.782
 21
230.754
  0
LINE
  8
0
 10
308.782
 20
230.754
 11
308.727
 21
230.514
  0
LINE
  8
0
 10
308.727
 20
230.514
 11
308.637
 21
230.284
  0
LINE
  8
0
 10
308.637
 20
230.284
 11
308.513
 21
230.071
  0
LINE
  8
0
 10
308.513
 20
230.071
 11
308.36
 21
229.878
  0
LINE
  8
0
 10
308.36
 20
229.878
 11
308.179
 21
229.71
  0
LINE
  8
0
 10
308.179
 20
229.71
 11
307.975
 21
229.571
  0
LINE
  8
0
 10
307.975
 20
229.571
 11
307.753
 21
229.464
  0
LINE
  8
0
 10
307.753
 20
229.464
 11
307.517
 21
229.391
  0
LINE
  8
0
 10
307.517
 20
229.391
 11
307.273
 21
229.355
  0
LINE
  8
0
 10
307.273
 20
229.355
 11
299.027
 21
229.355
  0
LINE
  8
0
 10
283.15
 20
203
 11
281.843
 21
203.068
  0
LINE
  8
0
 10
281.843
 20
203.068
 11
280.551
 21
203.273
  0
LINE
  8
0
 10
280.551
 20
203.273
 11
279.287
 21
203.612
  0
LINE
  8
0
 10
279.287
 20
203.612
 11
278.066
 21
204.081
  0
LINE
  8
0
 10
278.066
 20
204.081
 11
276.9
 21
204.675
  0
LINE
  8
0
 10
276.9
 20
204.675
 11
275.803
 21
205.387
  0
LINE
  8
0
 10
275.803
 20
205.387
 11
274.786
 21
206.211
  0
LINE
  8
0
 10
274.786
 20
206.211
 11
273.861
 21
207.136
  0
LINE
  8
0
 10
273.861
 20
207.136
 11
273.037
 21
208.153
  0
LINE
  8
0
 10
273.037
 20
208.153
 11
272.325
 21
209.25
  0
LINE
  8
0
 10
272.325
 20
209.25
 11
271.731
 21
210.416
  0
LINE
  8
0
 10
271.731
 20
210.416
 11
271.262
 21
211.637
  0
LINE
  8
0
 10
271.262
 20
211.637
 11
270.923
 21
212.901
  0
LINE
  8
0
 10
270.923
 20
212.901
 11
270.718
 21
214.193
  0
LINE
  8
0
 10
270.718
 20
214.193
 11
270.65
 21
215.5
  0
LINE
  8
0
 10
270.65
 20
215.5
 11
270.718
 21
216.807
  0
LINE
  8
0
 10
270.718
 20
216.807
 11
270.923
 21
218.099
  0
LINE
  8
0
 10
270.923
 20
218.099
 11
271.262
 21
219.363
  0
LINE
  8
0
 10
271.262
 20
219.363
 11
271.731
 21
220.584
  0
LINE
  8
0
 10
271.731
 20
220.584
 11
272.325
 21
221.75
  0
LINE
  8
0
 10
272.325
 20
221.75
 11
273.037
 21
222.847
  0
LINE
  8
0
 10
273.037
 20
222.847
 11
273.861
 21
223.864
  0
LINE
  8
0
 10
273.861
 20
223.864
 11
274.786
 21
224.789
  0
LINE
  8
0
 10
274.786
 20
224.789
 11
275.803
 21
225.613
  0
LINE
  8
0
 10
275.803
 20
225.613
 11
276.9
 21
226.325
  0
LINE
  8
0
 10
276.9
 20
226.325
 11
278.066
 21
226.919
  0
LINE
  8
0
 10
278.066
 20
226.919
 11
279.287
 21
227.388
  0
LINE
  8
0
 10
279.287
 20
227.388
 11
280.551
 21
227.727
  0
LINE
  8
0
 10
280.551
 20
227.727
 11
281.843
 21
227.932
  0
LINE
  8
0
 10
281.843
 20
227.932
 11
283.15
 21
228
  0
LINE
  8
0
 10
283.15
 20
228
 11
291.15
 21
228
  0
LINE
  8
0
 10
291.15
 20
228
 11
292.457
 21
227.932
  0
LINE
  8
0
 10
292.457
 20
227.932
 11
293.749
 21
227.727
  0
LINE
  8
0
 10
293.749
 20
227.727
 11
295.013
 21
227.388
  0
LINE
  8
0
 10
295.013
 20
227.388
 11
296.234
 21
226.919
  0
LINE
  8
0
 10
296.234
 20
226.919
 11
297.4
 21
226.325
  0
LINE
  8
0
 10
297.4
 20
226.325
 11
298.497
 21
225.613
  0
LINE
  8
0
 10
298.497
 20
225.613
 11
299.514
 21
224.789
  0
LINE
  8
0
 10
299.514
 20
224.789
 11
300.439
 21
223.864
  0
LINE
  8
0
 10
300.439
 20
223.864
 11
301.263
 21
222.847
  0
LINE
  8
0
 10
301.263
 20
222.847
 11
301.975
 21
221.75
  0
LINE
  8
0
 10
301.975
 20
221.75
 11
302.569
 21
220.584
  0
LINE
  8
0
 10
302.569
 20
220.584
 11
303.038
 21
219.363
  0
LINE
  8
0
 10
303.038
 20
219.363
 11
303.377
 21
218.099
  0
LINE
  8
0
 10
303.377
 20
218.099
 11
303.582
 21
216.807
  0
LINE
  8
0
 10
303.582
 20
216.807
 11
303.65
 21
215.5
  0
LINE
  8
0
 10
303.65
 20
215.5
 11
303.582
 21
214.193
  0
LINE
  8
0
 10
303.582
 20
214.193
 11
303.377
 21
212.901
  0
LINE
  8
0
 10
303.377
 20
212.901
 11
303.038
 21
211.637
  0
LINE
  8
0
 10
303.038
 20
211.637
 11
302.569
 21
210.416
  0
LINE
  8
0
 10
302.569
 20
210.416
 11
301.975
 21
209.25
  0
LINE
  8
0
 10
301.975
 20
209.25
 11
301.263
 21
208.153
  0
LINE
  8
0
 10
301.263
 20
208.153
 11
300.439
 21
207.136
  0
LINE
  8
0
 10
300.439
 20
207.136
 11
299.514
 21
206.211
  0
LINE
  8
0
 10
299.514
 20
206.211
 11
298.497
 21
205.387
  0
LINE
  8
0
 10
298.497
 20
205.387
 11
297.4
 21
204.675
  0
LINE
  8
0
 10
297.4
 20
204.675
 11
296.234
 21
204.081
  0
LINE
  8
0
 10
296.234
 20
204.081
 11
295.013
 21
203.612
  0
LINE
  8
0
 10
295.013
 20
203.612
 11
293.749
 21
203.273
  0
LINE
  8
0
 10
293.749
 20
203.273
 11
292.457
 21
203.068
  0
LINE
  8
0
 10
292.457
 20
203.068
 11
291.15
 21
203
  0
LINE
  8
0
 10
291.15
 20
203
 11
283.15
 21
203
  0
LINE
  8
0
 10
-229
 20
-222.5
 11
-229.223
 21
-222.475
  0
LINE
  8
0
 10
-229.223
 20
-222.475
 11
-229.434
 21
-222.401
  0
LINE
  8
0
 10
-229.434
 20
-222.401
 11
-229.623
 21
-222.282
  0
LINE
  8
0
 10
-229.623
 20
-222.282
 11
-229.782
 21
-222.123
  0
LINE
  8
0
 10
-229.782
 20
-222.123
 11
-229.901
 21
-221.934
  0
LINE
  8
0
 10
-229.901
 20
-221.934
 11
-229.975
 21
-221.723
  0
LINE
  8
0
 10
-229.975
 20
-221.723
 11
-230
 21
-221.5
  0
LINE
  8
0
 10
-230
 20
-221.5
 11
-230
 21
221.5
  0
LINE
  8
0
 10
-230
 20
221.5
 11
-229.975
 21
221.723
  0
LINE
  8
0
 10
-229.975
 20
221.723
 11
-229.901
 21
221.934
  0
LINE
  8
0
 10
-229.901
 20
221.934
 11
-229.782
 21
222.123
  0
LINE
  8
0
 10
-229.782
 20
222.123
 11
-229.623
 21
222.282
  0
LINE
  8
0
 10
-229.623
 20
222.282
 11
-229.434
 21
222.401
  0
LINE
  8
0
 10
-229.434
 20
222.401
 11
-229.223
 21
222.475
  0
LINE
  8
0
 10
-229.223
 20
222.475
 11
-229
 21
222.5
  0
LINE
  8
0
 10
-229
 20
222.5
 11
229
 21
222.5
  0
LINE
  8
0
 10
229
 20
222.5
 11
229.223
 21
222.475
  0
LINE
  8
0
 10
229.223
 20
222.475
 11
229.434
 21
222.401
  0
LINE
  8
0
 10
229.434
 20
222.401
 11
229.623
 21
222.282
  0
LINE
  8
0
 10
229.623
 20
222.282
 11
229.782
 21
222.123
  0
LINE
  8
0
 10
229.782
 20
222.123
 11
229.901
 21
221.934
  0
LINE
  8
0
 10
229.901
 20
221.934
 11
229.975
 21
221.723
  0
LINE
  8
0
 10
229.975
 20
221.723
 11
230
 21
221.5
  0
LINE
  8
0
 10
230
 20
221.5
 11
230
 21
-221.5
  0
LINE
  8
0
 10
230
 20
-221.5
 11
229.975
 21
-221.723
  0
LINE
  8
0
 10
229.975
 20
-221.723
 11
229.901
 21
-221.934
  0
LINE
  8
0
 10
229.901
 20
-221.934
 11
229.782
 21
-222.123
  0
LINE
  8
0
 10
229.782
 20
-222.123
 11
229.623
 21
-222.282
  0
LINE
  8
0
 10
229.623
 20
-222.282
 11
229.434
 21
-222.401
  0
LINE
  8
0
 10
229.434
 20
-222.401
 11
229.223
 21
-222.475
  0
LINE
  8
0
 10
229.223
 20
-222.475
 11
229
 21
-222.5
  0
LINE
  8
0
 10
229
 20
-222.5
 11
-229
 21
-222.5
  0
LINE
  8
0
 10
-289.894
 20
214.274
 11
-290.128
 21
214.345
  0
LINE
  8
0
 10
-290.128
 20
214.345
 11
-290.344
 21
214.461
  0
LINE
  8
0
 10
-290.344
 20
214.461
 11
-290.534
 21
214.616
  0
LINE
  8
0
 10
-290.534
 20
214.616
 11
-290.689
 21
214.806
  0
LINE
  8
0
 10
-290.689
 20
214.806
 11
-290.805
 21
215.022
  0
LINE
  8
0
 10
-290.805
 20
215.022
 11
-290.876
 21
215.256
  0
LINE
  8
0
 10
-290.876
 20
215.256
 11
-290.9
 21
215.5
  0
LINE
  8
0
 10
-290.9
 20
215.5
 11
-290.876
 21
215.744
  0
LINE
  8
0
 10
-290.876
 20
215.744
 11
-290.805
 21
215.978
  0
LINE
  8
0
 10
-290.805
 20
215.978
 11
-290.689
 21
216.194
  0
LINE
  8
0
 10
-290.689
 20
216.194
 11
-290.534
 21
216.384
  0
LINE
  8
0
 10
-290.534
 20
216.384
 11
-290.344
 21
216.539
  0
LINE
  8
0
 10
-290.344
 20
216.539
 11
-290.128
 21
216.655
  0
LINE
  8
0
 10
-290.128
 20
216.655
 11
-289.894
 21
216.726
  0
LINE
  8
0
 10
-289.894
 20
216.726
 11
-289.65
 21
216.75
  0
LINE
  8
0
 10
-289.65
 20
216.75
 11
-289.406
 21
216.726
  0
LINE
  8
0
 10
-289.406
 20
216.726
 11
-289.172
 21
216.655
  0
LINE
  8
0
 10
-289.172
 20
216.655
 11
-288.956
 21
216.539
  0
LINE
  8
0
 10
-288.956
 20
216.539
 11
-288.766
 21
216.384
  0
LINE
  8
0
 10
-288.766
 20
216.384
 11
-288.611
 21
216.194
  0
LINE
  8
0
 10
-288.611
 20
216.194
 11
-288.495
 21
215.978
  0
LINE
  8
0
 10
-288.495
 20
215.978
 11
-288.424
 21
215.744
  0
LINE
  8
0
 10
-288.424
 20
215.744
 11
-288.4
 21
215.5
  0
LINE
  8
0
 10
-288.4
 20
215.5
 11
-288.424
 21
215.256
  0
LINE
  8
0
 10
-288.424
 20
215.256
 11
-288.495
 21
215.022
  0
LINE
  8
0
 10
-288.495
 20
215.022
 11
-288.611
 21
214.806
  0
LINE
  8
0
 10
-288.611
 20
214.806
 11
-288.766
 21
214.616
  0
LINE
  8
0
 10
-288.766
 20
214.616
 11
-288.956
 21
214.461
  0
LINE
  8
0
 10
-288.956
 20
214.461
 11
-289.172
 21
214.345
  0
LINE
  8
0
 10
-289.172
 20
214.345
 11
-289.406
 21
214.274
  0
LINE
  8
0
 10
-289.406
 20
214.274
 11
-289.65
 21
214.25
  0
LINE
  8
0
 10
-289.65
 20
214.25
 11
-289.894
 21
214.274
  0
LINE
  8
0
 10
-274.744
 20
203.274
 11
-274.978
 21
203.345
  0
LINE
  8
0
 10
-274.978
 20
203.345
 11
-275.194
 21
203.461
  0
LINE
  8
0
 10
-275.194
 20
203.461
 11
-275.384
 21
203.616
  0
LINE
  8
0
 10
-275.384
 20
203.616
 11
-275.539
 21
203.806
  0
LINE
  8
0
 10
-275.539
 20
203.806
 11
-275.655
 21
204.022
  0
LINE
  8
0
 10
-275.655
 20
204.022
 11
-275.726
 21
204.256
  0
LINE
  8
0
 10
-275.726
 20
204.256
 11
-275.75
 21
204.5
  0
LINE
  8
0
 10
-275.75
 20
204.5
 11
-275.726
 21
204.744
  0
LINE
  8
0
 10
-275.726
 20
204.744
 11
-275.655
 21
204.978
  0
LINE
  8
0
 10
-275.655
 20
204.978
 11
-275.539
 21
205.194
  0
LINE
  8
0
 10
-275.539
 20
205.194
 11
-275.384
 21
205.384
  0
LINE
  8
0
 10
-275.384
 20
205.384
 11
-275.194
 21
205.539
  0
LINE
  8
0
 10
-275.194
 20
205.539
 11
-274.978
 21
205.655
  0
LINE
  8
0
 10
-274.978
 20
205.655
 11
-274.744
 21
205.726
  0
LINE
  8
0
 10
-274.744
 20
205.726
 11
-274.5
 21
205.75
  0
LINE
  8
0
 10
-274.5
 20
205.75
 11
-274.256
 21
205.726
  0
LINE
  8
0
 10
-274.256
 20
205.726
 11
-274.022
 21
205.655
  0
LINE
  8
0
 10
-274.022
 20
205.655
 11
-273.806
 21
205.539
  0
LINE
  8
0
 10
-273.806
 20
205.539
 11
-273.616
 21
205.384
  0
LINE
  8
0
 10
-273.616
 20
205.384
 11
-273.461
 21
205.194
  0
LINE
  8
0
 10
-273.461
 20
205.194
 11
-273.345
 21
204.978
  0
LINE
  8
0
 10
-273.345
 20
204.978
 11
-273.274
 21
204.744
  0
LINE
  8
0
 10
-273.274
 20
204.744
 11
-273.25
 21
204.5
  0
LINE
  8
0
 10
-273.25
 20
204.5
 11
-273.274
 21
204.256
  0
LINE
  8
0
 10
-273.274
 20
204.256
 11
-273.345
 21
204.022
  0
LINE
  8
0
 10
-273.345
 20
204.022
 11
-273.461
 21
203.806
  0
LINE
  8
0
 10
-273.461
 20
203.806
 11
-273.616
 21
203.616
  0
LINE
  8
0
 10
-273.616
 20
203.616
 11
-273.806
 21
203.461
  0
LINE
  8
0
 10
-273.806
 20
203.461
 11
-274.022
 21
203.345
  0
LINE
  8
0
 10
-274.022
 20
203.345
 11
-274.256
 21
203.274
  0
LINE
  8
0
 10
-274.256
 20
203.274
 11
-274.5
 21
203.25
  0
LINE
  8
0
 10
-274.5
 20
203.25
 11
-274.744
 21
203.274
  0
LINE
  8
0
 10
-240.186
 20
200.81
 11
-240.43
 21
200.855
  0
LINE
  8
0
 10
-240.43
 20
200.855
 11
-240.665
 21
200.935
  0
LINE
  8
0
 10
-240.665
 20
200.935
 11
-240.886
 21
201.049
  0
LINE
  8
0
 10
-240.886
 20
201.049
 11
-241.087
 21
201.193
  0
LINE
  8
0
 10
-241.087
 20
201.193
 11
-241.266
 21
201.366
  0
LINE
  8
0
 10
-241.266
 20
201.366
 11
-241.418
 21
201.562
  0
LINE
  8
0
 10
-241.418
 20
201.562
 11
-241.539
 21
201.778
  0
LINE
  8
0
 10
-241.539
 20
201.778
 11
-241.628
 21
202.01
  0
LINE
  8
0
 10
-241.628
 20
202.01
 11
-241.682
 21
202.252
  0
LINE
  8
0
 10
-241.682
 20
202.252
 11
-241.7
 21
202.5
  0
LINE
  8
0
 10
-241.7
 20
202.5
 11
-241.682
 21
202.748
  0
LINE
  8
0
 10
-241.682
 20
202.748
 11
-241.628
 21
202.99
  0
LINE
  8
0
 10
-241.628
 20
202.99
 11
-241.539
 21
203.222
  0
LINE
  8
0
 10
-241.539
 20
203.222
 11
-241.418
 21
203.438
  0
LINE
  8
0
 10
-241.418
 20
203.438
 11
-241.266
 21
203.634
  0
LINE
  8
0
 10
-241.266
 20
203.634
 11
-241.087
 21
203.807
  0
LINE
  8
0
 10
-241.087
 20
203.807
 11
-240.886
 21
203.951
  0
LINE
  8
0
 10
-240.886
 20
203.951
 11
-240.665
 21
204.065
  0
LINE
  8
0
 10
-240.665
 20
204.065
 11
-240.43
 21
204.145
  0
LINE
  8
0
 10
-240.43
 20
204.145
 11
-240.186
 21
204.19
  0
LINE
  8
0
 10
-240.186
 20
204.19
 11
-239.938
 21
204.199
  0
LINE
  8
0
 10
-239.938
 20
204.199
 11
-239.691
 21
204.172
  0
LINE
  8
0
 10
-239.691
 20
204.172
 11
-239.451
 21
204.109
  0
LINE
  8
0
 10
-239.451
 20
204.109
 11
-239.223
 21
204.012
  0
LINE
  8
0
 10
-239.223
 20
204.012
 11
-239.011
 21
203.883
  0
LINE
  8
0
 10
-239.011
 20
203.883
 11
-238.82
 21
203.724
  0
LINE
  8
0
 10
-238.82
 20
203.724
 11
-238.654
 21
203.539
  0
LINE
  8
0
 10
-238.654
 20
203.539
 11
-238.518
 21
203.332
  0
LINE
  8
0
 10
-238.518
 20
203.332
 11
-238.412
 21
203.107
  0
LINE
  8
0
 10
-238.412
 20
203.107
 11
-238.341
 21
202.87
  0
LINE
  8
0
 10
-238.341
 20
202.87
 11
-238.305
 21
202.624
  0
LINE
  8
0
 10
-238.305
 20
202.624
 11
-238.305
 21
202.376
  0
LINE
  8
0
 10
-238.305
 20
202.376
 11
-238.341
 21
202.13
  0
LINE
  8
0
 10
-238.341
 20
202.13
 11
-238.412
 21
201.893
  0
LINE
  8
0
 10
-238.412
 20
201.893
 11
-238.518
 21
201.668
  0
LINE
  8
0
 10
-238.518
 20
201.668
 11
-238.654
 21
201.461
  0
LINE
  8
0
 10
-238.654
 20
201.461
 11
-238.82
 21
201.276
  0
LINE
  8
0
 10
-238.82
 20
201.276
 11
-239.011
 21
201.117
  0
LINE
  8
0
 10
-239.011
 20
201.117
 11
-239.223
 21
200.988
  0
LINE
  8
0
 10
-239.223
 20
200.988
 11
-239.451
 21
200.891
  0
LINE
  8
0
 10
-239.451
 20
200.891
 11
-239.691
 21
200.828
  0
LINE
  8
0
 10
-239.691
 20
200.828
 11
-239.938
 21
200.801
  0
LINE
  8
0
 10
-239.938
 20
200.801
 11
-240.186
 21
200.81
  0
LINE
  8
0
 10
239.691
 20
200.828
 11
239.451
 21
200.891
  0
LINE
  8
0
 10
239.451
 20
200.891
 11
239.223
 21
200.988
  0
LINE
  8
0
 10
239.223
 20
200.988
 11
239.011
 21
201.117
  0
LINE
  8
0
 10
239.011
 20
201.117
 11
238.82
 21
201.276
  0
LINE
  8
0
 10
238.82
 20
201.276
 11
238.654
 21
201.461
  0
LINE
  8
0
 10
238.654
 20
201.461
 11
238.518
 21
201.668
  0
LINE
  8
0
 10
238.518
 20
201.668
 11
238.412
 21
201.893
  0
LINE
  8
0
 10
238.412
 20
201.893
 11
238.341
 21
202.13
  0
LINE
  8
0
 10
238.341
 20
202.13
 11
238.305
 21
202.376
  0
LINE
  8
0
 10
238.305
 20
202.376
 11
238.305
 21
202.624
  0
LINE
  8
0
 10
238.305
 20
202.624
 11
238.341
 21
202.87
  0
LINE
  8
0
 10
238.341
 20
202.87
 11
238.412
 21
203.107
  0
LINE
  8
0
 10
238.412
 20
203.107
 11
238.518
 21
203.332
  0
LINE
  8
0
 10
238.518
 20
203.332
 11
238.654
 21
203.539
  0
LINE
  8
0
 10
238.654
 20
203.539
 11
238.82
 21
203.724
  0
LINE
  8
0
 10
238.82
 20
203.724
 11
239.011
 21
203.883
  0
LINE
  8
0
 10
239.011
 20
203.883
 11
239.223
 21
204.012
  0
LINE
  8
0
 10
239.223
 20
204.012
 11
239.451
 21
204.109
  0
LINE
  8
0
 10
239.451
 20
204.109
 11
239.691
 21
204.172
  0
LINE
  8
0
 10
239.691
 20
204.172
 11
239.938
 21
204.199
  0
LINE
  8
0
 10
239.938
 20
204.199
 11
240.186
 21
204.19
  0
LINE
  8
0
 10
240.186
 20
204.19
 11
240.43
 21
204.145
  0
LINE
  8
0
 10
240.43
 20
204.145
 11
240.665
 21
204.065
  0
LINE
  8
0
 10
240.665
 20
204.065
 11
240.886
 21
203.951
  0
LINE
  8
0
 10
240.886
 20
203.951
 11
241.087
 21
203.807
  0
LINE
  8
0
 10
241.087
 20
203.807
 11
241.266
 21
203.634
  0
LINE
  8
0
 10
241.266
 20
203.634
 11
241.418
 21
203.438
  0
LINE
  8
0
 10
241.418
 20
203.438
 11
241.539
 21
203.222
  0
LINE
  8
0
 10
241.539
 20
203.222
 11
241.628
 21
202.99
  0
LINE
  8
0
 10
241.628
 20
202.99
 11
241.682
 21
202.748
  0
LINE
  8
0
 10
241.682
 20
202.748
 11
241.7
 21
202.5
  0
LINE
  8
0
 10
241.7
 20
202.5
 11
241.682
 21
202.252
  0
LINE
  8
0
 10
241.682
 20
202.252
 11
241.628
 21
202.01
  0
LINE
  8
0
 10
241.628
 20
202.01
 11
241.539
 21
201.778
  0
LINE
  8
0
 10
241.539
 20
201.778
 11
241.418
 21
201.562
  0
LINE
  8
0
 10
241.418
 20
201.562
 11
241.266
 21
201.366
  0
LINE
  8
0
 10
241.266
 20
201.366
 11
241.087
 21
201.193
  0
LINE
  8
0
 10
241.087
 20
201.193
 11
240.886
 21
201.049
  0
LINE
  8
0
 10
240.886
 20
201.049
 11
240.665
 21
200.935
  0
LINE
  8
0
 10
240.665
 20
200.935
 11
240.43
 21
200.855
  0
LINE
  8
0
 10
240.43
 20
200.855
 11
240.186
 21
200.81
  0
LINE
  8
0
 10
240.186
 20
200.81
 11
239.938
 21
200.801
  0
LINE
  8
0
 10
239.938
 20
200.801
 11
239.691
 21
200.828
  0
LINE
  8
0
 10
268.027
 20
198.355
 11
267.783
 21
198.391
  0
LINE
  8
0
 10
267.783
 20
198.391
 11
267.547
 21
198.464
  0
LINE
  8
0
 10
267.547
 20
198.464
 11
267.325
 21
198.571
  0
LINE
  8
0
 10
267.325
 20
198.571
 11
267.121
 21
198.71
  0
LINE
  8
0
 10
267.121
 20
198.71
 11
266.94
 21
198.878
  0
LINE
  8
0
 10
266.94
 20
198.878
 11
266.787
 21
199.071
  0
LINE
  8
0
 10
266.787
 20
199.071
 11
266.663
 21
199.284
  0
LINE
  8
0
 10
266.663
 20
199.284
 11
266.573
 21
199.514
  0
LINE
  8
0
 10
266.573
 20
199.514
 11
266.518
 21
199.754
  0
LINE
  8
0
 10
266.518
 20
199.754
 11
266.5
 21
200
  0
LINE
  8
0
 10
266.5
 20
200
 11
266.518
 21
200.246
  0
LINE
  8
0
 10
266.518
 20
200.246
 11
266.573
 21
200.486
  0
LINE
  8
0
 10
266.573
 20
200.486
 11
266.663
 21
200.716
  0
LINE
  8
0
 10
266.663
 20
200.716
 11
266.787
 21
200.929
  0
LINE
  8
0
 10
266.787
 20
200.929
 11
266.94
 21
201.122
  0
LINE
  8
0
 10
266.94
 20
201.122
 11
267.121
 21
201.29
  0
LINE
  8
0
 10
267.121
 20
201.29
 11
267.325
 21
201.429
  0
LINE
  8
0
 10
267.325
 20
201.429
 11
267.547
 21
201.536
  0
LINE
  8
0
 10
267.547
 20
201.536
 11
267.783
 21
201.609
  0
LINE
  8
0
 10
267.783
 20
201.609
 11
268.027
 21
201.645
  0
LINE
  8
0
 10
268.027
 20
201.645
 11
276.273
 21
201.645
  0
LINE
  8
0
 10
276.273
 20
201.645
 11
276.517
 21
201.609
  0
LINE
  8
0
 10
276.517
 20
201.609
 11
276.753
 21
201.536
  0
LINE
  8
0
 10
276.753
 20
201.536
 11
276.975
 21
201.429
  0
LINE
  8
0
 10
276.975
 20
201.429
 11
277.179
 21
201.29
  0
LINE
  8
0
 10
277.179
 20
201.29
 11
277.36
 21
201.122
  0
LINE
  8
0
 10
277.36
 20
201.122
 11
277.513
 21
200.929
  0
LINE
  8
0
 10
277.513
 20
200.929
 11
277.637
 21
200.716
  0
LINE
  8
0
 10
277.637
 20
200.716
 11
277.727
 21
200.486
  0
LINE
  8
0
 10
277.727
 20
200.486
 11
277.782
 21
200.246
  0
LINE
  8
0
 10
277.782
 20
200.246
 11
277.8
 21
200
  0
LINE
  8
0
 10
277.8
 20
200
 11
277.782
 21
199.754
  0
LINE
  8
0
 10
277.782
 20
199.754
 11
277.727
 21
199.514
  0
LINE
  8
0
 10
277.727
 20
199.514
 11
277.637
 21
199.284
  0
LINE
  8
0
 10
277.637
 20
199.284
 11
277.513
 21
199.071
  0
LINE
  8
0
 10
277.513
 20
199.071
 11
277.36
 21
198.878
  0
LINE
  8
0
 10
277.36
 20
198.878
 11
277.179
 21
198.71
  0
LINE
  8
0
 10
277.179
 20
198.71
 11
276.975
 21
198.571
  0
LINE
  8
0
 10
276.975
 20
198.571
 11
276.753
 21
198.464
  0
LINE
  8
0
 10
276.753
 20
198.464
 11
276.517
 21
198.391
  0
LINE
  8
0
 10
276.517
 20
198.391
 11
276.273
 21
198.355
  0
LINE
  8
0
 10
276.273
 20
198.355
 11
268.027
 21
198.355
  0
LINE
  8
0
 10
299.027
 20
198.355
 11
298.783
 21
198.391
  0
LINE
  8
0
 10
298.783
 20
198.391
 11
298.547
 21
198.464
  0
LINE
  8
0
 10
298.547
 20
198.464
 11
298.325
 21
198.571
  0
LINE
  8
0
 10
298.325
 20
198.571
 11
298.121
 21
198.71
  0
LINE
  8
0
 10
298.121
 20
198.71
 11
297.94
 21
198.878
  0
LINE
  8
0
 10
297.94
 20
198.878
 11
297.787
 21
199.071
  0
LINE
  8
0
 10
297.787
 20
199.071
 11
297.663
 21
199.284
  0
LINE
  8
0
 10
297.663
 20
199.284
 11
297.573
 21
199.514
  0
LINE
  8
0
 10
297.573
 20
199.514
 11
297.518
 21
199.754
  0
LINE
  8
0
 10
297.518
 20
199.754
 11
297.5
 21
200
  0
LINE
  8
0
 10
297.5
 20
200
 11
297.518
 21
200.246
  0
LINE
  8
0
 10
297.518
 20
200.246
 11
297.573
 21
200.486
  0
LINE
  8
0
 10
297.573
 20
200.486
 11
297.663
 21
200.716
  0
LINE
  8
0
 10
297.663
 20
200.716
 11
297.787
 21
200.929
  0
LINE
  8
0
 10
297.787
 20
200.929
 11
297.94
 21
201.122
  0
LINE
  8
0
 10
297.94
 20
201.122
 11
298.121
 21
201.29
  0
LINE
  8
0
 10
298.121
 20
201.29
 11
298.325
 21
201.429
  0
LINE
  8
0
 10
298.325
 20
201.429
 11
298.547
 21
201.536
  0
LINE
  8
0
 10
298.547
 20
201.536
 11
298.783
 21
201.609
  0
LINE
  8
0
 10
298.783
 20
201.609
 11
299.027
 21
201.645
  0
LINE
  8
0
 10
299.027
 20
201.645
 11
307.273
 21
201.645
  0
LINE
  8
0
 10
307.273
 20
201.645
 11
307.517
 21
201.609
  0
LINE
  8
0
 10
307.517
 20
201.609
 11
307.753
 21
201.536
  0
LINE
  8
0
 10
307.753
 20
201.536
 11
307.975
 21
201.429
  0
LINE
  8
0
 10
307.975
 20
201.429
 11
308.179
 21
201.29
  0
LINE
  8
0
 10
308.179
 20
201.29
 11
308.36
 21
201.122
  0
LINE
  8
0
 10
308.36
 20
201.122
 11
308.513
 21
200.929
  0
LINE
  8
0
 10
308.513
 20
200.929
 11
308.637
 21
200.716
  0
LINE
  8
0
 10
308.637
 20
200.716
 11
308.727
 21
200.486
  0
LINE
  8
0
 10
308.727
 20
200.486
 11
308.782
 21
200.246
  0
LINE
  8
0
 10
308.782
 20
200.246
 11
308.8
 21
200
  0
LINE
  8
0
 10
308.8
 20
200
 11
308.782
 21
199.754
  0
LINE
  8
0
 10
308.782
 20
199.754
 11
308.727
 21
199.514
  0
LINE
  8
0
 10
308.727
 20
199.514
 11
308.637
 21
199.284
  0
LINE
  8
0
 10
308.637
 20
199.284
 11
308.513
 21
199.071
  0
LINE
  8
0
 10
308.513
 20
199.071
 11
308.36
 21
198.878
  0
LINE
  8
0
 10
308.36
 20
198.878
 11
308.179
 21
198.71
  0
LINE
  8
0
 10
308.179
 20
198.71
 11
307.975
 21
198.571
  0
LINE
  8
0
 10
307.975
 20
198.571
 11
307.753
 21
198.464
  0
LINE
  8
0
 10
307.753
 20
198.464
 11
307.517
 21
198.391
  0
LINE
  8
0
 10
307.517
 20
198.391
 11
307.273
 21
198.355
  0
LINE
  8
0
 10
307.273
 20
198.355
 11
299.027
 21
198.355
  0
LINE
  8
0
 10
239.751
 20
72.4345
 11
239.507
 21
72.4875
  0
LINE
  8
0
 10
239.507
 20
72.4875
 11
239.273
 21
72.5748
  0
LINE
  8
0
 10
239.273
 20
72.5748
 11
239.054
 21
72.6945
  0
LINE
  8
0
 10
239.054
 20
72.6945
 11
238.854
 21
72.8441
  0
LINE
  8
0
 10
238.854
 20
72.8441
 11
238.677
 21
73.0207
  0
LINE
  8
0
 10
238.677
 20
73.0207
 11
238.528
 21
73.2205
  0
LINE
  8
0
 10
238.528
 20
73.2205
 11
238.408
 21
73.4397
  0
LINE
  8
0
 10
238.408
 20
73.4397
 11
238.321
 21
73.6736
  0
LINE
  8
0
 10
238.321
 20
73.6736
 11
238.268
 21
73.9176
  0
LINE
  8
0
 10
238.268
 20
73.9176
 11
238.25
 21
74.1667
  0
LINE
  8
0
 10
238.25
 20
74.1667
 11
238.25
 21
192.5
  0
LINE
  8
0
 10
238.25
 20
192.5
 11
238.268
 21
192.749
  0
LINE
  8
0
 10
238.268
 20
192.749
 11
238.321
 21
192.993
  0
LINE
  8
0
 10
238.321
 20
192.993
 11
238.408
 21
193.227
  0
LINE
  8
0
 10
238.408
 20
193.227
 11
238.528
 21
193.446
  0
LINE
  8
0
 10
238.528
 20
193.446
 11
238.677
 21
193.646
  0
LINE
  8
0
 10
238.677
 20
193.646
 11
238.854
 21
193.823
  0
LINE
  8
0
 10
238.854
 20
193.823
 11
239.054
 21
193.972
  0
LINE
  8
0
 10
239.054
 20
193.972
 11
239.273
 21
194.092
  0
LINE
  8
0
 10
239.273
 20
194.092
 11
239.507
 21
194.179
  0
LINE
  8
0
 10
239.507
 20
194.179
 11
239.751
 21
194.232
  0
LINE
  8
0
 10
239.751
 20
194.232
 11
240
 21
194.25
  0
LINE
  8
0
 10
240
 20
194.25
 11
240.249
 21
194.232
  0
LINE
  8
0
 10
240.249
 20
194.232
 11
240.493
 21
194.179
  0
LINE
  8
0
 10
240.493
 20
194.179
 11
240.727
 21
194.092
  0
LINE
  8
0
 10
240.727
 20
194.092
 11
240.946
 21
193.972
  0
LINE
  8
0
 10
240.946
 20
193.972
 11
241.146
 21
193.823
  0
LINE
  8
0
 10
241.146
 20
193.823
 11
241.323
 21
193.646
  0
LINE
  8
0
 10
241.323
 20
193.646
 11
241.472
 21
193.446
  0
LINE
  8
0
 10
241.472
 20
193.446
 11
241.592
 21
193.227
  0
LINE
  8
0
 10
241.592
 20
193.227
 11
241.679
 21
192.993
  0
LINE
  8
0
 10
241.679
 20
192.993
 11
241.732
 21
192.749
  0
LINE
  8
0
 10
241.732
 20
192.749
 11
241.75
 21
192.5
  0
LINE
  8
0
 10
241.75
 20
192.5
 11
241.75
 21
74.1667
  0
LINE
  8
0
 10
241.75
 20
74.1667
 11
241.732
 21
73.9176
  0
LINE
  8
0
 10
241.732
 20
73.9176
 11
241.679
 21
73.6736
  0
LINE
  8
0
 10
241.679
 20
73.6736
 11
241.592
 21
73.4397
  0
LINE
  8
0
 10
241.592
 20
73.4397
 11
241.472
 21
73.2205
  0
LINE
  8
0
 10
241.472
 20
73.2205
 11
241.323
 21
73.0207
  0
LINE
  8
0
 10
241.323
 20
73.0207
 11
241.146
 21
72.8441
  0
LINE
  8
0
 10
241.146
 20
72.8441
 11
240.946
 21
72.6945
  0
LINE
  8
0
 10
240.946
 20
72.6945
 11
240.727
 21
72.5748
  0
LINE
  8
0
 10
240.727
 20
72.5748
 11
240.493
 21
72.4875
  0
LINE
  8
0
 10
240.493
 20
72.4875
 11
240.249
 21
72.4345
  0
LINE
  8
0
 10
240.249
 20
72.4345
 11
240
 21
72.4167
  0
LINE
  8
0
 10
240
 20
72.4167
 11
239.751
 21
72.4345
  0
LINE
  8
0
 10
-240.249
 20
72.4345
 11
-240.493
 21
72.4875
  0
LINE
  8
0
 10
-240.493
 20
72.4875
 11
-240.727
 21
72.5748
  0
LINE
  8
0
 10
-240.727
 20
72.5748
 11
-240.946
 21
72.6945
  0
LINE
  8
0
 10
-240.946
 20
72.6945
 11
-241.146
 21
72.8441
  0
LINE
  8
0
 10
-241.146
 20
72.8441
 11
-241.323
 21
73.0207
  0
LINE
  8
0
 10
-241.323
 20
73.0207
 11
-241.472
 21
73.2205
  0
LINE
  8
0
 10
-241.472
 20
73.2205
 11
-241.592
 21
73.4397
  0
LINE
  8
0
 10
-241.592
 20
73.4397
 11
-241.679
 21
73.6736
  0
LINE
  8
0
 10
-241.679
 20
73.6736
 11
-241.732
 21
73.9176
  0
LINE
  8
0
 10
-241.732
 20
73.9176
 11
-241.75
 21
74.1667
  0
LINE
  8
0
 10
-241.75
 20
74.1667
 11
-241.75
 21
192.5
  0
LINE
  8
0
 10
-241.75
 20
192.5
 11
-241.732
 21
192.749
  0
LINE
  8
0
 10
-241.732
 20
192.749
 11
-241.679
 21
192.993
  0
LINE
  8
0
 10
-241.679
 20
192.993
 11
-241.592
 21
193.227
  0
LINE
  8
0
 10
-241.592
 20
193.227
 11
-241.472
 21
193.446
  0
LINE
  8
0
 10
-241.472
 20
193.446
 11
-241.323
 21
193.646
  0
LINE
  8
0
 10
-241.323
 20
193.646
 11
-241.146
 21
193.823
  0
LINE
  8
0
 10
-241.146
 20
193.823
 11
-240.946
 21
193.972
  0
LINE
  8
0
 10
-240.946
 20
193.972
 11
-240.727
 21
194.092
  0
LINE
  8
0
 10
-240.727
 20
194.092
 11
-240.493
 21
194.179
  0
LINE
  8
0
 10
-240.493
 20
194.179
 11
-240.249
 21
194.232
  0
LINE
  8
0
 10
-240.249
 20
194.232
 11
-240
 21
194.25
  0
LINE
  8
0
 10
-240
 20
194.25
 11
-239.751
 21
194.232
  0
LINE
  8
0
 10
-239.751
 20
194.232
 11
-239.507
 21
194.179
  0
LINE
  8
0
 10
-239.507
 20
194.179
 11
-239.273
 21
194.092
  0
LINE
  8
0
 10
-239.273
 20
194.092
 11
-239.054
 21
193.972
  0
LINE
  8
0
 10
-239.054
 20
193.972
 11
-238.854
 21
193.823
  0
LINE
  8
0
 10
-238.854
 20
193.823
 11
-238.677
 21
193.646
  0
LINE
  8
0
 10
-238.677
 20
193.646
 11
-238.528
 21
193.446
  0
LINE
  8
0
 10
-238.528
 20
193.446
 11
-238.408
 21
193.227
  0
LINE
  8
0
 10
-238.408
 20
193.227
 11
-238.321
 21
192.993
  0
LINE
  8
0
 10
-238.321
 20
192.993
 11
-238.268
 21
192.749
  0
LINE
  8
0
 10
-238.268
 20
192.749
 11
-238.25
 21
192.5
  0
LINE
  8
0
 10
-238.25
 20
192.5
 11
-238.25
 21
74.1667
  0
LINE
  8
0
 10
-238.25
 20
74.1667
 11
-238.268
 21
73.9176
  0
LINE
  8
0
 10
-238.268
 20
73.9176
 11
-238.321
 21
73.6736
  0
LINE
  8
0
 10
-238.321
 20
73.6736
 11
-238.408
 21
73.4397
  0
LINE
  8
0
 10
-238.408
 20
73.4397
 11
-238.528
 21
73.2205
  0
LINE
  8
0
 10
-238.528
 20
73.2205
 11
-238.677
 21
73.0207
  0
LINE
  8
0
 10
-238.677
 20
73.0207
 11
-238.854
 21
72.8441
  0
LINE
  8
0
 10
-238.854
 20
72.8441
 11
-239.054
 21
72.6945
  0
LINE
  8
0
 10
-239.054
 20
72.6945
 11
-239.273
 21
72.5748
  0
LINE
  8
0
 10
-239.273
 20
72.5748
 11
-239.507
 21
72.4875
  0
LINE
  8
0
 10
-239.507
 20
72.4875
 11
-239.751
 21
72.4345
  0
LINE
  8
0
 10
-239.751
 20
72.4345
 11
-240
 21
72.4167
  0
LINE
  8
0
 10
-240
 20
72.4167
 11
-240.249
 21
72.4345
  0
LINE
  8
0
 10
-300.305
 20
71.0825
 11
-300.541
 21
71.1546
  0
LINE
  8
0
 10
-300.541
 20
71.1546
 11
-300.76
 21
71.2653
  0
LINE
  8
0
 10
-300.76
 20
71.2653
 11
-300.958
 21
71.4115
  0
LINE
  8
0
 10
-300.958
 20
71.4115
 11
-301.128
 21
71.5891
  0
LINE
  8
0
 10
-301.128
 20
71.5891
 11
-301.266
 21
71.7928
  0
LINE
  8
0
 10
-301.266
 20
71.7928
 11
-301.367
 21
72.0169
  0
LINE
  8
0
 10
-301.367
 20
72.0169
 11
-301.429
 21
72.2549
  0
LINE
  8
0
 10
-301.429
 20
72.2549
 11
-301.45
 21
72.5
  0
LINE
  8
0
 10
-301.45
 20
72.5
 11
-301.429
 21
72.745
  0
LINE
  8
0
 10
-301.429
 20
72.745
 11
-301.367
 21
72.983
  0
LINE
  8
0
 10
-301.367
 20
72.983
 11
-301.266
 21
73.2072
  0
LINE
  8
0
 10
-301.266
 20
73.2072
 11
-301.128
 21
73.4109
  0
LINE
  8
0
 10
-301.128
 20
73.4109
 11
-300.958
 21
73.5885
  0
LINE
  8
0
 10
-300.958
 20
73.5885
 11
-300.76
 21
73.7347
  0
LINE
  8
0
 10
-300.76
 20
73.7347
 11
-300.541
 21
73.8454
  0
LINE
  8
0
 10
-300.541
 20
73.8454
 11
-300.305
 21
73.9174
  0
LINE
  8
0
 10
-300.305
 20
73.9174
 11
-300.062
 21
73.9487
  0
LINE
  8
0
 10
-300.062
 20
73.9487
 11
-299.816
 21
73.9382
  0
LINE
  8
0
 10
-299.816
 20
73.9382
 11
-299.575
 21
73.8864
  0
LINE
  8
0
 10
-299.575
 20
73.8864
 11
-299.347
 21
73.7947
  0
LINE
  8
0
 10
-299.347
 20
73.7947
 11
-299.138
 21
73.6658
  0
LINE
  8
0
 10
-299.138
 20
73.6658
 11
-298.953
 21
73.5033
  0
LINE
  8
0
 10
-298.953
 20
73.5033
 11
-298.799
 21
73.312
  0
LINE
  8
0
 10
-298.799
 20
73.312
 11
-298.679
 21
73.0973
  0
LINE
  8
0
 10
-298.679
 20
73.0973
 11
-298.597
 21
72.8654
  0
LINE
  8
0
 10
-298.597
 20
72.8654
 11
-298.555
 21
72.623
  0
LINE
  8
0
 10
-298.555
 20
72.623
 11
-298.555
 21
72.377
  0
LINE
  8
0
 10
-298.555
 20
72.377
 11
-298.597
 21
72.1346
  0
LINE
  8
0
 10
-298.597
 20
72.1346
 11
-298.679
 21
71.9027
  0
LINE
  8
0
 10
-298.679
 20
71.9027
 11
-298.799
 21
71.688
  0
LINE
  8
0
 10
-298.799
 20
71.688
 11
-298.953
 21
71.4967
  0
LINE
  8
0
 10
-298.953
 20
71.4967
 11
-299.138
 21
71.3342
  0
LINE
  8
0
 10
-299.138
 20
71.3342
 11
-299.347
 21
71.2053
  0
LINE
  8
0
 10
-299.347
 20
71.2053
 11
-299.575
 21
71.1136
  0
LINE
  8
0
 10
-299.575
 20
71.1136
 11
-299.816
 21
71.0617
  0
LINE
  8
0
 10
-299.816
 20
71.0617
 11
-300.062
 21
71.0513
  0
LINE
  8
0
 10
-300.062
 20
71.0513
 11
-300.305
 21
71.0825
  0
LINE
  8
0
 10
299.816
 20
71.0617
 11
299.575
 21
71.1136
  0
LINE
  8
0
 10
299.575
 20
71.1136
 11
299.347
 21
71.2053
  0
LINE
  8
0
 10
299.347
 20
71.2053
 11
299.138
 21
71.3342
  0
LINE
  8
0
 10
299.138
 20
71.3342
 11
298.953
 21
71.4967
  0
LINE
  8
0
 10
298.953
 20
71.4967
 11
298.799
 21
71.688
  0
LINE
  8
0
 10
298.799
 20
71.688
 11
298.679
 21
71.9027
  0
LINE
  8
0
 10
298.679
 20
71.9027
 11
298.597
 21
72.1346
  0
LINE
  8
0
 10
298.597
 20
72.1346
 11
298.555
 21
72.377
  0
LINE
  8
0
 10
298.555
 20
72.377
 11
298.555
 21
72.623
  0
LINE
  8
0
 10
298.555
 20
72.623
 11
298.597
 21
72.8654
  0
LINE
  8
0
 10
298.597
 20
72.8654
 11
298.679
 21
73.0973
  0
LINE
  8
0
 10
298.679
 20
73.0973
 11
298.799
 21
73.312
  0
LINE
  8
0
 10
298.799
 20
73.312
 11
298.953
 21
73.5033
  0
LINE
  8
0
 10
298.953
 20
73.5033
 11
299.138
 21
73.6658
  0
LINE
  8
0
 10
299.138
 20
73.6658
 11
299.347
 21
73.7947
  0
LINE
  8
0
 10
299.347
 20
73.7947
 11
299.575
 21
73.8864
  0
LINE
  8
0
 10
299.575
 20
73.8864
 11
299.816
 21
73.9382
  0
LINE
  8
0
 10
299.816
 20
73.9382
 11
300.062
 21
73.9487
  0
LINE
  8
0
 10
300.062
 20
73.9487
 11
300.305
 21
73.9174
  0
LINE
  8
0
 10
300.305
 20
73.9174
 11
300.541
 21
73.8454
  0
LINE
  8
0
 10
300.541
 20
73.8454
 11
300.76
 21
73.7347
  0
LINE
  8
0
 10
300.76
 20
73.7347
 11
300.958
 21
73.5885
  0
LINE
  8
0
 10
300.958
 20
73.5885
 11
301.128
 21
73.4109
  0
LINE
  8
0
 10
301.128
 20
73.4109
 11
301.266
 21
73.2072
  0
LINE
  8
0
 10
301.266
 20
73.2072
 11
301.367
 21
72.983
  0
LINE
  8
0
 10
301.367
 20
72.983
 11
301.429
 21
72.745
  0
LINE
  8
0
 10
301.429
 20
72.745
 11
301.45
 21
72.5
  0
LINE
  8
0
 10
301.45
 20
72.5
 11
301.429
 21
72.2549
  0
LINE
  8
0
 10
301.429
 20
72.2549
 11
301.367
 21
72.0169
  0
LINE
  8
0
 10
301.367
 20
72.0169
 11
301.266
 21
71.7928
  0
LINE
  8
0
 10
301.266
 20
71.7928
 11
301.128
 21
71.5891
  0
LINE
  8
0
 10
301.128
 20
71.5891
 11
300.958
 21
71.4115
  0
LINE
  8
0
 10
300.958
 20
71.4115
 11
300.76
 21
71.2653
  0
LINE
  8
0
 10
300.76
 20
71.2653
 11
300.541
 21
71.1546
  0
LINE
  8
0
 10
300.541
 20
71.1546
 11
300.305
 21
71.0825
  0
LINE
  8
0
 10
300.305
 20
71.0825
 11
300.062
 21
71.0513
  0
LINE
  8
0
 10
300.062
 20
71.0513
 11
299.816
 21
71.0617
  0
LINE
  8
0
 10
239.751
 20
-55.8988
 11
239.507
 21
-55.8458
  0
LINE
  8
0
 10
239.507
 20
-55.8458
 11
239.273
 21
-55.7585
  0
LINE
  8
0
 10
239.273
 20
-55.7585
 11
239.054
 21
-55.6389
  0
LINE
  8
0
 10
239.054
 20
-55.6389
 11
238.854
 21
-55.4892
  0
LINE
  8
0
 10
238.854
 20
-55.4892
 11
238.677
 21
-55.3127
  0
LINE
  8
0
 10
238.677
 20
-55.3127
 11
238.528
 21
-55.1128
  0
LINE
  8
0
 10
238.528
 20
-55.1128
 11
238.408
 21
-54.8936
  0
LINE
  8
0
 10
238.408
 20
-54.8936
 11
238.321
 21
-54.6597
  0
LINE
  8
0
 10
238.321
 20
-54.6597
 11
238.268
 21
-54.4157
  0
LINE
  8
0
 10
238.268
 20
-54.4157
 11
238.25
 21
-54.1667
  0
LINE
  8
0
 10
238.25
 20
-54.1667
 11
238.25
 21
64.1667
  0
LINE
  8
0
 10
238.25
 20
64.1667
 11
238.268
 21
64.4157
  0
LINE
  8
0
 10
238.268
 20
64.4157
 11
238.321
 21
64.6597
  0
LINE
  8
0
 10
238.321
 20
64.6597
 11
238.408
 21
64.8936
  0
LINE
  8
0
 10
238.408
 20
64.8936
 11
238.528
 21
65.1128
  0
LINE
  8
0
 10
238.528
 20
65.1128
 11
238.677
 21
65.3127
  0
LINE
  8
0
 10
238.677
 20
65.3127
 11
238.854
 21
65.4892
  0
LINE
  8
0
 10
238.854
 20
65.4892
 11
239.054
 21
65.6389
  0
LINE
  8
0
 10
239.054
 20
65.6389
 11
239.273
 21
65.7585
  0
LINE
  8
0
 10
239.273
 20
65.7585
 11
239.507
 21
65.8458
  0
LINE
  8
0
 10
239.507
 20
65.8458
 11
239.751
 21
65.8988
  0
LINE
  8
0
 10
239.751
 20
65.8988
 11
240
 21
65.9167
  0
LINE
  8
0
 10
240
 20
65.9167
 11
240.249
 21
65.8988
  0
LINE
  8
0
 10
240.249
 20
65.8988
 11
240.493
 21
65.8458
  0
LINE
  8
0
 10
240.493
 20
65.8458
 11
240.727
 21
65.7585
  0
LINE
  8
0
 10
240.727
 20
65.7585
 11
240.946
 21
65.6389
  0
LINE
  8
0
 10
240.946
 20
65.6389
 11
241.146
 21
65.4892
  0
LINE
  8
0
 10
241.146
 20
65.4892
 11
241.323
 21
65.3127
  0
LINE
  8
0
 10
241.323
 20
65.3127
 11
241.472
 21
65.1128
  0
LINE
  8
0
 10
241.472
 20
65.1128
 11
241.592
 21
64.8936
  0
LINE
  8
0
 10
241.592
 20
64.8936
 11
241.679
 21
64.6597
  0
LINE
  8
0
 10
241.679
 20
64.6597
 11
241.732
 21
64.4157
  0
LINE
  8
0
 10
241.732
 20
64.4157
 11
241.75
 21
64.1667
  0
LINE
  8
0
 10
241.75
 20
64.1667
 11
241.75
 21
-54.1667
  0
LINE
  8
0
 10
241.75
 20
-54.1667
 11
241.732
 21
-54.4157
  0
LINE
  8
0
 10
241.732
 20
-54.4157
 11
241.679
 21
-54.6597
  0
LINE
  8
0
 10
241.679
 20
-54.6597
 11
241.592
 21
-54.8936
  0
LINE
  8
0
 10
241.592
 20
-54.8936
 11
241.472
 21
-55.1128
  0
LINE
  8
0
 10
241.472
 20
-55.1128
 11
241.323
 21
-55.3127
  0
LINE
  8
0
 10
241.323
 20
-55.3127
 11
241.146
 21
-55.4892
  0
LINE
  8
0
 10
241.146
 20
-55.4892
 11
240.946
 21
-55.6389
  0
LINE
  8
0
 10
240.946
 20
-55.6389
 11
240.727
 21
-55.7585
  0
LINE
  8
0
 10
240.727
 20
-55.7585
 11
240.493
 21
-55.8458
  0
LINE
  8
0
 10
240.493
 20
-55.8458
 11
240.249
 21
-55.8988
  0
LINE
  8
0
 10
240.249
 20
-55.8988
 11
240
 21
-55.9167
  0
LINE
  8
0
 10
240
 20
-55.9167
 11
239.751
 21
-55.8988
  0
LINE
  8
0
 10
-240.249
 20
-55.8988
 11
-240.493
 21
-55.8458
  0
LINE
  8
0
 10
-240.493
 20
-55.8458
 11
-240.727
 21
-55.7585
  0
LINE
  8
0
 10
-240.727
 20
-55.7585
 11
-240.946
 21
-55.6389
  0
LINE
  8
0
 10
-240.946
 20
-55.6389
 11
-241.146
 21
-55.4892
  0
LINE
  8
0
 10
-241.146
 20
-55.4892
 11
-241.323
 21
-55.3127
  0
LINE
  8
0
 10
-241.323
 20
-55.3127
 11
-241.472
 21
-55.1128
  0
LINE
  8
0
 10
-241.472
 20
-55.1128
 11
-241.592
 21
-54.8936
  0
LINE
  8
0
 10
-241.592
 20
-54.8936
 11
-241.679
 21
-54.6597
  0
LINE
  8
0
 10
-241.679
 20
-54.6597
 11
-241.732
 21
-54.4157
  0
LINE
  8
0
 10
-241.732
 20
-54.4157
 11
-241.75
 21
-54.1667
  0
LINE
  8
0
 10
-241.75
 20
-54.1667
 11
-241.75
 21
64.1667
  0
LINE
  8
0
 10
-241.75
 20
64.1667
 11
-241.732
 21
64.4157
  0
LINE
  8
0
 10
-241.732
 20
64.4157
 11
-241.679
 21
64.6597
  0
LINE
  8
0
 10
-241.679
 20
64.6597
 11
-241.592
 21
64.8936
  0
LINE
  8
0
 10
-241.592
 20
64.8936
 11
-241.472
 21
65.1128
  0
LINE
  8
0
 10
-241.472
 20
65.1128
 11
-241.323
 21
65.3127
  0
LINE
  8
0
 10
-241.323
 20
65.3127
 11
-241.146
 21
65.4892
  0
LINE
  8
0
 10
-241.146
 20
65.4892
 11
-240.946
 21
65.6389
  0
LINE
  8
0
 10
-240.946
 20
65.6389
 11
-240.727
 21
65.7585
  0
LINE
  8
0
 10
-240.727
 20
65.7585
 11
-240.493
 21
65.8458
  0
LINE
  8
0
 10
-240.493
 20
65.8458
 11
-240.249
 21
65.8988
  0
LINE
  8
0
 10
-240.249
 20
65.8988
 11
-240
 21
65.9167
  0
LINE
  8
0
 10
-240
 20
65.9167
 11
-239.751
 21
65.8988
  0
LINE
  8
0
 10
-239.751
 20
65.8988
 11
-239.507
 21
65.8458
  0
LINE
  8
0
 10
-239.507
 20
65.8458
 11
-239.273
 21
65.7585
  0
LINE
  8
0
 10
-239.273
 20
65.7585
 11
-239.054
 21
65.6389
  0
LINE
  8
0
 10
-239.054
 20
65.6389
 11
-238.854
 21
65.4892
  0
LINE
  8
0
 10
-238.854
 20
65.4892
 11
-238.677
 21
65.3127
  0
LINE
  8
0
 10
-238.677
 20
65.3127
 11
-238.528
 21
65.1128
  0
LINE
  8
0
 10
-238.528
 20
65.1128
 11
-238.408
 21
64.8936
  0
LINE
  8
0
 10
-238.408
 20
64.8936
 11
-238.321
 21
64.6597
  0
LINE
  8
0
 10
-238.321
 20
64.6597
 11
-238.268
 21
64.4157
  0
LINE
  8
0
 10
-238.268
 20
64.4157
 11
-238.25
 21
64.1667
  0
LINE
  8
0
 10
-238.25
 20
64.1667
 11
-238.25
 21
-54.1667
  0
LINE
  8
0
 10
-238.25
 20
-54.1667
 11
-238.268
 21
-54.4157
  0
LINE
  8
0
 10
-238.268
 20
-54.4157
 11
-238.321
 21
-54.6597
  0
LINE
  8
0
 10
-238.321
 20
-54.6597
 11
-238.408
 21
-54.8936
  0
LINE
  8
0
 10
-238.408
 20
-54.8936
 11
-238.528
 21
-55.1128
  0
LINE
  8
0
 10
-238.528
 20
-55.1128
 11
-238.677
 21
-55.3127
  0
LINE
  8
0
 10
-238.677
 20
-55.3127
 11
-238.854
 21
-55.4892
  0
LINE
  8
0
 10
-238.854
 20
-55.4892
 11
-239.054
 21
-55.6389
  0
LINE
  8
0
 10
-239.054
 20
-55.6389
 11
-239.273
 21
-55.7585
  0
LINE
  8
0
 10
-239.273
 20
-55.7585
 11
-239.507
 21
-55.8458
  0
LINE
  8
0
 10
-239.507
 20
-55.8458
 11
-239.751
 21
-55.8988
  0
LINE
  8
0
 10
-239.751
 20
-55.8988
 11
-240
 21
-55.9167
  0
LINE
  8
0
 10
-240
 20
-55.9167
 11
-240.249
 21
-55.8988
  0
LINE
  8
0
 10
299.749
 20
50.1131
 11
299.501
 21
50.1524
  0
LINE
  8
0
 10
299.501
 20
50.1524
 11
299.258
 21
50.2175
  0
LINE
  8
0
 10
299.258
 20
50.2175
 11
299.024
 21
50.3075
  0
LINE
  8
0
 10
299.024
 20
50.3075
 11
298.8
 21
50.4215
  0
LINE
  8
0
 10
298.8
 20
50.4215
 11
298.589
 21
50.5583
  0
LINE
  8
0
 10
298.589
 20
50.5583
 11
298.394
 21
50.7164
  0
LINE
  8
0
 10
298.394
 20
50.7164
 11
298.216
 21
50.8941
  0
LINE
  8
0
 10
298.216
 20
50.8941
 11
298.058
 21
51.0893
  0
LINE
  8
0
 10
298.058
 20
51.0893
 11
297.922
 21
51.3
  0
LINE
  8
0
 10
297.922
 20
51.3
 11
297.807
 21
51.5238
  0
LINE
  8
0
 10
297.807
 20
51.5238
 11
297.717
 21
51.7583
  0
LINE
  8
0
 10
297.717
 20
51.7583
 11
297.652
 21
52.001
  0
LINE
  8
0
 10
297.652
 20
52.001
 11
297.613
 21
52.2491
  0
LINE
  8
0
 10
297.613
 20
52.2491
 11
297.6
 21
52.5
  0
LINE
  8
0
 10
297.6
 20
52.5
 11
297.613
 21
52.7509
  0
LINE
  8
0
 10
297.613
 20
52.7509
 11
297.652
 21
52.999
  0
LINE
  8
0
 10
297.652
 20
52.999
 11
297.717
 21
53.2416
  0
LINE
  8
0
 10
297.717
 20
53.2416
 11
297.807
 21
53.4762
  0
LINE
  8
0
 10
297.807
 20
53.4762
 11
297.922
 21
53.7
  0
LINE
  8
0
 10
297.922
 20
53.7
 11
298.058
 21
53.9107
  0
LINE
  8
0
 10
298.058
 20
53.9107
 11
298.216
 21
54.1059
  0
LINE
  8
0
 10
298.216
 20
54.1059
 11
298.394
 21
54.2835
  0
LINE
  8
0
 10
298.394
 20
54.2835
 11
298.589
 21
54.4416
  0
LINE
  8
0
 10
298.589
 20
54.4416
 11
298.8
 21
54.5785
  0
LINE
  8
0
 10
298.8
 20
54.5785
 11
299.024
 21
54.6925
  0
LINE
  8
0
 10
299.024
 20
54.6925
 11
299.258
 21
54.7825
  0
LINE
  8
0
 10
299.258
 20
54.7825
 11
299.501
 21
54.8475
  0
LINE
  8
0
 10
299.501
 20
54.8475
 11
299.749
 21
54.8868
  0
LINE
  8
0
 10
299.749
 20
54.8868
 11
300
 21
54.9
  0
LINE
  8
0
 10
300
 20
54.9
 11
300.251
 21
54.8868
  0
LINE
  8
0
 10
300.251
 20
54.8868
 11
300.499
 21
54.8475
  0
LINE
  8
0
 10
300.499
 20
54.8475
 11
300.742
 21
54.7825
  0
LINE
  8
0
 10
300.742
 20
54.7825
 11
300.976
 21
54.6925
  0
LINE
  8
0
 10
300.976
 20
54.6925
 11
301.2
 21
54.5785
  0
LINE
  8
0
 10
301.2
 20
54.5785
 11
301.411
 21
54.4416
  0
LINE
  8
0
 10
301.411
 20
54.4416
 11
301.606
 21
54.2835
  0
LINE
  8
0
 10
301.606
 20
54.2835
 11
301.784
 21
54.1059
  0
LINE
  8
0
 10
301.784
 20
54.1059
 11
301.942
 21
53.9107
  0
LINE
  8
0
 10
301.942
 20
53.9107
 11
302.078
 21
53.7
  0
LINE
  8
0
 10
302.078
 20
53.7
 11
302.193
 21
53.4762
  0
LINE
  8
0
 10
302.193
 20
53.4762
 11
302.283
 21
53.2416
  0
LINE
  8
0
 10
302.283
 20
53.2416
 11
302.348
 21
52.999
  0
LINE
  8
0
 10
302.348
 20
52.999
 11
302.387
 21
52.7509
  0
LINE
  8
0
 10
302.387
 20
52.7509
 11
302.4
 21
52.5
  0
LINE
  8
0
 10
302.4
 20
52.5
 11
302.387
 21
52.2491
  0
LINE
  8
0
 10
302.387
 20
52.2491
 11
302.348
 21
52.001
  0
LINE
  8
0
 10
302.348
 20
52.001
 11
302.283
 21
51.7583
  0
LINE
  8
0
 10
302.283
 20
51.7583
 11
302.193
 21
51.5238
  0
LINE
  8
0
 10
302.193
 20
51.5238
 11
302.078
 21
51.3
  0
LINE
  8
0
 10
302.078
 20
51.3
 11
301.942
 21
51.0893
  0
LINE
  8
0
 10
301.942
 20
51.0893
 11
301.784
 21
50.8941
  0
LINE
  8
0
 10
301.784
 20
50.8941
 11
301.606
 21
50.7164
  0
LINE
  8
0
 10
301.606
 20
50.7164
 11
301.411
 21
50.5583
  0
LINE
  8
0
 10
301.411
 20
50.5583
 11
301.2
 21
50.4215
  0
LINE
  8
0
 10
301.2
 20
50.4215
 11
300.976
 21
50.3075
  0
LINE
  8
0
 10
300.976
 20
50.3075
 11
300.742
 21
50.2175
  0
LINE
  8
0
 10
300.742
 20
50.2175
 11
300.499
 21
50.1524
  0
LINE
  8
0
 10
300.499
 20
50.1524
 11
300.251
 21
50.1131
  0
LINE
  8
0
 10
300.251
 20
50.1131
 11
300
 21
50.1
  0
LINE
  8
0
 10
300
 20
50.1
 11
299.749
 21
50.1131
  0
LINE
  8
0
 10
-300.251
 20
50.1131
 11
-300.499
 21
50.1524
  0
LINE
  8
0
 10
-300.499
 20
50.1524
 11
-300.742
 21
50.2175
  0
LINE
  8
0
 10
-300.742
 20
50.2175
 11
-300.976
 21
50.3075
  0
LINE
  8
0
 10
-300.976
 20
50.3075
 11
-301.2
 21
50.4215
  0
LINE
  8
0
 10
-301.2
 20
50.4215
 11
-301.411
 21
50.5583
  0
LINE
  8
0
 10
-301.411
 20
50.5583
 11
-301.606
 21
50.7164
  0
LINE
  8
0
 10
-301.606
 20
50.7164
 11
-301.784
 21
50.8941
  0
LINE
  8
0
 10
-301.784
 20
50.8941
 11
-301.942
 21
51.0893
  0
LINE
  8
0
 10
-301.942
 20
51.0893
 11
-302.078
 21
51.3
  0
LINE
  8
0
 10
-302.078
 20
51.3
 11
-302.193
 21
51.5238
  0
LINE
  8
0
 10
-302.193
 20
51.5238
 11
-302.283
 21
51.7583
  0
LINE
  8
0
 10
-302.283
 20
51.7583
 11
-302.348
 21
52.001
  0
LINE
  8
0
 10
-302.348
 20
52.001
 11
-302.387
 21
52.2491
  0
LINE
  8
0
 10
-302.387
 20
52.2491
 11
-302.4
 21
52.5
  0
LINE
  8
0
 10
-302.4
 20
52.5
 11
-302.387
 21
52.7509
  0
LINE
  8
0
 10
-302.387
 20
52.7509
 11
-302.348
 21
52.999
  0
LINE
  8
0
 10
-302.348
 20
52.999
 11
-302.283
 21
53.2416
  0
LINE
  8
0
 10
-302.283
 20
53.2416
 11
-302.193
 21
53.4762
  0
LINE
  8
0
 10
-302.193
 20
53.4762
 11
-302.078
 21
53.7
  0
LINE
  8
0
 10
-302.078
 20
53.7
 11
-301.942
 21
53.9107
  0
LINE
  8
0
 10
-301.942
 20
53.9107
 11
-301.784
 21
54.1059
  0
LINE
  8
0
 10
-301.784
 20
54.1059
 11
-301.606
 21
54.2835
  0
LINE
  8
0
 10
-301.606
 20
54.2835
 11
-301.411
 21
54.4416
  0
LINE
  8
0
 10
-301.411
 20
54.4416
 11
-301.2
 21
54.5785
  0
LINE
  8
0
 10
-301.2
 20
54.5785
 11
-300.976
 21
54.6925
  0
LINE
  8
0
 10
-300.976
 20
54.6925
 11
-300.742
 21
54.7825
  0
LINE
  8
0
 10
-300.742
 20
54.7825
 11
-300.499
 21
54.8475
  0
LINE
  8
0
 10
-300.499
 20
54.8475
 11
-300.251
 21
54.8868
  0
LINE
  8
0
 10
-300.251
 20
54.8868
 11
-300
 21
54.9
  0
LINE
  8
0
 10
-300
 20
54.9
 11
-299.749
 21
54.8868
  0
LINE
  8
0
 10
-299.749
 20
54.8868
 11
-299.501
 21
54.8475
  0
LINE
  8
0
 10
-299.501
 20
54.8475
 11
-299.258
 21
54.7825
  0
LINE
  8
0
 10
-299.258
 20
54.7825
 11
-299.024
 21
54.6925
  0
LINE
  8
0
 10
-299.024
 20
54.6925
 11
-298.8
 21
54.5785
  0
LINE
  8
0
 10
-298.8
 20
54.5785
 11
-298.589
 21
54.4416
  0
LINE
  8
0
 10
-298.589
 20
54.4416
 11
-298.394
 21
54.2835
  0
LINE
  8
0
 10
-298.394
 20
54.2835
 11
-298.216
 21
54.1059
  0
LINE
  8
0
 10
-298.216
 20
54.1059
 11
-298.058
 21
53.9107
  0
LINE
  8
0
 10
-298.058
 20
53.9107
 11
-297.922
 21
53.7
  0
LINE
  8
0
 10
-297.922
 20
53.7
 11
-297.807
 21
53.4762
  0
LINE
  8
0
 10
-297.807
 20
53.4762
 11
-297.717
 21
53.2416
  0
LINE
  8
0
 10
-297.717
 20
53.2416
 11
-297.652
 21
52.999
  0
LINE
  8
0
 10
-297.652
 20
52.999
 11
-297.613
 21
52.7509
  0
LINE
  8
0
 10
-297.613
 20
52.7509
 11
-297.6
 21
52.5
  0
LINE
  8
0
 10
-297.6
 20
52.5
 11
-297.613
 21
52.2491
  0
LINE
  8
0
 10
-297.613
 20
52.2491
 11
-297.652
 21
52.001
  0
LINE
  8
0
 10
-297.652
 20
52.001
 11
-297.717
 21
51.7583
  0
LINE
  8
0
 10
-297.717
 20
51.7583
 11
-297.807
 21
51.5238
  0
LINE
  8
0
 10
-297.807
 20
51.5238
 11
-297.922
 21
51.3
  0
LINE
  8
0
 10
-297.922
 20
51.3
 11
-298.058
 21
51.0893
  0
LINE
  8
0
 10
-298.058
 20
51.0893
 11
-298.216
 21
50.8941
  0
LINE
  8
0
 10
-298.216
 20
50.8941
 11
-298.394
 21
50.7164
  0
LINE
  8
0
 10
-298.394
 20
50.7164
 11
-298.589
 21
50.5583
  0
LINE
  8
0
 10
-298.589
 20
50.5583
 11
-298.8
 21
50.4215
  0
LINE
  8
0
 10
-298.8
 20
50.4215
 11
-299.024
 21
50.3075
  0
LINE
  8
0
 10
-299.024
 20
50.3075
 11
-299.258
 21
50.2175
  0
LINE
  8
0
 10
-299.258
 20
50.2175
 11
-299.501
 21
50.1524
  0
LINE
  8
0
 10
-299.501
 20
50.1524
 11
-299.749
 21
50.1131
  0
LINE
  8
0
 10
-299.749
 20
50.1131
 11
-300
 21
50.1
  0
LINE
  8
0
 10
-300
 20
50.1
 11
-300.251
 21
50.1131
  0
LINE
  8
0
 10
299.603
 20
28.7208
 11
299.21
 21
28.783
  0
LINE
  8
0
 10
299.21
 20
28.783
 11
298.826
 21
28.886
  0
LINE
  8
0
 10
298.826
 20
28.886
 11
298.454
 21
29.0285
  0
LINE
  8
0
 10
298.454
 20
29.0285
 11
298.1
 21
29.2091
  0
LINE
  8
0
 10
298.1
 20
29.2091
 11
297.766
 21
29.4257
  0
LINE
  8
0
 10
297.766
 20
29.4257
 11
297.457
 21
29.676
  0
LINE
  8
0
 10
297.457
 20
29.676
 11
297.176
 21
29.9573
  0
LINE
  8
0
 10
297.176
 20
29.9573
 11
296.926
 21
30.2664
  0
LINE
  8
0
 10
296.926
 20
30.2664
 11
296.709
 21
30.6
  0
LINE
  8
0
 10
296.709
 20
30.6
 11
296.529
 21
30.9544
  0
LINE
  8
0
 10
296.529
 20
30.9544
 11
296.386
 21
31.3257
  0
LINE
  8
0
 10
296.386
 20
31.3257
 11
296.283
 21
31.7099
  0
LINE
  8
0
 10
296.283
 20
31.7099
 11
296.221
 21
32.1028
  0
LINE
  8
0
 10
296.221
 20
32.1028
 11
296.2
 21
32.5
  0
LINE
  8
0
 10
296.2
 20
32.5
 11
296.221
 21
32.8972
  0
LINE
  8
0
 10
296.221
 20
32.8972
 11
296.283
 21
33.2901
  0
LINE
  8
0
 10
296.283
 20
33.2901
 11
296.386
 21
33.6743
  0
LINE
  8
0
 10
296.386
 20
33.6743
 11
296.529
 21
34.0456
  0
LINE
  8
0
 10
296.529
 20
34.0456
 11
296.709
 21
34.4
  0
LINE
  8
0
 10
296.709
 20
34.4
 11
296.926
 21
34.7336
  0
LINE
  8
0
 10
296.926
 20
34.7336
 11
297.176
 21
35.0427
  0
LINE
  8
0
 10
297.176
 20
35.0427
 11
297.457
 21
35.3239
  0
LINE
  8
0
 10
297.457
 20
35.3239
 11
297.766
 21
35.5743
  0
LINE
  8
0
 10
297.766
 20
35.5743
 11
298.1
 21
35.7909
  0
LINE
  8
0
 10
298.1
 20
35.7909
 11
298.454
 21
35.9715
  0
LINE
  8
0
 10
298.454
 20
35.9715
 11
298.826
 21
36.114
  0
LINE
  8
0
 10
298.826
 20
36.114
 11
299.21
 21
36.2169
  0
LINE
  8
0
 10
299.21
 20
36.2169
 11
299.603
 21
36.2792
  0
LINE
  8
0
 10
299.603
 20
36.2792
 11
300
 21
36.3
  0
LINE
  8
0
 10
300
 20
36.3
 11
300.397
 21
36.2792
  0
LINE
  8
0
 10
300.397
 20
36.2792
 11
300.79
 21
36.2169
  0
LINE
  8
0
 10
300.79
 20
36.2169
 11
301.174
 21
36.114
  0
LINE
  8
0
 10
301.174
 20
36.114
 11
301.546
 21
35.9715
  0
LINE
  8
0
 10
301.546
 20
35.9715
 11
301.9
 21
35.7909
  0
LINE
  8
0
 10
301.9
 20
35.7909
 11
302.234
 21
35.5743
  0
LINE
  8
0
 10
302.234
 20
35.5743
 11
302.543
 21
35.3239
  0
LINE
  8
0
 10
302.543
 20
35.3239
 11
302.824
 21
35.0427
  0
LINE
  8
0
 10
302.824
 20
35.0427
 11
303.074
 21
34.7336
  0
LINE
  8
0
 10
303.074
 20
34.7336
 11
303.291
 21
34.4
  0
LINE
  8
0
 10
303.291
 20
34.4
 11
303.471
 21
34.0456
  0
LINE
  8
0
 10
303.471
 20
34.0456
 11
303.614
 21
33.6743
  0
LINE
  8
0
 10
303.614
 20
33.6743
 11
303.717
 21
33.2901
  0
LINE
  8
0
 10
303.717
 20
33.2901
 11
303.779
 21
32.8972
  0
LINE
  8
0
 10
303.779
 20
32.8972
 11
303.8
 21
32.5
  0
LINE
  8
0
 10
303.8
 20
32.5
 11
303.779
 21
32.1028
  0
LINE
  8
0
 10
303.779
 20
32.1028
 11
303.717
 21
31.7099
  0
LINE
  8
0
 10
303.717
 20
31.7099
 11
303.614
 21
31.3257
  0
LINE
  8
0
 10
303.614
 20
31.3257
 11
303.471
 21
30.9544
  0
LINE
  8
0
 10
303.471
 20
30.9544
 11
303.291
 21
30.6
  0
LINE
  8
0
 10
303.291
 20
30.6
 11
303.074
 21
30.2664
  0
LINE
  8
0
 10
303.074
 20
30.2664
 11
302.824
 21
29.9573
  0
LINE
  8
0
 10
302.824
 20
29.9573
 11
302.543
 21
29.676
  0
LINE
  8
0
 10
302.543
 20
29.676
 11
302.234
 21
29.4257
  0
LINE
  8
0
 10
302.234
 20
29.4257
 11
301.9
 21
29.2091
  0
LINE
  8
0
 10
301.9
 20
29.2091
 11
301.546
 21
29.0285
  0
LINE
  8
0
 10
301.546
 20
29.0285
 11
301.174
 21
28.886
  0
LINE
  8
0
 10
301.174
 20
28.886
 11
300.79
 21
28.783
  0
LINE
  8
0
 10
300.79
 20
28.783
 11
300.397
 21
28.7208
  0
LINE
  8
0
 10
300.397
 20
28.7208
 11
300
 21
28.7
  0
LINE
  8
0
 10
300
 20
28.7
 11
299.603
 21
28.7208
  0
LINE
  8
0
 10
-300.397
 20
28.7208
 11
-300.79
 21
28.783
  0
LINE
  8
0
 10
-300.79
 20
28.783
 11
-301.174
 21
28.886
  0
LINE
  8
0
 10
-301.174
 20
28.886
 11
-301.546
 21
29.0285
  0
LINE
  8
0
 10
-301.546
 20
29.0285
 11
-301.9
 21
29.2091
  0
LINE
  8
0
 10
-301.9
 20
29.2091
 11
-302.234
 21
29.4257
  0
LINE
  8
0
 10
-302.234
 20
29.4257
 11
-302.543
 21
29.676
  0
LINE
  8
0
 10
-302.543
 20
29.676
 11
-302.824
 21
29.9573
  0
LINE
  8
0
 10
-302.824
 20
29.9573
 11
-303.074
 21
30.2664
  0
LINE
  8
0
 10
-303.074
 20
30.2664
 11
-303.291
 21
30.6
  0
LINE
  8
0
 10
-303.291
 20
30.6
 11
-303.471
 21
30.9544
  0
LINE
  8
0
 10
-303.471
 20
30.9544
 11
-303.614
 21
31.3257
  0
LINE
  8
0
 10
-303.614
 20
31.3257
 11
-303.717
 21
31.7099
  0
LINE
  8
0
 10
-303.717
 20
31.7099
 11
-303.779
 21
32.1028
  0
LINE
  8
0
 10
-303.779
 20
32.1028
 11
-303.8
 21
32.5
  0
LINE
  8
0
 10
-303.8
 20
32.5
 11
-303.779
 21
32.8972
  0
LINE
  8
0
 10
-303.779
 20
32.8972
 11
-303.717
 21
33.2901
  0
LINE
  8
0
 10
-303.717
 20
33.2901
 11
-303.614
 21
33.6743
  0
LINE
  8
0
 10
-303.614
 20
33.6743
 11
-303.471
 21
34.0456
  0
LINE
  8
0
 10
-303.471
 20
34.0456
 11
-303.291
 21
34.4
  0
LINE
  8
0
 10
-303.291
 20
34.4
 11
-303.074
 21
34.7336
  0
LINE
  8
0
 10
-303.074
 20
34.7336
 11
-302.824
 21
35.0427
  0
LINE
  8
0
 10
-302.824
 20
35.0427
 11
-302.543
 21
35.3239
  0
LINE
  8
0
 10
-302.543
 20
35.3239
 11
-302.234
 21
35.5743
  0
LINE
  8
0
 10
-302.234
 20
35.5743
 11
-301.9
 21
35.7909
  0
LINE
  8
0
 10
-301.9
 20
35.7909
 11
-301.546
 21
35.9715
  0
LINE
  8
0
 10
-301.546
 20
35.9715
 11
-301.174
 21
36.114
  0
LINE
  8
0
 10
-301.174
 20
36.114
 11
-300.79
 21
36.2169
  0
LINE
  8
0
 10
-300.79
 20
36.2169
 11
-300.397
 21
36.2792
  0
LINE
  8
0
 10
-300.397
 20
36.2792
 11
-300
 21
36.3
  0
LINE
  8
0
 10
-300
 20
36.3
 11
-299.603
 21
36.2792
  0
LINE
  8
0
 10
-299.603
 20
36.2792
 11
-299.21
 21
36.2169
  0
LINE
  8
0
 10
-299.21
 20
36.2169
 11
-298.826
 21
36.114
  0
LINE
  8
0
 10
-298.826
 20
36.114
 11
-298.454
 21
35.9715
  0
LINE
  8
0
 10
-298.454
 20
35.9715
 11
-298.1
 21
35.7909
  0
LINE
  8
0
 10
-298.1
 20
35.7909
 11
-297.766
 21
35.5743
  0
LINE
  8
0
 10
-297.766
 20
35.5743
 11
-297.457
 21
35.3239
  0
LINE
  8
0
 10
-297.457
 20
35.3239
 11
-297.176
 21
35.0427
  0
LINE
  8
0
 10
-297.176
 20
35.0427
 11
-296.926
 21
34.7336
  0
LINE
  8
0
 10
-296.926
 20
34.7336
 11
-296.709
 21
34.4
  0
LINE
  8
0
 10
-296.709
 20
34.4
 11
-296.529
 21
34.0456
  0
LINE
  8
0
 10
-296.529
 20
34.0456
 11
-296.386
 21
33.6743
  0
LINE
  8
0
 10
-296.386
 20
33.6743
 11
-296.283
 21
33.2901
  0
LINE
  8
0
 10
-296.283
 20
33.2901
 11
-296.221
 21
32.8972
  0
LINE
  8
0
 10
-296.221
 20
32.8972
 11
-296.2
 21
32.5
  0
LINE
  8
0
 10
-296.2
 20
32.5
 11
-296.221
 21
32.1028
  0
LINE
  8
0
 10
-296.221
 20
32.1028
 11
-296.283
 21
31.7099
  0
LINE
  8
0
 10
-296.283
 20
31.7099
 11
-296.386
 21
31.3257
  0
LINE
  8
0
 10
-296.386
 20
31.3257
 11
-296.529
 21
30.9544
  0
LINE
  8
0
 10
-296.529
 20
30.9544
 11
-296.709
 21
30.6
  0
LINE
  8
0
 10
-296.709
 20
30.6
 11
-296.926
 21
30.2664
  0
LINE
  8
0
 10
-296.926
 20
30.2664
 11
-297.176
 21
29.9573
  0
LINE
  8
0
 10
-297.176
 20
29.9573
 11
-297.457
 21
29.676
  0
LINE
  8
0
 10
-297.457
 20
29.676
 11
-297.766
 21
29.4257
  0
LINE
  8
0
 10
-297.766
 20
29.4257
 11
-298.1
 21
29.2091
  0
LINE
  8
0
 10
-298.1
 20
29.2091
 11
-298.454
 21
29.0285
  0
LINE
  8
0
 10
-298.454
 20
29.0285
 11
-298.826
 21
28.886
  0
LINE
  8
0
 10
-298.826
 20
28.886
 11
-299.21
 21
28.783
  0
LINE
  8
0
 10
-299.21
 20
28.783
 11
-299.603
 21
28.7208
  0
LINE
  8
0
 10
-299.603
 20
28.7208
 11
-300
 21
28.7
  0
LINE
  8
0
 10
-300
 20
28.7
 11
-300.397
 21
28.7208
  0
LINE
  8
0
 10
-300.397
 20
-36.2792
 11
-300.79
 21
-36.2169
  0
LINE
  8
0
 10
-300.79
 20
-36.2169
 11
-301.174
 21
-36.114
  0
LINE
  8
0
 10
-301.174
 20
-36.114
 11
-301.546
 21
-35.9715
  0
LINE
  8
0
 10
-301.546
 20
-35.9715
 11
-301.9
 21
-35.7909
  0
LINE
  8
0
 10
-301.9
 20
-35.7909
 11
-302.234
 21
-35.5743
  0
LINE
  8
0
 10
-302.234
 20
-35.5743
 11
-302.543
 21
-35.3239
  0
LINE
  8
0
 10
-302.543
 20
-35.3239
 11
-302.824
 21
-35.0427
  0
LINE
  8
0
 10
-302.824
 20
-35.0427
 11
-303.074
 21
-34.7336
  0
LINE
  8
0
 10
-303.074
 20
-34.7336
 11
-303.291
 21
-34.4
  0
LINE
  8
0
 10
-303.291
 20
-34.4
 11
-303.471
 21
-34.0456
  0
LINE
  8
0
 10
-303.471
 20
-34.0456
 11
-303.614
 21
-33.6743
  0
LINE
  8
0
 10
-303.614
 20
-33.6743
 11
-303.717
 21
-33.2901
  0
LINE
  8
0
 10
-303.717
 20
-33.2901
 11
-303.779
 21
-32.8972
  0
LINE
  8
0
 10
-303.779
 20
-32.8972
 11
-303.8
 21
-32.5
  0
LINE
  8
0
 10
-303.8
 20
-32.5
 11
-303.779
 21
-32.1028
  0
LINE
  8
0
 10
-303.779
 20
-32.1028
 11
-303.717
 21
-31.7099
  0
LINE
  8
0
 10
-303.717
 20
-31.7099
 11
-303.614
 21
-31.3257
  0
LINE
  8
0
 10
-303.614
 20
-31.3257
 11
-303.471
 21
-30.9544
  0
LINE
  8
0
 10
-303.471
 20
-30.9544
 11
-303.291
 21
-30.6
  0
LINE
  8
0
 10
-303.291
 20
-30.6
 11
-303.074
 21
-30.2664
  0
LINE
  8
0
 10
-303.074
 20
-30.2664
 11
-302.824
 21
-29.9573
  0
LINE
  8
0
 10
-302.824
 20
-29.9573
 11
-302.543
 21
-29.676
  0
LINE
  8
0
 10
-302.543
 20
-29.676
 11
-302.234
 21
-29.4257
  0
LINE
  8
0
 10
-302.234
 20
-29.4257
 11
-301.9
 21
-29.2091
  0
LINE
  8
0
 10
-301.9
 20
-29.2091
 11
-301.546
 21
-29.0285
  0
LINE
  8
0
 10
-301.546
 20
-29.0285
 11
-301.174
 21
-28.886
  0
LINE
  8
0
 10
-301.174
 20
-28.886
 11
-300.79
 21
-28.783
  0
LINE
  8
0
 10
-300.79
 20
-28.783
 11
-300.397
 21
-28.7208
  0
LINE
  8
0
 10
-300.397
 20
-28.7208
 11
-300
 21
-28.7
  0
LINE
  8
0
 10
-300
 20
-28.7
 11
-299.603
 21
-28.7208
  0
LINE
  8
0
 10
-299.603
 20
-28.7208
 11
-299.21
 21
-28.783
  0
LINE
  8
0
 10
-299.21
 20
-28.783
 11
-298.826
 21
-28.886
  0
LINE
  8
0
 10
-298.826
 20
-28.886
 11
-298.454
 21
-29.0285
  0
LINE
  8
0
 10
-298.454
 20
-29.0285
 11
-298.1
 21
-29.2091
  0
LINE
  8
0
 10
-298.1
 20
-29.2091
 11
-297.766
 21
-29.4257
  0
LINE
  8
0
 10
-297.766
 20
-29.4257
 11
-297.457
 21
-29.676
  0
LINE
  8
0
 10
-297.457
 20
-29.676
 11
-297.176
 21
-29.9573
  0
LINE
  8
0
 10
-297.176
 20
-29.9573
 11
-296.926
 21
-30.2664
  0
LINE
  8
0
 10
-296.926
 20
-30.2664
 11
-296.709
 21
-30.6
  0
LINE
  8
0
 10
-296.709
 20
-30.6
 11
-296.529
 21
-30.9544
  0
LINE
  8
0
 10
-296.529
 20
-30.9544
 11
-296.386
 21
-31.3257
  0
LINE
  8
0
 10
-296.386
 20
-31.3257
 11
-296.283
 21
-31.7099
  0
LINE
  8
0
 10
-296.283
 20
-31.7099
 11
-296.221
 21
-32.1028
  0
LINE
  8
0
 10
-296.221
 20
-32.1028
 11
-296.2
 21
-32.5
  0
LINE
  8
0
 10
-296.2
 20
-32.5
 11
-296.221
 21
-32.8972
  0
LINE
  8
0
 10
-296.221
 20
-32.8972
 11
-296.283
 21
-33.2901
  0
LINE
  8
0
 10
-296.283
 20
-33.2901
 11
-296.386
 21
-33.6743
  0
LINE
  8
0
 10
-296.386
 20
-33.6743
 11
-296.529
 21
-34.0456
  0
LINE
  8
0
 10
-296.529
 20
-34.0456
 11
-296.709
 21
-34.4
  0
LINE
  8
0
 10
-296.709
 20
-34.4
 11
-296.926
 21
-34.7336
  0
LINE
  8
0
 10
-296.926
 20
-34.7336
 11
-297.176
 21
-35.0427
  0
LINE
  8
0
 10
-297.176
 20
-35.0427
 11
-297.457
 21
-35.3239
  0
LINE
  8
0
 10
-297.457
 20
-35.3239
 11
-297.766
 21
-35.5743
  0
LINE
  8
0
 10
-297.766
 20
-35.5743
 11
-298.1
 21
-35.7909
  0
LINE
  8
0
 10
-298.1
 20
-35.7909
 11
-298.454
 21
-35.9715
  0
LINE
  8
0
 10
-298.454
 20
-35.9715
 11
-298.826
 21
-36.114
  0
LINE
  8
0
 10
-298.826
 20
-36.114
 11
-299.21
 21
-36.2169
  0
LINE
  8
0
 10
-299.21
 20
-36.2169
 11
-299.603
 21
-36.2792
  0
LINE
  8
0
 10
-299.603
 20
-36.2792
 11
-300
 21
-36.3
  0
LINE
  8
0
 10
-300
 20
-36.3
 11
-300.397
 21
-36.2792
  0
LINE
  8
0
 10
299.603
 20
-36.2792
 11
299.21
 21
-36.2169
  0
LINE
  8
0
 10
299.21
 20
-36.2169
 11
298.826
 21
-36.114
  0
LINE
  8
0
 10
298.826
 20
-36.114
 11
298.454
 21
-35.9715
  0
LINE
  8
0
 10
298.454
 20
-35.9715
 11
298.1
 21
-35.7909
  0
LINE
  8
0
 10
298.1
 20
-35.7909
 11
297.766
 21
-35.5743
  0
LINE
  8
0
 10
297.766
 20
-35.5743
 11
297.457
 21
-35.3239
  0
LINE
  8
0
 10
297.457
 20
-35.3239
 11
297.176
 21
-35.0427
  0
LINE
  8
0
 10
297.176
 20
-35.0427
 11
296.926
 21
-34.7336
  0
LINE
  8
0
 10
296.926
 20
-34.7336
 11
296.709
 21
-34.4
  0
LINE
  8
0
 10
296.709
 20
-34.4
 11
296.529
 21
-34.0456
  0
LINE
  8
0
 10
296.529
 20
-34.0456
 11
296.386
 21
-33.6743
  0
LINE
  8
0
 10
296.386
 20
-33.6743
 11
296.283
 21
-33.2901
  0
LINE
  8
0
 10
296.283
 20
-33.2901
 11
296.221
 21
-32.8972
  0
LINE
  8
0
 10
296.221
 20
-32.8972
 11
296.2
 21
-32.5
  0
LINE
  8
0
 10
296.2
 20
-32.5
 11
296.221
 21
-32.1028
  0
LINE
  8
0
 10
296.221
 20
-32.1028
 11
296.283
 21
-31.7099
  0
LINE
  8
0
 10
296.283
 20
-31.7099
 11
296.386
 21
-31.3257
  0
LINE
  8
0
 10
296.386
 20
-31.3257
 11
296.529
 21
-30.9544
  0
LINE
  8
0
 10
296.529
 20
-30.9544
 11
296.709
 21
-30.6
  0
LINE
  8
0
 10
296.709
 20
-30.6
 11
296.926
 21
-30.2664
  0
LINE
  8
0
 10
296.926
 20
-30.2664
 11
297.176
 21
-29.9573
  0
LINE
  8
0
 10
297.176
 20
-29.9573
 11
297.457
 21
-29.676
  0
LINE
  8
0
 10
297.457
 20
-29.676
 11
297.766
 21
-29.4257
  0
LINE
  8
0
 10
297.766
 20
-29.4257
 11
298.1
 21
-29.2091
  0
LINE
  8
0
 10
298.1
 20
-29.2091
 11
298.454
 21
-29.0285
  0
LINE
  8
0
 10
298.454
 20
-29.0285
 11
298.826
 21
-28.886
  0
LINE
  8
0
 10
298.826
 20
-28.886
 11
299.21
 21
-28.783
  0
LINE
  8
0
 10
299.21
 20
-28.783
 11
299.603
 21
-28.7208
  0
LINE
  8
0
 10
299.603
 20
-28.7208
 11
300
 21
-28.7
  0
LINE
  8
0
 10
300
 20
-28.7
 11
300.397
 21
-28.7208
  0
LINE
  8
0
 10
300.397
 20
-28.7208
 11
300.79
 21
-28.783
  0
LINE
  8
0
 10
300.79
 20
-28.783
 11
301.174
 21
-28.886
  0
LINE
  8
0
 10
301.174
 20
-28.886
 11
301.546
 21
-29.0285
  0
LINE
  8
0
 10
301.546
 20
-29.0285
 11
301.9
 21
-29.2091
  0
LINE
  8
0
 10
301.9
 20
-29.2091
 11
302.234
 21
-29.4257
  0
LINE
  8
0
 10
302.234
 20
-29.4257
 11
302.543
 21
-29.676
  0
LINE
  8
0
 10
302.543
 20
-29.676
 11
302.824
 21
-29.9573
  0
LINE
  8
0
 10
302.824
 20
-29.9573
 11
303.074
 21
-30.2664
  0
LINE
  8
0
 10
303.074
 20
-30.2664
 11
303.291
 21
-30.6
  0
LINE
  8
0
 10
303.291
 20
-30.6
 11
303.471
 21
-30.9544
  0
LINE
  8
0
 10
303.471
 20
-30.9544
 11
303.614
 21
-31.3257
  0
LINE
  8
0
 10
303.614
 20
-31.3257
 11
303.717
 21
-31.7099
  0
LINE
  8
0
 10
303.717
 20
-31.7099
 11
303.779
 21
-32.1028
  0
LINE
  8
0
 10
303.779
 20
-32.1028
 11
303.8
 21
-32.5
  0
LINE
  8
0
 10
303.8
 20
-32.5
 11
303.779
 21
-32.8972
  0
LINE
  8
0
 10
303.779
 20
-32.8972
 11
303.717
 21
-33.2901
  0
LINE
  8
0
 10
303.717
 20
-33.2901
 11
303.614
 21
-33.6743
  0
LINE
  8
0
 10
303.614
 20
-33.6743
 11
303.471
 21
-34.0456
  0
LINE
  8
0
 10
303.471
 20
-34.0456
 11
303.291
 21
-34.4
  0
LINE
  8
0
 10
303.291
 20
-34.4
 11
303.074
 21
-34.7336
  0
LINE
  8
0
 10
303.074
 20
-34.7336
 11
302.824
 21
-35.0427
  0
LINE
  8
0
 10
302.824
 20
-35.0427
 11
302.543
 21
-35.3239
  0
LINE
  8
0
 10
302.543
 20
-35.3239
 11
302.234
 21
-35.5743
  0
LINE
  8
0
 10
302.234
 20
-35.5743
 11
301.9
 21
-35.7909
  0
LINE
  8
0
 10
301.9
 20
-35.7909
 11
301.546
 21
-35.9715
  0
LINE
  8
0
 10
301.546
 20
-35.9715
 11
301.174
 21
-36.114
  0
LINE
  8
0
 10
301.174
 20
-36.114
 11
300.79
 21
-36.2169
  0
LINE
  8
0
 10
300.79
 20
-36.2169
 11
300.397
 21
-36.2792
  0
LINE
  8
0
 10
300.397
 20
-36.2792
 11
300
 21
-36.3
  0
LINE
  8
0
 10
300
 20
-36.3
 11
299.603
 21
-36.2792
  0
LINE
  8
0
 10
-300.251
 20
-54.8868
 11
-300.499
 21
-54.8475
  0
LINE
  8
0
 10
-300.499
 20
-54.8475
 11
-300.742
 21
-54.7825
  0
LINE
  8
0
 10
-300.742
 20
-54.7825
 11
-300.976
 21
-54.6925
  0
LINE
  8
0
 10
-300.976
 20
-54.6925
 11
-301.2
 21
-54.5785
  0
LINE
  8
0
 10
-301.2
 20
-54.5785
 11
-301.411
 21
-54.4416
  0
LINE
  8
0
 10
-301.411
 20
-54.4416
 11
-301.606
 21
-54.2835
  0
LINE
  8
0
 10
-301.606
 20
-54.2835
 11
-301.784
 21
-54.1059
  0
LINE
  8
0
 10
-301.784
 20
-54.1059
 11
-301.942
 21
-53.9107
  0
LINE
  8
0
 10
-301.942
 20
-53.9107
 11
-302.078
 21
-53.7
  0
LINE
  8
0
 10
-302.078
 20
-53.7
 11
-302.193
 21
-53.4762
  0
LINE
  8
0
 10
-302.193
 20
-53.4762
 11
-302.283
 21
-53.2416
  0
LINE
  8
0
 10
-302.283
 20
-53.2416
 11
-302.348
 21
-52.999
  0
LINE
  8
0
 10
-302.348
 20
-52.999
 11
-302.387
 21
-52.7509
  0
LINE
  8
0
 10
-302.387
 20
-52.7509
 11
-302.4
 21
-52.5
  0
LINE
  8
0
 10
-302.4
 20
-52.5
 11
-302.387
 21
-52.2491
  0
LINE
  8
0
 10
-302.387
 20
-52.2491
 11
-302.348
 21
-52.001
  0
LINE
  8
0
 10
-302.348
 20
-52.001
 11
-302.283
 21
-51.7583
  0
LINE
  8
0
 10
-302.283
 20
-51.7583
 11
-302.193
 21
-51.5238
  0
LINE
  8
0
 10
-302.193
 20
-51.5238
 11
-302.078
 21
-51.3
  0
LINE
  8
0
 10
-302.078
 20
-51.3
 11
-301.942
 21
-51.0893
  0
LINE
  8
0
 10
-301.942
 20
-51.0893
 11
-301.784
 21
-50.8941
  0
LINE
  8
0
 10
-301.784
 20
-50.8941
 11
-301.606
 21
-50.7164
  0
LINE
  8
0
 10
-301.606
 20
-50.7164
 11
-301.411
 21
-50.5583
  0
LINE
  8
0
 10
-301.411
 20
-50.5583
 11
-301.2
 21
-50.4215
  0
LINE
  8
0
 10
-301.2
 20
-50.4215
 11
-300.976
 21
-50.3075
  0
LINE
  8
0
 10
-300.976
 20
-50.3075
 11
-300.742
 21
-50.2175
  0
LINE
  8
0
 10
-300.742
 20
-50.2175
 11
-300.499
 21
-50.1524
  0
LINE
  8
0
 10
-300.499
 20
-50.1524
 11
-300.251
 21
-50.1131
  0
LINE
  8
0
 10
-300.251
 20
-50.1131
 11
-300
 21
-50.1
  0
LINE
  8
0
 10
-300
 20
-50.1
 11
-299.749
 21
-50.1131
  0
LINE
  8
0
 10
-299.749
 20
-50.1131
 11
-299.501
 21
-50.1524
  0
LINE
  8
0
 10
-299.501
 20
-50.1524
 11
-299.258
 21
-50.2175
  0
LINE
  8
0
 10
-299.258
 20
-50.2175
 11
-299.024
 21
-50.3075
  0
LINE
  8
0
 10
-299.024
 20
-50.3075
 11
-298.8
 21
-50.4215
  0
LINE
  8
0
 10
-298.8
 20
-50.4215
 11
-298.589
 21
-50.5583
  0
LINE
  8
0
 10
-298.589
 20
-50.5583
 11
-298.394
 21
-50.7164
  0
LINE
  8
0
 10
-298.394
 20
-50.7164
 11
-298.216
 21
-50.8941
  0
LINE
  8
0
 10
-298.216
 20
-50.8941
 11
-298.058
 21
-51.0893
  0
LINE
  8
0
 10
-298.058
 20
-51.0893
 11
-297.922
 21
-51.3
  0
LINE
  8
0
 10
-297.922
 20
-51.3
 11
-297.807
 21
-51.5238
  0
LINE
  8
0
 10
-297.807
 20
-51.5238
 11
-297.717
 21
-51.7583
  0
LINE
  8
0
 10
-297.717
 20
-51.7583
 11
-297.652
 21
-52.001
  0
LINE
  8
0
 10
-297.652
 20
-52.001
 11
-297.613
 21
-52.2491
  0
LINE
  8
0
 10
-297.613
 20
-52.2491
 11
-297.6
 21
-52.5
  0
LINE
  8
0
 10
-297.6
 20
-52.5
 11
-297.613
 21
-52.7509
  0
LINE
  8
0
 10
-297.613
 20
-52.7509
 11
-297.652
 21
-52.999
  0
LINE
  8
0
 10
-297.652
 20
-52.999
 11
-297.717
 21
-53.2416
  0
LINE
  8
0
 10
-297.717
 20
-53.2416
 11
-297.807
 21
-53.4762
  0
LINE
  8
0
 10
-297.807
 20
-53.4762
 11
-297.922
 21
-53.7
  0
LINE
  8
0
 10
-297.922
 20
-53.7
 11
-298.058
 21
-53.9107
  0
LINE
  8
0
 10
-298.058
 20
-53.9107
 11
-298.216
 21
-54.1059
  0
LINE
  8
0
 10
-298.216
 20
-54.1059
 11
-298.394
 21
-54.2835
  0
LINE
  8
0
 10
-298.394
 20
-54.2835
 11
-298.589
 21
-54.4416
  0
LINE
  8
0
 10
-298.589
 20
-54.4416
 11
-298.8
 21
-54.5785
  0
LINE
  8
0
 10
-298.8
 20
-54.5785
 11
-299.024
 21
-54.6925
  0
LINE
  8
0
 10
-299.024
 20
-54.6925
 11
-299.258
 21
-54.7825
  0
LINE
  8
0
 10
-299.258
 20
-54.7825
 11
-299.501
 21
-54.8475
  0
LINE
  8
0
 10
-299.501
 20
-54.8475
 11
-299.749
 21
-54.8868
  0
LINE
  8
0
 10
-299.749
 20
-54.8868
 11
-300
 21
-54.9
  0
LINE
  8
0
 10
-300
 20
-54.9
 11
-300.251
 21
-54.8868
  0
LINE
  8
0
 10
299.749
 20
-54.8868
 11
299.501
 21
-54.8475
  0
LINE
  8
0
 10
299.501
 20
-54.8475
 11
299.258
 21
-54.7825
  0
LINE
  8
0
 10
299.258
 20
-54.7825
 11
299.024
 21
-54.6925
  0
LINE
  8
0
 10
299.024
 20
-54.6925
 11
298.8
 21
-54.5785
  0
LINE
  8
0
 10
298.8
 20
-54.5785
 11
298.589
 21
-54.4416
  0
LINE
  8
0
 10
298.589
 20
-54.4416
 11
298.394
 21
-54.2835
  0
LINE
  8
0
 10
298.394
 20
-54.2835
 11
298.216
 21
-54.1059
  0
LINE
  8
0
 10
298.216
 20
-54.1059
 11
298.058
 21
-53.9107
  0
LINE
  8
0
 10
298.058
 20
-53.9107
 11
297.922
 21
-53.7
  0
LINE
  8
0
 10
297.922
 20
-53.7
 11
297.807
 21
-53.4762
  0
LINE
  8
0
 10
297.807
 20
-53.4762
 11
297.717
 21
-53.2416
  0
LINE
  8
0
 10
297.717
 20
-53.2416
 11
297.652
 21
-52.999
  0
LINE
  8
0
 10
297.652
 20
-52.999
 11
297.613
 21
-52.7509
  0
LINE
  8
0
 10
297.613
 20
-52.7509
 11
297.6
 21
-52.5
  0
LINE
  8
0
 10
297.6
 20
-52.5
 11
297.613
 21
-52.2491
  0
LINE
  8
0
 10
297.613
 20
-52.2491
 11
297.652
 21
-52.001
  0
LINE
  8
0
 10
297.652
 20
-52.001
 11
297.717
 21
-51.7583
  0
LINE
  8
0
 10
297.717
 20
-51.7583
 11
297.807
 21
-51.5238
  0
LINE
  8
0
 10
297.807
 20
-51.5238
 11
297.922
 21
-51.3
  0
LINE
  8
0
 10
297.922
 20
-51.3
 11
298.058
 21
-51.0893
  0
LINE
  8
0
 10
298.058
 20
-51.0893
 11
298.216
 21
-50.8941
  0
LINE
  8
0
 10
298.216
 20
-50.8941
 11
298.394
 21
-50.7164
  0
LINE
  8
0
 10
298.394
 20
-50.7164
 11
298.589
 21
-50.5583
  0
LINE
  8
0
 10
298.589
 20
-50.5583
 11
298.8
 21
-50.4215
  0
LINE
  8
0
 10
298.8
 20
-50.4215
 11
299.024
 21
-50.3075
  0
LINE
  8
0
 10
299.024
 20
-50.3075
 11
299.258
 21
-50.2175
  0
LINE
  8
0
 10
299.258
 20
-50.2175
 11
299.501
 21
-50.1524
  0
LINE
  8
0
 10
299.501
 20
-50.1524
 11
299.749
 21
-50.1131
  0
LINE
  8
0
 10
299.749
 20
-50.1131
 11
300
 21
-50.1
  0
LINE
  8
0
 10
300
 20
-50.1
 11
300.251
 21
-50.1131
  0
LINE
  8
0
 10
300.251
 20
-50.1131
 11
300.499
 21
-50.1524
  0
LINE
  8
0
 10
300.499
 20
-50.1524
 11
300.742
 21
-50.2175
  0
LINE
  8
0
 10
300.742
 20
-50.2175
 11
300.976
 21
-50.3075
  0
LINE
  8
0
 10
300.976
 20
-50.3075
 11
301.2
 21
-50.4215
  0
LINE
  8
0
 10
301.2
 20
-50.4215
 11
301.411
 21
-50.5583
  0
LINE
  8
0
 10
301.411
 20
-50.5583
 11
301.606
 21
-50.7164
  0
LINE
  8
0
 10
301.606
 20
-50.7164
 11
301.784
 21
-50.8941
  0
LINE
  8
0
 10
301.784
 20
-50.8941
 11
301.942
 21
-51.0893
  0
LINE
  8
0
 10
301.942
 20
-51.0893
 11
302.078
 21
-51.3
  0
LINE
  8
0
 10
302.078
 20
-51.3
 11
302.193
 21
-51.5238
  0
LINE
  8
0
 10
302.193
 20
-51.5238
 11
302.283
 21
-51.7583
  0
LINE
  8
0
 10
302.283
 20
-51.7583
 11
302.348
 21
-52.001
  0
LINE
  8
0
 10
302.348
 20
-52.001
 11
302.387
 21
-52.2491
  0
LINE
  8
0
 10
302.387
 20
-52.2491
 11
302.4
 21
-52.5
  0
LINE
  8
0
 10
302.4
 20
-52.5
 11
302.387
 21
-52.7509
  0
LINE
  8
0
 10
302.387
 20
-52.7509
 11
302.348
 21
-52.999
  0
LINE
  8
0
 10
302.348
 20
-52.999
 11
302.283
 21
-53.2416
  0
LINE
  8
0
 10
302.283
 20
-53.2416
 11
302.193
 21
-53.4762
  0
LINE
  8
0
 10
302.193
 20
-53.4762
 11
302.078
 21
-53.7
  0
LINE
  8
0
 10
302.078
 20
-53.7
 11
301.942
 21
-53.9107
  0
LINE
  8
0
 10
301.942
 20
-53.9107
 11
301.784
 21
-54.1059
  0
LINE
  8
0
 10
301.784
 20
-54.1059
 11
301.606
 21
-54.2835
  0
LINE
  8
0
 10
301.606
 20
-54.2835
 11
301.411
 21
-54.4416
  0
LINE
  8
0
 10
301.411
 20
-54.4416
 11
301.2
 21
-54.5785
  0
LINE
  8
0
 10
301.2
 20
-54.5785
 11
300.976
 21
-54.6925
  0
LINE
  8
0
 10
300.976
 20
-54.6925
 11
300.742
 21
-54.7825
  0
LINE
  8
0
 10
300.742
 20
-54.7825
 11
300.499
 21
-54.8475
  0
LINE
  8
0
 10
300.499
 20
-54.8475
 11
300.251
 21
-54.8868
  0
LINE
  8
0
 10
300.251
 20
-54.8868
 11
300
 21
-54.9
  0
LINE
  8
0
 10
300
 20
-54.9
 11
299.749
 21
-54.8868
  0
LINE
  8
0
 10
-240.249
 20
-184.232
 11
-240.493
 21
-184.179
  0
LINE
  8
0
 10
-240.493
 20
-184.179
 11
-240.727
 21
-184.092
  0
LINE
  8
0
 10
-240.727
 20
-184.092
 11
-240.946
 21
-183.972
  0
LINE
  8
0
 10
-240.946
 20
-183.972
 11
-241.146
 21
-183.823
  0
LINE
  8
0
 10
-241.146
 20
-183.823
 11
-241.323
 21
-183.646
  0
LINE
  8
0
 10
-241.323
 20
-183.646
 11
-241.472
 21
-183.446
  0
LINE
  8
0
 10
-241.472
 20
-183.446
 11
-241.592
 21
-183.227
  0
LINE
  8
0
 10
-241.592
 20
-183.227
 11
-241.679
 21
-182.993
  0
LINE
  8
0
 10
-241.679
 20
-182.993
 11
-241.732
 21
-182.749
  0
LINE
  8
0
 10
-241.732
 20
-182.749
 11
-241.75
 21
-182.5
  0
LINE
  8
0
 10
-241.75
 20
-182.5
 11
-241.75
 21
-64.1667
  0
LINE
  8
0
 10
-241.75
 20
-64.1667
 11
-241.732
 21
-63.9176
  0
LINE
  8
0
 10
-241.732
 20
-63.9176
 11
-241.679
 21
-63.6736
  0
LINE
  8
0
 10
-241.679
 20
-63.6736
 11
-241.592
 21
-63.4397
  0
LINE
  8
0
 10
-241.592
 20
-63.4397
 11
-241.472
 21
-63.2205
  0
LINE
  8
0
 10
-241.472
 20
-63.2205
 11
-241.323
 21
-63.0207
  0
LINE
  8
0
 10
-241.323
 20
-63.0207
 11
-241.146
 21
-62.8441
  0
LINE
  8
0
 10
-241.146
 20
-62.8441
 11
-240.946
 21
-62.6945
  0
LINE
  8
0
 10
-240.946
 20
-62.6945
 11
-240.727
 21
-62.5748
  0
LINE
  8
0
 10
-240.727
 20
-62.5748
 11
-240.493
 21
-62.4875
  0
LINE
  8
0
 10
-240.493
 20
-62.4875
 11
-240.249
 21
-62.4345
  0
LINE
  8
0
 10
-240.249
 20
-62.4345
 11
-240
 21
-62.4167
  0
LINE
  8
0
 10
-240
 20
-62.4167
 11
-239.751
 21
-62.4345
  0
LINE
  8
0
 10
-239.751
 20
-62.4345
 11
-239.507
 21
-62.4875
  0
LINE
  8
0
 10
-239.507
 20
-62.4875
 11
-239.273
 21
-62.5748
  0
LINE
  8
0
 10
-239.273
 20
-62.5748
 11
-239.054
 21
-62.6945
  0
LINE
  8
0
 10
-239.054
 20
-62.6945
 11
-238.854
 21
-62.8441
  0
LINE
  8
0
 10
-238.854
 20
-62.8441
 11
-238.677
 21
-63.0207
  0
LINE
  8
0
 10
-238.677
 20
-63.0207
 11
-238.528
 21
-63.2205
  0
LINE
  8
0
 10
-238.528
 20
-63.2205
 11
-238.408
 21
-63.4397
  0
LINE
  8
0
 10
-238.408
 20
-63.4397
 11
-238.321
 21
-63.6736
  0
LINE
  8
0
 10
-238.321
 20
-63.6736
 11
-238.268
 21
-63.9176
  0
LINE
  8
0
 10
-238.268
 20
-63.9176
 11
-238.25
 21
-64.1667
  0
LINE
  8
0
 10
-238.25
 20
-64.1667
 11
-238.25
 21
-182.5
  0
LINE
  8
0
 10
-238.25
 20
-182.5
 11
-238.268
 21
-182.749
  0
LINE
  8
0
 10
-238.268
 20
-182.749
 11
-238.321
 21
-182.993
  0
LINE
  8
0
 10
-238.321
 20
-182.993
 11
-238.408
 21
-183.227
  0
LINE
  8
0
 10
-238.408
 20
-183.227
 11
-238.528
 21
-183.446
  0
LINE
  8
0
 10
-238.528
 20
-183.446
 11
-238.677
 21
-183.646
  0
LINE
  8
0
 10
-238.677
 20
-183.646
 11
-238.854
 21
-183.823
  0
LINE
  8
0
 10
-238.854
 20
-183.823
 11
-239.054
 21
-183.972
  0
LINE
  8
0
 10
-239.054
 20
-183.972
 11
-239.273
 21
-184.092
  0
LINE
  8
0
 10
-239.273
 20
-184.092
 11
-239.507
 21
-184.179
  0
LINE
  8
0
 10
-239.507
 20
-184.179
 11
-239.751
 21
-184.232
  0
LINE
  8
0
 10
-239.751
 20
-184.232
 11
-240
 21
-184.25
  0
LINE
  8
0
 10
-240
 20
-184.25
 11
-240.249
 21
-184.232
  0
LINE
  8
0
 10
239.751
 20
-184.232
 11
239.507
 21
-184.179
  0
LINE
  8
0
 10
239.507
 20
-184.179
 11
239.273
 21
-184.092
  0
LINE
  8
0
 10
239.273
 20
-184.092
 11
239.054
 21
-183.972
  0
LINE
  8
0
 10
239.054
 20
-183.972
 11
238.854
 21
-183.823
  0
LINE
  8
0
 10
238.854
 20
-183.823
 11
238.677
 21
-183.646
  0
LINE
  8
0
 10
238.677
 20
-183.646
 11
238.528
 21
-183.446
  0
LINE
  8
0
 10
238.528
 20
-183.446
 11
238.408
 21
-183.227
  0
LINE
  8
0
 10
238.408
 20
-183.227
 11
238.321
 21
-182.993
  0
LINE
  8
0
 10
238.321
 20
-182.993
 11
238.268
 21
-182.749
  0
LINE
  8
0
 10
238.268
 20
-182.749
 11
238.25
 21
-182.5
  0
LINE
  8
0
 10
238.25
 20
-182.5
 11
238.25
 21
-64.1667
  0
LINE
  8
0
 10
238.25
 20
-64.1667
 11
238.268
 21
-63.9176
  0
LINE
  8
0
 10
238.268
 20
-63.9176
 11
238.321
 21
-63.6736
  0
LINE
  8
0
 10
238.321
 20
-63.6736
 11
238.408
 21
-63.4397
  0
LINE
  8
0
 10
238.408
 20
-63.4397
 11
238.528
 21
-63.2205
  0
LINE
  8
0
 10
238.528
 20
-63.2205
 11
238.677
 21
-63.0207
  0
LINE
  8
0
 10
238.677
 20
-63.0207
 11
238.854
 21
-62.8441
  0
LINE
  8
0
 10
238.854
 20
-62.8441
 11
239.054
 21
-62.6945
  0
LINE
  8
0
 10
239.054
 20
-62.6945
 11
239.273
 21
-62.5748
  0
LINE
  8
0
 10
239.273
 20
-62.5748
 11
239.507
 21
-62.4875
  0
LINE
  8
0
 10
239.507
 20
-62.4875
 11
239.751
 21
-62.4345
  0
LINE
  8
0
 10
239.751
 20
-62.4345
 11
240
 21
-62.4167
  0
LINE
  8
0
 10
240
 20
-62.4167
 11
240.249
 21
-62.4345
  0
LINE
  8
0
 10
240.249
 20
-62.4345
 11
240.493
 21
-62.4875
  0
LINE
  8
0
 10
240.493
 20
-62.4875
 11
240.727
 21
-62.5748
  0
LINE
  8
0
 10
240.727
 20
-62.5748
 11
240.946
 21
-62.6945
  0
LINE
  8
0
 10
240.946
 20
-62.6945
 11
241.146
 21
-62.8441
  0
LINE
  8
0
 10
241.146
 20
-62.8441
 11
241.323
 21
-63.0207
  0
LINE
  8
0
 10
241.323
 20
-63.0207
 11
241.472
 21
-63.2205
  0
LINE
  8
0
 10
241.472
 20
-63.2205
 11
241.592
 21
-63.4397
  0
LINE
  8
0
 10
241.592
 20
-63.4397
 11
241.679
 21
-63.6736
  0
LINE
  8
0
 10
241.679
 20
-63.6736
 11
241.732
 21
-63.9176
  0
LINE
  8
0
 10
241.732
 20
-63.9176
 11
241.75
 21
-64.1667
  0
LINE
  8
0
 10
241.75
 20
-64.1667
 11
241.75
 21
-182.5
  0
LINE
  8
0
 10
241.75
 20
-182.5
 11
241.732
 21
-182.749
  0
LINE
  8
0
 10
241.732
 20
-182.749
 11
241.679
 21
-182.993
  0
LINE
  8
0
 10
241.679
 20
-182.993
 11
241.592
 21
-183.227
  0
LINE
  8
0
 10
241.592
 20
-183.227
 11
241.472
 21
-183.446
  0
LINE
  8
0
 10
241.472
 20
-183.446
 11
241.323
 21
-183.646
  0
LINE
  8
0
 10
241.323
 20
-183.646
 11
241.146
 21
-183.823
  0
LINE
  8
0
 10
241.146
 20
-183.823
 11
240.946
 21
-183.972
  0
LINE
  8
0
 10
240.946
 20
-183.972
 11
240.727
 21
-184.092
  0
LINE
  8
0
 10
240.727
 20
-184.092
 11
240.493
 21
-184.179
  0
LINE
  8
0
 10
240.493
 20
-184.179
 11
240.249
 21
-184.232
  0
LINE
  8
0
 10
240.249
 20
-184.232
 11
240
 21
-184.25
  0
LINE
  8
0
 10
240
 20
-184.25
 11
239.751
 21
-184.232
  0
LINE
  8
0
 10
299.816
 20
-73.9382
 11
299.575
 21
-73.8864
  0
LINE
  8
0
 10
299.575
 20
-73.8864
 11
299.347
 21
-73.7947
  0
LINE
  8
0
 10
299.347
 20
-73.7947
 11
299.138
 21
-73.6658
  0
LINE
  8
0
 10
299.138
 20
-73.6658
 11
298.953
 21
-73.5033
  0
LINE
  8
0
 10
298.953
 20
-73.5033
 11
298.799
 21
-73.312
  0
LINE
  8
0
 10
298.799
 20
-73.312
 11
298.679
 21
-73.0973
  0
LINE
  8
0
 10
298.679
 20
-73.0973
 11
298.597
 21
-72.8654
  0
LINE
  8
0
 10
298.597
 20
-72.8654
 11
298.555
 21
-72.623
  0
LINE
  8
0
 10
298.555
 20
-72.623
 11
298.555
 21
-72.377
  0
LINE
  8
0
 10
298.555
 20
-72.377
 11
298.597
 21
-72.1346
  0
LINE
  8
0
 10
298.597
 20
-72.1346
 11
298.679
 21
-71.9027
  0
LINE
  8
0
 10
298.679
 20
-71.9027
 11
298.799
 21
-71.688
  0
LINE
  8
0
 10
298.799
 20
-71.688
 11
298.953
 21
-71.4967
  0
LINE
  8
0
 10
298.953
 20
-71.4967
 11
299.138
 21
-71.3342
  0
LINE
  8
0
 10
299.138
 20
-71.3342
 11
299.347
 21
-71.2053
  0
LINE
  8
0
 10
299.347
 20
-71.2053
 11
299.575
 21
-71.1136
  0
LINE
  8
0
 10
299.575
 20
-71.1136
 11
299.816
 21
-71.0617
  0
LINE
  8
0
 10
299.816
 20
-71.0617
 11
300.062
 21
-71.0513
  0
LINE
  8
0
 10
300.062
 20
-71.0513
 11
300.305
 21
-71.0825
  0
LINE
  8
0
 10
300.305
 20
-71.0825
 11
300.541
 21
-71.1546
  0
LINE
  8
0
 10
300.541
 20
-71.1546
 11
300.76
 21
-71.2653
  0
LINE
  8
0
 10
300.76
 20
-71.2653
 11
300.958
 21
-71.4115
  0
LINE
  8
0
 10
300.958
 20
-71.4115
 11
301.128
 21
-71.5891
  0
LINE
  8
0
 10
301.128
 20
-71.5891
 11
301.266
 21
-71.7928
  0
LINE
  8
0
 10
301.266
 20
-71.7928
 11
301.367
 21
-72.0169
  0
LINE
  8
0
 10
301.367
 20
-72.0169
 11
301.429
 21
-72.2549
  0
LINE
  8
0
 10
301.429
 20
-72.2549
 11
301.45
 21
-72.5
  0
LINE
  8
0
 10
301.45
 20
-72.5
 11
301.429
 21
-72.745
  0
LINE
  8
0
 10
301.429
 20
-72.745
 11
301.367
 21
-72.983
  0
LINE
  8
0
 10
301.367
 20
-72.983
 11
301.266
 21
-73.2072
  0
LINE
  8
0
 10
301.266
 20
-73.2072
 11
301.128
 21
-73.4109
  0
LINE
  8
0
 10
301.128
 20
-73.4109
 11
300.958
 21
-73.5885
  0
LINE
  8
0
 10
300.958
 20
-73.5885
 11
300.76
 21
-73.7347
  0
LINE
  8
0
 10
300.76
 20
-73.7347
 11
300.541
 21
-73.8454
  0
LINE
  8
0
 10
300.541
 20
-73.8454
 11
300.305
 21
-73.9174
  0
LINE
  8
0
 10
300.305
 20
-73.9174
 11
300.062
 21
-73.9487
  0
LINE
  8
0
 10
300.062
 20
-73.9487
 11
299.816
 21
-73.9382
  0
LINE
  8
0
 10
-300.305
 20
-73.9174
 11
-300.541
 21
-73.8454
  0
LINE
  8
0
 10
-300.541
 20
-73.8454
 11
-300.76
 21
-73.7347
  0
LINE
  8
0
 10
-300.76
 20
-73.7347
 11
-300.958
 21
-73.5885
  0
LINE
  8
0
 10
-300.958
 20
-73.5885
 11
-301.128
 21
-73.4109
  0
LINE
  8
0
 10
-301.128
 20
-73.4109
 11
-301.266
 21
-73.2072
  0
LINE
  8
0
 10
-301.266
 20
-73.2072
 11
-301.367
 21
-72.983
  0
LINE
  8
0
 10
-301.367
 20
-72.983
 11
-301.429
 21
-72.745
  0
LINE
  8
0
 10
-301.429
 20
-72.745
 11
-301.45
 21
-72.5
  0
LINE
  8
0
 10
-301.45
 20
-72.5
 11
-301.429
 21
-72.2549
  0
LINE
  8
0
 10
-301.429
 20
-72.2549
 11
-301.367
 21
-72.0169
  0
LINE
  8
0
 10
-301.367
 20
-72.0169
 11
-301.266
 21
-71.7928
  0
LINE
  8
0
 10
-301.266
 20
-71.7928
 11
-301.128
 21
-71.5891
  0
LINE
  8
0
 10
-301.128
 20
-71.5891
 11
-300.958
 21
-71.4115
  0
LINE
  8
0
 10
-300.958
 20
-71.4115
 11
-300.76
 21
-71.2653
  0
LINE
  8
0
 10
-300.76
 20
-71.2653
 11
-300.541
 21
-71.1546
  0
LINE
  8
0
 10
-300.541
 20
-71.1546
 11
-300.305
 21
-71.0825
  0
LINE
  8
0
 10
-300.305
 20
-71.0825
 11
-300.062
 21
-71.0513
  0
LINE
  8
0
 10
-300.062
 20
-71.0513
 11
-299.816
 21
-71.0617
  0
LINE
  8
0
 10
-299.816
 20
-71.0617
 11
-299.575
 21
-71.1136
  0
LINE
  8
0
 10
-299.575
 20
-71.1136
 11
-299.347
 21
-71.2053
  0
LINE
  8
0
 10
-299.347
 20
-71.2053
 11
-299.138
 21
-71.3342
  0
LINE
  8
0
 10
-299.138
 20
-71.3342
 11
-298.953
 21
-71.4967
  0
LINE
  8
0
 10
-298.953
 20
-71.4967
 11
-298.799
 21
-71.688
  0
LINE
  8
0
 10
-298.799
 20
-71.688
 11
-298.679
 21
-71.9027
  0
LINE
  8
0
 10
-298.679
 20
-71.9027
 11
-298.597
 21
-72.1346
  0
LINE
  8
0
 10
-298.597
 20
-72.1346
 11
-298.555
 21
-72.377
  0
LINE
  8
0
 10
-298.555
 20
-72.377
 11
-298.555
 21
-72.623
  0
LINE
  8
0
 10
-298.555
 20
-72.623
 11
-298.597
 21
-72.8654
  0
LINE
  8
0
 10
-298.597
 20
-72.8654
 11
-298.679
 21
-73.0973
  0
LINE
  8
0
 10
-298.679
 20
-73.0973
 11
-298.799
 21
-73.312
  0
LINE
  8
0
 10
-298.799
 20
-73.312
 11
-298.953
 21
-73.5033
  0
LINE
  8
0
 10
-298.953
 20
-73.5033
 11
-299.138
 21
-73.6658
  0
LINE
  8
0
 10
-299.138
 20
-73.6658
 11
-299.347
 21
-73.7947
  0
LINE
  8
0
 10
-299.347
 20
-73.7947
 11
-299.575
 21
-73.8864
  0
LINE
  8
0
 10
-299.575
 20
-73.8864
 11
-299.816
 21
-73.9382
  0
LINE
  8
0
 10
-299.816
 20
-73.9382
 11
-300.062
 21
-73.9487
  0
LINE
  8
0
 10
-300.062
 20
-73.9487
 11
-300.305
 21
-73.9174
  0
LINE
  8
0
 10
299.027
 20
-201.645
 11
298.783
 21
-201.609
  0
LINE
  8
0
 10
298.783
 20
-201.609
 11
298.547
 21
-201.536
  0
LINE
  8
0
 10
298.547
 20
-201.536
 11
298.325
 21
-201.429
  0
LINE
  8
0
 10
298.325
 20
-201.429
 11
298.121
 21
-201.29
  0
LINE
  8
0
 10
298.121
 20
-201.29
 11
297.94
 21
-201.122
  0
LINE
  8
0
 10
297.94
 20
-201.122
 11
297.787
 21
-200.929
  0
LINE
  8
0
 10
297.787
 20
-200.929
 11
297.663
 21
-200.716
  0
LINE
  8
0
 10
297.663
 20
-200.716
 11
297.573
 21
-200.486
  0
LINE
  8
0
 10
297.573
 20
-200.486
 11
297.518
 21
-200.246
  0
LINE
  8
0
 10
297.518
 20
-200.246
 11
297.5
 21
-200
  0
LINE
  8
0
 10
297.5
 20
-200
 11
297.518
 21
-199.754
  0
LINE
  8
0
 10
297.518
 20
-199.754
 11
297.573
 21
-199.514
  0
LINE
  8
0
 10
297.573
 20
-199.514
 11
297.663
 21
-199.284
  0
LINE
  8
0
 10
297.663
 20
-199.284
 11
297.787
 21
-199.071
  0
LINE
  8
0
 10
297.787
 20
-199.071
 11
297.94
 21
-198.878
  0
LINE
  8
0
 10
297.94
 20
-198.878
 11
298.121
 21
-198.71
  0
LINE
  8
0
 10
298.121
 20
-198.71
 11
298.325
 21
-198.571
  0
LINE
  8
0
 10
298.325
 20
-198.571
 11
298.547
 21
-198.464
  0
LINE
  8
0
 10
298.547
 20
-198.464
 11
298.783
 21
-198.391
  0
LINE
  8
0
 10
298.783
 20
-198.391
 11
299.027
 21
-198.355
  0
LINE
  8
0
 10
299.027
 20
-198.355
 11
307.273
 21
-198.355
  0
LINE
  8
0
 10
307.273
 20
-198.355
 11
307.517
 21
-198.391
  0
LINE
  8
0
 10
307.517
 20
-198.391
 11
307.753
 21
-198.464
  0
LINE
  8
0
 10
307.753
 20
-198.464
 11
307.975
 21
-198.571
  0
LINE
  8
0
 10
307.975
 20
-198.571
 11
308.179
 21
-198.71
  0
LINE
  8
0
 10
308.179
 20
-198.71
 11
308.36
 21
-198.878
  0
LINE
  8
0
 10
308.36
 20
-198.878
 11
308.513
 21
-199.071
  0
LINE
  8
0
 10
308.513
 20
-199.071
 11
308.637
 21
-199.284
  0
LINE
  8
0
 10
308.637
 20
-199.284
 11
308.727
 21
-199.514
  0
LINE
  8
0
 10
308.727
 20
-199.514
 11
308.782
 21
-199.754
  0
LINE
  8
0
 10
308.782
 20
-199.754
 11
308.8
 21
-200
  0
LINE
  8
0
 10
308.8
 20
-200
 11
308.782
 21
-200.246
  0
LINE
  8
0
 10
308.782
 20
-200.246
 11
308.727
 21
-200.486
  0
LINE
  8
0
 10
308.727
 20
-200.486
 11
308.637
 21
-200.716
  0
LINE
  8
0
 10
308.637
 20
-200.716
 11
308.513
 21
-200.929
  0
LINE
  8
0
 10
308.513
 20
-200.929
 11
308.36
 21
-201.122
  0
LINE
  8
0
 10
308.36
 20
-201.122
 11
308.179
 21
-201.29
  0
LINE
  8
0
 10
308.179
 20
-201.29
 11
307.975
 21
-201.429
  0
LINE
  8
0
 10
307.975
 20
-201.429
 11
307.753
 21
-201.536
  0
LINE
  8
0
 10
307.753
 20
-201.536
 11
307.517
 21
-201.609
  0
LINE
  8
0
 10
307.517
 20
-201.609
 11
307.273
 21
-201.645
  0
LINE
  8
0
 10
307.273
 20
-201.645
 11
299.027
 21
-201.645
  0
LINE
  8
0
 10
268.027
 20
-201.645
 11
267.783
 21
-201.609
  0
LINE
  8
0
 10
267.783
 20
-201.609
 11
267.547
 21
-201.536
  0
LINE
  8
0
 10
267.547
 20
-201.536
 11
267.325
 21
-201.429
  0
LINE
  8
0
 10
267.325
 20
-201.429
 11
267.121
 21
-201.29
  0
LINE
  8
0
 10
267.121
 20
-201.29
 11
266.94
 21
-201.122
  0
LINE
  8
0
 10
266.94
 20
-201.122
 11
266.787
 21
-200.929
  0
LINE
  8
0
 10
266.787
 20
-200.929
 11
266.663
 21
-200.716
  0
LINE
  8
0
 10
266.663
 20
-200.716
 11
266.573
 21
-200.486
  0
LINE
  8
0
 10
266.573
 20
-200.486
 11
266.518
 21
-200.246
  0
LINE
  8
0
 10
266.518
 20
-200.246
 11
266.5
 21
-200
  0
LINE
  8
0
 10
266.5
 20
-200
 11
266.518
 21
-199.754
  0
LINE
  8
0
 10
266.518
 20
-199.754
 11
266.573
 21
-199.514
  0
LINE
  8
0
 10
266.573
 20
-199.514
 11
266.663
 21
-199.284
  0
LINE
  8
0
 10
266.663
 20
-199.284
 11
266.787
 21
-199.071
  0
LINE
  8
0
 10
266.787
 20
-199.071
 11
266.94
 21
-198.878
  0
LINE
  8
0
 10
266.94
 20
-198.878
 11
267.121
 21
-198.71
  0
LINE
  8
0
 10
267.121
 20
-198.71
 11
267.325
 21
-198.571
  0
LINE
  8
0
 10
267.325
 20
-198.571
 11
267.547
 21
-198.464
  0
LINE
  8
0
 10
267.547
 20
-198.464
 11
267.783
 21
-198.391
  0
LINE
  8
0
 10
267.783
 20
-198.391
 11
268.027
 21
-198.355
  0
LINE
  8
0
 10
268.027
 20
-198.355
 11
276.273
 21
-198.355
  0
LINE
  8
0
 10
276.273
 20
-198.355
 11
276.517
 21
-198.391
  0
LINE
  8
0
 10
276.517
 20
-198.391
 11
276.753
 21
-198.464
  0
LINE
  8
0
 10
276.753
 20
-198.464
 11
276.975
 21
-198.571
  0
LINE
  8
0
 10
276.975
 20
-198.571
 11
277.179
 21
-198.71
  0
LINE
  8
0
 10
277.179
 20
-198.71
 11
277.36
 21
-198.878
  0
LINE
  8
0
 10
277.36
 20
-198.878
 11
277.513
 21
-199.071
  0
LINE
  8
0
 10
277.513
 20
-199.071
 11
277.637
 21
-199.284
  0
LINE
  8
0
 10
277.637
 20
-199.284
 11
277.727
 21
-199.514
  0
LINE
  8
0
 10
277.727
 20
-199.514
 11
277.782
 21
-199.754
  0
LINE
  8
0
 10
277.782
 20
-199.754
 11
277.8
 21
-200
  0
LINE
  8
0
 10
277.8
 20
-200
 11
277.782
 21
-200.246
  0
LINE
  8
0
 10
277.782
 20
-200.246
 11
277.727
 21
-200.486
  0
LINE
  8
0
 10
277.727
 20
-200.486
 11
277.637
 21
-200.716
  0
LINE
  8
0
 10
277.637
 20
-200.716
 11
277.513
 21
-200.929
  0
LINE
  8
0
 10
277.513
 20
-200.929
 11
277.36
 21
-201.122
  0
LINE
  8
0
 10
277.36
 20
-201.122
 11
277.179
 21
-201.29
  0
LINE
  8
0
 10
277.179
 20
-201.29
 11
276.975
 21
-201.429
  0
LINE
  8
0
 10
276.975
 20
-201.429
 11
276.753
 21
-201.536
  0
LINE
  8
0
 10
276.753
 20
-201.536
 11
276.517
 21
-201.609
  0
LINE
  8
0
 10
276.517
 20
-201.609
 11
276.273
 21
-201.645
  0
LINE
  8
0
 10
276.273
 20
-201.645
 11
268.027
 21
-201.645
  0
LINE
  8
0
 10
239.691
 20
-204.172
 11
239.451
 21
-204.109
  0
LINE
  8
0
 10
239.451
 20
-204.109
 11
239.223
 21
-204.012
  0
LINE
  8
0
 10
239.223
 20
-204.012
 11
239.011
 21
-203.883
  0
LINE
  8
0
 10
239.011
 20
-203.883
 11
238.82
 21
-203.724
  0
LINE
  8
0
 10
238.82
 20
-203.724
 11
238.654
 21
-203.539
  0
LINE
  8
0
 10
238.654
 20
-203.539
 11
238.518
 21
-203.332
  0
LINE
  8
0
 10
238.518
 20
-203.332
 11
238.412
 21
-203.107
  0
LINE
  8
0
 10
238.412
 20
-203.107
 11
238.341
 21
-202.87
  0
LINE
  8
0
 10
238.341
 20
-202.87
 11
238.305
 21
-202.624
  0
LINE
  8
0
 10
238.305
 20
-202.624
 11
238.305
 21
-202.376
  0
LINE
  8
0
 10
238.305
 20
-202.376
 11
238.341
 21
-202.13
  0
LINE
  8
0
 10
238.341
 20
-202.13
 11
238.412
 21
-201.893
  0
LINE
  8
0
 10
238.412
 20
-201.893
 11
238.518
 21
-201.668
  0
LINE
  8
0
 10
238.518
 20
-201.668
 11
238.654
 21
-201.461
  0
LINE
  8
0
 10
238.654
 20
-201.461
 11
238.82
 21
-201.276
  0
LINE
  8
0
 10
238.82
 20
-201.276
 11
239.011
 21
-201.117
  0
LINE
  8
0
 10
239.011
 20
-201.117
 11
239.223
 21
-200.988
  0
LINE
  8
0
 10
239.223
 20
-200.988
 11
239.451
 21
-200.891
  0
LINE
  8
0
 10
239.451
 20
-200.891
 11
239.691
 21
-200.828
  0
LINE
  8
0
 10
239.691
 20
-200.828
 11
239.938
 21
-200.801
  0
LINE
  8
0
 10
239.938
 20
-200.801
 11
240.186
 21
-200.81
  0
LINE
  8
0
 10
240.186
 20
-200.81
 11
240.43
 21
-200.855
  0
LINE
  8
0
 10
240.43
 20
-200.855
 11
240.665
 21
-200.935
  0
LINE
  8
0
 10
240.665
 20
-200.935
 11
240.886
 21
-201.049
  0
LINE
  8
0
 10
240.886
 20
-201.049
 11
241.087
 21
-201.193
  0
LINE
  8
0
 10
241.087
 20
-201.193
 11
241.266
 21
-201.366
  0
LINE
  8
0
 10
241.266
 20
-201.366
 11
241.418
 21
-201.562
  0
LINE
  8
0
 10
241.418
 20
-201.562
 11
241.539
 21
-201.778
  0
LINE
  8
0
 10
241.539
 20
-201.778
 11
241.628
 21
-202.01
  0
LINE
  8
0
 10
241.628
 20
-202.01
 11
241.682
 21
-202.252
  0
LINE
  8
0
 10
241.682
 20
-202.252
 11
241.7
 21
-202.5
  0
LINE
  8
0
 10
241.7
 20
-202.5
 11
241.682
 21
-202.748
  0
LINE
  8
0
 10
241.682
 20
-202.748
 11
241.628
 21
-202.99
  0
LINE
  8
0
 10
241.628
 20
-202.99
 11
241.539
 21
-203.222
  0
LINE
  8
0
 10
241.539
 20
-203.222
 11
241.418
 21
-203.438
  0
LINE
  8
0
 10
241.418
 20
-203.438
 11
241.266
 21
-203.634
  0
LINE
  8
0
 10
241.266
 20
-203.634
 11
241.087
 21
-203.807
  0
LINE
  8
0
 10
241.087
 20
-203.807
 11
240.886
 21
-203.951
  0
LINE
  8
0
 10
240.886
 20
-203.951
 11
240.665
 21
-204.065
  0
LINE
  8
0
 10
240.665
 20
-204.065
 11
240.43
 21
-204.145
  0
LINE
  8
0
 10
240.43
 20
-204.145
 11
240.186
 21
-204.19
  0
LINE
  8
0
 10
240.186
 20
-204.19
 11
239.938
 21
-204.199
  0
LINE
  8
0
 10
239.938
 20
-204.199
 11
239.691
 21
-204.172
  0
LINE
  8
0
 10
-240.186
 20
-204.19
 11
-240.43
 21
-204.145
  0
LINE
  8
0
 10
-240.43
 20
-204.145
 11
-240.665
 21
-204.065
  0
LINE
  8
0
 10
-240.665
 20
-204.065
 11
-240.886
 21
-203.951
  0
LINE
  8
0
 10
-240.886
 20
-203.951
 11
-241.087
 21
-203.807
  0
LINE
  8
0
 10
-241.087
 20
-203.807
 11
-241.266
 21
-203.634
  0
LINE
  8
0
 10
-241.266
 20
-203.634
 11
-241.418
 21
-203.438
  0
LINE
  8
0
 10
-241.418
 20
-203.438
 11
-241.539
 21
-203.222
  0
LINE
  8
0
 10
-241.539
 20
-203.222
 11
-241.628
 21
-202.99
  0
LINE
  8
0
 10
-241.628
 20
-202.99
 11
-241.682
 21
-202.748
  0
LINE
  8
0
 10
-241.682
 20
-202.748
 11
-241.7
 21
-202.5
  0
LINE
  8
0
 10
-241.7
 20
-202.5
 11
-241.682
 21
-202.252
  0
LINE
  8
0
 10
-241.682
 20
-202.252
 11
-241.628
 21
-202.01
  0
LINE
  8
0
 10
-241.628
 20
-202.01
 11
-241.539
 21
-201.778
  0
LINE
  8
0
 10
-241.539
 20
-201.778
 11
-241.418
 21
-201.562
  0
LINE
  8
0
 10
-241.418
 20
-201.562
 11
-241.266
 21
-201.366
  0
LINE
  8
0
 10
-241.266
 20
-201.366
 11
-241.087
 21
-201.193
  0
LINE
  8
0
 10
-241.087
 20
-201.193
 11
-240.886
 21
-201.049
  0
LINE
  8
0
 10
-240.886
 20
-201.049
 11
-240.665
 21
-200.935
  0
LINE
  8
0
 10
-240.665
 20
-200.935
 11
-240.43
 21
-200.855
  0
LINE
  8
0
 10
-240.43
 20
-200.855
 11
-240.186
 21
-200.81
  0
LINE
  8
0
 10
-240.186
 20
-200.81
 11
-239.938
 21
-200.801
  0
LINE
  8
0
 10
-239.938
 20
-200.801
 11
-239.691
 21
-200.828
  0
LINE
  8
0
 10
-239.691
 20
-200.828
 11
-239.451
 21
-200.891
  0
LINE
  8
0
 10
-239.451
 20
-200.891
 11
-239.223
 21
-200.988
  0
LINE
  8
0
 10
-239.223
 20
-200.988
 11
-239.011
 21
-201.117
  0
LINE
  8
0
 10
-239.011
 20
-201.117
 11
-238.82
 21
-201.276
  0
LINE
  8
0
 10
-238.82
 20
-201.276
 11
-238.654
 21
-201.461
  0
LINE
  8
0
 10
-238.654
 20
-201.461
 11
-238.518
 21
-201.668
  0
LINE
  8
0
 10
-238.518
 20
-201.668
 11
-238.412
 21
-201.893
  0
LINE
  8
0
 10
-238.412
 20
-201.893
 11
-238.341
 21
-202.13
  0
LINE
  8
0
 10
-238.341
 20
-202.13
 11
-238.305
 21
-202.376
  0
LINE
  8
0
 10
-238.305
 20
-202.376
 11
-238.305
 21
-202.624
  0
LINE
  8
0
 10
-238.305
 20
-202.624
 11
-238.341
 21
-202.87
  0
LINE
  8
0
 10
-238.341
 20
-202.87
 11
-238.412
 21
-203.107
  0
LINE
  8
0
 10
-238.412
 20
-203.107
 11
-238.518
 21
-203.332
  0
LINE
  8
0
 10
-238.518
 20
-203.332
 11
-238.654
 21
-203.539
  0
LINE
  8
0
 10
-238.654
 20
-203.539
 11
-238.82
 21
-203.724
  0
LINE
  8
0
 10
-238.82
 20
-203.724
 11
-239.011
 21
-203.883
  0
LINE
  8
0
 10
-239.011
 20
-203.883
 11
-239.223
 21
-204.012
  0
LINE
  8
0
 10
-239.223
 20
-204.012
 11
-239.451
 21
-204.109
  0
LINE
  8
0
 10
-239.451
 20
-204.109
 11
-239.691
 21
-204.172
  0
LINE
  8
0
 10
-239.691
 20
-204.172
 11
-239.938
 21
-204.199
  0
LINE
  8
0
 10
-239.938
 20
-204.199
 11
-240.186
 21
-204.19
  0
LINE
  8
0
 10
283.15
 20
-228
 11
281.843
 21
-227.932
  0
LINE
  8
0
 10
281.843
 20
-227.932
 11
280.551
 21
-227.727
  0
LINE
  8
0
 10
280.551
 20
-227.727
 11
279.287
 21
-227.388
  0
LINE
  8
0
 10
279.287
 20
-227.388
 11
278.066
 21
-226.919
  0
LINE
  8
0
 10
278.066
 20
-226.919
 11
276.9
 21
-226.325
  0
LINE
  8
0
 10
276.9
 20
-226.325
 11
275.803
 21
-225.613
  0
LINE
  8
0
 10
275.803
 20
-225.613
 11
274.786
 21
-224.789
  0
LINE
  8
0
 10
274.786
 20
-224.789
 11
273.861
 21
-223.864
  0
LINE
  8
0
 10
273.861
 20
-223.864
 11
273.037
 21
-222.847
  0
LINE
  8
0
 10
273.037
 20
-222.847
 11
272.325
 21
-221.75
  0
LINE
  8
0
 10
272.325
 20
-221.75
 11
271.731
 21
-220.584
  0
LINE
  8
0
 10
271.731
 20
-220.584
 11
271.262
 21
-219.363
  0
LINE
  8
0
 10
271.262
 20
-219.363
 11
270.923
 21
-218.099
  0
LINE
  8
0
 10
270.923
 20
-218.099
 11
270.718
 21
-216.807
  0
LINE
  8
0
 10
270.718
 20
-216.807
 11
270.65
 21
-215.5
  0
LINE
  8
0
 10
270.65
 20
-215.5
 11
270.718
 21
-214.193
  0
LINE
  8
0
 10
270.718
 20
-214.193
 11
270.923
 21
-212.901
  0
LINE
  8
0
 10
270.923
 20
-212.901
 11
271.262
 21
-211.637
  0
LINE
  8
0
 10
271.262
 20
-211.637
 11
271.731
 21
-210.416
  0
LINE
  8
0
 10
271.731
 20
-210.416
 11
272.325
 21
-209.25
  0
LINE
  8
0
 10
272.325
 20
-209.25
 11
273.037
 21
-208.153
  0
LINE
  8
0
 10
273.037
 20
-208.153
 11
273.861
 21
-207.136
  0
LINE
  8
0
 10
273.861
 20
-207.136
 11
274.786
 21
-206.211
  0
LINE
  8
0
 10
274.786
 20
-206.211
 11
275.803
 21
-205.387
  0
LINE
  8
0
 10
275.803
 20
-205.387
 11
276.9
 21
-204.675
  0
LINE
  8
0
 10
276.9
 20
-204.675
 11
278.066
 21
-204.081
  0
LINE
  8
0
 10
278.066
 20
-204.081
 11
279.287
 21
-203.612
  0
LINE
  8
0
 10
279.287
 20
-203.612
 11
280.551
 21
-203.273
  0
LINE
  8
0
 10
280.551
 20
-203.273
 11
281.843
 21
-203.068
  0
LINE
  8
0
 10
281.843
 20
-203.068
 11
283.15
 21
-203
  0
LINE
  8
0
 10
283.15
 20
-203
 11
291.15
 21
-203
  0
LINE
  8
0
 10
291.15
 20
-203
 11
292.457
 21
-203.068
  0
LINE
  8
0
 10
292.457
 20
-203.068
 11
293.749
 21
-203.273
  0
LINE
  8
0
 10
293.749
 20
-203.273
 11
295.013
 21
-203.612
  0
LINE
  8
0
 10
295.013
 20
-203.612
 11
296.234
 21
-204.081
  0
LINE
  8
0
 10
296.234
 20
-204.081
 11
297.4
 21
-204.675
  0
LINE
  8
0
 10
297.4
 20
-204.675
 11
298.497
 21
-205.387
  0
LINE
  8
0
 10
298.497
 20
-205.387
 11
299.514
 21
-206.211
  0
LINE
  8
0
 10
299.514
 20
-206.211
 11
300.439
 21
-207.136
  0
LINE
  8
0
 10
300.439
 20
-207.136
 11
301.263
 21
-208.153
  0
LINE
  8
0
 10
301.263
 20
-208.153
 11
301.975
 21
-209.25
  0
LINE
  8
0
 10
301.975
 20
-209.25
 11
302.569
 21
-210.416
  0
LINE
  8
0
 10
302.569
 20
-210.416
 11
303.038
 21
-211.637
  0
LINE
  8
0
 10
303.038
 20
-211.637
 11
303.377
 21
-212.901
  0
LINE
  8
0
 10
303.377
 20
-212.901
 11
303.582
 21
-214.193
  0
LINE
  8
0
 10
303.582
 20
-214.193
 11
303.65
 21
-215.5
  0
LINE
  8
0
 10
303.65
 20
-215.5
 11
303.582
 21
-216.807
  0
LINE
  8
0
 10
303.582
 20
-216.807
 11
303.377
 21
-218.099
  0
LINE
  8
0
 10
303.377
 20
-218.099
 11
303.038
 21
-219.363
  0
LINE
  8
0
 10
303.038
 20
-219.363
 11
302.569
 21
-220.584
  0
LINE
  8
0
 10
302.569
 20
-220.584
 11
301.975
 21
-221.75
  0
LINE
  8
0
 10
301.975
 20
-221.75
 11
301.263
 21
-222.847
  0
LINE
  8
0
 10
301.263
 20
-222.847
 11
300.439
 21
-223.864
  0
LINE
  8
0
 10
300.439
 20
-223.864
 11
299.514
 21
-224.789
  0
LINE
  8
0
 10
299.514
 20
-224.789
 11
298.497
 21
-225.613
  0
LINE
  8
0
 10
298.497
 20
-225.613
 11
297.4
 21
-226.325
  0
LINE
  8
0
 10
297.4
 20
-226.325
 11
296.234
 21
-226.919
  0
LINE
  8
0
 10
296.234
 20
-226.919
 11
295.013
 21
-227.388
  0
LINE
  8
0
 10
295.013
 20
-227.388
 11
293.749
 21
-227.727
  0
LINE
  8
0
 10
293.749
 20
-227.727
 11
292.457
 21
-227.932
  0
LINE
  8
0
 10
292.457
 20
-227.932
 11
291.15
 21
-228
  0
LINE
  8
0
 10
291.15
 20
-228
 11
283.15
 21
-228
  0
LINE
  8
0
 10
-274.744
 20
-205.726
 11
-274.978
 21
-205.655
  0
LINE
  8
0
 10
-274.978
 20
-205.655
 11
-275.194
 21
-205.539
  0
LINE
  8
0
 10
-275.194
 20
-205.539
 11
-275.384
 21
-205.384
  0
LINE
  8
0
 10
-275.384
 20
-205.384
 11
-275.539
 21
-205.194
  0
LINE
  8
0
 10
-275.539
 20
-205.194
 11
-275.655
 21
-204.978
  0
LINE
  8
0
 10
-275.655
 20
-204.978
 11
-275.726
 21
-204.744
  0
LINE
  8
0
 10
-275.726
 20
-204.744
 11
-275.75
 21
-204.5
  0
LINE
  8
0
 10
-275.75
 20
-204.5
 11
-275.726
 21
-204.256
  0
LINE
  8
0
 10
-275.726
 20
-204.256
 11
-275.655
 21
-204.022
  0
LINE
  8
0
 10
-275.655
 20
-204.022
 11
-275.539
 21
-203.806
  0
LINE
  8
0
 10
-275.539
 20
-203.806
 11
-275.384
 21
-203.616
  0
LINE
  8
0
 10
-275.384
 20
-203.616
 11
-275.194
 21
-203.461
  0
LINE
  8
0
 10
-275.194
 20
-203.461
 11
-274.978
 21
-203.345
  0
LINE
  8
0
 10
-274.978
 20
-203.345
 11
-274.744
 21
-203.274
  0
LINE
  8
0
 10
-274.744
 20
-203.274
 11
-274.5
 21
-203.25
  0
LINE
  8
0
 10
-274.5
 20
-203.25
 11
-274.256
 21
-203.274
  0
LINE
  8
0
 10
-274.256
 20
-203.274
 11
-274.022
 21
-203.345
  0
LINE
  8
0
 10
-274.022
 20
-203.345
 11
-273.806
 21
-203.461
  0
LINE
  8
0
 10
-273.806
 20
-203.461
 11
-273.616
 21
-203.616
  0
LINE
  8
0
 10
-273.616
 20
-203.616
 11
-273.461
 21
-203.806
  0
LINE
  8
0
 10
-273.461
 20
-203.806
 11
-273.345
 21
-204.022
  0
LINE
  8
0
 10
-273.345
 20
-204.022
 11
-273.274
 21
-204.256
  0
LINE
  8
0
 10
-273.274
 20
-204.256
 11
-273.25
 21
-204.5
  0
LINE
  8
0
 10
-273.25
 20
-204.5
 11
-273.274
 21
-204.744
  0
LINE
  8
0
 10
-273.274
 20
-204.744
 11
-273.345
 21
-204.978
  0
LINE
  8
0
 10
-273.345
 20
-204.978
 11
-273.461
 21
-205.194
  0
LINE
  8
0
 10
-273.461
 20
-205.194
 11
-273.616
 21
-205.384
  0
LINE
  8
0
 10
-273.616
 20
-205.384
 11
-273.806
 21
-205.539
  0
LINE
  8
0
 10
-273.806
 20
-205.539
 11
-274.022
 21
-205.655
  0
LINE
  8
0
 10
-274.022
 20
-205.655
 11
-274.256
 21
-205.726
  0
LINE
  8
0
 10
-274.256
 20
-205.726
 11
-274.5
 21
-205.75
  0
LINE
  8
0
 10
-274.5
 20
-205.75
 11
-274.744
 21
-205.726
  0
LINE
  8
0
 10
-289.894
 20
-216.726
 11
-290.128
 21
-216.655
  0
LINE
  8
0
 10
-290.128
 20
-216.655
 11
-290.344
 21
-216.539
  0
LINE
  8
0
 10
-290.344
 20
-216.539
 11
-290.534
 21
-216.384
  0
LINE
  8
0
 10
-290.534
 20
-216.384
 11
-290.689
 21
-216.194
  0
LINE
  8
0
 10
-290.689
 20
-216.194
 11
-290.805
 21
-215.978
  0
LINE
  8
0
 10
-290.805
 20
-215.978
 11
-290.876
 21
-215.744
  0
LINE
  8
0
 10
-290.876
 20
-215.744
 11
-290.9
 21
-215.5
  0
LINE
  8
0
 10
-290.9
 20
-215.5
 11
-290.876
 21
-215.256
  0
LINE
  8
0
 10
-290.876
 20
-215.256
 11
-290.805
 21
-215.022
  0
LINE
  8
0
 10
-290.805
 20
-215.022
 11
-290.689
 21
-214.806
  0
LINE
  8
0
 10
-290.689
 20
-214.806
 11
-290.534
 21
-214.616
  0
LINE
  8
0
 10
-290.534
 20
-214.616
 11
-290.344
 21
-214.461
  0
LINE
  8
0
 10
-290.344
 20
-214.461
 11
-290.128
 21
-214.345
  0
LINE
  8
0
 10
-290.128
 20
-214.345
 11
-289.894
 21
-214.274
  0
LINE
  8
0
 10
-289.894
 20
-214.274
 11
-289.65
 21
-214.25
  0
LINE
  8
0
 10
-289.65
 20
-214.25
 11
-289.406
 21
-214.274
  0
LINE
  8
0
 10
-289.406
 20
-214.274
 11
-289.172
 21
-214.345
  0
LINE
  8
0
 10
-289.172
 20
-214.345
 11
-288.956
 21
-214.461
  0
LINE
  8
0
 10
-288.956
 20
-214.461
 11
-288.766
 21
-214.616
  0
LINE
  8
0
 10
-288.766
 20
-214.616
 11
-288.611
 21
-214.806
  0
LINE
  8
0
 10
-288.611
 20
-214.806
 11
-288.495
 21
-215.022
  0
LINE
  8
0
 10
-288.495
 20
-215.022
 11
-288.424
 21
-215.256
  0
LINE
  8
0
 10
-288.424
 20
-215.256
 11
-288.4
 21
-215.5
  0
LINE
  8
0
 10
-288.4
 20
-215.5
 11
-288.424
 21
-215.744
  0
LINE
  8
0
 10
-288.424
 20
-215.744
 11
-288.495
 21
-215.978
  0
LINE
  8
0
 10
-288.495
 20
-215.978
 11
-288.611
 21
-216.194
  0
LINE
  8
0
 10
-288.611
 20
-216.194
 11
-288.766
 21
-216.384
  0
LINE
  8
0
 10
-288.766
 20
-216.384
 11
-288.956
 21
-216.539
  0
LINE
  8
0
 10
-288.956
 20
-216.539
 11
-289.172
 21
-216.655
  0
LINE
  8
0
 10
-289.172
 20
-216.655
 11
-289.406
 21
-216.726
  0
LINE
  8
0
 10
-289.406
 20
-216.726
 11
-289.65
 21
-216.75
  0
LINE
  8
0
 10
-289.65
 20
-216.75
 11
-289.894
 21
-216.726
  0
LINE
  8
0
 10
239.477
 20
-237.473
 11
238.96
 21
-237.391
  0
LINE
  8
0
 10
238.96
 20
-237.391
 11
238.455
 21
-237.255
  0
LINE
  8
0
 10
238.455
 20
-237.255
 11
237.966
 21
-237.068
  0
LINE
  8
0
 10
237.966
 20
-237.068
 11
237.5
 21
-236.83
  0
LINE
  8
0
 10
237.5
 20
-236.83
 11
237.061
 21
-236.545
  0
LINE
  8
0
 10
237.061
 20
-236.545
 11
236.654
 21
-236.216
  0
LINE
  8
0
 10
236.654
 20
-236.216
 11
236.284
 21
-235.846
  0
LINE
  8
0
 10
236.284
 20
-235.846
 11
235.955
 21
-235.439
  0
LINE
  8
0
 10
235.955
 20
-235.439
 11
235.67
 21
-235
  0
LINE
  8
0
 10
235.67
 20
-235
 11
235.432
 21
-234.534
  0
LINE
  8
0
 10
235.432
 20
-234.534
 11
235.245
 21
-234.045
  0
LINE
  8
0
 10
235.245
 20
-234.045
 11
235.109
 21
-233.54
  0
LINE
  8
0
 10
235.109
 20
-233.54
 11
235.027
 21
-233.023
  0
LINE
  8
0
 10
235.027
 20
-233.023
 11
235
 21
-232.5
  0
LINE
  8
0
 10
235
 20
-232.5
 11
235.027
 21
-231.977
  0
LINE
  8
0
 10
235.027
 20
-231.977
 11
235.109
 21
-231.46
  0
LINE
  8
0
 10
235.109
 20
-231.46
 11
235.245
 21
-230.955
  0
LINE
  8
0
 10
235.245
 20
-230.955
 11
235.432
 21
-230.466
  0
LINE
  8
0
 10
235.432
 20
-230.466
 11
235.67
 21
-230
  0
LINE
  8
0
 10
235.67
 20
-230
 11
235.955
 21
-229.561
  0
LINE
  8
0
 10
235.955
 20
-229.561
 11
236.284
 21
-229.154
  0
LINE
  8
0
 10
236.284
 20
-229.154
 11
236.654
 21
-228.784
  0
LINE
  8
0
 10
236.654
 20
-228.784
 11
237.061
 21
-228.455
  0
LINE
  8
0
 10
237.061
 20
-228.455
 11
237.5
 21
-228.17
  0
LINE
  8
0
 10
237.5
 20
-228.17
 11
237.966
 21
-227.932
  0
LINE
  8
0
 10
237.966
 20
-227.932
 11
238.455
 21
-227.745
  0
LINE
  8
0
 10
238.455
 20
-227.745
 11
238.96
 21
-227.609
  0
LINE
  8
0
 10
238.96
 20
-227.609
 11
239.477
 21
-227.527
  0
LINE
  8
0
 10
239.477
 20
-227.527
 11
240
 21
-227.5
  0
LINE
  8
0
 10
240
 20
-227.5
 11
240.523
 21
-227.527
  0
LINE
  8
0
 10
240.523
 20
-227.527
 11
241.04
 21
-227.609
  0
LINE
  8
0
 10
241.04
 20
-227.609
 11
241.545
 21
-227.745
  0
LINE
  8
0
 10
241.545
 20
-227.745
 11
242.034
 21
-227.932
  0
LINE
  8
0
 10
242.034
 20
-227.932
 11
242.5
 21
-228.17
  0
LINE
  8
0
 10
242.5
 20
-228.17
 11
242.939
 21
-228.455
  0
LINE
  8
0
 10
242.939
 20
-228.455
 11
243.346
 21
-228.784
  0
LINE
  8
0
 10
243.346
 20
-228.784
 11
243.716
 21
-229.154
  0
LINE
  8
0
 10
243.716
 20
-229.154
 11
244.045
 21
-229.561
  0
LINE
  8
0
 10
244.045
 20
-229.561
 11
244.33
 21
-230
  0
LINE
  8
0
 10
244.33
 20
-230
 11
244.568
 21
-230.466
  0
LINE
  8
0
 10
244.568
 20
-230.466
 11
244.755
 21
-230.955
  0
LINE
  8
0
 10
244.755
 20
-230.955
 11
244.891
 21
-231.46
  0
LINE
  8
0
 10
244.891
 20
-231.46
 11
244.973
 21
-231.977
  0
LINE
  8
0
 10
244.973
 20
-231.977
 11
245
 21
-232.5
  0
LINE
  8
0
 10
245
 20
-232.5
 11
244.973
 21
-233.023
  0
LINE
  8
0
 10
244.973
 20
-233.023
 11
244.891
 21
-233.54
  0
LINE
  8
0
 10
244.891
 20
-233.54
 11
244.755
 21
-234.045
  0
LINE
  8
0
 10
244.755
 20
-234.045
 11
244.568
 21
-234.534
  0
LINE
  8
0
 10
244.568
 20
-234.534
 11
244.33
 21
-235
  0
LINE
  8
0
 10
244.33
 20
-235
 11
244.045
 21
-235.439
  0
LINE
  8
0
 10
244.045
 20
-235.439
 11
243.716
 21
-235.846
  0
LINE
  8
0
 10
243.716
 20
-235.846
 11
243.346
 21
-236.216
  0
LINE
  8
0
 10
243.346
 20
-236.216
 11
242.939
 21
-236.545
  0
LINE
  8
0
 10
242.939
 20
-236.545
 11
242.5
 21
-236.83
  0
LINE
  8
0
 10
242.5
 20
-236.83
 11
242.034
 21
-237.068
  0
LINE
  8
0
 10
242.034
 20
-237.068
 11
241.545
 21
-237.255
  0
LINE
  8
0
 10
241.545
 20
-237.255
 11
241.04
 21
-237.391
  0
LINE
  8
0
 10
241.04
 20
-237.391
 11
240.523
 21
-237.473
  0
LINE
  8
0
 10
240.523
 20
-237.473
 11
240
 21
-237.5
  0
LINE
  8
0
 10
240
 20
-237.5
 11
239.477
 21
-237.473
  0
LINE
  8
0
 10
-240.523
 20
-237.473
 11
-241.04
 21
-237.391
  0
LINE
  8
0
 10
-241.04
 20
-237.391
 11
-241.545
 21
-237.255
  0
LINE
  8
0
 10
-241.545
 20
-237.255
 11
-242.034
 21
-237.068
  0
LINE
  8
0
 10
-242.034
 20
-237.068
 11
-242.5
 21
-236.83
  0
LINE
  8
0
 10
-242.5
 20
-236.83
 11
-242.939
 21
-236.545
  0
LINE
  8
0
 10
-242.939
 20
-236.545
 11
-243.346
 21
-236.216
  0
LINE
  8
0
 10
-243.346
 20
-236.216
 11
-243.716
 21
-235.846
  0
LINE
  8
0
 10
-243.716
 20
-235.846
 11
-244.045
 21
-235.439
  0
LINE
  8
0
 10
-244.045
 20
-235.439
 11
-244.33
 21
-235
  0
LINE
  8
0
 10
-244.33
 20
-235
 11
-244.568
 21
-234.534
  0
LINE
  8
0
 10
-244.568
 20
-234.534
 11
-244.755
 21
-234.045
  0
LINE
  8
0
 10
-244.755
 20
-234.045
 11
-244.891
 21
-233.54
  0
LINE
  8
0
 10
-244.891
 20
-233.54
 11
-244.973
 21
-233.023
  0
LINE
  8
0
 10
-244.973
 20
-233.023
 11
-245
 21
-232.5
  0
LINE
  8
0
 10
-245
 20
-232.5
 11
-244.973
 21
-231.977
  0
LINE
  8
0
 10
-244.973
 20
-231.977
 11
-244.891
 21
-231.46
  0
LINE
  8
0
 10
-244.891
 20
-231.46
 11
-244.755
 21
-230.955
  0
LINE
  8
0
 10
-244.755
 20
-230.955
 11
-244.568
 21
-230.466
  0
LINE
  8
0
 10
-244.568
 20
-230.466
 11
-244.33
 21
-230
  0
LINE
  8
0
 10
-244.33
 20
-230
 11
-244.045
 21
-229.561
  0
LINE
  8
0
 10
-244.045
 20
-229.561
 11
-243.716
 21
-229.154
  0
LINE
  8
0
 10
-243.716
 20
-229.154
 11
-243.346
 21
-228.784
  0
LINE
  8
0
 10
-243.346
 20
-228.784
 11
-242.939
 21
-228.455
  0
LINE
  8
0
 10
-242.939
 20
-228.455
 11
-242.5
 21
-228.17
  0
LINE
  8
0
 10
-242.5
 20
-228.17
 11
-242.034
 21
-227.932
  0
LINE
  8
0
 10
-242.034
 20
-227.932
 11
-241.545
 21
-227.745
  0
LINE
  8
0
 10
-241.545
 20
-227.745
 11
-241.04
 21
-227.609
  0
LINE
  8
0
 10
-241.04
 20
-227.609
 11
-240.523
 21
-227.527
  0
LINE
  8
0
 10
-240.523
 20
-227.527
 11
-240
 21
-227.5
  0
LINE
  8
0
 10
-240
 20
-227.5
 11
-239.477
 21
-227.527
  0
LINE
  8
0
 10
-239.477
 20
-227.527
 11
-238.96
 21
-227.609
  0
LINE
  8
0
 10
-238.96
 20
-227.609
 11
-238.455
 21
-227.745
  0
LINE
  8
0
 10
-238.455
 20
-227.745
 11
-237.966
 21
-227.932
  0
LINE
  8
0
 10
-237.966
 20
-227.932
 11
-237.5
 21
-228.17
  0
LINE
  8
0
 10
-237.5
 20
-228.17
 11
-237.061
 21
-228.455
  0
LINE
  8
0
 10
-237.061
 20
-228.455
 11
-236.654
 21
-228.784
  0
LINE
  8
0
 10
-236.654
 20
-228.784
 11
-236.284
 21
-229.154
  0
LINE
  8
0
 10
-236.284
 20
-229.154
 11
-235.955
 21
-229.561
  0
LINE
  8
0
 10
-235.955
 20
-229.561
 11
-235.67
 21
-230
  0
LINE
  8
0
 10
-235.67
 20
-230
 11
-235.432
 21
-230.466
  0
LINE
  8
0
 10
-235.432
 20
-230.466
 11
-235.245
 21
-230.955
  0
LINE
  8
0
 10
-235.245
 20
-230.955
 11
-235.109
 21
-231.46
  0
LINE
  8
0
 10
-235.109
 20
-231.46
 11
-235.027
 21
-231.977
  0
LINE
  8
0
 10
-235.027
 20
-231.977
 11
-235
 21
-232.5
  0
LINE
  8
0
 10
-235
 20
-232.5
 11
-235.027
 21
-233.023
  0
LINE
  8
0
 10
-235.027
 20
-233.023
 11
-235.109
 21
-233.54
  0
LINE
  8
0
 10
-235.109
 20
-233.54
 11
-235.245
 21
-234.045
  0
LINE
  8
0
 10
-235.245
 20
-234.045
 11
-235.432
 21
-234.534
  0
LINE
  8
0
 10
-235.432
 20
-234.534
 11
-235.67
 21
-235
  0
LINE
  8
0
 10
-235.67
 20
-235
 11
-235.955
 21
-235.439
  0
LINE
  8
0
 10
-235.955
 20
-235.439
 11
-236.284
 21
-235.846
  0
LINE
  8
0
 10
-236.284
 20
-235.846
 11
-236.654
 21
-236.216
  0
LINE
  8
0
 10
-236.654
 20
-236.216
 11
-237.061
 21
-236.545
  0
LINE
  8
0
 10
-237.061
 20
-236.545
 11
-237.5
 21
-236.83
  0
LINE
  8
0
 10
-237.5
 20
-236.83
 11
-237.966
 21
-237.068
  0
LINE
  8
0
 10
-237.966
 20
-237.068
 11
-238.455
 21
-237.255
  0
LINE
  8
0
 10
-238.455
 20
-237.255
 11
-238.96
 21
-237.391
  0
LINE
  8
0
 10
-238.96
 20
-237.391
 11
-239.477
 21
-237.473
  0
LINE
  8
0
 10
-239.477
 20
-237.473
 11
-240
 21
-237.5
  0
LINE
  8
0
 10
-240
 20
-237.5
 11
-240.523
 21
-237.473
  0
LINE
  8
0
 10
268.027
 20
-232.645
 11
267.783
 21
-232.609
  0
LINE
  8
0
 10
267.783
 20
-232.609
 11
267.547
 21
-232.536
  0
LINE
  8
0
 10
267.547
 20
-232.536
 11
267.325
 21
-232.429
  0
LINE
  8
0
 10
267.325
 20
-232.429
 11
267.121
 21
-232.29
  0
LINE
  8
0
 10
267.121
 20
-232.29
 11
266.94
 21
-232.122
  0
LINE
  8
0
 10
266.94
 20
-232.122
 11
266.787
 21
-231.929
  0
LINE
  8
0
 10
266.787
 20
-231.929
 11
266.663
 21
-231.716
  0
LINE
  8
0
 10
266.663
 20
-231.716
 11
266.573
 21
-231.486
  0
LINE
  8
0
 10
266.573
 20
-231.486
 11
266.518
 21
-231.246
  0
LINE
  8
0
 10
266.518
 20
-231.246
 11
266.5
 21
-231
  0
LINE
  8
0
 10
266.5
 20
-231
 11
266.518
 21
-230.754
  0
LINE
  8
0
 10
266.518
 20
-230.754
 11
266.573
 21
-230.514
  0
LINE
  8
0
 10
266.573
 20
-230.514
 11
266.663
 21
-230.284
  0
LINE
  8
0
 10
266.663
 20
-230.284
 11
266.787
 21
-230.071
  0
LINE
  8
0
 10
266.787
 20
-230.071
 11
266.94
 21
-229.878
  0
LINE
  8
0
 10
266.94
 20
-229.878
 11
267.121
 21
-229.71
  0
LINE
  8
0
 10
267.121
 20
-229.71
 11
267.325
 21
-229.571
  0
LINE
  8
0
 10
267.325
 20
-229.571
 11
267.547
 21
-229.464
  0
LINE
  8
0
 10
267.547
 20
-229.464
 11
267.783
 21
-229.391
  0
LINE
  8
0
 10
267.783
 20
-229.391
 11
268.027
 21
-229.355
  0
LINE
  8
0
 10
268.027
 20
-229.355
 11
276.273
 21
-229.355
  0
LINE
  8
0
 10
276.273
 20
-229.355
 11
276.517
 21
-229.391
  0
LINE
  8
0
 10
276.517
 20
-229.391
 11
276.753
 21
-229.464
  0
LINE
  8
0
 10
276.753
 20
-229.464
 11
276.975
 21
-229.571
  0
LINE
  8
0
 10
276.975
 20
-229.571
 11
277.179
 21
-229.71
  0
LINE
  8
0
 10
277.179
 20
-229.71
 11
277.36
 21
-229.878
  0
LINE
  8
0
 10
277.36
 20
-229.878
 11
277.513
 21
-230.071
  0
LINE
  8
0
 10
277.513
 20
-230.071
 11
277.637
 21
-230.284
  0
LINE
  8
0
 10
277.637
 20
-230.284
 11
277.727
 21
-230.514
  0
LINE
  8
0
 10
277.727
 20
-230.514
 11
277.782
 21
-230.754
  0
LINE
  8
0
 10
277.782
 20
-230.754
 11
277.8
 21
-231
  0
LINE
  8
0
 10
277.8
 20
-231
 11
277.782
 21
-231.246
  0
LINE
  8
0
 10
277.782
 20
-231.246
 11
277.727
 21
-231.486
  0
LINE
  8
0
 10
277.727
 20
-231.486
 11
277.637
 21
-231.716
  0
LINE
  8
0
 10
277.637
 20
-231.716
 11
277.513
 21
-231.929
  0
LINE
  8
0
 10
277.513
 20
-231.929
 11
277.36
 21
-232.122
  0
LINE
  8
0
 10
277.36
 20
-232.122
 11
277.179
 21
-232.29
  0
LINE
  8
0
 10
277.179
 20
-232.29
 11
276.975
 21
-232.429
  0
LINE
  8
0
 10
276.975
 20
-232.429
 11
276.753
 21
-232.536
  0
LINE
  8
0
 10
276.753
 20
-232.536
 11
276.517
 21
-232.609
  0
LINE
  8
0
 10
276.517
 20
-232.609
 11
276.273
 21
-232.645
  0
LINE
  8
0
 10
276.273
 20
-232.645
 11
268.027
 21
-232.645
  0
LINE
  8
0
 10
299.027
 20
-232.645
 11
298.783
 21
-232.609
  0
LINE
  8
0
 10
298.783
 20
-232.609
 11
298.547
 21
-232.536
  0
LINE
  8
0
 10
298.547
 20
-232.536
 11
298.325
 21
-232.429
  0
LINE
  8
0
 10
298.325
 20
-232.429
 11
298.121
 21
-232.29
  0
LINE
  8
0
 10
298.121
 20
-232.29
 11
297.94
 21
-232.122
  0
LINE
  8
0
 10
297.94
 20
-232.122
 11
297.787
 21
-231.929
  0
LINE
  8
0
 10
297.787
 20
-231.929
 11
297.663
 21
-231.716
  0
LINE
  8
0
 10
297.663
 20
-231.716
 11
297.573
 21
-231.486
  0
LINE
  8
0
 10
297.573
 20
-231.486
 11
297.518
 21
-231.246
  0
LINE
  8
0
 10
297.518
 20
-231.246
 11
297.5
 21
-231
  0
LINE
  8
0
 10
297.5
 20
-231
 11
297.518
 21
-230.754
  0
LINE
  8
0
 10
297.518
 20
-230.754
 11
297.573
 21
-230.514
  0
LINE
  8
0
 10
297.573
 20
-230.514
 11
297.663
 21
-230.284
  0
LINE
  8
0
 10
297.663
 20
-230.284
 11
297.787
 21
-230.071
  0
LINE
  8
0
 10
297.787
 20
-230.071
 11
297.94
 21
-229.878
  0
LINE
  8
0
 10
297.94
 20
-229.878
 11
298.121
 21
-229.71
  0
LINE
  8
0
 10
298.121
 20
-229.71
 11
298.325
 21
-229.571
  0
LINE
  8
0
 10
298.325
 20
-229.571
 11
298.547
 21
-229.464
  0
LINE
  8
0
 10
298.547
 20
-229.464
 11
298.783
 21
-229.391
  0
LINE
  8
0
 10
298.783
 20
-229.391
 11
299.027
 21
-229.355
  0
LINE
  8
0
 10
299.027
 20
-229.355
 11
307.273
 21
-229.355
  0
LINE
  8
0
 10
307.273
 20
-229.355
 11
307.517
 21
-229.391
  0
LINE
  8
0
 10
307.517
 20
-229.391
 11
307.753
 21
-229.464
  0
LINE
  8
0
 10
307.753
 20
-229.464
 11
307.975
 21
-229.571
  0
LINE
  8
0
 10
307.975
 20
-229.571
 11
308.179
 21
-229.71
  0
LINE
  8
0
 10
308.179
 20
-229.71
 11
308.36
 21
-229.878
  0
LINE
  8
0
 10
308.36
 20
-229.878
 11
308.513
 21
-230.071
  0
LINE
  8
0
 10
308.513
 20
-230.071
 11
308.637
 21
-230.284
  0
LINE
  8
0
 10
308.637
 20
-230.284
 11
308.727
 21
-230.514
  0
LINE
  8
0
 10
308.727
 20
-230.514
 11
308.782
 21
-230.754
  0
LINE
  8
0
 10
308.782
 20
-230.754
 11
308.8
 21
-231
  0
LINE
  8
0
 10
308.8
 20
-231
 11
308.782
 21
-231.246
  0
LINE
  8
0
 10
308.782
 20
-231.246
 11
308.727
 21
-231.486
  0
LINE
  8
0
 10
308.727
 20
-231.486
 11
308.637
 21
-231.716
  0
LINE
  8
0
 10
308.637
 20
-231.716
 11
308.513
 21
-231.929
  0
LINE
  8
0
 10
308.513
 20
-231.929
 11
308.36
 21
-232.122
  0
LINE
  8
0
 10
308.36
 20
-232.122
 11
308.179
 21
-232.29
  0
LINE
  8
0
 10
308.179
 20
-232.29
 11
307.975
 21
-232.429
  0
LINE
  8
0
 10
307.975
 20
-232.429
 11
307.753
 21
-232.536
  0
LINE
  8
0
 10
307.753
 20
-232.536
 11
307.517
 21
-232.609
  0
LINE
  8
0
 10
307.517
 20
-232.609
 11
307.273
 21
-232.645
  0
LINE
  8
0
 10
307.273
 20
-232.645
 11
299.027
 21
-232.645
  0
LINE
  8
0
 10
-190
 20
-234.25
 11
-190.249
 21
-234.232
  0
LINE
  8
0
 10
-190.249
 20
-234.232
 11
-190.493
 21
-234.179
  0
LINE
  8
0
 10
-190.493
 20
-234.179
 11
-190.727
 21
-234.092
  0
LINE
  8
0
 10
-190.727
 20
-234.092
 11
-190.946
 21
-233.972
  0
LINE
  8
0
 10
-190.946
 20
-233.972
 11
-191.146
 21
-233.823
  0
LINE
  8
0
 10
-191.146
 20
-233.823
 11
-191.323
 21
-233.646
  0
LINE
  8
0
 10
-191.323
 20
-233.646
 11
-191.472
 21
-233.446
  0
LINE
  8
0
 10
-191.472
 20
-233.446
 11
-191.592
 21
-233.227
  0
LINE
  8
0
 10
-191.592
 20
-233.227
 11
-191.679
 21
-232.993
  0
LINE
  8
0
 10
-191.679
 20
-232.993
 11
-191.732
 21
-232.749
  0
LINE
  8
0
 10
-191.732
 20
-232.749
 11
-191.75
 21
-232.5
  0
LINE
  8
0
 10
-191.75
 20
-232.5
 11
-191.732
 21
-232.251
  0
LINE
  8
0
 10
-191.732
 20
-232.251
 11
-191.679
 21
-232.007
  0
LINE
  8
0
 10
-191.679
 20
-232.007
 11
-191.592
 21
-231.773
  0
LINE
  8
0
 10
-191.592
 20
-231.773
 11
-191.472
 21
-231.554
  0
LINE
  8
0
 10
-191.472
 20
-231.554
 11
-191.323
 21
-231.354
  0
LINE
  8
0
 10
-191.323
 20
-231.354
 11
-191.146
 21
-231.177
  0
LINE
  8
0
 10
-191.146
 20
-231.177
 11
-190.946
 21
-231.028
  0
LINE
  8
0
 10
-190.946
 20
-231.028
 11
-190.727
 21
-230.908
  0
LINE
  8
0
 10
-190.727
 20
-230.908
 11
-190.493
 21
-230.821
  0
LINE
  8
0
 10
-190.493
 20
-230.821
 11
-190.249
 21
-230.768
  0
LINE
  8
0
 10
-190.249
 20
-230.768
 11
-190
 21
-230.75
  0
LINE
  8
0
 10
-190
 20
-230.75
 11
-71.6667
 21
-230.75
  0
LINE
  8
0
 10
-71.6667
 20
-230.75
 11
-71.4176
 21
-230.768
  0
LINE
  8
0
 10
-71.4176
 20
-230.768
 11
-71.1736
 21
-230.821
  0
LINE
  8
0
 10
-71.1736
 20
-230.821
 11
-70.9397
 21
-230.908
  0
LINE
  8
0
 10
-70.9397
 20
-230.908
 11
-70.7205
 21
-231.028
  0
LINE
  8
0
 10
-70.7205
 20
-231.028
 11
-70.5207
 21
-231.177
  0
LINE
  8
0
 10
-70.5207
 20
-231.177
 11
-70.3441
 21
-231.354
  0
LINE
  8
0
 10
-70.3441
 20
-231.354
 11
-70.1945
 21
-231.554
  0
LINE
  8
0
 10
-70.1945
 20
-231.554
 11
-70.0748
 21
-231.773
  0
LINE
  8
0
 10
-70.0748
 20
-231.773
 11
-69.9875
 21
-232.007
  0
LINE
  8
0
 10
-69.9875
 20
-232.007
 11
-69.9345
 21
-232.251
  0
LINE
  8
0
 10
-69.9345
 20
-232.251
 11
-69.9167
 21
-232.5
  0
LINE
  8
0
 10
-69.9167
 20
-232.5
 11
-69.9345
 21
-232.749
  0
LINE
  8
0
 10
-69.9345
 20
-232.749
 11
-69.9875
 21
-232.993
  0
LINE
  8
0
 10
-69.9875
 20
-232.993
 11
-70.0748
 21
-233.227
  0
LINE
  8
0
 10
-70.0748
 20
-233.227
 11
-70.1945
 21
-233.446
  0
LINE
  8
0
 10
-70.1945
 20
-233.446
 11
-70.3441
 21
-233.646
  0
LINE
  8
0
 10
-70.3441
 20
-233.646
 11
-70.5207
 21
-233.823
  0
LINE
  8
0
 10
-70.5207
 20
-233.823
 11
-70.7205
 21
-233.972
  0
LINE
  8
0
 10
-70.7205
 20
-233.972
 11
-70.9397
 21
-234.092
  0
LINE
  8
0
 10
-70.9397
 20
-234.092
 11
-71.1736
 21
-234.179
  0
LINE
  8
0
 10
-71.1736
 20
-234.179
 11
-71.4176
 21
-234.232
  0
LINE
  8
0
 10
-71.4176
 20
-234.232
 11
-71.6667
 21
-234.25
  0
LINE
  8
0
 10
-71.6667
 20
-234.25
 11
-190
 21
-234.25
  0
LINE
  8
0
 10
76.6667
 20
-234.25
 11
76.4176
 21
-234.232
  0
LINE
  8
0
 10
76.4176
 20
-234.232
 11
76.1736
 21
-234.179
  0
LINE
  8
0
 10
76.1736
 20
-234.179
 11
75.9397
 21
-234.092
  0
LINE
  8
0
 10
75.9397
 20
-234.092
 11
75.7205
 21
-233.972
  0
LINE
  8
0
 10
75.7205
 20
-233.972
 11
75.5207
 21
-233.823
  0
LINE
  8
0
 10
75.5207
 20
-233.823
 11
75.3441
 21
-233.646
  0
LINE
  8
0
 10
75.3441
 20
-233.646
 11
75.1945
 21
-233.446
  0
LINE
  8
0
 10
75.1945
 20
-233.446
 11
75.0748
 21
-233.227
  0
LINE
  8
0
 10
75.0748
 20
-233.227
 11
74.9875
 21
-232.993
  0
LINE
  8
0
 10
74.9875
 20
-232.993
 11
74.9345
 21
-232.749
  0
LINE
  8
0
 10
74.9345
 20
-232.749
 11
74.9167
 21
-232.5
  0
LINE
  8
0
 10
74.9167
 20
-232.5
 11
74.9345
 21
-232.251
  0
LINE
  8
0
 10
74.9345
 20
-232.251
 11
74.9875
 21
-232.007
  0
LINE
  8
0
 10
74.9875
 20
-232.007
 11
75.0748
 21
-231.773
  0
LINE
  8
0
 10
75.0748
 20
-231.773
 11
75.1945
 21
-231.554
  0
LINE
  8
0
 10
75.1945
 20
-231.554
 11
75.3441
 21
-231.354
  0
LINE
  8
0
 10
75.3441
 20
-231.354
 11
75.5207
 21
-231.177
  0
LINE
  8
0
 10
75.5207
 20
-231.177
 11
75.7205
 21
-231.028
  0
LINE
  8
0
 10
75.7205
 20
-231.028
 11
75.9397
 21
-230.908
  0
LINE
  8
0
 10
75.9397
 20
-230.908
 11
76.1736
 21
-230.821
  0
LINE
  8
0
 10
76.1736
 20
-230.821
 11
76.4176
 21
-230.768
  0
LINE
  8
0
 10
76.4176
 20
-230.768
 11
76.6667
 21
-230.75
  0
LINE
  8
0
 10
76.6667
 20
-230.75
 11
195
 21
-230.75
  0
LINE
  8
0
 10
195
 20
-230.75
 11
195.249
 21
-230.768
  0
LINE
  8
0
 10
195.249
 20
-230.768
 11
195.493
 21
-230.821
  0
LINE
  8
0
 10
195.493
 20
-230.821
 11
195.727
 21
-230.908
  0
LINE
  8
0
 10
195.727
 20
-230.908
 11
195.946
 21
-231.028
  0
LINE
  8
0
 10
195.946
 20
-231.028
 11
196.146
 21
-231.177
  0
LINE
  8
0
 10
196.146
 20
-231.177
 11
196.323
 21
-231.354
  0
LINE
  8
0
 10
196.323
 20
-231.354
 11
196.472
 21
-231.554
  0
LINE
  8
0
 10
196.472
 20
-231.554
 11
196.592
 21
-231.773
  0
LINE
  8
0
 10
196.592
 20
-231.773
 11
196.679
 21
-232.007
  0
LINE
  8
0
 10
196.679
 20
-232.007
 11
196.732
 21
-232.251
  0
LINE
  8
0
 10
196.732
 20
-232.251
 11
196.75
 21
-232.5
  0
LINE
  8
0
 10
196.75
 20
-232.5
 11
196.732
 21
-232.749
  0
LINE
  8
0
 10
196.732
 20
-232.749
 11
196.679
 21
-232.993
  0
LINE
  8
0
 10
196.679
 20
-232.993
 11
196.592
 21
-233.227
  0
LINE
  8
0
 10
196.592
 20
-233.227
 11
196.472
 21
-233.446
  0
LINE
  8
0
 10
196.472
 20
-233.446
 11
196.323
 21
-233.646
  0
LINE
  8
0
 10
196.323
 20
-233.646
 11
196.146
 21
-233.823
  0
LINE
  8
0
 10
196.146
 20
-233.823
 11
195.946
 21
-233.972
  0
LINE
  8
0
 10
195.946
 20
-233.972
 11
195.727
 21
-234.092
  0
LINE
  8
0
 10
195.727
 20
-234.092
 11
195.493
 21
-234.179
  0
LINE
  8
0
 10
195.493
 20
-234.179
 11
195.249
 21
-234.232
  0
LINE
  8
0
 10
195.249
 20
-234.232
 11
195
 21
-234.25
  0
LINE
  8
0
 10
195
 20
-234.25
 11
76.6667
 21
-234.25
  0
LINE
  8
0
 10
-56.6667
 20
-234.25
 11
-56.9157
 21
-234.232
  0
LINE
  8
0
 10
-56.9157
 20
-234.232
 11
-57.1597
 21
-234.179
  0
LINE
  8
0
 10
-57.1597
 20
-234.179
 11
-57.3936
 21
-234.092
  0
LINE
  8
0
 10
-57.3936
 20
-234.092
 11
-57.6128
 21
-233.972
  0
LINE
  8
0
 10
-57.6128
 20
-233.972
 11
-57.8127
 21
-233.823
  0
LINE
  8
0
 10
-57.8127
 20
-233.823
 11
-57.9892
 21
-233.646
  0
LINE
  8
0
 10
-57.9892
 20
-233.646
 11
-58.1389
 21
-233.446
  0
LINE
  8
0
 10
-58.1389
 20
-233.446
 11
-58.2585
 21
-233.227
  0
LINE
  8
0
 10
-58.2585
 20
-233.227
 11
-58.3458
 21
-232.993
  0
LINE
  8
0
 10
-58.3458
 20
-232.993
 11
-58.3988
 21
-232.749
  0
LINE
  8
0
 10
-58.3988
 20
-232.749
 11
-58.4167
 21
-232.5
  0
LINE
  8
0
 10
-58.4167
 20
-232.5
 11
-58.3988
 21
-232.251
  0
LINE
  8
0
 10
-58.3988
 20
-232.251
 11
-58.3458
 21
-232.007
  0
LINE
  8
0
 10
-58.3458
 20
-232.007
 11
-58.2585
 21
-231.773
  0
LINE
  8
0
 10
-58.2585
 20
-231.773
 11
-58.1389
 21
-231.554
  0
LINE
  8
0
 10
-58.1389
 20
-231.554
 11
-57.9892
 21
-231.354
  0
LINE
  8
0
 10
-57.9892
 20
-231.354
 11
-57.8127
 21
-231.177
  0
LINE
  8
0
 10
-57.8127
 20
-231.177
 11
-57.6128
 21
-231.028
  0
LINE
  8
0
 10
-57.6128
 20
-231.028
 11
-57.3936
 21
-230.908
  0
LINE
  8
0
 10
-57.3936
 20
-230.908
 11
-57.1597
 21
-230.821
  0
LINE
  8
0
 10
-57.1597
 20
-230.821
 11
-56.9157
 21
-230.768
  0
LINE
  8
0
 10
-56.9157
 20
-230.768
 11
-56.6667
 21
-230.75
  0
LINE
  8
0
 10
-56.6667
 20
-230.75
 11
61.6667
 21
-230.75
  0
LINE
  8
0
 10
61.6667
 20
-230.75
 11
61.9157
 21
-230.768
  0
LINE
  8
0
 10
61.9157
 20
-230.768
 11
62.1597
 21
-230.821
  0
LINE
  8
0
 10
62.1597
 20
-230.821
 11
62.3936
 21
-230.908
  0
LINE
  8
0
 10
62.3936
 20
-230.908
 11
62.6128
 21
-231.028
  0
LINE
  8
0
 10
62.6128
 20
-231.028
 11
62.8127
 21
-231.177
  0
LINE
  8
0
 10
62.8127
 20
-231.177
 11
62.9892
 21
-231.354
  0
LINE
  8
0
 10
62.9892
 20
-231.354
 11
63.1389
 21
-231.554
  0
LINE
  8
0
 10
63.1389
 20
-231.554
 11
63.2585
 21
-231.773
  0
LINE
  8
0
 10
63.2585
 20
-231.773
 11
63.3458
 21
-232.007
  0
LINE
  8
0
 10
63.3458
 20
-232.007
 11
63.3988
 21
-232.251
  0
LINE
  8
0
 10
63.3988
 20
-232.251
 11
63.4167
 21
-232.5
  0
LINE
  8
0
 10
63.4167
 20
-232.5
 11
63.3988
 21
-232.749
  0
LINE
  8
0
 10
63.3988
 20
-232.749
 11
63.3458
 21
-232.993
  0
LINE
  8
0
 10
63.3458
 20
-232.993
 11
63.2585
 21
-233.227
  0
LINE
  8
0
 10
63.2585
 20
-233.227
 11
63.1389
 21
-233.446
  0
LINE
  8
0
 10
63.1389
 20
-233.446
 11
62.9892
 21
-233.646
  0
LINE
  8
0
 10
62.9892
 20
-233.646
 11
62.8127
 21
-233.823
  0
LINE
  8
0
 10
62.8127
 20
-233.823
 11
62.6128
 21
-233.972
  0
LINE
  8
0
 10
62.6128
 20
-233.972
 11
62.3936
 21
-234.092
  0
LINE
  8
0
 10
62.3936
 20
-234.092
 11
62.1597
 21
-234.179
  0
LINE
  8
0
 10
62.1597
 20
-234.179
 11
61.9157
 21
-234.232
  0
LINE
  8
0
 10
61.9157
 20
-234.232
 11
61.6667
 21
-234.25
  0
LINE
  8
0
 10
61.6667
 20
-234.25
 11
-56.6667
 21
-234.25
  0
LINE
  8
0
 10
209.691
 20
-234.172
 11
209.451
 21
-234.109
  0
LINE
  8
0
 10
209.451
 20
-234.109
 11
209.223
 21
-234.012
  0
LINE
  8
0
 10
209.223
 20
-234.012
 11
209.011
 21
-233.883
  0
LINE
  8
0
 10
209.011
 20
-233.883
 11
208.82
 21
-233.724
  0
LINE
  8
0
 10
208.82
 20
-233.724
 11
208.654
 21
-233.539
  0
LINE
  8
0
 10
208.654
 20
-233.539
 11
208.518
 21
-233.332
  0
LINE
  8
0
 10
208.518
 20
-233.332
 11
208.412
 21
-233.107
  0
LINE
  8
0
 10
208.412
 20
-233.107
 11
208.341
 21
-232.87
  0
LINE
  8
0
 10
208.341
 20
-232.87
 11
208.305
 21
-232.624
  0
LINE
  8
0
 10
208.305
 20
-232.624
 11
208.305
 21
-232.376
  0
LINE
  8
0
 10
208.305
 20
-232.376
 11
208.341
 21
-232.13
  0
LINE
  8
0
 10
208.341
 20
-232.13
 11
208.412
 21
-231.893
  0
LINE
  8
0
 10
208.412
 20
-231.893
 11
208.518
 21
-231.668
  0
LINE
  8
0
 10
208.518
 20
-231.668
 11
208.654
 21
-231.461
  0
LINE
  8
0
 10
208.654
 20
-231.461
 11
208.82
 21
-231.276
  0
LINE
  8
0
 10
208.82
 20
-231.276
 11
209.011
 21
-231.117
  0
LINE
  8
0
 10
209.011
 20
-231.117
 11
209.223
 21
-230.988
  0
LINE
  8
0
 10
209.223
 20
-230.988
 11
209.451
 21
-230.891
  0
LINE
  8
0
 10
209.451
 20
-230.891
 11
209.691
 21
-230.828
  0
LINE
  8
0
 10
209.691
 20
-230.828
 11
209.938
 21
-230.801
  0
LINE
  8
0
 10
209.938
 20
-230.801
 11
210.186
 21
-230.81
  0
LINE
  8
0
 10
210.186
 20
-230.81
 11
210.43
 21
-230.855
  0
LINE
  8
0
 10
210.43
 20
-230.855
 11
210.665
 21
-230.935
  0
LINE
  8
0
 10
210.665
 20
-230.935
 11
210.886
 21
-231.049
  0
LINE
  8
0
 10
210.886
 20
-231.049
 11
211.087
 21
-231.193
  0
LINE
  8
0
 10
211.087
 20
-231.193
 11
211.266
 21
-231.366
  0
LINE
  8
0
 10
211.266
 20
-231.366
 11
211.418
 21
-231.562
  0
LINE
  8
0
 10
211.418
 20
-231.562
 11
211.539
 21
-231.778
  0
LINE
  8
0
 10
211.539
 20
-231.778
 11
211.628
 21
-232.01
  0
LINE
  8
0
 10
211.628
 20
-232.01
 11
211.682
 21
-232.252
  0
LINE
  8
0
 10
211.682
 20
-232.252
 11
211.7
 21
-232.5
  0
LINE
  8
0
 10
211.7
 20
-232.5
 11
211.682
 21
-232.748
  0
LINE
  8
0
 10
211.682
 20
-232.748
 11
211.628
 21
-232.99
  0
LINE
  8
0
 10
211.628
 20
-232.99
 11
211.539
 21
-233.222
  0
LINE
  8
0
 10
211.539
 20
-233.222
 11
211.418
 21
-233.438
  0
LINE
  8
0
 10
211.418
 20
-233.438
 11
211.266
 21
-233.634
  0
LINE
  8
0
 10
211.266
 20
-233.634
 11
211.087
 21
-233.807
  0
LINE
  8
0
 10
211.087
 20
-233.807
 11
210.886
 21
-233.951
  0
LINE
  8
0
 10
210.886
 20
-233.951
 11
210.665
 21
-234.065
  0
LINE
  8
0
 10
210.665
 20
-234.065
 11
210.43
 21
-234.145
  0
LINE
  8
0
 10
210.43
 20
-234.145
 11
210.186
 21
-234.19
  0
LINE
  8
0
 10
210.186
 20
-234.19
 11
209.938
 21
-234.199
  0
LINE
  8
0
 10
209.938
 20
-234.199
 11
209.691
 21
-234.172
  0
LINE
  8
0
 10
-210.186
 20
-234.19
 11
-210.43
 21
-234.145
  0
LINE
  8
0
 10
-210.43
 20
-234.145
 11
-210.665
 21
-234.065
  0
LINE
  8
0
 10
-210.665
 20
-234.065
 11
-210.886
 21
-233.951
  0
LINE
  8
0
 10
-210.886
 20
-233.951
 11
-211.087
 21
-233.807
  0
LINE
  8
0
 10
-211.087
 20
-233.807
 11
-211.266
 21
-233.634
  0
LINE
  8
0
 10
-211.266
 20
-233.634
 11
-211.418
 21
-233.438
  0
LINE
  8
0
 10
-211.418
 20
-233.438
 11
-211.539
 21
-233.222
  0
LINE
  8
0
 10
-211.539
 20
-233.222
 11
-211.628
 21
-232.99
  0
LINE
  8
0
 10
-211.628
 20
-232.99
 11
-211.682
 21
-232.748
  0
LINE
  8
0
 10
-211.682
 20
-232.748
 11
-211.7
 21
-232.5
  0
LINE
  8
0
 10
-211.7
 20
-232.5
 11
-211.682
 21
-232.252
  0
LINE
  8
0
 10
-211.682
 20
-232.252
 11
-211.628
 21
-232.01
  0
LINE
  8
0
 10
-211.628
 20
-232.01
 11
-211.539
 21
-231.778
  0
LINE
  8
0
 10
-211.539
 20
-231.778
 11
-211.418
 21
-231.562
  0
LINE
  8
0
 10
-211.418
 20
-231.562
 11
-211.266
 21
-231.366
  0
LINE
  8
0
 10
-211.266
 20
-231.366
 11
-211.087
 21
-231.193
  0
LINE
  8
0
 10
-211.087
 20
-231.193
 11
-210.886
 21
-231.049
  0
LINE
  8
0
 10
-210.886
 20
-231.049
 11
-210.665
 21
-230.935
  0
LINE
  8
0
 10
-210.665
 20
-230.935
 11
-210.43
 21
-230.855
  0
LINE
  8
0
 10
-210.43
 20
-230.855
 11
-210.186
 21
-230.81
  0
LINE
  8
0
 10
-210.186
 20
-230.81
 11
-209.938
 21
-230.801
  0
LINE
  8
0
 10
-209.938
 20
-230.801
 11
-209.691
 21
-230.828
  0
LINE
  8
0
 10
-209.691
 20
-230.828
 11
-209.451
 21
-230.891
  0
LINE
  8
0
 10
-209.451
 20
-230.891
 11
-209.223
 21
-230.988
  0
LINE
  8
0
 10
-209.223
 20
-230.988
 11
-209.011
 21
-231.117
  0
LINE
  8
0
 10
-209.011
 20
-231.117
 11
-208.82
 21
-231.276
  0
LINE
  8
0
 10
-208.82
 20
-231.276
 11
-208.654
 21
-231.461
  0
LINE
  8
0
 10
-208.654
 20
-231.461
 11
-208.518
 21
-231.668
  0
LINE
  8
0
 10
-208.518
 20
-231.668
 11
-208.412
 21
-231.893
  0
LINE
  8
0
 10
-208.412
 20
-231.893
 11
-208.341
 21
-232.13
  0
LINE
  8
0
 10
-208.341
 20
-232.13
 11
-208.305
 21
-232.376
  0
LINE
  8
0
 10
-208.305
 20
-232.376
 11
-208.305
 21
-232.624
  0
LINE
  8
0
 10
-208.305
 20
-232.624
 11
-208.341
 21
-232.87
  0
LINE
  8
0
 10
-208.341
 20
-232.87
 11
-208.412
 21
-233.107
  0
LINE
  8
0
 10
-208.412
 20
-233.107
 11
-208.518
 21
-233.332
  0
LINE
  8
0
 10
-208.518
 20
-233.332
 11
-208.654
 21
-233.539
  0
LINE
  8
0
 10
-208.654
 20
-233.539
 11
-208.82
 21
-233.724
  0
LINE
  8
0
 10
-208.82
 20
-233.724
 11
-209.011
 21
-233.883
  0
LINE
  8
0
 10
-209.011
 20
-233.883
 11
-209.223
 21
-234.012
  0
LINE
  8
0
 10
-209.223
 20
-234.012
 11
-209.451
 21
-234.109
  0
LINE
  8
0
 10
-209.451
 20
-234.109
 11
-209.691
 21
-234.172
  0
LINE
  8
0
 10
-209.691
 20
-234.172
 11
-209.938
 21
-234.199
  0
LINE
  8
0
 10
-209.938
 20
-234.199
 11
-210.186
 21
-234.19
  0
ENDSEC
  0
SECTION
  2
OBJECTS
  0
DICTIONARY
  0
ENDSEC
  0
EOF
