  0
SECTION
  2
BLOCKS
  0
ENDSEC
  0
SECTION
  2
ENTITIES
  0
LINE
  8
0
 10
245.398
 20
-242.348
 11
245.915
 21
-242.266
  0
LINE
  8
0
 10
245.915
 20
-242.266
 11
246.42
 21
-242.13
  0
LINE
  8
0
 10
246.42
 20
-242.13
 11
246.909
 21
-241.943
  0
LINE
  8
0
 10
246.909
 20
-241.943
 11
247.375
 21
-241.705
  0
LINE
  8
0
 10
247.375
 20
-241.705
 11
247.814
 21
-241.42
  0
LINE
  8
0
 10
247.814
 20
-241.42
 11
248.221
 21
-241.091
  0
LINE
  8
0
 10
248.221
 20
-241.091
 11
248.591
 21
-240.721
  0
LINE
  8
0
 10
248.591
 20
-240.721
 11
248.92
 21
-240.314
  0
LINE
  8
0
 10
248.92
 20
-240.314
 11
249.205
 21
-239.875
  0
LINE
  8
0
 10
249.205
 20
-239.875
 11
249.443
 21
-239.409
  0
LINE
  8
0
 10
249.443
 20
-239.409
 11
249.63
 21
-238.92
  0
LINE
  8
0
 10
249.63
 20
-238.92
 11
249.766
 21
-238.415
  0
LINE
  8
0
 10
249.766
 20
-238.415
 11
249.848
 21
-237.898
  0
LINE
  8
0
 10
249.848
 20
-237.898
 11
249.875
 21
-237.375
  0
LINE
  8
0
 10
249.875
 20
-237.375
 11
249.875
 21
237.375
  0
LINE
  8
0
 10
249.875
 20
237.375
 11
249.848
 21
237.898
  0
LINE
  8
0
 10
249.848
 20
237.898
 11
249.766
 21
238.415
  0
LINE
  8
0
 10
249.766
 20
238.415
 11
249.63
 21
238.92
  0
LINE
  8
0
 10
249.63
 20
238.92
 11
249.443
 21
239.409
  0
LINE
  8
0
 10
249.443
 20
239.409
 11
249.205
 21
239.875
  0
LINE
  8
0
 10
249.205
 20
239.875
 11
248.92
 21
240.314
  0
LINE
  8
0
 10
248.92
 20
240.314
 11
248.591
 21
240.721
  0
LINE
  8
0
 10
248.591
 20
240.721
 11
248.221
 21
241.091
  0
LINE
  8
0
 10
248.221
 20
241.091
 11
247.814
 21
241.42
  0
LINE
  8
0
 10
247.814
 20
241.42
 11
247.375
 21
241.705
  0
LINE
  8
0
 10
247.375
 20
241.705
 11
246.909
 21
241.943
  0
LINE
  8
0
 10
246.909
 20
241.943
 11
246.42
 21
242.13
  0
LINE
  8
0
 10
246.42
 20
242.13
 11
245.915
 21
242.266
  0
LINE
  8
0
 10
245.915
 20
242.266
 11
245.398
 21
242.348
  0
LINE
  8
0
 10
245.398
 20
242.348
 11
244.875
 21
242.375
  0
LINE
  8
0
 10
244.875
 20
242.375
 11
-244.875
 21
242.375
  0
LINE
  8
0
 10
-244.875
 20
242.375
 11
-245.398
 21
242.348
  0
LINE
  8
0
 10
-245.398
 20
242.348
 11
-245.915
 21
242.266
  0
LINE
  8
0
 10
-245.915
 20
242.266
 11
-246.42
 21
242.13
  0
LINE
  8
0
 10
-246.42
 20
242.13
 11
-246.909
 21
241.943
  0
LINE
  8
0
 10
-246.909
 20
241.943
 11
-247.375
 21
241.705
  0
LINE
  8
0
 10
-247.375
 20
241.705
 11
-247.814
 21
241.42
  0
LINE
  8
0
 10
-247.814
 20
241.42
 11
-248.221
 21
241.091
  0
LINE
  8
0
 10
-248.221
 20
241.091
 11
-248.591
 21
240.721
  0
LINE
  8
0
 10
-248.591
 20
240.721
 11
-248.92
 21
240.314
  0
LINE
  8
0
 10
-248.92
 20
240.314
 11
-249.205
 21
239.875
  0
LINE
  8
0
 10
-249.205
 20
239.875
 11
-249.443
 21
239.409
  0
LINE
  8
0
 10
-249.443
 20
239.409
 11
-249.63
 21
238.92
  0
LINE
  8
0
 10
-249.63
 20
238.92
 11
-249.766
 21
238.415
  0
LINE
  8
0
 10
-249.766
 20
238.415
 11
-249.848
 21
237.898
  0
LINE
  8
0
 10
-249.848
 20
237.898
 11
-249.875
 21
237.375
  0
LINE
  8
0
 10
-249.875
 20
237.375
 11
-249.875
 21
-237.375
  0
LINE
  8
0
 10
-249.875
 20
-237.375
 11
-249.848
 21
-237.898
  0
LINE
  8
0
 10
-249.848
 20
-237.898
 11
-249.766
 21
-238.415
  0
LINE
  8
0
 10
-249.766
 20
-238.415
 11
-249.63
 21
-238.92
  0
LINE
  8
0
 10
-249.63
 20
-238.92
 11
-249.443
 21
-239.409
  0
LINE
  8
0
 10
-249.443
 20
-239.409
 11
-249.205
 21
-239.875
  0
LINE
  8
0
 10
-249.205
 20
-239.875
 11
-248.92
 21
-240.314
  0
LINE
  8
0
 10
-248.92
 20
-240.314
 11
-248.591
 21
-240.721
  0
LINE
  8
0
 10
-248.591
 20
-240.721
 11
-248.221
 21
-241.091
  0
LINE
  8
0
 10
-248.221
 20
-241.091
 11
-247.814
 21
-241.42
  0
LINE
  8
0
 10
-247.814
 20
-241.42
 11
-247.375
 21
-241.705
  0
LINE
  8
0
 10
-247.375
 20
-241.705
 11
-246.909
 21
-241.943
  0
LINE
  8
0
 10
-246.909
 20
-241.943
 11
-246.42
 21
-242.13
  0
LINE
  8
0
 10
-246.42
 20
-242.13
 11
-245.915
 21
-242.266
  0
LINE
  8
0
 10
-245.915
 20
-242.266
 11
-245.398
 21
-242.348
  0
LINE
  8
0
 10
-245.398
 20
-242.348
 11
-244.875
 21
-242.375
  0
LINE
  8
0
 10
-244.875
 20
-242.375
 11
244.875
 21
-242.375
  0
LINE
  8
0
 10
244.875
 20
-242.375
 11
245.398
 21
-242.348
  0
LINE
  8
0
 10
239.477
 20
227.527
 11
238.96
 21
227.609
  0
LINE
  8
0
 10
238.96
 20
227.609
 11
238.455
 21
227.745
  0
LINE
  8
0
 10
238.455
 20
227.745
 11
237.966
 21
227.932
  0
LINE
  8
0
 10
237.966
 20
227.932
 11
237.5
 21
228.17
  0
LINE
  8
0
 10
237.5
 20
228.17
 11
237.061
 21
228.455
  0
LINE
  8
0
 10
237.061
 20
228.455
 11
236.654
 21
228.784
  0
LINE
  8
0
 10
236.654
 20
228.784
 11
236.284
 21
229.154
  0
LINE
  8
0
 10
236.284
 20
229.154
 11
235.955
 21
229.561
  0
LINE
  8
0
 10
235.955
 20
229.561
 11
235.67
 21
230
  0
LINE
  8
0
 10
235.67
 20
230
 11
235.432
 21
230.466
  0
LINE
  8
0
 10
235.432
 20
230.466
 11
235.245
 21
230.955
  0
LINE
  8
0
 10
235.245
 20
230.955
 11
235.109
 21
231.46
  0
LINE
  8
0
 10
235.109
 20
231.46
 11
235.027
 21
231.977
  0
LINE
  8
0
 10
235.027
 20
231.977
 11
235
 21
232.5
  0
LINE
  8
0
 10
235
 20
232.5
 11
235.027
 21
233.023
  0
LINE
  8
0
 10
235.027
 20
233.023
 11
235.109
 21
233.54
  0
LINE
  8
0
 10
235.109
 20
233.54
 11
235.245
 21
234.045
  0
LINE
  8
0
 10
235.245
 20
234.045
 11
235.432
 21
234.534
  0
LINE
  8
0
 10
235.432
 20
234.534
 11
235.67
 21
235
  0
LINE
  8
0
 10
235.67
 20
235
 11
235.955
 21
235.439
  0
LINE
  8
0
 10
235.955
 20
235.439
 11
236.284
 21
235.846
  0
LINE
  8
0
 10
236.284
 20
235.846
 11
236.654
 21
236.216
  0
LINE
  8
0
 10
236.654
 20
236.216
 11
237.061
 21
236.545
  0
LINE
  8
0
 10
237.061
 20
236.545
 11
237.5
 21
236.83
  0
LINE
  8
0
 10
237.5
 20
236.83
 11
237.966
 21
237.068
  0
LINE
  8
0
 10
237.966
 20
237.068
 11
238.455
 21
237.255
  0
LINE
  8
0
 10
238.455
 20
237.255
 11
238.96
 21
237.391
  0
LINE
  8
0
 10
238.96
 20
237.391
 11
239.477
 21
237.473
  0
LINE
  8
0
 10
239.477
 20
237.473
 11
240
 21
237.5
  0
LINE
  8
0
 10
240
 20
237.5
 11
240.523
 21
237.473
  0
LINE
  8
0
 10
240.523
 20
237.473
 11
241.04
 21
237.391
  0
LINE
  8
0
 10
241.04
 20
237.391
 11
241.545
 21
237.255
  0
LINE
  8
0
 10
241.545
 20
237.255
 11
242.034
 21
237.068
  0
LINE
  8
0
 10
242.034
 20
237.068
 11
242.5
 21
236.83
  0
LINE
  8
0
 10
242.5
 20
236.83
 11
242.939
 21
236.545
  0
LINE
  8
0
 10
242.939
 20
236.545
 11
243.346
 21
236.216
  0
LINE
  8
0
 10
243.346
 20
236.216
 11
243.716
 21
235.846
  0
LINE
  8
0
 10
243.716
 20
235.846
 11
244.045
 21
235.439
  0
LINE
  8
0
 10
244.045
 20
235.439
 11
244.33
 21
235
  0
LINE
  8
0
 10
244.33
 20
235
 11
244.568
 21
234.534
  0
LINE
  8
0
 10
244.568
 20
234.534
 11
244.755
 21
234.045
  0
LINE
  8
0
 10
244.755
 20
234.045
 11
244.891
 21
233.54
  0
LINE
  8
0
 10
244.891
 20
233.54
 11
244.973
 21
233.023
  0
LINE
  8
0
 10
244.973
 20
233.023
 11
245
 21
232.5
  0
LINE
  8
0
 10
245
 20
232.5
 11
244.973
 21
231.977
  0
LINE
  8
0
 10
244.973
 20
231.977
 11
244.891
 21
231.46
  0
LINE
  8
0
 10
244.891
 20
231.46
 11
244.755
 21
230.955
  0
LINE
  8
0
 10
244.755
 20
230.955
 11
244.568
 21
230.466
  0
LINE
  8
0
 10
244.568
 20
230.466
 11
244.33
 21
230
  0
LINE
  8
0
 10
244.33
 20
230
 11
244.045
 21
229.561
  0
LINE
  8
0
 10
244.045
 20
229.561
 11
243.716
 21
229.154
  0
LINE
  8
0
 10
243.716
 20
229.154
 11
243.346
 21
228.784
  0
LINE
  8
0
 10
243.346
 20
228.784
 11
242.939
 21
228.455
  0
LINE
  8
0
 10
242.939
 20
228.455
 11
242.5
 21
228.17
  0
LINE
  8
0
 10
242.5
 20
228.17
 11
242.034
 21
227.932
  0
LINE
  8
0
 10
242.034
 20
227.932
 11
241.545
 21
227.745
  0
LINE
  8
0
 10
241.545
 20
227.745
 11
241.04
 21
227.609
  0
LINE
  8
0
 10
241.04
 20
227.609
 11
240.523
 21
227.527
  0
LINE
  8
0
 10
240.523
 20
227.527
 11
240
 21
227.5
  0
LINE
  8
0
 10
240
 20
227.5
 11
239.477
 21
227.527
  0
LINE
  8
0
 10
-240.523
 20
227.527
 11
-241.04
 21
227.609
  0
LINE
  8
0
 10
-241.04
 20
227.609
 11
-241.545
 21
227.745
  0
LINE
  8
0
 10
-241.545
 20
227.745
 11
-242.034
 21
227.932
  0
LINE
  8
0
 10
-242.034
 20
227.932
 11
-242.5
 21
228.17
  0
LINE
  8
0
 10
-242.5
 20
228.17
 11
-242.939
 21
228.455
  0
LINE
  8
0
 10
-242.939
 20
228.455
 11
-243.346
 21
228.784
  0
LINE
  8
0
 10
-243.346
 20
228.784
 11
-243.716
 21
229.154
  0
LINE
  8
0
 10
-243.716
 20
229.154
 11
-244.045
 21
229.561
  0
LINE
  8
0
 10
-244.045
 20
229.561
 11
-244.33
 21
230
  0
LINE
  8
0
 10
-244.33
 20
230
 11
-244.568
 21
230.466
  0
LINE
  8
0
 10
-244.568
 20
230.466
 11
-244.755
 21
230.955
  0
LINE
  8
0
 10
-244.755
 20
230.955
 11
-244.891
 21
231.46
  0
LINE
  8
0
 10
-244.891
 20
231.46
 11
-244.973
 21
231.977
  0
LINE
  8
0
 10
-244.973
 20
231.977
 11
-245
 21
232.5
  0
LINE
  8
0
 10
-245
 20
232.5
 11
-244.973
 21
233.023
  0
LINE
  8
0
 10
-244.973
 20
233.023
 11
-244.891
 21
233.54
  0
LINE
  8
0
 10
-244.891
 20
233.54
 11
-244.755
 21
234.045
  0
LINE
  8
0
 10
-244.755
 20
234.045
 11
-244.568
 21
234.534
  0
LINE
  8
0
 10
-244.568
 20
234.534
 11
-244.33
 21
235
  0
LINE
  8
0
 10
-244.33
 20
235
 11
-244.045
 21
235.439
  0
LINE
  8
0
 10
-244.045
 20
235.439
 11
-243.716
 21
235.846
  0
LINE
  8
0
 10
-243.716
 20
235.846
 11
-243.346
 21
236.216
  0
LINE
  8
0
 10
-243.346
 20
236.216
 11
-242.939
 21
236.545
  0
LINE
  8
0
 10
-242.939
 20
236.545
 11
-242.5
 21
236.83
  0
LINE
  8
0
 10
-242.5
 20
236.83
 11
-242.034
 21
237.068
  0
LINE
  8
0
 10
-242.034
 20
237.068
 11
-241.545
 21
237.255
  0
LINE
  8
0
 10
-241.545
 20
237.255
 11
-241.04
 21
237.391
  0
LINE
  8
0
 10
-241.04
 20
237.391
 11
-240.523
 21
237.473
  0
LINE
  8
0
 10
-240.523
 20
237.473
 11
-240
 21
237.5
  0
LINE
  8
0
 10
-240
 20
237.5
 11
-239.477
 21
237.473
  0
LINE
  8
0
 10
-239.477
 20
237.473
 11
-238.96
 21
237.391
  0
LINE
  8
0
 10
-238.96
 20
237.391
 11
-238.455
 21
237.255
  0
LINE
  8
0
 10
-238.455
 20
237.255
 11
-237.966
 21
237.068
  0
LINE
  8
0
 10
-237.966
 20
237.068
 11
-237.5
 21
236.83
  0
LINE
  8
0
 10
-237.5
 20
236.83
 11
-237.061
 21
236.545
  0
LINE
  8
0
 10
-237.061
 20
236.545
 11
-236.654
 21
236.216
  0
LINE
  8
0
 10
-236.654
 20
236.216
 11
-236.284
 21
235.846
  0
LINE
  8
0
 10
-236.284
 20
235.846
 11
-235.955
 21
235.439
  0
LINE
  8
0
 10
-235.955
 20
235.439
 11
-235.67
 21
235
  0
LINE
  8
0
 10
-235.67
 20
235
 11
-235.432
 21
234.534
  0
LINE
  8
0
 10
-235.432
 20
234.534
 11
-235.245
 21
234.045
  0
LINE
  8
0
 10
-235.245
 20
234.045
 11
-235.109
 21
233.54
  0
LINE
  8
0
 10
-235.109
 20
233.54
 11
-235.027
 21
233.023
  0
LINE
  8
0
 10
-235.027
 20
233.023
 11
-235
 21
232.5
  0
LINE
  8
0
 10
-235
 20
232.5
 11
-235.027
 21
231.977
  0
LINE
  8
0
 10
-235.027
 20
231.977
 11
-235.109
 21
231.46
  0
LINE
  8
0
 10
-235.109
 20
231.46
 11
-235.245
 21
230.955
  0
LINE
  8
0
 10
-235.245
 20
230.955
 11
-235.432
 21
230.466
  0
LINE
  8
0
 10
-235.432
 20
230.466
 11
-235.67
 21
230
  0
LINE
  8
0
 10
-235.67
 20
230
 11
-235.955
 21
229.561
  0
LINE
  8
0
 10
-235.955
 20
229.561
 11
-236.284
 21
229.154
  0
LINE
  8
0
 10
-236.284
 20
229.154
 11
-236.654
 21
228.784
  0
LINE
  8
0
 10
-236.654
 20
228.784
 11
-237.061
 21
228.455
  0
LINE
  8
0
 10
-237.061
 20
228.455
 11
-237.5
 21
228.17
  0
LINE
  8
0
 10
-237.5
 20
228.17
 11
-237.966
 21
227.932
  0
LINE
  8
0
 10
-237.966
 20
227.932
 11
-238.455
 21
227.745
  0
LINE
  8
0
 10
-238.455
 20
227.745
 11
-238.96
 21
227.609
  0
LINE
  8
0
 10
-238.96
 20
227.609
 11
-239.477
 21
227.527
  0
LINE
  8
0
 10
-239.477
 20
227.527
 11
-240
 21
227.5
  0
LINE
  8
0
 10
-240
 20
227.5
 11
-240.523
 21
227.527
  0
LINE
  8
0
 10
-100.186
 20
230.258
 11
-100.431
 21
230.292
  0
LINE
  8
0
 10
-100.431
 20
230.292
 11
-100.672
 21
230.353
  0
LINE
  8
0
 10
-100.672
 20
230.353
 11
-100.904
 21
230.44
  0
LINE
  8
0
 10
-100.904
 20
230.44
 11
-101.125
 21
230.551
  0
LINE
  8
0
 10
-101.125
 20
230.551
 11
-101.333
 21
230.687
  0
LINE
  8
0
 10
-101.333
 20
230.687
 11
-101.524
 21
230.845
  0
LINE
  8
0
 10
-101.524
 20
230.845
 11
-101.697
 21
231.022
  0
LINE
  8
0
 10
-101.697
 20
231.022
 11
-101.849
 21
231.218
  0
LINE
  8
0
 10
-101.849
 20
231.218
 11
-101.979
 21
231.429
  0
LINE
  8
0
 10
-101.979
 20
231.429
 11
-102.085
 21
231.653
  0
LINE
  8
0
 10
-102.085
 20
231.653
 11
-102.165
 21
231.888
  0
LINE
  8
0
 10
-102.165
 20
231.888
 11
-102.219
 21
232.13
  0
LINE
  8
0
 10
-102.219
 20
232.13
 11
-102.247
 21
232.376
  0
LINE
  8
0
 10
-102.247
 20
232.376
 11
-102.247
 21
232.624
  0
LINE
  8
0
 10
-102.247
 20
232.624
 11
-102.219
 21
232.87
  0
LINE
  8
0
 10
-102.219
 20
232.87
 11
-102.165
 21
233.112
  0
LINE
  8
0
 10
-102.165
 20
233.112
 11
-102.085
 21
233.347
  0
LINE
  8
0
 10
-102.085
 20
233.347
 11
-101.979
 21
233.571
  0
LINE
  8
0
 10
-101.979
 20
233.571
 11
-101.849
 21
233.782
  0
LINE
  8
0
 10
-101.849
 20
233.782
 11
-101.697
 21
233.978
  0
LINE
  8
0
 10
-101.697
 20
233.978
 11
-101.524
 21
234.155
  0
LINE
  8
0
 10
-101.524
 20
234.155
 11
-101.333
 21
234.313
  0
LINE
  8
0
 10
-101.333
 20
234.313
 11
-101.125
 21
234.449
  0
LINE
  8
0
 10
-101.125
 20
234.449
 11
-100.904
 21
234.56
  0
LINE
  8
0
 10
-100.904
 20
234.56
 11
-100.672
 21
234.647
  0
LINE
  8
0
 10
-100.672
 20
234.647
 11
-100.431
 21
234.708
  0
LINE
  8
0
 10
-100.431
 20
234.708
 11
-100.186
 21
234.742
  0
LINE
  8
0
 10
-100.186
 20
234.742
 11
-99.938
 21
234.749
  0
LINE
  8
0
 10
-99.938
 20
234.749
 11
-99.6909
 21
234.729
  0
LINE
  8
0
 10
-99.6909
 20
234.729
 11
-99.4476
 21
234.681
  0
LINE
  8
0
 10
-99.4476
 20
234.681
 11
-99.2111
 21
234.607
  0
LINE
  8
0
 10
-99.2111
 20
234.607
 11
-98.984
 21
234.508
  0
LINE
  8
0
 10
-98.984
 20
234.508
 11
-98.7694
 21
234.384
  0
LINE
  8
0
 10
-98.7694
 20
234.384
 11
-98.5696
 21
234.237
  0
LINE
  8
0
 10
-98.5696
 20
234.237
 11
-98.3872
 21
234.069
  0
LINE
  8
0
 10
-98.3872
 20
234.069
 11
-98.2244
 21
233.882
  0
LINE
  8
0
 10
-98.2244
 20
233.882
 11
-98.0832
 21
233.678
  0
LINE
  8
0
 10
-98.0832
 20
233.678
 11
-97.9652
 21
233.46
  0
LINE
  8
0
 10
-97.9652
 20
233.46
 11
-97.8719
 21
233.231
  0
LINE
  8
0
 10
-97.8719
 20
233.231
 11
-97.8045
 21
232.992
  0
LINE
  8
0
 10
-97.8045
 20
232.992
 11
-97.7637
 21
232.748
  0
LINE
  8
0
 10
-97.7637
 20
232.748
 11
-97.75
 21
232.5
  0
LINE
  8
0
 10
-97.75
 20
232.5
 11
-97.7637
 21
232.252
  0
LINE
  8
0
 10
-97.7637
 20
232.252
 11
-97.8045
 21
232.008
  0
LINE
  8
0
 10
-97.8045
 20
232.008
 11
-97.8719
 21
231.769
  0
LINE
  8
0
 10
-97.8719
 20
231.769
 11
-97.9652
 21
231.54
  0
LINE
  8
0
 10
-97.9652
 20
231.54
 11
-98.0832
 21
231.322
  0
LINE
  8
0
 10
-98.0832
 20
231.322
 11
-98.2244
 21
231.118
  0
LINE
  8
0
 10
-98.2244
 20
231.118
 11
-98.3872
 21
230.931
  0
LINE
  8
0
 10
-98.3872
 20
230.931
 11
-98.5696
 21
230.763
  0
LINE
  8
0
 10
-98.5696
 20
230.763
 11
-98.7694
 21
230.616
  0
LINE
  8
0
 10
-98.7694
 20
230.616
 11
-98.984
 21
230.492
  0
LINE
  8
0
 10
-98.984
 20
230.492
 11
-99.2111
 21
230.393
  0
LINE
  8
0
 10
-99.2111
 20
230.393
 11
-99.4476
 21
230.319
  0
LINE
  8
0
 10
-99.4476
 20
230.319
 11
-99.6909
 21
230.271
  0
LINE
  8
0
 10
-99.6909
 20
230.271
 11
-99.938
 21
230.251
  0
LINE
  8
0
 10
-99.938
 20
230.251
 11
-100.186
 21
230.258
  0
LINE
  8
0
 10
-0.185791
 20
230.258
 11
-0.431335
 21
230.292
  0
LINE
  8
0
 10
-0.431335
 20
230.292
 11
-0.671646
 21
230.353
  0
LINE
  8
0
 10
-0.671646
 20
230.353
 11
-0.903809
 21
230.44
  0
LINE
  8
0
 10
-0.903809
 20
230.44
 11
-1.125
 21
230.551
  0
LINE
  8
0
 10
-1.125
 20
230.551
 11
-1.33252
 21
230.687
  0
LINE
  8
0
 10
-1.33252
 20
230.687
 11
-1.52388
 21
230.845
  0
LINE
  8
0
 10
-1.52388
 20
230.845
 11
-1.69673
 21
231.022
  0
LINE
  8
0
 10
-1.69673
 20
231.022
 11
-1.849
 21
231.218
  0
LINE
  8
0
 10
-1.849
 20
231.218
 11
-1.97881
 21
231.429
  0
LINE
  8
0
 10
-1.97881
 20
231.429
 11
-2.08461
 21
231.653
  0
LINE
  8
0
 10
-2.08461
 20
231.653
 11
-2.1651
 21
231.888
  0
LINE
  8
0
 10
-2.1651
 20
231.888
 11
-2.2193
 21
232.13
  0
LINE
  8
0
 10
-2.2193
 20
232.13
 11
-2.24658
 21
232.376
  0
LINE
  8
0
 10
-2.24658
 20
232.376
 11
-2.24658
 21
232.624
  0
LINE
  8
0
 10
-2.24658
 20
232.624
 11
-2.2193
 21
232.87
  0
LINE
  8
0
 10
-2.2193
 20
232.87
 11
-2.1651
 21
233.112
  0
LINE
  8
0
 10
-2.1651
 20
233.112
 11
-2.08461
 21
233.347
  0
LINE
  8
0
 10
-2.08461
 20
233.347
 11
-1.97881
 21
233.571
  0
LINE
  8
0
 10
-1.97881
 20
233.571
 11
-1.849
 21
233.782
  0
LINE
  8
0
 10
-1.849
 20
233.782
 11
-1.69673
 21
233.978
  0
LINE
  8
0
 10
-1.69673
 20
233.978
 11
-1.52388
 21
234.155
  0
LINE
  8
0
 10
-1.52388
 20
234.155
 11
-1.33252
 21
234.313
  0
LINE
  8
0
 10
-1.33252
 20
234.313
 11
-1.125
 21
234.449
  0
LINE
  8
0
 10
-1.125
 20
234.449
 11
-0.903809
 21
234.56
  0
LINE
  8
0
 10
-0.903809
 20
234.56
 11
-0.671646
 21
234.647
  0
LINE
  8
0
 10
-0.671646
 20
234.647
 11
-0.431335
 21
234.708
  0
LINE
  8
0
 10
-0.431335
 20
234.708
 11
-0.185791
 21
234.742
  0
LINE
  8
0
 10
-0.185791
 20
234.742
 11
0.0619965
 21
234.749
  0
LINE
  8
0
 10
0.0619965
 20
234.749
 11
0.309036
 21
234.729
  0
LINE
  8
0
 10
0.309036
 20
234.729
 11
0.552338
 21
234.681
  0
LINE
  8
0
 10
0.552338
 20
234.681
 11
0.788925
 21
234.607
  0
LINE
  8
0
 10
0.788925
 20
234.607
 11
1.01595
 21
234.508
  0
LINE
  8
0
 10
1.01595
 20
234.508
 11
1.23062
 21
234.384
  0
LINE
  8
0
 10
1.23062
 20
234.384
 11
1.43037
 21
234.237
  0
LINE
  8
0
 10
1.43037
 20
234.237
 11
1.61275
 21
234.069
  0
LINE
  8
0
 10
1.61275
 20
234.069
 11
1.77556
 21
233.882
  0
LINE
  8
0
 10
1.77556
 20
233.882
 11
1.91681
 21
233.678
  0
LINE
  8
0
 10
1.91681
 20
233.678
 11
2.03479
 21
233.46
  0
LINE
  8
0
 10
2.03479
 20
233.46
 11
2.12808
 21
233.231
  0
LINE
  8
0
 10
2.12808
 20
233.231
 11
2.19554
 21
232.992
  0
LINE
  8
0
 10
2.19554
 20
232.992
 11
2.23634
 21
232.748
  0
LINE
  8
0
 10
2.23634
 20
232.748
 11
2.25
 21
232.5
  0
LINE
  8
0
 10
2.25
 20
232.5
 11
2.23634
 21
232.252
  0
LINE
  8
0
 10
2.23634
 20
232.252
 11
2.19554
 21
232.008
  0
LINE
  8
0
 10
2.19554
 20
232.008
 11
2.12808
 21
231.769
  0
LINE
  8
0
 10
2.12808
 20
231.769
 11
2.03479
 21
231.54
  0
LINE
  8
0
 10
2.03479
 20
231.54
 11
1.91681
 21
231.322
  0
LINE
  8
0
 10
1.91681
 20
231.322
 11
1.77556
 21
231.118
  0
LINE
  8
0
 10
1.77556
 20
231.118
 11
1.61275
 21
230.931
  0
LINE
  8
0
 10
1.61275
 20
230.931
 11
1.43037
 21
230.763
  0
LINE
  8
0
 10
1.43037
 20
230.763
 11
1.23062
 21
230.616
  0
LINE
  8
0
 10
1.23062
 20
230.616
 11
1.01595
 21
230.492
  0
LINE
  8
0
 10
1.01595
 20
230.492
 11
0.788925
 21
230.393
  0
LINE
  8
0
 10
0.788925
 20
230.393
 11
0.552338
 21
230.319
  0
LINE
  8
0
 10
0.552338
 20
230.319
 11
0.309036
 21
230.271
  0
LINE
  8
0
 10
0.309036
 20
230.271
 11
0.0619965
 21
230.251
  0
LINE
  8
0
 10
0.0619965
 20
230.251
 11
-0.185791
 21
230.258
  0
LINE
  8
0
 10
99.8142
 20
230.258
 11
99.5686
 21
230.292
  0
LINE
  8
0
 10
99.5686
 20
230.292
 11
99.3283
 21
230.353
  0
LINE
  8
0
 10
99.3283
 20
230.353
 11
99.0962
 21
230.44
  0
LINE
  8
0
 10
99.0962
 20
230.44
 11
98.875
 21
230.551
  0
LINE
  8
0
 10
98.875
 20
230.551
 11
98.6675
 21
230.687
  0
LINE
  8
0
 10
98.6675
 20
230.687
 11
98.4761
 21
230.845
  0
LINE
  8
0
 10
98.4761
 20
230.845
 11
98.3033
 21
231.022
  0
LINE
  8
0
 10
98.3033
 20
231.022
 11
98.151
 21
231.218
  0
LINE
  8
0
 10
98.151
 20
231.218
 11
98.0212
 21
231.429
  0
LINE
  8
0
 10
98.0212
 20
231.429
 11
97.9154
 21
231.653
  0
LINE
  8
0
 10
97.9154
 20
231.653
 11
97.8349
 21
231.888
  0
LINE
  8
0
 10
97.8349
 20
231.888
 11
97.7807
 21
232.13
  0
LINE
  8
0
 10
97.7807
 20
232.13
 11
97.7534
 21
232.376
  0
LINE
  8
0
 10
97.7534
 20
232.376
 11
97.7534
 21
232.624
  0
LINE
  8
0
 10
97.7534
 20
232.624
 11
97.7807
 21
232.87
  0
LINE
  8
0
 10
97.7807
 20
232.87
 11
97.8349
 21
233.112
  0
LINE
  8
0
 10
97.8349
 20
233.112
 11
97.9154
 21
233.347
  0
LINE
  8
0
 10
97.9154
 20
233.347
 11
98.0212
 21
233.571
  0
LINE
  8
0
 10
98.0212
 20
233.571
 11
98.151
 21
233.782
  0
LINE
  8
0
 10
98.151
 20
233.782
 11
98.3033
 21
233.978
  0
LINE
  8
0
 10
98.3033
 20
233.978
 11
98.4761
 21
234.155
  0
LINE
  8
0
 10
98.4761
 20
234.155
 11
98.6675
 21
234.313
  0
LINE
  8
0
 10
98.6675
 20
234.313
 11
98.875
 21
234.449
  0
LINE
  8
0
 10
98.875
 20
234.449
 11
99.0962
 21
234.56
  0
LINE
  8
0
 10
99.0962
 20
234.56
 11
99.3283
 21
234.647
  0
LINE
  8
0
 10
99.3283
 20
234.647
 11
99.5686
 21
234.708
  0
LINE
  8
0
 10
99.5686
 20
234.708
 11
99.8142
 21
234.742
  0
LINE
  8
0
 10
99.8142
 20
234.742
 11
100.062
 21
234.749
  0
LINE
  8
0
 10
100.062
 20
234.749
 11
100.309
 21
234.729
  0
LINE
  8
0
 10
100.309
 20
234.729
 11
100.552
 21
234.681
  0
LINE
  8
0
 10
100.552
 20
234.681
 11
100.789
 21
234.607
  0
LINE
  8
0
 10
100.789
 20
234.607
 11
101.016
 21
234.508
  0
LINE
  8
0
 10
101.016
 20
234.508
 11
101.231
 21
234.384
  0
LINE
  8
0
 10
101.231
 20
234.384
 11
101.43
 21
234.237
  0
LINE
  8
0
 10
101.43
 20
234.237
 11
101.613
 21
234.069
  0
LINE
  8
0
 10
101.613
 20
234.069
 11
101.776
 21
233.882
  0
LINE
  8
0
 10
101.776
 20
233.882
 11
101.917
 21
233.678
  0
LINE
  8
0
 10
101.917
 20
233.678
 11
102.035
 21
233.46
  0
LINE
  8
0
 10
102.035
 20
233.46
 11
102.128
 21
233.231
  0
LINE
  8
0
 10
102.128
 20
233.231
 11
102.196
 21
232.992
  0
LINE
  8
0
 10
102.196
 20
232.992
 11
102.236
 21
232.748
  0
LINE
  8
0
 10
102.236
 20
232.748
 11
102.25
 21
232.5
  0
LINE
  8
0
 10
102.25
 20
232.5
 11
102.236
 21
232.252
  0
LINE
  8
0
 10
102.236
 20
232.252
 11
102.196
 21
232.008
  0
LINE
  8
0
 10
102.196
 20
232.008
 11
102.128
 21
231.769
  0
LINE
  8
0
 10
102.128
 20
231.769
 11
102.035
 21
231.54
  0
LINE
  8
0
 10
102.035
 20
231.54
 11
101.917
 21
231.322
  0
LINE
  8
0
 10
101.917
 20
231.322
 11
101.776
 21
231.118
  0
LINE
  8
0
 10
101.776
 20
231.118
 11
101.613
 21
230.931
  0
LINE
  8
0
 10
101.613
 20
230.931
 11
101.43
 21
230.763
  0
LINE
  8
0
 10
101.43
 20
230.763
 11
101.231
 21
230.616
  0
LINE
  8
0
 10
101.231
 20
230.616
 11
101.016
 21
230.492
  0
LINE
  8
0
 10
101.016
 20
230.492
 11
100.789
 21
230.393
  0
LINE
  8
0
 10
100.789
 20
230.393
 11
100.552
 21
230.319
  0
LINE
  8
0
 10
100.552
 20
230.319
 11
100.309
 21
230.271
  0
LINE
  8
0
 10
100.309
 20
230.271
 11
100.062
 21
230.251
  0
LINE
  8
0
 10
100.062
 20
230.251
 11
99.8142
 21
230.258
  0
LINE
  8
0
 10
-200.186
 20
230.258
 11
-200.431
 21
230.292
  0
LINE
  8
0
 10
-200.431
 20
230.292
 11
-200.672
 21
230.353
  0
LINE
  8
0
 10
-200.672
 20
230.353
 11
-200.904
 21
230.44
  0
LINE
  8
0
 10
-200.904
 20
230.44
 11
-201.125
 21
230.551
  0
LINE
  8
0
 10
-201.125
 20
230.551
 11
-201.333
 21
230.687
  0
LINE
  8
0
 10
-201.333
 20
230.687
 11
-201.524
 21
230.845
  0
LINE
  8
0
 10
-201.524
 20
230.845
 11
-201.697
 21
231.022
  0
LINE
  8
0
 10
-201.697
 20
231.022
 11
-201.849
 21
231.218
  0
LINE
  8
0
 10
-201.849
 20
231.218
 11
-201.979
 21
231.429
  0
LINE
  8
0
 10
-201.979
 20
231.429
 11
-202.085
 21
231.653
  0
LINE
  8
0
 10
-202.085
 20
231.653
 11
-202.165
 21
231.888
  0
LINE
  8
0
 10
-202.165
 20
231.888
 11
-202.219
 21
232.13
  0
LINE
  8
0
 10
-202.219
 20
232.13
 11
-202.247
 21
232.376
  0
LINE
  8
0
 10
-202.247
 20
232.376
 11
-202.247
 21
232.624
  0
LINE
  8
0
 10
-202.247
 20
232.624
 11
-202.219
 21
232.87
  0
LINE
  8
0
 10
-202.219
 20
232.87
 11
-202.165
 21
233.112
  0
LINE
  8
0
 10
-202.165
 20
233.112
 11
-202.085
 21
233.347
  0
LINE
  8
0
 10
-202.085
 20
233.347
 11
-201.979
 21
233.571
  0
LINE
  8
0
 10
-201.979
 20
233.571
 11
-201.849
 21
233.782
  0
LINE
  8
0
 10
-201.849
 20
233.782
 11
-201.697
 21
233.978
  0
LINE
  8
0
 10
-201.697
 20
233.978
 11
-201.524
 21
234.155
  0
LINE
  8
0
 10
-201.524
 20
234.155
 11
-201.333
 21
234.313
  0
LINE
  8
0
 10
-201.333
 20
234.313
 11
-201.125
 21
234.449
  0
LINE
  8
0
 10
-201.125
 20
234.449
 11
-200.904
 21
234.56
  0
LINE
  8
0
 10
-200.904
 20
234.56
 11
-200.672
 21
234.647
  0
LINE
  8
0
 10
-200.672
 20
234.647
 11
-200.431
 21
234.708
  0
LINE
  8
0
 10
-200.431
 20
234.708
 11
-200.186
 21
234.742
  0
LINE
  8
0
 10
-200.186
 20
234.742
 11
-199.938
 21
234.749
  0
LINE
  8
0
 10
-199.938
 20
234.749
 11
-199.691
 21
234.729
  0
LINE
  8
0
 10
-199.691
 20
234.729
 11
-199.448
 21
234.681
  0
LINE
  8
0
 10
-199.448
 20
234.681
 11
-199.211
 21
234.607
  0
LINE
  8
0
 10
-199.211
 20
234.607
 11
-198.984
 21
234.508
  0
LINE
  8
0
 10
-198.984
 20
234.508
 11
-198.769
 21
234.384
  0
LINE
  8
0
 10
-198.769
 20
234.384
 11
-198.57
 21
234.237
  0
LINE
  8
0
 10
-198.57
 20
234.237
 11
-198.387
 21
234.069
  0
LINE
  8
0
 10
-198.387
 20
234.069
 11
-198.224
 21
233.882
  0
LINE
  8
0
 10
-198.224
 20
233.882
 11
-198.083
 21
233.678
  0
LINE
  8
0
 10
-198.083
 20
233.678
 11
-197.965
 21
233.46
  0
LINE
  8
0
 10
-197.965
 20
233.46
 11
-197.872
 21
233.231
  0
LINE
  8
0
 10
-197.872
 20
233.231
 11
-197.804
 21
232.992
  0
LINE
  8
0
 10
-197.804
 20
232.992
 11
-197.764
 21
232.748
  0
LINE
  8
0
 10
-197.764
 20
232.748
 11
-197.75
 21
232.5
  0
LINE
  8
0
 10
-197.75
 20
232.5
 11
-197.764
 21
232.252
  0
LINE
  8
0
 10
-197.764
 20
232.252
 11
-197.804
 21
232.008
  0
LINE
  8
0
 10
-197.804
 20
232.008
 11
-197.872
 21
231.769
  0
LINE
  8
0
 10
-197.872
 20
231.769
 11
-197.965
 21
231.54
  0
LINE
  8
0
 10
-197.965
 20
231.54
 11
-198.083
 21
231.322
  0
LINE
  8
0
 10
-198.083
 20
231.322
 11
-198.224
 21
231.118
  0
LINE
  8
0
 10
-198.224
 20
231.118
 11
-198.387
 21
230.931
  0
LINE
  8
0
 10
-198.387
 20
230.931
 11
-198.57
 21
230.763
  0
LINE
  8
0
 10
-198.57
 20
230.763
 11
-198.769
 21
230.616
  0
LINE
  8
0
 10
-198.769
 20
230.616
 11
-198.984
 21
230.492
  0
LINE
  8
0
 10
-198.984
 20
230.492
 11
-199.211
 21
230.393
  0
LINE
  8
0
 10
-199.211
 20
230.393
 11
-199.448
 21
230.319
  0
LINE
  8
0
 10
-199.448
 20
230.319
 11
-199.691
 21
230.271
  0
LINE
  8
0
 10
-199.691
 20
230.271
 11
-199.938
 21
230.251
  0
LINE
  8
0
 10
-199.938
 20
230.251
 11
-200.186
 21
230.258
  0
LINE
  8
0
 10
199.814
 20
230.258
 11
199.569
 21
230.292
  0
LINE
  8
0
 10
199.569
 20
230.292
 11
199.328
 21
230.353
  0
LINE
  8
0
 10
199.328
 20
230.353
 11
199.096
 21
230.44
  0
LINE
  8
0
 10
199.096
 20
230.44
 11
198.875
 21
230.551
  0
LINE
  8
0
 10
198.875
 20
230.551
 11
198.667
 21
230.687
  0
LINE
  8
0
 10
198.667
 20
230.687
 11
198.476
 21
230.845
  0
LINE
  8
0
 10
198.476
 20
230.845
 11
198.303
 21
231.022
  0
LINE
  8
0
 10
198.303
 20
231.022
 11
198.151
 21
231.218
  0
LINE
  8
0
 10
198.151
 20
231.218
 11
198.021
 21
231.429
  0
LINE
  8
0
 10
198.021
 20
231.429
 11
197.915
 21
231.653
  0
LINE
  8
0
 10
197.915
 20
231.653
 11
197.835
 21
231.888
  0
LINE
  8
0
 10
197.835
 20
231.888
 11
197.781
 21
232.13
  0
LINE
  8
0
 10
197.781
 20
232.13
 11
197.753
 21
232.376
  0
LINE
  8
0
 10
197.753
 20
232.376
 11
197.753
 21
232.624
  0
LINE
  8
0
 10
197.753
 20
232.624
 11
197.781
 21
232.87
  0
LINE
  8
0
 10
197.781
 20
232.87
 11
197.835
 21
233.112
  0
LINE
  8
0
 10
197.835
 20
233.112
 11
197.915
 21
233.347
  0
LINE
  8
0
 10
197.915
 20
233.347
 11
198.021
 21
233.571
  0
LINE
  8
0
 10
198.021
 20
233.571
 11
198.151
 21
233.782
  0
LINE
  8
0
 10
198.151
 20
233.782
 11
198.303
 21
233.978
  0
LINE
  8
0
 10
198.303
 20
233.978
 11
198.476
 21
234.155
  0
LINE
  8
0
 10
198.476
 20
234.155
 11
198.667
 21
234.313
  0
LINE
  8
0
 10
198.667
 20
234.313
 11
198.875
 21
234.449
  0
LINE
  8
0
 10
198.875
 20
234.449
 11
199.096
 21
234.56
  0
LINE
  8
0
 10
199.096
 20
234.56
 11
199.328
 21
234.647
  0
LINE
  8
0
 10
199.328
 20
234.647
 11
199.569
 21
234.708
  0
LINE
  8
0
 10
199.569
 20
234.708
 11
199.814
 21
234.742
  0
LINE
  8
0
 10
199.814
 20
234.742
 11
200.062
 21
234.749
  0
LINE
  8
0
 10
200.062
 20
234.749
 11
200.309
 21
234.729
  0
LINE
  8
0
 10
200.309
 20
234.729
 11
200.552
 21
234.681
  0
LINE
  8
0
 10
200.552
 20
234.681
 11
200.789
 21
234.607
  0
LINE
  8
0
 10
200.789
 20
234.607
 11
201.016
 21
234.508
  0
LINE
  8
0
 10
201.016
 20
234.508
 11
201.231
 21
234.384
  0
LINE
  8
0
 10
201.231
 20
234.384
 11
201.43
 21
234.237
  0
LINE
  8
0
 10
201.43
 20
234.237
 11
201.613
 21
234.069
  0
LINE
  8
0
 10
201.613
 20
234.069
 11
201.776
 21
233.882
  0
LINE
  8
0
 10
201.776
 20
233.882
 11
201.917
 21
233.678
  0
LINE
  8
0
 10
201.917
 20
233.678
 11
202.035
 21
233.46
  0
LINE
  8
0
 10
202.035
 20
233.46
 11
202.128
 21
233.231
  0
LINE
  8
0
 10
202.128
 20
233.231
 11
202.196
 21
232.992
  0
LINE
  8
0
 10
202.196
 20
232.992
 11
202.236
 21
232.748
  0
LINE
  8
0
 10
202.236
 20
232.748
 11
202.25
 21
232.5
  0
LINE
  8
0
 10
202.25
 20
232.5
 11
202.236
 21
232.252
  0
LINE
  8
0
 10
202.236
 20
232.252
 11
202.196
 21
232.008
  0
LINE
  8
0
 10
202.196
 20
232.008
 11
202.128
 21
231.769
  0
LINE
  8
0
 10
202.128
 20
231.769
 11
202.035
 21
231.54
  0
LINE
  8
0
 10
202.035
 20
231.54
 11
201.917
 21
231.322
  0
LINE
  8
0
 10
201.917
 20
231.322
 11
201.776
 21
231.118
  0
LINE
  8
0
 10
201.776
 20
231.118
 11
201.613
 21
230.931
  0
LINE
  8
0
 10
201.613
 20
230.931
 11
201.43
 21
230.763
  0
LINE
  8
0
 10
201.43
 20
230.763
 11
201.231
 21
230.616
  0
LINE
  8
0
 10
201.231
 20
230.616
 11
201.016
 21
230.492
  0
LINE
  8
0
 10
201.016
 20
230.492
 11
200.789
 21
230.393
  0
LINE
  8
0
 10
200.789
 20
230.393
 11
200.552
 21
230.319
  0
LINE
  8
0
 10
200.552
 20
230.319
 11
200.309
 21
230.271
  0
LINE
  8
0
 10
200.309
 20
230.271
 11
200.062
 21
230.251
  0
LINE
  8
0
 10
200.062
 20
230.251
 11
199.814
 21
230.258
  0
LINE
  8
0
 10
-240.309
 20
190.271
 11
-240.552
 21
190.319
  0
LINE
  8
0
 10
-240.552
 20
190.319
 11
-240.789
 21
190.393
  0
LINE
  8
0
 10
-240.789
 20
190.393
 11
-241.016
 21
190.492
  0
LINE
  8
0
 10
-241.016
 20
190.492
 11
-241.231
 21
190.616
  0
LINE
  8
0
 10
-241.231
 20
190.616
 11
-241.43
 21
190.763
  0
LINE
  8
0
 10
-241.43
 20
190.763
 11
-241.613
 21
190.931
  0
LINE
  8
0
 10
-241.613
 20
190.931
 11
-241.776
 21
191.118
  0
LINE
  8
0
 10
-241.776
 20
191.118
 11
-241.917
 21
191.322
  0
LINE
  8
0
 10
-241.917
 20
191.322
 11
-242.035
 21
191.54
  0
LINE
  8
0
 10
-242.035
 20
191.54
 11
-242.128
 21
191.769
  0
LINE
  8
0
 10
-242.128
 20
191.769
 11
-242.196
 21
192.008
  0
LINE
  8
0
 10
-242.196
 20
192.008
 11
-242.236
 21
192.252
  0
LINE
  8
0
 10
-242.236
 20
192.252
 11
-242.25
 21
192.5
  0
LINE
  8
0
 10
-242.25
 20
192.5
 11
-242.236
 21
192.748
  0
LINE
  8
0
 10
-242.236
 20
192.748
 11
-242.196
 21
192.992
  0
LINE
  8
0
 10
-242.196
 20
192.992
 11
-242.128
 21
193.231
  0
LINE
  8
0
 10
-242.128
 20
193.231
 11
-242.035
 21
193.46
  0
LINE
  8
0
 10
-242.035
 20
193.46
 11
-241.917
 21
193.678
  0
LINE
  8
0
 10
-241.917
 20
193.678
 11
-241.776
 21
193.882
  0
LINE
  8
0
 10
-241.776
 20
193.882
 11
-241.613
 21
194.069
  0
LINE
  8
0
 10
-241.613
 20
194.069
 11
-241.43
 21
194.237
  0
LINE
  8
0
 10
-241.43
 20
194.237
 11
-241.231
 21
194.384
  0
LINE
  8
0
 10
-241.231
 20
194.384
 11
-241.016
 21
194.508
  0
LINE
  8
0
 10
-241.016
 20
194.508
 11
-240.789
 21
194.607
  0
LINE
  8
0
 10
-240.789
 20
194.607
 11
-240.552
 21
194.681
  0
LINE
  8
0
 10
-240.552
 20
194.681
 11
-240.309
 21
194.729
  0
LINE
  8
0
 10
-240.309
 20
194.729
 11
-240.062
 21
194.749
  0
LINE
  8
0
 10
-240.062
 20
194.749
 11
-239.814
 21
194.742
  0
LINE
  8
0
 10
-239.814
 20
194.742
 11
-239.569
 21
194.708
  0
LINE
  8
0
 10
-239.569
 20
194.708
 11
-239.328
 21
194.647
  0
LINE
  8
0
 10
-239.328
 20
194.647
 11
-239.096
 21
194.56
  0
LINE
  8
0
 10
-239.096
 20
194.56
 11
-238.875
 21
194.449
  0
LINE
  8
0
 10
-238.875
 20
194.449
 11
-238.667
 21
194.313
  0
LINE
  8
0
 10
-238.667
 20
194.313
 11
-238.476
 21
194.155
  0
LINE
  8
0
 10
-238.476
 20
194.155
 11
-238.303
 21
193.978
  0
LINE
  8
0
 10
-238.303
 20
193.978
 11
-238.151
 21
193.782
  0
LINE
  8
0
 10
-238.151
 20
193.782
 11
-238.021
 21
193.571
  0
LINE
  8
0
 10
-238.021
 20
193.571
 11
-237.915
 21
193.347
  0
LINE
  8
0
 10
-237.915
 20
193.347
 11
-237.835
 21
193.112
  0
LINE
  8
0
 10
-237.835
 20
193.112
 11
-237.781
 21
192.87
  0
LINE
  8
0
 10
-237.781
 20
192.87
 11
-237.753
 21
192.624
  0
LINE
  8
0
 10
-237.753
 20
192.624
 11
-237.753
 21
192.376
  0
LINE
  8
0
 10
-237.753
 20
192.376
 11
-237.781
 21
192.13
  0
LINE
  8
0
 10
-237.781
 20
192.13
 11
-237.835
 21
191.888
  0
LINE
  8
0
 10
-237.835
 20
191.888
 11
-237.915
 21
191.653
  0
LINE
  8
0
 10
-237.915
 20
191.653
 11
-238.021
 21
191.429
  0
LINE
  8
0
 10
-238.021
 20
191.429
 11
-238.151
 21
191.218
  0
LINE
  8
0
 10
-238.151
 20
191.218
 11
-238.303
 21
191.022
  0
LINE
  8
0
 10
-238.303
 20
191.022
 11
-238.476
 21
190.845
  0
LINE
  8
0
 10
-238.476
 20
190.845
 11
-238.667
 21
190.687
  0
LINE
  8
0
 10
-238.667
 20
190.687
 11
-238.875
 21
190.551
  0
LINE
  8
0
 10
-238.875
 20
190.551
 11
-239.096
 21
190.44
  0
LINE
  8
0
 10
-239.096
 20
190.44
 11
-239.328
 21
190.353
  0
LINE
  8
0
 10
-239.328
 20
190.353
 11
-239.569
 21
190.292
  0
LINE
  8
0
 10
-239.569
 20
190.292
 11
-239.814
 21
190.258
  0
LINE
  8
0
 10
-239.814
 20
190.258
 11
-240.062
 21
190.251
  0
LINE
  8
0
 10
-240.062
 20
190.251
 11
-240.309
 21
190.271
  0
LINE
  8
0
 10
179.814
 20
190.258
 11
179.569
 21
190.292
  0
LINE
  8
0
 10
179.569
 20
190.292
 11
179.328
 21
190.353
  0
LINE
  8
0
 10
179.328
 20
190.353
 11
179.096
 21
190.44
  0
LINE
  8
0
 10
179.096
 20
190.44
 11
178.875
 21
190.551
  0
LINE
  8
0
 10
178.875
 20
190.551
 11
178.667
 21
190.687
  0
LINE
  8
0
 10
178.667
 20
190.687
 11
178.476
 21
190.845
  0
LINE
  8
0
 10
178.476
 20
190.845
 11
178.303
 21
191.022
  0
LINE
  8
0
 10
178.303
 20
191.022
 11
178.151
 21
191.218
  0
LINE
  8
0
 10
178.151
 20
191.218
 11
178.021
 21
191.429
  0
LINE
  8
0
 10
178.021
 20
191.429
 11
177.915
 21
191.653
  0
LINE
  8
0
 10
177.915
 20
191.653
 11
177.835
 21
191.888
  0
LINE
  8
0
 10
177.835
 20
191.888
 11
177.781
 21
192.13
  0
LINE
  8
0
 10
177.781
 20
192.13
 11
177.753
 21
192.376
  0
LINE
  8
0
 10
177.753
 20
192.376
 11
177.753
 21
192.624
  0
LINE
  8
0
 10
177.753
 20
192.624
 11
177.781
 21
192.87
  0
LINE
  8
0
 10
177.781
 20
192.87
 11
177.835
 21
193.112
  0
LINE
  8
0
 10
177.835
 20
193.112
 11
177.915
 21
193.347
  0
LINE
  8
0
 10
177.915
 20
193.347
 11
178.021
 21
193.571
  0
LINE
  8
0
 10
178.021
 20
193.571
 11
178.151
 21
193.782
  0
LINE
  8
0
 10
178.151
 20
193.782
 11
178.303
 21
193.978
  0
LINE
  8
0
 10
178.303
 20
193.978
 11
178.476
 21
194.155
  0
LINE
  8
0
 10
178.476
 20
194.155
 11
178.667
 21
194.313
  0
LINE
  8
0
 10
178.667
 20
194.313
 11
178.875
 21
194.449
  0
LINE
  8
0
 10
178.875
 20
194.449
 11
179.096
 21
194.56
  0
LINE
  8
0
 10
179.096
 20
194.56
 11
179.328
 21
194.647
  0
LINE
  8
0
 10
179.328
 20
194.647
 11
179.569
 21
194.708
  0
LINE
  8
0
 10
179.569
 20
194.708
 11
179.814
 21
194.742
  0
LINE
  8
0
 10
179.814
 20
194.742
 11
180.062
 21
194.749
  0
LINE
  8
0
 10
180.062
 20
194.749
 11
180.309
 21
194.729
  0
LINE
  8
0
 10
180.309
 20
194.729
 11
180.552
 21
194.681
  0
LINE
  8
0
 10
180.552
 20
194.681
 11
180.789
 21
194.607
  0
LINE
  8
0
 10
180.789
 20
194.607
 11
181.016
 21
194.508
  0
LINE
  8
0
 10
181.016
 20
194.508
 11
181.231
 21
194.384
  0
LINE
  8
0
 10
181.231
 20
194.384
 11
181.43
 21
194.237
  0
LINE
  8
0
 10
181.43
 20
194.237
 11
181.613
 21
194.069
  0
LINE
  8
0
 10
181.613
 20
194.069
 11
181.776
 21
193.882
  0
LINE
  8
0
 10
181.776
 20
193.882
 11
181.917
 21
193.678
  0
LINE
  8
0
 10
181.917
 20
193.678
 11
182.035
 21
193.46
  0
LINE
  8
0
 10
182.035
 20
193.46
 11
182.128
 21
193.231
  0
LINE
  8
0
 10
182.128
 20
193.231
 11
182.196
 21
192.992
  0
LINE
  8
0
 10
182.196
 20
192.992
 11
182.236
 21
192.748
  0
LINE
  8
0
 10
182.236
 20
192.748
 11
182.25
 21
192.5
  0
LINE
  8
0
 10
182.25
 20
192.5
 11
182.236
 21
192.252
  0
LINE
  8
0
 10
182.236
 20
192.252
 11
182.196
 21
192.008
  0
LINE
  8
0
 10
182.196
 20
192.008
 11
182.128
 21
191.769
  0
LINE
  8
0
 10
182.128
 20
191.769
 11
182.035
 21
191.54
  0
LINE
  8
0
 10
182.035
 20
191.54
 11
181.917
 21
191.322
  0
LINE
  8
0
 10
181.917
 20
191.322
 11
181.776
 21
191.118
  0
LINE
  8
0
 10
181.776
 20
191.118
 11
181.613
 21
190.931
  0
LINE
  8
0
 10
181.613
 20
190.931
 11
181.43
 21
190.763
  0
LINE
  8
0
 10
181.43
 20
190.763
 11
181.231
 21
190.616
  0
LINE
  8
0
 10
181.231
 20
190.616
 11
181.016
 21
190.492
  0
LINE
  8
0
 10
181.016
 20
190.492
 11
180.789
 21
190.393
  0
LINE
  8
0
 10
180.789
 20
190.393
 11
180.552
 21
190.319
  0
LINE
  8
0
 10
180.552
 20
190.319
 11
180.309
 21
190.271
  0
LINE
  8
0
 10
180.309
 20
190.271
 11
180.062
 21
190.251
  0
LINE
  8
0
 10
180.062
 20
190.251
 11
179.814
 21
190.258
  0
LINE
  8
0
 10
239.814
 20
190.258
 11
239.569
 21
190.292
  0
LINE
  8
0
 10
239.569
 20
190.292
 11
239.328
 21
190.353
  0
LINE
  8
0
 10
239.328
 20
190.353
 11
239.096
 21
190.44
  0
LINE
  8
0
 10
239.096
 20
190.44
 11
238.875
 21
190.551
  0
LINE
  8
0
 10
238.875
 20
190.551
 11
238.667
 21
190.687
  0
LINE
  8
0
 10
238.667
 20
190.687
 11
238.476
 21
190.845
  0
LINE
  8
0
 10
238.476
 20
190.845
 11
238.303
 21
191.022
  0
LINE
  8
0
 10
238.303
 20
191.022
 11
238.151
 21
191.218
  0
LINE
  8
0
 10
238.151
 20
191.218
 11
238.021
 21
191.429
  0
LINE
  8
0
 10
238.021
 20
191.429
 11
237.915
 21
191.653
  0
LINE
  8
0
 10
237.915
 20
191.653
 11
237.835
 21
191.888
  0
LINE
  8
0
 10
237.835
 20
191.888
 11
237.781
 21
192.13
  0
LINE
  8
0
 10
237.781
 20
192.13
 11
237.753
 21
192.376
  0
LINE
  8
0
 10
237.753
 20
192.376
 11
237.753
 21
192.624
  0
LINE
  8
0
 10
237.753
 20
192.624
 11
237.781
 21
192.87
  0
LINE
  8
0
 10
237.781
 20
192.87
 11
237.835
 21
193.112
  0
LINE
  8
0
 10
237.835
 20
193.112
 11
237.915
 21
193.347
  0
LINE
  8
0
 10
237.915
 20
193.347
 11
238.021
 21
193.571
  0
LINE
  8
0
 10
238.021
 20
193.571
 11
238.151
 21
193.782
  0
LINE
  8
0
 10
238.151
 20
193.782
 11
238.303
 21
193.978
  0
LINE
  8
0
 10
238.303
 20
193.978
 11
238.476
 21
194.155
  0
LINE
  8
0
 10
238.476
 20
194.155
 11
238.667
 21
194.313
  0
LINE
  8
0
 10
238.667
 20
194.313
 11
238.875
 21
194.449
  0
LINE
  8
0
 10
238.875
 20
194.449
 11
239.096
 21
194.56
  0
LINE
  8
0
 10
239.096
 20
194.56
 11
239.328
 21
194.647
  0
LINE
  8
0
 10
239.328
 20
194.647
 11
239.569
 21
194.708
  0
LINE
  8
0
 10
239.569
 20
194.708
 11
239.814
 21
194.742
  0
LINE
  8
0
 10
239.814
 20
194.742
 11
240.062
 21
194.749
  0
LINE
  8
0
 10
240.062
 20
194.749
 11
240.309
 21
194.729
  0
LINE
  8
0
 10
240.309
 20
194.729
 11
240.552
 21
194.681
  0
LINE
  8
0
 10
240.552
 20
194.681
 11
240.789
 21
194.607
  0
LINE
  8
0
 10
240.789
 20
194.607
 11
241.016
 21
194.508
  0
LINE
  8
0
 10
241.016
 20
194.508
 11
241.231
 21
194.384
  0
LINE
  8
0
 10
241.231
 20
194.384
 11
241.43
 21
194.237
  0
LINE
  8
0
 10
241.43
 20
194.237
 11
241.613
 21
194.069
  0
LINE
  8
0
 10
241.613
 20
194.069
 11
241.776
 21
193.882
  0
LINE
  8
0
 10
241.776
 20
193.882
 11
241.917
 21
193.678
  0
LINE
  8
0
 10
241.917
 20
193.678
 11
242.035
 21
193.46
  0
LINE
  8
0
 10
242.035
 20
193.46
 11
242.128
 21
193.231
  0
LINE
  8
0
 10
242.128
 20
193.231
 11
242.196
 21
192.992
  0
LINE
  8
0
 10
242.196
 20
192.992
 11
242.236
 21
192.748
  0
LINE
  8
0
 10
242.236
 20
192.748
 11
242.25
 21
192.5
  0
LINE
  8
0
 10
242.25
 20
192.5
 11
242.236
 21
192.252
  0
LINE
  8
0
 10
242.236
 20
192.252
 11
242.196
 21
192.008
  0
LINE
  8
0
 10
242.196
 20
192.008
 11
242.128
 21
191.769
  0
LINE
  8
0
 10
242.128
 20
191.769
 11
242.035
 21
191.54
  0
LINE
  8
0
 10
242.035
 20
191.54
 11
241.917
 21
191.322
  0
LINE
  8
0
 10
241.917
 20
191.322
 11
241.776
 21
191.118
  0
LINE
  8
0
 10
241.776
 20
191.118
 11
241.613
 21
190.931
  0
LINE
  8
0
 10
241.613
 20
190.931
 11
241.43
 21
190.763
  0
LINE
  8
0
 10
241.43
 20
190.763
 11
241.231
 21
190.616
  0
LINE
  8
0
 10
241.231
 20
190.616
 11
241.016
 21
190.492
  0
LINE
  8
0
 10
241.016
 20
190.492
 11
240.789
 21
190.393
  0
LINE
  8
0
 10
240.789
 20
190.393
 11
240.552
 21
190.319
  0
LINE
  8
0
 10
240.552
 20
190.319
 11
240.309
 21
190.271
  0
LINE
  8
0
 10
240.309
 20
190.271
 11
240.062
 21
190.251
  0
LINE
  8
0
 10
240.062
 20
190.251
 11
239.814
 21
190.258
  0
LINE
  8
0
 10
-180.309
 20
190.271
 11
-180.552
 21
190.319
  0
LINE
  8
0
 10
-180.552
 20
190.319
 11
-180.789
 21
190.393
  0
LINE
  8
0
 10
-180.789
 20
190.393
 11
-181.016
 21
190.492
  0
LINE
  8
0
 10
-181.016
 20
190.492
 11
-181.231
 21
190.616
  0
LINE
  8
0
 10
-181.231
 20
190.616
 11
-181.43
 21
190.763
  0
LINE
  8
0
 10
-181.43
 20
190.763
 11
-181.613
 21
190.931
  0
LINE
  8
0
 10
-181.613
 20
190.931
 11
-181.776
 21
191.118
  0
LINE
  8
0
 10
-181.776
 20
191.118
 11
-181.917
 21
191.322
  0
LINE
  8
0
 10
-181.917
 20
191.322
 11
-182.035
 21
191.54
  0
LINE
  8
0
 10
-182.035
 20
191.54
 11
-182.128
 21
191.769
  0
LINE
  8
0
 10
-182.128
 20
191.769
 11
-182.196
 21
192.008
  0
LINE
  8
0
 10
-182.196
 20
192.008
 11
-182.236
 21
192.252
  0
LINE
  8
0
 10
-182.236
 20
192.252
 11
-182.25
 21
192.5
  0
LINE
  8
0
 10
-182.25
 20
192.5
 11
-182.236
 21
192.748
  0
LINE
  8
0
 10
-182.236
 20
192.748
 11
-182.196
 21
192.992
  0
LINE
  8
0
 10
-182.196
 20
192.992
 11
-182.128
 21
193.231
  0
LINE
  8
0
 10
-182.128
 20
193.231
 11
-182.035
 21
193.46
  0
LINE
  8
0
 10
-182.035
 20
193.46
 11
-181.917
 21
193.678
  0
LINE
  8
0
 10
-181.917
 20
193.678
 11
-181.776
 21
193.882
  0
LINE
  8
0
 10
-181.776
 20
193.882
 11
-181.613
 21
194.069
  0
LINE
  8
0
 10
-181.613
 20
194.069
 11
-181.43
 21
194.237
  0
LINE
  8
0
 10
-181.43
 20
194.237
 11
-181.231
 21
194.384
  0
LINE
  8
0
 10
-181.231
 20
194.384
 11
-181.016
 21
194.508
  0
LINE
  8
0
 10
-181.016
 20
194.508
 11
-180.789
 21
194.607
  0
LINE
  8
0
 10
-180.789
 20
194.607
 11
-180.552
 21
194.681
  0
LINE
  8
0
 10
-180.552
 20
194.681
 11
-180.309
 21
194.729
  0
LINE
  8
0
 10
-180.309
 20
194.729
 11
-180.062
 21
194.749
  0
LINE
  8
0
 10
-180.062
 20
194.749
 11
-179.814
 21
194.742
  0
LINE
  8
0
 10
-179.814
 20
194.742
 11
-179.569
 21
194.708
  0
LINE
  8
0
 10
-179.569
 20
194.708
 11
-179.328
 21
194.647
  0
LINE
  8
0
 10
-179.328
 20
194.647
 11
-179.096
 21
194.56
  0
LINE
  8
0
 10
-179.096
 20
194.56
 11
-178.875
 21
194.449
  0
LINE
  8
0
 10
-178.875
 20
194.449
 11
-178.667
 21
194.313
  0
LINE
  8
0
 10
-178.667
 20
194.313
 11
-178.476
 21
194.155
  0
LINE
  8
0
 10
-178.476
 20
194.155
 11
-178.303
 21
193.978
  0
LINE
  8
0
 10
-178.303
 20
193.978
 11
-178.151
 21
193.782
  0
LINE
  8
0
 10
-178.151
 20
193.782
 11
-178.021
 21
193.571
  0
LINE
  8
0
 10
-178.021
 20
193.571
 11
-177.915
 21
193.347
  0
LINE
  8
0
 10
-177.915
 20
193.347
 11
-177.835
 21
193.112
  0
LINE
  8
0
 10
-177.835
 20
193.112
 11
-177.781
 21
192.87
  0
LINE
  8
0
 10
-177.781
 20
192.87
 11
-177.753
 21
192.624
  0
LINE
  8
0
 10
-177.753
 20
192.624
 11
-177.753
 21
192.376
  0
LINE
  8
0
 10
-177.753
 20
192.376
 11
-177.781
 21
192.13
  0
LINE
  8
0
 10
-177.781
 20
192.13
 11
-177.835
 21
191.888
  0
LINE
  8
0
 10
-177.835
 20
191.888
 11
-177.915
 21
191.653
  0
LINE
  8
0
 10
-177.915
 20
191.653
 11
-178.021
 21
191.429
  0
LINE
  8
0
 10
-178.021
 20
191.429
 11
-178.151
 21
191.218
  0
LINE
  8
0
 10
-178.151
 20
191.218
 11
-178.303
 21
191.022
  0
LINE
  8
0
 10
-178.303
 20
191.022
 11
-178.476
 21
190.845
  0
LINE
  8
0
 10
-178.476
 20
190.845
 11
-178.667
 21
190.687
  0
LINE
  8
0
 10
-178.667
 20
190.687
 11
-178.875
 21
190.551
  0
LINE
  8
0
 10
-178.875
 20
190.551
 11
-179.096
 21
190.44
  0
LINE
  8
0
 10
-179.096
 20
190.44
 11
-179.328
 21
190.353
  0
LINE
  8
0
 10
-179.328
 20
190.353
 11
-179.569
 21
190.292
  0
LINE
  8
0
 10
-179.569
 20
190.292
 11
-179.814
 21
190.258
  0
LINE
  8
0
 10
-179.814
 20
190.258
 11
-180.062
 21
190.251
  0
LINE
  8
0
 10
-180.062
 20
190.251
 11
-180.309
 21
190.271
  0
LINE
  8
0
 10
-225.623
 20
128.855
 11
-225.867
 21
128.891
  0
LINE
  8
0
 10
-225.867
 20
128.891
 11
-226.103
 21
128.964
  0
LINE
  8
0
 10
-226.103
 20
128.964
 11
-226.325
 21
129.071
  0
LINE
  8
0
 10
-226.325
 20
129.071
 11
-226.529
 21
129.21
  0
LINE
  8
0
 10
-226.529
 20
129.21
 11
-226.71
 21
129.378
  0
LINE
  8
0
 10
-226.71
 20
129.378
 11
-226.863
 21
129.571
  0
LINE
  8
0
 10
-226.863
 20
129.571
 11
-226.987
 21
129.784
  0
LINE
  8
0
 10
-226.987
 20
129.784
 11
-227.077
 21
130.014
  0
LINE
  8
0
 10
-227.077
 20
130.014
 11
-227.132
 21
130.254
  0
LINE
  8
0
 10
-227.132
 20
130.254
 11
-227.15
 21
130.5
  0
LINE
  8
0
 10
-227.15
 20
130.5
 11
-227.132
 21
130.746
  0
LINE
  8
0
 10
-227.132
 20
130.746
 11
-227.077
 21
130.986
  0
LINE
  8
0
 10
-227.077
 20
130.986
 11
-226.987
 21
131.216
  0
LINE
  8
0
 10
-226.987
 20
131.216
 11
-226.863
 21
131.429
  0
LINE
  8
0
 10
-226.863
 20
131.429
 11
-226.71
 21
131.622
  0
LINE
  8
0
 10
-226.71
 20
131.622
 11
-226.529
 21
131.79
  0
LINE
  8
0
 10
-226.529
 20
131.79
 11
-226.325
 21
131.929
  0
LINE
  8
0
 10
-226.325
 20
131.929
 11
-226.103
 21
132.036
  0
LINE
  8
0
 10
-226.103
 20
132.036
 11
-225.867
 21
132.109
  0
LINE
  8
0
 10
-225.867
 20
132.109
 11
-225.623
 21
132.145
  0
LINE
  8
0
 10
-225.623
 20
132.145
 11
-225.377
 21
132.145
  0
LINE
  8
0
 10
-225.377
 20
132.145
 11
-225.133
 21
132.109
  0
LINE
  8
0
 10
-225.133
 20
132.109
 11
-224.897
 21
132.036
  0
LINE
  8
0
 10
-224.897
 20
132.036
 11
-224.675
 21
131.929
  0
LINE
  8
0
 10
-224.675
 20
131.929
 11
-224.471
 21
131.79
  0
LINE
  8
0
 10
-224.471
 20
131.79
 11
-224.29
 21
131.622
  0
LINE
  8
0
 10
-224.29
 20
131.622
 11
-224.137
 21
131.429
  0
LINE
  8
0
 10
-224.137
 20
131.429
 11
-224.013
 21
131.216
  0
LINE
  8
0
 10
-224.013
 20
131.216
 11
-223.923
 21
130.986
  0
LINE
  8
0
 10
-223.923
 20
130.986
 11
-223.868
 21
130.746
  0
LINE
  8
0
 10
-223.868
 20
130.746
 11
-223.85
 21
130.5
  0
LINE
  8
0
 10
-223.85
 20
130.5
 11
-223.868
 21
130.254
  0
LINE
  8
0
 10
-223.868
 20
130.254
 11
-223.923
 21
130.014
  0
LINE
  8
0
 10
-223.923
 20
130.014
 11
-224.013
 21
129.784
  0
LINE
  8
0
 10
-224.013
 20
129.784
 11
-224.137
 21
129.571
  0
LINE
  8
0
 10
-224.137
 20
129.571
 11
-224.29
 21
129.378
  0
LINE
  8
0
 10
-224.29
 20
129.378
 11
-224.471
 21
129.21
  0
LINE
  8
0
 10
-224.471
 20
129.21
 11
-224.675
 21
129.071
  0
LINE
  8
0
 10
-224.675
 20
129.071
 11
-224.897
 21
128.964
  0
LINE
  8
0
 10
-224.897
 20
128.964
 11
-225.133
 21
128.891
  0
LINE
  8
0
 10
-225.133
 20
128.891
 11
-225.377
 21
128.855
  0
LINE
  8
0
 10
-225.377
 20
128.855
 11
-225.623
 21
128.855
  0
LINE
  8
0
 10
-194.623
 20
128.855
 11
-194.867
 21
128.891
  0
LINE
  8
0
 10
-194.867
 20
128.891
 11
-195.103
 21
128.964
  0
LINE
  8
0
 10
-195.103
 20
128.964
 11
-195.325
 21
129.071
  0
LINE
  8
0
 10
-195.325
 20
129.071
 11
-195.529
 21
129.21
  0
LINE
  8
0
 10
-195.529
 20
129.21
 11
-195.71
 21
129.378
  0
LINE
  8
0
 10
-195.71
 20
129.378
 11
-195.863
 21
129.571
  0
LINE
  8
0
 10
-195.863
 20
129.571
 11
-195.987
 21
129.784
  0
LINE
  8
0
 10
-195.987
 20
129.784
 11
-196.077
 21
130.014
  0
LINE
  8
0
 10
-196.077
 20
130.014
 11
-196.132
 21
130.254
  0
LINE
  8
0
 10
-196.132
 20
130.254
 11
-196.15
 21
130.5
  0
LINE
  8
0
 10
-196.15
 20
130.5
 11
-196.132
 21
130.746
  0
LINE
  8
0
 10
-196.132
 20
130.746
 11
-196.077
 21
130.986
  0
LINE
  8
0
 10
-196.077
 20
130.986
 11
-195.987
 21
131.216
  0
LINE
  8
0
 10
-195.987
 20
131.216
 11
-195.863
 21
131.429
  0
LINE
  8
0
 10
-195.863
 20
131.429
 11
-195.71
 21
131.622
  0
LINE
  8
0
 10
-195.71
 20
131.622
 11
-195.529
 21
131.79
  0
LINE
  8
0
 10
-195.529
 20
131.79
 11
-195.325
 21
131.929
  0
LINE
  8
0
 10
-195.325
 20
131.929
 11
-195.103
 21
132.036
  0
LINE
  8
0
 10
-195.103
 20
132.036
 11
-194.867
 21
132.109
  0
LINE
  8
0
 10
-194.867
 20
132.109
 11
-194.623
 21
132.145
  0
LINE
  8
0
 10
-194.623
 20
132.145
 11
-194.377
 21
132.145
  0
LINE
  8
0
 10
-194.377
 20
132.145
 11
-194.133
 21
132.109
  0
LINE
  8
0
 10
-194.133
 20
132.109
 11
-193.897
 21
132.036
  0
LINE
  8
0
 10
-193.897
 20
132.036
 11
-193.675
 21
131.929
  0
LINE
  8
0
 10
-193.675
 20
131.929
 11
-193.471
 21
131.79
  0
LINE
  8
0
 10
-193.471
 20
131.79
 11
-193.29
 21
131.622
  0
LINE
  8
0
 10
-193.29
 20
131.622
 11
-193.137
 21
131.429
  0
LINE
  8
0
 10
-193.137
 20
131.429
 11
-193.013
 21
131.216
  0
LINE
  8
0
 10
-193.013
 20
131.216
 11
-192.923
 21
130.986
  0
LINE
  8
0
 10
-192.923
 20
130.986
 11
-192.868
 21
130.746
  0
LINE
  8
0
 10
-192.868
 20
130.746
 11
-192.85
 21
130.5
  0
LINE
  8
0
 10
-192.85
 20
130.5
 11
-192.868
 21
130.254
  0
LINE
  8
0
 10
-192.868
 20
130.254
 11
-192.923
 21
130.014
  0
LINE
  8
0
 10
-192.923
 20
130.014
 11
-193.013
 21
129.784
  0
LINE
  8
0
 10
-193.013
 20
129.784
 11
-193.137
 21
129.571
  0
LINE
  8
0
 10
-193.137
 20
129.571
 11
-193.29
 21
129.378
  0
LINE
  8
0
 10
-193.29
 20
129.378
 11
-193.471
 21
129.21
  0
LINE
  8
0
 10
-193.471
 20
129.21
 11
-193.675
 21
129.071
  0
LINE
  8
0
 10
-193.675
 20
129.071
 11
-193.897
 21
128.964
  0
LINE
  8
0
 10
-193.897
 20
128.964
 11
-194.133
 21
128.891
  0
LINE
  8
0
 10
-194.133
 20
128.891
 11
-194.377
 21
128.855
  0
LINE
  8
0
 10
-194.377
 20
128.855
 11
-194.623
 21
128.855
  0
LINE
  8
0
 10
-211.202
 20
103.563
 11
-212.391
 21
103.751
  0
LINE
  8
0
 10
-212.391
 20
103.751
 11
-213.554
 21
104.063
  0
LINE
  8
0
 10
-213.554
 20
104.063
 11
-214.677
 21
104.494
  0
LINE
  8
0
 10
-214.677
 20
104.494
 11
-215.75
 21
105.041
  0
LINE
  8
0
 10
-215.75
 20
105.041
 11
-216.76
 21
105.696
  0
LINE
  8
0
 10
-216.76
 20
105.696
 11
-217.695
 21
106.454
  0
LINE
  8
0
 10
-217.695
 20
106.454
 11
-218.546
 21
107.305
  0
LINE
  8
0
 10
-218.546
 20
107.305
 11
-219.304
 21
108.24
  0
LINE
  8
0
 10
-219.304
 20
108.24
 11
-219.959
 21
109.25
  0
LINE
  8
0
 10
-219.959
 20
109.25
 11
-220.506
 21
110.323
  0
LINE
  8
0
 10
-220.506
 20
110.323
 11
-220.937
 21
111.446
  0
LINE
  8
0
 10
-220.937
 20
111.446
 11
-221.249
 21
112.609
  0
LINE
  8
0
 10
-221.249
 20
112.609
 11
-221.437
 21
113.798
  0
LINE
  8
0
 10
-221.437
 20
113.798
 11
-221.5
 21
115
  0
LINE
  8
0
 10
-221.5
 20
115
 11
-221.437
 21
116.202
  0
LINE
  8
0
 10
-221.437
 20
116.202
 11
-221.249
 21
117.391
  0
LINE
  8
0
 10
-221.249
 20
117.391
 11
-220.937
 21
118.554
  0
LINE
  8
0
 10
-220.937
 20
118.554
 11
-220.506
 21
119.677
  0
LINE
  8
0
 10
-220.506
 20
119.677
 11
-219.959
 21
120.75
  0
LINE
  8
0
 10
-219.959
 20
120.75
 11
-219.304
 21
121.76
  0
LINE
  8
0
 10
-219.304
 20
121.76
 11
-218.546
 21
122.695
  0
LINE
  8
0
 10
-218.546
 20
122.695
 11
-217.695
 21
123.546
  0
LINE
  8
0
 10
-217.695
 20
123.546
 11
-216.76
 21
124.304
  0
LINE
  8
0
 10
-216.76
 20
124.304
 11
-215.75
 21
124.959
  0
LINE
  8
0
 10
-215.75
 20
124.959
 11
-214.677
 21
125.506
  0
LINE
  8
0
 10
-214.677
 20
125.506
 11
-213.554
 21
125.937
  0
LINE
  8
0
 10
-213.554
 20
125.937
 11
-212.391
 21
126.249
  0
LINE
  8
0
 10
-212.391
 20
126.249
 11
-211.202
 21
126.437
  0
LINE
  8
0
 10
-211.202
 20
126.437
 11
-210
 21
126.5
  0
LINE
  8
0
 10
-210
 20
126.5
 11
-208.798
 21
126.437
  0
LINE
  8
0
 10
-208.798
 20
126.437
 11
-207.609
 21
126.249
  0
LINE
  8
0
 10
-207.609
 20
126.249
 11
-206.446
 21
125.937
  0
LINE
  8
0
 10
-206.446
 20
125.937
 11
-205.323
 21
125.506
  0
LINE
  8
0
 10
-205.323
 20
125.506
 11
-204.25
 21
124.959
  0
LINE
  8
0
 10
-204.25
 20
124.959
 11
-203.24
 21
124.304
  0
LINE
  8
0
 10
-203.24
 20
124.304
 11
-202.305
 21
123.546
  0
LINE
  8
0
 10
-202.305
 20
123.546
 11
-201.454
 21
122.695
  0
LINE
  8
0
 10
-201.454
 20
122.695
 11
-200.696
 21
121.76
  0
LINE
  8
0
 10
-200.696
 20
121.76
 11
-200.041
 21
120.75
  0
LINE
  8
0
 10
-200.041
 20
120.75
 11
-199.494
 21
119.677
  0
LINE
  8
0
 10
-199.494
 20
119.677
 11
-199.063
 21
118.554
  0
LINE
  8
0
 10
-199.063
 20
118.554
 11
-198.751
 21
117.391
  0
LINE
  8
0
 10
-198.751
 20
117.391
 11
-198.563
 21
116.202
  0
LINE
  8
0
 10
-198.563
 20
116.202
 11
-198.5
 21
115
  0
LINE
  8
0
 10
-198.5
 20
115
 11
-198.563
 21
113.798
  0
LINE
  8
0
 10
-198.563
 20
113.798
 11
-198.751
 21
112.609
  0
LINE
  8
0
 10
-198.751
 20
112.609
 11
-199.063
 21
111.446
  0
LINE
  8
0
 10
-199.063
 20
111.446
 11
-199.494
 21
110.323
  0
LINE
  8
0
 10
-199.494
 20
110.323
 11
-200.041
 21
109.25
  0
LINE
  8
0
 10
-200.041
 20
109.25
 11
-200.696
 21
108.24
  0
LINE
  8
0
 10
-200.696
 20
108.24
 11
-201.454
 21
107.305
  0
LINE
  8
0
 10
-201.454
 20
107.305
 11
-202.305
 21
106.454
  0
LINE
  8
0
 10
-202.305
 20
106.454
 11
-203.24
 21
105.696
  0
LINE
  8
0
 10
-203.24
 20
105.696
 11
-204.25
 21
105.041
  0
LINE
  8
0
 10
-204.25
 20
105.041
 11
-205.323
 21
104.494
  0
LINE
  8
0
 10
-205.323
 20
104.494
 11
-206.446
 21
104.063
  0
LINE
  8
0
 10
-206.446
 20
104.063
 11
-207.609
 21
103.751
  0
LINE
  8
0
 10
-207.609
 20
103.751
 11
-208.798
 21
103.563
  0
LINE
  8
0
 10
-208.798
 20
103.563
 11
-210
 21
103.5
  0
LINE
  8
0
 10
-210
 20
103.5
 11
-211.202
 21
103.563
  0
LINE
  8
0
 10
-194.623
 20
97.8546
 11
-194.867
 21
97.8914
  0
LINE
  8
0
 10
-194.867
 20
97.8914
 11
-195.103
 21
97.9641
  0
LINE
  8
0
 10
-195.103
 20
97.9641
 11
-195.325
 21
98.0711
  0
LINE
  8
0
 10
-195.325
 20
98.0711
 11
-195.529
 21
98.21
  0
LINE
  8
0
 10
-195.529
 20
98.21
 11
-195.71
 21
98.3777
  0
LINE
  8
0
 10
-195.71
 20
98.3777
 11
-195.863
 21
98.5705
  0
LINE
  8
0
 10
-195.863
 20
98.5705
 11
-195.987
 21
98.7841
  0
LINE
  8
0
 10
-195.987
 20
98.7841
 11
-196.077
 21
99.0137
  0
LINE
  8
0
 10
-196.077
 20
99.0137
 11
-196.132
 21
99.2541
  0
LINE
  8
0
 10
-196.132
 20
99.2541
 11
-196.15
 21
99.5
  0
LINE
  8
0
 10
-196.15
 20
99.5
 11
-196.132
 21
99.7459
  0
LINE
  8
0
 10
-196.132
 20
99.7459
 11
-196.077
 21
99.9863
  0
LINE
  8
0
 10
-196.077
 20
99.9863
 11
-195.987
 21
100.216
  0
LINE
  8
0
 10
-195.987
 20
100.216
 11
-195.863
 21
100.429
  0
LINE
  8
0
 10
-195.863
 20
100.429
 11
-195.71
 21
100.622
  0
LINE
  8
0
 10
-195.71
 20
100.622
 11
-195.529
 21
100.79
  0
LINE
  8
0
 10
-195.529
 20
100.79
 11
-195.325
 21
100.929
  0
LINE
  8
0
 10
-195.325
 20
100.929
 11
-195.103
 21
101.036
  0
LINE
  8
0
 10
-195.103
 20
101.036
 11
-194.867
 21
101.109
  0
LINE
  8
0
 10
-194.867
 20
101.109
 11
-194.623
 21
101.145
  0
LINE
  8
0
 10
-194.623
 20
101.145
 11
-194.377
 21
101.145
  0
LINE
  8
0
 10
-194.377
 20
101.145
 11
-194.133
 21
101.109
  0
LINE
  8
0
 10
-194.133
 20
101.109
 11
-193.897
 21
101.036
  0
LINE
  8
0
 10
-193.897
 20
101.036
 11
-193.675
 21
100.929
  0
LINE
  8
0
 10
-193.675
 20
100.929
 11
-193.471
 21
100.79
  0
LINE
  8
0
 10
-193.471
 20
100.79
 11
-193.29
 21
100.622
  0
LINE
  8
0
 10
-193.29
 20
100.622
 11
-193.137
 21
100.429
  0
LINE
  8
0
 10
-193.137
 20
100.429
 11
-193.013
 21
100.216
  0
LINE
  8
0
 10
-193.013
 20
100.216
 11
-192.923
 21
99.9863
  0
LINE
  8
0
 10
-192.923
 20
99.9863
 11
-192.868
 21
99.7459
  0
LINE
  8
0
 10
-192.868
 20
99.7459
 11
-192.85
 21
99.5
  0
LINE
  8
0
 10
-192.85
 20
99.5
 11
-192.868
 21
99.2541
  0
LINE
  8
0
 10
-192.868
 20
99.2541
 11
-192.923
 21
99.0137
  0
LINE
  8
0
 10
-192.923
 20
99.0137
 11
-193.013
 21
98.7841
  0
LINE
  8
0
 10
-193.013
 20
98.7841
 11
-193.137
 21
98.5705
  0
LINE
  8
0
 10
-193.137
 20
98.5705
 11
-193.29
 21
98.3777
  0
LINE
  8
0
 10
-193.29
 20
98.3777
 11
-193.471
 21
98.21
  0
LINE
  8
0
 10
-193.471
 20
98.21
 11
-193.675
 21
98.0711
  0
LINE
  8
0
 10
-193.675
 20
98.0711
 11
-193.897
 21
97.9641
  0
LINE
  8
0
 10
-193.897
 20
97.9641
 11
-194.133
 21
97.8914
  0
LINE
  8
0
 10
-194.133
 20
97.8914
 11
-194.377
 21
97.8546
  0
LINE
  8
0
 10
-194.377
 20
97.8546
 11
-194.623
 21
97.8546
  0
LINE
  8
0
 10
-225.623
 20
97.8546
 11
-225.867
 21
97.8914
  0
LINE
  8
0
 10
-225.867
 20
97.8914
 11
-226.103
 21
97.9641
  0
LINE
  8
0
 10
-226.103
 20
97.9641
 11
-226.325
 21
98.0711
  0
LINE
  8
0
 10
-226.325
 20
98.0711
 11
-226.529
 21
98.21
  0
LINE
  8
0
 10
-226.529
 20
98.21
 11
-226.71
 21
98.3777
  0
LINE
  8
0
 10
-226.71
 20
98.3777
 11
-226.863
 21
98.5705
  0
LINE
  8
0
 10
-226.863
 20
98.5705
 11
-226.987
 21
98.7841
  0
LINE
  8
0
 10
-226.987
 20
98.7841
 11
-227.077
 21
99.0137
  0
LINE
  8
0
 10
-227.077
 20
99.0137
 11
-227.132
 21
99.2541
  0
LINE
  8
0
 10
-227.132
 20
99.2541
 11
-227.15
 21
99.5
  0
LINE
  8
0
 10
-227.15
 20
99.5
 11
-227.132
 21
99.7459
  0
LINE
  8
0
 10
-227.132
 20
99.7459
 11
-227.077
 21
99.9863
  0
LINE
  8
0
 10
-227.077
 20
99.9863
 11
-226.987
 21
100.216
  0
LINE
  8
0
 10
-226.987
 20
100.216
 11
-226.863
 21
100.429
  0
LINE
  8
0
 10
-226.863
 20
100.429
 11
-226.71
 21
100.622
  0
LINE
  8
0
 10
-226.71
 20
100.622
 11
-226.529
 21
100.79
  0
LINE
  8
0
 10
-226.529
 20
100.79
 11
-226.325
 21
100.929
  0
LINE
  8
0
 10
-226.325
 20
100.929
 11
-226.103
 21
101.036
  0
LINE
  8
0
 10
-226.103
 20
101.036
 11
-225.867
 21
101.109
  0
LINE
  8
0
 10
-225.867
 20
101.109
 11
-225.623
 21
101.145
  0
LINE
  8
0
 10
-225.623
 20
101.145
 11
-225.377
 21
101.145
  0
LINE
  8
0
 10
-225.377
 20
101.145
 11
-225.133
 21
101.109
  0
LINE
  8
0
 10
-225.133
 20
101.109
 11
-224.897
 21
101.036
  0
LINE
  8
0
 10
-224.897
 20
101.036
 11
-224.675
 21
100.929
  0
LINE
  8
0
 10
-224.675
 20
100.929
 11
-224.471
 21
100.79
  0
LINE
  8
0
 10
-224.471
 20
100.79
 11
-224.29
 21
100.622
  0
LINE
  8
0
 10
-224.29
 20
100.622
 11
-224.137
 21
100.429
  0
LINE
  8
0
 10
-224.137
 20
100.429
 11
-224.013
 21
100.216
  0
LINE
  8
0
 10
-224.013
 20
100.216
 11
-223.923
 21
99.9863
  0
LINE
  8
0
 10
-223.923
 20
99.9863
 11
-223.868
 21
99.7459
  0
LINE
  8
0
 10
-223.868
 20
99.7459
 11
-223.85
 21
99.5
  0
LINE
  8
0
 10
-223.85
 20
99.5
 11
-223.868
 21
99.2541
  0
LINE
  8
0
 10
-223.868
 20
99.2541
 11
-223.923
 21
99.0137
  0
LINE
  8
0
 10
-223.923
 20
99.0137
 11
-224.013
 21
98.7841
  0
LINE
  8
0
 10
-224.013
 20
98.7841
 11
-224.137
 21
98.5705
  0
LINE
  8
0
 10
-224.137
 20
98.5705
 11
-224.29
 21
98.3777
  0
LINE
  8
0
 10
-224.29
 20
98.3777
 11
-224.471
 21
98.21
  0
LINE
  8
0
 10
-224.471
 20
98.21
 11
-224.675
 21
98.0711
  0
LINE
  8
0
 10
-224.675
 20
98.0711
 11
-224.897
 21
97.9641
  0
LINE
  8
0
 10
-224.897
 20
97.9641
 11
-225.133
 21
97.8914
  0
LINE
  8
0
 10
-225.133
 20
97.8914
 11
-225.377
 21
97.8546
  0
LINE
  8
0
 10
-225.377
 20
97.8546
 11
-225.623
 21
97.8546
  0
LINE
  8
0
 10
-180.309
 20
94.0213
 11
-180.552
 21
94.0688
  0
LINE
  8
0
 10
-180.552
 20
94.0688
 11
-180.789
 21
94.1429
  0
LINE
  8
0
 10
-180.789
 20
94.1429
 11
-181.016
 21
94.2424
  0
LINE
  8
0
 10
-181.016
 20
94.2424
 11
-181.231
 21
94.3664
  0
LINE
  8
0
 10
-181.231
 20
94.3664
 11
-181.43
 21
94.5132
  0
LINE
  8
0
 10
-181.43
 20
94.5132
 11
-181.613
 21
94.6811
  0
LINE
  8
0
 10
-181.613
 20
94.6811
 11
-181.776
 21
94.868
  0
LINE
  8
0
 10
-181.776
 20
94.868
 11
-181.917
 21
95.0717
  0
LINE
  8
0
 10
-181.917
 20
95.0717
 11
-182.035
 21
95.2897
  0
LINE
  8
0
 10
-182.035
 20
95.2897
 11
-182.128
 21
95.5194
  0
LINE
  8
0
 10
-182.128
 20
95.5194
 11
-182.196
 21
95.758
  0
LINE
  8
0
 10
-182.196
 20
95.758
 11
-182.236
 21
96.0025
  0
LINE
  8
0
 10
-182.236
 20
96.0025
 11
-182.25
 21
96.25
  0
LINE
  8
0
 10
-182.25
 20
96.25
 11
-182.236
 21
96.4975
  0
LINE
  8
0
 10
-182.236
 20
96.4975
 11
-182.196
 21
96.742
  0
LINE
  8
0
 10
-182.196
 20
96.742
 11
-182.128
 21
96.9806
  0
LINE
  8
0
 10
-182.128
 20
96.9806
 11
-182.035
 21
97.2102
  0
LINE
  8
0
 10
-182.035
 20
97.2102
 11
-181.917
 21
97.4283
  0
LINE
  8
0
 10
-181.917
 20
97.4283
 11
-181.776
 21
97.632
  0
LINE
  8
0
 10
-181.776
 20
97.632
 11
-181.613
 21
97.8189
  0
LINE
  8
0
 10
-181.613
 20
97.8189
 11
-181.43
 21
97.9868
  0
LINE
  8
0
 10
-181.43
 20
97.9868
 11
-181.231
 21
98.1336
  0
LINE
  8
0
 10
-181.231
 20
98.1336
 11
-181.016
 21
98.2576
  0
LINE
  8
0
 10
-181.016
 20
98.2576
 11
-180.789
 21
98.3571
  0
LINE
  8
0
 10
-180.789
 20
98.3571
 11
-180.552
 21
98.4312
  0
LINE
  8
0
 10
-180.552
 20
98.4312
 11
-180.309
 21
98.4787
  0
LINE
  8
0
 10
-180.309
 20
98.4787
 11
-180.062
 21
98.4991
  0
LINE
  8
0
 10
-180.062
 20
98.4991
 11
-179.814
 21
98.4923
  0
LINE
  8
0
 10
-179.814
 20
98.4923
 11
-179.569
 21
98.4583
  0
LINE
  8
0
 10
-179.569
 20
98.4583
 11
-179.328
 21
98.3974
  0
LINE
  8
0
 10
-179.328
 20
98.3974
 11
-179.096
 21
98.3105
  0
LINE
  8
0
 10
-179.096
 20
98.3105
 11
-178.875
 21
98.1985
  0
LINE
  8
0
 10
-178.875
 20
98.1985
 11
-178.667
 21
98.063
  0
LINE
  8
0
 10
-178.667
 20
98.063
 11
-178.476
 21
97.9054
  0
LINE
  8
0
 10
-178.476
 20
97.9054
 11
-178.303
 21
97.7277
  0
LINE
  8
0
 10
-178.303
 20
97.7277
 11
-178.151
 21
97.5321
  0
LINE
  8
0
 10
-178.151
 20
97.5321
 11
-178.021
 21
97.3209
  0
LINE
  8
0
 10
-178.021
 20
97.3209
 11
-177.915
 21
97.0967
  0
LINE
  8
0
 10
-177.915
 20
97.0967
 11
-177.835
 21
96.8622
  0
LINE
  8
0
 10
-177.835
 20
96.8622
 11
-177.781
 21
96.6203
  0
LINE
  8
0
 10
-177.781
 20
96.6203
 11
-177.753
 21
96.3739
  0
LINE
  8
0
 10
-177.753
 20
96.3739
 11
-177.753
 21
96.1261
  0
LINE
  8
0
 10
-177.753
 20
96.1261
 11
-177.781
 21
95.8797
  0
LINE
  8
0
 10
-177.781
 20
95.8797
 11
-177.835
 21
95.6378
  0
LINE
  8
0
 10
-177.835
 20
95.6378
 11
-177.915
 21
95.4033
  0
LINE
  8
0
 10
-177.915
 20
95.4033
 11
-178.021
 21
95.1791
  0
LINE
  8
0
 10
-178.021
 20
95.1791
 11
-178.151
 21
94.9679
  0
LINE
  8
0
 10
-178.151
 20
94.9679
 11
-178.303
 21
94.7723
  0
LINE
  8
0
 10
-178.303
 20
94.7723
 11
-178.476
 21
94.5946
  0
LINE
  8
0
 10
-178.476
 20
94.5946
 11
-178.667
 21
94.437
  0
LINE
  8
0
 10
-178.667
 20
94.437
 11
-178.875
 21
94.3014
  0
LINE
  8
0
 10
-178.875
 20
94.3014
 11
-179.096
 21
94.1895
  0
LINE
  8
0
 10
-179.096
 20
94.1895
 11
-179.328
 21
94.1026
  0
LINE
  8
0
 10
-179.328
 20
94.1026
 11
-179.569
 21
94.0417
  0
LINE
  8
0
 10
-179.569
 20
94.0417
 11
-179.814
 21
94.0077
  0
LINE
  8
0
 10
-179.814
 20
94.0077
 11
-180.062
 21
94.0009
  0
LINE
  8
0
 10
-180.062
 20
94.0009
 11
-180.309
 21
94.0213
  0
LINE
  8
0
 10
179.814
 20
94.0077
 11
179.569
 21
94.0417
  0
LINE
  8
0
 10
179.569
 20
94.0417
 11
179.328
 21
94.1026
  0
LINE
  8
0
 10
179.328
 20
94.1026
 11
179.096
 21
94.1895
  0
LINE
  8
0
 10
179.096
 20
94.1895
 11
178.875
 21
94.3014
  0
LINE
  8
0
 10
178.875
 20
94.3014
 11
178.667
 21
94.437
  0
LINE
  8
0
 10
178.667
 20
94.437
 11
178.476
 21
94.5946
  0
LINE
  8
0
 10
178.476
 20
94.5946
 11
178.303
 21
94.7723
  0
LINE
  8
0
 10
178.303
 20
94.7723
 11
178.151
 21
94.9679
  0
LINE
  8
0
 10
178.151
 20
94.9679
 11
178.021
 21
95.1791
  0
LINE
  8
0
 10
178.021
 20
95.1791
 11
177.915
 21
95.4033
  0
LINE
  8
0
 10
177.915
 20
95.4033
 11
177.835
 21
95.6378
  0
LINE
  8
0
 10
177.835
 20
95.6378
 11
177.781
 21
95.8797
  0
LINE
  8
0
 10
177.781
 20
95.8797
 11
177.753
 21
96.1261
  0
LINE
  8
0
 10
177.753
 20
96.1261
 11
177.753
 21
96.3739
  0
LINE
  8
0
 10
177.753
 20
96.3739
 11
177.781
 21
96.6203
  0
LINE
  8
0
 10
177.781
 20
96.6203
 11
177.835
 21
96.8622
  0
LINE
  8
0
 10
177.835
 20
96.8622
 11
177.915
 21
97.0967
  0
LINE
  8
0
 10
177.915
 20
97.0967
 11
178.021
 21
97.3209
  0
LINE
  8
0
 10
178.021
 20
97.3209
 11
178.151
 21
97.5321
  0
LINE
  8
0
 10
178.151
 20
97.5321
 11
178.303
 21
97.7277
  0
LINE
  8
0
 10
178.303
 20
97.7277
 11
178.476
 21
97.9054
  0
LINE
  8
0
 10
178.476
 20
97.9054
 11
178.667
 21
98.063
  0
LINE
  8
0
 10
178.667
 20
98.063
 11
178.875
 21
98.1985
  0
LINE
  8
0
 10
178.875
 20
98.1985
 11
179.096
 21
98.3105
  0
LINE
  8
0
 10
179.096
 20
98.3105
 11
179.328
 21
98.3974
  0
LINE
  8
0
 10
179.328
 20
98.3974
 11
179.569
 21
98.4583
  0
LINE
  8
0
 10
179.569
 20
98.4583
 11
179.814
 21
98.4923
  0
LINE
  8
0
 10
179.814
 20
98.4923
 11
180.062
 21
98.4991
  0
LINE
  8
0
 10
180.062
 20
98.4991
 11
180.309
 21
98.4787
  0
LINE
  8
0
 10
180.309
 20
98.4787
 11
180.552
 21
98.4312
  0
LINE
  8
0
 10
180.552
 20
98.4312
 11
180.789
 21
98.3571
  0
LINE
  8
0
 10
180.789
 20
98.3571
 11
181.016
 21
98.2576
  0
LINE
  8
0
 10
181.016
 20
98.2576
 11
181.231
 21
98.1336
  0
LINE
  8
0
 10
181.231
 20
98.1336
 11
181.43
 21
97.9868
  0
LINE
  8
0
 10
181.43
 20
97.9868
 11
181.613
 21
97.8189
  0
LINE
  8
0
 10
181.613
 20
97.8189
 11
181.776
 21
97.632
  0
LINE
  8
0
 10
181.776
 20
97.632
 11
181.917
 21
97.4283
  0
LINE
  8
0
 10
181.917
 20
97.4283
 11
182.035
 21
97.2102
  0
LINE
  8
0
 10
182.035
 20
97.2102
 11
182.128
 21
96.9806
  0
LINE
  8
0
 10
182.128
 20
96.9806
 11
182.196
 21
96.742
  0
LINE
  8
0
 10
182.196
 20
96.742
 11
182.236
 21
96.4975
  0
LINE
  8
0
 10
182.236
 20
96.4975
 11
182.25
 21
96.25
  0
LINE
  8
0
 10
182.25
 20
96.25
 11
182.236
 21
96.0025
  0
LINE
  8
0
 10
182.236
 20
96.0025
 11
182.196
 21
95.758
  0
LINE
  8
0
 10
182.196
 20
95.758
 11
182.128
 21
95.5194
  0
LINE
  8
0
 10
182.128
 20
95.5194
 11
182.035
 21
95.2897
  0
LINE
  8
0
 10
182.035
 20
95.2897
 11
181.917
 21
95.0717
  0
LINE
  8
0
 10
181.917
 20
95.0717
 11
181.776
 21
94.868
  0
LINE
  8
0
 10
181.776
 20
94.868
 11
181.613
 21
94.6811
  0
LINE
  8
0
 10
181.613
 20
94.6811
 11
181.43
 21
94.5132
  0
LINE
  8
0
 10
181.43
 20
94.5132
 11
181.231
 21
94.3664
  0
LINE
  8
0
 10
181.231
 20
94.3664
 11
181.016
 21
94.2424
  0
LINE
  8
0
 10
181.016
 20
94.2424
 11
180.789
 21
94.1429
  0
LINE
  8
0
 10
180.789
 20
94.1429
 11
180.552
 21
94.0688
  0
LINE
  8
0
 10
180.552
 20
94.0688
 11
180.309
 21
94.0213
  0
LINE
  8
0
 10
180.309
 20
94.0213
 11
180.062
 21
94.0009
  0
LINE
  8
0
 10
180.062
 20
94.0009
 11
179.814
 21
94.0077
  0
LINE
  8
0
 10
-240.309
 20
94.0213
 11
-240.552
 21
94.0688
  0
LINE
  8
0
 10
-240.552
 20
94.0688
 11
-240.789
 21
94.1429
  0
LINE
  8
0
 10
-240.789
 20
94.1429
 11
-241.016
 21
94.2424
  0
LINE
  8
0
 10
-241.016
 20
94.2424
 11
-241.231
 21
94.3664
  0
LINE
  8
0
 10
-241.231
 20
94.3664
 11
-241.43
 21
94.5132
  0
LINE
  8
0
 10
-241.43
 20
94.5132
 11
-241.613
 21
94.6811
  0
LINE
  8
0
 10
-241.613
 20
94.6811
 11
-241.776
 21
94.868
  0
LINE
  8
0
 10
-241.776
 20
94.868
 11
-241.917
 21
95.0717
  0
LINE
  8
0
 10
-241.917
 20
95.0717
 11
-242.035
 21
95.2897
  0
LINE
  8
0
 10
-242.035
 20
95.2897
 11
-242.128
 21
95.5194
  0
LINE
  8
0
 10
-242.128
 20
95.5194
 11
-242.196
 21
95.758
  0
LINE
  8
0
 10
-242.196
 20
95.758
 11
-242.236
 21
96.0025
  0
LINE
  8
0
 10
-242.236
 20
96.0025
 11
-242.25
 21
96.25
  0
LINE
  8
0
 10
-242.25
 20
96.25
 11
-242.236
 21
96.4975
  0
LINE
  8
0
 10
-242.236
 20
96.4975
 11
-242.196
 21
96.742
  0
LINE
  8
0
 10
-242.196
 20
96.742
 11
-242.128
 21
96.9806
  0
LINE
  8
0
 10
-242.128
 20
96.9806
 11
-242.035
 21
97.2102
  0
LINE
  8
0
 10
-242.035
 20
97.2102
 11
-241.917
 21
97.4283
  0
LINE
  8
0
 10
-241.917
 20
97.4283
 11
-241.776
 21
97.632
  0
LINE
  8
0
 10
-241.776
 20
97.632
 11
-241.613
 21
97.8189
  0
LINE
  8
0
 10
-241.613
 20
97.8189
 11
-241.43
 21
97.9868
  0
LINE
  8
0
 10
-241.43
 20
97.9868
 11
-241.231
 21
98.1336
  0
LINE
  8
0
 10
-241.231
 20
98.1336
 11
-241.016
 21
98.2576
  0
LINE
  8
0
 10
-241.016
 20
98.2576
 11
-240.789
 21
98.3571
  0
LINE
  8
0
 10
-240.789
 20
98.3571
 11
-240.552
 21
98.4312
  0
LINE
  8
0
 10
-240.552
 20
98.4312
 11
-240.309
 21
98.4787
  0
LINE
  8
0
 10
-240.309
 20
98.4787
 11
-240.062
 21
98.4991
  0
LINE
  8
0
 10
-240.062
 20
98.4991
 11
-239.814
 21
98.4923
  0
LINE
  8
0
 10
-239.814
 20
98.4923
 11
-239.569
 21
98.4583
  0
LINE
  8
0
 10
-239.569
 20
98.4583
 11
-239.328
 21
98.3974
  0
LINE
  8
0
 10
-239.328
 20
98.3974
 11
-239.096
 21
98.3105
  0
LINE
  8
0
 10
-239.096
 20
98.3105
 11
-238.875
 21
98.1985
  0
LINE
  8
0
 10
-238.875
 20
98.1985
 11
-238.667
 21
98.063
  0
LINE
  8
0
 10
-238.667
 20
98.063
 11
-238.476
 21
97.9054
  0
LINE
  8
0
 10
-238.476
 20
97.9054
 11
-238.303
 21
97.7277
  0
LINE
  8
0
 10
-238.303
 20
97.7277
 11
-238.151
 21
97.5321
  0
LINE
  8
0
 10
-238.151
 20
97.5321
 11
-238.021
 21
97.3209
  0
LINE
  8
0
 10
-238.021
 20
97.3209
 11
-237.915
 21
97.0967
  0
LINE
  8
0
 10
-237.915
 20
97.0967
 11
-237.835
 21
96.8622
  0
LINE
  8
0
 10
-237.835
 20
96.8622
 11
-237.781
 21
96.6203
  0
LINE
  8
0
 10
-237.781
 20
96.6203
 11
-237.753
 21
96.3739
  0
LINE
  8
0
 10
-237.753
 20
96.3739
 11
-237.753
 21
96.1261
  0
LINE
  8
0
 10
-237.753
 20
96.1261
 11
-237.781
 21
95.8797
  0
LINE
  8
0
 10
-237.781
 20
95.8797
 11
-237.835
 21
95.6378
  0
LINE
  8
0
 10
-237.835
 20
95.6378
 11
-237.915
 21
95.4033
  0
LINE
  8
0
 10
-237.915
 20
95.4033
 11
-238.021
 21
95.1791
  0
LINE
  8
0
 10
-238.021
 20
95.1791
 11
-238.151
 21
94.9679
  0
LINE
  8
0
 10
-238.151
 20
94.9679
 11
-238.303
 21
94.7723
  0
LINE
  8
0
 10
-238.303
 20
94.7723
 11
-238.476
 21
94.5946
  0
LINE
  8
0
 10
-238.476
 20
94.5946
 11
-238.667
 21
94.437
  0
LINE
  8
0
 10
-238.667
 20
94.437
 11
-238.875
 21
94.3014
  0
LINE
  8
0
 10
-238.875
 20
94.3014
 11
-239.096
 21
94.1895
  0
LINE
  8
0
 10
-239.096
 20
94.1895
 11
-239.328
 21
94.1026
  0
LINE
  8
0
 10
-239.328
 20
94.1026
 11
-239.569
 21
94.0417
  0
LINE
  8
0
 10
-239.569
 20
94.0417
 11
-239.814
 21
94.0077
  0
LINE
  8
0
 10
-239.814
 20
94.0077
 11
-240.062
 21
94.0009
  0
LINE
  8
0
 10
-240.062
 20
94.0009
 11
-240.309
 21
94.0213
  0
LINE
  8
0
 10
239.814
 20
94.0077
 11
239.569
 21
94.0417
  0
LINE
  8
0
 10
239.569
 20
94.0417
 11
239.328
 21
94.1026
  0
LINE
  8
0
 10
239.328
 20
94.1026
 11
239.096
 21
94.1895
  0
LINE
  8
0
 10
239.096
 20
94.1895
 11
238.875
 21
94.3014
  0
LINE
  8
0
 10
238.875
 20
94.3014
 11
238.667
 21
94.437
  0
LINE
  8
0
 10
238.667
 20
94.437
 11
238.476
 21
94.5946
  0
LINE
  8
0
 10
238.476
 20
94.5946
 11
238.303
 21
94.7723
  0
LINE
  8
0
 10
238.303
 20
94.7723
 11
238.151
 21
94.9679
  0
LINE
  8
0
 10
238.151
 20
94.9679
 11
238.021
 21
95.1791
  0
LINE
  8
0
 10
238.021
 20
95.1791
 11
237.915
 21
95.4033
  0
LINE
  8
0
 10
237.915
 20
95.4033
 11
237.835
 21
95.6378
  0
LINE
  8
0
 10
237.835
 20
95.6378
 11
237.781
 21
95.8797
  0
LINE
  8
0
 10
237.781
 20
95.8797
 11
237.753
 21
96.1261
  0
LINE
  8
0
 10
237.753
 20
96.1261
 11
237.753
 21
96.3739
  0
LINE
  8
0
 10
237.753
 20
96.3739
 11
237.781
 21
96.6203
  0
LINE
  8
0
 10
237.781
 20
96.6203
 11
237.835
 21
96.8622
  0
LINE
  8
0
 10
237.835
 20
96.8622
 11
237.915
 21
97.0967
  0
LINE
  8
0
 10
237.915
 20
97.0967
 11
238.021
 21
97.3209
  0
LINE
  8
0
 10
238.021
 20
97.3209
 11
238.151
 21
97.5321
  0
LINE
  8
0
 10
238.151
 20
97.5321
 11
238.303
 21
97.7277
  0
LINE
  8
0
 10
238.303
 20
97.7277
 11
238.476
 21
97.9054
  0
LINE
  8
0
 10
238.476
 20
97.9054
 11
238.667
 21
98.063
  0
LINE
  8
0
 10
238.667
 20
98.063
 11
238.875
 21
98.1985
  0
LINE
  8
0
 10
238.875
 20
98.1985
 11
239.096
 21
98.3105
  0
LINE
  8
0
 10
239.096
 20
98.3105
 11
239.328
 21
98.3974
  0
LINE
  8
0
 10
239.328
 20
98.3974
 11
239.569
 21
98.4583
  0
LINE
  8
0
 10
239.569
 20
98.4583
 11
239.814
 21
98.4923
  0
LINE
  8
0
 10
239.814
 20
98.4923
 11
240.062
 21
98.4991
  0
LINE
  8
0
 10
240.062
 20
98.4991
 11
240.309
 21
98.4787
  0
LINE
  8
0
 10
240.309
 20
98.4787
 11
240.552
 21
98.4312
  0
LINE
  8
0
 10
240.552
 20
98.4312
 11
240.789
 21
98.3571
  0
LINE
  8
0
 10
240.789
 20
98.3571
 11
241.016
 21
98.2576
  0
LINE
  8
0
 10
241.016
 20
98.2576
 11
241.231
 21
98.1336
  0
LINE
  8
0
 10
241.231
 20
98.1336
 11
241.43
 21
97.9868
  0
LINE
  8
0
 10
241.43
 20
97.9868
 11
241.613
 21
97.8189
  0
LINE
  8
0
 10
241.613
 20
97.8189
 11
241.776
 21
97.632
  0
LINE
  8
0
 10
241.776
 20
97.632
 11
241.917
 21
97.4283
  0
LINE
  8
0
 10
241.917
 20
97.4283
 11
242.035
 21
97.2102
  0
LINE
  8
0
 10
242.035
 20
97.2102
 11
242.128
 21
96.9806
  0
LINE
  8
0
 10
242.128
 20
96.9806
 11
242.196
 21
96.742
  0
LINE
  8
0
 10
242.196
 20
96.742
 11
242.236
 21
96.4975
  0
LINE
  8
0
 10
242.236
 20
96.4975
 11
242.25
 21
96.25
  0
LINE
  8
0
 10
242.25
 20
96.25
 11
242.236
 21
96.0025
  0
LINE
  8
0
 10
242.236
 20
96.0025
 11
242.196
 21
95.758
  0
LINE
  8
0
 10
242.196
 20
95.758
 11
242.128
 21
95.5194
  0
LINE
  8
0
 10
242.128
 20
95.5194
 11
242.035
 21
95.2897
  0
LINE
  8
0
 10
242.035
 20
95.2897
 11
241.917
 21
95.0717
  0
LINE
  8
0
 10
241.917
 20
95.0717
 11
241.776
 21
94.868
  0
LINE
  8
0
 10
241.776
 20
94.868
 11
241.613
 21
94.6811
  0
LINE
  8
0
 10
241.613
 20
94.6811
 11
241.43
 21
94.5132
  0
LINE
  8
0
 10
241.43
 20
94.5132
 11
241.231
 21
94.3664
  0
LINE
  8
0
 10
241.231
 20
94.3664
 11
241.016
 21
94.2424
  0
LINE
  8
0
 10
241.016
 20
94.2424
 11
240.789
 21
94.1429
  0
LINE
  8
0
 10
240.789
 20
94.1429
 11
240.552
 21
94.0688
  0
LINE
  8
0
 10
240.552
 20
94.0688
 11
240.309
 21
94.0213
  0
LINE
  8
0
 10
240.309
 20
94.0213
 11
240.062
 21
94.0009
  0
LINE
  8
0
 10
240.062
 20
94.0009
 11
239.814
 21
94.0077
  0
LINE
  8
0
 10
225.377
 20
1.3546
 11
225.133
 21
1.39136
  0
LINE
  8
0
 10
225.133
 20
1.39136
 11
224.897
 21
1.46405
  0
LINE
  8
0
 10
224.897
 20
1.46405
 11
224.675
 21
1.57104
  0
LINE
  8
0
 10
224.675
 20
1.57104
 11
224.471
 21
1.70998
  0
LINE
  8
0
 10
224.471
 20
1.70998
 11
224.29
 21
1.8777
  0
LINE
  8
0
 10
224.29
 20
1.8777
 11
224.137
 21
2.07051
  0
LINE
  8
0
 10
224.137
 20
2.07051
 11
224.013
 21
2.28409
  0
LINE
  8
0
 10
224.013
 20
2.28409
 11
223.923
 21
2.51364
  0
LINE
  8
0
 10
223.923
 20
2.51364
 11
223.868
 21
2.75407
  0
LINE
  8
0
 10
223.868
 20
2.75407
 11
223.85
 21
3
  0
LINE
  8
0
 10
223.85
 20
3
 11
223.868
 21
3.24591
  0
LINE
  8
0
 10
223.868
 20
3.24591
 11
223.923
 21
3.48634
  0
LINE
  8
0
 10
223.923
 20
3.48634
 11
224.013
 21
3.7159
  0
LINE
  8
0
 10
224.013
 20
3.7159
 11
224.137
 21
3.92947
  0
LINE
  8
0
 10
224.137
 20
3.92947
 11
224.29
 21
4.12228
  0
LINE
  8
0
 10
224.29
 20
4.12228
 11
224.471
 21
4.29001
  0
LINE
  8
0
 10
224.471
 20
4.29001
 11
224.675
 21
4.42894
  0
LINE
  8
0
 10
224.675
 20
4.42894
 11
224.897
 21
4.53593
  0
LINE
  8
0
 10
224.897
 20
4.53593
 11
225.133
 21
4.60863
  0
LINE
  8
0
 10
225.133
 20
4.60863
 11
225.377
 21
4.64539
  0
LINE
  8
0
 10
225.377
 20
4.64539
 11
225.623
 21
4.64539
  0
LINE
  8
0
 10
225.623
 20
4.64539
 11
225.867
 21
4.60863
  0
LINE
  8
0
 10
225.867
 20
4.60863
 11
226.103
 21
4.53593
  0
LINE
  8
0
 10
226.103
 20
4.53593
 11
226.325
 21
4.42894
  0
LINE
  8
0
 10
226.325
 20
4.42894
 11
226.529
 21
4.29001
  0
LINE
  8
0
 10
226.529
 20
4.29001
 11
226.71
 21
4.12228
  0
LINE
  8
0
 10
226.71
 20
4.12228
 11
226.863
 21
3.92947
  0
LINE
  8
0
 10
226.863
 20
3.92947
 11
226.987
 21
3.7159
  0
LINE
  8
0
 10
226.987
 20
3.7159
 11
227.077
 21
3.48634
  0
LINE
  8
0
 10
227.077
 20
3.48634
 11
227.132
 21
3.24591
  0
LINE
  8
0
 10
227.132
 20
3.24591
 11
227.15
 21
3
  0
LINE
  8
0
 10
227.15
 20
3
 11
227.132
 21
2.75407
  0
LINE
  8
0
 10
227.132
 20
2.75407
 11
227.077
 21
2.51364
  0
LINE
  8
0
 10
227.077
 20
2.51364
 11
226.987
 21
2.28409
  0
LINE
  8
0
 10
226.987
 20
2.28409
 11
226.863
 21
2.07051
  0
LINE
  8
0
 10
226.863
 20
2.07051
 11
226.71
 21
1.8777
  0
LINE
  8
0
 10
226.71
 20
1.8777
 11
226.529
 21
1.70998
  0
LINE
  8
0
 10
226.529
 20
1.70998
 11
226.325
 21
1.57104
  0
LINE
  8
0
 10
226.325
 20
1.57104
 11
226.103
 21
1.46405
  0
LINE
  8
0
 10
226.103
 20
1.46405
 11
225.867
 21
1.39136
  0
LINE
  8
0
 10
225.867
 20
1.39136
 11
225.623
 21
1.3546
  0
LINE
  8
0
 10
225.623
 20
1.3546
 11
225.377
 21
1.3546
  0
LINE
  8
0
 10
194.377
 20
1.3546
 11
194.133
 21
1.39136
  0
LINE
  8
0
 10
194.133
 20
1.39136
 11
193.897
 21
1.46405
  0
LINE
  8
0
 10
193.897
 20
1.46405
 11
193.675
 21
1.57104
  0
LINE
  8
0
 10
193.675
 20
1.57104
 11
193.471
 21
1.70998
  0
LINE
  8
0
 10
193.471
 20
1.70998
 11
193.29
 21
1.8777
  0
LINE
  8
0
 10
193.29
 20
1.8777
 11
193.137
 21
2.07051
  0
LINE
  8
0
 10
193.137
 20
2.07051
 11
193.013
 21
2.28409
  0
LINE
  8
0
 10
193.013
 20
2.28409
 11
192.923
 21
2.51364
  0
LINE
  8
0
 10
192.923
 20
2.51364
 11
192.868
 21
2.75407
  0
LINE
  8
0
 10
192.868
 20
2.75407
 11
192.85
 21
3
  0
LINE
  8
0
 10
192.85
 20
3
 11
192.868
 21
3.24591
  0
LINE
  8
0
 10
192.868
 20
3.24591
 11
192.923
 21
3.48634
  0
LINE
  8
0
 10
192.923
 20
3.48634
 11
193.013
 21
3.7159
  0
LINE
  8
0
 10
193.013
 20
3.7159
 11
193.137
 21
3.92947
  0
LINE
  8
0
 10
193.137
 20
3.92947
 11
193.29
 21
4.12228
  0
LINE
  8
0
 10
193.29
 20
4.12228
 11
193.471
 21
4.29001
  0
LINE
  8
0
 10
193.471
 20
4.29001
 11
193.675
 21
4.42894
  0
LINE
  8
0
 10
193.675
 20
4.42894
 11
193.897
 21
4.53593
  0
LINE
  8
0
 10
193.897
 20
4.53593
 11
194.133
 21
4.60863
  0
LINE
  8
0
 10
194.133
 20
4.60863
 11
194.377
 21
4.64539
  0
LINE
  8
0
 10
194.377
 20
4.64539
 11
194.623
 21
4.64539
  0
LINE
  8
0
 10
194.623
 20
4.64539
 11
194.867
 21
4.60863
  0
LINE
  8
0
 10
194.867
 20
4.60863
 11
195.103
 21
4.53593
  0
LINE
  8
0
 10
195.103
 20
4.53593
 11
195.325
 21
4.42894
  0
LINE
  8
0
 10
195.325
 20
4.42894
 11
195.529
 21
4.29001
  0
LINE
  8
0
 10
195.529
 20
4.29001
 11
195.71
 21
4.12228
  0
LINE
  8
0
 10
195.71
 20
4.12228
 11
195.863
 21
3.92947
  0
LINE
  8
0
 10
195.863
 20
3.92947
 11
195.987
 21
3.7159
  0
LINE
  8
0
 10
195.987
 20
3.7159
 11
196.077
 21
3.48634
  0
LINE
  8
0
 10
196.077
 20
3.48634
 11
196.132
 21
3.24591
  0
LINE
  8
0
 10
196.132
 20
3.24591
 11
196.15
 21
3
  0
LINE
  8
0
 10
196.15
 20
3
 11
196.132
 21
2.75407
  0
LINE
  8
0
 10
196.132
 20
2.75407
 11
196.077
 21
2.51364
  0
LINE
  8
0
 10
196.077
 20
2.51364
 11
195.987
 21
2.28409
  0
LINE
  8
0
 10
195.987
 20
2.28409
 11
195.863
 21
2.07051
  0
LINE
  8
0
 10
195.863
 20
2.07051
 11
195.71
 21
1.8777
  0
LINE
  8
0
 10
195.71
 20
1.8777
 11
195.529
 21
1.70998
  0
LINE
  8
0
 10
195.529
 20
1.70998
 11
195.325
 21
1.57104
  0
LINE
  8
0
 10
195.325
 20
1.57104
 11
195.103
 21
1.46405
  0
LINE
  8
0
 10
195.103
 20
1.46405
 11
194.867
 21
1.39136
  0
LINE
  8
0
 10
194.867
 20
1.39136
 11
194.623
 21
1.3546
  0
LINE
  8
0
 10
194.623
 20
1.3546
 11
194.377
 21
1.3546
  0
LINE
  8
0
 10
-180.309
 20
-2.22867
 11
-180.552
 21
-2.18114
  0
LINE
  8
0
 10
-180.552
 20
-2.18114
 11
-180.789
 21
-2.10715
  0
LINE
  8
0
 10
-180.789
 20
-2.10715
 11
-181.016
 21
-2.00757
  0
LINE
  8
0
 10
-181.016
 20
-2.00757
 11
-181.231
 21
-1.88362
  0
LINE
  8
0
 10
-181.231
 20
-1.88362
 11
-181.43
 21
-1.7368
  0
LINE
  8
0
 10
-181.43
 20
-1.7368
 11
-181.613
 21
-1.56891
  0
LINE
  8
0
 10
-181.613
 20
-1.56891
 11
-181.776
 21
-1.38197
  0
LINE
  8
0
 10
-181.776
 20
-1.38197
 11
-181.917
 21
-1.17825
  0
LINE
  8
0
 10
-181.917
 20
-1.17825
 11
-182.035
 21
-0.960236
  0
LINE
  8
0
 10
-182.035
 20
-0.960236
 11
-182.128
 21
-0.73056
  0
LINE
  8
0
 10
-182.128
 20
-0.73056
 11
-182.196
 21
-0.49202
  0
LINE
  8
0
 10
-182.196
 20
-0.49202
 11
-182.236
 21
-0.247513
  0
LINE
  8
0
 10
-182.236
 20
-0.247513
 11
-182.25
 21
0
  0
LINE
  8
0
 10
-182.25
 20
0
 11
-182.236
 21
0.247513
  0
LINE
  8
0
 10
-182.236
 20
0.247513
 11
-182.196
 21
0.49202
  0
LINE
  8
0
 10
-182.196
 20
0.49202
 11
-182.128
 21
0.73056
  0
LINE
  8
0
 10
-182.128
 20
0.73056
 11
-182.035
 21
0.960236
  0
LINE
  8
0
 10
-182.035
 20
0.960236
 11
-181.917
 21
1.17825
  0
LINE
  8
0
 10
-181.917
 20
1.17825
 11
-181.776
 21
1.38197
  0
LINE
  8
0
 10
-181.776
 20
1.38197
 11
-181.613
 21
1.56891
  0
LINE
  8
0
 10
-181.613
 20
1.56891
 11
-181.43
 21
1.7368
  0
LINE
  8
0
 10
-181.43
 20
1.7368
 11
-181.231
 21
1.88362
  0
LINE
  8
0
 10
-181.231
 20
1.88362
 11
-181.016
 21
2.00757
  0
LINE
  8
0
 10
-181.016
 20
2.00757
 11
-180.789
 21
2.10715
  0
LINE
  8
0
 10
-180.789
 20
2.10715
 11
-180.552
 21
2.18114
  0
LINE
  8
0
 10
-180.552
 20
2.18114
 11
-180.309
 21
2.22867
  0
LINE
  8
0
 10
-180.309
 20
2.22867
 11
-180.062
 21
2.24915
  0
LINE
  8
0
 10
-180.062
 20
2.24915
 11
-179.814
 21
2.24231
  0
LINE
  8
0
 10
-179.814
 20
2.24231
 11
-179.569
 21
2.20825
  0
LINE
  8
0
 10
-179.569
 20
2.20825
 11
-179.328
 21
2.1474
  0
LINE
  8
0
 10
-179.328
 20
2.1474
 11
-179.096
 21
2.06049
  0
LINE
  8
0
 10
-179.096
 20
2.06049
 11
-178.875
 21
1.94855
  0
LINE
  8
0
 10
-178.875
 20
1.94855
 11
-178.667
 21
1.81296
  0
LINE
  8
0
 10
-178.667
 20
1.81296
 11
-178.476
 21
1.65536
  0
LINE
  8
0
 10
-178.476
 20
1.65536
 11
-178.303
 21
1.47769
  0
LINE
  8
0
 10
-178.303
 20
1.47769
 11
-178.151
 21
1.28206
  0
LINE
  8
0
 10
-178.151
 20
1.28206
 11
-178.021
 21
1.07088
  0
LINE
  8
0
 10
-178.021
 20
1.07088
 11
-177.915
 21
0.846695
  0
LINE
  8
0
 10
-177.915
 20
0.846695
 11
-177.835
 21
0.612228
  0
LINE
  8
0
 10
-177.835
 20
0.612228
 11
-177.781
 21
0.370331
  0
LINE
  8
0
 10
-177.781
 20
0.370331
 11
-177.753
 21
0.123947
  0
LINE
  8
0
 10
-177.753
 20
0.123947
 11
-177.753
 21
-0.123947
  0
LINE
  8
0
 10
-177.753
 20
-0.123947
 11
-177.781
 21
-0.370331
  0
LINE
  8
0
 10
-177.781
 20
-0.370331
 11
-177.835
 21
-0.612228
  0
LINE
  8
0
 10
-177.835
 20
-0.612228
 11
-177.915
 21
-0.846695
  0
LINE
  8
0
 10
-177.915
 20
-0.846695
 11
-178.021
 21
-1.07088
  0
LINE
  8
0
 10
-178.021
 20
-1.07088
 11
-178.151
 21
-1.28206
  0
LINE
  8
0
 10
-178.151
 20
-1.28206
 11
-178.303
 21
-1.47769
  0
LINE
  8
0
 10
-178.303
 20
-1.47769
 11
-178.476
 21
-1.65536
  0
LINE
  8
0
 10
-178.476
 20
-1.65536
 11
-178.667
 21
-1.81296
  0
LINE
  8
0
 10
-178.667
 20
-1.81296
 11
-178.875
 21
-1.94855
  0
LINE
  8
0
 10
-178.875
 20
-1.94855
 11
-179.096
 21
-2.06049
  0
LINE
  8
0
 10
-179.096
 20
-2.06049
 11
-179.328
 21
-2.1474
  0
LINE
  8
0
 10
-179.328
 20
-2.1474
 11
-179.569
 21
-2.20825
  0
LINE
  8
0
 10
-179.569
 20
-2.20825
 11
-179.814
 21
-2.24231
  0
LINE
  8
0
 10
-179.814
 20
-2.24231
 11
-180.062
 21
-2.24915
  0
LINE
  8
0
 10
-180.062
 20
-2.24915
 11
-180.309
 21
-2.22867
  0
LINE
  8
0
 10
239.814
 20
-2.24231
 11
239.569
 21
-2.20825
  0
LINE
  8
0
 10
239.569
 20
-2.20825
 11
239.328
 21
-2.1474
  0
LINE
  8
0
 10
239.328
 20
-2.1474
 11
239.096
 21
-2.06049
  0
LINE
  8
0
 10
239.096
 20
-2.06049
 11
238.875
 21
-1.94855
  0
LINE
  8
0
 10
238.875
 20
-1.94855
 11
238.667
 21
-1.81296
  0
LINE
  8
0
 10
238.667
 20
-1.81296
 11
238.476
 21
-1.65536
  0
LINE
  8
0
 10
238.476
 20
-1.65536
 11
238.303
 21
-1.47769
  0
LINE
  8
0
 10
238.303
 20
-1.47769
 11
238.151
 21
-1.28206
  0
LINE
  8
0
 10
238.151
 20
-1.28206
 11
238.021
 21
-1.07088
  0
LINE
  8
0
 10
238.021
 20
-1.07088
 11
237.915
 21
-0.846695
  0
LINE
  8
0
 10
237.915
 20
-0.846695
 11
237.835
 21
-0.612228
  0
LINE
  8
0
 10
237.835
 20
-0.612228
 11
237.781
 21
-0.370331
  0
LINE
  8
0
 10
237.781
 20
-0.370331
 11
237.753
 21
-0.123947
  0
LINE
  8
0
 10
237.753
 20
-0.123947
 11
237.753
 21
0.123947
  0
LINE
  8
0
 10
237.753
 20
0.123947
 11
237.781
 21
0.370331
  0
LINE
  8
0
 10
237.781
 20
0.370331
 11
237.835
 21
0.612228
  0
LINE
  8
0
 10
237.835
 20
0.612228
 11
237.915
 21
0.846695
  0
LINE
  8
0
 10
237.915
 20
0.846695
 11
238.021
 21
1.07088
  0
LINE
  8
0
 10
238.021
 20
1.07088
 11
238.151
 21
1.28206
  0
LINE
  8
0
 10
238.151
 20
1.28206
 11
238.303
 21
1.47769
  0
LINE
  8
0
 10
238.303
 20
1.47769
 11
238.476
 21
1.65536
  0
LINE
  8
0
 10
238.476
 20
1.65536
 11
238.667
 21
1.81296
  0
LINE
  8
0
 10
238.667
 20
1.81296
 11
238.875
 21
1.94855
  0
LINE
  8
0
 10
238.875
 20
1.94855
 11
239.096
 21
2.06049
  0
LINE
  8
0
 10
239.096
 20
2.06049
 11
239.328
 21
2.1474
  0
LINE
  8
0
 10
239.328
 20
2.1474
 11
239.569
 21
2.20825
  0
LINE
  8
0
 10
239.569
 20
2.20825
 11
239.814
 21
2.24231
  0
LINE
  8
0
 10
239.814
 20
2.24231
 11
240.062
 21
2.24915
  0
LINE
  8
0
 10
240.062
 20
2.24915
 11
240.309
 21
2.22867
  0
LINE
  8
0
 10
240.309
 20
2.22867
 11
240.552
 21
2.18114
  0
LINE
  8
0
 10
240.552
 20
2.18114
 11
240.789
 21
2.10715
  0
LINE
  8
0
 10
240.789
 20
2.10715
 11
241.016
 21
2.00757
  0
LINE
  8
0
 10
241.016
 20
2.00757
 11
241.231
 21
1.88362
  0
LINE
  8
0
 10
241.231
 20
1.88362
 11
241.43
 21
1.7368
  0
LINE
  8
0
 10
241.43
 20
1.7368
 11
241.613
 21
1.56891
  0
LINE
  8
0
 10
241.613
 20
1.56891
 11
241.776
 21
1.38197
  0
LINE
  8
0
 10
241.776
 20
1.38197
 11
241.917
 21
1.17825
  0
LINE
  8
0
 10
241.917
 20
1.17825
 11
242.035
 21
0.960236
  0
LINE
  8
0
 10
242.035
 20
0.960236
 11
242.128
 21
0.73056
  0
LINE
  8
0
 10
242.128
 20
0.73056
 11
242.196
 21
0.49202
  0
LINE
  8
0
 10
242.196
 20
0.49202
 11
242.236
 21
0.247513
  0
LINE
  8
0
 10
242.236
 20
0.247513
 11
242.25
 21
0
  0
LINE
  8
0
 10
242.25
 20
0
 11
242.236
 21
-0.247513
  0
LINE
  8
0
 10
242.236
 20
-0.247513
 11
242.196
 21
-0.49202
  0
LINE
  8
0
 10
242.196
 20
-0.49202
 11
242.128
 21
-0.73056
  0
LINE
  8
0
 10
242.128
 20
-0.73056
 11
242.035
 21
-0.960236
  0
LINE
  8
0
 10
242.035
 20
-0.960236
 11
241.917
 21
-1.17825
  0
LINE
  8
0
 10
241.917
 20
-1.17825
 11
241.776
 21
-1.38197
  0
LINE
  8
0
 10
241.776
 20
-1.38197
 11
241.613
 21
-1.56891
  0
LINE
  8
0
 10
241.613
 20
-1.56891
 11
241.43
 21
-1.7368
  0
LINE
  8
0
 10
241.43
 20
-1.7368
 11
241.231
 21
-1.88362
  0
LINE
  8
0
 10
241.231
 20
-1.88362
 11
241.016
 21
-2.00757
  0
LINE
  8
0
 10
241.016
 20
-2.00757
 11
240.789
 21
-2.10715
  0
LINE
  8
0
 10
240.789
 20
-2.10715
 11
240.552
 21
-2.18114
  0
LINE
  8
0
 10
240.552
 20
-2.18114
 11
240.309
 21
-2.22867
  0
LINE
  8
0
 10
240.309
 20
-2.22867
 11
240.062
 21
-2.24915
  0
LINE
  8
0
 10
240.062
 20
-2.24915
 11
239.814
 21
-2.24231
  0
LINE
  8
0
 10
-240.309
 20
-2.22867
 11
-240.552
 21
-2.18114
  0
LINE
  8
0
 10
-240.552
 20
-2.18114
 11
-240.789
 21
-2.10715
  0
LINE
  8
0
 10
-240.789
 20
-2.10715
 11
-241.016
 21
-2.00757
  0
LINE
  8
0
 10
-241.016
 20
-2.00757
 11
-241.231
 21
-1.88362
  0
LINE
  8
0
 10
-241.231
 20
-1.88362
 11
-241.43
 21
-1.7368
  0
LINE
  8
0
 10
-241.43
 20
-1.7368
 11
-241.613
 21
-1.56891
  0
LINE
  8
0
 10
-241.613
 20
-1.56891
 11
-241.776
 21
-1.38197
  0
LINE
  8
0
 10
-241.776
 20
-1.38197
 11
-241.917
 21
-1.17825
  0
LINE
  8
0
 10
-241.917
 20
-1.17825
 11
-242.035
 21
-0.960236
  0
LINE
  8
0
 10
-242.035
 20
-0.960236
 11
-242.128
 21
-0.73056
  0
LINE
  8
0
 10
-242.128
 20
-0.73056
 11
-242.196
 21
-0.49202
  0
LINE
  8
0
 10
-242.196
 20
-0.49202
 11
-242.236
 21
-0.247513
  0
LINE
  8
0
 10
-242.236
 20
-0.247513
 11
-242.25
 21
0
  0
LINE
  8
0
 10
-242.25
 20
0
 11
-242.236
 21
0.247513
  0
LINE
  8
0
 10
-242.236
 20
0.247513
 11
-242.196
 21
0.49202
  0
LINE
  8
0
 10
-242.196
 20
0.49202
 11
-242.128
 21
0.73056
  0
LINE
  8
0
 10
-242.128
 20
0.73056
 11
-242.035
 21
0.960236
  0
LINE
  8
0
 10
-242.035
 20
0.960236
 11
-241.917
 21
1.17825
  0
LINE
  8
0
 10
-241.917
 20
1.17825
 11
-241.776
 21
1.38197
  0
LINE
  8
0
 10
-241.776
 20
1.38197
 11
-241.613
 21
1.56891
  0
LINE
  8
0
 10
-241.613
 20
1.56891
 11
-241.43
 21
1.7368
  0
LINE
  8
0
 10
-241.43
 20
1.7368
 11
-241.231
 21
1.88362
  0
LINE
  8
0
 10
-241.231
 20
1.88362
 11
-241.016
 21
2.00757
  0
LINE
  8
0
 10
-241.016
 20
2.00757
 11
-240.789
 21
2.10715
  0
LINE
  8
0
 10
-240.789
 20
2.10715
 11
-240.552
 21
2.18114
  0
LINE
  8
0
 10
-240.552
 20
2.18114
 11
-240.309
 21
2.22867
  0
LINE
  8
0
 10
-240.309
 20
2.22867
 11
-240.062
 21
2.24915
  0
LINE
  8
0
 10
-240.062
 20
2.24915
 11
-239.814
 21
2.24231
  0
LINE
  8
0
 10
-239.814
 20
2.24231
 11
-239.569
 21
2.20825
  0
LINE
  8
0
 10
-239.569
 20
2.20825
 11
-239.328
 21
2.1474
  0
LINE
  8
0
 10
-239.328
 20
2.1474
 11
-239.096
 21
2.06049
  0
LINE
  8
0
 10
-239.096
 20
2.06049
 11
-238.875
 21
1.94855
  0
LINE
  8
0
 10
-238.875
 20
1.94855
 11
-238.667
 21
1.81296
  0
LINE
  8
0
 10
-238.667
 20
1.81296
 11
-238.476
 21
1.65536
  0
LINE
  8
0
 10
-238.476
 20
1.65536
 11
-238.303
 21
1.47769
  0
LINE
  8
0
 10
-238.303
 20
1.47769
 11
-238.151
 21
1.28206
  0
LINE
  8
0
 10
-238.151
 20
1.28206
 11
-238.021
 21
1.07088
  0
LINE
  8
0
 10
-238.021
 20
1.07088
 11
-237.915
 21
0.846695
  0
LINE
  8
0
 10
-237.915
 20
0.846695
 11
-237.835
 21
0.612228
  0
LINE
  8
0
 10
-237.835
 20
0.612228
 11
-237.781
 21
0.370331
  0
LINE
  8
0
 10
-237.781
 20
0.370331
 11
-237.753
 21
0.123947
  0
LINE
  8
0
 10
-237.753
 20
0.123947
 11
-237.753
 21
-0.123947
  0
LINE
  8
0
 10
-237.753
 20
-0.123947
 11
-237.781
 21
-0.370331
  0
LINE
  8
0
 10
-237.781
 20
-0.370331
 11
-237.835
 21
-0.612228
  0
LINE
  8
0
 10
-237.835
 20
-0.612228
 11
-237.915
 21
-0.846695
  0
LINE
  8
0
 10
-237.915
 20
-0.846695
 11
-238.021
 21
-1.07088
  0
LINE
  8
0
 10
-238.021
 20
-1.07088
 11
-238.151
 21
-1.28206
  0
LINE
  8
0
 10
-238.151
 20
-1.28206
 11
-238.303
 21
-1.47769
  0
LINE
  8
0
 10
-238.303
 20
-1.47769
 11
-238.476
 21
-1.65536
  0
LINE
  8
0
 10
-238.476
 20
-1.65536
 11
-238.667
 21
-1.81296
  0
LINE
  8
0
 10
-238.667
 20
-1.81296
 11
-238.875
 21
-1.94855
  0
LINE
  8
0
 10
-238.875
 20
-1.94855
 11
-239.096
 21
-2.06049
  0
LINE
  8
0
 10
-239.096
 20
-2.06049
 11
-239.328
 21
-2.1474
  0
LINE
  8
0
 10
-239.328
 20
-2.1474
 11
-239.569
 21
-2.20825
  0
LINE
  8
0
 10
-239.569
 20
-2.20825
 11
-239.814
 21
-2.24231
  0
LINE
  8
0
 10
-239.814
 20
-2.24231
 11
-240.062
 21
-2.24915
  0
LINE
  8
0
 10
-240.062
 20
-2.24915
 11
-240.309
 21
-2.22867
  0
LINE
  8
0
 10
179.814
 20
-2.24231
 11
179.569
 21
-2.20825
  0
LINE
  8
0
 10
179.569
 20
-2.20825
 11
179.328
 21
-2.1474
  0
LINE
  8
0
 10
179.328
 20
-2.1474
 11
179.096
 21
-2.06049
  0
LINE
  8
0
 10
179.096
 20
-2.06049
 11
178.875
 21
-1.94855
  0
LINE
  8
0
 10
178.875
 20
-1.94855
 11
178.667
 21
-1.81296
  0
LINE
  8
0
 10
178.667
 20
-1.81296
 11
178.476
 21
-1.65536
  0
LINE
  8
0
 10
178.476
 20
-1.65536
 11
178.303
 21
-1.47769
  0
LINE
  8
0
 10
178.303
 20
-1.47769
 11
178.151
 21
-1.28206
  0
LINE
  8
0
 10
178.151
 20
-1.28206
 11
178.021
 21
-1.07088
  0
LINE
  8
0
 10
178.021
 20
-1.07088
 11
177.915
 21
-0.846695
  0
LINE
  8
0
 10
177.915
 20
-0.846695
 11
177.835
 21
-0.612228
  0
LINE
  8
0
 10
177.835
 20
-0.612228
 11
177.781
 21
-0.370331
  0
LINE
  8
0
 10
177.781
 20
-0.370331
 11
177.753
 21
-0.123947
  0
LINE
  8
0
 10
177.753
 20
-0.123947
 11
177.753
 21
0.123947
  0
LINE
  8
0
 10
177.753
 20
0.123947
 11
177.781
 21
0.370331
  0
LINE
  8
0
 10
177.781
 20
0.370331
 11
177.835
 21
0.612228
  0
LINE
  8
0
 10
177.835
 20
0.612228
 11
177.915
 21
0.846695
  0
LINE
  8
0
 10
177.915
 20
0.846695
 11
178.021
 21
1.07088
  0
LINE
  8
0
 10
178.021
 20
1.07088
 11
178.151
 21
1.28206
  0
LINE
  8
0
 10
178.151
 20
1.28206
 11
178.303
 21
1.47769
  0
LINE
  8
0
 10
178.303
 20
1.47769
 11
178.476
 21
1.65536
  0
LINE
  8
0
 10
178.476
 20
1.65536
 11
178.667
 21
1.81296
  0
LINE
  8
0
 10
178.667
 20
1.81296
 11
178.875
 21
1.94855
  0
LINE
  8
0
 10
178.875
 20
1.94855
 11
179.096
 21
2.06049
  0
LINE
  8
0
 10
179.096
 20
2.06049
 11
179.328
 21
2.1474
  0
LINE
  8
0
 10
179.328
 20
2.1474
 11
179.569
 21
2.20825
  0
LINE
  8
0
 10
179.569
 20
2.20825
 11
179.814
 21
2.24231
  0
LINE
  8
0
 10
179.814
 20
2.24231
 11
180.062
 21
2.24915
  0
LINE
  8
0
 10
180.062
 20
2.24915
 11
180.309
 21
2.22867
  0
LINE
  8
0
 10
180.309
 20
2.22867
 11
180.552
 21
2.18114
  0
LINE
  8
0
 10
180.552
 20
2.18114
 11
180.789
 21
2.10715
  0
LINE
  8
0
 10
180.789
 20
2.10715
 11
181.016
 21
2.00757
  0
LINE
  8
0
 10
181.016
 20
2.00757
 11
181.231
 21
1.88362
  0
LINE
  8
0
 10
181.231
 20
1.88362
 11
181.43
 21
1.7368
  0
LINE
  8
0
 10
181.43
 20
1.7368
 11
181.613
 21
1.56891
  0
LINE
  8
0
 10
181.613
 20
1.56891
 11
181.776
 21
1.38197
  0
LINE
  8
0
 10
181.776
 20
1.38197
 11
181.917
 21
1.17825
  0
LINE
  8
0
 10
181.917
 20
1.17825
 11
182.035
 21
0.960236
  0
LINE
  8
0
 10
182.035
 20
0.960236
 11
182.128
 21
0.73056
  0
LINE
  8
0
 10
182.128
 20
0.73056
 11
182.196
 21
0.49202
  0
LINE
  8
0
 10
182.196
 20
0.49202
 11
182.236
 21
0.247513
  0
LINE
  8
0
 10
182.236
 20
0.247513
 11
182.25
 21
0
  0
LINE
  8
0
 10
182.25
 20
0
 11
182.236
 21
-0.247513
  0
LINE
  8
0
 10
182.236
 20
-0.247513
 11
182.196
 21
-0.49202
  0
LINE
  8
0
 10
182.196
 20
-0.49202
 11
182.128
 21
-0.73056
  0
LINE
  8
0
 10
182.128
 20
-0.73056
 11
182.035
 21
-0.960236
  0
LINE
  8
0
 10
182.035
 20
-0.960236
 11
181.917
 21
-1.17825
  0
LINE
  8
0
 10
181.917
 20
-1.17825
 11
181.776
 21
-1.38197
  0
LINE
  8
0
 10
181.776
 20
-1.38197
 11
181.613
 21
-1.56891
  0
LINE
  8
0
 10
181.613
 20
-1.56891
 11
181.43
 21
-1.7368
  0
LINE
  8
0
 10
181.43
 20
-1.7368
 11
181.231
 21
-1.88362
  0
LINE
  8
0
 10
181.231
 20
-1.88362
 11
181.016
 21
-2.00757
  0
LINE
  8
0
 10
181.016
 20
-2.00757
 11
180.789
 21
-2.10715
  0
LINE
  8
0
 10
180.789
 20
-2.10715
 11
180.552
 21
-2.18114
  0
LINE
  8
0
 10
180.552
 20
-2.18114
 11
180.309
 21
-2.22867
  0
LINE
  8
0
 10
180.309
 20
-2.22867
 11
180.062
 21
-2.24915
  0
LINE
  8
0
 10
180.062
 20
-2.24915
 11
179.814
 21
-2.24231
  0
LINE
  8
0
 10
208.798
 20
-23.937
 11
207.609
 21
-23.7487
  0
LINE
  8
0
 10
207.609
 20
-23.7487
 11
206.446
 21
-23.4371
  0
LINE
  8
0
 10
206.446
 20
-23.4371
 11
205.323
 21
-23.0058
  0
LINE
  8
0
 10
205.323
 20
-23.0058
 11
204.25
 21
-22.4593
  0
LINE
  8
0
 10
204.25
 20
-22.4593
 11
203.24
 21
-21.8037
  0
LINE
  8
0
 10
203.24
 20
-21.8037
 11
202.305
 21
-21.0462
  0
LINE
  8
0
 10
202.305
 20
-21.0462
 11
201.454
 21
-20.195
  0
LINE
  8
0
 10
201.454
 20
-20.195
 11
200.696
 21
-19.2595
  0
LINE
  8
0
 10
200.696
 20
-19.2595
 11
200.041
 21
-18.25
  0
LINE
  8
0
 10
200.041
 20
-18.25
 11
199.494
 21
-17.1775
  0
LINE
  8
0
 10
199.494
 20
-17.1775
 11
199.063
 21
-16.0537
  0
LINE
  8
0
 10
199.063
 20
-16.0537
 11
198.751
 21
-14.891
  0
LINE
  8
0
 10
198.751
 20
-14.891
 11
198.563
 21
-13.7021
  0
LINE
  8
0
 10
198.563
 20
-13.7021
 11
198.5
 21
-12.5
  0
LINE
  8
0
 10
198.5
 20
-12.5
 11
198.563
 21
-11.2979
  0
LINE
  8
0
 10
198.563
 20
-11.2979
 11
198.751
 21
-10.109
  0
LINE
  8
0
 10
198.751
 20
-10.109
 11
199.063
 21
-8.9463
  0
LINE
  8
0
 10
199.063
 20
-8.9463
 11
199.494
 21
-7.82253
  0
LINE
  8
0
 10
199.494
 20
-7.82253
 11
200.041
 21
-6.75
  0
LINE
  8
0
 10
200.041
 20
-6.75
 11
200.696
 21
-5.74046
  0
LINE
  8
0
 10
200.696
 20
-5.74046
 11
201.454
 21
-4.80499
  0
LINE
  8
0
 10
201.454
 20
-4.80499
 11
202.305
 21
-3.95383
  0
LINE
  8
0
 10
202.305
 20
-3.95383
 11
203.24
 21
-3.1963
  0
LINE
  8
0
 10
203.24
 20
-3.1963
 11
204.25
 21
-2.5407
  0
LINE
  8
0
 10
204.25
 20
-2.5407
 11
205.323
 21
-1.99422
  0
LINE
  8
0
 10
205.323
 20
-1.99422
 11
206.446
 21
-1.56285
  0
LINE
  8
0
 10
206.446
 20
-1.56285
 11
207.609
 21
-1.2513
  0
LINE
  8
0
 10
207.609
 20
-1.2513
 11
208.798
 21
-1.06299
  0
LINE
  8
0
 10
208.798
 20
-1.06299
 11
210
 21
-1
  0
LINE
  8
0
 10
210
 20
-1
 11
211.202
 21
-1.06299
  0
LINE
  8
0
 10
211.202
 20
-1.06299
 11
212.391
 21
-1.2513
  0
LINE
  8
0
 10
212.391
 20
-1.2513
 11
213.554
 21
-1.56285
  0
LINE
  8
0
 10
213.554
 20
-1.56285
 11
214.677
 21
-1.99422
  0
LINE
  8
0
 10
214.677
 20
-1.99422
 11
215.75
 21
-2.5407
  0
LINE
  8
0
 10
215.75
 20
-2.5407
 11
216.76
 21
-3.1963
  0
LINE
  8
0
 10
216.76
 20
-3.1963
 11
217.695
 21
-3.95383
  0
LINE
  8
0
 10
217.695
 20
-3.95383
 11
218.546
 21
-4.80499
  0
LINE
  8
0
 10
218.546
 20
-4.80499
 11
219.304
 21
-5.74046
  0
LINE
  8
0
 10
219.304
 20
-5.74046
 11
219.959
 21
-6.75
  0
LINE
  8
0
 10
219.959
 20
-6.75
 11
220.506
 21
-7.82253
  0
LINE
  8
0
 10
220.506
 20
-7.82253
 11
220.937
 21
-8.9463
  0
LINE
  8
0
 10
220.937
 20
-8.9463
 11
221.249
 21
-10.109
  0
LINE
  8
0
 10
221.249
 20
-10.109
 11
221.437
 21
-11.2979
  0
LINE
  8
0
 10
221.437
 20
-11.2979
 11
221.5
 21
-12.5
  0
LINE
  8
0
 10
221.5
 20
-12.5
 11
221.437
 21
-13.7021
  0
LINE
  8
0
 10
221.437
 20
-13.7021
 11
221.249
 21
-14.891
  0
LINE
  8
0
 10
221.249
 20
-14.891
 11
220.937
 21
-16.0537
  0
LINE
  8
0
 10
220.937
 20
-16.0537
 11
220.506
 21
-17.1775
  0
LINE
  8
0
 10
220.506
 20
-17.1775
 11
219.959
 21
-18.25
  0
LINE
  8
0
 10
219.959
 20
-18.25
 11
219.304
 21
-19.2595
  0
LINE
  8
0
 10
219.304
 20
-19.2595
 11
218.546
 21
-20.195
  0
LINE
  8
0
 10
218.546
 20
-20.195
 11
217.695
 21
-21.0462
  0
LINE
  8
0
 10
217.695
 20
-21.0462
 11
216.76
 21
-21.8037
  0
LINE
  8
0
 10
216.76
 20
-21.8037
 11
215.75
 21
-22.4593
  0
LINE
  8
0
 10
215.75
 20
-22.4593
 11
214.677
 21
-23.0058
  0
LINE
  8
0
 10
214.677
 20
-23.0058
 11
213.554
 21
-23.4371
  0
LINE
  8
0
 10
213.554
 20
-23.4371
 11
212.391
 21
-23.7487
  0
LINE
  8
0
 10
212.391
 20
-23.7487
 11
211.202
 21
-23.937
  0
LINE
  8
0
 10
211.202
 20
-23.937
 11
210
 21
-24
  0
LINE
  8
0
 10
210
 20
-24
 11
208.798
 21
-23.937
  0
LINE
  8
0
 10
225.377
 20
-29.6454
 11
225.133
 21
-29.6086
  0
LINE
  8
0
 10
225.133
 20
-29.6086
 11
224.897
 21
-29.5359
  0
LINE
  8
0
 10
224.897
 20
-29.5359
 11
224.675
 21
-29.4289
  0
LINE
  8
0
 10
224.675
 20
-29.4289
 11
224.471
 21
-29.29
  0
LINE
  8
0
 10
224.471
 20
-29.29
 11
224.29
 21
-29.1223
  0
LINE
  8
0
 10
224.29
 20
-29.1223
 11
224.137
 21
-28.9295
  0
LINE
  8
0
 10
224.137
 20
-28.9295
 11
224.013
 21
-28.7159
  0
LINE
  8
0
 10
224.013
 20
-28.7159
 11
223.923
 21
-28.4863
  0
LINE
  8
0
 10
223.923
 20
-28.4863
 11
223.868
 21
-28.2459
  0
LINE
  8
0
 10
223.868
 20
-28.2459
 11
223.85
 21
-28
  0
LINE
  8
0
 10
223.85
 20
-28
 11
223.868
 21
-27.7541
  0
LINE
  8
0
 10
223.868
 20
-27.7541
 11
223.923
 21
-27.5136
  0
LINE
  8
0
 10
223.923
 20
-27.5136
 11
224.013
 21
-27.2841
  0
LINE
  8
0
 10
224.013
 20
-27.2841
 11
224.137
 21
-27.0705
  0
LINE
  8
0
 10
224.137
 20
-27.0705
 11
224.29
 21
-26.8777
  0
LINE
  8
0
 10
224.29
 20
-26.8777
 11
224.471
 21
-26.71
  0
LINE
  8
0
 10
224.471
 20
-26.71
 11
224.675
 21
-26.571
  0
LINE
  8
0
 10
224.675
 20
-26.571
 11
224.897
 21
-26.4641
  0
LINE
  8
0
 10
224.897
 20
-26.4641
 11
225.133
 21
-26.3914
  0
LINE
  8
0
 10
225.133
 20
-26.3914
 11
225.377
 21
-26.3546
  0
LINE
  8
0
 10
225.377
 20
-26.3546
 11
225.623
 21
-26.3546
  0
LINE
  8
0
 10
225.623
 20
-26.3546
 11
225.867
 21
-26.3914
  0
LINE
  8
0
 10
225.867
 20
-26.3914
 11
226.103
 21
-26.4641
  0
LINE
  8
0
 10
226.103
 20
-26.4641
 11
226.325
 21
-26.571
  0
LINE
  8
0
 10
226.325
 20
-26.571
 11
226.529
 21
-26.71
  0
LINE
  8
0
 10
226.529
 20
-26.71
 11
226.71
 21
-26.8777
  0
LINE
  8
0
 10
226.71
 20
-26.8777
 11
226.863
 21
-27.0705
  0
LINE
  8
0
 10
226.863
 20
-27.0705
 11
226.987
 21
-27.2841
  0
LINE
  8
0
 10
226.987
 20
-27.2841
 11
227.077
 21
-27.5136
  0
LINE
  8
0
 10
227.077
 20
-27.5136
 11
227.132
 21
-27.7541
  0
LINE
  8
0
 10
227.132
 20
-27.7541
 11
227.15
 21
-28
  0
LINE
  8
0
 10
227.15
 20
-28
 11
227.132
 21
-28.2459
  0
LINE
  8
0
 10
227.132
 20
-28.2459
 11
227.077
 21
-28.4863
  0
LINE
  8
0
 10
227.077
 20
-28.4863
 11
226.987
 21
-28.7159
  0
LINE
  8
0
 10
226.987
 20
-28.7159
 11
226.863
 21
-28.9295
  0
LINE
  8
0
 10
226.863
 20
-28.9295
 11
226.71
 21
-29.1223
  0
LINE
  8
0
 10
226.71
 20
-29.1223
 11
226.529
 21
-29.29
  0
LINE
  8
0
 10
226.529
 20
-29.29
 11
226.325
 21
-29.4289
  0
LINE
  8
0
 10
226.325
 20
-29.4289
 11
226.103
 21
-29.5359
  0
LINE
  8
0
 10
226.103
 20
-29.5359
 11
225.867
 21
-29.6086
  0
LINE
  8
0
 10
225.867
 20
-29.6086
 11
225.623
 21
-29.6454
  0
LINE
  8
0
 10
225.623
 20
-29.6454
 11
225.377
 21
-29.6454
  0
LINE
  8
0
 10
194.377
 20
-29.6454
 11
194.133
 21
-29.6086
  0
LINE
  8
0
 10
194.133
 20
-29.6086
 11
193.897
 21
-29.5359
  0
LINE
  8
0
 10
193.897
 20
-29.5359
 11
193.675
 21
-29.4289
  0
LINE
  8
0
 10
193.675
 20
-29.4289
 11
193.471
 21
-29.29
  0
LINE
  8
0
 10
193.471
 20
-29.29
 11
193.29
 21
-29.1223
  0
LINE
  8
0
 10
193.29
 20
-29.1223
 11
193.137
 21
-28.9295
  0
LINE
  8
0
 10
193.137
 20
-28.9295
 11
193.013
 21
-28.7159
  0
LINE
  8
0
 10
193.013
 20
-28.7159
 11
192.923
 21
-28.4863
  0
LINE
  8
0
 10
192.923
 20
-28.4863
 11
192.868
 21
-28.2459
  0
LINE
  8
0
 10
192.868
 20
-28.2459
 11
192.85
 21
-28
  0
LINE
  8
0
 10
192.85
 20
-28
 11
192.868
 21
-27.7541
  0
LINE
  8
0
 10
192.868
 20
-27.7541
 11
192.923
 21
-27.5136
  0
LINE
  8
0
 10
192.923
 20
-27.5136
 11
193.013
 21
-27.2841
  0
LINE
  8
0
 10
193.013
 20
-27.2841
 11
193.137
 21
-27.0705
  0
LINE
  8
0
 10
193.137
 20
-27.0705
 11
193.29
 21
-26.8777
  0
LINE
  8
0
 10
193.29
 20
-26.8777
 11
193.471
 21
-26.71
  0
LINE
  8
0
 10
193.471
 20
-26.71
 11
193.675
 21
-26.571
  0
LINE
  8
0
 10
193.675
 20
-26.571
 11
193.897
 21
-26.4641
  0
LINE
  8
0
 10
193.897
 20
-26.4641
 11
194.133
 21
-26.3914
  0
LINE
  8
0
 10
194.133
 20
-26.3914
 11
194.377
 21
-26.3546
  0
LINE
  8
0
 10
194.377
 20
-26.3546
 11
194.623
 21
-26.3546
  0
LINE
  8
0
 10
194.623
 20
-26.3546
 11
194.867
 21
-26.3914
  0
LINE
  8
0
 10
194.867
 20
-26.3914
 11
195.103
 21
-26.4641
  0
LINE
  8
0
 10
195.103
 20
-26.4641
 11
195.325
 21
-26.571
  0
LINE
  8
0
 10
195.325
 20
-26.571
 11
195.529
 21
-26.71
  0
LINE
  8
0
 10
195.529
 20
-26.71
 11
195.71
 21
-26.8777
  0
LINE
  8
0
 10
195.71
 20
-26.8777
 11
195.863
 21
-27.0705
  0
LINE
  8
0
 10
195.863
 20
-27.0705
 11
195.987
 21
-27.2841
  0
LINE
  8
0
 10
195.987
 20
-27.2841
 11
196.077
 21
-27.5136
  0
LINE
  8
0
 10
196.077
 20
-27.5136
 11
196.132
 21
-27.7541
  0
LINE
  8
0
 10
196.132
 20
-27.7541
 11
196.15
 21
-28
  0
LINE
  8
0
 10
196.15
 20
-28
 11
196.132
 21
-28.2459
  0
LINE
  8
0
 10
196.132
 20
-28.2459
 11
196.077
 21
-28.4863
  0
LINE
  8
0
 10
196.077
 20
-28.4863
 11
195.987
 21
-28.7159
  0
LINE
  8
0
 10
195.987
 20
-28.7159
 11
195.863
 21
-28.9295
  0
LINE
  8
0
 10
195.863
 20
-28.9295
 11
195.71
 21
-29.1223
  0
LINE
  8
0
 10
195.71
 20
-29.1223
 11
195.529
 21
-29.29
  0
LINE
  8
0
 10
195.529
 20
-29.29
 11
195.325
 21
-29.4289
  0
LINE
  8
0
 10
195.325
 20
-29.4289
 11
195.103
 21
-29.5359
  0
LINE
  8
0
 10
195.103
 20
-29.5359
 11
194.867
 21
-29.6086
  0
LINE
  8
0
 10
194.867
 20
-29.6086
 11
194.623
 21
-29.6454
  0
LINE
  8
0
 10
194.623
 20
-29.6454
 11
194.377
 21
-29.6454
  0
LINE
  8
0
 10
239.814
 20
-98.4923
 11
239.569
 21
-98.4583
  0
LINE
  8
0
 10
239.569
 20
-98.4583
 11
239.328
 21
-98.3974
  0
LINE
  8
0
 10
239.328
 20
-98.3974
 11
239.096
 21
-98.3105
  0
LINE
  8
0
 10
239.096
 20
-98.3105
 11
238.875
 21
-98.1985
  0
LINE
  8
0
 10
238.875
 20
-98.1985
 11
238.667
 21
-98.063
  0
LINE
  8
0
 10
238.667
 20
-98.063
 11
238.476
 21
-97.9054
  0
LINE
  8
0
 10
238.476
 20
-97.9054
 11
238.303
 21
-97.7277
  0
LINE
  8
0
 10
238.303
 20
-97.7277
 11
238.151
 21
-97.5321
  0
LINE
  8
0
 10
238.151
 20
-97.5321
 11
238.021
 21
-97.3209
  0
LINE
  8
0
 10
238.021
 20
-97.3209
 11
237.915
 21
-97.0967
  0
LINE
  8
0
 10
237.915
 20
-97.0967
 11
237.835
 21
-96.8622
  0
LINE
  8
0
 10
237.835
 20
-96.8622
 11
237.781
 21
-96.6203
  0
LINE
  8
0
 10
237.781
 20
-96.6203
 11
237.753
 21
-96.3739
  0
LINE
  8
0
 10
237.753
 20
-96.3739
 11
237.753
 21
-96.1261
  0
LINE
  8
0
 10
237.753
 20
-96.1261
 11
237.781
 21
-95.8797
  0
LINE
  8
0
 10
237.781
 20
-95.8797
 11
237.835
 21
-95.6378
  0
LINE
  8
0
 10
237.835
 20
-95.6378
 11
237.915
 21
-95.4033
  0
LINE
  8
0
 10
237.915
 20
-95.4033
 11
238.021
 21
-95.1791
  0
LINE
  8
0
 10
238.021
 20
-95.1791
 11
238.151
 21
-94.9679
  0
LINE
  8
0
 10
238.151
 20
-94.9679
 11
238.303
 21
-94.7723
  0
LINE
  8
0
 10
238.303
 20
-94.7723
 11
238.476
 21
-94.5946
  0
LINE
  8
0
 10
238.476
 20
-94.5946
 11
238.667
 21
-94.437
  0
LINE
  8
0
 10
238.667
 20
-94.437
 11
238.875
 21
-94.3014
  0
LINE
  8
0
 10
238.875
 20
-94.3014
 11
239.096
 21
-94.1895
  0
LINE
  8
0
 10
239.096
 20
-94.1895
 11
239.328
 21
-94.1026
  0
LINE
  8
0
 10
239.328
 20
-94.1026
 11
239.569
 21
-94.0417
  0
LINE
  8
0
 10
239.569
 20
-94.0417
 11
239.814
 21
-94.0077
  0
LINE
  8
0
 10
239.814
 20
-94.0077
 11
240.062
 21
-94.0009
  0
LINE
  8
0
 10
240.062
 20
-94.0009
 11
240.309
 21
-94.0213
  0
LINE
  8
0
 10
240.309
 20
-94.0213
 11
240.552
 21
-94.0688
  0
LINE
  8
0
 10
240.552
 20
-94.0688
 11
240.789
 21
-94.1429
  0
LINE
  8
0
 10
240.789
 20
-94.1429
 11
241.016
 21
-94.2424
  0
LINE
  8
0
 10
241.016
 20
-94.2424
 11
241.231
 21
-94.3664
  0
LINE
  8
0
 10
241.231
 20
-94.3664
 11
241.43
 21
-94.5132
  0
LINE
  8
0
 10
241.43
 20
-94.5132
 11
241.613
 21
-94.6811
  0
LINE
  8
0
 10
241.613
 20
-94.6811
 11
241.776
 21
-94.868
  0
LINE
  8
0
 10
241.776
 20
-94.868
 11
241.917
 21
-95.0717
  0
LINE
  8
0
 10
241.917
 20
-95.0717
 11
242.035
 21
-95.2897
  0
LINE
  8
0
 10
242.035
 20
-95.2897
 11
242.128
 21
-95.5194
  0
LINE
  8
0
 10
242.128
 20
-95.5194
 11
242.196
 21
-95.758
  0
LINE
  8
0
 10
242.196
 20
-95.758
 11
242.236
 21
-96.0025
  0
LINE
  8
0
 10
242.236
 20
-96.0025
 11
242.25
 21
-96.25
  0
LINE
  8
0
 10
242.25
 20
-96.25
 11
242.236
 21
-96.4975
  0
LINE
  8
0
 10
242.236
 20
-96.4975
 11
242.196
 21
-96.742
  0
LINE
  8
0
 10
242.196
 20
-96.742
 11
242.128
 21
-96.9806
  0
LINE
  8
0
 10
242.128
 20
-96.9806
 11
242.035
 21
-97.2102
  0
LINE
  8
0
 10
242.035
 20
-97.2102
 11
241.917
 21
-97.4283
  0
LINE
  8
0
 10
241.917
 20
-97.4283
 11
241.776
 21
-97.632
  0
LINE
  8
0
 10
241.776
 20
-97.632
 11
241.613
 21
-97.8189
  0
LINE
  8
0
 10
241.613
 20
-97.8189
 11
241.43
 21
-97.9868
  0
LINE
  8
0
 10
241.43
 20
-97.9868
 11
241.231
 21
-98.1336
  0
LINE
  8
0
 10
241.231
 20
-98.1336
 11
241.016
 21
-98.2576
  0
LINE
  8
0
 10
241.016
 20
-98.2576
 11
240.789
 21
-98.3571
  0
LINE
  8
0
 10
240.789
 20
-98.3571
 11
240.552
 21
-98.4312
  0
LINE
  8
0
 10
240.552
 20
-98.4312
 11
240.309
 21
-98.4787
  0
LINE
  8
0
 10
240.309
 20
-98.4787
 11
240.062
 21
-98.4991
  0
LINE
  8
0
 10
240.062
 20
-98.4991
 11
239.814
 21
-98.4923
  0
LINE
  8
0
 10
-180.309
 20
-98.4787
 11
-180.552
 21
-98.4312
  0
LINE
  8
0
 10
-180.552
 20
-98.4312
 11
-180.789
 21
-98.3571
  0
LINE
  8
0
 10
-180.789
 20
-98.3571
 11
-181.016
 21
-98.2576
  0
LINE
  8
0
 10
-181.016
 20
-98.2576
 11
-181.231
 21
-98.1336
  0
LINE
  8
0
 10
-181.231
 20
-98.1336
 11
-181.43
 21
-97.9868
  0
LINE
  8
0
 10
-181.43
 20
-97.9868
 11
-181.613
 21
-97.8189
  0
LINE
  8
0
 10
-181.613
 20
-97.8189
 11
-181.776
 21
-97.632
  0
LINE
  8
0
 10
-181.776
 20
-97.632
 11
-181.917
 21
-97.4283
  0
LINE
  8
0
 10
-181.917
 20
-97.4283
 11
-182.035
 21
-97.2102
  0
LINE
  8
0
 10
-182.035
 20
-97.2102
 11
-182.128
 21
-96.9806
  0
LINE
  8
0
 10
-182.128
 20
-96.9806
 11
-182.196
 21
-96.742
  0
LINE
  8
0
 10
-182.196
 20
-96.742
 11
-182.236
 21
-96.4975
  0
LINE
  8
0
 10
-182.236
 20
-96.4975
 11
-182.25
 21
-96.25
  0
LINE
  8
0
 10
-182.25
 20
-96.25
 11
-182.236
 21
-96.0025
  0
LINE
  8
0
 10
-182.236
 20
-96.0025
 11
-182.196
 21
-95.758
  0
LINE
  8
0
 10
-182.196
 20
-95.758
 11
-182.128
 21
-95.5194
  0
LINE
  8
0
 10
-182.128
 20
-95.5194
 11
-182.035
 21
-95.2897
  0
LINE
  8
0
 10
-182.035
 20
-95.2897
 11
-181.917
 21
-95.0717
  0
LINE
  8
0
 10
-181.917
 20
-95.0717
 11
-181.776
 21
-94.868
  0
LINE
  8
0
 10
-181.776
 20
-94.868
 11
-181.613
 21
-94.6811
  0
LINE
  8
0
 10
-181.613
 20
-94.6811
 11
-181.43
 21
-94.5132
  0
LINE
  8
0
 10
-181.43
 20
-94.5132
 11
-181.231
 21
-94.3664
  0
LINE
  8
0
 10
-181.231
 20
-94.3664
 11
-181.016
 21
-94.2424
  0
LINE
  8
0
 10
-181.016
 20
-94.2424
 11
-180.789
 21
-94.1429
  0
LINE
  8
0
 10
-180.789
 20
-94.1429
 11
-180.552
 21
-94.0688
  0
LINE
  8
0
 10
-180.552
 20
-94.0688
 11
-180.309
 21
-94.0213
  0
LINE
  8
0
 10
-180.309
 20
-94.0213
 11
-180.062
 21
-94.0009
  0
LINE
  8
0
 10
-180.062
 20
-94.0009
 11
-179.814
 21
-94.0077
  0
LINE
  8
0
 10
-179.814
 20
-94.0077
 11
-179.569
 21
-94.0417
  0
LINE
  8
0
 10
-179.569
 20
-94.0417
 11
-179.328
 21
-94.1026
  0
LINE
  8
0
 10
-179.328
 20
-94.1026
 11
-179.096
 21
-94.1895
  0
LINE
  8
0
 10
-179.096
 20
-94.1895
 11
-178.875
 21
-94.3014
  0
LINE
  8
0
 10
-178.875
 20
-94.3014
 11
-178.667
 21
-94.437
  0
LINE
  8
0
 10
-178.667
 20
-94.437
 11
-178.476
 21
-94.5946
  0
LINE
  8
0
 10
-178.476
 20
-94.5946
 11
-178.303
 21
-94.7723
  0
LINE
  8
0
 10
-178.303
 20
-94.7723
 11
-178.151
 21
-94.9679
  0
LINE
  8
0
 10
-178.151
 20
-94.9679
 11
-178.021
 21
-95.1791
  0
LINE
  8
0
 10
-178.021
 20
-95.1791
 11
-177.915
 21
-95.4033
  0
LINE
  8
0
 10
-177.915
 20
-95.4033
 11
-177.835
 21
-95.6378
  0
LINE
  8
0
 10
-177.835
 20
-95.6378
 11
-177.781
 21
-95.8797
  0
LINE
  8
0
 10
-177.781
 20
-95.8797
 11
-177.753
 21
-96.1261
  0
LINE
  8
0
 10
-177.753
 20
-96.1261
 11
-177.753
 21
-96.3739
  0
LINE
  8
0
 10
-177.753
 20
-96.3739
 11
-177.781
 21
-96.6203
  0
LINE
  8
0
 10
-177.781
 20
-96.6203
 11
-177.835
 21
-96.8622
  0
LINE
  8
0
 10
-177.835
 20
-96.8622
 11
-177.915
 21
-97.0967
  0
LINE
  8
0
 10
-177.915
 20
-97.0967
 11
-178.021
 21
-97.3209
  0
LINE
  8
0
 10
-178.021
 20
-97.3209
 11
-178.151
 21
-97.5321
  0
LINE
  8
0
 10
-178.151
 20
-97.5321
 11
-178.303
 21
-97.7277
  0
LINE
  8
0
 10
-178.303
 20
-97.7277
 11
-178.476
 21
-97.9054
  0
LINE
  8
0
 10
-178.476
 20
-97.9054
 11
-178.667
 21
-98.063
  0
LINE
  8
0
 10
-178.667
 20
-98.063
 11
-178.875
 21
-98.1985
  0
LINE
  8
0
 10
-178.875
 20
-98.1985
 11
-179.096
 21
-98.3105
  0
LINE
  8
0
 10
-179.096
 20
-98.3105
 11
-179.328
 21
-98.3974
  0
LINE
  8
0
 10
-179.328
 20
-98.3974
 11
-179.569
 21
-98.4583
  0
LINE
  8
0
 10
-179.569
 20
-98.4583
 11
-179.814
 21
-98.4923
  0
LINE
  8
0
 10
-179.814
 20
-98.4923
 11
-180.062
 21
-98.4991
  0
LINE
  8
0
 10
-180.062
 20
-98.4991
 11
-180.309
 21
-98.4787
  0
LINE
  8
0
 10
179.814
 20
-98.4923
 11
179.569
 21
-98.4583
  0
LINE
  8
0
 10
179.569
 20
-98.4583
 11
179.328
 21
-98.3974
  0
LINE
  8
0
 10
179.328
 20
-98.3974
 11
179.096
 21
-98.3105
  0
LINE
  8
0
 10
179.096
 20
-98.3105
 11
178.875
 21
-98.1985
  0
LINE
  8
0
 10
178.875
 20
-98.1985
 11
178.667
 21
-98.063
  0
LINE
  8
0
 10
178.667
 20
-98.063
 11
178.476
 21
-97.9054
  0
LINE
  8
0
 10
178.476
 20
-97.9054
 11
178.303
 21
-97.7277
  0
LINE
  8
0
 10
178.303
 20
-97.7277
 11
178.151
 21
-97.5321
  0
LINE
  8
0
 10
178.151
 20
-97.5321
 11
178.021
 21
-97.3209
  0
LINE
  8
0
 10
178.021
 20
-97.3209
 11
177.915
 21
-97.0967
  0
LINE
  8
0
 10
177.915
 20
-97.0967
 11
177.835
 21
-96.8622
  0
LINE
  8
0
 10
177.835
 20
-96.8622
 11
177.781
 21
-96.6203
  0
LINE
  8
0
 10
177.781
 20
-96.6203
 11
177.753
 21
-96.3739
  0
LINE
  8
0
 10
177.753
 20
-96.3739
 11
177.753
 21
-96.1261
  0
LINE
  8
0
 10
177.753
 20
-96.1261
 11
177.781
 21
-95.8797
  0
LINE
  8
0
 10
177.781
 20
-95.8797
 11
177.835
 21
-95.6378
  0
LINE
  8
0
 10
177.835
 20
-95.6378
 11
177.915
 21
-95.4033
  0
LINE
  8
0
 10
177.915
 20
-95.4033
 11
178.021
 21
-95.1791
  0
LINE
  8
0
 10
178.021
 20
-95.1791
 11
178.151
 21
-94.9679
  0
LINE
  8
0
 10
178.151
 20
-94.9679
 11
178.303
 21
-94.7723
  0
LINE
  8
0
 10
178.303
 20
-94.7723
 11
178.476
 21
-94.5946
  0
LINE
  8
0
 10
178.476
 20
-94.5946
 11
178.667
 21
-94.437
  0
LINE
  8
0
 10
178.667
 20
-94.437
 11
178.875
 21
-94.3014
  0
LINE
  8
0
 10
178.875
 20
-94.3014
 11
179.096
 21
-94.1895
  0
LINE
  8
0
 10
179.096
 20
-94.1895
 11
179.328
 21
-94.1026
  0
LINE
  8
0
 10
179.328
 20
-94.1026
 11
179.569
 21
-94.0417
  0
LINE
  8
0
 10
179.569
 20
-94.0417
 11
179.814
 21
-94.0077
  0
LINE
  8
0
 10
179.814
 20
-94.0077
 11
180.062
 21
-94.0009
  0
LINE
  8
0
 10
180.062
 20
-94.0009
 11
180.309
 21
-94.0213
  0
LINE
  8
0
 10
180.309
 20
-94.0213
 11
180.552
 21
-94.0688
  0
LINE
  8
0
 10
180.552
 20
-94.0688
 11
180.789
 21
-94.1429
  0
LINE
  8
0
 10
180.789
 20
-94.1429
 11
181.016
 21
-94.2424
  0
LINE
  8
0
 10
181.016
 20
-94.2424
 11
181.231
 21
-94.3664
  0
LINE
  8
0
 10
181.231
 20
-94.3664
 11
181.43
 21
-94.5132
  0
LINE
  8
0
 10
181.43
 20
-94.5132
 11
181.613
 21
-94.6811
  0
LINE
  8
0
 10
181.613
 20
-94.6811
 11
181.776
 21
-94.868
  0
LINE
  8
0
 10
181.776
 20
-94.868
 11
181.917
 21
-95.0717
  0
LINE
  8
0
 10
181.917
 20
-95.0717
 11
182.035
 21
-95.2897
  0
LINE
  8
0
 10
182.035
 20
-95.2897
 11
182.128
 21
-95.5194
  0
LINE
  8
0
 10
182.128
 20
-95.5194
 11
182.196
 21
-95.758
  0
LINE
  8
0
 10
182.196
 20
-95.758
 11
182.236
 21
-96.0025
  0
LINE
  8
0
 10
182.236
 20
-96.0025
 11
182.25
 21
-96.25
  0
LINE
  8
0
 10
182.25
 20
-96.25
 11
182.236
 21
-96.4975
  0
LINE
  8
0
 10
182.236
 20
-96.4975
 11
182.196
 21
-96.742
  0
LINE
  8
0
 10
182.196
 20
-96.742
 11
182.128
 21
-96.9806
  0
LINE
  8
0
 10
182.128
 20
-96.9806
 11
182.035
 21
-97.2102
  0
LINE
  8
0
 10
182.035
 20
-97.2102
 11
181.917
 21
-97.4283
  0
LINE
  8
0
 10
181.917
 20
-97.4283
 11
181.776
 21
-97.632
  0
LINE
  8
0
 10
181.776
 20
-97.632
 11
181.613
 21
-97.8189
  0
LINE
  8
0
 10
181.613
 20
-97.8189
 11
181.43
 21
-97.9868
  0
LINE
  8
0
 10
181.43
 20
-97.9868
 11
181.231
 21
-98.1336
  0
LINE
  8
0
 10
181.231
 20
-98.1336
 11
181.016
 21
-98.2576
  0
LINE
  8
0
 10
181.016
 20
-98.2576
 11
180.789
 21
-98.3571
  0
LINE
  8
0
 10
180.789
 20
-98.3571
 11
180.552
 21
-98.4312
  0
LINE
  8
0
 10
180.552
 20
-98.4312
 11
180.309
 21
-98.4787
  0
LINE
  8
0
 10
180.309
 20
-98.4787
 11
180.062
 21
-98.4991
  0
LINE
  8
0
 10
180.062
 20
-98.4991
 11
179.814
 21
-98.4923
  0
LINE
  8
0
 10
-240.309
 20
-98.4787
 11
-240.552
 21
-98.4312
  0
LINE
  8
0
 10
-240.552
 20
-98.4312
 11
-240.789
 21
-98.3571
  0
LINE
  8
0
 10
-240.789
 20
-98.3571
 11
-241.016
 21
-98.2576
  0
LINE
  8
0
 10
-241.016
 20
-98.2576
 11
-241.231
 21
-98.1336
  0
LINE
  8
0
 10
-241.231
 20
-98.1336
 11
-241.43
 21
-97.9868
  0
LINE
  8
0
 10
-241.43
 20
-97.9868
 11
-241.613
 21
-97.8189
  0
LINE
  8
0
 10
-241.613
 20
-97.8189
 11
-241.776
 21
-97.632
  0
LINE
  8
0
 10
-241.776
 20
-97.632
 11
-241.917
 21
-97.4283
  0
LINE
  8
0
 10
-241.917
 20
-97.4283
 11
-242.035
 21
-97.2102
  0
LINE
  8
0
 10
-242.035
 20
-97.2102
 11
-242.128
 21
-96.9806
  0
LINE
  8
0
 10
-242.128
 20
-96.9806
 11
-242.196
 21
-96.742
  0
LINE
  8
0
 10
-242.196
 20
-96.742
 11
-242.236
 21
-96.4975
  0
LINE
  8
0
 10
-242.236
 20
-96.4975
 11
-242.25
 21
-96.25
  0
LINE
  8
0
 10
-242.25
 20
-96.25
 11
-242.236
 21
-96.0025
  0
LINE
  8
0
 10
-242.236
 20
-96.0025
 11
-242.196
 21
-95.758
  0
LINE
  8
0
 10
-242.196
 20
-95.758
 11
-242.128
 21
-95.5194
  0
LINE
  8
0
 10
-242.128
 20
-95.5194
 11
-242.035
 21
-95.2897
  0
LINE
  8
0
 10
-242.035
 20
-95.2897
 11
-241.917
 21
-95.0717
  0
LINE
  8
0
 10
-241.917
 20
-95.0717
 11
-241.776
 21
-94.868
  0
LINE
  8
0
 10
-241.776
 20
-94.868
 11
-241.613
 21
-94.6811
  0
LINE
  8
0
 10
-241.613
 20
-94.6811
 11
-241.43
 21
-94.5132
  0
LINE
  8
0
 10
-241.43
 20
-94.5132
 11
-241.231
 21
-94.3664
  0
LINE
  8
0
 10
-241.231
 20
-94.3664
 11
-241.016
 21
-94.2424
  0
LINE
  8
0
 10
-241.016
 20
-94.2424
 11
-240.789
 21
-94.1429
  0
LINE
  8
0
 10
-240.789
 20
-94.1429
 11
-240.552
 21
-94.0688
  0
LINE
  8
0
 10
-240.552
 20
-94.0688
 11
-240.309
 21
-94.0213
  0
LINE
  8
0
 10
-240.309
 20
-94.0213
 11
-240.062
 21
-94.0009
  0
LINE
  8
0
 10
-240.062
 20
-94.0009
 11
-239.814
 21
-94.0077
  0
LINE
  8
0
 10
-239.814
 20
-94.0077
 11
-239.569
 21
-94.0417
  0
LINE
  8
0
 10
-239.569
 20
-94.0417
 11
-239.328
 21
-94.1026
  0
LINE
  8
0
 10
-239.328
 20
-94.1026
 11
-239.096
 21
-94.1895
  0
LINE
  8
0
 10
-239.096
 20
-94.1895
 11
-238.875
 21
-94.3014
  0
LINE
  8
0
 10
-238.875
 20
-94.3014
 11
-238.667
 21
-94.437
  0
LINE
  8
0
 10
-238.667
 20
-94.437
 11
-238.476
 21
-94.5946
  0
LINE
  8
0
 10
-238.476
 20
-94.5946
 11
-238.303
 21
-94.7723
  0
LINE
  8
0
 10
-238.303
 20
-94.7723
 11
-238.151
 21
-94.9679
  0
LINE
  8
0
 10
-238.151
 20
-94.9679
 11
-238.021
 21
-95.1791
  0
LINE
  8
0
 10
-238.021
 20
-95.1791
 11
-237.915
 21
-95.4033
  0
LINE
  8
0
 10
-237.915
 20
-95.4033
 11
-237.835
 21
-95.6378
  0
LINE
  8
0
 10
-237.835
 20
-95.6378
 11
-237.781
 21
-95.8797
  0
LINE
  8
0
 10
-237.781
 20
-95.8797
 11
-237.753
 21
-96.1261
  0
LINE
  8
0
 10
-237.753
 20
-96.1261
 11
-237.753
 21
-96.3739
  0
LINE
  8
0
 10
-237.753
 20
-96.3739
 11
-237.781
 21
-96.6203
  0
LINE
  8
0
 10
-237.781
 20
-96.6203
 11
-237.835
 21
-96.8622
  0
LINE
  8
0
 10
-237.835
 20
-96.8622
 11
-237.915
 21
-97.0967
  0
LINE
  8
0
 10
-237.915
 20
-97.0967
 11
-238.021
 21
-97.3209
  0
LINE
  8
0
 10
-238.021
 20
-97.3209
 11
-238.151
 21
-97.5321
  0
LINE
  8
0
 10
-238.151
 20
-97.5321
 11
-238.303
 21
-97.7277
  0
LINE
  8
0
 10
-238.303
 20
-97.7277
 11
-238.476
 21
-97.9054
  0
LINE
  8
0
 10
-238.476
 20
-97.9054
 11
-238.667
 21
-98.063
  0
LINE
  8
0
 10
-238.667
 20
-98.063
 11
-238.875
 21
-98.1985
  0
LINE
  8
0
 10
-238.875
 20
-98.1985
 11
-239.096
 21
-98.3105
  0
LINE
  8
0
 10
-239.096
 20
-98.3105
 11
-239.328
 21
-98.3974
  0
LINE
  8
0
 10
-239.328
 20
-98.3974
 11
-239.569
 21
-98.4583
  0
LINE
  8
0
 10
-239.569
 20
-98.4583
 11
-239.814
 21
-98.4923
  0
LINE
  8
0
 10
-239.814
 20
-98.4923
 11
-240.062
 21
-98.4991
  0
LINE
  8
0
 10
-240.062
 20
-98.4991
 11
-240.309
 21
-98.4787
  0
LINE
  8
0
 10
-194.623
 20
-126.145
 11
-194.867
 21
-126.109
  0
LINE
  8
0
 10
-194.867
 20
-126.109
 11
-195.103
 21
-126.036
  0
LINE
  8
0
 10
-195.103
 20
-126.036
 11
-195.325
 21
-125.929
  0
LINE
  8
0
 10
-195.325
 20
-125.929
 11
-195.529
 21
-125.79
  0
LINE
  8
0
 10
-195.529
 20
-125.79
 11
-195.71
 21
-125.622
  0
LINE
  8
0
 10
-195.71
 20
-125.622
 11
-195.863
 21
-125.429
  0
LINE
  8
0
 10
-195.863
 20
-125.429
 11
-195.987
 21
-125.216
  0
LINE
  8
0
 10
-195.987
 20
-125.216
 11
-196.077
 21
-124.986
  0
LINE
  8
0
 10
-196.077
 20
-124.986
 11
-196.132
 21
-124.746
  0
LINE
  8
0
 10
-196.132
 20
-124.746
 11
-196.15
 21
-124.5
  0
LINE
  8
0
 10
-196.15
 20
-124.5
 11
-196.132
 21
-124.254
  0
LINE
  8
0
 10
-196.132
 20
-124.254
 11
-196.077
 21
-124.014
  0
LINE
  8
0
 10
-196.077
 20
-124.014
 11
-195.987
 21
-123.784
  0
LINE
  8
0
 10
-195.987
 20
-123.784
 11
-195.863
 21
-123.571
  0
LINE
  8
0
 10
-195.863
 20
-123.571
 11
-195.71
 21
-123.378
  0
LINE
  8
0
 10
-195.71
 20
-123.378
 11
-195.529
 21
-123.21
  0
LINE
  8
0
 10
-195.529
 20
-123.21
 11
-195.325
 21
-123.071
  0
LINE
  8
0
 10
-195.325
 20
-123.071
 11
-195.103
 21
-122.964
  0
LINE
  8
0
 10
-195.103
 20
-122.964
 11
-194.867
 21
-122.891
  0
LINE
  8
0
 10
-194.867
 20
-122.891
 11
-194.623
 21
-122.855
  0
LINE
  8
0
 10
-194.623
 20
-122.855
 11
-194.377
 21
-122.855
  0
LINE
  8
0
 10
-194.377
 20
-122.855
 11
-194.133
 21
-122.891
  0
LINE
  8
0
 10
-194.133
 20
-122.891
 11
-193.897
 21
-122.964
  0
LINE
  8
0
 10
-193.897
 20
-122.964
 11
-193.675
 21
-123.071
  0
LINE
  8
0
 10
-193.675
 20
-123.071
 11
-193.471
 21
-123.21
  0
LINE
  8
0
 10
-193.471
 20
-123.21
 11
-193.29
 21
-123.378
  0
LINE
  8
0
 10
-193.29
 20
-123.378
 11
-193.137
 21
-123.571
  0
LINE
  8
0
 10
-193.137
 20
-123.571
 11
-193.013
 21
-123.784
  0
LINE
  8
0
 10
-193.013
 20
-123.784
 11
-192.923
 21
-124.014
  0
LINE
  8
0
 10
-192.923
 20
-124.014
 11
-192.868
 21
-124.254
  0
LINE
  8
0
 10
-192.868
 20
-124.254
 11
-192.85
 21
-124.5
  0
LINE
  8
0
 10
-192.85
 20
-124.5
 11
-192.868
 21
-124.746
  0
LINE
  8
0
 10
-192.868
 20
-124.746
 11
-192.923
 21
-124.986
  0
LINE
  8
0
 10
-192.923
 20
-124.986
 11
-193.013
 21
-125.216
  0
LINE
  8
0
 10
-193.013
 20
-125.216
 11
-193.137
 21
-125.429
  0
LINE
  8
0
 10
-193.137
 20
-125.429
 11
-193.29
 21
-125.622
  0
LINE
  8
0
 10
-193.29
 20
-125.622
 11
-193.471
 21
-125.79
  0
LINE
  8
0
 10
-193.471
 20
-125.79
 11
-193.675
 21
-125.929
  0
LINE
  8
0
 10
-193.675
 20
-125.929
 11
-193.897
 21
-126.036
  0
LINE
  8
0
 10
-193.897
 20
-126.036
 11
-194.133
 21
-126.109
  0
LINE
  8
0
 10
-194.133
 20
-126.109
 11
-194.377
 21
-126.145
  0
LINE
  8
0
 10
-194.377
 20
-126.145
 11
-194.623
 21
-126.145
  0
LINE
  8
0
 10
-225.623
 20
-126.145
 11
-225.867
 21
-126.109
  0
LINE
  8
0
 10
-225.867
 20
-126.109
 11
-226.103
 21
-126.036
  0
LINE
  8
0
 10
-226.103
 20
-126.036
 11
-226.325
 21
-125.929
  0
LINE
  8
0
 10
-226.325
 20
-125.929
 11
-226.529
 21
-125.79
  0
LINE
  8
0
 10
-226.529
 20
-125.79
 11
-226.71
 21
-125.622
  0
LINE
  8
0
 10
-226.71
 20
-125.622
 11
-226.863
 21
-125.429
  0
LINE
  8
0
 10
-226.863
 20
-125.429
 11
-226.987
 21
-125.216
  0
LINE
  8
0
 10
-226.987
 20
-125.216
 11
-227.077
 21
-124.986
  0
LINE
  8
0
 10
-227.077
 20
-124.986
 11
-227.132
 21
-124.746
  0
LINE
  8
0
 10
-227.132
 20
-124.746
 11
-227.15
 21
-124.5
  0
LINE
  8
0
 10
-227.15
 20
-124.5
 11
-227.132
 21
-124.254
  0
LINE
  8
0
 10
-227.132
 20
-124.254
 11
-227.077
 21
-124.014
  0
LINE
  8
0
 10
-227.077
 20
-124.014
 11
-226.987
 21
-123.784
  0
LINE
  8
0
 10
-226.987
 20
-123.784
 11
-226.863
 21
-123.571
  0
LINE
  8
0
 10
-226.863
 20
-123.571
 11
-226.71
 21
-123.378
  0
LINE
  8
0
 10
-226.71
 20
-123.378
 11
-226.529
 21
-123.21
  0
LINE
  8
0
 10
-226.529
 20
-123.21
 11
-226.325
 21
-123.071
  0
LINE
  8
0
 10
-226.325
 20
-123.071
 11
-226.103
 21
-122.964
  0
LINE
  8
0
 10
-226.103
 20
-122.964
 11
-225.867
 21
-122.891
  0
LINE
  8
0
 10
-225.867
 20
-122.891
 11
-225.623
 21
-122.855
  0
LINE
  8
0
 10
-225.623
 20
-122.855
 11
-225.377
 21
-122.855
  0
LINE
  8
0
 10
-225.377
 20
-122.855
 11
-225.133
 21
-122.891
  0
LINE
  8
0
 10
-225.133
 20
-122.891
 11
-224.897
 21
-122.964
  0
LINE
  8
0
 10
-224.897
 20
-122.964
 11
-224.675
 21
-123.071
  0
LINE
  8
0
 10
-224.675
 20
-123.071
 11
-224.471
 21
-123.21
  0
LINE
  8
0
 10
-224.471
 20
-123.21
 11
-224.29
 21
-123.378
  0
LINE
  8
0
 10
-224.29
 20
-123.378
 11
-224.137
 21
-123.571
  0
LINE
  8
0
 10
-224.137
 20
-123.571
 11
-224.013
 21
-123.784
  0
LINE
  8
0
 10
-224.013
 20
-123.784
 11
-223.923
 21
-124.014
  0
LINE
  8
0
 10
-223.923
 20
-124.014
 11
-223.868
 21
-124.254
  0
LINE
  8
0
 10
-223.868
 20
-124.254
 11
-223.85
 21
-124.5
  0
LINE
  8
0
 10
-223.85
 20
-124.5
 11
-223.868
 21
-124.746
  0
LINE
  8
0
 10
-223.868
 20
-124.746
 11
-223.923
 21
-124.986
  0
LINE
  8
0
 10
-223.923
 20
-124.986
 11
-224.013
 21
-125.216
  0
LINE
  8
0
 10
-224.013
 20
-125.216
 11
-224.137
 21
-125.429
  0
LINE
  8
0
 10
-224.137
 20
-125.429
 11
-224.29
 21
-125.622
  0
LINE
  8
0
 10
-224.29
 20
-125.622
 11
-224.471
 21
-125.79
  0
LINE
  8
0
 10
-224.471
 20
-125.79
 11
-224.675
 21
-125.929
  0
LINE
  8
0
 10
-224.675
 20
-125.929
 11
-224.897
 21
-126.036
  0
LINE
  8
0
 10
-224.897
 20
-126.036
 11
-225.133
 21
-126.109
  0
LINE
  8
0
 10
-225.133
 20
-126.109
 11
-225.377
 21
-126.145
  0
LINE
  8
0
 10
-225.377
 20
-126.145
 11
-225.623
 21
-126.145
  0
LINE
  8
0
 10
-211.202
 20
-151.437
 11
-212.391
 21
-151.249
  0
LINE
  8
0
 10
-212.391
 20
-151.249
 11
-213.554
 21
-150.937
  0
LINE
  8
0
 10
-213.554
 20
-150.937
 11
-214.677
 21
-150.506
  0
LINE
  8
0
 10
-214.677
 20
-150.506
 11
-215.75
 21
-149.959
  0
LINE
  8
0
 10
-215.75
 20
-149.959
 11
-216.76
 21
-149.304
  0
LINE
  8
0
 10
-216.76
 20
-149.304
 11
-217.695
 21
-148.546
  0
LINE
  8
0
 10
-217.695
 20
-148.546
 11
-218.546
 21
-147.695
  0
LINE
  8
0
 10
-218.546
 20
-147.695
 11
-219.304
 21
-146.76
  0
LINE
  8
0
 10
-219.304
 20
-146.76
 11
-219.959
 21
-145.75
  0
LINE
  8
0
 10
-219.959
 20
-145.75
 11
-220.506
 21
-144.677
  0
LINE
  8
0
 10
-220.506
 20
-144.677
 11
-220.937
 21
-143.554
  0
LINE
  8
0
 10
-220.937
 20
-143.554
 11
-221.249
 21
-142.391
  0
LINE
  8
0
 10
-221.249
 20
-142.391
 11
-221.437
 21
-141.202
  0
LINE
  8
0
 10
-221.437
 20
-141.202
 11
-221.5
 21
-140
  0
LINE
  8
0
 10
-221.5
 20
-140
 11
-221.437
 21
-138.798
  0
LINE
  8
0
 10
-221.437
 20
-138.798
 11
-221.249
 21
-137.609
  0
LINE
  8
0
 10
-221.249
 20
-137.609
 11
-220.937
 21
-136.446
  0
LINE
  8
0
 10
-220.937
 20
-136.446
 11
-220.506
 21
-135.323
  0
LINE
  8
0
 10
-220.506
 20
-135.323
 11
-219.959
 21
-134.25
  0
LINE
  8
0
 10
-219.959
 20
-134.25
 11
-219.304
 21
-133.24
  0
LINE
  8
0
 10
-219.304
 20
-133.24
 11
-218.546
 21
-132.305
  0
LINE
  8
0
 10
-218.546
 20
-132.305
 11
-217.695
 21
-131.454
  0
LINE
  8
0
 10
-217.695
 20
-131.454
 11
-216.76
 21
-130.696
  0
LINE
  8
0
 10
-216.76
 20
-130.696
 11
-215.75
 21
-130.041
  0
LINE
  8
0
 10
-215.75
 20
-130.041
 11
-214.677
 21
-129.494
  0
LINE
  8
0
 10
-214.677
 20
-129.494
 11
-213.554
 21
-129.063
  0
LINE
  8
0
 10
-213.554
 20
-129.063
 11
-212.391
 21
-128.751
  0
LINE
  8
0
 10
-212.391
 20
-128.751
 11
-211.202
 21
-128.563
  0
LINE
  8
0
 10
-211.202
 20
-128.563
 11
-210
 21
-128.5
  0
LINE
  8
0
 10
-210
 20
-128.5
 11
-208.798
 21
-128.563
  0
LINE
  8
0
 10
-208.798
 20
-128.563
 11
-207.609
 21
-128.751
  0
LINE
  8
0
 10
-207.609
 20
-128.751
 11
-206.446
 21
-129.063
  0
LINE
  8
0
 10
-206.446
 20
-129.063
 11
-205.323
 21
-129.494
  0
LINE
  8
0
 10
-205.323
 20
-129.494
 11
-204.25
 21
-130.041
  0
LINE
  8
0
 10
-204.25
 20
-130.041
 11
-203.24
 21
-130.696
  0
LINE
  8
0
 10
-203.24
 20
-130.696
 11
-202.305
 21
-131.454
  0
LINE
  8
0
 10
-202.305
 20
-131.454
 11
-201.454
 21
-132.305
  0
LINE
  8
0
 10
-201.454
 20
-132.305
 11
-200.696
 21
-133.24
  0
LINE
  8
0
 10
-200.696
 20
-133.24
 11
-200.041
 21
-134.25
  0
LINE
  8
0
 10
-200.041
 20
-134.25
 11
-199.494
 21
-135.323
  0
LINE
  8
0
 10
-199.494
 20
-135.323
 11
-199.063
 21
-136.446
  0
LINE
  8
0
 10
-199.063
 20
-136.446
 11
-198.751
 21
-137.609
  0
LINE
  8
0
 10
-198.751
 20
-137.609
 11
-198.563
 21
-138.798
  0
LINE
  8
0
 10
-198.563
 20
-138.798
 11
-198.5
 21
-140
  0
LINE
  8
0
 10
-198.5
 20
-140
 11
-198.563
 21
-141.202
  0
LINE
  8
0
 10
-198.563
 20
-141.202
 11
-198.751
 21
-142.391
  0
LINE
  8
0
 10
-198.751
 20
-142.391
 11
-199.063
 21
-143.554
  0
LINE
  8
0
 10
-199.063
 20
-143.554
 11
-199.494
 21
-144.677
  0
LINE
  8
0
 10
-199.494
 20
-144.677
 11
-200.041
 21
-145.75
  0
LINE
  8
0
 10
-200.041
 20
-145.75
 11
-200.696
 21
-146.76
  0
LINE
  8
0
 10
-200.696
 20
-146.76
 11
-201.454
 21
-147.695
  0
LINE
  8
0
 10
-201.454
 20
-147.695
 11
-202.305
 21
-148.546
  0
LINE
  8
0
 10
-202.305
 20
-148.546
 11
-203.24
 21
-149.304
  0
LINE
  8
0
 10
-203.24
 20
-149.304
 11
-204.25
 21
-149.959
  0
LINE
  8
0
 10
-204.25
 20
-149.959
 11
-205.323
 21
-150.506
  0
LINE
  8
0
 10
-205.323
 20
-150.506
 11
-206.446
 21
-150.937
  0
LINE
  8
0
 10
-206.446
 20
-150.937
 11
-207.609
 21
-151.249
  0
LINE
  8
0
 10
-207.609
 20
-151.249
 11
-208.798
 21
-151.437
  0
LINE
  8
0
 10
-208.798
 20
-151.437
 11
-210
 21
-151.5
  0
LINE
  8
0
 10
-210
 20
-151.5
 11
-211.202
 21
-151.437
  0
LINE
  8
0
 10
-194.623
 20
-157.145
 11
-194.867
 21
-157.109
  0
LINE
  8
0
 10
-194.867
 20
-157.109
 11
-195.103
 21
-157.036
  0
LINE
  8
0
 10
-195.103
 20
-157.036
 11
-195.325
 21
-156.929
  0
LINE
  8
0
 10
-195.325
 20
-156.929
 11
-195.529
 21
-156.79
  0
LINE
  8
0
 10
-195.529
 20
-156.79
 11
-195.71
 21
-156.622
  0
LINE
  8
0
 10
-195.71
 20
-156.622
 11
-195.863
 21
-156.429
  0
LINE
  8
0
 10
-195.863
 20
-156.429
 11
-195.987
 21
-156.216
  0
LINE
  8
0
 10
-195.987
 20
-156.216
 11
-196.077
 21
-155.986
  0
LINE
  8
0
 10
-196.077
 20
-155.986
 11
-196.132
 21
-155.746
  0
LINE
  8
0
 10
-196.132
 20
-155.746
 11
-196.15
 21
-155.5
  0
LINE
  8
0
 10
-196.15
 20
-155.5
 11
-196.132
 21
-155.254
  0
LINE
  8
0
 10
-196.132
 20
-155.254
 11
-196.077
 21
-155.014
  0
LINE
  8
0
 10
-196.077
 20
-155.014
 11
-195.987
 21
-154.784
  0
LINE
  8
0
 10
-195.987
 20
-154.784
 11
-195.863
 21
-154.571
  0
LINE
  8
0
 10
-195.863
 20
-154.571
 11
-195.71
 21
-154.378
  0
LINE
  8
0
 10
-195.71
 20
-154.378
 11
-195.529
 21
-154.21
  0
LINE
  8
0
 10
-195.529
 20
-154.21
 11
-195.325
 21
-154.071
  0
LINE
  8
0
 10
-195.325
 20
-154.071
 11
-195.103
 21
-153.964
  0
LINE
  8
0
 10
-195.103
 20
-153.964
 11
-194.867
 21
-153.891
  0
LINE
  8
0
 10
-194.867
 20
-153.891
 11
-194.623
 21
-153.855
  0
LINE
  8
0
 10
-194.623
 20
-153.855
 11
-194.377
 21
-153.855
  0
LINE
  8
0
 10
-194.377
 20
-153.855
 11
-194.133
 21
-153.891
  0
LINE
  8
0
 10
-194.133
 20
-153.891
 11
-193.897
 21
-153.964
  0
LINE
  8
0
 10
-193.897
 20
-153.964
 11
-193.675
 21
-154.071
  0
LINE
  8
0
 10
-193.675
 20
-154.071
 11
-193.471
 21
-154.21
  0
LINE
  8
0
 10
-193.471
 20
-154.21
 11
-193.29
 21
-154.378
  0
LINE
  8
0
 10
-193.29
 20
-154.378
 11
-193.137
 21
-154.571
  0
LINE
  8
0
 10
-193.137
 20
-154.571
 11
-193.013
 21
-154.784
  0
LINE
  8
0
 10
-193.013
 20
-154.784
 11
-192.923
 21
-155.014
  0
LINE
  8
0
 10
-192.923
 20
-155.014
 11
-192.868
 21
-155.254
  0
LINE
  8
0
 10
-192.868
 20
-155.254
 11
-192.85
 21
-155.5
  0
LINE
  8
0
 10
-192.85
 20
-155.5
 11
-192.868
 21
-155.746
  0
LINE
  8
0
 10
-192.868
 20
-155.746
 11
-192.923
 21
-155.986
  0
LINE
  8
0
 10
-192.923
 20
-155.986
 11
-193.013
 21
-156.216
  0
LINE
  8
0
 10
-193.013
 20
-156.216
 11
-193.137
 21
-156.429
  0
LINE
  8
0
 10
-193.137
 20
-156.429
 11
-193.29
 21
-156.622
  0
LINE
  8
0
 10
-193.29
 20
-156.622
 11
-193.471
 21
-156.79
  0
LINE
  8
0
 10
-193.471
 20
-156.79
 11
-193.675
 21
-156.929
  0
LINE
  8
0
 10
-193.675
 20
-156.929
 11
-193.897
 21
-157.036
  0
LINE
  8
0
 10
-193.897
 20
-157.036
 11
-194.133
 21
-157.109
  0
LINE
  8
0
 10
-194.133
 20
-157.109
 11
-194.377
 21
-157.145
  0
LINE
  8
0
 10
-194.377
 20
-157.145
 11
-194.623
 21
-157.145
  0
LINE
  8
0
 10
-225.623
 20
-157.145
 11
-225.867
 21
-157.109
  0
LINE
  8
0
 10
-225.867
 20
-157.109
 11
-226.103
 21
-157.036
  0
LINE
  8
0
 10
-226.103
 20
-157.036
 11
-226.325
 21
-156.929
  0
LINE
  8
0
 10
-226.325
 20
-156.929
 11
-226.529
 21
-156.79
  0
LINE
  8
0
 10
-226.529
 20
-156.79
 11
-226.71
 21
-156.622
  0
LINE
  8
0
 10
-226.71
 20
-156.622
 11
-226.863
 21
-156.429
  0
LINE
  8
0
 10
-226.863
 20
-156.429
 11
-226.987
 21
-156.216
  0
LINE
  8
0
 10
-226.987
 20
-156.216
 11
-227.077
 21
-155.986
  0
LINE
  8
0
 10
-227.077
 20
-155.986
 11
-227.132
 21
-155.746
  0
LINE
  8
0
 10
-227.132
 20
-155.746
 11
-227.15
 21
-155.5
  0
LINE
  8
0
 10
-227.15
 20
-155.5
 11
-227.132
 21
-155.254
  0
LINE
  8
0
 10
-227.132
 20
-155.254
 11
-227.077
 21
-155.014
  0
LINE
  8
0
 10
-227.077
 20
-155.014
 11
-226.987
 21
-154.784
  0
LINE
  8
0
 10
-226.987
 20
-154.784
 11
-226.863
 21
-154.571
  0
LINE
  8
0
 10
-226.863
 20
-154.571
 11
-226.71
 21
-154.378
  0
LINE
  8
0
 10
-226.71
 20
-154.378
 11
-226.529
 21
-154.21
  0
LINE
  8
0
 10
-226.529
 20
-154.21
 11
-226.325
 21
-154.071
  0
LINE
  8
0
 10
-226.325
 20
-154.071
 11
-226.103
 21
-153.964
  0
LINE
  8
0
 10
-226.103
 20
-153.964
 11
-225.867
 21
-153.891
  0
LINE
  8
0
 10
-225.867
 20
-153.891
 11
-225.623
 21
-153.855
  0
LINE
  8
0
 10
-225.623
 20
-153.855
 11
-225.377
 21
-153.855
  0
LINE
  8
0
 10
-225.377
 20
-153.855
 11
-225.133
 21
-153.891
  0
LINE
  8
0
 10
-225.133
 20
-153.891
 11
-224.897
 21
-153.964
  0
LINE
  8
0
 10
-224.897
 20
-153.964
 11
-224.675
 21
-154.071
  0
LINE
  8
0
 10
-224.675
 20
-154.071
 11
-224.471
 21
-154.21
  0
LINE
  8
0
 10
-224.471
 20
-154.21
 11
-224.29
 21
-154.378
  0
LINE
  8
0
 10
-224.29
 20
-154.378
 11
-224.137
 21
-154.571
  0
LINE
  8
0
 10
-224.137
 20
-154.571
 11
-224.013
 21
-154.784
  0
LINE
  8
0
 10
-224.013
 20
-154.784
 11
-223.923
 21
-155.014
  0
LINE
  8
0
 10
-223.923
 20
-155.014
 11
-223.868
 21
-155.254
  0
LINE
  8
0
 10
-223.868
 20
-155.254
 11
-223.85
 21
-155.5
  0
LINE
  8
0
 10
-223.85
 20
-155.5
 11
-223.868
 21
-155.746
  0
LINE
  8
0
 10
-223.868
 20
-155.746
 11
-223.923
 21
-155.986
  0
LINE
  8
0
 10
-223.923
 20
-155.986
 11
-224.013
 21
-156.216
  0
LINE
  8
0
 10
-224.013
 20
-156.216
 11
-224.137
 21
-156.429
  0
LINE
  8
0
 10
-224.137
 20
-156.429
 11
-224.29
 21
-156.622
  0
LINE
  8
0
 10
-224.29
 20
-156.622
 11
-224.471
 21
-156.79
  0
LINE
  8
0
 10
-224.471
 20
-156.79
 11
-224.675
 21
-156.929
  0
LINE
  8
0
 10
-224.675
 20
-156.929
 11
-224.897
 21
-157.036
  0
LINE
  8
0
 10
-224.897
 20
-157.036
 11
-225.133
 21
-157.109
  0
LINE
  8
0
 10
-225.133
 20
-157.109
 11
-225.377
 21
-157.145
  0
LINE
  8
0
 10
-225.377
 20
-157.145
 11
-225.623
 21
-157.145
  0
LINE
  8
0
 10
-180.309
 20
-194.729
 11
-180.552
 21
-194.681
  0
LINE
  8
0
 10
-180.552
 20
-194.681
 11
-180.789
 21
-194.607
  0
LINE
  8
0
 10
-180.789
 20
-194.607
 11
-181.016
 21
-194.508
  0
LINE
  8
0
 10
-181.016
 20
-194.508
 11
-181.231
 21
-194.384
  0
LINE
  8
0
 10
-181.231
 20
-194.384
 11
-181.43
 21
-194.237
  0
LINE
  8
0
 10
-181.43
 20
-194.237
 11
-181.613
 21
-194.069
  0
LINE
  8
0
 10
-181.613
 20
-194.069
 11
-181.776
 21
-193.882
  0
LINE
  8
0
 10
-181.776
 20
-193.882
 11
-181.917
 21
-193.678
  0
LINE
  8
0
 10
-181.917
 20
-193.678
 11
-182.035
 21
-193.46
  0
LINE
  8
0
 10
-182.035
 20
-193.46
 11
-182.128
 21
-193.231
  0
LINE
  8
0
 10
-182.128
 20
-193.231
 11
-182.196
 21
-192.992
  0
LINE
  8
0
 10
-182.196
 20
-192.992
 11
-182.236
 21
-192.748
  0
LINE
  8
0
 10
-182.236
 20
-192.748
 11
-182.25
 21
-192.5
  0
LINE
  8
0
 10
-182.25
 20
-192.5
 11
-182.236
 21
-192.252
  0
LINE
  8
0
 10
-182.236
 20
-192.252
 11
-182.196
 21
-192.008
  0
LINE
  8
0
 10
-182.196
 20
-192.008
 11
-182.128
 21
-191.769
  0
LINE
  8
0
 10
-182.128
 20
-191.769
 11
-182.035
 21
-191.54
  0
LINE
  8
0
 10
-182.035
 20
-191.54
 11
-181.917
 21
-191.322
  0
LINE
  8
0
 10
-181.917
 20
-191.322
 11
-181.776
 21
-191.118
  0
LINE
  8
0
 10
-181.776
 20
-191.118
 11
-181.613
 21
-190.931
  0
LINE
  8
0
 10
-181.613
 20
-190.931
 11
-181.43
 21
-190.763
  0
LINE
  8
0
 10
-181.43
 20
-190.763
 11
-181.231
 21
-190.616
  0
LINE
  8
0
 10
-181.231
 20
-190.616
 11
-181.016
 21
-190.492
  0
LINE
  8
0
 10
-181.016
 20
-190.492
 11
-180.789
 21
-190.393
  0
LINE
  8
0
 10
-180.789
 20
-190.393
 11
-180.552
 21
-190.319
  0
LINE
  8
0
 10
-180.552
 20
-190.319
 11
-180.309
 21
-190.271
  0
LINE
  8
0
 10
-180.309
 20
-190.271
 11
-180.062
 21
-190.251
  0
LINE
  8
0
 10
-180.062
 20
-190.251
 11
-179.814
 21
-190.258
  0
LINE
  8
0
 10
-179.814
 20
-190.258
 11
-179.569
 21
-190.292
  0
LINE
  8
0
 10
-179.569
 20
-190.292
 11
-179.328
 21
-190.353
  0
LINE
  8
0
 10
-179.328
 20
-190.353
 11
-179.096
 21
-190.44
  0
LINE
  8
0
 10
-179.096
 20
-190.44
 11
-178.875
 21
-190.551
  0
LINE
  8
0
 10
-178.875
 20
-190.551
 11
-178.667
 21
-190.687
  0
LINE
  8
0
 10
-178.667
 20
-190.687
 11
-178.476
 21
-190.845
  0
LINE
  8
0
 10
-178.476
 20
-190.845
 11
-178.303
 21
-191.022
  0
LINE
  8
0
 10
-178.303
 20
-191.022
 11
-178.151
 21
-191.218
  0
LINE
  8
0
 10
-178.151
 20
-191.218
 11
-178.021
 21
-191.429
  0
LINE
  8
0
 10
-178.021
 20
-191.429
 11
-177.915
 21
-191.653
  0
LINE
  8
0
 10
-177.915
 20
-191.653
 11
-177.835
 21
-191.888
  0
LINE
  8
0
 10
-177.835
 20
-191.888
 11
-177.781
 21
-192.13
  0
LINE
  8
0
 10
-177.781
 20
-192.13
 11
-177.753
 21
-192.376
  0
LINE
  8
0
 10
-177.753
 20
-192.376
 11
-177.753
 21
-192.624
  0
LINE
  8
0
 10
-177.753
 20
-192.624
 11
-177.781
 21
-192.87
  0
LINE
  8
0
 10
-177.781
 20
-192.87
 11
-177.835
 21
-193.112
  0
LINE
  8
0
 10
-177.835
 20
-193.112
 11
-177.915
 21
-193.347
  0
LINE
  8
0
 10
-177.915
 20
-193.347
 11
-178.021
 21
-193.571
  0
LINE
  8
0
 10
-178.021
 20
-193.571
 11
-178.151
 21
-193.782
  0
LINE
  8
0
 10
-178.151
 20
-193.782
 11
-178.303
 21
-193.978
  0
LINE
  8
0
 10
-178.303
 20
-193.978
 11
-178.476
 21
-194.155
  0
LINE
  8
0
 10
-178.476
 20
-194.155
 11
-178.667
 21
-194.313
  0
LINE
  8
0
 10
-178.667
 20
-194.313
 11
-178.875
 21
-194.449
  0
LINE
  8
0
 10
-178.875
 20
-194.449
 11
-179.096
 21
-194.56
  0
LINE
  8
0
 10
-179.096
 20
-194.56
 11
-179.328
 21
-194.647
  0
LINE
  8
0
 10
-179.328
 20
-194.647
 11
-179.569
 21
-194.708
  0
LINE
  8
0
 10
-179.569
 20
-194.708
 11
-179.814
 21
-194.742
  0
LINE
  8
0
 10
-179.814
 20
-194.742
 11
-180.062
 21
-194.749
  0
LINE
  8
0
 10
-180.062
 20
-194.749
 11
-180.309
 21
-194.729
  0
LINE
  8
0
 10
179.814
 20
-194.742
 11
179.569
 21
-194.708
  0
LINE
  8
0
 10
179.569
 20
-194.708
 11
179.328
 21
-194.647
  0
LINE
  8
0
 10
179.328
 20
-194.647
 11
179.096
 21
-194.56
  0
LINE
  8
0
 10
179.096
 20
-194.56
 11
178.875
 21
-194.449
  0
LINE
  8
0
 10
178.875
 20
-194.449
 11
178.667
 21
-194.313
  0
LINE
  8
0
 10
178.667
 20
-194.313
 11
178.476
 21
-194.155
  0
LINE
  8
0
 10
178.476
 20
-194.155
 11
178.303
 21
-193.978
  0
LINE
  8
0
 10
178.303
 20
-193.978
 11
178.151
 21
-193.782
  0
LINE
  8
0
 10
178.151
 20
-193.782
 11
178.021
 21
-193.571
  0
LINE
  8
0
 10
178.021
 20
-193.571
 11
177.915
 21
-193.347
  0
LINE
  8
0
 10
177.915
 20
-193.347
 11
177.835
 21
-193.112
  0
LINE
  8
0
 10
177.835
 20
-193.112
 11
177.781
 21
-192.87
  0
LINE
  8
0
 10
177.781
 20
-192.87
 11
177.753
 21
-192.624
  0
LINE
  8
0
 10
177.753
 20
-192.624
 11
177.753
 21
-192.376
  0
LINE
  8
0
 10
177.753
 20
-192.376
 11
177.781
 21
-192.13
  0
LINE
  8
0
 10
177.781
 20
-192.13
 11
177.835
 21
-191.888
  0
LINE
  8
0
 10
177.835
 20
-191.888
 11
177.915
 21
-191.653
  0
LINE
  8
0
 10
177.915
 20
-191.653
 11
178.021
 21
-191.429
  0
LINE
  8
0
 10
178.021
 20
-191.429
 11
178.151
 21
-191.218
  0
LINE
  8
0
 10
178.151
 20
-191.218
 11
178.303
 21
-191.022
  0
LINE
  8
0
 10
178.303
 20
-191.022
 11
178.476
 21
-190.845
  0
LINE
  8
0
 10
178.476
 20
-190.845
 11
178.667
 21
-190.687
  0
LINE
  8
0
 10
178.667
 20
-190.687
 11
178.875
 21
-190.551
  0
LINE
  8
0
 10
178.875
 20
-190.551
 11
179.096
 21
-190.44
  0
LINE
  8
0
 10
179.096
 20
-190.44
 11
179.328
 21
-190.353
  0
LINE
  8
0
 10
179.328
 20
-190.353
 11
179.569
 21
-190.292
  0
LINE
  8
0
 10
179.569
 20
-190.292
 11
179.814
 21
-190.258
  0
LINE
  8
0
 10
179.814
 20
-190.258
 11
180.062
 21
-190.251
  0
LINE
  8
0
 10
180.062
 20
-190.251
 11
180.309
 21
-190.271
  0
LINE
  8
0
 10
180.309
 20
-190.271
 11
180.552
 21
-190.319
  0
LINE
  8
0
 10
180.552
 20
-190.319
 11
180.789
 21
-190.393
  0
LINE
  8
0
 10
180.789
 20
-190.393
 11
181.016
 21
-190.492
  0
LINE
  8
0
 10
181.016
 20
-190.492
 11
181.231
 21
-190.616
  0
LINE
  8
0
 10
181.231
 20
-190.616
 11
181.43
 21
-190.763
  0
LINE
  8
0
 10
181.43
 20
-190.763
 11
181.613
 21
-190.931
  0
LINE
  8
0
 10
181.613
 20
-190.931
 11
181.776
 21
-191.118
  0
LINE
  8
0
 10
181.776
 20
-191.118
 11
181.917
 21
-191.322
  0
LINE
  8
0
 10
181.917
 20
-191.322
 11
182.035
 21
-191.54
  0
LINE
  8
0
 10
182.035
 20
-191.54
 11
182.128
 21
-191.769
  0
LINE
  8
0
 10
182.128
 20
-191.769
 11
182.196
 21
-192.008
  0
LINE
  8
0
 10
182.196
 20
-192.008
 11
182.236
 21
-192.252
  0
LINE
  8
0
 10
182.236
 20
-192.252
 11
182.25
 21
-192.5
  0
LINE
  8
0
 10
182.25
 20
-192.5
 11
182.236
 21
-192.748
  0
LINE
  8
0
 10
182.236
 20
-192.748
 11
182.196
 21
-192.992
  0
LINE
  8
0
 10
182.196
 20
-192.992
 11
182.128
 21
-193.231
  0
LINE
  8
0
 10
182.128
 20
-193.231
 11
182.035
 21
-193.46
  0
LINE
  8
0
 10
182.035
 20
-193.46
 11
181.917
 21
-193.678
  0
LINE
  8
0
 10
181.917
 20
-193.678
 11
181.776
 21
-193.882
  0
LINE
  8
0
 10
181.776
 20
-193.882
 11
181.613
 21
-194.069
  0
LINE
  8
0
 10
181.613
 20
-194.069
 11
181.43
 21
-194.237
  0
LINE
  8
0
 10
181.43
 20
-194.237
 11
181.231
 21
-194.384
  0
LINE
  8
0
 10
181.231
 20
-194.384
 11
181.016
 21
-194.508
  0
LINE
  8
0
 10
181.016
 20
-194.508
 11
180.789
 21
-194.607
  0
LINE
  8
0
 10
180.789
 20
-194.607
 11
180.552
 21
-194.681
  0
LINE
  8
0
 10
180.552
 20
-194.681
 11
180.309
 21
-194.729
  0
LINE
  8
0
 10
180.309
 20
-194.729
 11
180.062
 21
-194.749
  0
LINE
  8
0
 10
180.062
 20
-194.749
 11
179.814
 21
-194.742
  0
LINE
  8
0
 10
-240.309
 20
-194.729
 11
-240.552
 21
-194.681
  0
LINE
  8
0
 10
-240.552
 20
-194.681
 11
-240.789
 21
-194.607
  0
LINE
  8
0
 10
-240.789
 20
-194.607
 11
-241.016
 21
-194.508
  0
LINE
  8
0
 10
-241.016
 20
-194.508
 11
-241.231
 21
-194.384
  0
LINE
  8
0
 10
-241.231
 20
-194.384
 11
-241.43
 21
-194.237
  0
LINE
  8
0
 10
-241.43
 20
-194.237
 11
-241.613
 21
-194.069
  0
LINE
  8
0
 10
-241.613
 20
-194.069
 11
-241.776
 21
-193.882
  0
LINE
  8
0
 10
-241.776
 20
-193.882
 11
-241.917
 21
-193.678
  0
LINE
  8
0
 10
-241.917
 20
-193.678
 11
-242.035
 21
-193.46
  0
LINE
  8
0
 10
-242.035
 20
-193.46
 11
-242.128
 21
-193.231
  0
LINE
  8
0
 10
-242.128
 20
-193.231
 11
-242.196
 21
-192.992
  0
LINE
  8
0
 10
-242.196
 20
-192.992
 11
-242.236
 21
-192.748
  0
LINE
  8
0
 10
-242.236
 20
-192.748
 11
-242.25
 21
-192.5
  0
LINE
  8
0
 10
-242.25
 20
-192.5
 11
-242.236
 21
-192.252
  0
LINE
  8
0
 10
-242.236
 20
-192.252
 11
-242.196
 21
-192.008
  0
LINE
  8
0
 10
-242.196
 20
-192.008
 11
-242.128
 21
-191.769
  0
LINE
  8
0
 10
-242.128
 20
-191.769
 11
-242.035
 21
-191.54
  0
LINE
  8
0
 10
-242.035
 20
-191.54
 11
-241.917
 21
-191.322
  0
LINE
  8
0
 10
-241.917
 20
-191.322
 11
-241.776
 21
-191.118
  0
LINE
  8
0
 10
-241.776
 20
-191.118
 11
-241.613
 21
-190.931
  0
LINE
  8
0
 10
-241.613
 20
-190.931
 11
-241.43
 21
-190.763
  0
LINE
  8
0
 10
-241.43
 20
-190.763
 11
-241.231
 21
-190.616
  0
LINE
  8
0
 10
-241.231
 20
-190.616
 11
-241.016
 21
-190.492
  0
LINE
  8
0
 10
-241.016
 20
-190.492
 11
-240.789
 21
-190.393
  0
LINE
  8
0
 10
-240.789
 20
-190.393
 11
-240.552
 21
-190.319
  0
LINE
  8
0
 10
-240.552
 20
-190.319
 11
-240.309
 21
-190.271
  0
LINE
  8
0
 10
-240.309
 20
-190.271
 11
-240.062
 21
-190.251
  0
LINE
  8
0
 10
-240.062
 20
-190.251
 11
-239.814
 21
-190.258
  0
LINE
  8
0
 10
-239.814
 20
-190.258
 11
-239.569
 21
-190.292
  0
LINE
  8
0
 10
-239.569
 20
-190.292
 11
-239.328
 21
-190.353
  0
LINE
  8
0
 10
-239.328
 20
-190.353
 11
-239.096
 21
-190.44
  0
LINE
  8
0
 10
-239.096
 20
-190.44
 11
-238.875
 21
-190.551
  0
LINE
  8
0
 10
-238.875
 20
-190.551
 11
-238.667
 21
-190.687
  0
LINE
  8
0
 10
-238.667
 20
-190.687
 11
-238.476
 21
-190.845
  0
LINE
  8
0
 10
-238.476
 20
-190.845
 11
-238.303
 21
-191.022
  0
LINE
  8
0
 10
-238.303
 20
-191.022
 11
-238.151
 21
-191.218
  0
LINE
  8
0
 10
-238.151
 20
-191.218
 11
-238.021
 21
-191.429
  0
LINE
  8
0
 10
-238.021
 20
-191.429
 11
-237.915
 21
-191.653
  0
LINE
  8
0
 10
-237.915
 20
-191.653
 11
-237.835
 21
-191.888
  0
LINE
  8
0
 10
-237.835
 20
-191.888
 11
-237.781
 21
-192.13
  0
LINE
  8
0
 10
-237.781
 20
-192.13
 11
-237.753
 21
-192.376
  0
LINE
  8
0
 10
-237.753
 20
-192.376
 11
-237.753
 21
-192.624
  0
LINE
  8
0
 10
-237.753
 20
-192.624
 11
-237.781
 21
-192.87
  0
LINE
  8
0
 10
-237.781
 20
-192.87
 11
-237.835
 21
-193.112
  0
LINE
  8
0
 10
-237.835
 20
-193.112
 11
-237.915
 21
-193.347
  0
LINE
  8
0
 10
-237.915
 20
-193.347
 11
-238.021
 21
-193.571
  0
LINE
  8
0
 10
-238.021
 20
-193.571
 11
-238.151
 21
-193.782
  0
LINE
  8
0
 10
-238.151
 20
-193.782
 11
-238.303
 21
-193.978
  0
LINE
  8
0
 10
-238.303
 20
-193.978
 11
-238.476
 21
-194.155
  0
LINE
  8
0
 10
-238.476
 20
-194.155
 11
-238.667
 21
-194.313
  0
LINE
  8
0
 10
-238.667
 20
-194.313
 11
-238.875
 21
-194.449
  0
LINE
  8
0
 10
-238.875
 20
-194.449
 11
-239.096
 21
-194.56
  0
LINE
  8
0
 10
-239.096
 20
-194.56
 11
-239.328
 21
-194.647
  0
LINE
  8
0
 10
-239.328
 20
-194.647
 11
-239.569
 21
-194.708
  0
LINE
  8
0
 10
-239.569
 20
-194.708
 11
-239.814
 21
-194.742
  0
LINE
  8
0
 10
-239.814
 20
-194.742
 11
-240.062
 21
-194.749
  0
LINE
  8
0
 10
-240.062
 20
-194.749
 11
-240.309
 21
-194.729
  0
LINE
  8
0
 10
239.814
 20
-194.742
 11
239.569
 21
-194.708
  0
LINE
  8
0
 10
239.569
 20
-194.708
 11
239.328
 21
-194.647
  0
LINE
  8
0
 10
239.328
 20
-194.647
 11
239.096
 21
-194.56
  0
LINE
  8
0
 10
239.096
 20
-194.56
 11
238.875
 21
-194.449
  0
LINE
  8
0
 10
238.875
 20
-194.449
 11
238.667
 21
-194.313
  0
LINE
  8
0
 10
238.667
 20
-194.313
 11
238.476
 21
-194.155
  0
LINE
  8
0
 10
238.476
 20
-194.155
 11
238.303
 21
-193.978
  0
LINE
  8
0
 10
238.303
 20
-193.978
 11
238.151
 21
-193.782
  0
LINE
  8
0
 10
238.151
 20
-193.782
 11
238.021
 21
-193.571
  0
LINE
  8
0
 10
238.021
 20
-193.571
 11
237.915
 21
-193.347
  0
LINE
  8
0
 10
237.915
 20
-193.347
 11
237.835
 21
-193.112
  0
LINE
  8
0
 10
237.835
 20
-193.112
 11
237.781
 21
-192.87
  0
LINE
  8
0
 10
237.781
 20
-192.87
 11
237.753
 21
-192.624
  0
LINE
  8
0
 10
237.753
 20
-192.624
 11
237.753
 21
-192.376
  0
LINE
  8
0
 10
237.753
 20
-192.376
 11
237.781
 21
-192.13
  0
LINE
  8
0
 10
237.781
 20
-192.13
 11
237.835
 21
-191.888
  0
LINE
  8
0
 10
237.835
 20
-191.888
 11
237.915
 21
-191.653
  0
LINE
  8
0
 10
237.915
 20
-191.653
 11
238.021
 21
-191.429
  0
LINE
  8
0
 10
238.021
 20
-191.429
 11
238.151
 21
-191.218
  0
LINE
  8
0
 10
238.151
 20
-191.218
 11
238.303
 21
-191.022
  0
LINE
  8
0
 10
238.303
 20
-191.022
 11
238.476
 21
-190.845
  0
LINE
  8
0
 10
238.476
 20
-190.845
 11
238.667
 21
-190.687
  0
LINE
  8
0
 10
238.667
 20
-190.687
 11
238.875
 21
-190.551
  0
LINE
  8
0
 10
238.875
 20
-190.551
 11
239.096
 21
-190.44
  0
LINE
  8
0
 10
239.096
 20
-190.44
 11
239.328
 21
-190.353
  0
LINE
  8
0
 10
239.328
 20
-190.353
 11
239.569
 21
-190.292
  0
LINE
  8
0
 10
239.569
 20
-190.292
 11
239.814
 21
-190.258
  0
LINE
  8
0
 10
239.814
 20
-190.258
 11
240.062
 21
-190.251
  0
LINE
  8
0
 10
240.062
 20
-190.251
 11
240.309
 21
-190.271
  0
LINE
  8
0
 10
240.309
 20
-190.271
 11
240.552
 21
-190.319
  0
LINE
  8
0
 10
240.552
 20
-190.319
 11
240.789
 21
-190.393
  0
LINE
  8
0
 10
240.789
 20
-190.393
 11
241.016
 21
-190.492
  0
LINE
  8
0
 10
241.016
 20
-190.492
 11
241.231
 21
-190.616
  0
LINE
  8
0
 10
241.231
 20
-190.616
 11
241.43
 21
-190.763
  0
LINE
  8
0
 10
241.43
 20
-190.763
 11
241.613
 21
-190.931
  0
LINE
  8
0
 10
241.613
 20
-190.931
 11
241.776
 21
-191.118
  0
LINE
  8
0
 10
241.776
 20
-191.118
 11
241.917
 21
-191.322
  0
LINE
  8
0
 10
241.917
 20
-191.322
 11
242.035
 21
-191.54
  0
LINE
  8
0
 10
242.035
 20
-191.54
 11
242.128
 21
-191.769
  0
LINE
  8
0
 10
242.128
 20
-191.769
 11
242.196
 21
-192.008
  0
LINE
  8
0
 10
242.196
 20
-192.008
 11
242.236
 21
-192.252
  0
LINE
  8
0
 10
242.236
 20
-192.252
 11
242.25
 21
-192.5
  0
LINE
  8
0
 10
242.25
 20
-192.5
 11
242.236
 21
-192.748
  0
LINE
  8
0
 10
242.236
 20
-192.748
 11
242.196
 21
-192.992
  0
LINE
  8
0
 10
242.196
 20
-192.992
 11
242.128
 21
-193.231
  0
LINE
  8
0
 10
242.128
 20
-193.231
 11
242.035
 21
-193.46
  0
LINE
  8
0
 10
242.035
 20
-193.46
 11
241.917
 21
-193.678
  0
LINE
  8
0
 10
241.917
 20
-193.678
 11
241.776
 21
-193.882
  0
LINE
  8
0
 10
241.776
 20
-193.882
 11
241.613
 21
-194.069
  0
LINE
  8
0
 10
241.613
 20
-194.069
 11
241.43
 21
-194.237
  0
LINE
  8
0
 10
241.43
 20
-194.237
 11
241.231
 21
-194.384
  0
LINE
  8
0
 10
241.231
 20
-194.384
 11
241.016
 21
-194.508
  0
LINE
  8
0
 10
241.016
 20
-194.508
 11
240.789
 21
-194.607
  0
LINE
  8
0
 10
240.789
 20
-194.607
 11
240.552
 21
-194.681
  0
LINE
  8
0
 10
240.552
 20
-194.681
 11
240.309
 21
-194.729
  0
LINE
  8
0
 10
240.309
 20
-194.729
 11
240.062
 21
-194.749
  0
LINE
  8
0
 10
240.062
 20
-194.749
 11
239.814
 21
-194.742
  0
LINE
  8
0
 10
-240.523
 20
-237.473
 11
-241.04
 21
-237.391
  0
LINE
  8
0
 10
-241.04
 20
-237.391
 11
-241.545
 21
-237.255
  0
LINE
  8
0
 10
-241.545
 20
-237.255
 11
-242.034
 21
-237.068
  0
LINE
  8
0
 10
-242.034
 20
-237.068
 11
-242.5
 21
-236.83
  0
LINE
  8
0
 10
-242.5
 20
-236.83
 11
-242.939
 21
-236.545
  0
LINE
  8
0
 10
-242.939
 20
-236.545
 11
-243.346
 21
-236.216
  0
LINE
  8
0
 10
-243.346
 20
-236.216
 11
-243.716
 21
-235.846
  0
LINE
  8
0
 10
-243.716
 20
-235.846
 11
-244.045
 21
-235.439
  0
LINE
  8
0
 10
-244.045
 20
-235.439
 11
-244.33
 21
-235
  0
LINE
  8
0
 10
-244.33
 20
-235
 11
-244.568
 21
-234.534
  0
LINE
  8
0
 10
-244.568
 20
-234.534
 11
-244.755
 21
-234.045
  0
LINE
  8
0
 10
-244.755
 20
-234.045
 11
-244.891
 21
-233.54
  0
LINE
  8
0
 10
-244.891
 20
-233.54
 11
-244.973
 21
-233.023
  0
LINE
  8
0
 10
-244.973
 20
-233.023
 11
-245
 21
-232.5
  0
LINE
  8
0
 10
-245
 20
-232.5
 11
-244.973
 21
-231.977
  0
LINE
  8
0
 10
-244.973
 20
-231.977
 11
-244.891
 21
-231.46
  0
LINE
  8
0
 10
-244.891
 20
-231.46
 11
-244.755
 21
-230.955
  0
LINE
  8
0
 10
-244.755
 20
-230.955
 11
-244.568
 21
-230.466
  0
LINE
  8
0
 10
-244.568
 20
-230.466
 11
-244.33
 21
-230
  0
LINE
  8
0
 10
-244.33
 20
-230
 11
-244.045
 21
-229.561
  0
LINE
  8
0
 10
-244.045
 20
-229.561
 11
-243.716
 21
-229.154
  0
LINE
  8
0
 10
-243.716
 20
-229.154
 11
-243.346
 21
-228.784
  0
LINE
  8
0
 10
-243.346
 20
-228.784
 11
-242.939
 21
-228.455
  0
LINE
  8
0
 10
-242.939
 20
-228.455
 11
-242.5
 21
-228.17
  0
LINE
  8
0
 10
-242.5
 20
-228.17
 11
-242.034
 21
-227.932
  0
LINE
  8
0
 10
-242.034
 20
-227.932
 11
-241.545
 21
-227.745
  0
LINE
  8
0
 10
-241.545
 20
-227.745
 11
-241.04
 21
-227.609
  0
LINE
  8
0
 10
-241.04
 20
-227.609
 11
-240.523
 21
-227.527
  0
LINE
  8
0
 10
-240.523
 20
-227.527
 11
-240
 21
-227.5
  0
LINE
  8
0
 10
-240
 20
-227.5
 11
-239.477
 21
-227.527
  0
LINE
  8
0
 10
-239.477
 20
-227.527
 11
-238.96
 21
-227.609
  0
LINE
  8
0
 10
-238.96
 20
-227.609
 11
-238.455
 21
-227.745
  0
LINE
  8
0
 10
-238.455
 20
-227.745
 11
-237.966
 21
-227.932
  0
LINE
  8
0
 10
-237.966
 20
-227.932
 11
-237.5
 21
-228.17
  0
LINE
  8
0
 10
-237.5
 20
-228.17
 11
-237.061
 21
-228.455
  0
LINE
  8
0
 10
-237.061
 20
-228.455
 11
-236.654
 21
-228.784
  0
LINE
  8
0
 10
-236.654
 20
-228.784
 11
-236.284
 21
-229.154
  0
LINE
  8
0
 10
-236.284
 20
-229.154
 11
-235.955
 21
-229.561
  0
LINE
  8
0
 10
-235.955
 20
-229.561
 11
-235.67
 21
-230
  0
LINE
  8
0
 10
-235.67
 20
-230
 11
-235.432
 21
-230.466
  0
LINE
  8
0
 10
-235.432
 20
-230.466
 11
-235.245
 21
-230.955
  0
LINE
  8
0
 10
-235.245
 20
-230.955
 11
-235.109
 21
-231.46
  0
LINE
  8
0
 10
-235.109
 20
-231.46
 11
-235.027
 21
-231.977
  0
LINE
  8
0
 10
-235.027
 20
-231.977
 11
-235
 21
-232.5
  0
LINE
  8
0
 10
-235
 20
-232.5
 11
-235.027
 21
-233.023
  0
LINE
  8
0
 10
-235.027
 20
-233.023
 11
-235.109
 21
-233.54
  0
LINE
  8
0
 10
-235.109
 20
-233.54
 11
-235.245
 21
-234.045
  0
LINE
  8
0
 10
-235.245
 20
-234.045
 11
-235.432
 21
-234.534
  0
LINE
  8
0
 10
-235.432
 20
-234.534
 11
-235.67
 21
-235
  0
LINE
  8
0
 10
-235.67
 20
-235
 11
-235.955
 21
-235.439
  0
LINE
  8
0
 10
-235.955
 20
-235.439
 11
-236.284
 21
-235.846
  0
LINE
  8
0
 10
-236.284
 20
-235.846
 11
-236.654
 21
-236.216
  0
LINE
  8
0
 10
-236.654
 20
-236.216
 11
-237.061
 21
-236.545
  0
LINE
  8
0
 10
-237.061
 20
-236.545
 11
-237.5
 21
-236.83
  0
LINE
  8
0
 10
-237.5
 20
-236.83
 11
-237.966
 21
-237.068
  0
LINE
  8
0
 10
-237.966
 20
-237.068
 11
-238.455
 21
-237.255
  0
LINE
  8
0
 10
-238.455
 20
-237.255
 11
-238.96
 21
-237.391
  0
LINE
  8
0
 10
-238.96
 20
-237.391
 11
-239.477
 21
-237.473
  0
LINE
  8
0
 10
-239.477
 20
-237.473
 11
-240
 21
-237.5
  0
LINE
  8
0
 10
-240
 20
-237.5
 11
-240.523
 21
-237.473
  0
LINE
  8
0
 10
239.477
 20
-237.473
 11
238.96
 21
-237.391
  0
LINE
  8
0
 10
238.96
 20
-237.391
 11
238.455
 21
-237.255
  0
LINE
  8
0
 10
238.455
 20
-237.255
 11
237.966
 21
-237.068
  0
LINE
  8
0
 10
237.966
 20
-237.068
 11
237.5
 21
-236.83
  0
LINE
  8
0
 10
237.5
 20
-236.83
 11
237.061
 21
-236.545
  0
LINE
  8
0
 10
237.061
 20
-236.545
 11
236.654
 21
-236.216
  0
LINE
  8
0
 10
236.654
 20
-236.216
 11
236.284
 21
-235.846
  0
LINE
  8
0
 10
236.284
 20
-235.846
 11
235.955
 21
-235.439
  0
LINE
  8
0
 10
235.955
 20
-235.439
 11
235.67
 21
-235
  0
LINE
  8
0
 10
235.67
 20
-235
 11
235.432
 21
-234.534
  0
LINE
  8
0
 10
235.432
 20
-234.534
 11
235.245
 21
-234.045
  0
LINE
  8
0
 10
235.245
 20
-234.045
 11
235.109
 21
-233.54
  0
LINE
  8
0
 10
235.109
 20
-233.54
 11
235.027
 21
-233.023
  0
LINE
  8
0
 10
235.027
 20
-233.023
 11
235
 21
-232.5
  0
LINE
  8
0
 10
235
 20
-232.5
 11
235.027
 21
-231.977
  0
LINE
  8
0
 10
235.027
 20
-231.977
 11
235.109
 21
-231.46
  0
LINE
  8
0
 10
235.109
 20
-231.46
 11
235.245
 21
-230.955
  0
LINE
  8
0
 10
235.245
 20
-230.955
 11
235.432
 21
-230.466
  0
LINE
  8
0
 10
235.432
 20
-230.466
 11
235.67
 21
-230
  0
LINE
  8
0
 10
235.67
 20
-230
 11
235.955
 21
-229.561
  0
LINE
  8
0
 10
235.955
 20
-229.561
 11
236.284
 21
-229.154
  0
LINE
  8
0
 10
236.284
 20
-229.154
 11
236.654
 21
-228.784
  0
LINE
  8
0
 10
236.654
 20
-228.784
 11
237.061
 21
-228.455
  0
LINE
  8
0
 10
237.061
 20
-228.455
 11
237.5
 21
-228.17
  0
LINE
  8
0
 10
237.5
 20
-228.17
 11
237.966
 21
-227.932
  0
LINE
  8
0
 10
237.966
 20
-227.932
 11
238.455
 21
-227.745
  0
LINE
  8
0
 10
238.455
 20
-227.745
 11
238.96
 21
-227.609
  0
LINE
  8
0
 10
238.96
 20
-227.609
 11
239.477
 21
-227.527
  0
LINE
  8
0
 10
239.477
 20
-227.527
 11
240
 21
-227.5
  0
LINE
  8
0
 10
240
 20
-227.5
 11
240.523
 21
-227.527
  0
LINE
  8
0
 10
240.523
 20
-227.527
 11
241.04
 21
-227.609
  0
LINE
  8
0
 10
241.04
 20
-227.609
 11
241.545
 21
-227.745
  0
LINE
  8
0
 10
241.545
 20
-227.745
 11
242.034
 21
-227.932
  0
LINE
  8
0
 10
242.034
 20
-227.932
 11
242.5
 21
-228.17
  0
LINE
  8
0
 10
242.5
 20
-228.17
 11
242.939
 21
-228.455
  0
LINE
  8
0
 10
242.939
 20
-228.455
 11
243.346
 21
-228.784
  0
LINE
  8
0
 10
243.346
 20
-228.784
 11
243.716
 21
-229.154
  0
LINE
  8
0
 10
243.716
 20
-229.154
 11
244.045
 21
-229.561
  0
LINE
  8
0
 10
244.045
 20
-229.561
 11
244.33
 21
-230
  0
LINE
  8
0
 10
244.33
 20
-230
 11
244.568
 21
-230.466
  0
LINE
  8
0
 10
244.568
 20
-230.466
 11
244.755
 21
-230.955
  0
LINE
  8
0
 10
244.755
 20
-230.955
 11
244.891
 21
-231.46
  0
LINE
  8
0
 10
244.891
 20
-231.46
 11
244.973
 21
-231.977
  0
LINE
  8
0
 10
244.973
 20
-231.977
 11
245
 21
-232.5
  0
LINE
  8
0
 10
245
 20
-232.5
 11
244.973
 21
-233.023
  0
LINE
  8
0
 10
244.973
 20
-233.023
 11
244.891
 21
-233.54
  0
LINE
  8
0
 10
244.891
 20
-233.54
 11
244.755
 21
-234.045
  0
LINE
  8
0
 10
244.755
 20
-234.045
 11
244.568
 21
-234.534
  0
LINE
  8
0
 10
244.568
 20
-234.534
 11
244.33
 21
-235
  0
LINE
  8
0
 10
244.33
 20
-235
 11
244.045
 21
-235.439
  0
LINE
  8
0
 10
244.045
 20
-235.439
 11
243.716
 21
-235.846
  0
LINE
  8
0
 10
243.716
 20
-235.846
 11
243.346
 21
-236.216
  0
LINE
  8
0
 10
243.346
 20
-236.216
 11
242.939
 21
-236.545
  0
LINE
  8
0
 10
242.939
 20
-236.545
 11
242.5
 21
-236.83
  0
LINE
  8
0
 10
242.5
 20
-236.83
 11
242.034
 21
-237.068
  0
LINE
  8
0
 10
242.034
 20
-237.068
 11
241.545
 21
-237.255
  0
LINE
  8
0
 10
241.545
 20
-237.255
 11
241.04
 21
-237.391
  0
LINE
  8
0
 10
241.04
 20
-237.391
 11
240.523
 21
-237.473
  0
LINE
  8
0
 10
240.523
 20
-237.473
 11
240
 21
-237.5
  0
LINE
  8
0
 10
240
 20
-237.5
 11
239.477
 21
-237.473
  0
LINE
  8
0
 10
-200.186
 20
-234.742
 11
-200.431
 21
-234.708
  0
LINE
  8
0
 10
-200.431
 20
-234.708
 11
-200.672
 21
-234.647
  0
LINE
  8
0
 10
-200.672
 20
-234.647
 11
-200.904
 21
-234.56
  0
LINE
  8
0
 10
-200.904
 20
-234.56
 11
-201.125
 21
-234.449
  0
LINE
  8
0
 10
-201.125
 20
-234.449
 11
-201.333
 21
-234.313
  0
LINE
  8
0
 10
-201.333
 20
-234.313
 11
-201.524
 21
-234.155
  0
LINE
  8
0
 10
-201.524
 20
-234.155
 11
-201.697
 21
-233.978
  0
LINE
  8
0
 10
-201.697
 20
-233.978
 11
-201.849
 21
-233.782
  0
LINE
  8
0
 10
-201.849
 20
-233.782
 11
-201.979
 21
-233.571
  0
LINE
  8
0
 10
-201.979
 20
-233.571
 11
-202.085
 21
-233.347
  0
LINE
  8
0
 10
-202.085
 20
-233.347
 11
-202.165
 21
-233.112
  0
LINE
  8
0
 10
-202.165
 20
-233.112
 11
-202.219
 21
-232.87
  0
LINE
  8
0
 10
-202.219
 20
-232.87
 11
-202.247
 21
-232.624
  0
LINE
  8
0
 10
-202.247
 20
-232.624
 11
-202.247
 21
-232.376
  0
LINE
  8
0
 10
-202.247
 20
-232.376
 11
-202.219
 21
-232.13
  0
LINE
  8
0
 10
-202.219
 20
-232.13
 11
-202.165
 21
-231.888
  0
LINE
  8
0
 10
-202.165
 20
-231.888
 11
-202.085
 21
-231.653
  0
LINE
  8
0
 10
-202.085
 20
-231.653
 11
-201.979
 21
-231.429
  0
LINE
  8
0
 10
-201.979
 20
-231.429
 11
-201.849
 21
-231.218
  0
LINE
  8
0
 10
-201.849
 20
-231.218
 11
-201.697
 21
-231.022
  0
LINE
  8
0
 10
-201.697
 20
-231.022
 11
-201.524
 21
-230.845
  0
LINE
  8
0
 10
-201.524
 20
-230.845
 11
-201.333
 21
-230.687
  0
LINE
  8
0
 10
-201.333
 20
-230.687
 11
-201.125
 21
-230.551
  0
LINE
  8
0
 10
-201.125
 20
-230.551
 11
-200.904
 21
-230.44
  0
LINE
  8
0
 10
-200.904
 20
-230.44
 11
-200.672
 21
-230.353
  0
LINE
  8
0
 10
-200.672
 20
-230.353
 11
-200.431
 21
-230.292
  0
LINE
  8
0
 10
-200.431
 20
-230.292
 11
-200.186
 21
-230.258
  0
LINE
  8
0
 10
-200.186
 20
-230.258
 11
-199.938
 21
-230.251
  0
LINE
  8
0
 10
-199.938
 20
-230.251
 11
-199.691
 21
-230.271
  0
LINE
  8
0
 10
-199.691
 20
-230.271
 11
-199.448
 21
-230.319
  0
LINE
  8
0
 10
-199.448
 20
-230.319
 11
-199.211
 21
-230.393
  0
LINE
  8
0
 10
-199.211
 20
-230.393
 11
-198.984
 21
-230.492
  0
LINE
  8
0
 10
-198.984
 20
-230.492
 11
-198.769
 21
-230.616
  0
LINE
  8
0
 10
-198.769
 20
-230.616
 11
-198.57
 21
-230.763
  0
LINE
  8
0
 10
-198.57
 20
-230.763
 11
-198.387
 21
-230.931
  0
LINE
  8
0
 10
-198.387
 20
-230.931
 11
-198.224
 21
-231.118
  0
LINE
  8
0
 10
-198.224
 20
-231.118
 11
-198.083
 21
-231.322
  0
LINE
  8
0
 10
-198.083
 20
-231.322
 11
-197.965
 21
-231.54
  0
LINE
  8
0
 10
-197.965
 20
-231.54
 11
-197.872
 21
-231.769
  0
LINE
  8
0
 10
-197.872
 20
-231.769
 11
-197.804
 21
-232.008
  0
LINE
  8
0
 10
-197.804
 20
-232.008
 11
-197.764
 21
-232.252
  0
LINE
  8
0
 10
-197.764
 20
-232.252
 11
-197.75
 21
-232.5
  0
LINE
  8
0
 10
-197.75
 20
-232.5
 11
-197.764
 21
-232.748
  0
LINE
  8
0
 10
-197.764
 20
-232.748
 11
-197.804
 21
-232.992
  0
LINE
  8
0
 10
-197.804
 20
-232.992
 11
-197.872
 21
-233.231
  0
LINE
  8
0
 10
-197.872
 20
-233.231
 11
-197.965
 21
-233.46
  0
LINE
  8
0
 10
-197.965
 20
-233.46
 11
-198.083
 21
-233.678
  0
LINE
  8
0
 10
-198.083
 20
-233.678
 11
-198.224
 21
-233.882
  0
LINE
  8
0
 10
-198.224
 20
-233.882
 11
-198.387
 21
-234.069
  0
LINE
  8
0
 10
-198.387
 20
-234.069
 11
-198.57
 21
-234.237
  0
LINE
  8
0
 10
-198.57
 20
-234.237
 11
-198.769
 21
-234.384
  0
LINE
  8
0
 10
-198.769
 20
-234.384
 11
-198.984
 21
-234.508
  0
LINE
  8
0
 10
-198.984
 20
-234.508
 11
-199.211
 21
-234.607
  0
LINE
  8
0
 10
-199.211
 20
-234.607
 11
-199.448
 21
-234.681
  0
LINE
  8
0
 10
-199.448
 20
-234.681
 11
-199.691
 21
-234.729
  0
LINE
  8
0
 10
-199.691
 20
-234.729
 11
-199.938
 21
-234.749
  0
LINE
  8
0
 10
-199.938
 20
-234.749
 11
-200.186
 21
-234.742
  0
LINE
  8
0
 10
-100.186
 20
-234.742
 11
-100.431
 21
-234.708
  0
LINE
  8
0
 10
-100.431
 20
-234.708
 11
-100.672
 21
-234.647
  0
LINE
  8
0
 10
-100.672
 20
-234.647
 11
-100.904
 21
-234.56
  0
LINE
  8
0
 10
-100.904
 20
-234.56
 11
-101.125
 21
-234.449
  0
LINE
  8
0
 10
-101.125
 20
-234.449
 11
-101.333
 21
-234.313
  0
LINE
  8
0
 10
-101.333
 20
-234.313
 11
-101.524
 21
-234.155
  0
LINE
  8
0
 10
-101.524
 20
-234.155
 11
-101.697
 21
-233.978
  0
LINE
  8
0
 10
-101.697
 20
-233.978
 11
-101.849
 21
-233.782
  0
LINE
  8
0
 10
-101.849
 20
-233.782
 11
-101.979
 21
-233.571
  0
LINE
  8
0
 10
-101.979
 20
-233.571
 11
-102.085
 21
-233.347
  0
LINE
  8
0
 10
-102.085
 20
-233.347
 11
-102.165
 21
-233.112
  0
LINE
  8
0
 10
-102.165
 20
-233.112
 11
-102.219
 21
-232.87
  0
LINE
  8
0
 10
-102.219
 20
-232.87
 11
-102.247
 21
-232.624
  0
LINE
  8
0
 10
-102.247
 20
-232.624
 11
-102.247
 21
-232.376
  0
LINE
  8
0
 10
-102.247
 20
-232.376
 11
-102.219
 21
-232.13
  0
LINE
  8
0
 10
-102.219
 20
-232.13
 11
-102.165
 21
-231.888
  0
LINE
  8
0
 10
-102.165
 20
-231.888
 11
-102.085
 21
-231.653
  0
LINE
  8
0
 10
-102.085
 20
-231.653
 11
-101.979
 21
-231.429
  0
LINE
  8
0
 10
-101.979
 20
-231.429
 11
-101.849
 21
-231.218
  0
LINE
  8
0
 10
-101.849
 20
-231.218
 11
-101.697
 21
-231.022
  0
LINE
  8
0
 10
-101.697
 20
-231.022
 11
-101.524
 21
-230.845
  0
LINE
  8
0
 10
-101.524
 20
-230.845
 11
-101.333
 21
-230.687
  0
LINE
  8
0
 10
-101.333
 20
-230.687
 11
-101.125
 21
-230.551
  0
LINE
  8
0
 10
-101.125
 20
-230.551
 11
-100.904
 21
-230.44
  0
LINE
  8
0
 10
-100.904
 20
-230.44
 11
-100.672
 21
-230.353
  0
LINE
  8
0
 10
-100.672
 20
-230.353
 11
-100.431
 21
-230.292
  0
LINE
  8
0
 10
-100.431
 20
-230.292
 11
-100.186
 21
-230.258
  0
LINE
  8
0
 10
-100.186
 20
-230.258
 11
-99.938
 21
-230.251
  0
LINE
  8
0
 10
-99.938
 20
-230.251
 11
-99.6909
 21
-230.271
  0
LINE
  8
0
 10
-99.6909
 20
-230.271
 11
-99.4476
 21
-230.319
  0
LINE
  8
0
 10
-99.4476
 20
-230.319
 11
-99.2111
 21
-230.393
  0
LINE
  8
0
 10
-99.2111
 20
-230.393
 11
-98.984
 21
-230.492
  0
LINE
  8
0
 10
-98.984
 20
-230.492
 11
-98.7694
 21
-230.616
  0
LINE
  8
0
 10
-98.7694
 20
-230.616
 11
-98.5696
 21
-230.763
  0
LINE
  8
0
 10
-98.5696
 20
-230.763
 11
-98.3872
 21
-230.931
  0
LINE
  8
0
 10
-98.3872
 20
-230.931
 11
-98.2244
 21
-231.118
  0
LINE
  8
0
 10
-98.2244
 20
-231.118
 11
-98.0832
 21
-231.322
  0
LINE
  8
0
 10
-98.0832
 20
-231.322
 11
-97.9652
 21
-231.54
  0
LINE
  8
0
 10
-97.9652
 20
-231.54
 11
-97.8719
 21
-231.769
  0
LINE
  8
0
 10
-97.8719
 20
-231.769
 11
-97.8045
 21
-232.008
  0
LINE
  8
0
 10
-97.8045
 20
-232.008
 11
-97.7637
 21
-232.252
  0
LINE
  8
0
 10
-97.7637
 20
-232.252
 11
-97.75
 21
-232.5
  0
LINE
  8
0
 10
-97.75
 20
-232.5
 11
-97.7637
 21
-232.748
  0
LINE
  8
0
 10
-97.7637
 20
-232.748
 11
-97.8045
 21
-232.992
  0
LINE
  8
0
 10
-97.8045
 20
-232.992
 11
-97.8719
 21
-233.231
  0
LINE
  8
0
 10
-97.8719
 20
-233.231
 11
-97.9652
 21
-233.46
  0
LINE
  8
0
 10
-97.9652
 20
-233.46
 11
-98.0832
 21
-233.678
  0
LINE
  8
0
 10
-98.0832
 20
-233.678
 11
-98.2244
 21
-233.882
  0
LINE
  8
0
 10
-98.2244
 20
-233.882
 11
-98.3872
 21
-234.069
  0
LINE
  8
0
 10
-98.3872
 20
-234.069
 11
-98.5696
 21
-234.237
  0
LINE
  8
0
 10
-98.5696
 20
-234.237
 11
-98.7694
 21
-234.384
  0
LINE
  8
0
 10
-98.7694
 20
-234.384
 11
-98.984
 21
-234.508
  0
LINE
  8
0
 10
-98.984
 20
-234.508
 11
-99.2111
 21
-234.607
  0
LINE
  8
0
 10
-99.2111
 20
-234.607
 11
-99.4476
 21
-234.681
  0
LINE
  8
0
 10
-99.4476
 20
-234.681
 11
-99.6909
 21
-234.729
  0
LINE
  8
0
 10
-99.6909
 20
-234.729
 11
-99.938
 21
-234.749
  0
LINE
  8
0
 10
-99.938
 20
-234.749
 11
-100.186
 21
-234.742
  0
LINE
  8
0
 10
99.8142
 20
-234.742
 11
99.5686
 21
-234.708
  0
LINE
  8
0
 10
99.5686
 20
-234.708
 11
99.3283
 21
-234.647
  0
LINE
  8
0
 10
99.3283
 20
-234.647
 11
99.0962
 21
-234.56
  0
LINE
  8
0
 10
99.0962
 20
-234.56
 11
98.875
 21
-234.449
  0
LINE
  8
0
 10
98.875
 20
-234.449
 11
98.6675
 21
-234.313
  0
LINE
  8
0
 10
98.6675
 20
-234.313
 11
98.4761
 21
-234.155
  0
LINE
  8
0
 10
98.4761
 20
-234.155
 11
98.3033
 21
-233.978
  0
LINE
  8
0
 10
98.3033
 20
-233.978
 11
98.151
 21
-233.782
  0
LINE
  8
0
 10
98.151
 20
-233.782
 11
98.0212
 21
-233.571
  0
LINE
  8
0
 10
98.0212
 20
-233.571
 11
97.9154
 21
-233.347
  0
LINE
  8
0
 10
97.9154
 20
-233.347
 11
97.8349
 21
-233.112
  0
LINE
  8
0
 10
97.8349
 20
-233.112
 11
97.7807
 21
-232.87
  0
LINE
  8
0
 10
97.7807
 20
-232.87
 11
97.7534
 21
-232.624
  0
LINE
  8
0
 10
97.7534
 20
-232.624
 11
97.7534
 21
-232.376
  0
LINE
  8
0
 10
97.7534
 20
-232.376
 11
97.7807
 21
-232.13
  0
LINE
  8
0
 10
97.7807
 20
-232.13
 11
97.8349
 21
-231.888
  0
LINE
  8
0
 10
97.8349
 20
-231.888
 11
97.9154
 21
-231.653
  0
LINE
  8
0
 10
97.9154
 20
-231.653
 11
98.0212
 21
-231.429
  0
LINE
  8
0
 10
98.0212
 20
-231.429
 11
98.151
 21
-231.218
  0
LINE
  8
0
 10
98.151
 20
-231.218
 11
98.3033
 21
-231.022
  0
LINE
  8
0
 10
98.3033
 20
-231.022
 11
98.4761
 21
-230.845
  0
LINE
  8
0
 10
98.4761
 20
-230.845
 11
98.6675
 21
-230.687
  0
LINE
  8
0
 10
98.6675
 20
-230.687
 11
98.875
 21
-230.551
  0
LINE
  8
0
 10
98.875
 20
-230.551
 11
99.0962
 21
-230.44
  0
LINE
  8
0
 10
99.0962
 20
-230.44
 11
99.3283
 21
-230.353
  0
LINE
  8
0
 10
99.3283
 20
-230.353
 11
99.5686
 21
-230.292
  0
LINE
  8
0
 10
99.5686
 20
-230.292
 11
99.8142
 21
-230.258
  0
LINE
  8
0
 10
99.8142
 20
-230.258
 11
100.062
 21
-230.251
  0
LINE
  8
0
 10
100.062
 20
-230.251
 11
100.309
 21
-230.271
  0
LINE
  8
0
 10
100.309
 20
-230.271
 11
100.552
 21
-230.319
  0
LINE
  8
0
 10
100.552
 20
-230.319
 11
100.789
 21
-230.393
  0
LINE
  8
0
 10
100.789
 20
-230.393
 11
101.016
 21
-230.492
  0
LINE
  8
0
 10
101.016
 20
-230.492
 11
101.231
 21
-230.616
  0
LINE
  8
0
 10
101.231
 20
-230.616
 11
101.43
 21
-230.763
  0
LINE
  8
0
 10
101.43
 20
-230.763
 11
101.613
 21
-230.931
  0
LINE
  8
0
 10
101.613
 20
-230.931
 11
101.776
 21
-231.118
  0
LINE
  8
0
 10
101.776
 20
-231.118
 11
101.917
 21
-231.322
  0
LINE
  8
0
 10
101.917
 20
-231.322
 11
102.035
 21
-231.54
  0
LINE
  8
0
 10
102.035
 20
-231.54
 11
102.128
 21
-231.769
  0
LINE
  8
0
 10
102.128
 20
-231.769
 11
102.196
 21
-232.008
  0
LINE
  8
0
 10
102.196
 20
-232.008
 11
102.236
 21
-232.252
  0
LINE
  8
0
 10
102.236
 20
-232.252
 11
102.25
 21
-232.5
  0
LINE
  8
0
 10
102.25
 20
-232.5
 11
102.236
 21
-232.748
  0
LINE
  8
0
 10
102.236
 20
-232.748
 11
102.196
 21
-232.992
  0
LINE
  8
0
 10
102.196
 20
-232.992
 11
102.128
 21
-233.231
  0
LINE
  8
0
 10
102.128
 20
-233.231
 11
102.035
 21
-233.46
  0
LINE
  8
0
 10
102.035
 20
-233.46
 11
101.917
 21
-233.678
  0
LINE
  8
0
 10
101.917
 20
-233.678
 11
101.776
 21
-233.882
  0
LINE
  8
0
 10
101.776
 20
-233.882
 11
101.613
 21
-234.069
  0
LINE
  8
0
 10
101.613
 20
-234.069
 11
101.43
 21
-234.237
  0
LINE
  8
0
 10
101.43
 20
-234.237
 11
101.231
 21
-234.384
  0
LINE
  8
0
 10
101.231
 20
-234.384
 11
101.016
 21
-234.508
  0
LINE
  8
0
 10
101.016
 20
-234.508
 11
100.789
 21
-234.607
  0
LINE
  8
0
 10
100.789
 20
-234.607
 11
100.552
 21
-234.681
  0
LINE
  8
0
 10
100.552
 20
-234.681
 11
100.309
 21
-234.729
  0
LINE
  8
0
 10
100.309
 20
-234.729
 11
100.062
 21
-234.749
  0
LINE
  8
0
 10
100.062
 20
-234.749
 11
99.8142
 21
-234.742
  0
LINE
  8
0
 10
199.814
 20
-234.742
 11
199.569
 21
-234.708
  0
LINE
  8
0
 10
199.569
 20
-234.708
 11
199.328
 21
-234.647
  0
LINE
  8
0
 10
199.328
 20
-234.647
 11
199.096
 21
-234.56
  0
LINE
  8
0
 10
199.096
 20
-234.56
 11
198.875
 21
-234.449
  0
LINE
  8
0
 10
198.875
 20
-234.449
 11
198.667
 21
-234.313
  0
LINE
  8
0
 10
198.667
 20
-234.313
 11
198.476
 21
-234.155
  0
LINE
  8
0
 10
198.476
 20
-234.155
 11
198.303
 21
-233.978
  0
LINE
  8
0
 10
198.303
 20
-233.978
 11
198.151
 21
-233.782
  0
LINE
  8
0
 10
198.151
 20
-233.782
 11
198.021
 21
-233.571
  0
LINE
  8
0
 10
198.021
 20
-233.571
 11
197.915
 21
-233.347
  0
LINE
  8
0
 10
197.915
 20
-233.347
 11
197.835
 21
-233.112
  0
LINE
  8
0
 10
197.835
 20
-233.112
 11
197.781
 21
-232.87
  0
LINE
  8
0
 10
197.781
 20
-232.87
 11
197.753
 21
-232.624
  0
LINE
  8
0
 10
197.753
 20
-232.624
 11
197.753
 21
-232.376
  0
LINE
  8
0
 10
197.753
 20
-232.376
 11
197.781
 21
-232.13
  0
LINE
  8
0
 10
197.781
 20
-232.13
 11
197.835
 21
-231.888
  0
LINE
  8
0
 10
197.835
 20
-231.888
 11
197.915
 21
-231.653
  0
LINE
  8
0
 10
197.915
 20
-231.653
 11
198.021
 21
-231.429
  0
LINE
  8
0
 10
198.021
 20
-231.429
 11
198.151
 21
-231.218
  0
LINE
  8
0
 10
198.151
 20
-231.218
 11
198.303
 21
-231.022
  0
LINE
  8
0
 10
198.303
 20
-231.022
 11
198.476
 21
-230.845
  0
LINE
  8
0
 10
198.476
 20
-230.845
 11
198.667
 21
-230.687
  0
LINE
  8
0
 10
198.667
 20
-230.687
 11
198.875
 21
-230.551
  0
LINE
  8
0
 10
198.875
 20
-230.551
 11
199.096
 21
-230.44
  0
LINE
  8
0
 10
199.096
 20
-230.44
 11
199.328
 21
-230.353
  0
LINE
  8
0
 10
199.328
 20
-230.353
 11
199.569
 21
-230.292
  0
LINE
  8
0
 10
199.569
 20
-230.292
 11
199.814
 21
-230.258
  0
LINE
  8
0
 10
199.814
 20
-230.258
 11
200.062
 21
-230.251
  0
LINE
  8
0
 10
200.062
 20
-230.251
 11
200.309
 21
-230.271
  0
LINE
  8
0
 10
200.309
 20
-230.271
 11
200.552
 21
-230.319
  0
LINE
  8
0
 10
200.552
 20
-230.319
 11
200.789
 21
-230.393
  0
LINE
  8
0
 10
200.789
 20
-230.393
 11
201.016
 21
-230.492
  0
LINE
  8
0
 10
201.016
 20
-230.492
 11
201.231
 21
-230.616
  0
LINE
  8
0
 10
201.231
 20
-230.616
 11
201.43
 21
-230.763
  0
LINE
  8
0
 10
201.43
 20
-230.763
 11
201.613
 21
-230.931
  0
LINE
  8
0
 10
201.613
 20
-230.931
 11
201.776
 21
-231.118
  0
LINE
  8
0
 10
201.776
 20
-231.118
 11
201.917
 21
-231.322
  0
LINE
  8
0
 10
201.917
 20
-231.322
 11
202.035
 21
-231.54
  0
LINE
  8
0
 10
202.035
 20
-231.54
 11
202.128
 21
-231.769
  0
LINE
  8
0
 10
202.128
 20
-231.769
 11
202.196
 21
-232.008
  0
LINE
  8
0
 10
202.196
 20
-232.008
 11
202.236
 21
-232.252
  0
LINE
  8
0
 10
202.236
 20
-232.252
 11
202.25
 21
-232.5
  0
LINE
  8
0
 10
202.25
 20
-232.5
 11
202.236
 21
-232.748
  0
LINE
  8
0
 10
202.236
 20
-232.748
 11
202.196
 21
-232.992
  0
LINE
  8
0
 10
202.196
 20
-232.992
 11
202.128
 21
-233.231
  0
LINE
  8
0
 10
202.128
 20
-233.231
 11
202.035
 21
-233.46
  0
LINE
  8
0
 10
202.035
 20
-233.46
 11
201.917
 21
-233.678
  0
LINE
  8
0
 10
201.917
 20
-233.678
 11
201.776
 21
-233.882
  0
LINE
  8
0
 10
201.776
 20
-233.882
 11
201.613
 21
-234.069
  0
LINE
  8
0
 10
201.613
 20
-234.069
 11
201.43
 21
-234.237
  0
LINE
  8
0
 10
201.43
 20
-234.237
 11
201.231
 21
-234.384
  0
LINE
  8
0
 10
201.231
 20
-234.384
 11
201.016
 21
-234.508
  0
LINE
  8
0
 10
201.016
 20
-234.508
 11
200.789
 21
-234.607
  0
LINE
  8
0
 10
200.789
 20
-234.607
 11
200.552
 21
-234.681
  0
LINE
  8
0
 10
200.552
 20
-234.681
 11
200.309
 21
-234.729
  0
LINE
  8
0
 10
200.309
 20
-234.729
 11
200.062
 21
-234.749
  0
LINE
  8
0
 10
200.062
 20
-234.749
 11
199.814
 21
-234.742
  0
LINE
  8
0
 10
-0.185791
 20
-234.742
 11
-0.431335
 21
-234.708
  0
LINE
  8
0
 10
-0.431335
 20
-234.708
 11
-0.671646
 21
-234.647
  0
LINE
  8
0
 10
-0.671646
 20
-234.647
 11
-0.903809
 21
-234.56
  0
LINE
  8
0
 10
-0.903809
 20
-234.56
 11
-1.125
 21
-234.449
  0
LINE
  8
0
 10
-1.125
 20
-234.449
 11
-1.33252
 21
-234.313
  0
LINE
  8
0
 10
-1.33252
 20
-234.313
 11
-1.52388
 21
-234.155
  0
LINE
  8
0
 10
-1.52388
 20
-234.155
 11
-1.69673
 21
-233.978
  0
LINE
  8
0
 10
-1.69673
 20
-233.978
 11
-1.849
 21
-233.782
  0
LINE
  8
0
 10
-1.849
 20
-233.782
 11
-1.97881
 21
-233.571
  0
LINE
  8
0
 10
-1.97881
 20
-233.571
 11
-2.08461
 21
-233.347
  0
LINE
  8
0
 10
-2.08461
 20
-233.347
 11
-2.1651
 21
-233.112
  0
LINE
  8
0
 10
-2.1651
 20
-233.112
 11
-2.2193
 21
-232.87
  0
LINE
  8
0
 10
-2.2193
 20
-232.87
 11
-2.24658
 21
-232.624
  0
LINE
  8
0
 10
-2.24658
 20
-232.624
 11
-2.24658
 21
-232.376
  0
LINE
  8
0
 10
-2.24658
 20
-232.376
 11
-2.2193
 21
-232.13
  0
LINE
  8
0
 10
-2.2193
 20
-232.13
 11
-2.1651
 21
-231.888
  0
LINE
  8
0
 10
-2.1651
 20
-231.888
 11
-2.08461
 21
-231.653
  0
LINE
  8
0
 10
-2.08461
 20
-231.653
 11
-1.97881
 21
-231.429
  0
LINE
  8
0
 10
-1.97881
 20
-231.429
 11
-1.849
 21
-231.218
  0
LINE
  8
0
 10
-1.849
 20
-231.218
 11
-1.69673
 21
-231.022
  0
LINE
  8
0
 10
-1.69673
 20
-231.022
 11
-1.52388
 21
-230.845
  0
LINE
  8
0
 10
-1.52388
 20
-230.845
 11
-1.33252
 21
-230.687
  0
LINE
  8
0
 10
-1.33252
 20
-230.687
 11
-1.125
 21
-230.551
  0
LINE
  8
0
 10
-1.125
 20
-230.551
 11
-0.903809
 21
-230.44
  0
LINE
  8
0
 10
-0.903809
 20
-230.44
 11
-0.671646
 21
-230.353
  0
LINE
  8
0
 10
-0.671646
 20
-230.353
 11
-0.431335
 21
-230.292
  0
LINE
  8
0
 10
-0.431335
 20
-230.292
 11
-0.185791
 21
-230.258
  0
LINE
  8
0
 10
-0.185791
 20
-230.258
 11
0.0619965
 21
-230.251
  0
LINE
  8
0
 10
0.0619965
 20
-230.251
 11
0.309036
 21
-230.271
  0
LINE
  8
0
 10
0.309036
 20
-230.271
 11
0.552338
 21
-230.319
  0
LINE
  8
0
 10
0.552338
 20
-230.319
 11
0.788925
 21
-230.393
  0
LINE
  8
0
 10
0.788925
 20
-230.393
 11
1.01595
 21
-230.492
  0
LINE
  8
0
 10
1.01595
 20
-230.492
 11
1.23062
 21
-230.616
  0
LINE
  8
0
 10
1.23062
 20
-230.616
 11
1.43037
 21
-230.763
  0
LINE
  8
0
 10
1.43037
 20
-230.763
 11
1.61275
 21
-230.931
  0
LINE
  8
0
 10
1.61275
 20
-230.931
 11
1.77556
 21
-231.118
  0
LINE
  8
0
 10
1.77556
 20
-231.118
 11
1.91681
 21
-231.322
  0
LINE
  8
0
 10
1.91681
 20
-231.322
 11
2.03479
 21
-231.54
  0
LINE
  8
0
 10
2.03479
 20
-231.54
 11
2.12808
 21
-231.769
  0
LINE
  8
0
 10
2.12808
 20
-231.769
 11
2.19554
 21
-232.008
  0
LINE
  8
0
 10
2.19554
 20
-232.008
 11
2.23634
 21
-232.252
  0
LINE
  8
0
 10
2.23634
 20
-232.252
 11
2.25
 21
-232.5
  0
LINE
  8
0
 10
2.25
 20
-232.5
 11
2.23634
 21
-232.748
  0
LINE
  8
0
 10
2.23634
 20
-232.748
 11
2.19554
 21
-232.992
  0
LINE
  8
0
 10
2.19554
 20
-232.992
 11
2.12808
 21
-233.231
  0
LINE
  8
0
 10
2.12808
 20
-233.231
 11
2.03479
 21
-233.46
  0
LINE
  8
0
 10
2.03479
 20
-233.46
 11
1.91681
 21
-233.678
  0
LINE
  8
0
 10
1.91681
 20
-233.678
 11
1.77556
 21
-233.882
  0
LINE
  8
0
 10
1.77556
 20
-233.882
 11
1.61275
 21
-234.069
  0
LINE
  8
0
 10
1.61275
 20
-234.069
 11
1.43037
 21
-234.237
  0
LINE
  8
0
 10
1.43037
 20
-234.237
 11
1.23062
 21
-234.384
  0
LINE
  8
0
 10
1.23062
 20
-234.384
 11
1.01595
 21
-234.508
  0
LINE
  8
0
 10
1.01595
 20
-234.508
 11
0.788925
 21
-234.607
  0
LINE
  8
0
 10
0.788925
 20
-234.607
 11
0.552338
 21
-234.681
  0
LINE
  8
0
 10
0.552338
 20
-234.681
 11
0.309036
 21
-234.729
  0
LINE
  8
0
 10
0.309036
 20
-234.729
 11
0.0619965
 21
-234.749
  0
LINE
  8
0
 10
0.0619965
 20
-234.749
 11
-0.185791
 21
-234.742
  0
ENDSEC
  0
SECTION
  2
OBJECTS
  0
DICTIONARY
  0
ENDSEC
  0
EOF
