  0
SECTION
  2
BLOCKS
  0
ENDSEC
  0
SECTION
  2
ENTITIES
  0
LINE
  8
0
 10
243.898
 20
-89.8476
 11
244.415
 21
-89.7657
  0
LINE
  8
0
 10
244.415
 20
-89.7657
 11
244.92
 21
-89.6303
  0
LINE
  8
0
 10
244.92
 20
-89.6303
 11
245.409
 21
-89.4427
  0
LINE
  8
0
 10
245.409
 20
-89.4427
 11
245.875
 21
-89.2051
  0
LINE
  8
0
 10
245.875
 20
-89.2051
 11
246.314
 21
-88.9201
  0
LINE
  8
0
 10
246.314
 20
-88.9201
 11
246.721
 21
-88.5907
  0
LINE
  8
0
 10
246.721
 20
-88.5907
 11
247.091
 21
-88.2207
  0
LINE
  8
0
 10
247.091
 20
-88.2207
 11
247.42
 21
-87.8139
  0
LINE
  8
0
 10
247.42
 20
-87.8139
 11
247.705
 21
-87.375
  0
LINE
  8
0
 10
247.705
 20
-87.375
 11
247.943
 21
-86.9087
  0
LINE
  8
0
 10
247.943
 20
-86.9087
 11
248.13
 21
-86.4201
  0
LINE
  8
0
 10
248.13
 20
-86.4201
 11
248.266
 21
-85.9146
  0
LINE
  8
0
 10
248.266
 20
-85.9146
 11
248.348
 21
-85.3976
  0
LINE
  8
0
 10
248.348
 20
-85.3976
 11
248.375
 21
-84.875
  0
LINE
  8
0
 10
248.375
 20
-84.875
 11
248.375
 21
84.875
  0
LINE
  8
0
 10
248.375
 20
84.875
 11
248.348
 21
85.3976
  0
LINE
  8
0
 10
248.348
 20
85.3976
 11
248.266
 21
85.9146
  0
LINE
  8
0
 10
248.266
 20
85.9146
 11
248.13
 21
86.4201
  0
LINE
  8
0
 10
248.13
 20
86.4201
 11
247.943
 21
86.9087
  0
LINE
  8
0
 10
247.943
 20
86.9087
 11
247.705
 21
87.375
  0
LINE
  8
0
 10
247.705
 20
87.375
 11
247.42
 21
87.8139
  0
LINE
  8
0
 10
247.42
 20
87.8139
 11
247.091
 21
88.2207
  0
LINE
  8
0
 10
247.091
 20
88.2207
 11
246.721
 21
88.5907
  0
LINE
  8
0
 10
246.721
 20
88.5907
 11
246.314
 21
88.9201
  0
LINE
  8
0
 10
246.314
 20
88.9201
 11
245.875
 21
89.2051
  0
LINE
  8
0
 10
245.875
 20
89.2051
 11
245.409
 21
89.4427
  0
LINE
  8
0
 10
245.409
 20
89.4427
 11
244.92
 21
89.6303
  0
LINE
  8
0
 10
244.92
 20
89.6303
 11
244.415
 21
89.7657
  0
LINE
  8
0
 10
244.415
 20
89.7657
 11
243.898
 21
89.8476
  0
LINE
  8
0
 10
243.898
 20
89.8476
 11
243.375
 21
89.875
  0
LINE
  8
0
 10
243.375
 20
89.875
 11
-243.375
 21
89.875
  0
LINE
  8
0
 10
-243.375
 20
89.875
 11
-243.898
 21
89.8476
  0
LINE
  8
0
 10
-243.898
 20
89.8476
 11
-244.415
 21
89.7657
  0
LINE
  8
0
 10
-244.415
 20
89.7657
 11
-244.92
 21
89.6303
  0
LINE
  8
0
 10
-244.92
 20
89.6303
 11
-245.409
 21
89.4427
  0
LINE
  8
0
 10
-245.409
 20
89.4427
 11
-245.875
 21
89.2051
  0
LINE
  8
0
 10
-245.875
 20
89.2051
 11
-246.314
 21
88.9201
  0
LINE
  8
0
 10
-246.314
 20
88.9201
 11
-246.721
 21
88.5907
  0
LINE
  8
0
 10
-246.721
 20
88.5907
 11
-247.091
 21
88.2207
  0
LINE
  8
0
 10
-247.091
 20
88.2207
 11
-247.42
 21
87.8139
  0
LINE
  8
0
 10
-247.42
 20
87.8139
 11
-247.705
 21
87.375
  0
LINE
  8
0
 10
-247.705
 20
87.375
 11
-247.943
 21
86.9087
  0
LINE
  8
0
 10
-247.943
 20
86.9087
 11
-248.13
 21
86.4201
  0
LINE
  8
0
 10
-248.13
 20
86.4201
 11
-248.266
 21
85.9146
  0
LINE
  8
0
 10
-248.266
 20
85.9146
 11
-248.348
 21
85.3976
  0
LINE
  8
0
 10
-248.348
 20
85.3976
 11
-248.375
 21
84.875
  0
LINE
  8
0
 10
-248.375
 20
84.875
 11
-248.375
 21
-84.875
  0
LINE
  8
0
 10
-248.375
 20
-84.875
 11
-248.348
 21
-85.3976
  0
LINE
  8
0
 10
-248.348
 20
-85.3976
 11
-248.266
 21
-85.9146
  0
LINE
  8
0
 10
-248.266
 20
-85.9146
 11
-248.13
 21
-86.4201
  0
LINE
  8
0
 10
-248.13
 20
-86.4201
 11
-247.943
 21
-86.9087
  0
LINE
  8
0
 10
-247.943
 20
-86.9087
 11
-247.705
 21
-87.375
  0
LINE
  8
0
 10
-247.705
 20
-87.375
 11
-247.42
 21
-87.8139
  0
LINE
  8
0
 10
-247.42
 20
-87.8139
 11
-247.091
 21
-88.2207
  0
LINE
  8
0
 10
-247.091
 20
-88.2207
 11
-246.721
 21
-88.5907
  0
LINE
  8
0
 10
-246.721
 20
-88.5907
 11
-246.314
 21
-88.9201
  0
LINE
  8
0
 10
-246.314
 20
-88.9201
 11
-245.875
 21
-89.2051
  0
LINE
  8
0
 10
-245.875
 20
-89.2051
 11
-245.409
 21
-89.4427
  0
LINE
  8
0
 10
-245.409
 20
-89.4427
 11
-244.92
 21
-89.6303
  0
LINE
  8
0
 10
-244.92
 20
-89.6303
 11
-244.415
 21
-89.7657
  0
LINE
  8
0
 10
-244.415
 20
-89.7657
 11
-243.898
 21
-89.8476
  0
LINE
  8
0
 10
-243.898
 20
-89.8476
 11
-243.375
 21
-89.875
  0
LINE
  8
0
 10
-243.375
 20
-89.875
 11
243.375
 21
-89.875
  0
LINE
  8
0
 10
243.375
 20
-89.875
 11
243.898
 21
-89.8476
  0
LINE
  8
0
 10
237.977
 20
75.0274
 11
237.46
 21
75.1093
  0
LINE
  8
0
 10
237.46
 20
75.1093
 11
236.955
 21
75.2447
  0
LINE
  8
0
 10
236.955
 20
75.2447
 11
236.466
 21
75.4323
  0
LINE
  8
0
 10
236.466
 20
75.4323
 11
236
 21
75.6699
  0
LINE
  8
0
 10
236
 20
75.6699
 11
235.561
 21
75.9549
  0
LINE
  8
0
 10
235.561
 20
75.9549
 11
235.154
 21
76.2843
  0
LINE
  8
0
 10
235.154
 20
76.2843
 11
234.784
 21
76.6543
  0
LINE
  8
0
 10
234.784
 20
76.6543
 11
234.455
 21
77.0611
  0
LINE
  8
0
 10
234.455
 20
77.0611
 11
234.17
 21
77.5
  0
LINE
  8
0
 10
234.17
 20
77.5
 11
233.932
 21
77.9663
  0
LINE
  8
0
 10
233.932
 20
77.9663
 11
233.745
 21
78.4549
  0
LINE
  8
0
 10
233.745
 20
78.4549
 11
233.609
 21
78.9604
  0
LINE
  8
0
 10
233.609
 20
78.9604
 11
233.527
 21
79.4774
  0
LINE
  8
0
 10
233.527
 20
79.4774
 11
233.5
 21
80
  0
LINE
  8
0
 10
233.5
 20
80
 11
233.527
 21
80.5226
  0
LINE
  8
0
 10
233.527
 20
80.5226
 11
233.609
 21
81.0396
  0
LINE
  8
0
 10
233.609
 20
81.0396
 11
233.745
 21
81.5451
  0
LINE
  8
0
 10
233.745
 20
81.5451
 11
233.932
 21
82.0337
  0
LINE
  8
0
 10
233.932
 20
82.0337
 11
234.17
 21
82.5
  0
LINE
  8
0
 10
234.17
 20
82.5
 11
234.455
 21
82.9389
  0
LINE
  8
0
 10
234.455
 20
82.9389
 11
234.784
 21
83.3456
  0
LINE
  8
0
 10
234.784
 20
83.3456
 11
235.154
 21
83.7157
  0
LINE
  8
0
 10
235.154
 20
83.7157
 11
235.561
 21
84.0451
  0
LINE
  8
0
 10
235.561
 20
84.0451
 11
236
 21
84.3301
  0
LINE
  8
0
 10
236
 20
84.3301
 11
236.466
 21
84.5677
  0
LINE
  8
0
 10
236.466
 20
84.5677
 11
236.955
 21
84.7553
  0
LINE
  8
0
 10
236.955
 20
84.7553
 11
237.46
 21
84.8907
  0
LINE
  8
0
 10
237.46
 20
84.8907
 11
237.977
 21
84.9726
  0
LINE
  8
0
 10
237.977
 20
84.9726
 11
238.5
 21
85
  0
LINE
  8
0
 10
238.5
 20
85
 11
239.023
 21
84.9726
  0
LINE
  8
0
 10
239.023
 20
84.9726
 11
239.54
 21
84.8907
  0
LINE
  8
0
 10
239.54
 20
84.8907
 11
240.045
 21
84.7553
  0
LINE
  8
0
 10
240.045
 20
84.7553
 11
240.534
 21
84.5677
  0
LINE
  8
0
 10
240.534
 20
84.5677
 11
241
 21
84.3301
  0
LINE
  8
0
 10
241
 20
84.3301
 11
241.439
 21
84.0451
  0
LINE
  8
0
 10
241.439
 20
84.0451
 11
241.846
 21
83.7157
  0
LINE
  8
0
 10
241.846
 20
83.7157
 11
242.216
 21
83.3456
  0
LINE
  8
0
 10
242.216
 20
83.3456
 11
242.545
 21
82.9389
  0
LINE
  8
0
 10
242.545
 20
82.9389
 11
242.83
 21
82.5
  0
LINE
  8
0
 10
242.83
 20
82.5
 11
243.068
 21
82.0337
  0
LINE
  8
0
 10
243.068
 20
82.0337
 11
243.255
 21
81.5451
  0
LINE
  8
0
 10
243.255
 20
81.5451
 11
243.391
 21
81.0396
  0
LINE
  8
0
 10
243.391
 20
81.0396
 11
243.473
 21
80.5226
  0
LINE
  8
0
 10
243.473
 20
80.5226
 11
243.5
 21
80
  0
LINE
  8
0
 10
243.5
 20
80
 11
243.473
 21
79.4774
  0
LINE
  8
0
 10
243.473
 20
79.4774
 11
243.391
 21
78.9604
  0
LINE
  8
0
 10
243.391
 20
78.9604
 11
243.255
 21
78.4549
  0
LINE
  8
0
 10
243.255
 20
78.4549
 11
243.068
 21
77.9663
  0
LINE
  8
0
 10
243.068
 20
77.9663
 11
242.83
 21
77.5
  0
LINE
  8
0
 10
242.83
 20
77.5
 11
242.545
 21
77.0611
  0
LINE
  8
0
 10
242.545
 20
77.0611
 11
242.216
 21
76.6543
  0
LINE
  8
0
 10
242.216
 20
76.6543
 11
241.846
 21
76.2843
  0
LINE
  8
0
 10
241.846
 20
76.2843
 11
241.439
 21
75.9549
  0
LINE
  8
0
 10
241.439
 20
75.9549
 11
241
 21
75.6699
  0
LINE
  8
0
 10
241
 20
75.6699
 11
240.534
 21
75.4323
  0
LINE
  8
0
 10
240.534
 20
75.4323
 11
240.045
 21
75.2447
  0
LINE
  8
0
 10
240.045
 20
75.2447
 11
239.54
 21
75.1093
  0
LINE
  8
0
 10
239.54
 20
75.1093
 11
239.023
 21
75.0274
  0
LINE
  8
0
 10
239.023
 20
75.0274
 11
238.5
 21
75
  0
LINE
  8
0
 10
238.5
 20
75
 11
237.977
 21
75.0274
  0
LINE
  8
0
 10
-239.023
 20
75.0274
 11
-239.54
 21
75.1093
  0
LINE
  8
0
 10
-239.54
 20
75.1093
 11
-240.045
 21
75.2447
  0
LINE
  8
0
 10
-240.045
 20
75.2447
 11
-240.534
 21
75.4323
  0
LINE
  8
0
 10
-240.534
 20
75.4323
 11
-241
 21
75.6699
  0
LINE
  8
0
 10
-241
 20
75.6699
 11
-241.439
 21
75.9549
  0
LINE
  8
0
 10
-241.439
 20
75.9549
 11
-241.846
 21
76.2843
  0
LINE
  8
0
 10
-241.846
 20
76.2843
 11
-242.216
 21
76.6543
  0
LINE
  8
0
 10
-242.216
 20
76.6543
 11
-242.545
 21
77.0611
  0
LINE
  8
0
 10
-242.545
 20
77.0611
 11
-242.83
 21
77.5
  0
LINE
  8
0
 10
-242.83
 20
77.5
 11
-243.068
 21
77.9663
  0
LINE
  8
0
 10
-243.068
 20
77.9663
 11
-243.255
 21
78.4549
  0
LINE
  8
0
 10
-243.255
 20
78.4549
 11
-243.391
 21
78.9604
  0
LINE
  8
0
 10
-243.391
 20
78.9604
 11
-243.473
 21
79.4774
  0
LINE
  8
0
 10
-243.473
 20
79.4774
 11
-243.5
 21
80
  0
LINE
  8
0
 10
-243.5
 20
80
 11
-243.473
 21
80.5226
  0
LINE
  8
0
 10
-243.473
 20
80.5226
 11
-243.391
 21
81.0396
  0
LINE
  8
0
 10
-243.391
 20
81.0396
 11
-243.255
 21
81.5451
  0
LINE
  8
0
 10
-243.255
 20
81.5451
 11
-243.068
 21
82.0337
  0
LINE
  8
0
 10
-243.068
 20
82.0337
 11
-242.83
 21
82.5
  0
LINE
  8
0
 10
-242.83
 20
82.5
 11
-242.545
 21
82.9389
  0
LINE
  8
0
 10
-242.545
 20
82.9389
 11
-242.216
 21
83.3456
  0
LINE
  8
0
 10
-242.216
 20
83.3456
 11
-241.846
 21
83.7157
  0
LINE
  8
0
 10
-241.846
 20
83.7157
 11
-241.439
 21
84.0451
  0
LINE
  8
0
 10
-241.439
 20
84.0451
 11
-241
 21
84.3301
  0
LINE
  8
0
 10
-241
 20
84.3301
 11
-240.534
 21
84.5677
  0
LINE
  8
0
 10
-240.534
 20
84.5677
 11
-240.045
 21
84.7553
  0
LINE
  8
0
 10
-240.045
 20
84.7553
 11
-239.54
 21
84.8907
  0
LINE
  8
0
 10
-239.54
 20
84.8907
 11
-239.023
 21
84.9726
  0
LINE
  8
0
 10
-239.023
 20
84.9726
 11
-238.5
 21
85
  0
LINE
  8
0
 10
-238.5
 20
85
 11
-237.977
 21
84.9726
  0
LINE
  8
0
 10
-237.977
 20
84.9726
 11
-237.46
 21
84.8907
  0
LINE
  8
0
 10
-237.46
 20
84.8907
 11
-236.955
 21
84.7553
  0
LINE
  8
0
 10
-236.955
 20
84.7553
 11
-236.466
 21
84.5677
  0
LINE
  8
0
 10
-236.466
 20
84.5677
 11
-236
 21
84.3301
  0
LINE
  8
0
 10
-236
 20
84.3301
 11
-235.561
 21
84.0451
  0
LINE
  8
0
 10
-235.561
 20
84.0451
 11
-235.154
 21
83.7157
  0
LINE
  8
0
 10
-235.154
 20
83.7157
 11
-234.784
 21
83.3456
  0
LINE
  8
0
 10
-234.784
 20
83.3456
 11
-234.455
 21
82.9389
  0
LINE
  8
0
 10
-234.455
 20
82.9389
 11
-234.17
 21
82.5
  0
LINE
  8
0
 10
-234.17
 20
82.5
 11
-233.932
 21
82.0337
  0
LINE
  8
0
 10
-233.932
 20
82.0337
 11
-233.745
 21
81.5451
  0
LINE
  8
0
 10
-233.745
 20
81.5451
 11
-233.609
 21
81.0396
  0
LINE
  8
0
 10
-233.609
 20
81.0396
 11
-233.527
 21
80.5226
  0
LINE
  8
0
 10
-233.527
 20
80.5226
 11
-233.5
 21
80
  0
LINE
  8
0
 10
-233.5
 20
80
 11
-233.527
 21
79.4774
  0
LINE
  8
0
 10
-233.527
 20
79.4774
 11
-233.609
 21
78.9604
  0
LINE
  8
0
 10
-233.609
 20
78.9604
 11
-233.745
 21
78.4549
  0
LINE
  8
0
 10
-233.745
 20
78.4549
 11
-233.932
 21
77.9663
  0
LINE
  8
0
 10
-233.932
 20
77.9663
 11
-234.17
 21
77.5
  0
LINE
  8
0
 10
-234.17
 20
77.5
 11
-234.455
 21
77.0611
  0
LINE
  8
0
 10
-234.455
 20
77.0611
 11
-234.784
 21
76.6543
  0
LINE
  8
0
 10
-234.784
 20
76.6543
 11
-235.154
 21
76.2843
  0
LINE
  8
0
 10
-235.154
 20
76.2843
 11
-235.561
 21
75.9549
  0
LINE
  8
0
 10
-235.561
 20
75.9549
 11
-236
 21
75.6699
  0
LINE
  8
0
 10
-236
 20
75.6699
 11
-236.466
 21
75.4323
  0
LINE
  8
0
 10
-236.466
 20
75.4323
 11
-236.955
 21
75.2447
  0
LINE
  8
0
 10
-236.955
 20
75.2447
 11
-237.46
 21
75.1093
  0
LINE
  8
0
 10
-237.46
 20
75.1093
 11
-237.977
 21
75.0274
  0
LINE
  8
0
 10
-237.977
 20
75.0274
 11
-238.5
 21
75
  0
LINE
  8
0
 10
-238.5
 20
75
 11
-239.023
 21
75.0274
  0
LINE
  8
0
 10
198.314
 20
77.7577
 11
198.069
 21
77.7917
  0
LINE
  8
0
 10
198.069
 20
77.7917
 11
197.828
 21
77.8526
  0
LINE
  8
0
 10
197.828
 20
77.8526
 11
197.596
 21
77.9395
  0
LINE
  8
0
 10
197.596
 20
77.9395
 11
197.375
 21
78.0514
  0
LINE
  8
0
 10
197.375
 20
78.0514
 11
197.167
 21
78.187
  0
LINE
  8
0
 10
197.167
 20
78.187
 11
196.976
 21
78.3446
  0
LINE
  8
0
 10
196.976
 20
78.3446
 11
196.803
 21
78.5223
  0
LINE
  8
0
 10
196.803
 20
78.5223
 11
196.651
 21
78.7179
  0
LINE
  8
0
 10
196.651
 20
78.7179
 11
196.521
 21
78.9291
  0
LINE
  8
0
 10
196.521
 20
78.9291
 11
196.415
 21
79.1533
  0
LINE
  8
0
 10
196.415
 20
79.1533
 11
196.335
 21
79.3878
  0
LINE
  8
0
 10
196.335
 20
79.3878
 11
196.281
 21
79.6297
  0
LINE
  8
0
 10
196.281
 20
79.6297
 11
196.253
 21
79.8761
  0
LINE
  8
0
 10
196.253
 20
79.8761
 11
196.253
 21
80.1239
  0
LINE
  8
0
 10
196.253
 20
80.1239
 11
196.281
 21
80.3703
  0
LINE
  8
0
 10
196.281
 20
80.3703
 11
196.335
 21
80.6122
  0
LINE
  8
0
 10
196.335
 20
80.6122
 11
196.415
 21
80.8467
  0
LINE
  8
0
 10
196.415
 20
80.8467
 11
196.521
 21
81.0709
  0
LINE
  8
0
 10
196.521
 20
81.0709
 11
196.651
 21
81.2821
  0
LINE
  8
0
 10
196.651
 20
81.2821
 11
196.803
 21
81.4777
  0
LINE
  8
0
 10
196.803
 20
81.4777
 11
196.976
 21
81.6554
  0
LINE
  8
0
 10
196.976
 20
81.6554
 11
197.167
 21
81.813
  0
LINE
  8
0
 10
197.167
 20
81.813
 11
197.375
 21
81.9485
  0
LINE
  8
0
 10
197.375
 20
81.9485
 11
197.596
 21
82.0605
  0
LINE
  8
0
 10
197.596
 20
82.0605
 11
197.828
 21
82.1474
  0
LINE
  8
0
 10
197.828
 20
82.1474
 11
198.069
 21
82.2083
  0
LINE
  8
0
 10
198.069
 20
82.2083
 11
198.314
 21
82.2423
  0
LINE
  8
0
 10
198.314
 20
82.2423
 11
198.562
 21
82.2491
  0
LINE
  8
0
 10
198.562
 20
82.2491
 11
198.809
 21
82.2287
  0
LINE
  8
0
 10
198.809
 20
82.2287
 11
199.052
 21
82.1812
  0
LINE
  8
0
 10
199.052
 20
82.1812
 11
199.289
 21
82.1071
  0
LINE
  8
0
 10
199.289
 20
82.1071
 11
199.516
 21
82.0076
  0
LINE
  8
0
 10
199.516
 20
82.0076
 11
199.731
 21
81.8836
  0
LINE
  8
0
 10
199.731
 20
81.8836
 11
199.93
 21
81.7368
  0
LINE
  8
0
 10
199.93
 20
81.7368
 11
200.113
 21
81.5689
  0
LINE
  8
0
 10
200.113
 20
81.5689
 11
200.276
 21
81.382
  0
LINE
  8
0
 10
200.276
 20
81.382
 11
200.417
 21
81.1783
  0
LINE
  8
0
 10
200.417
 20
81.1783
 11
200.535
 21
80.9602
  0
LINE
  8
0
 10
200.535
 20
80.9602
 11
200.628
 21
80.7306
  0
LINE
  8
0
 10
200.628
 20
80.7306
 11
200.696
 21
80.492
  0
LINE
  8
0
 10
200.696
 20
80.492
 11
200.736
 21
80.2475
  0
LINE
  8
0
 10
200.736
 20
80.2475
 11
200.75
 21
80
  0
LINE
  8
0
 10
200.75
 20
80
 11
200.736
 21
79.7525
  0
LINE
  8
0
 10
200.736
 20
79.7525
 11
200.696
 21
79.508
  0
LINE
  8
0
 10
200.696
 20
79.508
 11
200.628
 21
79.2694
  0
LINE
  8
0
 10
200.628
 20
79.2694
 11
200.535
 21
79.0397
  0
LINE
  8
0
 10
200.535
 20
79.0397
 11
200.417
 21
78.8217
  0
LINE
  8
0
 10
200.417
 20
78.8217
 11
200.276
 21
78.618
  0
LINE
  8
0
 10
200.276
 20
78.618
 11
200.113
 21
78.4311
  0
LINE
  8
0
 10
200.113
 20
78.4311
 11
199.93
 21
78.2632
  0
LINE
  8
0
 10
199.93
 20
78.2632
 11
199.731
 21
78.1164
  0
LINE
  8
0
 10
199.731
 20
78.1164
 11
199.516
 21
77.9924
  0
LINE
  8
0
 10
199.516
 20
77.9924
 11
199.289
 21
77.8929
  0
LINE
  8
0
 10
199.289
 20
77.8929
 11
199.052
 21
77.8188
  0
LINE
  8
0
 10
199.052
 20
77.8188
 11
198.809
 21
77.7713
  0
LINE
  8
0
 10
198.809
 20
77.7713
 11
198.562
 21
77.7509
  0
LINE
  8
0
 10
198.562
 20
77.7509
 11
198.314
 21
77.7577
  0
LINE
  8
0
 10
-198.686
 20
77.7577
 11
-198.931
 21
77.7917
  0
LINE
  8
0
 10
-198.931
 20
77.7917
 11
-199.172
 21
77.8526
  0
LINE
  8
0
 10
-199.172
 20
77.8526
 11
-199.404
 21
77.9395
  0
LINE
  8
0
 10
-199.404
 20
77.9395
 11
-199.625
 21
78.0514
  0
LINE
  8
0
 10
-199.625
 20
78.0514
 11
-199.833
 21
78.187
  0
LINE
  8
0
 10
-199.833
 20
78.187
 11
-200.024
 21
78.3446
  0
LINE
  8
0
 10
-200.024
 20
78.3446
 11
-200.197
 21
78.5223
  0
LINE
  8
0
 10
-200.197
 20
78.5223
 11
-200.349
 21
78.7179
  0
LINE
  8
0
 10
-200.349
 20
78.7179
 11
-200.479
 21
78.9291
  0
LINE
  8
0
 10
-200.479
 20
78.9291
 11
-200.585
 21
79.1533
  0
LINE
  8
0
 10
-200.585
 20
79.1533
 11
-200.665
 21
79.3878
  0
LINE
  8
0
 10
-200.665
 20
79.3878
 11
-200.719
 21
79.6297
  0
LINE
  8
0
 10
-200.719
 20
79.6297
 11
-200.747
 21
79.8761
  0
LINE
  8
0
 10
-200.747
 20
79.8761
 11
-200.747
 21
80.1239
  0
LINE
  8
0
 10
-200.747
 20
80.1239
 11
-200.719
 21
80.3703
  0
LINE
  8
0
 10
-200.719
 20
80.3703
 11
-200.665
 21
80.6122
  0
LINE
  8
0
 10
-200.665
 20
80.6122
 11
-200.585
 21
80.8467
  0
LINE
  8
0
 10
-200.585
 20
80.8467
 11
-200.479
 21
81.0709
  0
LINE
  8
0
 10
-200.479
 20
81.0709
 11
-200.349
 21
81.2821
  0
LINE
  8
0
 10
-200.349
 20
81.2821
 11
-200.197
 21
81.4777
  0
LINE
  8
0
 10
-200.197
 20
81.4777
 11
-200.024
 21
81.6554
  0
LINE
  8
0
 10
-200.024
 20
81.6554
 11
-199.833
 21
81.813
  0
LINE
  8
0
 10
-199.833
 20
81.813
 11
-199.625
 21
81.9485
  0
LINE
  8
0
 10
-199.625
 20
81.9485
 11
-199.404
 21
82.0605
  0
LINE
  8
0
 10
-199.404
 20
82.0605
 11
-199.172
 21
82.1474
  0
LINE
  8
0
 10
-199.172
 20
82.1474
 11
-198.931
 21
82.2083
  0
LINE
  8
0
 10
-198.931
 20
82.2083
 11
-198.686
 21
82.2423
  0
LINE
  8
0
 10
-198.686
 20
82.2423
 11
-198.438
 21
82.2491
  0
LINE
  8
0
 10
-198.438
 20
82.2491
 11
-198.191
 21
82.2287
  0
LINE
  8
0
 10
-198.191
 20
82.2287
 11
-197.948
 21
82.1812
  0
LINE
  8
0
 10
-197.948
 20
82.1812
 11
-197.711
 21
82.1071
  0
LINE
  8
0
 10
-197.711
 20
82.1071
 11
-197.484
 21
82.0076
  0
LINE
  8
0
 10
-197.484
 20
82.0076
 11
-197.269
 21
81.8836
  0
LINE
  8
0
 10
-197.269
 20
81.8836
 11
-197.07
 21
81.7368
  0
LINE
  8
0
 10
-197.07
 20
81.7368
 11
-196.887
 21
81.5689
  0
LINE
  8
0
 10
-196.887
 20
81.5689
 11
-196.724
 21
81.382
  0
LINE
  8
0
 10
-196.724
 20
81.382
 11
-196.583
 21
81.1783
  0
LINE
  8
0
 10
-196.583
 20
81.1783
 11
-196.465
 21
80.9602
  0
LINE
  8
0
 10
-196.465
 20
80.9602
 11
-196.372
 21
80.7306
  0
LINE
  8
0
 10
-196.372
 20
80.7306
 11
-196.304
 21
80.492
  0
LINE
  8
0
 10
-196.304
 20
80.492
 11
-196.264
 21
80.2475
  0
LINE
  8
0
 10
-196.264
 20
80.2475
 11
-196.25
 21
80
  0
LINE
  8
0
 10
-196.25
 20
80
 11
-196.264
 21
79.7525
  0
LINE
  8
0
 10
-196.264
 20
79.7525
 11
-196.304
 21
79.508
  0
LINE
  8
0
 10
-196.304
 20
79.508
 11
-196.372
 21
79.2694
  0
LINE
  8
0
 10
-196.372
 20
79.2694
 11
-196.465
 21
79.0397
  0
LINE
  8
0
 10
-196.465
 20
79.0397
 11
-196.583
 21
78.8217
  0
LINE
  8
0
 10
-196.583
 20
78.8217
 11
-196.724
 21
78.618
  0
LINE
  8
0
 10
-196.724
 20
78.618
 11
-196.887
 21
78.4311
  0
LINE
  8
0
 10
-196.887
 20
78.4311
 11
-197.07
 21
78.2632
  0
LINE
  8
0
 10
-197.07
 20
78.2632
 11
-197.269
 21
78.1164
  0
LINE
  8
0
 10
-197.269
 20
78.1164
 11
-197.484
 21
77.9924
  0
LINE
  8
0
 10
-197.484
 20
77.9924
 11
-197.711
 21
77.8929
  0
LINE
  8
0
 10
-197.711
 20
77.8929
 11
-197.948
 21
77.8188
  0
LINE
  8
0
 10
-197.948
 20
77.8188
 11
-198.191
 21
77.7713
  0
LINE
  8
0
 10
-198.191
 20
77.7713
 11
-198.438
 21
77.7509
  0
LINE
  8
0
 10
-198.438
 20
77.7509
 11
-198.686
 21
77.7577
  0
LINE
  8
0
 10
99.0642
 20
77.7577
 11
98.8186
 21
77.7917
  0
LINE
  8
0
 10
98.8186
 20
77.7917
 11
98.5783
 21
77.8526
  0
LINE
  8
0
 10
98.5783
 20
77.8526
 11
98.3462
 21
77.9395
  0
LINE
  8
0
 10
98.3462
 20
77.9395
 11
98.125
 21
78.0514
  0
LINE
  8
0
 10
98.125
 20
78.0514
 11
97.9175
 21
78.187
  0
LINE
  8
0
 10
97.9175
 20
78.187
 11
97.7261
 21
78.3446
  0
LINE
  8
0
 10
97.7261
 20
78.3446
 11
97.5533
 21
78.5223
  0
LINE
  8
0
 10
97.5533
 20
78.5223
 11
97.401
 21
78.7179
  0
LINE
  8
0
 10
97.401
 20
78.7179
 11
97.2712
 21
78.9291
  0
LINE
  8
0
 10
97.2712
 20
78.9291
 11
97.1654
 21
79.1533
  0
LINE
  8
0
 10
97.1654
 20
79.1533
 11
97.0849
 21
79.3878
  0
LINE
  8
0
 10
97.0849
 20
79.3878
 11
97.0307
 21
79.6297
  0
LINE
  8
0
 10
97.0307
 20
79.6297
 11
97.0034
 21
79.8761
  0
LINE
  8
0
 10
97.0034
 20
79.8761
 11
97.0034
 21
80.1239
  0
LINE
  8
0
 10
97.0034
 20
80.1239
 11
97.0307
 21
80.3703
  0
LINE
  8
0
 10
97.0307
 20
80.3703
 11
97.0849
 21
80.6122
  0
LINE
  8
0
 10
97.0849
 20
80.6122
 11
97.1654
 21
80.8467
  0
LINE
  8
0
 10
97.1654
 20
80.8467
 11
97.2712
 21
81.0709
  0
LINE
  8
0
 10
97.2712
 20
81.0709
 11
97.401
 21
81.2821
  0
LINE
  8
0
 10
97.401
 20
81.2821
 11
97.5533
 21
81.4777
  0
LINE
  8
0
 10
97.5533
 20
81.4777
 11
97.7261
 21
81.6554
  0
LINE
  8
0
 10
97.7261
 20
81.6554
 11
97.9175
 21
81.813
  0
LINE
  8
0
 10
97.9175
 20
81.813
 11
98.125
 21
81.9485
  0
LINE
  8
0
 10
98.125
 20
81.9485
 11
98.3462
 21
82.0605
  0
LINE
  8
0
 10
98.3462
 20
82.0605
 11
98.5783
 21
82.1474
  0
LINE
  8
0
 10
98.5783
 20
82.1474
 11
98.8186
 21
82.2083
  0
LINE
  8
0
 10
98.8186
 20
82.2083
 11
99.0642
 21
82.2423
  0
LINE
  8
0
 10
99.0642
 20
82.2423
 11
99.312
 21
82.2491
  0
LINE
  8
0
 10
99.312
 20
82.2491
 11
99.559
 21
82.2287
  0
LINE
  8
0
 10
99.559
 20
82.2287
 11
99.8023
 21
82.1812
  0
LINE
  8
0
 10
99.8023
 20
82.1812
 11
100.039
 21
82.1071
  0
LINE
  8
0
 10
100.039
 20
82.1071
 11
100.266
 21
82.0076
  0
LINE
  8
0
 10
100.266
 20
82.0076
 11
100.481
 21
81.8836
  0
LINE
  8
0
 10
100.481
 20
81.8836
 11
100.68
 21
81.7368
  0
LINE
  8
0
 10
100.68
 20
81.7368
 11
100.863
 21
81.5689
  0
LINE
  8
0
 10
100.863
 20
81.5689
 11
101.026
 21
81.382
  0
LINE
  8
0
 10
101.026
 20
81.382
 11
101.167
 21
81.1783
  0
LINE
  8
0
 10
101.167
 20
81.1783
 11
101.285
 21
80.9602
  0
LINE
  8
0
 10
101.285
 20
80.9602
 11
101.378
 21
80.7306
  0
LINE
  8
0
 10
101.378
 20
80.7306
 11
101.446
 21
80.492
  0
LINE
  8
0
 10
101.446
 20
80.492
 11
101.486
 21
80.2475
  0
LINE
  8
0
 10
101.486
 20
80.2475
 11
101.5
 21
80
  0
LINE
  8
0
 10
101.5
 20
80
 11
101.486
 21
79.7525
  0
LINE
  8
0
 10
101.486
 20
79.7525
 11
101.446
 21
79.508
  0
LINE
  8
0
 10
101.446
 20
79.508
 11
101.378
 21
79.2694
  0
LINE
  8
0
 10
101.378
 20
79.2694
 11
101.285
 21
79.0397
  0
LINE
  8
0
 10
101.285
 20
79.0397
 11
101.167
 21
78.8217
  0
LINE
  8
0
 10
101.167
 20
78.8217
 11
101.026
 21
78.618
  0
LINE
  8
0
 10
101.026
 20
78.618
 11
100.863
 21
78.4311
  0
LINE
  8
0
 10
100.863
 20
78.4311
 11
100.68
 21
78.2632
  0
LINE
  8
0
 10
100.68
 20
78.2632
 11
100.481
 21
78.1164
  0
LINE
  8
0
 10
100.481
 20
78.1164
 11
100.266
 21
77.9924
  0
LINE
  8
0
 10
100.266
 20
77.9924
 11
100.039
 21
77.8929
  0
LINE
  8
0
 10
100.039
 20
77.8929
 11
99.8023
 21
77.8188
  0
LINE
  8
0
 10
99.8023
 20
77.8188
 11
99.559
 21
77.7713
  0
LINE
  8
0
 10
99.559
 20
77.7713
 11
99.312
 21
77.7509
  0
LINE
  8
0
 10
99.312
 20
77.7509
 11
99.0642
 21
77.7577
  0
LINE
  8
0
 10
-99.4358
 20
77.7577
 11
-99.6814
 21
77.7917
  0
LINE
  8
0
 10
-99.6814
 20
77.7917
 11
-99.9217
 21
77.8526
  0
LINE
  8
0
 10
-99.9217
 20
77.8526
 11
-100.154
 21
77.9395
  0
LINE
  8
0
 10
-100.154
 20
77.9395
 11
-100.375
 21
78.0514
  0
LINE
  8
0
 10
-100.375
 20
78.0514
 11
-100.583
 21
78.187
  0
LINE
  8
0
 10
-100.583
 20
78.187
 11
-100.774
 21
78.3446
  0
LINE
  8
0
 10
-100.774
 20
78.3446
 11
-100.947
 21
78.5223
  0
LINE
  8
0
 10
-100.947
 20
78.5223
 11
-101.099
 21
78.7179
  0
LINE
  8
0
 10
-101.099
 20
78.7179
 11
-101.229
 21
78.9291
  0
LINE
  8
0
 10
-101.229
 20
78.9291
 11
-101.335
 21
79.1533
  0
LINE
  8
0
 10
-101.335
 20
79.1533
 11
-101.415
 21
79.3878
  0
LINE
  8
0
 10
-101.415
 20
79.3878
 11
-101.469
 21
79.6297
  0
LINE
  8
0
 10
-101.469
 20
79.6297
 11
-101.497
 21
79.8761
  0
LINE
  8
0
 10
-101.497
 20
79.8761
 11
-101.497
 21
80.1239
  0
LINE
  8
0
 10
-101.497
 20
80.1239
 11
-101.469
 21
80.3703
  0
LINE
  8
0
 10
-101.469
 20
80.3703
 11
-101.415
 21
80.6122
  0
LINE
  8
0
 10
-101.415
 20
80.6122
 11
-101.335
 21
80.8467
  0
LINE
  8
0
 10
-101.335
 20
80.8467
 11
-101.229
 21
81.0709
  0
LINE
  8
0
 10
-101.229
 20
81.0709
 11
-101.099
 21
81.2821
  0
LINE
  8
0
 10
-101.099
 20
81.2821
 11
-100.947
 21
81.4777
  0
LINE
  8
0
 10
-100.947
 20
81.4777
 11
-100.774
 21
81.6554
  0
LINE
  8
0
 10
-100.774
 20
81.6554
 11
-100.583
 21
81.813
  0
LINE
  8
0
 10
-100.583
 20
81.813
 11
-100.375
 21
81.9485
  0
LINE
  8
0
 10
-100.375
 20
81.9485
 11
-100.154
 21
82.0605
  0
LINE
  8
0
 10
-100.154
 20
82.0605
 11
-99.9217
 21
82.1474
  0
LINE
  8
0
 10
-99.9217
 20
82.1474
 11
-99.6814
 21
82.2083
  0
LINE
  8
0
 10
-99.6814
 20
82.2083
 11
-99.4358
 21
82.2423
  0
LINE
  8
0
 10
-99.4358
 20
82.2423
 11
-99.188
 21
82.2491
  0
LINE
  8
0
 10
-99.188
 20
82.2491
 11
-98.9409
 21
82.2287
  0
LINE
  8
0
 10
-98.9409
 20
82.2287
 11
-98.6976
 21
82.1812
  0
LINE
  8
0
 10
-98.6976
 20
82.1812
 11
-98.4611
 21
82.1071
  0
LINE
  8
0
 10
-98.4611
 20
82.1071
 11
-98.234
 21
82.0076
  0
LINE
  8
0
 10
-98.234
 20
82.0076
 11
-98.0194
 21
81.8836
  0
LINE
  8
0
 10
-98.0194
 20
81.8836
 11
-97.8196
 21
81.7368
  0
LINE
  8
0
 10
-97.8196
 20
81.7368
 11
-97.6372
 21
81.5689
  0
LINE
  8
0
 10
-97.6372
 20
81.5689
 11
-97.4744
 21
81.382
  0
LINE
  8
0
 10
-97.4744
 20
81.382
 11
-97.3332
 21
81.1783
  0
LINE
  8
0
 10
-97.3332
 20
81.1783
 11
-97.2152
 21
80.9602
  0
LINE
  8
0
 10
-97.2152
 20
80.9602
 11
-97.1219
 21
80.7306
  0
LINE
  8
0
 10
-97.1219
 20
80.7306
 11
-97.0545
 21
80.492
  0
LINE
  8
0
 10
-97.0545
 20
80.492
 11
-97.0137
 21
80.2475
  0
LINE
  8
0
 10
-97.0137
 20
80.2475
 11
-97
 21
80
  0
LINE
  8
0
 10
-97
 20
80
 11
-97.0137
 21
79.7525
  0
LINE
  8
0
 10
-97.0137
 20
79.7525
 11
-97.0545
 21
79.508
  0
LINE
  8
0
 10
-97.0545
 20
79.508
 11
-97.1219
 21
79.2694
  0
LINE
  8
0
 10
-97.1219
 20
79.2694
 11
-97.2152
 21
79.0397
  0
LINE
  8
0
 10
-97.2152
 20
79.0397
 11
-97.3332
 21
78.8217
  0
LINE
  8
0
 10
-97.3332
 20
78.8217
 11
-97.4744
 21
78.618
  0
LINE
  8
0
 10
-97.4744
 20
78.618
 11
-97.6372
 21
78.4311
  0
LINE
  8
0
 10
-97.6372
 20
78.4311
 11
-97.8196
 21
78.2632
  0
LINE
  8
0
 10
-97.8196
 20
78.2632
 11
-98.0194
 21
78.1164
  0
LINE
  8
0
 10
-98.0194
 20
78.1164
 11
-98.234
 21
77.9924
  0
LINE
  8
0
 10
-98.234
 20
77.9924
 11
-98.4611
 21
77.8929
  0
LINE
  8
0
 10
-98.4611
 20
77.8929
 11
-98.6976
 21
77.8188
  0
LINE
  8
0
 10
-98.6976
 20
77.8188
 11
-98.9409
 21
77.7713
  0
LINE
  8
0
 10
-98.9409
 20
77.7713
 11
-99.188
 21
77.7509
  0
LINE
  8
0
 10
-99.188
 20
77.7509
 11
-99.4358
 21
77.7577
  0
LINE
  8
0
 10
-0.185791
 20
77.7577
 11
-0.431335
 21
77.7917
  0
LINE
  8
0
 10
-0.431335
 20
77.7917
 11
-0.671646
 21
77.8526
  0
LINE
  8
0
 10
-0.671646
 20
77.8526
 11
-0.903809
 21
77.9395
  0
LINE
  8
0
 10
-0.903809
 20
77.9395
 11
-1.125
 21
78.0514
  0
LINE
  8
0
 10
-1.125
 20
78.0514
 11
-1.33252
 21
78.187
  0
LINE
  8
0
 10
-1.33252
 20
78.187
 11
-1.52388
 21
78.3446
  0
LINE
  8
0
 10
-1.52388
 20
78.3446
 11
-1.69673
 21
78.5223
  0
LINE
  8
0
 10
-1.69673
 20
78.5223
 11
-1.849
 21
78.7179
  0
LINE
  8
0
 10
-1.849
 20
78.7179
 11
-1.97881
 21
78.9291
  0
LINE
  8
0
 10
-1.97881
 20
78.9291
 11
-2.08461
 21
79.1533
  0
LINE
  8
0
 10
-2.08461
 20
79.1533
 11
-2.1651
 21
79.3878
  0
LINE
  8
0
 10
-2.1651
 20
79.3878
 11
-2.2193
 21
79.6297
  0
LINE
  8
0
 10
-2.2193
 20
79.6297
 11
-2.24658
 21
79.8761
  0
LINE
  8
0
 10
-2.24658
 20
79.8761
 11
-2.24658
 21
80.1239
  0
LINE
  8
0
 10
-2.24658
 20
80.1239
 11
-2.2193
 21
80.3703
  0
LINE
  8
0
 10
-2.2193
 20
80.3703
 11
-2.1651
 21
80.6122
  0
LINE
  8
0
 10
-2.1651
 20
80.6122
 11
-2.08461
 21
80.8467
  0
LINE
  8
0
 10
-2.08461
 20
80.8467
 11
-1.97881
 21
81.0709
  0
LINE
  8
0
 10
-1.97881
 20
81.0709
 11
-1.849
 21
81.2821
  0
LINE
  8
0
 10
-1.849
 20
81.2821
 11
-1.69673
 21
81.4777
  0
LINE
  8
0
 10
-1.69673
 20
81.4777
 11
-1.52388
 21
81.6554
  0
LINE
  8
0
 10
-1.52388
 20
81.6554
 11
-1.33252
 21
81.813
  0
LINE
  8
0
 10
-1.33252
 20
81.813
 11
-1.125
 21
81.9485
  0
LINE
  8
0
 10
-1.125
 20
81.9485
 11
-0.903809
 21
82.0605
  0
LINE
  8
0
 10
-0.903809
 20
82.0605
 11
-0.671646
 21
82.1474
  0
LINE
  8
0
 10
-0.671646
 20
82.1474
 11
-0.431335
 21
82.2083
  0
LINE
  8
0
 10
-0.431335
 20
82.2083
 11
-0.185791
 21
82.2423
  0
LINE
  8
0
 10
-0.185791
 20
82.2423
 11
0.0619965
 21
82.2491
  0
LINE
  8
0
 10
0.0619965
 20
82.2491
 11
0.309036
 21
82.2287
  0
LINE
  8
0
 10
0.309036
 20
82.2287
 11
0.552338
 21
82.1812
  0
LINE
  8
0
 10
0.552338
 20
82.1812
 11
0.788925
 21
82.1071
  0
LINE
  8
0
 10
0.788925
 20
82.1071
 11
1.01595
 21
82.0076
  0
LINE
  8
0
 10
1.01595
 20
82.0076
 11
1.23062
 21
81.8836
  0
LINE
  8
0
 10
1.23062
 20
81.8836
 11
1.43037
 21
81.7368
  0
LINE
  8
0
 10
1.43037
 20
81.7368
 11
1.61275
 21
81.5689
  0
LINE
  8
0
 10
1.61275
 20
81.5689
 11
1.77556
 21
81.382
  0
LINE
  8
0
 10
1.77556
 20
81.382
 11
1.91681
 21
81.1783
  0
LINE
  8
0
 10
1.91681
 20
81.1783
 11
2.03479
 21
80.9602
  0
LINE
  8
0
 10
2.03479
 20
80.9602
 11
2.12808
 21
80.7306
  0
LINE
  8
0
 10
2.12808
 20
80.7306
 11
2.19554
 21
80.492
  0
LINE
  8
0
 10
2.19554
 20
80.492
 11
2.23634
 21
80.2475
  0
LINE
  8
0
 10
2.23634
 20
80.2475
 11
2.25
 21
80
  0
LINE
  8
0
 10
2.25
 20
80
 11
2.23634
 21
79.7525
  0
LINE
  8
0
 10
2.23634
 20
79.7525
 11
2.19554
 21
79.508
  0
LINE
  8
0
 10
2.19554
 20
79.508
 11
2.12808
 21
79.2694
  0
LINE
  8
0
 10
2.12808
 20
79.2694
 11
2.03479
 21
79.0397
  0
LINE
  8
0
 10
2.03479
 20
79.0397
 11
1.91681
 21
78.8217
  0
LINE
  8
0
 10
1.91681
 20
78.8217
 11
1.77556
 21
78.618
  0
LINE
  8
0
 10
1.77556
 20
78.618
 11
1.61275
 21
78.4311
  0
LINE
  8
0
 10
1.61275
 20
78.4311
 11
1.43037
 21
78.2632
  0
LINE
  8
0
 10
1.43037
 20
78.2632
 11
1.23062
 21
78.1164
  0
LINE
  8
0
 10
1.23062
 20
78.1164
 11
1.01595
 21
77.9924
  0
LINE
  8
0
 10
1.01595
 20
77.9924
 11
0.788925
 21
77.8929
  0
LINE
  8
0
 10
0.788925
 20
77.8929
 11
0.552338
 21
77.8188
  0
LINE
  8
0
 10
0.552338
 20
77.8188
 11
0.309036
 21
77.7713
  0
LINE
  8
0
 10
0.309036
 20
77.7713
 11
0.0619965
 21
77.7509
  0
LINE
  8
0
 10
0.0619965
 20
77.7509
 11
-0.185791
 21
77.7577
  0
LINE
  8
0
 10
-238.809
 20
37.7713
 11
-239.052
 21
37.8188
  0
LINE
  8
0
 10
-239.052
 20
37.8188
 11
-239.289
 21
37.8928
  0
LINE
  8
0
 10
-239.289
 20
37.8928
 11
-239.516
 21
37.9924
  0
LINE
  8
0
 10
-239.516
 20
37.9924
 11
-239.731
 21
38.1164
  0
LINE
  8
0
 10
-239.731
 20
38.1164
 11
-239.93
 21
38.2632
  0
LINE
  8
0
 10
-239.93
 20
38.2632
 11
-240.113
 21
38.4311
  0
LINE
  8
0
 10
-240.113
 20
38.4311
 11
-240.276
 21
38.618
  0
LINE
  8
0
 10
-240.276
 20
38.618
 11
-240.417
 21
38.8217
  0
LINE
  8
0
 10
-240.417
 20
38.8217
 11
-240.535
 21
39.0397
  0
LINE
  8
0
 10
-240.535
 20
39.0397
 11
-240.628
 21
39.2694
  0
LINE
  8
0
 10
-240.628
 20
39.2694
 11
-240.696
 21
39.508
  0
LINE
  8
0
 10
-240.696
 20
39.508
 11
-240.736
 21
39.7525
  0
LINE
  8
0
 10
-240.736
 20
39.7525
 11
-240.75
 21
40
  0
LINE
  8
0
 10
-240.75
 20
40
 11
-240.736
 21
40.2475
  0
LINE
  8
0
 10
-240.736
 20
40.2475
 11
-240.696
 21
40.492
  0
LINE
  8
0
 10
-240.696
 20
40.492
 11
-240.628
 21
40.7306
  0
LINE
  8
0
 10
-240.628
 20
40.7306
 11
-240.535
 21
40.9602
  0
LINE
  8
0
 10
-240.535
 20
40.9602
 11
-240.417
 21
41.1783
  0
LINE
  8
0
 10
-240.417
 20
41.1783
 11
-240.276
 21
41.382
  0
LINE
  8
0
 10
-240.276
 20
41.382
 11
-240.113
 21
41.5689
  0
LINE
  8
0
 10
-240.113
 20
41.5689
 11
-239.93
 21
41.7368
  0
LINE
  8
0
 10
-239.93
 20
41.7368
 11
-239.731
 21
41.8836
  0
LINE
  8
0
 10
-239.731
 20
41.8836
 11
-239.516
 21
42.0076
  0
LINE
  8
0
 10
-239.516
 20
42.0076
 11
-239.289
 21
42.1071
  0
LINE
  8
0
 10
-239.289
 20
42.1071
 11
-239.052
 21
42.1812
  0
LINE
  8
0
 10
-239.052
 20
42.1812
 11
-238.809
 21
42.2287
  0
LINE
  8
0
 10
-238.809
 20
42.2287
 11
-238.562
 21
42.2491
  0
LINE
  8
0
 10
-238.562
 20
42.2491
 11
-238.314
 21
42.2423
  0
LINE
  8
0
 10
-238.314
 20
42.2423
 11
-238.069
 21
42.2083
  0
LINE
  8
0
 10
-238.069
 20
42.2083
 11
-237.828
 21
42.1474
  0
LINE
  8
0
 10
-237.828
 20
42.1474
 11
-237.596
 21
42.0605
  0
LINE
  8
0
 10
-237.596
 20
42.0605
 11
-237.375
 21
41.9485
  0
LINE
  8
0
 10
-237.375
 20
41.9485
 11
-237.167
 21
41.813
  0
LINE
  8
0
 10
-237.167
 20
41.813
 11
-236.976
 21
41.6554
  0
LINE
  8
0
 10
-236.976
 20
41.6554
 11
-236.803
 21
41.4777
  0
LINE
  8
0
 10
-236.803
 20
41.4777
 11
-236.651
 21
41.2821
  0
LINE
  8
0
 10
-236.651
 20
41.2821
 11
-236.521
 21
41.0709
  0
LINE
  8
0
 10
-236.521
 20
41.0709
 11
-236.415
 21
40.8467
  0
LINE
  8
0
 10
-236.415
 20
40.8467
 11
-236.335
 21
40.6122
  0
LINE
  8
0
 10
-236.335
 20
40.6122
 11
-236.281
 21
40.3703
  0
LINE
  8
0
 10
-236.281
 20
40.3703
 11
-236.253
 21
40.1239
  0
LINE
  8
0
 10
-236.253
 20
40.1239
 11
-236.253
 21
39.8761
  0
LINE
  8
0
 10
-236.253
 20
39.8761
 11
-236.281
 21
39.6297
  0
LINE
  8
0
 10
-236.281
 20
39.6297
 11
-236.335
 21
39.3878
  0
LINE
  8
0
 10
-236.335
 20
39.3878
 11
-236.415
 21
39.1533
  0
LINE
  8
0
 10
-236.415
 20
39.1533
 11
-236.521
 21
38.9291
  0
LINE
  8
0
 10
-236.521
 20
38.9291
 11
-236.651
 21
38.7179
  0
LINE
  8
0
 10
-236.651
 20
38.7179
 11
-236.803
 21
38.5223
  0
LINE
  8
0
 10
-236.803
 20
38.5223
 11
-236.976
 21
38.3446
  0
LINE
  8
0
 10
-236.976
 20
38.3446
 11
-237.167
 21
38.187
  0
LINE
  8
0
 10
-237.167
 20
38.187
 11
-237.375
 21
38.0514
  0
LINE
  8
0
 10
-237.375
 20
38.0514
 11
-237.596
 21
37.9395
  0
LINE
  8
0
 10
-237.596
 20
37.9395
 11
-237.828
 21
37.8526
  0
LINE
  8
0
 10
-237.828
 20
37.8526
 11
-238.069
 21
37.7917
  0
LINE
  8
0
 10
-238.069
 20
37.7917
 11
-238.314
 21
37.7577
  0
LINE
  8
0
 10
-238.314
 20
37.7577
 11
-238.562
 21
37.7509
  0
LINE
  8
0
 10
-238.562
 20
37.7509
 11
-238.809
 21
37.7713
  0
LINE
  8
0
 10
238.314
 20
37.7577
 11
238.069
 21
37.7917
  0
LINE
  8
0
 10
238.069
 20
37.7917
 11
237.828
 21
37.8526
  0
LINE
  8
0
 10
237.828
 20
37.8526
 11
237.596
 21
37.9395
  0
LINE
  8
0
 10
237.596
 20
37.9395
 11
237.375
 21
38.0514
  0
LINE
  8
0
 10
237.375
 20
38.0514
 11
237.167
 21
38.187
  0
LINE
  8
0
 10
237.167
 20
38.187
 11
236.976
 21
38.3446
  0
LINE
  8
0
 10
236.976
 20
38.3446
 11
236.803
 21
38.5223
  0
LINE
  8
0
 10
236.803
 20
38.5223
 11
236.651
 21
38.7179
  0
LINE
  8
0
 10
236.651
 20
38.7179
 11
236.521
 21
38.9291
  0
LINE
  8
0
 10
236.521
 20
38.9291
 11
236.415
 21
39.1533
  0
LINE
  8
0
 10
236.415
 20
39.1533
 11
236.335
 21
39.3878
  0
LINE
  8
0
 10
236.335
 20
39.3878
 11
236.281
 21
39.6297
  0
LINE
  8
0
 10
236.281
 20
39.6297
 11
236.253
 21
39.8761
  0
LINE
  8
0
 10
236.253
 20
39.8761
 11
236.253
 21
40.1239
  0
LINE
  8
0
 10
236.253
 20
40.1239
 11
236.281
 21
40.3703
  0
LINE
  8
0
 10
236.281
 20
40.3703
 11
236.335
 21
40.6122
  0
LINE
  8
0
 10
236.335
 20
40.6122
 11
236.415
 21
40.8467
  0
LINE
  8
0
 10
236.415
 20
40.8467
 11
236.521
 21
41.0709
  0
LINE
  8
0
 10
236.521
 20
41.0709
 11
236.651
 21
41.2821
  0
LINE
  8
0
 10
236.651
 20
41.2821
 11
236.803
 21
41.4777
  0
LINE
  8
0
 10
236.803
 20
41.4777
 11
236.976
 21
41.6554
  0
LINE
  8
0
 10
236.976
 20
41.6554
 11
237.167
 21
41.813
  0
LINE
  8
0
 10
237.167
 20
41.813
 11
237.375
 21
41.9485
  0
LINE
  8
0
 10
237.375
 20
41.9485
 11
237.596
 21
42.0605
  0
LINE
  8
0
 10
237.596
 20
42.0605
 11
237.828
 21
42.1474
  0
LINE
  8
0
 10
237.828
 20
42.1474
 11
238.069
 21
42.2083
  0
LINE
  8
0
 10
238.069
 20
42.2083
 11
238.314
 21
42.2423
  0
LINE
  8
0
 10
238.314
 20
42.2423
 11
238.562
 21
42.2491
  0
LINE
  8
0
 10
238.562
 20
42.2491
 11
238.809
 21
42.2287
  0
LINE
  8
0
 10
238.809
 20
42.2287
 11
239.052
 21
42.1812
  0
LINE
  8
0
 10
239.052
 20
42.1812
 11
239.289
 21
42.1071
  0
LINE
  8
0
 10
239.289
 20
42.1071
 11
239.516
 21
42.0076
  0
LINE
  8
0
 10
239.516
 20
42.0076
 11
239.731
 21
41.8836
  0
LINE
  8
0
 10
239.731
 20
41.8836
 11
239.93
 21
41.7368
  0
LINE
  8
0
 10
239.93
 20
41.7368
 11
240.113
 21
41.5689
  0
LINE
  8
0
 10
240.113
 20
41.5689
 11
240.276
 21
41.382
  0
LINE
  8
0
 10
240.276
 20
41.382
 11
240.417
 21
41.1783
  0
LINE
  8
0
 10
240.417
 20
41.1783
 11
240.535
 21
40.9602
  0
LINE
  8
0
 10
240.535
 20
40.9602
 11
240.628
 21
40.7306
  0
LINE
  8
0
 10
240.628
 20
40.7306
 11
240.696
 21
40.492
  0
LINE
  8
0
 10
240.696
 20
40.492
 11
240.736
 21
40.2475
  0
LINE
  8
0
 10
240.736
 20
40.2475
 11
240.75
 21
40
  0
LINE
  8
0
 10
240.75
 20
40
 11
240.736
 21
39.7525
  0
LINE
  8
0
 10
240.736
 20
39.7525
 11
240.696
 21
39.508
  0
LINE
  8
0
 10
240.696
 20
39.508
 11
240.628
 21
39.2694
  0
LINE
  8
0
 10
240.628
 20
39.2694
 11
240.535
 21
39.0397
  0
LINE
  8
0
 10
240.535
 20
39.0397
 11
240.417
 21
38.8217
  0
LINE
  8
0
 10
240.417
 20
38.8217
 11
240.276
 21
38.618
  0
LINE
  8
0
 10
240.276
 20
38.618
 11
240.113
 21
38.4311
  0
LINE
  8
0
 10
240.113
 20
38.4311
 11
239.93
 21
38.2632
  0
LINE
  8
0
 10
239.93
 20
38.2632
 11
239.731
 21
38.1164
  0
LINE
  8
0
 10
239.731
 20
38.1164
 11
239.516
 21
37.9924
  0
LINE
  8
0
 10
239.516
 20
37.9924
 11
239.289
 21
37.8928
  0
LINE
  8
0
 10
239.289
 20
37.8928
 11
239.052
 21
37.8188
  0
LINE
  8
0
 10
239.052
 20
37.8188
 11
238.809
 21
37.7713
  0
LINE
  8
0
 10
238.809
 20
37.7713
 11
238.562
 21
37.7509
  0
LINE
  8
0
 10
238.562
 20
37.7509
 11
238.314
 21
37.7577
  0
LINE
  8
0
 10
-238.809
 20
-42.2287
 11
-239.052
 21
-42.1812
  0
LINE
  8
0
 10
-239.052
 20
-42.1812
 11
-239.289
 21
-42.1071
  0
LINE
  8
0
 10
-239.289
 20
-42.1071
 11
-239.516
 21
-42.0076
  0
LINE
  8
0
 10
-239.516
 20
-42.0076
 11
-239.731
 21
-41.8836
  0
LINE
  8
0
 10
-239.731
 20
-41.8836
 11
-239.93
 21
-41.7368
  0
LINE
  8
0
 10
-239.93
 20
-41.7368
 11
-240.113
 21
-41.5689
  0
LINE
  8
0
 10
-240.113
 20
-41.5689
 11
-240.276
 21
-41.382
  0
LINE
  8
0
 10
-240.276
 20
-41.382
 11
-240.417
 21
-41.1783
  0
LINE
  8
0
 10
-240.417
 20
-41.1783
 11
-240.535
 21
-40.9602
  0
LINE
  8
0
 10
-240.535
 20
-40.9602
 11
-240.628
 21
-40.7306
  0
LINE
  8
0
 10
-240.628
 20
-40.7306
 11
-240.696
 21
-40.492
  0
LINE
  8
0
 10
-240.696
 20
-40.492
 11
-240.736
 21
-40.2475
  0
LINE
  8
0
 10
-240.736
 20
-40.2475
 11
-240.75
 21
-40
  0
LINE
  8
0
 10
-240.75
 20
-40
 11
-240.736
 21
-39.7525
  0
LINE
  8
0
 10
-240.736
 20
-39.7525
 11
-240.696
 21
-39.508
  0
LINE
  8
0
 10
-240.696
 20
-39.508
 11
-240.628
 21
-39.2694
  0
LINE
  8
0
 10
-240.628
 20
-39.2694
 11
-240.535
 21
-39.0397
  0
LINE
  8
0
 10
-240.535
 20
-39.0397
 11
-240.417
 21
-38.8217
  0
LINE
  8
0
 10
-240.417
 20
-38.8217
 11
-240.276
 21
-38.618
  0
LINE
  8
0
 10
-240.276
 20
-38.618
 11
-240.113
 21
-38.4311
  0
LINE
  8
0
 10
-240.113
 20
-38.4311
 11
-239.93
 21
-38.2632
  0
LINE
  8
0
 10
-239.93
 20
-38.2632
 11
-239.731
 21
-38.1164
  0
LINE
  8
0
 10
-239.731
 20
-38.1164
 11
-239.516
 21
-37.9924
  0
LINE
  8
0
 10
-239.516
 20
-37.9924
 11
-239.289
 21
-37.8928
  0
LINE
  8
0
 10
-239.289
 20
-37.8928
 11
-239.052
 21
-37.8188
  0
LINE
  8
0
 10
-239.052
 20
-37.8188
 11
-238.809
 21
-37.7713
  0
LINE
  8
0
 10
-238.809
 20
-37.7713
 11
-238.562
 21
-37.7509
  0
LINE
  8
0
 10
-238.562
 20
-37.7509
 11
-238.314
 21
-37.7577
  0
LINE
  8
0
 10
-238.314
 20
-37.7577
 11
-238.069
 21
-37.7917
  0
LINE
  8
0
 10
-238.069
 20
-37.7917
 11
-237.828
 21
-37.8526
  0
LINE
  8
0
 10
-237.828
 20
-37.8526
 11
-237.596
 21
-37.9395
  0
LINE
  8
0
 10
-237.596
 20
-37.9395
 11
-237.375
 21
-38.0514
  0
LINE
  8
0
 10
-237.375
 20
-38.0514
 11
-237.167
 21
-38.187
  0
LINE
  8
0
 10
-237.167
 20
-38.187
 11
-236.976
 21
-38.3446
  0
LINE
  8
0
 10
-236.976
 20
-38.3446
 11
-236.803
 21
-38.5223
  0
LINE
  8
0
 10
-236.803
 20
-38.5223
 11
-236.651
 21
-38.7179
  0
LINE
  8
0
 10
-236.651
 20
-38.7179
 11
-236.521
 21
-38.9291
  0
LINE
  8
0
 10
-236.521
 20
-38.9291
 11
-236.415
 21
-39.1533
  0
LINE
  8
0
 10
-236.415
 20
-39.1533
 11
-236.335
 21
-39.3878
  0
LINE
  8
0
 10
-236.335
 20
-39.3878
 11
-236.281
 21
-39.6297
  0
LINE
  8
0
 10
-236.281
 20
-39.6297
 11
-236.253
 21
-39.8761
  0
LINE
  8
0
 10
-236.253
 20
-39.8761
 11
-236.253
 21
-40.1239
  0
LINE
  8
0
 10
-236.253
 20
-40.1239
 11
-236.281
 21
-40.3703
  0
LINE
  8
0
 10
-236.281
 20
-40.3703
 11
-236.335
 21
-40.6122
  0
LINE
  8
0
 10
-236.335
 20
-40.6122
 11
-236.415
 21
-40.8467
  0
LINE
  8
0
 10
-236.415
 20
-40.8467
 11
-236.521
 21
-41.0709
  0
LINE
  8
0
 10
-236.521
 20
-41.0709
 11
-236.651
 21
-41.2821
  0
LINE
  8
0
 10
-236.651
 20
-41.2821
 11
-236.803
 21
-41.4777
  0
LINE
  8
0
 10
-236.803
 20
-41.4777
 11
-236.976
 21
-41.6554
  0
LINE
  8
0
 10
-236.976
 20
-41.6554
 11
-237.167
 21
-41.813
  0
LINE
  8
0
 10
-237.167
 20
-41.813
 11
-237.375
 21
-41.9485
  0
LINE
  8
0
 10
-237.375
 20
-41.9485
 11
-237.596
 21
-42.0605
  0
LINE
  8
0
 10
-237.596
 20
-42.0605
 11
-237.828
 21
-42.1474
  0
LINE
  8
0
 10
-237.828
 20
-42.1474
 11
-238.069
 21
-42.2083
  0
LINE
  8
0
 10
-238.069
 20
-42.2083
 11
-238.314
 21
-42.2423
  0
LINE
  8
0
 10
-238.314
 20
-42.2423
 11
-238.562
 21
-42.2491
  0
LINE
  8
0
 10
-238.562
 20
-42.2491
 11
-238.809
 21
-42.2287
  0
LINE
  8
0
 10
238.314
 20
-42.2423
 11
238.069
 21
-42.2083
  0
LINE
  8
0
 10
238.069
 20
-42.2083
 11
237.828
 21
-42.1474
  0
LINE
  8
0
 10
237.828
 20
-42.1474
 11
237.596
 21
-42.0605
  0
LINE
  8
0
 10
237.596
 20
-42.0605
 11
237.375
 21
-41.9485
  0
LINE
  8
0
 10
237.375
 20
-41.9485
 11
237.167
 21
-41.813
  0
LINE
  8
0
 10
237.167
 20
-41.813
 11
236.976
 21
-41.6554
  0
LINE
  8
0
 10
236.976
 20
-41.6554
 11
236.803
 21
-41.4777
  0
LINE
  8
0
 10
236.803
 20
-41.4777
 11
236.651
 21
-41.2821
  0
LINE
  8
0
 10
236.651
 20
-41.2821
 11
236.521
 21
-41.0709
  0
LINE
  8
0
 10
236.521
 20
-41.0709
 11
236.415
 21
-40.8467
  0
LINE
  8
0
 10
236.415
 20
-40.8467
 11
236.335
 21
-40.6122
  0
LINE
  8
0
 10
236.335
 20
-40.6122
 11
236.281
 21
-40.3703
  0
LINE
  8
0
 10
236.281
 20
-40.3703
 11
236.253
 21
-40.1239
  0
LINE
  8
0
 10
236.253
 20
-40.1239
 11
236.253
 21
-39.8761
  0
LINE
  8
0
 10
236.253
 20
-39.8761
 11
236.281
 21
-39.6297
  0
LINE
  8
0
 10
236.281
 20
-39.6297
 11
236.335
 21
-39.3878
  0
LINE
  8
0
 10
236.335
 20
-39.3878
 11
236.415
 21
-39.1533
  0
LINE
  8
0
 10
236.415
 20
-39.1533
 11
236.521
 21
-38.9291
  0
LINE
  8
0
 10
236.521
 20
-38.9291
 11
236.651
 21
-38.7179
  0
LINE
  8
0
 10
236.651
 20
-38.7179
 11
236.803
 21
-38.5223
  0
LINE
  8
0
 10
236.803
 20
-38.5223
 11
236.976
 21
-38.3446
  0
LINE
  8
0
 10
236.976
 20
-38.3446
 11
237.167
 21
-38.187
  0
LINE
  8
0
 10
237.167
 20
-38.187
 11
237.375
 21
-38.0514
  0
LINE
  8
0
 10
237.375
 20
-38.0514
 11
237.596
 21
-37.9395
  0
LINE
  8
0
 10
237.596
 20
-37.9395
 11
237.828
 21
-37.8526
  0
LINE
  8
0
 10
237.828
 20
-37.8526
 11
238.069
 21
-37.7917
  0
LINE
  8
0
 10
238.069
 20
-37.7917
 11
238.314
 21
-37.7577
  0
LINE
  8
0
 10
238.314
 20
-37.7577
 11
238.562
 21
-37.7509
  0
LINE
  8
0
 10
238.562
 20
-37.7509
 11
238.809
 21
-37.7713
  0
LINE
  8
0
 10
238.809
 20
-37.7713
 11
239.052
 21
-37.8188
  0
LINE
  8
0
 10
239.052
 20
-37.8188
 11
239.289
 21
-37.8928
  0
LINE
  8
0
 10
239.289
 20
-37.8928
 11
239.516
 21
-37.9924
  0
LINE
  8
0
 10
239.516
 20
-37.9924
 11
239.731
 21
-38.1164
  0
LINE
  8
0
 10
239.731
 20
-38.1164
 11
239.93
 21
-38.2632
  0
LINE
  8
0
 10
239.93
 20
-38.2632
 11
240.113
 21
-38.4311
  0
LINE
  8
0
 10
240.113
 20
-38.4311
 11
240.276
 21
-38.618
  0
LINE
  8
0
 10
240.276
 20
-38.618
 11
240.417
 21
-38.8217
  0
LINE
  8
0
 10
240.417
 20
-38.8217
 11
240.535
 21
-39.0397
  0
LINE
  8
0
 10
240.535
 20
-39.0397
 11
240.628
 21
-39.2694
  0
LINE
  8
0
 10
240.628
 20
-39.2694
 11
240.696
 21
-39.508
  0
LINE
  8
0
 10
240.696
 20
-39.508
 11
240.736
 21
-39.7525
  0
LINE
  8
0
 10
240.736
 20
-39.7525
 11
240.75
 21
-40
  0
LINE
  8
0
 10
240.75
 20
-40
 11
240.736
 21
-40.2475
  0
LINE
  8
0
 10
240.736
 20
-40.2475
 11
240.696
 21
-40.492
  0
LINE
  8
0
 10
240.696
 20
-40.492
 11
240.628
 21
-40.7306
  0
LINE
  8
0
 10
240.628
 20
-40.7306
 11
240.535
 21
-40.9602
  0
LINE
  8
0
 10
240.535
 20
-40.9602
 11
240.417
 21
-41.1783
  0
LINE
  8
0
 10
240.417
 20
-41.1783
 11
240.276
 21
-41.382
  0
LINE
  8
0
 10
240.276
 20
-41.382
 11
240.113
 21
-41.5689
  0
LINE
  8
0
 10
240.113
 20
-41.5689
 11
239.93
 21
-41.7368
  0
LINE
  8
0
 10
239.93
 20
-41.7368
 11
239.731
 21
-41.8836
  0
LINE
  8
0
 10
239.731
 20
-41.8836
 11
239.516
 21
-42.0076
  0
LINE
  8
0
 10
239.516
 20
-42.0076
 11
239.289
 21
-42.1071
  0
LINE
  8
0
 10
239.289
 20
-42.1071
 11
239.052
 21
-42.1812
  0
LINE
  8
0
 10
239.052
 20
-42.1812
 11
238.809
 21
-42.2287
  0
LINE
  8
0
 10
238.809
 20
-42.2287
 11
238.562
 21
-42.2491
  0
LINE
  8
0
 10
238.562
 20
-42.2491
 11
238.314
 21
-42.2423
  0
LINE
  8
0
 10
-239.023
 20
-84.9726
 11
-239.54
 21
-84.8907
  0
LINE
  8
0
 10
-239.54
 20
-84.8907
 11
-240.045
 21
-84.7553
  0
LINE
  8
0
 10
-240.045
 20
-84.7553
 11
-240.534
 21
-84.5677
  0
LINE
  8
0
 10
-240.534
 20
-84.5677
 11
-241
 21
-84.3301
  0
LINE
  8
0
 10
-241
 20
-84.3301
 11
-241.439
 21
-84.0451
  0
LINE
  8
0
 10
-241.439
 20
-84.0451
 11
-241.846
 21
-83.7157
  0
LINE
  8
0
 10
-241.846
 20
-83.7157
 11
-242.216
 21
-83.3456
  0
LINE
  8
0
 10
-242.216
 20
-83.3456
 11
-242.545
 21
-82.9389
  0
LINE
  8
0
 10
-242.545
 20
-82.9389
 11
-242.83
 21
-82.5
  0
LINE
  8
0
 10
-242.83
 20
-82.5
 11
-243.068
 21
-82.0337
  0
LINE
  8
0
 10
-243.068
 20
-82.0337
 11
-243.255
 21
-81.5451
  0
LINE
  8
0
 10
-243.255
 20
-81.5451
 11
-243.391
 21
-81.0396
  0
LINE
  8
0
 10
-243.391
 20
-81.0396
 11
-243.473
 21
-80.5226
  0
LINE
  8
0
 10
-243.473
 20
-80.5226
 11
-243.5
 21
-80
  0
LINE
  8
0
 10
-243.5
 20
-80
 11
-243.473
 21
-79.4774
  0
LINE
  8
0
 10
-243.473
 20
-79.4774
 11
-243.391
 21
-78.9604
  0
LINE
  8
0
 10
-243.391
 20
-78.9604
 11
-243.255
 21
-78.4549
  0
LINE
  8
0
 10
-243.255
 20
-78.4549
 11
-243.068
 21
-77.9663
  0
LINE
  8
0
 10
-243.068
 20
-77.9663
 11
-242.83
 21
-77.5
  0
LINE
  8
0
 10
-242.83
 20
-77.5
 11
-242.545
 21
-77.0611
  0
LINE
  8
0
 10
-242.545
 20
-77.0611
 11
-242.216
 21
-76.6543
  0
LINE
  8
0
 10
-242.216
 20
-76.6543
 11
-241.846
 21
-76.2843
  0
LINE
  8
0
 10
-241.846
 20
-76.2843
 11
-241.439
 21
-75.9549
  0
LINE
  8
0
 10
-241.439
 20
-75.9549
 11
-241
 21
-75.6699
  0
LINE
  8
0
 10
-241
 20
-75.6699
 11
-240.534
 21
-75.4323
  0
LINE
  8
0
 10
-240.534
 20
-75.4323
 11
-240.045
 21
-75.2447
  0
LINE
  8
0
 10
-240.045
 20
-75.2447
 11
-239.54
 21
-75.1093
  0
LINE
  8
0
 10
-239.54
 20
-75.1093
 11
-239.023
 21
-75.0274
  0
LINE
  8
0
 10
-239.023
 20
-75.0274
 11
-238.5
 21
-75
  0
LINE
  8
0
 10
-238.5
 20
-75
 11
-237.977
 21
-75.0274
  0
LINE
  8
0
 10
-237.977
 20
-75.0274
 11
-237.46
 21
-75.1093
  0
LINE
  8
0
 10
-237.46
 20
-75.1093
 11
-236.955
 21
-75.2447
  0
LINE
  8
0
 10
-236.955
 20
-75.2447
 11
-236.466
 21
-75.4323
  0
LINE
  8
0
 10
-236.466
 20
-75.4323
 11
-236
 21
-75.6699
  0
LINE
  8
0
 10
-236
 20
-75.6699
 11
-235.561
 21
-75.9549
  0
LINE
  8
0
 10
-235.561
 20
-75.9549
 11
-235.154
 21
-76.2843
  0
LINE
  8
0
 10
-235.154
 20
-76.2843
 11
-234.784
 21
-76.6543
  0
LINE
  8
0
 10
-234.784
 20
-76.6543
 11
-234.455
 21
-77.0611
  0
LINE
  8
0
 10
-234.455
 20
-77.0611
 11
-234.17
 21
-77.5
  0
LINE
  8
0
 10
-234.17
 20
-77.5
 11
-233.932
 21
-77.9663
  0
LINE
  8
0
 10
-233.932
 20
-77.9663
 11
-233.745
 21
-78.4549
  0
LINE
  8
0
 10
-233.745
 20
-78.4549
 11
-233.609
 21
-78.9604
  0
LINE
  8
0
 10
-233.609
 20
-78.9604
 11
-233.527
 21
-79.4774
  0
LINE
  8
0
 10
-233.527
 20
-79.4774
 11
-233.5
 21
-80
  0
LINE
  8
0
 10
-233.5
 20
-80
 11
-233.527
 21
-80.5226
  0
LINE
  8
0
 10
-233.527
 20
-80.5226
 11
-233.609
 21
-81.0396
  0
LINE
  8
0
 10
-233.609
 20
-81.0396
 11
-233.745
 21
-81.5451
  0
LINE
  8
0
 10
-233.745
 20
-81.5451
 11
-233.932
 21
-82.0337
  0
LINE
  8
0
 10
-233.932
 20
-82.0337
 11
-234.17
 21
-82.5
  0
LINE
  8
0
 10
-234.17
 20
-82.5
 11
-234.455
 21
-82.9389
  0
LINE
  8
0
 10
-234.455
 20
-82.9389
 11
-234.784
 21
-83.3456
  0
LINE
  8
0
 10
-234.784
 20
-83.3456
 11
-235.154
 21
-83.7157
  0
LINE
  8
0
 10
-235.154
 20
-83.7157
 11
-235.561
 21
-84.0451
  0
LINE
  8
0
 10
-235.561
 20
-84.0451
 11
-236
 21
-84.3301
  0
LINE
  8
0
 10
-236
 20
-84.3301
 11
-236.466
 21
-84.5677
  0
LINE
  8
0
 10
-236.466
 20
-84.5677
 11
-236.955
 21
-84.7553
  0
LINE
  8
0
 10
-236.955
 20
-84.7553
 11
-237.46
 21
-84.8907
  0
LINE
  8
0
 10
-237.46
 20
-84.8907
 11
-237.977
 21
-84.9726
  0
LINE
  8
0
 10
-237.977
 20
-84.9726
 11
-238.5
 21
-85
  0
LINE
  8
0
 10
-238.5
 20
-85
 11
-239.023
 21
-84.9726
  0
LINE
  8
0
 10
237.977
 20
-84.9726
 11
237.46
 21
-84.8907
  0
LINE
  8
0
 10
237.46
 20
-84.8907
 11
236.955
 21
-84.7553
  0
LINE
  8
0
 10
236.955
 20
-84.7553
 11
236.466
 21
-84.5677
  0
LINE
  8
0
 10
236.466
 20
-84.5677
 11
236
 21
-84.3301
  0
LINE
  8
0
 10
236
 20
-84.3301
 11
235.561
 21
-84.0451
  0
LINE
  8
0
 10
235.561
 20
-84.0451
 11
235.154
 21
-83.7157
  0
LINE
  8
0
 10
235.154
 20
-83.7157
 11
234.784
 21
-83.3456
  0
LINE
  8
0
 10
234.784
 20
-83.3456
 11
234.455
 21
-82.9389
  0
LINE
  8
0
 10
234.455
 20
-82.9389
 11
234.17
 21
-82.5
  0
LINE
  8
0
 10
234.17
 20
-82.5
 11
233.932
 21
-82.0337
  0
LINE
  8
0
 10
233.932
 20
-82.0337
 11
233.745
 21
-81.5451
  0
LINE
  8
0
 10
233.745
 20
-81.5451
 11
233.609
 21
-81.0396
  0
LINE
  8
0
 10
233.609
 20
-81.0396
 11
233.527
 21
-80.5226
  0
LINE
  8
0
 10
233.527
 20
-80.5226
 11
233.5
 21
-80
  0
LINE
  8
0
 10
233.5
 20
-80
 11
233.527
 21
-79.4774
  0
LINE
  8
0
 10
233.527
 20
-79.4774
 11
233.609
 21
-78.9604
  0
LINE
  8
0
 10
233.609
 20
-78.9604
 11
233.745
 21
-78.4549
  0
LINE
  8
0
 10
233.745
 20
-78.4549
 11
233.932
 21
-77.9663
  0
LINE
  8
0
 10
233.932
 20
-77.9663
 11
234.17
 21
-77.5
  0
LINE
  8
0
 10
234.17
 20
-77.5
 11
234.455
 21
-77.0611
  0
LINE
  8
0
 10
234.455
 20
-77.0611
 11
234.784
 21
-76.6543
  0
LINE
  8
0
 10
234.784
 20
-76.6543
 11
235.154
 21
-76.2843
  0
LINE
  8
0
 10
235.154
 20
-76.2843
 11
235.561
 21
-75.9549
  0
LINE
  8
0
 10
235.561
 20
-75.9549
 11
236
 21
-75.6699
  0
LINE
  8
0
 10
236
 20
-75.6699
 11
236.466
 21
-75.4323
  0
LINE
  8
0
 10
236.466
 20
-75.4323
 11
236.955
 21
-75.2447
  0
LINE
  8
0
 10
236.955
 20
-75.2447
 11
237.46
 21
-75.1093
  0
LINE
  8
0
 10
237.46
 20
-75.1093
 11
237.977
 21
-75.0274
  0
LINE
  8
0
 10
237.977
 20
-75.0274
 11
238.5
 21
-75
  0
LINE
  8
0
 10
238.5
 20
-75
 11
239.023
 21
-75.0274
  0
LINE
  8
0
 10
239.023
 20
-75.0274
 11
239.54
 21
-75.1093
  0
LINE
  8
0
 10
239.54
 20
-75.1093
 11
240.045
 21
-75.2447
  0
LINE
  8
0
 10
240.045
 20
-75.2447
 11
240.534
 21
-75.4323
  0
LINE
  8
0
 10
240.534
 20
-75.4323
 11
241
 21
-75.6699
  0
LINE
  8
0
 10
241
 20
-75.6699
 11
241.439
 21
-75.9549
  0
LINE
  8
0
 10
241.439
 20
-75.9549
 11
241.846
 21
-76.2843
  0
LINE
  8
0
 10
241.846
 20
-76.2843
 11
242.216
 21
-76.6543
  0
LINE
  8
0
 10
242.216
 20
-76.6543
 11
242.545
 21
-77.0611
  0
LINE
  8
0
 10
242.545
 20
-77.0611
 11
242.83
 21
-77.5
  0
LINE
  8
0
 10
242.83
 20
-77.5
 11
243.068
 21
-77.9663
  0
LINE
  8
0
 10
243.068
 20
-77.9663
 11
243.255
 21
-78.4549
  0
LINE
  8
0
 10
243.255
 20
-78.4549
 11
243.391
 21
-78.9604
  0
LINE
  8
0
 10
243.391
 20
-78.9604
 11
243.473
 21
-79.4774
  0
LINE
  8
0
 10
243.473
 20
-79.4774
 11
243.5
 21
-80
  0
LINE
  8
0
 10
243.5
 20
-80
 11
243.473
 21
-80.5226
  0
LINE
  8
0
 10
243.473
 20
-80.5226
 11
243.391
 21
-81.0396
  0
LINE
  8
0
 10
243.391
 20
-81.0396
 11
243.255
 21
-81.5451
  0
LINE
  8
0
 10
243.255
 20
-81.5451
 11
243.068
 21
-82.0337
  0
LINE
  8
0
 10
243.068
 20
-82.0337
 11
242.83
 21
-82.5
  0
LINE
  8
0
 10
242.83
 20
-82.5
 11
242.545
 21
-82.9389
  0
LINE
  8
0
 10
242.545
 20
-82.9389
 11
242.216
 21
-83.3456
  0
LINE
  8
0
 10
242.216
 20
-83.3456
 11
241.846
 21
-83.7157
  0
LINE
  8
0
 10
241.846
 20
-83.7157
 11
241.439
 21
-84.0451
  0
LINE
  8
0
 10
241.439
 20
-84.0451
 11
241
 21
-84.3301
  0
LINE
  8
0
 10
241
 20
-84.3301
 11
240.534
 21
-84.5677
  0
LINE
  8
0
 10
240.534
 20
-84.5677
 11
240.045
 21
-84.7553
  0
LINE
  8
0
 10
240.045
 20
-84.7553
 11
239.54
 21
-84.8907
  0
LINE
  8
0
 10
239.54
 20
-84.8907
 11
239.023
 21
-84.9726
  0
LINE
  8
0
 10
239.023
 20
-84.9726
 11
238.5
 21
-85
  0
LINE
  8
0
 10
238.5
 20
-85
 11
237.977
 21
-84.9726
  0
ENDSEC
  0
SECTION
  2
OBJECTS
  0
DICTIONARY
  0
ENDSEC
  0
EOF
