  0
SECTION
  2
BLOCKS
  0
ENDSEC
  0
SECTION
  2
ENTITIES
  0
LINE
  8
0
 10
222.898
 20
-222.348
 11
223.415
 21
-222.266
  0
LINE
  8
0
 10
223.415
 20
-222.266
 11
223.92
 21
-222.13
  0
LINE
  8
0
 10
223.92
 20
-222.13
 11
224.409
 21
-221.943
  0
LINE
  8
0
 10
224.409
 20
-221.943
 11
224.875
 21
-221.705
  0
LINE
  8
0
 10
224.875
 20
-221.705
 11
225.314
 21
-221.42
  0
LINE
  8
0
 10
225.314
 20
-221.42
 11
225.721
 21
-221.091
  0
LINE
  8
0
 10
225.721
 20
-221.091
 11
226.091
 21
-220.721
  0
LINE
  8
0
 10
226.091
 20
-220.721
 11
226.42
 21
-220.314
  0
LINE
  8
0
 10
226.42
 20
-220.314
 11
226.705
 21
-219.875
  0
LINE
  8
0
 10
226.705
 20
-219.875
 11
226.943
 21
-219.409
  0
LINE
  8
0
 10
226.943
 20
-219.409
 11
227.13
 21
-218.92
  0
LINE
  8
0
 10
227.13
 20
-218.92
 11
227.266
 21
-218.415
  0
LINE
  8
0
 10
227.266
 20
-218.415
 11
227.348
 21
-217.898
  0
LINE
  8
0
 10
227.348
 20
-217.898
 11
227.375
 21
-217.375
  0
LINE
  8
0
 10
227.375
 20
-217.375
 11
227.375
 21
217.375
  0
LINE
  8
0
 10
227.375
 20
217.375
 11
227.348
 21
217.898
  0
LINE
  8
0
 10
227.348
 20
217.898
 11
227.266
 21
218.415
  0
LINE
  8
0
 10
227.266
 20
218.415
 11
227.13
 21
218.92
  0
LINE
  8
0
 10
227.13
 20
218.92
 11
226.943
 21
219.409
  0
LINE
  8
0
 10
226.943
 20
219.409
 11
226.705
 21
219.875
  0
LINE
  8
0
 10
226.705
 20
219.875
 11
226.42
 21
220.314
  0
LINE
  8
0
 10
226.42
 20
220.314
 11
226.091
 21
220.721
  0
LINE
  8
0
 10
226.091
 20
220.721
 11
225.721
 21
221.091
  0
LINE
  8
0
 10
225.721
 20
221.091
 11
225.314
 21
221.42
  0
LINE
  8
0
 10
225.314
 20
221.42
 11
224.875
 21
221.705
  0
LINE
  8
0
 10
224.875
 20
221.705
 11
224.409
 21
221.943
  0
LINE
  8
0
 10
224.409
 20
221.943
 11
223.92
 21
222.13
  0
LINE
  8
0
 10
223.92
 20
222.13
 11
223.415
 21
222.266
  0
LINE
  8
0
 10
223.415
 20
222.266
 11
222.898
 21
222.348
  0
LINE
  8
0
 10
222.898
 20
222.348
 11
222.375
 21
222.375
  0
LINE
  8
0
 10
222.375
 20
222.375
 11
-222.375
 21
222.375
  0
LINE
  8
0
 10
-222.375
 20
222.375
 11
-222.898
 21
222.348
  0
LINE
  8
0
 10
-222.898
 20
222.348
 11
-223.415
 21
222.266
  0
LINE
  8
0
 10
-223.415
 20
222.266
 11
-223.92
 21
222.13
  0
LINE
  8
0
 10
-223.92
 20
222.13
 11
-224.409
 21
221.943
  0
LINE
  8
0
 10
-224.409
 20
221.943
 11
-224.875
 21
221.705
  0
LINE
  8
0
 10
-224.875
 20
221.705
 11
-225.314
 21
221.42
  0
LINE
  8
0
 10
-225.314
 20
221.42
 11
-225.721
 21
221.091
  0
LINE
  8
0
 10
-225.721
 20
221.091
 11
-226.091
 21
220.721
  0
LINE
  8
0
 10
-226.091
 20
220.721
 11
-226.42
 21
220.314
  0
LINE
  8
0
 10
-226.42
 20
220.314
 11
-226.705
 21
219.875
  0
LINE
  8
0
 10
-226.705
 20
219.875
 11
-226.943
 21
219.409
  0
LINE
  8
0
 10
-226.943
 20
219.409
 11
-227.13
 21
218.92
  0
LINE
  8
0
 10
-227.13
 20
218.92
 11
-227.266
 21
218.415
  0
LINE
  8
0
 10
-227.266
 20
218.415
 11
-227.348
 21
217.898
  0
LINE
  8
0
 10
-227.348
 20
217.898
 11
-227.375
 21
217.375
  0
LINE
  8
0
 10
-227.375
 20
217.375
 11
-227.375
 21
-217.375
  0
LINE
  8
0
 10
-227.375
 20
-217.375
 11
-227.348
 21
-217.898
  0
LINE
  8
0
 10
-227.348
 20
-217.898
 11
-227.266
 21
-218.415
  0
LINE
  8
0
 10
-227.266
 20
-218.415
 11
-227.13
 21
-218.92
  0
LINE
  8
0
 10
-227.13
 20
-218.92
 11
-226.943
 21
-219.409
  0
LINE
  8
0
 10
-226.943
 20
-219.409
 11
-226.705
 21
-219.875
  0
LINE
  8
0
 10
-226.705
 20
-219.875
 11
-226.42
 21
-220.314
  0
LINE
  8
0
 10
-226.42
 20
-220.314
 11
-226.091
 21
-220.721
  0
LINE
  8
0
 10
-226.091
 20
-220.721
 11
-225.721
 21
-221.091
  0
LINE
  8
0
 10
-225.721
 20
-221.091
 11
-225.314
 21
-221.42
  0
LINE
  8
0
 10
-225.314
 20
-221.42
 11
-224.875
 21
-221.705
  0
LINE
  8
0
 10
-224.875
 20
-221.705
 11
-224.409
 21
-221.943
  0
LINE
  8
0
 10
-224.409
 20
-221.943
 11
-223.92
 21
-222.13
  0
LINE
  8
0
 10
-223.92
 20
-222.13
 11
-223.415
 21
-222.266
  0
LINE
  8
0
 10
-223.415
 20
-222.266
 11
-222.898
 21
-222.348
  0
LINE
  8
0
 10
-222.898
 20
-222.348
 11
-222.375
 21
-222.375
  0
LINE
  8
0
 10
-222.375
 20
-222.375
 11
222.375
 21
-222.375
  0
LINE
  8
0
 10
222.375
 20
-222.375
 11
222.898
 21
-222.348
  0
LINE
  8
0
 10
-220.392
 20
211.271
 11
-220.78
 21
211.332
  0
LINE
  8
0
 10
-220.78
 20
211.332
 11
-221.159
 21
211.434
  0
LINE
  8
0
 10
-221.159
 20
211.434
 11
-221.525
 21
211.574
  0
LINE
  8
0
 10
-221.525
 20
211.574
 11
-221.875
 21
211.752
  0
LINE
  8
0
 10
-221.875
 20
211.752
 11
-222.204
 21
211.966
  0
LINE
  8
0
 10
-222.204
 20
211.966
 11
-222.509
 21
212.213
  0
LINE
  8
0
 10
-222.509
 20
212.213
 11
-222.787
 21
212.491
  0
LINE
  8
0
 10
-222.787
 20
212.491
 11
-223.034
 21
212.796
  0
LINE
  8
0
 10
-223.034
 20
212.796
 11
-223.248
 21
213.125
  0
LINE
  8
0
 10
-223.248
 20
213.125
 11
-223.426
 21
213.475
  0
LINE
  8
0
 10
-223.426
 20
213.475
 11
-223.566
 21
213.841
  0
LINE
  8
0
 10
-223.566
 20
213.841
 11
-223.668
 21
214.22
  0
LINE
  8
0
 10
-223.668
 20
214.22
 11
-223.729
 21
214.608
  0
LINE
  8
0
 10
-223.729
 20
214.608
 11
-223.75
 21
215
  0
LINE
  8
0
 10
-223.75
 20
215
 11
-223.729
 21
215.392
  0
LINE
  8
0
 10
-223.729
 20
215.392
 11
-223.668
 21
215.78
  0
LINE
  8
0
 10
-223.668
 20
215.78
 11
-223.566
 21
216.159
  0
LINE
  8
0
 10
-223.566
 20
216.159
 11
-223.426
 21
216.525
  0
LINE
  8
0
 10
-223.426
 20
216.525
 11
-223.248
 21
216.875
  0
LINE
  8
0
 10
-223.248
 20
216.875
 11
-223.034
 21
217.204
  0
LINE
  8
0
 10
-223.034
 20
217.204
 11
-222.787
 21
217.509
  0
LINE
  8
0
 10
-222.787
 20
217.509
 11
-222.509
 21
217.787
  0
LINE
  8
0
 10
-222.509
 20
217.787
 11
-222.204
 21
218.034
  0
LINE
  8
0
 10
-222.204
 20
218.034
 11
-221.875
 21
218.248
  0
LINE
  8
0
 10
-221.875
 20
218.248
 11
-221.525
 21
218.426
  0
LINE
  8
0
 10
-221.525
 20
218.426
 11
-221.159
 21
218.566
  0
LINE
  8
0
 10
-221.159
 20
218.566
 11
-220.78
 21
218.668
  0
LINE
  8
0
 10
-220.78
 20
218.668
 11
-220.392
 21
218.729
  0
LINE
  8
0
 10
-220.392
 20
218.729
 11
-220
 21
218.75
  0
LINE
  8
0
 10
-220
 20
218.75
 11
-219.608
 21
218.729
  0
LINE
  8
0
 10
-219.608
 20
218.729
 11
-219.22
 21
218.668
  0
LINE
  8
0
 10
-219.22
 20
218.668
 11
-218.841
 21
218.566
  0
LINE
  8
0
 10
-218.841
 20
218.566
 11
-218.475
 21
218.426
  0
LINE
  8
0
 10
-218.475
 20
218.426
 11
-218.125
 21
218.248
  0
LINE
  8
0
 10
-218.125
 20
218.248
 11
-217.796
 21
218.034
  0
LINE
  8
0
 10
-217.796
 20
218.034
 11
-217.491
 21
217.787
  0
LINE
  8
0
 10
-217.491
 20
217.787
 11
-217.213
 21
217.509
  0
LINE
  8
0
 10
-217.213
 20
217.509
 11
-216.966
 21
217.204
  0
LINE
  8
0
 10
-216.966
 20
217.204
 11
-216.752
 21
216.875
  0
LINE
  8
0
 10
-216.752
 20
216.875
 11
-216.574
 21
216.525
  0
LINE
  8
0
 10
-216.574
 20
216.525
 11
-216.434
 21
216.159
  0
LINE
  8
0
 10
-216.434
 20
216.159
 11
-216.332
 21
215.78
  0
LINE
  8
0
 10
-216.332
 20
215.78
 11
-216.271
 21
215.392
  0
LINE
  8
0
 10
-216.271
 20
215.392
 11
-216.25
 21
215
  0
LINE
  8
0
 10
-216.25
 20
215
 11
-216.271
 21
214.608
  0
LINE
  8
0
 10
-216.271
 20
214.608
 11
-216.332
 21
214.22
  0
LINE
  8
0
 10
-216.332
 20
214.22
 11
-216.434
 21
213.841
  0
LINE
  8
0
 10
-216.434
 20
213.841
 11
-216.574
 21
213.475
  0
LINE
  8
0
 10
-216.574
 20
213.475
 11
-216.752
 21
213.125
  0
LINE
  8
0
 10
-216.752
 20
213.125
 11
-216.966
 21
212.796
  0
LINE
  8
0
 10
-216.966
 20
212.796
 11
-217.213
 21
212.491
  0
LINE
  8
0
 10
-217.213
 20
212.491
 11
-217.491
 21
212.213
  0
LINE
  8
0
 10
-217.491
 20
212.213
 11
-217.796
 21
211.966
  0
LINE
  8
0
 10
-217.796
 20
211.966
 11
-218.125
 21
211.752
  0
LINE
  8
0
 10
-218.125
 20
211.752
 11
-218.475
 21
211.574
  0
LINE
  8
0
 10
-218.475
 20
211.574
 11
-218.841
 21
211.434
  0
LINE
  8
0
 10
-218.841
 20
211.434
 11
-219.22
 21
211.332
  0
LINE
  8
0
 10
-219.22
 20
211.332
 11
-219.608
 21
211.271
  0
LINE
  8
0
 10
-219.608
 20
211.271
 11
-220
 21
211.25
  0
LINE
  8
0
 10
-220
 20
211.25
 11
-220.392
 21
211.271
  0
LINE
  8
0
 10
219.608
 20
211.271
 11
219.22
 21
211.332
  0
LINE
  8
0
 10
219.22
 20
211.332
 11
218.841
 21
211.434
  0
LINE
  8
0
 10
218.841
 20
211.434
 11
218.475
 21
211.574
  0
LINE
  8
0
 10
218.475
 20
211.574
 11
218.125
 21
211.752
  0
LINE
  8
0
 10
218.125
 20
211.752
 11
217.796
 21
211.966
  0
LINE
  8
0
 10
217.796
 20
211.966
 11
217.491
 21
212.213
  0
LINE
  8
0
 10
217.491
 20
212.213
 11
217.213
 21
212.491
  0
LINE
  8
0
 10
217.213
 20
212.491
 11
216.966
 21
212.796
  0
LINE
  8
0
 10
216.966
 20
212.796
 11
216.752
 21
213.125
  0
LINE
  8
0
 10
216.752
 20
213.125
 11
216.574
 21
213.475
  0
LINE
  8
0
 10
216.574
 20
213.475
 11
216.434
 21
213.841
  0
LINE
  8
0
 10
216.434
 20
213.841
 11
216.332
 21
214.22
  0
LINE
  8
0
 10
216.332
 20
214.22
 11
216.271
 21
214.608
  0
LINE
  8
0
 10
216.271
 20
214.608
 11
216.25
 21
215
  0
LINE
  8
0
 10
216.25
 20
215
 11
216.271
 21
215.392
  0
LINE
  8
0
 10
216.271
 20
215.392
 11
216.332
 21
215.78
  0
LINE
  8
0
 10
216.332
 20
215.78
 11
216.434
 21
216.159
  0
LINE
  8
0
 10
216.434
 20
216.159
 11
216.574
 21
216.525
  0
LINE
  8
0
 10
216.574
 20
216.525
 11
216.752
 21
216.875
  0
LINE
  8
0
 10
216.752
 20
216.875
 11
216.966
 21
217.204
  0
LINE
  8
0
 10
216.966
 20
217.204
 11
217.213
 21
217.509
  0
LINE
  8
0
 10
217.213
 20
217.509
 11
217.491
 21
217.787
  0
LINE
  8
0
 10
217.491
 20
217.787
 11
217.796
 21
218.034
  0
LINE
  8
0
 10
217.796
 20
218.034
 11
218.125
 21
218.248
  0
LINE
  8
0
 10
218.125
 20
218.248
 11
218.475
 21
218.426
  0
LINE
  8
0
 10
218.475
 20
218.426
 11
218.841
 21
218.566
  0
LINE
  8
0
 10
218.841
 20
218.566
 11
219.22
 21
218.668
  0
LINE
  8
0
 10
219.22
 20
218.668
 11
219.608
 21
218.729
  0
LINE
  8
0
 10
219.608
 20
218.729
 11
220
 21
218.75
  0
LINE
  8
0
 10
220
 20
218.75
 11
220.392
 21
218.729
  0
LINE
  8
0
 10
220.392
 20
218.729
 11
220.78
 21
218.668
  0
LINE
  8
0
 10
220.78
 20
218.668
 11
221.159
 21
218.566
  0
LINE
  8
0
 10
221.159
 20
218.566
 11
221.525
 21
218.426
  0
LINE
  8
0
 10
221.525
 20
218.426
 11
221.875
 21
218.248
  0
LINE
  8
0
 10
221.875
 20
218.248
 11
222.204
 21
218.034
  0
LINE
  8
0
 10
222.204
 20
218.034
 11
222.509
 21
217.787
  0
LINE
  8
0
 10
222.509
 20
217.787
 11
222.787
 21
217.509
  0
LINE
  8
0
 10
222.787
 20
217.509
 11
223.034
 21
217.204
  0
LINE
  8
0
 10
223.034
 20
217.204
 11
223.248
 21
216.875
  0
LINE
  8
0
 10
223.248
 20
216.875
 11
223.426
 21
216.525
  0
LINE
  8
0
 10
223.426
 20
216.525
 11
223.566
 21
216.159
  0
LINE
  8
0
 10
223.566
 20
216.159
 11
223.668
 21
215.78
  0
LINE
  8
0
 10
223.668
 20
215.78
 11
223.729
 21
215.392
  0
LINE
  8
0
 10
223.729
 20
215.392
 11
223.75
 21
215
  0
LINE
  8
0
 10
223.75
 20
215
 11
223.729
 21
214.608
  0
LINE
  8
0
 10
223.729
 20
214.608
 11
223.668
 21
214.22
  0
LINE
  8
0
 10
223.668
 20
214.22
 11
223.566
 21
213.841
  0
LINE
  8
0
 10
223.566
 20
213.841
 11
223.426
 21
213.475
  0
LINE
  8
0
 10
223.426
 20
213.475
 11
223.248
 21
213.125
  0
LINE
  8
0
 10
223.248
 20
213.125
 11
223.034
 21
212.796
  0
LINE
  8
0
 10
223.034
 20
212.796
 11
222.787
 21
212.491
  0
LINE
  8
0
 10
222.787
 20
212.491
 11
222.509
 21
212.213
  0
LINE
  8
0
 10
222.509
 20
212.213
 11
222.204
 21
211.966
  0
LINE
  8
0
 10
222.204
 20
211.966
 11
221.875
 21
211.752
  0
LINE
  8
0
 10
221.875
 20
211.752
 11
221.525
 21
211.574
  0
LINE
  8
0
 10
221.525
 20
211.574
 11
221.159
 21
211.434
  0
LINE
  8
0
 10
221.159
 20
211.434
 11
220.78
 21
211.332
  0
LINE
  8
0
 10
220.78
 20
211.332
 11
220.392
 21
211.271
  0
LINE
  8
0
 10
220.392
 20
211.271
 11
220
 21
211.25
  0
LINE
  8
0
 10
220
 20
211.25
 11
219.608
 21
211.271
  0
LINE
  8
0
 10
-89.0588
 20
213.328
 11
-89.2989
 21
213.391
  0
LINE
  8
0
 10
-89.2989
 20
213.391
 11
-89.5273
 21
213.488
  0
LINE
  8
0
 10
-89.5273
 20
213.488
 11
-89.7392
 21
213.617
  0
LINE
  8
0
 10
-89.7392
 20
213.617
 11
-89.9299
 21
213.776
  0
LINE
  8
0
 10
-89.9299
 20
213.776
 11
-90.0955
 21
213.961
  0
LINE
  8
0
 10
-90.0955
 20
213.961
 11
-90.2325
 21
214.168
  0
LINE
  8
0
 10
-90.2325
 20
214.168
 11
-90.3378
 21
214.393
  0
LINE
  8
0
 10
-90.3378
 20
214.393
 11
-90.4093
 21
214.63
  0
LINE
  8
0
 10
-90.4093
 20
214.63
 11
-90.4455
 21
214.876
  0
LINE
  8
0
 10
-90.4455
 20
214.876
 11
-90.4455
 21
215.124
  0
LINE
  8
0
 10
-90.4455
 20
215.124
 11
-90.4093
 21
215.37
  0
LINE
  8
0
 10
-90.4093
 20
215.37
 11
-90.3378
 21
215.607
  0
LINE
  8
0
 10
-90.3378
 20
215.607
 11
-90.2325
 21
215.832
  0
LINE
  8
0
 10
-90.2325
 20
215.832
 11
-90.0955
 21
216.039
  0
LINE
  8
0
 10
-90.0955
 20
216.039
 11
-89.9299
 21
216.224
  0
LINE
  8
0
 10
-89.9299
 20
216.224
 11
-89.7392
 21
216.383
  0
LINE
  8
0
 10
-89.7392
 20
216.383
 11
-89.5273
 21
216.512
  0
LINE
  8
0
 10
-89.5273
 20
216.512
 11
-89.2989
 21
216.609
  0
LINE
  8
0
 10
-89.2989
 20
216.609
 11
-89.0588
 21
216.672
  0
LINE
  8
0
 10
-89.0588
 20
216.672
 11
-88.8121
 21
216.699
  0
LINE
  8
0
 10
-88.8121
 20
216.699
 11
-88.5641
 21
216.69
  0
LINE
  8
0
 10
-88.5641
 20
216.69
 11
-88.32
 21
216.645
  0
LINE
  8
0
 10
-88.32
 20
216.645
 11
-88.0851
 21
216.565
  0
LINE
  8
0
 10
-88.0851
 20
216.565
 11
-87.8644
 21
216.451
  0
LINE
  8
0
 10
-87.8644
 20
216.451
 11
-87.6626
 21
216.307
  0
LINE
  8
0
 10
-87.6626
 20
216.307
 11
-87.4839
 21
216.134
  0
LINE
  8
0
 10
-87.4839
 20
216.134
 11
-87.3322
 21
215.938
  0
LINE
  8
0
 10
-87.3322
 20
215.938
 11
-87.2107
 21
215.722
  0
LINE
  8
0
 10
-87.2107
 20
215.722
 11
-87.1221
 21
215.49
  0
LINE
  8
0
 10
-87.1221
 20
215.49
 11
-87.0681
 21
215.248
  0
LINE
  8
0
 10
-87.0681
 20
215.248
 11
-87.05
 21
215
  0
LINE
  8
0
 10
-87.05
 20
215
 11
-87.0681
 21
214.752
  0
LINE
  8
0
 10
-87.0681
 20
214.752
 11
-87.1221
 21
214.51
  0
LINE
  8
0
 10
-87.1221
 20
214.51
 11
-87.2107
 21
214.278
  0
LINE
  8
0
 10
-87.2107
 20
214.278
 11
-87.3322
 21
214.062
  0
LINE
  8
0
 10
-87.3322
 20
214.062
 11
-87.4839
 21
213.866
  0
LINE
  8
0
 10
-87.4839
 20
213.866
 11
-87.6626
 21
213.693
  0
LINE
  8
0
 10
-87.6626
 20
213.693
 11
-87.8644
 21
213.549
  0
LINE
  8
0
 10
-87.8644
 20
213.549
 11
-88.0851
 21
213.435
  0
LINE
  8
0
 10
-88.0851
 20
213.435
 11
-88.32
 21
213.355
  0
LINE
  8
0
 10
-88.32
 20
213.355
 11
-88.5641
 21
213.31
  0
LINE
  8
0
 10
-88.5641
 20
213.31
 11
-88.8121
 21
213.301
  0
LINE
  8
0
 10
-88.8121
 20
213.301
 11
-89.0588
 21
213.328
  0
LINE
  8
0
 10
-0.308777
 20
213.328
 11
-0.548889
 21
213.391
  0
LINE
  8
0
 10
-0.548889
 20
213.391
 11
-0.777298
 21
213.488
  0
LINE
  8
0
 10
-0.777298
 20
213.488
 11
-0.989151
 21
213.617
  0
LINE
  8
0
 10
-0.989151
 20
213.617
 11
-1.17992
 21
213.776
  0
LINE
  8
0
 10
-1.17992
 20
213.776
 11
-1.34554
 21
213.961
  0
LINE
  8
0
 10
-1.34554
 20
213.961
 11
-1.48248
 21
214.168
  0
LINE
  8
0
 10
-1.48248
 20
214.168
 11
-1.58781
 21
214.393
  0
LINE
  8
0
 10
-1.58781
 20
214.393
 11
-1.65932
 21
214.63
  0
LINE
  8
0
 10
-1.65932
 20
214.63
 11
-1.69545
 21
214.876
  0
LINE
  8
0
 10
-1.69545
 20
214.876
 11
-1.69545
 21
215.124
  0
LINE
  8
0
 10
-1.69545
 20
215.124
 11
-1.65932
 21
215.37
  0
LINE
  8
0
 10
-1.65932
 20
215.37
 11
-1.58781
 21
215.607
  0
LINE
  8
0
 10
-1.58781
 20
215.607
 11
-1.48248
 21
215.832
  0
LINE
  8
0
 10
-1.48248
 20
215.832
 11
-1.34554
 21
216.039
  0
LINE
  8
0
 10
-1.34554
 20
216.039
 11
-1.17992
 21
216.224
  0
LINE
  8
0
 10
-1.17992
 20
216.224
 11
-0.989151
 21
216.383
  0
LINE
  8
0
 10
-0.989151
 20
216.383
 11
-0.777298
 21
216.512
  0
LINE
  8
0
 10
-0.777298
 20
216.512
 11
-0.548889
 21
216.609
  0
LINE
  8
0
 10
-0.548889
 20
216.609
 11
-0.308777
 21
216.672
  0
LINE
  8
0
 10
-0.308777
 20
216.672
 11
-0.0620728
 21
216.699
  0
LINE
  8
0
 10
-0.0620728
 20
216.699
 11
0.185928
 21
216.69
  0
LINE
  8
0
 10
0.185928
 20
216.69
 11
0.429977
 21
216.645
  0
LINE
  8
0
 10
0.429977
 20
216.645
 11
0.664871
 21
216.565
  0
LINE
  8
0
 10
0.664871
 20
216.565
 11
0.88559
 21
216.451
  0
LINE
  8
0
 10
0.88559
 20
216.451
 11
1.08743
 21
216.307
  0
LINE
  8
0
 10
1.08743
 20
216.307
 11
1.2661
 21
216.134
  0
LINE
  8
0
 10
1.2661
 20
216.134
 11
1.41779
 21
215.938
  0
LINE
  8
0
 10
1.41779
 20
215.938
 11
1.53926
 21
215.722
  0
LINE
  8
0
 10
1.53926
 20
215.722
 11
1.62791
 21
215.49
  0
LINE
  8
0
 10
1.62791
 20
215.49
 11
1.68187
 21
215.248
  0
LINE
  8
0
 10
1.68187
 20
215.248
 11
1.7
 21
215
  0
LINE
  8
0
 10
1.7
 20
215
 11
1.68187
 21
214.752
  0
LINE
  8
0
 10
1.68187
 20
214.752
 11
1.62791
 21
214.51
  0
LINE
  8
0
 10
1.62791
 20
214.51
 11
1.53926
 21
214.278
  0
LINE
  8
0
 10
1.53926
 20
214.278
 11
1.41779
 21
214.062
  0
LINE
  8
0
 10
1.41779
 20
214.062
 11
1.2661
 21
213.866
  0
LINE
  8
0
 10
1.2661
 20
213.866
 11
1.08743
 21
213.693
  0
LINE
  8
0
 10
1.08743
 20
213.693
 11
0.88559
 21
213.549
  0
LINE
  8
0
 10
0.88559
 20
213.549
 11
0.664871
 21
213.435
  0
LINE
  8
0
 10
0.664871
 20
213.435
 11
0.429977
 21
213.355
  0
LINE
  8
0
 10
0.429977
 20
213.355
 11
0.185928
 21
213.31
  0
LINE
  8
0
 10
0.185928
 20
213.31
 11
-0.0620728
 21
213.301
  0
LINE
  8
0
 10
-0.0620728
 20
213.301
 11
-0.308777
 21
213.328
  0
LINE
  8
0
 10
88.4412
 20
213.328
 11
88.2011
 21
213.391
  0
LINE
  8
0
 10
88.2011
 20
213.391
 11
87.9727
 21
213.488
  0
LINE
  8
0
 10
87.9727
 20
213.488
 11
87.7608
 21
213.617
  0
LINE
  8
0
 10
87.7608
 20
213.617
 11
87.5701
 21
213.776
  0
LINE
  8
0
 10
87.5701
 20
213.776
 11
87.4044
 21
213.961
  0
LINE
  8
0
 10
87.4044
 20
213.961
 11
87.2675
 21
214.168
  0
LINE
  8
0
 10
87.2675
 20
214.168
 11
87.1622
 21
214.393
  0
LINE
  8
0
 10
87.1622
 20
214.393
 11
87.0907
 21
214.63
  0
LINE
  8
0
 10
87.0907
 20
214.63
 11
87.0545
 21
214.876
  0
LINE
  8
0
 10
87.0545
 20
214.876
 11
87.0545
 21
215.124
  0
LINE
  8
0
 10
87.0545
 20
215.124
 11
87.0907
 21
215.37
  0
LINE
  8
0
 10
87.0907
 20
215.37
 11
87.1622
 21
215.607
  0
LINE
  8
0
 10
87.1622
 20
215.607
 11
87.2675
 21
215.832
  0
LINE
  8
0
 10
87.2675
 20
215.832
 11
87.4044
 21
216.039
  0
LINE
  8
0
 10
87.4044
 20
216.039
 11
87.5701
 21
216.224
  0
LINE
  8
0
 10
87.5701
 20
216.224
 11
87.7608
 21
216.383
  0
LINE
  8
0
 10
87.7608
 20
216.383
 11
87.9727
 21
216.512
  0
LINE
  8
0
 10
87.9727
 20
216.512
 11
88.2011
 21
216.609
  0
LINE
  8
0
 10
88.2011
 20
216.609
 11
88.4412
 21
216.672
  0
LINE
  8
0
 10
88.4412
 20
216.672
 11
88.6879
 21
216.699
  0
LINE
  8
0
 10
88.6879
 20
216.699
 11
88.9359
 21
216.69
  0
LINE
  8
0
 10
88.9359
 20
216.69
 11
89.18
 21
216.645
  0
LINE
  8
0
 10
89.18
 20
216.645
 11
89.4149
 21
216.565
  0
LINE
  8
0
 10
89.4149
 20
216.565
 11
89.6356
 21
216.451
  0
LINE
  8
0
 10
89.6356
 20
216.451
 11
89.8374
 21
216.307
  0
LINE
  8
0
 10
89.8374
 20
216.307
 11
90.0161
 21
216.134
  0
LINE
  8
0
 10
90.0161
 20
216.134
 11
90.1678
 21
215.938
  0
LINE
  8
0
 10
90.1678
 20
215.938
 11
90.2893
 21
215.722
  0
LINE
  8
0
 10
90.2893
 20
215.722
 11
90.3779
 21
215.49
  0
LINE
  8
0
 10
90.3779
 20
215.49
 11
90.4319
 21
215.248
  0
LINE
  8
0
 10
90.4319
 20
215.248
 11
90.45
 21
215
  0
LINE
  8
0
 10
90.45
 20
215
 11
90.4319
 21
214.752
  0
LINE
  8
0
 10
90.4319
 20
214.752
 11
90.3779
 21
214.51
  0
LINE
  8
0
 10
90.3779
 20
214.51
 11
90.2893
 21
214.278
  0
LINE
  8
0
 10
90.2893
 20
214.278
 11
90.1678
 21
214.062
  0
LINE
  8
0
 10
90.1678
 20
214.062
 11
90.0161
 21
213.866
  0
LINE
  8
0
 10
90.0161
 20
213.866
 11
89.8374
 21
213.693
  0
LINE
  8
0
 10
89.8374
 20
213.693
 11
89.6356
 21
213.549
  0
LINE
  8
0
 10
89.6356
 20
213.549
 11
89.4149
 21
213.435
  0
LINE
  8
0
 10
89.4149
 20
213.435
 11
89.18
 21
213.355
  0
LINE
  8
0
 10
89.18
 20
213.355
 11
88.9359
 21
213.31
  0
LINE
  8
0
 10
88.9359
 20
213.31
 11
88.6879
 21
213.301
  0
LINE
  8
0
 10
88.6879
 20
213.301
 11
88.4412
 21
213.328
  0
LINE
  8
0
 10
-177.809
 20
213.328
 11
-178.049
 21
213.391
  0
LINE
  8
0
 10
-178.049
 20
213.391
 11
-178.277
 21
213.488
  0
LINE
  8
0
 10
-178.277
 20
213.488
 11
-178.489
 21
213.617
  0
LINE
  8
0
 10
-178.489
 20
213.617
 11
-178.68
 21
213.776
  0
LINE
  8
0
 10
-178.68
 20
213.776
 11
-178.846
 21
213.961
  0
LINE
  8
0
 10
-178.846
 20
213.961
 11
-178.982
 21
214.168
  0
LINE
  8
0
 10
-178.982
 20
214.168
 11
-179.088
 21
214.393
  0
LINE
  8
0
 10
-179.088
 20
214.393
 11
-179.159
 21
214.63
  0
LINE
  8
0
 10
-179.159
 20
214.63
 11
-179.195
 21
214.876
  0
LINE
  8
0
 10
-179.195
 20
214.876
 11
-179.195
 21
215.124
  0
LINE
  8
0
 10
-179.195
 20
215.124
 11
-179.159
 21
215.37
  0
LINE
  8
0
 10
-179.159
 20
215.37
 11
-179.088
 21
215.607
  0
LINE
  8
0
 10
-179.088
 20
215.607
 11
-178.982
 21
215.832
  0
LINE
  8
0
 10
-178.982
 20
215.832
 11
-178.846
 21
216.039
  0
LINE
  8
0
 10
-178.846
 20
216.039
 11
-178.68
 21
216.224
  0
LINE
  8
0
 10
-178.68
 20
216.224
 11
-178.489
 21
216.383
  0
LINE
  8
0
 10
-178.489
 20
216.383
 11
-178.277
 21
216.512
  0
LINE
  8
0
 10
-178.277
 20
216.512
 11
-178.049
 21
216.609
  0
LINE
  8
0
 10
-178.049
 20
216.609
 11
-177.809
 21
216.672
  0
LINE
  8
0
 10
-177.809
 20
216.672
 11
-177.562
 21
216.699
  0
LINE
  8
0
 10
-177.562
 20
216.699
 11
-177.314
 21
216.69
  0
LINE
  8
0
 10
-177.314
 20
216.69
 11
-177.07
 21
216.645
  0
LINE
  8
0
 10
-177.07
 20
216.645
 11
-176.835
 21
216.565
  0
LINE
  8
0
 10
-176.835
 20
216.565
 11
-176.614
 21
216.451
  0
LINE
  8
0
 10
-176.614
 20
216.451
 11
-176.413
 21
216.307
  0
LINE
  8
0
 10
-176.413
 20
216.307
 11
-176.234
 21
216.134
  0
LINE
  8
0
 10
-176.234
 20
216.134
 11
-176.082
 21
215.938
  0
LINE
  8
0
 10
-176.082
 20
215.938
 11
-175.961
 21
215.722
  0
LINE
  8
0
 10
-175.961
 20
215.722
 11
-175.872
 21
215.49
  0
LINE
  8
0
 10
-175.872
 20
215.49
 11
-175.818
 21
215.248
  0
LINE
  8
0
 10
-175.818
 20
215.248
 11
-175.8
 21
215
  0
LINE
  8
0
 10
-175.8
 20
215
 11
-175.818
 21
214.752
  0
LINE
  8
0
 10
-175.818
 20
214.752
 11
-175.872
 21
214.51
  0
LINE
  8
0
 10
-175.872
 20
214.51
 11
-175.961
 21
214.278
  0
LINE
  8
0
 10
-175.961
 20
214.278
 11
-176.082
 21
214.062
  0
LINE
  8
0
 10
-176.082
 20
214.062
 11
-176.234
 21
213.866
  0
LINE
  8
0
 10
-176.234
 20
213.866
 11
-176.413
 21
213.693
  0
LINE
  8
0
 10
-176.413
 20
213.693
 11
-176.614
 21
213.549
  0
LINE
  8
0
 10
-176.614
 20
213.549
 11
-176.835
 21
213.435
  0
LINE
  8
0
 10
-176.835
 20
213.435
 11
-177.07
 21
213.355
  0
LINE
  8
0
 10
-177.07
 20
213.355
 11
-177.314
 21
213.31
  0
LINE
  8
0
 10
-177.314
 20
213.31
 11
-177.562
 21
213.301
  0
LINE
  8
0
 10
-177.562
 20
213.301
 11
-177.809
 21
213.328
  0
LINE
  8
0
 10
177.191
 20
213.328
 11
176.951
 21
213.391
  0
LINE
  8
0
 10
176.951
 20
213.391
 11
176.723
 21
213.488
  0
LINE
  8
0
 10
176.723
 20
213.488
 11
176.511
 21
213.617
  0
LINE
  8
0
 10
176.511
 20
213.617
 11
176.32
 21
213.776
  0
LINE
  8
0
 10
176.32
 20
213.776
 11
176.154
 21
213.961
  0
LINE
  8
0
 10
176.154
 20
213.961
 11
176.018
 21
214.168
  0
LINE
  8
0
 10
176.018
 20
214.168
 11
175.912
 21
214.393
  0
LINE
  8
0
 10
175.912
 20
214.393
 11
175.841
 21
214.63
  0
LINE
  8
0
 10
175.841
 20
214.63
 11
175.805
 21
214.876
  0
LINE
  8
0
 10
175.805
 20
214.876
 11
175.805
 21
215.124
  0
LINE
  8
0
 10
175.805
 20
215.124
 11
175.841
 21
215.37
  0
LINE
  8
0
 10
175.841
 20
215.37
 11
175.912
 21
215.607
  0
LINE
  8
0
 10
175.912
 20
215.607
 11
176.018
 21
215.832
  0
LINE
  8
0
 10
176.018
 20
215.832
 11
176.154
 21
216.039
  0
LINE
  8
0
 10
176.154
 20
216.039
 11
176.32
 21
216.224
  0
LINE
  8
0
 10
176.32
 20
216.224
 11
176.511
 21
216.383
  0
LINE
  8
0
 10
176.511
 20
216.383
 11
176.723
 21
216.512
  0
LINE
  8
0
 10
176.723
 20
216.512
 11
176.951
 21
216.609
  0
LINE
  8
0
 10
176.951
 20
216.609
 11
177.191
 21
216.672
  0
LINE
  8
0
 10
177.191
 20
216.672
 11
177.438
 21
216.699
  0
LINE
  8
0
 10
177.438
 20
216.699
 11
177.686
 21
216.69
  0
LINE
  8
0
 10
177.686
 20
216.69
 11
177.93
 21
216.645
  0
LINE
  8
0
 10
177.93
 20
216.645
 11
178.165
 21
216.565
  0
LINE
  8
0
 10
178.165
 20
216.565
 11
178.386
 21
216.451
  0
LINE
  8
0
 10
178.386
 20
216.451
 11
178.587
 21
216.307
  0
LINE
  8
0
 10
178.587
 20
216.307
 11
178.766
 21
216.134
  0
LINE
  8
0
 10
178.766
 20
216.134
 11
178.918
 21
215.938
  0
LINE
  8
0
 10
178.918
 20
215.938
 11
179.039
 21
215.722
  0
LINE
  8
0
 10
179.039
 20
215.722
 11
179.128
 21
215.49
  0
LINE
  8
0
 10
179.128
 20
215.49
 11
179.182
 21
215.248
  0
LINE
  8
0
 10
179.182
 20
215.248
 11
179.2
 21
215
  0
LINE
  8
0
 10
179.2
 20
215
 11
179.182
 21
214.752
  0
LINE
  8
0
 10
179.182
 20
214.752
 11
179.128
 21
214.51
  0
LINE
  8
0
 10
179.128
 20
214.51
 11
179.039
 21
214.278
  0
LINE
  8
0
 10
179.039
 20
214.278
 11
178.918
 21
214.062
  0
LINE
  8
0
 10
178.918
 20
214.062
 11
178.766
 21
213.866
  0
LINE
  8
0
 10
178.766
 20
213.866
 11
178.587
 21
213.693
  0
LINE
  8
0
 10
178.587
 20
213.693
 11
178.386
 21
213.549
  0
LINE
  8
0
 10
178.386
 20
213.549
 11
178.165
 21
213.435
  0
LINE
  8
0
 10
178.165
 20
213.435
 11
177.93
 21
213.355
  0
LINE
  8
0
 10
177.93
 20
213.355
 11
177.686
 21
213.31
  0
LINE
  8
0
 10
177.686
 20
213.31
 11
177.438
 21
213.301
  0
LINE
  8
0
 10
177.438
 20
213.301
 11
177.191
 21
213.328
  0
LINE
  8
0
 10
219.691
 20
170.828
 11
219.451
 21
170.891
  0
LINE
  8
0
 10
219.451
 20
170.891
 11
219.223
 21
170.988
  0
LINE
  8
0
 10
219.223
 20
170.988
 11
219.011
 21
171.117
  0
LINE
  8
0
 10
219.011
 20
171.117
 11
218.82
 21
171.276
  0
LINE
  8
0
 10
218.82
 20
171.276
 11
218.654
 21
171.461
  0
LINE
  8
0
 10
218.654
 20
171.461
 11
218.518
 21
171.668
  0
LINE
  8
0
 10
218.518
 20
171.668
 11
218.412
 21
171.893
  0
LINE
  8
0
 10
218.412
 20
171.893
 11
218.341
 21
172.13
  0
LINE
  8
0
 10
218.341
 20
172.13
 11
218.305
 21
172.376
  0
LINE
  8
0
 10
218.305
 20
172.376
 11
218.305
 21
172.624
  0
LINE
  8
0
 10
218.305
 20
172.624
 11
218.341
 21
172.87
  0
LINE
  8
0
 10
218.341
 20
172.87
 11
218.412
 21
173.107
  0
LINE
  8
0
 10
218.412
 20
173.107
 11
218.518
 21
173.332
  0
LINE
  8
0
 10
218.518
 20
173.332
 11
218.654
 21
173.539
  0
LINE
  8
0
 10
218.654
 20
173.539
 11
218.82
 21
173.724
  0
LINE
  8
0
 10
218.82
 20
173.724
 11
219.011
 21
173.883
  0
LINE
  8
0
 10
219.011
 20
173.883
 11
219.223
 21
174.012
  0
LINE
  8
0
 10
219.223
 20
174.012
 11
219.451
 21
174.109
  0
LINE
  8
0
 10
219.451
 20
174.109
 11
219.691
 21
174.172
  0
LINE
  8
0
 10
219.691
 20
174.172
 11
219.938
 21
174.199
  0
LINE
  8
0
 10
219.938
 20
174.199
 11
220.186
 21
174.19
  0
LINE
  8
0
 10
220.186
 20
174.19
 11
220.43
 21
174.145
  0
LINE
  8
0
 10
220.43
 20
174.145
 11
220.665
 21
174.065
  0
LINE
  8
0
 10
220.665
 20
174.065
 11
220.886
 21
173.951
  0
LINE
  8
0
 10
220.886
 20
173.951
 11
221.087
 21
173.807
  0
LINE
  8
0
 10
221.087
 20
173.807
 11
221.266
 21
173.634
  0
LINE
  8
0
 10
221.266
 20
173.634
 11
221.418
 21
173.438
  0
LINE
  8
0
 10
221.418
 20
173.438
 11
221.539
 21
173.222
  0
LINE
  8
0
 10
221.539
 20
173.222
 11
221.628
 21
172.99
  0
LINE
  8
0
 10
221.628
 20
172.99
 11
221.682
 21
172.748
  0
LINE
  8
0
 10
221.682
 20
172.748
 11
221.7
 21
172.5
  0
LINE
  8
0
 10
221.7
 20
172.5
 11
221.682
 21
172.252
  0
LINE
  8
0
 10
221.682
 20
172.252
 11
221.628
 21
172.01
  0
LINE
  8
0
 10
221.628
 20
172.01
 11
221.539
 21
171.778
  0
LINE
  8
0
 10
221.539
 20
171.778
 11
221.418
 21
171.562
  0
LINE
  8
0
 10
221.418
 20
171.562
 11
221.266
 21
171.366
  0
LINE
  8
0
 10
221.266
 20
171.366
 11
221.087
 21
171.193
  0
LINE
  8
0
 10
221.087
 20
171.193
 11
220.886
 21
171.049
  0
LINE
  8
0
 10
220.886
 20
171.049
 11
220.665
 21
170.935
  0
LINE
  8
0
 10
220.665
 20
170.935
 11
220.43
 21
170.855
  0
LINE
  8
0
 10
220.43
 20
170.855
 11
220.186
 21
170.81
  0
LINE
  8
0
 10
220.186
 20
170.81
 11
219.938
 21
170.801
  0
LINE
  8
0
 10
219.938
 20
170.801
 11
219.691
 21
170.828
  0
LINE
  8
0
 10
-220.186
 20
170.81
 11
-220.43
 21
170.855
  0
LINE
  8
0
 10
-220.43
 20
170.855
 11
-220.665
 21
170.935
  0
LINE
  8
0
 10
-220.665
 20
170.935
 11
-220.886
 21
171.049
  0
LINE
  8
0
 10
-220.886
 20
171.049
 11
-221.087
 21
171.193
  0
LINE
  8
0
 10
-221.087
 20
171.193
 11
-221.266
 21
171.366
  0
LINE
  8
0
 10
-221.266
 20
171.366
 11
-221.418
 21
171.562
  0
LINE
  8
0
 10
-221.418
 20
171.562
 11
-221.539
 21
171.778
  0
LINE
  8
0
 10
-221.539
 20
171.778
 11
-221.628
 21
172.01
  0
LINE
  8
0
 10
-221.628
 20
172.01
 11
-221.682
 21
172.252
  0
LINE
  8
0
 10
-221.682
 20
172.252
 11
-221.7
 21
172.5
  0
LINE
  8
0
 10
-221.7
 20
172.5
 11
-221.682
 21
172.748
  0
LINE
  8
0
 10
-221.682
 20
172.748
 11
-221.628
 21
172.99
  0
LINE
  8
0
 10
-221.628
 20
172.99
 11
-221.539
 21
173.222
  0
LINE
  8
0
 10
-221.539
 20
173.222
 11
-221.418
 21
173.438
  0
LINE
  8
0
 10
-221.418
 20
173.438
 11
-221.266
 21
173.634
  0
LINE
  8
0
 10
-221.266
 20
173.634
 11
-221.087
 21
173.807
  0
LINE
  8
0
 10
-221.087
 20
173.807
 11
-220.886
 21
173.951
  0
LINE
  8
0
 10
-220.886
 20
173.951
 11
-220.665
 21
174.065
  0
LINE
  8
0
 10
-220.665
 20
174.065
 11
-220.43
 21
174.145
  0
LINE
  8
0
 10
-220.43
 20
174.145
 11
-220.186
 21
174.19
  0
LINE
  8
0
 10
-220.186
 20
174.19
 11
-219.938
 21
174.199
  0
LINE
  8
0
 10
-219.938
 20
174.199
 11
-219.691
 21
174.172
  0
LINE
  8
0
 10
-219.691
 20
174.172
 11
-219.451
 21
174.109
  0
LINE
  8
0
 10
-219.451
 20
174.109
 11
-219.223
 21
174.012
  0
LINE
  8
0
 10
-219.223
 20
174.012
 11
-219.011
 21
173.883
  0
LINE
  8
0
 10
-219.011
 20
173.883
 11
-218.82
 21
173.724
  0
LINE
  8
0
 10
-218.82
 20
173.724
 11
-218.654
 21
173.539
  0
LINE
  8
0
 10
-218.654
 20
173.539
 11
-218.518
 21
173.332
  0
LINE
  8
0
 10
-218.518
 20
173.332
 11
-218.412
 21
173.107
  0
LINE
  8
0
 10
-218.412
 20
173.107
 11
-218.341
 21
172.87
  0
LINE
  8
0
 10
-218.341
 20
172.87
 11
-218.305
 21
172.624
  0
LINE
  8
0
 10
-218.305
 20
172.624
 11
-218.305
 21
172.376
  0
LINE
  8
0
 10
-218.305
 20
172.376
 11
-218.341
 21
172.13
  0
LINE
  8
0
 10
-218.341
 20
172.13
 11
-218.412
 21
171.893
  0
LINE
  8
0
 10
-218.412
 20
171.893
 11
-218.518
 21
171.668
  0
LINE
  8
0
 10
-218.518
 20
171.668
 11
-218.654
 21
171.461
  0
LINE
  8
0
 10
-218.654
 20
171.461
 11
-218.82
 21
171.276
  0
LINE
  8
0
 10
-218.82
 20
171.276
 11
-219.011
 21
171.117
  0
LINE
  8
0
 10
-219.011
 20
171.117
 11
-219.223
 21
170.988
  0
LINE
  8
0
 10
-219.223
 20
170.988
 11
-219.451
 21
170.891
  0
LINE
  8
0
 10
-219.451
 20
170.891
 11
-219.691
 21
170.828
  0
LINE
  8
0
 10
-219.691
 20
170.828
 11
-219.938
 21
170.801
  0
LINE
  8
0
 10
-219.938
 20
170.801
 11
-220.186
 21
170.81
  0
LINE
  8
0
 10
-85.3589
 20
88.5712
 11
-86.7029
 21
88.7841
  0
LINE
  8
0
 10
-86.7029
 20
88.7841
 11
-88.0172
 21
89.1363
  0
LINE
  8
0
 10
-88.0172
 20
89.1363
 11
-89.2876
 21
89.6239
  0
LINE
  8
0
 10
-89.2876
 20
89.6239
 11
-90.5
 21
90.2417
  0
LINE
  8
0
 10
-90.5
 20
90.2417
 11
-91.6412
 21
90.9828
  0
LINE
  8
0
 10
-91.6412
 20
90.9828
 11
-92.6987
 21
91.8391
  0
LINE
  8
0
 10
-92.6987
 20
91.8391
 11
-93.6609
 21
92.8013
  0
LINE
  8
0
 10
-93.6609
 20
92.8013
 11
-94.5172
 21
93.8588
  0
LINE
  8
0
 10
-94.5172
 20
93.8588
 11
-95.2583
 21
95
  0
LINE
  8
0
 10
-95.2583
 20
95
 11
-95.8761
 21
96.2124
  0
LINE
  8
0
 10
-95.8761
 20
96.2124
 11
-96.3637
 21
97.4828
  0
LINE
  8
0
 10
-96.3637
 20
97.4828
 11
-96.7159
 21
98.7971
  0
LINE
  8
0
 10
-96.7159
 20
98.7971
 11
-96.9288
 21
100.141
  0
LINE
  8
0
 10
-96.9288
 20
100.141
 11
-97
 21
101.5
  0
LINE
  8
0
 10
-97
 20
101.5
 11
-96.9288
 21
102.859
  0
LINE
  8
0
 10
-96.9288
 20
102.859
 11
-96.7159
 21
104.203
  0
LINE
  8
0
 10
-96.7159
 20
104.203
 11
-96.3637
 21
105.517
  0
LINE
  8
0
 10
-96.3637
 20
105.517
 11
-95.8761
 21
106.788
  0
LINE
  8
0
 10
-95.8761
 20
106.788
 11
-95.2583
 21
108
  0
LINE
  8
0
 10
-95.2583
 20
108
 11
-94.5172
 21
109.141
  0
LINE
  8
0
 10
-94.5172
 20
109.141
 11
-93.6609
 21
110.199
  0
LINE
  8
0
 10
-93.6609
 20
110.199
 11
-92.6987
 21
111.161
  0
LINE
  8
0
 10
-92.6987
 20
111.161
 11
-91.6412
 21
112.017
  0
LINE
  8
0
 10
-91.6412
 20
112.017
 11
-90.5
 21
112.758
  0
LINE
  8
0
 10
-90.5
 20
112.758
 11
-89.2876
 21
113.376
  0
LINE
  8
0
 10
-89.2876
 20
113.376
 11
-88.0172
 21
113.864
  0
LINE
  8
0
 10
-88.0172
 20
113.864
 11
-86.7029
 21
114.216
  0
LINE
  8
0
 10
-86.7029
 20
114.216
 11
-85.3589
 21
114.429
  0
LINE
  8
0
 10
-85.3589
 20
114.429
 11
-84
 21
114.5
  0
LINE
  8
0
 10
-84
 20
114.5
 11
-82.6411
 21
114.429
  0
LINE
  8
0
 10
-82.6411
 20
114.429
 11
-81.2971
 21
114.216
  0
LINE
  8
0
 10
-81.2971
 20
114.216
 11
-79.9828
 21
113.864
  0
LINE
  8
0
 10
-79.9828
 20
113.864
 11
-78.7124
 21
113.376
  0
LINE
  8
0
 10
-78.7124
 20
113.376
 11
-77.5
 21
112.758
  0
LINE
  8
0
 10
-77.5
 20
112.758
 11
-76.3588
 21
112.017
  0
LINE
  8
0
 10
-76.3588
 20
112.017
 11
-75.3013
 21
111.161
  0
LINE
  8
0
 10
-75.3013
 20
111.161
 11
-74.3391
 21
110.199
  0
LINE
  8
0
 10
-74.3391
 20
110.199
 11
-73.4828
 21
109.141
  0
LINE
  8
0
 10
-73.4828
 20
109.141
 11
-72.7417
 21
108
  0
LINE
  8
0
 10
-72.7417
 20
108
 11
-72.1239
 21
106.788
  0
LINE
  8
0
 10
-72.1239
 20
106.788
 11
-71.6363
 21
105.517
  0
LINE
  8
0
 10
-71.6363
 20
105.517
 11
-71.2841
 21
104.203
  0
LINE
  8
0
 10
-71.2841
 20
104.203
 11
-71.0712
 21
102.859
  0
LINE
  8
0
 10
-71.0712
 20
102.859
 11
-71
 21
101.5
  0
LINE
  8
0
 10
-71
 20
101.5
 11
-71.0712
 21
100.141
  0
LINE
  8
0
 10
-71.0712
 20
100.141
 11
-71.2841
 21
98.7971
  0
LINE
  8
0
 10
-71.2841
 20
98.7971
 11
-71.6363
 21
97.4828
  0
LINE
  8
0
 10
-71.6363
 20
97.4828
 11
-72.1239
 21
96.2124
  0
LINE
  8
0
 10
-72.1239
 20
96.2124
 11
-72.7417
 21
95
  0
LINE
  8
0
 10
-72.7417
 20
95
 11
-73.4828
 21
93.8588
  0
LINE
  8
0
 10
-73.4828
 20
93.8588
 11
-74.3391
 21
92.8013
  0
LINE
  8
0
 10
-74.3391
 20
92.8013
 11
-75.3013
 21
91.8391
  0
LINE
  8
0
 10
-75.3013
 20
91.8391
 11
-76.3588
 21
90.9828
  0
LINE
  8
0
 10
-76.3588
 20
90.9828
 11
-77.5
 21
90.2417
  0
LINE
  8
0
 10
-77.5
 20
90.2417
 11
-78.7124
 21
89.6239
  0
LINE
  8
0
 10
-78.7124
 20
89.6239
 11
-79.9828
 21
89.1363
  0
LINE
  8
0
 10
-79.9828
 20
89.1363
 11
-81.2971
 21
88.7841
  0
LINE
  8
0
 10
-81.2971
 20
88.7841
 11
-82.6411
 21
88.5712
  0
LINE
  8
0
 10
-82.6411
 20
88.5712
 11
-84
 21
88.5
  0
LINE
  8
0
 10
-84
 20
88.5
 11
-85.3589
 21
88.5712
  0
LINE
  8
0
 10
-160.074
 20
103.455
 11
-160.318
 21
103.496
  0
LINE
  8
0
 10
-160.318
 20
103.496
 11
-160.553
 21
103.576
  0
LINE
  8
0
 10
-160.553
 20
103.576
 11
-160.77
 21
103.694
  0
LINE
  8
0
 10
-160.77
 20
103.694
 11
-160.966
 21
103.846
  0
LINE
  8
0
 10
-160.966
 20
103.846
 11
-161.134
 21
104.029
  0
LINE
  8
0
 10
-161.134
 20
104.029
 11
-161.269
 21
104.236
  0
LINE
  8
0
 10
-161.269
 20
104.236
 11
-161.369
 21
104.463
  0
LINE
  8
0
 10
-161.369
 20
104.463
 11
-161.43
 21
104.703
  0
LINE
  8
0
 10
-161.43
 20
104.703
 11
-161.45
 21
104.95
  0
LINE
  8
0
 10
-161.45
 20
104.95
 11
-161.43
 21
105.197
  0
LINE
  8
0
 10
-161.43
 20
105.197
 11
-161.369
 21
105.437
  0
LINE
  8
0
 10
-161.369
 20
105.437
 11
-161.269
 21
105.664
  0
LINE
  8
0
 10
-161.269
 20
105.664
 11
-161.134
 21
105.871
  0
LINE
  8
0
 10
-161.134
 20
105.871
 11
-160.966
 21
106.054
  0
LINE
  8
0
 10
-160.966
 20
106.054
 11
-160.77
 21
106.206
  0
LINE
  8
0
 10
-160.77
 20
106.206
 11
-160.553
 21
106.324
  0
LINE
  8
0
 10
-160.553
 20
106.324
 11
-160.318
 21
106.404
  0
LINE
  8
0
 10
-160.318
 20
106.404
 11
-160.074
 21
106.445
  0
LINE
  8
0
 10
-160.074
 20
106.445
 11
-159.826
 21
106.445
  0
LINE
  8
0
 10
-159.826
 20
106.445
 11
-159.582
 21
106.404
  0
LINE
  8
0
 10
-159.582
 20
106.404
 11
-159.347
 21
106.324
  0
LINE
  8
0
 10
-159.347
 20
106.324
 11
-159.13
 21
106.206
  0
LINE
  8
0
 10
-159.13
 20
106.206
 11
-158.934
 21
106.054
  0
LINE
  8
0
 10
-158.934
 20
106.054
 11
-158.766
 21
105.871
  0
LINE
  8
0
 10
-158.766
 20
105.871
 11
-158.631
 21
105.664
  0
LINE
  8
0
 10
-158.631
 20
105.664
 11
-158.531
 21
105.437
  0
LINE
  8
0
 10
-158.531
 20
105.437
 11
-158.47
 21
105.197
  0
LINE
  8
0
 10
-158.47
 20
105.197
 11
-158.45
 21
104.95
  0
LINE
  8
0
 10
-158.45
 20
104.95
 11
-158.47
 21
104.703
  0
LINE
  8
0
 10
-158.47
 20
104.703
 11
-158.531
 21
104.463
  0
LINE
  8
0
 10
-158.531
 20
104.463
 11
-158.631
 21
104.236
  0
LINE
  8
0
 10
-158.631
 20
104.236
 11
-158.766
 21
104.029
  0
LINE
  8
0
 10
-158.766
 20
104.029
 11
-158.934
 21
103.846
  0
LINE
  8
0
 10
-158.934
 20
103.846
 11
-159.13
 21
103.694
  0
LINE
  8
0
 10
-159.13
 20
103.694
 11
-159.347
 21
103.576
  0
LINE
  8
0
 10
-159.347
 20
103.576
 11
-159.582
 21
103.496
  0
LINE
  8
0
 10
-159.582
 20
103.496
 11
-159.826
 21
103.455
  0
LINE
  8
0
 10
-159.826
 20
103.455
 11
-160.074
 21
103.455
  0
LINE
  8
0
 10
159.826
 20
103.455
 11
159.582
 21
103.496
  0
LINE
  8
0
 10
159.582
 20
103.496
 11
159.347
 21
103.576
  0
LINE
  8
0
 10
159.347
 20
103.576
 11
159.13
 21
103.694
  0
LINE
  8
0
 10
159.13
 20
103.694
 11
158.934
 21
103.846
  0
LINE
  8
0
 10
158.934
 20
103.846
 11
158.766
 21
104.029
  0
LINE
  8
0
 10
158.766
 20
104.029
 11
158.631
 21
104.236
  0
LINE
  8
0
 10
158.631
 20
104.236
 11
158.531
 21
104.463
  0
LINE
  8
0
 10
158.531
 20
104.463
 11
158.47
 21
104.703
  0
LINE
  8
0
 10
158.47
 20
104.703
 11
158.45
 21
104.95
  0
LINE
  8
0
 10
158.45
 20
104.95
 11
158.47
 21
105.197
  0
LINE
  8
0
 10
158.47
 20
105.197
 11
158.531
 21
105.437
  0
LINE
  8
0
 10
158.531
 20
105.437
 11
158.631
 21
105.664
  0
LINE
  8
0
 10
158.631
 20
105.664
 11
158.766
 21
105.871
  0
LINE
  8
0
 10
158.766
 20
105.871
 11
158.934
 21
106.054
  0
LINE
  8
0
 10
158.934
 20
106.054
 11
159.13
 21
106.206
  0
LINE
  8
0
 10
159.13
 20
106.206
 11
159.347
 21
106.324
  0
LINE
  8
0
 10
159.347
 20
106.324
 11
159.582
 21
106.404
  0
LINE
  8
0
 10
159.582
 20
106.404
 11
159.826
 21
106.445
  0
LINE
  8
0
 10
159.826
 20
106.445
 11
160.074
 21
106.445
  0
LINE
  8
0
 10
160.074
 20
106.445
 11
160.318
 21
106.404
  0
LINE
  8
0
 10
160.318
 20
106.404
 11
160.553
 21
106.324
  0
LINE
  8
0
 10
160.553
 20
106.324
 11
160.77
 21
106.206
  0
LINE
  8
0
 10
160.77
 20
106.206
 11
160.966
 21
106.054
  0
LINE
  8
0
 10
160.966
 20
106.054
 11
161.134
 21
105.871
  0
LINE
  8
0
 10
161.134
 20
105.871
 11
161.269
 21
105.664
  0
LINE
  8
0
 10
161.269
 20
105.664
 11
161.369
 21
105.437
  0
LINE
  8
0
 10
161.369
 20
105.437
 11
161.43
 21
105.197
  0
LINE
  8
0
 10
161.43
 20
105.197
 11
161.45
 21
104.95
  0
LINE
  8
0
 10
161.45
 20
104.95
 11
161.43
 21
104.703
  0
LINE
  8
0
 10
161.43
 20
104.703
 11
161.369
 21
104.463
  0
LINE
  8
0
 10
161.369
 20
104.463
 11
161.269
 21
104.236
  0
LINE
  8
0
 10
161.269
 20
104.236
 11
161.134
 21
104.029
  0
LINE
  8
0
 10
161.134
 20
104.029
 11
160.966
 21
103.846
  0
LINE
  8
0
 10
160.966
 20
103.846
 11
160.77
 21
103.694
  0
LINE
  8
0
 10
160.77
 20
103.694
 11
160.553
 21
103.576
  0
LINE
  8
0
 10
160.553
 20
103.576
 11
160.318
 21
103.496
  0
LINE
  8
0
 10
160.318
 20
103.496
 11
160.074
 21
103.455
  0
LINE
  8
0
 10
160.074
 20
103.455
 11
159.826
 21
103.455
  0
LINE
  8
0
 10
44.1864
 20
88.0164
 11
43.8763
 21
88.0656
  0
LINE
  8
0
 10
43.8763
 20
88.0656
 11
43.5729
 21
88.1468
  0
LINE
  8
0
 10
43.5729
 20
88.1468
 11
43.2798
 21
88.2594
  0
LINE
  8
0
 10
43.2798
 20
88.2594
 11
43
 21
88.4019
  0
LINE
  8
0
 10
43
 20
88.4019
 11
42.7366
 21
88.573
  0
LINE
  8
0
 10
42.7366
 20
88.573
 11
42.4926
 21
88.7706
  0
LINE
  8
0
 10
42.4926
 20
88.7706
 11
42.2706
 21
88.9926
  0
LINE
  8
0
 10
42.2706
 20
88.9926
 11
42.0729
 21
89.2366
  0
LINE
  8
0
 10
42.0729
 20
89.2366
 11
41.9019
 21
89.5
  0
LINE
  8
0
 10
41.9019
 20
89.5
 11
41.7594
 21
89.7798
  0
LINE
  8
0
 10
41.7594
 20
89.7798
 11
41.6468
 21
90.073
  0
LINE
  8
0
 10
41.6468
 20
90.073
 11
41.5656
 21
90.3763
  0
LINE
  8
0
 10
41.5656
 20
90.3763
 11
41.5164
 21
90.6864
  0
LINE
  8
0
 10
41.5164
 20
90.6864
 11
41.5
 21
91
  0
LINE
  8
0
 10
41.5
 20
91
 11
41.5164
 21
91.3136
  0
LINE
  8
0
 10
41.5164
 20
91.3136
 11
41.5656
 21
91.6237
  0
LINE
  8
0
 10
41.5656
 20
91.6237
 11
41.6468
 21
91.927
  0
LINE
  8
0
 10
41.6468
 20
91.927
 11
41.7594
 21
92.2202
  0
LINE
  8
0
 10
41.7594
 20
92.2202
 11
41.9019
 21
92.5
  0
LINE
  8
0
 10
41.9019
 20
92.5
 11
42.0729
 21
92.7634
  0
LINE
  8
0
 10
42.0729
 20
92.7634
 11
42.2706
 21
93.0074
  0
LINE
  8
0
 10
42.2706
 20
93.0074
 11
42.4926
 21
93.2294
  0
LINE
  8
0
 10
42.4926
 20
93.2294
 11
42.7366
 21
93.427
  0
LINE
  8
0
 10
42.7366
 20
93.427
 11
43
 21
93.5981
  0
LINE
  8
0
 10
43
 20
93.5981
 11
43.2798
 21
93.7406
  0
LINE
  8
0
 10
43.2798
 20
93.7406
 11
43.5729
 21
93.8532
  0
LINE
  8
0
 10
43.5729
 20
93.8532
 11
43.8763
 21
93.9344
  0
LINE
  8
0
 10
43.8763
 20
93.9344
 11
44.1864
 21
93.9836
  0
LINE
  8
0
 10
44.1864
 20
93.9836
 11
44.5
 21
94
  0
LINE
  8
0
 10
44.5
 20
94
 11
44.8136
 21
93.9836
  0
LINE
  8
0
 10
44.8136
 20
93.9836
 11
45.1237
 21
93.9344
  0
LINE
  8
0
 10
45.1237
 20
93.9344
 11
45.427
 21
93.8532
  0
LINE
  8
0
 10
45.427
 20
93.8532
 11
45.7202
 21
93.7406
  0
LINE
  8
0
 10
45.7202
 20
93.7406
 11
46
 21
93.5981
  0
LINE
  8
0
 10
46
 20
93.5981
 11
46.2634
 21
93.427
  0
LINE
  8
0
 10
46.2634
 20
93.427
 11
46.5074
 21
93.2294
  0
LINE
  8
0
 10
46.5074
 20
93.2294
 11
46.7294
 21
93.0074
  0
LINE
  8
0
 10
46.7294
 20
93.0074
 11
46.927
 21
92.7634
  0
LINE
  8
0
 10
46.927
 20
92.7634
 11
47.0981
 21
92.5
  0
LINE
  8
0
 10
47.0981
 20
92.5
 11
47.2406
 21
92.2202
  0
LINE
  8
0
 10
47.2406
 20
92.2202
 11
47.3532
 21
91.927
  0
LINE
  8
0
 10
47.3532
 20
91.927
 11
47.4344
 21
91.6237
  0
LINE
  8
0
 10
47.4344
 20
91.6237
 11
47.4836
 21
91.3136
  0
LINE
  8
0
 10
47.4836
 20
91.3136
 11
47.5
 21
91
  0
LINE
  8
0
 10
47.5
 20
91
 11
47.4836
 21
90.6864
  0
LINE
  8
0
 10
47.4836
 20
90.6864
 11
47.4344
 21
90.3763
  0
LINE
  8
0
 10
47.4344
 20
90.3763
 11
47.3532
 21
90.073
  0
LINE
  8
0
 10
47.3532
 20
90.073
 11
47.2406
 21
89.7798
  0
LINE
  8
0
 10
47.2406
 20
89.7798
 11
47.0981
 21
89.5
  0
LINE
  8
0
 10
47.0981
 20
89.5
 11
46.927
 21
89.2366
  0
LINE
  8
0
 10
46.927
 20
89.2366
 11
46.7294
 21
88.9926
  0
LINE
  8
0
 10
46.7294
 20
88.9926
 11
46.5074
 21
88.7706
  0
LINE
  8
0
 10
46.5074
 20
88.7706
 11
46.2634
 21
88.573
  0
LINE
  8
0
 10
46.2634
 20
88.573
 11
46
 21
88.4019
  0
LINE
  8
0
 10
46
 20
88.4019
 11
45.7202
 21
88.2594
  0
LINE
  8
0
 10
45.7202
 20
88.2594
 11
45.427
 21
88.1468
  0
LINE
  8
0
 10
45.427
 20
88.1468
 11
45.1237
 21
88.0656
  0
LINE
  8
0
 10
45.1237
 20
88.0656
 11
44.8136
 21
88.0164
  0
LINE
  8
0
 10
44.8136
 20
88.0164
 11
44.5
 21
88
  0
LINE
  8
0
 10
44.5
 20
88
 11
44.1864
 21
88.0164
  0
LINE
  8
0
 10
129.186
 20
88.0164
 11
128.876
 21
88.0656
  0
LINE
  8
0
 10
128.876
 20
88.0656
 11
128.573
 21
88.1468
  0
LINE
  8
0
 10
128.573
 20
88.1468
 11
128.28
 21
88.2594
  0
LINE
  8
0
 10
128.28
 20
88.2594
 11
128
 21
88.4019
  0
LINE
  8
0
 10
128
 20
88.4019
 11
127.737
 21
88.573
  0
LINE
  8
0
 10
127.737
 20
88.573
 11
127.493
 21
88.7706
  0
LINE
  8
0
 10
127.493
 20
88.7706
 11
127.271
 21
88.9926
  0
LINE
  8
0
 10
127.271
 20
88.9926
 11
127.073
 21
89.2366
  0
LINE
  8
0
 10
127.073
 20
89.2366
 11
126.902
 21
89.5
  0
LINE
  8
0
 10
126.902
 20
89.5
 11
126.759
 21
89.7798
  0
LINE
  8
0
 10
126.759
 20
89.7798
 11
126.647
 21
90.073
  0
LINE
  8
0
 10
126.647
 20
90.073
 11
126.566
 21
90.3763
  0
LINE
  8
0
 10
126.566
 20
90.3763
 11
126.516
 21
90.6864
  0
LINE
  8
0
 10
126.516
 20
90.6864
 11
126.5
 21
91
  0
LINE
  8
0
 10
126.5
 20
91
 11
126.516
 21
91.3136
  0
LINE
  8
0
 10
126.516
 20
91.3136
 11
126.566
 21
91.6237
  0
LINE
  8
0
 10
126.566
 20
91.6237
 11
126.647
 21
91.927
  0
LINE
  8
0
 10
126.647
 20
91.927
 11
126.759
 21
92.2202
  0
LINE
  8
0
 10
126.759
 20
92.2202
 11
126.902
 21
92.5
  0
LINE
  8
0
 10
126.902
 20
92.5
 11
127.073
 21
92.7634
  0
LINE
  8
0
 10
127.073
 20
92.7634
 11
127.271
 21
93.0074
  0
LINE
  8
0
 10
127.271
 20
93.0074
 11
127.493
 21
93.2294
  0
LINE
  8
0
 10
127.493
 20
93.2294
 11
127.737
 21
93.427
  0
LINE
  8
0
 10
127.737
 20
93.427
 11
128
 21
93.5981
  0
LINE
  8
0
 10
128
 20
93.5981
 11
128.28
 21
93.7406
  0
LINE
  8
0
 10
128.28
 20
93.7406
 11
128.573
 21
93.8532
  0
LINE
  8
0
 10
128.573
 20
93.8532
 11
128.876
 21
93.9344
  0
LINE
  8
0
 10
128.876
 20
93.9344
 11
129.186
 21
93.9836
  0
LINE
  8
0
 10
129.186
 20
93.9836
 11
129.5
 21
94
  0
LINE
  8
0
 10
129.5
 20
94
 11
129.814
 21
93.9836
  0
LINE
  8
0
 10
129.814
 20
93.9836
 11
130.124
 21
93.9344
  0
LINE
  8
0
 10
130.124
 20
93.9344
 11
130.427
 21
93.8532
  0
LINE
  8
0
 10
130.427
 20
93.8532
 11
130.72
 21
93.7406
  0
LINE
  8
0
 10
130.72
 20
93.7406
 11
131
 21
93.5981
  0
LINE
  8
0
 10
131
 20
93.5981
 11
131.263
 21
93.427
  0
LINE
  8
0
 10
131.263
 20
93.427
 11
131.507
 21
93.2294
  0
LINE
  8
0
 10
131.507
 20
93.2294
 11
131.729
 21
93.0074
  0
LINE
  8
0
 10
131.729
 20
93.0074
 11
131.927
 21
92.7634
  0
LINE
  8
0
 10
131.927
 20
92.7634
 11
132.098
 21
92.5
  0
LINE
  8
0
 10
132.098
 20
92.5
 11
132.241
 21
92.2202
  0
LINE
  8
0
 10
132.241
 20
92.2202
 11
132.353
 21
91.927
  0
LINE
  8
0
 10
132.353
 20
91.927
 11
132.434
 21
91.6237
  0
LINE
  8
0
 10
132.434
 20
91.6237
 11
132.484
 21
91.3136
  0
LINE
  8
0
 10
132.484
 20
91.3136
 11
132.5
 21
91
  0
LINE
  8
0
 10
132.5
 20
91
 11
132.484
 21
90.6864
  0
LINE
  8
0
 10
132.484
 20
90.6864
 11
132.434
 21
90.3763
  0
LINE
  8
0
 10
132.434
 20
90.3763
 11
132.353
 21
90.073
  0
LINE
  8
0
 10
132.353
 20
90.073
 11
132.241
 21
89.7798
  0
LINE
  8
0
 10
132.241
 20
89.7798
 11
132.098
 21
89.5
  0
LINE
  8
0
 10
132.098
 20
89.5
 11
131.927
 21
89.2366
  0
LINE
  8
0
 10
131.927
 20
89.2366
 11
131.729
 21
88.9926
  0
LINE
  8
0
 10
131.729
 20
88.9926
 11
131.507
 21
88.7706
  0
LINE
  8
0
 10
131.507
 20
88.7706
 11
131.263
 21
88.573
  0
LINE
  8
0
 10
131.263
 20
88.573
 11
131
 21
88.4019
  0
LINE
  8
0
 10
131
 20
88.4019
 11
130.72
 21
88.2594
  0
LINE
  8
0
 10
130.72
 20
88.2594
 11
130.427
 21
88.1468
  0
LINE
  8
0
 10
130.427
 20
88.1468
 11
130.124
 21
88.0656
  0
LINE
  8
0
 10
130.124
 20
88.0656
 11
129.814
 21
88.0164
  0
LINE
  8
0
 10
129.814
 20
88.0164
 11
129.5
 21
88
  0
LINE
  8
0
 10
129.5
 20
88
 11
129.186
 21
88.0164
  0
LINE
  8
0
 10
-220.186
 20
84.5602
 11
-220.43
 21
84.6053
  0
LINE
  8
0
 10
-220.43
 20
84.6053
 11
-220.665
 21
84.6854
  0
LINE
  8
0
 10
-220.665
 20
84.6854
 11
-220.886
 21
84.7989
  0
LINE
  8
0
 10
-220.886
 20
84.7989
 11
-221.087
 21
84.9433
  0
LINE
  8
0
 10
-221.087
 20
84.9433
 11
-221.266
 21
85.1156
  0
LINE
  8
0
 10
-221.266
 20
85.1156
 11
-221.418
 21
85.312
  0
LINE
  8
0
 10
-221.418
 20
85.312
 11
-221.539
 21
85.5284
  0
LINE
  8
0
 10
-221.539
 20
85.5284
 11
-221.628
 21
85.7602
  0
LINE
  8
0
 10
-221.628
 20
85.7602
 11
-221.682
 21
86.0025
  0
LINE
  8
0
 10
-221.682
 20
86.0025
 11
-221.7
 21
86.25
  0
LINE
  8
0
 10
-221.7
 20
86.25
 11
-221.682
 21
86.4975
  0
LINE
  8
0
 10
-221.682
 20
86.4975
 11
-221.628
 21
86.7398
  0
LINE
  8
0
 10
-221.628
 20
86.7398
 11
-221.539
 21
86.9716
  0
LINE
  8
0
 10
-221.539
 20
86.9716
 11
-221.418
 21
87.188
  0
LINE
  8
0
 10
-221.418
 20
87.188
 11
-221.266
 21
87.3844
  0
LINE
  8
0
 10
-221.266
 20
87.3844
 11
-221.087
 21
87.5567
  0
LINE
  8
0
 10
-221.087
 20
87.5567
 11
-220.886
 21
87.7011
  0
LINE
  8
0
 10
-220.886
 20
87.7011
 11
-220.665
 21
87.8146
  0
LINE
  8
0
 10
-220.665
 20
87.8146
 11
-220.43
 21
87.8947
  0
LINE
  8
0
 10
-220.43
 20
87.8947
 11
-220.186
 21
87.9398
  0
LINE
  8
0
 10
-220.186
 20
87.9398
 11
-219.938
 21
87.9489
  0
LINE
  8
0
 10
-219.938
 20
87.9489
 11
-219.691
 21
87.9217
  0
LINE
  8
0
 10
-219.691
 20
87.9217
 11
-219.451
 21
87.8589
  0
LINE
  8
0
 10
-219.451
 20
87.8589
 11
-219.223
 21
87.7619
  0
LINE
  8
0
 10
-219.223
 20
87.7619
 11
-219.011
 21
87.6326
  0
LINE
  8
0
 10
-219.011
 20
87.6326
 11
-218.82
 21
87.4738
  0
LINE
  8
0
 10
-218.82
 20
87.4738
 11
-218.654
 21
87.289
  0
LINE
  8
0
 10
-218.654
 20
87.289
 11
-218.518
 21
87.082
  0
LINE
  8
0
 10
-218.518
 20
87.082
 11
-218.412
 21
86.8573
  0
LINE
  8
0
 10
-218.412
 20
86.8573
 11
-218.341
 21
86.6196
  0
LINE
  8
0
 10
-218.341
 20
86.6196
 11
-218.305
 21
86.3741
  0
LINE
  8
0
 10
-218.305
 20
86.3741
 11
-218.305
 21
86.1259
  0
LINE
  8
0
 10
-218.305
 20
86.1259
 11
-218.341
 21
85.8804
  0
LINE
  8
0
 10
-218.341
 20
85.8804
 11
-218.412
 21
85.6427
  0
LINE
  8
0
 10
-218.412
 20
85.6427
 11
-218.518
 21
85.418
  0
LINE
  8
0
 10
-218.518
 20
85.418
 11
-218.654
 21
85.211
  0
LINE
  8
0
 10
-218.654
 20
85.211
 11
-218.82
 21
85.0262
  0
LINE
  8
0
 10
-218.82
 20
85.0262
 11
-219.011
 21
84.8674
  0
LINE
  8
0
 10
-219.011
 20
84.8674
 11
-219.223
 21
84.7381
  0
LINE
  8
0
 10
-219.223
 20
84.7381
 11
-219.451
 21
84.6411
  0
LINE
  8
0
 10
-219.451
 20
84.6411
 11
-219.691
 21
84.5783
  0
LINE
  8
0
 10
-219.691
 20
84.5783
 11
-219.938
 21
84.5511
  0
LINE
  8
0
 10
-219.938
 20
84.5511
 11
-220.186
 21
84.5602
  0
LINE
  8
0
 10
219.691
 20
84.5783
 11
219.451
 21
84.6411
  0
LINE
  8
0
 10
219.451
 20
84.6411
 11
219.223
 21
84.7381
  0
LINE
  8
0
 10
219.223
 20
84.7381
 11
219.011
 21
84.8674
  0
LINE
  8
0
 10
219.011
 20
84.8674
 11
218.82
 21
85.0262
  0
LINE
  8
0
 10
218.82
 20
85.0262
 11
218.654
 21
85.211
  0
LINE
  8
0
 10
218.654
 20
85.211
 11
218.518
 21
85.418
  0
LINE
  8
0
 10
218.518
 20
85.418
 11
218.412
 21
85.6427
  0
LINE
  8
0
 10
218.412
 20
85.6427
 11
218.341
 21
85.8804
  0
LINE
  8
0
 10
218.341
 20
85.8804
 11
218.305
 21
86.1259
  0
LINE
  8
0
 10
218.305
 20
86.1259
 11
218.305
 21
86.3741
  0
LINE
  8
0
 10
218.305
 20
86.3741
 11
218.341
 21
86.6196
  0
LINE
  8
0
 10
218.341
 20
86.6196
 11
218.412
 21
86.8573
  0
LINE
  8
0
 10
218.412
 20
86.8573
 11
218.518
 21
87.082
  0
LINE
  8
0
 10
218.518
 20
87.082
 11
218.654
 21
87.289
  0
LINE
  8
0
 10
218.654
 20
87.289
 11
218.82
 21
87.4738
  0
LINE
  8
0
 10
218.82
 20
87.4738
 11
219.011
 21
87.6326
  0
LINE
  8
0
 10
219.011
 20
87.6326
 11
219.223
 21
87.7619
  0
LINE
  8
0
 10
219.223
 20
87.7619
 11
219.451
 21
87.8589
  0
LINE
  8
0
 10
219.451
 20
87.8589
 11
219.691
 21
87.9217
  0
LINE
  8
0
 10
219.691
 20
87.9217
 11
219.938
 21
87.9489
  0
LINE
  8
0
 10
219.938
 20
87.9489
 11
220.186
 21
87.9398
  0
LINE
  8
0
 10
220.186
 20
87.9398
 11
220.43
 21
87.8947
  0
LINE
  8
0
 10
220.43
 20
87.8947
 11
220.665
 21
87.8146
  0
LINE
  8
0
 10
220.665
 20
87.8146
 11
220.886
 21
87.7011
  0
LINE
  8
0
 10
220.886
 20
87.7011
 11
221.087
 21
87.5567
  0
LINE
  8
0
 10
221.087
 20
87.5567
 11
221.266
 21
87.3844
  0
LINE
  8
0
 10
221.266
 20
87.3844
 11
221.418
 21
87.188
  0
LINE
  8
0
 10
221.418
 20
87.188
 11
221.539
 21
86.9716
  0
LINE
  8
0
 10
221.539
 20
86.9716
 11
221.628
 21
86.7398
  0
LINE
  8
0
 10
221.628
 20
86.7398
 11
221.682
 21
86.4975
  0
LINE
  8
0
 10
221.682
 20
86.4975
 11
221.7
 21
86.25
  0
LINE
  8
0
 10
221.7
 20
86.25
 11
221.682
 21
86.0025
  0
LINE
  8
0
 10
221.682
 20
86.0025
 11
221.628
 21
85.7602
  0
LINE
  8
0
 10
221.628
 20
85.7602
 11
221.539
 21
85.5284
  0
LINE
  8
0
 10
221.539
 20
85.5284
 11
221.418
 21
85.312
  0
LINE
  8
0
 10
221.418
 20
85.312
 11
221.266
 21
85.1156
  0
LINE
  8
0
 10
221.266
 20
85.1156
 11
221.087
 21
84.9433
  0
LINE
  8
0
 10
221.087
 20
84.9433
 11
220.886
 21
84.7989
  0
LINE
  8
0
 10
220.886
 20
84.7989
 11
220.665
 21
84.6854
  0
LINE
  8
0
 10
220.665
 20
84.6854
 11
220.43
 21
84.6053
  0
LINE
  8
0
 10
220.43
 20
84.6053
 11
220.186
 21
84.5602
  0
LINE
  8
0
 10
220.186
 20
84.5602
 11
219.938
 21
84.5511
  0
LINE
  8
0
 10
219.938
 20
84.5511
 11
219.691
 21
84.5783
  0
LINE
  8
0
 10
-27.5663
 20
69.3138
 11
-27.8095
 21
69.3551
  0
LINE
  8
0
 10
-27.8095
 20
69.3551
 11
-28.0466
 21
69.4234
  0
LINE
  8
0
 10
-28.0466
 20
69.4234
 11
-28.2745
 21
69.5179
  0
LINE
  8
0
 10
-28.2745
 20
69.5179
 11
-28.4905
 21
69.6372
  0
LINE
  8
0
 10
-28.4905
 20
69.6372
 11
-28.6917
 21
69.78
  0
LINE
  8
0
 10
-28.6917
 20
69.78
 11
-28.8756
 21
69.9444
  0
LINE
  8
0
 10
-28.8756
 20
69.9444
 11
-29.04
 21
70.1283
  0
LINE
  8
0
 10
-29.04
 20
70.1283
 11
-29.1828
 21
70.3295
  0
LINE
  8
0
 10
-29.1828
 20
70.3295
 11
-29.3021
 21
70.5455
  0
LINE
  8
0
 10
-29.3021
 20
70.5455
 11
-29.3965
 21
70.7734
  0
LINE
  8
0
 10
-29.3965
 20
70.7734
 11
-29.4648
 21
71.0105
  0
LINE
  8
0
 10
-29.4648
 20
71.0105
 11
-29.5062
 21
71.2537
  0
LINE
  8
0
 10
-29.5062
 20
71.2537
 11
-29.52
 21
71.5
  0
LINE
  8
0
 10
-29.52
 20
71.5
 11
-29.5062
 21
71.7463
  0
LINE
  8
0
 10
-29.5062
 20
71.7463
 11
-29.4648
 21
71.9895
  0
LINE
  8
0
 10
-29.4648
 20
71.9895
 11
-29.3965
 21
72.2266
  0
LINE
  8
0
 10
-29.3965
 20
72.2266
 11
-29.3021
 21
72.4545
  0
LINE
  8
0
 10
-29.3021
 20
72.4545
 11
-29.1828
 21
72.6705
  0
LINE
  8
0
 10
-29.1828
 20
72.6705
 11
-29.04
 21
72.8717
  0
LINE
  8
0
 10
-29.04
 20
72.8717
 11
-28.8756
 21
73.0556
  0
LINE
  8
0
 10
-28.8756
 20
73.0556
 11
-28.6917
 21
73.22
  0
LINE
  8
0
 10
-28.6917
 20
73.22
 11
-28.4905
 21
73.3628
  0
LINE
  8
0
 10
-28.4905
 20
73.3628
 11
-28.2745
 21
73.4821
  0
LINE
  8
0
 10
-28.2745
 20
73.4821
 11
-28.0466
 21
73.5765
  0
LINE
  8
0
 10
-28.0466
 20
73.5765
 11
-27.8095
 21
73.6448
  0
LINE
  8
0
 10
-27.8095
 20
73.6448
 11
-27.5663
 21
73.6862
  0
LINE
  8
0
 10
-27.5663
 20
73.6862
 11
-27.32
 21
73.7
  0
LINE
  8
0
 10
-27.32
 20
73.7
 11
-27.0737
 21
73.6862
  0
LINE
  8
0
 10
-27.0737
 20
73.6862
 11
-26.8304
 21
73.6448
  0
LINE
  8
0
 10
-26.8304
 20
73.6448
 11
-26.5934
 21
73.5765
  0
LINE
  8
0
 10
-26.5934
 20
73.5765
 11
-26.3654
 21
73.4821
  0
LINE
  8
0
 10
-26.3654
 20
73.4821
 11
-26.1495
 21
73.3628
  0
LINE
  8
0
 10
-26.1495
 20
73.3628
 11
-25.9483
 21
73.22
  0
LINE
  8
0
 10
-25.9483
 20
73.22
 11
-25.7644
 21
73.0556
  0
LINE
  8
0
 10
-25.7644
 20
73.0556
 11
-25.6
 21
72.8717
  0
LINE
  8
0
 10
-25.6
 20
72.8717
 11
-25.4572
 21
72.6705
  0
LINE
  8
0
 10
-25.4572
 20
72.6705
 11
-25.3379
 21
72.4545
  0
LINE
  8
0
 10
-25.3379
 20
72.4545
 11
-25.2435
 21
72.2266
  0
LINE
  8
0
 10
-25.2435
 20
72.2266
 11
-25.1752
 21
71.9895
  0
LINE
  8
0
 10
-25.1752
 20
71.9895
 11
-25.1338
 21
71.7463
  0
LINE
  8
0
 10
-25.1338
 20
71.7463
 11
-25.12
 21
71.5
  0
LINE
  8
0
 10
-25.12
 20
71.5
 11
-25.1338
 21
71.2537
  0
LINE
  8
0
 10
-25.1338
 20
71.2537
 11
-25.1752
 21
71.0105
  0
LINE
  8
0
 10
-25.1752
 20
71.0105
 11
-25.2435
 21
70.7734
  0
LINE
  8
0
 10
-25.2435
 20
70.7734
 11
-25.3379
 21
70.5455
  0
LINE
  8
0
 10
-25.3379
 20
70.5455
 11
-25.4572
 21
70.3295
  0
LINE
  8
0
 10
-25.4572
 20
70.3295
 11
-25.6
 21
70.1283
  0
LINE
  8
0
 10
-25.6
 20
70.1283
 11
-25.7644
 21
69.9444
  0
LINE
  8
0
 10
-25.7644
 20
69.9444
 11
-25.9483
 21
69.78
  0
LINE
  8
0
 10
-25.9483
 20
69.78
 11
-26.1495
 21
69.6372
  0
LINE
  8
0
 10
-26.1495
 20
69.6372
 11
-26.3654
 21
69.5179
  0
LINE
  8
0
 10
-26.3654
 20
69.5179
 11
-26.5934
 21
69.4234
  0
LINE
  8
0
 10
-26.5934
 20
69.4234
 11
-26.8304
 21
69.3551
  0
LINE
  8
0
 10
-26.8304
 20
69.3551
 11
-27.0737
 21
69.3138
  0
LINE
  8
0
 10
-27.0737
 20
69.3138
 11
-27.32
 21
69.3
  0
LINE
  8
0
 10
-27.32
 20
69.3
 11
-27.5663
 21
69.3138
  0
LINE
  8
0
 10
-142.566
 20
69.3138
 11
-142.81
 21
69.3551
  0
LINE
  8
0
 10
-142.81
 20
69.3551
 11
-143.047
 21
69.4234
  0
LINE
  8
0
 10
-143.047
 20
69.4234
 11
-143.275
 21
69.5179
  0
LINE
  8
0
 10
-143.275
 20
69.5179
 11
-143.49
 21
69.6372
  0
LINE
  8
0
 10
-143.49
 20
69.6372
 11
-143.692
 21
69.78
  0
LINE
  8
0
 10
-143.692
 20
69.78
 11
-143.876
 21
69.9444
  0
LINE
  8
0
 10
-143.876
 20
69.9444
 11
-144.04
 21
70.1283
  0
LINE
  8
0
 10
-144.04
 20
70.1283
 11
-144.183
 21
70.3295
  0
LINE
  8
0
 10
-144.183
 20
70.3295
 11
-144.302
 21
70.5455
  0
LINE
  8
0
 10
-144.302
 20
70.5455
 11
-144.397
 21
70.7734
  0
LINE
  8
0
 10
-144.397
 20
70.7734
 11
-144.465
 21
71.0105
  0
LINE
  8
0
 10
-144.465
 20
71.0105
 11
-144.506
 21
71.2537
  0
LINE
  8
0
 10
-144.506
 20
71.2537
 11
-144.52
 21
71.5
  0
LINE
  8
0
 10
-144.52
 20
71.5
 11
-144.506
 21
71.7463
  0
LINE
  8
0
 10
-144.506
 20
71.7463
 11
-144.465
 21
71.9895
  0
LINE
  8
0
 10
-144.465
 20
71.9895
 11
-144.397
 21
72.2266
  0
LINE
  8
0
 10
-144.397
 20
72.2266
 11
-144.302
 21
72.4545
  0
LINE
  8
0
 10
-144.302
 20
72.4545
 11
-144.183
 21
72.6705
  0
LINE
  8
0
 10
-144.183
 20
72.6705
 11
-144.04
 21
72.8717
  0
LINE
  8
0
 10
-144.04
 20
72.8717
 11
-143.876
 21
73.0556
  0
LINE
  8
0
 10
-143.876
 20
73.0556
 11
-143.692
 21
73.22
  0
LINE
  8
0
 10
-143.692
 20
73.22
 11
-143.49
 21
73.3628
  0
LINE
  8
0
 10
-143.49
 20
73.3628
 11
-143.275
 21
73.4821
  0
LINE
  8
0
 10
-143.275
 20
73.4821
 11
-143.047
 21
73.5765
  0
LINE
  8
0
 10
-143.047
 20
73.5765
 11
-142.81
 21
73.6448
  0
LINE
  8
0
 10
-142.81
 20
73.6448
 11
-142.566
 21
73.6862
  0
LINE
  8
0
 10
-142.566
 20
73.6862
 11
-142.32
 21
73.7
  0
LINE
  8
0
 10
-142.32
 20
73.7
 11
-142.074
 21
73.6862
  0
LINE
  8
0
 10
-142.074
 20
73.6862
 11
-141.83
 21
73.6448
  0
LINE
  8
0
 10
-141.83
 20
73.6448
 11
-141.593
 21
73.5765
  0
LINE
  8
0
 10
-141.593
 20
73.5765
 11
-141.365
 21
73.4821
  0
LINE
  8
0
 10
-141.365
 20
73.4821
 11
-141.15
 21
73.3628
  0
LINE
  8
0
 10
-141.15
 20
73.3628
 11
-140.948
 21
73.22
  0
LINE
  8
0
 10
-140.948
 20
73.22
 11
-140.764
 21
73.0556
  0
LINE
  8
0
 10
-140.764
 20
73.0556
 11
-140.6
 21
72.8717
  0
LINE
  8
0
 10
-140.6
 20
72.8717
 11
-140.457
 21
72.6705
  0
LINE
  8
0
 10
-140.457
 20
72.6705
 11
-140.338
 21
72.4545
  0
LINE
  8
0
 10
-140.338
 20
72.4545
 11
-140.243
 21
72.2266
  0
LINE
  8
0
 10
-140.243
 20
72.2266
 11
-140.175
 21
71.9895
  0
LINE
  8
0
 10
-140.175
 20
71.9895
 11
-140.134
 21
71.7463
  0
LINE
  8
0
 10
-140.134
 20
71.7463
 11
-140.12
 21
71.5
  0
LINE
  8
0
 10
-140.12
 20
71.5
 11
-140.134
 21
71.2537
  0
LINE
  8
0
 10
-140.134
 20
71.2537
 11
-140.175
 21
71.0105
  0
LINE
  8
0
 10
-140.175
 20
71.0105
 11
-140.243
 21
70.7734
  0
LINE
  8
0
 10
-140.243
 20
70.7734
 11
-140.338
 21
70.5455
  0
LINE
  8
0
 10
-140.338
 20
70.5455
 11
-140.457
 21
70.3295
  0
LINE
  8
0
 10
-140.457
 20
70.3295
 11
-140.6
 21
70.1283
  0
LINE
  8
0
 10
-140.6
 20
70.1283
 11
-140.764
 21
69.9444
  0
LINE
  8
0
 10
-140.764
 20
69.9444
 11
-140.948
 21
69.78
  0
LINE
  8
0
 10
-140.948
 20
69.78
 11
-141.15
 21
69.6372
  0
LINE
  8
0
 10
-141.15
 20
69.6372
 11
-141.365
 21
69.5179
  0
LINE
  8
0
 10
-141.365
 20
69.5179
 11
-141.593
 21
69.4234
  0
LINE
  8
0
 10
-141.593
 20
69.4234
 11
-141.83
 21
69.3551
  0
LINE
  8
0
 10
-141.83
 20
69.3551
 11
-142.074
 21
69.3138
  0
LINE
  8
0
 10
-142.074
 20
69.3138
 11
-142.32
 21
69.3
  0
LINE
  8
0
 10
-142.32
 20
69.3
 11
-142.566
 21
69.3138
  0
LINE
  8
0
 10
-12.5663
 20
69.3138
 11
-12.8095
 21
69.3551
  0
LINE
  8
0
 10
-12.8095
 20
69.3551
 11
-13.0466
 21
69.4234
  0
LINE
  8
0
 10
-13.0466
 20
69.4234
 11
-13.2745
 21
69.5179
  0
LINE
  8
0
 10
-13.2745
 20
69.5179
 11
-13.4905
 21
69.6372
  0
LINE
  8
0
 10
-13.4905
 20
69.6372
 11
-13.6917
 21
69.78
  0
LINE
  8
0
 10
-13.6917
 20
69.78
 11
-13.8756
 21
69.9444
  0
LINE
  8
0
 10
-13.8756
 20
69.9444
 11
-14.04
 21
70.1283
  0
LINE
  8
0
 10
-14.04
 20
70.1283
 11
-14.1828
 21
70.3295
  0
LINE
  8
0
 10
-14.1828
 20
70.3295
 11
-14.3021
 21
70.5455
  0
LINE
  8
0
 10
-14.3021
 20
70.5455
 11
-14.3965
 21
70.7734
  0
LINE
  8
0
 10
-14.3965
 20
70.7734
 11
-14.4648
 21
71.0105
  0
LINE
  8
0
 10
-14.4648
 20
71.0105
 11
-14.5062
 21
71.2537
  0
LINE
  8
0
 10
-14.5062
 20
71.2537
 11
-14.52
 21
71.5
  0
LINE
  8
0
 10
-14.52
 20
71.5
 11
-14.5062
 21
71.7463
  0
LINE
  8
0
 10
-14.5062
 20
71.7463
 11
-14.4648
 21
71.9895
  0
LINE
  8
0
 10
-14.4648
 20
71.9895
 11
-14.3965
 21
72.2266
  0
LINE
  8
0
 10
-14.3965
 20
72.2266
 11
-14.3021
 21
72.4545
  0
LINE
  8
0
 10
-14.3021
 20
72.4545
 11
-14.1828
 21
72.6705
  0
LINE
  8
0
 10
-14.1828
 20
72.6705
 11
-14.04
 21
72.8717
  0
LINE
  8
0
 10
-14.04
 20
72.8717
 11
-13.8756
 21
73.0556
  0
LINE
  8
0
 10
-13.8756
 20
73.0556
 11
-13.6917
 21
73.22
  0
LINE
  8
0
 10
-13.6917
 20
73.22
 11
-13.4905
 21
73.3628
  0
LINE
  8
0
 10
-13.4905
 20
73.3628
 11
-13.2745
 21
73.4821
  0
LINE
  8
0
 10
-13.2745
 20
73.4821
 11
-13.0466
 21
73.5765
  0
LINE
  8
0
 10
-13.0466
 20
73.5765
 11
-12.8095
 21
73.6448
  0
LINE
  8
0
 10
-12.8095
 20
73.6448
 11
-12.5663
 21
73.6862
  0
LINE
  8
0
 10
-12.5663
 20
73.6862
 11
-12.32
 21
73.7
  0
LINE
  8
0
 10
-12.32
 20
73.7
 11
-12.0737
 21
73.6862
  0
LINE
  8
0
 10
-12.0737
 20
73.6862
 11
-11.8304
 21
73.6448
  0
LINE
  8
0
 10
-11.8304
 20
73.6448
 11
-11.5934
 21
73.5765
  0
LINE
  8
0
 10
-11.5934
 20
73.5765
 11
-11.3654
 21
73.4821
  0
LINE
  8
0
 10
-11.3654
 20
73.4821
 11
-11.1495
 21
73.3628
  0
LINE
  8
0
 10
-11.1495
 20
73.3628
 11
-10.9483
 21
73.22
  0
LINE
  8
0
 10
-10.9483
 20
73.22
 11
-10.7644
 21
73.0556
  0
LINE
  8
0
 10
-10.7644
 20
73.0556
 11
-10.6
 21
72.8717
  0
LINE
  8
0
 10
-10.6
 20
72.8717
 11
-10.4572
 21
72.6705
  0
LINE
  8
0
 10
-10.4572
 20
72.6705
 11
-10.3379
 21
72.4545
  0
LINE
  8
0
 10
-10.3379
 20
72.4545
 11
-10.2435
 21
72.2266
  0
LINE
  8
0
 10
-10.2435
 20
72.2266
 11
-10.1752
 21
71.9895
  0
LINE
  8
0
 10
-10.1752
 20
71.9895
 11
-10.1338
 21
71.7463
  0
LINE
  8
0
 10
-10.1338
 20
71.7463
 11
-10.12
 21
71.5
  0
LINE
  8
0
 10
-10.12
 20
71.5
 11
-10.1338
 21
71.2537
  0
LINE
  8
0
 10
-10.1338
 20
71.2537
 11
-10.1752
 21
71.0105
  0
LINE
  8
0
 10
-10.1752
 20
71.0105
 11
-10.2435
 21
70.7734
  0
LINE
  8
0
 10
-10.2435
 20
70.7734
 11
-10.3379
 21
70.5455
  0
LINE
  8
0
 10
-10.3379
 20
70.5455
 11
-10.4572
 21
70.3295
  0
LINE
  8
0
 10
-10.4572
 20
70.3295
 11
-10.6
 21
70.1283
  0
LINE
  8
0
 10
-10.6
 20
70.1283
 11
-10.7644
 21
69.9444
  0
LINE
  8
0
 10
-10.7644
 20
69.9444
 11
-10.9483
 21
69.78
  0
LINE
  8
0
 10
-10.9483
 20
69.78
 11
-11.1495
 21
69.6372
  0
LINE
  8
0
 10
-11.1495
 20
69.6372
 11
-11.3654
 21
69.5179
  0
LINE
  8
0
 10
-11.3654
 20
69.5179
 11
-11.5934
 21
69.4234
  0
LINE
  8
0
 10
-11.5934
 20
69.4234
 11
-11.8304
 21
69.3551
  0
LINE
  8
0
 10
-11.8304
 20
69.3551
 11
-12.0737
 21
69.3138
  0
LINE
  8
0
 10
-12.0737
 20
69.3138
 11
-12.32
 21
69.3
  0
LINE
  8
0
 10
-12.32
 20
69.3
 11
-12.5663
 21
69.3138
  0
LINE
  8
0
 10
-220.186
 20
-1.68979
 11
-220.43
 21
-1.64471
  0
LINE
  8
0
 10
-220.43
 20
-1.64471
 11
-220.665
 21
-1.56458
  0
LINE
  8
0
 10
-220.665
 20
-1.56458
 11
-220.886
 21
-1.4511
  0
LINE
  8
0
 10
-220.886
 20
-1.4511
 11
-221.087
 21
-1.30669
  0
LINE
  8
0
 10
-221.087
 20
-1.30669
 11
-221.266
 21
-1.13443
  0
LINE
  8
0
 10
-221.266
 20
-1.13443
 11
-221.418
 21
-0.938004
  0
LINE
  8
0
 10
-221.418
 20
-0.938004
 11
-221.539
 21
-0.721573
  0
LINE
  8
0
 10
-221.539
 20
-0.721573
 11
-221.628
 21
-0.489761
  0
LINE
  8
0
 10
-221.628
 20
-0.489761
 11
-221.682
 21
-0.247513
  0
LINE
  8
0
 10
-221.682
 20
-0.247513
 11
-221.7
 21
0
  0
LINE
  8
0
 10
-221.7
 20
0
 11
-221.682
 21
0.247513
  0
LINE
  8
0
 10
-221.682
 20
0.247513
 11
-221.628
 21
0.489761
  0
LINE
  8
0
 10
-221.628
 20
0.489761
 11
-221.539
 21
0.721573
  0
LINE
  8
0
 10
-221.539
 20
0.721573
 11
-221.418
 21
0.938004
  0
LINE
  8
0
 10
-221.418
 20
0.938004
 11
-221.266
 21
1.13443
  0
LINE
  8
0
 10
-221.266
 20
1.13443
 11
-221.087
 21
1.30669
  0
LINE
  8
0
 10
-221.087
 20
1.30669
 11
-220.886
 21
1.4511
  0
LINE
  8
0
 10
-220.886
 20
1.4511
 11
-220.665
 21
1.56458
  0
LINE
  8
0
 10
-220.665
 20
1.56458
 11
-220.43
 21
1.64471
  0
LINE
  8
0
 10
-220.43
 20
1.64471
 11
-220.186
 21
1.68979
  0
LINE
  8
0
 10
-220.186
 20
1.68979
 11
-219.938
 21
1.69885
  0
LINE
  8
0
 10
-219.938
 20
1.69885
 11
-219.691
 21
1.67171
  0
LINE
  8
0
 10
-219.691
 20
1.67171
 11
-219.451
 21
1.60893
  0
LINE
  8
0
 10
-219.451
 20
1.60893
 11
-219.223
 21
1.51187
  0
LINE
  8
0
 10
-219.223
 20
1.51187
 11
-219.011
 21
1.38258
  0
LINE
  8
0
 10
-219.011
 20
1.38258
 11
-218.82
 21
1.22383
  0
LINE
  8
0
 10
-218.82
 20
1.22383
 11
-218.654
 21
1.03899
  0
LINE
  8
0
 10
-218.654
 20
1.03899
 11
-218.518
 21
0.832001
  0
LINE
  8
0
 10
-218.518
 20
0.832001
 11
-218.412
 21
0.607285
  0
LINE
  8
0
 10
-218.412
 20
0.607285
 11
-218.341
 21
0.369629
  0
LINE
  8
0
 10
-218.341
 20
0.369629
 11
-218.305
 21
0.124084
  0
LINE
  8
0
 10
-218.305
 20
0.124084
 11
-218.305
 21
-0.124084
  0
LINE
  8
0
 10
-218.305
 20
-0.124084
 11
-218.341
 21
-0.369629
  0
LINE
  8
0
 10
-218.341
 20
-0.369629
 11
-218.412
 21
-0.607285
  0
LINE
  8
0
 10
-218.412
 20
-0.607285
 11
-218.518
 21
-0.832001
  0
LINE
  8
0
 10
-218.518
 20
-0.832001
 11
-218.654
 21
-1.03899
  0
LINE
  8
0
 10
-218.654
 20
-1.03899
 11
-218.82
 21
-1.22383
  0
LINE
  8
0
 10
-218.82
 20
-1.22383
 11
-219.011
 21
-1.38258
  0
LINE
  8
0
 10
-219.011
 20
-1.38258
 11
-219.223
 21
-1.51187
  0
LINE
  8
0
 10
-219.223
 20
-1.51187
 11
-219.451
 21
-1.60893
  0
LINE
  8
0
 10
-219.451
 20
-1.60893
 11
-219.691
 21
-1.67171
  0
LINE
  8
0
 10
-219.691
 20
-1.67171
 11
-219.938
 21
-1.69885
  0
LINE
  8
0
 10
-219.938
 20
-1.69885
 11
-220.186
 21
-1.68979
  0
LINE
  8
0
 10
219.691
 20
-1.67171
 11
219.451
 21
-1.60893
  0
LINE
  8
0
 10
219.451
 20
-1.60893
 11
219.223
 21
-1.51187
  0
LINE
  8
0
 10
219.223
 20
-1.51187
 11
219.011
 21
-1.38258
  0
LINE
  8
0
 10
219.011
 20
-1.38258
 11
218.82
 21
-1.22383
  0
LINE
  8
0
 10
218.82
 20
-1.22383
 11
218.654
 21
-1.03899
  0
LINE
  8
0
 10
218.654
 20
-1.03899
 11
218.518
 21
-0.832001
  0
LINE
  8
0
 10
218.518
 20
-0.832001
 11
218.412
 21
-0.607285
  0
LINE
  8
0
 10
218.412
 20
-0.607285
 11
218.341
 21
-0.369629
  0
LINE
  8
0
 10
218.341
 20
-0.369629
 11
218.305
 21
-0.124084
  0
LINE
  8
0
 10
218.305
 20
-0.124084
 11
218.305
 21
0.124084
  0
LINE
  8
0
 10
218.305
 20
0.124084
 11
218.341
 21
0.369629
  0
LINE
  8
0
 10
218.341
 20
0.369629
 11
218.412
 21
0.607285
  0
LINE
  8
0
 10
218.412
 20
0.607285
 11
218.518
 21
0.832001
  0
LINE
  8
0
 10
218.518
 20
0.832001
 11
218.654
 21
1.03899
  0
LINE
  8
0
 10
218.654
 20
1.03899
 11
218.82
 21
1.22383
  0
LINE
  8
0
 10
218.82
 20
1.22383
 11
219.011
 21
1.38258
  0
LINE
  8
0
 10
219.011
 20
1.38258
 11
219.223
 21
1.51187
  0
LINE
  8
0
 10
219.223
 20
1.51187
 11
219.451
 21
1.60893
  0
LINE
  8
0
 10
219.451
 20
1.60893
 11
219.691
 21
1.67171
  0
LINE
  8
0
 10
219.691
 20
1.67171
 11
219.938
 21
1.69885
  0
LINE
  8
0
 10
219.938
 20
1.69885
 11
220.186
 21
1.68979
  0
LINE
  8
0
 10
220.186
 20
1.68979
 11
220.43
 21
1.64471
  0
LINE
  8
0
 10
220.43
 20
1.64471
 11
220.665
 21
1.56458
  0
LINE
  8
0
 10
220.665
 20
1.56458
 11
220.886
 21
1.4511
  0
LINE
  8
0
 10
220.886
 20
1.4511
 11
221.087
 21
1.30669
  0
LINE
  8
0
 10
221.087
 20
1.30669
 11
221.266
 21
1.13443
  0
LINE
  8
0
 10
221.266
 20
1.13443
 11
221.418
 21
0.938004
  0
LINE
  8
0
 10
221.418
 20
0.938004
 11
221.539
 21
0.721573
  0
LINE
  8
0
 10
221.539
 20
0.721573
 11
221.628
 21
0.489761
  0
LINE
  8
0
 10
221.628
 20
0.489761
 11
221.682
 21
0.247513
  0
LINE
  8
0
 10
221.682
 20
0.247513
 11
221.7
 21
0
  0
LINE
  8
0
 10
221.7
 20
0
 11
221.682
 21
-0.247513
  0
LINE
  8
0
 10
221.682
 20
-0.247513
 11
221.628
 21
-0.489761
  0
LINE
  8
0
 10
221.628
 20
-0.489761
 11
221.539
 21
-0.721573
  0
LINE
  8
0
 10
221.539
 20
-0.721573
 11
221.418
 21
-0.938004
  0
LINE
  8
0
 10
221.418
 20
-0.938004
 11
221.266
 21
-1.13443
  0
LINE
  8
0
 10
221.266
 20
-1.13443
 11
221.087
 21
-1.30669
  0
LINE
  8
0
 10
221.087
 20
-1.30669
 11
220.886
 21
-1.4511
  0
LINE
  8
0
 10
220.886
 20
-1.4511
 11
220.665
 21
-1.56458
  0
LINE
  8
0
 10
220.665
 20
-1.56458
 11
220.43
 21
-1.64471
  0
LINE
  8
0
 10
220.43
 20
-1.64471
 11
220.186
 21
-1.68979
  0
LINE
  8
0
 10
220.186
 20
-1.68979
 11
219.938
 21
-1.69885
  0
LINE
  8
0
 10
219.938
 20
-1.69885
 11
219.691
 21
-1.67171
  0
LINE
  8
0
 10
-27.5663
 20
-22.6862
 11
-27.8095
 21
-22.6448
  0
LINE
  8
0
 10
-27.8095
 20
-22.6448
 11
-28.0466
 21
-22.5765
  0
LINE
  8
0
 10
-28.0466
 20
-22.5765
 11
-28.2745
 21
-22.4821
  0
LINE
  8
0
 10
-28.2745
 20
-22.4821
 11
-28.4905
 21
-22.3628
  0
LINE
  8
0
 10
-28.4905
 20
-22.3628
 11
-28.6917
 21
-22.22
  0
LINE
  8
0
 10
-28.6917
 20
-22.22
 11
-28.8756
 21
-22.0556
  0
LINE
  8
0
 10
-28.8756
 20
-22.0556
 11
-29.04
 21
-21.8717
  0
LINE
  8
0
 10
-29.04
 20
-21.8717
 11
-29.1828
 21
-21.6705
  0
LINE
  8
0
 10
-29.1828
 20
-21.6705
 11
-29.3021
 21
-21.4545
  0
LINE
  8
0
 10
-29.3021
 20
-21.4545
 11
-29.3965
 21
-21.2266
  0
LINE
  8
0
 10
-29.3965
 20
-21.2266
 11
-29.4648
 21
-20.9895
  0
LINE
  8
0
 10
-29.4648
 20
-20.9895
 11
-29.5062
 21
-20.7463
  0
LINE
  8
0
 10
-29.5062
 20
-20.7463
 11
-29.52
 21
-20.5
  0
LINE
  8
0
 10
-29.52
 20
-20.5
 11
-29.5062
 21
-20.2537
  0
LINE
  8
0
 10
-29.5062
 20
-20.2537
 11
-29.4648
 21
-20.0105
  0
LINE
  8
0
 10
-29.4648
 20
-20.0105
 11
-29.3965
 21
-19.7734
  0
LINE
  8
0
 10
-29.3965
 20
-19.7734
 11
-29.3021
 21
-19.5455
  0
LINE
  8
0
 10
-29.3021
 20
-19.5455
 11
-29.1828
 21
-19.3295
  0
LINE
  8
0
 10
-29.1828
 20
-19.3295
 11
-29.04
 21
-19.1283
  0
LINE
  8
0
 10
-29.04
 20
-19.1283
 11
-28.8756
 21
-18.9444
  0
LINE
  8
0
 10
-28.8756
 20
-18.9444
 11
-28.6917
 21
-18.78
  0
LINE
  8
0
 10
-28.6917
 20
-18.78
 11
-28.4905
 21
-18.6372
  0
LINE
  8
0
 10
-28.4905
 20
-18.6372
 11
-28.2745
 21
-18.5179
  0
LINE
  8
0
 10
-28.2745
 20
-18.5179
 11
-28.0466
 21
-18.4234
  0
LINE
  8
0
 10
-28.0466
 20
-18.4234
 11
-27.8095
 21
-18.3551
  0
LINE
  8
0
 10
-27.8095
 20
-18.3551
 11
-27.5663
 21
-18.3138
  0
LINE
  8
0
 10
-27.5663
 20
-18.3138
 11
-27.32
 21
-18.3
  0
LINE
  8
0
 10
-27.32
 20
-18.3
 11
-27.0737
 21
-18.3138
  0
LINE
  8
0
 10
-27.0737
 20
-18.3138
 11
-26.8304
 21
-18.3551
  0
LINE
  8
0
 10
-26.8304
 20
-18.3551
 11
-26.5934
 21
-18.4234
  0
LINE
  8
0
 10
-26.5934
 20
-18.4234
 11
-26.3654
 21
-18.5179
  0
LINE
  8
0
 10
-26.3654
 20
-18.5179
 11
-26.1495
 21
-18.6372
  0
LINE
  8
0
 10
-26.1495
 20
-18.6372
 11
-25.9483
 21
-18.78
  0
LINE
  8
0
 10
-25.9483
 20
-18.78
 11
-25.7644
 21
-18.9444
  0
LINE
  8
0
 10
-25.7644
 20
-18.9444
 11
-25.6
 21
-19.1283
  0
LINE
  8
0
 10
-25.6
 20
-19.1283
 11
-25.4572
 21
-19.3295
  0
LINE
  8
0
 10
-25.4572
 20
-19.3295
 11
-25.3379
 21
-19.5455
  0
LINE
  8
0
 10
-25.3379
 20
-19.5455
 11
-25.2435
 21
-19.7734
  0
LINE
  8
0
 10
-25.2435
 20
-19.7734
 11
-25.1752
 21
-20.0105
  0
LINE
  8
0
 10
-25.1752
 20
-20.0105
 11
-25.1338
 21
-20.2537
  0
LINE
  8
0
 10
-25.1338
 20
-20.2537
 11
-25.12
 21
-20.5
  0
LINE
  8
0
 10
-25.12
 20
-20.5
 11
-25.1338
 21
-20.7463
  0
LINE
  8
0
 10
-25.1338
 20
-20.7463
 11
-25.1752
 21
-20.9895
  0
LINE
  8
0
 10
-25.1752
 20
-20.9895
 11
-25.2435
 21
-21.2266
  0
LINE
  8
0
 10
-25.2435
 20
-21.2266
 11
-25.3379
 21
-21.4545
  0
LINE
  8
0
 10
-25.3379
 20
-21.4545
 11
-25.4572
 21
-21.6705
  0
LINE
  8
0
 10
-25.4572
 20
-21.6705
 11
-25.6
 21
-21.8717
  0
LINE
  8
0
 10
-25.6
 20
-21.8717
 11
-25.7644
 21
-22.0556
  0
LINE
  8
0
 10
-25.7644
 20
-22.0556
 11
-25.9483
 21
-22.22
  0
LINE
  8
0
 10
-25.9483
 20
-22.22
 11
-26.1495
 21
-22.3628
  0
LINE
  8
0
 10
-26.1495
 20
-22.3628
 11
-26.3654
 21
-22.4821
  0
LINE
  8
0
 10
-26.3654
 20
-22.4821
 11
-26.5934
 21
-22.5765
  0
LINE
  8
0
 10
-26.5934
 20
-22.5765
 11
-26.8304
 21
-22.6448
  0
LINE
  8
0
 10
-26.8304
 20
-22.6448
 11
-27.0737
 21
-22.6862
  0
LINE
  8
0
 10
-27.0737
 20
-22.6862
 11
-27.32
 21
-22.7
  0
LINE
  8
0
 10
-27.32
 20
-22.7
 11
-27.5663
 21
-22.6862
  0
LINE
  8
0
 10
-142.566
 20
-22.6862
 11
-142.81
 21
-22.6448
  0
LINE
  8
0
 10
-142.81
 20
-22.6448
 11
-143.047
 21
-22.5765
  0
LINE
  8
0
 10
-143.047
 20
-22.5765
 11
-143.275
 21
-22.4821
  0
LINE
  8
0
 10
-143.275
 20
-22.4821
 11
-143.49
 21
-22.3628
  0
LINE
  8
0
 10
-143.49
 20
-22.3628
 11
-143.692
 21
-22.22
  0
LINE
  8
0
 10
-143.692
 20
-22.22
 11
-143.876
 21
-22.0556
  0
LINE
  8
0
 10
-143.876
 20
-22.0556
 11
-144.04
 21
-21.8717
  0
LINE
  8
0
 10
-144.04
 20
-21.8717
 11
-144.183
 21
-21.6705
  0
LINE
  8
0
 10
-144.183
 20
-21.6705
 11
-144.302
 21
-21.4545
  0
LINE
  8
0
 10
-144.302
 20
-21.4545
 11
-144.397
 21
-21.2266
  0
LINE
  8
0
 10
-144.397
 20
-21.2266
 11
-144.465
 21
-20.9895
  0
LINE
  8
0
 10
-144.465
 20
-20.9895
 11
-144.506
 21
-20.7463
  0
LINE
  8
0
 10
-144.506
 20
-20.7463
 11
-144.52
 21
-20.5
  0
LINE
  8
0
 10
-144.52
 20
-20.5
 11
-144.506
 21
-20.2537
  0
LINE
  8
0
 10
-144.506
 20
-20.2537
 11
-144.465
 21
-20.0105
  0
LINE
  8
0
 10
-144.465
 20
-20.0105
 11
-144.397
 21
-19.7734
  0
LINE
  8
0
 10
-144.397
 20
-19.7734
 11
-144.302
 21
-19.5455
  0
LINE
  8
0
 10
-144.302
 20
-19.5455
 11
-144.183
 21
-19.3295
  0
LINE
  8
0
 10
-144.183
 20
-19.3295
 11
-144.04
 21
-19.1283
  0
LINE
  8
0
 10
-144.04
 20
-19.1283
 11
-143.876
 21
-18.9444
  0
LINE
  8
0
 10
-143.876
 20
-18.9444
 11
-143.692
 21
-18.78
  0
LINE
  8
0
 10
-143.692
 20
-18.78
 11
-143.49
 21
-18.6372
  0
LINE
  8
0
 10
-143.49
 20
-18.6372
 11
-143.275
 21
-18.5179
  0
LINE
  8
0
 10
-143.275
 20
-18.5179
 11
-143.047
 21
-18.4234
  0
LINE
  8
0
 10
-143.047
 20
-18.4234
 11
-142.81
 21
-18.3551
  0
LINE
  8
0
 10
-142.81
 20
-18.3551
 11
-142.566
 21
-18.3138
  0
LINE
  8
0
 10
-142.566
 20
-18.3138
 11
-142.32
 21
-18.3
  0
LINE
  8
0
 10
-142.32
 20
-18.3
 11
-142.074
 21
-18.3138
  0
LINE
  8
0
 10
-142.074
 20
-18.3138
 11
-141.83
 21
-18.3551
  0
LINE
  8
0
 10
-141.83
 20
-18.3551
 11
-141.593
 21
-18.4234
  0
LINE
  8
0
 10
-141.593
 20
-18.4234
 11
-141.365
 21
-18.5179
  0
LINE
  8
0
 10
-141.365
 20
-18.5179
 11
-141.15
 21
-18.6372
  0
LINE
  8
0
 10
-141.15
 20
-18.6372
 11
-140.948
 21
-18.78
  0
LINE
  8
0
 10
-140.948
 20
-18.78
 11
-140.764
 21
-18.9444
  0
LINE
  8
0
 10
-140.764
 20
-18.9444
 11
-140.6
 21
-19.1283
  0
LINE
  8
0
 10
-140.6
 20
-19.1283
 11
-140.457
 21
-19.3295
  0
LINE
  8
0
 10
-140.457
 20
-19.3295
 11
-140.338
 21
-19.5455
  0
LINE
  8
0
 10
-140.338
 20
-19.5455
 11
-140.243
 21
-19.7734
  0
LINE
  8
0
 10
-140.243
 20
-19.7734
 11
-140.175
 21
-20.0105
  0
LINE
  8
0
 10
-140.175
 20
-20.0105
 11
-140.134
 21
-20.2537
  0
LINE
  8
0
 10
-140.134
 20
-20.2537
 11
-140.12
 21
-20.5
  0
LINE
  8
0
 10
-140.12
 20
-20.5
 11
-140.134
 21
-20.7463
  0
LINE
  8
0
 10
-140.134
 20
-20.7463
 11
-140.175
 21
-20.9895
  0
LINE
  8
0
 10
-140.175
 20
-20.9895
 11
-140.243
 21
-21.2266
  0
LINE
  8
0
 10
-140.243
 20
-21.2266
 11
-140.338
 21
-21.4545
  0
LINE
  8
0
 10
-140.338
 20
-21.4545
 11
-140.457
 21
-21.6705
  0
LINE
  8
0
 10
-140.457
 20
-21.6705
 11
-140.6
 21
-21.8717
  0
LINE
  8
0
 10
-140.6
 20
-21.8717
 11
-140.764
 21
-22.0556
  0
LINE
  8
0
 10
-140.764
 20
-22.0556
 11
-140.948
 21
-22.22
  0
LINE
  8
0
 10
-140.948
 20
-22.22
 11
-141.15
 21
-22.3628
  0
LINE
  8
0
 10
-141.15
 20
-22.3628
 11
-141.365
 21
-22.4821
  0
LINE
  8
0
 10
-141.365
 20
-22.4821
 11
-141.593
 21
-22.5765
  0
LINE
  8
0
 10
-141.593
 20
-22.5765
 11
-141.83
 21
-22.6448
  0
LINE
  8
0
 10
-141.83
 20
-22.6448
 11
-142.074
 21
-22.6862
  0
LINE
  8
0
 10
-142.074
 20
-22.6862
 11
-142.32
 21
-22.7
  0
LINE
  8
0
 10
-142.32
 20
-22.7
 11
-142.566
 21
-22.6862
  0
LINE
  8
0
 10
129.186
 20
-36.9836
 11
128.876
 21
-36.9344
  0
LINE
  8
0
 10
128.876
 20
-36.9344
 11
128.573
 21
-36.8532
  0
LINE
  8
0
 10
128.573
 20
-36.8532
 11
128.28
 21
-36.7406
  0
LINE
  8
0
 10
128.28
 20
-36.7406
 11
128
 21
-36.5981
  0
LINE
  8
0
 10
128
 20
-36.5981
 11
127.737
 21
-36.427
  0
LINE
  8
0
 10
127.737
 20
-36.427
 11
127.493
 21
-36.2294
  0
LINE
  8
0
 10
127.493
 20
-36.2294
 11
127.271
 21
-36.0074
  0
LINE
  8
0
 10
127.271
 20
-36.0074
 11
127.073
 21
-35.7634
  0
LINE
  8
0
 10
127.073
 20
-35.7634
 11
126.902
 21
-35.5
  0
LINE
  8
0
 10
126.902
 20
-35.5
 11
126.759
 21
-35.2202
  0
LINE
  8
0
 10
126.759
 20
-35.2202
 11
126.647
 21
-34.927
  0
LINE
  8
0
 10
126.647
 20
-34.927
 11
126.566
 21
-34.6237
  0
LINE
  8
0
 10
126.566
 20
-34.6237
 11
126.516
 21
-34.3136
  0
LINE
  8
0
 10
126.516
 20
-34.3136
 11
126.5
 21
-34
  0
LINE
  8
0
 10
126.5
 20
-34
 11
126.516
 21
-33.6864
  0
LINE
  8
0
 10
126.516
 20
-33.6864
 11
126.566
 21
-33.3763
  0
LINE
  8
0
 10
126.566
 20
-33.3763
 11
126.647
 21
-33.0729
  0
LINE
  8
0
 10
126.647
 20
-33.0729
 11
126.759
 21
-32.7798
  0
LINE
  8
0
 10
126.759
 20
-32.7798
 11
126.902
 21
-32.5
  0
LINE
  8
0
 10
126.902
 20
-32.5
 11
127.073
 21
-32.2366
  0
LINE
  8
0
 10
127.073
 20
-32.2366
 11
127.271
 21
-31.9926
  0
LINE
  8
0
 10
127.271
 20
-31.9926
 11
127.493
 21
-31.7706
  0
LINE
  8
0
 10
127.493
 20
-31.7706
 11
127.737
 21
-31.5729
  0
LINE
  8
0
 10
127.737
 20
-31.5729
 11
128
 21
-31.4019
  0
LINE
  8
0
 10
128
 20
-31.4019
 11
128.28
 21
-31.2594
  0
LINE
  8
0
 10
128.28
 20
-31.2594
 11
128.573
 21
-31.1468
  0
LINE
  8
0
 10
128.573
 20
-31.1468
 11
128.876
 21
-31.0656
  0
LINE
  8
0
 10
128.876
 20
-31.0656
 11
129.186
 21
-31.0164
  0
LINE
  8
0
 10
129.186
 20
-31.0164
 11
129.5
 21
-31
  0
LINE
  8
0
 10
129.5
 20
-31
 11
129.814
 21
-31.0164
  0
LINE
  8
0
 10
129.814
 20
-31.0164
 11
130.124
 21
-31.0656
  0
LINE
  8
0
 10
130.124
 20
-31.0656
 11
130.427
 21
-31.1468
  0
LINE
  8
0
 10
130.427
 20
-31.1468
 11
130.72
 21
-31.2594
  0
LINE
  8
0
 10
130.72
 20
-31.2594
 11
131
 21
-31.4019
  0
LINE
  8
0
 10
131
 20
-31.4019
 11
131.263
 21
-31.5729
  0
LINE
  8
0
 10
131.263
 20
-31.5729
 11
131.507
 21
-31.7706
  0
LINE
  8
0
 10
131.507
 20
-31.7706
 11
131.729
 21
-31.9926
  0
LINE
  8
0
 10
131.729
 20
-31.9926
 11
131.927
 21
-32.2366
  0
LINE
  8
0
 10
131.927
 20
-32.2366
 11
132.098
 21
-32.5
  0
LINE
  8
0
 10
132.098
 20
-32.5
 11
132.241
 21
-32.7798
  0
LINE
  8
0
 10
132.241
 20
-32.7798
 11
132.353
 21
-33.0729
  0
LINE
  8
0
 10
132.353
 20
-33.0729
 11
132.434
 21
-33.3763
  0
LINE
  8
0
 10
132.434
 20
-33.3763
 11
132.484
 21
-33.6864
  0
LINE
  8
0
 10
132.484
 20
-33.6864
 11
132.5
 21
-34
  0
LINE
  8
0
 10
132.5
 20
-34
 11
132.484
 21
-34.3136
  0
LINE
  8
0
 10
132.484
 20
-34.3136
 11
132.434
 21
-34.6237
  0
LINE
  8
0
 10
132.434
 20
-34.6237
 11
132.353
 21
-34.927
  0
LINE
  8
0
 10
132.353
 20
-34.927
 11
132.241
 21
-35.2202
  0
LINE
  8
0
 10
132.241
 20
-35.2202
 11
132.098
 21
-35.5
  0
LINE
  8
0
 10
132.098
 20
-35.5
 11
131.927
 21
-35.7634
  0
LINE
  8
0
 10
131.927
 20
-35.7634
 11
131.729
 21
-36.0074
  0
LINE
  8
0
 10
131.729
 20
-36.0074
 11
131.507
 21
-36.2294
  0
LINE
  8
0
 10
131.507
 20
-36.2294
 11
131.263
 21
-36.427
  0
LINE
  8
0
 10
131.263
 20
-36.427
 11
131
 21
-36.5981
  0
LINE
  8
0
 10
131
 20
-36.5981
 11
130.72
 21
-36.7406
  0
LINE
  8
0
 10
130.72
 20
-36.7406
 11
130.427
 21
-36.8532
  0
LINE
  8
0
 10
130.427
 20
-36.8532
 11
130.124
 21
-36.9344
  0
LINE
  8
0
 10
130.124
 20
-36.9344
 11
129.814
 21
-36.9836
  0
LINE
  8
0
 10
129.814
 20
-36.9836
 11
129.5
 21
-37
  0
LINE
  8
0
 10
129.5
 20
-37
 11
129.186
 21
-36.9836
  0
LINE
  8
0
 10
44.1864
 20
-36.9836
 11
43.8763
 21
-36.9344
  0
LINE
  8
0
 10
43.8763
 20
-36.9344
 11
43.5729
 21
-36.8532
  0
LINE
  8
0
 10
43.5729
 20
-36.8532
 11
43.2798
 21
-36.7406
  0
LINE
  8
0
 10
43.2798
 20
-36.7406
 11
43
 21
-36.5981
  0
LINE
  8
0
 10
43
 20
-36.5981
 11
42.7366
 21
-36.427
  0
LINE
  8
0
 10
42.7366
 20
-36.427
 11
42.4926
 21
-36.2294
  0
LINE
  8
0
 10
42.4926
 20
-36.2294
 11
42.2706
 21
-36.0074
  0
LINE
  8
0
 10
42.2706
 20
-36.0074
 11
42.0729
 21
-35.7634
  0
LINE
  8
0
 10
42.0729
 20
-35.7634
 11
41.9019
 21
-35.5
  0
LINE
  8
0
 10
41.9019
 20
-35.5
 11
41.7594
 21
-35.2202
  0
LINE
  8
0
 10
41.7594
 20
-35.2202
 11
41.6468
 21
-34.927
  0
LINE
  8
0
 10
41.6468
 20
-34.927
 11
41.5656
 21
-34.6237
  0
LINE
  8
0
 10
41.5656
 20
-34.6237
 11
41.5164
 21
-34.3136
  0
LINE
  8
0
 10
41.5164
 20
-34.3136
 11
41.5
 21
-34
  0
LINE
  8
0
 10
41.5
 20
-34
 11
41.5164
 21
-33.6864
  0
LINE
  8
0
 10
41.5164
 20
-33.6864
 11
41.5656
 21
-33.3763
  0
LINE
  8
0
 10
41.5656
 20
-33.3763
 11
41.6468
 21
-33.0729
  0
LINE
  8
0
 10
41.6468
 20
-33.0729
 11
41.7594
 21
-32.7798
  0
LINE
  8
0
 10
41.7594
 20
-32.7798
 11
41.9019
 21
-32.5
  0
LINE
  8
0
 10
41.9019
 20
-32.5
 11
42.0729
 21
-32.2366
  0
LINE
  8
0
 10
42.0729
 20
-32.2366
 11
42.2706
 21
-31.9926
  0
LINE
  8
0
 10
42.2706
 20
-31.9926
 11
42.4926
 21
-31.7706
  0
LINE
  8
0
 10
42.4926
 20
-31.7706
 11
42.7366
 21
-31.5729
  0
LINE
  8
0
 10
42.7366
 20
-31.5729
 11
43
 21
-31.4019
  0
LINE
  8
0
 10
43
 20
-31.4019
 11
43.2798
 21
-31.2594
  0
LINE
  8
0
 10
43.2798
 20
-31.2594
 11
43.5729
 21
-31.1468
  0
LINE
  8
0
 10
43.5729
 20
-31.1468
 11
43.8763
 21
-31.0656
  0
LINE
  8
0
 10
43.8763
 20
-31.0656
 11
44.1864
 21
-31.0164
  0
LINE
  8
0
 10
44.1864
 20
-31.0164
 11
44.5
 21
-31
  0
LINE
  8
0
 10
44.5
 20
-31
 11
44.8136
 21
-31.0164
  0
LINE
  8
0
 10
44.8136
 20
-31.0164
 11
45.1237
 21
-31.0656
  0
LINE
  8
0
 10
45.1237
 20
-31.0656
 11
45.427
 21
-31.1468
  0
LINE
  8
0
 10
45.427
 20
-31.1468
 11
45.7202
 21
-31.2594
  0
LINE
  8
0
 10
45.7202
 20
-31.2594
 11
46
 21
-31.4019
  0
LINE
  8
0
 10
46
 20
-31.4019
 11
46.2634
 21
-31.5729
  0
LINE
  8
0
 10
46.2634
 20
-31.5729
 11
46.5074
 21
-31.7706
  0
LINE
  8
0
 10
46.5074
 20
-31.7706
 11
46.7294
 21
-31.9926
  0
LINE
  8
0
 10
46.7294
 20
-31.9926
 11
46.927
 21
-32.2366
  0
LINE
  8
0
 10
46.927
 20
-32.2366
 11
47.0981
 21
-32.5
  0
LINE
  8
0
 10
47.0981
 20
-32.5
 11
47.2406
 21
-32.7798
  0
LINE
  8
0
 10
47.2406
 20
-32.7798
 11
47.3532
 21
-33.0729
  0
LINE
  8
0
 10
47.3532
 20
-33.0729
 11
47.4344
 21
-33.3763
  0
LINE
  8
0
 10
47.4344
 20
-33.3763
 11
47.4836
 21
-33.6864
  0
LINE
  8
0
 10
47.4836
 20
-33.6864
 11
47.5
 21
-34
  0
LINE
  8
0
 10
47.5
 20
-34
 11
47.4836
 21
-34.3136
  0
LINE
  8
0
 10
47.4836
 20
-34.3136
 11
47.4344
 21
-34.6237
  0
LINE
  8
0
 10
47.4344
 20
-34.6237
 11
47.3532
 21
-34.927
  0
LINE
  8
0
 10
47.3532
 20
-34.927
 11
47.2406
 21
-35.2202
  0
LINE
  8
0
 10
47.2406
 20
-35.2202
 11
47.0981
 21
-35.5
  0
LINE
  8
0
 10
47.0981
 20
-35.5
 11
46.927
 21
-35.7634
  0
LINE
  8
0
 10
46.927
 20
-35.7634
 11
46.7294
 21
-36.0074
  0
LINE
  8
0
 10
46.7294
 20
-36.0074
 11
46.5074
 21
-36.2294
  0
LINE
  8
0
 10
46.5074
 20
-36.2294
 11
46.2634
 21
-36.427
  0
LINE
  8
0
 10
46.2634
 20
-36.427
 11
46
 21
-36.5981
  0
LINE
  8
0
 10
46
 20
-36.5981
 11
45.7202
 21
-36.7406
  0
LINE
  8
0
 10
45.7202
 20
-36.7406
 11
45.427
 21
-36.8532
  0
LINE
  8
0
 10
45.427
 20
-36.8532
 11
45.1237
 21
-36.9344
  0
LINE
  8
0
 10
45.1237
 20
-36.9344
 11
44.8136
 21
-36.9836
  0
LINE
  8
0
 10
44.8136
 20
-36.9836
 11
44.5
 21
-37
  0
LINE
  8
0
 10
44.5
 20
-37
 11
44.1864
 21
-36.9836
  0
LINE
  8
0
 10
-142.566
 20
-40.6862
 11
-142.81
 21
-40.6448
  0
LINE
  8
0
 10
-142.81
 20
-40.6448
 11
-143.047
 21
-40.5765
  0
LINE
  8
0
 10
-143.047
 20
-40.5765
 11
-143.275
 21
-40.4821
  0
LINE
  8
0
 10
-143.275
 20
-40.4821
 11
-143.49
 21
-40.3628
  0
LINE
  8
0
 10
-143.49
 20
-40.3628
 11
-143.692
 21
-40.22
  0
LINE
  8
0
 10
-143.692
 20
-40.22
 11
-143.876
 21
-40.0556
  0
LINE
  8
0
 10
-143.876
 20
-40.0556
 11
-144.04
 21
-39.8717
  0
LINE
  8
0
 10
-144.04
 20
-39.8717
 11
-144.183
 21
-39.6705
  0
LINE
  8
0
 10
-144.183
 20
-39.6705
 11
-144.302
 21
-39.4545
  0
LINE
  8
0
 10
-144.302
 20
-39.4545
 11
-144.397
 21
-39.2266
  0
LINE
  8
0
 10
-144.397
 20
-39.2266
 11
-144.465
 21
-38.9895
  0
LINE
  8
0
 10
-144.465
 20
-38.9895
 11
-144.506
 21
-38.7463
  0
LINE
  8
0
 10
-144.506
 20
-38.7463
 11
-144.52
 21
-38.5
  0
LINE
  8
0
 10
-144.52
 20
-38.5
 11
-144.506
 21
-38.2537
  0
LINE
  8
0
 10
-144.506
 20
-38.2537
 11
-144.465
 21
-38.0105
  0
LINE
  8
0
 10
-144.465
 20
-38.0105
 11
-144.397
 21
-37.7734
  0
LINE
  8
0
 10
-144.397
 20
-37.7734
 11
-144.302
 21
-37.5455
  0
LINE
  8
0
 10
-144.302
 20
-37.5455
 11
-144.183
 21
-37.3295
  0
LINE
  8
0
 10
-144.183
 20
-37.3295
 11
-144.04
 21
-37.1283
  0
LINE
  8
0
 10
-144.04
 20
-37.1283
 11
-143.876
 21
-36.9444
  0
LINE
  8
0
 10
-143.876
 20
-36.9444
 11
-143.692
 21
-36.78
  0
LINE
  8
0
 10
-143.692
 20
-36.78
 11
-143.49
 21
-36.6372
  0
LINE
  8
0
 10
-143.49
 20
-36.6372
 11
-143.275
 21
-36.5179
  0
LINE
  8
0
 10
-143.275
 20
-36.5179
 11
-143.047
 21
-36.4234
  0
LINE
  8
0
 10
-143.047
 20
-36.4234
 11
-142.81
 21
-36.3551
  0
LINE
  8
0
 10
-142.81
 20
-36.3551
 11
-142.566
 21
-36.3138
  0
LINE
  8
0
 10
-142.566
 20
-36.3138
 11
-142.32
 21
-36.3
  0
LINE
  8
0
 10
-142.32
 20
-36.3
 11
-142.074
 21
-36.3138
  0
LINE
  8
0
 10
-142.074
 20
-36.3138
 11
-141.83
 21
-36.3551
  0
LINE
  8
0
 10
-141.83
 20
-36.3551
 11
-141.593
 21
-36.4234
  0
LINE
  8
0
 10
-141.593
 20
-36.4234
 11
-141.365
 21
-36.5179
  0
LINE
  8
0
 10
-141.365
 20
-36.5179
 11
-141.15
 21
-36.6372
  0
LINE
  8
0
 10
-141.15
 20
-36.6372
 11
-140.948
 21
-36.78
  0
LINE
  8
0
 10
-140.948
 20
-36.78
 11
-140.764
 21
-36.9444
  0
LINE
  8
0
 10
-140.764
 20
-36.9444
 11
-140.6
 21
-37.1283
  0
LINE
  8
0
 10
-140.6
 20
-37.1283
 11
-140.457
 21
-37.3295
  0
LINE
  8
0
 10
-140.457
 20
-37.3295
 11
-140.338
 21
-37.5455
  0
LINE
  8
0
 10
-140.338
 20
-37.5455
 11
-140.243
 21
-37.7734
  0
LINE
  8
0
 10
-140.243
 20
-37.7734
 11
-140.175
 21
-38.0105
  0
LINE
  8
0
 10
-140.175
 20
-38.0105
 11
-140.134
 21
-38.2537
  0
LINE
  8
0
 10
-140.134
 20
-38.2537
 11
-140.12
 21
-38.5
  0
LINE
  8
0
 10
-140.12
 20
-38.5
 11
-140.134
 21
-38.7463
  0
LINE
  8
0
 10
-140.134
 20
-38.7463
 11
-140.175
 21
-38.9895
  0
LINE
  8
0
 10
-140.175
 20
-38.9895
 11
-140.243
 21
-39.2266
  0
LINE
  8
0
 10
-140.243
 20
-39.2266
 11
-140.338
 21
-39.4545
  0
LINE
  8
0
 10
-140.338
 20
-39.4545
 11
-140.457
 21
-39.6705
  0
LINE
  8
0
 10
-140.457
 20
-39.6705
 11
-140.6
 21
-39.8717
  0
LINE
  8
0
 10
-140.6
 20
-39.8717
 11
-140.764
 21
-40.0556
  0
LINE
  8
0
 10
-140.764
 20
-40.0556
 11
-140.948
 21
-40.22
  0
LINE
  8
0
 10
-140.948
 20
-40.22
 11
-141.15
 21
-40.3628
  0
LINE
  8
0
 10
-141.15
 20
-40.3628
 11
-141.365
 21
-40.4821
  0
LINE
  8
0
 10
-141.365
 20
-40.4821
 11
-141.593
 21
-40.5765
  0
LINE
  8
0
 10
-141.593
 20
-40.5765
 11
-141.83
 21
-40.6448
  0
LINE
  8
0
 10
-141.83
 20
-40.6448
 11
-142.074
 21
-40.6862
  0
LINE
  8
0
 10
-142.074
 20
-40.6862
 11
-142.32
 21
-40.7
  0
LINE
  8
0
 10
-142.32
 20
-40.7
 11
-142.566
 21
-40.6862
  0
LINE
  8
0
 10
-27.5663
 20
-40.6862
 11
-27.8095
 21
-40.6448
  0
LINE
  8
0
 10
-27.8095
 20
-40.6448
 11
-28.0466
 21
-40.5765
  0
LINE
  8
0
 10
-28.0466
 20
-40.5765
 11
-28.2745
 21
-40.4821
  0
LINE
  8
0
 10
-28.2745
 20
-40.4821
 11
-28.4905
 21
-40.3628
  0
LINE
  8
0
 10
-28.4905
 20
-40.3628
 11
-28.6917
 21
-40.22
  0
LINE
  8
0
 10
-28.6917
 20
-40.22
 11
-28.8756
 21
-40.0556
  0
LINE
  8
0
 10
-28.8756
 20
-40.0556
 11
-29.04
 21
-39.8717
  0
LINE
  8
0
 10
-29.04
 20
-39.8717
 11
-29.1828
 21
-39.6705
  0
LINE
  8
0
 10
-29.1828
 20
-39.6705
 11
-29.3021
 21
-39.4545
  0
LINE
  8
0
 10
-29.3021
 20
-39.4545
 11
-29.3965
 21
-39.2266
  0
LINE
  8
0
 10
-29.3965
 20
-39.2266
 11
-29.4648
 21
-38.9895
  0
LINE
  8
0
 10
-29.4648
 20
-38.9895
 11
-29.5062
 21
-38.7463
  0
LINE
  8
0
 10
-29.5062
 20
-38.7463
 11
-29.52
 21
-38.5
  0
LINE
  8
0
 10
-29.52
 20
-38.5
 11
-29.5062
 21
-38.2537
  0
LINE
  8
0
 10
-29.5062
 20
-38.2537
 11
-29.4648
 21
-38.0105
  0
LINE
  8
0
 10
-29.4648
 20
-38.0105
 11
-29.3965
 21
-37.7734
  0
LINE
  8
0
 10
-29.3965
 20
-37.7734
 11
-29.3021
 21
-37.5455
  0
LINE
  8
0
 10
-29.3021
 20
-37.5455
 11
-29.1828
 21
-37.3295
  0
LINE
  8
0
 10
-29.1828
 20
-37.3295
 11
-29.04
 21
-37.1283
  0
LINE
  8
0
 10
-29.04
 20
-37.1283
 11
-28.8756
 21
-36.9444
  0
LINE
  8
0
 10
-28.8756
 20
-36.9444
 11
-28.6917
 21
-36.78
  0
LINE
  8
0
 10
-28.6917
 20
-36.78
 11
-28.4905
 21
-36.6372
  0
LINE
  8
0
 10
-28.4905
 20
-36.6372
 11
-28.2745
 21
-36.5179
  0
LINE
  8
0
 10
-28.2745
 20
-36.5179
 11
-28.0466
 21
-36.4234
  0
LINE
  8
0
 10
-28.0466
 20
-36.4234
 11
-27.8095
 21
-36.3551
  0
LINE
  8
0
 10
-27.8095
 20
-36.3551
 11
-27.5663
 21
-36.3138
  0
LINE
  8
0
 10
-27.5663
 20
-36.3138
 11
-27.32
 21
-36.3
  0
LINE
  8
0
 10
-27.32
 20
-36.3
 11
-27.0737
 21
-36.3138
  0
LINE
  8
0
 10
-27.0737
 20
-36.3138
 11
-26.8304
 21
-36.3551
  0
LINE
  8
0
 10
-26.8304
 20
-36.3551
 11
-26.5934
 21
-36.4234
  0
LINE
  8
0
 10
-26.5934
 20
-36.4234
 11
-26.3654
 21
-36.5179
  0
LINE
  8
0
 10
-26.3654
 20
-36.5179
 11
-26.1495
 21
-36.6372
  0
LINE
  8
0
 10
-26.1495
 20
-36.6372
 11
-25.9483
 21
-36.78
  0
LINE
  8
0
 10
-25.9483
 20
-36.78
 11
-25.7644
 21
-36.9444
  0
LINE
  8
0
 10
-25.7644
 20
-36.9444
 11
-25.6
 21
-37.1283
  0
LINE
  8
0
 10
-25.6
 20
-37.1283
 11
-25.4572
 21
-37.3295
  0
LINE
  8
0
 10
-25.4572
 20
-37.3295
 11
-25.3379
 21
-37.5455
  0
LINE
  8
0
 10
-25.3379
 20
-37.5455
 11
-25.2435
 21
-37.7734
  0
LINE
  8
0
 10
-25.2435
 20
-37.7734
 11
-25.1752
 21
-38.0105
  0
LINE
  8
0
 10
-25.1752
 20
-38.0105
 11
-25.1338
 21
-38.2537
  0
LINE
  8
0
 10
-25.1338
 20
-38.2537
 11
-25.12
 21
-38.5
  0
LINE
  8
0
 10
-25.12
 20
-38.5
 11
-25.1338
 21
-38.7463
  0
LINE
  8
0
 10
-25.1338
 20
-38.7463
 11
-25.1752
 21
-38.9895
  0
LINE
  8
0
 10
-25.1752
 20
-38.9895
 11
-25.2435
 21
-39.2266
  0
LINE
  8
0
 10
-25.2435
 20
-39.2266
 11
-25.3379
 21
-39.4545
  0
LINE
  8
0
 10
-25.3379
 20
-39.4545
 11
-25.4572
 21
-39.6705
  0
LINE
  8
0
 10
-25.4572
 20
-39.6705
 11
-25.6
 21
-39.8717
  0
LINE
  8
0
 10
-25.6
 20
-39.8717
 11
-25.7644
 21
-40.0556
  0
LINE
  8
0
 10
-25.7644
 20
-40.0556
 11
-25.9483
 21
-40.22
  0
LINE
  8
0
 10
-25.9483
 20
-40.22
 11
-26.1495
 21
-40.3628
  0
LINE
  8
0
 10
-26.1495
 20
-40.3628
 11
-26.3654
 21
-40.4821
  0
LINE
  8
0
 10
-26.3654
 20
-40.4821
 11
-26.5934
 21
-40.5765
  0
LINE
  8
0
 10
-26.5934
 20
-40.5765
 11
-26.8304
 21
-40.6448
  0
LINE
  8
0
 10
-26.8304
 20
-40.6448
 11
-27.0737
 21
-40.6862
  0
LINE
  8
0
 10
-27.0737
 20
-40.6862
 11
-27.32
 21
-40.7
  0
LINE
  8
0
 10
-27.32
 20
-40.7
 11
-27.5663
 21
-40.6862
  0
LINE
  8
0
 10
-142.566
 20
-54.6862
 11
-142.81
 21
-54.6448
  0
LINE
  8
0
 10
-142.81
 20
-54.6448
 11
-143.047
 21
-54.5765
  0
LINE
  8
0
 10
-143.047
 20
-54.5765
 11
-143.275
 21
-54.4821
  0
LINE
  8
0
 10
-143.275
 20
-54.4821
 11
-143.49
 21
-54.3628
  0
LINE
  8
0
 10
-143.49
 20
-54.3628
 11
-143.692
 21
-54.22
  0
LINE
  8
0
 10
-143.692
 20
-54.22
 11
-143.876
 21
-54.0556
  0
LINE
  8
0
 10
-143.876
 20
-54.0556
 11
-144.04
 21
-53.8717
  0
LINE
  8
0
 10
-144.04
 20
-53.8717
 11
-144.183
 21
-53.6705
  0
LINE
  8
0
 10
-144.183
 20
-53.6705
 11
-144.302
 21
-53.4545
  0
LINE
  8
0
 10
-144.302
 20
-53.4545
 11
-144.397
 21
-53.2266
  0
LINE
  8
0
 10
-144.397
 20
-53.2266
 11
-144.465
 21
-52.9895
  0
LINE
  8
0
 10
-144.465
 20
-52.9895
 11
-144.506
 21
-52.7463
  0
LINE
  8
0
 10
-144.506
 20
-52.7463
 11
-144.52
 21
-52.5
  0
LINE
  8
0
 10
-144.52
 20
-52.5
 11
-144.506
 21
-52.2537
  0
LINE
  8
0
 10
-144.506
 20
-52.2537
 11
-144.465
 21
-52.0105
  0
LINE
  8
0
 10
-144.465
 20
-52.0105
 11
-144.397
 21
-51.7734
  0
LINE
  8
0
 10
-144.397
 20
-51.7734
 11
-144.302
 21
-51.5455
  0
LINE
  8
0
 10
-144.302
 20
-51.5455
 11
-144.183
 21
-51.3295
  0
LINE
  8
0
 10
-144.183
 20
-51.3295
 11
-144.04
 21
-51.1283
  0
LINE
  8
0
 10
-144.04
 20
-51.1283
 11
-143.876
 21
-50.9444
  0
LINE
  8
0
 10
-143.876
 20
-50.9444
 11
-143.692
 21
-50.78
  0
LINE
  8
0
 10
-143.692
 20
-50.78
 11
-143.49
 21
-50.6372
  0
LINE
  8
0
 10
-143.49
 20
-50.6372
 11
-143.275
 21
-50.5179
  0
LINE
  8
0
 10
-143.275
 20
-50.5179
 11
-143.047
 21
-50.4234
  0
LINE
  8
0
 10
-143.047
 20
-50.4234
 11
-142.81
 21
-50.3551
  0
LINE
  8
0
 10
-142.81
 20
-50.3551
 11
-142.566
 21
-50.3138
  0
LINE
  8
0
 10
-142.566
 20
-50.3138
 11
-142.32
 21
-50.3
  0
LINE
  8
0
 10
-142.32
 20
-50.3
 11
-142.074
 21
-50.3138
  0
LINE
  8
0
 10
-142.074
 20
-50.3138
 11
-141.83
 21
-50.3551
  0
LINE
  8
0
 10
-141.83
 20
-50.3551
 11
-141.593
 21
-50.4234
  0
LINE
  8
0
 10
-141.593
 20
-50.4234
 11
-141.365
 21
-50.5179
  0
LINE
  8
0
 10
-141.365
 20
-50.5179
 11
-141.15
 21
-50.6372
  0
LINE
  8
0
 10
-141.15
 20
-50.6372
 11
-140.948
 21
-50.78
  0
LINE
  8
0
 10
-140.948
 20
-50.78
 11
-140.764
 21
-50.9444
  0
LINE
  8
0
 10
-140.764
 20
-50.9444
 11
-140.6
 21
-51.1283
  0
LINE
  8
0
 10
-140.6
 20
-51.1283
 11
-140.457
 21
-51.3295
  0
LINE
  8
0
 10
-140.457
 20
-51.3295
 11
-140.338
 21
-51.5455
  0
LINE
  8
0
 10
-140.338
 20
-51.5455
 11
-140.243
 21
-51.7734
  0
LINE
  8
0
 10
-140.243
 20
-51.7734
 11
-140.175
 21
-52.0105
  0
LINE
  8
0
 10
-140.175
 20
-52.0105
 11
-140.134
 21
-52.2537
  0
LINE
  8
0
 10
-140.134
 20
-52.2537
 11
-140.12
 21
-52.5
  0
LINE
  8
0
 10
-140.12
 20
-52.5
 11
-140.134
 21
-52.7463
  0
LINE
  8
0
 10
-140.134
 20
-52.7463
 11
-140.175
 21
-52.9895
  0
LINE
  8
0
 10
-140.175
 20
-52.9895
 11
-140.243
 21
-53.2266
  0
LINE
  8
0
 10
-140.243
 20
-53.2266
 11
-140.338
 21
-53.4545
  0
LINE
  8
0
 10
-140.338
 20
-53.4545
 11
-140.457
 21
-53.6705
  0
LINE
  8
0
 10
-140.457
 20
-53.6705
 11
-140.6
 21
-53.8717
  0
LINE
  8
0
 10
-140.6
 20
-53.8717
 11
-140.764
 21
-54.0556
  0
LINE
  8
0
 10
-140.764
 20
-54.0556
 11
-140.948
 21
-54.22
  0
LINE
  8
0
 10
-140.948
 20
-54.22
 11
-141.15
 21
-54.3628
  0
LINE
  8
0
 10
-141.15
 20
-54.3628
 11
-141.365
 21
-54.4821
  0
LINE
  8
0
 10
-141.365
 20
-54.4821
 11
-141.593
 21
-54.5765
  0
LINE
  8
0
 10
-141.593
 20
-54.5765
 11
-141.83
 21
-54.6448
  0
LINE
  8
0
 10
-141.83
 20
-54.6448
 11
-142.074
 21
-54.6862
  0
LINE
  8
0
 10
-142.074
 20
-54.6862
 11
-142.32
 21
-54.7
  0
LINE
  8
0
 10
-142.32
 20
-54.7
 11
-142.566
 21
-54.6862
  0
LINE
  8
0
 10
-12.5663
 20
-54.6862
 11
-12.8095
 21
-54.6448
  0
LINE
  8
0
 10
-12.8095
 20
-54.6448
 11
-13.0466
 21
-54.5765
  0
LINE
  8
0
 10
-13.0466
 20
-54.5765
 11
-13.2745
 21
-54.4821
  0
LINE
  8
0
 10
-13.2745
 20
-54.4821
 11
-13.4905
 21
-54.3628
  0
LINE
  8
0
 10
-13.4905
 20
-54.3628
 11
-13.6917
 21
-54.22
  0
LINE
  8
0
 10
-13.6917
 20
-54.22
 11
-13.8756
 21
-54.0556
  0
LINE
  8
0
 10
-13.8756
 20
-54.0556
 11
-14.04
 21
-53.8717
  0
LINE
  8
0
 10
-14.04
 20
-53.8717
 11
-14.1828
 21
-53.6705
  0
LINE
  8
0
 10
-14.1828
 20
-53.6705
 11
-14.3021
 21
-53.4545
  0
LINE
  8
0
 10
-14.3021
 20
-53.4545
 11
-14.3965
 21
-53.2266
  0
LINE
  8
0
 10
-14.3965
 20
-53.2266
 11
-14.4648
 21
-52.9895
  0
LINE
  8
0
 10
-14.4648
 20
-52.9895
 11
-14.5062
 21
-52.7463
  0
LINE
  8
0
 10
-14.5062
 20
-52.7463
 11
-14.52
 21
-52.5
  0
LINE
  8
0
 10
-14.52
 20
-52.5
 11
-14.5062
 21
-52.2537
  0
LINE
  8
0
 10
-14.5062
 20
-52.2537
 11
-14.4648
 21
-52.0105
  0
LINE
  8
0
 10
-14.4648
 20
-52.0105
 11
-14.3965
 21
-51.7734
  0
LINE
  8
0
 10
-14.3965
 20
-51.7734
 11
-14.3021
 21
-51.5455
  0
LINE
  8
0
 10
-14.3021
 20
-51.5455
 11
-14.1828
 21
-51.3295
  0
LINE
  8
0
 10
-14.1828
 20
-51.3295
 11
-14.04
 21
-51.1283
  0
LINE
  8
0
 10
-14.04
 20
-51.1283
 11
-13.8756
 21
-50.9444
  0
LINE
  8
0
 10
-13.8756
 20
-50.9444
 11
-13.6917
 21
-50.78
  0
LINE
  8
0
 10
-13.6917
 20
-50.78
 11
-13.4905
 21
-50.6372
  0
LINE
  8
0
 10
-13.4905
 20
-50.6372
 11
-13.2745
 21
-50.5179
  0
LINE
  8
0
 10
-13.2745
 20
-50.5179
 11
-13.0466
 21
-50.4234
  0
LINE
  8
0
 10
-13.0466
 20
-50.4234
 11
-12.8095
 21
-50.3551
  0
LINE
  8
0
 10
-12.8095
 20
-50.3551
 11
-12.5663
 21
-50.3138
  0
LINE
  8
0
 10
-12.5663
 20
-50.3138
 11
-12.32
 21
-50.3
  0
LINE
  8
0
 10
-12.32
 20
-50.3
 11
-12.0737
 21
-50.3138
  0
LINE
  8
0
 10
-12.0737
 20
-50.3138
 11
-11.8304
 21
-50.3551
  0
LINE
  8
0
 10
-11.8304
 20
-50.3551
 11
-11.5934
 21
-50.4234
  0
LINE
  8
0
 10
-11.5934
 20
-50.4234
 11
-11.3654
 21
-50.5179
  0
LINE
  8
0
 10
-11.3654
 20
-50.5179
 11
-11.1495
 21
-50.6372
  0
LINE
  8
0
 10
-11.1495
 20
-50.6372
 11
-10.9483
 21
-50.78
  0
LINE
  8
0
 10
-10.9483
 20
-50.78
 11
-10.7644
 21
-50.9444
  0
LINE
  8
0
 10
-10.7644
 20
-50.9444
 11
-10.6
 21
-51.1283
  0
LINE
  8
0
 10
-10.6
 20
-51.1283
 11
-10.4572
 21
-51.3295
  0
LINE
  8
0
 10
-10.4572
 20
-51.3295
 11
-10.3379
 21
-51.5455
  0
LINE
  8
0
 10
-10.3379
 20
-51.5455
 11
-10.2435
 21
-51.7734
  0
LINE
  8
0
 10
-10.2435
 20
-51.7734
 11
-10.1752
 21
-52.0105
  0
LINE
  8
0
 10
-10.1752
 20
-52.0105
 11
-10.1338
 21
-52.2537
  0
LINE
  8
0
 10
-10.1338
 20
-52.2537
 11
-10.12
 21
-52.5
  0
LINE
  8
0
 10
-10.12
 20
-52.5
 11
-10.1338
 21
-52.7463
  0
LINE
  8
0
 10
-10.1338
 20
-52.7463
 11
-10.1752
 21
-52.9895
  0
LINE
  8
0
 10
-10.1752
 20
-52.9895
 11
-10.2435
 21
-53.2266
  0
LINE
  8
0
 10
-10.2435
 20
-53.2266
 11
-10.3379
 21
-53.4545
  0
LINE
  8
0
 10
-10.3379
 20
-53.4545
 11
-10.4572
 21
-53.6705
  0
LINE
  8
0
 10
-10.4572
 20
-53.6705
 11
-10.6
 21
-53.8717
  0
LINE
  8
0
 10
-10.6
 20
-53.8717
 11
-10.7644
 21
-54.0556
  0
LINE
  8
0
 10
-10.7644
 20
-54.0556
 11
-10.9483
 21
-54.22
  0
LINE
  8
0
 10
-10.9483
 20
-54.22
 11
-11.1495
 21
-54.3628
  0
LINE
  8
0
 10
-11.1495
 20
-54.3628
 11
-11.3654
 21
-54.4821
  0
LINE
  8
0
 10
-11.3654
 20
-54.4821
 11
-11.5934
 21
-54.5765
  0
LINE
  8
0
 10
-11.5934
 20
-54.5765
 11
-11.8304
 21
-54.6448
  0
LINE
  8
0
 10
-11.8304
 20
-54.6448
 11
-12.0737
 21
-54.6862
  0
LINE
  8
0
 10
-12.0737
 20
-54.6862
 11
-12.32
 21
-54.7
  0
LINE
  8
0
 10
-12.32
 20
-54.7
 11
-12.5663
 21
-54.6862
  0
LINE
  8
0
 10
219.691
 20
-87.9217
 11
219.451
 21
-87.8589
  0
LINE
  8
0
 10
219.451
 20
-87.8589
 11
219.223
 21
-87.7619
  0
LINE
  8
0
 10
219.223
 20
-87.7619
 11
219.011
 21
-87.6326
  0
LINE
  8
0
 10
219.011
 20
-87.6326
 11
218.82
 21
-87.4738
  0
LINE
  8
0
 10
218.82
 20
-87.4738
 11
218.654
 21
-87.289
  0
LINE
  8
0
 10
218.654
 20
-87.289
 11
218.518
 21
-87.082
  0
LINE
  8
0
 10
218.518
 20
-87.082
 11
218.412
 21
-86.8573
  0
LINE
  8
0
 10
218.412
 20
-86.8573
 11
218.341
 21
-86.6196
  0
LINE
  8
0
 10
218.341
 20
-86.6196
 11
218.305
 21
-86.3741
  0
LINE
  8
0
 10
218.305
 20
-86.3741
 11
218.305
 21
-86.1259
  0
LINE
  8
0
 10
218.305
 20
-86.1259
 11
218.341
 21
-85.8804
  0
LINE
  8
0
 10
218.341
 20
-85.8804
 11
218.412
 21
-85.6427
  0
LINE
  8
0
 10
218.412
 20
-85.6427
 11
218.518
 21
-85.418
  0
LINE
  8
0
 10
218.518
 20
-85.418
 11
218.654
 21
-85.211
  0
LINE
  8
0
 10
218.654
 20
-85.211
 11
218.82
 21
-85.0262
  0
LINE
  8
0
 10
218.82
 20
-85.0262
 11
219.011
 21
-84.8674
  0
LINE
  8
0
 10
219.011
 20
-84.8674
 11
219.223
 21
-84.7381
  0
LINE
  8
0
 10
219.223
 20
-84.7381
 11
219.451
 21
-84.6411
  0
LINE
  8
0
 10
219.451
 20
-84.6411
 11
219.691
 21
-84.5783
  0
LINE
  8
0
 10
219.691
 20
-84.5783
 11
219.938
 21
-84.5511
  0
LINE
  8
0
 10
219.938
 20
-84.5511
 11
220.186
 21
-84.5602
  0
LINE
  8
0
 10
220.186
 20
-84.5602
 11
220.43
 21
-84.6053
  0
LINE
  8
0
 10
220.43
 20
-84.6053
 11
220.665
 21
-84.6854
  0
LINE
  8
0
 10
220.665
 20
-84.6854
 11
220.886
 21
-84.7989
  0
LINE
  8
0
 10
220.886
 20
-84.7989
 11
221.087
 21
-84.9433
  0
LINE
  8
0
 10
221.087
 20
-84.9433
 11
221.266
 21
-85.1156
  0
LINE
  8
0
 10
221.266
 20
-85.1156
 11
221.418
 21
-85.312
  0
LINE
  8
0
 10
221.418
 20
-85.312
 11
221.539
 21
-85.5284
  0
LINE
  8
0
 10
221.539
 20
-85.5284
 11
221.628
 21
-85.7602
  0
LINE
  8
0
 10
221.628
 20
-85.7602
 11
221.682
 21
-86.0025
  0
LINE
  8
0
 10
221.682
 20
-86.0025
 11
221.7
 21
-86.25
  0
LINE
  8
0
 10
221.7
 20
-86.25
 11
221.682
 21
-86.4975
  0
LINE
  8
0
 10
221.682
 20
-86.4975
 11
221.628
 21
-86.7398
  0
LINE
  8
0
 10
221.628
 20
-86.7398
 11
221.539
 21
-86.9716
  0
LINE
  8
0
 10
221.539
 20
-86.9716
 11
221.418
 21
-87.188
  0
LINE
  8
0
 10
221.418
 20
-87.188
 11
221.266
 21
-87.3844
  0
LINE
  8
0
 10
221.266
 20
-87.3844
 11
221.087
 21
-87.5567
  0
LINE
  8
0
 10
221.087
 20
-87.5567
 11
220.886
 21
-87.7011
  0
LINE
  8
0
 10
220.886
 20
-87.7011
 11
220.665
 21
-87.8146
  0
LINE
  8
0
 10
220.665
 20
-87.8146
 11
220.43
 21
-87.8947
  0
LINE
  8
0
 10
220.43
 20
-87.8947
 11
220.186
 21
-87.9398
  0
LINE
  8
0
 10
220.186
 20
-87.9398
 11
219.938
 21
-87.9489
  0
LINE
  8
0
 10
219.938
 20
-87.9489
 11
219.691
 21
-87.9217
  0
LINE
  8
0
 10
-220.186
 20
-87.9398
 11
-220.43
 21
-87.8947
  0
LINE
  8
0
 10
-220.43
 20
-87.8947
 11
-220.665
 21
-87.8146
  0
LINE
  8
0
 10
-220.665
 20
-87.8146
 11
-220.886
 21
-87.7011
  0
LINE
  8
0
 10
-220.886
 20
-87.7011
 11
-221.087
 21
-87.5567
  0
LINE
  8
0
 10
-221.087
 20
-87.5567
 11
-221.266
 21
-87.3844
  0
LINE
  8
0
 10
-221.266
 20
-87.3844
 11
-221.418
 21
-87.188
  0
LINE
  8
0
 10
-221.418
 20
-87.188
 11
-221.539
 21
-86.9716
  0
LINE
  8
0
 10
-221.539
 20
-86.9716
 11
-221.628
 21
-86.7398
  0
LINE
  8
0
 10
-221.628
 20
-86.7398
 11
-221.682
 21
-86.4975
  0
LINE
  8
0
 10
-221.682
 20
-86.4975
 11
-221.7
 21
-86.25
  0
LINE
  8
0
 10
-221.7
 20
-86.25
 11
-221.682
 21
-86.0025
  0
LINE
  8
0
 10
-221.682
 20
-86.0025
 11
-221.628
 21
-85.7602
  0
LINE
  8
0
 10
-221.628
 20
-85.7602
 11
-221.539
 21
-85.5284
  0
LINE
  8
0
 10
-221.539
 20
-85.5284
 11
-221.418
 21
-85.312
  0
LINE
  8
0
 10
-221.418
 20
-85.312
 11
-221.266
 21
-85.1156
  0
LINE
  8
0
 10
-221.266
 20
-85.1156
 11
-221.087
 21
-84.9433
  0
LINE
  8
0
 10
-221.087
 20
-84.9433
 11
-220.886
 21
-84.7989
  0
LINE
  8
0
 10
-220.886
 20
-84.7989
 11
-220.665
 21
-84.6854
  0
LINE
  8
0
 10
-220.665
 20
-84.6854
 11
-220.43
 21
-84.6053
  0
LINE
  8
0
 10
-220.43
 20
-84.6053
 11
-220.186
 21
-84.5602
  0
LINE
  8
0
 10
-220.186
 20
-84.5602
 11
-219.938
 21
-84.5511
  0
LINE
  8
0
 10
-219.938
 20
-84.5511
 11
-219.691
 21
-84.5783
  0
LINE
  8
0
 10
-219.691
 20
-84.5783
 11
-219.451
 21
-84.6411
  0
LINE
  8
0
 10
-219.451
 20
-84.6411
 11
-219.223
 21
-84.7381
  0
LINE
  8
0
 10
-219.223
 20
-84.7381
 11
-219.011
 21
-84.8674
  0
LINE
  8
0
 10
-219.011
 20
-84.8674
 11
-218.82
 21
-85.0262
  0
LINE
  8
0
 10
-218.82
 20
-85.0262
 11
-218.654
 21
-85.211
  0
LINE
  8
0
 10
-218.654
 20
-85.211
 11
-218.518
 21
-85.418
  0
LINE
  8
0
 10
-218.518
 20
-85.418
 11
-218.412
 21
-85.6427
  0
LINE
  8
0
 10
-218.412
 20
-85.6427
 11
-218.341
 21
-85.8804
  0
LINE
  8
0
 10
-218.341
 20
-85.8804
 11
-218.305
 21
-86.1259
  0
LINE
  8
0
 10
-218.305
 20
-86.1259
 11
-218.305
 21
-86.3741
  0
LINE
  8
0
 10
-218.305
 20
-86.3741
 11
-218.341
 21
-86.6196
  0
LINE
  8
0
 10
-218.341
 20
-86.6196
 11
-218.412
 21
-86.8573
  0
LINE
  8
0
 10
-218.412
 20
-86.8573
 11
-218.518
 21
-87.082
  0
LINE
  8
0
 10
-218.518
 20
-87.082
 11
-218.654
 21
-87.289
  0
LINE
  8
0
 10
-218.654
 20
-87.289
 11
-218.82
 21
-87.4738
  0
LINE
  8
0
 10
-218.82
 20
-87.4738
 11
-219.011
 21
-87.6326
  0
LINE
  8
0
 10
-219.011
 20
-87.6326
 11
-219.223
 21
-87.7619
  0
LINE
  8
0
 10
-219.223
 20
-87.7619
 11
-219.451
 21
-87.8589
  0
LINE
  8
0
 10
-219.451
 20
-87.8589
 11
-219.691
 21
-87.9217
  0
LINE
  8
0
 10
-219.691
 20
-87.9217
 11
-219.938
 21
-87.9489
  0
LINE
  8
0
 10
-219.938
 20
-87.9489
 11
-220.186
 21
-87.9398
  0
LINE
  8
0
 10
-27.5663
 20
-132.686
 11
-27.8095
 21
-132.645
  0
LINE
  8
0
 10
-27.8095
 20
-132.645
 11
-28.0466
 21
-132.577
  0
LINE
  8
0
 10
-28.0466
 20
-132.577
 11
-28.2745
 21
-132.482
  0
LINE
  8
0
 10
-28.2745
 20
-132.482
 11
-28.4905
 21
-132.363
  0
LINE
  8
0
 10
-28.4905
 20
-132.363
 11
-28.6917
 21
-132.22
  0
LINE
  8
0
 10
-28.6917
 20
-132.22
 11
-28.8756
 21
-132.056
  0
LINE
  8
0
 10
-28.8756
 20
-132.056
 11
-29.04
 21
-131.872
  0
LINE
  8
0
 10
-29.04
 20
-131.872
 11
-29.1828
 21
-131.67
  0
LINE
  8
0
 10
-29.1828
 20
-131.67
 11
-29.3021
 21
-131.455
  0
LINE
  8
0
 10
-29.3021
 20
-131.455
 11
-29.3965
 21
-131.227
  0
LINE
  8
0
 10
-29.3965
 20
-131.227
 11
-29.4648
 21
-130.99
  0
LINE
  8
0
 10
-29.4648
 20
-130.99
 11
-29.5062
 21
-130.746
  0
LINE
  8
0
 10
-29.5062
 20
-130.746
 11
-29.52
 21
-130.5
  0
LINE
  8
0
 10
-29.52
 20
-130.5
 11
-29.5062
 21
-130.254
  0
LINE
  8
0
 10
-29.5062
 20
-130.254
 11
-29.4648
 21
-130.01
  0
LINE
  8
0
 10
-29.4648
 20
-130.01
 11
-29.3965
 21
-129.773
  0
LINE
  8
0
 10
-29.3965
 20
-129.773
 11
-29.3021
 21
-129.545
  0
LINE
  8
0
 10
-29.3021
 20
-129.545
 11
-29.1828
 21
-129.33
  0
LINE
  8
0
 10
-29.1828
 20
-129.33
 11
-29.04
 21
-129.128
  0
LINE
  8
0
 10
-29.04
 20
-129.128
 11
-28.8756
 21
-128.944
  0
LINE
  8
0
 10
-28.8756
 20
-128.944
 11
-28.6917
 21
-128.78
  0
LINE
  8
0
 10
-28.6917
 20
-128.78
 11
-28.4905
 21
-128.637
  0
LINE
  8
0
 10
-28.4905
 20
-128.637
 11
-28.2745
 21
-128.518
  0
LINE
  8
0
 10
-28.2745
 20
-128.518
 11
-28.0466
 21
-128.423
  0
LINE
  8
0
 10
-28.0466
 20
-128.423
 11
-27.8095
 21
-128.355
  0
LINE
  8
0
 10
-27.8095
 20
-128.355
 11
-27.5663
 21
-128.314
  0
LINE
  8
0
 10
-27.5663
 20
-128.314
 11
-27.32
 21
-128.3
  0
LINE
  8
0
 10
-27.32
 20
-128.3
 11
-27.0737
 21
-128.314
  0
LINE
  8
0
 10
-27.0737
 20
-128.314
 11
-26.8304
 21
-128.355
  0
LINE
  8
0
 10
-26.8304
 20
-128.355
 11
-26.5934
 21
-128.423
  0
LINE
  8
0
 10
-26.5934
 20
-128.423
 11
-26.3654
 21
-128.518
  0
LINE
  8
0
 10
-26.3654
 20
-128.518
 11
-26.1495
 21
-128.637
  0
LINE
  8
0
 10
-26.1495
 20
-128.637
 11
-25.9483
 21
-128.78
  0
LINE
  8
0
 10
-25.9483
 20
-128.78
 11
-25.7644
 21
-128.944
  0
LINE
  8
0
 10
-25.7644
 20
-128.944
 11
-25.6
 21
-129.128
  0
LINE
  8
0
 10
-25.6
 20
-129.128
 11
-25.4572
 21
-129.33
  0
LINE
  8
0
 10
-25.4572
 20
-129.33
 11
-25.3379
 21
-129.545
  0
LINE
  8
0
 10
-25.3379
 20
-129.545
 11
-25.2435
 21
-129.773
  0
LINE
  8
0
 10
-25.2435
 20
-129.773
 11
-25.1752
 21
-130.01
  0
LINE
  8
0
 10
-25.1752
 20
-130.01
 11
-25.1338
 21
-130.254
  0
LINE
  8
0
 10
-25.1338
 20
-130.254
 11
-25.12
 21
-130.5
  0
LINE
  8
0
 10
-25.12
 20
-130.5
 11
-25.1338
 21
-130.746
  0
LINE
  8
0
 10
-25.1338
 20
-130.746
 11
-25.1752
 21
-130.99
  0
LINE
  8
0
 10
-25.1752
 20
-130.99
 11
-25.2435
 21
-131.227
  0
LINE
  8
0
 10
-25.2435
 20
-131.227
 11
-25.3379
 21
-131.455
  0
LINE
  8
0
 10
-25.3379
 20
-131.455
 11
-25.4572
 21
-131.67
  0
LINE
  8
0
 10
-25.4572
 20
-131.67
 11
-25.6
 21
-131.872
  0
LINE
  8
0
 10
-25.6
 20
-131.872
 11
-25.7644
 21
-132.056
  0
LINE
  8
0
 10
-25.7644
 20
-132.056
 11
-25.9483
 21
-132.22
  0
LINE
  8
0
 10
-25.9483
 20
-132.22
 11
-26.1495
 21
-132.363
  0
LINE
  8
0
 10
-26.1495
 20
-132.363
 11
-26.3654
 21
-132.482
  0
LINE
  8
0
 10
-26.3654
 20
-132.482
 11
-26.5934
 21
-132.577
  0
LINE
  8
0
 10
-26.5934
 20
-132.577
 11
-26.8304
 21
-132.645
  0
LINE
  8
0
 10
-26.8304
 20
-132.645
 11
-27.0737
 21
-132.686
  0
LINE
  8
0
 10
-27.0737
 20
-132.686
 11
-27.32
 21
-132.7
  0
LINE
  8
0
 10
-27.32
 20
-132.7
 11
-27.5663
 21
-132.686
  0
LINE
  8
0
 10
-142.566
 20
-132.686
 11
-142.81
 21
-132.645
  0
LINE
  8
0
 10
-142.81
 20
-132.645
 11
-143.047
 21
-132.577
  0
LINE
  8
0
 10
-143.047
 20
-132.577
 11
-143.275
 21
-132.482
  0
LINE
  8
0
 10
-143.275
 20
-132.482
 11
-143.49
 21
-132.363
  0
LINE
  8
0
 10
-143.49
 20
-132.363
 11
-143.692
 21
-132.22
  0
LINE
  8
0
 10
-143.692
 20
-132.22
 11
-143.876
 21
-132.056
  0
LINE
  8
0
 10
-143.876
 20
-132.056
 11
-144.04
 21
-131.872
  0
LINE
  8
0
 10
-144.04
 20
-131.872
 11
-144.183
 21
-131.67
  0
LINE
  8
0
 10
-144.183
 20
-131.67
 11
-144.302
 21
-131.455
  0
LINE
  8
0
 10
-144.302
 20
-131.455
 11
-144.397
 21
-131.227
  0
LINE
  8
0
 10
-144.397
 20
-131.227
 11
-144.465
 21
-130.99
  0
LINE
  8
0
 10
-144.465
 20
-130.99
 11
-144.506
 21
-130.746
  0
LINE
  8
0
 10
-144.506
 20
-130.746
 11
-144.52
 21
-130.5
  0
LINE
  8
0
 10
-144.52
 20
-130.5
 11
-144.506
 21
-130.254
  0
LINE
  8
0
 10
-144.506
 20
-130.254
 11
-144.465
 21
-130.01
  0
LINE
  8
0
 10
-144.465
 20
-130.01
 11
-144.397
 21
-129.773
  0
LINE
  8
0
 10
-144.397
 20
-129.773
 11
-144.302
 21
-129.545
  0
LINE
  8
0
 10
-144.302
 20
-129.545
 11
-144.183
 21
-129.33
  0
LINE
  8
0
 10
-144.183
 20
-129.33
 11
-144.04
 21
-129.128
  0
LINE
  8
0
 10
-144.04
 20
-129.128
 11
-143.876
 21
-128.944
  0
LINE
  8
0
 10
-143.876
 20
-128.944
 11
-143.692
 21
-128.78
  0
LINE
  8
0
 10
-143.692
 20
-128.78
 11
-143.49
 21
-128.637
  0
LINE
  8
0
 10
-143.49
 20
-128.637
 11
-143.275
 21
-128.518
  0
LINE
  8
0
 10
-143.275
 20
-128.518
 11
-143.047
 21
-128.423
  0
LINE
  8
0
 10
-143.047
 20
-128.423
 11
-142.81
 21
-128.355
  0
LINE
  8
0
 10
-142.81
 20
-128.355
 11
-142.566
 21
-128.314
  0
LINE
  8
0
 10
-142.566
 20
-128.314
 11
-142.32
 21
-128.3
  0
LINE
  8
0
 10
-142.32
 20
-128.3
 11
-142.074
 21
-128.314
  0
LINE
  8
0
 10
-142.074
 20
-128.314
 11
-141.83
 21
-128.355
  0
LINE
  8
0
 10
-141.83
 20
-128.355
 11
-141.593
 21
-128.423
  0
LINE
  8
0
 10
-141.593
 20
-128.423
 11
-141.365
 21
-128.518
  0
LINE
  8
0
 10
-141.365
 20
-128.518
 11
-141.15
 21
-128.637
  0
LINE
  8
0
 10
-141.15
 20
-128.637
 11
-140.948
 21
-128.78
  0
LINE
  8
0
 10
-140.948
 20
-128.78
 11
-140.764
 21
-128.944
  0
LINE
  8
0
 10
-140.764
 20
-128.944
 11
-140.6
 21
-129.128
  0
LINE
  8
0
 10
-140.6
 20
-129.128
 11
-140.457
 21
-129.33
  0
LINE
  8
0
 10
-140.457
 20
-129.33
 11
-140.338
 21
-129.545
  0
LINE
  8
0
 10
-140.338
 20
-129.545
 11
-140.243
 21
-129.773
  0
LINE
  8
0
 10
-140.243
 20
-129.773
 11
-140.175
 21
-130.01
  0
LINE
  8
0
 10
-140.175
 20
-130.01
 11
-140.134
 21
-130.254
  0
LINE
  8
0
 10
-140.134
 20
-130.254
 11
-140.12
 21
-130.5
  0
LINE
  8
0
 10
-140.12
 20
-130.5
 11
-140.134
 21
-130.746
  0
LINE
  8
0
 10
-140.134
 20
-130.746
 11
-140.175
 21
-130.99
  0
LINE
  8
0
 10
-140.175
 20
-130.99
 11
-140.243
 21
-131.227
  0
LINE
  8
0
 10
-140.243
 20
-131.227
 11
-140.338
 21
-131.455
  0
LINE
  8
0
 10
-140.338
 20
-131.455
 11
-140.457
 21
-131.67
  0
LINE
  8
0
 10
-140.457
 20
-131.67
 11
-140.6
 21
-131.872
  0
LINE
  8
0
 10
-140.6
 20
-131.872
 11
-140.764
 21
-132.056
  0
LINE
  8
0
 10
-140.764
 20
-132.056
 11
-140.948
 21
-132.22
  0
LINE
  8
0
 10
-140.948
 20
-132.22
 11
-141.15
 21
-132.363
  0
LINE
  8
0
 10
-141.15
 20
-132.363
 11
-141.365
 21
-132.482
  0
LINE
  8
0
 10
-141.365
 20
-132.482
 11
-141.593
 21
-132.577
  0
LINE
  8
0
 10
-141.593
 20
-132.577
 11
-141.83
 21
-132.645
  0
LINE
  8
0
 10
-141.83
 20
-132.645
 11
-142.074
 21
-132.686
  0
LINE
  8
0
 10
-142.074
 20
-132.686
 11
-142.32
 21
-132.7
  0
LINE
  8
0
 10
-142.32
 20
-132.7
 11
-142.566
 21
-132.686
  0
LINE
  8
0
 10
159.826
 20
-156.445
 11
159.582
 21
-156.404
  0
LINE
  8
0
 10
159.582
 20
-156.404
 11
159.347
 21
-156.324
  0
LINE
  8
0
 10
159.347
 20
-156.324
 11
159.13
 21
-156.206
  0
LINE
  8
0
 10
159.13
 20
-156.206
 11
158.934
 21
-156.054
  0
LINE
  8
0
 10
158.934
 20
-156.054
 11
158.766
 21
-155.871
  0
LINE
  8
0
 10
158.766
 20
-155.871
 11
158.631
 21
-155.664
  0
LINE
  8
0
 10
158.631
 20
-155.664
 11
158.531
 21
-155.437
  0
LINE
  8
0
 10
158.531
 20
-155.437
 11
158.47
 21
-155.197
  0
LINE
  8
0
 10
158.47
 20
-155.197
 11
158.45
 21
-154.95
  0
LINE
  8
0
 10
158.45
 20
-154.95
 11
158.47
 21
-154.703
  0
LINE
  8
0
 10
158.47
 20
-154.703
 11
158.531
 21
-154.463
  0
LINE
  8
0
 10
158.531
 20
-154.463
 11
158.631
 21
-154.236
  0
LINE
  8
0
 10
158.631
 20
-154.236
 11
158.766
 21
-154.029
  0
LINE
  8
0
 10
158.766
 20
-154.029
 11
158.934
 21
-153.846
  0
LINE
  8
0
 10
158.934
 20
-153.846
 11
159.13
 21
-153.694
  0
LINE
  8
0
 10
159.13
 20
-153.694
 11
159.347
 21
-153.576
  0
LINE
  8
0
 10
159.347
 20
-153.576
 11
159.582
 21
-153.496
  0
LINE
  8
0
 10
159.582
 20
-153.496
 11
159.826
 21
-153.455
  0
LINE
  8
0
 10
159.826
 20
-153.455
 11
160.074
 21
-153.455
  0
LINE
  8
0
 10
160.074
 20
-153.455
 11
160.318
 21
-153.496
  0
LINE
  8
0
 10
160.318
 20
-153.496
 11
160.553
 21
-153.576
  0
LINE
  8
0
 10
160.553
 20
-153.576
 11
160.77
 21
-153.694
  0
LINE
  8
0
 10
160.77
 20
-153.694
 11
160.966
 21
-153.846
  0
LINE
  8
0
 10
160.966
 20
-153.846
 11
161.134
 21
-154.029
  0
LINE
  8
0
 10
161.134
 20
-154.029
 11
161.269
 21
-154.236
  0
LINE
  8
0
 10
161.269
 20
-154.236
 11
161.369
 21
-154.463
  0
LINE
  8
0
 10
161.369
 20
-154.463
 11
161.43
 21
-154.703
  0
LINE
  8
0
 10
161.43
 20
-154.703
 11
161.45
 21
-154.95
  0
LINE
  8
0
 10
161.45
 20
-154.95
 11
161.43
 21
-155.197
  0
LINE
  8
0
 10
161.43
 20
-155.197
 11
161.369
 21
-155.437
  0
LINE
  8
0
 10
161.369
 20
-155.437
 11
161.269
 21
-155.664
  0
LINE
  8
0
 10
161.269
 20
-155.664
 11
161.134
 21
-155.871
  0
LINE
  8
0
 10
161.134
 20
-155.871
 11
160.966
 21
-156.054
  0
LINE
  8
0
 10
160.966
 20
-156.054
 11
160.77
 21
-156.206
  0
LINE
  8
0
 10
160.77
 20
-156.206
 11
160.553
 21
-156.324
  0
LINE
  8
0
 10
160.553
 20
-156.324
 11
160.318
 21
-156.404
  0
LINE
  8
0
 10
160.318
 20
-156.404
 11
160.074
 21
-156.445
  0
LINE
  8
0
 10
160.074
 20
-156.445
 11
159.826
 21
-156.445
  0
LINE
  8
0
 10
-160.074
 20
-156.445
 11
-160.318
 21
-156.404
  0
LINE
  8
0
 10
-160.318
 20
-156.404
 11
-160.553
 21
-156.324
  0
LINE
  8
0
 10
-160.553
 20
-156.324
 11
-160.77
 21
-156.206
  0
LINE
  8
0
 10
-160.77
 20
-156.206
 11
-160.966
 21
-156.054
  0
LINE
  8
0
 10
-160.966
 20
-156.054
 11
-161.134
 21
-155.871
  0
LINE
  8
0
 10
-161.134
 20
-155.871
 11
-161.269
 21
-155.664
  0
LINE
  8
0
 10
-161.269
 20
-155.664
 11
-161.369
 21
-155.437
  0
LINE
  8
0
 10
-161.369
 20
-155.437
 11
-161.43
 21
-155.197
  0
LINE
  8
0
 10
-161.43
 20
-155.197
 11
-161.45
 21
-154.95
  0
LINE
  8
0
 10
-161.45
 20
-154.95
 11
-161.43
 21
-154.703
  0
LINE
  8
0
 10
-161.43
 20
-154.703
 11
-161.369
 21
-154.463
  0
LINE
  8
0
 10
-161.369
 20
-154.463
 11
-161.269
 21
-154.236
  0
LINE
  8
0
 10
-161.269
 20
-154.236
 11
-161.134
 21
-154.029
  0
LINE
  8
0
 10
-161.134
 20
-154.029
 11
-160.966
 21
-153.846
  0
LINE
  8
0
 10
-160.966
 20
-153.846
 11
-160.77
 21
-153.694
  0
LINE
  8
0
 10
-160.77
 20
-153.694
 11
-160.553
 21
-153.576
  0
LINE
  8
0
 10
-160.553
 20
-153.576
 11
-160.318
 21
-153.496
  0
LINE
  8
0
 10
-160.318
 20
-153.496
 11
-160.074
 21
-153.455
  0
LINE
  8
0
 10
-160.074
 20
-153.455
 11
-159.826
 21
-153.455
  0
LINE
  8
0
 10
-159.826
 20
-153.455
 11
-159.582
 21
-153.496
  0
LINE
  8
0
 10
-159.582
 20
-153.496
 11
-159.347
 21
-153.576
  0
LINE
  8
0
 10
-159.347
 20
-153.576
 11
-159.13
 21
-153.694
  0
LINE
  8
0
 10
-159.13
 20
-153.694
 11
-158.934
 21
-153.846
  0
LINE
  8
0
 10
-158.934
 20
-153.846
 11
-158.766
 21
-154.029
  0
LINE
  8
0
 10
-158.766
 20
-154.029
 11
-158.631
 21
-154.236
  0
LINE
  8
0
 10
-158.631
 20
-154.236
 11
-158.531
 21
-154.463
  0
LINE
  8
0
 10
-158.531
 20
-154.463
 11
-158.47
 21
-154.703
  0
LINE
  8
0
 10
-158.47
 20
-154.703
 11
-158.45
 21
-154.95
  0
LINE
  8
0
 10
-158.45
 20
-154.95
 11
-158.47
 21
-155.197
  0
LINE
  8
0
 10
-158.47
 20
-155.197
 11
-158.531
 21
-155.437
  0
LINE
  8
0
 10
-158.531
 20
-155.437
 11
-158.631
 21
-155.664
  0
LINE
  8
0
 10
-158.631
 20
-155.664
 11
-158.766
 21
-155.871
  0
LINE
  8
0
 10
-158.766
 20
-155.871
 11
-158.934
 21
-156.054
  0
LINE
  8
0
 10
-158.934
 20
-156.054
 11
-159.13
 21
-156.206
  0
LINE
  8
0
 10
-159.13
 20
-156.206
 11
-159.347
 21
-156.324
  0
LINE
  8
0
 10
-159.347
 20
-156.324
 11
-159.582
 21
-156.404
  0
LINE
  8
0
 10
-159.582
 20
-156.404
 11
-159.826
 21
-156.445
  0
LINE
  8
0
 10
-159.826
 20
-156.445
 11
-160.074
 21
-156.445
  0
LINE
  8
0
 10
-220.186
 20
-174.19
 11
-220.43
 21
-174.145
  0
LINE
  8
0
 10
-220.43
 20
-174.145
 11
-220.665
 21
-174.065
  0
LINE
  8
0
 10
-220.665
 20
-174.065
 11
-220.886
 21
-173.951
  0
LINE
  8
0
 10
-220.886
 20
-173.951
 11
-221.087
 21
-173.807
  0
LINE
  8
0
 10
-221.087
 20
-173.807
 11
-221.266
 21
-173.634
  0
LINE
  8
0
 10
-221.266
 20
-173.634
 11
-221.418
 21
-173.438
  0
LINE
  8
0
 10
-221.418
 20
-173.438
 11
-221.539
 21
-173.222
  0
LINE
  8
0
 10
-221.539
 20
-173.222
 11
-221.628
 21
-172.99
  0
LINE
  8
0
 10
-221.628
 20
-172.99
 11
-221.682
 21
-172.748
  0
LINE
  8
0
 10
-221.682
 20
-172.748
 11
-221.7
 21
-172.5
  0
LINE
  8
0
 10
-221.7
 20
-172.5
 11
-221.682
 21
-172.252
  0
LINE
  8
0
 10
-221.682
 20
-172.252
 11
-221.628
 21
-172.01
  0
LINE
  8
0
 10
-221.628
 20
-172.01
 11
-221.539
 21
-171.778
  0
LINE
  8
0
 10
-221.539
 20
-171.778
 11
-221.418
 21
-171.562
  0
LINE
  8
0
 10
-221.418
 20
-171.562
 11
-221.266
 21
-171.366
  0
LINE
  8
0
 10
-221.266
 20
-171.366
 11
-221.087
 21
-171.193
  0
LINE
  8
0
 10
-221.087
 20
-171.193
 11
-220.886
 21
-171.049
  0
LINE
  8
0
 10
-220.886
 20
-171.049
 11
-220.665
 21
-170.935
  0
LINE
  8
0
 10
-220.665
 20
-170.935
 11
-220.43
 21
-170.855
  0
LINE
  8
0
 10
-220.43
 20
-170.855
 11
-220.186
 21
-170.81
  0
LINE
  8
0
 10
-220.186
 20
-170.81
 11
-219.938
 21
-170.801
  0
LINE
  8
0
 10
-219.938
 20
-170.801
 11
-219.691
 21
-170.828
  0
LINE
  8
0
 10
-219.691
 20
-170.828
 11
-219.451
 21
-170.891
  0
LINE
  8
0
 10
-219.451
 20
-170.891
 11
-219.223
 21
-170.988
  0
LINE
  8
0
 10
-219.223
 20
-170.988
 11
-219.011
 21
-171.117
  0
LINE
  8
0
 10
-219.011
 20
-171.117
 11
-218.82
 21
-171.276
  0
LINE
  8
0
 10
-218.82
 20
-171.276
 11
-218.654
 21
-171.461
  0
LINE
  8
0
 10
-218.654
 20
-171.461
 11
-218.518
 21
-171.668
  0
LINE
  8
0
 10
-218.518
 20
-171.668
 11
-218.412
 21
-171.893
  0
LINE
  8
0
 10
-218.412
 20
-171.893
 11
-218.341
 21
-172.13
  0
LINE
  8
0
 10
-218.341
 20
-172.13
 11
-218.305
 21
-172.376
  0
LINE
  8
0
 10
-218.305
 20
-172.376
 11
-218.305
 21
-172.624
  0
LINE
  8
0
 10
-218.305
 20
-172.624
 11
-218.341
 21
-172.87
  0
LINE
  8
0
 10
-218.341
 20
-172.87
 11
-218.412
 21
-173.107
  0
LINE
  8
0
 10
-218.412
 20
-173.107
 11
-218.518
 21
-173.332
  0
LINE
  8
0
 10
-218.518
 20
-173.332
 11
-218.654
 21
-173.539
  0
LINE
  8
0
 10
-218.654
 20
-173.539
 11
-218.82
 21
-173.724
  0
LINE
  8
0
 10
-218.82
 20
-173.724
 11
-219.011
 21
-173.883
  0
LINE
  8
0
 10
-219.011
 20
-173.883
 11
-219.223
 21
-174.012
  0
LINE
  8
0
 10
-219.223
 20
-174.012
 11
-219.451
 21
-174.109
  0
LINE
  8
0
 10
-219.451
 20
-174.109
 11
-219.691
 21
-174.172
  0
LINE
  8
0
 10
-219.691
 20
-174.172
 11
-219.938
 21
-174.199
  0
LINE
  8
0
 10
-219.938
 20
-174.199
 11
-220.186
 21
-174.19
  0
LINE
  8
0
 10
219.691
 20
-174.172
 11
219.451
 21
-174.109
  0
LINE
  8
0
 10
219.451
 20
-174.109
 11
219.223
 21
-174.012
  0
LINE
  8
0
 10
219.223
 20
-174.012
 11
219.011
 21
-173.883
  0
LINE
  8
0
 10
219.011
 20
-173.883
 11
218.82
 21
-173.724
  0
LINE
  8
0
 10
218.82
 20
-173.724
 11
218.654
 21
-173.539
  0
LINE
  8
0
 10
218.654
 20
-173.539
 11
218.518
 21
-173.332
  0
LINE
  8
0
 10
218.518
 20
-173.332
 11
218.412
 21
-173.107
  0
LINE
  8
0
 10
218.412
 20
-173.107
 11
218.341
 21
-172.87
  0
LINE
  8
0
 10
218.341
 20
-172.87
 11
218.305
 21
-172.624
  0
LINE
  8
0
 10
218.305
 20
-172.624
 11
218.305
 21
-172.376
  0
LINE
  8
0
 10
218.305
 20
-172.376
 11
218.341
 21
-172.13
  0
LINE
  8
0
 10
218.341
 20
-172.13
 11
218.412
 21
-171.893
  0
LINE
  8
0
 10
218.412
 20
-171.893
 11
218.518
 21
-171.668
  0
LINE
  8
0
 10
218.518
 20
-171.668
 11
218.654
 21
-171.461
  0
LINE
  8
0
 10
218.654
 20
-171.461
 11
218.82
 21
-171.276
  0
LINE
  8
0
 10
218.82
 20
-171.276
 11
219.011
 21
-171.117
  0
LINE
  8
0
 10
219.011
 20
-171.117
 11
219.223
 21
-170.988
  0
LINE
  8
0
 10
219.223
 20
-170.988
 11
219.451
 21
-170.891
  0
LINE
  8
0
 10
219.451
 20
-170.891
 11
219.691
 21
-170.828
  0
LINE
  8
0
 10
219.691
 20
-170.828
 11
219.938
 21
-170.801
  0
LINE
  8
0
 10
219.938
 20
-170.801
 11
220.186
 21
-170.81
  0
LINE
  8
0
 10
220.186
 20
-170.81
 11
220.43
 21
-170.855
  0
LINE
  8
0
 10
220.43
 20
-170.855
 11
220.665
 21
-170.935
  0
LINE
  8
0
 10
220.665
 20
-170.935
 11
220.886
 21
-171.049
  0
LINE
  8
0
 10
220.886
 20
-171.049
 11
221.087
 21
-171.193
  0
LINE
  8
0
 10
221.087
 20
-171.193
 11
221.266
 21
-171.366
  0
LINE
  8
0
 10
221.266
 20
-171.366
 11
221.418
 21
-171.562
  0
LINE
  8
0
 10
221.418
 20
-171.562
 11
221.539
 21
-171.778
  0
LINE
  8
0
 10
221.539
 20
-171.778
 11
221.628
 21
-172.01
  0
LINE
  8
0
 10
221.628
 20
-172.01
 11
221.682
 21
-172.252
  0
LINE
  8
0
 10
221.682
 20
-172.252
 11
221.7
 21
-172.5
  0
LINE
  8
0
 10
221.7
 20
-172.5
 11
221.682
 21
-172.748
  0
LINE
  8
0
 10
221.682
 20
-172.748
 11
221.628
 21
-172.99
  0
LINE
  8
0
 10
221.628
 20
-172.99
 11
221.539
 21
-173.222
  0
LINE
  8
0
 10
221.539
 20
-173.222
 11
221.418
 21
-173.438
  0
LINE
  8
0
 10
221.418
 20
-173.438
 11
221.266
 21
-173.634
  0
LINE
  8
0
 10
221.266
 20
-173.634
 11
221.087
 21
-173.807
  0
LINE
  8
0
 10
221.087
 20
-173.807
 11
220.886
 21
-173.951
  0
LINE
  8
0
 10
220.886
 20
-173.951
 11
220.665
 21
-174.065
  0
LINE
  8
0
 10
220.665
 20
-174.065
 11
220.43
 21
-174.145
  0
LINE
  8
0
 10
220.43
 20
-174.145
 11
220.186
 21
-174.19
  0
LINE
  8
0
 10
220.186
 20
-174.19
 11
219.938
 21
-174.199
  0
LINE
  8
0
 10
219.938
 20
-174.199
 11
219.691
 21
-174.172
  0
LINE
  8
0
 10
219.608
 20
-218.729
 11
219.22
 21
-218.668
  0
LINE
  8
0
 10
219.22
 20
-218.668
 11
218.841
 21
-218.566
  0
LINE
  8
0
 10
218.841
 20
-218.566
 11
218.475
 21
-218.426
  0
LINE
  8
0
 10
218.475
 20
-218.426
 11
218.125
 21
-218.248
  0
LINE
  8
0
 10
218.125
 20
-218.248
 11
217.796
 21
-218.034
  0
LINE
  8
0
 10
217.796
 20
-218.034
 11
217.491
 21
-217.787
  0
LINE
  8
0
 10
217.491
 20
-217.787
 11
217.213
 21
-217.509
  0
LINE
  8
0
 10
217.213
 20
-217.509
 11
216.966
 21
-217.204
  0
LINE
  8
0
 10
216.966
 20
-217.204
 11
216.752
 21
-216.875
  0
LINE
  8
0
 10
216.752
 20
-216.875
 11
216.574
 21
-216.525
  0
LINE
  8
0
 10
216.574
 20
-216.525
 11
216.434
 21
-216.159
  0
LINE
  8
0
 10
216.434
 20
-216.159
 11
216.332
 21
-215.78
  0
LINE
  8
0
 10
216.332
 20
-215.78
 11
216.271
 21
-215.392
  0
LINE
  8
0
 10
216.271
 20
-215.392
 11
216.25
 21
-215
  0
LINE
  8
0
 10
216.25
 20
-215
 11
216.271
 21
-214.608
  0
LINE
  8
0
 10
216.271
 20
-214.608
 11
216.332
 21
-214.22
  0
LINE
  8
0
 10
216.332
 20
-214.22
 11
216.434
 21
-213.841
  0
LINE
  8
0
 10
216.434
 20
-213.841
 11
216.574
 21
-213.475
  0
LINE
  8
0
 10
216.574
 20
-213.475
 11
216.752
 21
-213.125
  0
LINE
  8
0
 10
216.752
 20
-213.125
 11
216.966
 21
-212.796
  0
LINE
  8
0
 10
216.966
 20
-212.796
 11
217.213
 21
-212.491
  0
LINE
  8
0
 10
217.213
 20
-212.491
 11
217.491
 21
-212.213
  0
LINE
  8
0
 10
217.491
 20
-212.213
 11
217.796
 21
-211.966
  0
LINE
  8
0
 10
217.796
 20
-211.966
 11
218.125
 21
-211.752
  0
LINE
  8
0
 10
218.125
 20
-211.752
 11
218.475
 21
-211.574
  0
LINE
  8
0
 10
218.475
 20
-211.574
 11
218.841
 21
-211.434
  0
LINE
  8
0
 10
218.841
 20
-211.434
 11
219.22
 21
-211.332
  0
LINE
  8
0
 10
219.22
 20
-211.332
 11
219.608
 21
-211.271
  0
LINE
  8
0
 10
219.608
 20
-211.271
 11
220
 21
-211.25
  0
LINE
  8
0
 10
220
 20
-211.25
 11
220.392
 21
-211.271
  0
LINE
  8
0
 10
220.392
 20
-211.271
 11
220.78
 21
-211.332
  0
LINE
  8
0
 10
220.78
 20
-211.332
 11
221.159
 21
-211.434
  0
LINE
  8
0
 10
221.159
 20
-211.434
 11
221.525
 21
-211.574
  0
LINE
  8
0
 10
221.525
 20
-211.574
 11
221.875
 21
-211.752
  0
LINE
  8
0
 10
221.875
 20
-211.752
 11
222.204
 21
-211.966
  0
LINE
  8
0
 10
222.204
 20
-211.966
 11
222.509
 21
-212.213
  0
LINE
  8
0
 10
222.509
 20
-212.213
 11
222.787
 21
-212.491
  0
LINE
  8
0
 10
222.787
 20
-212.491
 11
223.034
 21
-212.796
  0
LINE
  8
0
 10
223.034
 20
-212.796
 11
223.248
 21
-213.125
  0
LINE
  8
0
 10
223.248
 20
-213.125
 11
223.426
 21
-213.475
  0
LINE
  8
0
 10
223.426
 20
-213.475
 11
223.566
 21
-213.841
  0
LINE
  8
0
 10
223.566
 20
-213.841
 11
223.668
 21
-214.22
  0
LINE
  8
0
 10
223.668
 20
-214.22
 11
223.729
 21
-214.608
  0
LINE
  8
0
 10
223.729
 20
-214.608
 11
223.75
 21
-215
  0
LINE
  8
0
 10
223.75
 20
-215
 11
223.729
 21
-215.392
  0
LINE
  8
0
 10
223.729
 20
-215.392
 11
223.668
 21
-215.78
  0
LINE
  8
0
 10
223.668
 20
-215.78
 11
223.566
 21
-216.159
  0
LINE
  8
0
 10
223.566
 20
-216.159
 11
223.426
 21
-216.525
  0
LINE
  8
0
 10
223.426
 20
-216.525
 11
223.248
 21
-216.875
  0
LINE
  8
0
 10
223.248
 20
-216.875
 11
223.034
 21
-217.204
  0
LINE
  8
0
 10
223.034
 20
-217.204
 11
222.787
 21
-217.509
  0
LINE
  8
0
 10
222.787
 20
-217.509
 11
222.509
 21
-217.787
  0
LINE
  8
0
 10
222.509
 20
-217.787
 11
222.204
 21
-218.034
  0
LINE
  8
0
 10
222.204
 20
-218.034
 11
221.875
 21
-218.248
  0
LINE
  8
0
 10
221.875
 20
-218.248
 11
221.525
 21
-218.426
  0
LINE
  8
0
 10
221.525
 20
-218.426
 11
221.159
 21
-218.566
  0
LINE
  8
0
 10
221.159
 20
-218.566
 11
220.78
 21
-218.668
  0
LINE
  8
0
 10
220.78
 20
-218.668
 11
220.392
 21
-218.729
  0
LINE
  8
0
 10
220.392
 20
-218.729
 11
220
 21
-218.75
  0
LINE
  8
0
 10
220
 20
-218.75
 11
219.608
 21
-218.729
  0
LINE
  8
0
 10
-220.392
 20
-218.729
 11
-220.78
 21
-218.668
  0
LINE
  8
0
 10
-220.78
 20
-218.668
 11
-221.159
 21
-218.566
  0
LINE
  8
0
 10
-221.159
 20
-218.566
 11
-221.525
 21
-218.426
  0
LINE
  8
0
 10
-221.525
 20
-218.426
 11
-221.875
 21
-218.248
  0
LINE
  8
0
 10
-221.875
 20
-218.248
 11
-222.204
 21
-218.034
  0
LINE
  8
0
 10
-222.204
 20
-218.034
 11
-222.509
 21
-217.787
  0
LINE
  8
0
 10
-222.509
 20
-217.787
 11
-222.787
 21
-217.509
  0
LINE
  8
0
 10
-222.787
 20
-217.509
 11
-223.034
 21
-217.204
  0
LINE
  8
0
 10
-223.034
 20
-217.204
 11
-223.248
 21
-216.875
  0
LINE
  8
0
 10
-223.248
 20
-216.875
 11
-223.426
 21
-216.525
  0
LINE
  8
0
 10
-223.426
 20
-216.525
 11
-223.566
 21
-216.159
  0
LINE
  8
0
 10
-223.566
 20
-216.159
 11
-223.668
 21
-215.78
  0
LINE
  8
0
 10
-223.668
 20
-215.78
 11
-223.729
 21
-215.392
  0
LINE
  8
0
 10
-223.729
 20
-215.392
 11
-223.75
 21
-215
  0
LINE
  8
0
 10
-223.75
 20
-215
 11
-223.729
 21
-214.608
  0
LINE
  8
0
 10
-223.729
 20
-214.608
 11
-223.668
 21
-214.22
  0
LINE
  8
0
 10
-223.668
 20
-214.22
 11
-223.566
 21
-213.841
  0
LINE
  8
0
 10
-223.566
 20
-213.841
 11
-223.426
 21
-213.475
  0
LINE
  8
0
 10
-223.426
 20
-213.475
 11
-223.248
 21
-213.125
  0
LINE
  8
0
 10
-223.248
 20
-213.125
 11
-223.034
 21
-212.796
  0
LINE
  8
0
 10
-223.034
 20
-212.796
 11
-222.787
 21
-212.491
  0
LINE
  8
0
 10
-222.787
 20
-212.491
 11
-222.509
 21
-212.213
  0
LINE
  8
0
 10
-222.509
 20
-212.213
 11
-222.204
 21
-211.966
  0
LINE
  8
0
 10
-222.204
 20
-211.966
 11
-221.875
 21
-211.752
  0
LINE
  8
0
 10
-221.875
 20
-211.752
 11
-221.525
 21
-211.574
  0
LINE
  8
0
 10
-221.525
 20
-211.574
 11
-221.159
 21
-211.434
  0
LINE
  8
0
 10
-221.159
 20
-211.434
 11
-220.78
 21
-211.332
  0
LINE
  8
0
 10
-220.78
 20
-211.332
 11
-220.392
 21
-211.271
  0
LINE
  8
0
 10
-220.392
 20
-211.271
 11
-220
 21
-211.25
  0
LINE
  8
0
 10
-220
 20
-211.25
 11
-219.608
 21
-211.271
  0
LINE
  8
0
 10
-219.608
 20
-211.271
 11
-219.22
 21
-211.332
  0
LINE
  8
0
 10
-219.22
 20
-211.332
 11
-218.841
 21
-211.434
  0
LINE
  8
0
 10
-218.841
 20
-211.434
 11
-218.475
 21
-211.574
  0
LINE
  8
0
 10
-218.475
 20
-211.574
 11
-218.125
 21
-211.752
  0
LINE
  8
0
 10
-218.125
 20
-211.752
 11
-217.796
 21
-211.966
  0
LINE
  8
0
 10
-217.796
 20
-211.966
 11
-217.491
 21
-212.213
  0
LINE
  8
0
 10
-217.491
 20
-212.213
 11
-217.213
 21
-212.491
  0
LINE
  8
0
 10
-217.213
 20
-212.491
 11
-216.966
 21
-212.796
  0
LINE
  8
0
 10
-216.966
 20
-212.796
 11
-216.752
 21
-213.125
  0
LINE
  8
0
 10
-216.752
 20
-213.125
 11
-216.574
 21
-213.475
  0
LINE
  8
0
 10
-216.574
 20
-213.475
 11
-216.434
 21
-213.841
  0
LINE
  8
0
 10
-216.434
 20
-213.841
 11
-216.332
 21
-214.22
  0
LINE
  8
0
 10
-216.332
 20
-214.22
 11
-216.271
 21
-214.608
  0
LINE
  8
0
 10
-216.271
 20
-214.608
 11
-216.25
 21
-215
  0
LINE
  8
0
 10
-216.25
 20
-215
 11
-216.271
 21
-215.392
  0
LINE
  8
0
 10
-216.271
 20
-215.392
 11
-216.332
 21
-215.78
  0
LINE
  8
0
 10
-216.332
 20
-215.78
 11
-216.434
 21
-216.159
  0
LINE
  8
0
 10
-216.434
 20
-216.159
 11
-216.574
 21
-216.525
  0
LINE
  8
0
 10
-216.574
 20
-216.525
 11
-216.752
 21
-216.875
  0
LINE
  8
0
 10
-216.752
 20
-216.875
 11
-216.966
 21
-217.204
  0
LINE
  8
0
 10
-216.966
 20
-217.204
 11
-217.213
 21
-217.509
  0
LINE
  8
0
 10
-217.213
 20
-217.509
 11
-217.491
 21
-217.787
  0
LINE
  8
0
 10
-217.491
 20
-217.787
 11
-217.796
 21
-218.034
  0
LINE
  8
0
 10
-217.796
 20
-218.034
 11
-218.125
 21
-218.248
  0
LINE
  8
0
 10
-218.125
 20
-218.248
 11
-218.475
 21
-218.426
  0
LINE
  8
0
 10
-218.475
 20
-218.426
 11
-218.841
 21
-218.566
  0
LINE
  8
0
 10
-218.841
 20
-218.566
 11
-219.22
 21
-218.668
  0
LINE
  8
0
 10
-219.22
 20
-218.668
 11
-219.608
 21
-218.729
  0
LINE
  8
0
 10
-219.608
 20
-218.729
 11
-220
 21
-218.75
  0
LINE
  8
0
 10
-220
 20
-218.75
 11
-220.392
 21
-218.729
  0
LINE
  8
0
 10
-177.809
 20
-216.672
 11
-178.049
 21
-216.609
  0
LINE
  8
0
 10
-178.049
 20
-216.609
 11
-178.277
 21
-216.512
  0
LINE
  8
0
 10
-178.277
 20
-216.512
 11
-178.489
 21
-216.383
  0
LINE
  8
0
 10
-178.489
 20
-216.383
 11
-178.68
 21
-216.224
  0
LINE
  8
0
 10
-178.68
 20
-216.224
 11
-178.846
 21
-216.039
  0
LINE
  8
0
 10
-178.846
 20
-216.039
 11
-178.982
 21
-215.832
  0
LINE
  8
0
 10
-178.982
 20
-215.832
 11
-179.088
 21
-215.607
  0
LINE
  8
0
 10
-179.088
 20
-215.607
 11
-179.159
 21
-215.37
  0
LINE
  8
0
 10
-179.159
 20
-215.37
 11
-179.195
 21
-215.124
  0
LINE
  8
0
 10
-179.195
 20
-215.124
 11
-179.195
 21
-214.876
  0
LINE
  8
0
 10
-179.195
 20
-214.876
 11
-179.159
 21
-214.63
  0
LINE
  8
0
 10
-179.159
 20
-214.63
 11
-179.088
 21
-214.393
  0
LINE
  8
0
 10
-179.088
 20
-214.393
 11
-178.982
 21
-214.168
  0
LINE
  8
0
 10
-178.982
 20
-214.168
 11
-178.846
 21
-213.961
  0
LINE
  8
0
 10
-178.846
 20
-213.961
 11
-178.68
 21
-213.776
  0
LINE
  8
0
 10
-178.68
 20
-213.776
 11
-178.489
 21
-213.617
  0
LINE
  8
0
 10
-178.489
 20
-213.617
 11
-178.277
 21
-213.488
  0
LINE
  8
0
 10
-178.277
 20
-213.488
 11
-178.049
 21
-213.391
  0
LINE
  8
0
 10
-178.049
 20
-213.391
 11
-177.809
 21
-213.328
  0
LINE
  8
0
 10
-177.809
 20
-213.328
 11
-177.562
 21
-213.301
  0
LINE
  8
0
 10
-177.562
 20
-213.301
 11
-177.314
 21
-213.31
  0
LINE
  8
0
 10
-177.314
 20
-213.31
 11
-177.07
 21
-213.355
  0
LINE
  8
0
 10
-177.07
 20
-213.355
 11
-176.835
 21
-213.435
  0
LINE
  8
0
 10
-176.835
 20
-213.435
 11
-176.614
 21
-213.549
  0
LINE
  8
0
 10
-176.614
 20
-213.549
 11
-176.413
 21
-213.693
  0
LINE
  8
0
 10
-176.413
 20
-213.693
 11
-176.234
 21
-213.866
  0
LINE
  8
0
 10
-176.234
 20
-213.866
 11
-176.082
 21
-214.062
  0
LINE
  8
0
 10
-176.082
 20
-214.062
 11
-175.961
 21
-214.278
  0
LINE
  8
0
 10
-175.961
 20
-214.278
 11
-175.872
 21
-214.51
  0
LINE
  8
0
 10
-175.872
 20
-214.51
 11
-175.818
 21
-214.752
  0
LINE
  8
0
 10
-175.818
 20
-214.752
 11
-175.8
 21
-215
  0
LINE
  8
0
 10
-175.8
 20
-215
 11
-175.818
 21
-215.248
  0
LINE
  8
0
 10
-175.818
 20
-215.248
 11
-175.872
 21
-215.49
  0
LINE
  8
0
 10
-175.872
 20
-215.49
 11
-175.961
 21
-215.722
  0
LINE
  8
0
 10
-175.961
 20
-215.722
 11
-176.082
 21
-215.938
  0
LINE
  8
0
 10
-176.082
 20
-215.938
 11
-176.234
 21
-216.134
  0
LINE
  8
0
 10
-176.234
 20
-216.134
 11
-176.413
 21
-216.307
  0
LINE
  8
0
 10
-176.413
 20
-216.307
 11
-176.614
 21
-216.451
  0
LINE
  8
0
 10
-176.614
 20
-216.451
 11
-176.835
 21
-216.565
  0
LINE
  8
0
 10
-176.835
 20
-216.565
 11
-177.07
 21
-216.645
  0
LINE
  8
0
 10
-177.07
 20
-216.645
 11
-177.314
 21
-216.69
  0
LINE
  8
0
 10
-177.314
 20
-216.69
 11
-177.562
 21
-216.699
  0
LINE
  8
0
 10
-177.562
 20
-216.699
 11
-177.809
 21
-216.672
  0
LINE
  8
0
 10
177.191
 20
-216.672
 11
176.951
 21
-216.609
  0
LINE
  8
0
 10
176.951
 20
-216.609
 11
176.723
 21
-216.512
  0
LINE
  8
0
 10
176.723
 20
-216.512
 11
176.511
 21
-216.383
  0
LINE
  8
0
 10
176.511
 20
-216.383
 11
176.32
 21
-216.224
  0
LINE
  8
0
 10
176.32
 20
-216.224
 11
176.154
 21
-216.039
  0
LINE
  8
0
 10
176.154
 20
-216.039
 11
176.018
 21
-215.832
  0
LINE
  8
0
 10
176.018
 20
-215.832
 11
175.912
 21
-215.607
  0
LINE
  8
0
 10
175.912
 20
-215.607
 11
175.841
 21
-215.37
  0
LINE
  8
0
 10
175.841
 20
-215.37
 11
175.805
 21
-215.124
  0
LINE
  8
0
 10
175.805
 20
-215.124
 11
175.805
 21
-214.876
  0
LINE
  8
0
 10
175.805
 20
-214.876
 11
175.841
 21
-214.63
  0
LINE
  8
0
 10
175.841
 20
-214.63
 11
175.912
 21
-214.393
  0
LINE
  8
0
 10
175.912
 20
-214.393
 11
176.018
 21
-214.168
  0
LINE
  8
0
 10
176.018
 20
-214.168
 11
176.154
 21
-213.961
  0
LINE
  8
0
 10
176.154
 20
-213.961
 11
176.32
 21
-213.776
  0
LINE
  8
0
 10
176.32
 20
-213.776
 11
176.511
 21
-213.617
  0
LINE
  8
0
 10
176.511
 20
-213.617
 11
176.723
 21
-213.488
  0
LINE
  8
0
 10
176.723
 20
-213.488
 11
176.951
 21
-213.391
  0
LINE
  8
0
 10
176.951
 20
-213.391
 11
177.191
 21
-213.328
  0
LINE
  8
0
 10
177.191
 20
-213.328
 11
177.438
 21
-213.301
  0
LINE
  8
0
 10
177.438
 20
-213.301
 11
177.686
 21
-213.31
  0
LINE
  8
0
 10
177.686
 20
-213.31
 11
177.93
 21
-213.355
  0
LINE
  8
0
 10
177.93
 20
-213.355
 11
178.165
 21
-213.435
  0
LINE
  8
0
 10
178.165
 20
-213.435
 11
178.386
 21
-213.549
  0
LINE
  8
0
 10
178.386
 20
-213.549
 11
178.587
 21
-213.693
  0
LINE
  8
0
 10
178.587
 20
-213.693
 11
178.766
 21
-213.866
  0
LINE
  8
0
 10
178.766
 20
-213.866
 11
178.918
 21
-214.062
  0
LINE
  8
0
 10
178.918
 20
-214.062
 11
179.039
 21
-214.278
  0
LINE
  8
0
 10
179.039
 20
-214.278
 11
179.128
 21
-214.51
  0
LINE
  8
0
 10
179.128
 20
-214.51
 11
179.182
 21
-214.752
  0
LINE
  8
0
 10
179.182
 20
-214.752
 11
179.2
 21
-215
  0
LINE
  8
0
 10
179.2
 20
-215
 11
179.182
 21
-215.248
  0
LINE
  8
0
 10
179.182
 20
-215.248
 11
179.128
 21
-215.49
  0
LINE
  8
0
 10
179.128
 20
-215.49
 11
179.039
 21
-215.722
  0
LINE
  8
0
 10
179.039
 20
-215.722
 11
178.918
 21
-215.938
  0
LINE
  8
0
 10
178.918
 20
-215.938
 11
178.766
 21
-216.134
  0
LINE
  8
0
 10
178.766
 20
-216.134
 11
178.587
 21
-216.307
  0
LINE
  8
0
 10
178.587
 20
-216.307
 11
178.386
 21
-216.451
  0
LINE
  8
0
 10
178.386
 20
-216.451
 11
178.165
 21
-216.565
  0
LINE
  8
0
 10
178.165
 20
-216.565
 11
177.93
 21
-216.645
  0
LINE
  8
0
 10
177.93
 20
-216.645
 11
177.686
 21
-216.69
  0
LINE
  8
0
 10
177.686
 20
-216.69
 11
177.438
 21
-216.699
  0
LINE
  8
0
 10
177.438
 20
-216.699
 11
177.191
 21
-216.672
  0
LINE
  8
0
 10
88.4412
 20
-216.672
 11
88.2011
 21
-216.609
  0
LINE
  8
0
 10
88.2011
 20
-216.609
 11
87.9727
 21
-216.512
  0
LINE
  8
0
 10
87.9727
 20
-216.512
 11
87.7608
 21
-216.383
  0
LINE
  8
0
 10
87.7608
 20
-216.383
 11
87.5701
 21
-216.224
  0
LINE
  8
0
 10
87.5701
 20
-216.224
 11
87.4044
 21
-216.039
  0
LINE
  8
0
 10
87.4044
 20
-216.039
 11
87.2675
 21
-215.832
  0
LINE
  8
0
 10
87.2675
 20
-215.832
 11
87.1622
 21
-215.607
  0
LINE
  8
0
 10
87.1622
 20
-215.607
 11
87.0907
 21
-215.37
  0
LINE
  8
0
 10
87.0907
 20
-215.37
 11
87.0545
 21
-215.124
  0
LINE
  8
0
 10
87.0545
 20
-215.124
 11
87.0545
 21
-214.876
  0
LINE
  8
0
 10
87.0545
 20
-214.876
 11
87.0907
 21
-214.63
  0
LINE
  8
0
 10
87.0907
 20
-214.63
 11
87.1622
 21
-214.393
  0
LINE
  8
0
 10
87.1622
 20
-214.393
 11
87.2675
 21
-214.168
  0
LINE
  8
0
 10
87.2675
 20
-214.168
 11
87.4044
 21
-213.961
  0
LINE
  8
0
 10
87.4044
 20
-213.961
 11
87.5701
 21
-213.776
  0
LINE
  8
0
 10
87.5701
 20
-213.776
 11
87.7608
 21
-213.617
  0
LINE
  8
0
 10
87.7608
 20
-213.617
 11
87.9727
 21
-213.488
  0
LINE
  8
0
 10
87.9727
 20
-213.488
 11
88.2011
 21
-213.391
  0
LINE
  8
0
 10
88.2011
 20
-213.391
 11
88.4412
 21
-213.328
  0
LINE
  8
0
 10
88.4412
 20
-213.328
 11
88.6879
 21
-213.301
  0
LINE
  8
0
 10
88.6879
 20
-213.301
 11
88.9359
 21
-213.31
  0
LINE
  8
0
 10
88.9359
 20
-213.31
 11
89.18
 21
-213.355
  0
LINE
  8
0
 10
89.18
 20
-213.355
 11
89.4149
 21
-213.435
  0
LINE
  8
0
 10
89.4149
 20
-213.435
 11
89.6356
 21
-213.549
  0
LINE
  8
0
 10
89.6356
 20
-213.549
 11
89.8374
 21
-213.693
  0
LINE
  8
0
 10
89.8374
 20
-213.693
 11
90.0161
 21
-213.866
  0
LINE
  8
0
 10
90.0161
 20
-213.866
 11
90.1678
 21
-214.062
  0
LINE
  8
0
 10
90.1678
 20
-214.062
 11
90.2893
 21
-214.278
  0
LINE
  8
0
 10
90.2893
 20
-214.278
 11
90.3779
 21
-214.51
  0
LINE
  8
0
 10
90.3779
 20
-214.51
 11
90.4319
 21
-214.752
  0
LINE
  8
0
 10
90.4319
 20
-214.752
 11
90.45
 21
-215
  0
LINE
  8
0
 10
90.45
 20
-215
 11
90.4319
 21
-215.248
  0
LINE
  8
0
 10
90.4319
 20
-215.248
 11
90.3779
 21
-215.49
  0
LINE
  8
0
 10
90.3779
 20
-215.49
 11
90.2893
 21
-215.722
  0
LINE
  8
0
 10
90.2893
 20
-215.722
 11
90.1678
 21
-215.938
  0
LINE
  8
0
 10
90.1678
 20
-215.938
 11
90.0161
 21
-216.134
  0
LINE
  8
0
 10
90.0161
 20
-216.134
 11
89.8374
 21
-216.307
  0
LINE
  8
0
 10
89.8374
 20
-216.307
 11
89.6356
 21
-216.451
  0
LINE
  8
0
 10
89.6356
 20
-216.451
 11
89.4149
 21
-216.565
  0
LINE
  8
0
 10
89.4149
 20
-216.565
 11
89.18
 21
-216.645
  0
LINE
  8
0
 10
89.18
 20
-216.645
 11
88.9359
 21
-216.69
  0
LINE
  8
0
 10
88.9359
 20
-216.69
 11
88.6879
 21
-216.699
  0
LINE
  8
0
 10
88.6879
 20
-216.699
 11
88.4412
 21
-216.672
  0
LINE
  8
0
 10
-0.308777
 20
-216.672
 11
-0.548889
 21
-216.609
  0
LINE
  8
0
 10
-0.548889
 20
-216.609
 11
-0.777298
 21
-216.512
  0
LINE
  8
0
 10
-0.777298
 20
-216.512
 11
-0.989151
 21
-216.383
  0
LINE
  8
0
 10
-0.989151
 20
-216.383
 11
-1.17992
 21
-216.224
  0
LINE
  8
0
 10
-1.17992
 20
-216.224
 11
-1.34554
 21
-216.039
  0
LINE
  8
0
 10
-1.34554
 20
-216.039
 11
-1.48248
 21
-215.832
  0
LINE
  8
0
 10
-1.48248
 20
-215.832
 11
-1.58781
 21
-215.607
  0
LINE
  8
0
 10
-1.58781
 20
-215.607
 11
-1.65932
 21
-215.37
  0
LINE
  8
0
 10
-1.65932
 20
-215.37
 11
-1.69545
 21
-215.124
  0
LINE
  8
0
 10
-1.69545
 20
-215.124
 11
-1.69545
 21
-214.876
  0
LINE
  8
0
 10
-1.69545
 20
-214.876
 11
-1.65932
 21
-214.63
  0
LINE
  8
0
 10
-1.65932
 20
-214.63
 11
-1.58781
 21
-214.393
  0
LINE
  8
0
 10
-1.58781
 20
-214.393
 11
-1.48248
 21
-214.168
  0
LINE
  8
0
 10
-1.48248
 20
-214.168
 11
-1.34554
 21
-213.961
  0
LINE
  8
0
 10
-1.34554
 20
-213.961
 11
-1.17992
 21
-213.776
  0
LINE
  8
0
 10
-1.17992
 20
-213.776
 11
-0.989151
 21
-213.617
  0
LINE
  8
0
 10
-0.989151
 20
-213.617
 11
-0.777298
 21
-213.488
  0
LINE
  8
0
 10
-0.777298
 20
-213.488
 11
-0.548889
 21
-213.391
  0
LINE
  8
0
 10
-0.548889
 20
-213.391
 11
-0.308777
 21
-213.328
  0
LINE
  8
0
 10
-0.308777
 20
-213.328
 11
-0.0620728
 21
-213.301
  0
LINE
  8
0
 10
-0.0620728
 20
-213.301
 11
0.185928
 21
-213.31
  0
LINE
  8
0
 10
0.185928
 20
-213.31
 11
0.429977
 21
-213.355
  0
LINE
  8
0
 10
0.429977
 20
-213.355
 11
0.664871
 21
-213.435
  0
LINE
  8
0
 10
0.664871
 20
-213.435
 11
0.88559
 21
-213.549
  0
LINE
  8
0
 10
0.88559
 20
-213.549
 11
1.08743
 21
-213.693
  0
LINE
  8
0
 10
1.08743
 20
-213.693
 11
1.2661
 21
-213.866
  0
LINE
  8
0
 10
1.2661
 20
-213.866
 11
1.41779
 21
-214.062
  0
LINE
  8
0
 10
1.41779
 20
-214.062
 11
1.53926
 21
-214.278
  0
LINE
  8
0
 10
1.53926
 20
-214.278
 11
1.62791
 21
-214.51
  0
LINE
  8
0
 10
1.62791
 20
-214.51
 11
1.68187
 21
-214.752
  0
LINE
  8
0
 10
1.68187
 20
-214.752
 11
1.7
 21
-215
  0
LINE
  8
0
 10
1.7
 20
-215
 11
1.68187
 21
-215.248
  0
LINE
  8
0
 10
1.68187
 20
-215.248
 11
1.62791
 21
-215.49
  0
LINE
  8
0
 10
1.62791
 20
-215.49
 11
1.53926
 21
-215.722
  0
LINE
  8
0
 10
1.53926
 20
-215.722
 11
1.41779
 21
-215.938
  0
LINE
  8
0
 10
1.41779
 20
-215.938
 11
1.2661
 21
-216.134
  0
LINE
  8
0
 10
1.2661
 20
-216.134
 11
1.08743
 21
-216.307
  0
LINE
  8
0
 10
1.08743
 20
-216.307
 11
0.88559
 21
-216.451
  0
LINE
  8
0
 10
0.88559
 20
-216.451
 11
0.664871
 21
-216.565
  0
LINE
  8
0
 10
0.664871
 20
-216.565
 11
0.429977
 21
-216.645
  0
LINE
  8
0
 10
0.429977
 20
-216.645
 11
0.185928
 21
-216.69
  0
LINE
  8
0
 10
0.185928
 20
-216.69
 11
-0.0620728
 21
-216.699
  0
LINE
  8
0
 10
-0.0620728
 20
-216.699
 11
-0.308777
 21
-216.672
  0
LINE
  8
0
 10
-89.0588
 20
-216.672
 11
-89.2989
 21
-216.609
  0
LINE
  8
0
 10
-89.2989
 20
-216.609
 11
-89.5273
 21
-216.512
  0
LINE
  8
0
 10
-89.5273
 20
-216.512
 11
-89.7392
 21
-216.383
  0
LINE
  8
0
 10
-89.7392
 20
-216.383
 11
-89.9299
 21
-216.224
  0
LINE
  8
0
 10
-89.9299
 20
-216.224
 11
-90.0955
 21
-216.039
  0
LINE
  8
0
 10
-90.0955
 20
-216.039
 11
-90.2325
 21
-215.832
  0
LINE
  8
0
 10
-90.2325
 20
-215.832
 11
-90.3378
 21
-215.607
  0
LINE
  8
0
 10
-90.3378
 20
-215.607
 11
-90.4093
 21
-215.37
  0
LINE
  8
0
 10
-90.4093
 20
-215.37
 11
-90.4455
 21
-215.124
  0
LINE
  8
0
 10
-90.4455
 20
-215.124
 11
-90.4455
 21
-214.876
  0
LINE
  8
0
 10
-90.4455
 20
-214.876
 11
-90.4093
 21
-214.63
  0
LINE
  8
0
 10
-90.4093
 20
-214.63
 11
-90.3378
 21
-214.393
  0
LINE
  8
0
 10
-90.3378
 20
-214.393
 11
-90.2325
 21
-214.168
  0
LINE
  8
0
 10
-90.2325
 20
-214.168
 11
-90.0955
 21
-213.961
  0
LINE
  8
0
 10
-90.0955
 20
-213.961
 11
-89.9299
 21
-213.776
  0
LINE
  8
0
 10
-89.9299
 20
-213.776
 11
-89.7392
 21
-213.617
  0
LINE
  8
0
 10
-89.7392
 20
-213.617
 11
-89.5273
 21
-213.488
  0
LINE
  8
0
 10
-89.5273
 20
-213.488
 11
-89.2989
 21
-213.391
  0
LINE
  8
0
 10
-89.2989
 20
-213.391
 11
-89.0588
 21
-213.328
  0
LINE
  8
0
 10
-89.0588
 20
-213.328
 11
-88.8121
 21
-213.301
  0
LINE
  8
0
 10
-88.8121
 20
-213.301
 11
-88.5641
 21
-213.31
  0
LINE
  8
0
 10
-88.5641
 20
-213.31
 11
-88.32
 21
-213.355
  0
LINE
  8
0
 10
-88.32
 20
-213.355
 11
-88.0851
 21
-213.435
  0
LINE
  8
0
 10
-88.0851
 20
-213.435
 11
-87.8644
 21
-213.549
  0
LINE
  8
0
 10
-87.8644
 20
-213.549
 11
-87.6626
 21
-213.693
  0
LINE
  8
0
 10
-87.6626
 20
-213.693
 11
-87.4839
 21
-213.866
  0
LINE
  8
0
 10
-87.4839
 20
-213.866
 11
-87.3322
 21
-214.062
  0
LINE
  8
0
 10
-87.3322
 20
-214.062
 11
-87.2107
 21
-214.278
  0
LINE
  8
0
 10
-87.2107
 20
-214.278
 11
-87.1221
 21
-214.51
  0
LINE
  8
0
 10
-87.1221
 20
-214.51
 11
-87.0681
 21
-214.752
  0
LINE
  8
0
 10
-87.0681
 20
-214.752
 11
-87.05
 21
-215
  0
LINE
  8
0
 10
-87.05
 20
-215
 11
-87.0681
 21
-215.248
  0
LINE
  8
0
 10
-87.0681
 20
-215.248
 11
-87.1221
 21
-215.49
  0
LINE
  8
0
 10
-87.1221
 20
-215.49
 11
-87.2107
 21
-215.722
  0
LINE
  8
0
 10
-87.2107
 20
-215.722
 11
-87.3322
 21
-215.938
  0
LINE
  8
0
 10
-87.3322
 20
-215.938
 11
-87.4839
 21
-216.134
  0
LINE
  8
0
 10
-87.4839
 20
-216.134
 11
-87.6626
 21
-216.307
  0
LINE
  8
0
 10
-87.6626
 20
-216.307
 11
-87.8644
 21
-216.451
  0
LINE
  8
0
 10
-87.8644
 20
-216.451
 11
-88.0851
 21
-216.565
  0
LINE
  8
0
 10
-88.0851
 20
-216.565
 11
-88.32
 21
-216.645
  0
LINE
  8
0
 10
-88.32
 20
-216.645
 11
-88.5641
 21
-216.69
  0
LINE
  8
0
 10
-88.5641
 20
-216.69
 11
-88.8121
 21
-216.699
  0
LINE
  8
0
 10
-88.8121
 20
-216.699
 11
-89.0588
 21
-216.672
  0
ENDSEC
  0
SECTION
  2
OBJECTS
  0
DICTIONARY
  0
ENDSEC
  0
EOF
