  0
SECTION
  2
BLOCKS
  0
ENDSEC
  0
SECTION
  2
ENTITIES
  0
LINE
  8
0
 10
222.898
 20
-222.348
 11
223.415
 21
-222.266
  0
LINE
  8
0
 10
223.415
 20
-222.266
 11
223.92
 21
-222.13
  0
LINE
  8
0
 10
223.92
 20
-222.13
 11
224.409
 21
-221.943
  0
LINE
  8
0
 10
224.409
 20
-221.943
 11
224.875
 21
-221.705
  0
LINE
  8
0
 10
224.875
 20
-221.705
 11
225.314
 21
-221.42
  0
LINE
  8
0
 10
225.314
 20
-221.42
 11
225.721
 21
-221.091
  0
LINE
  8
0
 10
225.721
 20
-221.091
 11
226.091
 21
-220.721
  0
LINE
  8
0
 10
226.091
 20
-220.721
 11
226.42
 21
-220.314
  0
LINE
  8
0
 10
226.42
 20
-220.314
 11
226.705
 21
-219.875
  0
LINE
  8
0
 10
226.705
 20
-219.875
 11
226.943
 21
-219.409
  0
LINE
  8
0
 10
226.943
 20
-219.409
 11
227.13
 21
-218.92
  0
LINE
  8
0
 10
227.13
 20
-218.92
 11
227.266
 21
-218.415
  0
LINE
  8
0
 10
227.266
 20
-218.415
 11
227.348
 21
-217.898
  0
LINE
  8
0
 10
227.348
 20
-217.898
 11
227.375
 21
-217.375
  0
LINE
  8
0
 10
227.375
 20
-217.375
 11
227.375
 21
217.375
  0
LINE
  8
0
 10
227.375
 20
217.375
 11
227.348
 21
217.898
  0
LINE
  8
0
 10
227.348
 20
217.898
 11
227.266
 21
218.415
  0
LINE
  8
0
 10
227.266
 20
218.415
 11
227.13
 21
218.92
  0
LINE
  8
0
 10
227.13
 20
218.92
 11
226.943
 21
219.409
  0
LINE
  8
0
 10
226.943
 20
219.409
 11
226.705
 21
219.875
  0
LINE
  8
0
 10
226.705
 20
219.875
 11
226.42
 21
220.314
  0
LINE
  8
0
 10
226.42
 20
220.314
 11
226.091
 21
220.721
  0
LINE
  8
0
 10
226.091
 20
220.721
 11
225.721
 21
221.091
  0
LINE
  8
0
 10
225.721
 20
221.091
 11
225.314
 21
221.42
  0
LINE
  8
0
 10
225.314
 20
221.42
 11
224.875
 21
221.705
  0
LINE
  8
0
 10
224.875
 20
221.705
 11
224.409
 21
221.943
  0
LINE
  8
0
 10
224.409
 20
221.943
 11
223.92
 21
222.13
  0
LINE
  8
0
 10
223.92
 20
222.13
 11
223.415
 21
222.266
  0
LINE
  8
0
 10
223.415
 20
222.266
 11
222.898
 21
222.348
  0
LINE
  8
0
 10
222.898
 20
222.348
 11
222.375
 21
222.375
  0
LINE
  8
0
 10
222.375
 20
222.375
 11
-222.375
 21
222.375
  0
LINE
  8
0
 10
-222.375
 20
222.375
 11
-222.898
 21
222.348
  0
LINE
  8
0
 10
-222.898
 20
222.348
 11
-223.415
 21
222.266
  0
LINE
  8
0
 10
-223.415
 20
222.266
 11
-223.92
 21
222.13
  0
LINE
  8
0
 10
-223.92
 20
222.13
 11
-224.409
 21
221.943
  0
LINE
  8
0
 10
-224.409
 20
221.943
 11
-224.875
 21
221.705
  0
LINE
  8
0
 10
-224.875
 20
221.705
 11
-225.314
 21
221.42
  0
LINE
  8
0
 10
-225.314
 20
221.42
 11
-225.721
 21
221.091
  0
LINE
  8
0
 10
-225.721
 20
221.091
 11
-226.091
 21
220.721
  0
LINE
  8
0
 10
-226.091
 20
220.721
 11
-226.42
 21
220.314
  0
LINE
  8
0
 10
-226.42
 20
220.314
 11
-226.705
 21
219.875
  0
LINE
  8
0
 10
-226.705
 20
219.875
 11
-226.943
 21
219.409
  0
LINE
  8
0
 10
-226.943
 20
219.409
 11
-227.13
 21
218.92
  0
LINE
  8
0
 10
-227.13
 20
218.92
 11
-227.266
 21
218.415
  0
LINE
  8
0
 10
-227.266
 20
218.415
 11
-227.348
 21
217.898
  0
LINE
  8
0
 10
-227.348
 20
217.898
 11
-227.375
 21
217.375
  0
LINE
  8
0
 10
-227.375
 20
217.375
 11
-227.375
 21
-217.375
  0
LINE
  8
0
 10
-227.375
 20
-217.375
 11
-227.348
 21
-217.898
  0
LINE
  8
0
 10
-227.348
 20
-217.898
 11
-227.266
 21
-218.415
  0
LINE
  8
0
 10
-227.266
 20
-218.415
 11
-227.13
 21
-218.92
  0
LINE
  8
0
 10
-227.13
 20
-218.92
 11
-226.943
 21
-219.409
  0
LINE
  8
0
 10
-226.943
 20
-219.409
 11
-226.705
 21
-219.875
  0
LINE
  8
0
 10
-226.705
 20
-219.875
 11
-226.42
 21
-220.314
  0
LINE
  8
0
 10
-226.42
 20
-220.314
 11
-226.091
 21
-220.721
  0
LINE
  8
0
 10
-226.091
 20
-220.721
 11
-225.721
 21
-221.091
  0
LINE
  8
0
 10
-225.721
 20
-221.091
 11
-225.314
 21
-221.42
  0
LINE
  8
0
 10
-225.314
 20
-221.42
 11
-224.875
 21
-221.705
  0
LINE
  8
0
 10
-224.875
 20
-221.705
 11
-224.409
 21
-221.943
  0
LINE
  8
0
 10
-224.409
 20
-221.943
 11
-223.92
 21
-222.13
  0
LINE
  8
0
 10
-223.92
 20
-222.13
 11
-223.415
 21
-222.266
  0
LINE
  8
0
 10
-223.415
 20
-222.266
 11
-222.898
 21
-222.348
  0
LINE
  8
0
 10
-222.898
 20
-222.348
 11
-222.375
 21
-222.375
  0
LINE
  8
0
 10
-222.375
 20
-222.375
 11
222.375
 21
-222.375
  0
LINE
  8
0
 10
222.375
 20
-222.375
 11
222.898
 21
-222.348
  0
LINE
  8
0
 10
219.608
 20
211.271
 11
219.22
 21
211.332
  0
LINE
  8
0
 10
219.22
 20
211.332
 11
218.841
 21
211.434
  0
LINE
  8
0
 10
218.841
 20
211.434
 11
218.475
 21
211.574
  0
LINE
  8
0
 10
218.475
 20
211.574
 11
218.125
 21
211.752
  0
LINE
  8
0
 10
218.125
 20
211.752
 11
217.796
 21
211.966
  0
LINE
  8
0
 10
217.796
 20
211.966
 11
217.491
 21
212.213
  0
LINE
  8
0
 10
217.491
 20
212.213
 11
217.213
 21
212.491
  0
LINE
  8
0
 10
217.213
 20
212.491
 11
216.966
 21
212.796
  0
LINE
  8
0
 10
216.966
 20
212.796
 11
216.752
 21
213.125
  0
LINE
  8
0
 10
216.752
 20
213.125
 11
216.574
 21
213.475
  0
LINE
  8
0
 10
216.574
 20
213.475
 11
216.434
 21
213.841
  0
LINE
  8
0
 10
216.434
 20
213.841
 11
216.332
 21
214.22
  0
LINE
  8
0
 10
216.332
 20
214.22
 11
216.271
 21
214.608
  0
LINE
  8
0
 10
216.271
 20
214.608
 11
216.25
 21
215
  0
LINE
  8
0
 10
216.25
 20
215
 11
216.271
 21
215.392
  0
LINE
  8
0
 10
216.271
 20
215.392
 11
216.332
 21
215.78
  0
LINE
  8
0
 10
216.332
 20
215.78
 11
216.434
 21
216.159
  0
LINE
  8
0
 10
216.434
 20
216.159
 11
216.574
 21
216.525
  0
LINE
  8
0
 10
216.574
 20
216.525
 11
216.752
 21
216.875
  0
LINE
  8
0
 10
216.752
 20
216.875
 11
216.966
 21
217.204
  0
LINE
  8
0
 10
216.966
 20
217.204
 11
217.213
 21
217.509
  0
LINE
  8
0
 10
217.213
 20
217.509
 11
217.491
 21
217.787
  0
LINE
  8
0
 10
217.491
 20
217.787
 11
217.796
 21
218.034
  0
LINE
  8
0
 10
217.796
 20
218.034
 11
218.125
 21
218.248
  0
LINE
  8
0
 10
218.125
 20
218.248
 11
218.475
 21
218.426
  0
LINE
  8
0
 10
218.475
 20
218.426
 11
218.841
 21
218.566
  0
LINE
  8
0
 10
218.841
 20
218.566
 11
219.22
 21
218.668
  0
LINE
  8
0
 10
219.22
 20
218.668
 11
219.608
 21
218.729
  0
LINE
  8
0
 10
219.608
 20
218.729
 11
220
 21
218.75
  0
LINE
  8
0
 10
220
 20
218.75
 11
220.392
 21
218.729
  0
LINE
  8
0
 10
220.392
 20
218.729
 11
220.78
 21
218.668
  0
LINE
  8
0
 10
220.78
 20
218.668
 11
221.159
 21
218.566
  0
LINE
  8
0
 10
221.159
 20
218.566
 11
221.525
 21
218.426
  0
LINE
  8
0
 10
221.525
 20
218.426
 11
221.875
 21
218.248
  0
LINE
  8
0
 10
221.875
 20
218.248
 11
222.204
 21
218.034
  0
LINE
  8
0
 10
222.204
 20
218.034
 11
222.509
 21
217.787
  0
LINE
  8
0
 10
222.509
 20
217.787
 11
222.787
 21
217.509
  0
LINE
  8
0
 10
222.787
 20
217.509
 11
223.034
 21
217.204
  0
LINE
  8
0
 10
223.034
 20
217.204
 11
223.248
 21
216.875
  0
LINE
  8
0
 10
223.248
 20
216.875
 11
223.426
 21
216.525
  0
LINE
  8
0
 10
223.426
 20
216.525
 11
223.566
 21
216.159
  0
LINE
  8
0
 10
223.566
 20
216.159
 11
223.668
 21
215.78
  0
LINE
  8
0
 10
223.668
 20
215.78
 11
223.729
 21
215.392
  0
LINE
  8
0
 10
223.729
 20
215.392
 11
223.75
 21
215
  0
LINE
  8
0
 10
223.75
 20
215
 11
223.729
 21
214.608
  0
LINE
  8
0
 10
223.729
 20
214.608
 11
223.668
 21
214.22
  0
LINE
  8
0
 10
223.668
 20
214.22
 11
223.566
 21
213.841
  0
LINE
  8
0
 10
223.566
 20
213.841
 11
223.426
 21
213.475
  0
LINE
  8
0
 10
223.426
 20
213.475
 11
223.248
 21
213.125
  0
LINE
  8
0
 10
223.248
 20
213.125
 11
223.034
 21
212.796
  0
LINE
  8
0
 10
223.034
 20
212.796
 11
222.787
 21
212.491
  0
LINE
  8
0
 10
222.787
 20
212.491
 11
222.509
 21
212.213
  0
LINE
  8
0
 10
222.509
 20
212.213
 11
222.204
 21
211.966
  0
LINE
  8
0
 10
222.204
 20
211.966
 11
221.875
 21
211.752
  0
LINE
  8
0
 10
221.875
 20
211.752
 11
221.525
 21
211.574
  0
LINE
  8
0
 10
221.525
 20
211.574
 11
221.159
 21
211.434
  0
LINE
  8
0
 10
221.159
 20
211.434
 11
220.78
 21
211.332
  0
LINE
  8
0
 10
220.78
 20
211.332
 11
220.392
 21
211.271
  0
LINE
  8
0
 10
220.392
 20
211.271
 11
220
 21
211.25
  0
LINE
  8
0
 10
220
 20
211.25
 11
219.608
 21
211.271
  0
LINE
  8
0
 10
-220.392
 20
211.271
 11
-220.78
 21
211.332
  0
LINE
  8
0
 10
-220.78
 20
211.332
 11
-221.159
 21
211.434
  0
LINE
  8
0
 10
-221.159
 20
211.434
 11
-221.525
 21
211.574
  0
LINE
  8
0
 10
-221.525
 20
211.574
 11
-221.875
 21
211.752
  0
LINE
  8
0
 10
-221.875
 20
211.752
 11
-222.204
 21
211.966
  0
LINE
  8
0
 10
-222.204
 20
211.966
 11
-222.509
 21
212.213
  0
LINE
  8
0
 10
-222.509
 20
212.213
 11
-222.787
 21
212.491
  0
LINE
  8
0
 10
-222.787
 20
212.491
 11
-223.034
 21
212.796
  0
LINE
  8
0
 10
-223.034
 20
212.796
 11
-223.248
 21
213.125
  0
LINE
  8
0
 10
-223.248
 20
213.125
 11
-223.426
 21
213.475
  0
LINE
  8
0
 10
-223.426
 20
213.475
 11
-223.566
 21
213.841
  0
LINE
  8
0
 10
-223.566
 20
213.841
 11
-223.668
 21
214.22
  0
LINE
  8
0
 10
-223.668
 20
214.22
 11
-223.729
 21
214.608
  0
LINE
  8
0
 10
-223.729
 20
214.608
 11
-223.75
 21
215
  0
LINE
  8
0
 10
-223.75
 20
215
 11
-223.729
 21
215.392
  0
LINE
  8
0
 10
-223.729
 20
215.392
 11
-223.668
 21
215.78
  0
LINE
  8
0
 10
-223.668
 20
215.78
 11
-223.566
 21
216.159
  0
LINE
  8
0
 10
-223.566
 20
216.159
 11
-223.426
 21
216.525
  0
LINE
  8
0
 10
-223.426
 20
216.525
 11
-223.248
 21
216.875
  0
LINE
  8
0
 10
-223.248
 20
216.875
 11
-223.034
 21
217.204
  0
LINE
  8
0
 10
-223.034
 20
217.204
 11
-222.787
 21
217.509
  0
LINE
  8
0
 10
-222.787
 20
217.509
 11
-222.509
 21
217.787
  0
LINE
  8
0
 10
-222.509
 20
217.787
 11
-222.204
 21
218.034
  0
LINE
  8
0
 10
-222.204
 20
218.034
 11
-221.875
 21
218.248
  0
LINE
  8
0
 10
-221.875
 20
218.248
 11
-221.525
 21
218.426
  0
LINE
  8
0
 10
-221.525
 20
218.426
 11
-221.159
 21
218.566
  0
LINE
  8
0
 10
-221.159
 20
218.566
 11
-220.78
 21
218.668
  0
LINE
  8
0
 10
-220.78
 20
218.668
 11
-220.392
 21
218.729
  0
LINE
  8
0
 10
-220.392
 20
218.729
 11
-220
 21
218.75
  0
LINE
  8
0
 10
-220
 20
218.75
 11
-219.608
 21
218.729
  0
LINE
  8
0
 10
-219.608
 20
218.729
 11
-219.22
 21
218.668
  0
LINE
  8
0
 10
-219.22
 20
218.668
 11
-218.841
 21
218.566
  0
LINE
  8
0
 10
-218.841
 20
218.566
 11
-218.475
 21
218.426
  0
LINE
  8
0
 10
-218.475
 20
218.426
 11
-218.125
 21
218.248
  0
LINE
  8
0
 10
-218.125
 20
218.248
 11
-217.796
 21
218.034
  0
LINE
  8
0
 10
-217.796
 20
218.034
 11
-217.491
 21
217.787
  0
LINE
  8
0
 10
-217.491
 20
217.787
 11
-217.213
 21
217.509
  0
LINE
  8
0
 10
-217.213
 20
217.509
 11
-216.966
 21
217.204
  0
LINE
  8
0
 10
-216.966
 20
217.204
 11
-216.752
 21
216.875
  0
LINE
  8
0
 10
-216.752
 20
216.875
 11
-216.574
 21
216.525
  0
LINE
  8
0
 10
-216.574
 20
216.525
 11
-216.434
 21
216.159
  0
LINE
  8
0
 10
-216.434
 20
216.159
 11
-216.332
 21
215.78
  0
LINE
  8
0
 10
-216.332
 20
215.78
 11
-216.271
 21
215.392
  0
LINE
  8
0
 10
-216.271
 20
215.392
 11
-216.25
 21
215
  0
LINE
  8
0
 10
-216.25
 20
215
 11
-216.271
 21
214.608
  0
LINE
  8
0
 10
-216.271
 20
214.608
 11
-216.332
 21
214.22
  0
LINE
  8
0
 10
-216.332
 20
214.22
 11
-216.434
 21
213.841
  0
LINE
  8
0
 10
-216.434
 20
213.841
 11
-216.574
 21
213.475
  0
LINE
  8
0
 10
-216.574
 20
213.475
 11
-216.752
 21
213.125
  0
LINE
  8
0
 10
-216.752
 20
213.125
 11
-216.966
 21
212.796
  0
LINE
  8
0
 10
-216.966
 20
212.796
 11
-217.213
 21
212.491
  0
LINE
  8
0
 10
-217.213
 20
212.491
 11
-217.491
 21
212.213
  0
LINE
  8
0
 10
-217.491
 20
212.213
 11
-217.796
 21
211.966
  0
LINE
  8
0
 10
-217.796
 20
211.966
 11
-218.125
 21
211.752
  0
LINE
  8
0
 10
-218.125
 20
211.752
 11
-218.475
 21
211.574
  0
LINE
  8
0
 10
-218.475
 20
211.574
 11
-218.841
 21
211.434
  0
LINE
  8
0
 10
-218.841
 20
211.434
 11
-219.22
 21
211.332
  0
LINE
  8
0
 10
-219.22
 20
211.332
 11
-219.608
 21
211.271
  0
LINE
  8
0
 10
-219.608
 20
211.271
 11
-220
 21
211.25
  0
LINE
  8
0
 10
-220
 20
211.25
 11
-220.392
 21
211.271
  0
LINE
  8
0
 10
177.191
 20
213.328
 11
176.951
 21
213.391
  0
LINE
  8
0
 10
176.951
 20
213.391
 11
176.723
 21
213.488
  0
LINE
  8
0
 10
176.723
 20
213.488
 11
176.511
 21
213.617
  0
LINE
  8
0
 10
176.511
 20
213.617
 11
176.32
 21
213.776
  0
LINE
  8
0
 10
176.32
 20
213.776
 11
176.154
 21
213.961
  0
LINE
  8
0
 10
176.154
 20
213.961
 11
176.018
 21
214.168
  0
LINE
  8
0
 10
176.018
 20
214.168
 11
175.912
 21
214.393
  0
LINE
  8
0
 10
175.912
 20
214.393
 11
175.841
 21
214.63
  0
LINE
  8
0
 10
175.841
 20
214.63
 11
175.805
 21
214.876
  0
LINE
  8
0
 10
175.805
 20
214.876
 11
175.805
 21
215.124
  0
LINE
  8
0
 10
175.805
 20
215.124
 11
175.841
 21
215.37
  0
LINE
  8
0
 10
175.841
 20
215.37
 11
175.912
 21
215.607
  0
LINE
  8
0
 10
175.912
 20
215.607
 11
176.018
 21
215.832
  0
LINE
  8
0
 10
176.018
 20
215.832
 11
176.154
 21
216.039
  0
LINE
  8
0
 10
176.154
 20
216.039
 11
176.32
 21
216.224
  0
LINE
  8
0
 10
176.32
 20
216.224
 11
176.511
 21
216.383
  0
LINE
  8
0
 10
176.511
 20
216.383
 11
176.723
 21
216.512
  0
LINE
  8
0
 10
176.723
 20
216.512
 11
176.951
 21
216.609
  0
LINE
  8
0
 10
176.951
 20
216.609
 11
177.191
 21
216.672
  0
LINE
  8
0
 10
177.191
 20
216.672
 11
177.438
 21
216.699
  0
LINE
  8
0
 10
177.438
 20
216.699
 11
177.686
 21
216.69
  0
LINE
  8
0
 10
177.686
 20
216.69
 11
177.93
 21
216.645
  0
LINE
  8
0
 10
177.93
 20
216.645
 11
178.165
 21
216.565
  0
LINE
  8
0
 10
178.165
 20
216.565
 11
178.386
 21
216.451
  0
LINE
  8
0
 10
178.386
 20
216.451
 11
178.587
 21
216.307
  0
LINE
  8
0
 10
178.587
 20
216.307
 11
178.766
 21
216.134
  0
LINE
  8
0
 10
178.766
 20
216.134
 11
178.918
 21
215.938
  0
LINE
  8
0
 10
178.918
 20
215.938
 11
179.039
 21
215.722
  0
LINE
  8
0
 10
179.039
 20
215.722
 11
179.128
 21
215.49
  0
LINE
  8
0
 10
179.128
 20
215.49
 11
179.182
 21
215.248
  0
LINE
  8
0
 10
179.182
 20
215.248
 11
179.2
 21
215
  0
LINE
  8
0
 10
179.2
 20
215
 11
179.182
 21
214.752
  0
LINE
  8
0
 10
179.182
 20
214.752
 11
179.128
 21
214.51
  0
LINE
  8
0
 10
179.128
 20
214.51
 11
179.039
 21
214.278
  0
LINE
  8
0
 10
179.039
 20
214.278
 11
178.918
 21
214.062
  0
LINE
  8
0
 10
178.918
 20
214.062
 11
178.766
 21
213.866
  0
LINE
  8
0
 10
178.766
 20
213.866
 11
178.587
 21
213.693
  0
LINE
  8
0
 10
178.587
 20
213.693
 11
178.386
 21
213.549
  0
LINE
  8
0
 10
178.386
 20
213.549
 11
178.165
 21
213.435
  0
LINE
  8
0
 10
178.165
 20
213.435
 11
177.93
 21
213.355
  0
LINE
  8
0
 10
177.93
 20
213.355
 11
177.686
 21
213.31
  0
LINE
  8
0
 10
177.686
 20
213.31
 11
177.438
 21
213.301
  0
LINE
  8
0
 10
177.438
 20
213.301
 11
177.191
 21
213.328
  0
LINE
  8
0
 10
-0.308777
 20
213.328
 11
-0.548889
 21
213.391
  0
LINE
  8
0
 10
-0.548889
 20
213.391
 11
-0.777298
 21
213.488
  0
LINE
  8
0
 10
-0.777298
 20
213.488
 11
-0.989151
 21
213.617
  0
LINE
  8
0
 10
-0.989151
 20
213.617
 11
-1.17992
 21
213.776
  0
LINE
  8
0
 10
-1.17992
 20
213.776
 11
-1.34554
 21
213.961
  0
LINE
  8
0
 10
-1.34554
 20
213.961
 11
-1.48248
 21
214.168
  0
LINE
  8
0
 10
-1.48248
 20
214.168
 11
-1.58781
 21
214.393
  0
LINE
  8
0
 10
-1.58781
 20
214.393
 11
-1.65932
 21
214.63
  0
LINE
  8
0
 10
-1.65932
 20
214.63
 11
-1.69545
 21
214.876
  0
LINE
  8
0
 10
-1.69545
 20
214.876
 11
-1.69545
 21
215.124
  0
LINE
  8
0
 10
-1.69545
 20
215.124
 11
-1.65932
 21
215.37
  0
LINE
  8
0
 10
-1.65932
 20
215.37
 11
-1.58781
 21
215.607
  0
LINE
  8
0
 10
-1.58781
 20
215.607
 11
-1.48248
 21
215.832
  0
LINE
  8
0
 10
-1.48248
 20
215.832
 11
-1.34554
 21
216.039
  0
LINE
  8
0
 10
-1.34554
 20
216.039
 11
-1.17992
 21
216.224
  0
LINE
  8
0
 10
-1.17992
 20
216.224
 11
-0.989151
 21
216.383
  0
LINE
  8
0
 10
-0.989151
 20
216.383
 11
-0.777298
 21
216.512
  0
LINE
  8
0
 10
-0.777298
 20
216.512
 11
-0.548889
 21
216.609
  0
LINE
  8
0
 10
-0.548889
 20
216.609
 11
-0.308777
 21
216.672
  0
LINE
  8
0
 10
-0.308777
 20
216.672
 11
-0.0620728
 21
216.699
  0
LINE
  8
0
 10
-0.0620728
 20
216.699
 11
0.185928
 21
216.69
  0
LINE
  8
0
 10
0.185928
 20
216.69
 11
0.429977
 21
216.645
  0
LINE
  8
0
 10
0.429977
 20
216.645
 11
0.664871
 21
216.565
  0
LINE
  8
0
 10
0.664871
 20
216.565
 11
0.88559
 21
216.451
  0
LINE
  8
0
 10
0.88559
 20
216.451
 11
1.08743
 21
216.307
  0
LINE
  8
0
 10
1.08743
 20
216.307
 11
1.2661
 21
216.134
  0
LINE
  8
0
 10
1.2661
 20
216.134
 11
1.41779
 21
215.938
  0
LINE
  8
0
 10
1.41779
 20
215.938
 11
1.53926
 21
215.722
  0
LINE
  8
0
 10
1.53926
 20
215.722
 11
1.62791
 21
215.49
  0
LINE
  8
0
 10
1.62791
 20
215.49
 11
1.68187
 21
215.248
  0
LINE
  8
0
 10
1.68187
 20
215.248
 11
1.7
 21
215
  0
LINE
  8
0
 10
1.7
 20
215
 11
1.68187
 21
214.752
  0
LINE
  8
0
 10
1.68187
 20
214.752
 11
1.62791
 21
214.51
  0
LINE
  8
0
 10
1.62791
 20
214.51
 11
1.53926
 21
214.278
  0
LINE
  8
0
 10
1.53926
 20
214.278
 11
1.41779
 21
214.062
  0
LINE
  8
0
 10
1.41779
 20
214.062
 11
1.2661
 21
213.866
  0
LINE
  8
0
 10
1.2661
 20
213.866
 11
1.08743
 21
213.693
  0
LINE
  8
0
 10
1.08743
 20
213.693
 11
0.88559
 21
213.549
  0
LINE
  8
0
 10
0.88559
 20
213.549
 11
0.664871
 21
213.435
  0
LINE
  8
0
 10
0.664871
 20
213.435
 11
0.429977
 21
213.355
  0
LINE
  8
0
 10
0.429977
 20
213.355
 11
0.185928
 21
213.31
  0
LINE
  8
0
 10
0.185928
 20
213.31
 11
-0.0620728
 21
213.301
  0
LINE
  8
0
 10
-0.0620728
 20
213.301
 11
-0.308777
 21
213.328
  0
LINE
  8
0
 10
88.4412
 20
213.328
 11
88.2011
 21
213.391
  0
LINE
  8
0
 10
88.2011
 20
213.391
 11
87.9727
 21
213.488
  0
LINE
  8
0
 10
87.9727
 20
213.488
 11
87.7608
 21
213.617
  0
LINE
  8
0
 10
87.7608
 20
213.617
 11
87.5701
 21
213.776
  0
LINE
  8
0
 10
87.5701
 20
213.776
 11
87.4044
 21
213.961
  0
LINE
  8
0
 10
87.4044
 20
213.961
 11
87.2675
 21
214.168
  0
LINE
  8
0
 10
87.2675
 20
214.168
 11
87.1622
 21
214.393
  0
LINE
  8
0
 10
87.1622
 20
214.393
 11
87.0907
 21
214.63
  0
LINE
  8
0
 10
87.0907
 20
214.63
 11
87.0545
 21
214.876
  0
LINE
  8
0
 10
87.0545
 20
214.876
 11
87.0545
 21
215.124
  0
LINE
  8
0
 10
87.0545
 20
215.124
 11
87.0907
 21
215.37
  0
LINE
  8
0
 10
87.0907
 20
215.37
 11
87.1622
 21
215.607
  0
LINE
  8
0
 10
87.1622
 20
215.607
 11
87.2675
 21
215.832
  0
LINE
  8
0
 10
87.2675
 20
215.832
 11
87.4044
 21
216.039
  0
LINE
  8
0
 10
87.4044
 20
216.039
 11
87.5701
 21
216.224
  0
LINE
  8
0
 10
87.5701
 20
216.224
 11
87.7608
 21
216.383
  0
LINE
  8
0
 10
87.7608
 20
216.383
 11
87.9727
 21
216.512
  0
LINE
  8
0
 10
87.9727
 20
216.512
 11
88.2011
 21
216.609
  0
LINE
  8
0
 10
88.2011
 20
216.609
 11
88.4412
 21
216.672
  0
LINE
  8
0
 10
88.4412
 20
216.672
 11
88.6879
 21
216.699
  0
LINE
  8
0
 10
88.6879
 20
216.699
 11
88.9359
 21
216.69
  0
LINE
  8
0
 10
88.9359
 20
216.69
 11
89.18
 21
216.645
  0
LINE
  8
0
 10
89.18
 20
216.645
 11
89.4149
 21
216.565
  0
LINE
  8
0
 10
89.4149
 20
216.565
 11
89.6356
 21
216.451
  0
LINE
  8
0
 10
89.6356
 20
216.451
 11
89.8374
 21
216.307
  0
LINE
  8
0
 10
89.8374
 20
216.307
 11
90.0161
 21
216.134
  0
LINE
  8
0
 10
90.0161
 20
216.134
 11
90.1678
 21
215.938
  0
LINE
  8
0
 10
90.1678
 20
215.938
 11
90.2893
 21
215.722
  0
LINE
  8
0
 10
90.2893
 20
215.722
 11
90.3779
 21
215.49
  0
LINE
  8
0
 10
90.3779
 20
215.49
 11
90.4319
 21
215.248
  0
LINE
  8
0
 10
90.4319
 20
215.248
 11
90.45
 21
215
  0
LINE
  8
0
 10
90.45
 20
215
 11
90.4319
 21
214.752
  0
LINE
  8
0
 10
90.4319
 20
214.752
 11
90.3779
 21
214.51
  0
LINE
  8
0
 10
90.3779
 20
214.51
 11
90.2893
 21
214.278
  0
LINE
  8
0
 10
90.2893
 20
214.278
 11
90.1678
 21
214.062
  0
LINE
  8
0
 10
90.1678
 20
214.062
 11
90.0161
 21
213.866
  0
LINE
  8
0
 10
90.0161
 20
213.866
 11
89.8374
 21
213.693
  0
LINE
  8
0
 10
89.8374
 20
213.693
 11
89.6356
 21
213.549
  0
LINE
  8
0
 10
89.6356
 20
213.549
 11
89.4149
 21
213.435
  0
LINE
  8
0
 10
89.4149
 20
213.435
 11
89.18
 21
213.355
  0
LINE
  8
0
 10
89.18
 20
213.355
 11
88.9359
 21
213.31
  0
LINE
  8
0
 10
88.9359
 20
213.31
 11
88.6879
 21
213.301
  0
LINE
  8
0
 10
88.6879
 20
213.301
 11
88.4412
 21
213.328
  0
LINE
  8
0
 10
-177.809
 20
213.328
 11
-178.049
 21
213.391
  0
LINE
  8
0
 10
-178.049
 20
213.391
 11
-178.277
 21
213.488
  0
LINE
  8
0
 10
-178.277
 20
213.488
 11
-178.489
 21
213.617
  0
LINE
  8
0
 10
-178.489
 20
213.617
 11
-178.68
 21
213.776
  0
LINE
  8
0
 10
-178.68
 20
213.776
 11
-178.846
 21
213.961
  0
LINE
  8
0
 10
-178.846
 20
213.961
 11
-178.982
 21
214.168
  0
LINE
  8
0
 10
-178.982
 20
214.168
 11
-179.088
 21
214.393
  0
LINE
  8
0
 10
-179.088
 20
214.393
 11
-179.159
 21
214.63
  0
LINE
  8
0
 10
-179.159
 20
214.63
 11
-179.195
 21
214.876
  0
LINE
  8
0
 10
-179.195
 20
214.876
 11
-179.195
 21
215.124
  0
LINE
  8
0
 10
-179.195
 20
215.124
 11
-179.159
 21
215.37
  0
LINE
  8
0
 10
-179.159
 20
215.37
 11
-179.088
 21
215.607
  0
LINE
  8
0
 10
-179.088
 20
215.607
 11
-178.982
 21
215.832
  0
LINE
  8
0
 10
-178.982
 20
215.832
 11
-178.846
 21
216.039
  0
LINE
  8
0
 10
-178.846
 20
216.039
 11
-178.68
 21
216.224
  0
LINE
  8
0
 10
-178.68
 20
216.224
 11
-178.489
 21
216.383
  0
LINE
  8
0
 10
-178.489
 20
216.383
 11
-178.277
 21
216.512
  0
LINE
  8
0
 10
-178.277
 20
216.512
 11
-178.049
 21
216.609
  0
LINE
  8
0
 10
-178.049
 20
216.609
 11
-177.809
 21
216.672
  0
LINE
  8
0
 10
-177.809
 20
216.672
 11
-177.562
 21
216.699
  0
LINE
  8
0
 10
-177.562
 20
216.699
 11
-177.314
 21
216.69
  0
LINE
  8
0
 10
-177.314
 20
216.69
 11
-177.07
 21
216.645
  0
LINE
  8
0
 10
-177.07
 20
216.645
 11
-176.835
 21
216.565
  0
LINE
  8
0
 10
-176.835
 20
216.565
 11
-176.614
 21
216.451
  0
LINE
  8
0
 10
-176.614
 20
216.451
 11
-176.413
 21
216.307
  0
LINE
  8
0
 10
-176.413
 20
216.307
 11
-176.234
 21
216.134
  0
LINE
  8
0
 10
-176.234
 20
216.134
 11
-176.082
 21
215.938
  0
LINE
  8
0
 10
-176.082
 20
215.938
 11
-175.961
 21
215.722
  0
LINE
  8
0
 10
-175.961
 20
215.722
 11
-175.872
 21
215.49
  0
LINE
  8
0
 10
-175.872
 20
215.49
 11
-175.818
 21
215.248
  0
LINE
  8
0
 10
-175.818
 20
215.248
 11
-175.8
 21
215
  0
LINE
  8
0
 10
-175.8
 20
215
 11
-175.818
 21
214.752
  0
LINE
  8
0
 10
-175.818
 20
214.752
 11
-175.872
 21
214.51
  0
LINE
  8
0
 10
-175.872
 20
214.51
 11
-175.961
 21
214.278
  0
LINE
  8
0
 10
-175.961
 20
214.278
 11
-176.082
 21
214.062
  0
LINE
  8
0
 10
-176.082
 20
214.062
 11
-176.234
 21
213.866
  0
LINE
  8
0
 10
-176.234
 20
213.866
 11
-176.413
 21
213.693
  0
LINE
  8
0
 10
-176.413
 20
213.693
 11
-176.614
 21
213.549
  0
LINE
  8
0
 10
-176.614
 20
213.549
 11
-176.835
 21
213.435
  0
LINE
  8
0
 10
-176.835
 20
213.435
 11
-177.07
 21
213.355
  0
LINE
  8
0
 10
-177.07
 20
213.355
 11
-177.314
 21
213.31
  0
LINE
  8
0
 10
-177.314
 20
213.31
 11
-177.562
 21
213.301
  0
LINE
  8
0
 10
-177.562
 20
213.301
 11
-177.809
 21
213.328
  0
LINE
  8
0
 10
-89.0588
 20
213.328
 11
-89.2989
 21
213.391
  0
LINE
  8
0
 10
-89.2989
 20
213.391
 11
-89.5273
 21
213.488
  0
LINE
  8
0
 10
-89.5273
 20
213.488
 11
-89.7392
 21
213.617
  0
LINE
  8
0
 10
-89.7392
 20
213.617
 11
-89.9299
 21
213.776
  0
LINE
  8
0
 10
-89.9299
 20
213.776
 11
-90.0955
 21
213.961
  0
LINE
  8
0
 10
-90.0955
 20
213.961
 11
-90.2325
 21
214.168
  0
LINE
  8
0
 10
-90.2325
 20
214.168
 11
-90.3378
 21
214.393
  0
LINE
  8
0
 10
-90.3378
 20
214.393
 11
-90.4093
 21
214.63
  0
LINE
  8
0
 10
-90.4093
 20
214.63
 11
-90.4455
 21
214.876
  0
LINE
  8
0
 10
-90.4455
 20
214.876
 11
-90.4455
 21
215.124
  0
LINE
  8
0
 10
-90.4455
 20
215.124
 11
-90.4093
 21
215.37
  0
LINE
  8
0
 10
-90.4093
 20
215.37
 11
-90.3378
 21
215.607
  0
LINE
  8
0
 10
-90.3378
 20
215.607
 11
-90.2325
 21
215.832
  0
LINE
  8
0
 10
-90.2325
 20
215.832
 11
-90.0955
 21
216.039
  0
LINE
  8
0
 10
-90.0955
 20
216.039
 11
-89.9299
 21
216.224
  0
LINE
  8
0
 10
-89.9299
 20
216.224
 11
-89.7392
 21
216.383
  0
LINE
  8
0
 10
-89.7392
 20
216.383
 11
-89.5273
 21
216.512
  0
LINE
  8
0
 10
-89.5273
 20
216.512
 11
-89.2989
 21
216.609
  0
LINE
  8
0
 10
-89.2989
 20
216.609
 11
-89.0588
 21
216.672
  0
LINE
  8
0
 10
-89.0588
 20
216.672
 11
-88.8121
 21
216.699
  0
LINE
  8
0
 10
-88.8121
 20
216.699
 11
-88.5641
 21
216.69
  0
LINE
  8
0
 10
-88.5641
 20
216.69
 11
-88.32
 21
216.645
  0
LINE
  8
0
 10
-88.32
 20
216.645
 11
-88.0851
 21
216.565
  0
LINE
  8
0
 10
-88.0851
 20
216.565
 11
-87.8644
 21
216.451
  0
LINE
  8
0
 10
-87.8644
 20
216.451
 11
-87.6626
 21
216.307
  0
LINE
  8
0
 10
-87.6626
 20
216.307
 11
-87.4839
 21
216.134
  0
LINE
  8
0
 10
-87.4839
 20
216.134
 11
-87.3322
 21
215.938
  0
LINE
  8
0
 10
-87.3322
 20
215.938
 11
-87.2107
 21
215.722
  0
LINE
  8
0
 10
-87.2107
 20
215.722
 11
-87.1221
 21
215.49
  0
LINE
  8
0
 10
-87.1221
 20
215.49
 11
-87.0681
 21
215.248
  0
LINE
  8
0
 10
-87.0681
 20
215.248
 11
-87.05
 21
215
  0
LINE
  8
0
 10
-87.05
 20
215
 11
-87.0681
 21
214.752
  0
LINE
  8
0
 10
-87.0681
 20
214.752
 11
-87.1221
 21
214.51
  0
LINE
  8
0
 10
-87.1221
 20
214.51
 11
-87.2107
 21
214.278
  0
LINE
  8
0
 10
-87.2107
 20
214.278
 11
-87.3322
 21
214.062
  0
LINE
  8
0
 10
-87.3322
 20
214.062
 11
-87.4839
 21
213.866
  0
LINE
  8
0
 10
-87.4839
 20
213.866
 11
-87.6626
 21
213.693
  0
LINE
  8
0
 10
-87.6626
 20
213.693
 11
-87.8644
 21
213.549
  0
LINE
  8
0
 10
-87.8644
 20
213.549
 11
-88.0851
 21
213.435
  0
LINE
  8
0
 10
-88.0851
 20
213.435
 11
-88.32
 21
213.355
  0
LINE
  8
0
 10
-88.32
 20
213.355
 11
-88.5641
 21
213.31
  0
LINE
  8
0
 10
-88.5641
 20
213.31
 11
-88.8121
 21
213.301
  0
LINE
  8
0
 10
-88.8121
 20
213.301
 11
-89.0588
 21
213.328
  0
LINE
  8
0
 10
219.691
 20
170.828
 11
219.451
 21
170.891
  0
LINE
  8
0
 10
219.451
 20
170.891
 11
219.223
 21
170.988
  0
LINE
  8
0
 10
219.223
 20
170.988
 11
219.011
 21
171.117
  0
LINE
  8
0
 10
219.011
 20
171.117
 11
218.82
 21
171.276
  0
LINE
  8
0
 10
218.82
 20
171.276
 11
218.654
 21
171.461
  0
LINE
  8
0
 10
218.654
 20
171.461
 11
218.518
 21
171.668
  0
LINE
  8
0
 10
218.518
 20
171.668
 11
218.412
 21
171.893
  0
LINE
  8
0
 10
218.412
 20
171.893
 11
218.341
 21
172.13
  0
LINE
  8
0
 10
218.341
 20
172.13
 11
218.305
 21
172.376
  0
LINE
  8
0
 10
218.305
 20
172.376
 11
218.305
 21
172.624
  0
LINE
  8
0
 10
218.305
 20
172.624
 11
218.341
 21
172.87
  0
LINE
  8
0
 10
218.341
 20
172.87
 11
218.412
 21
173.107
  0
LINE
  8
0
 10
218.412
 20
173.107
 11
218.518
 21
173.332
  0
LINE
  8
0
 10
218.518
 20
173.332
 11
218.654
 21
173.539
  0
LINE
  8
0
 10
218.654
 20
173.539
 11
218.82
 21
173.724
  0
LINE
  8
0
 10
218.82
 20
173.724
 11
219.011
 21
173.883
  0
LINE
  8
0
 10
219.011
 20
173.883
 11
219.223
 21
174.012
  0
LINE
  8
0
 10
219.223
 20
174.012
 11
219.451
 21
174.109
  0
LINE
  8
0
 10
219.451
 20
174.109
 11
219.691
 21
174.172
  0
LINE
  8
0
 10
219.691
 20
174.172
 11
219.938
 21
174.199
  0
LINE
  8
0
 10
219.938
 20
174.199
 11
220.186
 21
174.19
  0
LINE
  8
0
 10
220.186
 20
174.19
 11
220.43
 21
174.145
  0
LINE
  8
0
 10
220.43
 20
174.145
 11
220.665
 21
174.065
  0
LINE
  8
0
 10
220.665
 20
174.065
 11
220.886
 21
173.951
  0
LINE
  8
0
 10
220.886
 20
173.951
 11
221.087
 21
173.807
  0
LINE
  8
0
 10
221.087
 20
173.807
 11
221.266
 21
173.634
  0
LINE
  8
0
 10
221.266
 20
173.634
 11
221.418
 21
173.438
  0
LINE
  8
0
 10
221.418
 20
173.438
 11
221.539
 21
173.222
  0
LINE
  8
0
 10
221.539
 20
173.222
 11
221.628
 21
172.99
  0
LINE
  8
0
 10
221.628
 20
172.99
 11
221.682
 21
172.748
  0
LINE
  8
0
 10
221.682
 20
172.748
 11
221.7
 21
172.5
  0
LINE
  8
0
 10
221.7
 20
172.5
 11
221.682
 21
172.252
  0
LINE
  8
0
 10
221.682
 20
172.252
 11
221.628
 21
172.01
  0
LINE
  8
0
 10
221.628
 20
172.01
 11
221.539
 21
171.778
  0
LINE
  8
0
 10
221.539
 20
171.778
 11
221.418
 21
171.562
  0
LINE
  8
0
 10
221.418
 20
171.562
 11
221.266
 21
171.366
  0
LINE
  8
0
 10
221.266
 20
171.366
 11
221.087
 21
171.193
  0
LINE
  8
0
 10
221.087
 20
171.193
 11
220.886
 21
171.049
  0
LINE
  8
0
 10
220.886
 20
171.049
 11
220.665
 21
170.935
  0
LINE
  8
0
 10
220.665
 20
170.935
 11
220.43
 21
170.855
  0
LINE
  8
0
 10
220.43
 20
170.855
 11
220.186
 21
170.81
  0
LINE
  8
0
 10
220.186
 20
170.81
 11
219.938
 21
170.801
  0
LINE
  8
0
 10
219.938
 20
170.801
 11
219.691
 21
170.828
  0
LINE
  8
0
 10
-220.186
 20
170.81
 11
-220.43
 21
170.855
  0
LINE
  8
0
 10
-220.43
 20
170.855
 11
-220.665
 21
170.935
  0
LINE
  8
0
 10
-220.665
 20
170.935
 11
-220.886
 21
171.049
  0
LINE
  8
0
 10
-220.886
 20
171.049
 11
-221.087
 21
171.193
  0
LINE
  8
0
 10
-221.087
 20
171.193
 11
-221.266
 21
171.366
  0
LINE
  8
0
 10
-221.266
 20
171.366
 11
-221.418
 21
171.562
  0
LINE
  8
0
 10
-221.418
 20
171.562
 11
-221.539
 21
171.778
  0
LINE
  8
0
 10
-221.539
 20
171.778
 11
-221.628
 21
172.01
  0
LINE
  8
0
 10
-221.628
 20
172.01
 11
-221.682
 21
172.252
  0
LINE
  8
0
 10
-221.682
 20
172.252
 11
-221.7
 21
172.5
  0
LINE
  8
0
 10
-221.7
 20
172.5
 11
-221.682
 21
172.748
  0
LINE
  8
0
 10
-221.682
 20
172.748
 11
-221.628
 21
172.99
  0
LINE
  8
0
 10
-221.628
 20
172.99
 11
-221.539
 21
173.222
  0
LINE
  8
0
 10
-221.539
 20
173.222
 11
-221.418
 21
173.438
  0
LINE
  8
0
 10
-221.418
 20
173.438
 11
-221.266
 21
173.634
  0
LINE
  8
0
 10
-221.266
 20
173.634
 11
-221.087
 21
173.807
  0
LINE
  8
0
 10
-221.087
 20
173.807
 11
-220.886
 21
173.951
  0
LINE
  8
0
 10
-220.886
 20
173.951
 11
-220.665
 21
174.065
  0
LINE
  8
0
 10
-220.665
 20
174.065
 11
-220.43
 21
174.145
  0
LINE
  8
0
 10
-220.43
 20
174.145
 11
-220.186
 21
174.19
  0
LINE
  8
0
 10
-220.186
 20
174.19
 11
-219.938
 21
174.199
  0
LINE
  8
0
 10
-219.938
 20
174.199
 11
-219.691
 21
174.172
  0
LINE
  8
0
 10
-219.691
 20
174.172
 11
-219.451
 21
174.109
  0
LINE
  8
0
 10
-219.451
 20
174.109
 11
-219.223
 21
174.012
  0
LINE
  8
0
 10
-219.223
 20
174.012
 11
-219.011
 21
173.883
  0
LINE
  8
0
 10
-219.011
 20
173.883
 11
-218.82
 21
173.724
  0
LINE
  8
0
 10
-218.82
 20
173.724
 11
-218.654
 21
173.539
  0
LINE
  8
0
 10
-218.654
 20
173.539
 11
-218.518
 21
173.332
  0
LINE
  8
0
 10
-218.518
 20
173.332
 11
-218.412
 21
173.107
  0
LINE
  8
0
 10
-218.412
 20
173.107
 11
-218.341
 21
172.87
  0
LINE
  8
0
 10
-218.341
 20
172.87
 11
-218.305
 21
172.624
  0
LINE
  8
0
 10
-218.305
 20
172.624
 11
-218.305
 21
172.376
  0
LINE
  8
0
 10
-218.305
 20
172.376
 11
-218.341
 21
172.13
  0
LINE
  8
0
 10
-218.341
 20
172.13
 11
-218.412
 21
171.893
  0
LINE
  8
0
 10
-218.412
 20
171.893
 11
-218.518
 21
171.668
  0
LINE
  8
0
 10
-218.518
 20
171.668
 11
-218.654
 21
171.461
  0
LINE
  8
0
 10
-218.654
 20
171.461
 11
-218.82
 21
171.276
  0
LINE
  8
0
 10
-218.82
 20
171.276
 11
-219.011
 21
171.117
  0
LINE
  8
0
 10
-219.011
 20
171.117
 11
-219.223
 21
170.988
  0
LINE
  8
0
 10
-219.223
 20
170.988
 11
-219.451
 21
170.891
  0
LINE
  8
0
 10
-219.451
 20
170.891
 11
-219.691
 21
170.828
  0
LINE
  8
0
 10
-219.691
 20
170.828
 11
-219.938
 21
170.801
  0
LINE
  8
0
 10
-219.938
 20
170.801
 11
-220.186
 21
170.81
  0
LINE
  8
0
 10
-220.186
 20
84.5602
 11
-220.43
 21
84.6053
  0
LINE
  8
0
 10
-220.43
 20
84.6053
 11
-220.665
 21
84.6854
  0
LINE
  8
0
 10
-220.665
 20
84.6854
 11
-220.886
 21
84.7989
  0
LINE
  8
0
 10
-220.886
 20
84.7989
 11
-221.087
 21
84.9433
  0
LINE
  8
0
 10
-221.087
 20
84.9433
 11
-221.266
 21
85.1156
  0
LINE
  8
0
 10
-221.266
 20
85.1156
 11
-221.418
 21
85.312
  0
LINE
  8
0
 10
-221.418
 20
85.312
 11
-221.539
 21
85.5284
  0
LINE
  8
0
 10
-221.539
 20
85.5284
 11
-221.628
 21
85.7602
  0
LINE
  8
0
 10
-221.628
 20
85.7602
 11
-221.682
 21
86.0025
  0
LINE
  8
0
 10
-221.682
 20
86.0025
 11
-221.7
 21
86.25
  0
LINE
  8
0
 10
-221.7
 20
86.25
 11
-221.682
 21
86.4975
  0
LINE
  8
0
 10
-221.682
 20
86.4975
 11
-221.628
 21
86.7398
  0
LINE
  8
0
 10
-221.628
 20
86.7398
 11
-221.539
 21
86.9716
  0
LINE
  8
0
 10
-221.539
 20
86.9716
 11
-221.418
 21
87.188
  0
LINE
  8
0
 10
-221.418
 20
87.188
 11
-221.266
 21
87.3844
  0
LINE
  8
0
 10
-221.266
 20
87.3844
 11
-221.087
 21
87.5567
  0
LINE
  8
0
 10
-221.087
 20
87.5567
 11
-220.886
 21
87.7011
  0
LINE
  8
0
 10
-220.886
 20
87.7011
 11
-220.665
 21
87.8146
  0
LINE
  8
0
 10
-220.665
 20
87.8146
 11
-220.43
 21
87.8947
  0
LINE
  8
0
 10
-220.43
 20
87.8947
 11
-220.186
 21
87.9398
  0
LINE
  8
0
 10
-220.186
 20
87.9398
 11
-219.938
 21
87.9489
  0
LINE
  8
0
 10
-219.938
 20
87.9489
 11
-219.691
 21
87.9217
  0
LINE
  8
0
 10
-219.691
 20
87.9217
 11
-219.451
 21
87.8589
  0
LINE
  8
0
 10
-219.451
 20
87.8589
 11
-219.223
 21
87.7619
  0
LINE
  8
0
 10
-219.223
 20
87.7619
 11
-219.011
 21
87.6326
  0
LINE
  8
0
 10
-219.011
 20
87.6326
 11
-218.82
 21
87.4738
  0
LINE
  8
0
 10
-218.82
 20
87.4738
 11
-218.654
 21
87.289
  0
LINE
  8
0
 10
-218.654
 20
87.289
 11
-218.518
 21
87.082
  0
LINE
  8
0
 10
-218.518
 20
87.082
 11
-218.412
 21
86.8573
  0
LINE
  8
0
 10
-218.412
 20
86.8573
 11
-218.341
 21
86.6196
  0
LINE
  8
0
 10
-218.341
 20
86.6196
 11
-218.305
 21
86.3741
  0
LINE
  8
0
 10
-218.305
 20
86.3741
 11
-218.305
 21
86.1259
  0
LINE
  8
0
 10
-218.305
 20
86.1259
 11
-218.341
 21
85.8804
  0
LINE
  8
0
 10
-218.341
 20
85.8804
 11
-218.412
 21
85.6427
  0
LINE
  8
0
 10
-218.412
 20
85.6427
 11
-218.518
 21
85.418
  0
LINE
  8
0
 10
-218.518
 20
85.418
 11
-218.654
 21
85.211
  0
LINE
  8
0
 10
-218.654
 20
85.211
 11
-218.82
 21
85.0262
  0
LINE
  8
0
 10
-218.82
 20
85.0262
 11
-219.011
 21
84.8674
  0
LINE
  8
0
 10
-219.011
 20
84.8674
 11
-219.223
 21
84.7381
  0
LINE
  8
0
 10
-219.223
 20
84.7381
 11
-219.451
 21
84.6411
  0
LINE
  8
0
 10
-219.451
 20
84.6411
 11
-219.691
 21
84.5783
  0
LINE
  8
0
 10
-219.691
 20
84.5783
 11
-219.938
 21
84.5511
  0
LINE
  8
0
 10
-219.938
 20
84.5511
 11
-220.186
 21
84.5602
  0
LINE
  8
0
 10
219.691
 20
84.5783
 11
219.451
 21
84.6411
  0
LINE
  8
0
 10
219.451
 20
84.6411
 11
219.223
 21
84.7381
  0
LINE
  8
0
 10
219.223
 20
84.7381
 11
219.011
 21
84.8674
  0
LINE
  8
0
 10
219.011
 20
84.8674
 11
218.82
 21
85.0262
  0
LINE
  8
0
 10
218.82
 20
85.0262
 11
218.654
 21
85.211
  0
LINE
  8
0
 10
218.654
 20
85.211
 11
218.518
 21
85.418
  0
LINE
  8
0
 10
218.518
 20
85.418
 11
218.412
 21
85.6427
  0
LINE
  8
0
 10
218.412
 20
85.6427
 11
218.341
 21
85.8804
  0
LINE
  8
0
 10
218.341
 20
85.8804
 11
218.305
 21
86.1259
  0
LINE
  8
0
 10
218.305
 20
86.1259
 11
218.305
 21
86.3741
  0
LINE
  8
0
 10
218.305
 20
86.3741
 11
218.341
 21
86.6196
  0
LINE
  8
0
 10
218.341
 20
86.6196
 11
218.412
 21
86.8573
  0
LINE
  8
0
 10
218.412
 20
86.8573
 11
218.518
 21
87.082
  0
LINE
  8
0
 10
218.518
 20
87.082
 11
218.654
 21
87.289
  0
LINE
  8
0
 10
218.654
 20
87.289
 11
218.82
 21
87.4738
  0
LINE
  8
0
 10
218.82
 20
87.4738
 11
219.011
 21
87.6326
  0
LINE
  8
0
 10
219.011
 20
87.6326
 11
219.223
 21
87.7619
  0
LINE
  8
0
 10
219.223
 20
87.7619
 11
219.451
 21
87.8589
  0
LINE
  8
0
 10
219.451
 20
87.8589
 11
219.691
 21
87.9217
  0
LINE
  8
0
 10
219.691
 20
87.9217
 11
219.938
 21
87.9489
  0
LINE
  8
0
 10
219.938
 20
87.9489
 11
220.186
 21
87.9398
  0
LINE
  8
0
 10
220.186
 20
87.9398
 11
220.43
 21
87.8947
  0
LINE
  8
0
 10
220.43
 20
87.8947
 11
220.665
 21
87.8146
  0
LINE
  8
0
 10
220.665
 20
87.8146
 11
220.886
 21
87.7011
  0
LINE
  8
0
 10
220.886
 20
87.7011
 11
221.087
 21
87.5567
  0
LINE
  8
0
 10
221.087
 20
87.5567
 11
221.266
 21
87.3844
  0
LINE
  8
0
 10
221.266
 20
87.3844
 11
221.418
 21
87.188
  0
LINE
  8
0
 10
221.418
 20
87.188
 11
221.539
 21
86.9716
  0
LINE
  8
0
 10
221.539
 20
86.9716
 11
221.628
 21
86.7398
  0
LINE
  8
0
 10
221.628
 20
86.7398
 11
221.682
 21
86.4975
  0
LINE
  8
0
 10
221.682
 20
86.4975
 11
221.7
 21
86.25
  0
LINE
  8
0
 10
221.7
 20
86.25
 11
221.682
 21
86.0025
  0
LINE
  8
0
 10
221.682
 20
86.0025
 11
221.628
 21
85.7602
  0
LINE
  8
0
 10
221.628
 20
85.7602
 11
221.539
 21
85.5284
  0
LINE
  8
0
 10
221.539
 20
85.5284
 11
221.418
 21
85.312
  0
LINE
  8
0
 10
221.418
 20
85.312
 11
221.266
 21
85.1156
  0
LINE
  8
0
 10
221.266
 20
85.1156
 11
221.087
 21
84.9433
  0
LINE
  8
0
 10
221.087
 20
84.9433
 11
220.886
 21
84.7989
  0
LINE
  8
0
 10
220.886
 20
84.7989
 11
220.665
 21
84.6854
  0
LINE
  8
0
 10
220.665
 20
84.6854
 11
220.43
 21
84.6053
  0
LINE
  8
0
 10
220.43
 20
84.6053
 11
220.186
 21
84.5602
  0
LINE
  8
0
 10
220.186
 20
84.5602
 11
219.938
 21
84.5511
  0
LINE
  8
0
 10
219.938
 20
84.5511
 11
219.691
 21
84.5783
  0
LINE
  8
0
 10
-220.186
 20
-1.68979
 11
-220.43
 21
-1.64471
  0
LINE
  8
0
 10
-220.43
 20
-1.64471
 11
-220.665
 21
-1.56458
  0
LINE
  8
0
 10
-220.665
 20
-1.56458
 11
-220.886
 21
-1.4511
  0
LINE
  8
0
 10
-220.886
 20
-1.4511
 11
-221.087
 21
-1.30669
  0
LINE
  8
0
 10
-221.087
 20
-1.30669
 11
-221.266
 21
-1.13443
  0
LINE
  8
0
 10
-221.266
 20
-1.13443
 11
-221.418
 21
-0.938004
  0
LINE
  8
0
 10
-221.418
 20
-0.938004
 11
-221.539
 21
-0.721573
  0
LINE
  8
0
 10
-221.539
 20
-0.721573
 11
-221.628
 21
-0.489761
  0
LINE
  8
0
 10
-221.628
 20
-0.489761
 11
-221.682
 21
-0.247513
  0
LINE
  8
0
 10
-221.682
 20
-0.247513
 11
-221.7
 21
0
  0
LINE
  8
0
 10
-221.7
 20
0
 11
-221.682
 21
0.247513
  0
LINE
  8
0
 10
-221.682
 20
0.247513
 11
-221.628
 21
0.489761
  0
LINE
  8
0
 10
-221.628
 20
0.489761
 11
-221.539
 21
0.721573
  0
LINE
  8
0
 10
-221.539
 20
0.721573
 11
-221.418
 21
0.938004
  0
LINE
  8
0
 10
-221.418
 20
0.938004
 11
-221.266
 21
1.13443
  0
LINE
  8
0
 10
-221.266
 20
1.13443
 11
-221.087
 21
1.30669
  0
LINE
  8
0
 10
-221.087
 20
1.30669
 11
-220.886
 21
1.4511
  0
LINE
  8
0
 10
-220.886
 20
1.4511
 11
-220.665
 21
1.56458
  0
LINE
  8
0
 10
-220.665
 20
1.56458
 11
-220.43
 21
1.64471
  0
LINE
  8
0
 10
-220.43
 20
1.64471
 11
-220.186
 21
1.68979
  0
LINE
  8
0
 10
-220.186
 20
1.68979
 11
-219.938
 21
1.69885
  0
LINE
  8
0
 10
-219.938
 20
1.69885
 11
-219.691
 21
1.67171
  0
LINE
  8
0
 10
-219.691
 20
1.67171
 11
-219.451
 21
1.60893
  0
LINE
  8
0
 10
-219.451
 20
1.60893
 11
-219.223
 21
1.51187
  0
LINE
  8
0
 10
-219.223
 20
1.51187
 11
-219.011
 21
1.38258
  0
LINE
  8
0
 10
-219.011
 20
1.38258
 11
-218.82
 21
1.22383
  0
LINE
  8
0
 10
-218.82
 20
1.22383
 11
-218.654
 21
1.03899
  0
LINE
  8
0
 10
-218.654
 20
1.03899
 11
-218.518
 21
0.832001
  0
LINE
  8
0
 10
-218.518
 20
0.832001
 11
-218.412
 21
0.607285
  0
LINE
  8
0
 10
-218.412
 20
0.607285
 11
-218.341
 21
0.369629
  0
LINE
  8
0
 10
-218.341
 20
0.369629
 11
-218.305
 21
0.124084
  0
LINE
  8
0
 10
-218.305
 20
0.124084
 11
-218.305
 21
-0.124084
  0
LINE
  8
0
 10
-218.305
 20
-0.124084
 11
-218.341
 21
-0.369629
  0
LINE
  8
0
 10
-218.341
 20
-0.369629
 11
-218.412
 21
-0.607285
  0
LINE
  8
0
 10
-218.412
 20
-0.607285
 11
-218.518
 21
-0.832001
  0
LINE
  8
0
 10
-218.518
 20
-0.832001
 11
-218.654
 21
-1.03899
  0
LINE
  8
0
 10
-218.654
 20
-1.03899
 11
-218.82
 21
-1.22383
  0
LINE
  8
0
 10
-218.82
 20
-1.22383
 11
-219.011
 21
-1.38258
  0
LINE
  8
0
 10
-219.011
 20
-1.38258
 11
-219.223
 21
-1.51187
  0
LINE
  8
0
 10
-219.223
 20
-1.51187
 11
-219.451
 21
-1.60893
  0
LINE
  8
0
 10
-219.451
 20
-1.60893
 11
-219.691
 21
-1.67171
  0
LINE
  8
0
 10
-219.691
 20
-1.67171
 11
-219.938
 21
-1.69885
  0
LINE
  8
0
 10
-219.938
 20
-1.69885
 11
-220.186
 21
-1.68979
  0
LINE
  8
0
 10
219.691
 20
-1.67171
 11
219.451
 21
-1.60893
  0
LINE
  8
0
 10
219.451
 20
-1.60893
 11
219.223
 21
-1.51187
  0
LINE
  8
0
 10
219.223
 20
-1.51187
 11
219.011
 21
-1.38258
  0
LINE
  8
0
 10
219.011
 20
-1.38258
 11
218.82
 21
-1.22383
  0
LINE
  8
0
 10
218.82
 20
-1.22383
 11
218.654
 21
-1.03899
  0
LINE
  8
0
 10
218.654
 20
-1.03899
 11
218.518
 21
-0.832001
  0
LINE
  8
0
 10
218.518
 20
-0.832001
 11
218.412
 21
-0.607285
  0
LINE
  8
0
 10
218.412
 20
-0.607285
 11
218.341
 21
-0.369629
  0
LINE
  8
0
 10
218.341
 20
-0.369629
 11
218.305
 21
-0.124084
  0
LINE
  8
0
 10
218.305
 20
-0.124084
 11
218.305
 21
0.124084
  0
LINE
  8
0
 10
218.305
 20
0.124084
 11
218.341
 21
0.369629
  0
LINE
  8
0
 10
218.341
 20
0.369629
 11
218.412
 21
0.607285
  0
LINE
  8
0
 10
218.412
 20
0.607285
 11
218.518
 21
0.832001
  0
LINE
  8
0
 10
218.518
 20
0.832001
 11
218.654
 21
1.03899
  0
LINE
  8
0
 10
218.654
 20
1.03899
 11
218.82
 21
1.22383
  0
LINE
  8
0
 10
218.82
 20
1.22383
 11
219.011
 21
1.38258
  0
LINE
  8
0
 10
219.011
 20
1.38258
 11
219.223
 21
1.51187
  0
LINE
  8
0
 10
219.223
 20
1.51187
 11
219.451
 21
1.60893
  0
LINE
  8
0
 10
219.451
 20
1.60893
 11
219.691
 21
1.67171
  0
LINE
  8
0
 10
219.691
 20
1.67171
 11
219.938
 21
1.69885
  0
LINE
  8
0
 10
219.938
 20
1.69885
 11
220.186
 21
1.68979
  0
LINE
  8
0
 10
220.186
 20
1.68979
 11
220.43
 21
1.64471
  0
LINE
  8
0
 10
220.43
 20
1.64471
 11
220.665
 21
1.56458
  0
LINE
  8
0
 10
220.665
 20
1.56458
 11
220.886
 21
1.4511
  0
LINE
  8
0
 10
220.886
 20
1.4511
 11
221.087
 21
1.30669
  0
LINE
  8
0
 10
221.087
 20
1.30669
 11
221.266
 21
1.13443
  0
LINE
  8
0
 10
221.266
 20
1.13443
 11
221.418
 21
0.938004
  0
LINE
  8
0
 10
221.418
 20
0.938004
 11
221.539
 21
0.721573
  0
LINE
  8
0
 10
221.539
 20
0.721573
 11
221.628
 21
0.489761
  0
LINE
  8
0
 10
221.628
 20
0.489761
 11
221.682
 21
0.247513
  0
LINE
  8
0
 10
221.682
 20
0.247513
 11
221.7
 21
0
  0
LINE
  8
0
 10
221.7
 20
0
 11
221.682
 21
-0.247513
  0
LINE
  8
0
 10
221.682
 20
-0.247513
 11
221.628
 21
-0.489761
  0
LINE
  8
0
 10
221.628
 20
-0.489761
 11
221.539
 21
-0.721573
  0
LINE
  8
0
 10
221.539
 20
-0.721573
 11
221.418
 21
-0.938004
  0
LINE
  8
0
 10
221.418
 20
-0.938004
 11
221.266
 21
-1.13443
  0
LINE
  8
0
 10
221.266
 20
-1.13443
 11
221.087
 21
-1.30669
  0
LINE
  8
0
 10
221.087
 20
-1.30669
 11
220.886
 21
-1.4511
  0
LINE
  8
0
 10
220.886
 20
-1.4511
 11
220.665
 21
-1.56458
  0
LINE
  8
0
 10
220.665
 20
-1.56458
 11
220.43
 21
-1.64471
  0
LINE
  8
0
 10
220.43
 20
-1.64471
 11
220.186
 21
-1.68979
  0
LINE
  8
0
 10
220.186
 20
-1.68979
 11
219.938
 21
-1.69885
  0
LINE
  8
0
 10
219.938
 20
-1.69885
 11
219.691
 21
-1.67171
  0
LINE
  8
0
 10
219.691
 20
-87.9217
 11
219.451
 21
-87.8589
  0
LINE
  8
0
 10
219.451
 20
-87.8589
 11
219.223
 21
-87.7619
  0
LINE
  8
0
 10
219.223
 20
-87.7619
 11
219.011
 21
-87.6326
  0
LINE
  8
0
 10
219.011
 20
-87.6326
 11
218.82
 21
-87.4738
  0
LINE
  8
0
 10
218.82
 20
-87.4738
 11
218.654
 21
-87.289
  0
LINE
  8
0
 10
218.654
 20
-87.289
 11
218.518
 21
-87.082
  0
LINE
  8
0
 10
218.518
 20
-87.082
 11
218.412
 21
-86.8573
  0
LINE
  8
0
 10
218.412
 20
-86.8573
 11
218.341
 21
-86.6196
  0
LINE
  8
0
 10
218.341
 20
-86.6196
 11
218.305
 21
-86.3741
  0
LINE
  8
0
 10
218.305
 20
-86.3741
 11
218.305
 21
-86.1259
  0
LINE
  8
0
 10
218.305
 20
-86.1259
 11
218.341
 21
-85.8804
  0
LINE
  8
0
 10
218.341
 20
-85.8804
 11
218.412
 21
-85.6427
  0
LINE
  8
0
 10
218.412
 20
-85.6427
 11
218.518
 21
-85.418
  0
LINE
  8
0
 10
218.518
 20
-85.418
 11
218.654
 21
-85.211
  0
LINE
  8
0
 10
218.654
 20
-85.211
 11
218.82
 21
-85.0262
  0
LINE
  8
0
 10
218.82
 20
-85.0262
 11
219.011
 21
-84.8674
  0
LINE
  8
0
 10
219.011
 20
-84.8674
 11
219.223
 21
-84.7381
  0
LINE
  8
0
 10
219.223
 20
-84.7381
 11
219.451
 21
-84.6411
  0
LINE
  8
0
 10
219.451
 20
-84.6411
 11
219.691
 21
-84.5783
  0
LINE
  8
0
 10
219.691
 20
-84.5783
 11
219.938
 21
-84.5511
  0
LINE
  8
0
 10
219.938
 20
-84.5511
 11
220.186
 21
-84.5602
  0
LINE
  8
0
 10
220.186
 20
-84.5602
 11
220.43
 21
-84.6053
  0
LINE
  8
0
 10
220.43
 20
-84.6053
 11
220.665
 21
-84.6854
  0
LINE
  8
0
 10
220.665
 20
-84.6854
 11
220.886
 21
-84.7989
  0
LINE
  8
0
 10
220.886
 20
-84.7989
 11
221.087
 21
-84.9433
  0
LINE
  8
0
 10
221.087
 20
-84.9433
 11
221.266
 21
-85.1156
  0
LINE
  8
0
 10
221.266
 20
-85.1156
 11
221.418
 21
-85.312
  0
LINE
  8
0
 10
221.418
 20
-85.312
 11
221.539
 21
-85.5284
  0
LINE
  8
0
 10
221.539
 20
-85.5284
 11
221.628
 21
-85.7602
  0
LINE
  8
0
 10
221.628
 20
-85.7602
 11
221.682
 21
-86.0025
  0
LINE
  8
0
 10
221.682
 20
-86.0025
 11
221.7
 21
-86.25
  0
LINE
  8
0
 10
221.7
 20
-86.25
 11
221.682
 21
-86.4975
  0
LINE
  8
0
 10
221.682
 20
-86.4975
 11
221.628
 21
-86.7398
  0
LINE
  8
0
 10
221.628
 20
-86.7398
 11
221.539
 21
-86.9716
  0
LINE
  8
0
 10
221.539
 20
-86.9716
 11
221.418
 21
-87.188
  0
LINE
  8
0
 10
221.418
 20
-87.188
 11
221.266
 21
-87.3844
  0
LINE
  8
0
 10
221.266
 20
-87.3844
 11
221.087
 21
-87.5567
  0
LINE
  8
0
 10
221.087
 20
-87.5567
 11
220.886
 21
-87.7011
  0
LINE
  8
0
 10
220.886
 20
-87.7011
 11
220.665
 21
-87.8146
  0
LINE
  8
0
 10
220.665
 20
-87.8146
 11
220.43
 21
-87.8947
  0
LINE
  8
0
 10
220.43
 20
-87.8947
 11
220.186
 21
-87.9398
  0
LINE
  8
0
 10
220.186
 20
-87.9398
 11
219.938
 21
-87.9489
  0
LINE
  8
0
 10
219.938
 20
-87.9489
 11
219.691
 21
-87.9217
  0
LINE
  8
0
 10
-220.186
 20
-87.9398
 11
-220.43
 21
-87.8947
  0
LINE
  8
0
 10
-220.43
 20
-87.8947
 11
-220.665
 21
-87.8146
  0
LINE
  8
0
 10
-220.665
 20
-87.8146
 11
-220.886
 21
-87.7011
  0
LINE
  8
0
 10
-220.886
 20
-87.7011
 11
-221.087
 21
-87.5567
  0
LINE
  8
0
 10
-221.087
 20
-87.5567
 11
-221.266
 21
-87.3844
  0
LINE
  8
0
 10
-221.266
 20
-87.3844
 11
-221.418
 21
-87.188
  0
LINE
  8
0
 10
-221.418
 20
-87.188
 11
-221.539
 21
-86.9716
  0
LINE
  8
0
 10
-221.539
 20
-86.9716
 11
-221.628
 21
-86.7398
  0
LINE
  8
0
 10
-221.628
 20
-86.7398
 11
-221.682
 21
-86.4975
  0
LINE
  8
0
 10
-221.682
 20
-86.4975
 11
-221.7
 21
-86.25
  0
LINE
  8
0
 10
-221.7
 20
-86.25
 11
-221.682
 21
-86.0025
  0
LINE
  8
0
 10
-221.682
 20
-86.0025
 11
-221.628
 21
-85.7602
  0
LINE
  8
0
 10
-221.628
 20
-85.7602
 11
-221.539
 21
-85.5284
  0
LINE
  8
0
 10
-221.539
 20
-85.5284
 11
-221.418
 21
-85.312
  0
LINE
  8
0
 10
-221.418
 20
-85.312
 11
-221.266
 21
-85.1156
  0
LINE
  8
0
 10
-221.266
 20
-85.1156
 11
-221.087
 21
-84.9433
  0
LINE
  8
0
 10
-221.087
 20
-84.9433
 11
-220.886
 21
-84.7989
  0
LINE
  8
0
 10
-220.886
 20
-84.7989
 11
-220.665
 21
-84.6854
  0
LINE
  8
0
 10
-220.665
 20
-84.6854
 11
-220.43
 21
-84.6053
  0
LINE
  8
0
 10
-220.43
 20
-84.6053
 11
-220.186
 21
-84.5602
  0
LINE
  8
0
 10
-220.186
 20
-84.5602
 11
-219.938
 21
-84.5511
  0
LINE
  8
0
 10
-219.938
 20
-84.5511
 11
-219.691
 21
-84.5783
  0
LINE
  8
0
 10
-219.691
 20
-84.5783
 11
-219.451
 21
-84.6411
  0
LINE
  8
0
 10
-219.451
 20
-84.6411
 11
-219.223
 21
-84.7381
  0
LINE
  8
0
 10
-219.223
 20
-84.7381
 11
-219.011
 21
-84.8674
  0
LINE
  8
0
 10
-219.011
 20
-84.8674
 11
-218.82
 21
-85.0262
  0
LINE
  8
0
 10
-218.82
 20
-85.0262
 11
-218.654
 21
-85.211
  0
LINE
  8
0
 10
-218.654
 20
-85.211
 11
-218.518
 21
-85.418
  0
LINE
  8
0
 10
-218.518
 20
-85.418
 11
-218.412
 21
-85.6427
  0
LINE
  8
0
 10
-218.412
 20
-85.6427
 11
-218.341
 21
-85.8804
  0
LINE
  8
0
 10
-218.341
 20
-85.8804
 11
-218.305
 21
-86.1259
  0
LINE
  8
0
 10
-218.305
 20
-86.1259
 11
-218.305
 21
-86.3741
  0
LINE
  8
0
 10
-218.305
 20
-86.3741
 11
-218.341
 21
-86.6196
  0
LINE
  8
0
 10
-218.341
 20
-86.6196
 11
-218.412
 21
-86.8573
  0
LINE
  8
0
 10
-218.412
 20
-86.8573
 11
-218.518
 21
-87.082
  0
LINE
  8
0
 10
-218.518
 20
-87.082
 11
-218.654
 21
-87.289
  0
LINE
  8
0
 10
-218.654
 20
-87.289
 11
-218.82
 21
-87.4738
  0
LINE
  8
0
 10
-218.82
 20
-87.4738
 11
-219.011
 21
-87.6326
  0
LINE
  8
0
 10
-219.011
 20
-87.6326
 11
-219.223
 21
-87.7619
  0
LINE
  8
0
 10
-219.223
 20
-87.7619
 11
-219.451
 21
-87.8589
  0
LINE
  8
0
 10
-219.451
 20
-87.8589
 11
-219.691
 21
-87.9217
  0
LINE
  8
0
 10
-219.691
 20
-87.9217
 11
-219.938
 21
-87.9489
  0
LINE
  8
0
 10
-219.938
 20
-87.9489
 11
-220.186
 21
-87.9398
  0
LINE
  8
0
 10
219.691
 20
-174.172
 11
219.451
 21
-174.109
  0
LINE
  8
0
 10
219.451
 20
-174.109
 11
219.223
 21
-174.012
  0
LINE
  8
0
 10
219.223
 20
-174.012
 11
219.011
 21
-173.883
  0
LINE
  8
0
 10
219.011
 20
-173.883
 11
218.82
 21
-173.724
  0
LINE
  8
0
 10
218.82
 20
-173.724
 11
218.654
 21
-173.539
  0
LINE
  8
0
 10
218.654
 20
-173.539
 11
218.518
 21
-173.332
  0
LINE
  8
0
 10
218.518
 20
-173.332
 11
218.412
 21
-173.107
  0
LINE
  8
0
 10
218.412
 20
-173.107
 11
218.341
 21
-172.87
  0
LINE
  8
0
 10
218.341
 20
-172.87
 11
218.305
 21
-172.624
  0
LINE
  8
0
 10
218.305
 20
-172.624
 11
218.305
 21
-172.376
  0
LINE
  8
0
 10
218.305
 20
-172.376
 11
218.341
 21
-172.13
  0
LINE
  8
0
 10
218.341
 20
-172.13
 11
218.412
 21
-171.893
  0
LINE
  8
0
 10
218.412
 20
-171.893
 11
218.518
 21
-171.668
  0
LINE
  8
0
 10
218.518
 20
-171.668
 11
218.654
 21
-171.461
  0
LINE
  8
0
 10
218.654
 20
-171.461
 11
218.82
 21
-171.276
  0
LINE
  8
0
 10
218.82
 20
-171.276
 11
219.011
 21
-171.117
  0
LINE
  8
0
 10
219.011
 20
-171.117
 11
219.223
 21
-170.988
  0
LINE
  8
0
 10
219.223
 20
-170.988
 11
219.451
 21
-170.891
  0
LINE
  8
0
 10
219.451
 20
-170.891
 11
219.691
 21
-170.828
  0
LINE
  8
0
 10
219.691
 20
-170.828
 11
219.938
 21
-170.801
  0
LINE
  8
0
 10
219.938
 20
-170.801
 11
220.186
 21
-170.81
  0
LINE
  8
0
 10
220.186
 20
-170.81
 11
220.43
 21
-170.855
  0
LINE
  8
0
 10
220.43
 20
-170.855
 11
220.665
 21
-170.935
  0
LINE
  8
0
 10
220.665
 20
-170.935
 11
220.886
 21
-171.049
  0
LINE
  8
0
 10
220.886
 20
-171.049
 11
221.087
 21
-171.193
  0
LINE
  8
0
 10
221.087
 20
-171.193
 11
221.266
 21
-171.366
  0
LINE
  8
0
 10
221.266
 20
-171.366
 11
221.418
 21
-171.562
  0
LINE
  8
0
 10
221.418
 20
-171.562
 11
221.539
 21
-171.778
  0
LINE
  8
0
 10
221.539
 20
-171.778
 11
221.628
 21
-172.01
  0
LINE
  8
0
 10
221.628
 20
-172.01
 11
221.682
 21
-172.252
  0
LINE
  8
0
 10
221.682
 20
-172.252
 11
221.7
 21
-172.5
  0
LINE
  8
0
 10
221.7
 20
-172.5
 11
221.682
 21
-172.748
  0
LINE
  8
0
 10
221.682
 20
-172.748
 11
221.628
 21
-172.99
  0
LINE
  8
0
 10
221.628
 20
-172.99
 11
221.539
 21
-173.222
  0
LINE
  8
0
 10
221.539
 20
-173.222
 11
221.418
 21
-173.438
  0
LINE
  8
0
 10
221.418
 20
-173.438
 11
221.266
 21
-173.634
  0
LINE
  8
0
 10
221.266
 20
-173.634
 11
221.087
 21
-173.807
  0
LINE
  8
0
 10
221.087
 20
-173.807
 11
220.886
 21
-173.951
  0
LINE
  8
0
 10
220.886
 20
-173.951
 11
220.665
 21
-174.065
  0
LINE
  8
0
 10
220.665
 20
-174.065
 11
220.43
 21
-174.145
  0
LINE
  8
0
 10
220.43
 20
-174.145
 11
220.186
 21
-174.19
  0
LINE
  8
0
 10
220.186
 20
-174.19
 11
219.938
 21
-174.199
  0
LINE
  8
0
 10
219.938
 20
-174.199
 11
219.691
 21
-174.172
  0
LINE
  8
0
 10
-220.186
 20
-174.19
 11
-220.43
 21
-174.145
  0
LINE
  8
0
 10
-220.43
 20
-174.145
 11
-220.665
 21
-174.065
  0
LINE
  8
0
 10
-220.665
 20
-174.065
 11
-220.886
 21
-173.951
  0
LINE
  8
0
 10
-220.886
 20
-173.951
 11
-221.087
 21
-173.807
  0
LINE
  8
0
 10
-221.087
 20
-173.807
 11
-221.266
 21
-173.634
  0
LINE
  8
0
 10
-221.266
 20
-173.634
 11
-221.418
 21
-173.438
  0
LINE
  8
0
 10
-221.418
 20
-173.438
 11
-221.539
 21
-173.222
  0
LINE
  8
0
 10
-221.539
 20
-173.222
 11
-221.628
 21
-172.99
  0
LINE
  8
0
 10
-221.628
 20
-172.99
 11
-221.682
 21
-172.748
  0
LINE
  8
0
 10
-221.682
 20
-172.748
 11
-221.7
 21
-172.5
  0
LINE
  8
0
 10
-221.7
 20
-172.5
 11
-221.682
 21
-172.252
  0
LINE
  8
0
 10
-221.682
 20
-172.252
 11
-221.628
 21
-172.01
  0
LINE
  8
0
 10
-221.628
 20
-172.01
 11
-221.539
 21
-171.778
  0
LINE
  8
0
 10
-221.539
 20
-171.778
 11
-221.418
 21
-171.562
  0
LINE
  8
0
 10
-221.418
 20
-171.562
 11
-221.266
 21
-171.366
  0
LINE
  8
0
 10
-221.266
 20
-171.366
 11
-221.087
 21
-171.193
  0
LINE
  8
0
 10
-221.087
 20
-171.193
 11
-220.886
 21
-171.049
  0
LINE
  8
0
 10
-220.886
 20
-171.049
 11
-220.665
 21
-170.935
  0
LINE
  8
0
 10
-220.665
 20
-170.935
 11
-220.43
 21
-170.855
  0
LINE
  8
0
 10
-220.43
 20
-170.855
 11
-220.186
 21
-170.81
  0
LINE
  8
0
 10
-220.186
 20
-170.81
 11
-219.938
 21
-170.801
  0
LINE
  8
0
 10
-219.938
 20
-170.801
 11
-219.691
 21
-170.828
  0
LINE
  8
0
 10
-219.691
 20
-170.828
 11
-219.451
 21
-170.891
  0
LINE
  8
0
 10
-219.451
 20
-170.891
 11
-219.223
 21
-170.988
  0
LINE
  8
0
 10
-219.223
 20
-170.988
 11
-219.011
 21
-171.117
  0
LINE
  8
0
 10
-219.011
 20
-171.117
 11
-218.82
 21
-171.276
  0
LINE
  8
0
 10
-218.82
 20
-171.276
 11
-218.654
 21
-171.461
  0
LINE
  8
0
 10
-218.654
 20
-171.461
 11
-218.518
 21
-171.668
  0
LINE
  8
0
 10
-218.518
 20
-171.668
 11
-218.412
 21
-171.893
  0
LINE
  8
0
 10
-218.412
 20
-171.893
 11
-218.341
 21
-172.13
  0
LINE
  8
0
 10
-218.341
 20
-172.13
 11
-218.305
 21
-172.376
  0
LINE
  8
0
 10
-218.305
 20
-172.376
 11
-218.305
 21
-172.624
  0
LINE
  8
0
 10
-218.305
 20
-172.624
 11
-218.341
 21
-172.87
  0
LINE
  8
0
 10
-218.341
 20
-172.87
 11
-218.412
 21
-173.107
  0
LINE
  8
0
 10
-218.412
 20
-173.107
 11
-218.518
 21
-173.332
  0
LINE
  8
0
 10
-218.518
 20
-173.332
 11
-218.654
 21
-173.539
  0
LINE
  8
0
 10
-218.654
 20
-173.539
 11
-218.82
 21
-173.724
  0
LINE
  8
0
 10
-218.82
 20
-173.724
 11
-219.011
 21
-173.883
  0
LINE
  8
0
 10
-219.011
 20
-173.883
 11
-219.223
 21
-174.012
  0
LINE
  8
0
 10
-219.223
 20
-174.012
 11
-219.451
 21
-174.109
  0
LINE
  8
0
 10
-219.451
 20
-174.109
 11
-219.691
 21
-174.172
  0
LINE
  8
0
 10
-219.691
 20
-174.172
 11
-219.938
 21
-174.199
  0
LINE
  8
0
 10
-219.938
 20
-174.199
 11
-220.186
 21
-174.19
  0
LINE
  8
0
 10
-220.392
 20
-218.729
 11
-220.78
 21
-218.668
  0
LINE
  8
0
 10
-220.78
 20
-218.668
 11
-221.159
 21
-218.566
  0
LINE
  8
0
 10
-221.159
 20
-218.566
 11
-221.525
 21
-218.426
  0
LINE
  8
0
 10
-221.525
 20
-218.426
 11
-221.875
 21
-218.248
  0
LINE
  8
0
 10
-221.875
 20
-218.248
 11
-222.204
 21
-218.034
  0
LINE
  8
0
 10
-222.204
 20
-218.034
 11
-222.509
 21
-217.787
  0
LINE
  8
0
 10
-222.509
 20
-217.787
 11
-222.787
 21
-217.509
  0
LINE
  8
0
 10
-222.787
 20
-217.509
 11
-223.034
 21
-217.204
  0
LINE
  8
0
 10
-223.034
 20
-217.204
 11
-223.248
 21
-216.875
  0
LINE
  8
0
 10
-223.248
 20
-216.875
 11
-223.426
 21
-216.525
  0
LINE
  8
0
 10
-223.426
 20
-216.525
 11
-223.566
 21
-216.159
  0
LINE
  8
0
 10
-223.566
 20
-216.159
 11
-223.668
 21
-215.78
  0
LINE
  8
0
 10
-223.668
 20
-215.78
 11
-223.729
 21
-215.392
  0
LINE
  8
0
 10
-223.729
 20
-215.392
 11
-223.75
 21
-215
  0
LINE
  8
0
 10
-223.75
 20
-215
 11
-223.729
 21
-214.608
  0
LINE
  8
0
 10
-223.729
 20
-214.608
 11
-223.668
 21
-214.22
  0
LINE
  8
0
 10
-223.668
 20
-214.22
 11
-223.566
 21
-213.841
  0
LINE
  8
0
 10
-223.566
 20
-213.841
 11
-223.426
 21
-213.475
  0
LINE
  8
0
 10
-223.426
 20
-213.475
 11
-223.248
 21
-213.125
  0
LINE
  8
0
 10
-223.248
 20
-213.125
 11
-223.034
 21
-212.796
  0
LINE
  8
0
 10
-223.034
 20
-212.796
 11
-222.787
 21
-212.491
  0
LINE
  8
0
 10
-222.787
 20
-212.491
 11
-222.509
 21
-212.213
  0
LINE
  8
0
 10
-222.509
 20
-212.213
 11
-222.204
 21
-211.966
  0
LINE
  8
0
 10
-222.204
 20
-211.966
 11
-221.875
 21
-211.752
  0
LINE
  8
0
 10
-221.875
 20
-211.752
 11
-221.525
 21
-211.574
  0
LINE
  8
0
 10
-221.525
 20
-211.574
 11
-221.159
 21
-211.434
  0
LINE
  8
0
 10
-221.159
 20
-211.434
 11
-220.78
 21
-211.332
  0
LINE
  8
0
 10
-220.78
 20
-211.332
 11
-220.392
 21
-211.271
  0
LINE
  8
0
 10
-220.392
 20
-211.271
 11
-220
 21
-211.25
  0
LINE
  8
0
 10
-220
 20
-211.25
 11
-219.608
 21
-211.271
  0
LINE
  8
0
 10
-219.608
 20
-211.271
 11
-219.22
 21
-211.332
  0
LINE
  8
0
 10
-219.22
 20
-211.332
 11
-218.841
 21
-211.434
  0
LINE
  8
0
 10
-218.841
 20
-211.434
 11
-218.475
 21
-211.574
  0
LINE
  8
0
 10
-218.475
 20
-211.574
 11
-218.125
 21
-211.752
  0
LINE
  8
0
 10
-218.125
 20
-211.752
 11
-217.796
 21
-211.966
  0
LINE
  8
0
 10
-217.796
 20
-211.966
 11
-217.491
 21
-212.213
  0
LINE
  8
0
 10
-217.491
 20
-212.213
 11
-217.213
 21
-212.491
  0
LINE
  8
0
 10
-217.213
 20
-212.491
 11
-216.966
 21
-212.796
  0
LINE
  8
0
 10
-216.966
 20
-212.796
 11
-216.752
 21
-213.125
  0
LINE
  8
0
 10
-216.752
 20
-213.125
 11
-216.574
 21
-213.475
  0
LINE
  8
0
 10
-216.574
 20
-213.475
 11
-216.434
 21
-213.841
  0
LINE
  8
0
 10
-216.434
 20
-213.841
 11
-216.332
 21
-214.22
  0
LINE
  8
0
 10
-216.332
 20
-214.22
 11
-216.271
 21
-214.608
  0
LINE
  8
0
 10
-216.271
 20
-214.608
 11
-216.25
 21
-215
  0
LINE
  8
0
 10
-216.25
 20
-215
 11
-216.271
 21
-215.392
  0
LINE
  8
0
 10
-216.271
 20
-215.392
 11
-216.332
 21
-215.78
  0
LINE
  8
0
 10
-216.332
 20
-215.78
 11
-216.434
 21
-216.159
  0
LINE
  8
0
 10
-216.434
 20
-216.159
 11
-216.574
 21
-216.525
  0
LINE
  8
0
 10
-216.574
 20
-216.525
 11
-216.752
 21
-216.875
  0
LINE
  8
0
 10
-216.752
 20
-216.875
 11
-216.966
 21
-217.204
  0
LINE
  8
0
 10
-216.966
 20
-217.204
 11
-217.213
 21
-217.509
  0
LINE
  8
0
 10
-217.213
 20
-217.509
 11
-217.491
 21
-217.787
  0
LINE
  8
0
 10
-217.491
 20
-217.787
 11
-217.796
 21
-218.034
  0
LINE
  8
0
 10
-217.796
 20
-218.034
 11
-218.125
 21
-218.248
  0
LINE
  8
0
 10
-218.125
 20
-218.248
 11
-218.475
 21
-218.426
  0
LINE
  8
0
 10
-218.475
 20
-218.426
 11
-218.841
 21
-218.566
  0
LINE
  8
0
 10
-218.841
 20
-218.566
 11
-219.22
 21
-218.668
  0
LINE
  8
0
 10
-219.22
 20
-218.668
 11
-219.608
 21
-218.729
  0
LINE
  8
0
 10
-219.608
 20
-218.729
 11
-220
 21
-218.75
  0
LINE
  8
0
 10
-220
 20
-218.75
 11
-220.392
 21
-218.729
  0
LINE
  8
0
 10
219.608
 20
-218.729
 11
219.22
 21
-218.668
  0
LINE
  8
0
 10
219.22
 20
-218.668
 11
218.841
 21
-218.566
  0
LINE
  8
0
 10
218.841
 20
-218.566
 11
218.475
 21
-218.426
  0
LINE
  8
0
 10
218.475
 20
-218.426
 11
218.125
 21
-218.248
  0
LINE
  8
0
 10
218.125
 20
-218.248
 11
217.796
 21
-218.034
  0
LINE
  8
0
 10
217.796
 20
-218.034
 11
217.491
 21
-217.787
  0
LINE
  8
0
 10
217.491
 20
-217.787
 11
217.213
 21
-217.509
  0
LINE
  8
0
 10
217.213
 20
-217.509
 11
216.966
 21
-217.204
  0
LINE
  8
0
 10
216.966
 20
-217.204
 11
216.752
 21
-216.875
  0
LINE
  8
0
 10
216.752
 20
-216.875
 11
216.574
 21
-216.525
  0
LINE
  8
0
 10
216.574
 20
-216.525
 11
216.434
 21
-216.159
  0
LINE
  8
0
 10
216.434
 20
-216.159
 11
216.332
 21
-215.78
  0
LINE
  8
0
 10
216.332
 20
-215.78
 11
216.271
 21
-215.392
  0
LINE
  8
0
 10
216.271
 20
-215.392
 11
216.25
 21
-215
  0
LINE
  8
0
 10
216.25
 20
-215
 11
216.271
 21
-214.608
  0
LINE
  8
0
 10
216.271
 20
-214.608
 11
216.332
 21
-214.22
  0
LINE
  8
0
 10
216.332
 20
-214.22
 11
216.434
 21
-213.841
  0
LINE
  8
0
 10
216.434
 20
-213.841
 11
216.574
 21
-213.475
  0
LINE
  8
0
 10
216.574
 20
-213.475
 11
216.752
 21
-213.125
  0
LINE
  8
0
 10
216.752
 20
-213.125
 11
216.966
 21
-212.796
  0
LINE
  8
0
 10
216.966
 20
-212.796
 11
217.213
 21
-212.491
  0
LINE
  8
0
 10
217.213
 20
-212.491
 11
217.491
 21
-212.213
  0
LINE
  8
0
 10
217.491
 20
-212.213
 11
217.796
 21
-211.966
  0
LINE
  8
0
 10
217.796
 20
-211.966
 11
218.125
 21
-211.752
  0
LINE
  8
0
 10
218.125
 20
-211.752
 11
218.475
 21
-211.574
  0
LINE
  8
0
 10
218.475
 20
-211.574
 11
218.841
 21
-211.434
  0
LINE
  8
0
 10
218.841
 20
-211.434
 11
219.22
 21
-211.332
  0
LINE
  8
0
 10
219.22
 20
-211.332
 11
219.608
 21
-211.271
  0
LINE
  8
0
 10
219.608
 20
-211.271
 11
220
 21
-211.25
  0
LINE
  8
0
 10
220
 20
-211.25
 11
220.392
 21
-211.271
  0
LINE
  8
0
 10
220.392
 20
-211.271
 11
220.78
 21
-211.332
  0
LINE
  8
0
 10
220.78
 20
-211.332
 11
221.159
 21
-211.434
  0
LINE
  8
0
 10
221.159
 20
-211.434
 11
221.525
 21
-211.574
  0
LINE
  8
0
 10
221.525
 20
-211.574
 11
221.875
 21
-211.752
  0
LINE
  8
0
 10
221.875
 20
-211.752
 11
222.204
 21
-211.966
  0
LINE
  8
0
 10
222.204
 20
-211.966
 11
222.509
 21
-212.213
  0
LINE
  8
0
 10
222.509
 20
-212.213
 11
222.787
 21
-212.491
  0
LINE
  8
0
 10
222.787
 20
-212.491
 11
223.034
 21
-212.796
  0
LINE
  8
0
 10
223.034
 20
-212.796
 11
223.248
 21
-213.125
  0
LINE
  8
0
 10
223.248
 20
-213.125
 11
223.426
 21
-213.475
  0
LINE
  8
0
 10
223.426
 20
-213.475
 11
223.566
 21
-213.841
  0
LINE
  8
0
 10
223.566
 20
-213.841
 11
223.668
 21
-214.22
  0
LINE
  8
0
 10
223.668
 20
-214.22
 11
223.729
 21
-214.608
  0
LINE
  8
0
 10
223.729
 20
-214.608
 11
223.75
 21
-215
  0
LINE
  8
0
 10
223.75
 20
-215
 11
223.729
 21
-215.392
  0
LINE
  8
0
 10
223.729
 20
-215.392
 11
223.668
 21
-215.78
  0
LINE
  8
0
 10
223.668
 20
-215.78
 11
223.566
 21
-216.159
  0
LINE
  8
0
 10
223.566
 20
-216.159
 11
223.426
 21
-216.525
  0
LINE
  8
0
 10
223.426
 20
-216.525
 11
223.248
 21
-216.875
  0
LINE
  8
0
 10
223.248
 20
-216.875
 11
223.034
 21
-217.204
  0
LINE
  8
0
 10
223.034
 20
-217.204
 11
222.787
 21
-217.509
  0
LINE
  8
0
 10
222.787
 20
-217.509
 11
222.509
 21
-217.787
  0
LINE
  8
0
 10
222.509
 20
-217.787
 11
222.204
 21
-218.034
  0
LINE
  8
0
 10
222.204
 20
-218.034
 11
221.875
 21
-218.248
  0
LINE
  8
0
 10
221.875
 20
-218.248
 11
221.525
 21
-218.426
  0
LINE
  8
0
 10
221.525
 20
-218.426
 11
221.159
 21
-218.566
  0
LINE
  8
0
 10
221.159
 20
-218.566
 11
220.78
 21
-218.668
  0
LINE
  8
0
 10
220.78
 20
-218.668
 11
220.392
 21
-218.729
  0
LINE
  8
0
 10
220.392
 20
-218.729
 11
220
 21
-218.75
  0
LINE
  8
0
 10
220
 20
-218.75
 11
219.608
 21
-218.729
  0
LINE
  8
0
 10
-177.809
 20
-216.672
 11
-178.049
 21
-216.609
  0
LINE
  8
0
 10
-178.049
 20
-216.609
 11
-178.277
 21
-216.512
  0
LINE
  8
0
 10
-178.277
 20
-216.512
 11
-178.489
 21
-216.383
  0
LINE
  8
0
 10
-178.489
 20
-216.383
 11
-178.68
 21
-216.224
  0
LINE
  8
0
 10
-178.68
 20
-216.224
 11
-178.846
 21
-216.039
  0
LINE
  8
0
 10
-178.846
 20
-216.039
 11
-178.982
 21
-215.832
  0
LINE
  8
0
 10
-178.982
 20
-215.832
 11
-179.088
 21
-215.607
  0
LINE
  8
0
 10
-179.088
 20
-215.607
 11
-179.159
 21
-215.37
  0
LINE
  8
0
 10
-179.159
 20
-215.37
 11
-179.195
 21
-215.124
  0
LINE
  8
0
 10
-179.195
 20
-215.124
 11
-179.195
 21
-214.876
  0
LINE
  8
0
 10
-179.195
 20
-214.876
 11
-179.159
 21
-214.63
  0
LINE
  8
0
 10
-179.159
 20
-214.63
 11
-179.088
 21
-214.393
  0
LINE
  8
0
 10
-179.088
 20
-214.393
 11
-178.982
 21
-214.168
  0
LINE
  8
0
 10
-178.982
 20
-214.168
 11
-178.846
 21
-213.961
  0
LINE
  8
0
 10
-178.846
 20
-213.961
 11
-178.68
 21
-213.776
  0
LINE
  8
0
 10
-178.68
 20
-213.776
 11
-178.489
 21
-213.617
  0
LINE
  8
0
 10
-178.489
 20
-213.617
 11
-178.277
 21
-213.488
  0
LINE
  8
0
 10
-178.277
 20
-213.488
 11
-178.049
 21
-213.391
  0
LINE
  8
0
 10
-178.049
 20
-213.391
 11
-177.809
 21
-213.328
  0
LINE
  8
0
 10
-177.809
 20
-213.328
 11
-177.562
 21
-213.301
  0
LINE
  8
0
 10
-177.562
 20
-213.301
 11
-177.314
 21
-213.31
  0
LINE
  8
0
 10
-177.314
 20
-213.31
 11
-177.07
 21
-213.355
  0
LINE
  8
0
 10
-177.07
 20
-213.355
 11
-176.835
 21
-213.435
  0
LINE
  8
0
 10
-176.835
 20
-213.435
 11
-176.614
 21
-213.549
  0
LINE
  8
0
 10
-176.614
 20
-213.549
 11
-176.413
 21
-213.693
  0
LINE
  8
0
 10
-176.413
 20
-213.693
 11
-176.234
 21
-213.866
  0
LINE
  8
0
 10
-176.234
 20
-213.866
 11
-176.082
 21
-214.062
  0
LINE
  8
0
 10
-176.082
 20
-214.062
 11
-175.961
 21
-214.278
  0
LINE
  8
0
 10
-175.961
 20
-214.278
 11
-175.872
 21
-214.51
  0
LINE
  8
0
 10
-175.872
 20
-214.51
 11
-175.818
 21
-214.752
  0
LINE
  8
0
 10
-175.818
 20
-214.752
 11
-175.8
 21
-215
  0
LINE
  8
0
 10
-175.8
 20
-215
 11
-175.818
 21
-215.248
  0
LINE
  8
0
 10
-175.818
 20
-215.248
 11
-175.872
 21
-215.49
  0
LINE
  8
0
 10
-175.872
 20
-215.49
 11
-175.961
 21
-215.722
  0
LINE
  8
0
 10
-175.961
 20
-215.722
 11
-176.082
 21
-215.938
  0
LINE
  8
0
 10
-176.082
 20
-215.938
 11
-176.234
 21
-216.134
  0
LINE
  8
0
 10
-176.234
 20
-216.134
 11
-176.413
 21
-216.307
  0
LINE
  8
0
 10
-176.413
 20
-216.307
 11
-176.614
 21
-216.451
  0
LINE
  8
0
 10
-176.614
 20
-216.451
 11
-176.835
 21
-216.565
  0
LINE
  8
0
 10
-176.835
 20
-216.565
 11
-177.07
 21
-216.645
  0
LINE
  8
0
 10
-177.07
 20
-216.645
 11
-177.314
 21
-216.69
  0
LINE
  8
0
 10
-177.314
 20
-216.69
 11
-177.562
 21
-216.699
  0
LINE
  8
0
 10
-177.562
 20
-216.699
 11
-177.809
 21
-216.672
  0
LINE
  8
0
 10
177.191
 20
-216.672
 11
176.951
 21
-216.609
  0
LINE
  8
0
 10
176.951
 20
-216.609
 11
176.723
 21
-216.512
  0
LINE
  8
0
 10
176.723
 20
-216.512
 11
176.511
 21
-216.383
  0
LINE
  8
0
 10
176.511
 20
-216.383
 11
176.32
 21
-216.224
  0
LINE
  8
0
 10
176.32
 20
-216.224
 11
176.154
 21
-216.039
  0
LINE
  8
0
 10
176.154
 20
-216.039
 11
176.018
 21
-215.832
  0
LINE
  8
0
 10
176.018
 20
-215.832
 11
175.912
 21
-215.607
  0
LINE
  8
0
 10
175.912
 20
-215.607
 11
175.841
 21
-215.37
  0
LINE
  8
0
 10
175.841
 20
-215.37
 11
175.805
 21
-215.124
  0
LINE
  8
0
 10
175.805
 20
-215.124
 11
175.805
 21
-214.876
  0
LINE
  8
0
 10
175.805
 20
-214.876
 11
175.841
 21
-214.63
  0
LINE
  8
0
 10
175.841
 20
-214.63
 11
175.912
 21
-214.393
  0
LINE
  8
0
 10
175.912
 20
-214.393
 11
176.018
 21
-214.168
  0
LINE
  8
0
 10
176.018
 20
-214.168
 11
176.154
 21
-213.961
  0
LINE
  8
0
 10
176.154
 20
-213.961
 11
176.32
 21
-213.776
  0
LINE
  8
0
 10
176.32
 20
-213.776
 11
176.511
 21
-213.617
  0
LINE
  8
0
 10
176.511
 20
-213.617
 11
176.723
 21
-213.488
  0
LINE
  8
0
 10
176.723
 20
-213.488
 11
176.951
 21
-213.391
  0
LINE
  8
0
 10
176.951
 20
-213.391
 11
177.191
 21
-213.328
  0
LINE
  8
0
 10
177.191
 20
-213.328
 11
177.438
 21
-213.301
  0
LINE
  8
0
 10
177.438
 20
-213.301
 11
177.686
 21
-213.31
  0
LINE
  8
0
 10
177.686
 20
-213.31
 11
177.93
 21
-213.355
  0
LINE
  8
0
 10
177.93
 20
-213.355
 11
178.165
 21
-213.435
  0
LINE
  8
0
 10
178.165
 20
-213.435
 11
178.386
 21
-213.549
  0
LINE
  8
0
 10
178.386
 20
-213.549
 11
178.587
 21
-213.693
  0
LINE
  8
0
 10
178.587
 20
-213.693
 11
178.766
 21
-213.866
  0
LINE
  8
0
 10
178.766
 20
-213.866
 11
178.918
 21
-214.062
  0
LINE
  8
0
 10
178.918
 20
-214.062
 11
179.039
 21
-214.278
  0
LINE
  8
0
 10
179.039
 20
-214.278
 11
179.128
 21
-214.51
  0
LINE
  8
0
 10
179.128
 20
-214.51
 11
179.182
 21
-214.752
  0
LINE
  8
0
 10
179.182
 20
-214.752
 11
179.2
 21
-215
  0
LINE
  8
0
 10
179.2
 20
-215
 11
179.182
 21
-215.248
  0
LINE
  8
0
 10
179.182
 20
-215.248
 11
179.128
 21
-215.49
  0
LINE
  8
0
 10
179.128
 20
-215.49
 11
179.039
 21
-215.722
  0
LINE
  8
0
 10
179.039
 20
-215.722
 11
178.918
 21
-215.938
  0
LINE
  8
0
 10
178.918
 20
-215.938
 11
178.766
 21
-216.134
  0
LINE
  8
0
 10
178.766
 20
-216.134
 11
178.587
 21
-216.307
  0
LINE
  8
0
 10
178.587
 20
-216.307
 11
178.386
 21
-216.451
  0
LINE
  8
0
 10
178.386
 20
-216.451
 11
178.165
 21
-216.565
  0
LINE
  8
0
 10
178.165
 20
-216.565
 11
177.93
 21
-216.645
  0
LINE
  8
0
 10
177.93
 20
-216.645
 11
177.686
 21
-216.69
  0
LINE
  8
0
 10
177.686
 20
-216.69
 11
177.438
 21
-216.699
  0
LINE
  8
0
 10
177.438
 20
-216.699
 11
177.191
 21
-216.672
  0
LINE
  8
0
 10
88.4412
 20
-216.672
 11
88.2011
 21
-216.609
  0
LINE
  8
0
 10
88.2011
 20
-216.609
 11
87.9727
 21
-216.512
  0
LINE
  8
0
 10
87.9727
 20
-216.512
 11
87.7608
 21
-216.383
  0
LINE
  8
0
 10
87.7608
 20
-216.383
 11
87.5701
 21
-216.224
  0
LINE
  8
0
 10
87.5701
 20
-216.224
 11
87.4044
 21
-216.039
  0
LINE
  8
0
 10
87.4044
 20
-216.039
 11
87.2675
 21
-215.832
  0
LINE
  8
0
 10
87.2675
 20
-215.832
 11
87.1622
 21
-215.607
  0
LINE
  8
0
 10
87.1622
 20
-215.607
 11
87.0907
 21
-215.37
  0
LINE
  8
0
 10
87.0907
 20
-215.37
 11
87.0545
 21
-215.124
  0
LINE
  8
0
 10
87.0545
 20
-215.124
 11
87.0545
 21
-214.876
  0
LINE
  8
0
 10
87.0545
 20
-214.876
 11
87.0907
 21
-214.63
  0
LINE
  8
0
 10
87.0907
 20
-214.63
 11
87.1622
 21
-214.393
  0
LINE
  8
0
 10
87.1622
 20
-214.393
 11
87.2675
 21
-214.168
  0
LINE
  8
0
 10
87.2675
 20
-214.168
 11
87.4044
 21
-213.961
  0
LINE
  8
0
 10
87.4044
 20
-213.961
 11
87.5701
 21
-213.776
  0
LINE
  8
0
 10
87.5701
 20
-213.776
 11
87.7608
 21
-213.617
  0
LINE
  8
0
 10
87.7608
 20
-213.617
 11
87.9727
 21
-213.488
  0
LINE
  8
0
 10
87.9727
 20
-213.488
 11
88.2011
 21
-213.391
  0
LINE
  8
0
 10
88.2011
 20
-213.391
 11
88.4412
 21
-213.328
  0
LINE
  8
0
 10
88.4412
 20
-213.328
 11
88.6879
 21
-213.301
  0
LINE
  8
0
 10
88.6879
 20
-213.301
 11
88.9359
 21
-213.31
  0
LINE
  8
0
 10
88.9359
 20
-213.31
 11
89.18
 21
-213.355
  0
LINE
  8
0
 10
89.18
 20
-213.355
 11
89.4149
 21
-213.435
  0
LINE
  8
0
 10
89.4149
 20
-213.435
 11
89.6356
 21
-213.549
  0
LINE
  8
0
 10
89.6356
 20
-213.549
 11
89.8374
 21
-213.693
  0
LINE
  8
0
 10
89.8374
 20
-213.693
 11
90.0161
 21
-213.866
  0
LINE
  8
0
 10
90.0161
 20
-213.866
 11
90.1678
 21
-214.062
  0
LINE
  8
0
 10
90.1678
 20
-214.062
 11
90.2893
 21
-214.278
  0
LINE
  8
0
 10
90.2893
 20
-214.278
 11
90.3779
 21
-214.51
  0
LINE
  8
0
 10
90.3779
 20
-214.51
 11
90.4319
 21
-214.752
  0
LINE
  8
0
 10
90.4319
 20
-214.752
 11
90.45
 21
-215
  0
LINE
  8
0
 10
90.45
 20
-215
 11
90.4319
 21
-215.248
  0
LINE
  8
0
 10
90.4319
 20
-215.248
 11
90.3779
 21
-215.49
  0
LINE
  8
0
 10
90.3779
 20
-215.49
 11
90.2893
 21
-215.722
  0
LINE
  8
0
 10
90.2893
 20
-215.722
 11
90.1678
 21
-215.938
  0
LINE
  8
0
 10
90.1678
 20
-215.938
 11
90.0161
 21
-216.134
  0
LINE
  8
0
 10
90.0161
 20
-216.134
 11
89.8374
 21
-216.307
  0
LINE
  8
0
 10
89.8374
 20
-216.307
 11
89.6356
 21
-216.451
  0
LINE
  8
0
 10
89.6356
 20
-216.451
 11
89.4149
 21
-216.565
  0
LINE
  8
0
 10
89.4149
 20
-216.565
 11
89.18
 21
-216.645
  0
LINE
  8
0
 10
89.18
 20
-216.645
 11
88.9359
 21
-216.69
  0
LINE
  8
0
 10
88.9359
 20
-216.69
 11
88.6879
 21
-216.699
  0
LINE
  8
0
 10
88.6879
 20
-216.699
 11
88.4412
 21
-216.672
  0
LINE
  8
0
 10
-0.308777
 20
-216.672
 11
-0.548889
 21
-216.609
  0
LINE
  8
0
 10
-0.548889
 20
-216.609
 11
-0.777298
 21
-216.512
  0
LINE
  8
0
 10
-0.777298
 20
-216.512
 11
-0.989151
 21
-216.383
  0
LINE
  8
0
 10
-0.989151
 20
-216.383
 11
-1.17992
 21
-216.224
  0
LINE
  8
0
 10
-1.17992
 20
-216.224
 11
-1.34554
 21
-216.039
  0
LINE
  8
0
 10
-1.34554
 20
-216.039
 11
-1.48248
 21
-215.832
  0
LINE
  8
0
 10
-1.48248
 20
-215.832
 11
-1.58781
 21
-215.607
  0
LINE
  8
0
 10
-1.58781
 20
-215.607
 11
-1.65932
 21
-215.37
  0
LINE
  8
0
 10
-1.65932
 20
-215.37
 11
-1.69545
 21
-215.124
  0
LINE
  8
0
 10
-1.69545
 20
-215.124
 11
-1.69545
 21
-214.876
  0
LINE
  8
0
 10
-1.69545
 20
-214.876
 11
-1.65932
 21
-214.63
  0
LINE
  8
0
 10
-1.65932
 20
-214.63
 11
-1.58781
 21
-214.393
  0
LINE
  8
0
 10
-1.58781
 20
-214.393
 11
-1.48248
 21
-214.168
  0
LINE
  8
0
 10
-1.48248
 20
-214.168
 11
-1.34554
 21
-213.961
  0
LINE
  8
0
 10
-1.34554
 20
-213.961
 11
-1.17992
 21
-213.776
  0
LINE
  8
0
 10
-1.17992
 20
-213.776
 11
-0.989151
 21
-213.617
  0
LINE
  8
0
 10
-0.989151
 20
-213.617
 11
-0.777298
 21
-213.488
  0
LINE
  8
0
 10
-0.777298
 20
-213.488
 11
-0.548889
 21
-213.391
  0
LINE
  8
0
 10
-0.548889
 20
-213.391
 11
-0.308777
 21
-213.328
  0
LINE
  8
0
 10
-0.308777
 20
-213.328
 11
-0.0620728
 21
-213.301
  0
LINE
  8
0
 10
-0.0620728
 20
-213.301
 11
0.185928
 21
-213.31
  0
LINE
  8
0
 10
0.185928
 20
-213.31
 11
0.429977
 21
-213.355
  0
LINE
  8
0
 10
0.429977
 20
-213.355
 11
0.664871
 21
-213.435
  0
LINE
  8
0
 10
0.664871
 20
-213.435
 11
0.88559
 21
-213.549
  0
LINE
  8
0
 10
0.88559
 20
-213.549
 11
1.08743
 21
-213.693
  0
LINE
  8
0
 10
1.08743
 20
-213.693
 11
1.2661
 21
-213.866
  0
LINE
  8
0
 10
1.2661
 20
-213.866
 11
1.41779
 21
-214.062
  0
LINE
  8
0
 10
1.41779
 20
-214.062
 11
1.53926
 21
-214.278
  0
LINE
  8
0
 10
1.53926
 20
-214.278
 11
1.62791
 21
-214.51
  0
LINE
  8
0
 10
1.62791
 20
-214.51
 11
1.68187
 21
-214.752
  0
LINE
  8
0
 10
1.68187
 20
-214.752
 11
1.7
 21
-215
  0
LINE
  8
0
 10
1.7
 20
-215
 11
1.68187
 21
-215.248
  0
LINE
  8
0
 10
1.68187
 20
-215.248
 11
1.62791
 21
-215.49
  0
LINE
  8
0
 10
1.62791
 20
-215.49
 11
1.53926
 21
-215.722
  0
LINE
  8
0
 10
1.53926
 20
-215.722
 11
1.41779
 21
-215.938
  0
LINE
  8
0
 10
1.41779
 20
-215.938
 11
1.2661
 21
-216.134
  0
LINE
  8
0
 10
1.2661
 20
-216.134
 11
1.08743
 21
-216.307
  0
LINE
  8
0
 10
1.08743
 20
-216.307
 11
0.88559
 21
-216.451
  0
LINE
  8
0
 10
0.88559
 20
-216.451
 11
0.664871
 21
-216.565
  0
LINE
  8
0
 10
0.664871
 20
-216.565
 11
0.429977
 21
-216.645
  0
LINE
  8
0
 10
0.429977
 20
-216.645
 11
0.185928
 21
-216.69
  0
LINE
  8
0
 10
0.185928
 20
-216.69
 11
-0.0620728
 21
-216.699
  0
LINE
  8
0
 10
-0.0620728
 20
-216.699
 11
-0.308777
 21
-216.672
  0
LINE
  8
0
 10
-89.0588
 20
-216.672
 11
-89.2989
 21
-216.609
  0
LINE
  8
0
 10
-89.2989
 20
-216.609
 11
-89.5273
 21
-216.512
  0
LINE
  8
0
 10
-89.5273
 20
-216.512
 11
-89.7392
 21
-216.383
  0
LINE
  8
0
 10
-89.7392
 20
-216.383
 11
-89.9299
 21
-216.224
  0
LINE
  8
0
 10
-89.9299
 20
-216.224
 11
-90.0955
 21
-216.039
  0
LINE
  8
0
 10
-90.0955
 20
-216.039
 11
-90.2325
 21
-215.832
  0
LINE
  8
0
 10
-90.2325
 20
-215.832
 11
-90.3378
 21
-215.607
  0
LINE
  8
0
 10
-90.3378
 20
-215.607
 11
-90.4093
 21
-215.37
  0
LINE
  8
0
 10
-90.4093
 20
-215.37
 11
-90.4455
 21
-215.124
  0
LINE
  8
0
 10
-90.4455
 20
-215.124
 11
-90.4455
 21
-214.876
  0
LINE
  8
0
 10
-90.4455
 20
-214.876
 11
-90.4093
 21
-214.63
  0
LINE
  8
0
 10
-90.4093
 20
-214.63
 11
-90.3378
 21
-214.393
  0
LINE
  8
0
 10
-90.3378
 20
-214.393
 11
-90.2325
 21
-214.168
  0
LINE
  8
0
 10
-90.2325
 20
-214.168
 11
-90.0955
 21
-213.961
  0
LINE
  8
0
 10
-90.0955
 20
-213.961
 11
-89.9299
 21
-213.776
  0
LINE
  8
0
 10
-89.9299
 20
-213.776
 11
-89.7392
 21
-213.617
  0
LINE
  8
0
 10
-89.7392
 20
-213.617
 11
-89.5273
 21
-213.488
  0
LINE
  8
0
 10
-89.5273
 20
-213.488
 11
-89.2989
 21
-213.391
  0
LINE
  8
0
 10
-89.2989
 20
-213.391
 11
-89.0588
 21
-213.328
  0
LINE
  8
0
 10
-89.0588
 20
-213.328
 11
-88.8121
 21
-213.301
  0
LINE
  8
0
 10
-88.8121
 20
-213.301
 11
-88.5641
 21
-213.31
  0
LINE
  8
0
 10
-88.5641
 20
-213.31
 11
-88.32
 21
-213.355
  0
LINE
  8
0
 10
-88.32
 20
-213.355
 11
-88.0851
 21
-213.435
  0
LINE
  8
0
 10
-88.0851
 20
-213.435
 11
-87.8644
 21
-213.549
  0
LINE
  8
0
 10
-87.8644
 20
-213.549
 11
-87.6626
 21
-213.693
  0
LINE
  8
0
 10
-87.6626
 20
-213.693
 11
-87.4839
 21
-213.866
  0
LINE
  8
0
 10
-87.4839
 20
-213.866
 11
-87.3322
 21
-214.062
  0
LINE
  8
0
 10
-87.3322
 20
-214.062
 11
-87.2107
 21
-214.278
  0
LINE
  8
0
 10
-87.2107
 20
-214.278
 11
-87.1221
 21
-214.51
  0
LINE
  8
0
 10
-87.1221
 20
-214.51
 11
-87.0681
 21
-214.752
  0
LINE
  8
0
 10
-87.0681
 20
-214.752
 11
-87.05
 21
-215
  0
LINE
  8
0
 10
-87.05
 20
-215
 11
-87.0681
 21
-215.248
  0
LINE
  8
0
 10
-87.0681
 20
-215.248
 11
-87.1221
 21
-215.49
  0
LINE
  8
0
 10
-87.1221
 20
-215.49
 11
-87.2107
 21
-215.722
  0
LINE
  8
0
 10
-87.2107
 20
-215.722
 11
-87.3322
 21
-215.938
  0
LINE
  8
0
 10
-87.3322
 20
-215.938
 11
-87.4839
 21
-216.134
  0
LINE
  8
0
 10
-87.4839
 20
-216.134
 11
-87.6626
 21
-216.307
  0
LINE
  8
0
 10
-87.6626
 20
-216.307
 11
-87.8644
 21
-216.451
  0
LINE
  8
0
 10
-87.8644
 20
-216.451
 11
-88.0851
 21
-216.565
  0
LINE
  8
0
 10
-88.0851
 20
-216.565
 11
-88.32
 21
-216.645
  0
LINE
  8
0
 10
-88.32
 20
-216.645
 11
-88.5641
 21
-216.69
  0
LINE
  8
0
 10
-88.5641
 20
-216.69
 11
-88.8121
 21
-216.699
  0
LINE
  8
0
 10
-88.8121
 20
-216.699
 11
-89.0588
 21
-216.672
  0
ENDSEC
  0
SECTION
  2
OBJECTS
  0
DICTIONARY
  0
ENDSEC
  0
EOF
