  0
SECTION
  2
BLOCKS
  0
ENDSEC
  0
SECTION
  2
ENTITIES
  0
LINE
  8
0
 10
305
 20
191.35
 11
304.973
 21
191.873
  0
LINE
  8
0
 10
304.973
 20
191.873
 11
304.891
 21
192.39
  0
LINE
  8
0
 10
304.891
 20
192.39
 11
304.755
 21
192.895
  0
LINE
  8
0
 10
304.755
 20
192.895
 11
304.568
 21
193.384
  0
LINE
  8
0
 10
304.568
 20
193.384
 11
304.33
 21
193.85
  0
LINE
  8
0
 10
304.33
 20
193.85
 11
304.045
 21
194.289
  0
LINE
  8
0
 10
304.045
 20
194.289
 11
303.716
 21
194.696
  0
LINE
  8
0
 10
303.716
 20
194.696
 11
303.346
 21
195.066
  0
LINE
  8
0
 10
303.346
 20
195.066
 11
302.939
 21
195.395
  0
LINE
  8
0
 10
302.939
 20
195.395
 11
302.5
 21
195.68
  0
LINE
  8
0
 10
302.5
 20
195.68
 11
302.034
 21
195.918
  0
LINE
  8
0
 10
302.034
 20
195.918
 11
301.545
 21
196.105
  0
LINE
  8
0
 10
301.545
 20
196.105
 11
301.04
 21
196.241
  0
LINE
  8
0
 10
301.04
 20
196.241
 11
300.523
 21
196.323
  0
LINE
  8
0
 10
300.523
 20
196.323
 11
300
 21
196.35
  0
LINE
  8
0
 10
300
 20
196.35
 11
-300
 21
196.35
  0
LINE
  8
0
 10
-300
 20
196.35
 11
-300.523
 21
196.323
  0
LINE
  8
0
 10
-300.523
 20
196.323
 11
-301.04
 21
196.241
  0
LINE
  8
0
 10
-301.04
 20
196.241
 11
-301.545
 21
196.105
  0
LINE
  8
0
 10
-301.545
 20
196.105
 11
-302.034
 21
195.918
  0
LINE
  8
0
 10
-302.034
 20
195.918
 11
-302.5
 21
195.68
  0
LINE
  8
0
 10
-302.5
 20
195.68
 11
-302.939
 21
195.395
  0
LINE
  8
0
 10
-302.939
 20
195.395
 11
-303.346
 21
195.066
  0
LINE
  8
0
 10
-303.346
 20
195.066
 11
-303.716
 21
194.696
  0
LINE
  8
0
 10
-303.716
 20
194.696
 11
-304.045
 21
194.289
  0
LINE
  8
0
 10
-304.045
 20
194.289
 11
-304.33
 21
193.85
  0
LINE
  8
0
 10
-304.33
 20
193.85
 11
-304.568
 21
193.384
  0
LINE
  8
0
 10
-304.568
 20
193.384
 11
-304.755
 21
192.895
  0
LINE
  8
0
 10
-304.755
 20
192.895
 11
-304.891
 21
192.39
  0
LINE
  8
0
 10
-304.891
 20
192.39
 11
-304.973
 21
191.873
  0
LINE
  8
0
 10
-304.973
 20
191.873
 11
-305
 21
191.35
  0
LINE
  8
0
 10
-305
 20
191.35
 11
-305
 21
-233.725
  0
LINE
  8
0
 10
-305
 20
-233.725
 11
305
 21
-233.725
  0
LINE
  8
0
 10
305
 20
-233.725
 11
305
 21
191.35
  0
ENDSEC
  0
SECTION
  2
OBJECTS
  0
DICTIONARY
  0
ENDSEC
  0
EOF
