  0
SECTION
  2
BLOCKS
  0
ENDSEC
  0
SECTION
  2
ENTITIES
  0
LINE
  8
0
 10
300.523
 20
-76.3226
 11
301.04
 21
-76.2407
  0
LINE
  8
0
 10
301.04
 20
-76.2407
 11
301.545
 21
-76.1053
  0
LINE
  8
0
 10
301.545
 20
-76.1053
 11
302.034
 21
-75.9177
  0
LINE
  8
0
 10
302.034
 20
-75.9177
 11
302.5
 21
-75.6801
  0
LINE
  8
0
 10
302.5
 20
-75.6801
 11
302.939
 21
-75.3951
  0
LINE
  8
0
 10
302.939
 20
-75.3951
 11
303.346
 21
-75.0657
  0
LINE
  8
0
 10
303.346
 20
-75.0657
 11
303.716
 21
-74.6956
  0
LINE
  8
0
 10
303.716
 20
-74.6956
 11
304.045
 21
-74.2889
  0
LINE
  8
0
 10
304.045
 20
-74.2889
 11
304.33
 21
-73.85
  0
LINE
  8
0
 10
304.33
 20
-73.85
 11
304.568
 21
-73.3837
  0
LINE
  8
0
 10
304.568
 20
-73.3837
 11
304.755
 21
-72.8951
  0
LINE
  8
0
 10
304.755
 20
-72.8951
 11
304.891
 21
-72.3896
  0
LINE
  8
0
 10
304.891
 20
-72.3896
 11
304.973
 21
-71.8726
  0
LINE
  8
0
 10
304.973
 20
-71.8726
 11
305
 21
-71.35
  0
LINE
  8
0
 10
305
 20
-71.35
 11
305
 21
95.55
  0
LINE
  8
0
 10
305
 20
95.55
 11
-305
 21
95.55
  0
LINE
  8
0
 10
-305
 20
95.55
 11
-305
 21
-71.35
  0
LINE
  8
0
 10
-305
 20
-71.35
 11
-304.973
 21
-71.8726
  0
LINE
  8
0
 10
-304.973
 20
-71.8726
 11
-304.891
 21
-72.3896
  0
LINE
  8
0
 10
-304.891
 20
-72.3896
 11
-304.755
 21
-72.8951
  0
LINE
  8
0
 10
-304.755
 20
-72.8951
 11
-304.568
 21
-73.3837
  0
LINE
  8
0
 10
-304.568
 20
-73.3837
 11
-304.33
 21
-73.85
  0
LINE
  8
0
 10
-304.33
 20
-73.85
 11
-304.045
 21
-74.2889
  0
LINE
  8
0
 10
-304.045
 20
-74.2889
 11
-303.716
 21
-74.6956
  0
LINE
  8
0
 10
-303.716
 20
-74.6956
 11
-303.346
 21
-75.0657
  0
LINE
  8
0
 10
-303.346
 20
-75.0657
 11
-302.939
 21
-75.3951
  0
LINE
  8
0
 10
-302.939
 20
-75.3951
 11
-302.5
 21
-75.6801
  0
LINE
  8
0
 10
-302.5
 20
-75.6801
 11
-302.034
 21
-75.9177
  0
LINE
  8
0
 10
-302.034
 20
-75.9177
 11
-301.545
 21
-76.1053
  0
LINE
  8
0
 10
-301.545
 20
-76.1053
 11
-301.04
 21
-76.2407
  0
LINE
  8
0
 10
-301.04
 20
-76.2407
 11
-300.523
 21
-76.3226
  0
LINE
  8
0
 10
-300.523
 20
-76.3226
 11
-300
 21
-76.35
  0
LINE
  8
0
 10
-300
 20
-76.35
 11
300
 21
-76.35
  0
LINE
  8
0
 10
300
 20
-76.35
 11
300.523
 21
-76.3226
  0
LINE
  8
0
 10
89.6912
 20
86.5033
 11
89.4511
 21
86.5661
  0
LINE
  8
0
 10
89.4511
 20
86.5661
 11
89.2227
 21
86.6631
  0
LINE
  8
0
 10
89.2227
 20
86.6631
 11
89.0108
 21
86.7924
  0
LINE
  8
0
 10
89.0108
 20
86.7924
 11
88.8201
 21
86.9512
  0
LINE
  8
0
 10
88.8201
 20
86.9512
 11
88.6544
 21
87.136
  0
LINE
  8
0
 10
88.6544
 20
87.136
 11
88.5175
 21
87.343
  0
LINE
  8
0
 10
88.5175
 20
87.343
 11
88.4122
 21
87.5677
  0
LINE
  8
0
 10
88.4122
 20
87.5677
 11
88.3407
 21
87.8054
  0
LINE
  8
0
 10
88.3407
 20
87.8054
 11
88.3045
 21
88.0509
  0
LINE
  8
0
 10
88.3045
 20
88.0509
 11
88.3045
 21
88.2991
  0
LINE
  8
0
 10
88.3045
 20
88.2991
 11
88.3407
 21
88.5446
  0
LINE
  8
0
 10
88.3407
 20
88.5446
 11
88.4122
 21
88.7823
  0
LINE
  8
0
 10
88.4122
 20
88.7823
 11
88.5175
 21
89.007
  0
LINE
  8
0
 10
88.5175
 20
89.007
 11
88.6544
 21
89.214
  0
LINE
  8
0
 10
88.6544
 20
89.214
 11
88.8201
 21
89.3988
  0
LINE
  8
0
 10
88.8201
 20
89.3988
 11
89.0108
 21
89.5576
  0
LINE
  8
0
 10
89.0108
 20
89.5576
 11
89.2227
 21
89.6869
  0
LINE
  8
0
 10
89.2227
 20
89.6869
 11
89.4511
 21
89.784
  0
LINE
  8
0
 10
89.4511
 20
89.784
 11
89.6912
 21
89.8467
  0
LINE
  8
0
 10
89.6912
 20
89.8467
 11
89.9379
 21
89.8739
  0
LINE
  8
0
 10
89.9379
 20
89.8739
 11
90.1859
 21
89.8648
  0
LINE
  8
0
 10
90.1859
 20
89.8648
 11
90.43
 21
89.8197
  0
LINE
  8
0
 10
90.43
 20
89.8197
 11
90.6649
 21
89.7396
  0
LINE
  8
0
 10
90.6649
 20
89.7396
 11
90.8856
 21
89.6261
  0
LINE
  8
0
 10
90.8856
 20
89.6261
 11
91.0874
 21
89.4817
  0
LINE
  8
0
 10
91.0874
 20
89.4817
 11
91.2661
 21
89.3094
  0
LINE
  8
0
 10
91.2661
 20
89.3094
 11
91.4178
 21
89.113
  0
LINE
  8
0
 10
91.4178
 20
89.113
 11
91.5393
 21
88.8966
  0
LINE
  8
0
 10
91.5393
 20
88.8966
 11
91.6279
 21
88.6648
  0
LINE
  8
0
 10
91.6279
 20
88.6648
 11
91.6819
 21
88.4225
  0
LINE
  8
0
 10
91.6819
 20
88.4225
 11
91.7
 21
88.175
  0
LINE
  8
0
 10
91.7
 20
88.175
 11
91.6819
 21
87.9275
  0
LINE
  8
0
 10
91.6819
 20
87.9275
 11
91.6279
 21
87.6852
  0
LINE
  8
0
 10
91.6279
 20
87.6852
 11
91.5393
 21
87.4534
  0
LINE
  8
0
 10
91.5393
 20
87.4534
 11
91.4178
 21
87.237
  0
LINE
  8
0
 10
91.4178
 20
87.237
 11
91.2661
 21
87.0406
  0
LINE
  8
0
 10
91.2661
 20
87.0406
 11
91.0874
 21
86.8683
  0
LINE
  8
0
 10
91.0874
 20
86.8683
 11
90.8856
 21
86.7239
  0
LINE
  8
0
 10
90.8856
 20
86.7239
 11
90.6649
 21
86.6104
  0
LINE
  8
0
 10
90.6649
 20
86.6104
 11
90.43
 21
86.5303
  0
LINE
  8
0
 10
90.43
 20
86.5303
 11
90.1859
 21
86.4852
  0
LINE
  8
0
 10
90.1859
 20
86.4852
 11
89.9379
 21
86.4761
  0
LINE
  8
0
 10
89.9379
 20
86.4761
 11
89.6912
 21
86.5033
  0
LINE
  8
0
 10
180.43
 20
89.8197
 11
180.665
 21
89.7396
  0
LINE
  8
0
 10
180.665
 20
89.7396
 11
180.886
 21
89.6261
  0
LINE
  8
0
 10
180.886
 20
89.6261
 11
181.087
 21
89.4817
  0
LINE
  8
0
 10
181.087
 20
89.4817
 11
181.266
 21
89.3094
  0
LINE
  8
0
 10
181.266
 20
89.3094
 11
181.418
 21
89.113
  0
LINE
  8
0
 10
181.418
 20
89.113
 11
181.539
 21
88.8966
  0
LINE
  8
0
 10
181.539
 20
88.8966
 11
181.628
 21
88.6648
  0
LINE
  8
0
 10
181.628
 20
88.6648
 11
181.682
 21
88.4225
  0
LINE
  8
0
 10
181.682
 20
88.4225
 11
181.7
 21
88.175
  0
LINE
  8
0
 10
181.7
 20
88.175
 11
181.682
 21
87.9275
  0
LINE
  8
0
 10
181.682
 20
87.9275
 11
181.628
 21
87.6852
  0
LINE
  8
0
 10
181.628
 20
87.6852
 11
181.539
 21
87.4534
  0
LINE
  8
0
 10
181.539
 20
87.4534
 11
181.418
 21
87.237
  0
LINE
  8
0
 10
181.418
 20
87.237
 11
181.266
 21
87.0406
  0
LINE
  8
0
 10
181.266
 20
87.0406
 11
181.087
 21
86.8683
  0
LINE
  8
0
 10
181.087
 20
86.8683
 11
180.886
 21
86.7239
  0
LINE
  8
0
 10
180.886
 20
86.7239
 11
180.665
 21
86.6104
  0
LINE
  8
0
 10
180.665
 20
86.6104
 11
180.43
 21
86.5303
  0
LINE
  8
0
 10
180.43
 20
86.5303
 11
180.186
 21
86.4852
  0
LINE
  8
0
 10
180.186
 20
86.4852
 11
179.938
 21
86.4761
  0
LINE
  8
0
 10
179.938
 20
86.4761
 11
179.691
 21
86.5033
  0
LINE
  8
0
 10
179.691
 20
86.5033
 11
179.451
 21
86.5661
  0
LINE
  8
0
 10
179.451
 20
86.5661
 11
179.223
 21
86.6631
  0
LINE
  8
0
 10
179.223
 20
86.6631
 11
179.011
 21
86.7924
  0
LINE
  8
0
 10
179.011
 20
86.7924
 11
178.82
 21
86.9512
  0
LINE
  8
0
 10
178.82
 20
86.9512
 11
178.654
 21
87.136
  0
LINE
  8
0
 10
178.654
 20
87.136
 11
178.518
 21
87.343
  0
LINE
  8
0
 10
178.518
 20
87.343
 11
178.412
 21
87.5677
  0
LINE
  8
0
 10
178.412
 20
87.5677
 11
178.341
 21
87.8054
  0
LINE
  8
0
 10
178.341
 20
87.8054
 11
178.305
 21
88.0509
  0
LINE
  8
0
 10
178.305
 20
88.0509
 11
178.305
 21
88.2991
  0
LINE
  8
0
 10
178.305
 20
88.2991
 11
178.341
 21
88.5446
  0
LINE
  8
0
 10
178.341
 20
88.5446
 11
178.412
 21
88.7823
  0
LINE
  8
0
 10
178.412
 20
88.7823
 11
178.518
 21
89.007
  0
LINE
  8
0
 10
178.518
 20
89.007
 11
178.654
 21
89.214
  0
LINE
  8
0
 10
178.654
 20
89.214
 11
178.82
 21
89.3988
  0
LINE
  8
0
 10
178.82
 20
89.3988
 11
179.011
 21
89.5576
  0
LINE
  8
0
 10
179.011
 20
89.5576
 11
179.223
 21
89.6869
  0
LINE
  8
0
 10
179.223
 20
89.6869
 11
179.451
 21
89.784
  0
LINE
  8
0
 10
179.451
 20
89.784
 11
179.691
 21
89.8467
  0
LINE
  8
0
 10
179.691
 20
89.8467
 11
179.938
 21
89.8739
  0
LINE
  8
0
 10
179.938
 20
89.8739
 11
180.186
 21
89.8648
  0
LINE
  8
0
 10
180.186
 20
89.8648
 11
180.43
 21
89.8197
  0
LINE
  8
0
 10
-180.309
 20
86.5033
 11
-180.549
 21
86.5661
  0
LINE
  8
0
 10
-180.549
 20
86.5661
 11
-180.777
 21
86.6631
  0
LINE
  8
0
 10
-180.777
 20
86.6631
 11
-180.989
 21
86.7924
  0
LINE
  8
0
 10
-180.989
 20
86.7924
 11
-181.18
 21
86.9512
  0
LINE
  8
0
 10
-181.18
 20
86.9512
 11
-181.346
 21
87.136
  0
LINE
  8
0
 10
-181.346
 20
87.136
 11
-181.482
 21
87.343
  0
LINE
  8
0
 10
-181.482
 20
87.343
 11
-181.588
 21
87.5677
  0
LINE
  8
0
 10
-181.588
 20
87.5677
 11
-181.659
 21
87.8054
  0
LINE
  8
0
 10
-181.659
 20
87.8054
 11
-181.695
 21
88.0509
  0
LINE
  8
0
 10
-181.695
 20
88.0509
 11
-181.695
 21
88.2991
  0
LINE
  8
0
 10
-181.695
 20
88.2991
 11
-181.659
 21
88.5446
  0
LINE
  8
0
 10
-181.659
 20
88.5446
 11
-181.588
 21
88.7823
  0
LINE
  8
0
 10
-181.588
 20
88.7823
 11
-181.482
 21
89.007
  0
LINE
  8
0
 10
-181.482
 20
89.007
 11
-181.346
 21
89.214
  0
LINE
  8
0
 10
-181.346
 20
89.214
 11
-181.18
 21
89.3988
  0
LINE
  8
0
 10
-181.18
 20
89.3988
 11
-180.989
 21
89.5576
  0
LINE
  8
0
 10
-180.989
 20
89.5576
 11
-180.777
 21
89.6869
  0
LINE
  8
0
 10
-180.777
 20
89.6869
 11
-180.549
 21
89.784
  0
LINE
  8
0
 10
-180.549
 20
89.784
 11
-180.309
 21
89.8467
  0
LINE
  8
0
 10
-180.309
 20
89.8467
 11
-180.062
 21
89.8739
  0
LINE
  8
0
 10
-180.062
 20
89.8739
 11
-179.814
 21
89.8648
  0
LINE
  8
0
 10
-179.814
 20
89.8648
 11
-179.57
 21
89.8197
  0
LINE
  8
0
 10
-179.57
 20
89.8197
 11
-179.335
 21
89.7396
  0
LINE
  8
0
 10
-179.335
 20
89.7396
 11
-179.114
 21
89.6261
  0
LINE
  8
0
 10
-179.114
 20
89.6261
 11
-178.913
 21
89.4817
  0
LINE
  8
0
 10
-178.913
 20
89.4817
 11
-178.734
 21
89.3094
  0
LINE
  8
0
 10
-178.734
 20
89.3094
 11
-178.582
 21
89.113
  0
LINE
  8
0
 10
-178.582
 20
89.113
 11
-178.461
 21
88.8966
  0
LINE
  8
0
 10
-178.461
 20
88.8966
 11
-178.372
 21
88.6648
  0
LINE
  8
0
 10
-178.372
 20
88.6648
 11
-178.318
 21
88.4225
  0
LINE
  8
0
 10
-178.318
 20
88.4225
 11
-178.3
 21
88.175
  0
LINE
  8
0
 10
-178.3
 20
88.175
 11
-178.318
 21
87.9275
  0
LINE
  8
0
 10
-178.318
 20
87.9275
 11
-178.372
 21
87.6852
  0
LINE
  8
0
 10
-178.372
 20
87.6852
 11
-178.461
 21
87.4534
  0
LINE
  8
0
 10
-178.461
 20
87.4534
 11
-178.582
 21
87.237
  0
LINE
  8
0
 10
-178.582
 20
87.237
 11
-178.734
 21
87.0406
  0
LINE
  8
0
 10
-178.734
 20
87.0406
 11
-178.913
 21
86.8683
  0
LINE
  8
0
 10
-178.913
 20
86.8683
 11
-179.114
 21
86.7239
  0
LINE
  8
0
 10
-179.114
 20
86.7239
 11
-179.335
 21
86.6104
  0
LINE
  8
0
 10
-179.335
 20
86.6104
 11
-179.57
 21
86.5303
  0
LINE
  8
0
 10
-179.57
 20
86.5303
 11
-179.814
 21
86.4852
  0
LINE
  8
0
 10
-179.814
 20
86.4852
 11
-180.062
 21
86.4761
  0
LINE
  8
0
 10
-180.062
 20
86.4761
 11
-180.309
 21
86.5033
  0
LINE
  8
0
 10
-270.309
 20
86.5033
 11
-270.549
 21
86.5661
  0
LINE
  8
0
 10
-270.549
 20
86.5661
 11
-270.777
 21
86.6631
  0
LINE
  8
0
 10
-270.777
 20
86.6631
 11
-270.989
 21
86.7924
  0
LINE
  8
0
 10
-270.989
 20
86.7924
 11
-271.18
 21
86.9512
  0
LINE
  8
0
 10
-271.18
 20
86.9512
 11
-271.346
 21
87.136
  0
LINE
  8
0
 10
-271.346
 20
87.136
 11
-271.482
 21
87.343
  0
LINE
  8
0
 10
-271.482
 20
87.343
 11
-271.588
 21
87.5677
  0
LINE
  8
0
 10
-271.588
 20
87.5677
 11
-271.659
 21
87.8054
  0
LINE
  8
0
 10
-271.659
 20
87.8054
 11
-271.695
 21
88.0509
  0
LINE
  8
0
 10
-271.695
 20
88.0509
 11
-271.695
 21
88.2991
  0
LINE
  8
0
 10
-271.695
 20
88.2991
 11
-271.659
 21
88.5446
  0
LINE
  8
0
 10
-271.659
 20
88.5446
 11
-271.588
 21
88.7823
  0
LINE
  8
0
 10
-271.588
 20
88.7823
 11
-271.482
 21
89.007
  0
LINE
  8
0
 10
-271.482
 20
89.007
 11
-271.346
 21
89.214
  0
LINE
  8
0
 10
-271.346
 20
89.214
 11
-271.18
 21
89.3988
  0
LINE
  8
0
 10
-271.18
 20
89.3988
 11
-270.989
 21
89.5576
  0
LINE
  8
0
 10
-270.989
 20
89.5576
 11
-270.777
 21
89.6869
  0
LINE
  8
0
 10
-270.777
 20
89.6869
 11
-270.549
 21
89.784
  0
LINE
  8
0
 10
-270.549
 20
89.784
 11
-270.309
 21
89.8467
  0
LINE
  8
0
 10
-270.309
 20
89.8467
 11
-270.062
 21
89.8739
  0
LINE
  8
0
 10
-270.062
 20
89.8739
 11
-269.814
 21
89.8648
  0
LINE
  8
0
 10
-269.814
 20
89.8648
 11
-269.57
 21
89.8197
  0
LINE
  8
0
 10
-269.57
 20
89.8197
 11
-269.335
 21
89.7396
  0
LINE
  8
0
 10
-269.335
 20
89.7396
 11
-269.114
 21
89.6261
  0
LINE
  8
0
 10
-269.114
 20
89.6261
 11
-268.913
 21
89.4817
  0
LINE
  8
0
 10
-268.913
 20
89.4817
 11
-268.734
 21
89.3094
  0
LINE
  8
0
 10
-268.734
 20
89.3094
 11
-268.582
 21
89.113
  0
LINE
  8
0
 10
-268.582
 20
89.113
 11
-268.461
 21
88.8966
  0
LINE
  8
0
 10
-268.461
 20
88.8966
 11
-268.372
 21
88.6648
  0
LINE
  8
0
 10
-268.372
 20
88.6648
 11
-268.318
 21
88.4225
  0
LINE
  8
0
 10
-268.318
 20
88.4225
 11
-268.3
 21
88.175
  0
LINE
  8
0
 10
-268.3
 20
88.175
 11
-268.318
 21
87.9275
  0
LINE
  8
0
 10
-268.318
 20
87.9275
 11
-268.372
 21
87.6852
  0
LINE
  8
0
 10
-268.372
 20
87.6852
 11
-268.461
 21
87.4534
  0
LINE
  8
0
 10
-268.461
 20
87.4534
 11
-268.582
 21
87.237
  0
LINE
  8
0
 10
-268.582
 20
87.237
 11
-268.734
 21
87.0406
  0
LINE
  8
0
 10
-268.734
 20
87.0406
 11
-268.913
 21
86.8683
  0
LINE
  8
0
 10
-268.913
 20
86.8683
 11
-269.114
 21
86.7239
  0
LINE
  8
0
 10
-269.114
 20
86.7239
 11
-269.335
 21
86.6104
  0
LINE
  8
0
 10
-269.335
 20
86.6104
 11
-269.57
 21
86.5303
  0
LINE
  8
0
 10
-269.57
 20
86.5303
 11
-269.814
 21
86.4852
  0
LINE
  8
0
 10
-269.814
 20
86.4852
 11
-270.062
 21
86.4761
  0
LINE
  8
0
 10
-270.062
 20
86.4761
 11
-270.309
 21
86.5033
  0
LINE
  8
0
 10
-90.3088
 20
86.5033
 11
-90.5489
 21
86.5661
  0
LINE
  8
0
 10
-90.5489
 20
86.5661
 11
-90.7773
 21
86.6631
  0
LINE
  8
0
 10
-90.7773
 20
86.6631
 11
-90.9892
 21
86.7924
  0
LINE
  8
0
 10
-90.9892
 20
86.7924
 11
-91.1799
 21
86.9512
  0
LINE
  8
0
 10
-91.1799
 20
86.9512
 11
-91.3455
 21
87.136
  0
LINE
  8
0
 10
-91.3455
 20
87.136
 11
-91.4825
 21
87.343
  0
LINE
  8
0
 10
-91.4825
 20
87.343
 11
-91.5878
 21
87.5677
  0
LINE
  8
0
 10
-91.5878
 20
87.5677
 11
-91.6593
 21
87.8054
  0
LINE
  8
0
 10
-91.6593
 20
87.8054
 11
-91.6955
 21
88.0509
  0
LINE
  8
0
 10
-91.6955
 20
88.0509
 11
-91.6955
 21
88.2991
  0
LINE
  8
0
 10
-91.6955
 20
88.2991
 11
-91.6593
 21
88.5446
  0
LINE
  8
0
 10
-91.6593
 20
88.5446
 11
-91.5878
 21
88.7823
  0
LINE
  8
0
 10
-91.5878
 20
88.7823
 11
-91.4825
 21
89.007
  0
LINE
  8
0
 10
-91.4825
 20
89.007
 11
-91.3455
 21
89.214
  0
LINE
  8
0
 10
-91.3455
 20
89.214
 11
-91.1799
 21
89.3988
  0
LINE
  8
0
 10
-91.1799
 20
89.3988
 11
-90.9892
 21
89.5576
  0
LINE
  8
0
 10
-90.9892
 20
89.5576
 11
-90.7773
 21
89.6869
  0
LINE
  8
0
 10
-90.7773
 20
89.6869
 11
-90.5489
 21
89.784
  0
LINE
  8
0
 10
-90.5489
 20
89.784
 11
-90.3088
 21
89.8467
  0
LINE
  8
0
 10
-90.3088
 20
89.8467
 11
-90.0621
 21
89.8739
  0
LINE
  8
0
 10
-90.0621
 20
89.8739
 11
-89.8141
 21
89.8648
  0
LINE
  8
0
 10
-89.8141
 20
89.8648
 11
-89.57
 21
89.8197
  0
LINE
  8
0
 10
-89.57
 20
89.8197
 11
-89.3351
 21
89.7396
  0
LINE
  8
0
 10
-89.3351
 20
89.7396
 11
-89.1144
 21
89.6261
  0
LINE
  8
0
 10
-89.1144
 20
89.6261
 11
-88.9126
 21
89.4817
  0
LINE
  8
0
 10
-88.9126
 20
89.4817
 11
-88.7339
 21
89.3094
  0
LINE
  8
0
 10
-88.7339
 20
89.3094
 11
-88.5822
 21
89.113
  0
LINE
  8
0
 10
-88.5822
 20
89.113
 11
-88.4607
 21
88.8966
  0
LINE
  8
0
 10
-88.4607
 20
88.8966
 11
-88.3721
 21
88.6648
  0
LINE
  8
0
 10
-88.3721
 20
88.6648
 11
-88.3181
 21
88.4225
  0
LINE
  8
0
 10
-88.3181
 20
88.4225
 11
-88.3
 21
88.175
  0
LINE
  8
0
 10
-88.3
 20
88.175
 11
-88.3181
 21
87.9275
  0
LINE
  8
0
 10
-88.3181
 20
87.9275
 11
-88.3721
 21
87.6852
  0
LINE
  8
0
 10
-88.3721
 20
87.6852
 11
-88.4607
 21
87.4534
  0
LINE
  8
0
 10
-88.4607
 20
87.4534
 11
-88.5822
 21
87.237
  0
LINE
  8
0
 10
-88.5822
 20
87.237
 11
-88.7339
 21
87.0406
  0
LINE
  8
0
 10
-88.7339
 20
87.0406
 11
-88.9126
 21
86.8683
  0
LINE
  8
0
 10
-88.9126
 20
86.8683
 11
-89.1144
 21
86.7239
  0
LINE
  8
0
 10
-89.1144
 20
86.7239
 11
-89.3351
 21
86.6104
  0
LINE
  8
0
 10
-89.3351
 20
86.6104
 11
-89.57
 21
86.5303
  0
LINE
  8
0
 10
-89.57
 20
86.5303
 11
-89.8141
 21
86.4852
  0
LINE
  8
0
 10
-89.8141
 20
86.4852
 11
-90.0621
 21
86.4761
  0
LINE
  8
0
 10
-90.0621
 20
86.4761
 11
-90.3088
 21
86.5033
  0
LINE
  8
0
 10
269.691
 20
86.5033
 11
269.451
 21
86.5661
  0
LINE
  8
0
 10
269.451
 20
86.5661
 11
269.223
 21
86.6631
  0
LINE
  8
0
 10
269.223
 20
86.6631
 11
269.011
 21
86.7924
  0
LINE
  8
0
 10
269.011
 20
86.7924
 11
268.82
 21
86.9512
  0
LINE
  8
0
 10
268.82
 20
86.9512
 11
268.654
 21
87.136
  0
LINE
  8
0
 10
268.654
 20
87.136
 11
268.518
 21
87.343
  0
LINE
  8
0
 10
268.518
 20
87.343
 11
268.412
 21
87.5677
  0
LINE
  8
0
 10
268.412
 20
87.5677
 11
268.341
 21
87.8054
  0
LINE
  8
0
 10
268.341
 20
87.8054
 11
268.305
 21
88.0509
  0
LINE
  8
0
 10
268.305
 20
88.0509
 11
268.305
 21
88.2991
  0
LINE
  8
0
 10
268.305
 20
88.2991
 11
268.341
 21
88.5446
  0
LINE
  8
0
 10
268.341
 20
88.5446
 11
268.412
 21
88.7823
  0
LINE
  8
0
 10
268.412
 20
88.7823
 11
268.518
 21
89.007
  0
LINE
  8
0
 10
268.518
 20
89.007
 11
268.654
 21
89.214
  0
LINE
  8
0
 10
268.654
 20
89.214
 11
268.82
 21
89.3988
  0
LINE
  8
0
 10
268.82
 20
89.3988
 11
269.011
 21
89.5576
  0
LINE
  8
0
 10
269.011
 20
89.5576
 11
269.223
 21
89.6869
  0
LINE
  8
0
 10
269.223
 20
89.6869
 11
269.451
 21
89.784
  0
LINE
  8
0
 10
269.451
 20
89.784
 11
269.691
 21
89.8467
  0
LINE
  8
0
 10
269.691
 20
89.8467
 11
269.938
 21
89.8739
  0
LINE
  8
0
 10
269.938
 20
89.8739
 11
270.186
 21
89.8648
  0
LINE
  8
0
 10
270.186
 20
89.8648
 11
270.43
 21
89.8197
  0
LINE
  8
0
 10
270.43
 20
89.8197
 11
270.665
 21
89.7396
  0
LINE
  8
0
 10
270.665
 20
89.7396
 11
270.886
 21
89.6261
  0
LINE
  8
0
 10
270.886
 20
89.6261
 11
271.087
 21
89.4817
  0
LINE
  8
0
 10
271.087
 20
89.4817
 11
271.266
 21
89.3094
  0
LINE
  8
0
 10
271.266
 20
89.3094
 11
271.418
 21
89.113
  0
LINE
  8
0
 10
271.418
 20
89.113
 11
271.539
 21
88.8966
  0
LINE
  8
0
 10
271.539
 20
88.8966
 11
271.628
 21
88.6648
  0
LINE
  8
0
 10
271.628
 20
88.6648
 11
271.682
 21
88.4225
  0
LINE
  8
0
 10
271.682
 20
88.4225
 11
271.7
 21
88.175
  0
LINE
  8
0
 10
271.7
 20
88.175
 11
271.682
 21
87.9275
  0
LINE
  8
0
 10
271.682
 20
87.9275
 11
271.628
 21
87.6852
  0
LINE
  8
0
 10
271.628
 20
87.6852
 11
271.539
 21
87.4534
  0
LINE
  8
0
 10
271.539
 20
87.4534
 11
271.418
 21
87.237
  0
LINE
  8
0
 10
271.418
 20
87.237
 11
271.266
 21
87.0406
  0
LINE
  8
0
 10
271.266
 20
87.0406
 11
271.087
 21
86.8683
  0
LINE
  8
0
 10
271.087
 20
86.8683
 11
270.886
 21
86.7239
  0
LINE
  8
0
 10
270.886
 20
86.7239
 11
270.665
 21
86.6104
  0
LINE
  8
0
 10
270.665
 20
86.6104
 11
270.43
 21
86.5303
  0
LINE
  8
0
 10
270.43
 20
86.5303
 11
270.186
 21
86.4852
  0
LINE
  8
0
 10
270.186
 20
86.4852
 11
269.938
 21
86.4761
  0
LINE
  8
0
 10
269.938
 20
86.4761
 11
269.691
 21
86.5033
  0
LINE
  8
0
 10
-0.308777
 20
86.5033
 11
-0.548889
 21
86.5661
  0
LINE
  8
0
 10
-0.548889
 20
86.5661
 11
-0.777298
 21
86.6631
  0
LINE
  8
0
 10
-0.777298
 20
86.6631
 11
-0.989151
 21
86.7924
  0
LINE
  8
0
 10
-0.989151
 20
86.7924
 11
-1.17992
 21
86.9512
  0
LINE
  8
0
 10
-1.17992
 20
86.9512
 11
-1.34554
 21
87.136
  0
LINE
  8
0
 10
-1.34554
 20
87.136
 11
-1.48248
 21
87.343
  0
LINE
  8
0
 10
-1.48248
 20
87.343
 11
-1.58781
 21
87.5677
  0
LINE
  8
0
 10
-1.58781
 20
87.5677
 11
-1.65932
 21
87.8054
  0
LINE
  8
0
 10
-1.65932
 20
87.8054
 11
-1.69545
 21
88.0509
  0
LINE
  8
0
 10
-1.69545
 20
88.0509
 11
-1.69545
 21
88.2991
  0
LINE
  8
0
 10
-1.69545
 20
88.2991
 11
-1.65932
 21
88.5446
  0
LINE
  8
0
 10
-1.65932
 20
88.5446
 11
-1.58781
 21
88.7823
  0
LINE
  8
0
 10
-1.58781
 20
88.7823
 11
-1.48248
 21
89.007
  0
LINE
  8
0
 10
-1.48248
 20
89.007
 11
-1.34554
 21
89.214
  0
LINE
  8
0
 10
-1.34554
 20
89.214
 11
-1.17992
 21
89.3988
  0
LINE
  8
0
 10
-1.17992
 20
89.3988
 11
-0.989151
 21
89.5576
  0
LINE
  8
0
 10
-0.989151
 20
89.5576
 11
-0.777298
 21
89.6869
  0
LINE
  8
0
 10
-0.777298
 20
89.6869
 11
-0.548889
 21
89.784
  0
LINE
  8
0
 10
-0.548889
 20
89.784
 11
-0.308777
 21
89.8467
  0
LINE
  8
0
 10
-0.308777
 20
89.8467
 11
-0.0620728
 21
89.8739
  0
LINE
  8
0
 10
-0.0620728
 20
89.8739
 11
0.185928
 21
89.8648
  0
LINE
  8
0
 10
0.185928
 20
89.8648
 11
0.429977
 21
89.8197
  0
LINE
  8
0
 10
0.429977
 20
89.8197
 11
0.664871
 21
89.7396
  0
LINE
  8
0
 10
0.664871
 20
89.7396
 11
0.88559
 21
89.6261
  0
LINE
  8
0
 10
0.88559
 20
89.6261
 11
1.08743
 21
89.4817
  0
LINE
  8
0
 10
1.08743
 20
89.4817
 11
1.2661
 21
89.3094
  0
LINE
  8
0
 10
1.2661
 20
89.3094
 11
1.41779
 21
89.113
  0
LINE
  8
0
 10
1.41779
 20
89.113
 11
1.53926
 21
88.8966
  0
LINE
  8
0
 10
1.53926
 20
88.8966
 11
1.62791
 21
88.6648
  0
LINE
  8
0
 10
1.62791
 20
88.6648
 11
1.68187
 21
88.4225
  0
LINE
  8
0
 10
1.68187
 20
88.4225
 11
1.7
 21
88.175
  0
LINE
  8
0
 10
1.7
 20
88.175
 11
1.68187
 21
87.9275
  0
LINE
  8
0
 10
1.68187
 20
87.9275
 11
1.62791
 21
87.6852
  0
LINE
  8
0
 10
1.62791
 20
87.6852
 11
1.53926
 21
87.4534
  0
LINE
  8
0
 10
1.53926
 20
87.4534
 11
1.41779
 21
87.237
  0
LINE
  8
0
 10
1.41779
 20
87.237
 11
1.2661
 21
87.0406
  0
LINE
  8
0
 10
1.2661
 20
87.0406
 11
1.08743
 21
86.8683
  0
LINE
  8
0
 10
1.08743
 20
86.8683
 11
0.88559
 21
86.7239
  0
LINE
  8
0
 10
0.88559
 20
86.7239
 11
0.664871
 21
86.6104
  0
LINE
  8
0
 10
0.664871
 20
86.6104
 11
0.429977
 21
86.5303
  0
LINE
  8
0
 10
0.429977
 20
86.5303
 11
0.185928
 21
86.4852
  0
LINE
  8
0
 10
0.185928
 20
86.4852
 11
-0.0620728
 21
86.4761
  0
LINE
  8
0
 10
-0.0620728
 20
86.4761
 11
-0.308777
 21
86.5033
  0
ENDSEC
  0
SECTION
  2
OBJECTS
  0
DICTIONARY
  0
ENDSEC
  0
EOF
