  0
SECTION
  2
BLOCKS
  0
ENDSEC
  0
SECTION
  2
ENTITIES
  0
LINE
  8
0
 10
-290
 20
176.35
 11
-289.973
 21
176.873
  0
LINE
  8
0
 10
-289.973
 20
176.873
 11
-289.891
 21
177.39
  0
LINE
  8
0
 10
-289.891
 20
177.39
 11
-289.755
 21
177.895
  0
LINE
  8
0
 10
-289.755
 20
177.895
 11
-289.568
 21
178.384
  0
LINE
  8
0
 10
-289.568
 20
178.384
 11
-289.33
 21
178.85
  0
LINE
  8
0
 10
-289.33
 20
178.85
 11
-289.045
 21
179.289
  0
LINE
  8
0
 10
-289.045
 20
179.289
 11
-288.716
 21
179.696
  0
LINE
  8
0
 10
-288.716
 20
179.696
 11
-288.346
 21
180.066
  0
LINE
  8
0
 10
-288.346
 20
180.066
 11
-287.939
 21
180.395
  0
LINE
  8
0
 10
-287.939
 20
180.395
 11
-287.5
 21
180.68
  0
LINE
  8
0
 10
-287.5
 20
180.68
 11
-287.034
 21
180.918
  0
LINE
  8
0
 10
-287.034
 20
180.918
 11
-286.545
 21
181.105
  0
LINE
  8
0
 10
-286.545
 20
181.105
 11
-286.04
 21
181.241
  0
LINE
  8
0
 10
-286.04
 20
181.241
 11
-285.523
 21
181.323
  0
LINE
  8
0
 10
-285.523
 20
181.323
 11
-285
 21
181.35
  0
LINE
  8
0
 10
-285
 20
181.35
 11
285
 21
181.35
  0
LINE
  8
0
 10
285
 20
181.35
 11
285.523
 21
181.323
  0
LINE
  8
0
 10
285.523
 20
181.323
 11
286.04
 21
181.241
  0
LINE
  8
0
 10
286.04
 20
181.241
 11
286.545
 21
181.105
  0
LINE
  8
0
 10
286.545
 20
181.105
 11
287.034
 21
180.918
  0
LINE
  8
0
 10
287.034
 20
180.918
 11
287.5
 21
180.68
  0
LINE
  8
0
 10
287.5
 20
180.68
 11
287.939
 21
180.395
  0
LINE
  8
0
 10
287.939
 20
180.395
 11
288.346
 21
180.066
  0
LINE
  8
0
 10
288.346
 20
180.066
 11
288.716
 21
179.696
  0
LINE
  8
0
 10
288.716
 20
179.696
 11
289.045
 21
179.289
  0
LINE
  8
0
 10
289.045
 20
179.289
 11
289.33
 21
178.85
  0
LINE
  8
0
 10
289.33
 20
178.85
 11
289.568
 21
178.384
  0
LINE
  8
0
 10
289.568
 20
178.384
 11
289.755
 21
177.895
  0
LINE
  8
0
 10
289.755
 20
177.895
 11
289.891
 21
177.39
  0
LINE
  8
0
 10
289.891
 20
177.39
 11
289.973
 21
176.873
  0
LINE
  8
0
 10
289.973
 20
176.873
 11
290
 21
176.35
  0
LINE
  8
0
 10
290
 20
176.35
 11
290
 21
-233.725
  0
LINE
  8
0
 10
290
 20
-233.725
 11
314.875
 21
-233.725
  0
LINE
  8
0
 10
314.875
 20
-233.725
 11
315.398
 21
-233.698
  0
LINE
  8
0
 10
315.398
 20
-233.698
 11
315.915
 21
-233.616
  0
LINE
  8
0
 10
315.915
 20
-233.616
 11
316.42
 21
-233.48
  0
LINE
  8
0
 10
316.42
 20
-233.48
 11
316.909
 21
-233.293
  0
LINE
  8
0
 10
316.909
 20
-233.293
 11
317.375
 21
-233.055
  0
LINE
  8
0
 10
317.375
 20
-233.055
 11
317.814
 21
-232.77
  0
LINE
  8
0
 10
317.814
 20
-232.77
 11
318.221
 21
-232.441
  0
LINE
  8
0
 10
318.221
 20
-232.441
 11
318.591
 21
-232.071
  0
LINE
  8
0
 10
318.591
 20
-232.071
 11
318.92
 21
-231.664
  0
LINE
  8
0
 10
318.92
 20
-231.664
 11
319.205
 21
-231.225
  0
LINE
  8
0
 10
319.205
 20
-231.225
 11
319.443
 21
-230.759
  0
LINE
  8
0
 10
319.443
 20
-230.759
 11
319.63
 21
-230.27
  0
LINE
  8
0
 10
319.63
 20
-230.27
 11
319.766
 21
-229.765
  0
LINE
  8
0
 10
319.766
 20
-229.765
 11
319.848
 21
-229.248
  0
LINE
  8
0
 10
319.848
 20
-229.248
 11
319.875
 21
-228.725
  0
LINE
  8
0
 10
319.875
 20
-228.725
 11
319.875
 21
228.725
  0
LINE
  8
0
 10
319.875
 20
228.725
 11
319.848
 21
229.248
  0
LINE
  8
0
 10
319.848
 20
229.248
 11
319.766
 21
229.765
  0
LINE
  8
0
 10
319.766
 20
229.765
 11
319.63
 21
230.27
  0
LINE
  8
0
 10
319.63
 20
230.27
 11
319.443
 21
230.759
  0
LINE
  8
0
 10
319.443
 20
230.759
 11
319.205
 21
231.225
  0
LINE
  8
0
 10
319.205
 20
231.225
 11
318.92
 21
231.664
  0
LINE
  8
0
 10
318.92
 20
231.664
 11
318.591
 21
232.071
  0
LINE
  8
0
 10
318.591
 20
232.071
 11
318.221
 21
232.441
  0
LINE
  8
0
 10
318.221
 20
232.441
 11
317.814
 21
232.77
  0
LINE
  8
0
 10
317.814
 20
232.77
 11
317.375
 21
233.055
  0
LINE
  8
0
 10
317.375
 20
233.055
 11
316.909
 21
233.293
  0
LINE
  8
0
 10
316.909
 20
233.293
 11
316.42
 21
233.48
  0
LINE
  8
0
 10
316.42
 20
233.48
 11
315.915
 21
233.616
  0
LINE
  8
0
 10
315.915
 20
233.616
 11
315.398
 21
233.698
  0
LINE
  8
0
 10
315.398
 20
233.698
 11
314.875
 21
233.725
  0
LINE
  8
0
 10
314.875
 20
233.725
 11
-314.875
 21
233.725
  0
LINE
  8
0
 10
-314.875
 20
233.725
 11
-315.398
 21
233.698
  0
LINE
  8
0
 10
-315.398
 20
233.698
 11
-315.915
 21
233.616
  0
LINE
  8
0
 10
-315.915
 20
233.616
 11
-316.42
 21
233.48
  0
LINE
  8
0
 10
-316.42
 20
233.48
 11
-316.909
 21
233.293
  0
LINE
  8
0
 10
-316.909
 20
233.293
 11
-317.375
 21
233.055
  0
LINE
  8
0
 10
-317.375
 20
233.055
 11
-317.814
 21
232.77
  0
LINE
  8
0
 10
-317.814
 20
232.77
 11
-318.221
 21
232.441
  0
LINE
  8
0
 10
-318.221
 20
232.441
 11
-318.591
 21
232.071
  0
LINE
  8
0
 10
-318.591
 20
232.071
 11
-318.92
 21
231.664
  0
LINE
  8
0
 10
-318.92
 20
231.664
 11
-319.205
 21
231.225
  0
LINE
  8
0
 10
-319.205
 20
231.225
 11
-319.443
 21
230.759
  0
LINE
  8
0
 10
-319.443
 20
230.759
 11
-319.63
 21
230.27
  0
LINE
  8
0
 10
-319.63
 20
230.27
 11
-319.766
 21
229.765
  0
LINE
  8
0
 10
-319.766
 20
229.765
 11
-319.848
 21
229.248
  0
LINE
  8
0
 10
-319.848
 20
229.248
 11
-319.875
 21
228.725
  0
LINE
  8
0
 10
-319.875
 20
228.725
 11
-319.875
 21
-228.725
  0
LINE
  8
0
 10
-319.875
 20
-228.725
 11
-319.848
 21
-229.248
  0
LINE
  8
0
 10
-319.848
 20
-229.248
 11
-319.766
 21
-229.765
  0
LINE
  8
0
 10
-319.766
 20
-229.765
 11
-319.63
 21
-230.27
  0
LINE
  8
0
 10
-319.63
 20
-230.27
 11
-319.443
 21
-230.759
  0
LINE
  8
0
 10
-319.443
 20
-230.759
 11
-319.205
 21
-231.225
  0
LINE
  8
0
 10
-319.205
 20
-231.225
 11
-318.92
 21
-231.664
  0
LINE
  8
0
 10
-318.92
 20
-231.664
 11
-318.591
 21
-232.071
  0
LINE
  8
0
 10
-318.591
 20
-232.071
 11
-318.221
 21
-232.441
  0
LINE
  8
0
 10
-318.221
 20
-232.441
 11
-317.814
 21
-232.77
  0
LINE
  8
0
 10
-317.814
 20
-232.77
 11
-317.375
 21
-233.055
  0
LINE
  8
0
 10
-317.375
 20
-233.055
 11
-316.909
 21
-233.293
  0
LINE
  8
0
 10
-316.909
 20
-233.293
 11
-316.42
 21
-233.48
  0
LINE
  8
0
 10
-316.42
 20
-233.48
 11
-315.915
 21
-233.616
  0
LINE
  8
0
 10
-315.915
 20
-233.616
 11
-315.398
 21
-233.698
  0
LINE
  8
0
 10
-315.398
 20
-233.698
 11
-314.875
 21
-233.725
  0
LINE
  8
0
 10
-314.875
 20
-233.725
 11
-290
 21
-233.725
  0
LINE
  8
0
 10
-290
 20
-233.725
 11
-290
 21
176.35
  0
LINE
  8
0
 10
-312.892
 20
222.621
 11
-313.28
 21
222.682
  0
LINE
  8
0
 10
-313.28
 20
222.682
 11
-313.659
 21
222.784
  0
LINE
  8
0
 10
-313.659
 20
222.784
 11
-314.025
 21
222.924
  0
LINE
  8
0
 10
-314.025
 20
222.924
 11
-314.375
 21
223.102
  0
LINE
  8
0
 10
-314.375
 20
223.102
 11
-314.704
 21
223.316
  0
LINE
  8
0
 10
-314.704
 20
223.316
 11
-315.009
 21
223.563
  0
LINE
  8
0
 10
-315.009
 20
223.563
 11
-315.287
 21
223.841
  0
LINE
  8
0
 10
-315.287
 20
223.841
 11
-315.534
 21
224.146
  0
LINE
  8
0
 10
-315.534
 20
224.146
 11
-315.748
 21
224.475
  0
LINE
  8
0
 10
-315.748
 20
224.475
 11
-315.926
 21
224.825
  0
LINE
  8
0
 10
-315.926
 20
224.825
 11
-316.066
 21
225.191
  0
LINE
  8
0
 10
-316.066
 20
225.191
 11
-316.168
 21
225.57
  0
LINE
  8
0
 10
-316.168
 20
225.57
 11
-316.229
 21
225.958
  0
LINE
  8
0
 10
-316.229
 20
225.958
 11
-316.25
 21
226.35
  0
LINE
  8
0
 10
-316.25
 20
226.35
 11
-316.229
 21
226.742
  0
LINE
  8
0
 10
-316.229
 20
226.742
 11
-316.168
 21
227.13
  0
LINE
  8
0
 10
-316.168
 20
227.13
 11
-316.066
 21
227.509
  0
LINE
  8
0
 10
-316.066
 20
227.509
 11
-315.926
 21
227.875
  0
LINE
  8
0
 10
-315.926
 20
227.875
 11
-315.748
 21
228.225
  0
LINE
  8
0
 10
-315.748
 20
228.225
 11
-315.534
 21
228.554
  0
LINE
  8
0
 10
-315.534
 20
228.554
 11
-315.287
 21
228.859
  0
LINE
  8
0
 10
-315.287
 20
228.859
 11
-315.009
 21
229.137
  0
LINE
  8
0
 10
-315.009
 20
229.137
 11
-314.704
 21
229.384
  0
LINE
  8
0
 10
-314.704
 20
229.384
 11
-314.375
 21
229.598
  0
LINE
  8
0
 10
-314.375
 20
229.598
 11
-314.025
 21
229.776
  0
LINE
  8
0
 10
-314.025
 20
229.776
 11
-313.659
 21
229.916
  0
LINE
  8
0
 10
-313.659
 20
229.916
 11
-313.28
 21
230.018
  0
LINE
  8
0
 10
-313.28
 20
230.018
 11
-312.892
 21
230.079
  0
LINE
  8
0
 10
-312.892
 20
230.079
 11
-312.5
 21
230.1
  0
LINE
  8
0
 10
-312.5
 20
230.1
 11
-312.108
 21
230.079
  0
LINE
  8
0
 10
-312.108
 20
230.079
 11
-311.72
 21
230.018
  0
LINE
  8
0
 10
-311.72
 20
230.018
 11
-311.341
 21
229.916
  0
LINE
  8
0
 10
-311.341
 20
229.916
 11
-310.975
 21
229.776
  0
LINE
  8
0
 10
-310.975
 20
229.776
 11
-310.625
 21
229.598
  0
LINE
  8
0
 10
-310.625
 20
229.598
 11
-310.296
 21
229.384
  0
LINE
  8
0
 10
-310.296
 20
229.384
 11
-309.991
 21
229.137
  0
LINE
  8
0
 10
-309.991
 20
229.137
 11
-309.713
 21
228.859
  0
LINE
  8
0
 10
-309.713
 20
228.859
 11
-309.466
 21
228.554
  0
LINE
  8
0
 10
-309.466
 20
228.554
 11
-309.252
 21
228.225
  0
LINE
  8
0
 10
-309.252
 20
228.225
 11
-309.074
 21
227.875
  0
LINE
  8
0
 10
-309.074
 20
227.875
 11
-308.934
 21
227.509
  0
LINE
  8
0
 10
-308.934
 20
227.509
 11
-308.832
 21
227.13
  0
LINE
  8
0
 10
-308.832
 20
227.13
 11
-308.771
 21
226.742
  0
LINE
  8
0
 10
-308.771
 20
226.742
 11
-308.75
 21
226.35
  0
LINE
  8
0
 10
-308.75
 20
226.35
 11
-308.771
 21
225.958
  0
LINE
  8
0
 10
-308.771
 20
225.958
 11
-308.832
 21
225.57
  0
LINE
  8
0
 10
-308.832
 20
225.57
 11
-308.934
 21
225.191
  0
LINE
  8
0
 10
-308.934
 20
225.191
 11
-309.074
 21
224.825
  0
LINE
  8
0
 10
-309.074
 20
224.825
 11
-309.252
 21
224.475
  0
LINE
  8
0
 10
-309.252
 20
224.475
 11
-309.466
 21
224.146
  0
LINE
  8
0
 10
-309.466
 20
224.146
 11
-309.713
 21
223.841
  0
LINE
  8
0
 10
-309.713
 20
223.841
 11
-309.991
 21
223.563
  0
LINE
  8
0
 10
-309.991
 20
223.563
 11
-310.296
 21
223.316
  0
LINE
  8
0
 10
-310.296
 20
223.316
 11
-310.625
 21
223.102
  0
LINE
  8
0
 10
-310.625
 20
223.102
 11
-310.975
 21
222.924
  0
LINE
  8
0
 10
-310.975
 20
222.924
 11
-311.341
 21
222.784
  0
LINE
  8
0
 10
-311.341
 20
222.784
 11
-311.72
 21
222.682
  0
LINE
  8
0
 10
-311.72
 20
222.682
 11
-312.108
 21
222.621
  0
LINE
  8
0
 10
-312.108
 20
222.621
 11
-312.5
 21
222.6
  0
LINE
  8
0
 10
-312.5
 20
222.6
 11
-312.892
 21
222.621
  0
LINE
  8
0
 10
312.108
 20
222.621
 11
311.72
 21
222.682
  0
LINE
  8
0
 10
311.72
 20
222.682
 11
311.341
 21
222.784
  0
LINE
  8
0
 10
311.341
 20
222.784
 11
310.975
 21
222.924
  0
LINE
  8
0
 10
310.975
 20
222.924
 11
310.625
 21
223.102
  0
LINE
  8
0
 10
310.625
 20
223.102
 11
310.296
 21
223.316
  0
LINE
  8
0
 10
310.296
 20
223.316
 11
309.991
 21
223.563
  0
LINE
  8
0
 10
309.991
 20
223.563
 11
309.713
 21
223.841
  0
LINE
  8
0
 10
309.713
 20
223.841
 11
309.466
 21
224.146
  0
LINE
  8
0
 10
309.466
 20
224.146
 11
309.252
 21
224.475
  0
LINE
  8
0
 10
309.252
 20
224.475
 11
309.074
 21
224.825
  0
LINE
  8
0
 10
309.074
 20
224.825
 11
308.934
 21
225.191
  0
LINE
  8
0
 10
308.934
 20
225.191
 11
308.832
 21
225.57
  0
LINE
  8
0
 10
308.832
 20
225.57
 11
308.771
 21
225.958
  0
LINE
  8
0
 10
308.771
 20
225.958
 11
308.75
 21
226.35
  0
LINE
  8
0
 10
308.75
 20
226.35
 11
308.771
 21
226.742
  0
LINE
  8
0
 10
308.771
 20
226.742
 11
308.832
 21
227.13
  0
LINE
  8
0
 10
308.832
 20
227.13
 11
308.934
 21
227.509
  0
LINE
  8
0
 10
308.934
 20
227.509
 11
309.074
 21
227.875
  0
LINE
  8
0
 10
309.074
 20
227.875
 11
309.252
 21
228.225
  0
LINE
  8
0
 10
309.252
 20
228.225
 11
309.466
 21
228.554
  0
LINE
  8
0
 10
309.466
 20
228.554
 11
309.713
 21
228.859
  0
LINE
  8
0
 10
309.713
 20
228.859
 11
309.991
 21
229.137
  0
LINE
  8
0
 10
309.991
 20
229.137
 11
310.296
 21
229.384
  0
LINE
  8
0
 10
310.296
 20
229.384
 11
310.625
 21
229.598
  0
LINE
  8
0
 10
310.625
 20
229.598
 11
310.975
 21
229.776
  0
LINE
  8
0
 10
310.975
 20
229.776
 11
311.341
 21
229.916
  0
LINE
  8
0
 10
311.341
 20
229.916
 11
311.72
 21
230.018
  0
LINE
  8
0
 10
311.72
 20
230.018
 11
312.108
 21
230.079
  0
LINE
  8
0
 10
312.108
 20
230.079
 11
312.5
 21
230.1
  0
LINE
  8
0
 10
312.5
 20
230.1
 11
312.892
 21
230.079
  0
LINE
  8
0
 10
312.892
 20
230.079
 11
313.28
 21
230.018
  0
LINE
  8
0
 10
313.28
 20
230.018
 11
313.659
 21
229.916
  0
LINE
  8
0
 10
313.659
 20
229.916
 11
314.025
 21
229.776
  0
LINE
  8
0
 10
314.025
 20
229.776
 11
314.375
 21
229.598
  0
LINE
  8
0
 10
314.375
 20
229.598
 11
314.704
 21
229.384
  0
LINE
  8
0
 10
314.704
 20
229.384
 11
315.009
 21
229.137
  0
LINE
  8
0
 10
315.009
 20
229.137
 11
315.287
 21
228.859
  0
LINE
  8
0
 10
315.287
 20
228.859
 11
315.534
 21
228.554
  0
LINE
  8
0
 10
315.534
 20
228.554
 11
315.748
 21
228.225
  0
LINE
  8
0
 10
315.748
 20
228.225
 11
315.926
 21
227.875
  0
LINE
  8
0
 10
315.926
 20
227.875
 11
316.066
 21
227.509
  0
LINE
  8
0
 10
316.066
 20
227.509
 11
316.168
 21
227.13
  0
LINE
  8
0
 10
316.168
 20
227.13
 11
316.229
 21
226.742
  0
LINE
  8
0
 10
316.229
 20
226.742
 11
316.25
 21
226.35
  0
LINE
  8
0
 10
316.25
 20
226.35
 11
316.229
 21
225.958
  0
LINE
  8
0
 10
316.229
 20
225.958
 11
316.168
 21
225.57
  0
LINE
  8
0
 10
316.168
 20
225.57
 11
316.066
 21
225.191
  0
LINE
  8
0
 10
316.066
 20
225.191
 11
315.926
 21
224.825
  0
LINE
  8
0
 10
315.926
 20
224.825
 11
315.748
 21
224.475
  0
LINE
  8
0
 10
315.748
 20
224.475
 11
315.534
 21
224.146
  0
LINE
  8
0
 10
315.534
 20
224.146
 11
315.287
 21
223.841
  0
LINE
  8
0
 10
315.287
 20
223.841
 11
315.009
 21
223.563
  0
LINE
  8
0
 10
315.009
 20
223.563
 11
314.704
 21
223.316
  0
LINE
  8
0
 10
314.704
 20
223.316
 11
314.375
 21
223.102
  0
LINE
  8
0
 10
314.375
 20
223.102
 11
314.025
 21
222.924
  0
LINE
  8
0
 10
314.025
 20
222.924
 11
313.659
 21
222.784
  0
LINE
  8
0
 10
313.659
 20
222.784
 11
313.28
 21
222.682
  0
LINE
  8
0
 10
313.28
 20
222.682
 11
312.892
 21
222.621
  0
LINE
  8
0
 10
312.892
 20
222.621
 11
312.5
 21
222.6
  0
LINE
  8
0
 10
312.5
 20
222.6
 11
312.108
 21
222.621
  0
LINE
  8
0
 10
-90.3088
 20
224.678
 11
-90.5489
 21
224.741
  0
LINE
  8
0
 10
-90.5489
 20
224.741
 11
-90.7773
 21
224.838
  0
LINE
  8
0
 10
-90.7773
 20
224.838
 11
-90.9892
 21
224.967
  0
LINE
  8
0
 10
-90.9892
 20
224.967
 11
-91.1799
 21
225.126
  0
LINE
  8
0
 10
-91.1799
 20
225.126
 11
-91.3455
 21
225.311
  0
LINE
  8
0
 10
-91.3455
 20
225.311
 11
-91.4825
 21
225.518
  0
LINE
  8
0
 10
-91.4825
 20
225.518
 11
-91.5878
 21
225.743
  0
LINE
  8
0
 10
-91.5878
 20
225.743
 11
-91.6593
 21
225.98
  0
LINE
  8
0
 10
-91.6593
 20
225.98
 11
-91.6955
 21
226.226
  0
LINE
  8
0
 10
-91.6955
 20
226.226
 11
-91.6955
 21
226.474
  0
LINE
  8
0
 10
-91.6955
 20
226.474
 11
-91.6593
 21
226.72
  0
LINE
  8
0
 10
-91.6593
 20
226.72
 11
-91.5878
 21
226.957
  0
LINE
  8
0
 10
-91.5878
 20
226.957
 11
-91.4825
 21
227.182
  0
LINE
  8
0
 10
-91.4825
 20
227.182
 11
-91.3455
 21
227.389
  0
LINE
  8
0
 10
-91.3455
 20
227.389
 11
-91.1799
 21
227.574
  0
LINE
  8
0
 10
-91.1799
 20
227.574
 11
-90.9892
 21
227.733
  0
LINE
  8
0
 10
-90.9892
 20
227.733
 11
-90.7773
 21
227.862
  0
LINE
  8
0
 10
-90.7773
 20
227.862
 11
-90.5489
 21
227.959
  0
LINE
  8
0
 10
-90.5489
 20
227.959
 11
-90.3088
 21
228.022
  0
LINE
  8
0
 10
-90.3088
 20
228.022
 11
-90.0621
 21
228.049
  0
LINE
  8
0
 10
-90.0621
 20
228.049
 11
-89.8141
 21
228.04
  0
LINE
  8
0
 10
-89.8141
 20
228.04
 11
-89.57
 21
227.995
  0
LINE
  8
0
 10
-89.57
 20
227.995
 11
-89.3351
 21
227.915
  0
LINE
  8
0
 10
-89.3351
 20
227.915
 11
-89.1144
 21
227.801
  0
LINE
  8
0
 10
-89.1144
 20
227.801
 11
-88.9126
 21
227.657
  0
LINE
  8
0
 10
-88.9126
 20
227.657
 11
-88.7339
 21
227.484
  0
LINE
  8
0
 10
-88.7339
 20
227.484
 11
-88.5822
 21
227.288
  0
LINE
  8
0
 10
-88.5822
 20
227.288
 11
-88.4607
 21
227.072
  0
LINE
  8
0
 10
-88.4607
 20
227.072
 11
-88.3721
 21
226.84
  0
LINE
  8
0
 10
-88.3721
 20
226.84
 11
-88.3181
 21
226.598
  0
LINE
  8
0
 10
-88.3181
 20
226.598
 11
-88.3
 21
226.35
  0
LINE
  8
0
 10
-88.3
 20
226.35
 11
-88.3181
 21
226.102
  0
LINE
  8
0
 10
-88.3181
 20
226.102
 11
-88.3721
 21
225.86
  0
LINE
  8
0
 10
-88.3721
 20
225.86
 11
-88.4607
 21
225.628
  0
LINE
  8
0
 10
-88.4607
 20
225.628
 11
-88.5822
 21
225.412
  0
LINE
  8
0
 10
-88.5822
 20
225.412
 11
-88.7339
 21
225.216
  0
LINE
  8
0
 10
-88.7339
 20
225.216
 11
-88.9126
 21
225.043
  0
LINE
  8
0
 10
-88.9126
 20
225.043
 11
-89.1144
 21
224.899
  0
LINE
  8
0
 10
-89.1144
 20
224.899
 11
-89.3351
 21
224.785
  0
LINE
  8
0
 10
-89.3351
 20
224.785
 11
-89.57
 21
224.705
  0
LINE
  8
0
 10
-89.57
 20
224.705
 11
-89.8141
 21
224.66
  0
LINE
  8
0
 10
-89.8141
 20
224.66
 11
-90.0621
 21
224.651
  0
LINE
  8
0
 10
-90.0621
 20
224.651
 11
-90.3088
 21
224.678
  0
LINE
  8
0
 10
-0.308777
 20
224.678
 11
-0.548889
 21
224.741
  0
LINE
  8
0
 10
-0.548889
 20
224.741
 11
-0.777298
 21
224.838
  0
LINE
  8
0
 10
-0.777298
 20
224.838
 11
-0.989151
 21
224.967
  0
LINE
  8
0
 10
-0.989151
 20
224.967
 11
-1.17992
 21
225.126
  0
LINE
  8
0
 10
-1.17992
 20
225.126
 11
-1.34554
 21
225.311
  0
LINE
  8
0
 10
-1.34554
 20
225.311
 11
-1.48248
 21
225.518
  0
LINE
  8
0
 10
-1.48248
 20
225.518
 11
-1.58781
 21
225.743
  0
LINE
  8
0
 10
-1.58781
 20
225.743
 11
-1.65932
 21
225.98
  0
LINE
  8
0
 10
-1.65932
 20
225.98
 11
-1.69545
 21
226.226
  0
LINE
  8
0
 10
-1.69545
 20
226.226
 11
-1.69545
 21
226.474
  0
LINE
  8
0
 10
-1.69545
 20
226.474
 11
-1.65932
 21
226.72
  0
LINE
  8
0
 10
-1.65932
 20
226.72
 11
-1.58781
 21
226.957
  0
LINE
  8
0
 10
-1.58781
 20
226.957
 11
-1.48248
 21
227.182
  0
LINE
  8
0
 10
-1.48248
 20
227.182
 11
-1.34554
 21
227.389
  0
LINE
  8
0
 10
-1.34554
 20
227.389
 11
-1.17992
 21
227.574
  0
LINE
  8
0
 10
-1.17992
 20
227.574
 11
-0.989151
 21
227.733
  0
LINE
  8
0
 10
-0.989151
 20
227.733
 11
-0.777298
 21
227.862
  0
LINE
  8
0
 10
-0.777298
 20
227.862
 11
-0.548889
 21
227.959
  0
LINE
  8
0
 10
-0.548889
 20
227.959
 11
-0.308777
 21
228.022
  0
LINE
  8
0
 10
-0.308777
 20
228.022
 11
-0.0620728
 21
228.049
  0
LINE
  8
0
 10
-0.0620728
 20
228.049
 11
0.185928
 21
228.04
  0
LINE
  8
0
 10
0.185928
 20
228.04
 11
0.429977
 21
227.995
  0
LINE
  8
0
 10
0.429977
 20
227.995
 11
0.664871
 21
227.915
  0
LINE
  8
0
 10
0.664871
 20
227.915
 11
0.88559
 21
227.801
  0
LINE
  8
0
 10
0.88559
 20
227.801
 11
1.08743
 21
227.657
  0
LINE
  8
0
 10
1.08743
 20
227.657
 11
1.2661
 21
227.484
  0
LINE
  8
0
 10
1.2661
 20
227.484
 11
1.41779
 21
227.288
  0
LINE
  8
0
 10
1.41779
 20
227.288
 11
1.53926
 21
227.072
  0
LINE
  8
0
 10
1.53926
 20
227.072
 11
1.62791
 21
226.84
  0
LINE
  8
0
 10
1.62791
 20
226.84
 11
1.68187
 21
226.598
  0
LINE
  8
0
 10
1.68187
 20
226.598
 11
1.7
 21
226.35
  0
LINE
  8
0
 10
1.7
 20
226.35
 11
1.68187
 21
226.102
  0
LINE
  8
0
 10
1.68187
 20
226.102
 11
1.62791
 21
225.86
  0
LINE
  8
0
 10
1.62791
 20
225.86
 11
1.53926
 21
225.628
  0
LINE
  8
0
 10
1.53926
 20
225.628
 11
1.41779
 21
225.412
  0
LINE
  8
0
 10
1.41779
 20
225.412
 11
1.2661
 21
225.216
  0
LINE
  8
0
 10
1.2661
 20
225.216
 11
1.08743
 21
225.043
  0
LINE
  8
0
 10
1.08743
 20
225.043
 11
0.88559
 21
224.899
  0
LINE
  8
0
 10
0.88559
 20
224.899
 11
0.664871
 21
224.785
  0
LINE
  8
0
 10
0.664871
 20
224.785
 11
0.429977
 21
224.705
  0
LINE
  8
0
 10
0.429977
 20
224.705
 11
0.185928
 21
224.66
  0
LINE
  8
0
 10
0.185928
 20
224.66
 11
-0.0620728
 21
224.651
  0
LINE
  8
0
 10
-0.0620728
 20
224.651
 11
-0.308777
 21
224.678
  0
LINE
  8
0
 10
269.691
 20
224.678
 11
269.451
 21
224.741
  0
LINE
  8
0
 10
269.451
 20
224.741
 11
269.223
 21
224.838
  0
LINE
  8
0
 10
269.223
 20
224.838
 11
269.011
 21
224.967
  0
LINE
  8
0
 10
269.011
 20
224.967
 11
268.82
 21
225.126
  0
LINE
  8
0
 10
268.82
 20
225.126
 11
268.654
 21
225.311
  0
LINE
  8
0
 10
268.654
 20
225.311
 11
268.518
 21
225.518
  0
LINE
  8
0
 10
268.518
 20
225.518
 11
268.412
 21
225.743
  0
LINE
  8
0
 10
268.412
 20
225.743
 11
268.341
 21
225.98
  0
LINE
  8
0
 10
268.341
 20
225.98
 11
268.305
 21
226.226
  0
LINE
  8
0
 10
268.305
 20
226.226
 11
268.305
 21
226.474
  0
LINE
  8
0
 10
268.305
 20
226.474
 11
268.341
 21
226.72
  0
LINE
  8
0
 10
268.341
 20
226.72
 11
268.412
 21
226.957
  0
LINE
  8
0
 10
268.412
 20
226.957
 11
268.518
 21
227.182
  0
LINE
  8
0
 10
268.518
 20
227.182
 11
268.654
 21
227.389
  0
LINE
  8
0
 10
268.654
 20
227.389
 11
268.82
 21
227.574
  0
LINE
  8
0
 10
268.82
 20
227.574
 11
269.011
 21
227.733
  0
LINE
  8
0
 10
269.011
 20
227.733
 11
269.223
 21
227.862
  0
LINE
  8
0
 10
269.223
 20
227.862
 11
269.451
 21
227.959
  0
LINE
  8
0
 10
269.451
 20
227.959
 11
269.691
 21
228.022
  0
LINE
  8
0
 10
269.691
 20
228.022
 11
269.938
 21
228.049
  0
LINE
  8
0
 10
269.938
 20
228.049
 11
270.186
 21
228.04
  0
LINE
  8
0
 10
270.186
 20
228.04
 11
270.43
 21
227.995
  0
LINE
  8
0
 10
270.43
 20
227.995
 11
270.665
 21
227.915
  0
LINE
  8
0
 10
270.665
 20
227.915
 11
270.886
 21
227.801
  0
LINE
  8
0
 10
270.886
 20
227.801
 11
271.087
 21
227.657
  0
LINE
  8
0
 10
271.087
 20
227.657
 11
271.266
 21
227.484
  0
LINE
  8
0
 10
271.266
 20
227.484
 11
271.418
 21
227.288
  0
LINE
  8
0
 10
271.418
 20
227.288
 11
271.539
 21
227.072
  0
LINE
  8
0
 10
271.539
 20
227.072
 11
271.628
 21
226.84
  0
LINE
  8
0
 10
271.628
 20
226.84
 11
271.682
 21
226.598
  0
LINE
  8
0
 10
271.682
 20
226.598
 11
271.7
 21
226.35
  0
LINE
  8
0
 10
271.7
 20
226.35
 11
271.682
 21
226.102
  0
LINE
  8
0
 10
271.682
 20
226.102
 11
271.628
 21
225.86
  0
LINE
  8
0
 10
271.628
 20
225.86
 11
271.539
 21
225.628
  0
LINE
  8
0
 10
271.539
 20
225.628
 11
271.418
 21
225.412
  0
LINE
  8
0
 10
271.418
 20
225.412
 11
271.266
 21
225.216
  0
LINE
  8
0
 10
271.266
 20
225.216
 11
271.087
 21
225.043
  0
LINE
  8
0
 10
271.087
 20
225.043
 11
270.886
 21
224.899
  0
LINE
  8
0
 10
270.886
 20
224.899
 11
270.665
 21
224.785
  0
LINE
  8
0
 10
270.665
 20
224.785
 11
270.43
 21
224.705
  0
LINE
  8
0
 10
270.43
 20
224.705
 11
270.186
 21
224.66
  0
LINE
  8
0
 10
270.186
 20
224.66
 11
269.938
 21
224.651
  0
LINE
  8
0
 10
269.938
 20
224.651
 11
269.691
 21
224.678
  0
LINE
  8
0
 10
179.691
 20
224.678
 11
179.451
 21
224.741
  0
LINE
  8
0
 10
179.451
 20
224.741
 11
179.223
 21
224.838
  0
LINE
  8
0
 10
179.223
 20
224.838
 11
179.011
 21
224.967
  0
LINE
  8
0
 10
179.011
 20
224.967
 11
178.82
 21
225.126
  0
LINE
  8
0
 10
178.82
 20
225.126
 11
178.654
 21
225.311
  0
LINE
  8
0
 10
178.654
 20
225.311
 11
178.518
 21
225.518
  0
LINE
  8
0
 10
178.518
 20
225.518
 11
178.412
 21
225.743
  0
LINE
  8
0
 10
178.412
 20
225.743
 11
178.341
 21
225.98
  0
LINE
  8
0
 10
178.341
 20
225.98
 11
178.305
 21
226.226
  0
LINE
  8
0
 10
178.305
 20
226.226
 11
178.305
 21
226.474
  0
LINE
  8
0
 10
178.305
 20
226.474
 11
178.341
 21
226.72
  0
LINE
  8
0
 10
178.341
 20
226.72
 11
178.412
 21
226.957
  0
LINE
  8
0
 10
178.412
 20
226.957
 11
178.518
 21
227.182
  0
LINE
  8
0
 10
178.518
 20
227.182
 11
178.654
 21
227.389
  0
LINE
  8
0
 10
178.654
 20
227.389
 11
178.82
 21
227.574
  0
LINE
  8
0
 10
178.82
 20
227.574
 11
179.011
 21
227.733
  0
LINE
  8
0
 10
179.011
 20
227.733
 11
179.223
 21
227.862
  0
LINE
  8
0
 10
179.223
 20
227.862
 11
179.451
 21
227.959
  0
LINE
  8
0
 10
179.451
 20
227.959
 11
179.691
 21
228.022
  0
LINE
  8
0
 10
179.691
 20
228.022
 11
179.938
 21
228.049
  0
LINE
  8
0
 10
179.938
 20
228.049
 11
180.186
 21
228.04
  0
LINE
  8
0
 10
180.186
 20
228.04
 11
180.43
 21
227.995
  0
LINE
  8
0
 10
180.43
 20
227.995
 11
180.665
 21
227.915
  0
LINE
  8
0
 10
180.665
 20
227.915
 11
180.886
 21
227.801
  0
LINE
  8
0
 10
180.886
 20
227.801
 11
181.087
 21
227.657
  0
LINE
  8
0
 10
181.087
 20
227.657
 11
181.266
 21
227.484
  0
LINE
  8
0
 10
181.266
 20
227.484
 11
181.418
 21
227.288
  0
LINE
  8
0
 10
181.418
 20
227.288
 11
181.539
 21
227.072
  0
LINE
  8
0
 10
181.539
 20
227.072
 11
181.628
 21
226.84
  0
LINE
  8
0
 10
181.628
 20
226.84
 11
181.682
 21
226.598
  0
LINE
  8
0
 10
181.682
 20
226.598
 11
181.7
 21
226.35
  0
LINE
  8
0
 10
181.7
 20
226.35
 11
181.682
 21
226.102
  0
LINE
  8
0
 10
181.682
 20
226.102
 11
181.628
 21
225.86
  0
LINE
  8
0
 10
181.628
 20
225.86
 11
181.539
 21
225.628
  0
LINE
  8
0
 10
181.539
 20
225.628
 11
181.418
 21
225.412
  0
LINE
  8
0
 10
181.418
 20
225.412
 11
181.266
 21
225.216
  0
LINE
  8
0
 10
181.266
 20
225.216
 11
181.087
 21
225.043
  0
LINE
  8
0
 10
181.087
 20
225.043
 11
180.886
 21
224.899
  0
LINE
  8
0
 10
180.886
 20
224.899
 11
180.665
 21
224.785
  0
LINE
  8
0
 10
180.665
 20
224.785
 11
180.43
 21
224.705
  0
LINE
  8
0
 10
180.43
 20
224.705
 11
180.186
 21
224.66
  0
LINE
  8
0
 10
180.186
 20
224.66
 11
179.938
 21
224.651
  0
LINE
  8
0
 10
179.938
 20
224.651
 11
179.691
 21
224.678
  0
LINE
  8
0
 10
89.6912
 20
224.678
 11
89.4511
 21
224.741
  0
LINE
  8
0
 10
89.4511
 20
224.741
 11
89.2227
 21
224.838
  0
LINE
  8
0
 10
89.2227
 20
224.838
 11
89.0108
 21
224.967
  0
LINE
  8
0
 10
89.0108
 20
224.967
 11
88.8201
 21
225.126
  0
LINE
  8
0
 10
88.8201
 20
225.126
 11
88.6544
 21
225.311
  0
LINE
  8
0
 10
88.6544
 20
225.311
 11
88.5175
 21
225.518
  0
LINE
  8
0
 10
88.5175
 20
225.518
 11
88.4122
 21
225.743
  0
LINE
  8
0
 10
88.4122
 20
225.743
 11
88.3407
 21
225.98
  0
LINE
  8
0
 10
88.3407
 20
225.98
 11
88.3045
 21
226.226
  0
LINE
  8
0
 10
88.3045
 20
226.226
 11
88.3045
 21
226.474
  0
LINE
  8
0
 10
88.3045
 20
226.474
 11
88.3407
 21
226.72
  0
LINE
  8
0
 10
88.3407
 20
226.72
 11
88.4122
 21
226.957
  0
LINE
  8
0
 10
88.4122
 20
226.957
 11
88.5175
 21
227.182
  0
LINE
  8
0
 10
88.5175
 20
227.182
 11
88.6544
 21
227.389
  0
LINE
  8
0
 10
88.6544
 20
227.389
 11
88.8201
 21
227.574
  0
LINE
  8
0
 10
88.8201
 20
227.574
 11
89.0108
 21
227.733
  0
LINE
  8
0
 10
89.0108
 20
227.733
 11
89.2227
 21
227.862
  0
LINE
  8
0
 10
89.2227
 20
227.862
 11
89.4511
 21
227.959
  0
LINE
  8
0
 10
89.4511
 20
227.959
 11
89.6912
 21
228.022
  0
LINE
  8
0
 10
89.6912
 20
228.022
 11
89.9379
 21
228.049
  0
LINE
  8
0
 10
89.9379
 20
228.049
 11
90.1859
 21
228.04
  0
LINE
  8
0
 10
90.1859
 20
228.04
 11
90.43
 21
227.995
  0
LINE
  8
0
 10
90.43
 20
227.995
 11
90.6649
 21
227.915
  0
LINE
  8
0
 10
90.6649
 20
227.915
 11
90.8856
 21
227.801
  0
LINE
  8
0
 10
90.8856
 20
227.801
 11
91.0874
 21
227.657
  0
LINE
  8
0
 10
91.0874
 20
227.657
 11
91.2661
 21
227.484
  0
LINE
  8
0
 10
91.2661
 20
227.484
 11
91.4178
 21
227.288
  0
LINE
  8
0
 10
91.4178
 20
227.288
 11
91.5393
 21
227.072
  0
LINE
  8
0
 10
91.5393
 20
227.072
 11
91.6279
 21
226.84
  0
LINE
  8
0
 10
91.6279
 20
226.84
 11
91.6819
 21
226.598
  0
LINE
  8
0
 10
91.6819
 20
226.598
 11
91.7
 21
226.35
  0
LINE
  8
0
 10
91.7
 20
226.35
 11
91.6819
 21
226.102
  0
LINE
  8
0
 10
91.6819
 20
226.102
 11
91.6279
 21
225.86
  0
LINE
  8
0
 10
91.6279
 20
225.86
 11
91.5393
 21
225.628
  0
LINE
  8
0
 10
91.5393
 20
225.628
 11
91.4178
 21
225.412
  0
LINE
  8
0
 10
91.4178
 20
225.412
 11
91.2661
 21
225.216
  0
LINE
  8
0
 10
91.2661
 20
225.216
 11
91.0874
 21
225.043
  0
LINE
  8
0
 10
91.0874
 20
225.043
 11
90.8856
 21
224.899
  0
LINE
  8
0
 10
90.8856
 20
224.899
 11
90.6649
 21
224.785
  0
LINE
  8
0
 10
90.6649
 20
224.785
 11
90.43
 21
224.705
  0
LINE
  8
0
 10
90.43
 20
224.705
 11
90.1859
 21
224.66
  0
LINE
  8
0
 10
90.1859
 20
224.66
 11
89.9379
 21
224.651
  0
LINE
  8
0
 10
89.9379
 20
224.651
 11
89.6912
 21
224.678
  0
LINE
  8
0
 10
-270.309
 20
224.678
 11
-270.549
 21
224.741
  0
LINE
  8
0
 10
-270.549
 20
224.741
 11
-270.777
 21
224.838
  0
LINE
  8
0
 10
-270.777
 20
224.838
 11
-270.989
 21
224.967
  0
LINE
  8
0
 10
-270.989
 20
224.967
 11
-271.18
 21
225.126
  0
LINE
  8
0
 10
-271.18
 20
225.126
 11
-271.346
 21
225.311
  0
LINE
  8
0
 10
-271.346
 20
225.311
 11
-271.482
 21
225.518
  0
LINE
  8
0
 10
-271.482
 20
225.518
 11
-271.588
 21
225.743
  0
LINE
  8
0
 10
-271.588
 20
225.743
 11
-271.659
 21
225.98
  0
LINE
  8
0
 10
-271.659
 20
225.98
 11
-271.695
 21
226.226
  0
LINE
  8
0
 10
-271.695
 20
226.226
 11
-271.695
 21
226.474
  0
LINE
  8
0
 10
-271.695
 20
226.474
 11
-271.659
 21
226.72
  0
LINE
  8
0
 10
-271.659
 20
226.72
 11
-271.588
 21
226.957
  0
LINE
  8
0
 10
-271.588
 20
226.957
 11
-271.482
 21
227.182
  0
LINE
  8
0
 10
-271.482
 20
227.182
 11
-271.346
 21
227.389
  0
LINE
  8
0
 10
-271.346
 20
227.389
 11
-271.18
 21
227.574
  0
LINE
  8
0
 10
-271.18
 20
227.574
 11
-270.989
 21
227.733
  0
LINE
  8
0
 10
-270.989
 20
227.733
 11
-270.777
 21
227.862
  0
LINE
  8
0
 10
-270.777
 20
227.862
 11
-270.549
 21
227.959
  0
LINE
  8
0
 10
-270.549
 20
227.959
 11
-270.309
 21
228.022
  0
LINE
  8
0
 10
-270.309
 20
228.022
 11
-270.062
 21
228.049
  0
LINE
  8
0
 10
-270.062
 20
228.049
 11
-269.814
 21
228.04
  0
LINE
  8
0
 10
-269.814
 20
228.04
 11
-269.57
 21
227.995
  0
LINE
  8
0
 10
-269.57
 20
227.995
 11
-269.335
 21
227.915
  0
LINE
  8
0
 10
-269.335
 20
227.915
 11
-269.114
 21
227.801
  0
LINE
  8
0
 10
-269.114
 20
227.801
 11
-268.913
 21
227.657
  0
LINE
  8
0
 10
-268.913
 20
227.657
 11
-268.734
 21
227.484
  0
LINE
  8
0
 10
-268.734
 20
227.484
 11
-268.582
 21
227.288
  0
LINE
  8
0
 10
-268.582
 20
227.288
 11
-268.461
 21
227.072
  0
LINE
  8
0
 10
-268.461
 20
227.072
 11
-268.372
 21
226.84
  0
LINE
  8
0
 10
-268.372
 20
226.84
 11
-268.318
 21
226.598
  0
LINE
  8
0
 10
-268.318
 20
226.598
 11
-268.3
 21
226.35
  0
LINE
  8
0
 10
-268.3
 20
226.35
 11
-268.318
 21
226.102
  0
LINE
  8
0
 10
-268.318
 20
226.102
 11
-268.372
 21
225.86
  0
LINE
  8
0
 10
-268.372
 20
225.86
 11
-268.461
 21
225.628
  0
LINE
  8
0
 10
-268.461
 20
225.628
 11
-268.582
 21
225.412
  0
LINE
  8
0
 10
-268.582
 20
225.412
 11
-268.734
 21
225.216
  0
LINE
  8
0
 10
-268.734
 20
225.216
 11
-268.913
 21
225.043
  0
LINE
  8
0
 10
-268.913
 20
225.043
 11
-269.114
 21
224.899
  0
LINE
  8
0
 10
-269.114
 20
224.899
 11
-269.335
 21
224.785
  0
LINE
  8
0
 10
-269.335
 20
224.785
 11
-269.57
 21
224.705
  0
LINE
  8
0
 10
-269.57
 20
224.705
 11
-269.814
 21
224.66
  0
LINE
  8
0
 10
-269.814
 20
224.66
 11
-270.062
 21
224.651
  0
LINE
  8
0
 10
-270.062
 20
224.651
 11
-270.309
 21
224.678
  0
LINE
  8
0
 10
-180.309
 20
224.678
 11
-180.549
 21
224.741
  0
LINE
  8
0
 10
-180.549
 20
224.741
 11
-180.777
 21
224.838
  0
LINE
  8
0
 10
-180.777
 20
224.838
 11
-180.989
 21
224.967
  0
LINE
  8
0
 10
-180.989
 20
224.967
 11
-181.18
 21
225.126
  0
LINE
  8
0
 10
-181.18
 20
225.126
 11
-181.346
 21
225.311
  0
LINE
  8
0
 10
-181.346
 20
225.311
 11
-181.482
 21
225.518
  0
LINE
  8
0
 10
-181.482
 20
225.518
 11
-181.588
 21
225.743
  0
LINE
  8
0
 10
-181.588
 20
225.743
 11
-181.659
 21
225.98
  0
LINE
  8
0
 10
-181.659
 20
225.98
 11
-181.695
 21
226.226
  0
LINE
  8
0
 10
-181.695
 20
226.226
 11
-181.695
 21
226.474
  0
LINE
  8
0
 10
-181.695
 20
226.474
 11
-181.659
 21
226.72
  0
LINE
  8
0
 10
-181.659
 20
226.72
 11
-181.588
 21
226.957
  0
LINE
  8
0
 10
-181.588
 20
226.957
 11
-181.482
 21
227.182
  0
LINE
  8
0
 10
-181.482
 20
227.182
 11
-181.346
 21
227.389
  0
LINE
  8
0
 10
-181.346
 20
227.389
 11
-181.18
 21
227.574
  0
LINE
  8
0
 10
-181.18
 20
227.574
 11
-180.989
 21
227.733
  0
LINE
  8
0
 10
-180.989
 20
227.733
 11
-180.777
 21
227.862
  0
LINE
  8
0
 10
-180.777
 20
227.862
 11
-180.549
 21
227.959
  0
LINE
  8
0
 10
-180.549
 20
227.959
 11
-180.309
 21
228.022
  0
LINE
  8
0
 10
-180.309
 20
228.022
 11
-180.062
 21
228.049
  0
LINE
  8
0
 10
-180.062
 20
228.049
 11
-179.814
 21
228.04
  0
LINE
  8
0
 10
-179.814
 20
228.04
 11
-179.57
 21
227.995
  0
LINE
  8
0
 10
-179.57
 20
227.995
 11
-179.335
 21
227.915
  0
LINE
  8
0
 10
-179.335
 20
227.915
 11
-179.114
 21
227.801
  0
LINE
  8
0
 10
-179.114
 20
227.801
 11
-178.913
 21
227.657
  0
LINE
  8
0
 10
-178.913
 20
227.657
 11
-178.734
 21
227.484
  0
LINE
  8
0
 10
-178.734
 20
227.484
 11
-178.582
 21
227.288
  0
LINE
  8
0
 10
-178.582
 20
227.288
 11
-178.461
 21
227.072
  0
LINE
  8
0
 10
-178.461
 20
227.072
 11
-178.372
 21
226.84
  0
LINE
  8
0
 10
-178.372
 20
226.84
 11
-178.318
 21
226.598
  0
LINE
  8
0
 10
-178.318
 20
226.598
 11
-178.3
 21
226.35
  0
LINE
  8
0
 10
-178.3
 20
226.35
 11
-178.318
 21
226.102
  0
LINE
  8
0
 10
-178.318
 20
226.102
 11
-178.372
 21
225.86
  0
LINE
  8
0
 10
-178.372
 20
225.86
 11
-178.461
 21
225.628
  0
LINE
  8
0
 10
-178.461
 20
225.628
 11
-178.582
 21
225.412
  0
LINE
  8
0
 10
-178.582
 20
225.412
 11
-178.734
 21
225.216
  0
LINE
  8
0
 10
-178.734
 20
225.216
 11
-178.913
 21
225.043
  0
LINE
  8
0
 10
-178.913
 20
225.043
 11
-179.114
 21
224.899
  0
LINE
  8
0
 10
-179.114
 20
224.899
 11
-179.335
 21
224.785
  0
LINE
  8
0
 10
-179.335
 20
224.785
 11
-179.57
 21
224.705
  0
LINE
  8
0
 10
-179.57
 20
224.705
 11
-179.814
 21
224.66
  0
LINE
  8
0
 10
-179.814
 20
224.66
 11
-180.062
 21
224.651
  0
LINE
  8
0
 10
-180.062
 20
224.651
 11
-180.309
 21
224.678
  0
LINE
  8
0
 10
312.191
 20
182.178
 11
311.951
 21
182.241
  0
LINE
  8
0
 10
311.951
 20
182.241
 11
311.723
 21
182.338
  0
LINE
  8
0
 10
311.723
 20
182.338
 11
311.511
 21
182.467
  0
LINE
  8
0
 10
311.511
 20
182.467
 11
311.32
 21
182.626
  0
LINE
  8
0
 10
311.32
 20
182.626
 11
311.154
 21
182.811
  0
LINE
  8
0
 10
311.154
 20
182.811
 11
311.018
 21
183.018
  0
LINE
  8
0
 10
311.018
 20
183.018
 11
310.912
 21
183.243
  0
LINE
  8
0
 10
310.912
 20
183.243
 11
310.841
 21
183.48
  0
LINE
  8
0
 10
310.841
 20
183.48
 11
310.805
 21
183.726
  0
LINE
  8
0
 10
310.805
 20
183.726
 11
310.805
 21
183.974
  0
LINE
  8
0
 10
310.805
 20
183.974
 11
310.841
 21
184.22
  0
LINE
  8
0
 10
310.841
 20
184.22
 11
310.912
 21
184.457
  0
LINE
  8
0
 10
310.912
 20
184.457
 11
311.018
 21
184.682
  0
LINE
  8
0
 10
311.018
 20
184.682
 11
311.154
 21
184.889
  0
LINE
  8
0
 10
311.154
 20
184.889
 11
311.32
 21
185.074
  0
LINE
  8
0
 10
311.32
 20
185.074
 11
311.511
 21
185.233
  0
LINE
  8
0
 10
311.511
 20
185.233
 11
311.723
 21
185.362
  0
LINE
  8
0
 10
311.723
 20
185.362
 11
311.951
 21
185.459
  0
LINE
  8
0
 10
311.951
 20
185.459
 11
312.191
 21
185.522
  0
LINE
  8
0
 10
312.191
 20
185.522
 11
312.438
 21
185.549
  0
LINE
  8
0
 10
312.438
 20
185.549
 11
312.686
 21
185.54
  0
LINE
  8
0
 10
312.686
 20
185.54
 11
312.93
 21
185.495
  0
LINE
  8
0
 10
312.93
 20
185.495
 11
313.165
 21
185.415
  0
LINE
  8
0
 10
313.165
 20
185.415
 11
313.386
 21
185.301
  0
LINE
  8
0
 10
313.386
 20
185.301
 11
313.587
 21
185.157
  0
LINE
  8
0
 10
313.587
 20
185.157
 11
313.766
 21
184.984
  0
LINE
  8
0
 10
313.766
 20
184.984
 11
313.918
 21
184.788
  0
LINE
  8
0
 10
313.918
 20
184.788
 11
314.039
 21
184.572
  0
LINE
  8
0
 10
314.039
 20
184.572
 11
314.128
 21
184.34
  0
LINE
  8
0
 10
314.128
 20
184.34
 11
314.182
 21
184.098
  0
LINE
  8
0
 10
314.182
 20
184.098
 11
314.2
 21
183.85
  0
LINE
  8
0
 10
314.2
 20
183.85
 11
314.182
 21
183.602
  0
LINE
  8
0
 10
314.182
 20
183.602
 11
314.128
 21
183.36
  0
LINE
  8
0
 10
314.128
 20
183.36
 11
314.039
 21
183.128
  0
LINE
  8
0
 10
314.039
 20
183.128
 11
313.918
 21
182.912
  0
LINE
  8
0
 10
313.918
 20
182.912
 11
313.766
 21
182.716
  0
LINE
  8
0
 10
313.766
 20
182.716
 11
313.587
 21
182.543
  0
LINE
  8
0
 10
313.587
 20
182.543
 11
313.386
 21
182.399
  0
LINE
  8
0
 10
313.386
 20
182.399
 11
313.165
 21
182.285
  0
LINE
  8
0
 10
313.165
 20
182.285
 11
312.93
 21
182.205
  0
LINE
  8
0
 10
312.93
 20
182.205
 11
312.686
 21
182.16
  0
LINE
  8
0
 10
312.686
 20
182.16
 11
312.438
 21
182.151
  0
LINE
  8
0
 10
312.438
 20
182.151
 11
312.191
 21
182.178
  0
LINE
  8
0
 10
-312.686
 20
182.16
 11
-312.93
 21
182.205
  0
LINE
  8
0
 10
-312.93
 20
182.205
 11
-313.165
 21
182.285
  0
LINE
  8
0
 10
-313.165
 20
182.285
 11
-313.386
 21
182.399
  0
LINE
  8
0
 10
-313.386
 20
182.399
 11
-313.587
 21
182.543
  0
LINE
  8
0
 10
-313.587
 20
182.543
 11
-313.766
 21
182.716
  0
LINE
  8
0
 10
-313.766
 20
182.716
 11
-313.918
 21
182.912
  0
LINE
  8
0
 10
-313.918
 20
182.912
 11
-314.039
 21
183.128
  0
LINE
  8
0
 10
-314.039
 20
183.128
 11
-314.128
 21
183.36
  0
LINE
  8
0
 10
-314.128
 20
183.36
 11
-314.182
 21
183.602
  0
LINE
  8
0
 10
-314.182
 20
183.602
 11
-314.2
 21
183.85
  0
LINE
  8
0
 10
-314.2
 20
183.85
 11
-314.182
 21
184.098
  0
LINE
  8
0
 10
-314.182
 20
184.098
 11
-314.128
 21
184.34
  0
LINE
  8
0
 10
-314.128
 20
184.34
 11
-314.039
 21
184.572
  0
LINE
  8
0
 10
-314.039
 20
184.572
 11
-313.918
 21
184.788
  0
LINE
  8
0
 10
-313.918
 20
184.788
 11
-313.766
 21
184.984
  0
LINE
  8
0
 10
-313.766
 20
184.984
 11
-313.587
 21
185.157
  0
LINE
  8
0
 10
-313.587
 20
185.157
 11
-313.386
 21
185.301
  0
LINE
  8
0
 10
-313.386
 20
185.301
 11
-313.165
 21
185.415
  0
LINE
  8
0
 10
-313.165
 20
185.415
 11
-312.93
 21
185.495
  0
LINE
  8
0
 10
-312.93
 20
185.495
 11
-312.686
 21
185.54
  0
LINE
  8
0
 10
-312.686
 20
185.54
 11
-312.438
 21
185.549
  0
LINE
  8
0
 10
-312.438
 20
185.549
 11
-312.191
 21
185.522
  0
LINE
  8
0
 10
-312.191
 20
185.522
 11
-311.951
 21
185.459
  0
LINE
  8
0
 10
-311.951
 20
185.459
 11
-311.723
 21
185.362
  0
LINE
  8
0
 10
-311.723
 20
185.362
 11
-311.511
 21
185.233
  0
LINE
  8
0
 10
-311.511
 20
185.233
 11
-311.32
 21
185.074
  0
LINE
  8
0
 10
-311.32
 20
185.074
 11
-311.154
 21
184.889
  0
LINE
  8
0
 10
-311.154
 20
184.889
 11
-311.018
 21
184.682
  0
LINE
  8
0
 10
-311.018
 20
184.682
 11
-310.912
 21
184.457
  0
LINE
  8
0
 10
-310.912
 20
184.457
 11
-310.841
 21
184.22
  0
LINE
  8
0
 10
-310.841
 20
184.22
 11
-310.805
 21
183.974
  0
LINE
  8
0
 10
-310.805
 20
183.974
 11
-310.805
 21
183.726
  0
LINE
  8
0
 10
-310.805
 20
183.726
 11
-310.841
 21
183.48
  0
LINE
  8
0
 10
-310.841
 20
183.48
 11
-310.912
 21
183.243
  0
LINE
  8
0
 10
-310.912
 20
183.243
 11
-311.018
 21
183.018
  0
LINE
  8
0
 10
-311.018
 20
183.018
 11
-311.154
 21
182.811
  0
LINE
  8
0
 10
-311.154
 20
182.811
 11
-311.32
 21
182.626
  0
LINE
  8
0
 10
-311.32
 20
182.626
 11
-311.511
 21
182.467
  0
LINE
  8
0
 10
-311.511
 20
182.467
 11
-311.723
 21
182.338
  0
LINE
  8
0
 10
-311.723
 20
182.338
 11
-311.951
 21
182.241
  0
LINE
  8
0
 10
-311.951
 20
182.241
 11
-312.191
 21
182.178
  0
LINE
  8
0
 10
-312.191
 20
182.178
 11
-312.438
 21
182.151
  0
LINE
  8
0
 10
-312.438
 20
182.151
 11
-312.686
 21
182.16
  0
LINE
  8
0
 10
-312.686
 20
90.2352
 11
-312.93
 21
90.2803
  0
LINE
  8
0
 10
-312.93
 20
90.2803
 11
-313.165
 21
90.3604
  0
LINE
  8
0
 10
-313.165
 20
90.3604
 11
-313.386
 21
90.4739
  0
LINE
  8
0
 10
-313.386
 20
90.4739
 11
-313.587
 21
90.6183
  0
LINE
  8
0
 10
-313.587
 20
90.6183
 11
-313.766
 21
90.7906
  0
LINE
  8
0
 10
-313.766
 20
90.7906
 11
-313.918
 21
90.987
  0
LINE
  8
0
 10
-313.918
 20
90.987
 11
-314.039
 21
91.2034
  0
LINE
  8
0
 10
-314.039
 20
91.2034
 11
-314.128
 21
91.4352
  0
LINE
  8
0
 10
-314.128
 20
91.4352
 11
-314.182
 21
91.6775
  0
LINE
  8
0
 10
-314.182
 20
91.6775
 11
-314.2
 21
91.925
  0
LINE
  8
0
 10
-314.2
 20
91.925
 11
-314.182
 21
92.1725
  0
LINE
  8
0
 10
-314.182
 20
92.1725
 11
-314.128
 21
92.4148
  0
LINE
  8
0
 10
-314.128
 20
92.4148
 11
-314.039
 21
92.6466
  0
LINE
  8
0
 10
-314.039
 20
92.6466
 11
-313.918
 21
92.863
  0
LINE
  8
0
 10
-313.918
 20
92.863
 11
-313.766
 21
93.0594
  0
LINE
  8
0
 10
-313.766
 20
93.0594
 11
-313.587
 21
93.2317
  0
LINE
  8
0
 10
-313.587
 20
93.2317
 11
-313.386
 21
93.3761
  0
LINE
  8
0
 10
-313.386
 20
93.3761
 11
-313.165
 21
93.4896
  0
LINE
  8
0
 10
-313.165
 20
93.4896
 11
-312.93
 21
93.5697
  0
LINE
  8
0
 10
-312.93
 20
93.5697
 11
-312.686
 21
93.6148
  0
LINE
  8
0
 10
-312.686
 20
93.6148
 11
-312.438
 21
93.6239
  0
LINE
  8
0
 10
-312.438
 20
93.6239
 11
-312.191
 21
93.5967
  0
LINE
  8
0
 10
-312.191
 20
93.5967
 11
-311.951
 21
93.534
  0
LINE
  8
0
 10
-311.951
 20
93.534
 11
-311.723
 21
93.4369
  0
LINE
  8
0
 10
-311.723
 20
93.4369
 11
-311.511
 21
93.3076
  0
LINE
  8
0
 10
-311.511
 20
93.3076
 11
-311.32
 21
93.1488
  0
LINE
  8
0
 10
-311.32
 20
93.1488
 11
-311.154
 21
92.964
  0
LINE
  8
0
 10
-311.154
 20
92.964
 11
-311.018
 21
92.757
  0
LINE
  8
0
 10
-311.018
 20
92.757
 11
-310.912
 21
92.5323
  0
LINE
  8
0
 10
-310.912
 20
92.5323
 11
-310.841
 21
92.2946
  0
LINE
  8
0
 10
-310.841
 20
92.2946
 11
-310.805
 21
92.0491
  0
LINE
  8
0
 10
-310.805
 20
92.0491
 11
-310.805
 21
91.8009
  0
LINE
  8
0
 10
-310.805
 20
91.8009
 11
-310.841
 21
91.5554
  0
LINE
  8
0
 10
-310.841
 20
91.5554
 11
-310.912
 21
91.3177
  0
LINE
  8
0
 10
-310.912
 20
91.3177
 11
-311.018
 21
91.093
  0
LINE
  8
0
 10
-311.018
 20
91.093
 11
-311.154
 21
90.886
  0
LINE
  8
0
 10
-311.154
 20
90.886
 11
-311.32
 21
90.7012
  0
LINE
  8
0
 10
-311.32
 20
90.7012
 11
-311.511
 21
90.5424
  0
LINE
  8
0
 10
-311.511
 20
90.5424
 11
-311.723
 21
90.4131
  0
LINE
  8
0
 10
-311.723
 20
90.4131
 11
-311.951
 21
90.3161
  0
LINE
  8
0
 10
-311.951
 20
90.3161
 11
-312.191
 21
90.2533
  0
LINE
  8
0
 10
-312.191
 20
90.2533
 11
-312.438
 21
90.2261
  0
LINE
  8
0
 10
-312.438
 20
90.2261
 11
-312.686
 21
90.2352
  0
LINE
  8
0
 10
312.191
 20
90.2533
 11
311.951
 21
90.3161
  0
LINE
  8
0
 10
311.951
 20
90.3161
 11
311.723
 21
90.4131
  0
LINE
  8
0
 10
311.723
 20
90.4131
 11
311.511
 21
90.5424
  0
LINE
  8
0
 10
311.511
 20
90.5424
 11
311.32
 21
90.7012
  0
LINE
  8
0
 10
311.32
 20
90.7012
 11
311.154
 21
90.886
  0
LINE
  8
0
 10
311.154
 20
90.886
 11
311.018
 21
91.093
  0
LINE
  8
0
 10
311.018
 20
91.093
 11
310.912
 21
91.3177
  0
LINE
  8
0
 10
310.912
 20
91.3177
 11
310.841
 21
91.5554
  0
LINE
  8
0
 10
310.841
 20
91.5554
 11
310.805
 21
91.8009
  0
LINE
  8
0
 10
310.805
 20
91.8009
 11
310.805
 21
92.0491
  0
LINE
  8
0
 10
310.805
 20
92.0491
 11
310.841
 21
92.2946
  0
LINE
  8
0
 10
310.841
 20
92.2946
 11
310.912
 21
92.5323
  0
LINE
  8
0
 10
310.912
 20
92.5323
 11
311.018
 21
92.757
  0
LINE
  8
0
 10
311.018
 20
92.757
 11
311.154
 21
92.964
  0
LINE
  8
0
 10
311.154
 20
92.964
 11
311.32
 21
93.1488
  0
LINE
  8
0
 10
311.32
 20
93.1488
 11
311.511
 21
93.3076
  0
LINE
  8
0
 10
311.511
 20
93.3076
 11
311.723
 21
93.4369
  0
LINE
  8
0
 10
311.723
 20
93.4369
 11
311.951
 21
93.534
  0
LINE
  8
0
 10
311.951
 20
93.534
 11
312.191
 21
93.5967
  0
LINE
  8
0
 10
312.191
 20
93.5967
 11
312.438
 21
93.6239
  0
LINE
  8
0
 10
312.438
 20
93.6239
 11
312.686
 21
93.6148
  0
LINE
  8
0
 10
312.686
 20
93.6148
 11
312.93
 21
93.5697
  0
LINE
  8
0
 10
312.93
 20
93.5697
 11
313.165
 21
93.4896
  0
LINE
  8
0
 10
313.165
 20
93.4896
 11
313.386
 21
93.3761
  0
LINE
  8
0
 10
313.386
 20
93.3761
 11
313.587
 21
93.2317
  0
LINE
  8
0
 10
313.587
 20
93.2317
 11
313.766
 21
93.0594
  0
LINE
  8
0
 10
313.766
 20
93.0594
 11
313.918
 21
92.863
  0
LINE
  8
0
 10
313.918
 20
92.863
 11
314.039
 21
92.6466
  0
LINE
  8
0
 10
314.039
 20
92.6466
 11
314.128
 21
92.4148
  0
LINE
  8
0
 10
314.128
 20
92.4148
 11
314.182
 21
92.1725
  0
LINE
  8
0
 10
314.182
 20
92.1725
 11
314.2
 21
91.925
  0
LINE
  8
0
 10
314.2
 20
91.925
 11
314.182
 21
91.6775
  0
LINE
  8
0
 10
314.182
 20
91.6775
 11
314.128
 21
91.4352
  0
LINE
  8
0
 10
314.128
 20
91.4352
 11
314.039
 21
91.2034
  0
LINE
  8
0
 10
314.039
 20
91.2034
 11
313.918
 21
90.987
  0
LINE
  8
0
 10
313.918
 20
90.987
 11
313.766
 21
90.7906
  0
LINE
  8
0
 10
313.766
 20
90.7906
 11
313.587
 21
90.6183
  0
LINE
  8
0
 10
313.587
 20
90.6183
 11
313.386
 21
90.4739
  0
LINE
  8
0
 10
313.386
 20
90.4739
 11
313.165
 21
90.3604
  0
LINE
  8
0
 10
313.165
 20
90.3604
 11
312.93
 21
90.2803
  0
LINE
  8
0
 10
312.93
 20
90.2803
 11
312.686
 21
90.2352
  0
LINE
  8
0
 10
312.686
 20
90.2352
 11
312.438
 21
90.2261
  0
LINE
  8
0
 10
312.438
 20
90.2261
 11
312.191
 21
90.2533
  0
LINE
  8
0
 10
312.191
 20
-1.67171
 11
311.951
 21
-1.60893
  0
LINE
  8
0
 10
311.951
 20
-1.60893
 11
311.723
 21
-1.51187
  0
LINE
  8
0
 10
311.723
 20
-1.51187
 11
311.511
 21
-1.38258
  0
LINE
  8
0
 10
311.511
 20
-1.38258
 11
311.32
 21
-1.22383
  0
LINE
  8
0
 10
311.32
 20
-1.22383
 11
311.154
 21
-1.03899
  0
LINE
  8
0
 10
311.154
 20
-1.03899
 11
311.018
 21
-0.832001
  0
LINE
  8
0
 10
311.018
 20
-0.832001
 11
310.912
 21
-0.607285
  0
LINE
  8
0
 10
310.912
 20
-0.607285
 11
310.841
 21
-0.369629
  0
LINE
  8
0
 10
310.841
 20
-0.369629
 11
310.805
 21
-0.124084
  0
LINE
  8
0
 10
310.805
 20
-0.124084
 11
310.805
 21
0.124084
  0
LINE
  8
0
 10
310.805
 20
0.124084
 11
310.841
 21
0.369629
  0
LINE
  8
0
 10
310.841
 20
0.369629
 11
310.912
 21
0.607285
  0
LINE
  8
0
 10
310.912
 20
0.607285
 11
311.018
 21
0.832001
  0
LINE
  8
0
 10
311.018
 20
0.832001
 11
311.154
 21
1.03899
  0
LINE
  8
0
 10
311.154
 20
1.03899
 11
311.32
 21
1.22383
  0
LINE
  8
0
 10
311.32
 20
1.22383
 11
311.511
 21
1.38258
  0
LINE
  8
0
 10
311.511
 20
1.38258
 11
311.723
 21
1.51187
  0
LINE
  8
0
 10
311.723
 20
1.51187
 11
311.951
 21
1.60893
  0
LINE
  8
0
 10
311.951
 20
1.60893
 11
312.191
 21
1.67171
  0
LINE
  8
0
 10
312.191
 20
1.67171
 11
312.438
 21
1.69885
  0
LINE
  8
0
 10
312.438
 20
1.69885
 11
312.686
 21
1.68979
  0
LINE
  8
0
 10
312.686
 20
1.68979
 11
312.93
 21
1.64471
  0
LINE
  8
0
 10
312.93
 20
1.64471
 11
313.165
 21
1.56458
  0
LINE
  8
0
 10
313.165
 20
1.56458
 11
313.386
 21
1.4511
  0
LINE
  8
0
 10
313.386
 20
1.4511
 11
313.587
 21
1.30669
  0
LINE
  8
0
 10
313.587
 20
1.30669
 11
313.766
 21
1.13443
  0
LINE
  8
0
 10
313.766
 20
1.13443
 11
313.918
 21
0.938004
  0
LINE
  8
0
 10
313.918
 20
0.938004
 11
314.039
 21
0.721573
  0
LINE
  8
0
 10
314.039
 20
0.721573
 11
314.128
 21
0.489761
  0
LINE
  8
0
 10
314.128
 20
0.489761
 11
314.182
 21
0.247513
  0
LINE
  8
0
 10
314.182
 20
0.247513
 11
314.2
 21
0
  0
LINE
  8
0
 10
314.2
 20
0
 11
314.182
 21
-0.247513
  0
LINE
  8
0
 10
314.182
 20
-0.247513
 11
314.128
 21
-0.489761
  0
LINE
  8
0
 10
314.128
 20
-0.489761
 11
314.039
 21
-0.721573
  0
LINE
  8
0
 10
314.039
 20
-0.721573
 11
313.918
 21
-0.938004
  0
LINE
  8
0
 10
313.918
 20
-0.938004
 11
313.766
 21
-1.13443
  0
LINE
  8
0
 10
313.766
 20
-1.13443
 11
313.587
 21
-1.30669
  0
LINE
  8
0
 10
313.587
 20
-1.30669
 11
313.386
 21
-1.4511
  0
LINE
  8
0
 10
313.386
 20
-1.4511
 11
313.165
 21
-1.56458
  0
LINE
  8
0
 10
313.165
 20
-1.56458
 11
312.93
 21
-1.64471
  0
LINE
  8
0
 10
312.93
 20
-1.64471
 11
312.686
 21
-1.68979
  0
LINE
  8
0
 10
312.686
 20
-1.68979
 11
312.438
 21
-1.69885
  0
LINE
  8
0
 10
312.438
 20
-1.69885
 11
312.191
 21
-1.67171
  0
LINE
  8
0
 10
-312.686
 20
-1.68979
 11
-312.93
 21
-1.64471
  0
LINE
  8
0
 10
-312.93
 20
-1.64471
 11
-313.165
 21
-1.56458
  0
LINE
  8
0
 10
-313.165
 20
-1.56458
 11
-313.386
 21
-1.4511
  0
LINE
  8
0
 10
-313.386
 20
-1.4511
 11
-313.587
 21
-1.30669
  0
LINE
  8
0
 10
-313.587
 20
-1.30669
 11
-313.766
 21
-1.13443
  0
LINE
  8
0
 10
-313.766
 20
-1.13443
 11
-313.918
 21
-0.938004
  0
LINE
  8
0
 10
-313.918
 20
-0.938004
 11
-314.039
 21
-0.721573
  0
LINE
  8
0
 10
-314.039
 20
-0.721573
 11
-314.128
 21
-0.489761
  0
LINE
  8
0
 10
-314.128
 20
-0.489761
 11
-314.182
 21
-0.247513
  0
LINE
  8
0
 10
-314.182
 20
-0.247513
 11
-314.2
 21
0
  0
LINE
  8
0
 10
-314.2
 20
0
 11
-314.182
 21
0.247513
  0
LINE
  8
0
 10
-314.182
 20
0.247513
 11
-314.128
 21
0.489761
  0
LINE
  8
0
 10
-314.128
 20
0.489761
 11
-314.039
 21
0.721573
  0
LINE
  8
0
 10
-314.039
 20
0.721573
 11
-313.918
 21
0.938004
  0
LINE
  8
0
 10
-313.918
 20
0.938004
 11
-313.766
 21
1.13443
  0
LINE
  8
0
 10
-313.766
 20
1.13443
 11
-313.587
 21
1.30669
  0
LINE
  8
0
 10
-313.587
 20
1.30669
 11
-313.386
 21
1.4511
  0
LINE
  8
0
 10
-313.386
 20
1.4511
 11
-313.165
 21
1.56458
  0
LINE
  8
0
 10
-313.165
 20
1.56458
 11
-312.93
 21
1.64471
  0
LINE
  8
0
 10
-312.93
 20
1.64471
 11
-312.686
 21
1.68979
  0
LINE
  8
0
 10
-312.686
 20
1.68979
 11
-312.438
 21
1.69885
  0
LINE
  8
0
 10
-312.438
 20
1.69885
 11
-312.191
 21
1.67171
  0
LINE
  8
0
 10
-312.191
 20
1.67171
 11
-311.951
 21
1.60893
  0
LINE
  8
0
 10
-311.951
 20
1.60893
 11
-311.723
 21
1.51187
  0
LINE
  8
0
 10
-311.723
 20
1.51187
 11
-311.511
 21
1.38258
  0
LINE
  8
0
 10
-311.511
 20
1.38258
 11
-311.32
 21
1.22383
  0
LINE
  8
0
 10
-311.32
 20
1.22383
 11
-311.154
 21
1.03899
  0
LINE
  8
0
 10
-311.154
 20
1.03899
 11
-311.018
 21
0.832001
  0
LINE
  8
0
 10
-311.018
 20
0.832001
 11
-310.912
 21
0.607285
  0
LINE
  8
0
 10
-310.912
 20
0.607285
 11
-310.841
 21
0.369629
  0
LINE
  8
0
 10
-310.841
 20
0.369629
 11
-310.805
 21
0.124084
  0
LINE
  8
0
 10
-310.805
 20
0.124084
 11
-310.805
 21
-0.124084
  0
LINE
  8
0
 10
-310.805
 20
-0.124084
 11
-310.841
 21
-0.369629
  0
LINE
  8
0
 10
-310.841
 20
-0.369629
 11
-310.912
 21
-0.607285
  0
LINE
  8
0
 10
-310.912
 20
-0.607285
 11
-311.018
 21
-0.832001
  0
LINE
  8
0
 10
-311.018
 20
-0.832001
 11
-311.154
 21
-1.03899
  0
LINE
  8
0
 10
-311.154
 20
-1.03899
 11
-311.32
 21
-1.22383
  0
LINE
  8
0
 10
-311.32
 20
-1.22383
 11
-311.511
 21
-1.38258
  0
LINE
  8
0
 10
-311.511
 20
-1.38258
 11
-311.723
 21
-1.51187
  0
LINE
  8
0
 10
-311.723
 20
-1.51187
 11
-311.951
 21
-1.60893
  0
LINE
  8
0
 10
-311.951
 20
-1.60893
 11
-312.191
 21
-1.67171
  0
LINE
  8
0
 10
-312.191
 20
-1.67171
 11
-312.438
 21
-1.69885
  0
LINE
  8
0
 10
-312.438
 20
-1.69885
 11
-312.686
 21
-1.68979
  0
LINE
  8
0
 10
-312.686
 20
-93.6148
 11
-312.93
 21
-93.5697
  0
LINE
  8
0
 10
-312.93
 20
-93.5697
 11
-313.165
 21
-93.4896
  0
LINE
  8
0
 10
-313.165
 20
-93.4896
 11
-313.386
 21
-93.3761
  0
LINE
  8
0
 10
-313.386
 20
-93.3761
 11
-313.587
 21
-93.2317
  0
LINE
  8
0
 10
-313.587
 20
-93.2317
 11
-313.766
 21
-93.0594
  0
LINE
  8
0
 10
-313.766
 20
-93.0594
 11
-313.918
 21
-92.863
  0
LINE
  8
0
 10
-313.918
 20
-92.863
 11
-314.039
 21
-92.6466
  0
LINE
  8
0
 10
-314.039
 20
-92.6466
 11
-314.128
 21
-92.4148
  0
LINE
  8
0
 10
-314.128
 20
-92.4148
 11
-314.182
 21
-92.1725
  0
LINE
  8
0
 10
-314.182
 20
-92.1725
 11
-314.2
 21
-91.925
  0
LINE
  8
0
 10
-314.2
 20
-91.925
 11
-314.182
 21
-91.6775
  0
LINE
  8
0
 10
-314.182
 20
-91.6775
 11
-314.128
 21
-91.4352
  0
LINE
  8
0
 10
-314.128
 20
-91.4352
 11
-314.039
 21
-91.2034
  0
LINE
  8
0
 10
-314.039
 20
-91.2034
 11
-313.918
 21
-90.987
  0
LINE
  8
0
 10
-313.918
 20
-90.987
 11
-313.766
 21
-90.7906
  0
LINE
  8
0
 10
-313.766
 20
-90.7906
 11
-313.587
 21
-90.6183
  0
LINE
  8
0
 10
-313.587
 20
-90.6183
 11
-313.386
 21
-90.4739
  0
LINE
  8
0
 10
-313.386
 20
-90.4739
 11
-313.165
 21
-90.3604
  0
LINE
  8
0
 10
-313.165
 20
-90.3604
 11
-312.93
 21
-90.2803
  0
LINE
  8
0
 10
-312.93
 20
-90.2803
 11
-312.686
 21
-90.2352
  0
LINE
  8
0
 10
-312.686
 20
-90.2352
 11
-312.438
 21
-90.2261
  0
LINE
  8
0
 10
-312.438
 20
-90.2261
 11
-312.191
 21
-90.2533
  0
LINE
  8
0
 10
-312.191
 20
-90.2533
 11
-311.951
 21
-90.3161
  0
LINE
  8
0
 10
-311.951
 20
-90.3161
 11
-311.723
 21
-90.4131
  0
LINE
  8
0
 10
-311.723
 20
-90.4131
 11
-311.511
 21
-90.5424
  0
LINE
  8
0
 10
-311.511
 20
-90.5424
 11
-311.32
 21
-90.7012
  0
LINE
  8
0
 10
-311.32
 20
-90.7012
 11
-311.154
 21
-90.886
  0
LINE
  8
0
 10
-311.154
 20
-90.886
 11
-311.018
 21
-91.093
  0
LINE
  8
0
 10
-311.018
 20
-91.093
 11
-310.912
 21
-91.3177
  0
LINE
  8
0
 10
-310.912
 20
-91.3177
 11
-310.841
 21
-91.5554
  0
LINE
  8
0
 10
-310.841
 20
-91.5554
 11
-310.805
 21
-91.8009
  0
LINE
  8
0
 10
-310.805
 20
-91.8009
 11
-310.805
 21
-92.0491
  0
LINE
  8
0
 10
-310.805
 20
-92.0491
 11
-310.841
 21
-92.2946
  0
LINE
  8
0
 10
-310.841
 20
-92.2946
 11
-310.912
 21
-92.5323
  0
LINE
  8
0
 10
-310.912
 20
-92.5323
 11
-311.018
 21
-92.757
  0
LINE
  8
0
 10
-311.018
 20
-92.757
 11
-311.154
 21
-92.964
  0
LINE
  8
0
 10
-311.154
 20
-92.964
 11
-311.32
 21
-93.1488
  0
LINE
  8
0
 10
-311.32
 20
-93.1488
 11
-311.511
 21
-93.3076
  0
LINE
  8
0
 10
-311.511
 20
-93.3076
 11
-311.723
 21
-93.4369
  0
LINE
  8
0
 10
-311.723
 20
-93.4369
 11
-311.951
 21
-93.534
  0
LINE
  8
0
 10
-311.951
 20
-93.534
 11
-312.191
 21
-93.5967
  0
LINE
  8
0
 10
-312.191
 20
-93.5967
 11
-312.438
 21
-93.6239
  0
LINE
  8
0
 10
-312.438
 20
-93.6239
 11
-312.686
 21
-93.6148
  0
LINE
  8
0
 10
312.191
 20
-93.5967
 11
311.951
 21
-93.534
  0
LINE
  8
0
 10
311.951
 20
-93.534
 11
311.723
 21
-93.4369
  0
LINE
  8
0
 10
311.723
 20
-93.4369
 11
311.511
 21
-93.3076
  0
LINE
  8
0
 10
311.511
 20
-93.3076
 11
311.32
 21
-93.1488
  0
LINE
  8
0
 10
311.32
 20
-93.1488
 11
311.154
 21
-92.964
  0
LINE
  8
0
 10
311.154
 20
-92.964
 11
311.018
 21
-92.757
  0
LINE
  8
0
 10
311.018
 20
-92.757
 11
310.912
 21
-92.5323
  0
LINE
  8
0
 10
310.912
 20
-92.5323
 11
310.841
 21
-92.2946
  0
LINE
  8
0
 10
310.841
 20
-92.2946
 11
310.805
 21
-92.0491
  0
LINE
  8
0
 10
310.805
 20
-92.0491
 11
310.805
 21
-91.8009
  0
LINE
  8
0
 10
310.805
 20
-91.8009
 11
310.841
 21
-91.5554
  0
LINE
  8
0
 10
310.841
 20
-91.5554
 11
310.912
 21
-91.3177
  0
LINE
  8
0
 10
310.912
 20
-91.3177
 11
311.018
 21
-91.093
  0
LINE
  8
0
 10
311.018
 20
-91.093
 11
311.154
 21
-90.886
  0
LINE
  8
0
 10
311.154
 20
-90.886
 11
311.32
 21
-90.7012
  0
LINE
  8
0
 10
311.32
 20
-90.7012
 11
311.511
 21
-90.5424
  0
LINE
  8
0
 10
311.511
 20
-90.5424
 11
311.723
 21
-90.4131
  0
LINE
  8
0
 10
311.723
 20
-90.4131
 11
311.951
 21
-90.3161
  0
LINE
  8
0
 10
311.951
 20
-90.3161
 11
312.191
 21
-90.2533
  0
LINE
  8
0
 10
312.191
 20
-90.2533
 11
312.438
 21
-90.2261
  0
LINE
  8
0
 10
312.438
 20
-90.2261
 11
312.686
 21
-90.2352
  0
LINE
  8
0
 10
312.686
 20
-90.2352
 11
312.93
 21
-90.2803
  0
LINE
  8
0
 10
312.93
 20
-90.2803
 11
313.165
 21
-90.3604
  0
LINE
  8
0
 10
313.165
 20
-90.3604
 11
313.386
 21
-90.4739
  0
LINE
  8
0
 10
313.386
 20
-90.4739
 11
313.587
 21
-90.6183
  0
LINE
  8
0
 10
313.587
 20
-90.6183
 11
313.766
 21
-90.7906
  0
LINE
  8
0
 10
313.766
 20
-90.7906
 11
313.918
 21
-90.987
  0
LINE
  8
0
 10
313.918
 20
-90.987
 11
314.039
 21
-91.2034
  0
LINE
  8
0
 10
314.039
 20
-91.2034
 11
314.128
 21
-91.4352
  0
LINE
  8
0
 10
314.128
 20
-91.4352
 11
314.182
 21
-91.6775
  0
LINE
  8
0
 10
314.182
 20
-91.6775
 11
314.2
 21
-91.925
  0
LINE
  8
0
 10
314.2
 20
-91.925
 11
314.182
 21
-92.1725
  0
LINE
  8
0
 10
314.182
 20
-92.1725
 11
314.128
 21
-92.4148
  0
LINE
  8
0
 10
314.128
 20
-92.4148
 11
314.039
 21
-92.6466
  0
LINE
  8
0
 10
314.039
 20
-92.6466
 11
313.918
 21
-92.863
  0
LINE
  8
0
 10
313.918
 20
-92.863
 11
313.766
 21
-93.0594
  0
LINE
  8
0
 10
313.766
 20
-93.0594
 11
313.587
 21
-93.2317
  0
LINE
  8
0
 10
313.587
 20
-93.2317
 11
313.386
 21
-93.3761
  0
LINE
  8
0
 10
313.386
 20
-93.3761
 11
313.165
 21
-93.4896
  0
LINE
  8
0
 10
313.165
 20
-93.4896
 11
312.93
 21
-93.5697
  0
LINE
  8
0
 10
312.93
 20
-93.5697
 11
312.686
 21
-93.6148
  0
LINE
  8
0
 10
312.686
 20
-93.6148
 11
312.438
 21
-93.6239
  0
LINE
  8
0
 10
312.438
 20
-93.6239
 11
312.191
 21
-93.5967
  0
LINE
  8
0
 10
-312.686
 20
-185.54
 11
-312.93
 21
-185.495
  0
LINE
  8
0
 10
-312.93
 20
-185.495
 11
-313.165
 21
-185.415
  0
LINE
  8
0
 10
-313.165
 20
-185.415
 11
-313.386
 21
-185.301
  0
LINE
  8
0
 10
-313.386
 20
-185.301
 11
-313.587
 21
-185.157
  0
LINE
  8
0
 10
-313.587
 20
-185.157
 11
-313.766
 21
-184.984
  0
LINE
  8
0
 10
-313.766
 20
-184.984
 11
-313.918
 21
-184.788
  0
LINE
  8
0
 10
-313.918
 20
-184.788
 11
-314.039
 21
-184.572
  0
LINE
  8
0
 10
-314.039
 20
-184.572
 11
-314.128
 21
-184.34
  0
LINE
  8
0
 10
-314.128
 20
-184.34
 11
-314.182
 21
-184.098
  0
LINE
  8
0
 10
-314.182
 20
-184.098
 11
-314.2
 21
-183.85
  0
LINE
  8
0
 10
-314.2
 20
-183.85
 11
-314.182
 21
-183.602
  0
LINE
  8
0
 10
-314.182
 20
-183.602
 11
-314.128
 21
-183.36
  0
LINE
  8
0
 10
-314.128
 20
-183.36
 11
-314.039
 21
-183.128
  0
LINE
  8
0
 10
-314.039
 20
-183.128
 11
-313.918
 21
-182.912
  0
LINE
  8
0
 10
-313.918
 20
-182.912
 11
-313.766
 21
-182.716
  0
LINE
  8
0
 10
-313.766
 20
-182.716
 11
-313.587
 21
-182.543
  0
LINE
  8
0
 10
-313.587
 20
-182.543
 11
-313.386
 21
-182.399
  0
LINE
  8
0
 10
-313.386
 20
-182.399
 11
-313.165
 21
-182.285
  0
LINE
  8
0
 10
-313.165
 20
-182.285
 11
-312.93
 21
-182.205
  0
LINE
  8
0
 10
-312.93
 20
-182.205
 11
-312.686
 21
-182.16
  0
LINE
  8
0
 10
-312.686
 20
-182.16
 11
-312.438
 21
-182.151
  0
LINE
  8
0
 10
-312.438
 20
-182.151
 11
-312.191
 21
-182.178
  0
LINE
  8
0
 10
-312.191
 20
-182.178
 11
-311.951
 21
-182.241
  0
LINE
  8
0
 10
-311.951
 20
-182.241
 11
-311.723
 21
-182.338
  0
LINE
  8
0
 10
-311.723
 20
-182.338
 11
-311.511
 21
-182.467
  0
LINE
  8
0
 10
-311.511
 20
-182.467
 11
-311.32
 21
-182.626
  0
LINE
  8
0
 10
-311.32
 20
-182.626
 11
-311.154
 21
-182.811
  0
LINE
  8
0
 10
-311.154
 20
-182.811
 11
-311.018
 21
-183.018
  0
LINE
  8
0
 10
-311.018
 20
-183.018
 11
-310.912
 21
-183.243
  0
LINE
  8
0
 10
-310.912
 20
-183.243
 11
-310.841
 21
-183.48
  0
LINE
  8
0
 10
-310.841
 20
-183.48
 11
-310.805
 21
-183.726
  0
LINE
  8
0
 10
-310.805
 20
-183.726
 11
-310.805
 21
-183.974
  0
LINE
  8
0
 10
-310.805
 20
-183.974
 11
-310.841
 21
-184.22
  0
LINE
  8
0
 10
-310.841
 20
-184.22
 11
-310.912
 21
-184.457
  0
LINE
  8
0
 10
-310.912
 20
-184.457
 11
-311.018
 21
-184.682
  0
LINE
  8
0
 10
-311.018
 20
-184.682
 11
-311.154
 21
-184.889
  0
LINE
  8
0
 10
-311.154
 20
-184.889
 11
-311.32
 21
-185.074
  0
LINE
  8
0
 10
-311.32
 20
-185.074
 11
-311.511
 21
-185.233
  0
LINE
  8
0
 10
-311.511
 20
-185.233
 11
-311.723
 21
-185.362
  0
LINE
  8
0
 10
-311.723
 20
-185.362
 11
-311.951
 21
-185.459
  0
LINE
  8
0
 10
-311.951
 20
-185.459
 11
-312.191
 21
-185.522
  0
LINE
  8
0
 10
-312.191
 20
-185.522
 11
-312.438
 21
-185.549
  0
LINE
  8
0
 10
-312.438
 20
-185.549
 11
-312.686
 21
-185.54
  0
LINE
  8
0
 10
312.191
 20
-185.522
 11
311.951
 21
-185.459
  0
LINE
  8
0
 10
311.951
 20
-185.459
 11
311.723
 21
-185.362
  0
LINE
  8
0
 10
311.723
 20
-185.362
 11
311.511
 21
-185.233
  0
LINE
  8
0
 10
311.511
 20
-185.233
 11
311.32
 21
-185.074
  0
LINE
  8
0
 10
311.32
 20
-185.074
 11
311.154
 21
-184.889
  0
LINE
  8
0
 10
311.154
 20
-184.889
 11
311.018
 21
-184.682
  0
LINE
  8
0
 10
311.018
 20
-184.682
 11
310.912
 21
-184.457
  0
LINE
  8
0
 10
310.912
 20
-184.457
 11
310.841
 21
-184.22
  0
LINE
  8
0
 10
310.841
 20
-184.22
 11
310.805
 21
-183.974
  0
LINE
  8
0
 10
310.805
 20
-183.974
 11
310.805
 21
-183.726
  0
LINE
  8
0
 10
310.805
 20
-183.726
 11
310.841
 21
-183.48
  0
LINE
  8
0
 10
310.841
 20
-183.48
 11
310.912
 21
-183.243
  0
LINE
  8
0
 10
310.912
 20
-183.243
 11
311.018
 21
-183.018
  0
LINE
  8
0
 10
311.018
 20
-183.018
 11
311.154
 21
-182.811
  0
LINE
  8
0
 10
311.154
 20
-182.811
 11
311.32
 21
-182.626
  0
LINE
  8
0
 10
311.32
 20
-182.626
 11
311.511
 21
-182.467
  0
LINE
  8
0
 10
311.511
 20
-182.467
 11
311.723
 21
-182.338
  0
LINE
  8
0
 10
311.723
 20
-182.338
 11
311.951
 21
-182.241
  0
LINE
  8
0
 10
311.951
 20
-182.241
 11
312.191
 21
-182.178
  0
LINE
  8
0
 10
312.191
 20
-182.178
 11
312.438
 21
-182.151
  0
LINE
  8
0
 10
312.438
 20
-182.151
 11
312.686
 21
-182.16
  0
LINE
  8
0
 10
312.686
 20
-182.16
 11
312.93
 21
-182.205
  0
LINE
  8
0
 10
312.93
 20
-182.205
 11
313.165
 21
-182.285
  0
LINE
  8
0
 10
313.165
 20
-182.285
 11
313.386
 21
-182.399
  0
LINE
  8
0
 10
313.386
 20
-182.399
 11
313.587
 21
-182.543
  0
LINE
  8
0
 10
313.587
 20
-182.543
 11
313.766
 21
-182.716
  0
LINE
  8
0
 10
313.766
 20
-182.716
 11
313.918
 21
-182.912
  0
LINE
  8
0
 10
313.918
 20
-182.912
 11
314.039
 21
-183.128
  0
LINE
  8
0
 10
314.039
 20
-183.128
 11
314.128
 21
-183.36
  0
LINE
  8
0
 10
314.128
 20
-183.36
 11
314.182
 21
-183.602
  0
LINE
  8
0
 10
314.182
 20
-183.602
 11
314.2
 21
-183.85
  0
LINE
  8
0
 10
314.2
 20
-183.85
 11
314.182
 21
-184.098
  0
LINE
  8
0
 10
314.182
 20
-184.098
 11
314.128
 21
-184.34
  0
LINE
  8
0
 10
314.128
 20
-184.34
 11
314.039
 21
-184.572
  0
LINE
  8
0
 10
314.039
 20
-184.572
 11
313.918
 21
-184.788
  0
LINE
  8
0
 10
313.918
 20
-184.788
 11
313.766
 21
-184.984
  0
LINE
  8
0
 10
313.766
 20
-184.984
 11
313.587
 21
-185.157
  0
LINE
  8
0
 10
313.587
 20
-185.157
 11
313.386
 21
-185.301
  0
LINE
  8
0
 10
313.386
 20
-185.301
 11
313.165
 21
-185.415
  0
LINE
  8
0
 10
313.165
 20
-185.415
 11
312.93
 21
-185.495
  0
LINE
  8
0
 10
312.93
 20
-185.495
 11
312.686
 21
-185.54
  0
LINE
  8
0
 10
312.686
 20
-185.54
 11
312.438
 21
-185.549
  0
LINE
  8
0
 10
312.438
 20
-185.549
 11
312.191
 21
-185.522
  0
LINE
  8
0
 10
-312.892
 20
-230.079
 11
-313.28
 21
-230.018
  0
LINE
  8
0
 10
-313.28
 20
-230.018
 11
-313.659
 21
-229.916
  0
LINE
  8
0
 10
-313.659
 20
-229.916
 11
-314.025
 21
-229.776
  0
LINE
  8
0
 10
-314.025
 20
-229.776
 11
-314.375
 21
-229.598
  0
LINE
  8
0
 10
-314.375
 20
-229.598
 11
-314.704
 21
-229.384
  0
LINE
  8
0
 10
-314.704
 20
-229.384
 11
-315.009
 21
-229.137
  0
LINE
  8
0
 10
-315.009
 20
-229.137
 11
-315.287
 21
-228.859
  0
LINE
  8
0
 10
-315.287
 20
-228.859
 11
-315.534
 21
-228.554
  0
LINE
  8
0
 10
-315.534
 20
-228.554
 11
-315.748
 21
-228.225
  0
LINE
  8
0
 10
-315.748
 20
-228.225
 11
-315.926
 21
-227.875
  0
LINE
  8
0
 10
-315.926
 20
-227.875
 11
-316.066
 21
-227.509
  0
LINE
  8
0
 10
-316.066
 20
-227.509
 11
-316.168
 21
-227.13
  0
LINE
  8
0
 10
-316.168
 20
-227.13
 11
-316.229
 21
-226.742
  0
LINE
  8
0
 10
-316.229
 20
-226.742
 11
-316.25
 21
-226.35
  0
LINE
  8
0
 10
-316.25
 20
-226.35
 11
-316.229
 21
-225.958
  0
LINE
  8
0
 10
-316.229
 20
-225.958
 11
-316.168
 21
-225.57
  0
LINE
  8
0
 10
-316.168
 20
-225.57
 11
-316.066
 21
-225.191
  0
LINE
  8
0
 10
-316.066
 20
-225.191
 11
-315.926
 21
-224.825
  0
LINE
  8
0
 10
-315.926
 20
-224.825
 11
-315.748
 21
-224.475
  0
LINE
  8
0
 10
-315.748
 20
-224.475
 11
-315.534
 21
-224.146
  0
LINE
  8
0
 10
-315.534
 20
-224.146
 11
-315.287
 21
-223.841
  0
LINE
  8
0
 10
-315.287
 20
-223.841
 11
-315.009
 21
-223.563
  0
LINE
  8
0
 10
-315.009
 20
-223.563
 11
-314.704
 21
-223.316
  0
LINE
  8
0
 10
-314.704
 20
-223.316
 11
-314.375
 21
-223.102
  0
LINE
  8
0
 10
-314.375
 20
-223.102
 11
-314.025
 21
-222.924
  0
LINE
  8
0
 10
-314.025
 20
-222.924
 11
-313.659
 21
-222.784
  0
LINE
  8
0
 10
-313.659
 20
-222.784
 11
-313.28
 21
-222.682
  0
LINE
  8
0
 10
-313.28
 20
-222.682
 11
-312.892
 21
-222.621
  0
LINE
  8
0
 10
-312.892
 20
-222.621
 11
-312.5
 21
-222.6
  0
LINE
  8
0
 10
-312.5
 20
-222.6
 11
-312.108
 21
-222.621
  0
LINE
  8
0
 10
-312.108
 20
-222.621
 11
-311.72
 21
-222.682
  0
LINE
  8
0
 10
-311.72
 20
-222.682
 11
-311.341
 21
-222.784
  0
LINE
  8
0
 10
-311.341
 20
-222.784
 11
-310.975
 21
-222.924
  0
LINE
  8
0
 10
-310.975
 20
-222.924
 11
-310.625
 21
-223.102
  0
LINE
  8
0
 10
-310.625
 20
-223.102
 11
-310.296
 21
-223.316
  0
LINE
  8
0
 10
-310.296
 20
-223.316
 11
-309.991
 21
-223.563
  0
LINE
  8
0
 10
-309.991
 20
-223.563
 11
-309.713
 21
-223.841
  0
LINE
  8
0
 10
-309.713
 20
-223.841
 11
-309.466
 21
-224.146
  0
LINE
  8
0
 10
-309.466
 20
-224.146
 11
-309.252
 21
-224.475
  0
LINE
  8
0
 10
-309.252
 20
-224.475
 11
-309.074
 21
-224.825
  0
LINE
  8
0
 10
-309.074
 20
-224.825
 11
-308.934
 21
-225.191
  0
LINE
  8
0
 10
-308.934
 20
-225.191
 11
-308.832
 21
-225.57
  0
LINE
  8
0
 10
-308.832
 20
-225.57
 11
-308.771
 21
-225.958
  0
LINE
  8
0
 10
-308.771
 20
-225.958
 11
-308.75
 21
-226.35
  0
LINE
  8
0
 10
-308.75
 20
-226.35
 11
-308.771
 21
-226.742
  0
LINE
  8
0
 10
-308.771
 20
-226.742
 11
-308.832
 21
-227.13
  0
LINE
  8
0
 10
-308.832
 20
-227.13
 11
-308.934
 21
-227.509
  0
LINE
  8
0
 10
-308.934
 20
-227.509
 11
-309.074
 21
-227.875
  0
LINE
  8
0
 10
-309.074
 20
-227.875
 11
-309.252
 21
-228.225
  0
LINE
  8
0
 10
-309.252
 20
-228.225
 11
-309.466
 21
-228.554
  0
LINE
  8
0
 10
-309.466
 20
-228.554
 11
-309.713
 21
-228.859
  0
LINE
  8
0
 10
-309.713
 20
-228.859
 11
-309.991
 21
-229.137
  0
LINE
  8
0
 10
-309.991
 20
-229.137
 11
-310.296
 21
-229.384
  0
LINE
  8
0
 10
-310.296
 20
-229.384
 11
-310.625
 21
-229.598
  0
LINE
  8
0
 10
-310.625
 20
-229.598
 11
-310.975
 21
-229.776
  0
LINE
  8
0
 10
-310.975
 20
-229.776
 11
-311.341
 21
-229.916
  0
LINE
  8
0
 10
-311.341
 20
-229.916
 11
-311.72
 21
-230.018
  0
LINE
  8
0
 10
-311.72
 20
-230.018
 11
-312.108
 21
-230.079
  0
LINE
  8
0
 10
-312.108
 20
-230.079
 11
-312.5
 21
-230.1
  0
LINE
  8
0
 10
-312.5
 20
-230.1
 11
-312.892
 21
-230.079
  0
LINE
  8
0
 10
312.108
 20
-230.079
 11
311.72
 21
-230.018
  0
LINE
  8
0
 10
311.72
 20
-230.018
 11
311.341
 21
-229.916
  0
LINE
  8
0
 10
311.341
 20
-229.916
 11
310.975
 21
-229.776
  0
LINE
  8
0
 10
310.975
 20
-229.776
 11
310.625
 21
-229.598
  0
LINE
  8
0
 10
310.625
 20
-229.598
 11
310.296
 21
-229.384
  0
LINE
  8
0
 10
310.296
 20
-229.384
 11
309.991
 21
-229.137
  0
LINE
  8
0
 10
309.991
 20
-229.137
 11
309.713
 21
-228.859
  0
LINE
  8
0
 10
309.713
 20
-228.859
 11
309.466
 21
-228.554
  0
LINE
  8
0
 10
309.466
 20
-228.554
 11
309.252
 21
-228.225
  0
LINE
  8
0
 10
309.252
 20
-228.225
 11
309.074
 21
-227.875
  0
LINE
  8
0
 10
309.074
 20
-227.875
 11
308.934
 21
-227.509
  0
LINE
  8
0
 10
308.934
 20
-227.509
 11
308.832
 21
-227.13
  0
LINE
  8
0
 10
308.832
 20
-227.13
 11
308.771
 21
-226.742
  0
LINE
  8
0
 10
308.771
 20
-226.742
 11
308.75
 21
-226.35
  0
LINE
  8
0
 10
308.75
 20
-226.35
 11
308.771
 21
-225.958
  0
LINE
  8
0
 10
308.771
 20
-225.958
 11
308.832
 21
-225.57
  0
LINE
  8
0
 10
308.832
 20
-225.57
 11
308.934
 21
-225.191
  0
LINE
  8
0
 10
308.934
 20
-225.191
 11
309.074
 21
-224.825
  0
LINE
  8
0
 10
309.074
 20
-224.825
 11
309.252
 21
-224.475
  0
LINE
  8
0
 10
309.252
 20
-224.475
 11
309.466
 21
-224.146
  0
LINE
  8
0
 10
309.466
 20
-224.146
 11
309.713
 21
-223.841
  0
LINE
  8
0
 10
309.713
 20
-223.841
 11
309.991
 21
-223.563
  0
LINE
  8
0
 10
309.991
 20
-223.563
 11
310.296
 21
-223.316
  0
LINE
  8
0
 10
310.296
 20
-223.316
 11
310.625
 21
-223.102
  0
LINE
  8
0
 10
310.625
 20
-223.102
 11
310.975
 21
-222.924
  0
LINE
  8
0
 10
310.975
 20
-222.924
 11
311.341
 21
-222.784
  0
LINE
  8
0
 10
311.341
 20
-222.784
 11
311.72
 21
-222.682
  0
LINE
  8
0
 10
311.72
 20
-222.682
 11
312.108
 21
-222.621
  0
LINE
  8
0
 10
312.108
 20
-222.621
 11
312.5
 21
-222.6
  0
LINE
  8
0
 10
312.5
 20
-222.6
 11
312.892
 21
-222.621
  0
LINE
  8
0
 10
312.892
 20
-222.621
 11
313.28
 21
-222.682
  0
LINE
  8
0
 10
313.28
 20
-222.682
 11
313.659
 21
-222.784
  0
LINE
  8
0
 10
313.659
 20
-222.784
 11
314.025
 21
-222.924
  0
LINE
  8
0
 10
314.025
 20
-222.924
 11
314.375
 21
-223.102
  0
LINE
  8
0
 10
314.375
 20
-223.102
 11
314.704
 21
-223.316
  0
LINE
  8
0
 10
314.704
 20
-223.316
 11
315.009
 21
-223.563
  0
LINE
  8
0
 10
315.009
 20
-223.563
 11
315.287
 21
-223.841
  0
LINE
  8
0
 10
315.287
 20
-223.841
 11
315.534
 21
-224.146
  0
LINE
  8
0
 10
315.534
 20
-224.146
 11
315.748
 21
-224.475
  0
LINE
  8
0
 10
315.748
 20
-224.475
 11
315.926
 21
-224.825
  0
LINE
  8
0
 10
315.926
 20
-224.825
 11
316.066
 21
-225.191
  0
LINE
  8
0
 10
316.066
 20
-225.191
 11
316.168
 21
-225.57
  0
LINE
  8
0
 10
316.168
 20
-225.57
 11
316.229
 21
-225.958
  0
LINE
  8
0
 10
316.229
 20
-225.958
 11
316.25
 21
-226.35
  0
LINE
  8
0
 10
316.25
 20
-226.35
 11
316.229
 21
-226.742
  0
LINE
  8
0
 10
316.229
 20
-226.742
 11
316.168
 21
-227.13
  0
LINE
  8
0
 10
316.168
 20
-227.13
 11
316.066
 21
-227.509
  0
LINE
  8
0
 10
316.066
 20
-227.509
 11
315.926
 21
-227.875
  0
LINE
  8
0
 10
315.926
 20
-227.875
 11
315.748
 21
-228.225
  0
LINE
  8
0
 10
315.748
 20
-228.225
 11
315.534
 21
-228.554
  0
LINE
  8
0
 10
315.534
 20
-228.554
 11
315.287
 21
-228.859
  0
LINE
  8
0
 10
315.287
 20
-228.859
 11
315.009
 21
-229.137
  0
LINE
  8
0
 10
315.009
 20
-229.137
 11
314.704
 21
-229.384
  0
LINE
  8
0
 10
314.704
 20
-229.384
 11
314.375
 21
-229.598
  0
LINE
  8
0
 10
314.375
 20
-229.598
 11
314.025
 21
-229.776
  0
LINE
  8
0
 10
314.025
 20
-229.776
 11
313.659
 21
-229.916
  0
LINE
  8
0
 10
313.659
 20
-229.916
 11
313.28
 21
-230.018
  0
LINE
  8
0
 10
313.28
 20
-230.018
 11
312.892
 21
-230.079
  0
LINE
  8
0
 10
312.892
 20
-230.079
 11
312.5
 21
-230.1
  0
LINE
  8
0
 10
312.5
 20
-230.1
 11
312.108
 21
-230.079
  0
ENDSEC
  0
SECTION
  2
OBJECTS
  0
DICTIONARY
  0
ENDSEC
  0
EOF
