<?xml version="1.0" encoding="UTF-8" standalone="no"?>
<!DOCTYPE svg PUBLIC "-//W3C//DTD SVG 1.1//EN"
 "http://www.w3.org/Graphics/SVG/1.1/DTD/svg11.dtd">
<!-- Generated by graphviz version 2.40.1 (20161225.0304)
 -->
<!-- Title: %3 Pages: 1 -->
<svg width="859pt" height="113pt"
 viewBox="0.00 0.00 859.00 113.00" xmlns="http://www.w3.org/2000/svg" xmlns:xlink="http://www.w3.org/1999/xlink">
<g id="graph0" class="graph" transform="scale(1 1) rotate(0) translate(4 109)">
<title>%3</title>
<polygon fill="#ffffff" stroke="transparent" points="-4,4 -4,-109 855,-109 855,4 -4,4"/>
<!-- DUET -->
<g id="node1" class="node">
<title>DUET</title>
<polygon fill="#ffffff" stroke="#000000" points="0,-10 0,-79 155,-79 155,-10 0,-10"/>
<text text-anchor="middle" x="77.5" y="-63.8" font-family="arial" font-size="14.00" fill="#000000">DUET</text>
<polyline fill="none" stroke="#000000" points="0,-56 155,-56 "/>
<text text-anchor="middle" x="53" y="-40.8" font-family="arial" font-size="14.00" fill="#000000">Ring#8, crimp</text>
<polyline fill="none" stroke="#000000" points="106,-33 106,-56 "/>
<text text-anchor="middle" x="130.5" y="-40.8" font-family="arial" font-size="14.00" fill="#000000">1&#45;pin</text>
<polyline fill="none" stroke="#000000" points="0,-33 155,-33 "/>
<text text-anchor="middle" x="77.5" y="-17.8" font-family="arial" font-size="14.00" fill="#000000">1</text>
</g>
<!-- BED_SSR3 -->
<g id="node3" class="node">
<title>BED_SSR3</title>
<polygon fill="none" stroke="#000000" points="503,-105 299,-105 299,0 503,0 503,-105"/>
<polygon fill="none" stroke="#000000" points="299,-81.5 299,-104.5 503,-104.5 503,-81.5 299,-81.5"/>
<text text-anchor="start" x="362.5" y="-89.3" font-family="arial" font-size="14.00" fill="#000000">BED_SSR3</text>
<polygon fill="none" stroke="#000000" points="299,-58.5 299,-81.5 323,-81.5 323,-58.5 299,-58.5"/>
<text text-anchor="start" x="303" y="-66.3" font-family="arial" font-size="14.00" fill="#000000">1x</text>
<polygon fill="none" stroke="#000000" points="323,-58.5 323,-81.5 458,-81.5 458,-58.5 323,-58.5"/>
<text text-anchor="start" x="327" y="-66.3" font-family="arial" font-size="14.00" fill="#000000">0.34 mm² (22 AWG)</text>
<polygon fill="none" stroke="#000000" points="458,-58.5 458,-81.5 503,-81.5 503,-58.5 458,-58.5"/>
<text text-anchor="start" x="462" y="-66.3" font-family="arial" font-size="14.00" fill="#000000">0.5 m</text>
<text text-anchor="start" x="399" y="-47.3" font-family="arial" font-size="14.00" fill="#000000"> </text>
<text text-anchor="start" x="321" y="-30.3" font-family="arial" font-size="14.00" fill="#000000">DUET:1</text>
<text text-anchor="start" x="416" y="-30.3" font-family="arial" font-size="14.00" fill="#000000">RD</text>
<polygon fill="#ff0000" stroke="transparent" points="299,-18.5 299,-24.5 503,-24.5 503,-18.5 299,-18.5"/>
<polyline fill="none" stroke="#000000" stroke-width="2" points="300,-19.5 502,-19.5 "/>
<polyline fill="none" stroke="#000000" stroke-width="2" points="502,-23.5 300,-23.5 "/>
<text text-anchor="start" x="344.5" y="-5.3" font-family="arial" font-size="14.00" fill="#000000"> </text>
</g>
<!-- DUET&#45;&#45;BED_SSR3 -->
<g id="edge1" class="edge">
<title>DUET:e&#45;&#45;BED_SSR3:w</title>
<path fill="none" stroke="#000000" stroke-width="2" d="M155,-19.5C219,-19.5 235,-19.5 299,-19.5"/>
<path fill="none" stroke="#ff0000" stroke-width="2" d="M155,-21.5C219,-21.5 235,-21.5 299,-21.5"/>
<path fill="none" stroke="#000000" stroke-width="2" d="M155,-23.5C219,-23.5 235,-23.5 299,-23.5"/>
</g>
<!-- SSR -->
<g id="node2" class="node">
<title>SSR</title>
<polygon fill="#ffffff" stroke="transparent" points="851,-39.5 647,-39.5 647,-3.5 851,-3.5 851,-39.5"/>
<text text-anchor="start" x="650" y="-17.3" font-family="arial" font-size="14.00" fill="#000000"> &#160;</text>
<polygon fill="#ffff00" stroke="transparent" points="660,-11.5 660,-30.5 666,-30.5 666,-11.5 660,-11.5"/>
<polyline fill="none" stroke="#000000" points="660,-30.5 660,-11.5 "/>
<polyline fill="none" stroke="#000000" points="666,-11.5 666,-30.5 "/>
<text text-anchor="start" x="668" y="-17.3" font-family="arial" font-size="14.00" fill="#000000"> Ferrule, crimp, 2.0 mm² YE </text>
<polygon fill="none" stroke="#000000" points="647,-11 647,-32 851,-32 851,-11 647,-11"/>
</g>
<!-- BED_SSR3&#45;&#45;SSR -->
<g id="edge2" class="edge">
<title>BED_SSR3:e&#45;&#45;SSR:w</title>
<path fill="none" stroke="#000000" stroke-width="2" d="M503,-19.5C567,-19.5 583,-19.5 647,-19.5"/>
<path fill="none" stroke="#ff0000" stroke-width="2" d="M503,-21.5C567,-21.5 583,-21.5 647,-21.5"/>
<path fill="none" stroke="#000000" stroke-width="2" d="M503,-23.5C567,-23.5 583,-23.5 647,-23.5"/>
</g>
</g>
</svg>
