  0
SECTION
  2
BLOCKS
  0
ENDSEC
  0
SECTION
  2
ENTITIES
  0
LINE
  8
0
 10
202.091
 20
-202.39
 11
204.158
 21
-202.063
  0
LINE
  8
0
 10
204.158
 20
-202.063
 11
206.18
 21
-201.521
  0
LINE
  8
0
 10
206.18
 20
-201.521
 11
208.135
 21
-200.771
  0
LINE
  8
0
 10
208.135
 20
-200.771
 11
210
 21
-199.82
  0
LINE
  8
0
 10
210
 20
-199.82
 11
211.756
 21
-198.68
  0
LINE
  8
0
 10
211.756
 20
-198.68
 11
213.383
 21
-197.363
  0
LINE
  8
0
 10
213.383
 20
-197.363
 11
214.863
 21
-195.883
  0
LINE
  8
0
 10
214.863
 20
-195.883
 11
216.18
 21
-194.256
  0
LINE
  8
0
 10
216.18
 20
-194.256
 11
217.32
 21
-192.5
  0
LINE
  8
0
 10
217.32
 20
-192.5
 11
218.271
 21
-190.635
  0
LINE
  8
0
 10
218.271
 20
-190.635
 11
219.021
 21
-188.68
  0
LINE
  8
0
 10
219.021
 20
-188.68
 11
219.563
 21
-186.658
  0
LINE
  8
0
 10
219.563
 20
-186.658
 11
219.89
 21
-184.591
  0
LINE
  8
0
 10
219.89
 20
-184.591
 11
220
 21
-182.5
  0
LINE
  8
0
 10
220
 20
-182.5
 11
220
 21
182.5
  0
LINE
  8
0
 10
220
 20
182.5
 11
219.89
 21
184.591
  0
LINE
  8
0
 10
219.89
 20
184.591
 11
219.563
 21
186.658
  0
LINE
  8
0
 10
219.563
 20
186.658
 11
219.021
 21
188.68
  0
LINE
  8
0
 10
219.021
 20
188.68
 11
218.271
 21
190.635
  0
LINE
  8
0
 10
218.271
 20
190.635
 11
217.32
 21
192.5
  0
LINE
  8
0
 10
217.32
 20
192.5
 11
216.18
 21
194.256
  0
LINE
  8
0
 10
216.18
 20
194.256
 11
214.863
 21
195.883
  0
LINE
  8
0
 10
214.863
 20
195.883
 11
213.383
 21
197.363
  0
LINE
  8
0
 10
213.383
 20
197.363
 11
211.756
 21
198.68
  0
LINE
  8
0
 10
211.756
 20
198.68
 11
210
 21
199.82
  0
LINE
  8
0
 10
210
 20
199.82
 11
208.135
 21
200.771
  0
LINE
  8
0
 10
208.135
 20
200.771
 11
206.18
 21
201.521
  0
LINE
  8
0
 10
206.18
 20
201.521
 11
204.158
 21
202.063
  0
LINE
  8
0
 10
204.158
 20
202.063
 11
202.091
 21
202.39
  0
LINE
  8
0
 10
202.091
 20
202.39
 11
200
 21
202.5
  0
LINE
  8
0
 10
200
 20
202.5
 11
3
 21
202.5
  0
LINE
  8
0
 10
3
 20
202.5
 11
2.73868
 21
202.486
  0
LINE
  8
0
 10
2.73868
 20
202.486
 11
2.48021
 21
202.445
  0
LINE
  8
0
 10
2.48021
 20
202.445
 11
2.22745
 21
202.378
  0
LINE
  8
0
 10
2.22745
 20
202.378
 11
1.98315
 21
202.284
  0
LINE
  8
0
 10
1.98315
 20
202.284
 11
1.75
 21
202.165
  0
LINE
  8
0
 10
1.75
 20
202.165
 11
1.53053
 21
202.023
  0
LINE
  8
0
 10
1.53053
 20
202.023
 11
1.32716
 21
201.858
  0
LINE
  8
0
 10
1.32716
 20
201.858
 11
1.14214
 21
201.673
  0
LINE
  8
0
 10
1.14214
 20
201.673
 11
0.977448
 21
201.469
  0
LINE
  8
0
 10
0.977448
 20
201.469
 11
0.83493
 21
201.25
  0
LINE
  8
0
 10
0.83493
 20
201.25
 11
0.716125
 21
201.017
  0
LINE
  8
0
 10
0.716125
 20
201.017
 11
0.622345
 21
200.773
  0
LINE
  8
0
 10
0.622345
 20
200.773
 11
0.554626
 21
200.52
  0
LINE
  8
0
 10
0.554626
 20
200.52
 11
0.513687
 21
200.261
  0
LINE
  8
0
 10
0.513687
 20
200.261
 11
0.5
 21
200
  0
LINE
  8
0
 10
0.5
 20
200
 11
0.5
 21
-200
  0
LINE
  8
0
 10
0.5
 20
-200
 11
0.513687
 21
-200.261
  0
LINE
  8
0
 10
0.513687
 20
-200.261
 11
0.554626
 21
-200.52
  0
LINE
  8
0
 10
0.554626
 20
-200.52
 11
0.622345
 21
-200.773
  0
LINE
  8
0
 10
0.622345
 20
-200.773
 11
0.716125
 21
-201.017
  0
LINE
  8
0
 10
0.716125
 20
-201.017
 11
0.83493
 21
-201.25
  0
LINE
  8
0
 10
0.83493
 20
-201.25
 11
0.977448
 21
-201.469
  0
LINE
  8
0
 10
0.977448
 20
-201.469
 11
1.14214
 21
-201.673
  0
LINE
  8
0
 10
1.14214
 20
-201.673
 11
1.32716
 21
-201.858
  0
LINE
  8
0
 10
1.32716
 20
-201.858
 11
1.53053
 21
-202.023
  0
LINE
  8
0
 10
1.53053
 20
-202.023
 11
1.75
 21
-202.165
  0
LINE
  8
0
 10
1.75
 20
-202.165
 11
1.98315
 21
-202.284
  0
LINE
  8
0
 10
1.98315
 20
-202.284
 11
2.22745
 21
-202.378
  0
LINE
  8
0
 10
2.22745
 20
-202.378
 11
2.48021
 21
-202.445
  0
LINE
  8
0
 10
2.48021
 20
-202.445
 11
2.73868
 21
-202.486
  0
LINE
  8
0
 10
2.73868
 20
-202.486
 11
3
 21
-202.5
  0
LINE
  8
0
 10
3
 20
-202.5
 11
200
 21
-202.5
  0
LINE
  8
0
 10
200
 20
-202.5
 11
202.091
 21
-202.39
  0
LINE
  8
0
 10
39.134
 20
178.5
 11
38.2679
 21
180
  0
LINE
  8
0
 10
38.2679
 20
180
 11
39.134
 21
181.5
  0
LINE
  8
0
 10
39.134
 20
181.5
 11
40.866
 21
181.5
  0
LINE
  8
0
 10
40.866
 20
181.5
 11
41.732
 21
180
  0
LINE
  8
0
 10
41.732
 20
180
 11
40.866
 21
178.5
  0
LINE
  8
0
 10
40.866
 20
178.5
 11
39.134
 21
178.5
  0
LINE
  8
0
 10
19.134
 20
178.5
 11
18.2679
 21
180
  0
LINE
  8
0
 10
18.2679
 20
180
 11
19.134
 21
181.5
  0
LINE
  8
0
 10
19.134
 20
181.5
 11
20.866
 21
181.5
  0
LINE
  8
0
 10
20.866
 20
181.5
 11
21.732
 21
180
  0
LINE
  8
0
 10
21.732
 20
180
 11
20.866
 21
178.5
  0
LINE
  8
0
 10
20.866
 20
178.5
 11
19.134
 21
178.5
  0
ENDSEC
  0
SECTION
  2
OBJECTS
  0
DICTIONARY
  0
ENDSEC
  0
EOF
