  0
SECTION
  2
BLOCKS
  0
ENDSEC
  0
SECTION
  2
ENTITIES
  0
LINE
  8
0
 10
320.523
 20
-238.473
 11
321.04
 21
-238.391
  0
LINE
  8
0
 10
321.04
 20
-238.391
 11
321.545
 21
-238.255
  0
LINE
  8
0
 10
321.545
 20
-238.255
 11
322.034
 21
-238.068
  0
LINE
  8
0
 10
322.034
 20
-238.068
 11
322.5
 21
-237.83
  0
LINE
  8
0
 10
322.5
 20
-237.83
 11
322.939
 21
-237.545
  0
LINE
  8
0
 10
322.939
 20
-237.545
 11
323.346
 21
-237.216
  0
LINE
  8
0
 10
323.346
 20
-237.216
 11
323.716
 21
-236.846
  0
LINE
  8
0
 10
323.716
 20
-236.846
 11
324.045
 21
-236.439
  0
LINE
  8
0
 10
324.045
 20
-236.439
 11
324.33
 21
-236
  0
LINE
  8
0
 10
324.33
 20
-236
 11
324.568
 21
-235.534
  0
LINE
  8
0
 10
324.568
 20
-235.534
 11
324.755
 21
-235.045
  0
LINE
  8
0
 10
324.755
 20
-235.045
 11
324.891
 21
-234.54
  0
LINE
  8
0
 10
324.891
 20
-234.54
 11
324.973
 21
-234.023
  0
LINE
  8
0
 10
324.973
 20
-234.023
 11
325
 21
-233.5
  0
LINE
  8
0
 10
325
 20
-233.5
 11
325
 21
233.5
  0
LINE
  8
0
 10
325
 20
233.5
 11
324.973
 21
234.023
  0
LINE
  8
0
 10
324.973
 20
234.023
 11
324.891
 21
234.54
  0
LINE
  8
0
 10
324.891
 20
234.54
 11
324.755
 21
235.045
  0
LINE
  8
0
 10
324.755
 20
235.045
 11
324.568
 21
235.534
  0
LINE
  8
0
 10
324.568
 20
235.534
 11
324.33
 21
236
  0
LINE
  8
0
 10
324.33
 20
236
 11
324.045
 21
236.439
  0
LINE
  8
0
 10
324.045
 20
236.439
 11
323.716
 21
236.846
  0
LINE
  8
0
 10
323.716
 20
236.846
 11
323.346
 21
237.216
  0
LINE
  8
0
 10
323.346
 20
237.216
 11
322.939
 21
237.545
  0
LINE
  8
0
 10
322.939
 20
237.545
 11
322.5
 21
237.83
  0
LINE
  8
0
 10
322.5
 20
237.83
 11
322.034
 21
238.068
  0
LINE
  8
0
 10
322.034
 20
238.068
 11
321.545
 21
238.255
  0
LINE
  8
0
 10
321.545
 20
238.255
 11
321.04
 21
238.391
  0
LINE
  8
0
 10
321.04
 20
238.391
 11
320.523
 21
238.473
  0
LINE
  8
0
 10
320.523
 20
238.473
 11
320
 21
238.5
  0
LINE
  8
0
 10
320
 20
238.5
 11
-320
 21
238.5
  0
LINE
  8
0
 10
-320
 20
238.5
 11
-320.523
 21
238.473
  0
LINE
  8
0
 10
-320.523
 20
238.473
 11
-321.04
 21
238.391
  0
LINE
  8
0
 10
-321.04
 20
238.391
 11
-321.545
 21
238.255
  0
LINE
  8
0
 10
-321.545
 20
238.255
 11
-322.034
 21
238.068
  0
LINE
  8
0
 10
-322.034
 20
238.068
 11
-322.5
 21
237.83
  0
LINE
  8
0
 10
-322.5
 20
237.83
 11
-322.939
 21
237.545
  0
LINE
  8
0
 10
-322.939
 20
237.545
 11
-323.346
 21
237.216
  0
LINE
  8
0
 10
-323.346
 20
237.216
 11
-323.716
 21
236.846
  0
LINE
  8
0
 10
-323.716
 20
236.846
 11
-324.045
 21
236.439
  0
LINE
  8
0
 10
-324.045
 20
236.439
 11
-324.33
 21
236
  0
LINE
  8
0
 10
-324.33
 20
236
 11
-324.568
 21
235.534
  0
LINE
  8
0
 10
-324.568
 20
235.534
 11
-324.755
 21
235.045
  0
LINE
  8
0
 10
-324.755
 20
235.045
 11
-324.891
 21
234.54
  0
LINE
  8
0
 10
-324.891
 20
234.54
 11
-324.973
 21
234.023
  0
LINE
  8
0
 10
-324.973
 20
234.023
 11
-325
 21
233.5
  0
LINE
  8
0
 10
-325
 20
233.5
 11
-325
 21
-233.5
  0
LINE
  8
0
 10
-325
 20
-233.5
 11
-324.973
 21
-234.023
  0
LINE
  8
0
 10
-324.973
 20
-234.023
 11
-324.891
 21
-234.54
  0
LINE
  8
0
 10
-324.891
 20
-234.54
 11
-324.755
 21
-235.045
  0
LINE
  8
0
 10
-324.755
 20
-235.045
 11
-324.568
 21
-235.534
  0
LINE
  8
0
 10
-324.568
 20
-235.534
 11
-324.33
 21
-236
  0
LINE
  8
0
 10
-324.33
 20
-236
 11
-324.045
 21
-236.439
  0
LINE
  8
0
 10
-324.045
 20
-236.439
 11
-323.716
 21
-236.846
  0
LINE
  8
0
 10
-323.716
 20
-236.846
 11
-323.346
 21
-237.216
  0
LINE
  8
0
 10
-323.346
 20
-237.216
 11
-322.939
 21
-237.545
  0
LINE
  8
0
 10
-322.939
 20
-237.545
 11
-322.5
 21
-237.83
  0
LINE
  8
0
 10
-322.5
 20
-237.83
 11
-322.034
 21
-238.068
  0
LINE
  8
0
 10
-322.034
 20
-238.068
 11
-321.545
 21
-238.255
  0
LINE
  8
0
 10
-321.545
 20
-238.255
 11
-321.04
 21
-238.391
  0
LINE
  8
0
 10
-321.04
 20
-238.391
 11
-320.523
 21
-238.473
  0
LINE
  8
0
 10
-320.523
 20
-238.473
 11
-320
 21
-238.5
  0
LINE
  8
0
 10
-320
 20
-238.5
 11
320
 21
-238.5
  0
LINE
  8
0
 10
320
 20
-238.5
 11
320.523
 21
-238.473
  0
LINE
  8
0
 10
-240.523
 20
217.527
 11
-241.04
 21
217.609
  0
LINE
  8
0
 10
-241.04
 20
217.609
 11
-241.545
 21
217.745
  0
LINE
  8
0
 10
-241.545
 20
217.745
 11
-242.034
 21
217.932
  0
LINE
  8
0
 10
-242.034
 20
217.932
 11
-242.5
 21
218.17
  0
LINE
  8
0
 10
-242.5
 20
218.17
 11
-242.939
 21
218.455
  0
LINE
  8
0
 10
-242.939
 20
218.455
 11
-243.346
 21
218.784
  0
LINE
  8
0
 10
-243.346
 20
218.784
 11
-243.716
 21
219.154
  0
LINE
  8
0
 10
-243.716
 20
219.154
 11
-244.045
 21
219.561
  0
LINE
  8
0
 10
-244.045
 20
219.561
 11
-244.33
 21
220
  0
LINE
  8
0
 10
-244.33
 20
220
 11
-244.568
 21
220.466
  0
LINE
  8
0
 10
-244.568
 20
220.466
 11
-244.755
 21
220.955
  0
LINE
  8
0
 10
-244.755
 20
220.955
 11
-244.891
 21
221.46
  0
LINE
  8
0
 10
-244.891
 20
221.46
 11
-244.973
 21
221.977
  0
LINE
  8
0
 10
-244.973
 20
221.977
 11
-245
 21
222.5
  0
LINE
  8
0
 10
-245
 20
222.5
 11
-244.973
 21
223.023
  0
LINE
  8
0
 10
-244.973
 20
223.023
 11
-244.891
 21
223.54
  0
LINE
  8
0
 10
-244.891
 20
223.54
 11
-244.755
 21
224.045
  0
LINE
  8
0
 10
-244.755
 20
224.045
 11
-244.568
 21
224.534
  0
LINE
  8
0
 10
-244.568
 20
224.534
 11
-244.33
 21
225
  0
LINE
  8
0
 10
-244.33
 20
225
 11
-244.045
 21
225.439
  0
LINE
  8
0
 10
-244.045
 20
225.439
 11
-243.716
 21
225.846
  0
LINE
  8
0
 10
-243.716
 20
225.846
 11
-243.346
 21
226.216
  0
LINE
  8
0
 10
-243.346
 20
226.216
 11
-242.939
 21
226.545
  0
LINE
  8
0
 10
-242.939
 20
226.545
 11
-242.5
 21
226.83
  0
LINE
  8
0
 10
-242.5
 20
226.83
 11
-242.034
 21
227.068
  0
LINE
  8
0
 10
-242.034
 20
227.068
 11
-241.545
 21
227.255
  0
LINE
  8
0
 10
-241.545
 20
227.255
 11
-241.04
 21
227.391
  0
LINE
  8
0
 10
-241.04
 20
227.391
 11
-240.523
 21
227.473
  0
LINE
  8
0
 10
-240.523
 20
227.473
 11
-240
 21
227.5
  0
LINE
  8
0
 10
-240
 20
227.5
 11
-239.477
 21
227.473
  0
LINE
  8
0
 10
-239.477
 20
227.473
 11
-238.96
 21
227.391
  0
LINE
  8
0
 10
-238.96
 20
227.391
 11
-238.455
 21
227.255
  0
LINE
  8
0
 10
-238.455
 20
227.255
 11
-237.966
 21
227.068
  0
LINE
  8
0
 10
-237.966
 20
227.068
 11
-237.5
 21
226.83
  0
LINE
  8
0
 10
-237.5
 20
226.83
 11
-237.061
 21
226.545
  0
LINE
  8
0
 10
-237.061
 20
226.545
 11
-236.654
 21
226.216
  0
LINE
  8
0
 10
-236.654
 20
226.216
 11
-236.284
 21
225.846
  0
LINE
  8
0
 10
-236.284
 20
225.846
 11
-235.955
 21
225.439
  0
LINE
  8
0
 10
-235.955
 20
225.439
 11
-235.67
 21
225
  0
LINE
  8
0
 10
-235.67
 20
225
 11
-235.432
 21
224.534
  0
LINE
  8
0
 10
-235.432
 20
224.534
 11
-235.245
 21
224.045
  0
LINE
  8
0
 10
-235.245
 20
224.045
 11
-235.109
 21
223.54
  0
LINE
  8
0
 10
-235.109
 20
223.54
 11
-235.027
 21
223.023
  0
LINE
  8
0
 10
-235.027
 20
223.023
 11
-235
 21
222.5
  0
LINE
  8
0
 10
-235
 20
222.5
 11
-235.027
 21
221.977
  0
LINE
  8
0
 10
-235.027
 20
221.977
 11
-235.109
 21
221.46
  0
LINE
  8
0
 10
-235.109
 20
221.46
 11
-235.245
 21
220.955
  0
LINE
  8
0
 10
-235.245
 20
220.955
 11
-235.432
 21
220.466
  0
LINE
  8
0
 10
-235.432
 20
220.466
 11
-235.67
 21
220
  0
LINE
  8
0
 10
-235.67
 20
220
 11
-235.955
 21
219.561
  0
LINE
  8
0
 10
-235.955
 20
219.561
 11
-236.284
 21
219.154
  0
LINE
  8
0
 10
-236.284
 20
219.154
 11
-236.654
 21
218.784
  0
LINE
  8
0
 10
-236.654
 20
218.784
 11
-237.061
 21
218.455
  0
LINE
  8
0
 10
-237.061
 20
218.455
 11
-237.5
 21
218.17
  0
LINE
  8
0
 10
-237.5
 20
218.17
 11
-237.966
 21
217.932
  0
LINE
  8
0
 10
-237.966
 20
217.932
 11
-238.455
 21
217.745
  0
LINE
  8
0
 10
-238.455
 20
217.745
 11
-238.96
 21
217.609
  0
LINE
  8
0
 10
-238.96
 20
217.609
 11
-239.477
 21
217.527
  0
LINE
  8
0
 10
-239.477
 20
217.527
 11
-240
 21
217.5
  0
LINE
  8
0
 10
-240
 20
217.5
 11
-240.523
 21
217.527
  0
LINE
  8
0
 10
239.477
 20
217.527
 11
238.96
 21
217.609
  0
LINE
  8
0
 10
238.96
 20
217.609
 11
238.455
 21
217.745
  0
LINE
  8
0
 10
238.455
 20
217.745
 11
237.966
 21
217.932
  0
LINE
  8
0
 10
237.966
 20
217.932
 11
237.5
 21
218.17
  0
LINE
  8
0
 10
237.5
 20
218.17
 11
237.061
 21
218.455
  0
LINE
  8
0
 10
237.061
 20
218.455
 11
236.654
 21
218.784
  0
LINE
  8
0
 10
236.654
 20
218.784
 11
236.284
 21
219.154
  0
LINE
  8
0
 10
236.284
 20
219.154
 11
235.955
 21
219.561
  0
LINE
  8
0
 10
235.955
 20
219.561
 11
235.67
 21
220
  0
LINE
  8
0
 10
235.67
 20
220
 11
235.432
 21
220.466
  0
LINE
  8
0
 10
235.432
 20
220.466
 11
235.245
 21
220.955
  0
LINE
  8
0
 10
235.245
 20
220.955
 11
235.109
 21
221.46
  0
LINE
  8
0
 10
235.109
 20
221.46
 11
235.027
 21
221.977
  0
LINE
  8
0
 10
235.027
 20
221.977
 11
235
 21
222.5
  0
LINE
  8
0
 10
235
 20
222.5
 11
235.027
 21
223.023
  0
LINE
  8
0
 10
235.027
 20
223.023
 11
235.109
 21
223.54
  0
LINE
  8
0
 10
235.109
 20
223.54
 11
235.245
 21
224.045
  0
LINE
  8
0
 10
235.245
 20
224.045
 11
235.432
 21
224.534
  0
LINE
  8
0
 10
235.432
 20
224.534
 11
235.67
 21
225
  0
LINE
  8
0
 10
235.67
 20
225
 11
235.955
 21
225.439
  0
LINE
  8
0
 10
235.955
 20
225.439
 11
236.284
 21
225.846
  0
LINE
  8
0
 10
236.284
 20
225.846
 11
236.654
 21
226.216
  0
LINE
  8
0
 10
236.654
 20
226.216
 11
237.061
 21
226.545
  0
LINE
  8
0
 10
237.061
 20
226.545
 11
237.5
 21
226.83
  0
LINE
  8
0
 10
237.5
 20
226.83
 11
237.966
 21
227.068
  0
LINE
  8
0
 10
237.966
 20
227.068
 11
238.455
 21
227.255
  0
LINE
  8
0
 10
238.455
 20
227.255
 11
238.96
 21
227.391
  0
LINE
  8
0
 10
238.96
 20
227.391
 11
239.477
 21
227.473
  0
LINE
  8
0
 10
239.477
 20
227.473
 11
240
 21
227.5
  0
LINE
  8
0
 10
240
 20
227.5
 11
240.523
 21
227.473
  0
LINE
  8
0
 10
240.523
 20
227.473
 11
241.04
 21
227.391
  0
LINE
  8
0
 10
241.04
 20
227.391
 11
241.545
 21
227.255
  0
LINE
  8
0
 10
241.545
 20
227.255
 11
242.034
 21
227.068
  0
LINE
  8
0
 10
242.034
 20
227.068
 11
242.5
 21
226.83
  0
LINE
  8
0
 10
242.5
 20
226.83
 11
242.939
 21
226.545
  0
LINE
  8
0
 10
242.939
 20
226.545
 11
243.346
 21
226.216
  0
LINE
  8
0
 10
243.346
 20
226.216
 11
243.716
 21
225.846
  0
LINE
  8
0
 10
243.716
 20
225.846
 11
244.045
 21
225.439
  0
LINE
  8
0
 10
244.045
 20
225.439
 11
244.33
 21
225
  0
LINE
  8
0
 10
244.33
 20
225
 11
244.568
 21
224.534
  0
LINE
  8
0
 10
244.568
 20
224.534
 11
244.755
 21
224.045
  0
LINE
  8
0
 10
244.755
 20
224.045
 11
244.891
 21
223.54
  0
LINE
  8
0
 10
244.891
 20
223.54
 11
244.973
 21
223.023
  0
LINE
  8
0
 10
244.973
 20
223.023
 11
245
 21
222.5
  0
LINE
  8
0
 10
245
 20
222.5
 11
244.973
 21
221.977
  0
LINE
  8
0
 10
244.973
 20
221.977
 11
244.891
 21
221.46
  0
LINE
  8
0
 10
244.891
 20
221.46
 11
244.755
 21
220.955
  0
LINE
  8
0
 10
244.755
 20
220.955
 11
244.568
 21
220.466
  0
LINE
  8
0
 10
244.568
 20
220.466
 11
244.33
 21
220
  0
LINE
  8
0
 10
244.33
 20
220
 11
244.045
 21
219.561
  0
LINE
  8
0
 10
244.045
 20
219.561
 11
243.716
 21
219.154
  0
LINE
  8
0
 10
243.716
 20
219.154
 11
243.346
 21
218.784
  0
LINE
  8
0
 10
243.346
 20
218.784
 11
242.939
 21
218.455
  0
LINE
  8
0
 10
242.939
 20
218.455
 11
242.5
 21
218.17
  0
LINE
  8
0
 10
242.5
 20
218.17
 11
242.034
 21
217.932
  0
LINE
  8
0
 10
242.034
 20
217.932
 11
241.545
 21
217.745
  0
LINE
  8
0
 10
241.545
 20
217.745
 11
241.04
 21
217.609
  0
LINE
  8
0
 10
241.04
 20
217.609
 11
240.523
 21
217.527
  0
LINE
  8
0
 10
240.523
 20
217.527
 11
240
 21
217.5
  0
LINE
  8
0
 10
240
 20
217.5
 11
239.477
 21
217.527
  0
LINE
  8
0
 10
76.6667
 20
220.75
 11
76.4176
 21
220.768
  0
LINE
  8
0
 10
76.4176
 20
220.768
 11
76.1736
 21
220.821
  0
LINE
  8
0
 10
76.1736
 20
220.821
 11
75.9397
 21
220.908
  0
LINE
  8
0
 10
75.9397
 20
220.908
 11
75.7205
 21
221.028
  0
LINE
  8
0
 10
75.7205
 20
221.028
 11
75.5207
 21
221.177
  0
LINE
  8
0
 10
75.5207
 20
221.177
 11
75.3441
 21
221.354
  0
LINE
  8
0
 10
75.3441
 20
221.354
 11
75.1945
 21
221.554
  0
LINE
  8
0
 10
75.1945
 20
221.554
 11
75.0748
 21
221.773
  0
LINE
  8
0
 10
75.0748
 20
221.773
 11
74.9875
 21
222.007
  0
LINE
  8
0
 10
74.9875
 20
222.007
 11
74.9345
 21
222.251
  0
LINE
  8
0
 10
74.9345
 20
222.251
 11
74.9167
 21
222.5
  0
LINE
  8
0
 10
74.9167
 20
222.5
 11
74.9345
 21
222.749
  0
LINE
  8
0
 10
74.9345
 20
222.749
 11
74.9875
 21
222.993
  0
LINE
  8
0
 10
74.9875
 20
222.993
 11
75.0748
 21
223.227
  0
LINE
  8
0
 10
75.0748
 20
223.227
 11
75.1945
 21
223.446
  0
LINE
  8
0
 10
75.1945
 20
223.446
 11
75.3441
 21
223.646
  0
LINE
  8
0
 10
75.3441
 20
223.646
 11
75.5207
 21
223.823
  0
LINE
  8
0
 10
75.5207
 20
223.823
 11
75.7205
 21
223.972
  0
LINE
  8
0
 10
75.7205
 20
223.972
 11
75.9397
 21
224.092
  0
LINE
  8
0
 10
75.9397
 20
224.092
 11
76.1736
 21
224.179
  0
LINE
  8
0
 10
76.1736
 20
224.179
 11
76.4176
 21
224.232
  0
LINE
  8
0
 10
76.4176
 20
224.232
 11
76.6667
 21
224.25
  0
LINE
  8
0
 10
76.6667
 20
224.25
 11
188.333
 21
224.25
  0
LINE
  8
0
 10
188.333
 20
224.25
 11
188.582
 21
224.232
  0
LINE
  8
0
 10
188.582
 20
224.232
 11
188.826
 21
224.179
  0
LINE
  8
0
 10
188.826
 20
224.179
 11
189.06
 21
224.092
  0
LINE
  8
0
 10
189.06
 20
224.092
 11
189.279
 21
223.972
  0
LINE
  8
0
 10
189.279
 20
223.972
 11
189.479
 21
223.823
  0
LINE
  8
0
 10
189.479
 20
223.823
 11
189.656
 21
223.646
  0
LINE
  8
0
 10
189.656
 20
223.646
 11
189.806
 21
223.446
  0
LINE
  8
0
 10
189.806
 20
223.446
 11
189.925
 21
223.227
  0
LINE
  8
0
 10
189.925
 20
223.227
 11
190.012
 21
222.993
  0
LINE
  8
0
 10
190.012
 20
222.993
 11
190.066
 21
222.749
  0
LINE
  8
0
 10
190.066
 20
222.749
 11
190.083
 21
222.5
  0
LINE
  8
0
 10
190.083
 20
222.5
 11
190.066
 21
222.251
  0
LINE
  8
0
 10
190.066
 20
222.251
 11
190.012
 21
222.007
  0
LINE
  8
0
 10
190.012
 20
222.007
 11
189.925
 21
221.773
  0
LINE
  8
0
 10
189.925
 20
221.773
 11
189.806
 21
221.554
  0
LINE
  8
0
 10
189.806
 20
221.554
 11
189.656
 21
221.354
  0
LINE
  8
0
 10
189.656
 20
221.354
 11
189.479
 21
221.177
  0
LINE
  8
0
 10
189.479
 20
221.177
 11
189.279
 21
221.028
  0
LINE
  8
0
 10
189.279
 20
221.028
 11
189.06
 21
220.908
  0
LINE
  8
0
 10
189.06
 20
220.908
 11
188.826
 21
220.821
  0
LINE
  8
0
 10
188.826
 20
220.821
 11
188.582
 21
220.768
  0
LINE
  8
0
 10
188.582
 20
220.768
 11
188.333
 21
220.75
  0
LINE
  8
0
 10
188.333
 20
220.75
 11
76.6667
 21
220.75
  0
LINE
  8
0
 10
-190
 20
220.75
 11
-190.249
 21
220.768
  0
LINE
  8
0
 10
-190.249
 20
220.768
 11
-190.493
 21
220.821
  0
LINE
  8
0
 10
-190.493
 20
220.821
 11
-190.727
 21
220.908
  0
LINE
  8
0
 10
-190.727
 20
220.908
 11
-190.946
 21
221.028
  0
LINE
  8
0
 10
-190.946
 20
221.028
 11
-191.146
 21
221.177
  0
LINE
  8
0
 10
-191.146
 20
221.177
 11
-191.323
 21
221.354
  0
LINE
  8
0
 10
-191.323
 20
221.354
 11
-191.472
 21
221.554
  0
LINE
  8
0
 10
-191.472
 20
221.554
 11
-191.592
 21
221.773
  0
LINE
  8
0
 10
-191.592
 20
221.773
 11
-191.679
 21
222.007
  0
LINE
  8
0
 10
-191.679
 20
222.007
 11
-191.732
 21
222.251
  0
LINE
  8
0
 10
-191.732
 20
222.251
 11
-191.75
 21
222.5
  0
LINE
  8
0
 10
-191.75
 20
222.5
 11
-191.732
 21
222.749
  0
LINE
  8
0
 10
-191.732
 20
222.749
 11
-191.679
 21
222.993
  0
LINE
  8
0
 10
-191.679
 20
222.993
 11
-191.592
 21
223.227
  0
LINE
  8
0
 10
-191.592
 20
223.227
 11
-191.472
 21
223.446
  0
LINE
  8
0
 10
-191.472
 20
223.446
 11
-191.323
 21
223.646
  0
LINE
  8
0
 10
-191.323
 20
223.646
 11
-191.146
 21
223.823
  0
LINE
  8
0
 10
-191.146
 20
223.823
 11
-190.946
 21
223.972
  0
LINE
  8
0
 10
-190.946
 20
223.972
 11
-190.727
 21
224.092
  0
LINE
  8
0
 10
-190.727
 20
224.092
 11
-190.493
 21
224.179
  0
LINE
  8
0
 10
-190.493
 20
224.179
 11
-190.249
 21
224.232
  0
LINE
  8
0
 10
-190.249
 20
224.232
 11
-190
 21
224.25
  0
LINE
  8
0
 10
-190
 20
224.25
 11
-78.3333
 21
224.25
  0
LINE
  8
0
 10
-78.3333
 20
224.25
 11
-78.0843
 21
224.232
  0
LINE
  8
0
 10
-78.0843
 20
224.232
 11
-77.8403
 21
224.179
  0
LINE
  8
0
 10
-77.8403
 20
224.179
 11
-77.6064
 21
224.092
  0
LINE
  8
0
 10
-77.6064
 20
224.092
 11
-77.3872
 21
223.972
  0
LINE
  8
0
 10
-77.3872
 20
223.972
 11
-77.1873
 21
223.823
  0
LINE
  8
0
 10
-77.1873
 20
223.823
 11
-77.0108
 21
223.646
  0
LINE
  8
0
 10
-77.0108
 20
223.646
 11
-76.8611
 21
223.446
  0
LINE
  8
0
 10
-76.8611
 20
223.446
 11
-76.7415
 21
223.227
  0
LINE
  8
0
 10
-76.7415
 20
223.227
 11
-76.6542
 21
222.993
  0
LINE
  8
0
 10
-76.6542
 20
222.993
 11
-76.6011
 21
222.749
  0
LINE
  8
0
 10
-76.6011
 20
222.749
 11
-76.5833
 21
222.5
  0
LINE
  8
0
 10
-76.5833
 20
222.5
 11
-76.6011
 21
222.251
  0
LINE
  8
0
 10
-76.6011
 20
222.251
 11
-76.6542
 21
222.007
  0
LINE
  8
0
 10
-76.6542
 20
222.007
 11
-76.7415
 21
221.773
  0
LINE
  8
0
 10
-76.7415
 20
221.773
 11
-76.8611
 21
221.554
  0
LINE
  8
0
 10
-76.8611
 20
221.554
 11
-77.0108
 21
221.354
  0
LINE
  8
0
 10
-77.0108
 20
221.354
 11
-77.1873
 21
221.177
  0
LINE
  8
0
 10
-77.1873
 20
221.177
 11
-77.3872
 21
221.028
  0
LINE
  8
0
 10
-77.3872
 20
221.028
 11
-77.6064
 21
220.908
  0
LINE
  8
0
 10
-77.6064
 20
220.908
 11
-77.8403
 21
220.821
  0
LINE
  8
0
 10
-77.8403
 20
220.821
 11
-78.0843
 21
220.768
  0
LINE
  8
0
 10
-78.0843
 20
220.768
 11
-78.3333
 21
220.75
  0
LINE
  8
0
 10
-78.3333
 20
220.75
 11
-190
 21
220.75
  0
LINE
  8
0
 10
-56.6667
 20
220.75
 11
-56.9157
 21
220.768
  0
LINE
  8
0
 10
-56.9157
 20
220.768
 11
-57.1597
 21
220.821
  0
LINE
  8
0
 10
-57.1597
 20
220.821
 11
-57.3936
 21
220.908
  0
LINE
  8
0
 10
-57.3936
 20
220.908
 11
-57.6128
 21
221.028
  0
LINE
  8
0
 10
-57.6128
 20
221.028
 11
-57.8127
 21
221.177
  0
LINE
  8
0
 10
-57.8127
 20
221.177
 11
-57.9892
 21
221.354
  0
LINE
  8
0
 10
-57.9892
 20
221.354
 11
-58.1389
 21
221.554
  0
LINE
  8
0
 10
-58.1389
 20
221.554
 11
-58.2585
 21
221.773
  0
LINE
  8
0
 10
-58.2585
 20
221.773
 11
-58.3458
 21
222.007
  0
LINE
  8
0
 10
-58.3458
 20
222.007
 11
-58.3988
 21
222.251
  0
LINE
  8
0
 10
-58.3988
 20
222.251
 11
-58.4167
 21
222.5
  0
LINE
  8
0
 10
-58.4167
 20
222.5
 11
-58.3988
 21
222.749
  0
LINE
  8
0
 10
-58.3988
 20
222.749
 11
-58.3458
 21
222.993
  0
LINE
  8
0
 10
-58.3458
 20
222.993
 11
-58.2585
 21
223.227
  0
LINE
  8
0
 10
-58.2585
 20
223.227
 11
-58.1389
 21
223.446
  0
LINE
  8
0
 10
-58.1389
 20
223.446
 11
-57.9892
 21
223.646
  0
LINE
  8
0
 10
-57.9892
 20
223.646
 11
-57.8127
 21
223.823
  0
LINE
  8
0
 10
-57.8127
 20
223.823
 11
-57.6128
 21
223.972
  0
LINE
  8
0
 10
-57.6128
 20
223.972
 11
-57.3936
 21
224.092
  0
LINE
  8
0
 10
-57.3936
 20
224.092
 11
-57.1597
 21
224.179
  0
LINE
  8
0
 10
-57.1597
 20
224.179
 11
-56.9157
 21
224.232
  0
LINE
  8
0
 10
-56.9157
 20
224.232
 11
-56.6667
 21
224.25
  0
LINE
  8
0
 10
-56.6667
 20
224.25
 11
55
 21
224.25
  0
LINE
  8
0
 10
55
 20
224.25
 11
55.249
 21
224.232
  0
LINE
  8
0
 10
55.249
 20
224.232
 11
55.493
 21
224.179
  0
LINE
  8
0
 10
55.493
 20
224.179
 11
55.727
 21
224.092
  0
LINE
  8
0
 10
55.727
 20
224.092
 11
55.9461
 21
223.972
  0
LINE
  8
0
 10
55.9461
 20
223.972
 11
56.146
 21
223.823
  0
LINE
  8
0
 10
56.146
 20
223.823
 11
56.3226
 21
223.646
  0
LINE
  8
0
 10
56.3226
 20
223.646
 11
56.4722
 21
223.446
  0
LINE
  8
0
 10
56.4722
 20
223.446
 11
56.5918
 21
223.227
  0
LINE
  8
0
 10
56.5918
 20
223.227
 11
56.6791
 21
222.993
  0
LINE
  8
0
 10
56.6791
 20
222.993
 11
56.7322
 21
222.749
  0
LINE
  8
0
 10
56.7322
 20
222.749
 11
56.75
 21
222.5
  0
LINE
  8
0
 10
56.75
 20
222.5
 11
56.7322
 21
222.251
  0
LINE
  8
0
 10
56.7322
 20
222.251
 11
56.6791
 21
222.007
  0
LINE
  8
0
 10
56.6791
 20
222.007
 11
56.5918
 21
221.773
  0
LINE
  8
0
 10
56.5918
 20
221.773
 11
56.4722
 21
221.554
  0
LINE
  8
0
 10
56.4722
 20
221.554
 11
56.3226
 21
221.354
  0
LINE
  8
0
 10
56.3226
 20
221.354
 11
56.146
 21
221.177
  0
LINE
  8
0
 10
56.146
 20
221.177
 11
55.9461
 21
221.028
  0
LINE
  8
0
 10
55.9461
 20
221.028
 11
55.727
 21
220.908
  0
LINE
  8
0
 10
55.727
 20
220.908
 11
55.493
 21
220.821
  0
LINE
  8
0
 10
55.493
 20
220.821
 11
55.249
 21
220.768
  0
LINE
  8
0
 10
55.249
 20
220.768
 11
55
 21
220.75
  0
LINE
  8
0
 10
55
 20
220.75
 11
-56.6667
 21
220.75
  0
LINE
  8
0
 10
209.691
 20
220.828
 11
209.451
 21
220.891
  0
LINE
  8
0
 10
209.451
 20
220.891
 11
209.223
 21
220.988
  0
LINE
  8
0
 10
209.223
 20
220.988
 11
209.011
 21
221.117
  0
LINE
  8
0
 10
209.011
 20
221.117
 11
208.82
 21
221.276
  0
LINE
  8
0
 10
208.82
 20
221.276
 11
208.654
 21
221.461
  0
LINE
  8
0
 10
208.654
 20
221.461
 11
208.518
 21
221.668
  0
LINE
  8
0
 10
208.518
 20
221.668
 11
208.412
 21
221.893
  0
LINE
  8
0
 10
208.412
 20
221.893
 11
208.341
 21
222.13
  0
LINE
  8
0
 10
208.341
 20
222.13
 11
208.305
 21
222.376
  0
LINE
  8
0
 10
208.305
 20
222.376
 11
208.305
 21
222.624
  0
LINE
  8
0
 10
208.305
 20
222.624
 11
208.341
 21
222.87
  0
LINE
  8
0
 10
208.341
 20
222.87
 11
208.412
 21
223.107
  0
LINE
  8
0
 10
208.412
 20
223.107
 11
208.518
 21
223.332
  0
LINE
  8
0
 10
208.518
 20
223.332
 11
208.654
 21
223.539
  0
LINE
  8
0
 10
208.654
 20
223.539
 11
208.82
 21
223.724
  0
LINE
  8
0
 10
208.82
 20
223.724
 11
209.011
 21
223.883
  0
LINE
  8
0
 10
209.011
 20
223.883
 11
209.223
 21
224.012
  0
LINE
  8
0
 10
209.223
 20
224.012
 11
209.451
 21
224.109
  0
LINE
  8
0
 10
209.451
 20
224.109
 11
209.691
 21
224.172
  0
LINE
  8
0
 10
209.691
 20
224.172
 11
209.938
 21
224.199
  0
LINE
  8
0
 10
209.938
 20
224.199
 11
210.186
 21
224.19
  0
LINE
  8
0
 10
210.186
 20
224.19
 11
210.43
 21
224.145
  0
LINE
  8
0
 10
210.43
 20
224.145
 11
210.665
 21
224.065
  0
LINE
  8
0
 10
210.665
 20
224.065
 11
210.886
 21
223.951
  0
LINE
  8
0
 10
210.886
 20
223.951
 11
211.087
 21
223.807
  0
LINE
  8
0
 10
211.087
 20
223.807
 11
211.266
 21
223.634
  0
LINE
  8
0
 10
211.266
 20
223.634
 11
211.418
 21
223.438
  0
LINE
  8
0
 10
211.418
 20
223.438
 11
211.539
 21
223.222
  0
LINE
  8
0
 10
211.539
 20
223.222
 11
211.628
 21
222.99
  0
LINE
  8
0
 10
211.628
 20
222.99
 11
211.682
 21
222.748
  0
LINE
  8
0
 10
211.682
 20
222.748
 11
211.7
 21
222.5
  0
LINE
  8
0
 10
211.7
 20
222.5
 11
211.682
 21
222.252
  0
LINE
  8
0
 10
211.682
 20
222.252
 11
211.628
 21
222.01
  0
LINE
  8
0
 10
211.628
 20
222.01
 11
211.539
 21
221.778
  0
LINE
  8
0
 10
211.539
 20
221.778
 11
211.418
 21
221.562
  0
LINE
  8
0
 10
211.418
 20
221.562
 11
211.266
 21
221.366
  0
LINE
  8
0
 10
211.266
 20
221.366
 11
211.087
 21
221.193
  0
LINE
  8
0
 10
211.087
 20
221.193
 11
210.886
 21
221.049
  0
LINE
  8
0
 10
210.886
 20
221.049
 11
210.665
 21
220.935
  0
LINE
  8
0
 10
210.665
 20
220.935
 11
210.43
 21
220.855
  0
LINE
  8
0
 10
210.43
 20
220.855
 11
210.186
 21
220.81
  0
LINE
  8
0
 10
210.186
 20
220.81
 11
209.938
 21
220.801
  0
LINE
  8
0
 10
209.938
 20
220.801
 11
209.691
 21
220.828
  0
LINE
  8
0
 10
-210.186
 20
220.81
 11
-210.43
 21
220.855
  0
LINE
  8
0
 10
-210.43
 20
220.855
 11
-210.665
 21
220.935
  0
LINE
  8
0
 10
-210.665
 20
220.935
 11
-210.886
 21
221.049
  0
LINE
  8
0
 10
-210.886
 20
221.049
 11
-211.087
 21
221.193
  0
LINE
  8
0
 10
-211.087
 20
221.193
 11
-211.266
 21
221.366
  0
LINE
  8
0
 10
-211.266
 20
221.366
 11
-211.418
 21
221.562
  0
LINE
  8
0
 10
-211.418
 20
221.562
 11
-211.539
 21
221.778
  0
LINE
  8
0
 10
-211.539
 20
221.778
 11
-211.628
 21
222.01
  0
LINE
  8
0
 10
-211.628
 20
222.01
 11
-211.682
 21
222.252
  0
LINE
  8
0
 10
-211.682
 20
222.252
 11
-211.7
 21
222.5
  0
LINE
  8
0
 10
-211.7
 20
222.5
 11
-211.682
 21
222.748
  0
LINE
  8
0
 10
-211.682
 20
222.748
 11
-211.628
 21
222.99
  0
LINE
  8
0
 10
-211.628
 20
222.99
 11
-211.539
 21
223.222
  0
LINE
  8
0
 10
-211.539
 20
223.222
 11
-211.418
 21
223.438
  0
LINE
  8
0
 10
-211.418
 20
223.438
 11
-211.266
 21
223.634
  0
LINE
  8
0
 10
-211.266
 20
223.634
 11
-211.087
 21
223.807
  0
LINE
  8
0
 10
-211.087
 20
223.807
 11
-210.886
 21
223.951
  0
LINE
  8
0
 10
-210.886
 20
223.951
 11
-210.665
 21
224.065
  0
LINE
  8
0
 10
-210.665
 20
224.065
 11
-210.43
 21
224.145
  0
LINE
  8
0
 10
-210.43
 20
224.145
 11
-210.186
 21
224.19
  0
LINE
  8
0
 10
-210.186
 20
224.19
 11
-209.938
 21
224.199
  0
LINE
  8
0
 10
-209.938
 20
224.199
 11
-209.691
 21
224.172
  0
LINE
  8
0
 10
-209.691
 20
224.172
 11
-209.451
 21
224.109
  0
LINE
  8
0
 10
-209.451
 20
224.109
 11
-209.223
 21
224.012
  0
LINE
  8
0
 10
-209.223
 20
224.012
 11
-209.011
 21
223.883
  0
LINE
  8
0
 10
-209.011
 20
223.883
 11
-208.82
 21
223.724
  0
LINE
  8
0
 10
-208.82
 20
223.724
 11
-208.654
 21
223.539
  0
LINE
  8
0
 10
-208.654
 20
223.539
 11
-208.518
 21
223.332
  0
LINE
  8
0
 10
-208.518
 20
223.332
 11
-208.412
 21
223.107
  0
LINE
  8
0
 10
-208.412
 20
223.107
 11
-208.341
 21
222.87
  0
LINE
  8
0
 10
-208.341
 20
222.87
 11
-208.305
 21
222.624
  0
LINE
  8
0
 10
-208.305
 20
222.624
 11
-208.305
 21
222.376
  0
LINE
  8
0
 10
-208.305
 20
222.376
 11
-208.341
 21
222.13
  0
LINE
  8
0
 10
-208.341
 20
222.13
 11
-208.412
 21
221.893
  0
LINE
  8
0
 10
-208.412
 20
221.893
 11
-208.518
 21
221.668
  0
LINE
  8
0
 10
-208.518
 20
221.668
 11
-208.654
 21
221.461
  0
LINE
  8
0
 10
-208.654
 20
221.461
 11
-208.82
 21
221.276
  0
LINE
  8
0
 10
-208.82
 20
221.276
 11
-209.011
 21
221.117
  0
LINE
  8
0
 10
-209.011
 20
221.117
 11
-209.223
 21
220.988
  0
LINE
  8
0
 10
-209.223
 20
220.988
 11
-209.451
 21
220.891
  0
LINE
  8
0
 10
-209.451
 20
220.891
 11
-209.691
 21
220.828
  0
LINE
  8
0
 10
-209.691
 20
220.828
 11
-209.938
 21
220.801
  0
LINE
  8
0
 10
-209.938
 20
220.801
 11
-210.186
 21
220.81
  0
LINE
  8
0
 10
299.027
 20
219.355
 11
298.783
 21
219.391
  0
LINE
  8
0
 10
298.783
 20
219.391
 11
298.547
 21
219.464
  0
LINE
  8
0
 10
298.547
 20
219.464
 11
298.325
 21
219.571
  0
LINE
  8
0
 10
298.325
 20
219.571
 11
298.121
 21
219.71
  0
LINE
  8
0
 10
298.121
 20
219.71
 11
297.94
 21
219.878
  0
LINE
  8
0
 10
297.94
 20
219.878
 11
297.787
 21
220.071
  0
LINE
  8
0
 10
297.787
 20
220.071
 11
297.663
 21
220.284
  0
LINE
  8
0
 10
297.663
 20
220.284
 11
297.573
 21
220.514
  0
LINE
  8
0
 10
297.573
 20
220.514
 11
297.518
 21
220.754
  0
LINE
  8
0
 10
297.518
 20
220.754
 11
297.5
 21
221
  0
LINE
  8
0
 10
297.5
 20
221
 11
297.518
 21
221.246
  0
LINE
  8
0
 10
297.518
 20
221.246
 11
297.573
 21
221.486
  0
LINE
  8
0
 10
297.573
 20
221.486
 11
297.663
 21
221.716
  0
LINE
  8
0
 10
297.663
 20
221.716
 11
297.787
 21
221.929
  0
LINE
  8
0
 10
297.787
 20
221.929
 11
297.94
 21
222.122
  0
LINE
  8
0
 10
297.94
 20
222.122
 11
298.121
 21
222.29
  0
LINE
  8
0
 10
298.121
 20
222.29
 11
298.325
 21
222.429
  0
LINE
  8
0
 10
298.325
 20
222.429
 11
298.547
 21
222.536
  0
LINE
  8
0
 10
298.547
 20
222.536
 11
298.783
 21
222.609
  0
LINE
  8
0
 10
298.783
 20
222.609
 11
299.027
 21
222.645
  0
LINE
  8
0
 10
299.027
 20
222.645
 11
307.273
 21
222.645
  0
LINE
  8
0
 10
307.273
 20
222.645
 11
307.517
 21
222.609
  0
LINE
  8
0
 10
307.517
 20
222.609
 11
307.753
 21
222.536
  0
LINE
  8
0
 10
307.753
 20
222.536
 11
307.975
 21
222.429
  0
LINE
  8
0
 10
307.975
 20
222.429
 11
308.179
 21
222.29
  0
LINE
  8
0
 10
308.179
 20
222.29
 11
308.36
 21
222.122
  0
LINE
  8
0
 10
308.36
 20
222.122
 11
308.513
 21
221.929
  0
LINE
  8
0
 10
308.513
 20
221.929
 11
308.637
 21
221.716
  0
LINE
  8
0
 10
308.637
 20
221.716
 11
308.727
 21
221.486
  0
LINE
  8
0
 10
308.727
 20
221.486
 11
308.782
 21
221.246
  0
LINE
  8
0
 10
308.782
 20
221.246
 11
308.8
 21
221
  0
LINE
  8
0
 10
308.8
 20
221
 11
308.782
 21
220.754
  0
LINE
  8
0
 10
308.782
 20
220.754
 11
308.727
 21
220.514
  0
LINE
  8
0
 10
308.727
 20
220.514
 11
308.637
 21
220.284
  0
LINE
  8
0
 10
308.637
 20
220.284
 11
308.513
 21
220.071
  0
LINE
  8
0
 10
308.513
 20
220.071
 11
308.36
 21
219.878
  0
LINE
  8
0
 10
308.36
 20
219.878
 11
308.179
 21
219.71
  0
LINE
  8
0
 10
308.179
 20
219.71
 11
307.975
 21
219.571
  0
LINE
  8
0
 10
307.975
 20
219.571
 11
307.753
 21
219.464
  0
LINE
  8
0
 10
307.753
 20
219.464
 11
307.517
 21
219.391
  0
LINE
  8
0
 10
307.517
 20
219.391
 11
307.273
 21
219.355
  0
LINE
  8
0
 10
307.273
 20
219.355
 11
299.027
 21
219.355
  0
LINE
  8
0
 10
268.027
 20
219.355
 11
267.783
 21
219.391
  0
LINE
  8
0
 10
267.783
 20
219.391
 11
267.547
 21
219.464
  0
LINE
  8
0
 10
267.547
 20
219.464
 11
267.325
 21
219.571
  0
LINE
  8
0
 10
267.325
 20
219.571
 11
267.121
 21
219.71
  0
LINE
  8
0
 10
267.121
 20
219.71
 11
266.94
 21
219.878
  0
LINE
  8
0
 10
266.94
 20
219.878
 11
266.787
 21
220.071
  0
LINE
  8
0
 10
266.787
 20
220.071
 11
266.663
 21
220.284
  0
LINE
  8
0
 10
266.663
 20
220.284
 11
266.573
 21
220.514
  0
LINE
  8
0
 10
266.573
 20
220.514
 11
266.518
 21
220.754
  0
LINE
  8
0
 10
266.518
 20
220.754
 11
266.5
 21
221
  0
LINE
  8
0
 10
266.5
 20
221
 11
266.518
 21
221.246
  0
LINE
  8
0
 10
266.518
 20
221.246
 11
266.573
 21
221.486
  0
LINE
  8
0
 10
266.573
 20
221.486
 11
266.663
 21
221.716
  0
LINE
  8
0
 10
266.663
 20
221.716
 11
266.787
 21
221.929
  0
LINE
  8
0
 10
266.787
 20
221.929
 11
266.94
 21
222.122
  0
LINE
  8
0
 10
266.94
 20
222.122
 11
267.121
 21
222.29
  0
LINE
  8
0
 10
267.121
 20
222.29
 11
267.325
 21
222.429
  0
LINE
  8
0
 10
267.325
 20
222.429
 11
267.547
 21
222.536
  0
LINE
  8
0
 10
267.547
 20
222.536
 11
267.783
 21
222.609
  0
LINE
  8
0
 10
267.783
 20
222.609
 11
268.027
 21
222.645
  0
LINE
  8
0
 10
268.027
 20
222.645
 11
276.273
 21
222.645
  0
LINE
  8
0
 10
276.273
 20
222.645
 11
276.517
 21
222.609
  0
LINE
  8
0
 10
276.517
 20
222.609
 11
276.753
 21
222.536
  0
LINE
  8
0
 10
276.753
 20
222.536
 11
276.975
 21
222.429
  0
LINE
  8
0
 10
276.975
 20
222.429
 11
277.179
 21
222.29
  0
LINE
  8
0
 10
277.179
 20
222.29
 11
277.36
 21
222.122
  0
LINE
  8
0
 10
277.36
 20
222.122
 11
277.513
 21
221.929
  0
LINE
  8
0
 10
277.513
 20
221.929
 11
277.637
 21
221.716
  0
LINE
  8
0
 10
277.637
 20
221.716
 11
277.727
 21
221.486
  0
LINE
  8
0
 10
277.727
 20
221.486
 11
277.782
 21
221.246
  0
LINE
  8
0
 10
277.782
 20
221.246
 11
277.8
 21
221
  0
LINE
  8
0
 10
277.8
 20
221
 11
277.782
 21
220.754
  0
LINE
  8
0
 10
277.782
 20
220.754
 11
277.727
 21
220.514
  0
LINE
  8
0
 10
277.727
 20
220.514
 11
277.637
 21
220.284
  0
LINE
  8
0
 10
277.637
 20
220.284
 11
277.513
 21
220.071
  0
LINE
  8
0
 10
277.513
 20
220.071
 11
277.36
 21
219.878
  0
LINE
  8
0
 10
277.36
 20
219.878
 11
277.179
 21
219.71
  0
LINE
  8
0
 10
277.179
 20
219.71
 11
276.975
 21
219.571
  0
LINE
  8
0
 10
276.975
 20
219.571
 11
276.753
 21
219.464
  0
LINE
  8
0
 10
276.753
 20
219.464
 11
276.517
 21
219.391
  0
LINE
  8
0
 10
276.517
 20
219.391
 11
276.273
 21
219.355
  0
LINE
  8
0
 10
276.273
 20
219.355
 11
268.027
 21
219.355
  0
LINE
  8
0
 10
283.15
 20
193
 11
281.843
 21
193.068
  0
LINE
  8
0
 10
281.843
 20
193.068
 11
280.551
 21
193.273
  0
LINE
  8
0
 10
280.551
 20
193.273
 11
279.287
 21
193.612
  0
LINE
  8
0
 10
279.287
 20
193.612
 11
278.066
 21
194.081
  0
LINE
  8
0
 10
278.066
 20
194.081
 11
276.9
 21
194.675
  0
LINE
  8
0
 10
276.9
 20
194.675
 11
275.803
 21
195.387
  0
LINE
  8
0
 10
275.803
 20
195.387
 11
274.786
 21
196.211
  0
LINE
  8
0
 10
274.786
 20
196.211
 11
273.861
 21
197.136
  0
LINE
  8
0
 10
273.861
 20
197.136
 11
273.037
 21
198.153
  0
LINE
  8
0
 10
273.037
 20
198.153
 11
272.325
 21
199.25
  0
LINE
  8
0
 10
272.325
 20
199.25
 11
271.731
 21
200.416
  0
LINE
  8
0
 10
271.731
 20
200.416
 11
271.262
 21
201.637
  0
LINE
  8
0
 10
271.262
 20
201.637
 11
270.923
 21
202.901
  0
LINE
  8
0
 10
270.923
 20
202.901
 11
270.718
 21
204.193
  0
LINE
  8
0
 10
270.718
 20
204.193
 11
270.65
 21
205.5
  0
LINE
  8
0
 10
270.65
 20
205.5
 11
270.718
 21
206.807
  0
LINE
  8
0
 10
270.718
 20
206.807
 11
270.923
 21
208.099
  0
LINE
  8
0
 10
270.923
 20
208.099
 11
271.262
 21
209.363
  0
LINE
  8
0
 10
271.262
 20
209.363
 11
271.731
 21
210.584
  0
LINE
  8
0
 10
271.731
 20
210.584
 11
272.325
 21
211.75
  0
LINE
  8
0
 10
272.325
 20
211.75
 11
273.037
 21
212.847
  0
LINE
  8
0
 10
273.037
 20
212.847
 11
273.861
 21
213.864
  0
LINE
  8
0
 10
273.861
 20
213.864
 11
274.786
 21
214.789
  0
LINE
  8
0
 10
274.786
 20
214.789
 11
275.803
 21
215.613
  0
LINE
  8
0
 10
275.803
 20
215.613
 11
276.9
 21
216.325
  0
LINE
  8
0
 10
276.9
 20
216.325
 11
278.066
 21
216.919
  0
LINE
  8
0
 10
278.066
 20
216.919
 11
279.287
 21
217.388
  0
LINE
  8
0
 10
279.287
 20
217.388
 11
280.551
 21
217.727
  0
LINE
  8
0
 10
280.551
 20
217.727
 11
281.843
 21
217.932
  0
LINE
  8
0
 10
281.843
 20
217.932
 11
283.15
 21
218
  0
LINE
  8
0
 10
283.15
 20
218
 11
291.15
 21
218
  0
LINE
  8
0
 10
291.15
 20
218
 11
292.457
 21
217.932
  0
LINE
  8
0
 10
292.457
 20
217.932
 11
293.749
 21
217.727
  0
LINE
  8
0
 10
293.749
 20
217.727
 11
295.013
 21
217.388
  0
LINE
  8
0
 10
295.013
 20
217.388
 11
296.234
 21
216.919
  0
LINE
  8
0
 10
296.234
 20
216.919
 11
297.4
 21
216.325
  0
LINE
  8
0
 10
297.4
 20
216.325
 11
298.497
 21
215.613
  0
LINE
  8
0
 10
298.497
 20
215.613
 11
299.514
 21
214.789
  0
LINE
  8
0
 10
299.514
 20
214.789
 11
300.439
 21
213.864
  0
LINE
  8
0
 10
300.439
 20
213.864
 11
301.263
 21
212.847
  0
LINE
  8
0
 10
301.263
 20
212.847
 11
301.975
 21
211.75
  0
LINE
  8
0
 10
301.975
 20
211.75
 11
302.569
 21
210.584
  0
LINE
  8
0
 10
302.569
 20
210.584
 11
303.038
 21
209.363
  0
LINE
  8
0
 10
303.038
 20
209.363
 11
303.377
 21
208.099
  0
LINE
  8
0
 10
303.377
 20
208.099
 11
303.582
 21
206.807
  0
LINE
  8
0
 10
303.582
 20
206.807
 11
303.65
 21
205.5
  0
LINE
  8
0
 10
303.65
 20
205.5
 11
303.582
 21
204.193
  0
LINE
  8
0
 10
303.582
 20
204.193
 11
303.377
 21
202.901
  0
LINE
  8
0
 10
303.377
 20
202.901
 11
303.038
 21
201.637
  0
LINE
  8
0
 10
303.038
 20
201.637
 11
302.569
 21
200.416
  0
LINE
  8
0
 10
302.569
 20
200.416
 11
301.975
 21
199.25
  0
LINE
  8
0
 10
301.975
 20
199.25
 11
301.263
 21
198.153
  0
LINE
  8
0
 10
301.263
 20
198.153
 11
300.439
 21
197.136
  0
LINE
  8
0
 10
300.439
 20
197.136
 11
299.514
 21
196.211
  0
LINE
  8
0
 10
299.514
 20
196.211
 11
298.497
 21
195.387
  0
LINE
  8
0
 10
298.497
 20
195.387
 11
297.4
 21
194.675
  0
LINE
  8
0
 10
297.4
 20
194.675
 11
296.234
 21
194.081
  0
LINE
  8
0
 10
296.234
 20
194.081
 11
295.013
 21
193.612
  0
LINE
  8
0
 10
295.013
 20
193.612
 11
293.749
 21
193.273
  0
LINE
  8
0
 10
293.749
 20
193.273
 11
292.457
 21
193.068
  0
LINE
  8
0
 10
292.457
 20
193.068
 11
291.15
 21
193
  0
LINE
  8
0
 10
291.15
 20
193
 11
283.15
 21
193
  0
LINE
  8
0
 10
-229
 20
-212.5
 11
-229.223
 21
-212.475
  0
LINE
  8
0
 10
-229.223
 20
-212.475
 11
-229.434
 21
-212.401
  0
LINE
  8
0
 10
-229.434
 20
-212.401
 11
-229.623
 21
-212.282
  0
LINE
  8
0
 10
-229.623
 20
-212.282
 11
-229.782
 21
-212.123
  0
LINE
  8
0
 10
-229.782
 20
-212.123
 11
-229.901
 21
-211.934
  0
LINE
  8
0
 10
-229.901
 20
-211.934
 11
-229.975
 21
-211.723
  0
LINE
  8
0
 10
-229.975
 20
-211.723
 11
-230
 21
-211.5
  0
LINE
  8
0
 10
-230
 20
-211.5
 11
-230
 21
211.5
  0
LINE
  8
0
 10
-230
 20
211.5
 11
-229.975
 21
211.723
  0
LINE
  8
0
 10
-229.975
 20
211.723
 11
-229.901
 21
211.934
  0
LINE
  8
0
 10
-229.901
 20
211.934
 11
-229.782
 21
212.123
  0
LINE
  8
0
 10
-229.782
 20
212.123
 11
-229.623
 21
212.282
  0
LINE
  8
0
 10
-229.623
 20
212.282
 11
-229.434
 21
212.401
  0
LINE
  8
0
 10
-229.434
 20
212.401
 11
-229.223
 21
212.475
  0
LINE
  8
0
 10
-229.223
 20
212.475
 11
-229
 21
212.5
  0
LINE
  8
0
 10
-229
 20
212.5
 11
229
 21
212.5
  0
LINE
  8
0
 10
229
 20
212.5
 11
229.223
 21
212.475
  0
LINE
  8
0
 10
229.223
 20
212.475
 11
229.434
 21
212.401
  0
LINE
  8
0
 10
229.434
 20
212.401
 11
229.623
 21
212.282
  0
LINE
  8
0
 10
229.623
 20
212.282
 11
229.782
 21
212.123
  0
LINE
  8
0
 10
229.782
 20
212.123
 11
229.901
 21
211.934
  0
LINE
  8
0
 10
229.901
 20
211.934
 11
229.975
 21
211.723
  0
LINE
  8
0
 10
229.975
 20
211.723
 11
230
 21
211.5
  0
LINE
  8
0
 10
230
 20
211.5
 11
230
 21
-211.5
  0
LINE
  8
0
 10
230
 20
-211.5
 11
229.975
 21
-211.723
  0
LINE
  8
0
 10
229.975
 20
-211.723
 11
229.901
 21
-211.934
  0
LINE
  8
0
 10
229.901
 20
-211.934
 11
229.782
 21
-212.123
  0
LINE
  8
0
 10
229.782
 20
-212.123
 11
229.623
 21
-212.282
  0
LINE
  8
0
 10
229.623
 20
-212.282
 11
229.434
 21
-212.401
  0
LINE
  8
0
 10
229.434
 20
-212.401
 11
229.223
 21
-212.475
  0
LINE
  8
0
 10
229.223
 20
-212.475
 11
229
 21
-212.5
  0
LINE
  8
0
 10
229
 20
-212.5
 11
-229
 21
-212.5
  0
LINE
  8
0
 10
-289.894
 20
204.274
 11
-290.128
 21
204.345
  0
LINE
  8
0
 10
-290.128
 20
204.345
 11
-290.344
 21
204.461
  0
LINE
  8
0
 10
-290.344
 20
204.461
 11
-290.534
 21
204.616
  0
LINE
  8
0
 10
-290.534
 20
204.616
 11
-290.689
 21
204.806
  0
LINE
  8
0
 10
-290.689
 20
204.806
 11
-290.805
 21
205.022
  0
LINE
  8
0
 10
-290.805
 20
205.022
 11
-290.876
 21
205.256
  0
LINE
  8
0
 10
-290.876
 20
205.256
 11
-290.9
 21
205.5
  0
LINE
  8
0
 10
-290.9
 20
205.5
 11
-290.876
 21
205.744
  0
LINE
  8
0
 10
-290.876
 20
205.744
 11
-290.805
 21
205.978
  0
LINE
  8
0
 10
-290.805
 20
205.978
 11
-290.689
 21
206.194
  0
LINE
  8
0
 10
-290.689
 20
206.194
 11
-290.534
 21
206.384
  0
LINE
  8
0
 10
-290.534
 20
206.384
 11
-290.344
 21
206.539
  0
LINE
  8
0
 10
-290.344
 20
206.539
 11
-290.128
 21
206.655
  0
LINE
  8
0
 10
-290.128
 20
206.655
 11
-289.894
 21
206.726
  0
LINE
  8
0
 10
-289.894
 20
206.726
 11
-289.65
 21
206.75
  0
LINE
  8
0
 10
-289.65
 20
206.75
 11
-289.406
 21
206.726
  0
LINE
  8
0
 10
-289.406
 20
206.726
 11
-289.172
 21
206.655
  0
LINE
  8
0
 10
-289.172
 20
206.655
 11
-288.956
 21
206.539
  0
LINE
  8
0
 10
-288.956
 20
206.539
 11
-288.766
 21
206.384
  0
LINE
  8
0
 10
-288.766
 20
206.384
 11
-288.611
 21
206.194
  0
LINE
  8
0
 10
-288.611
 20
206.194
 11
-288.495
 21
205.978
  0
LINE
  8
0
 10
-288.495
 20
205.978
 11
-288.424
 21
205.744
  0
LINE
  8
0
 10
-288.424
 20
205.744
 11
-288.4
 21
205.5
  0
LINE
  8
0
 10
-288.4
 20
205.5
 11
-288.424
 21
205.256
  0
LINE
  8
0
 10
-288.424
 20
205.256
 11
-288.495
 21
205.022
  0
LINE
  8
0
 10
-288.495
 20
205.022
 11
-288.611
 21
204.806
  0
LINE
  8
0
 10
-288.611
 20
204.806
 11
-288.766
 21
204.616
  0
LINE
  8
0
 10
-288.766
 20
204.616
 11
-288.956
 21
204.461
  0
LINE
  8
0
 10
-288.956
 20
204.461
 11
-289.172
 21
204.345
  0
LINE
  8
0
 10
-289.172
 20
204.345
 11
-289.406
 21
204.274
  0
LINE
  8
0
 10
-289.406
 20
204.274
 11
-289.65
 21
204.25
  0
LINE
  8
0
 10
-289.65
 20
204.25
 11
-289.894
 21
204.274
  0
LINE
  8
0
 10
-274.744
 20
193.274
 11
-274.978
 21
193.345
  0
LINE
  8
0
 10
-274.978
 20
193.345
 11
-275.194
 21
193.461
  0
LINE
  8
0
 10
-275.194
 20
193.461
 11
-275.384
 21
193.616
  0
LINE
  8
0
 10
-275.384
 20
193.616
 11
-275.539
 21
193.806
  0
LINE
  8
0
 10
-275.539
 20
193.806
 11
-275.655
 21
194.022
  0
LINE
  8
0
 10
-275.655
 20
194.022
 11
-275.726
 21
194.256
  0
LINE
  8
0
 10
-275.726
 20
194.256
 11
-275.75
 21
194.5
  0
LINE
  8
0
 10
-275.75
 20
194.5
 11
-275.726
 21
194.744
  0
LINE
  8
0
 10
-275.726
 20
194.744
 11
-275.655
 21
194.978
  0
LINE
  8
0
 10
-275.655
 20
194.978
 11
-275.539
 21
195.194
  0
LINE
  8
0
 10
-275.539
 20
195.194
 11
-275.384
 21
195.384
  0
LINE
  8
0
 10
-275.384
 20
195.384
 11
-275.194
 21
195.539
  0
LINE
  8
0
 10
-275.194
 20
195.539
 11
-274.978
 21
195.655
  0
LINE
  8
0
 10
-274.978
 20
195.655
 11
-274.744
 21
195.726
  0
LINE
  8
0
 10
-274.744
 20
195.726
 11
-274.5
 21
195.75
  0
LINE
  8
0
 10
-274.5
 20
195.75
 11
-274.256
 21
195.726
  0
LINE
  8
0
 10
-274.256
 20
195.726
 11
-274.022
 21
195.655
  0
LINE
  8
0
 10
-274.022
 20
195.655
 11
-273.806
 21
195.539
  0
LINE
  8
0
 10
-273.806
 20
195.539
 11
-273.616
 21
195.384
  0
LINE
  8
0
 10
-273.616
 20
195.384
 11
-273.461
 21
195.194
  0
LINE
  8
0
 10
-273.461
 20
195.194
 11
-273.345
 21
194.978
  0
LINE
  8
0
 10
-273.345
 20
194.978
 11
-273.274
 21
194.744
  0
LINE
  8
0
 10
-273.274
 20
194.744
 11
-273.25
 21
194.5
  0
LINE
  8
0
 10
-273.25
 20
194.5
 11
-273.274
 21
194.256
  0
LINE
  8
0
 10
-273.274
 20
194.256
 11
-273.345
 21
194.022
  0
LINE
  8
0
 10
-273.345
 20
194.022
 11
-273.461
 21
193.806
  0
LINE
  8
0
 10
-273.461
 20
193.806
 11
-273.616
 21
193.616
  0
LINE
  8
0
 10
-273.616
 20
193.616
 11
-273.806
 21
193.461
  0
LINE
  8
0
 10
-273.806
 20
193.461
 11
-274.022
 21
193.345
  0
LINE
  8
0
 10
-274.022
 20
193.345
 11
-274.256
 21
193.274
  0
LINE
  8
0
 10
-274.256
 20
193.274
 11
-274.5
 21
193.25
  0
LINE
  8
0
 10
-274.5
 20
193.25
 11
-274.744
 21
193.274
  0
LINE
  8
0
 10
-240.186
 20
190.81
 11
-240.43
 21
190.855
  0
LINE
  8
0
 10
-240.43
 20
190.855
 11
-240.665
 21
190.935
  0
LINE
  8
0
 10
-240.665
 20
190.935
 11
-240.886
 21
191.049
  0
LINE
  8
0
 10
-240.886
 20
191.049
 11
-241.087
 21
191.193
  0
LINE
  8
0
 10
-241.087
 20
191.193
 11
-241.266
 21
191.366
  0
LINE
  8
0
 10
-241.266
 20
191.366
 11
-241.418
 21
191.562
  0
LINE
  8
0
 10
-241.418
 20
191.562
 11
-241.539
 21
191.778
  0
LINE
  8
0
 10
-241.539
 20
191.778
 11
-241.628
 21
192.01
  0
LINE
  8
0
 10
-241.628
 20
192.01
 11
-241.682
 21
192.252
  0
LINE
  8
0
 10
-241.682
 20
192.252
 11
-241.7
 21
192.5
  0
LINE
  8
0
 10
-241.7
 20
192.5
 11
-241.682
 21
192.748
  0
LINE
  8
0
 10
-241.682
 20
192.748
 11
-241.628
 21
192.99
  0
LINE
  8
0
 10
-241.628
 20
192.99
 11
-241.539
 21
193.222
  0
LINE
  8
0
 10
-241.539
 20
193.222
 11
-241.418
 21
193.438
  0
LINE
  8
0
 10
-241.418
 20
193.438
 11
-241.266
 21
193.634
  0
LINE
  8
0
 10
-241.266
 20
193.634
 11
-241.087
 21
193.807
  0
LINE
  8
0
 10
-241.087
 20
193.807
 11
-240.886
 21
193.951
  0
LINE
  8
0
 10
-240.886
 20
193.951
 11
-240.665
 21
194.065
  0
LINE
  8
0
 10
-240.665
 20
194.065
 11
-240.43
 21
194.145
  0
LINE
  8
0
 10
-240.43
 20
194.145
 11
-240.186
 21
194.19
  0
LINE
  8
0
 10
-240.186
 20
194.19
 11
-239.938
 21
194.199
  0
LINE
  8
0
 10
-239.938
 20
194.199
 11
-239.691
 21
194.172
  0
LINE
  8
0
 10
-239.691
 20
194.172
 11
-239.451
 21
194.109
  0
LINE
  8
0
 10
-239.451
 20
194.109
 11
-239.223
 21
194.012
  0
LINE
  8
0
 10
-239.223
 20
194.012
 11
-239.011
 21
193.883
  0
LINE
  8
0
 10
-239.011
 20
193.883
 11
-238.82
 21
193.724
  0
LINE
  8
0
 10
-238.82
 20
193.724
 11
-238.654
 21
193.539
  0
LINE
  8
0
 10
-238.654
 20
193.539
 11
-238.518
 21
193.332
  0
LINE
  8
0
 10
-238.518
 20
193.332
 11
-238.412
 21
193.107
  0
LINE
  8
0
 10
-238.412
 20
193.107
 11
-238.341
 21
192.87
  0
LINE
  8
0
 10
-238.341
 20
192.87
 11
-238.305
 21
192.624
  0
LINE
  8
0
 10
-238.305
 20
192.624
 11
-238.305
 21
192.376
  0
LINE
  8
0
 10
-238.305
 20
192.376
 11
-238.341
 21
192.13
  0
LINE
  8
0
 10
-238.341
 20
192.13
 11
-238.412
 21
191.893
  0
LINE
  8
0
 10
-238.412
 20
191.893
 11
-238.518
 21
191.668
  0
LINE
  8
0
 10
-238.518
 20
191.668
 11
-238.654
 21
191.461
  0
LINE
  8
0
 10
-238.654
 20
191.461
 11
-238.82
 21
191.276
  0
LINE
  8
0
 10
-238.82
 20
191.276
 11
-239.011
 21
191.117
  0
LINE
  8
0
 10
-239.011
 20
191.117
 11
-239.223
 21
190.988
  0
LINE
  8
0
 10
-239.223
 20
190.988
 11
-239.451
 21
190.891
  0
LINE
  8
0
 10
-239.451
 20
190.891
 11
-239.691
 21
190.828
  0
LINE
  8
0
 10
-239.691
 20
190.828
 11
-239.938
 21
190.801
  0
LINE
  8
0
 10
-239.938
 20
190.801
 11
-240.186
 21
190.81
  0
LINE
  8
0
 10
239.691
 20
190.828
 11
239.451
 21
190.891
  0
LINE
  8
0
 10
239.451
 20
190.891
 11
239.223
 21
190.988
  0
LINE
  8
0
 10
239.223
 20
190.988
 11
239.011
 21
191.117
  0
LINE
  8
0
 10
239.011
 20
191.117
 11
238.82
 21
191.276
  0
LINE
  8
0
 10
238.82
 20
191.276
 11
238.654
 21
191.461
  0
LINE
  8
0
 10
238.654
 20
191.461
 11
238.518
 21
191.668
  0
LINE
  8
0
 10
238.518
 20
191.668
 11
238.412
 21
191.893
  0
LINE
  8
0
 10
238.412
 20
191.893
 11
238.341
 21
192.13
  0
LINE
  8
0
 10
238.341
 20
192.13
 11
238.305
 21
192.376
  0
LINE
  8
0
 10
238.305
 20
192.376
 11
238.305
 21
192.624
  0
LINE
  8
0
 10
238.305
 20
192.624
 11
238.341
 21
192.87
  0
LINE
  8
0
 10
238.341
 20
192.87
 11
238.412
 21
193.107
  0
LINE
  8
0
 10
238.412
 20
193.107
 11
238.518
 21
193.332
  0
LINE
  8
0
 10
238.518
 20
193.332
 11
238.654
 21
193.539
  0
LINE
  8
0
 10
238.654
 20
193.539
 11
238.82
 21
193.724
  0
LINE
  8
0
 10
238.82
 20
193.724
 11
239.011
 21
193.883
  0
LINE
  8
0
 10
239.011
 20
193.883
 11
239.223
 21
194.012
  0
LINE
  8
0
 10
239.223
 20
194.012
 11
239.451
 21
194.109
  0
LINE
  8
0
 10
239.451
 20
194.109
 11
239.691
 21
194.172
  0
LINE
  8
0
 10
239.691
 20
194.172
 11
239.938
 21
194.199
  0
LINE
  8
0
 10
239.938
 20
194.199
 11
240.186
 21
194.19
  0
LINE
  8
0
 10
240.186
 20
194.19
 11
240.43
 21
194.145
  0
LINE
  8
0
 10
240.43
 20
194.145
 11
240.665
 21
194.065
  0
LINE
  8
0
 10
240.665
 20
194.065
 11
240.886
 21
193.951
  0
LINE
  8
0
 10
240.886
 20
193.951
 11
241.087
 21
193.807
  0
LINE
  8
0
 10
241.087
 20
193.807
 11
241.266
 21
193.634
  0
LINE
  8
0
 10
241.266
 20
193.634
 11
241.418
 21
193.438
  0
LINE
  8
0
 10
241.418
 20
193.438
 11
241.539
 21
193.222
  0
LINE
  8
0
 10
241.539
 20
193.222
 11
241.628
 21
192.99
  0
LINE
  8
0
 10
241.628
 20
192.99
 11
241.682
 21
192.748
  0
LINE
  8
0
 10
241.682
 20
192.748
 11
241.7
 21
192.5
  0
LINE
  8
0
 10
241.7
 20
192.5
 11
241.682
 21
192.252
  0
LINE
  8
0
 10
241.682
 20
192.252
 11
241.628
 21
192.01
  0
LINE
  8
0
 10
241.628
 20
192.01
 11
241.539
 21
191.778
  0
LINE
  8
0
 10
241.539
 20
191.778
 11
241.418
 21
191.562
  0
LINE
  8
0
 10
241.418
 20
191.562
 11
241.266
 21
191.366
  0
LINE
  8
0
 10
241.266
 20
191.366
 11
241.087
 21
191.193
  0
LINE
  8
0
 10
241.087
 20
191.193
 11
240.886
 21
191.049
  0
LINE
  8
0
 10
240.886
 20
191.049
 11
240.665
 21
190.935
  0
LINE
  8
0
 10
240.665
 20
190.935
 11
240.43
 21
190.855
  0
LINE
  8
0
 10
240.43
 20
190.855
 11
240.186
 21
190.81
  0
LINE
  8
0
 10
240.186
 20
190.81
 11
239.938
 21
190.801
  0
LINE
  8
0
 10
239.938
 20
190.801
 11
239.691
 21
190.828
  0
LINE
  8
0
 10
299.027
 20
188.355
 11
298.783
 21
188.391
  0
LINE
  8
0
 10
298.783
 20
188.391
 11
298.547
 21
188.464
  0
LINE
  8
0
 10
298.547
 20
188.464
 11
298.325
 21
188.571
  0
LINE
  8
0
 10
298.325
 20
188.571
 11
298.121
 21
188.71
  0
LINE
  8
0
 10
298.121
 20
188.71
 11
297.94
 21
188.878
  0
LINE
  8
0
 10
297.94
 20
188.878
 11
297.787
 21
189.071
  0
LINE
  8
0
 10
297.787
 20
189.071
 11
297.663
 21
189.284
  0
LINE
  8
0
 10
297.663
 20
189.284
 11
297.573
 21
189.514
  0
LINE
  8
0
 10
297.573
 20
189.514
 11
297.518
 21
189.754
  0
LINE
  8
0
 10
297.518
 20
189.754
 11
297.5
 21
190
  0
LINE
  8
0
 10
297.5
 20
190
 11
297.518
 21
190.246
  0
LINE
  8
0
 10
297.518
 20
190.246
 11
297.573
 21
190.486
  0
LINE
  8
0
 10
297.573
 20
190.486
 11
297.663
 21
190.716
  0
LINE
  8
0
 10
297.663
 20
190.716
 11
297.787
 21
190.929
  0
LINE
  8
0
 10
297.787
 20
190.929
 11
297.94
 21
191.122
  0
LINE
  8
0
 10
297.94
 20
191.122
 11
298.121
 21
191.29
  0
LINE
  8
0
 10
298.121
 20
191.29
 11
298.325
 21
191.429
  0
LINE
  8
0
 10
298.325
 20
191.429
 11
298.547
 21
191.536
  0
LINE
  8
0
 10
298.547
 20
191.536
 11
298.783
 21
191.609
  0
LINE
  8
0
 10
298.783
 20
191.609
 11
299.027
 21
191.645
  0
LINE
  8
0
 10
299.027
 20
191.645
 11
307.273
 21
191.645
  0
LINE
  8
0
 10
307.273
 20
191.645
 11
307.517
 21
191.609
  0
LINE
  8
0
 10
307.517
 20
191.609
 11
307.753
 21
191.536
  0
LINE
  8
0
 10
307.753
 20
191.536
 11
307.975
 21
191.429
  0
LINE
  8
0
 10
307.975
 20
191.429
 11
308.179
 21
191.29
  0
LINE
  8
0
 10
308.179
 20
191.29
 11
308.36
 21
191.122
  0
LINE
  8
0
 10
308.36
 20
191.122
 11
308.513
 21
190.929
  0
LINE
  8
0
 10
308.513
 20
190.929
 11
308.637
 21
190.716
  0
LINE
  8
0
 10
308.637
 20
190.716
 11
308.727
 21
190.486
  0
LINE
  8
0
 10
308.727
 20
190.486
 11
308.782
 21
190.246
  0
LINE
  8
0
 10
308.782
 20
190.246
 11
308.8
 21
190
  0
LINE
  8
0
 10
308.8
 20
190
 11
308.782
 21
189.754
  0
LINE
  8
0
 10
308.782
 20
189.754
 11
308.727
 21
189.514
  0
LINE
  8
0
 10
308.727
 20
189.514
 11
308.637
 21
189.284
  0
LINE
  8
0
 10
308.637
 20
189.284
 11
308.513
 21
189.071
  0
LINE
  8
0
 10
308.513
 20
189.071
 11
308.36
 21
188.878
  0
LINE
  8
0
 10
308.36
 20
188.878
 11
308.179
 21
188.71
  0
LINE
  8
0
 10
308.179
 20
188.71
 11
307.975
 21
188.571
  0
LINE
  8
0
 10
307.975
 20
188.571
 11
307.753
 21
188.464
  0
LINE
  8
0
 10
307.753
 20
188.464
 11
307.517
 21
188.391
  0
LINE
  8
0
 10
307.517
 20
188.391
 11
307.273
 21
188.355
  0
LINE
  8
0
 10
307.273
 20
188.355
 11
299.027
 21
188.355
  0
LINE
  8
0
 10
268.027
 20
188.355
 11
267.783
 21
188.391
  0
LINE
  8
0
 10
267.783
 20
188.391
 11
267.547
 21
188.464
  0
LINE
  8
0
 10
267.547
 20
188.464
 11
267.325
 21
188.571
  0
LINE
  8
0
 10
267.325
 20
188.571
 11
267.121
 21
188.71
  0
LINE
  8
0
 10
267.121
 20
188.71
 11
266.94
 21
188.878
  0
LINE
  8
0
 10
266.94
 20
188.878
 11
266.787
 21
189.071
  0
LINE
  8
0
 10
266.787
 20
189.071
 11
266.663
 21
189.284
  0
LINE
  8
0
 10
266.663
 20
189.284
 11
266.573
 21
189.514
  0
LINE
  8
0
 10
266.573
 20
189.514
 11
266.518
 21
189.754
  0
LINE
  8
0
 10
266.518
 20
189.754
 11
266.5
 21
190
  0
LINE
  8
0
 10
266.5
 20
190
 11
266.518
 21
190.246
  0
LINE
  8
0
 10
266.518
 20
190.246
 11
266.573
 21
190.486
  0
LINE
  8
0
 10
266.573
 20
190.486
 11
266.663
 21
190.716
  0
LINE
  8
0
 10
266.663
 20
190.716
 11
266.787
 21
190.929
  0
LINE
  8
0
 10
266.787
 20
190.929
 11
266.94
 21
191.122
  0
LINE
  8
0
 10
266.94
 20
191.122
 11
267.121
 21
191.29
  0
LINE
  8
0
 10
267.121
 20
191.29
 11
267.325
 21
191.429
  0
LINE
  8
0
 10
267.325
 20
191.429
 11
267.547
 21
191.536
  0
LINE
  8
0
 10
267.547
 20
191.536
 11
267.783
 21
191.609
  0
LINE
  8
0
 10
267.783
 20
191.609
 11
268.027
 21
191.645
  0
LINE
  8
0
 10
268.027
 20
191.645
 11
276.273
 21
191.645
  0
LINE
  8
0
 10
276.273
 20
191.645
 11
276.517
 21
191.609
  0
LINE
  8
0
 10
276.517
 20
191.609
 11
276.753
 21
191.536
  0
LINE
  8
0
 10
276.753
 20
191.536
 11
276.975
 21
191.429
  0
LINE
  8
0
 10
276.975
 20
191.429
 11
277.179
 21
191.29
  0
LINE
  8
0
 10
277.179
 20
191.29
 11
277.36
 21
191.122
  0
LINE
  8
0
 10
277.36
 20
191.122
 11
277.513
 21
190.929
  0
LINE
  8
0
 10
277.513
 20
190.929
 11
277.637
 21
190.716
  0
LINE
  8
0
 10
277.637
 20
190.716
 11
277.727
 21
190.486
  0
LINE
  8
0
 10
277.727
 20
190.486
 11
277.782
 21
190.246
  0
LINE
  8
0
 10
277.782
 20
190.246
 11
277.8
 21
190
  0
LINE
  8
0
 10
277.8
 20
190
 11
277.782
 21
189.754
  0
LINE
  8
0
 10
277.782
 20
189.754
 11
277.727
 21
189.514
  0
LINE
  8
0
 10
277.727
 20
189.514
 11
277.637
 21
189.284
  0
LINE
  8
0
 10
277.637
 20
189.284
 11
277.513
 21
189.071
  0
LINE
  8
0
 10
277.513
 20
189.071
 11
277.36
 21
188.878
  0
LINE
  8
0
 10
277.36
 20
188.878
 11
277.179
 21
188.71
  0
LINE
  8
0
 10
277.179
 20
188.71
 11
276.975
 21
188.571
  0
LINE
  8
0
 10
276.975
 20
188.571
 11
276.753
 21
188.464
  0
LINE
  8
0
 10
276.753
 20
188.464
 11
276.517
 21
188.391
  0
LINE
  8
0
 10
276.517
 20
188.391
 11
276.273
 21
188.355
  0
LINE
  8
0
 10
276.273
 20
188.355
 11
268.027
 21
188.355
  0
LINE
  8
0
 10
239.751
 20
69.1011
 11
239.507
 21
69.1542
  0
LINE
  8
0
 10
239.507
 20
69.1542
 11
239.273
 21
69.2415
  0
LINE
  8
0
 10
239.273
 20
69.2415
 11
239.054
 21
69.3611
  0
LINE
  8
0
 10
239.054
 20
69.3611
 11
238.854
 21
69.5108
  0
LINE
  8
0
 10
238.854
 20
69.5108
 11
238.677
 21
69.6873
  0
LINE
  8
0
 10
238.677
 20
69.6873
 11
238.528
 21
69.8872
  0
LINE
  8
0
 10
238.528
 20
69.8872
 11
238.408
 21
70.1064
  0
LINE
  8
0
 10
238.408
 20
70.1064
 11
238.321
 21
70.3403
  0
LINE
  8
0
 10
238.321
 20
70.3403
 11
238.268
 21
70.5843
  0
LINE
  8
0
 10
238.268
 20
70.5843
 11
238.25
 21
70.8333
  0
LINE
  8
0
 10
238.25
 20
70.8333
 11
238.25
 21
182.5
  0
LINE
  8
0
 10
238.25
 20
182.5
 11
238.268
 21
182.749
  0
LINE
  8
0
 10
238.268
 20
182.749
 11
238.321
 21
182.993
  0
LINE
  8
0
 10
238.321
 20
182.993
 11
238.408
 21
183.227
  0
LINE
  8
0
 10
238.408
 20
183.227
 11
238.528
 21
183.446
  0
LINE
  8
0
 10
238.528
 20
183.446
 11
238.677
 21
183.646
  0
LINE
  8
0
 10
238.677
 20
183.646
 11
238.854
 21
183.823
  0
LINE
  8
0
 10
238.854
 20
183.823
 11
239.054
 21
183.972
  0
LINE
  8
0
 10
239.054
 20
183.972
 11
239.273
 21
184.092
  0
LINE
  8
0
 10
239.273
 20
184.092
 11
239.507
 21
184.179
  0
LINE
  8
0
 10
239.507
 20
184.179
 11
239.751
 21
184.232
  0
LINE
  8
0
 10
239.751
 20
184.232
 11
240
 21
184.25
  0
LINE
  8
0
 10
240
 20
184.25
 11
240.249
 21
184.232
  0
LINE
  8
0
 10
240.249
 20
184.232
 11
240.493
 21
184.179
  0
LINE
  8
0
 10
240.493
 20
184.179
 11
240.727
 21
184.092
  0
LINE
  8
0
 10
240.727
 20
184.092
 11
240.946
 21
183.972
  0
LINE
  8
0
 10
240.946
 20
183.972
 11
241.146
 21
183.823
  0
LINE
  8
0
 10
241.146
 20
183.823
 11
241.323
 21
183.646
  0
LINE
  8
0
 10
241.323
 20
183.646
 11
241.472
 21
183.446
  0
LINE
  8
0
 10
241.472
 20
183.446
 11
241.592
 21
183.227
  0
LINE
  8
0
 10
241.592
 20
183.227
 11
241.679
 21
182.993
  0
LINE
  8
0
 10
241.679
 20
182.993
 11
241.732
 21
182.749
  0
LINE
  8
0
 10
241.732
 20
182.749
 11
241.75
 21
182.5
  0
LINE
  8
0
 10
241.75
 20
182.5
 11
241.75
 21
70.8333
  0
LINE
  8
0
 10
241.75
 20
70.8333
 11
241.732
 21
70.5843
  0
LINE
  8
0
 10
241.732
 20
70.5843
 11
241.679
 21
70.3403
  0
LINE
  8
0
 10
241.679
 20
70.3403
 11
241.592
 21
70.1064
  0
LINE
  8
0
 10
241.592
 20
70.1064
 11
241.472
 21
69.8872
  0
LINE
  8
0
 10
241.472
 20
69.8872
 11
241.323
 21
69.6873
  0
LINE
  8
0
 10
241.323
 20
69.6873
 11
241.146
 21
69.5108
  0
LINE
  8
0
 10
241.146
 20
69.5108
 11
240.946
 21
69.3611
  0
LINE
  8
0
 10
240.946
 20
69.3611
 11
240.727
 21
69.2415
  0
LINE
  8
0
 10
240.727
 20
69.2415
 11
240.493
 21
69.1542
  0
LINE
  8
0
 10
240.493
 20
69.1542
 11
240.249
 21
69.1011
  0
LINE
  8
0
 10
240.249
 20
69.1011
 11
240
 21
69.0833
  0
LINE
  8
0
 10
240
 20
69.0833
 11
239.751
 21
69.1011
  0
LINE
  8
0
 10
-240.249
 20
69.1011
 11
-240.493
 21
69.1542
  0
LINE
  8
0
 10
-240.493
 20
69.1542
 11
-240.727
 21
69.2415
  0
LINE
  8
0
 10
-240.727
 20
69.2415
 11
-240.946
 21
69.3611
  0
LINE
  8
0
 10
-240.946
 20
69.3611
 11
-241.146
 21
69.5108
  0
LINE
  8
0
 10
-241.146
 20
69.5108
 11
-241.323
 21
69.6873
  0
LINE
  8
0
 10
-241.323
 20
69.6873
 11
-241.472
 21
69.8872
  0
LINE
  8
0
 10
-241.472
 20
69.8872
 11
-241.592
 21
70.1064
  0
LINE
  8
0
 10
-241.592
 20
70.1064
 11
-241.679
 21
70.3403
  0
LINE
  8
0
 10
-241.679
 20
70.3403
 11
-241.732
 21
70.5843
  0
LINE
  8
0
 10
-241.732
 20
70.5843
 11
-241.75
 21
70.8333
  0
LINE
  8
0
 10
-241.75
 20
70.8333
 11
-241.75
 21
182.5
  0
LINE
  8
0
 10
-241.75
 20
182.5
 11
-241.732
 21
182.749
  0
LINE
  8
0
 10
-241.732
 20
182.749
 11
-241.679
 21
182.993
  0
LINE
  8
0
 10
-241.679
 20
182.993
 11
-241.592
 21
183.227
  0
LINE
  8
0
 10
-241.592
 20
183.227
 11
-241.472
 21
183.446
  0
LINE
  8
0
 10
-241.472
 20
183.446
 11
-241.323
 21
183.646
  0
LINE
  8
0
 10
-241.323
 20
183.646
 11
-241.146
 21
183.823
  0
LINE
  8
0
 10
-241.146
 20
183.823
 11
-240.946
 21
183.972
  0
LINE
  8
0
 10
-240.946
 20
183.972
 11
-240.727
 21
184.092
  0
LINE
  8
0
 10
-240.727
 20
184.092
 11
-240.493
 21
184.179
  0
LINE
  8
0
 10
-240.493
 20
184.179
 11
-240.249
 21
184.232
  0
LINE
  8
0
 10
-240.249
 20
184.232
 11
-240
 21
184.25
  0
LINE
  8
0
 10
-240
 20
184.25
 11
-239.751
 21
184.232
  0
LINE
  8
0
 10
-239.751
 20
184.232
 11
-239.507
 21
184.179
  0
LINE
  8
0
 10
-239.507
 20
184.179
 11
-239.273
 21
184.092
  0
LINE
  8
0
 10
-239.273
 20
184.092
 11
-239.054
 21
183.972
  0
LINE
  8
0
 10
-239.054
 20
183.972
 11
-238.854
 21
183.823
  0
LINE
  8
0
 10
-238.854
 20
183.823
 11
-238.677
 21
183.646
  0
LINE
  8
0
 10
-238.677
 20
183.646
 11
-238.528
 21
183.446
  0
LINE
  8
0
 10
-238.528
 20
183.446
 11
-238.408
 21
183.227
  0
LINE
  8
0
 10
-238.408
 20
183.227
 11
-238.321
 21
182.993
  0
LINE
  8
0
 10
-238.321
 20
182.993
 11
-238.268
 21
182.749
  0
LINE
  8
0
 10
-238.268
 20
182.749
 11
-238.25
 21
182.5
  0
LINE
  8
0
 10
-238.25
 20
182.5
 11
-238.25
 21
70.8333
  0
LINE
  8
0
 10
-238.25
 20
70.8333
 11
-238.268
 21
70.5843
  0
LINE
  8
0
 10
-238.268
 20
70.5843
 11
-238.321
 21
70.3403
  0
LINE
  8
0
 10
-238.321
 20
70.3403
 11
-238.408
 21
70.1064
  0
LINE
  8
0
 10
-238.408
 20
70.1064
 11
-238.528
 21
69.8872
  0
LINE
  8
0
 10
-238.528
 20
69.8872
 11
-238.677
 21
69.6873
  0
LINE
  8
0
 10
-238.677
 20
69.6873
 11
-238.854
 21
69.5108
  0
LINE
  8
0
 10
-238.854
 20
69.5108
 11
-239.054
 21
69.3611
  0
LINE
  8
0
 10
-239.054
 20
69.3611
 11
-239.273
 21
69.2415
  0
LINE
  8
0
 10
-239.273
 20
69.2415
 11
-239.507
 21
69.1542
  0
LINE
  8
0
 10
-239.507
 20
69.1542
 11
-239.751
 21
69.1011
  0
LINE
  8
0
 10
-239.751
 20
69.1011
 11
-240
 21
69.0833
  0
LINE
  8
0
 10
-240
 20
69.0833
 11
-240.249
 21
69.1011
  0
LINE
  8
0
 10
299.816
 20
61.0617
 11
299.575
 21
61.1136
  0
LINE
  8
0
 10
299.575
 20
61.1136
 11
299.347
 21
61.2052
  0
LINE
  8
0
 10
299.347
 20
61.2052
 11
299.138
 21
61.3342
  0
LINE
  8
0
 10
299.138
 20
61.3342
 11
298.953
 21
61.4967
  0
LINE
  8
0
 10
298.953
 20
61.4967
 11
298.799
 21
61.688
  0
LINE
  8
0
 10
298.799
 20
61.688
 11
298.679
 21
61.9027
  0
LINE
  8
0
 10
298.679
 20
61.9027
 11
298.597
 21
62.1346
  0
LINE
  8
0
 10
298.597
 20
62.1346
 11
298.555
 21
62.377
  0
LINE
  8
0
 10
298.555
 20
62.377
 11
298.555
 21
62.623
  0
LINE
  8
0
 10
298.555
 20
62.623
 11
298.597
 21
62.8654
  0
LINE
  8
0
 10
298.597
 20
62.8654
 11
298.679
 21
63.0972
  0
LINE
  8
0
 10
298.679
 20
63.0972
 11
298.799
 21
63.312
  0
LINE
  8
0
 10
298.799
 20
63.312
 11
298.953
 21
63.5033
  0
LINE
  8
0
 10
298.953
 20
63.5033
 11
299.138
 21
63.6658
  0
LINE
  8
0
 10
299.138
 20
63.6658
 11
299.347
 21
63.7947
  0
LINE
  8
0
 10
299.347
 20
63.7947
 11
299.575
 21
63.8864
  0
LINE
  8
0
 10
299.575
 20
63.8864
 11
299.816
 21
63.9382
  0
LINE
  8
0
 10
299.816
 20
63.9382
 11
300.062
 21
63.9487
  0
LINE
  8
0
 10
300.062
 20
63.9487
 11
300.305
 21
63.9174
  0
LINE
  8
0
 10
300.305
 20
63.9174
 11
300.541
 21
63.8454
  0
LINE
  8
0
 10
300.541
 20
63.8454
 11
300.76
 21
63.7347
  0
LINE
  8
0
 10
300.76
 20
63.7347
 11
300.958
 21
63.5885
  0
LINE
  8
0
 10
300.958
 20
63.5885
 11
301.128
 21
63.4109
  0
LINE
  8
0
 10
301.128
 20
63.4109
 11
301.266
 21
63.2072
  0
LINE
  8
0
 10
301.266
 20
63.2072
 11
301.367
 21
62.983
  0
LINE
  8
0
 10
301.367
 20
62.983
 11
301.429
 21
62.745
  0
LINE
  8
0
 10
301.429
 20
62.745
 11
301.45
 21
62.5
  0
LINE
  8
0
 10
301.45
 20
62.5
 11
301.429
 21
62.2549
  0
LINE
  8
0
 10
301.429
 20
62.2549
 11
301.367
 21
62.0169
  0
LINE
  8
0
 10
301.367
 20
62.0169
 11
301.266
 21
61.7928
  0
LINE
  8
0
 10
301.266
 20
61.7928
 11
301.128
 21
61.5891
  0
LINE
  8
0
 10
301.128
 20
61.5891
 11
300.958
 21
61.4115
  0
LINE
  8
0
 10
300.958
 20
61.4115
 11
300.76
 21
61.2653
  0
LINE
  8
0
 10
300.76
 20
61.2653
 11
300.541
 21
61.1546
  0
LINE
  8
0
 10
300.541
 20
61.1546
 11
300.305
 21
61.0825
  0
LINE
  8
0
 10
300.305
 20
61.0825
 11
300.062
 21
61.0513
  0
LINE
  8
0
 10
300.062
 20
61.0513
 11
299.816
 21
61.0617
  0
LINE
  8
0
 10
-300.305
 20
61.0825
 11
-300.541
 21
61.1546
  0
LINE
  8
0
 10
-300.541
 20
61.1546
 11
-300.76
 21
61.2653
  0
LINE
  8
0
 10
-300.76
 20
61.2653
 11
-300.958
 21
61.4115
  0
LINE
  8
0
 10
-300.958
 20
61.4115
 11
-301.128
 21
61.5891
  0
LINE
  8
0
 10
-301.128
 20
61.5891
 11
-301.266
 21
61.7928
  0
LINE
  8
0
 10
-301.266
 20
61.7928
 11
-301.367
 21
62.0169
  0
LINE
  8
0
 10
-301.367
 20
62.0169
 11
-301.429
 21
62.2549
  0
LINE
  8
0
 10
-301.429
 20
62.2549
 11
-301.45
 21
62.5
  0
LINE
  8
0
 10
-301.45
 20
62.5
 11
-301.429
 21
62.745
  0
LINE
  8
0
 10
-301.429
 20
62.745
 11
-301.367
 21
62.983
  0
LINE
  8
0
 10
-301.367
 20
62.983
 11
-301.266
 21
63.2072
  0
LINE
  8
0
 10
-301.266
 20
63.2072
 11
-301.128
 21
63.4109
  0
LINE
  8
0
 10
-301.128
 20
63.4109
 11
-300.958
 21
63.5885
  0
LINE
  8
0
 10
-300.958
 20
63.5885
 11
-300.76
 21
63.7347
  0
LINE
  8
0
 10
-300.76
 20
63.7347
 11
-300.541
 21
63.8454
  0
LINE
  8
0
 10
-300.541
 20
63.8454
 11
-300.305
 21
63.9174
  0
LINE
  8
0
 10
-300.305
 20
63.9174
 11
-300.062
 21
63.9487
  0
LINE
  8
0
 10
-300.062
 20
63.9487
 11
-299.816
 21
63.9382
  0
LINE
  8
0
 10
-299.816
 20
63.9382
 11
-299.575
 21
63.8864
  0
LINE
  8
0
 10
-299.575
 20
63.8864
 11
-299.347
 21
63.7947
  0
LINE
  8
0
 10
-299.347
 20
63.7947
 11
-299.138
 21
63.6658
  0
LINE
  8
0
 10
-299.138
 20
63.6658
 11
-298.953
 21
63.5033
  0
LINE
  8
0
 10
-298.953
 20
63.5033
 11
-298.799
 21
63.312
  0
LINE
  8
0
 10
-298.799
 20
63.312
 11
-298.679
 21
63.0972
  0
LINE
  8
0
 10
-298.679
 20
63.0972
 11
-298.597
 21
62.8654
  0
LINE
  8
0
 10
-298.597
 20
62.8654
 11
-298.555
 21
62.623
  0
LINE
  8
0
 10
-298.555
 20
62.623
 11
-298.555
 21
62.377
  0
LINE
  8
0
 10
-298.555
 20
62.377
 11
-298.597
 21
62.1346
  0
LINE
  8
0
 10
-298.597
 20
62.1346
 11
-298.679
 21
61.9027
  0
LINE
  8
0
 10
-298.679
 20
61.9027
 11
-298.799
 21
61.688
  0
LINE
  8
0
 10
-298.799
 20
61.688
 11
-298.953
 21
61.4967
  0
LINE
  8
0
 10
-298.953
 20
61.4967
 11
-299.138
 21
61.3342
  0
LINE
  8
0
 10
-299.138
 20
61.3342
 11
-299.347
 21
61.2052
  0
LINE
  8
0
 10
-299.347
 20
61.2052
 11
-299.575
 21
61.1136
  0
LINE
  8
0
 10
-299.575
 20
61.1136
 11
-299.816
 21
61.0617
  0
LINE
  8
0
 10
-299.816
 20
61.0617
 11
-300.062
 21
61.0513
  0
LINE
  8
0
 10
-300.062
 20
61.0513
 11
-300.305
 21
61.0825
  0
LINE
  8
0
 10
-240.249
 20
-52.5655
 11
-240.493
 21
-52.5124
  0
LINE
  8
0
 10
-240.493
 20
-52.5124
 11
-240.727
 21
-52.4252
  0
LINE
  8
0
 10
-240.727
 20
-52.4252
 11
-240.946
 21
-52.3055
  0
LINE
  8
0
 10
-240.946
 20
-52.3055
 11
-241.146
 21
-52.1559
  0
LINE
  8
0
 10
-241.146
 20
-52.1559
 11
-241.323
 21
-51.9793
  0
LINE
  8
0
 10
-241.323
 20
-51.9793
 11
-241.472
 21
-51.7794
  0
LINE
  8
0
 10
-241.472
 20
-51.7794
 11
-241.592
 21
-51.5603
  0
LINE
  8
0
 10
-241.592
 20
-51.5603
 11
-241.679
 21
-51.3264
  0
LINE
  8
0
 10
-241.679
 20
-51.3264
 11
-241.732
 21
-51.0824
  0
LINE
  8
0
 10
-241.732
 20
-51.0824
 11
-241.75
 21
-50.8333
  0
LINE
  8
0
 10
-241.75
 20
-50.8333
 11
-241.75
 21
60.8333
  0
LINE
  8
0
 10
-241.75
 20
60.8333
 11
-241.732
 21
61.0824
  0
LINE
  8
0
 10
-241.732
 20
61.0824
 11
-241.679
 21
61.3264
  0
LINE
  8
0
 10
-241.679
 20
61.3264
 11
-241.592
 21
61.5603
  0
LINE
  8
0
 10
-241.592
 20
61.5603
 11
-241.472
 21
61.7794
  0
LINE
  8
0
 10
-241.472
 20
61.7794
 11
-241.323
 21
61.9793
  0
LINE
  8
0
 10
-241.323
 20
61.9793
 11
-241.146
 21
62.1559
  0
LINE
  8
0
 10
-241.146
 20
62.1559
 11
-240.946
 21
62.3055
  0
LINE
  8
0
 10
-240.946
 20
62.3055
 11
-240.727
 21
62.4252
  0
LINE
  8
0
 10
-240.727
 20
62.4252
 11
-240.493
 21
62.5124
  0
LINE
  8
0
 10
-240.493
 20
62.5124
 11
-240.249
 21
62.5655
  0
LINE
  8
0
 10
-240.249
 20
62.5655
 11
-240
 21
62.5833
  0
LINE
  8
0
 10
-240
 20
62.5833
 11
-239.751
 21
62.5655
  0
LINE
  8
0
 10
-239.751
 20
62.5655
 11
-239.507
 21
62.5124
  0
LINE
  8
0
 10
-239.507
 20
62.5124
 11
-239.273
 21
62.4252
  0
LINE
  8
0
 10
-239.273
 20
62.4252
 11
-239.054
 21
62.3055
  0
LINE
  8
0
 10
-239.054
 20
62.3055
 11
-238.854
 21
62.1559
  0
LINE
  8
0
 10
-238.854
 20
62.1559
 11
-238.677
 21
61.9793
  0
LINE
  8
0
 10
-238.677
 20
61.9793
 11
-238.528
 21
61.7794
  0
LINE
  8
0
 10
-238.528
 20
61.7794
 11
-238.408
 21
61.5603
  0
LINE
  8
0
 10
-238.408
 20
61.5603
 11
-238.321
 21
61.3264
  0
LINE
  8
0
 10
-238.321
 20
61.3264
 11
-238.268
 21
61.0824
  0
LINE
  8
0
 10
-238.268
 20
61.0824
 11
-238.25
 21
60.8333
  0
LINE
  8
0
 10
-238.25
 20
60.8333
 11
-238.25
 21
-50.8333
  0
LINE
  8
0
 10
-238.25
 20
-50.8333
 11
-238.268
 21
-51.0824
  0
LINE
  8
0
 10
-238.268
 20
-51.0824
 11
-238.321
 21
-51.3264
  0
LINE
  8
0
 10
-238.321
 20
-51.3264
 11
-238.408
 21
-51.5603
  0
LINE
  8
0
 10
-238.408
 20
-51.5603
 11
-238.528
 21
-51.7794
  0
LINE
  8
0
 10
-238.528
 20
-51.7794
 11
-238.677
 21
-51.9793
  0
LINE
  8
0
 10
-238.677
 20
-51.9793
 11
-238.854
 21
-52.1559
  0
LINE
  8
0
 10
-238.854
 20
-52.1559
 11
-239.054
 21
-52.3055
  0
LINE
  8
0
 10
-239.054
 20
-52.3055
 11
-239.273
 21
-52.4252
  0
LINE
  8
0
 10
-239.273
 20
-52.4252
 11
-239.507
 21
-52.5124
  0
LINE
  8
0
 10
-239.507
 20
-52.5124
 11
-239.751
 21
-52.5655
  0
LINE
  8
0
 10
-239.751
 20
-52.5655
 11
-240
 21
-52.5833
  0
LINE
  8
0
 10
-240
 20
-52.5833
 11
-240.249
 21
-52.5655
  0
LINE
  8
0
 10
239.751
 20
-52.5655
 11
239.507
 21
-52.5124
  0
LINE
  8
0
 10
239.507
 20
-52.5124
 11
239.273
 21
-52.4252
  0
LINE
  8
0
 10
239.273
 20
-52.4252
 11
239.054
 21
-52.3055
  0
LINE
  8
0
 10
239.054
 20
-52.3055
 11
238.854
 21
-52.1559
  0
LINE
  8
0
 10
238.854
 20
-52.1559
 11
238.677
 21
-51.9793
  0
LINE
  8
0
 10
238.677
 20
-51.9793
 11
238.528
 21
-51.7794
  0
LINE
  8
0
 10
238.528
 20
-51.7794
 11
238.408
 21
-51.5603
  0
LINE
  8
0
 10
238.408
 20
-51.5603
 11
238.321
 21
-51.3264
  0
LINE
  8
0
 10
238.321
 20
-51.3264
 11
238.268
 21
-51.0824
  0
LINE
  8
0
 10
238.268
 20
-51.0824
 11
238.25
 21
-50.8333
  0
LINE
  8
0
 10
238.25
 20
-50.8333
 11
238.25
 21
60.8333
  0
LINE
  8
0
 10
238.25
 20
60.8333
 11
238.268
 21
61.0824
  0
LINE
  8
0
 10
238.268
 20
61.0824
 11
238.321
 21
61.3264
  0
LINE
  8
0
 10
238.321
 20
61.3264
 11
238.408
 21
61.5603
  0
LINE
  8
0
 10
238.408
 20
61.5603
 11
238.528
 21
61.7794
  0
LINE
  8
0
 10
238.528
 20
61.7794
 11
238.677
 21
61.9793
  0
LINE
  8
0
 10
238.677
 20
61.9793
 11
238.854
 21
62.1559
  0
LINE
  8
0
 10
238.854
 20
62.1559
 11
239.054
 21
62.3055
  0
LINE
  8
0
 10
239.054
 20
62.3055
 11
239.273
 21
62.4252
  0
LINE
  8
0
 10
239.273
 20
62.4252
 11
239.507
 21
62.5124
  0
LINE
  8
0
 10
239.507
 20
62.5124
 11
239.751
 21
62.5655
  0
LINE
  8
0
 10
239.751
 20
62.5655
 11
240
 21
62.5833
  0
LINE
  8
0
 10
240
 20
62.5833
 11
240.249
 21
62.5655
  0
LINE
  8
0
 10
240.249
 20
62.5655
 11
240.493
 21
62.5124
  0
LINE
  8
0
 10
240.493
 20
62.5124
 11
240.727
 21
62.4252
  0
LINE
  8
0
 10
240.727
 20
62.4252
 11
240.946
 21
62.3055
  0
LINE
  8
0
 10
240.946
 20
62.3055
 11
241.146
 21
62.1559
  0
LINE
  8
0
 10
241.146
 20
62.1559
 11
241.323
 21
61.9793
  0
LINE
  8
0
 10
241.323
 20
61.9793
 11
241.472
 21
61.7794
  0
LINE
  8
0
 10
241.472
 20
61.7794
 11
241.592
 21
61.5603
  0
LINE
  8
0
 10
241.592
 20
61.5603
 11
241.679
 21
61.3264
  0
LINE
  8
0
 10
241.679
 20
61.3264
 11
241.732
 21
61.0824
  0
LINE
  8
0
 10
241.732
 20
61.0824
 11
241.75
 21
60.8333
  0
LINE
  8
0
 10
241.75
 20
60.8333
 11
241.75
 21
-50.8333
  0
LINE
  8
0
 10
241.75
 20
-50.8333
 11
241.732
 21
-51.0824
  0
LINE
  8
0
 10
241.732
 20
-51.0824
 11
241.679
 21
-51.3264
  0
LINE
  8
0
 10
241.679
 20
-51.3264
 11
241.592
 21
-51.5603
  0
LINE
  8
0
 10
241.592
 20
-51.5603
 11
241.472
 21
-51.7794
  0
LINE
  8
0
 10
241.472
 20
-51.7794
 11
241.323
 21
-51.9793
  0
LINE
  8
0
 10
241.323
 20
-51.9793
 11
241.146
 21
-52.1559
  0
LINE
  8
0
 10
241.146
 20
-52.1559
 11
240.946
 21
-52.3055
  0
LINE
  8
0
 10
240.946
 20
-52.3055
 11
240.727
 21
-52.4252
  0
LINE
  8
0
 10
240.727
 20
-52.4252
 11
240.493
 21
-52.5124
  0
LINE
  8
0
 10
240.493
 20
-52.5124
 11
240.249
 21
-52.5655
  0
LINE
  8
0
 10
240.249
 20
-52.5655
 11
240
 21
-52.5833
  0
LINE
  8
0
 10
240
 20
-52.5833
 11
239.751
 21
-52.5655
  0
LINE
  8
0
 10
299.749
 20
40.1131
 11
299.501
 21
40.1524
  0
LINE
  8
0
 10
299.501
 20
40.1524
 11
299.258
 21
40.2175
  0
LINE
  8
0
 10
299.258
 20
40.2175
 11
299.024
 21
40.3075
  0
LINE
  8
0
 10
299.024
 20
40.3075
 11
298.8
 21
40.4215
  0
LINE
  8
0
 10
298.8
 20
40.4215
 11
298.589
 21
40.5583
  0
LINE
  8
0
 10
298.589
 20
40.5583
 11
298.394
 21
40.7164
  0
LINE
  8
0
 10
298.394
 20
40.7164
 11
298.216
 21
40.8941
  0
LINE
  8
0
 10
298.216
 20
40.8941
 11
298.058
 21
41.0893
  0
LINE
  8
0
 10
298.058
 20
41.0893
 11
297.922
 21
41.3
  0
LINE
  8
0
 10
297.922
 20
41.3
 11
297.807
 21
41.5238
  0
LINE
  8
0
 10
297.807
 20
41.5238
 11
297.717
 21
41.7583
  0
LINE
  8
0
 10
297.717
 20
41.7583
 11
297.652
 21
42.001
  0
LINE
  8
0
 10
297.652
 20
42.001
 11
297.613
 21
42.2491
  0
LINE
  8
0
 10
297.613
 20
42.2491
 11
297.6
 21
42.5
  0
LINE
  8
0
 10
297.6
 20
42.5
 11
297.613
 21
42.7509
  0
LINE
  8
0
 10
297.613
 20
42.7509
 11
297.652
 21
42.999
  0
LINE
  8
0
 10
297.652
 20
42.999
 11
297.717
 21
43.2416
  0
LINE
  8
0
 10
297.717
 20
43.2416
 11
297.807
 21
43.4762
  0
LINE
  8
0
 10
297.807
 20
43.4762
 11
297.922
 21
43.7
  0
LINE
  8
0
 10
297.922
 20
43.7
 11
298.058
 21
43.9107
  0
LINE
  8
0
 10
298.058
 20
43.9107
 11
298.216
 21
44.1059
  0
LINE
  8
0
 10
298.216
 20
44.1059
 11
298.394
 21
44.2835
  0
LINE
  8
0
 10
298.394
 20
44.2835
 11
298.589
 21
44.4416
  0
LINE
  8
0
 10
298.589
 20
44.4416
 11
298.8
 21
44.5785
  0
LINE
  8
0
 10
298.8
 20
44.5785
 11
299.024
 21
44.6925
  0
LINE
  8
0
 10
299.024
 20
44.6925
 11
299.258
 21
44.7825
  0
LINE
  8
0
 10
299.258
 20
44.7825
 11
299.501
 21
44.8475
  0
LINE
  8
0
 10
299.501
 20
44.8475
 11
299.749
 21
44.8868
  0
LINE
  8
0
 10
299.749
 20
44.8868
 11
300
 21
44.9
  0
LINE
  8
0
 10
300
 20
44.9
 11
300.251
 21
44.8868
  0
LINE
  8
0
 10
300.251
 20
44.8868
 11
300.499
 21
44.8475
  0
LINE
  8
0
 10
300.499
 20
44.8475
 11
300.742
 21
44.7825
  0
LINE
  8
0
 10
300.742
 20
44.7825
 11
300.976
 21
44.6925
  0
LINE
  8
0
 10
300.976
 20
44.6925
 11
301.2
 21
44.5785
  0
LINE
  8
0
 10
301.2
 20
44.5785
 11
301.411
 21
44.4416
  0
LINE
  8
0
 10
301.411
 20
44.4416
 11
301.606
 21
44.2835
  0
LINE
  8
0
 10
301.606
 20
44.2835
 11
301.784
 21
44.1059
  0
LINE
  8
0
 10
301.784
 20
44.1059
 11
301.942
 21
43.9107
  0
LINE
  8
0
 10
301.942
 20
43.9107
 11
302.078
 21
43.7
  0
LINE
  8
0
 10
302.078
 20
43.7
 11
302.193
 21
43.4762
  0
LINE
  8
0
 10
302.193
 20
43.4762
 11
302.283
 21
43.2416
  0
LINE
  8
0
 10
302.283
 20
43.2416
 11
302.348
 21
42.999
  0
LINE
  8
0
 10
302.348
 20
42.999
 11
302.387
 21
42.7509
  0
LINE
  8
0
 10
302.387
 20
42.7509
 11
302.4
 21
42.5
  0
LINE
  8
0
 10
302.4
 20
42.5
 11
302.387
 21
42.2491
  0
LINE
  8
0
 10
302.387
 20
42.2491
 11
302.348
 21
42.001
  0
LINE
  8
0
 10
302.348
 20
42.001
 11
302.283
 21
41.7583
  0
LINE
  8
0
 10
302.283
 20
41.7583
 11
302.193
 21
41.5238
  0
LINE
  8
0
 10
302.193
 20
41.5238
 11
302.078
 21
41.3
  0
LINE
  8
0
 10
302.078
 20
41.3
 11
301.942
 21
41.0893
  0
LINE
  8
0
 10
301.942
 20
41.0893
 11
301.784
 21
40.8941
  0
LINE
  8
0
 10
301.784
 20
40.8941
 11
301.606
 21
40.7164
  0
LINE
  8
0
 10
301.606
 20
40.7164
 11
301.411
 21
40.5583
  0
LINE
  8
0
 10
301.411
 20
40.5583
 11
301.2
 21
40.4215
  0
LINE
  8
0
 10
301.2
 20
40.4215
 11
300.976
 21
40.3075
  0
LINE
  8
0
 10
300.976
 20
40.3075
 11
300.742
 21
40.2175
  0
LINE
  8
0
 10
300.742
 20
40.2175
 11
300.499
 21
40.1524
  0
LINE
  8
0
 10
300.499
 20
40.1524
 11
300.251
 21
40.1131
  0
LINE
  8
0
 10
300.251
 20
40.1131
 11
300
 21
40.1
  0
LINE
  8
0
 10
300
 20
40.1
 11
299.749
 21
40.1131
  0
LINE
  8
0
 10
-300.251
 20
40.1131
 11
-300.499
 21
40.1524
  0
LINE
  8
0
 10
-300.499
 20
40.1524
 11
-300.742
 21
40.2175
  0
LINE
  8
0
 10
-300.742
 20
40.2175
 11
-300.976
 21
40.3075
  0
LINE
  8
0
 10
-300.976
 20
40.3075
 11
-301.2
 21
40.4215
  0
LINE
  8
0
 10
-301.2
 20
40.4215
 11
-301.411
 21
40.5583
  0
LINE
  8
0
 10
-301.411
 20
40.5583
 11
-301.606
 21
40.7164
  0
LINE
  8
0
 10
-301.606
 20
40.7164
 11
-301.784
 21
40.8941
  0
LINE
  8
0
 10
-301.784
 20
40.8941
 11
-301.942
 21
41.0893
  0
LINE
  8
0
 10
-301.942
 20
41.0893
 11
-302.078
 21
41.3
  0
LINE
  8
0
 10
-302.078
 20
41.3
 11
-302.193
 21
41.5238
  0
LINE
  8
0
 10
-302.193
 20
41.5238
 11
-302.283
 21
41.7583
  0
LINE
  8
0
 10
-302.283
 20
41.7583
 11
-302.348
 21
42.001
  0
LINE
  8
0
 10
-302.348
 20
42.001
 11
-302.387
 21
42.2491
  0
LINE
  8
0
 10
-302.387
 20
42.2491
 11
-302.4
 21
42.5
  0
LINE
  8
0
 10
-302.4
 20
42.5
 11
-302.387
 21
42.7509
  0
LINE
  8
0
 10
-302.387
 20
42.7509
 11
-302.348
 21
42.999
  0
LINE
  8
0
 10
-302.348
 20
42.999
 11
-302.283
 21
43.2416
  0
LINE
  8
0
 10
-302.283
 20
43.2416
 11
-302.193
 21
43.4762
  0
LINE
  8
0
 10
-302.193
 20
43.4762
 11
-302.078
 21
43.7
  0
LINE
  8
0
 10
-302.078
 20
43.7
 11
-301.942
 21
43.9107
  0
LINE
  8
0
 10
-301.942
 20
43.9107
 11
-301.784
 21
44.1059
  0
LINE
  8
0
 10
-301.784
 20
44.1059
 11
-301.606
 21
44.2835
  0
LINE
  8
0
 10
-301.606
 20
44.2835
 11
-301.411
 21
44.4416
  0
LINE
  8
0
 10
-301.411
 20
44.4416
 11
-301.2
 21
44.5785
  0
LINE
  8
0
 10
-301.2
 20
44.5785
 11
-300.976
 21
44.6925
  0
LINE
  8
0
 10
-300.976
 20
44.6925
 11
-300.742
 21
44.7825
  0
LINE
  8
0
 10
-300.742
 20
44.7825
 11
-300.499
 21
44.8475
  0
LINE
  8
0
 10
-300.499
 20
44.8475
 11
-300.251
 21
44.8868
  0
LINE
  8
0
 10
-300.251
 20
44.8868
 11
-300
 21
44.9
  0
LINE
  8
0
 10
-300
 20
44.9
 11
-299.749
 21
44.8868
  0
LINE
  8
0
 10
-299.749
 20
44.8868
 11
-299.501
 21
44.8475
  0
LINE
  8
0
 10
-299.501
 20
44.8475
 11
-299.258
 21
44.7825
  0
LINE
  8
0
 10
-299.258
 20
44.7825
 11
-299.024
 21
44.6925
  0
LINE
  8
0
 10
-299.024
 20
44.6925
 11
-298.8
 21
44.5785
  0
LINE
  8
0
 10
-298.8
 20
44.5785
 11
-298.589
 21
44.4416
  0
LINE
  8
0
 10
-298.589
 20
44.4416
 11
-298.394
 21
44.2835
  0
LINE
  8
0
 10
-298.394
 20
44.2835
 11
-298.216
 21
44.1059
  0
LINE
  8
0
 10
-298.216
 20
44.1059
 11
-298.058
 21
43.9107
  0
LINE
  8
0
 10
-298.058
 20
43.9107
 11
-297.922
 21
43.7
  0
LINE
  8
0
 10
-297.922
 20
43.7
 11
-297.807
 21
43.4762
  0
LINE
  8
0
 10
-297.807
 20
43.4762
 11
-297.717
 21
43.2416
  0
LINE
  8
0
 10
-297.717
 20
43.2416
 11
-297.652
 21
42.999
  0
LINE
  8
0
 10
-297.652
 20
42.999
 11
-297.613
 21
42.7509
  0
LINE
  8
0
 10
-297.613
 20
42.7509
 11
-297.6
 21
42.5
  0
LINE
  8
0
 10
-297.6
 20
42.5
 11
-297.613
 21
42.2491
  0
LINE
  8
0
 10
-297.613
 20
42.2491
 11
-297.652
 21
42.001
  0
LINE
  8
0
 10
-297.652
 20
42.001
 11
-297.717
 21
41.7583
  0
LINE
  8
0
 10
-297.717
 20
41.7583
 11
-297.807
 21
41.5238
  0
LINE
  8
0
 10
-297.807
 20
41.5238
 11
-297.922
 21
41.3
  0
LINE
  8
0
 10
-297.922
 20
41.3
 11
-298.058
 21
41.0893
  0
LINE
  8
0
 10
-298.058
 20
41.0893
 11
-298.216
 21
40.8941
  0
LINE
  8
0
 10
-298.216
 20
40.8941
 11
-298.394
 21
40.7164
  0
LINE
  8
0
 10
-298.394
 20
40.7164
 11
-298.589
 21
40.5583
  0
LINE
  8
0
 10
-298.589
 20
40.5583
 11
-298.8
 21
40.4215
  0
LINE
  8
0
 10
-298.8
 20
40.4215
 11
-299.024
 21
40.3075
  0
LINE
  8
0
 10
-299.024
 20
40.3075
 11
-299.258
 21
40.2175
  0
LINE
  8
0
 10
-299.258
 20
40.2175
 11
-299.501
 21
40.1524
  0
LINE
  8
0
 10
-299.501
 20
40.1524
 11
-299.749
 21
40.1131
  0
LINE
  8
0
 10
-299.749
 20
40.1131
 11
-300
 21
40.1
  0
LINE
  8
0
 10
-300
 20
40.1
 11
-300.251
 21
40.1131
  0
LINE
  8
0
 10
-300.397
 20
18.7208
 11
-300.79
 21
18.783
  0
LINE
  8
0
 10
-300.79
 20
18.783
 11
-301.174
 21
18.886
  0
LINE
  8
0
 10
-301.174
 20
18.886
 11
-301.546
 21
19.0285
  0
LINE
  8
0
 10
-301.546
 20
19.0285
 11
-301.9
 21
19.2091
  0
LINE
  8
0
 10
-301.9
 20
19.2091
 11
-302.234
 21
19.4257
  0
LINE
  8
0
 10
-302.234
 20
19.4257
 11
-302.543
 21
19.676
  0
LINE
  8
0
 10
-302.543
 20
19.676
 11
-302.824
 21
19.9573
  0
LINE
  8
0
 10
-302.824
 20
19.9573
 11
-303.074
 21
20.2664
  0
LINE
  8
0
 10
-303.074
 20
20.2664
 11
-303.291
 21
20.6
  0
LINE
  8
0
 10
-303.291
 20
20.6
 11
-303.471
 21
20.9544
  0
LINE
  8
0
 10
-303.471
 20
20.9544
 11
-303.614
 21
21.3257
  0
LINE
  8
0
 10
-303.614
 20
21.3257
 11
-303.717
 21
21.7099
  0
LINE
  8
0
 10
-303.717
 20
21.7099
 11
-303.779
 21
22.1028
  0
LINE
  8
0
 10
-303.779
 20
22.1028
 11
-303.8
 21
22.5
  0
LINE
  8
0
 10
-303.8
 20
22.5
 11
-303.779
 21
22.8972
  0
LINE
  8
0
 10
-303.779
 20
22.8972
 11
-303.717
 21
23.2901
  0
LINE
  8
0
 10
-303.717
 20
23.2901
 11
-303.614
 21
23.6743
  0
LINE
  8
0
 10
-303.614
 20
23.6743
 11
-303.471
 21
24.0456
  0
LINE
  8
0
 10
-303.471
 20
24.0456
 11
-303.291
 21
24.4
  0
LINE
  8
0
 10
-303.291
 20
24.4
 11
-303.074
 21
24.7336
  0
LINE
  8
0
 10
-303.074
 20
24.7336
 11
-302.824
 21
25.0427
  0
LINE
  8
0
 10
-302.824
 20
25.0427
 11
-302.543
 21
25.3239
  0
LINE
  8
0
 10
-302.543
 20
25.3239
 11
-302.234
 21
25.5743
  0
LINE
  8
0
 10
-302.234
 20
25.5743
 11
-301.9
 21
25.7909
  0
LINE
  8
0
 10
-301.9
 20
25.7909
 11
-301.546
 21
25.9715
  0
LINE
  8
0
 10
-301.546
 20
25.9715
 11
-301.174
 21
26.114
  0
LINE
  8
0
 10
-301.174
 20
26.114
 11
-300.79
 21
26.2169
  0
LINE
  8
0
 10
-300.79
 20
26.2169
 11
-300.397
 21
26.2792
  0
LINE
  8
0
 10
-300.397
 20
26.2792
 11
-300
 21
26.3
  0
LINE
  8
0
 10
-300
 20
26.3
 11
-299.603
 21
26.2792
  0
LINE
  8
0
 10
-299.603
 20
26.2792
 11
-299.21
 21
26.2169
  0
LINE
  8
0
 10
-299.21
 20
26.2169
 11
-298.826
 21
26.114
  0
LINE
  8
0
 10
-298.826
 20
26.114
 11
-298.454
 21
25.9715
  0
LINE
  8
0
 10
-298.454
 20
25.9715
 11
-298.1
 21
25.7909
  0
LINE
  8
0
 10
-298.1
 20
25.7909
 11
-297.766
 21
25.5743
  0
LINE
  8
0
 10
-297.766
 20
25.5743
 11
-297.457
 21
25.3239
  0
LINE
  8
0
 10
-297.457
 20
25.3239
 11
-297.176
 21
25.0427
  0
LINE
  8
0
 10
-297.176
 20
25.0427
 11
-296.926
 21
24.7336
  0
LINE
  8
0
 10
-296.926
 20
24.7336
 11
-296.709
 21
24.4
  0
LINE
  8
0
 10
-296.709
 20
24.4
 11
-296.529
 21
24.0456
  0
LINE
  8
0
 10
-296.529
 20
24.0456
 11
-296.386
 21
23.6743
  0
LINE
  8
0
 10
-296.386
 20
23.6743
 11
-296.283
 21
23.2901
  0
LINE
  8
0
 10
-296.283
 20
23.2901
 11
-296.221
 21
22.8972
  0
LINE
  8
0
 10
-296.221
 20
22.8972
 11
-296.2
 21
22.5
  0
LINE
  8
0
 10
-296.2
 20
22.5
 11
-296.221
 21
22.1028
  0
LINE
  8
0
 10
-296.221
 20
22.1028
 11
-296.283
 21
21.7099
  0
LINE
  8
0
 10
-296.283
 20
21.7099
 11
-296.386
 21
21.3257
  0
LINE
  8
0
 10
-296.386
 20
21.3257
 11
-296.529
 21
20.9544
  0
LINE
  8
0
 10
-296.529
 20
20.9544
 11
-296.709
 21
20.6
  0
LINE
  8
0
 10
-296.709
 20
20.6
 11
-296.926
 21
20.2664
  0
LINE
  8
0
 10
-296.926
 20
20.2664
 11
-297.176
 21
19.9573
  0
LINE
  8
0
 10
-297.176
 20
19.9573
 11
-297.457
 21
19.676
  0
LINE
  8
0
 10
-297.457
 20
19.676
 11
-297.766
 21
19.4257
  0
LINE
  8
0
 10
-297.766
 20
19.4257
 11
-298.1
 21
19.2091
  0
LINE
  8
0
 10
-298.1
 20
19.2091
 11
-298.454
 21
19.0285
  0
LINE
  8
0
 10
-298.454
 20
19.0285
 11
-298.826
 21
18.886
  0
LINE
  8
0
 10
-298.826
 20
18.886
 11
-299.21
 21
18.783
  0
LINE
  8
0
 10
-299.21
 20
18.783
 11
-299.603
 21
18.7208
  0
LINE
  8
0
 10
-299.603
 20
18.7208
 11
-300
 21
18.7
  0
LINE
  8
0
 10
-300
 20
18.7
 11
-300.397
 21
18.7208
  0
LINE
  8
0
 10
299.603
 20
18.7208
 11
299.21
 21
18.783
  0
LINE
  8
0
 10
299.21
 20
18.783
 11
298.826
 21
18.886
  0
LINE
  8
0
 10
298.826
 20
18.886
 11
298.454
 21
19.0285
  0
LINE
  8
0
 10
298.454
 20
19.0285
 11
298.1
 21
19.2091
  0
LINE
  8
0
 10
298.1
 20
19.2091
 11
297.766
 21
19.4257
  0
LINE
  8
0
 10
297.766
 20
19.4257
 11
297.457
 21
19.676
  0
LINE
  8
0
 10
297.457
 20
19.676
 11
297.176
 21
19.9573
  0
LINE
  8
0
 10
297.176
 20
19.9573
 11
296.926
 21
20.2664
  0
LINE
  8
0
 10
296.926
 20
20.2664
 11
296.709
 21
20.6
  0
LINE
  8
0
 10
296.709
 20
20.6
 11
296.529
 21
20.9544
  0
LINE
  8
0
 10
296.529
 20
20.9544
 11
296.386
 21
21.3257
  0
LINE
  8
0
 10
296.386
 20
21.3257
 11
296.283
 21
21.7099
  0
LINE
  8
0
 10
296.283
 20
21.7099
 11
296.221
 21
22.1028
  0
LINE
  8
0
 10
296.221
 20
22.1028
 11
296.2
 21
22.5
  0
LINE
  8
0
 10
296.2
 20
22.5
 11
296.221
 21
22.8972
  0
LINE
  8
0
 10
296.221
 20
22.8972
 11
296.283
 21
23.2901
  0
LINE
  8
0
 10
296.283
 20
23.2901
 11
296.386
 21
23.6743
  0
LINE
  8
0
 10
296.386
 20
23.6743
 11
296.529
 21
24.0456
  0
LINE
  8
0
 10
296.529
 20
24.0456
 11
296.709
 21
24.4
  0
LINE
  8
0
 10
296.709
 20
24.4
 11
296.926
 21
24.7336
  0
LINE
  8
0
 10
296.926
 20
24.7336
 11
297.176
 21
25.0427
  0
LINE
  8
0
 10
297.176
 20
25.0427
 11
297.457
 21
25.3239
  0
LINE
  8
0
 10
297.457
 20
25.3239
 11
297.766
 21
25.5743
  0
LINE
  8
0
 10
297.766
 20
25.5743
 11
298.1
 21
25.7909
  0
LINE
  8
0
 10
298.1
 20
25.7909
 11
298.454
 21
25.9715
  0
LINE
  8
0
 10
298.454
 20
25.9715
 11
298.826
 21
26.114
  0
LINE
  8
0
 10
298.826
 20
26.114
 11
299.21
 21
26.2169
  0
LINE
  8
0
 10
299.21
 20
26.2169
 11
299.603
 21
26.2792
  0
LINE
  8
0
 10
299.603
 20
26.2792
 11
300
 21
26.3
  0
LINE
  8
0
 10
300
 20
26.3
 11
300.397
 21
26.2792
  0
LINE
  8
0
 10
300.397
 20
26.2792
 11
300.79
 21
26.2169
  0
LINE
  8
0
 10
300.79
 20
26.2169
 11
301.174
 21
26.114
  0
LINE
  8
0
 10
301.174
 20
26.114
 11
301.546
 21
25.9715
  0
LINE
  8
0
 10
301.546
 20
25.9715
 11
301.9
 21
25.7909
  0
LINE
  8
0
 10
301.9
 20
25.7909
 11
302.234
 21
25.5743
  0
LINE
  8
0
 10
302.234
 20
25.5743
 11
302.543
 21
25.3239
  0
LINE
  8
0
 10
302.543
 20
25.3239
 11
302.824
 21
25.0427
  0
LINE
  8
0
 10
302.824
 20
25.0427
 11
303.074
 21
24.7336
  0
LINE
  8
0
 10
303.074
 20
24.7336
 11
303.291
 21
24.4
  0
LINE
  8
0
 10
303.291
 20
24.4
 11
303.471
 21
24.0456
  0
LINE
  8
0
 10
303.471
 20
24.0456
 11
303.614
 21
23.6743
  0
LINE
  8
0
 10
303.614
 20
23.6743
 11
303.717
 21
23.2901
  0
LINE
  8
0
 10
303.717
 20
23.2901
 11
303.779
 21
22.8972
  0
LINE
  8
0
 10
303.779
 20
22.8972
 11
303.8
 21
22.5
  0
LINE
  8
0
 10
303.8
 20
22.5
 11
303.779
 21
22.1028
  0
LINE
  8
0
 10
303.779
 20
22.1028
 11
303.717
 21
21.7099
  0
LINE
  8
0
 10
303.717
 20
21.7099
 11
303.614
 21
21.3257
  0
LINE
  8
0
 10
303.614
 20
21.3257
 11
303.471
 21
20.9544
  0
LINE
  8
0
 10
303.471
 20
20.9544
 11
303.291
 21
20.6
  0
LINE
  8
0
 10
303.291
 20
20.6
 11
303.074
 21
20.2664
  0
LINE
  8
0
 10
303.074
 20
20.2664
 11
302.824
 21
19.9573
  0
LINE
  8
0
 10
302.824
 20
19.9573
 11
302.543
 21
19.676
  0
LINE
  8
0
 10
302.543
 20
19.676
 11
302.234
 21
19.4257
  0
LINE
  8
0
 10
302.234
 20
19.4257
 11
301.9
 21
19.2091
  0
LINE
  8
0
 10
301.9
 20
19.2091
 11
301.546
 21
19.0285
  0
LINE
  8
0
 10
301.546
 20
19.0285
 11
301.174
 21
18.886
  0
LINE
  8
0
 10
301.174
 20
18.886
 11
300.79
 21
18.783
  0
LINE
  8
0
 10
300.79
 20
18.783
 11
300.397
 21
18.7208
  0
LINE
  8
0
 10
300.397
 20
18.7208
 11
300
 21
18.7
  0
LINE
  8
0
 10
300
 20
18.7
 11
299.603
 21
18.7208
  0
LINE
  8
0
 10
-300.397
 20
-26.2792
 11
-300.79
 21
-26.2169
  0
LINE
  8
0
 10
-300.79
 20
-26.2169
 11
-301.174
 21
-26.114
  0
LINE
  8
0
 10
-301.174
 20
-26.114
 11
-301.546
 21
-25.9715
  0
LINE
  8
0
 10
-301.546
 20
-25.9715
 11
-301.9
 21
-25.7909
  0
LINE
  8
0
 10
-301.9
 20
-25.7909
 11
-302.234
 21
-25.5743
  0
LINE
  8
0
 10
-302.234
 20
-25.5743
 11
-302.543
 21
-25.3239
  0
LINE
  8
0
 10
-302.543
 20
-25.3239
 11
-302.824
 21
-25.0427
  0
LINE
  8
0
 10
-302.824
 20
-25.0427
 11
-303.074
 21
-24.7336
  0
LINE
  8
0
 10
-303.074
 20
-24.7336
 11
-303.291
 21
-24.4
  0
LINE
  8
0
 10
-303.291
 20
-24.4
 11
-303.471
 21
-24.0456
  0
LINE
  8
0
 10
-303.471
 20
-24.0456
 11
-303.614
 21
-23.6743
  0
LINE
  8
0
 10
-303.614
 20
-23.6743
 11
-303.717
 21
-23.2901
  0
LINE
  8
0
 10
-303.717
 20
-23.2901
 11
-303.779
 21
-22.8972
  0
LINE
  8
0
 10
-303.779
 20
-22.8972
 11
-303.8
 21
-22.5
  0
LINE
  8
0
 10
-303.8
 20
-22.5
 11
-303.779
 21
-22.1028
  0
LINE
  8
0
 10
-303.779
 20
-22.1028
 11
-303.717
 21
-21.7099
  0
LINE
  8
0
 10
-303.717
 20
-21.7099
 11
-303.614
 21
-21.3257
  0
LINE
  8
0
 10
-303.614
 20
-21.3257
 11
-303.471
 21
-20.9544
  0
LINE
  8
0
 10
-303.471
 20
-20.9544
 11
-303.291
 21
-20.6
  0
LINE
  8
0
 10
-303.291
 20
-20.6
 11
-303.074
 21
-20.2664
  0
LINE
  8
0
 10
-303.074
 20
-20.2664
 11
-302.824
 21
-19.9573
  0
LINE
  8
0
 10
-302.824
 20
-19.9573
 11
-302.543
 21
-19.676
  0
LINE
  8
0
 10
-302.543
 20
-19.676
 11
-302.234
 21
-19.4257
  0
LINE
  8
0
 10
-302.234
 20
-19.4257
 11
-301.9
 21
-19.2091
  0
LINE
  8
0
 10
-301.9
 20
-19.2091
 11
-301.546
 21
-19.0285
  0
LINE
  8
0
 10
-301.546
 20
-19.0285
 11
-301.174
 21
-18.886
  0
LINE
  8
0
 10
-301.174
 20
-18.886
 11
-300.79
 21
-18.783
  0
LINE
  8
0
 10
-300.79
 20
-18.783
 11
-300.397
 21
-18.7208
  0
LINE
  8
0
 10
-300.397
 20
-18.7208
 11
-300
 21
-18.7
  0
LINE
  8
0
 10
-300
 20
-18.7
 11
-299.603
 21
-18.7208
  0
LINE
  8
0
 10
-299.603
 20
-18.7208
 11
-299.21
 21
-18.783
  0
LINE
  8
0
 10
-299.21
 20
-18.783
 11
-298.826
 21
-18.886
  0
LINE
  8
0
 10
-298.826
 20
-18.886
 11
-298.454
 21
-19.0285
  0
LINE
  8
0
 10
-298.454
 20
-19.0285
 11
-298.1
 21
-19.2091
  0
LINE
  8
0
 10
-298.1
 20
-19.2091
 11
-297.766
 21
-19.4257
  0
LINE
  8
0
 10
-297.766
 20
-19.4257
 11
-297.457
 21
-19.676
  0
LINE
  8
0
 10
-297.457
 20
-19.676
 11
-297.176
 21
-19.9573
  0
LINE
  8
0
 10
-297.176
 20
-19.9573
 11
-296.926
 21
-20.2664
  0
LINE
  8
0
 10
-296.926
 20
-20.2664
 11
-296.709
 21
-20.6
  0
LINE
  8
0
 10
-296.709
 20
-20.6
 11
-296.529
 21
-20.9544
  0
LINE
  8
0
 10
-296.529
 20
-20.9544
 11
-296.386
 21
-21.3257
  0
LINE
  8
0
 10
-296.386
 20
-21.3257
 11
-296.283
 21
-21.7099
  0
LINE
  8
0
 10
-296.283
 20
-21.7099
 11
-296.221
 21
-22.1028
  0
LINE
  8
0
 10
-296.221
 20
-22.1028
 11
-296.2
 21
-22.5
  0
LINE
  8
0
 10
-296.2
 20
-22.5
 11
-296.221
 21
-22.8972
  0
LINE
  8
0
 10
-296.221
 20
-22.8972
 11
-296.283
 21
-23.2901
  0
LINE
  8
0
 10
-296.283
 20
-23.2901
 11
-296.386
 21
-23.6743
  0
LINE
  8
0
 10
-296.386
 20
-23.6743
 11
-296.529
 21
-24.0456
  0
LINE
  8
0
 10
-296.529
 20
-24.0456
 11
-296.709
 21
-24.4
  0
LINE
  8
0
 10
-296.709
 20
-24.4
 11
-296.926
 21
-24.7336
  0
LINE
  8
0
 10
-296.926
 20
-24.7336
 11
-297.176
 21
-25.0427
  0
LINE
  8
0
 10
-297.176
 20
-25.0427
 11
-297.457
 21
-25.3239
  0
LINE
  8
0
 10
-297.457
 20
-25.3239
 11
-297.766
 21
-25.5743
  0
LINE
  8
0
 10
-297.766
 20
-25.5743
 11
-298.1
 21
-25.7909
  0
LINE
  8
0
 10
-298.1
 20
-25.7909
 11
-298.454
 21
-25.9715
  0
LINE
  8
0
 10
-298.454
 20
-25.9715
 11
-298.826
 21
-26.114
  0
LINE
  8
0
 10
-298.826
 20
-26.114
 11
-299.21
 21
-26.2169
  0
LINE
  8
0
 10
-299.21
 20
-26.2169
 11
-299.603
 21
-26.2792
  0
LINE
  8
0
 10
-299.603
 20
-26.2792
 11
-300
 21
-26.3
  0
LINE
  8
0
 10
-300
 20
-26.3
 11
-300.397
 21
-26.2792
  0
LINE
  8
0
 10
299.603
 20
-26.2792
 11
299.21
 21
-26.2169
  0
LINE
  8
0
 10
299.21
 20
-26.2169
 11
298.826
 21
-26.114
  0
LINE
  8
0
 10
298.826
 20
-26.114
 11
298.454
 21
-25.9715
  0
LINE
  8
0
 10
298.454
 20
-25.9715
 11
298.1
 21
-25.7909
  0
LINE
  8
0
 10
298.1
 20
-25.7909
 11
297.766
 21
-25.5743
  0
LINE
  8
0
 10
297.766
 20
-25.5743
 11
297.457
 21
-25.3239
  0
LINE
  8
0
 10
297.457
 20
-25.3239
 11
297.176
 21
-25.0427
  0
LINE
  8
0
 10
297.176
 20
-25.0427
 11
296.926
 21
-24.7336
  0
LINE
  8
0
 10
296.926
 20
-24.7336
 11
296.709
 21
-24.4
  0
LINE
  8
0
 10
296.709
 20
-24.4
 11
296.529
 21
-24.0456
  0
LINE
  8
0
 10
296.529
 20
-24.0456
 11
296.386
 21
-23.6743
  0
LINE
  8
0
 10
296.386
 20
-23.6743
 11
296.283
 21
-23.2901
  0
LINE
  8
0
 10
296.283
 20
-23.2901
 11
296.221
 21
-22.8972
  0
LINE
  8
0
 10
296.221
 20
-22.8972
 11
296.2
 21
-22.5
  0
LINE
  8
0
 10
296.2
 20
-22.5
 11
296.221
 21
-22.1028
  0
LINE
  8
0
 10
296.221
 20
-22.1028
 11
296.283
 21
-21.7099
  0
LINE
  8
0
 10
296.283
 20
-21.7099
 11
296.386
 21
-21.3257
  0
LINE
  8
0
 10
296.386
 20
-21.3257
 11
296.529
 21
-20.9544
  0
LINE
  8
0
 10
296.529
 20
-20.9544
 11
296.709
 21
-20.6
  0
LINE
  8
0
 10
296.709
 20
-20.6
 11
296.926
 21
-20.2664
  0
LINE
  8
0
 10
296.926
 20
-20.2664
 11
297.176
 21
-19.9573
  0
LINE
  8
0
 10
297.176
 20
-19.9573
 11
297.457
 21
-19.676
  0
LINE
  8
0
 10
297.457
 20
-19.676
 11
297.766
 21
-19.4257
  0
LINE
  8
0
 10
297.766
 20
-19.4257
 11
298.1
 21
-19.2091
  0
LINE
  8
0
 10
298.1
 20
-19.2091
 11
298.454
 21
-19.0285
  0
LINE
  8
0
 10
298.454
 20
-19.0285
 11
298.826
 21
-18.886
  0
LINE
  8
0
 10
298.826
 20
-18.886
 11
299.21
 21
-18.783
  0
LINE
  8
0
 10
299.21
 20
-18.783
 11
299.603
 21
-18.7208
  0
LINE
  8
0
 10
299.603
 20
-18.7208
 11
300
 21
-18.7
  0
LINE
  8
0
 10
300
 20
-18.7
 11
300.397
 21
-18.7208
  0
LINE
  8
0
 10
300.397
 20
-18.7208
 11
300.79
 21
-18.783
  0
LINE
  8
0
 10
300.79
 20
-18.783
 11
301.174
 21
-18.886
  0
LINE
  8
0
 10
301.174
 20
-18.886
 11
301.546
 21
-19.0285
  0
LINE
  8
0
 10
301.546
 20
-19.0285
 11
301.9
 21
-19.2091
  0
LINE
  8
0
 10
301.9
 20
-19.2091
 11
302.234
 21
-19.4257
  0
LINE
  8
0
 10
302.234
 20
-19.4257
 11
302.543
 21
-19.676
  0
LINE
  8
0
 10
302.543
 20
-19.676
 11
302.824
 21
-19.9573
  0
LINE
  8
0
 10
302.824
 20
-19.9573
 11
303.074
 21
-20.2664
  0
LINE
  8
0
 10
303.074
 20
-20.2664
 11
303.291
 21
-20.6
  0
LINE
  8
0
 10
303.291
 20
-20.6
 11
303.471
 21
-20.9544
  0
LINE
  8
0
 10
303.471
 20
-20.9544
 11
303.614
 21
-21.3257
  0
LINE
  8
0
 10
303.614
 20
-21.3257
 11
303.717
 21
-21.7099
  0
LINE
  8
0
 10
303.717
 20
-21.7099
 11
303.779
 21
-22.1028
  0
LINE
  8
0
 10
303.779
 20
-22.1028
 11
303.8
 21
-22.5
  0
LINE
  8
0
 10
303.8
 20
-22.5
 11
303.779
 21
-22.8972
  0
LINE
  8
0
 10
303.779
 20
-22.8972
 11
303.717
 21
-23.2901
  0
LINE
  8
0
 10
303.717
 20
-23.2901
 11
303.614
 21
-23.6743
  0
LINE
  8
0
 10
303.614
 20
-23.6743
 11
303.471
 21
-24.0456
  0
LINE
  8
0
 10
303.471
 20
-24.0456
 11
303.291
 21
-24.4
  0
LINE
  8
0
 10
303.291
 20
-24.4
 11
303.074
 21
-24.7336
  0
LINE
  8
0
 10
303.074
 20
-24.7336
 11
302.824
 21
-25.0427
  0
LINE
  8
0
 10
302.824
 20
-25.0427
 11
302.543
 21
-25.3239
  0
LINE
  8
0
 10
302.543
 20
-25.3239
 11
302.234
 21
-25.5743
  0
LINE
  8
0
 10
302.234
 20
-25.5743
 11
301.9
 21
-25.7909
  0
LINE
  8
0
 10
301.9
 20
-25.7909
 11
301.546
 21
-25.9715
  0
LINE
  8
0
 10
301.546
 20
-25.9715
 11
301.174
 21
-26.114
  0
LINE
  8
0
 10
301.174
 20
-26.114
 11
300.79
 21
-26.2169
  0
LINE
  8
0
 10
300.79
 20
-26.2169
 11
300.397
 21
-26.2792
  0
LINE
  8
0
 10
300.397
 20
-26.2792
 11
300
 21
-26.3
  0
LINE
  8
0
 10
300
 20
-26.3
 11
299.603
 21
-26.2792
  0
LINE
  8
0
 10
299.749
 20
-44.8868
 11
299.501
 21
-44.8475
  0
LINE
  8
0
 10
299.501
 20
-44.8475
 11
299.258
 21
-44.7825
  0
LINE
  8
0
 10
299.258
 20
-44.7825
 11
299.024
 21
-44.6925
  0
LINE
  8
0
 10
299.024
 20
-44.6925
 11
298.8
 21
-44.5785
  0
LINE
  8
0
 10
298.8
 20
-44.5785
 11
298.589
 21
-44.4416
  0
LINE
  8
0
 10
298.589
 20
-44.4416
 11
298.394
 21
-44.2835
  0
LINE
  8
0
 10
298.394
 20
-44.2835
 11
298.216
 21
-44.1059
  0
LINE
  8
0
 10
298.216
 20
-44.1059
 11
298.058
 21
-43.9107
  0
LINE
  8
0
 10
298.058
 20
-43.9107
 11
297.922
 21
-43.7
  0
LINE
  8
0
 10
297.922
 20
-43.7
 11
297.807
 21
-43.4762
  0
LINE
  8
0
 10
297.807
 20
-43.4762
 11
297.717
 21
-43.2416
  0
LINE
  8
0
 10
297.717
 20
-43.2416
 11
297.652
 21
-42.999
  0
LINE
  8
0
 10
297.652
 20
-42.999
 11
297.613
 21
-42.7509
  0
LINE
  8
0
 10
297.613
 20
-42.7509
 11
297.6
 21
-42.5
  0
LINE
  8
0
 10
297.6
 20
-42.5
 11
297.613
 21
-42.2491
  0
LINE
  8
0
 10
297.613
 20
-42.2491
 11
297.652
 21
-42.001
  0
LINE
  8
0
 10
297.652
 20
-42.001
 11
297.717
 21
-41.7583
  0
LINE
  8
0
 10
297.717
 20
-41.7583
 11
297.807
 21
-41.5238
  0
LINE
  8
0
 10
297.807
 20
-41.5238
 11
297.922
 21
-41.3
  0
LINE
  8
0
 10
297.922
 20
-41.3
 11
298.058
 21
-41.0893
  0
LINE
  8
0
 10
298.058
 20
-41.0893
 11
298.216
 21
-40.8941
  0
LINE
  8
0
 10
298.216
 20
-40.8941
 11
298.394
 21
-40.7164
  0
LINE
  8
0
 10
298.394
 20
-40.7164
 11
298.589
 21
-40.5583
  0
LINE
  8
0
 10
298.589
 20
-40.5583
 11
298.8
 21
-40.4215
  0
LINE
  8
0
 10
298.8
 20
-40.4215
 11
299.024
 21
-40.3075
  0
LINE
  8
0
 10
299.024
 20
-40.3075
 11
299.258
 21
-40.2175
  0
LINE
  8
0
 10
299.258
 20
-40.2175
 11
299.501
 21
-40.1524
  0
LINE
  8
0
 10
299.501
 20
-40.1524
 11
299.749
 21
-40.1131
  0
LINE
  8
0
 10
299.749
 20
-40.1131
 11
300
 21
-40.1
  0
LINE
  8
0
 10
300
 20
-40.1
 11
300.251
 21
-40.1131
  0
LINE
  8
0
 10
300.251
 20
-40.1131
 11
300.499
 21
-40.1524
  0
LINE
  8
0
 10
300.499
 20
-40.1524
 11
300.742
 21
-40.2175
  0
LINE
  8
0
 10
300.742
 20
-40.2175
 11
300.976
 21
-40.3075
  0
LINE
  8
0
 10
300.976
 20
-40.3075
 11
301.2
 21
-40.4215
  0
LINE
  8
0
 10
301.2
 20
-40.4215
 11
301.411
 21
-40.5583
  0
LINE
  8
0
 10
301.411
 20
-40.5583
 11
301.606
 21
-40.7164
  0
LINE
  8
0
 10
301.606
 20
-40.7164
 11
301.784
 21
-40.8941
  0
LINE
  8
0
 10
301.784
 20
-40.8941
 11
301.942
 21
-41.0893
  0
LINE
  8
0
 10
301.942
 20
-41.0893
 11
302.078
 21
-41.3
  0
LINE
  8
0
 10
302.078
 20
-41.3
 11
302.193
 21
-41.5238
  0
LINE
  8
0
 10
302.193
 20
-41.5238
 11
302.283
 21
-41.7583
  0
LINE
  8
0
 10
302.283
 20
-41.7583
 11
302.348
 21
-42.001
  0
LINE
  8
0
 10
302.348
 20
-42.001
 11
302.387
 21
-42.2491
  0
LINE
  8
0
 10
302.387
 20
-42.2491
 11
302.4
 21
-42.5
  0
LINE
  8
0
 10
302.4
 20
-42.5
 11
302.387
 21
-42.7509
  0
LINE
  8
0
 10
302.387
 20
-42.7509
 11
302.348
 21
-42.999
  0
LINE
  8
0
 10
302.348
 20
-42.999
 11
302.283
 21
-43.2416
  0
LINE
  8
0
 10
302.283
 20
-43.2416
 11
302.193
 21
-43.4762
  0
LINE
  8
0
 10
302.193
 20
-43.4762
 11
302.078
 21
-43.7
  0
LINE
  8
0
 10
302.078
 20
-43.7
 11
301.942
 21
-43.9107
  0
LINE
  8
0
 10
301.942
 20
-43.9107
 11
301.784
 21
-44.1059
  0
LINE
  8
0
 10
301.784
 20
-44.1059
 11
301.606
 21
-44.2835
  0
LINE
  8
0
 10
301.606
 20
-44.2835
 11
301.411
 21
-44.4416
  0
LINE
  8
0
 10
301.411
 20
-44.4416
 11
301.2
 21
-44.5785
  0
LINE
  8
0
 10
301.2
 20
-44.5785
 11
300.976
 21
-44.6925
  0
LINE
  8
0
 10
300.976
 20
-44.6925
 11
300.742
 21
-44.7825
  0
LINE
  8
0
 10
300.742
 20
-44.7825
 11
300.499
 21
-44.8475
  0
LINE
  8
0
 10
300.499
 20
-44.8475
 11
300.251
 21
-44.8868
  0
LINE
  8
0
 10
300.251
 20
-44.8868
 11
300
 21
-44.9
  0
LINE
  8
0
 10
300
 20
-44.9
 11
299.749
 21
-44.8868
  0
LINE
  8
0
 10
-300.251
 20
-44.8868
 11
-300.499
 21
-44.8475
  0
LINE
  8
0
 10
-300.499
 20
-44.8475
 11
-300.742
 21
-44.7825
  0
LINE
  8
0
 10
-300.742
 20
-44.7825
 11
-300.976
 21
-44.6925
  0
LINE
  8
0
 10
-300.976
 20
-44.6925
 11
-301.2
 21
-44.5785
  0
LINE
  8
0
 10
-301.2
 20
-44.5785
 11
-301.411
 21
-44.4416
  0
LINE
  8
0
 10
-301.411
 20
-44.4416
 11
-301.606
 21
-44.2835
  0
LINE
  8
0
 10
-301.606
 20
-44.2835
 11
-301.784
 21
-44.1059
  0
LINE
  8
0
 10
-301.784
 20
-44.1059
 11
-301.942
 21
-43.9107
  0
LINE
  8
0
 10
-301.942
 20
-43.9107
 11
-302.078
 21
-43.7
  0
LINE
  8
0
 10
-302.078
 20
-43.7
 11
-302.193
 21
-43.4762
  0
LINE
  8
0
 10
-302.193
 20
-43.4762
 11
-302.283
 21
-43.2416
  0
LINE
  8
0
 10
-302.283
 20
-43.2416
 11
-302.348
 21
-42.999
  0
LINE
  8
0
 10
-302.348
 20
-42.999
 11
-302.387
 21
-42.7509
  0
LINE
  8
0
 10
-302.387
 20
-42.7509
 11
-302.4
 21
-42.5
  0
LINE
  8
0
 10
-302.4
 20
-42.5
 11
-302.387
 21
-42.2491
  0
LINE
  8
0
 10
-302.387
 20
-42.2491
 11
-302.348
 21
-42.001
  0
LINE
  8
0
 10
-302.348
 20
-42.001
 11
-302.283
 21
-41.7583
  0
LINE
  8
0
 10
-302.283
 20
-41.7583
 11
-302.193
 21
-41.5238
  0
LINE
  8
0
 10
-302.193
 20
-41.5238
 11
-302.078
 21
-41.3
  0
LINE
  8
0
 10
-302.078
 20
-41.3
 11
-301.942
 21
-41.0893
  0
LINE
  8
0
 10
-301.942
 20
-41.0893
 11
-301.784
 21
-40.8941
  0
LINE
  8
0
 10
-301.784
 20
-40.8941
 11
-301.606
 21
-40.7164
  0
LINE
  8
0
 10
-301.606
 20
-40.7164
 11
-301.411
 21
-40.5583
  0
LINE
  8
0
 10
-301.411
 20
-40.5583
 11
-301.2
 21
-40.4215
  0
LINE
  8
0
 10
-301.2
 20
-40.4215
 11
-300.976
 21
-40.3075
  0
LINE
  8
0
 10
-300.976
 20
-40.3075
 11
-300.742
 21
-40.2175
  0
LINE
  8
0
 10
-300.742
 20
-40.2175
 11
-300.499
 21
-40.1524
  0
LINE
  8
0
 10
-300.499
 20
-40.1524
 11
-300.251
 21
-40.1131
  0
LINE
  8
0
 10
-300.251
 20
-40.1131
 11
-300
 21
-40.1
  0
LINE
  8
0
 10
-300
 20
-40.1
 11
-299.749
 21
-40.1131
  0
LINE
  8
0
 10
-299.749
 20
-40.1131
 11
-299.501
 21
-40.1524
  0
LINE
  8
0
 10
-299.501
 20
-40.1524
 11
-299.258
 21
-40.2175
  0
LINE
  8
0
 10
-299.258
 20
-40.2175
 11
-299.024
 21
-40.3075
  0
LINE
  8
0
 10
-299.024
 20
-40.3075
 11
-298.8
 21
-40.4215
  0
LINE
  8
0
 10
-298.8
 20
-40.4215
 11
-298.589
 21
-40.5583
  0
LINE
  8
0
 10
-298.589
 20
-40.5583
 11
-298.394
 21
-40.7164
  0
LINE
  8
0
 10
-298.394
 20
-40.7164
 11
-298.216
 21
-40.8941
  0
LINE
  8
0
 10
-298.216
 20
-40.8941
 11
-298.058
 21
-41.0893
  0
LINE
  8
0
 10
-298.058
 20
-41.0893
 11
-297.922
 21
-41.3
  0
LINE
  8
0
 10
-297.922
 20
-41.3
 11
-297.807
 21
-41.5238
  0
LINE
  8
0
 10
-297.807
 20
-41.5238
 11
-297.717
 21
-41.7583
  0
LINE
  8
0
 10
-297.717
 20
-41.7583
 11
-297.652
 21
-42.001
  0
LINE
  8
0
 10
-297.652
 20
-42.001
 11
-297.613
 21
-42.2491
  0
LINE
  8
0
 10
-297.613
 20
-42.2491
 11
-297.6
 21
-42.5
  0
LINE
  8
0
 10
-297.6
 20
-42.5
 11
-297.613
 21
-42.7509
  0
LINE
  8
0
 10
-297.613
 20
-42.7509
 11
-297.652
 21
-42.999
  0
LINE
  8
0
 10
-297.652
 20
-42.999
 11
-297.717
 21
-43.2416
  0
LINE
  8
0
 10
-297.717
 20
-43.2416
 11
-297.807
 21
-43.4762
  0
LINE
  8
0
 10
-297.807
 20
-43.4762
 11
-297.922
 21
-43.7
  0
LINE
  8
0
 10
-297.922
 20
-43.7
 11
-298.058
 21
-43.9107
  0
LINE
  8
0
 10
-298.058
 20
-43.9107
 11
-298.216
 21
-44.1059
  0
LINE
  8
0
 10
-298.216
 20
-44.1059
 11
-298.394
 21
-44.2835
  0
LINE
  8
0
 10
-298.394
 20
-44.2835
 11
-298.589
 21
-44.4416
  0
LINE
  8
0
 10
-298.589
 20
-44.4416
 11
-298.8
 21
-44.5785
  0
LINE
  8
0
 10
-298.8
 20
-44.5785
 11
-299.024
 21
-44.6925
  0
LINE
  8
0
 10
-299.024
 20
-44.6925
 11
-299.258
 21
-44.7825
  0
LINE
  8
0
 10
-299.258
 20
-44.7825
 11
-299.501
 21
-44.8475
  0
LINE
  8
0
 10
-299.501
 20
-44.8475
 11
-299.749
 21
-44.8868
  0
LINE
  8
0
 10
-299.749
 20
-44.8868
 11
-300
 21
-44.9
  0
LINE
  8
0
 10
-300
 20
-44.9
 11
-300.251
 21
-44.8868
  0
LINE
  8
0
 10
239.751
 20
-174.232
 11
239.507
 21
-174.179
  0
LINE
  8
0
 10
239.507
 20
-174.179
 11
239.273
 21
-174.092
  0
LINE
  8
0
 10
239.273
 20
-174.092
 11
239.054
 21
-173.972
  0
LINE
  8
0
 10
239.054
 20
-173.972
 11
238.854
 21
-173.823
  0
LINE
  8
0
 10
238.854
 20
-173.823
 11
238.677
 21
-173.646
  0
LINE
  8
0
 10
238.677
 20
-173.646
 11
238.528
 21
-173.446
  0
LINE
  8
0
 10
238.528
 20
-173.446
 11
238.408
 21
-173.227
  0
LINE
  8
0
 10
238.408
 20
-173.227
 11
238.321
 21
-172.993
  0
LINE
  8
0
 10
238.321
 20
-172.993
 11
238.268
 21
-172.749
  0
LINE
  8
0
 10
238.268
 20
-172.749
 11
238.25
 21
-172.5
  0
LINE
  8
0
 10
238.25
 20
-172.5
 11
238.25
 21
-60.8333
  0
LINE
  8
0
 10
238.25
 20
-60.8333
 11
238.268
 21
-60.5843
  0
LINE
  8
0
 10
238.268
 20
-60.5843
 11
238.321
 21
-60.3403
  0
LINE
  8
0
 10
238.321
 20
-60.3403
 11
238.408
 21
-60.1064
  0
LINE
  8
0
 10
238.408
 20
-60.1064
 11
238.528
 21
-59.8872
  0
LINE
  8
0
 10
238.528
 20
-59.8872
 11
238.677
 21
-59.6873
  0
LINE
  8
0
 10
238.677
 20
-59.6873
 11
238.854
 21
-59.5108
  0
LINE
  8
0
 10
238.854
 20
-59.5108
 11
239.054
 21
-59.3611
  0
LINE
  8
0
 10
239.054
 20
-59.3611
 11
239.273
 21
-59.2415
  0
LINE
  8
0
 10
239.273
 20
-59.2415
 11
239.507
 21
-59.1542
  0
LINE
  8
0
 10
239.507
 20
-59.1542
 11
239.751
 21
-59.1011
  0
LINE
  8
0
 10
239.751
 20
-59.1011
 11
240
 21
-59.0833
  0
LINE
  8
0
 10
240
 20
-59.0833
 11
240.249
 21
-59.1011
  0
LINE
  8
0
 10
240.249
 20
-59.1011
 11
240.493
 21
-59.1542
  0
LINE
  8
0
 10
240.493
 20
-59.1542
 11
240.727
 21
-59.2415
  0
LINE
  8
0
 10
240.727
 20
-59.2415
 11
240.946
 21
-59.3611
  0
LINE
  8
0
 10
240.946
 20
-59.3611
 11
241.146
 21
-59.5108
  0
LINE
  8
0
 10
241.146
 20
-59.5108
 11
241.323
 21
-59.6873
  0
LINE
  8
0
 10
241.323
 20
-59.6873
 11
241.472
 21
-59.8872
  0
LINE
  8
0
 10
241.472
 20
-59.8872
 11
241.592
 21
-60.1064
  0
LINE
  8
0
 10
241.592
 20
-60.1064
 11
241.679
 21
-60.3403
  0
LINE
  8
0
 10
241.679
 20
-60.3403
 11
241.732
 21
-60.5843
  0
LINE
  8
0
 10
241.732
 20
-60.5843
 11
241.75
 21
-60.8333
  0
LINE
  8
0
 10
241.75
 20
-60.8333
 11
241.75
 21
-172.5
  0
LINE
  8
0
 10
241.75
 20
-172.5
 11
241.732
 21
-172.749
  0
LINE
  8
0
 10
241.732
 20
-172.749
 11
241.679
 21
-172.993
  0
LINE
  8
0
 10
241.679
 20
-172.993
 11
241.592
 21
-173.227
  0
LINE
  8
0
 10
241.592
 20
-173.227
 11
241.472
 21
-173.446
  0
LINE
  8
0
 10
241.472
 20
-173.446
 11
241.323
 21
-173.646
  0
LINE
  8
0
 10
241.323
 20
-173.646
 11
241.146
 21
-173.823
  0
LINE
  8
0
 10
241.146
 20
-173.823
 11
240.946
 21
-173.972
  0
LINE
  8
0
 10
240.946
 20
-173.972
 11
240.727
 21
-174.092
  0
LINE
  8
0
 10
240.727
 20
-174.092
 11
240.493
 21
-174.179
  0
LINE
  8
0
 10
240.493
 20
-174.179
 11
240.249
 21
-174.232
  0
LINE
  8
0
 10
240.249
 20
-174.232
 11
240
 21
-174.25
  0
LINE
  8
0
 10
240
 20
-174.25
 11
239.751
 21
-174.232
  0
LINE
  8
0
 10
-240.249
 20
-174.232
 11
-240.493
 21
-174.179
  0
LINE
  8
0
 10
-240.493
 20
-174.179
 11
-240.727
 21
-174.092
  0
LINE
  8
0
 10
-240.727
 20
-174.092
 11
-240.946
 21
-173.972
  0
LINE
  8
0
 10
-240.946
 20
-173.972
 11
-241.146
 21
-173.823
  0
LINE
  8
0
 10
-241.146
 20
-173.823
 11
-241.323
 21
-173.646
  0
LINE
  8
0
 10
-241.323
 20
-173.646
 11
-241.472
 21
-173.446
  0
LINE
  8
0
 10
-241.472
 20
-173.446
 11
-241.592
 21
-173.227
  0
LINE
  8
0
 10
-241.592
 20
-173.227
 11
-241.679
 21
-172.993
  0
LINE
  8
0
 10
-241.679
 20
-172.993
 11
-241.732
 21
-172.749
  0
LINE
  8
0
 10
-241.732
 20
-172.749
 11
-241.75
 21
-172.5
  0
LINE
  8
0
 10
-241.75
 20
-172.5
 11
-241.75
 21
-60.8333
  0
LINE
  8
0
 10
-241.75
 20
-60.8333
 11
-241.732
 21
-60.5843
  0
LINE
  8
0
 10
-241.732
 20
-60.5843
 11
-241.679
 21
-60.3403
  0
LINE
  8
0
 10
-241.679
 20
-60.3403
 11
-241.592
 21
-60.1064
  0
LINE
  8
0
 10
-241.592
 20
-60.1064
 11
-241.472
 21
-59.8872
  0
LINE
  8
0
 10
-241.472
 20
-59.8872
 11
-241.323
 21
-59.6873
  0
LINE
  8
0
 10
-241.323
 20
-59.6873
 11
-241.146
 21
-59.5108
  0
LINE
  8
0
 10
-241.146
 20
-59.5108
 11
-240.946
 21
-59.3611
  0
LINE
  8
0
 10
-240.946
 20
-59.3611
 11
-240.727
 21
-59.2415
  0
LINE
  8
0
 10
-240.727
 20
-59.2415
 11
-240.493
 21
-59.1542
  0
LINE
  8
0
 10
-240.493
 20
-59.1542
 11
-240.249
 21
-59.1011
  0
LINE
  8
0
 10
-240.249
 20
-59.1011
 11
-240
 21
-59.0833
  0
LINE
  8
0
 10
-240
 20
-59.0833
 11
-239.751
 21
-59.1011
  0
LINE
  8
0
 10
-239.751
 20
-59.1011
 11
-239.507
 21
-59.1542
  0
LINE
  8
0
 10
-239.507
 20
-59.1542
 11
-239.273
 21
-59.2415
  0
LINE
  8
0
 10
-239.273
 20
-59.2415
 11
-239.054
 21
-59.3611
  0
LINE
  8
0
 10
-239.054
 20
-59.3611
 11
-238.854
 21
-59.5108
  0
LINE
  8
0
 10
-238.854
 20
-59.5108
 11
-238.677
 21
-59.6873
  0
LINE
  8
0
 10
-238.677
 20
-59.6873
 11
-238.528
 21
-59.8872
  0
LINE
  8
0
 10
-238.528
 20
-59.8872
 11
-238.408
 21
-60.1064
  0
LINE
  8
0
 10
-238.408
 20
-60.1064
 11
-238.321
 21
-60.3403
  0
LINE
  8
0
 10
-238.321
 20
-60.3403
 11
-238.268
 21
-60.5843
  0
LINE
  8
0
 10
-238.268
 20
-60.5843
 11
-238.25
 21
-60.8333
  0
LINE
  8
0
 10
-238.25
 20
-60.8333
 11
-238.25
 21
-172.5
  0
LINE
  8
0
 10
-238.25
 20
-172.5
 11
-238.268
 21
-172.749
  0
LINE
  8
0
 10
-238.268
 20
-172.749
 11
-238.321
 21
-172.993
  0
LINE
  8
0
 10
-238.321
 20
-172.993
 11
-238.408
 21
-173.227
  0
LINE
  8
0
 10
-238.408
 20
-173.227
 11
-238.528
 21
-173.446
  0
LINE
  8
0
 10
-238.528
 20
-173.446
 11
-238.677
 21
-173.646
  0
LINE
  8
0
 10
-238.677
 20
-173.646
 11
-238.854
 21
-173.823
  0
LINE
  8
0
 10
-238.854
 20
-173.823
 11
-239.054
 21
-173.972
  0
LINE
  8
0
 10
-239.054
 20
-173.972
 11
-239.273
 21
-174.092
  0
LINE
  8
0
 10
-239.273
 20
-174.092
 11
-239.507
 21
-174.179
  0
LINE
  8
0
 10
-239.507
 20
-174.179
 11
-239.751
 21
-174.232
  0
LINE
  8
0
 10
-239.751
 20
-174.232
 11
-240
 21
-174.25
  0
LINE
  8
0
 10
-240
 20
-174.25
 11
-240.249
 21
-174.232
  0
LINE
  8
0
 10
299.816
 20
-63.9382
 11
299.575
 21
-63.8864
  0
LINE
  8
0
 10
299.575
 20
-63.8864
 11
299.347
 21
-63.7947
  0
LINE
  8
0
 10
299.347
 20
-63.7947
 11
299.138
 21
-63.6658
  0
LINE
  8
0
 10
299.138
 20
-63.6658
 11
298.953
 21
-63.5033
  0
LINE
  8
0
 10
298.953
 20
-63.5033
 11
298.799
 21
-63.312
  0
LINE
  8
0
 10
298.799
 20
-63.312
 11
298.679
 21
-63.0972
  0
LINE
  8
0
 10
298.679
 20
-63.0972
 11
298.597
 21
-62.8654
  0
LINE
  8
0
 10
298.597
 20
-62.8654
 11
298.555
 21
-62.623
  0
LINE
  8
0
 10
298.555
 20
-62.623
 11
298.555
 21
-62.377
  0
LINE
  8
0
 10
298.555
 20
-62.377
 11
298.597
 21
-62.1346
  0
LINE
  8
0
 10
298.597
 20
-62.1346
 11
298.679
 21
-61.9027
  0
LINE
  8
0
 10
298.679
 20
-61.9027
 11
298.799
 21
-61.688
  0
LINE
  8
0
 10
298.799
 20
-61.688
 11
298.953
 21
-61.4967
  0
LINE
  8
0
 10
298.953
 20
-61.4967
 11
299.138
 21
-61.3342
  0
LINE
  8
0
 10
299.138
 20
-61.3342
 11
299.347
 21
-61.2052
  0
LINE
  8
0
 10
299.347
 20
-61.2052
 11
299.575
 21
-61.1136
  0
LINE
  8
0
 10
299.575
 20
-61.1136
 11
299.816
 21
-61.0617
  0
LINE
  8
0
 10
299.816
 20
-61.0617
 11
300.062
 21
-61.0513
  0
LINE
  8
0
 10
300.062
 20
-61.0513
 11
300.305
 21
-61.0825
  0
LINE
  8
0
 10
300.305
 20
-61.0825
 11
300.541
 21
-61.1546
  0
LINE
  8
0
 10
300.541
 20
-61.1546
 11
300.76
 21
-61.2653
  0
LINE
  8
0
 10
300.76
 20
-61.2653
 11
300.958
 21
-61.4115
  0
LINE
  8
0
 10
300.958
 20
-61.4115
 11
301.128
 21
-61.5891
  0
LINE
  8
0
 10
301.128
 20
-61.5891
 11
301.266
 21
-61.7928
  0
LINE
  8
0
 10
301.266
 20
-61.7928
 11
301.367
 21
-62.0169
  0
LINE
  8
0
 10
301.367
 20
-62.0169
 11
301.429
 21
-62.2549
  0
LINE
  8
0
 10
301.429
 20
-62.2549
 11
301.45
 21
-62.5
  0
LINE
  8
0
 10
301.45
 20
-62.5
 11
301.429
 21
-62.745
  0
LINE
  8
0
 10
301.429
 20
-62.745
 11
301.367
 21
-62.983
  0
LINE
  8
0
 10
301.367
 20
-62.983
 11
301.266
 21
-63.2072
  0
LINE
  8
0
 10
301.266
 20
-63.2072
 11
301.128
 21
-63.4109
  0
LINE
  8
0
 10
301.128
 20
-63.4109
 11
300.958
 21
-63.5885
  0
LINE
  8
0
 10
300.958
 20
-63.5885
 11
300.76
 21
-63.7347
  0
LINE
  8
0
 10
300.76
 20
-63.7347
 11
300.541
 21
-63.8454
  0
LINE
  8
0
 10
300.541
 20
-63.8454
 11
300.305
 21
-63.9174
  0
LINE
  8
0
 10
300.305
 20
-63.9174
 11
300.062
 21
-63.9487
  0
LINE
  8
0
 10
300.062
 20
-63.9487
 11
299.816
 21
-63.9382
  0
LINE
  8
0
 10
-300.305
 20
-63.9174
 11
-300.541
 21
-63.8454
  0
LINE
  8
0
 10
-300.541
 20
-63.8454
 11
-300.76
 21
-63.7347
  0
LINE
  8
0
 10
-300.76
 20
-63.7347
 11
-300.958
 21
-63.5885
  0
LINE
  8
0
 10
-300.958
 20
-63.5885
 11
-301.128
 21
-63.4109
  0
LINE
  8
0
 10
-301.128
 20
-63.4109
 11
-301.266
 21
-63.2072
  0
LINE
  8
0
 10
-301.266
 20
-63.2072
 11
-301.367
 21
-62.983
  0
LINE
  8
0
 10
-301.367
 20
-62.983
 11
-301.429
 21
-62.745
  0
LINE
  8
0
 10
-301.429
 20
-62.745
 11
-301.45
 21
-62.5
  0
LINE
  8
0
 10
-301.45
 20
-62.5
 11
-301.429
 21
-62.2549
  0
LINE
  8
0
 10
-301.429
 20
-62.2549
 11
-301.367
 21
-62.0169
  0
LINE
  8
0
 10
-301.367
 20
-62.0169
 11
-301.266
 21
-61.7928
  0
LINE
  8
0
 10
-301.266
 20
-61.7928
 11
-301.128
 21
-61.5891
  0
LINE
  8
0
 10
-301.128
 20
-61.5891
 11
-300.958
 21
-61.4115
  0
LINE
  8
0
 10
-300.958
 20
-61.4115
 11
-300.76
 21
-61.2653
  0
LINE
  8
0
 10
-300.76
 20
-61.2653
 11
-300.541
 21
-61.1546
  0
LINE
  8
0
 10
-300.541
 20
-61.1546
 11
-300.305
 21
-61.0825
  0
LINE
  8
0
 10
-300.305
 20
-61.0825
 11
-300.062
 21
-61.0513
  0
LINE
  8
0
 10
-300.062
 20
-61.0513
 11
-299.816
 21
-61.0617
  0
LINE
  8
0
 10
-299.816
 20
-61.0617
 11
-299.575
 21
-61.1136
  0
LINE
  8
0
 10
-299.575
 20
-61.1136
 11
-299.347
 21
-61.2052
  0
LINE
  8
0
 10
-299.347
 20
-61.2052
 11
-299.138
 21
-61.3342
  0
LINE
  8
0
 10
-299.138
 20
-61.3342
 11
-298.953
 21
-61.4967
  0
LINE
  8
0
 10
-298.953
 20
-61.4967
 11
-298.799
 21
-61.688
  0
LINE
  8
0
 10
-298.799
 20
-61.688
 11
-298.679
 21
-61.9027
  0
LINE
  8
0
 10
-298.679
 20
-61.9027
 11
-298.597
 21
-62.1346
  0
LINE
  8
0
 10
-298.597
 20
-62.1346
 11
-298.555
 21
-62.377
  0
LINE
  8
0
 10
-298.555
 20
-62.377
 11
-298.555
 21
-62.623
  0
LINE
  8
0
 10
-298.555
 20
-62.623
 11
-298.597
 21
-62.8654
  0
LINE
  8
0
 10
-298.597
 20
-62.8654
 11
-298.679
 21
-63.0972
  0
LINE
  8
0
 10
-298.679
 20
-63.0972
 11
-298.799
 21
-63.312
  0
LINE
  8
0
 10
-298.799
 20
-63.312
 11
-298.953
 21
-63.5033
  0
LINE
  8
0
 10
-298.953
 20
-63.5033
 11
-299.138
 21
-63.6658
  0
LINE
  8
0
 10
-299.138
 20
-63.6658
 11
-299.347
 21
-63.7947
  0
LINE
  8
0
 10
-299.347
 20
-63.7947
 11
-299.575
 21
-63.8864
  0
LINE
  8
0
 10
-299.575
 20
-63.8864
 11
-299.816
 21
-63.9382
  0
LINE
  8
0
 10
-299.816
 20
-63.9382
 11
-300.062
 21
-63.9487
  0
LINE
  8
0
 10
-300.062
 20
-63.9487
 11
-300.305
 21
-63.9174
  0
LINE
  8
0
 10
268.027
 20
-191.645
 11
267.783
 21
-191.609
  0
LINE
  8
0
 10
267.783
 20
-191.609
 11
267.547
 21
-191.536
  0
LINE
  8
0
 10
267.547
 20
-191.536
 11
267.325
 21
-191.429
  0
LINE
  8
0
 10
267.325
 20
-191.429
 11
267.121
 21
-191.29
  0
LINE
  8
0
 10
267.121
 20
-191.29
 11
266.94
 21
-191.122
  0
LINE
  8
0
 10
266.94
 20
-191.122
 11
266.787
 21
-190.929
  0
LINE
  8
0
 10
266.787
 20
-190.929
 11
266.663
 21
-190.716
  0
LINE
  8
0
 10
266.663
 20
-190.716
 11
266.573
 21
-190.486
  0
LINE
  8
0
 10
266.573
 20
-190.486
 11
266.518
 21
-190.246
  0
LINE
  8
0
 10
266.518
 20
-190.246
 11
266.5
 21
-190
  0
LINE
  8
0
 10
266.5
 20
-190
 11
266.518
 21
-189.754
  0
LINE
  8
0
 10
266.518
 20
-189.754
 11
266.573
 21
-189.514
  0
LINE
  8
0
 10
266.573
 20
-189.514
 11
266.663
 21
-189.284
  0
LINE
  8
0
 10
266.663
 20
-189.284
 11
266.787
 21
-189.071
  0
LINE
  8
0
 10
266.787
 20
-189.071
 11
266.94
 21
-188.878
  0
LINE
  8
0
 10
266.94
 20
-188.878
 11
267.121
 21
-188.71
  0
LINE
  8
0
 10
267.121
 20
-188.71
 11
267.325
 21
-188.571
  0
LINE
  8
0
 10
267.325
 20
-188.571
 11
267.547
 21
-188.464
  0
LINE
  8
0
 10
267.547
 20
-188.464
 11
267.783
 21
-188.391
  0
LINE
  8
0
 10
267.783
 20
-188.391
 11
268.027
 21
-188.355
  0
LINE
  8
0
 10
268.027
 20
-188.355
 11
276.273
 21
-188.355
  0
LINE
  8
0
 10
276.273
 20
-188.355
 11
276.517
 21
-188.391
  0
LINE
  8
0
 10
276.517
 20
-188.391
 11
276.753
 21
-188.464
  0
LINE
  8
0
 10
276.753
 20
-188.464
 11
276.975
 21
-188.571
  0
LINE
  8
0
 10
276.975
 20
-188.571
 11
277.179
 21
-188.71
  0
LINE
  8
0
 10
277.179
 20
-188.71
 11
277.36
 21
-188.878
  0
LINE
  8
0
 10
277.36
 20
-188.878
 11
277.513
 21
-189.071
  0
LINE
  8
0
 10
277.513
 20
-189.071
 11
277.637
 21
-189.284
  0
LINE
  8
0
 10
277.637
 20
-189.284
 11
277.727
 21
-189.514
  0
LINE
  8
0
 10
277.727
 20
-189.514
 11
277.782
 21
-189.754
  0
LINE
  8
0
 10
277.782
 20
-189.754
 11
277.8
 21
-190
  0
LINE
  8
0
 10
277.8
 20
-190
 11
277.782
 21
-190.246
  0
LINE
  8
0
 10
277.782
 20
-190.246
 11
277.727
 21
-190.486
  0
LINE
  8
0
 10
277.727
 20
-190.486
 11
277.637
 21
-190.716
  0
LINE
  8
0
 10
277.637
 20
-190.716
 11
277.513
 21
-190.929
  0
LINE
  8
0
 10
277.513
 20
-190.929
 11
277.36
 21
-191.122
  0
LINE
  8
0
 10
277.36
 20
-191.122
 11
277.179
 21
-191.29
  0
LINE
  8
0
 10
277.179
 20
-191.29
 11
276.975
 21
-191.429
  0
LINE
  8
0
 10
276.975
 20
-191.429
 11
276.753
 21
-191.536
  0
LINE
  8
0
 10
276.753
 20
-191.536
 11
276.517
 21
-191.609
  0
LINE
  8
0
 10
276.517
 20
-191.609
 11
276.273
 21
-191.645
  0
LINE
  8
0
 10
276.273
 20
-191.645
 11
268.027
 21
-191.645
  0
LINE
  8
0
 10
299.027
 20
-191.645
 11
298.783
 21
-191.609
  0
LINE
  8
0
 10
298.783
 20
-191.609
 11
298.547
 21
-191.536
  0
LINE
  8
0
 10
298.547
 20
-191.536
 11
298.325
 21
-191.429
  0
LINE
  8
0
 10
298.325
 20
-191.429
 11
298.121
 21
-191.29
  0
LINE
  8
0
 10
298.121
 20
-191.29
 11
297.94
 21
-191.122
  0
LINE
  8
0
 10
297.94
 20
-191.122
 11
297.787
 21
-190.929
  0
LINE
  8
0
 10
297.787
 20
-190.929
 11
297.663
 21
-190.716
  0
LINE
  8
0
 10
297.663
 20
-190.716
 11
297.573
 21
-190.486
  0
LINE
  8
0
 10
297.573
 20
-190.486
 11
297.518
 21
-190.246
  0
LINE
  8
0
 10
297.518
 20
-190.246
 11
297.5
 21
-190
  0
LINE
  8
0
 10
297.5
 20
-190
 11
297.518
 21
-189.754
  0
LINE
  8
0
 10
297.518
 20
-189.754
 11
297.573
 21
-189.514
  0
LINE
  8
0
 10
297.573
 20
-189.514
 11
297.663
 21
-189.284
  0
LINE
  8
0
 10
297.663
 20
-189.284
 11
297.787
 21
-189.071
  0
LINE
  8
0
 10
297.787
 20
-189.071
 11
297.94
 21
-188.878
  0
LINE
  8
0
 10
297.94
 20
-188.878
 11
298.121
 21
-188.71
  0
LINE
  8
0
 10
298.121
 20
-188.71
 11
298.325
 21
-188.571
  0
LINE
  8
0
 10
298.325
 20
-188.571
 11
298.547
 21
-188.464
  0
LINE
  8
0
 10
298.547
 20
-188.464
 11
298.783
 21
-188.391
  0
LINE
  8
0
 10
298.783
 20
-188.391
 11
299.027
 21
-188.355
  0
LINE
  8
0
 10
299.027
 20
-188.355
 11
307.273
 21
-188.355
  0
LINE
  8
0
 10
307.273
 20
-188.355
 11
307.517
 21
-188.391
  0
LINE
  8
0
 10
307.517
 20
-188.391
 11
307.753
 21
-188.464
  0
LINE
  8
0
 10
307.753
 20
-188.464
 11
307.975
 21
-188.571
  0
LINE
  8
0
 10
307.975
 20
-188.571
 11
308.179
 21
-188.71
  0
LINE
  8
0
 10
308.179
 20
-188.71
 11
308.36
 21
-188.878
  0
LINE
  8
0
 10
308.36
 20
-188.878
 11
308.513
 21
-189.071
  0
LINE
  8
0
 10
308.513
 20
-189.071
 11
308.637
 21
-189.284
  0
LINE
  8
0
 10
308.637
 20
-189.284
 11
308.727
 21
-189.514
  0
LINE
  8
0
 10
308.727
 20
-189.514
 11
308.782
 21
-189.754
  0
LINE
  8
0
 10
308.782
 20
-189.754
 11
308.8
 21
-190
  0
LINE
  8
0
 10
308.8
 20
-190
 11
308.782
 21
-190.246
  0
LINE
  8
0
 10
308.782
 20
-190.246
 11
308.727
 21
-190.486
  0
LINE
  8
0
 10
308.727
 20
-190.486
 11
308.637
 21
-190.716
  0
LINE
  8
0
 10
308.637
 20
-190.716
 11
308.513
 21
-190.929
  0
LINE
  8
0
 10
308.513
 20
-190.929
 11
308.36
 21
-191.122
  0
LINE
  8
0
 10
308.36
 20
-191.122
 11
308.179
 21
-191.29
  0
LINE
  8
0
 10
308.179
 20
-191.29
 11
307.975
 21
-191.429
  0
LINE
  8
0
 10
307.975
 20
-191.429
 11
307.753
 21
-191.536
  0
LINE
  8
0
 10
307.753
 20
-191.536
 11
307.517
 21
-191.609
  0
LINE
  8
0
 10
307.517
 20
-191.609
 11
307.273
 21
-191.645
  0
LINE
  8
0
 10
307.273
 20
-191.645
 11
299.027
 21
-191.645
  0
LINE
  8
0
 10
239.691
 20
-194.172
 11
239.451
 21
-194.109
  0
LINE
  8
0
 10
239.451
 20
-194.109
 11
239.223
 21
-194.012
  0
LINE
  8
0
 10
239.223
 20
-194.012
 11
239.011
 21
-193.883
  0
LINE
  8
0
 10
239.011
 20
-193.883
 11
238.82
 21
-193.724
  0
LINE
  8
0
 10
238.82
 20
-193.724
 11
238.654
 21
-193.539
  0
LINE
  8
0
 10
238.654
 20
-193.539
 11
238.518
 21
-193.332
  0
LINE
  8
0
 10
238.518
 20
-193.332
 11
238.412
 21
-193.107
  0
LINE
  8
0
 10
238.412
 20
-193.107
 11
238.341
 21
-192.87
  0
LINE
  8
0
 10
238.341
 20
-192.87
 11
238.305
 21
-192.624
  0
LINE
  8
0
 10
238.305
 20
-192.624
 11
238.305
 21
-192.376
  0
LINE
  8
0
 10
238.305
 20
-192.376
 11
238.341
 21
-192.13
  0
LINE
  8
0
 10
238.341
 20
-192.13
 11
238.412
 21
-191.893
  0
LINE
  8
0
 10
238.412
 20
-191.893
 11
238.518
 21
-191.668
  0
LINE
  8
0
 10
238.518
 20
-191.668
 11
238.654
 21
-191.461
  0
LINE
  8
0
 10
238.654
 20
-191.461
 11
238.82
 21
-191.276
  0
LINE
  8
0
 10
238.82
 20
-191.276
 11
239.011
 21
-191.117
  0
LINE
  8
0
 10
239.011
 20
-191.117
 11
239.223
 21
-190.988
  0
LINE
  8
0
 10
239.223
 20
-190.988
 11
239.451
 21
-190.891
  0
LINE
  8
0
 10
239.451
 20
-190.891
 11
239.691
 21
-190.828
  0
LINE
  8
0
 10
239.691
 20
-190.828
 11
239.938
 21
-190.801
  0
LINE
  8
0
 10
239.938
 20
-190.801
 11
240.186
 21
-190.81
  0
LINE
  8
0
 10
240.186
 20
-190.81
 11
240.43
 21
-190.855
  0
LINE
  8
0
 10
240.43
 20
-190.855
 11
240.665
 21
-190.935
  0
LINE
  8
0
 10
240.665
 20
-190.935
 11
240.886
 21
-191.049
  0
LINE
  8
0
 10
240.886
 20
-191.049
 11
241.087
 21
-191.193
  0
LINE
  8
0
 10
241.087
 20
-191.193
 11
241.266
 21
-191.366
  0
LINE
  8
0
 10
241.266
 20
-191.366
 11
241.418
 21
-191.562
  0
LINE
  8
0
 10
241.418
 20
-191.562
 11
241.539
 21
-191.778
  0
LINE
  8
0
 10
241.539
 20
-191.778
 11
241.628
 21
-192.01
  0
LINE
  8
0
 10
241.628
 20
-192.01
 11
241.682
 21
-192.252
  0
LINE
  8
0
 10
241.682
 20
-192.252
 11
241.7
 21
-192.5
  0
LINE
  8
0
 10
241.7
 20
-192.5
 11
241.682
 21
-192.748
  0
LINE
  8
0
 10
241.682
 20
-192.748
 11
241.628
 21
-192.99
  0
LINE
  8
0
 10
241.628
 20
-192.99
 11
241.539
 21
-193.222
  0
LINE
  8
0
 10
241.539
 20
-193.222
 11
241.418
 21
-193.438
  0
LINE
  8
0
 10
241.418
 20
-193.438
 11
241.266
 21
-193.634
  0
LINE
  8
0
 10
241.266
 20
-193.634
 11
241.087
 21
-193.807
  0
LINE
  8
0
 10
241.087
 20
-193.807
 11
240.886
 21
-193.951
  0
LINE
  8
0
 10
240.886
 20
-193.951
 11
240.665
 21
-194.065
  0
LINE
  8
0
 10
240.665
 20
-194.065
 11
240.43
 21
-194.145
  0
LINE
  8
0
 10
240.43
 20
-194.145
 11
240.186
 21
-194.19
  0
LINE
  8
0
 10
240.186
 20
-194.19
 11
239.938
 21
-194.199
  0
LINE
  8
0
 10
239.938
 20
-194.199
 11
239.691
 21
-194.172
  0
LINE
  8
0
 10
-240.186
 20
-194.19
 11
-240.43
 21
-194.145
  0
LINE
  8
0
 10
-240.43
 20
-194.145
 11
-240.665
 21
-194.065
  0
LINE
  8
0
 10
-240.665
 20
-194.065
 11
-240.886
 21
-193.951
  0
LINE
  8
0
 10
-240.886
 20
-193.951
 11
-241.087
 21
-193.807
  0
LINE
  8
0
 10
-241.087
 20
-193.807
 11
-241.266
 21
-193.634
  0
LINE
  8
0
 10
-241.266
 20
-193.634
 11
-241.418
 21
-193.438
  0
LINE
  8
0
 10
-241.418
 20
-193.438
 11
-241.539
 21
-193.222
  0
LINE
  8
0
 10
-241.539
 20
-193.222
 11
-241.628
 21
-192.99
  0
LINE
  8
0
 10
-241.628
 20
-192.99
 11
-241.682
 21
-192.748
  0
LINE
  8
0
 10
-241.682
 20
-192.748
 11
-241.7
 21
-192.5
  0
LINE
  8
0
 10
-241.7
 20
-192.5
 11
-241.682
 21
-192.252
  0
LINE
  8
0
 10
-241.682
 20
-192.252
 11
-241.628
 21
-192.01
  0
LINE
  8
0
 10
-241.628
 20
-192.01
 11
-241.539
 21
-191.778
  0
LINE
  8
0
 10
-241.539
 20
-191.778
 11
-241.418
 21
-191.562
  0
LINE
  8
0
 10
-241.418
 20
-191.562
 11
-241.266
 21
-191.366
  0
LINE
  8
0
 10
-241.266
 20
-191.366
 11
-241.087
 21
-191.193
  0
LINE
  8
0
 10
-241.087
 20
-191.193
 11
-240.886
 21
-191.049
  0
LINE
  8
0
 10
-240.886
 20
-191.049
 11
-240.665
 21
-190.935
  0
LINE
  8
0
 10
-240.665
 20
-190.935
 11
-240.43
 21
-190.855
  0
LINE
  8
0
 10
-240.43
 20
-190.855
 11
-240.186
 21
-190.81
  0
LINE
  8
0
 10
-240.186
 20
-190.81
 11
-239.938
 21
-190.801
  0
LINE
  8
0
 10
-239.938
 20
-190.801
 11
-239.691
 21
-190.828
  0
LINE
  8
0
 10
-239.691
 20
-190.828
 11
-239.451
 21
-190.891
  0
LINE
  8
0
 10
-239.451
 20
-190.891
 11
-239.223
 21
-190.988
  0
LINE
  8
0
 10
-239.223
 20
-190.988
 11
-239.011
 21
-191.117
  0
LINE
  8
0
 10
-239.011
 20
-191.117
 11
-238.82
 21
-191.276
  0
LINE
  8
0
 10
-238.82
 20
-191.276
 11
-238.654
 21
-191.461
  0
LINE
  8
0
 10
-238.654
 20
-191.461
 11
-238.518
 21
-191.668
  0
LINE
  8
0
 10
-238.518
 20
-191.668
 11
-238.412
 21
-191.893
  0
LINE
  8
0
 10
-238.412
 20
-191.893
 11
-238.341
 21
-192.13
  0
LINE
  8
0
 10
-238.341
 20
-192.13
 11
-238.305
 21
-192.376
  0
LINE
  8
0
 10
-238.305
 20
-192.376
 11
-238.305
 21
-192.624
  0
LINE
  8
0
 10
-238.305
 20
-192.624
 11
-238.341
 21
-192.87
  0
LINE
  8
0
 10
-238.341
 20
-192.87
 11
-238.412
 21
-193.107
  0
LINE
  8
0
 10
-238.412
 20
-193.107
 11
-238.518
 21
-193.332
  0
LINE
  8
0
 10
-238.518
 20
-193.332
 11
-238.654
 21
-193.539
  0
LINE
  8
0
 10
-238.654
 20
-193.539
 11
-238.82
 21
-193.724
  0
LINE
  8
0
 10
-238.82
 20
-193.724
 11
-239.011
 21
-193.883
  0
LINE
  8
0
 10
-239.011
 20
-193.883
 11
-239.223
 21
-194.012
  0
LINE
  8
0
 10
-239.223
 20
-194.012
 11
-239.451
 21
-194.109
  0
LINE
  8
0
 10
-239.451
 20
-194.109
 11
-239.691
 21
-194.172
  0
LINE
  8
0
 10
-239.691
 20
-194.172
 11
-239.938
 21
-194.199
  0
LINE
  8
0
 10
-239.938
 20
-194.199
 11
-240.186
 21
-194.19
  0
LINE
  8
0
 10
283.15
 20
-218
 11
281.843
 21
-217.932
  0
LINE
  8
0
 10
281.843
 20
-217.932
 11
280.551
 21
-217.727
  0
LINE
  8
0
 10
280.551
 20
-217.727
 11
279.287
 21
-217.388
  0
LINE
  8
0
 10
279.287
 20
-217.388
 11
278.066
 21
-216.919
  0
LINE
  8
0
 10
278.066
 20
-216.919
 11
276.9
 21
-216.325
  0
LINE
  8
0
 10
276.9
 20
-216.325
 11
275.803
 21
-215.613
  0
LINE
  8
0
 10
275.803
 20
-215.613
 11
274.786
 21
-214.789
  0
LINE
  8
0
 10
274.786
 20
-214.789
 11
273.861
 21
-213.864
  0
LINE
  8
0
 10
273.861
 20
-213.864
 11
273.037
 21
-212.847
  0
LINE
  8
0
 10
273.037
 20
-212.847
 11
272.325
 21
-211.75
  0
LINE
  8
0
 10
272.325
 20
-211.75
 11
271.731
 21
-210.584
  0
LINE
  8
0
 10
271.731
 20
-210.584
 11
271.262
 21
-209.363
  0
LINE
  8
0
 10
271.262
 20
-209.363
 11
270.923
 21
-208.099
  0
LINE
  8
0
 10
270.923
 20
-208.099
 11
270.718
 21
-206.807
  0
LINE
  8
0
 10
270.718
 20
-206.807
 11
270.65
 21
-205.5
  0
LINE
  8
0
 10
270.65
 20
-205.5
 11
270.718
 21
-204.193
  0
LINE
  8
0
 10
270.718
 20
-204.193
 11
270.923
 21
-202.901
  0
LINE
  8
0
 10
270.923
 20
-202.901
 11
271.262
 21
-201.637
  0
LINE
  8
0
 10
271.262
 20
-201.637
 11
271.731
 21
-200.416
  0
LINE
  8
0
 10
271.731
 20
-200.416
 11
272.325
 21
-199.25
  0
LINE
  8
0
 10
272.325
 20
-199.25
 11
273.037
 21
-198.153
  0
LINE
  8
0
 10
273.037
 20
-198.153
 11
273.861
 21
-197.136
  0
LINE
  8
0
 10
273.861
 20
-197.136
 11
274.786
 21
-196.211
  0
LINE
  8
0
 10
274.786
 20
-196.211
 11
275.803
 21
-195.387
  0
LINE
  8
0
 10
275.803
 20
-195.387
 11
276.9
 21
-194.675
  0
LINE
  8
0
 10
276.9
 20
-194.675
 11
278.066
 21
-194.081
  0
LINE
  8
0
 10
278.066
 20
-194.081
 11
279.287
 21
-193.612
  0
LINE
  8
0
 10
279.287
 20
-193.612
 11
280.551
 21
-193.273
  0
LINE
  8
0
 10
280.551
 20
-193.273
 11
281.843
 21
-193.068
  0
LINE
  8
0
 10
281.843
 20
-193.068
 11
283.15
 21
-193
  0
LINE
  8
0
 10
283.15
 20
-193
 11
291.15
 21
-193
  0
LINE
  8
0
 10
291.15
 20
-193
 11
292.457
 21
-193.068
  0
LINE
  8
0
 10
292.457
 20
-193.068
 11
293.749
 21
-193.273
  0
LINE
  8
0
 10
293.749
 20
-193.273
 11
295.013
 21
-193.612
  0
LINE
  8
0
 10
295.013
 20
-193.612
 11
296.234
 21
-194.081
  0
LINE
  8
0
 10
296.234
 20
-194.081
 11
297.4
 21
-194.675
  0
LINE
  8
0
 10
297.4
 20
-194.675
 11
298.497
 21
-195.387
  0
LINE
  8
0
 10
298.497
 20
-195.387
 11
299.514
 21
-196.211
  0
LINE
  8
0
 10
299.514
 20
-196.211
 11
300.439
 21
-197.136
  0
LINE
  8
0
 10
300.439
 20
-197.136
 11
301.263
 21
-198.153
  0
LINE
  8
0
 10
301.263
 20
-198.153
 11
301.975
 21
-199.25
  0
LINE
  8
0
 10
301.975
 20
-199.25
 11
302.569
 21
-200.416
  0
LINE
  8
0
 10
302.569
 20
-200.416
 11
303.038
 21
-201.637
  0
LINE
  8
0
 10
303.038
 20
-201.637
 11
303.377
 21
-202.901
  0
LINE
  8
0
 10
303.377
 20
-202.901
 11
303.582
 21
-204.193
  0
LINE
  8
0
 10
303.582
 20
-204.193
 11
303.65
 21
-205.5
  0
LINE
  8
0
 10
303.65
 20
-205.5
 11
303.582
 21
-206.807
  0
LINE
  8
0
 10
303.582
 20
-206.807
 11
303.377
 21
-208.099
  0
LINE
  8
0
 10
303.377
 20
-208.099
 11
303.038
 21
-209.363
  0
LINE
  8
0
 10
303.038
 20
-209.363
 11
302.569
 21
-210.584
  0
LINE
  8
0
 10
302.569
 20
-210.584
 11
301.975
 21
-211.75
  0
LINE
  8
0
 10
301.975
 20
-211.75
 11
301.263
 21
-212.847
  0
LINE
  8
0
 10
301.263
 20
-212.847
 11
300.439
 21
-213.864
  0
LINE
  8
0
 10
300.439
 20
-213.864
 11
299.514
 21
-214.789
  0
LINE
  8
0
 10
299.514
 20
-214.789
 11
298.497
 21
-215.613
  0
LINE
  8
0
 10
298.497
 20
-215.613
 11
297.4
 21
-216.325
  0
LINE
  8
0
 10
297.4
 20
-216.325
 11
296.234
 21
-216.919
  0
LINE
  8
0
 10
296.234
 20
-216.919
 11
295.013
 21
-217.388
  0
LINE
  8
0
 10
295.013
 20
-217.388
 11
293.749
 21
-217.727
  0
LINE
  8
0
 10
293.749
 20
-217.727
 11
292.457
 21
-217.932
  0
LINE
  8
0
 10
292.457
 20
-217.932
 11
291.15
 21
-218
  0
LINE
  8
0
 10
291.15
 20
-218
 11
283.15
 21
-218
  0
LINE
  8
0
 10
-274.744
 20
-195.726
 11
-274.978
 21
-195.655
  0
LINE
  8
0
 10
-274.978
 20
-195.655
 11
-275.194
 21
-195.539
  0
LINE
  8
0
 10
-275.194
 20
-195.539
 11
-275.384
 21
-195.384
  0
LINE
  8
0
 10
-275.384
 20
-195.384
 11
-275.539
 21
-195.194
  0
LINE
  8
0
 10
-275.539
 20
-195.194
 11
-275.655
 21
-194.978
  0
LINE
  8
0
 10
-275.655
 20
-194.978
 11
-275.726
 21
-194.744
  0
LINE
  8
0
 10
-275.726
 20
-194.744
 11
-275.75
 21
-194.5
  0
LINE
  8
0
 10
-275.75
 20
-194.5
 11
-275.726
 21
-194.256
  0
LINE
  8
0
 10
-275.726
 20
-194.256
 11
-275.655
 21
-194.022
  0
LINE
  8
0
 10
-275.655
 20
-194.022
 11
-275.539
 21
-193.806
  0
LINE
  8
0
 10
-275.539
 20
-193.806
 11
-275.384
 21
-193.616
  0
LINE
  8
0
 10
-275.384
 20
-193.616
 11
-275.194
 21
-193.461
  0
LINE
  8
0
 10
-275.194
 20
-193.461
 11
-274.978
 21
-193.345
  0
LINE
  8
0
 10
-274.978
 20
-193.345
 11
-274.744
 21
-193.274
  0
LINE
  8
0
 10
-274.744
 20
-193.274
 11
-274.5
 21
-193.25
  0
LINE
  8
0
 10
-274.5
 20
-193.25
 11
-274.256
 21
-193.274
  0
LINE
  8
0
 10
-274.256
 20
-193.274
 11
-274.022
 21
-193.345
  0
LINE
  8
0
 10
-274.022
 20
-193.345
 11
-273.806
 21
-193.461
  0
LINE
  8
0
 10
-273.806
 20
-193.461
 11
-273.616
 21
-193.616
  0
LINE
  8
0
 10
-273.616
 20
-193.616
 11
-273.461
 21
-193.806
  0
LINE
  8
0
 10
-273.461
 20
-193.806
 11
-273.345
 21
-194.022
  0
LINE
  8
0
 10
-273.345
 20
-194.022
 11
-273.274
 21
-194.256
  0
LINE
  8
0
 10
-273.274
 20
-194.256
 11
-273.25
 21
-194.5
  0
LINE
  8
0
 10
-273.25
 20
-194.5
 11
-273.274
 21
-194.744
  0
LINE
  8
0
 10
-273.274
 20
-194.744
 11
-273.345
 21
-194.978
  0
LINE
  8
0
 10
-273.345
 20
-194.978
 11
-273.461
 21
-195.194
  0
LINE
  8
0
 10
-273.461
 20
-195.194
 11
-273.616
 21
-195.384
  0
LINE
  8
0
 10
-273.616
 20
-195.384
 11
-273.806
 21
-195.539
  0
LINE
  8
0
 10
-273.806
 20
-195.539
 11
-274.022
 21
-195.655
  0
LINE
  8
0
 10
-274.022
 20
-195.655
 11
-274.256
 21
-195.726
  0
LINE
  8
0
 10
-274.256
 20
-195.726
 11
-274.5
 21
-195.75
  0
LINE
  8
0
 10
-274.5
 20
-195.75
 11
-274.744
 21
-195.726
  0
LINE
  8
0
 10
-289.894
 20
-206.726
 11
-290.128
 21
-206.655
  0
LINE
  8
0
 10
-290.128
 20
-206.655
 11
-290.344
 21
-206.539
  0
LINE
  8
0
 10
-290.344
 20
-206.539
 11
-290.534
 21
-206.384
  0
LINE
  8
0
 10
-290.534
 20
-206.384
 11
-290.689
 21
-206.194
  0
LINE
  8
0
 10
-290.689
 20
-206.194
 11
-290.805
 21
-205.978
  0
LINE
  8
0
 10
-290.805
 20
-205.978
 11
-290.876
 21
-205.744
  0
LINE
  8
0
 10
-290.876
 20
-205.744
 11
-290.9
 21
-205.5
  0
LINE
  8
0
 10
-290.9
 20
-205.5
 11
-290.876
 21
-205.256
  0
LINE
  8
0
 10
-290.876
 20
-205.256
 11
-290.805
 21
-205.022
  0
LINE
  8
0
 10
-290.805
 20
-205.022
 11
-290.689
 21
-204.806
  0
LINE
  8
0
 10
-290.689
 20
-204.806
 11
-290.534
 21
-204.616
  0
LINE
  8
0
 10
-290.534
 20
-204.616
 11
-290.344
 21
-204.461
  0
LINE
  8
0
 10
-290.344
 20
-204.461
 11
-290.128
 21
-204.345
  0
LINE
  8
0
 10
-290.128
 20
-204.345
 11
-289.894
 21
-204.274
  0
LINE
  8
0
 10
-289.894
 20
-204.274
 11
-289.65
 21
-204.25
  0
LINE
  8
0
 10
-289.65
 20
-204.25
 11
-289.406
 21
-204.274
  0
LINE
  8
0
 10
-289.406
 20
-204.274
 11
-289.172
 21
-204.345
  0
LINE
  8
0
 10
-289.172
 20
-204.345
 11
-288.956
 21
-204.461
  0
LINE
  8
0
 10
-288.956
 20
-204.461
 11
-288.766
 21
-204.616
  0
LINE
  8
0
 10
-288.766
 20
-204.616
 11
-288.611
 21
-204.806
  0
LINE
  8
0
 10
-288.611
 20
-204.806
 11
-288.495
 21
-205.022
  0
LINE
  8
0
 10
-288.495
 20
-205.022
 11
-288.424
 21
-205.256
  0
LINE
  8
0
 10
-288.424
 20
-205.256
 11
-288.4
 21
-205.5
  0
LINE
  8
0
 10
-288.4
 20
-205.5
 11
-288.424
 21
-205.744
  0
LINE
  8
0
 10
-288.424
 20
-205.744
 11
-288.495
 21
-205.978
  0
LINE
  8
0
 10
-288.495
 20
-205.978
 11
-288.611
 21
-206.194
  0
LINE
  8
0
 10
-288.611
 20
-206.194
 11
-288.766
 21
-206.384
  0
LINE
  8
0
 10
-288.766
 20
-206.384
 11
-288.956
 21
-206.539
  0
LINE
  8
0
 10
-288.956
 20
-206.539
 11
-289.172
 21
-206.655
  0
LINE
  8
0
 10
-289.172
 20
-206.655
 11
-289.406
 21
-206.726
  0
LINE
  8
0
 10
-289.406
 20
-206.726
 11
-289.65
 21
-206.75
  0
LINE
  8
0
 10
-289.65
 20
-206.75
 11
-289.894
 21
-206.726
  0
LINE
  8
0
 10
239.477
 20
-227.473
 11
238.96
 21
-227.391
  0
LINE
  8
0
 10
238.96
 20
-227.391
 11
238.455
 21
-227.255
  0
LINE
  8
0
 10
238.455
 20
-227.255
 11
237.966
 21
-227.068
  0
LINE
  8
0
 10
237.966
 20
-227.068
 11
237.5
 21
-226.83
  0
LINE
  8
0
 10
237.5
 20
-226.83
 11
237.061
 21
-226.545
  0
LINE
  8
0
 10
237.061
 20
-226.545
 11
236.654
 21
-226.216
  0
LINE
  8
0
 10
236.654
 20
-226.216
 11
236.284
 21
-225.846
  0
LINE
  8
0
 10
236.284
 20
-225.846
 11
235.955
 21
-225.439
  0
LINE
  8
0
 10
235.955
 20
-225.439
 11
235.67
 21
-225
  0
LINE
  8
0
 10
235.67
 20
-225
 11
235.432
 21
-224.534
  0
LINE
  8
0
 10
235.432
 20
-224.534
 11
235.245
 21
-224.045
  0
LINE
  8
0
 10
235.245
 20
-224.045
 11
235.109
 21
-223.54
  0
LINE
  8
0
 10
235.109
 20
-223.54
 11
235.027
 21
-223.023
  0
LINE
  8
0
 10
235.027
 20
-223.023
 11
235
 21
-222.5
  0
LINE
  8
0
 10
235
 20
-222.5
 11
235.027
 21
-221.977
  0
LINE
  8
0
 10
235.027
 20
-221.977
 11
235.109
 21
-221.46
  0
LINE
  8
0
 10
235.109
 20
-221.46
 11
235.245
 21
-220.955
  0
LINE
  8
0
 10
235.245
 20
-220.955
 11
235.432
 21
-220.466
  0
LINE
  8
0
 10
235.432
 20
-220.466
 11
235.67
 21
-220
  0
LINE
  8
0
 10
235.67
 20
-220
 11
235.955
 21
-219.561
  0
LINE
  8
0
 10
235.955
 20
-219.561
 11
236.284
 21
-219.154
  0
LINE
  8
0
 10
236.284
 20
-219.154
 11
236.654
 21
-218.784
  0
LINE
  8
0
 10
236.654
 20
-218.784
 11
237.061
 21
-218.455
  0
LINE
  8
0
 10
237.061
 20
-218.455
 11
237.5
 21
-218.17
  0
LINE
  8
0
 10
237.5
 20
-218.17
 11
237.966
 21
-217.932
  0
LINE
  8
0
 10
237.966
 20
-217.932
 11
238.455
 21
-217.745
  0
LINE
  8
0
 10
238.455
 20
-217.745
 11
238.96
 21
-217.609
  0
LINE
  8
0
 10
238.96
 20
-217.609
 11
239.477
 21
-217.527
  0
LINE
  8
0
 10
239.477
 20
-217.527
 11
240
 21
-217.5
  0
LINE
  8
0
 10
240
 20
-217.5
 11
240.523
 21
-217.527
  0
LINE
  8
0
 10
240.523
 20
-217.527
 11
241.04
 21
-217.609
  0
LINE
  8
0
 10
241.04
 20
-217.609
 11
241.545
 21
-217.745
  0
LINE
  8
0
 10
241.545
 20
-217.745
 11
242.034
 21
-217.932
  0
LINE
  8
0
 10
242.034
 20
-217.932
 11
242.5
 21
-218.17
  0
LINE
  8
0
 10
242.5
 20
-218.17
 11
242.939
 21
-218.455
  0
LINE
  8
0
 10
242.939
 20
-218.455
 11
243.346
 21
-218.784
  0
LINE
  8
0
 10
243.346
 20
-218.784
 11
243.716
 21
-219.154
  0
LINE
  8
0
 10
243.716
 20
-219.154
 11
244.045
 21
-219.561
  0
LINE
  8
0
 10
244.045
 20
-219.561
 11
244.33
 21
-220
  0
LINE
  8
0
 10
244.33
 20
-220
 11
244.568
 21
-220.466
  0
LINE
  8
0
 10
244.568
 20
-220.466
 11
244.755
 21
-220.955
  0
LINE
  8
0
 10
244.755
 20
-220.955
 11
244.891
 21
-221.46
  0
LINE
  8
0
 10
244.891
 20
-221.46
 11
244.973
 21
-221.977
  0
LINE
  8
0
 10
244.973
 20
-221.977
 11
245
 21
-222.5
  0
LINE
  8
0
 10
245
 20
-222.5
 11
244.973
 21
-223.023
  0
LINE
  8
0
 10
244.973
 20
-223.023
 11
244.891
 21
-223.54
  0
LINE
  8
0
 10
244.891
 20
-223.54
 11
244.755
 21
-224.045
  0
LINE
  8
0
 10
244.755
 20
-224.045
 11
244.568
 21
-224.534
  0
LINE
  8
0
 10
244.568
 20
-224.534
 11
244.33
 21
-225
  0
LINE
  8
0
 10
244.33
 20
-225
 11
244.045
 21
-225.439
  0
LINE
  8
0
 10
244.045
 20
-225.439
 11
243.716
 21
-225.846
  0
LINE
  8
0
 10
243.716
 20
-225.846
 11
243.346
 21
-226.216
  0
LINE
  8
0
 10
243.346
 20
-226.216
 11
242.939
 21
-226.545
  0
LINE
  8
0
 10
242.939
 20
-226.545
 11
242.5
 21
-226.83
  0
LINE
  8
0
 10
242.5
 20
-226.83
 11
242.034
 21
-227.068
  0
LINE
  8
0
 10
242.034
 20
-227.068
 11
241.545
 21
-227.255
  0
LINE
  8
0
 10
241.545
 20
-227.255
 11
241.04
 21
-227.391
  0
LINE
  8
0
 10
241.04
 20
-227.391
 11
240.523
 21
-227.473
  0
LINE
  8
0
 10
240.523
 20
-227.473
 11
240
 21
-227.5
  0
LINE
  8
0
 10
240
 20
-227.5
 11
239.477
 21
-227.473
  0
LINE
  8
0
 10
-240.523
 20
-227.473
 11
-241.04
 21
-227.391
  0
LINE
  8
0
 10
-241.04
 20
-227.391
 11
-241.545
 21
-227.255
  0
LINE
  8
0
 10
-241.545
 20
-227.255
 11
-242.034
 21
-227.068
  0
LINE
  8
0
 10
-242.034
 20
-227.068
 11
-242.5
 21
-226.83
  0
LINE
  8
0
 10
-242.5
 20
-226.83
 11
-242.939
 21
-226.545
  0
LINE
  8
0
 10
-242.939
 20
-226.545
 11
-243.346
 21
-226.216
  0
LINE
  8
0
 10
-243.346
 20
-226.216
 11
-243.716
 21
-225.846
  0
LINE
  8
0
 10
-243.716
 20
-225.846
 11
-244.045
 21
-225.439
  0
LINE
  8
0
 10
-244.045
 20
-225.439
 11
-244.33
 21
-225
  0
LINE
  8
0
 10
-244.33
 20
-225
 11
-244.568
 21
-224.534
  0
LINE
  8
0
 10
-244.568
 20
-224.534
 11
-244.755
 21
-224.045
  0
LINE
  8
0
 10
-244.755
 20
-224.045
 11
-244.891
 21
-223.54
  0
LINE
  8
0
 10
-244.891
 20
-223.54
 11
-244.973
 21
-223.023
  0
LINE
  8
0
 10
-244.973
 20
-223.023
 11
-245
 21
-222.5
  0
LINE
  8
0
 10
-245
 20
-222.5
 11
-244.973
 21
-221.977
  0
LINE
  8
0
 10
-244.973
 20
-221.977
 11
-244.891
 21
-221.46
  0
LINE
  8
0
 10
-244.891
 20
-221.46
 11
-244.755
 21
-220.955
  0
LINE
  8
0
 10
-244.755
 20
-220.955
 11
-244.568
 21
-220.466
  0
LINE
  8
0
 10
-244.568
 20
-220.466
 11
-244.33
 21
-220
  0
LINE
  8
0
 10
-244.33
 20
-220
 11
-244.045
 21
-219.561
  0
LINE
  8
0
 10
-244.045
 20
-219.561
 11
-243.716
 21
-219.154
  0
LINE
  8
0
 10
-243.716
 20
-219.154
 11
-243.346
 21
-218.784
  0
LINE
  8
0
 10
-243.346
 20
-218.784
 11
-242.939
 21
-218.455
  0
LINE
  8
0
 10
-242.939
 20
-218.455
 11
-242.5
 21
-218.17
  0
LINE
  8
0
 10
-242.5
 20
-218.17
 11
-242.034
 21
-217.932
  0
LINE
  8
0
 10
-242.034
 20
-217.932
 11
-241.545
 21
-217.745
  0
LINE
  8
0
 10
-241.545
 20
-217.745
 11
-241.04
 21
-217.609
  0
LINE
  8
0
 10
-241.04
 20
-217.609
 11
-240.523
 21
-217.527
  0
LINE
  8
0
 10
-240.523
 20
-217.527
 11
-240
 21
-217.5
  0
LINE
  8
0
 10
-240
 20
-217.5
 11
-239.477
 21
-217.527
  0
LINE
  8
0
 10
-239.477
 20
-217.527
 11
-238.96
 21
-217.609
  0
LINE
  8
0
 10
-238.96
 20
-217.609
 11
-238.455
 21
-217.745
  0
LINE
  8
0
 10
-238.455
 20
-217.745
 11
-237.966
 21
-217.932
  0
LINE
  8
0
 10
-237.966
 20
-217.932
 11
-237.5
 21
-218.17
  0
LINE
  8
0
 10
-237.5
 20
-218.17
 11
-237.061
 21
-218.455
  0
LINE
  8
0
 10
-237.061
 20
-218.455
 11
-236.654
 21
-218.784
  0
LINE
  8
0
 10
-236.654
 20
-218.784
 11
-236.284
 21
-219.154
  0
LINE
  8
0
 10
-236.284
 20
-219.154
 11
-235.955
 21
-219.561
  0
LINE
  8
0
 10
-235.955
 20
-219.561
 11
-235.67
 21
-220
  0
LINE
  8
0
 10
-235.67
 20
-220
 11
-235.432
 21
-220.466
  0
LINE
  8
0
 10
-235.432
 20
-220.466
 11
-235.245
 21
-220.955
  0
LINE
  8
0
 10
-235.245
 20
-220.955
 11
-235.109
 21
-221.46
  0
LINE
  8
0
 10
-235.109
 20
-221.46
 11
-235.027
 21
-221.977
  0
LINE
  8
0
 10
-235.027
 20
-221.977
 11
-235
 21
-222.5
  0
LINE
  8
0
 10
-235
 20
-222.5
 11
-235.027
 21
-223.023
  0
LINE
  8
0
 10
-235.027
 20
-223.023
 11
-235.109
 21
-223.54
  0
LINE
  8
0
 10
-235.109
 20
-223.54
 11
-235.245
 21
-224.045
  0
LINE
  8
0
 10
-235.245
 20
-224.045
 11
-235.432
 21
-224.534
  0
LINE
  8
0
 10
-235.432
 20
-224.534
 11
-235.67
 21
-225
  0
LINE
  8
0
 10
-235.67
 20
-225
 11
-235.955
 21
-225.439
  0
LINE
  8
0
 10
-235.955
 20
-225.439
 11
-236.284
 21
-225.846
  0
LINE
  8
0
 10
-236.284
 20
-225.846
 11
-236.654
 21
-226.216
  0
LINE
  8
0
 10
-236.654
 20
-226.216
 11
-237.061
 21
-226.545
  0
LINE
  8
0
 10
-237.061
 20
-226.545
 11
-237.5
 21
-226.83
  0
LINE
  8
0
 10
-237.5
 20
-226.83
 11
-237.966
 21
-227.068
  0
LINE
  8
0
 10
-237.966
 20
-227.068
 11
-238.455
 21
-227.255
  0
LINE
  8
0
 10
-238.455
 20
-227.255
 11
-238.96
 21
-227.391
  0
LINE
  8
0
 10
-238.96
 20
-227.391
 11
-239.477
 21
-227.473
  0
LINE
  8
0
 10
-239.477
 20
-227.473
 11
-240
 21
-227.5
  0
LINE
  8
0
 10
-240
 20
-227.5
 11
-240.523
 21
-227.473
  0
LINE
  8
0
 10
268.027
 20
-222.645
 11
267.783
 21
-222.609
  0
LINE
  8
0
 10
267.783
 20
-222.609
 11
267.547
 21
-222.536
  0
LINE
  8
0
 10
267.547
 20
-222.536
 11
267.325
 21
-222.429
  0
LINE
  8
0
 10
267.325
 20
-222.429
 11
267.121
 21
-222.29
  0
LINE
  8
0
 10
267.121
 20
-222.29
 11
266.94
 21
-222.122
  0
LINE
  8
0
 10
266.94
 20
-222.122
 11
266.787
 21
-221.929
  0
LINE
  8
0
 10
266.787
 20
-221.929
 11
266.663
 21
-221.716
  0
LINE
  8
0
 10
266.663
 20
-221.716
 11
266.573
 21
-221.486
  0
LINE
  8
0
 10
266.573
 20
-221.486
 11
266.518
 21
-221.246
  0
LINE
  8
0
 10
266.518
 20
-221.246
 11
266.5
 21
-221
  0
LINE
  8
0
 10
266.5
 20
-221
 11
266.518
 21
-220.754
  0
LINE
  8
0
 10
266.518
 20
-220.754
 11
266.573
 21
-220.514
  0
LINE
  8
0
 10
266.573
 20
-220.514
 11
266.663
 21
-220.284
  0
LINE
  8
0
 10
266.663
 20
-220.284
 11
266.787
 21
-220.071
  0
LINE
  8
0
 10
266.787
 20
-220.071
 11
266.94
 21
-219.878
  0
LINE
  8
0
 10
266.94
 20
-219.878
 11
267.121
 21
-219.71
  0
LINE
  8
0
 10
267.121
 20
-219.71
 11
267.325
 21
-219.571
  0
LINE
  8
0
 10
267.325
 20
-219.571
 11
267.547
 21
-219.464
  0
LINE
  8
0
 10
267.547
 20
-219.464
 11
267.783
 21
-219.391
  0
LINE
  8
0
 10
267.783
 20
-219.391
 11
268.027
 21
-219.355
  0
LINE
  8
0
 10
268.027
 20
-219.355
 11
276.273
 21
-219.355
  0
LINE
  8
0
 10
276.273
 20
-219.355
 11
276.517
 21
-219.391
  0
LINE
  8
0
 10
276.517
 20
-219.391
 11
276.753
 21
-219.464
  0
LINE
  8
0
 10
276.753
 20
-219.464
 11
276.975
 21
-219.571
  0
LINE
  8
0
 10
276.975
 20
-219.571
 11
277.179
 21
-219.71
  0
LINE
  8
0
 10
277.179
 20
-219.71
 11
277.36
 21
-219.878
  0
LINE
  8
0
 10
277.36
 20
-219.878
 11
277.513
 21
-220.071
  0
LINE
  8
0
 10
277.513
 20
-220.071
 11
277.637
 21
-220.284
  0
LINE
  8
0
 10
277.637
 20
-220.284
 11
277.727
 21
-220.514
  0
LINE
  8
0
 10
277.727
 20
-220.514
 11
277.782
 21
-220.754
  0
LINE
  8
0
 10
277.782
 20
-220.754
 11
277.8
 21
-221
  0
LINE
  8
0
 10
277.8
 20
-221
 11
277.782
 21
-221.246
  0
LINE
  8
0
 10
277.782
 20
-221.246
 11
277.727
 21
-221.486
  0
LINE
  8
0
 10
277.727
 20
-221.486
 11
277.637
 21
-221.716
  0
LINE
  8
0
 10
277.637
 20
-221.716
 11
277.513
 21
-221.929
  0
LINE
  8
0
 10
277.513
 20
-221.929
 11
277.36
 21
-222.122
  0
LINE
  8
0
 10
277.36
 20
-222.122
 11
277.179
 21
-222.29
  0
LINE
  8
0
 10
277.179
 20
-222.29
 11
276.975
 21
-222.429
  0
LINE
  8
0
 10
276.975
 20
-222.429
 11
276.753
 21
-222.536
  0
LINE
  8
0
 10
276.753
 20
-222.536
 11
276.517
 21
-222.609
  0
LINE
  8
0
 10
276.517
 20
-222.609
 11
276.273
 21
-222.645
  0
LINE
  8
0
 10
276.273
 20
-222.645
 11
268.027
 21
-222.645
  0
LINE
  8
0
 10
299.027
 20
-222.645
 11
298.783
 21
-222.609
  0
LINE
  8
0
 10
298.783
 20
-222.609
 11
298.547
 21
-222.536
  0
LINE
  8
0
 10
298.547
 20
-222.536
 11
298.325
 21
-222.429
  0
LINE
  8
0
 10
298.325
 20
-222.429
 11
298.121
 21
-222.29
  0
LINE
  8
0
 10
298.121
 20
-222.29
 11
297.94
 21
-222.122
  0
LINE
  8
0
 10
297.94
 20
-222.122
 11
297.787
 21
-221.929
  0
LINE
  8
0
 10
297.787
 20
-221.929
 11
297.663
 21
-221.716
  0
LINE
  8
0
 10
297.663
 20
-221.716
 11
297.573
 21
-221.486
  0
LINE
  8
0
 10
297.573
 20
-221.486
 11
297.518
 21
-221.246
  0
LINE
  8
0
 10
297.518
 20
-221.246
 11
297.5
 21
-221
  0
LINE
  8
0
 10
297.5
 20
-221
 11
297.518
 21
-220.754
  0
LINE
  8
0
 10
297.518
 20
-220.754
 11
297.573
 21
-220.514
  0
LINE
  8
0
 10
297.573
 20
-220.514
 11
297.663
 21
-220.284
  0
LINE
  8
0
 10
297.663
 20
-220.284
 11
297.787
 21
-220.071
  0
LINE
  8
0
 10
297.787
 20
-220.071
 11
297.94
 21
-219.878
  0
LINE
  8
0
 10
297.94
 20
-219.878
 11
298.121
 21
-219.71
  0
LINE
  8
0
 10
298.121
 20
-219.71
 11
298.325
 21
-219.571
  0
LINE
  8
0
 10
298.325
 20
-219.571
 11
298.547
 21
-219.464
  0
LINE
  8
0
 10
298.547
 20
-219.464
 11
298.783
 21
-219.391
  0
LINE
  8
0
 10
298.783
 20
-219.391
 11
299.027
 21
-219.355
  0
LINE
  8
0
 10
299.027
 20
-219.355
 11
307.273
 21
-219.355
  0
LINE
  8
0
 10
307.273
 20
-219.355
 11
307.517
 21
-219.391
  0
LINE
  8
0
 10
307.517
 20
-219.391
 11
307.753
 21
-219.464
  0
LINE
  8
0
 10
307.753
 20
-219.464
 11
307.975
 21
-219.571
  0
LINE
  8
0
 10
307.975
 20
-219.571
 11
308.179
 21
-219.71
  0
LINE
  8
0
 10
308.179
 20
-219.71
 11
308.36
 21
-219.878
  0
LINE
  8
0
 10
308.36
 20
-219.878
 11
308.513
 21
-220.071
  0
LINE
  8
0
 10
308.513
 20
-220.071
 11
308.637
 21
-220.284
  0
LINE
  8
0
 10
308.637
 20
-220.284
 11
308.727
 21
-220.514
  0
LINE
  8
0
 10
308.727
 20
-220.514
 11
308.782
 21
-220.754
  0
LINE
  8
0
 10
308.782
 20
-220.754
 11
308.8
 21
-221
  0
LINE
  8
0
 10
308.8
 20
-221
 11
308.782
 21
-221.246
  0
LINE
  8
0
 10
308.782
 20
-221.246
 11
308.727
 21
-221.486
  0
LINE
  8
0
 10
308.727
 20
-221.486
 11
308.637
 21
-221.716
  0
LINE
  8
0
 10
308.637
 20
-221.716
 11
308.513
 21
-221.929
  0
LINE
  8
0
 10
308.513
 20
-221.929
 11
308.36
 21
-222.122
  0
LINE
  8
0
 10
308.36
 20
-222.122
 11
308.179
 21
-222.29
  0
LINE
  8
0
 10
308.179
 20
-222.29
 11
307.975
 21
-222.429
  0
LINE
  8
0
 10
307.975
 20
-222.429
 11
307.753
 21
-222.536
  0
LINE
  8
0
 10
307.753
 20
-222.536
 11
307.517
 21
-222.609
  0
LINE
  8
0
 10
307.517
 20
-222.609
 11
307.273
 21
-222.645
  0
LINE
  8
0
 10
307.273
 20
-222.645
 11
299.027
 21
-222.645
  0
LINE
  8
0
 10
76.6667
 20
-224.25
 11
76.4176
 21
-224.232
  0
LINE
  8
0
 10
76.4176
 20
-224.232
 11
76.1736
 21
-224.179
  0
LINE
  8
0
 10
76.1736
 20
-224.179
 11
75.9397
 21
-224.092
  0
LINE
  8
0
 10
75.9397
 20
-224.092
 11
75.7205
 21
-223.972
  0
LINE
  8
0
 10
75.7205
 20
-223.972
 11
75.5207
 21
-223.823
  0
LINE
  8
0
 10
75.5207
 20
-223.823
 11
75.3441
 21
-223.646
  0
LINE
  8
0
 10
75.3441
 20
-223.646
 11
75.1945
 21
-223.446
  0
LINE
  8
0
 10
75.1945
 20
-223.446
 11
75.0748
 21
-223.227
  0
LINE
  8
0
 10
75.0748
 20
-223.227
 11
74.9875
 21
-222.993
  0
LINE
  8
0
 10
74.9875
 20
-222.993
 11
74.9345
 21
-222.749
  0
LINE
  8
0
 10
74.9345
 20
-222.749
 11
74.9167
 21
-222.5
  0
LINE
  8
0
 10
74.9167
 20
-222.5
 11
74.9345
 21
-222.251
  0
LINE
  8
0
 10
74.9345
 20
-222.251
 11
74.9875
 21
-222.007
  0
LINE
  8
0
 10
74.9875
 20
-222.007
 11
75.0748
 21
-221.773
  0
LINE
  8
0
 10
75.0748
 20
-221.773
 11
75.1945
 21
-221.554
  0
LINE
  8
0
 10
75.1945
 20
-221.554
 11
75.3441
 21
-221.354
  0
LINE
  8
0
 10
75.3441
 20
-221.354
 11
75.5207
 21
-221.177
  0
LINE
  8
0
 10
75.5207
 20
-221.177
 11
75.7205
 21
-221.028
  0
LINE
  8
0
 10
75.7205
 20
-221.028
 11
75.9397
 21
-220.908
  0
LINE
  8
0
 10
75.9397
 20
-220.908
 11
76.1736
 21
-220.821
  0
LINE
  8
0
 10
76.1736
 20
-220.821
 11
76.4176
 21
-220.768
  0
LINE
  8
0
 10
76.4176
 20
-220.768
 11
76.6667
 21
-220.75
  0
LINE
  8
0
 10
76.6667
 20
-220.75
 11
188.333
 21
-220.75
  0
LINE
  8
0
 10
188.333
 20
-220.75
 11
188.582
 21
-220.768
  0
LINE
  8
0
 10
188.582
 20
-220.768
 11
188.826
 21
-220.821
  0
LINE
  8
0
 10
188.826
 20
-220.821
 11
189.06
 21
-220.908
  0
LINE
  8
0
 10
189.06
 20
-220.908
 11
189.279
 21
-221.028
  0
LINE
  8
0
 10
189.279
 20
-221.028
 11
189.479
 21
-221.177
  0
LINE
  8
0
 10
189.479
 20
-221.177
 11
189.656
 21
-221.354
  0
LINE
  8
0
 10
189.656
 20
-221.354
 11
189.806
 21
-221.554
  0
LINE
  8
0
 10
189.806
 20
-221.554
 11
189.925
 21
-221.773
  0
LINE
  8
0
 10
189.925
 20
-221.773
 11
190.012
 21
-222.007
  0
LINE
  8
0
 10
190.012
 20
-222.007
 11
190.066
 21
-222.251
  0
LINE
  8
0
 10
190.066
 20
-222.251
 11
190.083
 21
-222.5
  0
LINE
  8
0
 10
190.083
 20
-222.5
 11
190.066
 21
-222.749
  0
LINE
  8
0
 10
190.066
 20
-222.749
 11
190.012
 21
-222.993
  0
LINE
  8
0
 10
190.012
 20
-222.993
 11
189.925
 21
-223.227
  0
LINE
  8
0
 10
189.925
 20
-223.227
 11
189.806
 21
-223.446
  0
LINE
  8
0
 10
189.806
 20
-223.446
 11
189.656
 21
-223.646
  0
LINE
  8
0
 10
189.656
 20
-223.646
 11
189.479
 21
-223.823
  0
LINE
  8
0
 10
189.479
 20
-223.823
 11
189.279
 21
-223.972
  0
LINE
  8
0
 10
189.279
 20
-223.972
 11
189.06
 21
-224.092
  0
LINE
  8
0
 10
189.06
 20
-224.092
 11
188.826
 21
-224.179
  0
LINE
  8
0
 10
188.826
 20
-224.179
 11
188.582
 21
-224.232
  0
LINE
  8
0
 10
188.582
 20
-224.232
 11
188.333
 21
-224.25
  0
LINE
  8
0
 10
188.333
 20
-224.25
 11
76.6667
 21
-224.25
  0
LINE
  8
0
 10
-56.6667
 20
-224.25
 11
-56.9157
 21
-224.232
  0
LINE
  8
0
 10
-56.9157
 20
-224.232
 11
-57.1597
 21
-224.179
  0
LINE
  8
0
 10
-57.1597
 20
-224.179
 11
-57.3936
 21
-224.092
  0
LINE
  8
0
 10
-57.3936
 20
-224.092
 11
-57.6128
 21
-223.972
  0
LINE
  8
0
 10
-57.6128
 20
-223.972
 11
-57.8127
 21
-223.823
  0
LINE
  8
0
 10
-57.8127
 20
-223.823
 11
-57.9892
 21
-223.646
  0
LINE
  8
0
 10
-57.9892
 20
-223.646
 11
-58.1389
 21
-223.446
  0
LINE
  8
0
 10
-58.1389
 20
-223.446
 11
-58.2585
 21
-223.227
  0
LINE
  8
0
 10
-58.2585
 20
-223.227
 11
-58.3458
 21
-222.993
  0
LINE
  8
0
 10
-58.3458
 20
-222.993
 11
-58.3988
 21
-222.749
  0
LINE
  8
0
 10
-58.3988
 20
-222.749
 11
-58.4167
 21
-222.5
  0
LINE
  8
0
 10
-58.4167
 20
-222.5
 11
-58.3988
 21
-222.251
  0
LINE
  8
0
 10
-58.3988
 20
-222.251
 11
-58.3458
 21
-222.007
  0
LINE
  8
0
 10
-58.3458
 20
-222.007
 11
-58.2585
 21
-221.773
  0
LINE
  8
0
 10
-58.2585
 20
-221.773
 11
-58.1389
 21
-221.554
  0
LINE
  8
0
 10
-58.1389
 20
-221.554
 11
-57.9892
 21
-221.354
  0
LINE
  8
0
 10
-57.9892
 20
-221.354
 11
-57.8127
 21
-221.177
  0
LINE
  8
0
 10
-57.8127
 20
-221.177
 11
-57.6128
 21
-221.028
  0
LINE
  8
0
 10
-57.6128
 20
-221.028
 11
-57.3936
 21
-220.908
  0
LINE
  8
0
 10
-57.3936
 20
-220.908
 11
-57.1597
 21
-220.821
  0
LINE
  8
0
 10
-57.1597
 20
-220.821
 11
-56.9157
 21
-220.768
  0
LINE
  8
0
 10
-56.9157
 20
-220.768
 11
-56.6667
 21
-220.75
  0
LINE
  8
0
 10
-56.6667
 20
-220.75
 11
55
 21
-220.75
  0
LINE
  8
0
 10
55
 20
-220.75
 11
55.249
 21
-220.768
  0
LINE
  8
0
 10
55.249
 20
-220.768
 11
55.493
 21
-220.821
  0
LINE
  8
0
 10
55.493
 20
-220.821
 11
55.727
 21
-220.908
  0
LINE
  8
0
 10
55.727
 20
-220.908
 11
55.9461
 21
-221.028
  0
LINE
  8
0
 10
55.9461
 20
-221.028
 11
56.146
 21
-221.177
  0
LINE
  8
0
 10
56.146
 20
-221.177
 11
56.3226
 21
-221.354
  0
LINE
  8
0
 10
56.3226
 20
-221.354
 11
56.4722
 21
-221.554
  0
LINE
  8
0
 10
56.4722
 20
-221.554
 11
56.5918
 21
-221.773
  0
LINE
  8
0
 10
56.5918
 20
-221.773
 11
56.6791
 21
-222.007
  0
LINE
  8
0
 10
56.6791
 20
-222.007
 11
56.7322
 21
-222.251
  0
LINE
  8
0
 10
56.7322
 20
-222.251
 11
56.75
 21
-222.5
  0
LINE
  8
0
 10
56.75
 20
-222.5
 11
56.7322
 21
-222.749
  0
LINE
  8
0
 10
56.7322
 20
-222.749
 11
56.6791
 21
-222.993
  0
LINE
  8
0
 10
56.6791
 20
-222.993
 11
56.5918
 21
-223.227
  0
LINE
  8
0
 10
56.5918
 20
-223.227
 11
56.4722
 21
-223.446
  0
LINE
  8
0
 10
56.4722
 20
-223.446
 11
56.3226
 21
-223.646
  0
LINE
  8
0
 10
56.3226
 20
-223.646
 11
56.146
 21
-223.823
  0
LINE
  8
0
 10
56.146
 20
-223.823
 11
55.9461
 21
-223.972
  0
LINE
  8
0
 10
55.9461
 20
-223.972
 11
55.727
 21
-224.092
  0
LINE
  8
0
 10
55.727
 20
-224.092
 11
55.493
 21
-224.179
  0
LINE
  8
0
 10
55.493
 20
-224.179
 11
55.249
 21
-224.232
  0
LINE
  8
0
 10
55.249
 20
-224.232
 11
55
 21
-224.25
  0
LINE
  8
0
 10
55
 20
-224.25
 11
-56.6667
 21
-224.25
  0
LINE
  8
0
 10
-190
 20
-224.25
 11
-190.249
 21
-224.232
  0
LINE
  8
0
 10
-190.249
 20
-224.232
 11
-190.493
 21
-224.179
  0
LINE
  8
0
 10
-190.493
 20
-224.179
 11
-190.727
 21
-224.092
  0
LINE
  8
0
 10
-190.727
 20
-224.092
 11
-190.946
 21
-223.972
  0
LINE
  8
0
 10
-190.946
 20
-223.972
 11
-191.146
 21
-223.823
  0
LINE
  8
0
 10
-191.146
 20
-223.823
 11
-191.323
 21
-223.646
  0
LINE
  8
0
 10
-191.323
 20
-223.646
 11
-191.472
 21
-223.446
  0
LINE
  8
0
 10
-191.472
 20
-223.446
 11
-191.592
 21
-223.227
  0
LINE
  8
0
 10
-191.592
 20
-223.227
 11
-191.679
 21
-222.993
  0
LINE
  8
0
 10
-191.679
 20
-222.993
 11
-191.732
 21
-222.749
  0
LINE
  8
0
 10
-191.732
 20
-222.749
 11
-191.75
 21
-222.5
  0
LINE
  8
0
 10
-191.75
 20
-222.5
 11
-191.732
 21
-222.251
  0
LINE
  8
0
 10
-191.732
 20
-222.251
 11
-191.679
 21
-222.007
  0
LINE
  8
0
 10
-191.679
 20
-222.007
 11
-191.592
 21
-221.773
  0
LINE
  8
0
 10
-191.592
 20
-221.773
 11
-191.472
 21
-221.554
  0
LINE
  8
0
 10
-191.472
 20
-221.554
 11
-191.323
 21
-221.354
  0
LINE
  8
0
 10
-191.323
 20
-221.354
 11
-191.146
 21
-221.177
  0
LINE
  8
0
 10
-191.146
 20
-221.177
 11
-190.946
 21
-221.028
  0
LINE
  8
0
 10
-190.946
 20
-221.028
 11
-190.727
 21
-220.908
  0
LINE
  8
0
 10
-190.727
 20
-220.908
 11
-190.493
 21
-220.821
  0
LINE
  8
0
 10
-190.493
 20
-220.821
 11
-190.249
 21
-220.768
  0
LINE
  8
0
 10
-190.249
 20
-220.768
 11
-190
 21
-220.75
  0
LINE
  8
0
 10
-190
 20
-220.75
 11
-78.3333
 21
-220.75
  0
LINE
  8
0
 10
-78.3333
 20
-220.75
 11
-78.0843
 21
-220.768
  0
LINE
  8
0
 10
-78.0843
 20
-220.768
 11
-77.8403
 21
-220.821
  0
LINE
  8
0
 10
-77.8403
 20
-220.821
 11
-77.6064
 21
-220.908
  0
LINE
  8
0
 10
-77.6064
 20
-220.908
 11
-77.3872
 21
-221.028
  0
LINE
  8
0
 10
-77.3872
 20
-221.028
 11
-77.1873
 21
-221.177
  0
LINE
  8
0
 10
-77.1873
 20
-221.177
 11
-77.0108
 21
-221.354
  0
LINE
  8
0
 10
-77.0108
 20
-221.354
 11
-76.8611
 21
-221.554
  0
LINE
  8
0
 10
-76.8611
 20
-221.554
 11
-76.7415
 21
-221.773
  0
LINE
  8
0
 10
-76.7415
 20
-221.773
 11
-76.6542
 21
-222.007
  0
LINE
  8
0
 10
-76.6542
 20
-222.007
 11
-76.6011
 21
-222.251
  0
LINE
  8
0
 10
-76.6011
 20
-222.251
 11
-76.5833
 21
-222.5
  0
LINE
  8
0
 10
-76.5833
 20
-222.5
 11
-76.6011
 21
-222.749
  0
LINE
  8
0
 10
-76.6011
 20
-222.749
 11
-76.6542
 21
-222.993
  0
LINE
  8
0
 10
-76.6542
 20
-222.993
 11
-76.7415
 21
-223.227
  0
LINE
  8
0
 10
-76.7415
 20
-223.227
 11
-76.8611
 21
-223.446
  0
LINE
  8
0
 10
-76.8611
 20
-223.446
 11
-77.0108
 21
-223.646
  0
LINE
  8
0
 10
-77.0108
 20
-223.646
 11
-77.1873
 21
-223.823
  0
LINE
  8
0
 10
-77.1873
 20
-223.823
 11
-77.3872
 21
-223.972
  0
LINE
  8
0
 10
-77.3872
 20
-223.972
 11
-77.6064
 21
-224.092
  0
LINE
  8
0
 10
-77.6064
 20
-224.092
 11
-77.8403
 21
-224.179
  0
LINE
  8
0
 10
-77.8403
 20
-224.179
 11
-78.0843
 21
-224.232
  0
LINE
  8
0
 10
-78.0843
 20
-224.232
 11
-78.3333
 21
-224.25
  0
LINE
  8
0
 10
-78.3333
 20
-224.25
 11
-190
 21
-224.25
  0
LINE
  8
0
 10
209.691
 20
-224.172
 11
209.451
 21
-224.109
  0
LINE
  8
0
 10
209.451
 20
-224.109
 11
209.223
 21
-224.012
  0
LINE
  8
0
 10
209.223
 20
-224.012
 11
209.011
 21
-223.883
  0
LINE
  8
0
 10
209.011
 20
-223.883
 11
208.82
 21
-223.724
  0
LINE
  8
0
 10
208.82
 20
-223.724
 11
208.654
 21
-223.539
  0
LINE
  8
0
 10
208.654
 20
-223.539
 11
208.518
 21
-223.332
  0
LINE
  8
0
 10
208.518
 20
-223.332
 11
208.412
 21
-223.107
  0
LINE
  8
0
 10
208.412
 20
-223.107
 11
208.341
 21
-222.87
  0
LINE
  8
0
 10
208.341
 20
-222.87
 11
208.305
 21
-222.624
  0
LINE
  8
0
 10
208.305
 20
-222.624
 11
208.305
 21
-222.376
  0
LINE
  8
0
 10
208.305
 20
-222.376
 11
208.341
 21
-222.13
  0
LINE
  8
0
 10
208.341
 20
-222.13
 11
208.412
 21
-221.893
  0
LINE
  8
0
 10
208.412
 20
-221.893
 11
208.518
 21
-221.668
  0
LINE
  8
0
 10
208.518
 20
-221.668
 11
208.654
 21
-221.461
  0
LINE
  8
0
 10
208.654
 20
-221.461
 11
208.82
 21
-221.276
  0
LINE
  8
0
 10
208.82
 20
-221.276
 11
209.011
 21
-221.117
  0
LINE
  8
0
 10
209.011
 20
-221.117
 11
209.223
 21
-220.988
  0
LINE
  8
0
 10
209.223
 20
-220.988
 11
209.451
 21
-220.891
  0
LINE
  8
0
 10
209.451
 20
-220.891
 11
209.691
 21
-220.828
  0
LINE
  8
0
 10
209.691
 20
-220.828
 11
209.938
 21
-220.801
  0
LINE
  8
0
 10
209.938
 20
-220.801
 11
210.186
 21
-220.81
  0
LINE
  8
0
 10
210.186
 20
-220.81
 11
210.43
 21
-220.855
  0
LINE
  8
0
 10
210.43
 20
-220.855
 11
210.665
 21
-220.935
  0
LINE
  8
0
 10
210.665
 20
-220.935
 11
210.886
 21
-221.049
  0
LINE
  8
0
 10
210.886
 20
-221.049
 11
211.087
 21
-221.193
  0
LINE
  8
0
 10
211.087
 20
-221.193
 11
211.266
 21
-221.366
  0
LINE
  8
0
 10
211.266
 20
-221.366
 11
211.418
 21
-221.562
  0
LINE
  8
0
 10
211.418
 20
-221.562
 11
211.539
 21
-221.778
  0
LINE
  8
0
 10
211.539
 20
-221.778
 11
211.628
 21
-222.01
  0
LINE
  8
0
 10
211.628
 20
-222.01
 11
211.682
 21
-222.252
  0
LINE
  8
0
 10
211.682
 20
-222.252
 11
211.7
 21
-222.5
  0
LINE
  8
0
 10
211.7
 20
-222.5
 11
211.682
 21
-222.748
  0
LINE
  8
0
 10
211.682
 20
-222.748
 11
211.628
 21
-222.99
  0
LINE
  8
0
 10
211.628
 20
-222.99
 11
211.539
 21
-223.222
  0
LINE
  8
0
 10
211.539
 20
-223.222
 11
211.418
 21
-223.438
  0
LINE
  8
0
 10
211.418
 20
-223.438
 11
211.266
 21
-223.634
  0
LINE
  8
0
 10
211.266
 20
-223.634
 11
211.087
 21
-223.807
  0
LINE
  8
0
 10
211.087
 20
-223.807
 11
210.886
 21
-223.951
  0
LINE
  8
0
 10
210.886
 20
-223.951
 11
210.665
 21
-224.065
  0
LINE
  8
0
 10
210.665
 20
-224.065
 11
210.43
 21
-224.145
  0
LINE
  8
0
 10
210.43
 20
-224.145
 11
210.186
 21
-224.19
  0
LINE
  8
0
 10
210.186
 20
-224.19
 11
209.938
 21
-224.199
  0
LINE
  8
0
 10
209.938
 20
-224.199
 11
209.691
 21
-224.172
  0
LINE
  8
0
 10
-210.186
 20
-224.19
 11
-210.43
 21
-224.145
  0
LINE
  8
0
 10
-210.43
 20
-224.145
 11
-210.665
 21
-224.065
  0
LINE
  8
0
 10
-210.665
 20
-224.065
 11
-210.886
 21
-223.951
  0
LINE
  8
0
 10
-210.886
 20
-223.951
 11
-211.087
 21
-223.807
  0
LINE
  8
0
 10
-211.087
 20
-223.807
 11
-211.266
 21
-223.634
  0
LINE
  8
0
 10
-211.266
 20
-223.634
 11
-211.418
 21
-223.438
  0
LINE
  8
0
 10
-211.418
 20
-223.438
 11
-211.539
 21
-223.222
  0
LINE
  8
0
 10
-211.539
 20
-223.222
 11
-211.628
 21
-222.99
  0
LINE
  8
0
 10
-211.628
 20
-222.99
 11
-211.682
 21
-222.748
  0
LINE
  8
0
 10
-211.682
 20
-222.748
 11
-211.7
 21
-222.5
  0
LINE
  8
0
 10
-211.7
 20
-222.5
 11
-211.682
 21
-222.252
  0
LINE
  8
0
 10
-211.682
 20
-222.252
 11
-211.628
 21
-222.01
  0
LINE
  8
0
 10
-211.628
 20
-222.01
 11
-211.539
 21
-221.778
  0
LINE
  8
0
 10
-211.539
 20
-221.778
 11
-211.418
 21
-221.562
  0
LINE
  8
0
 10
-211.418
 20
-221.562
 11
-211.266
 21
-221.366
  0
LINE
  8
0
 10
-211.266
 20
-221.366
 11
-211.087
 21
-221.193
  0
LINE
  8
0
 10
-211.087
 20
-221.193
 11
-210.886
 21
-221.049
  0
LINE
  8
0
 10
-210.886
 20
-221.049
 11
-210.665
 21
-220.935
  0
LINE
  8
0
 10
-210.665
 20
-220.935
 11
-210.43
 21
-220.855
  0
LINE
  8
0
 10
-210.43
 20
-220.855
 11
-210.186
 21
-220.81
  0
LINE
  8
0
 10
-210.186
 20
-220.81
 11
-209.938
 21
-220.801
  0
LINE
  8
0
 10
-209.938
 20
-220.801
 11
-209.691
 21
-220.828
  0
LINE
  8
0
 10
-209.691
 20
-220.828
 11
-209.451
 21
-220.891
  0
LINE
  8
0
 10
-209.451
 20
-220.891
 11
-209.223
 21
-220.988
  0
LINE
  8
0
 10
-209.223
 20
-220.988
 11
-209.011
 21
-221.117
  0
LINE
  8
0
 10
-209.011
 20
-221.117
 11
-208.82
 21
-221.276
  0
LINE
  8
0
 10
-208.82
 20
-221.276
 11
-208.654
 21
-221.461
  0
LINE
  8
0
 10
-208.654
 20
-221.461
 11
-208.518
 21
-221.668
  0
LINE
  8
0
 10
-208.518
 20
-221.668
 11
-208.412
 21
-221.893
  0
LINE
  8
0
 10
-208.412
 20
-221.893
 11
-208.341
 21
-222.13
  0
LINE
  8
0
 10
-208.341
 20
-222.13
 11
-208.305
 21
-222.376
  0
LINE
  8
0
 10
-208.305
 20
-222.376
 11
-208.305
 21
-222.624
  0
LINE
  8
0
 10
-208.305
 20
-222.624
 11
-208.341
 21
-222.87
  0
LINE
  8
0
 10
-208.341
 20
-222.87
 11
-208.412
 21
-223.107
  0
LINE
  8
0
 10
-208.412
 20
-223.107
 11
-208.518
 21
-223.332
  0
LINE
  8
0
 10
-208.518
 20
-223.332
 11
-208.654
 21
-223.539
  0
LINE
  8
0
 10
-208.654
 20
-223.539
 11
-208.82
 21
-223.724
  0
LINE
  8
0
 10
-208.82
 20
-223.724
 11
-209.011
 21
-223.883
  0
LINE
  8
0
 10
-209.011
 20
-223.883
 11
-209.223
 21
-224.012
  0
LINE
  8
0
 10
-209.223
 20
-224.012
 11
-209.451
 21
-224.109
  0
LINE
  8
0
 10
-209.451
 20
-224.109
 11
-209.691
 21
-224.172
  0
LINE
  8
0
 10
-209.691
 20
-224.172
 11
-209.938
 21
-224.199
  0
LINE
  8
0
 10
-209.938
 20
-224.199
 11
-210.186
 21
-224.19
  0
ENDSEC
  0
SECTION
  2
OBJECTS
  0
DICTIONARY
  0
ENDSEC
  0
EOF
