  0
SECTION
  2
BLOCKS
  0
ENDSEC
  0
SECTION
  2
ENTITIES
  0
LINE
  8
0
 10
245.398
 20
-227.348
 11
245.915
 21
-227.266
  0
LINE
  8
0
 10
245.915
 20
-227.266
 11
246.42
 21
-227.13
  0
LINE
  8
0
 10
246.42
 20
-227.13
 11
246.909
 21
-226.943
  0
LINE
  8
0
 10
246.909
 20
-226.943
 11
247.375
 21
-226.705
  0
LINE
  8
0
 10
247.375
 20
-226.705
 11
247.814
 21
-226.42
  0
LINE
  8
0
 10
247.814
 20
-226.42
 11
248.221
 21
-226.091
  0
LINE
  8
0
 10
248.221
 20
-226.091
 11
248.591
 21
-225.721
  0
LINE
  8
0
 10
248.591
 20
-225.721
 11
248.92
 21
-225.314
  0
LINE
  8
0
 10
248.92
 20
-225.314
 11
249.205
 21
-224.875
  0
LINE
  8
0
 10
249.205
 20
-224.875
 11
249.443
 21
-224.409
  0
LINE
  8
0
 10
249.443
 20
-224.409
 11
249.63
 21
-223.92
  0
LINE
  8
0
 10
249.63
 20
-223.92
 11
249.766
 21
-223.415
  0
LINE
  8
0
 10
249.766
 20
-223.415
 11
249.848
 21
-222.898
  0
LINE
  8
0
 10
249.848
 20
-222.898
 11
249.875
 21
-222.375
  0
LINE
  8
0
 10
249.875
 20
-222.375
 11
249.875
 21
222.375
  0
LINE
  8
0
 10
249.875
 20
222.375
 11
249.848
 21
222.898
  0
LINE
  8
0
 10
249.848
 20
222.898
 11
249.766
 21
223.415
  0
LINE
  8
0
 10
249.766
 20
223.415
 11
249.63
 21
223.92
  0
LINE
  8
0
 10
249.63
 20
223.92
 11
249.443
 21
224.409
  0
LINE
  8
0
 10
249.443
 20
224.409
 11
249.205
 21
224.875
  0
LINE
  8
0
 10
249.205
 20
224.875
 11
248.92
 21
225.314
  0
LINE
  8
0
 10
248.92
 20
225.314
 11
248.591
 21
225.721
  0
LINE
  8
0
 10
248.591
 20
225.721
 11
248.221
 21
226.091
  0
LINE
  8
0
 10
248.221
 20
226.091
 11
247.814
 21
226.42
  0
LINE
  8
0
 10
247.814
 20
226.42
 11
247.375
 21
226.705
  0
LINE
  8
0
 10
247.375
 20
226.705
 11
246.909
 21
226.943
  0
LINE
  8
0
 10
246.909
 20
226.943
 11
246.42
 21
227.13
  0
LINE
  8
0
 10
246.42
 20
227.13
 11
245.915
 21
227.266
  0
LINE
  8
0
 10
245.915
 20
227.266
 11
245.398
 21
227.348
  0
LINE
  8
0
 10
245.398
 20
227.348
 11
244.875
 21
227.375
  0
LINE
  8
0
 10
244.875
 20
227.375
 11
-244.875
 21
227.375
  0
LINE
  8
0
 10
-244.875
 20
227.375
 11
-245.398
 21
227.348
  0
LINE
  8
0
 10
-245.398
 20
227.348
 11
-245.915
 21
227.266
  0
LINE
  8
0
 10
-245.915
 20
227.266
 11
-246.42
 21
227.13
  0
LINE
  8
0
 10
-246.42
 20
227.13
 11
-246.909
 21
226.943
  0
LINE
  8
0
 10
-246.909
 20
226.943
 11
-247.375
 21
226.705
  0
LINE
  8
0
 10
-247.375
 20
226.705
 11
-247.814
 21
226.42
  0
LINE
  8
0
 10
-247.814
 20
226.42
 11
-248.221
 21
226.091
  0
LINE
  8
0
 10
-248.221
 20
226.091
 11
-248.591
 21
225.721
  0
LINE
  8
0
 10
-248.591
 20
225.721
 11
-248.92
 21
225.314
  0
LINE
  8
0
 10
-248.92
 20
225.314
 11
-249.205
 21
224.875
  0
LINE
  8
0
 10
-249.205
 20
224.875
 11
-249.443
 21
224.409
  0
LINE
  8
0
 10
-249.443
 20
224.409
 11
-249.63
 21
223.92
  0
LINE
  8
0
 10
-249.63
 20
223.92
 11
-249.766
 21
223.415
  0
LINE
  8
0
 10
-249.766
 20
223.415
 11
-249.848
 21
222.898
  0
LINE
  8
0
 10
-249.848
 20
222.898
 11
-249.875
 21
222.375
  0
LINE
  8
0
 10
-249.875
 20
222.375
 11
-249.875
 21
-222.375
  0
LINE
  8
0
 10
-249.875
 20
-222.375
 11
-249.848
 21
-222.898
  0
LINE
  8
0
 10
-249.848
 20
-222.898
 11
-249.766
 21
-223.415
  0
LINE
  8
0
 10
-249.766
 20
-223.415
 11
-249.63
 21
-223.92
  0
LINE
  8
0
 10
-249.63
 20
-223.92
 11
-249.443
 21
-224.409
  0
LINE
  8
0
 10
-249.443
 20
-224.409
 11
-249.205
 21
-224.875
  0
LINE
  8
0
 10
-249.205
 20
-224.875
 11
-248.92
 21
-225.314
  0
LINE
  8
0
 10
-248.92
 20
-225.314
 11
-248.591
 21
-225.721
  0
LINE
  8
0
 10
-248.591
 20
-225.721
 11
-248.221
 21
-226.091
  0
LINE
  8
0
 10
-248.221
 20
-226.091
 11
-247.814
 21
-226.42
  0
LINE
  8
0
 10
-247.814
 20
-226.42
 11
-247.375
 21
-226.705
  0
LINE
  8
0
 10
-247.375
 20
-226.705
 11
-246.909
 21
-226.943
  0
LINE
  8
0
 10
-246.909
 20
-226.943
 11
-246.42
 21
-227.13
  0
LINE
  8
0
 10
-246.42
 20
-227.13
 11
-245.915
 21
-227.266
  0
LINE
  8
0
 10
-245.915
 20
-227.266
 11
-245.398
 21
-227.348
  0
LINE
  8
0
 10
-245.398
 20
-227.348
 11
-244.875
 21
-227.375
  0
LINE
  8
0
 10
-244.875
 20
-227.375
 11
244.875
 21
-227.375
  0
LINE
  8
0
 10
244.875
 20
-227.375
 11
245.398
 21
-227.348
  0
LINE
  8
0
 10
239.477
 20
212.527
 11
238.96
 21
212.609
  0
LINE
  8
0
 10
238.96
 20
212.609
 11
238.455
 21
212.745
  0
LINE
  8
0
 10
238.455
 20
212.745
 11
237.966
 21
212.932
  0
LINE
  8
0
 10
237.966
 20
212.932
 11
237.5
 21
213.17
  0
LINE
  8
0
 10
237.5
 20
213.17
 11
237.061
 21
213.455
  0
LINE
  8
0
 10
237.061
 20
213.455
 11
236.654
 21
213.784
  0
LINE
  8
0
 10
236.654
 20
213.784
 11
236.284
 21
214.154
  0
LINE
  8
0
 10
236.284
 20
214.154
 11
235.955
 21
214.561
  0
LINE
  8
0
 10
235.955
 20
214.561
 11
235.67
 21
215
  0
LINE
  8
0
 10
235.67
 20
215
 11
235.432
 21
215.466
  0
LINE
  8
0
 10
235.432
 20
215.466
 11
235.245
 21
215.955
  0
LINE
  8
0
 10
235.245
 20
215.955
 11
235.109
 21
216.46
  0
LINE
  8
0
 10
235.109
 20
216.46
 11
235.027
 21
216.977
  0
LINE
  8
0
 10
235.027
 20
216.977
 11
235
 21
217.5
  0
LINE
  8
0
 10
235
 20
217.5
 11
235.027
 21
218.023
  0
LINE
  8
0
 10
235.027
 20
218.023
 11
235.109
 21
218.54
  0
LINE
  8
0
 10
235.109
 20
218.54
 11
235.245
 21
219.045
  0
LINE
  8
0
 10
235.245
 20
219.045
 11
235.432
 21
219.534
  0
LINE
  8
0
 10
235.432
 20
219.534
 11
235.67
 21
220
  0
LINE
  8
0
 10
235.67
 20
220
 11
235.955
 21
220.439
  0
LINE
  8
0
 10
235.955
 20
220.439
 11
236.284
 21
220.846
  0
LINE
  8
0
 10
236.284
 20
220.846
 11
236.654
 21
221.216
  0
LINE
  8
0
 10
236.654
 20
221.216
 11
237.061
 21
221.545
  0
LINE
  8
0
 10
237.061
 20
221.545
 11
237.5
 21
221.83
  0
LINE
  8
0
 10
237.5
 20
221.83
 11
237.966
 21
222.068
  0
LINE
  8
0
 10
237.966
 20
222.068
 11
238.455
 21
222.255
  0
LINE
  8
0
 10
238.455
 20
222.255
 11
238.96
 21
222.391
  0
LINE
  8
0
 10
238.96
 20
222.391
 11
239.477
 21
222.473
  0
LINE
  8
0
 10
239.477
 20
222.473
 11
240
 21
222.5
  0
LINE
  8
0
 10
240
 20
222.5
 11
240.523
 21
222.473
  0
LINE
  8
0
 10
240.523
 20
222.473
 11
241.04
 21
222.391
  0
LINE
  8
0
 10
241.04
 20
222.391
 11
241.545
 21
222.255
  0
LINE
  8
0
 10
241.545
 20
222.255
 11
242.034
 21
222.068
  0
LINE
  8
0
 10
242.034
 20
222.068
 11
242.5
 21
221.83
  0
LINE
  8
0
 10
242.5
 20
221.83
 11
242.939
 21
221.545
  0
LINE
  8
0
 10
242.939
 20
221.545
 11
243.346
 21
221.216
  0
LINE
  8
0
 10
243.346
 20
221.216
 11
243.716
 21
220.846
  0
LINE
  8
0
 10
243.716
 20
220.846
 11
244.045
 21
220.439
  0
LINE
  8
0
 10
244.045
 20
220.439
 11
244.33
 21
220
  0
LINE
  8
0
 10
244.33
 20
220
 11
244.568
 21
219.534
  0
LINE
  8
0
 10
244.568
 20
219.534
 11
244.755
 21
219.045
  0
LINE
  8
0
 10
244.755
 20
219.045
 11
244.891
 21
218.54
  0
LINE
  8
0
 10
244.891
 20
218.54
 11
244.973
 21
218.023
  0
LINE
  8
0
 10
244.973
 20
218.023
 11
245
 21
217.5
  0
LINE
  8
0
 10
245
 20
217.5
 11
244.973
 21
216.977
  0
LINE
  8
0
 10
244.973
 20
216.977
 11
244.891
 21
216.46
  0
LINE
  8
0
 10
244.891
 20
216.46
 11
244.755
 21
215.955
  0
LINE
  8
0
 10
244.755
 20
215.955
 11
244.568
 21
215.466
  0
LINE
  8
0
 10
244.568
 20
215.466
 11
244.33
 21
215
  0
LINE
  8
0
 10
244.33
 20
215
 11
244.045
 21
214.561
  0
LINE
  8
0
 10
244.045
 20
214.561
 11
243.716
 21
214.154
  0
LINE
  8
0
 10
243.716
 20
214.154
 11
243.346
 21
213.784
  0
LINE
  8
0
 10
243.346
 20
213.784
 11
242.939
 21
213.455
  0
LINE
  8
0
 10
242.939
 20
213.455
 11
242.5
 21
213.17
  0
LINE
  8
0
 10
242.5
 20
213.17
 11
242.034
 21
212.932
  0
LINE
  8
0
 10
242.034
 20
212.932
 11
241.545
 21
212.745
  0
LINE
  8
0
 10
241.545
 20
212.745
 11
241.04
 21
212.609
  0
LINE
  8
0
 10
241.04
 20
212.609
 11
240.523
 21
212.527
  0
LINE
  8
0
 10
240.523
 20
212.527
 11
240
 21
212.5
  0
LINE
  8
0
 10
240
 20
212.5
 11
239.477
 21
212.527
  0
LINE
  8
0
 10
-240.523
 20
212.527
 11
-241.04
 21
212.609
  0
LINE
  8
0
 10
-241.04
 20
212.609
 11
-241.545
 21
212.745
  0
LINE
  8
0
 10
-241.545
 20
212.745
 11
-242.034
 21
212.932
  0
LINE
  8
0
 10
-242.034
 20
212.932
 11
-242.5
 21
213.17
  0
LINE
  8
0
 10
-242.5
 20
213.17
 11
-242.939
 21
213.455
  0
LINE
  8
0
 10
-242.939
 20
213.455
 11
-243.346
 21
213.784
  0
LINE
  8
0
 10
-243.346
 20
213.784
 11
-243.716
 21
214.154
  0
LINE
  8
0
 10
-243.716
 20
214.154
 11
-244.045
 21
214.561
  0
LINE
  8
0
 10
-244.045
 20
214.561
 11
-244.33
 21
215
  0
LINE
  8
0
 10
-244.33
 20
215
 11
-244.568
 21
215.466
  0
LINE
  8
0
 10
-244.568
 20
215.466
 11
-244.755
 21
215.955
  0
LINE
  8
0
 10
-244.755
 20
215.955
 11
-244.891
 21
216.46
  0
LINE
  8
0
 10
-244.891
 20
216.46
 11
-244.973
 21
216.977
  0
LINE
  8
0
 10
-244.973
 20
216.977
 11
-245
 21
217.5
  0
LINE
  8
0
 10
-245
 20
217.5
 11
-244.973
 21
218.023
  0
LINE
  8
0
 10
-244.973
 20
218.023
 11
-244.891
 21
218.54
  0
LINE
  8
0
 10
-244.891
 20
218.54
 11
-244.755
 21
219.045
  0
LINE
  8
0
 10
-244.755
 20
219.045
 11
-244.568
 21
219.534
  0
LINE
  8
0
 10
-244.568
 20
219.534
 11
-244.33
 21
220
  0
LINE
  8
0
 10
-244.33
 20
220
 11
-244.045
 21
220.439
  0
LINE
  8
0
 10
-244.045
 20
220.439
 11
-243.716
 21
220.846
  0
LINE
  8
0
 10
-243.716
 20
220.846
 11
-243.346
 21
221.216
  0
LINE
  8
0
 10
-243.346
 20
221.216
 11
-242.939
 21
221.545
  0
LINE
  8
0
 10
-242.939
 20
221.545
 11
-242.5
 21
221.83
  0
LINE
  8
0
 10
-242.5
 20
221.83
 11
-242.034
 21
222.068
  0
LINE
  8
0
 10
-242.034
 20
222.068
 11
-241.545
 21
222.255
  0
LINE
  8
0
 10
-241.545
 20
222.255
 11
-241.04
 21
222.391
  0
LINE
  8
0
 10
-241.04
 20
222.391
 11
-240.523
 21
222.473
  0
LINE
  8
0
 10
-240.523
 20
222.473
 11
-240
 21
222.5
  0
LINE
  8
0
 10
-240
 20
222.5
 11
-239.477
 21
222.473
  0
LINE
  8
0
 10
-239.477
 20
222.473
 11
-238.96
 21
222.391
  0
LINE
  8
0
 10
-238.96
 20
222.391
 11
-238.455
 21
222.255
  0
LINE
  8
0
 10
-238.455
 20
222.255
 11
-237.966
 21
222.068
  0
LINE
  8
0
 10
-237.966
 20
222.068
 11
-237.5
 21
221.83
  0
LINE
  8
0
 10
-237.5
 20
221.83
 11
-237.061
 21
221.545
  0
LINE
  8
0
 10
-237.061
 20
221.545
 11
-236.654
 21
221.216
  0
LINE
  8
0
 10
-236.654
 20
221.216
 11
-236.284
 21
220.846
  0
LINE
  8
0
 10
-236.284
 20
220.846
 11
-235.955
 21
220.439
  0
LINE
  8
0
 10
-235.955
 20
220.439
 11
-235.67
 21
220
  0
LINE
  8
0
 10
-235.67
 20
220
 11
-235.432
 21
219.534
  0
LINE
  8
0
 10
-235.432
 20
219.534
 11
-235.245
 21
219.045
  0
LINE
  8
0
 10
-235.245
 20
219.045
 11
-235.109
 21
218.54
  0
LINE
  8
0
 10
-235.109
 20
218.54
 11
-235.027
 21
218.023
  0
LINE
  8
0
 10
-235.027
 20
218.023
 11
-235
 21
217.5
  0
LINE
  8
0
 10
-235
 20
217.5
 11
-235.027
 21
216.977
  0
LINE
  8
0
 10
-235.027
 20
216.977
 11
-235.109
 21
216.46
  0
LINE
  8
0
 10
-235.109
 20
216.46
 11
-235.245
 21
215.955
  0
LINE
  8
0
 10
-235.245
 20
215.955
 11
-235.432
 21
215.466
  0
LINE
  8
0
 10
-235.432
 20
215.466
 11
-235.67
 21
215
  0
LINE
  8
0
 10
-235.67
 20
215
 11
-235.955
 21
214.561
  0
LINE
  8
0
 10
-235.955
 20
214.561
 11
-236.284
 21
214.154
  0
LINE
  8
0
 10
-236.284
 20
214.154
 11
-236.654
 21
213.784
  0
LINE
  8
0
 10
-236.654
 20
213.784
 11
-237.061
 21
213.455
  0
LINE
  8
0
 10
-237.061
 20
213.455
 11
-237.5
 21
213.17
  0
LINE
  8
0
 10
-237.5
 20
213.17
 11
-237.966
 21
212.932
  0
LINE
  8
0
 10
-237.966
 20
212.932
 11
-238.455
 21
212.745
  0
LINE
  8
0
 10
-238.455
 20
212.745
 11
-238.96
 21
212.609
  0
LINE
  8
0
 10
-238.96
 20
212.609
 11
-239.477
 21
212.527
  0
LINE
  8
0
 10
-239.477
 20
212.527
 11
-240
 21
212.5
  0
LINE
  8
0
 10
-240
 20
212.5
 11
-240.523
 21
212.527
  0
LINE
  8
0
 10
199.814
 20
215.258
 11
199.569
 21
215.292
  0
LINE
  8
0
 10
199.569
 20
215.292
 11
199.328
 21
215.353
  0
LINE
  8
0
 10
199.328
 20
215.353
 11
199.096
 21
215.44
  0
LINE
  8
0
 10
199.096
 20
215.44
 11
198.875
 21
215.551
  0
LINE
  8
0
 10
198.875
 20
215.551
 11
198.667
 21
215.687
  0
LINE
  8
0
 10
198.667
 20
215.687
 11
198.476
 21
215.845
  0
LINE
  8
0
 10
198.476
 20
215.845
 11
198.303
 21
216.022
  0
LINE
  8
0
 10
198.303
 20
216.022
 11
198.151
 21
216.218
  0
LINE
  8
0
 10
198.151
 20
216.218
 11
198.021
 21
216.429
  0
LINE
  8
0
 10
198.021
 20
216.429
 11
197.915
 21
216.653
  0
LINE
  8
0
 10
197.915
 20
216.653
 11
197.835
 21
216.888
  0
LINE
  8
0
 10
197.835
 20
216.888
 11
197.781
 21
217.13
  0
LINE
  8
0
 10
197.781
 20
217.13
 11
197.753
 21
217.376
  0
LINE
  8
0
 10
197.753
 20
217.376
 11
197.753
 21
217.624
  0
LINE
  8
0
 10
197.753
 20
217.624
 11
197.781
 21
217.87
  0
LINE
  8
0
 10
197.781
 20
217.87
 11
197.835
 21
218.112
  0
LINE
  8
0
 10
197.835
 20
218.112
 11
197.915
 21
218.347
  0
LINE
  8
0
 10
197.915
 20
218.347
 11
198.021
 21
218.571
  0
LINE
  8
0
 10
198.021
 20
218.571
 11
198.151
 21
218.782
  0
LINE
  8
0
 10
198.151
 20
218.782
 11
198.303
 21
218.978
  0
LINE
  8
0
 10
198.303
 20
218.978
 11
198.476
 21
219.155
  0
LINE
  8
0
 10
198.476
 20
219.155
 11
198.667
 21
219.313
  0
LINE
  8
0
 10
198.667
 20
219.313
 11
198.875
 21
219.449
  0
LINE
  8
0
 10
198.875
 20
219.449
 11
199.096
 21
219.56
  0
LINE
  8
0
 10
199.096
 20
219.56
 11
199.328
 21
219.647
  0
LINE
  8
0
 10
199.328
 20
219.647
 11
199.569
 21
219.708
  0
LINE
  8
0
 10
199.569
 20
219.708
 11
199.814
 21
219.742
  0
LINE
  8
0
 10
199.814
 20
219.742
 11
200.062
 21
219.749
  0
LINE
  8
0
 10
200.062
 20
219.749
 11
200.309
 21
219.729
  0
LINE
  8
0
 10
200.309
 20
219.729
 11
200.552
 21
219.681
  0
LINE
  8
0
 10
200.552
 20
219.681
 11
200.789
 21
219.607
  0
LINE
  8
0
 10
200.789
 20
219.607
 11
201.016
 21
219.508
  0
LINE
  8
0
 10
201.016
 20
219.508
 11
201.231
 21
219.384
  0
LINE
  8
0
 10
201.231
 20
219.384
 11
201.43
 21
219.237
  0
LINE
  8
0
 10
201.43
 20
219.237
 11
201.613
 21
219.069
  0
LINE
  8
0
 10
201.613
 20
219.069
 11
201.776
 21
218.882
  0
LINE
  8
0
 10
201.776
 20
218.882
 11
201.917
 21
218.678
  0
LINE
  8
0
 10
201.917
 20
218.678
 11
202.035
 21
218.46
  0
LINE
  8
0
 10
202.035
 20
218.46
 11
202.128
 21
218.231
  0
LINE
  8
0
 10
202.128
 20
218.231
 11
202.196
 21
217.992
  0
LINE
  8
0
 10
202.196
 20
217.992
 11
202.236
 21
217.748
  0
LINE
  8
0
 10
202.236
 20
217.748
 11
202.25
 21
217.5
  0
LINE
  8
0
 10
202.25
 20
217.5
 11
202.236
 21
217.252
  0
LINE
  8
0
 10
202.236
 20
217.252
 11
202.196
 21
217.008
  0
LINE
  8
0
 10
202.196
 20
217.008
 11
202.128
 21
216.769
  0
LINE
  8
0
 10
202.128
 20
216.769
 11
202.035
 21
216.54
  0
LINE
  8
0
 10
202.035
 20
216.54
 11
201.917
 21
216.322
  0
LINE
  8
0
 10
201.917
 20
216.322
 11
201.776
 21
216.118
  0
LINE
  8
0
 10
201.776
 20
216.118
 11
201.613
 21
215.931
  0
LINE
  8
0
 10
201.613
 20
215.931
 11
201.43
 21
215.763
  0
LINE
  8
0
 10
201.43
 20
215.763
 11
201.231
 21
215.616
  0
LINE
  8
0
 10
201.231
 20
215.616
 11
201.016
 21
215.492
  0
LINE
  8
0
 10
201.016
 20
215.492
 11
200.789
 21
215.393
  0
LINE
  8
0
 10
200.789
 20
215.393
 11
200.552
 21
215.319
  0
LINE
  8
0
 10
200.552
 20
215.319
 11
200.309
 21
215.271
  0
LINE
  8
0
 10
200.309
 20
215.271
 11
200.062
 21
215.251
  0
LINE
  8
0
 10
200.062
 20
215.251
 11
199.814
 21
215.258
  0
LINE
  8
0
 10
-0.185791
 20
215.258
 11
-0.431335
 21
215.292
  0
LINE
  8
0
 10
-0.431335
 20
215.292
 11
-0.671646
 21
215.353
  0
LINE
  8
0
 10
-0.671646
 20
215.353
 11
-0.903809
 21
215.44
  0
LINE
  8
0
 10
-0.903809
 20
215.44
 11
-1.125
 21
215.551
  0
LINE
  8
0
 10
-1.125
 20
215.551
 11
-1.33252
 21
215.687
  0
LINE
  8
0
 10
-1.33252
 20
215.687
 11
-1.52388
 21
215.845
  0
LINE
  8
0
 10
-1.52388
 20
215.845
 11
-1.69673
 21
216.022
  0
LINE
  8
0
 10
-1.69673
 20
216.022
 11
-1.849
 21
216.218
  0
LINE
  8
0
 10
-1.849
 20
216.218
 11
-1.97881
 21
216.429
  0
LINE
  8
0
 10
-1.97881
 20
216.429
 11
-2.08461
 21
216.653
  0
LINE
  8
0
 10
-2.08461
 20
216.653
 11
-2.1651
 21
216.888
  0
LINE
  8
0
 10
-2.1651
 20
216.888
 11
-2.2193
 21
217.13
  0
LINE
  8
0
 10
-2.2193
 20
217.13
 11
-2.24658
 21
217.376
  0
LINE
  8
0
 10
-2.24658
 20
217.376
 11
-2.24658
 21
217.624
  0
LINE
  8
0
 10
-2.24658
 20
217.624
 11
-2.2193
 21
217.87
  0
LINE
  8
0
 10
-2.2193
 20
217.87
 11
-2.1651
 21
218.112
  0
LINE
  8
0
 10
-2.1651
 20
218.112
 11
-2.08461
 21
218.347
  0
LINE
  8
0
 10
-2.08461
 20
218.347
 11
-1.97881
 21
218.571
  0
LINE
  8
0
 10
-1.97881
 20
218.571
 11
-1.849
 21
218.782
  0
LINE
  8
0
 10
-1.849
 20
218.782
 11
-1.69673
 21
218.978
  0
LINE
  8
0
 10
-1.69673
 20
218.978
 11
-1.52388
 21
219.155
  0
LINE
  8
0
 10
-1.52388
 20
219.155
 11
-1.33252
 21
219.313
  0
LINE
  8
0
 10
-1.33252
 20
219.313
 11
-1.125
 21
219.449
  0
LINE
  8
0
 10
-1.125
 20
219.449
 11
-0.903809
 21
219.56
  0
LINE
  8
0
 10
-0.903809
 20
219.56
 11
-0.671646
 21
219.647
  0
LINE
  8
0
 10
-0.671646
 20
219.647
 11
-0.431335
 21
219.708
  0
LINE
  8
0
 10
-0.431335
 20
219.708
 11
-0.185791
 21
219.742
  0
LINE
  8
0
 10
-0.185791
 20
219.742
 11
0.0619965
 21
219.749
  0
LINE
  8
0
 10
0.0619965
 20
219.749
 11
0.309036
 21
219.729
  0
LINE
  8
0
 10
0.309036
 20
219.729
 11
0.552338
 21
219.681
  0
LINE
  8
0
 10
0.552338
 20
219.681
 11
0.788925
 21
219.607
  0
LINE
  8
0
 10
0.788925
 20
219.607
 11
1.01595
 21
219.508
  0
LINE
  8
0
 10
1.01595
 20
219.508
 11
1.23062
 21
219.384
  0
LINE
  8
0
 10
1.23062
 20
219.384
 11
1.43037
 21
219.237
  0
LINE
  8
0
 10
1.43037
 20
219.237
 11
1.61275
 21
219.069
  0
LINE
  8
0
 10
1.61275
 20
219.069
 11
1.77556
 21
218.882
  0
LINE
  8
0
 10
1.77556
 20
218.882
 11
1.91681
 21
218.678
  0
LINE
  8
0
 10
1.91681
 20
218.678
 11
2.03479
 21
218.46
  0
LINE
  8
0
 10
2.03479
 20
218.46
 11
2.12808
 21
218.231
  0
LINE
  8
0
 10
2.12808
 20
218.231
 11
2.19554
 21
217.992
  0
LINE
  8
0
 10
2.19554
 20
217.992
 11
2.23634
 21
217.748
  0
LINE
  8
0
 10
2.23634
 20
217.748
 11
2.25
 21
217.5
  0
LINE
  8
0
 10
2.25
 20
217.5
 11
2.23634
 21
217.252
  0
LINE
  8
0
 10
2.23634
 20
217.252
 11
2.19554
 21
217.008
  0
LINE
  8
0
 10
2.19554
 20
217.008
 11
2.12808
 21
216.769
  0
LINE
  8
0
 10
2.12808
 20
216.769
 11
2.03479
 21
216.54
  0
LINE
  8
0
 10
2.03479
 20
216.54
 11
1.91681
 21
216.322
  0
LINE
  8
0
 10
1.91681
 20
216.322
 11
1.77556
 21
216.118
  0
LINE
  8
0
 10
1.77556
 20
216.118
 11
1.61275
 21
215.931
  0
LINE
  8
0
 10
1.61275
 20
215.931
 11
1.43037
 21
215.763
  0
LINE
  8
0
 10
1.43037
 20
215.763
 11
1.23062
 21
215.616
  0
LINE
  8
0
 10
1.23062
 20
215.616
 11
1.01595
 21
215.492
  0
LINE
  8
0
 10
1.01595
 20
215.492
 11
0.788925
 21
215.393
  0
LINE
  8
0
 10
0.788925
 20
215.393
 11
0.552338
 21
215.319
  0
LINE
  8
0
 10
0.552338
 20
215.319
 11
0.309036
 21
215.271
  0
LINE
  8
0
 10
0.309036
 20
215.271
 11
0.0619965
 21
215.251
  0
LINE
  8
0
 10
0.0619965
 20
215.251
 11
-0.185791
 21
215.258
  0
LINE
  8
0
 10
-100.186
 20
215.258
 11
-100.431
 21
215.292
  0
LINE
  8
0
 10
-100.431
 20
215.292
 11
-100.672
 21
215.353
  0
LINE
  8
0
 10
-100.672
 20
215.353
 11
-100.904
 21
215.44
  0
LINE
  8
0
 10
-100.904
 20
215.44
 11
-101.125
 21
215.551
  0
LINE
  8
0
 10
-101.125
 20
215.551
 11
-101.333
 21
215.687
  0
LINE
  8
0
 10
-101.333
 20
215.687
 11
-101.524
 21
215.845
  0
LINE
  8
0
 10
-101.524
 20
215.845
 11
-101.697
 21
216.022
  0
LINE
  8
0
 10
-101.697
 20
216.022
 11
-101.849
 21
216.218
  0
LINE
  8
0
 10
-101.849
 20
216.218
 11
-101.979
 21
216.429
  0
LINE
  8
0
 10
-101.979
 20
216.429
 11
-102.085
 21
216.653
  0
LINE
  8
0
 10
-102.085
 20
216.653
 11
-102.165
 21
216.888
  0
LINE
  8
0
 10
-102.165
 20
216.888
 11
-102.219
 21
217.13
  0
LINE
  8
0
 10
-102.219
 20
217.13
 11
-102.247
 21
217.376
  0
LINE
  8
0
 10
-102.247
 20
217.376
 11
-102.247
 21
217.624
  0
LINE
  8
0
 10
-102.247
 20
217.624
 11
-102.219
 21
217.87
  0
LINE
  8
0
 10
-102.219
 20
217.87
 11
-102.165
 21
218.112
  0
LINE
  8
0
 10
-102.165
 20
218.112
 11
-102.085
 21
218.347
  0
LINE
  8
0
 10
-102.085
 20
218.347
 11
-101.979
 21
218.571
  0
LINE
  8
0
 10
-101.979
 20
218.571
 11
-101.849
 21
218.782
  0
LINE
  8
0
 10
-101.849
 20
218.782
 11
-101.697
 21
218.978
  0
LINE
  8
0
 10
-101.697
 20
218.978
 11
-101.524
 21
219.155
  0
LINE
  8
0
 10
-101.524
 20
219.155
 11
-101.333
 21
219.313
  0
LINE
  8
0
 10
-101.333
 20
219.313
 11
-101.125
 21
219.449
  0
LINE
  8
0
 10
-101.125
 20
219.449
 11
-100.904
 21
219.56
  0
LINE
  8
0
 10
-100.904
 20
219.56
 11
-100.672
 21
219.647
  0
LINE
  8
0
 10
-100.672
 20
219.647
 11
-100.431
 21
219.708
  0
LINE
  8
0
 10
-100.431
 20
219.708
 11
-100.186
 21
219.742
  0
LINE
  8
0
 10
-100.186
 20
219.742
 11
-99.938
 21
219.749
  0
LINE
  8
0
 10
-99.938
 20
219.749
 11
-99.6909
 21
219.729
  0
LINE
  8
0
 10
-99.6909
 20
219.729
 11
-99.4476
 21
219.681
  0
LINE
  8
0
 10
-99.4476
 20
219.681
 11
-99.2111
 21
219.607
  0
LINE
  8
0
 10
-99.2111
 20
219.607
 11
-98.984
 21
219.508
  0
LINE
  8
0
 10
-98.984
 20
219.508
 11
-98.7694
 21
219.384
  0
LINE
  8
0
 10
-98.7694
 20
219.384
 11
-98.5696
 21
219.237
  0
LINE
  8
0
 10
-98.5696
 20
219.237
 11
-98.3872
 21
219.069
  0
LINE
  8
0
 10
-98.3872
 20
219.069
 11
-98.2244
 21
218.882
  0
LINE
  8
0
 10
-98.2244
 20
218.882
 11
-98.0832
 21
218.678
  0
LINE
  8
0
 10
-98.0832
 20
218.678
 11
-97.9652
 21
218.46
  0
LINE
  8
0
 10
-97.9652
 20
218.46
 11
-97.8719
 21
218.231
  0
LINE
  8
0
 10
-97.8719
 20
218.231
 11
-97.8045
 21
217.992
  0
LINE
  8
0
 10
-97.8045
 20
217.992
 11
-97.7637
 21
217.748
  0
LINE
  8
0
 10
-97.7637
 20
217.748
 11
-97.75
 21
217.5
  0
LINE
  8
0
 10
-97.75
 20
217.5
 11
-97.7637
 21
217.252
  0
LINE
  8
0
 10
-97.7637
 20
217.252
 11
-97.8045
 21
217.008
  0
LINE
  8
0
 10
-97.8045
 20
217.008
 11
-97.8719
 21
216.769
  0
LINE
  8
0
 10
-97.8719
 20
216.769
 11
-97.9652
 21
216.54
  0
LINE
  8
0
 10
-97.9652
 20
216.54
 11
-98.0832
 21
216.322
  0
LINE
  8
0
 10
-98.0832
 20
216.322
 11
-98.2244
 21
216.118
  0
LINE
  8
0
 10
-98.2244
 20
216.118
 11
-98.3872
 21
215.931
  0
LINE
  8
0
 10
-98.3872
 20
215.931
 11
-98.5696
 21
215.763
  0
LINE
  8
0
 10
-98.5696
 20
215.763
 11
-98.7694
 21
215.616
  0
LINE
  8
0
 10
-98.7694
 20
215.616
 11
-98.984
 21
215.492
  0
LINE
  8
0
 10
-98.984
 20
215.492
 11
-99.2111
 21
215.393
  0
LINE
  8
0
 10
-99.2111
 20
215.393
 11
-99.4476
 21
215.319
  0
LINE
  8
0
 10
-99.4476
 20
215.319
 11
-99.6909
 21
215.271
  0
LINE
  8
0
 10
-99.6909
 20
215.271
 11
-99.938
 21
215.251
  0
LINE
  8
0
 10
-99.938
 20
215.251
 11
-100.186
 21
215.258
  0
LINE
  8
0
 10
-200.186
 20
215.258
 11
-200.431
 21
215.292
  0
LINE
  8
0
 10
-200.431
 20
215.292
 11
-200.672
 21
215.353
  0
LINE
  8
0
 10
-200.672
 20
215.353
 11
-200.904
 21
215.44
  0
LINE
  8
0
 10
-200.904
 20
215.44
 11
-201.125
 21
215.551
  0
LINE
  8
0
 10
-201.125
 20
215.551
 11
-201.333
 21
215.687
  0
LINE
  8
0
 10
-201.333
 20
215.687
 11
-201.524
 21
215.845
  0
LINE
  8
0
 10
-201.524
 20
215.845
 11
-201.697
 21
216.022
  0
LINE
  8
0
 10
-201.697
 20
216.022
 11
-201.849
 21
216.218
  0
LINE
  8
0
 10
-201.849
 20
216.218
 11
-201.979
 21
216.429
  0
LINE
  8
0
 10
-201.979
 20
216.429
 11
-202.085
 21
216.653
  0
LINE
  8
0
 10
-202.085
 20
216.653
 11
-202.165
 21
216.888
  0
LINE
  8
0
 10
-202.165
 20
216.888
 11
-202.219
 21
217.13
  0
LINE
  8
0
 10
-202.219
 20
217.13
 11
-202.247
 21
217.376
  0
LINE
  8
0
 10
-202.247
 20
217.376
 11
-202.247
 21
217.624
  0
LINE
  8
0
 10
-202.247
 20
217.624
 11
-202.219
 21
217.87
  0
LINE
  8
0
 10
-202.219
 20
217.87
 11
-202.165
 21
218.112
  0
LINE
  8
0
 10
-202.165
 20
218.112
 11
-202.085
 21
218.347
  0
LINE
  8
0
 10
-202.085
 20
218.347
 11
-201.979
 21
218.571
  0
LINE
  8
0
 10
-201.979
 20
218.571
 11
-201.849
 21
218.782
  0
LINE
  8
0
 10
-201.849
 20
218.782
 11
-201.697
 21
218.978
  0
LINE
  8
0
 10
-201.697
 20
218.978
 11
-201.524
 21
219.155
  0
LINE
  8
0
 10
-201.524
 20
219.155
 11
-201.333
 21
219.313
  0
LINE
  8
0
 10
-201.333
 20
219.313
 11
-201.125
 21
219.449
  0
LINE
  8
0
 10
-201.125
 20
219.449
 11
-200.904
 21
219.56
  0
LINE
  8
0
 10
-200.904
 20
219.56
 11
-200.672
 21
219.647
  0
LINE
  8
0
 10
-200.672
 20
219.647
 11
-200.431
 21
219.708
  0
LINE
  8
0
 10
-200.431
 20
219.708
 11
-200.186
 21
219.742
  0
LINE
  8
0
 10
-200.186
 20
219.742
 11
-199.938
 21
219.749
  0
LINE
  8
0
 10
-199.938
 20
219.749
 11
-199.691
 21
219.729
  0
LINE
  8
0
 10
-199.691
 20
219.729
 11
-199.448
 21
219.681
  0
LINE
  8
0
 10
-199.448
 20
219.681
 11
-199.211
 21
219.607
  0
LINE
  8
0
 10
-199.211
 20
219.607
 11
-198.984
 21
219.508
  0
LINE
  8
0
 10
-198.984
 20
219.508
 11
-198.769
 21
219.384
  0
LINE
  8
0
 10
-198.769
 20
219.384
 11
-198.57
 21
219.237
  0
LINE
  8
0
 10
-198.57
 20
219.237
 11
-198.387
 21
219.069
  0
LINE
  8
0
 10
-198.387
 20
219.069
 11
-198.224
 21
218.882
  0
LINE
  8
0
 10
-198.224
 20
218.882
 11
-198.083
 21
218.678
  0
LINE
  8
0
 10
-198.083
 20
218.678
 11
-197.965
 21
218.46
  0
LINE
  8
0
 10
-197.965
 20
218.46
 11
-197.872
 21
218.231
  0
LINE
  8
0
 10
-197.872
 20
218.231
 11
-197.804
 21
217.992
  0
LINE
  8
0
 10
-197.804
 20
217.992
 11
-197.764
 21
217.748
  0
LINE
  8
0
 10
-197.764
 20
217.748
 11
-197.75
 21
217.5
  0
LINE
  8
0
 10
-197.75
 20
217.5
 11
-197.764
 21
217.252
  0
LINE
  8
0
 10
-197.764
 20
217.252
 11
-197.804
 21
217.008
  0
LINE
  8
0
 10
-197.804
 20
217.008
 11
-197.872
 21
216.769
  0
LINE
  8
0
 10
-197.872
 20
216.769
 11
-197.965
 21
216.54
  0
LINE
  8
0
 10
-197.965
 20
216.54
 11
-198.083
 21
216.322
  0
LINE
  8
0
 10
-198.083
 20
216.322
 11
-198.224
 21
216.118
  0
LINE
  8
0
 10
-198.224
 20
216.118
 11
-198.387
 21
215.931
  0
LINE
  8
0
 10
-198.387
 20
215.931
 11
-198.57
 21
215.763
  0
LINE
  8
0
 10
-198.57
 20
215.763
 11
-198.769
 21
215.616
  0
LINE
  8
0
 10
-198.769
 20
215.616
 11
-198.984
 21
215.492
  0
LINE
  8
0
 10
-198.984
 20
215.492
 11
-199.211
 21
215.393
  0
LINE
  8
0
 10
-199.211
 20
215.393
 11
-199.448
 21
215.319
  0
LINE
  8
0
 10
-199.448
 20
215.319
 11
-199.691
 21
215.271
  0
LINE
  8
0
 10
-199.691
 20
215.271
 11
-199.938
 21
215.251
  0
LINE
  8
0
 10
-199.938
 20
215.251
 11
-200.186
 21
215.258
  0
LINE
  8
0
 10
99.8142
 20
215.258
 11
99.5686
 21
215.292
  0
LINE
  8
0
 10
99.5686
 20
215.292
 11
99.3283
 21
215.353
  0
LINE
  8
0
 10
99.3283
 20
215.353
 11
99.0962
 21
215.44
  0
LINE
  8
0
 10
99.0962
 20
215.44
 11
98.875
 21
215.551
  0
LINE
  8
0
 10
98.875
 20
215.551
 11
98.6675
 21
215.687
  0
LINE
  8
0
 10
98.6675
 20
215.687
 11
98.4761
 21
215.845
  0
LINE
  8
0
 10
98.4761
 20
215.845
 11
98.3033
 21
216.022
  0
LINE
  8
0
 10
98.3033
 20
216.022
 11
98.151
 21
216.218
  0
LINE
  8
0
 10
98.151
 20
216.218
 11
98.0212
 21
216.429
  0
LINE
  8
0
 10
98.0212
 20
216.429
 11
97.9154
 21
216.653
  0
LINE
  8
0
 10
97.9154
 20
216.653
 11
97.8349
 21
216.888
  0
LINE
  8
0
 10
97.8349
 20
216.888
 11
97.7807
 21
217.13
  0
LINE
  8
0
 10
97.7807
 20
217.13
 11
97.7534
 21
217.376
  0
LINE
  8
0
 10
97.7534
 20
217.376
 11
97.7534
 21
217.624
  0
LINE
  8
0
 10
97.7534
 20
217.624
 11
97.7807
 21
217.87
  0
LINE
  8
0
 10
97.7807
 20
217.87
 11
97.8349
 21
218.112
  0
LINE
  8
0
 10
97.8349
 20
218.112
 11
97.9154
 21
218.347
  0
LINE
  8
0
 10
97.9154
 20
218.347
 11
98.0212
 21
218.571
  0
LINE
  8
0
 10
98.0212
 20
218.571
 11
98.151
 21
218.782
  0
LINE
  8
0
 10
98.151
 20
218.782
 11
98.3033
 21
218.978
  0
LINE
  8
0
 10
98.3033
 20
218.978
 11
98.4761
 21
219.155
  0
LINE
  8
0
 10
98.4761
 20
219.155
 11
98.6675
 21
219.313
  0
LINE
  8
0
 10
98.6675
 20
219.313
 11
98.875
 21
219.449
  0
LINE
  8
0
 10
98.875
 20
219.449
 11
99.0962
 21
219.56
  0
LINE
  8
0
 10
99.0962
 20
219.56
 11
99.3283
 21
219.647
  0
LINE
  8
0
 10
99.3283
 20
219.647
 11
99.5686
 21
219.708
  0
LINE
  8
0
 10
99.5686
 20
219.708
 11
99.8142
 21
219.742
  0
LINE
  8
0
 10
99.8142
 20
219.742
 11
100.062
 21
219.749
  0
LINE
  8
0
 10
100.062
 20
219.749
 11
100.309
 21
219.729
  0
LINE
  8
0
 10
100.309
 20
219.729
 11
100.552
 21
219.681
  0
LINE
  8
0
 10
100.552
 20
219.681
 11
100.789
 21
219.607
  0
LINE
  8
0
 10
100.789
 20
219.607
 11
101.016
 21
219.508
  0
LINE
  8
0
 10
101.016
 20
219.508
 11
101.231
 21
219.384
  0
LINE
  8
0
 10
101.231
 20
219.384
 11
101.43
 21
219.237
  0
LINE
  8
0
 10
101.43
 20
219.237
 11
101.613
 21
219.069
  0
LINE
  8
0
 10
101.613
 20
219.069
 11
101.776
 21
218.882
  0
LINE
  8
0
 10
101.776
 20
218.882
 11
101.917
 21
218.678
  0
LINE
  8
0
 10
101.917
 20
218.678
 11
102.035
 21
218.46
  0
LINE
  8
0
 10
102.035
 20
218.46
 11
102.128
 21
218.231
  0
LINE
  8
0
 10
102.128
 20
218.231
 11
102.196
 21
217.992
  0
LINE
  8
0
 10
102.196
 20
217.992
 11
102.236
 21
217.748
  0
LINE
  8
0
 10
102.236
 20
217.748
 11
102.25
 21
217.5
  0
LINE
  8
0
 10
102.25
 20
217.5
 11
102.236
 21
217.252
  0
LINE
  8
0
 10
102.236
 20
217.252
 11
102.196
 21
217.008
  0
LINE
  8
0
 10
102.196
 20
217.008
 11
102.128
 21
216.769
  0
LINE
  8
0
 10
102.128
 20
216.769
 11
102.035
 21
216.54
  0
LINE
  8
0
 10
102.035
 20
216.54
 11
101.917
 21
216.322
  0
LINE
  8
0
 10
101.917
 20
216.322
 11
101.776
 21
216.118
  0
LINE
  8
0
 10
101.776
 20
216.118
 11
101.613
 21
215.931
  0
LINE
  8
0
 10
101.613
 20
215.931
 11
101.43
 21
215.763
  0
LINE
  8
0
 10
101.43
 20
215.763
 11
101.231
 21
215.616
  0
LINE
  8
0
 10
101.231
 20
215.616
 11
101.016
 21
215.492
  0
LINE
  8
0
 10
101.016
 20
215.492
 11
100.789
 21
215.393
  0
LINE
  8
0
 10
100.789
 20
215.393
 11
100.552
 21
215.319
  0
LINE
  8
0
 10
100.552
 20
215.319
 11
100.309
 21
215.271
  0
LINE
  8
0
 10
100.309
 20
215.271
 11
100.062
 21
215.251
  0
LINE
  8
0
 10
100.062
 20
215.251
 11
99.8142
 21
215.258
  0
LINE
  8
0
 10
-240.309
 20
175.271
 11
-240.552
 21
175.319
  0
LINE
  8
0
 10
-240.552
 20
175.319
 11
-240.789
 21
175.393
  0
LINE
  8
0
 10
-240.789
 20
175.393
 11
-241.016
 21
175.492
  0
LINE
  8
0
 10
-241.016
 20
175.492
 11
-241.231
 21
175.616
  0
LINE
  8
0
 10
-241.231
 20
175.616
 11
-241.43
 21
175.763
  0
LINE
  8
0
 10
-241.43
 20
175.763
 11
-241.613
 21
175.931
  0
LINE
  8
0
 10
-241.613
 20
175.931
 11
-241.776
 21
176.118
  0
LINE
  8
0
 10
-241.776
 20
176.118
 11
-241.917
 21
176.322
  0
LINE
  8
0
 10
-241.917
 20
176.322
 11
-242.035
 21
176.54
  0
LINE
  8
0
 10
-242.035
 20
176.54
 11
-242.128
 21
176.769
  0
LINE
  8
0
 10
-242.128
 20
176.769
 11
-242.196
 21
177.008
  0
LINE
  8
0
 10
-242.196
 20
177.008
 11
-242.236
 21
177.252
  0
LINE
  8
0
 10
-242.236
 20
177.252
 11
-242.25
 21
177.5
  0
LINE
  8
0
 10
-242.25
 20
177.5
 11
-242.236
 21
177.748
  0
LINE
  8
0
 10
-242.236
 20
177.748
 11
-242.196
 21
177.992
  0
LINE
  8
0
 10
-242.196
 20
177.992
 11
-242.128
 21
178.231
  0
LINE
  8
0
 10
-242.128
 20
178.231
 11
-242.035
 21
178.46
  0
LINE
  8
0
 10
-242.035
 20
178.46
 11
-241.917
 21
178.678
  0
LINE
  8
0
 10
-241.917
 20
178.678
 11
-241.776
 21
178.882
  0
LINE
  8
0
 10
-241.776
 20
178.882
 11
-241.613
 21
179.069
  0
LINE
  8
0
 10
-241.613
 20
179.069
 11
-241.43
 21
179.237
  0
LINE
  8
0
 10
-241.43
 20
179.237
 11
-241.231
 21
179.384
  0
LINE
  8
0
 10
-241.231
 20
179.384
 11
-241.016
 21
179.508
  0
LINE
  8
0
 10
-241.016
 20
179.508
 11
-240.789
 21
179.607
  0
LINE
  8
0
 10
-240.789
 20
179.607
 11
-240.552
 21
179.681
  0
LINE
  8
0
 10
-240.552
 20
179.681
 11
-240.309
 21
179.729
  0
LINE
  8
0
 10
-240.309
 20
179.729
 11
-240.062
 21
179.749
  0
LINE
  8
0
 10
-240.062
 20
179.749
 11
-239.814
 21
179.742
  0
LINE
  8
0
 10
-239.814
 20
179.742
 11
-239.569
 21
179.708
  0
LINE
  8
0
 10
-239.569
 20
179.708
 11
-239.328
 21
179.647
  0
LINE
  8
0
 10
-239.328
 20
179.647
 11
-239.096
 21
179.56
  0
LINE
  8
0
 10
-239.096
 20
179.56
 11
-238.875
 21
179.449
  0
LINE
  8
0
 10
-238.875
 20
179.449
 11
-238.667
 21
179.313
  0
LINE
  8
0
 10
-238.667
 20
179.313
 11
-238.476
 21
179.155
  0
LINE
  8
0
 10
-238.476
 20
179.155
 11
-238.303
 21
178.978
  0
LINE
  8
0
 10
-238.303
 20
178.978
 11
-238.151
 21
178.782
  0
LINE
  8
0
 10
-238.151
 20
178.782
 11
-238.021
 21
178.571
  0
LINE
  8
0
 10
-238.021
 20
178.571
 11
-237.915
 21
178.347
  0
LINE
  8
0
 10
-237.915
 20
178.347
 11
-237.835
 21
178.112
  0
LINE
  8
0
 10
-237.835
 20
178.112
 11
-237.781
 21
177.87
  0
LINE
  8
0
 10
-237.781
 20
177.87
 11
-237.753
 21
177.624
  0
LINE
  8
0
 10
-237.753
 20
177.624
 11
-237.753
 21
177.376
  0
LINE
  8
0
 10
-237.753
 20
177.376
 11
-237.781
 21
177.13
  0
LINE
  8
0
 10
-237.781
 20
177.13
 11
-237.835
 21
176.888
  0
LINE
  8
0
 10
-237.835
 20
176.888
 11
-237.915
 21
176.653
  0
LINE
  8
0
 10
-237.915
 20
176.653
 11
-238.021
 21
176.429
  0
LINE
  8
0
 10
-238.021
 20
176.429
 11
-238.151
 21
176.218
  0
LINE
  8
0
 10
-238.151
 20
176.218
 11
-238.303
 21
176.022
  0
LINE
  8
0
 10
-238.303
 20
176.022
 11
-238.476
 21
175.845
  0
LINE
  8
0
 10
-238.476
 20
175.845
 11
-238.667
 21
175.687
  0
LINE
  8
0
 10
-238.667
 20
175.687
 11
-238.875
 21
175.551
  0
LINE
  8
0
 10
-238.875
 20
175.551
 11
-239.096
 21
175.44
  0
LINE
  8
0
 10
-239.096
 20
175.44
 11
-239.328
 21
175.353
  0
LINE
  8
0
 10
-239.328
 20
175.353
 11
-239.569
 21
175.292
  0
LINE
  8
0
 10
-239.569
 20
175.292
 11
-239.814
 21
175.258
  0
LINE
  8
0
 10
-239.814
 20
175.258
 11
-240.062
 21
175.251
  0
LINE
  8
0
 10
-240.062
 20
175.251
 11
-240.309
 21
175.271
  0
LINE
  8
0
 10
239.814
 20
175.258
 11
239.569
 21
175.292
  0
LINE
  8
0
 10
239.569
 20
175.292
 11
239.328
 21
175.353
  0
LINE
  8
0
 10
239.328
 20
175.353
 11
239.096
 21
175.44
  0
LINE
  8
0
 10
239.096
 20
175.44
 11
238.875
 21
175.551
  0
LINE
  8
0
 10
238.875
 20
175.551
 11
238.667
 21
175.687
  0
LINE
  8
0
 10
238.667
 20
175.687
 11
238.476
 21
175.845
  0
LINE
  8
0
 10
238.476
 20
175.845
 11
238.303
 21
176.022
  0
LINE
  8
0
 10
238.303
 20
176.022
 11
238.151
 21
176.218
  0
LINE
  8
0
 10
238.151
 20
176.218
 11
238.021
 21
176.429
  0
LINE
  8
0
 10
238.021
 20
176.429
 11
237.915
 21
176.653
  0
LINE
  8
0
 10
237.915
 20
176.653
 11
237.835
 21
176.888
  0
LINE
  8
0
 10
237.835
 20
176.888
 11
237.781
 21
177.13
  0
LINE
  8
0
 10
237.781
 20
177.13
 11
237.753
 21
177.376
  0
LINE
  8
0
 10
237.753
 20
177.376
 11
237.753
 21
177.624
  0
LINE
  8
0
 10
237.753
 20
177.624
 11
237.781
 21
177.87
  0
LINE
  8
0
 10
237.781
 20
177.87
 11
237.835
 21
178.112
  0
LINE
  8
0
 10
237.835
 20
178.112
 11
237.915
 21
178.347
  0
LINE
  8
0
 10
237.915
 20
178.347
 11
238.021
 21
178.571
  0
LINE
  8
0
 10
238.021
 20
178.571
 11
238.151
 21
178.782
  0
LINE
  8
0
 10
238.151
 20
178.782
 11
238.303
 21
178.978
  0
LINE
  8
0
 10
238.303
 20
178.978
 11
238.476
 21
179.155
  0
LINE
  8
0
 10
238.476
 20
179.155
 11
238.667
 21
179.313
  0
LINE
  8
0
 10
238.667
 20
179.313
 11
238.875
 21
179.449
  0
LINE
  8
0
 10
238.875
 20
179.449
 11
239.096
 21
179.56
  0
LINE
  8
0
 10
239.096
 20
179.56
 11
239.328
 21
179.647
  0
LINE
  8
0
 10
239.328
 20
179.647
 11
239.569
 21
179.708
  0
LINE
  8
0
 10
239.569
 20
179.708
 11
239.814
 21
179.742
  0
LINE
  8
0
 10
239.814
 20
179.742
 11
240.062
 21
179.749
  0
LINE
  8
0
 10
240.062
 20
179.749
 11
240.309
 21
179.729
  0
LINE
  8
0
 10
240.309
 20
179.729
 11
240.552
 21
179.681
  0
LINE
  8
0
 10
240.552
 20
179.681
 11
240.789
 21
179.607
  0
LINE
  8
0
 10
240.789
 20
179.607
 11
241.016
 21
179.508
  0
LINE
  8
0
 10
241.016
 20
179.508
 11
241.231
 21
179.384
  0
LINE
  8
0
 10
241.231
 20
179.384
 11
241.43
 21
179.237
  0
LINE
  8
0
 10
241.43
 20
179.237
 11
241.613
 21
179.069
  0
LINE
  8
0
 10
241.613
 20
179.069
 11
241.776
 21
178.882
  0
LINE
  8
0
 10
241.776
 20
178.882
 11
241.917
 21
178.678
  0
LINE
  8
0
 10
241.917
 20
178.678
 11
242.035
 21
178.46
  0
LINE
  8
0
 10
242.035
 20
178.46
 11
242.128
 21
178.231
  0
LINE
  8
0
 10
242.128
 20
178.231
 11
242.196
 21
177.992
  0
LINE
  8
0
 10
242.196
 20
177.992
 11
242.236
 21
177.748
  0
LINE
  8
0
 10
242.236
 20
177.748
 11
242.25
 21
177.5
  0
LINE
  8
0
 10
242.25
 20
177.5
 11
242.236
 21
177.252
  0
LINE
  8
0
 10
242.236
 20
177.252
 11
242.196
 21
177.008
  0
LINE
  8
0
 10
242.196
 20
177.008
 11
242.128
 21
176.769
  0
LINE
  8
0
 10
242.128
 20
176.769
 11
242.035
 21
176.54
  0
LINE
  8
0
 10
242.035
 20
176.54
 11
241.917
 21
176.322
  0
LINE
  8
0
 10
241.917
 20
176.322
 11
241.776
 21
176.118
  0
LINE
  8
0
 10
241.776
 20
176.118
 11
241.613
 21
175.931
  0
LINE
  8
0
 10
241.613
 20
175.931
 11
241.43
 21
175.763
  0
LINE
  8
0
 10
241.43
 20
175.763
 11
241.231
 21
175.616
  0
LINE
  8
0
 10
241.231
 20
175.616
 11
241.016
 21
175.492
  0
LINE
  8
0
 10
241.016
 20
175.492
 11
240.789
 21
175.393
  0
LINE
  8
0
 10
240.789
 20
175.393
 11
240.552
 21
175.319
  0
LINE
  8
0
 10
240.552
 20
175.319
 11
240.309
 21
175.271
  0
LINE
  8
0
 10
240.309
 20
175.271
 11
240.062
 21
175.251
  0
LINE
  8
0
 10
240.062
 20
175.251
 11
239.814
 21
175.258
  0
LINE
  8
0
 10
-240.309
 20
86.5213
 11
-240.552
 21
86.5688
  0
LINE
  8
0
 10
-240.552
 20
86.5688
 11
-240.789
 21
86.6429
  0
LINE
  8
0
 10
-240.789
 20
86.6429
 11
-241.016
 21
86.7424
  0
LINE
  8
0
 10
-241.016
 20
86.7424
 11
-241.231
 21
86.8664
  0
LINE
  8
0
 10
-241.231
 20
86.8664
 11
-241.43
 21
87.0132
  0
LINE
  8
0
 10
-241.43
 20
87.0132
 11
-241.613
 21
87.1811
  0
LINE
  8
0
 10
-241.613
 20
87.1811
 11
-241.776
 21
87.368
  0
LINE
  8
0
 10
-241.776
 20
87.368
 11
-241.917
 21
87.5717
  0
LINE
  8
0
 10
-241.917
 20
87.5717
 11
-242.035
 21
87.7897
  0
LINE
  8
0
 10
-242.035
 20
87.7897
 11
-242.128
 21
88.0194
  0
LINE
  8
0
 10
-242.128
 20
88.0194
 11
-242.196
 21
88.258
  0
LINE
  8
0
 10
-242.196
 20
88.258
 11
-242.236
 21
88.5025
  0
LINE
  8
0
 10
-242.236
 20
88.5025
 11
-242.25
 21
88.75
  0
LINE
  8
0
 10
-242.25
 20
88.75
 11
-242.236
 21
88.9975
  0
LINE
  8
0
 10
-242.236
 20
88.9975
 11
-242.196
 21
89.242
  0
LINE
  8
0
 10
-242.196
 20
89.242
 11
-242.128
 21
89.4806
  0
LINE
  8
0
 10
-242.128
 20
89.4806
 11
-242.035
 21
89.7102
  0
LINE
  8
0
 10
-242.035
 20
89.7102
 11
-241.917
 21
89.9283
  0
LINE
  8
0
 10
-241.917
 20
89.9283
 11
-241.776
 21
90.132
  0
LINE
  8
0
 10
-241.776
 20
90.132
 11
-241.613
 21
90.3189
  0
LINE
  8
0
 10
-241.613
 20
90.3189
 11
-241.43
 21
90.4868
  0
LINE
  8
0
 10
-241.43
 20
90.4868
 11
-241.231
 21
90.6336
  0
LINE
  8
0
 10
-241.231
 20
90.6336
 11
-241.016
 21
90.7576
  0
LINE
  8
0
 10
-241.016
 20
90.7576
 11
-240.789
 21
90.8571
  0
LINE
  8
0
 10
-240.789
 20
90.8571
 11
-240.552
 21
90.9312
  0
LINE
  8
0
 10
-240.552
 20
90.9312
 11
-240.309
 21
90.9787
  0
LINE
  8
0
 10
-240.309
 20
90.9787
 11
-240.062
 21
90.9991
  0
LINE
  8
0
 10
-240.062
 20
90.9991
 11
-239.814
 21
90.9923
  0
LINE
  8
0
 10
-239.814
 20
90.9923
 11
-239.569
 21
90.9583
  0
LINE
  8
0
 10
-239.569
 20
90.9583
 11
-239.328
 21
90.8974
  0
LINE
  8
0
 10
-239.328
 20
90.8974
 11
-239.096
 21
90.8105
  0
LINE
  8
0
 10
-239.096
 20
90.8105
 11
-238.875
 21
90.6985
  0
LINE
  8
0
 10
-238.875
 20
90.6985
 11
-238.667
 21
90.563
  0
LINE
  8
0
 10
-238.667
 20
90.563
 11
-238.476
 21
90.4054
  0
LINE
  8
0
 10
-238.476
 20
90.4054
 11
-238.303
 21
90.2277
  0
LINE
  8
0
 10
-238.303
 20
90.2277
 11
-238.151
 21
90.0321
  0
LINE
  8
0
 10
-238.151
 20
90.0321
 11
-238.021
 21
89.8209
  0
LINE
  8
0
 10
-238.021
 20
89.8209
 11
-237.915
 21
89.5967
  0
LINE
  8
0
 10
-237.915
 20
89.5967
 11
-237.835
 21
89.3622
  0
LINE
  8
0
 10
-237.835
 20
89.3622
 11
-237.781
 21
89.1203
  0
LINE
  8
0
 10
-237.781
 20
89.1203
 11
-237.753
 21
88.8739
  0
LINE
  8
0
 10
-237.753
 20
88.8739
 11
-237.753
 21
88.6261
  0
LINE
  8
0
 10
-237.753
 20
88.6261
 11
-237.781
 21
88.3797
  0
LINE
  8
0
 10
-237.781
 20
88.3797
 11
-237.835
 21
88.1378
  0
LINE
  8
0
 10
-237.835
 20
88.1378
 11
-237.915
 21
87.9033
  0
LINE
  8
0
 10
-237.915
 20
87.9033
 11
-238.021
 21
87.6791
  0
LINE
  8
0
 10
-238.021
 20
87.6791
 11
-238.151
 21
87.4679
  0
LINE
  8
0
 10
-238.151
 20
87.4679
 11
-238.303
 21
87.2723
  0
LINE
  8
0
 10
-238.303
 20
87.2723
 11
-238.476
 21
87.0946
  0
LINE
  8
0
 10
-238.476
 20
87.0946
 11
-238.667
 21
86.937
  0
LINE
  8
0
 10
-238.667
 20
86.937
 11
-238.875
 21
86.8014
  0
LINE
  8
0
 10
-238.875
 20
86.8014
 11
-239.096
 21
86.6895
  0
LINE
  8
0
 10
-239.096
 20
86.6895
 11
-239.328
 21
86.6026
  0
LINE
  8
0
 10
-239.328
 20
86.6026
 11
-239.569
 21
86.5417
  0
LINE
  8
0
 10
-239.569
 20
86.5417
 11
-239.814
 21
86.5077
  0
LINE
  8
0
 10
-239.814
 20
86.5077
 11
-240.062
 21
86.5009
  0
LINE
  8
0
 10
-240.062
 20
86.5009
 11
-240.309
 21
86.5213
  0
LINE
  8
0
 10
239.814
 20
86.5077
 11
239.569
 21
86.5417
  0
LINE
  8
0
 10
239.569
 20
86.5417
 11
239.328
 21
86.6026
  0
LINE
  8
0
 10
239.328
 20
86.6026
 11
239.096
 21
86.6895
  0
LINE
  8
0
 10
239.096
 20
86.6895
 11
238.875
 21
86.8014
  0
LINE
  8
0
 10
238.875
 20
86.8014
 11
238.667
 21
86.937
  0
LINE
  8
0
 10
238.667
 20
86.937
 11
238.476
 21
87.0946
  0
LINE
  8
0
 10
238.476
 20
87.0946
 11
238.303
 21
87.2723
  0
LINE
  8
0
 10
238.303
 20
87.2723
 11
238.151
 21
87.4679
  0
LINE
  8
0
 10
238.151
 20
87.4679
 11
238.021
 21
87.6791
  0
LINE
  8
0
 10
238.021
 20
87.6791
 11
237.915
 21
87.9033
  0
LINE
  8
0
 10
237.915
 20
87.9033
 11
237.835
 21
88.1378
  0
LINE
  8
0
 10
237.835
 20
88.1378
 11
237.781
 21
88.3797
  0
LINE
  8
0
 10
237.781
 20
88.3797
 11
237.753
 21
88.6261
  0
LINE
  8
0
 10
237.753
 20
88.6261
 11
237.753
 21
88.8739
  0
LINE
  8
0
 10
237.753
 20
88.8739
 11
237.781
 21
89.1203
  0
LINE
  8
0
 10
237.781
 20
89.1203
 11
237.835
 21
89.3622
  0
LINE
  8
0
 10
237.835
 20
89.3622
 11
237.915
 21
89.5967
  0
LINE
  8
0
 10
237.915
 20
89.5967
 11
238.021
 21
89.8209
  0
LINE
  8
0
 10
238.021
 20
89.8209
 11
238.151
 21
90.0321
  0
LINE
  8
0
 10
238.151
 20
90.0321
 11
238.303
 21
90.2277
  0
LINE
  8
0
 10
238.303
 20
90.2277
 11
238.476
 21
90.4054
  0
LINE
  8
0
 10
238.476
 20
90.4054
 11
238.667
 21
90.563
  0
LINE
  8
0
 10
238.667
 20
90.563
 11
238.875
 21
90.6985
  0
LINE
  8
0
 10
238.875
 20
90.6985
 11
239.096
 21
90.8105
  0
LINE
  8
0
 10
239.096
 20
90.8105
 11
239.328
 21
90.8974
  0
LINE
  8
0
 10
239.328
 20
90.8974
 11
239.569
 21
90.9583
  0
LINE
  8
0
 10
239.569
 20
90.9583
 11
239.814
 21
90.9923
  0
LINE
  8
0
 10
239.814
 20
90.9923
 11
240.062
 21
90.9991
  0
LINE
  8
0
 10
240.062
 20
90.9991
 11
240.309
 21
90.9787
  0
LINE
  8
0
 10
240.309
 20
90.9787
 11
240.552
 21
90.9312
  0
LINE
  8
0
 10
240.552
 20
90.9312
 11
240.789
 21
90.8571
  0
LINE
  8
0
 10
240.789
 20
90.8571
 11
241.016
 21
90.7576
  0
LINE
  8
0
 10
241.016
 20
90.7576
 11
241.231
 21
90.6336
  0
LINE
  8
0
 10
241.231
 20
90.6336
 11
241.43
 21
90.4868
  0
LINE
  8
0
 10
241.43
 20
90.4868
 11
241.613
 21
90.3189
  0
LINE
  8
0
 10
241.613
 20
90.3189
 11
241.776
 21
90.132
  0
LINE
  8
0
 10
241.776
 20
90.132
 11
241.917
 21
89.9283
  0
LINE
  8
0
 10
241.917
 20
89.9283
 11
242.035
 21
89.7102
  0
LINE
  8
0
 10
242.035
 20
89.7102
 11
242.128
 21
89.4806
  0
LINE
  8
0
 10
242.128
 20
89.4806
 11
242.196
 21
89.242
  0
LINE
  8
0
 10
242.196
 20
89.242
 11
242.236
 21
88.9975
  0
LINE
  8
0
 10
242.236
 20
88.9975
 11
242.25
 21
88.75
  0
LINE
  8
0
 10
242.25
 20
88.75
 11
242.236
 21
88.5025
  0
LINE
  8
0
 10
242.236
 20
88.5025
 11
242.196
 21
88.258
  0
LINE
  8
0
 10
242.196
 20
88.258
 11
242.128
 21
88.0194
  0
LINE
  8
0
 10
242.128
 20
88.0194
 11
242.035
 21
87.7897
  0
LINE
  8
0
 10
242.035
 20
87.7897
 11
241.917
 21
87.5717
  0
LINE
  8
0
 10
241.917
 20
87.5717
 11
241.776
 21
87.368
  0
LINE
  8
0
 10
241.776
 20
87.368
 11
241.613
 21
87.1811
  0
LINE
  8
0
 10
241.613
 20
87.1811
 11
241.43
 21
87.0132
  0
LINE
  8
0
 10
241.43
 20
87.0132
 11
241.231
 21
86.8664
  0
LINE
  8
0
 10
241.231
 20
86.8664
 11
241.016
 21
86.7424
  0
LINE
  8
0
 10
241.016
 20
86.7424
 11
240.789
 21
86.6429
  0
LINE
  8
0
 10
240.789
 20
86.6429
 11
240.552
 21
86.5688
  0
LINE
  8
0
 10
240.552
 20
86.5688
 11
240.309
 21
86.5213
  0
LINE
  8
0
 10
240.309
 20
86.5213
 11
240.062
 21
86.5009
  0
LINE
  8
0
 10
240.062
 20
86.5009
 11
239.814
 21
86.5077
  0
LINE
  8
0
 10
239.814
 20
-2.24231
 11
239.569
 21
-2.20825
  0
LINE
  8
0
 10
239.569
 20
-2.20825
 11
239.328
 21
-2.1474
  0
LINE
  8
0
 10
239.328
 20
-2.1474
 11
239.096
 21
-2.06049
  0
LINE
  8
0
 10
239.096
 20
-2.06049
 11
238.875
 21
-1.94855
  0
LINE
  8
0
 10
238.875
 20
-1.94855
 11
238.667
 21
-1.81296
  0
LINE
  8
0
 10
238.667
 20
-1.81296
 11
238.476
 21
-1.65536
  0
LINE
  8
0
 10
238.476
 20
-1.65536
 11
238.303
 21
-1.47769
  0
LINE
  8
0
 10
238.303
 20
-1.47769
 11
238.151
 21
-1.28206
  0
LINE
  8
0
 10
238.151
 20
-1.28206
 11
238.021
 21
-1.07088
  0
LINE
  8
0
 10
238.021
 20
-1.07088
 11
237.915
 21
-0.846695
  0
LINE
  8
0
 10
237.915
 20
-0.846695
 11
237.835
 21
-0.612228
  0
LINE
  8
0
 10
237.835
 20
-0.612228
 11
237.781
 21
-0.370331
  0
LINE
  8
0
 10
237.781
 20
-0.370331
 11
237.753
 21
-0.123947
  0
LINE
  8
0
 10
237.753
 20
-0.123947
 11
237.753
 21
0.123947
  0
LINE
  8
0
 10
237.753
 20
0.123947
 11
237.781
 21
0.370331
  0
LINE
  8
0
 10
237.781
 20
0.370331
 11
237.835
 21
0.612228
  0
LINE
  8
0
 10
237.835
 20
0.612228
 11
237.915
 21
0.846695
  0
LINE
  8
0
 10
237.915
 20
0.846695
 11
238.021
 21
1.07088
  0
LINE
  8
0
 10
238.021
 20
1.07088
 11
238.151
 21
1.28206
  0
LINE
  8
0
 10
238.151
 20
1.28206
 11
238.303
 21
1.47769
  0
LINE
  8
0
 10
238.303
 20
1.47769
 11
238.476
 21
1.65536
  0
LINE
  8
0
 10
238.476
 20
1.65536
 11
238.667
 21
1.81296
  0
LINE
  8
0
 10
238.667
 20
1.81296
 11
238.875
 21
1.94855
  0
LINE
  8
0
 10
238.875
 20
1.94855
 11
239.096
 21
2.06049
  0
LINE
  8
0
 10
239.096
 20
2.06049
 11
239.328
 21
2.1474
  0
LINE
  8
0
 10
239.328
 20
2.1474
 11
239.569
 21
2.20825
  0
LINE
  8
0
 10
239.569
 20
2.20825
 11
239.814
 21
2.24231
  0
LINE
  8
0
 10
239.814
 20
2.24231
 11
240.062
 21
2.24915
  0
LINE
  8
0
 10
240.062
 20
2.24915
 11
240.309
 21
2.22867
  0
LINE
  8
0
 10
240.309
 20
2.22867
 11
240.552
 21
2.18114
  0
LINE
  8
0
 10
240.552
 20
2.18114
 11
240.789
 21
2.10715
  0
LINE
  8
0
 10
240.789
 20
2.10715
 11
241.016
 21
2.00757
  0
LINE
  8
0
 10
241.016
 20
2.00757
 11
241.231
 21
1.88362
  0
LINE
  8
0
 10
241.231
 20
1.88362
 11
241.43
 21
1.7368
  0
LINE
  8
0
 10
241.43
 20
1.7368
 11
241.613
 21
1.56891
  0
LINE
  8
0
 10
241.613
 20
1.56891
 11
241.776
 21
1.38197
  0
LINE
  8
0
 10
241.776
 20
1.38197
 11
241.917
 21
1.17825
  0
LINE
  8
0
 10
241.917
 20
1.17825
 11
242.035
 21
0.960236
  0
LINE
  8
0
 10
242.035
 20
0.960236
 11
242.128
 21
0.73056
  0
LINE
  8
0
 10
242.128
 20
0.73056
 11
242.196
 21
0.49202
  0
LINE
  8
0
 10
242.196
 20
0.49202
 11
242.236
 21
0.247513
  0
LINE
  8
0
 10
242.236
 20
0.247513
 11
242.25
 21
0
  0
LINE
  8
0
 10
242.25
 20
0
 11
242.236
 21
-0.247513
  0
LINE
  8
0
 10
242.236
 20
-0.247513
 11
242.196
 21
-0.49202
  0
LINE
  8
0
 10
242.196
 20
-0.49202
 11
242.128
 21
-0.73056
  0
LINE
  8
0
 10
242.128
 20
-0.73056
 11
242.035
 21
-0.960236
  0
LINE
  8
0
 10
242.035
 20
-0.960236
 11
241.917
 21
-1.17825
  0
LINE
  8
0
 10
241.917
 20
-1.17825
 11
241.776
 21
-1.38197
  0
LINE
  8
0
 10
241.776
 20
-1.38197
 11
241.613
 21
-1.56891
  0
LINE
  8
0
 10
241.613
 20
-1.56891
 11
241.43
 21
-1.7368
  0
LINE
  8
0
 10
241.43
 20
-1.7368
 11
241.231
 21
-1.88362
  0
LINE
  8
0
 10
241.231
 20
-1.88362
 11
241.016
 21
-2.00757
  0
LINE
  8
0
 10
241.016
 20
-2.00757
 11
240.789
 21
-2.10715
  0
LINE
  8
0
 10
240.789
 20
-2.10715
 11
240.552
 21
-2.18114
  0
LINE
  8
0
 10
240.552
 20
-2.18114
 11
240.309
 21
-2.22867
  0
LINE
  8
0
 10
240.309
 20
-2.22867
 11
240.062
 21
-2.24915
  0
LINE
  8
0
 10
240.062
 20
-2.24915
 11
239.814
 21
-2.24231
  0
LINE
  8
0
 10
-240.309
 20
-2.22867
 11
-240.552
 21
-2.18114
  0
LINE
  8
0
 10
-240.552
 20
-2.18114
 11
-240.789
 21
-2.10715
  0
LINE
  8
0
 10
-240.789
 20
-2.10715
 11
-241.016
 21
-2.00757
  0
LINE
  8
0
 10
-241.016
 20
-2.00757
 11
-241.231
 21
-1.88362
  0
LINE
  8
0
 10
-241.231
 20
-1.88362
 11
-241.43
 21
-1.7368
  0
LINE
  8
0
 10
-241.43
 20
-1.7368
 11
-241.613
 21
-1.56891
  0
LINE
  8
0
 10
-241.613
 20
-1.56891
 11
-241.776
 21
-1.38197
  0
LINE
  8
0
 10
-241.776
 20
-1.38197
 11
-241.917
 21
-1.17825
  0
LINE
  8
0
 10
-241.917
 20
-1.17825
 11
-242.035
 21
-0.960236
  0
LINE
  8
0
 10
-242.035
 20
-0.960236
 11
-242.128
 21
-0.73056
  0
LINE
  8
0
 10
-242.128
 20
-0.73056
 11
-242.196
 21
-0.49202
  0
LINE
  8
0
 10
-242.196
 20
-0.49202
 11
-242.236
 21
-0.247513
  0
LINE
  8
0
 10
-242.236
 20
-0.247513
 11
-242.25
 21
0
  0
LINE
  8
0
 10
-242.25
 20
0
 11
-242.236
 21
0.247513
  0
LINE
  8
0
 10
-242.236
 20
0.247513
 11
-242.196
 21
0.49202
  0
LINE
  8
0
 10
-242.196
 20
0.49202
 11
-242.128
 21
0.73056
  0
LINE
  8
0
 10
-242.128
 20
0.73056
 11
-242.035
 21
0.960236
  0
LINE
  8
0
 10
-242.035
 20
0.960236
 11
-241.917
 21
1.17825
  0
LINE
  8
0
 10
-241.917
 20
1.17825
 11
-241.776
 21
1.38197
  0
LINE
  8
0
 10
-241.776
 20
1.38197
 11
-241.613
 21
1.56891
  0
LINE
  8
0
 10
-241.613
 20
1.56891
 11
-241.43
 21
1.7368
  0
LINE
  8
0
 10
-241.43
 20
1.7368
 11
-241.231
 21
1.88362
  0
LINE
  8
0
 10
-241.231
 20
1.88362
 11
-241.016
 21
2.00757
  0
LINE
  8
0
 10
-241.016
 20
2.00757
 11
-240.789
 21
2.10715
  0
LINE
  8
0
 10
-240.789
 20
2.10715
 11
-240.552
 21
2.18114
  0
LINE
  8
0
 10
-240.552
 20
2.18114
 11
-240.309
 21
2.22867
  0
LINE
  8
0
 10
-240.309
 20
2.22867
 11
-240.062
 21
2.24915
  0
LINE
  8
0
 10
-240.062
 20
2.24915
 11
-239.814
 21
2.24231
  0
LINE
  8
0
 10
-239.814
 20
2.24231
 11
-239.569
 21
2.20825
  0
LINE
  8
0
 10
-239.569
 20
2.20825
 11
-239.328
 21
2.1474
  0
LINE
  8
0
 10
-239.328
 20
2.1474
 11
-239.096
 21
2.06049
  0
LINE
  8
0
 10
-239.096
 20
2.06049
 11
-238.875
 21
1.94855
  0
LINE
  8
0
 10
-238.875
 20
1.94855
 11
-238.667
 21
1.81296
  0
LINE
  8
0
 10
-238.667
 20
1.81296
 11
-238.476
 21
1.65536
  0
LINE
  8
0
 10
-238.476
 20
1.65536
 11
-238.303
 21
1.47769
  0
LINE
  8
0
 10
-238.303
 20
1.47769
 11
-238.151
 21
1.28206
  0
LINE
  8
0
 10
-238.151
 20
1.28206
 11
-238.021
 21
1.07088
  0
LINE
  8
0
 10
-238.021
 20
1.07088
 11
-237.915
 21
0.846695
  0
LINE
  8
0
 10
-237.915
 20
0.846695
 11
-237.835
 21
0.612228
  0
LINE
  8
0
 10
-237.835
 20
0.612228
 11
-237.781
 21
0.370331
  0
LINE
  8
0
 10
-237.781
 20
0.370331
 11
-237.753
 21
0.123947
  0
LINE
  8
0
 10
-237.753
 20
0.123947
 11
-237.753
 21
-0.123947
  0
LINE
  8
0
 10
-237.753
 20
-0.123947
 11
-237.781
 21
-0.370331
  0
LINE
  8
0
 10
-237.781
 20
-0.370331
 11
-237.835
 21
-0.612228
  0
LINE
  8
0
 10
-237.835
 20
-0.612228
 11
-237.915
 21
-0.846695
  0
LINE
  8
0
 10
-237.915
 20
-0.846695
 11
-238.021
 21
-1.07088
  0
LINE
  8
0
 10
-238.021
 20
-1.07088
 11
-238.151
 21
-1.28206
  0
LINE
  8
0
 10
-238.151
 20
-1.28206
 11
-238.303
 21
-1.47769
  0
LINE
  8
0
 10
-238.303
 20
-1.47769
 11
-238.476
 21
-1.65536
  0
LINE
  8
0
 10
-238.476
 20
-1.65536
 11
-238.667
 21
-1.81296
  0
LINE
  8
0
 10
-238.667
 20
-1.81296
 11
-238.875
 21
-1.94855
  0
LINE
  8
0
 10
-238.875
 20
-1.94855
 11
-239.096
 21
-2.06049
  0
LINE
  8
0
 10
-239.096
 20
-2.06049
 11
-239.328
 21
-2.1474
  0
LINE
  8
0
 10
-239.328
 20
-2.1474
 11
-239.569
 21
-2.20825
  0
LINE
  8
0
 10
-239.569
 20
-2.20825
 11
-239.814
 21
-2.24231
  0
LINE
  8
0
 10
-239.814
 20
-2.24231
 11
-240.062
 21
-2.24915
  0
LINE
  8
0
 10
-240.062
 20
-2.24915
 11
-240.309
 21
-2.22867
  0
LINE
  8
0
 10
239.814
 20
-90.9923
 11
239.569
 21
-90.9583
  0
LINE
  8
0
 10
239.569
 20
-90.9583
 11
239.328
 21
-90.8974
  0
LINE
  8
0
 10
239.328
 20
-90.8974
 11
239.096
 21
-90.8105
  0
LINE
  8
0
 10
239.096
 20
-90.8105
 11
238.875
 21
-90.6985
  0
LINE
  8
0
 10
238.875
 20
-90.6985
 11
238.667
 21
-90.563
  0
LINE
  8
0
 10
238.667
 20
-90.563
 11
238.476
 21
-90.4054
  0
LINE
  8
0
 10
238.476
 20
-90.4054
 11
238.303
 21
-90.2277
  0
LINE
  8
0
 10
238.303
 20
-90.2277
 11
238.151
 21
-90.0321
  0
LINE
  8
0
 10
238.151
 20
-90.0321
 11
238.021
 21
-89.8209
  0
LINE
  8
0
 10
238.021
 20
-89.8209
 11
237.915
 21
-89.5967
  0
LINE
  8
0
 10
237.915
 20
-89.5967
 11
237.835
 21
-89.3622
  0
LINE
  8
0
 10
237.835
 20
-89.3622
 11
237.781
 21
-89.1203
  0
LINE
  8
0
 10
237.781
 20
-89.1203
 11
237.753
 21
-88.8739
  0
LINE
  8
0
 10
237.753
 20
-88.8739
 11
237.753
 21
-88.6261
  0
LINE
  8
0
 10
237.753
 20
-88.6261
 11
237.781
 21
-88.3797
  0
LINE
  8
0
 10
237.781
 20
-88.3797
 11
237.835
 21
-88.1378
  0
LINE
  8
0
 10
237.835
 20
-88.1378
 11
237.915
 21
-87.9033
  0
LINE
  8
0
 10
237.915
 20
-87.9033
 11
238.021
 21
-87.6791
  0
LINE
  8
0
 10
238.021
 20
-87.6791
 11
238.151
 21
-87.4679
  0
LINE
  8
0
 10
238.151
 20
-87.4679
 11
238.303
 21
-87.2723
  0
LINE
  8
0
 10
238.303
 20
-87.2723
 11
238.476
 21
-87.0946
  0
LINE
  8
0
 10
238.476
 20
-87.0946
 11
238.667
 21
-86.937
  0
LINE
  8
0
 10
238.667
 20
-86.937
 11
238.875
 21
-86.8014
  0
LINE
  8
0
 10
238.875
 20
-86.8014
 11
239.096
 21
-86.6895
  0
LINE
  8
0
 10
239.096
 20
-86.6895
 11
239.328
 21
-86.6026
  0
LINE
  8
0
 10
239.328
 20
-86.6026
 11
239.569
 21
-86.5417
  0
LINE
  8
0
 10
239.569
 20
-86.5417
 11
239.814
 21
-86.5077
  0
LINE
  8
0
 10
239.814
 20
-86.5077
 11
240.062
 21
-86.5009
  0
LINE
  8
0
 10
240.062
 20
-86.5009
 11
240.309
 21
-86.5213
  0
LINE
  8
0
 10
240.309
 20
-86.5213
 11
240.552
 21
-86.5688
  0
LINE
  8
0
 10
240.552
 20
-86.5688
 11
240.789
 21
-86.6429
  0
LINE
  8
0
 10
240.789
 20
-86.6429
 11
241.016
 21
-86.7424
  0
LINE
  8
0
 10
241.016
 20
-86.7424
 11
241.231
 21
-86.8664
  0
LINE
  8
0
 10
241.231
 20
-86.8664
 11
241.43
 21
-87.0132
  0
LINE
  8
0
 10
241.43
 20
-87.0132
 11
241.613
 21
-87.1811
  0
LINE
  8
0
 10
241.613
 20
-87.1811
 11
241.776
 21
-87.368
  0
LINE
  8
0
 10
241.776
 20
-87.368
 11
241.917
 21
-87.5717
  0
LINE
  8
0
 10
241.917
 20
-87.5717
 11
242.035
 21
-87.7897
  0
LINE
  8
0
 10
242.035
 20
-87.7897
 11
242.128
 21
-88.0194
  0
LINE
  8
0
 10
242.128
 20
-88.0194
 11
242.196
 21
-88.258
  0
LINE
  8
0
 10
242.196
 20
-88.258
 11
242.236
 21
-88.5025
  0
LINE
  8
0
 10
242.236
 20
-88.5025
 11
242.25
 21
-88.75
  0
LINE
  8
0
 10
242.25
 20
-88.75
 11
242.236
 21
-88.9975
  0
LINE
  8
0
 10
242.236
 20
-88.9975
 11
242.196
 21
-89.242
  0
LINE
  8
0
 10
242.196
 20
-89.242
 11
242.128
 21
-89.4806
  0
LINE
  8
0
 10
242.128
 20
-89.4806
 11
242.035
 21
-89.7102
  0
LINE
  8
0
 10
242.035
 20
-89.7102
 11
241.917
 21
-89.9283
  0
LINE
  8
0
 10
241.917
 20
-89.9283
 11
241.776
 21
-90.132
  0
LINE
  8
0
 10
241.776
 20
-90.132
 11
241.613
 21
-90.3189
  0
LINE
  8
0
 10
241.613
 20
-90.3189
 11
241.43
 21
-90.4868
  0
LINE
  8
0
 10
241.43
 20
-90.4868
 11
241.231
 21
-90.6336
  0
LINE
  8
0
 10
241.231
 20
-90.6336
 11
241.016
 21
-90.7576
  0
LINE
  8
0
 10
241.016
 20
-90.7576
 11
240.789
 21
-90.8571
  0
LINE
  8
0
 10
240.789
 20
-90.8571
 11
240.552
 21
-90.9312
  0
LINE
  8
0
 10
240.552
 20
-90.9312
 11
240.309
 21
-90.9787
  0
LINE
  8
0
 10
240.309
 20
-90.9787
 11
240.062
 21
-90.9991
  0
LINE
  8
0
 10
240.062
 20
-90.9991
 11
239.814
 21
-90.9923
  0
LINE
  8
0
 10
-240.309
 20
-90.9787
 11
-240.552
 21
-90.9312
  0
LINE
  8
0
 10
-240.552
 20
-90.9312
 11
-240.789
 21
-90.8571
  0
LINE
  8
0
 10
-240.789
 20
-90.8571
 11
-241.016
 21
-90.7576
  0
LINE
  8
0
 10
-241.016
 20
-90.7576
 11
-241.231
 21
-90.6336
  0
LINE
  8
0
 10
-241.231
 20
-90.6336
 11
-241.43
 21
-90.4868
  0
LINE
  8
0
 10
-241.43
 20
-90.4868
 11
-241.613
 21
-90.3189
  0
LINE
  8
0
 10
-241.613
 20
-90.3189
 11
-241.776
 21
-90.132
  0
LINE
  8
0
 10
-241.776
 20
-90.132
 11
-241.917
 21
-89.9283
  0
LINE
  8
0
 10
-241.917
 20
-89.9283
 11
-242.035
 21
-89.7102
  0
LINE
  8
0
 10
-242.035
 20
-89.7102
 11
-242.128
 21
-89.4806
  0
LINE
  8
0
 10
-242.128
 20
-89.4806
 11
-242.196
 21
-89.242
  0
LINE
  8
0
 10
-242.196
 20
-89.242
 11
-242.236
 21
-88.9975
  0
LINE
  8
0
 10
-242.236
 20
-88.9975
 11
-242.25
 21
-88.75
  0
LINE
  8
0
 10
-242.25
 20
-88.75
 11
-242.236
 21
-88.5025
  0
LINE
  8
0
 10
-242.236
 20
-88.5025
 11
-242.196
 21
-88.258
  0
LINE
  8
0
 10
-242.196
 20
-88.258
 11
-242.128
 21
-88.0194
  0
LINE
  8
0
 10
-242.128
 20
-88.0194
 11
-242.035
 21
-87.7897
  0
LINE
  8
0
 10
-242.035
 20
-87.7897
 11
-241.917
 21
-87.5717
  0
LINE
  8
0
 10
-241.917
 20
-87.5717
 11
-241.776
 21
-87.368
  0
LINE
  8
0
 10
-241.776
 20
-87.368
 11
-241.613
 21
-87.1811
  0
LINE
  8
0
 10
-241.613
 20
-87.1811
 11
-241.43
 21
-87.0132
  0
LINE
  8
0
 10
-241.43
 20
-87.0132
 11
-241.231
 21
-86.8664
  0
LINE
  8
0
 10
-241.231
 20
-86.8664
 11
-241.016
 21
-86.7424
  0
LINE
  8
0
 10
-241.016
 20
-86.7424
 11
-240.789
 21
-86.6429
  0
LINE
  8
0
 10
-240.789
 20
-86.6429
 11
-240.552
 21
-86.5688
  0
LINE
  8
0
 10
-240.552
 20
-86.5688
 11
-240.309
 21
-86.5213
  0
LINE
  8
0
 10
-240.309
 20
-86.5213
 11
-240.062
 21
-86.5009
  0
LINE
  8
0
 10
-240.062
 20
-86.5009
 11
-239.814
 21
-86.5077
  0
LINE
  8
0
 10
-239.814
 20
-86.5077
 11
-239.569
 21
-86.5417
  0
LINE
  8
0
 10
-239.569
 20
-86.5417
 11
-239.328
 21
-86.6026
  0
LINE
  8
0
 10
-239.328
 20
-86.6026
 11
-239.096
 21
-86.6895
  0
LINE
  8
0
 10
-239.096
 20
-86.6895
 11
-238.875
 21
-86.8014
  0
LINE
  8
0
 10
-238.875
 20
-86.8014
 11
-238.667
 21
-86.937
  0
LINE
  8
0
 10
-238.667
 20
-86.937
 11
-238.476
 21
-87.0946
  0
LINE
  8
0
 10
-238.476
 20
-87.0946
 11
-238.303
 21
-87.2723
  0
LINE
  8
0
 10
-238.303
 20
-87.2723
 11
-238.151
 21
-87.4679
  0
LINE
  8
0
 10
-238.151
 20
-87.4679
 11
-238.021
 21
-87.6791
  0
LINE
  8
0
 10
-238.021
 20
-87.6791
 11
-237.915
 21
-87.9033
  0
LINE
  8
0
 10
-237.915
 20
-87.9033
 11
-237.835
 21
-88.1378
  0
LINE
  8
0
 10
-237.835
 20
-88.1378
 11
-237.781
 21
-88.3797
  0
LINE
  8
0
 10
-237.781
 20
-88.3797
 11
-237.753
 21
-88.6261
  0
LINE
  8
0
 10
-237.753
 20
-88.6261
 11
-237.753
 21
-88.8739
  0
LINE
  8
0
 10
-237.753
 20
-88.8739
 11
-237.781
 21
-89.1203
  0
LINE
  8
0
 10
-237.781
 20
-89.1203
 11
-237.835
 21
-89.3622
  0
LINE
  8
0
 10
-237.835
 20
-89.3622
 11
-237.915
 21
-89.5967
  0
LINE
  8
0
 10
-237.915
 20
-89.5967
 11
-238.021
 21
-89.8209
  0
LINE
  8
0
 10
-238.021
 20
-89.8209
 11
-238.151
 21
-90.0321
  0
LINE
  8
0
 10
-238.151
 20
-90.0321
 11
-238.303
 21
-90.2277
  0
LINE
  8
0
 10
-238.303
 20
-90.2277
 11
-238.476
 21
-90.4054
  0
LINE
  8
0
 10
-238.476
 20
-90.4054
 11
-238.667
 21
-90.563
  0
LINE
  8
0
 10
-238.667
 20
-90.563
 11
-238.875
 21
-90.6985
  0
LINE
  8
0
 10
-238.875
 20
-90.6985
 11
-239.096
 21
-90.8105
  0
LINE
  8
0
 10
-239.096
 20
-90.8105
 11
-239.328
 21
-90.8974
  0
LINE
  8
0
 10
-239.328
 20
-90.8974
 11
-239.569
 21
-90.9583
  0
LINE
  8
0
 10
-239.569
 20
-90.9583
 11
-239.814
 21
-90.9923
  0
LINE
  8
0
 10
-239.814
 20
-90.9923
 11
-240.062
 21
-90.9991
  0
LINE
  8
0
 10
-240.062
 20
-90.9991
 11
-240.309
 21
-90.9787
  0
LINE
  8
0
 10
239.814
 20
-179.742
 11
239.569
 21
-179.708
  0
LINE
  8
0
 10
239.569
 20
-179.708
 11
239.328
 21
-179.647
  0
LINE
  8
0
 10
239.328
 20
-179.647
 11
239.096
 21
-179.56
  0
LINE
  8
0
 10
239.096
 20
-179.56
 11
238.875
 21
-179.449
  0
LINE
  8
0
 10
238.875
 20
-179.449
 11
238.667
 21
-179.313
  0
LINE
  8
0
 10
238.667
 20
-179.313
 11
238.476
 21
-179.155
  0
LINE
  8
0
 10
238.476
 20
-179.155
 11
238.303
 21
-178.978
  0
LINE
  8
0
 10
238.303
 20
-178.978
 11
238.151
 21
-178.782
  0
LINE
  8
0
 10
238.151
 20
-178.782
 11
238.021
 21
-178.571
  0
LINE
  8
0
 10
238.021
 20
-178.571
 11
237.915
 21
-178.347
  0
LINE
  8
0
 10
237.915
 20
-178.347
 11
237.835
 21
-178.112
  0
LINE
  8
0
 10
237.835
 20
-178.112
 11
237.781
 21
-177.87
  0
LINE
  8
0
 10
237.781
 20
-177.87
 11
237.753
 21
-177.624
  0
LINE
  8
0
 10
237.753
 20
-177.624
 11
237.753
 21
-177.376
  0
LINE
  8
0
 10
237.753
 20
-177.376
 11
237.781
 21
-177.13
  0
LINE
  8
0
 10
237.781
 20
-177.13
 11
237.835
 21
-176.888
  0
LINE
  8
0
 10
237.835
 20
-176.888
 11
237.915
 21
-176.653
  0
LINE
  8
0
 10
237.915
 20
-176.653
 11
238.021
 21
-176.429
  0
LINE
  8
0
 10
238.021
 20
-176.429
 11
238.151
 21
-176.218
  0
LINE
  8
0
 10
238.151
 20
-176.218
 11
238.303
 21
-176.022
  0
LINE
  8
0
 10
238.303
 20
-176.022
 11
238.476
 21
-175.845
  0
LINE
  8
0
 10
238.476
 20
-175.845
 11
238.667
 21
-175.687
  0
LINE
  8
0
 10
238.667
 20
-175.687
 11
238.875
 21
-175.551
  0
LINE
  8
0
 10
238.875
 20
-175.551
 11
239.096
 21
-175.44
  0
LINE
  8
0
 10
239.096
 20
-175.44
 11
239.328
 21
-175.353
  0
LINE
  8
0
 10
239.328
 20
-175.353
 11
239.569
 21
-175.292
  0
LINE
  8
0
 10
239.569
 20
-175.292
 11
239.814
 21
-175.258
  0
LINE
  8
0
 10
239.814
 20
-175.258
 11
240.062
 21
-175.251
  0
LINE
  8
0
 10
240.062
 20
-175.251
 11
240.309
 21
-175.271
  0
LINE
  8
0
 10
240.309
 20
-175.271
 11
240.552
 21
-175.319
  0
LINE
  8
0
 10
240.552
 20
-175.319
 11
240.789
 21
-175.393
  0
LINE
  8
0
 10
240.789
 20
-175.393
 11
241.016
 21
-175.492
  0
LINE
  8
0
 10
241.016
 20
-175.492
 11
241.231
 21
-175.616
  0
LINE
  8
0
 10
241.231
 20
-175.616
 11
241.43
 21
-175.763
  0
LINE
  8
0
 10
241.43
 20
-175.763
 11
241.613
 21
-175.931
  0
LINE
  8
0
 10
241.613
 20
-175.931
 11
241.776
 21
-176.118
  0
LINE
  8
0
 10
241.776
 20
-176.118
 11
241.917
 21
-176.322
  0
LINE
  8
0
 10
241.917
 20
-176.322
 11
242.035
 21
-176.54
  0
LINE
  8
0
 10
242.035
 20
-176.54
 11
242.128
 21
-176.769
  0
LINE
  8
0
 10
242.128
 20
-176.769
 11
242.196
 21
-177.008
  0
LINE
  8
0
 10
242.196
 20
-177.008
 11
242.236
 21
-177.252
  0
LINE
  8
0
 10
242.236
 20
-177.252
 11
242.25
 21
-177.5
  0
LINE
  8
0
 10
242.25
 20
-177.5
 11
242.236
 21
-177.748
  0
LINE
  8
0
 10
242.236
 20
-177.748
 11
242.196
 21
-177.992
  0
LINE
  8
0
 10
242.196
 20
-177.992
 11
242.128
 21
-178.231
  0
LINE
  8
0
 10
242.128
 20
-178.231
 11
242.035
 21
-178.46
  0
LINE
  8
0
 10
242.035
 20
-178.46
 11
241.917
 21
-178.678
  0
LINE
  8
0
 10
241.917
 20
-178.678
 11
241.776
 21
-178.882
  0
LINE
  8
0
 10
241.776
 20
-178.882
 11
241.613
 21
-179.069
  0
LINE
  8
0
 10
241.613
 20
-179.069
 11
241.43
 21
-179.237
  0
LINE
  8
0
 10
241.43
 20
-179.237
 11
241.231
 21
-179.384
  0
LINE
  8
0
 10
241.231
 20
-179.384
 11
241.016
 21
-179.508
  0
LINE
  8
0
 10
241.016
 20
-179.508
 11
240.789
 21
-179.607
  0
LINE
  8
0
 10
240.789
 20
-179.607
 11
240.552
 21
-179.681
  0
LINE
  8
0
 10
240.552
 20
-179.681
 11
240.309
 21
-179.729
  0
LINE
  8
0
 10
240.309
 20
-179.729
 11
240.062
 21
-179.749
  0
LINE
  8
0
 10
240.062
 20
-179.749
 11
239.814
 21
-179.742
  0
LINE
  8
0
 10
-240.309
 20
-179.729
 11
-240.552
 21
-179.681
  0
LINE
  8
0
 10
-240.552
 20
-179.681
 11
-240.789
 21
-179.607
  0
LINE
  8
0
 10
-240.789
 20
-179.607
 11
-241.016
 21
-179.508
  0
LINE
  8
0
 10
-241.016
 20
-179.508
 11
-241.231
 21
-179.384
  0
LINE
  8
0
 10
-241.231
 20
-179.384
 11
-241.43
 21
-179.237
  0
LINE
  8
0
 10
-241.43
 20
-179.237
 11
-241.613
 21
-179.069
  0
LINE
  8
0
 10
-241.613
 20
-179.069
 11
-241.776
 21
-178.882
  0
LINE
  8
0
 10
-241.776
 20
-178.882
 11
-241.917
 21
-178.678
  0
LINE
  8
0
 10
-241.917
 20
-178.678
 11
-242.035
 21
-178.46
  0
LINE
  8
0
 10
-242.035
 20
-178.46
 11
-242.128
 21
-178.231
  0
LINE
  8
0
 10
-242.128
 20
-178.231
 11
-242.196
 21
-177.992
  0
LINE
  8
0
 10
-242.196
 20
-177.992
 11
-242.236
 21
-177.748
  0
LINE
  8
0
 10
-242.236
 20
-177.748
 11
-242.25
 21
-177.5
  0
LINE
  8
0
 10
-242.25
 20
-177.5
 11
-242.236
 21
-177.252
  0
LINE
  8
0
 10
-242.236
 20
-177.252
 11
-242.196
 21
-177.008
  0
LINE
  8
0
 10
-242.196
 20
-177.008
 11
-242.128
 21
-176.769
  0
LINE
  8
0
 10
-242.128
 20
-176.769
 11
-242.035
 21
-176.54
  0
LINE
  8
0
 10
-242.035
 20
-176.54
 11
-241.917
 21
-176.322
  0
LINE
  8
0
 10
-241.917
 20
-176.322
 11
-241.776
 21
-176.118
  0
LINE
  8
0
 10
-241.776
 20
-176.118
 11
-241.613
 21
-175.931
  0
LINE
  8
0
 10
-241.613
 20
-175.931
 11
-241.43
 21
-175.763
  0
LINE
  8
0
 10
-241.43
 20
-175.763
 11
-241.231
 21
-175.616
  0
LINE
  8
0
 10
-241.231
 20
-175.616
 11
-241.016
 21
-175.492
  0
LINE
  8
0
 10
-241.016
 20
-175.492
 11
-240.789
 21
-175.393
  0
LINE
  8
0
 10
-240.789
 20
-175.393
 11
-240.552
 21
-175.319
  0
LINE
  8
0
 10
-240.552
 20
-175.319
 11
-240.309
 21
-175.271
  0
LINE
  8
0
 10
-240.309
 20
-175.271
 11
-240.062
 21
-175.251
  0
LINE
  8
0
 10
-240.062
 20
-175.251
 11
-239.814
 21
-175.258
  0
LINE
  8
0
 10
-239.814
 20
-175.258
 11
-239.569
 21
-175.292
  0
LINE
  8
0
 10
-239.569
 20
-175.292
 11
-239.328
 21
-175.353
  0
LINE
  8
0
 10
-239.328
 20
-175.353
 11
-239.096
 21
-175.44
  0
LINE
  8
0
 10
-239.096
 20
-175.44
 11
-238.875
 21
-175.551
  0
LINE
  8
0
 10
-238.875
 20
-175.551
 11
-238.667
 21
-175.687
  0
LINE
  8
0
 10
-238.667
 20
-175.687
 11
-238.476
 21
-175.845
  0
LINE
  8
0
 10
-238.476
 20
-175.845
 11
-238.303
 21
-176.022
  0
LINE
  8
0
 10
-238.303
 20
-176.022
 11
-238.151
 21
-176.218
  0
LINE
  8
0
 10
-238.151
 20
-176.218
 11
-238.021
 21
-176.429
  0
LINE
  8
0
 10
-238.021
 20
-176.429
 11
-237.915
 21
-176.653
  0
LINE
  8
0
 10
-237.915
 20
-176.653
 11
-237.835
 21
-176.888
  0
LINE
  8
0
 10
-237.835
 20
-176.888
 11
-237.781
 21
-177.13
  0
LINE
  8
0
 10
-237.781
 20
-177.13
 11
-237.753
 21
-177.376
  0
LINE
  8
0
 10
-237.753
 20
-177.376
 11
-237.753
 21
-177.624
  0
LINE
  8
0
 10
-237.753
 20
-177.624
 11
-237.781
 21
-177.87
  0
LINE
  8
0
 10
-237.781
 20
-177.87
 11
-237.835
 21
-178.112
  0
LINE
  8
0
 10
-237.835
 20
-178.112
 11
-237.915
 21
-178.347
  0
LINE
  8
0
 10
-237.915
 20
-178.347
 11
-238.021
 21
-178.571
  0
LINE
  8
0
 10
-238.021
 20
-178.571
 11
-238.151
 21
-178.782
  0
LINE
  8
0
 10
-238.151
 20
-178.782
 11
-238.303
 21
-178.978
  0
LINE
  8
0
 10
-238.303
 20
-178.978
 11
-238.476
 21
-179.155
  0
LINE
  8
0
 10
-238.476
 20
-179.155
 11
-238.667
 21
-179.313
  0
LINE
  8
0
 10
-238.667
 20
-179.313
 11
-238.875
 21
-179.449
  0
LINE
  8
0
 10
-238.875
 20
-179.449
 11
-239.096
 21
-179.56
  0
LINE
  8
0
 10
-239.096
 20
-179.56
 11
-239.328
 21
-179.647
  0
LINE
  8
0
 10
-239.328
 20
-179.647
 11
-239.569
 21
-179.708
  0
LINE
  8
0
 10
-239.569
 20
-179.708
 11
-239.814
 21
-179.742
  0
LINE
  8
0
 10
-239.814
 20
-179.742
 11
-240.062
 21
-179.749
  0
LINE
  8
0
 10
-240.062
 20
-179.749
 11
-240.309
 21
-179.729
  0
LINE
  8
0
 10
-240.523
 20
-222.473
 11
-241.04
 21
-222.391
  0
LINE
  8
0
 10
-241.04
 20
-222.391
 11
-241.545
 21
-222.255
  0
LINE
  8
0
 10
-241.545
 20
-222.255
 11
-242.034
 21
-222.068
  0
LINE
  8
0
 10
-242.034
 20
-222.068
 11
-242.5
 21
-221.83
  0
LINE
  8
0
 10
-242.5
 20
-221.83
 11
-242.939
 21
-221.545
  0
LINE
  8
0
 10
-242.939
 20
-221.545
 11
-243.346
 21
-221.216
  0
LINE
  8
0
 10
-243.346
 20
-221.216
 11
-243.716
 21
-220.846
  0
LINE
  8
0
 10
-243.716
 20
-220.846
 11
-244.045
 21
-220.439
  0
LINE
  8
0
 10
-244.045
 20
-220.439
 11
-244.33
 21
-220
  0
LINE
  8
0
 10
-244.33
 20
-220
 11
-244.568
 21
-219.534
  0
LINE
  8
0
 10
-244.568
 20
-219.534
 11
-244.755
 21
-219.045
  0
LINE
  8
0
 10
-244.755
 20
-219.045
 11
-244.891
 21
-218.54
  0
LINE
  8
0
 10
-244.891
 20
-218.54
 11
-244.973
 21
-218.023
  0
LINE
  8
0
 10
-244.973
 20
-218.023
 11
-245
 21
-217.5
  0
LINE
  8
0
 10
-245
 20
-217.5
 11
-244.973
 21
-216.977
  0
LINE
  8
0
 10
-244.973
 20
-216.977
 11
-244.891
 21
-216.46
  0
LINE
  8
0
 10
-244.891
 20
-216.46
 11
-244.755
 21
-215.955
  0
LINE
  8
0
 10
-244.755
 20
-215.955
 11
-244.568
 21
-215.466
  0
LINE
  8
0
 10
-244.568
 20
-215.466
 11
-244.33
 21
-215
  0
LINE
  8
0
 10
-244.33
 20
-215
 11
-244.045
 21
-214.561
  0
LINE
  8
0
 10
-244.045
 20
-214.561
 11
-243.716
 21
-214.154
  0
LINE
  8
0
 10
-243.716
 20
-214.154
 11
-243.346
 21
-213.784
  0
LINE
  8
0
 10
-243.346
 20
-213.784
 11
-242.939
 21
-213.455
  0
LINE
  8
0
 10
-242.939
 20
-213.455
 11
-242.5
 21
-213.17
  0
LINE
  8
0
 10
-242.5
 20
-213.17
 11
-242.034
 21
-212.932
  0
LINE
  8
0
 10
-242.034
 20
-212.932
 11
-241.545
 21
-212.745
  0
LINE
  8
0
 10
-241.545
 20
-212.745
 11
-241.04
 21
-212.609
  0
LINE
  8
0
 10
-241.04
 20
-212.609
 11
-240.523
 21
-212.527
  0
LINE
  8
0
 10
-240.523
 20
-212.527
 11
-240
 21
-212.5
  0
LINE
  8
0
 10
-240
 20
-212.5
 11
-239.477
 21
-212.527
  0
LINE
  8
0
 10
-239.477
 20
-212.527
 11
-238.96
 21
-212.609
  0
LINE
  8
0
 10
-238.96
 20
-212.609
 11
-238.455
 21
-212.745
  0
LINE
  8
0
 10
-238.455
 20
-212.745
 11
-237.966
 21
-212.932
  0
LINE
  8
0
 10
-237.966
 20
-212.932
 11
-237.5
 21
-213.17
  0
LINE
  8
0
 10
-237.5
 20
-213.17
 11
-237.061
 21
-213.455
  0
LINE
  8
0
 10
-237.061
 20
-213.455
 11
-236.654
 21
-213.784
  0
LINE
  8
0
 10
-236.654
 20
-213.784
 11
-236.284
 21
-214.154
  0
LINE
  8
0
 10
-236.284
 20
-214.154
 11
-235.955
 21
-214.561
  0
LINE
  8
0
 10
-235.955
 20
-214.561
 11
-235.67
 21
-215
  0
LINE
  8
0
 10
-235.67
 20
-215
 11
-235.432
 21
-215.466
  0
LINE
  8
0
 10
-235.432
 20
-215.466
 11
-235.245
 21
-215.955
  0
LINE
  8
0
 10
-235.245
 20
-215.955
 11
-235.109
 21
-216.46
  0
LINE
  8
0
 10
-235.109
 20
-216.46
 11
-235.027
 21
-216.977
  0
LINE
  8
0
 10
-235.027
 20
-216.977
 11
-235
 21
-217.5
  0
LINE
  8
0
 10
-235
 20
-217.5
 11
-235.027
 21
-218.023
  0
LINE
  8
0
 10
-235.027
 20
-218.023
 11
-235.109
 21
-218.54
  0
LINE
  8
0
 10
-235.109
 20
-218.54
 11
-235.245
 21
-219.045
  0
LINE
  8
0
 10
-235.245
 20
-219.045
 11
-235.432
 21
-219.534
  0
LINE
  8
0
 10
-235.432
 20
-219.534
 11
-235.67
 21
-220
  0
LINE
  8
0
 10
-235.67
 20
-220
 11
-235.955
 21
-220.439
  0
LINE
  8
0
 10
-235.955
 20
-220.439
 11
-236.284
 21
-220.846
  0
LINE
  8
0
 10
-236.284
 20
-220.846
 11
-236.654
 21
-221.216
  0
LINE
  8
0
 10
-236.654
 20
-221.216
 11
-237.061
 21
-221.545
  0
LINE
  8
0
 10
-237.061
 20
-221.545
 11
-237.5
 21
-221.83
  0
LINE
  8
0
 10
-237.5
 20
-221.83
 11
-237.966
 21
-222.068
  0
LINE
  8
0
 10
-237.966
 20
-222.068
 11
-238.455
 21
-222.255
  0
LINE
  8
0
 10
-238.455
 20
-222.255
 11
-238.96
 21
-222.391
  0
LINE
  8
0
 10
-238.96
 20
-222.391
 11
-239.477
 21
-222.473
  0
LINE
  8
0
 10
-239.477
 20
-222.473
 11
-240
 21
-222.5
  0
LINE
  8
0
 10
-240
 20
-222.5
 11
-240.523
 21
-222.473
  0
LINE
  8
0
 10
239.477
 20
-222.473
 11
238.96
 21
-222.391
  0
LINE
  8
0
 10
238.96
 20
-222.391
 11
238.455
 21
-222.255
  0
LINE
  8
0
 10
238.455
 20
-222.255
 11
237.966
 21
-222.068
  0
LINE
  8
0
 10
237.966
 20
-222.068
 11
237.5
 21
-221.83
  0
LINE
  8
0
 10
237.5
 20
-221.83
 11
237.061
 21
-221.545
  0
LINE
  8
0
 10
237.061
 20
-221.545
 11
236.654
 21
-221.216
  0
LINE
  8
0
 10
236.654
 20
-221.216
 11
236.284
 21
-220.846
  0
LINE
  8
0
 10
236.284
 20
-220.846
 11
235.955
 21
-220.439
  0
LINE
  8
0
 10
235.955
 20
-220.439
 11
235.67
 21
-220
  0
LINE
  8
0
 10
235.67
 20
-220
 11
235.432
 21
-219.534
  0
LINE
  8
0
 10
235.432
 20
-219.534
 11
235.245
 21
-219.045
  0
LINE
  8
0
 10
235.245
 20
-219.045
 11
235.109
 21
-218.54
  0
LINE
  8
0
 10
235.109
 20
-218.54
 11
235.027
 21
-218.023
  0
LINE
  8
0
 10
235.027
 20
-218.023
 11
235
 21
-217.5
  0
LINE
  8
0
 10
235
 20
-217.5
 11
235.027
 21
-216.977
  0
LINE
  8
0
 10
235.027
 20
-216.977
 11
235.109
 21
-216.46
  0
LINE
  8
0
 10
235.109
 20
-216.46
 11
235.245
 21
-215.955
  0
LINE
  8
0
 10
235.245
 20
-215.955
 11
235.432
 21
-215.466
  0
LINE
  8
0
 10
235.432
 20
-215.466
 11
235.67
 21
-215
  0
LINE
  8
0
 10
235.67
 20
-215
 11
235.955
 21
-214.561
  0
LINE
  8
0
 10
235.955
 20
-214.561
 11
236.284
 21
-214.154
  0
LINE
  8
0
 10
236.284
 20
-214.154
 11
236.654
 21
-213.784
  0
LINE
  8
0
 10
236.654
 20
-213.784
 11
237.061
 21
-213.455
  0
LINE
  8
0
 10
237.061
 20
-213.455
 11
237.5
 21
-213.17
  0
LINE
  8
0
 10
237.5
 20
-213.17
 11
237.966
 21
-212.932
  0
LINE
  8
0
 10
237.966
 20
-212.932
 11
238.455
 21
-212.745
  0
LINE
  8
0
 10
238.455
 20
-212.745
 11
238.96
 21
-212.609
  0
LINE
  8
0
 10
238.96
 20
-212.609
 11
239.477
 21
-212.527
  0
LINE
  8
0
 10
239.477
 20
-212.527
 11
240
 21
-212.5
  0
LINE
  8
0
 10
240
 20
-212.5
 11
240.523
 21
-212.527
  0
LINE
  8
0
 10
240.523
 20
-212.527
 11
241.04
 21
-212.609
  0
LINE
  8
0
 10
241.04
 20
-212.609
 11
241.545
 21
-212.745
  0
LINE
  8
0
 10
241.545
 20
-212.745
 11
242.034
 21
-212.932
  0
LINE
  8
0
 10
242.034
 20
-212.932
 11
242.5
 21
-213.17
  0
LINE
  8
0
 10
242.5
 20
-213.17
 11
242.939
 21
-213.455
  0
LINE
  8
0
 10
242.939
 20
-213.455
 11
243.346
 21
-213.784
  0
LINE
  8
0
 10
243.346
 20
-213.784
 11
243.716
 21
-214.154
  0
LINE
  8
0
 10
243.716
 20
-214.154
 11
244.045
 21
-214.561
  0
LINE
  8
0
 10
244.045
 20
-214.561
 11
244.33
 21
-215
  0
LINE
  8
0
 10
244.33
 20
-215
 11
244.568
 21
-215.466
  0
LINE
  8
0
 10
244.568
 20
-215.466
 11
244.755
 21
-215.955
  0
LINE
  8
0
 10
244.755
 20
-215.955
 11
244.891
 21
-216.46
  0
LINE
  8
0
 10
244.891
 20
-216.46
 11
244.973
 21
-216.977
  0
LINE
  8
0
 10
244.973
 20
-216.977
 11
245
 21
-217.5
  0
LINE
  8
0
 10
245
 20
-217.5
 11
244.973
 21
-218.023
  0
LINE
  8
0
 10
244.973
 20
-218.023
 11
244.891
 21
-218.54
  0
LINE
  8
0
 10
244.891
 20
-218.54
 11
244.755
 21
-219.045
  0
LINE
  8
0
 10
244.755
 20
-219.045
 11
244.568
 21
-219.534
  0
LINE
  8
0
 10
244.568
 20
-219.534
 11
244.33
 21
-220
  0
LINE
  8
0
 10
244.33
 20
-220
 11
244.045
 21
-220.439
  0
LINE
  8
0
 10
244.045
 20
-220.439
 11
243.716
 21
-220.846
  0
LINE
  8
0
 10
243.716
 20
-220.846
 11
243.346
 21
-221.216
  0
LINE
  8
0
 10
243.346
 20
-221.216
 11
242.939
 21
-221.545
  0
LINE
  8
0
 10
242.939
 20
-221.545
 11
242.5
 21
-221.83
  0
LINE
  8
0
 10
242.5
 20
-221.83
 11
242.034
 21
-222.068
  0
LINE
  8
0
 10
242.034
 20
-222.068
 11
241.545
 21
-222.255
  0
LINE
  8
0
 10
241.545
 20
-222.255
 11
241.04
 21
-222.391
  0
LINE
  8
0
 10
241.04
 20
-222.391
 11
240.523
 21
-222.473
  0
LINE
  8
0
 10
240.523
 20
-222.473
 11
240
 21
-222.5
  0
LINE
  8
0
 10
240
 20
-222.5
 11
239.477
 21
-222.473
  0
LINE
  8
0
 10
-100.186
 20
-219.742
 11
-100.431
 21
-219.708
  0
LINE
  8
0
 10
-100.431
 20
-219.708
 11
-100.672
 21
-219.647
  0
LINE
  8
0
 10
-100.672
 20
-219.647
 11
-100.904
 21
-219.56
  0
LINE
  8
0
 10
-100.904
 20
-219.56
 11
-101.125
 21
-219.449
  0
LINE
  8
0
 10
-101.125
 20
-219.449
 11
-101.333
 21
-219.313
  0
LINE
  8
0
 10
-101.333
 20
-219.313
 11
-101.524
 21
-219.155
  0
LINE
  8
0
 10
-101.524
 20
-219.155
 11
-101.697
 21
-218.978
  0
LINE
  8
0
 10
-101.697
 20
-218.978
 11
-101.849
 21
-218.782
  0
LINE
  8
0
 10
-101.849
 20
-218.782
 11
-101.979
 21
-218.571
  0
LINE
  8
0
 10
-101.979
 20
-218.571
 11
-102.085
 21
-218.347
  0
LINE
  8
0
 10
-102.085
 20
-218.347
 11
-102.165
 21
-218.112
  0
LINE
  8
0
 10
-102.165
 20
-218.112
 11
-102.219
 21
-217.87
  0
LINE
  8
0
 10
-102.219
 20
-217.87
 11
-102.247
 21
-217.624
  0
LINE
  8
0
 10
-102.247
 20
-217.624
 11
-102.247
 21
-217.376
  0
LINE
  8
0
 10
-102.247
 20
-217.376
 11
-102.219
 21
-217.13
  0
LINE
  8
0
 10
-102.219
 20
-217.13
 11
-102.165
 21
-216.888
  0
LINE
  8
0
 10
-102.165
 20
-216.888
 11
-102.085
 21
-216.653
  0
LINE
  8
0
 10
-102.085
 20
-216.653
 11
-101.979
 21
-216.429
  0
LINE
  8
0
 10
-101.979
 20
-216.429
 11
-101.849
 21
-216.218
  0
LINE
  8
0
 10
-101.849
 20
-216.218
 11
-101.697
 21
-216.022
  0
LINE
  8
0
 10
-101.697
 20
-216.022
 11
-101.524
 21
-215.845
  0
LINE
  8
0
 10
-101.524
 20
-215.845
 11
-101.333
 21
-215.687
  0
LINE
  8
0
 10
-101.333
 20
-215.687
 11
-101.125
 21
-215.551
  0
LINE
  8
0
 10
-101.125
 20
-215.551
 11
-100.904
 21
-215.44
  0
LINE
  8
0
 10
-100.904
 20
-215.44
 11
-100.672
 21
-215.353
  0
LINE
  8
0
 10
-100.672
 20
-215.353
 11
-100.431
 21
-215.292
  0
LINE
  8
0
 10
-100.431
 20
-215.292
 11
-100.186
 21
-215.258
  0
LINE
  8
0
 10
-100.186
 20
-215.258
 11
-99.938
 21
-215.251
  0
LINE
  8
0
 10
-99.938
 20
-215.251
 11
-99.6909
 21
-215.271
  0
LINE
  8
0
 10
-99.6909
 20
-215.271
 11
-99.4476
 21
-215.319
  0
LINE
  8
0
 10
-99.4476
 20
-215.319
 11
-99.2111
 21
-215.393
  0
LINE
  8
0
 10
-99.2111
 20
-215.393
 11
-98.984
 21
-215.492
  0
LINE
  8
0
 10
-98.984
 20
-215.492
 11
-98.7694
 21
-215.616
  0
LINE
  8
0
 10
-98.7694
 20
-215.616
 11
-98.5696
 21
-215.763
  0
LINE
  8
0
 10
-98.5696
 20
-215.763
 11
-98.3872
 21
-215.931
  0
LINE
  8
0
 10
-98.3872
 20
-215.931
 11
-98.2244
 21
-216.118
  0
LINE
  8
0
 10
-98.2244
 20
-216.118
 11
-98.0832
 21
-216.322
  0
LINE
  8
0
 10
-98.0832
 20
-216.322
 11
-97.9652
 21
-216.54
  0
LINE
  8
0
 10
-97.9652
 20
-216.54
 11
-97.8719
 21
-216.769
  0
LINE
  8
0
 10
-97.8719
 20
-216.769
 11
-97.8045
 21
-217.008
  0
LINE
  8
0
 10
-97.8045
 20
-217.008
 11
-97.7637
 21
-217.252
  0
LINE
  8
0
 10
-97.7637
 20
-217.252
 11
-97.75
 21
-217.5
  0
LINE
  8
0
 10
-97.75
 20
-217.5
 11
-97.7637
 21
-217.748
  0
LINE
  8
0
 10
-97.7637
 20
-217.748
 11
-97.8045
 21
-217.992
  0
LINE
  8
0
 10
-97.8045
 20
-217.992
 11
-97.8719
 21
-218.231
  0
LINE
  8
0
 10
-97.8719
 20
-218.231
 11
-97.9652
 21
-218.46
  0
LINE
  8
0
 10
-97.9652
 20
-218.46
 11
-98.0832
 21
-218.678
  0
LINE
  8
0
 10
-98.0832
 20
-218.678
 11
-98.2244
 21
-218.882
  0
LINE
  8
0
 10
-98.2244
 20
-218.882
 11
-98.3872
 21
-219.069
  0
LINE
  8
0
 10
-98.3872
 20
-219.069
 11
-98.5696
 21
-219.237
  0
LINE
  8
0
 10
-98.5696
 20
-219.237
 11
-98.7694
 21
-219.384
  0
LINE
  8
0
 10
-98.7694
 20
-219.384
 11
-98.984
 21
-219.508
  0
LINE
  8
0
 10
-98.984
 20
-219.508
 11
-99.2111
 21
-219.607
  0
LINE
  8
0
 10
-99.2111
 20
-219.607
 11
-99.4476
 21
-219.681
  0
LINE
  8
0
 10
-99.4476
 20
-219.681
 11
-99.6909
 21
-219.729
  0
LINE
  8
0
 10
-99.6909
 20
-219.729
 11
-99.938
 21
-219.749
  0
LINE
  8
0
 10
-99.938
 20
-219.749
 11
-100.186
 21
-219.742
  0
LINE
  8
0
 10
99.8142
 20
-219.742
 11
99.5686
 21
-219.708
  0
LINE
  8
0
 10
99.5686
 20
-219.708
 11
99.3283
 21
-219.647
  0
LINE
  8
0
 10
99.3283
 20
-219.647
 11
99.0962
 21
-219.56
  0
LINE
  8
0
 10
99.0962
 20
-219.56
 11
98.875
 21
-219.449
  0
LINE
  8
0
 10
98.875
 20
-219.449
 11
98.6675
 21
-219.313
  0
LINE
  8
0
 10
98.6675
 20
-219.313
 11
98.4761
 21
-219.155
  0
LINE
  8
0
 10
98.4761
 20
-219.155
 11
98.3033
 21
-218.978
  0
LINE
  8
0
 10
98.3033
 20
-218.978
 11
98.151
 21
-218.782
  0
LINE
  8
0
 10
98.151
 20
-218.782
 11
98.0212
 21
-218.571
  0
LINE
  8
0
 10
98.0212
 20
-218.571
 11
97.9154
 21
-218.347
  0
LINE
  8
0
 10
97.9154
 20
-218.347
 11
97.8349
 21
-218.112
  0
LINE
  8
0
 10
97.8349
 20
-218.112
 11
97.7807
 21
-217.87
  0
LINE
  8
0
 10
97.7807
 20
-217.87
 11
97.7534
 21
-217.624
  0
LINE
  8
0
 10
97.7534
 20
-217.624
 11
97.7534
 21
-217.376
  0
LINE
  8
0
 10
97.7534
 20
-217.376
 11
97.7807
 21
-217.13
  0
LINE
  8
0
 10
97.7807
 20
-217.13
 11
97.8349
 21
-216.888
  0
LINE
  8
0
 10
97.8349
 20
-216.888
 11
97.9154
 21
-216.653
  0
LINE
  8
0
 10
97.9154
 20
-216.653
 11
98.0212
 21
-216.429
  0
LINE
  8
0
 10
98.0212
 20
-216.429
 11
98.151
 21
-216.218
  0
LINE
  8
0
 10
98.151
 20
-216.218
 11
98.3033
 21
-216.022
  0
LINE
  8
0
 10
98.3033
 20
-216.022
 11
98.4761
 21
-215.845
  0
LINE
  8
0
 10
98.4761
 20
-215.845
 11
98.6675
 21
-215.687
  0
LINE
  8
0
 10
98.6675
 20
-215.687
 11
98.875
 21
-215.551
  0
LINE
  8
0
 10
98.875
 20
-215.551
 11
99.0962
 21
-215.44
  0
LINE
  8
0
 10
99.0962
 20
-215.44
 11
99.3283
 21
-215.353
  0
LINE
  8
0
 10
99.3283
 20
-215.353
 11
99.5686
 21
-215.292
  0
LINE
  8
0
 10
99.5686
 20
-215.292
 11
99.8142
 21
-215.258
  0
LINE
  8
0
 10
99.8142
 20
-215.258
 11
100.062
 21
-215.251
  0
LINE
  8
0
 10
100.062
 20
-215.251
 11
100.309
 21
-215.271
  0
LINE
  8
0
 10
100.309
 20
-215.271
 11
100.552
 21
-215.319
  0
LINE
  8
0
 10
100.552
 20
-215.319
 11
100.789
 21
-215.393
  0
LINE
  8
0
 10
100.789
 20
-215.393
 11
101.016
 21
-215.492
  0
LINE
  8
0
 10
101.016
 20
-215.492
 11
101.231
 21
-215.616
  0
LINE
  8
0
 10
101.231
 20
-215.616
 11
101.43
 21
-215.763
  0
LINE
  8
0
 10
101.43
 20
-215.763
 11
101.613
 21
-215.931
  0
LINE
  8
0
 10
101.613
 20
-215.931
 11
101.776
 21
-216.118
  0
LINE
  8
0
 10
101.776
 20
-216.118
 11
101.917
 21
-216.322
  0
LINE
  8
0
 10
101.917
 20
-216.322
 11
102.035
 21
-216.54
  0
LINE
  8
0
 10
102.035
 20
-216.54
 11
102.128
 21
-216.769
  0
LINE
  8
0
 10
102.128
 20
-216.769
 11
102.196
 21
-217.008
  0
LINE
  8
0
 10
102.196
 20
-217.008
 11
102.236
 21
-217.252
  0
LINE
  8
0
 10
102.236
 20
-217.252
 11
102.25
 21
-217.5
  0
LINE
  8
0
 10
102.25
 20
-217.5
 11
102.236
 21
-217.748
  0
LINE
  8
0
 10
102.236
 20
-217.748
 11
102.196
 21
-217.992
  0
LINE
  8
0
 10
102.196
 20
-217.992
 11
102.128
 21
-218.231
  0
LINE
  8
0
 10
102.128
 20
-218.231
 11
102.035
 21
-218.46
  0
LINE
  8
0
 10
102.035
 20
-218.46
 11
101.917
 21
-218.678
  0
LINE
  8
0
 10
101.917
 20
-218.678
 11
101.776
 21
-218.882
  0
LINE
  8
0
 10
101.776
 20
-218.882
 11
101.613
 21
-219.069
  0
LINE
  8
0
 10
101.613
 20
-219.069
 11
101.43
 21
-219.237
  0
LINE
  8
0
 10
101.43
 20
-219.237
 11
101.231
 21
-219.384
  0
LINE
  8
0
 10
101.231
 20
-219.384
 11
101.016
 21
-219.508
  0
LINE
  8
0
 10
101.016
 20
-219.508
 11
100.789
 21
-219.607
  0
LINE
  8
0
 10
100.789
 20
-219.607
 11
100.552
 21
-219.681
  0
LINE
  8
0
 10
100.552
 20
-219.681
 11
100.309
 21
-219.729
  0
LINE
  8
0
 10
100.309
 20
-219.729
 11
100.062
 21
-219.749
  0
LINE
  8
0
 10
100.062
 20
-219.749
 11
99.8142
 21
-219.742
  0
LINE
  8
0
 10
199.814
 20
-219.742
 11
199.569
 21
-219.708
  0
LINE
  8
0
 10
199.569
 20
-219.708
 11
199.328
 21
-219.647
  0
LINE
  8
0
 10
199.328
 20
-219.647
 11
199.096
 21
-219.56
  0
LINE
  8
0
 10
199.096
 20
-219.56
 11
198.875
 21
-219.449
  0
LINE
  8
0
 10
198.875
 20
-219.449
 11
198.667
 21
-219.313
  0
LINE
  8
0
 10
198.667
 20
-219.313
 11
198.476
 21
-219.155
  0
LINE
  8
0
 10
198.476
 20
-219.155
 11
198.303
 21
-218.978
  0
LINE
  8
0
 10
198.303
 20
-218.978
 11
198.151
 21
-218.782
  0
LINE
  8
0
 10
198.151
 20
-218.782
 11
198.021
 21
-218.571
  0
LINE
  8
0
 10
198.021
 20
-218.571
 11
197.915
 21
-218.347
  0
LINE
  8
0
 10
197.915
 20
-218.347
 11
197.835
 21
-218.112
  0
LINE
  8
0
 10
197.835
 20
-218.112
 11
197.781
 21
-217.87
  0
LINE
  8
0
 10
197.781
 20
-217.87
 11
197.753
 21
-217.624
  0
LINE
  8
0
 10
197.753
 20
-217.624
 11
197.753
 21
-217.376
  0
LINE
  8
0
 10
197.753
 20
-217.376
 11
197.781
 21
-217.13
  0
LINE
  8
0
 10
197.781
 20
-217.13
 11
197.835
 21
-216.888
  0
LINE
  8
0
 10
197.835
 20
-216.888
 11
197.915
 21
-216.653
  0
LINE
  8
0
 10
197.915
 20
-216.653
 11
198.021
 21
-216.429
  0
LINE
  8
0
 10
198.021
 20
-216.429
 11
198.151
 21
-216.218
  0
LINE
  8
0
 10
198.151
 20
-216.218
 11
198.303
 21
-216.022
  0
LINE
  8
0
 10
198.303
 20
-216.022
 11
198.476
 21
-215.845
  0
LINE
  8
0
 10
198.476
 20
-215.845
 11
198.667
 21
-215.687
  0
LINE
  8
0
 10
198.667
 20
-215.687
 11
198.875
 21
-215.551
  0
LINE
  8
0
 10
198.875
 20
-215.551
 11
199.096
 21
-215.44
  0
LINE
  8
0
 10
199.096
 20
-215.44
 11
199.328
 21
-215.353
  0
LINE
  8
0
 10
199.328
 20
-215.353
 11
199.569
 21
-215.292
  0
LINE
  8
0
 10
199.569
 20
-215.292
 11
199.814
 21
-215.258
  0
LINE
  8
0
 10
199.814
 20
-215.258
 11
200.062
 21
-215.251
  0
LINE
  8
0
 10
200.062
 20
-215.251
 11
200.309
 21
-215.271
  0
LINE
  8
0
 10
200.309
 20
-215.271
 11
200.552
 21
-215.319
  0
LINE
  8
0
 10
200.552
 20
-215.319
 11
200.789
 21
-215.393
  0
LINE
  8
0
 10
200.789
 20
-215.393
 11
201.016
 21
-215.492
  0
LINE
  8
0
 10
201.016
 20
-215.492
 11
201.231
 21
-215.616
  0
LINE
  8
0
 10
201.231
 20
-215.616
 11
201.43
 21
-215.763
  0
LINE
  8
0
 10
201.43
 20
-215.763
 11
201.613
 21
-215.931
  0
LINE
  8
0
 10
201.613
 20
-215.931
 11
201.776
 21
-216.118
  0
LINE
  8
0
 10
201.776
 20
-216.118
 11
201.917
 21
-216.322
  0
LINE
  8
0
 10
201.917
 20
-216.322
 11
202.035
 21
-216.54
  0
LINE
  8
0
 10
202.035
 20
-216.54
 11
202.128
 21
-216.769
  0
LINE
  8
0
 10
202.128
 20
-216.769
 11
202.196
 21
-217.008
  0
LINE
  8
0
 10
202.196
 20
-217.008
 11
202.236
 21
-217.252
  0
LINE
  8
0
 10
202.236
 20
-217.252
 11
202.25
 21
-217.5
  0
LINE
  8
0
 10
202.25
 20
-217.5
 11
202.236
 21
-217.748
  0
LINE
  8
0
 10
202.236
 20
-217.748
 11
202.196
 21
-217.992
  0
LINE
  8
0
 10
202.196
 20
-217.992
 11
202.128
 21
-218.231
  0
LINE
  8
0
 10
202.128
 20
-218.231
 11
202.035
 21
-218.46
  0
LINE
  8
0
 10
202.035
 20
-218.46
 11
201.917
 21
-218.678
  0
LINE
  8
0
 10
201.917
 20
-218.678
 11
201.776
 21
-218.882
  0
LINE
  8
0
 10
201.776
 20
-218.882
 11
201.613
 21
-219.069
  0
LINE
  8
0
 10
201.613
 20
-219.069
 11
201.43
 21
-219.237
  0
LINE
  8
0
 10
201.43
 20
-219.237
 11
201.231
 21
-219.384
  0
LINE
  8
0
 10
201.231
 20
-219.384
 11
201.016
 21
-219.508
  0
LINE
  8
0
 10
201.016
 20
-219.508
 11
200.789
 21
-219.607
  0
LINE
  8
0
 10
200.789
 20
-219.607
 11
200.552
 21
-219.681
  0
LINE
  8
0
 10
200.552
 20
-219.681
 11
200.309
 21
-219.729
  0
LINE
  8
0
 10
200.309
 20
-219.729
 11
200.062
 21
-219.749
  0
LINE
  8
0
 10
200.062
 20
-219.749
 11
199.814
 21
-219.742
  0
LINE
  8
0
 10
-0.185791
 20
-219.742
 11
-0.431335
 21
-219.708
  0
LINE
  8
0
 10
-0.431335
 20
-219.708
 11
-0.671646
 21
-219.647
  0
LINE
  8
0
 10
-0.671646
 20
-219.647
 11
-0.903809
 21
-219.56
  0
LINE
  8
0
 10
-0.903809
 20
-219.56
 11
-1.125
 21
-219.449
  0
LINE
  8
0
 10
-1.125
 20
-219.449
 11
-1.33252
 21
-219.313
  0
LINE
  8
0
 10
-1.33252
 20
-219.313
 11
-1.52388
 21
-219.155
  0
LINE
  8
0
 10
-1.52388
 20
-219.155
 11
-1.69673
 21
-218.978
  0
LINE
  8
0
 10
-1.69673
 20
-218.978
 11
-1.849
 21
-218.782
  0
LINE
  8
0
 10
-1.849
 20
-218.782
 11
-1.97881
 21
-218.571
  0
LINE
  8
0
 10
-1.97881
 20
-218.571
 11
-2.08461
 21
-218.347
  0
LINE
  8
0
 10
-2.08461
 20
-218.347
 11
-2.1651
 21
-218.112
  0
LINE
  8
0
 10
-2.1651
 20
-218.112
 11
-2.2193
 21
-217.87
  0
LINE
  8
0
 10
-2.2193
 20
-217.87
 11
-2.24658
 21
-217.624
  0
LINE
  8
0
 10
-2.24658
 20
-217.624
 11
-2.24658
 21
-217.376
  0
LINE
  8
0
 10
-2.24658
 20
-217.376
 11
-2.2193
 21
-217.13
  0
LINE
  8
0
 10
-2.2193
 20
-217.13
 11
-2.1651
 21
-216.888
  0
LINE
  8
0
 10
-2.1651
 20
-216.888
 11
-2.08461
 21
-216.653
  0
LINE
  8
0
 10
-2.08461
 20
-216.653
 11
-1.97881
 21
-216.429
  0
LINE
  8
0
 10
-1.97881
 20
-216.429
 11
-1.849
 21
-216.218
  0
LINE
  8
0
 10
-1.849
 20
-216.218
 11
-1.69673
 21
-216.022
  0
LINE
  8
0
 10
-1.69673
 20
-216.022
 11
-1.52388
 21
-215.845
  0
LINE
  8
0
 10
-1.52388
 20
-215.845
 11
-1.33252
 21
-215.687
  0
LINE
  8
0
 10
-1.33252
 20
-215.687
 11
-1.125
 21
-215.551
  0
LINE
  8
0
 10
-1.125
 20
-215.551
 11
-0.903809
 21
-215.44
  0
LINE
  8
0
 10
-0.903809
 20
-215.44
 11
-0.671646
 21
-215.353
  0
LINE
  8
0
 10
-0.671646
 20
-215.353
 11
-0.431335
 21
-215.292
  0
LINE
  8
0
 10
-0.431335
 20
-215.292
 11
-0.185791
 21
-215.258
  0
LINE
  8
0
 10
-0.185791
 20
-215.258
 11
0.0619965
 21
-215.251
  0
LINE
  8
0
 10
0.0619965
 20
-215.251
 11
0.309036
 21
-215.271
  0
LINE
  8
0
 10
0.309036
 20
-215.271
 11
0.552338
 21
-215.319
  0
LINE
  8
0
 10
0.552338
 20
-215.319
 11
0.788925
 21
-215.393
  0
LINE
  8
0
 10
0.788925
 20
-215.393
 11
1.01595
 21
-215.492
  0
LINE
  8
0
 10
1.01595
 20
-215.492
 11
1.23062
 21
-215.616
  0
LINE
  8
0
 10
1.23062
 20
-215.616
 11
1.43037
 21
-215.763
  0
LINE
  8
0
 10
1.43037
 20
-215.763
 11
1.61275
 21
-215.931
  0
LINE
  8
0
 10
1.61275
 20
-215.931
 11
1.77556
 21
-216.118
  0
LINE
  8
0
 10
1.77556
 20
-216.118
 11
1.91681
 21
-216.322
  0
LINE
  8
0
 10
1.91681
 20
-216.322
 11
2.03479
 21
-216.54
  0
LINE
  8
0
 10
2.03479
 20
-216.54
 11
2.12808
 21
-216.769
  0
LINE
  8
0
 10
2.12808
 20
-216.769
 11
2.19554
 21
-217.008
  0
LINE
  8
0
 10
2.19554
 20
-217.008
 11
2.23634
 21
-217.252
  0
LINE
  8
0
 10
2.23634
 20
-217.252
 11
2.25
 21
-217.5
  0
LINE
  8
0
 10
2.25
 20
-217.5
 11
2.23634
 21
-217.748
  0
LINE
  8
0
 10
2.23634
 20
-217.748
 11
2.19554
 21
-217.992
  0
LINE
  8
0
 10
2.19554
 20
-217.992
 11
2.12808
 21
-218.231
  0
LINE
  8
0
 10
2.12808
 20
-218.231
 11
2.03479
 21
-218.46
  0
LINE
  8
0
 10
2.03479
 20
-218.46
 11
1.91681
 21
-218.678
  0
LINE
  8
0
 10
1.91681
 20
-218.678
 11
1.77556
 21
-218.882
  0
LINE
  8
0
 10
1.77556
 20
-218.882
 11
1.61275
 21
-219.069
  0
LINE
  8
0
 10
1.61275
 20
-219.069
 11
1.43037
 21
-219.237
  0
LINE
  8
0
 10
1.43037
 20
-219.237
 11
1.23062
 21
-219.384
  0
LINE
  8
0
 10
1.23062
 20
-219.384
 11
1.01595
 21
-219.508
  0
LINE
  8
0
 10
1.01595
 20
-219.508
 11
0.788925
 21
-219.607
  0
LINE
  8
0
 10
0.788925
 20
-219.607
 11
0.552338
 21
-219.681
  0
LINE
  8
0
 10
0.552338
 20
-219.681
 11
0.309036
 21
-219.729
  0
LINE
  8
0
 10
0.309036
 20
-219.729
 11
0.0619965
 21
-219.749
  0
LINE
  8
0
 10
0.0619965
 20
-219.749
 11
-0.185791
 21
-219.742
  0
LINE
  8
0
 10
-200.186
 20
-219.742
 11
-200.431
 21
-219.708
  0
LINE
  8
0
 10
-200.431
 20
-219.708
 11
-200.672
 21
-219.647
  0
LINE
  8
0
 10
-200.672
 20
-219.647
 11
-200.904
 21
-219.56
  0
LINE
  8
0
 10
-200.904
 20
-219.56
 11
-201.125
 21
-219.449
  0
LINE
  8
0
 10
-201.125
 20
-219.449
 11
-201.333
 21
-219.313
  0
LINE
  8
0
 10
-201.333
 20
-219.313
 11
-201.524
 21
-219.155
  0
LINE
  8
0
 10
-201.524
 20
-219.155
 11
-201.697
 21
-218.978
  0
LINE
  8
0
 10
-201.697
 20
-218.978
 11
-201.849
 21
-218.782
  0
LINE
  8
0
 10
-201.849
 20
-218.782
 11
-201.979
 21
-218.571
  0
LINE
  8
0
 10
-201.979
 20
-218.571
 11
-202.085
 21
-218.347
  0
LINE
  8
0
 10
-202.085
 20
-218.347
 11
-202.165
 21
-218.112
  0
LINE
  8
0
 10
-202.165
 20
-218.112
 11
-202.219
 21
-217.87
  0
LINE
  8
0
 10
-202.219
 20
-217.87
 11
-202.247
 21
-217.624
  0
LINE
  8
0
 10
-202.247
 20
-217.624
 11
-202.247
 21
-217.376
  0
LINE
  8
0
 10
-202.247
 20
-217.376
 11
-202.219
 21
-217.13
  0
LINE
  8
0
 10
-202.219
 20
-217.13
 11
-202.165
 21
-216.888
  0
LINE
  8
0
 10
-202.165
 20
-216.888
 11
-202.085
 21
-216.653
  0
LINE
  8
0
 10
-202.085
 20
-216.653
 11
-201.979
 21
-216.429
  0
LINE
  8
0
 10
-201.979
 20
-216.429
 11
-201.849
 21
-216.218
  0
LINE
  8
0
 10
-201.849
 20
-216.218
 11
-201.697
 21
-216.022
  0
LINE
  8
0
 10
-201.697
 20
-216.022
 11
-201.524
 21
-215.845
  0
LINE
  8
0
 10
-201.524
 20
-215.845
 11
-201.333
 21
-215.687
  0
LINE
  8
0
 10
-201.333
 20
-215.687
 11
-201.125
 21
-215.551
  0
LINE
  8
0
 10
-201.125
 20
-215.551
 11
-200.904
 21
-215.44
  0
LINE
  8
0
 10
-200.904
 20
-215.44
 11
-200.672
 21
-215.353
  0
LINE
  8
0
 10
-200.672
 20
-215.353
 11
-200.431
 21
-215.292
  0
LINE
  8
0
 10
-200.431
 20
-215.292
 11
-200.186
 21
-215.258
  0
LINE
  8
0
 10
-200.186
 20
-215.258
 11
-199.938
 21
-215.251
  0
LINE
  8
0
 10
-199.938
 20
-215.251
 11
-199.691
 21
-215.271
  0
LINE
  8
0
 10
-199.691
 20
-215.271
 11
-199.448
 21
-215.319
  0
LINE
  8
0
 10
-199.448
 20
-215.319
 11
-199.211
 21
-215.393
  0
LINE
  8
0
 10
-199.211
 20
-215.393
 11
-198.984
 21
-215.492
  0
LINE
  8
0
 10
-198.984
 20
-215.492
 11
-198.769
 21
-215.616
  0
LINE
  8
0
 10
-198.769
 20
-215.616
 11
-198.57
 21
-215.763
  0
LINE
  8
0
 10
-198.57
 20
-215.763
 11
-198.387
 21
-215.931
  0
LINE
  8
0
 10
-198.387
 20
-215.931
 11
-198.224
 21
-216.118
  0
LINE
  8
0
 10
-198.224
 20
-216.118
 11
-198.083
 21
-216.322
  0
LINE
  8
0
 10
-198.083
 20
-216.322
 11
-197.965
 21
-216.54
  0
LINE
  8
0
 10
-197.965
 20
-216.54
 11
-197.872
 21
-216.769
  0
LINE
  8
0
 10
-197.872
 20
-216.769
 11
-197.804
 21
-217.008
  0
LINE
  8
0
 10
-197.804
 20
-217.008
 11
-197.764
 21
-217.252
  0
LINE
  8
0
 10
-197.764
 20
-217.252
 11
-197.75
 21
-217.5
  0
LINE
  8
0
 10
-197.75
 20
-217.5
 11
-197.764
 21
-217.748
  0
LINE
  8
0
 10
-197.764
 20
-217.748
 11
-197.804
 21
-217.992
  0
LINE
  8
0
 10
-197.804
 20
-217.992
 11
-197.872
 21
-218.231
  0
LINE
  8
0
 10
-197.872
 20
-218.231
 11
-197.965
 21
-218.46
  0
LINE
  8
0
 10
-197.965
 20
-218.46
 11
-198.083
 21
-218.678
  0
LINE
  8
0
 10
-198.083
 20
-218.678
 11
-198.224
 21
-218.882
  0
LINE
  8
0
 10
-198.224
 20
-218.882
 11
-198.387
 21
-219.069
  0
LINE
  8
0
 10
-198.387
 20
-219.069
 11
-198.57
 21
-219.237
  0
LINE
  8
0
 10
-198.57
 20
-219.237
 11
-198.769
 21
-219.384
  0
LINE
  8
0
 10
-198.769
 20
-219.384
 11
-198.984
 21
-219.508
  0
LINE
  8
0
 10
-198.984
 20
-219.508
 11
-199.211
 21
-219.607
  0
LINE
  8
0
 10
-199.211
 20
-219.607
 11
-199.448
 21
-219.681
  0
LINE
  8
0
 10
-199.448
 20
-219.681
 11
-199.691
 21
-219.729
  0
LINE
  8
0
 10
-199.691
 20
-219.729
 11
-199.938
 21
-219.749
  0
LINE
  8
0
 10
-199.938
 20
-219.749
 11
-200.186
 21
-219.742
  0
ENDSEC
  0
SECTION
  2
OBJECTS
  0
DICTIONARY
  0
ENDSEC
  0
EOF
