  0
SECTION
  2
BLOCKS
  0
ENDSEC
  0
SECTION
  2
ENTITIES
  0
LINE
  8
0
 10
245.398
 20
-232.348
 11
245.915
 21
-232.266
  0
LINE
  8
0
 10
245.915
 20
-232.266
 11
246.42
 21
-232.13
  0
LINE
  8
0
 10
246.42
 20
-232.13
 11
246.909
 21
-231.943
  0
LINE
  8
0
 10
246.909
 20
-231.943
 11
247.375
 21
-231.705
  0
LINE
  8
0
 10
247.375
 20
-231.705
 11
247.814
 21
-231.42
  0
LINE
  8
0
 10
247.814
 20
-231.42
 11
248.221
 21
-231.091
  0
LINE
  8
0
 10
248.221
 20
-231.091
 11
248.591
 21
-230.721
  0
LINE
  8
0
 10
248.591
 20
-230.721
 11
248.92
 21
-230.314
  0
LINE
  8
0
 10
248.92
 20
-230.314
 11
249.205
 21
-229.875
  0
LINE
  8
0
 10
249.205
 20
-229.875
 11
249.443
 21
-229.409
  0
LINE
  8
0
 10
249.443
 20
-229.409
 11
249.63
 21
-228.92
  0
LINE
  8
0
 10
249.63
 20
-228.92
 11
249.766
 21
-228.415
  0
LINE
  8
0
 10
249.766
 20
-228.415
 11
249.848
 21
-227.898
  0
LINE
  8
0
 10
249.848
 20
-227.898
 11
249.875
 21
-227.375
  0
LINE
  8
0
 10
249.875
 20
-227.375
 11
249.875
 21
227.375
  0
LINE
  8
0
 10
249.875
 20
227.375
 11
249.848
 21
227.898
  0
LINE
  8
0
 10
249.848
 20
227.898
 11
249.766
 21
228.415
  0
LINE
  8
0
 10
249.766
 20
228.415
 11
249.63
 21
228.92
  0
LINE
  8
0
 10
249.63
 20
228.92
 11
249.443
 21
229.409
  0
LINE
  8
0
 10
249.443
 20
229.409
 11
249.205
 21
229.875
  0
LINE
  8
0
 10
249.205
 20
229.875
 11
248.92
 21
230.314
  0
LINE
  8
0
 10
248.92
 20
230.314
 11
248.591
 21
230.721
  0
LINE
  8
0
 10
248.591
 20
230.721
 11
248.221
 21
231.091
  0
LINE
  8
0
 10
248.221
 20
231.091
 11
247.814
 21
231.42
  0
LINE
  8
0
 10
247.814
 20
231.42
 11
247.375
 21
231.705
  0
LINE
  8
0
 10
247.375
 20
231.705
 11
246.909
 21
231.943
  0
LINE
  8
0
 10
246.909
 20
231.943
 11
246.42
 21
232.13
  0
LINE
  8
0
 10
246.42
 20
232.13
 11
245.915
 21
232.266
  0
LINE
  8
0
 10
245.915
 20
232.266
 11
245.398
 21
232.348
  0
LINE
  8
0
 10
245.398
 20
232.348
 11
244.875
 21
232.375
  0
LINE
  8
0
 10
244.875
 20
232.375
 11
-244.875
 21
232.375
  0
LINE
  8
0
 10
-244.875
 20
232.375
 11
-245.398
 21
232.348
  0
LINE
  8
0
 10
-245.398
 20
232.348
 11
-245.915
 21
232.266
  0
LINE
  8
0
 10
-245.915
 20
232.266
 11
-246.42
 21
232.13
  0
LINE
  8
0
 10
-246.42
 20
232.13
 11
-246.909
 21
231.943
  0
LINE
  8
0
 10
-246.909
 20
231.943
 11
-247.375
 21
231.705
  0
LINE
  8
0
 10
-247.375
 20
231.705
 11
-247.814
 21
231.42
  0
LINE
  8
0
 10
-247.814
 20
231.42
 11
-248.221
 21
231.091
  0
LINE
  8
0
 10
-248.221
 20
231.091
 11
-248.591
 21
230.721
  0
LINE
  8
0
 10
-248.591
 20
230.721
 11
-248.92
 21
230.314
  0
LINE
  8
0
 10
-248.92
 20
230.314
 11
-249.205
 21
229.875
  0
LINE
  8
0
 10
-249.205
 20
229.875
 11
-249.443
 21
229.409
  0
LINE
  8
0
 10
-249.443
 20
229.409
 11
-249.63
 21
228.92
  0
LINE
  8
0
 10
-249.63
 20
228.92
 11
-249.766
 21
228.415
  0
LINE
  8
0
 10
-249.766
 20
228.415
 11
-249.848
 21
227.898
  0
LINE
  8
0
 10
-249.848
 20
227.898
 11
-249.875
 21
227.375
  0
LINE
  8
0
 10
-249.875
 20
227.375
 11
-249.875
 21
-227.375
  0
LINE
  8
0
 10
-249.875
 20
-227.375
 11
-249.848
 21
-227.898
  0
LINE
  8
0
 10
-249.848
 20
-227.898
 11
-249.766
 21
-228.415
  0
LINE
  8
0
 10
-249.766
 20
-228.415
 11
-249.63
 21
-228.92
  0
LINE
  8
0
 10
-249.63
 20
-228.92
 11
-249.443
 21
-229.409
  0
LINE
  8
0
 10
-249.443
 20
-229.409
 11
-249.205
 21
-229.875
  0
LINE
  8
0
 10
-249.205
 20
-229.875
 11
-248.92
 21
-230.314
  0
LINE
  8
0
 10
-248.92
 20
-230.314
 11
-248.591
 21
-230.721
  0
LINE
  8
0
 10
-248.591
 20
-230.721
 11
-248.221
 21
-231.091
  0
LINE
  8
0
 10
-248.221
 20
-231.091
 11
-247.814
 21
-231.42
  0
LINE
  8
0
 10
-247.814
 20
-231.42
 11
-247.375
 21
-231.705
  0
LINE
  8
0
 10
-247.375
 20
-231.705
 11
-246.909
 21
-231.943
  0
LINE
  8
0
 10
-246.909
 20
-231.943
 11
-246.42
 21
-232.13
  0
LINE
  8
0
 10
-246.42
 20
-232.13
 11
-245.915
 21
-232.266
  0
LINE
  8
0
 10
-245.915
 20
-232.266
 11
-245.398
 21
-232.348
  0
LINE
  8
0
 10
-245.398
 20
-232.348
 11
-244.875
 21
-232.375
  0
LINE
  8
0
 10
-244.875
 20
-232.375
 11
244.875
 21
-232.375
  0
LINE
  8
0
 10
244.875
 20
-232.375
 11
245.398
 21
-232.348
  0
LINE
  8
0
 10
239.477
 20
217.527
 11
238.96
 21
217.609
  0
LINE
  8
0
 10
238.96
 20
217.609
 11
238.455
 21
217.745
  0
LINE
  8
0
 10
238.455
 20
217.745
 11
237.966
 21
217.932
  0
LINE
  8
0
 10
237.966
 20
217.932
 11
237.5
 21
218.17
  0
LINE
  8
0
 10
237.5
 20
218.17
 11
237.061
 21
218.455
  0
LINE
  8
0
 10
237.061
 20
218.455
 11
236.654
 21
218.784
  0
LINE
  8
0
 10
236.654
 20
218.784
 11
236.284
 21
219.154
  0
LINE
  8
0
 10
236.284
 20
219.154
 11
235.955
 21
219.561
  0
LINE
  8
0
 10
235.955
 20
219.561
 11
235.67
 21
220
  0
LINE
  8
0
 10
235.67
 20
220
 11
235.432
 21
220.466
  0
LINE
  8
0
 10
235.432
 20
220.466
 11
235.245
 21
220.955
  0
LINE
  8
0
 10
235.245
 20
220.955
 11
235.109
 21
221.46
  0
LINE
  8
0
 10
235.109
 20
221.46
 11
235.027
 21
221.977
  0
LINE
  8
0
 10
235.027
 20
221.977
 11
235
 21
222.5
  0
LINE
  8
0
 10
235
 20
222.5
 11
235.027
 21
223.023
  0
LINE
  8
0
 10
235.027
 20
223.023
 11
235.109
 21
223.54
  0
LINE
  8
0
 10
235.109
 20
223.54
 11
235.245
 21
224.045
  0
LINE
  8
0
 10
235.245
 20
224.045
 11
235.432
 21
224.534
  0
LINE
  8
0
 10
235.432
 20
224.534
 11
235.67
 21
225
  0
LINE
  8
0
 10
235.67
 20
225
 11
235.955
 21
225.439
  0
LINE
  8
0
 10
235.955
 20
225.439
 11
236.284
 21
225.846
  0
LINE
  8
0
 10
236.284
 20
225.846
 11
236.654
 21
226.216
  0
LINE
  8
0
 10
236.654
 20
226.216
 11
237.061
 21
226.545
  0
LINE
  8
0
 10
237.061
 20
226.545
 11
237.5
 21
226.83
  0
LINE
  8
0
 10
237.5
 20
226.83
 11
237.966
 21
227.068
  0
LINE
  8
0
 10
237.966
 20
227.068
 11
238.455
 21
227.255
  0
LINE
  8
0
 10
238.455
 20
227.255
 11
238.96
 21
227.391
  0
LINE
  8
0
 10
238.96
 20
227.391
 11
239.477
 21
227.473
  0
LINE
  8
0
 10
239.477
 20
227.473
 11
240
 21
227.5
  0
LINE
  8
0
 10
240
 20
227.5
 11
240.523
 21
227.473
  0
LINE
  8
0
 10
240.523
 20
227.473
 11
241.04
 21
227.391
  0
LINE
  8
0
 10
241.04
 20
227.391
 11
241.545
 21
227.255
  0
LINE
  8
0
 10
241.545
 20
227.255
 11
242.034
 21
227.068
  0
LINE
  8
0
 10
242.034
 20
227.068
 11
242.5
 21
226.83
  0
LINE
  8
0
 10
242.5
 20
226.83
 11
242.939
 21
226.545
  0
LINE
  8
0
 10
242.939
 20
226.545
 11
243.346
 21
226.216
  0
LINE
  8
0
 10
243.346
 20
226.216
 11
243.716
 21
225.846
  0
LINE
  8
0
 10
243.716
 20
225.846
 11
244.045
 21
225.439
  0
LINE
  8
0
 10
244.045
 20
225.439
 11
244.33
 21
225
  0
LINE
  8
0
 10
244.33
 20
225
 11
244.568
 21
224.534
  0
LINE
  8
0
 10
244.568
 20
224.534
 11
244.755
 21
224.045
  0
LINE
  8
0
 10
244.755
 20
224.045
 11
244.891
 21
223.54
  0
LINE
  8
0
 10
244.891
 20
223.54
 11
244.973
 21
223.023
  0
LINE
  8
0
 10
244.973
 20
223.023
 11
245
 21
222.5
  0
LINE
  8
0
 10
245
 20
222.5
 11
244.973
 21
221.977
  0
LINE
  8
0
 10
244.973
 20
221.977
 11
244.891
 21
221.46
  0
LINE
  8
0
 10
244.891
 20
221.46
 11
244.755
 21
220.955
  0
LINE
  8
0
 10
244.755
 20
220.955
 11
244.568
 21
220.466
  0
LINE
  8
0
 10
244.568
 20
220.466
 11
244.33
 21
220
  0
LINE
  8
0
 10
244.33
 20
220
 11
244.045
 21
219.561
  0
LINE
  8
0
 10
244.045
 20
219.561
 11
243.716
 21
219.154
  0
LINE
  8
0
 10
243.716
 20
219.154
 11
243.346
 21
218.784
  0
LINE
  8
0
 10
243.346
 20
218.784
 11
242.939
 21
218.455
  0
LINE
  8
0
 10
242.939
 20
218.455
 11
242.5
 21
218.17
  0
LINE
  8
0
 10
242.5
 20
218.17
 11
242.034
 21
217.932
  0
LINE
  8
0
 10
242.034
 20
217.932
 11
241.545
 21
217.745
  0
LINE
  8
0
 10
241.545
 20
217.745
 11
241.04
 21
217.609
  0
LINE
  8
0
 10
241.04
 20
217.609
 11
240.523
 21
217.527
  0
LINE
  8
0
 10
240.523
 20
217.527
 11
240
 21
217.5
  0
LINE
  8
0
 10
240
 20
217.5
 11
239.477
 21
217.527
  0
LINE
  8
0
 10
-240.523
 20
217.527
 11
-241.04
 21
217.609
  0
LINE
  8
0
 10
-241.04
 20
217.609
 11
-241.545
 21
217.745
  0
LINE
  8
0
 10
-241.545
 20
217.745
 11
-242.034
 21
217.932
  0
LINE
  8
0
 10
-242.034
 20
217.932
 11
-242.5
 21
218.17
  0
LINE
  8
0
 10
-242.5
 20
218.17
 11
-242.939
 21
218.455
  0
LINE
  8
0
 10
-242.939
 20
218.455
 11
-243.346
 21
218.784
  0
LINE
  8
0
 10
-243.346
 20
218.784
 11
-243.716
 21
219.154
  0
LINE
  8
0
 10
-243.716
 20
219.154
 11
-244.045
 21
219.561
  0
LINE
  8
0
 10
-244.045
 20
219.561
 11
-244.33
 21
220
  0
LINE
  8
0
 10
-244.33
 20
220
 11
-244.568
 21
220.466
  0
LINE
  8
0
 10
-244.568
 20
220.466
 11
-244.755
 21
220.955
  0
LINE
  8
0
 10
-244.755
 20
220.955
 11
-244.891
 21
221.46
  0
LINE
  8
0
 10
-244.891
 20
221.46
 11
-244.973
 21
221.977
  0
LINE
  8
0
 10
-244.973
 20
221.977
 11
-245
 21
222.5
  0
LINE
  8
0
 10
-245
 20
222.5
 11
-244.973
 21
223.023
  0
LINE
  8
0
 10
-244.973
 20
223.023
 11
-244.891
 21
223.54
  0
LINE
  8
0
 10
-244.891
 20
223.54
 11
-244.755
 21
224.045
  0
LINE
  8
0
 10
-244.755
 20
224.045
 11
-244.568
 21
224.534
  0
LINE
  8
0
 10
-244.568
 20
224.534
 11
-244.33
 21
225
  0
LINE
  8
0
 10
-244.33
 20
225
 11
-244.045
 21
225.439
  0
LINE
  8
0
 10
-244.045
 20
225.439
 11
-243.716
 21
225.846
  0
LINE
  8
0
 10
-243.716
 20
225.846
 11
-243.346
 21
226.216
  0
LINE
  8
0
 10
-243.346
 20
226.216
 11
-242.939
 21
226.545
  0
LINE
  8
0
 10
-242.939
 20
226.545
 11
-242.5
 21
226.83
  0
LINE
  8
0
 10
-242.5
 20
226.83
 11
-242.034
 21
227.068
  0
LINE
  8
0
 10
-242.034
 20
227.068
 11
-241.545
 21
227.255
  0
LINE
  8
0
 10
-241.545
 20
227.255
 11
-241.04
 21
227.391
  0
LINE
  8
0
 10
-241.04
 20
227.391
 11
-240.523
 21
227.473
  0
LINE
  8
0
 10
-240.523
 20
227.473
 11
-240
 21
227.5
  0
LINE
  8
0
 10
-240
 20
227.5
 11
-239.477
 21
227.473
  0
LINE
  8
0
 10
-239.477
 20
227.473
 11
-238.96
 21
227.391
  0
LINE
  8
0
 10
-238.96
 20
227.391
 11
-238.455
 21
227.255
  0
LINE
  8
0
 10
-238.455
 20
227.255
 11
-237.966
 21
227.068
  0
LINE
  8
0
 10
-237.966
 20
227.068
 11
-237.5
 21
226.83
  0
LINE
  8
0
 10
-237.5
 20
226.83
 11
-237.061
 21
226.545
  0
LINE
  8
0
 10
-237.061
 20
226.545
 11
-236.654
 21
226.216
  0
LINE
  8
0
 10
-236.654
 20
226.216
 11
-236.284
 21
225.846
  0
LINE
  8
0
 10
-236.284
 20
225.846
 11
-235.955
 21
225.439
  0
LINE
  8
0
 10
-235.955
 20
225.439
 11
-235.67
 21
225
  0
LINE
  8
0
 10
-235.67
 20
225
 11
-235.432
 21
224.534
  0
LINE
  8
0
 10
-235.432
 20
224.534
 11
-235.245
 21
224.045
  0
LINE
  8
0
 10
-235.245
 20
224.045
 11
-235.109
 21
223.54
  0
LINE
  8
0
 10
-235.109
 20
223.54
 11
-235.027
 21
223.023
  0
LINE
  8
0
 10
-235.027
 20
223.023
 11
-235
 21
222.5
  0
LINE
  8
0
 10
-235
 20
222.5
 11
-235.027
 21
221.977
  0
LINE
  8
0
 10
-235.027
 20
221.977
 11
-235.109
 21
221.46
  0
LINE
  8
0
 10
-235.109
 20
221.46
 11
-235.245
 21
220.955
  0
LINE
  8
0
 10
-235.245
 20
220.955
 11
-235.432
 21
220.466
  0
LINE
  8
0
 10
-235.432
 20
220.466
 11
-235.67
 21
220
  0
LINE
  8
0
 10
-235.67
 20
220
 11
-235.955
 21
219.561
  0
LINE
  8
0
 10
-235.955
 20
219.561
 11
-236.284
 21
219.154
  0
LINE
  8
0
 10
-236.284
 20
219.154
 11
-236.654
 21
218.784
  0
LINE
  8
0
 10
-236.654
 20
218.784
 11
-237.061
 21
218.455
  0
LINE
  8
0
 10
-237.061
 20
218.455
 11
-237.5
 21
218.17
  0
LINE
  8
0
 10
-237.5
 20
218.17
 11
-237.966
 21
217.932
  0
LINE
  8
0
 10
-237.966
 20
217.932
 11
-238.455
 21
217.745
  0
LINE
  8
0
 10
-238.455
 20
217.745
 11
-238.96
 21
217.609
  0
LINE
  8
0
 10
-238.96
 20
217.609
 11
-239.477
 21
217.527
  0
LINE
  8
0
 10
-239.477
 20
217.527
 11
-240
 21
217.5
  0
LINE
  8
0
 10
-240
 20
217.5
 11
-240.523
 21
217.527
  0
LINE
  8
0
 10
99.8142
 20
220.258
 11
99.5686
 21
220.292
  0
LINE
  8
0
 10
99.5686
 20
220.292
 11
99.3283
 21
220.353
  0
LINE
  8
0
 10
99.3283
 20
220.353
 11
99.0962
 21
220.44
  0
LINE
  8
0
 10
99.0962
 20
220.44
 11
98.875
 21
220.551
  0
LINE
  8
0
 10
98.875
 20
220.551
 11
98.6675
 21
220.687
  0
LINE
  8
0
 10
98.6675
 20
220.687
 11
98.4761
 21
220.845
  0
LINE
  8
0
 10
98.4761
 20
220.845
 11
98.3033
 21
221.022
  0
LINE
  8
0
 10
98.3033
 20
221.022
 11
98.151
 21
221.218
  0
LINE
  8
0
 10
98.151
 20
221.218
 11
98.0212
 21
221.429
  0
LINE
  8
0
 10
98.0212
 20
221.429
 11
97.9154
 21
221.653
  0
LINE
  8
0
 10
97.9154
 20
221.653
 11
97.8349
 21
221.888
  0
LINE
  8
0
 10
97.8349
 20
221.888
 11
97.7807
 21
222.13
  0
LINE
  8
0
 10
97.7807
 20
222.13
 11
97.7534
 21
222.376
  0
LINE
  8
0
 10
97.7534
 20
222.376
 11
97.7534
 21
222.624
  0
LINE
  8
0
 10
97.7534
 20
222.624
 11
97.7807
 21
222.87
  0
LINE
  8
0
 10
97.7807
 20
222.87
 11
97.8349
 21
223.112
  0
LINE
  8
0
 10
97.8349
 20
223.112
 11
97.9154
 21
223.347
  0
LINE
  8
0
 10
97.9154
 20
223.347
 11
98.0212
 21
223.571
  0
LINE
  8
0
 10
98.0212
 20
223.571
 11
98.151
 21
223.782
  0
LINE
  8
0
 10
98.151
 20
223.782
 11
98.3033
 21
223.978
  0
LINE
  8
0
 10
98.3033
 20
223.978
 11
98.4761
 21
224.155
  0
LINE
  8
0
 10
98.4761
 20
224.155
 11
98.6675
 21
224.313
  0
LINE
  8
0
 10
98.6675
 20
224.313
 11
98.875
 21
224.449
  0
LINE
  8
0
 10
98.875
 20
224.449
 11
99.0962
 21
224.56
  0
LINE
  8
0
 10
99.0962
 20
224.56
 11
99.3283
 21
224.647
  0
LINE
  8
0
 10
99.3283
 20
224.647
 11
99.5686
 21
224.708
  0
LINE
  8
0
 10
99.5686
 20
224.708
 11
99.8142
 21
224.742
  0
LINE
  8
0
 10
99.8142
 20
224.742
 11
100.062
 21
224.749
  0
LINE
  8
0
 10
100.062
 20
224.749
 11
100.309
 21
224.729
  0
LINE
  8
0
 10
100.309
 20
224.729
 11
100.552
 21
224.681
  0
LINE
  8
0
 10
100.552
 20
224.681
 11
100.789
 21
224.607
  0
LINE
  8
0
 10
100.789
 20
224.607
 11
101.016
 21
224.508
  0
LINE
  8
0
 10
101.016
 20
224.508
 11
101.231
 21
224.384
  0
LINE
  8
0
 10
101.231
 20
224.384
 11
101.43
 21
224.237
  0
LINE
  8
0
 10
101.43
 20
224.237
 11
101.613
 21
224.069
  0
LINE
  8
0
 10
101.613
 20
224.069
 11
101.776
 21
223.882
  0
LINE
  8
0
 10
101.776
 20
223.882
 11
101.917
 21
223.678
  0
LINE
  8
0
 10
101.917
 20
223.678
 11
102.035
 21
223.46
  0
LINE
  8
0
 10
102.035
 20
223.46
 11
102.128
 21
223.231
  0
LINE
  8
0
 10
102.128
 20
223.231
 11
102.196
 21
222.992
  0
LINE
  8
0
 10
102.196
 20
222.992
 11
102.236
 21
222.748
  0
LINE
  8
0
 10
102.236
 20
222.748
 11
102.25
 21
222.5
  0
LINE
  8
0
 10
102.25
 20
222.5
 11
102.236
 21
222.252
  0
LINE
  8
0
 10
102.236
 20
222.252
 11
102.196
 21
222.008
  0
LINE
  8
0
 10
102.196
 20
222.008
 11
102.128
 21
221.769
  0
LINE
  8
0
 10
102.128
 20
221.769
 11
102.035
 21
221.54
  0
LINE
  8
0
 10
102.035
 20
221.54
 11
101.917
 21
221.322
  0
LINE
  8
0
 10
101.917
 20
221.322
 11
101.776
 21
221.118
  0
LINE
  8
0
 10
101.776
 20
221.118
 11
101.613
 21
220.931
  0
LINE
  8
0
 10
101.613
 20
220.931
 11
101.43
 21
220.763
  0
LINE
  8
0
 10
101.43
 20
220.763
 11
101.231
 21
220.616
  0
LINE
  8
0
 10
101.231
 20
220.616
 11
101.016
 21
220.492
  0
LINE
  8
0
 10
101.016
 20
220.492
 11
100.789
 21
220.393
  0
LINE
  8
0
 10
100.789
 20
220.393
 11
100.552
 21
220.319
  0
LINE
  8
0
 10
100.552
 20
220.319
 11
100.309
 21
220.271
  0
LINE
  8
0
 10
100.309
 20
220.271
 11
100.062
 21
220.251
  0
LINE
  8
0
 10
100.062
 20
220.251
 11
99.8142
 21
220.258
  0
LINE
  8
0
 10
-0.185791
 20
220.258
 11
-0.431335
 21
220.292
  0
LINE
  8
0
 10
-0.431335
 20
220.292
 11
-0.671646
 21
220.353
  0
LINE
  8
0
 10
-0.671646
 20
220.353
 11
-0.903809
 21
220.44
  0
LINE
  8
0
 10
-0.903809
 20
220.44
 11
-1.125
 21
220.551
  0
LINE
  8
0
 10
-1.125
 20
220.551
 11
-1.33252
 21
220.687
  0
LINE
  8
0
 10
-1.33252
 20
220.687
 11
-1.52388
 21
220.845
  0
LINE
  8
0
 10
-1.52388
 20
220.845
 11
-1.69673
 21
221.022
  0
LINE
  8
0
 10
-1.69673
 20
221.022
 11
-1.849
 21
221.218
  0
LINE
  8
0
 10
-1.849
 20
221.218
 11
-1.97881
 21
221.429
  0
LINE
  8
0
 10
-1.97881
 20
221.429
 11
-2.08461
 21
221.653
  0
LINE
  8
0
 10
-2.08461
 20
221.653
 11
-2.1651
 21
221.888
  0
LINE
  8
0
 10
-2.1651
 20
221.888
 11
-2.2193
 21
222.13
  0
LINE
  8
0
 10
-2.2193
 20
222.13
 11
-2.24658
 21
222.376
  0
LINE
  8
0
 10
-2.24658
 20
222.376
 11
-2.24658
 21
222.624
  0
LINE
  8
0
 10
-2.24658
 20
222.624
 11
-2.2193
 21
222.87
  0
LINE
  8
0
 10
-2.2193
 20
222.87
 11
-2.1651
 21
223.112
  0
LINE
  8
0
 10
-2.1651
 20
223.112
 11
-2.08461
 21
223.347
  0
LINE
  8
0
 10
-2.08461
 20
223.347
 11
-1.97881
 21
223.571
  0
LINE
  8
0
 10
-1.97881
 20
223.571
 11
-1.849
 21
223.782
  0
LINE
  8
0
 10
-1.849
 20
223.782
 11
-1.69673
 21
223.978
  0
LINE
  8
0
 10
-1.69673
 20
223.978
 11
-1.52388
 21
224.155
  0
LINE
  8
0
 10
-1.52388
 20
224.155
 11
-1.33252
 21
224.313
  0
LINE
  8
0
 10
-1.33252
 20
224.313
 11
-1.125
 21
224.449
  0
LINE
  8
0
 10
-1.125
 20
224.449
 11
-0.903809
 21
224.56
  0
LINE
  8
0
 10
-0.903809
 20
224.56
 11
-0.671646
 21
224.647
  0
LINE
  8
0
 10
-0.671646
 20
224.647
 11
-0.431335
 21
224.708
  0
LINE
  8
0
 10
-0.431335
 20
224.708
 11
-0.185791
 21
224.742
  0
LINE
  8
0
 10
-0.185791
 20
224.742
 11
0.0619965
 21
224.749
  0
LINE
  8
0
 10
0.0619965
 20
224.749
 11
0.309036
 21
224.729
  0
LINE
  8
0
 10
0.309036
 20
224.729
 11
0.552338
 21
224.681
  0
LINE
  8
0
 10
0.552338
 20
224.681
 11
0.788925
 21
224.607
  0
LINE
  8
0
 10
0.788925
 20
224.607
 11
1.01595
 21
224.508
  0
LINE
  8
0
 10
1.01595
 20
224.508
 11
1.23062
 21
224.384
  0
LINE
  8
0
 10
1.23062
 20
224.384
 11
1.43037
 21
224.237
  0
LINE
  8
0
 10
1.43037
 20
224.237
 11
1.61275
 21
224.069
  0
LINE
  8
0
 10
1.61275
 20
224.069
 11
1.77556
 21
223.882
  0
LINE
  8
0
 10
1.77556
 20
223.882
 11
1.91681
 21
223.678
  0
LINE
  8
0
 10
1.91681
 20
223.678
 11
2.03479
 21
223.46
  0
LINE
  8
0
 10
2.03479
 20
223.46
 11
2.12808
 21
223.231
  0
LINE
  8
0
 10
2.12808
 20
223.231
 11
2.19554
 21
222.992
  0
LINE
  8
0
 10
2.19554
 20
222.992
 11
2.23634
 21
222.748
  0
LINE
  8
0
 10
2.23634
 20
222.748
 11
2.25
 21
222.5
  0
LINE
  8
0
 10
2.25
 20
222.5
 11
2.23634
 21
222.252
  0
LINE
  8
0
 10
2.23634
 20
222.252
 11
2.19554
 21
222.008
  0
LINE
  8
0
 10
2.19554
 20
222.008
 11
2.12808
 21
221.769
  0
LINE
  8
0
 10
2.12808
 20
221.769
 11
2.03479
 21
221.54
  0
LINE
  8
0
 10
2.03479
 20
221.54
 11
1.91681
 21
221.322
  0
LINE
  8
0
 10
1.91681
 20
221.322
 11
1.77556
 21
221.118
  0
LINE
  8
0
 10
1.77556
 20
221.118
 11
1.61275
 21
220.931
  0
LINE
  8
0
 10
1.61275
 20
220.931
 11
1.43037
 21
220.763
  0
LINE
  8
0
 10
1.43037
 20
220.763
 11
1.23062
 21
220.616
  0
LINE
  8
0
 10
1.23062
 20
220.616
 11
1.01595
 21
220.492
  0
LINE
  8
0
 10
1.01595
 20
220.492
 11
0.788925
 21
220.393
  0
LINE
  8
0
 10
0.788925
 20
220.393
 11
0.552338
 21
220.319
  0
LINE
  8
0
 10
0.552338
 20
220.319
 11
0.309036
 21
220.271
  0
LINE
  8
0
 10
0.309036
 20
220.271
 11
0.0619965
 21
220.251
  0
LINE
  8
0
 10
0.0619965
 20
220.251
 11
-0.185791
 21
220.258
  0
LINE
  8
0
 10
-200.186
 20
220.258
 11
-200.431
 21
220.292
  0
LINE
  8
0
 10
-200.431
 20
220.292
 11
-200.672
 21
220.353
  0
LINE
  8
0
 10
-200.672
 20
220.353
 11
-200.904
 21
220.44
  0
LINE
  8
0
 10
-200.904
 20
220.44
 11
-201.125
 21
220.551
  0
LINE
  8
0
 10
-201.125
 20
220.551
 11
-201.333
 21
220.687
  0
LINE
  8
0
 10
-201.333
 20
220.687
 11
-201.524
 21
220.845
  0
LINE
  8
0
 10
-201.524
 20
220.845
 11
-201.697
 21
221.022
  0
LINE
  8
0
 10
-201.697
 20
221.022
 11
-201.849
 21
221.218
  0
LINE
  8
0
 10
-201.849
 20
221.218
 11
-201.979
 21
221.429
  0
LINE
  8
0
 10
-201.979
 20
221.429
 11
-202.085
 21
221.653
  0
LINE
  8
0
 10
-202.085
 20
221.653
 11
-202.165
 21
221.888
  0
LINE
  8
0
 10
-202.165
 20
221.888
 11
-202.219
 21
222.13
  0
LINE
  8
0
 10
-202.219
 20
222.13
 11
-202.247
 21
222.376
  0
LINE
  8
0
 10
-202.247
 20
222.376
 11
-202.247
 21
222.624
  0
LINE
  8
0
 10
-202.247
 20
222.624
 11
-202.219
 21
222.87
  0
LINE
  8
0
 10
-202.219
 20
222.87
 11
-202.165
 21
223.112
  0
LINE
  8
0
 10
-202.165
 20
223.112
 11
-202.085
 21
223.347
  0
LINE
  8
0
 10
-202.085
 20
223.347
 11
-201.979
 21
223.571
  0
LINE
  8
0
 10
-201.979
 20
223.571
 11
-201.849
 21
223.782
  0
LINE
  8
0
 10
-201.849
 20
223.782
 11
-201.697
 21
223.978
  0
LINE
  8
0
 10
-201.697
 20
223.978
 11
-201.524
 21
224.155
  0
LINE
  8
0
 10
-201.524
 20
224.155
 11
-201.333
 21
224.313
  0
LINE
  8
0
 10
-201.333
 20
224.313
 11
-201.125
 21
224.449
  0
LINE
  8
0
 10
-201.125
 20
224.449
 11
-200.904
 21
224.56
  0
LINE
  8
0
 10
-200.904
 20
224.56
 11
-200.672
 21
224.647
  0
LINE
  8
0
 10
-200.672
 20
224.647
 11
-200.431
 21
224.708
  0
LINE
  8
0
 10
-200.431
 20
224.708
 11
-200.186
 21
224.742
  0
LINE
  8
0
 10
-200.186
 20
224.742
 11
-199.938
 21
224.749
  0
LINE
  8
0
 10
-199.938
 20
224.749
 11
-199.691
 21
224.729
  0
LINE
  8
0
 10
-199.691
 20
224.729
 11
-199.448
 21
224.681
  0
LINE
  8
0
 10
-199.448
 20
224.681
 11
-199.211
 21
224.607
  0
LINE
  8
0
 10
-199.211
 20
224.607
 11
-198.984
 21
224.508
  0
LINE
  8
0
 10
-198.984
 20
224.508
 11
-198.769
 21
224.384
  0
LINE
  8
0
 10
-198.769
 20
224.384
 11
-198.57
 21
224.237
  0
LINE
  8
0
 10
-198.57
 20
224.237
 11
-198.387
 21
224.069
  0
LINE
  8
0
 10
-198.387
 20
224.069
 11
-198.224
 21
223.882
  0
LINE
  8
0
 10
-198.224
 20
223.882
 11
-198.083
 21
223.678
  0
LINE
  8
0
 10
-198.083
 20
223.678
 11
-197.965
 21
223.46
  0
LINE
  8
0
 10
-197.965
 20
223.46
 11
-197.872
 21
223.231
  0
LINE
  8
0
 10
-197.872
 20
223.231
 11
-197.804
 21
222.992
  0
LINE
  8
0
 10
-197.804
 20
222.992
 11
-197.764
 21
222.748
  0
LINE
  8
0
 10
-197.764
 20
222.748
 11
-197.75
 21
222.5
  0
LINE
  8
0
 10
-197.75
 20
222.5
 11
-197.764
 21
222.252
  0
LINE
  8
0
 10
-197.764
 20
222.252
 11
-197.804
 21
222.008
  0
LINE
  8
0
 10
-197.804
 20
222.008
 11
-197.872
 21
221.769
  0
LINE
  8
0
 10
-197.872
 20
221.769
 11
-197.965
 21
221.54
  0
LINE
  8
0
 10
-197.965
 20
221.54
 11
-198.083
 21
221.322
  0
LINE
  8
0
 10
-198.083
 20
221.322
 11
-198.224
 21
221.118
  0
LINE
  8
0
 10
-198.224
 20
221.118
 11
-198.387
 21
220.931
  0
LINE
  8
0
 10
-198.387
 20
220.931
 11
-198.57
 21
220.763
  0
LINE
  8
0
 10
-198.57
 20
220.763
 11
-198.769
 21
220.616
  0
LINE
  8
0
 10
-198.769
 20
220.616
 11
-198.984
 21
220.492
  0
LINE
  8
0
 10
-198.984
 20
220.492
 11
-199.211
 21
220.393
  0
LINE
  8
0
 10
-199.211
 20
220.393
 11
-199.448
 21
220.319
  0
LINE
  8
0
 10
-199.448
 20
220.319
 11
-199.691
 21
220.271
  0
LINE
  8
0
 10
-199.691
 20
220.271
 11
-199.938
 21
220.251
  0
LINE
  8
0
 10
-199.938
 20
220.251
 11
-200.186
 21
220.258
  0
LINE
  8
0
 10
199.814
 20
220.258
 11
199.569
 21
220.292
  0
LINE
  8
0
 10
199.569
 20
220.292
 11
199.328
 21
220.353
  0
LINE
  8
0
 10
199.328
 20
220.353
 11
199.096
 21
220.44
  0
LINE
  8
0
 10
199.096
 20
220.44
 11
198.875
 21
220.551
  0
LINE
  8
0
 10
198.875
 20
220.551
 11
198.667
 21
220.687
  0
LINE
  8
0
 10
198.667
 20
220.687
 11
198.476
 21
220.845
  0
LINE
  8
0
 10
198.476
 20
220.845
 11
198.303
 21
221.022
  0
LINE
  8
0
 10
198.303
 20
221.022
 11
198.151
 21
221.218
  0
LINE
  8
0
 10
198.151
 20
221.218
 11
198.021
 21
221.429
  0
LINE
  8
0
 10
198.021
 20
221.429
 11
197.915
 21
221.653
  0
LINE
  8
0
 10
197.915
 20
221.653
 11
197.835
 21
221.888
  0
LINE
  8
0
 10
197.835
 20
221.888
 11
197.781
 21
222.13
  0
LINE
  8
0
 10
197.781
 20
222.13
 11
197.753
 21
222.376
  0
LINE
  8
0
 10
197.753
 20
222.376
 11
197.753
 21
222.624
  0
LINE
  8
0
 10
197.753
 20
222.624
 11
197.781
 21
222.87
  0
LINE
  8
0
 10
197.781
 20
222.87
 11
197.835
 21
223.112
  0
LINE
  8
0
 10
197.835
 20
223.112
 11
197.915
 21
223.347
  0
LINE
  8
0
 10
197.915
 20
223.347
 11
198.021
 21
223.571
  0
LINE
  8
0
 10
198.021
 20
223.571
 11
198.151
 21
223.782
  0
LINE
  8
0
 10
198.151
 20
223.782
 11
198.303
 21
223.978
  0
LINE
  8
0
 10
198.303
 20
223.978
 11
198.476
 21
224.155
  0
LINE
  8
0
 10
198.476
 20
224.155
 11
198.667
 21
224.313
  0
LINE
  8
0
 10
198.667
 20
224.313
 11
198.875
 21
224.449
  0
LINE
  8
0
 10
198.875
 20
224.449
 11
199.096
 21
224.56
  0
LINE
  8
0
 10
199.096
 20
224.56
 11
199.328
 21
224.647
  0
LINE
  8
0
 10
199.328
 20
224.647
 11
199.569
 21
224.708
  0
LINE
  8
0
 10
199.569
 20
224.708
 11
199.814
 21
224.742
  0
LINE
  8
0
 10
199.814
 20
224.742
 11
200.062
 21
224.749
  0
LINE
  8
0
 10
200.062
 20
224.749
 11
200.309
 21
224.729
  0
LINE
  8
0
 10
200.309
 20
224.729
 11
200.552
 21
224.681
  0
LINE
  8
0
 10
200.552
 20
224.681
 11
200.789
 21
224.607
  0
LINE
  8
0
 10
200.789
 20
224.607
 11
201.016
 21
224.508
  0
LINE
  8
0
 10
201.016
 20
224.508
 11
201.231
 21
224.384
  0
LINE
  8
0
 10
201.231
 20
224.384
 11
201.43
 21
224.237
  0
LINE
  8
0
 10
201.43
 20
224.237
 11
201.613
 21
224.069
  0
LINE
  8
0
 10
201.613
 20
224.069
 11
201.776
 21
223.882
  0
LINE
  8
0
 10
201.776
 20
223.882
 11
201.917
 21
223.678
  0
LINE
  8
0
 10
201.917
 20
223.678
 11
202.035
 21
223.46
  0
LINE
  8
0
 10
202.035
 20
223.46
 11
202.128
 21
223.231
  0
LINE
  8
0
 10
202.128
 20
223.231
 11
202.196
 21
222.992
  0
LINE
  8
0
 10
202.196
 20
222.992
 11
202.236
 21
222.748
  0
LINE
  8
0
 10
202.236
 20
222.748
 11
202.25
 21
222.5
  0
LINE
  8
0
 10
202.25
 20
222.5
 11
202.236
 21
222.252
  0
LINE
  8
0
 10
202.236
 20
222.252
 11
202.196
 21
222.008
  0
LINE
  8
0
 10
202.196
 20
222.008
 11
202.128
 21
221.769
  0
LINE
  8
0
 10
202.128
 20
221.769
 11
202.035
 21
221.54
  0
LINE
  8
0
 10
202.035
 20
221.54
 11
201.917
 21
221.322
  0
LINE
  8
0
 10
201.917
 20
221.322
 11
201.776
 21
221.118
  0
LINE
  8
0
 10
201.776
 20
221.118
 11
201.613
 21
220.931
  0
LINE
  8
0
 10
201.613
 20
220.931
 11
201.43
 21
220.763
  0
LINE
  8
0
 10
201.43
 20
220.763
 11
201.231
 21
220.616
  0
LINE
  8
0
 10
201.231
 20
220.616
 11
201.016
 21
220.492
  0
LINE
  8
0
 10
201.016
 20
220.492
 11
200.789
 21
220.393
  0
LINE
  8
0
 10
200.789
 20
220.393
 11
200.552
 21
220.319
  0
LINE
  8
0
 10
200.552
 20
220.319
 11
200.309
 21
220.271
  0
LINE
  8
0
 10
200.309
 20
220.271
 11
200.062
 21
220.251
  0
LINE
  8
0
 10
200.062
 20
220.251
 11
199.814
 21
220.258
  0
LINE
  8
0
 10
-100.186
 20
220.258
 11
-100.431
 21
220.292
  0
LINE
  8
0
 10
-100.431
 20
220.292
 11
-100.672
 21
220.353
  0
LINE
  8
0
 10
-100.672
 20
220.353
 11
-100.904
 21
220.44
  0
LINE
  8
0
 10
-100.904
 20
220.44
 11
-101.125
 21
220.551
  0
LINE
  8
0
 10
-101.125
 20
220.551
 11
-101.333
 21
220.687
  0
LINE
  8
0
 10
-101.333
 20
220.687
 11
-101.524
 21
220.845
  0
LINE
  8
0
 10
-101.524
 20
220.845
 11
-101.697
 21
221.022
  0
LINE
  8
0
 10
-101.697
 20
221.022
 11
-101.849
 21
221.218
  0
LINE
  8
0
 10
-101.849
 20
221.218
 11
-101.979
 21
221.429
  0
LINE
  8
0
 10
-101.979
 20
221.429
 11
-102.085
 21
221.653
  0
LINE
  8
0
 10
-102.085
 20
221.653
 11
-102.165
 21
221.888
  0
LINE
  8
0
 10
-102.165
 20
221.888
 11
-102.219
 21
222.13
  0
LINE
  8
0
 10
-102.219
 20
222.13
 11
-102.247
 21
222.376
  0
LINE
  8
0
 10
-102.247
 20
222.376
 11
-102.247
 21
222.624
  0
LINE
  8
0
 10
-102.247
 20
222.624
 11
-102.219
 21
222.87
  0
LINE
  8
0
 10
-102.219
 20
222.87
 11
-102.165
 21
223.112
  0
LINE
  8
0
 10
-102.165
 20
223.112
 11
-102.085
 21
223.347
  0
LINE
  8
0
 10
-102.085
 20
223.347
 11
-101.979
 21
223.571
  0
LINE
  8
0
 10
-101.979
 20
223.571
 11
-101.849
 21
223.782
  0
LINE
  8
0
 10
-101.849
 20
223.782
 11
-101.697
 21
223.978
  0
LINE
  8
0
 10
-101.697
 20
223.978
 11
-101.524
 21
224.155
  0
LINE
  8
0
 10
-101.524
 20
224.155
 11
-101.333
 21
224.313
  0
LINE
  8
0
 10
-101.333
 20
224.313
 11
-101.125
 21
224.449
  0
LINE
  8
0
 10
-101.125
 20
224.449
 11
-100.904
 21
224.56
  0
LINE
  8
0
 10
-100.904
 20
224.56
 11
-100.672
 21
224.647
  0
LINE
  8
0
 10
-100.672
 20
224.647
 11
-100.431
 21
224.708
  0
LINE
  8
0
 10
-100.431
 20
224.708
 11
-100.186
 21
224.742
  0
LINE
  8
0
 10
-100.186
 20
224.742
 11
-99.938
 21
224.749
  0
LINE
  8
0
 10
-99.938
 20
224.749
 11
-99.6909
 21
224.729
  0
LINE
  8
0
 10
-99.6909
 20
224.729
 11
-99.4476
 21
224.681
  0
LINE
  8
0
 10
-99.4476
 20
224.681
 11
-99.2111
 21
224.607
  0
LINE
  8
0
 10
-99.2111
 20
224.607
 11
-98.984
 21
224.508
  0
LINE
  8
0
 10
-98.984
 20
224.508
 11
-98.7694
 21
224.384
  0
LINE
  8
0
 10
-98.7694
 20
224.384
 11
-98.5696
 21
224.237
  0
LINE
  8
0
 10
-98.5696
 20
224.237
 11
-98.3872
 21
224.069
  0
LINE
  8
0
 10
-98.3872
 20
224.069
 11
-98.2244
 21
223.882
  0
LINE
  8
0
 10
-98.2244
 20
223.882
 11
-98.0832
 21
223.678
  0
LINE
  8
0
 10
-98.0832
 20
223.678
 11
-97.9652
 21
223.46
  0
LINE
  8
0
 10
-97.9652
 20
223.46
 11
-97.8719
 21
223.231
  0
LINE
  8
0
 10
-97.8719
 20
223.231
 11
-97.8045
 21
222.992
  0
LINE
  8
0
 10
-97.8045
 20
222.992
 11
-97.7637
 21
222.748
  0
LINE
  8
0
 10
-97.7637
 20
222.748
 11
-97.75
 21
222.5
  0
LINE
  8
0
 10
-97.75
 20
222.5
 11
-97.7637
 21
222.252
  0
LINE
  8
0
 10
-97.7637
 20
222.252
 11
-97.8045
 21
222.008
  0
LINE
  8
0
 10
-97.8045
 20
222.008
 11
-97.8719
 21
221.769
  0
LINE
  8
0
 10
-97.8719
 20
221.769
 11
-97.9652
 21
221.54
  0
LINE
  8
0
 10
-97.9652
 20
221.54
 11
-98.0832
 21
221.322
  0
LINE
  8
0
 10
-98.0832
 20
221.322
 11
-98.2244
 21
221.118
  0
LINE
  8
0
 10
-98.2244
 20
221.118
 11
-98.3872
 21
220.931
  0
LINE
  8
0
 10
-98.3872
 20
220.931
 11
-98.5696
 21
220.763
  0
LINE
  8
0
 10
-98.5696
 20
220.763
 11
-98.7694
 21
220.616
  0
LINE
  8
0
 10
-98.7694
 20
220.616
 11
-98.984
 21
220.492
  0
LINE
  8
0
 10
-98.984
 20
220.492
 11
-99.2111
 21
220.393
  0
LINE
  8
0
 10
-99.2111
 20
220.393
 11
-99.4476
 21
220.319
  0
LINE
  8
0
 10
-99.4476
 20
220.319
 11
-99.6909
 21
220.271
  0
LINE
  8
0
 10
-99.6909
 20
220.271
 11
-99.938
 21
220.251
  0
LINE
  8
0
 10
-99.938
 20
220.251
 11
-100.186
 21
220.258
  0
LINE
  8
0
 10
-240.309
 20
180.271
 11
-240.552
 21
180.319
  0
LINE
  8
0
 10
-240.552
 20
180.319
 11
-240.789
 21
180.393
  0
LINE
  8
0
 10
-240.789
 20
180.393
 11
-241.016
 21
180.492
  0
LINE
  8
0
 10
-241.016
 20
180.492
 11
-241.231
 21
180.616
  0
LINE
  8
0
 10
-241.231
 20
180.616
 11
-241.43
 21
180.763
  0
LINE
  8
0
 10
-241.43
 20
180.763
 11
-241.613
 21
180.931
  0
LINE
  8
0
 10
-241.613
 20
180.931
 11
-241.776
 21
181.118
  0
LINE
  8
0
 10
-241.776
 20
181.118
 11
-241.917
 21
181.322
  0
LINE
  8
0
 10
-241.917
 20
181.322
 11
-242.035
 21
181.54
  0
LINE
  8
0
 10
-242.035
 20
181.54
 11
-242.128
 21
181.769
  0
LINE
  8
0
 10
-242.128
 20
181.769
 11
-242.196
 21
182.008
  0
LINE
  8
0
 10
-242.196
 20
182.008
 11
-242.236
 21
182.252
  0
LINE
  8
0
 10
-242.236
 20
182.252
 11
-242.25
 21
182.5
  0
LINE
  8
0
 10
-242.25
 20
182.5
 11
-242.236
 21
182.748
  0
LINE
  8
0
 10
-242.236
 20
182.748
 11
-242.196
 21
182.992
  0
LINE
  8
0
 10
-242.196
 20
182.992
 11
-242.128
 21
183.231
  0
LINE
  8
0
 10
-242.128
 20
183.231
 11
-242.035
 21
183.46
  0
LINE
  8
0
 10
-242.035
 20
183.46
 11
-241.917
 21
183.678
  0
LINE
  8
0
 10
-241.917
 20
183.678
 11
-241.776
 21
183.882
  0
LINE
  8
0
 10
-241.776
 20
183.882
 11
-241.613
 21
184.069
  0
LINE
  8
0
 10
-241.613
 20
184.069
 11
-241.43
 21
184.237
  0
LINE
  8
0
 10
-241.43
 20
184.237
 11
-241.231
 21
184.384
  0
LINE
  8
0
 10
-241.231
 20
184.384
 11
-241.016
 21
184.508
  0
LINE
  8
0
 10
-241.016
 20
184.508
 11
-240.789
 21
184.607
  0
LINE
  8
0
 10
-240.789
 20
184.607
 11
-240.552
 21
184.681
  0
LINE
  8
0
 10
-240.552
 20
184.681
 11
-240.309
 21
184.729
  0
LINE
  8
0
 10
-240.309
 20
184.729
 11
-240.062
 21
184.749
  0
LINE
  8
0
 10
-240.062
 20
184.749
 11
-239.814
 21
184.742
  0
LINE
  8
0
 10
-239.814
 20
184.742
 11
-239.569
 21
184.708
  0
LINE
  8
0
 10
-239.569
 20
184.708
 11
-239.328
 21
184.647
  0
LINE
  8
0
 10
-239.328
 20
184.647
 11
-239.096
 21
184.56
  0
LINE
  8
0
 10
-239.096
 20
184.56
 11
-238.875
 21
184.449
  0
LINE
  8
0
 10
-238.875
 20
184.449
 11
-238.667
 21
184.313
  0
LINE
  8
0
 10
-238.667
 20
184.313
 11
-238.476
 21
184.155
  0
LINE
  8
0
 10
-238.476
 20
184.155
 11
-238.303
 21
183.978
  0
LINE
  8
0
 10
-238.303
 20
183.978
 11
-238.151
 21
183.782
  0
LINE
  8
0
 10
-238.151
 20
183.782
 11
-238.021
 21
183.571
  0
LINE
  8
0
 10
-238.021
 20
183.571
 11
-237.915
 21
183.347
  0
LINE
  8
0
 10
-237.915
 20
183.347
 11
-237.835
 21
183.112
  0
LINE
  8
0
 10
-237.835
 20
183.112
 11
-237.781
 21
182.87
  0
LINE
  8
0
 10
-237.781
 20
182.87
 11
-237.753
 21
182.624
  0
LINE
  8
0
 10
-237.753
 20
182.624
 11
-237.753
 21
182.376
  0
LINE
  8
0
 10
-237.753
 20
182.376
 11
-237.781
 21
182.13
  0
LINE
  8
0
 10
-237.781
 20
182.13
 11
-237.835
 21
181.888
  0
LINE
  8
0
 10
-237.835
 20
181.888
 11
-237.915
 21
181.653
  0
LINE
  8
0
 10
-237.915
 20
181.653
 11
-238.021
 21
181.429
  0
LINE
  8
0
 10
-238.021
 20
181.429
 11
-238.151
 21
181.218
  0
LINE
  8
0
 10
-238.151
 20
181.218
 11
-238.303
 21
181.022
  0
LINE
  8
0
 10
-238.303
 20
181.022
 11
-238.476
 21
180.845
  0
LINE
  8
0
 10
-238.476
 20
180.845
 11
-238.667
 21
180.687
  0
LINE
  8
0
 10
-238.667
 20
180.687
 11
-238.875
 21
180.551
  0
LINE
  8
0
 10
-238.875
 20
180.551
 11
-239.096
 21
180.44
  0
LINE
  8
0
 10
-239.096
 20
180.44
 11
-239.328
 21
180.353
  0
LINE
  8
0
 10
-239.328
 20
180.353
 11
-239.569
 21
180.292
  0
LINE
  8
0
 10
-239.569
 20
180.292
 11
-239.814
 21
180.258
  0
LINE
  8
0
 10
-239.814
 20
180.258
 11
-240.062
 21
180.251
  0
LINE
  8
0
 10
-240.062
 20
180.251
 11
-240.309
 21
180.271
  0
LINE
  8
0
 10
179.814
 20
180.258
 11
179.569
 21
180.292
  0
LINE
  8
0
 10
179.569
 20
180.292
 11
179.328
 21
180.353
  0
LINE
  8
0
 10
179.328
 20
180.353
 11
179.096
 21
180.44
  0
LINE
  8
0
 10
179.096
 20
180.44
 11
178.875
 21
180.551
  0
LINE
  8
0
 10
178.875
 20
180.551
 11
178.667
 21
180.687
  0
LINE
  8
0
 10
178.667
 20
180.687
 11
178.476
 21
180.845
  0
LINE
  8
0
 10
178.476
 20
180.845
 11
178.303
 21
181.022
  0
LINE
  8
0
 10
178.303
 20
181.022
 11
178.151
 21
181.218
  0
LINE
  8
0
 10
178.151
 20
181.218
 11
178.021
 21
181.429
  0
LINE
  8
0
 10
178.021
 20
181.429
 11
177.915
 21
181.653
  0
LINE
  8
0
 10
177.915
 20
181.653
 11
177.835
 21
181.888
  0
LINE
  8
0
 10
177.835
 20
181.888
 11
177.781
 21
182.13
  0
LINE
  8
0
 10
177.781
 20
182.13
 11
177.753
 21
182.376
  0
LINE
  8
0
 10
177.753
 20
182.376
 11
177.753
 21
182.624
  0
LINE
  8
0
 10
177.753
 20
182.624
 11
177.781
 21
182.87
  0
LINE
  8
0
 10
177.781
 20
182.87
 11
177.835
 21
183.112
  0
LINE
  8
0
 10
177.835
 20
183.112
 11
177.915
 21
183.347
  0
LINE
  8
0
 10
177.915
 20
183.347
 11
178.021
 21
183.571
  0
LINE
  8
0
 10
178.021
 20
183.571
 11
178.151
 21
183.782
  0
LINE
  8
0
 10
178.151
 20
183.782
 11
178.303
 21
183.978
  0
LINE
  8
0
 10
178.303
 20
183.978
 11
178.476
 21
184.155
  0
LINE
  8
0
 10
178.476
 20
184.155
 11
178.667
 21
184.313
  0
LINE
  8
0
 10
178.667
 20
184.313
 11
178.875
 21
184.449
  0
LINE
  8
0
 10
178.875
 20
184.449
 11
179.096
 21
184.56
  0
LINE
  8
0
 10
179.096
 20
184.56
 11
179.328
 21
184.647
  0
LINE
  8
0
 10
179.328
 20
184.647
 11
179.569
 21
184.708
  0
LINE
  8
0
 10
179.569
 20
184.708
 11
179.814
 21
184.742
  0
LINE
  8
0
 10
179.814
 20
184.742
 11
180.062
 21
184.749
  0
LINE
  8
0
 10
180.062
 20
184.749
 11
180.309
 21
184.729
  0
LINE
  8
0
 10
180.309
 20
184.729
 11
180.552
 21
184.681
  0
LINE
  8
0
 10
180.552
 20
184.681
 11
180.789
 21
184.607
  0
LINE
  8
0
 10
180.789
 20
184.607
 11
181.016
 21
184.508
  0
LINE
  8
0
 10
181.016
 20
184.508
 11
181.231
 21
184.384
  0
LINE
  8
0
 10
181.231
 20
184.384
 11
181.43
 21
184.237
  0
LINE
  8
0
 10
181.43
 20
184.237
 11
181.613
 21
184.069
  0
LINE
  8
0
 10
181.613
 20
184.069
 11
181.776
 21
183.882
  0
LINE
  8
0
 10
181.776
 20
183.882
 11
181.917
 21
183.678
  0
LINE
  8
0
 10
181.917
 20
183.678
 11
182.035
 21
183.46
  0
LINE
  8
0
 10
182.035
 20
183.46
 11
182.128
 21
183.231
  0
LINE
  8
0
 10
182.128
 20
183.231
 11
182.196
 21
182.992
  0
LINE
  8
0
 10
182.196
 20
182.992
 11
182.236
 21
182.748
  0
LINE
  8
0
 10
182.236
 20
182.748
 11
182.25
 21
182.5
  0
LINE
  8
0
 10
182.25
 20
182.5
 11
182.236
 21
182.252
  0
LINE
  8
0
 10
182.236
 20
182.252
 11
182.196
 21
182.008
  0
LINE
  8
0
 10
182.196
 20
182.008
 11
182.128
 21
181.769
  0
LINE
  8
0
 10
182.128
 20
181.769
 11
182.035
 21
181.54
  0
LINE
  8
0
 10
182.035
 20
181.54
 11
181.917
 21
181.322
  0
LINE
  8
0
 10
181.917
 20
181.322
 11
181.776
 21
181.118
  0
LINE
  8
0
 10
181.776
 20
181.118
 11
181.613
 21
180.931
  0
LINE
  8
0
 10
181.613
 20
180.931
 11
181.43
 21
180.763
  0
LINE
  8
0
 10
181.43
 20
180.763
 11
181.231
 21
180.616
  0
LINE
  8
0
 10
181.231
 20
180.616
 11
181.016
 21
180.492
  0
LINE
  8
0
 10
181.016
 20
180.492
 11
180.789
 21
180.393
  0
LINE
  8
0
 10
180.789
 20
180.393
 11
180.552
 21
180.319
  0
LINE
  8
0
 10
180.552
 20
180.319
 11
180.309
 21
180.271
  0
LINE
  8
0
 10
180.309
 20
180.271
 11
180.062
 21
180.251
  0
LINE
  8
0
 10
180.062
 20
180.251
 11
179.814
 21
180.258
  0
LINE
  8
0
 10
239.814
 20
180.258
 11
239.569
 21
180.292
  0
LINE
  8
0
 10
239.569
 20
180.292
 11
239.328
 21
180.353
  0
LINE
  8
0
 10
239.328
 20
180.353
 11
239.096
 21
180.44
  0
LINE
  8
0
 10
239.096
 20
180.44
 11
238.875
 21
180.551
  0
LINE
  8
0
 10
238.875
 20
180.551
 11
238.667
 21
180.687
  0
LINE
  8
0
 10
238.667
 20
180.687
 11
238.476
 21
180.845
  0
LINE
  8
0
 10
238.476
 20
180.845
 11
238.303
 21
181.022
  0
LINE
  8
0
 10
238.303
 20
181.022
 11
238.151
 21
181.218
  0
LINE
  8
0
 10
238.151
 20
181.218
 11
238.021
 21
181.429
  0
LINE
  8
0
 10
238.021
 20
181.429
 11
237.915
 21
181.653
  0
LINE
  8
0
 10
237.915
 20
181.653
 11
237.835
 21
181.888
  0
LINE
  8
0
 10
237.835
 20
181.888
 11
237.781
 21
182.13
  0
LINE
  8
0
 10
237.781
 20
182.13
 11
237.753
 21
182.376
  0
LINE
  8
0
 10
237.753
 20
182.376
 11
237.753
 21
182.624
  0
LINE
  8
0
 10
237.753
 20
182.624
 11
237.781
 21
182.87
  0
LINE
  8
0
 10
237.781
 20
182.87
 11
237.835
 21
183.112
  0
LINE
  8
0
 10
237.835
 20
183.112
 11
237.915
 21
183.347
  0
LINE
  8
0
 10
237.915
 20
183.347
 11
238.021
 21
183.571
  0
LINE
  8
0
 10
238.021
 20
183.571
 11
238.151
 21
183.782
  0
LINE
  8
0
 10
238.151
 20
183.782
 11
238.303
 21
183.978
  0
LINE
  8
0
 10
238.303
 20
183.978
 11
238.476
 21
184.155
  0
LINE
  8
0
 10
238.476
 20
184.155
 11
238.667
 21
184.313
  0
LINE
  8
0
 10
238.667
 20
184.313
 11
238.875
 21
184.449
  0
LINE
  8
0
 10
238.875
 20
184.449
 11
239.096
 21
184.56
  0
LINE
  8
0
 10
239.096
 20
184.56
 11
239.328
 21
184.647
  0
LINE
  8
0
 10
239.328
 20
184.647
 11
239.569
 21
184.708
  0
LINE
  8
0
 10
239.569
 20
184.708
 11
239.814
 21
184.742
  0
LINE
  8
0
 10
239.814
 20
184.742
 11
240.062
 21
184.749
  0
LINE
  8
0
 10
240.062
 20
184.749
 11
240.309
 21
184.729
  0
LINE
  8
0
 10
240.309
 20
184.729
 11
240.552
 21
184.681
  0
LINE
  8
0
 10
240.552
 20
184.681
 11
240.789
 21
184.607
  0
LINE
  8
0
 10
240.789
 20
184.607
 11
241.016
 21
184.508
  0
LINE
  8
0
 10
241.016
 20
184.508
 11
241.231
 21
184.384
  0
LINE
  8
0
 10
241.231
 20
184.384
 11
241.43
 21
184.237
  0
LINE
  8
0
 10
241.43
 20
184.237
 11
241.613
 21
184.069
  0
LINE
  8
0
 10
241.613
 20
184.069
 11
241.776
 21
183.882
  0
LINE
  8
0
 10
241.776
 20
183.882
 11
241.917
 21
183.678
  0
LINE
  8
0
 10
241.917
 20
183.678
 11
242.035
 21
183.46
  0
LINE
  8
0
 10
242.035
 20
183.46
 11
242.128
 21
183.231
  0
LINE
  8
0
 10
242.128
 20
183.231
 11
242.196
 21
182.992
  0
LINE
  8
0
 10
242.196
 20
182.992
 11
242.236
 21
182.748
  0
LINE
  8
0
 10
242.236
 20
182.748
 11
242.25
 21
182.5
  0
LINE
  8
0
 10
242.25
 20
182.5
 11
242.236
 21
182.252
  0
LINE
  8
0
 10
242.236
 20
182.252
 11
242.196
 21
182.008
  0
LINE
  8
0
 10
242.196
 20
182.008
 11
242.128
 21
181.769
  0
LINE
  8
0
 10
242.128
 20
181.769
 11
242.035
 21
181.54
  0
LINE
  8
0
 10
242.035
 20
181.54
 11
241.917
 21
181.322
  0
LINE
  8
0
 10
241.917
 20
181.322
 11
241.776
 21
181.118
  0
LINE
  8
0
 10
241.776
 20
181.118
 11
241.613
 21
180.931
  0
LINE
  8
0
 10
241.613
 20
180.931
 11
241.43
 21
180.763
  0
LINE
  8
0
 10
241.43
 20
180.763
 11
241.231
 21
180.616
  0
LINE
  8
0
 10
241.231
 20
180.616
 11
241.016
 21
180.492
  0
LINE
  8
0
 10
241.016
 20
180.492
 11
240.789
 21
180.393
  0
LINE
  8
0
 10
240.789
 20
180.393
 11
240.552
 21
180.319
  0
LINE
  8
0
 10
240.552
 20
180.319
 11
240.309
 21
180.271
  0
LINE
  8
0
 10
240.309
 20
180.271
 11
240.062
 21
180.251
  0
LINE
  8
0
 10
240.062
 20
180.251
 11
239.814
 21
180.258
  0
LINE
  8
0
 10
-180.309
 20
180.271
 11
-180.552
 21
180.319
  0
LINE
  8
0
 10
-180.552
 20
180.319
 11
-180.789
 21
180.393
  0
LINE
  8
0
 10
-180.789
 20
180.393
 11
-181.016
 21
180.492
  0
LINE
  8
0
 10
-181.016
 20
180.492
 11
-181.231
 21
180.616
  0
LINE
  8
0
 10
-181.231
 20
180.616
 11
-181.43
 21
180.763
  0
LINE
  8
0
 10
-181.43
 20
180.763
 11
-181.613
 21
180.931
  0
LINE
  8
0
 10
-181.613
 20
180.931
 11
-181.776
 21
181.118
  0
LINE
  8
0
 10
-181.776
 20
181.118
 11
-181.917
 21
181.322
  0
LINE
  8
0
 10
-181.917
 20
181.322
 11
-182.035
 21
181.54
  0
LINE
  8
0
 10
-182.035
 20
181.54
 11
-182.128
 21
181.769
  0
LINE
  8
0
 10
-182.128
 20
181.769
 11
-182.196
 21
182.008
  0
LINE
  8
0
 10
-182.196
 20
182.008
 11
-182.236
 21
182.252
  0
LINE
  8
0
 10
-182.236
 20
182.252
 11
-182.25
 21
182.5
  0
LINE
  8
0
 10
-182.25
 20
182.5
 11
-182.236
 21
182.748
  0
LINE
  8
0
 10
-182.236
 20
182.748
 11
-182.196
 21
182.992
  0
LINE
  8
0
 10
-182.196
 20
182.992
 11
-182.128
 21
183.231
  0
LINE
  8
0
 10
-182.128
 20
183.231
 11
-182.035
 21
183.46
  0
LINE
  8
0
 10
-182.035
 20
183.46
 11
-181.917
 21
183.678
  0
LINE
  8
0
 10
-181.917
 20
183.678
 11
-181.776
 21
183.882
  0
LINE
  8
0
 10
-181.776
 20
183.882
 11
-181.613
 21
184.069
  0
LINE
  8
0
 10
-181.613
 20
184.069
 11
-181.43
 21
184.237
  0
LINE
  8
0
 10
-181.43
 20
184.237
 11
-181.231
 21
184.384
  0
LINE
  8
0
 10
-181.231
 20
184.384
 11
-181.016
 21
184.508
  0
LINE
  8
0
 10
-181.016
 20
184.508
 11
-180.789
 21
184.607
  0
LINE
  8
0
 10
-180.789
 20
184.607
 11
-180.552
 21
184.681
  0
LINE
  8
0
 10
-180.552
 20
184.681
 11
-180.309
 21
184.729
  0
LINE
  8
0
 10
-180.309
 20
184.729
 11
-180.062
 21
184.749
  0
LINE
  8
0
 10
-180.062
 20
184.749
 11
-179.814
 21
184.742
  0
LINE
  8
0
 10
-179.814
 20
184.742
 11
-179.569
 21
184.708
  0
LINE
  8
0
 10
-179.569
 20
184.708
 11
-179.328
 21
184.647
  0
LINE
  8
0
 10
-179.328
 20
184.647
 11
-179.096
 21
184.56
  0
LINE
  8
0
 10
-179.096
 20
184.56
 11
-178.875
 21
184.449
  0
LINE
  8
0
 10
-178.875
 20
184.449
 11
-178.667
 21
184.313
  0
LINE
  8
0
 10
-178.667
 20
184.313
 11
-178.476
 21
184.155
  0
LINE
  8
0
 10
-178.476
 20
184.155
 11
-178.303
 21
183.978
  0
LINE
  8
0
 10
-178.303
 20
183.978
 11
-178.151
 21
183.782
  0
LINE
  8
0
 10
-178.151
 20
183.782
 11
-178.021
 21
183.571
  0
LINE
  8
0
 10
-178.021
 20
183.571
 11
-177.915
 21
183.347
  0
LINE
  8
0
 10
-177.915
 20
183.347
 11
-177.835
 21
183.112
  0
LINE
  8
0
 10
-177.835
 20
183.112
 11
-177.781
 21
182.87
  0
LINE
  8
0
 10
-177.781
 20
182.87
 11
-177.753
 21
182.624
  0
LINE
  8
0
 10
-177.753
 20
182.624
 11
-177.753
 21
182.376
  0
LINE
  8
0
 10
-177.753
 20
182.376
 11
-177.781
 21
182.13
  0
LINE
  8
0
 10
-177.781
 20
182.13
 11
-177.835
 21
181.888
  0
LINE
  8
0
 10
-177.835
 20
181.888
 11
-177.915
 21
181.653
  0
LINE
  8
0
 10
-177.915
 20
181.653
 11
-178.021
 21
181.429
  0
LINE
  8
0
 10
-178.021
 20
181.429
 11
-178.151
 21
181.218
  0
LINE
  8
0
 10
-178.151
 20
181.218
 11
-178.303
 21
181.022
  0
LINE
  8
0
 10
-178.303
 20
181.022
 11
-178.476
 21
180.845
  0
LINE
  8
0
 10
-178.476
 20
180.845
 11
-178.667
 21
180.687
  0
LINE
  8
0
 10
-178.667
 20
180.687
 11
-178.875
 21
180.551
  0
LINE
  8
0
 10
-178.875
 20
180.551
 11
-179.096
 21
180.44
  0
LINE
  8
0
 10
-179.096
 20
180.44
 11
-179.328
 21
180.353
  0
LINE
  8
0
 10
-179.328
 20
180.353
 11
-179.569
 21
180.292
  0
LINE
  8
0
 10
-179.569
 20
180.292
 11
-179.814
 21
180.258
  0
LINE
  8
0
 10
-179.814
 20
180.258
 11
-180.062
 21
180.251
  0
LINE
  8
0
 10
-180.062
 20
180.251
 11
-180.309
 21
180.271
  0
LINE
  8
0
 10
-194.623
 20
128.855
 11
-194.867
 21
128.891
  0
LINE
  8
0
 10
-194.867
 20
128.891
 11
-195.103
 21
128.964
  0
LINE
  8
0
 10
-195.103
 20
128.964
 11
-195.325
 21
129.071
  0
LINE
  8
0
 10
-195.325
 20
129.071
 11
-195.529
 21
129.21
  0
LINE
  8
0
 10
-195.529
 20
129.21
 11
-195.71
 21
129.378
  0
LINE
  8
0
 10
-195.71
 20
129.378
 11
-195.863
 21
129.571
  0
LINE
  8
0
 10
-195.863
 20
129.571
 11
-195.987
 21
129.784
  0
LINE
  8
0
 10
-195.987
 20
129.784
 11
-196.077
 21
130.014
  0
LINE
  8
0
 10
-196.077
 20
130.014
 11
-196.132
 21
130.254
  0
LINE
  8
0
 10
-196.132
 20
130.254
 11
-196.15
 21
130.5
  0
LINE
  8
0
 10
-196.15
 20
130.5
 11
-196.132
 21
130.746
  0
LINE
  8
0
 10
-196.132
 20
130.746
 11
-196.077
 21
130.986
  0
LINE
  8
0
 10
-196.077
 20
130.986
 11
-195.987
 21
131.216
  0
LINE
  8
0
 10
-195.987
 20
131.216
 11
-195.863
 21
131.429
  0
LINE
  8
0
 10
-195.863
 20
131.429
 11
-195.71
 21
131.622
  0
LINE
  8
0
 10
-195.71
 20
131.622
 11
-195.529
 21
131.79
  0
LINE
  8
0
 10
-195.529
 20
131.79
 11
-195.325
 21
131.929
  0
LINE
  8
0
 10
-195.325
 20
131.929
 11
-195.103
 21
132.036
  0
LINE
  8
0
 10
-195.103
 20
132.036
 11
-194.867
 21
132.109
  0
LINE
  8
0
 10
-194.867
 20
132.109
 11
-194.623
 21
132.145
  0
LINE
  8
0
 10
-194.623
 20
132.145
 11
-194.377
 21
132.145
  0
LINE
  8
0
 10
-194.377
 20
132.145
 11
-194.133
 21
132.109
  0
LINE
  8
0
 10
-194.133
 20
132.109
 11
-193.897
 21
132.036
  0
LINE
  8
0
 10
-193.897
 20
132.036
 11
-193.675
 21
131.929
  0
LINE
  8
0
 10
-193.675
 20
131.929
 11
-193.471
 21
131.79
  0
LINE
  8
0
 10
-193.471
 20
131.79
 11
-193.29
 21
131.622
  0
LINE
  8
0
 10
-193.29
 20
131.622
 11
-193.137
 21
131.429
  0
LINE
  8
0
 10
-193.137
 20
131.429
 11
-193.013
 21
131.216
  0
LINE
  8
0
 10
-193.013
 20
131.216
 11
-192.923
 21
130.986
  0
LINE
  8
0
 10
-192.923
 20
130.986
 11
-192.868
 21
130.746
  0
LINE
  8
0
 10
-192.868
 20
130.746
 11
-192.85
 21
130.5
  0
LINE
  8
0
 10
-192.85
 20
130.5
 11
-192.868
 21
130.254
  0
LINE
  8
0
 10
-192.868
 20
130.254
 11
-192.923
 21
130.014
  0
LINE
  8
0
 10
-192.923
 20
130.014
 11
-193.013
 21
129.784
  0
LINE
  8
0
 10
-193.013
 20
129.784
 11
-193.137
 21
129.571
  0
LINE
  8
0
 10
-193.137
 20
129.571
 11
-193.29
 21
129.378
  0
LINE
  8
0
 10
-193.29
 20
129.378
 11
-193.471
 21
129.21
  0
LINE
  8
0
 10
-193.471
 20
129.21
 11
-193.675
 21
129.071
  0
LINE
  8
0
 10
-193.675
 20
129.071
 11
-193.897
 21
128.964
  0
LINE
  8
0
 10
-193.897
 20
128.964
 11
-194.133
 21
128.891
  0
LINE
  8
0
 10
-194.133
 20
128.891
 11
-194.377
 21
128.855
  0
LINE
  8
0
 10
-194.377
 20
128.855
 11
-194.623
 21
128.855
  0
LINE
  8
0
 10
-225.623
 20
128.855
 11
-225.867
 21
128.891
  0
LINE
  8
0
 10
-225.867
 20
128.891
 11
-226.103
 21
128.964
  0
LINE
  8
0
 10
-226.103
 20
128.964
 11
-226.325
 21
129.071
  0
LINE
  8
0
 10
-226.325
 20
129.071
 11
-226.529
 21
129.21
  0
LINE
  8
0
 10
-226.529
 20
129.21
 11
-226.71
 21
129.378
  0
LINE
  8
0
 10
-226.71
 20
129.378
 11
-226.863
 21
129.571
  0
LINE
  8
0
 10
-226.863
 20
129.571
 11
-226.987
 21
129.784
  0
LINE
  8
0
 10
-226.987
 20
129.784
 11
-227.077
 21
130.014
  0
LINE
  8
0
 10
-227.077
 20
130.014
 11
-227.132
 21
130.254
  0
LINE
  8
0
 10
-227.132
 20
130.254
 11
-227.15
 21
130.5
  0
LINE
  8
0
 10
-227.15
 20
130.5
 11
-227.132
 21
130.746
  0
LINE
  8
0
 10
-227.132
 20
130.746
 11
-227.077
 21
130.986
  0
LINE
  8
0
 10
-227.077
 20
130.986
 11
-226.987
 21
131.216
  0
LINE
  8
0
 10
-226.987
 20
131.216
 11
-226.863
 21
131.429
  0
LINE
  8
0
 10
-226.863
 20
131.429
 11
-226.71
 21
131.622
  0
LINE
  8
0
 10
-226.71
 20
131.622
 11
-226.529
 21
131.79
  0
LINE
  8
0
 10
-226.529
 20
131.79
 11
-226.325
 21
131.929
  0
LINE
  8
0
 10
-226.325
 20
131.929
 11
-226.103
 21
132.036
  0
LINE
  8
0
 10
-226.103
 20
132.036
 11
-225.867
 21
132.109
  0
LINE
  8
0
 10
-225.867
 20
132.109
 11
-225.623
 21
132.145
  0
LINE
  8
0
 10
-225.623
 20
132.145
 11
-225.377
 21
132.145
  0
LINE
  8
0
 10
-225.377
 20
132.145
 11
-225.133
 21
132.109
  0
LINE
  8
0
 10
-225.133
 20
132.109
 11
-224.897
 21
132.036
  0
LINE
  8
0
 10
-224.897
 20
132.036
 11
-224.675
 21
131.929
  0
LINE
  8
0
 10
-224.675
 20
131.929
 11
-224.471
 21
131.79
  0
LINE
  8
0
 10
-224.471
 20
131.79
 11
-224.29
 21
131.622
  0
LINE
  8
0
 10
-224.29
 20
131.622
 11
-224.137
 21
131.429
  0
LINE
  8
0
 10
-224.137
 20
131.429
 11
-224.013
 21
131.216
  0
LINE
  8
0
 10
-224.013
 20
131.216
 11
-223.923
 21
130.986
  0
LINE
  8
0
 10
-223.923
 20
130.986
 11
-223.868
 21
130.746
  0
LINE
  8
0
 10
-223.868
 20
130.746
 11
-223.85
 21
130.5
  0
LINE
  8
0
 10
-223.85
 20
130.5
 11
-223.868
 21
130.254
  0
LINE
  8
0
 10
-223.868
 20
130.254
 11
-223.923
 21
130.014
  0
LINE
  8
0
 10
-223.923
 20
130.014
 11
-224.013
 21
129.784
  0
LINE
  8
0
 10
-224.013
 20
129.784
 11
-224.137
 21
129.571
  0
LINE
  8
0
 10
-224.137
 20
129.571
 11
-224.29
 21
129.378
  0
LINE
  8
0
 10
-224.29
 20
129.378
 11
-224.471
 21
129.21
  0
LINE
  8
0
 10
-224.471
 20
129.21
 11
-224.675
 21
129.071
  0
LINE
  8
0
 10
-224.675
 20
129.071
 11
-224.897
 21
128.964
  0
LINE
  8
0
 10
-224.897
 20
128.964
 11
-225.133
 21
128.891
  0
LINE
  8
0
 10
-225.133
 20
128.891
 11
-225.377
 21
128.855
  0
LINE
  8
0
 10
-225.377
 20
128.855
 11
-225.623
 21
128.855
  0
LINE
  8
0
 10
-211.202
 20
103.563
 11
-212.391
 21
103.751
  0
LINE
  8
0
 10
-212.391
 20
103.751
 11
-213.554
 21
104.063
  0
LINE
  8
0
 10
-213.554
 20
104.063
 11
-214.677
 21
104.494
  0
LINE
  8
0
 10
-214.677
 20
104.494
 11
-215.75
 21
105.041
  0
LINE
  8
0
 10
-215.75
 20
105.041
 11
-216.76
 21
105.696
  0
LINE
  8
0
 10
-216.76
 20
105.696
 11
-217.695
 21
106.454
  0
LINE
  8
0
 10
-217.695
 20
106.454
 11
-218.546
 21
107.305
  0
LINE
  8
0
 10
-218.546
 20
107.305
 11
-219.304
 21
108.24
  0
LINE
  8
0
 10
-219.304
 20
108.24
 11
-219.959
 21
109.25
  0
LINE
  8
0
 10
-219.959
 20
109.25
 11
-220.506
 21
110.323
  0
LINE
  8
0
 10
-220.506
 20
110.323
 11
-220.937
 21
111.446
  0
LINE
  8
0
 10
-220.937
 20
111.446
 11
-221.249
 21
112.609
  0
LINE
  8
0
 10
-221.249
 20
112.609
 11
-221.437
 21
113.798
  0
LINE
  8
0
 10
-221.437
 20
113.798
 11
-221.5
 21
115
  0
LINE
  8
0
 10
-221.5
 20
115
 11
-221.437
 21
116.202
  0
LINE
  8
0
 10
-221.437
 20
116.202
 11
-221.249
 21
117.391
  0
LINE
  8
0
 10
-221.249
 20
117.391
 11
-220.937
 21
118.554
  0
LINE
  8
0
 10
-220.937
 20
118.554
 11
-220.506
 21
119.677
  0
LINE
  8
0
 10
-220.506
 20
119.677
 11
-219.959
 21
120.75
  0
LINE
  8
0
 10
-219.959
 20
120.75
 11
-219.304
 21
121.76
  0
LINE
  8
0
 10
-219.304
 20
121.76
 11
-218.546
 21
122.695
  0
LINE
  8
0
 10
-218.546
 20
122.695
 11
-217.695
 21
123.546
  0
LINE
  8
0
 10
-217.695
 20
123.546
 11
-216.76
 21
124.304
  0
LINE
  8
0
 10
-216.76
 20
124.304
 11
-215.75
 21
124.959
  0
LINE
  8
0
 10
-215.75
 20
124.959
 11
-214.677
 21
125.506
  0
LINE
  8
0
 10
-214.677
 20
125.506
 11
-213.554
 21
125.937
  0
LINE
  8
0
 10
-213.554
 20
125.937
 11
-212.391
 21
126.249
  0
LINE
  8
0
 10
-212.391
 20
126.249
 11
-211.202
 21
126.437
  0
LINE
  8
0
 10
-211.202
 20
126.437
 11
-210
 21
126.5
  0
LINE
  8
0
 10
-210
 20
126.5
 11
-208.798
 21
126.437
  0
LINE
  8
0
 10
-208.798
 20
126.437
 11
-207.609
 21
126.249
  0
LINE
  8
0
 10
-207.609
 20
126.249
 11
-206.446
 21
125.937
  0
LINE
  8
0
 10
-206.446
 20
125.937
 11
-205.323
 21
125.506
  0
LINE
  8
0
 10
-205.323
 20
125.506
 11
-204.25
 21
124.959
  0
LINE
  8
0
 10
-204.25
 20
124.959
 11
-203.24
 21
124.304
  0
LINE
  8
0
 10
-203.24
 20
124.304
 11
-202.305
 21
123.546
  0
LINE
  8
0
 10
-202.305
 20
123.546
 11
-201.454
 21
122.695
  0
LINE
  8
0
 10
-201.454
 20
122.695
 11
-200.696
 21
121.76
  0
LINE
  8
0
 10
-200.696
 20
121.76
 11
-200.041
 21
120.75
  0
LINE
  8
0
 10
-200.041
 20
120.75
 11
-199.494
 21
119.677
  0
LINE
  8
0
 10
-199.494
 20
119.677
 11
-199.063
 21
118.554
  0
LINE
  8
0
 10
-199.063
 20
118.554
 11
-198.751
 21
117.391
  0
LINE
  8
0
 10
-198.751
 20
117.391
 11
-198.563
 21
116.202
  0
LINE
  8
0
 10
-198.563
 20
116.202
 11
-198.5
 21
115
  0
LINE
  8
0
 10
-198.5
 20
115
 11
-198.563
 21
113.798
  0
LINE
  8
0
 10
-198.563
 20
113.798
 11
-198.751
 21
112.609
  0
LINE
  8
0
 10
-198.751
 20
112.609
 11
-199.063
 21
111.446
  0
LINE
  8
0
 10
-199.063
 20
111.446
 11
-199.494
 21
110.323
  0
LINE
  8
0
 10
-199.494
 20
110.323
 11
-200.041
 21
109.25
  0
LINE
  8
0
 10
-200.041
 20
109.25
 11
-200.696
 21
108.24
  0
LINE
  8
0
 10
-200.696
 20
108.24
 11
-201.454
 21
107.305
  0
LINE
  8
0
 10
-201.454
 20
107.305
 11
-202.305
 21
106.454
  0
LINE
  8
0
 10
-202.305
 20
106.454
 11
-203.24
 21
105.696
  0
LINE
  8
0
 10
-203.24
 20
105.696
 11
-204.25
 21
105.041
  0
LINE
  8
0
 10
-204.25
 20
105.041
 11
-205.323
 21
104.494
  0
LINE
  8
0
 10
-205.323
 20
104.494
 11
-206.446
 21
104.063
  0
LINE
  8
0
 10
-206.446
 20
104.063
 11
-207.609
 21
103.751
  0
LINE
  8
0
 10
-207.609
 20
103.751
 11
-208.798
 21
103.563
  0
LINE
  8
0
 10
-208.798
 20
103.563
 11
-210
 21
103.5
  0
LINE
  8
0
 10
-210
 20
103.5
 11
-211.202
 21
103.563
  0
LINE
  8
0
 10
-225.623
 20
97.8546
 11
-225.867
 21
97.8914
  0
LINE
  8
0
 10
-225.867
 20
97.8914
 11
-226.103
 21
97.9641
  0
LINE
  8
0
 10
-226.103
 20
97.9641
 11
-226.325
 21
98.0711
  0
LINE
  8
0
 10
-226.325
 20
98.0711
 11
-226.529
 21
98.21
  0
LINE
  8
0
 10
-226.529
 20
98.21
 11
-226.71
 21
98.3777
  0
LINE
  8
0
 10
-226.71
 20
98.3777
 11
-226.863
 21
98.5705
  0
LINE
  8
0
 10
-226.863
 20
98.5705
 11
-226.987
 21
98.7841
  0
LINE
  8
0
 10
-226.987
 20
98.7841
 11
-227.077
 21
99.0137
  0
LINE
  8
0
 10
-227.077
 20
99.0137
 11
-227.132
 21
99.2541
  0
LINE
  8
0
 10
-227.132
 20
99.2541
 11
-227.15
 21
99.5
  0
LINE
  8
0
 10
-227.15
 20
99.5
 11
-227.132
 21
99.7459
  0
LINE
  8
0
 10
-227.132
 20
99.7459
 11
-227.077
 21
99.9863
  0
LINE
  8
0
 10
-227.077
 20
99.9863
 11
-226.987
 21
100.216
  0
LINE
  8
0
 10
-226.987
 20
100.216
 11
-226.863
 21
100.429
  0
LINE
  8
0
 10
-226.863
 20
100.429
 11
-226.71
 21
100.622
  0
LINE
  8
0
 10
-226.71
 20
100.622
 11
-226.529
 21
100.79
  0
LINE
  8
0
 10
-226.529
 20
100.79
 11
-226.325
 21
100.929
  0
LINE
  8
0
 10
-226.325
 20
100.929
 11
-226.103
 21
101.036
  0
LINE
  8
0
 10
-226.103
 20
101.036
 11
-225.867
 21
101.109
  0
LINE
  8
0
 10
-225.867
 20
101.109
 11
-225.623
 21
101.145
  0
LINE
  8
0
 10
-225.623
 20
101.145
 11
-225.377
 21
101.145
  0
LINE
  8
0
 10
-225.377
 20
101.145
 11
-225.133
 21
101.109
  0
LINE
  8
0
 10
-225.133
 20
101.109
 11
-224.897
 21
101.036
  0
LINE
  8
0
 10
-224.897
 20
101.036
 11
-224.675
 21
100.929
  0
LINE
  8
0
 10
-224.675
 20
100.929
 11
-224.471
 21
100.79
  0
LINE
  8
0
 10
-224.471
 20
100.79
 11
-224.29
 21
100.622
  0
LINE
  8
0
 10
-224.29
 20
100.622
 11
-224.137
 21
100.429
  0
LINE
  8
0
 10
-224.137
 20
100.429
 11
-224.013
 21
100.216
  0
LINE
  8
0
 10
-224.013
 20
100.216
 11
-223.923
 21
99.9863
  0
LINE
  8
0
 10
-223.923
 20
99.9863
 11
-223.868
 21
99.7459
  0
LINE
  8
0
 10
-223.868
 20
99.7459
 11
-223.85
 21
99.5
  0
LINE
  8
0
 10
-223.85
 20
99.5
 11
-223.868
 21
99.2541
  0
LINE
  8
0
 10
-223.868
 20
99.2541
 11
-223.923
 21
99.0137
  0
LINE
  8
0
 10
-223.923
 20
99.0137
 11
-224.013
 21
98.7841
  0
LINE
  8
0
 10
-224.013
 20
98.7841
 11
-224.137
 21
98.5705
  0
LINE
  8
0
 10
-224.137
 20
98.5705
 11
-224.29
 21
98.3777
  0
LINE
  8
0
 10
-224.29
 20
98.3777
 11
-224.471
 21
98.21
  0
LINE
  8
0
 10
-224.471
 20
98.21
 11
-224.675
 21
98.0711
  0
LINE
  8
0
 10
-224.675
 20
98.0711
 11
-224.897
 21
97.9641
  0
LINE
  8
0
 10
-224.897
 20
97.9641
 11
-225.133
 21
97.8914
  0
LINE
  8
0
 10
-225.133
 20
97.8914
 11
-225.377
 21
97.8546
  0
LINE
  8
0
 10
-225.377
 20
97.8546
 11
-225.623
 21
97.8546
  0
LINE
  8
0
 10
-194.623
 20
97.8546
 11
-194.867
 21
97.8914
  0
LINE
  8
0
 10
-194.867
 20
97.8914
 11
-195.103
 21
97.9641
  0
LINE
  8
0
 10
-195.103
 20
97.9641
 11
-195.325
 21
98.0711
  0
LINE
  8
0
 10
-195.325
 20
98.0711
 11
-195.529
 21
98.21
  0
LINE
  8
0
 10
-195.529
 20
98.21
 11
-195.71
 21
98.3777
  0
LINE
  8
0
 10
-195.71
 20
98.3777
 11
-195.863
 21
98.5705
  0
LINE
  8
0
 10
-195.863
 20
98.5705
 11
-195.987
 21
98.7841
  0
LINE
  8
0
 10
-195.987
 20
98.7841
 11
-196.077
 21
99.0137
  0
LINE
  8
0
 10
-196.077
 20
99.0137
 11
-196.132
 21
99.2541
  0
LINE
  8
0
 10
-196.132
 20
99.2541
 11
-196.15
 21
99.5
  0
LINE
  8
0
 10
-196.15
 20
99.5
 11
-196.132
 21
99.7459
  0
LINE
  8
0
 10
-196.132
 20
99.7459
 11
-196.077
 21
99.9863
  0
LINE
  8
0
 10
-196.077
 20
99.9863
 11
-195.987
 21
100.216
  0
LINE
  8
0
 10
-195.987
 20
100.216
 11
-195.863
 21
100.429
  0
LINE
  8
0
 10
-195.863
 20
100.429
 11
-195.71
 21
100.622
  0
LINE
  8
0
 10
-195.71
 20
100.622
 11
-195.529
 21
100.79
  0
LINE
  8
0
 10
-195.529
 20
100.79
 11
-195.325
 21
100.929
  0
LINE
  8
0
 10
-195.325
 20
100.929
 11
-195.103
 21
101.036
  0
LINE
  8
0
 10
-195.103
 20
101.036
 11
-194.867
 21
101.109
  0
LINE
  8
0
 10
-194.867
 20
101.109
 11
-194.623
 21
101.145
  0
LINE
  8
0
 10
-194.623
 20
101.145
 11
-194.377
 21
101.145
  0
LINE
  8
0
 10
-194.377
 20
101.145
 11
-194.133
 21
101.109
  0
LINE
  8
0
 10
-194.133
 20
101.109
 11
-193.897
 21
101.036
  0
LINE
  8
0
 10
-193.897
 20
101.036
 11
-193.675
 21
100.929
  0
LINE
  8
0
 10
-193.675
 20
100.929
 11
-193.471
 21
100.79
  0
LINE
  8
0
 10
-193.471
 20
100.79
 11
-193.29
 21
100.622
  0
LINE
  8
0
 10
-193.29
 20
100.622
 11
-193.137
 21
100.429
  0
LINE
  8
0
 10
-193.137
 20
100.429
 11
-193.013
 21
100.216
  0
LINE
  8
0
 10
-193.013
 20
100.216
 11
-192.923
 21
99.9863
  0
LINE
  8
0
 10
-192.923
 20
99.9863
 11
-192.868
 21
99.7459
  0
LINE
  8
0
 10
-192.868
 20
99.7459
 11
-192.85
 21
99.5
  0
LINE
  8
0
 10
-192.85
 20
99.5
 11
-192.868
 21
99.2541
  0
LINE
  8
0
 10
-192.868
 20
99.2541
 11
-192.923
 21
99.0137
  0
LINE
  8
0
 10
-192.923
 20
99.0137
 11
-193.013
 21
98.7841
  0
LINE
  8
0
 10
-193.013
 20
98.7841
 11
-193.137
 21
98.5705
  0
LINE
  8
0
 10
-193.137
 20
98.5705
 11
-193.29
 21
98.3777
  0
LINE
  8
0
 10
-193.29
 20
98.3777
 11
-193.471
 21
98.21
  0
LINE
  8
0
 10
-193.471
 20
98.21
 11
-193.675
 21
98.0711
  0
LINE
  8
0
 10
-193.675
 20
98.0711
 11
-193.897
 21
97.9641
  0
LINE
  8
0
 10
-193.897
 20
97.9641
 11
-194.133
 21
97.8914
  0
LINE
  8
0
 10
-194.133
 20
97.8914
 11
-194.377
 21
97.8546
  0
LINE
  8
0
 10
-194.377
 20
97.8546
 11
-194.623
 21
97.8546
  0
LINE
  8
0
 10
-180.309
 20
89.0213
 11
-180.552
 21
89.0688
  0
LINE
  8
0
 10
-180.552
 20
89.0688
 11
-180.789
 21
89.1429
  0
LINE
  8
0
 10
-180.789
 20
89.1429
 11
-181.016
 21
89.2424
  0
LINE
  8
0
 10
-181.016
 20
89.2424
 11
-181.231
 21
89.3664
  0
LINE
  8
0
 10
-181.231
 20
89.3664
 11
-181.43
 21
89.5132
  0
LINE
  8
0
 10
-181.43
 20
89.5132
 11
-181.613
 21
89.6811
  0
LINE
  8
0
 10
-181.613
 20
89.6811
 11
-181.776
 21
89.868
  0
LINE
  8
0
 10
-181.776
 20
89.868
 11
-181.917
 21
90.0717
  0
LINE
  8
0
 10
-181.917
 20
90.0717
 11
-182.035
 21
90.2897
  0
LINE
  8
0
 10
-182.035
 20
90.2897
 11
-182.128
 21
90.5194
  0
LINE
  8
0
 10
-182.128
 20
90.5194
 11
-182.196
 21
90.758
  0
LINE
  8
0
 10
-182.196
 20
90.758
 11
-182.236
 21
91.0025
  0
LINE
  8
0
 10
-182.236
 20
91.0025
 11
-182.25
 21
91.25
  0
LINE
  8
0
 10
-182.25
 20
91.25
 11
-182.236
 21
91.4975
  0
LINE
  8
0
 10
-182.236
 20
91.4975
 11
-182.196
 21
91.742
  0
LINE
  8
0
 10
-182.196
 20
91.742
 11
-182.128
 21
91.9806
  0
LINE
  8
0
 10
-182.128
 20
91.9806
 11
-182.035
 21
92.2102
  0
LINE
  8
0
 10
-182.035
 20
92.2102
 11
-181.917
 21
92.4283
  0
LINE
  8
0
 10
-181.917
 20
92.4283
 11
-181.776
 21
92.632
  0
LINE
  8
0
 10
-181.776
 20
92.632
 11
-181.613
 21
92.8189
  0
LINE
  8
0
 10
-181.613
 20
92.8189
 11
-181.43
 21
92.9868
  0
LINE
  8
0
 10
-181.43
 20
92.9868
 11
-181.231
 21
93.1336
  0
LINE
  8
0
 10
-181.231
 20
93.1336
 11
-181.016
 21
93.2576
  0
LINE
  8
0
 10
-181.016
 20
93.2576
 11
-180.789
 21
93.3571
  0
LINE
  8
0
 10
-180.789
 20
93.3571
 11
-180.552
 21
93.4312
  0
LINE
  8
0
 10
-180.552
 20
93.4312
 11
-180.309
 21
93.4787
  0
LINE
  8
0
 10
-180.309
 20
93.4787
 11
-180.062
 21
93.4991
  0
LINE
  8
0
 10
-180.062
 20
93.4991
 11
-179.814
 21
93.4923
  0
LINE
  8
0
 10
-179.814
 20
93.4923
 11
-179.569
 21
93.4583
  0
LINE
  8
0
 10
-179.569
 20
93.4583
 11
-179.328
 21
93.3974
  0
LINE
  8
0
 10
-179.328
 20
93.3974
 11
-179.096
 21
93.3105
  0
LINE
  8
0
 10
-179.096
 20
93.3105
 11
-178.875
 21
93.1985
  0
LINE
  8
0
 10
-178.875
 20
93.1985
 11
-178.667
 21
93.063
  0
LINE
  8
0
 10
-178.667
 20
93.063
 11
-178.476
 21
92.9054
  0
LINE
  8
0
 10
-178.476
 20
92.9054
 11
-178.303
 21
92.7277
  0
LINE
  8
0
 10
-178.303
 20
92.7277
 11
-178.151
 21
92.5321
  0
LINE
  8
0
 10
-178.151
 20
92.5321
 11
-178.021
 21
92.3209
  0
LINE
  8
0
 10
-178.021
 20
92.3209
 11
-177.915
 21
92.0967
  0
LINE
  8
0
 10
-177.915
 20
92.0967
 11
-177.835
 21
91.8622
  0
LINE
  8
0
 10
-177.835
 20
91.8622
 11
-177.781
 21
91.6203
  0
LINE
  8
0
 10
-177.781
 20
91.6203
 11
-177.753
 21
91.3739
  0
LINE
  8
0
 10
-177.753
 20
91.3739
 11
-177.753
 21
91.1261
  0
LINE
  8
0
 10
-177.753
 20
91.1261
 11
-177.781
 21
90.8797
  0
LINE
  8
0
 10
-177.781
 20
90.8797
 11
-177.835
 21
90.6378
  0
LINE
  8
0
 10
-177.835
 20
90.6378
 11
-177.915
 21
90.4033
  0
LINE
  8
0
 10
-177.915
 20
90.4033
 11
-178.021
 21
90.1791
  0
LINE
  8
0
 10
-178.021
 20
90.1791
 11
-178.151
 21
89.9679
  0
LINE
  8
0
 10
-178.151
 20
89.9679
 11
-178.303
 21
89.7723
  0
LINE
  8
0
 10
-178.303
 20
89.7723
 11
-178.476
 21
89.5946
  0
LINE
  8
0
 10
-178.476
 20
89.5946
 11
-178.667
 21
89.437
  0
LINE
  8
0
 10
-178.667
 20
89.437
 11
-178.875
 21
89.3014
  0
LINE
  8
0
 10
-178.875
 20
89.3014
 11
-179.096
 21
89.1895
  0
LINE
  8
0
 10
-179.096
 20
89.1895
 11
-179.328
 21
89.1026
  0
LINE
  8
0
 10
-179.328
 20
89.1026
 11
-179.569
 21
89.0417
  0
LINE
  8
0
 10
-179.569
 20
89.0417
 11
-179.814
 21
89.0077
  0
LINE
  8
0
 10
-179.814
 20
89.0077
 11
-180.062
 21
89.0009
  0
LINE
  8
0
 10
-180.062
 20
89.0009
 11
-180.309
 21
89.0213
  0
LINE
  8
0
 10
179.814
 20
89.0077
 11
179.569
 21
89.0417
  0
LINE
  8
0
 10
179.569
 20
89.0417
 11
179.328
 21
89.1026
  0
LINE
  8
0
 10
179.328
 20
89.1026
 11
179.096
 21
89.1895
  0
LINE
  8
0
 10
179.096
 20
89.1895
 11
178.875
 21
89.3014
  0
LINE
  8
0
 10
178.875
 20
89.3014
 11
178.667
 21
89.437
  0
LINE
  8
0
 10
178.667
 20
89.437
 11
178.476
 21
89.5946
  0
LINE
  8
0
 10
178.476
 20
89.5946
 11
178.303
 21
89.7723
  0
LINE
  8
0
 10
178.303
 20
89.7723
 11
178.151
 21
89.9679
  0
LINE
  8
0
 10
178.151
 20
89.9679
 11
178.021
 21
90.1791
  0
LINE
  8
0
 10
178.021
 20
90.1791
 11
177.915
 21
90.4033
  0
LINE
  8
0
 10
177.915
 20
90.4033
 11
177.835
 21
90.6378
  0
LINE
  8
0
 10
177.835
 20
90.6378
 11
177.781
 21
90.8797
  0
LINE
  8
0
 10
177.781
 20
90.8797
 11
177.753
 21
91.1261
  0
LINE
  8
0
 10
177.753
 20
91.1261
 11
177.753
 21
91.3739
  0
LINE
  8
0
 10
177.753
 20
91.3739
 11
177.781
 21
91.6203
  0
LINE
  8
0
 10
177.781
 20
91.6203
 11
177.835
 21
91.8622
  0
LINE
  8
0
 10
177.835
 20
91.8622
 11
177.915
 21
92.0967
  0
LINE
  8
0
 10
177.915
 20
92.0967
 11
178.021
 21
92.3209
  0
LINE
  8
0
 10
178.021
 20
92.3209
 11
178.151
 21
92.5321
  0
LINE
  8
0
 10
178.151
 20
92.5321
 11
178.303
 21
92.7277
  0
LINE
  8
0
 10
178.303
 20
92.7277
 11
178.476
 21
92.9054
  0
LINE
  8
0
 10
178.476
 20
92.9054
 11
178.667
 21
93.063
  0
LINE
  8
0
 10
178.667
 20
93.063
 11
178.875
 21
93.1985
  0
LINE
  8
0
 10
178.875
 20
93.1985
 11
179.096
 21
93.3105
  0
LINE
  8
0
 10
179.096
 20
93.3105
 11
179.328
 21
93.3974
  0
LINE
  8
0
 10
179.328
 20
93.3974
 11
179.569
 21
93.4583
  0
LINE
  8
0
 10
179.569
 20
93.4583
 11
179.814
 21
93.4923
  0
LINE
  8
0
 10
179.814
 20
93.4923
 11
180.062
 21
93.4991
  0
LINE
  8
0
 10
180.062
 20
93.4991
 11
180.309
 21
93.4787
  0
LINE
  8
0
 10
180.309
 20
93.4787
 11
180.552
 21
93.4312
  0
LINE
  8
0
 10
180.552
 20
93.4312
 11
180.789
 21
93.3571
  0
LINE
  8
0
 10
180.789
 20
93.3571
 11
181.016
 21
93.2576
  0
LINE
  8
0
 10
181.016
 20
93.2576
 11
181.231
 21
93.1336
  0
LINE
  8
0
 10
181.231
 20
93.1336
 11
181.43
 21
92.9868
  0
LINE
  8
0
 10
181.43
 20
92.9868
 11
181.613
 21
92.8189
  0
LINE
  8
0
 10
181.613
 20
92.8189
 11
181.776
 21
92.632
  0
LINE
  8
0
 10
181.776
 20
92.632
 11
181.917
 21
92.4283
  0
LINE
  8
0
 10
181.917
 20
92.4283
 11
182.035
 21
92.2102
  0
LINE
  8
0
 10
182.035
 20
92.2102
 11
182.128
 21
91.9806
  0
LINE
  8
0
 10
182.128
 20
91.9806
 11
182.196
 21
91.742
  0
LINE
  8
0
 10
182.196
 20
91.742
 11
182.236
 21
91.4975
  0
LINE
  8
0
 10
182.236
 20
91.4975
 11
182.25
 21
91.25
  0
LINE
  8
0
 10
182.25
 20
91.25
 11
182.236
 21
91.0025
  0
LINE
  8
0
 10
182.236
 20
91.0025
 11
182.196
 21
90.758
  0
LINE
  8
0
 10
182.196
 20
90.758
 11
182.128
 21
90.5194
  0
LINE
  8
0
 10
182.128
 20
90.5194
 11
182.035
 21
90.2897
  0
LINE
  8
0
 10
182.035
 20
90.2897
 11
181.917
 21
90.0717
  0
LINE
  8
0
 10
181.917
 20
90.0717
 11
181.776
 21
89.868
  0
LINE
  8
0
 10
181.776
 20
89.868
 11
181.613
 21
89.6811
  0
LINE
  8
0
 10
181.613
 20
89.6811
 11
181.43
 21
89.5132
  0
LINE
  8
0
 10
181.43
 20
89.5132
 11
181.231
 21
89.3664
  0
LINE
  8
0
 10
181.231
 20
89.3664
 11
181.016
 21
89.2424
  0
LINE
  8
0
 10
181.016
 20
89.2424
 11
180.789
 21
89.1429
  0
LINE
  8
0
 10
180.789
 20
89.1429
 11
180.552
 21
89.0688
  0
LINE
  8
0
 10
180.552
 20
89.0688
 11
180.309
 21
89.0213
  0
LINE
  8
0
 10
180.309
 20
89.0213
 11
180.062
 21
89.0009
  0
LINE
  8
0
 10
180.062
 20
89.0009
 11
179.814
 21
89.0077
  0
LINE
  8
0
 10
-240.309
 20
89.0213
 11
-240.552
 21
89.0688
  0
LINE
  8
0
 10
-240.552
 20
89.0688
 11
-240.789
 21
89.1429
  0
LINE
  8
0
 10
-240.789
 20
89.1429
 11
-241.016
 21
89.2424
  0
LINE
  8
0
 10
-241.016
 20
89.2424
 11
-241.231
 21
89.3664
  0
LINE
  8
0
 10
-241.231
 20
89.3664
 11
-241.43
 21
89.5132
  0
LINE
  8
0
 10
-241.43
 20
89.5132
 11
-241.613
 21
89.6811
  0
LINE
  8
0
 10
-241.613
 20
89.6811
 11
-241.776
 21
89.868
  0
LINE
  8
0
 10
-241.776
 20
89.868
 11
-241.917
 21
90.0717
  0
LINE
  8
0
 10
-241.917
 20
90.0717
 11
-242.035
 21
90.2897
  0
LINE
  8
0
 10
-242.035
 20
90.2897
 11
-242.128
 21
90.5194
  0
LINE
  8
0
 10
-242.128
 20
90.5194
 11
-242.196
 21
90.758
  0
LINE
  8
0
 10
-242.196
 20
90.758
 11
-242.236
 21
91.0025
  0
LINE
  8
0
 10
-242.236
 20
91.0025
 11
-242.25
 21
91.25
  0
LINE
  8
0
 10
-242.25
 20
91.25
 11
-242.236
 21
91.4975
  0
LINE
  8
0
 10
-242.236
 20
91.4975
 11
-242.196
 21
91.742
  0
LINE
  8
0
 10
-242.196
 20
91.742
 11
-242.128
 21
91.9806
  0
LINE
  8
0
 10
-242.128
 20
91.9806
 11
-242.035
 21
92.2102
  0
LINE
  8
0
 10
-242.035
 20
92.2102
 11
-241.917
 21
92.4283
  0
LINE
  8
0
 10
-241.917
 20
92.4283
 11
-241.776
 21
92.632
  0
LINE
  8
0
 10
-241.776
 20
92.632
 11
-241.613
 21
92.8189
  0
LINE
  8
0
 10
-241.613
 20
92.8189
 11
-241.43
 21
92.9868
  0
LINE
  8
0
 10
-241.43
 20
92.9868
 11
-241.231
 21
93.1336
  0
LINE
  8
0
 10
-241.231
 20
93.1336
 11
-241.016
 21
93.2576
  0
LINE
  8
0
 10
-241.016
 20
93.2576
 11
-240.789
 21
93.3571
  0
LINE
  8
0
 10
-240.789
 20
93.3571
 11
-240.552
 21
93.4312
  0
LINE
  8
0
 10
-240.552
 20
93.4312
 11
-240.309
 21
93.4787
  0
LINE
  8
0
 10
-240.309
 20
93.4787
 11
-240.062
 21
93.4991
  0
LINE
  8
0
 10
-240.062
 20
93.4991
 11
-239.814
 21
93.4923
  0
LINE
  8
0
 10
-239.814
 20
93.4923
 11
-239.569
 21
93.4583
  0
LINE
  8
0
 10
-239.569
 20
93.4583
 11
-239.328
 21
93.3974
  0
LINE
  8
0
 10
-239.328
 20
93.3974
 11
-239.096
 21
93.3105
  0
LINE
  8
0
 10
-239.096
 20
93.3105
 11
-238.875
 21
93.1985
  0
LINE
  8
0
 10
-238.875
 20
93.1985
 11
-238.667
 21
93.063
  0
LINE
  8
0
 10
-238.667
 20
93.063
 11
-238.476
 21
92.9054
  0
LINE
  8
0
 10
-238.476
 20
92.9054
 11
-238.303
 21
92.7277
  0
LINE
  8
0
 10
-238.303
 20
92.7277
 11
-238.151
 21
92.5321
  0
LINE
  8
0
 10
-238.151
 20
92.5321
 11
-238.021
 21
92.3209
  0
LINE
  8
0
 10
-238.021
 20
92.3209
 11
-237.915
 21
92.0967
  0
LINE
  8
0
 10
-237.915
 20
92.0967
 11
-237.835
 21
91.8622
  0
LINE
  8
0
 10
-237.835
 20
91.8622
 11
-237.781
 21
91.6203
  0
LINE
  8
0
 10
-237.781
 20
91.6203
 11
-237.753
 21
91.3739
  0
LINE
  8
0
 10
-237.753
 20
91.3739
 11
-237.753
 21
91.1261
  0
LINE
  8
0
 10
-237.753
 20
91.1261
 11
-237.781
 21
90.8797
  0
LINE
  8
0
 10
-237.781
 20
90.8797
 11
-237.835
 21
90.6378
  0
LINE
  8
0
 10
-237.835
 20
90.6378
 11
-237.915
 21
90.4033
  0
LINE
  8
0
 10
-237.915
 20
90.4033
 11
-238.021
 21
90.1791
  0
LINE
  8
0
 10
-238.021
 20
90.1791
 11
-238.151
 21
89.9679
  0
LINE
  8
0
 10
-238.151
 20
89.9679
 11
-238.303
 21
89.7723
  0
LINE
  8
0
 10
-238.303
 20
89.7723
 11
-238.476
 21
89.5946
  0
LINE
  8
0
 10
-238.476
 20
89.5946
 11
-238.667
 21
89.437
  0
LINE
  8
0
 10
-238.667
 20
89.437
 11
-238.875
 21
89.3014
  0
LINE
  8
0
 10
-238.875
 20
89.3014
 11
-239.096
 21
89.1895
  0
LINE
  8
0
 10
-239.096
 20
89.1895
 11
-239.328
 21
89.1026
  0
LINE
  8
0
 10
-239.328
 20
89.1026
 11
-239.569
 21
89.0417
  0
LINE
  8
0
 10
-239.569
 20
89.0417
 11
-239.814
 21
89.0077
  0
LINE
  8
0
 10
-239.814
 20
89.0077
 11
-240.062
 21
89.0009
  0
LINE
  8
0
 10
-240.062
 20
89.0009
 11
-240.309
 21
89.0213
  0
LINE
  8
0
 10
239.814
 20
89.0077
 11
239.569
 21
89.0417
  0
LINE
  8
0
 10
239.569
 20
89.0417
 11
239.328
 21
89.1026
  0
LINE
  8
0
 10
239.328
 20
89.1026
 11
239.096
 21
89.1895
  0
LINE
  8
0
 10
239.096
 20
89.1895
 11
238.875
 21
89.3014
  0
LINE
  8
0
 10
238.875
 20
89.3014
 11
238.667
 21
89.437
  0
LINE
  8
0
 10
238.667
 20
89.437
 11
238.476
 21
89.5946
  0
LINE
  8
0
 10
238.476
 20
89.5946
 11
238.303
 21
89.7723
  0
LINE
  8
0
 10
238.303
 20
89.7723
 11
238.151
 21
89.9679
  0
LINE
  8
0
 10
238.151
 20
89.9679
 11
238.021
 21
90.1791
  0
LINE
  8
0
 10
238.021
 20
90.1791
 11
237.915
 21
90.4033
  0
LINE
  8
0
 10
237.915
 20
90.4033
 11
237.835
 21
90.6378
  0
LINE
  8
0
 10
237.835
 20
90.6378
 11
237.781
 21
90.8797
  0
LINE
  8
0
 10
237.781
 20
90.8797
 11
237.753
 21
91.1261
  0
LINE
  8
0
 10
237.753
 20
91.1261
 11
237.753
 21
91.3739
  0
LINE
  8
0
 10
237.753
 20
91.3739
 11
237.781
 21
91.6203
  0
LINE
  8
0
 10
237.781
 20
91.6203
 11
237.835
 21
91.8622
  0
LINE
  8
0
 10
237.835
 20
91.8622
 11
237.915
 21
92.0967
  0
LINE
  8
0
 10
237.915
 20
92.0967
 11
238.021
 21
92.3209
  0
LINE
  8
0
 10
238.021
 20
92.3209
 11
238.151
 21
92.5321
  0
LINE
  8
0
 10
238.151
 20
92.5321
 11
238.303
 21
92.7277
  0
LINE
  8
0
 10
238.303
 20
92.7277
 11
238.476
 21
92.9054
  0
LINE
  8
0
 10
238.476
 20
92.9054
 11
238.667
 21
93.063
  0
LINE
  8
0
 10
238.667
 20
93.063
 11
238.875
 21
93.1985
  0
LINE
  8
0
 10
238.875
 20
93.1985
 11
239.096
 21
93.3105
  0
LINE
  8
0
 10
239.096
 20
93.3105
 11
239.328
 21
93.3974
  0
LINE
  8
0
 10
239.328
 20
93.3974
 11
239.569
 21
93.4583
  0
LINE
  8
0
 10
239.569
 20
93.4583
 11
239.814
 21
93.4923
  0
LINE
  8
0
 10
239.814
 20
93.4923
 11
240.062
 21
93.4991
  0
LINE
  8
0
 10
240.062
 20
93.4991
 11
240.309
 21
93.4787
  0
LINE
  8
0
 10
240.309
 20
93.4787
 11
240.552
 21
93.4312
  0
LINE
  8
0
 10
240.552
 20
93.4312
 11
240.789
 21
93.3571
  0
LINE
  8
0
 10
240.789
 20
93.3571
 11
241.016
 21
93.2576
  0
LINE
  8
0
 10
241.016
 20
93.2576
 11
241.231
 21
93.1336
  0
LINE
  8
0
 10
241.231
 20
93.1336
 11
241.43
 21
92.9868
  0
LINE
  8
0
 10
241.43
 20
92.9868
 11
241.613
 21
92.8189
  0
LINE
  8
0
 10
241.613
 20
92.8189
 11
241.776
 21
92.632
  0
LINE
  8
0
 10
241.776
 20
92.632
 11
241.917
 21
92.4283
  0
LINE
  8
0
 10
241.917
 20
92.4283
 11
242.035
 21
92.2102
  0
LINE
  8
0
 10
242.035
 20
92.2102
 11
242.128
 21
91.9806
  0
LINE
  8
0
 10
242.128
 20
91.9806
 11
242.196
 21
91.742
  0
LINE
  8
0
 10
242.196
 20
91.742
 11
242.236
 21
91.4975
  0
LINE
  8
0
 10
242.236
 20
91.4975
 11
242.25
 21
91.25
  0
LINE
  8
0
 10
242.25
 20
91.25
 11
242.236
 21
91.0025
  0
LINE
  8
0
 10
242.236
 20
91.0025
 11
242.196
 21
90.758
  0
LINE
  8
0
 10
242.196
 20
90.758
 11
242.128
 21
90.5194
  0
LINE
  8
0
 10
242.128
 20
90.5194
 11
242.035
 21
90.2897
  0
LINE
  8
0
 10
242.035
 20
90.2897
 11
241.917
 21
90.0717
  0
LINE
  8
0
 10
241.917
 20
90.0717
 11
241.776
 21
89.868
  0
LINE
  8
0
 10
241.776
 20
89.868
 11
241.613
 21
89.6811
  0
LINE
  8
0
 10
241.613
 20
89.6811
 11
241.43
 21
89.5132
  0
LINE
  8
0
 10
241.43
 20
89.5132
 11
241.231
 21
89.3664
  0
LINE
  8
0
 10
241.231
 20
89.3664
 11
241.016
 21
89.2424
  0
LINE
  8
0
 10
241.016
 20
89.2424
 11
240.789
 21
89.1429
  0
LINE
  8
0
 10
240.789
 20
89.1429
 11
240.552
 21
89.0688
  0
LINE
  8
0
 10
240.552
 20
89.0688
 11
240.309
 21
89.0213
  0
LINE
  8
0
 10
240.309
 20
89.0213
 11
240.062
 21
89.0009
  0
LINE
  8
0
 10
240.062
 20
89.0009
 11
239.814
 21
89.0077
  0
LINE
  8
0
 10
225.377
 20
1.3546
 11
225.133
 21
1.39136
  0
LINE
  8
0
 10
225.133
 20
1.39136
 11
224.897
 21
1.46405
  0
LINE
  8
0
 10
224.897
 20
1.46405
 11
224.675
 21
1.57104
  0
LINE
  8
0
 10
224.675
 20
1.57104
 11
224.471
 21
1.70998
  0
LINE
  8
0
 10
224.471
 20
1.70998
 11
224.29
 21
1.8777
  0
LINE
  8
0
 10
224.29
 20
1.8777
 11
224.137
 21
2.07051
  0
LINE
  8
0
 10
224.137
 20
2.07051
 11
224.013
 21
2.28409
  0
LINE
  8
0
 10
224.013
 20
2.28409
 11
223.923
 21
2.51364
  0
LINE
  8
0
 10
223.923
 20
2.51364
 11
223.868
 21
2.75407
  0
LINE
  8
0
 10
223.868
 20
2.75407
 11
223.85
 21
3
  0
LINE
  8
0
 10
223.85
 20
3
 11
223.868
 21
3.24591
  0
LINE
  8
0
 10
223.868
 20
3.24591
 11
223.923
 21
3.48634
  0
LINE
  8
0
 10
223.923
 20
3.48634
 11
224.013
 21
3.7159
  0
LINE
  8
0
 10
224.013
 20
3.7159
 11
224.137
 21
3.92947
  0
LINE
  8
0
 10
224.137
 20
3.92947
 11
224.29
 21
4.12228
  0
LINE
  8
0
 10
224.29
 20
4.12228
 11
224.471
 21
4.29001
  0
LINE
  8
0
 10
224.471
 20
4.29001
 11
224.675
 21
4.42894
  0
LINE
  8
0
 10
224.675
 20
4.42894
 11
224.897
 21
4.53593
  0
LINE
  8
0
 10
224.897
 20
4.53593
 11
225.133
 21
4.60863
  0
LINE
  8
0
 10
225.133
 20
4.60863
 11
225.377
 21
4.64539
  0
LINE
  8
0
 10
225.377
 20
4.64539
 11
225.623
 21
4.64539
  0
LINE
  8
0
 10
225.623
 20
4.64539
 11
225.867
 21
4.60863
  0
LINE
  8
0
 10
225.867
 20
4.60863
 11
226.103
 21
4.53593
  0
LINE
  8
0
 10
226.103
 20
4.53593
 11
226.325
 21
4.42894
  0
LINE
  8
0
 10
226.325
 20
4.42894
 11
226.529
 21
4.29001
  0
LINE
  8
0
 10
226.529
 20
4.29001
 11
226.71
 21
4.12228
  0
LINE
  8
0
 10
226.71
 20
4.12228
 11
226.863
 21
3.92947
  0
LINE
  8
0
 10
226.863
 20
3.92947
 11
226.987
 21
3.7159
  0
LINE
  8
0
 10
226.987
 20
3.7159
 11
227.077
 21
3.48634
  0
LINE
  8
0
 10
227.077
 20
3.48634
 11
227.132
 21
3.24591
  0
LINE
  8
0
 10
227.132
 20
3.24591
 11
227.15
 21
3
  0
LINE
  8
0
 10
227.15
 20
3
 11
227.132
 21
2.75407
  0
LINE
  8
0
 10
227.132
 20
2.75407
 11
227.077
 21
2.51364
  0
LINE
  8
0
 10
227.077
 20
2.51364
 11
226.987
 21
2.28409
  0
LINE
  8
0
 10
226.987
 20
2.28409
 11
226.863
 21
2.07051
  0
LINE
  8
0
 10
226.863
 20
2.07051
 11
226.71
 21
1.8777
  0
LINE
  8
0
 10
226.71
 20
1.8777
 11
226.529
 21
1.70998
  0
LINE
  8
0
 10
226.529
 20
1.70998
 11
226.325
 21
1.57104
  0
LINE
  8
0
 10
226.325
 20
1.57104
 11
226.103
 21
1.46405
  0
LINE
  8
0
 10
226.103
 20
1.46405
 11
225.867
 21
1.39136
  0
LINE
  8
0
 10
225.867
 20
1.39136
 11
225.623
 21
1.3546
  0
LINE
  8
0
 10
225.623
 20
1.3546
 11
225.377
 21
1.3546
  0
LINE
  8
0
 10
194.377
 20
1.3546
 11
194.133
 21
1.39136
  0
LINE
  8
0
 10
194.133
 20
1.39136
 11
193.897
 21
1.46405
  0
LINE
  8
0
 10
193.897
 20
1.46405
 11
193.675
 21
1.57104
  0
LINE
  8
0
 10
193.675
 20
1.57104
 11
193.471
 21
1.70998
  0
LINE
  8
0
 10
193.471
 20
1.70998
 11
193.29
 21
1.8777
  0
LINE
  8
0
 10
193.29
 20
1.8777
 11
193.137
 21
2.07051
  0
LINE
  8
0
 10
193.137
 20
2.07051
 11
193.013
 21
2.28409
  0
LINE
  8
0
 10
193.013
 20
2.28409
 11
192.923
 21
2.51364
  0
LINE
  8
0
 10
192.923
 20
2.51364
 11
192.868
 21
2.75407
  0
LINE
  8
0
 10
192.868
 20
2.75407
 11
192.85
 21
3
  0
LINE
  8
0
 10
192.85
 20
3
 11
192.868
 21
3.24591
  0
LINE
  8
0
 10
192.868
 20
3.24591
 11
192.923
 21
3.48634
  0
LINE
  8
0
 10
192.923
 20
3.48634
 11
193.013
 21
3.7159
  0
LINE
  8
0
 10
193.013
 20
3.7159
 11
193.137
 21
3.92947
  0
LINE
  8
0
 10
193.137
 20
3.92947
 11
193.29
 21
4.12228
  0
LINE
  8
0
 10
193.29
 20
4.12228
 11
193.471
 21
4.29001
  0
LINE
  8
0
 10
193.471
 20
4.29001
 11
193.675
 21
4.42894
  0
LINE
  8
0
 10
193.675
 20
4.42894
 11
193.897
 21
4.53593
  0
LINE
  8
0
 10
193.897
 20
4.53593
 11
194.133
 21
4.60863
  0
LINE
  8
0
 10
194.133
 20
4.60863
 11
194.377
 21
4.64539
  0
LINE
  8
0
 10
194.377
 20
4.64539
 11
194.623
 21
4.64539
  0
LINE
  8
0
 10
194.623
 20
4.64539
 11
194.867
 21
4.60863
  0
LINE
  8
0
 10
194.867
 20
4.60863
 11
195.103
 21
4.53593
  0
LINE
  8
0
 10
195.103
 20
4.53593
 11
195.325
 21
4.42894
  0
LINE
  8
0
 10
195.325
 20
4.42894
 11
195.529
 21
4.29001
  0
LINE
  8
0
 10
195.529
 20
4.29001
 11
195.71
 21
4.12228
  0
LINE
  8
0
 10
195.71
 20
4.12228
 11
195.863
 21
3.92947
  0
LINE
  8
0
 10
195.863
 20
3.92947
 11
195.987
 21
3.7159
  0
LINE
  8
0
 10
195.987
 20
3.7159
 11
196.077
 21
3.48634
  0
LINE
  8
0
 10
196.077
 20
3.48634
 11
196.132
 21
3.24591
  0
LINE
  8
0
 10
196.132
 20
3.24591
 11
196.15
 21
3
  0
LINE
  8
0
 10
196.15
 20
3
 11
196.132
 21
2.75407
  0
LINE
  8
0
 10
196.132
 20
2.75407
 11
196.077
 21
2.51364
  0
LINE
  8
0
 10
196.077
 20
2.51364
 11
195.987
 21
2.28409
  0
LINE
  8
0
 10
195.987
 20
2.28409
 11
195.863
 21
2.07051
  0
LINE
  8
0
 10
195.863
 20
2.07051
 11
195.71
 21
1.8777
  0
LINE
  8
0
 10
195.71
 20
1.8777
 11
195.529
 21
1.70998
  0
LINE
  8
0
 10
195.529
 20
1.70998
 11
195.325
 21
1.57104
  0
LINE
  8
0
 10
195.325
 20
1.57104
 11
195.103
 21
1.46405
  0
LINE
  8
0
 10
195.103
 20
1.46405
 11
194.867
 21
1.39136
  0
LINE
  8
0
 10
194.867
 20
1.39136
 11
194.623
 21
1.3546
  0
LINE
  8
0
 10
194.623
 20
1.3546
 11
194.377
 21
1.3546
  0
LINE
  8
0
 10
239.814
 20
-2.24231
 11
239.569
 21
-2.20825
  0
LINE
  8
0
 10
239.569
 20
-2.20825
 11
239.328
 21
-2.1474
  0
LINE
  8
0
 10
239.328
 20
-2.1474
 11
239.096
 21
-2.06049
  0
LINE
  8
0
 10
239.096
 20
-2.06049
 11
238.875
 21
-1.94855
  0
LINE
  8
0
 10
238.875
 20
-1.94855
 11
238.667
 21
-1.81296
  0
LINE
  8
0
 10
238.667
 20
-1.81296
 11
238.476
 21
-1.65536
  0
LINE
  8
0
 10
238.476
 20
-1.65536
 11
238.303
 21
-1.47769
  0
LINE
  8
0
 10
238.303
 20
-1.47769
 11
238.151
 21
-1.28206
  0
LINE
  8
0
 10
238.151
 20
-1.28206
 11
238.021
 21
-1.07088
  0
LINE
  8
0
 10
238.021
 20
-1.07088
 11
237.915
 21
-0.846695
  0
LINE
  8
0
 10
237.915
 20
-0.846695
 11
237.835
 21
-0.612228
  0
LINE
  8
0
 10
237.835
 20
-0.612228
 11
237.781
 21
-0.370331
  0
LINE
  8
0
 10
237.781
 20
-0.370331
 11
237.753
 21
-0.123947
  0
LINE
  8
0
 10
237.753
 20
-0.123947
 11
237.753
 21
0.123947
  0
LINE
  8
0
 10
237.753
 20
0.123947
 11
237.781
 21
0.370331
  0
LINE
  8
0
 10
237.781
 20
0.370331
 11
237.835
 21
0.612228
  0
LINE
  8
0
 10
237.835
 20
0.612228
 11
237.915
 21
0.846695
  0
LINE
  8
0
 10
237.915
 20
0.846695
 11
238.021
 21
1.07088
  0
LINE
  8
0
 10
238.021
 20
1.07088
 11
238.151
 21
1.28206
  0
LINE
  8
0
 10
238.151
 20
1.28206
 11
238.303
 21
1.47769
  0
LINE
  8
0
 10
238.303
 20
1.47769
 11
238.476
 21
1.65536
  0
LINE
  8
0
 10
238.476
 20
1.65536
 11
238.667
 21
1.81296
  0
LINE
  8
0
 10
238.667
 20
1.81296
 11
238.875
 21
1.94855
  0
LINE
  8
0
 10
238.875
 20
1.94855
 11
239.096
 21
2.06049
  0
LINE
  8
0
 10
239.096
 20
2.06049
 11
239.328
 21
2.1474
  0
LINE
  8
0
 10
239.328
 20
2.1474
 11
239.569
 21
2.20825
  0
LINE
  8
0
 10
239.569
 20
2.20825
 11
239.814
 21
2.24231
  0
LINE
  8
0
 10
239.814
 20
2.24231
 11
240.062
 21
2.24915
  0
LINE
  8
0
 10
240.062
 20
2.24915
 11
240.309
 21
2.22867
  0
LINE
  8
0
 10
240.309
 20
2.22867
 11
240.552
 21
2.18114
  0
LINE
  8
0
 10
240.552
 20
2.18114
 11
240.789
 21
2.10715
  0
LINE
  8
0
 10
240.789
 20
2.10715
 11
241.016
 21
2.00757
  0
LINE
  8
0
 10
241.016
 20
2.00757
 11
241.231
 21
1.88362
  0
LINE
  8
0
 10
241.231
 20
1.88362
 11
241.43
 21
1.7368
  0
LINE
  8
0
 10
241.43
 20
1.7368
 11
241.613
 21
1.56891
  0
LINE
  8
0
 10
241.613
 20
1.56891
 11
241.776
 21
1.38197
  0
LINE
  8
0
 10
241.776
 20
1.38197
 11
241.917
 21
1.17825
  0
LINE
  8
0
 10
241.917
 20
1.17825
 11
242.035
 21
0.960236
  0
LINE
  8
0
 10
242.035
 20
0.960236
 11
242.128
 21
0.73056
  0
LINE
  8
0
 10
242.128
 20
0.73056
 11
242.196
 21
0.49202
  0
LINE
  8
0
 10
242.196
 20
0.49202
 11
242.236
 21
0.247513
  0
LINE
  8
0
 10
242.236
 20
0.247513
 11
242.25
 21
0
  0
LINE
  8
0
 10
242.25
 20
0
 11
242.236
 21
-0.247513
  0
LINE
  8
0
 10
242.236
 20
-0.247513
 11
242.196
 21
-0.49202
  0
LINE
  8
0
 10
242.196
 20
-0.49202
 11
242.128
 21
-0.73056
  0
LINE
  8
0
 10
242.128
 20
-0.73056
 11
242.035
 21
-0.960236
  0
LINE
  8
0
 10
242.035
 20
-0.960236
 11
241.917
 21
-1.17825
  0
LINE
  8
0
 10
241.917
 20
-1.17825
 11
241.776
 21
-1.38197
  0
LINE
  8
0
 10
241.776
 20
-1.38197
 11
241.613
 21
-1.56891
  0
LINE
  8
0
 10
241.613
 20
-1.56891
 11
241.43
 21
-1.7368
  0
LINE
  8
0
 10
241.43
 20
-1.7368
 11
241.231
 21
-1.88362
  0
LINE
  8
0
 10
241.231
 20
-1.88362
 11
241.016
 21
-2.00757
  0
LINE
  8
0
 10
241.016
 20
-2.00757
 11
240.789
 21
-2.10715
  0
LINE
  8
0
 10
240.789
 20
-2.10715
 11
240.552
 21
-2.18114
  0
LINE
  8
0
 10
240.552
 20
-2.18114
 11
240.309
 21
-2.22867
  0
LINE
  8
0
 10
240.309
 20
-2.22867
 11
240.062
 21
-2.24915
  0
LINE
  8
0
 10
240.062
 20
-2.24915
 11
239.814
 21
-2.24231
  0
LINE
  8
0
 10
179.814
 20
-2.24231
 11
179.569
 21
-2.20825
  0
LINE
  8
0
 10
179.569
 20
-2.20825
 11
179.328
 21
-2.1474
  0
LINE
  8
0
 10
179.328
 20
-2.1474
 11
179.096
 21
-2.06049
  0
LINE
  8
0
 10
179.096
 20
-2.06049
 11
178.875
 21
-1.94855
  0
LINE
  8
0
 10
178.875
 20
-1.94855
 11
178.667
 21
-1.81296
  0
LINE
  8
0
 10
178.667
 20
-1.81296
 11
178.476
 21
-1.65536
  0
LINE
  8
0
 10
178.476
 20
-1.65536
 11
178.303
 21
-1.47769
  0
LINE
  8
0
 10
178.303
 20
-1.47769
 11
178.151
 21
-1.28206
  0
LINE
  8
0
 10
178.151
 20
-1.28206
 11
178.021
 21
-1.07088
  0
LINE
  8
0
 10
178.021
 20
-1.07088
 11
177.915
 21
-0.846695
  0
LINE
  8
0
 10
177.915
 20
-0.846695
 11
177.835
 21
-0.612228
  0
LINE
  8
0
 10
177.835
 20
-0.612228
 11
177.781
 21
-0.370331
  0
LINE
  8
0
 10
177.781
 20
-0.370331
 11
177.753
 21
-0.123947
  0
LINE
  8
0
 10
177.753
 20
-0.123947
 11
177.753
 21
0.123947
  0
LINE
  8
0
 10
177.753
 20
0.123947
 11
177.781
 21
0.370331
  0
LINE
  8
0
 10
177.781
 20
0.370331
 11
177.835
 21
0.612228
  0
LINE
  8
0
 10
177.835
 20
0.612228
 11
177.915
 21
0.846695
  0
LINE
  8
0
 10
177.915
 20
0.846695
 11
178.021
 21
1.07088
  0
LINE
  8
0
 10
178.021
 20
1.07088
 11
178.151
 21
1.28206
  0
LINE
  8
0
 10
178.151
 20
1.28206
 11
178.303
 21
1.47769
  0
LINE
  8
0
 10
178.303
 20
1.47769
 11
178.476
 21
1.65536
  0
LINE
  8
0
 10
178.476
 20
1.65536
 11
178.667
 21
1.81296
  0
LINE
  8
0
 10
178.667
 20
1.81296
 11
178.875
 21
1.94855
  0
LINE
  8
0
 10
178.875
 20
1.94855
 11
179.096
 21
2.06049
  0
LINE
  8
0
 10
179.096
 20
2.06049
 11
179.328
 21
2.1474
  0
LINE
  8
0
 10
179.328
 20
2.1474
 11
179.569
 21
2.20825
  0
LINE
  8
0
 10
179.569
 20
2.20825
 11
179.814
 21
2.24231
  0
LINE
  8
0
 10
179.814
 20
2.24231
 11
180.062
 21
2.24915
  0
LINE
  8
0
 10
180.062
 20
2.24915
 11
180.309
 21
2.22867
  0
LINE
  8
0
 10
180.309
 20
2.22867
 11
180.552
 21
2.18114
  0
LINE
  8
0
 10
180.552
 20
2.18114
 11
180.789
 21
2.10715
  0
LINE
  8
0
 10
180.789
 20
2.10715
 11
181.016
 21
2.00757
  0
LINE
  8
0
 10
181.016
 20
2.00757
 11
181.231
 21
1.88362
  0
LINE
  8
0
 10
181.231
 20
1.88362
 11
181.43
 21
1.7368
  0
LINE
  8
0
 10
181.43
 20
1.7368
 11
181.613
 21
1.56891
  0
LINE
  8
0
 10
181.613
 20
1.56891
 11
181.776
 21
1.38197
  0
LINE
  8
0
 10
181.776
 20
1.38197
 11
181.917
 21
1.17825
  0
LINE
  8
0
 10
181.917
 20
1.17825
 11
182.035
 21
0.960236
  0
LINE
  8
0
 10
182.035
 20
0.960236
 11
182.128
 21
0.73056
  0
LINE
  8
0
 10
182.128
 20
0.73056
 11
182.196
 21
0.49202
  0
LINE
  8
0
 10
182.196
 20
0.49202
 11
182.236
 21
0.247513
  0
LINE
  8
0
 10
182.236
 20
0.247513
 11
182.25
 21
0
  0
LINE
  8
0
 10
182.25
 20
0
 11
182.236
 21
-0.247513
  0
LINE
  8
0
 10
182.236
 20
-0.247513
 11
182.196
 21
-0.49202
  0
LINE
  8
0
 10
182.196
 20
-0.49202
 11
182.128
 21
-0.73056
  0
LINE
  8
0
 10
182.128
 20
-0.73056
 11
182.035
 21
-0.960236
  0
LINE
  8
0
 10
182.035
 20
-0.960236
 11
181.917
 21
-1.17825
  0
LINE
  8
0
 10
181.917
 20
-1.17825
 11
181.776
 21
-1.38197
  0
LINE
  8
0
 10
181.776
 20
-1.38197
 11
181.613
 21
-1.56891
  0
LINE
  8
0
 10
181.613
 20
-1.56891
 11
181.43
 21
-1.7368
  0
LINE
  8
0
 10
181.43
 20
-1.7368
 11
181.231
 21
-1.88362
  0
LINE
  8
0
 10
181.231
 20
-1.88362
 11
181.016
 21
-2.00757
  0
LINE
  8
0
 10
181.016
 20
-2.00757
 11
180.789
 21
-2.10715
  0
LINE
  8
0
 10
180.789
 20
-2.10715
 11
180.552
 21
-2.18114
  0
LINE
  8
0
 10
180.552
 20
-2.18114
 11
180.309
 21
-2.22867
  0
LINE
  8
0
 10
180.309
 20
-2.22867
 11
180.062
 21
-2.24915
  0
LINE
  8
0
 10
180.062
 20
-2.24915
 11
179.814
 21
-2.24231
  0
LINE
  8
0
 10
-240.309
 20
-2.22867
 11
-240.552
 21
-2.18114
  0
LINE
  8
0
 10
-240.552
 20
-2.18114
 11
-240.789
 21
-2.10715
  0
LINE
  8
0
 10
-240.789
 20
-2.10715
 11
-241.016
 21
-2.00757
  0
LINE
  8
0
 10
-241.016
 20
-2.00757
 11
-241.231
 21
-1.88362
  0
LINE
  8
0
 10
-241.231
 20
-1.88362
 11
-241.43
 21
-1.7368
  0
LINE
  8
0
 10
-241.43
 20
-1.7368
 11
-241.613
 21
-1.56891
  0
LINE
  8
0
 10
-241.613
 20
-1.56891
 11
-241.776
 21
-1.38197
  0
LINE
  8
0
 10
-241.776
 20
-1.38197
 11
-241.917
 21
-1.17825
  0
LINE
  8
0
 10
-241.917
 20
-1.17825
 11
-242.035
 21
-0.960236
  0
LINE
  8
0
 10
-242.035
 20
-0.960236
 11
-242.128
 21
-0.73056
  0
LINE
  8
0
 10
-242.128
 20
-0.73056
 11
-242.196
 21
-0.49202
  0
LINE
  8
0
 10
-242.196
 20
-0.49202
 11
-242.236
 21
-0.247513
  0
LINE
  8
0
 10
-242.236
 20
-0.247513
 11
-242.25
 21
0
  0
LINE
  8
0
 10
-242.25
 20
0
 11
-242.236
 21
0.247513
  0
LINE
  8
0
 10
-242.236
 20
0.247513
 11
-242.196
 21
0.49202
  0
LINE
  8
0
 10
-242.196
 20
0.49202
 11
-242.128
 21
0.73056
  0
LINE
  8
0
 10
-242.128
 20
0.73056
 11
-242.035
 21
0.960236
  0
LINE
  8
0
 10
-242.035
 20
0.960236
 11
-241.917
 21
1.17825
  0
LINE
  8
0
 10
-241.917
 20
1.17825
 11
-241.776
 21
1.38197
  0
LINE
  8
0
 10
-241.776
 20
1.38197
 11
-241.613
 21
1.56891
  0
LINE
  8
0
 10
-241.613
 20
1.56891
 11
-241.43
 21
1.7368
  0
LINE
  8
0
 10
-241.43
 20
1.7368
 11
-241.231
 21
1.88362
  0
LINE
  8
0
 10
-241.231
 20
1.88362
 11
-241.016
 21
2.00757
  0
LINE
  8
0
 10
-241.016
 20
2.00757
 11
-240.789
 21
2.10715
  0
LINE
  8
0
 10
-240.789
 20
2.10715
 11
-240.552
 21
2.18114
  0
LINE
  8
0
 10
-240.552
 20
2.18114
 11
-240.309
 21
2.22867
  0
LINE
  8
0
 10
-240.309
 20
2.22867
 11
-240.062
 21
2.24915
  0
LINE
  8
0
 10
-240.062
 20
2.24915
 11
-239.814
 21
2.24231
  0
LINE
  8
0
 10
-239.814
 20
2.24231
 11
-239.569
 21
2.20825
  0
LINE
  8
0
 10
-239.569
 20
2.20825
 11
-239.328
 21
2.1474
  0
LINE
  8
0
 10
-239.328
 20
2.1474
 11
-239.096
 21
2.06049
  0
LINE
  8
0
 10
-239.096
 20
2.06049
 11
-238.875
 21
1.94855
  0
LINE
  8
0
 10
-238.875
 20
1.94855
 11
-238.667
 21
1.81296
  0
LINE
  8
0
 10
-238.667
 20
1.81296
 11
-238.476
 21
1.65536
  0
LINE
  8
0
 10
-238.476
 20
1.65536
 11
-238.303
 21
1.47769
  0
LINE
  8
0
 10
-238.303
 20
1.47769
 11
-238.151
 21
1.28206
  0
LINE
  8
0
 10
-238.151
 20
1.28206
 11
-238.021
 21
1.07088
  0
LINE
  8
0
 10
-238.021
 20
1.07088
 11
-237.915
 21
0.846695
  0
LINE
  8
0
 10
-237.915
 20
0.846695
 11
-237.835
 21
0.612228
  0
LINE
  8
0
 10
-237.835
 20
0.612228
 11
-237.781
 21
0.370331
  0
LINE
  8
0
 10
-237.781
 20
0.370331
 11
-237.753
 21
0.123947
  0
LINE
  8
0
 10
-237.753
 20
0.123947
 11
-237.753
 21
-0.123947
  0
LINE
  8
0
 10
-237.753
 20
-0.123947
 11
-237.781
 21
-0.370331
  0
LINE
  8
0
 10
-237.781
 20
-0.370331
 11
-237.835
 21
-0.612228
  0
LINE
  8
0
 10
-237.835
 20
-0.612228
 11
-237.915
 21
-0.846695
  0
LINE
  8
0
 10
-237.915
 20
-0.846695
 11
-238.021
 21
-1.07088
  0
LINE
  8
0
 10
-238.021
 20
-1.07088
 11
-238.151
 21
-1.28206
  0
LINE
  8
0
 10
-238.151
 20
-1.28206
 11
-238.303
 21
-1.47769
  0
LINE
  8
0
 10
-238.303
 20
-1.47769
 11
-238.476
 21
-1.65536
  0
LINE
  8
0
 10
-238.476
 20
-1.65536
 11
-238.667
 21
-1.81296
  0
LINE
  8
0
 10
-238.667
 20
-1.81296
 11
-238.875
 21
-1.94855
  0
LINE
  8
0
 10
-238.875
 20
-1.94855
 11
-239.096
 21
-2.06049
  0
LINE
  8
0
 10
-239.096
 20
-2.06049
 11
-239.328
 21
-2.1474
  0
LINE
  8
0
 10
-239.328
 20
-2.1474
 11
-239.569
 21
-2.20825
  0
LINE
  8
0
 10
-239.569
 20
-2.20825
 11
-239.814
 21
-2.24231
  0
LINE
  8
0
 10
-239.814
 20
-2.24231
 11
-240.062
 21
-2.24915
  0
LINE
  8
0
 10
-240.062
 20
-2.24915
 11
-240.309
 21
-2.22867
  0
LINE
  8
0
 10
-180.309
 20
-2.22867
 11
-180.552
 21
-2.18114
  0
LINE
  8
0
 10
-180.552
 20
-2.18114
 11
-180.789
 21
-2.10715
  0
LINE
  8
0
 10
-180.789
 20
-2.10715
 11
-181.016
 21
-2.00757
  0
LINE
  8
0
 10
-181.016
 20
-2.00757
 11
-181.231
 21
-1.88362
  0
LINE
  8
0
 10
-181.231
 20
-1.88362
 11
-181.43
 21
-1.7368
  0
LINE
  8
0
 10
-181.43
 20
-1.7368
 11
-181.613
 21
-1.56891
  0
LINE
  8
0
 10
-181.613
 20
-1.56891
 11
-181.776
 21
-1.38197
  0
LINE
  8
0
 10
-181.776
 20
-1.38197
 11
-181.917
 21
-1.17825
  0
LINE
  8
0
 10
-181.917
 20
-1.17825
 11
-182.035
 21
-0.960236
  0
LINE
  8
0
 10
-182.035
 20
-0.960236
 11
-182.128
 21
-0.73056
  0
LINE
  8
0
 10
-182.128
 20
-0.73056
 11
-182.196
 21
-0.49202
  0
LINE
  8
0
 10
-182.196
 20
-0.49202
 11
-182.236
 21
-0.247513
  0
LINE
  8
0
 10
-182.236
 20
-0.247513
 11
-182.25
 21
0
  0
LINE
  8
0
 10
-182.25
 20
0
 11
-182.236
 21
0.247513
  0
LINE
  8
0
 10
-182.236
 20
0.247513
 11
-182.196
 21
0.49202
  0
LINE
  8
0
 10
-182.196
 20
0.49202
 11
-182.128
 21
0.73056
  0
LINE
  8
0
 10
-182.128
 20
0.73056
 11
-182.035
 21
0.960236
  0
LINE
  8
0
 10
-182.035
 20
0.960236
 11
-181.917
 21
1.17825
  0
LINE
  8
0
 10
-181.917
 20
1.17825
 11
-181.776
 21
1.38197
  0
LINE
  8
0
 10
-181.776
 20
1.38197
 11
-181.613
 21
1.56891
  0
LINE
  8
0
 10
-181.613
 20
1.56891
 11
-181.43
 21
1.7368
  0
LINE
  8
0
 10
-181.43
 20
1.7368
 11
-181.231
 21
1.88362
  0
LINE
  8
0
 10
-181.231
 20
1.88362
 11
-181.016
 21
2.00757
  0
LINE
  8
0
 10
-181.016
 20
2.00757
 11
-180.789
 21
2.10715
  0
LINE
  8
0
 10
-180.789
 20
2.10715
 11
-180.552
 21
2.18114
  0
LINE
  8
0
 10
-180.552
 20
2.18114
 11
-180.309
 21
2.22867
  0
LINE
  8
0
 10
-180.309
 20
2.22867
 11
-180.062
 21
2.24915
  0
LINE
  8
0
 10
-180.062
 20
2.24915
 11
-179.814
 21
2.24231
  0
LINE
  8
0
 10
-179.814
 20
2.24231
 11
-179.569
 21
2.20825
  0
LINE
  8
0
 10
-179.569
 20
2.20825
 11
-179.328
 21
2.1474
  0
LINE
  8
0
 10
-179.328
 20
2.1474
 11
-179.096
 21
2.06049
  0
LINE
  8
0
 10
-179.096
 20
2.06049
 11
-178.875
 21
1.94855
  0
LINE
  8
0
 10
-178.875
 20
1.94855
 11
-178.667
 21
1.81296
  0
LINE
  8
0
 10
-178.667
 20
1.81296
 11
-178.476
 21
1.65536
  0
LINE
  8
0
 10
-178.476
 20
1.65536
 11
-178.303
 21
1.47769
  0
LINE
  8
0
 10
-178.303
 20
1.47769
 11
-178.151
 21
1.28206
  0
LINE
  8
0
 10
-178.151
 20
1.28206
 11
-178.021
 21
1.07088
  0
LINE
  8
0
 10
-178.021
 20
1.07088
 11
-177.915
 21
0.846695
  0
LINE
  8
0
 10
-177.915
 20
0.846695
 11
-177.835
 21
0.612228
  0
LINE
  8
0
 10
-177.835
 20
0.612228
 11
-177.781
 21
0.370331
  0
LINE
  8
0
 10
-177.781
 20
0.370331
 11
-177.753
 21
0.123947
  0
LINE
  8
0
 10
-177.753
 20
0.123947
 11
-177.753
 21
-0.123947
  0
LINE
  8
0
 10
-177.753
 20
-0.123947
 11
-177.781
 21
-0.370331
  0
LINE
  8
0
 10
-177.781
 20
-0.370331
 11
-177.835
 21
-0.612228
  0
LINE
  8
0
 10
-177.835
 20
-0.612228
 11
-177.915
 21
-0.846695
  0
LINE
  8
0
 10
-177.915
 20
-0.846695
 11
-178.021
 21
-1.07088
  0
LINE
  8
0
 10
-178.021
 20
-1.07088
 11
-178.151
 21
-1.28206
  0
LINE
  8
0
 10
-178.151
 20
-1.28206
 11
-178.303
 21
-1.47769
  0
LINE
  8
0
 10
-178.303
 20
-1.47769
 11
-178.476
 21
-1.65536
  0
LINE
  8
0
 10
-178.476
 20
-1.65536
 11
-178.667
 21
-1.81296
  0
LINE
  8
0
 10
-178.667
 20
-1.81296
 11
-178.875
 21
-1.94855
  0
LINE
  8
0
 10
-178.875
 20
-1.94855
 11
-179.096
 21
-2.06049
  0
LINE
  8
0
 10
-179.096
 20
-2.06049
 11
-179.328
 21
-2.1474
  0
LINE
  8
0
 10
-179.328
 20
-2.1474
 11
-179.569
 21
-2.20825
  0
LINE
  8
0
 10
-179.569
 20
-2.20825
 11
-179.814
 21
-2.24231
  0
LINE
  8
0
 10
-179.814
 20
-2.24231
 11
-180.062
 21
-2.24915
  0
LINE
  8
0
 10
-180.062
 20
-2.24915
 11
-180.309
 21
-2.22867
  0
LINE
  8
0
 10
208.798
 20
-23.937
 11
207.609
 21
-23.7487
  0
LINE
  8
0
 10
207.609
 20
-23.7487
 11
206.446
 21
-23.4371
  0
LINE
  8
0
 10
206.446
 20
-23.4371
 11
205.323
 21
-23.0058
  0
LINE
  8
0
 10
205.323
 20
-23.0058
 11
204.25
 21
-22.4593
  0
LINE
  8
0
 10
204.25
 20
-22.4593
 11
203.24
 21
-21.8037
  0
LINE
  8
0
 10
203.24
 20
-21.8037
 11
202.305
 21
-21.0462
  0
LINE
  8
0
 10
202.305
 20
-21.0462
 11
201.454
 21
-20.195
  0
LINE
  8
0
 10
201.454
 20
-20.195
 11
200.696
 21
-19.2595
  0
LINE
  8
0
 10
200.696
 20
-19.2595
 11
200.041
 21
-18.25
  0
LINE
  8
0
 10
200.041
 20
-18.25
 11
199.494
 21
-17.1775
  0
LINE
  8
0
 10
199.494
 20
-17.1775
 11
199.063
 21
-16.0537
  0
LINE
  8
0
 10
199.063
 20
-16.0537
 11
198.751
 21
-14.891
  0
LINE
  8
0
 10
198.751
 20
-14.891
 11
198.563
 21
-13.7021
  0
LINE
  8
0
 10
198.563
 20
-13.7021
 11
198.5
 21
-12.5
  0
LINE
  8
0
 10
198.5
 20
-12.5
 11
198.563
 21
-11.2979
  0
LINE
  8
0
 10
198.563
 20
-11.2979
 11
198.751
 21
-10.109
  0
LINE
  8
0
 10
198.751
 20
-10.109
 11
199.063
 21
-8.9463
  0
LINE
  8
0
 10
199.063
 20
-8.9463
 11
199.494
 21
-7.82253
  0
LINE
  8
0
 10
199.494
 20
-7.82253
 11
200.041
 21
-6.75
  0
LINE
  8
0
 10
200.041
 20
-6.75
 11
200.696
 21
-5.74046
  0
LINE
  8
0
 10
200.696
 20
-5.74046
 11
201.454
 21
-4.80499
  0
LINE
  8
0
 10
201.454
 20
-4.80499
 11
202.305
 21
-3.95383
  0
LINE
  8
0
 10
202.305
 20
-3.95383
 11
203.24
 21
-3.1963
  0
LINE
  8
0
 10
203.24
 20
-3.1963
 11
204.25
 21
-2.5407
  0
LINE
  8
0
 10
204.25
 20
-2.5407
 11
205.323
 21
-1.99422
  0
LINE
  8
0
 10
205.323
 20
-1.99422
 11
206.446
 21
-1.56285
  0
LINE
  8
0
 10
206.446
 20
-1.56285
 11
207.609
 21
-1.2513
  0
LINE
  8
0
 10
207.609
 20
-1.2513
 11
208.798
 21
-1.06299
  0
LINE
  8
0
 10
208.798
 20
-1.06299
 11
210
 21
-1
  0
LINE
  8
0
 10
210
 20
-1
 11
211.202
 21
-1.06299
  0
LINE
  8
0
 10
211.202
 20
-1.06299
 11
212.391
 21
-1.2513
  0
LINE
  8
0
 10
212.391
 20
-1.2513
 11
213.554
 21
-1.56285
  0
LINE
  8
0
 10
213.554
 20
-1.56285
 11
214.677
 21
-1.99422
  0
LINE
  8
0
 10
214.677
 20
-1.99422
 11
215.75
 21
-2.5407
  0
LINE
  8
0
 10
215.75
 20
-2.5407
 11
216.76
 21
-3.1963
  0
LINE
  8
0
 10
216.76
 20
-3.1963
 11
217.695
 21
-3.95383
  0
LINE
  8
0
 10
217.695
 20
-3.95383
 11
218.546
 21
-4.80499
  0
LINE
  8
0
 10
218.546
 20
-4.80499
 11
219.304
 21
-5.74046
  0
LINE
  8
0
 10
219.304
 20
-5.74046
 11
219.959
 21
-6.75
  0
LINE
  8
0
 10
219.959
 20
-6.75
 11
220.506
 21
-7.82253
  0
LINE
  8
0
 10
220.506
 20
-7.82253
 11
220.937
 21
-8.9463
  0
LINE
  8
0
 10
220.937
 20
-8.9463
 11
221.249
 21
-10.109
  0
LINE
  8
0
 10
221.249
 20
-10.109
 11
221.437
 21
-11.2979
  0
LINE
  8
0
 10
221.437
 20
-11.2979
 11
221.5
 21
-12.5
  0
LINE
  8
0
 10
221.5
 20
-12.5
 11
221.437
 21
-13.7021
  0
LINE
  8
0
 10
221.437
 20
-13.7021
 11
221.249
 21
-14.891
  0
LINE
  8
0
 10
221.249
 20
-14.891
 11
220.937
 21
-16.0537
  0
LINE
  8
0
 10
220.937
 20
-16.0537
 11
220.506
 21
-17.1775
  0
LINE
  8
0
 10
220.506
 20
-17.1775
 11
219.959
 21
-18.25
  0
LINE
  8
0
 10
219.959
 20
-18.25
 11
219.304
 21
-19.2595
  0
LINE
  8
0
 10
219.304
 20
-19.2595
 11
218.546
 21
-20.195
  0
LINE
  8
0
 10
218.546
 20
-20.195
 11
217.695
 21
-21.0462
  0
LINE
  8
0
 10
217.695
 20
-21.0462
 11
216.76
 21
-21.8037
  0
LINE
  8
0
 10
216.76
 20
-21.8037
 11
215.75
 21
-22.4593
  0
LINE
  8
0
 10
215.75
 20
-22.4593
 11
214.677
 21
-23.0058
  0
LINE
  8
0
 10
214.677
 20
-23.0058
 11
213.554
 21
-23.4371
  0
LINE
  8
0
 10
213.554
 20
-23.4371
 11
212.391
 21
-23.7487
  0
LINE
  8
0
 10
212.391
 20
-23.7487
 11
211.202
 21
-23.937
  0
LINE
  8
0
 10
211.202
 20
-23.937
 11
210
 21
-24
  0
LINE
  8
0
 10
210
 20
-24
 11
208.798
 21
-23.937
  0
LINE
  8
0
 10
194.377
 20
-29.6454
 11
194.133
 21
-29.6086
  0
LINE
  8
0
 10
194.133
 20
-29.6086
 11
193.897
 21
-29.5359
  0
LINE
  8
0
 10
193.897
 20
-29.5359
 11
193.675
 21
-29.4289
  0
LINE
  8
0
 10
193.675
 20
-29.4289
 11
193.471
 21
-29.29
  0
LINE
  8
0
 10
193.471
 20
-29.29
 11
193.29
 21
-29.1223
  0
LINE
  8
0
 10
193.29
 20
-29.1223
 11
193.137
 21
-28.9295
  0
LINE
  8
0
 10
193.137
 20
-28.9295
 11
193.013
 21
-28.7159
  0
LINE
  8
0
 10
193.013
 20
-28.7159
 11
192.923
 21
-28.4863
  0
LINE
  8
0
 10
192.923
 20
-28.4863
 11
192.868
 21
-28.2459
  0
LINE
  8
0
 10
192.868
 20
-28.2459
 11
192.85
 21
-28
  0
LINE
  8
0
 10
192.85
 20
-28
 11
192.868
 21
-27.7541
  0
LINE
  8
0
 10
192.868
 20
-27.7541
 11
192.923
 21
-27.5136
  0
LINE
  8
0
 10
192.923
 20
-27.5136
 11
193.013
 21
-27.2841
  0
LINE
  8
0
 10
193.013
 20
-27.2841
 11
193.137
 21
-27.0705
  0
LINE
  8
0
 10
193.137
 20
-27.0705
 11
193.29
 21
-26.8777
  0
LINE
  8
0
 10
193.29
 20
-26.8777
 11
193.471
 21
-26.71
  0
LINE
  8
0
 10
193.471
 20
-26.71
 11
193.675
 21
-26.571
  0
LINE
  8
0
 10
193.675
 20
-26.571
 11
193.897
 21
-26.4641
  0
LINE
  8
0
 10
193.897
 20
-26.4641
 11
194.133
 21
-26.3914
  0
LINE
  8
0
 10
194.133
 20
-26.3914
 11
194.377
 21
-26.3546
  0
LINE
  8
0
 10
194.377
 20
-26.3546
 11
194.623
 21
-26.3546
  0
LINE
  8
0
 10
194.623
 20
-26.3546
 11
194.867
 21
-26.3914
  0
LINE
  8
0
 10
194.867
 20
-26.3914
 11
195.103
 21
-26.4641
  0
LINE
  8
0
 10
195.103
 20
-26.4641
 11
195.325
 21
-26.571
  0
LINE
  8
0
 10
195.325
 20
-26.571
 11
195.529
 21
-26.71
  0
LINE
  8
0
 10
195.529
 20
-26.71
 11
195.71
 21
-26.8777
  0
LINE
  8
0
 10
195.71
 20
-26.8777
 11
195.863
 21
-27.0705
  0
LINE
  8
0
 10
195.863
 20
-27.0705
 11
195.987
 21
-27.2841
  0
LINE
  8
0
 10
195.987
 20
-27.2841
 11
196.077
 21
-27.5136
  0
LINE
  8
0
 10
196.077
 20
-27.5136
 11
196.132
 21
-27.7541
  0
LINE
  8
0
 10
196.132
 20
-27.7541
 11
196.15
 21
-28
  0
LINE
  8
0
 10
196.15
 20
-28
 11
196.132
 21
-28.2459
  0
LINE
  8
0
 10
196.132
 20
-28.2459
 11
196.077
 21
-28.4863
  0
LINE
  8
0
 10
196.077
 20
-28.4863
 11
195.987
 21
-28.7159
  0
LINE
  8
0
 10
195.987
 20
-28.7159
 11
195.863
 21
-28.9295
  0
LINE
  8
0
 10
195.863
 20
-28.9295
 11
195.71
 21
-29.1223
  0
LINE
  8
0
 10
195.71
 20
-29.1223
 11
195.529
 21
-29.29
  0
LINE
  8
0
 10
195.529
 20
-29.29
 11
195.325
 21
-29.4289
  0
LINE
  8
0
 10
195.325
 20
-29.4289
 11
195.103
 21
-29.5359
  0
LINE
  8
0
 10
195.103
 20
-29.5359
 11
194.867
 21
-29.6086
  0
LINE
  8
0
 10
194.867
 20
-29.6086
 11
194.623
 21
-29.6454
  0
LINE
  8
0
 10
194.623
 20
-29.6454
 11
194.377
 21
-29.6454
  0
LINE
  8
0
 10
225.377
 20
-29.6454
 11
225.133
 21
-29.6086
  0
LINE
  8
0
 10
225.133
 20
-29.6086
 11
224.897
 21
-29.5359
  0
LINE
  8
0
 10
224.897
 20
-29.5359
 11
224.675
 21
-29.4289
  0
LINE
  8
0
 10
224.675
 20
-29.4289
 11
224.471
 21
-29.29
  0
LINE
  8
0
 10
224.471
 20
-29.29
 11
224.29
 21
-29.1223
  0
LINE
  8
0
 10
224.29
 20
-29.1223
 11
224.137
 21
-28.9295
  0
LINE
  8
0
 10
224.137
 20
-28.9295
 11
224.013
 21
-28.7159
  0
LINE
  8
0
 10
224.013
 20
-28.7159
 11
223.923
 21
-28.4863
  0
LINE
  8
0
 10
223.923
 20
-28.4863
 11
223.868
 21
-28.2459
  0
LINE
  8
0
 10
223.868
 20
-28.2459
 11
223.85
 21
-28
  0
LINE
  8
0
 10
223.85
 20
-28
 11
223.868
 21
-27.7541
  0
LINE
  8
0
 10
223.868
 20
-27.7541
 11
223.923
 21
-27.5136
  0
LINE
  8
0
 10
223.923
 20
-27.5136
 11
224.013
 21
-27.2841
  0
LINE
  8
0
 10
224.013
 20
-27.2841
 11
224.137
 21
-27.0705
  0
LINE
  8
0
 10
224.137
 20
-27.0705
 11
224.29
 21
-26.8777
  0
LINE
  8
0
 10
224.29
 20
-26.8777
 11
224.471
 21
-26.71
  0
LINE
  8
0
 10
224.471
 20
-26.71
 11
224.675
 21
-26.571
  0
LINE
  8
0
 10
224.675
 20
-26.571
 11
224.897
 21
-26.4641
  0
LINE
  8
0
 10
224.897
 20
-26.4641
 11
225.133
 21
-26.3914
  0
LINE
  8
0
 10
225.133
 20
-26.3914
 11
225.377
 21
-26.3546
  0
LINE
  8
0
 10
225.377
 20
-26.3546
 11
225.623
 21
-26.3546
  0
LINE
  8
0
 10
225.623
 20
-26.3546
 11
225.867
 21
-26.3914
  0
LINE
  8
0
 10
225.867
 20
-26.3914
 11
226.103
 21
-26.4641
  0
LINE
  8
0
 10
226.103
 20
-26.4641
 11
226.325
 21
-26.571
  0
LINE
  8
0
 10
226.325
 20
-26.571
 11
226.529
 21
-26.71
  0
LINE
  8
0
 10
226.529
 20
-26.71
 11
226.71
 21
-26.8777
  0
LINE
  8
0
 10
226.71
 20
-26.8777
 11
226.863
 21
-27.0705
  0
LINE
  8
0
 10
226.863
 20
-27.0705
 11
226.987
 21
-27.2841
  0
LINE
  8
0
 10
226.987
 20
-27.2841
 11
227.077
 21
-27.5136
  0
LINE
  8
0
 10
227.077
 20
-27.5136
 11
227.132
 21
-27.7541
  0
LINE
  8
0
 10
227.132
 20
-27.7541
 11
227.15
 21
-28
  0
LINE
  8
0
 10
227.15
 20
-28
 11
227.132
 21
-28.2459
  0
LINE
  8
0
 10
227.132
 20
-28.2459
 11
227.077
 21
-28.4863
  0
LINE
  8
0
 10
227.077
 20
-28.4863
 11
226.987
 21
-28.7159
  0
LINE
  8
0
 10
226.987
 20
-28.7159
 11
226.863
 21
-28.9295
  0
LINE
  8
0
 10
226.863
 20
-28.9295
 11
226.71
 21
-29.1223
  0
LINE
  8
0
 10
226.71
 20
-29.1223
 11
226.529
 21
-29.29
  0
LINE
  8
0
 10
226.529
 20
-29.29
 11
226.325
 21
-29.4289
  0
LINE
  8
0
 10
226.325
 20
-29.4289
 11
226.103
 21
-29.5359
  0
LINE
  8
0
 10
226.103
 20
-29.5359
 11
225.867
 21
-29.6086
  0
LINE
  8
0
 10
225.867
 20
-29.6086
 11
225.623
 21
-29.6454
  0
LINE
  8
0
 10
225.623
 20
-29.6454
 11
225.377
 21
-29.6454
  0
LINE
  8
0
 10
-240.309
 20
-93.4787
 11
-240.552
 21
-93.4312
  0
LINE
  8
0
 10
-240.552
 20
-93.4312
 11
-240.789
 21
-93.3571
  0
LINE
  8
0
 10
-240.789
 20
-93.3571
 11
-241.016
 21
-93.2576
  0
LINE
  8
0
 10
-241.016
 20
-93.2576
 11
-241.231
 21
-93.1336
  0
LINE
  8
0
 10
-241.231
 20
-93.1336
 11
-241.43
 21
-92.9868
  0
LINE
  8
0
 10
-241.43
 20
-92.9868
 11
-241.613
 21
-92.8189
  0
LINE
  8
0
 10
-241.613
 20
-92.8189
 11
-241.776
 21
-92.632
  0
LINE
  8
0
 10
-241.776
 20
-92.632
 11
-241.917
 21
-92.4283
  0
LINE
  8
0
 10
-241.917
 20
-92.4283
 11
-242.035
 21
-92.2102
  0
LINE
  8
0
 10
-242.035
 20
-92.2102
 11
-242.128
 21
-91.9806
  0
LINE
  8
0
 10
-242.128
 20
-91.9806
 11
-242.196
 21
-91.742
  0
LINE
  8
0
 10
-242.196
 20
-91.742
 11
-242.236
 21
-91.4975
  0
LINE
  8
0
 10
-242.236
 20
-91.4975
 11
-242.25
 21
-91.25
  0
LINE
  8
0
 10
-242.25
 20
-91.25
 11
-242.236
 21
-91.0025
  0
LINE
  8
0
 10
-242.236
 20
-91.0025
 11
-242.196
 21
-90.758
  0
LINE
  8
0
 10
-242.196
 20
-90.758
 11
-242.128
 21
-90.5194
  0
LINE
  8
0
 10
-242.128
 20
-90.5194
 11
-242.035
 21
-90.2897
  0
LINE
  8
0
 10
-242.035
 20
-90.2897
 11
-241.917
 21
-90.0717
  0
LINE
  8
0
 10
-241.917
 20
-90.0717
 11
-241.776
 21
-89.868
  0
LINE
  8
0
 10
-241.776
 20
-89.868
 11
-241.613
 21
-89.6811
  0
LINE
  8
0
 10
-241.613
 20
-89.6811
 11
-241.43
 21
-89.5132
  0
LINE
  8
0
 10
-241.43
 20
-89.5132
 11
-241.231
 21
-89.3664
  0
LINE
  8
0
 10
-241.231
 20
-89.3664
 11
-241.016
 21
-89.2424
  0
LINE
  8
0
 10
-241.016
 20
-89.2424
 11
-240.789
 21
-89.1429
  0
LINE
  8
0
 10
-240.789
 20
-89.1429
 11
-240.552
 21
-89.0688
  0
LINE
  8
0
 10
-240.552
 20
-89.0688
 11
-240.309
 21
-89.0213
  0
LINE
  8
0
 10
-240.309
 20
-89.0213
 11
-240.062
 21
-89.0009
  0
LINE
  8
0
 10
-240.062
 20
-89.0009
 11
-239.814
 21
-89.0077
  0
LINE
  8
0
 10
-239.814
 20
-89.0077
 11
-239.569
 21
-89.0417
  0
LINE
  8
0
 10
-239.569
 20
-89.0417
 11
-239.328
 21
-89.1026
  0
LINE
  8
0
 10
-239.328
 20
-89.1026
 11
-239.096
 21
-89.1895
  0
LINE
  8
0
 10
-239.096
 20
-89.1895
 11
-238.875
 21
-89.3014
  0
LINE
  8
0
 10
-238.875
 20
-89.3014
 11
-238.667
 21
-89.437
  0
LINE
  8
0
 10
-238.667
 20
-89.437
 11
-238.476
 21
-89.5946
  0
LINE
  8
0
 10
-238.476
 20
-89.5946
 11
-238.303
 21
-89.7723
  0
LINE
  8
0
 10
-238.303
 20
-89.7723
 11
-238.151
 21
-89.9679
  0
LINE
  8
0
 10
-238.151
 20
-89.9679
 11
-238.021
 21
-90.1791
  0
LINE
  8
0
 10
-238.021
 20
-90.1791
 11
-237.915
 21
-90.4033
  0
LINE
  8
0
 10
-237.915
 20
-90.4033
 11
-237.835
 21
-90.6378
  0
LINE
  8
0
 10
-237.835
 20
-90.6378
 11
-237.781
 21
-90.8797
  0
LINE
  8
0
 10
-237.781
 20
-90.8797
 11
-237.753
 21
-91.1261
  0
LINE
  8
0
 10
-237.753
 20
-91.1261
 11
-237.753
 21
-91.3739
  0
LINE
  8
0
 10
-237.753
 20
-91.3739
 11
-237.781
 21
-91.6203
  0
LINE
  8
0
 10
-237.781
 20
-91.6203
 11
-237.835
 21
-91.8622
  0
LINE
  8
0
 10
-237.835
 20
-91.8622
 11
-237.915
 21
-92.0967
  0
LINE
  8
0
 10
-237.915
 20
-92.0967
 11
-238.021
 21
-92.3209
  0
LINE
  8
0
 10
-238.021
 20
-92.3209
 11
-238.151
 21
-92.5321
  0
LINE
  8
0
 10
-238.151
 20
-92.5321
 11
-238.303
 21
-92.7277
  0
LINE
  8
0
 10
-238.303
 20
-92.7277
 11
-238.476
 21
-92.9054
  0
LINE
  8
0
 10
-238.476
 20
-92.9054
 11
-238.667
 21
-93.063
  0
LINE
  8
0
 10
-238.667
 20
-93.063
 11
-238.875
 21
-93.1985
  0
LINE
  8
0
 10
-238.875
 20
-93.1985
 11
-239.096
 21
-93.3105
  0
LINE
  8
0
 10
-239.096
 20
-93.3105
 11
-239.328
 21
-93.3974
  0
LINE
  8
0
 10
-239.328
 20
-93.3974
 11
-239.569
 21
-93.4583
  0
LINE
  8
0
 10
-239.569
 20
-93.4583
 11
-239.814
 21
-93.4923
  0
LINE
  8
0
 10
-239.814
 20
-93.4923
 11
-240.062
 21
-93.4991
  0
LINE
  8
0
 10
-240.062
 20
-93.4991
 11
-240.309
 21
-93.4787
  0
LINE
  8
0
 10
239.814
 20
-93.4923
 11
239.569
 21
-93.4583
  0
LINE
  8
0
 10
239.569
 20
-93.4583
 11
239.328
 21
-93.3974
  0
LINE
  8
0
 10
239.328
 20
-93.3974
 11
239.096
 21
-93.3105
  0
LINE
  8
0
 10
239.096
 20
-93.3105
 11
238.875
 21
-93.1985
  0
LINE
  8
0
 10
238.875
 20
-93.1985
 11
238.667
 21
-93.063
  0
LINE
  8
0
 10
238.667
 20
-93.063
 11
238.476
 21
-92.9054
  0
LINE
  8
0
 10
238.476
 20
-92.9054
 11
238.303
 21
-92.7277
  0
LINE
  8
0
 10
238.303
 20
-92.7277
 11
238.151
 21
-92.5321
  0
LINE
  8
0
 10
238.151
 20
-92.5321
 11
238.021
 21
-92.3209
  0
LINE
  8
0
 10
238.021
 20
-92.3209
 11
237.915
 21
-92.0967
  0
LINE
  8
0
 10
237.915
 20
-92.0967
 11
237.835
 21
-91.8622
  0
LINE
  8
0
 10
237.835
 20
-91.8622
 11
237.781
 21
-91.6203
  0
LINE
  8
0
 10
237.781
 20
-91.6203
 11
237.753
 21
-91.3739
  0
LINE
  8
0
 10
237.753
 20
-91.3739
 11
237.753
 21
-91.1261
  0
LINE
  8
0
 10
237.753
 20
-91.1261
 11
237.781
 21
-90.8797
  0
LINE
  8
0
 10
237.781
 20
-90.8797
 11
237.835
 21
-90.6378
  0
LINE
  8
0
 10
237.835
 20
-90.6378
 11
237.915
 21
-90.4033
  0
LINE
  8
0
 10
237.915
 20
-90.4033
 11
238.021
 21
-90.1791
  0
LINE
  8
0
 10
238.021
 20
-90.1791
 11
238.151
 21
-89.9679
  0
LINE
  8
0
 10
238.151
 20
-89.9679
 11
238.303
 21
-89.7723
  0
LINE
  8
0
 10
238.303
 20
-89.7723
 11
238.476
 21
-89.5946
  0
LINE
  8
0
 10
238.476
 20
-89.5946
 11
238.667
 21
-89.437
  0
LINE
  8
0
 10
238.667
 20
-89.437
 11
238.875
 21
-89.3014
  0
LINE
  8
0
 10
238.875
 20
-89.3014
 11
239.096
 21
-89.1895
  0
LINE
  8
0
 10
239.096
 20
-89.1895
 11
239.328
 21
-89.1026
  0
LINE
  8
0
 10
239.328
 20
-89.1026
 11
239.569
 21
-89.0417
  0
LINE
  8
0
 10
239.569
 20
-89.0417
 11
239.814
 21
-89.0077
  0
LINE
  8
0
 10
239.814
 20
-89.0077
 11
240.062
 21
-89.0009
  0
LINE
  8
0
 10
240.062
 20
-89.0009
 11
240.309
 21
-89.0213
  0
LINE
  8
0
 10
240.309
 20
-89.0213
 11
240.552
 21
-89.0688
  0
LINE
  8
0
 10
240.552
 20
-89.0688
 11
240.789
 21
-89.1429
  0
LINE
  8
0
 10
240.789
 20
-89.1429
 11
241.016
 21
-89.2424
  0
LINE
  8
0
 10
241.016
 20
-89.2424
 11
241.231
 21
-89.3664
  0
LINE
  8
0
 10
241.231
 20
-89.3664
 11
241.43
 21
-89.5132
  0
LINE
  8
0
 10
241.43
 20
-89.5132
 11
241.613
 21
-89.6811
  0
LINE
  8
0
 10
241.613
 20
-89.6811
 11
241.776
 21
-89.868
  0
LINE
  8
0
 10
241.776
 20
-89.868
 11
241.917
 21
-90.0717
  0
LINE
  8
0
 10
241.917
 20
-90.0717
 11
242.035
 21
-90.2897
  0
LINE
  8
0
 10
242.035
 20
-90.2897
 11
242.128
 21
-90.5194
  0
LINE
  8
0
 10
242.128
 20
-90.5194
 11
242.196
 21
-90.758
  0
LINE
  8
0
 10
242.196
 20
-90.758
 11
242.236
 21
-91.0025
  0
LINE
  8
0
 10
242.236
 20
-91.0025
 11
242.25
 21
-91.25
  0
LINE
  8
0
 10
242.25
 20
-91.25
 11
242.236
 21
-91.4975
  0
LINE
  8
0
 10
242.236
 20
-91.4975
 11
242.196
 21
-91.742
  0
LINE
  8
0
 10
242.196
 20
-91.742
 11
242.128
 21
-91.9806
  0
LINE
  8
0
 10
242.128
 20
-91.9806
 11
242.035
 21
-92.2102
  0
LINE
  8
0
 10
242.035
 20
-92.2102
 11
241.917
 21
-92.4283
  0
LINE
  8
0
 10
241.917
 20
-92.4283
 11
241.776
 21
-92.632
  0
LINE
  8
0
 10
241.776
 20
-92.632
 11
241.613
 21
-92.8189
  0
LINE
  8
0
 10
241.613
 20
-92.8189
 11
241.43
 21
-92.9868
  0
LINE
  8
0
 10
241.43
 20
-92.9868
 11
241.231
 21
-93.1336
  0
LINE
  8
0
 10
241.231
 20
-93.1336
 11
241.016
 21
-93.2576
  0
LINE
  8
0
 10
241.016
 20
-93.2576
 11
240.789
 21
-93.3571
  0
LINE
  8
0
 10
240.789
 20
-93.3571
 11
240.552
 21
-93.4312
  0
LINE
  8
0
 10
240.552
 20
-93.4312
 11
240.309
 21
-93.4787
  0
LINE
  8
0
 10
240.309
 20
-93.4787
 11
240.062
 21
-93.4991
  0
LINE
  8
0
 10
240.062
 20
-93.4991
 11
239.814
 21
-93.4923
  0
LINE
  8
0
 10
179.814
 20
-93.4923
 11
179.569
 21
-93.4583
  0
LINE
  8
0
 10
179.569
 20
-93.4583
 11
179.328
 21
-93.3974
  0
LINE
  8
0
 10
179.328
 20
-93.3974
 11
179.096
 21
-93.3105
  0
LINE
  8
0
 10
179.096
 20
-93.3105
 11
178.875
 21
-93.1985
  0
LINE
  8
0
 10
178.875
 20
-93.1985
 11
178.667
 21
-93.063
  0
LINE
  8
0
 10
178.667
 20
-93.063
 11
178.476
 21
-92.9054
  0
LINE
  8
0
 10
178.476
 20
-92.9054
 11
178.303
 21
-92.7277
  0
LINE
  8
0
 10
178.303
 20
-92.7277
 11
178.151
 21
-92.5321
  0
LINE
  8
0
 10
178.151
 20
-92.5321
 11
178.021
 21
-92.3209
  0
LINE
  8
0
 10
178.021
 20
-92.3209
 11
177.915
 21
-92.0967
  0
LINE
  8
0
 10
177.915
 20
-92.0967
 11
177.835
 21
-91.8622
  0
LINE
  8
0
 10
177.835
 20
-91.8622
 11
177.781
 21
-91.6203
  0
LINE
  8
0
 10
177.781
 20
-91.6203
 11
177.753
 21
-91.3739
  0
LINE
  8
0
 10
177.753
 20
-91.3739
 11
177.753
 21
-91.1261
  0
LINE
  8
0
 10
177.753
 20
-91.1261
 11
177.781
 21
-90.8797
  0
LINE
  8
0
 10
177.781
 20
-90.8797
 11
177.835
 21
-90.6378
  0
LINE
  8
0
 10
177.835
 20
-90.6378
 11
177.915
 21
-90.4033
  0
LINE
  8
0
 10
177.915
 20
-90.4033
 11
178.021
 21
-90.1791
  0
LINE
  8
0
 10
178.021
 20
-90.1791
 11
178.151
 21
-89.9679
  0
LINE
  8
0
 10
178.151
 20
-89.9679
 11
178.303
 21
-89.7723
  0
LINE
  8
0
 10
178.303
 20
-89.7723
 11
178.476
 21
-89.5946
  0
LINE
  8
0
 10
178.476
 20
-89.5946
 11
178.667
 21
-89.437
  0
LINE
  8
0
 10
178.667
 20
-89.437
 11
178.875
 21
-89.3014
  0
LINE
  8
0
 10
178.875
 20
-89.3014
 11
179.096
 21
-89.1895
  0
LINE
  8
0
 10
179.096
 20
-89.1895
 11
179.328
 21
-89.1026
  0
LINE
  8
0
 10
179.328
 20
-89.1026
 11
179.569
 21
-89.0417
  0
LINE
  8
0
 10
179.569
 20
-89.0417
 11
179.814
 21
-89.0077
  0
LINE
  8
0
 10
179.814
 20
-89.0077
 11
180.062
 21
-89.0009
  0
LINE
  8
0
 10
180.062
 20
-89.0009
 11
180.309
 21
-89.0213
  0
LINE
  8
0
 10
180.309
 20
-89.0213
 11
180.552
 21
-89.0688
  0
LINE
  8
0
 10
180.552
 20
-89.0688
 11
180.789
 21
-89.1429
  0
LINE
  8
0
 10
180.789
 20
-89.1429
 11
181.016
 21
-89.2424
  0
LINE
  8
0
 10
181.016
 20
-89.2424
 11
181.231
 21
-89.3664
  0
LINE
  8
0
 10
181.231
 20
-89.3664
 11
181.43
 21
-89.5132
  0
LINE
  8
0
 10
181.43
 20
-89.5132
 11
181.613
 21
-89.6811
  0
LINE
  8
0
 10
181.613
 20
-89.6811
 11
181.776
 21
-89.868
  0
LINE
  8
0
 10
181.776
 20
-89.868
 11
181.917
 21
-90.0717
  0
LINE
  8
0
 10
181.917
 20
-90.0717
 11
182.035
 21
-90.2897
  0
LINE
  8
0
 10
182.035
 20
-90.2897
 11
182.128
 21
-90.5194
  0
LINE
  8
0
 10
182.128
 20
-90.5194
 11
182.196
 21
-90.758
  0
LINE
  8
0
 10
182.196
 20
-90.758
 11
182.236
 21
-91.0025
  0
LINE
  8
0
 10
182.236
 20
-91.0025
 11
182.25
 21
-91.25
  0
LINE
  8
0
 10
182.25
 20
-91.25
 11
182.236
 21
-91.4975
  0
LINE
  8
0
 10
182.236
 20
-91.4975
 11
182.196
 21
-91.742
  0
LINE
  8
0
 10
182.196
 20
-91.742
 11
182.128
 21
-91.9806
  0
LINE
  8
0
 10
182.128
 20
-91.9806
 11
182.035
 21
-92.2102
  0
LINE
  8
0
 10
182.035
 20
-92.2102
 11
181.917
 21
-92.4283
  0
LINE
  8
0
 10
181.917
 20
-92.4283
 11
181.776
 21
-92.632
  0
LINE
  8
0
 10
181.776
 20
-92.632
 11
181.613
 21
-92.8189
  0
LINE
  8
0
 10
181.613
 20
-92.8189
 11
181.43
 21
-92.9868
  0
LINE
  8
0
 10
181.43
 20
-92.9868
 11
181.231
 21
-93.1336
  0
LINE
  8
0
 10
181.231
 20
-93.1336
 11
181.016
 21
-93.2576
  0
LINE
  8
0
 10
181.016
 20
-93.2576
 11
180.789
 21
-93.3571
  0
LINE
  8
0
 10
180.789
 20
-93.3571
 11
180.552
 21
-93.4312
  0
LINE
  8
0
 10
180.552
 20
-93.4312
 11
180.309
 21
-93.4787
  0
LINE
  8
0
 10
180.309
 20
-93.4787
 11
180.062
 21
-93.4991
  0
LINE
  8
0
 10
180.062
 20
-93.4991
 11
179.814
 21
-93.4923
  0
LINE
  8
0
 10
-180.309
 20
-93.4787
 11
-180.552
 21
-93.4312
  0
LINE
  8
0
 10
-180.552
 20
-93.4312
 11
-180.789
 21
-93.3571
  0
LINE
  8
0
 10
-180.789
 20
-93.3571
 11
-181.016
 21
-93.2576
  0
LINE
  8
0
 10
-181.016
 20
-93.2576
 11
-181.231
 21
-93.1336
  0
LINE
  8
0
 10
-181.231
 20
-93.1336
 11
-181.43
 21
-92.9868
  0
LINE
  8
0
 10
-181.43
 20
-92.9868
 11
-181.613
 21
-92.8189
  0
LINE
  8
0
 10
-181.613
 20
-92.8189
 11
-181.776
 21
-92.632
  0
LINE
  8
0
 10
-181.776
 20
-92.632
 11
-181.917
 21
-92.4283
  0
LINE
  8
0
 10
-181.917
 20
-92.4283
 11
-182.035
 21
-92.2102
  0
LINE
  8
0
 10
-182.035
 20
-92.2102
 11
-182.128
 21
-91.9806
  0
LINE
  8
0
 10
-182.128
 20
-91.9806
 11
-182.196
 21
-91.742
  0
LINE
  8
0
 10
-182.196
 20
-91.742
 11
-182.236
 21
-91.4975
  0
LINE
  8
0
 10
-182.236
 20
-91.4975
 11
-182.25
 21
-91.25
  0
LINE
  8
0
 10
-182.25
 20
-91.25
 11
-182.236
 21
-91.0025
  0
LINE
  8
0
 10
-182.236
 20
-91.0025
 11
-182.196
 21
-90.758
  0
LINE
  8
0
 10
-182.196
 20
-90.758
 11
-182.128
 21
-90.5194
  0
LINE
  8
0
 10
-182.128
 20
-90.5194
 11
-182.035
 21
-90.2897
  0
LINE
  8
0
 10
-182.035
 20
-90.2897
 11
-181.917
 21
-90.0717
  0
LINE
  8
0
 10
-181.917
 20
-90.0717
 11
-181.776
 21
-89.868
  0
LINE
  8
0
 10
-181.776
 20
-89.868
 11
-181.613
 21
-89.6811
  0
LINE
  8
0
 10
-181.613
 20
-89.6811
 11
-181.43
 21
-89.5132
  0
LINE
  8
0
 10
-181.43
 20
-89.5132
 11
-181.231
 21
-89.3664
  0
LINE
  8
0
 10
-181.231
 20
-89.3664
 11
-181.016
 21
-89.2424
  0
LINE
  8
0
 10
-181.016
 20
-89.2424
 11
-180.789
 21
-89.1429
  0
LINE
  8
0
 10
-180.789
 20
-89.1429
 11
-180.552
 21
-89.0688
  0
LINE
  8
0
 10
-180.552
 20
-89.0688
 11
-180.309
 21
-89.0213
  0
LINE
  8
0
 10
-180.309
 20
-89.0213
 11
-180.062
 21
-89.0009
  0
LINE
  8
0
 10
-180.062
 20
-89.0009
 11
-179.814
 21
-89.0077
  0
LINE
  8
0
 10
-179.814
 20
-89.0077
 11
-179.569
 21
-89.0417
  0
LINE
  8
0
 10
-179.569
 20
-89.0417
 11
-179.328
 21
-89.1026
  0
LINE
  8
0
 10
-179.328
 20
-89.1026
 11
-179.096
 21
-89.1895
  0
LINE
  8
0
 10
-179.096
 20
-89.1895
 11
-178.875
 21
-89.3014
  0
LINE
  8
0
 10
-178.875
 20
-89.3014
 11
-178.667
 21
-89.437
  0
LINE
  8
0
 10
-178.667
 20
-89.437
 11
-178.476
 21
-89.5946
  0
LINE
  8
0
 10
-178.476
 20
-89.5946
 11
-178.303
 21
-89.7723
  0
LINE
  8
0
 10
-178.303
 20
-89.7723
 11
-178.151
 21
-89.9679
  0
LINE
  8
0
 10
-178.151
 20
-89.9679
 11
-178.021
 21
-90.1791
  0
LINE
  8
0
 10
-178.021
 20
-90.1791
 11
-177.915
 21
-90.4033
  0
LINE
  8
0
 10
-177.915
 20
-90.4033
 11
-177.835
 21
-90.6378
  0
LINE
  8
0
 10
-177.835
 20
-90.6378
 11
-177.781
 21
-90.8797
  0
LINE
  8
0
 10
-177.781
 20
-90.8797
 11
-177.753
 21
-91.1261
  0
LINE
  8
0
 10
-177.753
 20
-91.1261
 11
-177.753
 21
-91.3739
  0
LINE
  8
0
 10
-177.753
 20
-91.3739
 11
-177.781
 21
-91.6203
  0
LINE
  8
0
 10
-177.781
 20
-91.6203
 11
-177.835
 21
-91.8622
  0
LINE
  8
0
 10
-177.835
 20
-91.8622
 11
-177.915
 21
-92.0967
  0
LINE
  8
0
 10
-177.915
 20
-92.0967
 11
-178.021
 21
-92.3209
  0
LINE
  8
0
 10
-178.021
 20
-92.3209
 11
-178.151
 21
-92.5321
  0
LINE
  8
0
 10
-178.151
 20
-92.5321
 11
-178.303
 21
-92.7277
  0
LINE
  8
0
 10
-178.303
 20
-92.7277
 11
-178.476
 21
-92.9054
  0
LINE
  8
0
 10
-178.476
 20
-92.9054
 11
-178.667
 21
-93.063
  0
LINE
  8
0
 10
-178.667
 20
-93.063
 11
-178.875
 21
-93.1985
  0
LINE
  8
0
 10
-178.875
 20
-93.1985
 11
-179.096
 21
-93.3105
  0
LINE
  8
0
 10
-179.096
 20
-93.3105
 11
-179.328
 21
-93.3974
  0
LINE
  8
0
 10
-179.328
 20
-93.3974
 11
-179.569
 21
-93.4583
  0
LINE
  8
0
 10
-179.569
 20
-93.4583
 11
-179.814
 21
-93.4923
  0
LINE
  8
0
 10
-179.814
 20
-93.4923
 11
-180.062
 21
-93.4991
  0
LINE
  8
0
 10
-180.062
 20
-93.4991
 11
-180.309
 21
-93.4787
  0
LINE
  8
0
 10
-194.623
 20
-126.145
 11
-194.867
 21
-126.109
  0
LINE
  8
0
 10
-194.867
 20
-126.109
 11
-195.103
 21
-126.036
  0
LINE
  8
0
 10
-195.103
 20
-126.036
 11
-195.325
 21
-125.929
  0
LINE
  8
0
 10
-195.325
 20
-125.929
 11
-195.529
 21
-125.79
  0
LINE
  8
0
 10
-195.529
 20
-125.79
 11
-195.71
 21
-125.622
  0
LINE
  8
0
 10
-195.71
 20
-125.622
 11
-195.863
 21
-125.429
  0
LINE
  8
0
 10
-195.863
 20
-125.429
 11
-195.987
 21
-125.216
  0
LINE
  8
0
 10
-195.987
 20
-125.216
 11
-196.077
 21
-124.986
  0
LINE
  8
0
 10
-196.077
 20
-124.986
 11
-196.132
 21
-124.746
  0
LINE
  8
0
 10
-196.132
 20
-124.746
 11
-196.15
 21
-124.5
  0
LINE
  8
0
 10
-196.15
 20
-124.5
 11
-196.132
 21
-124.254
  0
LINE
  8
0
 10
-196.132
 20
-124.254
 11
-196.077
 21
-124.014
  0
LINE
  8
0
 10
-196.077
 20
-124.014
 11
-195.987
 21
-123.784
  0
LINE
  8
0
 10
-195.987
 20
-123.784
 11
-195.863
 21
-123.571
  0
LINE
  8
0
 10
-195.863
 20
-123.571
 11
-195.71
 21
-123.378
  0
LINE
  8
0
 10
-195.71
 20
-123.378
 11
-195.529
 21
-123.21
  0
LINE
  8
0
 10
-195.529
 20
-123.21
 11
-195.325
 21
-123.071
  0
LINE
  8
0
 10
-195.325
 20
-123.071
 11
-195.103
 21
-122.964
  0
LINE
  8
0
 10
-195.103
 20
-122.964
 11
-194.867
 21
-122.891
  0
LINE
  8
0
 10
-194.867
 20
-122.891
 11
-194.623
 21
-122.855
  0
LINE
  8
0
 10
-194.623
 20
-122.855
 11
-194.377
 21
-122.855
  0
LINE
  8
0
 10
-194.377
 20
-122.855
 11
-194.133
 21
-122.891
  0
LINE
  8
0
 10
-194.133
 20
-122.891
 11
-193.897
 21
-122.964
  0
LINE
  8
0
 10
-193.897
 20
-122.964
 11
-193.675
 21
-123.071
  0
LINE
  8
0
 10
-193.675
 20
-123.071
 11
-193.471
 21
-123.21
  0
LINE
  8
0
 10
-193.471
 20
-123.21
 11
-193.29
 21
-123.378
  0
LINE
  8
0
 10
-193.29
 20
-123.378
 11
-193.137
 21
-123.571
  0
LINE
  8
0
 10
-193.137
 20
-123.571
 11
-193.013
 21
-123.784
  0
LINE
  8
0
 10
-193.013
 20
-123.784
 11
-192.923
 21
-124.014
  0
LINE
  8
0
 10
-192.923
 20
-124.014
 11
-192.868
 21
-124.254
  0
LINE
  8
0
 10
-192.868
 20
-124.254
 11
-192.85
 21
-124.5
  0
LINE
  8
0
 10
-192.85
 20
-124.5
 11
-192.868
 21
-124.746
  0
LINE
  8
0
 10
-192.868
 20
-124.746
 11
-192.923
 21
-124.986
  0
LINE
  8
0
 10
-192.923
 20
-124.986
 11
-193.013
 21
-125.216
  0
LINE
  8
0
 10
-193.013
 20
-125.216
 11
-193.137
 21
-125.429
  0
LINE
  8
0
 10
-193.137
 20
-125.429
 11
-193.29
 21
-125.622
  0
LINE
  8
0
 10
-193.29
 20
-125.622
 11
-193.471
 21
-125.79
  0
LINE
  8
0
 10
-193.471
 20
-125.79
 11
-193.675
 21
-125.929
  0
LINE
  8
0
 10
-193.675
 20
-125.929
 11
-193.897
 21
-126.036
  0
LINE
  8
0
 10
-193.897
 20
-126.036
 11
-194.133
 21
-126.109
  0
LINE
  8
0
 10
-194.133
 20
-126.109
 11
-194.377
 21
-126.145
  0
LINE
  8
0
 10
-194.377
 20
-126.145
 11
-194.623
 21
-126.145
  0
LINE
  8
0
 10
-225.623
 20
-126.145
 11
-225.867
 21
-126.109
  0
LINE
  8
0
 10
-225.867
 20
-126.109
 11
-226.103
 21
-126.036
  0
LINE
  8
0
 10
-226.103
 20
-126.036
 11
-226.325
 21
-125.929
  0
LINE
  8
0
 10
-226.325
 20
-125.929
 11
-226.529
 21
-125.79
  0
LINE
  8
0
 10
-226.529
 20
-125.79
 11
-226.71
 21
-125.622
  0
LINE
  8
0
 10
-226.71
 20
-125.622
 11
-226.863
 21
-125.429
  0
LINE
  8
0
 10
-226.863
 20
-125.429
 11
-226.987
 21
-125.216
  0
LINE
  8
0
 10
-226.987
 20
-125.216
 11
-227.077
 21
-124.986
  0
LINE
  8
0
 10
-227.077
 20
-124.986
 11
-227.132
 21
-124.746
  0
LINE
  8
0
 10
-227.132
 20
-124.746
 11
-227.15
 21
-124.5
  0
LINE
  8
0
 10
-227.15
 20
-124.5
 11
-227.132
 21
-124.254
  0
LINE
  8
0
 10
-227.132
 20
-124.254
 11
-227.077
 21
-124.014
  0
LINE
  8
0
 10
-227.077
 20
-124.014
 11
-226.987
 21
-123.784
  0
LINE
  8
0
 10
-226.987
 20
-123.784
 11
-226.863
 21
-123.571
  0
LINE
  8
0
 10
-226.863
 20
-123.571
 11
-226.71
 21
-123.378
  0
LINE
  8
0
 10
-226.71
 20
-123.378
 11
-226.529
 21
-123.21
  0
LINE
  8
0
 10
-226.529
 20
-123.21
 11
-226.325
 21
-123.071
  0
LINE
  8
0
 10
-226.325
 20
-123.071
 11
-226.103
 21
-122.964
  0
LINE
  8
0
 10
-226.103
 20
-122.964
 11
-225.867
 21
-122.891
  0
LINE
  8
0
 10
-225.867
 20
-122.891
 11
-225.623
 21
-122.855
  0
LINE
  8
0
 10
-225.623
 20
-122.855
 11
-225.377
 21
-122.855
  0
LINE
  8
0
 10
-225.377
 20
-122.855
 11
-225.133
 21
-122.891
  0
LINE
  8
0
 10
-225.133
 20
-122.891
 11
-224.897
 21
-122.964
  0
LINE
  8
0
 10
-224.897
 20
-122.964
 11
-224.675
 21
-123.071
  0
LINE
  8
0
 10
-224.675
 20
-123.071
 11
-224.471
 21
-123.21
  0
LINE
  8
0
 10
-224.471
 20
-123.21
 11
-224.29
 21
-123.378
  0
LINE
  8
0
 10
-224.29
 20
-123.378
 11
-224.137
 21
-123.571
  0
LINE
  8
0
 10
-224.137
 20
-123.571
 11
-224.013
 21
-123.784
  0
LINE
  8
0
 10
-224.013
 20
-123.784
 11
-223.923
 21
-124.014
  0
LINE
  8
0
 10
-223.923
 20
-124.014
 11
-223.868
 21
-124.254
  0
LINE
  8
0
 10
-223.868
 20
-124.254
 11
-223.85
 21
-124.5
  0
LINE
  8
0
 10
-223.85
 20
-124.5
 11
-223.868
 21
-124.746
  0
LINE
  8
0
 10
-223.868
 20
-124.746
 11
-223.923
 21
-124.986
  0
LINE
  8
0
 10
-223.923
 20
-124.986
 11
-224.013
 21
-125.216
  0
LINE
  8
0
 10
-224.013
 20
-125.216
 11
-224.137
 21
-125.429
  0
LINE
  8
0
 10
-224.137
 20
-125.429
 11
-224.29
 21
-125.622
  0
LINE
  8
0
 10
-224.29
 20
-125.622
 11
-224.471
 21
-125.79
  0
LINE
  8
0
 10
-224.471
 20
-125.79
 11
-224.675
 21
-125.929
  0
LINE
  8
0
 10
-224.675
 20
-125.929
 11
-224.897
 21
-126.036
  0
LINE
  8
0
 10
-224.897
 20
-126.036
 11
-225.133
 21
-126.109
  0
LINE
  8
0
 10
-225.133
 20
-126.109
 11
-225.377
 21
-126.145
  0
LINE
  8
0
 10
-225.377
 20
-126.145
 11
-225.623
 21
-126.145
  0
LINE
  8
0
 10
-211.202
 20
-151.437
 11
-212.391
 21
-151.249
  0
LINE
  8
0
 10
-212.391
 20
-151.249
 11
-213.554
 21
-150.937
  0
LINE
  8
0
 10
-213.554
 20
-150.937
 11
-214.677
 21
-150.506
  0
LINE
  8
0
 10
-214.677
 20
-150.506
 11
-215.75
 21
-149.959
  0
LINE
  8
0
 10
-215.75
 20
-149.959
 11
-216.76
 21
-149.304
  0
LINE
  8
0
 10
-216.76
 20
-149.304
 11
-217.695
 21
-148.546
  0
LINE
  8
0
 10
-217.695
 20
-148.546
 11
-218.546
 21
-147.695
  0
LINE
  8
0
 10
-218.546
 20
-147.695
 11
-219.304
 21
-146.76
  0
LINE
  8
0
 10
-219.304
 20
-146.76
 11
-219.959
 21
-145.75
  0
LINE
  8
0
 10
-219.959
 20
-145.75
 11
-220.506
 21
-144.677
  0
LINE
  8
0
 10
-220.506
 20
-144.677
 11
-220.937
 21
-143.554
  0
LINE
  8
0
 10
-220.937
 20
-143.554
 11
-221.249
 21
-142.391
  0
LINE
  8
0
 10
-221.249
 20
-142.391
 11
-221.437
 21
-141.202
  0
LINE
  8
0
 10
-221.437
 20
-141.202
 11
-221.5
 21
-140
  0
LINE
  8
0
 10
-221.5
 20
-140
 11
-221.437
 21
-138.798
  0
LINE
  8
0
 10
-221.437
 20
-138.798
 11
-221.249
 21
-137.609
  0
LINE
  8
0
 10
-221.249
 20
-137.609
 11
-220.937
 21
-136.446
  0
LINE
  8
0
 10
-220.937
 20
-136.446
 11
-220.506
 21
-135.323
  0
LINE
  8
0
 10
-220.506
 20
-135.323
 11
-219.959
 21
-134.25
  0
LINE
  8
0
 10
-219.959
 20
-134.25
 11
-219.304
 21
-133.24
  0
LINE
  8
0
 10
-219.304
 20
-133.24
 11
-218.546
 21
-132.305
  0
LINE
  8
0
 10
-218.546
 20
-132.305
 11
-217.695
 21
-131.454
  0
LINE
  8
0
 10
-217.695
 20
-131.454
 11
-216.76
 21
-130.696
  0
LINE
  8
0
 10
-216.76
 20
-130.696
 11
-215.75
 21
-130.041
  0
LINE
  8
0
 10
-215.75
 20
-130.041
 11
-214.677
 21
-129.494
  0
LINE
  8
0
 10
-214.677
 20
-129.494
 11
-213.554
 21
-129.063
  0
LINE
  8
0
 10
-213.554
 20
-129.063
 11
-212.391
 21
-128.751
  0
LINE
  8
0
 10
-212.391
 20
-128.751
 11
-211.202
 21
-128.563
  0
LINE
  8
0
 10
-211.202
 20
-128.563
 11
-210
 21
-128.5
  0
LINE
  8
0
 10
-210
 20
-128.5
 11
-208.798
 21
-128.563
  0
LINE
  8
0
 10
-208.798
 20
-128.563
 11
-207.609
 21
-128.751
  0
LINE
  8
0
 10
-207.609
 20
-128.751
 11
-206.446
 21
-129.063
  0
LINE
  8
0
 10
-206.446
 20
-129.063
 11
-205.323
 21
-129.494
  0
LINE
  8
0
 10
-205.323
 20
-129.494
 11
-204.25
 21
-130.041
  0
LINE
  8
0
 10
-204.25
 20
-130.041
 11
-203.24
 21
-130.696
  0
LINE
  8
0
 10
-203.24
 20
-130.696
 11
-202.305
 21
-131.454
  0
LINE
  8
0
 10
-202.305
 20
-131.454
 11
-201.454
 21
-132.305
  0
LINE
  8
0
 10
-201.454
 20
-132.305
 11
-200.696
 21
-133.24
  0
LINE
  8
0
 10
-200.696
 20
-133.24
 11
-200.041
 21
-134.25
  0
LINE
  8
0
 10
-200.041
 20
-134.25
 11
-199.494
 21
-135.323
  0
LINE
  8
0
 10
-199.494
 20
-135.323
 11
-199.063
 21
-136.446
  0
LINE
  8
0
 10
-199.063
 20
-136.446
 11
-198.751
 21
-137.609
  0
LINE
  8
0
 10
-198.751
 20
-137.609
 11
-198.563
 21
-138.798
  0
LINE
  8
0
 10
-198.563
 20
-138.798
 11
-198.5
 21
-140
  0
LINE
  8
0
 10
-198.5
 20
-140
 11
-198.563
 21
-141.202
  0
LINE
  8
0
 10
-198.563
 20
-141.202
 11
-198.751
 21
-142.391
  0
LINE
  8
0
 10
-198.751
 20
-142.391
 11
-199.063
 21
-143.554
  0
LINE
  8
0
 10
-199.063
 20
-143.554
 11
-199.494
 21
-144.677
  0
LINE
  8
0
 10
-199.494
 20
-144.677
 11
-200.041
 21
-145.75
  0
LINE
  8
0
 10
-200.041
 20
-145.75
 11
-200.696
 21
-146.76
  0
LINE
  8
0
 10
-200.696
 20
-146.76
 11
-201.454
 21
-147.695
  0
LINE
  8
0
 10
-201.454
 20
-147.695
 11
-202.305
 21
-148.546
  0
LINE
  8
0
 10
-202.305
 20
-148.546
 11
-203.24
 21
-149.304
  0
LINE
  8
0
 10
-203.24
 20
-149.304
 11
-204.25
 21
-149.959
  0
LINE
  8
0
 10
-204.25
 20
-149.959
 11
-205.323
 21
-150.506
  0
LINE
  8
0
 10
-205.323
 20
-150.506
 11
-206.446
 21
-150.937
  0
LINE
  8
0
 10
-206.446
 20
-150.937
 11
-207.609
 21
-151.249
  0
LINE
  8
0
 10
-207.609
 20
-151.249
 11
-208.798
 21
-151.437
  0
LINE
  8
0
 10
-208.798
 20
-151.437
 11
-210
 21
-151.5
  0
LINE
  8
0
 10
-210
 20
-151.5
 11
-211.202
 21
-151.437
  0
LINE
  8
0
 10
-194.623
 20
-157.145
 11
-194.867
 21
-157.109
  0
LINE
  8
0
 10
-194.867
 20
-157.109
 11
-195.103
 21
-157.036
  0
LINE
  8
0
 10
-195.103
 20
-157.036
 11
-195.325
 21
-156.929
  0
LINE
  8
0
 10
-195.325
 20
-156.929
 11
-195.529
 21
-156.79
  0
LINE
  8
0
 10
-195.529
 20
-156.79
 11
-195.71
 21
-156.622
  0
LINE
  8
0
 10
-195.71
 20
-156.622
 11
-195.863
 21
-156.429
  0
LINE
  8
0
 10
-195.863
 20
-156.429
 11
-195.987
 21
-156.216
  0
LINE
  8
0
 10
-195.987
 20
-156.216
 11
-196.077
 21
-155.986
  0
LINE
  8
0
 10
-196.077
 20
-155.986
 11
-196.132
 21
-155.746
  0
LINE
  8
0
 10
-196.132
 20
-155.746
 11
-196.15
 21
-155.5
  0
LINE
  8
0
 10
-196.15
 20
-155.5
 11
-196.132
 21
-155.254
  0
LINE
  8
0
 10
-196.132
 20
-155.254
 11
-196.077
 21
-155.014
  0
LINE
  8
0
 10
-196.077
 20
-155.014
 11
-195.987
 21
-154.784
  0
LINE
  8
0
 10
-195.987
 20
-154.784
 11
-195.863
 21
-154.571
  0
LINE
  8
0
 10
-195.863
 20
-154.571
 11
-195.71
 21
-154.378
  0
LINE
  8
0
 10
-195.71
 20
-154.378
 11
-195.529
 21
-154.21
  0
LINE
  8
0
 10
-195.529
 20
-154.21
 11
-195.325
 21
-154.071
  0
LINE
  8
0
 10
-195.325
 20
-154.071
 11
-195.103
 21
-153.964
  0
LINE
  8
0
 10
-195.103
 20
-153.964
 11
-194.867
 21
-153.891
  0
LINE
  8
0
 10
-194.867
 20
-153.891
 11
-194.623
 21
-153.855
  0
LINE
  8
0
 10
-194.623
 20
-153.855
 11
-194.377
 21
-153.855
  0
LINE
  8
0
 10
-194.377
 20
-153.855
 11
-194.133
 21
-153.891
  0
LINE
  8
0
 10
-194.133
 20
-153.891
 11
-193.897
 21
-153.964
  0
LINE
  8
0
 10
-193.897
 20
-153.964
 11
-193.675
 21
-154.071
  0
LINE
  8
0
 10
-193.675
 20
-154.071
 11
-193.471
 21
-154.21
  0
LINE
  8
0
 10
-193.471
 20
-154.21
 11
-193.29
 21
-154.378
  0
LINE
  8
0
 10
-193.29
 20
-154.378
 11
-193.137
 21
-154.571
  0
LINE
  8
0
 10
-193.137
 20
-154.571
 11
-193.013
 21
-154.784
  0
LINE
  8
0
 10
-193.013
 20
-154.784
 11
-192.923
 21
-155.014
  0
LINE
  8
0
 10
-192.923
 20
-155.014
 11
-192.868
 21
-155.254
  0
LINE
  8
0
 10
-192.868
 20
-155.254
 11
-192.85
 21
-155.5
  0
LINE
  8
0
 10
-192.85
 20
-155.5
 11
-192.868
 21
-155.746
  0
LINE
  8
0
 10
-192.868
 20
-155.746
 11
-192.923
 21
-155.986
  0
LINE
  8
0
 10
-192.923
 20
-155.986
 11
-193.013
 21
-156.216
  0
LINE
  8
0
 10
-193.013
 20
-156.216
 11
-193.137
 21
-156.429
  0
LINE
  8
0
 10
-193.137
 20
-156.429
 11
-193.29
 21
-156.622
  0
LINE
  8
0
 10
-193.29
 20
-156.622
 11
-193.471
 21
-156.79
  0
LINE
  8
0
 10
-193.471
 20
-156.79
 11
-193.675
 21
-156.929
  0
LINE
  8
0
 10
-193.675
 20
-156.929
 11
-193.897
 21
-157.036
  0
LINE
  8
0
 10
-193.897
 20
-157.036
 11
-194.133
 21
-157.109
  0
LINE
  8
0
 10
-194.133
 20
-157.109
 11
-194.377
 21
-157.145
  0
LINE
  8
0
 10
-194.377
 20
-157.145
 11
-194.623
 21
-157.145
  0
LINE
  8
0
 10
-225.623
 20
-157.145
 11
-225.867
 21
-157.109
  0
LINE
  8
0
 10
-225.867
 20
-157.109
 11
-226.103
 21
-157.036
  0
LINE
  8
0
 10
-226.103
 20
-157.036
 11
-226.325
 21
-156.929
  0
LINE
  8
0
 10
-226.325
 20
-156.929
 11
-226.529
 21
-156.79
  0
LINE
  8
0
 10
-226.529
 20
-156.79
 11
-226.71
 21
-156.622
  0
LINE
  8
0
 10
-226.71
 20
-156.622
 11
-226.863
 21
-156.429
  0
LINE
  8
0
 10
-226.863
 20
-156.429
 11
-226.987
 21
-156.216
  0
LINE
  8
0
 10
-226.987
 20
-156.216
 11
-227.077
 21
-155.986
  0
LINE
  8
0
 10
-227.077
 20
-155.986
 11
-227.132
 21
-155.746
  0
LINE
  8
0
 10
-227.132
 20
-155.746
 11
-227.15
 21
-155.5
  0
LINE
  8
0
 10
-227.15
 20
-155.5
 11
-227.132
 21
-155.254
  0
LINE
  8
0
 10
-227.132
 20
-155.254
 11
-227.077
 21
-155.014
  0
LINE
  8
0
 10
-227.077
 20
-155.014
 11
-226.987
 21
-154.784
  0
LINE
  8
0
 10
-226.987
 20
-154.784
 11
-226.863
 21
-154.571
  0
LINE
  8
0
 10
-226.863
 20
-154.571
 11
-226.71
 21
-154.378
  0
LINE
  8
0
 10
-226.71
 20
-154.378
 11
-226.529
 21
-154.21
  0
LINE
  8
0
 10
-226.529
 20
-154.21
 11
-226.325
 21
-154.071
  0
LINE
  8
0
 10
-226.325
 20
-154.071
 11
-226.103
 21
-153.964
  0
LINE
  8
0
 10
-226.103
 20
-153.964
 11
-225.867
 21
-153.891
  0
LINE
  8
0
 10
-225.867
 20
-153.891
 11
-225.623
 21
-153.855
  0
LINE
  8
0
 10
-225.623
 20
-153.855
 11
-225.377
 21
-153.855
  0
LINE
  8
0
 10
-225.377
 20
-153.855
 11
-225.133
 21
-153.891
  0
LINE
  8
0
 10
-225.133
 20
-153.891
 11
-224.897
 21
-153.964
  0
LINE
  8
0
 10
-224.897
 20
-153.964
 11
-224.675
 21
-154.071
  0
LINE
  8
0
 10
-224.675
 20
-154.071
 11
-224.471
 21
-154.21
  0
LINE
  8
0
 10
-224.471
 20
-154.21
 11
-224.29
 21
-154.378
  0
LINE
  8
0
 10
-224.29
 20
-154.378
 11
-224.137
 21
-154.571
  0
LINE
  8
0
 10
-224.137
 20
-154.571
 11
-224.013
 21
-154.784
  0
LINE
  8
0
 10
-224.013
 20
-154.784
 11
-223.923
 21
-155.014
  0
LINE
  8
0
 10
-223.923
 20
-155.014
 11
-223.868
 21
-155.254
  0
LINE
  8
0
 10
-223.868
 20
-155.254
 11
-223.85
 21
-155.5
  0
LINE
  8
0
 10
-223.85
 20
-155.5
 11
-223.868
 21
-155.746
  0
LINE
  8
0
 10
-223.868
 20
-155.746
 11
-223.923
 21
-155.986
  0
LINE
  8
0
 10
-223.923
 20
-155.986
 11
-224.013
 21
-156.216
  0
LINE
  8
0
 10
-224.013
 20
-156.216
 11
-224.137
 21
-156.429
  0
LINE
  8
0
 10
-224.137
 20
-156.429
 11
-224.29
 21
-156.622
  0
LINE
  8
0
 10
-224.29
 20
-156.622
 11
-224.471
 21
-156.79
  0
LINE
  8
0
 10
-224.471
 20
-156.79
 11
-224.675
 21
-156.929
  0
LINE
  8
0
 10
-224.675
 20
-156.929
 11
-224.897
 21
-157.036
  0
LINE
  8
0
 10
-224.897
 20
-157.036
 11
-225.133
 21
-157.109
  0
LINE
  8
0
 10
-225.133
 20
-157.109
 11
-225.377
 21
-157.145
  0
LINE
  8
0
 10
-225.377
 20
-157.145
 11
-225.623
 21
-157.145
  0
LINE
  8
0
 10
-180.309
 20
-184.729
 11
-180.552
 21
-184.681
  0
LINE
  8
0
 10
-180.552
 20
-184.681
 11
-180.789
 21
-184.607
  0
LINE
  8
0
 10
-180.789
 20
-184.607
 11
-181.016
 21
-184.508
  0
LINE
  8
0
 10
-181.016
 20
-184.508
 11
-181.231
 21
-184.384
  0
LINE
  8
0
 10
-181.231
 20
-184.384
 11
-181.43
 21
-184.237
  0
LINE
  8
0
 10
-181.43
 20
-184.237
 11
-181.613
 21
-184.069
  0
LINE
  8
0
 10
-181.613
 20
-184.069
 11
-181.776
 21
-183.882
  0
LINE
  8
0
 10
-181.776
 20
-183.882
 11
-181.917
 21
-183.678
  0
LINE
  8
0
 10
-181.917
 20
-183.678
 11
-182.035
 21
-183.46
  0
LINE
  8
0
 10
-182.035
 20
-183.46
 11
-182.128
 21
-183.231
  0
LINE
  8
0
 10
-182.128
 20
-183.231
 11
-182.196
 21
-182.992
  0
LINE
  8
0
 10
-182.196
 20
-182.992
 11
-182.236
 21
-182.748
  0
LINE
  8
0
 10
-182.236
 20
-182.748
 11
-182.25
 21
-182.5
  0
LINE
  8
0
 10
-182.25
 20
-182.5
 11
-182.236
 21
-182.252
  0
LINE
  8
0
 10
-182.236
 20
-182.252
 11
-182.196
 21
-182.008
  0
LINE
  8
0
 10
-182.196
 20
-182.008
 11
-182.128
 21
-181.769
  0
LINE
  8
0
 10
-182.128
 20
-181.769
 11
-182.035
 21
-181.54
  0
LINE
  8
0
 10
-182.035
 20
-181.54
 11
-181.917
 21
-181.322
  0
LINE
  8
0
 10
-181.917
 20
-181.322
 11
-181.776
 21
-181.118
  0
LINE
  8
0
 10
-181.776
 20
-181.118
 11
-181.613
 21
-180.931
  0
LINE
  8
0
 10
-181.613
 20
-180.931
 11
-181.43
 21
-180.763
  0
LINE
  8
0
 10
-181.43
 20
-180.763
 11
-181.231
 21
-180.616
  0
LINE
  8
0
 10
-181.231
 20
-180.616
 11
-181.016
 21
-180.492
  0
LINE
  8
0
 10
-181.016
 20
-180.492
 11
-180.789
 21
-180.393
  0
LINE
  8
0
 10
-180.789
 20
-180.393
 11
-180.552
 21
-180.319
  0
LINE
  8
0
 10
-180.552
 20
-180.319
 11
-180.309
 21
-180.271
  0
LINE
  8
0
 10
-180.309
 20
-180.271
 11
-180.062
 21
-180.251
  0
LINE
  8
0
 10
-180.062
 20
-180.251
 11
-179.814
 21
-180.258
  0
LINE
  8
0
 10
-179.814
 20
-180.258
 11
-179.569
 21
-180.292
  0
LINE
  8
0
 10
-179.569
 20
-180.292
 11
-179.328
 21
-180.353
  0
LINE
  8
0
 10
-179.328
 20
-180.353
 11
-179.096
 21
-180.44
  0
LINE
  8
0
 10
-179.096
 20
-180.44
 11
-178.875
 21
-180.551
  0
LINE
  8
0
 10
-178.875
 20
-180.551
 11
-178.667
 21
-180.687
  0
LINE
  8
0
 10
-178.667
 20
-180.687
 11
-178.476
 21
-180.845
  0
LINE
  8
0
 10
-178.476
 20
-180.845
 11
-178.303
 21
-181.022
  0
LINE
  8
0
 10
-178.303
 20
-181.022
 11
-178.151
 21
-181.218
  0
LINE
  8
0
 10
-178.151
 20
-181.218
 11
-178.021
 21
-181.429
  0
LINE
  8
0
 10
-178.021
 20
-181.429
 11
-177.915
 21
-181.653
  0
LINE
  8
0
 10
-177.915
 20
-181.653
 11
-177.835
 21
-181.888
  0
LINE
  8
0
 10
-177.835
 20
-181.888
 11
-177.781
 21
-182.13
  0
LINE
  8
0
 10
-177.781
 20
-182.13
 11
-177.753
 21
-182.376
  0
LINE
  8
0
 10
-177.753
 20
-182.376
 11
-177.753
 21
-182.624
  0
LINE
  8
0
 10
-177.753
 20
-182.624
 11
-177.781
 21
-182.87
  0
LINE
  8
0
 10
-177.781
 20
-182.87
 11
-177.835
 21
-183.112
  0
LINE
  8
0
 10
-177.835
 20
-183.112
 11
-177.915
 21
-183.347
  0
LINE
  8
0
 10
-177.915
 20
-183.347
 11
-178.021
 21
-183.571
  0
LINE
  8
0
 10
-178.021
 20
-183.571
 11
-178.151
 21
-183.782
  0
LINE
  8
0
 10
-178.151
 20
-183.782
 11
-178.303
 21
-183.978
  0
LINE
  8
0
 10
-178.303
 20
-183.978
 11
-178.476
 21
-184.155
  0
LINE
  8
0
 10
-178.476
 20
-184.155
 11
-178.667
 21
-184.313
  0
LINE
  8
0
 10
-178.667
 20
-184.313
 11
-178.875
 21
-184.449
  0
LINE
  8
0
 10
-178.875
 20
-184.449
 11
-179.096
 21
-184.56
  0
LINE
  8
0
 10
-179.096
 20
-184.56
 11
-179.328
 21
-184.647
  0
LINE
  8
0
 10
-179.328
 20
-184.647
 11
-179.569
 21
-184.708
  0
LINE
  8
0
 10
-179.569
 20
-184.708
 11
-179.814
 21
-184.742
  0
LINE
  8
0
 10
-179.814
 20
-184.742
 11
-180.062
 21
-184.749
  0
LINE
  8
0
 10
-180.062
 20
-184.749
 11
-180.309
 21
-184.729
  0
LINE
  8
0
 10
-240.309
 20
-184.729
 11
-240.552
 21
-184.681
  0
LINE
  8
0
 10
-240.552
 20
-184.681
 11
-240.789
 21
-184.607
  0
LINE
  8
0
 10
-240.789
 20
-184.607
 11
-241.016
 21
-184.508
  0
LINE
  8
0
 10
-241.016
 20
-184.508
 11
-241.231
 21
-184.384
  0
LINE
  8
0
 10
-241.231
 20
-184.384
 11
-241.43
 21
-184.237
  0
LINE
  8
0
 10
-241.43
 20
-184.237
 11
-241.613
 21
-184.069
  0
LINE
  8
0
 10
-241.613
 20
-184.069
 11
-241.776
 21
-183.882
  0
LINE
  8
0
 10
-241.776
 20
-183.882
 11
-241.917
 21
-183.678
  0
LINE
  8
0
 10
-241.917
 20
-183.678
 11
-242.035
 21
-183.46
  0
LINE
  8
0
 10
-242.035
 20
-183.46
 11
-242.128
 21
-183.231
  0
LINE
  8
0
 10
-242.128
 20
-183.231
 11
-242.196
 21
-182.992
  0
LINE
  8
0
 10
-242.196
 20
-182.992
 11
-242.236
 21
-182.748
  0
LINE
  8
0
 10
-242.236
 20
-182.748
 11
-242.25
 21
-182.5
  0
LINE
  8
0
 10
-242.25
 20
-182.5
 11
-242.236
 21
-182.252
  0
LINE
  8
0
 10
-242.236
 20
-182.252
 11
-242.196
 21
-182.008
  0
LINE
  8
0
 10
-242.196
 20
-182.008
 11
-242.128
 21
-181.769
  0
LINE
  8
0
 10
-242.128
 20
-181.769
 11
-242.035
 21
-181.54
  0
LINE
  8
0
 10
-242.035
 20
-181.54
 11
-241.917
 21
-181.322
  0
LINE
  8
0
 10
-241.917
 20
-181.322
 11
-241.776
 21
-181.118
  0
LINE
  8
0
 10
-241.776
 20
-181.118
 11
-241.613
 21
-180.931
  0
LINE
  8
0
 10
-241.613
 20
-180.931
 11
-241.43
 21
-180.763
  0
LINE
  8
0
 10
-241.43
 20
-180.763
 11
-241.231
 21
-180.616
  0
LINE
  8
0
 10
-241.231
 20
-180.616
 11
-241.016
 21
-180.492
  0
LINE
  8
0
 10
-241.016
 20
-180.492
 11
-240.789
 21
-180.393
  0
LINE
  8
0
 10
-240.789
 20
-180.393
 11
-240.552
 21
-180.319
  0
LINE
  8
0
 10
-240.552
 20
-180.319
 11
-240.309
 21
-180.271
  0
LINE
  8
0
 10
-240.309
 20
-180.271
 11
-240.062
 21
-180.251
  0
LINE
  8
0
 10
-240.062
 20
-180.251
 11
-239.814
 21
-180.258
  0
LINE
  8
0
 10
-239.814
 20
-180.258
 11
-239.569
 21
-180.292
  0
LINE
  8
0
 10
-239.569
 20
-180.292
 11
-239.328
 21
-180.353
  0
LINE
  8
0
 10
-239.328
 20
-180.353
 11
-239.096
 21
-180.44
  0
LINE
  8
0
 10
-239.096
 20
-180.44
 11
-238.875
 21
-180.551
  0
LINE
  8
0
 10
-238.875
 20
-180.551
 11
-238.667
 21
-180.687
  0
LINE
  8
0
 10
-238.667
 20
-180.687
 11
-238.476
 21
-180.845
  0
LINE
  8
0
 10
-238.476
 20
-180.845
 11
-238.303
 21
-181.022
  0
LINE
  8
0
 10
-238.303
 20
-181.022
 11
-238.151
 21
-181.218
  0
LINE
  8
0
 10
-238.151
 20
-181.218
 11
-238.021
 21
-181.429
  0
LINE
  8
0
 10
-238.021
 20
-181.429
 11
-237.915
 21
-181.653
  0
LINE
  8
0
 10
-237.915
 20
-181.653
 11
-237.835
 21
-181.888
  0
LINE
  8
0
 10
-237.835
 20
-181.888
 11
-237.781
 21
-182.13
  0
LINE
  8
0
 10
-237.781
 20
-182.13
 11
-237.753
 21
-182.376
  0
LINE
  8
0
 10
-237.753
 20
-182.376
 11
-237.753
 21
-182.624
  0
LINE
  8
0
 10
-237.753
 20
-182.624
 11
-237.781
 21
-182.87
  0
LINE
  8
0
 10
-237.781
 20
-182.87
 11
-237.835
 21
-183.112
  0
LINE
  8
0
 10
-237.835
 20
-183.112
 11
-237.915
 21
-183.347
  0
LINE
  8
0
 10
-237.915
 20
-183.347
 11
-238.021
 21
-183.571
  0
LINE
  8
0
 10
-238.021
 20
-183.571
 11
-238.151
 21
-183.782
  0
LINE
  8
0
 10
-238.151
 20
-183.782
 11
-238.303
 21
-183.978
  0
LINE
  8
0
 10
-238.303
 20
-183.978
 11
-238.476
 21
-184.155
  0
LINE
  8
0
 10
-238.476
 20
-184.155
 11
-238.667
 21
-184.313
  0
LINE
  8
0
 10
-238.667
 20
-184.313
 11
-238.875
 21
-184.449
  0
LINE
  8
0
 10
-238.875
 20
-184.449
 11
-239.096
 21
-184.56
  0
LINE
  8
0
 10
-239.096
 20
-184.56
 11
-239.328
 21
-184.647
  0
LINE
  8
0
 10
-239.328
 20
-184.647
 11
-239.569
 21
-184.708
  0
LINE
  8
0
 10
-239.569
 20
-184.708
 11
-239.814
 21
-184.742
  0
LINE
  8
0
 10
-239.814
 20
-184.742
 11
-240.062
 21
-184.749
  0
LINE
  8
0
 10
-240.062
 20
-184.749
 11
-240.309
 21
-184.729
  0
LINE
  8
0
 10
179.814
 20
-184.742
 11
179.569
 21
-184.708
  0
LINE
  8
0
 10
179.569
 20
-184.708
 11
179.328
 21
-184.647
  0
LINE
  8
0
 10
179.328
 20
-184.647
 11
179.096
 21
-184.56
  0
LINE
  8
0
 10
179.096
 20
-184.56
 11
178.875
 21
-184.449
  0
LINE
  8
0
 10
178.875
 20
-184.449
 11
178.667
 21
-184.313
  0
LINE
  8
0
 10
178.667
 20
-184.313
 11
178.476
 21
-184.155
  0
LINE
  8
0
 10
178.476
 20
-184.155
 11
178.303
 21
-183.978
  0
LINE
  8
0
 10
178.303
 20
-183.978
 11
178.151
 21
-183.782
  0
LINE
  8
0
 10
178.151
 20
-183.782
 11
178.021
 21
-183.571
  0
LINE
  8
0
 10
178.021
 20
-183.571
 11
177.915
 21
-183.347
  0
LINE
  8
0
 10
177.915
 20
-183.347
 11
177.835
 21
-183.112
  0
LINE
  8
0
 10
177.835
 20
-183.112
 11
177.781
 21
-182.87
  0
LINE
  8
0
 10
177.781
 20
-182.87
 11
177.753
 21
-182.624
  0
LINE
  8
0
 10
177.753
 20
-182.624
 11
177.753
 21
-182.376
  0
LINE
  8
0
 10
177.753
 20
-182.376
 11
177.781
 21
-182.13
  0
LINE
  8
0
 10
177.781
 20
-182.13
 11
177.835
 21
-181.888
  0
LINE
  8
0
 10
177.835
 20
-181.888
 11
177.915
 21
-181.653
  0
LINE
  8
0
 10
177.915
 20
-181.653
 11
178.021
 21
-181.429
  0
LINE
  8
0
 10
178.021
 20
-181.429
 11
178.151
 21
-181.218
  0
LINE
  8
0
 10
178.151
 20
-181.218
 11
178.303
 21
-181.022
  0
LINE
  8
0
 10
178.303
 20
-181.022
 11
178.476
 21
-180.845
  0
LINE
  8
0
 10
178.476
 20
-180.845
 11
178.667
 21
-180.687
  0
LINE
  8
0
 10
178.667
 20
-180.687
 11
178.875
 21
-180.551
  0
LINE
  8
0
 10
178.875
 20
-180.551
 11
179.096
 21
-180.44
  0
LINE
  8
0
 10
179.096
 20
-180.44
 11
179.328
 21
-180.353
  0
LINE
  8
0
 10
179.328
 20
-180.353
 11
179.569
 21
-180.292
  0
LINE
  8
0
 10
179.569
 20
-180.292
 11
179.814
 21
-180.258
  0
LINE
  8
0
 10
179.814
 20
-180.258
 11
180.062
 21
-180.251
  0
LINE
  8
0
 10
180.062
 20
-180.251
 11
180.309
 21
-180.271
  0
LINE
  8
0
 10
180.309
 20
-180.271
 11
180.552
 21
-180.319
  0
LINE
  8
0
 10
180.552
 20
-180.319
 11
180.789
 21
-180.393
  0
LINE
  8
0
 10
180.789
 20
-180.393
 11
181.016
 21
-180.492
  0
LINE
  8
0
 10
181.016
 20
-180.492
 11
181.231
 21
-180.616
  0
LINE
  8
0
 10
181.231
 20
-180.616
 11
181.43
 21
-180.763
  0
LINE
  8
0
 10
181.43
 20
-180.763
 11
181.613
 21
-180.931
  0
LINE
  8
0
 10
181.613
 20
-180.931
 11
181.776
 21
-181.118
  0
LINE
  8
0
 10
181.776
 20
-181.118
 11
181.917
 21
-181.322
  0
LINE
  8
0
 10
181.917
 20
-181.322
 11
182.035
 21
-181.54
  0
LINE
  8
0
 10
182.035
 20
-181.54
 11
182.128
 21
-181.769
  0
LINE
  8
0
 10
182.128
 20
-181.769
 11
182.196
 21
-182.008
  0
LINE
  8
0
 10
182.196
 20
-182.008
 11
182.236
 21
-182.252
  0
LINE
  8
0
 10
182.236
 20
-182.252
 11
182.25
 21
-182.5
  0
LINE
  8
0
 10
182.25
 20
-182.5
 11
182.236
 21
-182.748
  0
LINE
  8
0
 10
182.236
 20
-182.748
 11
182.196
 21
-182.992
  0
LINE
  8
0
 10
182.196
 20
-182.992
 11
182.128
 21
-183.231
  0
LINE
  8
0
 10
182.128
 20
-183.231
 11
182.035
 21
-183.46
  0
LINE
  8
0
 10
182.035
 20
-183.46
 11
181.917
 21
-183.678
  0
LINE
  8
0
 10
181.917
 20
-183.678
 11
181.776
 21
-183.882
  0
LINE
  8
0
 10
181.776
 20
-183.882
 11
181.613
 21
-184.069
  0
LINE
  8
0
 10
181.613
 20
-184.069
 11
181.43
 21
-184.237
  0
LINE
  8
0
 10
181.43
 20
-184.237
 11
181.231
 21
-184.384
  0
LINE
  8
0
 10
181.231
 20
-184.384
 11
181.016
 21
-184.508
  0
LINE
  8
0
 10
181.016
 20
-184.508
 11
180.789
 21
-184.607
  0
LINE
  8
0
 10
180.789
 20
-184.607
 11
180.552
 21
-184.681
  0
LINE
  8
0
 10
180.552
 20
-184.681
 11
180.309
 21
-184.729
  0
LINE
  8
0
 10
180.309
 20
-184.729
 11
180.062
 21
-184.749
  0
LINE
  8
0
 10
180.062
 20
-184.749
 11
179.814
 21
-184.742
  0
LINE
  8
0
 10
239.814
 20
-184.742
 11
239.569
 21
-184.708
  0
LINE
  8
0
 10
239.569
 20
-184.708
 11
239.328
 21
-184.647
  0
LINE
  8
0
 10
239.328
 20
-184.647
 11
239.096
 21
-184.56
  0
LINE
  8
0
 10
239.096
 20
-184.56
 11
238.875
 21
-184.449
  0
LINE
  8
0
 10
238.875
 20
-184.449
 11
238.667
 21
-184.313
  0
LINE
  8
0
 10
238.667
 20
-184.313
 11
238.476
 21
-184.155
  0
LINE
  8
0
 10
238.476
 20
-184.155
 11
238.303
 21
-183.978
  0
LINE
  8
0
 10
238.303
 20
-183.978
 11
238.151
 21
-183.782
  0
LINE
  8
0
 10
238.151
 20
-183.782
 11
238.021
 21
-183.571
  0
LINE
  8
0
 10
238.021
 20
-183.571
 11
237.915
 21
-183.347
  0
LINE
  8
0
 10
237.915
 20
-183.347
 11
237.835
 21
-183.112
  0
LINE
  8
0
 10
237.835
 20
-183.112
 11
237.781
 21
-182.87
  0
LINE
  8
0
 10
237.781
 20
-182.87
 11
237.753
 21
-182.624
  0
LINE
  8
0
 10
237.753
 20
-182.624
 11
237.753
 21
-182.376
  0
LINE
  8
0
 10
237.753
 20
-182.376
 11
237.781
 21
-182.13
  0
LINE
  8
0
 10
237.781
 20
-182.13
 11
237.835
 21
-181.888
  0
LINE
  8
0
 10
237.835
 20
-181.888
 11
237.915
 21
-181.653
  0
LINE
  8
0
 10
237.915
 20
-181.653
 11
238.021
 21
-181.429
  0
LINE
  8
0
 10
238.021
 20
-181.429
 11
238.151
 21
-181.218
  0
LINE
  8
0
 10
238.151
 20
-181.218
 11
238.303
 21
-181.022
  0
LINE
  8
0
 10
238.303
 20
-181.022
 11
238.476
 21
-180.845
  0
LINE
  8
0
 10
238.476
 20
-180.845
 11
238.667
 21
-180.687
  0
LINE
  8
0
 10
238.667
 20
-180.687
 11
238.875
 21
-180.551
  0
LINE
  8
0
 10
238.875
 20
-180.551
 11
239.096
 21
-180.44
  0
LINE
  8
0
 10
239.096
 20
-180.44
 11
239.328
 21
-180.353
  0
LINE
  8
0
 10
239.328
 20
-180.353
 11
239.569
 21
-180.292
  0
LINE
  8
0
 10
239.569
 20
-180.292
 11
239.814
 21
-180.258
  0
LINE
  8
0
 10
239.814
 20
-180.258
 11
240.062
 21
-180.251
  0
LINE
  8
0
 10
240.062
 20
-180.251
 11
240.309
 21
-180.271
  0
LINE
  8
0
 10
240.309
 20
-180.271
 11
240.552
 21
-180.319
  0
LINE
  8
0
 10
240.552
 20
-180.319
 11
240.789
 21
-180.393
  0
LINE
  8
0
 10
240.789
 20
-180.393
 11
241.016
 21
-180.492
  0
LINE
  8
0
 10
241.016
 20
-180.492
 11
241.231
 21
-180.616
  0
LINE
  8
0
 10
241.231
 20
-180.616
 11
241.43
 21
-180.763
  0
LINE
  8
0
 10
241.43
 20
-180.763
 11
241.613
 21
-180.931
  0
LINE
  8
0
 10
241.613
 20
-180.931
 11
241.776
 21
-181.118
  0
LINE
  8
0
 10
241.776
 20
-181.118
 11
241.917
 21
-181.322
  0
LINE
  8
0
 10
241.917
 20
-181.322
 11
242.035
 21
-181.54
  0
LINE
  8
0
 10
242.035
 20
-181.54
 11
242.128
 21
-181.769
  0
LINE
  8
0
 10
242.128
 20
-181.769
 11
242.196
 21
-182.008
  0
LINE
  8
0
 10
242.196
 20
-182.008
 11
242.236
 21
-182.252
  0
LINE
  8
0
 10
242.236
 20
-182.252
 11
242.25
 21
-182.5
  0
LINE
  8
0
 10
242.25
 20
-182.5
 11
242.236
 21
-182.748
  0
LINE
  8
0
 10
242.236
 20
-182.748
 11
242.196
 21
-182.992
  0
LINE
  8
0
 10
242.196
 20
-182.992
 11
242.128
 21
-183.231
  0
LINE
  8
0
 10
242.128
 20
-183.231
 11
242.035
 21
-183.46
  0
LINE
  8
0
 10
242.035
 20
-183.46
 11
241.917
 21
-183.678
  0
LINE
  8
0
 10
241.917
 20
-183.678
 11
241.776
 21
-183.882
  0
LINE
  8
0
 10
241.776
 20
-183.882
 11
241.613
 21
-184.069
  0
LINE
  8
0
 10
241.613
 20
-184.069
 11
241.43
 21
-184.237
  0
LINE
  8
0
 10
241.43
 20
-184.237
 11
241.231
 21
-184.384
  0
LINE
  8
0
 10
241.231
 20
-184.384
 11
241.016
 21
-184.508
  0
LINE
  8
0
 10
241.016
 20
-184.508
 11
240.789
 21
-184.607
  0
LINE
  8
0
 10
240.789
 20
-184.607
 11
240.552
 21
-184.681
  0
LINE
  8
0
 10
240.552
 20
-184.681
 11
240.309
 21
-184.729
  0
LINE
  8
0
 10
240.309
 20
-184.729
 11
240.062
 21
-184.749
  0
LINE
  8
0
 10
240.062
 20
-184.749
 11
239.814
 21
-184.742
  0
LINE
  8
0
 10
-240.523
 20
-227.473
 11
-241.04
 21
-227.391
  0
LINE
  8
0
 10
-241.04
 20
-227.391
 11
-241.545
 21
-227.255
  0
LINE
  8
0
 10
-241.545
 20
-227.255
 11
-242.034
 21
-227.068
  0
LINE
  8
0
 10
-242.034
 20
-227.068
 11
-242.5
 21
-226.83
  0
LINE
  8
0
 10
-242.5
 20
-226.83
 11
-242.939
 21
-226.545
  0
LINE
  8
0
 10
-242.939
 20
-226.545
 11
-243.346
 21
-226.216
  0
LINE
  8
0
 10
-243.346
 20
-226.216
 11
-243.716
 21
-225.846
  0
LINE
  8
0
 10
-243.716
 20
-225.846
 11
-244.045
 21
-225.439
  0
LINE
  8
0
 10
-244.045
 20
-225.439
 11
-244.33
 21
-225
  0
LINE
  8
0
 10
-244.33
 20
-225
 11
-244.568
 21
-224.534
  0
LINE
  8
0
 10
-244.568
 20
-224.534
 11
-244.755
 21
-224.045
  0
LINE
  8
0
 10
-244.755
 20
-224.045
 11
-244.891
 21
-223.54
  0
LINE
  8
0
 10
-244.891
 20
-223.54
 11
-244.973
 21
-223.023
  0
LINE
  8
0
 10
-244.973
 20
-223.023
 11
-245
 21
-222.5
  0
LINE
  8
0
 10
-245
 20
-222.5
 11
-244.973
 21
-221.977
  0
LINE
  8
0
 10
-244.973
 20
-221.977
 11
-244.891
 21
-221.46
  0
LINE
  8
0
 10
-244.891
 20
-221.46
 11
-244.755
 21
-220.955
  0
LINE
  8
0
 10
-244.755
 20
-220.955
 11
-244.568
 21
-220.466
  0
LINE
  8
0
 10
-244.568
 20
-220.466
 11
-244.33
 21
-220
  0
LINE
  8
0
 10
-244.33
 20
-220
 11
-244.045
 21
-219.561
  0
LINE
  8
0
 10
-244.045
 20
-219.561
 11
-243.716
 21
-219.154
  0
LINE
  8
0
 10
-243.716
 20
-219.154
 11
-243.346
 21
-218.784
  0
LINE
  8
0
 10
-243.346
 20
-218.784
 11
-242.939
 21
-218.455
  0
LINE
  8
0
 10
-242.939
 20
-218.455
 11
-242.5
 21
-218.17
  0
LINE
  8
0
 10
-242.5
 20
-218.17
 11
-242.034
 21
-217.932
  0
LINE
  8
0
 10
-242.034
 20
-217.932
 11
-241.545
 21
-217.745
  0
LINE
  8
0
 10
-241.545
 20
-217.745
 11
-241.04
 21
-217.609
  0
LINE
  8
0
 10
-241.04
 20
-217.609
 11
-240.523
 21
-217.527
  0
LINE
  8
0
 10
-240.523
 20
-217.527
 11
-240
 21
-217.5
  0
LINE
  8
0
 10
-240
 20
-217.5
 11
-239.477
 21
-217.527
  0
LINE
  8
0
 10
-239.477
 20
-217.527
 11
-238.96
 21
-217.609
  0
LINE
  8
0
 10
-238.96
 20
-217.609
 11
-238.455
 21
-217.745
  0
LINE
  8
0
 10
-238.455
 20
-217.745
 11
-237.966
 21
-217.932
  0
LINE
  8
0
 10
-237.966
 20
-217.932
 11
-237.5
 21
-218.17
  0
LINE
  8
0
 10
-237.5
 20
-218.17
 11
-237.061
 21
-218.455
  0
LINE
  8
0
 10
-237.061
 20
-218.455
 11
-236.654
 21
-218.784
  0
LINE
  8
0
 10
-236.654
 20
-218.784
 11
-236.284
 21
-219.154
  0
LINE
  8
0
 10
-236.284
 20
-219.154
 11
-235.955
 21
-219.561
  0
LINE
  8
0
 10
-235.955
 20
-219.561
 11
-235.67
 21
-220
  0
LINE
  8
0
 10
-235.67
 20
-220
 11
-235.432
 21
-220.466
  0
LINE
  8
0
 10
-235.432
 20
-220.466
 11
-235.245
 21
-220.955
  0
LINE
  8
0
 10
-235.245
 20
-220.955
 11
-235.109
 21
-221.46
  0
LINE
  8
0
 10
-235.109
 20
-221.46
 11
-235.027
 21
-221.977
  0
LINE
  8
0
 10
-235.027
 20
-221.977
 11
-235
 21
-222.5
  0
LINE
  8
0
 10
-235
 20
-222.5
 11
-235.027
 21
-223.023
  0
LINE
  8
0
 10
-235.027
 20
-223.023
 11
-235.109
 21
-223.54
  0
LINE
  8
0
 10
-235.109
 20
-223.54
 11
-235.245
 21
-224.045
  0
LINE
  8
0
 10
-235.245
 20
-224.045
 11
-235.432
 21
-224.534
  0
LINE
  8
0
 10
-235.432
 20
-224.534
 11
-235.67
 21
-225
  0
LINE
  8
0
 10
-235.67
 20
-225
 11
-235.955
 21
-225.439
  0
LINE
  8
0
 10
-235.955
 20
-225.439
 11
-236.284
 21
-225.846
  0
LINE
  8
0
 10
-236.284
 20
-225.846
 11
-236.654
 21
-226.216
  0
LINE
  8
0
 10
-236.654
 20
-226.216
 11
-237.061
 21
-226.545
  0
LINE
  8
0
 10
-237.061
 20
-226.545
 11
-237.5
 21
-226.83
  0
LINE
  8
0
 10
-237.5
 20
-226.83
 11
-237.966
 21
-227.068
  0
LINE
  8
0
 10
-237.966
 20
-227.068
 11
-238.455
 21
-227.255
  0
LINE
  8
0
 10
-238.455
 20
-227.255
 11
-238.96
 21
-227.391
  0
LINE
  8
0
 10
-238.96
 20
-227.391
 11
-239.477
 21
-227.473
  0
LINE
  8
0
 10
-239.477
 20
-227.473
 11
-240
 21
-227.5
  0
LINE
  8
0
 10
-240
 20
-227.5
 11
-240.523
 21
-227.473
  0
LINE
  8
0
 10
239.477
 20
-227.473
 11
238.96
 21
-227.391
  0
LINE
  8
0
 10
238.96
 20
-227.391
 11
238.455
 21
-227.255
  0
LINE
  8
0
 10
238.455
 20
-227.255
 11
237.966
 21
-227.068
  0
LINE
  8
0
 10
237.966
 20
-227.068
 11
237.5
 21
-226.83
  0
LINE
  8
0
 10
237.5
 20
-226.83
 11
237.061
 21
-226.545
  0
LINE
  8
0
 10
237.061
 20
-226.545
 11
236.654
 21
-226.216
  0
LINE
  8
0
 10
236.654
 20
-226.216
 11
236.284
 21
-225.846
  0
LINE
  8
0
 10
236.284
 20
-225.846
 11
235.955
 21
-225.439
  0
LINE
  8
0
 10
235.955
 20
-225.439
 11
235.67
 21
-225
  0
LINE
  8
0
 10
235.67
 20
-225
 11
235.432
 21
-224.534
  0
LINE
  8
0
 10
235.432
 20
-224.534
 11
235.245
 21
-224.045
  0
LINE
  8
0
 10
235.245
 20
-224.045
 11
235.109
 21
-223.54
  0
LINE
  8
0
 10
235.109
 20
-223.54
 11
235.027
 21
-223.023
  0
LINE
  8
0
 10
235.027
 20
-223.023
 11
235
 21
-222.5
  0
LINE
  8
0
 10
235
 20
-222.5
 11
235.027
 21
-221.977
  0
LINE
  8
0
 10
235.027
 20
-221.977
 11
235.109
 21
-221.46
  0
LINE
  8
0
 10
235.109
 20
-221.46
 11
235.245
 21
-220.955
  0
LINE
  8
0
 10
235.245
 20
-220.955
 11
235.432
 21
-220.466
  0
LINE
  8
0
 10
235.432
 20
-220.466
 11
235.67
 21
-220
  0
LINE
  8
0
 10
235.67
 20
-220
 11
235.955
 21
-219.561
  0
LINE
  8
0
 10
235.955
 20
-219.561
 11
236.284
 21
-219.154
  0
LINE
  8
0
 10
236.284
 20
-219.154
 11
236.654
 21
-218.784
  0
LINE
  8
0
 10
236.654
 20
-218.784
 11
237.061
 21
-218.455
  0
LINE
  8
0
 10
237.061
 20
-218.455
 11
237.5
 21
-218.17
  0
LINE
  8
0
 10
237.5
 20
-218.17
 11
237.966
 21
-217.932
  0
LINE
  8
0
 10
237.966
 20
-217.932
 11
238.455
 21
-217.745
  0
LINE
  8
0
 10
238.455
 20
-217.745
 11
238.96
 21
-217.609
  0
LINE
  8
0
 10
238.96
 20
-217.609
 11
239.477
 21
-217.527
  0
LINE
  8
0
 10
239.477
 20
-217.527
 11
240
 21
-217.5
  0
LINE
  8
0
 10
240
 20
-217.5
 11
240.523
 21
-217.527
  0
LINE
  8
0
 10
240.523
 20
-217.527
 11
241.04
 21
-217.609
  0
LINE
  8
0
 10
241.04
 20
-217.609
 11
241.545
 21
-217.745
  0
LINE
  8
0
 10
241.545
 20
-217.745
 11
242.034
 21
-217.932
  0
LINE
  8
0
 10
242.034
 20
-217.932
 11
242.5
 21
-218.17
  0
LINE
  8
0
 10
242.5
 20
-218.17
 11
242.939
 21
-218.455
  0
LINE
  8
0
 10
242.939
 20
-218.455
 11
243.346
 21
-218.784
  0
LINE
  8
0
 10
243.346
 20
-218.784
 11
243.716
 21
-219.154
  0
LINE
  8
0
 10
243.716
 20
-219.154
 11
244.045
 21
-219.561
  0
LINE
  8
0
 10
244.045
 20
-219.561
 11
244.33
 21
-220
  0
LINE
  8
0
 10
244.33
 20
-220
 11
244.568
 21
-220.466
  0
LINE
  8
0
 10
244.568
 20
-220.466
 11
244.755
 21
-220.955
  0
LINE
  8
0
 10
244.755
 20
-220.955
 11
244.891
 21
-221.46
  0
LINE
  8
0
 10
244.891
 20
-221.46
 11
244.973
 21
-221.977
  0
LINE
  8
0
 10
244.973
 20
-221.977
 11
245
 21
-222.5
  0
LINE
  8
0
 10
245
 20
-222.5
 11
244.973
 21
-223.023
  0
LINE
  8
0
 10
244.973
 20
-223.023
 11
244.891
 21
-223.54
  0
LINE
  8
0
 10
244.891
 20
-223.54
 11
244.755
 21
-224.045
  0
LINE
  8
0
 10
244.755
 20
-224.045
 11
244.568
 21
-224.534
  0
LINE
  8
0
 10
244.568
 20
-224.534
 11
244.33
 21
-225
  0
LINE
  8
0
 10
244.33
 20
-225
 11
244.045
 21
-225.439
  0
LINE
  8
0
 10
244.045
 20
-225.439
 11
243.716
 21
-225.846
  0
LINE
  8
0
 10
243.716
 20
-225.846
 11
243.346
 21
-226.216
  0
LINE
  8
0
 10
243.346
 20
-226.216
 11
242.939
 21
-226.545
  0
LINE
  8
0
 10
242.939
 20
-226.545
 11
242.5
 21
-226.83
  0
LINE
  8
0
 10
242.5
 20
-226.83
 11
242.034
 21
-227.068
  0
LINE
  8
0
 10
242.034
 20
-227.068
 11
241.545
 21
-227.255
  0
LINE
  8
0
 10
241.545
 20
-227.255
 11
241.04
 21
-227.391
  0
LINE
  8
0
 10
241.04
 20
-227.391
 11
240.523
 21
-227.473
  0
LINE
  8
0
 10
240.523
 20
-227.473
 11
240
 21
-227.5
  0
LINE
  8
0
 10
240
 20
-227.5
 11
239.477
 21
-227.473
  0
LINE
  8
0
 10
-200.186
 20
-224.742
 11
-200.431
 21
-224.708
  0
LINE
  8
0
 10
-200.431
 20
-224.708
 11
-200.672
 21
-224.647
  0
LINE
  8
0
 10
-200.672
 20
-224.647
 11
-200.904
 21
-224.56
  0
LINE
  8
0
 10
-200.904
 20
-224.56
 11
-201.125
 21
-224.449
  0
LINE
  8
0
 10
-201.125
 20
-224.449
 11
-201.333
 21
-224.313
  0
LINE
  8
0
 10
-201.333
 20
-224.313
 11
-201.524
 21
-224.155
  0
LINE
  8
0
 10
-201.524
 20
-224.155
 11
-201.697
 21
-223.978
  0
LINE
  8
0
 10
-201.697
 20
-223.978
 11
-201.849
 21
-223.782
  0
LINE
  8
0
 10
-201.849
 20
-223.782
 11
-201.979
 21
-223.571
  0
LINE
  8
0
 10
-201.979
 20
-223.571
 11
-202.085
 21
-223.347
  0
LINE
  8
0
 10
-202.085
 20
-223.347
 11
-202.165
 21
-223.112
  0
LINE
  8
0
 10
-202.165
 20
-223.112
 11
-202.219
 21
-222.87
  0
LINE
  8
0
 10
-202.219
 20
-222.87
 11
-202.247
 21
-222.624
  0
LINE
  8
0
 10
-202.247
 20
-222.624
 11
-202.247
 21
-222.376
  0
LINE
  8
0
 10
-202.247
 20
-222.376
 11
-202.219
 21
-222.13
  0
LINE
  8
0
 10
-202.219
 20
-222.13
 11
-202.165
 21
-221.888
  0
LINE
  8
0
 10
-202.165
 20
-221.888
 11
-202.085
 21
-221.653
  0
LINE
  8
0
 10
-202.085
 20
-221.653
 11
-201.979
 21
-221.429
  0
LINE
  8
0
 10
-201.979
 20
-221.429
 11
-201.849
 21
-221.218
  0
LINE
  8
0
 10
-201.849
 20
-221.218
 11
-201.697
 21
-221.022
  0
LINE
  8
0
 10
-201.697
 20
-221.022
 11
-201.524
 21
-220.845
  0
LINE
  8
0
 10
-201.524
 20
-220.845
 11
-201.333
 21
-220.687
  0
LINE
  8
0
 10
-201.333
 20
-220.687
 11
-201.125
 21
-220.551
  0
LINE
  8
0
 10
-201.125
 20
-220.551
 11
-200.904
 21
-220.44
  0
LINE
  8
0
 10
-200.904
 20
-220.44
 11
-200.672
 21
-220.353
  0
LINE
  8
0
 10
-200.672
 20
-220.353
 11
-200.431
 21
-220.292
  0
LINE
  8
0
 10
-200.431
 20
-220.292
 11
-200.186
 21
-220.258
  0
LINE
  8
0
 10
-200.186
 20
-220.258
 11
-199.938
 21
-220.251
  0
LINE
  8
0
 10
-199.938
 20
-220.251
 11
-199.691
 21
-220.271
  0
LINE
  8
0
 10
-199.691
 20
-220.271
 11
-199.448
 21
-220.319
  0
LINE
  8
0
 10
-199.448
 20
-220.319
 11
-199.211
 21
-220.393
  0
LINE
  8
0
 10
-199.211
 20
-220.393
 11
-198.984
 21
-220.492
  0
LINE
  8
0
 10
-198.984
 20
-220.492
 11
-198.769
 21
-220.616
  0
LINE
  8
0
 10
-198.769
 20
-220.616
 11
-198.57
 21
-220.763
  0
LINE
  8
0
 10
-198.57
 20
-220.763
 11
-198.387
 21
-220.931
  0
LINE
  8
0
 10
-198.387
 20
-220.931
 11
-198.224
 21
-221.118
  0
LINE
  8
0
 10
-198.224
 20
-221.118
 11
-198.083
 21
-221.322
  0
LINE
  8
0
 10
-198.083
 20
-221.322
 11
-197.965
 21
-221.54
  0
LINE
  8
0
 10
-197.965
 20
-221.54
 11
-197.872
 21
-221.769
  0
LINE
  8
0
 10
-197.872
 20
-221.769
 11
-197.804
 21
-222.008
  0
LINE
  8
0
 10
-197.804
 20
-222.008
 11
-197.764
 21
-222.252
  0
LINE
  8
0
 10
-197.764
 20
-222.252
 11
-197.75
 21
-222.5
  0
LINE
  8
0
 10
-197.75
 20
-222.5
 11
-197.764
 21
-222.748
  0
LINE
  8
0
 10
-197.764
 20
-222.748
 11
-197.804
 21
-222.992
  0
LINE
  8
0
 10
-197.804
 20
-222.992
 11
-197.872
 21
-223.231
  0
LINE
  8
0
 10
-197.872
 20
-223.231
 11
-197.965
 21
-223.46
  0
LINE
  8
0
 10
-197.965
 20
-223.46
 11
-198.083
 21
-223.678
  0
LINE
  8
0
 10
-198.083
 20
-223.678
 11
-198.224
 21
-223.882
  0
LINE
  8
0
 10
-198.224
 20
-223.882
 11
-198.387
 21
-224.069
  0
LINE
  8
0
 10
-198.387
 20
-224.069
 11
-198.57
 21
-224.237
  0
LINE
  8
0
 10
-198.57
 20
-224.237
 11
-198.769
 21
-224.384
  0
LINE
  8
0
 10
-198.769
 20
-224.384
 11
-198.984
 21
-224.508
  0
LINE
  8
0
 10
-198.984
 20
-224.508
 11
-199.211
 21
-224.607
  0
LINE
  8
0
 10
-199.211
 20
-224.607
 11
-199.448
 21
-224.681
  0
LINE
  8
0
 10
-199.448
 20
-224.681
 11
-199.691
 21
-224.729
  0
LINE
  8
0
 10
-199.691
 20
-224.729
 11
-199.938
 21
-224.749
  0
LINE
  8
0
 10
-199.938
 20
-224.749
 11
-200.186
 21
-224.742
  0
LINE
  8
0
 10
-100.186
 20
-224.742
 11
-100.431
 21
-224.708
  0
LINE
  8
0
 10
-100.431
 20
-224.708
 11
-100.672
 21
-224.647
  0
LINE
  8
0
 10
-100.672
 20
-224.647
 11
-100.904
 21
-224.56
  0
LINE
  8
0
 10
-100.904
 20
-224.56
 11
-101.125
 21
-224.449
  0
LINE
  8
0
 10
-101.125
 20
-224.449
 11
-101.333
 21
-224.313
  0
LINE
  8
0
 10
-101.333
 20
-224.313
 11
-101.524
 21
-224.155
  0
LINE
  8
0
 10
-101.524
 20
-224.155
 11
-101.697
 21
-223.978
  0
LINE
  8
0
 10
-101.697
 20
-223.978
 11
-101.849
 21
-223.782
  0
LINE
  8
0
 10
-101.849
 20
-223.782
 11
-101.979
 21
-223.571
  0
LINE
  8
0
 10
-101.979
 20
-223.571
 11
-102.085
 21
-223.347
  0
LINE
  8
0
 10
-102.085
 20
-223.347
 11
-102.165
 21
-223.112
  0
LINE
  8
0
 10
-102.165
 20
-223.112
 11
-102.219
 21
-222.87
  0
LINE
  8
0
 10
-102.219
 20
-222.87
 11
-102.247
 21
-222.624
  0
LINE
  8
0
 10
-102.247
 20
-222.624
 11
-102.247
 21
-222.376
  0
LINE
  8
0
 10
-102.247
 20
-222.376
 11
-102.219
 21
-222.13
  0
LINE
  8
0
 10
-102.219
 20
-222.13
 11
-102.165
 21
-221.888
  0
LINE
  8
0
 10
-102.165
 20
-221.888
 11
-102.085
 21
-221.653
  0
LINE
  8
0
 10
-102.085
 20
-221.653
 11
-101.979
 21
-221.429
  0
LINE
  8
0
 10
-101.979
 20
-221.429
 11
-101.849
 21
-221.218
  0
LINE
  8
0
 10
-101.849
 20
-221.218
 11
-101.697
 21
-221.022
  0
LINE
  8
0
 10
-101.697
 20
-221.022
 11
-101.524
 21
-220.845
  0
LINE
  8
0
 10
-101.524
 20
-220.845
 11
-101.333
 21
-220.687
  0
LINE
  8
0
 10
-101.333
 20
-220.687
 11
-101.125
 21
-220.551
  0
LINE
  8
0
 10
-101.125
 20
-220.551
 11
-100.904
 21
-220.44
  0
LINE
  8
0
 10
-100.904
 20
-220.44
 11
-100.672
 21
-220.353
  0
LINE
  8
0
 10
-100.672
 20
-220.353
 11
-100.431
 21
-220.292
  0
LINE
  8
0
 10
-100.431
 20
-220.292
 11
-100.186
 21
-220.258
  0
LINE
  8
0
 10
-100.186
 20
-220.258
 11
-99.938
 21
-220.251
  0
LINE
  8
0
 10
-99.938
 20
-220.251
 11
-99.6909
 21
-220.271
  0
LINE
  8
0
 10
-99.6909
 20
-220.271
 11
-99.4476
 21
-220.319
  0
LINE
  8
0
 10
-99.4476
 20
-220.319
 11
-99.2111
 21
-220.393
  0
LINE
  8
0
 10
-99.2111
 20
-220.393
 11
-98.984
 21
-220.492
  0
LINE
  8
0
 10
-98.984
 20
-220.492
 11
-98.7694
 21
-220.616
  0
LINE
  8
0
 10
-98.7694
 20
-220.616
 11
-98.5696
 21
-220.763
  0
LINE
  8
0
 10
-98.5696
 20
-220.763
 11
-98.3872
 21
-220.931
  0
LINE
  8
0
 10
-98.3872
 20
-220.931
 11
-98.2244
 21
-221.118
  0
LINE
  8
0
 10
-98.2244
 20
-221.118
 11
-98.0832
 21
-221.322
  0
LINE
  8
0
 10
-98.0832
 20
-221.322
 11
-97.9652
 21
-221.54
  0
LINE
  8
0
 10
-97.9652
 20
-221.54
 11
-97.8719
 21
-221.769
  0
LINE
  8
0
 10
-97.8719
 20
-221.769
 11
-97.8045
 21
-222.008
  0
LINE
  8
0
 10
-97.8045
 20
-222.008
 11
-97.7637
 21
-222.252
  0
LINE
  8
0
 10
-97.7637
 20
-222.252
 11
-97.75
 21
-222.5
  0
LINE
  8
0
 10
-97.75
 20
-222.5
 11
-97.7637
 21
-222.748
  0
LINE
  8
0
 10
-97.7637
 20
-222.748
 11
-97.8045
 21
-222.992
  0
LINE
  8
0
 10
-97.8045
 20
-222.992
 11
-97.8719
 21
-223.231
  0
LINE
  8
0
 10
-97.8719
 20
-223.231
 11
-97.9652
 21
-223.46
  0
LINE
  8
0
 10
-97.9652
 20
-223.46
 11
-98.0832
 21
-223.678
  0
LINE
  8
0
 10
-98.0832
 20
-223.678
 11
-98.2244
 21
-223.882
  0
LINE
  8
0
 10
-98.2244
 20
-223.882
 11
-98.3872
 21
-224.069
  0
LINE
  8
0
 10
-98.3872
 20
-224.069
 11
-98.5696
 21
-224.237
  0
LINE
  8
0
 10
-98.5696
 20
-224.237
 11
-98.7694
 21
-224.384
  0
LINE
  8
0
 10
-98.7694
 20
-224.384
 11
-98.984
 21
-224.508
  0
LINE
  8
0
 10
-98.984
 20
-224.508
 11
-99.2111
 21
-224.607
  0
LINE
  8
0
 10
-99.2111
 20
-224.607
 11
-99.4476
 21
-224.681
  0
LINE
  8
0
 10
-99.4476
 20
-224.681
 11
-99.6909
 21
-224.729
  0
LINE
  8
0
 10
-99.6909
 20
-224.729
 11
-99.938
 21
-224.749
  0
LINE
  8
0
 10
-99.938
 20
-224.749
 11
-100.186
 21
-224.742
  0
LINE
  8
0
 10
99.8142
 20
-224.742
 11
99.5686
 21
-224.708
  0
LINE
  8
0
 10
99.5686
 20
-224.708
 11
99.3283
 21
-224.647
  0
LINE
  8
0
 10
99.3283
 20
-224.647
 11
99.0962
 21
-224.56
  0
LINE
  8
0
 10
99.0962
 20
-224.56
 11
98.875
 21
-224.449
  0
LINE
  8
0
 10
98.875
 20
-224.449
 11
98.6675
 21
-224.313
  0
LINE
  8
0
 10
98.6675
 20
-224.313
 11
98.4761
 21
-224.155
  0
LINE
  8
0
 10
98.4761
 20
-224.155
 11
98.3033
 21
-223.978
  0
LINE
  8
0
 10
98.3033
 20
-223.978
 11
98.151
 21
-223.782
  0
LINE
  8
0
 10
98.151
 20
-223.782
 11
98.0212
 21
-223.571
  0
LINE
  8
0
 10
98.0212
 20
-223.571
 11
97.9154
 21
-223.347
  0
LINE
  8
0
 10
97.9154
 20
-223.347
 11
97.8349
 21
-223.112
  0
LINE
  8
0
 10
97.8349
 20
-223.112
 11
97.7807
 21
-222.87
  0
LINE
  8
0
 10
97.7807
 20
-222.87
 11
97.7534
 21
-222.624
  0
LINE
  8
0
 10
97.7534
 20
-222.624
 11
97.7534
 21
-222.376
  0
LINE
  8
0
 10
97.7534
 20
-222.376
 11
97.7807
 21
-222.13
  0
LINE
  8
0
 10
97.7807
 20
-222.13
 11
97.8349
 21
-221.888
  0
LINE
  8
0
 10
97.8349
 20
-221.888
 11
97.9154
 21
-221.653
  0
LINE
  8
0
 10
97.9154
 20
-221.653
 11
98.0212
 21
-221.429
  0
LINE
  8
0
 10
98.0212
 20
-221.429
 11
98.151
 21
-221.218
  0
LINE
  8
0
 10
98.151
 20
-221.218
 11
98.3033
 21
-221.022
  0
LINE
  8
0
 10
98.3033
 20
-221.022
 11
98.4761
 21
-220.845
  0
LINE
  8
0
 10
98.4761
 20
-220.845
 11
98.6675
 21
-220.687
  0
LINE
  8
0
 10
98.6675
 20
-220.687
 11
98.875
 21
-220.551
  0
LINE
  8
0
 10
98.875
 20
-220.551
 11
99.0962
 21
-220.44
  0
LINE
  8
0
 10
99.0962
 20
-220.44
 11
99.3283
 21
-220.353
  0
LINE
  8
0
 10
99.3283
 20
-220.353
 11
99.5686
 21
-220.292
  0
LINE
  8
0
 10
99.5686
 20
-220.292
 11
99.8142
 21
-220.258
  0
LINE
  8
0
 10
99.8142
 20
-220.258
 11
100.062
 21
-220.251
  0
LINE
  8
0
 10
100.062
 20
-220.251
 11
100.309
 21
-220.271
  0
LINE
  8
0
 10
100.309
 20
-220.271
 11
100.552
 21
-220.319
  0
LINE
  8
0
 10
100.552
 20
-220.319
 11
100.789
 21
-220.393
  0
LINE
  8
0
 10
100.789
 20
-220.393
 11
101.016
 21
-220.492
  0
LINE
  8
0
 10
101.016
 20
-220.492
 11
101.231
 21
-220.616
  0
LINE
  8
0
 10
101.231
 20
-220.616
 11
101.43
 21
-220.763
  0
LINE
  8
0
 10
101.43
 20
-220.763
 11
101.613
 21
-220.931
  0
LINE
  8
0
 10
101.613
 20
-220.931
 11
101.776
 21
-221.118
  0
LINE
  8
0
 10
101.776
 20
-221.118
 11
101.917
 21
-221.322
  0
LINE
  8
0
 10
101.917
 20
-221.322
 11
102.035
 21
-221.54
  0
LINE
  8
0
 10
102.035
 20
-221.54
 11
102.128
 21
-221.769
  0
LINE
  8
0
 10
102.128
 20
-221.769
 11
102.196
 21
-222.008
  0
LINE
  8
0
 10
102.196
 20
-222.008
 11
102.236
 21
-222.252
  0
LINE
  8
0
 10
102.236
 20
-222.252
 11
102.25
 21
-222.5
  0
LINE
  8
0
 10
102.25
 20
-222.5
 11
102.236
 21
-222.748
  0
LINE
  8
0
 10
102.236
 20
-222.748
 11
102.196
 21
-222.992
  0
LINE
  8
0
 10
102.196
 20
-222.992
 11
102.128
 21
-223.231
  0
LINE
  8
0
 10
102.128
 20
-223.231
 11
102.035
 21
-223.46
  0
LINE
  8
0
 10
102.035
 20
-223.46
 11
101.917
 21
-223.678
  0
LINE
  8
0
 10
101.917
 20
-223.678
 11
101.776
 21
-223.882
  0
LINE
  8
0
 10
101.776
 20
-223.882
 11
101.613
 21
-224.069
  0
LINE
  8
0
 10
101.613
 20
-224.069
 11
101.43
 21
-224.237
  0
LINE
  8
0
 10
101.43
 20
-224.237
 11
101.231
 21
-224.384
  0
LINE
  8
0
 10
101.231
 20
-224.384
 11
101.016
 21
-224.508
  0
LINE
  8
0
 10
101.016
 20
-224.508
 11
100.789
 21
-224.607
  0
LINE
  8
0
 10
100.789
 20
-224.607
 11
100.552
 21
-224.681
  0
LINE
  8
0
 10
100.552
 20
-224.681
 11
100.309
 21
-224.729
  0
LINE
  8
0
 10
100.309
 20
-224.729
 11
100.062
 21
-224.749
  0
LINE
  8
0
 10
100.062
 20
-224.749
 11
99.8142
 21
-224.742
  0
LINE
  8
0
 10
199.814
 20
-224.742
 11
199.569
 21
-224.708
  0
LINE
  8
0
 10
199.569
 20
-224.708
 11
199.328
 21
-224.647
  0
LINE
  8
0
 10
199.328
 20
-224.647
 11
199.096
 21
-224.56
  0
LINE
  8
0
 10
199.096
 20
-224.56
 11
198.875
 21
-224.449
  0
LINE
  8
0
 10
198.875
 20
-224.449
 11
198.667
 21
-224.313
  0
LINE
  8
0
 10
198.667
 20
-224.313
 11
198.476
 21
-224.155
  0
LINE
  8
0
 10
198.476
 20
-224.155
 11
198.303
 21
-223.978
  0
LINE
  8
0
 10
198.303
 20
-223.978
 11
198.151
 21
-223.782
  0
LINE
  8
0
 10
198.151
 20
-223.782
 11
198.021
 21
-223.571
  0
LINE
  8
0
 10
198.021
 20
-223.571
 11
197.915
 21
-223.347
  0
LINE
  8
0
 10
197.915
 20
-223.347
 11
197.835
 21
-223.112
  0
LINE
  8
0
 10
197.835
 20
-223.112
 11
197.781
 21
-222.87
  0
LINE
  8
0
 10
197.781
 20
-222.87
 11
197.753
 21
-222.624
  0
LINE
  8
0
 10
197.753
 20
-222.624
 11
197.753
 21
-222.376
  0
LINE
  8
0
 10
197.753
 20
-222.376
 11
197.781
 21
-222.13
  0
LINE
  8
0
 10
197.781
 20
-222.13
 11
197.835
 21
-221.888
  0
LINE
  8
0
 10
197.835
 20
-221.888
 11
197.915
 21
-221.653
  0
LINE
  8
0
 10
197.915
 20
-221.653
 11
198.021
 21
-221.429
  0
LINE
  8
0
 10
198.021
 20
-221.429
 11
198.151
 21
-221.218
  0
LINE
  8
0
 10
198.151
 20
-221.218
 11
198.303
 21
-221.022
  0
LINE
  8
0
 10
198.303
 20
-221.022
 11
198.476
 21
-220.845
  0
LINE
  8
0
 10
198.476
 20
-220.845
 11
198.667
 21
-220.687
  0
LINE
  8
0
 10
198.667
 20
-220.687
 11
198.875
 21
-220.551
  0
LINE
  8
0
 10
198.875
 20
-220.551
 11
199.096
 21
-220.44
  0
LINE
  8
0
 10
199.096
 20
-220.44
 11
199.328
 21
-220.353
  0
LINE
  8
0
 10
199.328
 20
-220.353
 11
199.569
 21
-220.292
  0
LINE
  8
0
 10
199.569
 20
-220.292
 11
199.814
 21
-220.258
  0
LINE
  8
0
 10
199.814
 20
-220.258
 11
200.062
 21
-220.251
  0
LINE
  8
0
 10
200.062
 20
-220.251
 11
200.309
 21
-220.271
  0
LINE
  8
0
 10
200.309
 20
-220.271
 11
200.552
 21
-220.319
  0
LINE
  8
0
 10
200.552
 20
-220.319
 11
200.789
 21
-220.393
  0
LINE
  8
0
 10
200.789
 20
-220.393
 11
201.016
 21
-220.492
  0
LINE
  8
0
 10
201.016
 20
-220.492
 11
201.231
 21
-220.616
  0
LINE
  8
0
 10
201.231
 20
-220.616
 11
201.43
 21
-220.763
  0
LINE
  8
0
 10
201.43
 20
-220.763
 11
201.613
 21
-220.931
  0
LINE
  8
0
 10
201.613
 20
-220.931
 11
201.776
 21
-221.118
  0
LINE
  8
0
 10
201.776
 20
-221.118
 11
201.917
 21
-221.322
  0
LINE
  8
0
 10
201.917
 20
-221.322
 11
202.035
 21
-221.54
  0
LINE
  8
0
 10
202.035
 20
-221.54
 11
202.128
 21
-221.769
  0
LINE
  8
0
 10
202.128
 20
-221.769
 11
202.196
 21
-222.008
  0
LINE
  8
0
 10
202.196
 20
-222.008
 11
202.236
 21
-222.252
  0
LINE
  8
0
 10
202.236
 20
-222.252
 11
202.25
 21
-222.5
  0
LINE
  8
0
 10
202.25
 20
-222.5
 11
202.236
 21
-222.748
  0
LINE
  8
0
 10
202.236
 20
-222.748
 11
202.196
 21
-222.992
  0
LINE
  8
0
 10
202.196
 20
-222.992
 11
202.128
 21
-223.231
  0
LINE
  8
0
 10
202.128
 20
-223.231
 11
202.035
 21
-223.46
  0
LINE
  8
0
 10
202.035
 20
-223.46
 11
201.917
 21
-223.678
  0
LINE
  8
0
 10
201.917
 20
-223.678
 11
201.776
 21
-223.882
  0
LINE
  8
0
 10
201.776
 20
-223.882
 11
201.613
 21
-224.069
  0
LINE
  8
0
 10
201.613
 20
-224.069
 11
201.43
 21
-224.237
  0
LINE
  8
0
 10
201.43
 20
-224.237
 11
201.231
 21
-224.384
  0
LINE
  8
0
 10
201.231
 20
-224.384
 11
201.016
 21
-224.508
  0
LINE
  8
0
 10
201.016
 20
-224.508
 11
200.789
 21
-224.607
  0
LINE
  8
0
 10
200.789
 20
-224.607
 11
200.552
 21
-224.681
  0
LINE
  8
0
 10
200.552
 20
-224.681
 11
200.309
 21
-224.729
  0
LINE
  8
0
 10
200.309
 20
-224.729
 11
200.062
 21
-224.749
  0
LINE
  8
0
 10
200.062
 20
-224.749
 11
199.814
 21
-224.742
  0
LINE
  8
0
 10
-0.185791
 20
-224.742
 11
-0.431335
 21
-224.708
  0
LINE
  8
0
 10
-0.431335
 20
-224.708
 11
-0.671646
 21
-224.647
  0
LINE
  8
0
 10
-0.671646
 20
-224.647
 11
-0.903809
 21
-224.56
  0
LINE
  8
0
 10
-0.903809
 20
-224.56
 11
-1.125
 21
-224.449
  0
LINE
  8
0
 10
-1.125
 20
-224.449
 11
-1.33252
 21
-224.313
  0
LINE
  8
0
 10
-1.33252
 20
-224.313
 11
-1.52388
 21
-224.155
  0
LINE
  8
0
 10
-1.52388
 20
-224.155
 11
-1.69673
 21
-223.978
  0
LINE
  8
0
 10
-1.69673
 20
-223.978
 11
-1.849
 21
-223.782
  0
LINE
  8
0
 10
-1.849
 20
-223.782
 11
-1.97881
 21
-223.571
  0
LINE
  8
0
 10
-1.97881
 20
-223.571
 11
-2.08461
 21
-223.347
  0
LINE
  8
0
 10
-2.08461
 20
-223.347
 11
-2.1651
 21
-223.112
  0
LINE
  8
0
 10
-2.1651
 20
-223.112
 11
-2.2193
 21
-222.87
  0
LINE
  8
0
 10
-2.2193
 20
-222.87
 11
-2.24658
 21
-222.624
  0
LINE
  8
0
 10
-2.24658
 20
-222.624
 11
-2.24658
 21
-222.376
  0
LINE
  8
0
 10
-2.24658
 20
-222.376
 11
-2.2193
 21
-222.13
  0
LINE
  8
0
 10
-2.2193
 20
-222.13
 11
-2.1651
 21
-221.888
  0
LINE
  8
0
 10
-2.1651
 20
-221.888
 11
-2.08461
 21
-221.653
  0
LINE
  8
0
 10
-2.08461
 20
-221.653
 11
-1.97881
 21
-221.429
  0
LINE
  8
0
 10
-1.97881
 20
-221.429
 11
-1.849
 21
-221.218
  0
LINE
  8
0
 10
-1.849
 20
-221.218
 11
-1.69673
 21
-221.022
  0
LINE
  8
0
 10
-1.69673
 20
-221.022
 11
-1.52388
 21
-220.845
  0
LINE
  8
0
 10
-1.52388
 20
-220.845
 11
-1.33252
 21
-220.687
  0
LINE
  8
0
 10
-1.33252
 20
-220.687
 11
-1.125
 21
-220.551
  0
LINE
  8
0
 10
-1.125
 20
-220.551
 11
-0.903809
 21
-220.44
  0
LINE
  8
0
 10
-0.903809
 20
-220.44
 11
-0.671646
 21
-220.353
  0
LINE
  8
0
 10
-0.671646
 20
-220.353
 11
-0.431335
 21
-220.292
  0
LINE
  8
0
 10
-0.431335
 20
-220.292
 11
-0.185791
 21
-220.258
  0
LINE
  8
0
 10
-0.185791
 20
-220.258
 11
0.0619965
 21
-220.251
  0
LINE
  8
0
 10
0.0619965
 20
-220.251
 11
0.309036
 21
-220.271
  0
LINE
  8
0
 10
0.309036
 20
-220.271
 11
0.552338
 21
-220.319
  0
LINE
  8
0
 10
0.552338
 20
-220.319
 11
0.788925
 21
-220.393
  0
LINE
  8
0
 10
0.788925
 20
-220.393
 11
1.01595
 21
-220.492
  0
LINE
  8
0
 10
1.01595
 20
-220.492
 11
1.23062
 21
-220.616
  0
LINE
  8
0
 10
1.23062
 20
-220.616
 11
1.43037
 21
-220.763
  0
LINE
  8
0
 10
1.43037
 20
-220.763
 11
1.61275
 21
-220.931
  0
LINE
  8
0
 10
1.61275
 20
-220.931
 11
1.77556
 21
-221.118
  0
LINE
  8
0
 10
1.77556
 20
-221.118
 11
1.91681
 21
-221.322
  0
LINE
  8
0
 10
1.91681
 20
-221.322
 11
2.03479
 21
-221.54
  0
LINE
  8
0
 10
2.03479
 20
-221.54
 11
2.12808
 21
-221.769
  0
LINE
  8
0
 10
2.12808
 20
-221.769
 11
2.19554
 21
-222.008
  0
LINE
  8
0
 10
2.19554
 20
-222.008
 11
2.23634
 21
-222.252
  0
LINE
  8
0
 10
2.23634
 20
-222.252
 11
2.25
 21
-222.5
  0
LINE
  8
0
 10
2.25
 20
-222.5
 11
2.23634
 21
-222.748
  0
LINE
  8
0
 10
2.23634
 20
-222.748
 11
2.19554
 21
-222.992
  0
LINE
  8
0
 10
2.19554
 20
-222.992
 11
2.12808
 21
-223.231
  0
LINE
  8
0
 10
2.12808
 20
-223.231
 11
2.03479
 21
-223.46
  0
LINE
  8
0
 10
2.03479
 20
-223.46
 11
1.91681
 21
-223.678
  0
LINE
  8
0
 10
1.91681
 20
-223.678
 11
1.77556
 21
-223.882
  0
LINE
  8
0
 10
1.77556
 20
-223.882
 11
1.61275
 21
-224.069
  0
LINE
  8
0
 10
1.61275
 20
-224.069
 11
1.43037
 21
-224.237
  0
LINE
  8
0
 10
1.43037
 20
-224.237
 11
1.23062
 21
-224.384
  0
LINE
  8
0
 10
1.23062
 20
-224.384
 11
1.01595
 21
-224.508
  0
LINE
  8
0
 10
1.01595
 20
-224.508
 11
0.788925
 21
-224.607
  0
LINE
  8
0
 10
0.788925
 20
-224.607
 11
0.552338
 21
-224.681
  0
LINE
  8
0
 10
0.552338
 20
-224.681
 11
0.309036
 21
-224.729
  0
LINE
  8
0
 10
0.309036
 20
-224.729
 11
0.0619965
 21
-224.749
  0
LINE
  8
0
 10
0.0619965
 20
-224.749
 11
-0.185791
 21
-224.742
  0
ENDSEC
  0
SECTION
  2
OBJECTS
  0
DICTIONARY
  0
ENDSEC
  0
EOF
