  0
SECTION
  2
BLOCKS
  0
ENDSEC
  0
SECTION
  2
ENTITIES
  0
LINE
  8
0
 10
227.898
 20
-227.348
 11
228.415
 21
-227.266
  0
LINE
  8
0
 10
228.415
 20
-227.266
 11
228.92
 21
-227.13
  0
LINE
  8
0
 10
228.92
 20
-227.13
 11
229.409
 21
-226.943
  0
LINE
  8
0
 10
229.409
 20
-226.943
 11
229.875
 21
-226.705
  0
LINE
  8
0
 10
229.875
 20
-226.705
 11
230.314
 21
-226.42
  0
LINE
  8
0
 10
230.314
 20
-226.42
 11
230.721
 21
-226.091
  0
LINE
  8
0
 10
230.721
 20
-226.091
 11
231.091
 21
-225.721
  0
LINE
  8
0
 10
231.091
 20
-225.721
 11
231.42
 21
-225.314
  0
LINE
  8
0
 10
231.42
 20
-225.314
 11
231.705
 21
-224.875
  0
LINE
  8
0
 10
231.705
 20
-224.875
 11
231.943
 21
-224.409
  0
LINE
  8
0
 10
231.943
 20
-224.409
 11
232.13
 21
-223.92
  0
LINE
  8
0
 10
232.13
 20
-223.92
 11
232.266
 21
-223.415
  0
LINE
  8
0
 10
232.266
 20
-223.415
 11
232.348
 21
-222.898
  0
LINE
  8
0
 10
232.348
 20
-222.898
 11
232.375
 21
-222.375
  0
LINE
  8
0
 10
232.375
 20
-222.375
 11
232.375
 21
222.375
  0
LINE
  8
0
 10
232.375
 20
222.375
 11
232.348
 21
222.898
  0
LINE
  8
0
 10
232.348
 20
222.898
 11
232.266
 21
223.415
  0
LINE
  8
0
 10
232.266
 20
223.415
 11
232.13
 21
223.92
  0
LINE
  8
0
 10
232.13
 20
223.92
 11
231.943
 21
224.409
  0
LINE
  8
0
 10
231.943
 20
224.409
 11
231.705
 21
224.875
  0
LINE
  8
0
 10
231.705
 20
224.875
 11
231.42
 21
225.314
  0
LINE
  8
0
 10
231.42
 20
225.314
 11
231.091
 21
225.721
  0
LINE
  8
0
 10
231.091
 20
225.721
 11
230.721
 21
226.091
  0
LINE
  8
0
 10
230.721
 20
226.091
 11
230.314
 21
226.42
  0
LINE
  8
0
 10
230.314
 20
226.42
 11
229.875
 21
226.705
  0
LINE
  8
0
 10
229.875
 20
226.705
 11
229.409
 21
226.943
  0
LINE
  8
0
 10
229.409
 20
226.943
 11
228.92
 21
227.13
  0
LINE
  8
0
 10
228.92
 20
227.13
 11
228.415
 21
227.266
  0
LINE
  8
0
 10
228.415
 20
227.266
 11
227.898
 21
227.348
  0
LINE
  8
0
 10
227.898
 20
227.348
 11
227.375
 21
227.375
  0
LINE
  8
0
 10
227.375
 20
227.375
 11
-227.375
 21
227.375
  0
LINE
  8
0
 10
-227.375
 20
227.375
 11
-227.898
 21
227.348
  0
LINE
  8
0
 10
-227.898
 20
227.348
 11
-228.415
 21
227.266
  0
LINE
  8
0
 10
-228.415
 20
227.266
 11
-228.92
 21
227.13
  0
LINE
  8
0
 10
-228.92
 20
227.13
 11
-229.409
 21
226.943
  0
LINE
  8
0
 10
-229.409
 20
226.943
 11
-229.875
 21
226.705
  0
LINE
  8
0
 10
-229.875
 20
226.705
 11
-230.314
 21
226.42
  0
LINE
  8
0
 10
-230.314
 20
226.42
 11
-230.721
 21
226.091
  0
LINE
  8
0
 10
-230.721
 20
226.091
 11
-231.091
 21
225.721
  0
LINE
  8
0
 10
-231.091
 20
225.721
 11
-231.42
 21
225.314
  0
LINE
  8
0
 10
-231.42
 20
225.314
 11
-231.705
 21
224.875
  0
LINE
  8
0
 10
-231.705
 20
224.875
 11
-231.943
 21
224.409
  0
LINE
  8
0
 10
-231.943
 20
224.409
 11
-232.13
 21
223.92
  0
LINE
  8
0
 10
-232.13
 20
223.92
 11
-232.266
 21
223.415
  0
LINE
  8
0
 10
-232.266
 20
223.415
 11
-232.348
 21
222.898
  0
LINE
  8
0
 10
-232.348
 20
222.898
 11
-232.375
 21
222.375
  0
LINE
  8
0
 10
-232.375
 20
222.375
 11
-232.375
 21
-222.375
  0
LINE
  8
0
 10
-232.375
 20
-222.375
 11
-232.348
 21
-222.898
  0
LINE
  8
0
 10
-232.348
 20
-222.898
 11
-232.266
 21
-223.415
  0
LINE
  8
0
 10
-232.266
 20
-223.415
 11
-232.13
 21
-223.92
  0
LINE
  8
0
 10
-232.13
 20
-223.92
 11
-231.943
 21
-224.409
  0
LINE
  8
0
 10
-231.943
 20
-224.409
 11
-231.705
 21
-224.875
  0
LINE
  8
0
 10
-231.705
 20
-224.875
 11
-231.42
 21
-225.314
  0
LINE
  8
0
 10
-231.42
 20
-225.314
 11
-231.091
 21
-225.721
  0
LINE
  8
0
 10
-231.091
 20
-225.721
 11
-230.721
 21
-226.091
  0
LINE
  8
0
 10
-230.721
 20
-226.091
 11
-230.314
 21
-226.42
  0
LINE
  8
0
 10
-230.314
 20
-226.42
 11
-229.875
 21
-226.705
  0
LINE
  8
0
 10
-229.875
 20
-226.705
 11
-229.409
 21
-226.943
  0
LINE
  8
0
 10
-229.409
 20
-226.943
 11
-228.92
 21
-227.13
  0
LINE
  8
0
 10
-228.92
 20
-227.13
 11
-228.415
 21
-227.266
  0
LINE
  8
0
 10
-228.415
 20
-227.266
 11
-227.898
 21
-227.348
  0
LINE
  8
0
 10
-227.898
 20
-227.348
 11
-227.375
 21
-227.375
  0
LINE
  8
0
 10
-227.375
 20
-227.375
 11
227.375
 21
-227.375
  0
LINE
  8
0
 10
227.375
 20
-227.375
 11
227.898
 21
-227.348
  0
LINE
  8
0
 10
221.977
 20
212.527
 11
221.46
 21
212.609
  0
LINE
  8
0
 10
221.46
 20
212.609
 11
220.955
 21
212.745
  0
LINE
  8
0
 10
220.955
 20
212.745
 11
220.466
 21
212.932
  0
LINE
  8
0
 10
220.466
 20
212.932
 11
220
 21
213.17
  0
LINE
  8
0
 10
220
 20
213.17
 11
219.561
 21
213.455
  0
LINE
  8
0
 10
219.561
 20
213.455
 11
219.154
 21
213.784
  0
LINE
  8
0
 10
219.154
 20
213.784
 11
218.784
 21
214.154
  0
LINE
  8
0
 10
218.784
 20
214.154
 11
218.455
 21
214.561
  0
LINE
  8
0
 10
218.455
 20
214.561
 11
218.17
 21
215
  0
LINE
  8
0
 10
218.17
 20
215
 11
217.932
 21
215.466
  0
LINE
  8
0
 10
217.932
 20
215.466
 11
217.745
 21
215.955
  0
LINE
  8
0
 10
217.745
 20
215.955
 11
217.609
 21
216.46
  0
LINE
  8
0
 10
217.609
 20
216.46
 11
217.527
 21
216.977
  0
LINE
  8
0
 10
217.527
 20
216.977
 11
217.5
 21
217.5
  0
LINE
  8
0
 10
217.5
 20
217.5
 11
217.527
 21
218.023
  0
LINE
  8
0
 10
217.527
 20
218.023
 11
217.609
 21
218.54
  0
LINE
  8
0
 10
217.609
 20
218.54
 11
217.745
 21
219.045
  0
LINE
  8
0
 10
217.745
 20
219.045
 11
217.932
 21
219.534
  0
LINE
  8
0
 10
217.932
 20
219.534
 11
218.17
 21
220
  0
LINE
  8
0
 10
218.17
 20
220
 11
218.455
 21
220.439
  0
LINE
  8
0
 10
218.455
 20
220.439
 11
218.784
 21
220.846
  0
LINE
  8
0
 10
218.784
 20
220.846
 11
219.154
 21
221.216
  0
LINE
  8
0
 10
219.154
 20
221.216
 11
219.561
 21
221.545
  0
LINE
  8
0
 10
219.561
 20
221.545
 11
220
 21
221.83
  0
LINE
  8
0
 10
220
 20
221.83
 11
220.466
 21
222.068
  0
LINE
  8
0
 10
220.466
 20
222.068
 11
220.955
 21
222.255
  0
LINE
  8
0
 10
220.955
 20
222.255
 11
221.46
 21
222.391
  0
LINE
  8
0
 10
221.46
 20
222.391
 11
221.977
 21
222.473
  0
LINE
  8
0
 10
221.977
 20
222.473
 11
222.5
 21
222.5
  0
LINE
  8
0
 10
222.5
 20
222.5
 11
223.023
 21
222.473
  0
LINE
  8
0
 10
223.023
 20
222.473
 11
223.54
 21
222.391
  0
LINE
  8
0
 10
223.54
 20
222.391
 11
224.045
 21
222.255
  0
LINE
  8
0
 10
224.045
 20
222.255
 11
224.534
 21
222.068
  0
LINE
  8
0
 10
224.534
 20
222.068
 11
225
 21
221.83
  0
LINE
  8
0
 10
225
 20
221.83
 11
225.439
 21
221.545
  0
LINE
  8
0
 10
225.439
 20
221.545
 11
225.846
 21
221.216
  0
LINE
  8
0
 10
225.846
 20
221.216
 11
226.216
 21
220.846
  0
LINE
  8
0
 10
226.216
 20
220.846
 11
226.545
 21
220.439
  0
LINE
  8
0
 10
226.545
 20
220.439
 11
226.83
 21
220
  0
LINE
  8
0
 10
226.83
 20
220
 11
227.068
 21
219.534
  0
LINE
  8
0
 10
227.068
 20
219.534
 11
227.255
 21
219.045
  0
LINE
  8
0
 10
227.255
 20
219.045
 11
227.391
 21
218.54
  0
LINE
  8
0
 10
227.391
 20
218.54
 11
227.473
 21
218.023
  0
LINE
  8
0
 10
227.473
 20
218.023
 11
227.5
 21
217.5
  0
LINE
  8
0
 10
227.5
 20
217.5
 11
227.473
 21
216.977
  0
LINE
  8
0
 10
227.473
 20
216.977
 11
227.391
 21
216.46
  0
LINE
  8
0
 10
227.391
 20
216.46
 11
227.255
 21
215.955
  0
LINE
  8
0
 10
227.255
 20
215.955
 11
227.068
 21
215.466
  0
LINE
  8
0
 10
227.068
 20
215.466
 11
226.83
 21
215
  0
LINE
  8
0
 10
226.83
 20
215
 11
226.545
 21
214.561
  0
LINE
  8
0
 10
226.545
 20
214.561
 11
226.216
 21
214.154
  0
LINE
  8
0
 10
226.216
 20
214.154
 11
225.846
 21
213.784
  0
LINE
  8
0
 10
225.846
 20
213.784
 11
225.439
 21
213.455
  0
LINE
  8
0
 10
225.439
 20
213.455
 11
225
 21
213.17
  0
LINE
  8
0
 10
225
 20
213.17
 11
224.534
 21
212.932
  0
LINE
  8
0
 10
224.534
 20
212.932
 11
224.045
 21
212.745
  0
LINE
  8
0
 10
224.045
 20
212.745
 11
223.54
 21
212.609
  0
LINE
  8
0
 10
223.54
 20
212.609
 11
223.023
 21
212.527
  0
LINE
  8
0
 10
223.023
 20
212.527
 11
222.5
 21
212.5
  0
LINE
  8
0
 10
222.5
 20
212.5
 11
221.977
 21
212.527
  0
LINE
  8
0
 10
-223.023
 20
212.527
 11
-223.54
 21
212.609
  0
LINE
  8
0
 10
-223.54
 20
212.609
 11
-224.045
 21
212.745
  0
LINE
  8
0
 10
-224.045
 20
212.745
 11
-224.534
 21
212.932
  0
LINE
  8
0
 10
-224.534
 20
212.932
 11
-225
 21
213.17
  0
LINE
  8
0
 10
-225
 20
213.17
 11
-225.439
 21
213.455
  0
LINE
  8
0
 10
-225.439
 20
213.455
 11
-225.846
 21
213.784
  0
LINE
  8
0
 10
-225.846
 20
213.784
 11
-226.216
 21
214.154
  0
LINE
  8
0
 10
-226.216
 20
214.154
 11
-226.545
 21
214.561
  0
LINE
  8
0
 10
-226.545
 20
214.561
 11
-226.83
 21
215
  0
LINE
  8
0
 10
-226.83
 20
215
 11
-227.068
 21
215.466
  0
LINE
  8
0
 10
-227.068
 20
215.466
 11
-227.255
 21
215.955
  0
LINE
  8
0
 10
-227.255
 20
215.955
 11
-227.391
 21
216.46
  0
LINE
  8
0
 10
-227.391
 20
216.46
 11
-227.473
 21
216.977
  0
LINE
  8
0
 10
-227.473
 20
216.977
 11
-227.5
 21
217.5
  0
LINE
  8
0
 10
-227.5
 20
217.5
 11
-227.473
 21
218.023
  0
LINE
  8
0
 10
-227.473
 20
218.023
 11
-227.391
 21
218.54
  0
LINE
  8
0
 10
-227.391
 20
218.54
 11
-227.255
 21
219.045
  0
LINE
  8
0
 10
-227.255
 20
219.045
 11
-227.068
 21
219.534
  0
LINE
  8
0
 10
-227.068
 20
219.534
 11
-226.83
 21
220
  0
LINE
  8
0
 10
-226.83
 20
220
 11
-226.545
 21
220.439
  0
LINE
  8
0
 10
-226.545
 20
220.439
 11
-226.216
 21
220.846
  0
LINE
  8
0
 10
-226.216
 20
220.846
 11
-225.846
 21
221.216
  0
LINE
  8
0
 10
-225.846
 20
221.216
 11
-225.439
 21
221.545
  0
LINE
  8
0
 10
-225.439
 20
221.545
 11
-225
 21
221.83
  0
LINE
  8
0
 10
-225
 20
221.83
 11
-224.534
 21
222.068
  0
LINE
  8
0
 10
-224.534
 20
222.068
 11
-224.045
 21
222.255
  0
LINE
  8
0
 10
-224.045
 20
222.255
 11
-223.54
 21
222.391
  0
LINE
  8
0
 10
-223.54
 20
222.391
 11
-223.023
 21
222.473
  0
LINE
  8
0
 10
-223.023
 20
222.473
 11
-222.5
 21
222.5
  0
LINE
  8
0
 10
-222.5
 20
222.5
 11
-221.977
 21
222.473
  0
LINE
  8
0
 10
-221.977
 20
222.473
 11
-221.46
 21
222.391
  0
LINE
  8
0
 10
-221.46
 20
222.391
 11
-220.955
 21
222.255
  0
LINE
  8
0
 10
-220.955
 20
222.255
 11
-220.466
 21
222.068
  0
LINE
  8
0
 10
-220.466
 20
222.068
 11
-220
 21
221.83
  0
LINE
  8
0
 10
-220
 20
221.83
 11
-219.561
 21
221.545
  0
LINE
  8
0
 10
-219.561
 20
221.545
 11
-219.154
 21
221.216
  0
LINE
  8
0
 10
-219.154
 20
221.216
 11
-218.784
 21
220.846
  0
LINE
  8
0
 10
-218.784
 20
220.846
 11
-218.455
 21
220.439
  0
LINE
  8
0
 10
-218.455
 20
220.439
 11
-218.17
 21
220
  0
LINE
  8
0
 10
-218.17
 20
220
 11
-217.932
 21
219.534
  0
LINE
  8
0
 10
-217.932
 20
219.534
 11
-217.745
 21
219.045
  0
LINE
  8
0
 10
-217.745
 20
219.045
 11
-217.609
 21
218.54
  0
LINE
  8
0
 10
-217.609
 20
218.54
 11
-217.527
 21
218.023
  0
LINE
  8
0
 10
-217.527
 20
218.023
 11
-217.5
 21
217.5
  0
LINE
  8
0
 10
-217.5
 20
217.5
 11
-217.527
 21
216.977
  0
LINE
  8
0
 10
-217.527
 20
216.977
 11
-217.609
 21
216.46
  0
LINE
  8
0
 10
-217.609
 20
216.46
 11
-217.745
 21
215.955
  0
LINE
  8
0
 10
-217.745
 20
215.955
 11
-217.932
 21
215.466
  0
LINE
  8
0
 10
-217.932
 20
215.466
 11
-218.17
 21
215
  0
LINE
  8
0
 10
-218.17
 20
215
 11
-218.455
 21
214.561
  0
LINE
  8
0
 10
-218.455
 20
214.561
 11
-218.784
 21
214.154
  0
LINE
  8
0
 10
-218.784
 20
214.154
 11
-219.154
 21
213.784
  0
LINE
  8
0
 10
-219.154
 20
213.784
 11
-219.561
 21
213.455
  0
LINE
  8
0
 10
-219.561
 20
213.455
 11
-220
 21
213.17
  0
LINE
  8
0
 10
-220
 20
213.17
 11
-220.466
 21
212.932
  0
LINE
  8
0
 10
-220.466
 20
212.932
 11
-220.955
 21
212.745
  0
LINE
  8
0
 10
-220.955
 20
212.745
 11
-221.46
 21
212.609
  0
LINE
  8
0
 10
-221.46
 20
212.609
 11
-221.977
 21
212.527
  0
LINE
  8
0
 10
-221.977
 20
212.527
 11
-222.5
 21
212.5
  0
LINE
  8
0
 10
-222.5
 20
212.5
 11
-223.023
 21
212.527
  0
LINE
  8
0
 10
182.314
 20
215.258
 11
182.069
 21
215.292
  0
LINE
  8
0
 10
182.069
 20
215.292
 11
181.828
 21
215.353
  0
LINE
  8
0
 10
181.828
 20
215.353
 11
181.596
 21
215.44
  0
LINE
  8
0
 10
181.596
 20
215.44
 11
181.375
 21
215.551
  0
LINE
  8
0
 10
181.375
 20
215.551
 11
181.167
 21
215.687
  0
LINE
  8
0
 10
181.167
 20
215.687
 11
180.976
 21
215.845
  0
LINE
  8
0
 10
180.976
 20
215.845
 11
180.803
 21
216.022
  0
LINE
  8
0
 10
180.803
 20
216.022
 11
180.651
 21
216.218
  0
LINE
  8
0
 10
180.651
 20
216.218
 11
180.521
 21
216.429
  0
LINE
  8
0
 10
180.521
 20
216.429
 11
180.415
 21
216.653
  0
LINE
  8
0
 10
180.415
 20
216.653
 11
180.335
 21
216.888
  0
LINE
  8
0
 10
180.335
 20
216.888
 11
180.281
 21
217.13
  0
LINE
  8
0
 10
180.281
 20
217.13
 11
180.253
 21
217.376
  0
LINE
  8
0
 10
180.253
 20
217.376
 11
180.253
 21
217.624
  0
LINE
  8
0
 10
180.253
 20
217.624
 11
180.281
 21
217.87
  0
LINE
  8
0
 10
180.281
 20
217.87
 11
180.335
 21
218.112
  0
LINE
  8
0
 10
180.335
 20
218.112
 11
180.415
 21
218.347
  0
LINE
  8
0
 10
180.415
 20
218.347
 11
180.521
 21
218.571
  0
LINE
  8
0
 10
180.521
 20
218.571
 11
180.651
 21
218.782
  0
LINE
  8
0
 10
180.651
 20
218.782
 11
180.803
 21
218.978
  0
LINE
  8
0
 10
180.803
 20
218.978
 11
180.976
 21
219.155
  0
LINE
  8
0
 10
180.976
 20
219.155
 11
181.167
 21
219.313
  0
LINE
  8
0
 10
181.167
 20
219.313
 11
181.375
 21
219.449
  0
LINE
  8
0
 10
181.375
 20
219.449
 11
181.596
 21
219.56
  0
LINE
  8
0
 10
181.596
 20
219.56
 11
181.828
 21
219.647
  0
LINE
  8
0
 10
181.828
 20
219.647
 11
182.069
 21
219.708
  0
LINE
  8
0
 10
182.069
 20
219.708
 11
182.314
 21
219.742
  0
LINE
  8
0
 10
182.314
 20
219.742
 11
182.562
 21
219.749
  0
LINE
  8
0
 10
182.562
 20
219.749
 11
182.809
 21
219.729
  0
LINE
  8
0
 10
182.809
 20
219.729
 11
183.052
 21
219.681
  0
LINE
  8
0
 10
183.052
 20
219.681
 11
183.289
 21
219.607
  0
LINE
  8
0
 10
183.289
 20
219.607
 11
183.516
 21
219.508
  0
LINE
  8
0
 10
183.516
 20
219.508
 11
183.731
 21
219.384
  0
LINE
  8
0
 10
183.731
 20
219.384
 11
183.93
 21
219.237
  0
LINE
  8
0
 10
183.93
 20
219.237
 11
184.113
 21
219.069
  0
LINE
  8
0
 10
184.113
 20
219.069
 11
184.276
 21
218.882
  0
LINE
  8
0
 10
184.276
 20
218.882
 11
184.417
 21
218.678
  0
LINE
  8
0
 10
184.417
 20
218.678
 11
184.535
 21
218.46
  0
LINE
  8
0
 10
184.535
 20
218.46
 11
184.628
 21
218.231
  0
LINE
  8
0
 10
184.628
 20
218.231
 11
184.696
 21
217.992
  0
LINE
  8
0
 10
184.696
 20
217.992
 11
184.736
 21
217.748
  0
LINE
  8
0
 10
184.736
 20
217.748
 11
184.75
 21
217.5
  0
LINE
  8
0
 10
184.75
 20
217.5
 11
184.736
 21
217.252
  0
LINE
  8
0
 10
184.736
 20
217.252
 11
184.696
 21
217.008
  0
LINE
  8
0
 10
184.696
 20
217.008
 11
184.628
 21
216.769
  0
LINE
  8
0
 10
184.628
 20
216.769
 11
184.535
 21
216.54
  0
LINE
  8
0
 10
184.535
 20
216.54
 11
184.417
 21
216.322
  0
LINE
  8
0
 10
184.417
 20
216.322
 11
184.276
 21
216.118
  0
LINE
  8
0
 10
184.276
 20
216.118
 11
184.113
 21
215.931
  0
LINE
  8
0
 10
184.113
 20
215.931
 11
183.93
 21
215.763
  0
LINE
  8
0
 10
183.93
 20
215.763
 11
183.731
 21
215.616
  0
LINE
  8
0
 10
183.731
 20
215.616
 11
183.516
 21
215.492
  0
LINE
  8
0
 10
183.516
 20
215.492
 11
183.289
 21
215.393
  0
LINE
  8
0
 10
183.289
 20
215.393
 11
183.052
 21
215.319
  0
LINE
  8
0
 10
183.052
 20
215.319
 11
182.809
 21
215.271
  0
LINE
  8
0
 10
182.809
 20
215.271
 11
182.562
 21
215.251
  0
LINE
  8
0
 10
182.562
 20
215.251
 11
182.314
 21
215.258
  0
LINE
  8
0
 10
-0.185791
 20
215.258
 11
-0.431335
 21
215.292
  0
LINE
  8
0
 10
-0.431335
 20
215.292
 11
-0.671646
 21
215.353
  0
LINE
  8
0
 10
-0.671646
 20
215.353
 11
-0.903809
 21
215.44
  0
LINE
  8
0
 10
-0.903809
 20
215.44
 11
-1.125
 21
215.551
  0
LINE
  8
0
 10
-1.125
 20
215.551
 11
-1.33252
 21
215.687
  0
LINE
  8
0
 10
-1.33252
 20
215.687
 11
-1.52388
 21
215.845
  0
LINE
  8
0
 10
-1.52388
 20
215.845
 11
-1.69673
 21
216.022
  0
LINE
  8
0
 10
-1.69673
 20
216.022
 11
-1.849
 21
216.218
  0
LINE
  8
0
 10
-1.849
 20
216.218
 11
-1.97881
 21
216.429
  0
LINE
  8
0
 10
-1.97881
 20
216.429
 11
-2.08461
 21
216.653
  0
LINE
  8
0
 10
-2.08461
 20
216.653
 11
-2.1651
 21
216.888
  0
LINE
  8
0
 10
-2.1651
 20
216.888
 11
-2.2193
 21
217.13
  0
LINE
  8
0
 10
-2.2193
 20
217.13
 11
-2.24658
 21
217.376
  0
LINE
  8
0
 10
-2.24658
 20
217.376
 11
-2.24658
 21
217.624
  0
LINE
  8
0
 10
-2.24658
 20
217.624
 11
-2.2193
 21
217.87
  0
LINE
  8
0
 10
-2.2193
 20
217.87
 11
-2.1651
 21
218.112
  0
LINE
  8
0
 10
-2.1651
 20
218.112
 11
-2.08461
 21
218.347
  0
LINE
  8
0
 10
-2.08461
 20
218.347
 11
-1.97881
 21
218.571
  0
LINE
  8
0
 10
-1.97881
 20
218.571
 11
-1.849
 21
218.782
  0
LINE
  8
0
 10
-1.849
 20
218.782
 11
-1.69673
 21
218.978
  0
LINE
  8
0
 10
-1.69673
 20
218.978
 11
-1.52388
 21
219.155
  0
LINE
  8
0
 10
-1.52388
 20
219.155
 11
-1.33252
 21
219.313
  0
LINE
  8
0
 10
-1.33252
 20
219.313
 11
-1.125
 21
219.449
  0
LINE
  8
0
 10
-1.125
 20
219.449
 11
-0.903809
 21
219.56
  0
LINE
  8
0
 10
-0.903809
 20
219.56
 11
-0.671646
 21
219.647
  0
LINE
  8
0
 10
-0.671646
 20
219.647
 11
-0.431335
 21
219.708
  0
LINE
  8
0
 10
-0.431335
 20
219.708
 11
-0.185791
 21
219.742
  0
LINE
  8
0
 10
-0.185791
 20
219.742
 11
0.0619965
 21
219.749
  0
LINE
  8
0
 10
0.0619965
 20
219.749
 11
0.309036
 21
219.729
  0
LINE
  8
0
 10
0.309036
 20
219.729
 11
0.552338
 21
219.681
  0
LINE
  8
0
 10
0.552338
 20
219.681
 11
0.788925
 21
219.607
  0
LINE
  8
0
 10
0.788925
 20
219.607
 11
1.01595
 21
219.508
  0
LINE
  8
0
 10
1.01595
 20
219.508
 11
1.23062
 21
219.384
  0
LINE
  8
0
 10
1.23062
 20
219.384
 11
1.43037
 21
219.237
  0
LINE
  8
0
 10
1.43037
 20
219.237
 11
1.61275
 21
219.069
  0
LINE
  8
0
 10
1.61275
 20
219.069
 11
1.77556
 21
218.882
  0
LINE
  8
0
 10
1.77556
 20
218.882
 11
1.91681
 21
218.678
  0
LINE
  8
0
 10
1.91681
 20
218.678
 11
2.03479
 21
218.46
  0
LINE
  8
0
 10
2.03479
 20
218.46
 11
2.12808
 21
218.231
  0
LINE
  8
0
 10
2.12808
 20
218.231
 11
2.19554
 21
217.992
  0
LINE
  8
0
 10
2.19554
 20
217.992
 11
2.23634
 21
217.748
  0
LINE
  8
0
 10
2.23634
 20
217.748
 11
2.25
 21
217.5
  0
LINE
  8
0
 10
2.25
 20
217.5
 11
2.23634
 21
217.252
  0
LINE
  8
0
 10
2.23634
 20
217.252
 11
2.19554
 21
217.008
  0
LINE
  8
0
 10
2.19554
 20
217.008
 11
2.12808
 21
216.769
  0
LINE
  8
0
 10
2.12808
 20
216.769
 11
2.03479
 21
216.54
  0
LINE
  8
0
 10
2.03479
 20
216.54
 11
1.91681
 21
216.322
  0
LINE
  8
0
 10
1.91681
 20
216.322
 11
1.77556
 21
216.118
  0
LINE
  8
0
 10
1.77556
 20
216.118
 11
1.61275
 21
215.931
  0
LINE
  8
0
 10
1.61275
 20
215.931
 11
1.43037
 21
215.763
  0
LINE
  8
0
 10
1.43037
 20
215.763
 11
1.23062
 21
215.616
  0
LINE
  8
0
 10
1.23062
 20
215.616
 11
1.01595
 21
215.492
  0
LINE
  8
0
 10
1.01595
 20
215.492
 11
0.788925
 21
215.393
  0
LINE
  8
0
 10
0.788925
 20
215.393
 11
0.552338
 21
215.319
  0
LINE
  8
0
 10
0.552338
 20
215.319
 11
0.309036
 21
215.271
  0
LINE
  8
0
 10
0.309036
 20
215.271
 11
0.0619965
 21
215.251
  0
LINE
  8
0
 10
0.0619965
 20
215.251
 11
-0.185791
 21
215.258
  0
LINE
  8
0
 10
91.0642
 20
215.258
 11
90.8186
 21
215.292
  0
LINE
  8
0
 10
90.8186
 20
215.292
 11
90.5783
 21
215.353
  0
LINE
  8
0
 10
90.5783
 20
215.353
 11
90.3462
 21
215.44
  0
LINE
  8
0
 10
90.3462
 20
215.44
 11
90.125
 21
215.551
  0
LINE
  8
0
 10
90.125
 20
215.551
 11
89.9175
 21
215.687
  0
LINE
  8
0
 10
89.9175
 20
215.687
 11
89.7261
 21
215.845
  0
LINE
  8
0
 10
89.7261
 20
215.845
 11
89.5533
 21
216.022
  0
LINE
  8
0
 10
89.5533
 20
216.022
 11
89.401
 21
216.218
  0
LINE
  8
0
 10
89.401
 20
216.218
 11
89.2712
 21
216.429
  0
LINE
  8
0
 10
89.2712
 20
216.429
 11
89.1654
 21
216.653
  0
LINE
  8
0
 10
89.1654
 20
216.653
 11
89.0849
 21
216.888
  0
LINE
  8
0
 10
89.0849
 20
216.888
 11
89.0307
 21
217.13
  0
LINE
  8
0
 10
89.0307
 20
217.13
 11
89.0034
 21
217.376
  0
LINE
  8
0
 10
89.0034
 20
217.376
 11
89.0034
 21
217.624
  0
LINE
  8
0
 10
89.0034
 20
217.624
 11
89.0307
 21
217.87
  0
LINE
  8
0
 10
89.0307
 20
217.87
 11
89.0849
 21
218.112
  0
LINE
  8
0
 10
89.0849
 20
218.112
 11
89.1654
 21
218.347
  0
LINE
  8
0
 10
89.1654
 20
218.347
 11
89.2712
 21
218.571
  0
LINE
  8
0
 10
89.2712
 20
218.571
 11
89.401
 21
218.782
  0
LINE
  8
0
 10
89.401
 20
218.782
 11
89.5533
 21
218.978
  0
LINE
  8
0
 10
89.5533
 20
218.978
 11
89.7261
 21
219.155
  0
LINE
  8
0
 10
89.7261
 20
219.155
 11
89.9175
 21
219.313
  0
LINE
  8
0
 10
89.9175
 20
219.313
 11
90.125
 21
219.449
  0
LINE
  8
0
 10
90.125
 20
219.449
 11
90.3462
 21
219.56
  0
LINE
  8
0
 10
90.3462
 20
219.56
 11
90.5783
 21
219.647
  0
LINE
  8
0
 10
90.5783
 20
219.647
 11
90.8186
 21
219.708
  0
LINE
  8
0
 10
90.8186
 20
219.708
 11
91.0642
 21
219.742
  0
LINE
  8
0
 10
91.0642
 20
219.742
 11
91.312
 21
219.749
  0
LINE
  8
0
 10
91.312
 20
219.749
 11
91.559
 21
219.729
  0
LINE
  8
0
 10
91.559
 20
219.729
 11
91.8023
 21
219.681
  0
LINE
  8
0
 10
91.8023
 20
219.681
 11
92.0389
 21
219.607
  0
LINE
  8
0
 10
92.0389
 20
219.607
 11
92.2659
 21
219.508
  0
LINE
  8
0
 10
92.2659
 20
219.508
 11
92.4806
 21
219.384
  0
LINE
  8
0
 10
92.4806
 20
219.384
 11
92.6804
 21
219.237
  0
LINE
  8
0
 10
92.6804
 20
219.237
 11
92.8628
 21
219.069
  0
LINE
  8
0
 10
92.8628
 20
219.069
 11
93.0256
 21
218.882
  0
LINE
  8
0
 10
93.0256
 20
218.882
 11
93.1668
 21
218.678
  0
LINE
  8
0
 10
93.1668
 20
218.678
 11
93.2848
 21
218.46
  0
LINE
  8
0
 10
93.2848
 20
218.46
 11
93.3781
 21
218.231
  0
LINE
  8
0
 10
93.3781
 20
218.231
 11
93.4455
 21
217.992
  0
LINE
  8
0
 10
93.4455
 20
217.992
 11
93.4863
 21
217.748
  0
LINE
  8
0
 10
93.4863
 20
217.748
 11
93.5
 21
217.5
  0
LINE
  8
0
 10
93.5
 20
217.5
 11
93.4863
 21
217.252
  0
LINE
  8
0
 10
93.4863
 20
217.252
 11
93.4455
 21
217.008
  0
LINE
  8
0
 10
93.4455
 20
217.008
 11
93.3781
 21
216.769
  0
LINE
  8
0
 10
93.3781
 20
216.769
 11
93.2848
 21
216.54
  0
LINE
  8
0
 10
93.2848
 20
216.54
 11
93.1668
 21
216.322
  0
LINE
  8
0
 10
93.1668
 20
216.322
 11
93.0256
 21
216.118
  0
LINE
  8
0
 10
93.0256
 20
216.118
 11
92.8628
 21
215.931
  0
LINE
  8
0
 10
92.8628
 20
215.931
 11
92.6804
 21
215.763
  0
LINE
  8
0
 10
92.6804
 20
215.763
 11
92.4806
 21
215.616
  0
LINE
  8
0
 10
92.4806
 20
215.616
 11
92.2659
 21
215.492
  0
LINE
  8
0
 10
92.2659
 20
215.492
 11
92.0389
 21
215.393
  0
LINE
  8
0
 10
92.0389
 20
215.393
 11
91.8023
 21
215.319
  0
LINE
  8
0
 10
91.8023
 20
215.319
 11
91.559
 21
215.271
  0
LINE
  8
0
 10
91.559
 20
215.271
 11
91.312
 21
215.251
  0
LINE
  8
0
 10
91.312
 20
215.251
 11
91.0642
 21
215.258
  0
LINE
  8
0
 10
-91.4358
 20
215.258
 11
-91.6814
 21
215.292
  0
LINE
  8
0
 10
-91.6814
 20
215.292
 11
-91.9217
 21
215.353
  0
LINE
  8
0
 10
-91.9217
 20
215.353
 11
-92.1538
 21
215.44
  0
LINE
  8
0
 10
-92.1538
 20
215.44
 11
-92.375
 21
215.551
  0
LINE
  8
0
 10
-92.375
 20
215.551
 11
-92.5825
 21
215.687
  0
LINE
  8
0
 10
-92.5825
 20
215.687
 11
-92.7739
 21
215.845
  0
LINE
  8
0
 10
-92.7739
 20
215.845
 11
-92.9467
 21
216.022
  0
LINE
  8
0
 10
-92.9467
 20
216.022
 11
-93.099
 21
216.218
  0
LINE
  8
0
 10
-93.099
 20
216.218
 11
-93.2288
 21
216.429
  0
LINE
  8
0
 10
-93.2288
 20
216.429
 11
-93.3346
 21
216.653
  0
LINE
  8
0
 10
-93.3346
 20
216.653
 11
-93.4151
 21
216.888
  0
LINE
  8
0
 10
-93.4151
 20
216.888
 11
-93.4693
 21
217.13
  0
LINE
  8
0
 10
-93.4693
 20
217.13
 11
-93.4966
 21
217.376
  0
LINE
  8
0
 10
-93.4966
 20
217.376
 11
-93.4966
 21
217.624
  0
LINE
  8
0
 10
-93.4966
 20
217.624
 11
-93.4693
 21
217.87
  0
LINE
  8
0
 10
-93.4693
 20
217.87
 11
-93.4151
 21
218.112
  0
LINE
  8
0
 10
-93.4151
 20
218.112
 11
-93.3346
 21
218.347
  0
LINE
  8
0
 10
-93.3346
 20
218.347
 11
-93.2288
 21
218.571
  0
LINE
  8
0
 10
-93.2288
 20
218.571
 11
-93.099
 21
218.782
  0
LINE
  8
0
 10
-93.099
 20
218.782
 11
-92.9467
 21
218.978
  0
LINE
  8
0
 10
-92.9467
 20
218.978
 11
-92.7739
 21
219.155
  0
LINE
  8
0
 10
-92.7739
 20
219.155
 11
-92.5825
 21
219.313
  0
LINE
  8
0
 10
-92.5825
 20
219.313
 11
-92.375
 21
219.449
  0
LINE
  8
0
 10
-92.375
 20
219.449
 11
-92.1538
 21
219.56
  0
LINE
  8
0
 10
-92.1538
 20
219.56
 11
-91.9217
 21
219.647
  0
LINE
  8
0
 10
-91.9217
 20
219.647
 11
-91.6814
 21
219.708
  0
LINE
  8
0
 10
-91.6814
 20
219.708
 11
-91.4358
 21
219.742
  0
LINE
  8
0
 10
-91.4358
 20
219.742
 11
-91.188
 21
219.749
  0
LINE
  8
0
 10
-91.188
 20
219.749
 11
-90.9409
 21
219.729
  0
LINE
  8
0
 10
-90.9409
 20
219.729
 11
-90.6976
 21
219.681
  0
LINE
  8
0
 10
-90.6976
 20
219.681
 11
-90.4611
 21
219.607
  0
LINE
  8
0
 10
-90.4611
 20
219.607
 11
-90.234
 21
219.508
  0
LINE
  8
0
 10
-90.234
 20
219.508
 11
-90.0194
 21
219.384
  0
LINE
  8
0
 10
-90.0194
 20
219.384
 11
-89.8196
 21
219.237
  0
LINE
  8
0
 10
-89.8196
 20
219.237
 11
-89.6372
 21
219.069
  0
LINE
  8
0
 10
-89.6372
 20
219.069
 11
-89.4744
 21
218.882
  0
LINE
  8
0
 10
-89.4744
 20
218.882
 11
-89.3332
 21
218.678
  0
LINE
  8
0
 10
-89.3332
 20
218.678
 11
-89.2152
 21
218.46
  0
LINE
  8
0
 10
-89.2152
 20
218.46
 11
-89.1219
 21
218.231
  0
LINE
  8
0
 10
-89.1219
 20
218.231
 11
-89.0545
 21
217.992
  0
LINE
  8
0
 10
-89.0545
 20
217.992
 11
-89.0137
 21
217.748
  0
LINE
  8
0
 10
-89.0137
 20
217.748
 11
-89
 21
217.5
  0
LINE
  8
0
 10
-89
 20
217.5
 11
-89.0137
 21
217.252
  0
LINE
  8
0
 10
-89.0137
 20
217.252
 11
-89.0545
 21
217.008
  0
LINE
  8
0
 10
-89.0545
 20
217.008
 11
-89.1219
 21
216.769
  0
LINE
  8
0
 10
-89.1219
 20
216.769
 11
-89.2152
 21
216.54
  0
LINE
  8
0
 10
-89.2152
 20
216.54
 11
-89.3332
 21
216.322
  0
LINE
  8
0
 10
-89.3332
 20
216.322
 11
-89.4744
 21
216.118
  0
LINE
  8
0
 10
-89.4744
 20
216.118
 11
-89.6372
 21
215.931
  0
LINE
  8
0
 10
-89.6372
 20
215.931
 11
-89.8196
 21
215.763
  0
LINE
  8
0
 10
-89.8196
 20
215.763
 11
-90.0194
 21
215.616
  0
LINE
  8
0
 10
-90.0194
 20
215.616
 11
-90.234
 21
215.492
  0
LINE
  8
0
 10
-90.234
 20
215.492
 11
-90.4611
 21
215.393
  0
LINE
  8
0
 10
-90.4611
 20
215.393
 11
-90.6976
 21
215.319
  0
LINE
  8
0
 10
-90.6976
 20
215.319
 11
-90.9409
 21
215.271
  0
LINE
  8
0
 10
-90.9409
 20
215.271
 11
-91.188
 21
215.251
  0
LINE
  8
0
 10
-91.188
 20
215.251
 11
-91.4358
 21
215.258
  0
LINE
  8
0
 10
-182.686
 20
215.258
 11
-182.931
 21
215.292
  0
LINE
  8
0
 10
-182.931
 20
215.292
 11
-183.172
 21
215.353
  0
LINE
  8
0
 10
-183.172
 20
215.353
 11
-183.404
 21
215.44
  0
LINE
  8
0
 10
-183.404
 20
215.44
 11
-183.625
 21
215.551
  0
LINE
  8
0
 10
-183.625
 20
215.551
 11
-183.833
 21
215.687
  0
LINE
  8
0
 10
-183.833
 20
215.687
 11
-184.024
 21
215.845
  0
LINE
  8
0
 10
-184.024
 20
215.845
 11
-184.197
 21
216.022
  0
LINE
  8
0
 10
-184.197
 20
216.022
 11
-184.349
 21
216.218
  0
LINE
  8
0
 10
-184.349
 20
216.218
 11
-184.479
 21
216.429
  0
LINE
  8
0
 10
-184.479
 20
216.429
 11
-184.585
 21
216.653
  0
LINE
  8
0
 10
-184.585
 20
216.653
 11
-184.665
 21
216.888
  0
LINE
  8
0
 10
-184.665
 20
216.888
 11
-184.719
 21
217.13
  0
LINE
  8
0
 10
-184.719
 20
217.13
 11
-184.747
 21
217.376
  0
LINE
  8
0
 10
-184.747
 20
217.376
 11
-184.747
 21
217.624
  0
LINE
  8
0
 10
-184.747
 20
217.624
 11
-184.719
 21
217.87
  0
LINE
  8
0
 10
-184.719
 20
217.87
 11
-184.665
 21
218.112
  0
LINE
  8
0
 10
-184.665
 20
218.112
 11
-184.585
 21
218.347
  0
LINE
  8
0
 10
-184.585
 20
218.347
 11
-184.479
 21
218.571
  0
LINE
  8
0
 10
-184.479
 20
218.571
 11
-184.349
 21
218.782
  0
LINE
  8
0
 10
-184.349
 20
218.782
 11
-184.197
 21
218.978
  0
LINE
  8
0
 10
-184.197
 20
218.978
 11
-184.024
 21
219.155
  0
LINE
  8
0
 10
-184.024
 20
219.155
 11
-183.833
 21
219.313
  0
LINE
  8
0
 10
-183.833
 20
219.313
 11
-183.625
 21
219.449
  0
LINE
  8
0
 10
-183.625
 20
219.449
 11
-183.404
 21
219.56
  0
LINE
  8
0
 10
-183.404
 20
219.56
 11
-183.172
 21
219.647
  0
LINE
  8
0
 10
-183.172
 20
219.647
 11
-182.931
 21
219.708
  0
LINE
  8
0
 10
-182.931
 20
219.708
 11
-182.686
 21
219.742
  0
LINE
  8
0
 10
-182.686
 20
219.742
 11
-182.438
 21
219.749
  0
LINE
  8
0
 10
-182.438
 20
219.749
 11
-182.191
 21
219.729
  0
LINE
  8
0
 10
-182.191
 20
219.729
 11
-181.948
 21
219.681
  0
LINE
  8
0
 10
-181.948
 20
219.681
 11
-181.711
 21
219.607
  0
LINE
  8
0
 10
-181.711
 20
219.607
 11
-181.484
 21
219.508
  0
LINE
  8
0
 10
-181.484
 20
219.508
 11
-181.269
 21
219.384
  0
LINE
  8
0
 10
-181.269
 20
219.384
 11
-181.07
 21
219.237
  0
LINE
  8
0
 10
-181.07
 20
219.237
 11
-180.887
 21
219.069
  0
LINE
  8
0
 10
-180.887
 20
219.069
 11
-180.724
 21
218.882
  0
LINE
  8
0
 10
-180.724
 20
218.882
 11
-180.583
 21
218.678
  0
LINE
  8
0
 10
-180.583
 20
218.678
 11
-180.465
 21
218.46
  0
LINE
  8
0
 10
-180.465
 20
218.46
 11
-180.372
 21
218.231
  0
LINE
  8
0
 10
-180.372
 20
218.231
 11
-180.304
 21
217.992
  0
LINE
  8
0
 10
-180.304
 20
217.992
 11
-180.264
 21
217.748
  0
LINE
  8
0
 10
-180.264
 20
217.748
 11
-180.25
 21
217.5
  0
LINE
  8
0
 10
-180.25
 20
217.5
 11
-180.264
 21
217.252
  0
LINE
  8
0
 10
-180.264
 20
217.252
 11
-180.304
 21
217.008
  0
LINE
  8
0
 10
-180.304
 20
217.008
 11
-180.372
 21
216.769
  0
LINE
  8
0
 10
-180.372
 20
216.769
 11
-180.465
 21
216.54
  0
LINE
  8
0
 10
-180.465
 20
216.54
 11
-180.583
 21
216.322
  0
LINE
  8
0
 10
-180.583
 20
216.322
 11
-180.724
 21
216.118
  0
LINE
  8
0
 10
-180.724
 20
216.118
 11
-180.887
 21
215.931
  0
LINE
  8
0
 10
-180.887
 20
215.931
 11
-181.07
 21
215.763
  0
LINE
  8
0
 10
-181.07
 20
215.763
 11
-181.269
 21
215.616
  0
LINE
  8
0
 10
-181.269
 20
215.616
 11
-181.484
 21
215.492
  0
LINE
  8
0
 10
-181.484
 20
215.492
 11
-181.711
 21
215.393
  0
LINE
  8
0
 10
-181.711
 20
215.393
 11
-181.948
 21
215.319
  0
LINE
  8
0
 10
-181.948
 20
215.319
 11
-182.191
 21
215.271
  0
LINE
  8
0
 10
-182.191
 20
215.271
 11
-182.438
 21
215.251
  0
LINE
  8
0
 10
-182.438
 20
215.251
 11
-182.686
 21
215.258
  0
LINE
  8
0
 10
222.314
 20
175.258
 11
222.069
 21
175.292
  0
LINE
  8
0
 10
222.069
 20
175.292
 11
221.828
 21
175.353
  0
LINE
  8
0
 10
221.828
 20
175.353
 11
221.596
 21
175.44
  0
LINE
  8
0
 10
221.596
 20
175.44
 11
221.375
 21
175.551
  0
LINE
  8
0
 10
221.375
 20
175.551
 11
221.167
 21
175.687
  0
LINE
  8
0
 10
221.167
 20
175.687
 11
220.976
 21
175.845
  0
LINE
  8
0
 10
220.976
 20
175.845
 11
220.803
 21
176.022
  0
LINE
  8
0
 10
220.803
 20
176.022
 11
220.651
 21
176.218
  0
LINE
  8
0
 10
220.651
 20
176.218
 11
220.521
 21
176.429
  0
LINE
  8
0
 10
220.521
 20
176.429
 11
220.415
 21
176.653
  0
LINE
  8
0
 10
220.415
 20
176.653
 11
220.335
 21
176.888
  0
LINE
  8
0
 10
220.335
 20
176.888
 11
220.281
 21
177.13
  0
LINE
  8
0
 10
220.281
 20
177.13
 11
220.253
 21
177.376
  0
LINE
  8
0
 10
220.253
 20
177.376
 11
220.253
 21
177.624
  0
LINE
  8
0
 10
220.253
 20
177.624
 11
220.281
 21
177.87
  0
LINE
  8
0
 10
220.281
 20
177.87
 11
220.335
 21
178.112
  0
LINE
  8
0
 10
220.335
 20
178.112
 11
220.415
 21
178.347
  0
LINE
  8
0
 10
220.415
 20
178.347
 11
220.521
 21
178.571
  0
LINE
  8
0
 10
220.521
 20
178.571
 11
220.651
 21
178.782
  0
LINE
  8
0
 10
220.651
 20
178.782
 11
220.803
 21
178.978
  0
LINE
  8
0
 10
220.803
 20
178.978
 11
220.976
 21
179.155
  0
LINE
  8
0
 10
220.976
 20
179.155
 11
221.167
 21
179.313
  0
LINE
  8
0
 10
221.167
 20
179.313
 11
221.375
 21
179.449
  0
LINE
  8
0
 10
221.375
 20
179.449
 11
221.596
 21
179.56
  0
LINE
  8
0
 10
221.596
 20
179.56
 11
221.828
 21
179.647
  0
LINE
  8
0
 10
221.828
 20
179.647
 11
222.069
 21
179.708
  0
LINE
  8
0
 10
222.069
 20
179.708
 11
222.314
 21
179.742
  0
LINE
  8
0
 10
222.314
 20
179.742
 11
222.562
 21
179.749
  0
LINE
  8
0
 10
222.562
 20
179.749
 11
222.809
 21
179.729
  0
LINE
  8
0
 10
222.809
 20
179.729
 11
223.052
 21
179.681
  0
LINE
  8
0
 10
223.052
 20
179.681
 11
223.289
 21
179.607
  0
LINE
  8
0
 10
223.289
 20
179.607
 11
223.516
 21
179.508
  0
LINE
  8
0
 10
223.516
 20
179.508
 11
223.731
 21
179.384
  0
LINE
  8
0
 10
223.731
 20
179.384
 11
223.93
 21
179.237
  0
LINE
  8
0
 10
223.93
 20
179.237
 11
224.113
 21
179.069
  0
LINE
  8
0
 10
224.113
 20
179.069
 11
224.276
 21
178.882
  0
LINE
  8
0
 10
224.276
 20
178.882
 11
224.417
 21
178.678
  0
LINE
  8
0
 10
224.417
 20
178.678
 11
224.535
 21
178.46
  0
LINE
  8
0
 10
224.535
 20
178.46
 11
224.628
 21
178.231
  0
LINE
  8
0
 10
224.628
 20
178.231
 11
224.696
 21
177.992
  0
LINE
  8
0
 10
224.696
 20
177.992
 11
224.736
 21
177.748
  0
LINE
  8
0
 10
224.736
 20
177.748
 11
224.75
 21
177.5
  0
LINE
  8
0
 10
224.75
 20
177.5
 11
224.736
 21
177.252
  0
LINE
  8
0
 10
224.736
 20
177.252
 11
224.696
 21
177.008
  0
LINE
  8
0
 10
224.696
 20
177.008
 11
224.628
 21
176.769
  0
LINE
  8
0
 10
224.628
 20
176.769
 11
224.535
 21
176.54
  0
LINE
  8
0
 10
224.535
 20
176.54
 11
224.417
 21
176.322
  0
LINE
  8
0
 10
224.417
 20
176.322
 11
224.276
 21
176.118
  0
LINE
  8
0
 10
224.276
 20
176.118
 11
224.113
 21
175.931
  0
LINE
  8
0
 10
224.113
 20
175.931
 11
223.93
 21
175.763
  0
LINE
  8
0
 10
223.93
 20
175.763
 11
223.731
 21
175.616
  0
LINE
  8
0
 10
223.731
 20
175.616
 11
223.516
 21
175.492
  0
LINE
  8
0
 10
223.516
 20
175.492
 11
223.289
 21
175.393
  0
LINE
  8
0
 10
223.289
 20
175.393
 11
223.052
 21
175.319
  0
LINE
  8
0
 10
223.052
 20
175.319
 11
222.809
 21
175.271
  0
LINE
  8
0
 10
222.809
 20
175.271
 11
222.562
 21
175.251
  0
LINE
  8
0
 10
222.562
 20
175.251
 11
222.314
 21
175.258
  0
LINE
  8
0
 10
-222.809
 20
175.271
 11
-223.052
 21
175.319
  0
LINE
  8
0
 10
-223.052
 20
175.319
 11
-223.289
 21
175.393
  0
LINE
  8
0
 10
-223.289
 20
175.393
 11
-223.516
 21
175.492
  0
LINE
  8
0
 10
-223.516
 20
175.492
 11
-223.731
 21
175.616
  0
LINE
  8
0
 10
-223.731
 20
175.616
 11
-223.93
 21
175.763
  0
LINE
  8
0
 10
-223.93
 20
175.763
 11
-224.113
 21
175.931
  0
LINE
  8
0
 10
-224.113
 20
175.931
 11
-224.276
 21
176.118
  0
LINE
  8
0
 10
-224.276
 20
176.118
 11
-224.417
 21
176.322
  0
LINE
  8
0
 10
-224.417
 20
176.322
 11
-224.535
 21
176.54
  0
LINE
  8
0
 10
-224.535
 20
176.54
 11
-224.628
 21
176.769
  0
LINE
  8
0
 10
-224.628
 20
176.769
 11
-224.696
 21
177.008
  0
LINE
  8
0
 10
-224.696
 20
177.008
 11
-224.736
 21
177.252
  0
LINE
  8
0
 10
-224.736
 20
177.252
 11
-224.75
 21
177.5
  0
LINE
  8
0
 10
-224.75
 20
177.5
 11
-224.736
 21
177.748
  0
LINE
  8
0
 10
-224.736
 20
177.748
 11
-224.696
 21
177.992
  0
LINE
  8
0
 10
-224.696
 20
177.992
 11
-224.628
 21
178.231
  0
LINE
  8
0
 10
-224.628
 20
178.231
 11
-224.535
 21
178.46
  0
LINE
  8
0
 10
-224.535
 20
178.46
 11
-224.417
 21
178.678
  0
LINE
  8
0
 10
-224.417
 20
178.678
 11
-224.276
 21
178.882
  0
LINE
  8
0
 10
-224.276
 20
178.882
 11
-224.113
 21
179.069
  0
LINE
  8
0
 10
-224.113
 20
179.069
 11
-223.93
 21
179.237
  0
LINE
  8
0
 10
-223.93
 20
179.237
 11
-223.731
 21
179.384
  0
LINE
  8
0
 10
-223.731
 20
179.384
 11
-223.516
 21
179.508
  0
LINE
  8
0
 10
-223.516
 20
179.508
 11
-223.289
 21
179.607
  0
LINE
  8
0
 10
-223.289
 20
179.607
 11
-223.052
 21
179.681
  0
LINE
  8
0
 10
-223.052
 20
179.681
 11
-222.809
 21
179.729
  0
LINE
  8
0
 10
-222.809
 20
179.729
 11
-222.562
 21
179.749
  0
LINE
  8
0
 10
-222.562
 20
179.749
 11
-222.314
 21
179.742
  0
LINE
  8
0
 10
-222.314
 20
179.742
 11
-222.069
 21
179.708
  0
LINE
  8
0
 10
-222.069
 20
179.708
 11
-221.828
 21
179.647
  0
LINE
  8
0
 10
-221.828
 20
179.647
 11
-221.596
 21
179.56
  0
LINE
  8
0
 10
-221.596
 20
179.56
 11
-221.375
 21
179.449
  0
LINE
  8
0
 10
-221.375
 20
179.449
 11
-221.167
 21
179.313
  0
LINE
  8
0
 10
-221.167
 20
179.313
 11
-220.976
 21
179.155
  0
LINE
  8
0
 10
-220.976
 20
179.155
 11
-220.803
 21
178.978
  0
LINE
  8
0
 10
-220.803
 20
178.978
 11
-220.651
 21
178.782
  0
LINE
  8
0
 10
-220.651
 20
178.782
 11
-220.521
 21
178.571
  0
LINE
  8
0
 10
-220.521
 20
178.571
 11
-220.415
 21
178.347
  0
LINE
  8
0
 10
-220.415
 20
178.347
 11
-220.335
 21
178.112
  0
LINE
  8
0
 10
-220.335
 20
178.112
 11
-220.281
 21
177.87
  0
LINE
  8
0
 10
-220.281
 20
177.87
 11
-220.253
 21
177.624
  0
LINE
  8
0
 10
-220.253
 20
177.624
 11
-220.253
 21
177.376
  0
LINE
  8
0
 10
-220.253
 20
177.376
 11
-220.281
 21
177.13
  0
LINE
  8
0
 10
-220.281
 20
177.13
 11
-220.335
 21
176.888
  0
LINE
  8
0
 10
-220.335
 20
176.888
 11
-220.415
 21
176.653
  0
LINE
  8
0
 10
-220.415
 20
176.653
 11
-220.521
 21
176.429
  0
LINE
  8
0
 10
-220.521
 20
176.429
 11
-220.651
 21
176.218
  0
LINE
  8
0
 10
-220.651
 20
176.218
 11
-220.803
 21
176.022
  0
LINE
  8
0
 10
-220.803
 20
176.022
 11
-220.976
 21
175.845
  0
LINE
  8
0
 10
-220.976
 20
175.845
 11
-221.167
 21
175.687
  0
LINE
  8
0
 10
-221.167
 20
175.687
 11
-221.375
 21
175.551
  0
LINE
  8
0
 10
-221.375
 20
175.551
 11
-221.596
 21
175.44
  0
LINE
  8
0
 10
-221.596
 20
175.44
 11
-221.828
 21
175.353
  0
LINE
  8
0
 10
-221.828
 20
175.353
 11
-222.069
 21
175.292
  0
LINE
  8
0
 10
-222.069
 20
175.292
 11
-222.314
 21
175.258
  0
LINE
  8
0
 10
-222.314
 20
175.258
 11
-222.562
 21
175.251
  0
LINE
  8
0
 10
-222.562
 20
175.251
 11
-222.809
 21
175.271
  0
LINE
  8
0
 10
-222.809
 20
86.5213
 11
-223.052
 21
86.5688
  0
LINE
  8
0
 10
-223.052
 20
86.5688
 11
-223.289
 21
86.6429
  0
LINE
  8
0
 10
-223.289
 20
86.6429
 11
-223.516
 21
86.7424
  0
LINE
  8
0
 10
-223.516
 20
86.7424
 11
-223.731
 21
86.8664
  0
LINE
  8
0
 10
-223.731
 20
86.8664
 11
-223.93
 21
87.0132
  0
LINE
  8
0
 10
-223.93
 20
87.0132
 11
-224.113
 21
87.1811
  0
LINE
  8
0
 10
-224.113
 20
87.1811
 11
-224.276
 21
87.368
  0
LINE
  8
0
 10
-224.276
 20
87.368
 11
-224.417
 21
87.5717
  0
LINE
  8
0
 10
-224.417
 20
87.5717
 11
-224.535
 21
87.7897
  0
LINE
  8
0
 10
-224.535
 20
87.7897
 11
-224.628
 21
88.0194
  0
LINE
  8
0
 10
-224.628
 20
88.0194
 11
-224.696
 21
88.258
  0
LINE
  8
0
 10
-224.696
 20
88.258
 11
-224.736
 21
88.5025
  0
LINE
  8
0
 10
-224.736
 20
88.5025
 11
-224.75
 21
88.75
  0
LINE
  8
0
 10
-224.75
 20
88.75
 11
-224.736
 21
88.9975
  0
LINE
  8
0
 10
-224.736
 20
88.9975
 11
-224.696
 21
89.242
  0
LINE
  8
0
 10
-224.696
 20
89.242
 11
-224.628
 21
89.4806
  0
LINE
  8
0
 10
-224.628
 20
89.4806
 11
-224.535
 21
89.7102
  0
LINE
  8
0
 10
-224.535
 20
89.7102
 11
-224.417
 21
89.9283
  0
LINE
  8
0
 10
-224.417
 20
89.9283
 11
-224.276
 21
90.132
  0
LINE
  8
0
 10
-224.276
 20
90.132
 11
-224.113
 21
90.3189
  0
LINE
  8
0
 10
-224.113
 20
90.3189
 11
-223.93
 21
90.4868
  0
LINE
  8
0
 10
-223.93
 20
90.4868
 11
-223.731
 21
90.6336
  0
LINE
  8
0
 10
-223.731
 20
90.6336
 11
-223.516
 21
90.7576
  0
LINE
  8
0
 10
-223.516
 20
90.7576
 11
-223.289
 21
90.8571
  0
LINE
  8
0
 10
-223.289
 20
90.8571
 11
-223.052
 21
90.9312
  0
LINE
  8
0
 10
-223.052
 20
90.9312
 11
-222.809
 21
90.9787
  0
LINE
  8
0
 10
-222.809
 20
90.9787
 11
-222.562
 21
90.9991
  0
LINE
  8
0
 10
-222.562
 20
90.9991
 11
-222.314
 21
90.9923
  0
LINE
  8
0
 10
-222.314
 20
90.9923
 11
-222.069
 21
90.9583
  0
LINE
  8
0
 10
-222.069
 20
90.9583
 11
-221.828
 21
90.8974
  0
LINE
  8
0
 10
-221.828
 20
90.8974
 11
-221.596
 21
90.8105
  0
LINE
  8
0
 10
-221.596
 20
90.8105
 11
-221.375
 21
90.6985
  0
LINE
  8
0
 10
-221.375
 20
90.6985
 11
-221.167
 21
90.563
  0
LINE
  8
0
 10
-221.167
 20
90.563
 11
-220.976
 21
90.4054
  0
LINE
  8
0
 10
-220.976
 20
90.4054
 11
-220.803
 21
90.2277
  0
LINE
  8
0
 10
-220.803
 20
90.2277
 11
-220.651
 21
90.0321
  0
LINE
  8
0
 10
-220.651
 20
90.0321
 11
-220.521
 21
89.8209
  0
LINE
  8
0
 10
-220.521
 20
89.8209
 11
-220.415
 21
89.5967
  0
LINE
  8
0
 10
-220.415
 20
89.5967
 11
-220.335
 21
89.3622
  0
LINE
  8
0
 10
-220.335
 20
89.3622
 11
-220.281
 21
89.1203
  0
LINE
  8
0
 10
-220.281
 20
89.1203
 11
-220.253
 21
88.8739
  0
LINE
  8
0
 10
-220.253
 20
88.8739
 11
-220.253
 21
88.6261
  0
LINE
  8
0
 10
-220.253
 20
88.6261
 11
-220.281
 21
88.3797
  0
LINE
  8
0
 10
-220.281
 20
88.3797
 11
-220.335
 21
88.1378
  0
LINE
  8
0
 10
-220.335
 20
88.1378
 11
-220.415
 21
87.9033
  0
LINE
  8
0
 10
-220.415
 20
87.9033
 11
-220.521
 21
87.6791
  0
LINE
  8
0
 10
-220.521
 20
87.6791
 11
-220.651
 21
87.4679
  0
LINE
  8
0
 10
-220.651
 20
87.4679
 11
-220.803
 21
87.2723
  0
LINE
  8
0
 10
-220.803
 20
87.2723
 11
-220.976
 21
87.0946
  0
LINE
  8
0
 10
-220.976
 20
87.0946
 11
-221.167
 21
86.937
  0
LINE
  8
0
 10
-221.167
 20
86.937
 11
-221.375
 21
86.8014
  0
LINE
  8
0
 10
-221.375
 20
86.8014
 11
-221.596
 21
86.6895
  0
LINE
  8
0
 10
-221.596
 20
86.6895
 11
-221.828
 21
86.6026
  0
LINE
  8
0
 10
-221.828
 20
86.6026
 11
-222.069
 21
86.5417
  0
LINE
  8
0
 10
-222.069
 20
86.5417
 11
-222.314
 21
86.5077
  0
LINE
  8
0
 10
-222.314
 20
86.5077
 11
-222.562
 21
86.5009
  0
LINE
  8
0
 10
-222.562
 20
86.5009
 11
-222.809
 21
86.5213
  0
LINE
  8
0
 10
222.314
 20
86.5077
 11
222.069
 21
86.5417
  0
LINE
  8
0
 10
222.069
 20
86.5417
 11
221.828
 21
86.6026
  0
LINE
  8
0
 10
221.828
 20
86.6026
 11
221.596
 21
86.6895
  0
LINE
  8
0
 10
221.596
 20
86.6895
 11
221.375
 21
86.8014
  0
LINE
  8
0
 10
221.375
 20
86.8014
 11
221.167
 21
86.937
  0
LINE
  8
0
 10
221.167
 20
86.937
 11
220.976
 21
87.0946
  0
LINE
  8
0
 10
220.976
 20
87.0946
 11
220.803
 21
87.2723
  0
LINE
  8
0
 10
220.803
 20
87.2723
 11
220.651
 21
87.4679
  0
LINE
  8
0
 10
220.651
 20
87.4679
 11
220.521
 21
87.6791
  0
LINE
  8
0
 10
220.521
 20
87.6791
 11
220.415
 21
87.9033
  0
LINE
  8
0
 10
220.415
 20
87.9033
 11
220.335
 21
88.1378
  0
LINE
  8
0
 10
220.335
 20
88.1378
 11
220.281
 21
88.3797
  0
LINE
  8
0
 10
220.281
 20
88.3797
 11
220.253
 21
88.6261
  0
LINE
  8
0
 10
220.253
 20
88.6261
 11
220.253
 21
88.8739
  0
LINE
  8
0
 10
220.253
 20
88.8739
 11
220.281
 21
89.1203
  0
LINE
  8
0
 10
220.281
 20
89.1203
 11
220.335
 21
89.3622
  0
LINE
  8
0
 10
220.335
 20
89.3622
 11
220.415
 21
89.5967
  0
LINE
  8
0
 10
220.415
 20
89.5967
 11
220.521
 21
89.8209
  0
LINE
  8
0
 10
220.521
 20
89.8209
 11
220.651
 21
90.0321
  0
LINE
  8
0
 10
220.651
 20
90.0321
 11
220.803
 21
90.2277
  0
LINE
  8
0
 10
220.803
 20
90.2277
 11
220.976
 21
90.4054
  0
LINE
  8
0
 10
220.976
 20
90.4054
 11
221.167
 21
90.563
  0
LINE
  8
0
 10
221.167
 20
90.563
 11
221.375
 21
90.6985
  0
LINE
  8
0
 10
221.375
 20
90.6985
 11
221.596
 21
90.8105
  0
LINE
  8
0
 10
221.596
 20
90.8105
 11
221.828
 21
90.8974
  0
LINE
  8
0
 10
221.828
 20
90.8974
 11
222.069
 21
90.9583
  0
LINE
  8
0
 10
222.069
 20
90.9583
 11
222.314
 21
90.9923
  0
LINE
  8
0
 10
222.314
 20
90.9923
 11
222.562
 21
90.9991
  0
LINE
  8
0
 10
222.562
 20
90.9991
 11
222.809
 21
90.9787
  0
LINE
  8
0
 10
222.809
 20
90.9787
 11
223.052
 21
90.9312
  0
LINE
  8
0
 10
223.052
 20
90.9312
 11
223.289
 21
90.8571
  0
LINE
  8
0
 10
223.289
 20
90.8571
 11
223.516
 21
90.7576
  0
LINE
  8
0
 10
223.516
 20
90.7576
 11
223.731
 21
90.6336
  0
LINE
  8
0
 10
223.731
 20
90.6336
 11
223.93
 21
90.4868
  0
LINE
  8
0
 10
223.93
 20
90.4868
 11
224.113
 21
90.3189
  0
LINE
  8
0
 10
224.113
 20
90.3189
 11
224.276
 21
90.132
  0
LINE
  8
0
 10
224.276
 20
90.132
 11
224.417
 21
89.9283
  0
LINE
  8
0
 10
224.417
 20
89.9283
 11
224.535
 21
89.7102
  0
LINE
  8
0
 10
224.535
 20
89.7102
 11
224.628
 21
89.4806
  0
LINE
  8
0
 10
224.628
 20
89.4806
 11
224.696
 21
89.242
  0
LINE
  8
0
 10
224.696
 20
89.242
 11
224.736
 21
88.9975
  0
LINE
  8
0
 10
224.736
 20
88.9975
 11
224.75
 21
88.75
  0
LINE
  8
0
 10
224.75
 20
88.75
 11
224.736
 21
88.5025
  0
LINE
  8
0
 10
224.736
 20
88.5025
 11
224.696
 21
88.258
  0
LINE
  8
0
 10
224.696
 20
88.258
 11
224.628
 21
88.0194
  0
LINE
  8
0
 10
224.628
 20
88.0194
 11
224.535
 21
87.7897
  0
LINE
  8
0
 10
224.535
 20
87.7897
 11
224.417
 21
87.5717
  0
LINE
  8
0
 10
224.417
 20
87.5717
 11
224.276
 21
87.368
  0
LINE
  8
0
 10
224.276
 20
87.368
 11
224.113
 21
87.1811
  0
LINE
  8
0
 10
224.113
 20
87.1811
 11
223.93
 21
87.0132
  0
LINE
  8
0
 10
223.93
 20
87.0132
 11
223.731
 21
86.8664
  0
LINE
  8
0
 10
223.731
 20
86.8664
 11
223.516
 21
86.7424
  0
LINE
  8
0
 10
223.516
 20
86.7424
 11
223.289
 21
86.6429
  0
LINE
  8
0
 10
223.289
 20
86.6429
 11
223.052
 21
86.5688
  0
LINE
  8
0
 10
223.052
 20
86.5688
 11
222.809
 21
86.5213
  0
LINE
  8
0
 10
222.809
 20
86.5213
 11
222.562
 21
86.5009
  0
LINE
  8
0
 10
222.562
 20
86.5009
 11
222.314
 21
86.5077
  0
LINE
  8
0
 10
-222.809
 20
-2.22867
 11
-223.052
 21
-2.18114
  0
LINE
  8
0
 10
-223.052
 20
-2.18114
 11
-223.289
 21
-2.10715
  0
LINE
  8
0
 10
-223.289
 20
-2.10715
 11
-223.516
 21
-2.00757
  0
LINE
  8
0
 10
-223.516
 20
-2.00757
 11
-223.731
 21
-1.88362
  0
LINE
  8
0
 10
-223.731
 20
-1.88362
 11
-223.93
 21
-1.7368
  0
LINE
  8
0
 10
-223.93
 20
-1.7368
 11
-224.113
 21
-1.56891
  0
LINE
  8
0
 10
-224.113
 20
-1.56891
 11
-224.276
 21
-1.38197
  0
LINE
  8
0
 10
-224.276
 20
-1.38197
 11
-224.417
 21
-1.17825
  0
LINE
  8
0
 10
-224.417
 20
-1.17825
 11
-224.535
 21
-0.960236
  0
LINE
  8
0
 10
-224.535
 20
-0.960236
 11
-224.628
 21
-0.73056
  0
LINE
  8
0
 10
-224.628
 20
-0.73056
 11
-224.696
 21
-0.49202
  0
LINE
  8
0
 10
-224.696
 20
-0.49202
 11
-224.736
 21
-0.247513
  0
LINE
  8
0
 10
-224.736
 20
-0.247513
 11
-224.75
 21
0
  0
LINE
  8
0
 10
-224.75
 20
0
 11
-224.736
 21
0.247513
  0
LINE
  8
0
 10
-224.736
 20
0.247513
 11
-224.696
 21
0.49202
  0
LINE
  8
0
 10
-224.696
 20
0.49202
 11
-224.628
 21
0.73056
  0
LINE
  8
0
 10
-224.628
 20
0.73056
 11
-224.535
 21
0.960236
  0
LINE
  8
0
 10
-224.535
 20
0.960236
 11
-224.417
 21
1.17825
  0
LINE
  8
0
 10
-224.417
 20
1.17825
 11
-224.276
 21
1.38197
  0
LINE
  8
0
 10
-224.276
 20
1.38197
 11
-224.113
 21
1.56891
  0
LINE
  8
0
 10
-224.113
 20
1.56891
 11
-223.93
 21
1.7368
  0
LINE
  8
0
 10
-223.93
 20
1.7368
 11
-223.731
 21
1.88362
  0
LINE
  8
0
 10
-223.731
 20
1.88362
 11
-223.516
 21
2.00757
  0
LINE
  8
0
 10
-223.516
 20
2.00757
 11
-223.289
 21
2.10715
  0
LINE
  8
0
 10
-223.289
 20
2.10715
 11
-223.052
 21
2.18114
  0
LINE
  8
0
 10
-223.052
 20
2.18114
 11
-222.809
 21
2.22867
  0
LINE
  8
0
 10
-222.809
 20
2.22867
 11
-222.562
 21
2.24915
  0
LINE
  8
0
 10
-222.562
 20
2.24915
 11
-222.314
 21
2.24231
  0
LINE
  8
0
 10
-222.314
 20
2.24231
 11
-222.069
 21
2.20825
  0
LINE
  8
0
 10
-222.069
 20
2.20825
 11
-221.828
 21
2.1474
  0
LINE
  8
0
 10
-221.828
 20
2.1474
 11
-221.596
 21
2.06049
  0
LINE
  8
0
 10
-221.596
 20
2.06049
 11
-221.375
 21
1.94855
  0
LINE
  8
0
 10
-221.375
 20
1.94855
 11
-221.167
 21
1.81296
  0
LINE
  8
0
 10
-221.167
 20
1.81296
 11
-220.976
 21
1.65536
  0
LINE
  8
0
 10
-220.976
 20
1.65536
 11
-220.803
 21
1.47769
  0
LINE
  8
0
 10
-220.803
 20
1.47769
 11
-220.651
 21
1.28206
  0
LINE
  8
0
 10
-220.651
 20
1.28206
 11
-220.521
 21
1.07088
  0
LINE
  8
0
 10
-220.521
 20
1.07088
 11
-220.415
 21
0.846695
  0
LINE
  8
0
 10
-220.415
 20
0.846695
 11
-220.335
 21
0.612228
  0
LINE
  8
0
 10
-220.335
 20
0.612228
 11
-220.281
 21
0.370331
  0
LINE
  8
0
 10
-220.281
 20
0.370331
 11
-220.253
 21
0.123947
  0
LINE
  8
0
 10
-220.253
 20
0.123947
 11
-220.253
 21
-0.123947
  0
LINE
  8
0
 10
-220.253
 20
-0.123947
 11
-220.281
 21
-0.370331
  0
LINE
  8
0
 10
-220.281
 20
-0.370331
 11
-220.335
 21
-0.612228
  0
LINE
  8
0
 10
-220.335
 20
-0.612228
 11
-220.415
 21
-0.846695
  0
LINE
  8
0
 10
-220.415
 20
-0.846695
 11
-220.521
 21
-1.07088
  0
LINE
  8
0
 10
-220.521
 20
-1.07088
 11
-220.651
 21
-1.28206
  0
LINE
  8
0
 10
-220.651
 20
-1.28206
 11
-220.803
 21
-1.47769
  0
LINE
  8
0
 10
-220.803
 20
-1.47769
 11
-220.976
 21
-1.65536
  0
LINE
  8
0
 10
-220.976
 20
-1.65536
 11
-221.167
 21
-1.81296
  0
LINE
  8
0
 10
-221.167
 20
-1.81296
 11
-221.375
 21
-1.94855
  0
LINE
  8
0
 10
-221.375
 20
-1.94855
 11
-221.596
 21
-2.06049
  0
LINE
  8
0
 10
-221.596
 20
-2.06049
 11
-221.828
 21
-2.1474
  0
LINE
  8
0
 10
-221.828
 20
-2.1474
 11
-222.069
 21
-2.20825
  0
LINE
  8
0
 10
-222.069
 20
-2.20825
 11
-222.314
 21
-2.24231
  0
LINE
  8
0
 10
-222.314
 20
-2.24231
 11
-222.562
 21
-2.24915
  0
LINE
  8
0
 10
-222.562
 20
-2.24915
 11
-222.809
 21
-2.22867
  0
LINE
  8
0
 10
222.314
 20
-2.24231
 11
222.069
 21
-2.20825
  0
LINE
  8
0
 10
222.069
 20
-2.20825
 11
221.828
 21
-2.1474
  0
LINE
  8
0
 10
221.828
 20
-2.1474
 11
221.596
 21
-2.06049
  0
LINE
  8
0
 10
221.596
 20
-2.06049
 11
221.375
 21
-1.94855
  0
LINE
  8
0
 10
221.375
 20
-1.94855
 11
221.167
 21
-1.81296
  0
LINE
  8
0
 10
221.167
 20
-1.81296
 11
220.976
 21
-1.65536
  0
LINE
  8
0
 10
220.976
 20
-1.65536
 11
220.803
 21
-1.47769
  0
LINE
  8
0
 10
220.803
 20
-1.47769
 11
220.651
 21
-1.28206
  0
LINE
  8
0
 10
220.651
 20
-1.28206
 11
220.521
 21
-1.07088
  0
LINE
  8
0
 10
220.521
 20
-1.07088
 11
220.415
 21
-0.846695
  0
LINE
  8
0
 10
220.415
 20
-0.846695
 11
220.335
 21
-0.612228
  0
LINE
  8
0
 10
220.335
 20
-0.612228
 11
220.281
 21
-0.370331
  0
LINE
  8
0
 10
220.281
 20
-0.370331
 11
220.253
 21
-0.123947
  0
LINE
  8
0
 10
220.253
 20
-0.123947
 11
220.253
 21
0.123947
  0
LINE
  8
0
 10
220.253
 20
0.123947
 11
220.281
 21
0.370331
  0
LINE
  8
0
 10
220.281
 20
0.370331
 11
220.335
 21
0.612228
  0
LINE
  8
0
 10
220.335
 20
0.612228
 11
220.415
 21
0.846695
  0
LINE
  8
0
 10
220.415
 20
0.846695
 11
220.521
 21
1.07088
  0
LINE
  8
0
 10
220.521
 20
1.07088
 11
220.651
 21
1.28206
  0
LINE
  8
0
 10
220.651
 20
1.28206
 11
220.803
 21
1.47769
  0
LINE
  8
0
 10
220.803
 20
1.47769
 11
220.976
 21
1.65536
  0
LINE
  8
0
 10
220.976
 20
1.65536
 11
221.167
 21
1.81296
  0
LINE
  8
0
 10
221.167
 20
1.81296
 11
221.375
 21
1.94855
  0
LINE
  8
0
 10
221.375
 20
1.94855
 11
221.596
 21
2.06049
  0
LINE
  8
0
 10
221.596
 20
2.06049
 11
221.828
 21
2.1474
  0
LINE
  8
0
 10
221.828
 20
2.1474
 11
222.069
 21
2.20825
  0
LINE
  8
0
 10
222.069
 20
2.20825
 11
222.314
 21
2.24231
  0
LINE
  8
0
 10
222.314
 20
2.24231
 11
222.562
 21
2.24915
  0
LINE
  8
0
 10
222.562
 20
2.24915
 11
222.809
 21
2.22867
  0
LINE
  8
0
 10
222.809
 20
2.22867
 11
223.052
 21
2.18114
  0
LINE
  8
0
 10
223.052
 20
2.18114
 11
223.289
 21
2.10715
  0
LINE
  8
0
 10
223.289
 20
2.10715
 11
223.516
 21
2.00757
  0
LINE
  8
0
 10
223.516
 20
2.00757
 11
223.731
 21
1.88362
  0
LINE
  8
0
 10
223.731
 20
1.88362
 11
223.93
 21
1.7368
  0
LINE
  8
0
 10
223.93
 20
1.7368
 11
224.113
 21
1.56891
  0
LINE
  8
0
 10
224.113
 20
1.56891
 11
224.276
 21
1.38197
  0
LINE
  8
0
 10
224.276
 20
1.38197
 11
224.417
 21
1.17825
  0
LINE
  8
0
 10
224.417
 20
1.17825
 11
224.535
 21
0.960236
  0
LINE
  8
0
 10
224.535
 20
0.960236
 11
224.628
 21
0.73056
  0
LINE
  8
0
 10
224.628
 20
0.73056
 11
224.696
 21
0.49202
  0
LINE
  8
0
 10
224.696
 20
0.49202
 11
224.736
 21
0.247513
  0
LINE
  8
0
 10
224.736
 20
0.247513
 11
224.75
 21
0
  0
LINE
  8
0
 10
224.75
 20
0
 11
224.736
 21
-0.247513
  0
LINE
  8
0
 10
224.736
 20
-0.247513
 11
224.696
 21
-0.49202
  0
LINE
  8
0
 10
224.696
 20
-0.49202
 11
224.628
 21
-0.73056
  0
LINE
  8
0
 10
224.628
 20
-0.73056
 11
224.535
 21
-0.960236
  0
LINE
  8
0
 10
224.535
 20
-0.960236
 11
224.417
 21
-1.17825
  0
LINE
  8
0
 10
224.417
 20
-1.17825
 11
224.276
 21
-1.38197
  0
LINE
  8
0
 10
224.276
 20
-1.38197
 11
224.113
 21
-1.56891
  0
LINE
  8
0
 10
224.113
 20
-1.56891
 11
223.93
 21
-1.7368
  0
LINE
  8
0
 10
223.93
 20
-1.7368
 11
223.731
 21
-1.88362
  0
LINE
  8
0
 10
223.731
 20
-1.88362
 11
223.516
 21
-2.00757
  0
LINE
  8
0
 10
223.516
 20
-2.00757
 11
223.289
 21
-2.10715
  0
LINE
  8
0
 10
223.289
 20
-2.10715
 11
223.052
 21
-2.18114
  0
LINE
  8
0
 10
223.052
 20
-2.18114
 11
222.809
 21
-2.22867
  0
LINE
  8
0
 10
222.809
 20
-2.22867
 11
222.562
 21
-2.24915
  0
LINE
  8
0
 10
222.562
 20
-2.24915
 11
222.314
 21
-2.24231
  0
LINE
  8
0
 10
222.314
 20
-90.9923
 11
222.069
 21
-90.9583
  0
LINE
  8
0
 10
222.069
 20
-90.9583
 11
221.828
 21
-90.8974
  0
LINE
  8
0
 10
221.828
 20
-90.8974
 11
221.596
 21
-90.8105
  0
LINE
  8
0
 10
221.596
 20
-90.8105
 11
221.375
 21
-90.6985
  0
LINE
  8
0
 10
221.375
 20
-90.6985
 11
221.167
 21
-90.563
  0
LINE
  8
0
 10
221.167
 20
-90.563
 11
220.976
 21
-90.4054
  0
LINE
  8
0
 10
220.976
 20
-90.4054
 11
220.803
 21
-90.2277
  0
LINE
  8
0
 10
220.803
 20
-90.2277
 11
220.651
 21
-90.0321
  0
LINE
  8
0
 10
220.651
 20
-90.0321
 11
220.521
 21
-89.8209
  0
LINE
  8
0
 10
220.521
 20
-89.8209
 11
220.415
 21
-89.5967
  0
LINE
  8
0
 10
220.415
 20
-89.5967
 11
220.335
 21
-89.3622
  0
LINE
  8
0
 10
220.335
 20
-89.3622
 11
220.281
 21
-89.1203
  0
LINE
  8
0
 10
220.281
 20
-89.1203
 11
220.253
 21
-88.8739
  0
LINE
  8
0
 10
220.253
 20
-88.8739
 11
220.253
 21
-88.6261
  0
LINE
  8
0
 10
220.253
 20
-88.6261
 11
220.281
 21
-88.3797
  0
LINE
  8
0
 10
220.281
 20
-88.3797
 11
220.335
 21
-88.1378
  0
LINE
  8
0
 10
220.335
 20
-88.1378
 11
220.415
 21
-87.9033
  0
LINE
  8
0
 10
220.415
 20
-87.9033
 11
220.521
 21
-87.6791
  0
LINE
  8
0
 10
220.521
 20
-87.6791
 11
220.651
 21
-87.4679
  0
LINE
  8
0
 10
220.651
 20
-87.4679
 11
220.803
 21
-87.2723
  0
LINE
  8
0
 10
220.803
 20
-87.2723
 11
220.976
 21
-87.0946
  0
LINE
  8
0
 10
220.976
 20
-87.0946
 11
221.167
 21
-86.937
  0
LINE
  8
0
 10
221.167
 20
-86.937
 11
221.375
 21
-86.8014
  0
LINE
  8
0
 10
221.375
 20
-86.8014
 11
221.596
 21
-86.6895
  0
LINE
  8
0
 10
221.596
 20
-86.6895
 11
221.828
 21
-86.6026
  0
LINE
  8
0
 10
221.828
 20
-86.6026
 11
222.069
 21
-86.5417
  0
LINE
  8
0
 10
222.069
 20
-86.5417
 11
222.314
 21
-86.5077
  0
LINE
  8
0
 10
222.314
 20
-86.5077
 11
222.562
 21
-86.5009
  0
LINE
  8
0
 10
222.562
 20
-86.5009
 11
222.809
 21
-86.5213
  0
LINE
  8
0
 10
222.809
 20
-86.5213
 11
223.052
 21
-86.5688
  0
LINE
  8
0
 10
223.052
 20
-86.5688
 11
223.289
 21
-86.6429
  0
LINE
  8
0
 10
223.289
 20
-86.6429
 11
223.516
 21
-86.7424
  0
LINE
  8
0
 10
223.516
 20
-86.7424
 11
223.731
 21
-86.8664
  0
LINE
  8
0
 10
223.731
 20
-86.8664
 11
223.93
 21
-87.0132
  0
LINE
  8
0
 10
223.93
 20
-87.0132
 11
224.113
 21
-87.1811
  0
LINE
  8
0
 10
224.113
 20
-87.1811
 11
224.276
 21
-87.368
  0
LINE
  8
0
 10
224.276
 20
-87.368
 11
224.417
 21
-87.5717
  0
LINE
  8
0
 10
224.417
 20
-87.5717
 11
224.535
 21
-87.7897
  0
LINE
  8
0
 10
224.535
 20
-87.7897
 11
224.628
 21
-88.0194
  0
LINE
  8
0
 10
224.628
 20
-88.0194
 11
224.696
 21
-88.258
  0
LINE
  8
0
 10
224.696
 20
-88.258
 11
224.736
 21
-88.5025
  0
LINE
  8
0
 10
224.736
 20
-88.5025
 11
224.75
 21
-88.75
  0
LINE
  8
0
 10
224.75
 20
-88.75
 11
224.736
 21
-88.9975
  0
LINE
  8
0
 10
224.736
 20
-88.9975
 11
224.696
 21
-89.242
  0
LINE
  8
0
 10
224.696
 20
-89.242
 11
224.628
 21
-89.4806
  0
LINE
  8
0
 10
224.628
 20
-89.4806
 11
224.535
 21
-89.7102
  0
LINE
  8
0
 10
224.535
 20
-89.7102
 11
224.417
 21
-89.9283
  0
LINE
  8
0
 10
224.417
 20
-89.9283
 11
224.276
 21
-90.132
  0
LINE
  8
0
 10
224.276
 20
-90.132
 11
224.113
 21
-90.3189
  0
LINE
  8
0
 10
224.113
 20
-90.3189
 11
223.93
 21
-90.4868
  0
LINE
  8
0
 10
223.93
 20
-90.4868
 11
223.731
 21
-90.6336
  0
LINE
  8
0
 10
223.731
 20
-90.6336
 11
223.516
 21
-90.7576
  0
LINE
  8
0
 10
223.516
 20
-90.7576
 11
223.289
 21
-90.8571
  0
LINE
  8
0
 10
223.289
 20
-90.8571
 11
223.052
 21
-90.9312
  0
LINE
  8
0
 10
223.052
 20
-90.9312
 11
222.809
 21
-90.9787
  0
LINE
  8
0
 10
222.809
 20
-90.9787
 11
222.562
 21
-90.9991
  0
LINE
  8
0
 10
222.562
 20
-90.9991
 11
222.314
 21
-90.9923
  0
LINE
  8
0
 10
-222.809
 20
-90.9787
 11
-223.052
 21
-90.9312
  0
LINE
  8
0
 10
-223.052
 20
-90.9312
 11
-223.289
 21
-90.8571
  0
LINE
  8
0
 10
-223.289
 20
-90.8571
 11
-223.516
 21
-90.7576
  0
LINE
  8
0
 10
-223.516
 20
-90.7576
 11
-223.731
 21
-90.6336
  0
LINE
  8
0
 10
-223.731
 20
-90.6336
 11
-223.93
 21
-90.4868
  0
LINE
  8
0
 10
-223.93
 20
-90.4868
 11
-224.113
 21
-90.3189
  0
LINE
  8
0
 10
-224.113
 20
-90.3189
 11
-224.276
 21
-90.132
  0
LINE
  8
0
 10
-224.276
 20
-90.132
 11
-224.417
 21
-89.9283
  0
LINE
  8
0
 10
-224.417
 20
-89.9283
 11
-224.535
 21
-89.7102
  0
LINE
  8
0
 10
-224.535
 20
-89.7102
 11
-224.628
 21
-89.4806
  0
LINE
  8
0
 10
-224.628
 20
-89.4806
 11
-224.696
 21
-89.242
  0
LINE
  8
0
 10
-224.696
 20
-89.242
 11
-224.736
 21
-88.9975
  0
LINE
  8
0
 10
-224.736
 20
-88.9975
 11
-224.75
 21
-88.75
  0
LINE
  8
0
 10
-224.75
 20
-88.75
 11
-224.736
 21
-88.5025
  0
LINE
  8
0
 10
-224.736
 20
-88.5025
 11
-224.696
 21
-88.258
  0
LINE
  8
0
 10
-224.696
 20
-88.258
 11
-224.628
 21
-88.0194
  0
LINE
  8
0
 10
-224.628
 20
-88.0194
 11
-224.535
 21
-87.7897
  0
LINE
  8
0
 10
-224.535
 20
-87.7897
 11
-224.417
 21
-87.5717
  0
LINE
  8
0
 10
-224.417
 20
-87.5717
 11
-224.276
 21
-87.368
  0
LINE
  8
0
 10
-224.276
 20
-87.368
 11
-224.113
 21
-87.1811
  0
LINE
  8
0
 10
-224.113
 20
-87.1811
 11
-223.93
 21
-87.0132
  0
LINE
  8
0
 10
-223.93
 20
-87.0132
 11
-223.731
 21
-86.8664
  0
LINE
  8
0
 10
-223.731
 20
-86.8664
 11
-223.516
 21
-86.7424
  0
LINE
  8
0
 10
-223.516
 20
-86.7424
 11
-223.289
 21
-86.6429
  0
LINE
  8
0
 10
-223.289
 20
-86.6429
 11
-223.052
 21
-86.5688
  0
LINE
  8
0
 10
-223.052
 20
-86.5688
 11
-222.809
 21
-86.5213
  0
LINE
  8
0
 10
-222.809
 20
-86.5213
 11
-222.562
 21
-86.5009
  0
LINE
  8
0
 10
-222.562
 20
-86.5009
 11
-222.314
 21
-86.5077
  0
LINE
  8
0
 10
-222.314
 20
-86.5077
 11
-222.069
 21
-86.5417
  0
LINE
  8
0
 10
-222.069
 20
-86.5417
 11
-221.828
 21
-86.6026
  0
LINE
  8
0
 10
-221.828
 20
-86.6026
 11
-221.596
 21
-86.6895
  0
LINE
  8
0
 10
-221.596
 20
-86.6895
 11
-221.375
 21
-86.8014
  0
LINE
  8
0
 10
-221.375
 20
-86.8014
 11
-221.167
 21
-86.937
  0
LINE
  8
0
 10
-221.167
 20
-86.937
 11
-220.976
 21
-87.0946
  0
LINE
  8
0
 10
-220.976
 20
-87.0946
 11
-220.803
 21
-87.2723
  0
LINE
  8
0
 10
-220.803
 20
-87.2723
 11
-220.651
 21
-87.4679
  0
LINE
  8
0
 10
-220.651
 20
-87.4679
 11
-220.521
 21
-87.6791
  0
LINE
  8
0
 10
-220.521
 20
-87.6791
 11
-220.415
 21
-87.9033
  0
LINE
  8
0
 10
-220.415
 20
-87.9033
 11
-220.335
 21
-88.1378
  0
LINE
  8
0
 10
-220.335
 20
-88.1378
 11
-220.281
 21
-88.3797
  0
LINE
  8
0
 10
-220.281
 20
-88.3797
 11
-220.253
 21
-88.6261
  0
LINE
  8
0
 10
-220.253
 20
-88.6261
 11
-220.253
 21
-88.8739
  0
LINE
  8
0
 10
-220.253
 20
-88.8739
 11
-220.281
 21
-89.1203
  0
LINE
  8
0
 10
-220.281
 20
-89.1203
 11
-220.335
 21
-89.3622
  0
LINE
  8
0
 10
-220.335
 20
-89.3622
 11
-220.415
 21
-89.5967
  0
LINE
  8
0
 10
-220.415
 20
-89.5967
 11
-220.521
 21
-89.8209
  0
LINE
  8
0
 10
-220.521
 20
-89.8209
 11
-220.651
 21
-90.0321
  0
LINE
  8
0
 10
-220.651
 20
-90.0321
 11
-220.803
 21
-90.2277
  0
LINE
  8
0
 10
-220.803
 20
-90.2277
 11
-220.976
 21
-90.4054
  0
LINE
  8
0
 10
-220.976
 20
-90.4054
 11
-221.167
 21
-90.563
  0
LINE
  8
0
 10
-221.167
 20
-90.563
 11
-221.375
 21
-90.6985
  0
LINE
  8
0
 10
-221.375
 20
-90.6985
 11
-221.596
 21
-90.8105
  0
LINE
  8
0
 10
-221.596
 20
-90.8105
 11
-221.828
 21
-90.8974
  0
LINE
  8
0
 10
-221.828
 20
-90.8974
 11
-222.069
 21
-90.9583
  0
LINE
  8
0
 10
-222.069
 20
-90.9583
 11
-222.314
 21
-90.9923
  0
LINE
  8
0
 10
-222.314
 20
-90.9923
 11
-222.562
 21
-90.9991
  0
LINE
  8
0
 10
-222.562
 20
-90.9991
 11
-222.809
 21
-90.9787
  0
LINE
  8
0
 10
222.314
 20
-179.742
 11
222.069
 21
-179.708
  0
LINE
  8
0
 10
222.069
 20
-179.708
 11
221.828
 21
-179.647
  0
LINE
  8
0
 10
221.828
 20
-179.647
 11
221.596
 21
-179.56
  0
LINE
  8
0
 10
221.596
 20
-179.56
 11
221.375
 21
-179.449
  0
LINE
  8
0
 10
221.375
 20
-179.449
 11
221.167
 21
-179.313
  0
LINE
  8
0
 10
221.167
 20
-179.313
 11
220.976
 21
-179.155
  0
LINE
  8
0
 10
220.976
 20
-179.155
 11
220.803
 21
-178.978
  0
LINE
  8
0
 10
220.803
 20
-178.978
 11
220.651
 21
-178.782
  0
LINE
  8
0
 10
220.651
 20
-178.782
 11
220.521
 21
-178.571
  0
LINE
  8
0
 10
220.521
 20
-178.571
 11
220.415
 21
-178.347
  0
LINE
  8
0
 10
220.415
 20
-178.347
 11
220.335
 21
-178.112
  0
LINE
  8
0
 10
220.335
 20
-178.112
 11
220.281
 21
-177.87
  0
LINE
  8
0
 10
220.281
 20
-177.87
 11
220.253
 21
-177.624
  0
LINE
  8
0
 10
220.253
 20
-177.624
 11
220.253
 21
-177.376
  0
LINE
  8
0
 10
220.253
 20
-177.376
 11
220.281
 21
-177.13
  0
LINE
  8
0
 10
220.281
 20
-177.13
 11
220.335
 21
-176.888
  0
LINE
  8
0
 10
220.335
 20
-176.888
 11
220.415
 21
-176.653
  0
LINE
  8
0
 10
220.415
 20
-176.653
 11
220.521
 21
-176.429
  0
LINE
  8
0
 10
220.521
 20
-176.429
 11
220.651
 21
-176.218
  0
LINE
  8
0
 10
220.651
 20
-176.218
 11
220.803
 21
-176.022
  0
LINE
  8
0
 10
220.803
 20
-176.022
 11
220.976
 21
-175.845
  0
LINE
  8
0
 10
220.976
 20
-175.845
 11
221.167
 21
-175.687
  0
LINE
  8
0
 10
221.167
 20
-175.687
 11
221.375
 21
-175.551
  0
LINE
  8
0
 10
221.375
 20
-175.551
 11
221.596
 21
-175.44
  0
LINE
  8
0
 10
221.596
 20
-175.44
 11
221.828
 21
-175.353
  0
LINE
  8
0
 10
221.828
 20
-175.353
 11
222.069
 21
-175.292
  0
LINE
  8
0
 10
222.069
 20
-175.292
 11
222.314
 21
-175.258
  0
LINE
  8
0
 10
222.314
 20
-175.258
 11
222.562
 21
-175.251
  0
LINE
  8
0
 10
222.562
 20
-175.251
 11
222.809
 21
-175.271
  0
LINE
  8
0
 10
222.809
 20
-175.271
 11
223.052
 21
-175.319
  0
LINE
  8
0
 10
223.052
 20
-175.319
 11
223.289
 21
-175.393
  0
LINE
  8
0
 10
223.289
 20
-175.393
 11
223.516
 21
-175.492
  0
LINE
  8
0
 10
223.516
 20
-175.492
 11
223.731
 21
-175.616
  0
LINE
  8
0
 10
223.731
 20
-175.616
 11
223.93
 21
-175.763
  0
LINE
  8
0
 10
223.93
 20
-175.763
 11
224.113
 21
-175.931
  0
LINE
  8
0
 10
224.113
 20
-175.931
 11
224.276
 21
-176.118
  0
LINE
  8
0
 10
224.276
 20
-176.118
 11
224.417
 21
-176.322
  0
LINE
  8
0
 10
224.417
 20
-176.322
 11
224.535
 21
-176.54
  0
LINE
  8
0
 10
224.535
 20
-176.54
 11
224.628
 21
-176.769
  0
LINE
  8
0
 10
224.628
 20
-176.769
 11
224.696
 21
-177.008
  0
LINE
  8
0
 10
224.696
 20
-177.008
 11
224.736
 21
-177.252
  0
LINE
  8
0
 10
224.736
 20
-177.252
 11
224.75
 21
-177.5
  0
LINE
  8
0
 10
224.75
 20
-177.5
 11
224.736
 21
-177.748
  0
LINE
  8
0
 10
224.736
 20
-177.748
 11
224.696
 21
-177.992
  0
LINE
  8
0
 10
224.696
 20
-177.992
 11
224.628
 21
-178.231
  0
LINE
  8
0
 10
224.628
 20
-178.231
 11
224.535
 21
-178.46
  0
LINE
  8
0
 10
224.535
 20
-178.46
 11
224.417
 21
-178.678
  0
LINE
  8
0
 10
224.417
 20
-178.678
 11
224.276
 21
-178.882
  0
LINE
  8
0
 10
224.276
 20
-178.882
 11
224.113
 21
-179.069
  0
LINE
  8
0
 10
224.113
 20
-179.069
 11
223.93
 21
-179.237
  0
LINE
  8
0
 10
223.93
 20
-179.237
 11
223.731
 21
-179.384
  0
LINE
  8
0
 10
223.731
 20
-179.384
 11
223.516
 21
-179.508
  0
LINE
  8
0
 10
223.516
 20
-179.508
 11
223.289
 21
-179.607
  0
LINE
  8
0
 10
223.289
 20
-179.607
 11
223.052
 21
-179.681
  0
LINE
  8
0
 10
223.052
 20
-179.681
 11
222.809
 21
-179.729
  0
LINE
  8
0
 10
222.809
 20
-179.729
 11
222.562
 21
-179.749
  0
LINE
  8
0
 10
222.562
 20
-179.749
 11
222.314
 21
-179.742
  0
LINE
  8
0
 10
-222.809
 20
-179.729
 11
-223.052
 21
-179.681
  0
LINE
  8
0
 10
-223.052
 20
-179.681
 11
-223.289
 21
-179.607
  0
LINE
  8
0
 10
-223.289
 20
-179.607
 11
-223.516
 21
-179.508
  0
LINE
  8
0
 10
-223.516
 20
-179.508
 11
-223.731
 21
-179.384
  0
LINE
  8
0
 10
-223.731
 20
-179.384
 11
-223.93
 21
-179.237
  0
LINE
  8
0
 10
-223.93
 20
-179.237
 11
-224.113
 21
-179.069
  0
LINE
  8
0
 10
-224.113
 20
-179.069
 11
-224.276
 21
-178.882
  0
LINE
  8
0
 10
-224.276
 20
-178.882
 11
-224.417
 21
-178.678
  0
LINE
  8
0
 10
-224.417
 20
-178.678
 11
-224.535
 21
-178.46
  0
LINE
  8
0
 10
-224.535
 20
-178.46
 11
-224.628
 21
-178.231
  0
LINE
  8
0
 10
-224.628
 20
-178.231
 11
-224.696
 21
-177.992
  0
LINE
  8
0
 10
-224.696
 20
-177.992
 11
-224.736
 21
-177.748
  0
LINE
  8
0
 10
-224.736
 20
-177.748
 11
-224.75
 21
-177.5
  0
LINE
  8
0
 10
-224.75
 20
-177.5
 11
-224.736
 21
-177.252
  0
LINE
  8
0
 10
-224.736
 20
-177.252
 11
-224.696
 21
-177.008
  0
LINE
  8
0
 10
-224.696
 20
-177.008
 11
-224.628
 21
-176.769
  0
LINE
  8
0
 10
-224.628
 20
-176.769
 11
-224.535
 21
-176.54
  0
LINE
  8
0
 10
-224.535
 20
-176.54
 11
-224.417
 21
-176.322
  0
LINE
  8
0
 10
-224.417
 20
-176.322
 11
-224.276
 21
-176.118
  0
LINE
  8
0
 10
-224.276
 20
-176.118
 11
-224.113
 21
-175.931
  0
LINE
  8
0
 10
-224.113
 20
-175.931
 11
-223.93
 21
-175.763
  0
LINE
  8
0
 10
-223.93
 20
-175.763
 11
-223.731
 21
-175.616
  0
LINE
  8
0
 10
-223.731
 20
-175.616
 11
-223.516
 21
-175.492
  0
LINE
  8
0
 10
-223.516
 20
-175.492
 11
-223.289
 21
-175.393
  0
LINE
  8
0
 10
-223.289
 20
-175.393
 11
-223.052
 21
-175.319
  0
LINE
  8
0
 10
-223.052
 20
-175.319
 11
-222.809
 21
-175.271
  0
LINE
  8
0
 10
-222.809
 20
-175.271
 11
-222.562
 21
-175.251
  0
LINE
  8
0
 10
-222.562
 20
-175.251
 11
-222.314
 21
-175.258
  0
LINE
  8
0
 10
-222.314
 20
-175.258
 11
-222.069
 21
-175.292
  0
LINE
  8
0
 10
-222.069
 20
-175.292
 11
-221.828
 21
-175.353
  0
LINE
  8
0
 10
-221.828
 20
-175.353
 11
-221.596
 21
-175.44
  0
LINE
  8
0
 10
-221.596
 20
-175.44
 11
-221.375
 21
-175.551
  0
LINE
  8
0
 10
-221.375
 20
-175.551
 11
-221.167
 21
-175.687
  0
LINE
  8
0
 10
-221.167
 20
-175.687
 11
-220.976
 21
-175.845
  0
LINE
  8
0
 10
-220.976
 20
-175.845
 11
-220.803
 21
-176.022
  0
LINE
  8
0
 10
-220.803
 20
-176.022
 11
-220.651
 21
-176.218
  0
LINE
  8
0
 10
-220.651
 20
-176.218
 11
-220.521
 21
-176.429
  0
LINE
  8
0
 10
-220.521
 20
-176.429
 11
-220.415
 21
-176.653
  0
LINE
  8
0
 10
-220.415
 20
-176.653
 11
-220.335
 21
-176.888
  0
LINE
  8
0
 10
-220.335
 20
-176.888
 11
-220.281
 21
-177.13
  0
LINE
  8
0
 10
-220.281
 20
-177.13
 11
-220.253
 21
-177.376
  0
LINE
  8
0
 10
-220.253
 20
-177.376
 11
-220.253
 21
-177.624
  0
LINE
  8
0
 10
-220.253
 20
-177.624
 11
-220.281
 21
-177.87
  0
LINE
  8
0
 10
-220.281
 20
-177.87
 11
-220.335
 21
-178.112
  0
LINE
  8
0
 10
-220.335
 20
-178.112
 11
-220.415
 21
-178.347
  0
LINE
  8
0
 10
-220.415
 20
-178.347
 11
-220.521
 21
-178.571
  0
LINE
  8
0
 10
-220.521
 20
-178.571
 11
-220.651
 21
-178.782
  0
LINE
  8
0
 10
-220.651
 20
-178.782
 11
-220.803
 21
-178.978
  0
LINE
  8
0
 10
-220.803
 20
-178.978
 11
-220.976
 21
-179.155
  0
LINE
  8
0
 10
-220.976
 20
-179.155
 11
-221.167
 21
-179.313
  0
LINE
  8
0
 10
-221.167
 20
-179.313
 11
-221.375
 21
-179.449
  0
LINE
  8
0
 10
-221.375
 20
-179.449
 11
-221.596
 21
-179.56
  0
LINE
  8
0
 10
-221.596
 20
-179.56
 11
-221.828
 21
-179.647
  0
LINE
  8
0
 10
-221.828
 20
-179.647
 11
-222.069
 21
-179.708
  0
LINE
  8
0
 10
-222.069
 20
-179.708
 11
-222.314
 21
-179.742
  0
LINE
  8
0
 10
-222.314
 20
-179.742
 11
-222.562
 21
-179.749
  0
LINE
  8
0
 10
-222.562
 20
-179.749
 11
-222.809
 21
-179.729
  0
LINE
  8
0
 10
-223.023
 20
-222.473
 11
-223.54
 21
-222.391
  0
LINE
  8
0
 10
-223.54
 20
-222.391
 11
-224.045
 21
-222.255
  0
LINE
  8
0
 10
-224.045
 20
-222.255
 11
-224.534
 21
-222.068
  0
LINE
  8
0
 10
-224.534
 20
-222.068
 11
-225
 21
-221.83
  0
LINE
  8
0
 10
-225
 20
-221.83
 11
-225.439
 21
-221.545
  0
LINE
  8
0
 10
-225.439
 20
-221.545
 11
-225.846
 21
-221.216
  0
LINE
  8
0
 10
-225.846
 20
-221.216
 11
-226.216
 21
-220.846
  0
LINE
  8
0
 10
-226.216
 20
-220.846
 11
-226.545
 21
-220.439
  0
LINE
  8
0
 10
-226.545
 20
-220.439
 11
-226.83
 21
-220
  0
LINE
  8
0
 10
-226.83
 20
-220
 11
-227.068
 21
-219.534
  0
LINE
  8
0
 10
-227.068
 20
-219.534
 11
-227.255
 21
-219.045
  0
LINE
  8
0
 10
-227.255
 20
-219.045
 11
-227.391
 21
-218.54
  0
LINE
  8
0
 10
-227.391
 20
-218.54
 11
-227.473
 21
-218.023
  0
LINE
  8
0
 10
-227.473
 20
-218.023
 11
-227.5
 21
-217.5
  0
LINE
  8
0
 10
-227.5
 20
-217.5
 11
-227.473
 21
-216.977
  0
LINE
  8
0
 10
-227.473
 20
-216.977
 11
-227.391
 21
-216.46
  0
LINE
  8
0
 10
-227.391
 20
-216.46
 11
-227.255
 21
-215.955
  0
LINE
  8
0
 10
-227.255
 20
-215.955
 11
-227.068
 21
-215.466
  0
LINE
  8
0
 10
-227.068
 20
-215.466
 11
-226.83
 21
-215
  0
LINE
  8
0
 10
-226.83
 20
-215
 11
-226.545
 21
-214.561
  0
LINE
  8
0
 10
-226.545
 20
-214.561
 11
-226.216
 21
-214.154
  0
LINE
  8
0
 10
-226.216
 20
-214.154
 11
-225.846
 21
-213.784
  0
LINE
  8
0
 10
-225.846
 20
-213.784
 11
-225.439
 21
-213.455
  0
LINE
  8
0
 10
-225.439
 20
-213.455
 11
-225
 21
-213.17
  0
LINE
  8
0
 10
-225
 20
-213.17
 11
-224.534
 21
-212.932
  0
LINE
  8
0
 10
-224.534
 20
-212.932
 11
-224.045
 21
-212.745
  0
LINE
  8
0
 10
-224.045
 20
-212.745
 11
-223.54
 21
-212.609
  0
LINE
  8
0
 10
-223.54
 20
-212.609
 11
-223.023
 21
-212.527
  0
LINE
  8
0
 10
-223.023
 20
-212.527
 11
-222.5
 21
-212.5
  0
LINE
  8
0
 10
-222.5
 20
-212.5
 11
-221.977
 21
-212.527
  0
LINE
  8
0
 10
-221.977
 20
-212.527
 11
-221.46
 21
-212.609
  0
LINE
  8
0
 10
-221.46
 20
-212.609
 11
-220.955
 21
-212.745
  0
LINE
  8
0
 10
-220.955
 20
-212.745
 11
-220.466
 21
-212.932
  0
LINE
  8
0
 10
-220.466
 20
-212.932
 11
-220
 21
-213.17
  0
LINE
  8
0
 10
-220
 20
-213.17
 11
-219.561
 21
-213.455
  0
LINE
  8
0
 10
-219.561
 20
-213.455
 11
-219.154
 21
-213.784
  0
LINE
  8
0
 10
-219.154
 20
-213.784
 11
-218.784
 21
-214.154
  0
LINE
  8
0
 10
-218.784
 20
-214.154
 11
-218.455
 21
-214.561
  0
LINE
  8
0
 10
-218.455
 20
-214.561
 11
-218.17
 21
-215
  0
LINE
  8
0
 10
-218.17
 20
-215
 11
-217.932
 21
-215.466
  0
LINE
  8
0
 10
-217.932
 20
-215.466
 11
-217.745
 21
-215.955
  0
LINE
  8
0
 10
-217.745
 20
-215.955
 11
-217.609
 21
-216.46
  0
LINE
  8
0
 10
-217.609
 20
-216.46
 11
-217.527
 21
-216.977
  0
LINE
  8
0
 10
-217.527
 20
-216.977
 11
-217.5
 21
-217.5
  0
LINE
  8
0
 10
-217.5
 20
-217.5
 11
-217.527
 21
-218.023
  0
LINE
  8
0
 10
-217.527
 20
-218.023
 11
-217.609
 21
-218.54
  0
LINE
  8
0
 10
-217.609
 20
-218.54
 11
-217.745
 21
-219.045
  0
LINE
  8
0
 10
-217.745
 20
-219.045
 11
-217.932
 21
-219.534
  0
LINE
  8
0
 10
-217.932
 20
-219.534
 11
-218.17
 21
-220
  0
LINE
  8
0
 10
-218.17
 20
-220
 11
-218.455
 21
-220.439
  0
LINE
  8
0
 10
-218.455
 20
-220.439
 11
-218.784
 21
-220.846
  0
LINE
  8
0
 10
-218.784
 20
-220.846
 11
-219.154
 21
-221.216
  0
LINE
  8
0
 10
-219.154
 20
-221.216
 11
-219.561
 21
-221.545
  0
LINE
  8
0
 10
-219.561
 20
-221.545
 11
-220
 21
-221.83
  0
LINE
  8
0
 10
-220
 20
-221.83
 11
-220.466
 21
-222.068
  0
LINE
  8
0
 10
-220.466
 20
-222.068
 11
-220.955
 21
-222.255
  0
LINE
  8
0
 10
-220.955
 20
-222.255
 11
-221.46
 21
-222.391
  0
LINE
  8
0
 10
-221.46
 20
-222.391
 11
-221.977
 21
-222.473
  0
LINE
  8
0
 10
-221.977
 20
-222.473
 11
-222.5
 21
-222.5
  0
LINE
  8
0
 10
-222.5
 20
-222.5
 11
-223.023
 21
-222.473
  0
LINE
  8
0
 10
221.977
 20
-222.473
 11
221.46
 21
-222.391
  0
LINE
  8
0
 10
221.46
 20
-222.391
 11
220.955
 21
-222.255
  0
LINE
  8
0
 10
220.955
 20
-222.255
 11
220.466
 21
-222.068
  0
LINE
  8
0
 10
220.466
 20
-222.068
 11
220
 21
-221.83
  0
LINE
  8
0
 10
220
 20
-221.83
 11
219.561
 21
-221.545
  0
LINE
  8
0
 10
219.561
 20
-221.545
 11
219.154
 21
-221.216
  0
LINE
  8
0
 10
219.154
 20
-221.216
 11
218.784
 21
-220.846
  0
LINE
  8
0
 10
218.784
 20
-220.846
 11
218.455
 21
-220.439
  0
LINE
  8
0
 10
218.455
 20
-220.439
 11
218.17
 21
-220
  0
LINE
  8
0
 10
218.17
 20
-220
 11
217.932
 21
-219.534
  0
LINE
  8
0
 10
217.932
 20
-219.534
 11
217.745
 21
-219.045
  0
LINE
  8
0
 10
217.745
 20
-219.045
 11
217.609
 21
-218.54
  0
LINE
  8
0
 10
217.609
 20
-218.54
 11
217.527
 21
-218.023
  0
LINE
  8
0
 10
217.527
 20
-218.023
 11
217.5
 21
-217.5
  0
LINE
  8
0
 10
217.5
 20
-217.5
 11
217.527
 21
-216.977
  0
LINE
  8
0
 10
217.527
 20
-216.977
 11
217.609
 21
-216.46
  0
LINE
  8
0
 10
217.609
 20
-216.46
 11
217.745
 21
-215.955
  0
LINE
  8
0
 10
217.745
 20
-215.955
 11
217.932
 21
-215.466
  0
LINE
  8
0
 10
217.932
 20
-215.466
 11
218.17
 21
-215
  0
LINE
  8
0
 10
218.17
 20
-215
 11
218.455
 21
-214.561
  0
LINE
  8
0
 10
218.455
 20
-214.561
 11
218.784
 21
-214.154
  0
LINE
  8
0
 10
218.784
 20
-214.154
 11
219.154
 21
-213.784
  0
LINE
  8
0
 10
219.154
 20
-213.784
 11
219.561
 21
-213.455
  0
LINE
  8
0
 10
219.561
 20
-213.455
 11
220
 21
-213.17
  0
LINE
  8
0
 10
220
 20
-213.17
 11
220.466
 21
-212.932
  0
LINE
  8
0
 10
220.466
 20
-212.932
 11
220.955
 21
-212.745
  0
LINE
  8
0
 10
220.955
 20
-212.745
 11
221.46
 21
-212.609
  0
LINE
  8
0
 10
221.46
 20
-212.609
 11
221.977
 21
-212.527
  0
LINE
  8
0
 10
221.977
 20
-212.527
 11
222.5
 21
-212.5
  0
LINE
  8
0
 10
222.5
 20
-212.5
 11
223.023
 21
-212.527
  0
LINE
  8
0
 10
223.023
 20
-212.527
 11
223.54
 21
-212.609
  0
LINE
  8
0
 10
223.54
 20
-212.609
 11
224.045
 21
-212.745
  0
LINE
  8
0
 10
224.045
 20
-212.745
 11
224.534
 21
-212.932
  0
LINE
  8
0
 10
224.534
 20
-212.932
 11
225
 21
-213.17
  0
LINE
  8
0
 10
225
 20
-213.17
 11
225.439
 21
-213.455
  0
LINE
  8
0
 10
225.439
 20
-213.455
 11
225.846
 21
-213.784
  0
LINE
  8
0
 10
225.846
 20
-213.784
 11
226.216
 21
-214.154
  0
LINE
  8
0
 10
226.216
 20
-214.154
 11
226.545
 21
-214.561
  0
LINE
  8
0
 10
226.545
 20
-214.561
 11
226.83
 21
-215
  0
LINE
  8
0
 10
226.83
 20
-215
 11
227.068
 21
-215.466
  0
LINE
  8
0
 10
227.068
 20
-215.466
 11
227.255
 21
-215.955
  0
LINE
  8
0
 10
227.255
 20
-215.955
 11
227.391
 21
-216.46
  0
LINE
  8
0
 10
227.391
 20
-216.46
 11
227.473
 21
-216.977
  0
LINE
  8
0
 10
227.473
 20
-216.977
 11
227.5
 21
-217.5
  0
LINE
  8
0
 10
227.5
 20
-217.5
 11
227.473
 21
-218.023
  0
LINE
  8
0
 10
227.473
 20
-218.023
 11
227.391
 21
-218.54
  0
LINE
  8
0
 10
227.391
 20
-218.54
 11
227.255
 21
-219.045
  0
LINE
  8
0
 10
227.255
 20
-219.045
 11
227.068
 21
-219.534
  0
LINE
  8
0
 10
227.068
 20
-219.534
 11
226.83
 21
-220
  0
LINE
  8
0
 10
226.83
 20
-220
 11
226.545
 21
-220.439
  0
LINE
  8
0
 10
226.545
 20
-220.439
 11
226.216
 21
-220.846
  0
LINE
  8
0
 10
226.216
 20
-220.846
 11
225.846
 21
-221.216
  0
LINE
  8
0
 10
225.846
 20
-221.216
 11
225.439
 21
-221.545
  0
LINE
  8
0
 10
225.439
 20
-221.545
 11
225
 21
-221.83
  0
LINE
  8
0
 10
225
 20
-221.83
 11
224.534
 21
-222.068
  0
LINE
  8
0
 10
224.534
 20
-222.068
 11
224.045
 21
-222.255
  0
LINE
  8
0
 10
224.045
 20
-222.255
 11
223.54
 21
-222.391
  0
LINE
  8
0
 10
223.54
 20
-222.391
 11
223.023
 21
-222.473
  0
LINE
  8
0
 10
223.023
 20
-222.473
 11
222.5
 21
-222.5
  0
LINE
  8
0
 10
222.5
 20
-222.5
 11
221.977
 21
-222.473
  0
LINE
  8
0
 10
-182.686
 20
-219.742
 11
-182.931
 21
-219.708
  0
LINE
  8
0
 10
-182.931
 20
-219.708
 11
-183.172
 21
-219.647
  0
LINE
  8
0
 10
-183.172
 20
-219.647
 11
-183.404
 21
-219.56
  0
LINE
  8
0
 10
-183.404
 20
-219.56
 11
-183.625
 21
-219.449
  0
LINE
  8
0
 10
-183.625
 20
-219.449
 11
-183.833
 21
-219.313
  0
LINE
  8
0
 10
-183.833
 20
-219.313
 11
-184.024
 21
-219.155
  0
LINE
  8
0
 10
-184.024
 20
-219.155
 11
-184.197
 21
-218.978
  0
LINE
  8
0
 10
-184.197
 20
-218.978
 11
-184.349
 21
-218.782
  0
LINE
  8
0
 10
-184.349
 20
-218.782
 11
-184.479
 21
-218.571
  0
LINE
  8
0
 10
-184.479
 20
-218.571
 11
-184.585
 21
-218.347
  0
LINE
  8
0
 10
-184.585
 20
-218.347
 11
-184.665
 21
-218.112
  0
LINE
  8
0
 10
-184.665
 20
-218.112
 11
-184.719
 21
-217.87
  0
LINE
  8
0
 10
-184.719
 20
-217.87
 11
-184.747
 21
-217.624
  0
LINE
  8
0
 10
-184.747
 20
-217.624
 11
-184.747
 21
-217.376
  0
LINE
  8
0
 10
-184.747
 20
-217.376
 11
-184.719
 21
-217.13
  0
LINE
  8
0
 10
-184.719
 20
-217.13
 11
-184.665
 21
-216.888
  0
LINE
  8
0
 10
-184.665
 20
-216.888
 11
-184.585
 21
-216.653
  0
LINE
  8
0
 10
-184.585
 20
-216.653
 11
-184.479
 21
-216.429
  0
LINE
  8
0
 10
-184.479
 20
-216.429
 11
-184.349
 21
-216.218
  0
LINE
  8
0
 10
-184.349
 20
-216.218
 11
-184.197
 21
-216.022
  0
LINE
  8
0
 10
-184.197
 20
-216.022
 11
-184.024
 21
-215.845
  0
LINE
  8
0
 10
-184.024
 20
-215.845
 11
-183.833
 21
-215.687
  0
LINE
  8
0
 10
-183.833
 20
-215.687
 11
-183.625
 21
-215.551
  0
LINE
  8
0
 10
-183.625
 20
-215.551
 11
-183.404
 21
-215.44
  0
LINE
  8
0
 10
-183.404
 20
-215.44
 11
-183.172
 21
-215.353
  0
LINE
  8
0
 10
-183.172
 20
-215.353
 11
-182.931
 21
-215.292
  0
LINE
  8
0
 10
-182.931
 20
-215.292
 11
-182.686
 21
-215.258
  0
LINE
  8
0
 10
-182.686
 20
-215.258
 11
-182.438
 21
-215.251
  0
LINE
  8
0
 10
-182.438
 20
-215.251
 11
-182.191
 21
-215.271
  0
LINE
  8
0
 10
-182.191
 20
-215.271
 11
-181.948
 21
-215.319
  0
LINE
  8
0
 10
-181.948
 20
-215.319
 11
-181.711
 21
-215.393
  0
LINE
  8
0
 10
-181.711
 20
-215.393
 11
-181.484
 21
-215.492
  0
LINE
  8
0
 10
-181.484
 20
-215.492
 11
-181.269
 21
-215.616
  0
LINE
  8
0
 10
-181.269
 20
-215.616
 11
-181.07
 21
-215.763
  0
LINE
  8
0
 10
-181.07
 20
-215.763
 11
-180.887
 21
-215.931
  0
LINE
  8
0
 10
-180.887
 20
-215.931
 11
-180.724
 21
-216.118
  0
LINE
  8
0
 10
-180.724
 20
-216.118
 11
-180.583
 21
-216.322
  0
LINE
  8
0
 10
-180.583
 20
-216.322
 11
-180.465
 21
-216.54
  0
LINE
  8
0
 10
-180.465
 20
-216.54
 11
-180.372
 21
-216.769
  0
LINE
  8
0
 10
-180.372
 20
-216.769
 11
-180.304
 21
-217.008
  0
LINE
  8
0
 10
-180.304
 20
-217.008
 11
-180.264
 21
-217.252
  0
LINE
  8
0
 10
-180.264
 20
-217.252
 11
-180.25
 21
-217.5
  0
LINE
  8
0
 10
-180.25
 20
-217.5
 11
-180.264
 21
-217.748
  0
LINE
  8
0
 10
-180.264
 20
-217.748
 11
-180.304
 21
-217.992
  0
LINE
  8
0
 10
-180.304
 20
-217.992
 11
-180.372
 21
-218.231
  0
LINE
  8
0
 10
-180.372
 20
-218.231
 11
-180.465
 21
-218.46
  0
LINE
  8
0
 10
-180.465
 20
-218.46
 11
-180.583
 21
-218.678
  0
LINE
  8
0
 10
-180.583
 20
-218.678
 11
-180.724
 21
-218.882
  0
LINE
  8
0
 10
-180.724
 20
-218.882
 11
-180.887
 21
-219.069
  0
LINE
  8
0
 10
-180.887
 20
-219.069
 11
-181.07
 21
-219.237
  0
LINE
  8
0
 10
-181.07
 20
-219.237
 11
-181.269
 21
-219.384
  0
LINE
  8
0
 10
-181.269
 20
-219.384
 11
-181.484
 21
-219.508
  0
LINE
  8
0
 10
-181.484
 20
-219.508
 11
-181.711
 21
-219.607
  0
LINE
  8
0
 10
-181.711
 20
-219.607
 11
-181.948
 21
-219.681
  0
LINE
  8
0
 10
-181.948
 20
-219.681
 11
-182.191
 21
-219.729
  0
LINE
  8
0
 10
-182.191
 20
-219.729
 11
-182.438
 21
-219.749
  0
LINE
  8
0
 10
-182.438
 20
-219.749
 11
-182.686
 21
-219.742
  0
LINE
  8
0
 10
-91.4358
 20
-219.742
 11
-91.6814
 21
-219.708
  0
LINE
  8
0
 10
-91.6814
 20
-219.708
 11
-91.9217
 21
-219.647
  0
LINE
  8
0
 10
-91.9217
 20
-219.647
 11
-92.1538
 21
-219.56
  0
LINE
  8
0
 10
-92.1538
 20
-219.56
 11
-92.375
 21
-219.449
  0
LINE
  8
0
 10
-92.375
 20
-219.449
 11
-92.5825
 21
-219.313
  0
LINE
  8
0
 10
-92.5825
 20
-219.313
 11
-92.7739
 21
-219.155
  0
LINE
  8
0
 10
-92.7739
 20
-219.155
 11
-92.9467
 21
-218.978
  0
LINE
  8
0
 10
-92.9467
 20
-218.978
 11
-93.099
 21
-218.782
  0
LINE
  8
0
 10
-93.099
 20
-218.782
 11
-93.2288
 21
-218.571
  0
LINE
  8
0
 10
-93.2288
 20
-218.571
 11
-93.3346
 21
-218.347
  0
LINE
  8
0
 10
-93.3346
 20
-218.347
 11
-93.4151
 21
-218.112
  0
LINE
  8
0
 10
-93.4151
 20
-218.112
 11
-93.4693
 21
-217.87
  0
LINE
  8
0
 10
-93.4693
 20
-217.87
 11
-93.4966
 21
-217.624
  0
LINE
  8
0
 10
-93.4966
 20
-217.624
 11
-93.4966
 21
-217.376
  0
LINE
  8
0
 10
-93.4966
 20
-217.376
 11
-93.4693
 21
-217.13
  0
LINE
  8
0
 10
-93.4693
 20
-217.13
 11
-93.4151
 21
-216.888
  0
LINE
  8
0
 10
-93.4151
 20
-216.888
 11
-93.3346
 21
-216.653
  0
LINE
  8
0
 10
-93.3346
 20
-216.653
 11
-93.2288
 21
-216.429
  0
LINE
  8
0
 10
-93.2288
 20
-216.429
 11
-93.099
 21
-216.218
  0
LINE
  8
0
 10
-93.099
 20
-216.218
 11
-92.9467
 21
-216.022
  0
LINE
  8
0
 10
-92.9467
 20
-216.022
 11
-92.7739
 21
-215.845
  0
LINE
  8
0
 10
-92.7739
 20
-215.845
 11
-92.5825
 21
-215.687
  0
LINE
  8
0
 10
-92.5825
 20
-215.687
 11
-92.375
 21
-215.551
  0
LINE
  8
0
 10
-92.375
 20
-215.551
 11
-92.1538
 21
-215.44
  0
LINE
  8
0
 10
-92.1538
 20
-215.44
 11
-91.9217
 21
-215.353
  0
LINE
  8
0
 10
-91.9217
 20
-215.353
 11
-91.6814
 21
-215.292
  0
LINE
  8
0
 10
-91.6814
 20
-215.292
 11
-91.4358
 21
-215.258
  0
LINE
  8
0
 10
-91.4358
 20
-215.258
 11
-91.188
 21
-215.251
  0
LINE
  8
0
 10
-91.188
 20
-215.251
 11
-90.9409
 21
-215.271
  0
LINE
  8
0
 10
-90.9409
 20
-215.271
 11
-90.6976
 21
-215.319
  0
LINE
  8
0
 10
-90.6976
 20
-215.319
 11
-90.4611
 21
-215.393
  0
LINE
  8
0
 10
-90.4611
 20
-215.393
 11
-90.234
 21
-215.492
  0
LINE
  8
0
 10
-90.234
 20
-215.492
 11
-90.0194
 21
-215.616
  0
LINE
  8
0
 10
-90.0194
 20
-215.616
 11
-89.8196
 21
-215.763
  0
LINE
  8
0
 10
-89.8196
 20
-215.763
 11
-89.6372
 21
-215.931
  0
LINE
  8
0
 10
-89.6372
 20
-215.931
 11
-89.4744
 21
-216.118
  0
LINE
  8
0
 10
-89.4744
 20
-216.118
 11
-89.3332
 21
-216.322
  0
LINE
  8
0
 10
-89.3332
 20
-216.322
 11
-89.2152
 21
-216.54
  0
LINE
  8
0
 10
-89.2152
 20
-216.54
 11
-89.1219
 21
-216.769
  0
LINE
  8
0
 10
-89.1219
 20
-216.769
 11
-89.0545
 21
-217.008
  0
LINE
  8
0
 10
-89.0545
 20
-217.008
 11
-89.0137
 21
-217.252
  0
LINE
  8
0
 10
-89.0137
 20
-217.252
 11
-89
 21
-217.5
  0
LINE
  8
0
 10
-89
 20
-217.5
 11
-89.0137
 21
-217.748
  0
LINE
  8
0
 10
-89.0137
 20
-217.748
 11
-89.0545
 21
-217.992
  0
LINE
  8
0
 10
-89.0545
 20
-217.992
 11
-89.1219
 21
-218.231
  0
LINE
  8
0
 10
-89.1219
 20
-218.231
 11
-89.2152
 21
-218.46
  0
LINE
  8
0
 10
-89.2152
 20
-218.46
 11
-89.3332
 21
-218.678
  0
LINE
  8
0
 10
-89.3332
 20
-218.678
 11
-89.4744
 21
-218.882
  0
LINE
  8
0
 10
-89.4744
 20
-218.882
 11
-89.6372
 21
-219.069
  0
LINE
  8
0
 10
-89.6372
 20
-219.069
 11
-89.8196
 21
-219.237
  0
LINE
  8
0
 10
-89.8196
 20
-219.237
 11
-90.0194
 21
-219.384
  0
LINE
  8
0
 10
-90.0194
 20
-219.384
 11
-90.234
 21
-219.508
  0
LINE
  8
0
 10
-90.234
 20
-219.508
 11
-90.4611
 21
-219.607
  0
LINE
  8
0
 10
-90.4611
 20
-219.607
 11
-90.6976
 21
-219.681
  0
LINE
  8
0
 10
-90.6976
 20
-219.681
 11
-90.9409
 21
-219.729
  0
LINE
  8
0
 10
-90.9409
 20
-219.729
 11
-91.188
 21
-219.749
  0
LINE
  8
0
 10
-91.188
 20
-219.749
 11
-91.4358
 21
-219.742
  0
LINE
  8
0
 10
91.0642
 20
-219.742
 11
90.8186
 21
-219.708
  0
LINE
  8
0
 10
90.8186
 20
-219.708
 11
90.5783
 21
-219.647
  0
LINE
  8
0
 10
90.5783
 20
-219.647
 11
90.3462
 21
-219.56
  0
LINE
  8
0
 10
90.3462
 20
-219.56
 11
90.125
 21
-219.449
  0
LINE
  8
0
 10
90.125
 20
-219.449
 11
89.9175
 21
-219.313
  0
LINE
  8
0
 10
89.9175
 20
-219.313
 11
89.7261
 21
-219.155
  0
LINE
  8
0
 10
89.7261
 20
-219.155
 11
89.5533
 21
-218.978
  0
LINE
  8
0
 10
89.5533
 20
-218.978
 11
89.401
 21
-218.782
  0
LINE
  8
0
 10
89.401
 20
-218.782
 11
89.2712
 21
-218.571
  0
LINE
  8
0
 10
89.2712
 20
-218.571
 11
89.1654
 21
-218.347
  0
LINE
  8
0
 10
89.1654
 20
-218.347
 11
89.0849
 21
-218.112
  0
LINE
  8
0
 10
89.0849
 20
-218.112
 11
89.0307
 21
-217.87
  0
LINE
  8
0
 10
89.0307
 20
-217.87
 11
89.0034
 21
-217.624
  0
LINE
  8
0
 10
89.0034
 20
-217.624
 11
89.0034
 21
-217.376
  0
LINE
  8
0
 10
89.0034
 20
-217.376
 11
89.0307
 21
-217.13
  0
LINE
  8
0
 10
89.0307
 20
-217.13
 11
89.0849
 21
-216.888
  0
LINE
  8
0
 10
89.0849
 20
-216.888
 11
89.1654
 21
-216.653
  0
LINE
  8
0
 10
89.1654
 20
-216.653
 11
89.2712
 21
-216.429
  0
LINE
  8
0
 10
89.2712
 20
-216.429
 11
89.401
 21
-216.218
  0
LINE
  8
0
 10
89.401
 20
-216.218
 11
89.5533
 21
-216.022
  0
LINE
  8
0
 10
89.5533
 20
-216.022
 11
89.7261
 21
-215.845
  0
LINE
  8
0
 10
89.7261
 20
-215.845
 11
89.9175
 21
-215.687
  0
LINE
  8
0
 10
89.9175
 20
-215.687
 11
90.125
 21
-215.551
  0
LINE
  8
0
 10
90.125
 20
-215.551
 11
90.3462
 21
-215.44
  0
LINE
  8
0
 10
90.3462
 20
-215.44
 11
90.5783
 21
-215.353
  0
LINE
  8
0
 10
90.5783
 20
-215.353
 11
90.8186
 21
-215.292
  0
LINE
  8
0
 10
90.8186
 20
-215.292
 11
91.0642
 21
-215.258
  0
LINE
  8
0
 10
91.0642
 20
-215.258
 11
91.312
 21
-215.251
  0
LINE
  8
0
 10
91.312
 20
-215.251
 11
91.559
 21
-215.271
  0
LINE
  8
0
 10
91.559
 20
-215.271
 11
91.8023
 21
-215.319
  0
LINE
  8
0
 10
91.8023
 20
-215.319
 11
92.0389
 21
-215.393
  0
LINE
  8
0
 10
92.0389
 20
-215.393
 11
92.2659
 21
-215.492
  0
LINE
  8
0
 10
92.2659
 20
-215.492
 11
92.4806
 21
-215.616
  0
LINE
  8
0
 10
92.4806
 20
-215.616
 11
92.6804
 21
-215.763
  0
LINE
  8
0
 10
92.6804
 20
-215.763
 11
92.8628
 21
-215.931
  0
LINE
  8
0
 10
92.8628
 20
-215.931
 11
93.0256
 21
-216.118
  0
LINE
  8
0
 10
93.0256
 20
-216.118
 11
93.1668
 21
-216.322
  0
LINE
  8
0
 10
93.1668
 20
-216.322
 11
93.2848
 21
-216.54
  0
LINE
  8
0
 10
93.2848
 20
-216.54
 11
93.3781
 21
-216.769
  0
LINE
  8
0
 10
93.3781
 20
-216.769
 11
93.4455
 21
-217.008
  0
LINE
  8
0
 10
93.4455
 20
-217.008
 11
93.4863
 21
-217.252
  0
LINE
  8
0
 10
93.4863
 20
-217.252
 11
93.5
 21
-217.5
  0
LINE
  8
0
 10
93.5
 20
-217.5
 11
93.4863
 21
-217.748
  0
LINE
  8
0
 10
93.4863
 20
-217.748
 11
93.4455
 21
-217.992
  0
LINE
  8
0
 10
93.4455
 20
-217.992
 11
93.3781
 21
-218.231
  0
LINE
  8
0
 10
93.3781
 20
-218.231
 11
93.2848
 21
-218.46
  0
LINE
  8
0
 10
93.2848
 20
-218.46
 11
93.1668
 21
-218.678
  0
LINE
  8
0
 10
93.1668
 20
-218.678
 11
93.0256
 21
-218.882
  0
LINE
  8
0
 10
93.0256
 20
-218.882
 11
92.8628
 21
-219.069
  0
LINE
  8
0
 10
92.8628
 20
-219.069
 11
92.6804
 21
-219.237
  0
LINE
  8
0
 10
92.6804
 20
-219.237
 11
92.4806
 21
-219.384
  0
LINE
  8
0
 10
92.4806
 20
-219.384
 11
92.2659
 21
-219.508
  0
LINE
  8
0
 10
92.2659
 20
-219.508
 11
92.0389
 21
-219.607
  0
LINE
  8
0
 10
92.0389
 20
-219.607
 11
91.8023
 21
-219.681
  0
LINE
  8
0
 10
91.8023
 20
-219.681
 11
91.559
 21
-219.729
  0
LINE
  8
0
 10
91.559
 20
-219.729
 11
91.312
 21
-219.749
  0
LINE
  8
0
 10
91.312
 20
-219.749
 11
91.0642
 21
-219.742
  0
LINE
  8
0
 10
182.314
 20
-219.742
 11
182.069
 21
-219.708
  0
LINE
  8
0
 10
182.069
 20
-219.708
 11
181.828
 21
-219.647
  0
LINE
  8
0
 10
181.828
 20
-219.647
 11
181.596
 21
-219.56
  0
LINE
  8
0
 10
181.596
 20
-219.56
 11
181.375
 21
-219.449
  0
LINE
  8
0
 10
181.375
 20
-219.449
 11
181.167
 21
-219.313
  0
LINE
  8
0
 10
181.167
 20
-219.313
 11
180.976
 21
-219.155
  0
LINE
  8
0
 10
180.976
 20
-219.155
 11
180.803
 21
-218.978
  0
LINE
  8
0
 10
180.803
 20
-218.978
 11
180.651
 21
-218.782
  0
LINE
  8
0
 10
180.651
 20
-218.782
 11
180.521
 21
-218.571
  0
LINE
  8
0
 10
180.521
 20
-218.571
 11
180.415
 21
-218.347
  0
LINE
  8
0
 10
180.415
 20
-218.347
 11
180.335
 21
-218.112
  0
LINE
  8
0
 10
180.335
 20
-218.112
 11
180.281
 21
-217.87
  0
LINE
  8
0
 10
180.281
 20
-217.87
 11
180.253
 21
-217.624
  0
LINE
  8
0
 10
180.253
 20
-217.624
 11
180.253
 21
-217.376
  0
LINE
  8
0
 10
180.253
 20
-217.376
 11
180.281
 21
-217.13
  0
LINE
  8
0
 10
180.281
 20
-217.13
 11
180.335
 21
-216.888
  0
LINE
  8
0
 10
180.335
 20
-216.888
 11
180.415
 21
-216.653
  0
LINE
  8
0
 10
180.415
 20
-216.653
 11
180.521
 21
-216.429
  0
LINE
  8
0
 10
180.521
 20
-216.429
 11
180.651
 21
-216.218
  0
LINE
  8
0
 10
180.651
 20
-216.218
 11
180.803
 21
-216.022
  0
LINE
  8
0
 10
180.803
 20
-216.022
 11
180.976
 21
-215.845
  0
LINE
  8
0
 10
180.976
 20
-215.845
 11
181.167
 21
-215.687
  0
LINE
  8
0
 10
181.167
 20
-215.687
 11
181.375
 21
-215.551
  0
LINE
  8
0
 10
181.375
 20
-215.551
 11
181.596
 21
-215.44
  0
LINE
  8
0
 10
181.596
 20
-215.44
 11
181.828
 21
-215.353
  0
LINE
  8
0
 10
181.828
 20
-215.353
 11
182.069
 21
-215.292
  0
LINE
  8
0
 10
182.069
 20
-215.292
 11
182.314
 21
-215.258
  0
LINE
  8
0
 10
182.314
 20
-215.258
 11
182.562
 21
-215.251
  0
LINE
  8
0
 10
182.562
 20
-215.251
 11
182.809
 21
-215.271
  0
LINE
  8
0
 10
182.809
 20
-215.271
 11
183.052
 21
-215.319
  0
LINE
  8
0
 10
183.052
 20
-215.319
 11
183.289
 21
-215.393
  0
LINE
  8
0
 10
183.289
 20
-215.393
 11
183.516
 21
-215.492
  0
LINE
  8
0
 10
183.516
 20
-215.492
 11
183.731
 21
-215.616
  0
LINE
  8
0
 10
183.731
 20
-215.616
 11
183.93
 21
-215.763
  0
LINE
  8
0
 10
183.93
 20
-215.763
 11
184.113
 21
-215.931
  0
LINE
  8
0
 10
184.113
 20
-215.931
 11
184.276
 21
-216.118
  0
LINE
  8
0
 10
184.276
 20
-216.118
 11
184.417
 21
-216.322
  0
LINE
  8
0
 10
184.417
 20
-216.322
 11
184.535
 21
-216.54
  0
LINE
  8
0
 10
184.535
 20
-216.54
 11
184.628
 21
-216.769
  0
LINE
  8
0
 10
184.628
 20
-216.769
 11
184.696
 21
-217.008
  0
LINE
  8
0
 10
184.696
 20
-217.008
 11
184.736
 21
-217.252
  0
LINE
  8
0
 10
184.736
 20
-217.252
 11
184.75
 21
-217.5
  0
LINE
  8
0
 10
184.75
 20
-217.5
 11
184.736
 21
-217.748
  0
LINE
  8
0
 10
184.736
 20
-217.748
 11
184.696
 21
-217.992
  0
LINE
  8
0
 10
184.696
 20
-217.992
 11
184.628
 21
-218.231
  0
LINE
  8
0
 10
184.628
 20
-218.231
 11
184.535
 21
-218.46
  0
LINE
  8
0
 10
184.535
 20
-218.46
 11
184.417
 21
-218.678
  0
LINE
  8
0
 10
184.417
 20
-218.678
 11
184.276
 21
-218.882
  0
LINE
  8
0
 10
184.276
 20
-218.882
 11
184.113
 21
-219.069
  0
LINE
  8
0
 10
184.113
 20
-219.069
 11
183.93
 21
-219.237
  0
LINE
  8
0
 10
183.93
 20
-219.237
 11
183.731
 21
-219.384
  0
LINE
  8
0
 10
183.731
 20
-219.384
 11
183.516
 21
-219.508
  0
LINE
  8
0
 10
183.516
 20
-219.508
 11
183.289
 21
-219.607
  0
LINE
  8
0
 10
183.289
 20
-219.607
 11
183.052
 21
-219.681
  0
LINE
  8
0
 10
183.052
 20
-219.681
 11
182.809
 21
-219.729
  0
LINE
  8
0
 10
182.809
 20
-219.729
 11
182.562
 21
-219.749
  0
LINE
  8
0
 10
182.562
 20
-219.749
 11
182.314
 21
-219.742
  0
LINE
  8
0
 10
-0.185791
 20
-219.742
 11
-0.431335
 21
-219.708
  0
LINE
  8
0
 10
-0.431335
 20
-219.708
 11
-0.671646
 21
-219.647
  0
LINE
  8
0
 10
-0.671646
 20
-219.647
 11
-0.903809
 21
-219.56
  0
LINE
  8
0
 10
-0.903809
 20
-219.56
 11
-1.125
 21
-219.449
  0
LINE
  8
0
 10
-1.125
 20
-219.449
 11
-1.33252
 21
-219.313
  0
LINE
  8
0
 10
-1.33252
 20
-219.313
 11
-1.52388
 21
-219.155
  0
LINE
  8
0
 10
-1.52388
 20
-219.155
 11
-1.69673
 21
-218.978
  0
LINE
  8
0
 10
-1.69673
 20
-218.978
 11
-1.849
 21
-218.782
  0
LINE
  8
0
 10
-1.849
 20
-218.782
 11
-1.97881
 21
-218.571
  0
LINE
  8
0
 10
-1.97881
 20
-218.571
 11
-2.08461
 21
-218.347
  0
LINE
  8
0
 10
-2.08461
 20
-218.347
 11
-2.1651
 21
-218.112
  0
LINE
  8
0
 10
-2.1651
 20
-218.112
 11
-2.2193
 21
-217.87
  0
LINE
  8
0
 10
-2.2193
 20
-217.87
 11
-2.24658
 21
-217.624
  0
LINE
  8
0
 10
-2.24658
 20
-217.624
 11
-2.24658
 21
-217.376
  0
LINE
  8
0
 10
-2.24658
 20
-217.376
 11
-2.2193
 21
-217.13
  0
LINE
  8
0
 10
-2.2193
 20
-217.13
 11
-2.1651
 21
-216.888
  0
LINE
  8
0
 10
-2.1651
 20
-216.888
 11
-2.08461
 21
-216.653
  0
LINE
  8
0
 10
-2.08461
 20
-216.653
 11
-1.97881
 21
-216.429
  0
LINE
  8
0
 10
-1.97881
 20
-216.429
 11
-1.849
 21
-216.218
  0
LINE
  8
0
 10
-1.849
 20
-216.218
 11
-1.69673
 21
-216.022
  0
LINE
  8
0
 10
-1.69673
 20
-216.022
 11
-1.52388
 21
-215.845
  0
LINE
  8
0
 10
-1.52388
 20
-215.845
 11
-1.33252
 21
-215.687
  0
LINE
  8
0
 10
-1.33252
 20
-215.687
 11
-1.125
 21
-215.551
  0
LINE
  8
0
 10
-1.125
 20
-215.551
 11
-0.903809
 21
-215.44
  0
LINE
  8
0
 10
-0.903809
 20
-215.44
 11
-0.671646
 21
-215.353
  0
LINE
  8
0
 10
-0.671646
 20
-215.353
 11
-0.431335
 21
-215.292
  0
LINE
  8
0
 10
-0.431335
 20
-215.292
 11
-0.185791
 21
-215.258
  0
LINE
  8
0
 10
-0.185791
 20
-215.258
 11
0.0619965
 21
-215.251
  0
LINE
  8
0
 10
0.0619965
 20
-215.251
 11
0.309036
 21
-215.271
  0
LINE
  8
0
 10
0.309036
 20
-215.271
 11
0.552338
 21
-215.319
  0
LINE
  8
0
 10
0.552338
 20
-215.319
 11
0.788925
 21
-215.393
  0
LINE
  8
0
 10
0.788925
 20
-215.393
 11
1.01595
 21
-215.492
  0
LINE
  8
0
 10
1.01595
 20
-215.492
 11
1.23062
 21
-215.616
  0
LINE
  8
0
 10
1.23062
 20
-215.616
 11
1.43037
 21
-215.763
  0
LINE
  8
0
 10
1.43037
 20
-215.763
 11
1.61275
 21
-215.931
  0
LINE
  8
0
 10
1.61275
 20
-215.931
 11
1.77556
 21
-216.118
  0
LINE
  8
0
 10
1.77556
 20
-216.118
 11
1.91681
 21
-216.322
  0
LINE
  8
0
 10
1.91681
 20
-216.322
 11
2.03479
 21
-216.54
  0
LINE
  8
0
 10
2.03479
 20
-216.54
 11
2.12808
 21
-216.769
  0
LINE
  8
0
 10
2.12808
 20
-216.769
 11
2.19554
 21
-217.008
  0
LINE
  8
0
 10
2.19554
 20
-217.008
 11
2.23634
 21
-217.252
  0
LINE
  8
0
 10
2.23634
 20
-217.252
 11
2.25
 21
-217.5
  0
LINE
  8
0
 10
2.25
 20
-217.5
 11
2.23634
 21
-217.748
  0
LINE
  8
0
 10
2.23634
 20
-217.748
 11
2.19554
 21
-217.992
  0
LINE
  8
0
 10
2.19554
 20
-217.992
 11
2.12808
 21
-218.231
  0
LINE
  8
0
 10
2.12808
 20
-218.231
 11
2.03479
 21
-218.46
  0
LINE
  8
0
 10
2.03479
 20
-218.46
 11
1.91681
 21
-218.678
  0
LINE
  8
0
 10
1.91681
 20
-218.678
 11
1.77556
 21
-218.882
  0
LINE
  8
0
 10
1.77556
 20
-218.882
 11
1.61275
 21
-219.069
  0
LINE
  8
0
 10
1.61275
 20
-219.069
 11
1.43037
 21
-219.237
  0
LINE
  8
0
 10
1.43037
 20
-219.237
 11
1.23062
 21
-219.384
  0
LINE
  8
0
 10
1.23062
 20
-219.384
 11
1.01595
 21
-219.508
  0
LINE
  8
0
 10
1.01595
 20
-219.508
 11
0.788925
 21
-219.607
  0
LINE
  8
0
 10
0.788925
 20
-219.607
 11
0.552338
 21
-219.681
  0
LINE
  8
0
 10
0.552338
 20
-219.681
 11
0.309036
 21
-219.729
  0
LINE
  8
0
 10
0.309036
 20
-219.729
 11
0.0619965
 21
-219.749
  0
LINE
  8
0
 10
0.0619965
 20
-219.749
 11
-0.185791
 21
-219.742
  0
ENDSEC
  0
SECTION
  2
OBJECTS
  0
DICTIONARY
  0
ENDSEC
  0
EOF
