  0
SECTION
  2
BLOCKS
  0
ENDSEC
  0
SECTION
  2
ENTITIES
  0
LINE
  8
0
 10
320.398
 20
-89.8476
 11
320.915
 21
-89.7657
  0
LINE
  8
0
 10
320.915
 20
-89.7657
 11
321.42
 21
-89.6303
  0
LINE
  8
0
 10
321.42
 20
-89.6303
 11
321.909
 21
-89.4427
  0
LINE
  8
0
 10
321.909
 20
-89.4427
 11
322.375
 21
-89.2051
  0
LINE
  8
0
 10
322.375
 20
-89.2051
 11
322.814
 21
-88.9201
  0
LINE
  8
0
 10
322.814
 20
-88.9201
 11
323.221
 21
-88.5907
  0
LINE
  8
0
 10
323.221
 20
-88.5907
 11
323.591
 21
-88.2207
  0
LINE
  8
0
 10
323.591
 20
-88.2207
 11
323.92
 21
-87.8139
  0
LINE
  8
0
 10
323.92
 20
-87.8139
 11
324.205
 21
-87.375
  0
LINE
  8
0
 10
324.205
 20
-87.375
 11
324.443
 21
-86.9087
  0
LINE
  8
0
 10
324.443
 20
-86.9087
 11
324.63
 21
-86.4201
  0
LINE
  8
0
 10
324.63
 20
-86.4201
 11
324.766
 21
-85.9146
  0
LINE
  8
0
 10
324.766
 20
-85.9146
 11
324.848
 21
-85.3976
  0
LINE
  8
0
 10
324.848
 20
-85.3976
 11
324.875
 21
-84.875
  0
LINE
  8
0
 10
324.875
 20
-84.875
 11
324.875
 21
84.875
  0
LINE
  8
0
 10
324.875
 20
84.875
 11
324.848
 21
85.3976
  0
LINE
  8
0
 10
324.848
 20
85.3976
 11
324.766
 21
85.9146
  0
LINE
  8
0
 10
324.766
 20
85.9146
 11
324.63
 21
86.4201
  0
LINE
  8
0
 10
324.63
 20
86.4201
 11
324.443
 21
86.9087
  0
LINE
  8
0
 10
324.443
 20
86.9087
 11
324.205
 21
87.375
  0
LINE
  8
0
 10
324.205
 20
87.375
 11
323.92
 21
87.8139
  0
LINE
  8
0
 10
323.92
 20
87.8139
 11
323.591
 21
88.2207
  0
LINE
  8
0
 10
323.591
 20
88.2207
 11
323.221
 21
88.5907
  0
LINE
  8
0
 10
323.221
 20
88.5907
 11
322.814
 21
88.9201
  0
LINE
  8
0
 10
322.814
 20
88.9201
 11
322.375
 21
89.2051
  0
LINE
  8
0
 10
322.375
 20
89.2051
 11
321.909
 21
89.4427
  0
LINE
  8
0
 10
321.909
 20
89.4427
 11
321.42
 21
89.6303
  0
LINE
  8
0
 10
321.42
 20
89.6303
 11
320.915
 21
89.7657
  0
LINE
  8
0
 10
320.915
 20
89.7657
 11
320.398
 21
89.8476
  0
LINE
  8
0
 10
320.398
 20
89.8476
 11
319.875
 21
89.875
  0
LINE
  8
0
 10
319.875
 20
89.875
 11
-319.875
 21
89.875
  0
LINE
  8
0
 10
-319.875
 20
89.875
 11
-320.398
 21
89.8476
  0
LINE
  8
0
 10
-320.398
 20
89.8476
 11
-320.915
 21
89.7657
  0
LINE
  8
0
 10
-320.915
 20
89.7657
 11
-321.42
 21
89.6303
  0
LINE
  8
0
 10
-321.42
 20
89.6303
 11
-321.909
 21
89.4427
  0
LINE
  8
0
 10
-321.909
 20
89.4427
 11
-322.375
 21
89.2051
  0
LINE
  8
0
 10
-322.375
 20
89.2051
 11
-322.814
 21
88.9201
  0
LINE
  8
0
 10
-322.814
 20
88.9201
 11
-323.221
 21
88.5907
  0
LINE
  8
0
 10
-323.221
 20
88.5907
 11
-323.591
 21
88.2207
  0
LINE
  8
0
 10
-323.591
 20
88.2207
 11
-323.92
 21
87.8139
  0
LINE
  8
0
 10
-323.92
 20
87.8139
 11
-324.205
 21
87.375
  0
LINE
  8
0
 10
-324.205
 20
87.375
 11
-324.443
 21
86.9087
  0
LINE
  8
0
 10
-324.443
 20
86.9087
 11
-324.63
 21
86.4201
  0
LINE
  8
0
 10
-324.63
 20
86.4201
 11
-324.766
 21
85.9146
  0
LINE
  8
0
 10
-324.766
 20
85.9146
 11
-324.848
 21
85.3976
  0
LINE
  8
0
 10
-324.848
 20
85.3976
 11
-324.875
 21
84.875
  0
LINE
  8
0
 10
-324.875
 20
84.875
 11
-324.875
 21
-84.875
  0
LINE
  8
0
 10
-324.875
 20
-84.875
 11
-324.848
 21
-85.3976
  0
LINE
  8
0
 10
-324.848
 20
-85.3976
 11
-324.766
 21
-85.9146
  0
LINE
  8
0
 10
-324.766
 20
-85.9146
 11
-324.63
 21
-86.4201
  0
LINE
  8
0
 10
-324.63
 20
-86.4201
 11
-324.443
 21
-86.9087
  0
LINE
  8
0
 10
-324.443
 20
-86.9087
 11
-324.205
 21
-87.375
  0
LINE
  8
0
 10
-324.205
 20
-87.375
 11
-323.92
 21
-87.8139
  0
LINE
  8
0
 10
-323.92
 20
-87.8139
 11
-323.591
 21
-88.2207
  0
LINE
  8
0
 10
-323.591
 20
-88.2207
 11
-323.221
 21
-88.5907
  0
LINE
  8
0
 10
-323.221
 20
-88.5907
 11
-322.814
 21
-88.9201
  0
LINE
  8
0
 10
-322.814
 20
-88.9201
 11
-322.375
 21
-89.2051
  0
LINE
  8
0
 10
-322.375
 20
-89.2051
 11
-321.909
 21
-89.4427
  0
LINE
  8
0
 10
-321.909
 20
-89.4427
 11
-321.42
 21
-89.6303
  0
LINE
  8
0
 10
-321.42
 20
-89.6303
 11
-320.915
 21
-89.7657
  0
LINE
  8
0
 10
-320.915
 20
-89.7657
 11
-320.398
 21
-89.8476
  0
LINE
  8
0
 10
-320.398
 20
-89.8476
 11
-319.875
 21
-89.875
  0
LINE
  8
0
 10
-319.875
 20
-89.875
 11
319.875
 21
-89.875
  0
LINE
  8
0
 10
319.875
 20
-89.875
 11
320.398
 21
-89.8476
  0
LINE
  8
0
 10
314.477
 20
75.0274
 11
313.96
 21
75.1093
  0
LINE
  8
0
 10
313.96
 20
75.1093
 11
313.455
 21
75.2447
  0
LINE
  8
0
 10
313.455
 20
75.2447
 11
312.966
 21
75.4323
  0
LINE
  8
0
 10
312.966
 20
75.4323
 11
312.5
 21
75.6699
  0
LINE
  8
0
 10
312.5
 20
75.6699
 11
312.061
 21
75.9549
  0
LINE
  8
0
 10
312.061
 20
75.9549
 11
311.654
 21
76.2843
  0
LINE
  8
0
 10
311.654
 20
76.2843
 11
311.284
 21
76.6543
  0
LINE
  8
0
 10
311.284
 20
76.6543
 11
310.955
 21
77.0611
  0
LINE
  8
0
 10
310.955
 20
77.0611
 11
310.67
 21
77.5
  0
LINE
  8
0
 10
310.67
 20
77.5
 11
310.432
 21
77.9663
  0
LINE
  8
0
 10
310.432
 20
77.9663
 11
310.245
 21
78.4549
  0
LINE
  8
0
 10
310.245
 20
78.4549
 11
310.109
 21
78.9604
  0
LINE
  8
0
 10
310.109
 20
78.9604
 11
310.027
 21
79.4774
  0
LINE
  8
0
 10
310.027
 20
79.4774
 11
310
 21
80
  0
LINE
  8
0
 10
310
 20
80
 11
310.027
 21
80.5226
  0
LINE
  8
0
 10
310.027
 20
80.5226
 11
310.109
 21
81.0396
  0
LINE
  8
0
 10
310.109
 20
81.0396
 11
310.245
 21
81.5451
  0
LINE
  8
0
 10
310.245
 20
81.5451
 11
310.432
 21
82.0337
  0
LINE
  8
0
 10
310.432
 20
82.0337
 11
310.67
 21
82.5
  0
LINE
  8
0
 10
310.67
 20
82.5
 11
310.955
 21
82.9389
  0
LINE
  8
0
 10
310.955
 20
82.9389
 11
311.284
 21
83.3456
  0
LINE
  8
0
 10
311.284
 20
83.3456
 11
311.654
 21
83.7157
  0
LINE
  8
0
 10
311.654
 20
83.7157
 11
312.061
 21
84.0451
  0
LINE
  8
0
 10
312.061
 20
84.0451
 11
312.5
 21
84.3301
  0
LINE
  8
0
 10
312.5
 20
84.3301
 11
312.966
 21
84.5677
  0
LINE
  8
0
 10
312.966
 20
84.5677
 11
313.455
 21
84.7553
  0
LINE
  8
0
 10
313.455
 20
84.7553
 11
313.96
 21
84.8907
  0
LINE
  8
0
 10
313.96
 20
84.8907
 11
314.477
 21
84.9726
  0
LINE
  8
0
 10
314.477
 20
84.9726
 11
315
 21
85
  0
LINE
  8
0
 10
315
 20
85
 11
315.523
 21
84.9726
  0
LINE
  8
0
 10
315.523
 20
84.9726
 11
316.04
 21
84.8907
  0
LINE
  8
0
 10
316.04
 20
84.8907
 11
316.545
 21
84.7553
  0
LINE
  8
0
 10
316.545
 20
84.7553
 11
317.034
 21
84.5677
  0
LINE
  8
0
 10
317.034
 20
84.5677
 11
317.5
 21
84.3301
  0
LINE
  8
0
 10
317.5
 20
84.3301
 11
317.939
 21
84.0451
  0
LINE
  8
0
 10
317.939
 20
84.0451
 11
318.346
 21
83.7157
  0
LINE
  8
0
 10
318.346
 20
83.7157
 11
318.716
 21
83.3456
  0
LINE
  8
0
 10
318.716
 20
83.3456
 11
319.045
 21
82.9389
  0
LINE
  8
0
 10
319.045
 20
82.9389
 11
319.33
 21
82.5
  0
LINE
  8
0
 10
319.33
 20
82.5
 11
319.568
 21
82.0337
  0
LINE
  8
0
 10
319.568
 20
82.0337
 11
319.755
 21
81.5451
  0
LINE
  8
0
 10
319.755
 20
81.5451
 11
319.891
 21
81.0396
  0
LINE
  8
0
 10
319.891
 20
81.0396
 11
319.973
 21
80.5226
  0
LINE
  8
0
 10
319.973
 20
80.5226
 11
320
 21
80
  0
LINE
  8
0
 10
320
 20
80
 11
319.973
 21
79.4774
  0
LINE
  8
0
 10
319.973
 20
79.4774
 11
319.891
 21
78.9604
  0
LINE
  8
0
 10
319.891
 20
78.9604
 11
319.755
 21
78.4549
  0
LINE
  8
0
 10
319.755
 20
78.4549
 11
319.568
 21
77.9663
  0
LINE
  8
0
 10
319.568
 20
77.9663
 11
319.33
 21
77.5
  0
LINE
  8
0
 10
319.33
 20
77.5
 11
319.045
 21
77.0611
  0
LINE
  8
0
 10
319.045
 20
77.0611
 11
318.716
 21
76.6543
  0
LINE
  8
0
 10
318.716
 20
76.6543
 11
318.346
 21
76.2843
  0
LINE
  8
0
 10
318.346
 20
76.2843
 11
317.939
 21
75.9549
  0
LINE
  8
0
 10
317.939
 20
75.9549
 11
317.5
 21
75.6699
  0
LINE
  8
0
 10
317.5
 20
75.6699
 11
317.034
 21
75.4323
  0
LINE
  8
0
 10
317.034
 20
75.4323
 11
316.545
 21
75.2447
  0
LINE
  8
0
 10
316.545
 20
75.2447
 11
316.04
 21
75.1093
  0
LINE
  8
0
 10
316.04
 20
75.1093
 11
315.523
 21
75.0274
  0
LINE
  8
0
 10
315.523
 20
75.0274
 11
315
 21
75
  0
LINE
  8
0
 10
315
 20
75
 11
314.477
 21
75.0274
  0
LINE
  8
0
 10
-315.523
 20
75.0274
 11
-316.04
 21
75.1093
  0
LINE
  8
0
 10
-316.04
 20
75.1093
 11
-316.545
 21
75.2447
  0
LINE
  8
0
 10
-316.545
 20
75.2447
 11
-317.034
 21
75.4323
  0
LINE
  8
0
 10
-317.034
 20
75.4323
 11
-317.5
 21
75.6699
  0
LINE
  8
0
 10
-317.5
 20
75.6699
 11
-317.939
 21
75.9549
  0
LINE
  8
0
 10
-317.939
 20
75.9549
 11
-318.346
 21
76.2843
  0
LINE
  8
0
 10
-318.346
 20
76.2843
 11
-318.716
 21
76.6543
  0
LINE
  8
0
 10
-318.716
 20
76.6543
 11
-319.045
 21
77.0611
  0
LINE
  8
0
 10
-319.045
 20
77.0611
 11
-319.33
 21
77.5
  0
LINE
  8
0
 10
-319.33
 20
77.5
 11
-319.568
 21
77.9663
  0
LINE
  8
0
 10
-319.568
 20
77.9663
 11
-319.755
 21
78.4549
  0
LINE
  8
0
 10
-319.755
 20
78.4549
 11
-319.891
 21
78.9604
  0
LINE
  8
0
 10
-319.891
 20
78.9604
 11
-319.973
 21
79.4774
  0
LINE
  8
0
 10
-319.973
 20
79.4774
 11
-320
 21
80
  0
LINE
  8
0
 10
-320
 20
80
 11
-319.973
 21
80.5226
  0
LINE
  8
0
 10
-319.973
 20
80.5226
 11
-319.891
 21
81.0396
  0
LINE
  8
0
 10
-319.891
 20
81.0396
 11
-319.755
 21
81.5451
  0
LINE
  8
0
 10
-319.755
 20
81.5451
 11
-319.568
 21
82.0337
  0
LINE
  8
0
 10
-319.568
 20
82.0337
 11
-319.33
 21
82.5
  0
LINE
  8
0
 10
-319.33
 20
82.5
 11
-319.045
 21
82.9389
  0
LINE
  8
0
 10
-319.045
 20
82.9389
 11
-318.716
 21
83.3456
  0
LINE
  8
0
 10
-318.716
 20
83.3456
 11
-318.346
 21
83.7157
  0
LINE
  8
0
 10
-318.346
 20
83.7157
 11
-317.939
 21
84.0451
  0
LINE
  8
0
 10
-317.939
 20
84.0451
 11
-317.5
 21
84.3301
  0
LINE
  8
0
 10
-317.5
 20
84.3301
 11
-317.034
 21
84.5677
  0
LINE
  8
0
 10
-317.034
 20
84.5677
 11
-316.545
 21
84.7553
  0
LINE
  8
0
 10
-316.545
 20
84.7553
 11
-316.04
 21
84.8907
  0
LINE
  8
0
 10
-316.04
 20
84.8907
 11
-315.523
 21
84.9726
  0
LINE
  8
0
 10
-315.523
 20
84.9726
 11
-315
 21
85
  0
LINE
  8
0
 10
-315
 20
85
 11
-314.477
 21
84.9726
  0
LINE
  8
0
 10
-314.477
 20
84.9726
 11
-313.96
 21
84.8907
  0
LINE
  8
0
 10
-313.96
 20
84.8907
 11
-313.455
 21
84.7553
  0
LINE
  8
0
 10
-313.455
 20
84.7553
 11
-312.966
 21
84.5677
  0
LINE
  8
0
 10
-312.966
 20
84.5677
 11
-312.5
 21
84.3301
  0
LINE
  8
0
 10
-312.5
 20
84.3301
 11
-312.061
 21
84.0451
  0
LINE
  8
0
 10
-312.061
 20
84.0451
 11
-311.654
 21
83.7157
  0
LINE
  8
0
 10
-311.654
 20
83.7157
 11
-311.284
 21
83.3456
  0
LINE
  8
0
 10
-311.284
 20
83.3456
 11
-310.955
 21
82.9389
  0
LINE
  8
0
 10
-310.955
 20
82.9389
 11
-310.67
 21
82.5
  0
LINE
  8
0
 10
-310.67
 20
82.5
 11
-310.432
 21
82.0337
  0
LINE
  8
0
 10
-310.432
 20
82.0337
 11
-310.245
 21
81.5451
  0
LINE
  8
0
 10
-310.245
 20
81.5451
 11
-310.109
 21
81.0396
  0
LINE
  8
0
 10
-310.109
 20
81.0396
 11
-310.027
 21
80.5226
  0
LINE
  8
0
 10
-310.027
 20
80.5226
 11
-310
 21
80
  0
LINE
  8
0
 10
-310
 20
80
 11
-310.027
 21
79.4774
  0
LINE
  8
0
 10
-310.027
 20
79.4774
 11
-310.109
 21
78.9604
  0
LINE
  8
0
 10
-310.109
 20
78.9604
 11
-310.245
 21
78.4549
  0
LINE
  8
0
 10
-310.245
 20
78.4549
 11
-310.432
 21
77.9663
  0
LINE
  8
0
 10
-310.432
 20
77.9663
 11
-310.67
 21
77.5
  0
LINE
  8
0
 10
-310.67
 20
77.5
 11
-310.955
 21
77.0611
  0
LINE
  8
0
 10
-310.955
 20
77.0611
 11
-311.284
 21
76.6543
  0
LINE
  8
0
 10
-311.284
 20
76.6543
 11
-311.654
 21
76.2843
  0
LINE
  8
0
 10
-311.654
 20
76.2843
 11
-312.061
 21
75.9549
  0
LINE
  8
0
 10
-312.061
 20
75.9549
 11
-312.5
 21
75.6699
  0
LINE
  8
0
 10
-312.5
 20
75.6699
 11
-312.966
 21
75.4323
  0
LINE
  8
0
 10
-312.966
 20
75.4323
 11
-313.455
 21
75.2447
  0
LINE
  8
0
 10
-313.455
 20
75.2447
 11
-313.96
 21
75.1093
  0
LINE
  8
0
 10
-313.96
 20
75.1093
 11
-314.477
 21
75.0274
  0
LINE
  8
0
 10
-314.477
 20
75.0274
 11
-315
 21
75
  0
LINE
  8
0
 10
-315
 20
75
 11
-315.523
 21
75.0274
  0
LINE
  8
0
 10
-91.1143
 20
82.1812
 11
-90.8777
 21
82.1071
  0
LINE
  8
0
 10
-90.8777
 20
82.1071
 11
-90.6507
 21
82.0076
  0
LINE
  8
0
 10
-90.6507
 20
82.0076
 11
-90.436
 21
81.8836
  0
LINE
  8
0
 10
-90.436
 20
81.8836
 11
-90.2363
 21
81.7368
  0
LINE
  8
0
 10
-90.2363
 20
81.7368
 11
-90.0539
 21
81.5689
  0
LINE
  8
0
 10
-90.0539
 20
81.5689
 11
-89.8911
 21
81.382
  0
LINE
  8
0
 10
-89.8911
 20
81.382
 11
-89.7498
 21
81.1783
  0
LINE
  8
0
 10
-89.7498
 20
81.1783
 11
-89.6319
 21
80.9602
  0
LINE
  8
0
 10
-89.6319
 20
80.9602
 11
-89.5386
 21
80.7306
  0
LINE
  8
0
 10
-89.5386
 20
80.7306
 11
-89.4711
 21
80.492
  0
LINE
  8
0
 10
-89.4711
 20
80.492
 11
-89.4303
 21
80.2475
  0
LINE
  8
0
 10
-89.4303
 20
80.2475
 11
-89.4167
 21
80
  0
LINE
  8
0
 10
-89.4167
 20
80
 11
-89.4303
 21
79.7525
  0
LINE
  8
0
 10
-89.4303
 20
79.7525
 11
-89.4711
 21
79.508
  0
LINE
  8
0
 10
-89.4711
 20
79.508
 11
-89.5386
 21
79.2694
  0
LINE
  8
0
 10
-89.5386
 20
79.2694
 11
-89.6319
 21
79.0397
  0
LINE
  8
0
 10
-89.6319
 20
79.0397
 11
-89.7498
 21
78.8217
  0
LINE
  8
0
 10
-89.7498
 20
78.8217
 11
-89.8911
 21
78.618
  0
LINE
  8
0
 10
-89.8911
 20
78.618
 11
-90.0539
 21
78.4311
  0
LINE
  8
0
 10
-90.0539
 20
78.4311
 11
-90.2363
 21
78.2632
  0
LINE
  8
0
 10
-90.2363
 20
78.2632
 11
-90.436
 21
78.1164
  0
LINE
  8
0
 10
-90.436
 20
78.1164
 11
-90.6507
 21
77.9924
  0
LINE
  8
0
 10
-90.6507
 20
77.9924
 11
-90.8777
 21
77.8929
  0
LINE
  8
0
 10
-90.8777
 20
77.8929
 11
-91.1143
 21
77.8188
  0
LINE
  8
0
 10
-91.1143
 20
77.8188
 11
-91.3576
 21
77.7713
  0
LINE
  8
0
 10
-91.3576
 20
77.7713
 11
-91.6047
 21
77.7509
  0
LINE
  8
0
 10
-91.6047
 20
77.7509
 11
-91.8525
 21
77.7577
  0
LINE
  8
0
 10
-91.8525
 20
77.7577
 11
-92.098
 21
77.7917
  0
LINE
  8
0
 10
-92.098
 20
77.7917
 11
-92.3383
 21
77.8526
  0
LINE
  8
0
 10
-92.3383
 20
77.8526
 11
-92.5705
 21
77.9395
  0
LINE
  8
0
 10
-92.5705
 20
77.9395
 11
-92.7917
 21
78.0514
  0
LINE
  8
0
 10
-92.7917
 20
78.0514
 11
-92.9992
 21
78.187
  0
LINE
  8
0
 10
-92.9992
 20
78.187
 11
-93.1906
 21
78.3446
  0
LINE
  8
0
 10
-93.1906
 20
78.3446
 11
-93.3634
 21
78.5223
  0
LINE
  8
0
 10
-93.3634
 20
78.5223
 11
-93.5157
 21
78.7179
  0
LINE
  8
0
 10
-93.5157
 20
78.7179
 11
-93.6455
 21
78.9291
  0
LINE
  8
0
 10
-93.6455
 20
78.9291
 11
-93.7513
 21
79.1533
  0
LINE
  8
0
 10
-93.7513
 20
79.1533
 11
-93.8318
 21
79.3878
  0
LINE
  8
0
 10
-93.8318
 20
79.3878
 11
-93.886
 21
79.6297
  0
LINE
  8
0
 10
-93.886
 20
79.6297
 11
-93.9133
 21
79.8761
  0
LINE
  8
0
 10
-93.9133
 20
79.8761
 11
-93.9133
 21
80.1239
  0
LINE
  8
0
 10
-93.9133
 20
80.1239
 11
-93.886
 21
80.3703
  0
LINE
  8
0
 10
-93.886
 20
80.3703
 11
-93.8318
 21
80.6122
  0
LINE
  8
0
 10
-93.8318
 20
80.6122
 11
-93.7513
 21
80.8467
  0
LINE
  8
0
 10
-93.7513
 20
80.8467
 11
-93.6455
 21
81.0709
  0
LINE
  8
0
 10
-93.6455
 20
81.0709
 11
-93.5157
 21
81.2821
  0
LINE
  8
0
 10
-93.5157
 20
81.2821
 11
-93.3634
 21
81.4777
  0
LINE
  8
0
 10
-93.3634
 20
81.4777
 11
-93.1906
 21
81.6554
  0
LINE
  8
0
 10
-93.1906
 20
81.6554
 11
-92.9992
 21
81.813
  0
LINE
  8
0
 10
-92.9992
 20
81.813
 11
-92.7917
 21
81.9485
  0
LINE
  8
0
 10
-92.7917
 20
81.9485
 11
-92.5705
 21
82.0605
  0
LINE
  8
0
 10
-92.5705
 20
82.0605
 11
-92.3383
 21
82.1474
  0
LINE
  8
0
 10
-92.3383
 20
82.1474
 11
-92.098
 21
82.2083
  0
LINE
  8
0
 10
-92.098
 20
82.2083
 11
-91.8525
 21
82.2423
  0
LINE
  8
0
 10
-91.8525
 20
82.2423
 11
-91.6047
 21
82.2491
  0
LINE
  8
0
 10
-91.6047
 20
82.2491
 11
-91.3576
 21
82.2287
  0
LINE
  8
0
 10
-91.3576
 20
82.2287
 11
-91.1143
 21
82.1812
  0
LINE
  8
0
 10
274.814
 20
77.7577
 11
274.569
 21
77.7917
  0
LINE
  8
0
 10
274.569
 20
77.7917
 11
274.328
 21
77.8526
  0
LINE
  8
0
 10
274.328
 20
77.8526
 11
274.096
 21
77.9395
  0
LINE
  8
0
 10
274.096
 20
77.9395
 11
273.875
 21
78.0514
  0
LINE
  8
0
 10
273.875
 20
78.0514
 11
273.667
 21
78.187
  0
LINE
  8
0
 10
273.667
 20
78.187
 11
273.476
 21
78.3446
  0
LINE
  8
0
 10
273.476
 20
78.3446
 11
273.303
 21
78.5223
  0
LINE
  8
0
 10
273.303
 20
78.5223
 11
273.151
 21
78.7179
  0
LINE
  8
0
 10
273.151
 20
78.7179
 11
273.021
 21
78.9291
  0
LINE
  8
0
 10
273.021
 20
78.9291
 11
272.915
 21
79.1533
  0
LINE
  8
0
 10
272.915
 20
79.1533
 11
272.835
 21
79.3878
  0
LINE
  8
0
 10
272.835
 20
79.3878
 11
272.781
 21
79.6297
  0
LINE
  8
0
 10
272.781
 20
79.6297
 11
272.753
 21
79.8761
  0
LINE
  8
0
 10
272.753
 20
79.8761
 11
272.753
 21
80.1239
  0
LINE
  8
0
 10
272.753
 20
80.1239
 11
272.781
 21
80.3703
  0
LINE
  8
0
 10
272.781
 20
80.3703
 11
272.835
 21
80.6122
  0
LINE
  8
0
 10
272.835
 20
80.6122
 11
272.915
 21
80.8467
  0
LINE
  8
0
 10
272.915
 20
80.8467
 11
273.021
 21
81.0709
  0
LINE
  8
0
 10
273.021
 20
81.0709
 11
273.151
 21
81.2821
  0
LINE
  8
0
 10
273.151
 20
81.2821
 11
273.303
 21
81.4777
  0
LINE
  8
0
 10
273.303
 20
81.4777
 11
273.476
 21
81.6554
  0
LINE
  8
0
 10
273.476
 20
81.6554
 11
273.667
 21
81.813
  0
LINE
  8
0
 10
273.667
 20
81.813
 11
273.875
 21
81.9485
  0
LINE
  8
0
 10
273.875
 20
81.9485
 11
274.096
 21
82.0605
  0
LINE
  8
0
 10
274.096
 20
82.0605
 11
274.328
 21
82.1474
  0
LINE
  8
0
 10
274.328
 20
82.1474
 11
274.569
 21
82.2083
  0
LINE
  8
0
 10
274.569
 20
82.2083
 11
274.814
 21
82.2423
  0
LINE
  8
0
 10
274.814
 20
82.2423
 11
275.062
 21
82.2491
  0
LINE
  8
0
 10
275.062
 20
82.2491
 11
275.309
 21
82.2287
  0
LINE
  8
0
 10
275.309
 20
82.2287
 11
275.552
 21
82.1812
  0
LINE
  8
0
 10
275.552
 20
82.1812
 11
275.789
 21
82.1071
  0
LINE
  8
0
 10
275.789
 20
82.1071
 11
276.016
 21
82.0076
  0
LINE
  8
0
 10
276.016
 20
82.0076
 11
276.231
 21
81.8836
  0
LINE
  8
0
 10
276.231
 20
81.8836
 11
276.43
 21
81.7368
  0
LINE
  8
0
 10
276.43
 20
81.7368
 11
276.613
 21
81.5689
  0
LINE
  8
0
 10
276.613
 20
81.5689
 11
276.776
 21
81.382
  0
LINE
  8
0
 10
276.776
 20
81.382
 11
276.917
 21
81.1783
  0
LINE
  8
0
 10
276.917
 20
81.1783
 11
277.035
 21
80.9602
  0
LINE
  8
0
 10
277.035
 20
80.9602
 11
277.128
 21
80.7306
  0
LINE
  8
0
 10
277.128
 20
80.7306
 11
277.196
 21
80.492
  0
LINE
  8
0
 10
277.196
 20
80.492
 11
277.236
 21
80.2475
  0
LINE
  8
0
 10
277.236
 20
80.2475
 11
277.25
 21
80
  0
LINE
  8
0
 10
277.25
 20
80
 11
277.236
 21
79.7525
  0
LINE
  8
0
 10
277.236
 20
79.7525
 11
277.196
 21
79.508
  0
LINE
  8
0
 10
277.196
 20
79.508
 11
277.128
 21
79.2694
  0
LINE
  8
0
 10
277.128
 20
79.2694
 11
277.035
 21
79.0397
  0
LINE
  8
0
 10
277.035
 20
79.0397
 11
276.917
 21
78.8217
  0
LINE
  8
0
 10
276.917
 20
78.8217
 11
276.776
 21
78.618
  0
LINE
  8
0
 10
276.776
 20
78.618
 11
276.613
 21
78.4311
  0
LINE
  8
0
 10
276.613
 20
78.4311
 11
276.43
 21
78.2632
  0
LINE
  8
0
 10
276.43
 20
78.2632
 11
276.231
 21
78.1164
  0
LINE
  8
0
 10
276.231
 20
78.1164
 11
276.016
 21
77.9924
  0
LINE
  8
0
 10
276.016
 20
77.9924
 11
275.789
 21
77.8929
  0
LINE
  8
0
 10
275.789
 20
77.8929
 11
275.552
 21
77.8188
  0
LINE
  8
0
 10
275.552
 20
77.8188
 11
275.309
 21
77.7713
  0
LINE
  8
0
 10
275.309
 20
77.7713
 11
275.062
 21
77.7509
  0
LINE
  8
0
 10
275.062
 20
77.7509
 11
274.814
 21
77.7577
  0
LINE
  8
0
 10
-183.519
 20
77.7577
 11
-183.765
 21
77.7917
  0
LINE
  8
0
 10
-183.765
 20
77.7917
 11
-184.005
 21
77.8526
  0
LINE
  8
0
 10
-184.005
 20
77.8526
 11
-184.237
 21
77.9395
  0
LINE
  8
0
 10
-184.237
 20
77.9395
 11
-184.458
 21
78.0514
  0
LINE
  8
0
 10
-184.458
 20
78.0514
 11
-184.666
 21
78.187
  0
LINE
  8
0
 10
-184.666
 20
78.187
 11
-184.857
 21
78.3446
  0
LINE
  8
0
 10
-184.857
 20
78.3446
 11
-185.03
 21
78.5223
  0
LINE
  8
0
 10
-185.03
 20
78.5223
 11
-185.182
 21
78.7179
  0
LINE
  8
0
 10
-185.182
 20
78.7179
 11
-185.312
 21
78.9291
  0
LINE
  8
0
 10
-185.312
 20
78.9291
 11
-185.418
 21
79.1533
  0
LINE
  8
0
 10
-185.418
 20
79.1533
 11
-185.498
 21
79.3878
  0
LINE
  8
0
 10
-185.498
 20
79.3878
 11
-185.553
 21
79.6297
  0
LINE
  8
0
 10
-185.553
 20
79.6297
 11
-185.58
 21
79.8761
  0
LINE
  8
0
 10
-185.58
 20
79.8761
 11
-185.58
 21
80.1239
  0
LINE
  8
0
 10
-185.58
 20
80.1239
 11
-185.553
 21
80.3703
  0
LINE
  8
0
 10
-185.553
 20
80.3703
 11
-185.498
 21
80.6122
  0
LINE
  8
0
 10
-185.498
 20
80.6122
 11
-185.418
 21
80.8467
  0
LINE
  8
0
 10
-185.418
 20
80.8467
 11
-185.312
 21
81.0709
  0
LINE
  8
0
 10
-185.312
 20
81.0709
 11
-185.182
 21
81.2821
  0
LINE
  8
0
 10
-185.182
 20
81.2821
 11
-185.03
 21
81.4777
  0
LINE
  8
0
 10
-185.03
 20
81.4777
 11
-184.857
 21
81.6554
  0
LINE
  8
0
 10
-184.857
 20
81.6554
 11
-184.666
 21
81.813
  0
LINE
  8
0
 10
-184.666
 20
81.813
 11
-184.458
 21
81.9485
  0
LINE
  8
0
 10
-184.458
 20
81.9485
 11
-184.237
 21
82.0605
  0
LINE
  8
0
 10
-184.237
 20
82.0605
 11
-184.005
 21
82.1474
  0
LINE
  8
0
 10
-184.005
 20
82.1474
 11
-183.765
 21
82.2083
  0
LINE
  8
0
 10
-183.765
 20
82.2083
 11
-183.519
 21
82.2423
  0
LINE
  8
0
 10
-183.519
 20
82.2423
 11
-183.271
 21
82.2491
  0
LINE
  8
0
 10
-183.271
 20
82.2491
 11
-183.024
 21
82.2287
  0
LINE
  8
0
 10
-183.024
 20
82.2287
 11
-182.781
 21
82.1812
  0
LINE
  8
0
 10
-182.781
 20
82.1812
 11
-182.544
 21
82.1071
  0
LINE
  8
0
 10
-182.544
 20
82.1071
 11
-182.317
 21
82.0076
  0
LINE
  8
0
 10
-182.317
 20
82.0076
 11
-182.103
 21
81.8836
  0
LINE
  8
0
 10
-182.103
 20
81.8836
 11
-181.903
 21
81.7368
  0
LINE
  8
0
 10
-181.903
 20
81.7368
 11
-181.721
 21
81.5689
  0
LINE
  8
0
 10
-181.721
 20
81.5689
 11
-181.558
 21
81.382
  0
LINE
  8
0
 10
-181.558
 20
81.382
 11
-181.417
 21
81.1783
  0
LINE
  8
0
 10
-181.417
 20
81.1783
 11
-181.299
 21
80.9602
  0
LINE
  8
0
 10
-181.299
 20
80.9602
 11
-181.205
 21
80.7306
  0
LINE
  8
0
 10
-181.205
 20
80.7306
 11
-181.138
 21
80.492
  0
LINE
  8
0
 10
-181.138
 20
80.492
 11
-181.097
 21
80.2475
  0
LINE
  8
0
 10
-181.097
 20
80.2475
 11
-181.083
 21
80
  0
LINE
  8
0
 10
-181.083
 20
80
 11
-181.097
 21
79.7525
  0
LINE
  8
0
 10
-181.097
 20
79.7525
 11
-181.138
 21
79.508
  0
LINE
  8
0
 10
-181.138
 20
79.508
 11
-181.205
 21
79.2694
  0
LINE
  8
0
 10
-181.205
 20
79.2694
 11
-181.299
 21
79.0397
  0
LINE
  8
0
 10
-181.299
 20
79.0397
 11
-181.417
 21
78.8217
  0
LINE
  8
0
 10
-181.417
 20
78.8217
 11
-181.558
 21
78.618
  0
LINE
  8
0
 10
-181.558
 20
78.618
 11
-181.721
 21
78.4311
  0
LINE
  8
0
 10
-181.721
 20
78.4311
 11
-181.903
 21
78.2632
  0
LINE
  8
0
 10
-181.903
 20
78.2632
 11
-182.103
 21
78.1164
  0
LINE
  8
0
 10
-182.103
 20
78.1164
 11
-182.317
 21
77.9924
  0
LINE
  8
0
 10
-182.317
 20
77.9924
 11
-182.544
 21
77.8929
  0
LINE
  8
0
 10
-182.544
 20
77.8929
 11
-182.781
 21
77.8188
  0
LINE
  8
0
 10
-182.781
 20
77.8188
 11
-183.024
 21
77.7713
  0
LINE
  8
0
 10
-183.024
 20
77.7713
 11
-183.271
 21
77.7509
  0
LINE
  8
0
 10
-183.271
 20
77.7509
 11
-183.519
 21
77.7577
  0
LINE
  8
0
 10
91.4809
 20
77.7577
 11
91.2353
 21
77.7917
  0
LINE
  8
0
 10
91.2353
 20
77.7917
 11
90.995
 21
77.8526
  0
LINE
  8
0
 10
90.995
 20
77.8526
 11
90.7628
 21
77.9395
  0
LINE
  8
0
 10
90.7628
 20
77.9395
 11
90.5417
 21
78.0514
  0
LINE
  8
0
 10
90.5417
 20
78.0514
 11
90.3341
 21
78.187
  0
LINE
  8
0
 10
90.3341
 20
78.187
 11
90.1428
 21
78.3446
  0
LINE
  8
0
 10
90.1428
 20
78.3446
 11
89.9699
 21
78.5223
  0
LINE
  8
0
 10
89.9699
 20
78.5223
 11
89.8177
 21
78.7179
  0
LINE
  8
0
 10
89.8177
 20
78.7179
 11
89.6879
 21
78.9291
  0
LINE
  8
0
 10
89.6879
 20
78.9291
 11
89.582
 21
79.1533
  0
LINE
  8
0
 10
89.582
 20
79.1533
 11
89.5016
 21
79.3878
  0
LINE
  8
0
 10
89.5016
 20
79.3878
 11
89.4474
 21
79.6297
  0
LINE
  8
0
 10
89.4474
 20
79.6297
 11
89.4201
 21
79.8761
  0
LINE
  8
0
 10
89.4201
 20
79.8761
 11
89.4201
 21
80.1239
  0
LINE
  8
0
 10
89.4201
 20
80.1239
 11
89.4474
 21
80.3703
  0
LINE
  8
0
 10
89.4474
 20
80.3703
 11
89.5016
 21
80.6122
  0
LINE
  8
0
 10
89.5016
 20
80.6122
 11
89.582
 21
80.8467
  0
LINE
  8
0
 10
89.582
 20
80.8467
 11
89.6879
 21
81.0709
  0
LINE
  8
0
 10
89.6879
 20
81.0709
 11
89.8177
 21
81.2821
  0
LINE
  8
0
 10
89.8177
 20
81.2821
 11
89.9699
 21
81.4777
  0
LINE
  8
0
 10
89.9699
 20
81.4777
 11
90.1428
 21
81.6554
  0
LINE
  8
0
 10
90.1428
 20
81.6554
 11
90.3341
 21
81.813
  0
LINE
  8
0
 10
90.3341
 20
81.813
 11
90.5417
 21
81.9485
  0
LINE
  8
0
 10
90.5417
 20
81.9485
 11
90.7628
 21
82.0605
  0
LINE
  8
0
 10
90.7628
 20
82.0605
 11
90.995
 21
82.1474
  0
LINE
  8
0
 10
90.995
 20
82.1474
 11
91.2353
 21
82.2083
  0
LINE
  8
0
 10
91.2353
 20
82.2083
 11
91.4809
 21
82.2423
  0
LINE
  8
0
 10
91.4809
 20
82.2423
 11
91.7287
 21
82.2491
  0
LINE
  8
0
 10
91.7287
 20
82.2491
 11
91.9757
 21
82.2287
  0
LINE
  8
0
 10
91.9757
 20
82.2287
 11
92.219
 21
82.1812
  0
LINE
  8
0
 10
92.219
 20
82.1812
 11
92.4556
 21
82.1071
  0
LINE
  8
0
 10
92.4556
 20
82.1071
 11
92.6826
 21
82.0076
  0
LINE
  8
0
 10
92.6826
 20
82.0076
 11
92.8973
 21
81.8836
  0
LINE
  8
0
 10
92.8973
 20
81.8836
 11
93.097
 21
81.7368
  0
LINE
  8
0
 10
93.097
 20
81.7368
 11
93.2794
 21
81.5689
  0
LINE
  8
0
 10
93.2794
 20
81.5689
 11
93.4422
 21
81.382
  0
LINE
  8
0
 10
93.4422
 20
81.382
 11
93.5835
 21
81.1783
  0
LINE
  8
0
 10
93.5835
 20
81.1783
 11
93.7015
 21
80.9602
  0
LINE
  8
0
 10
93.7015
 20
80.9602
 11
93.7948
 21
80.7306
  0
LINE
  8
0
 10
93.7948
 20
80.7306
 11
93.8622
 21
80.492
  0
LINE
  8
0
 10
93.8622
 20
80.492
 11
93.903
 21
80.2475
  0
LINE
  8
0
 10
93.903
 20
80.2475
 11
93.9167
 21
80
  0
LINE
  8
0
 10
93.9167
 20
80
 11
93.903
 21
79.7525
  0
LINE
  8
0
 10
93.903
 20
79.7525
 11
93.8622
 21
79.508
  0
LINE
  8
0
 10
93.8622
 20
79.508
 11
93.7948
 21
79.2694
  0
LINE
  8
0
 10
93.7948
 20
79.2694
 11
93.7015
 21
79.0397
  0
LINE
  8
0
 10
93.7015
 20
79.0397
 11
93.5835
 21
78.8217
  0
LINE
  8
0
 10
93.5835
 20
78.8217
 11
93.4422
 21
78.618
  0
LINE
  8
0
 10
93.4422
 20
78.618
 11
93.2794
 21
78.4311
  0
LINE
  8
0
 10
93.2794
 20
78.4311
 11
93.097
 21
78.2632
  0
LINE
  8
0
 10
93.097
 20
78.2632
 11
92.8973
 21
78.1164
  0
LINE
  8
0
 10
92.8973
 20
78.1164
 11
92.6826
 21
77.9924
  0
LINE
  8
0
 10
92.6826
 20
77.9924
 11
92.4556
 21
77.8929
  0
LINE
  8
0
 10
92.4556
 20
77.8929
 11
92.219
 21
77.8188
  0
LINE
  8
0
 10
92.219
 20
77.8188
 11
91.9757
 21
77.7713
  0
LINE
  8
0
 10
91.9757
 20
77.7713
 11
91.7287
 21
77.7509
  0
LINE
  8
0
 10
91.7287
 20
77.7509
 11
91.4809
 21
77.7577
  0
LINE
  8
0
 10
-275.186
 20
77.7577
 11
-275.431
 21
77.7917
  0
LINE
  8
0
 10
-275.431
 20
77.7917
 11
-275.672
 21
77.8526
  0
LINE
  8
0
 10
-275.672
 20
77.8526
 11
-275.904
 21
77.9395
  0
LINE
  8
0
 10
-275.904
 20
77.9395
 11
-276.125
 21
78.0514
  0
LINE
  8
0
 10
-276.125
 20
78.0514
 11
-276.333
 21
78.187
  0
LINE
  8
0
 10
-276.333
 20
78.187
 11
-276.524
 21
78.3446
  0
LINE
  8
0
 10
-276.524
 20
78.3446
 11
-276.697
 21
78.5223
  0
LINE
  8
0
 10
-276.697
 20
78.5223
 11
-276.849
 21
78.7179
  0
LINE
  8
0
 10
-276.849
 20
78.7179
 11
-276.979
 21
78.9291
  0
LINE
  8
0
 10
-276.979
 20
78.9291
 11
-277.085
 21
79.1533
  0
LINE
  8
0
 10
-277.085
 20
79.1533
 11
-277.165
 21
79.3878
  0
LINE
  8
0
 10
-277.165
 20
79.3878
 11
-277.219
 21
79.6297
  0
LINE
  8
0
 10
-277.219
 20
79.6297
 11
-277.247
 21
79.8761
  0
LINE
  8
0
 10
-277.247
 20
79.8761
 11
-277.247
 21
80.1239
  0
LINE
  8
0
 10
-277.247
 20
80.1239
 11
-277.219
 21
80.3703
  0
LINE
  8
0
 10
-277.219
 20
80.3703
 11
-277.165
 21
80.6122
  0
LINE
  8
0
 10
-277.165
 20
80.6122
 11
-277.085
 21
80.8467
  0
LINE
  8
0
 10
-277.085
 20
80.8467
 11
-276.979
 21
81.0709
  0
LINE
  8
0
 10
-276.979
 20
81.0709
 11
-276.849
 21
81.2821
  0
LINE
  8
0
 10
-276.849
 20
81.2821
 11
-276.697
 21
81.4777
  0
LINE
  8
0
 10
-276.697
 20
81.4777
 11
-276.524
 21
81.6554
  0
LINE
  8
0
 10
-276.524
 20
81.6554
 11
-276.333
 21
81.813
  0
LINE
  8
0
 10
-276.333
 20
81.813
 11
-276.125
 21
81.9485
  0
LINE
  8
0
 10
-276.125
 20
81.9485
 11
-275.904
 21
82.0605
  0
LINE
  8
0
 10
-275.904
 20
82.0605
 11
-275.672
 21
82.1474
  0
LINE
  8
0
 10
-275.672
 20
82.1474
 11
-275.431
 21
82.2083
  0
LINE
  8
0
 10
-275.431
 20
82.2083
 11
-275.186
 21
82.2423
  0
LINE
  8
0
 10
-275.186
 20
82.2423
 11
-274.938
 21
82.2491
  0
LINE
  8
0
 10
-274.938
 20
82.2491
 11
-274.691
 21
82.2287
  0
LINE
  8
0
 10
-274.691
 20
82.2287
 11
-274.448
 21
82.1812
  0
LINE
  8
0
 10
-274.448
 20
82.1812
 11
-274.211
 21
82.1071
  0
LINE
  8
0
 10
-274.211
 20
82.1071
 11
-273.984
 21
82.0076
  0
LINE
  8
0
 10
-273.984
 20
82.0076
 11
-273.769
 21
81.8836
  0
LINE
  8
0
 10
-273.769
 20
81.8836
 11
-273.57
 21
81.7368
  0
LINE
  8
0
 10
-273.57
 20
81.7368
 11
-273.387
 21
81.5689
  0
LINE
  8
0
 10
-273.387
 20
81.5689
 11
-273.224
 21
81.382
  0
LINE
  8
0
 10
-273.224
 20
81.382
 11
-273.083
 21
81.1783
  0
LINE
  8
0
 10
-273.083
 20
81.1783
 11
-272.965
 21
80.9602
  0
LINE
  8
0
 10
-272.965
 20
80.9602
 11
-272.872
 21
80.7306
  0
LINE
  8
0
 10
-272.872
 20
80.7306
 11
-272.804
 21
80.492
  0
LINE
  8
0
 10
-272.804
 20
80.492
 11
-272.764
 21
80.2475
  0
LINE
  8
0
 10
-272.764
 20
80.2475
 11
-272.75
 21
80
  0
LINE
  8
0
 10
-272.75
 20
80
 11
-272.764
 21
79.7525
  0
LINE
  8
0
 10
-272.764
 20
79.7525
 11
-272.804
 21
79.508
  0
LINE
  8
0
 10
-272.804
 20
79.508
 11
-272.872
 21
79.2694
  0
LINE
  8
0
 10
-272.872
 20
79.2694
 11
-272.965
 21
79.0397
  0
LINE
  8
0
 10
-272.965
 20
79.0397
 11
-273.083
 21
78.8217
  0
LINE
  8
0
 10
-273.083
 20
78.8217
 11
-273.224
 21
78.618
  0
LINE
  8
0
 10
-273.224
 20
78.618
 11
-273.387
 21
78.4311
  0
LINE
  8
0
 10
-273.387
 20
78.4311
 11
-273.57
 21
78.2632
  0
LINE
  8
0
 10
-273.57
 20
78.2632
 11
-273.769
 21
78.1164
  0
LINE
  8
0
 10
-273.769
 20
78.1164
 11
-273.984
 21
77.9924
  0
LINE
  8
0
 10
-273.984
 20
77.9924
 11
-274.211
 21
77.8929
  0
LINE
  8
0
 10
-274.211
 20
77.8929
 11
-274.448
 21
77.8188
  0
LINE
  8
0
 10
-274.448
 20
77.8188
 11
-274.691
 21
77.7713
  0
LINE
  8
0
 10
-274.691
 20
77.7713
 11
-274.938
 21
77.7509
  0
LINE
  8
0
 10
-274.938
 20
77.7509
 11
-275.186
 21
77.7577
  0
LINE
  8
0
 10
183.148
 20
77.7577
 11
182.902
 21
77.7917
  0
LINE
  8
0
 10
182.902
 20
77.7917
 11
182.662
 21
77.8526
  0
LINE
  8
0
 10
182.662
 20
77.8526
 11
182.43
 21
77.9395
  0
LINE
  8
0
 10
182.43
 20
77.9395
 11
182.208
 21
78.0514
  0
LINE
  8
0
 10
182.208
 20
78.0514
 11
182.001
 21
78.187
  0
LINE
  8
0
 10
182.001
 20
78.187
 11
181.809
 21
78.3446
  0
LINE
  8
0
 10
181.809
 20
78.3446
 11
181.637
 21
78.5223
  0
LINE
  8
0
 10
181.637
 20
78.5223
 11
181.484
 21
78.7179
  0
LINE
  8
0
 10
181.484
 20
78.7179
 11
181.355
 21
78.9291
  0
LINE
  8
0
 10
181.355
 20
78.9291
 11
181.249
 21
79.1533
  0
LINE
  8
0
 10
181.249
 20
79.1533
 11
181.168
 21
79.3878
  0
LINE
  8
0
 10
181.168
 20
79.3878
 11
181.114
 21
79.6297
  0
LINE
  8
0
 10
181.114
 20
79.6297
 11
181.087
 21
79.8761
  0
LINE
  8
0
 10
181.087
 20
79.8761
 11
181.087
 21
80.1239
  0
LINE
  8
0
 10
181.087
 20
80.1239
 11
181.114
 21
80.3703
  0
LINE
  8
0
 10
181.114
 20
80.3703
 11
181.168
 21
80.6122
  0
LINE
  8
0
 10
181.168
 20
80.6122
 11
181.249
 21
80.8467
  0
LINE
  8
0
 10
181.249
 20
80.8467
 11
181.355
 21
81.0709
  0
LINE
  8
0
 10
181.355
 20
81.0709
 11
181.484
 21
81.2821
  0
LINE
  8
0
 10
181.484
 20
81.2821
 11
181.637
 21
81.4777
  0
LINE
  8
0
 10
181.637
 20
81.4777
 11
181.809
 21
81.6554
  0
LINE
  8
0
 10
181.809
 20
81.6554
 11
182.001
 21
81.813
  0
LINE
  8
0
 10
182.001
 20
81.813
 11
182.208
 21
81.9485
  0
LINE
  8
0
 10
182.208
 20
81.9485
 11
182.43
 21
82.0605
  0
LINE
  8
0
 10
182.43
 20
82.0605
 11
182.662
 21
82.1474
  0
LINE
  8
0
 10
182.662
 20
82.1474
 11
182.902
 21
82.2083
  0
LINE
  8
0
 10
182.902
 20
82.2083
 11
183.148
 21
82.2423
  0
LINE
  8
0
 10
183.148
 20
82.2423
 11
183.395
 21
82.2491
  0
LINE
  8
0
 10
183.395
 20
82.2491
 11
183.642
 21
82.2287
  0
LINE
  8
0
 10
183.642
 20
82.2287
 11
183.886
 21
82.1812
  0
LINE
  8
0
 10
183.886
 20
82.1812
 11
184.122
 21
82.1071
  0
LINE
  8
0
 10
184.122
 20
82.1071
 11
184.349
 21
82.0076
  0
LINE
  8
0
 10
184.349
 20
82.0076
 11
184.564
 21
81.8836
  0
LINE
  8
0
 10
184.564
 20
81.8836
 11
184.764
 21
81.7368
  0
LINE
  8
0
 10
184.764
 20
81.7368
 11
184.946
 21
81.5689
  0
LINE
  8
0
 10
184.946
 20
81.5689
 11
185.109
 21
81.382
  0
LINE
  8
0
 10
185.109
 20
81.382
 11
185.25
 21
81.1783
  0
LINE
  8
0
 10
185.25
 20
81.1783
 11
185.368
 21
80.9602
  0
LINE
  8
0
 10
185.368
 20
80.9602
 11
185.461
 21
80.7306
  0
LINE
  8
0
 10
185.461
 20
80.7306
 11
185.529
 21
80.492
  0
LINE
  8
0
 10
185.529
 20
80.492
 11
185.57
 21
80.2475
  0
LINE
  8
0
 10
185.57
 20
80.2475
 11
185.583
 21
80
  0
LINE
  8
0
 10
185.583
 20
80
 11
185.57
 21
79.7525
  0
LINE
  8
0
 10
185.57
 20
79.7525
 11
185.529
 21
79.508
  0
LINE
  8
0
 10
185.529
 20
79.508
 11
185.461
 21
79.2694
  0
LINE
  8
0
 10
185.461
 20
79.2694
 11
185.368
 21
79.0397
  0
LINE
  8
0
 10
185.368
 20
79.0397
 11
185.25
 21
78.8217
  0
LINE
  8
0
 10
185.25
 20
78.8217
 11
185.109
 21
78.618
  0
LINE
  8
0
 10
185.109
 20
78.618
 11
184.946
 21
78.4311
  0
LINE
  8
0
 10
184.946
 20
78.4311
 11
184.764
 21
78.2632
  0
LINE
  8
0
 10
184.764
 20
78.2632
 11
184.564
 21
78.1164
  0
LINE
  8
0
 10
184.564
 20
78.1164
 11
184.349
 21
77.9924
  0
LINE
  8
0
 10
184.349
 20
77.9924
 11
184.122
 21
77.8929
  0
LINE
  8
0
 10
184.122
 20
77.8929
 11
183.886
 21
77.8188
  0
LINE
  8
0
 10
183.886
 20
77.8188
 11
183.642
 21
77.7713
  0
LINE
  8
0
 10
183.642
 20
77.7713
 11
183.395
 21
77.7509
  0
LINE
  8
0
 10
183.395
 20
77.7509
 11
183.148
 21
77.7577
  0
LINE
  8
0
 10
-0.185791
 20
77.7577
 11
-0.431335
 21
77.7917
  0
LINE
  8
0
 10
-0.431335
 20
77.7917
 11
-0.671646
 21
77.8526
  0
LINE
  8
0
 10
-0.671646
 20
77.8526
 11
-0.903809
 21
77.9395
  0
LINE
  8
0
 10
-0.903809
 20
77.9395
 11
-1.125
 21
78.0514
  0
LINE
  8
0
 10
-1.125
 20
78.0514
 11
-1.33252
 21
78.187
  0
LINE
  8
0
 10
-1.33252
 20
78.187
 11
-1.52388
 21
78.3446
  0
LINE
  8
0
 10
-1.52388
 20
78.3446
 11
-1.69673
 21
78.5223
  0
LINE
  8
0
 10
-1.69673
 20
78.5223
 11
-1.849
 21
78.7179
  0
LINE
  8
0
 10
-1.849
 20
78.7179
 11
-1.97881
 21
78.9291
  0
LINE
  8
0
 10
-1.97881
 20
78.9291
 11
-2.08461
 21
79.1533
  0
LINE
  8
0
 10
-2.08461
 20
79.1533
 11
-2.1651
 21
79.3878
  0
LINE
  8
0
 10
-2.1651
 20
79.3878
 11
-2.2193
 21
79.6297
  0
LINE
  8
0
 10
-2.2193
 20
79.6297
 11
-2.24658
 21
79.8761
  0
LINE
  8
0
 10
-2.24658
 20
79.8761
 11
-2.24658
 21
80.1239
  0
LINE
  8
0
 10
-2.24658
 20
80.1239
 11
-2.2193
 21
80.3703
  0
LINE
  8
0
 10
-2.2193
 20
80.3703
 11
-2.1651
 21
80.6122
  0
LINE
  8
0
 10
-2.1651
 20
80.6122
 11
-2.08461
 21
80.8467
  0
LINE
  8
0
 10
-2.08461
 20
80.8467
 11
-1.97881
 21
81.0709
  0
LINE
  8
0
 10
-1.97881
 20
81.0709
 11
-1.849
 21
81.2821
  0
LINE
  8
0
 10
-1.849
 20
81.2821
 11
-1.69673
 21
81.4777
  0
LINE
  8
0
 10
-1.69673
 20
81.4777
 11
-1.52388
 21
81.6554
  0
LINE
  8
0
 10
-1.52388
 20
81.6554
 11
-1.33252
 21
81.813
  0
LINE
  8
0
 10
-1.33252
 20
81.813
 11
-1.125
 21
81.9485
  0
LINE
  8
0
 10
-1.125
 20
81.9485
 11
-0.903809
 21
82.0605
  0
LINE
  8
0
 10
-0.903809
 20
82.0605
 11
-0.671646
 21
82.1474
  0
LINE
  8
0
 10
-0.671646
 20
82.1474
 11
-0.431335
 21
82.2083
  0
LINE
  8
0
 10
-0.431335
 20
82.2083
 11
-0.185791
 21
82.2423
  0
LINE
  8
0
 10
-0.185791
 20
82.2423
 11
0.0619965
 21
82.2491
  0
LINE
  8
0
 10
0.0619965
 20
82.2491
 11
0.309036
 21
82.2287
  0
LINE
  8
0
 10
0.309036
 20
82.2287
 11
0.552338
 21
82.1812
  0
LINE
  8
0
 10
0.552338
 20
82.1812
 11
0.788925
 21
82.1071
  0
LINE
  8
0
 10
0.788925
 20
82.1071
 11
1.01595
 21
82.0076
  0
LINE
  8
0
 10
1.01595
 20
82.0076
 11
1.23062
 21
81.8836
  0
LINE
  8
0
 10
1.23062
 20
81.8836
 11
1.43037
 21
81.7368
  0
LINE
  8
0
 10
1.43037
 20
81.7368
 11
1.61275
 21
81.5689
  0
LINE
  8
0
 10
1.61275
 20
81.5689
 11
1.77556
 21
81.382
  0
LINE
  8
0
 10
1.77556
 20
81.382
 11
1.91681
 21
81.1783
  0
LINE
  8
0
 10
1.91681
 20
81.1783
 11
2.03479
 21
80.9602
  0
LINE
  8
0
 10
2.03479
 20
80.9602
 11
2.12808
 21
80.7306
  0
LINE
  8
0
 10
2.12808
 20
80.7306
 11
2.19554
 21
80.492
  0
LINE
  8
0
 10
2.19554
 20
80.492
 11
2.23634
 21
80.2475
  0
LINE
  8
0
 10
2.23634
 20
80.2475
 11
2.25
 21
80
  0
LINE
  8
0
 10
2.25
 20
80
 11
2.23634
 21
79.7525
  0
LINE
  8
0
 10
2.23634
 20
79.7525
 11
2.19554
 21
79.508
  0
LINE
  8
0
 10
2.19554
 20
79.508
 11
2.12808
 21
79.2694
  0
LINE
  8
0
 10
2.12808
 20
79.2694
 11
2.03479
 21
79.0397
  0
LINE
  8
0
 10
2.03479
 20
79.0397
 11
1.91681
 21
78.8217
  0
LINE
  8
0
 10
1.91681
 20
78.8217
 11
1.77556
 21
78.618
  0
LINE
  8
0
 10
1.77556
 20
78.618
 11
1.61275
 21
78.4311
  0
LINE
  8
0
 10
1.61275
 20
78.4311
 11
1.43037
 21
78.2632
  0
LINE
  8
0
 10
1.43037
 20
78.2632
 11
1.23062
 21
78.1164
  0
LINE
  8
0
 10
1.23062
 20
78.1164
 11
1.01595
 21
77.9924
  0
LINE
  8
0
 10
1.01595
 20
77.9924
 11
0.788925
 21
77.8929
  0
LINE
  8
0
 10
0.788925
 20
77.8929
 11
0.552338
 21
77.8188
  0
LINE
  8
0
 10
0.552338
 20
77.8188
 11
0.309036
 21
77.7713
  0
LINE
  8
0
 10
0.309036
 20
77.7713
 11
0.0619965
 21
77.7509
  0
LINE
  8
0
 10
0.0619965
 20
77.7509
 11
-0.185791
 21
77.7577
  0
LINE
  8
0
 10
314.814
 20
37.7577
 11
314.569
 21
37.7917
  0
LINE
  8
0
 10
314.569
 20
37.7917
 11
314.328
 21
37.8526
  0
LINE
  8
0
 10
314.328
 20
37.8526
 11
314.096
 21
37.9395
  0
LINE
  8
0
 10
314.096
 20
37.9395
 11
313.875
 21
38.0514
  0
LINE
  8
0
 10
313.875
 20
38.0514
 11
313.667
 21
38.187
  0
LINE
  8
0
 10
313.667
 20
38.187
 11
313.476
 21
38.3446
  0
LINE
  8
0
 10
313.476
 20
38.3446
 11
313.303
 21
38.5223
  0
LINE
  8
0
 10
313.303
 20
38.5223
 11
313.151
 21
38.7179
  0
LINE
  8
0
 10
313.151
 20
38.7179
 11
313.021
 21
38.9291
  0
LINE
  8
0
 10
313.021
 20
38.9291
 11
312.915
 21
39.1533
  0
LINE
  8
0
 10
312.915
 20
39.1533
 11
312.835
 21
39.3878
  0
LINE
  8
0
 10
312.835
 20
39.3878
 11
312.781
 21
39.6297
  0
LINE
  8
0
 10
312.781
 20
39.6297
 11
312.753
 21
39.8761
  0
LINE
  8
0
 10
312.753
 20
39.8761
 11
312.753
 21
40.1239
  0
LINE
  8
0
 10
312.753
 20
40.1239
 11
312.781
 21
40.3703
  0
LINE
  8
0
 10
312.781
 20
40.3703
 11
312.835
 21
40.6122
  0
LINE
  8
0
 10
312.835
 20
40.6122
 11
312.915
 21
40.8467
  0
LINE
  8
0
 10
312.915
 20
40.8467
 11
313.021
 21
41.0709
  0
LINE
  8
0
 10
313.021
 20
41.0709
 11
313.151
 21
41.2821
  0
LINE
  8
0
 10
313.151
 20
41.2821
 11
313.303
 21
41.4777
  0
LINE
  8
0
 10
313.303
 20
41.4777
 11
313.476
 21
41.6554
  0
LINE
  8
0
 10
313.476
 20
41.6554
 11
313.667
 21
41.813
  0
LINE
  8
0
 10
313.667
 20
41.813
 11
313.875
 21
41.9485
  0
LINE
  8
0
 10
313.875
 20
41.9485
 11
314.096
 21
42.0605
  0
LINE
  8
0
 10
314.096
 20
42.0605
 11
314.328
 21
42.1474
  0
LINE
  8
0
 10
314.328
 20
42.1474
 11
314.569
 21
42.2083
  0
LINE
  8
0
 10
314.569
 20
42.2083
 11
314.814
 21
42.2423
  0
LINE
  8
0
 10
314.814
 20
42.2423
 11
315.062
 21
42.2491
  0
LINE
  8
0
 10
315.062
 20
42.2491
 11
315.309
 21
42.2287
  0
LINE
  8
0
 10
315.309
 20
42.2287
 11
315.552
 21
42.1812
  0
LINE
  8
0
 10
315.552
 20
42.1812
 11
315.789
 21
42.1071
  0
LINE
  8
0
 10
315.789
 20
42.1071
 11
316.016
 21
42.0076
  0
LINE
  8
0
 10
316.016
 20
42.0076
 11
316.231
 21
41.8836
  0
LINE
  8
0
 10
316.231
 20
41.8836
 11
316.43
 21
41.7368
  0
LINE
  8
0
 10
316.43
 20
41.7368
 11
316.613
 21
41.5689
  0
LINE
  8
0
 10
316.613
 20
41.5689
 11
316.776
 21
41.382
  0
LINE
  8
0
 10
316.776
 20
41.382
 11
316.917
 21
41.1783
  0
LINE
  8
0
 10
316.917
 20
41.1783
 11
317.035
 21
40.9602
  0
LINE
  8
0
 10
317.035
 20
40.9602
 11
317.128
 21
40.7306
  0
LINE
  8
0
 10
317.128
 20
40.7306
 11
317.196
 21
40.492
  0
LINE
  8
0
 10
317.196
 20
40.492
 11
317.236
 21
40.2475
  0
LINE
  8
0
 10
317.236
 20
40.2475
 11
317.25
 21
40
  0
LINE
  8
0
 10
317.25
 20
40
 11
317.236
 21
39.7525
  0
LINE
  8
0
 10
317.236
 20
39.7525
 11
317.196
 21
39.508
  0
LINE
  8
0
 10
317.196
 20
39.508
 11
317.128
 21
39.2694
  0
LINE
  8
0
 10
317.128
 20
39.2694
 11
317.035
 21
39.0397
  0
LINE
  8
0
 10
317.035
 20
39.0397
 11
316.917
 21
38.8217
  0
LINE
  8
0
 10
316.917
 20
38.8217
 11
316.776
 21
38.618
  0
LINE
  8
0
 10
316.776
 20
38.618
 11
316.613
 21
38.4311
  0
LINE
  8
0
 10
316.613
 20
38.4311
 11
316.43
 21
38.2632
  0
LINE
  8
0
 10
316.43
 20
38.2632
 11
316.231
 21
38.1164
  0
LINE
  8
0
 10
316.231
 20
38.1164
 11
316.016
 21
37.9924
  0
LINE
  8
0
 10
316.016
 20
37.9924
 11
315.789
 21
37.8928
  0
LINE
  8
0
 10
315.789
 20
37.8928
 11
315.552
 21
37.8188
  0
LINE
  8
0
 10
315.552
 20
37.8188
 11
315.309
 21
37.7713
  0
LINE
  8
0
 10
315.309
 20
37.7713
 11
315.062
 21
37.7509
  0
LINE
  8
0
 10
315.062
 20
37.7509
 11
314.814
 21
37.7577
  0
LINE
  8
0
 10
-315.309
 20
37.7713
 11
-315.552
 21
37.8188
  0
LINE
  8
0
 10
-315.552
 20
37.8188
 11
-315.789
 21
37.8928
  0
LINE
  8
0
 10
-315.789
 20
37.8928
 11
-316.016
 21
37.9924
  0
LINE
  8
0
 10
-316.016
 20
37.9924
 11
-316.231
 21
38.1164
  0
LINE
  8
0
 10
-316.231
 20
38.1164
 11
-316.43
 21
38.2632
  0
LINE
  8
0
 10
-316.43
 20
38.2632
 11
-316.613
 21
38.4311
  0
LINE
  8
0
 10
-316.613
 20
38.4311
 11
-316.776
 21
38.618
  0
LINE
  8
0
 10
-316.776
 20
38.618
 11
-316.917
 21
38.8217
  0
LINE
  8
0
 10
-316.917
 20
38.8217
 11
-317.035
 21
39.0397
  0
LINE
  8
0
 10
-317.035
 20
39.0397
 11
-317.128
 21
39.2694
  0
LINE
  8
0
 10
-317.128
 20
39.2694
 11
-317.196
 21
39.508
  0
LINE
  8
0
 10
-317.196
 20
39.508
 11
-317.236
 21
39.7525
  0
LINE
  8
0
 10
-317.236
 20
39.7525
 11
-317.25
 21
40
  0
LINE
  8
0
 10
-317.25
 20
40
 11
-317.236
 21
40.2475
  0
LINE
  8
0
 10
-317.236
 20
40.2475
 11
-317.196
 21
40.492
  0
LINE
  8
0
 10
-317.196
 20
40.492
 11
-317.128
 21
40.7306
  0
LINE
  8
0
 10
-317.128
 20
40.7306
 11
-317.035
 21
40.9602
  0
LINE
  8
0
 10
-317.035
 20
40.9602
 11
-316.917
 21
41.1783
  0
LINE
  8
0
 10
-316.917
 20
41.1783
 11
-316.776
 21
41.382
  0
LINE
  8
0
 10
-316.776
 20
41.382
 11
-316.613
 21
41.5689
  0
LINE
  8
0
 10
-316.613
 20
41.5689
 11
-316.43
 21
41.7368
  0
LINE
  8
0
 10
-316.43
 20
41.7368
 11
-316.231
 21
41.8836
  0
LINE
  8
0
 10
-316.231
 20
41.8836
 11
-316.016
 21
42.0076
  0
LINE
  8
0
 10
-316.016
 20
42.0076
 11
-315.789
 21
42.1071
  0
LINE
  8
0
 10
-315.789
 20
42.1071
 11
-315.552
 21
42.1812
  0
LINE
  8
0
 10
-315.552
 20
42.1812
 11
-315.309
 21
42.2287
  0
LINE
  8
0
 10
-315.309
 20
42.2287
 11
-315.062
 21
42.2491
  0
LINE
  8
0
 10
-315.062
 20
42.2491
 11
-314.814
 21
42.2423
  0
LINE
  8
0
 10
-314.814
 20
42.2423
 11
-314.569
 21
42.2083
  0
LINE
  8
0
 10
-314.569
 20
42.2083
 11
-314.328
 21
42.1474
  0
LINE
  8
0
 10
-314.328
 20
42.1474
 11
-314.096
 21
42.0605
  0
LINE
  8
0
 10
-314.096
 20
42.0605
 11
-313.875
 21
41.9485
  0
LINE
  8
0
 10
-313.875
 20
41.9485
 11
-313.667
 21
41.813
  0
LINE
  8
0
 10
-313.667
 20
41.813
 11
-313.476
 21
41.6554
  0
LINE
  8
0
 10
-313.476
 20
41.6554
 11
-313.303
 21
41.4777
  0
LINE
  8
0
 10
-313.303
 20
41.4777
 11
-313.151
 21
41.2821
  0
LINE
  8
0
 10
-313.151
 20
41.2821
 11
-313.021
 21
41.0709
  0
LINE
  8
0
 10
-313.021
 20
41.0709
 11
-312.915
 21
40.8467
  0
LINE
  8
0
 10
-312.915
 20
40.8467
 11
-312.835
 21
40.6122
  0
LINE
  8
0
 10
-312.835
 20
40.6122
 11
-312.781
 21
40.3703
  0
LINE
  8
0
 10
-312.781
 20
40.3703
 11
-312.753
 21
40.1239
  0
LINE
  8
0
 10
-312.753
 20
40.1239
 11
-312.753
 21
39.8761
  0
LINE
  8
0
 10
-312.753
 20
39.8761
 11
-312.781
 21
39.6297
  0
LINE
  8
0
 10
-312.781
 20
39.6297
 11
-312.835
 21
39.3878
  0
LINE
  8
0
 10
-312.835
 20
39.3878
 11
-312.915
 21
39.1533
  0
LINE
  8
0
 10
-312.915
 20
39.1533
 11
-313.021
 21
38.9291
  0
LINE
  8
0
 10
-313.021
 20
38.9291
 11
-313.151
 21
38.7179
  0
LINE
  8
0
 10
-313.151
 20
38.7179
 11
-313.303
 21
38.5223
  0
LINE
  8
0
 10
-313.303
 20
38.5223
 11
-313.476
 21
38.3446
  0
LINE
  8
0
 10
-313.476
 20
38.3446
 11
-313.667
 21
38.187
  0
LINE
  8
0
 10
-313.667
 20
38.187
 11
-313.875
 21
38.0514
  0
LINE
  8
0
 10
-313.875
 20
38.0514
 11
-314.096
 21
37.9395
  0
LINE
  8
0
 10
-314.096
 20
37.9395
 11
-314.328
 21
37.8526
  0
LINE
  8
0
 10
-314.328
 20
37.8526
 11
-314.569
 21
37.7917
  0
LINE
  8
0
 10
-314.569
 20
37.7917
 11
-314.814
 21
37.7577
  0
LINE
  8
0
 10
-314.814
 20
37.7577
 11
-315.062
 21
37.7509
  0
LINE
  8
0
 10
-315.062
 20
37.7509
 11
-315.309
 21
37.7713
  0
LINE
  8
0
 10
-315.309
 20
-42.2287
 11
-315.552
 21
-42.1812
  0
LINE
  8
0
 10
-315.552
 20
-42.1812
 11
-315.789
 21
-42.1071
  0
LINE
  8
0
 10
-315.789
 20
-42.1071
 11
-316.016
 21
-42.0076
  0
LINE
  8
0
 10
-316.016
 20
-42.0076
 11
-316.231
 21
-41.8836
  0
LINE
  8
0
 10
-316.231
 20
-41.8836
 11
-316.43
 21
-41.7368
  0
LINE
  8
0
 10
-316.43
 20
-41.7368
 11
-316.613
 21
-41.5689
  0
LINE
  8
0
 10
-316.613
 20
-41.5689
 11
-316.776
 21
-41.382
  0
LINE
  8
0
 10
-316.776
 20
-41.382
 11
-316.917
 21
-41.1783
  0
LINE
  8
0
 10
-316.917
 20
-41.1783
 11
-317.035
 21
-40.9602
  0
LINE
  8
0
 10
-317.035
 20
-40.9602
 11
-317.128
 21
-40.7306
  0
LINE
  8
0
 10
-317.128
 20
-40.7306
 11
-317.196
 21
-40.492
  0
LINE
  8
0
 10
-317.196
 20
-40.492
 11
-317.236
 21
-40.2475
  0
LINE
  8
0
 10
-317.236
 20
-40.2475
 11
-317.25
 21
-40
  0
LINE
  8
0
 10
-317.25
 20
-40
 11
-317.236
 21
-39.7525
  0
LINE
  8
0
 10
-317.236
 20
-39.7525
 11
-317.196
 21
-39.508
  0
LINE
  8
0
 10
-317.196
 20
-39.508
 11
-317.128
 21
-39.2694
  0
LINE
  8
0
 10
-317.128
 20
-39.2694
 11
-317.035
 21
-39.0397
  0
LINE
  8
0
 10
-317.035
 20
-39.0397
 11
-316.917
 21
-38.8217
  0
LINE
  8
0
 10
-316.917
 20
-38.8217
 11
-316.776
 21
-38.618
  0
LINE
  8
0
 10
-316.776
 20
-38.618
 11
-316.613
 21
-38.4311
  0
LINE
  8
0
 10
-316.613
 20
-38.4311
 11
-316.43
 21
-38.2632
  0
LINE
  8
0
 10
-316.43
 20
-38.2632
 11
-316.231
 21
-38.1164
  0
LINE
  8
0
 10
-316.231
 20
-38.1164
 11
-316.016
 21
-37.9924
  0
LINE
  8
0
 10
-316.016
 20
-37.9924
 11
-315.789
 21
-37.8928
  0
LINE
  8
0
 10
-315.789
 20
-37.8928
 11
-315.552
 21
-37.8188
  0
LINE
  8
0
 10
-315.552
 20
-37.8188
 11
-315.309
 21
-37.7713
  0
LINE
  8
0
 10
-315.309
 20
-37.7713
 11
-315.062
 21
-37.7509
  0
LINE
  8
0
 10
-315.062
 20
-37.7509
 11
-314.814
 21
-37.7577
  0
LINE
  8
0
 10
-314.814
 20
-37.7577
 11
-314.569
 21
-37.7917
  0
LINE
  8
0
 10
-314.569
 20
-37.7917
 11
-314.328
 21
-37.8526
  0
LINE
  8
0
 10
-314.328
 20
-37.8526
 11
-314.096
 21
-37.9395
  0
LINE
  8
0
 10
-314.096
 20
-37.9395
 11
-313.875
 21
-38.0514
  0
LINE
  8
0
 10
-313.875
 20
-38.0514
 11
-313.667
 21
-38.187
  0
LINE
  8
0
 10
-313.667
 20
-38.187
 11
-313.476
 21
-38.3446
  0
LINE
  8
0
 10
-313.476
 20
-38.3446
 11
-313.303
 21
-38.5223
  0
LINE
  8
0
 10
-313.303
 20
-38.5223
 11
-313.151
 21
-38.7179
  0
LINE
  8
0
 10
-313.151
 20
-38.7179
 11
-313.021
 21
-38.9291
  0
LINE
  8
0
 10
-313.021
 20
-38.9291
 11
-312.915
 21
-39.1533
  0
LINE
  8
0
 10
-312.915
 20
-39.1533
 11
-312.835
 21
-39.3878
  0
LINE
  8
0
 10
-312.835
 20
-39.3878
 11
-312.781
 21
-39.6297
  0
LINE
  8
0
 10
-312.781
 20
-39.6297
 11
-312.753
 21
-39.8761
  0
LINE
  8
0
 10
-312.753
 20
-39.8761
 11
-312.753
 21
-40.1239
  0
LINE
  8
0
 10
-312.753
 20
-40.1239
 11
-312.781
 21
-40.3703
  0
LINE
  8
0
 10
-312.781
 20
-40.3703
 11
-312.835
 21
-40.6122
  0
LINE
  8
0
 10
-312.835
 20
-40.6122
 11
-312.915
 21
-40.8467
  0
LINE
  8
0
 10
-312.915
 20
-40.8467
 11
-313.021
 21
-41.0709
  0
LINE
  8
0
 10
-313.021
 20
-41.0709
 11
-313.151
 21
-41.2821
  0
LINE
  8
0
 10
-313.151
 20
-41.2821
 11
-313.303
 21
-41.4777
  0
LINE
  8
0
 10
-313.303
 20
-41.4777
 11
-313.476
 21
-41.6554
  0
LINE
  8
0
 10
-313.476
 20
-41.6554
 11
-313.667
 21
-41.813
  0
LINE
  8
0
 10
-313.667
 20
-41.813
 11
-313.875
 21
-41.9485
  0
LINE
  8
0
 10
-313.875
 20
-41.9485
 11
-314.096
 21
-42.0605
  0
LINE
  8
0
 10
-314.096
 20
-42.0605
 11
-314.328
 21
-42.1474
  0
LINE
  8
0
 10
-314.328
 20
-42.1474
 11
-314.569
 21
-42.2083
  0
LINE
  8
0
 10
-314.569
 20
-42.2083
 11
-314.814
 21
-42.2423
  0
LINE
  8
0
 10
-314.814
 20
-42.2423
 11
-315.062
 21
-42.2491
  0
LINE
  8
0
 10
-315.062
 20
-42.2491
 11
-315.309
 21
-42.2287
  0
LINE
  8
0
 10
314.814
 20
-42.2423
 11
314.569
 21
-42.2083
  0
LINE
  8
0
 10
314.569
 20
-42.2083
 11
314.328
 21
-42.1474
  0
LINE
  8
0
 10
314.328
 20
-42.1474
 11
314.096
 21
-42.0605
  0
LINE
  8
0
 10
314.096
 20
-42.0605
 11
313.875
 21
-41.9485
  0
LINE
  8
0
 10
313.875
 20
-41.9485
 11
313.667
 21
-41.813
  0
LINE
  8
0
 10
313.667
 20
-41.813
 11
313.476
 21
-41.6554
  0
LINE
  8
0
 10
313.476
 20
-41.6554
 11
313.303
 21
-41.4777
  0
LINE
  8
0
 10
313.303
 20
-41.4777
 11
313.151
 21
-41.2821
  0
LINE
  8
0
 10
313.151
 20
-41.2821
 11
313.021
 21
-41.0709
  0
LINE
  8
0
 10
313.021
 20
-41.0709
 11
312.915
 21
-40.8467
  0
LINE
  8
0
 10
312.915
 20
-40.8467
 11
312.835
 21
-40.6122
  0
LINE
  8
0
 10
312.835
 20
-40.6122
 11
312.781
 21
-40.3703
  0
LINE
  8
0
 10
312.781
 20
-40.3703
 11
312.753
 21
-40.1239
  0
LINE
  8
0
 10
312.753
 20
-40.1239
 11
312.753
 21
-39.8761
  0
LINE
  8
0
 10
312.753
 20
-39.8761
 11
312.781
 21
-39.6297
  0
LINE
  8
0
 10
312.781
 20
-39.6297
 11
312.835
 21
-39.3878
  0
LINE
  8
0
 10
312.835
 20
-39.3878
 11
312.915
 21
-39.1533
  0
LINE
  8
0
 10
312.915
 20
-39.1533
 11
313.021
 21
-38.9291
  0
LINE
  8
0
 10
313.021
 20
-38.9291
 11
313.151
 21
-38.7179
  0
LINE
  8
0
 10
313.151
 20
-38.7179
 11
313.303
 21
-38.5223
  0
LINE
  8
0
 10
313.303
 20
-38.5223
 11
313.476
 21
-38.3446
  0
LINE
  8
0
 10
313.476
 20
-38.3446
 11
313.667
 21
-38.187
  0
LINE
  8
0
 10
313.667
 20
-38.187
 11
313.875
 21
-38.0514
  0
LINE
  8
0
 10
313.875
 20
-38.0514
 11
314.096
 21
-37.9395
  0
LINE
  8
0
 10
314.096
 20
-37.9395
 11
314.328
 21
-37.8526
  0
LINE
  8
0
 10
314.328
 20
-37.8526
 11
314.569
 21
-37.7917
  0
LINE
  8
0
 10
314.569
 20
-37.7917
 11
314.814
 21
-37.7577
  0
LINE
  8
0
 10
314.814
 20
-37.7577
 11
315.062
 21
-37.7509
  0
LINE
  8
0
 10
315.062
 20
-37.7509
 11
315.309
 21
-37.7713
  0
LINE
  8
0
 10
315.309
 20
-37.7713
 11
315.552
 21
-37.8188
  0
LINE
  8
0
 10
315.552
 20
-37.8188
 11
315.789
 21
-37.8928
  0
LINE
  8
0
 10
315.789
 20
-37.8928
 11
316.016
 21
-37.9924
  0
LINE
  8
0
 10
316.016
 20
-37.9924
 11
316.231
 21
-38.1164
  0
LINE
  8
0
 10
316.231
 20
-38.1164
 11
316.43
 21
-38.2632
  0
LINE
  8
0
 10
316.43
 20
-38.2632
 11
316.613
 21
-38.4311
  0
LINE
  8
0
 10
316.613
 20
-38.4311
 11
316.776
 21
-38.618
  0
LINE
  8
0
 10
316.776
 20
-38.618
 11
316.917
 21
-38.8217
  0
LINE
  8
0
 10
316.917
 20
-38.8217
 11
317.035
 21
-39.0397
  0
LINE
  8
0
 10
317.035
 20
-39.0397
 11
317.128
 21
-39.2694
  0
LINE
  8
0
 10
317.128
 20
-39.2694
 11
317.196
 21
-39.508
  0
LINE
  8
0
 10
317.196
 20
-39.508
 11
317.236
 21
-39.7525
  0
LINE
  8
0
 10
317.236
 20
-39.7525
 11
317.25
 21
-40
  0
LINE
  8
0
 10
317.25
 20
-40
 11
317.236
 21
-40.2475
  0
LINE
  8
0
 10
317.236
 20
-40.2475
 11
317.196
 21
-40.492
  0
LINE
  8
0
 10
317.196
 20
-40.492
 11
317.128
 21
-40.7306
  0
LINE
  8
0
 10
317.128
 20
-40.7306
 11
317.035
 21
-40.9602
  0
LINE
  8
0
 10
317.035
 20
-40.9602
 11
316.917
 21
-41.1783
  0
LINE
  8
0
 10
316.917
 20
-41.1783
 11
316.776
 21
-41.382
  0
LINE
  8
0
 10
316.776
 20
-41.382
 11
316.613
 21
-41.5689
  0
LINE
  8
0
 10
316.613
 20
-41.5689
 11
316.43
 21
-41.7368
  0
LINE
  8
0
 10
316.43
 20
-41.7368
 11
316.231
 21
-41.8836
  0
LINE
  8
0
 10
316.231
 20
-41.8836
 11
316.016
 21
-42.0076
  0
LINE
  8
0
 10
316.016
 20
-42.0076
 11
315.789
 21
-42.1071
  0
LINE
  8
0
 10
315.789
 20
-42.1071
 11
315.552
 21
-42.1812
  0
LINE
  8
0
 10
315.552
 20
-42.1812
 11
315.309
 21
-42.2287
  0
LINE
  8
0
 10
315.309
 20
-42.2287
 11
315.062
 21
-42.2491
  0
LINE
  8
0
 10
315.062
 20
-42.2491
 11
314.814
 21
-42.2423
  0
LINE
  8
0
 10
-315.523
 20
-84.9726
 11
-316.04
 21
-84.8907
  0
LINE
  8
0
 10
-316.04
 20
-84.8907
 11
-316.545
 21
-84.7553
  0
LINE
  8
0
 10
-316.545
 20
-84.7553
 11
-317.034
 21
-84.5677
  0
LINE
  8
0
 10
-317.034
 20
-84.5677
 11
-317.5
 21
-84.3301
  0
LINE
  8
0
 10
-317.5
 20
-84.3301
 11
-317.939
 21
-84.0451
  0
LINE
  8
0
 10
-317.939
 20
-84.0451
 11
-318.346
 21
-83.7157
  0
LINE
  8
0
 10
-318.346
 20
-83.7157
 11
-318.716
 21
-83.3456
  0
LINE
  8
0
 10
-318.716
 20
-83.3456
 11
-319.045
 21
-82.9389
  0
LINE
  8
0
 10
-319.045
 20
-82.9389
 11
-319.33
 21
-82.5
  0
LINE
  8
0
 10
-319.33
 20
-82.5
 11
-319.568
 21
-82.0337
  0
LINE
  8
0
 10
-319.568
 20
-82.0337
 11
-319.755
 21
-81.5451
  0
LINE
  8
0
 10
-319.755
 20
-81.5451
 11
-319.891
 21
-81.0396
  0
LINE
  8
0
 10
-319.891
 20
-81.0396
 11
-319.973
 21
-80.5226
  0
LINE
  8
0
 10
-319.973
 20
-80.5226
 11
-320
 21
-80
  0
LINE
  8
0
 10
-320
 20
-80
 11
-319.973
 21
-79.4774
  0
LINE
  8
0
 10
-319.973
 20
-79.4774
 11
-319.891
 21
-78.9604
  0
LINE
  8
0
 10
-319.891
 20
-78.9604
 11
-319.755
 21
-78.4549
  0
LINE
  8
0
 10
-319.755
 20
-78.4549
 11
-319.568
 21
-77.9663
  0
LINE
  8
0
 10
-319.568
 20
-77.9663
 11
-319.33
 21
-77.5
  0
LINE
  8
0
 10
-319.33
 20
-77.5
 11
-319.045
 21
-77.0611
  0
LINE
  8
0
 10
-319.045
 20
-77.0611
 11
-318.716
 21
-76.6543
  0
LINE
  8
0
 10
-318.716
 20
-76.6543
 11
-318.346
 21
-76.2843
  0
LINE
  8
0
 10
-318.346
 20
-76.2843
 11
-317.939
 21
-75.9549
  0
LINE
  8
0
 10
-317.939
 20
-75.9549
 11
-317.5
 21
-75.6699
  0
LINE
  8
0
 10
-317.5
 20
-75.6699
 11
-317.034
 21
-75.4323
  0
LINE
  8
0
 10
-317.034
 20
-75.4323
 11
-316.545
 21
-75.2447
  0
LINE
  8
0
 10
-316.545
 20
-75.2447
 11
-316.04
 21
-75.1093
  0
LINE
  8
0
 10
-316.04
 20
-75.1093
 11
-315.523
 21
-75.0274
  0
LINE
  8
0
 10
-315.523
 20
-75.0274
 11
-315
 21
-75
  0
LINE
  8
0
 10
-315
 20
-75
 11
-314.477
 21
-75.0274
  0
LINE
  8
0
 10
-314.477
 20
-75.0274
 11
-313.96
 21
-75.1093
  0
LINE
  8
0
 10
-313.96
 20
-75.1093
 11
-313.455
 21
-75.2447
  0
LINE
  8
0
 10
-313.455
 20
-75.2447
 11
-312.966
 21
-75.4323
  0
LINE
  8
0
 10
-312.966
 20
-75.4323
 11
-312.5
 21
-75.6699
  0
LINE
  8
0
 10
-312.5
 20
-75.6699
 11
-312.061
 21
-75.9549
  0
LINE
  8
0
 10
-312.061
 20
-75.9549
 11
-311.654
 21
-76.2843
  0
LINE
  8
0
 10
-311.654
 20
-76.2843
 11
-311.284
 21
-76.6543
  0
LINE
  8
0
 10
-311.284
 20
-76.6543
 11
-310.955
 21
-77.0611
  0
LINE
  8
0
 10
-310.955
 20
-77.0611
 11
-310.67
 21
-77.5
  0
LINE
  8
0
 10
-310.67
 20
-77.5
 11
-310.432
 21
-77.9663
  0
LINE
  8
0
 10
-310.432
 20
-77.9663
 11
-310.245
 21
-78.4549
  0
LINE
  8
0
 10
-310.245
 20
-78.4549
 11
-310.109
 21
-78.9604
  0
LINE
  8
0
 10
-310.109
 20
-78.9604
 11
-310.027
 21
-79.4774
  0
LINE
  8
0
 10
-310.027
 20
-79.4774
 11
-310
 21
-80
  0
LINE
  8
0
 10
-310
 20
-80
 11
-310.027
 21
-80.5226
  0
LINE
  8
0
 10
-310.027
 20
-80.5226
 11
-310.109
 21
-81.0396
  0
LINE
  8
0
 10
-310.109
 20
-81.0396
 11
-310.245
 21
-81.5451
  0
LINE
  8
0
 10
-310.245
 20
-81.5451
 11
-310.432
 21
-82.0337
  0
LINE
  8
0
 10
-310.432
 20
-82.0337
 11
-310.67
 21
-82.5
  0
LINE
  8
0
 10
-310.67
 20
-82.5
 11
-310.955
 21
-82.9389
  0
LINE
  8
0
 10
-310.955
 20
-82.9389
 11
-311.284
 21
-83.3456
  0
LINE
  8
0
 10
-311.284
 20
-83.3456
 11
-311.654
 21
-83.7157
  0
LINE
  8
0
 10
-311.654
 20
-83.7157
 11
-312.061
 21
-84.0451
  0
LINE
  8
0
 10
-312.061
 20
-84.0451
 11
-312.5
 21
-84.3301
  0
LINE
  8
0
 10
-312.5
 20
-84.3301
 11
-312.966
 21
-84.5677
  0
LINE
  8
0
 10
-312.966
 20
-84.5677
 11
-313.455
 21
-84.7553
  0
LINE
  8
0
 10
-313.455
 20
-84.7553
 11
-313.96
 21
-84.8907
  0
LINE
  8
0
 10
-313.96
 20
-84.8907
 11
-314.477
 21
-84.9726
  0
LINE
  8
0
 10
-314.477
 20
-84.9726
 11
-315
 21
-85
  0
LINE
  8
0
 10
-315
 20
-85
 11
-315.523
 21
-84.9726
  0
LINE
  8
0
 10
314.477
 20
-84.9726
 11
313.96
 21
-84.8907
  0
LINE
  8
0
 10
313.96
 20
-84.8907
 11
313.455
 21
-84.7553
  0
LINE
  8
0
 10
313.455
 20
-84.7553
 11
312.966
 21
-84.5677
  0
LINE
  8
0
 10
312.966
 20
-84.5677
 11
312.5
 21
-84.3301
  0
LINE
  8
0
 10
312.5
 20
-84.3301
 11
312.061
 21
-84.0451
  0
LINE
  8
0
 10
312.061
 20
-84.0451
 11
311.654
 21
-83.7157
  0
LINE
  8
0
 10
311.654
 20
-83.7157
 11
311.284
 21
-83.3456
  0
LINE
  8
0
 10
311.284
 20
-83.3456
 11
310.955
 21
-82.9389
  0
LINE
  8
0
 10
310.955
 20
-82.9389
 11
310.67
 21
-82.5
  0
LINE
  8
0
 10
310.67
 20
-82.5
 11
310.432
 21
-82.0337
  0
LINE
  8
0
 10
310.432
 20
-82.0337
 11
310.245
 21
-81.5451
  0
LINE
  8
0
 10
310.245
 20
-81.5451
 11
310.109
 21
-81.0396
  0
LINE
  8
0
 10
310.109
 20
-81.0396
 11
310.027
 21
-80.5226
  0
LINE
  8
0
 10
310.027
 20
-80.5226
 11
310
 21
-80
  0
LINE
  8
0
 10
310
 20
-80
 11
310.027
 21
-79.4774
  0
LINE
  8
0
 10
310.027
 20
-79.4774
 11
310.109
 21
-78.9604
  0
LINE
  8
0
 10
310.109
 20
-78.9604
 11
310.245
 21
-78.4549
  0
LINE
  8
0
 10
310.245
 20
-78.4549
 11
310.432
 21
-77.9663
  0
LINE
  8
0
 10
310.432
 20
-77.9663
 11
310.67
 21
-77.5
  0
LINE
  8
0
 10
310.67
 20
-77.5
 11
310.955
 21
-77.0611
  0
LINE
  8
0
 10
310.955
 20
-77.0611
 11
311.284
 21
-76.6543
  0
LINE
  8
0
 10
311.284
 20
-76.6543
 11
311.654
 21
-76.2843
  0
LINE
  8
0
 10
311.654
 20
-76.2843
 11
312.061
 21
-75.9549
  0
LINE
  8
0
 10
312.061
 20
-75.9549
 11
312.5
 21
-75.6699
  0
LINE
  8
0
 10
312.5
 20
-75.6699
 11
312.966
 21
-75.4323
  0
LINE
  8
0
 10
312.966
 20
-75.4323
 11
313.455
 21
-75.2447
  0
LINE
  8
0
 10
313.455
 20
-75.2447
 11
313.96
 21
-75.1093
  0
LINE
  8
0
 10
313.96
 20
-75.1093
 11
314.477
 21
-75.0274
  0
LINE
  8
0
 10
314.477
 20
-75.0274
 11
315
 21
-75
  0
LINE
  8
0
 10
315
 20
-75
 11
315.523
 21
-75.0274
  0
LINE
  8
0
 10
315.523
 20
-75.0274
 11
316.04
 21
-75.1093
  0
LINE
  8
0
 10
316.04
 20
-75.1093
 11
316.545
 21
-75.2447
  0
LINE
  8
0
 10
316.545
 20
-75.2447
 11
317.034
 21
-75.4323
  0
LINE
  8
0
 10
317.034
 20
-75.4323
 11
317.5
 21
-75.6699
  0
LINE
  8
0
 10
317.5
 20
-75.6699
 11
317.939
 21
-75.9549
  0
LINE
  8
0
 10
317.939
 20
-75.9549
 11
318.346
 21
-76.2843
  0
LINE
  8
0
 10
318.346
 20
-76.2843
 11
318.716
 21
-76.6543
  0
LINE
  8
0
 10
318.716
 20
-76.6543
 11
319.045
 21
-77.0611
  0
LINE
  8
0
 10
319.045
 20
-77.0611
 11
319.33
 21
-77.5
  0
LINE
  8
0
 10
319.33
 20
-77.5
 11
319.568
 21
-77.9663
  0
LINE
  8
0
 10
319.568
 20
-77.9663
 11
319.755
 21
-78.4549
  0
LINE
  8
0
 10
319.755
 20
-78.4549
 11
319.891
 21
-78.9604
  0
LINE
  8
0
 10
319.891
 20
-78.9604
 11
319.973
 21
-79.4774
  0
LINE
  8
0
 10
319.973
 20
-79.4774
 11
320
 21
-80
  0
LINE
  8
0
 10
320
 20
-80
 11
319.973
 21
-80.5226
  0
LINE
  8
0
 10
319.973
 20
-80.5226
 11
319.891
 21
-81.0396
  0
LINE
  8
0
 10
319.891
 20
-81.0396
 11
319.755
 21
-81.5451
  0
LINE
  8
0
 10
319.755
 20
-81.5451
 11
319.568
 21
-82.0337
  0
LINE
  8
0
 10
319.568
 20
-82.0337
 11
319.33
 21
-82.5
  0
LINE
  8
0
 10
319.33
 20
-82.5
 11
319.045
 21
-82.9389
  0
LINE
  8
0
 10
319.045
 20
-82.9389
 11
318.716
 21
-83.3456
  0
LINE
  8
0
 10
318.716
 20
-83.3456
 11
318.346
 21
-83.7157
  0
LINE
  8
0
 10
318.346
 20
-83.7157
 11
317.939
 21
-84.0451
  0
LINE
  8
0
 10
317.939
 20
-84.0451
 11
317.5
 21
-84.3301
  0
LINE
  8
0
 10
317.5
 20
-84.3301
 11
317.034
 21
-84.5677
  0
LINE
  8
0
 10
317.034
 20
-84.5677
 11
316.545
 21
-84.7553
  0
LINE
  8
0
 10
316.545
 20
-84.7553
 11
316.04
 21
-84.8907
  0
LINE
  8
0
 10
316.04
 20
-84.8907
 11
315.523
 21
-84.9726
  0
LINE
  8
0
 10
315.523
 20
-84.9726
 11
315
 21
-85
  0
LINE
  8
0
 10
315
 20
-85
 11
314.477
 21
-84.9726
  0
ENDSEC
  0
SECTION
  2
OBJECTS
  0
DICTIONARY
  0
ENDSEC
  0
EOF
