  0
SECTION
  2
BLOCKS
  0
ENDSEC
  0
SECTION
  2
ENTITIES
  0
LINE
  8
0
 10
300.523
 20
-65.9726
 11
301.04
 21
-65.8907
  0
LINE
  8
0
 10
301.04
 20
-65.8907
 11
301.545
 21
-65.7553
  0
LINE
  8
0
 10
301.545
 20
-65.7553
 11
302.034
 21
-65.5677
  0
LINE
  8
0
 10
302.034
 20
-65.5677
 11
302.5
 21
-65.3301
  0
LINE
  8
0
 10
302.5
 20
-65.3301
 11
302.939
 21
-65.0451
  0
LINE
  8
0
 10
302.939
 20
-65.0451
 11
303.346
 21
-64.7157
  0
LINE
  8
0
 10
303.346
 20
-64.7157
 11
303.716
 21
-64.3457
  0
LINE
  8
0
 10
303.716
 20
-64.3457
 11
304.045
 21
-63.9389
  0
LINE
  8
0
 10
304.045
 20
-63.9389
 11
304.33
 21
-63.5
  0
LINE
  8
0
 10
304.33
 20
-63.5
 11
304.568
 21
-63.0337
  0
LINE
  8
0
 10
304.568
 20
-63.0337
 11
304.755
 21
-62.5451
  0
LINE
  8
0
 10
304.755
 20
-62.5451
 11
304.891
 21
-62.0396
  0
LINE
  8
0
 10
304.891
 20
-62.0396
 11
304.973
 21
-61.5226
  0
LINE
  8
0
 10
304.973
 20
-61.5226
 11
305
 21
-61
  0
LINE
  8
0
 10
305
 20
-61
 11
305
 21
92.875
  0
LINE
  8
0
 10
305
 20
92.875
 11
-305
 21
92.875
  0
LINE
  8
0
 10
-305
 20
92.875
 11
-305
 21
-61
  0
LINE
  8
0
 10
-305
 20
-61
 11
-304.973
 21
-61.5226
  0
LINE
  8
0
 10
-304.973
 20
-61.5226
 11
-304.891
 21
-62.0396
  0
LINE
  8
0
 10
-304.891
 20
-62.0396
 11
-304.755
 21
-62.5451
  0
LINE
  8
0
 10
-304.755
 20
-62.5451
 11
-304.568
 21
-63.0337
  0
LINE
  8
0
 10
-304.568
 20
-63.0337
 11
-304.33
 21
-63.5
  0
LINE
  8
0
 10
-304.33
 20
-63.5
 11
-304.045
 21
-63.9389
  0
LINE
  8
0
 10
-304.045
 20
-63.9389
 11
-303.716
 21
-64.3457
  0
LINE
  8
0
 10
-303.716
 20
-64.3457
 11
-303.346
 21
-64.7157
  0
LINE
  8
0
 10
-303.346
 20
-64.7157
 11
-302.939
 21
-65.0451
  0
LINE
  8
0
 10
-302.939
 20
-65.0451
 11
-302.5
 21
-65.3301
  0
LINE
  8
0
 10
-302.5
 20
-65.3301
 11
-302.034
 21
-65.5677
  0
LINE
  8
0
 10
-302.034
 20
-65.5677
 11
-301.545
 21
-65.7553
  0
LINE
  8
0
 10
-301.545
 20
-65.7553
 11
-301.04
 21
-65.8907
  0
LINE
  8
0
 10
-301.04
 20
-65.8907
 11
-300.523
 21
-65.9726
  0
LINE
  8
0
 10
-300.523
 20
-65.9726
 11
-300
 21
-66
  0
LINE
  8
0
 10
-300
 20
-66
 11
300
 21
-66
  0
LINE
  8
0
 10
300
 20
-66
 11
300.523
 21
-65.9726
  0
LINE
  8
0
 10
-183.519
 20
80.7577
 11
-183.765
 21
80.7917
  0
LINE
  8
0
 10
-183.765
 20
80.7917
 11
-184.005
 21
80.8526
  0
LINE
  8
0
 10
-184.005
 20
80.8526
 11
-184.237
 21
80.9395
  0
LINE
  8
0
 10
-184.237
 20
80.9395
 11
-184.458
 21
81.0514
  0
LINE
  8
0
 10
-184.458
 20
81.0514
 11
-184.666
 21
81.187
  0
LINE
  8
0
 10
-184.666
 20
81.187
 11
-184.857
 21
81.3446
  0
LINE
  8
0
 10
-184.857
 20
81.3446
 11
-185.03
 21
81.5223
  0
LINE
  8
0
 10
-185.03
 20
81.5223
 11
-185.182
 21
81.7179
  0
LINE
  8
0
 10
-185.182
 20
81.7179
 11
-185.312
 21
81.9291
  0
LINE
  8
0
 10
-185.312
 20
81.9291
 11
-185.418
 21
82.1533
  0
LINE
  8
0
 10
-185.418
 20
82.1533
 11
-185.498
 21
82.3878
  0
LINE
  8
0
 10
-185.498
 20
82.3878
 11
-185.553
 21
82.6297
  0
LINE
  8
0
 10
-185.553
 20
82.6297
 11
-185.58
 21
82.8761
  0
LINE
  8
0
 10
-185.58
 20
82.8761
 11
-185.58
 21
83.1239
  0
LINE
  8
0
 10
-185.58
 20
83.1239
 11
-185.553
 21
83.3703
  0
LINE
  8
0
 10
-185.553
 20
83.3703
 11
-185.498
 21
83.6122
  0
LINE
  8
0
 10
-185.498
 20
83.6122
 11
-185.418
 21
83.8467
  0
LINE
  8
0
 10
-185.418
 20
83.8467
 11
-185.312
 21
84.0709
  0
LINE
  8
0
 10
-185.312
 20
84.0709
 11
-185.182
 21
84.2821
  0
LINE
  8
0
 10
-185.182
 20
84.2821
 11
-185.03
 21
84.4777
  0
LINE
  8
0
 10
-185.03
 20
84.4777
 11
-184.857
 21
84.6554
  0
LINE
  8
0
 10
-184.857
 20
84.6554
 11
-184.666
 21
84.813
  0
LINE
  8
0
 10
-184.666
 20
84.813
 11
-184.458
 21
84.9485
  0
LINE
  8
0
 10
-184.458
 20
84.9485
 11
-184.237
 21
85.0605
  0
LINE
  8
0
 10
-184.237
 20
85.0605
 11
-184.005
 21
85.1474
  0
LINE
  8
0
 10
-184.005
 20
85.1474
 11
-183.765
 21
85.2083
  0
LINE
  8
0
 10
-183.765
 20
85.2083
 11
-183.519
 21
85.2423
  0
LINE
  8
0
 10
-183.519
 20
85.2423
 11
-183.271
 21
85.2491
  0
LINE
  8
0
 10
-183.271
 20
85.2491
 11
-183.024
 21
85.2287
  0
LINE
  8
0
 10
-183.024
 20
85.2287
 11
-182.781
 21
85.1812
  0
LINE
  8
0
 10
-182.781
 20
85.1812
 11
-182.544
 21
85.1071
  0
LINE
  8
0
 10
-182.544
 20
85.1071
 11
-182.317
 21
85.0076
  0
LINE
  8
0
 10
-182.317
 20
85.0076
 11
-182.103
 21
84.8836
  0
LINE
  8
0
 10
-182.103
 20
84.8836
 11
-181.903
 21
84.7368
  0
LINE
  8
0
 10
-181.903
 20
84.7368
 11
-181.721
 21
84.5689
  0
LINE
  8
0
 10
-181.721
 20
84.5689
 11
-181.558
 21
84.382
  0
LINE
  8
0
 10
-181.558
 20
84.382
 11
-181.417
 21
84.1783
  0
LINE
  8
0
 10
-181.417
 20
84.1783
 11
-181.299
 21
83.9602
  0
LINE
  8
0
 10
-181.299
 20
83.9602
 11
-181.205
 21
83.7306
  0
LINE
  8
0
 10
-181.205
 20
83.7306
 11
-181.138
 21
83.492
  0
LINE
  8
0
 10
-181.138
 20
83.492
 11
-181.097
 21
83.2475
  0
LINE
  8
0
 10
-181.097
 20
83.2475
 11
-181.083
 21
83
  0
LINE
  8
0
 10
-181.083
 20
83
 11
-181.097
 21
82.7525
  0
LINE
  8
0
 10
-181.097
 20
82.7525
 11
-181.138
 21
82.508
  0
LINE
  8
0
 10
-181.138
 20
82.508
 11
-181.205
 21
82.2694
  0
LINE
  8
0
 10
-181.205
 20
82.2694
 11
-181.299
 21
82.0397
  0
LINE
  8
0
 10
-181.299
 20
82.0397
 11
-181.417
 21
81.8217
  0
LINE
  8
0
 10
-181.417
 20
81.8217
 11
-181.558
 21
81.618
  0
LINE
  8
0
 10
-181.558
 20
81.618
 11
-181.721
 21
81.4311
  0
LINE
  8
0
 10
-181.721
 20
81.4311
 11
-181.903
 21
81.2632
  0
LINE
  8
0
 10
-181.903
 20
81.2632
 11
-182.103
 21
81.1164
  0
LINE
  8
0
 10
-182.103
 20
81.1164
 11
-182.317
 21
80.9924
  0
LINE
  8
0
 10
-182.317
 20
80.9924
 11
-182.544
 21
80.8929
  0
LINE
  8
0
 10
-182.544
 20
80.8929
 11
-182.781
 21
80.8188
  0
LINE
  8
0
 10
-182.781
 20
80.8188
 11
-183.024
 21
80.7713
  0
LINE
  8
0
 10
-183.024
 20
80.7713
 11
-183.271
 21
80.7509
  0
LINE
  8
0
 10
-183.271
 20
80.7509
 11
-183.519
 21
80.7577
  0
LINE
  8
0
 10
-275.186
 20
80.7577
 11
-275.431
 21
80.7917
  0
LINE
  8
0
 10
-275.431
 20
80.7917
 11
-275.672
 21
80.8526
  0
LINE
  8
0
 10
-275.672
 20
80.8526
 11
-275.904
 21
80.9395
  0
LINE
  8
0
 10
-275.904
 20
80.9395
 11
-276.125
 21
81.0514
  0
LINE
  8
0
 10
-276.125
 20
81.0514
 11
-276.333
 21
81.187
  0
LINE
  8
0
 10
-276.333
 20
81.187
 11
-276.524
 21
81.3446
  0
LINE
  8
0
 10
-276.524
 20
81.3446
 11
-276.697
 21
81.5223
  0
LINE
  8
0
 10
-276.697
 20
81.5223
 11
-276.849
 21
81.7179
  0
LINE
  8
0
 10
-276.849
 20
81.7179
 11
-276.979
 21
81.9291
  0
LINE
  8
0
 10
-276.979
 20
81.9291
 11
-277.085
 21
82.1533
  0
LINE
  8
0
 10
-277.085
 20
82.1533
 11
-277.165
 21
82.3878
  0
LINE
  8
0
 10
-277.165
 20
82.3878
 11
-277.219
 21
82.6297
  0
LINE
  8
0
 10
-277.219
 20
82.6297
 11
-277.247
 21
82.8761
  0
LINE
  8
0
 10
-277.247
 20
82.8761
 11
-277.247
 21
83.1239
  0
LINE
  8
0
 10
-277.247
 20
83.1239
 11
-277.219
 21
83.3703
  0
LINE
  8
0
 10
-277.219
 20
83.3703
 11
-277.165
 21
83.6122
  0
LINE
  8
0
 10
-277.165
 20
83.6122
 11
-277.085
 21
83.8467
  0
LINE
  8
0
 10
-277.085
 20
83.8467
 11
-276.979
 21
84.0709
  0
LINE
  8
0
 10
-276.979
 20
84.0709
 11
-276.849
 21
84.2821
  0
LINE
  8
0
 10
-276.849
 20
84.2821
 11
-276.697
 21
84.4777
  0
LINE
  8
0
 10
-276.697
 20
84.4777
 11
-276.524
 21
84.6554
  0
LINE
  8
0
 10
-276.524
 20
84.6554
 11
-276.333
 21
84.813
  0
LINE
  8
0
 10
-276.333
 20
84.813
 11
-276.125
 21
84.9485
  0
LINE
  8
0
 10
-276.125
 20
84.9485
 11
-275.904
 21
85.0605
  0
LINE
  8
0
 10
-275.904
 20
85.0605
 11
-275.672
 21
85.1474
  0
LINE
  8
0
 10
-275.672
 20
85.1474
 11
-275.431
 21
85.2083
  0
LINE
  8
0
 10
-275.431
 20
85.2083
 11
-275.186
 21
85.2423
  0
LINE
  8
0
 10
-275.186
 20
85.2423
 11
-274.938
 21
85.2491
  0
LINE
  8
0
 10
-274.938
 20
85.2491
 11
-274.691
 21
85.2287
  0
LINE
  8
0
 10
-274.691
 20
85.2287
 11
-274.448
 21
85.1812
  0
LINE
  8
0
 10
-274.448
 20
85.1812
 11
-274.211
 21
85.1071
  0
LINE
  8
0
 10
-274.211
 20
85.1071
 11
-273.984
 21
85.0076
  0
LINE
  8
0
 10
-273.984
 20
85.0076
 11
-273.769
 21
84.8836
  0
LINE
  8
0
 10
-273.769
 20
84.8836
 11
-273.57
 21
84.7368
  0
LINE
  8
0
 10
-273.57
 20
84.7368
 11
-273.387
 21
84.5689
  0
LINE
  8
0
 10
-273.387
 20
84.5689
 11
-273.224
 21
84.382
  0
LINE
  8
0
 10
-273.224
 20
84.382
 11
-273.083
 21
84.1783
  0
LINE
  8
0
 10
-273.083
 20
84.1783
 11
-272.965
 21
83.9602
  0
LINE
  8
0
 10
-272.965
 20
83.9602
 11
-272.872
 21
83.7306
  0
LINE
  8
0
 10
-272.872
 20
83.7306
 11
-272.804
 21
83.492
  0
LINE
  8
0
 10
-272.804
 20
83.492
 11
-272.764
 21
83.2475
  0
LINE
  8
0
 10
-272.764
 20
83.2475
 11
-272.75
 21
83
  0
LINE
  8
0
 10
-272.75
 20
83
 11
-272.764
 21
82.7525
  0
LINE
  8
0
 10
-272.764
 20
82.7525
 11
-272.804
 21
82.508
  0
LINE
  8
0
 10
-272.804
 20
82.508
 11
-272.872
 21
82.2694
  0
LINE
  8
0
 10
-272.872
 20
82.2694
 11
-272.965
 21
82.0397
  0
LINE
  8
0
 10
-272.965
 20
82.0397
 11
-273.083
 21
81.8217
  0
LINE
  8
0
 10
-273.083
 20
81.8217
 11
-273.224
 21
81.618
  0
LINE
  8
0
 10
-273.224
 20
81.618
 11
-273.387
 21
81.4311
  0
LINE
  8
0
 10
-273.387
 20
81.4311
 11
-273.57
 21
81.2632
  0
LINE
  8
0
 10
-273.57
 20
81.2632
 11
-273.769
 21
81.1164
  0
LINE
  8
0
 10
-273.769
 20
81.1164
 11
-273.984
 21
80.9924
  0
LINE
  8
0
 10
-273.984
 20
80.9924
 11
-274.211
 21
80.8929
  0
LINE
  8
0
 10
-274.211
 20
80.8929
 11
-274.448
 21
80.8188
  0
LINE
  8
0
 10
-274.448
 20
80.8188
 11
-274.691
 21
80.7713
  0
LINE
  8
0
 10
-274.691
 20
80.7713
 11
-274.938
 21
80.7509
  0
LINE
  8
0
 10
-274.938
 20
80.7509
 11
-275.186
 21
80.7577
  0
LINE
  8
0
 10
-91.8525
 20
80.7577
 11
-92.098
 21
80.7917
  0
LINE
  8
0
 10
-92.098
 20
80.7917
 11
-92.3383
 21
80.8526
  0
LINE
  8
0
 10
-92.3383
 20
80.8526
 11
-92.5705
 21
80.9395
  0
LINE
  8
0
 10
-92.5705
 20
80.9395
 11
-92.7917
 21
81.0514
  0
LINE
  8
0
 10
-92.7917
 20
81.0514
 11
-92.9992
 21
81.187
  0
LINE
  8
0
 10
-92.9992
 20
81.187
 11
-93.1906
 21
81.3446
  0
LINE
  8
0
 10
-93.1906
 20
81.3446
 11
-93.3634
 21
81.5223
  0
LINE
  8
0
 10
-93.3634
 20
81.5223
 11
-93.5157
 21
81.7179
  0
LINE
  8
0
 10
-93.5157
 20
81.7179
 11
-93.6455
 21
81.9291
  0
LINE
  8
0
 10
-93.6455
 20
81.9291
 11
-93.7513
 21
82.1533
  0
LINE
  8
0
 10
-93.7513
 20
82.1533
 11
-93.8318
 21
82.3878
  0
LINE
  8
0
 10
-93.8318
 20
82.3878
 11
-93.886
 21
82.6297
  0
LINE
  8
0
 10
-93.886
 20
82.6297
 11
-93.9133
 21
82.8761
  0
LINE
  8
0
 10
-93.9133
 20
82.8761
 11
-93.9133
 21
83.1239
  0
LINE
  8
0
 10
-93.9133
 20
83.1239
 11
-93.886
 21
83.3703
  0
LINE
  8
0
 10
-93.886
 20
83.3703
 11
-93.8318
 21
83.6122
  0
LINE
  8
0
 10
-93.8318
 20
83.6122
 11
-93.7513
 21
83.8467
  0
LINE
  8
0
 10
-93.7513
 20
83.8467
 11
-93.6455
 21
84.0709
  0
LINE
  8
0
 10
-93.6455
 20
84.0709
 11
-93.5157
 21
84.2821
  0
LINE
  8
0
 10
-93.5157
 20
84.2821
 11
-93.3634
 21
84.4777
  0
LINE
  8
0
 10
-93.3634
 20
84.4777
 11
-93.1906
 21
84.6554
  0
LINE
  8
0
 10
-93.1906
 20
84.6554
 11
-92.9992
 21
84.813
  0
LINE
  8
0
 10
-92.9992
 20
84.813
 11
-92.7917
 21
84.9485
  0
LINE
  8
0
 10
-92.7917
 20
84.9485
 11
-92.5705
 21
85.0605
  0
LINE
  8
0
 10
-92.5705
 20
85.0605
 11
-92.3383
 21
85.1474
  0
LINE
  8
0
 10
-92.3383
 20
85.1474
 11
-92.098
 21
85.2083
  0
LINE
  8
0
 10
-92.098
 20
85.2083
 11
-91.8525
 21
85.2423
  0
LINE
  8
0
 10
-91.8525
 20
85.2423
 11
-91.6047
 21
85.2491
  0
LINE
  8
0
 10
-91.6047
 20
85.2491
 11
-91.3576
 21
85.2287
  0
LINE
  8
0
 10
-91.3576
 20
85.2287
 11
-91.1143
 21
85.1812
  0
LINE
  8
0
 10
-91.1143
 20
85.1812
 11
-90.8777
 21
85.1071
  0
LINE
  8
0
 10
-90.8777
 20
85.1071
 11
-90.6507
 21
85.0076
  0
LINE
  8
0
 10
-90.6507
 20
85.0076
 11
-90.436
 21
84.8836
  0
LINE
  8
0
 10
-90.436
 20
84.8836
 11
-90.2363
 21
84.7368
  0
LINE
  8
0
 10
-90.2363
 20
84.7368
 11
-90.0539
 21
84.5689
  0
LINE
  8
0
 10
-90.0539
 20
84.5689
 11
-89.8911
 21
84.382
  0
LINE
  8
0
 10
-89.8911
 20
84.382
 11
-89.7498
 21
84.1783
  0
LINE
  8
0
 10
-89.7498
 20
84.1783
 11
-89.6319
 21
83.9602
  0
LINE
  8
0
 10
-89.6319
 20
83.9602
 11
-89.5386
 21
83.7306
  0
LINE
  8
0
 10
-89.5386
 20
83.7306
 11
-89.4711
 21
83.492
  0
LINE
  8
0
 10
-89.4711
 20
83.492
 11
-89.4303
 21
83.2475
  0
LINE
  8
0
 10
-89.4303
 20
83.2475
 11
-89.4167
 21
83
  0
LINE
  8
0
 10
-89.4167
 20
83
 11
-89.4303
 21
82.7525
  0
LINE
  8
0
 10
-89.4303
 20
82.7525
 11
-89.4711
 21
82.508
  0
LINE
  8
0
 10
-89.4711
 20
82.508
 11
-89.5386
 21
82.2694
  0
LINE
  8
0
 10
-89.5386
 20
82.2694
 11
-89.6319
 21
82.0397
  0
LINE
  8
0
 10
-89.6319
 20
82.0397
 11
-89.7498
 21
81.8217
  0
LINE
  8
0
 10
-89.7498
 20
81.8217
 11
-89.8911
 21
81.618
  0
LINE
  8
0
 10
-89.8911
 20
81.618
 11
-90.0539
 21
81.4311
  0
LINE
  8
0
 10
-90.0539
 20
81.4311
 11
-90.2363
 21
81.2632
  0
LINE
  8
0
 10
-90.2363
 20
81.2632
 11
-90.436
 21
81.1164
  0
LINE
  8
0
 10
-90.436
 20
81.1164
 11
-90.6507
 21
80.9924
  0
LINE
  8
0
 10
-90.6507
 20
80.9924
 11
-90.8777
 21
80.8929
  0
LINE
  8
0
 10
-90.8777
 20
80.8929
 11
-91.1143
 21
80.8188
  0
LINE
  8
0
 10
-91.1143
 20
80.8188
 11
-91.3576
 21
80.7713
  0
LINE
  8
0
 10
-91.3576
 20
80.7713
 11
-91.6047
 21
80.7509
  0
LINE
  8
0
 10
-91.6047
 20
80.7509
 11
-91.8525
 21
80.7577
  0
LINE
  8
0
 10
91.4809
 20
80.7577
 11
91.2353
 21
80.7917
  0
LINE
  8
0
 10
91.2353
 20
80.7917
 11
90.995
 21
80.8526
  0
LINE
  8
0
 10
90.995
 20
80.8526
 11
90.7628
 21
80.9395
  0
LINE
  8
0
 10
90.7628
 20
80.9395
 11
90.5417
 21
81.0514
  0
LINE
  8
0
 10
90.5417
 20
81.0514
 11
90.3341
 21
81.187
  0
LINE
  8
0
 10
90.3341
 20
81.187
 11
90.1428
 21
81.3446
  0
LINE
  8
0
 10
90.1428
 20
81.3446
 11
89.9699
 21
81.5223
  0
LINE
  8
0
 10
89.9699
 20
81.5223
 11
89.8177
 21
81.7179
  0
LINE
  8
0
 10
89.8177
 20
81.7179
 11
89.6879
 21
81.9291
  0
LINE
  8
0
 10
89.6879
 20
81.9291
 11
89.582
 21
82.1533
  0
LINE
  8
0
 10
89.582
 20
82.1533
 11
89.5016
 21
82.3878
  0
LINE
  8
0
 10
89.5016
 20
82.3878
 11
89.4474
 21
82.6297
  0
LINE
  8
0
 10
89.4474
 20
82.6297
 11
89.4201
 21
82.8761
  0
LINE
  8
0
 10
89.4201
 20
82.8761
 11
89.4201
 21
83.1239
  0
LINE
  8
0
 10
89.4201
 20
83.1239
 11
89.4474
 21
83.3703
  0
LINE
  8
0
 10
89.4474
 20
83.3703
 11
89.5016
 21
83.6122
  0
LINE
  8
0
 10
89.5016
 20
83.6122
 11
89.582
 21
83.8467
  0
LINE
  8
0
 10
89.582
 20
83.8467
 11
89.6879
 21
84.0709
  0
LINE
  8
0
 10
89.6879
 20
84.0709
 11
89.8177
 21
84.2821
  0
LINE
  8
0
 10
89.8177
 20
84.2821
 11
89.9699
 21
84.4777
  0
LINE
  8
0
 10
89.9699
 20
84.4777
 11
90.1428
 21
84.6554
  0
LINE
  8
0
 10
90.1428
 20
84.6554
 11
90.3341
 21
84.813
  0
LINE
  8
0
 10
90.3341
 20
84.813
 11
90.5417
 21
84.9485
  0
LINE
  8
0
 10
90.5417
 20
84.9485
 11
90.7628
 21
85.0605
  0
LINE
  8
0
 10
90.7628
 20
85.0605
 11
90.995
 21
85.1474
  0
LINE
  8
0
 10
90.995
 20
85.1474
 11
91.2353
 21
85.2083
  0
LINE
  8
0
 10
91.2353
 20
85.2083
 11
91.4809
 21
85.2423
  0
LINE
  8
0
 10
91.4809
 20
85.2423
 11
91.7287
 21
85.2491
  0
LINE
  8
0
 10
91.7287
 20
85.2491
 11
91.9757
 21
85.2287
  0
LINE
  8
0
 10
91.9757
 20
85.2287
 11
92.219
 21
85.1812
  0
LINE
  8
0
 10
92.219
 20
85.1812
 11
92.4556
 21
85.1071
  0
LINE
  8
0
 10
92.4556
 20
85.1071
 11
92.6826
 21
85.0076
  0
LINE
  8
0
 10
92.6826
 20
85.0076
 11
92.8973
 21
84.8836
  0
LINE
  8
0
 10
92.8973
 20
84.8836
 11
93.097
 21
84.7368
  0
LINE
  8
0
 10
93.097
 20
84.7368
 11
93.2794
 21
84.5689
  0
LINE
  8
0
 10
93.2794
 20
84.5689
 11
93.4422
 21
84.382
  0
LINE
  8
0
 10
93.4422
 20
84.382
 11
93.5835
 21
84.1783
  0
LINE
  8
0
 10
93.5835
 20
84.1783
 11
93.7015
 21
83.9602
  0
LINE
  8
0
 10
93.7015
 20
83.9602
 11
93.7948
 21
83.7306
  0
LINE
  8
0
 10
93.7948
 20
83.7306
 11
93.8622
 21
83.492
  0
LINE
  8
0
 10
93.8622
 20
83.492
 11
93.903
 21
83.2475
  0
LINE
  8
0
 10
93.903
 20
83.2475
 11
93.9167
 21
83
  0
LINE
  8
0
 10
93.9167
 20
83
 11
93.903
 21
82.7525
  0
LINE
  8
0
 10
93.903
 20
82.7525
 11
93.8622
 21
82.508
  0
LINE
  8
0
 10
93.8622
 20
82.508
 11
93.7948
 21
82.2694
  0
LINE
  8
0
 10
93.7948
 20
82.2694
 11
93.7015
 21
82.0397
  0
LINE
  8
0
 10
93.7015
 20
82.0397
 11
93.5835
 21
81.8217
  0
LINE
  8
0
 10
93.5835
 20
81.8217
 11
93.4422
 21
81.618
  0
LINE
  8
0
 10
93.4422
 20
81.618
 11
93.2794
 21
81.4311
  0
LINE
  8
0
 10
93.2794
 20
81.4311
 11
93.097
 21
81.2632
  0
LINE
  8
0
 10
93.097
 20
81.2632
 11
92.8973
 21
81.1164
  0
LINE
  8
0
 10
92.8973
 20
81.1164
 11
92.6826
 21
80.9924
  0
LINE
  8
0
 10
92.6826
 20
80.9924
 11
92.4556
 21
80.8929
  0
LINE
  8
0
 10
92.4556
 20
80.8929
 11
92.219
 21
80.8188
  0
LINE
  8
0
 10
92.219
 20
80.8188
 11
91.9757
 21
80.7713
  0
LINE
  8
0
 10
91.9757
 20
80.7713
 11
91.7287
 21
80.7509
  0
LINE
  8
0
 10
91.7287
 20
80.7509
 11
91.4809
 21
80.7577
  0
LINE
  8
0
 10
183.148
 20
80.7577
 11
182.902
 21
80.7917
  0
LINE
  8
0
 10
182.902
 20
80.7917
 11
182.662
 21
80.8526
  0
LINE
  8
0
 10
182.662
 20
80.8526
 11
182.43
 21
80.9395
  0
LINE
  8
0
 10
182.43
 20
80.9395
 11
182.208
 21
81.0514
  0
LINE
  8
0
 10
182.208
 20
81.0514
 11
182.001
 21
81.187
  0
LINE
  8
0
 10
182.001
 20
81.187
 11
181.809
 21
81.3446
  0
LINE
  8
0
 10
181.809
 20
81.3446
 11
181.637
 21
81.5223
  0
LINE
  8
0
 10
181.637
 20
81.5223
 11
181.484
 21
81.7179
  0
LINE
  8
0
 10
181.484
 20
81.7179
 11
181.355
 21
81.9291
  0
LINE
  8
0
 10
181.355
 20
81.9291
 11
181.249
 21
82.1533
  0
LINE
  8
0
 10
181.249
 20
82.1533
 11
181.168
 21
82.3878
  0
LINE
  8
0
 10
181.168
 20
82.3878
 11
181.114
 21
82.6297
  0
LINE
  8
0
 10
181.114
 20
82.6297
 11
181.087
 21
82.8761
  0
LINE
  8
0
 10
181.087
 20
82.8761
 11
181.087
 21
83.1239
  0
LINE
  8
0
 10
181.087
 20
83.1239
 11
181.114
 21
83.3703
  0
LINE
  8
0
 10
181.114
 20
83.3703
 11
181.168
 21
83.6122
  0
LINE
  8
0
 10
181.168
 20
83.6122
 11
181.249
 21
83.8467
  0
LINE
  8
0
 10
181.249
 20
83.8467
 11
181.355
 21
84.0709
  0
LINE
  8
0
 10
181.355
 20
84.0709
 11
181.484
 21
84.2821
  0
LINE
  8
0
 10
181.484
 20
84.2821
 11
181.637
 21
84.4777
  0
LINE
  8
0
 10
181.637
 20
84.4777
 11
181.809
 21
84.6554
  0
LINE
  8
0
 10
181.809
 20
84.6554
 11
182.001
 21
84.813
  0
LINE
  8
0
 10
182.001
 20
84.813
 11
182.208
 21
84.9485
  0
LINE
  8
0
 10
182.208
 20
84.9485
 11
182.43
 21
85.0605
  0
LINE
  8
0
 10
182.43
 20
85.0605
 11
182.662
 21
85.1474
  0
LINE
  8
0
 10
182.662
 20
85.1474
 11
182.902
 21
85.2083
  0
LINE
  8
0
 10
182.902
 20
85.2083
 11
183.148
 21
85.2423
  0
LINE
  8
0
 10
183.148
 20
85.2423
 11
183.395
 21
85.2491
  0
LINE
  8
0
 10
183.395
 20
85.2491
 11
183.642
 21
85.2287
  0
LINE
  8
0
 10
183.642
 20
85.2287
 11
183.886
 21
85.1812
  0
LINE
  8
0
 10
183.886
 20
85.1812
 11
184.122
 21
85.1071
  0
LINE
  8
0
 10
184.122
 20
85.1071
 11
184.349
 21
85.0076
  0
LINE
  8
0
 10
184.349
 20
85.0076
 11
184.564
 21
84.8836
  0
LINE
  8
0
 10
184.564
 20
84.8836
 11
184.764
 21
84.7368
  0
LINE
  8
0
 10
184.764
 20
84.7368
 11
184.946
 21
84.5689
  0
LINE
  8
0
 10
184.946
 20
84.5689
 11
185.109
 21
84.382
  0
LINE
  8
0
 10
185.109
 20
84.382
 11
185.25
 21
84.1783
  0
LINE
  8
0
 10
185.25
 20
84.1783
 11
185.368
 21
83.9602
  0
LINE
  8
0
 10
185.368
 20
83.9602
 11
185.461
 21
83.7306
  0
LINE
  8
0
 10
185.461
 20
83.7306
 11
185.529
 21
83.492
  0
LINE
  8
0
 10
185.529
 20
83.492
 11
185.57
 21
83.2475
  0
LINE
  8
0
 10
185.57
 20
83.2475
 11
185.583
 21
83
  0
LINE
  8
0
 10
185.583
 20
83
 11
185.57
 21
82.7525
  0
LINE
  8
0
 10
185.57
 20
82.7525
 11
185.529
 21
82.508
  0
LINE
  8
0
 10
185.529
 20
82.508
 11
185.461
 21
82.2694
  0
LINE
  8
0
 10
185.461
 20
82.2694
 11
185.368
 21
82.0397
  0
LINE
  8
0
 10
185.368
 20
82.0397
 11
185.25
 21
81.8217
  0
LINE
  8
0
 10
185.25
 20
81.8217
 11
185.109
 21
81.618
  0
LINE
  8
0
 10
185.109
 20
81.618
 11
184.946
 21
81.4311
  0
LINE
  8
0
 10
184.946
 20
81.4311
 11
184.764
 21
81.2632
  0
LINE
  8
0
 10
184.764
 20
81.2632
 11
184.564
 21
81.1164
  0
LINE
  8
0
 10
184.564
 20
81.1164
 11
184.349
 21
80.9924
  0
LINE
  8
0
 10
184.349
 20
80.9924
 11
184.122
 21
80.8929
  0
LINE
  8
0
 10
184.122
 20
80.8929
 11
183.886
 21
80.8188
  0
LINE
  8
0
 10
183.886
 20
80.8188
 11
183.642
 21
80.7713
  0
LINE
  8
0
 10
183.642
 20
80.7713
 11
183.395
 21
80.7509
  0
LINE
  8
0
 10
183.395
 20
80.7509
 11
183.148
 21
80.7577
  0
LINE
  8
0
 10
274.814
 20
80.7577
 11
274.569
 21
80.7917
  0
LINE
  8
0
 10
274.569
 20
80.7917
 11
274.328
 21
80.8526
  0
LINE
  8
0
 10
274.328
 20
80.8526
 11
274.096
 21
80.9395
  0
LINE
  8
0
 10
274.096
 20
80.9395
 11
273.875
 21
81.0514
  0
LINE
  8
0
 10
273.875
 20
81.0514
 11
273.667
 21
81.187
  0
LINE
  8
0
 10
273.667
 20
81.187
 11
273.476
 21
81.3446
  0
LINE
  8
0
 10
273.476
 20
81.3446
 11
273.303
 21
81.5223
  0
LINE
  8
0
 10
273.303
 20
81.5223
 11
273.151
 21
81.7179
  0
LINE
  8
0
 10
273.151
 20
81.7179
 11
273.021
 21
81.9291
  0
LINE
  8
0
 10
273.021
 20
81.9291
 11
272.915
 21
82.1533
  0
LINE
  8
0
 10
272.915
 20
82.1533
 11
272.835
 21
82.3878
  0
LINE
  8
0
 10
272.835
 20
82.3878
 11
272.781
 21
82.6297
  0
LINE
  8
0
 10
272.781
 20
82.6297
 11
272.753
 21
82.8761
  0
LINE
  8
0
 10
272.753
 20
82.8761
 11
272.753
 21
83.1239
  0
LINE
  8
0
 10
272.753
 20
83.1239
 11
272.781
 21
83.3703
  0
LINE
  8
0
 10
272.781
 20
83.3703
 11
272.835
 21
83.6122
  0
LINE
  8
0
 10
272.835
 20
83.6122
 11
272.915
 21
83.8467
  0
LINE
  8
0
 10
272.915
 20
83.8467
 11
273.021
 21
84.0709
  0
LINE
  8
0
 10
273.021
 20
84.0709
 11
273.151
 21
84.2821
  0
LINE
  8
0
 10
273.151
 20
84.2821
 11
273.303
 21
84.4777
  0
LINE
  8
0
 10
273.303
 20
84.4777
 11
273.476
 21
84.6554
  0
LINE
  8
0
 10
273.476
 20
84.6554
 11
273.667
 21
84.813
  0
LINE
  8
0
 10
273.667
 20
84.813
 11
273.875
 21
84.9485
  0
LINE
  8
0
 10
273.875
 20
84.9485
 11
274.096
 21
85.0605
  0
LINE
  8
0
 10
274.096
 20
85.0605
 11
274.328
 21
85.1474
  0
LINE
  8
0
 10
274.328
 20
85.1474
 11
274.569
 21
85.2083
  0
LINE
  8
0
 10
274.569
 20
85.2083
 11
274.814
 21
85.2423
  0
LINE
  8
0
 10
274.814
 20
85.2423
 11
275.062
 21
85.2491
  0
LINE
  8
0
 10
275.062
 20
85.2491
 11
275.309
 21
85.2287
  0
LINE
  8
0
 10
275.309
 20
85.2287
 11
275.552
 21
85.1812
  0
LINE
  8
0
 10
275.552
 20
85.1812
 11
275.789
 21
85.1071
  0
LINE
  8
0
 10
275.789
 20
85.1071
 11
276.016
 21
85.0076
  0
LINE
  8
0
 10
276.016
 20
85.0076
 11
276.231
 21
84.8836
  0
LINE
  8
0
 10
276.231
 20
84.8836
 11
276.43
 21
84.7368
  0
LINE
  8
0
 10
276.43
 20
84.7368
 11
276.613
 21
84.5689
  0
LINE
  8
0
 10
276.613
 20
84.5689
 11
276.776
 21
84.382
  0
LINE
  8
0
 10
276.776
 20
84.382
 11
276.917
 21
84.1783
  0
LINE
  8
0
 10
276.917
 20
84.1783
 11
277.035
 21
83.9602
  0
LINE
  8
0
 10
277.035
 20
83.9602
 11
277.128
 21
83.7306
  0
LINE
  8
0
 10
277.128
 20
83.7306
 11
277.196
 21
83.492
  0
LINE
  8
0
 10
277.196
 20
83.492
 11
277.236
 21
83.2475
  0
LINE
  8
0
 10
277.236
 20
83.2475
 11
277.25
 21
83
  0
LINE
  8
0
 10
277.25
 20
83
 11
277.236
 21
82.7525
  0
LINE
  8
0
 10
277.236
 20
82.7525
 11
277.196
 21
82.508
  0
LINE
  8
0
 10
277.196
 20
82.508
 11
277.128
 21
82.2694
  0
LINE
  8
0
 10
277.128
 20
82.2694
 11
277.035
 21
82.0397
  0
LINE
  8
0
 10
277.035
 20
82.0397
 11
276.917
 21
81.8217
  0
LINE
  8
0
 10
276.917
 20
81.8217
 11
276.776
 21
81.618
  0
LINE
  8
0
 10
276.776
 20
81.618
 11
276.613
 21
81.4311
  0
LINE
  8
0
 10
276.613
 20
81.4311
 11
276.43
 21
81.2632
  0
LINE
  8
0
 10
276.43
 20
81.2632
 11
276.231
 21
81.1164
  0
LINE
  8
0
 10
276.231
 20
81.1164
 11
276.016
 21
80.9924
  0
LINE
  8
0
 10
276.016
 20
80.9924
 11
275.789
 21
80.8929
  0
LINE
  8
0
 10
275.789
 20
80.8929
 11
275.552
 21
80.8188
  0
LINE
  8
0
 10
275.552
 20
80.8188
 11
275.309
 21
80.7713
  0
LINE
  8
0
 10
275.309
 20
80.7713
 11
275.062
 21
80.7509
  0
LINE
  8
0
 10
275.062
 20
80.7509
 11
274.814
 21
80.7577
  0
LINE
  8
0
 10
-0.185791
 20
80.7577
 11
-0.431335
 21
80.7917
  0
LINE
  8
0
 10
-0.431335
 20
80.7917
 11
-0.671646
 21
80.8526
  0
LINE
  8
0
 10
-0.671646
 20
80.8526
 11
-0.903809
 21
80.9395
  0
LINE
  8
0
 10
-0.903809
 20
80.9395
 11
-1.125
 21
81.0514
  0
LINE
  8
0
 10
-1.125
 20
81.0514
 11
-1.33252
 21
81.187
  0
LINE
  8
0
 10
-1.33252
 20
81.187
 11
-1.52388
 21
81.3446
  0
LINE
  8
0
 10
-1.52388
 20
81.3446
 11
-1.69673
 21
81.5223
  0
LINE
  8
0
 10
-1.69673
 20
81.5223
 11
-1.849
 21
81.7179
  0
LINE
  8
0
 10
-1.849
 20
81.7179
 11
-1.97881
 21
81.9291
  0
LINE
  8
0
 10
-1.97881
 20
81.9291
 11
-2.08461
 21
82.1533
  0
LINE
  8
0
 10
-2.08461
 20
82.1533
 11
-2.1651
 21
82.3878
  0
LINE
  8
0
 10
-2.1651
 20
82.3878
 11
-2.2193
 21
82.6297
  0
LINE
  8
0
 10
-2.2193
 20
82.6297
 11
-2.24658
 21
82.8761
  0
LINE
  8
0
 10
-2.24658
 20
82.8761
 11
-2.24658
 21
83.1239
  0
LINE
  8
0
 10
-2.24658
 20
83.1239
 11
-2.2193
 21
83.3703
  0
LINE
  8
0
 10
-2.2193
 20
83.3703
 11
-2.1651
 21
83.6122
  0
LINE
  8
0
 10
-2.1651
 20
83.6122
 11
-2.08461
 21
83.8467
  0
LINE
  8
0
 10
-2.08461
 20
83.8467
 11
-1.97881
 21
84.0709
  0
LINE
  8
0
 10
-1.97881
 20
84.0709
 11
-1.849
 21
84.2821
  0
LINE
  8
0
 10
-1.849
 20
84.2821
 11
-1.69673
 21
84.4777
  0
LINE
  8
0
 10
-1.69673
 20
84.4777
 11
-1.52388
 21
84.6554
  0
LINE
  8
0
 10
-1.52388
 20
84.6554
 11
-1.33252
 21
84.813
  0
LINE
  8
0
 10
-1.33252
 20
84.813
 11
-1.125
 21
84.9485
  0
LINE
  8
0
 10
-1.125
 20
84.9485
 11
-0.903809
 21
85.0605
  0
LINE
  8
0
 10
-0.903809
 20
85.0605
 11
-0.671646
 21
85.1474
  0
LINE
  8
0
 10
-0.671646
 20
85.1474
 11
-0.431335
 21
85.2083
  0
LINE
  8
0
 10
-0.431335
 20
85.2083
 11
-0.185791
 21
85.2423
  0
LINE
  8
0
 10
-0.185791
 20
85.2423
 11
0.0619965
 21
85.2491
  0
LINE
  8
0
 10
0.0619965
 20
85.2491
 11
0.309036
 21
85.2287
  0
LINE
  8
0
 10
0.309036
 20
85.2287
 11
0.552338
 21
85.1812
  0
LINE
  8
0
 10
0.552338
 20
85.1812
 11
0.788925
 21
85.1071
  0
LINE
  8
0
 10
0.788925
 20
85.1071
 11
1.01595
 21
85.0076
  0
LINE
  8
0
 10
1.01595
 20
85.0076
 11
1.23062
 21
84.8836
  0
LINE
  8
0
 10
1.23062
 20
84.8836
 11
1.43037
 21
84.7368
  0
LINE
  8
0
 10
1.43037
 20
84.7368
 11
1.61275
 21
84.5689
  0
LINE
  8
0
 10
1.61275
 20
84.5689
 11
1.77556
 21
84.382
  0
LINE
  8
0
 10
1.77556
 20
84.382
 11
1.91681
 21
84.1783
  0
LINE
  8
0
 10
1.91681
 20
84.1783
 11
2.03479
 21
83.9602
  0
LINE
  8
0
 10
2.03479
 20
83.9602
 11
2.12808
 21
83.7306
  0
LINE
  8
0
 10
2.12808
 20
83.7306
 11
2.19554
 21
83.492
  0
LINE
  8
0
 10
2.19554
 20
83.492
 11
2.23634
 21
83.2475
  0
LINE
  8
0
 10
2.23634
 20
83.2475
 11
2.25
 21
83
  0
LINE
  8
0
 10
2.25
 20
83
 11
2.23634
 21
82.7525
  0
LINE
  8
0
 10
2.23634
 20
82.7525
 11
2.19554
 21
82.508
  0
LINE
  8
0
 10
2.19554
 20
82.508
 11
2.12808
 21
82.2694
  0
LINE
  8
0
 10
2.12808
 20
82.2694
 11
2.03479
 21
82.0397
  0
LINE
  8
0
 10
2.03479
 20
82.0397
 11
1.91681
 21
81.8217
  0
LINE
  8
0
 10
1.91681
 20
81.8217
 11
1.77556
 21
81.618
  0
LINE
  8
0
 10
1.77556
 20
81.618
 11
1.61275
 21
81.4311
  0
LINE
  8
0
 10
1.61275
 20
81.4311
 11
1.43037
 21
81.2632
  0
LINE
  8
0
 10
1.43037
 20
81.2632
 11
1.23062
 21
81.1164
  0
LINE
  8
0
 10
1.23062
 20
81.1164
 11
1.01595
 21
80.9924
  0
LINE
  8
0
 10
1.01595
 20
80.9924
 11
0.788925
 21
80.8929
  0
LINE
  8
0
 10
0.788925
 20
80.8929
 11
0.552338
 21
80.8188
  0
LINE
  8
0
 10
0.552338
 20
80.8188
 11
0.309036
 21
80.7713
  0
LINE
  8
0
 10
0.309036
 20
80.7713
 11
0.0619965
 21
80.7509
  0
LINE
  8
0
 10
0.0619965
 20
80.7509
 11
-0.185791
 21
80.7577
  0
ENDSEC
  0
SECTION
  2
OBJECTS
  0
DICTIONARY
  0
ENDSEC
  0
EOF
