solid OpenSCAD_Model
  facet normal 0 -1 0
    outer loop
      vertex -305 -238.375 0
      vertex 305 -238.375 6
      vertex -305 -238.375 6
    endloop
  endfacet
  facet normal 0 -1 -0
    outer loop
      vertex 305 -238.375 6
      vertex -305 -238.375 0
      vertex 305 -238.375 0
    endloop
  endfacet
  facet normal 0 0 1
    outer loop
      vertex 300 188.5 6
      vertex 305 183.5 6
      vertex 304.973 184.023 6
    endloop
  endfacet
  facet normal 0 0 1
    outer loop
      vertex 300 188.5 6
      vertex 304.973 184.023 6
      vertex 304.891 184.54 6
    endloop
  endfacet
  facet normal 0 0 1
    outer loop
      vertex 300 188.5 6
      vertex 304.891 184.54 6
      vertex 304.755 185.045 6
    endloop
  endfacet
  facet normal 0 0 1
    outer loop
      vertex 300 188.5 6
      vertex 304.755 185.045 6
      vertex 304.568 185.534 6
    endloop
  endfacet
  facet normal 0 0 1
    outer loop
      vertex 300 188.5 6
      vertex 304.568 185.534 6
      vertex 304.33 186 6
    endloop
  endfacet
  facet normal 0 0 1
    outer loop
      vertex 300 188.5 6
      vertex 304.33 186 6
      vertex 304.045 186.439 6
    endloop
  endfacet
  facet normal 0 0 1
    outer loop
      vertex 300 188.5 6
      vertex 304.045 186.439 6
      vertex 303.716 186.846 6
    endloop
  endfacet
  facet normal 0 0 1
    outer loop
      vertex 300 188.5 6
      vertex 303.716 186.846 6
      vertex 303.346 187.216 6
    endloop
  endfacet
  facet normal 0 0 1
    outer loop
      vertex 300 188.5 6
      vertex 303.346 187.216 6
      vertex 302.939 187.545 6
    endloop
  endfacet
  facet normal 0 0 1
    outer loop
      vertex 300 188.5 6
      vertex 302.939 187.545 6
      vertex 302.5 187.83 6
    endloop
  endfacet
  facet normal 0 0 1
    outer loop
      vertex 300 188.5 6
      vertex 302.5 187.83 6
      vertex 302.034 188.068 6
    endloop
  endfacet
  facet normal 0 0 1
    outer loop
      vertex 300 188.5 6
      vertex 302.034 188.068 6
      vertex 301.545 188.255 6
    endloop
  endfacet
  facet normal 0 0 1
    outer loop
      vertex 300 188.5 6
      vertex 301.545 188.255 6
      vertex 301.04 188.391 6
    endloop
  endfacet
  facet normal 0 0 1
    outer loop
      vertex 300 188.5 6
      vertex 301.04 188.391 6
      vertex 300.523 188.473 6
    endloop
  endfacet
  facet normal 0 0 1
    outer loop
      vertex 305 183.5 6
      vertex 300 188.5 6
      vertex 305 -238.375 6
    endloop
  endfacet
  facet normal -0 0 1
    outer loop
      vertex -300 188.5 6
      vertex 305 -238.375 6
      vertex 300 188.5 6
    endloop
  endfacet
  facet normal 0 0 1
    outer loop
      vertex -305 183.5 6
      vertex -300 188.5 6
      vertex -300.523 188.473 6
    endloop
  endfacet
  facet normal 0 0 1
    outer loop
      vertex -305 183.5 6
      vertex -300.523 188.473 6
      vertex -301.04 188.391 6
    endloop
  endfacet
  facet normal 0 0 1
    outer loop
      vertex -305 183.5 6
      vertex -301.04 188.391 6
      vertex -301.545 188.255 6
    endloop
  endfacet
  facet normal 0 0 1
    outer loop
      vertex -305 183.5 6
      vertex -301.545 188.255 6
      vertex -302.034 188.068 6
    endloop
  endfacet
  facet normal 0 0 1
    outer loop
      vertex -305 183.5 6
      vertex -302.034 188.068 6
      vertex -302.5 187.83 6
    endloop
  endfacet
  facet normal 0 0 1
    outer loop
      vertex -305 183.5 6
      vertex -302.5 187.83 6
      vertex -302.939 187.545 6
    endloop
  endfacet
  facet normal 0 0 1
    outer loop
      vertex -305 183.5 6
      vertex -302.939 187.545 6
      vertex -303.346 187.216 6
    endloop
  endfacet
  facet normal 0 0 1
    outer loop
      vertex -305 183.5 6
      vertex -303.346 187.216 6
      vertex -303.716 186.846 6
    endloop
  endfacet
  facet normal 0 0 1
    outer loop
      vertex -305 183.5 6
      vertex -303.716 186.846 6
      vertex -304.045 186.439 6
    endloop
  endfacet
  facet normal 0 0 1
    outer loop
      vertex -305 183.5 6
      vertex -304.045 186.439 6
      vertex -304.33 186 6
    endloop
  endfacet
  facet normal 0 0 1
    outer loop
      vertex -305 183.5 6
      vertex -304.33 186 6
      vertex -304.568 185.534 6
    endloop
  endfacet
  facet normal 0 0 1
    outer loop
      vertex -305 183.5 6
      vertex -304.568 185.534 6
      vertex -304.755 185.045 6
    endloop
  endfacet
  facet normal 0 0 1
    outer loop
      vertex -305 183.5 6
      vertex -304.755 185.045 6
      vertex -304.891 184.54 6
    endloop
  endfacet
  facet normal 0 0 1
    outer loop
      vertex -305 183.5 6
      vertex -304.891 184.54 6
      vertex -304.973 184.023 6
    endloop
  endfacet
  facet normal 0 0 1
    outer loop
      vertex -300 188.5 6
      vertex -305 183.5 6
      vertex -305 -238.375 6
    endloop
  endfacet
  facet normal 0 0 1
    outer loop
      vertex -300 188.5 6
      vertex -305 -238.375 6
      vertex 305 -238.375 6
    endloop
  endfacet
  facet normal 0 0 -1
    outer loop
      vertex 300 188.5 0
      vertex 305 183.5 0
      vertex 305 -238.375 0
    endloop
  endfacet
  facet normal 0 0 -1
    outer loop
      vertex 305 183.5 0
      vertex 300 188.5 0
      vertex 304.973 184.023 0
    endloop
  endfacet
  facet normal 0 0 -1
    outer loop
      vertex 304.973 184.023 0
      vertex 300 188.5 0
      vertex 304.891 184.54 0
    endloop
  endfacet
  facet normal 0 0 -1
    outer loop
      vertex 304.891 184.54 0
      vertex 300 188.5 0
      vertex 304.755 185.045 0
    endloop
  endfacet
  facet normal 0 0 -1
    outer loop
      vertex 304.755 185.045 0
      vertex 300 188.5 0
      vertex 304.568 185.534 0
    endloop
  endfacet
  facet normal 0 0 -1
    outer loop
      vertex 304.568 185.534 0
      vertex 300 188.5 0
      vertex 304.33 186 0
    endloop
  endfacet
  facet normal 0 0 -1
    outer loop
      vertex 304.33 186 0
      vertex 300 188.5 0
      vertex 304.045 186.439 0
    endloop
  endfacet
  facet normal 0 0 -1
    outer loop
      vertex 304.045 186.439 0
      vertex 300 188.5 0
      vertex 303.716 186.846 0
    endloop
  endfacet
  facet normal 0 0 -1
    outer loop
      vertex 303.716 186.846 0
      vertex 300 188.5 0
      vertex 303.346 187.216 0
    endloop
  endfacet
  facet normal 0 0 -1
    outer loop
      vertex 303.346 187.216 0
      vertex 300 188.5 0
      vertex 302.939 187.545 0
    endloop
  endfacet
  facet normal 0 0 -1
    outer loop
      vertex 302.939 187.545 0
      vertex 300 188.5 0
      vertex 302.5 187.83 0
    endloop
  endfacet
  facet normal 0 0 -1
    outer loop
      vertex 302.5 187.83 0
      vertex 300 188.5 0
      vertex 302.034 188.068 0
    endloop
  endfacet
  facet normal 0 0 -1
    outer loop
      vertex 302.034 188.068 0
      vertex 300 188.5 0
      vertex 301.545 188.255 0
    endloop
  endfacet
  facet normal 0 0 -1
    outer loop
      vertex 301.545 188.255 0
      vertex 300 188.5 0
      vertex 301.04 188.391 0
    endloop
  endfacet
  facet normal 0 0 -1
    outer loop
      vertex 301.04 188.391 0
      vertex 300 188.5 0
      vertex 300.523 188.473 0
    endloop
  endfacet
  facet normal 0 0 -1
    outer loop
      vertex 305 -238.375 0
      vertex -300 188.5 0
      vertex 300 188.5 0
    endloop
  endfacet
  facet normal 0 0 -1
    outer loop
      vertex -305 -238.375 0
      vertex -300 188.5 0
      vertex 305 -238.375 0
    endloop
  endfacet
  facet normal 0 0 -1
    outer loop
      vertex -305 183.5 0
      vertex -300 188.5 0
      vertex -305 -238.375 0
    endloop
  endfacet
  facet normal 0 0 -1
    outer loop
      vertex -300 188.5 0
      vertex -305 183.5 0
      vertex -300.523 188.473 0
    endloop
  endfacet
  facet normal 0 0 -1
    outer loop
      vertex -300.523 188.473 0
      vertex -305 183.5 0
      vertex -301.04 188.391 0
    endloop
  endfacet
  facet normal 0 0 -1
    outer loop
      vertex -301.545 188.255 0
      vertex -305 183.5 0
      vertex -302.034 188.068 0
    endloop
  endfacet
  facet normal 0 0 -1
    outer loop
      vertex -302.034 188.068 0
      vertex -305 183.5 0
      vertex -302.5 187.83 0
    endloop
  endfacet
  facet normal 0 0 -1
    outer loop
      vertex -302.5 187.83 0
      vertex -305 183.5 0
      vertex -302.939 187.545 0
    endloop
  endfacet
  facet normal 0 0 -1
    outer loop
      vertex -302.939 187.545 0
      vertex -305 183.5 0
      vertex -303.346 187.216 0
    endloop
  endfacet
  facet normal 0 0 -1
    outer loop
      vertex -303.346 187.216 0
      vertex -305 183.5 0
      vertex -303.716 186.846 0
    endloop
  endfacet
  facet normal 0 0 -1
    outer loop
      vertex -303.716 186.846 0
      vertex -305 183.5 0
      vertex -304.045 186.439 0
    endloop
  endfacet
  facet normal 0 0 -1
    outer loop
      vertex -304.045 186.439 0
      vertex -305 183.5 0
      vertex -304.33 186 0
    endloop
  endfacet
  facet normal 0 0 -1
    outer loop
      vertex -304.33 186 0
      vertex -305 183.5 0
      vertex -304.568 185.534 0
    endloop
  endfacet
  facet normal 0 0 -1
    outer loop
      vertex -304.568 185.534 0
      vertex -305 183.5 0
      vertex -304.755 185.045 0
    endloop
  endfacet
  facet normal 0 0 -1
    outer loop
      vertex -304.755 185.045 0
      vertex -305 183.5 0
      vertex -304.891 184.54 0
    endloop
  endfacet
  facet normal 0 0 -1
    outer loop
      vertex -301.04 188.391 0
      vertex -305 183.5 0
      vertex -301.545 188.255 0
    endloop
  endfacet
  facet normal 0 0 -1
    outer loop
      vertex -304.891 184.54 0
      vertex -305 183.5 0
      vertex -304.973 184.023 0
    endloop
  endfacet
  facet normal -0.0515566 0.99867 0
    outer loop
      vertex -300 188.5 0
      vertex -300.523 188.473 6
      vertex -300 188.5 6
    endloop
  endfacet
  facet normal -0.0515566 0.99867 0
    outer loop
      vertex -300.523 188.473 6
      vertex -300 188.5 0
      vertex -300.523 188.473 0
    endloop
  endfacet
  facet normal 1 -0 0
    outer loop
      vertex 305 -238.375 6
      vertex 305 183.5 0
      vertex 305 183.5 6
    endloop
  endfacet
  facet normal 1 0 0
    outer loop
      vertex 305 183.5 0
      vertex 305 -238.375 6
      vertex 305 -238.375 0
    endloop
  endfacet
  facet normal 0 1 -0
    outer loop
      vertex 300 188.5 0
      vertex -300 188.5 6
      vertex 300 188.5 6
    endloop
  endfacet
  facet normal 0 1 0
    outer loop
      vertex -300 188.5 6
      vertex 300 188.5 0
      vertex -300 188.5 0
    endloop
  endfacet
  facet normal -1 0 0
    outer loop
      vertex -305 -238.375 0
      vertex -305 183.5 6
      vertex -305 183.5 0
    endloop
  endfacet
  facet normal -1 -0 0
    outer loop
      vertex -305 183.5 6
      vertex -305 -238.375 0
      vertex -305 -238.375 6
    endloop
  endfacet
  facet normal 0.260042 0.965597 -0
    outer loop
      vertex 301.545 188.255 0
      vertex 301.04 188.391 6
      vertex 301.545 188.255 6
    endloop
  endfacet
  facet normal 0.260042 0.965597 0
    outer loop
      vertex 301.04 188.391 6
      vertex 301.545 188.255 0
      vertex 301.04 188.391 0
    endloop
  endfacet
  facet normal -0.628648 0.77769 0
    outer loop
      vertex -302.939 187.545 0
      vertex -303.346 187.216 6
      vertex -302.939 187.545 6
    endloop
  endfacet
  facet normal -0.628648 0.77769 0
    outer loop
      vertex -303.346 187.216 6
      vertex -302.939 187.545 0
      vertex -303.346 187.216 0
    endloop
  endfacet
  facet normal -0.99867 0.0515566 0
    outer loop
      vertex -305 183.5 0
      vertex -304.973 184.023 6
      vertex -304.973 184.023 0
    endloop
  endfacet
  facet normal -0.99867 0.0515566 0
    outer loop
      vertex -304.973 184.023 6
      vertex -305 183.5 0
      vertex -305 183.5 6
    endloop
  endfacet
  facet normal 0.357186 0.934033 -0
    outer loop
      vertex 302.034 188.068 0
      vertex 301.545 188.255 6
      vertex 302.034 188.068 6
    endloop
  endfacet
  facet normal 0.357186 0.934033 0
    outer loop
      vertex 301.545 188.255 6
      vertex 302.034 188.068 0
      vertex 301.545 188.255 0
    endloop
  endfacet
  facet normal 0.0515566 0.99867 -0
    outer loop
      vertex 300.523 188.473 0
      vertex 300 188.5 6
      vertex 300.523 188.473 6
    endloop
  endfacet
  facet normal 0.0515566 0.99867 0
    outer loop
      vertex 300 188.5 6
      vertex 300.523 188.473 0
      vertex 300 188.5 0
    endloop
  endfacet
  facet normal -0.156649 0.987654 0
    outer loop
      vertex -300.523 188.473 0
      vertex -301.04 188.391 6
      vertex -300.523 188.473 6
    endloop
  endfacet
  facet normal -0.156649 0.987654 0
    outer loop
      vertex -301.04 188.391 6
      vertex -300.523 188.473 0
      vertex -301.04 188.391 0
    endloop
  endfacet
  facet normal -0.544518 0.838749 0
    outer loop
      vertex -302.5 187.83 0
      vertex -302.939 187.545 6
      vertex -302.5 187.83 6
    endloop
  endfacet
  facet normal -0.544518 0.838749 0
    outer loop
      vertex -302.939 187.545 6
      vertex -302.5 187.83 0
      vertex -302.939 187.545 0
    endloop
  endfacet
  facet normal -0.707107 0.707107 0
    outer loop
      vertex -303.346 187.216 0
      vertex -303.716 186.846 6
      vertex -303.346 187.216 6
    endloop
  endfacet
  facet normal -0.707107 0.707107 0
    outer loop
      vertex -303.716 186.846 6
      vertex -303.346 187.216 0
      vertex -303.716 186.846 0
    endloop
  endfacet
  facet normal 0.454842 0.890572 -0
    outer loop
      vertex 302.5 187.83 0
      vertex 302.034 188.068 6
      vertex 302.5 187.83 6
    endloop
  endfacet
  facet normal 0.454842 0.890572 0
    outer loop
      vertex 302.034 188.068 6
      vertex 302.5 187.83 0
      vertex 302.034 188.068 0
    endloop
  endfacet
  facet normal 0.544518 0.838749 -0
    outer loop
      vertex 302.939 187.545 0
      vertex 302.5 187.83 6
      vertex 302.939 187.545 6
    endloop
  endfacet
  facet normal 0.544518 0.838749 0
    outer loop
      vertex 302.5 187.83 6
      vertex 302.939 187.545 0
      vertex 302.5 187.83 0
    endloop
  endfacet
  facet normal 0.156649 0.987654 -0
    outer loop
      vertex 301.04 188.391 0
      vertex 300.523 188.473 6
      vertex 301.04 188.391 6
    endloop
  endfacet
  facet normal 0.156649 0.987654 0
    outer loop
      vertex 300.523 188.473 6
      vertex 301.04 188.391 0
      vertex 300.523 188.473 0
    endloop
  endfacet
  facet normal -0.357186 0.934033 0
    outer loop
      vertex -301.545 188.255 0
      vertex -302.034 188.068 6
      vertex -301.545 188.255 6
    endloop
  endfacet
  facet normal -0.357186 0.934033 0
    outer loop
      vertex -302.034 188.068 6
      vertex -301.545 188.255 0
      vertex -302.034 188.068 0
    endloop
  endfacet
  facet normal -0.77769 0.628648 0
    outer loop
      vertex -304.045 186.439 0
      vertex -303.716 186.846 6
      vertex -303.716 186.846 0
    endloop
  endfacet
  facet normal -0.77769 0.628648 0
    outer loop
      vertex -303.716 186.846 6
      vertex -304.045 186.439 0
      vertex -304.045 186.439 6
    endloop
  endfacet
  facet normal 0.965597 0.260042 0
    outer loop
      vertex 304.891 184.54 6
      vertex 304.755 185.045 0
      vertex 304.755 185.045 6
    endloop
  endfacet
  facet normal 0.965597 0.260042 0
    outer loop
      vertex 304.755 185.045 0
      vertex 304.891 184.54 6
      vertex 304.891 184.54 0
    endloop
  endfacet
  facet normal 0.838749 0.544518 0
    outer loop
      vertex 304.33 186 6
      vertex 304.045 186.439 0
      vertex 304.045 186.439 6
    endloop
  endfacet
  facet normal 0.838749 0.544518 0
    outer loop
      vertex 304.045 186.439 0
      vertex 304.33 186 6
      vertex 304.33 186 0
    endloop
  endfacet
  facet normal 0.628648 0.77769 -0
    outer loop
      vertex 303.346 187.216 0
      vertex 302.939 187.545 6
      vertex 303.346 187.216 6
    endloop
  endfacet
  facet normal 0.628648 0.77769 0
    outer loop
      vertex 302.939 187.545 6
      vertex 303.346 187.216 0
      vertex 302.939 187.545 0
    endloop
  endfacet
  facet normal -0.454842 0.890572 0
    outer loop
      vertex -302.034 188.068 0
      vertex -302.5 187.83 6
      vertex -302.034 188.068 6
    endloop
  endfacet
  facet normal -0.454842 0.890572 0
    outer loop
      vertex -302.5 187.83 6
      vertex -302.034 188.068 0
      vertex -302.5 187.83 0
    endloop
  endfacet
  facet normal -0.260042 0.965597 0
    outer loop
      vertex -301.04 188.391 0
      vertex -301.545 188.255 6
      vertex -301.04 188.391 6
    endloop
  endfacet
  facet normal -0.260042 0.965597 0
    outer loop
      vertex -301.545 188.255 6
      vertex -301.04 188.391 0
      vertex -301.545 188.255 0
    endloop
  endfacet
  facet normal -0.838749 0.544518 0
    outer loop
      vertex -304.33 186 0
      vertex -304.045 186.439 6
      vertex -304.045 186.439 0
    endloop
  endfacet
  facet normal -0.838749 0.544518 0
    outer loop
      vertex -304.045 186.439 6
      vertex -304.33 186 0
      vertex -304.33 186 6
    endloop
  endfacet
  facet normal -0.965597 0.260042 0
    outer loop
      vertex -304.891 184.54 0
      vertex -304.755 185.045 6
      vertex -304.755 185.045 0
    endloop
  endfacet
  facet normal -0.965597 0.260042 0
    outer loop
      vertex -304.755 185.045 6
      vertex -304.891 184.54 0
      vertex -304.891 184.54 6
    endloop
  endfacet
  facet normal -0.934033 0.357186 0
    outer loop
      vertex -304.755 185.045 0
      vertex -304.568 185.534 6
      vertex -304.568 185.534 0
    endloop
  endfacet
  facet normal -0.934033 0.357186 0
    outer loop
      vertex -304.568 185.534 6
      vertex -304.755 185.045 0
      vertex -304.755 185.045 6
    endloop
  endfacet
  facet normal -0.890572 0.454842 0
    outer loop
      vertex -304.568 185.534 0
      vertex -304.33 186 6
      vertex -304.33 186 0
    endloop
  endfacet
  facet normal -0.890572 0.454842 0
    outer loop
      vertex -304.33 186 6
      vertex -304.568 185.534 0
      vertex -304.568 185.534 6
    endloop
  endfacet
  facet normal -0.987654 0.156649 0
    outer loop
      vertex -304.973 184.023 0
      vertex -304.891 184.54 6
      vertex -304.891 184.54 0
    endloop
  endfacet
  facet normal -0.987654 0.156649 0
    outer loop
      vertex -304.891 184.54 6
      vertex -304.973 184.023 0
      vertex -304.973 184.023 6
    endloop
  endfacet
  facet normal 0.934033 0.357186 0
    outer loop
      vertex 304.755 185.045 6
      vertex 304.568 185.534 0
      vertex 304.568 185.534 6
    endloop
  endfacet
  facet normal 0.934033 0.357186 0
    outer loop
      vertex 304.568 185.534 0
      vertex 304.755 185.045 6
      vertex 304.755 185.045 0
    endloop
  endfacet
  facet normal 0.987654 0.156649 0
    outer loop
      vertex 304.973 184.023 6
      vertex 304.891 184.54 0
      vertex 304.891 184.54 6
    endloop
  endfacet
  facet normal 0.987654 0.156649 0
    outer loop
      vertex 304.891 184.54 0
      vertex 304.973 184.023 6
      vertex 304.973 184.023 0
    endloop
  endfacet
  facet normal 0.99867 0.0515566 0
    outer loop
      vertex 305 183.5 6
      vertex 304.973 184.023 0
      vertex 304.973 184.023 6
    endloop
  endfacet
  facet normal 0.99867 0.0515566 0
    outer loop
      vertex 304.973 184.023 0
      vertex 305 183.5 6
      vertex 305 183.5 0
    endloop
  endfacet
  facet normal 0.890572 0.454842 0
    outer loop
      vertex 304.568 185.534 6
      vertex 304.33 186 0
      vertex 304.33 186 6
    endloop
  endfacet
  facet normal 0.890572 0.454842 0
    outer loop
      vertex 304.33 186 0
      vertex 304.568 185.534 6
      vertex 304.568 185.534 0
    endloop
  endfacet
  facet normal 0.77769 0.628648 0
    outer loop
      vertex 304.045 186.439 6
      vertex 303.716 186.846 0
      vertex 303.716 186.846 6
    endloop
  endfacet
  facet normal 0.77769 0.628648 0
    outer loop
      vertex 303.716 186.846 0
      vertex 304.045 186.439 6
      vertex 304.045 186.439 0
    endloop
  endfacet
  facet normal 0.707107 0.707107 -0
    outer loop
      vertex 303.716 186.846 0
      vertex 303.346 187.216 6
      vertex 303.716 186.846 6
    endloop
  endfacet
  facet normal 0.707107 0.707107 0
    outer loop
      vertex 303.346 187.216 6
      vertex 303.716 186.846 0
      vertex 303.346 187.216 0
    endloop
  endfacet
endsolid OpenSCAD_Model
