  0
SECTION
  2
BLOCKS
  0
ENDSEC
  0
SECTION
  2
ENTITIES
  0
LINE
  8
0
 10
305
 20
183.5
 11
304.973
 21
184.023
  0
LINE
  8
0
 10
304.973
 20
184.023
 11
304.891
 21
184.54
  0
LINE
  8
0
 10
304.891
 20
184.54
 11
304.755
 21
185.045
  0
LINE
  8
0
 10
304.755
 20
185.045
 11
304.568
 21
185.534
  0
LINE
  8
0
 10
304.568
 20
185.534
 11
304.33
 21
186
  0
LINE
  8
0
 10
304.33
 20
186
 11
304.045
 21
186.439
  0
LINE
  8
0
 10
304.045
 20
186.439
 11
303.716
 21
186.846
  0
LINE
  8
0
 10
303.716
 20
186.846
 11
303.346
 21
187.216
  0
LINE
  8
0
 10
303.346
 20
187.216
 11
302.939
 21
187.545
  0
LINE
  8
0
 10
302.939
 20
187.545
 11
302.5
 21
187.83
  0
LINE
  8
0
 10
302.5
 20
187.83
 11
302.034
 21
188.068
  0
LINE
  8
0
 10
302.034
 20
188.068
 11
301.545
 21
188.255
  0
LINE
  8
0
 10
301.545
 20
188.255
 11
301.04
 21
188.391
  0
LINE
  8
0
 10
301.04
 20
188.391
 11
300.523
 21
188.473
  0
LINE
  8
0
 10
300.523
 20
188.473
 11
300
 21
188.5
  0
LINE
  8
0
 10
300
 20
188.5
 11
-300
 21
188.5
  0
LINE
  8
0
 10
-300
 20
188.5
 11
-300.523
 21
188.473
  0
LINE
  8
0
 10
-300.523
 20
188.473
 11
-301.04
 21
188.391
  0
LINE
  8
0
 10
-301.04
 20
188.391
 11
-301.545
 21
188.255
  0
LINE
  8
0
 10
-301.545
 20
188.255
 11
-302.034
 21
188.068
  0
LINE
  8
0
 10
-302.034
 20
188.068
 11
-302.5
 21
187.83
  0
LINE
  8
0
 10
-302.5
 20
187.83
 11
-302.939
 21
187.545
  0
LINE
  8
0
 10
-302.939
 20
187.545
 11
-303.346
 21
187.216
  0
LINE
  8
0
 10
-303.346
 20
187.216
 11
-303.716
 21
186.846
  0
LINE
  8
0
 10
-303.716
 20
186.846
 11
-304.045
 21
186.439
  0
LINE
  8
0
 10
-304.045
 20
186.439
 11
-304.33
 21
186
  0
LINE
  8
0
 10
-304.33
 20
186
 11
-304.568
 21
185.534
  0
LINE
  8
0
 10
-304.568
 20
185.534
 11
-304.755
 21
185.045
  0
LINE
  8
0
 10
-304.755
 20
185.045
 11
-304.891
 21
184.54
  0
LINE
  8
0
 10
-304.891
 20
184.54
 11
-304.973
 21
184.023
  0
LINE
  8
0
 10
-304.973
 20
184.023
 11
-305
 21
183.5
  0
LINE
  8
0
 10
-305
 20
183.5
 11
-305
 21
-238.375
  0
LINE
  8
0
 10
-305
 20
-238.375
 11
305
 21
-238.375
  0
LINE
  8
0
 10
305
 20
-238.375
 11
305
 21
183.5
  0
ENDSEC
  0
SECTION
  2
OBJECTS
  0
DICTIONARY
  0
ENDSEC
  0
EOF
