  0
SECTION
  2
BLOCKS
  0
ENDSEC
  0
SECTION
  2
ENTITIES
  0
LINE
  8
0
 10
152.091
 20
-152.39
 11
154.158
 21
-152.063
  0
LINE
  8
0
 10
154.158
 20
-152.063
 11
156.18
 21
-151.521
  0
LINE
  8
0
 10
156.18
 20
-151.521
 11
158.135
 21
-150.771
  0
LINE
  8
0
 10
158.135
 20
-150.771
 11
160
 21
-149.82
  0
LINE
  8
0
 10
160
 20
-149.82
 11
161.756
 21
-148.68
  0
LINE
  8
0
 10
161.756
 20
-148.68
 11
163.383
 21
-147.363
  0
LINE
  8
0
 10
163.383
 20
-147.363
 11
164.863
 21
-145.883
  0
LINE
  8
0
 10
164.863
 20
-145.883
 11
166.18
 21
-144.256
  0
LINE
  8
0
 10
166.18
 20
-144.256
 11
167.32
 21
-142.5
  0
LINE
  8
0
 10
167.32
 20
-142.5
 11
168.271
 21
-140.635
  0
LINE
  8
0
 10
168.271
 20
-140.635
 11
169.021
 21
-138.68
  0
LINE
  8
0
 10
169.021
 20
-138.68
 11
169.563
 21
-136.658
  0
LINE
  8
0
 10
169.563
 20
-136.658
 11
169.89
 21
-134.591
  0
LINE
  8
0
 10
169.89
 20
-134.591
 11
170
 21
-132.5
  0
LINE
  8
0
 10
170
 20
-132.5
 11
170
 21
132.5
  0
LINE
  8
0
 10
170
 20
132.5
 11
169.89
 21
134.591
  0
LINE
  8
0
 10
169.89
 20
134.591
 11
169.563
 21
136.658
  0
LINE
  8
0
 10
169.563
 20
136.658
 11
169.021
 21
138.68
  0
LINE
  8
0
 10
169.021
 20
138.68
 11
168.271
 21
140.635
  0
LINE
  8
0
 10
168.271
 20
140.635
 11
167.32
 21
142.5
  0
LINE
  8
0
 10
167.32
 20
142.5
 11
166.18
 21
144.256
  0
LINE
  8
0
 10
166.18
 20
144.256
 11
164.863
 21
145.883
  0
LINE
  8
0
 10
164.863
 20
145.883
 11
163.383
 21
147.363
  0
LINE
  8
0
 10
163.383
 20
147.363
 11
161.756
 21
148.68
  0
LINE
  8
0
 10
161.756
 20
148.68
 11
160
 21
149.82
  0
LINE
  8
0
 10
160
 20
149.82
 11
158.135
 21
150.771
  0
LINE
  8
0
 10
158.135
 20
150.771
 11
156.18
 21
151.521
  0
LINE
  8
0
 10
156.18
 20
151.521
 11
154.158
 21
152.063
  0
LINE
  8
0
 10
154.158
 20
152.063
 11
152.091
 21
152.39
  0
LINE
  8
0
 10
152.091
 20
152.39
 11
150
 21
152.5
  0
LINE
  8
0
 10
150
 20
152.5
 11
3
 21
152.5
  0
LINE
  8
0
 10
3
 20
152.5
 11
2.73868
 21
152.486
  0
LINE
  8
0
 10
2.73868
 20
152.486
 11
2.48021
 21
152.445
  0
LINE
  8
0
 10
2.48021
 20
152.445
 11
2.22745
 21
152.378
  0
LINE
  8
0
 10
2.22745
 20
152.378
 11
1.98315
 21
152.284
  0
LINE
  8
0
 10
1.98315
 20
152.284
 11
1.75
 21
152.165
  0
LINE
  8
0
 10
1.75
 20
152.165
 11
1.53053
 21
152.023
  0
LINE
  8
0
 10
1.53053
 20
152.023
 11
1.32716
 21
151.858
  0
LINE
  8
0
 10
1.32716
 20
151.858
 11
1.14214
 21
151.673
  0
LINE
  8
0
 10
1.14214
 20
151.673
 11
0.977448
 21
151.469
  0
LINE
  8
0
 10
0.977448
 20
151.469
 11
0.83493
 21
151.25
  0
LINE
  8
0
 10
0.83493
 20
151.25
 11
0.716125
 21
151.017
  0
LINE
  8
0
 10
0.716125
 20
151.017
 11
0.622345
 21
150.773
  0
LINE
  8
0
 10
0.622345
 20
150.773
 11
0.554626
 21
150.52
  0
LINE
  8
0
 10
0.554626
 20
150.52
 11
0.513687
 21
150.261
  0
LINE
  8
0
 10
0.513687
 20
150.261
 11
0.5
 21
150
  0
LINE
  8
0
 10
0.5
 20
150
 11
0.5
 21
-150
  0
LINE
  8
0
 10
0.5
 20
-150
 11
0.513687
 21
-150.261
  0
LINE
  8
0
 10
0.513687
 20
-150.261
 11
0.554626
 21
-150.52
  0
LINE
  8
0
 10
0.554626
 20
-150.52
 11
0.622345
 21
-150.773
  0
LINE
  8
0
 10
0.622345
 20
-150.773
 11
0.716125
 21
-151.017
  0
LINE
  8
0
 10
0.716125
 20
-151.017
 11
0.83493
 21
-151.25
  0
LINE
  8
0
 10
0.83493
 20
-151.25
 11
0.977448
 21
-151.469
  0
LINE
  8
0
 10
0.977448
 20
-151.469
 11
1.14214
 21
-151.673
  0
LINE
  8
0
 10
1.14214
 20
-151.673
 11
1.32716
 21
-151.858
  0
LINE
  8
0
 10
1.32716
 20
-151.858
 11
1.53053
 21
-152.023
  0
LINE
  8
0
 10
1.53053
 20
-152.023
 11
1.75
 21
-152.165
  0
LINE
  8
0
 10
1.75
 20
-152.165
 11
1.98315
 21
-152.284
  0
LINE
  8
0
 10
1.98315
 20
-152.284
 11
2.22745
 21
-152.378
  0
LINE
  8
0
 10
2.22745
 20
-152.378
 11
2.48021
 21
-152.445
  0
LINE
  8
0
 10
2.48021
 20
-152.445
 11
2.73868
 21
-152.486
  0
LINE
  8
0
 10
2.73868
 20
-152.486
 11
3
 21
-152.5
  0
LINE
  8
0
 10
3
 20
-152.5
 11
150
 21
-152.5
  0
LINE
  8
0
 10
150
 20
-152.5
 11
152.091
 21
-152.39
  0
ENDSEC
  0
SECTION
  2
OBJECTS
  0
DICTIONARY
  0
ENDSEC
  0
EOF
