  0
SECTION
  2
BLOCKS
  0
ENDSEC
  0
SECTION
  2
ENTITIES
  0
LINE
  8
0
 10
270.523
 20
-238.473
 11
271.04
 21
-238.391
  0
LINE
  8
0
 10
271.04
 20
-238.391
 11
271.545
 21
-238.255
  0
LINE
  8
0
 10
271.545
 20
-238.255
 11
272.034
 21
-238.068
  0
LINE
  8
0
 10
272.034
 20
-238.068
 11
272.5
 21
-237.83
  0
LINE
  8
0
 10
272.5
 20
-237.83
 11
272.939
 21
-237.545
  0
LINE
  8
0
 10
272.939
 20
-237.545
 11
273.346
 21
-237.216
  0
LINE
  8
0
 10
273.346
 20
-237.216
 11
273.716
 21
-236.846
  0
LINE
  8
0
 10
273.716
 20
-236.846
 11
274.045
 21
-236.439
  0
LINE
  8
0
 10
274.045
 20
-236.439
 11
274.33
 21
-236
  0
LINE
  8
0
 10
274.33
 20
-236
 11
274.568
 21
-235.534
  0
LINE
  8
0
 10
274.568
 20
-235.534
 11
274.755
 21
-235.045
  0
LINE
  8
0
 10
274.755
 20
-235.045
 11
274.891
 21
-234.54
  0
LINE
  8
0
 10
274.891
 20
-234.54
 11
274.973
 21
-234.023
  0
LINE
  8
0
 10
274.973
 20
-234.023
 11
275
 21
-233.5
  0
LINE
  8
0
 10
275
 20
-233.5
 11
275
 21
233.5
  0
LINE
  8
0
 10
275
 20
233.5
 11
274.973
 21
234.023
  0
LINE
  8
0
 10
274.973
 20
234.023
 11
274.891
 21
234.54
  0
LINE
  8
0
 10
274.891
 20
234.54
 11
274.755
 21
235.045
  0
LINE
  8
0
 10
274.755
 20
235.045
 11
274.568
 21
235.534
  0
LINE
  8
0
 10
274.568
 20
235.534
 11
274.33
 21
236
  0
LINE
  8
0
 10
274.33
 20
236
 11
274.045
 21
236.439
  0
LINE
  8
0
 10
274.045
 20
236.439
 11
273.716
 21
236.846
  0
LINE
  8
0
 10
273.716
 20
236.846
 11
273.346
 21
237.216
  0
LINE
  8
0
 10
273.346
 20
237.216
 11
272.939
 21
237.545
  0
LINE
  8
0
 10
272.939
 20
237.545
 11
272.5
 21
237.83
  0
LINE
  8
0
 10
272.5
 20
237.83
 11
272.034
 21
238.068
  0
LINE
  8
0
 10
272.034
 20
238.068
 11
271.545
 21
238.255
  0
LINE
  8
0
 10
271.545
 20
238.255
 11
271.04
 21
238.391
  0
LINE
  8
0
 10
271.04
 20
238.391
 11
270.523
 21
238.473
  0
LINE
  8
0
 10
270.523
 20
238.473
 11
270
 21
238.5
  0
LINE
  8
0
 10
270
 20
238.5
 11
-270
 21
238.5
  0
LINE
  8
0
 10
-270
 20
238.5
 11
-270.523
 21
238.473
  0
LINE
  8
0
 10
-270.523
 20
238.473
 11
-271.04
 21
238.391
  0
LINE
  8
0
 10
-271.04
 20
238.391
 11
-271.545
 21
238.255
  0
LINE
  8
0
 10
-271.545
 20
238.255
 11
-272.034
 21
238.068
  0
LINE
  8
0
 10
-272.034
 20
238.068
 11
-272.5
 21
237.83
  0
LINE
  8
0
 10
-272.5
 20
237.83
 11
-272.939
 21
237.545
  0
LINE
  8
0
 10
-272.939
 20
237.545
 11
-273.346
 21
237.216
  0
LINE
  8
0
 10
-273.346
 20
237.216
 11
-273.716
 21
236.846
  0
LINE
  8
0
 10
-273.716
 20
236.846
 11
-274.045
 21
236.439
  0
LINE
  8
0
 10
-274.045
 20
236.439
 11
-274.33
 21
236
  0
LINE
  8
0
 10
-274.33
 20
236
 11
-274.568
 21
235.534
  0
LINE
  8
0
 10
-274.568
 20
235.534
 11
-274.755
 21
235.045
  0
LINE
  8
0
 10
-274.755
 20
235.045
 11
-274.891
 21
234.54
  0
LINE
  8
0
 10
-274.891
 20
234.54
 11
-274.973
 21
234.023
  0
LINE
  8
0
 10
-274.973
 20
234.023
 11
-275
 21
233.5
  0
LINE
  8
0
 10
-275
 20
233.5
 11
-275
 21
-233.5
  0
LINE
  8
0
 10
-275
 20
-233.5
 11
-274.973
 21
-234.023
  0
LINE
  8
0
 10
-274.973
 20
-234.023
 11
-274.891
 21
-234.54
  0
LINE
  8
0
 10
-274.891
 20
-234.54
 11
-274.755
 21
-235.045
  0
LINE
  8
0
 10
-274.755
 20
-235.045
 11
-274.568
 21
-235.534
  0
LINE
  8
0
 10
-274.568
 20
-235.534
 11
-274.33
 21
-236
  0
LINE
  8
0
 10
-274.33
 20
-236
 11
-274.045
 21
-236.439
  0
LINE
  8
0
 10
-274.045
 20
-236.439
 11
-273.716
 21
-236.846
  0
LINE
  8
0
 10
-273.716
 20
-236.846
 11
-273.346
 21
-237.216
  0
LINE
  8
0
 10
-273.346
 20
-237.216
 11
-272.939
 21
-237.545
  0
LINE
  8
0
 10
-272.939
 20
-237.545
 11
-272.5
 21
-237.83
  0
LINE
  8
0
 10
-272.5
 20
-237.83
 11
-272.034
 21
-238.068
  0
LINE
  8
0
 10
-272.034
 20
-238.068
 11
-271.545
 21
-238.255
  0
LINE
  8
0
 10
-271.545
 20
-238.255
 11
-271.04
 21
-238.391
  0
LINE
  8
0
 10
-271.04
 20
-238.391
 11
-270.523
 21
-238.473
  0
LINE
  8
0
 10
-270.523
 20
-238.473
 11
-270
 21
-238.5
  0
LINE
  8
0
 10
-270
 20
-238.5
 11
270
 21
-238.5
  0
LINE
  8
0
 10
270
 20
-238.5
 11
270.523
 21
-238.473
  0
LINE
  8
0
 10
-190.523
 20
217.527
 11
-191.04
 21
217.609
  0
LINE
  8
0
 10
-191.04
 20
217.609
 11
-191.545
 21
217.745
  0
LINE
  8
0
 10
-191.545
 20
217.745
 11
-192.034
 21
217.932
  0
LINE
  8
0
 10
-192.034
 20
217.932
 11
-192.5
 21
218.17
  0
LINE
  8
0
 10
-192.5
 20
218.17
 11
-192.939
 21
218.455
  0
LINE
  8
0
 10
-192.939
 20
218.455
 11
-193.346
 21
218.784
  0
LINE
  8
0
 10
-193.346
 20
218.784
 11
-193.716
 21
219.154
  0
LINE
  8
0
 10
-193.716
 20
219.154
 11
-194.045
 21
219.561
  0
LINE
  8
0
 10
-194.045
 20
219.561
 11
-194.33
 21
220
  0
LINE
  8
0
 10
-194.33
 20
220
 11
-194.568
 21
220.466
  0
LINE
  8
0
 10
-194.568
 20
220.466
 11
-194.755
 21
220.955
  0
LINE
  8
0
 10
-194.755
 20
220.955
 11
-194.891
 21
221.46
  0
LINE
  8
0
 10
-194.891
 20
221.46
 11
-194.973
 21
221.977
  0
LINE
  8
0
 10
-194.973
 20
221.977
 11
-195
 21
222.5
  0
LINE
  8
0
 10
-195
 20
222.5
 11
-194.973
 21
223.023
  0
LINE
  8
0
 10
-194.973
 20
223.023
 11
-194.891
 21
223.54
  0
LINE
  8
0
 10
-194.891
 20
223.54
 11
-194.755
 21
224.045
  0
LINE
  8
0
 10
-194.755
 20
224.045
 11
-194.568
 21
224.534
  0
LINE
  8
0
 10
-194.568
 20
224.534
 11
-194.33
 21
225
  0
LINE
  8
0
 10
-194.33
 20
225
 11
-194.045
 21
225.439
  0
LINE
  8
0
 10
-194.045
 20
225.439
 11
-193.716
 21
225.846
  0
LINE
  8
0
 10
-193.716
 20
225.846
 11
-193.346
 21
226.216
  0
LINE
  8
0
 10
-193.346
 20
226.216
 11
-192.939
 21
226.545
  0
LINE
  8
0
 10
-192.939
 20
226.545
 11
-192.5
 21
226.83
  0
LINE
  8
0
 10
-192.5
 20
226.83
 11
-192.034
 21
227.068
  0
LINE
  8
0
 10
-192.034
 20
227.068
 11
-191.545
 21
227.255
  0
LINE
  8
0
 10
-191.545
 20
227.255
 11
-191.04
 21
227.391
  0
LINE
  8
0
 10
-191.04
 20
227.391
 11
-190.523
 21
227.473
  0
LINE
  8
0
 10
-190.523
 20
227.473
 11
-190
 21
227.5
  0
LINE
  8
0
 10
-190
 20
227.5
 11
-189.477
 21
227.473
  0
LINE
  8
0
 10
-189.477
 20
227.473
 11
-188.96
 21
227.391
  0
LINE
  8
0
 10
-188.96
 20
227.391
 11
-188.455
 21
227.255
  0
LINE
  8
0
 10
-188.455
 20
227.255
 11
-187.966
 21
227.068
  0
LINE
  8
0
 10
-187.966
 20
227.068
 11
-187.5
 21
226.83
  0
LINE
  8
0
 10
-187.5
 20
226.83
 11
-187.061
 21
226.545
  0
LINE
  8
0
 10
-187.061
 20
226.545
 11
-186.654
 21
226.216
  0
LINE
  8
0
 10
-186.654
 20
226.216
 11
-186.284
 21
225.846
  0
LINE
  8
0
 10
-186.284
 20
225.846
 11
-185.955
 21
225.439
  0
LINE
  8
0
 10
-185.955
 20
225.439
 11
-185.67
 21
225
  0
LINE
  8
0
 10
-185.67
 20
225
 11
-185.432
 21
224.534
  0
LINE
  8
0
 10
-185.432
 20
224.534
 11
-185.245
 21
224.045
  0
LINE
  8
0
 10
-185.245
 20
224.045
 11
-185.109
 21
223.54
  0
LINE
  8
0
 10
-185.109
 20
223.54
 11
-185.027
 21
223.023
  0
LINE
  8
0
 10
-185.027
 20
223.023
 11
-185
 21
222.5
  0
LINE
  8
0
 10
-185
 20
222.5
 11
-185.027
 21
221.977
  0
LINE
  8
0
 10
-185.027
 20
221.977
 11
-185.109
 21
221.46
  0
LINE
  8
0
 10
-185.109
 20
221.46
 11
-185.245
 21
220.955
  0
LINE
  8
0
 10
-185.245
 20
220.955
 11
-185.432
 21
220.466
  0
LINE
  8
0
 10
-185.432
 20
220.466
 11
-185.67
 21
220
  0
LINE
  8
0
 10
-185.67
 20
220
 11
-185.955
 21
219.561
  0
LINE
  8
0
 10
-185.955
 20
219.561
 11
-186.284
 21
219.154
  0
LINE
  8
0
 10
-186.284
 20
219.154
 11
-186.654
 21
218.784
  0
LINE
  8
0
 10
-186.654
 20
218.784
 11
-187.061
 21
218.455
  0
LINE
  8
0
 10
-187.061
 20
218.455
 11
-187.5
 21
218.17
  0
LINE
  8
0
 10
-187.5
 20
218.17
 11
-187.966
 21
217.932
  0
LINE
  8
0
 10
-187.966
 20
217.932
 11
-188.455
 21
217.745
  0
LINE
  8
0
 10
-188.455
 20
217.745
 11
-188.96
 21
217.609
  0
LINE
  8
0
 10
-188.96
 20
217.609
 11
-189.477
 21
217.527
  0
LINE
  8
0
 10
-189.477
 20
217.527
 11
-190
 21
217.5
  0
LINE
  8
0
 10
-190
 20
217.5
 11
-190.523
 21
217.527
  0
LINE
  8
0
 10
189.477
 20
217.527
 11
188.96
 21
217.609
  0
LINE
  8
0
 10
188.96
 20
217.609
 11
188.455
 21
217.745
  0
LINE
  8
0
 10
188.455
 20
217.745
 11
187.966
 21
217.932
  0
LINE
  8
0
 10
187.966
 20
217.932
 11
187.5
 21
218.17
  0
LINE
  8
0
 10
187.5
 20
218.17
 11
187.061
 21
218.455
  0
LINE
  8
0
 10
187.061
 20
218.455
 11
186.654
 21
218.784
  0
LINE
  8
0
 10
186.654
 20
218.784
 11
186.284
 21
219.154
  0
LINE
  8
0
 10
186.284
 20
219.154
 11
185.955
 21
219.561
  0
LINE
  8
0
 10
185.955
 20
219.561
 11
185.67
 21
220
  0
LINE
  8
0
 10
185.67
 20
220
 11
185.432
 21
220.466
  0
LINE
  8
0
 10
185.432
 20
220.466
 11
185.245
 21
220.955
  0
LINE
  8
0
 10
185.245
 20
220.955
 11
185.109
 21
221.46
  0
LINE
  8
0
 10
185.109
 20
221.46
 11
185.027
 21
221.977
  0
LINE
  8
0
 10
185.027
 20
221.977
 11
185
 21
222.5
  0
LINE
  8
0
 10
185
 20
222.5
 11
185.027
 21
223.023
  0
LINE
  8
0
 10
185.027
 20
223.023
 11
185.109
 21
223.54
  0
LINE
  8
0
 10
185.109
 20
223.54
 11
185.245
 21
224.045
  0
LINE
  8
0
 10
185.245
 20
224.045
 11
185.432
 21
224.534
  0
LINE
  8
0
 10
185.432
 20
224.534
 11
185.67
 21
225
  0
LINE
  8
0
 10
185.67
 20
225
 11
185.955
 21
225.439
  0
LINE
  8
0
 10
185.955
 20
225.439
 11
186.284
 21
225.846
  0
LINE
  8
0
 10
186.284
 20
225.846
 11
186.654
 21
226.216
  0
LINE
  8
0
 10
186.654
 20
226.216
 11
187.061
 21
226.545
  0
LINE
  8
0
 10
187.061
 20
226.545
 11
187.5
 21
226.83
  0
LINE
  8
0
 10
187.5
 20
226.83
 11
187.966
 21
227.068
  0
LINE
  8
0
 10
187.966
 20
227.068
 11
188.455
 21
227.255
  0
LINE
  8
0
 10
188.455
 20
227.255
 11
188.96
 21
227.391
  0
LINE
  8
0
 10
188.96
 20
227.391
 11
189.477
 21
227.473
  0
LINE
  8
0
 10
189.477
 20
227.473
 11
190
 21
227.5
  0
LINE
  8
0
 10
190
 20
227.5
 11
190.523
 21
227.473
  0
LINE
  8
0
 10
190.523
 20
227.473
 11
191.04
 21
227.391
  0
LINE
  8
0
 10
191.04
 20
227.391
 11
191.545
 21
227.255
  0
LINE
  8
0
 10
191.545
 20
227.255
 11
192.034
 21
227.068
  0
LINE
  8
0
 10
192.034
 20
227.068
 11
192.5
 21
226.83
  0
LINE
  8
0
 10
192.5
 20
226.83
 11
192.939
 21
226.545
  0
LINE
  8
0
 10
192.939
 20
226.545
 11
193.346
 21
226.216
  0
LINE
  8
0
 10
193.346
 20
226.216
 11
193.716
 21
225.846
  0
LINE
  8
0
 10
193.716
 20
225.846
 11
194.045
 21
225.439
  0
LINE
  8
0
 10
194.045
 20
225.439
 11
194.33
 21
225
  0
LINE
  8
0
 10
194.33
 20
225
 11
194.568
 21
224.534
  0
LINE
  8
0
 10
194.568
 20
224.534
 11
194.755
 21
224.045
  0
LINE
  8
0
 10
194.755
 20
224.045
 11
194.891
 21
223.54
  0
LINE
  8
0
 10
194.891
 20
223.54
 11
194.973
 21
223.023
  0
LINE
  8
0
 10
194.973
 20
223.023
 11
195
 21
222.5
  0
LINE
  8
0
 10
195
 20
222.5
 11
194.973
 21
221.977
  0
LINE
  8
0
 10
194.973
 20
221.977
 11
194.891
 21
221.46
  0
LINE
  8
0
 10
194.891
 20
221.46
 11
194.755
 21
220.955
  0
LINE
  8
0
 10
194.755
 20
220.955
 11
194.568
 21
220.466
  0
LINE
  8
0
 10
194.568
 20
220.466
 11
194.33
 21
220
  0
LINE
  8
0
 10
194.33
 20
220
 11
194.045
 21
219.561
  0
LINE
  8
0
 10
194.045
 20
219.561
 11
193.716
 21
219.154
  0
LINE
  8
0
 10
193.716
 20
219.154
 11
193.346
 21
218.784
  0
LINE
  8
0
 10
193.346
 20
218.784
 11
192.939
 21
218.455
  0
LINE
  8
0
 10
192.939
 20
218.455
 11
192.5
 21
218.17
  0
LINE
  8
0
 10
192.5
 20
218.17
 11
192.034
 21
217.932
  0
LINE
  8
0
 10
192.034
 20
217.932
 11
191.545
 21
217.745
  0
LINE
  8
0
 10
191.545
 20
217.745
 11
191.04
 21
217.609
  0
LINE
  8
0
 10
191.04
 20
217.609
 11
190.523
 21
217.527
  0
LINE
  8
0
 10
190.523
 20
217.527
 11
190
 21
217.5
  0
LINE
  8
0
 10
190
 20
217.5
 11
189.477
 21
217.527
  0
LINE
  8
0
 10
218.027
 20
223.855
 11
217.783
 21
223.891
  0
LINE
  8
0
 10
217.783
 20
223.891
 11
217.547
 21
223.964
  0
LINE
  8
0
 10
217.547
 20
223.964
 11
217.325
 21
224.071
  0
LINE
  8
0
 10
217.325
 20
224.071
 11
217.121
 21
224.21
  0
LINE
  8
0
 10
217.121
 20
224.21
 11
216.94
 21
224.378
  0
LINE
  8
0
 10
216.94
 20
224.378
 11
216.787
 21
224.571
  0
LINE
  8
0
 10
216.787
 20
224.571
 11
216.663
 21
224.784
  0
LINE
  8
0
 10
216.663
 20
224.784
 11
216.573
 21
225.014
  0
LINE
  8
0
 10
216.573
 20
225.014
 11
216.518
 21
225.254
  0
LINE
  8
0
 10
216.518
 20
225.254
 11
216.5
 21
225.5
  0
LINE
  8
0
 10
216.5
 20
225.5
 11
216.518
 21
225.746
  0
LINE
  8
0
 10
216.518
 20
225.746
 11
216.573
 21
225.986
  0
LINE
  8
0
 10
216.573
 20
225.986
 11
216.663
 21
226.216
  0
LINE
  8
0
 10
216.663
 20
226.216
 11
216.787
 21
226.429
  0
LINE
  8
0
 10
216.787
 20
226.429
 11
216.94
 21
226.622
  0
LINE
  8
0
 10
216.94
 20
226.622
 11
217.121
 21
226.79
  0
LINE
  8
0
 10
217.121
 20
226.79
 11
217.325
 21
226.929
  0
LINE
  8
0
 10
217.325
 20
226.929
 11
217.547
 21
227.036
  0
LINE
  8
0
 10
217.547
 20
227.036
 11
217.783
 21
227.109
  0
LINE
  8
0
 10
217.783
 20
227.109
 11
218.027
 21
227.145
  0
LINE
  8
0
 10
218.027
 20
227.145
 11
226.273
 21
227.145
  0
LINE
  8
0
 10
226.273
 20
227.145
 11
226.517
 21
227.109
  0
LINE
  8
0
 10
226.517
 20
227.109
 11
226.753
 21
227.036
  0
LINE
  8
0
 10
226.753
 20
227.036
 11
226.975
 21
226.929
  0
LINE
  8
0
 10
226.975
 20
226.929
 11
227.179
 21
226.79
  0
LINE
  8
0
 10
227.179
 20
226.79
 11
227.36
 21
226.622
  0
LINE
  8
0
 10
227.36
 20
226.622
 11
227.513
 21
226.429
  0
LINE
  8
0
 10
227.513
 20
226.429
 11
227.637
 21
226.216
  0
LINE
  8
0
 10
227.637
 20
226.216
 11
227.727
 21
225.986
  0
LINE
  8
0
 10
227.727
 20
225.986
 11
227.782
 21
225.746
  0
LINE
  8
0
 10
227.782
 20
225.746
 11
227.8
 21
225.5
  0
LINE
  8
0
 10
227.8
 20
225.5
 11
227.782
 21
225.254
  0
LINE
  8
0
 10
227.782
 20
225.254
 11
227.727
 21
225.014
  0
LINE
  8
0
 10
227.727
 20
225.014
 11
227.637
 21
224.784
  0
LINE
  8
0
 10
227.637
 20
224.784
 11
227.513
 21
224.571
  0
LINE
  8
0
 10
227.513
 20
224.571
 11
227.36
 21
224.378
  0
LINE
  8
0
 10
227.36
 20
224.378
 11
227.179
 21
224.21
  0
LINE
  8
0
 10
227.179
 20
224.21
 11
226.975
 21
224.071
  0
LINE
  8
0
 10
226.975
 20
224.071
 11
226.753
 21
223.964
  0
LINE
  8
0
 10
226.753
 20
223.964
 11
226.517
 21
223.891
  0
LINE
  8
0
 10
226.517
 20
223.891
 11
226.273
 21
223.855
  0
LINE
  8
0
 10
226.273
 20
223.855
 11
218.027
 21
223.855
  0
LINE
  8
0
 10
249.027
 20
223.855
 11
248.783
 21
223.891
  0
LINE
  8
0
 10
248.783
 20
223.891
 11
248.547
 21
223.964
  0
LINE
  8
0
 10
248.547
 20
223.964
 11
248.325
 21
224.071
  0
LINE
  8
0
 10
248.325
 20
224.071
 11
248.121
 21
224.21
  0
LINE
  8
0
 10
248.121
 20
224.21
 11
247.94
 21
224.378
  0
LINE
  8
0
 10
247.94
 20
224.378
 11
247.787
 21
224.571
  0
LINE
  8
0
 10
247.787
 20
224.571
 11
247.663
 21
224.784
  0
LINE
  8
0
 10
247.663
 20
224.784
 11
247.573
 21
225.014
  0
LINE
  8
0
 10
247.573
 20
225.014
 11
247.518
 21
225.254
  0
LINE
  8
0
 10
247.518
 20
225.254
 11
247.5
 21
225.5
  0
LINE
  8
0
 10
247.5
 20
225.5
 11
247.518
 21
225.746
  0
LINE
  8
0
 10
247.518
 20
225.746
 11
247.573
 21
225.986
  0
LINE
  8
0
 10
247.573
 20
225.986
 11
247.663
 21
226.216
  0
LINE
  8
0
 10
247.663
 20
226.216
 11
247.787
 21
226.429
  0
LINE
  8
0
 10
247.787
 20
226.429
 11
247.94
 21
226.622
  0
LINE
  8
0
 10
247.94
 20
226.622
 11
248.121
 21
226.79
  0
LINE
  8
0
 10
248.121
 20
226.79
 11
248.325
 21
226.929
  0
LINE
  8
0
 10
248.325
 20
226.929
 11
248.547
 21
227.036
  0
LINE
  8
0
 10
248.547
 20
227.036
 11
248.783
 21
227.109
  0
LINE
  8
0
 10
248.783
 20
227.109
 11
249.027
 21
227.145
  0
LINE
  8
0
 10
249.027
 20
227.145
 11
257.273
 21
227.145
  0
LINE
  8
0
 10
257.273
 20
227.145
 11
257.517
 21
227.109
  0
LINE
  8
0
 10
257.517
 20
227.109
 11
257.753
 21
227.036
  0
LINE
  8
0
 10
257.753
 20
227.036
 11
257.975
 21
226.929
  0
LINE
  8
0
 10
257.975
 20
226.929
 11
258.179
 21
226.79
  0
LINE
  8
0
 10
258.179
 20
226.79
 11
258.36
 21
226.622
  0
LINE
  8
0
 10
258.36
 20
226.622
 11
258.513
 21
226.429
  0
LINE
  8
0
 10
258.513
 20
226.429
 11
258.637
 21
226.216
  0
LINE
  8
0
 10
258.637
 20
226.216
 11
258.727
 21
225.986
  0
LINE
  8
0
 10
258.727
 20
225.986
 11
258.782
 21
225.746
  0
LINE
  8
0
 10
258.782
 20
225.746
 11
258.8
 21
225.5
  0
LINE
  8
0
 10
258.8
 20
225.5
 11
258.782
 21
225.254
  0
LINE
  8
0
 10
258.782
 20
225.254
 11
258.727
 21
225.014
  0
LINE
  8
0
 10
258.727
 20
225.014
 11
258.637
 21
224.784
  0
LINE
  8
0
 10
258.637
 20
224.784
 11
258.513
 21
224.571
  0
LINE
  8
0
 10
258.513
 20
224.571
 11
258.36
 21
224.378
  0
LINE
  8
0
 10
258.36
 20
224.378
 11
258.179
 21
224.21
  0
LINE
  8
0
 10
258.179
 20
224.21
 11
257.975
 21
224.071
  0
LINE
  8
0
 10
257.975
 20
224.071
 11
257.753
 21
223.964
  0
LINE
  8
0
 10
257.753
 20
223.964
 11
257.517
 21
223.891
  0
LINE
  8
0
 10
257.517
 20
223.891
 11
257.273
 21
223.855
  0
LINE
  8
0
 10
257.273
 20
223.855
 11
249.027
 21
223.855
  0
LINE
  8
0
 10
-140
 20
220.75
 11
-140.249
 21
220.768
  0
LINE
  8
0
 10
-140.249
 20
220.768
 11
-140.493
 21
220.821
  0
LINE
  8
0
 10
-140.493
 20
220.821
 11
-140.727
 21
220.908
  0
LINE
  8
0
 10
-140.727
 20
220.908
 11
-140.946
 21
221.028
  0
LINE
  8
0
 10
-140.946
 20
221.028
 11
-141.146
 21
221.177
  0
LINE
  8
0
 10
-141.146
 20
221.177
 11
-141.323
 21
221.354
  0
LINE
  8
0
 10
-141.323
 20
221.354
 11
-141.472
 21
221.554
  0
LINE
  8
0
 10
-141.472
 20
221.554
 11
-141.592
 21
221.773
  0
LINE
  8
0
 10
-141.592
 20
221.773
 11
-141.679
 21
222.007
  0
LINE
  8
0
 10
-141.679
 20
222.007
 11
-141.732
 21
222.251
  0
LINE
  8
0
 10
-141.732
 20
222.251
 11
-141.75
 21
222.5
  0
LINE
  8
0
 10
-141.75
 20
222.5
 11
-141.732
 21
222.749
  0
LINE
  8
0
 10
-141.732
 20
222.749
 11
-141.679
 21
222.993
  0
LINE
  8
0
 10
-141.679
 20
222.993
 11
-141.592
 21
223.227
  0
LINE
  8
0
 10
-141.592
 20
223.227
 11
-141.472
 21
223.446
  0
LINE
  8
0
 10
-141.472
 20
223.446
 11
-141.323
 21
223.646
  0
LINE
  8
0
 10
-141.323
 20
223.646
 11
-141.146
 21
223.823
  0
LINE
  8
0
 10
-141.146
 20
223.823
 11
-140.946
 21
223.972
  0
LINE
  8
0
 10
-140.946
 20
223.972
 11
-140.727
 21
224.092
  0
LINE
  8
0
 10
-140.727
 20
224.092
 11
-140.493
 21
224.179
  0
LINE
  8
0
 10
-140.493
 20
224.179
 11
-140.249
 21
224.232
  0
LINE
  8
0
 10
-140.249
 20
224.232
 11
-140
 21
224.25
  0
LINE
  8
0
 10
-140
 20
224.25
 11
171.667
 21
224.25
  0
LINE
  8
0
 10
171.667
 20
224.25
 11
171.916
 21
224.232
  0
LINE
  8
0
 10
171.916
 20
224.232
 11
172.16
 21
224.179
  0
LINE
  8
0
 10
172.16
 20
224.179
 11
172.394
 21
224.092
  0
LINE
  8
0
 10
172.394
 20
224.092
 11
172.613
 21
223.972
  0
LINE
  8
0
 10
172.613
 20
223.972
 11
172.813
 21
223.823
  0
LINE
  8
0
 10
172.813
 20
223.823
 11
172.989
 21
223.646
  0
LINE
  8
0
 10
172.989
 20
223.646
 11
173.139
 21
223.446
  0
LINE
  8
0
 10
173.139
 20
223.446
 11
173.259
 21
223.227
  0
LINE
  8
0
 10
173.259
 20
223.227
 11
173.346
 21
222.993
  0
LINE
  8
0
 10
173.346
 20
222.993
 11
173.399
 21
222.749
  0
LINE
  8
0
 10
173.399
 20
222.749
 11
173.417
 21
222.5
  0
LINE
  8
0
 10
173.417
 20
222.5
 11
173.399
 21
222.251
  0
LINE
  8
0
 10
173.399
 20
222.251
 11
173.346
 21
222.007
  0
LINE
  8
0
 10
173.346
 20
222.007
 11
173.259
 21
221.773
  0
LINE
  8
0
 10
173.259
 20
221.773
 11
173.139
 21
221.554
  0
LINE
  8
0
 10
173.139
 20
221.554
 11
172.989
 21
221.354
  0
LINE
  8
0
 10
172.989
 20
221.354
 11
172.813
 21
221.177
  0
LINE
  8
0
 10
172.813
 20
221.177
 11
172.613
 21
221.028
  0
LINE
  8
0
 10
172.613
 20
221.028
 11
172.394
 21
220.908
  0
LINE
  8
0
 10
172.394
 20
220.908
 11
172.16
 21
220.821
  0
LINE
  8
0
 10
172.16
 20
220.821
 11
171.916
 21
220.768
  0
LINE
  8
0
 10
171.916
 20
220.768
 11
171.667
 21
220.75
  0
LINE
  8
0
 10
171.667
 20
220.75
 11
-140
 21
220.75
  0
LINE
  8
0
 10
-160.186
 20
220.81
 11
-160.43
 21
220.855
  0
LINE
  8
0
 10
-160.43
 20
220.855
 11
-160.665
 21
220.935
  0
LINE
  8
0
 10
-160.665
 20
220.935
 11
-160.886
 21
221.049
  0
LINE
  8
0
 10
-160.886
 20
221.049
 11
-161.087
 21
221.193
  0
LINE
  8
0
 10
-161.087
 20
221.193
 11
-161.266
 21
221.366
  0
LINE
  8
0
 10
-161.266
 20
221.366
 11
-161.418
 21
221.562
  0
LINE
  8
0
 10
-161.418
 20
221.562
 11
-161.539
 21
221.778
  0
LINE
  8
0
 10
-161.539
 20
221.778
 11
-161.628
 21
222.01
  0
LINE
  8
0
 10
-161.628
 20
222.01
 11
-161.682
 21
222.252
  0
LINE
  8
0
 10
-161.682
 20
222.252
 11
-161.7
 21
222.5
  0
LINE
  8
0
 10
-161.7
 20
222.5
 11
-161.682
 21
222.748
  0
LINE
  8
0
 10
-161.682
 20
222.748
 11
-161.628
 21
222.99
  0
LINE
  8
0
 10
-161.628
 20
222.99
 11
-161.539
 21
223.222
  0
LINE
  8
0
 10
-161.539
 20
223.222
 11
-161.418
 21
223.438
  0
LINE
  8
0
 10
-161.418
 20
223.438
 11
-161.266
 21
223.634
  0
LINE
  8
0
 10
-161.266
 20
223.634
 11
-161.087
 21
223.807
  0
LINE
  8
0
 10
-161.087
 20
223.807
 11
-160.886
 21
223.951
  0
LINE
  8
0
 10
-160.886
 20
223.951
 11
-160.665
 21
224.065
  0
LINE
  8
0
 10
-160.665
 20
224.065
 11
-160.43
 21
224.145
  0
LINE
  8
0
 10
-160.43
 20
224.145
 11
-160.186
 21
224.19
  0
LINE
  8
0
 10
-160.186
 20
224.19
 11
-159.938
 21
224.199
  0
LINE
  8
0
 10
-159.938
 20
224.199
 11
-159.691
 21
224.172
  0
LINE
  8
0
 10
-159.691
 20
224.172
 11
-159.451
 21
224.109
  0
LINE
  8
0
 10
-159.451
 20
224.109
 11
-159.223
 21
224.012
  0
LINE
  8
0
 10
-159.223
 20
224.012
 11
-159.011
 21
223.883
  0
LINE
  8
0
 10
-159.011
 20
223.883
 11
-158.82
 21
223.724
  0
LINE
  8
0
 10
-158.82
 20
223.724
 11
-158.654
 21
223.539
  0
LINE
  8
0
 10
-158.654
 20
223.539
 11
-158.518
 21
223.332
  0
LINE
  8
0
 10
-158.518
 20
223.332
 11
-158.412
 21
223.107
  0
LINE
  8
0
 10
-158.412
 20
223.107
 11
-158.341
 21
222.87
  0
LINE
  8
0
 10
-158.341
 20
222.87
 11
-158.305
 21
222.624
  0
LINE
  8
0
 10
-158.305
 20
222.624
 11
-158.305
 21
222.376
  0
LINE
  8
0
 10
-158.305
 20
222.376
 11
-158.341
 21
222.13
  0
LINE
  8
0
 10
-158.341
 20
222.13
 11
-158.412
 21
221.893
  0
LINE
  8
0
 10
-158.412
 20
221.893
 11
-158.518
 21
221.668
  0
LINE
  8
0
 10
-158.518
 20
221.668
 11
-158.654
 21
221.461
  0
LINE
  8
0
 10
-158.654
 20
221.461
 11
-158.82
 21
221.276
  0
LINE
  8
0
 10
-158.82
 20
221.276
 11
-159.011
 21
221.117
  0
LINE
  8
0
 10
-159.011
 20
221.117
 11
-159.223
 21
220.988
  0
LINE
  8
0
 10
-159.223
 20
220.988
 11
-159.451
 21
220.891
  0
LINE
  8
0
 10
-159.451
 20
220.891
 11
-159.691
 21
220.828
  0
LINE
  8
0
 10
-159.691
 20
220.828
 11
-159.938
 21
220.801
  0
LINE
  8
0
 10
-159.938
 20
220.801
 11
-160.186
 21
220.81
  0
LINE
  8
0
 10
233.15
 20
197.5
 11
231.843
 21
197.568
  0
LINE
  8
0
 10
231.843
 20
197.568
 11
230.551
 21
197.773
  0
LINE
  8
0
 10
230.551
 20
197.773
 11
229.287
 21
198.112
  0
LINE
  8
0
 10
229.287
 20
198.112
 11
228.066
 21
198.581
  0
LINE
  8
0
 10
228.066
 20
198.581
 11
226.9
 21
199.175
  0
LINE
  8
0
 10
226.9
 20
199.175
 11
225.803
 21
199.887
  0
LINE
  8
0
 10
225.803
 20
199.887
 11
224.786
 21
200.711
  0
LINE
  8
0
 10
224.786
 20
200.711
 11
223.861
 21
201.636
  0
LINE
  8
0
 10
223.861
 20
201.636
 11
223.037
 21
202.653
  0
LINE
  8
0
 10
223.037
 20
202.653
 11
222.325
 21
203.75
  0
LINE
  8
0
 10
222.325
 20
203.75
 11
221.731
 21
204.916
  0
LINE
  8
0
 10
221.731
 20
204.916
 11
221.262
 21
206.137
  0
LINE
  8
0
 10
221.262
 20
206.137
 11
220.923
 21
207.401
  0
LINE
  8
0
 10
220.923
 20
207.401
 11
220.718
 21
208.693
  0
LINE
  8
0
 10
220.718
 20
208.693
 11
220.65
 21
210
  0
LINE
  8
0
 10
220.65
 20
210
 11
220.718
 21
211.307
  0
LINE
  8
0
 10
220.718
 20
211.307
 11
220.923
 21
212.599
  0
LINE
  8
0
 10
220.923
 20
212.599
 11
221.262
 21
213.863
  0
LINE
  8
0
 10
221.262
 20
213.863
 11
221.731
 21
215.084
  0
LINE
  8
0
 10
221.731
 20
215.084
 11
222.325
 21
216.25
  0
LINE
  8
0
 10
222.325
 20
216.25
 11
223.037
 21
217.347
  0
LINE
  8
0
 10
223.037
 20
217.347
 11
223.861
 21
218.364
  0
LINE
  8
0
 10
223.861
 20
218.364
 11
224.786
 21
219.289
  0
LINE
  8
0
 10
224.786
 20
219.289
 11
225.803
 21
220.113
  0
LINE
  8
0
 10
225.803
 20
220.113
 11
226.9
 21
220.825
  0
LINE
  8
0
 10
226.9
 20
220.825
 11
228.066
 21
221.419
  0
LINE
  8
0
 10
228.066
 20
221.419
 11
229.287
 21
221.888
  0
LINE
  8
0
 10
229.287
 20
221.888
 11
230.551
 21
222.227
  0
LINE
  8
0
 10
230.551
 20
222.227
 11
231.843
 21
222.432
  0
LINE
  8
0
 10
231.843
 20
222.432
 11
233.15
 21
222.5
  0
LINE
  8
0
 10
233.15
 20
222.5
 11
241.15
 21
222.5
  0
LINE
  8
0
 10
241.15
 20
222.5
 11
242.457
 21
222.432
  0
LINE
  8
0
 10
242.457
 20
222.432
 11
243.749
 21
222.227
  0
LINE
  8
0
 10
243.749
 20
222.227
 11
245.013
 21
221.888
  0
LINE
  8
0
 10
245.013
 20
221.888
 11
246.234
 21
221.419
  0
LINE
  8
0
 10
246.234
 20
221.419
 11
247.4
 21
220.825
  0
LINE
  8
0
 10
247.4
 20
220.825
 11
248.497
 21
220.113
  0
LINE
  8
0
 10
248.497
 20
220.113
 11
249.514
 21
219.289
  0
LINE
  8
0
 10
249.514
 20
219.289
 11
250.439
 21
218.364
  0
LINE
  8
0
 10
250.439
 20
218.364
 11
251.263
 21
217.347
  0
LINE
  8
0
 10
251.263
 20
217.347
 11
251.975
 21
216.25
  0
LINE
  8
0
 10
251.975
 20
216.25
 11
252.569
 21
215.084
  0
LINE
  8
0
 10
252.569
 20
215.084
 11
253.038
 21
213.863
  0
LINE
  8
0
 10
253.038
 20
213.863
 11
253.377
 21
212.599
  0
LINE
  8
0
 10
253.377
 20
212.599
 11
253.582
 21
211.307
  0
LINE
  8
0
 10
253.582
 20
211.307
 11
253.65
 21
210
  0
LINE
  8
0
 10
253.65
 20
210
 11
253.582
 21
208.693
  0
LINE
  8
0
 10
253.582
 20
208.693
 11
253.377
 21
207.401
  0
LINE
  8
0
 10
253.377
 20
207.401
 11
253.038
 21
206.137
  0
LINE
  8
0
 10
253.038
 20
206.137
 11
252.569
 21
204.916
  0
LINE
  8
0
 10
252.569
 20
204.916
 11
251.975
 21
203.75
  0
LINE
  8
0
 10
251.975
 20
203.75
 11
251.263
 21
202.653
  0
LINE
  8
0
 10
251.263
 20
202.653
 11
250.439
 21
201.636
  0
LINE
  8
0
 10
250.439
 20
201.636
 11
249.514
 21
200.711
  0
LINE
  8
0
 10
249.514
 20
200.711
 11
248.497
 21
199.887
  0
LINE
  8
0
 10
248.497
 20
199.887
 11
247.4
 21
199.175
  0
LINE
  8
0
 10
247.4
 20
199.175
 11
246.234
 21
198.581
  0
LINE
  8
0
 10
246.234
 20
198.581
 11
245.013
 21
198.112
  0
LINE
  8
0
 10
245.013
 20
198.112
 11
243.749
 21
197.773
  0
LINE
  8
0
 10
243.749
 20
197.773
 11
242.457
 21
197.568
  0
LINE
  8
0
 10
242.457
 20
197.568
 11
241.15
 21
197.5
  0
LINE
  8
0
 10
241.15
 20
197.5
 11
233.15
 21
197.5
  0
LINE
  8
0
 10
-179
 20
-212.5
 11
-179.223
 21
-212.475
  0
LINE
  8
0
 10
-179.223
 20
-212.475
 11
-179.434
 21
-212.401
  0
LINE
  8
0
 10
-179.434
 20
-212.401
 11
-179.623
 21
-212.282
  0
LINE
  8
0
 10
-179.623
 20
-212.282
 11
-179.782
 21
-212.123
  0
LINE
  8
0
 10
-179.782
 20
-212.123
 11
-179.901
 21
-211.934
  0
LINE
  8
0
 10
-179.901
 20
-211.934
 11
-179.975
 21
-211.723
  0
LINE
  8
0
 10
-179.975
 20
-211.723
 11
-180
 21
-211.5
  0
LINE
  8
0
 10
-180
 20
-211.5
 11
-180
 21
211.5
  0
LINE
  8
0
 10
-180
 20
211.5
 11
-179.975
 21
211.723
  0
LINE
  8
0
 10
-179.975
 20
211.723
 11
-179.901
 21
211.934
  0
LINE
  8
0
 10
-179.901
 20
211.934
 11
-179.782
 21
212.123
  0
LINE
  8
0
 10
-179.782
 20
212.123
 11
-179.623
 21
212.282
  0
LINE
  8
0
 10
-179.623
 20
212.282
 11
-179.434
 21
212.401
  0
LINE
  8
0
 10
-179.434
 20
212.401
 11
-179.223
 21
212.475
  0
LINE
  8
0
 10
-179.223
 20
212.475
 11
-179
 21
212.5
  0
LINE
  8
0
 10
-179
 20
212.5
 11
179
 21
212.5
  0
LINE
  8
0
 10
179
 20
212.5
 11
179.223
 21
212.475
  0
LINE
  8
0
 10
179.223
 20
212.475
 11
179.434
 21
212.401
  0
LINE
  8
0
 10
179.434
 20
212.401
 11
179.623
 21
212.282
  0
LINE
  8
0
 10
179.623
 20
212.282
 11
179.782
 21
212.123
  0
LINE
  8
0
 10
179.782
 20
212.123
 11
179.901
 21
211.934
  0
LINE
  8
0
 10
179.901
 20
211.934
 11
179.975
 21
211.723
  0
LINE
  8
0
 10
179.975
 20
211.723
 11
180
 21
211.5
  0
LINE
  8
0
 10
180
 20
211.5
 11
180
 21
-211.5
  0
LINE
  8
0
 10
180
 20
-211.5
 11
179.975
 21
-211.723
  0
LINE
  8
0
 10
179.975
 20
-211.723
 11
179.901
 21
-211.934
  0
LINE
  8
0
 10
179.901
 20
-211.934
 11
179.782
 21
-212.123
  0
LINE
  8
0
 10
179.782
 20
-212.123
 11
179.623
 21
-212.282
  0
LINE
  8
0
 10
179.623
 20
-212.282
 11
179.434
 21
-212.401
  0
LINE
  8
0
 10
179.434
 20
-212.401
 11
179.223
 21
-212.475
  0
LINE
  8
0
 10
179.223
 20
-212.475
 11
179
 21
-212.5
  0
LINE
  8
0
 10
179
 20
-212.5
 11
-179
 21
-212.5
  0
LINE
  8
0
 10
-239.894
 20
208.774
 11
-240.128
 21
208.845
  0
LINE
  8
0
 10
-240.128
 20
208.845
 11
-240.344
 21
208.961
  0
LINE
  8
0
 10
-240.344
 20
208.961
 11
-240.534
 21
209.116
  0
LINE
  8
0
 10
-240.534
 20
209.116
 11
-240.689
 21
209.306
  0
LINE
  8
0
 10
-240.689
 20
209.306
 11
-240.805
 21
209.522
  0
LINE
  8
0
 10
-240.805
 20
209.522
 11
-240.876
 21
209.756
  0
LINE
  8
0
 10
-240.876
 20
209.756
 11
-240.9
 21
210
  0
LINE
  8
0
 10
-240.9
 20
210
 11
-240.876
 21
210.244
  0
LINE
  8
0
 10
-240.876
 20
210.244
 11
-240.805
 21
210.478
  0
LINE
  8
0
 10
-240.805
 20
210.478
 11
-240.689
 21
210.694
  0
LINE
  8
0
 10
-240.689
 20
210.694
 11
-240.534
 21
210.884
  0
LINE
  8
0
 10
-240.534
 20
210.884
 11
-240.344
 21
211.039
  0
LINE
  8
0
 10
-240.344
 20
211.039
 11
-240.128
 21
211.155
  0
LINE
  8
0
 10
-240.128
 20
211.155
 11
-239.894
 21
211.226
  0
LINE
  8
0
 10
-239.894
 20
211.226
 11
-239.65
 21
211.25
  0
LINE
  8
0
 10
-239.65
 20
211.25
 11
-239.406
 21
211.226
  0
LINE
  8
0
 10
-239.406
 20
211.226
 11
-239.172
 21
211.155
  0
LINE
  8
0
 10
-239.172
 20
211.155
 11
-238.956
 21
211.039
  0
LINE
  8
0
 10
-238.956
 20
211.039
 11
-238.766
 21
210.884
  0
LINE
  8
0
 10
-238.766
 20
210.884
 11
-238.611
 21
210.694
  0
LINE
  8
0
 10
-238.611
 20
210.694
 11
-238.495
 21
210.478
  0
LINE
  8
0
 10
-238.495
 20
210.478
 11
-238.424
 21
210.244
  0
LINE
  8
0
 10
-238.424
 20
210.244
 11
-238.4
 21
210
  0
LINE
  8
0
 10
-238.4
 20
210
 11
-238.424
 21
209.756
  0
LINE
  8
0
 10
-238.424
 20
209.756
 11
-238.495
 21
209.522
  0
LINE
  8
0
 10
-238.495
 20
209.522
 11
-238.611
 21
209.306
  0
LINE
  8
0
 10
-238.611
 20
209.306
 11
-238.766
 21
209.116
  0
LINE
  8
0
 10
-238.766
 20
209.116
 11
-238.956
 21
208.961
  0
LINE
  8
0
 10
-238.956
 20
208.961
 11
-239.172
 21
208.845
  0
LINE
  8
0
 10
-239.172
 20
208.845
 11
-239.406
 21
208.774
  0
LINE
  8
0
 10
-239.406
 20
208.774
 11
-239.65
 21
208.75
  0
LINE
  8
0
 10
-239.65
 20
208.75
 11
-239.894
 21
208.774
  0
LINE
  8
0
 10
-228.744
 20
197.774
 11
-228.978
 21
197.845
  0
LINE
  8
0
 10
-228.978
 20
197.845
 11
-229.194
 21
197.961
  0
LINE
  8
0
 10
-229.194
 20
197.961
 11
-229.384
 21
198.116
  0
LINE
  8
0
 10
-229.384
 20
198.116
 11
-229.539
 21
198.306
  0
LINE
  8
0
 10
-229.539
 20
198.306
 11
-229.655
 21
198.522
  0
LINE
  8
0
 10
-229.655
 20
198.522
 11
-229.726
 21
198.756
  0
LINE
  8
0
 10
-229.726
 20
198.756
 11
-229.75
 21
199
  0
LINE
  8
0
 10
-229.75
 20
199
 11
-229.726
 21
199.244
  0
LINE
  8
0
 10
-229.726
 20
199.244
 11
-229.655
 21
199.478
  0
LINE
  8
0
 10
-229.655
 20
199.478
 11
-229.539
 21
199.694
  0
LINE
  8
0
 10
-229.539
 20
199.694
 11
-229.384
 21
199.884
  0
LINE
  8
0
 10
-229.384
 20
199.884
 11
-229.194
 21
200.039
  0
LINE
  8
0
 10
-229.194
 20
200.039
 11
-228.978
 21
200.155
  0
LINE
  8
0
 10
-228.978
 20
200.155
 11
-228.744
 21
200.226
  0
LINE
  8
0
 10
-228.744
 20
200.226
 11
-228.5
 21
200.25
  0
LINE
  8
0
 10
-228.5
 20
200.25
 11
-228.256
 21
200.226
  0
LINE
  8
0
 10
-228.256
 20
200.226
 11
-228.022
 21
200.155
  0
LINE
  8
0
 10
-228.022
 20
200.155
 11
-227.806
 21
200.039
  0
LINE
  8
0
 10
-227.806
 20
200.039
 11
-227.616
 21
199.884
  0
LINE
  8
0
 10
-227.616
 20
199.884
 11
-227.461
 21
199.694
  0
LINE
  8
0
 10
-227.461
 20
199.694
 11
-227.345
 21
199.478
  0
LINE
  8
0
 10
-227.345
 20
199.478
 11
-227.274
 21
199.244
  0
LINE
  8
0
 10
-227.274
 20
199.244
 11
-227.25
 21
199
  0
LINE
  8
0
 10
-227.25
 20
199
 11
-227.274
 21
198.756
  0
LINE
  8
0
 10
-227.274
 20
198.756
 11
-227.345
 21
198.522
  0
LINE
  8
0
 10
-227.345
 20
198.522
 11
-227.461
 21
198.306
  0
LINE
  8
0
 10
-227.461
 20
198.306
 11
-227.616
 21
198.116
  0
LINE
  8
0
 10
-227.616
 20
198.116
 11
-227.806
 21
197.961
  0
LINE
  8
0
 10
-227.806
 20
197.961
 11
-228.022
 21
197.845
  0
LINE
  8
0
 10
-228.022
 20
197.845
 11
-228.256
 21
197.774
  0
LINE
  8
0
 10
-228.256
 20
197.774
 11
-228.5
 21
197.75
  0
LINE
  8
0
 10
-228.5
 20
197.75
 11
-228.744
 21
197.774
  0
LINE
  8
0
 10
249.027
 20
192.855
 11
248.783
 21
192.891
  0
LINE
  8
0
 10
248.783
 20
192.891
 11
248.547
 21
192.964
  0
LINE
  8
0
 10
248.547
 20
192.964
 11
248.325
 21
193.071
  0
LINE
  8
0
 10
248.325
 20
193.071
 11
248.121
 21
193.21
  0
LINE
  8
0
 10
248.121
 20
193.21
 11
247.94
 21
193.378
  0
LINE
  8
0
 10
247.94
 20
193.378
 11
247.787
 21
193.571
  0
LINE
  8
0
 10
247.787
 20
193.571
 11
247.663
 21
193.784
  0
LINE
  8
0
 10
247.663
 20
193.784
 11
247.573
 21
194.014
  0
LINE
  8
0
 10
247.573
 20
194.014
 11
247.518
 21
194.254
  0
LINE
  8
0
 10
247.518
 20
194.254
 11
247.5
 21
194.5
  0
LINE
  8
0
 10
247.5
 20
194.5
 11
247.518
 21
194.746
  0
LINE
  8
0
 10
247.518
 20
194.746
 11
247.573
 21
194.986
  0
LINE
  8
0
 10
247.573
 20
194.986
 11
247.663
 21
195.216
  0
LINE
  8
0
 10
247.663
 20
195.216
 11
247.787
 21
195.429
  0
LINE
  8
0
 10
247.787
 20
195.429
 11
247.94
 21
195.622
  0
LINE
  8
0
 10
247.94
 20
195.622
 11
248.121
 21
195.79
  0
LINE
  8
0
 10
248.121
 20
195.79
 11
248.325
 21
195.929
  0
LINE
  8
0
 10
248.325
 20
195.929
 11
248.547
 21
196.036
  0
LINE
  8
0
 10
248.547
 20
196.036
 11
248.783
 21
196.109
  0
LINE
  8
0
 10
248.783
 20
196.109
 11
249.027
 21
196.145
  0
LINE
  8
0
 10
249.027
 20
196.145
 11
257.273
 21
196.145
  0
LINE
  8
0
 10
257.273
 20
196.145
 11
257.517
 21
196.109
  0
LINE
  8
0
 10
257.517
 20
196.109
 11
257.753
 21
196.036
  0
LINE
  8
0
 10
257.753
 20
196.036
 11
257.975
 21
195.929
  0
LINE
  8
0
 10
257.975
 20
195.929
 11
258.179
 21
195.79
  0
LINE
  8
0
 10
258.179
 20
195.79
 11
258.36
 21
195.622
  0
LINE
  8
0
 10
258.36
 20
195.622
 11
258.513
 21
195.429
  0
LINE
  8
0
 10
258.513
 20
195.429
 11
258.637
 21
195.216
  0
LINE
  8
0
 10
258.637
 20
195.216
 11
258.727
 21
194.986
  0
LINE
  8
0
 10
258.727
 20
194.986
 11
258.782
 21
194.746
  0
LINE
  8
0
 10
258.782
 20
194.746
 11
258.8
 21
194.5
  0
LINE
  8
0
 10
258.8
 20
194.5
 11
258.782
 21
194.254
  0
LINE
  8
0
 10
258.782
 20
194.254
 11
258.727
 21
194.014
  0
LINE
  8
0
 10
258.727
 20
194.014
 11
258.637
 21
193.784
  0
LINE
  8
0
 10
258.637
 20
193.784
 11
258.513
 21
193.571
  0
LINE
  8
0
 10
258.513
 20
193.571
 11
258.36
 21
193.378
  0
LINE
  8
0
 10
258.36
 20
193.378
 11
258.179
 21
193.21
  0
LINE
  8
0
 10
258.179
 20
193.21
 11
257.975
 21
193.071
  0
LINE
  8
0
 10
257.975
 20
193.071
 11
257.753
 21
192.964
  0
LINE
  8
0
 10
257.753
 20
192.964
 11
257.517
 21
192.891
  0
LINE
  8
0
 10
257.517
 20
192.891
 11
257.273
 21
192.855
  0
LINE
  8
0
 10
257.273
 20
192.855
 11
249.027
 21
192.855
  0
LINE
  8
0
 10
218.027
 20
192.855
 11
217.783
 21
192.891
  0
LINE
  8
0
 10
217.783
 20
192.891
 11
217.547
 21
192.964
  0
LINE
  8
0
 10
217.547
 20
192.964
 11
217.325
 21
193.071
  0
LINE
  8
0
 10
217.325
 20
193.071
 11
217.121
 21
193.21
  0
LINE
  8
0
 10
217.121
 20
193.21
 11
216.94
 21
193.378
  0
LINE
  8
0
 10
216.94
 20
193.378
 11
216.787
 21
193.571
  0
LINE
  8
0
 10
216.787
 20
193.571
 11
216.663
 21
193.784
  0
LINE
  8
0
 10
216.663
 20
193.784
 11
216.573
 21
194.014
  0
LINE
  8
0
 10
216.573
 20
194.014
 11
216.518
 21
194.254
  0
LINE
  8
0
 10
216.518
 20
194.254
 11
216.5
 21
194.5
  0
LINE
  8
0
 10
216.5
 20
194.5
 11
216.518
 21
194.746
  0
LINE
  8
0
 10
216.518
 20
194.746
 11
216.573
 21
194.986
  0
LINE
  8
0
 10
216.573
 20
194.986
 11
216.663
 21
195.216
  0
LINE
  8
0
 10
216.663
 20
195.216
 11
216.787
 21
195.429
  0
LINE
  8
0
 10
216.787
 20
195.429
 11
216.94
 21
195.622
  0
LINE
  8
0
 10
216.94
 20
195.622
 11
217.121
 21
195.79
  0
LINE
  8
0
 10
217.121
 20
195.79
 11
217.325
 21
195.929
  0
LINE
  8
0
 10
217.325
 20
195.929
 11
217.547
 21
196.036
  0
LINE
  8
0
 10
217.547
 20
196.036
 11
217.783
 21
196.109
  0
LINE
  8
0
 10
217.783
 20
196.109
 11
218.027
 21
196.145
  0
LINE
  8
0
 10
218.027
 20
196.145
 11
226.273
 21
196.145
  0
LINE
  8
0
 10
226.273
 20
196.145
 11
226.517
 21
196.109
  0
LINE
  8
0
 10
226.517
 20
196.109
 11
226.753
 21
196.036
  0
LINE
  8
0
 10
226.753
 20
196.036
 11
226.975
 21
195.929
  0
LINE
  8
0
 10
226.975
 20
195.929
 11
227.179
 21
195.79
  0
LINE
  8
0
 10
227.179
 20
195.79
 11
227.36
 21
195.622
  0
LINE
  8
0
 10
227.36
 20
195.622
 11
227.513
 21
195.429
  0
LINE
  8
0
 10
227.513
 20
195.429
 11
227.637
 21
195.216
  0
LINE
  8
0
 10
227.637
 20
195.216
 11
227.727
 21
194.986
  0
LINE
  8
0
 10
227.727
 20
194.986
 11
227.782
 21
194.746
  0
LINE
  8
0
 10
227.782
 20
194.746
 11
227.8
 21
194.5
  0
LINE
  8
0
 10
227.8
 20
194.5
 11
227.782
 21
194.254
  0
LINE
  8
0
 10
227.782
 20
194.254
 11
227.727
 21
194.014
  0
LINE
  8
0
 10
227.727
 20
194.014
 11
227.637
 21
193.784
  0
LINE
  8
0
 10
227.637
 20
193.784
 11
227.513
 21
193.571
  0
LINE
  8
0
 10
227.513
 20
193.571
 11
227.36
 21
193.378
  0
LINE
  8
0
 10
227.36
 20
193.378
 11
227.179
 21
193.21
  0
LINE
  8
0
 10
227.179
 20
193.21
 11
226.975
 21
193.071
  0
LINE
  8
0
 10
226.975
 20
193.071
 11
226.753
 21
192.964
  0
LINE
  8
0
 10
226.753
 20
192.964
 11
226.517
 21
192.891
  0
LINE
  8
0
 10
226.517
 20
192.891
 11
226.273
 21
192.855
  0
LINE
  8
0
 10
226.273
 20
192.855
 11
218.027
 21
192.855
  0
LINE
  8
0
 10
189.691
 20
190.828
 11
189.451
 21
190.891
  0
LINE
  8
0
 10
189.451
 20
190.891
 11
189.223
 21
190.988
  0
LINE
  8
0
 10
189.223
 20
190.988
 11
189.011
 21
191.117
  0
LINE
  8
0
 10
189.011
 20
191.117
 11
188.82
 21
191.276
  0
LINE
  8
0
 10
188.82
 20
191.276
 11
188.654
 21
191.461
  0
LINE
  8
0
 10
188.654
 20
191.461
 11
188.518
 21
191.668
  0
LINE
  8
0
 10
188.518
 20
191.668
 11
188.412
 21
191.893
  0
LINE
  8
0
 10
188.412
 20
191.893
 11
188.341
 21
192.13
  0
LINE
  8
0
 10
188.341
 20
192.13
 11
188.305
 21
192.376
  0
LINE
  8
0
 10
188.305
 20
192.376
 11
188.305
 21
192.624
  0
LINE
  8
0
 10
188.305
 20
192.624
 11
188.341
 21
192.87
  0
LINE
  8
0
 10
188.341
 20
192.87
 11
188.412
 21
193.107
  0
LINE
  8
0
 10
188.412
 20
193.107
 11
188.518
 21
193.332
  0
LINE
  8
0
 10
188.518
 20
193.332
 11
188.654
 21
193.539
  0
LINE
  8
0
 10
188.654
 20
193.539
 11
188.82
 21
193.724
  0
LINE
  8
0
 10
188.82
 20
193.724
 11
189.011
 21
193.883
  0
LINE
  8
0
 10
189.011
 20
193.883
 11
189.223
 21
194.012
  0
LINE
  8
0
 10
189.223
 20
194.012
 11
189.451
 21
194.109
  0
LINE
  8
0
 10
189.451
 20
194.109
 11
189.691
 21
194.172
  0
LINE
  8
0
 10
189.691
 20
194.172
 11
189.938
 21
194.199
  0
LINE
  8
0
 10
189.938
 20
194.199
 11
190.186
 21
194.19
  0
LINE
  8
0
 10
190.186
 20
194.19
 11
190.43
 21
194.145
  0
LINE
  8
0
 10
190.43
 20
194.145
 11
190.665
 21
194.065
  0
LINE
  8
0
 10
190.665
 20
194.065
 11
190.886
 21
193.951
  0
LINE
  8
0
 10
190.886
 20
193.951
 11
191.087
 21
193.807
  0
LINE
  8
0
 10
191.087
 20
193.807
 11
191.266
 21
193.634
  0
LINE
  8
0
 10
191.266
 20
193.634
 11
191.418
 21
193.438
  0
LINE
  8
0
 10
191.418
 20
193.438
 11
191.539
 21
193.222
  0
LINE
  8
0
 10
191.539
 20
193.222
 11
191.628
 21
192.99
  0
LINE
  8
0
 10
191.628
 20
192.99
 11
191.682
 21
192.748
  0
LINE
  8
0
 10
191.682
 20
192.748
 11
191.7
 21
192.5
  0
LINE
  8
0
 10
191.7
 20
192.5
 11
191.682
 21
192.252
  0
LINE
  8
0
 10
191.682
 20
192.252
 11
191.628
 21
192.01
  0
LINE
  8
0
 10
191.628
 20
192.01
 11
191.539
 21
191.778
  0
LINE
  8
0
 10
191.539
 20
191.778
 11
191.418
 21
191.562
  0
LINE
  8
0
 10
191.418
 20
191.562
 11
191.266
 21
191.366
  0
LINE
  8
0
 10
191.266
 20
191.366
 11
191.087
 21
191.193
  0
LINE
  8
0
 10
191.087
 20
191.193
 11
190.886
 21
191.049
  0
LINE
  8
0
 10
190.886
 20
191.049
 11
190.665
 21
190.935
  0
LINE
  8
0
 10
190.665
 20
190.935
 11
190.43
 21
190.855
  0
LINE
  8
0
 10
190.43
 20
190.855
 11
190.186
 21
190.81
  0
LINE
  8
0
 10
190.186
 20
190.81
 11
189.938
 21
190.801
  0
LINE
  8
0
 10
189.938
 20
190.801
 11
189.691
 21
190.828
  0
LINE
  8
0
 10
-190.186
 20
190.81
 11
-190.43
 21
190.855
  0
LINE
  8
0
 10
-190.43
 20
190.855
 11
-190.665
 21
190.935
  0
LINE
  8
0
 10
-190.665
 20
190.935
 11
-190.886
 21
191.049
  0
LINE
  8
0
 10
-190.886
 20
191.049
 11
-191.087
 21
191.193
  0
LINE
  8
0
 10
-191.087
 20
191.193
 11
-191.266
 21
191.366
  0
LINE
  8
0
 10
-191.266
 20
191.366
 11
-191.418
 21
191.562
  0
LINE
  8
0
 10
-191.418
 20
191.562
 11
-191.539
 21
191.778
  0
LINE
  8
0
 10
-191.539
 20
191.778
 11
-191.628
 21
192.01
  0
LINE
  8
0
 10
-191.628
 20
192.01
 11
-191.682
 21
192.252
  0
LINE
  8
0
 10
-191.682
 20
192.252
 11
-191.7
 21
192.5
  0
LINE
  8
0
 10
-191.7
 20
192.5
 11
-191.682
 21
192.748
  0
LINE
  8
0
 10
-191.682
 20
192.748
 11
-191.628
 21
192.99
  0
LINE
  8
0
 10
-191.628
 20
192.99
 11
-191.539
 21
193.222
  0
LINE
  8
0
 10
-191.539
 20
193.222
 11
-191.418
 21
193.438
  0
LINE
  8
0
 10
-191.418
 20
193.438
 11
-191.266
 21
193.634
  0
LINE
  8
0
 10
-191.266
 20
193.634
 11
-191.087
 21
193.807
  0
LINE
  8
0
 10
-191.087
 20
193.807
 11
-190.886
 21
193.951
  0
LINE
  8
0
 10
-190.886
 20
193.951
 11
-190.665
 21
194.065
  0
LINE
  8
0
 10
-190.665
 20
194.065
 11
-190.43
 21
194.145
  0
LINE
  8
0
 10
-190.43
 20
194.145
 11
-190.186
 21
194.19
  0
LINE
  8
0
 10
-190.186
 20
194.19
 11
-189.938
 21
194.199
  0
LINE
  8
0
 10
-189.938
 20
194.199
 11
-189.691
 21
194.172
  0
LINE
  8
0
 10
-189.691
 20
194.172
 11
-189.451
 21
194.109
  0
LINE
  8
0
 10
-189.451
 20
194.109
 11
-189.223
 21
194.012
  0
LINE
  8
0
 10
-189.223
 20
194.012
 11
-189.011
 21
193.883
  0
LINE
  8
0
 10
-189.011
 20
193.883
 11
-188.82
 21
193.724
  0
LINE
  8
0
 10
-188.82
 20
193.724
 11
-188.654
 21
193.539
  0
LINE
  8
0
 10
-188.654
 20
193.539
 11
-188.518
 21
193.332
  0
LINE
  8
0
 10
-188.518
 20
193.332
 11
-188.412
 21
193.107
  0
LINE
  8
0
 10
-188.412
 20
193.107
 11
-188.341
 21
192.87
  0
LINE
  8
0
 10
-188.341
 20
192.87
 11
-188.305
 21
192.624
  0
LINE
  8
0
 10
-188.305
 20
192.624
 11
-188.305
 21
192.376
  0
LINE
  8
0
 10
-188.305
 20
192.376
 11
-188.341
 21
192.13
  0
LINE
  8
0
 10
-188.341
 20
192.13
 11
-188.412
 21
191.893
  0
LINE
  8
0
 10
-188.412
 20
191.893
 11
-188.518
 21
191.668
  0
LINE
  8
0
 10
-188.518
 20
191.668
 11
-188.654
 21
191.461
  0
LINE
  8
0
 10
-188.654
 20
191.461
 11
-188.82
 21
191.276
  0
LINE
  8
0
 10
-188.82
 20
191.276
 11
-189.011
 21
191.117
  0
LINE
  8
0
 10
-189.011
 20
191.117
 11
-189.223
 21
190.988
  0
LINE
  8
0
 10
-189.223
 20
190.988
 11
-189.451
 21
190.891
  0
LINE
  8
0
 10
-189.451
 20
190.891
 11
-189.691
 21
190.828
  0
LINE
  8
0
 10
-189.691
 20
190.828
 11
-189.938
 21
190.801
  0
LINE
  8
0
 10
-189.938
 20
190.801
 11
-190.186
 21
190.81
  0
LINE
  8
0
 10
-190.249
 20
69.1011
 11
-190.493
 21
69.1542
  0
LINE
  8
0
 10
-190.493
 20
69.1542
 11
-190.727
 21
69.2415
  0
LINE
  8
0
 10
-190.727
 20
69.2415
 11
-190.946
 21
69.3611
  0
LINE
  8
0
 10
-190.946
 20
69.3611
 11
-191.146
 21
69.5108
  0
LINE
  8
0
 10
-191.146
 20
69.5108
 11
-191.323
 21
69.6873
  0
LINE
  8
0
 10
-191.323
 20
69.6873
 11
-191.472
 21
69.8872
  0
LINE
  8
0
 10
-191.472
 20
69.8872
 11
-191.592
 21
70.1064
  0
LINE
  8
0
 10
-191.592
 20
70.1064
 11
-191.679
 21
70.3403
  0
LINE
  8
0
 10
-191.679
 20
70.3403
 11
-191.732
 21
70.5843
  0
LINE
  8
0
 10
-191.732
 20
70.5843
 11
-191.75
 21
70.8333
  0
LINE
  8
0
 10
-191.75
 20
70.8333
 11
-191.75
 21
182.5
  0
LINE
  8
0
 10
-191.75
 20
182.5
 11
-191.732
 21
182.749
  0
LINE
  8
0
 10
-191.732
 20
182.749
 11
-191.679
 21
182.993
  0
LINE
  8
0
 10
-191.679
 20
182.993
 11
-191.592
 21
183.227
  0
LINE
  8
0
 10
-191.592
 20
183.227
 11
-191.472
 21
183.446
  0
LINE
  8
0
 10
-191.472
 20
183.446
 11
-191.323
 21
183.646
  0
LINE
  8
0
 10
-191.323
 20
183.646
 11
-191.146
 21
183.823
  0
LINE
  8
0
 10
-191.146
 20
183.823
 11
-190.946
 21
183.972
  0
LINE
  8
0
 10
-190.946
 20
183.972
 11
-190.727
 21
184.092
  0
LINE
  8
0
 10
-190.727
 20
184.092
 11
-190.493
 21
184.179
  0
LINE
  8
0
 10
-190.493
 20
184.179
 11
-190.249
 21
184.232
  0
LINE
  8
0
 10
-190.249
 20
184.232
 11
-190
 21
184.25
  0
LINE
  8
0
 10
-190
 20
184.25
 11
-189.751
 21
184.232
  0
LINE
  8
0
 10
-189.751
 20
184.232
 11
-189.507
 21
184.179
  0
LINE
  8
0
 10
-189.507
 20
184.179
 11
-189.273
 21
184.092
  0
LINE
  8
0
 10
-189.273
 20
184.092
 11
-189.054
 21
183.972
  0
LINE
  8
0
 10
-189.054
 20
183.972
 11
-188.854
 21
183.823
  0
LINE
  8
0
 10
-188.854
 20
183.823
 11
-188.677
 21
183.646
  0
LINE
  8
0
 10
-188.677
 20
183.646
 11
-188.528
 21
183.446
  0
LINE
  8
0
 10
-188.528
 20
183.446
 11
-188.408
 21
183.227
  0
LINE
  8
0
 10
-188.408
 20
183.227
 11
-188.321
 21
182.993
  0
LINE
  8
0
 10
-188.321
 20
182.993
 11
-188.268
 21
182.749
  0
LINE
  8
0
 10
-188.268
 20
182.749
 11
-188.25
 21
182.5
  0
LINE
  8
0
 10
-188.25
 20
182.5
 11
-188.25
 21
70.8333
  0
LINE
  8
0
 10
-188.25
 20
70.8333
 11
-188.268
 21
70.5843
  0
LINE
  8
0
 10
-188.268
 20
70.5843
 11
-188.321
 21
70.3403
  0
LINE
  8
0
 10
-188.321
 20
70.3403
 11
-188.408
 21
70.1064
  0
LINE
  8
0
 10
-188.408
 20
70.1064
 11
-188.528
 21
69.8872
  0
LINE
  8
0
 10
-188.528
 20
69.8872
 11
-188.677
 21
69.6873
  0
LINE
  8
0
 10
-188.677
 20
69.6873
 11
-188.854
 21
69.5108
  0
LINE
  8
0
 10
-188.854
 20
69.5108
 11
-189.054
 21
69.3611
  0
LINE
  8
0
 10
-189.054
 20
69.3611
 11
-189.273
 21
69.2415
  0
LINE
  8
0
 10
-189.273
 20
69.2415
 11
-189.507
 21
69.1542
  0
LINE
  8
0
 10
-189.507
 20
69.1542
 11
-189.751
 21
69.1011
  0
LINE
  8
0
 10
-189.751
 20
69.1011
 11
-190
 21
69.0833
  0
LINE
  8
0
 10
-190
 20
69.0833
 11
-190.249
 21
69.1011
  0
LINE
  8
0
 10
189.751
 20
69.1011
 11
189.507
 21
69.1542
  0
LINE
  8
0
 10
189.507
 20
69.1542
 11
189.273
 21
69.2415
  0
LINE
  8
0
 10
189.273
 20
69.2415
 11
189.054
 21
69.3611
  0
LINE
  8
0
 10
189.054
 20
69.3611
 11
188.854
 21
69.5108
  0
LINE
  8
0
 10
188.854
 20
69.5108
 11
188.677
 21
69.6873
  0
LINE
  8
0
 10
188.677
 20
69.6873
 11
188.528
 21
69.8872
  0
LINE
  8
0
 10
188.528
 20
69.8872
 11
188.408
 21
70.1064
  0
LINE
  8
0
 10
188.408
 20
70.1064
 11
188.321
 21
70.3403
  0
LINE
  8
0
 10
188.321
 20
70.3403
 11
188.268
 21
70.5843
  0
LINE
  8
0
 10
188.268
 20
70.5843
 11
188.25
 21
70.8333
  0
LINE
  8
0
 10
188.25
 20
70.8333
 11
188.25
 21
182.5
  0
LINE
  8
0
 10
188.25
 20
182.5
 11
188.268
 21
182.749
  0
LINE
  8
0
 10
188.268
 20
182.749
 11
188.321
 21
182.993
  0
LINE
  8
0
 10
188.321
 20
182.993
 11
188.408
 21
183.227
  0
LINE
  8
0
 10
188.408
 20
183.227
 11
188.528
 21
183.446
  0
LINE
  8
0
 10
188.528
 20
183.446
 11
188.677
 21
183.646
  0
LINE
  8
0
 10
188.677
 20
183.646
 11
188.854
 21
183.823
  0
LINE
  8
0
 10
188.854
 20
183.823
 11
189.054
 21
183.972
  0
LINE
  8
0
 10
189.054
 20
183.972
 11
189.273
 21
184.092
  0
LINE
  8
0
 10
189.273
 20
184.092
 11
189.507
 21
184.179
  0
LINE
  8
0
 10
189.507
 20
184.179
 11
189.751
 21
184.232
  0
LINE
  8
0
 10
189.751
 20
184.232
 11
190
 21
184.25
  0
LINE
  8
0
 10
190
 20
184.25
 11
190.249
 21
184.232
  0
LINE
  8
0
 10
190.249
 20
184.232
 11
190.493
 21
184.179
  0
LINE
  8
0
 10
190.493
 20
184.179
 11
190.727
 21
184.092
  0
LINE
  8
0
 10
190.727
 20
184.092
 11
190.946
 21
183.972
  0
LINE
  8
0
 10
190.946
 20
183.972
 11
191.146
 21
183.823
  0
LINE
  8
0
 10
191.146
 20
183.823
 11
191.323
 21
183.646
  0
LINE
  8
0
 10
191.323
 20
183.646
 11
191.472
 21
183.446
  0
LINE
  8
0
 10
191.472
 20
183.446
 11
191.592
 21
183.227
  0
LINE
  8
0
 10
191.592
 20
183.227
 11
191.679
 21
182.993
  0
LINE
  8
0
 10
191.679
 20
182.993
 11
191.732
 21
182.749
  0
LINE
  8
0
 10
191.732
 20
182.749
 11
191.75
 21
182.5
  0
LINE
  8
0
 10
191.75
 20
182.5
 11
191.75
 21
70.8333
  0
LINE
  8
0
 10
191.75
 20
70.8333
 11
191.732
 21
70.5843
  0
LINE
  8
0
 10
191.732
 20
70.5843
 11
191.679
 21
70.3403
  0
LINE
  8
0
 10
191.679
 20
70.3403
 11
191.592
 21
70.1064
  0
LINE
  8
0
 10
191.592
 20
70.1064
 11
191.472
 21
69.8872
  0
LINE
  8
0
 10
191.472
 20
69.8872
 11
191.323
 21
69.6873
  0
LINE
  8
0
 10
191.323
 20
69.6873
 11
191.146
 21
69.5108
  0
LINE
  8
0
 10
191.146
 20
69.5108
 11
190.946
 21
69.3611
  0
LINE
  8
0
 10
190.946
 20
69.3611
 11
190.727
 21
69.2415
  0
LINE
  8
0
 10
190.727
 20
69.2415
 11
190.493
 21
69.1542
  0
LINE
  8
0
 10
190.493
 20
69.1542
 11
190.249
 21
69.1011
  0
LINE
  8
0
 10
190.249
 20
69.1011
 11
190
 21
69.0833
  0
LINE
  8
0
 10
190
 20
69.0833
 11
189.751
 21
69.1011
  0
LINE
  8
0
 10
-252.305
 20
61.0825
 11
-252.541
 21
61.1546
  0
LINE
  8
0
 10
-252.541
 20
61.1546
 11
-252.76
 21
61.2653
  0
LINE
  8
0
 10
-252.76
 20
61.2653
 11
-252.958
 21
61.4115
  0
LINE
  8
0
 10
-252.958
 20
61.4115
 11
-253.128
 21
61.5891
  0
LINE
  8
0
 10
-253.128
 20
61.5891
 11
-253.266
 21
61.7928
  0
LINE
  8
0
 10
-253.266
 20
61.7928
 11
-253.367
 21
62.0169
  0
LINE
  8
0
 10
-253.367
 20
62.0169
 11
-253.429
 21
62.2549
  0
LINE
  8
0
 10
-253.429
 20
62.2549
 11
-253.45
 21
62.5
  0
LINE
  8
0
 10
-253.45
 20
62.5
 11
-253.429
 21
62.745
  0
LINE
  8
0
 10
-253.429
 20
62.745
 11
-253.367
 21
62.983
  0
LINE
  8
0
 10
-253.367
 20
62.983
 11
-253.266
 21
63.2072
  0
LINE
  8
0
 10
-253.266
 20
63.2072
 11
-253.128
 21
63.4109
  0
LINE
  8
0
 10
-253.128
 20
63.4109
 11
-252.958
 21
63.5885
  0
LINE
  8
0
 10
-252.958
 20
63.5885
 11
-252.76
 21
63.7347
  0
LINE
  8
0
 10
-252.76
 20
63.7347
 11
-252.541
 21
63.8454
  0
LINE
  8
0
 10
-252.541
 20
63.8454
 11
-252.305
 21
63.9174
  0
LINE
  8
0
 10
-252.305
 20
63.9174
 11
-252.062
 21
63.9487
  0
LINE
  8
0
 10
-252.062
 20
63.9487
 11
-251.816
 21
63.9382
  0
LINE
  8
0
 10
-251.816
 20
63.9382
 11
-251.575
 21
63.8864
  0
LINE
  8
0
 10
-251.575
 20
63.8864
 11
-251.347
 21
63.7947
  0
LINE
  8
0
 10
-251.347
 20
63.7947
 11
-251.138
 21
63.6658
  0
LINE
  8
0
 10
-251.138
 20
63.6658
 11
-250.953
 21
63.5033
  0
LINE
  8
0
 10
-250.953
 20
63.5033
 11
-250.799
 21
63.312
  0
LINE
  8
0
 10
-250.799
 20
63.312
 11
-250.679
 21
63.0972
  0
LINE
  8
0
 10
-250.679
 20
63.0972
 11
-250.597
 21
62.8654
  0
LINE
  8
0
 10
-250.597
 20
62.8654
 11
-250.555
 21
62.623
  0
LINE
  8
0
 10
-250.555
 20
62.623
 11
-250.555
 21
62.377
  0
LINE
  8
0
 10
-250.555
 20
62.377
 11
-250.597
 21
62.1346
  0
LINE
  8
0
 10
-250.597
 20
62.1346
 11
-250.679
 21
61.9027
  0
LINE
  8
0
 10
-250.679
 20
61.9027
 11
-250.799
 21
61.688
  0
LINE
  8
0
 10
-250.799
 20
61.688
 11
-250.953
 21
61.4967
  0
LINE
  8
0
 10
-250.953
 20
61.4967
 11
-251.138
 21
61.3342
  0
LINE
  8
0
 10
-251.138
 20
61.3342
 11
-251.347
 21
61.2052
  0
LINE
  8
0
 10
-251.347
 20
61.2052
 11
-251.575
 21
61.1136
  0
LINE
  8
0
 10
-251.575
 20
61.1136
 11
-251.816
 21
61.0617
  0
LINE
  8
0
 10
-251.816
 20
61.0617
 11
-252.062
 21
61.0513
  0
LINE
  8
0
 10
-252.062
 20
61.0513
 11
-252.305
 21
61.0825
  0
LINE
  8
0
 10
251.816
 20
61.0617
 11
251.575
 21
61.1136
  0
LINE
  8
0
 10
251.575
 20
61.1136
 11
251.347
 21
61.2052
  0
LINE
  8
0
 10
251.347
 20
61.2052
 11
251.138
 21
61.3342
  0
LINE
  8
0
 10
251.138
 20
61.3342
 11
250.953
 21
61.4967
  0
LINE
  8
0
 10
250.953
 20
61.4967
 11
250.799
 21
61.688
  0
LINE
  8
0
 10
250.799
 20
61.688
 11
250.679
 21
61.9027
  0
LINE
  8
0
 10
250.679
 20
61.9027
 11
250.597
 21
62.1346
  0
LINE
  8
0
 10
250.597
 20
62.1346
 11
250.555
 21
62.377
  0
LINE
  8
0
 10
250.555
 20
62.377
 11
250.555
 21
62.623
  0
LINE
  8
0
 10
250.555
 20
62.623
 11
250.597
 21
62.8654
  0
LINE
  8
0
 10
250.597
 20
62.8654
 11
250.679
 21
63.0972
  0
LINE
  8
0
 10
250.679
 20
63.0972
 11
250.799
 21
63.312
  0
LINE
  8
0
 10
250.799
 20
63.312
 11
250.953
 21
63.5033
  0
LINE
  8
0
 10
250.953
 20
63.5033
 11
251.138
 21
63.6658
  0
LINE
  8
0
 10
251.138
 20
63.6658
 11
251.347
 21
63.7947
  0
LINE
  8
0
 10
251.347
 20
63.7947
 11
251.575
 21
63.8864
  0
LINE
  8
0
 10
251.575
 20
63.8864
 11
251.816
 21
63.9382
  0
LINE
  8
0
 10
251.816
 20
63.9382
 11
252.062
 21
63.9487
  0
LINE
  8
0
 10
252.062
 20
63.9487
 11
252.305
 21
63.9174
  0
LINE
  8
0
 10
252.305
 20
63.9174
 11
252.541
 21
63.8454
  0
LINE
  8
0
 10
252.541
 20
63.8454
 11
252.76
 21
63.7347
  0
LINE
  8
0
 10
252.76
 20
63.7347
 11
252.958
 21
63.5885
  0
LINE
  8
0
 10
252.958
 20
63.5885
 11
253.128
 21
63.4109
  0
LINE
  8
0
 10
253.128
 20
63.4109
 11
253.266
 21
63.2072
  0
LINE
  8
0
 10
253.266
 20
63.2072
 11
253.367
 21
62.983
  0
LINE
  8
0
 10
253.367
 20
62.983
 11
253.429
 21
62.745
  0
LINE
  8
0
 10
253.429
 20
62.745
 11
253.45
 21
62.5
  0
LINE
  8
0
 10
253.45
 20
62.5
 11
253.429
 21
62.2549
  0
LINE
  8
0
 10
253.429
 20
62.2549
 11
253.367
 21
62.0169
  0
LINE
  8
0
 10
253.367
 20
62.0169
 11
253.266
 21
61.7928
  0
LINE
  8
0
 10
253.266
 20
61.7928
 11
253.128
 21
61.5891
  0
LINE
  8
0
 10
253.128
 20
61.5891
 11
252.958
 21
61.4115
  0
LINE
  8
0
 10
252.958
 20
61.4115
 11
252.76
 21
61.2653
  0
LINE
  8
0
 10
252.76
 20
61.2653
 11
252.541
 21
61.1546
  0
LINE
  8
0
 10
252.541
 20
61.1546
 11
252.305
 21
61.0825
  0
LINE
  8
0
 10
252.305
 20
61.0825
 11
252.062
 21
61.0513
  0
LINE
  8
0
 10
252.062
 20
61.0513
 11
251.816
 21
61.0617
  0
LINE
  8
0
 10
-190.249
 20
-52.5655
 11
-190.493
 21
-52.5124
  0
LINE
  8
0
 10
-190.493
 20
-52.5124
 11
-190.727
 21
-52.4252
  0
LINE
  8
0
 10
-190.727
 20
-52.4252
 11
-190.946
 21
-52.3055
  0
LINE
  8
0
 10
-190.946
 20
-52.3055
 11
-191.146
 21
-52.1559
  0
LINE
  8
0
 10
-191.146
 20
-52.1559
 11
-191.323
 21
-51.9793
  0
LINE
  8
0
 10
-191.323
 20
-51.9793
 11
-191.472
 21
-51.7794
  0
LINE
  8
0
 10
-191.472
 20
-51.7794
 11
-191.592
 21
-51.5603
  0
LINE
  8
0
 10
-191.592
 20
-51.5603
 11
-191.679
 21
-51.3264
  0
LINE
  8
0
 10
-191.679
 20
-51.3264
 11
-191.732
 21
-51.0824
  0
LINE
  8
0
 10
-191.732
 20
-51.0824
 11
-191.75
 21
-50.8333
  0
LINE
  8
0
 10
-191.75
 20
-50.8333
 11
-191.75
 21
60.8333
  0
LINE
  8
0
 10
-191.75
 20
60.8333
 11
-191.732
 21
61.0824
  0
LINE
  8
0
 10
-191.732
 20
61.0824
 11
-191.679
 21
61.3264
  0
LINE
  8
0
 10
-191.679
 20
61.3264
 11
-191.592
 21
61.5603
  0
LINE
  8
0
 10
-191.592
 20
61.5603
 11
-191.472
 21
61.7794
  0
LINE
  8
0
 10
-191.472
 20
61.7794
 11
-191.323
 21
61.9793
  0
LINE
  8
0
 10
-191.323
 20
61.9793
 11
-191.146
 21
62.1559
  0
LINE
  8
0
 10
-191.146
 20
62.1559
 11
-190.946
 21
62.3055
  0
LINE
  8
0
 10
-190.946
 20
62.3055
 11
-190.727
 21
62.4252
  0
LINE
  8
0
 10
-190.727
 20
62.4252
 11
-190.493
 21
62.5124
  0
LINE
  8
0
 10
-190.493
 20
62.5124
 11
-190.249
 21
62.5655
  0
LINE
  8
0
 10
-190.249
 20
62.5655
 11
-190
 21
62.5833
  0
LINE
  8
0
 10
-190
 20
62.5833
 11
-189.751
 21
62.5655
  0
LINE
  8
0
 10
-189.751
 20
62.5655
 11
-189.507
 21
62.5124
  0
LINE
  8
0
 10
-189.507
 20
62.5124
 11
-189.273
 21
62.4252
  0
LINE
  8
0
 10
-189.273
 20
62.4252
 11
-189.054
 21
62.3055
  0
LINE
  8
0
 10
-189.054
 20
62.3055
 11
-188.854
 21
62.1559
  0
LINE
  8
0
 10
-188.854
 20
62.1559
 11
-188.677
 21
61.9793
  0
LINE
  8
0
 10
-188.677
 20
61.9793
 11
-188.528
 21
61.7794
  0
LINE
  8
0
 10
-188.528
 20
61.7794
 11
-188.408
 21
61.5603
  0
LINE
  8
0
 10
-188.408
 20
61.5603
 11
-188.321
 21
61.3264
  0
LINE
  8
0
 10
-188.321
 20
61.3264
 11
-188.268
 21
61.0824
  0
LINE
  8
0
 10
-188.268
 20
61.0824
 11
-188.25
 21
60.8333
  0
LINE
  8
0
 10
-188.25
 20
60.8333
 11
-188.25
 21
-50.8333
  0
LINE
  8
0
 10
-188.25
 20
-50.8333
 11
-188.268
 21
-51.0824
  0
LINE
  8
0
 10
-188.268
 20
-51.0824
 11
-188.321
 21
-51.3264
  0
LINE
  8
0
 10
-188.321
 20
-51.3264
 11
-188.408
 21
-51.5603
  0
LINE
  8
0
 10
-188.408
 20
-51.5603
 11
-188.528
 21
-51.7794
  0
LINE
  8
0
 10
-188.528
 20
-51.7794
 11
-188.677
 21
-51.9793
  0
LINE
  8
0
 10
-188.677
 20
-51.9793
 11
-188.854
 21
-52.1559
  0
LINE
  8
0
 10
-188.854
 20
-52.1559
 11
-189.054
 21
-52.3055
  0
LINE
  8
0
 10
-189.054
 20
-52.3055
 11
-189.273
 21
-52.4252
  0
LINE
  8
0
 10
-189.273
 20
-52.4252
 11
-189.507
 21
-52.5124
  0
LINE
  8
0
 10
-189.507
 20
-52.5124
 11
-189.751
 21
-52.5655
  0
LINE
  8
0
 10
-189.751
 20
-52.5655
 11
-190
 21
-52.5833
  0
LINE
  8
0
 10
-190
 20
-52.5833
 11
-190.249
 21
-52.5655
  0
LINE
  8
0
 10
189.751
 20
-52.5655
 11
189.507
 21
-52.5124
  0
LINE
  8
0
 10
189.507
 20
-52.5124
 11
189.273
 21
-52.4252
  0
LINE
  8
0
 10
189.273
 20
-52.4252
 11
189.054
 21
-52.3055
  0
LINE
  8
0
 10
189.054
 20
-52.3055
 11
188.854
 21
-52.1559
  0
LINE
  8
0
 10
188.854
 20
-52.1559
 11
188.677
 21
-51.9793
  0
LINE
  8
0
 10
188.677
 20
-51.9793
 11
188.528
 21
-51.7794
  0
LINE
  8
0
 10
188.528
 20
-51.7794
 11
188.408
 21
-51.5603
  0
LINE
  8
0
 10
188.408
 20
-51.5603
 11
188.321
 21
-51.3264
  0
LINE
  8
0
 10
188.321
 20
-51.3264
 11
188.268
 21
-51.0824
  0
LINE
  8
0
 10
188.268
 20
-51.0824
 11
188.25
 21
-50.8333
  0
LINE
  8
0
 10
188.25
 20
-50.8333
 11
188.25
 21
60.8333
  0
LINE
  8
0
 10
188.25
 20
60.8333
 11
188.268
 21
61.0824
  0
LINE
  8
0
 10
188.268
 20
61.0824
 11
188.321
 21
61.3264
  0
LINE
  8
0
 10
188.321
 20
61.3264
 11
188.408
 21
61.5603
  0
LINE
  8
0
 10
188.408
 20
61.5603
 11
188.528
 21
61.7794
  0
LINE
  8
0
 10
188.528
 20
61.7794
 11
188.677
 21
61.9793
  0
LINE
  8
0
 10
188.677
 20
61.9793
 11
188.854
 21
62.1559
  0
LINE
  8
0
 10
188.854
 20
62.1559
 11
189.054
 21
62.3055
  0
LINE
  8
0
 10
189.054
 20
62.3055
 11
189.273
 21
62.4252
  0
LINE
  8
0
 10
189.273
 20
62.4252
 11
189.507
 21
62.5124
  0
LINE
  8
0
 10
189.507
 20
62.5124
 11
189.751
 21
62.5655
  0
LINE
  8
0
 10
189.751
 20
62.5655
 11
190
 21
62.5833
  0
LINE
  8
0
 10
190
 20
62.5833
 11
190.249
 21
62.5655
  0
LINE
  8
0
 10
190.249
 20
62.5655
 11
190.493
 21
62.5124
  0
LINE
  8
0
 10
190.493
 20
62.5124
 11
190.727
 21
62.4252
  0
LINE
  8
0
 10
190.727
 20
62.4252
 11
190.946
 21
62.3055
  0
LINE
  8
0
 10
190.946
 20
62.3055
 11
191.146
 21
62.1559
  0
LINE
  8
0
 10
191.146
 20
62.1559
 11
191.323
 21
61.9793
  0
LINE
  8
0
 10
191.323
 20
61.9793
 11
191.472
 21
61.7794
  0
LINE
  8
0
 10
191.472
 20
61.7794
 11
191.592
 21
61.5603
  0
LINE
  8
0
 10
191.592
 20
61.5603
 11
191.679
 21
61.3264
  0
LINE
  8
0
 10
191.679
 20
61.3264
 11
191.732
 21
61.0824
  0
LINE
  8
0
 10
191.732
 20
61.0824
 11
191.75
 21
60.8333
  0
LINE
  8
0
 10
191.75
 20
60.8333
 11
191.75
 21
-50.8333
  0
LINE
  8
0
 10
191.75
 20
-50.8333
 11
191.732
 21
-51.0824
  0
LINE
  8
0
 10
191.732
 20
-51.0824
 11
191.679
 21
-51.3264
  0
LINE
  8
0
 10
191.679
 20
-51.3264
 11
191.592
 21
-51.5603
  0
LINE
  8
0
 10
191.592
 20
-51.5603
 11
191.472
 21
-51.7794
  0
LINE
  8
0
 10
191.472
 20
-51.7794
 11
191.323
 21
-51.9793
  0
LINE
  8
0
 10
191.323
 20
-51.9793
 11
191.146
 21
-52.1559
  0
LINE
  8
0
 10
191.146
 20
-52.1559
 11
190.946
 21
-52.3055
  0
LINE
  8
0
 10
190.946
 20
-52.3055
 11
190.727
 21
-52.4252
  0
LINE
  8
0
 10
190.727
 20
-52.4252
 11
190.493
 21
-52.5124
  0
LINE
  8
0
 10
190.493
 20
-52.5124
 11
190.249
 21
-52.5655
  0
LINE
  8
0
 10
190.249
 20
-52.5655
 11
190
 21
-52.5833
  0
LINE
  8
0
 10
190
 20
-52.5833
 11
189.751
 21
-52.5655
  0
LINE
  8
0
 10
251.749
 20
40.1131
 11
251.501
 21
40.1524
  0
LINE
  8
0
 10
251.501
 20
40.1524
 11
251.258
 21
40.2175
  0
LINE
  8
0
 10
251.258
 20
40.2175
 11
251.024
 21
40.3075
  0
LINE
  8
0
 10
251.024
 20
40.3075
 11
250.8
 21
40.4215
  0
LINE
  8
0
 10
250.8
 20
40.4215
 11
250.589
 21
40.5583
  0
LINE
  8
0
 10
250.589
 20
40.5583
 11
250.394
 21
40.7164
  0
LINE
  8
0
 10
250.394
 20
40.7164
 11
250.216
 21
40.8941
  0
LINE
  8
0
 10
250.216
 20
40.8941
 11
250.058
 21
41.0893
  0
LINE
  8
0
 10
250.058
 20
41.0893
 11
249.922
 21
41.3
  0
LINE
  8
0
 10
249.922
 20
41.3
 11
249.807
 21
41.5238
  0
LINE
  8
0
 10
249.807
 20
41.5238
 11
249.717
 21
41.7583
  0
LINE
  8
0
 10
249.717
 20
41.7583
 11
249.652
 21
42.001
  0
LINE
  8
0
 10
249.652
 20
42.001
 11
249.613
 21
42.2491
  0
LINE
  8
0
 10
249.613
 20
42.2491
 11
249.6
 21
42.5
  0
LINE
  8
0
 10
249.6
 20
42.5
 11
249.613
 21
42.7509
  0
LINE
  8
0
 10
249.613
 20
42.7509
 11
249.652
 21
42.999
  0
LINE
  8
0
 10
249.652
 20
42.999
 11
249.717
 21
43.2416
  0
LINE
  8
0
 10
249.717
 20
43.2416
 11
249.807
 21
43.4762
  0
LINE
  8
0
 10
249.807
 20
43.4762
 11
249.922
 21
43.7
  0
LINE
  8
0
 10
249.922
 20
43.7
 11
250.058
 21
43.9107
  0
LINE
  8
0
 10
250.058
 20
43.9107
 11
250.216
 21
44.1059
  0
LINE
  8
0
 10
250.216
 20
44.1059
 11
250.394
 21
44.2835
  0
LINE
  8
0
 10
250.394
 20
44.2835
 11
250.589
 21
44.4416
  0
LINE
  8
0
 10
250.589
 20
44.4416
 11
250.8
 21
44.5785
  0
LINE
  8
0
 10
250.8
 20
44.5785
 11
251.024
 21
44.6925
  0
LINE
  8
0
 10
251.024
 20
44.6925
 11
251.258
 21
44.7825
  0
LINE
  8
0
 10
251.258
 20
44.7825
 11
251.501
 21
44.8475
  0
LINE
  8
0
 10
251.501
 20
44.8475
 11
251.749
 21
44.8868
  0
LINE
  8
0
 10
251.749
 20
44.8868
 11
252
 21
44.9
  0
LINE
  8
0
 10
252
 20
44.9
 11
252.251
 21
44.8868
  0
LINE
  8
0
 10
252.251
 20
44.8868
 11
252.499
 21
44.8475
  0
LINE
  8
0
 10
252.499
 20
44.8475
 11
252.742
 21
44.7825
  0
LINE
  8
0
 10
252.742
 20
44.7825
 11
252.976
 21
44.6925
  0
LINE
  8
0
 10
252.976
 20
44.6925
 11
253.2
 21
44.5785
  0
LINE
  8
0
 10
253.2
 20
44.5785
 11
253.411
 21
44.4416
  0
LINE
  8
0
 10
253.411
 20
44.4416
 11
253.606
 21
44.2835
  0
LINE
  8
0
 10
253.606
 20
44.2835
 11
253.784
 21
44.1059
  0
LINE
  8
0
 10
253.784
 20
44.1059
 11
253.942
 21
43.9107
  0
LINE
  8
0
 10
253.942
 20
43.9107
 11
254.078
 21
43.7
  0
LINE
  8
0
 10
254.078
 20
43.7
 11
254.193
 21
43.4762
  0
LINE
  8
0
 10
254.193
 20
43.4762
 11
254.283
 21
43.2416
  0
LINE
  8
0
 10
254.283
 20
43.2416
 11
254.348
 21
42.999
  0
LINE
  8
0
 10
254.348
 20
42.999
 11
254.387
 21
42.7509
  0
LINE
  8
0
 10
254.387
 20
42.7509
 11
254.4
 21
42.5
  0
LINE
  8
0
 10
254.4
 20
42.5
 11
254.387
 21
42.2491
  0
LINE
  8
0
 10
254.387
 20
42.2491
 11
254.348
 21
42.001
  0
LINE
  8
0
 10
254.348
 20
42.001
 11
254.283
 21
41.7583
  0
LINE
  8
0
 10
254.283
 20
41.7583
 11
254.193
 21
41.5238
  0
LINE
  8
0
 10
254.193
 20
41.5238
 11
254.078
 21
41.3
  0
LINE
  8
0
 10
254.078
 20
41.3
 11
253.942
 21
41.0893
  0
LINE
  8
0
 10
253.942
 20
41.0893
 11
253.784
 21
40.8941
  0
LINE
  8
0
 10
253.784
 20
40.8941
 11
253.606
 21
40.7164
  0
LINE
  8
0
 10
253.606
 20
40.7164
 11
253.411
 21
40.5583
  0
LINE
  8
0
 10
253.411
 20
40.5583
 11
253.2
 21
40.4215
  0
LINE
  8
0
 10
253.2
 20
40.4215
 11
252.976
 21
40.3075
  0
LINE
  8
0
 10
252.976
 20
40.3075
 11
252.742
 21
40.2175
  0
LINE
  8
0
 10
252.742
 20
40.2175
 11
252.499
 21
40.1524
  0
LINE
  8
0
 10
252.499
 20
40.1524
 11
252.251
 21
40.1131
  0
LINE
  8
0
 10
252.251
 20
40.1131
 11
252
 21
40.1
  0
LINE
  8
0
 10
252
 20
40.1
 11
251.749
 21
40.1131
  0
LINE
  8
0
 10
-252.251
 20
40.1131
 11
-252.499
 21
40.1524
  0
LINE
  8
0
 10
-252.499
 20
40.1524
 11
-252.742
 21
40.2175
  0
LINE
  8
0
 10
-252.742
 20
40.2175
 11
-252.976
 21
40.3075
  0
LINE
  8
0
 10
-252.976
 20
40.3075
 11
-253.2
 21
40.4215
  0
LINE
  8
0
 10
-253.2
 20
40.4215
 11
-253.411
 21
40.5583
  0
LINE
  8
0
 10
-253.411
 20
40.5583
 11
-253.606
 21
40.7164
  0
LINE
  8
0
 10
-253.606
 20
40.7164
 11
-253.784
 21
40.8941
  0
LINE
  8
0
 10
-253.784
 20
40.8941
 11
-253.942
 21
41.0893
  0
LINE
  8
0
 10
-253.942
 20
41.0893
 11
-254.078
 21
41.3
  0
LINE
  8
0
 10
-254.078
 20
41.3
 11
-254.193
 21
41.5238
  0
LINE
  8
0
 10
-254.193
 20
41.5238
 11
-254.283
 21
41.7583
  0
LINE
  8
0
 10
-254.283
 20
41.7583
 11
-254.348
 21
42.001
  0
LINE
  8
0
 10
-254.348
 20
42.001
 11
-254.387
 21
42.2491
  0
LINE
  8
0
 10
-254.387
 20
42.2491
 11
-254.4
 21
42.5
  0
LINE
  8
0
 10
-254.4
 20
42.5
 11
-254.387
 21
42.7509
  0
LINE
  8
0
 10
-254.387
 20
42.7509
 11
-254.348
 21
42.999
  0
LINE
  8
0
 10
-254.348
 20
42.999
 11
-254.283
 21
43.2416
  0
LINE
  8
0
 10
-254.283
 20
43.2416
 11
-254.193
 21
43.4762
  0
LINE
  8
0
 10
-254.193
 20
43.4762
 11
-254.078
 21
43.7
  0
LINE
  8
0
 10
-254.078
 20
43.7
 11
-253.942
 21
43.9107
  0
LINE
  8
0
 10
-253.942
 20
43.9107
 11
-253.784
 21
44.1059
  0
LINE
  8
0
 10
-253.784
 20
44.1059
 11
-253.606
 21
44.2835
  0
LINE
  8
0
 10
-253.606
 20
44.2835
 11
-253.411
 21
44.4416
  0
LINE
  8
0
 10
-253.411
 20
44.4416
 11
-253.2
 21
44.5785
  0
LINE
  8
0
 10
-253.2
 20
44.5785
 11
-252.976
 21
44.6925
  0
LINE
  8
0
 10
-252.976
 20
44.6925
 11
-252.742
 21
44.7825
  0
LINE
  8
0
 10
-252.742
 20
44.7825
 11
-252.499
 21
44.8475
  0
LINE
  8
0
 10
-252.499
 20
44.8475
 11
-252.251
 21
44.8868
  0
LINE
  8
0
 10
-252.251
 20
44.8868
 11
-252
 21
44.9
  0
LINE
  8
0
 10
-252
 20
44.9
 11
-251.749
 21
44.8868
  0
LINE
  8
0
 10
-251.749
 20
44.8868
 11
-251.501
 21
44.8475
  0
LINE
  8
0
 10
-251.501
 20
44.8475
 11
-251.258
 21
44.7825
  0
LINE
  8
0
 10
-251.258
 20
44.7825
 11
-251.024
 21
44.6925
  0
LINE
  8
0
 10
-251.024
 20
44.6925
 11
-250.8
 21
44.5785
  0
LINE
  8
0
 10
-250.8
 20
44.5785
 11
-250.589
 21
44.4416
  0
LINE
  8
0
 10
-250.589
 20
44.4416
 11
-250.394
 21
44.2835
  0
LINE
  8
0
 10
-250.394
 20
44.2835
 11
-250.216
 21
44.1059
  0
LINE
  8
0
 10
-250.216
 20
44.1059
 11
-250.058
 21
43.9107
  0
LINE
  8
0
 10
-250.058
 20
43.9107
 11
-249.922
 21
43.7
  0
LINE
  8
0
 10
-249.922
 20
43.7
 11
-249.807
 21
43.4762
  0
LINE
  8
0
 10
-249.807
 20
43.4762
 11
-249.717
 21
43.2416
  0
LINE
  8
0
 10
-249.717
 20
43.2416
 11
-249.652
 21
42.999
  0
LINE
  8
0
 10
-249.652
 20
42.999
 11
-249.613
 21
42.7509
  0
LINE
  8
0
 10
-249.613
 20
42.7509
 11
-249.6
 21
42.5
  0
LINE
  8
0
 10
-249.6
 20
42.5
 11
-249.613
 21
42.2491
  0
LINE
  8
0
 10
-249.613
 20
42.2491
 11
-249.652
 21
42.001
  0
LINE
  8
0
 10
-249.652
 20
42.001
 11
-249.717
 21
41.7583
  0
LINE
  8
0
 10
-249.717
 20
41.7583
 11
-249.807
 21
41.5238
  0
LINE
  8
0
 10
-249.807
 20
41.5238
 11
-249.922
 21
41.3
  0
LINE
  8
0
 10
-249.922
 20
41.3
 11
-250.058
 21
41.0893
  0
LINE
  8
0
 10
-250.058
 20
41.0893
 11
-250.216
 21
40.8941
  0
LINE
  8
0
 10
-250.216
 20
40.8941
 11
-250.394
 21
40.7164
  0
LINE
  8
0
 10
-250.394
 20
40.7164
 11
-250.589
 21
40.5583
  0
LINE
  8
0
 10
-250.589
 20
40.5583
 11
-250.8
 21
40.4215
  0
LINE
  8
0
 10
-250.8
 20
40.4215
 11
-251.024
 21
40.3075
  0
LINE
  8
0
 10
-251.024
 20
40.3075
 11
-251.258
 21
40.2175
  0
LINE
  8
0
 10
-251.258
 20
40.2175
 11
-251.501
 21
40.1524
  0
LINE
  8
0
 10
-251.501
 20
40.1524
 11
-251.749
 21
40.1131
  0
LINE
  8
0
 10
-251.749
 20
40.1131
 11
-252
 21
40.1
  0
LINE
  8
0
 10
-252
 20
40.1
 11
-252.251
 21
40.1131
  0
LINE
  8
0
 10
251.603
 20
18.7208
 11
251.21
 21
18.783
  0
LINE
  8
0
 10
251.21
 20
18.783
 11
250.826
 21
18.886
  0
LINE
  8
0
 10
250.826
 20
18.886
 11
250.454
 21
19.0285
  0
LINE
  8
0
 10
250.454
 20
19.0285
 11
250.1
 21
19.2091
  0
LINE
  8
0
 10
250.1
 20
19.2091
 11
249.766
 21
19.4257
  0
LINE
  8
0
 10
249.766
 20
19.4257
 11
249.457
 21
19.676
  0
LINE
  8
0
 10
249.457
 20
19.676
 11
249.176
 21
19.9573
  0
LINE
  8
0
 10
249.176
 20
19.9573
 11
248.926
 21
20.2664
  0
LINE
  8
0
 10
248.926
 20
20.2664
 11
248.709
 21
20.6
  0
LINE
  8
0
 10
248.709
 20
20.6
 11
248.529
 21
20.9544
  0
LINE
  8
0
 10
248.529
 20
20.9544
 11
248.386
 21
21.3257
  0
LINE
  8
0
 10
248.386
 20
21.3257
 11
248.283
 21
21.7099
  0
LINE
  8
0
 10
248.283
 20
21.7099
 11
248.221
 21
22.1028
  0
LINE
  8
0
 10
248.221
 20
22.1028
 11
248.2
 21
22.5
  0
LINE
  8
0
 10
248.2
 20
22.5
 11
248.221
 21
22.8972
  0
LINE
  8
0
 10
248.221
 20
22.8972
 11
248.283
 21
23.2901
  0
LINE
  8
0
 10
248.283
 20
23.2901
 11
248.386
 21
23.6743
  0
LINE
  8
0
 10
248.386
 20
23.6743
 11
248.529
 21
24.0456
  0
LINE
  8
0
 10
248.529
 20
24.0456
 11
248.709
 21
24.4
  0
LINE
  8
0
 10
248.709
 20
24.4
 11
248.926
 21
24.7336
  0
LINE
  8
0
 10
248.926
 20
24.7336
 11
249.176
 21
25.0427
  0
LINE
  8
0
 10
249.176
 20
25.0427
 11
249.457
 21
25.3239
  0
LINE
  8
0
 10
249.457
 20
25.3239
 11
249.766
 21
25.5743
  0
LINE
  8
0
 10
249.766
 20
25.5743
 11
250.1
 21
25.7909
  0
LINE
  8
0
 10
250.1
 20
25.7909
 11
250.454
 21
25.9715
  0
LINE
  8
0
 10
250.454
 20
25.9715
 11
250.826
 21
26.114
  0
LINE
  8
0
 10
250.826
 20
26.114
 11
251.21
 21
26.2169
  0
LINE
  8
0
 10
251.21
 20
26.2169
 11
251.603
 21
26.2792
  0
LINE
  8
0
 10
251.603
 20
26.2792
 11
252
 21
26.3
  0
LINE
  8
0
 10
252
 20
26.3
 11
252.397
 21
26.2792
  0
LINE
  8
0
 10
252.397
 20
26.2792
 11
252.79
 21
26.2169
  0
LINE
  8
0
 10
252.79
 20
26.2169
 11
253.174
 21
26.114
  0
LINE
  8
0
 10
253.174
 20
26.114
 11
253.546
 21
25.9715
  0
LINE
  8
0
 10
253.546
 20
25.9715
 11
253.9
 21
25.7909
  0
LINE
  8
0
 10
253.9
 20
25.7909
 11
254.234
 21
25.5743
  0
LINE
  8
0
 10
254.234
 20
25.5743
 11
254.543
 21
25.3239
  0
LINE
  8
0
 10
254.543
 20
25.3239
 11
254.824
 21
25.0427
  0
LINE
  8
0
 10
254.824
 20
25.0427
 11
255.074
 21
24.7336
  0
LINE
  8
0
 10
255.074
 20
24.7336
 11
255.291
 21
24.4
  0
LINE
  8
0
 10
255.291
 20
24.4
 11
255.471
 21
24.0456
  0
LINE
  8
0
 10
255.471
 20
24.0456
 11
255.614
 21
23.6743
  0
LINE
  8
0
 10
255.614
 20
23.6743
 11
255.717
 21
23.2901
  0
LINE
  8
0
 10
255.717
 20
23.2901
 11
255.779
 21
22.8972
  0
LINE
  8
0
 10
255.779
 20
22.8972
 11
255.8
 21
22.5
  0
LINE
  8
0
 10
255.8
 20
22.5
 11
255.779
 21
22.1028
  0
LINE
  8
0
 10
255.779
 20
22.1028
 11
255.717
 21
21.7099
  0
LINE
  8
0
 10
255.717
 20
21.7099
 11
255.614
 21
21.3257
  0
LINE
  8
0
 10
255.614
 20
21.3257
 11
255.471
 21
20.9544
  0
LINE
  8
0
 10
255.471
 20
20.9544
 11
255.291
 21
20.6
  0
LINE
  8
0
 10
255.291
 20
20.6
 11
255.074
 21
20.2664
  0
LINE
  8
0
 10
255.074
 20
20.2664
 11
254.824
 21
19.9573
  0
LINE
  8
0
 10
254.824
 20
19.9573
 11
254.543
 21
19.676
  0
LINE
  8
0
 10
254.543
 20
19.676
 11
254.234
 21
19.4257
  0
LINE
  8
0
 10
254.234
 20
19.4257
 11
253.9
 21
19.2091
  0
LINE
  8
0
 10
253.9
 20
19.2091
 11
253.546
 21
19.0285
  0
LINE
  8
0
 10
253.546
 20
19.0285
 11
253.174
 21
18.886
  0
LINE
  8
0
 10
253.174
 20
18.886
 11
252.79
 21
18.783
  0
LINE
  8
0
 10
252.79
 20
18.783
 11
252.397
 21
18.7208
  0
LINE
  8
0
 10
252.397
 20
18.7208
 11
252
 21
18.7
  0
LINE
  8
0
 10
252
 20
18.7
 11
251.603
 21
18.7208
  0
LINE
  8
0
 10
-252.397
 20
18.7208
 11
-252.79
 21
18.783
  0
LINE
  8
0
 10
-252.79
 20
18.783
 11
-253.174
 21
18.886
  0
LINE
  8
0
 10
-253.174
 20
18.886
 11
-253.546
 21
19.0285
  0
LINE
  8
0
 10
-253.546
 20
19.0285
 11
-253.9
 21
19.2091
  0
LINE
  8
0
 10
-253.9
 20
19.2091
 11
-254.234
 21
19.4257
  0
LINE
  8
0
 10
-254.234
 20
19.4257
 11
-254.543
 21
19.676
  0
LINE
  8
0
 10
-254.543
 20
19.676
 11
-254.824
 21
19.9573
  0
LINE
  8
0
 10
-254.824
 20
19.9573
 11
-255.074
 21
20.2664
  0
LINE
  8
0
 10
-255.074
 20
20.2664
 11
-255.291
 21
20.6
  0
LINE
  8
0
 10
-255.291
 20
20.6
 11
-255.471
 21
20.9544
  0
LINE
  8
0
 10
-255.471
 20
20.9544
 11
-255.614
 21
21.3257
  0
LINE
  8
0
 10
-255.614
 20
21.3257
 11
-255.717
 21
21.7099
  0
LINE
  8
0
 10
-255.717
 20
21.7099
 11
-255.779
 21
22.1028
  0
LINE
  8
0
 10
-255.779
 20
22.1028
 11
-255.8
 21
22.5
  0
LINE
  8
0
 10
-255.8
 20
22.5
 11
-255.779
 21
22.8972
  0
LINE
  8
0
 10
-255.779
 20
22.8972
 11
-255.717
 21
23.2901
  0
LINE
  8
0
 10
-255.717
 20
23.2901
 11
-255.614
 21
23.6743
  0
LINE
  8
0
 10
-255.614
 20
23.6743
 11
-255.471
 21
24.0456
  0
LINE
  8
0
 10
-255.471
 20
24.0456
 11
-255.291
 21
24.4
  0
LINE
  8
0
 10
-255.291
 20
24.4
 11
-255.074
 21
24.7336
  0
LINE
  8
0
 10
-255.074
 20
24.7336
 11
-254.824
 21
25.0427
  0
LINE
  8
0
 10
-254.824
 20
25.0427
 11
-254.543
 21
25.3239
  0
LINE
  8
0
 10
-254.543
 20
25.3239
 11
-254.234
 21
25.5743
  0
LINE
  8
0
 10
-254.234
 20
25.5743
 11
-253.9
 21
25.7909
  0
LINE
  8
0
 10
-253.9
 20
25.7909
 11
-253.546
 21
25.9715
  0
LINE
  8
0
 10
-253.546
 20
25.9715
 11
-253.174
 21
26.114
  0
LINE
  8
0
 10
-253.174
 20
26.114
 11
-252.79
 21
26.2169
  0
LINE
  8
0
 10
-252.79
 20
26.2169
 11
-252.397
 21
26.2792
  0
LINE
  8
0
 10
-252.397
 20
26.2792
 11
-252
 21
26.3
  0
LINE
  8
0
 10
-252
 20
26.3
 11
-251.603
 21
26.2792
  0
LINE
  8
0
 10
-251.603
 20
26.2792
 11
-251.21
 21
26.2169
  0
LINE
  8
0
 10
-251.21
 20
26.2169
 11
-250.826
 21
26.114
  0
LINE
  8
0
 10
-250.826
 20
26.114
 11
-250.454
 21
25.9715
  0
LINE
  8
0
 10
-250.454
 20
25.9715
 11
-250.1
 21
25.7909
  0
LINE
  8
0
 10
-250.1
 20
25.7909
 11
-249.766
 21
25.5743
  0
LINE
  8
0
 10
-249.766
 20
25.5743
 11
-249.457
 21
25.3239
  0
LINE
  8
0
 10
-249.457
 20
25.3239
 11
-249.176
 21
25.0427
  0
LINE
  8
0
 10
-249.176
 20
25.0427
 11
-248.926
 21
24.7336
  0
LINE
  8
0
 10
-248.926
 20
24.7336
 11
-248.709
 21
24.4
  0
LINE
  8
0
 10
-248.709
 20
24.4
 11
-248.529
 21
24.0456
  0
LINE
  8
0
 10
-248.529
 20
24.0456
 11
-248.386
 21
23.6743
  0
LINE
  8
0
 10
-248.386
 20
23.6743
 11
-248.283
 21
23.2901
  0
LINE
  8
0
 10
-248.283
 20
23.2901
 11
-248.221
 21
22.8972
  0
LINE
  8
0
 10
-248.221
 20
22.8972
 11
-248.2
 21
22.5
  0
LINE
  8
0
 10
-248.2
 20
22.5
 11
-248.221
 21
22.1028
  0
LINE
  8
0
 10
-248.221
 20
22.1028
 11
-248.283
 21
21.7099
  0
LINE
  8
0
 10
-248.283
 20
21.7099
 11
-248.386
 21
21.3257
  0
LINE
  8
0
 10
-248.386
 20
21.3257
 11
-248.529
 21
20.9544
  0
LINE
  8
0
 10
-248.529
 20
20.9544
 11
-248.709
 21
20.6
  0
LINE
  8
0
 10
-248.709
 20
20.6
 11
-248.926
 21
20.2664
  0
LINE
  8
0
 10
-248.926
 20
20.2664
 11
-249.176
 21
19.9573
  0
LINE
  8
0
 10
-249.176
 20
19.9573
 11
-249.457
 21
19.676
  0
LINE
  8
0
 10
-249.457
 20
19.676
 11
-249.766
 21
19.4257
  0
LINE
  8
0
 10
-249.766
 20
19.4257
 11
-250.1
 21
19.2091
  0
LINE
  8
0
 10
-250.1
 20
19.2091
 11
-250.454
 21
19.0285
  0
LINE
  8
0
 10
-250.454
 20
19.0285
 11
-250.826
 21
18.886
  0
LINE
  8
0
 10
-250.826
 20
18.886
 11
-251.21
 21
18.783
  0
LINE
  8
0
 10
-251.21
 20
18.783
 11
-251.603
 21
18.7208
  0
LINE
  8
0
 10
-251.603
 20
18.7208
 11
-252
 21
18.7
  0
LINE
  8
0
 10
-252
 20
18.7
 11
-252.397
 21
18.7208
  0
LINE
  8
0
 10
251.603
 20
-26.2792
 11
251.21
 21
-26.2169
  0
LINE
  8
0
 10
251.21
 20
-26.2169
 11
250.826
 21
-26.114
  0
LINE
  8
0
 10
250.826
 20
-26.114
 11
250.454
 21
-25.9715
  0
LINE
  8
0
 10
250.454
 20
-25.9715
 11
250.1
 21
-25.7909
  0
LINE
  8
0
 10
250.1
 20
-25.7909
 11
249.766
 21
-25.5743
  0
LINE
  8
0
 10
249.766
 20
-25.5743
 11
249.457
 21
-25.3239
  0
LINE
  8
0
 10
249.457
 20
-25.3239
 11
249.176
 21
-25.0427
  0
LINE
  8
0
 10
249.176
 20
-25.0427
 11
248.926
 21
-24.7336
  0
LINE
  8
0
 10
248.926
 20
-24.7336
 11
248.709
 21
-24.4
  0
LINE
  8
0
 10
248.709
 20
-24.4
 11
248.529
 21
-24.0456
  0
LINE
  8
0
 10
248.529
 20
-24.0456
 11
248.386
 21
-23.6743
  0
LINE
  8
0
 10
248.386
 20
-23.6743
 11
248.283
 21
-23.2901
  0
LINE
  8
0
 10
248.283
 20
-23.2901
 11
248.221
 21
-22.8972
  0
LINE
  8
0
 10
248.221
 20
-22.8972
 11
248.2
 21
-22.5
  0
LINE
  8
0
 10
248.2
 20
-22.5
 11
248.221
 21
-22.1028
  0
LINE
  8
0
 10
248.221
 20
-22.1028
 11
248.283
 21
-21.7099
  0
LINE
  8
0
 10
248.283
 20
-21.7099
 11
248.386
 21
-21.3257
  0
LINE
  8
0
 10
248.386
 20
-21.3257
 11
248.529
 21
-20.9544
  0
LINE
  8
0
 10
248.529
 20
-20.9544
 11
248.709
 21
-20.6
  0
LINE
  8
0
 10
248.709
 20
-20.6
 11
248.926
 21
-20.2664
  0
LINE
  8
0
 10
248.926
 20
-20.2664
 11
249.176
 21
-19.9573
  0
LINE
  8
0
 10
249.176
 20
-19.9573
 11
249.457
 21
-19.676
  0
LINE
  8
0
 10
249.457
 20
-19.676
 11
249.766
 21
-19.4257
  0
LINE
  8
0
 10
249.766
 20
-19.4257
 11
250.1
 21
-19.2091
  0
LINE
  8
0
 10
250.1
 20
-19.2091
 11
250.454
 21
-19.0285
  0
LINE
  8
0
 10
250.454
 20
-19.0285
 11
250.826
 21
-18.886
  0
LINE
  8
0
 10
250.826
 20
-18.886
 11
251.21
 21
-18.783
  0
LINE
  8
0
 10
251.21
 20
-18.783
 11
251.603
 21
-18.7208
  0
LINE
  8
0
 10
251.603
 20
-18.7208
 11
252
 21
-18.7
  0
LINE
  8
0
 10
252
 20
-18.7
 11
252.397
 21
-18.7208
  0
LINE
  8
0
 10
252.397
 20
-18.7208
 11
252.79
 21
-18.783
  0
LINE
  8
0
 10
252.79
 20
-18.783
 11
253.174
 21
-18.886
  0
LINE
  8
0
 10
253.174
 20
-18.886
 11
253.546
 21
-19.0285
  0
LINE
  8
0
 10
253.546
 20
-19.0285
 11
253.9
 21
-19.2091
  0
LINE
  8
0
 10
253.9
 20
-19.2091
 11
254.234
 21
-19.4257
  0
LINE
  8
0
 10
254.234
 20
-19.4257
 11
254.543
 21
-19.676
  0
LINE
  8
0
 10
254.543
 20
-19.676
 11
254.824
 21
-19.9573
  0
LINE
  8
0
 10
254.824
 20
-19.9573
 11
255.074
 21
-20.2664
  0
LINE
  8
0
 10
255.074
 20
-20.2664
 11
255.291
 21
-20.6
  0
LINE
  8
0
 10
255.291
 20
-20.6
 11
255.471
 21
-20.9544
  0
LINE
  8
0
 10
255.471
 20
-20.9544
 11
255.614
 21
-21.3257
  0
LINE
  8
0
 10
255.614
 20
-21.3257
 11
255.717
 21
-21.7099
  0
LINE
  8
0
 10
255.717
 20
-21.7099
 11
255.779
 21
-22.1028
  0
LINE
  8
0
 10
255.779
 20
-22.1028
 11
255.8
 21
-22.5
  0
LINE
  8
0
 10
255.8
 20
-22.5
 11
255.779
 21
-22.8972
  0
LINE
  8
0
 10
255.779
 20
-22.8972
 11
255.717
 21
-23.2901
  0
LINE
  8
0
 10
255.717
 20
-23.2901
 11
255.614
 21
-23.6743
  0
LINE
  8
0
 10
255.614
 20
-23.6743
 11
255.471
 21
-24.0456
  0
LINE
  8
0
 10
255.471
 20
-24.0456
 11
255.291
 21
-24.4
  0
LINE
  8
0
 10
255.291
 20
-24.4
 11
255.074
 21
-24.7336
  0
LINE
  8
0
 10
255.074
 20
-24.7336
 11
254.824
 21
-25.0427
  0
LINE
  8
0
 10
254.824
 20
-25.0427
 11
254.543
 21
-25.3239
  0
LINE
  8
0
 10
254.543
 20
-25.3239
 11
254.234
 21
-25.5743
  0
LINE
  8
0
 10
254.234
 20
-25.5743
 11
253.9
 21
-25.7909
  0
LINE
  8
0
 10
253.9
 20
-25.7909
 11
253.546
 21
-25.9715
  0
LINE
  8
0
 10
253.546
 20
-25.9715
 11
253.174
 21
-26.114
  0
LINE
  8
0
 10
253.174
 20
-26.114
 11
252.79
 21
-26.2169
  0
LINE
  8
0
 10
252.79
 20
-26.2169
 11
252.397
 21
-26.2792
  0
LINE
  8
0
 10
252.397
 20
-26.2792
 11
252
 21
-26.3
  0
LINE
  8
0
 10
252
 20
-26.3
 11
251.603
 21
-26.2792
  0
LINE
  8
0
 10
-252.397
 20
-26.2792
 11
-252.79
 21
-26.2169
  0
LINE
  8
0
 10
-252.79
 20
-26.2169
 11
-253.174
 21
-26.114
  0
LINE
  8
0
 10
-253.174
 20
-26.114
 11
-253.546
 21
-25.9715
  0
LINE
  8
0
 10
-253.546
 20
-25.9715
 11
-253.9
 21
-25.7909
  0
LINE
  8
0
 10
-253.9
 20
-25.7909
 11
-254.234
 21
-25.5743
  0
LINE
  8
0
 10
-254.234
 20
-25.5743
 11
-254.543
 21
-25.3239
  0
LINE
  8
0
 10
-254.543
 20
-25.3239
 11
-254.824
 21
-25.0427
  0
LINE
  8
0
 10
-254.824
 20
-25.0427
 11
-255.074
 21
-24.7336
  0
LINE
  8
0
 10
-255.074
 20
-24.7336
 11
-255.291
 21
-24.4
  0
LINE
  8
0
 10
-255.291
 20
-24.4
 11
-255.471
 21
-24.0456
  0
LINE
  8
0
 10
-255.471
 20
-24.0456
 11
-255.614
 21
-23.6743
  0
LINE
  8
0
 10
-255.614
 20
-23.6743
 11
-255.717
 21
-23.2901
  0
LINE
  8
0
 10
-255.717
 20
-23.2901
 11
-255.779
 21
-22.8972
  0
LINE
  8
0
 10
-255.779
 20
-22.8972
 11
-255.8
 21
-22.5
  0
LINE
  8
0
 10
-255.8
 20
-22.5
 11
-255.779
 21
-22.1028
  0
LINE
  8
0
 10
-255.779
 20
-22.1028
 11
-255.717
 21
-21.7099
  0
LINE
  8
0
 10
-255.717
 20
-21.7099
 11
-255.614
 21
-21.3257
  0
LINE
  8
0
 10
-255.614
 20
-21.3257
 11
-255.471
 21
-20.9544
  0
LINE
  8
0
 10
-255.471
 20
-20.9544
 11
-255.291
 21
-20.6
  0
LINE
  8
0
 10
-255.291
 20
-20.6
 11
-255.074
 21
-20.2664
  0
LINE
  8
0
 10
-255.074
 20
-20.2664
 11
-254.824
 21
-19.9573
  0
LINE
  8
0
 10
-254.824
 20
-19.9573
 11
-254.543
 21
-19.676
  0
LINE
  8
0
 10
-254.543
 20
-19.676
 11
-254.234
 21
-19.4257
  0
LINE
  8
0
 10
-254.234
 20
-19.4257
 11
-253.9
 21
-19.2091
  0
LINE
  8
0
 10
-253.9
 20
-19.2091
 11
-253.546
 21
-19.0285
  0
LINE
  8
0
 10
-253.546
 20
-19.0285
 11
-253.174
 21
-18.886
  0
LINE
  8
0
 10
-253.174
 20
-18.886
 11
-252.79
 21
-18.783
  0
LINE
  8
0
 10
-252.79
 20
-18.783
 11
-252.397
 21
-18.7208
  0
LINE
  8
0
 10
-252.397
 20
-18.7208
 11
-252
 21
-18.7
  0
LINE
  8
0
 10
-252
 20
-18.7
 11
-251.603
 21
-18.7208
  0
LINE
  8
0
 10
-251.603
 20
-18.7208
 11
-251.21
 21
-18.783
  0
LINE
  8
0
 10
-251.21
 20
-18.783
 11
-250.826
 21
-18.886
  0
LINE
  8
0
 10
-250.826
 20
-18.886
 11
-250.454
 21
-19.0285
  0
LINE
  8
0
 10
-250.454
 20
-19.0285
 11
-250.1
 21
-19.2091
  0
LINE
  8
0
 10
-250.1
 20
-19.2091
 11
-249.766
 21
-19.4257
  0
LINE
  8
0
 10
-249.766
 20
-19.4257
 11
-249.457
 21
-19.676
  0
LINE
  8
0
 10
-249.457
 20
-19.676
 11
-249.176
 21
-19.9573
  0
LINE
  8
0
 10
-249.176
 20
-19.9573
 11
-248.926
 21
-20.2664
  0
LINE
  8
0
 10
-248.926
 20
-20.2664
 11
-248.709
 21
-20.6
  0
LINE
  8
0
 10
-248.709
 20
-20.6
 11
-248.529
 21
-20.9544
  0
LINE
  8
0
 10
-248.529
 20
-20.9544
 11
-248.386
 21
-21.3257
  0
LINE
  8
0
 10
-248.386
 20
-21.3257
 11
-248.283
 21
-21.7099
  0
LINE
  8
0
 10
-248.283
 20
-21.7099
 11
-248.221
 21
-22.1028
  0
LINE
  8
0
 10
-248.221
 20
-22.1028
 11
-248.2
 21
-22.5
  0
LINE
  8
0
 10
-248.2
 20
-22.5
 11
-248.221
 21
-22.8972
  0
LINE
  8
0
 10
-248.221
 20
-22.8972
 11
-248.283
 21
-23.2901
  0
LINE
  8
0
 10
-248.283
 20
-23.2901
 11
-248.386
 21
-23.6743
  0
LINE
  8
0
 10
-248.386
 20
-23.6743
 11
-248.529
 21
-24.0456
  0
LINE
  8
0
 10
-248.529
 20
-24.0456
 11
-248.709
 21
-24.4
  0
LINE
  8
0
 10
-248.709
 20
-24.4
 11
-248.926
 21
-24.7336
  0
LINE
  8
0
 10
-248.926
 20
-24.7336
 11
-249.176
 21
-25.0427
  0
LINE
  8
0
 10
-249.176
 20
-25.0427
 11
-249.457
 21
-25.3239
  0
LINE
  8
0
 10
-249.457
 20
-25.3239
 11
-249.766
 21
-25.5743
  0
LINE
  8
0
 10
-249.766
 20
-25.5743
 11
-250.1
 21
-25.7909
  0
LINE
  8
0
 10
-250.1
 20
-25.7909
 11
-250.454
 21
-25.9715
  0
LINE
  8
0
 10
-250.454
 20
-25.9715
 11
-250.826
 21
-26.114
  0
LINE
  8
0
 10
-250.826
 20
-26.114
 11
-251.21
 21
-26.2169
  0
LINE
  8
0
 10
-251.21
 20
-26.2169
 11
-251.603
 21
-26.2792
  0
LINE
  8
0
 10
-251.603
 20
-26.2792
 11
-252
 21
-26.3
  0
LINE
  8
0
 10
-252
 20
-26.3
 11
-252.397
 21
-26.2792
  0
LINE
  8
0
 10
251.749
 20
-44.8868
 11
251.501
 21
-44.8475
  0
LINE
  8
0
 10
251.501
 20
-44.8475
 11
251.258
 21
-44.7825
  0
LINE
  8
0
 10
251.258
 20
-44.7825
 11
251.024
 21
-44.6925
  0
LINE
  8
0
 10
251.024
 20
-44.6925
 11
250.8
 21
-44.5785
  0
LINE
  8
0
 10
250.8
 20
-44.5785
 11
250.589
 21
-44.4416
  0
LINE
  8
0
 10
250.589
 20
-44.4416
 11
250.394
 21
-44.2835
  0
LINE
  8
0
 10
250.394
 20
-44.2835
 11
250.216
 21
-44.1059
  0
LINE
  8
0
 10
250.216
 20
-44.1059
 11
250.058
 21
-43.9107
  0
LINE
  8
0
 10
250.058
 20
-43.9107
 11
249.922
 21
-43.7
  0
LINE
  8
0
 10
249.922
 20
-43.7
 11
249.807
 21
-43.4762
  0
LINE
  8
0
 10
249.807
 20
-43.4762
 11
249.717
 21
-43.2416
  0
LINE
  8
0
 10
249.717
 20
-43.2416
 11
249.652
 21
-42.999
  0
LINE
  8
0
 10
249.652
 20
-42.999
 11
249.613
 21
-42.7509
  0
LINE
  8
0
 10
249.613
 20
-42.7509
 11
249.6
 21
-42.5
  0
LINE
  8
0
 10
249.6
 20
-42.5
 11
249.613
 21
-42.2491
  0
LINE
  8
0
 10
249.613
 20
-42.2491
 11
249.652
 21
-42.001
  0
LINE
  8
0
 10
249.652
 20
-42.001
 11
249.717
 21
-41.7583
  0
LINE
  8
0
 10
249.717
 20
-41.7583
 11
249.807
 21
-41.5238
  0
LINE
  8
0
 10
249.807
 20
-41.5238
 11
249.922
 21
-41.3
  0
LINE
  8
0
 10
249.922
 20
-41.3
 11
250.058
 21
-41.0893
  0
LINE
  8
0
 10
250.058
 20
-41.0893
 11
250.216
 21
-40.8941
  0
LINE
  8
0
 10
250.216
 20
-40.8941
 11
250.394
 21
-40.7164
  0
LINE
  8
0
 10
250.394
 20
-40.7164
 11
250.589
 21
-40.5583
  0
LINE
  8
0
 10
250.589
 20
-40.5583
 11
250.8
 21
-40.4215
  0
LINE
  8
0
 10
250.8
 20
-40.4215
 11
251.024
 21
-40.3075
  0
LINE
  8
0
 10
251.024
 20
-40.3075
 11
251.258
 21
-40.2175
  0
LINE
  8
0
 10
251.258
 20
-40.2175
 11
251.501
 21
-40.1524
  0
LINE
  8
0
 10
251.501
 20
-40.1524
 11
251.749
 21
-40.1131
  0
LINE
  8
0
 10
251.749
 20
-40.1131
 11
252
 21
-40.1
  0
LINE
  8
0
 10
252
 20
-40.1
 11
252.251
 21
-40.1131
  0
LINE
  8
0
 10
252.251
 20
-40.1131
 11
252.499
 21
-40.1524
  0
LINE
  8
0
 10
252.499
 20
-40.1524
 11
252.742
 21
-40.2175
  0
LINE
  8
0
 10
252.742
 20
-40.2175
 11
252.976
 21
-40.3075
  0
LINE
  8
0
 10
252.976
 20
-40.3075
 11
253.2
 21
-40.4215
  0
LINE
  8
0
 10
253.2
 20
-40.4215
 11
253.411
 21
-40.5583
  0
LINE
  8
0
 10
253.411
 20
-40.5583
 11
253.606
 21
-40.7164
  0
LINE
  8
0
 10
253.606
 20
-40.7164
 11
253.784
 21
-40.8941
  0
LINE
  8
0
 10
253.784
 20
-40.8941
 11
253.942
 21
-41.0893
  0
LINE
  8
0
 10
253.942
 20
-41.0893
 11
254.078
 21
-41.3
  0
LINE
  8
0
 10
254.078
 20
-41.3
 11
254.193
 21
-41.5238
  0
LINE
  8
0
 10
254.193
 20
-41.5238
 11
254.283
 21
-41.7583
  0
LINE
  8
0
 10
254.283
 20
-41.7583
 11
254.348
 21
-42.001
  0
LINE
  8
0
 10
254.348
 20
-42.001
 11
254.387
 21
-42.2491
  0
LINE
  8
0
 10
254.387
 20
-42.2491
 11
254.4
 21
-42.5
  0
LINE
  8
0
 10
254.4
 20
-42.5
 11
254.387
 21
-42.7509
  0
LINE
  8
0
 10
254.387
 20
-42.7509
 11
254.348
 21
-42.999
  0
LINE
  8
0
 10
254.348
 20
-42.999
 11
254.283
 21
-43.2416
  0
LINE
  8
0
 10
254.283
 20
-43.2416
 11
254.193
 21
-43.4762
  0
LINE
  8
0
 10
254.193
 20
-43.4762
 11
254.078
 21
-43.7
  0
LINE
  8
0
 10
254.078
 20
-43.7
 11
253.942
 21
-43.9107
  0
LINE
  8
0
 10
253.942
 20
-43.9107
 11
253.784
 21
-44.1059
  0
LINE
  8
0
 10
253.784
 20
-44.1059
 11
253.606
 21
-44.2835
  0
LINE
  8
0
 10
253.606
 20
-44.2835
 11
253.411
 21
-44.4416
  0
LINE
  8
0
 10
253.411
 20
-44.4416
 11
253.2
 21
-44.5785
  0
LINE
  8
0
 10
253.2
 20
-44.5785
 11
252.976
 21
-44.6925
  0
LINE
  8
0
 10
252.976
 20
-44.6925
 11
252.742
 21
-44.7825
  0
LINE
  8
0
 10
252.742
 20
-44.7825
 11
252.499
 21
-44.8475
  0
LINE
  8
0
 10
252.499
 20
-44.8475
 11
252.251
 21
-44.8868
  0
LINE
  8
0
 10
252.251
 20
-44.8868
 11
252
 21
-44.9
  0
LINE
  8
0
 10
252
 20
-44.9
 11
251.749
 21
-44.8868
  0
LINE
  8
0
 10
-252.251
 20
-44.8868
 11
-252.499
 21
-44.8475
  0
LINE
  8
0
 10
-252.499
 20
-44.8475
 11
-252.742
 21
-44.7825
  0
LINE
  8
0
 10
-252.742
 20
-44.7825
 11
-252.976
 21
-44.6925
  0
LINE
  8
0
 10
-252.976
 20
-44.6925
 11
-253.2
 21
-44.5785
  0
LINE
  8
0
 10
-253.2
 20
-44.5785
 11
-253.411
 21
-44.4416
  0
LINE
  8
0
 10
-253.411
 20
-44.4416
 11
-253.606
 21
-44.2835
  0
LINE
  8
0
 10
-253.606
 20
-44.2835
 11
-253.784
 21
-44.1059
  0
LINE
  8
0
 10
-253.784
 20
-44.1059
 11
-253.942
 21
-43.9107
  0
LINE
  8
0
 10
-253.942
 20
-43.9107
 11
-254.078
 21
-43.7
  0
LINE
  8
0
 10
-254.078
 20
-43.7
 11
-254.193
 21
-43.4762
  0
LINE
  8
0
 10
-254.193
 20
-43.4762
 11
-254.283
 21
-43.2416
  0
LINE
  8
0
 10
-254.283
 20
-43.2416
 11
-254.348
 21
-42.999
  0
LINE
  8
0
 10
-254.348
 20
-42.999
 11
-254.387
 21
-42.7509
  0
LINE
  8
0
 10
-254.387
 20
-42.7509
 11
-254.4
 21
-42.5
  0
LINE
  8
0
 10
-254.4
 20
-42.5
 11
-254.387
 21
-42.2491
  0
LINE
  8
0
 10
-254.387
 20
-42.2491
 11
-254.348
 21
-42.001
  0
LINE
  8
0
 10
-254.348
 20
-42.001
 11
-254.283
 21
-41.7583
  0
LINE
  8
0
 10
-254.283
 20
-41.7583
 11
-254.193
 21
-41.5238
  0
LINE
  8
0
 10
-254.193
 20
-41.5238
 11
-254.078
 21
-41.3
  0
LINE
  8
0
 10
-254.078
 20
-41.3
 11
-253.942
 21
-41.0893
  0
LINE
  8
0
 10
-253.942
 20
-41.0893
 11
-253.784
 21
-40.8941
  0
LINE
  8
0
 10
-253.784
 20
-40.8941
 11
-253.606
 21
-40.7164
  0
LINE
  8
0
 10
-253.606
 20
-40.7164
 11
-253.411
 21
-40.5583
  0
LINE
  8
0
 10
-253.411
 20
-40.5583
 11
-253.2
 21
-40.4215
  0
LINE
  8
0
 10
-253.2
 20
-40.4215
 11
-252.976
 21
-40.3075
  0
LINE
  8
0
 10
-252.976
 20
-40.3075
 11
-252.742
 21
-40.2175
  0
LINE
  8
0
 10
-252.742
 20
-40.2175
 11
-252.499
 21
-40.1524
  0
LINE
  8
0
 10
-252.499
 20
-40.1524
 11
-252.251
 21
-40.1131
  0
LINE
  8
0
 10
-252.251
 20
-40.1131
 11
-252
 21
-40.1
  0
LINE
  8
0
 10
-252
 20
-40.1
 11
-251.749
 21
-40.1131
  0
LINE
  8
0
 10
-251.749
 20
-40.1131
 11
-251.501
 21
-40.1524
  0
LINE
  8
0
 10
-251.501
 20
-40.1524
 11
-251.258
 21
-40.2175
  0
LINE
  8
0
 10
-251.258
 20
-40.2175
 11
-251.024
 21
-40.3075
  0
LINE
  8
0
 10
-251.024
 20
-40.3075
 11
-250.8
 21
-40.4215
  0
LINE
  8
0
 10
-250.8
 20
-40.4215
 11
-250.589
 21
-40.5583
  0
LINE
  8
0
 10
-250.589
 20
-40.5583
 11
-250.394
 21
-40.7164
  0
LINE
  8
0
 10
-250.394
 20
-40.7164
 11
-250.216
 21
-40.8941
  0
LINE
  8
0
 10
-250.216
 20
-40.8941
 11
-250.058
 21
-41.0893
  0
LINE
  8
0
 10
-250.058
 20
-41.0893
 11
-249.922
 21
-41.3
  0
LINE
  8
0
 10
-249.922
 20
-41.3
 11
-249.807
 21
-41.5238
  0
LINE
  8
0
 10
-249.807
 20
-41.5238
 11
-249.717
 21
-41.7583
  0
LINE
  8
0
 10
-249.717
 20
-41.7583
 11
-249.652
 21
-42.001
  0
LINE
  8
0
 10
-249.652
 20
-42.001
 11
-249.613
 21
-42.2491
  0
LINE
  8
0
 10
-249.613
 20
-42.2491
 11
-249.6
 21
-42.5
  0
LINE
  8
0
 10
-249.6
 20
-42.5
 11
-249.613
 21
-42.7509
  0
LINE
  8
0
 10
-249.613
 20
-42.7509
 11
-249.652
 21
-42.999
  0
LINE
  8
0
 10
-249.652
 20
-42.999
 11
-249.717
 21
-43.2416
  0
LINE
  8
0
 10
-249.717
 20
-43.2416
 11
-249.807
 21
-43.4762
  0
LINE
  8
0
 10
-249.807
 20
-43.4762
 11
-249.922
 21
-43.7
  0
LINE
  8
0
 10
-249.922
 20
-43.7
 11
-250.058
 21
-43.9107
  0
LINE
  8
0
 10
-250.058
 20
-43.9107
 11
-250.216
 21
-44.1059
  0
LINE
  8
0
 10
-250.216
 20
-44.1059
 11
-250.394
 21
-44.2835
  0
LINE
  8
0
 10
-250.394
 20
-44.2835
 11
-250.589
 21
-44.4416
  0
LINE
  8
0
 10
-250.589
 20
-44.4416
 11
-250.8
 21
-44.5785
  0
LINE
  8
0
 10
-250.8
 20
-44.5785
 11
-251.024
 21
-44.6925
  0
LINE
  8
0
 10
-251.024
 20
-44.6925
 11
-251.258
 21
-44.7825
  0
LINE
  8
0
 10
-251.258
 20
-44.7825
 11
-251.501
 21
-44.8475
  0
LINE
  8
0
 10
-251.501
 20
-44.8475
 11
-251.749
 21
-44.8868
  0
LINE
  8
0
 10
-251.749
 20
-44.8868
 11
-252
 21
-44.9
  0
LINE
  8
0
 10
-252
 20
-44.9
 11
-252.251
 21
-44.8868
  0
LINE
  8
0
 10
189.751
 20
-174.232
 11
189.507
 21
-174.179
  0
LINE
  8
0
 10
189.507
 20
-174.179
 11
189.273
 21
-174.092
  0
LINE
  8
0
 10
189.273
 20
-174.092
 11
189.054
 21
-173.972
  0
LINE
  8
0
 10
189.054
 20
-173.972
 11
188.854
 21
-173.823
  0
LINE
  8
0
 10
188.854
 20
-173.823
 11
188.677
 21
-173.646
  0
LINE
  8
0
 10
188.677
 20
-173.646
 11
188.528
 21
-173.446
  0
LINE
  8
0
 10
188.528
 20
-173.446
 11
188.408
 21
-173.227
  0
LINE
  8
0
 10
188.408
 20
-173.227
 11
188.321
 21
-172.993
  0
LINE
  8
0
 10
188.321
 20
-172.993
 11
188.268
 21
-172.749
  0
LINE
  8
0
 10
188.268
 20
-172.749
 11
188.25
 21
-172.5
  0
LINE
  8
0
 10
188.25
 20
-172.5
 11
188.25
 21
-60.8333
  0
LINE
  8
0
 10
188.25
 20
-60.8333
 11
188.268
 21
-60.5843
  0
LINE
  8
0
 10
188.268
 20
-60.5843
 11
188.321
 21
-60.3403
  0
LINE
  8
0
 10
188.321
 20
-60.3403
 11
188.408
 21
-60.1064
  0
LINE
  8
0
 10
188.408
 20
-60.1064
 11
188.528
 21
-59.8872
  0
LINE
  8
0
 10
188.528
 20
-59.8872
 11
188.677
 21
-59.6873
  0
LINE
  8
0
 10
188.677
 20
-59.6873
 11
188.854
 21
-59.5108
  0
LINE
  8
0
 10
188.854
 20
-59.5108
 11
189.054
 21
-59.3611
  0
LINE
  8
0
 10
189.054
 20
-59.3611
 11
189.273
 21
-59.2415
  0
LINE
  8
0
 10
189.273
 20
-59.2415
 11
189.507
 21
-59.1542
  0
LINE
  8
0
 10
189.507
 20
-59.1542
 11
189.751
 21
-59.1011
  0
LINE
  8
0
 10
189.751
 20
-59.1011
 11
190
 21
-59.0833
  0
LINE
  8
0
 10
190
 20
-59.0833
 11
190.249
 21
-59.1011
  0
LINE
  8
0
 10
190.249
 20
-59.1011
 11
190.493
 21
-59.1542
  0
LINE
  8
0
 10
190.493
 20
-59.1542
 11
190.727
 21
-59.2415
  0
LINE
  8
0
 10
190.727
 20
-59.2415
 11
190.946
 21
-59.3611
  0
LINE
  8
0
 10
190.946
 20
-59.3611
 11
191.146
 21
-59.5108
  0
LINE
  8
0
 10
191.146
 20
-59.5108
 11
191.323
 21
-59.6873
  0
LINE
  8
0
 10
191.323
 20
-59.6873
 11
191.472
 21
-59.8872
  0
LINE
  8
0
 10
191.472
 20
-59.8872
 11
191.592
 21
-60.1064
  0
LINE
  8
0
 10
191.592
 20
-60.1064
 11
191.679
 21
-60.3403
  0
LINE
  8
0
 10
191.679
 20
-60.3403
 11
191.732
 21
-60.5843
  0
LINE
  8
0
 10
191.732
 20
-60.5843
 11
191.75
 21
-60.8333
  0
LINE
  8
0
 10
191.75
 20
-60.8333
 11
191.75
 21
-172.5
  0
LINE
  8
0
 10
191.75
 20
-172.5
 11
191.732
 21
-172.749
  0
LINE
  8
0
 10
191.732
 20
-172.749
 11
191.679
 21
-172.993
  0
LINE
  8
0
 10
191.679
 20
-172.993
 11
191.592
 21
-173.227
  0
LINE
  8
0
 10
191.592
 20
-173.227
 11
191.472
 21
-173.446
  0
LINE
  8
0
 10
191.472
 20
-173.446
 11
191.323
 21
-173.646
  0
LINE
  8
0
 10
191.323
 20
-173.646
 11
191.146
 21
-173.823
  0
LINE
  8
0
 10
191.146
 20
-173.823
 11
190.946
 21
-173.972
  0
LINE
  8
0
 10
190.946
 20
-173.972
 11
190.727
 21
-174.092
  0
LINE
  8
0
 10
190.727
 20
-174.092
 11
190.493
 21
-174.179
  0
LINE
  8
0
 10
190.493
 20
-174.179
 11
190.249
 21
-174.232
  0
LINE
  8
0
 10
190.249
 20
-174.232
 11
190
 21
-174.25
  0
LINE
  8
0
 10
190
 20
-174.25
 11
189.751
 21
-174.232
  0
LINE
  8
0
 10
-190.249
 20
-174.232
 11
-190.493
 21
-174.179
  0
LINE
  8
0
 10
-190.493
 20
-174.179
 11
-190.727
 21
-174.092
  0
LINE
  8
0
 10
-190.727
 20
-174.092
 11
-190.946
 21
-173.972
  0
LINE
  8
0
 10
-190.946
 20
-173.972
 11
-191.146
 21
-173.823
  0
LINE
  8
0
 10
-191.146
 20
-173.823
 11
-191.323
 21
-173.646
  0
LINE
  8
0
 10
-191.323
 20
-173.646
 11
-191.472
 21
-173.446
  0
LINE
  8
0
 10
-191.472
 20
-173.446
 11
-191.592
 21
-173.227
  0
LINE
  8
0
 10
-191.592
 20
-173.227
 11
-191.679
 21
-172.993
  0
LINE
  8
0
 10
-191.679
 20
-172.993
 11
-191.732
 21
-172.749
  0
LINE
  8
0
 10
-191.732
 20
-172.749
 11
-191.75
 21
-172.5
  0
LINE
  8
0
 10
-191.75
 20
-172.5
 11
-191.75
 21
-60.8333
  0
LINE
  8
0
 10
-191.75
 20
-60.8333
 11
-191.732
 21
-60.5843
  0
LINE
  8
0
 10
-191.732
 20
-60.5843
 11
-191.679
 21
-60.3403
  0
LINE
  8
0
 10
-191.679
 20
-60.3403
 11
-191.592
 21
-60.1064
  0
LINE
  8
0
 10
-191.592
 20
-60.1064
 11
-191.472
 21
-59.8872
  0
LINE
  8
0
 10
-191.472
 20
-59.8872
 11
-191.323
 21
-59.6873
  0
LINE
  8
0
 10
-191.323
 20
-59.6873
 11
-191.146
 21
-59.5108
  0
LINE
  8
0
 10
-191.146
 20
-59.5108
 11
-190.946
 21
-59.3611
  0
LINE
  8
0
 10
-190.946
 20
-59.3611
 11
-190.727
 21
-59.2415
  0
LINE
  8
0
 10
-190.727
 20
-59.2415
 11
-190.493
 21
-59.1542
  0
LINE
  8
0
 10
-190.493
 20
-59.1542
 11
-190.249
 21
-59.1011
  0
LINE
  8
0
 10
-190.249
 20
-59.1011
 11
-190
 21
-59.0833
  0
LINE
  8
0
 10
-190
 20
-59.0833
 11
-189.751
 21
-59.1011
  0
LINE
  8
0
 10
-189.751
 20
-59.1011
 11
-189.507
 21
-59.1542
  0
LINE
  8
0
 10
-189.507
 20
-59.1542
 11
-189.273
 21
-59.2415
  0
LINE
  8
0
 10
-189.273
 20
-59.2415
 11
-189.054
 21
-59.3611
  0
LINE
  8
0
 10
-189.054
 20
-59.3611
 11
-188.854
 21
-59.5108
  0
LINE
  8
0
 10
-188.854
 20
-59.5108
 11
-188.677
 21
-59.6873
  0
LINE
  8
0
 10
-188.677
 20
-59.6873
 11
-188.528
 21
-59.8872
  0
LINE
  8
0
 10
-188.528
 20
-59.8872
 11
-188.408
 21
-60.1064
  0
LINE
  8
0
 10
-188.408
 20
-60.1064
 11
-188.321
 21
-60.3403
  0
LINE
  8
0
 10
-188.321
 20
-60.3403
 11
-188.268
 21
-60.5843
  0
LINE
  8
0
 10
-188.268
 20
-60.5843
 11
-188.25
 21
-60.8333
  0
LINE
  8
0
 10
-188.25
 20
-60.8333
 11
-188.25
 21
-172.5
  0
LINE
  8
0
 10
-188.25
 20
-172.5
 11
-188.268
 21
-172.749
  0
LINE
  8
0
 10
-188.268
 20
-172.749
 11
-188.321
 21
-172.993
  0
LINE
  8
0
 10
-188.321
 20
-172.993
 11
-188.408
 21
-173.227
  0
LINE
  8
0
 10
-188.408
 20
-173.227
 11
-188.528
 21
-173.446
  0
LINE
  8
0
 10
-188.528
 20
-173.446
 11
-188.677
 21
-173.646
  0
LINE
  8
0
 10
-188.677
 20
-173.646
 11
-188.854
 21
-173.823
  0
LINE
  8
0
 10
-188.854
 20
-173.823
 11
-189.054
 21
-173.972
  0
LINE
  8
0
 10
-189.054
 20
-173.972
 11
-189.273
 21
-174.092
  0
LINE
  8
0
 10
-189.273
 20
-174.092
 11
-189.507
 21
-174.179
  0
LINE
  8
0
 10
-189.507
 20
-174.179
 11
-189.751
 21
-174.232
  0
LINE
  8
0
 10
-189.751
 20
-174.232
 11
-190
 21
-174.25
  0
LINE
  8
0
 10
-190
 20
-174.25
 11
-190.249
 21
-174.232
  0
LINE
  8
0
 10
251.816
 20
-63.9382
 11
251.575
 21
-63.8864
  0
LINE
  8
0
 10
251.575
 20
-63.8864
 11
251.347
 21
-63.7947
  0
LINE
  8
0
 10
251.347
 20
-63.7947
 11
251.138
 21
-63.6658
  0
LINE
  8
0
 10
251.138
 20
-63.6658
 11
250.953
 21
-63.5033
  0
LINE
  8
0
 10
250.953
 20
-63.5033
 11
250.799
 21
-63.312
  0
LINE
  8
0
 10
250.799
 20
-63.312
 11
250.679
 21
-63.0972
  0
LINE
  8
0
 10
250.679
 20
-63.0972
 11
250.597
 21
-62.8654
  0
LINE
  8
0
 10
250.597
 20
-62.8654
 11
250.555
 21
-62.623
  0
LINE
  8
0
 10
250.555
 20
-62.623
 11
250.555
 21
-62.377
  0
LINE
  8
0
 10
250.555
 20
-62.377
 11
250.597
 21
-62.1346
  0
LINE
  8
0
 10
250.597
 20
-62.1346
 11
250.679
 21
-61.9027
  0
LINE
  8
0
 10
250.679
 20
-61.9027
 11
250.799
 21
-61.688
  0
LINE
  8
0
 10
250.799
 20
-61.688
 11
250.953
 21
-61.4967
  0
LINE
  8
0
 10
250.953
 20
-61.4967
 11
251.138
 21
-61.3342
  0
LINE
  8
0
 10
251.138
 20
-61.3342
 11
251.347
 21
-61.2052
  0
LINE
  8
0
 10
251.347
 20
-61.2052
 11
251.575
 21
-61.1136
  0
LINE
  8
0
 10
251.575
 20
-61.1136
 11
251.816
 21
-61.0617
  0
LINE
  8
0
 10
251.816
 20
-61.0617
 11
252.062
 21
-61.0513
  0
LINE
  8
0
 10
252.062
 20
-61.0513
 11
252.305
 21
-61.0825
  0
LINE
  8
0
 10
252.305
 20
-61.0825
 11
252.541
 21
-61.1546
  0
LINE
  8
0
 10
252.541
 20
-61.1546
 11
252.76
 21
-61.2653
  0
LINE
  8
0
 10
252.76
 20
-61.2653
 11
252.958
 21
-61.4115
  0
LINE
  8
0
 10
252.958
 20
-61.4115
 11
253.128
 21
-61.5891
  0
LINE
  8
0
 10
253.128
 20
-61.5891
 11
253.266
 21
-61.7928
  0
LINE
  8
0
 10
253.266
 20
-61.7928
 11
253.367
 21
-62.0169
  0
LINE
  8
0
 10
253.367
 20
-62.0169
 11
253.429
 21
-62.2549
  0
LINE
  8
0
 10
253.429
 20
-62.2549
 11
253.45
 21
-62.5
  0
LINE
  8
0
 10
253.45
 20
-62.5
 11
253.429
 21
-62.745
  0
LINE
  8
0
 10
253.429
 20
-62.745
 11
253.367
 21
-62.983
  0
LINE
  8
0
 10
253.367
 20
-62.983
 11
253.266
 21
-63.2072
  0
LINE
  8
0
 10
253.266
 20
-63.2072
 11
253.128
 21
-63.4109
  0
LINE
  8
0
 10
253.128
 20
-63.4109
 11
252.958
 21
-63.5885
  0
LINE
  8
0
 10
252.958
 20
-63.5885
 11
252.76
 21
-63.7347
  0
LINE
  8
0
 10
252.76
 20
-63.7347
 11
252.541
 21
-63.8454
  0
LINE
  8
0
 10
252.541
 20
-63.8454
 11
252.305
 21
-63.9174
  0
LINE
  8
0
 10
252.305
 20
-63.9174
 11
252.062
 21
-63.9487
  0
LINE
  8
0
 10
252.062
 20
-63.9487
 11
251.816
 21
-63.9382
  0
LINE
  8
0
 10
-252.305
 20
-63.9174
 11
-252.541
 21
-63.8454
  0
LINE
  8
0
 10
-252.541
 20
-63.8454
 11
-252.76
 21
-63.7347
  0
LINE
  8
0
 10
-252.76
 20
-63.7347
 11
-252.958
 21
-63.5885
  0
LINE
  8
0
 10
-252.958
 20
-63.5885
 11
-253.128
 21
-63.4109
  0
LINE
  8
0
 10
-253.128
 20
-63.4109
 11
-253.266
 21
-63.2072
  0
LINE
  8
0
 10
-253.266
 20
-63.2072
 11
-253.367
 21
-62.983
  0
LINE
  8
0
 10
-253.367
 20
-62.983
 11
-253.429
 21
-62.745
  0
LINE
  8
0
 10
-253.429
 20
-62.745
 11
-253.45
 21
-62.5
  0
LINE
  8
0
 10
-253.45
 20
-62.5
 11
-253.429
 21
-62.2549
  0
LINE
  8
0
 10
-253.429
 20
-62.2549
 11
-253.367
 21
-62.0169
  0
LINE
  8
0
 10
-253.367
 20
-62.0169
 11
-253.266
 21
-61.7928
  0
LINE
  8
0
 10
-253.266
 20
-61.7928
 11
-253.128
 21
-61.5891
  0
LINE
  8
0
 10
-253.128
 20
-61.5891
 11
-252.958
 21
-61.4115
  0
LINE
  8
0
 10
-252.958
 20
-61.4115
 11
-252.76
 21
-61.2653
  0
LINE
  8
0
 10
-252.76
 20
-61.2653
 11
-252.541
 21
-61.1546
  0
LINE
  8
0
 10
-252.541
 20
-61.1546
 11
-252.305
 21
-61.0825
  0
LINE
  8
0
 10
-252.305
 20
-61.0825
 11
-252.062
 21
-61.0513
  0
LINE
  8
0
 10
-252.062
 20
-61.0513
 11
-251.816
 21
-61.0617
  0
LINE
  8
0
 10
-251.816
 20
-61.0617
 11
-251.575
 21
-61.1136
  0
LINE
  8
0
 10
-251.575
 20
-61.1136
 11
-251.347
 21
-61.2052
  0
LINE
  8
0
 10
-251.347
 20
-61.2052
 11
-251.138
 21
-61.3342
  0
LINE
  8
0
 10
-251.138
 20
-61.3342
 11
-250.953
 21
-61.4967
  0
LINE
  8
0
 10
-250.953
 20
-61.4967
 11
-250.799
 21
-61.688
  0
LINE
  8
0
 10
-250.799
 20
-61.688
 11
-250.679
 21
-61.9027
  0
LINE
  8
0
 10
-250.679
 20
-61.9027
 11
-250.597
 21
-62.1346
  0
LINE
  8
0
 10
-250.597
 20
-62.1346
 11
-250.555
 21
-62.377
  0
LINE
  8
0
 10
-250.555
 20
-62.377
 11
-250.555
 21
-62.623
  0
LINE
  8
0
 10
-250.555
 20
-62.623
 11
-250.597
 21
-62.8654
  0
LINE
  8
0
 10
-250.597
 20
-62.8654
 11
-250.679
 21
-63.0972
  0
LINE
  8
0
 10
-250.679
 20
-63.0972
 11
-250.799
 21
-63.312
  0
LINE
  8
0
 10
-250.799
 20
-63.312
 11
-250.953
 21
-63.5033
  0
LINE
  8
0
 10
-250.953
 20
-63.5033
 11
-251.138
 21
-63.6658
  0
LINE
  8
0
 10
-251.138
 20
-63.6658
 11
-251.347
 21
-63.7947
  0
LINE
  8
0
 10
-251.347
 20
-63.7947
 11
-251.575
 21
-63.8864
  0
LINE
  8
0
 10
-251.575
 20
-63.8864
 11
-251.816
 21
-63.9382
  0
LINE
  8
0
 10
-251.816
 20
-63.9382
 11
-252.062
 21
-63.9487
  0
LINE
  8
0
 10
-252.062
 20
-63.9487
 11
-252.305
 21
-63.9174
  0
LINE
  8
0
 10
189.691
 20
-194.172
 11
189.451
 21
-194.109
  0
LINE
  8
0
 10
189.451
 20
-194.109
 11
189.223
 21
-194.012
  0
LINE
  8
0
 10
189.223
 20
-194.012
 11
189.011
 21
-193.883
  0
LINE
  8
0
 10
189.011
 20
-193.883
 11
188.82
 21
-193.724
  0
LINE
  8
0
 10
188.82
 20
-193.724
 11
188.654
 21
-193.539
  0
LINE
  8
0
 10
188.654
 20
-193.539
 11
188.518
 21
-193.332
  0
LINE
  8
0
 10
188.518
 20
-193.332
 11
188.412
 21
-193.107
  0
LINE
  8
0
 10
188.412
 20
-193.107
 11
188.341
 21
-192.87
  0
LINE
  8
0
 10
188.341
 20
-192.87
 11
188.305
 21
-192.624
  0
LINE
  8
0
 10
188.305
 20
-192.624
 11
188.305
 21
-192.376
  0
LINE
  8
0
 10
188.305
 20
-192.376
 11
188.341
 21
-192.13
  0
LINE
  8
0
 10
188.341
 20
-192.13
 11
188.412
 21
-191.893
  0
LINE
  8
0
 10
188.412
 20
-191.893
 11
188.518
 21
-191.668
  0
LINE
  8
0
 10
188.518
 20
-191.668
 11
188.654
 21
-191.461
  0
LINE
  8
0
 10
188.654
 20
-191.461
 11
188.82
 21
-191.276
  0
LINE
  8
0
 10
188.82
 20
-191.276
 11
189.011
 21
-191.117
  0
LINE
  8
0
 10
189.011
 20
-191.117
 11
189.223
 21
-190.988
  0
LINE
  8
0
 10
189.223
 20
-190.988
 11
189.451
 21
-190.891
  0
LINE
  8
0
 10
189.451
 20
-190.891
 11
189.691
 21
-190.828
  0
LINE
  8
0
 10
189.691
 20
-190.828
 11
189.938
 21
-190.801
  0
LINE
  8
0
 10
189.938
 20
-190.801
 11
190.186
 21
-190.81
  0
LINE
  8
0
 10
190.186
 20
-190.81
 11
190.43
 21
-190.855
  0
LINE
  8
0
 10
190.43
 20
-190.855
 11
190.665
 21
-190.935
  0
LINE
  8
0
 10
190.665
 20
-190.935
 11
190.886
 21
-191.049
  0
LINE
  8
0
 10
190.886
 20
-191.049
 11
191.087
 21
-191.193
  0
LINE
  8
0
 10
191.087
 20
-191.193
 11
191.266
 21
-191.366
  0
LINE
  8
0
 10
191.266
 20
-191.366
 11
191.418
 21
-191.562
  0
LINE
  8
0
 10
191.418
 20
-191.562
 11
191.539
 21
-191.778
  0
LINE
  8
0
 10
191.539
 20
-191.778
 11
191.628
 21
-192.01
  0
LINE
  8
0
 10
191.628
 20
-192.01
 11
191.682
 21
-192.252
  0
LINE
  8
0
 10
191.682
 20
-192.252
 11
191.7
 21
-192.5
  0
LINE
  8
0
 10
191.7
 20
-192.5
 11
191.682
 21
-192.748
  0
LINE
  8
0
 10
191.682
 20
-192.748
 11
191.628
 21
-192.99
  0
LINE
  8
0
 10
191.628
 20
-192.99
 11
191.539
 21
-193.222
  0
LINE
  8
0
 10
191.539
 20
-193.222
 11
191.418
 21
-193.438
  0
LINE
  8
0
 10
191.418
 20
-193.438
 11
191.266
 21
-193.634
  0
LINE
  8
0
 10
191.266
 20
-193.634
 11
191.087
 21
-193.807
  0
LINE
  8
0
 10
191.087
 20
-193.807
 11
190.886
 21
-193.951
  0
LINE
  8
0
 10
190.886
 20
-193.951
 11
190.665
 21
-194.065
  0
LINE
  8
0
 10
190.665
 20
-194.065
 11
190.43
 21
-194.145
  0
LINE
  8
0
 10
190.43
 20
-194.145
 11
190.186
 21
-194.19
  0
LINE
  8
0
 10
190.186
 20
-194.19
 11
189.938
 21
-194.199
  0
LINE
  8
0
 10
189.938
 20
-194.199
 11
189.691
 21
-194.172
  0
LINE
  8
0
 10
-190.186
 20
-194.19
 11
-190.43
 21
-194.145
  0
LINE
  8
0
 10
-190.43
 20
-194.145
 11
-190.665
 21
-194.065
  0
LINE
  8
0
 10
-190.665
 20
-194.065
 11
-190.886
 21
-193.951
  0
LINE
  8
0
 10
-190.886
 20
-193.951
 11
-191.087
 21
-193.807
  0
LINE
  8
0
 10
-191.087
 20
-193.807
 11
-191.266
 21
-193.634
  0
LINE
  8
0
 10
-191.266
 20
-193.634
 11
-191.418
 21
-193.438
  0
LINE
  8
0
 10
-191.418
 20
-193.438
 11
-191.539
 21
-193.222
  0
LINE
  8
0
 10
-191.539
 20
-193.222
 11
-191.628
 21
-192.99
  0
LINE
  8
0
 10
-191.628
 20
-192.99
 11
-191.682
 21
-192.748
  0
LINE
  8
0
 10
-191.682
 20
-192.748
 11
-191.7
 21
-192.5
  0
LINE
  8
0
 10
-191.7
 20
-192.5
 11
-191.682
 21
-192.252
  0
LINE
  8
0
 10
-191.682
 20
-192.252
 11
-191.628
 21
-192.01
  0
LINE
  8
0
 10
-191.628
 20
-192.01
 11
-191.539
 21
-191.778
  0
LINE
  8
0
 10
-191.539
 20
-191.778
 11
-191.418
 21
-191.562
  0
LINE
  8
0
 10
-191.418
 20
-191.562
 11
-191.266
 21
-191.366
  0
LINE
  8
0
 10
-191.266
 20
-191.366
 11
-191.087
 21
-191.193
  0
LINE
  8
0
 10
-191.087
 20
-191.193
 11
-190.886
 21
-191.049
  0
LINE
  8
0
 10
-190.886
 20
-191.049
 11
-190.665
 21
-190.935
  0
LINE
  8
0
 10
-190.665
 20
-190.935
 11
-190.43
 21
-190.855
  0
LINE
  8
0
 10
-190.43
 20
-190.855
 11
-190.186
 21
-190.81
  0
LINE
  8
0
 10
-190.186
 20
-190.81
 11
-189.938
 21
-190.801
  0
LINE
  8
0
 10
-189.938
 20
-190.801
 11
-189.691
 21
-190.828
  0
LINE
  8
0
 10
-189.691
 20
-190.828
 11
-189.451
 21
-190.891
  0
LINE
  8
0
 10
-189.451
 20
-190.891
 11
-189.223
 21
-190.988
  0
LINE
  8
0
 10
-189.223
 20
-190.988
 11
-189.011
 21
-191.117
  0
LINE
  8
0
 10
-189.011
 20
-191.117
 11
-188.82
 21
-191.276
  0
LINE
  8
0
 10
-188.82
 20
-191.276
 11
-188.654
 21
-191.461
  0
LINE
  8
0
 10
-188.654
 20
-191.461
 11
-188.518
 21
-191.668
  0
LINE
  8
0
 10
-188.518
 20
-191.668
 11
-188.412
 21
-191.893
  0
LINE
  8
0
 10
-188.412
 20
-191.893
 11
-188.341
 21
-192.13
  0
LINE
  8
0
 10
-188.341
 20
-192.13
 11
-188.305
 21
-192.376
  0
LINE
  8
0
 10
-188.305
 20
-192.376
 11
-188.305
 21
-192.624
  0
LINE
  8
0
 10
-188.305
 20
-192.624
 11
-188.341
 21
-192.87
  0
LINE
  8
0
 10
-188.341
 20
-192.87
 11
-188.412
 21
-193.107
  0
LINE
  8
0
 10
-188.412
 20
-193.107
 11
-188.518
 21
-193.332
  0
LINE
  8
0
 10
-188.518
 20
-193.332
 11
-188.654
 21
-193.539
  0
LINE
  8
0
 10
-188.654
 20
-193.539
 11
-188.82
 21
-193.724
  0
LINE
  8
0
 10
-188.82
 20
-193.724
 11
-189.011
 21
-193.883
  0
LINE
  8
0
 10
-189.011
 20
-193.883
 11
-189.223
 21
-194.012
  0
LINE
  8
0
 10
-189.223
 20
-194.012
 11
-189.451
 21
-194.109
  0
LINE
  8
0
 10
-189.451
 20
-194.109
 11
-189.691
 21
-194.172
  0
LINE
  8
0
 10
-189.691
 20
-194.172
 11
-189.938
 21
-194.199
  0
LINE
  8
0
 10
-189.938
 20
-194.199
 11
-190.186
 21
-194.19
  0
LINE
  8
0
 10
249.027
 20
-196.145
 11
248.783
 21
-196.109
  0
LINE
  8
0
 10
248.783
 20
-196.109
 11
248.547
 21
-196.036
  0
LINE
  8
0
 10
248.547
 20
-196.036
 11
248.325
 21
-195.929
  0
LINE
  8
0
 10
248.325
 20
-195.929
 11
248.121
 21
-195.79
  0
LINE
  8
0
 10
248.121
 20
-195.79
 11
247.94
 21
-195.622
  0
LINE
  8
0
 10
247.94
 20
-195.622
 11
247.787
 21
-195.429
  0
LINE
  8
0
 10
247.787
 20
-195.429
 11
247.663
 21
-195.216
  0
LINE
  8
0
 10
247.663
 20
-195.216
 11
247.573
 21
-194.986
  0
LINE
  8
0
 10
247.573
 20
-194.986
 11
247.518
 21
-194.746
  0
LINE
  8
0
 10
247.518
 20
-194.746
 11
247.5
 21
-194.5
  0
LINE
  8
0
 10
247.5
 20
-194.5
 11
247.518
 21
-194.254
  0
LINE
  8
0
 10
247.518
 20
-194.254
 11
247.573
 21
-194.014
  0
LINE
  8
0
 10
247.573
 20
-194.014
 11
247.663
 21
-193.784
  0
LINE
  8
0
 10
247.663
 20
-193.784
 11
247.787
 21
-193.571
  0
LINE
  8
0
 10
247.787
 20
-193.571
 11
247.94
 21
-193.378
  0
LINE
  8
0
 10
247.94
 20
-193.378
 11
248.121
 21
-193.21
  0
LINE
  8
0
 10
248.121
 20
-193.21
 11
248.325
 21
-193.071
  0
LINE
  8
0
 10
248.325
 20
-193.071
 11
248.547
 21
-192.964
  0
LINE
  8
0
 10
248.547
 20
-192.964
 11
248.783
 21
-192.891
  0
LINE
  8
0
 10
248.783
 20
-192.891
 11
249.027
 21
-192.855
  0
LINE
  8
0
 10
249.027
 20
-192.855
 11
257.273
 21
-192.855
  0
LINE
  8
0
 10
257.273
 20
-192.855
 11
257.517
 21
-192.891
  0
LINE
  8
0
 10
257.517
 20
-192.891
 11
257.753
 21
-192.964
  0
LINE
  8
0
 10
257.753
 20
-192.964
 11
257.975
 21
-193.071
  0
LINE
  8
0
 10
257.975
 20
-193.071
 11
258.179
 21
-193.21
  0
LINE
  8
0
 10
258.179
 20
-193.21
 11
258.36
 21
-193.378
  0
LINE
  8
0
 10
258.36
 20
-193.378
 11
258.513
 21
-193.571
  0
LINE
  8
0
 10
258.513
 20
-193.571
 11
258.637
 21
-193.784
  0
LINE
  8
0
 10
258.637
 20
-193.784
 11
258.727
 21
-194.014
  0
LINE
  8
0
 10
258.727
 20
-194.014
 11
258.782
 21
-194.254
  0
LINE
  8
0
 10
258.782
 20
-194.254
 11
258.8
 21
-194.5
  0
LINE
  8
0
 10
258.8
 20
-194.5
 11
258.782
 21
-194.746
  0
LINE
  8
0
 10
258.782
 20
-194.746
 11
258.727
 21
-194.986
  0
LINE
  8
0
 10
258.727
 20
-194.986
 11
258.637
 21
-195.216
  0
LINE
  8
0
 10
258.637
 20
-195.216
 11
258.513
 21
-195.429
  0
LINE
  8
0
 10
258.513
 20
-195.429
 11
258.36
 21
-195.622
  0
LINE
  8
0
 10
258.36
 20
-195.622
 11
258.179
 21
-195.79
  0
LINE
  8
0
 10
258.179
 20
-195.79
 11
257.975
 21
-195.929
  0
LINE
  8
0
 10
257.975
 20
-195.929
 11
257.753
 21
-196.036
  0
LINE
  8
0
 10
257.753
 20
-196.036
 11
257.517
 21
-196.109
  0
LINE
  8
0
 10
257.517
 20
-196.109
 11
257.273
 21
-196.145
  0
LINE
  8
0
 10
257.273
 20
-196.145
 11
249.027
 21
-196.145
  0
LINE
  8
0
 10
218.027
 20
-196.145
 11
217.783
 21
-196.109
  0
LINE
  8
0
 10
217.783
 20
-196.109
 11
217.547
 21
-196.036
  0
LINE
  8
0
 10
217.547
 20
-196.036
 11
217.325
 21
-195.929
  0
LINE
  8
0
 10
217.325
 20
-195.929
 11
217.121
 21
-195.79
  0
LINE
  8
0
 10
217.121
 20
-195.79
 11
216.94
 21
-195.622
  0
LINE
  8
0
 10
216.94
 20
-195.622
 11
216.787
 21
-195.429
  0
LINE
  8
0
 10
216.787
 20
-195.429
 11
216.663
 21
-195.216
  0
LINE
  8
0
 10
216.663
 20
-195.216
 11
216.573
 21
-194.986
  0
LINE
  8
0
 10
216.573
 20
-194.986
 11
216.518
 21
-194.746
  0
LINE
  8
0
 10
216.518
 20
-194.746
 11
216.5
 21
-194.5
  0
LINE
  8
0
 10
216.5
 20
-194.5
 11
216.518
 21
-194.254
  0
LINE
  8
0
 10
216.518
 20
-194.254
 11
216.573
 21
-194.014
  0
LINE
  8
0
 10
216.573
 20
-194.014
 11
216.663
 21
-193.784
  0
LINE
  8
0
 10
216.663
 20
-193.784
 11
216.787
 21
-193.571
  0
LINE
  8
0
 10
216.787
 20
-193.571
 11
216.94
 21
-193.378
  0
LINE
  8
0
 10
216.94
 20
-193.378
 11
217.121
 21
-193.21
  0
LINE
  8
0
 10
217.121
 20
-193.21
 11
217.325
 21
-193.071
  0
LINE
  8
0
 10
217.325
 20
-193.071
 11
217.547
 21
-192.964
  0
LINE
  8
0
 10
217.547
 20
-192.964
 11
217.783
 21
-192.891
  0
LINE
  8
0
 10
217.783
 20
-192.891
 11
218.027
 21
-192.855
  0
LINE
  8
0
 10
218.027
 20
-192.855
 11
226.273
 21
-192.855
  0
LINE
  8
0
 10
226.273
 20
-192.855
 11
226.517
 21
-192.891
  0
LINE
  8
0
 10
226.517
 20
-192.891
 11
226.753
 21
-192.964
  0
LINE
  8
0
 10
226.753
 20
-192.964
 11
226.975
 21
-193.071
  0
LINE
  8
0
 10
226.975
 20
-193.071
 11
227.179
 21
-193.21
  0
LINE
  8
0
 10
227.179
 20
-193.21
 11
227.36
 21
-193.378
  0
LINE
  8
0
 10
227.36
 20
-193.378
 11
227.513
 21
-193.571
  0
LINE
  8
0
 10
227.513
 20
-193.571
 11
227.637
 21
-193.784
  0
LINE
  8
0
 10
227.637
 20
-193.784
 11
227.727
 21
-194.014
  0
LINE
  8
0
 10
227.727
 20
-194.014
 11
227.782
 21
-194.254
  0
LINE
  8
0
 10
227.782
 20
-194.254
 11
227.8
 21
-194.5
  0
LINE
  8
0
 10
227.8
 20
-194.5
 11
227.782
 21
-194.746
  0
LINE
  8
0
 10
227.782
 20
-194.746
 11
227.727
 21
-194.986
  0
LINE
  8
0
 10
227.727
 20
-194.986
 11
227.637
 21
-195.216
  0
LINE
  8
0
 10
227.637
 20
-195.216
 11
227.513
 21
-195.429
  0
LINE
  8
0
 10
227.513
 20
-195.429
 11
227.36
 21
-195.622
  0
LINE
  8
0
 10
227.36
 20
-195.622
 11
227.179
 21
-195.79
  0
LINE
  8
0
 10
227.179
 20
-195.79
 11
226.975
 21
-195.929
  0
LINE
  8
0
 10
226.975
 20
-195.929
 11
226.753
 21
-196.036
  0
LINE
  8
0
 10
226.753
 20
-196.036
 11
226.517
 21
-196.109
  0
LINE
  8
0
 10
226.517
 20
-196.109
 11
226.273
 21
-196.145
  0
LINE
  8
0
 10
226.273
 20
-196.145
 11
218.027
 21
-196.145
  0
LINE
  8
0
 10
233.15
 20
-222.5
 11
231.843
 21
-222.432
  0
LINE
  8
0
 10
231.843
 20
-222.432
 11
230.551
 21
-222.227
  0
LINE
  8
0
 10
230.551
 20
-222.227
 11
229.287
 21
-221.888
  0
LINE
  8
0
 10
229.287
 20
-221.888
 11
228.066
 21
-221.419
  0
LINE
  8
0
 10
228.066
 20
-221.419
 11
226.9
 21
-220.825
  0
LINE
  8
0
 10
226.9
 20
-220.825
 11
225.803
 21
-220.113
  0
LINE
  8
0
 10
225.803
 20
-220.113
 11
224.786
 21
-219.289
  0
LINE
  8
0
 10
224.786
 20
-219.289
 11
223.861
 21
-218.364
  0
LINE
  8
0
 10
223.861
 20
-218.364
 11
223.037
 21
-217.347
  0
LINE
  8
0
 10
223.037
 20
-217.347
 11
222.325
 21
-216.25
  0
LINE
  8
0
 10
222.325
 20
-216.25
 11
221.731
 21
-215.084
  0
LINE
  8
0
 10
221.731
 20
-215.084
 11
221.262
 21
-213.863
  0
LINE
  8
0
 10
221.262
 20
-213.863
 11
220.923
 21
-212.599
  0
LINE
  8
0
 10
220.923
 20
-212.599
 11
220.718
 21
-211.307
  0
LINE
  8
0
 10
220.718
 20
-211.307
 11
220.65
 21
-210
  0
LINE
  8
0
 10
220.65
 20
-210
 11
220.718
 21
-208.693
  0
LINE
  8
0
 10
220.718
 20
-208.693
 11
220.923
 21
-207.401
  0
LINE
  8
0
 10
220.923
 20
-207.401
 11
221.262
 21
-206.137
  0
LINE
  8
0
 10
221.262
 20
-206.137
 11
221.731
 21
-204.916
  0
LINE
  8
0
 10
221.731
 20
-204.916
 11
222.325
 21
-203.75
  0
LINE
  8
0
 10
222.325
 20
-203.75
 11
223.037
 21
-202.653
  0
LINE
  8
0
 10
223.037
 20
-202.653
 11
223.861
 21
-201.636
  0
LINE
  8
0
 10
223.861
 20
-201.636
 11
224.786
 21
-200.711
  0
LINE
  8
0
 10
224.786
 20
-200.711
 11
225.803
 21
-199.887
  0
LINE
  8
0
 10
225.803
 20
-199.887
 11
226.9
 21
-199.175
  0
LINE
  8
0
 10
226.9
 20
-199.175
 11
228.066
 21
-198.581
  0
LINE
  8
0
 10
228.066
 20
-198.581
 11
229.287
 21
-198.112
  0
LINE
  8
0
 10
229.287
 20
-198.112
 11
230.551
 21
-197.773
  0
LINE
  8
0
 10
230.551
 20
-197.773
 11
231.843
 21
-197.568
  0
LINE
  8
0
 10
231.843
 20
-197.568
 11
233.15
 21
-197.5
  0
LINE
  8
0
 10
233.15
 20
-197.5
 11
241.15
 21
-197.5
  0
LINE
  8
0
 10
241.15
 20
-197.5
 11
242.457
 21
-197.568
  0
LINE
  8
0
 10
242.457
 20
-197.568
 11
243.749
 21
-197.773
  0
LINE
  8
0
 10
243.749
 20
-197.773
 11
245.013
 21
-198.112
  0
LINE
  8
0
 10
245.013
 20
-198.112
 11
246.234
 21
-198.581
  0
LINE
  8
0
 10
246.234
 20
-198.581
 11
247.4
 21
-199.175
  0
LINE
  8
0
 10
247.4
 20
-199.175
 11
248.497
 21
-199.887
  0
LINE
  8
0
 10
248.497
 20
-199.887
 11
249.514
 21
-200.711
  0
LINE
  8
0
 10
249.514
 20
-200.711
 11
250.439
 21
-201.636
  0
LINE
  8
0
 10
250.439
 20
-201.636
 11
251.263
 21
-202.653
  0
LINE
  8
0
 10
251.263
 20
-202.653
 11
251.975
 21
-203.75
  0
LINE
  8
0
 10
251.975
 20
-203.75
 11
252.569
 21
-204.916
  0
LINE
  8
0
 10
252.569
 20
-204.916
 11
253.038
 21
-206.137
  0
LINE
  8
0
 10
253.038
 20
-206.137
 11
253.377
 21
-207.401
  0
LINE
  8
0
 10
253.377
 20
-207.401
 11
253.582
 21
-208.693
  0
LINE
  8
0
 10
253.582
 20
-208.693
 11
253.65
 21
-210
  0
LINE
  8
0
 10
253.65
 20
-210
 11
253.582
 21
-211.307
  0
LINE
  8
0
 10
253.582
 20
-211.307
 11
253.377
 21
-212.599
  0
LINE
  8
0
 10
253.377
 20
-212.599
 11
253.038
 21
-213.863
  0
LINE
  8
0
 10
253.038
 20
-213.863
 11
252.569
 21
-215.084
  0
LINE
  8
0
 10
252.569
 20
-215.084
 11
251.975
 21
-216.25
  0
LINE
  8
0
 10
251.975
 20
-216.25
 11
251.263
 21
-217.347
  0
LINE
  8
0
 10
251.263
 20
-217.347
 11
250.439
 21
-218.364
  0
LINE
  8
0
 10
250.439
 20
-218.364
 11
249.514
 21
-219.289
  0
LINE
  8
0
 10
249.514
 20
-219.289
 11
248.497
 21
-220.113
  0
LINE
  8
0
 10
248.497
 20
-220.113
 11
247.4
 21
-220.825
  0
LINE
  8
0
 10
247.4
 20
-220.825
 11
246.234
 21
-221.419
  0
LINE
  8
0
 10
246.234
 20
-221.419
 11
245.013
 21
-221.888
  0
LINE
  8
0
 10
245.013
 20
-221.888
 11
243.749
 21
-222.227
  0
LINE
  8
0
 10
243.749
 20
-222.227
 11
242.457
 21
-222.432
  0
LINE
  8
0
 10
242.457
 20
-222.432
 11
241.15
 21
-222.5
  0
LINE
  8
0
 10
241.15
 20
-222.5
 11
233.15
 21
-222.5
  0
LINE
  8
0
 10
-228.744
 20
-200.226
 11
-228.978
 21
-200.155
  0
LINE
  8
0
 10
-228.978
 20
-200.155
 11
-229.194
 21
-200.039
  0
LINE
  8
0
 10
-229.194
 20
-200.039
 11
-229.384
 21
-199.884
  0
LINE
  8
0
 10
-229.384
 20
-199.884
 11
-229.539
 21
-199.694
  0
LINE
  8
0
 10
-229.539
 20
-199.694
 11
-229.655
 21
-199.478
  0
LINE
  8
0
 10
-229.655
 20
-199.478
 11
-229.726
 21
-199.244
  0
LINE
  8
0
 10
-229.726
 20
-199.244
 11
-229.75
 21
-199
  0
LINE
  8
0
 10
-229.75
 20
-199
 11
-229.726
 21
-198.756
  0
LINE
  8
0
 10
-229.726
 20
-198.756
 11
-229.655
 21
-198.522
  0
LINE
  8
0
 10
-229.655
 20
-198.522
 11
-229.539
 21
-198.306
  0
LINE
  8
0
 10
-229.539
 20
-198.306
 11
-229.384
 21
-198.116
  0
LINE
  8
0
 10
-229.384
 20
-198.116
 11
-229.194
 21
-197.961
  0
LINE
  8
0
 10
-229.194
 20
-197.961
 11
-228.978
 21
-197.845
  0
LINE
  8
0
 10
-228.978
 20
-197.845
 11
-228.744
 21
-197.774
  0
LINE
  8
0
 10
-228.744
 20
-197.774
 11
-228.5
 21
-197.75
  0
LINE
  8
0
 10
-228.5
 20
-197.75
 11
-228.256
 21
-197.774
  0
LINE
  8
0
 10
-228.256
 20
-197.774
 11
-228.022
 21
-197.845
  0
LINE
  8
0
 10
-228.022
 20
-197.845
 11
-227.806
 21
-197.961
  0
LINE
  8
0
 10
-227.806
 20
-197.961
 11
-227.616
 21
-198.116
  0
LINE
  8
0
 10
-227.616
 20
-198.116
 11
-227.461
 21
-198.306
  0
LINE
  8
0
 10
-227.461
 20
-198.306
 11
-227.345
 21
-198.522
  0
LINE
  8
0
 10
-227.345
 20
-198.522
 11
-227.274
 21
-198.756
  0
LINE
  8
0
 10
-227.274
 20
-198.756
 11
-227.25
 21
-199
  0
LINE
  8
0
 10
-227.25
 20
-199
 11
-227.274
 21
-199.244
  0
LINE
  8
0
 10
-227.274
 20
-199.244
 11
-227.345
 21
-199.478
  0
LINE
  8
0
 10
-227.345
 20
-199.478
 11
-227.461
 21
-199.694
  0
LINE
  8
0
 10
-227.461
 20
-199.694
 11
-227.616
 21
-199.884
  0
LINE
  8
0
 10
-227.616
 20
-199.884
 11
-227.806
 21
-200.039
  0
LINE
  8
0
 10
-227.806
 20
-200.039
 11
-228.022
 21
-200.155
  0
LINE
  8
0
 10
-228.022
 20
-200.155
 11
-228.256
 21
-200.226
  0
LINE
  8
0
 10
-228.256
 20
-200.226
 11
-228.5
 21
-200.25
  0
LINE
  8
0
 10
-228.5
 20
-200.25
 11
-228.744
 21
-200.226
  0
LINE
  8
0
 10
-239.894
 20
-211.226
 11
-240.128
 21
-211.155
  0
LINE
  8
0
 10
-240.128
 20
-211.155
 11
-240.344
 21
-211.039
  0
LINE
  8
0
 10
-240.344
 20
-211.039
 11
-240.534
 21
-210.884
  0
LINE
  8
0
 10
-240.534
 20
-210.884
 11
-240.689
 21
-210.694
  0
LINE
  8
0
 10
-240.689
 20
-210.694
 11
-240.805
 21
-210.478
  0
LINE
  8
0
 10
-240.805
 20
-210.478
 11
-240.876
 21
-210.244
  0
LINE
  8
0
 10
-240.876
 20
-210.244
 11
-240.9
 21
-210
  0
LINE
  8
0
 10
-240.9
 20
-210
 11
-240.876
 21
-209.756
  0
LINE
  8
0
 10
-240.876
 20
-209.756
 11
-240.805
 21
-209.522
  0
LINE
  8
0
 10
-240.805
 20
-209.522
 11
-240.689
 21
-209.306
  0
LINE
  8
0
 10
-240.689
 20
-209.306
 11
-240.534
 21
-209.116
  0
LINE
  8
0
 10
-240.534
 20
-209.116
 11
-240.344
 21
-208.961
  0
LINE
  8
0
 10
-240.344
 20
-208.961
 11
-240.128
 21
-208.845
  0
LINE
  8
0
 10
-240.128
 20
-208.845
 11
-239.894
 21
-208.774
  0
LINE
  8
0
 10
-239.894
 20
-208.774
 11
-239.65
 21
-208.75
  0
LINE
  8
0
 10
-239.65
 20
-208.75
 11
-239.406
 21
-208.774
  0
LINE
  8
0
 10
-239.406
 20
-208.774
 11
-239.172
 21
-208.845
  0
LINE
  8
0
 10
-239.172
 20
-208.845
 11
-238.956
 21
-208.961
  0
LINE
  8
0
 10
-238.956
 20
-208.961
 11
-238.766
 21
-209.116
  0
LINE
  8
0
 10
-238.766
 20
-209.116
 11
-238.611
 21
-209.306
  0
LINE
  8
0
 10
-238.611
 20
-209.306
 11
-238.495
 21
-209.522
  0
LINE
  8
0
 10
-238.495
 20
-209.522
 11
-238.424
 21
-209.756
  0
LINE
  8
0
 10
-238.424
 20
-209.756
 11
-238.4
 21
-210
  0
LINE
  8
0
 10
-238.4
 20
-210
 11
-238.424
 21
-210.244
  0
LINE
  8
0
 10
-238.424
 20
-210.244
 11
-238.495
 21
-210.478
  0
LINE
  8
0
 10
-238.495
 20
-210.478
 11
-238.611
 21
-210.694
  0
LINE
  8
0
 10
-238.611
 20
-210.694
 11
-238.766
 21
-210.884
  0
LINE
  8
0
 10
-238.766
 20
-210.884
 11
-238.956
 21
-211.039
  0
LINE
  8
0
 10
-238.956
 20
-211.039
 11
-239.172
 21
-211.155
  0
LINE
  8
0
 10
-239.172
 20
-211.155
 11
-239.406
 21
-211.226
  0
LINE
  8
0
 10
-239.406
 20
-211.226
 11
-239.65
 21
-211.25
  0
LINE
  8
0
 10
-239.65
 20
-211.25
 11
-239.894
 21
-211.226
  0
LINE
  8
0
 10
-190.523
 20
-227.473
 11
-191.04
 21
-227.391
  0
LINE
  8
0
 10
-191.04
 20
-227.391
 11
-191.545
 21
-227.255
  0
LINE
  8
0
 10
-191.545
 20
-227.255
 11
-192.034
 21
-227.068
  0
LINE
  8
0
 10
-192.034
 20
-227.068
 11
-192.5
 21
-226.83
  0
LINE
  8
0
 10
-192.5
 20
-226.83
 11
-192.939
 21
-226.545
  0
LINE
  8
0
 10
-192.939
 20
-226.545
 11
-193.346
 21
-226.216
  0
LINE
  8
0
 10
-193.346
 20
-226.216
 11
-193.716
 21
-225.846
  0
LINE
  8
0
 10
-193.716
 20
-225.846
 11
-194.045
 21
-225.439
  0
LINE
  8
0
 10
-194.045
 20
-225.439
 11
-194.33
 21
-225
  0
LINE
  8
0
 10
-194.33
 20
-225
 11
-194.568
 21
-224.534
  0
LINE
  8
0
 10
-194.568
 20
-224.534
 11
-194.755
 21
-224.045
  0
LINE
  8
0
 10
-194.755
 20
-224.045
 11
-194.891
 21
-223.54
  0
LINE
  8
0
 10
-194.891
 20
-223.54
 11
-194.973
 21
-223.023
  0
LINE
  8
0
 10
-194.973
 20
-223.023
 11
-195
 21
-222.5
  0
LINE
  8
0
 10
-195
 20
-222.5
 11
-194.973
 21
-221.977
  0
LINE
  8
0
 10
-194.973
 20
-221.977
 11
-194.891
 21
-221.46
  0
LINE
  8
0
 10
-194.891
 20
-221.46
 11
-194.755
 21
-220.955
  0
LINE
  8
0
 10
-194.755
 20
-220.955
 11
-194.568
 21
-220.466
  0
LINE
  8
0
 10
-194.568
 20
-220.466
 11
-194.33
 21
-220
  0
LINE
  8
0
 10
-194.33
 20
-220
 11
-194.045
 21
-219.561
  0
LINE
  8
0
 10
-194.045
 20
-219.561
 11
-193.716
 21
-219.154
  0
LINE
  8
0
 10
-193.716
 20
-219.154
 11
-193.346
 21
-218.784
  0
LINE
  8
0
 10
-193.346
 20
-218.784
 11
-192.939
 21
-218.455
  0
LINE
  8
0
 10
-192.939
 20
-218.455
 11
-192.5
 21
-218.17
  0
LINE
  8
0
 10
-192.5
 20
-218.17
 11
-192.034
 21
-217.932
  0
LINE
  8
0
 10
-192.034
 20
-217.932
 11
-191.545
 21
-217.745
  0
LINE
  8
0
 10
-191.545
 20
-217.745
 11
-191.04
 21
-217.609
  0
LINE
  8
0
 10
-191.04
 20
-217.609
 11
-190.523
 21
-217.527
  0
LINE
  8
0
 10
-190.523
 20
-217.527
 11
-190
 21
-217.5
  0
LINE
  8
0
 10
-190
 20
-217.5
 11
-189.477
 21
-217.527
  0
LINE
  8
0
 10
-189.477
 20
-217.527
 11
-188.96
 21
-217.609
  0
LINE
  8
0
 10
-188.96
 20
-217.609
 11
-188.455
 21
-217.745
  0
LINE
  8
0
 10
-188.455
 20
-217.745
 11
-187.966
 21
-217.932
  0
LINE
  8
0
 10
-187.966
 20
-217.932
 11
-187.5
 21
-218.17
  0
LINE
  8
0
 10
-187.5
 20
-218.17
 11
-187.061
 21
-218.455
  0
LINE
  8
0
 10
-187.061
 20
-218.455
 11
-186.654
 21
-218.784
  0
LINE
  8
0
 10
-186.654
 20
-218.784
 11
-186.284
 21
-219.154
  0
LINE
  8
0
 10
-186.284
 20
-219.154
 11
-185.955
 21
-219.561
  0
LINE
  8
0
 10
-185.955
 20
-219.561
 11
-185.67
 21
-220
  0
LINE
  8
0
 10
-185.67
 20
-220
 11
-185.432
 21
-220.466
  0
LINE
  8
0
 10
-185.432
 20
-220.466
 11
-185.245
 21
-220.955
  0
LINE
  8
0
 10
-185.245
 20
-220.955
 11
-185.109
 21
-221.46
  0
LINE
  8
0
 10
-185.109
 20
-221.46
 11
-185.027
 21
-221.977
  0
LINE
  8
0
 10
-185.027
 20
-221.977
 11
-185
 21
-222.5
  0
LINE
  8
0
 10
-185
 20
-222.5
 11
-185.027
 21
-223.023
  0
LINE
  8
0
 10
-185.027
 20
-223.023
 11
-185.109
 21
-223.54
  0
LINE
  8
0
 10
-185.109
 20
-223.54
 11
-185.245
 21
-224.045
  0
LINE
  8
0
 10
-185.245
 20
-224.045
 11
-185.432
 21
-224.534
  0
LINE
  8
0
 10
-185.432
 20
-224.534
 11
-185.67
 21
-225
  0
LINE
  8
0
 10
-185.67
 20
-225
 11
-185.955
 21
-225.439
  0
LINE
  8
0
 10
-185.955
 20
-225.439
 11
-186.284
 21
-225.846
  0
LINE
  8
0
 10
-186.284
 20
-225.846
 11
-186.654
 21
-226.216
  0
LINE
  8
0
 10
-186.654
 20
-226.216
 11
-187.061
 21
-226.545
  0
LINE
  8
0
 10
-187.061
 20
-226.545
 11
-187.5
 21
-226.83
  0
LINE
  8
0
 10
-187.5
 20
-226.83
 11
-187.966
 21
-227.068
  0
LINE
  8
0
 10
-187.966
 20
-227.068
 11
-188.455
 21
-227.255
  0
LINE
  8
0
 10
-188.455
 20
-227.255
 11
-188.96
 21
-227.391
  0
LINE
  8
0
 10
-188.96
 20
-227.391
 11
-189.477
 21
-227.473
  0
LINE
  8
0
 10
-189.477
 20
-227.473
 11
-190
 21
-227.5
  0
LINE
  8
0
 10
-190
 20
-227.5
 11
-190.523
 21
-227.473
  0
LINE
  8
0
 10
189.477
 20
-227.473
 11
188.96
 21
-227.391
  0
LINE
  8
0
 10
188.96
 20
-227.391
 11
188.455
 21
-227.255
  0
LINE
  8
0
 10
188.455
 20
-227.255
 11
187.966
 21
-227.068
  0
LINE
  8
0
 10
187.966
 20
-227.068
 11
187.5
 21
-226.83
  0
LINE
  8
0
 10
187.5
 20
-226.83
 11
187.061
 21
-226.545
  0
LINE
  8
0
 10
187.061
 20
-226.545
 11
186.654
 21
-226.216
  0
LINE
  8
0
 10
186.654
 20
-226.216
 11
186.284
 21
-225.846
  0
LINE
  8
0
 10
186.284
 20
-225.846
 11
185.955
 21
-225.439
  0
LINE
  8
0
 10
185.955
 20
-225.439
 11
185.67
 21
-225
  0
LINE
  8
0
 10
185.67
 20
-225
 11
185.432
 21
-224.534
  0
LINE
  8
0
 10
185.432
 20
-224.534
 11
185.245
 21
-224.045
  0
LINE
  8
0
 10
185.245
 20
-224.045
 11
185.109
 21
-223.54
  0
LINE
  8
0
 10
185.109
 20
-223.54
 11
185.027
 21
-223.023
  0
LINE
  8
0
 10
185.027
 20
-223.023
 11
185
 21
-222.5
  0
LINE
  8
0
 10
185
 20
-222.5
 11
185.027
 21
-221.977
  0
LINE
  8
0
 10
185.027
 20
-221.977
 11
185.109
 21
-221.46
  0
LINE
  8
0
 10
185.109
 20
-221.46
 11
185.245
 21
-220.955
  0
LINE
  8
0
 10
185.245
 20
-220.955
 11
185.432
 21
-220.466
  0
LINE
  8
0
 10
185.432
 20
-220.466
 11
185.67
 21
-220
  0
LINE
  8
0
 10
185.67
 20
-220
 11
185.955
 21
-219.561
  0
LINE
  8
0
 10
185.955
 20
-219.561
 11
186.284
 21
-219.154
  0
LINE
  8
0
 10
186.284
 20
-219.154
 11
186.654
 21
-218.784
  0
LINE
  8
0
 10
186.654
 20
-218.784
 11
187.061
 21
-218.455
  0
LINE
  8
0
 10
187.061
 20
-218.455
 11
187.5
 21
-218.17
  0
LINE
  8
0
 10
187.5
 20
-218.17
 11
187.966
 21
-217.932
  0
LINE
  8
0
 10
187.966
 20
-217.932
 11
188.455
 21
-217.745
  0
LINE
  8
0
 10
188.455
 20
-217.745
 11
188.96
 21
-217.609
  0
LINE
  8
0
 10
188.96
 20
-217.609
 11
189.477
 21
-217.527
  0
LINE
  8
0
 10
189.477
 20
-217.527
 11
190
 21
-217.5
  0
LINE
  8
0
 10
190
 20
-217.5
 11
190.523
 21
-217.527
  0
LINE
  8
0
 10
190.523
 20
-217.527
 11
191.04
 21
-217.609
  0
LINE
  8
0
 10
191.04
 20
-217.609
 11
191.545
 21
-217.745
  0
LINE
  8
0
 10
191.545
 20
-217.745
 11
192.034
 21
-217.932
  0
LINE
  8
0
 10
192.034
 20
-217.932
 11
192.5
 21
-218.17
  0
LINE
  8
0
 10
192.5
 20
-218.17
 11
192.939
 21
-218.455
  0
LINE
  8
0
 10
192.939
 20
-218.455
 11
193.346
 21
-218.784
  0
LINE
  8
0
 10
193.346
 20
-218.784
 11
193.716
 21
-219.154
  0
LINE
  8
0
 10
193.716
 20
-219.154
 11
194.045
 21
-219.561
  0
LINE
  8
0
 10
194.045
 20
-219.561
 11
194.33
 21
-220
  0
LINE
  8
0
 10
194.33
 20
-220
 11
194.568
 21
-220.466
  0
LINE
  8
0
 10
194.568
 20
-220.466
 11
194.755
 21
-220.955
  0
LINE
  8
0
 10
194.755
 20
-220.955
 11
194.891
 21
-221.46
  0
LINE
  8
0
 10
194.891
 20
-221.46
 11
194.973
 21
-221.977
  0
LINE
  8
0
 10
194.973
 20
-221.977
 11
195
 21
-222.5
  0
LINE
  8
0
 10
195
 20
-222.5
 11
194.973
 21
-223.023
  0
LINE
  8
0
 10
194.973
 20
-223.023
 11
194.891
 21
-223.54
  0
LINE
  8
0
 10
194.891
 20
-223.54
 11
194.755
 21
-224.045
  0
LINE
  8
0
 10
194.755
 20
-224.045
 11
194.568
 21
-224.534
  0
LINE
  8
0
 10
194.568
 20
-224.534
 11
194.33
 21
-225
  0
LINE
  8
0
 10
194.33
 20
-225
 11
194.045
 21
-225.439
  0
LINE
  8
0
 10
194.045
 20
-225.439
 11
193.716
 21
-225.846
  0
LINE
  8
0
 10
193.716
 20
-225.846
 11
193.346
 21
-226.216
  0
LINE
  8
0
 10
193.346
 20
-226.216
 11
192.939
 21
-226.545
  0
LINE
  8
0
 10
192.939
 20
-226.545
 11
192.5
 21
-226.83
  0
LINE
  8
0
 10
192.5
 20
-226.83
 11
192.034
 21
-227.068
  0
LINE
  8
0
 10
192.034
 20
-227.068
 11
191.545
 21
-227.255
  0
LINE
  8
0
 10
191.545
 20
-227.255
 11
191.04
 21
-227.391
  0
LINE
  8
0
 10
191.04
 20
-227.391
 11
190.523
 21
-227.473
  0
LINE
  8
0
 10
190.523
 20
-227.473
 11
190
 21
-227.5
  0
LINE
  8
0
 10
190
 20
-227.5
 11
189.477
 21
-227.473
  0
LINE
  8
0
 10
-140
 20
-224.25
 11
-140.249
 21
-224.232
  0
LINE
  8
0
 10
-140.249
 20
-224.232
 11
-140.493
 21
-224.179
  0
LINE
  8
0
 10
-140.493
 20
-224.179
 11
-140.727
 21
-224.092
  0
LINE
  8
0
 10
-140.727
 20
-224.092
 11
-140.946
 21
-223.972
  0
LINE
  8
0
 10
-140.946
 20
-223.972
 11
-141.146
 21
-223.823
  0
LINE
  8
0
 10
-141.146
 20
-223.823
 11
-141.323
 21
-223.646
  0
LINE
  8
0
 10
-141.323
 20
-223.646
 11
-141.472
 21
-223.446
  0
LINE
  8
0
 10
-141.472
 20
-223.446
 11
-141.592
 21
-223.227
  0
LINE
  8
0
 10
-141.592
 20
-223.227
 11
-141.679
 21
-222.993
  0
LINE
  8
0
 10
-141.679
 20
-222.993
 11
-141.732
 21
-222.749
  0
LINE
  8
0
 10
-141.732
 20
-222.749
 11
-141.75
 21
-222.5
  0
LINE
  8
0
 10
-141.75
 20
-222.5
 11
-141.732
 21
-222.251
  0
LINE
  8
0
 10
-141.732
 20
-222.251
 11
-141.679
 21
-222.007
  0
LINE
  8
0
 10
-141.679
 20
-222.007
 11
-141.592
 21
-221.773
  0
LINE
  8
0
 10
-141.592
 20
-221.773
 11
-141.472
 21
-221.554
  0
LINE
  8
0
 10
-141.472
 20
-221.554
 11
-141.323
 21
-221.354
  0
LINE
  8
0
 10
-141.323
 20
-221.354
 11
-141.146
 21
-221.177
  0
LINE
  8
0
 10
-141.146
 20
-221.177
 11
-140.946
 21
-221.028
  0
LINE
  8
0
 10
-140.946
 20
-221.028
 11
-140.727
 21
-220.908
  0
LINE
  8
0
 10
-140.727
 20
-220.908
 11
-140.493
 21
-220.821
  0
LINE
  8
0
 10
-140.493
 20
-220.821
 11
-140.249
 21
-220.768
  0
LINE
  8
0
 10
-140.249
 20
-220.768
 11
-140
 21
-220.75
  0
LINE
  8
0
 10
-140
 20
-220.75
 11
171.667
 21
-220.75
  0
LINE
  8
0
 10
171.667
 20
-220.75
 11
171.916
 21
-220.768
  0
LINE
  8
0
 10
171.916
 20
-220.768
 11
172.16
 21
-220.821
  0
LINE
  8
0
 10
172.16
 20
-220.821
 11
172.394
 21
-220.908
  0
LINE
  8
0
 10
172.394
 20
-220.908
 11
172.613
 21
-221.028
  0
LINE
  8
0
 10
172.613
 20
-221.028
 11
172.813
 21
-221.177
  0
LINE
  8
0
 10
172.813
 20
-221.177
 11
172.989
 21
-221.354
  0
LINE
  8
0
 10
172.989
 20
-221.354
 11
173.139
 21
-221.554
  0
LINE
  8
0
 10
173.139
 20
-221.554
 11
173.259
 21
-221.773
  0
LINE
  8
0
 10
173.259
 20
-221.773
 11
173.346
 21
-222.007
  0
LINE
  8
0
 10
173.346
 20
-222.007
 11
173.399
 21
-222.251
  0
LINE
  8
0
 10
173.399
 20
-222.251
 11
173.417
 21
-222.5
  0
LINE
  8
0
 10
173.417
 20
-222.5
 11
173.399
 21
-222.749
  0
LINE
  8
0
 10
173.399
 20
-222.749
 11
173.346
 21
-222.993
  0
LINE
  8
0
 10
173.346
 20
-222.993
 11
173.259
 21
-223.227
  0
LINE
  8
0
 10
173.259
 20
-223.227
 11
173.139
 21
-223.446
  0
LINE
  8
0
 10
173.139
 20
-223.446
 11
172.989
 21
-223.646
  0
LINE
  8
0
 10
172.989
 20
-223.646
 11
172.813
 21
-223.823
  0
LINE
  8
0
 10
172.813
 20
-223.823
 11
172.613
 21
-223.972
  0
LINE
  8
0
 10
172.613
 20
-223.972
 11
172.394
 21
-224.092
  0
LINE
  8
0
 10
172.394
 20
-224.092
 11
172.16
 21
-224.179
  0
LINE
  8
0
 10
172.16
 20
-224.179
 11
171.916
 21
-224.232
  0
LINE
  8
0
 10
171.916
 20
-224.232
 11
171.667
 21
-224.25
  0
LINE
  8
0
 10
171.667
 20
-224.25
 11
-140
 21
-224.25
  0
LINE
  8
0
 10
-160.186
 20
-224.19
 11
-160.43
 21
-224.145
  0
LINE
  8
0
 10
-160.43
 20
-224.145
 11
-160.665
 21
-224.065
  0
LINE
  8
0
 10
-160.665
 20
-224.065
 11
-160.886
 21
-223.951
  0
LINE
  8
0
 10
-160.886
 20
-223.951
 11
-161.087
 21
-223.807
  0
LINE
  8
0
 10
-161.087
 20
-223.807
 11
-161.266
 21
-223.634
  0
LINE
  8
0
 10
-161.266
 20
-223.634
 11
-161.418
 21
-223.438
  0
LINE
  8
0
 10
-161.418
 20
-223.438
 11
-161.539
 21
-223.222
  0
LINE
  8
0
 10
-161.539
 20
-223.222
 11
-161.628
 21
-222.99
  0
LINE
  8
0
 10
-161.628
 20
-222.99
 11
-161.682
 21
-222.748
  0
LINE
  8
0
 10
-161.682
 20
-222.748
 11
-161.7
 21
-222.5
  0
LINE
  8
0
 10
-161.7
 20
-222.5
 11
-161.682
 21
-222.252
  0
LINE
  8
0
 10
-161.682
 20
-222.252
 11
-161.628
 21
-222.01
  0
LINE
  8
0
 10
-161.628
 20
-222.01
 11
-161.539
 21
-221.778
  0
LINE
  8
0
 10
-161.539
 20
-221.778
 11
-161.418
 21
-221.562
  0
LINE
  8
0
 10
-161.418
 20
-221.562
 11
-161.266
 21
-221.366
  0
LINE
  8
0
 10
-161.266
 20
-221.366
 11
-161.087
 21
-221.193
  0
LINE
  8
0
 10
-161.087
 20
-221.193
 11
-160.886
 21
-221.049
  0
LINE
  8
0
 10
-160.886
 20
-221.049
 11
-160.665
 21
-220.935
  0
LINE
  8
0
 10
-160.665
 20
-220.935
 11
-160.43
 21
-220.855
  0
LINE
  8
0
 10
-160.43
 20
-220.855
 11
-160.186
 21
-220.81
  0
LINE
  8
0
 10
-160.186
 20
-220.81
 11
-159.938
 21
-220.801
  0
LINE
  8
0
 10
-159.938
 20
-220.801
 11
-159.691
 21
-220.828
  0
LINE
  8
0
 10
-159.691
 20
-220.828
 11
-159.451
 21
-220.891
  0
LINE
  8
0
 10
-159.451
 20
-220.891
 11
-159.223
 21
-220.988
  0
LINE
  8
0
 10
-159.223
 20
-220.988
 11
-159.011
 21
-221.117
  0
LINE
  8
0
 10
-159.011
 20
-221.117
 11
-158.82
 21
-221.276
  0
LINE
  8
0
 10
-158.82
 20
-221.276
 11
-158.654
 21
-221.461
  0
LINE
  8
0
 10
-158.654
 20
-221.461
 11
-158.518
 21
-221.668
  0
LINE
  8
0
 10
-158.518
 20
-221.668
 11
-158.412
 21
-221.893
  0
LINE
  8
0
 10
-158.412
 20
-221.893
 11
-158.341
 21
-222.13
  0
LINE
  8
0
 10
-158.341
 20
-222.13
 11
-158.305
 21
-222.376
  0
LINE
  8
0
 10
-158.305
 20
-222.376
 11
-158.305
 21
-222.624
  0
LINE
  8
0
 10
-158.305
 20
-222.624
 11
-158.341
 21
-222.87
  0
LINE
  8
0
 10
-158.341
 20
-222.87
 11
-158.412
 21
-223.107
  0
LINE
  8
0
 10
-158.412
 20
-223.107
 11
-158.518
 21
-223.332
  0
LINE
  8
0
 10
-158.518
 20
-223.332
 11
-158.654
 21
-223.539
  0
LINE
  8
0
 10
-158.654
 20
-223.539
 11
-158.82
 21
-223.724
  0
LINE
  8
0
 10
-158.82
 20
-223.724
 11
-159.011
 21
-223.883
  0
LINE
  8
0
 10
-159.011
 20
-223.883
 11
-159.223
 21
-224.012
  0
LINE
  8
0
 10
-159.223
 20
-224.012
 11
-159.451
 21
-224.109
  0
LINE
  8
0
 10
-159.451
 20
-224.109
 11
-159.691
 21
-224.172
  0
LINE
  8
0
 10
-159.691
 20
-224.172
 11
-159.938
 21
-224.199
  0
LINE
  8
0
 10
-159.938
 20
-224.199
 11
-160.186
 21
-224.19
  0
LINE
  8
0
 10
249.027
 20
-227.145
 11
248.783
 21
-227.109
  0
LINE
  8
0
 10
248.783
 20
-227.109
 11
248.547
 21
-227.036
  0
LINE
  8
0
 10
248.547
 20
-227.036
 11
248.325
 21
-226.929
  0
LINE
  8
0
 10
248.325
 20
-226.929
 11
248.121
 21
-226.79
  0
LINE
  8
0
 10
248.121
 20
-226.79
 11
247.94
 21
-226.622
  0
LINE
  8
0
 10
247.94
 20
-226.622
 11
247.787
 21
-226.429
  0
LINE
  8
0
 10
247.787
 20
-226.429
 11
247.663
 21
-226.216
  0
LINE
  8
0
 10
247.663
 20
-226.216
 11
247.573
 21
-225.986
  0
LINE
  8
0
 10
247.573
 20
-225.986
 11
247.518
 21
-225.746
  0
LINE
  8
0
 10
247.518
 20
-225.746
 11
247.5
 21
-225.5
  0
LINE
  8
0
 10
247.5
 20
-225.5
 11
247.518
 21
-225.254
  0
LINE
  8
0
 10
247.518
 20
-225.254
 11
247.573
 21
-225.014
  0
LINE
  8
0
 10
247.573
 20
-225.014
 11
247.663
 21
-224.784
  0
LINE
  8
0
 10
247.663
 20
-224.784
 11
247.787
 21
-224.571
  0
LINE
  8
0
 10
247.787
 20
-224.571
 11
247.94
 21
-224.378
  0
LINE
  8
0
 10
247.94
 20
-224.378
 11
248.121
 21
-224.21
  0
LINE
  8
0
 10
248.121
 20
-224.21
 11
248.325
 21
-224.071
  0
LINE
  8
0
 10
248.325
 20
-224.071
 11
248.547
 21
-223.964
  0
LINE
  8
0
 10
248.547
 20
-223.964
 11
248.783
 21
-223.891
  0
LINE
  8
0
 10
248.783
 20
-223.891
 11
249.027
 21
-223.855
  0
LINE
  8
0
 10
249.027
 20
-223.855
 11
257.273
 21
-223.855
  0
LINE
  8
0
 10
257.273
 20
-223.855
 11
257.517
 21
-223.891
  0
LINE
  8
0
 10
257.517
 20
-223.891
 11
257.753
 21
-223.964
  0
LINE
  8
0
 10
257.753
 20
-223.964
 11
257.975
 21
-224.071
  0
LINE
  8
0
 10
257.975
 20
-224.071
 11
258.179
 21
-224.21
  0
LINE
  8
0
 10
258.179
 20
-224.21
 11
258.36
 21
-224.378
  0
LINE
  8
0
 10
258.36
 20
-224.378
 11
258.513
 21
-224.571
  0
LINE
  8
0
 10
258.513
 20
-224.571
 11
258.637
 21
-224.784
  0
LINE
  8
0
 10
258.637
 20
-224.784
 11
258.727
 21
-225.014
  0
LINE
  8
0
 10
258.727
 20
-225.014
 11
258.782
 21
-225.254
  0
LINE
  8
0
 10
258.782
 20
-225.254
 11
258.8
 21
-225.5
  0
LINE
  8
0
 10
258.8
 20
-225.5
 11
258.782
 21
-225.746
  0
LINE
  8
0
 10
258.782
 20
-225.746
 11
258.727
 21
-225.986
  0
LINE
  8
0
 10
258.727
 20
-225.986
 11
258.637
 21
-226.216
  0
LINE
  8
0
 10
258.637
 20
-226.216
 11
258.513
 21
-226.429
  0
LINE
  8
0
 10
258.513
 20
-226.429
 11
258.36
 21
-226.622
  0
LINE
  8
0
 10
258.36
 20
-226.622
 11
258.179
 21
-226.79
  0
LINE
  8
0
 10
258.179
 20
-226.79
 11
257.975
 21
-226.929
  0
LINE
  8
0
 10
257.975
 20
-226.929
 11
257.753
 21
-227.036
  0
LINE
  8
0
 10
257.753
 20
-227.036
 11
257.517
 21
-227.109
  0
LINE
  8
0
 10
257.517
 20
-227.109
 11
257.273
 21
-227.145
  0
LINE
  8
0
 10
257.273
 20
-227.145
 11
249.027
 21
-227.145
  0
LINE
  8
0
 10
218.027
 20
-227.145
 11
217.783
 21
-227.109
  0
LINE
  8
0
 10
217.783
 20
-227.109
 11
217.547
 21
-227.036
  0
LINE
  8
0
 10
217.547
 20
-227.036
 11
217.325
 21
-226.929
  0
LINE
  8
0
 10
217.325
 20
-226.929
 11
217.121
 21
-226.79
  0
LINE
  8
0
 10
217.121
 20
-226.79
 11
216.94
 21
-226.622
  0
LINE
  8
0
 10
216.94
 20
-226.622
 11
216.787
 21
-226.429
  0
LINE
  8
0
 10
216.787
 20
-226.429
 11
216.663
 21
-226.216
  0
LINE
  8
0
 10
216.663
 20
-226.216
 11
216.573
 21
-225.986
  0
LINE
  8
0
 10
216.573
 20
-225.986
 11
216.518
 21
-225.746
  0
LINE
  8
0
 10
216.518
 20
-225.746
 11
216.5
 21
-225.5
  0
LINE
  8
0
 10
216.5
 20
-225.5
 11
216.518
 21
-225.254
  0
LINE
  8
0
 10
216.518
 20
-225.254
 11
216.573
 21
-225.014
  0
LINE
  8
0
 10
216.573
 20
-225.014
 11
216.663
 21
-224.784
  0
LINE
  8
0
 10
216.663
 20
-224.784
 11
216.787
 21
-224.571
  0
LINE
  8
0
 10
216.787
 20
-224.571
 11
216.94
 21
-224.378
  0
LINE
  8
0
 10
216.94
 20
-224.378
 11
217.121
 21
-224.21
  0
LINE
  8
0
 10
217.121
 20
-224.21
 11
217.325
 21
-224.071
  0
LINE
  8
0
 10
217.325
 20
-224.071
 11
217.547
 21
-223.964
  0
LINE
  8
0
 10
217.547
 20
-223.964
 11
217.783
 21
-223.891
  0
LINE
  8
0
 10
217.783
 20
-223.891
 11
218.027
 21
-223.855
  0
LINE
  8
0
 10
218.027
 20
-223.855
 11
226.273
 21
-223.855
  0
LINE
  8
0
 10
226.273
 20
-223.855
 11
226.517
 21
-223.891
  0
LINE
  8
0
 10
226.517
 20
-223.891
 11
226.753
 21
-223.964
  0
LINE
  8
0
 10
226.753
 20
-223.964
 11
226.975
 21
-224.071
  0
LINE
  8
0
 10
226.975
 20
-224.071
 11
227.179
 21
-224.21
  0
LINE
  8
0
 10
227.179
 20
-224.21
 11
227.36
 21
-224.378
  0
LINE
  8
0
 10
227.36
 20
-224.378
 11
227.513
 21
-224.571
  0
LINE
  8
0
 10
227.513
 20
-224.571
 11
227.637
 21
-224.784
  0
LINE
  8
0
 10
227.637
 20
-224.784
 11
227.727
 21
-225.014
  0
LINE
  8
0
 10
227.727
 20
-225.014
 11
227.782
 21
-225.254
  0
LINE
  8
0
 10
227.782
 20
-225.254
 11
227.8
 21
-225.5
  0
LINE
  8
0
 10
227.8
 20
-225.5
 11
227.782
 21
-225.746
  0
LINE
  8
0
 10
227.782
 20
-225.746
 11
227.727
 21
-225.986
  0
LINE
  8
0
 10
227.727
 20
-225.986
 11
227.637
 21
-226.216
  0
LINE
  8
0
 10
227.637
 20
-226.216
 11
227.513
 21
-226.429
  0
LINE
  8
0
 10
227.513
 20
-226.429
 11
227.36
 21
-226.622
  0
LINE
  8
0
 10
227.36
 20
-226.622
 11
227.179
 21
-226.79
  0
LINE
  8
0
 10
227.179
 20
-226.79
 11
226.975
 21
-226.929
  0
LINE
  8
0
 10
226.975
 20
-226.929
 11
226.753
 21
-227.036
  0
LINE
  8
0
 10
226.753
 20
-227.036
 11
226.517
 21
-227.109
  0
LINE
  8
0
 10
226.517
 20
-227.109
 11
226.273
 21
-227.145
  0
LINE
  8
0
 10
226.273
 20
-227.145
 11
218.027
 21
-227.145
  0
ENDSEC
  0
SECTION
  2
OBJECTS
  0
DICTIONARY
  0
ENDSEC
  0
EOF
