  0
SECTION
  2
BLOCKS
  0
ENDSEC
  0
SECTION
  2
ENTITIES
  0
LINE
  8
0
 10
195.398
 20
-232.348
 11
195.915
 21
-232.266
  0
LINE
  8
0
 10
195.915
 20
-232.266
 11
196.42
 21
-232.13
  0
LINE
  8
0
 10
196.42
 20
-232.13
 11
196.909
 21
-231.943
  0
LINE
  8
0
 10
196.909
 20
-231.943
 11
197.375
 21
-231.705
  0
LINE
  8
0
 10
197.375
 20
-231.705
 11
197.814
 21
-231.42
  0
LINE
  8
0
 10
197.814
 20
-231.42
 11
198.221
 21
-231.091
  0
LINE
  8
0
 10
198.221
 20
-231.091
 11
198.591
 21
-230.721
  0
LINE
  8
0
 10
198.591
 20
-230.721
 11
198.92
 21
-230.314
  0
LINE
  8
0
 10
198.92
 20
-230.314
 11
199.205
 21
-229.875
  0
LINE
  8
0
 10
199.205
 20
-229.875
 11
199.443
 21
-229.409
  0
LINE
  8
0
 10
199.443
 20
-229.409
 11
199.63
 21
-228.92
  0
LINE
  8
0
 10
199.63
 20
-228.92
 11
199.766
 21
-228.415
  0
LINE
  8
0
 10
199.766
 20
-228.415
 11
199.848
 21
-227.898
  0
LINE
  8
0
 10
199.848
 20
-227.898
 11
199.875
 21
-227.375
  0
LINE
  8
0
 10
199.875
 20
-227.375
 11
199.875
 21
227.375
  0
LINE
  8
0
 10
199.875
 20
227.375
 11
199.848
 21
227.898
  0
LINE
  8
0
 10
199.848
 20
227.898
 11
199.766
 21
228.415
  0
LINE
  8
0
 10
199.766
 20
228.415
 11
199.63
 21
228.92
  0
LINE
  8
0
 10
199.63
 20
228.92
 11
199.443
 21
229.409
  0
LINE
  8
0
 10
199.443
 20
229.409
 11
199.205
 21
229.875
  0
LINE
  8
0
 10
199.205
 20
229.875
 11
198.92
 21
230.314
  0
LINE
  8
0
 10
198.92
 20
230.314
 11
198.591
 21
230.721
  0
LINE
  8
0
 10
198.591
 20
230.721
 11
198.221
 21
231.091
  0
LINE
  8
0
 10
198.221
 20
231.091
 11
197.814
 21
231.42
  0
LINE
  8
0
 10
197.814
 20
231.42
 11
197.375
 21
231.705
  0
LINE
  8
0
 10
197.375
 20
231.705
 11
196.909
 21
231.943
  0
LINE
  8
0
 10
196.909
 20
231.943
 11
196.42
 21
232.13
  0
LINE
  8
0
 10
196.42
 20
232.13
 11
195.915
 21
232.266
  0
LINE
  8
0
 10
195.915
 20
232.266
 11
195.398
 21
232.348
  0
LINE
  8
0
 10
195.398
 20
232.348
 11
194.875
 21
232.375
  0
LINE
  8
0
 10
194.875
 20
232.375
 11
-194.875
 21
232.375
  0
LINE
  8
0
 10
-194.875
 20
232.375
 11
-195.398
 21
232.348
  0
LINE
  8
0
 10
-195.398
 20
232.348
 11
-195.915
 21
232.266
  0
LINE
  8
0
 10
-195.915
 20
232.266
 11
-196.42
 21
232.13
  0
LINE
  8
0
 10
-196.42
 20
232.13
 11
-196.909
 21
231.943
  0
LINE
  8
0
 10
-196.909
 20
231.943
 11
-197.375
 21
231.705
  0
LINE
  8
0
 10
-197.375
 20
231.705
 11
-197.814
 21
231.42
  0
LINE
  8
0
 10
-197.814
 20
231.42
 11
-198.221
 21
231.091
  0
LINE
  8
0
 10
-198.221
 20
231.091
 11
-198.591
 21
230.721
  0
LINE
  8
0
 10
-198.591
 20
230.721
 11
-198.92
 21
230.314
  0
LINE
  8
0
 10
-198.92
 20
230.314
 11
-199.205
 21
229.875
  0
LINE
  8
0
 10
-199.205
 20
229.875
 11
-199.443
 21
229.409
  0
LINE
  8
0
 10
-199.443
 20
229.409
 11
-199.63
 21
228.92
  0
LINE
  8
0
 10
-199.63
 20
228.92
 11
-199.766
 21
228.415
  0
LINE
  8
0
 10
-199.766
 20
228.415
 11
-199.848
 21
227.898
  0
LINE
  8
0
 10
-199.848
 20
227.898
 11
-199.875
 21
227.375
  0
LINE
  8
0
 10
-199.875
 20
227.375
 11
-199.875
 21
-227.375
  0
LINE
  8
0
 10
-199.875
 20
-227.375
 11
-199.848
 21
-227.898
  0
LINE
  8
0
 10
-199.848
 20
-227.898
 11
-199.766
 21
-228.415
  0
LINE
  8
0
 10
-199.766
 20
-228.415
 11
-199.63
 21
-228.92
  0
LINE
  8
0
 10
-199.63
 20
-228.92
 11
-199.443
 21
-229.409
  0
LINE
  8
0
 10
-199.443
 20
-229.409
 11
-199.205
 21
-229.875
  0
LINE
  8
0
 10
-199.205
 20
-229.875
 11
-198.92
 21
-230.314
  0
LINE
  8
0
 10
-198.92
 20
-230.314
 11
-198.591
 21
-230.721
  0
LINE
  8
0
 10
-198.591
 20
-230.721
 11
-198.221
 21
-231.091
  0
LINE
  8
0
 10
-198.221
 20
-231.091
 11
-197.814
 21
-231.42
  0
LINE
  8
0
 10
-197.814
 20
-231.42
 11
-197.375
 21
-231.705
  0
LINE
  8
0
 10
-197.375
 20
-231.705
 11
-196.909
 21
-231.943
  0
LINE
  8
0
 10
-196.909
 20
-231.943
 11
-196.42
 21
-232.13
  0
LINE
  8
0
 10
-196.42
 20
-232.13
 11
-195.915
 21
-232.266
  0
LINE
  8
0
 10
-195.915
 20
-232.266
 11
-195.398
 21
-232.348
  0
LINE
  8
0
 10
-195.398
 20
-232.348
 11
-194.875
 21
-232.375
  0
LINE
  8
0
 10
-194.875
 20
-232.375
 11
194.875
 21
-232.375
  0
LINE
  8
0
 10
194.875
 20
-232.375
 11
195.398
 21
-232.348
  0
LINE
  8
0
 10
189.477
 20
217.527
 11
188.96
 21
217.609
  0
LINE
  8
0
 10
188.96
 20
217.609
 11
188.455
 21
217.745
  0
LINE
  8
0
 10
188.455
 20
217.745
 11
187.966
 21
217.932
  0
LINE
  8
0
 10
187.966
 20
217.932
 11
187.5
 21
218.17
  0
LINE
  8
0
 10
187.5
 20
218.17
 11
187.061
 21
218.455
  0
LINE
  8
0
 10
187.061
 20
218.455
 11
186.654
 21
218.784
  0
LINE
  8
0
 10
186.654
 20
218.784
 11
186.284
 21
219.154
  0
LINE
  8
0
 10
186.284
 20
219.154
 11
185.955
 21
219.561
  0
LINE
  8
0
 10
185.955
 20
219.561
 11
185.67
 21
220
  0
LINE
  8
0
 10
185.67
 20
220
 11
185.432
 21
220.466
  0
LINE
  8
0
 10
185.432
 20
220.466
 11
185.245
 21
220.955
  0
LINE
  8
0
 10
185.245
 20
220.955
 11
185.109
 21
221.46
  0
LINE
  8
0
 10
185.109
 20
221.46
 11
185.027
 21
221.977
  0
LINE
  8
0
 10
185.027
 20
221.977
 11
185
 21
222.5
  0
LINE
  8
0
 10
185
 20
222.5
 11
185.027
 21
223.023
  0
LINE
  8
0
 10
185.027
 20
223.023
 11
185.109
 21
223.54
  0
LINE
  8
0
 10
185.109
 20
223.54
 11
185.245
 21
224.045
  0
LINE
  8
0
 10
185.245
 20
224.045
 11
185.432
 21
224.534
  0
LINE
  8
0
 10
185.432
 20
224.534
 11
185.67
 21
225
  0
LINE
  8
0
 10
185.67
 20
225
 11
185.955
 21
225.439
  0
LINE
  8
0
 10
185.955
 20
225.439
 11
186.284
 21
225.846
  0
LINE
  8
0
 10
186.284
 20
225.846
 11
186.654
 21
226.216
  0
LINE
  8
0
 10
186.654
 20
226.216
 11
187.061
 21
226.545
  0
LINE
  8
0
 10
187.061
 20
226.545
 11
187.5
 21
226.83
  0
LINE
  8
0
 10
187.5
 20
226.83
 11
187.966
 21
227.068
  0
LINE
  8
0
 10
187.966
 20
227.068
 11
188.455
 21
227.255
  0
LINE
  8
0
 10
188.455
 20
227.255
 11
188.96
 21
227.391
  0
LINE
  8
0
 10
188.96
 20
227.391
 11
189.477
 21
227.473
  0
LINE
  8
0
 10
189.477
 20
227.473
 11
190
 21
227.5
  0
LINE
  8
0
 10
190
 20
227.5
 11
190.523
 21
227.473
  0
LINE
  8
0
 10
190.523
 20
227.473
 11
191.04
 21
227.391
  0
LINE
  8
0
 10
191.04
 20
227.391
 11
191.545
 21
227.255
  0
LINE
  8
0
 10
191.545
 20
227.255
 11
192.034
 21
227.068
  0
LINE
  8
0
 10
192.034
 20
227.068
 11
192.5
 21
226.83
  0
LINE
  8
0
 10
192.5
 20
226.83
 11
192.939
 21
226.545
  0
LINE
  8
0
 10
192.939
 20
226.545
 11
193.346
 21
226.216
  0
LINE
  8
0
 10
193.346
 20
226.216
 11
193.716
 21
225.846
  0
LINE
  8
0
 10
193.716
 20
225.846
 11
194.045
 21
225.439
  0
LINE
  8
0
 10
194.045
 20
225.439
 11
194.33
 21
225
  0
LINE
  8
0
 10
194.33
 20
225
 11
194.568
 21
224.534
  0
LINE
  8
0
 10
194.568
 20
224.534
 11
194.755
 21
224.045
  0
LINE
  8
0
 10
194.755
 20
224.045
 11
194.891
 21
223.54
  0
LINE
  8
0
 10
194.891
 20
223.54
 11
194.973
 21
223.023
  0
LINE
  8
0
 10
194.973
 20
223.023
 11
195
 21
222.5
  0
LINE
  8
0
 10
195
 20
222.5
 11
194.973
 21
221.977
  0
LINE
  8
0
 10
194.973
 20
221.977
 11
194.891
 21
221.46
  0
LINE
  8
0
 10
194.891
 20
221.46
 11
194.755
 21
220.955
  0
LINE
  8
0
 10
194.755
 20
220.955
 11
194.568
 21
220.466
  0
LINE
  8
0
 10
194.568
 20
220.466
 11
194.33
 21
220
  0
LINE
  8
0
 10
194.33
 20
220
 11
194.045
 21
219.561
  0
LINE
  8
0
 10
194.045
 20
219.561
 11
193.716
 21
219.154
  0
LINE
  8
0
 10
193.716
 20
219.154
 11
193.346
 21
218.784
  0
LINE
  8
0
 10
193.346
 20
218.784
 11
192.939
 21
218.455
  0
LINE
  8
0
 10
192.939
 20
218.455
 11
192.5
 21
218.17
  0
LINE
  8
0
 10
192.5
 20
218.17
 11
192.034
 21
217.932
  0
LINE
  8
0
 10
192.034
 20
217.932
 11
191.545
 21
217.745
  0
LINE
  8
0
 10
191.545
 20
217.745
 11
191.04
 21
217.609
  0
LINE
  8
0
 10
191.04
 20
217.609
 11
190.523
 21
217.527
  0
LINE
  8
0
 10
190.523
 20
217.527
 11
190
 21
217.5
  0
LINE
  8
0
 10
190
 20
217.5
 11
189.477
 21
217.527
  0
LINE
  8
0
 10
-190.523
 20
217.527
 11
-191.04
 21
217.609
  0
LINE
  8
0
 10
-191.04
 20
217.609
 11
-191.545
 21
217.745
  0
LINE
  8
0
 10
-191.545
 20
217.745
 11
-192.034
 21
217.932
  0
LINE
  8
0
 10
-192.034
 20
217.932
 11
-192.5
 21
218.17
  0
LINE
  8
0
 10
-192.5
 20
218.17
 11
-192.939
 21
218.455
  0
LINE
  8
0
 10
-192.939
 20
218.455
 11
-193.346
 21
218.784
  0
LINE
  8
0
 10
-193.346
 20
218.784
 11
-193.716
 21
219.154
  0
LINE
  8
0
 10
-193.716
 20
219.154
 11
-194.045
 21
219.561
  0
LINE
  8
0
 10
-194.045
 20
219.561
 11
-194.33
 21
220
  0
LINE
  8
0
 10
-194.33
 20
220
 11
-194.568
 21
220.466
  0
LINE
  8
0
 10
-194.568
 20
220.466
 11
-194.755
 21
220.955
  0
LINE
  8
0
 10
-194.755
 20
220.955
 11
-194.891
 21
221.46
  0
LINE
  8
0
 10
-194.891
 20
221.46
 11
-194.973
 21
221.977
  0
LINE
  8
0
 10
-194.973
 20
221.977
 11
-195
 21
222.5
  0
LINE
  8
0
 10
-195
 20
222.5
 11
-194.973
 21
223.023
  0
LINE
  8
0
 10
-194.973
 20
223.023
 11
-194.891
 21
223.54
  0
LINE
  8
0
 10
-194.891
 20
223.54
 11
-194.755
 21
224.045
  0
LINE
  8
0
 10
-194.755
 20
224.045
 11
-194.568
 21
224.534
  0
LINE
  8
0
 10
-194.568
 20
224.534
 11
-194.33
 21
225
  0
LINE
  8
0
 10
-194.33
 20
225
 11
-194.045
 21
225.439
  0
LINE
  8
0
 10
-194.045
 20
225.439
 11
-193.716
 21
225.846
  0
LINE
  8
0
 10
-193.716
 20
225.846
 11
-193.346
 21
226.216
  0
LINE
  8
0
 10
-193.346
 20
226.216
 11
-192.939
 21
226.545
  0
LINE
  8
0
 10
-192.939
 20
226.545
 11
-192.5
 21
226.83
  0
LINE
  8
0
 10
-192.5
 20
226.83
 11
-192.034
 21
227.068
  0
LINE
  8
0
 10
-192.034
 20
227.068
 11
-191.545
 21
227.255
  0
LINE
  8
0
 10
-191.545
 20
227.255
 11
-191.04
 21
227.391
  0
LINE
  8
0
 10
-191.04
 20
227.391
 11
-190.523
 21
227.473
  0
LINE
  8
0
 10
-190.523
 20
227.473
 11
-190
 21
227.5
  0
LINE
  8
0
 10
-190
 20
227.5
 11
-189.477
 21
227.473
  0
LINE
  8
0
 10
-189.477
 20
227.473
 11
-188.96
 21
227.391
  0
LINE
  8
0
 10
-188.96
 20
227.391
 11
-188.455
 21
227.255
  0
LINE
  8
0
 10
-188.455
 20
227.255
 11
-187.966
 21
227.068
  0
LINE
  8
0
 10
-187.966
 20
227.068
 11
-187.5
 21
226.83
  0
LINE
  8
0
 10
-187.5
 20
226.83
 11
-187.061
 21
226.545
  0
LINE
  8
0
 10
-187.061
 20
226.545
 11
-186.654
 21
226.216
  0
LINE
  8
0
 10
-186.654
 20
226.216
 11
-186.284
 21
225.846
  0
LINE
  8
0
 10
-186.284
 20
225.846
 11
-185.955
 21
225.439
  0
LINE
  8
0
 10
-185.955
 20
225.439
 11
-185.67
 21
225
  0
LINE
  8
0
 10
-185.67
 20
225
 11
-185.432
 21
224.534
  0
LINE
  8
0
 10
-185.432
 20
224.534
 11
-185.245
 21
224.045
  0
LINE
  8
0
 10
-185.245
 20
224.045
 11
-185.109
 21
223.54
  0
LINE
  8
0
 10
-185.109
 20
223.54
 11
-185.027
 21
223.023
  0
LINE
  8
0
 10
-185.027
 20
223.023
 11
-185
 21
222.5
  0
LINE
  8
0
 10
-185
 20
222.5
 11
-185.027
 21
221.977
  0
LINE
  8
0
 10
-185.027
 20
221.977
 11
-185.109
 21
221.46
  0
LINE
  8
0
 10
-185.109
 20
221.46
 11
-185.245
 21
220.955
  0
LINE
  8
0
 10
-185.245
 20
220.955
 11
-185.432
 21
220.466
  0
LINE
  8
0
 10
-185.432
 20
220.466
 11
-185.67
 21
220
  0
LINE
  8
0
 10
-185.67
 20
220
 11
-185.955
 21
219.561
  0
LINE
  8
0
 10
-185.955
 20
219.561
 11
-186.284
 21
219.154
  0
LINE
  8
0
 10
-186.284
 20
219.154
 11
-186.654
 21
218.784
  0
LINE
  8
0
 10
-186.654
 20
218.784
 11
-187.061
 21
218.455
  0
LINE
  8
0
 10
-187.061
 20
218.455
 11
-187.5
 21
218.17
  0
LINE
  8
0
 10
-187.5
 20
218.17
 11
-187.966
 21
217.932
  0
LINE
  8
0
 10
-187.966
 20
217.932
 11
-188.455
 21
217.745
  0
LINE
  8
0
 10
-188.455
 20
217.745
 11
-188.96
 21
217.609
  0
LINE
  8
0
 10
-188.96
 20
217.609
 11
-189.477
 21
217.527
  0
LINE
  8
0
 10
-189.477
 20
217.527
 11
-190
 21
217.5
  0
LINE
  8
0
 10
-190
 20
217.5
 11
-190.523
 21
217.527
  0
LINE
  8
0
 10
-50.1858
 20
220.258
 11
-50.4314
 21
220.292
  0
LINE
  8
0
 10
-50.4314
 20
220.292
 11
-50.6716
 21
220.353
  0
LINE
  8
0
 10
-50.6716
 20
220.353
 11
-50.9038
 21
220.44
  0
LINE
  8
0
 10
-50.9038
 20
220.44
 11
-51.125
 21
220.551
  0
LINE
  8
0
 10
-51.125
 20
220.551
 11
-51.3325
 21
220.687
  0
LINE
  8
0
 10
-51.3325
 20
220.687
 11
-51.5239
 21
220.845
  0
LINE
  8
0
 10
-51.5239
 20
220.845
 11
-51.6967
 21
221.022
  0
LINE
  8
0
 10
-51.6967
 20
221.022
 11
-51.849
 21
221.218
  0
LINE
  8
0
 10
-51.849
 20
221.218
 11
-51.9788
 21
221.429
  0
LINE
  8
0
 10
-51.9788
 20
221.429
 11
-52.0846
 21
221.653
  0
LINE
  8
0
 10
-52.0846
 20
221.653
 11
-52.1651
 21
221.888
  0
LINE
  8
0
 10
-52.1651
 20
221.888
 11
-52.2193
 21
222.13
  0
LINE
  8
0
 10
-52.2193
 20
222.13
 11
-52.2466
 21
222.376
  0
LINE
  8
0
 10
-52.2466
 20
222.376
 11
-52.2466
 21
222.624
  0
LINE
  8
0
 10
-52.2466
 20
222.624
 11
-52.2193
 21
222.87
  0
LINE
  8
0
 10
-52.2193
 20
222.87
 11
-52.1651
 21
223.112
  0
LINE
  8
0
 10
-52.1651
 20
223.112
 11
-52.0846
 21
223.347
  0
LINE
  8
0
 10
-52.0846
 20
223.347
 11
-51.9788
 21
223.571
  0
LINE
  8
0
 10
-51.9788
 20
223.571
 11
-51.849
 21
223.782
  0
LINE
  8
0
 10
-51.849
 20
223.782
 11
-51.6967
 21
223.978
  0
LINE
  8
0
 10
-51.6967
 20
223.978
 11
-51.5239
 21
224.155
  0
LINE
  8
0
 10
-51.5239
 20
224.155
 11
-51.3325
 21
224.313
  0
LINE
  8
0
 10
-51.3325
 20
224.313
 11
-51.125
 21
224.449
  0
LINE
  8
0
 10
-51.125
 20
224.449
 11
-50.9038
 21
224.56
  0
LINE
  8
0
 10
-50.9038
 20
224.56
 11
-50.6716
 21
224.647
  0
LINE
  8
0
 10
-50.6716
 20
224.647
 11
-50.4314
 21
224.708
  0
LINE
  8
0
 10
-50.4314
 20
224.708
 11
-50.1858
 21
224.742
  0
LINE
  8
0
 10
-50.1858
 20
224.742
 11
-49.938
 21
224.749
  0
LINE
  8
0
 10
-49.938
 20
224.749
 11
-49.6909
 21
224.729
  0
LINE
  8
0
 10
-49.6909
 20
224.729
 11
-49.4476
 21
224.681
  0
LINE
  8
0
 10
-49.4476
 20
224.681
 11
-49.2111
 21
224.607
  0
LINE
  8
0
 10
-49.2111
 20
224.607
 11
-48.984
 21
224.508
  0
LINE
  8
0
 10
-48.984
 20
224.508
 11
-48.7694
 21
224.384
  0
LINE
  8
0
 10
-48.7694
 20
224.384
 11
-48.5696
 21
224.237
  0
LINE
  8
0
 10
-48.5696
 20
224.237
 11
-48.3872
 21
224.069
  0
LINE
  8
0
 10
-48.3872
 20
224.069
 11
-48.2244
 21
223.882
  0
LINE
  8
0
 10
-48.2244
 20
223.882
 11
-48.0832
 21
223.678
  0
LINE
  8
0
 10
-48.0832
 20
223.678
 11
-47.9652
 21
223.46
  0
LINE
  8
0
 10
-47.9652
 20
223.46
 11
-47.8719
 21
223.231
  0
LINE
  8
0
 10
-47.8719
 20
223.231
 11
-47.8045
 21
222.992
  0
LINE
  8
0
 10
-47.8045
 20
222.992
 11
-47.7637
 21
222.748
  0
LINE
  8
0
 10
-47.7637
 20
222.748
 11
-47.75
 21
222.5
  0
LINE
  8
0
 10
-47.75
 20
222.5
 11
-47.7637
 21
222.252
  0
LINE
  8
0
 10
-47.7637
 20
222.252
 11
-47.8045
 21
222.008
  0
LINE
  8
0
 10
-47.8045
 20
222.008
 11
-47.8719
 21
221.769
  0
LINE
  8
0
 10
-47.8719
 20
221.769
 11
-47.9652
 21
221.54
  0
LINE
  8
0
 10
-47.9652
 20
221.54
 11
-48.0832
 21
221.322
  0
LINE
  8
0
 10
-48.0832
 20
221.322
 11
-48.2244
 21
221.118
  0
LINE
  8
0
 10
-48.2244
 20
221.118
 11
-48.3872
 21
220.931
  0
LINE
  8
0
 10
-48.3872
 20
220.931
 11
-48.5696
 21
220.763
  0
LINE
  8
0
 10
-48.5696
 20
220.763
 11
-48.7694
 21
220.616
  0
LINE
  8
0
 10
-48.7694
 20
220.616
 11
-48.984
 21
220.492
  0
LINE
  8
0
 10
-48.984
 20
220.492
 11
-49.2111
 21
220.393
  0
LINE
  8
0
 10
-49.2111
 20
220.393
 11
-49.4476
 21
220.319
  0
LINE
  8
0
 10
-49.4476
 20
220.319
 11
-49.6909
 21
220.271
  0
LINE
  8
0
 10
-49.6909
 20
220.271
 11
-49.938
 21
220.251
  0
LINE
  8
0
 10
-49.938
 20
220.251
 11
-50.1858
 21
220.258
  0
LINE
  8
0
 10
49.8142
 20
220.258
 11
49.5686
 21
220.292
  0
LINE
  8
0
 10
49.5686
 20
220.292
 11
49.3283
 21
220.353
  0
LINE
  8
0
 10
49.3283
 20
220.353
 11
49.0962
 21
220.44
  0
LINE
  8
0
 10
49.0962
 20
220.44
 11
48.875
 21
220.551
  0
LINE
  8
0
 10
48.875
 20
220.551
 11
48.6675
 21
220.687
  0
LINE
  8
0
 10
48.6675
 20
220.687
 11
48.4761
 21
220.845
  0
LINE
  8
0
 10
48.4761
 20
220.845
 11
48.3033
 21
221.022
  0
LINE
  8
0
 10
48.3033
 20
221.022
 11
48.151
 21
221.218
  0
LINE
  8
0
 10
48.151
 20
221.218
 11
48.0212
 21
221.429
  0
LINE
  8
0
 10
48.0212
 20
221.429
 11
47.9154
 21
221.653
  0
LINE
  8
0
 10
47.9154
 20
221.653
 11
47.8349
 21
221.888
  0
LINE
  8
0
 10
47.8349
 20
221.888
 11
47.7807
 21
222.13
  0
LINE
  8
0
 10
47.7807
 20
222.13
 11
47.7534
 21
222.376
  0
LINE
  8
0
 10
47.7534
 20
222.376
 11
47.7534
 21
222.624
  0
LINE
  8
0
 10
47.7534
 20
222.624
 11
47.7807
 21
222.87
  0
LINE
  8
0
 10
47.7807
 20
222.87
 11
47.8349
 21
223.112
  0
LINE
  8
0
 10
47.8349
 20
223.112
 11
47.9154
 21
223.347
  0
LINE
  8
0
 10
47.9154
 20
223.347
 11
48.0212
 21
223.571
  0
LINE
  8
0
 10
48.0212
 20
223.571
 11
48.151
 21
223.782
  0
LINE
  8
0
 10
48.151
 20
223.782
 11
48.3033
 21
223.978
  0
LINE
  8
0
 10
48.3033
 20
223.978
 11
48.4761
 21
224.155
  0
LINE
  8
0
 10
48.4761
 20
224.155
 11
48.6675
 21
224.313
  0
LINE
  8
0
 10
48.6675
 20
224.313
 11
48.875
 21
224.449
  0
LINE
  8
0
 10
48.875
 20
224.449
 11
49.0962
 21
224.56
  0
LINE
  8
0
 10
49.0962
 20
224.56
 11
49.3283
 21
224.647
  0
LINE
  8
0
 10
49.3283
 20
224.647
 11
49.5686
 21
224.708
  0
LINE
  8
0
 10
49.5686
 20
224.708
 11
49.8142
 21
224.742
  0
LINE
  8
0
 10
49.8142
 20
224.742
 11
50.062
 21
224.749
  0
LINE
  8
0
 10
50.062
 20
224.749
 11
50.309
 21
224.729
  0
LINE
  8
0
 10
50.309
 20
224.729
 11
50.5523
 21
224.681
  0
LINE
  8
0
 10
50.5523
 20
224.681
 11
50.7889
 21
224.607
  0
LINE
  8
0
 10
50.7889
 20
224.607
 11
51.0159
 21
224.508
  0
LINE
  8
0
 10
51.0159
 20
224.508
 11
51.2306
 21
224.384
  0
LINE
  8
0
 10
51.2306
 20
224.384
 11
51.4304
 21
224.237
  0
LINE
  8
0
 10
51.4304
 20
224.237
 11
51.6128
 21
224.069
  0
LINE
  8
0
 10
51.6128
 20
224.069
 11
51.7756
 21
223.882
  0
LINE
  8
0
 10
51.7756
 20
223.882
 11
51.9168
 21
223.678
  0
LINE
  8
0
 10
51.9168
 20
223.678
 11
52.0348
 21
223.46
  0
LINE
  8
0
 10
52.0348
 20
223.46
 11
52.1281
 21
223.231
  0
LINE
  8
0
 10
52.1281
 20
223.231
 11
52.1955
 21
222.992
  0
LINE
  8
0
 10
52.1955
 20
222.992
 11
52.2363
 21
222.748
  0
LINE
  8
0
 10
52.2363
 20
222.748
 11
52.25
 21
222.5
  0
LINE
  8
0
 10
52.25
 20
222.5
 11
52.2363
 21
222.252
  0
LINE
  8
0
 10
52.2363
 20
222.252
 11
52.1955
 21
222.008
  0
LINE
  8
0
 10
52.1955
 20
222.008
 11
52.1281
 21
221.769
  0
LINE
  8
0
 10
52.1281
 20
221.769
 11
52.0348
 21
221.54
  0
LINE
  8
0
 10
52.0348
 20
221.54
 11
51.9168
 21
221.322
  0
LINE
  8
0
 10
51.9168
 20
221.322
 11
51.7756
 21
221.118
  0
LINE
  8
0
 10
51.7756
 20
221.118
 11
51.6128
 21
220.931
  0
LINE
  8
0
 10
51.6128
 20
220.931
 11
51.4304
 21
220.763
  0
LINE
  8
0
 10
51.4304
 20
220.763
 11
51.2306
 21
220.616
  0
LINE
  8
0
 10
51.2306
 20
220.616
 11
51.0159
 21
220.492
  0
LINE
  8
0
 10
51.0159
 20
220.492
 11
50.7889
 21
220.393
  0
LINE
  8
0
 10
50.7889
 20
220.393
 11
50.5523
 21
220.319
  0
LINE
  8
0
 10
50.5523
 20
220.319
 11
50.309
 21
220.271
  0
LINE
  8
0
 10
50.309
 20
220.271
 11
50.062
 21
220.251
  0
LINE
  8
0
 10
50.062
 20
220.251
 11
49.8142
 21
220.258
  0
LINE
  8
0
 10
-150.186
 20
220.258
 11
-150.431
 21
220.292
  0
LINE
  8
0
 10
-150.431
 20
220.292
 11
-150.672
 21
220.353
  0
LINE
  8
0
 10
-150.672
 20
220.353
 11
-150.904
 21
220.44
  0
LINE
  8
0
 10
-150.904
 20
220.44
 11
-151.125
 21
220.551
  0
LINE
  8
0
 10
-151.125
 20
220.551
 11
-151.333
 21
220.687
  0
LINE
  8
0
 10
-151.333
 20
220.687
 11
-151.524
 21
220.845
  0
LINE
  8
0
 10
-151.524
 20
220.845
 11
-151.697
 21
221.022
  0
LINE
  8
0
 10
-151.697
 20
221.022
 11
-151.849
 21
221.218
  0
LINE
  8
0
 10
-151.849
 20
221.218
 11
-151.979
 21
221.429
  0
LINE
  8
0
 10
-151.979
 20
221.429
 11
-152.085
 21
221.653
  0
LINE
  8
0
 10
-152.085
 20
221.653
 11
-152.165
 21
221.888
  0
LINE
  8
0
 10
-152.165
 20
221.888
 11
-152.219
 21
222.13
  0
LINE
  8
0
 10
-152.219
 20
222.13
 11
-152.247
 21
222.376
  0
LINE
  8
0
 10
-152.247
 20
222.376
 11
-152.247
 21
222.624
  0
LINE
  8
0
 10
-152.247
 20
222.624
 11
-152.219
 21
222.87
  0
LINE
  8
0
 10
-152.219
 20
222.87
 11
-152.165
 21
223.112
  0
LINE
  8
0
 10
-152.165
 20
223.112
 11
-152.085
 21
223.347
  0
LINE
  8
0
 10
-152.085
 20
223.347
 11
-151.979
 21
223.571
  0
LINE
  8
0
 10
-151.979
 20
223.571
 11
-151.849
 21
223.782
  0
LINE
  8
0
 10
-151.849
 20
223.782
 11
-151.697
 21
223.978
  0
LINE
  8
0
 10
-151.697
 20
223.978
 11
-151.524
 21
224.155
  0
LINE
  8
0
 10
-151.524
 20
224.155
 11
-151.333
 21
224.313
  0
LINE
  8
0
 10
-151.333
 20
224.313
 11
-151.125
 21
224.449
  0
LINE
  8
0
 10
-151.125
 20
224.449
 11
-150.904
 21
224.56
  0
LINE
  8
0
 10
-150.904
 20
224.56
 11
-150.672
 21
224.647
  0
LINE
  8
0
 10
-150.672
 20
224.647
 11
-150.431
 21
224.708
  0
LINE
  8
0
 10
-150.431
 20
224.708
 11
-150.186
 21
224.742
  0
LINE
  8
0
 10
-150.186
 20
224.742
 11
-149.938
 21
224.749
  0
LINE
  8
0
 10
-149.938
 20
224.749
 11
-149.691
 21
224.729
  0
LINE
  8
0
 10
-149.691
 20
224.729
 11
-149.448
 21
224.681
  0
LINE
  8
0
 10
-149.448
 20
224.681
 11
-149.211
 21
224.607
  0
LINE
  8
0
 10
-149.211
 20
224.607
 11
-148.984
 21
224.508
  0
LINE
  8
0
 10
-148.984
 20
224.508
 11
-148.769
 21
224.384
  0
LINE
  8
0
 10
-148.769
 20
224.384
 11
-148.57
 21
224.237
  0
LINE
  8
0
 10
-148.57
 20
224.237
 11
-148.387
 21
224.069
  0
LINE
  8
0
 10
-148.387
 20
224.069
 11
-148.224
 21
223.882
  0
LINE
  8
0
 10
-148.224
 20
223.882
 11
-148.083
 21
223.678
  0
LINE
  8
0
 10
-148.083
 20
223.678
 11
-147.965
 21
223.46
  0
LINE
  8
0
 10
-147.965
 20
223.46
 11
-147.872
 21
223.231
  0
LINE
  8
0
 10
-147.872
 20
223.231
 11
-147.804
 21
222.992
  0
LINE
  8
0
 10
-147.804
 20
222.992
 11
-147.764
 21
222.748
  0
LINE
  8
0
 10
-147.764
 20
222.748
 11
-147.75
 21
222.5
  0
LINE
  8
0
 10
-147.75
 20
222.5
 11
-147.764
 21
222.252
  0
LINE
  8
0
 10
-147.764
 20
222.252
 11
-147.804
 21
222.008
  0
LINE
  8
0
 10
-147.804
 20
222.008
 11
-147.872
 21
221.769
  0
LINE
  8
0
 10
-147.872
 20
221.769
 11
-147.965
 21
221.54
  0
LINE
  8
0
 10
-147.965
 20
221.54
 11
-148.083
 21
221.322
  0
LINE
  8
0
 10
-148.083
 20
221.322
 11
-148.224
 21
221.118
  0
LINE
  8
0
 10
-148.224
 20
221.118
 11
-148.387
 21
220.931
  0
LINE
  8
0
 10
-148.387
 20
220.931
 11
-148.57
 21
220.763
  0
LINE
  8
0
 10
-148.57
 20
220.763
 11
-148.769
 21
220.616
  0
LINE
  8
0
 10
-148.769
 20
220.616
 11
-148.984
 21
220.492
  0
LINE
  8
0
 10
-148.984
 20
220.492
 11
-149.211
 21
220.393
  0
LINE
  8
0
 10
-149.211
 20
220.393
 11
-149.448
 21
220.319
  0
LINE
  8
0
 10
-149.448
 20
220.319
 11
-149.691
 21
220.271
  0
LINE
  8
0
 10
-149.691
 20
220.271
 11
-149.938
 21
220.251
  0
LINE
  8
0
 10
-149.938
 20
220.251
 11
-150.186
 21
220.258
  0
LINE
  8
0
 10
149.814
 20
220.258
 11
149.569
 21
220.292
  0
LINE
  8
0
 10
149.569
 20
220.292
 11
149.328
 21
220.353
  0
LINE
  8
0
 10
149.328
 20
220.353
 11
149.096
 21
220.44
  0
LINE
  8
0
 10
149.096
 20
220.44
 11
148.875
 21
220.551
  0
LINE
  8
0
 10
148.875
 20
220.551
 11
148.667
 21
220.687
  0
LINE
  8
0
 10
148.667
 20
220.687
 11
148.476
 21
220.845
  0
LINE
  8
0
 10
148.476
 20
220.845
 11
148.303
 21
221.022
  0
LINE
  8
0
 10
148.303
 20
221.022
 11
148.151
 21
221.218
  0
LINE
  8
0
 10
148.151
 20
221.218
 11
148.021
 21
221.429
  0
LINE
  8
0
 10
148.021
 20
221.429
 11
147.915
 21
221.653
  0
LINE
  8
0
 10
147.915
 20
221.653
 11
147.835
 21
221.888
  0
LINE
  8
0
 10
147.835
 20
221.888
 11
147.781
 21
222.13
  0
LINE
  8
0
 10
147.781
 20
222.13
 11
147.753
 21
222.376
  0
LINE
  8
0
 10
147.753
 20
222.376
 11
147.753
 21
222.624
  0
LINE
  8
0
 10
147.753
 20
222.624
 11
147.781
 21
222.87
  0
LINE
  8
0
 10
147.781
 20
222.87
 11
147.835
 21
223.112
  0
LINE
  8
0
 10
147.835
 20
223.112
 11
147.915
 21
223.347
  0
LINE
  8
0
 10
147.915
 20
223.347
 11
148.021
 21
223.571
  0
LINE
  8
0
 10
148.021
 20
223.571
 11
148.151
 21
223.782
  0
LINE
  8
0
 10
148.151
 20
223.782
 11
148.303
 21
223.978
  0
LINE
  8
0
 10
148.303
 20
223.978
 11
148.476
 21
224.155
  0
LINE
  8
0
 10
148.476
 20
224.155
 11
148.667
 21
224.313
  0
LINE
  8
0
 10
148.667
 20
224.313
 11
148.875
 21
224.449
  0
LINE
  8
0
 10
148.875
 20
224.449
 11
149.096
 21
224.56
  0
LINE
  8
0
 10
149.096
 20
224.56
 11
149.328
 21
224.647
  0
LINE
  8
0
 10
149.328
 20
224.647
 11
149.569
 21
224.708
  0
LINE
  8
0
 10
149.569
 20
224.708
 11
149.814
 21
224.742
  0
LINE
  8
0
 10
149.814
 20
224.742
 11
150.062
 21
224.749
  0
LINE
  8
0
 10
150.062
 20
224.749
 11
150.309
 21
224.729
  0
LINE
  8
0
 10
150.309
 20
224.729
 11
150.552
 21
224.681
  0
LINE
  8
0
 10
150.552
 20
224.681
 11
150.789
 21
224.607
  0
LINE
  8
0
 10
150.789
 20
224.607
 11
151.016
 21
224.508
  0
LINE
  8
0
 10
151.016
 20
224.508
 11
151.231
 21
224.384
  0
LINE
  8
0
 10
151.231
 20
224.384
 11
151.43
 21
224.237
  0
LINE
  8
0
 10
151.43
 20
224.237
 11
151.613
 21
224.069
  0
LINE
  8
0
 10
151.613
 20
224.069
 11
151.776
 21
223.882
  0
LINE
  8
0
 10
151.776
 20
223.882
 11
151.917
 21
223.678
  0
LINE
  8
0
 10
151.917
 20
223.678
 11
152.035
 21
223.46
  0
LINE
  8
0
 10
152.035
 20
223.46
 11
152.128
 21
223.231
  0
LINE
  8
0
 10
152.128
 20
223.231
 11
152.196
 21
222.992
  0
LINE
  8
0
 10
152.196
 20
222.992
 11
152.236
 21
222.748
  0
LINE
  8
0
 10
152.236
 20
222.748
 11
152.25
 21
222.5
  0
LINE
  8
0
 10
152.25
 20
222.5
 11
152.236
 21
222.252
  0
LINE
  8
0
 10
152.236
 20
222.252
 11
152.196
 21
222.008
  0
LINE
  8
0
 10
152.196
 20
222.008
 11
152.128
 21
221.769
  0
LINE
  8
0
 10
152.128
 20
221.769
 11
152.035
 21
221.54
  0
LINE
  8
0
 10
152.035
 20
221.54
 11
151.917
 21
221.322
  0
LINE
  8
0
 10
151.917
 20
221.322
 11
151.776
 21
221.118
  0
LINE
  8
0
 10
151.776
 20
221.118
 11
151.613
 21
220.931
  0
LINE
  8
0
 10
151.613
 20
220.931
 11
151.43
 21
220.763
  0
LINE
  8
0
 10
151.43
 20
220.763
 11
151.231
 21
220.616
  0
LINE
  8
0
 10
151.231
 20
220.616
 11
151.016
 21
220.492
  0
LINE
  8
0
 10
151.016
 20
220.492
 11
150.789
 21
220.393
  0
LINE
  8
0
 10
150.789
 20
220.393
 11
150.552
 21
220.319
  0
LINE
  8
0
 10
150.552
 20
220.319
 11
150.309
 21
220.271
  0
LINE
  8
0
 10
150.309
 20
220.271
 11
150.062
 21
220.251
  0
LINE
  8
0
 10
150.062
 20
220.251
 11
149.814
 21
220.258
  0
LINE
  8
0
 10
-190.309
 20
180.271
 11
-190.552
 21
180.319
  0
LINE
  8
0
 10
-190.552
 20
180.319
 11
-190.789
 21
180.393
  0
LINE
  8
0
 10
-190.789
 20
180.393
 11
-191.016
 21
180.492
  0
LINE
  8
0
 10
-191.016
 20
180.492
 11
-191.231
 21
180.616
  0
LINE
  8
0
 10
-191.231
 20
180.616
 11
-191.43
 21
180.763
  0
LINE
  8
0
 10
-191.43
 20
180.763
 11
-191.613
 21
180.931
  0
LINE
  8
0
 10
-191.613
 20
180.931
 11
-191.776
 21
181.118
  0
LINE
  8
0
 10
-191.776
 20
181.118
 11
-191.917
 21
181.322
  0
LINE
  8
0
 10
-191.917
 20
181.322
 11
-192.035
 21
181.54
  0
LINE
  8
0
 10
-192.035
 20
181.54
 11
-192.128
 21
181.769
  0
LINE
  8
0
 10
-192.128
 20
181.769
 11
-192.196
 21
182.008
  0
LINE
  8
0
 10
-192.196
 20
182.008
 11
-192.236
 21
182.252
  0
LINE
  8
0
 10
-192.236
 20
182.252
 11
-192.25
 21
182.5
  0
LINE
  8
0
 10
-192.25
 20
182.5
 11
-192.236
 21
182.748
  0
LINE
  8
0
 10
-192.236
 20
182.748
 11
-192.196
 21
182.992
  0
LINE
  8
0
 10
-192.196
 20
182.992
 11
-192.128
 21
183.231
  0
LINE
  8
0
 10
-192.128
 20
183.231
 11
-192.035
 21
183.46
  0
LINE
  8
0
 10
-192.035
 20
183.46
 11
-191.917
 21
183.678
  0
LINE
  8
0
 10
-191.917
 20
183.678
 11
-191.776
 21
183.882
  0
LINE
  8
0
 10
-191.776
 20
183.882
 11
-191.613
 21
184.069
  0
LINE
  8
0
 10
-191.613
 20
184.069
 11
-191.43
 21
184.237
  0
LINE
  8
0
 10
-191.43
 20
184.237
 11
-191.231
 21
184.384
  0
LINE
  8
0
 10
-191.231
 20
184.384
 11
-191.016
 21
184.508
  0
LINE
  8
0
 10
-191.016
 20
184.508
 11
-190.789
 21
184.607
  0
LINE
  8
0
 10
-190.789
 20
184.607
 11
-190.552
 21
184.681
  0
LINE
  8
0
 10
-190.552
 20
184.681
 11
-190.309
 21
184.729
  0
LINE
  8
0
 10
-190.309
 20
184.729
 11
-190.062
 21
184.749
  0
LINE
  8
0
 10
-190.062
 20
184.749
 11
-189.814
 21
184.742
  0
LINE
  8
0
 10
-189.814
 20
184.742
 11
-189.569
 21
184.708
  0
LINE
  8
0
 10
-189.569
 20
184.708
 11
-189.328
 21
184.647
  0
LINE
  8
0
 10
-189.328
 20
184.647
 11
-189.096
 21
184.56
  0
LINE
  8
0
 10
-189.096
 20
184.56
 11
-188.875
 21
184.449
  0
LINE
  8
0
 10
-188.875
 20
184.449
 11
-188.667
 21
184.313
  0
LINE
  8
0
 10
-188.667
 20
184.313
 11
-188.476
 21
184.155
  0
LINE
  8
0
 10
-188.476
 20
184.155
 11
-188.303
 21
183.978
  0
LINE
  8
0
 10
-188.303
 20
183.978
 11
-188.151
 21
183.782
  0
LINE
  8
0
 10
-188.151
 20
183.782
 11
-188.021
 21
183.571
  0
LINE
  8
0
 10
-188.021
 20
183.571
 11
-187.915
 21
183.347
  0
LINE
  8
0
 10
-187.915
 20
183.347
 11
-187.835
 21
183.112
  0
LINE
  8
0
 10
-187.835
 20
183.112
 11
-187.781
 21
182.87
  0
LINE
  8
0
 10
-187.781
 20
182.87
 11
-187.753
 21
182.624
  0
LINE
  8
0
 10
-187.753
 20
182.624
 11
-187.753
 21
182.376
  0
LINE
  8
0
 10
-187.753
 20
182.376
 11
-187.781
 21
182.13
  0
LINE
  8
0
 10
-187.781
 20
182.13
 11
-187.835
 21
181.888
  0
LINE
  8
0
 10
-187.835
 20
181.888
 11
-187.915
 21
181.653
  0
LINE
  8
0
 10
-187.915
 20
181.653
 11
-188.021
 21
181.429
  0
LINE
  8
0
 10
-188.021
 20
181.429
 11
-188.151
 21
181.218
  0
LINE
  8
0
 10
-188.151
 20
181.218
 11
-188.303
 21
181.022
  0
LINE
  8
0
 10
-188.303
 20
181.022
 11
-188.476
 21
180.845
  0
LINE
  8
0
 10
-188.476
 20
180.845
 11
-188.667
 21
180.687
  0
LINE
  8
0
 10
-188.667
 20
180.687
 11
-188.875
 21
180.551
  0
LINE
  8
0
 10
-188.875
 20
180.551
 11
-189.096
 21
180.44
  0
LINE
  8
0
 10
-189.096
 20
180.44
 11
-189.328
 21
180.353
  0
LINE
  8
0
 10
-189.328
 20
180.353
 11
-189.569
 21
180.292
  0
LINE
  8
0
 10
-189.569
 20
180.292
 11
-189.814
 21
180.258
  0
LINE
  8
0
 10
-189.814
 20
180.258
 11
-190.062
 21
180.251
  0
LINE
  8
0
 10
-190.062
 20
180.251
 11
-190.309
 21
180.271
  0
LINE
  8
0
 10
189.814
 20
180.258
 11
189.569
 21
180.292
  0
LINE
  8
0
 10
189.569
 20
180.292
 11
189.328
 21
180.353
  0
LINE
  8
0
 10
189.328
 20
180.353
 11
189.096
 21
180.44
  0
LINE
  8
0
 10
189.096
 20
180.44
 11
188.875
 21
180.551
  0
LINE
  8
0
 10
188.875
 20
180.551
 11
188.667
 21
180.687
  0
LINE
  8
0
 10
188.667
 20
180.687
 11
188.476
 21
180.845
  0
LINE
  8
0
 10
188.476
 20
180.845
 11
188.303
 21
181.022
  0
LINE
  8
0
 10
188.303
 20
181.022
 11
188.151
 21
181.218
  0
LINE
  8
0
 10
188.151
 20
181.218
 11
188.021
 21
181.429
  0
LINE
  8
0
 10
188.021
 20
181.429
 11
187.915
 21
181.653
  0
LINE
  8
0
 10
187.915
 20
181.653
 11
187.835
 21
181.888
  0
LINE
  8
0
 10
187.835
 20
181.888
 11
187.781
 21
182.13
  0
LINE
  8
0
 10
187.781
 20
182.13
 11
187.753
 21
182.376
  0
LINE
  8
0
 10
187.753
 20
182.376
 11
187.753
 21
182.624
  0
LINE
  8
0
 10
187.753
 20
182.624
 11
187.781
 21
182.87
  0
LINE
  8
0
 10
187.781
 20
182.87
 11
187.835
 21
183.112
  0
LINE
  8
0
 10
187.835
 20
183.112
 11
187.915
 21
183.347
  0
LINE
  8
0
 10
187.915
 20
183.347
 11
188.021
 21
183.571
  0
LINE
  8
0
 10
188.021
 20
183.571
 11
188.151
 21
183.782
  0
LINE
  8
0
 10
188.151
 20
183.782
 11
188.303
 21
183.978
  0
LINE
  8
0
 10
188.303
 20
183.978
 11
188.476
 21
184.155
  0
LINE
  8
0
 10
188.476
 20
184.155
 11
188.667
 21
184.313
  0
LINE
  8
0
 10
188.667
 20
184.313
 11
188.875
 21
184.449
  0
LINE
  8
0
 10
188.875
 20
184.449
 11
189.096
 21
184.56
  0
LINE
  8
0
 10
189.096
 20
184.56
 11
189.328
 21
184.647
  0
LINE
  8
0
 10
189.328
 20
184.647
 11
189.569
 21
184.708
  0
LINE
  8
0
 10
189.569
 20
184.708
 11
189.814
 21
184.742
  0
LINE
  8
0
 10
189.814
 20
184.742
 11
190.062
 21
184.749
  0
LINE
  8
0
 10
190.062
 20
184.749
 11
190.309
 21
184.729
  0
LINE
  8
0
 10
190.309
 20
184.729
 11
190.552
 21
184.681
  0
LINE
  8
0
 10
190.552
 20
184.681
 11
190.789
 21
184.607
  0
LINE
  8
0
 10
190.789
 20
184.607
 11
191.016
 21
184.508
  0
LINE
  8
0
 10
191.016
 20
184.508
 11
191.231
 21
184.384
  0
LINE
  8
0
 10
191.231
 20
184.384
 11
191.43
 21
184.237
  0
LINE
  8
0
 10
191.43
 20
184.237
 11
191.613
 21
184.069
  0
LINE
  8
0
 10
191.613
 20
184.069
 11
191.776
 21
183.882
  0
LINE
  8
0
 10
191.776
 20
183.882
 11
191.917
 21
183.678
  0
LINE
  8
0
 10
191.917
 20
183.678
 11
192.035
 21
183.46
  0
LINE
  8
0
 10
192.035
 20
183.46
 11
192.128
 21
183.231
  0
LINE
  8
0
 10
192.128
 20
183.231
 11
192.196
 21
182.992
  0
LINE
  8
0
 10
192.196
 20
182.992
 11
192.236
 21
182.748
  0
LINE
  8
0
 10
192.236
 20
182.748
 11
192.25
 21
182.5
  0
LINE
  8
0
 10
192.25
 20
182.5
 11
192.236
 21
182.252
  0
LINE
  8
0
 10
192.236
 20
182.252
 11
192.196
 21
182.008
  0
LINE
  8
0
 10
192.196
 20
182.008
 11
192.128
 21
181.769
  0
LINE
  8
0
 10
192.128
 20
181.769
 11
192.035
 21
181.54
  0
LINE
  8
0
 10
192.035
 20
181.54
 11
191.917
 21
181.322
  0
LINE
  8
0
 10
191.917
 20
181.322
 11
191.776
 21
181.118
  0
LINE
  8
0
 10
191.776
 20
181.118
 11
191.613
 21
180.931
  0
LINE
  8
0
 10
191.613
 20
180.931
 11
191.43
 21
180.763
  0
LINE
  8
0
 10
191.43
 20
180.763
 11
191.231
 21
180.616
  0
LINE
  8
0
 10
191.231
 20
180.616
 11
191.016
 21
180.492
  0
LINE
  8
0
 10
191.016
 20
180.492
 11
190.789
 21
180.393
  0
LINE
  8
0
 10
190.789
 20
180.393
 11
190.552
 21
180.319
  0
LINE
  8
0
 10
190.552
 20
180.319
 11
190.309
 21
180.271
  0
LINE
  8
0
 10
190.309
 20
180.271
 11
190.062
 21
180.251
  0
LINE
  8
0
 10
190.062
 20
180.251
 11
189.814
 21
180.258
  0
LINE
  8
0
 10
129.814
 20
180.258
 11
129.569
 21
180.292
  0
LINE
  8
0
 10
129.569
 20
180.292
 11
129.328
 21
180.353
  0
LINE
  8
0
 10
129.328
 20
180.353
 11
129.096
 21
180.44
  0
LINE
  8
0
 10
129.096
 20
180.44
 11
128.875
 21
180.551
  0
LINE
  8
0
 10
128.875
 20
180.551
 11
128.667
 21
180.687
  0
LINE
  8
0
 10
128.667
 20
180.687
 11
128.476
 21
180.845
  0
LINE
  8
0
 10
128.476
 20
180.845
 11
128.303
 21
181.022
  0
LINE
  8
0
 10
128.303
 20
181.022
 11
128.151
 21
181.218
  0
LINE
  8
0
 10
128.151
 20
181.218
 11
128.021
 21
181.429
  0
LINE
  8
0
 10
128.021
 20
181.429
 11
127.915
 21
181.653
  0
LINE
  8
0
 10
127.915
 20
181.653
 11
127.835
 21
181.888
  0
LINE
  8
0
 10
127.835
 20
181.888
 11
127.781
 21
182.13
  0
LINE
  8
0
 10
127.781
 20
182.13
 11
127.753
 21
182.376
  0
LINE
  8
0
 10
127.753
 20
182.376
 11
127.753
 21
182.624
  0
LINE
  8
0
 10
127.753
 20
182.624
 11
127.781
 21
182.87
  0
LINE
  8
0
 10
127.781
 20
182.87
 11
127.835
 21
183.112
  0
LINE
  8
0
 10
127.835
 20
183.112
 11
127.915
 21
183.347
  0
LINE
  8
0
 10
127.915
 20
183.347
 11
128.021
 21
183.571
  0
LINE
  8
0
 10
128.021
 20
183.571
 11
128.151
 21
183.782
  0
LINE
  8
0
 10
128.151
 20
183.782
 11
128.303
 21
183.978
  0
LINE
  8
0
 10
128.303
 20
183.978
 11
128.476
 21
184.155
  0
LINE
  8
0
 10
128.476
 20
184.155
 11
128.667
 21
184.313
  0
LINE
  8
0
 10
128.667
 20
184.313
 11
128.875
 21
184.449
  0
LINE
  8
0
 10
128.875
 20
184.449
 11
129.096
 21
184.56
  0
LINE
  8
0
 10
129.096
 20
184.56
 11
129.328
 21
184.647
  0
LINE
  8
0
 10
129.328
 20
184.647
 11
129.569
 21
184.708
  0
LINE
  8
0
 10
129.569
 20
184.708
 11
129.814
 21
184.742
  0
LINE
  8
0
 10
129.814
 20
184.742
 11
130.062
 21
184.749
  0
LINE
  8
0
 10
130.062
 20
184.749
 11
130.309
 21
184.729
  0
LINE
  8
0
 10
130.309
 20
184.729
 11
130.552
 21
184.681
  0
LINE
  8
0
 10
130.552
 20
184.681
 11
130.789
 21
184.607
  0
LINE
  8
0
 10
130.789
 20
184.607
 11
131.016
 21
184.508
  0
LINE
  8
0
 10
131.016
 20
184.508
 11
131.231
 21
184.384
  0
LINE
  8
0
 10
131.231
 20
184.384
 11
131.43
 21
184.237
  0
LINE
  8
0
 10
131.43
 20
184.237
 11
131.613
 21
184.069
  0
LINE
  8
0
 10
131.613
 20
184.069
 11
131.776
 21
183.882
  0
LINE
  8
0
 10
131.776
 20
183.882
 11
131.917
 21
183.678
  0
LINE
  8
0
 10
131.917
 20
183.678
 11
132.035
 21
183.46
  0
LINE
  8
0
 10
132.035
 20
183.46
 11
132.128
 21
183.231
  0
LINE
  8
0
 10
132.128
 20
183.231
 11
132.196
 21
182.992
  0
LINE
  8
0
 10
132.196
 20
182.992
 11
132.236
 21
182.748
  0
LINE
  8
0
 10
132.236
 20
182.748
 11
132.25
 21
182.5
  0
LINE
  8
0
 10
132.25
 20
182.5
 11
132.236
 21
182.252
  0
LINE
  8
0
 10
132.236
 20
182.252
 11
132.196
 21
182.008
  0
LINE
  8
0
 10
132.196
 20
182.008
 11
132.128
 21
181.769
  0
LINE
  8
0
 10
132.128
 20
181.769
 11
132.035
 21
181.54
  0
LINE
  8
0
 10
132.035
 20
181.54
 11
131.917
 21
181.322
  0
LINE
  8
0
 10
131.917
 20
181.322
 11
131.776
 21
181.118
  0
LINE
  8
0
 10
131.776
 20
181.118
 11
131.613
 21
180.931
  0
LINE
  8
0
 10
131.613
 20
180.931
 11
131.43
 21
180.763
  0
LINE
  8
0
 10
131.43
 20
180.763
 11
131.231
 21
180.616
  0
LINE
  8
0
 10
131.231
 20
180.616
 11
131.016
 21
180.492
  0
LINE
  8
0
 10
131.016
 20
180.492
 11
130.789
 21
180.393
  0
LINE
  8
0
 10
130.789
 20
180.393
 11
130.552
 21
180.319
  0
LINE
  8
0
 10
130.552
 20
180.319
 11
130.309
 21
180.271
  0
LINE
  8
0
 10
130.309
 20
180.271
 11
130.062
 21
180.251
  0
LINE
  8
0
 10
130.062
 20
180.251
 11
129.814
 21
180.258
  0
LINE
  8
0
 10
-130.309
 20
180.271
 11
-130.552
 21
180.319
  0
LINE
  8
0
 10
-130.552
 20
180.319
 11
-130.789
 21
180.393
  0
LINE
  8
0
 10
-130.789
 20
180.393
 11
-131.016
 21
180.492
  0
LINE
  8
0
 10
-131.016
 20
180.492
 11
-131.231
 21
180.616
  0
LINE
  8
0
 10
-131.231
 20
180.616
 11
-131.43
 21
180.763
  0
LINE
  8
0
 10
-131.43
 20
180.763
 11
-131.613
 21
180.931
  0
LINE
  8
0
 10
-131.613
 20
180.931
 11
-131.776
 21
181.118
  0
LINE
  8
0
 10
-131.776
 20
181.118
 11
-131.917
 21
181.322
  0
LINE
  8
0
 10
-131.917
 20
181.322
 11
-132.035
 21
181.54
  0
LINE
  8
0
 10
-132.035
 20
181.54
 11
-132.128
 21
181.769
  0
LINE
  8
0
 10
-132.128
 20
181.769
 11
-132.196
 21
182.008
  0
LINE
  8
0
 10
-132.196
 20
182.008
 11
-132.236
 21
182.252
  0
LINE
  8
0
 10
-132.236
 20
182.252
 11
-132.25
 21
182.5
  0
LINE
  8
0
 10
-132.25
 20
182.5
 11
-132.236
 21
182.748
  0
LINE
  8
0
 10
-132.236
 20
182.748
 11
-132.196
 21
182.992
  0
LINE
  8
0
 10
-132.196
 20
182.992
 11
-132.128
 21
183.231
  0
LINE
  8
0
 10
-132.128
 20
183.231
 11
-132.035
 21
183.46
  0
LINE
  8
0
 10
-132.035
 20
183.46
 11
-131.917
 21
183.678
  0
LINE
  8
0
 10
-131.917
 20
183.678
 11
-131.776
 21
183.882
  0
LINE
  8
0
 10
-131.776
 20
183.882
 11
-131.613
 21
184.069
  0
LINE
  8
0
 10
-131.613
 20
184.069
 11
-131.43
 21
184.237
  0
LINE
  8
0
 10
-131.43
 20
184.237
 11
-131.231
 21
184.384
  0
LINE
  8
0
 10
-131.231
 20
184.384
 11
-131.016
 21
184.508
  0
LINE
  8
0
 10
-131.016
 20
184.508
 11
-130.789
 21
184.607
  0
LINE
  8
0
 10
-130.789
 20
184.607
 11
-130.552
 21
184.681
  0
LINE
  8
0
 10
-130.552
 20
184.681
 11
-130.309
 21
184.729
  0
LINE
  8
0
 10
-130.309
 20
184.729
 11
-130.062
 21
184.749
  0
LINE
  8
0
 10
-130.062
 20
184.749
 11
-129.814
 21
184.742
  0
LINE
  8
0
 10
-129.814
 20
184.742
 11
-129.569
 21
184.708
  0
LINE
  8
0
 10
-129.569
 20
184.708
 11
-129.328
 21
184.647
  0
LINE
  8
0
 10
-129.328
 20
184.647
 11
-129.096
 21
184.56
  0
LINE
  8
0
 10
-129.096
 20
184.56
 11
-128.875
 21
184.449
  0
LINE
  8
0
 10
-128.875
 20
184.449
 11
-128.667
 21
184.313
  0
LINE
  8
0
 10
-128.667
 20
184.313
 11
-128.476
 21
184.155
  0
LINE
  8
0
 10
-128.476
 20
184.155
 11
-128.303
 21
183.978
  0
LINE
  8
0
 10
-128.303
 20
183.978
 11
-128.151
 21
183.782
  0
LINE
  8
0
 10
-128.151
 20
183.782
 11
-128.021
 21
183.571
  0
LINE
  8
0
 10
-128.021
 20
183.571
 11
-127.915
 21
183.347
  0
LINE
  8
0
 10
-127.915
 20
183.347
 11
-127.835
 21
183.112
  0
LINE
  8
0
 10
-127.835
 20
183.112
 11
-127.781
 21
182.87
  0
LINE
  8
0
 10
-127.781
 20
182.87
 11
-127.753
 21
182.624
  0
LINE
  8
0
 10
-127.753
 20
182.624
 11
-127.753
 21
182.376
  0
LINE
  8
0
 10
-127.753
 20
182.376
 11
-127.781
 21
182.13
  0
LINE
  8
0
 10
-127.781
 20
182.13
 11
-127.835
 21
181.888
  0
LINE
  8
0
 10
-127.835
 20
181.888
 11
-127.915
 21
181.653
  0
LINE
  8
0
 10
-127.915
 20
181.653
 11
-128.021
 21
181.429
  0
LINE
  8
0
 10
-128.021
 20
181.429
 11
-128.151
 21
181.218
  0
LINE
  8
0
 10
-128.151
 20
181.218
 11
-128.303
 21
181.022
  0
LINE
  8
0
 10
-128.303
 20
181.022
 11
-128.476
 21
180.845
  0
LINE
  8
0
 10
-128.476
 20
180.845
 11
-128.667
 21
180.687
  0
LINE
  8
0
 10
-128.667
 20
180.687
 11
-128.875
 21
180.551
  0
LINE
  8
0
 10
-128.875
 20
180.551
 11
-129.096
 21
180.44
  0
LINE
  8
0
 10
-129.096
 20
180.44
 11
-129.328
 21
180.353
  0
LINE
  8
0
 10
-129.328
 20
180.353
 11
-129.569
 21
180.292
  0
LINE
  8
0
 10
-129.569
 20
180.292
 11
-129.814
 21
180.258
  0
LINE
  8
0
 10
-129.814
 20
180.258
 11
-130.062
 21
180.251
  0
LINE
  8
0
 10
-130.062
 20
180.251
 11
-130.309
 21
180.271
  0
LINE
  8
0
 10
-175.623
 20
128.855
 11
-175.867
 21
128.891
  0
LINE
  8
0
 10
-175.867
 20
128.891
 11
-176.103
 21
128.964
  0
LINE
  8
0
 10
-176.103
 20
128.964
 11
-176.325
 21
129.071
  0
LINE
  8
0
 10
-176.325
 20
129.071
 11
-176.529
 21
129.21
  0
LINE
  8
0
 10
-176.529
 20
129.21
 11
-176.71
 21
129.378
  0
LINE
  8
0
 10
-176.71
 20
129.378
 11
-176.863
 21
129.571
  0
LINE
  8
0
 10
-176.863
 20
129.571
 11
-176.987
 21
129.784
  0
LINE
  8
0
 10
-176.987
 20
129.784
 11
-177.077
 21
130.014
  0
LINE
  8
0
 10
-177.077
 20
130.014
 11
-177.132
 21
130.254
  0
LINE
  8
0
 10
-177.132
 20
130.254
 11
-177.15
 21
130.5
  0
LINE
  8
0
 10
-177.15
 20
130.5
 11
-177.132
 21
130.746
  0
LINE
  8
0
 10
-177.132
 20
130.746
 11
-177.077
 21
130.986
  0
LINE
  8
0
 10
-177.077
 20
130.986
 11
-176.987
 21
131.216
  0
LINE
  8
0
 10
-176.987
 20
131.216
 11
-176.863
 21
131.429
  0
LINE
  8
0
 10
-176.863
 20
131.429
 11
-176.71
 21
131.622
  0
LINE
  8
0
 10
-176.71
 20
131.622
 11
-176.529
 21
131.79
  0
LINE
  8
0
 10
-176.529
 20
131.79
 11
-176.325
 21
131.929
  0
LINE
  8
0
 10
-176.325
 20
131.929
 11
-176.103
 21
132.036
  0
LINE
  8
0
 10
-176.103
 20
132.036
 11
-175.867
 21
132.109
  0
LINE
  8
0
 10
-175.867
 20
132.109
 11
-175.623
 21
132.145
  0
LINE
  8
0
 10
-175.623
 20
132.145
 11
-175.377
 21
132.145
  0
LINE
  8
0
 10
-175.377
 20
132.145
 11
-175.133
 21
132.109
  0
LINE
  8
0
 10
-175.133
 20
132.109
 11
-174.897
 21
132.036
  0
LINE
  8
0
 10
-174.897
 20
132.036
 11
-174.675
 21
131.929
  0
LINE
  8
0
 10
-174.675
 20
131.929
 11
-174.471
 21
131.79
  0
LINE
  8
0
 10
-174.471
 20
131.79
 11
-174.29
 21
131.622
  0
LINE
  8
0
 10
-174.29
 20
131.622
 11
-174.137
 21
131.429
  0
LINE
  8
0
 10
-174.137
 20
131.429
 11
-174.013
 21
131.216
  0
LINE
  8
0
 10
-174.013
 20
131.216
 11
-173.923
 21
130.986
  0
LINE
  8
0
 10
-173.923
 20
130.986
 11
-173.868
 21
130.746
  0
LINE
  8
0
 10
-173.868
 20
130.746
 11
-173.85
 21
130.5
  0
LINE
  8
0
 10
-173.85
 20
130.5
 11
-173.868
 21
130.254
  0
LINE
  8
0
 10
-173.868
 20
130.254
 11
-173.923
 21
130.014
  0
LINE
  8
0
 10
-173.923
 20
130.014
 11
-174.013
 21
129.784
  0
LINE
  8
0
 10
-174.013
 20
129.784
 11
-174.137
 21
129.571
  0
LINE
  8
0
 10
-174.137
 20
129.571
 11
-174.29
 21
129.378
  0
LINE
  8
0
 10
-174.29
 20
129.378
 11
-174.471
 21
129.21
  0
LINE
  8
0
 10
-174.471
 20
129.21
 11
-174.675
 21
129.071
  0
LINE
  8
0
 10
-174.675
 20
129.071
 11
-174.897
 21
128.964
  0
LINE
  8
0
 10
-174.897
 20
128.964
 11
-175.133
 21
128.891
  0
LINE
  8
0
 10
-175.133
 20
128.891
 11
-175.377
 21
128.855
  0
LINE
  8
0
 10
-175.377
 20
128.855
 11
-175.623
 21
128.855
  0
LINE
  8
0
 10
-144.623
 20
128.855
 11
-144.867
 21
128.891
  0
LINE
  8
0
 10
-144.867
 20
128.891
 11
-145.103
 21
128.964
  0
LINE
  8
0
 10
-145.103
 20
128.964
 11
-145.325
 21
129.071
  0
LINE
  8
0
 10
-145.325
 20
129.071
 11
-145.529
 21
129.21
  0
LINE
  8
0
 10
-145.529
 20
129.21
 11
-145.71
 21
129.378
  0
LINE
  8
0
 10
-145.71
 20
129.378
 11
-145.863
 21
129.571
  0
LINE
  8
0
 10
-145.863
 20
129.571
 11
-145.987
 21
129.784
  0
LINE
  8
0
 10
-145.987
 20
129.784
 11
-146.077
 21
130.014
  0
LINE
  8
0
 10
-146.077
 20
130.014
 11
-146.132
 21
130.254
  0
LINE
  8
0
 10
-146.132
 20
130.254
 11
-146.15
 21
130.5
  0
LINE
  8
0
 10
-146.15
 20
130.5
 11
-146.132
 21
130.746
  0
LINE
  8
0
 10
-146.132
 20
130.746
 11
-146.077
 21
130.986
  0
LINE
  8
0
 10
-146.077
 20
130.986
 11
-145.987
 21
131.216
  0
LINE
  8
0
 10
-145.987
 20
131.216
 11
-145.863
 21
131.429
  0
LINE
  8
0
 10
-145.863
 20
131.429
 11
-145.71
 21
131.622
  0
LINE
  8
0
 10
-145.71
 20
131.622
 11
-145.529
 21
131.79
  0
LINE
  8
0
 10
-145.529
 20
131.79
 11
-145.325
 21
131.929
  0
LINE
  8
0
 10
-145.325
 20
131.929
 11
-145.103
 21
132.036
  0
LINE
  8
0
 10
-145.103
 20
132.036
 11
-144.867
 21
132.109
  0
LINE
  8
0
 10
-144.867
 20
132.109
 11
-144.623
 21
132.145
  0
LINE
  8
0
 10
-144.623
 20
132.145
 11
-144.377
 21
132.145
  0
LINE
  8
0
 10
-144.377
 20
132.145
 11
-144.133
 21
132.109
  0
LINE
  8
0
 10
-144.133
 20
132.109
 11
-143.897
 21
132.036
  0
LINE
  8
0
 10
-143.897
 20
132.036
 11
-143.675
 21
131.929
  0
LINE
  8
0
 10
-143.675
 20
131.929
 11
-143.471
 21
131.79
  0
LINE
  8
0
 10
-143.471
 20
131.79
 11
-143.29
 21
131.622
  0
LINE
  8
0
 10
-143.29
 20
131.622
 11
-143.137
 21
131.429
  0
LINE
  8
0
 10
-143.137
 20
131.429
 11
-143.013
 21
131.216
  0
LINE
  8
0
 10
-143.013
 20
131.216
 11
-142.923
 21
130.986
  0
LINE
  8
0
 10
-142.923
 20
130.986
 11
-142.868
 21
130.746
  0
LINE
  8
0
 10
-142.868
 20
130.746
 11
-142.85
 21
130.5
  0
LINE
  8
0
 10
-142.85
 20
130.5
 11
-142.868
 21
130.254
  0
LINE
  8
0
 10
-142.868
 20
130.254
 11
-142.923
 21
130.014
  0
LINE
  8
0
 10
-142.923
 20
130.014
 11
-143.013
 21
129.784
  0
LINE
  8
0
 10
-143.013
 20
129.784
 11
-143.137
 21
129.571
  0
LINE
  8
0
 10
-143.137
 20
129.571
 11
-143.29
 21
129.378
  0
LINE
  8
0
 10
-143.29
 20
129.378
 11
-143.471
 21
129.21
  0
LINE
  8
0
 10
-143.471
 20
129.21
 11
-143.675
 21
129.071
  0
LINE
  8
0
 10
-143.675
 20
129.071
 11
-143.897
 21
128.964
  0
LINE
  8
0
 10
-143.897
 20
128.964
 11
-144.133
 21
128.891
  0
LINE
  8
0
 10
-144.133
 20
128.891
 11
-144.377
 21
128.855
  0
LINE
  8
0
 10
-144.377
 20
128.855
 11
-144.623
 21
128.855
  0
LINE
  8
0
 10
-161.202
 20
103.563
 11
-162.391
 21
103.751
  0
LINE
  8
0
 10
-162.391
 20
103.751
 11
-163.554
 21
104.063
  0
LINE
  8
0
 10
-163.554
 20
104.063
 11
-164.677
 21
104.494
  0
LINE
  8
0
 10
-164.677
 20
104.494
 11
-165.75
 21
105.041
  0
LINE
  8
0
 10
-165.75
 20
105.041
 11
-166.76
 21
105.696
  0
LINE
  8
0
 10
-166.76
 20
105.696
 11
-167.695
 21
106.454
  0
LINE
  8
0
 10
-167.695
 20
106.454
 11
-168.546
 21
107.305
  0
LINE
  8
0
 10
-168.546
 20
107.305
 11
-169.304
 21
108.24
  0
LINE
  8
0
 10
-169.304
 20
108.24
 11
-169.959
 21
109.25
  0
LINE
  8
0
 10
-169.959
 20
109.25
 11
-170.506
 21
110.323
  0
LINE
  8
0
 10
-170.506
 20
110.323
 11
-170.937
 21
111.446
  0
LINE
  8
0
 10
-170.937
 20
111.446
 11
-171.249
 21
112.609
  0
LINE
  8
0
 10
-171.249
 20
112.609
 11
-171.437
 21
113.798
  0
LINE
  8
0
 10
-171.437
 20
113.798
 11
-171.5
 21
115
  0
LINE
  8
0
 10
-171.5
 20
115
 11
-171.437
 21
116.202
  0
LINE
  8
0
 10
-171.437
 20
116.202
 11
-171.249
 21
117.391
  0
LINE
  8
0
 10
-171.249
 20
117.391
 11
-170.937
 21
118.554
  0
LINE
  8
0
 10
-170.937
 20
118.554
 11
-170.506
 21
119.677
  0
LINE
  8
0
 10
-170.506
 20
119.677
 11
-169.959
 21
120.75
  0
LINE
  8
0
 10
-169.959
 20
120.75
 11
-169.304
 21
121.76
  0
LINE
  8
0
 10
-169.304
 20
121.76
 11
-168.546
 21
122.695
  0
LINE
  8
0
 10
-168.546
 20
122.695
 11
-167.695
 21
123.546
  0
LINE
  8
0
 10
-167.695
 20
123.546
 11
-166.76
 21
124.304
  0
LINE
  8
0
 10
-166.76
 20
124.304
 11
-165.75
 21
124.959
  0
LINE
  8
0
 10
-165.75
 20
124.959
 11
-164.677
 21
125.506
  0
LINE
  8
0
 10
-164.677
 20
125.506
 11
-163.554
 21
125.937
  0
LINE
  8
0
 10
-163.554
 20
125.937
 11
-162.391
 21
126.249
  0
LINE
  8
0
 10
-162.391
 20
126.249
 11
-161.202
 21
126.437
  0
LINE
  8
0
 10
-161.202
 20
126.437
 11
-160
 21
126.5
  0
LINE
  8
0
 10
-160
 20
126.5
 11
-158.798
 21
126.437
  0
LINE
  8
0
 10
-158.798
 20
126.437
 11
-157.609
 21
126.249
  0
LINE
  8
0
 10
-157.609
 20
126.249
 11
-156.446
 21
125.937
  0
LINE
  8
0
 10
-156.446
 20
125.937
 11
-155.323
 21
125.506
  0
LINE
  8
0
 10
-155.323
 20
125.506
 11
-154.25
 21
124.959
  0
LINE
  8
0
 10
-154.25
 20
124.959
 11
-153.24
 21
124.304
  0
LINE
  8
0
 10
-153.24
 20
124.304
 11
-152.305
 21
123.546
  0
LINE
  8
0
 10
-152.305
 20
123.546
 11
-151.454
 21
122.695
  0
LINE
  8
0
 10
-151.454
 20
122.695
 11
-150.696
 21
121.76
  0
LINE
  8
0
 10
-150.696
 20
121.76
 11
-150.041
 21
120.75
  0
LINE
  8
0
 10
-150.041
 20
120.75
 11
-149.494
 21
119.677
  0
LINE
  8
0
 10
-149.494
 20
119.677
 11
-149.063
 21
118.554
  0
LINE
  8
0
 10
-149.063
 20
118.554
 11
-148.751
 21
117.391
  0
LINE
  8
0
 10
-148.751
 20
117.391
 11
-148.563
 21
116.202
  0
LINE
  8
0
 10
-148.563
 20
116.202
 11
-148.5
 21
115
  0
LINE
  8
0
 10
-148.5
 20
115
 11
-148.563
 21
113.798
  0
LINE
  8
0
 10
-148.563
 20
113.798
 11
-148.751
 21
112.609
  0
LINE
  8
0
 10
-148.751
 20
112.609
 11
-149.063
 21
111.446
  0
LINE
  8
0
 10
-149.063
 20
111.446
 11
-149.494
 21
110.323
  0
LINE
  8
0
 10
-149.494
 20
110.323
 11
-150.041
 21
109.25
  0
LINE
  8
0
 10
-150.041
 20
109.25
 11
-150.696
 21
108.24
  0
LINE
  8
0
 10
-150.696
 20
108.24
 11
-151.454
 21
107.305
  0
LINE
  8
0
 10
-151.454
 20
107.305
 11
-152.305
 21
106.454
  0
LINE
  8
0
 10
-152.305
 20
106.454
 11
-153.24
 21
105.696
  0
LINE
  8
0
 10
-153.24
 20
105.696
 11
-154.25
 21
105.041
  0
LINE
  8
0
 10
-154.25
 20
105.041
 11
-155.323
 21
104.494
  0
LINE
  8
0
 10
-155.323
 20
104.494
 11
-156.446
 21
104.063
  0
LINE
  8
0
 10
-156.446
 20
104.063
 11
-157.609
 21
103.751
  0
LINE
  8
0
 10
-157.609
 20
103.751
 11
-158.798
 21
103.563
  0
LINE
  8
0
 10
-158.798
 20
103.563
 11
-160
 21
103.5
  0
LINE
  8
0
 10
-160
 20
103.5
 11
-161.202
 21
103.563
  0
LINE
  8
0
 10
-144.623
 20
97.8546
 11
-144.867
 21
97.8914
  0
LINE
  8
0
 10
-144.867
 20
97.8914
 11
-145.103
 21
97.9641
  0
LINE
  8
0
 10
-145.103
 20
97.9641
 11
-145.325
 21
98.0711
  0
LINE
  8
0
 10
-145.325
 20
98.0711
 11
-145.529
 21
98.21
  0
LINE
  8
0
 10
-145.529
 20
98.21
 11
-145.71
 21
98.3777
  0
LINE
  8
0
 10
-145.71
 20
98.3777
 11
-145.863
 21
98.5705
  0
LINE
  8
0
 10
-145.863
 20
98.5705
 11
-145.987
 21
98.7841
  0
LINE
  8
0
 10
-145.987
 20
98.7841
 11
-146.077
 21
99.0137
  0
LINE
  8
0
 10
-146.077
 20
99.0137
 11
-146.132
 21
99.2541
  0
LINE
  8
0
 10
-146.132
 20
99.2541
 11
-146.15
 21
99.5
  0
LINE
  8
0
 10
-146.15
 20
99.5
 11
-146.132
 21
99.7459
  0
LINE
  8
0
 10
-146.132
 20
99.7459
 11
-146.077
 21
99.9863
  0
LINE
  8
0
 10
-146.077
 20
99.9863
 11
-145.987
 21
100.216
  0
LINE
  8
0
 10
-145.987
 20
100.216
 11
-145.863
 21
100.429
  0
LINE
  8
0
 10
-145.863
 20
100.429
 11
-145.71
 21
100.622
  0
LINE
  8
0
 10
-145.71
 20
100.622
 11
-145.529
 21
100.79
  0
LINE
  8
0
 10
-145.529
 20
100.79
 11
-145.325
 21
100.929
  0
LINE
  8
0
 10
-145.325
 20
100.929
 11
-145.103
 21
101.036
  0
LINE
  8
0
 10
-145.103
 20
101.036
 11
-144.867
 21
101.109
  0
LINE
  8
0
 10
-144.867
 20
101.109
 11
-144.623
 21
101.145
  0
LINE
  8
0
 10
-144.623
 20
101.145
 11
-144.377
 21
101.145
  0
LINE
  8
0
 10
-144.377
 20
101.145
 11
-144.133
 21
101.109
  0
LINE
  8
0
 10
-144.133
 20
101.109
 11
-143.897
 21
101.036
  0
LINE
  8
0
 10
-143.897
 20
101.036
 11
-143.675
 21
100.929
  0
LINE
  8
0
 10
-143.675
 20
100.929
 11
-143.471
 21
100.79
  0
LINE
  8
0
 10
-143.471
 20
100.79
 11
-143.29
 21
100.622
  0
LINE
  8
0
 10
-143.29
 20
100.622
 11
-143.137
 21
100.429
  0
LINE
  8
0
 10
-143.137
 20
100.429
 11
-143.013
 21
100.216
  0
LINE
  8
0
 10
-143.013
 20
100.216
 11
-142.923
 21
99.9863
  0
LINE
  8
0
 10
-142.923
 20
99.9863
 11
-142.868
 21
99.7459
  0
LINE
  8
0
 10
-142.868
 20
99.7459
 11
-142.85
 21
99.5
  0
LINE
  8
0
 10
-142.85
 20
99.5
 11
-142.868
 21
99.2541
  0
LINE
  8
0
 10
-142.868
 20
99.2541
 11
-142.923
 21
99.0137
  0
LINE
  8
0
 10
-142.923
 20
99.0137
 11
-143.013
 21
98.7841
  0
LINE
  8
0
 10
-143.013
 20
98.7841
 11
-143.137
 21
98.5705
  0
LINE
  8
0
 10
-143.137
 20
98.5705
 11
-143.29
 21
98.3777
  0
LINE
  8
0
 10
-143.29
 20
98.3777
 11
-143.471
 21
98.21
  0
LINE
  8
0
 10
-143.471
 20
98.21
 11
-143.675
 21
98.0711
  0
LINE
  8
0
 10
-143.675
 20
98.0711
 11
-143.897
 21
97.9641
  0
LINE
  8
0
 10
-143.897
 20
97.9641
 11
-144.133
 21
97.8914
  0
LINE
  8
0
 10
-144.133
 20
97.8914
 11
-144.377
 21
97.8546
  0
LINE
  8
0
 10
-144.377
 20
97.8546
 11
-144.623
 21
97.8546
  0
LINE
  8
0
 10
-175.623
 20
97.8546
 11
-175.867
 21
97.8914
  0
LINE
  8
0
 10
-175.867
 20
97.8914
 11
-176.103
 21
97.9641
  0
LINE
  8
0
 10
-176.103
 20
97.9641
 11
-176.325
 21
98.0711
  0
LINE
  8
0
 10
-176.325
 20
98.0711
 11
-176.529
 21
98.21
  0
LINE
  8
0
 10
-176.529
 20
98.21
 11
-176.71
 21
98.3777
  0
LINE
  8
0
 10
-176.71
 20
98.3777
 11
-176.863
 21
98.5705
  0
LINE
  8
0
 10
-176.863
 20
98.5705
 11
-176.987
 21
98.7841
  0
LINE
  8
0
 10
-176.987
 20
98.7841
 11
-177.077
 21
99.0137
  0
LINE
  8
0
 10
-177.077
 20
99.0137
 11
-177.132
 21
99.2541
  0
LINE
  8
0
 10
-177.132
 20
99.2541
 11
-177.15
 21
99.5
  0
LINE
  8
0
 10
-177.15
 20
99.5
 11
-177.132
 21
99.7459
  0
LINE
  8
0
 10
-177.132
 20
99.7459
 11
-177.077
 21
99.9863
  0
LINE
  8
0
 10
-177.077
 20
99.9863
 11
-176.987
 21
100.216
  0
LINE
  8
0
 10
-176.987
 20
100.216
 11
-176.863
 21
100.429
  0
LINE
  8
0
 10
-176.863
 20
100.429
 11
-176.71
 21
100.622
  0
LINE
  8
0
 10
-176.71
 20
100.622
 11
-176.529
 21
100.79
  0
LINE
  8
0
 10
-176.529
 20
100.79
 11
-176.325
 21
100.929
  0
LINE
  8
0
 10
-176.325
 20
100.929
 11
-176.103
 21
101.036
  0
LINE
  8
0
 10
-176.103
 20
101.036
 11
-175.867
 21
101.109
  0
LINE
  8
0
 10
-175.867
 20
101.109
 11
-175.623
 21
101.145
  0
LINE
  8
0
 10
-175.623
 20
101.145
 11
-175.377
 21
101.145
  0
LINE
  8
0
 10
-175.377
 20
101.145
 11
-175.133
 21
101.109
  0
LINE
  8
0
 10
-175.133
 20
101.109
 11
-174.897
 21
101.036
  0
LINE
  8
0
 10
-174.897
 20
101.036
 11
-174.675
 21
100.929
  0
LINE
  8
0
 10
-174.675
 20
100.929
 11
-174.471
 21
100.79
  0
LINE
  8
0
 10
-174.471
 20
100.79
 11
-174.29
 21
100.622
  0
LINE
  8
0
 10
-174.29
 20
100.622
 11
-174.137
 21
100.429
  0
LINE
  8
0
 10
-174.137
 20
100.429
 11
-174.013
 21
100.216
  0
LINE
  8
0
 10
-174.013
 20
100.216
 11
-173.923
 21
99.9863
  0
LINE
  8
0
 10
-173.923
 20
99.9863
 11
-173.868
 21
99.7459
  0
LINE
  8
0
 10
-173.868
 20
99.7459
 11
-173.85
 21
99.5
  0
LINE
  8
0
 10
-173.85
 20
99.5
 11
-173.868
 21
99.2541
  0
LINE
  8
0
 10
-173.868
 20
99.2541
 11
-173.923
 21
99.0137
  0
LINE
  8
0
 10
-173.923
 20
99.0137
 11
-174.013
 21
98.7841
  0
LINE
  8
0
 10
-174.013
 20
98.7841
 11
-174.137
 21
98.5705
  0
LINE
  8
0
 10
-174.137
 20
98.5705
 11
-174.29
 21
98.3777
  0
LINE
  8
0
 10
-174.29
 20
98.3777
 11
-174.471
 21
98.21
  0
LINE
  8
0
 10
-174.471
 20
98.21
 11
-174.675
 21
98.0711
  0
LINE
  8
0
 10
-174.675
 20
98.0711
 11
-174.897
 21
97.9641
  0
LINE
  8
0
 10
-174.897
 20
97.9641
 11
-175.133
 21
97.8914
  0
LINE
  8
0
 10
-175.133
 20
97.8914
 11
-175.377
 21
97.8546
  0
LINE
  8
0
 10
-175.377
 20
97.8546
 11
-175.623
 21
97.8546
  0
LINE
  8
0
 10
-130.309
 20
89.0213
 11
-130.552
 21
89.0688
  0
LINE
  8
0
 10
-130.552
 20
89.0688
 11
-130.789
 21
89.1429
  0
LINE
  8
0
 10
-130.789
 20
89.1429
 11
-131.016
 21
89.2424
  0
LINE
  8
0
 10
-131.016
 20
89.2424
 11
-131.231
 21
89.3664
  0
LINE
  8
0
 10
-131.231
 20
89.3664
 11
-131.43
 21
89.5132
  0
LINE
  8
0
 10
-131.43
 20
89.5132
 11
-131.613
 21
89.6811
  0
LINE
  8
0
 10
-131.613
 20
89.6811
 11
-131.776
 21
89.868
  0
LINE
  8
0
 10
-131.776
 20
89.868
 11
-131.917
 21
90.0717
  0
LINE
  8
0
 10
-131.917
 20
90.0717
 11
-132.035
 21
90.2897
  0
LINE
  8
0
 10
-132.035
 20
90.2897
 11
-132.128
 21
90.5194
  0
LINE
  8
0
 10
-132.128
 20
90.5194
 11
-132.196
 21
90.758
  0
LINE
  8
0
 10
-132.196
 20
90.758
 11
-132.236
 21
91.0025
  0
LINE
  8
0
 10
-132.236
 20
91.0025
 11
-132.25
 21
91.25
  0
LINE
  8
0
 10
-132.25
 20
91.25
 11
-132.236
 21
91.4975
  0
LINE
  8
0
 10
-132.236
 20
91.4975
 11
-132.196
 21
91.742
  0
LINE
  8
0
 10
-132.196
 20
91.742
 11
-132.128
 21
91.9806
  0
LINE
  8
0
 10
-132.128
 20
91.9806
 11
-132.035
 21
92.2102
  0
LINE
  8
0
 10
-132.035
 20
92.2102
 11
-131.917
 21
92.4283
  0
LINE
  8
0
 10
-131.917
 20
92.4283
 11
-131.776
 21
92.632
  0
LINE
  8
0
 10
-131.776
 20
92.632
 11
-131.613
 21
92.8189
  0
LINE
  8
0
 10
-131.613
 20
92.8189
 11
-131.43
 21
92.9868
  0
LINE
  8
0
 10
-131.43
 20
92.9868
 11
-131.231
 21
93.1336
  0
LINE
  8
0
 10
-131.231
 20
93.1336
 11
-131.016
 21
93.2576
  0
LINE
  8
0
 10
-131.016
 20
93.2576
 11
-130.789
 21
93.3571
  0
LINE
  8
0
 10
-130.789
 20
93.3571
 11
-130.552
 21
93.4312
  0
LINE
  8
0
 10
-130.552
 20
93.4312
 11
-130.309
 21
93.4787
  0
LINE
  8
0
 10
-130.309
 20
93.4787
 11
-130.062
 21
93.4991
  0
LINE
  8
0
 10
-130.062
 20
93.4991
 11
-129.814
 21
93.4923
  0
LINE
  8
0
 10
-129.814
 20
93.4923
 11
-129.569
 21
93.4583
  0
LINE
  8
0
 10
-129.569
 20
93.4583
 11
-129.328
 21
93.3974
  0
LINE
  8
0
 10
-129.328
 20
93.3974
 11
-129.096
 21
93.3105
  0
LINE
  8
0
 10
-129.096
 20
93.3105
 11
-128.875
 21
93.1985
  0
LINE
  8
0
 10
-128.875
 20
93.1985
 11
-128.667
 21
93.063
  0
LINE
  8
0
 10
-128.667
 20
93.063
 11
-128.476
 21
92.9054
  0
LINE
  8
0
 10
-128.476
 20
92.9054
 11
-128.303
 21
92.7277
  0
LINE
  8
0
 10
-128.303
 20
92.7277
 11
-128.151
 21
92.5321
  0
LINE
  8
0
 10
-128.151
 20
92.5321
 11
-128.021
 21
92.3209
  0
LINE
  8
0
 10
-128.021
 20
92.3209
 11
-127.915
 21
92.0967
  0
LINE
  8
0
 10
-127.915
 20
92.0967
 11
-127.835
 21
91.8622
  0
LINE
  8
0
 10
-127.835
 20
91.8622
 11
-127.781
 21
91.6203
  0
LINE
  8
0
 10
-127.781
 20
91.6203
 11
-127.753
 21
91.3739
  0
LINE
  8
0
 10
-127.753
 20
91.3739
 11
-127.753
 21
91.1261
  0
LINE
  8
0
 10
-127.753
 20
91.1261
 11
-127.781
 21
90.8797
  0
LINE
  8
0
 10
-127.781
 20
90.8797
 11
-127.835
 21
90.6378
  0
LINE
  8
0
 10
-127.835
 20
90.6378
 11
-127.915
 21
90.4033
  0
LINE
  8
0
 10
-127.915
 20
90.4033
 11
-128.021
 21
90.1791
  0
LINE
  8
0
 10
-128.021
 20
90.1791
 11
-128.151
 21
89.9679
  0
LINE
  8
0
 10
-128.151
 20
89.9679
 11
-128.303
 21
89.7723
  0
LINE
  8
0
 10
-128.303
 20
89.7723
 11
-128.476
 21
89.5946
  0
LINE
  8
0
 10
-128.476
 20
89.5946
 11
-128.667
 21
89.437
  0
LINE
  8
0
 10
-128.667
 20
89.437
 11
-128.875
 21
89.3014
  0
LINE
  8
0
 10
-128.875
 20
89.3014
 11
-129.096
 21
89.1895
  0
LINE
  8
0
 10
-129.096
 20
89.1895
 11
-129.328
 21
89.1026
  0
LINE
  8
0
 10
-129.328
 20
89.1026
 11
-129.569
 21
89.0417
  0
LINE
  8
0
 10
-129.569
 20
89.0417
 11
-129.814
 21
89.0077
  0
LINE
  8
0
 10
-129.814
 20
89.0077
 11
-130.062
 21
89.0009
  0
LINE
  8
0
 10
-130.062
 20
89.0009
 11
-130.309
 21
89.0213
  0
LINE
  8
0
 10
129.814
 20
89.0077
 11
129.569
 21
89.0417
  0
LINE
  8
0
 10
129.569
 20
89.0417
 11
129.328
 21
89.1026
  0
LINE
  8
0
 10
129.328
 20
89.1026
 11
129.096
 21
89.1895
  0
LINE
  8
0
 10
129.096
 20
89.1895
 11
128.875
 21
89.3014
  0
LINE
  8
0
 10
128.875
 20
89.3014
 11
128.667
 21
89.437
  0
LINE
  8
0
 10
128.667
 20
89.437
 11
128.476
 21
89.5946
  0
LINE
  8
0
 10
128.476
 20
89.5946
 11
128.303
 21
89.7723
  0
LINE
  8
0
 10
128.303
 20
89.7723
 11
128.151
 21
89.9679
  0
LINE
  8
0
 10
128.151
 20
89.9679
 11
128.021
 21
90.1791
  0
LINE
  8
0
 10
128.021
 20
90.1791
 11
127.915
 21
90.4033
  0
LINE
  8
0
 10
127.915
 20
90.4033
 11
127.835
 21
90.6378
  0
LINE
  8
0
 10
127.835
 20
90.6378
 11
127.781
 21
90.8797
  0
LINE
  8
0
 10
127.781
 20
90.8797
 11
127.753
 21
91.1261
  0
LINE
  8
0
 10
127.753
 20
91.1261
 11
127.753
 21
91.3739
  0
LINE
  8
0
 10
127.753
 20
91.3739
 11
127.781
 21
91.6203
  0
LINE
  8
0
 10
127.781
 20
91.6203
 11
127.835
 21
91.8622
  0
LINE
  8
0
 10
127.835
 20
91.8622
 11
127.915
 21
92.0967
  0
LINE
  8
0
 10
127.915
 20
92.0967
 11
128.021
 21
92.3209
  0
LINE
  8
0
 10
128.021
 20
92.3209
 11
128.151
 21
92.5321
  0
LINE
  8
0
 10
128.151
 20
92.5321
 11
128.303
 21
92.7277
  0
LINE
  8
0
 10
128.303
 20
92.7277
 11
128.476
 21
92.9054
  0
LINE
  8
0
 10
128.476
 20
92.9054
 11
128.667
 21
93.063
  0
LINE
  8
0
 10
128.667
 20
93.063
 11
128.875
 21
93.1985
  0
LINE
  8
0
 10
128.875
 20
93.1985
 11
129.096
 21
93.3105
  0
LINE
  8
0
 10
129.096
 20
93.3105
 11
129.328
 21
93.3974
  0
LINE
  8
0
 10
129.328
 20
93.3974
 11
129.569
 21
93.4583
  0
LINE
  8
0
 10
129.569
 20
93.4583
 11
129.814
 21
93.4923
  0
LINE
  8
0
 10
129.814
 20
93.4923
 11
130.062
 21
93.4991
  0
LINE
  8
0
 10
130.062
 20
93.4991
 11
130.309
 21
93.4787
  0
LINE
  8
0
 10
130.309
 20
93.4787
 11
130.552
 21
93.4312
  0
LINE
  8
0
 10
130.552
 20
93.4312
 11
130.789
 21
93.3571
  0
LINE
  8
0
 10
130.789
 20
93.3571
 11
131.016
 21
93.2576
  0
LINE
  8
0
 10
131.016
 20
93.2576
 11
131.231
 21
93.1336
  0
LINE
  8
0
 10
131.231
 20
93.1336
 11
131.43
 21
92.9868
  0
LINE
  8
0
 10
131.43
 20
92.9868
 11
131.613
 21
92.8189
  0
LINE
  8
0
 10
131.613
 20
92.8189
 11
131.776
 21
92.632
  0
LINE
  8
0
 10
131.776
 20
92.632
 11
131.917
 21
92.4283
  0
LINE
  8
0
 10
131.917
 20
92.4283
 11
132.035
 21
92.2102
  0
LINE
  8
0
 10
132.035
 20
92.2102
 11
132.128
 21
91.9806
  0
LINE
  8
0
 10
132.128
 20
91.9806
 11
132.196
 21
91.742
  0
LINE
  8
0
 10
132.196
 20
91.742
 11
132.236
 21
91.4975
  0
LINE
  8
0
 10
132.236
 20
91.4975
 11
132.25
 21
91.25
  0
LINE
  8
0
 10
132.25
 20
91.25
 11
132.236
 21
91.0025
  0
LINE
  8
0
 10
132.236
 20
91.0025
 11
132.196
 21
90.758
  0
LINE
  8
0
 10
132.196
 20
90.758
 11
132.128
 21
90.5194
  0
LINE
  8
0
 10
132.128
 20
90.5194
 11
132.035
 21
90.2897
  0
LINE
  8
0
 10
132.035
 20
90.2897
 11
131.917
 21
90.0717
  0
LINE
  8
0
 10
131.917
 20
90.0717
 11
131.776
 21
89.868
  0
LINE
  8
0
 10
131.776
 20
89.868
 11
131.613
 21
89.6811
  0
LINE
  8
0
 10
131.613
 20
89.6811
 11
131.43
 21
89.5132
  0
LINE
  8
0
 10
131.43
 20
89.5132
 11
131.231
 21
89.3664
  0
LINE
  8
0
 10
131.231
 20
89.3664
 11
131.016
 21
89.2424
  0
LINE
  8
0
 10
131.016
 20
89.2424
 11
130.789
 21
89.1429
  0
LINE
  8
0
 10
130.789
 20
89.1429
 11
130.552
 21
89.0688
  0
LINE
  8
0
 10
130.552
 20
89.0688
 11
130.309
 21
89.0213
  0
LINE
  8
0
 10
130.309
 20
89.0213
 11
130.062
 21
89.0009
  0
LINE
  8
0
 10
130.062
 20
89.0009
 11
129.814
 21
89.0077
  0
LINE
  8
0
 10
-190.309
 20
89.0213
 11
-190.552
 21
89.0688
  0
LINE
  8
0
 10
-190.552
 20
89.0688
 11
-190.789
 21
89.1429
  0
LINE
  8
0
 10
-190.789
 20
89.1429
 11
-191.016
 21
89.2424
  0
LINE
  8
0
 10
-191.016
 20
89.2424
 11
-191.231
 21
89.3664
  0
LINE
  8
0
 10
-191.231
 20
89.3664
 11
-191.43
 21
89.5132
  0
LINE
  8
0
 10
-191.43
 20
89.5132
 11
-191.613
 21
89.6811
  0
LINE
  8
0
 10
-191.613
 20
89.6811
 11
-191.776
 21
89.868
  0
LINE
  8
0
 10
-191.776
 20
89.868
 11
-191.917
 21
90.0717
  0
LINE
  8
0
 10
-191.917
 20
90.0717
 11
-192.035
 21
90.2897
  0
LINE
  8
0
 10
-192.035
 20
90.2897
 11
-192.128
 21
90.5194
  0
LINE
  8
0
 10
-192.128
 20
90.5194
 11
-192.196
 21
90.758
  0
LINE
  8
0
 10
-192.196
 20
90.758
 11
-192.236
 21
91.0025
  0
LINE
  8
0
 10
-192.236
 20
91.0025
 11
-192.25
 21
91.25
  0
LINE
  8
0
 10
-192.25
 20
91.25
 11
-192.236
 21
91.4975
  0
LINE
  8
0
 10
-192.236
 20
91.4975
 11
-192.196
 21
91.742
  0
LINE
  8
0
 10
-192.196
 20
91.742
 11
-192.128
 21
91.9806
  0
LINE
  8
0
 10
-192.128
 20
91.9806
 11
-192.035
 21
92.2102
  0
LINE
  8
0
 10
-192.035
 20
92.2102
 11
-191.917
 21
92.4283
  0
LINE
  8
0
 10
-191.917
 20
92.4283
 11
-191.776
 21
92.632
  0
LINE
  8
0
 10
-191.776
 20
92.632
 11
-191.613
 21
92.8189
  0
LINE
  8
0
 10
-191.613
 20
92.8189
 11
-191.43
 21
92.9868
  0
LINE
  8
0
 10
-191.43
 20
92.9868
 11
-191.231
 21
93.1336
  0
LINE
  8
0
 10
-191.231
 20
93.1336
 11
-191.016
 21
93.2576
  0
LINE
  8
0
 10
-191.016
 20
93.2576
 11
-190.789
 21
93.3571
  0
LINE
  8
0
 10
-190.789
 20
93.3571
 11
-190.552
 21
93.4312
  0
LINE
  8
0
 10
-190.552
 20
93.4312
 11
-190.309
 21
93.4787
  0
LINE
  8
0
 10
-190.309
 20
93.4787
 11
-190.062
 21
93.4991
  0
LINE
  8
0
 10
-190.062
 20
93.4991
 11
-189.814
 21
93.4923
  0
LINE
  8
0
 10
-189.814
 20
93.4923
 11
-189.569
 21
93.4583
  0
LINE
  8
0
 10
-189.569
 20
93.4583
 11
-189.328
 21
93.3974
  0
LINE
  8
0
 10
-189.328
 20
93.3974
 11
-189.096
 21
93.3105
  0
LINE
  8
0
 10
-189.096
 20
93.3105
 11
-188.875
 21
93.1985
  0
LINE
  8
0
 10
-188.875
 20
93.1985
 11
-188.667
 21
93.063
  0
LINE
  8
0
 10
-188.667
 20
93.063
 11
-188.476
 21
92.9054
  0
LINE
  8
0
 10
-188.476
 20
92.9054
 11
-188.303
 21
92.7277
  0
LINE
  8
0
 10
-188.303
 20
92.7277
 11
-188.151
 21
92.5321
  0
LINE
  8
0
 10
-188.151
 20
92.5321
 11
-188.021
 21
92.3209
  0
LINE
  8
0
 10
-188.021
 20
92.3209
 11
-187.915
 21
92.0967
  0
LINE
  8
0
 10
-187.915
 20
92.0967
 11
-187.835
 21
91.8622
  0
LINE
  8
0
 10
-187.835
 20
91.8622
 11
-187.781
 21
91.6203
  0
LINE
  8
0
 10
-187.781
 20
91.6203
 11
-187.753
 21
91.3739
  0
LINE
  8
0
 10
-187.753
 20
91.3739
 11
-187.753
 21
91.1261
  0
LINE
  8
0
 10
-187.753
 20
91.1261
 11
-187.781
 21
90.8797
  0
LINE
  8
0
 10
-187.781
 20
90.8797
 11
-187.835
 21
90.6378
  0
LINE
  8
0
 10
-187.835
 20
90.6378
 11
-187.915
 21
90.4033
  0
LINE
  8
0
 10
-187.915
 20
90.4033
 11
-188.021
 21
90.1791
  0
LINE
  8
0
 10
-188.021
 20
90.1791
 11
-188.151
 21
89.9679
  0
LINE
  8
0
 10
-188.151
 20
89.9679
 11
-188.303
 21
89.7723
  0
LINE
  8
0
 10
-188.303
 20
89.7723
 11
-188.476
 21
89.5946
  0
LINE
  8
0
 10
-188.476
 20
89.5946
 11
-188.667
 21
89.437
  0
LINE
  8
0
 10
-188.667
 20
89.437
 11
-188.875
 21
89.3014
  0
LINE
  8
0
 10
-188.875
 20
89.3014
 11
-189.096
 21
89.1895
  0
LINE
  8
0
 10
-189.096
 20
89.1895
 11
-189.328
 21
89.1026
  0
LINE
  8
0
 10
-189.328
 20
89.1026
 11
-189.569
 21
89.0417
  0
LINE
  8
0
 10
-189.569
 20
89.0417
 11
-189.814
 21
89.0077
  0
LINE
  8
0
 10
-189.814
 20
89.0077
 11
-190.062
 21
89.0009
  0
LINE
  8
0
 10
-190.062
 20
89.0009
 11
-190.309
 21
89.0213
  0
LINE
  8
0
 10
189.814
 20
89.0077
 11
189.569
 21
89.0417
  0
LINE
  8
0
 10
189.569
 20
89.0417
 11
189.328
 21
89.1026
  0
LINE
  8
0
 10
189.328
 20
89.1026
 11
189.096
 21
89.1895
  0
LINE
  8
0
 10
189.096
 20
89.1895
 11
188.875
 21
89.3014
  0
LINE
  8
0
 10
188.875
 20
89.3014
 11
188.667
 21
89.437
  0
LINE
  8
0
 10
188.667
 20
89.437
 11
188.476
 21
89.5946
  0
LINE
  8
0
 10
188.476
 20
89.5946
 11
188.303
 21
89.7723
  0
LINE
  8
0
 10
188.303
 20
89.7723
 11
188.151
 21
89.9679
  0
LINE
  8
0
 10
188.151
 20
89.9679
 11
188.021
 21
90.1791
  0
LINE
  8
0
 10
188.021
 20
90.1791
 11
187.915
 21
90.4033
  0
LINE
  8
0
 10
187.915
 20
90.4033
 11
187.835
 21
90.6378
  0
LINE
  8
0
 10
187.835
 20
90.6378
 11
187.781
 21
90.8797
  0
LINE
  8
0
 10
187.781
 20
90.8797
 11
187.753
 21
91.1261
  0
LINE
  8
0
 10
187.753
 20
91.1261
 11
187.753
 21
91.3739
  0
LINE
  8
0
 10
187.753
 20
91.3739
 11
187.781
 21
91.6203
  0
LINE
  8
0
 10
187.781
 20
91.6203
 11
187.835
 21
91.8622
  0
LINE
  8
0
 10
187.835
 20
91.8622
 11
187.915
 21
92.0967
  0
LINE
  8
0
 10
187.915
 20
92.0967
 11
188.021
 21
92.3209
  0
LINE
  8
0
 10
188.021
 20
92.3209
 11
188.151
 21
92.5321
  0
LINE
  8
0
 10
188.151
 20
92.5321
 11
188.303
 21
92.7277
  0
LINE
  8
0
 10
188.303
 20
92.7277
 11
188.476
 21
92.9054
  0
LINE
  8
0
 10
188.476
 20
92.9054
 11
188.667
 21
93.063
  0
LINE
  8
0
 10
188.667
 20
93.063
 11
188.875
 21
93.1985
  0
LINE
  8
0
 10
188.875
 20
93.1985
 11
189.096
 21
93.3105
  0
LINE
  8
0
 10
189.096
 20
93.3105
 11
189.328
 21
93.3974
  0
LINE
  8
0
 10
189.328
 20
93.3974
 11
189.569
 21
93.4583
  0
LINE
  8
0
 10
189.569
 20
93.4583
 11
189.814
 21
93.4923
  0
LINE
  8
0
 10
189.814
 20
93.4923
 11
190.062
 21
93.4991
  0
LINE
  8
0
 10
190.062
 20
93.4991
 11
190.309
 21
93.4787
  0
LINE
  8
0
 10
190.309
 20
93.4787
 11
190.552
 21
93.4312
  0
LINE
  8
0
 10
190.552
 20
93.4312
 11
190.789
 21
93.3571
  0
LINE
  8
0
 10
190.789
 20
93.3571
 11
191.016
 21
93.2576
  0
LINE
  8
0
 10
191.016
 20
93.2576
 11
191.231
 21
93.1336
  0
LINE
  8
0
 10
191.231
 20
93.1336
 11
191.43
 21
92.9868
  0
LINE
  8
0
 10
191.43
 20
92.9868
 11
191.613
 21
92.8189
  0
LINE
  8
0
 10
191.613
 20
92.8189
 11
191.776
 21
92.632
  0
LINE
  8
0
 10
191.776
 20
92.632
 11
191.917
 21
92.4283
  0
LINE
  8
0
 10
191.917
 20
92.4283
 11
192.035
 21
92.2102
  0
LINE
  8
0
 10
192.035
 20
92.2102
 11
192.128
 21
91.9806
  0
LINE
  8
0
 10
192.128
 20
91.9806
 11
192.196
 21
91.742
  0
LINE
  8
0
 10
192.196
 20
91.742
 11
192.236
 21
91.4975
  0
LINE
  8
0
 10
192.236
 20
91.4975
 11
192.25
 21
91.25
  0
LINE
  8
0
 10
192.25
 20
91.25
 11
192.236
 21
91.0025
  0
LINE
  8
0
 10
192.236
 20
91.0025
 11
192.196
 21
90.758
  0
LINE
  8
0
 10
192.196
 20
90.758
 11
192.128
 21
90.5194
  0
LINE
  8
0
 10
192.128
 20
90.5194
 11
192.035
 21
90.2897
  0
LINE
  8
0
 10
192.035
 20
90.2897
 11
191.917
 21
90.0717
  0
LINE
  8
0
 10
191.917
 20
90.0717
 11
191.776
 21
89.868
  0
LINE
  8
0
 10
191.776
 20
89.868
 11
191.613
 21
89.6811
  0
LINE
  8
0
 10
191.613
 20
89.6811
 11
191.43
 21
89.5132
  0
LINE
  8
0
 10
191.43
 20
89.5132
 11
191.231
 21
89.3664
  0
LINE
  8
0
 10
191.231
 20
89.3664
 11
191.016
 21
89.2424
  0
LINE
  8
0
 10
191.016
 20
89.2424
 11
190.789
 21
89.1429
  0
LINE
  8
0
 10
190.789
 20
89.1429
 11
190.552
 21
89.0688
  0
LINE
  8
0
 10
190.552
 20
89.0688
 11
190.309
 21
89.0213
  0
LINE
  8
0
 10
190.309
 20
89.0213
 11
190.062
 21
89.0009
  0
LINE
  8
0
 10
190.062
 20
89.0009
 11
189.814
 21
89.0077
  0
LINE
  8
0
 10
144.377
 20
1.3546
 11
144.133
 21
1.39136
  0
LINE
  8
0
 10
144.133
 20
1.39136
 11
143.897
 21
1.46405
  0
LINE
  8
0
 10
143.897
 20
1.46405
 11
143.675
 21
1.57104
  0
LINE
  8
0
 10
143.675
 20
1.57104
 11
143.471
 21
1.70998
  0
LINE
  8
0
 10
143.471
 20
1.70998
 11
143.29
 21
1.8777
  0
LINE
  8
0
 10
143.29
 20
1.8777
 11
143.137
 21
2.07051
  0
LINE
  8
0
 10
143.137
 20
2.07051
 11
143.013
 21
2.28409
  0
LINE
  8
0
 10
143.013
 20
2.28409
 11
142.923
 21
2.51364
  0
LINE
  8
0
 10
142.923
 20
2.51364
 11
142.868
 21
2.75407
  0
LINE
  8
0
 10
142.868
 20
2.75407
 11
142.85
 21
3
  0
LINE
  8
0
 10
142.85
 20
3
 11
142.868
 21
3.24591
  0
LINE
  8
0
 10
142.868
 20
3.24591
 11
142.923
 21
3.48634
  0
LINE
  8
0
 10
142.923
 20
3.48634
 11
143.013
 21
3.7159
  0
LINE
  8
0
 10
143.013
 20
3.7159
 11
143.137
 21
3.92947
  0
LINE
  8
0
 10
143.137
 20
3.92947
 11
143.29
 21
4.12228
  0
LINE
  8
0
 10
143.29
 20
4.12228
 11
143.471
 21
4.29001
  0
LINE
  8
0
 10
143.471
 20
4.29001
 11
143.675
 21
4.42894
  0
LINE
  8
0
 10
143.675
 20
4.42894
 11
143.897
 21
4.53593
  0
LINE
  8
0
 10
143.897
 20
4.53593
 11
144.133
 21
4.60863
  0
LINE
  8
0
 10
144.133
 20
4.60863
 11
144.377
 21
4.64539
  0
LINE
  8
0
 10
144.377
 20
4.64539
 11
144.623
 21
4.64539
  0
LINE
  8
0
 10
144.623
 20
4.64539
 11
144.867
 21
4.60863
  0
LINE
  8
0
 10
144.867
 20
4.60863
 11
145.103
 21
4.53593
  0
LINE
  8
0
 10
145.103
 20
4.53593
 11
145.325
 21
4.42894
  0
LINE
  8
0
 10
145.325
 20
4.42894
 11
145.529
 21
4.29001
  0
LINE
  8
0
 10
145.529
 20
4.29001
 11
145.71
 21
4.12228
  0
LINE
  8
0
 10
145.71
 20
4.12228
 11
145.863
 21
3.92947
  0
LINE
  8
0
 10
145.863
 20
3.92947
 11
145.987
 21
3.7159
  0
LINE
  8
0
 10
145.987
 20
3.7159
 11
146.077
 21
3.48634
  0
LINE
  8
0
 10
146.077
 20
3.48634
 11
146.132
 21
3.24591
  0
LINE
  8
0
 10
146.132
 20
3.24591
 11
146.15
 21
3
  0
LINE
  8
0
 10
146.15
 20
3
 11
146.132
 21
2.75407
  0
LINE
  8
0
 10
146.132
 20
2.75407
 11
146.077
 21
2.51364
  0
LINE
  8
0
 10
146.077
 20
2.51364
 11
145.987
 21
2.28409
  0
LINE
  8
0
 10
145.987
 20
2.28409
 11
145.863
 21
2.07051
  0
LINE
  8
0
 10
145.863
 20
2.07051
 11
145.71
 21
1.8777
  0
LINE
  8
0
 10
145.71
 20
1.8777
 11
145.529
 21
1.70998
  0
LINE
  8
0
 10
145.529
 20
1.70998
 11
145.325
 21
1.57104
  0
LINE
  8
0
 10
145.325
 20
1.57104
 11
145.103
 21
1.46405
  0
LINE
  8
0
 10
145.103
 20
1.46405
 11
144.867
 21
1.39136
  0
LINE
  8
0
 10
144.867
 20
1.39136
 11
144.623
 21
1.3546
  0
LINE
  8
0
 10
144.623
 20
1.3546
 11
144.377
 21
1.3546
  0
LINE
  8
0
 10
175.377
 20
1.3546
 11
175.133
 21
1.39136
  0
LINE
  8
0
 10
175.133
 20
1.39136
 11
174.897
 21
1.46405
  0
LINE
  8
0
 10
174.897
 20
1.46405
 11
174.675
 21
1.57104
  0
LINE
  8
0
 10
174.675
 20
1.57104
 11
174.471
 21
1.70998
  0
LINE
  8
0
 10
174.471
 20
1.70998
 11
174.29
 21
1.8777
  0
LINE
  8
0
 10
174.29
 20
1.8777
 11
174.137
 21
2.07051
  0
LINE
  8
0
 10
174.137
 20
2.07051
 11
174.013
 21
2.28409
  0
LINE
  8
0
 10
174.013
 20
2.28409
 11
173.923
 21
2.51364
  0
LINE
  8
0
 10
173.923
 20
2.51364
 11
173.868
 21
2.75407
  0
LINE
  8
0
 10
173.868
 20
2.75407
 11
173.85
 21
3
  0
LINE
  8
0
 10
173.85
 20
3
 11
173.868
 21
3.24591
  0
LINE
  8
0
 10
173.868
 20
3.24591
 11
173.923
 21
3.48634
  0
LINE
  8
0
 10
173.923
 20
3.48634
 11
174.013
 21
3.7159
  0
LINE
  8
0
 10
174.013
 20
3.7159
 11
174.137
 21
3.92947
  0
LINE
  8
0
 10
174.137
 20
3.92947
 11
174.29
 21
4.12228
  0
LINE
  8
0
 10
174.29
 20
4.12228
 11
174.471
 21
4.29001
  0
LINE
  8
0
 10
174.471
 20
4.29001
 11
174.675
 21
4.42894
  0
LINE
  8
0
 10
174.675
 20
4.42894
 11
174.897
 21
4.53593
  0
LINE
  8
0
 10
174.897
 20
4.53593
 11
175.133
 21
4.60863
  0
LINE
  8
0
 10
175.133
 20
4.60863
 11
175.377
 21
4.64539
  0
LINE
  8
0
 10
175.377
 20
4.64539
 11
175.623
 21
4.64539
  0
LINE
  8
0
 10
175.623
 20
4.64539
 11
175.867
 21
4.60863
  0
LINE
  8
0
 10
175.867
 20
4.60863
 11
176.103
 21
4.53593
  0
LINE
  8
0
 10
176.103
 20
4.53593
 11
176.325
 21
4.42894
  0
LINE
  8
0
 10
176.325
 20
4.42894
 11
176.529
 21
4.29001
  0
LINE
  8
0
 10
176.529
 20
4.29001
 11
176.71
 21
4.12228
  0
LINE
  8
0
 10
176.71
 20
4.12228
 11
176.863
 21
3.92947
  0
LINE
  8
0
 10
176.863
 20
3.92947
 11
176.987
 21
3.7159
  0
LINE
  8
0
 10
176.987
 20
3.7159
 11
177.077
 21
3.48634
  0
LINE
  8
0
 10
177.077
 20
3.48634
 11
177.132
 21
3.24591
  0
LINE
  8
0
 10
177.132
 20
3.24591
 11
177.15
 21
3
  0
LINE
  8
0
 10
177.15
 20
3
 11
177.132
 21
2.75407
  0
LINE
  8
0
 10
177.132
 20
2.75407
 11
177.077
 21
2.51364
  0
LINE
  8
0
 10
177.077
 20
2.51364
 11
176.987
 21
2.28409
  0
LINE
  8
0
 10
176.987
 20
2.28409
 11
176.863
 21
2.07051
  0
LINE
  8
0
 10
176.863
 20
2.07051
 11
176.71
 21
1.8777
  0
LINE
  8
0
 10
176.71
 20
1.8777
 11
176.529
 21
1.70998
  0
LINE
  8
0
 10
176.529
 20
1.70998
 11
176.325
 21
1.57104
  0
LINE
  8
0
 10
176.325
 20
1.57104
 11
176.103
 21
1.46405
  0
LINE
  8
0
 10
176.103
 20
1.46405
 11
175.867
 21
1.39136
  0
LINE
  8
0
 10
175.867
 20
1.39136
 11
175.623
 21
1.3546
  0
LINE
  8
0
 10
175.623
 20
1.3546
 11
175.377
 21
1.3546
  0
LINE
  8
0
 10
-130.309
 20
-2.22867
 11
-130.552
 21
-2.18114
  0
LINE
  8
0
 10
-130.552
 20
-2.18114
 11
-130.789
 21
-2.10715
  0
LINE
  8
0
 10
-130.789
 20
-2.10715
 11
-131.016
 21
-2.00757
  0
LINE
  8
0
 10
-131.016
 20
-2.00757
 11
-131.231
 21
-1.88362
  0
LINE
  8
0
 10
-131.231
 20
-1.88362
 11
-131.43
 21
-1.7368
  0
LINE
  8
0
 10
-131.43
 20
-1.7368
 11
-131.613
 21
-1.56891
  0
LINE
  8
0
 10
-131.613
 20
-1.56891
 11
-131.776
 21
-1.38197
  0
LINE
  8
0
 10
-131.776
 20
-1.38197
 11
-131.917
 21
-1.17825
  0
LINE
  8
0
 10
-131.917
 20
-1.17825
 11
-132.035
 21
-0.960236
  0
LINE
  8
0
 10
-132.035
 20
-0.960236
 11
-132.128
 21
-0.73056
  0
LINE
  8
0
 10
-132.128
 20
-0.73056
 11
-132.196
 21
-0.49202
  0
LINE
  8
0
 10
-132.196
 20
-0.49202
 11
-132.236
 21
-0.247513
  0
LINE
  8
0
 10
-132.236
 20
-0.247513
 11
-132.25
 21
0
  0
LINE
  8
0
 10
-132.25
 20
0
 11
-132.236
 21
0.247513
  0
LINE
  8
0
 10
-132.236
 20
0.247513
 11
-132.196
 21
0.49202
  0
LINE
  8
0
 10
-132.196
 20
0.49202
 11
-132.128
 21
0.73056
  0
LINE
  8
0
 10
-132.128
 20
0.73056
 11
-132.035
 21
0.960236
  0
LINE
  8
0
 10
-132.035
 20
0.960236
 11
-131.917
 21
1.17825
  0
LINE
  8
0
 10
-131.917
 20
1.17825
 11
-131.776
 21
1.38197
  0
LINE
  8
0
 10
-131.776
 20
1.38197
 11
-131.613
 21
1.56891
  0
LINE
  8
0
 10
-131.613
 20
1.56891
 11
-131.43
 21
1.7368
  0
LINE
  8
0
 10
-131.43
 20
1.7368
 11
-131.231
 21
1.88362
  0
LINE
  8
0
 10
-131.231
 20
1.88362
 11
-131.016
 21
2.00757
  0
LINE
  8
0
 10
-131.016
 20
2.00757
 11
-130.789
 21
2.10715
  0
LINE
  8
0
 10
-130.789
 20
2.10715
 11
-130.552
 21
2.18114
  0
LINE
  8
0
 10
-130.552
 20
2.18114
 11
-130.309
 21
2.22867
  0
LINE
  8
0
 10
-130.309
 20
2.22867
 11
-130.062
 21
2.24915
  0
LINE
  8
0
 10
-130.062
 20
2.24915
 11
-129.814
 21
2.24231
  0
LINE
  8
0
 10
-129.814
 20
2.24231
 11
-129.569
 21
2.20825
  0
LINE
  8
0
 10
-129.569
 20
2.20825
 11
-129.328
 21
2.1474
  0
LINE
  8
0
 10
-129.328
 20
2.1474
 11
-129.096
 21
2.06049
  0
LINE
  8
0
 10
-129.096
 20
2.06049
 11
-128.875
 21
1.94855
  0
LINE
  8
0
 10
-128.875
 20
1.94855
 11
-128.667
 21
1.81296
  0
LINE
  8
0
 10
-128.667
 20
1.81296
 11
-128.476
 21
1.65536
  0
LINE
  8
0
 10
-128.476
 20
1.65536
 11
-128.303
 21
1.47769
  0
LINE
  8
0
 10
-128.303
 20
1.47769
 11
-128.151
 21
1.28206
  0
LINE
  8
0
 10
-128.151
 20
1.28206
 11
-128.021
 21
1.07088
  0
LINE
  8
0
 10
-128.021
 20
1.07088
 11
-127.915
 21
0.846695
  0
LINE
  8
0
 10
-127.915
 20
0.846695
 11
-127.835
 21
0.612228
  0
LINE
  8
0
 10
-127.835
 20
0.612228
 11
-127.781
 21
0.370331
  0
LINE
  8
0
 10
-127.781
 20
0.370331
 11
-127.753
 21
0.123947
  0
LINE
  8
0
 10
-127.753
 20
0.123947
 11
-127.753
 21
-0.123947
  0
LINE
  8
0
 10
-127.753
 20
-0.123947
 11
-127.781
 21
-0.370331
  0
LINE
  8
0
 10
-127.781
 20
-0.370331
 11
-127.835
 21
-0.612228
  0
LINE
  8
0
 10
-127.835
 20
-0.612228
 11
-127.915
 21
-0.846695
  0
LINE
  8
0
 10
-127.915
 20
-0.846695
 11
-128.021
 21
-1.07088
  0
LINE
  8
0
 10
-128.021
 20
-1.07088
 11
-128.151
 21
-1.28206
  0
LINE
  8
0
 10
-128.151
 20
-1.28206
 11
-128.303
 21
-1.47769
  0
LINE
  8
0
 10
-128.303
 20
-1.47769
 11
-128.476
 21
-1.65536
  0
LINE
  8
0
 10
-128.476
 20
-1.65536
 11
-128.667
 21
-1.81296
  0
LINE
  8
0
 10
-128.667
 20
-1.81296
 11
-128.875
 21
-1.94855
  0
LINE
  8
0
 10
-128.875
 20
-1.94855
 11
-129.096
 21
-2.06049
  0
LINE
  8
0
 10
-129.096
 20
-2.06049
 11
-129.328
 21
-2.1474
  0
LINE
  8
0
 10
-129.328
 20
-2.1474
 11
-129.569
 21
-2.20825
  0
LINE
  8
0
 10
-129.569
 20
-2.20825
 11
-129.814
 21
-2.24231
  0
LINE
  8
0
 10
-129.814
 20
-2.24231
 11
-130.062
 21
-2.24915
  0
LINE
  8
0
 10
-130.062
 20
-2.24915
 11
-130.309
 21
-2.22867
  0
LINE
  8
0
 10
129.814
 20
-2.24231
 11
129.569
 21
-2.20825
  0
LINE
  8
0
 10
129.569
 20
-2.20825
 11
129.328
 21
-2.1474
  0
LINE
  8
0
 10
129.328
 20
-2.1474
 11
129.096
 21
-2.06049
  0
LINE
  8
0
 10
129.096
 20
-2.06049
 11
128.875
 21
-1.94855
  0
LINE
  8
0
 10
128.875
 20
-1.94855
 11
128.667
 21
-1.81296
  0
LINE
  8
0
 10
128.667
 20
-1.81296
 11
128.476
 21
-1.65536
  0
LINE
  8
0
 10
128.476
 20
-1.65536
 11
128.303
 21
-1.47769
  0
LINE
  8
0
 10
128.303
 20
-1.47769
 11
128.151
 21
-1.28206
  0
LINE
  8
0
 10
128.151
 20
-1.28206
 11
128.021
 21
-1.07088
  0
LINE
  8
0
 10
128.021
 20
-1.07088
 11
127.915
 21
-0.846695
  0
LINE
  8
0
 10
127.915
 20
-0.846695
 11
127.835
 21
-0.612228
  0
LINE
  8
0
 10
127.835
 20
-0.612228
 11
127.781
 21
-0.370331
  0
LINE
  8
0
 10
127.781
 20
-0.370331
 11
127.753
 21
-0.123947
  0
LINE
  8
0
 10
127.753
 20
-0.123947
 11
127.753
 21
0.123947
  0
LINE
  8
0
 10
127.753
 20
0.123947
 11
127.781
 21
0.370331
  0
LINE
  8
0
 10
127.781
 20
0.370331
 11
127.835
 21
0.612228
  0
LINE
  8
0
 10
127.835
 20
0.612228
 11
127.915
 21
0.846695
  0
LINE
  8
0
 10
127.915
 20
0.846695
 11
128.021
 21
1.07088
  0
LINE
  8
0
 10
128.021
 20
1.07088
 11
128.151
 21
1.28206
  0
LINE
  8
0
 10
128.151
 20
1.28206
 11
128.303
 21
1.47769
  0
LINE
  8
0
 10
128.303
 20
1.47769
 11
128.476
 21
1.65536
  0
LINE
  8
0
 10
128.476
 20
1.65536
 11
128.667
 21
1.81296
  0
LINE
  8
0
 10
128.667
 20
1.81296
 11
128.875
 21
1.94855
  0
LINE
  8
0
 10
128.875
 20
1.94855
 11
129.096
 21
2.06049
  0
LINE
  8
0
 10
129.096
 20
2.06049
 11
129.328
 21
2.1474
  0
LINE
  8
0
 10
129.328
 20
2.1474
 11
129.569
 21
2.20825
  0
LINE
  8
0
 10
129.569
 20
2.20825
 11
129.814
 21
2.24231
  0
LINE
  8
0
 10
129.814
 20
2.24231
 11
130.062
 21
2.24915
  0
LINE
  8
0
 10
130.062
 20
2.24915
 11
130.309
 21
2.22867
  0
LINE
  8
0
 10
130.309
 20
2.22867
 11
130.552
 21
2.18114
  0
LINE
  8
0
 10
130.552
 20
2.18114
 11
130.789
 21
2.10715
  0
LINE
  8
0
 10
130.789
 20
2.10715
 11
131.016
 21
2.00757
  0
LINE
  8
0
 10
131.016
 20
2.00757
 11
131.231
 21
1.88362
  0
LINE
  8
0
 10
131.231
 20
1.88362
 11
131.43
 21
1.7368
  0
LINE
  8
0
 10
131.43
 20
1.7368
 11
131.613
 21
1.56891
  0
LINE
  8
0
 10
131.613
 20
1.56891
 11
131.776
 21
1.38197
  0
LINE
  8
0
 10
131.776
 20
1.38197
 11
131.917
 21
1.17825
  0
LINE
  8
0
 10
131.917
 20
1.17825
 11
132.035
 21
0.960236
  0
LINE
  8
0
 10
132.035
 20
0.960236
 11
132.128
 21
0.73056
  0
LINE
  8
0
 10
132.128
 20
0.73056
 11
132.196
 21
0.49202
  0
LINE
  8
0
 10
132.196
 20
0.49202
 11
132.236
 21
0.247513
  0
LINE
  8
0
 10
132.236
 20
0.247513
 11
132.25
 21
0
  0
LINE
  8
0
 10
132.25
 20
0
 11
132.236
 21
-0.247513
  0
LINE
  8
0
 10
132.236
 20
-0.247513
 11
132.196
 21
-0.49202
  0
LINE
  8
0
 10
132.196
 20
-0.49202
 11
132.128
 21
-0.73056
  0
LINE
  8
0
 10
132.128
 20
-0.73056
 11
132.035
 21
-0.960236
  0
LINE
  8
0
 10
132.035
 20
-0.960236
 11
131.917
 21
-1.17825
  0
LINE
  8
0
 10
131.917
 20
-1.17825
 11
131.776
 21
-1.38197
  0
LINE
  8
0
 10
131.776
 20
-1.38197
 11
131.613
 21
-1.56891
  0
LINE
  8
0
 10
131.613
 20
-1.56891
 11
131.43
 21
-1.7368
  0
LINE
  8
0
 10
131.43
 20
-1.7368
 11
131.231
 21
-1.88362
  0
LINE
  8
0
 10
131.231
 20
-1.88362
 11
131.016
 21
-2.00757
  0
LINE
  8
0
 10
131.016
 20
-2.00757
 11
130.789
 21
-2.10715
  0
LINE
  8
0
 10
130.789
 20
-2.10715
 11
130.552
 21
-2.18114
  0
LINE
  8
0
 10
130.552
 20
-2.18114
 11
130.309
 21
-2.22867
  0
LINE
  8
0
 10
130.309
 20
-2.22867
 11
130.062
 21
-2.24915
  0
LINE
  8
0
 10
130.062
 20
-2.24915
 11
129.814
 21
-2.24231
  0
LINE
  8
0
 10
-190.309
 20
-2.22867
 11
-190.552
 21
-2.18114
  0
LINE
  8
0
 10
-190.552
 20
-2.18114
 11
-190.789
 21
-2.10715
  0
LINE
  8
0
 10
-190.789
 20
-2.10715
 11
-191.016
 21
-2.00757
  0
LINE
  8
0
 10
-191.016
 20
-2.00757
 11
-191.231
 21
-1.88362
  0
LINE
  8
0
 10
-191.231
 20
-1.88362
 11
-191.43
 21
-1.7368
  0
LINE
  8
0
 10
-191.43
 20
-1.7368
 11
-191.613
 21
-1.56891
  0
LINE
  8
0
 10
-191.613
 20
-1.56891
 11
-191.776
 21
-1.38197
  0
LINE
  8
0
 10
-191.776
 20
-1.38197
 11
-191.917
 21
-1.17825
  0
LINE
  8
0
 10
-191.917
 20
-1.17825
 11
-192.035
 21
-0.960236
  0
LINE
  8
0
 10
-192.035
 20
-0.960236
 11
-192.128
 21
-0.73056
  0
LINE
  8
0
 10
-192.128
 20
-0.73056
 11
-192.196
 21
-0.49202
  0
LINE
  8
0
 10
-192.196
 20
-0.49202
 11
-192.236
 21
-0.247513
  0
LINE
  8
0
 10
-192.236
 20
-0.247513
 11
-192.25
 21
0
  0
LINE
  8
0
 10
-192.25
 20
0
 11
-192.236
 21
0.247513
  0
LINE
  8
0
 10
-192.236
 20
0.247513
 11
-192.196
 21
0.49202
  0
LINE
  8
0
 10
-192.196
 20
0.49202
 11
-192.128
 21
0.73056
  0
LINE
  8
0
 10
-192.128
 20
0.73056
 11
-192.035
 21
0.960236
  0
LINE
  8
0
 10
-192.035
 20
0.960236
 11
-191.917
 21
1.17825
  0
LINE
  8
0
 10
-191.917
 20
1.17825
 11
-191.776
 21
1.38197
  0
LINE
  8
0
 10
-191.776
 20
1.38197
 11
-191.613
 21
1.56891
  0
LINE
  8
0
 10
-191.613
 20
1.56891
 11
-191.43
 21
1.7368
  0
LINE
  8
0
 10
-191.43
 20
1.7368
 11
-191.231
 21
1.88362
  0
LINE
  8
0
 10
-191.231
 20
1.88362
 11
-191.016
 21
2.00757
  0
LINE
  8
0
 10
-191.016
 20
2.00757
 11
-190.789
 21
2.10715
  0
LINE
  8
0
 10
-190.789
 20
2.10715
 11
-190.552
 21
2.18114
  0
LINE
  8
0
 10
-190.552
 20
2.18114
 11
-190.309
 21
2.22867
  0
LINE
  8
0
 10
-190.309
 20
2.22867
 11
-190.062
 21
2.24915
  0
LINE
  8
0
 10
-190.062
 20
2.24915
 11
-189.814
 21
2.24231
  0
LINE
  8
0
 10
-189.814
 20
2.24231
 11
-189.569
 21
2.20825
  0
LINE
  8
0
 10
-189.569
 20
2.20825
 11
-189.328
 21
2.1474
  0
LINE
  8
0
 10
-189.328
 20
2.1474
 11
-189.096
 21
2.06049
  0
LINE
  8
0
 10
-189.096
 20
2.06049
 11
-188.875
 21
1.94855
  0
LINE
  8
0
 10
-188.875
 20
1.94855
 11
-188.667
 21
1.81296
  0
LINE
  8
0
 10
-188.667
 20
1.81296
 11
-188.476
 21
1.65536
  0
LINE
  8
0
 10
-188.476
 20
1.65536
 11
-188.303
 21
1.47769
  0
LINE
  8
0
 10
-188.303
 20
1.47769
 11
-188.151
 21
1.28206
  0
LINE
  8
0
 10
-188.151
 20
1.28206
 11
-188.021
 21
1.07088
  0
LINE
  8
0
 10
-188.021
 20
1.07088
 11
-187.915
 21
0.846695
  0
LINE
  8
0
 10
-187.915
 20
0.846695
 11
-187.835
 21
0.612228
  0
LINE
  8
0
 10
-187.835
 20
0.612228
 11
-187.781
 21
0.370331
  0
LINE
  8
0
 10
-187.781
 20
0.370331
 11
-187.753
 21
0.123947
  0
LINE
  8
0
 10
-187.753
 20
0.123947
 11
-187.753
 21
-0.123947
  0
LINE
  8
0
 10
-187.753
 20
-0.123947
 11
-187.781
 21
-0.370331
  0
LINE
  8
0
 10
-187.781
 20
-0.370331
 11
-187.835
 21
-0.612228
  0
LINE
  8
0
 10
-187.835
 20
-0.612228
 11
-187.915
 21
-0.846695
  0
LINE
  8
0
 10
-187.915
 20
-0.846695
 11
-188.021
 21
-1.07088
  0
LINE
  8
0
 10
-188.021
 20
-1.07088
 11
-188.151
 21
-1.28206
  0
LINE
  8
0
 10
-188.151
 20
-1.28206
 11
-188.303
 21
-1.47769
  0
LINE
  8
0
 10
-188.303
 20
-1.47769
 11
-188.476
 21
-1.65536
  0
LINE
  8
0
 10
-188.476
 20
-1.65536
 11
-188.667
 21
-1.81296
  0
LINE
  8
0
 10
-188.667
 20
-1.81296
 11
-188.875
 21
-1.94855
  0
LINE
  8
0
 10
-188.875
 20
-1.94855
 11
-189.096
 21
-2.06049
  0
LINE
  8
0
 10
-189.096
 20
-2.06049
 11
-189.328
 21
-2.1474
  0
LINE
  8
0
 10
-189.328
 20
-2.1474
 11
-189.569
 21
-2.20825
  0
LINE
  8
0
 10
-189.569
 20
-2.20825
 11
-189.814
 21
-2.24231
  0
LINE
  8
0
 10
-189.814
 20
-2.24231
 11
-190.062
 21
-2.24915
  0
LINE
  8
0
 10
-190.062
 20
-2.24915
 11
-190.309
 21
-2.22867
  0
LINE
  8
0
 10
189.814
 20
-2.24231
 11
189.569
 21
-2.20825
  0
LINE
  8
0
 10
189.569
 20
-2.20825
 11
189.328
 21
-2.1474
  0
LINE
  8
0
 10
189.328
 20
-2.1474
 11
189.096
 21
-2.06049
  0
LINE
  8
0
 10
189.096
 20
-2.06049
 11
188.875
 21
-1.94855
  0
LINE
  8
0
 10
188.875
 20
-1.94855
 11
188.667
 21
-1.81296
  0
LINE
  8
0
 10
188.667
 20
-1.81296
 11
188.476
 21
-1.65536
  0
LINE
  8
0
 10
188.476
 20
-1.65536
 11
188.303
 21
-1.47769
  0
LINE
  8
0
 10
188.303
 20
-1.47769
 11
188.151
 21
-1.28206
  0
LINE
  8
0
 10
188.151
 20
-1.28206
 11
188.021
 21
-1.07088
  0
LINE
  8
0
 10
188.021
 20
-1.07088
 11
187.915
 21
-0.846695
  0
LINE
  8
0
 10
187.915
 20
-0.846695
 11
187.835
 21
-0.612228
  0
LINE
  8
0
 10
187.835
 20
-0.612228
 11
187.781
 21
-0.370331
  0
LINE
  8
0
 10
187.781
 20
-0.370331
 11
187.753
 21
-0.123947
  0
LINE
  8
0
 10
187.753
 20
-0.123947
 11
187.753
 21
0.123947
  0
LINE
  8
0
 10
187.753
 20
0.123947
 11
187.781
 21
0.370331
  0
LINE
  8
0
 10
187.781
 20
0.370331
 11
187.835
 21
0.612228
  0
LINE
  8
0
 10
187.835
 20
0.612228
 11
187.915
 21
0.846695
  0
LINE
  8
0
 10
187.915
 20
0.846695
 11
188.021
 21
1.07088
  0
LINE
  8
0
 10
188.021
 20
1.07088
 11
188.151
 21
1.28206
  0
LINE
  8
0
 10
188.151
 20
1.28206
 11
188.303
 21
1.47769
  0
LINE
  8
0
 10
188.303
 20
1.47769
 11
188.476
 21
1.65536
  0
LINE
  8
0
 10
188.476
 20
1.65536
 11
188.667
 21
1.81296
  0
LINE
  8
0
 10
188.667
 20
1.81296
 11
188.875
 21
1.94855
  0
LINE
  8
0
 10
188.875
 20
1.94855
 11
189.096
 21
2.06049
  0
LINE
  8
0
 10
189.096
 20
2.06049
 11
189.328
 21
2.1474
  0
LINE
  8
0
 10
189.328
 20
2.1474
 11
189.569
 21
2.20825
  0
LINE
  8
0
 10
189.569
 20
2.20825
 11
189.814
 21
2.24231
  0
LINE
  8
0
 10
189.814
 20
2.24231
 11
190.062
 21
2.24915
  0
LINE
  8
0
 10
190.062
 20
2.24915
 11
190.309
 21
2.22867
  0
LINE
  8
0
 10
190.309
 20
2.22867
 11
190.552
 21
2.18114
  0
LINE
  8
0
 10
190.552
 20
2.18114
 11
190.789
 21
2.10715
  0
LINE
  8
0
 10
190.789
 20
2.10715
 11
191.016
 21
2.00757
  0
LINE
  8
0
 10
191.016
 20
2.00757
 11
191.231
 21
1.88362
  0
LINE
  8
0
 10
191.231
 20
1.88362
 11
191.43
 21
1.7368
  0
LINE
  8
0
 10
191.43
 20
1.7368
 11
191.613
 21
1.56891
  0
LINE
  8
0
 10
191.613
 20
1.56891
 11
191.776
 21
1.38197
  0
LINE
  8
0
 10
191.776
 20
1.38197
 11
191.917
 21
1.17825
  0
LINE
  8
0
 10
191.917
 20
1.17825
 11
192.035
 21
0.960236
  0
LINE
  8
0
 10
192.035
 20
0.960236
 11
192.128
 21
0.73056
  0
LINE
  8
0
 10
192.128
 20
0.73056
 11
192.196
 21
0.49202
  0
LINE
  8
0
 10
192.196
 20
0.49202
 11
192.236
 21
0.247513
  0
LINE
  8
0
 10
192.236
 20
0.247513
 11
192.25
 21
0
  0
LINE
  8
0
 10
192.25
 20
0
 11
192.236
 21
-0.247513
  0
LINE
  8
0
 10
192.236
 20
-0.247513
 11
192.196
 21
-0.49202
  0
LINE
  8
0
 10
192.196
 20
-0.49202
 11
192.128
 21
-0.73056
  0
LINE
  8
0
 10
192.128
 20
-0.73056
 11
192.035
 21
-0.960236
  0
LINE
  8
0
 10
192.035
 20
-0.960236
 11
191.917
 21
-1.17825
  0
LINE
  8
0
 10
191.917
 20
-1.17825
 11
191.776
 21
-1.38197
  0
LINE
  8
0
 10
191.776
 20
-1.38197
 11
191.613
 21
-1.56891
  0
LINE
  8
0
 10
191.613
 20
-1.56891
 11
191.43
 21
-1.7368
  0
LINE
  8
0
 10
191.43
 20
-1.7368
 11
191.231
 21
-1.88362
  0
LINE
  8
0
 10
191.231
 20
-1.88362
 11
191.016
 21
-2.00757
  0
LINE
  8
0
 10
191.016
 20
-2.00757
 11
190.789
 21
-2.10715
  0
LINE
  8
0
 10
190.789
 20
-2.10715
 11
190.552
 21
-2.18114
  0
LINE
  8
0
 10
190.552
 20
-2.18114
 11
190.309
 21
-2.22867
  0
LINE
  8
0
 10
190.309
 20
-2.22867
 11
190.062
 21
-2.24915
  0
LINE
  8
0
 10
190.062
 20
-2.24915
 11
189.814
 21
-2.24231
  0
LINE
  8
0
 10
158.798
 20
-23.937
 11
157.609
 21
-23.7487
  0
LINE
  8
0
 10
157.609
 20
-23.7487
 11
156.446
 21
-23.4371
  0
LINE
  8
0
 10
156.446
 20
-23.4371
 11
155.323
 21
-23.0058
  0
LINE
  8
0
 10
155.323
 20
-23.0058
 11
154.25
 21
-22.4593
  0
LINE
  8
0
 10
154.25
 20
-22.4593
 11
153.24
 21
-21.8037
  0
LINE
  8
0
 10
153.24
 20
-21.8037
 11
152.305
 21
-21.0462
  0
LINE
  8
0
 10
152.305
 20
-21.0462
 11
151.454
 21
-20.195
  0
LINE
  8
0
 10
151.454
 20
-20.195
 11
150.696
 21
-19.2595
  0
LINE
  8
0
 10
150.696
 20
-19.2595
 11
150.041
 21
-18.25
  0
LINE
  8
0
 10
150.041
 20
-18.25
 11
149.494
 21
-17.1775
  0
LINE
  8
0
 10
149.494
 20
-17.1775
 11
149.063
 21
-16.0537
  0
LINE
  8
0
 10
149.063
 20
-16.0537
 11
148.751
 21
-14.891
  0
LINE
  8
0
 10
148.751
 20
-14.891
 11
148.563
 21
-13.7021
  0
LINE
  8
0
 10
148.563
 20
-13.7021
 11
148.5
 21
-12.5
  0
LINE
  8
0
 10
148.5
 20
-12.5
 11
148.563
 21
-11.2979
  0
LINE
  8
0
 10
148.563
 20
-11.2979
 11
148.751
 21
-10.109
  0
LINE
  8
0
 10
148.751
 20
-10.109
 11
149.063
 21
-8.9463
  0
LINE
  8
0
 10
149.063
 20
-8.9463
 11
149.494
 21
-7.82253
  0
LINE
  8
0
 10
149.494
 20
-7.82253
 11
150.041
 21
-6.75
  0
LINE
  8
0
 10
150.041
 20
-6.75
 11
150.696
 21
-5.74046
  0
LINE
  8
0
 10
150.696
 20
-5.74046
 11
151.454
 21
-4.80499
  0
LINE
  8
0
 10
151.454
 20
-4.80499
 11
152.305
 21
-3.95383
  0
LINE
  8
0
 10
152.305
 20
-3.95383
 11
153.24
 21
-3.1963
  0
LINE
  8
0
 10
153.24
 20
-3.1963
 11
154.25
 21
-2.5407
  0
LINE
  8
0
 10
154.25
 20
-2.5407
 11
155.323
 21
-1.99422
  0
LINE
  8
0
 10
155.323
 20
-1.99422
 11
156.446
 21
-1.56285
  0
LINE
  8
0
 10
156.446
 20
-1.56285
 11
157.609
 21
-1.2513
  0
LINE
  8
0
 10
157.609
 20
-1.2513
 11
158.798
 21
-1.06299
  0
LINE
  8
0
 10
158.798
 20
-1.06299
 11
160
 21
-1
  0
LINE
  8
0
 10
160
 20
-1
 11
161.202
 21
-1.06299
  0
LINE
  8
0
 10
161.202
 20
-1.06299
 11
162.391
 21
-1.2513
  0
LINE
  8
0
 10
162.391
 20
-1.2513
 11
163.554
 21
-1.56285
  0
LINE
  8
0
 10
163.554
 20
-1.56285
 11
164.677
 21
-1.99422
  0
LINE
  8
0
 10
164.677
 20
-1.99422
 11
165.75
 21
-2.5407
  0
LINE
  8
0
 10
165.75
 20
-2.5407
 11
166.76
 21
-3.1963
  0
LINE
  8
0
 10
166.76
 20
-3.1963
 11
167.695
 21
-3.95383
  0
LINE
  8
0
 10
167.695
 20
-3.95383
 11
168.546
 21
-4.80499
  0
LINE
  8
0
 10
168.546
 20
-4.80499
 11
169.304
 21
-5.74046
  0
LINE
  8
0
 10
169.304
 20
-5.74046
 11
169.959
 21
-6.75
  0
LINE
  8
0
 10
169.959
 20
-6.75
 11
170.506
 21
-7.82253
  0
LINE
  8
0
 10
170.506
 20
-7.82253
 11
170.937
 21
-8.9463
  0
LINE
  8
0
 10
170.937
 20
-8.9463
 11
171.249
 21
-10.109
  0
LINE
  8
0
 10
171.249
 20
-10.109
 11
171.437
 21
-11.2979
  0
LINE
  8
0
 10
171.437
 20
-11.2979
 11
171.5
 21
-12.5
  0
LINE
  8
0
 10
171.5
 20
-12.5
 11
171.437
 21
-13.7021
  0
LINE
  8
0
 10
171.437
 20
-13.7021
 11
171.249
 21
-14.891
  0
LINE
  8
0
 10
171.249
 20
-14.891
 11
170.937
 21
-16.0537
  0
LINE
  8
0
 10
170.937
 20
-16.0537
 11
170.506
 21
-17.1775
  0
LINE
  8
0
 10
170.506
 20
-17.1775
 11
169.959
 21
-18.25
  0
LINE
  8
0
 10
169.959
 20
-18.25
 11
169.304
 21
-19.2595
  0
LINE
  8
0
 10
169.304
 20
-19.2595
 11
168.546
 21
-20.195
  0
LINE
  8
0
 10
168.546
 20
-20.195
 11
167.695
 21
-21.0462
  0
LINE
  8
0
 10
167.695
 20
-21.0462
 11
166.76
 21
-21.8037
  0
LINE
  8
0
 10
166.76
 20
-21.8037
 11
165.75
 21
-22.4593
  0
LINE
  8
0
 10
165.75
 20
-22.4593
 11
164.677
 21
-23.0058
  0
LINE
  8
0
 10
164.677
 20
-23.0058
 11
163.554
 21
-23.4371
  0
LINE
  8
0
 10
163.554
 20
-23.4371
 11
162.391
 21
-23.7487
  0
LINE
  8
0
 10
162.391
 20
-23.7487
 11
161.202
 21
-23.937
  0
LINE
  8
0
 10
161.202
 20
-23.937
 11
160
 21
-24
  0
LINE
  8
0
 10
160
 20
-24
 11
158.798
 21
-23.937
  0
LINE
  8
0
 10
144.377
 20
-29.6454
 11
144.133
 21
-29.6086
  0
LINE
  8
0
 10
144.133
 20
-29.6086
 11
143.897
 21
-29.5359
  0
LINE
  8
0
 10
143.897
 20
-29.5359
 11
143.675
 21
-29.4289
  0
LINE
  8
0
 10
143.675
 20
-29.4289
 11
143.471
 21
-29.29
  0
LINE
  8
0
 10
143.471
 20
-29.29
 11
143.29
 21
-29.1223
  0
LINE
  8
0
 10
143.29
 20
-29.1223
 11
143.137
 21
-28.9295
  0
LINE
  8
0
 10
143.137
 20
-28.9295
 11
143.013
 21
-28.7159
  0
LINE
  8
0
 10
143.013
 20
-28.7159
 11
142.923
 21
-28.4863
  0
LINE
  8
0
 10
142.923
 20
-28.4863
 11
142.868
 21
-28.2459
  0
LINE
  8
0
 10
142.868
 20
-28.2459
 11
142.85
 21
-28
  0
LINE
  8
0
 10
142.85
 20
-28
 11
142.868
 21
-27.7541
  0
LINE
  8
0
 10
142.868
 20
-27.7541
 11
142.923
 21
-27.5136
  0
LINE
  8
0
 10
142.923
 20
-27.5136
 11
143.013
 21
-27.2841
  0
LINE
  8
0
 10
143.013
 20
-27.2841
 11
143.137
 21
-27.0705
  0
LINE
  8
0
 10
143.137
 20
-27.0705
 11
143.29
 21
-26.8777
  0
LINE
  8
0
 10
143.29
 20
-26.8777
 11
143.471
 21
-26.71
  0
LINE
  8
0
 10
143.471
 20
-26.71
 11
143.675
 21
-26.571
  0
LINE
  8
0
 10
143.675
 20
-26.571
 11
143.897
 21
-26.4641
  0
LINE
  8
0
 10
143.897
 20
-26.4641
 11
144.133
 21
-26.3914
  0
LINE
  8
0
 10
144.133
 20
-26.3914
 11
144.377
 21
-26.3546
  0
LINE
  8
0
 10
144.377
 20
-26.3546
 11
144.623
 21
-26.3546
  0
LINE
  8
0
 10
144.623
 20
-26.3546
 11
144.867
 21
-26.3914
  0
LINE
  8
0
 10
144.867
 20
-26.3914
 11
145.103
 21
-26.4641
  0
LINE
  8
0
 10
145.103
 20
-26.4641
 11
145.325
 21
-26.571
  0
LINE
  8
0
 10
145.325
 20
-26.571
 11
145.529
 21
-26.71
  0
LINE
  8
0
 10
145.529
 20
-26.71
 11
145.71
 21
-26.8777
  0
LINE
  8
0
 10
145.71
 20
-26.8777
 11
145.863
 21
-27.0705
  0
LINE
  8
0
 10
145.863
 20
-27.0705
 11
145.987
 21
-27.2841
  0
LINE
  8
0
 10
145.987
 20
-27.2841
 11
146.077
 21
-27.5136
  0
LINE
  8
0
 10
146.077
 20
-27.5136
 11
146.132
 21
-27.7541
  0
LINE
  8
0
 10
146.132
 20
-27.7541
 11
146.15
 21
-28
  0
LINE
  8
0
 10
146.15
 20
-28
 11
146.132
 21
-28.2459
  0
LINE
  8
0
 10
146.132
 20
-28.2459
 11
146.077
 21
-28.4863
  0
LINE
  8
0
 10
146.077
 20
-28.4863
 11
145.987
 21
-28.7159
  0
LINE
  8
0
 10
145.987
 20
-28.7159
 11
145.863
 21
-28.9295
  0
LINE
  8
0
 10
145.863
 20
-28.9295
 11
145.71
 21
-29.1223
  0
LINE
  8
0
 10
145.71
 20
-29.1223
 11
145.529
 21
-29.29
  0
LINE
  8
0
 10
145.529
 20
-29.29
 11
145.325
 21
-29.4289
  0
LINE
  8
0
 10
145.325
 20
-29.4289
 11
145.103
 21
-29.5359
  0
LINE
  8
0
 10
145.103
 20
-29.5359
 11
144.867
 21
-29.6086
  0
LINE
  8
0
 10
144.867
 20
-29.6086
 11
144.623
 21
-29.6454
  0
LINE
  8
0
 10
144.623
 20
-29.6454
 11
144.377
 21
-29.6454
  0
LINE
  8
0
 10
175.377
 20
-29.6454
 11
175.133
 21
-29.6086
  0
LINE
  8
0
 10
175.133
 20
-29.6086
 11
174.897
 21
-29.5359
  0
LINE
  8
0
 10
174.897
 20
-29.5359
 11
174.675
 21
-29.4289
  0
LINE
  8
0
 10
174.675
 20
-29.4289
 11
174.471
 21
-29.29
  0
LINE
  8
0
 10
174.471
 20
-29.29
 11
174.29
 21
-29.1223
  0
LINE
  8
0
 10
174.29
 20
-29.1223
 11
174.137
 21
-28.9295
  0
LINE
  8
0
 10
174.137
 20
-28.9295
 11
174.013
 21
-28.7159
  0
LINE
  8
0
 10
174.013
 20
-28.7159
 11
173.923
 21
-28.4863
  0
LINE
  8
0
 10
173.923
 20
-28.4863
 11
173.868
 21
-28.2459
  0
LINE
  8
0
 10
173.868
 20
-28.2459
 11
173.85
 21
-28
  0
LINE
  8
0
 10
173.85
 20
-28
 11
173.868
 21
-27.7541
  0
LINE
  8
0
 10
173.868
 20
-27.7541
 11
173.923
 21
-27.5136
  0
LINE
  8
0
 10
173.923
 20
-27.5136
 11
174.013
 21
-27.2841
  0
LINE
  8
0
 10
174.013
 20
-27.2841
 11
174.137
 21
-27.0705
  0
LINE
  8
0
 10
174.137
 20
-27.0705
 11
174.29
 21
-26.8777
  0
LINE
  8
0
 10
174.29
 20
-26.8777
 11
174.471
 21
-26.71
  0
LINE
  8
0
 10
174.471
 20
-26.71
 11
174.675
 21
-26.571
  0
LINE
  8
0
 10
174.675
 20
-26.571
 11
174.897
 21
-26.4641
  0
LINE
  8
0
 10
174.897
 20
-26.4641
 11
175.133
 21
-26.3914
  0
LINE
  8
0
 10
175.133
 20
-26.3914
 11
175.377
 21
-26.3546
  0
LINE
  8
0
 10
175.377
 20
-26.3546
 11
175.623
 21
-26.3546
  0
LINE
  8
0
 10
175.623
 20
-26.3546
 11
175.867
 21
-26.3914
  0
LINE
  8
0
 10
175.867
 20
-26.3914
 11
176.103
 21
-26.4641
  0
LINE
  8
0
 10
176.103
 20
-26.4641
 11
176.325
 21
-26.571
  0
LINE
  8
0
 10
176.325
 20
-26.571
 11
176.529
 21
-26.71
  0
LINE
  8
0
 10
176.529
 20
-26.71
 11
176.71
 21
-26.8777
  0
LINE
  8
0
 10
176.71
 20
-26.8777
 11
176.863
 21
-27.0705
  0
LINE
  8
0
 10
176.863
 20
-27.0705
 11
176.987
 21
-27.2841
  0
LINE
  8
0
 10
176.987
 20
-27.2841
 11
177.077
 21
-27.5136
  0
LINE
  8
0
 10
177.077
 20
-27.5136
 11
177.132
 21
-27.7541
  0
LINE
  8
0
 10
177.132
 20
-27.7541
 11
177.15
 21
-28
  0
LINE
  8
0
 10
177.15
 20
-28
 11
177.132
 21
-28.2459
  0
LINE
  8
0
 10
177.132
 20
-28.2459
 11
177.077
 21
-28.4863
  0
LINE
  8
0
 10
177.077
 20
-28.4863
 11
176.987
 21
-28.7159
  0
LINE
  8
0
 10
176.987
 20
-28.7159
 11
176.863
 21
-28.9295
  0
LINE
  8
0
 10
176.863
 20
-28.9295
 11
176.71
 21
-29.1223
  0
LINE
  8
0
 10
176.71
 20
-29.1223
 11
176.529
 21
-29.29
  0
LINE
  8
0
 10
176.529
 20
-29.29
 11
176.325
 21
-29.4289
  0
LINE
  8
0
 10
176.325
 20
-29.4289
 11
176.103
 21
-29.5359
  0
LINE
  8
0
 10
176.103
 20
-29.5359
 11
175.867
 21
-29.6086
  0
LINE
  8
0
 10
175.867
 20
-29.6086
 11
175.623
 21
-29.6454
  0
LINE
  8
0
 10
175.623
 20
-29.6454
 11
175.377
 21
-29.6454
  0
LINE
  8
0
 10
-190.309
 20
-93.4787
 11
-190.552
 21
-93.4312
  0
LINE
  8
0
 10
-190.552
 20
-93.4312
 11
-190.789
 21
-93.3571
  0
LINE
  8
0
 10
-190.789
 20
-93.3571
 11
-191.016
 21
-93.2576
  0
LINE
  8
0
 10
-191.016
 20
-93.2576
 11
-191.231
 21
-93.1336
  0
LINE
  8
0
 10
-191.231
 20
-93.1336
 11
-191.43
 21
-92.9868
  0
LINE
  8
0
 10
-191.43
 20
-92.9868
 11
-191.613
 21
-92.8189
  0
LINE
  8
0
 10
-191.613
 20
-92.8189
 11
-191.776
 21
-92.632
  0
LINE
  8
0
 10
-191.776
 20
-92.632
 11
-191.917
 21
-92.4283
  0
LINE
  8
0
 10
-191.917
 20
-92.4283
 11
-192.035
 21
-92.2102
  0
LINE
  8
0
 10
-192.035
 20
-92.2102
 11
-192.128
 21
-91.9806
  0
LINE
  8
0
 10
-192.128
 20
-91.9806
 11
-192.196
 21
-91.742
  0
LINE
  8
0
 10
-192.196
 20
-91.742
 11
-192.236
 21
-91.4975
  0
LINE
  8
0
 10
-192.236
 20
-91.4975
 11
-192.25
 21
-91.25
  0
LINE
  8
0
 10
-192.25
 20
-91.25
 11
-192.236
 21
-91.0025
  0
LINE
  8
0
 10
-192.236
 20
-91.0025
 11
-192.196
 21
-90.758
  0
LINE
  8
0
 10
-192.196
 20
-90.758
 11
-192.128
 21
-90.5194
  0
LINE
  8
0
 10
-192.128
 20
-90.5194
 11
-192.035
 21
-90.2897
  0
LINE
  8
0
 10
-192.035
 20
-90.2897
 11
-191.917
 21
-90.0717
  0
LINE
  8
0
 10
-191.917
 20
-90.0717
 11
-191.776
 21
-89.868
  0
LINE
  8
0
 10
-191.776
 20
-89.868
 11
-191.613
 21
-89.6811
  0
LINE
  8
0
 10
-191.613
 20
-89.6811
 11
-191.43
 21
-89.5132
  0
LINE
  8
0
 10
-191.43
 20
-89.5132
 11
-191.231
 21
-89.3664
  0
LINE
  8
0
 10
-191.231
 20
-89.3664
 11
-191.016
 21
-89.2424
  0
LINE
  8
0
 10
-191.016
 20
-89.2424
 11
-190.789
 21
-89.1429
  0
LINE
  8
0
 10
-190.789
 20
-89.1429
 11
-190.552
 21
-89.0688
  0
LINE
  8
0
 10
-190.552
 20
-89.0688
 11
-190.309
 21
-89.0213
  0
LINE
  8
0
 10
-190.309
 20
-89.0213
 11
-190.062
 21
-89.0009
  0
LINE
  8
0
 10
-190.062
 20
-89.0009
 11
-189.814
 21
-89.0077
  0
LINE
  8
0
 10
-189.814
 20
-89.0077
 11
-189.569
 21
-89.0417
  0
LINE
  8
0
 10
-189.569
 20
-89.0417
 11
-189.328
 21
-89.1026
  0
LINE
  8
0
 10
-189.328
 20
-89.1026
 11
-189.096
 21
-89.1895
  0
LINE
  8
0
 10
-189.096
 20
-89.1895
 11
-188.875
 21
-89.3014
  0
LINE
  8
0
 10
-188.875
 20
-89.3014
 11
-188.667
 21
-89.437
  0
LINE
  8
0
 10
-188.667
 20
-89.437
 11
-188.476
 21
-89.5946
  0
LINE
  8
0
 10
-188.476
 20
-89.5946
 11
-188.303
 21
-89.7723
  0
LINE
  8
0
 10
-188.303
 20
-89.7723
 11
-188.151
 21
-89.9679
  0
LINE
  8
0
 10
-188.151
 20
-89.9679
 11
-188.021
 21
-90.1791
  0
LINE
  8
0
 10
-188.021
 20
-90.1791
 11
-187.915
 21
-90.4033
  0
LINE
  8
0
 10
-187.915
 20
-90.4033
 11
-187.835
 21
-90.6378
  0
LINE
  8
0
 10
-187.835
 20
-90.6378
 11
-187.781
 21
-90.8797
  0
LINE
  8
0
 10
-187.781
 20
-90.8797
 11
-187.753
 21
-91.1261
  0
LINE
  8
0
 10
-187.753
 20
-91.1261
 11
-187.753
 21
-91.3739
  0
LINE
  8
0
 10
-187.753
 20
-91.3739
 11
-187.781
 21
-91.6203
  0
LINE
  8
0
 10
-187.781
 20
-91.6203
 11
-187.835
 21
-91.8622
  0
LINE
  8
0
 10
-187.835
 20
-91.8622
 11
-187.915
 21
-92.0967
  0
LINE
  8
0
 10
-187.915
 20
-92.0967
 11
-188.021
 21
-92.3209
  0
LINE
  8
0
 10
-188.021
 20
-92.3209
 11
-188.151
 21
-92.5321
  0
LINE
  8
0
 10
-188.151
 20
-92.5321
 11
-188.303
 21
-92.7277
  0
LINE
  8
0
 10
-188.303
 20
-92.7277
 11
-188.476
 21
-92.9054
  0
LINE
  8
0
 10
-188.476
 20
-92.9054
 11
-188.667
 21
-93.063
  0
LINE
  8
0
 10
-188.667
 20
-93.063
 11
-188.875
 21
-93.1985
  0
LINE
  8
0
 10
-188.875
 20
-93.1985
 11
-189.096
 21
-93.3105
  0
LINE
  8
0
 10
-189.096
 20
-93.3105
 11
-189.328
 21
-93.3974
  0
LINE
  8
0
 10
-189.328
 20
-93.3974
 11
-189.569
 21
-93.4583
  0
LINE
  8
0
 10
-189.569
 20
-93.4583
 11
-189.814
 21
-93.4923
  0
LINE
  8
0
 10
-189.814
 20
-93.4923
 11
-190.062
 21
-93.4991
  0
LINE
  8
0
 10
-190.062
 20
-93.4991
 11
-190.309
 21
-93.4787
  0
LINE
  8
0
 10
189.814
 20
-93.4923
 11
189.569
 21
-93.4583
  0
LINE
  8
0
 10
189.569
 20
-93.4583
 11
189.328
 21
-93.3974
  0
LINE
  8
0
 10
189.328
 20
-93.3974
 11
189.096
 21
-93.3105
  0
LINE
  8
0
 10
189.096
 20
-93.3105
 11
188.875
 21
-93.1985
  0
LINE
  8
0
 10
188.875
 20
-93.1985
 11
188.667
 21
-93.063
  0
LINE
  8
0
 10
188.667
 20
-93.063
 11
188.476
 21
-92.9054
  0
LINE
  8
0
 10
188.476
 20
-92.9054
 11
188.303
 21
-92.7277
  0
LINE
  8
0
 10
188.303
 20
-92.7277
 11
188.151
 21
-92.5321
  0
LINE
  8
0
 10
188.151
 20
-92.5321
 11
188.021
 21
-92.3209
  0
LINE
  8
0
 10
188.021
 20
-92.3209
 11
187.915
 21
-92.0967
  0
LINE
  8
0
 10
187.915
 20
-92.0967
 11
187.835
 21
-91.8622
  0
LINE
  8
0
 10
187.835
 20
-91.8622
 11
187.781
 21
-91.6203
  0
LINE
  8
0
 10
187.781
 20
-91.6203
 11
187.753
 21
-91.3739
  0
LINE
  8
0
 10
187.753
 20
-91.3739
 11
187.753
 21
-91.1261
  0
LINE
  8
0
 10
187.753
 20
-91.1261
 11
187.781
 21
-90.8797
  0
LINE
  8
0
 10
187.781
 20
-90.8797
 11
187.835
 21
-90.6378
  0
LINE
  8
0
 10
187.835
 20
-90.6378
 11
187.915
 21
-90.4033
  0
LINE
  8
0
 10
187.915
 20
-90.4033
 11
188.021
 21
-90.1791
  0
LINE
  8
0
 10
188.021
 20
-90.1791
 11
188.151
 21
-89.9679
  0
LINE
  8
0
 10
188.151
 20
-89.9679
 11
188.303
 21
-89.7723
  0
LINE
  8
0
 10
188.303
 20
-89.7723
 11
188.476
 21
-89.5946
  0
LINE
  8
0
 10
188.476
 20
-89.5946
 11
188.667
 21
-89.437
  0
LINE
  8
0
 10
188.667
 20
-89.437
 11
188.875
 21
-89.3014
  0
LINE
  8
0
 10
188.875
 20
-89.3014
 11
189.096
 21
-89.1895
  0
LINE
  8
0
 10
189.096
 20
-89.1895
 11
189.328
 21
-89.1026
  0
LINE
  8
0
 10
189.328
 20
-89.1026
 11
189.569
 21
-89.0417
  0
LINE
  8
0
 10
189.569
 20
-89.0417
 11
189.814
 21
-89.0077
  0
LINE
  8
0
 10
189.814
 20
-89.0077
 11
190.062
 21
-89.0009
  0
LINE
  8
0
 10
190.062
 20
-89.0009
 11
190.309
 21
-89.0213
  0
LINE
  8
0
 10
190.309
 20
-89.0213
 11
190.552
 21
-89.0688
  0
LINE
  8
0
 10
190.552
 20
-89.0688
 11
190.789
 21
-89.1429
  0
LINE
  8
0
 10
190.789
 20
-89.1429
 11
191.016
 21
-89.2424
  0
LINE
  8
0
 10
191.016
 20
-89.2424
 11
191.231
 21
-89.3664
  0
LINE
  8
0
 10
191.231
 20
-89.3664
 11
191.43
 21
-89.5132
  0
LINE
  8
0
 10
191.43
 20
-89.5132
 11
191.613
 21
-89.6811
  0
LINE
  8
0
 10
191.613
 20
-89.6811
 11
191.776
 21
-89.868
  0
LINE
  8
0
 10
191.776
 20
-89.868
 11
191.917
 21
-90.0717
  0
LINE
  8
0
 10
191.917
 20
-90.0717
 11
192.035
 21
-90.2897
  0
LINE
  8
0
 10
192.035
 20
-90.2897
 11
192.128
 21
-90.5194
  0
LINE
  8
0
 10
192.128
 20
-90.5194
 11
192.196
 21
-90.758
  0
LINE
  8
0
 10
192.196
 20
-90.758
 11
192.236
 21
-91.0025
  0
LINE
  8
0
 10
192.236
 20
-91.0025
 11
192.25
 21
-91.25
  0
LINE
  8
0
 10
192.25
 20
-91.25
 11
192.236
 21
-91.4975
  0
LINE
  8
0
 10
192.236
 20
-91.4975
 11
192.196
 21
-91.742
  0
LINE
  8
0
 10
192.196
 20
-91.742
 11
192.128
 21
-91.9806
  0
LINE
  8
0
 10
192.128
 20
-91.9806
 11
192.035
 21
-92.2102
  0
LINE
  8
0
 10
192.035
 20
-92.2102
 11
191.917
 21
-92.4283
  0
LINE
  8
0
 10
191.917
 20
-92.4283
 11
191.776
 21
-92.632
  0
LINE
  8
0
 10
191.776
 20
-92.632
 11
191.613
 21
-92.8189
  0
LINE
  8
0
 10
191.613
 20
-92.8189
 11
191.43
 21
-92.9868
  0
LINE
  8
0
 10
191.43
 20
-92.9868
 11
191.231
 21
-93.1336
  0
LINE
  8
0
 10
191.231
 20
-93.1336
 11
191.016
 21
-93.2576
  0
LINE
  8
0
 10
191.016
 20
-93.2576
 11
190.789
 21
-93.3571
  0
LINE
  8
0
 10
190.789
 20
-93.3571
 11
190.552
 21
-93.4312
  0
LINE
  8
0
 10
190.552
 20
-93.4312
 11
190.309
 21
-93.4787
  0
LINE
  8
0
 10
190.309
 20
-93.4787
 11
190.062
 21
-93.4991
  0
LINE
  8
0
 10
190.062
 20
-93.4991
 11
189.814
 21
-93.4923
  0
LINE
  8
0
 10
-130.309
 20
-93.4787
 11
-130.552
 21
-93.4312
  0
LINE
  8
0
 10
-130.552
 20
-93.4312
 11
-130.789
 21
-93.3571
  0
LINE
  8
0
 10
-130.789
 20
-93.3571
 11
-131.016
 21
-93.2576
  0
LINE
  8
0
 10
-131.016
 20
-93.2576
 11
-131.231
 21
-93.1336
  0
LINE
  8
0
 10
-131.231
 20
-93.1336
 11
-131.43
 21
-92.9868
  0
LINE
  8
0
 10
-131.43
 20
-92.9868
 11
-131.613
 21
-92.8189
  0
LINE
  8
0
 10
-131.613
 20
-92.8189
 11
-131.776
 21
-92.632
  0
LINE
  8
0
 10
-131.776
 20
-92.632
 11
-131.917
 21
-92.4283
  0
LINE
  8
0
 10
-131.917
 20
-92.4283
 11
-132.035
 21
-92.2102
  0
LINE
  8
0
 10
-132.035
 20
-92.2102
 11
-132.128
 21
-91.9806
  0
LINE
  8
0
 10
-132.128
 20
-91.9806
 11
-132.196
 21
-91.742
  0
LINE
  8
0
 10
-132.196
 20
-91.742
 11
-132.236
 21
-91.4975
  0
LINE
  8
0
 10
-132.236
 20
-91.4975
 11
-132.25
 21
-91.25
  0
LINE
  8
0
 10
-132.25
 20
-91.25
 11
-132.236
 21
-91.0025
  0
LINE
  8
0
 10
-132.236
 20
-91.0025
 11
-132.196
 21
-90.758
  0
LINE
  8
0
 10
-132.196
 20
-90.758
 11
-132.128
 21
-90.5194
  0
LINE
  8
0
 10
-132.128
 20
-90.5194
 11
-132.035
 21
-90.2897
  0
LINE
  8
0
 10
-132.035
 20
-90.2897
 11
-131.917
 21
-90.0717
  0
LINE
  8
0
 10
-131.917
 20
-90.0717
 11
-131.776
 21
-89.868
  0
LINE
  8
0
 10
-131.776
 20
-89.868
 11
-131.613
 21
-89.6811
  0
LINE
  8
0
 10
-131.613
 20
-89.6811
 11
-131.43
 21
-89.5132
  0
LINE
  8
0
 10
-131.43
 20
-89.5132
 11
-131.231
 21
-89.3664
  0
LINE
  8
0
 10
-131.231
 20
-89.3664
 11
-131.016
 21
-89.2424
  0
LINE
  8
0
 10
-131.016
 20
-89.2424
 11
-130.789
 21
-89.1429
  0
LINE
  8
0
 10
-130.789
 20
-89.1429
 11
-130.552
 21
-89.0688
  0
LINE
  8
0
 10
-130.552
 20
-89.0688
 11
-130.309
 21
-89.0213
  0
LINE
  8
0
 10
-130.309
 20
-89.0213
 11
-130.062
 21
-89.0009
  0
LINE
  8
0
 10
-130.062
 20
-89.0009
 11
-129.814
 21
-89.0077
  0
LINE
  8
0
 10
-129.814
 20
-89.0077
 11
-129.569
 21
-89.0417
  0
LINE
  8
0
 10
-129.569
 20
-89.0417
 11
-129.328
 21
-89.1026
  0
LINE
  8
0
 10
-129.328
 20
-89.1026
 11
-129.096
 21
-89.1895
  0
LINE
  8
0
 10
-129.096
 20
-89.1895
 11
-128.875
 21
-89.3014
  0
LINE
  8
0
 10
-128.875
 20
-89.3014
 11
-128.667
 21
-89.437
  0
LINE
  8
0
 10
-128.667
 20
-89.437
 11
-128.476
 21
-89.5946
  0
LINE
  8
0
 10
-128.476
 20
-89.5946
 11
-128.303
 21
-89.7723
  0
LINE
  8
0
 10
-128.303
 20
-89.7723
 11
-128.151
 21
-89.9679
  0
LINE
  8
0
 10
-128.151
 20
-89.9679
 11
-128.021
 21
-90.1791
  0
LINE
  8
0
 10
-128.021
 20
-90.1791
 11
-127.915
 21
-90.4033
  0
LINE
  8
0
 10
-127.915
 20
-90.4033
 11
-127.835
 21
-90.6378
  0
LINE
  8
0
 10
-127.835
 20
-90.6378
 11
-127.781
 21
-90.8797
  0
LINE
  8
0
 10
-127.781
 20
-90.8797
 11
-127.753
 21
-91.1261
  0
LINE
  8
0
 10
-127.753
 20
-91.1261
 11
-127.753
 21
-91.3739
  0
LINE
  8
0
 10
-127.753
 20
-91.3739
 11
-127.781
 21
-91.6203
  0
LINE
  8
0
 10
-127.781
 20
-91.6203
 11
-127.835
 21
-91.8622
  0
LINE
  8
0
 10
-127.835
 20
-91.8622
 11
-127.915
 21
-92.0967
  0
LINE
  8
0
 10
-127.915
 20
-92.0967
 11
-128.021
 21
-92.3209
  0
LINE
  8
0
 10
-128.021
 20
-92.3209
 11
-128.151
 21
-92.5321
  0
LINE
  8
0
 10
-128.151
 20
-92.5321
 11
-128.303
 21
-92.7277
  0
LINE
  8
0
 10
-128.303
 20
-92.7277
 11
-128.476
 21
-92.9054
  0
LINE
  8
0
 10
-128.476
 20
-92.9054
 11
-128.667
 21
-93.063
  0
LINE
  8
0
 10
-128.667
 20
-93.063
 11
-128.875
 21
-93.1985
  0
LINE
  8
0
 10
-128.875
 20
-93.1985
 11
-129.096
 21
-93.3105
  0
LINE
  8
0
 10
-129.096
 20
-93.3105
 11
-129.328
 21
-93.3974
  0
LINE
  8
0
 10
-129.328
 20
-93.3974
 11
-129.569
 21
-93.4583
  0
LINE
  8
0
 10
-129.569
 20
-93.4583
 11
-129.814
 21
-93.4923
  0
LINE
  8
0
 10
-129.814
 20
-93.4923
 11
-130.062
 21
-93.4991
  0
LINE
  8
0
 10
-130.062
 20
-93.4991
 11
-130.309
 21
-93.4787
  0
LINE
  8
0
 10
129.814
 20
-93.4923
 11
129.569
 21
-93.4583
  0
LINE
  8
0
 10
129.569
 20
-93.4583
 11
129.328
 21
-93.3974
  0
LINE
  8
0
 10
129.328
 20
-93.3974
 11
129.096
 21
-93.3105
  0
LINE
  8
0
 10
129.096
 20
-93.3105
 11
128.875
 21
-93.1985
  0
LINE
  8
0
 10
128.875
 20
-93.1985
 11
128.667
 21
-93.063
  0
LINE
  8
0
 10
128.667
 20
-93.063
 11
128.476
 21
-92.9054
  0
LINE
  8
0
 10
128.476
 20
-92.9054
 11
128.303
 21
-92.7277
  0
LINE
  8
0
 10
128.303
 20
-92.7277
 11
128.151
 21
-92.5321
  0
LINE
  8
0
 10
128.151
 20
-92.5321
 11
128.021
 21
-92.3209
  0
LINE
  8
0
 10
128.021
 20
-92.3209
 11
127.915
 21
-92.0967
  0
LINE
  8
0
 10
127.915
 20
-92.0967
 11
127.835
 21
-91.8622
  0
LINE
  8
0
 10
127.835
 20
-91.8622
 11
127.781
 21
-91.6203
  0
LINE
  8
0
 10
127.781
 20
-91.6203
 11
127.753
 21
-91.3739
  0
LINE
  8
0
 10
127.753
 20
-91.3739
 11
127.753
 21
-91.1261
  0
LINE
  8
0
 10
127.753
 20
-91.1261
 11
127.781
 21
-90.8797
  0
LINE
  8
0
 10
127.781
 20
-90.8797
 11
127.835
 21
-90.6378
  0
LINE
  8
0
 10
127.835
 20
-90.6378
 11
127.915
 21
-90.4033
  0
LINE
  8
0
 10
127.915
 20
-90.4033
 11
128.021
 21
-90.1791
  0
LINE
  8
0
 10
128.021
 20
-90.1791
 11
128.151
 21
-89.9679
  0
LINE
  8
0
 10
128.151
 20
-89.9679
 11
128.303
 21
-89.7723
  0
LINE
  8
0
 10
128.303
 20
-89.7723
 11
128.476
 21
-89.5946
  0
LINE
  8
0
 10
128.476
 20
-89.5946
 11
128.667
 21
-89.437
  0
LINE
  8
0
 10
128.667
 20
-89.437
 11
128.875
 21
-89.3014
  0
LINE
  8
0
 10
128.875
 20
-89.3014
 11
129.096
 21
-89.1895
  0
LINE
  8
0
 10
129.096
 20
-89.1895
 11
129.328
 21
-89.1026
  0
LINE
  8
0
 10
129.328
 20
-89.1026
 11
129.569
 21
-89.0417
  0
LINE
  8
0
 10
129.569
 20
-89.0417
 11
129.814
 21
-89.0077
  0
LINE
  8
0
 10
129.814
 20
-89.0077
 11
130.062
 21
-89.0009
  0
LINE
  8
0
 10
130.062
 20
-89.0009
 11
130.309
 21
-89.0213
  0
LINE
  8
0
 10
130.309
 20
-89.0213
 11
130.552
 21
-89.0688
  0
LINE
  8
0
 10
130.552
 20
-89.0688
 11
130.789
 21
-89.1429
  0
LINE
  8
0
 10
130.789
 20
-89.1429
 11
131.016
 21
-89.2424
  0
LINE
  8
0
 10
131.016
 20
-89.2424
 11
131.231
 21
-89.3664
  0
LINE
  8
0
 10
131.231
 20
-89.3664
 11
131.43
 21
-89.5132
  0
LINE
  8
0
 10
131.43
 20
-89.5132
 11
131.613
 21
-89.6811
  0
LINE
  8
0
 10
131.613
 20
-89.6811
 11
131.776
 21
-89.868
  0
LINE
  8
0
 10
131.776
 20
-89.868
 11
131.917
 21
-90.0717
  0
LINE
  8
0
 10
131.917
 20
-90.0717
 11
132.035
 21
-90.2897
  0
LINE
  8
0
 10
132.035
 20
-90.2897
 11
132.128
 21
-90.5194
  0
LINE
  8
0
 10
132.128
 20
-90.5194
 11
132.196
 21
-90.758
  0
LINE
  8
0
 10
132.196
 20
-90.758
 11
132.236
 21
-91.0025
  0
LINE
  8
0
 10
132.236
 20
-91.0025
 11
132.25
 21
-91.25
  0
LINE
  8
0
 10
132.25
 20
-91.25
 11
132.236
 21
-91.4975
  0
LINE
  8
0
 10
132.236
 20
-91.4975
 11
132.196
 21
-91.742
  0
LINE
  8
0
 10
132.196
 20
-91.742
 11
132.128
 21
-91.9806
  0
LINE
  8
0
 10
132.128
 20
-91.9806
 11
132.035
 21
-92.2102
  0
LINE
  8
0
 10
132.035
 20
-92.2102
 11
131.917
 21
-92.4283
  0
LINE
  8
0
 10
131.917
 20
-92.4283
 11
131.776
 21
-92.632
  0
LINE
  8
0
 10
131.776
 20
-92.632
 11
131.613
 21
-92.8189
  0
LINE
  8
0
 10
131.613
 20
-92.8189
 11
131.43
 21
-92.9868
  0
LINE
  8
0
 10
131.43
 20
-92.9868
 11
131.231
 21
-93.1336
  0
LINE
  8
0
 10
131.231
 20
-93.1336
 11
131.016
 21
-93.2576
  0
LINE
  8
0
 10
131.016
 20
-93.2576
 11
130.789
 21
-93.3571
  0
LINE
  8
0
 10
130.789
 20
-93.3571
 11
130.552
 21
-93.4312
  0
LINE
  8
0
 10
130.552
 20
-93.4312
 11
130.309
 21
-93.4787
  0
LINE
  8
0
 10
130.309
 20
-93.4787
 11
130.062
 21
-93.4991
  0
LINE
  8
0
 10
130.062
 20
-93.4991
 11
129.814
 21
-93.4923
  0
LINE
  8
0
 10
-144.623
 20
-126.145
 11
-144.867
 21
-126.109
  0
LINE
  8
0
 10
-144.867
 20
-126.109
 11
-145.103
 21
-126.036
  0
LINE
  8
0
 10
-145.103
 20
-126.036
 11
-145.325
 21
-125.929
  0
LINE
  8
0
 10
-145.325
 20
-125.929
 11
-145.529
 21
-125.79
  0
LINE
  8
0
 10
-145.529
 20
-125.79
 11
-145.71
 21
-125.622
  0
LINE
  8
0
 10
-145.71
 20
-125.622
 11
-145.863
 21
-125.429
  0
LINE
  8
0
 10
-145.863
 20
-125.429
 11
-145.987
 21
-125.216
  0
LINE
  8
0
 10
-145.987
 20
-125.216
 11
-146.077
 21
-124.986
  0
LINE
  8
0
 10
-146.077
 20
-124.986
 11
-146.132
 21
-124.746
  0
LINE
  8
0
 10
-146.132
 20
-124.746
 11
-146.15
 21
-124.5
  0
LINE
  8
0
 10
-146.15
 20
-124.5
 11
-146.132
 21
-124.254
  0
LINE
  8
0
 10
-146.132
 20
-124.254
 11
-146.077
 21
-124.014
  0
LINE
  8
0
 10
-146.077
 20
-124.014
 11
-145.987
 21
-123.784
  0
LINE
  8
0
 10
-145.987
 20
-123.784
 11
-145.863
 21
-123.571
  0
LINE
  8
0
 10
-145.863
 20
-123.571
 11
-145.71
 21
-123.378
  0
LINE
  8
0
 10
-145.71
 20
-123.378
 11
-145.529
 21
-123.21
  0
LINE
  8
0
 10
-145.529
 20
-123.21
 11
-145.325
 21
-123.071
  0
LINE
  8
0
 10
-145.325
 20
-123.071
 11
-145.103
 21
-122.964
  0
LINE
  8
0
 10
-145.103
 20
-122.964
 11
-144.867
 21
-122.891
  0
LINE
  8
0
 10
-144.867
 20
-122.891
 11
-144.623
 21
-122.855
  0
LINE
  8
0
 10
-144.623
 20
-122.855
 11
-144.377
 21
-122.855
  0
LINE
  8
0
 10
-144.377
 20
-122.855
 11
-144.133
 21
-122.891
  0
LINE
  8
0
 10
-144.133
 20
-122.891
 11
-143.897
 21
-122.964
  0
LINE
  8
0
 10
-143.897
 20
-122.964
 11
-143.675
 21
-123.071
  0
LINE
  8
0
 10
-143.675
 20
-123.071
 11
-143.471
 21
-123.21
  0
LINE
  8
0
 10
-143.471
 20
-123.21
 11
-143.29
 21
-123.378
  0
LINE
  8
0
 10
-143.29
 20
-123.378
 11
-143.137
 21
-123.571
  0
LINE
  8
0
 10
-143.137
 20
-123.571
 11
-143.013
 21
-123.784
  0
LINE
  8
0
 10
-143.013
 20
-123.784
 11
-142.923
 21
-124.014
  0
LINE
  8
0
 10
-142.923
 20
-124.014
 11
-142.868
 21
-124.254
  0
LINE
  8
0
 10
-142.868
 20
-124.254
 11
-142.85
 21
-124.5
  0
LINE
  8
0
 10
-142.85
 20
-124.5
 11
-142.868
 21
-124.746
  0
LINE
  8
0
 10
-142.868
 20
-124.746
 11
-142.923
 21
-124.986
  0
LINE
  8
0
 10
-142.923
 20
-124.986
 11
-143.013
 21
-125.216
  0
LINE
  8
0
 10
-143.013
 20
-125.216
 11
-143.137
 21
-125.429
  0
LINE
  8
0
 10
-143.137
 20
-125.429
 11
-143.29
 21
-125.622
  0
LINE
  8
0
 10
-143.29
 20
-125.622
 11
-143.471
 21
-125.79
  0
LINE
  8
0
 10
-143.471
 20
-125.79
 11
-143.675
 21
-125.929
  0
LINE
  8
0
 10
-143.675
 20
-125.929
 11
-143.897
 21
-126.036
  0
LINE
  8
0
 10
-143.897
 20
-126.036
 11
-144.133
 21
-126.109
  0
LINE
  8
0
 10
-144.133
 20
-126.109
 11
-144.377
 21
-126.145
  0
LINE
  8
0
 10
-144.377
 20
-126.145
 11
-144.623
 21
-126.145
  0
LINE
  8
0
 10
-175.623
 20
-126.145
 11
-175.867
 21
-126.109
  0
LINE
  8
0
 10
-175.867
 20
-126.109
 11
-176.103
 21
-126.036
  0
LINE
  8
0
 10
-176.103
 20
-126.036
 11
-176.325
 21
-125.929
  0
LINE
  8
0
 10
-176.325
 20
-125.929
 11
-176.529
 21
-125.79
  0
LINE
  8
0
 10
-176.529
 20
-125.79
 11
-176.71
 21
-125.622
  0
LINE
  8
0
 10
-176.71
 20
-125.622
 11
-176.863
 21
-125.429
  0
LINE
  8
0
 10
-176.863
 20
-125.429
 11
-176.987
 21
-125.216
  0
LINE
  8
0
 10
-176.987
 20
-125.216
 11
-177.077
 21
-124.986
  0
LINE
  8
0
 10
-177.077
 20
-124.986
 11
-177.132
 21
-124.746
  0
LINE
  8
0
 10
-177.132
 20
-124.746
 11
-177.15
 21
-124.5
  0
LINE
  8
0
 10
-177.15
 20
-124.5
 11
-177.132
 21
-124.254
  0
LINE
  8
0
 10
-177.132
 20
-124.254
 11
-177.077
 21
-124.014
  0
LINE
  8
0
 10
-177.077
 20
-124.014
 11
-176.987
 21
-123.784
  0
LINE
  8
0
 10
-176.987
 20
-123.784
 11
-176.863
 21
-123.571
  0
LINE
  8
0
 10
-176.863
 20
-123.571
 11
-176.71
 21
-123.378
  0
LINE
  8
0
 10
-176.71
 20
-123.378
 11
-176.529
 21
-123.21
  0
LINE
  8
0
 10
-176.529
 20
-123.21
 11
-176.325
 21
-123.071
  0
LINE
  8
0
 10
-176.325
 20
-123.071
 11
-176.103
 21
-122.964
  0
LINE
  8
0
 10
-176.103
 20
-122.964
 11
-175.867
 21
-122.891
  0
LINE
  8
0
 10
-175.867
 20
-122.891
 11
-175.623
 21
-122.855
  0
LINE
  8
0
 10
-175.623
 20
-122.855
 11
-175.377
 21
-122.855
  0
LINE
  8
0
 10
-175.377
 20
-122.855
 11
-175.133
 21
-122.891
  0
LINE
  8
0
 10
-175.133
 20
-122.891
 11
-174.897
 21
-122.964
  0
LINE
  8
0
 10
-174.897
 20
-122.964
 11
-174.675
 21
-123.071
  0
LINE
  8
0
 10
-174.675
 20
-123.071
 11
-174.471
 21
-123.21
  0
LINE
  8
0
 10
-174.471
 20
-123.21
 11
-174.29
 21
-123.378
  0
LINE
  8
0
 10
-174.29
 20
-123.378
 11
-174.137
 21
-123.571
  0
LINE
  8
0
 10
-174.137
 20
-123.571
 11
-174.013
 21
-123.784
  0
LINE
  8
0
 10
-174.013
 20
-123.784
 11
-173.923
 21
-124.014
  0
LINE
  8
0
 10
-173.923
 20
-124.014
 11
-173.868
 21
-124.254
  0
LINE
  8
0
 10
-173.868
 20
-124.254
 11
-173.85
 21
-124.5
  0
LINE
  8
0
 10
-173.85
 20
-124.5
 11
-173.868
 21
-124.746
  0
LINE
  8
0
 10
-173.868
 20
-124.746
 11
-173.923
 21
-124.986
  0
LINE
  8
0
 10
-173.923
 20
-124.986
 11
-174.013
 21
-125.216
  0
LINE
  8
0
 10
-174.013
 20
-125.216
 11
-174.137
 21
-125.429
  0
LINE
  8
0
 10
-174.137
 20
-125.429
 11
-174.29
 21
-125.622
  0
LINE
  8
0
 10
-174.29
 20
-125.622
 11
-174.471
 21
-125.79
  0
LINE
  8
0
 10
-174.471
 20
-125.79
 11
-174.675
 21
-125.929
  0
LINE
  8
0
 10
-174.675
 20
-125.929
 11
-174.897
 21
-126.036
  0
LINE
  8
0
 10
-174.897
 20
-126.036
 11
-175.133
 21
-126.109
  0
LINE
  8
0
 10
-175.133
 20
-126.109
 11
-175.377
 21
-126.145
  0
LINE
  8
0
 10
-175.377
 20
-126.145
 11
-175.623
 21
-126.145
  0
LINE
  8
0
 10
-161.202
 20
-151.437
 11
-162.391
 21
-151.249
  0
LINE
  8
0
 10
-162.391
 20
-151.249
 11
-163.554
 21
-150.937
  0
LINE
  8
0
 10
-163.554
 20
-150.937
 11
-164.677
 21
-150.506
  0
LINE
  8
0
 10
-164.677
 20
-150.506
 11
-165.75
 21
-149.959
  0
LINE
  8
0
 10
-165.75
 20
-149.959
 11
-166.76
 21
-149.304
  0
LINE
  8
0
 10
-166.76
 20
-149.304
 11
-167.695
 21
-148.546
  0
LINE
  8
0
 10
-167.695
 20
-148.546
 11
-168.546
 21
-147.695
  0
LINE
  8
0
 10
-168.546
 20
-147.695
 11
-169.304
 21
-146.76
  0
LINE
  8
0
 10
-169.304
 20
-146.76
 11
-169.959
 21
-145.75
  0
LINE
  8
0
 10
-169.959
 20
-145.75
 11
-170.506
 21
-144.677
  0
LINE
  8
0
 10
-170.506
 20
-144.677
 11
-170.937
 21
-143.554
  0
LINE
  8
0
 10
-170.937
 20
-143.554
 11
-171.249
 21
-142.391
  0
LINE
  8
0
 10
-171.249
 20
-142.391
 11
-171.437
 21
-141.202
  0
LINE
  8
0
 10
-171.437
 20
-141.202
 11
-171.5
 21
-140
  0
LINE
  8
0
 10
-171.5
 20
-140
 11
-171.437
 21
-138.798
  0
LINE
  8
0
 10
-171.437
 20
-138.798
 11
-171.249
 21
-137.609
  0
LINE
  8
0
 10
-171.249
 20
-137.609
 11
-170.937
 21
-136.446
  0
LINE
  8
0
 10
-170.937
 20
-136.446
 11
-170.506
 21
-135.323
  0
LINE
  8
0
 10
-170.506
 20
-135.323
 11
-169.959
 21
-134.25
  0
LINE
  8
0
 10
-169.959
 20
-134.25
 11
-169.304
 21
-133.24
  0
LINE
  8
0
 10
-169.304
 20
-133.24
 11
-168.546
 21
-132.305
  0
LINE
  8
0
 10
-168.546
 20
-132.305
 11
-167.695
 21
-131.454
  0
LINE
  8
0
 10
-167.695
 20
-131.454
 11
-166.76
 21
-130.696
  0
LINE
  8
0
 10
-166.76
 20
-130.696
 11
-165.75
 21
-130.041
  0
LINE
  8
0
 10
-165.75
 20
-130.041
 11
-164.677
 21
-129.494
  0
LINE
  8
0
 10
-164.677
 20
-129.494
 11
-163.554
 21
-129.063
  0
LINE
  8
0
 10
-163.554
 20
-129.063
 11
-162.391
 21
-128.751
  0
LINE
  8
0
 10
-162.391
 20
-128.751
 11
-161.202
 21
-128.563
  0
LINE
  8
0
 10
-161.202
 20
-128.563
 11
-160
 21
-128.5
  0
LINE
  8
0
 10
-160
 20
-128.5
 11
-158.798
 21
-128.563
  0
LINE
  8
0
 10
-158.798
 20
-128.563
 11
-157.609
 21
-128.751
  0
LINE
  8
0
 10
-157.609
 20
-128.751
 11
-156.446
 21
-129.063
  0
LINE
  8
0
 10
-156.446
 20
-129.063
 11
-155.323
 21
-129.494
  0
LINE
  8
0
 10
-155.323
 20
-129.494
 11
-154.25
 21
-130.041
  0
LINE
  8
0
 10
-154.25
 20
-130.041
 11
-153.24
 21
-130.696
  0
LINE
  8
0
 10
-153.24
 20
-130.696
 11
-152.305
 21
-131.454
  0
LINE
  8
0
 10
-152.305
 20
-131.454
 11
-151.454
 21
-132.305
  0
LINE
  8
0
 10
-151.454
 20
-132.305
 11
-150.696
 21
-133.24
  0
LINE
  8
0
 10
-150.696
 20
-133.24
 11
-150.041
 21
-134.25
  0
LINE
  8
0
 10
-150.041
 20
-134.25
 11
-149.494
 21
-135.323
  0
LINE
  8
0
 10
-149.494
 20
-135.323
 11
-149.063
 21
-136.446
  0
LINE
  8
0
 10
-149.063
 20
-136.446
 11
-148.751
 21
-137.609
  0
LINE
  8
0
 10
-148.751
 20
-137.609
 11
-148.563
 21
-138.798
  0
LINE
  8
0
 10
-148.563
 20
-138.798
 11
-148.5
 21
-140
  0
LINE
  8
0
 10
-148.5
 20
-140
 11
-148.563
 21
-141.202
  0
LINE
  8
0
 10
-148.563
 20
-141.202
 11
-148.751
 21
-142.391
  0
LINE
  8
0
 10
-148.751
 20
-142.391
 11
-149.063
 21
-143.554
  0
LINE
  8
0
 10
-149.063
 20
-143.554
 11
-149.494
 21
-144.677
  0
LINE
  8
0
 10
-149.494
 20
-144.677
 11
-150.041
 21
-145.75
  0
LINE
  8
0
 10
-150.041
 20
-145.75
 11
-150.696
 21
-146.76
  0
LINE
  8
0
 10
-150.696
 20
-146.76
 11
-151.454
 21
-147.695
  0
LINE
  8
0
 10
-151.454
 20
-147.695
 11
-152.305
 21
-148.546
  0
LINE
  8
0
 10
-152.305
 20
-148.546
 11
-153.24
 21
-149.304
  0
LINE
  8
0
 10
-153.24
 20
-149.304
 11
-154.25
 21
-149.959
  0
LINE
  8
0
 10
-154.25
 20
-149.959
 11
-155.323
 21
-150.506
  0
LINE
  8
0
 10
-155.323
 20
-150.506
 11
-156.446
 21
-150.937
  0
LINE
  8
0
 10
-156.446
 20
-150.937
 11
-157.609
 21
-151.249
  0
LINE
  8
0
 10
-157.609
 20
-151.249
 11
-158.798
 21
-151.437
  0
LINE
  8
0
 10
-158.798
 20
-151.437
 11
-160
 21
-151.5
  0
LINE
  8
0
 10
-160
 20
-151.5
 11
-161.202
 21
-151.437
  0
LINE
  8
0
 10
-144.623
 20
-157.145
 11
-144.867
 21
-157.109
  0
LINE
  8
0
 10
-144.867
 20
-157.109
 11
-145.103
 21
-157.036
  0
LINE
  8
0
 10
-145.103
 20
-157.036
 11
-145.325
 21
-156.929
  0
LINE
  8
0
 10
-145.325
 20
-156.929
 11
-145.529
 21
-156.79
  0
LINE
  8
0
 10
-145.529
 20
-156.79
 11
-145.71
 21
-156.622
  0
LINE
  8
0
 10
-145.71
 20
-156.622
 11
-145.863
 21
-156.429
  0
LINE
  8
0
 10
-145.863
 20
-156.429
 11
-145.987
 21
-156.216
  0
LINE
  8
0
 10
-145.987
 20
-156.216
 11
-146.077
 21
-155.986
  0
LINE
  8
0
 10
-146.077
 20
-155.986
 11
-146.132
 21
-155.746
  0
LINE
  8
0
 10
-146.132
 20
-155.746
 11
-146.15
 21
-155.5
  0
LINE
  8
0
 10
-146.15
 20
-155.5
 11
-146.132
 21
-155.254
  0
LINE
  8
0
 10
-146.132
 20
-155.254
 11
-146.077
 21
-155.014
  0
LINE
  8
0
 10
-146.077
 20
-155.014
 11
-145.987
 21
-154.784
  0
LINE
  8
0
 10
-145.987
 20
-154.784
 11
-145.863
 21
-154.571
  0
LINE
  8
0
 10
-145.863
 20
-154.571
 11
-145.71
 21
-154.378
  0
LINE
  8
0
 10
-145.71
 20
-154.378
 11
-145.529
 21
-154.21
  0
LINE
  8
0
 10
-145.529
 20
-154.21
 11
-145.325
 21
-154.071
  0
LINE
  8
0
 10
-145.325
 20
-154.071
 11
-145.103
 21
-153.964
  0
LINE
  8
0
 10
-145.103
 20
-153.964
 11
-144.867
 21
-153.891
  0
LINE
  8
0
 10
-144.867
 20
-153.891
 11
-144.623
 21
-153.855
  0
LINE
  8
0
 10
-144.623
 20
-153.855
 11
-144.377
 21
-153.855
  0
LINE
  8
0
 10
-144.377
 20
-153.855
 11
-144.133
 21
-153.891
  0
LINE
  8
0
 10
-144.133
 20
-153.891
 11
-143.897
 21
-153.964
  0
LINE
  8
0
 10
-143.897
 20
-153.964
 11
-143.675
 21
-154.071
  0
LINE
  8
0
 10
-143.675
 20
-154.071
 11
-143.471
 21
-154.21
  0
LINE
  8
0
 10
-143.471
 20
-154.21
 11
-143.29
 21
-154.378
  0
LINE
  8
0
 10
-143.29
 20
-154.378
 11
-143.137
 21
-154.571
  0
LINE
  8
0
 10
-143.137
 20
-154.571
 11
-143.013
 21
-154.784
  0
LINE
  8
0
 10
-143.013
 20
-154.784
 11
-142.923
 21
-155.014
  0
LINE
  8
0
 10
-142.923
 20
-155.014
 11
-142.868
 21
-155.254
  0
LINE
  8
0
 10
-142.868
 20
-155.254
 11
-142.85
 21
-155.5
  0
LINE
  8
0
 10
-142.85
 20
-155.5
 11
-142.868
 21
-155.746
  0
LINE
  8
0
 10
-142.868
 20
-155.746
 11
-142.923
 21
-155.986
  0
LINE
  8
0
 10
-142.923
 20
-155.986
 11
-143.013
 21
-156.216
  0
LINE
  8
0
 10
-143.013
 20
-156.216
 11
-143.137
 21
-156.429
  0
LINE
  8
0
 10
-143.137
 20
-156.429
 11
-143.29
 21
-156.622
  0
LINE
  8
0
 10
-143.29
 20
-156.622
 11
-143.471
 21
-156.79
  0
LINE
  8
0
 10
-143.471
 20
-156.79
 11
-143.675
 21
-156.929
  0
LINE
  8
0
 10
-143.675
 20
-156.929
 11
-143.897
 21
-157.036
  0
LINE
  8
0
 10
-143.897
 20
-157.036
 11
-144.133
 21
-157.109
  0
LINE
  8
0
 10
-144.133
 20
-157.109
 11
-144.377
 21
-157.145
  0
LINE
  8
0
 10
-144.377
 20
-157.145
 11
-144.623
 21
-157.145
  0
LINE
  8
0
 10
-175.623
 20
-157.145
 11
-175.867
 21
-157.109
  0
LINE
  8
0
 10
-175.867
 20
-157.109
 11
-176.103
 21
-157.036
  0
LINE
  8
0
 10
-176.103
 20
-157.036
 11
-176.325
 21
-156.929
  0
LINE
  8
0
 10
-176.325
 20
-156.929
 11
-176.529
 21
-156.79
  0
LINE
  8
0
 10
-176.529
 20
-156.79
 11
-176.71
 21
-156.622
  0
LINE
  8
0
 10
-176.71
 20
-156.622
 11
-176.863
 21
-156.429
  0
LINE
  8
0
 10
-176.863
 20
-156.429
 11
-176.987
 21
-156.216
  0
LINE
  8
0
 10
-176.987
 20
-156.216
 11
-177.077
 21
-155.986
  0
LINE
  8
0
 10
-177.077
 20
-155.986
 11
-177.132
 21
-155.746
  0
LINE
  8
0
 10
-177.132
 20
-155.746
 11
-177.15
 21
-155.5
  0
LINE
  8
0
 10
-177.15
 20
-155.5
 11
-177.132
 21
-155.254
  0
LINE
  8
0
 10
-177.132
 20
-155.254
 11
-177.077
 21
-155.014
  0
LINE
  8
0
 10
-177.077
 20
-155.014
 11
-176.987
 21
-154.784
  0
LINE
  8
0
 10
-176.987
 20
-154.784
 11
-176.863
 21
-154.571
  0
LINE
  8
0
 10
-176.863
 20
-154.571
 11
-176.71
 21
-154.378
  0
LINE
  8
0
 10
-176.71
 20
-154.378
 11
-176.529
 21
-154.21
  0
LINE
  8
0
 10
-176.529
 20
-154.21
 11
-176.325
 21
-154.071
  0
LINE
  8
0
 10
-176.325
 20
-154.071
 11
-176.103
 21
-153.964
  0
LINE
  8
0
 10
-176.103
 20
-153.964
 11
-175.867
 21
-153.891
  0
LINE
  8
0
 10
-175.867
 20
-153.891
 11
-175.623
 21
-153.855
  0
LINE
  8
0
 10
-175.623
 20
-153.855
 11
-175.377
 21
-153.855
  0
LINE
  8
0
 10
-175.377
 20
-153.855
 11
-175.133
 21
-153.891
  0
LINE
  8
0
 10
-175.133
 20
-153.891
 11
-174.897
 21
-153.964
  0
LINE
  8
0
 10
-174.897
 20
-153.964
 11
-174.675
 21
-154.071
  0
LINE
  8
0
 10
-174.675
 20
-154.071
 11
-174.471
 21
-154.21
  0
LINE
  8
0
 10
-174.471
 20
-154.21
 11
-174.29
 21
-154.378
  0
LINE
  8
0
 10
-174.29
 20
-154.378
 11
-174.137
 21
-154.571
  0
LINE
  8
0
 10
-174.137
 20
-154.571
 11
-174.013
 21
-154.784
  0
LINE
  8
0
 10
-174.013
 20
-154.784
 11
-173.923
 21
-155.014
  0
LINE
  8
0
 10
-173.923
 20
-155.014
 11
-173.868
 21
-155.254
  0
LINE
  8
0
 10
-173.868
 20
-155.254
 11
-173.85
 21
-155.5
  0
LINE
  8
0
 10
-173.85
 20
-155.5
 11
-173.868
 21
-155.746
  0
LINE
  8
0
 10
-173.868
 20
-155.746
 11
-173.923
 21
-155.986
  0
LINE
  8
0
 10
-173.923
 20
-155.986
 11
-174.013
 21
-156.216
  0
LINE
  8
0
 10
-174.013
 20
-156.216
 11
-174.137
 21
-156.429
  0
LINE
  8
0
 10
-174.137
 20
-156.429
 11
-174.29
 21
-156.622
  0
LINE
  8
0
 10
-174.29
 20
-156.622
 11
-174.471
 21
-156.79
  0
LINE
  8
0
 10
-174.471
 20
-156.79
 11
-174.675
 21
-156.929
  0
LINE
  8
0
 10
-174.675
 20
-156.929
 11
-174.897
 21
-157.036
  0
LINE
  8
0
 10
-174.897
 20
-157.036
 11
-175.133
 21
-157.109
  0
LINE
  8
0
 10
-175.133
 20
-157.109
 11
-175.377
 21
-157.145
  0
LINE
  8
0
 10
-175.377
 20
-157.145
 11
-175.623
 21
-157.145
  0
LINE
  8
0
 10
-130.309
 20
-184.729
 11
-130.552
 21
-184.681
  0
LINE
  8
0
 10
-130.552
 20
-184.681
 11
-130.789
 21
-184.607
  0
LINE
  8
0
 10
-130.789
 20
-184.607
 11
-131.016
 21
-184.508
  0
LINE
  8
0
 10
-131.016
 20
-184.508
 11
-131.231
 21
-184.384
  0
LINE
  8
0
 10
-131.231
 20
-184.384
 11
-131.43
 21
-184.237
  0
LINE
  8
0
 10
-131.43
 20
-184.237
 11
-131.613
 21
-184.069
  0
LINE
  8
0
 10
-131.613
 20
-184.069
 11
-131.776
 21
-183.882
  0
LINE
  8
0
 10
-131.776
 20
-183.882
 11
-131.917
 21
-183.678
  0
LINE
  8
0
 10
-131.917
 20
-183.678
 11
-132.035
 21
-183.46
  0
LINE
  8
0
 10
-132.035
 20
-183.46
 11
-132.128
 21
-183.231
  0
LINE
  8
0
 10
-132.128
 20
-183.231
 11
-132.196
 21
-182.992
  0
LINE
  8
0
 10
-132.196
 20
-182.992
 11
-132.236
 21
-182.748
  0
LINE
  8
0
 10
-132.236
 20
-182.748
 11
-132.25
 21
-182.5
  0
LINE
  8
0
 10
-132.25
 20
-182.5
 11
-132.236
 21
-182.252
  0
LINE
  8
0
 10
-132.236
 20
-182.252
 11
-132.196
 21
-182.008
  0
LINE
  8
0
 10
-132.196
 20
-182.008
 11
-132.128
 21
-181.769
  0
LINE
  8
0
 10
-132.128
 20
-181.769
 11
-132.035
 21
-181.54
  0
LINE
  8
0
 10
-132.035
 20
-181.54
 11
-131.917
 21
-181.322
  0
LINE
  8
0
 10
-131.917
 20
-181.322
 11
-131.776
 21
-181.118
  0
LINE
  8
0
 10
-131.776
 20
-181.118
 11
-131.613
 21
-180.931
  0
LINE
  8
0
 10
-131.613
 20
-180.931
 11
-131.43
 21
-180.763
  0
LINE
  8
0
 10
-131.43
 20
-180.763
 11
-131.231
 21
-180.616
  0
LINE
  8
0
 10
-131.231
 20
-180.616
 11
-131.016
 21
-180.492
  0
LINE
  8
0
 10
-131.016
 20
-180.492
 11
-130.789
 21
-180.393
  0
LINE
  8
0
 10
-130.789
 20
-180.393
 11
-130.552
 21
-180.319
  0
LINE
  8
0
 10
-130.552
 20
-180.319
 11
-130.309
 21
-180.271
  0
LINE
  8
0
 10
-130.309
 20
-180.271
 11
-130.062
 21
-180.251
  0
LINE
  8
0
 10
-130.062
 20
-180.251
 11
-129.814
 21
-180.258
  0
LINE
  8
0
 10
-129.814
 20
-180.258
 11
-129.569
 21
-180.292
  0
LINE
  8
0
 10
-129.569
 20
-180.292
 11
-129.328
 21
-180.353
  0
LINE
  8
0
 10
-129.328
 20
-180.353
 11
-129.096
 21
-180.44
  0
LINE
  8
0
 10
-129.096
 20
-180.44
 11
-128.875
 21
-180.551
  0
LINE
  8
0
 10
-128.875
 20
-180.551
 11
-128.667
 21
-180.687
  0
LINE
  8
0
 10
-128.667
 20
-180.687
 11
-128.476
 21
-180.845
  0
LINE
  8
0
 10
-128.476
 20
-180.845
 11
-128.303
 21
-181.022
  0
LINE
  8
0
 10
-128.303
 20
-181.022
 11
-128.151
 21
-181.218
  0
LINE
  8
0
 10
-128.151
 20
-181.218
 11
-128.021
 21
-181.429
  0
LINE
  8
0
 10
-128.021
 20
-181.429
 11
-127.915
 21
-181.653
  0
LINE
  8
0
 10
-127.915
 20
-181.653
 11
-127.835
 21
-181.888
  0
LINE
  8
0
 10
-127.835
 20
-181.888
 11
-127.781
 21
-182.13
  0
LINE
  8
0
 10
-127.781
 20
-182.13
 11
-127.753
 21
-182.376
  0
LINE
  8
0
 10
-127.753
 20
-182.376
 11
-127.753
 21
-182.624
  0
LINE
  8
0
 10
-127.753
 20
-182.624
 11
-127.781
 21
-182.87
  0
LINE
  8
0
 10
-127.781
 20
-182.87
 11
-127.835
 21
-183.112
  0
LINE
  8
0
 10
-127.835
 20
-183.112
 11
-127.915
 21
-183.347
  0
LINE
  8
0
 10
-127.915
 20
-183.347
 11
-128.021
 21
-183.571
  0
LINE
  8
0
 10
-128.021
 20
-183.571
 11
-128.151
 21
-183.782
  0
LINE
  8
0
 10
-128.151
 20
-183.782
 11
-128.303
 21
-183.978
  0
LINE
  8
0
 10
-128.303
 20
-183.978
 11
-128.476
 21
-184.155
  0
LINE
  8
0
 10
-128.476
 20
-184.155
 11
-128.667
 21
-184.313
  0
LINE
  8
0
 10
-128.667
 20
-184.313
 11
-128.875
 21
-184.449
  0
LINE
  8
0
 10
-128.875
 20
-184.449
 11
-129.096
 21
-184.56
  0
LINE
  8
0
 10
-129.096
 20
-184.56
 11
-129.328
 21
-184.647
  0
LINE
  8
0
 10
-129.328
 20
-184.647
 11
-129.569
 21
-184.708
  0
LINE
  8
0
 10
-129.569
 20
-184.708
 11
-129.814
 21
-184.742
  0
LINE
  8
0
 10
-129.814
 20
-184.742
 11
-130.062
 21
-184.749
  0
LINE
  8
0
 10
-130.062
 20
-184.749
 11
-130.309
 21
-184.729
  0
LINE
  8
0
 10
189.814
 20
-184.742
 11
189.569
 21
-184.708
  0
LINE
  8
0
 10
189.569
 20
-184.708
 11
189.328
 21
-184.647
  0
LINE
  8
0
 10
189.328
 20
-184.647
 11
189.096
 21
-184.56
  0
LINE
  8
0
 10
189.096
 20
-184.56
 11
188.875
 21
-184.449
  0
LINE
  8
0
 10
188.875
 20
-184.449
 11
188.667
 21
-184.313
  0
LINE
  8
0
 10
188.667
 20
-184.313
 11
188.476
 21
-184.155
  0
LINE
  8
0
 10
188.476
 20
-184.155
 11
188.303
 21
-183.978
  0
LINE
  8
0
 10
188.303
 20
-183.978
 11
188.151
 21
-183.782
  0
LINE
  8
0
 10
188.151
 20
-183.782
 11
188.021
 21
-183.571
  0
LINE
  8
0
 10
188.021
 20
-183.571
 11
187.915
 21
-183.347
  0
LINE
  8
0
 10
187.915
 20
-183.347
 11
187.835
 21
-183.112
  0
LINE
  8
0
 10
187.835
 20
-183.112
 11
187.781
 21
-182.87
  0
LINE
  8
0
 10
187.781
 20
-182.87
 11
187.753
 21
-182.624
  0
LINE
  8
0
 10
187.753
 20
-182.624
 11
187.753
 21
-182.376
  0
LINE
  8
0
 10
187.753
 20
-182.376
 11
187.781
 21
-182.13
  0
LINE
  8
0
 10
187.781
 20
-182.13
 11
187.835
 21
-181.888
  0
LINE
  8
0
 10
187.835
 20
-181.888
 11
187.915
 21
-181.653
  0
LINE
  8
0
 10
187.915
 20
-181.653
 11
188.021
 21
-181.429
  0
LINE
  8
0
 10
188.021
 20
-181.429
 11
188.151
 21
-181.218
  0
LINE
  8
0
 10
188.151
 20
-181.218
 11
188.303
 21
-181.022
  0
LINE
  8
0
 10
188.303
 20
-181.022
 11
188.476
 21
-180.845
  0
LINE
  8
0
 10
188.476
 20
-180.845
 11
188.667
 21
-180.687
  0
LINE
  8
0
 10
188.667
 20
-180.687
 11
188.875
 21
-180.551
  0
LINE
  8
0
 10
188.875
 20
-180.551
 11
189.096
 21
-180.44
  0
LINE
  8
0
 10
189.096
 20
-180.44
 11
189.328
 21
-180.353
  0
LINE
  8
0
 10
189.328
 20
-180.353
 11
189.569
 21
-180.292
  0
LINE
  8
0
 10
189.569
 20
-180.292
 11
189.814
 21
-180.258
  0
LINE
  8
0
 10
189.814
 20
-180.258
 11
190.062
 21
-180.251
  0
LINE
  8
0
 10
190.062
 20
-180.251
 11
190.309
 21
-180.271
  0
LINE
  8
0
 10
190.309
 20
-180.271
 11
190.552
 21
-180.319
  0
LINE
  8
0
 10
190.552
 20
-180.319
 11
190.789
 21
-180.393
  0
LINE
  8
0
 10
190.789
 20
-180.393
 11
191.016
 21
-180.492
  0
LINE
  8
0
 10
191.016
 20
-180.492
 11
191.231
 21
-180.616
  0
LINE
  8
0
 10
191.231
 20
-180.616
 11
191.43
 21
-180.763
  0
LINE
  8
0
 10
191.43
 20
-180.763
 11
191.613
 21
-180.931
  0
LINE
  8
0
 10
191.613
 20
-180.931
 11
191.776
 21
-181.118
  0
LINE
  8
0
 10
191.776
 20
-181.118
 11
191.917
 21
-181.322
  0
LINE
  8
0
 10
191.917
 20
-181.322
 11
192.035
 21
-181.54
  0
LINE
  8
0
 10
192.035
 20
-181.54
 11
192.128
 21
-181.769
  0
LINE
  8
0
 10
192.128
 20
-181.769
 11
192.196
 21
-182.008
  0
LINE
  8
0
 10
192.196
 20
-182.008
 11
192.236
 21
-182.252
  0
LINE
  8
0
 10
192.236
 20
-182.252
 11
192.25
 21
-182.5
  0
LINE
  8
0
 10
192.25
 20
-182.5
 11
192.236
 21
-182.748
  0
LINE
  8
0
 10
192.236
 20
-182.748
 11
192.196
 21
-182.992
  0
LINE
  8
0
 10
192.196
 20
-182.992
 11
192.128
 21
-183.231
  0
LINE
  8
0
 10
192.128
 20
-183.231
 11
192.035
 21
-183.46
  0
LINE
  8
0
 10
192.035
 20
-183.46
 11
191.917
 21
-183.678
  0
LINE
  8
0
 10
191.917
 20
-183.678
 11
191.776
 21
-183.882
  0
LINE
  8
0
 10
191.776
 20
-183.882
 11
191.613
 21
-184.069
  0
LINE
  8
0
 10
191.613
 20
-184.069
 11
191.43
 21
-184.237
  0
LINE
  8
0
 10
191.43
 20
-184.237
 11
191.231
 21
-184.384
  0
LINE
  8
0
 10
191.231
 20
-184.384
 11
191.016
 21
-184.508
  0
LINE
  8
0
 10
191.016
 20
-184.508
 11
190.789
 21
-184.607
  0
LINE
  8
0
 10
190.789
 20
-184.607
 11
190.552
 21
-184.681
  0
LINE
  8
0
 10
190.552
 20
-184.681
 11
190.309
 21
-184.729
  0
LINE
  8
0
 10
190.309
 20
-184.729
 11
190.062
 21
-184.749
  0
LINE
  8
0
 10
190.062
 20
-184.749
 11
189.814
 21
-184.742
  0
LINE
  8
0
 10
129.814
 20
-184.742
 11
129.569
 21
-184.708
  0
LINE
  8
0
 10
129.569
 20
-184.708
 11
129.328
 21
-184.647
  0
LINE
  8
0
 10
129.328
 20
-184.647
 11
129.096
 21
-184.56
  0
LINE
  8
0
 10
129.096
 20
-184.56
 11
128.875
 21
-184.449
  0
LINE
  8
0
 10
128.875
 20
-184.449
 11
128.667
 21
-184.313
  0
LINE
  8
0
 10
128.667
 20
-184.313
 11
128.476
 21
-184.155
  0
LINE
  8
0
 10
128.476
 20
-184.155
 11
128.303
 21
-183.978
  0
LINE
  8
0
 10
128.303
 20
-183.978
 11
128.151
 21
-183.782
  0
LINE
  8
0
 10
128.151
 20
-183.782
 11
128.021
 21
-183.571
  0
LINE
  8
0
 10
128.021
 20
-183.571
 11
127.915
 21
-183.347
  0
LINE
  8
0
 10
127.915
 20
-183.347
 11
127.835
 21
-183.112
  0
LINE
  8
0
 10
127.835
 20
-183.112
 11
127.781
 21
-182.87
  0
LINE
  8
0
 10
127.781
 20
-182.87
 11
127.753
 21
-182.624
  0
LINE
  8
0
 10
127.753
 20
-182.624
 11
127.753
 21
-182.376
  0
LINE
  8
0
 10
127.753
 20
-182.376
 11
127.781
 21
-182.13
  0
LINE
  8
0
 10
127.781
 20
-182.13
 11
127.835
 21
-181.888
  0
LINE
  8
0
 10
127.835
 20
-181.888
 11
127.915
 21
-181.653
  0
LINE
  8
0
 10
127.915
 20
-181.653
 11
128.021
 21
-181.429
  0
LINE
  8
0
 10
128.021
 20
-181.429
 11
128.151
 21
-181.218
  0
LINE
  8
0
 10
128.151
 20
-181.218
 11
128.303
 21
-181.022
  0
LINE
  8
0
 10
128.303
 20
-181.022
 11
128.476
 21
-180.845
  0
LINE
  8
0
 10
128.476
 20
-180.845
 11
128.667
 21
-180.687
  0
LINE
  8
0
 10
128.667
 20
-180.687
 11
128.875
 21
-180.551
  0
LINE
  8
0
 10
128.875
 20
-180.551
 11
129.096
 21
-180.44
  0
LINE
  8
0
 10
129.096
 20
-180.44
 11
129.328
 21
-180.353
  0
LINE
  8
0
 10
129.328
 20
-180.353
 11
129.569
 21
-180.292
  0
LINE
  8
0
 10
129.569
 20
-180.292
 11
129.814
 21
-180.258
  0
LINE
  8
0
 10
129.814
 20
-180.258
 11
130.062
 21
-180.251
  0
LINE
  8
0
 10
130.062
 20
-180.251
 11
130.309
 21
-180.271
  0
LINE
  8
0
 10
130.309
 20
-180.271
 11
130.552
 21
-180.319
  0
LINE
  8
0
 10
130.552
 20
-180.319
 11
130.789
 21
-180.393
  0
LINE
  8
0
 10
130.789
 20
-180.393
 11
131.016
 21
-180.492
  0
LINE
  8
0
 10
131.016
 20
-180.492
 11
131.231
 21
-180.616
  0
LINE
  8
0
 10
131.231
 20
-180.616
 11
131.43
 21
-180.763
  0
LINE
  8
0
 10
131.43
 20
-180.763
 11
131.613
 21
-180.931
  0
LINE
  8
0
 10
131.613
 20
-180.931
 11
131.776
 21
-181.118
  0
LINE
  8
0
 10
131.776
 20
-181.118
 11
131.917
 21
-181.322
  0
LINE
  8
0
 10
131.917
 20
-181.322
 11
132.035
 21
-181.54
  0
LINE
  8
0
 10
132.035
 20
-181.54
 11
132.128
 21
-181.769
  0
LINE
  8
0
 10
132.128
 20
-181.769
 11
132.196
 21
-182.008
  0
LINE
  8
0
 10
132.196
 20
-182.008
 11
132.236
 21
-182.252
  0
LINE
  8
0
 10
132.236
 20
-182.252
 11
132.25
 21
-182.5
  0
LINE
  8
0
 10
132.25
 20
-182.5
 11
132.236
 21
-182.748
  0
LINE
  8
0
 10
132.236
 20
-182.748
 11
132.196
 21
-182.992
  0
LINE
  8
0
 10
132.196
 20
-182.992
 11
132.128
 21
-183.231
  0
LINE
  8
0
 10
132.128
 20
-183.231
 11
132.035
 21
-183.46
  0
LINE
  8
0
 10
132.035
 20
-183.46
 11
131.917
 21
-183.678
  0
LINE
  8
0
 10
131.917
 20
-183.678
 11
131.776
 21
-183.882
  0
LINE
  8
0
 10
131.776
 20
-183.882
 11
131.613
 21
-184.069
  0
LINE
  8
0
 10
131.613
 20
-184.069
 11
131.43
 21
-184.237
  0
LINE
  8
0
 10
131.43
 20
-184.237
 11
131.231
 21
-184.384
  0
LINE
  8
0
 10
131.231
 20
-184.384
 11
131.016
 21
-184.508
  0
LINE
  8
0
 10
131.016
 20
-184.508
 11
130.789
 21
-184.607
  0
LINE
  8
0
 10
130.789
 20
-184.607
 11
130.552
 21
-184.681
  0
LINE
  8
0
 10
130.552
 20
-184.681
 11
130.309
 21
-184.729
  0
LINE
  8
0
 10
130.309
 20
-184.729
 11
130.062
 21
-184.749
  0
LINE
  8
0
 10
130.062
 20
-184.749
 11
129.814
 21
-184.742
  0
LINE
  8
0
 10
-190.309
 20
-184.729
 11
-190.552
 21
-184.681
  0
LINE
  8
0
 10
-190.552
 20
-184.681
 11
-190.789
 21
-184.607
  0
LINE
  8
0
 10
-190.789
 20
-184.607
 11
-191.016
 21
-184.508
  0
LINE
  8
0
 10
-191.016
 20
-184.508
 11
-191.231
 21
-184.384
  0
LINE
  8
0
 10
-191.231
 20
-184.384
 11
-191.43
 21
-184.237
  0
LINE
  8
0
 10
-191.43
 20
-184.237
 11
-191.613
 21
-184.069
  0
LINE
  8
0
 10
-191.613
 20
-184.069
 11
-191.776
 21
-183.882
  0
LINE
  8
0
 10
-191.776
 20
-183.882
 11
-191.917
 21
-183.678
  0
LINE
  8
0
 10
-191.917
 20
-183.678
 11
-192.035
 21
-183.46
  0
LINE
  8
0
 10
-192.035
 20
-183.46
 11
-192.128
 21
-183.231
  0
LINE
  8
0
 10
-192.128
 20
-183.231
 11
-192.196
 21
-182.992
  0
LINE
  8
0
 10
-192.196
 20
-182.992
 11
-192.236
 21
-182.748
  0
LINE
  8
0
 10
-192.236
 20
-182.748
 11
-192.25
 21
-182.5
  0
LINE
  8
0
 10
-192.25
 20
-182.5
 11
-192.236
 21
-182.252
  0
LINE
  8
0
 10
-192.236
 20
-182.252
 11
-192.196
 21
-182.008
  0
LINE
  8
0
 10
-192.196
 20
-182.008
 11
-192.128
 21
-181.769
  0
LINE
  8
0
 10
-192.128
 20
-181.769
 11
-192.035
 21
-181.54
  0
LINE
  8
0
 10
-192.035
 20
-181.54
 11
-191.917
 21
-181.322
  0
LINE
  8
0
 10
-191.917
 20
-181.322
 11
-191.776
 21
-181.118
  0
LINE
  8
0
 10
-191.776
 20
-181.118
 11
-191.613
 21
-180.931
  0
LINE
  8
0
 10
-191.613
 20
-180.931
 11
-191.43
 21
-180.763
  0
LINE
  8
0
 10
-191.43
 20
-180.763
 11
-191.231
 21
-180.616
  0
LINE
  8
0
 10
-191.231
 20
-180.616
 11
-191.016
 21
-180.492
  0
LINE
  8
0
 10
-191.016
 20
-180.492
 11
-190.789
 21
-180.393
  0
LINE
  8
0
 10
-190.789
 20
-180.393
 11
-190.552
 21
-180.319
  0
LINE
  8
0
 10
-190.552
 20
-180.319
 11
-190.309
 21
-180.271
  0
LINE
  8
0
 10
-190.309
 20
-180.271
 11
-190.062
 21
-180.251
  0
LINE
  8
0
 10
-190.062
 20
-180.251
 11
-189.814
 21
-180.258
  0
LINE
  8
0
 10
-189.814
 20
-180.258
 11
-189.569
 21
-180.292
  0
LINE
  8
0
 10
-189.569
 20
-180.292
 11
-189.328
 21
-180.353
  0
LINE
  8
0
 10
-189.328
 20
-180.353
 11
-189.096
 21
-180.44
  0
LINE
  8
0
 10
-189.096
 20
-180.44
 11
-188.875
 21
-180.551
  0
LINE
  8
0
 10
-188.875
 20
-180.551
 11
-188.667
 21
-180.687
  0
LINE
  8
0
 10
-188.667
 20
-180.687
 11
-188.476
 21
-180.845
  0
LINE
  8
0
 10
-188.476
 20
-180.845
 11
-188.303
 21
-181.022
  0
LINE
  8
0
 10
-188.303
 20
-181.022
 11
-188.151
 21
-181.218
  0
LINE
  8
0
 10
-188.151
 20
-181.218
 11
-188.021
 21
-181.429
  0
LINE
  8
0
 10
-188.021
 20
-181.429
 11
-187.915
 21
-181.653
  0
LINE
  8
0
 10
-187.915
 20
-181.653
 11
-187.835
 21
-181.888
  0
LINE
  8
0
 10
-187.835
 20
-181.888
 11
-187.781
 21
-182.13
  0
LINE
  8
0
 10
-187.781
 20
-182.13
 11
-187.753
 21
-182.376
  0
LINE
  8
0
 10
-187.753
 20
-182.376
 11
-187.753
 21
-182.624
  0
LINE
  8
0
 10
-187.753
 20
-182.624
 11
-187.781
 21
-182.87
  0
LINE
  8
0
 10
-187.781
 20
-182.87
 11
-187.835
 21
-183.112
  0
LINE
  8
0
 10
-187.835
 20
-183.112
 11
-187.915
 21
-183.347
  0
LINE
  8
0
 10
-187.915
 20
-183.347
 11
-188.021
 21
-183.571
  0
LINE
  8
0
 10
-188.021
 20
-183.571
 11
-188.151
 21
-183.782
  0
LINE
  8
0
 10
-188.151
 20
-183.782
 11
-188.303
 21
-183.978
  0
LINE
  8
0
 10
-188.303
 20
-183.978
 11
-188.476
 21
-184.155
  0
LINE
  8
0
 10
-188.476
 20
-184.155
 11
-188.667
 21
-184.313
  0
LINE
  8
0
 10
-188.667
 20
-184.313
 11
-188.875
 21
-184.449
  0
LINE
  8
0
 10
-188.875
 20
-184.449
 11
-189.096
 21
-184.56
  0
LINE
  8
0
 10
-189.096
 20
-184.56
 11
-189.328
 21
-184.647
  0
LINE
  8
0
 10
-189.328
 20
-184.647
 11
-189.569
 21
-184.708
  0
LINE
  8
0
 10
-189.569
 20
-184.708
 11
-189.814
 21
-184.742
  0
LINE
  8
0
 10
-189.814
 20
-184.742
 11
-190.062
 21
-184.749
  0
LINE
  8
0
 10
-190.062
 20
-184.749
 11
-190.309
 21
-184.729
  0
LINE
  8
0
 10
189.477
 20
-227.473
 11
188.96
 21
-227.391
  0
LINE
  8
0
 10
188.96
 20
-227.391
 11
188.455
 21
-227.255
  0
LINE
  8
0
 10
188.455
 20
-227.255
 11
187.966
 21
-227.068
  0
LINE
  8
0
 10
187.966
 20
-227.068
 11
187.5
 21
-226.83
  0
LINE
  8
0
 10
187.5
 20
-226.83
 11
187.061
 21
-226.545
  0
LINE
  8
0
 10
187.061
 20
-226.545
 11
186.654
 21
-226.216
  0
LINE
  8
0
 10
186.654
 20
-226.216
 11
186.284
 21
-225.846
  0
LINE
  8
0
 10
186.284
 20
-225.846
 11
185.955
 21
-225.439
  0
LINE
  8
0
 10
185.955
 20
-225.439
 11
185.67
 21
-225
  0
LINE
  8
0
 10
185.67
 20
-225
 11
185.432
 21
-224.534
  0
LINE
  8
0
 10
185.432
 20
-224.534
 11
185.245
 21
-224.045
  0
LINE
  8
0
 10
185.245
 20
-224.045
 11
185.109
 21
-223.54
  0
LINE
  8
0
 10
185.109
 20
-223.54
 11
185.027
 21
-223.023
  0
LINE
  8
0
 10
185.027
 20
-223.023
 11
185
 21
-222.5
  0
LINE
  8
0
 10
185
 20
-222.5
 11
185.027
 21
-221.977
  0
LINE
  8
0
 10
185.027
 20
-221.977
 11
185.109
 21
-221.46
  0
LINE
  8
0
 10
185.109
 20
-221.46
 11
185.245
 21
-220.955
  0
LINE
  8
0
 10
185.245
 20
-220.955
 11
185.432
 21
-220.466
  0
LINE
  8
0
 10
185.432
 20
-220.466
 11
185.67
 21
-220
  0
LINE
  8
0
 10
185.67
 20
-220
 11
185.955
 21
-219.561
  0
LINE
  8
0
 10
185.955
 20
-219.561
 11
186.284
 21
-219.154
  0
LINE
  8
0
 10
186.284
 20
-219.154
 11
186.654
 21
-218.784
  0
LINE
  8
0
 10
186.654
 20
-218.784
 11
187.061
 21
-218.455
  0
LINE
  8
0
 10
187.061
 20
-218.455
 11
187.5
 21
-218.17
  0
LINE
  8
0
 10
187.5
 20
-218.17
 11
187.966
 21
-217.932
  0
LINE
  8
0
 10
187.966
 20
-217.932
 11
188.455
 21
-217.745
  0
LINE
  8
0
 10
188.455
 20
-217.745
 11
188.96
 21
-217.609
  0
LINE
  8
0
 10
188.96
 20
-217.609
 11
189.477
 21
-217.527
  0
LINE
  8
0
 10
189.477
 20
-217.527
 11
190
 21
-217.5
  0
LINE
  8
0
 10
190
 20
-217.5
 11
190.523
 21
-217.527
  0
LINE
  8
0
 10
190.523
 20
-217.527
 11
191.04
 21
-217.609
  0
LINE
  8
0
 10
191.04
 20
-217.609
 11
191.545
 21
-217.745
  0
LINE
  8
0
 10
191.545
 20
-217.745
 11
192.034
 21
-217.932
  0
LINE
  8
0
 10
192.034
 20
-217.932
 11
192.5
 21
-218.17
  0
LINE
  8
0
 10
192.5
 20
-218.17
 11
192.939
 21
-218.455
  0
LINE
  8
0
 10
192.939
 20
-218.455
 11
193.346
 21
-218.784
  0
LINE
  8
0
 10
193.346
 20
-218.784
 11
193.716
 21
-219.154
  0
LINE
  8
0
 10
193.716
 20
-219.154
 11
194.045
 21
-219.561
  0
LINE
  8
0
 10
194.045
 20
-219.561
 11
194.33
 21
-220
  0
LINE
  8
0
 10
194.33
 20
-220
 11
194.568
 21
-220.466
  0
LINE
  8
0
 10
194.568
 20
-220.466
 11
194.755
 21
-220.955
  0
LINE
  8
0
 10
194.755
 20
-220.955
 11
194.891
 21
-221.46
  0
LINE
  8
0
 10
194.891
 20
-221.46
 11
194.973
 21
-221.977
  0
LINE
  8
0
 10
194.973
 20
-221.977
 11
195
 21
-222.5
  0
LINE
  8
0
 10
195
 20
-222.5
 11
194.973
 21
-223.023
  0
LINE
  8
0
 10
194.973
 20
-223.023
 11
194.891
 21
-223.54
  0
LINE
  8
0
 10
194.891
 20
-223.54
 11
194.755
 21
-224.045
  0
LINE
  8
0
 10
194.755
 20
-224.045
 11
194.568
 21
-224.534
  0
LINE
  8
0
 10
194.568
 20
-224.534
 11
194.33
 21
-225
  0
LINE
  8
0
 10
194.33
 20
-225
 11
194.045
 21
-225.439
  0
LINE
  8
0
 10
194.045
 20
-225.439
 11
193.716
 21
-225.846
  0
LINE
  8
0
 10
193.716
 20
-225.846
 11
193.346
 21
-226.216
  0
LINE
  8
0
 10
193.346
 20
-226.216
 11
192.939
 21
-226.545
  0
LINE
  8
0
 10
192.939
 20
-226.545
 11
192.5
 21
-226.83
  0
LINE
  8
0
 10
192.5
 20
-226.83
 11
192.034
 21
-227.068
  0
LINE
  8
0
 10
192.034
 20
-227.068
 11
191.545
 21
-227.255
  0
LINE
  8
0
 10
191.545
 20
-227.255
 11
191.04
 21
-227.391
  0
LINE
  8
0
 10
191.04
 20
-227.391
 11
190.523
 21
-227.473
  0
LINE
  8
0
 10
190.523
 20
-227.473
 11
190
 21
-227.5
  0
LINE
  8
0
 10
190
 20
-227.5
 11
189.477
 21
-227.473
  0
LINE
  8
0
 10
-190.523
 20
-227.473
 11
-191.04
 21
-227.391
  0
LINE
  8
0
 10
-191.04
 20
-227.391
 11
-191.545
 21
-227.255
  0
LINE
  8
0
 10
-191.545
 20
-227.255
 11
-192.034
 21
-227.068
  0
LINE
  8
0
 10
-192.034
 20
-227.068
 11
-192.5
 21
-226.83
  0
LINE
  8
0
 10
-192.5
 20
-226.83
 11
-192.939
 21
-226.545
  0
LINE
  8
0
 10
-192.939
 20
-226.545
 11
-193.346
 21
-226.216
  0
LINE
  8
0
 10
-193.346
 20
-226.216
 11
-193.716
 21
-225.846
  0
LINE
  8
0
 10
-193.716
 20
-225.846
 11
-194.045
 21
-225.439
  0
LINE
  8
0
 10
-194.045
 20
-225.439
 11
-194.33
 21
-225
  0
LINE
  8
0
 10
-194.33
 20
-225
 11
-194.568
 21
-224.534
  0
LINE
  8
0
 10
-194.568
 20
-224.534
 11
-194.755
 21
-224.045
  0
LINE
  8
0
 10
-194.755
 20
-224.045
 11
-194.891
 21
-223.54
  0
LINE
  8
0
 10
-194.891
 20
-223.54
 11
-194.973
 21
-223.023
  0
LINE
  8
0
 10
-194.973
 20
-223.023
 11
-195
 21
-222.5
  0
LINE
  8
0
 10
-195
 20
-222.5
 11
-194.973
 21
-221.977
  0
LINE
  8
0
 10
-194.973
 20
-221.977
 11
-194.891
 21
-221.46
  0
LINE
  8
0
 10
-194.891
 20
-221.46
 11
-194.755
 21
-220.955
  0
LINE
  8
0
 10
-194.755
 20
-220.955
 11
-194.568
 21
-220.466
  0
LINE
  8
0
 10
-194.568
 20
-220.466
 11
-194.33
 21
-220
  0
LINE
  8
0
 10
-194.33
 20
-220
 11
-194.045
 21
-219.561
  0
LINE
  8
0
 10
-194.045
 20
-219.561
 11
-193.716
 21
-219.154
  0
LINE
  8
0
 10
-193.716
 20
-219.154
 11
-193.346
 21
-218.784
  0
LINE
  8
0
 10
-193.346
 20
-218.784
 11
-192.939
 21
-218.455
  0
LINE
  8
0
 10
-192.939
 20
-218.455
 11
-192.5
 21
-218.17
  0
LINE
  8
0
 10
-192.5
 20
-218.17
 11
-192.034
 21
-217.932
  0
LINE
  8
0
 10
-192.034
 20
-217.932
 11
-191.545
 21
-217.745
  0
LINE
  8
0
 10
-191.545
 20
-217.745
 11
-191.04
 21
-217.609
  0
LINE
  8
0
 10
-191.04
 20
-217.609
 11
-190.523
 21
-217.527
  0
LINE
  8
0
 10
-190.523
 20
-217.527
 11
-190
 21
-217.5
  0
LINE
  8
0
 10
-190
 20
-217.5
 11
-189.477
 21
-217.527
  0
LINE
  8
0
 10
-189.477
 20
-217.527
 11
-188.96
 21
-217.609
  0
LINE
  8
0
 10
-188.96
 20
-217.609
 11
-188.455
 21
-217.745
  0
LINE
  8
0
 10
-188.455
 20
-217.745
 11
-187.966
 21
-217.932
  0
LINE
  8
0
 10
-187.966
 20
-217.932
 11
-187.5
 21
-218.17
  0
LINE
  8
0
 10
-187.5
 20
-218.17
 11
-187.061
 21
-218.455
  0
LINE
  8
0
 10
-187.061
 20
-218.455
 11
-186.654
 21
-218.784
  0
LINE
  8
0
 10
-186.654
 20
-218.784
 11
-186.284
 21
-219.154
  0
LINE
  8
0
 10
-186.284
 20
-219.154
 11
-185.955
 21
-219.561
  0
LINE
  8
0
 10
-185.955
 20
-219.561
 11
-185.67
 21
-220
  0
LINE
  8
0
 10
-185.67
 20
-220
 11
-185.432
 21
-220.466
  0
LINE
  8
0
 10
-185.432
 20
-220.466
 11
-185.245
 21
-220.955
  0
LINE
  8
0
 10
-185.245
 20
-220.955
 11
-185.109
 21
-221.46
  0
LINE
  8
0
 10
-185.109
 20
-221.46
 11
-185.027
 21
-221.977
  0
LINE
  8
0
 10
-185.027
 20
-221.977
 11
-185
 21
-222.5
  0
LINE
  8
0
 10
-185
 20
-222.5
 11
-185.027
 21
-223.023
  0
LINE
  8
0
 10
-185.027
 20
-223.023
 11
-185.109
 21
-223.54
  0
LINE
  8
0
 10
-185.109
 20
-223.54
 11
-185.245
 21
-224.045
  0
LINE
  8
0
 10
-185.245
 20
-224.045
 11
-185.432
 21
-224.534
  0
LINE
  8
0
 10
-185.432
 20
-224.534
 11
-185.67
 21
-225
  0
LINE
  8
0
 10
-185.67
 20
-225
 11
-185.955
 21
-225.439
  0
LINE
  8
0
 10
-185.955
 20
-225.439
 11
-186.284
 21
-225.846
  0
LINE
  8
0
 10
-186.284
 20
-225.846
 11
-186.654
 21
-226.216
  0
LINE
  8
0
 10
-186.654
 20
-226.216
 11
-187.061
 21
-226.545
  0
LINE
  8
0
 10
-187.061
 20
-226.545
 11
-187.5
 21
-226.83
  0
LINE
  8
0
 10
-187.5
 20
-226.83
 11
-187.966
 21
-227.068
  0
LINE
  8
0
 10
-187.966
 20
-227.068
 11
-188.455
 21
-227.255
  0
LINE
  8
0
 10
-188.455
 20
-227.255
 11
-188.96
 21
-227.391
  0
LINE
  8
0
 10
-188.96
 20
-227.391
 11
-189.477
 21
-227.473
  0
LINE
  8
0
 10
-189.477
 20
-227.473
 11
-190
 21
-227.5
  0
LINE
  8
0
 10
-190
 20
-227.5
 11
-190.523
 21
-227.473
  0
LINE
  8
0
 10
-150.186
 20
-224.742
 11
-150.431
 21
-224.708
  0
LINE
  8
0
 10
-150.431
 20
-224.708
 11
-150.672
 21
-224.647
  0
LINE
  8
0
 10
-150.672
 20
-224.647
 11
-150.904
 21
-224.56
  0
LINE
  8
0
 10
-150.904
 20
-224.56
 11
-151.125
 21
-224.449
  0
LINE
  8
0
 10
-151.125
 20
-224.449
 11
-151.333
 21
-224.313
  0
LINE
  8
0
 10
-151.333
 20
-224.313
 11
-151.524
 21
-224.155
  0
LINE
  8
0
 10
-151.524
 20
-224.155
 11
-151.697
 21
-223.978
  0
LINE
  8
0
 10
-151.697
 20
-223.978
 11
-151.849
 21
-223.782
  0
LINE
  8
0
 10
-151.849
 20
-223.782
 11
-151.979
 21
-223.571
  0
LINE
  8
0
 10
-151.979
 20
-223.571
 11
-152.085
 21
-223.347
  0
LINE
  8
0
 10
-152.085
 20
-223.347
 11
-152.165
 21
-223.112
  0
LINE
  8
0
 10
-152.165
 20
-223.112
 11
-152.219
 21
-222.87
  0
LINE
  8
0
 10
-152.219
 20
-222.87
 11
-152.247
 21
-222.624
  0
LINE
  8
0
 10
-152.247
 20
-222.624
 11
-152.247
 21
-222.376
  0
LINE
  8
0
 10
-152.247
 20
-222.376
 11
-152.219
 21
-222.13
  0
LINE
  8
0
 10
-152.219
 20
-222.13
 11
-152.165
 21
-221.888
  0
LINE
  8
0
 10
-152.165
 20
-221.888
 11
-152.085
 21
-221.653
  0
LINE
  8
0
 10
-152.085
 20
-221.653
 11
-151.979
 21
-221.429
  0
LINE
  8
0
 10
-151.979
 20
-221.429
 11
-151.849
 21
-221.218
  0
LINE
  8
0
 10
-151.849
 20
-221.218
 11
-151.697
 21
-221.022
  0
LINE
  8
0
 10
-151.697
 20
-221.022
 11
-151.524
 21
-220.845
  0
LINE
  8
0
 10
-151.524
 20
-220.845
 11
-151.333
 21
-220.687
  0
LINE
  8
0
 10
-151.333
 20
-220.687
 11
-151.125
 21
-220.551
  0
LINE
  8
0
 10
-151.125
 20
-220.551
 11
-150.904
 21
-220.44
  0
LINE
  8
0
 10
-150.904
 20
-220.44
 11
-150.672
 21
-220.353
  0
LINE
  8
0
 10
-150.672
 20
-220.353
 11
-150.431
 21
-220.292
  0
LINE
  8
0
 10
-150.431
 20
-220.292
 11
-150.186
 21
-220.258
  0
LINE
  8
0
 10
-150.186
 20
-220.258
 11
-149.938
 21
-220.251
  0
LINE
  8
0
 10
-149.938
 20
-220.251
 11
-149.691
 21
-220.271
  0
LINE
  8
0
 10
-149.691
 20
-220.271
 11
-149.448
 21
-220.319
  0
LINE
  8
0
 10
-149.448
 20
-220.319
 11
-149.211
 21
-220.393
  0
LINE
  8
0
 10
-149.211
 20
-220.393
 11
-148.984
 21
-220.492
  0
LINE
  8
0
 10
-148.984
 20
-220.492
 11
-148.769
 21
-220.616
  0
LINE
  8
0
 10
-148.769
 20
-220.616
 11
-148.57
 21
-220.763
  0
LINE
  8
0
 10
-148.57
 20
-220.763
 11
-148.387
 21
-220.931
  0
LINE
  8
0
 10
-148.387
 20
-220.931
 11
-148.224
 21
-221.118
  0
LINE
  8
0
 10
-148.224
 20
-221.118
 11
-148.083
 21
-221.322
  0
LINE
  8
0
 10
-148.083
 20
-221.322
 11
-147.965
 21
-221.54
  0
LINE
  8
0
 10
-147.965
 20
-221.54
 11
-147.872
 21
-221.769
  0
LINE
  8
0
 10
-147.872
 20
-221.769
 11
-147.804
 21
-222.008
  0
LINE
  8
0
 10
-147.804
 20
-222.008
 11
-147.764
 21
-222.252
  0
LINE
  8
0
 10
-147.764
 20
-222.252
 11
-147.75
 21
-222.5
  0
LINE
  8
0
 10
-147.75
 20
-222.5
 11
-147.764
 21
-222.748
  0
LINE
  8
0
 10
-147.764
 20
-222.748
 11
-147.804
 21
-222.992
  0
LINE
  8
0
 10
-147.804
 20
-222.992
 11
-147.872
 21
-223.231
  0
LINE
  8
0
 10
-147.872
 20
-223.231
 11
-147.965
 21
-223.46
  0
LINE
  8
0
 10
-147.965
 20
-223.46
 11
-148.083
 21
-223.678
  0
LINE
  8
0
 10
-148.083
 20
-223.678
 11
-148.224
 21
-223.882
  0
LINE
  8
0
 10
-148.224
 20
-223.882
 11
-148.387
 21
-224.069
  0
LINE
  8
0
 10
-148.387
 20
-224.069
 11
-148.57
 21
-224.237
  0
LINE
  8
0
 10
-148.57
 20
-224.237
 11
-148.769
 21
-224.384
  0
LINE
  8
0
 10
-148.769
 20
-224.384
 11
-148.984
 21
-224.508
  0
LINE
  8
0
 10
-148.984
 20
-224.508
 11
-149.211
 21
-224.607
  0
LINE
  8
0
 10
-149.211
 20
-224.607
 11
-149.448
 21
-224.681
  0
LINE
  8
0
 10
-149.448
 20
-224.681
 11
-149.691
 21
-224.729
  0
LINE
  8
0
 10
-149.691
 20
-224.729
 11
-149.938
 21
-224.749
  0
LINE
  8
0
 10
-149.938
 20
-224.749
 11
-150.186
 21
-224.742
  0
LINE
  8
0
 10
49.8142
 20
-224.742
 11
49.5686
 21
-224.708
  0
LINE
  8
0
 10
49.5686
 20
-224.708
 11
49.3283
 21
-224.647
  0
LINE
  8
0
 10
49.3283
 20
-224.647
 11
49.0962
 21
-224.56
  0
LINE
  8
0
 10
49.0962
 20
-224.56
 11
48.875
 21
-224.449
  0
LINE
  8
0
 10
48.875
 20
-224.449
 11
48.6675
 21
-224.313
  0
LINE
  8
0
 10
48.6675
 20
-224.313
 11
48.4761
 21
-224.155
  0
LINE
  8
0
 10
48.4761
 20
-224.155
 11
48.3033
 21
-223.978
  0
LINE
  8
0
 10
48.3033
 20
-223.978
 11
48.151
 21
-223.782
  0
LINE
  8
0
 10
48.151
 20
-223.782
 11
48.0212
 21
-223.571
  0
LINE
  8
0
 10
48.0212
 20
-223.571
 11
47.9154
 21
-223.347
  0
LINE
  8
0
 10
47.9154
 20
-223.347
 11
47.8349
 21
-223.112
  0
LINE
  8
0
 10
47.8349
 20
-223.112
 11
47.7807
 21
-222.87
  0
LINE
  8
0
 10
47.7807
 20
-222.87
 11
47.7534
 21
-222.624
  0
LINE
  8
0
 10
47.7534
 20
-222.624
 11
47.7534
 21
-222.376
  0
LINE
  8
0
 10
47.7534
 20
-222.376
 11
47.7807
 21
-222.13
  0
LINE
  8
0
 10
47.7807
 20
-222.13
 11
47.8349
 21
-221.888
  0
LINE
  8
0
 10
47.8349
 20
-221.888
 11
47.9154
 21
-221.653
  0
LINE
  8
0
 10
47.9154
 20
-221.653
 11
48.0212
 21
-221.429
  0
LINE
  8
0
 10
48.0212
 20
-221.429
 11
48.151
 21
-221.218
  0
LINE
  8
0
 10
48.151
 20
-221.218
 11
48.3033
 21
-221.022
  0
LINE
  8
0
 10
48.3033
 20
-221.022
 11
48.4761
 21
-220.845
  0
LINE
  8
0
 10
48.4761
 20
-220.845
 11
48.6675
 21
-220.687
  0
LINE
  8
0
 10
48.6675
 20
-220.687
 11
48.875
 21
-220.551
  0
LINE
  8
0
 10
48.875
 20
-220.551
 11
49.0962
 21
-220.44
  0
LINE
  8
0
 10
49.0962
 20
-220.44
 11
49.3283
 21
-220.353
  0
LINE
  8
0
 10
49.3283
 20
-220.353
 11
49.5686
 21
-220.292
  0
LINE
  8
0
 10
49.5686
 20
-220.292
 11
49.8142
 21
-220.258
  0
LINE
  8
0
 10
49.8142
 20
-220.258
 11
50.062
 21
-220.251
  0
LINE
  8
0
 10
50.062
 20
-220.251
 11
50.309
 21
-220.271
  0
LINE
  8
0
 10
50.309
 20
-220.271
 11
50.5523
 21
-220.319
  0
LINE
  8
0
 10
50.5523
 20
-220.319
 11
50.7889
 21
-220.393
  0
LINE
  8
0
 10
50.7889
 20
-220.393
 11
51.0159
 21
-220.492
  0
LINE
  8
0
 10
51.0159
 20
-220.492
 11
51.2306
 21
-220.616
  0
LINE
  8
0
 10
51.2306
 20
-220.616
 11
51.4304
 21
-220.763
  0
LINE
  8
0
 10
51.4304
 20
-220.763
 11
51.6128
 21
-220.931
  0
LINE
  8
0
 10
51.6128
 20
-220.931
 11
51.7756
 21
-221.118
  0
LINE
  8
0
 10
51.7756
 20
-221.118
 11
51.9168
 21
-221.322
  0
LINE
  8
0
 10
51.9168
 20
-221.322
 11
52.0348
 21
-221.54
  0
LINE
  8
0
 10
52.0348
 20
-221.54
 11
52.1281
 21
-221.769
  0
LINE
  8
0
 10
52.1281
 20
-221.769
 11
52.1955
 21
-222.008
  0
LINE
  8
0
 10
52.1955
 20
-222.008
 11
52.2363
 21
-222.252
  0
LINE
  8
0
 10
52.2363
 20
-222.252
 11
52.25
 21
-222.5
  0
LINE
  8
0
 10
52.25
 20
-222.5
 11
52.2363
 21
-222.748
  0
LINE
  8
0
 10
52.2363
 20
-222.748
 11
52.1955
 21
-222.992
  0
LINE
  8
0
 10
52.1955
 20
-222.992
 11
52.1281
 21
-223.231
  0
LINE
  8
0
 10
52.1281
 20
-223.231
 11
52.0348
 21
-223.46
  0
LINE
  8
0
 10
52.0348
 20
-223.46
 11
51.9168
 21
-223.678
  0
LINE
  8
0
 10
51.9168
 20
-223.678
 11
51.7756
 21
-223.882
  0
LINE
  8
0
 10
51.7756
 20
-223.882
 11
51.6128
 21
-224.069
  0
LINE
  8
0
 10
51.6128
 20
-224.069
 11
51.4304
 21
-224.237
  0
LINE
  8
0
 10
51.4304
 20
-224.237
 11
51.2306
 21
-224.384
  0
LINE
  8
0
 10
51.2306
 20
-224.384
 11
51.0159
 21
-224.508
  0
LINE
  8
0
 10
51.0159
 20
-224.508
 11
50.7889
 21
-224.607
  0
LINE
  8
0
 10
50.7889
 20
-224.607
 11
50.5523
 21
-224.681
  0
LINE
  8
0
 10
50.5523
 20
-224.681
 11
50.309
 21
-224.729
  0
LINE
  8
0
 10
50.309
 20
-224.729
 11
50.062
 21
-224.749
  0
LINE
  8
0
 10
50.062
 20
-224.749
 11
49.8142
 21
-224.742
  0
LINE
  8
0
 10
149.814
 20
-224.742
 11
149.569
 21
-224.708
  0
LINE
  8
0
 10
149.569
 20
-224.708
 11
149.328
 21
-224.647
  0
LINE
  8
0
 10
149.328
 20
-224.647
 11
149.096
 21
-224.56
  0
LINE
  8
0
 10
149.096
 20
-224.56
 11
148.875
 21
-224.449
  0
LINE
  8
0
 10
148.875
 20
-224.449
 11
148.667
 21
-224.313
  0
LINE
  8
0
 10
148.667
 20
-224.313
 11
148.476
 21
-224.155
  0
LINE
  8
0
 10
148.476
 20
-224.155
 11
148.303
 21
-223.978
  0
LINE
  8
0
 10
148.303
 20
-223.978
 11
148.151
 21
-223.782
  0
LINE
  8
0
 10
148.151
 20
-223.782
 11
148.021
 21
-223.571
  0
LINE
  8
0
 10
148.021
 20
-223.571
 11
147.915
 21
-223.347
  0
LINE
  8
0
 10
147.915
 20
-223.347
 11
147.835
 21
-223.112
  0
LINE
  8
0
 10
147.835
 20
-223.112
 11
147.781
 21
-222.87
  0
LINE
  8
0
 10
147.781
 20
-222.87
 11
147.753
 21
-222.624
  0
LINE
  8
0
 10
147.753
 20
-222.624
 11
147.753
 21
-222.376
  0
LINE
  8
0
 10
147.753
 20
-222.376
 11
147.781
 21
-222.13
  0
LINE
  8
0
 10
147.781
 20
-222.13
 11
147.835
 21
-221.888
  0
LINE
  8
0
 10
147.835
 20
-221.888
 11
147.915
 21
-221.653
  0
LINE
  8
0
 10
147.915
 20
-221.653
 11
148.021
 21
-221.429
  0
LINE
  8
0
 10
148.021
 20
-221.429
 11
148.151
 21
-221.218
  0
LINE
  8
0
 10
148.151
 20
-221.218
 11
148.303
 21
-221.022
  0
LINE
  8
0
 10
148.303
 20
-221.022
 11
148.476
 21
-220.845
  0
LINE
  8
0
 10
148.476
 20
-220.845
 11
148.667
 21
-220.687
  0
LINE
  8
0
 10
148.667
 20
-220.687
 11
148.875
 21
-220.551
  0
LINE
  8
0
 10
148.875
 20
-220.551
 11
149.096
 21
-220.44
  0
LINE
  8
0
 10
149.096
 20
-220.44
 11
149.328
 21
-220.353
  0
LINE
  8
0
 10
149.328
 20
-220.353
 11
149.569
 21
-220.292
  0
LINE
  8
0
 10
149.569
 20
-220.292
 11
149.814
 21
-220.258
  0
LINE
  8
0
 10
149.814
 20
-220.258
 11
150.062
 21
-220.251
  0
LINE
  8
0
 10
150.062
 20
-220.251
 11
150.309
 21
-220.271
  0
LINE
  8
0
 10
150.309
 20
-220.271
 11
150.552
 21
-220.319
  0
LINE
  8
0
 10
150.552
 20
-220.319
 11
150.789
 21
-220.393
  0
LINE
  8
0
 10
150.789
 20
-220.393
 11
151.016
 21
-220.492
  0
LINE
  8
0
 10
151.016
 20
-220.492
 11
151.231
 21
-220.616
  0
LINE
  8
0
 10
151.231
 20
-220.616
 11
151.43
 21
-220.763
  0
LINE
  8
0
 10
151.43
 20
-220.763
 11
151.613
 21
-220.931
  0
LINE
  8
0
 10
151.613
 20
-220.931
 11
151.776
 21
-221.118
  0
LINE
  8
0
 10
151.776
 20
-221.118
 11
151.917
 21
-221.322
  0
LINE
  8
0
 10
151.917
 20
-221.322
 11
152.035
 21
-221.54
  0
LINE
  8
0
 10
152.035
 20
-221.54
 11
152.128
 21
-221.769
  0
LINE
  8
0
 10
152.128
 20
-221.769
 11
152.196
 21
-222.008
  0
LINE
  8
0
 10
152.196
 20
-222.008
 11
152.236
 21
-222.252
  0
LINE
  8
0
 10
152.236
 20
-222.252
 11
152.25
 21
-222.5
  0
LINE
  8
0
 10
152.25
 20
-222.5
 11
152.236
 21
-222.748
  0
LINE
  8
0
 10
152.236
 20
-222.748
 11
152.196
 21
-222.992
  0
LINE
  8
0
 10
152.196
 20
-222.992
 11
152.128
 21
-223.231
  0
LINE
  8
0
 10
152.128
 20
-223.231
 11
152.035
 21
-223.46
  0
LINE
  8
0
 10
152.035
 20
-223.46
 11
151.917
 21
-223.678
  0
LINE
  8
0
 10
151.917
 20
-223.678
 11
151.776
 21
-223.882
  0
LINE
  8
0
 10
151.776
 20
-223.882
 11
151.613
 21
-224.069
  0
LINE
  8
0
 10
151.613
 20
-224.069
 11
151.43
 21
-224.237
  0
LINE
  8
0
 10
151.43
 20
-224.237
 11
151.231
 21
-224.384
  0
LINE
  8
0
 10
151.231
 20
-224.384
 11
151.016
 21
-224.508
  0
LINE
  8
0
 10
151.016
 20
-224.508
 11
150.789
 21
-224.607
  0
LINE
  8
0
 10
150.789
 20
-224.607
 11
150.552
 21
-224.681
  0
LINE
  8
0
 10
150.552
 20
-224.681
 11
150.309
 21
-224.729
  0
LINE
  8
0
 10
150.309
 20
-224.729
 11
150.062
 21
-224.749
  0
LINE
  8
0
 10
150.062
 20
-224.749
 11
149.814
 21
-224.742
  0
LINE
  8
0
 10
-50.1858
 20
-224.742
 11
-50.4314
 21
-224.708
  0
LINE
  8
0
 10
-50.4314
 20
-224.708
 11
-50.6716
 21
-224.647
  0
LINE
  8
0
 10
-50.6716
 20
-224.647
 11
-50.9038
 21
-224.56
  0
LINE
  8
0
 10
-50.9038
 20
-224.56
 11
-51.125
 21
-224.449
  0
LINE
  8
0
 10
-51.125
 20
-224.449
 11
-51.3325
 21
-224.313
  0
LINE
  8
0
 10
-51.3325
 20
-224.313
 11
-51.5239
 21
-224.155
  0
LINE
  8
0
 10
-51.5239
 20
-224.155
 11
-51.6967
 21
-223.978
  0
LINE
  8
0
 10
-51.6967
 20
-223.978
 11
-51.849
 21
-223.782
  0
LINE
  8
0
 10
-51.849
 20
-223.782
 11
-51.9788
 21
-223.571
  0
LINE
  8
0
 10
-51.9788
 20
-223.571
 11
-52.0846
 21
-223.347
  0
LINE
  8
0
 10
-52.0846
 20
-223.347
 11
-52.1651
 21
-223.112
  0
LINE
  8
0
 10
-52.1651
 20
-223.112
 11
-52.2193
 21
-222.87
  0
LINE
  8
0
 10
-52.2193
 20
-222.87
 11
-52.2466
 21
-222.624
  0
LINE
  8
0
 10
-52.2466
 20
-222.624
 11
-52.2466
 21
-222.376
  0
LINE
  8
0
 10
-52.2466
 20
-222.376
 11
-52.2193
 21
-222.13
  0
LINE
  8
0
 10
-52.2193
 20
-222.13
 11
-52.1651
 21
-221.888
  0
LINE
  8
0
 10
-52.1651
 20
-221.888
 11
-52.0846
 21
-221.653
  0
LINE
  8
0
 10
-52.0846
 20
-221.653
 11
-51.9788
 21
-221.429
  0
LINE
  8
0
 10
-51.9788
 20
-221.429
 11
-51.849
 21
-221.218
  0
LINE
  8
0
 10
-51.849
 20
-221.218
 11
-51.6967
 21
-221.022
  0
LINE
  8
0
 10
-51.6967
 20
-221.022
 11
-51.5239
 21
-220.845
  0
LINE
  8
0
 10
-51.5239
 20
-220.845
 11
-51.3325
 21
-220.687
  0
LINE
  8
0
 10
-51.3325
 20
-220.687
 11
-51.125
 21
-220.551
  0
LINE
  8
0
 10
-51.125
 20
-220.551
 11
-50.9038
 21
-220.44
  0
LINE
  8
0
 10
-50.9038
 20
-220.44
 11
-50.6716
 21
-220.353
  0
LINE
  8
0
 10
-50.6716
 20
-220.353
 11
-50.4314
 21
-220.292
  0
LINE
  8
0
 10
-50.4314
 20
-220.292
 11
-50.1858
 21
-220.258
  0
LINE
  8
0
 10
-50.1858
 20
-220.258
 11
-49.938
 21
-220.251
  0
LINE
  8
0
 10
-49.938
 20
-220.251
 11
-49.6909
 21
-220.271
  0
LINE
  8
0
 10
-49.6909
 20
-220.271
 11
-49.4476
 21
-220.319
  0
LINE
  8
0
 10
-49.4476
 20
-220.319
 11
-49.2111
 21
-220.393
  0
LINE
  8
0
 10
-49.2111
 20
-220.393
 11
-48.984
 21
-220.492
  0
LINE
  8
0
 10
-48.984
 20
-220.492
 11
-48.7694
 21
-220.616
  0
LINE
  8
0
 10
-48.7694
 20
-220.616
 11
-48.5696
 21
-220.763
  0
LINE
  8
0
 10
-48.5696
 20
-220.763
 11
-48.3872
 21
-220.931
  0
LINE
  8
0
 10
-48.3872
 20
-220.931
 11
-48.2244
 21
-221.118
  0
LINE
  8
0
 10
-48.2244
 20
-221.118
 11
-48.0832
 21
-221.322
  0
LINE
  8
0
 10
-48.0832
 20
-221.322
 11
-47.9652
 21
-221.54
  0
LINE
  8
0
 10
-47.9652
 20
-221.54
 11
-47.8719
 21
-221.769
  0
LINE
  8
0
 10
-47.8719
 20
-221.769
 11
-47.8045
 21
-222.008
  0
LINE
  8
0
 10
-47.8045
 20
-222.008
 11
-47.7637
 21
-222.252
  0
LINE
  8
0
 10
-47.7637
 20
-222.252
 11
-47.75
 21
-222.5
  0
LINE
  8
0
 10
-47.75
 20
-222.5
 11
-47.7637
 21
-222.748
  0
LINE
  8
0
 10
-47.7637
 20
-222.748
 11
-47.8045
 21
-222.992
  0
LINE
  8
0
 10
-47.8045
 20
-222.992
 11
-47.8719
 21
-223.231
  0
LINE
  8
0
 10
-47.8719
 20
-223.231
 11
-47.9652
 21
-223.46
  0
LINE
  8
0
 10
-47.9652
 20
-223.46
 11
-48.0832
 21
-223.678
  0
LINE
  8
0
 10
-48.0832
 20
-223.678
 11
-48.2244
 21
-223.882
  0
LINE
  8
0
 10
-48.2244
 20
-223.882
 11
-48.3872
 21
-224.069
  0
LINE
  8
0
 10
-48.3872
 20
-224.069
 11
-48.5696
 21
-224.237
  0
LINE
  8
0
 10
-48.5696
 20
-224.237
 11
-48.7694
 21
-224.384
  0
LINE
  8
0
 10
-48.7694
 20
-224.384
 11
-48.984
 21
-224.508
  0
LINE
  8
0
 10
-48.984
 20
-224.508
 11
-49.2111
 21
-224.607
  0
LINE
  8
0
 10
-49.2111
 20
-224.607
 11
-49.4476
 21
-224.681
  0
LINE
  8
0
 10
-49.4476
 20
-224.681
 11
-49.6909
 21
-224.729
  0
LINE
  8
0
 10
-49.6909
 20
-224.729
 11
-49.938
 21
-224.749
  0
LINE
  8
0
 10
-49.938
 20
-224.749
 11
-50.1858
 21
-224.742
  0
ENDSEC
  0
SECTION
  2
OBJECTS
  0
DICTIONARY
  0
ENDSEC
  0
EOF
