  0
SECTION
  2
BLOCKS
  0
ENDSEC
  0
SECTION
  2
ENTITIES
  0
LINE
  8
0
 10
227.898
 20
-177.348
 11
228.415
 21
-177.266
  0
LINE
  8
0
 10
228.415
 20
-177.266
 11
228.92
 21
-177.13
  0
LINE
  8
0
 10
228.92
 20
-177.13
 11
229.409
 21
-176.943
  0
LINE
  8
0
 10
229.409
 20
-176.943
 11
229.875
 21
-176.705
  0
LINE
  8
0
 10
229.875
 20
-176.705
 11
230.314
 21
-176.42
  0
LINE
  8
0
 10
230.314
 20
-176.42
 11
230.721
 21
-176.091
  0
LINE
  8
0
 10
230.721
 20
-176.091
 11
231.091
 21
-175.721
  0
LINE
  8
0
 10
231.091
 20
-175.721
 11
231.42
 21
-175.314
  0
LINE
  8
0
 10
231.42
 20
-175.314
 11
231.705
 21
-174.875
  0
LINE
  8
0
 10
231.705
 20
-174.875
 11
231.943
 21
-174.409
  0
LINE
  8
0
 10
231.943
 20
-174.409
 11
232.13
 21
-173.92
  0
LINE
  8
0
 10
232.13
 20
-173.92
 11
232.266
 21
-173.415
  0
LINE
  8
0
 10
232.266
 20
-173.415
 11
232.348
 21
-172.898
  0
LINE
  8
0
 10
232.348
 20
-172.898
 11
232.375
 21
-172.375
  0
LINE
  8
0
 10
232.375
 20
-172.375
 11
232.375
 21
172.375
  0
LINE
  8
0
 10
232.375
 20
172.375
 11
232.348
 21
172.898
  0
LINE
  8
0
 10
232.348
 20
172.898
 11
232.266
 21
173.415
  0
LINE
  8
0
 10
232.266
 20
173.415
 11
232.13
 21
173.92
  0
LINE
  8
0
 10
232.13
 20
173.92
 11
231.943
 21
174.409
  0
LINE
  8
0
 10
231.943
 20
174.409
 11
231.705
 21
174.875
  0
LINE
  8
0
 10
231.705
 20
174.875
 11
231.42
 21
175.314
  0
LINE
  8
0
 10
231.42
 20
175.314
 11
231.091
 21
175.721
  0
LINE
  8
0
 10
231.091
 20
175.721
 11
230.721
 21
176.091
  0
LINE
  8
0
 10
230.721
 20
176.091
 11
230.314
 21
176.42
  0
LINE
  8
0
 10
230.314
 20
176.42
 11
229.875
 21
176.705
  0
LINE
  8
0
 10
229.875
 20
176.705
 11
229.409
 21
176.943
  0
LINE
  8
0
 10
229.409
 20
176.943
 11
228.92
 21
177.13
  0
LINE
  8
0
 10
228.92
 20
177.13
 11
228.415
 21
177.266
  0
LINE
  8
0
 10
228.415
 20
177.266
 11
227.898
 21
177.348
  0
LINE
  8
0
 10
227.898
 20
177.348
 11
227.375
 21
177.375
  0
LINE
  8
0
 10
227.375
 20
177.375
 11
-227.375
 21
177.375
  0
LINE
  8
0
 10
-227.375
 20
177.375
 11
-227.898
 21
177.348
  0
LINE
  8
0
 10
-227.898
 20
177.348
 11
-228.415
 21
177.266
  0
LINE
  8
0
 10
-228.415
 20
177.266
 11
-228.92
 21
177.13
  0
LINE
  8
0
 10
-228.92
 20
177.13
 11
-229.409
 21
176.943
  0
LINE
  8
0
 10
-229.409
 20
176.943
 11
-229.875
 21
176.705
  0
LINE
  8
0
 10
-229.875
 20
176.705
 11
-230.314
 21
176.42
  0
LINE
  8
0
 10
-230.314
 20
176.42
 11
-230.721
 21
176.091
  0
LINE
  8
0
 10
-230.721
 20
176.091
 11
-231.091
 21
175.721
  0
LINE
  8
0
 10
-231.091
 20
175.721
 11
-231.42
 21
175.314
  0
LINE
  8
0
 10
-231.42
 20
175.314
 11
-231.705
 21
174.875
  0
LINE
  8
0
 10
-231.705
 20
174.875
 11
-231.943
 21
174.409
  0
LINE
  8
0
 10
-231.943
 20
174.409
 11
-232.13
 21
173.92
  0
LINE
  8
0
 10
-232.13
 20
173.92
 11
-232.266
 21
173.415
  0
LINE
  8
0
 10
-232.266
 20
173.415
 11
-232.348
 21
172.898
  0
LINE
  8
0
 10
-232.348
 20
172.898
 11
-232.375
 21
172.375
  0
LINE
  8
0
 10
-232.375
 20
172.375
 11
-232.375
 21
-172.375
  0
LINE
  8
0
 10
-232.375
 20
-172.375
 11
-232.348
 21
-172.898
  0
LINE
  8
0
 10
-232.348
 20
-172.898
 11
-232.266
 21
-173.415
  0
LINE
  8
0
 10
-232.266
 20
-173.415
 11
-232.13
 21
-173.92
  0
LINE
  8
0
 10
-232.13
 20
-173.92
 11
-231.943
 21
-174.409
  0
LINE
  8
0
 10
-231.943
 20
-174.409
 11
-231.705
 21
-174.875
  0
LINE
  8
0
 10
-231.705
 20
-174.875
 11
-231.42
 21
-175.314
  0
LINE
  8
0
 10
-231.42
 20
-175.314
 11
-231.091
 21
-175.721
  0
LINE
  8
0
 10
-231.091
 20
-175.721
 11
-230.721
 21
-176.091
  0
LINE
  8
0
 10
-230.721
 20
-176.091
 11
-230.314
 21
-176.42
  0
LINE
  8
0
 10
-230.314
 20
-176.42
 11
-229.875
 21
-176.705
  0
LINE
  8
0
 10
-229.875
 20
-176.705
 11
-229.409
 21
-176.943
  0
LINE
  8
0
 10
-229.409
 20
-176.943
 11
-228.92
 21
-177.13
  0
LINE
  8
0
 10
-228.92
 20
-177.13
 11
-228.415
 21
-177.266
  0
LINE
  8
0
 10
-228.415
 20
-177.266
 11
-227.898
 21
-177.348
  0
LINE
  8
0
 10
-227.898
 20
-177.348
 11
-227.375
 21
-177.375
  0
LINE
  8
0
 10
-227.375
 20
-177.375
 11
227.375
 21
-177.375
  0
LINE
  8
0
 10
227.375
 20
-177.375
 11
227.898
 21
-177.348
  0
LINE
  8
0
 10
221.977
 20
162.527
 11
221.46
 21
162.609
  0
LINE
  8
0
 10
221.46
 20
162.609
 11
220.955
 21
162.745
  0
LINE
  8
0
 10
220.955
 20
162.745
 11
220.466
 21
162.932
  0
LINE
  8
0
 10
220.466
 20
162.932
 11
220
 21
163.17
  0
LINE
  8
0
 10
220
 20
163.17
 11
219.561
 21
163.455
  0
LINE
  8
0
 10
219.561
 20
163.455
 11
219.154
 21
163.784
  0
LINE
  8
0
 10
219.154
 20
163.784
 11
218.784
 21
164.154
  0
LINE
  8
0
 10
218.784
 20
164.154
 11
218.455
 21
164.561
  0
LINE
  8
0
 10
218.455
 20
164.561
 11
218.17
 21
165
  0
LINE
  8
0
 10
218.17
 20
165
 11
217.932
 21
165.466
  0
LINE
  8
0
 10
217.932
 20
165.466
 11
217.745
 21
165.955
  0
LINE
  8
0
 10
217.745
 20
165.955
 11
217.609
 21
166.46
  0
LINE
  8
0
 10
217.609
 20
166.46
 11
217.527
 21
166.977
  0
LINE
  8
0
 10
217.527
 20
166.977
 11
217.5
 21
167.5
  0
LINE
  8
0
 10
217.5
 20
167.5
 11
217.527
 21
168.023
  0
LINE
  8
0
 10
217.527
 20
168.023
 11
217.609
 21
168.54
  0
LINE
  8
0
 10
217.609
 20
168.54
 11
217.745
 21
169.045
  0
LINE
  8
0
 10
217.745
 20
169.045
 11
217.932
 21
169.534
  0
LINE
  8
0
 10
217.932
 20
169.534
 11
218.17
 21
170
  0
LINE
  8
0
 10
218.17
 20
170
 11
218.455
 21
170.439
  0
LINE
  8
0
 10
218.455
 20
170.439
 11
218.784
 21
170.846
  0
LINE
  8
0
 10
218.784
 20
170.846
 11
219.154
 21
171.216
  0
LINE
  8
0
 10
219.154
 20
171.216
 11
219.561
 21
171.545
  0
LINE
  8
0
 10
219.561
 20
171.545
 11
220
 21
171.83
  0
LINE
  8
0
 10
220
 20
171.83
 11
220.466
 21
172.068
  0
LINE
  8
0
 10
220.466
 20
172.068
 11
220.955
 21
172.255
  0
LINE
  8
0
 10
220.955
 20
172.255
 11
221.46
 21
172.391
  0
LINE
  8
0
 10
221.46
 20
172.391
 11
221.977
 21
172.473
  0
LINE
  8
0
 10
221.977
 20
172.473
 11
222.5
 21
172.5
  0
LINE
  8
0
 10
222.5
 20
172.5
 11
223.023
 21
172.473
  0
LINE
  8
0
 10
223.023
 20
172.473
 11
223.54
 21
172.391
  0
LINE
  8
0
 10
223.54
 20
172.391
 11
224.045
 21
172.255
  0
LINE
  8
0
 10
224.045
 20
172.255
 11
224.534
 21
172.068
  0
LINE
  8
0
 10
224.534
 20
172.068
 11
225
 21
171.83
  0
LINE
  8
0
 10
225
 20
171.83
 11
225.439
 21
171.545
  0
LINE
  8
0
 10
225.439
 20
171.545
 11
225.846
 21
171.216
  0
LINE
  8
0
 10
225.846
 20
171.216
 11
226.216
 21
170.846
  0
LINE
  8
0
 10
226.216
 20
170.846
 11
226.545
 21
170.439
  0
LINE
  8
0
 10
226.545
 20
170.439
 11
226.83
 21
170
  0
LINE
  8
0
 10
226.83
 20
170
 11
227.068
 21
169.534
  0
LINE
  8
0
 10
227.068
 20
169.534
 11
227.255
 21
169.045
  0
LINE
  8
0
 10
227.255
 20
169.045
 11
227.391
 21
168.54
  0
LINE
  8
0
 10
227.391
 20
168.54
 11
227.473
 21
168.023
  0
LINE
  8
0
 10
227.473
 20
168.023
 11
227.5
 21
167.5
  0
LINE
  8
0
 10
227.5
 20
167.5
 11
227.473
 21
166.977
  0
LINE
  8
0
 10
227.473
 20
166.977
 11
227.391
 21
166.46
  0
LINE
  8
0
 10
227.391
 20
166.46
 11
227.255
 21
165.955
  0
LINE
  8
0
 10
227.255
 20
165.955
 11
227.068
 21
165.466
  0
LINE
  8
0
 10
227.068
 20
165.466
 11
226.83
 21
165
  0
LINE
  8
0
 10
226.83
 20
165
 11
226.545
 21
164.561
  0
LINE
  8
0
 10
226.545
 20
164.561
 11
226.216
 21
164.154
  0
LINE
  8
0
 10
226.216
 20
164.154
 11
225.846
 21
163.784
  0
LINE
  8
0
 10
225.846
 20
163.784
 11
225.439
 21
163.455
  0
LINE
  8
0
 10
225.439
 20
163.455
 11
225
 21
163.17
  0
LINE
  8
0
 10
225
 20
163.17
 11
224.534
 21
162.932
  0
LINE
  8
0
 10
224.534
 20
162.932
 11
224.045
 21
162.745
  0
LINE
  8
0
 10
224.045
 20
162.745
 11
223.54
 21
162.609
  0
LINE
  8
0
 10
223.54
 20
162.609
 11
223.023
 21
162.527
  0
LINE
  8
0
 10
223.023
 20
162.527
 11
222.5
 21
162.5
  0
LINE
  8
0
 10
222.5
 20
162.5
 11
221.977
 21
162.527
  0
LINE
  8
0
 10
-223.023
 20
162.527
 11
-223.54
 21
162.609
  0
LINE
  8
0
 10
-223.54
 20
162.609
 11
-224.045
 21
162.745
  0
LINE
  8
0
 10
-224.045
 20
162.745
 11
-224.534
 21
162.932
  0
LINE
  8
0
 10
-224.534
 20
162.932
 11
-225
 21
163.17
  0
LINE
  8
0
 10
-225
 20
163.17
 11
-225.439
 21
163.455
  0
LINE
  8
0
 10
-225.439
 20
163.455
 11
-225.846
 21
163.784
  0
LINE
  8
0
 10
-225.846
 20
163.784
 11
-226.216
 21
164.154
  0
LINE
  8
0
 10
-226.216
 20
164.154
 11
-226.545
 21
164.561
  0
LINE
  8
0
 10
-226.545
 20
164.561
 11
-226.83
 21
165
  0
LINE
  8
0
 10
-226.83
 20
165
 11
-227.068
 21
165.466
  0
LINE
  8
0
 10
-227.068
 20
165.466
 11
-227.255
 21
165.955
  0
LINE
  8
0
 10
-227.255
 20
165.955
 11
-227.391
 21
166.46
  0
LINE
  8
0
 10
-227.391
 20
166.46
 11
-227.473
 21
166.977
  0
LINE
  8
0
 10
-227.473
 20
166.977
 11
-227.5
 21
167.5
  0
LINE
  8
0
 10
-227.5
 20
167.5
 11
-227.473
 21
168.023
  0
LINE
  8
0
 10
-227.473
 20
168.023
 11
-227.391
 21
168.54
  0
LINE
  8
0
 10
-227.391
 20
168.54
 11
-227.255
 21
169.045
  0
LINE
  8
0
 10
-227.255
 20
169.045
 11
-227.068
 21
169.534
  0
LINE
  8
0
 10
-227.068
 20
169.534
 11
-226.83
 21
170
  0
LINE
  8
0
 10
-226.83
 20
170
 11
-226.545
 21
170.439
  0
LINE
  8
0
 10
-226.545
 20
170.439
 11
-226.216
 21
170.846
  0
LINE
  8
0
 10
-226.216
 20
170.846
 11
-225.846
 21
171.216
  0
LINE
  8
0
 10
-225.846
 20
171.216
 11
-225.439
 21
171.545
  0
LINE
  8
0
 10
-225.439
 20
171.545
 11
-225
 21
171.83
  0
LINE
  8
0
 10
-225
 20
171.83
 11
-224.534
 21
172.068
  0
LINE
  8
0
 10
-224.534
 20
172.068
 11
-224.045
 21
172.255
  0
LINE
  8
0
 10
-224.045
 20
172.255
 11
-223.54
 21
172.391
  0
LINE
  8
0
 10
-223.54
 20
172.391
 11
-223.023
 21
172.473
  0
LINE
  8
0
 10
-223.023
 20
172.473
 11
-222.5
 21
172.5
  0
LINE
  8
0
 10
-222.5
 20
172.5
 11
-221.977
 21
172.473
  0
LINE
  8
0
 10
-221.977
 20
172.473
 11
-221.46
 21
172.391
  0
LINE
  8
0
 10
-221.46
 20
172.391
 11
-220.955
 21
172.255
  0
LINE
  8
0
 10
-220.955
 20
172.255
 11
-220.466
 21
172.068
  0
LINE
  8
0
 10
-220.466
 20
172.068
 11
-220
 21
171.83
  0
LINE
  8
0
 10
-220
 20
171.83
 11
-219.561
 21
171.545
  0
LINE
  8
0
 10
-219.561
 20
171.545
 11
-219.154
 21
171.216
  0
LINE
  8
0
 10
-219.154
 20
171.216
 11
-218.784
 21
170.846
  0
LINE
  8
0
 10
-218.784
 20
170.846
 11
-218.455
 21
170.439
  0
LINE
  8
0
 10
-218.455
 20
170.439
 11
-218.17
 21
170
  0
LINE
  8
0
 10
-218.17
 20
170
 11
-217.932
 21
169.534
  0
LINE
  8
0
 10
-217.932
 20
169.534
 11
-217.745
 21
169.045
  0
LINE
  8
0
 10
-217.745
 20
169.045
 11
-217.609
 21
168.54
  0
LINE
  8
0
 10
-217.609
 20
168.54
 11
-217.527
 21
168.023
  0
LINE
  8
0
 10
-217.527
 20
168.023
 11
-217.5
 21
167.5
  0
LINE
  8
0
 10
-217.5
 20
167.5
 11
-217.527
 21
166.977
  0
LINE
  8
0
 10
-217.527
 20
166.977
 11
-217.609
 21
166.46
  0
LINE
  8
0
 10
-217.609
 20
166.46
 11
-217.745
 21
165.955
  0
LINE
  8
0
 10
-217.745
 20
165.955
 11
-217.932
 21
165.466
  0
LINE
  8
0
 10
-217.932
 20
165.466
 11
-218.17
 21
165
  0
LINE
  8
0
 10
-218.17
 20
165
 11
-218.455
 21
164.561
  0
LINE
  8
0
 10
-218.455
 20
164.561
 11
-218.784
 21
164.154
  0
LINE
  8
0
 10
-218.784
 20
164.154
 11
-219.154
 21
163.784
  0
LINE
  8
0
 10
-219.154
 20
163.784
 11
-219.561
 21
163.455
  0
LINE
  8
0
 10
-219.561
 20
163.455
 11
-220
 21
163.17
  0
LINE
  8
0
 10
-220
 20
163.17
 11
-220.466
 21
162.932
  0
LINE
  8
0
 10
-220.466
 20
162.932
 11
-220.955
 21
162.745
  0
LINE
  8
0
 10
-220.955
 20
162.745
 11
-221.46
 21
162.609
  0
LINE
  8
0
 10
-221.46
 20
162.609
 11
-221.977
 21
162.527
  0
LINE
  8
0
 10
-221.977
 20
162.527
 11
-222.5
 21
162.5
  0
LINE
  8
0
 10
-222.5
 20
162.5
 11
-223.023
 21
162.527
  0
LINE
  8
0
 10
-91.4358
 20
165.258
 11
-91.6814
 21
165.292
  0
LINE
  8
0
 10
-91.6814
 20
165.292
 11
-91.9217
 21
165.353
  0
LINE
  8
0
 10
-91.9217
 20
165.353
 11
-92.1538
 21
165.44
  0
LINE
  8
0
 10
-92.1538
 20
165.44
 11
-92.375
 21
165.551
  0
LINE
  8
0
 10
-92.375
 20
165.551
 11
-92.5825
 21
165.687
  0
LINE
  8
0
 10
-92.5825
 20
165.687
 11
-92.7739
 21
165.845
  0
LINE
  8
0
 10
-92.7739
 20
165.845
 11
-92.9467
 21
166.022
  0
LINE
  8
0
 10
-92.9467
 20
166.022
 11
-93.099
 21
166.218
  0
LINE
  8
0
 10
-93.099
 20
166.218
 11
-93.2288
 21
166.429
  0
LINE
  8
0
 10
-93.2288
 20
166.429
 11
-93.3346
 21
166.653
  0
LINE
  8
0
 10
-93.3346
 20
166.653
 11
-93.4151
 21
166.888
  0
LINE
  8
0
 10
-93.4151
 20
166.888
 11
-93.4693
 21
167.13
  0
LINE
  8
0
 10
-93.4693
 20
167.13
 11
-93.4966
 21
167.376
  0
LINE
  8
0
 10
-93.4966
 20
167.376
 11
-93.4966
 21
167.624
  0
LINE
  8
0
 10
-93.4966
 20
167.624
 11
-93.4693
 21
167.87
  0
LINE
  8
0
 10
-93.4693
 20
167.87
 11
-93.4151
 21
168.112
  0
LINE
  8
0
 10
-93.4151
 20
168.112
 11
-93.3346
 21
168.347
  0
LINE
  8
0
 10
-93.3346
 20
168.347
 11
-93.2288
 21
168.571
  0
LINE
  8
0
 10
-93.2288
 20
168.571
 11
-93.099
 21
168.782
  0
LINE
  8
0
 10
-93.099
 20
168.782
 11
-92.9467
 21
168.978
  0
LINE
  8
0
 10
-92.9467
 20
168.978
 11
-92.7739
 21
169.155
  0
LINE
  8
0
 10
-92.7739
 20
169.155
 11
-92.5825
 21
169.313
  0
LINE
  8
0
 10
-92.5825
 20
169.313
 11
-92.375
 21
169.449
  0
LINE
  8
0
 10
-92.375
 20
169.449
 11
-92.1538
 21
169.56
  0
LINE
  8
0
 10
-92.1538
 20
169.56
 11
-91.9217
 21
169.647
  0
LINE
  8
0
 10
-91.9217
 20
169.647
 11
-91.6814
 21
169.708
  0
LINE
  8
0
 10
-91.6814
 20
169.708
 11
-91.4358
 21
169.742
  0
LINE
  8
0
 10
-91.4358
 20
169.742
 11
-91.188
 21
169.749
  0
LINE
  8
0
 10
-91.188
 20
169.749
 11
-90.9409
 21
169.729
  0
LINE
  8
0
 10
-90.9409
 20
169.729
 11
-90.6976
 21
169.681
  0
LINE
  8
0
 10
-90.6976
 20
169.681
 11
-90.4611
 21
169.607
  0
LINE
  8
0
 10
-90.4611
 20
169.607
 11
-90.234
 21
169.508
  0
LINE
  8
0
 10
-90.234
 20
169.508
 11
-90.0194
 21
169.384
  0
LINE
  8
0
 10
-90.0194
 20
169.384
 11
-89.8196
 21
169.237
  0
LINE
  8
0
 10
-89.8196
 20
169.237
 11
-89.6372
 21
169.069
  0
LINE
  8
0
 10
-89.6372
 20
169.069
 11
-89.4744
 21
168.882
  0
LINE
  8
0
 10
-89.4744
 20
168.882
 11
-89.3332
 21
168.678
  0
LINE
  8
0
 10
-89.3332
 20
168.678
 11
-89.2152
 21
168.46
  0
LINE
  8
0
 10
-89.2152
 20
168.46
 11
-89.1219
 21
168.231
  0
LINE
  8
0
 10
-89.1219
 20
168.231
 11
-89.0545
 21
167.992
  0
LINE
  8
0
 10
-89.0545
 20
167.992
 11
-89.0137
 21
167.748
  0
LINE
  8
0
 10
-89.0137
 20
167.748
 11
-89
 21
167.5
  0
LINE
  8
0
 10
-89
 20
167.5
 11
-89.0137
 21
167.252
  0
LINE
  8
0
 10
-89.0137
 20
167.252
 11
-89.0545
 21
167.008
  0
LINE
  8
0
 10
-89.0545
 20
167.008
 11
-89.1219
 21
166.769
  0
LINE
  8
0
 10
-89.1219
 20
166.769
 11
-89.2152
 21
166.54
  0
LINE
  8
0
 10
-89.2152
 20
166.54
 11
-89.3332
 21
166.322
  0
LINE
  8
0
 10
-89.3332
 20
166.322
 11
-89.4744
 21
166.118
  0
LINE
  8
0
 10
-89.4744
 20
166.118
 11
-89.6372
 21
165.931
  0
LINE
  8
0
 10
-89.6372
 20
165.931
 11
-89.8196
 21
165.763
  0
LINE
  8
0
 10
-89.8196
 20
165.763
 11
-90.0194
 21
165.616
  0
LINE
  8
0
 10
-90.0194
 20
165.616
 11
-90.234
 21
165.492
  0
LINE
  8
0
 10
-90.234
 20
165.492
 11
-90.4611
 21
165.393
  0
LINE
  8
0
 10
-90.4611
 20
165.393
 11
-90.6976
 21
165.319
  0
LINE
  8
0
 10
-90.6976
 20
165.319
 11
-90.9409
 21
165.271
  0
LINE
  8
0
 10
-90.9409
 20
165.271
 11
-91.188
 21
165.251
  0
LINE
  8
0
 10
-91.188
 20
165.251
 11
-91.4358
 21
165.258
  0
LINE
  8
0
 10
91.0642
 20
165.258
 11
90.8186
 21
165.292
  0
LINE
  8
0
 10
90.8186
 20
165.292
 11
90.5783
 21
165.353
  0
LINE
  8
0
 10
90.5783
 20
165.353
 11
90.3462
 21
165.44
  0
LINE
  8
0
 10
90.3462
 20
165.44
 11
90.125
 21
165.551
  0
LINE
  8
0
 10
90.125
 20
165.551
 11
89.9175
 21
165.687
  0
LINE
  8
0
 10
89.9175
 20
165.687
 11
89.7261
 21
165.845
  0
LINE
  8
0
 10
89.7261
 20
165.845
 11
89.5533
 21
166.022
  0
LINE
  8
0
 10
89.5533
 20
166.022
 11
89.401
 21
166.218
  0
LINE
  8
0
 10
89.401
 20
166.218
 11
89.2712
 21
166.429
  0
LINE
  8
0
 10
89.2712
 20
166.429
 11
89.1654
 21
166.653
  0
LINE
  8
0
 10
89.1654
 20
166.653
 11
89.0849
 21
166.888
  0
LINE
  8
0
 10
89.0849
 20
166.888
 11
89.0307
 21
167.13
  0
LINE
  8
0
 10
89.0307
 20
167.13
 11
89.0034
 21
167.376
  0
LINE
  8
0
 10
89.0034
 20
167.376
 11
89.0034
 21
167.624
  0
LINE
  8
0
 10
89.0034
 20
167.624
 11
89.0307
 21
167.87
  0
LINE
  8
0
 10
89.0307
 20
167.87
 11
89.0849
 21
168.112
  0
LINE
  8
0
 10
89.0849
 20
168.112
 11
89.1654
 21
168.347
  0
LINE
  8
0
 10
89.1654
 20
168.347
 11
89.2712
 21
168.571
  0
LINE
  8
0
 10
89.2712
 20
168.571
 11
89.401
 21
168.782
  0
LINE
  8
0
 10
89.401
 20
168.782
 11
89.5533
 21
168.978
  0
LINE
  8
0
 10
89.5533
 20
168.978
 11
89.7261
 21
169.155
  0
LINE
  8
0
 10
89.7261
 20
169.155
 11
89.9175
 21
169.313
  0
LINE
  8
0
 10
89.9175
 20
169.313
 11
90.125
 21
169.449
  0
LINE
  8
0
 10
90.125
 20
169.449
 11
90.3462
 21
169.56
  0
LINE
  8
0
 10
90.3462
 20
169.56
 11
90.5783
 21
169.647
  0
LINE
  8
0
 10
90.5783
 20
169.647
 11
90.8186
 21
169.708
  0
LINE
  8
0
 10
90.8186
 20
169.708
 11
91.0642
 21
169.742
  0
LINE
  8
0
 10
91.0642
 20
169.742
 11
91.312
 21
169.749
  0
LINE
  8
0
 10
91.312
 20
169.749
 11
91.559
 21
169.729
  0
LINE
  8
0
 10
91.559
 20
169.729
 11
91.8023
 21
169.681
  0
LINE
  8
0
 10
91.8023
 20
169.681
 11
92.0389
 21
169.607
  0
LINE
  8
0
 10
92.0389
 20
169.607
 11
92.2659
 21
169.508
  0
LINE
  8
0
 10
92.2659
 20
169.508
 11
92.4806
 21
169.384
  0
LINE
  8
0
 10
92.4806
 20
169.384
 11
92.6804
 21
169.237
  0
LINE
  8
0
 10
92.6804
 20
169.237
 11
92.8628
 21
169.069
  0
LINE
  8
0
 10
92.8628
 20
169.069
 11
93.0256
 21
168.882
  0
LINE
  8
0
 10
93.0256
 20
168.882
 11
93.1668
 21
168.678
  0
LINE
  8
0
 10
93.1668
 20
168.678
 11
93.2848
 21
168.46
  0
LINE
  8
0
 10
93.2848
 20
168.46
 11
93.3781
 21
168.231
  0
LINE
  8
0
 10
93.3781
 20
168.231
 11
93.4455
 21
167.992
  0
LINE
  8
0
 10
93.4455
 20
167.992
 11
93.4863
 21
167.748
  0
LINE
  8
0
 10
93.4863
 20
167.748
 11
93.5
 21
167.5
  0
LINE
  8
0
 10
93.5
 20
167.5
 11
93.4863
 21
167.252
  0
LINE
  8
0
 10
93.4863
 20
167.252
 11
93.4455
 21
167.008
  0
LINE
  8
0
 10
93.4455
 20
167.008
 11
93.3781
 21
166.769
  0
LINE
  8
0
 10
93.3781
 20
166.769
 11
93.2848
 21
166.54
  0
LINE
  8
0
 10
93.2848
 20
166.54
 11
93.1668
 21
166.322
  0
LINE
  8
0
 10
93.1668
 20
166.322
 11
93.0256
 21
166.118
  0
LINE
  8
0
 10
93.0256
 20
166.118
 11
92.8628
 21
165.931
  0
LINE
  8
0
 10
92.8628
 20
165.931
 11
92.6804
 21
165.763
  0
LINE
  8
0
 10
92.6804
 20
165.763
 11
92.4806
 21
165.616
  0
LINE
  8
0
 10
92.4806
 20
165.616
 11
92.2659
 21
165.492
  0
LINE
  8
0
 10
92.2659
 20
165.492
 11
92.0389
 21
165.393
  0
LINE
  8
0
 10
92.0389
 20
165.393
 11
91.8023
 21
165.319
  0
LINE
  8
0
 10
91.8023
 20
165.319
 11
91.559
 21
165.271
  0
LINE
  8
0
 10
91.559
 20
165.271
 11
91.312
 21
165.251
  0
LINE
  8
0
 10
91.312
 20
165.251
 11
91.0642
 21
165.258
  0
LINE
  8
0
 10
182.314
 20
165.258
 11
182.069
 21
165.292
  0
LINE
  8
0
 10
182.069
 20
165.292
 11
181.828
 21
165.353
  0
LINE
  8
0
 10
181.828
 20
165.353
 11
181.596
 21
165.44
  0
LINE
  8
0
 10
181.596
 20
165.44
 11
181.375
 21
165.551
  0
LINE
  8
0
 10
181.375
 20
165.551
 11
181.167
 21
165.687
  0
LINE
  8
0
 10
181.167
 20
165.687
 11
180.976
 21
165.845
  0
LINE
  8
0
 10
180.976
 20
165.845
 11
180.803
 21
166.022
  0
LINE
  8
0
 10
180.803
 20
166.022
 11
180.651
 21
166.218
  0
LINE
  8
0
 10
180.651
 20
166.218
 11
180.521
 21
166.429
  0
LINE
  8
0
 10
180.521
 20
166.429
 11
180.415
 21
166.653
  0
LINE
  8
0
 10
180.415
 20
166.653
 11
180.335
 21
166.888
  0
LINE
  8
0
 10
180.335
 20
166.888
 11
180.281
 21
167.13
  0
LINE
  8
0
 10
180.281
 20
167.13
 11
180.253
 21
167.376
  0
LINE
  8
0
 10
180.253
 20
167.376
 11
180.253
 21
167.624
  0
LINE
  8
0
 10
180.253
 20
167.624
 11
180.281
 21
167.87
  0
LINE
  8
0
 10
180.281
 20
167.87
 11
180.335
 21
168.112
  0
LINE
  8
0
 10
180.335
 20
168.112
 11
180.415
 21
168.347
  0
LINE
  8
0
 10
180.415
 20
168.347
 11
180.521
 21
168.571
  0
LINE
  8
0
 10
180.521
 20
168.571
 11
180.651
 21
168.782
  0
LINE
  8
0
 10
180.651
 20
168.782
 11
180.803
 21
168.978
  0
LINE
  8
0
 10
180.803
 20
168.978
 11
180.976
 21
169.155
  0
LINE
  8
0
 10
180.976
 20
169.155
 11
181.167
 21
169.313
  0
LINE
  8
0
 10
181.167
 20
169.313
 11
181.375
 21
169.449
  0
LINE
  8
0
 10
181.375
 20
169.449
 11
181.596
 21
169.56
  0
LINE
  8
0
 10
181.596
 20
169.56
 11
181.828
 21
169.647
  0
LINE
  8
0
 10
181.828
 20
169.647
 11
182.069
 21
169.708
  0
LINE
  8
0
 10
182.069
 20
169.708
 11
182.314
 21
169.742
  0
LINE
  8
0
 10
182.314
 20
169.742
 11
182.562
 21
169.749
  0
LINE
  8
0
 10
182.562
 20
169.749
 11
182.809
 21
169.729
  0
LINE
  8
0
 10
182.809
 20
169.729
 11
183.052
 21
169.681
  0
LINE
  8
0
 10
183.052
 20
169.681
 11
183.289
 21
169.607
  0
LINE
  8
0
 10
183.289
 20
169.607
 11
183.516
 21
169.508
  0
LINE
  8
0
 10
183.516
 20
169.508
 11
183.731
 21
169.384
  0
LINE
  8
0
 10
183.731
 20
169.384
 11
183.93
 21
169.237
  0
LINE
  8
0
 10
183.93
 20
169.237
 11
184.113
 21
169.069
  0
LINE
  8
0
 10
184.113
 20
169.069
 11
184.276
 21
168.882
  0
LINE
  8
0
 10
184.276
 20
168.882
 11
184.417
 21
168.678
  0
LINE
  8
0
 10
184.417
 20
168.678
 11
184.535
 21
168.46
  0
LINE
  8
0
 10
184.535
 20
168.46
 11
184.628
 21
168.231
  0
LINE
  8
0
 10
184.628
 20
168.231
 11
184.696
 21
167.992
  0
LINE
  8
0
 10
184.696
 20
167.992
 11
184.736
 21
167.748
  0
LINE
  8
0
 10
184.736
 20
167.748
 11
184.75
 21
167.5
  0
LINE
  8
0
 10
184.75
 20
167.5
 11
184.736
 21
167.252
  0
LINE
  8
0
 10
184.736
 20
167.252
 11
184.696
 21
167.008
  0
LINE
  8
0
 10
184.696
 20
167.008
 11
184.628
 21
166.769
  0
LINE
  8
0
 10
184.628
 20
166.769
 11
184.535
 21
166.54
  0
LINE
  8
0
 10
184.535
 20
166.54
 11
184.417
 21
166.322
  0
LINE
  8
0
 10
184.417
 20
166.322
 11
184.276
 21
166.118
  0
LINE
  8
0
 10
184.276
 20
166.118
 11
184.113
 21
165.931
  0
LINE
  8
0
 10
184.113
 20
165.931
 11
183.93
 21
165.763
  0
LINE
  8
0
 10
183.93
 20
165.763
 11
183.731
 21
165.616
  0
LINE
  8
0
 10
183.731
 20
165.616
 11
183.516
 21
165.492
  0
LINE
  8
0
 10
183.516
 20
165.492
 11
183.289
 21
165.393
  0
LINE
  8
0
 10
183.289
 20
165.393
 11
183.052
 21
165.319
  0
LINE
  8
0
 10
183.052
 20
165.319
 11
182.809
 21
165.271
  0
LINE
  8
0
 10
182.809
 20
165.271
 11
182.562
 21
165.251
  0
LINE
  8
0
 10
182.562
 20
165.251
 11
182.314
 21
165.258
  0
LINE
  8
0
 10
-182.686
 20
165.258
 11
-182.931
 21
165.292
  0
LINE
  8
0
 10
-182.931
 20
165.292
 11
-183.172
 21
165.353
  0
LINE
  8
0
 10
-183.172
 20
165.353
 11
-183.404
 21
165.44
  0
LINE
  8
0
 10
-183.404
 20
165.44
 11
-183.625
 21
165.551
  0
LINE
  8
0
 10
-183.625
 20
165.551
 11
-183.833
 21
165.687
  0
LINE
  8
0
 10
-183.833
 20
165.687
 11
-184.024
 21
165.845
  0
LINE
  8
0
 10
-184.024
 20
165.845
 11
-184.197
 21
166.022
  0
LINE
  8
0
 10
-184.197
 20
166.022
 11
-184.349
 21
166.218
  0
LINE
  8
0
 10
-184.349
 20
166.218
 11
-184.479
 21
166.429
  0
LINE
  8
0
 10
-184.479
 20
166.429
 11
-184.585
 21
166.653
  0
LINE
  8
0
 10
-184.585
 20
166.653
 11
-184.665
 21
166.888
  0
LINE
  8
0
 10
-184.665
 20
166.888
 11
-184.719
 21
167.13
  0
LINE
  8
0
 10
-184.719
 20
167.13
 11
-184.747
 21
167.376
  0
LINE
  8
0
 10
-184.747
 20
167.376
 11
-184.747
 21
167.624
  0
LINE
  8
0
 10
-184.747
 20
167.624
 11
-184.719
 21
167.87
  0
LINE
  8
0
 10
-184.719
 20
167.87
 11
-184.665
 21
168.112
  0
LINE
  8
0
 10
-184.665
 20
168.112
 11
-184.585
 21
168.347
  0
LINE
  8
0
 10
-184.585
 20
168.347
 11
-184.479
 21
168.571
  0
LINE
  8
0
 10
-184.479
 20
168.571
 11
-184.349
 21
168.782
  0
LINE
  8
0
 10
-184.349
 20
168.782
 11
-184.197
 21
168.978
  0
LINE
  8
0
 10
-184.197
 20
168.978
 11
-184.024
 21
169.155
  0
LINE
  8
0
 10
-184.024
 20
169.155
 11
-183.833
 21
169.313
  0
LINE
  8
0
 10
-183.833
 20
169.313
 11
-183.625
 21
169.449
  0
LINE
  8
0
 10
-183.625
 20
169.449
 11
-183.404
 21
169.56
  0
LINE
  8
0
 10
-183.404
 20
169.56
 11
-183.172
 21
169.647
  0
LINE
  8
0
 10
-183.172
 20
169.647
 11
-182.931
 21
169.708
  0
LINE
  8
0
 10
-182.931
 20
169.708
 11
-182.686
 21
169.742
  0
LINE
  8
0
 10
-182.686
 20
169.742
 11
-182.438
 21
169.749
  0
LINE
  8
0
 10
-182.438
 20
169.749
 11
-182.191
 21
169.729
  0
LINE
  8
0
 10
-182.191
 20
169.729
 11
-181.948
 21
169.681
  0
LINE
  8
0
 10
-181.948
 20
169.681
 11
-181.711
 21
169.607
  0
LINE
  8
0
 10
-181.711
 20
169.607
 11
-181.484
 21
169.508
  0
LINE
  8
0
 10
-181.484
 20
169.508
 11
-181.269
 21
169.384
  0
LINE
  8
0
 10
-181.269
 20
169.384
 11
-181.07
 21
169.237
  0
LINE
  8
0
 10
-181.07
 20
169.237
 11
-180.887
 21
169.069
  0
LINE
  8
0
 10
-180.887
 20
169.069
 11
-180.724
 21
168.882
  0
LINE
  8
0
 10
-180.724
 20
168.882
 11
-180.583
 21
168.678
  0
LINE
  8
0
 10
-180.583
 20
168.678
 11
-180.465
 21
168.46
  0
LINE
  8
0
 10
-180.465
 20
168.46
 11
-180.372
 21
168.231
  0
LINE
  8
0
 10
-180.372
 20
168.231
 11
-180.304
 21
167.992
  0
LINE
  8
0
 10
-180.304
 20
167.992
 11
-180.264
 21
167.748
  0
LINE
  8
0
 10
-180.264
 20
167.748
 11
-180.25
 21
167.5
  0
LINE
  8
0
 10
-180.25
 20
167.5
 11
-180.264
 21
167.252
  0
LINE
  8
0
 10
-180.264
 20
167.252
 11
-180.304
 21
167.008
  0
LINE
  8
0
 10
-180.304
 20
167.008
 11
-180.372
 21
166.769
  0
LINE
  8
0
 10
-180.372
 20
166.769
 11
-180.465
 21
166.54
  0
LINE
  8
0
 10
-180.465
 20
166.54
 11
-180.583
 21
166.322
  0
LINE
  8
0
 10
-180.583
 20
166.322
 11
-180.724
 21
166.118
  0
LINE
  8
0
 10
-180.724
 20
166.118
 11
-180.887
 21
165.931
  0
LINE
  8
0
 10
-180.887
 20
165.931
 11
-181.07
 21
165.763
  0
LINE
  8
0
 10
-181.07
 20
165.763
 11
-181.269
 21
165.616
  0
LINE
  8
0
 10
-181.269
 20
165.616
 11
-181.484
 21
165.492
  0
LINE
  8
0
 10
-181.484
 20
165.492
 11
-181.711
 21
165.393
  0
LINE
  8
0
 10
-181.711
 20
165.393
 11
-181.948
 21
165.319
  0
LINE
  8
0
 10
-181.948
 20
165.319
 11
-182.191
 21
165.271
  0
LINE
  8
0
 10
-182.191
 20
165.271
 11
-182.438
 21
165.251
  0
LINE
  8
0
 10
-182.438
 20
165.251
 11
-182.686
 21
165.258
  0
LINE
  8
0
 10
-0.185791
 20
165.258
 11
-0.431335
 21
165.292
  0
LINE
  8
0
 10
-0.431335
 20
165.292
 11
-0.671646
 21
165.353
  0
LINE
  8
0
 10
-0.671646
 20
165.353
 11
-0.903809
 21
165.44
  0
LINE
  8
0
 10
-0.903809
 20
165.44
 11
-1.125
 21
165.551
  0
LINE
  8
0
 10
-1.125
 20
165.551
 11
-1.33252
 21
165.687
  0
LINE
  8
0
 10
-1.33252
 20
165.687
 11
-1.52388
 21
165.845
  0
LINE
  8
0
 10
-1.52388
 20
165.845
 11
-1.69673
 21
166.022
  0
LINE
  8
0
 10
-1.69673
 20
166.022
 11
-1.849
 21
166.218
  0
LINE
  8
0
 10
-1.849
 20
166.218
 11
-1.97881
 21
166.429
  0
LINE
  8
0
 10
-1.97881
 20
166.429
 11
-2.08461
 21
166.653
  0
LINE
  8
0
 10
-2.08461
 20
166.653
 11
-2.1651
 21
166.888
  0
LINE
  8
0
 10
-2.1651
 20
166.888
 11
-2.2193
 21
167.13
  0
LINE
  8
0
 10
-2.2193
 20
167.13
 11
-2.24658
 21
167.376
  0
LINE
  8
0
 10
-2.24658
 20
167.376
 11
-2.24658
 21
167.624
  0
LINE
  8
0
 10
-2.24658
 20
167.624
 11
-2.2193
 21
167.87
  0
LINE
  8
0
 10
-2.2193
 20
167.87
 11
-2.1651
 21
168.112
  0
LINE
  8
0
 10
-2.1651
 20
168.112
 11
-2.08461
 21
168.347
  0
LINE
  8
0
 10
-2.08461
 20
168.347
 11
-1.97881
 21
168.571
  0
LINE
  8
0
 10
-1.97881
 20
168.571
 11
-1.849
 21
168.782
  0
LINE
  8
0
 10
-1.849
 20
168.782
 11
-1.69673
 21
168.978
  0
LINE
  8
0
 10
-1.69673
 20
168.978
 11
-1.52388
 21
169.155
  0
LINE
  8
0
 10
-1.52388
 20
169.155
 11
-1.33252
 21
169.313
  0
LINE
  8
0
 10
-1.33252
 20
169.313
 11
-1.125
 21
169.449
  0
LINE
  8
0
 10
-1.125
 20
169.449
 11
-0.903809
 21
169.56
  0
LINE
  8
0
 10
-0.903809
 20
169.56
 11
-0.671646
 21
169.647
  0
LINE
  8
0
 10
-0.671646
 20
169.647
 11
-0.431335
 21
169.708
  0
LINE
  8
0
 10
-0.431335
 20
169.708
 11
-0.185791
 21
169.742
  0
LINE
  8
0
 10
-0.185791
 20
169.742
 11
0.0619965
 21
169.749
  0
LINE
  8
0
 10
0.0619965
 20
169.749
 11
0.309036
 21
169.729
  0
LINE
  8
0
 10
0.309036
 20
169.729
 11
0.552338
 21
169.681
  0
LINE
  8
0
 10
0.552338
 20
169.681
 11
0.788925
 21
169.607
  0
LINE
  8
0
 10
0.788925
 20
169.607
 11
1.01595
 21
169.508
  0
LINE
  8
0
 10
1.01595
 20
169.508
 11
1.23062
 21
169.384
  0
LINE
  8
0
 10
1.23062
 20
169.384
 11
1.43037
 21
169.237
  0
LINE
  8
0
 10
1.43037
 20
169.237
 11
1.61275
 21
169.069
  0
LINE
  8
0
 10
1.61275
 20
169.069
 11
1.77556
 21
168.882
  0
LINE
  8
0
 10
1.77556
 20
168.882
 11
1.91681
 21
168.678
  0
LINE
  8
0
 10
1.91681
 20
168.678
 11
2.03479
 21
168.46
  0
LINE
  8
0
 10
2.03479
 20
168.46
 11
2.12808
 21
168.231
  0
LINE
  8
0
 10
2.12808
 20
168.231
 11
2.19554
 21
167.992
  0
LINE
  8
0
 10
2.19554
 20
167.992
 11
2.23634
 21
167.748
  0
LINE
  8
0
 10
2.23634
 20
167.748
 11
2.25
 21
167.5
  0
LINE
  8
0
 10
2.25
 20
167.5
 11
2.23634
 21
167.252
  0
LINE
  8
0
 10
2.23634
 20
167.252
 11
2.19554
 21
167.008
  0
LINE
  8
0
 10
2.19554
 20
167.008
 11
2.12808
 21
166.769
  0
LINE
  8
0
 10
2.12808
 20
166.769
 11
2.03479
 21
166.54
  0
LINE
  8
0
 10
2.03479
 20
166.54
 11
1.91681
 21
166.322
  0
LINE
  8
0
 10
1.91681
 20
166.322
 11
1.77556
 21
166.118
  0
LINE
  8
0
 10
1.77556
 20
166.118
 11
1.61275
 21
165.931
  0
LINE
  8
0
 10
1.61275
 20
165.931
 11
1.43037
 21
165.763
  0
LINE
  8
0
 10
1.43037
 20
165.763
 11
1.23062
 21
165.616
  0
LINE
  8
0
 10
1.23062
 20
165.616
 11
1.01595
 21
165.492
  0
LINE
  8
0
 10
1.01595
 20
165.492
 11
0.788925
 21
165.393
  0
LINE
  8
0
 10
0.788925
 20
165.393
 11
0.552338
 21
165.319
  0
LINE
  8
0
 10
0.552338
 20
165.319
 11
0.309036
 21
165.271
  0
LINE
  8
0
 10
0.309036
 20
165.271
 11
0.0619965
 21
165.251
  0
LINE
  8
0
 10
0.0619965
 20
165.251
 11
-0.185791
 21
165.258
  0
LINE
  8
0
 10
-222.809
 20
125.271
 11
-223.052
 21
125.319
  0
LINE
  8
0
 10
-223.052
 20
125.319
 11
-223.289
 21
125.393
  0
LINE
  8
0
 10
-223.289
 20
125.393
 11
-223.516
 21
125.492
  0
LINE
  8
0
 10
-223.516
 20
125.492
 11
-223.731
 21
125.616
  0
LINE
  8
0
 10
-223.731
 20
125.616
 11
-223.93
 21
125.763
  0
LINE
  8
0
 10
-223.93
 20
125.763
 11
-224.113
 21
125.931
  0
LINE
  8
0
 10
-224.113
 20
125.931
 11
-224.276
 21
126.118
  0
LINE
  8
0
 10
-224.276
 20
126.118
 11
-224.417
 21
126.322
  0
LINE
  8
0
 10
-224.417
 20
126.322
 11
-224.535
 21
126.54
  0
LINE
  8
0
 10
-224.535
 20
126.54
 11
-224.628
 21
126.769
  0
LINE
  8
0
 10
-224.628
 20
126.769
 11
-224.696
 21
127.008
  0
LINE
  8
0
 10
-224.696
 20
127.008
 11
-224.736
 21
127.252
  0
LINE
  8
0
 10
-224.736
 20
127.252
 11
-224.75
 21
127.5
  0
LINE
  8
0
 10
-224.75
 20
127.5
 11
-224.736
 21
127.748
  0
LINE
  8
0
 10
-224.736
 20
127.748
 11
-224.696
 21
127.992
  0
LINE
  8
0
 10
-224.696
 20
127.992
 11
-224.628
 21
128.231
  0
LINE
  8
0
 10
-224.628
 20
128.231
 11
-224.535
 21
128.46
  0
LINE
  8
0
 10
-224.535
 20
128.46
 11
-224.417
 21
128.678
  0
LINE
  8
0
 10
-224.417
 20
128.678
 11
-224.276
 21
128.882
  0
LINE
  8
0
 10
-224.276
 20
128.882
 11
-224.113
 21
129.069
  0
LINE
  8
0
 10
-224.113
 20
129.069
 11
-223.93
 21
129.237
  0
LINE
  8
0
 10
-223.93
 20
129.237
 11
-223.731
 21
129.384
  0
LINE
  8
0
 10
-223.731
 20
129.384
 11
-223.516
 21
129.508
  0
LINE
  8
0
 10
-223.516
 20
129.508
 11
-223.289
 21
129.607
  0
LINE
  8
0
 10
-223.289
 20
129.607
 11
-223.052
 21
129.681
  0
LINE
  8
0
 10
-223.052
 20
129.681
 11
-222.809
 21
129.729
  0
LINE
  8
0
 10
-222.809
 20
129.729
 11
-222.562
 21
129.749
  0
LINE
  8
0
 10
-222.562
 20
129.749
 11
-222.314
 21
129.742
  0
LINE
  8
0
 10
-222.314
 20
129.742
 11
-222.069
 21
129.708
  0
LINE
  8
0
 10
-222.069
 20
129.708
 11
-221.828
 21
129.647
  0
LINE
  8
0
 10
-221.828
 20
129.647
 11
-221.596
 21
129.56
  0
LINE
  8
0
 10
-221.596
 20
129.56
 11
-221.375
 21
129.449
  0
LINE
  8
0
 10
-221.375
 20
129.449
 11
-221.167
 21
129.313
  0
LINE
  8
0
 10
-221.167
 20
129.313
 11
-220.976
 21
129.155
  0
LINE
  8
0
 10
-220.976
 20
129.155
 11
-220.803
 21
128.978
  0
LINE
  8
0
 10
-220.803
 20
128.978
 11
-220.651
 21
128.782
  0
LINE
  8
0
 10
-220.651
 20
128.782
 11
-220.521
 21
128.571
  0
LINE
  8
0
 10
-220.521
 20
128.571
 11
-220.415
 21
128.347
  0
LINE
  8
0
 10
-220.415
 20
128.347
 11
-220.335
 21
128.112
  0
LINE
  8
0
 10
-220.335
 20
128.112
 11
-220.281
 21
127.87
  0
LINE
  8
0
 10
-220.281
 20
127.87
 11
-220.253
 21
127.624
  0
LINE
  8
0
 10
-220.253
 20
127.624
 11
-220.253
 21
127.376
  0
LINE
  8
0
 10
-220.253
 20
127.376
 11
-220.281
 21
127.13
  0
LINE
  8
0
 10
-220.281
 20
127.13
 11
-220.335
 21
126.888
  0
LINE
  8
0
 10
-220.335
 20
126.888
 11
-220.415
 21
126.653
  0
LINE
  8
0
 10
-220.415
 20
126.653
 11
-220.521
 21
126.429
  0
LINE
  8
0
 10
-220.521
 20
126.429
 11
-220.651
 21
126.218
  0
LINE
  8
0
 10
-220.651
 20
126.218
 11
-220.803
 21
126.022
  0
LINE
  8
0
 10
-220.803
 20
126.022
 11
-220.976
 21
125.845
  0
LINE
  8
0
 10
-220.976
 20
125.845
 11
-221.167
 21
125.687
  0
LINE
  8
0
 10
-221.167
 20
125.687
 11
-221.375
 21
125.551
  0
LINE
  8
0
 10
-221.375
 20
125.551
 11
-221.596
 21
125.439
  0
LINE
  8
0
 10
-221.596
 20
125.439
 11
-221.828
 21
125.353
  0
LINE
  8
0
 10
-221.828
 20
125.353
 11
-222.069
 21
125.292
  0
LINE
  8
0
 10
-222.069
 20
125.292
 11
-222.314
 21
125.258
  0
LINE
  8
0
 10
-222.314
 20
125.258
 11
-222.562
 21
125.251
  0
LINE
  8
0
 10
-222.562
 20
125.251
 11
-222.809
 21
125.271
  0
LINE
  8
0
 10
222.314
 20
125.258
 11
222.069
 21
125.292
  0
LINE
  8
0
 10
222.069
 20
125.292
 11
221.828
 21
125.353
  0
LINE
  8
0
 10
221.828
 20
125.353
 11
221.596
 21
125.439
  0
LINE
  8
0
 10
221.596
 20
125.439
 11
221.375
 21
125.551
  0
LINE
  8
0
 10
221.375
 20
125.551
 11
221.167
 21
125.687
  0
LINE
  8
0
 10
221.167
 20
125.687
 11
220.976
 21
125.845
  0
LINE
  8
0
 10
220.976
 20
125.845
 11
220.803
 21
126.022
  0
LINE
  8
0
 10
220.803
 20
126.022
 11
220.651
 21
126.218
  0
LINE
  8
0
 10
220.651
 20
126.218
 11
220.521
 21
126.429
  0
LINE
  8
0
 10
220.521
 20
126.429
 11
220.415
 21
126.653
  0
LINE
  8
0
 10
220.415
 20
126.653
 11
220.335
 21
126.888
  0
LINE
  8
0
 10
220.335
 20
126.888
 11
220.281
 21
127.13
  0
LINE
  8
0
 10
220.281
 20
127.13
 11
220.253
 21
127.376
  0
LINE
  8
0
 10
220.253
 20
127.376
 11
220.253
 21
127.624
  0
LINE
  8
0
 10
220.253
 20
127.624
 11
220.281
 21
127.87
  0
LINE
  8
0
 10
220.281
 20
127.87
 11
220.335
 21
128.112
  0
LINE
  8
0
 10
220.335
 20
128.112
 11
220.415
 21
128.347
  0
LINE
  8
0
 10
220.415
 20
128.347
 11
220.521
 21
128.571
  0
LINE
  8
0
 10
220.521
 20
128.571
 11
220.651
 21
128.782
  0
LINE
  8
0
 10
220.651
 20
128.782
 11
220.803
 21
128.978
  0
LINE
  8
0
 10
220.803
 20
128.978
 11
220.976
 21
129.155
  0
LINE
  8
0
 10
220.976
 20
129.155
 11
221.167
 21
129.313
  0
LINE
  8
0
 10
221.167
 20
129.313
 11
221.375
 21
129.449
  0
LINE
  8
0
 10
221.375
 20
129.449
 11
221.596
 21
129.56
  0
LINE
  8
0
 10
221.596
 20
129.56
 11
221.828
 21
129.647
  0
LINE
  8
0
 10
221.828
 20
129.647
 11
222.069
 21
129.708
  0
LINE
  8
0
 10
222.069
 20
129.708
 11
222.314
 21
129.742
  0
LINE
  8
0
 10
222.314
 20
129.742
 11
222.562
 21
129.749
  0
LINE
  8
0
 10
222.562
 20
129.749
 11
222.809
 21
129.729
  0
LINE
  8
0
 10
222.809
 20
129.729
 11
223.052
 21
129.681
  0
LINE
  8
0
 10
223.052
 20
129.681
 11
223.289
 21
129.607
  0
LINE
  8
0
 10
223.289
 20
129.607
 11
223.516
 21
129.508
  0
LINE
  8
0
 10
223.516
 20
129.508
 11
223.731
 21
129.384
  0
LINE
  8
0
 10
223.731
 20
129.384
 11
223.93
 21
129.237
  0
LINE
  8
0
 10
223.93
 20
129.237
 11
224.113
 21
129.069
  0
LINE
  8
0
 10
224.113
 20
129.069
 11
224.276
 21
128.882
  0
LINE
  8
0
 10
224.276
 20
128.882
 11
224.417
 21
128.678
  0
LINE
  8
0
 10
224.417
 20
128.678
 11
224.535
 21
128.46
  0
LINE
  8
0
 10
224.535
 20
128.46
 11
224.628
 21
128.231
  0
LINE
  8
0
 10
224.628
 20
128.231
 11
224.696
 21
127.992
  0
LINE
  8
0
 10
224.696
 20
127.992
 11
224.736
 21
127.748
  0
LINE
  8
0
 10
224.736
 20
127.748
 11
224.75
 21
127.5
  0
LINE
  8
0
 10
224.75
 20
127.5
 11
224.736
 21
127.252
  0
LINE
  8
0
 10
224.736
 20
127.252
 11
224.696
 21
127.008
  0
LINE
  8
0
 10
224.696
 20
127.008
 11
224.628
 21
126.769
  0
LINE
  8
0
 10
224.628
 20
126.769
 11
224.535
 21
126.54
  0
LINE
  8
0
 10
224.535
 20
126.54
 11
224.417
 21
126.322
  0
LINE
  8
0
 10
224.417
 20
126.322
 11
224.276
 21
126.118
  0
LINE
  8
0
 10
224.276
 20
126.118
 11
224.113
 21
125.931
  0
LINE
  8
0
 10
224.113
 20
125.931
 11
223.93
 21
125.763
  0
LINE
  8
0
 10
223.93
 20
125.763
 11
223.731
 21
125.616
  0
LINE
  8
0
 10
223.731
 20
125.616
 11
223.516
 21
125.492
  0
LINE
  8
0
 10
223.516
 20
125.492
 11
223.289
 21
125.393
  0
LINE
  8
0
 10
223.289
 20
125.393
 11
223.052
 21
125.319
  0
LINE
  8
0
 10
223.052
 20
125.319
 11
222.809
 21
125.271
  0
LINE
  8
0
 10
222.809
 20
125.271
 11
222.562
 21
125.251
  0
LINE
  8
0
 10
222.562
 20
125.251
 11
222.314
 21
125.258
  0
LINE
  8
0
 10
-222.809
 20
40.2713
 11
-223.052
 21
40.3188
  0
LINE
  8
0
 10
-223.052
 20
40.3188
 11
-223.289
 21
40.3928
  0
LINE
  8
0
 10
-223.289
 20
40.3928
 11
-223.516
 21
40.4924
  0
LINE
  8
0
 10
-223.516
 20
40.4924
 11
-223.731
 21
40.6164
  0
LINE
  8
0
 10
-223.731
 20
40.6164
 11
-223.93
 21
40.7632
  0
LINE
  8
0
 10
-223.93
 20
40.7632
 11
-224.113
 21
40.9311
  0
LINE
  8
0
 10
-224.113
 20
40.9311
 11
-224.276
 21
41.118
  0
LINE
  8
0
 10
-224.276
 20
41.118
 11
-224.417
 21
41.3217
  0
LINE
  8
0
 10
-224.417
 20
41.3217
 11
-224.535
 21
41.5397
  0
LINE
  8
0
 10
-224.535
 20
41.5397
 11
-224.628
 21
41.7694
  0
LINE
  8
0
 10
-224.628
 20
41.7694
 11
-224.696
 21
42.008
  0
LINE
  8
0
 10
-224.696
 20
42.008
 11
-224.736
 21
42.2525
  0
LINE
  8
0
 10
-224.736
 20
42.2525
 11
-224.75
 21
42.5
  0
LINE
  8
0
 10
-224.75
 20
42.5
 11
-224.736
 21
42.7475
  0
LINE
  8
0
 10
-224.736
 20
42.7475
 11
-224.696
 21
42.992
  0
LINE
  8
0
 10
-224.696
 20
42.992
 11
-224.628
 21
43.2306
  0
LINE
  8
0
 10
-224.628
 20
43.2306
 11
-224.535
 21
43.4602
  0
LINE
  8
0
 10
-224.535
 20
43.4602
 11
-224.417
 21
43.6783
  0
LINE
  8
0
 10
-224.417
 20
43.6783
 11
-224.276
 21
43.882
  0
LINE
  8
0
 10
-224.276
 20
43.882
 11
-224.113
 21
44.0689
  0
LINE
  8
0
 10
-224.113
 20
44.0689
 11
-223.93
 21
44.2368
  0
LINE
  8
0
 10
-223.93
 20
44.2368
 11
-223.731
 21
44.3836
  0
LINE
  8
0
 10
-223.731
 20
44.3836
 11
-223.516
 21
44.5076
  0
LINE
  8
0
 10
-223.516
 20
44.5076
 11
-223.289
 21
44.6071
  0
LINE
  8
0
 10
-223.289
 20
44.6071
 11
-223.052
 21
44.6812
  0
LINE
  8
0
 10
-223.052
 20
44.6812
 11
-222.809
 21
44.7287
  0
LINE
  8
0
 10
-222.809
 20
44.7287
 11
-222.562
 21
44.7491
  0
LINE
  8
0
 10
-222.562
 20
44.7491
 11
-222.314
 21
44.7423
  0
LINE
  8
0
 10
-222.314
 20
44.7423
 11
-222.069
 21
44.7083
  0
LINE
  8
0
 10
-222.069
 20
44.7083
 11
-221.828
 21
44.6474
  0
LINE
  8
0
 10
-221.828
 20
44.6474
 11
-221.596
 21
44.5605
  0
LINE
  8
0
 10
-221.596
 20
44.5605
 11
-221.375
 21
44.4485
  0
LINE
  8
0
 10
-221.375
 20
44.4485
 11
-221.167
 21
44.313
  0
LINE
  8
0
 10
-221.167
 20
44.313
 11
-220.976
 21
44.1554
  0
LINE
  8
0
 10
-220.976
 20
44.1554
 11
-220.803
 21
43.9777
  0
LINE
  8
0
 10
-220.803
 20
43.9777
 11
-220.651
 21
43.7821
  0
LINE
  8
0
 10
-220.651
 20
43.7821
 11
-220.521
 21
43.5709
  0
LINE
  8
0
 10
-220.521
 20
43.5709
 11
-220.415
 21
43.3467
  0
LINE
  8
0
 10
-220.415
 20
43.3467
 11
-220.335
 21
43.1122
  0
LINE
  8
0
 10
-220.335
 20
43.1122
 11
-220.281
 21
42.8703
  0
LINE
  8
0
 10
-220.281
 20
42.8703
 11
-220.253
 21
42.6239
  0
LINE
  8
0
 10
-220.253
 20
42.6239
 11
-220.253
 21
42.3761
  0
LINE
  8
0
 10
-220.253
 20
42.3761
 11
-220.281
 21
42.1297
  0
LINE
  8
0
 10
-220.281
 20
42.1297
 11
-220.335
 21
41.8878
  0
LINE
  8
0
 10
-220.335
 20
41.8878
 11
-220.415
 21
41.6533
  0
LINE
  8
0
 10
-220.415
 20
41.6533
 11
-220.521
 21
41.4291
  0
LINE
  8
0
 10
-220.521
 20
41.4291
 11
-220.651
 21
41.2179
  0
LINE
  8
0
 10
-220.651
 20
41.2179
 11
-220.803
 21
41.0223
  0
LINE
  8
0
 10
-220.803
 20
41.0223
 11
-220.976
 21
40.8446
  0
LINE
  8
0
 10
-220.976
 20
40.8446
 11
-221.167
 21
40.687
  0
LINE
  8
0
 10
-221.167
 20
40.687
 11
-221.375
 21
40.5514
  0
LINE
  8
0
 10
-221.375
 20
40.5514
 11
-221.596
 21
40.4395
  0
LINE
  8
0
 10
-221.596
 20
40.4395
 11
-221.828
 21
40.3526
  0
LINE
  8
0
 10
-221.828
 20
40.3526
 11
-222.069
 21
40.2917
  0
LINE
  8
0
 10
-222.069
 20
40.2917
 11
-222.314
 21
40.2577
  0
LINE
  8
0
 10
-222.314
 20
40.2577
 11
-222.562
 21
40.2509
  0
LINE
  8
0
 10
-222.562
 20
40.2509
 11
-222.809
 21
40.2713
  0
LINE
  8
0
 10
222.314
 20
40.2577
 11
222.069
 21
40.2917
  0
LINE
  8
0
 10
222.069
 20
40.2917
 11
221.828
 21
40.3526
  0
LINE
  8
0
 10
221.828
 20
40.3526
 11
221.596
 21
40.4395
  0
LINE
  8
0
 10
221.596
 20
40.4395
 11
221.375
 21
40.5514
  0
LINE
  8
0
 10
221.375
 20
40.5514
 11
221.167
 21
40.687
  0
LINE
  8
0
 10
221.167
 20
40.687
 11
220.976
 21
40.8446
  0
LINE
  8
0
 10
220.976
 20
40.8446
 11
220.803
 21
41.0223
  0
LINE
  8
0
 10
220.803
 20
41.0223
 11
220.651
 21
41.2179
  0
LINE
  8
0
 10
220.651
 20
41.2179
 11
220.521
 21
41.4291
  0
LINE
  8
0
 10
220.521
 20
41.4291
 11
220.415
 21
41.6533
  0
LINE
  8
0
 10
220.415
 20
41.6533
 11
220.335
 21
41.8878
  0
LINE
  8
0
 10
220.335
 20
41.8878
 11
220.281
 21
42.1297
  0
LINE
  8
0
 10
220.281
 20
42.1297
 11
220.253
 21
42.3761
  0
LINE
  8
0
 10
220.253
 20
42.3761
 11
220.253
 21
42.6239
  0
LINE
  8
0
 10
220.253
 20
42.6239
 11
220.281
 21
42.8703
  0
LINE
  8
0
 10
220.281
 20
42.8703
 11
220.335
 21
43.1122
  0
LINE
  8
0
 10
220.335
 20
43.1122
 11
220.415
 21
43.3467
  0
LINE
  8
0
 10
220.415
 20
43.3467
 11
220.521
 21
43.5709
  0
LINE
  8
0
 10
220.521
 20
43.5709
 11
220.651
 21
43.7821
  0
LINE
  8
0
 10
220.651
 20
43.7821
 11
220.803
 21
43.9777
  0
LINE
  8
0
 10
220.803
 20
43.9777
 11
220.976
 21
44.1554
  0
LINE
  8
0
 10
220.976
 20
44.1554
 11
221.167
 21
44.313
  0
LINE
  8
0
 10
221.167
 20
44.313
 11
221.375
 21
44.4485
  0
LINE
  8
0
 10
221.375
 20
44.4485
 11
221.596
 21
44.5605
  0
LINE
  8
0
 10
221.596
 20
44.5605
 11
221.828
 21
44.6474
  0
LINE
  8
0
 10
221.828
 20
44.6474
 11
222.069
 21
44.7083
  0
LINE
  8
0
 10
222.069
 20
44.7083
 11
222.314
 21
44.7423
  0
LINE
  8
0
 10
222.314
 20
44.7423
 11
222.562
 21
44.7491
  0
LINE
  8
0
 10
222.562
 20
44.7491
 11
222.809
 21
44.7287
  0
LINE
  8
0
 10
222.809
 20
44.7287
 11
223.052
 21
44.6812
  0
LINE
  8
0
 10
223.052
 20
44.6812
 11
223.289
 21
44.6071
  0
LINE
  8
0
 10
223.289
 20
44.6071
 11
223.516
 21
44.5076
  0
LINE
  8
0
 10
223.516
 20
44.5076
 11
223.731
 21
44.3836
  0
LINE
  8
0
 10
223.731
 20
44.3836
 11
223.93
 21
44.2368
  0
LINE
  8
0
 10
223.93
 20
44.2368
 11
224.113
 21
44.0689
  0
LINE
  8
0
 10
224.113
 20
44.0689
 11
224.276
 21
43.882
  0
LINE
  8
0
 10
224.276
 20
43.882
 11
224.417
 21
43.6783
  0
LINE
  8
0
 10
224.417
 20
43.6783
 11
224.535
 21
43.4602
  0
LINE
  8
0
 10
224.535
 20
43.4602
 11
224.628
 21
43.2306
  0
LINE
  8
0
 10
224.628
 20
43.2306
 11
224.696
 21
42.992
  0
LINE
  8
0
 10
224.696
 20
42.992
 11
224.736
 21
42.7475
  0
LINE
  8
0
 10
224.736
 20
42.7475
 11
224.75
 21
42.5
  0
LINE
  8
0
 10
224.75
 20
42.5
 11
224.736
 21
42.2525
  0
LINE
  8
0
 10
224.736
 20
42.2525
 11
224.696
 21
42.008
  0
LINE
  8
0
 10
224.696
 20
42.008
 11
224.628
 21
41.7694
  0
LINE
  8
0
 10
224.628
 20
41.7694
 11
224.535
 21
41.5397
  0
LINE
  8
0
 10
224.535
 20
41.5397
 11
224.417
 21
41.3217
  0
LINE
  8
0
 10
224.417
 20
41.3217
 11
224.276
 21
41.118
  0
LINE
  8
0
 10
224.276
 20
41.118
 11
224.113
 21
40.9311
  0
LINE
  8
0
 10
224.113
 20
40.9311
 11
223.93
 21
40.7632
  0
LINE
  8
0
 10
223.93
 20
40.7632
 11
223.731
 21
40.6164
  0
LINE
  8
0
 10
223.731
 20
40.6164
 11
223.516
 21
40.4924
  0
LINE
  8
0
 10
223.516
 20
40.4924
 11
223.289
 21
40.3928
  0
LINE
  8
0
 10
223.289
 20
40.3928
 11
223.052
 21
40.3188
  0
LINE
  8
0
 10
223.052
 20
40.3188
 11
222.809
 21
40.2713
  0
LINE
  8
0
 10
222.809
 20
40.2713
 11
222.562
 21
40.2509
  0
LINE
  8
0
 10
222.562
 20
40.2509
 11
222.314
 21
40.2577
  0
LINE
  8
0
 10
-222.809
 20
-44.7287
 11
-223.052
 21
-44.6812
  0
LINE
  8
0
 10
-223.052
 20
-44.6812
 11
-223.289
 21
-44.6071
  0
LINE
  8
0
 10
-223.289
 20
-44.6071
 11
-223.516
 21
-44.5076
  0
LINE
  8
0
 10
-223.516
 20
-44.5076
 11
-223.731
 21
-44.3836
  0
LINE
  8
0
 10
-223.731
 20
-44.3836
 11
-223.93
 21
-44.2368
  0
LINE
  8
0
 10
-223.93
 20
-44.2368
 11
-224.113
 21
-44.0689
  0
LINE
  8
0
 10
-224.113
 20
-44.0689
 11
-224.276
 21
-43.882
  0
LINE
  8
0
 10
-224.276
 20
-43.882
 11
-224.417
 21
-43.6783
  0
LINE
  8
0
 10
-224.417
 20
-43.6783
 11
-224.535
 21
-43.4602
  0
LINE
  8
0
 10
-224.535
 20
-43.4602
 11
-224.628
 21
-43.2306
  0
LINE
  8
0
 10
-224.628
 20
-43.2306
 11
-224.696
 21
-42.992
  0
LINE
  8
0
 10
-224.696
 20
-42.992
 11
-224.736
 21
-42.7475
  0
LINE
  8
0
 10
-224.736
 20
-42.7475
 11
-224.75
 21
-42.5
  0
LINE
  8
0
 10
-224.75
 20
-42.5
 11
-224.736
 21
-42.2525
  0
LINE
  8
0
 10
-224.736
 20
-42.2525
 11
-224.696
 21
-42.008
  0
LINE
  8
0
 10
-224.696
 20
-42.008
 11
-224.628
 21
-41.7694
  0
LINE
  8
0
 10
-224.628
 20
-41.7694
 11
-224.535
 21
-41.5397
  0
LINE
  8
0
 10
-224.535
 20
-41.5397
 11
-224.417
 21
-41.3217
  0
LINE
  8
0
 10
-224.417
 20
-41.3217
 11
-224.276
 21
-41.118
  0
LINE
  8
0
 10
-224.276
 20
-41.118
 11
-224.113
 21
-40.9311
  0
LINE
  8
0
 10
-224.113
 20
-40.9311
 11
-223.93
 21
-40.7632
  0
LINE
  8
0
 10
-223.93
 20
-40.7632
 11
-223.731
 21
-40.6164
  0
LINE
  8
0
 10
-223.731
 20
-40.6164
 11
-223.516
 21
-40.4924
  0
LINE
  8
0
 10
-223.516
 20
-40.4924
 11
-223.289
 21
-40.3928
  0
LINE
  8
0
 10
-223.289
 20
-40.3928
 11
-223.052
 21
-40.3188
  0
LINE
  8
0
 10
-223.052
 20
-40.3188
 11
-222.809
 21
-40.2713
  0
LINE
  8
0
 10
-222.809
 20
-40.2713
 11
-222.562
 21
-40.2509
  0
LINE
  8
0
 10
-222.562
 20
-40.2509
 11
-222.314
 21
-40.2577
  0
LINE
  8
0
 10
-222.314
 20
-40.2577
 11
-222.069
 21
-40.2917
  0
LINE
  8
0
 10
-222.069
 20
-40.2917
 11
-221.828
 21
-40.3526
  0
LINE
  8
0
 10
-221.828
 20
-40.3526
 11
-221.596
 21
-40.4395
  0
LINE
  8
0
 10
-221.596
 20
-40.4395
 11
-221.375
 21
-40.5514
  0
LINE
  8
0
 10
-221.375
 20
-40.5514
 11
-221.167
 21
-40.687
  0
LINE
  8
0
 10
-221.167
 20
-40.687
 11
-220.976
 21
-40.8446
  0
LINE
  8
0
 10
-220.976
 20
-40.8446
 11
-220.803
 21
-41.0223
  0
LINE
  8
0
 10
-220.803
 20
-41.0223
 11
-220.651
 21
-41.2179
  0
LINE
  8
0
 10
-220.651
 20
-41.2179
 11
-220.521
 21
-41.4291
  0
LINE
  8
0
 10
-220.521
 20
-41.4291
 11
-220.415
 21
-41.6533
  0
LINE
  8
0
 10
-220.415
 20
-41.6533
 11
-220.335
 21
-41.8878
  0
LINE
  8
0
 10
-220.335
 20
-41.8878
 11
-220.281
 21
-42.1297
  0
LINE
  8
0
 10
-220.281
 20
-42.1297
 11
-220.253
 21
-42.3761
  0
LINE
  8
0
 10
-220.253
 20
-42.3761
 11
-220.253
 21
-42.6239
  0
LINE
  8
0
 10
-220.253
 20
-42.6239
 11
-220.281
 21
-42.8703
  0
LINE
  8
0
 10
-220.281
 20
-42.8703
 11
-220.335
 21
-43.1122
  0
LINE
  8
0
 10
-220.335
 20
-43.1122
 11
-220.415
 21
-43.3467
  0
LINE
  8
0
 10
-220.415
 20
-43.3467
 11
-220.521
 21
-43.5709
  0
LINE
  8
0
 10
-220.521
 20
-43.5709
 11
-220.651
 21
-43.7821
  0
LINE
  8
0
 10
-220.651
 20
-43.7821
 11
-220.803
 21
-43.9777
  0
LINE
  8
0
 10
-220.803
 20
-43.9777
 11
-220.976
 21
-44.1554
  0
LINE
  8
0
 10
-220.976
 20
-44.1554
 11
-221.167
 21
-44.313
  0
LINE
  8
0
 10
-221.167
 20
-44.313
 11
-221.375
 21
-44.4485
  0
LINE
  8
0
 10
-221.375
 20
-44.4485
 11
-221.596
 21
-44.5605
  0
LINE
  8
0
 10
-221.596
 20
-44.5605
 11
-221.828
 21
-44.6474
  0
LINE
  8
0
 10
-221.828
 20
-44.6474
 11
-222.069
 21
-44.7083
  0
LINE
  8
0
 10
-222.069
 20
-44.7083
 11
-222.314
 21
-44.7423
  0
LINE
  8
0
 10
-222.314
 20
-44.7423
 11
-222.562
 21
-44.7491
  0
LINE
  8
0
 10
-222.562
 20
-44.7491
 11
-222.809
 21
-44.7287
  0
LINE
  8
0
 10
222.314
 20
-44.7423
 11
222.069
 21
-44.7083
  0
LINE
  8
0
 10
222.069
 20
-44.7083
 11
221.828
 21
-44.6474
  0
LINE
  8
0
 10
221.828
 20
-44.6474
 11
221.596
 21
-44.5605
  0
LINE
  8
0
 10
221.596
 20
-44.5605
 11
221.375
 21
-44.4485
  0
LINE
  8
0
 10
221.375
 20
-44.4485
 11
221.167
 21
-44.313
  0
LINE
  8
0
 10
221.167
 20
-44.313
 11
220.976
 21
-44.1554
  0
LINE
  8
0
 10
220.976
 20
-44.1554
 11
220.803
 21
-43.9777
  0
LINE
  8
0
 10
220.803
 20
-43.9777
 11
220.651
 21
-43.7821
  0
LINE
  8
0
 10
220.651
 20
-43.7821
 11
220.521
 21
-43.5709
  0
LINE
  8
0
 10
220.521
 20
-43.5709
 11
220.415
 21
-43.3467
  0
LINE
  8
0
 10
220.415
 20
-43.3467
 11
220.335
 21
-43.1122
  0
LINE
  8
0
 10
220.335
 20
-43.1122
 11
220.281
 21
-42.8703
  0
LINE
  8
0
 10
220.281
 20
-42.8703
 11
220.253
 21
-42.6239
  0
LINE
  8
0
 10
220.253
 20
-42.6239
 11
220.253
 21
-42.3761
  0
LINE
  8
0
 10
220.253
 20
-42.3761
 11
220.281
 21
-42.1297
  0
LINE
  8
0
 10
220.281
 20
-42.1297
 11
220.335
 21
-41.8878
  0
LINE
  8
0
 10
220.335
 20
-41.8878
 11
220.415
 21
-41.6533
  0
LINE
  8
0
 10
220.415
 20
-41.6533
 11
220.521
 21
-41.4291
  0
LINE
  8
0
 10
220.521
 20
-41.4291
 11
220.651
 21
-41.2179
  0
LINE
  8
0
 10
220.651
 20
-41.2179
 11
220.803
 21
-41.0223
  0
LINE
  8
0
 10
220.803
 20
-41.0223
 11
220.976
 21
-40.8446
  0
LINE
  8
0
 10
220.976
 20
-40.8446
 11
221.167
 21
-40.687
  0
LINE
  8
0
 10
221.167
 20
-40.687
 11
221.375
 21
-40.5514
  0
LINE
  8
0
 10
221.375
 20
-40.5514
 11
221.596
 21
-40.4395
  0
LINE
  8
0
 10
221.596
 20
-40.4395
 11
221.828
 21
-40.3526
  0
LINE
  8
0
 10
221.828
 20
-40.3526
 11
222.069
 21
-40.2917
  0
LINE
  8
0
 10
222.069
 20
-40.2917
 11
222.314
 21
-40.2577
  0
LINE
  8
0
 10
222.314
 20
-40.2577
 11
222.562
 21
-40.2509
  0
LINE
  8
0
 10
222.562
 20
-40.2509
 11
222.809
 21
-40.2713
  0
LINE
  8
0
 10
222.809
 20
-40.2713
 11
223.052
 21
-40.3188
  0
LINE
  8
0
 10
223.052
 20
-40.3188
 11
223.289
 21
-40.3928
  0
LINE
  8
0
 10
223.289
 20
-40.3928
 11
223.516
 21
-40.4924
  0
LINE
  8
0
 10
223.516
 20
-40.4924
 11
223.731
 21
-40.6164
  0
LINE
  8
0
 10
223.731
 20
-40.6164
 11
223.93
 21
-40.7632
  0
LINE
  8
0
 10
223.93
 20
-40.7632
 11
224.113
 21
-40.9311
  0
LINE
  8
0
 10
224.113
 20
-40.9311
 11
224.276
 21
-41.118
  0
LINE
  8
0
 10
224.276
 20
-41.118
 11
224.417
 21
-41.3217
  0
LINE
  8
0
 10
224.417
 20
-41.3217
 11
224.535
 21
-41.5397
  0
LINE
  8
0
 10
224.535
 20
-41.5397
 11
224.628
 21
-41.7694
  0
LINE
  8
0
 10
224.628
 20
-41.7694
 11
224.696
 21
-42.008
  0
LINE
  8
0
 10
224.696
 20
-42.008
 11
224.736
 21
-42.2525
  0
LINE
  8
0
 10
224.736
 20
-42.2525
 11
224.75
 21
-42.5
  0
LINE
  8
0
 10
224.75
 20
-42.5
 11
224.736
 21
-42.7475
  0
LINE
  8
0
 10
224.736
 20
-42.7475
 11
224.696
 21
-42.992
  0
LINE
  8
0
 10
224.696
 20
-42.992
 11
224.628
 21
-43.2306
  0
LINE
  8
0
 10
224.628
 20
-43.2306
 11
224.535
 21
-43.4602
  0
LINE
  8
0
 10
224.535
 20
-43.4602
 11
224.417
 21
-43.6783
  0
LINE
  8
0
 10
224.417
 20
-43.6783
 11
224.276
 21
-43.882
  0
LINE
  8
0
 10
224.276
 20
-43.882
 11
224.113
 21
-44.0689
  0
LINE
  8
0
 10
224.113
 20
-44.0689
 11
223.93
 21
-44.2368
  0
LINE
  8
0
 10
223.93
 20
-44.2368
 11
223.731
 21
-44.3836
  0
LINE
  8
0
 10
223.731
 20
-44.3836
 11
223.516
 21
-44.5076
  0
LINE
  8
0
 10
223.516
 20
-44.5076
 11
223.289
 21
-44.6071
  0
LINE
  8
0
 10
223.289
 20
-44.6071
 11
223.052
 21
-44.6812
  0
LINE
  8
0
 10
223.052
 20
-44.6812
 11
222.809
 21
-44.7287
  0
LINE
  8
0
 10
222.809
 20
-44.7287
 11
222.562
 21
-44.7491
  0
LINE
  8
0
 10
222.562
 20
-44.7491
 11
222.314
 21
-44.7423
  0
LINE
  8
0
 10
-222.809
 20
-129.729
 11
-223.052
 21
-129.681
  0
LINE
  8
0
 10
-223.052
 20
-129.681
 11
-223.289
 21
-129.607
  0
LINE
  8
0
 10
-223.289
 20
-129.607
 11
-223.516
 21
-129.508
  0
LINE
  8
0
 10
-223.516
 20
-129.508
 11
-223.731
 21
-129.384
  0
LINE
  8
0
 10
-223.731
 20
-129.384
 11
-223.93
 21
-129.237
  0
LINE
  8
0
 10
-223.93
 20
-129.237
 11
-224.113
 21
-129.069
  0
LINE
  8
0
 10
-224.113
 20
-129.069
 11
-224.276
 21
-128.882
  0
LINE
  8
0
 10
-224.276
 20
-128.882
 11
-224.417
 21
-128.678
  0
LINE
  8
0
 10
-224.417
 20
-128.678
 11
-224.535
 21
-128.46
  0
LINE
  8
0
 10
-224.535
 20
-128.46
 11
-224.628
 21
-128.231
  0
LINE
  8
0
 10
-224.628
 20
-128.231
 11
-224.696
 21
-127.992
  0
LINE
  8
0
 10
-224.696
 20
-127.992
 11
-224.736
 21
-127.748
  0
LINE
  8
0
 10
-224.736
 20
-127.748
 11
-224.75
 21
-127.5
  0
LINE
  8
0
 10
-224.75
 20
-127.5
 11
-224.736
 21
-127.252
  0
LINE
  8
0
 10
-224.736
 20
-127.252
 11
-224.696
 21
-127.008
  0
LINE
  8
0
 10
-224.696
 20
-127.008
 11
-224.628
 21
-126.769
  0
LINE
  8
0
 10
-224.628
 20
-126.769
 11
-224.535
 21
-126.54
  0
LINE
  8
0
 10
-224.535
 20
-126.54
 11
-224.417
 21
-126.322
  0
LINE
  8
0
 10
-224.417
 20
-126.322
 11
-224.276
 21
-126.118
  0
LINE
  8
0
 10
-224.276
 20
-126.118
 11
-224.113
 21
-125.931
  0
LINE
  8
0
 10
-224.113
 20
-125.931
 11
-223.93
 21
-125.763
  0
LINE
  8
0
 10
-223.93
 20
-125.763
 11
-223.731
 21
-125.616
  0
LINE
  8
0
 10
-223.731
 20
-125.616
 11
-223.516
 21
-125.492
  0
LINE
  8
0
 10
-223.516
 20
-125.492
 11
-223.289
 21
-125.393
  0
LINE
  8
0
 10
-223.289
 20
-125.393
 11
-223.052
 21
-125.319
  0
LINE
  8
0
 10
-223.052
 20
-125.319
 11
-222.809
 21
-125.271
  0
LINE
  8
0
 10
-222.809
 20
-125.271
 11
-222.562
 21
-125.251
  0
LINE
  8
0
 10
-222.562
 20
-125.251
 11
-222.314
 21
-125.258
  0
LINE
  8
0
 10
-222.314
 20
-125.258
 11
-222.069
 21
-125.292
  0
LINE
  8
0
 10
-222.069
 20
-125.292
 11
-221.828
 21
-125.353
  0
LINE
  8
0
 10
-221.828
 20
-125.353
 11
-221.596
 21
-125.439
  0
LINE
  8
0
 10
-221.596
 20
-125.439
 11
-221.375
 21
-125.551
  0
LINE
  8
0
 10
-221.375
 20
-125.551
 11
-221.167
 21
-125.687
  0
LINE
  8
0
 10
-221.167
 20
-125.687
 11
-220.976
 21
-125.845
  0
LINE
  8
0
 10
-220.976
 20
-125.845
 11
-220.803
 21
-126.022
  0
LINE
  8
0
 10
-220.803
 20
-126.022
 11
-220.651
 21
-126.218
  0
LINE
  8
0
 10
-220.651
 20
-126.218
 11
-220.521
 21
-126.429
  0
LINE
  8
0
 10
-220.521
 20
-126.429
 11
-220.415
 21
-126.653
  0
LINE
  8
0
 10
-220.415
 20
-126.653
 11
-220.335
 21
-126.888
  0
LINE
  8
0
 10
-220.335
 20
-126.888
 11
-220.281
 21
-127.13
  0
LINE
  8
0
 10
-220.281
 20
-127.13
 11
-220.253
 21
-127.376
  0
LINE
  8
0
 10
-220.253
 20
-127.376
 11
-220.253
 21
-127.624
  0
LINE
  8
0
 10
-220.253
 20
-127.624
 11
-220.281
 21
-127.87
  0
LINE
  8
0
 10
-220.281
 20
-127.87
 11
-220.335
 21
-128.112
  0
LINE
  8
0
 10
-220.335
 20
-128.112
 11
-220.415
 21
-128.347
  0
LINE
  8
0
 10
-220.415
 20
-128.347
 11
-220.521
 21
-128.571
  0
LINE
  8
0
 10
-220.521
 20
-128.571
 11
-220.651
 21
-128.782
  0
LINE
  8
0
 10
-220.651
 20
-128.782
 11
-220.803
 21
-128.978
  0
LINE
  8
0
 10
-220.803
 20
-128.978
 11
-220.976
 21
-129.155
  0
LINE
  8
0
 10
-220.976
 20
-129.155
 11
-221.167
 21
-129.313
  0
LINE
  8
0
 10
-221.167
 20
-129.313
 11
-221.375
 21
-129.449
  0
LINE
  8
0
 10
-221.375
 20
-129.449
 11
-221.596
 21
-129.56
  0
LINE
  8
0
 10
-221.596
 20
-129.56
 11
-221.828
 21
-129.647
  0
LINE
  8
0
 10
-221.828
 20
-129.647
 11
-222.069
 21
-129.708
  0
LINE
  8
0
 10
-222.069
 20
-129.708
 11
-222.314
 21
-129.742
  0
LINE
  8
0
 10
-222.314
 20
-129.742
 11
-222.562
 21
-129.749
  0
LINE
  8
0
 10
-222.562
 20
-129.749
 11
-222.809
 21
-129.729
  0
LINE
  8
0
 10
222.314
 20
-129.742
 11
222.069
 21
-129.708
  0
LINE
  8
0
 10
222.069
 20
-129.708
 11
221.828
 21
-129.647
  0
LINE
  8
0
 10
221.828
 20
-129.647
 11
221.596
 21
-129.56
  0
LINE
  8
0
 10
221.596
 20
-129.56
 11
221.375
 21
-129.449
  0
LINE
  8
0
 10
221.375
 20
-129.449
 11
221.167
 21
-129.313
  0
LINE
  8
0
 10
221.167
 20
-129.313
 11
220.976
 21
-129.155
  0
LINE
  8
0
 10
220.976
 20
-129.155
 11
220.803
 21
-128.978
  0
LINE
  8
0
 10
220.803
 20
-128.978
 11
220.651
 21
-128.782
  0
LINE
  8
0
 10
220.651
 20
-128.782
 11
220.521
 21
-128.571
  0
LINE
  8
0
 10
220.521
 20
-128.571
 11
220.415
 21
-128.347
  0
LINE
  8
0
 10
220.415
 20
-128.347
 11
220.335
 21
-128.112
  0
LINE
  8
0
 10
220.335
 20
-128.112
 11
220.281
 21
-127.87
  0
LINE
  8
0
 10
220.281
 20
-127.87
 11
220.253
 21
-127.624
  0
LINE
  8
0
 10
220.253
 20
-127.624
 11
220.253
 21
-127.376
  0
LINE
  8
0
 10
220.253
 20
-127.376
 11
220.281
 21
-127.13
  0
LINE
  8
0
 10
220.281
 20
-127.13
 11
220.335
 21
-126.888
  0
LINE
  8
0
 10
220.335
 20
-126.888
 11
220.415
 21
-126.653
  0
LINE
  8
0
 10
220.415
 20
-126.653
 11
220.521
 21
-126.429
  0
LINE
  8
0
 10
220.521
 20
-126.429
 11
220.651
 21
-126.218
  0
LINE
  8
0
 10
220.651
 20
-126.218
 11
220.803
 21
-126.022
  0
LINE
  8
0
 10
220.803
 20
-126.022
 11
220.976
 21
-125.845
  0
LINE
  8
0
 10
220.976
 20
-125.845
 11
221.167
 21
-125.687
  0
LINE
  8
0
 10
221.167
 20
-125.687
 11
221.375
 21
-125.551
  0
LINE
  8
0
 10
221.375
 20
-125.551
 11
221.596
 21
-125.439
  0
LINE
  8
0
 10
221.596
 20
-125.439
 11
221.828
 21
-125.353
  0
LINE
  8
0
 10
221.828
 20
-125.353
 11
222.069
 21
-125.292
  0
LINE
  8
0
 10
222.069
 20
-125.292
 11
222.314
 21
-125.258
  0
LINE
  8
0
 10
222.314
 20
-125.258
 11
222.562
 21
-125.251
  0
LINE
  8
0
 10
222.562
 20
-125.251
 11
222.809
 21
-125.271
  0
LINE
  8
0
 10
222.809
 20
-125.271
 11
223.052
 21
-125.319
  0
LINE
  8
0
 10
223.052
 20
-125.319
 11
223.289
 21
-125.393
  0
LINE
  8
0
 10
223.289
 20
-125.393
 11
223.516
 21
-125.492
  0
LINE
  8
0
 10
223.516
 20
-125.492
 11
223.731
 21
-125.616
  0
LINE
  8
0
 10
223.731
 20
-125.616
 11
223.93
 21
-125.763
  0
LINE
  8
0
 10
223.93
 20
-125.763
 11
224.113
 21
-125.931
  0
LINE
  8
0
 10
224.113
 20
-125.931
 11
224.276
 21
-126.118
  0
LINE
  8
0
 10
224.276
 20
-126.118
 11
224.417
 21
-126.322
  0
LINE
  8
0
 10
224.417
 20
-126.322
 11
224.535
 21
-126.54
  0
LINE
  8
0
 10
224.535
 20
-126.54
 11
224.628
 21
-126.769
  0
LINE
  8
0
 10
224.628
 20
-126.769
 11
224.696
 21
-127.008
  0
LINE
  8
0
 10
224.696
 20
-127.008
 11
224.736
 21
-127.252
  0
LINE
  8
0
 10
224.736
 20
-127.252
 11
224.75
 21
-127.5
  0
LINE
  8
0
 10
224.75
 20
-127.5
 11
224.736
 21
-127.748
  0
LINE
  8
0
 10
224.736
 20
-127.748
 11
224.696
 21
-127.992
  0
LINE
  8
0
 10
224.696
 20
-127.992
 11
224.628
 21
-128.231
  0
LINE
  8
0
 10
224.628
 20
-128.231
 11
224.535
 21
-128.46
  0
LINE
  8
0
 10
224.535
 20
-128.46
 11
224.417
 21
-128.678
  0
LINE
  8
0
 10
224.417
 20
-128.678
 11
224.276
 21
-128.882
  0
LINE
  8
0
 10
224.276
 20
-128.882
 11
224.113
 21
-129.069
  0
LINE
  8
0
 10
224.113
 20
-129.069
 11
223.93
 21
-129.237
  0
LINE
  8
0
 10
223.93
 20
-129.237
 11
223.731
 21
-129.384
  0
LINE
  8
0
 10
223.731
 20
-129.384
 11
223.516
 21
-129.508
  0
LINE
  8
0
 10
223.516
 20
-129.508
 11
223.289
 21
-129.607
  0
LINE
  8
0
 10
223.289
 20
-129.607
 11
223.052
 21
-129.681
  0
LINE
  8
0
 10
223.052
 20
-129.681
 11
222.809
 21
-129.729
  0
LINE
  8
0
 10
222.809
 20
-129.729
 11
222.562
 21
-129.749
  0
LINE
  8
0
 10
222.562
 20
-129.749
 11
222.314
 21
-129.742
  0
LINE
  8
0
 10
-223.023
 20
-172.473
 11
-223.54
 21
-172.391
  0
LINE
  8
0
 10
-223.54
 20
-172.391
 11
-224.045
 21
-172.255
  0
LINE
  8
0
 10
-224.045
 20
-172.255
 11
-224.534
 21
-172.068
  0
LINE
  8
0
 10
-224.534
 20
-172.068
 11
-225
 21
-171.83
  0
LINE
  8
0
 10
-225
 20
-171.83
 11
-225.439
 21
-171.545
  0
LINE
  8
0
 10
-225.439
 20
-171.545
 11
-225.846
 21
-171.216
  0
LINE
  8
0
 10
-225.846
 20
-171.216
 11
-226.216
 21
-170.846
  0
LINE
  8
0
 10
-226.216
 20
-170.846
 11
-226.545
 21
-170.439
  0
LINE
  8
0
 10
-226.545
 20
-170.439
 11
-226.83
 21
-170
  0
LINE
  8
0
 10
-226.83
 20
-170
 11
-227.068
 21
-169.534
  0
LINE
  8
0
 10
-227.068
 20
-169.534
 11
-227.255
 21
-169.045
  0
LINE
  8
0
 10
-227.255
 20
-169.045
 11
-227.391
 21
-168.54
  0
LINE
  8
0
 10
-227.391
 20
-168.54
 11
-227.473
 21
-168.023
  0
LINE
  8
0
 10
-227.473
 20
-168.023
 11
-227.5
 21
-167.5
  0
LINE
  8
0
 10
-227.5
 20
-167.5
 11
-227.473
 21
-166.977
  0
LINE
  8
0
 10
-227.473
 20
-166.977
 11
-227.391
 21
-166.46
  0
LINE
  8
0
 10
-227.391
 20
-166.46
 11
-227.255
 21
-165.955
  0
LINE
  8
0
 10
-227.255
 20
-165.955
 11
-227.068
 21
-165.466
  0
LINE
  8
0
 10
-227.068
 20
-165.466
 11
-226.83
 21
-165
  0
LINE
  8
0
 10
-226.83
 20
-165
 11
-226.545
 21
-164.561
  0
LINE
  8
0
 10
-226.545
 20
-164.561
 11
-226.216
 21
-164.154
  0
LINE
  8
0
 10
-226.216
 20
-164.154
 11
-225.846
 21
-163.784
  0
LINE
  8
0
 10
-225.846
 20
-163.784
 11
-225.439
 21
-163.455
  0
LINE
  8
0
 10
-225.439
 20
-163.455
 11
-225
 21
-163.17
  0
LINE
  8
0
 10
-225
 20
-163.17
 11
-224.534
 21
-162.932
  0
LINE
  8
0
 10
-224.534
 20
-162.932
 11
-224.045
 21
-162.745
  0
LINE
  8
0
 10
-224.045
 20
-162.745
 11
-223.54
 21
-162.609
  0
LINE
  8
0
 10
-223.54
 20
-162.609
 11
-223.023
 21
-162.527
  0
LINE
  8
0
 10
-223.023
 20
-162.527
 11
-222.5
 21
-162.5
  0
LINE
  8
0
 10
-222.5
 20
-162.5
 11
-221.977
 21
-162.527
  0
LINE
  8
0
 10
-221.977
 20
-162.527
 11
-221.46
 21
-162.609
  0
LINE
  8
0
 10
-221.46
 20
-162.609
 11
-220.955
 21
-162.745
  0
LINE
  8
0
 10
-220.955
 20
-162.745
 11
-220.466
 21
-162.932
  0
LINE
  8
0
 10
-220.466
 20
-162.932
 11
-220
 21
-163.17
  0
LINE
  8
0
 10
-220
 20
-163.17
 11
-219.561
 21
-163.455
  0
LINE
  8
0
 10
-219.561
 20
-163.455
 11
-219.154
 21
-163.784
  0
LINE
  8
0
 10
-219.154
 20
-163.784
 11
-218.784
 21
-164.154
  0
LINE
  8
0
 10
-218.784
 20
-164.154
 11
-218.455
 21
-164.561
  0
LINE
  8
0
 10
-218.455
 20
-164.561
 11
-218.17
 21
-165
  0
LINE
  8
0
 10
-218.17
 20
-165
 11
-217.932
 21
-165.466
  0
LINE
  8
0
 10
-217.932
 20
-165.466
 11
-217.745
 21
-165.955
  0
LINE
  8
0
 10
-217.745
 20
-165.955
 11
-217.609
 21
-166.46
  0
LINE
  8
0
 10
-217.609
 20
-166.46
 11
-217.527
 21
-166.977
  0
LINE
  8
0
 10
-217.527
 20
-166.977
 11
-217.5
 21
-167.5
  0
LINE
  8
0
 10
-217.5
 20
-167.5
 11
-217.527
 21
-168.023
  0
LINE
  8
0
 10
-217.527
 20
-168.023
 11
-217.609
 21
-168.54
  0
LINE
  8
0
 10
-217.609
 20
-168.54
 11
-217.745
 21
-169.045
  0
LINE
  8
0
 10
-217.745
 20
-169.045
 11
-217.932
 21
-169.534
  0
LINE
  8
0
 10
-217.932
 20
-169.534
 11
-218.17
 21
-170
  0
LINE
  8
0
 10
-218.17
 20
-170
 11
-218.455
 21
-170.439
  0
LINE
  8
0
 10
-218.455
 20
-170.439
 11
-218.784
 21
-170.846
  0
LINE
  8
0
 10
-218.784
 20
-170.846
 11
-219.154
 21
-171.216
  0
LINE
  8
0
 10
-219.154
 20
-171.216
 11
-219.561
 21
-171.545
  0
LINE
  8
0
 10
-219.561
 20
-171.545
 11
-220
 21
-171.83
  0
LINE
  8
0
 10
-220
 20
-171.83
 11
-220.466
 21
-172.068
  0
LINE
  8
0
 10
-220.466
 20
-172.068
 11
-220.955
 21
-172.255
  0
LINE
  8
0
 10
-220.955
 20
-172.255
 11
-221.46
 21
-172.391
  0
LINE
  8
0
 10
-221.46
 20
-172.391
 11
-221.977
 21
-172.473
  0
LINE
  8
0
 10
-221.977
 20
-172.473
 11
-222.5
 21
-172.5
  0
LINE
  8
0
 10
-222.5
 20
-172.5
 11
-223.023
 21
-172.473
  0
LINE
  8
0
 10
221.977
 20
-172.473
 11
221.46
 21
-172.391
  0
LINE
  8
0
 10
221.46
 20
-172.391
 11
220.955
 21
-172.255
  0
LINE
  8
0
 10
220.955
 20
-172.255
 11
220.466
 21
-172.068
  0
LINE
  8
0
 10
220.466
 20
-172.068
 11
220
 21
-171.83
  0
LINE
  8
0
 10
220
 20
-171.83
 11
219.561
 21
-171.545
  0
LINE
  8
0
 10
219.561
 20
-171.545
 11
219.154
 21
-171.216
  0
LINE
  8
0
 10
219.154
 20
-171.216
 11
218.784
 21
-170.846
  0
LINE
  8
0
 10
218.784
 20
-170.846
 11
218.455
 21
-170.439
  0
LINE
  8
0
 10
218.455
 20
-170.439
 11
218.17
 21
-170
  0
LINE
  8
0
 10
218.17
 20
-170
 11
217.932
 21
-169.534
  0
LINE
  8
0
 10
217.932
 20
-169.534
 11
217.745
 21
-169.045
  0
LINE
  8
0
 10
217.745
 20
-169.045
 11
217.609
 21
-168.54
  0
LINE
  8
0
 10
217.609
 20
-168.54
 11
217.527
 21
-168.023
  0
LINE
  8
0
 10
217.527
 20
-168.023
 11
217.5
 21
-167.5
  0
LINE
  8
0
 10
217.5
 20
-167.5
 11
217.527
 21
-166.977
  0
LINE
  8
0
 10
217.527
 20
-166.977
 11
217.609
 21
-166.46
  0
LINE
  8
0
 10
217.609
 20
-166.46
 11
217.745
 21
-165.955
  0
LINE
  8
0
 10
217.745
 20
-165.955
 11
217.932
 21
-165.466
  0
LINE
  8
0
 10
217.932
 20
-165.466
 11
218.17
 21
-165
  0
LINE
  8
0
 10
218.17
 20
-165
 11
218.455
 21
-164.561
  0
LINE
  8
0
 10
218.455
 20
-164.561
 11
218.784
 21
-164.154
  0
LINE
  8
0
 10
218.784
 20
-164.154
 11
219.154
 21
-163.784
  0
LINE
  8
0
 10
219.154
 20
-163.784
 11
219.561
 21
-163.455
  0
LINE
  8
0
 10
219.561
 20
-163.455
 11
220
 21
-163.17
  0
LINE
  8
0
 10
220
 20
-163.17
 11
220.466
 21
-162.932
  0
LINE
  8
0
 10
220.466
 20
-162.932
 11
220.955
 21
-162.745
  0
LINE
  8
0
 10
220.955
 20
-162.745
 11
221.46
 21
-162.609
  0
LINE
  8
0
 10
221.46
 20
-162.609
 11
221.977
 21
-162.527
  0
LINE
  8
0
 10
221.977
 20
-162.527
 11
222.5
 21
-162.5
  0
LINE
  8
0
 10
222.5
 20
-162.5
 11
223.023
 21
-162.527
  0
LINE
  8
0
 10
223.023
 20
-162.527
 11
223.54
 21
-162.609
  0
LINE
  8
0
 10
223.54
 20
-162.609
 11
224.045
 21
-162.745
  0
LINE
  8
0
 10
224.045
 20
-162.745
 11
224.534
 21
-162.932
  0
LINE
  8
0
 10
224.534
 20
-162.932
 11
225
 21
-163.17
  0
LINE
  8
0
 10
225
 20
-163.17
 11
225.439
 21
-163.455
  0
LINE
  8
0
 10
225.439
 20
-163.455
 11
225.846
 21
-163.784
  0
LINE
  8
0
 10
225.846
 20
-163.784
 11
226.216
 21
-164.154
  0
LINE
  8
0
 10
226.216
 20
-164.154
 11
226.545
 21
-164.561
  0
LINE
  8
0
 10
226.545
 20
-164.561
 11
226.83
 21
-165
  0
LINE
  8
0
 10
226.83
 20
-165
 11
227.068
 21
-165.466
  0
LINE
  8
0
 10
227.068
 20
-165.466
 11
227.255
 21
-165.955
  0
LINE
  8
0
 10
227.255
 20
-165.955
 11
227.391
 21
-166.46
  0
LINE
  8
0
 10
227.391
 20
-166.46
 11
227.473
 21
-166.977
  0
LINE
  8
0
 10
227.473
 20
-166.977
 11
227.5
 21
-167.5
  0
LINE
  8
0
 10
227.5
 20
-167.5
 11
227.473
 21
-168.023
  0
LINE
  8
0
 10
227.473
 20
-168.023
 11
227.391
 21
-168.54
  0
LINE
  8
0
 10
227.391
 20
-168.54
 11
227.255
 21
-169.045
  0
LINE
  8
0
 10
227.255
 20
-169.045
 11
227.068
 21
-169.534
  0
LINE
  8
0
 10
227.068
 20
-169.534
 11
226.83
 21
-170
  0
LINE
  8
0
 10
226.83
 20
-170
 11
226.545
 21
-170.439
  0
LINE
  8
0
 10
226.545
 20
-170.439
 11
226.216
 21
-170.846
  0
LINE
  8
0
 10
226.216
 20
-170.846
 11
225.846
 21
-171.216
  0
LINE
  8
0
 10
225.846
 20
-171.216
 11
225.439
 21
-171.545
  0
LINE
  8
0
 10
225.439
 20
-171.545
 11
225
 21
-171.83
  0
LINE
  8
0
 10
225
 20
-171.83
 11
224.534
 21
-172.068
  0
LINE
  8
0
 10
224.534
 20
-172.068
 11
224.045
 21
-172.255
  0
LINE
  8
0
 10
224.045
 20
-172.255
 11
223.54
 21
-172.391
  0
LINE
  8
0
 10
223.54
 20
-172.391
 11
223.023
 21
-172.473
  0
LINE
  8
0
 10
223.023
 20
-172.473
 11
222.5
 21
-172.5
  0
LINE
  8
0
 10
222.5
 20
-172.5
 11
221.977
 21
-172.473
  0
LINE
  8
0
 10
-182.686
 20
-169.742
 11
-182.931
 21
-169.708
  0
LINE
  8
0
 10
-182.931
 20
-169.708
 11
-183.172
 21
-169.647
  0
LINE
  8
0
 10
-183.172
 20
-169.647
 11
-183.404
 21
-169.56
  0
LINE
  8
0
 10
-183.404
 20
-169.56
 11
-183.625
 21
-169.449
  0
LINE
  8
0
 10
-183.625
 20
-169.449
 11
-183.833
 21
-169.313
  0
LINE
  8
0
 10
-183.833
 20
-169.313
 11
-184.024
 21
-169.155
  0
LINE
  8
0
 10
-184.024
 20
-169.155
 11
-184.197
 21
-168.978
  0
LINE
  8
0
 10
-184.197
 20
-168.978
 11
-184.349
 21
-168.782
  0
LINE
  8
0
 10
-184.349
 20
-168.782
 11
-184.479
 21
-168.571
  0
LINE
  8
0
 10
-184.479
 20
-168.571
 11
-184.585
 21
-168.347
  0
LINE
  8
0
 10
-184.585
 20
-168.347
 11
-184.665
 21
-168.112
  0
LINE
  8
0
 10
-184.665
 20
-168.112
 11
-184.719
 21
-167.87
  0
LINE
  8
0
 10
-184.719
 20
-167.87
 11
-184.747
 21
-167.624
  0
LINE
  8
0
 10
-184.747
 20
-167.624
 11
-184.747
 21
-167.376
  0
LINE
  8
0
 10
-184.747
 20
-167.376
 11
-184.719
 21
-167.13
  0
LINE
  8
0
 10
-184.719
 20
-167.13
 11
-184.665
 21
-166.888
  0
LINE
  8
0
 10
-184.665
 20
-166.888
 11
-184.585
 21
-166.653
  0
LINE
  8
0
 10
-184.585
 20
-166.653
 11
-184.479
 21
-166.429
  0
LINE
  8
0
 10
-184.479
 20
-166.429
 11
-184.349
 21
-166.218
  0
LINE
  8
0
 10
-184.349
 20
-166.218
 11
-184.197
 21
-166.022
  0
LINE
  8
0
 10
-184.197
 20
-166.022
 11
-184.024
 21
-165.845
  0
LINE
  8
0
 10
-184.024
 20
-165.845
 11
-183.833
 21
-165.687
  0
LINE
  8
0
 10
-183.833
 20
-165.687
 11
-183.625
 21
-165.551
  0
LINE
  8
0
 10
-183.625
 20
-165.551
 11
-183.404
 21
-165.44
  0
LINE
  8
0
 10
-183.404
 20
-165.44
 11
-183.172
 21
-165.353
  0
LINE
  8
0
 10
-183.172
 20
-165.353
 11
-182.931
 21
-165.292
  0
LINE
  8
0
 10
-182.931
 20
-165.292
 11
-182.686
 21
-165.258
  0
LINE
  8
0
 10
-182.686
 20
-165.258
 11
-182.438
 21
-165.251
  0
LINE
  8
0
 10
-182.438
 20
-165.251
 11
-182.191
 21
-165.271
  0
LINE
  8
0
 10
-182.191
 20
-165.271
 11
-181.948
 21
-165.319
  0
LINE
  8
0
 10
-181.948
 20
-165.319
 11
-181.711
 21
-165.393
  0
LINE
  8
0
 10
-181.711
 20
-165.393
 11
-181.484
 21
-165.492
  0
LINE
  8
0
 10
-181.484
 20
-165.492
 11
-181.269
 21
-165.616
  0
LINE
  8
0
 10
-181.269
 20
-165.616
 11
-181.07
 21
-165.763
  0
LINE
  8
0
 10
-181.07
 20
-165.763
 11
-180.887
 21
-165.931
  0
LINE
  8
0
 10
-180.887
 20
-165.931
 11
-180.724
 21
-166.118
  0
LINE
  8
0
 10
-180.724
 20
-166.118
 11
-180.583
 21
-166.322
  0
LINE
  8
0
 10
-180.583
 20
-166.322
 11
-180.465
 21
-166.54
  0
LINE
  8
0
 10
-180.465
 20
-166.54
 11
-180.372
 21
-166.769
  0
LINE
  8
0
 10
-180.372
 20
-166.769
 11
-180.304
 21
-167.008
  0
LINE
  8
0
 10
-180.304
 20
-167.008
 11
-180.264
 21
-167.252
  0
LINE
  8
0
 10
-180.264
 20
-167.252
 11
-180.25
 21
-167.5
  0
LINE
  8
0
 10
-180.25
 20
-167.5
 11
-180.264
 21
-167.748
  0
LINE
  8
0
 10
-180.264
 20
-167.748
 11
-180.304
 21
-167.992
  0
LINE
  8
0
 10
-180.304
 20
-167.992
 11
-180.372
 21
-168.231
  0
LINE
  8
0
 10
-180.372
 20
-168.231
 11
-180.465
 21
-168.46
  0
LINE
  8
0
 10
-180.465
 20
-168.46
 11
-180.583
 21
-168.678
  0
LINE
  8
0
 10
-180.583
 20
-168.678
 11
-180.724
 21
-168.882
  0
LINE
  8
0
 10
-180.724
 20
-168.882
 11
-180.887
 21
-169.069
  0
LINE
  8
0
 10
-180.887
 20
-169.069
 11
-181.07
 21
-169.237
  0
LINE
  8
0
 10
-181.07
 20
-169.237
 11
-181.269
 21
-169.384
  0
LINE
  8
0
 10
-181.269
 20
-169.384
 11
-181.484
 21
-169.508
  0
LINE
  8
0
 10
-181.484
 20
-169.508
 11
-181.711
 21
-169.607
  0
LINE
  8
0
 10
-181.711
 20
-169.607
 11
-181.948
 21
-169.681
  0
LINE
  8
0
 10
-181.948
 20
-169.681
 11
-182.191
 21
-169.729
  0
LINE
  8
0
 10
-182.191
 20
-169.729
 11
-182.438
 21
-169.749
  0
LINE
  8
0
 10
-182.438
 20
-169.749
 11
-182.686
 21
-169.742
  0
LINE
  8
0
 10
-91.4358
 20
-169.742
 11
-91.6814
 21
-169.708
  0
LINE
  8
0
 10
-91.6814
 20
-169.708
 11
-91.9217
 21
-169.647
  0
LINE
  8
0
 10
-91.9217
 20
-169.647
 11
-92.1538
 21
-169.56
  0
LINE
  8
0
 10
-92.1538
 20
-169.56
 11
-92.375
 21
-169.449
  0
LINE
  8
0
 10
-92.375
 20
-169.449
 11
-92.5825
 21
-169.313
  0
LINE
  8
0
 10
-92.5825
 20
-169.313
 11
-92.7739
 21
-169.155
  0
LINE
  8
0
 10
-92.7739
 20
-169.155
 11
-92.9467
 21
-168.978
  0
LINE
  8
0
 10
-92.9467
 20
-168.978
 11
-93.099
 21
-168.782
  0
LINE
  8
0
 10
-93.099
 20
-168.782
 11
-93.2288
 21
-168.571
  0
LINE
  8
0
 10
-93.2288
 20
-168.571
 11
-93.3346
 21
-168.347
  0
LINE
  8
0
 10
-93.3346
 20
-168.347
 11
-93.4151
 21
-168.112
  0
LINE
  8
0
 10
-93.4151
 20
-168.112
 11
-93.4693
 21
-167.87
  0
LINE
  8
0
 10
-93.4693
 20
-167.87
 11
-93.4966
 21
-167.624
  0
LINE
  8
0
 10
-93.4966
 20
-167.624
 11
-93.4966
 21
-167.376
  0
LINE
  8
0
 10
-93.4966
 20
-167.376
 11
-93.4693
 21
-167.13
  0
LINE
  8
0
 10
-93.4693
 20
-167.13
 11
-93.4151
 21
-166.888
  0
LINE
  8
0
 10
-93.4151
 20
-166.888
 11
-93.3346
 21
-166.653
  0
LINE
  8
0
 10
-93.3346
 20
-166.653
 11
-93.2288
 21
-166.429
  0
LINE
  8
0
 10
-93.2288
 20
-166.429
 11
-93.099
 21
-166.218
  0
LINE
  8
0
 10
-93.099
 20
-166.218
 11
-92.9467
 21
-166.022
  0
LINE
  8
0
 10
-92.9467
 20
-166.022
 11
-92.7739
 21
-165.845
  0
LINE
  8
0
 10
-92.7739
 20
-165.845
 11
-92.5825
 21
-165.687
  0
LINE
  8
0
 10
-92.5825
 20
-165.687
 11
-92.375
 21
-165.551
  0
LINE
  8
0
 10
-92.375
 20
-165.551
 11
-92.1538
 21
-165.44
  0
LINE
  8
0
 10
-92.1538
 20
-165.44
 11
-91.9217
 21
-165.353
  0
LINE
  8
0
 10
-91.9217
 20
-165.353
 11
-91.6814
 21
-165.292
  0
LINE
  8
0
 10
-91.6814
 20
-165.292
 11
-91.4358
 21
-165.258
  0
LINE
  8
0
 10
-91.4358
 20
-165.258
 11
-91.188
 21
-165.251
  0
LINE
  8
0
 10
-91.188
 20
-165.251
 11
-90.9409
 21
-165.271
  0
LINE
  8
0
 10
-90.9409
 20
-165.271
 11
-90.6976
 21
-165.319
  0
LINE
  8
0
 10
-90.6976
 20
-165.319
 11
-90.4611
 21
-165.393
  0
LINE
  8
0
 10
-90.4611
 20
-165.393
 11
-90.234
 21
-165.492
  0
LINE
  8
0
 10
-90.234
 20
-165.492
 11
-90.0194
 21
-165.616
  0
LINE
  8
0
 10
-90.0194
 20
-165.616
 11
-89.8196
 21
-165.763
  0
LINE
  8
0
 10
-89.8196
 20
-165.763
 11
-89.6372
 21
-165.931
  0
LINE
  8
0
 10
-89.6372
 20
-165.931
 11
-89.4744
 21
-166.118
  0
LINE
  8
0
 10
-89.4744
 20
-166.118
 11
-89.3332
 21
-166.322
  0
LINE
  8
0
 10
-89.3332
 20
-166.322
 11
-89.2152
 21
-166.54
  0
LINE
  8
0
 10
-89.2152
 20
-166.54
 11
-89.1219
 21
-166.769
  0
LINE
  8
0
 10
-89.1219
 20
-166.769
 11
-89.0545
 21
-167.008
  0
LINE
  8
0
 10
-89.0545
 20
-167.008
 11
-89.0137
 21
-167.252
  0
LINE
  8
0
 10
-89.0137
 20
-167.252
 11
-89
 21
-167.5
  0
LINE
  8
0
 10
-89
 20
-167.5
 11
-89.0137
 21
-167.748
  0
LINE
  8
0
 10
-89.0137
 20
-167.748
 11
-89.0545
 21
-167.992
  0
LINE
  8
0
 10
-89.0545
 20
-167.992
 11
-89.1219
 21
-168.231
  0
LINE
  8
0
 10
-89.1219
 20
-168.231
 11
-89.2152
 21
-168.46
  0
LINE
  8
0
 10
-89.2152
 20
-168.46
 11
-89.3332
 21
-168.678
  0
LINE
  8
0
 10
-89.3332
 20
-168.678
 11
-89.4744
 21
-168.882
  0
LINE
  8
0
 10
-89.4744
 20
-168.882
 11
-89.6372
 21
-169.069
  0
LINE
  8
0
 10
-89.6372
 20
-169.069
 11
-89.8196
 21
-169.237
  0
LINE
  8
0
 10
-89.8196
 20
-169.237
 11
-90.0194
 21
-169.384
  0
LINE
  8
0
 10
-90.0194
 20
-169.384
 11
-90.234
 21
-169.508
  0
LINE
  8
0
 10
-90.234
 20
-169.508
 11
-90.4611
 21
-169.607
  0
LINE
  8
0
 10
-90.4611
 20
-169.607
 11
-90.6976
 21
-169.681
  0
LINE
  8
0
 10
-90.6976
 20
-169.681
 11
-90.9409
 21
-169.729
  0
LINE
  8
0
 10
-90.9409
 20
-169.729
 11
-91.188
 21
-169.749
  0
LINE
  8
0
 10
-91.188
 20
-169.749
 11
-91.4358
 21
-169.742
  0
LINE
  8
0
 10
91.0642
 20
-169.742
 11
90.8186
 21
-169.708
  0
LINE
  8
0
 10
90.8186
 20
-169.708
 11
90.5783
 21
-169.647
  0
LINE
  8
0
 10
90.5783
 20
-169.647
 11
90.3462
 21
-169.56
  0
LINE
  8
0
 10
90.3462
 20
-169.56
 11
90.125
 21
-169.449
  0
LINE
  8
0
 10
90.125
 20
-169.449
 11
89.9175
 21
-169.313
  0
LINE
  8
0
 10
89.9175
 20
-169.313
 11
89.7261
 21
-169.155
  0
LINE
  8
0
 10
89.7261
 20
-169.155
 11
89.5533
 21
-168.978
  0
LINE
  8
0
 10
89.5533
 20
-168.978
 11
89.401
 21
-168.782
  0
LINE
  8
0
 10
89.401
 20
-168.782
 11
89.2712
 21
-168.571
  0
LINE
  8
0
 10
89.2712
 20
-168.571
 11
89.1654
 21
-168.347
  0
LINE
  8
0
 10
89.1654
 20
-168.347
 11
89.0849
 21
-168.112
  0
LINE
  8
0
 10
89.0849
 20
-168.112
 11
89.0307
 21
-167.87
  0
LINE
  8
0
 10
89.0307
 20
-167.87
 11
89.0034
 21
-167.624
  0
LINE
  8
0
 10
89.0034
 20
-167.624
 11
89.0034
 21
-167.376
  0
LINE
  8
0
 10
89.0034
 20
-167.376
 11
89.0307
 21
-167.13
  0
LINE
  8
0
 10
89.0307
 20
-167.13
 11
89.0849
 21
-166.888
  0
LINE
  8
0
 10
89.0849
 20
-166.888
 11
89.1654
 21
-166.653
  0
LINE
  8
0
 10
89.1654
 20
-166.653
 11
89.2712
 21
-166.429
  0
LINE
  8
0
 10
89.2712
 20
-166.429
 11
89.401
 21
-166.218
  0
LINE
  8
0
 10
89.401
 20
-166.218
 11
89.5533
 21
-166.022
  0
LINE
  8
0
 10
89.5533
 20
-166.022
 11
89.7261
 21
-165.845
  0
LINE
  8
0
 10
89.7261
 20
-165.845
 11
89.9175
 21
-165.687
  0
LINE
  8
0
 10
89.9175
 20
-165.687
 11
90.125
 21
-165.551
  0
LINE
  8
0
 10
90.125
 20
-165.551
 11
90.3462
 21
-165.44
  0
LINE
  8
0
 10
90.3462
 20
-165.44
 11
90.5783
 21
-165.353
  0
LINE
  8
0
 10
90.5783
 20
-165.353
 11
90.8186
 21
-165.292
  0
LINE
  8
0
 10
90.8186
 20
-165.292
 11
91.0642
 21
-165.258
  0
LINE
  8
0
 10
91.0642
 20
-165.258
 11
91.312
 21
-165.251
  0
LINE
  8
0
 10
91.312
 20
-165.251
 11
91.559
 21
-165.271
  0
LINE
  8
0
 10
91.559
 20
-165.271
 11
91.8023
 21
-165.319
  0
LINE
  8
0
 10
91.8023
 20
-165.319
 11
92.0389
 21
-165.393
  0
LINE
  8
0
 10
92.0389
 20
-165.393
 11
92.2659
 21
-165.492
  0
LINE
  8
0
 10
92.2659
 20
-165.492
 11
92.4806
 21
-165.616
  0
LINE
  8
0
 10
92.4806
 20
-165.616
 11
92.6804
 21
-165.763
  0
LINE
  8
0
 10
92.6804
 20
-165.763
 11
92.8628
 21
-165.931
  0
LINE
  8
0
 10
92.8628
 20
-165.931
 11
93.0256
 21
-166.118
  0
LINE
  8
0
 10
93.0256
 20
-166.118
 11
93.1668
 21
-166.322
  0
LINE
  8
0
 10
93.1668
 20
-166.322
 11
93.2848
 21
-166.54
  0
LINE
  8
0
 10
93.2848
 20
-166.54
 11
93.3781
 21
-166.769
  0
LINE
  8
0
 10
93.3781
 20
-166.769
 11
93.4455
 21
-167.008
  0
LINE
  8
0
 10
93.4455
 20
-167.008
 11
93.4863
 21
-167.252
  0
LINE
  8
0
 10
93.4863
 20
-167.252
 11
93.5
 21
-167.5
  0
LINE
  8
0
 10
93.5
 20
-167.5
 11
93.4863
 21
-167.748
  0
LINE
  8
0
 10
93.4863
 20
-167.748
 11
93.4455
 21
-167.992
  0
LINE
  8
0
 10
93.4455
 20
-167.992
 11
93.3781
 21
-168.231
  0
LINE
  8
0
 10
93.3781
 20
-168.231
 11
93.2848
 21
-168.46
  0
LINE
  8
0
 10
93.2848
 20
-168.46
 11
93.1668
 21
-168.678
  0
LINE
  8
0
 10
93.1668
 20
-168.678
 11
93.0256
 21
-168.882
  0
LINE
  8
0
 10
93.0256
 20
-168.882
 11
92.8628
 21
-169.069
  0
LINE
  8
0
 10
92.8628
 20
-169.069
 11
92.6804
 21
-169.237
  0
LINE
  8
0
 10
92.6804
 20
-169.237
 11
92.4806
 21
-169.384
  0
LINE
  8
0
 10
92.4806
 20
-169.384
 11
92.2659
 21
-169.508
  0
LINE
  8
0
 10
92.2659
 20
-169.508
 11
92.0389
 21
-169.607
  0
LINE
  8
0
 10
92.0389
 20
-169.607
 11
91.8023
 21
-169.681
  0
LINE
  8
0
 10
91.8023
 20
-169.681
 11
91.559
 21
-169.729
  0
LINE
  8
0
 10
91.559
 20
-169.729
 11
91.312
 21
-169.749
  0
LINE
  8
0
 10
91.312
 20
-169.749
 11
91.0642
 21
-169.742
  0
LINE
  8
0
 10
182.314
 20
-169.742
 11
182.069
 21
-169.708
  0
LINE
  8
0
 10
182.069
 20
-169.708
 11
181.828
 21
-169.647
  0
LINE
  8
0
 10
181.828
 20
-169.647
 11
181.596
 21
-169.56
  0
LINE
  8
0
 10
181.596
 20
-169.56
 11
181.375
 21
-169.449
  0
LINE
  8
0
 10
181.375
 20
-169.449
 11
181.167
 21
-169.313
  0
LINE
  8
0
 10
181.167
 20
-169.313
 11
180.976
 21
-169.155
  0
LINE
  8
0
 10
180.976
 20
-169.155
 11
180.803
 21
-168.978
  0
LINE
  8
0
 10
180.803
 20
-168.978
 11
180.651
 21
-168.782
  0
LINE
  8
0
 10
180.651
 20
-168.782
 11
180.521
 21
-168.571
  0
LINE
  8
0
 10
180.521
 20
-168.571
 11
180.415
 21
-168.347
  0
LINE
  8
0
 10
180.415
 20
-168.347
 11
180.335
 21
-168.112
  0
LINE
  8
0
 10
180.335
 20
-168.112
 11
180.281
 21
-167.87
  0
LINE
  8
0
 10
180.281
 20
-167.87
 11
180.253
 21
-167.624
  0
LINE
  8
0
 10
180.253
 20
-167.624
 11
180.253
 21
-167.376
  0
LINE
  8
0
 10
180.253
 20
-167.376
 11
180.281
 21
-167.13
  0
LINE
  8
0
 10
180.281
 20
-167.13
 11
180.335
 21
-166.888
  0
LINE
  8
0
 10
180.335
 20
-166.888
 11
180.415
 21
-166.653
  0
LINE
  8
0
 10
180.415
 20
-166.653
 11
180.521
 21
-166.429
  0
LINE
  8
0
 10
180.521
 20
-166.429
 11
180.651
 21
-166.218
  0
LINE
  8
0
 10
180.651
 20
-166.218
 11
180.803
 21
-166.022
  0
LINE
  8
0
 10
180.803
 20
-166.022
 11
180.976
 21
-165.845
  0
LINE
  8
0
 10
180.976
 20
-165.845
 11
181.167
 21
-165.687
  0
LINE
  8
0
 10
181.167
 20
-165.687
 11
181.375
 21
-165.551
  0
LINE
  8
0
 10
181.375
 20
-165.551
 11
181.596
 21
-165.44
  0
LINE
  8
0
 10
181.596
 20
-165.44
 11
181.828
 21
-165.353
  0
LINE
  8
0
 10
181.828
 20
-165.353
 11
182.069
 21
-165.292
  0
LINE
  8
0
 10
182.069
 20
-165.292
 11
182.314
 21
-165.258
  0
LINE
  8
0
 10
182.314
 20
-165.258
 11
182.562
 21
-165.251
  0
LINE
  8
0
 10
182.562
 20
-165.251
 11
182.809
 21
-165.271
  0
LINE
  8
0
 10
182.809
 20
-165.271
 11
183.052
 21
-165.319
  0
LINE
  8
0
 10
183.052
 20
-165.319
 11
183.289
 21
-165.393
  0
LINE
  8
0
 10
183.289
 20
-165.393
 11
183.516
 21
-165.492
  0
LINE
  8
0
 10
183.516
 20
-165.492
 11
183.731
 21
-165.616
  0
LINE
  8
0
 10
183.731
 20
-165.616
 11
183.93
 21
-165.763
  0
LINE
  8
0
 10
183.93
 20
-165.763
 11
184.113
 21
-165.931
  0
LINE
  8
0
 10
184.113
 20
-165.931
 11
184.276
 21
-166.118
  0
LINE
  8
0
 10
184.276
 20
-166.118
 11
184.417
 21
-166.322
  0
LINE
  8
0
 10
184.417
 20
-166.322
 11
184.535
 21
-166.54
  0
LINE
  8
0
 10
184.535
 20
-166.54
 11
184.628
 21
-166.769
  0
LINE
  8
0
 10
184.628
 20
-166.769
 11
184.696
 21
-167.008
  0
LINE
  8
0
 10
184.696
 20
-167.008
 11
184.736
 21
-167.252
  0
LINE
  8
0
 10
184.736
 20
-167.252
 11
184.75
 21
-167.5
  0
LINE
  8
0
 10
184.75
 20
-167.5
 11
184.736
 21
-167.748
  0
LINE
  8
0
 10
184.736
 20
-167.748
 11
184.696
 21
-167.992
  0
LINE
  8
0
 10
184.696
 20
-167.992
 11
184.628
 21
-168.231
  0
LINE
  8
0
 10
184.628
 20
-168.231
 11
184.535
 21
-168.46
  0
LINE
  8
0
 10
184.535
 20
-168.46
 11
184.417
 21
-168.678
  0
LINE
  8
0
 10
184.417
 20
-168.678
 11
184.276
 21
-168.882
  0
LINE
  8
0
 10
184.276
 20
-168.882
 11
184.113
 21
-169.069
  0
LINE
  8
0
 10
184.113
 20
-169.069
 11
183.93
 21
-169.237
  0
LINE
  8
0
 10
183.93
 20
-169.237
 11
183.731
 21
-169.384
  0
LINE
  8
0
 10
183.731
 20
-169.384
 11
183.516
 21
-169.508
  0
LINE
  8
0
 10
183.516
 20
-169.508
 11
183.289
 21
-169.607
  0
LINE
  8
0
 10
183.289
 20
-169.607
 11
183.052
 21
-169.681
  0
LINE
  8
0
 10
183.052
 20
-169.681
 11
182.809
 21
-169.729
  0
LINE
  8
0
 10
182.809
 20
-169.729
 11
182.562
 21
-169.749
  0
LINE
  8
0
 10
182.562
 20
-169.749
 11
182.314
 21
-169.742
  0
LINE
  8
0
 10
-0.185791
 20
-169.742
 11
-0.431335
 21
-169.708
  0
LINE
  8
0
 10
-0.431335
 20
-169.708
 11
-0.671646
 21
-169.647
  0
LINE
  8
0
 10
-0.671646
 20
-169.647
 11
-0.903809
 21
-169.56
  0
LINE
  8
0
 10
-0.903809
 20
-169.56
 11
-1.125
 21
-169.449
  0
LINE
  8
0
 10
-1.125
 20
-169.449
 11
-1.33252
 21
-169.313
  0
LINE
  8
0
 10
-1.33252
 20
-169.313
 11
-1.52388
 21
-169.155
  0
LINE
  8
0
 10
-1.52388
 20
-169.155
 11
-1.69673
 21
-168.978
  0
LINE
  8
0
 10
-1.69673
 20
-168.978
 11
-1.849
 21
-168.782
  0
LINE
  8
0
 10
-1.849
 20
-168.782
 11
-1.97881
 21
-168.571
  0
LINE
  8
0
 10
-1.97881
 20
-168.571
 11
-2.08461
 21
-168.347
  0
LINE
  8
0
 10
-2.08461
 20
-168.347
 11
-2.1651
 21
-168.112
  0
LINE
  8
0
 10
-2.1651
 20
-168.112
 11
-2.2193
 21
-167.87
  0
LINE
  8
0
 10
-2.2193
 20
-167.87
 11
-2.24658
 21
-167.624
  0
LINE
  8
0
 10
-2.24658
 20
-167.624
 11
-2.24658
 21
-167.376
  0
LINE
  8
0
 10
-2.24658
 20
-167.376
 11
-2.2193
 21
-167.13
  0
LINE
  8
0
 10
-2.2193
 20
-167.13
 11
-2.1651
 21
-166.888
  0
LINE
  8
0
 10
-2.1651
 20
-166.888
 11
-2.08461
 21
-166.653
  0
LINE
  8
0
 10
-2.08461
 20
-166.653
 11
-1.97881
 21
-166.429
  0
LINE
  8
0
 10
-1.97881
 20
-166.429
 11
-1.849
 21
-166.218
  0
LINE
  8
0
 10
-1.849
 20
-166.218
 11
-1.69673
 21
-166.022
  0
LINE
  8
0
 10
-1.69673
 20
-166.022
 11
-1.52388
 21
-165.845
  0
LINE
  8
0
 10
-1.52388
 20
-165.845
 11
-1.33252
 21
-165.687
  0
LINE
  8
0
 10
-1.33252
 20
-165.687
 11
-1.125
 21
-165.551
  0
LINE
  8
0
 10
-1.125
 20
-165.551
 11
-0.903809
 21
-165.44
  0
LINE
  8
0
 10
-0.903809
 20
-165.44
 11
-0.671646
 21
-165.353
  0
LINE
  8
0
 10
-0.671646
 20
-165.353
 11
-0.431335
 21
-165.292
  0
LINE
  8
0
 10
-0.431335
 20
-165.292
 11
-0.185791
 21
-165.258
  0
LINE
  8
0
 10
-0.185791
 20
-165.258
 11
0.0619965
 21
-165.251
  0
LINE
  8
0
 10
0.0619965
 20
-165.251
 11
0.309036
 21
-165.271
  0
LINE
  8
0
 10
0.309036
 20
-165.271
 11
0.552338
 21
-165.319
  0
LINE
  8
0
 10
0.552338
 20
-165.319
 11
0.788925
 21
-165.393
  0
LINE
  8
0
 10
0.788925
 20
-165.393
 11
1.01595
 21
-165.492
  0
LINE
  8
0
 10
1.01595
 20
-165.492
 11
1.23062
 21
-165.616
  0
LINE
  8
0
 10
1.23062
 20
-165.616
 11
1.43037
 21
-165.763
  0
LINE
  8
0
 10
1.43037
 20
-165.763
 11
1.61275
 21
-165.931
  0
LINE
  8
0
 10
1.61275
 20
-165.931
 11
1.77556
 21
-166.118
  0
LINE
  8
0
 10
1.77556
 20
-166.118
 11
1.91681
 21
-166.322
  0
LINE
  8
0
 10
1.91681
 20
-166.322
 11
2.03479
 21
-166.54
  0
LINE
  8
0
 10
2.03479
 20
-166.54
 11
2.12808
 21
-166.769
  0
LINE
  8
0
 10
2.12808
 20
-166.769
 11
2.19554
 21
-167.008
  0
LINE
  8
0
 10
2.19554
 20
-167.008
 11
2.23634
 21
-167.252
  0
LINE
  8
0
 10
2.23634
 20
-167.252
 11
2.25
 21
-167.5
  0
LINE
  8
0
 10
2.25
 20
-167.5
 11
2.23634
 21
-167.748
  0
LINE
  8
0
 10
2.23634
 20
-167.748
 11
2.19554
 21
-167.992
  0
LINE
  8
0
 10
2.19554
 20
-167.992
 11
2.12808
 21
-168.231
  0
LINE
  8
0
 10
2.12808
 20
-168.231
 11
2.03479
 21
-168.46
  0
LINE
  8
0
 10
2.03479
 20
-168.46
 11
1.91681
 21
-168.678
  0
LINE
  8
0
 10
1.91681
 20
-168.678
 11
1.77556
 21
-168.882
  0
LINE
  8
0
 10
1.77556
 20
-168.882
 11
1.61275
 21
-169.069
  0
LINE
  8
0
 10
1.61275
 20
-169.069
 11
1.43037
 21
-169.237
  0
LINE
  8
0
 10
1.43037
 20
-169.237
 11
1.23062
 21
-169.384
  0
LINE
  8
0
 10
1.23062
 20
-169.384
 11
1.01595
 21
-169.508
  0
LINE
  8
0
 10
1.01595
 20
-169.508
 11
0.788925
 21
-169.607
  0
LINE
  8
0
 10
0.788925
 20
-169.607
 11
0.552338
 21
-169.681
  0
LINE
  8
0
 10
0.552338
 20
-169.681
 11
0.309036
 21
-169.729
  0
LINE
  8
0
 10
0.309036
 20
-169.729
 11
0.0619965
 21
-169.749
  0
LINE
  8
0
 10
0.0619965
 20
-169.749
 11
-0.185791
 21
-169.742
  0
ENDSEC
  0
SECTION
  2
OBJECTS
  0
DICTIONARY
  0
ENDSEC
  0
EOF
