  0
SECTION
  2
BLOCKS
  0
ENDSEC
  0
SECTION
  2
ENTITIES
  0
LINE
  8
0
 10
233.898
 20
-89.8476
 11
234.415
 21
-89.7657
  0
LINE
  8
0
 10
234.415
 20
-89.7657
 11
234.92
 21
-89.6303
  0
LINE
  8
0
 10
234.92
 20
-89.6303
 11
235.409
 21
-89.4427
  0
LINE
  8
0
 10
235.409
 20
-89.4427
 11
235.875
 21
-89.2051
  0
LINE
  8
0
 10
235.875
 20
-89.2051
 11
236.314
 21
-88.9201
  0
LINE
  8
0
 10
236.314
 20
-88.9201
 11
236.721
 21
-88.5907
  0
LINE
  8
0
 10
236.721
 20
-88.5907
 11
237.091
 21
-88.2207
  0
LINE
  8
0
 10
237.091
 20
-88.2207
 11
237.42
 21
-87.8139
  0
LINE
  8
0
 10
237.42
 20
-87.8139
 11
237.705
 21
-87.375
  0
LINE
  8
0
 10
237.705
 20
-87.375
 11
237.943
 21
-86.9087
  0
LINE
  8
0
 10
237.943
 20
-86.9087
 11
238.13
 21
-86.4201
  0
LINE
  8
0
 10
238.13
 20
-86.4201
 11
238.266
 21
-85.9146
  0
LINE
  8
0
 10
238.266
 20
-85.9146
 11
238.348
 21
-85.3976
  0
LINE
  8
0
 10
238.348
 20
-85.3976
 11
238.375
 21
-84.875
  0
LINE
  8
0
 10
238.375
 20
-84.875
 11
238.375
 21
84.875
  0
LINE
  8
0
 10
238.375
 20
84.875
 11
238.348
 21
85.3976
  0
LINE
  8
0
 10
238.348
 20
85.3976
 11
238.266
 21
85.9146
  0
LINE
  8
0
 10
238.266
 20
85.9146
 11
238.13
 21
86.4201
  0
LINE
  8
0
 10
238.13
 20
86.4201
 11
237.943
 21
86.9087
  0
LINE
  8
0
 10
237.943
 20
86.9087
 11
237.705
 21
87.375
  0
LINE
  8
0
 10
237.705
 20
87.375
 11
237.42
 21
87.8139
  0
LINE
  8
0
 10
237.42
 20
87.8139
 11
237.091
 21
88.2207
  0
LINE
  8
0
 10
237.091
 20
88.2207
 11
236.721
 21
88.5907
  0
LINE
  8
0
 10
236.721
 20
88.5907
 11
236.314
 21
88.9201
  0
LINE
  8
0
 10
236.314
 20
88.9201
 11
235.875
 21
89.2051
  0
LINE
  8
0
 10
235.875
 20
89.2051
 11
235.409
 21
89.4427
  0
LINE
  8
0
 10
235.409
 20
89.4427
 11
234.92
 21
89.6303
  0
LINE
  8
0
 10
234.92
 20
89.6303
 11
234.415
 21
89.7657
  0
LINE
  8
0
 10
234.415
 20
89.7657
 11
233.898
 21
89.8476
  0
LINE
  8
0
 10
233.898
 20
89.8476
 11
233.375
 21
89.875
  0
LINE
  8
0
 10
233.375
 20
89.875
 11
-233.375
 21
89.875
  0
LINE
  8
0
 10
-233.375
 20
89.875
 11
-233.898
 21
89.8476
  0
LINE
  8
0
 10
-233.898
 20
89.8476
 11
-234.415
 21
89.7657
  0
LINE
  8
0
 10
-234.415
 20
89.7657
 11
-234.92
 21
89.6303
  0
LINE
  8
0
 10
-234.92
 20
89.6303
 11
-235.409
 21
89.4427
  0
LINE
  8
0
 10
-235.409
 20
89.4427
 11
-235.875
 21
89.2051
  0
LINE
  8
0
 10
-235.875
 20
89.2051
 11
-236.314
 21
88.9201
  0
LINE
  8
0
 10
-236.314
 20
88.9201
 11
-236.721
 21
88.5907
  0
LINE
  8
0
 10
-236.721
 20
88.5907
 11
-237.091
 21
88.2207
  0
LINE
  8
0
 10
-237.091
 20
88.2207
 11
-237.42
 21
87.8139
  0
LINE
  8
0
 10
-237.42
 20
87.8139
 11
-237.705
 21
87.375
  0
LINE
  8
0
 10
-237.705
 20
87.375
 11
-237.943
 21
86.9087
  0
LINE
  8
0
 10
-237.943
 20
86.9087
 11
-238.13
 21
86.4201
  0
LINE
  8
0
 10
-238.13
 20
86.4201
 11
-238.266
 21
85.9146
  0
LINE
  8
0
 10
-238.266
 20
85.9146
 11
-238.348
 21
85.3976
  0
LINE
  8
0
 10
-238.348
 20
85.3976
 11
-238.375
 21
84.875
  0
LINE
  8
0
 10
-238.375
 20
84.875
 11
-238.375
 21
-84.875
  0
LINE
  8
0
 10
-238.375
 20
-84.875
 11
-238.348
 21
-85.3976
  0
LINE
  8
0
 10
-238.348
 20
-85.3976
 11
-238.266
 21
-85.9146
  0
LINE
  8
0
 10
-238.266
 20
-85.9146
 11
-238.13
 21
-86.4201
  0
LINE
  8
0
 10
-238.13
 20
-86.4201
 11
-237.943
 21
-86.9087
  0
LINE
  8
0
 10
-237.943
 20
-86.9087
 11
-237.705
 21
-87.375
  0
LINE
  8
0
 10
-237.705
 20
-87.375
 11
-237.42
 21
-87.8139
  0
LINE
  8
0
 10
-237.42
 20
-87.8139
 11
-237.091
 21
-88.2207
  0
LINE
  8
0
 10
-237.091
 20
-88.2207
 11
-236.721
 21
-88.5907
  0
LINE
  8
0
 10
-236.721
 20
-88.5907
 11
-236.314
 21
-88.9201
  0
LINE
  8
0
 10
-236.314
 20
-88.9201
 11
-235.875
 21
-89.2051
  0
LINE
  8
0
 10
-235.875
 20
-89.2051
 11
-235.409
 21
-89.4427
  0
LINE
  8
0
 10
-235.409
 20
-89.4427
 11
-234.92
 21
-89.6303
  0
LINE
  8
0
 10
-234.92
 20
-89.6303
 11
-234.415
 21
-89.7657
  0
LINE
  8
0
 10
-234.415
 20
-89.7657
 11
-233.898
 21
-89.8476
  0
LINE
  8
0
 10
-233.898
 20
-89.8476
 11
-233.375
 21
-89.875
  0
LINE
  8
0
 10
-233.375
 20
-89.875
 11
233.375
 21
-89.875
  0
LINE
  8
0
 10
233.375
 20
-89.875
 11
233.898
 21
-89.8476
  0
LINE
  8
0
 10
-229.023
 20
75.0274
 11
-229.54
 21
75.1093
  0
LINE
  8
0
 10
-229.54
 20
75.1093
 11
-230.045
 21
75.2447
  0
LINE
  8
0
 10
-230.045
 20
75.2447
 11
-230.534
 21
75.4323
  0
LINE
  8
0
 10
-230.534
 20
75.4323
 11
-231
 21
75.6699
  0
LINE
  8
0
 10
-231
 20
75.6699
 11
-231.439
 21
75.9549
  0
LINE
  8
0
 10
-231.439
 20
75.9549
 11
-231.846
 21
76.2843
  0
LINE
  8
0
 10
-231.846
 20
76.2843
 11
-232.216
 21
76.6543
  0
LINE
  8
0
 10
-232.216
 20
76.6543
 11
-232.545
 21
77.0611
  0
LINE
  8
0
 10
-232.545
 20
77.0611
 11
-232.83
 21
77.5
  0
LINE
  8
0
 10
-232.83
 20
77.5
 11
-233.068
 21
77.9663
  0
LINE
  8
0
 10
-233.068
 20
77.9663
 11
-233.255
 21
78.4549
  0
LINE
  8
0
 10
-233.255
 20
78.4549
 11
-233.391
 21
78.9604
  0
LINE
  8
0
 10
-233.391
 20
78.9604
 11
-233.473
 21
79.4774
  0
LINE
  8
0
 10
-233.473
 20
79.4774
 11
-233.5
 21
80
  0
LINE
  8
0
 10
-233.5
 20
80
 11
-233.473
 21
80.5226
  0
LINE
  8
0
 10
-233.473
 20
80.5226
 11
-233.391
 21
81.0396
  0
LINE
  8
0
 10
-233.391
 20
81.0396
 11
-233.255
 21
81.5451
  0
LINE
  8
0
 10
-233.255
 20
81.5451
 11
-233.068
 21
82.0337
  0
LINE
  8
0
 10
-233.068
 20
82.0337
 11
-232.83
 21
82.5
  0
LINE
  8
0
 10
-232.83
 20
82.5
 11
-232.545
 21
82.9389
  0
LINE
  8
0
 10
-232.545
 20
82.9389
 11
-232.216
 21
83.3456
  0
LINE
  8
0
 10
-232.216
 20
83.3456
 11
-231.846
 21
83.7157
  0
LINE
  8
0
 10
-231.846
 20
83.7157
 11
-231.439
 21
84.0451
  0
LINE
  8
0
 10
-231.439
 20
84.0451
 11
-231
 21
84.3301
  0
LINE
  8
0
 10
-231
 20
84.3301
 11
-230.534
 21
84.5677
  0
LINE
  8
0
 10
-230.534
 20
84.5677
 11
-230.045
 21
84.7553
  0
LINE
  8
0
 10
-230.045
 20
84.7553
 11
-229.54
 21
84.8907
  0
LINE
  8
0
 10
-229.54
 20
84.8907
 11
-229.023
 21
84.9726
  0
LINE
  8
0
 10
-229.023
 20
84.9726
 11
-228.5
 21
85
  0
LINE
  8
0
 10
-228.5
 20
85
 11
-227.977
 21
84.9726
  0
LINE
  8
0
 10
-227.977
 20
84.9726
 11
-227.46
 21
84.8907
  0
LINE
  8
0
 10
-227.46
 20
84.8907
 11
-226.955
 21
84.7553
  0
LINE
  8
0
 10
-226.955
 20
84.7553
 11
-226.466
 21
84.5677
  0
LINE
  8
0
 10
-226.466
 20
84.5677
 11
-226
 21
84.3301
  0
LINE
  8
0
 10
-226
 20
84.3301
 11
-225.561
 21
84.0451
  0
LINE
  8
0
 10
-225.561
 20
84.0451
 11
-225.154
 21
83.7157
  0
LINE
  8
0
 10
-225.154
 20
83.7157
 11
-224.784
 21
83.3456
  0
LINE
  8
0
 10
-224.784
 20
83.3456
 11
-224.455
 21
82.9389
  0
LINE
  8
0
 10
-224.455
 20
82.9389
 11
-224.17
 21
82.5
  0
LINE
  8
0
 10
-224.17
 20
82.5
 11
-223.932
 21
82.0337
  0
LINE
  8
0
 10
-223.932
 20
82.0337
 11
-223.745
 21
81.5451
  0
LINE
  8
0
 10
-223.745
 20
81.5451
 11
-223.609
 21
81.0396
  0
LINE
  8
0
 10
-223.609
 20
81.0396
 11
-223.527
 21
80.5226
  0
LINE
  8
0
 10
-223.527
 20
80.5226
 11
-223.5
 21
80
  0
LINE
  8
0
 10
-223.5
 20
80
 11
-223.527
 21
79.4774
  0
LINE
  8
0
 10
-223.527
 20
79.4774
 11
-223.609
 21
78.9604
  0
LINE
  8
0
 10
-223.609
 20
78.9604
 11
-223.745
 21
78.4549
  0
LINE
  8
0
 10
-223.745
 20
78.4549
 11
-223.932
 21
77.9663
  0
LINE
  8
0
 10
-223.932
 20
77.9663
 11
-224.17
 21
77.5
  0
LINE
  8
0
 10
-224.17
 20
77.5
 11
-224.455
 21
77.0611
  0
LINE
  8
0
 10
-224.455
 20
77.0611
 11
-224.784
 21
76.6543
  0
LINE
  8
0
 10
-224.784
 20
76.6543
 11
-225.154
 21
76.2843
  0
LINE
  8
0
 10
-225.154
 20
76.2843
 11
-225.561
 21
75.9549
  0
LINE
  8
0
 10
-225.561
 20
75.9549
 11
-226
 21
75.6699
  0
LINE
  8
0
 10
-226
 20
75.6699
 11
-226.466
 21
75.4323
  0
LINE
  8
0
 10
-226.466
 20
75.4323
 11
-226.955
 21
75.2447
  0
LINE
  8
0
 10
-226.955
 20
75.2447
 11
-227.46
 21
75.1093
  0
LINE
  8
0
 10
-227.46
 20
75.1093
 11
-227.977
 21
75.0274
  0
LINE
  8
0
 10
-227.977
 20
75.0274
 11
-228.5
 21
75
  0
LINE
  8
0
 10
-228.5
 20
75
 11
-229.023
 21
75.0274
  0
LINE
  8
0
 10
227.977
 20
75.0274
 11
227.46
 21
75.1093
  0
LINE
  8
0
 10
227.46
 20
75.1093
 11
226.955
 21
75.2447
  0
LINE
  8
0
 10
226.955
 20
75.2447
 11
226.466
 21
75.4323
  0
LINE
  8
0
 10
226.466
 20
75.4323
 11
226
 21
75.6699
  0
LINE
  8
0
 10
226
 20
75.6699
 11
225.561
 21
75.9549
  0
LINE
  8
0
 10
225.561
 20
75.9549
 11
225.154
 21
76.2843
  0
LINE
  8
0
 10
225.154
 20
76.2843
 11
224.784
 21
76.6543
  0
LINE
  8
0
 10
224.784
 20
76.6543
 11
224.455
 21
77.0611
  0
LINE
  8
0
 10
224.455
 20
77.0611
 11
224.17
 21
77.5
  0
LINE
  8
0
 10
224.17
 20
77.5
 11
223.932
 21
77.9663
  0
LINE
  8
0
 10
223.932
 20
77.9663
 11
223.745
 21
78.4549
  0
LINE
  8
0
 10
223.745
 20
78.4549
 11
223.609
 21
78.9604
  0
LINE
  8
0
 10
223.609
 20
78.9604
 11
223.527
 21
79.4774
  0
LINE
  8
0
 10
223.527
 20
79.4774
 11
223.5
 21
80
  0
LINE
  8
0
 10
223.5
 20
80
 11
223.527
 21
80.5226
  0
LINE
  8
0
 10
223.527
 20
80.5226
 11
223.609
 21
81.0396
  0
LINE
  8
0
 10
223.609
 20
81.0396
 11
223.745
 21
81.5451
  0
LINE
  8
0
 10
223.745
 20
81.5451
 11
223.932
 21
82.0337
  0
LINE
  8
0
 10
223.932
 20
82.0337
 11
224.17
 21
82.5
  0
LINE
  8
0
 10
224.17
 20
82.5
 11
224.455
 21
82.9389
  0
LINE
  8
0
 10
224.455
 20
82.9389
 11
224.784
 21
83.3456
  0
LINE
  8
0
 10
224.784
 20
83.3456
 11
225.154
 21
83.7157
  0
LINE
  8
0
 10
225.154
 20
83.7157
 11
225.561
 21
84.0451
  0
LINE
  8
0
 10
225.561
 20
84.0451
 11
226
 21
84.3301
  0
LINE
  8
0
 10
226
 20
84.3301
 11
226.466
 21
84.5677
  0
LINE
  8
0
 10
226.466
 20
84.5677
 11
226.955
 21
84.7553
  0
LINE
  8
0
 10
226.955
 20
84.7553
 11
227.46
 21
84.8907
  0
LINE
  8
0
 10
227.46
 20
84.8907
 11
227.977
 21
84.9726
  0
LINE
  8
0
 10
227.977
 20
84.9726
 11
228.5
 21
85
  0
LINE
  8
0
 10
228.5
 20
85
 11
229.023
 21
84.9726
  0
LINE
  8
0
 10
229.023
 20
84.9726
 11
229.54
 21
84.8907
  0
LINE
  8
0
 10
229.54
 20
84.8907
 11
230.045
 21
84.7553
  0
LINE
  8
0
 10
230.045
 20
84.7553
 11
230.534
 21
84.5677
  0
LINE
  8
0
 10
230.534
 20
84.5677
 11
231
 21
84.3301
  0
LINE
  8
0
 10
231
 20
84.3301
 11
231.439
 21
84.0451
  0
LINE
  8
0
 10
231.439
 20
84.0451
 11
231.846
 21
83.7157
  0
LINE
  8
0
 10
231.846
 20
83.7157
 11
232.216
 21
83.3456
  0
LINE
  8
0
 10
232.216
 20
83.3456
 11
232.545
 21
82.9389
  0
LINE
  8
0
 10
232.545
 20
82.9389
 11
232.83
 21
82.5
  0
LINE
  8
0
 10
232.83
 20
82.5
 11
233.068
 21
82.0337
  0
LINE
  8
0
 10
233.068
 20
82.0337
 11
233.255
 21
81.5451
  0
LINE
  8
0
 10
233.255
 20
81.5451
 11
233.391
 21
81.0396
  0
LINE
  8
0
 10
233.391
 20
81.0396
 11
233.473
 21
80.5226
  0
LINE
  8
0
 10
233.473
 20
80.5226
 11
233.5
 21
80
  0
LINE
  8
0
 10
233.5
 20
80
 11
233.473
 21
79.4774
  0
LINE
  8
0
 10
233.473
 20
79.4774
 11
233.391
 21
78.9604
  0
LINE
  8
0
 10
233.391
 20
78.9604
 11
233.255
 21
78.4549
  0
LINE
  8
0
 10
233.255
 20
78.4549
 11
233.068
 21
77.9663
  0
LINE
  8
0
 10
233.068
 20
77.9663
 11
232.83
 21
77.5
  0
LINE
  8
0
 10
232.83
 20
77.5
 11
232.545
 21
77.0611
  0
LINE
  8
0
 10
232.545
 20
77.0611
 11
232.216
 21
76.6543
  0
LINE
  8
0
 10
232.216
 20
76.6543
 11
231.846
 21
76.2843
  0
LINE
  8
0
 10
231.846
 20
76.2843
 11
231.439
 21
75.9549
  0
LINE
  8
0
 10
231.439
 20
75.9549
 11
231
 21
75.6699
  0
LINE
  8
0
 10
231
 20
75.6699
 11
230.534
 21
75.4323
  0
LINE
  8
0
 10
230.534
 20
75.4323
 11
230.045
 21
75.2447
  0
LINE
  8
0
 10
230.045
 20
75.2447
 11
229.54
 21
75.1093
  0
LINE
  8
0
 10
229.54
 20
75.1093
 11
229.023
 21
75.0274
  0
LINE
  8
0
 10
229.023
 20
75.0274
 11
228.5
 21
75
  0
LINE
  8
0
 10
228.5
 20
75
 11
227.977
 21
75.0274
  0
LINE
  8
0
 10
188.314
 20
77.7577
 11
188.069
 21
77.7917
  0
LINE
  8
0
 10
188.069
 20
77.7917
 11
187.828
 21
77.8526
  0
LINE
  8
0
 10
187.828
 20
77.8526
 11
187.596
 21
77.9395
  0
LINE
  8
0
 10
187.596
 20
77.9395
 11
187.375
 21
78.0514
  0
LINE
  8
0
 10
187.375
 20
78.0514
 11
187.167
 21
78.187
  0
LINE
  8
0
 10
187.167
 20
78.187
 11
186.976
 21
78.3446
  0
LINE
  8
0
 10
186.976
 20
78.3446
 11
186.803
 21
78.5223
  0
LINE
  8
0
 10
186.803
 20
78.5223
 11
186.651
 21
78.7179
  0
LINE
  8
0
 10
186.651
 20
78.7179
 11
186.521
 21
78.9291
  0
LINE
  8
0
 10
186.521
 20
78.9291
 11
186.415
 21
79.1533
  0
LINE
  8
0
 10
186.415
 20
79.1533
 11
186.335
 21
79.3878
  0
LINE
  8
0
 10
186.335
 20
79.3878
 11
186.281
 21
79.6297
  0
LINE
  8
0
 10
186.281
 20
79.6297
 11
186.253
 21
79.8761
  0
LINE
  8
0
 10
186.253
 20
79.8761
 11
186.253
 21
80.1239
  0
LINE
  8
0
 10
186.253
 20
80.1239
 11
186.281
 21
80.3703
  0
LINE
  8
0
 10
186.281
 20
80.3703
 11
186.335
 21
80.6122
  0
LINE
  8
0
 10
186.335
 20
80.6122
 11
186.415
 21
80.8467
  0
LINE
  8
0
 10
186.415
 20
80.8467
 11
186.521
 21
81.0709
  0
LINE
  8
0
 10
186.521
 20
81.0709
 11
186.651
 21
81.2821
  0
LINE
  8
0
 10
186.651
 20
81.2821
 11
186.803
 21
81.4777
  0
LINE
  8
0
 10
186.803
 20
81.4777
 11
186.976
 21
81.6554
  0
LINE
  8
0
 10
186.976
 20
81.6554
 11
187.167
 21
81.813
  0
LINE
  8
0
 10
187.167
 20
81.813
 11
187.375
 21
81.9485
  0
LINE
  8
0
 10
187.375
 20
81.9485
 11
187.596
 21
82.0605
  0
LINE
  8
0
 10
187.596
 20
82.0605
 11
187.828
 21
82.1474
  0
LINE
  8
0
 10
187.828
 20
82.1474
 11
188.069
 21
82.2083
  0
LINE
  8
0
 10
188.069
 20
82.2083
 11
188.314
 21
82.2423
  0
LINE
  8
0
 10
188.314
 20
82.2423
 11
188.562
 21
82.2491
  0
LINE
  8
0
 10
188.562
 20
82.2491
 11
188.809
 21
82.2287
  0
LINE
  8
0
 10
188.809
 20
82.2287
 11
189.052
 21
82.1812
  0
LINE
  8
0
 10
189.052
 20
82.1812
 11
189.289
 21
82.1071
  0
LINE
  8
0
 10
189.289
 20
82.1071
 11
189.516
 21
82.0076
  0
LINE
  8
0
 10
189.516
 20
82.0076
 11
189.731
 21
81.8836
  0
LINE
  8
0
 10
189.731
 20
81.8836
 11
189.93
 21
81.7368
  0
LINE
  8
0
 10
189.93
 20
81.7368
 11
190.113
 21
81.5689
  0
LINE
  8
0
 10
190.113
 20
81.5689
 11
190.276
 21
81.382
  0
LINE
  8
0
 10
190.276
 20
81.382
 11
190.417
 21
81.1783
  0
LINE
  8
0
 10
190.417
 20
81.1783
 11
190.535
 21
80.9602
  0
LINE
  8
0
 10
190.535
 20
80.9602
 11
190.628
 21
80.7306
  0
LINE
  8
0
 10
190.628
 20
80.7306
 11
190.696
 21
80.492
  0
LINE
  8
0
 10
190.696
 20
80.492
 11
190.736
 21
80.2475
  0
LINE
  8
0
 10
190.736
 20
80.2475
 11
190.75
 21
80
  0
LINE
  8
0
 10
190.75
 20
80
 11
190.736
 21
79.7525
  0
LINE
  8
0
 10
190.736
 20
79.7525
 11
190.696
 21
79.508
  0
LINE
  8
0
 10
190.696
 20
79.508
 11
190.628
 21
79.2694
  0
LINE
  8
0
 10
190.628
 20
79.2694
 11
190.535
 21
79.0397
  0
LINE
  8
0
 10
190.535
 20
79.0397
 11
190.417
 21
78.8217
  0
LINE
  8
0
 10
190.417
 20
78.8217
 11
190.276
 21
78.618
  0
LINE
  8
0
 10
190.276
 20
78.618
 11
190.113
 21
78.4311
  0
LINE
  8
0
 10
190.113
 20
78.4311
 11
189.93
 21
78.2632
  0
LINE
  8
0
 10
189.93
 20
78.2632
 11
189.731
 21
78.1164
  0
LINE
  8
0
 10
189.731
 20
78.1164
 11
189.516
 21
77.9924
  0
LINE
  8
0
 10
189.516
 20
77.9924
 11
189.289
 21
77.8929
  0
LINE
  8
0
 10
189.289
 20
77.8929
 11
189.052
 21
77.8188
  0
LINE
  8
0
 10
189.052
 20
77.8188
 11
188.809
 21
77.7713
  0
LINE
  8
0
 10
188.809
 20
77.7713
 11
188.562
 21
77.7509
  0
LINE
  8
0
 10
188.562
 20
77.7509
 11
188.314
 21
77.7577
  0
LINE
  8
0
 10
94.0642
 20
77.7577
 11
93.8186
 21
77.7917
  0
LINE
  8
0
 10
93.8186
 20
77.7917
 11
93.5783
 21
77.8526
  0
LINE
  8
0
 10
93.5783
 20
77.8526
 11
93.3462
 21
77.9395
  0
LINE
  8
0
 10
93.3462
 20
77.9395
 11
93.125
 21
78.0514
  0
LINE
  8
0
 10
93.125
 20
78.0514
 11
92.9175
 21
78.187
  0
LINE
  8
0
 10
92.9175
 20
78.187
 11
92.7261
 21
78.3446
  0
LINE
  8
0
 10
92.7261
 20
78.3446
 11
92.5533
 21
78.5223
  0
LINE
  8
0
 10
92.5533
 20
78.5223
 11
92.401
 21
78.7179
  0
LINE
  8
0
 10
92.401
 20
78.7179
 11
92.2712
 21
78.9291
  0
LINE
  8
0
 10
92.2712
 20
78.9291
 11
92.1654
 21
79.1533
  0
LINE
  8
0
 10
92.1654
 20
79.1533
 11
92.0849
 21
79.3878
  0
LINE
  8
0
 10
92.0849
 20
79.3878
 11
92.0307
 21
79.6297
  0
LINE
  8
0
 10
92.0307
 20
79.6297
 11
92.0034
 21
79.8761
  0
LINE
  8
0
 10
92.0034
 20
79.8761
 11
92.0034
 21
80.1239
  0
LINE
  8
0
 10
92.0034
 20
80.1239
 11
92.0307
 21
80.3703
  0
LINE
  8
0
 10
92.0307
 20
80.3703
 11
92.0849
 21
80.6122
  0
LINE
  8
0
 10
92.0849
 20
80.6122
 11
92.1654
 21
80.8467
  0
LINE
  8
0
 10
92.1654
 20
80.8467
 11
92.2712
 21
81.0709
  0
LINE
  8
0
 10
92.2712
 20
81.0709
 11
92.401
 21
81.2821
  0
LINE
  8
0
 10
92.401
 20
81.2821
 11
92.5533
 21
81.4777
  0
LINE
  8
0
 10
92.5533
 20
81.4777
 11
92.7261
 21
81.6554
  0
LINE
  8
0
 10
92.7261
 20
81.6554
 11
92.9175
 21
81.813
  0
LINE
  8
0
 10
92.9175
 20
81.813
 11
93.125
 21
81.9485
  0
LINE
  8
0
 10
93.125
 20
81.9485
 11
93.3462
 21
82.0605
  0
LINE
  8
0
 10
93.3462
 20
82.0605
 11
93.5783
 21
82.1474
  0
LINE
  8
0
 10
93.5783
 20
82.1474
 11
93.8186
 21
82.2083
  0
LINE
  8
0
 10
93.8186
 20
82.2083
 11
94.0642
 21
82.2423
  0
LINE
  8
0
 10
94.0642
 20
82.2423
 11
94.312
 21
82.2491
  0
LINE
  8
0
 10
94.312
 20
82.2491
 11
94.559
 21
82.2287
  0
LINE
  8
0
 10
94.559
 20
82.2287
 11
94.8023
 21
82.1812
  0
LINE
  8
0
 10
94.8023
 20
82.1812
 11
95.0389
 21
82.1071
  0
LINE
  8
0
 10
95.0389
 20
82.1071
 11
95.2659
 21
82.0076
  0
LINE
  8
0
 10
95.2659
 20
82.0076
 11
95.4806
 21
81.8836
  0
LINE
  8
0
 10
95.4806
 20
81.8836
 11
95.6804
 21
81.7368
  0
LINE
  8
0
 10
95.6804
 20
81.7368
 11
95.8628
 21
81.5689
  0
LINE
  8
0
 10
95.8628
 20
81.5689
 11
96.0256
 21
81.382
  0
LINE
  8
0
 10
96.0256
 20
81.382
 11
96.1668
 21
81.1783
  0
LINE
  8
0
 10
96.1668
 20
81.1783
 11
96.2848
 21
80.9602
  0
LINE
  8
0
 10
96.2848
 20
80.9602
 11
96.3781
 21
80.7306
  0
LINE
  8
0
 10
96.3781
 20
80.7306
 11
96.4455
 21
80.492
  0
LINE
  8
0
 10
96.4455
 20
80.492
 11
96.4863
 21
80.2475
  0
LINE
  8
0
 10
96.4863
 20
80.2475
 11
96.5
 21
80
  0
LINE
  8
0
 10
96.5
 20
80
 11
96.4863
 21
79.7525
  0
LINE
  8
0
 10
96.4863
 20
79.7525
 11
96.4455
 21
79.508
  0
LINE
  8
0
 10
96.4455
 20
79.508
 11
96.3781
 21
79.2694
  0
LINE
  8
0
 10
96.3781
 20
79.2694
 11
96.2848
 21
79.0397
  0
LINE
  8
0
 10
96.2848
 20
79.0397
 11
96.1668
 21
78.8217
  0
LINE
  8
0
 10
96.1668
 20
78.8217
 11
96.0256
 21
78.618
  0
LINE
  8
0
 10
96.0256
 20
78.618
 11
95.8628
 21
78.4311
  0
LINE
  8
0
 10
95.8628
 20
78.4311
 11
95.6804
 21
78.2632
  0
LINE
  8
0
 10
95.6804
 20
78.2632
 11
95.4806
 21
78.1164
  0
LINE
  8
0
 10
95.4806
 20
78.1164
 11
95.2659
 21
77.9924
  0
LINE
  8
0
 10
95.2659
 20
77.9924
 11
95.0389
 21
77.8929
  0
LINE
  8
0
 10
95.0389
 20
77.8929
 11
94.8023
 21
77.8188
  0
LINE
  8
0
 10
94.8023
 20
77.8188
 11
94.559
 21
77.7713
  0
LINE
  8
0
 10
94.559
 20
77.7713
 11
94.312
 21
77.7509
  0
LINE
  8
0
 10
94.312
 20
77.7509
 11
94.0642
 21
77.7577
  0
LINE
  8
0
 10
-188.686
 20
77.7577
 11
-188.931
 21
77.7917
  0
LINE
  8
0
 10
-188.931
 20
77.7917
 11
-189.172
 21
77.8526
  0
LINE
  8
0
 10
-189.172
 20
77.8526
 11
-189.404
 21
77.9395
  0
LINE
  8
0
 10
-189.404
 20
77.9395
 11
-189.625
 21
78.0514
  0
LINE
  8
0
 10
-189.625
 20
78.0514
 11
-189.833
 21
78.187
  0
LINE
  8
0
 10
-189.833
 20
78.187
 11
-190.024
 21
78.3446
  0
LINE
  8
0
 10
-190.024
 20
78.3446
 11
-190.197
 21
78.5223
  0
LINE
  8
0
 10
-190.197
 20
78.5223
 11
-190.349
 21
78.7179
  0
LINE
  8
0
 10
-190.349
 20
78.7179
 11
-190.479
 21
78.9291
  0
LINE
  8
0
 10
-190.479
 20
78.9291
 11
-190.585
 21
79.1533
  0
LINE
  8
0
 10
-190.585
 20
79.1533
 11
-190.665
 21
79.3878
  0
LINE
  8
0
 10
-190.665
 20
79.3878
 11
-190.719
 21
79.6297
  0
LINE
  8
0
 10
-190.719
 20
79.6297
 11
-190.747
 21
79.8761
  0
LINE
  8
0
 10
-190.747
 20
79.8761
 11
-190.747
 21
80.1239
  0
LINE
  8
0
 10
-190.747
 20
80.1239
 11
-190.719
 21
80.3703
  0
LINE
  8
0
 10
-190.719
 20
80.3703
 11
-190.665
 21
80.6122
  0
LINE
  8
0
 10
-190.665
 20
80.6122
 11
-190.585
 21
80.8467
  0
LINE
  8
0
 10
-190.585
 20
80.8467
 11
-190.479
 21
81.0709
  0
LINE
  8
0
 10
-190.479
 20
81.0709
 11
-190.349
 21
81.2821
  0
LINE
  8
0
 10
-190.349
 20
81.2821
 11
-190.197
 21
81.4777
  0
LINE
  8
0
 10
-190.197
 20
81.4777
 11
-190.024
 21
81.6554
  0
LINE
  8
0
 10
-190.024
 20
81.6554
 11
-189.833
 21
81.813
  0
LINE
  8
0
 10
-189.833
 20
81.813
 11
-189.625
 21
81.9485
  0
LINE
  8
0
 10
-189.625
 20
81.9485
 11
-189.404
 21
82.0605
  0
LINE
  8
0
 10
-189.404
 20
82.0605
 11
-189.172
 21
82.1474
  0
LINE
  8
0
 10
-189.172
 20
82.1474
 11
-188.931
 21
82.2083
  0
LINE
  8
0
 10
-188.931
 20
82.2083
 11
-188.686
 21
82.2423
  0
LINE
  8
0
 10
-188.686
 20
82.2423
 11
-188.438
 21
82.2491
  0
LINE
  8
0
 10
-188.438
 20
82.2491
 11
-188.191
 21
82.2287
  0
LINE
  8
0
 10
-188.191
 20
82.2287
 11
-187.948
 21
82.1812
  0
LINE
  8
0
 10
-187.948
 20
82.1812
 11
-187.711
 21
82.1071
  0
LINE
  8
0
 10
-187.711
 20
82.1071
 11
-187.484
 21
82.0076
  0
LINE
  8
0
 10
-187.484
 20
82.0076
 11
-187.269
 21
81.8836
  0
LINE
  8
0
 10
-187.269
 20
81.8836
 11
-187.07
 21
81.7368
  0
LINE
  8
0
 10
-187.07
 20
81.7368
 11
-186.887
 21
81.5689
  0
LINE
  8
0
 10
-186.887
 20
81.5689
 11
-186.724
 21
81.382
  0
LINE
  8
0
 10
-186.724
 20
81.382
 11
-186.583
 21
81.1783
  0
LINE
  8
0
 10
-186.583
 20
81.1783
 11
-186.465
 21
80.9602
  0
LINE
  8
0
 10
-186.465
 20
80.9602
 11
-186.372
 21
80.7306
  0
LINE
  8
0
 10
-186.372
 20
80.7306
 11
-186.304
 21
80.492
  0
LINE
  8
0
 10
-186.304
 20
80.492
 11
-186.264
 21
80.2475
  0
LINE
  8
0
 10
-186.264
 20
80.2475
 11
-186.25
 21
80
  0
LINE
  8
0
 10
-186.25
 20
80
 11
-186.264
 21
79.7525
  0
LINE
  8
0
 10
-186.264
 20
79.7525
 11
-186.304
 21
79.508
  0
LINE
  8
0
 10
-186.304
 20
79.508
 11
-186.372
 21
79.2694
  0
LINE
  8
0
 10
-186.372
 20
79.2694
 11
-186.465
 21
79.0397
  0
LINE
  8
0
 10
-186.465
 20
79.0397
 11
-186.583
 21
78.8217
  0
LINE
  8
0
 10
-186.583
 20
78.8217
 11
-186.724
 21
78.618
  0
LINE
  8
0
 10
-186.724
 20
78.618
 11
-186.887
 21
78.4311
  0
LINE
  8
0
 10
-186.887
 20
78.4311
 11
-187.07
 21
78.2632
  0
LINE
  8
0
 10
-187.07
 20
78.2632
 11
-187.269
 21
78.1164
  0
LINE
  8
0
 10
-187.269
 20
78.1164
 11
-187.484
 21
77.9924
  0
LINE
  8
0
 10
-187.484
 20
77.9924
 11
-187.711
 21
77.8929
  0
LINE
  8
0
 10
-187.711
 20
77.8929
 11
-187.948
 21
77.8188
  0
LINE
  8
0
 10
-187.948
 20
77.8188
 11
-188.191
 21
77.7713
  0
LINE
  8
0
 10
-188.191
 20
77.7713
 11
-188.438
 21
77.7509
  0
LINE
  8
0
 10
-188.438
 20
77.7509
 11
-188.686
 21
77.7577
  0
LINE
  8
0
 10
-94.4358
 20
77.7577
 11
-94.6814
 21
77.7917
  0
LINE
  8
0
 10
-94.6814
 20
77.7917
 11
-94.9217
 21
77.8526
  0
LINE
  8
0
 10
-94.9217
 20
77.8526
 11
-95.1538
 21
77.9395
  0
LINE
  8
0
 10
-95.1538
 20
77.9395
 11
-95.375
 21
78.0514
  0
LINE
  8
0
 10
-95.375
 20
78.0514
 11
-95.5825
 21
78.187
  0
LINE
  8
0
 10
-95.5825
 20
78.187
 11
-95.7739
 21
78.3446
  0
LINE
  8
0
 10
-95.7739
 20
78.3446
 11
-95.9467
 21
78.5223
  0
LINE
  8
0
 10
-95.9467
 20
78.5223
 11
-96.099
 21
78.7179
  0
LINE
  8
0
 10
-96.099
 20
78.7179
 11
-96.2288
 21
78.9291
  0
LINE
  8
0
 10
-96.2288
 20
78.9291
 11
-96.3346
 21
79.1533
  0
LINE
  8
0
 10
-96.3346
 20
79.1533
 11
-96.4151
 21
79.3878
  0
LINE
  8
0
 10
-96.4151
 20
79.3878
 11
-96.4693
 21
79.6297
  0
LINE
  8
0
 10
-96.4693
 20
79.6297
 11
-96.4966
 21
79.8761
  0
LINE
  8
0
 10
-96.4966
 20
79.8761
 11
-96.4966
 21
80.1239
  0
LINE
  8
0
 10
-96.4966
 20
80.1239
 11
-96.4693
 21
80.3703
  0
LINE
  8
0
 10
-96.4693
 20
80.3703
 11
-96.4151
 21
80.6122
  0
LINE
  8
0
 10
-96.4151
 20
80.6122
 11
-96.3346
 21
80.8467
  0
LINE
  8
0
 10
-96.3346
 20
80.8467
 11
-96.2288
 21
81.0709
  0
LINE
  8
0
 10
-96.2288
 20
81.0709
 11
-96.099
 21
81.2821
  0
LINE
  8
0
 10
-96.099
 20
81.2821
 11
-95.9467
 21
81.4777
  0
LINE
  8
0
 10
-95.9467
 20
81.4777
 11
-95.7739
 21
81.6554
  0
LINE
  8
0
 10
-95.7739
 20
81.6554
 11
-95.5825
 21
81.813
  0
LINE
  8
0
 10
-95.5825
 20
81.813
 11
-95.375
 21
81.9485
  0
LINE
  8
0
 10
-95.375
 20
81.9485
 11
-95.1538
 21
82.0605
  0
LINE
  8
0
 10
-95.1538
 20
82.0605
 11
-94.9217
 21
82.1474
  0
LINE
  8
0
 10
-94.9217
 20
82.1474
 11
-94.6814
 21
82.2083
  0
LINE
  8
0
 10
-94.6814
 20
82.2083
 11
-94.4358
 21
82.2423
  0
LINE
  8
0
 10
-94.4358
 20
82.2423
 11
-94.188
 21
82.2491
  0
LINE
  8
0
 10
-94.188
 20
82.2491
 11
-93.9409
 21
82.2287
  0
LINE
  8
0
 10
-93.9409
 20
82.2287
 11
-93.6976
 21
82.1812
  0
LINE
  8
0
 10
-93.6976
 20
82.1812
 11
-93.4611
 21
82.1071
  0
LINE
  8
0
 10
-93.4611
 20
82.1071
 11
-93.234
 21
82.0076
  0
LINE
  8
0
 10
-93.234
 20
82.0076
 11
-93.0194
 21
81.8836
  0
LINE
  8
0
 10
-93.0194
 20
81.8836
 11
-92.8196
 21
81.7368
  0
LINE
  8
0
 10
-92.8196
 20
81.7368
 11
-92.6372
 21
81.5689
  0
LINE
  8
0
 10
-92.6372
 20
81.5689
 11
-92.4744
 21
81.382
  0
LINE
  8
0
 10
-92.4744
 20
81.382
 11
-92.3332
 21
81.1783
  0
LINE
  8
0
 10
-92.3332
 20
81.1783
 11
-92.2152
 21
80.9602
  0
LINE
  8
0
 10
-92.2152
 20
80.9602
 11
-92.1219
 21
80.7306
  0
LINE
  8
0
 10
-92.1219
 20
80.7306
 11
-92.0545
 21
80.492
  0
LINE
  8
0
 10
-92.0545
 20
80.492
 11
-92.0137
 21
80.2475
  0
LINE
  8
0
 10
-92.0137
 20
80.2475
 11
-92
 21
80
  0
LINE
  8
0
 10
-92
 20
80
 11
-92.0137
 21
79.7525
  0
LINE
  8
0
 10
-92.0137
 20
79.7525
 11
-92.0545
 21
79.508
  0
LINE
  8
0
 10
-92.0545
 20
79.508
 11
-92.1219
 21
79.2694
  0
LINE
  8
0
 10
-92.1219
 20
79.2694
 11
-92.2152
 21
79.0397
  0
LINE
  8
0
 10
-92.2152
 20
79.0397
 11
-92.3332
 21
78.8217
  0
LINE
  8
0
 10
-92.3332
 20
78.8217
 11
-92.4744
 21
78.618
  0
LINE
  8
0
 10
-92.4744
 20
78.618
 11
-92.6372
 21
78.4311
  0
LINE
  8
0
 10
-92.6372
 20
78.4311
 11
-92.8196
 21
78.2632
  0
LINE
  8
0
 10
-92.8196
 20
78.2632
 11
-93.0194
 21
78.1164
  0
LINE
  8
0
 10
-93.0194
 20
78.1164
 11
-93.234
 21
77.9924
  0
LINE
  8
0
 10
-93.234
 20
77.9924
 11
-93.4611
 21
77.8929
  0
LINE
  8
0
 10
-93.4611
 20
77.8929
 11
-93.6976
 21
77.8188
  0
LINE
  8
0
 10
-93.6976
 20
77.8188
 11
-93.9409
 21
77.7713
  0
LINE
  8
0
 10
-93.9409
 20
77.7713
 11
-94.188
 21
77.7509
  0
LINE
  8
0
 10
-94.188
 20
77.7509
 11
-94.4358
 21
77.7577
  0
LINE
  8
0
 10
-0.185791
 20
77.7577
 11
-0.431335
 21
77.7917
  0
LINE
  8
0
 10
-0.431335
 20
77.7917
 11
-0.671646
 21
77.8526
  0
LINE
  8
0
 10
-0.671646
 20
77.8526
 11
-0.903809
 21
77.9395
  0
LINE
  8
0
 10
-0.903809
 20
77.9395
 11
-1.125
 21
78.0514
  0
LINE
  8
0
 10
-1.125
 20
78.0514
 11
-1.33252
 21
78.187
  0
LINE
  8
0
 10
-1.33252
 20
78.187
 11
-1.52388
 21
78.3446
  0
LINE
  8
0
 10
-1.52388
 20
78.3446
 11
-1.69673
 21
78.5223
  0
LINE
  8
0
 10
-1.69673
 20
78.5223
 11
-1.849
 21
78.7179
  0
LINE
  8
0
 10
-1.849
 20
78.7179
 11
-1.97881
 21
78.9291
  0
LINE
  8
0
 10
-1.97881
 20
78.9291
 11
-2.08461
 21
79.1533
  0
LINE
  8
0
 10
-2.08461
 20
79.1533
 11
-2.1651
 21
79.3878
  0
LINE
  8
0
 10
-2.1651
 20
79.3878
 11
-2.2193
 21
79.6297
  0
LINE
  8
0
 10
-2.2193
 20
79.6297
 11
-2.24658
 21
79.8761
  0
LINE
  8
0
 10
-2.24658
 20
79.8761
 11
-2.24658
 21
80.1239
  0
LINE
  8
0
 10
-2.24658
 20
80.1239
 11
-2.2193
 21
80.3703
  0
LINE
  8
0
 10
-2.2193
 20
80.3703
 11
-2.1651
 21
80.6122
  0
LINE
  8
0
 10
-2.1651
 20
80.6122
 11
-2.08461
 21
80.8467
  0
LINE
  8
0
 10
-2.08461
 20
80.8467
 11
-1.97881
 21
81.0709
  0
LINE
  8
0
 10
-1.97881
 20
81.0709
 11
-1.849
 21
81.2821
  0
LINE
  8
0
 10
-1.849
 20
81.2821
 11
-1.69673
 21
81.4777
  0
LINE
  8
0
 10
-1.69673
 20
81.4777
 11
-1.52388
 21
81.6554
  0
LINE
  8
0
 10
-1.52388
 20
81.6554
 11
-1.33252
 21
81.813
  0
LINE
  8
0
 10
-1.33252
 20
81.813
 11
-1.125
 21
81.9485
  0
LINE
  8
0
 10
-1.125
 20
81.9485
 11
-0.903809
 21
82.0605
  0
LINE
  8
0
 10
-0.903809
 20
82.0605
 11
-0.671646
 21
82.1474
  0
LINE
  8
0
 10
-0.671646
 20
82.1474
 11
-0.431335
 21
82.2083
  0
LINE
  8
0
 10
-0.431335
 20
82.2083
 11
-0.185791
 21
82.2423
  0
LINE
  8
0
 10
-0.185791
 20
82.2423
 11
0.0619965
 21
82.2491
  0
LINE
  8
0
 10
0.0619965
 20
82.2491
 11
0.309036
 21
82.2287
  0
LINE
  8
0
 10
0.309036
 20
82.2287
 11
0.552338
 21
82.1812
  0
LINE
  8
0
 10
0.552338
 20
82.1812
 11
0.788925
 21
82.1071
  0
LINE
  8
0
 10
0.788925
 20
82.1071
 11
1.01595
 21
82.0076
  0
LINE
  8
0
 10
1.01595
 20
82.0076
 11
1.23062
 21
81.8836
  0
LINE
  8
0
 10
1.23062
 20
81.8836
 11
1.43037
 21
81.7368
  0
LINE
  8
0
 10
1.43037
 20
81.7368
 11
1.61275
 21
81.5689
  0
LINE
  8
0
 10
1.61275
 20
81.5689
 11
1.77556
 21
81.382
  0
LINE
  8
0
 10
1.77556
 20
81.382
 11
1.91681
 21
81.1783
  0
LINE
  8
0
 10
1.91681
 20
81.1783
 11
2.03479
 21
80.9602
  0
LINE
  8
0
 10
2.03479
 20
80.9602
 11
2.12808
 21
80.7306
  0
LINE
  8
0
 10
2.12808
 20
80.7306
 11
2.19554
 21
80.492
  0
LINE
  8
0
 10
2.19554
 20
80.492
 11
2.23634
 21
80.2475
  0
LINE
  8
0
 10
2.23634
 20
80.2475
 11
2.25
 21
80
  0
LINE
  8
0
 10
2.25
 20
80
 11
2.23634
 21
79.7525
  0
LINE
  8
0
 10
2.23634
 20
79.7525
 11
2.19554
 21
79.508
  0
LINE
  8
0
 10
2.19554
 20
79.508
 11
2.12808
 21
79.2694
  0
LINE
  8
0
 10
2.12808
 20
79.2694
 11
2.03479
 21
79.0397
  0
LINE
  8
0
 10
2.03479
 20
79.0397
 11
1.91681
 21
78.8217
  0
LINE
  8
0
 10
1.91681
 20
78.8217
 11
1.77556
 21
78.618
  0
LINE
  8
0
 10
1.77556
 20
78.618
 11
1.61275
 21
78.4311
  0
LINE
  8
0
 10
1.61275
 20
78.4311
 11
1.43037
 21
78.2632
  0
LINE
  8
0
 10
1.43037
 20
78.2632
 11
1.23062
 21
78.1164
  0
LINE
  8
0
 10
1.23062
 20
78.1164
 11
1.01595
 21
77.9924
  0
LINE
  8
0
 10
1.01595
 20
77.9924
 11
0.788925
 21
77.8929
  0
LINE
  8
0
 10
0.788925
 20
77.8929
 11
0.552338
 21
77.8188
  0
LINE
  8
0
 10
0.552338
 20
77.8188
 11
0.309036
 21
77.7713
  0
LINE
  8
0
 10
0.309036
 20
77.7713
 11
0.0619965
 21
77.7509
  0
LINE
  8
0
 10
0.0619965
 20
77.7509
 11
-0.185791
 21
77.7577
  0
LINE
  8
0
 10
228.314
 20
37.7577
 11
228.069
 21
37.7917
  0
LINE
  8
0
 10
228.069
 20
37.7917
 11
227.828
 21
37.8526
  0
LINE
  8
0
 10
227.828
 20
37.8526
 11
227.596
 21
37.9395
  0
LINE
  8
0
 10
227.596
 20
37.9395
 11
227.375
 21
38.0514
  0
LINE
  8
0
 10
227.375
 20
38.0514
 11
227.167
 21
38.187
  0
LINE
  8
0
 10
227.167
 20
38.187
 11
226.976
 21
38.3446
  0
LINE
  8
0
 10
226.976
 20
38.3446
 11
226.803
 21
38.5223
  0
LINE
  8
0
 10
226.803
 20
38.5223
 11
226.651
 21
38.7179
  0
LINE
  8
0
 10
226.651
 20
38.7179
 11
226.521
 21
38.9291
  0
LINE
  8
0
 10
226.521
 20
38.9291
 11
226.415
 21
39.1533
  0
LINE
  8
0
 10
226.415
 20
39.1533
 11
226.335
 21
39.3878
  0
LINE
  8
0
 10
226.335
 20
39.3878
 11
226.281
 21
39.6297
  0
LINE
  8
0
 10
226.281
 20
39.6297
 11
226.253
 21
39.8761
  0
LINE
  8
0
 10
226.253
 20
39.8761
 11
226.253
 21
40.1239
  0
LINE
  8
0
 10
226.253
 20
40.1239
 11
226.281
 21
40.3703
  0
LINE
  8
0
 10
226.281
 20
40.3703
 11
226.335
 21
40.6122
  0
LINE
  8
0
 10
226.335
 20
40.6122
 11
226.415
 21
40.8467
  0
LINE
  8
0
 10
226.415
 20
40.8467
 11
226.521
 21
41.0709
  0
LINE
  8
0
 10
226.521
 20
41.0709
 11
226.651
 21
41.2821
  0
LINE
  8
0
 10
226.651
 20
41.2821
 11
226.803
 21
41.4777
  0
LINE
  8
0
 10
226.803
 20
41.4777
 11
226.976
 21
41.6554
  0
LINE
  8
0
 10
226.976
 20
41.6554
 11
227.167
 21
41.813
  0
LINE
  8
0
 10
227.167
 20
41.813
 11
227.375
 21
41.9485
  0
LINE
  8
0
 10
227.375
 20
41.9485
 11
227.596
 21
42.0605
  0
LINE
  8
0
 10
227.596
 20
42.0605
 11
227.828
 21
42.1474
  0
LINE
  8
0
 10
227.828
 20
42.1474
 11
228.069
 21
42.2083
  0
LINE
  8
0
 10
228.069
 20
42.2083
 11
228.314
 21
42.2423
  0
LINE
  8
0
 10
228.314
 20
42.2423
 11
228.562
 21
42.2491
  0
LINE
  8
0
 10
228.562
 20
42.2491
 11
228.809
 21
42.2287
  0
LINE
  8
0
 10
228.809
 20
42.2287
 11
229.052
 21
42.1812
  0
LINE
  8
0
 10
229.052
 20
42.1812
 11
229.289
 21
42.1071
  0
LINE
  8
0
 10
229.289
 20
42.1071
 11
229.516
 21
42.0076
  0
LINE
  8
0
 10
229.516
 20
42.0076
 11
229.731
 21
41.8836
  0
LINE
  8
0
 10
229.731
 20
41.8836
 11
229.93
 21
41.7368
  0
LINE
  8
0
 10
229.93
 20
41.7368
 11
230.113
 21
41.5689
  0
LINE
  8
0
 10
230.113
 20
41.5689
 11
230.276
 21
41.382
  0
LINE
  8
0
 10
230.276
 20
41.382
 11
230.417
 21
41.1783
  0
LINE
  8
0
 10
230.417
 20
41.1783
 11
230.535
 21
40.9602
  0
LINE
  8
0
 10
230.535
 20
40.9602
 11
230.628
 21
40.7306
  0
LINE
  8
0
 10
230.628
 20
40.7306
 11
230.696
 21
40.492
  0
LINE
  8
0
 10
230.696
 20
40.492
 11
230.736
 21
40.2475
  0
LINE
  8
0
 10
230.736
 20
40.2475
 11
230.75
 21
40
  0
LINE
  8
0
 10
230.75
 20
40
 11
230.736
 21
39.7525
  0
LINE
  8
0
 10
230.736
 20
39.7525
 11
230.696
 21
39.508
  0
LINE
  8
0
 10
230.696
 20
39.508
 11
230.628
 21
39.2694
  0
LINE
  8
0
 10
230.628
 20
39.2694
 11
230.535
 21
39.0397
  0
LINE
  8
0
 10
230.535
 20
39.0397
 11
230.417
 21
38.8217
  0
LINE
  8
0
 10
230.417
 20
38.8217
 11
230.276
 21
38.618
  0
LINE
  8
0
 10
230.276
 20
38.618
 11
230.113
 21
38.4311
  0
LINE
  8
0
 10
230.113
 20
38.4311
 11
229.93
 21
38.2632
  0
LINE
  8
0
 10
229.93
 20
38.2632
 11
229.731
 21
38.1164
  0
LINE
  8
0
 10
229.731
 20
38.1164
 11
229.516
 21
37.9924
  0
LINE
  8
0
 10
229.516
 20
37.9924
 11
229.289
 21
37.8928
  0
LINE
  8
0
 10
229.289
 20
37.8928
 11
229.052
 21
37.8188
  0
LINE
  8
0
 10
229.052
 20
37.8188
 11
228.809
 21
37.7713
  0
LINE
  8
0
 10
228.809
 20
37.7713
 11
228.562
 21
37.7509
  0
LINE
  8
0
 10
228.562
 20
37.7509
 11
228.314
 21
37.7577
  0
LINE
  8
0
 10
-228.809
 20
37.7713
 11
-229.052
 21
37.8188
  0
LINE
  8
0
 10
-229.052
 20
37.8188
 11
-229.289
 21
37.8928
  0
LINE
  8
0
 10
-229.289
 20
37.8928
 11
-229.516
 21
37.9924
  0
LINE
  8
0
 10
-229.516
 20
37.9924
 11
-229.731
 21
38.1164
  0
LINE
  8
0
 10
-229.731
 20
38.1164
 11
-229.93
 21
38.2632
  0
LINE
  8
0
 10
-229.93
 20
38.2632
 11
-230.113
 21
38.4311
  0
LINE
  8
0
 10
-230.113
 20
38.4311
 11
-230.276
 21
38.618
  0
LINE
  8
0
 10
-230.276
 20
38.618
 11
-230.417
 21
38.8217
  0
LINE
  8
0
 10
-230.417
 20
38.8217
 11
-230.535
 21
39.0397
  0
LINE
  8
0
 10
-230.535
 20
39.0397
 11
-230.628
 21
39.2694
  0
LINE
  8
0
 10
-230.628
 20
39.2694
 11
-230.696
 21
39.508
  0
LINE
  8
0
 10
-230.696
 20
39.508
 11
-230.736
 21
39.7525
  0
LINE
  8
0
 10
-230.736
 20
39.7525
 11
-230.75
 21
40
  0
LINE
  8
0
 10
-230.75
 20
40
 11
-230.736
 21
40.2475
  0
LINE
  8
0
 10
-230.736
 20
40.2475
 11
-230.696
 21
40.492
  0
LINE
  8
0
 10
-230.696
 20
40.492
 11
-230.628
 21
40.7306
  0
LINE
  8
0
 10
-230.628
 20
40.7306
 11
-230.535
 21
40.9602
  0
LINE
  8
0
 10
-230.535
 20
40.9602
 11
-230.417
 21
41.1783
  0
LINE
  8
0
 10
-230.417
 20
41.1783
 11
-230.276
 21
41.382
  0
LINE
  8
0
 10
-230.276
 20
41.382
 11
-230.113
 21
41.5689
  0
LINE
  8
0
 10
-230.113
 20
41.5689
 11
-229.93
 21
41.7368
  0
LINE
  8
0
 10
-229.93
 20
41.7368
 11
-229.731
 21
41.8836
  0
LINE
  8
0
 10
-229.731
 20
41.8836
 11
-229.516
 21
42.0076
  0
LINE
  8
0
 10
-229.516
 20
42.0076
 11
-229.289
 21
42.1071
  0
LINE
  8
0
 10
-229.289
 20
42.1071
 11
-229.052
 21
42.1812
  0
LINE
  8
0
 10
-229.052
 20
42.1812
 11
-228.809
 21
42.2287
  0
LINE
  8
0
 10
-228.809
 20
42.2287
 11
-228.562
 21
42.2491
  0
LINE
  8
0
 10
-228.562
 20
42.2491
 11
-228.314
 21
42.2423
  0
LINE
  8
0
 10
-228.314
 20
42.2423
 11
-228.069
 21
42.2083
  0
LINE
  8
0
 10
-228.069
 20
42.2083
 11
-227.828
 21
42.1474
  0
LINE
  8
0
 10
-227.828
 20
42.1474
 11
-227.596
 21
42.0605
  0
LINE
  8
0
 10
-227.596
 20
42.0605
 11
-227.375
 21
41.9485
  0
LINE
  8
0
 10
-227.375
 20
41.9485
 11
-227.167
 21
41.813
  0
LINE
  8
0
 10
-227.167
 20
41.813
 11
-226.976
 21
41.6554
  0
LINE
  8
0
 10
-226.976
 20
41.6554
 11
-226.803
 21
41.4777
  0
LINE
  8
0
 10
-226.803
 20
41.4777
 11
-226.651
 21
41.2821
  0
LINE
  8
0
 10
-226.651
 20
41.2821
 11
-226.521
 21
41.0709
  0
LINE
  8
0
 10
-226.521
 20
41.0709
 11
-226.415
 21
40.8467
  0
LINE
  8
0
 10
-226.415
 20
40.8467
 11
-226.335
 21
40.6122
  0
LINE
  8
0
 10
-226.335
 20
40.6122
 11
-226.281
 21
40.3703
  0
LINE
  8
0
 10
-226.281
 20
40.3703
 11
-226.253
 21
40.1239
  0
LINE
  8
0
 10
-226.253
 20
40.1239
 11
-226.253
 21
39.8761
  0
LINE
  8
0
 10
-226.253
 20
39.8761
 11
-226.281
 21
39.6297
  0
LINE
  8
0
 10
-226.281
 20
39.6297
 11
-226.335
 21
39.3878
  0
LINE
  8
0
 10
-226.335
 20
39.3878
 11
-226.415
 21
39.1533
  0
LINE
  8
0
 10
-226.415
 20
39.1533
 11
-226.521
 21
38.9291
  0
LINE
  8
0
 10
-226.521
 20
38.9291
 11
-226.651
 21
38.7179
  0
LINE
  8
0
 10
-226.651
 20
38.7179
 11
-226.803
 21
38.5223
  0
LINE
  8
0
 10
-226.803
 20
38.5223
 11
-226.976
 21
38.3446
  0
LINE
  8
0
 10
-226.976
 20
38.3446
 11
-227.167
 21
38.187
  0
LINE
  8
0
 10
-227.167
 20
38.187
 11
-227.375
 21
38.0514
  0
LINE
  8
0
 10
-227.375
 20
38.0514
 11
-227.596
 21
37.9395
  0
LINE
  8
0
 10
-227.596
 20
37.9395
 11
-227.828
 21
37.8526
  0
LINE
  8
0
 10
-227.828
 20
37.8526
 11
-228.069
 21
37.7917
  0
LINE
  8
0
 10
-228.069
 20
37.7917
 11
-228.314
 21
37.7577
  0
LINE
  8
0
 10
-228.314
 20
37.7577
 11
-228.562
 21
37.7509
  0
LINE
  8
0
 10
-228.562
 20
37.7509
 11
-228.809
 21
37.7713
  0
LINE
  8
0
 10
-228.809
 20
-42.2287
 11
-229.052
 21
-42.1812
  0
LINE
  8
0
 10
-229.052
 20
-42.1812
 11
-229.289
 21
-42.1071
  0
LINE
  8
0
 10
-229.289
 20
-42.1071
 11
-229.516
 21
-42.0076
  0
LINE
  8
0
 10
-229.516
 20
-42.0076
 11
-229.731
 21
-41.8836
  0
LINE
  8
0
 10
-229.731
 20
-41.8836
 11
-229.93
 21
-41.7368
  0
LINE
  8
0
 10
-229.93
 20
-41.7368
 11
-230.113
 21
-41.5689
  0
LINE
  8
0
 10
-230.113
 20
-41.5689
 11
-230.276
 21
-41.382
  0
LINE
  8
0
 10
-230.276
 20
-41.382
 11
-230.417
 21
-41.1783
  0
LINE
  8
0
 10
-230.417
 20
-41.1783
 11
-230.535
 21
-40.9602
  0
LINE
  8
0
 10
-230.535
 20
-40.9602
 11
-230.628
 21
-40.7306
  0
LINE
  8
0
 10
-230.628
 20
-40.7306
 11
-230.696
 21
-40.492
  0
LINE
  8
0
 10
-230.696
 20
-40.492
 11
-230.736
 21
-40.2475
  0
LINE
  8
0
 10
-230.736
 20
-40.2475
 11
-230.75
 21
-40
  0
LINE
  8
0
 10
-230.75
 20
-40
 11
-230.736
 21
-39.7525
  0
LINE
  8
0
 10
-230.736
 20
-39.7525
 11
-230.696
 21
-39.508
  0
LINE
  8
0
 10
-230.696
 20
-39.508
 11
-230.628
 21
-39.2694
  0
LINE
  8
0
 10
-230.628
 20
-39.2694
 11
-230.535
 21
-39.0397
  0
LINE
  8
0
 10
-230.535
 20
-39.0397
 11
-230.417
 21
-38.8217
  0
LINE
  8
0
 10
-230.417
 20
-38.8217
 11
-230.276
 21
-38.618
  0
LINE
  8
0
 10
-230.276
 20
-38.618
 11
-230.113
 21
-38.4311
  0
LINE
  8
0
 10
-230.113
 20
-38.4311
 11
-229.93
 21
-38.2632
  0
LINE
  8
0
 10
-229.93
 20
-38.2632
 11
-229.731
 21
-38.1164
  0
LINE
  8
0
 10
-229.731
 20
-38.1164
 11
-229.516
 21
-37.9924
  0
LINE
  8
0
 10
-229.516
 20
-37.9924
 11
-229.289
 21
-37.8928
  0
LINE
  8
0
 10
-229.289
 20
-37.8928
 11
-229.052
 21
-37.8188
  0
LINE
  8
0
 10
-229.052
 20
-37.8188
 11
-228.809
 21
-37.7713
  0
LINE
  8
0
 10
-228.809
 20
-37.7713
 11
-228.562
 21
-37.7509
  0
LINE
  8
0
 10
-228.562
 20
-37.7509
 11
-228.314
 21
-37.7577
  0
LINE
  8
0
 10
-228.314
 20
-37.7577
 11
-228.069
 21
-37.7917
  0
LINE
  8
0
 10
-228.069
 20
-37.7917
 11
-227.828
 21
-37.8526
  0
LINE
  8
0
 10
-227.828
 20
-37.8526
 11
-227.596
 21
-37.9395
  0
LINE
  8
0
 10
-227.596
 20
-37.9395
 11
-227.375
 21
-38.0514
  0
LINE
  8
0
 10
-227.375
 20
-38.0514
 11
-227.167
 21
-38.187
  0
LINE
  8
0
 10
-227.167
 20
-38.187
 11
-226.976
 21
-38.3446
  0
LINE
  8
0
 10
-226.976
 20
-38.3446
 11
-226.803
 21
-38.5223
  0
LINE
  8
0
 10
-226.803
 20
-38.5223
 11
-226.651
 21
-38.7179
  0
LINE
  8
0
 10
-226.651
 20
-38.7179
 11
-226.521
 21
-38.9291
  0
LINE
  8
0
 10
-226.521
 20
-38.9291
 11
-226.415
 21
-39.1533
  0
LINE
  8
0
 10
-226.415
 20
-39.1533
 11
-226.335
 21
-39.3878
  0
LINE
  8
0
 10
-226.335
 20
-39.3878
 11
-226.281
 21
-39.6297
  0
LINE
  8
0
 10
-226.281
 20
-39.6297
 11
-226.253
 21
-39.8761
  0
LINE
  8
0
 10
-226.253
 20
-39.8761
 11
-226.253
 21
-40.1239
  0
LINE
  8
0
 10
-226.253
 20
-40.1239
 11
-226.281
 21
-40.3703
  0
LINE
  8
0
 10
-226.281
 20
-40.3703
 11
-226.335
 21
-40.6122
  0
LINE
  8
0
 10
-226.335
 20
-40.6122
 11
-226.415
 21
-40.8467
  0
LINE
  8
0
 10
-226.415
 20
-40.8467
 11
-226.521
 21
-41.0709
  0
LINE
  8
0
 10
-226.521
 20
-41.0709
 11
-226.651
 21
-41.2821
  0
LINE
  8
0
 10
-226.651
 20
-41.2821
 11
-226.803
 21
-41.4777
  0
LINE
  8
0
 10
-226.803
 20
-41.4777
 11
-226.976
 21
-41.6554
  0
LINE
  8
0
 10
-226.976
 20
-41.6554
 11
-227.167
 21
-41.813
  0
LINE
  8
0
 10
-227.167
 20
-41.813
 11
-227.375
 21
-41.9485
  0
LINE
  8
0
 10
-227.375
 20
-41.9485
 11
-227.596
 21
-42.0605
  0
LINE
  8
0
 10
-227.596
 20
-42.0605
 11
-227.828
 21
-42.1474
  0
LINE
  8
0
 10
-227.828
 20
-42.1474
 11
-228.069
 21
-42.2083
  0
LINE
  8
0
 10
-228.069
 20
-42.2083
 11
-228.314
 21
-42.2423
  0
LINE
  8
0
 10
-228.314
 20
-42.2423
 11
-228.562
 21
-42.2491
  0
LINE
  8
0
 10
-228.562
 20
-42.2491
 11
-228.809
 21
-42.2287
  0
LINE
  8
0
 10
228.314
 20
-42.2423
 11
228.069
 21
-42.2083
  0
LINE
  8
0
 10
228.069
 20
-42.2083
 11
227.828
 21
-42.1474
  0
LINE
  8
0
 10
227.828
 20
-42.1474
 11
227.596
 21
-42.0605
  0
LINE
  8
0
 10
227.596
 20
-42.0605
 11
227.375
 21
-41.9485
  0
LINE
  8
0
 10
227.375
 20
-41.9485
 11
227.167
 21
-41.813
  0
LINE
  8
0
 10
227.167
 20
-41.813
 11
226.976
 21
-41.6554
  0
LINE
  8
0
 10
226.976
 20
-41.6554
 11
226.803
 21
-41.4777
  0
LINE
  8
0
 10
226.803
 20
-41.4777
 11
226.651
 21
-41.2821
  0
LINE
  8
0
 10
226.651
 20
-41.2821
 11
226.521
 21
-41.0709
  0
LINE
  8
0
 10
226.521
 20
-41.0709
 11
226.415
 21
-40.8467
  0
LINE
  8
0
 10
226.415
 20
-40.8467
 11
226.335
 21
-40.6122
  0
LINE
  8
0
 10
226.335
 20
-40.6122
 11
226.281
 21
-40.3703
  0
LINE
  8
0
 10
226.281
 20
-40.3703
 11
226.253
 21
-40.1239
  0
LINE
  8
0
 10
226.253
 20
-40.1239
 11
226.253
 21
-39.8761
  0
LINE
  8
0
 10
226.253
 20
-39.8761
 11
226.281
 21
-39.6297
  0
LINE
  8
0
 10
226.281
 20
-39.6297
 11
226.335
 21
-39.3878
  0
LINE
  8
0
 10
226.335
 20
-39.3878
 11
226.415
 21
-39.1533
  0
LINE
  8
0
 10
226.415
 20
-39.1533
 11
226.521
 21
-38.9291
  0
LINE
  8
0
 10
226.521
 20
-38.9291
 11
226.651
 21
-38.7179
  0
LINE
  8
0
 10
226.651
 20
-38.7179
 11
226.803
 21
-38.5223
  0
LINE
  8
0
 10
226.803
 20
-38.5223
 11
226.976
 21
-38.3446
  0
LINE
  8
0
 10
226.976
 20
-38.3446
 11
227.167
 21
-38.187
  0
LINE
  8
0
 10
227.167
 20
-38.187
 11
227.375
 21
-38.0514
  0
LINE
  8
0
 10
227.375
 20
-38.0514
 11
227.596
 21
-37.9395
  0
LINE
  8
0
 10
227.596
 20
-37.9395
 11
227.828
 21
-37.8526
  0
LINE
  8
0
 10
227.828
 20
-37.8526
 11
228.069
 21
-37.7917
  0
LINE
  8
0
 10
228.069
 20
-37.7917
 11
228.314
 21
-37.7577
  0
LINE
  8
0
 10
228.314
 20
-37.7577
 11
228.562
 21
-37.7509
  0
LINE
  8
0
 10
228.562
 20
-37.7509
 11
228.809
 21
-37.7713
  0
LINE
  8
0
 10
228.809
 20
-37.7713
 11
229.052
 21
-37.8188
  0
LINE
  8
0
 10
229.052
 20
-37.8188
 11
229.289
 21
-37.8928
  0
LINE
  8
0
 10
229.289
 20
-37.8928
 11
229.516
 21
-37.9924
  0
LINE
  8
0
 10
229.516
 20
-37.9924
 11
229.731
 21
-38.1164
  0
LINE
  8
0
 10
229.731
 20
-38.1164
 11
229.93
 21
-38.2632
  0
LINE
  8
0
 10
229.93
 20
-38.2632
 11
230.113
 21
-38.4311
  0
LINE
  8
0
 10
230.113
 20
-38.4311
 11
230.276
 21
-38.618
  0
LINE
  8
0
 10
230.276
 20
-38.618
 11
230.417
 21
-38.8217
  0
LINE
  8
0
 10
230.417
 20
-38.8217
 11
230.535
 21
-39.0397
  0
LINE
  8
0
 10
230.535
 20
-39.0397
 11
230.628
 21
-39.2694
  0
LINE
  8
0
 10
230.628
 20
-39.2694
 11
230.696
 21
-39.508
  0
LINE
  8
0
 10
230.696
 20
-39.508
 11
230.736
 21
-39.7525
  0
LINE
  8
0
 10
230.736
 20
-39.7525
 11
230.75
 21
-40
  0
LINE
  8
0
 10
230.75
 20
-40
 11
230.736
 21
-40.2475
  0
LINE
  8
0
 10
230.736
 20
-40.2475
 11
230.696
 21
-40.492
  0
LINE
  8
0
 10
230.696
 20
-40.492
 11
230.628
 21
-40.7306
  0
LINE
  8
0
 10
230.628
 20
-40.7306
 11
230.535
 21
-40.9602
  0
LINE
  8
0
 10
230.535
 20
-40.9602
 11
230.417
 21
-41.1783
  0
LINE
  8
0
 10
230.417
 20
-41.1783
 11
230.276
 21
-41.382
  0
LINE
  8
0
 10
230.276
 20
-41.382
 11
230.113
 21
-41.5689
  0
LINE
  8
0
 10
230.113
 20
-41.5689
 11
229.93
 21
-41.7368
  0
LINE
  8
0
 10
229.93
 20
-41.7368
 11
229.731
 21
-41.8836
  0
LINE
  8
0
 10
229.731
 20
-41.8836
 11
229.516
 21
-42.0076
  0
LINE
  8
0
 10
229.516
 20
-42.0076
 11
229.289
 21
-42.1071
  0
LINE
  8
0
 10
229.289
 20
-42.1071
 11
229.052
 21
-42.1812
  0
LINE
  8
0
 10
229.052
 20
-42.1812
 11
228.809
 21
-42.2287
  0
LINE
  8
0
 10
228.809
 20
-42.2287
 11
228.562
 21
-42.2491
  0
LINE
  8
0
 10
228.562
 20
-42.2491
 11
228.314
 21
-42.2423
  0
LINE
  8
0
 10
-229.023
 20
-84.9726
 11
-229.54
 21
-84.8907
  0
LINE
  8
0
 10
-229.54
 20
-84.8907
 11
-230.045
 21
-84.7553
  0
LINE
  8
0
 10
-230.045
 20
-84.7553
 11
-230.534
 21
-84.5677
  0
LINE
  8
0
 10
-230.534
 20
-84.5677
 11
-231
 21
-84.3301
  0
LINE
  8
0
 10
-231
 20
-84.3301
 11
-231.439
 21
-84.0451
  0
LINE
  8
0
 10
-231.439
 20
-84.0451
 11
-231.846
 21
-83.7157
  0
LINE
  8
0
 10
-231.846
 20
-83.7157
 11
-232.216
 21
-83.3456
  0
LINE
  8
0
 10
-232.216
 20
-83.3456
 11
-232.545
 21
-82.9389
  0
LINE
  8
0
 10
-232.545
 20
-82.9389
 11
-232.83
 21
-82.5
  0
LINE
  8
0
 10
-232.83
 20
-82.5
 11
-233.068
 21
-82.0337
  0
LINE
  8
0
 10
-233.068
 20
-82.0337
 11
-233.255
 21
-81.5451
  0
LINE
  8
0
 10
-233.255
 20
-81.5451
 11
-233.391
 21
-81.0396
  0
LINE
  8
0
 10
-233.391
 20
-81.0396
 11
-233.473
 21
-80.5226
  0
LINE
  8
0
 10
-233.473
 20
-80.5226
 11
-233.5
 21
-80
  0
LINE
  8
0
 10
-233.5
 20
-80
 11
-233.473
 21
-79.4774
  0
LINE
  8
0
 10
-233.473
 20
-79.4774
 11
-233.391
 21
-78.9604
  0
LINE
  8
0
 10
-233.391
 20
-78.9604
 11
-233.255
 21
-78.4549
  0
LINE
  8
0
 10
-233.255
 20
-78.4549
 11
-233.068
 21
-77.9663
  0
LINE
  8
0
 10
-233.068
 20
-77.9663
 11
-232.83
 21
-77.5
  0
LINE
  8
0
 10
-232.83
 20
-77.5
 11
-232.545
 21
-77.0611
  0
LINE
  8
0
 10
-232.545
 20
-77.0611
 11
-232.216
 21
-76.6543
  0
LINE
  8
0
 10
-232.216
 20
-76.6543
 11
-231.846
 21
-76.2843
  0
LINE
  8
0
 10
-231.846
 20
-76.2843
 11
-231.439
 21
-75.9549
  0
LINE
  8
0
 10
-231.439
 20
-75.9549
 11
-231
 21
-75.6699
  0
LINE
  8
0
 10
-231
 20
-75.6699
 11
-230.534
 21
-75.4323
  0
LINE
  8
0
 10
-230.534
 20
-75.4323
 11
-230.045
 21
-75.2447
  0
LINE
  8
0
 10
-230.045
 20
-75.2447
 11
-229.54
 21
-75.1093
  0
LINE
  8
0
 10
-229.54
 20
-75.1093
 11
-229.023
 21
-75.0274
  0
LINE
  8
0
 10
-229.023
 20
-75.0274
 11
-228.5
 21
-75
  0
LINE
  8
0
 10
-228.5
 20
-75
 11
-227.977
 21
-75.0274
  0
LINE
  8
0
 10
-227.977
 20
-75.0274
 11
-227.46
 21
-75.1093
  0
LINE
  8
0
 10
-227.46
 20
-75.1093
 11
-226.955
 21
-75.2447
  0
LINE
  8
0
 10
-226.955
 20
-75.2447
 11
-226.466
 21
-75.4323
  0
LINE
  8
0
 10
-226.466
 20
-75.4323
 11
-226
 21
-75.6699
  0
LINE
  8
0
 10
-226
 20
-75.6699
 11
-225.561
 21
-75.9549
  0
LINE
  8
0
 10
-225.561
 20
-75.9549
 11
-225.154
 21
-76.2843
  0
LINE
  8
0
 10
-225.154
 20
-76.2843
 11
-224.784
 21
-76.6543
  0
LINE
  8
0
 10
-224.784
 20
-76.6543
 11
-224.455
 21
-77.0611
  0
LINE
  8
0
 10
-224.455
 20
-77.0611
 11
-224.17
 21
-77.5
  0
LINE
  8
0
 10
-224.17
 20
-77.5
 11
-223.932
 21
-77.9663
  0
LINE
  8
0
 10
-223.932
 20
-77.9663
 11
-223.745
 21
-78.4549
  0
LINE
  8
0
 10
-223.745
 20
-78.4549
 11
-223.609
 21
-78.9604
  0
LINE
  8
0
 10
-223.609
 20
-78.9604
 11
-223.527
 21
-79.4774
  0
LINE
  8
0
 10
-223.527
 20
-79.4774
 11
-223.5
 21
-80
  0
LINE
  8
0
 10
-223.5
 20
-80
 11
-223.527
 21
-80.5226
  0
LINE
  8
0
 10
-223.527
 20
-80.5226
 11
-223.609
 21
-81.0396
  0
LINE
  8
0
 10
-223.609
 20
-81.0396
 11
-223.745
 21
-81.5451
  0
LINE
  8
0
 10
-223.745
 20
-81.5451
 11
-223.932
 21
-82.0337
  0
LINE
  8
0
 10
-223.932
 20
-82.0337
 11
-224.17
 21
-82.5
  0
LINE
  8
0
 10
-224.17
 20
-82.5
 11
-224.455
 21
-82.9389
  0
LINE
  8
0
 10
-224.455
 20
-82.9389
 11
-224.784
 21
-83.3456
  0
LINE
  8
0
 10
-224.784
 20
-83.3456
 11
-225.154
 21
-83.7157
  0
LINE
  8
0
 10
-225.154
 20
-83.7157
 11
-225.561
 21
-84.0451
  0
LINE
  8
0
 10
-225.561
 20
-84.0451
 11
-226
 21
-84.3301
  0
LINE
  8
0
 10
-226
 20
-84.3301
 11
-226.466
 21
-84.5677
  0
LINE
  8
0
 10
-226.466
 20
-84.5677
 11
-226.955
 21
-84.7553
  0
LINE
  8
0
 10
-226.955
 20
-84.7553
 11
-227.46
 21
-84.8907
  0
LINE
  8
0
 10
-227.46
 20
-84.8907
 11
-227.977
 21
-84.9726
  0
LINE
  8
0
 10
-227.977
 20
-84.9726
 11
-228.5
 21
-85
  0
LINE
  8
0
 10
-228.5
 20
-85
 11
-229.023
 21
-84.9726
  0
LINE
  8
0
 10
227.977
 20
-84.9726
 11
227.46
 21
-84.8907
  0
LINE
  8
0
 10
227.46
 20
-84.8907
 11
226.955
 21
-84.7553
  0
LINE
  8
0
 10
226.955
 20
-84.7553
 11
226.466
 21
-84.5677
  0
LINE
  8
0
 10
226.466
 20
-84.5677
 11
226
 21
-84.3301
  0
LINE
  8
0
 10
226
 20
-84.3301
 11
225.561
 21
-84.0451
  0
LINE
  8
0
 10
225.561
 20
-84.0451
 11
225.154
 21
-83.7157
  0
LINE
  8
0
 10
225.154
 20
-83.7157
 11
224.784
 21
-83.3456
  0
LINE
  8
0
 10
224.784
 20
-83.3456
 11
224.455
 21
-82.9389
  0
LINE
  8
0
 10
224.455
 20
-82.9389
 11
224.17
 21
-82.5
  0
LINE
  8
0
 10
224.17
 20
-82.5
 11
223.932
 21
-82.0337
  0
LINE
  8
0
 10
223.932
 20
-82.0337
 11
223.745
 21
-81.5451
  0
LINE
  8
0
 10
223.745
 20
-81.5451
 11
223.609
 21
-81.0396
  0
LINE
  8
0
 10
223.609
 20
-81.0396
 11
223.527
 21
-80.5226
  0
LINE
  8
0
 10
223.527
 20
-80.5226
 11
223.5
 21
-80
  0
LINE
  8
0
 10
223.5
 20
-80
 11
223.527
 21
-79.4774
  0
LINE
  8
0
 10
223.527
 20
-79.4774
 11
223.609
 21
-78.9604
  0
LINE
  8
0
 10
223.609
 20
-78.9604
 11
223.745
 21
-78.4549
  0
LINE
  8
0
 10
223.745
 20
-78.4549
 11
223.932
 21
-77.9663
  0
LINE
  8
0
 10
223.932
 20
-77.9663
 11
224.17
 21
-77.5
  0
LINE
  8
0
 10
224.17
 20
-77.5
 11
224.455
 21
-77.0611
  0
LINE
  8
0
 10
224.455
 20
-77.0611
 11
224.784
 21
-76.6543
  0
LINE
  8
0
 10
224.784
 20
-76.6543
 11
225.154
 21
-76.2843
  0
LINE
  8
0
 10
225.154
 20
-76.2843
 11
225.561
 21
-75.9549
  0
LINE
  8
0
 10
225.561
 20
-75.9549
 11
226
 21
-75.6699
  0
LINE
  8
0
 10
226
 20
-75.6699
 11
226.466
 21
-75.4323
  0
LINE
  8
0
 10
226.466
 20
-75.4323
 11
226.955
 21
-75.2447
  0
LINE
  8
0
 10
226.955
 20
-75.2447
 11
227.46
 21
-75.1093
  0
LINE
  8
0
 10
227.46
 20
-75.1093
 11
227.977
 21
-75.0274
  0
LINE
  8
0
 10
227.977
 20
-75.0274
 11
228.5
 21
-75
  0
LINE
  8
0
 10
228.5
 20
-75
 11
229.023
 21
-75.0274
  0
LINE
  8
0
 10
229.023
 20
-75.0274
 11
229.54
 21
-75.1093
  0
LINE
  8
0
 10
229.54
 20
-75.1093
 11
230.045
 21
-75.2447
  0
LINE
  8
0
 10
230.045
 20
-75.2447
 11
230.534
 21
-75.4323
  0
LINE
  8
0
 10
230.534
 20
-75.4323
 11
231
 21
-75.6699
  0
LINE
  8
0
 10
231
 20
-75.6699
 11
231.439
 21
-75.9549
  0
LINE
  8
0
 10
231.439
 20
-75.9549
 11
231.846
 21
-76.2843
  0
LINE
  8
0
 10
231.846
 20
-76.2843
 11
232.216
 21
-76.6543
  0
LINE
  8
0
 10
232.216
 20
-76.6543
 11
232.545
 21
-77.0611
  0
LINE
  8
0
 10
232.545
 20
-77.0611
 11
232.83
 21
-77.5
  0
LINE
  8
0
 10
232.83
 20
-77.5
 11
233.068
 21
-77.9663
  0
LINE
  8
0
 10
233.068
 20
-77.9663
 11
233.255
 21
-78.4549
  0
LINE
  8
0
 10
233.255
 20
-78.4549
 11
233.391
 21
-78.9604
  0
LINE
  8
0
 10
233.391
 20
-78.9604
 11
233.473
 21
-79.4774
  0
LINE
  8
0
 10
233.473
 20
-79.4774
 11
233.5
 21
-80
  0
LINE
  8
0
 10
233.5
 20
-80
 11
233.473
 21
-80.5226
  0
LINE
  8
0
 10
233.473
 20
-80.5226
 11
233.391
 21
-81.0396
  0
LINE
  8
0
 10
233.391
 20
-81.0396
 11
233.255
 21
-81.5451
  0
LINE
  8
0
 10
233.255
 20
-81.5451
 11
233.068
 21
-82.0337
  0
LINE
  8
0
 10
233.068
 20
-82.0337
 11
232.83
 21
-82.5
  0
LINE
  8
0
 10
232.83
 20
-82.5
 11
232.545
 21
-82.9389
  0
LINE
  8
0
 10
232.545
 20
-82.9389
 11
232.216
 21
-83.3456
  0
LINE
  8
0
 10
232.216
 20
-83.3456
 11
231.846
 21
-83.7157
  0
LINE
  8
0
 10
231.846
 20
-83.7157
 11
231.439
 21
-84.0451
  0
LINE
  8
0
 10
231.439
 20
-84.0451
 11
231
 21
-84.3301
  0
LINE
  8
0
 10
231
 20
-84.3301
 11
230.534
 21
-84.5677
  0
LINE
  8
0
 10
230.534
 20
-84.5677
 11
230.045
 21
-84.7553
  0
LINE
  8
0
 10
230.045
 20
-84.7553
 11
229.54
 21
-84.8907
  0
LINE
  8
0
 10
229.54
 20
-84.8907
 11
229.023
 21
-84.9726
  0
LINE
  8
0
 10
229.023
 20
-84.9726
 11
228.5
 21
-85
  0
LINE
  8
0
 10
228.5
 20
-85
 11
227.977
 21
-84.9726
  0
ENDSEC
  0
SECTION
  2
OBJECTS
  0
DICTIONARY
  0
ENDSEC
  0
EOF
