  0
SECTION
  2
BLOCKS
  0
ENDSEC
  0
SECTION
  2
ENTITIES
  0
LINE
  8
0
 10
270.398
 20
-89.8476
 11
270.915
 21
-89.7657
  0
LINE
  8
0
 10
270.915
 20
-89.7657
 11
271.42
 21
-89.6303
  0
LINE
  8
0
 10
271.42
 20
-89.6303
 11
271.909
 21
-89.4427
  0
LINE
  8
0
 10
271.909
 20
-89.4427
 11
272.375
 21
-89.2051
  0
LINE
  8
0
 10
272.375
 20
-89.2051
 11
272.814
 21
-88.9201
  0
LINE
  8
0
 10
272.814
 20
-88.9201
 11
273.221
 21
-88.5907
  0
LINE
  8
0
 10
273.221
 20
-88.5907
 11
273.591
 21
-88.2207
  0
LINE
  8
0
 10
273.591
 20
-88.2207
 11
273.92
 21
-87.8139
  0
LINE
  8
0
 10
273.92
 20
-87.8139
 11
274.205
 21
-87.375
  0
LINE
  8
0
 10
274.205
 20
-87.375
 11
274.443
 21
-86.9087
  0
LINE
  8
0
 10
274.443
 20
-86.9087
 11
274.63
 21
-86.4201
  0
LINE
  8
0
 10
274.63
 20
-86.4201
 11
274.766
 21
-85.9146
  0
LINE
  8
0
 10
274.766
 20
-85.9146
 11
274.848
 21
-85.3976
  0
LINE
  8
0
 10
274.848
 20
-85.3976
 11
274.875
 21
-84.875
  0
LINE
  8
0
 10
274.875
 20
-84.875
 11
274.875
 21
84.875
  0
LINE
  8
0
 10
274.875
 20
84.875
 11
274.848
 21
85.3976
  0
LINE
  8
0
 10
274.848
 20
85.3976
 11
274.766
 21
85.9146
  0
LINE
  8
0
 10
274.766
 20
85.9146
 11
274.63
 21
86.4201
  0
LINE
  8
0
 10
274.63
 20
86.4201
 11
274.443
 21
86.9087
  0
LINE
  8
0
 10
274.443
 20
86.9087
 11
274.205
 21
87.375
  0
LINE
  8
0
 10
274.205
 20
87.375
 11
273.92
 21
87.8139
  0
LINE
  8
0
 10
273.92
 20
87.8139
 11
273.591
 21
88.2207
  0
LINE
  8
0
 10
273.591
 20
88.2207
 11
273.221
 21
88.5907
  0
LINE
  8
0
 10
273.221
 20
88.5907
 11
272.814
 21
88.9201
  0
LINE
  8
0
 10
272.814
 20
88.9201
 11
272.375
 21
89.2051
  0
LINE
  8
0
 10
272.375
 20
89.2051
 11
271.909
 21
89.4427
  0
LINE
  8
0
 10
271.909
 20
89.4427
 11
271.42
 21
89.6303
  0
LINE
  8
0
 10
271.42
 20
89.6303
 11
270.915
 21
89.7657
  0
LINE
  8
0
 10
270.915
 20
89.7657
 11
270.398
 21
89.8476
  0
LINE
  8
0
 10
270.398
 20
89.8476
 11
269.875
 21
89.875
  0
LINE
  8
0
 10
269.875
 20
89.875
 11
245
 21
89.875
  0
LINE
  8
0
 10
245
 20
89.875
 11
245
 21
-45
  0
LINE
  8
0
 10
245
 20
-45
 11
244.973
 21
-45.5226
  0
LINE
  8
0
 10
244.973
 20
-45.5226
 11
244.891
 21
-46.0396
  0
LINE
  8
0
 10
244.891
 20
-46.0396
 11
244.755
 21
-46.5451
  0
LINE
  8
0
 10
244.755
 20
-46.5451
 11
244.568
 21
-47.0337
  0
LINE
  8
0
 10
244.568
 20
-47.0337
 11
244.33
 21
-47.5
  0
LINE
  8
0
 10
244.33
 20
-47.5
 11
244.045
 21
-47.9389
  0
LINE
  8
0
 10
244.045
 20
-47.9389
 11
243.716
 21
-48.3457
  0
LINE
  8
0
 10
243.716
 20
-48.3457
 11
243.346
 21
-48.7157
  0
LINE
  8
0
 10
243.346
 20
-48.7157
 11
242.939
 21
-49.0451
  0
LINE
  8
0
 10
242.939
 20
-49.0451
 11
242.5
 21
-49.3301
  0
LINE
  8
0
 10
242.5
 20
-49.3301
 11
242.034
 21
-49.5677
  0
LINE
  8
0
 10
242.034
 20
-49.5677
 11
241.545
 21
-49.7553
  0
LINE
  8
0
 10
241.545
 20
-49.7553
 11
241.04
 21
-49.8907
  0
LINE
  8
0
 10
241.04
 20
-49.8907
 11
240.523
 21
-49.9726
  0
LINE
  8
0
 10
240.523
 20
-49.9726
 11
240
 21
-50
  0
LINE
  8
0
 10
240
 20
-50
 11
-240
 21
-50
  0
LINE
  8
0
 10
-240
 20
-50
 11
-240.523
 21
-49.9726
  0
LINE
  8
0
 10
-240.523
 20
-49.9726
 11
-241.04
 21
-49.8907
  0
LINE
  8
0
 10
-241.04
 20
-49.8907
 11
-241.545
 21
-49.7553
  0
LINE
  8
0
 10
-241.545
 20
-49.7553
 11
-242.034
 21
-49.5677
  0
LINE
  8
0
 10
-242.034
 20
-49.5677
 11
-242.5
 21
-49.3301
  0
LINE
  8
0
 10
-242.5
 20
-49.3301
 11
-242.939
 21
-49.0451
  0
LINE
  8
0
 10
-242.939
 20
-49.0451
 11
-243.346
 21
-48.7157
  0
LINE
  8
0
 10
-243.346
 20
-48.7157
 11
-243.716
 21
-48.3457
  0
LINE
  8
0
 10
-243.716
 20
-48.3457
 11
-244.045
 21
-47.9389
  0
LINE
  8
0
 10
-244.045
 20
-47.9389
 11
-244.33
 21
-47.5
  0
LINE
  8
0
 10
-244.33
 20
-47.5
 11
-244.568
 21
-47.0337
  0
LINE
  8
0
 10
-244.568
 20
-47.0337
 11
-244.755
 21
-46.5451
  0
LINE
  8
0
 10
-244.755
 20
-46.5451
 11
-244.891
 21
-46.0396
  0
LINE
  8
0
 10
-244.891
 20
-46.0396
 11
-244.973
 21
-45.5226
  0
LINE
  8
0
 10
-244.973
 20
-45.5226
 11
-245
 21
-45
  0
LINE
  8
0
 10
-245
 20
-45
 11
-245
 21
89.875
  0
LINE
  8
0
 10
-245
 20
89.875
 11
-269.875
 21
89.875
  0
LINE
  8
0
 10
-269.875
 20
89.875
 11
-270.398
 21
89.8476
  0
LINE
  8
0
 10
-270.398
 20
89.8476
 11
-270.915
 21
89.7657
  0
LINE
  8
0
 10
-270.915
 20
89.7657
 11
-271.42
 21
89.6303
  0
LINE
  8
0
 10
-271.42
 20
89.6303
 11
-271.909
 21
89.4427
  0
LINE
  8
0
 10
-271.909
 20
89.4427
 11
-272.375
 21
89.2051
  0
LINE
  8
0
 10
-272.375
 20
89.2051
 11
-272.814
 21
88.9201
  0
LINE
  8
0
 10
-272.814
 20
88.9201
 11
-273.221
 21
88.5907
  0
LINE
  8
0
 10
-273.221
 20
88.5907
 11
-273.591
 21
88.2207
  0
LINE
  8
0
 10
-273.591
 20
88.2207
 11
-273.92
 21
87.8139
  0
LINE
  8
0
 10
-273.92
 20
87.8139
 11
-274.205
 21
87.375
  0
LINE
  8
0
 10
-274.205
 20
87.375
 11
-274.443
 21
86.9087
  0
LINE
  8
0
 10
-274.443
 20
86.9087
 11
-274.63
 21
86.4201
  0
LINE
  8
0
 10
-274.63
 20
86.4201
 11
-274.766
 21
85.9146
  0
LINE
  8
0
 10
-274.766
 20
85.9146
 11
-274.848
 21
85.3976
  0
LINE
  8
0
 10
-274.848
 20
85.3976
 11
-274.875
 21
84.875
  0
LINE
  8
0
 10
-274.875
 20
84.875
 11
-274.875
 21
-84.875
  0
LINE
  8
0
 10
-274.875
 20
-84.875
 11
-274.848
 21
-85.3976
  0
LINE
  8
0
 10
-274.848
 20
-85.3976
 11
-274.766
 21
-85.9146
  0
LINE
  8
0
 10
-274.766
 20
-85.9146
 11
-274.63
 21
-86.4201
  0
LINE
  8
0
 10
-274.63
 20
-86.4201
 11
-274.443
 21
-86.9087
  0
LINE
  8
0
 10
-274.443
 20
-86.9087
 11
-274.205
 21
-87.375
  0
LINE
  8
0
 10
-274.205
 20
-87.375
 11
-273.92
 21
-87.8139
  0
LINE
  8
0
 10
-273.92
 20
-87.8139
 11
-273.591
 21
-88.2207
  0
LINE
  8
0
 10
-273.591
 20
-88.2207
 11
-273.221
 21
-88.5907
  0
LINE
  8
0
 10
-273.221
 20
-88.5907
 11
-272.814
 21
-88.9201
  0
LINE
  8
0
 10
-272.814
 20
-88.9201
 11
-272.375
 21
-89.2051
  0
LINE
  8
0
 10
-272.375
 20
-89.2051
 11
-271.909
 21
-89.4427
  0
LINE
  8
0
 10
-271.909
 20
-89.4427
 11
-271.42
 21
-89.6303
  0
LINE
  8
0
 10
-271.42
 20
-89.6303
 11
-270.915
 21
-89.7657
  0
LINE
  8
0
 10
-270.915
 20
-89.7657
 11
-270.398
 21
-89.8476
  0
LINE
  8
0
 10
-270.398
 20
-89.8476
 11
-269.875
 21
-89.875
  0
LINE
  8
0
 10
-269.875
 20
-89.875
 11
269.875
 21
-89.875
  0
LINE
  8
0
 10
269.875
 20
-89.875
 11
270.398
 21
-89.8476
  0
LINE
  8
0
 10
-265.523
 20
75.0274
 11
-266.04
 21
75.1093
  0
LINE
  8
0
 10
-266.04
 20
75.1093
 11
-266.545
 21
75.2447
  0
LINE
  8
0
 10
-266.545
 20
75.2447
 11
-267.034
 21
75.4323
  0
LINE
  8
0
 10
-267.034
 20
75.4323
 11
-267.5
 21
75.6699
  0
LINE
  8
0
 10
-267.5
 20
75.6699
 11
-267.939
 21
75.9549
  0
LINE
  8
0
 10
-267.939
 20
75.9549
 11
-268.346
 21
76.2843
  0
LINE
  8
0
 10
-268.346
 20
76.2843
 11
-268.716
 21
76.6543
  0
LINE
  8
0
 10
-268.716
 20
76.6543
 11
-269.045
 21
77.0611
  0
LINE
  8
0
 10
-269.045
 20
77.0611
 11
-269.33
 21
77.5
  0
LINE
  8
0
 10
-269.33
 20
77.5
 11
-269.568
 21
77.9663
  0
LINE
  8
0
 10
-269.568
 20
77.9663
 11
-269.755
 21
78.4549
  0
LINE
  8
0
 10
-269.755
 20
78.4549
 11
-269.891
 21
78.9604
  0
LINE
  8
0
 10
-269.891
 20
78.9604
 11
-269.973
 21
79.4774
  0
LINE
  8
0
 10
-269.973
 20
79.4774
 11
-270
 21
80
  0
LINE
  8
0
 10
-270
 20
80
 11
-269.973
 21
80.5226
  0
LINE
  8
0
 10
-269.973
 20
80.5226
 11
-269.891
 21
81.0396
  0
LINE
  8
0
 10
-269.891
 20
81.0396
 11
-269.755
 21
81.5451
  0
LINE
  8
0
 10
-269.755
 20
81.5451
 11
-269.568
 21
82.0337
  0
LINE
  8
0
 10
-269.568
 20
82.0337
 11
-269.33
 21
82.5
  0
LINE
  8
0
 10
-269.33
 20
82.5
 11
-269.045
 21
82.9389
  0
LINE
  8
0
 10
-269.045
 20
82.9389
 11
-268.716
 21
83.3456
  0
LINE
  8
0
 10
-268.716
 20
83.3456
 11
-268.346
 21
83.7157
  0
LINE
  8
0
 10
-268.346
 20
83.7157
 11
-267.939
 21
84.0451
  0
LINE
  8
0
 10
-267.939
 20
84.0451
 11
-267.5
 21
84.3301
  0
LINE
  8
0
 10
-267.5
 20
84.3301
 11
-267.034
 21
84.5677
  0
LINE
  8
0
 10
-267.034
 20
84.5677
 11
-266.545
 21
84.7553
  0
LINE
  8
0
 10
-266.545
 20
84.7553
 11
-266.04
 21
84.8907
  0
LINE
  8
0
 10
-266.04
 20
84.8907
 11
-265.523
 21
84.9726
  0
LINE
  8
0
 10
-265.523
 20
84.9726
 11
-265
 21
85
  0
LINE
  8
0
 10
-265
 20
85
 11
-264.477
 21
84.9726
  0
LINE
  8
0
 10
-264.477
 20
84.9726
 11
-263.96
 21
84.8907
  0
LINE
  8
0
 10
-263.96
 20
84.8907
 11
-263.455
 21
84.7553
  0
LINE
  8
0
 10
-263.455
 20
84.7553
 11
-262.966
 21
84.5677
  0
LINE
  8
0
 10
-262.966
 20
84.5677
 11
-262.5
 21
84.3301
  0
LINE
  8
0
 10
-262.5
 20
84.3301
 11
-262.061
 21
84.0451
  0
LINE
  8
0
 10
-262.061
 20
84.0451
 11
-261.654
 21
83.7157
  0
LINE
  8
0
 10
-261.654
 20
83.7157
 11
-261.284
 21
83.3456
  0
LINE
  8
0
 10
-261.284
 20
83.3456
 11
-260.955
 21
82.9389
  0
LINE
  8
0
 10
-260.955
 20
82.9389
 11
-260.67
 21
82.5
  0
LINE
  8
0
 10
-260.67
 20
82.5
 11
-260.432
 21
82.0337
  0
LINE
  8
0
 10
-260.432
 20
82.0337
 11
-260.245
 21
81.5451
  0
LINE
  8
0
 10
-260.245
 20
81.5451
 11
-260.109
 21
81.0396
  0
LINE
  8
0
 10
-260.109
 20
81.0396
 11
-260.027
 21
80.5226
  0
LINE
  8
0
 10
-260.027
 20
80.5226
 11
-260
 21
80
  0
LINE
  8
0
 10
-260
 20
80
 11
-260.027
 21
79.4774
  0
LINE
  8
0
 10
-260.027
 20
79.4774
 11
-260.109
 21
78.9604
  0
LINE
  8
0
 10
-260.109
 20
78.9604
 11
-260.245
 21
78.4549
  0
LINE
  8
0
 10
-260.245
 20
78.4549
 11
-260.432
 21
77.9663
  0
LINE
  8
0
 10
-260.432
 20
77.9663
 11
-260.67
 21
77.5
  0
LINE
  8
0
 10
-260.67
 20
77.5
 11
-260.955
 21
77.0611
  0
LINE
  8
0
 10
-260.955
 20
77.0611
 11
-261.284
 21
76.6543
  0
LINE
  8
0
 10
-261.284
 20
76.6543
 11
-261.654
 21
76.2843
  0
LINE
  8
0
 10
-261.654
 20
76.2843
 11
-262.061
 21
75.9549
  0
LINE
  8
0
 10
-262.061
 20
75.9549
 11
-262.5
 21
75.6699
  0
LINE
  8
0
 10
-262.5
 20
75.6699
 11
-262.966
 21
75.4323
  0
LINE
  8
0
 10
-262.966
 20
75.4323
 11
-263.455
 21
75.2447
  0
LINE
  8
0
 10
-263.455
 20
75.2447
 11
-263.96
 21
75.1093
  0
LINE
  8
0
 10
-263.96
 20
75.1093
 11
-264.477
 21
75.0274
  0
LINE
  8
0
 10
-264.477
 20
75.0274
 11
-265
 21
75
  0
LINE
  8
0
 10
-265
 20
75
 11
-265.523
 21
75.0274
  0
LINE
  8
0
 10
264.477
 20
75.0274
 11
263.96
 21
75.1093
  0
LINE
  8
0
 10
263.96
 20
75.1093
 11
263.455
 21
75.2447
  0
LINE
  8
0
 10
263.455
 20
75.2447
 11
262.966
 21
75.4323
  0
LINE
  8
0
 10
262.966
 20
75.4323
 11
262.5
 21
75.6699
  0
LINE
  8
0
 10
262.5
 20
75.6699
 11
262.061
 21
75.9549
  0
LINE
  8
0
 10
262.061
 20
75.9549
 11
261.654
 21
76.2843
  0
LINE
  8
0
 10
261.654
 20
76.2843
 11
261.284
 21
76.6543
  0
LINE
  8
0
 10
261.284
 20
76.6543
 11
260.955
 21
77.0611
  0
LINE
  8
0
 10
260.955
 20
77.0611
 11
260.67
 21
77.5
  0
LINE
  8
0
 10
260.67
 20
77.5
 11
260.432
 21
77.9663
  0
LINE
  8
0
 10
260.432
 20
77.9663
 11
260.245
 21
78.4549
  0
LINE
  8
0
 10
260.245
 20
78.4549
 11
260.109
 21
78.9604
  0
LINE
  8
0
 10
260.109
 20
78.9604
 11
260.027
 21
79.4774
  0
LINE
  8
0
 10
260.027
 20
79.4774
 11
260
 21
80
  0
LINE
  8
0
 10
260
 20
80
 11
260.027
 21
80.5226
  0
LINE
  8
0
 10
260.027
 20
80.5226
 11
260.109
 21
81.0396
  0
LINE
  8
0
 10
260.109
 20
81.0396
 11
260.245
 21
81.5451
  0
LINE
  8
0
 10
260.245
 20
81.5451
 11
260.432
 21
82.0337
  0
LINE
  8
0
 10
260.432
 20
82.0337
 11
260.67
 21
82.5
  0
LINE
  8
0
 10
260.67
 20
82.5
 11
260.955
 21
82.9389
  0
LINE
  8
0
 10
260.955
 20
82.9389
 11
261.284
 21
83.3456
  0
LINE
  8
0
 10
261.284
 20
83.3456
 11
261.654
 21
83.7157
  0
LINE
  8
0
 10
261.654
 20
83.7157
 11
262.061
 21
84.0451
  0
LINE
  8
0
 10
262.061
 20
84.0451
 11
262.5
 21
84.3301
  0
LINE
  8
0
 10
262.5
 20
84.3301
 11
262.966
 21
84.5677
  0
LINE
  8
0
 10
262.966
 20
84.5677
 11
263.455
 21
84.7553
  0
LINE
  8
0
 10
263.455
 20
84.7553
 11
263.96
 21
84.8907
  0
LINE
  8
0
 10
263.96
 20
84.8907
 11
264.477
 21
84.9726
  0
LINE
  8
0
 10
264.477
 20
84.9726
 11
265
 21
85
  0
LINE
  8
0
 10
265
 20
85
 11
265.523
 21
84.9726
  0
LINE
  8
0
 10
265.523
 20
84.9726
 11
266.04
 21
84.8907
  0
LINE
  8
0
 10
266.04
 20
84.8907
 11
266.545
 21
84.7553
  0
LINE
  8
0
 10
266.545
 20
84.7553
 11
267.034
 21
84.5677
  0
LINE
  8
0
 10
267.034
 20
84.5677
 11
267.5
 21
84.3301
  0
LINE
  8
0
 10
267.5
 20
84.3301
 11
267.939
 21
84.0451
  0
LINE
  8
0
 10
267.939
 20
84.0451
 11
268.346
 21
83.7157
  0
LINE
  8
0
 10
268.346
 20
83.7157
 11
268.716
 21
83.3456
  0
LINE
  8
0
 10
268.716
 20
83.3456
 11
269.045
 21
82.9389
  0
LINE
  8
0
 10
269.045
 20
82.9389
 11
269.33
 21
82.5
  0
LINE
  8
0
 10
269.33
 20
82.5
 11
269.568
 21
82.0337
  0
LINE
  8
0
 10
269.568
 20
82.0337
 11
269.755
 21
81.5451
  0
LINE
  8
0
 10
269.755
 20
81.5451
 11
269.891
 21
81.0396
  0
LINE
  8
0
 10
269.891
 20
81.0396
 11
269.973
 21
80.5226
  0
LINE
  8
0
 10
269.973
 20
80.5226
 11
270
 21
80
  0
LINE
  8
0
 10
270
 20
80
 11
269.973
 21
79.4774
  0
LINE
  8
0
 10
269.973
 20
79.4774
 11
269.891
 21
78.9604
  0
LINE
  8
0
 10
269.891
 20
78.9604
 11
269.755
 21
78.4549
  0
LINE
  8
0
 10
269.755
 20
78.4549
 11
269.568
 21
77.9663
  0
LINE
  8
0
 10
269.568
 20
77.9663
 11
269.33
 21
77.5
  0
LINE
  8
0
 10
269.33
 20
77.5
 11
269.045
 21
77.0611
  0
LINE
  8
0
 10
269.045
 20
77.0611
 11
268.716
 21
76.6543
  0
LINE
  8
0
 10
268.716
 20
76.6543
 11
268.346
 21
76.2843
  0
LINE
  8
0
 10
268.346
 20
76.2843
 11
267.939
 21
75.9549
  0
LINE
  8
0
 10
267.939
 20
75.9549
 11
267.5
 21
75.6699
  0
LINE
  8
0
 10
267.5
 20
75.6699
 11
267.034
 21
75.4323
  0
LINE
  8
0
 10
267.034
 20
75.4323
 11
266.545
 21
75.2447
  0
LINE
  8
0
 10
266.545
 20
75.2447
 11
266.04
 21
75.1093
  0
LINE
  8
0
 10
266.04
 20
75.1093
 11
265.523
 21
75.0274
  0
LINE
  8
0
 10
265.523
 20
75.0274
 11
265
 21
75
  0
LINE
  8
0
 10
265
 20
75
 11
264.477
 21
75.0274
  0
LINE
  8
0
 10
-265.309
 20
37.7713
 11
-265.552
 21
37.8188
  0
LINE
  8
0
 10
-265.552
 20
37.8188
 11
-265.789
 21
37.8928
  0
LINE
  8
0
 10
-265.789
 20
37.8928
 11
-266.016
 21
37.9924
  0
LINE
  8
0
 10
-266.016
 20
37.9924
 11
-266.231
 21
38.1164
  0
LINE
  8
0
 10
-266.231
 20
38.1164
 11
-266.43
 21
38.2632
  0
LINE
  8
0
 10
-266.43
 20
38.2632
 11
-266.613
 21
38.4311
  0
LINE
  8
0
 10
-266.613
 20
38.4311
 11
-266.776
 21
38.618
  0
LINE
  8
0
 10
-266.776
 20
38.618
 11
-266.917
 21
38.8217
  0
LINE
  8
0
 10
-266.917
 20
38.8217
 11
-267.035
 21
39.0397
  0
LINE
  8
0
 10
-267.035
 20
39.0397
 11
-267.128
 21
39.2694
  0
LINE
  8
0
 10
-267.128
 20
39.2694
 11
-267.196
 21
39.508
  0
LINE
  8
0
 10
-267.196
 20
39.508
 11
-267.236
 21
39.7525
  0
LINE
  8
0
 10
-267.236
 20
39.7525
 11
-267.25
 21
40
  0
LINE
  8
0
 10
-267.25
 20
40
 11
-267.236
 21
40.2475
  0
LINE
  8
0
 10
-267.236
 20
40.2475
 11
-267.196
 21
40.492
  0
LINE
  8
0
 10
-267.196
 20
40.492
 11
-267.128
 21
40.7306
  0
LINE
  8
0
 10
-267.128
 20
40.7306
 11
-267.035
 21
40.9602
  0
LINE
  8
0
 10
-267.035
 20
40.9602
 11
-266.917
 21
41.1783
  0
LINE
  8
0
 10
-266.917
 20
41.1783
 11
-266.776
 21
41.382
  0
LINE
  8
0
 10
-266.776
 20
41.382
 11
-266.613
 21
41.5689
  0
LINE
  8
0
 10
-266.613
 20
41.5689
 11
-266.43
 21
41.7368
  0
LINE
  8
0
 10
-266.43
 20
41.7368
 11
-266.231
 21
41.8836
  0
LINE
  8
0
 10
-266.231
 20
41.8836
 11
-266.016
 21
42.0076
  0
LINE
  8
0
 10
-266.016
 20
42.0076
 11
-265.789
 21
42.1071
  0
LINE
  8
0
 10
-265.789
 20
42.1071
 11
-265.552
 21
42.1812
  0
LINE
  8
0
 10
-265.552
 20
42.1812
 11
-265.309
 21
42.2287
  0
LINE
  8
0
 10
-265.309
 20
42.2287
 11
-265.062
 21
42.2491
  0
LINE
  8
0
 10
-265.062
 20
42.2491
 11
-264.814
 21
42.2423
  0
LINE
  8
0
 10
-264.814
 20
42.2423
 11
-264.569
 21
42.2083
  0
LINE
  8
0
 10
-264.569
 20
42.2083
 11
-264.328
 21
42.1474
  0
LINE
  8
0
 10
-264.328
 20
42.1474
 11
-264.096
 21
42.0605
  0
LINE
  8
0
 10
-264.096
 20
42.0605
 11
-263.875
 21
41.9485
  0
LINE
  8
0
 10
-263.875
 20
41.9485
 11
-263.667
 21
41.813
  0
LINE
  8
0
 10
-263.667
 20
41.813
 11
-263.476
 21
41.6554
  0
LINE
  8
0
 10
-263.476
 20
41.6554
 11
-263.303
 21
41.4777
  0
LINE
  8
0
 10
-263.303
 20
41.4777
 11
-263.151
 21
41.2821
  0
LINE
  8
0
 10
-263.151
 20
41.2821
 11
-263.021
 21
41.0709
  0
LINE
  8
0
 10
-263.021
 20
41.0709
 11
-262.915
 21
40.8467
  0
LINE
  8
0
 10
-262.915
 20
40.8467
 11
-262.835
 21
40.6122
  0
LINE
  8
0
 10
-262.835
 20
40.6122
 11
-262.781
 21
40.3703
  0
LINE
  8
0
 10
-262.781
 20
40.3703
 11
-262.753
 21
40.1239
  0
LINE
  8
0
 10
-262.753
 20
40.1239
 11
-262.753
 21
39.8761
  0
LINE
  8
0
 10
-262.753
 20
39.8761
 11
-262.781
 21
39.6297
  0
LINE
  8
0
 10
-262.781
 20
39.6297
 11
-262.835
 21
39.3878
  0
LINE
  8
0
 10
-262.835
 20
39.3878
 11
-262.915
 21
39.1533
  0
LINE
  8
0
 10
-262.915
 20
39.1533
 11
-263.021
 21
38.9291
  0
LINE
  8
0
 10
-263.021
 20
38.9291
 11
-263.151
 21
38.7179
  0
LINE
  8
0
 10
-263.151
 20
38.7179
 11
-263.303
 21
38.5223
  0
LINE
  8
0
 10
-263.303
 20
38.5223
 11
-263.476
 21
38.3446
  0
LINE
  8
0
 10
-263.476
 20
38.3446
 11
-263.667
 21
38.187
  0
LINE
  8
0
 10
-263.667
 20
38.187
 11
-263.875
 21
38.0514
  0
LINE
  8
0
 10
-263.875
 20
38.0514
 11
-264.096
 21
37.9395
  0
LINE
  8
0
 10
-264.096
 20
37.9395
 11
-264.328
 21
37.8526
  0
LINE
  8
0
 10
-264.328
 20
37.8526
 11
-264.569
 21
37.7917
  0
LINE
  8
0
 10
-264.569
 20
37.7917
 11
-264.814
 21
37.7577
  0
LINE
  8
0
 10
-264.814
 20
37.7577
 11
-265.062
 21
37.7509
  0
LINE
  8
0
 10
-265.062
 20
37.7509
 11
-265.309
 21
37.7713
  0
LINE
  8
0
 10
264.814
 20
37.7577
 11
264.569
 21
37.7917
  0
LINE
  8
0
 10
264.569
 20
37.7917
 11
264.328
 21
37.8526
  0
LINE
  8
0
 10
264.328
 20
37.8526
 11
264.096
 21
37.9395
  0
LINE
  8
0
 10
264.096
 20
37.9395
 11
263.875
 21
38.0514
  0
LINE
  8
0
 10
263.875
 20
38.0514
 11
263.667
 21
38.187
  0
LINE
  8
0
 10
263.667
 20
38.187
 11
263.476
 21
38.3446
  0
LINE
  8
0
 10
263.476
 20
38.3446
 11
263.303
 21
38.5223
  0
LINE
  8
0
 10
263.303
 20
38.5223
 11
263.151
 21
38.7179
  0
LINE
  8
0
 10
263.151
 20
38.7179
 11
263.021
 21
38.9291
  0
LINE
  8
0
 10
263.021
 20
38.9291
 11
262.915
 21
39.1533
  0
LINE
  8
0
 10
262.915
 20
39.1533
 11
262.835
 21
39.3878
  0
LINE
  8
0
 10
262.835
 20
39.3878
 11
262.781
 21
39.6297
  0
LINE
  8
0
 10
262.781
 20
39.6297
 11
262.753
 21
39.8761
  0
LINE
  8
0
 10
262.753
 20
39.8761
 11
262.753
 21
40.1239
  0
LINE
  8
0
 10
262.753
 20
40.1239
 11
262.781
 21
40.3703
  0
LINE
  8
0
 10
262.781
 20
40.3703
 11
262.835
 21
40.6122
  0
LINE
  8
0
 10
262.835
 20
40.6122
 11
262.915
 21
40.8467
  0
LINE
  8
0
 10
262.915
 20
40.8467
 11
263.021
 21
41.0709
  0
LINE
  8
0
 10
263.021
 20
41.0709
 11
263.151
 21
41.2821
  0
LINE
  8
0
 10
263.151
 20
41.2821
 11
263.303
 21
41.4777
  0
LINE
  8
0
 10
263.303
 20
41.4777
 11
263.476
 21
41.6554
  0
LINE
  8
0
 10
263.476
 20
41.6554
 11
263.667
 21
41.813
  0
LINE
  8
0
 10
263.667
 20
41.813
 11
263.875
 21
41.9485
  0
LINE
  8
0
 10
263.875
 20
41.9485
 11
264.096
 21
42.0605
  0
LINE
  8
0
 10
264.096
 20
42.0605
 11
264.328
 21
42.1474
  0
LINE
  8
0
 10
264.328
 20
42.1474
 11
264.569
 21
42.2083
  0
LINE
  8
0
 10
264.569
 20
42.2083
 11
264.814
 21
42.2423
  0
LINE
  8
0
 10
264.814
 20
42.2423
 11
265.062
 21
42.2491
  0
LINE
  8
0
 10
265.062
 20
42.2491
 11
265.309
 21
42.2287
  0
LINE
  8
0
 10
265.309
 20
42.2287
 11
265.552
 21
42.1812
  0
LINE
  8
0
 10
265.552
 20
42.1812
 11
265.789
 21
42.1071
  0
LINE
  8
0
 10
265.789
 20
42.1071
 11
266.016
 21
42.0076
  0
LINE
  8
0
 10
266.016
 20
42.0076
 11
266.231
 21
41.8836
  0
LINE
  8
0
 10
266.231
 20
41.8836
 11
266.43
 21
41.7368
  0
LINE
  8
0
 10
266.43
 20
41.7368
 11
266.613
 21
41.5689
  0
LINE
  8
0
 10
266.613
 20
41.5689
 11
266.776
 21
41.382
  0
LINE
  8
0
 10
266.776
 20
41.382
 11
266.917
 21
41.1783
  0
LINE
  8
0
 10
266.917
 20
41.1783
 11
267.035
 21
40.9602
  0
LINE
  8
0
 10
267.035
 20
40.9602
 11
267.128
 21
40.7306
  0
LINE
  8
0
 10
267.128
 20
40.7306
 11
267.196
 21
40.492
  0
LINE
  8
0
 10
267.196
 20
40.492
 11
267.236
 21
40.2475
  0
LINE
  8
0
 10
267.236
 20
40.2475
 11
267.25
 21
40
  0
LINE
  8
0
 10
267.25
 20
40
 11
267.236
 21
39.7525
  0
LINE
  8
0
 10
267.236
 20
39.7525
 11
267.196
 21
39.508
  0
LINE
  8
0
 10
267.196
 20
39.508
 11
267.128
 21
39.2694
  0
LINE
  8
0
 10
267.128
 20
39.2694
 11
267.035
 21
39.0397
  0
LINE
  8
0
 10
267.035
 20
39.0397
 11
266.917
 21
38.8217
  0
LINE
  8
0
 10
266.917
 20
38.8217
 11
266.776
 21
38.618
  0
LINE
  8
0
 10
266.776
 20
38.618
 11
266.613
 21
38.4311
  0
LINE
  8
0
 10
266.613
 20
38.4311
 11
266.43
 21
38.2632
  0
LINE
  8
0
 10
266.43
 20
38.2632
 11
266.231
 21
38.1164
  0
LINE
  8
0
 10
266.231
 20
38.1164
 11
266.016
 21
37.9924
  0
LINE
  8
0
 10
266.016
 20
37.9924
 11
265.789
 21
37.8928
  0
LINE
  8
0
 10
265.789
 20
37.8928
 11
265.552
 21
37.8188
  0
LINE
  8
0
 10
265.552
 20
37.8188
 11
265.309
 21
37.7713
  0
LINE
  8
0
 10
265.309
 20
37.7713
 11
265.062
 21
37.7509
  0
LINE
  8
0
 10
265.062
 20
37.7509
 11
264.814
 21
37.7577
  0
LINE
  8
0
 10
264.814
 20
-42.2423
 11
264.569
 21
-42.2083
  0
LINE
  8
0
 10
264.569
 20
-42.2083
 11
264.328
 21
-42.1474
  0
LINE
  8
0
 10
264.328
 20
-42.1474
 11
264.096
 21
-42.0605
  0
LINE
  8
0
 10
264.096
 20
-42.0605
 11
263.875
 21
-41.9485
  0
LINE
  8
0
 10
263.875
 20
-41.9485
 11
263.667
 21
-41.813
  0
LINE
  8
0
 10
263.667
 20
-41.813
 11
263.476
 21
-41.6554
  0
LINE
  8
0
 10
263.476
 20
-41.6554
 11
263.303
 21
-41.4777
  0
LINE
  8
0
 10
263.303
 20
-41.4777
 11
263.151
 21
-41.2821
  0
LINE
  8
0
 10
263.151
 20
-41.2821
 11
263.021
 21
-41.0709
  0
LINE
  8
0
 10
263.021
 20
-41.0709
 11
262.915
 21
-40.8467
  0
LINE
  8
0
 10
262.915
 20
-40.8467
 11
262.835
 21
-40.6122
  0
LINE
  8
0
 10
262.835
 20
-40.6122
 11
262.781
 21
-40.3703
  0
LINE
  8
0
 10
262.781
 20
-40.3703
 11
262.753
 21
-40.1239
  0
LINE
  8
0
 10
262.753
 20
-40.1239
 11
262.753
 21
-39.8761
  0
LINE
  8
0
 10
262.753
 20
-39.8761
 11
262.781
 21
-39.6297
  0
LINE
  8
0
 10
262.781
 20
-39.6297
 11
262.835
 21
-39.3878
  0
LINE
  8
0
 10
262.835
 20
-39.3878
 11
262.915
 21
-39.1533
  0
LINE
  8
0
 10
262.915
 20
-39.1533
 11
263.021
 21
-38.9291
  0
LINE
  8
0
 10
263.021
 20
-38.9291
 11
263.151
 21
-38.7179
  0
LINE
  8
0
 10
263.151
 20
-38.7179
 11
263.303
 21
-38.5223
  0
LINE
  8
0
 10
263.303
 20
-38.5223
 11
263.476
 21
-38.3446
  0
LINE
  8
0
 10
263.476
 20
-38.3446
 11
263.667
 21
-38.187
  0
LINE
  8
0
 10
263.667
 20
-38.187
 11
263.875
 21
-38.0514
  0
LINE
  8
0
 10
263.875
 20
-38.0514
 11
264.096
 21
-37.9395
  0
LINE
  8
0
 10
264.096
 20
-37.9395
 11
264.328
 21
-37.8526
  0
LINE
  8
0
 10
264.328
 20
-37.8526
 11
264.569
 21
-37.7917
  0
LINE
  8
0
 10
264.569
 20
-37.7917
 11
264.814
 21
-37.7577
  0
LINE
  8
0
 10
264.814
 20
-37.7577
 11
265.062
 21
-37.7509
  0
LINE
  8
0
 10
265.062
 20
-37.7509
 11
265.309
 21
-37.7713
  0
LINE
  8
0
 10
265.309
 20
-37.7713
 11
265.552
 21
-37.8188
  0
LINE
  8
0
 10
265.552
 20
-37.8188
 11
265.789
 21
-37.8928
  0
LINE
  8
0
 10
265.789
 20
-37.8928
 11
266.016
 21
-37.9924
  0
LINE
  8
0
 10
266.016
 20
-37.9924
 11
266.231
 21
-38.1164
  0
LINE
  8
0
 10
266.231
 20
-38.1164
 11
266.43
 21
-38.2632
  0
LINE
  8
0
 10
266.43
 20
-38.2632
 11
266.613
 21
-38.4311
  0
LINE
  8
0
 10
266.613
 20
-38.4311
 11
266.776
 21
-38.618
  0
LINE
  8
0
 10
266.776
 20
-38.618
 11
266.917
 21
-38.8217
  0
LINE
  8
0
 10
266.917
 20
-38.8217
 11
267.035
 21
-39.0397
  0
LINE
  8
0
 10
267.035
 20
-39.0397
 11
267.128
 21
-39.2694
  0
LINE
  8
0
 10
267.128
 20
-39.2694
 11
267.196
 21
-39.508
  0
LINE
  8
0
 10
267.196
 20
-39.508
 11
267.236
 21
-39.7525
  0
LINE
  8
0
 10
267.236
 20
-39.7525
 11
267.25
 21
-40
  0
LINE
  8
0
 10
267.25
 20
-40
 11
267.236
 21
-40.2475
  0
LINE
  8
0
 10
267.236
 20
-40.2475
 11
267.196
 21
-40.492
  0
LINE
  8
0
 10
267.196
 20
-40.492
 11
267.128
 21
-40.7306
  0
LINE
  8
0
 10
267.128
 20
-40.7306
 11
267.035
 21
-40.9602
  0
LINE
  8
0
 10
267.035
 20
-40.9602
 11
266.917
 21
-41.1783
  0
LINE
  8
0
 10
266.917
 20
-41.1783
 11
266.776
 21
-41.382
  0
LINE
  8
0
 10
266.776
 20
-41.382
 11
266.613
 21
-41.5689
  0
LINE
  8
0
 10
266.613
 20
-41.5689
 11
266.43
 21
-41.7368
  0
LINE
  8
0
 10
266.43
 20
-41.7368
 11
266.231
 21
-41.8836
  0
LINE
  8
0
 10
266.231
 20
-41.8836
 11
266.016
 21
-42.0076
  0
LINE
  8
0
 10
266.016
 20
-42.0076
 11
265.789
 21
-42.1071
  0
LINE
  8
0
 10
265.789
 20
-42.1071
 11
265.552
 21
-42.1812
  0
LINE
  8
0
 10
265.552
 20
-42.1812
 11
265.309
 21
-42.2287
  0
LINE
  8
0
 10
265.309
 20
-42.2287
 11
265.062
 21
-42.2491
  0
LINE
  8
0
 10
265.062
 20
-42.2491
 11
264.814
 21
-42.2423
  0
LINE
  8
0
 10
-265.309
 20
-42.2287
 11
-265.552
 21
-42.1812
  0
LINE
  8
0
 10
-265.552
 20
-42.1812
 11
-265.789
 21
-42.1071
  0
LINE
  8
0
 10
-265.789
 20
-42.1071
 11
-266.016
 21
-42.0076
  0
LINE
  8
0
 10
-266.016
 20
-42.0076
 11
-266.231
 21
-41.8836
  0
LINE
  8
0
 10
-266.231
 20
-41.8836
 11
-266.43
 21
-41.7368
  0
LINE
  8
0
 10
-266.43
 20
-41.7368
 11
-266.613
 21
-41.5689
  0
LINE
  8
0
 10
-266.613
 20
-41.5689
 11
-266.776
 21
-41.382
  0
LINE
  8
0
 10
-266.776
 20
-41.382
 11
-266.917
 21
-41.1783
  0
LINE
  8
0
 10
-266.917
 20
-41.1783
 11
-267.035
 21
-40.9602
  0
LINE
  8
0
 10
-267.035
 20
-40.9602
 11
-267.128
 21
-40.7306
  0
LINE
  8
0
 10
-267.128
 20
-40.7306
 11
-267.196
 21
-40.492
  0
LINE
  8
0
 10
-267.196
 20
-40.492
 11
-267.236
 21
-40.2475
  0
LINE
  8
0
 10
-267.236
 20
-40.2475
 11
-267.25
 21
-40
  0
LINE
  8
0
 10
-267.25
 20
-40
 11
-267.236
 21
-39.7525
  0
LINE
  8
0
 10
-267.236
 20
-39.7525
 11
-267.196
 21
-39.508
  0
LINE
  8
0
 10
-267.196
 20
-39.508
 11
-267.128
 21
-39.2694
  0
LINE
  8
0
 10
-267.128
 20
-39.2694
 11
-267.035
 21
-39.0397
  0
LINE
  8
0
 10
-267.035
 20
-39.0397
 11
-266.917
 21
-38.8217
  0
LINE
  8
0
 10
-266.917
 20
-38.8217
 11
-266.776
 21
-38.618
  0
LINE
  8
0
 10
-266.776
 20
-38.618
 11
-266.613
 21
-38.4311
  0
LINE
  8
0
 10
-266.613
 20
-38.4311
 11
-266.43
 21
-38.2632
  0
LINE
  8
0
 10
-266.43
 20
-38.2632
 11
-266.231
 21
-38.1164
  0
LINE
  8
0
 10
-266.231
 20
-38.1164
 11
-266.016
 21
-37.9924
  0
LINE
  8
0
 10
-266.016
 20
-37.9924
 11
-265.789
 21
-37.8928
  0
LINE
  8
0
 10
-265.789
 20
-37.8928
 11
-265.552
 21
-37.8188
  0
LINE
  8
0
 10
-265.552
 20
-37.8188
 11
-265.309
 21
-37.7713
  0
LINE
  8
0
 10
-265.309
 20
-37.7713
 11
-265.062
 21
-37.7509
  0
LINE
  8
0
 10
-265.062
 20
-37.7509
 11
-264.814
 21
-37.7577
  0
LINE
  8
0
 10
-264.814
 20
-37.7577
 11
-264.569
 21
-37.7917
  0
LINE
  8
0
 10
-264.569
 20
-37.7917
 11
-264.328
 21
-37.8526
  0
LINE
  8
0
 10
-264.328
 20
-37.8526
 11
-264.096
 21
-37.9395
  0
LINE
  8
0
 10
-264.096
 20
-37.9395
 11
-263.875
 21
-38.0514
  0
LINE
  8
0
 10
-263.875
 20
-38.0514
 11
-263.667
 21
-38.187
  0
LINE
  8
0
 10
-263.667
 20
-38.187
 11
-263.476
 21
-38.3446
  0
LINE
  8
0
 10
-263.476
 20
-38.3446
 11
-263.303
 21
-38.5223
  0
LINE
  8
0
 10
-263.303
 20
-38.5223
 11
-263.151
 21
-38.7179
  0
LINE
  8
0
 10
-263.151
 20
-38.7179
 11
-263.021
 21
-38.9291
  0
LINE
  8
0
 10
-263.021
 20
-38.9291
 11
-262.915
 21
-39.1533
  0
LINE
  8
0
 10
-262.915
 20
-39.1533
 11
-262.835
 21
-39.3878
  0
LINE
  8
0
 10
-262.835
 20
-39.3878
 11
-262.781
 21
-39.6297
  0
LINE
  8
0
 10
-262.781
 20
-39.6297
 11
-262.753
 21
-39.8761
  0
LINE
  8
0
 10
-262.753
 20
-39.8761
 11
-262.753
 21
-40.1239
  0
LINE
  8
0
 10
-262.753
 20
-40.1239
 11
-262.781
 21
-40.3703
  0
LINE
  8
0
 10
-262.781
 20
-40.3703
 11
-262.835
 21
-40.6122
  0
LINE
  8
0
 10
-262.835
 20
-40.6122
 11
-262.915
 21
-40.8467
  0
LINE
  8
0
 10
-262.915
 20
-40.8467
 11
-263.021
 21
-41.0709
  0
LINE
  8
0
 10
-263.021
 20
-41.0709
 11
-263.151
 21
-41.2821
  0
LINE
  8
0
 10
-263.151
 20
-41.2821
 11
-263.303
 21
-41.4777
  0
LINE
  8
0
 10
-263.303
 20
-41.4777
 11
-263.476
 21
-41.6554
  0
LINE
  8
0
 10
-263.476
 20
-41.6554
 11
-263.667
 21
-41.813
  0
LINE
  8
0
 10
-263.667
 20
-41.813
 11
-263.875
 21
-41.9485
  0
LINE
  8
0
 10
-263.875
 20
-41.9485
 11
-264.096
 21
-42.0605
  0
LINE
  8
0
 10
-264.096
 20
-42.0605
 11
-264.328
 21
-42.1474
  0
LINE
  8
0
 10
-264.328
 20
-42.1474
 11
-264.569
 21
-42.2083
  0
LINE
  8
0
 10
-264.569
 20
-42.2083
 11
-264.814
 21
-42.2423
  0
LINE
  8
0
 10
-264.814
 20
-42.2423
 11
-265.062
 21
-42.2491
  0
LINE
  8
0
 10
-265.062
 20
-42.2491
 11
-265.309
 21
-42.2287
  0
LINE
  8
0
 10
-265.523
 20
-84.9726
 11
-266.04
 21
-84.8907
  0
LINE
  8
0
 10
-266.04
 20
-84.8907
 11
-266.545
 21
-84.7553
  0
LINE
  8
0
 10
-266.545
 20
-84.7553
 11
-267.034
 21
-84.5677
  0
LINE
  8
0
 10
-267.034
 20
-84.5677
 11
-267.5
 21
-84.3301
  0
LINE
  8
0
 10
-267.5
 20
-84.3301
 11
-267.939
 21
-84.0451
  0
LINE
  8
0
 10
-267.939
 20
-84.0451
 11
-268.346
 21
-83.7157
  0
LINE
  8
0
 10
-268.346
 20
-83.7157
 11
-268.716
 21
-83.3456
  0
LINE
  8
0
 10
-268.716
 20
-83.3456
 11
-269.045
 21
-82.9389
  0
LINE
  8
0
 10
-269.045
 20
-82.9389
 11
-269.33
 21
-82.5
  0
LINE
  8
0
 10
-269.33
 20
-82.5
 11
-269.568
 21
-82.0337
  0
LINE
  8
0
 10
-269.568
 20
-82.0337
 11
-269.755
 21
-81.5451
  0
LINE
  8
0
 10
-269.755
 20
-81.5451
 11
-269.891
 21
-81.0396
  0
LINE
  8
0
 10
-269.891
 20
-81.0396
 11
-269.973
 21
-80.5226
  0
LINE
  8
0
 10
-269.973
 20
-80.5226
 11
-270
 21
-80
  0
LINE
  8
0
 10
-270
 20
-80
 11
-269.973
 21
-79.4774
  0
LINE
  8
0
 10
-269.973
 20
-79.4774
 11
-269.891
 21
-78.9604
  0
LINE
  8
0
 10
-269.891
 20
-78.9604
 11
-269.755
 21
-78.4549
  0
LINE
  8
0
 10
-269.755
 20
-78.4549
 11
-269.568
 21
-77.9663
  0
LINE
  8
0
 10
-269.568
 20
-77.9663
 11
-269.33
 21
-77.5
  0
LINE
  8
0
 10
-269.33
 20
-77.5
 11
-269.045
 21
-77.0611
  0
LINE
  8
0
 10
-269.045
 20
-77.0611
 11
-268.716
 21
-76.6543
  0
LINE
  8
0
 10
-268.716
 20
-76.6543
 11
-268.346
 21
-76.2843
  0
LINE
  8
0
 10
-268.346
 20
-76.2843
 11
-267.939
 21
-75.9549
  0
LINE
  8
0
 10
-267.939
 20
-75.9549
 11
-267.5
 21
-75.6699
  0
LINE
  8
0
 10
-267.5
 20
-75.6699
 11
-267.034
 21
-75.4323
  0
LINE
  8
0
 10
-267.034
 20
-75.4323
 11
-266.545
 21
-75.2447
  0
LINE
  8
0
 10
-266.545
 20
-75.2447
 11
-266.04
 21
-75.1093
  0
LINE
  8
0
 10
-266.04
 20
-75.1093
 11
-265.523
 21
-75.0274
  0
LINE
  8
0
 10
-265.523
 20
-75.0274
 11
-265
 21
-75
  0
LINE
  8
0
 10
-265
 20
-75
 11
-264.477
 21
-75.0274
  0
LINE
  8
0
 10
-264.477
 20
-75.0274
 11
-263.96
 21
-75.1093
  0
LINE
  8
0
 10
-263.96
 20
-75.1093
 11
-263.455
 21
-75.2447
  0
LINE
  8
0
 10
-263.455
 20
-75.2447
 11
-262.966
 21
-75.4323
  0
LINE
  8
0
 10
-262.966
 20
-75.4323
 11
-262.5
 21
-75.6699
  0
LINE
  8
0
 10
-262.5
 20
-75.6699
 11
-262.061
 21
-75.9549
  0
LINE
  8
0
 10
-262.061
 20
-75.9549
 11
-261.654
 21
-76.2843
  0
LINE
  8
0
 10
-261.654
 20
-76.2843
 11
-261.284
 21
-76.6543
  0
LINE
  8
0
 10
-261.284
 20
-76.6543
 11
-260.955
 21
-77.0611
  0
LINE
  8
0
 10
-260.955
 20
-77.0611
 11
-260.67
 21
-77.5
  0
LINE
  8
0
 10
-260.67
 20
-77.5
 11
-260.432
 21
-77.9663
  0
LINE
  8
0
 10
-260.432
 20
-77.9663
 11
-260.245
 21
-78.4549
  0
LINE
  8
0
 10
-260.245
 20
-78.4549
 11
-260.109
 21
-78.9604
  0
LINE
  8
0
 10
-260.109
 20
-78.9604
 11
-260.027
 21
-79.4774
  0
LINE
  8
0
 10
-260.027
 20
-79.4774
 11
-260
 21
-80
  0
LINE
  8
0
 10
-260
 20
-80
 11
-260.027
 21
-80.5226
  0
LINE
  8
0
 10
-260.027
 20
-80.5226
 11
-260.109
 21
-81.0396
  0
LINE
  8
0
 10
-260.109
 20
-81.0396
 11
-260.245
 21
-81.5451
  0
LINE
  8
0
 10
-260.245
 20
-81.5451
 11
-260.432
 21
-82.0337
  0
LINE
  8
0
 10
-260.432
 20
-82.0337
 11
-260.67
 21
-82.5
  0
LINE
  8
0
 10
-260.67
 20
-82.5
 11
-260.955
 21
-82.9389
  0
LINE
  8
0
 10
-260.955
 20
-82.9389
 11
-261.284
 21
-83.3456
  0
LINE
  8
0
 10
-261.284
 20
-83.3456
 11
-261.654
 21
-83.7157
  0
LINE
  8
0
 10
-261.654
 20
-83.7157
 11
-262.061
 21
-84.0451
  0
LINE
  8
0
 10
-262.061
 20
-84.0451
 11
-262.5
 21
-84.3301
  0
LINE
  8
0
 10
-262.5
 20
-84.3301
 11
-262.966
 21
-84.5677
  0
LINE
  8
0
 10
-262.966
 20
-84.5677
 11
-263.455
 21
-84.7553
  0
LINE
  8
0
 10
-263.455
 20
-84.7553
 11
-263.96
 21
-84.8907
  0
LINE
  8
0
 10
-263.96
 20
-84.8907
 11
-264.477
 21
-84.9726
  0
LINE
  8
0
 10
-264.477
 20
-84.9726
 11
-265
 21
-85
  0
LINE
  8
0
 10
-265
 20
-85
 11
-265.523
 21
-84.9726
  0
LINE
  8
0
 10
264.477
 20
-84.9726
 11
263.96
 21
-84.8907
  0
LINE
  8
0
 10
263.96
 20
-84.8907
 11
263.455
 21
-84.7553
  0
LINE
  8
0
 10
263.455
 20
-84.7553
 11
262.966
 21
-84.5677
  0
LINE
  8
0
 10
262.966
 20
-84.5677
 11
262.5
 21
-84.3301
  0
LINE
  8
0
 10
262.5
 20
-84.3301
 11
262.061
 21
-84.0451
  0
LINE
  8
0
 10
262.061
 20
-84.0451
 11
261.654
 21
-83.7157
  0
LINE
  8
0
 10
261.654
 20
-83.7157
 11
261.284
 21
-83.3456
  0
LINE
  8
0
 10
261.284
 20
-83.3456
 11
260.955
 21
-82.9389
  0
LINE
  8
0
 10
260.955
 20
-82.9389
 11
260.67
 21
-82.5
  0
LINE
  8
0
 10
260.67
 20
-82.5
 11
260.432
 21
-82.0337
  0
LINE
  8
0
 10
260.432
 20
-82.0337
 11
260.245
 21
-81.5451
  0
LINE
  8
0
 10
260.245
 20
-81.5451
 11
260.109
 21
-81.0396
  0
LINE
  8
0
 10
260.109
 20
-81.0396
 11
260.027
 21
-80.5226
  0
LINE
  8
0
 10
260.027
 20
-80.5226
 11
260
 21
-80
  0
LINE
  8
0
 10
260
 20
-80
 11
260.027
 21
-79.4774
  0
LINE
  8
0
 10
260.027
 20
-79.4774
 11
260.109
 21
-78.9604
  0
LINE
  8
0
 10
260.109
 20
-78.9604
 11
260.245
 21
-78.4549
  0
LINE
  8
0
 10
260.245
 20
-78.4549
 11
260.432
 21
-77.9663
  0
LINE
  8
0
 10
260.432
 20
-77.9663
 11
260.67
 21
-77.5
  0
LINE
  8
0
 10
260.67
 20
-77.5
 11
260.955
 21
-77.0611
  0
LINE
  8
0
 10
260.955
 20
-77.0611
 11
261.284
 21
-76.6543
  0
LINE
  8
0
 10
261.284
 20
-76.6543
 11
261.654
 21
-76.2843
  0
LINE
  8
0
 10
261.654
 20
-76.2843
 11
262.061
 21
-75.9549
  0
LINE
  8
0
 10
262.061
 20
-75.9549
 11
262.5
 21
-75.6699
  0
LINE
  8
0
 10
262.5
 20
-75.6699
 11
262.966
 21
-75.4323
  0
LINE
  8
0
 10
262.966
 20
-75.4323
 11
263.455
 21
-75.2447
  0
LINE
  8
0
 10
263.455
 20
-75.2447
 11
263.96
 21
-75.1093
  0
LINE
  8
0
 10
263.96
 20
-75.1093
 11
264.477
 21
-75.0274
  0
LINE
  8
0
 10
264.477
 20
-75.0274
 11
265
 21
-75
  0
LINE
  8
0
 10
265
 20
-75
 11
265.523
 21
-75.0274
  0
LINE
  8
0
 10
265.523
 20
-75.0274
 11
266.04
 21
-75.1093
  0
LINE
  8
0
 10
266.04
 20
-75.1093
 11
266.545
 21
-75.2447
  0
LINE
  8
0
 10
266.545
 20
-75.2447
 11
267.034
 21
-75.4323
  0
LINE
  8
0
 10
267.034
 20
-75.4323
 11
267.5
 21
-75.6699
  0
LINE
  8
0
 10
267.5
 20
-75.6699
 11
267.939
 21
-75.9549
  0
LINE
  8
0
 10
267.939
 20
-75.9549
 11
268.346
 21
-76.2843
  0
LINE
  8
0
 10
268.346
 20
-76.2843
 11
268.716
 21
-76.6543
  0
LINE
  8
0
 10
268.716
 20
-76.6543
 11
269.045
 21
-77.0611
  0
LINE
  8
0
 10
269.045
 20
-77.0611
 11
269.33
 21
-77.5
  0
LINE
  8
0
 10
269.33
 20
-77.5
 11
269.568
 21
-77.9663
  0
LINE
  8
0
 10
269.568
 20
-77.9663
 11
269.755
 21
-78.4549
  0
LINE
  8
0
 10
269.755
 20
-78.4549
 11
269.891
 21
-78.9604
  0
LINE
  8
0
 10
269.891
 20
-78.9604
 11
269.973
 21
-79.4774
  0
LINE
  8
0
 10
269.973
 20
-79.4774
 11
270
 21
-80
  0
LINE
  8
0
 10
270
 20
-80
 11
269.973
 21
-80.5226
  0
LINE
  8
0
 10
269.973
 20
-80.5226
 11
269.891
 21
-81.0396
  0
LINE
  8
0
 10
269.891
 20
-81.0396
 11
269.755
 21
-81.5451
  0
LINE
  8
0
 10
269.755
 20
-81.5451
 11
269.568
 21
-82.0337
  0
LINE
  8
0
 10
269.568
 20
-82.0337
 11
269.33
 21
-82.5
  0
LINE
  8
0
 10
269.33
 20
-82.5
 11
269.045
 21
-82.9389
  0
LINE
  8
0
 10
269.045
 20
-82.9389
 11
268.716
 21
-83.3456
  0
LINE
  8
0
 10
268.716
 20
-83.3456
 11
268.346
 21
-83.7157
  0
LINE
  8
0
 10
268.346
 20
-83.7157
 11
267.939
 21
-84.0451
  0
LINE
  8
0
 10
267.939
 20
-84.0451
 11
267.5
 21
-84.3301
  0
LINE
  8
0
 10
267.5
 20
-84.3301
 11
267.034
 21
-84.5677
  0
LINE
  8
0
 10
267.034
 20
-84.5677
 11
266.545
 21
-84.7553
  0
LINE
  8
0
 10
266.545
 20
-84.7553
 11
266.04
 21
-84.8907
  0
LINE
  8
0
 10
266.04
 20
-84.8907
 11
265.523
 21
-84.9726
  0
LINE
  8
0
 10
265.523
 20
-84.9726
 11
265
 21
-85
  0
LINE
  8
0
 10
265
 20
-85
 11
264.477
 21
-84.9726
  0
ENDSEC
  0
SECTION
  2
OBJECTS
  0
DICTIONARY
  0
ENDSEC
  0
EOF
