  0
SECTION
  2
BLOCKS
  0
ENDSEC
  0
SECTION
  2
ENTITIES
  0
LINE
  8
0
 10
250.523
 20
-65.9726
 11
251.04
 21
-65.8907
  0
LINE
  8
0
 10
251.04
 20
-65.8907
 11
251.545
 21
-65.7553
  0
LINE
  8
0
 10
251.545
 20
-65.7553
 11
252.034
 21
-65.5677
  0
LINE
  8
0
 10
252.034
 20
-65.5677
 11
252.5
 21
-65.3301
  0
LINE
  8
0
 10
252.5
 20
-65.3301
 11
252.939
 21
-65.0451
  0
LINE
  8
0
 10
252.939
 20
-65.0451
 11
253.346
 21
-64.7157
  0
LINE
  8
0
 10
253.346
 20
-64.7157
 11
253.716
 21
-64.3457
  0
LINE
  8
0
 10
253.716
 20
-64.3457
 11
254.045
 21
-63.9389
  0
LINE
  8
0
 10
254.045
 20
-63.9389
 11
254.33
 21
-63.5
  0
LINE
  8
0
 10
254.33
 20
-63.5
 11
254.568
 21
-63.0337
  0
LINE
  8
0
 10
254.568
 20
-63.0337
 11
254.755
 21
-62.5451
  0
LINE
  8
0
 10
254.755
 20
-62.5451
 11
254.891
 21
-62.0396
  0
LINE
  8
0
 10
254.891
 20
-62.0396
 11
254.973
 21
-61.5226
  0
LINE
  8
0
 10
254.973
 20
-61.5226
 11
255
 21
-61
  0
LINE
  8
0
 10
255
 20
-61
 11
255
 21
92.875
  0
LINE
  8
0
 10
255
 20
92.875
 11
-255
 21
92.875
  0
LINE
  8
0
 10
-255
 20
92.875
 11
-255
 21
-61
  0
LINE
  8
0
 10
-255
 20
-61
 11
-254.973
 21
-61.5226
  0
LINE
  8
0
 10
-254.973
 20
-61.5226
 11
-254.891
 21
-62.0396
  0
LINE
  8
0
 10
-254.891
 20
-62.0396
 11
-254.755
 21
-62.5451
  0
LINE
  8
0
 10
-254.755
 20
-62.5451
 11
-254.568
 21
-63.0337
  0
LINE
  8
0
 10
-254.568
 20
-63.0337
 11
-254.33
 21
-63.5
  0
LINE
  8
0
 10
-254.33
 20
-63.5
 11
-254.045
 21
-63.9389
  0
LINE
  8
0
 10
-254.045
 20
-63.9389
 11
-253.716
 21
-64.3457
  0
LINE
  8
0
 10
-253.716
 20
-64.3457
 11
-253.346
 21
-64.7157
  0
LINE
  8
0
 10
-253.346
 20
-64.7157
 11
-252.939
 21
-65.0451
  0
LINE
  8
0
 10
-252.939
 20
-65.0451
 11
-252.5
 21
-65.3301
  0
LINE
  8
0
 10
-252.5
 20
-65.3301
 11
-252.034
 21
-65.5677
  0
LINE
  8
0
 10
-252.034
 20
-65.5677
 11
-251.545
 21
-65.7553
  0
LINE
  8
0
 10
-251.545
 20
-65.7553
 11
-251.04
 21
-65.8907
  0
LINE
  8
0
 10
-251.04
 20
-65.8907
 11
-250.523
 21
-65.9726
  0
LINE
  8
0
 10
-250.523
 20
-65.9726
 11
-250
 21
-66
  0
LINE
  8
0
 10
-250
 20
-66
 11
250
 21
-66
  0
LINE
  8
0
 10
250
 20
-66
 11
250.523
 21
-65.9726
  0
LINE
  8
0
 10
-135.186
 20
80.7577
 11
-135.431
 21
80.7917
  0
LINE
  8
0
 10
-135.431
 20
80.7917
 11
-135.672
 21
80.8526
  0
LINE
  8
0
 10
-135.672
 20
80.8526
 11
-135.904
 21
80.9395
  0
LINE
  8
0
 10
-135.904
 20
80.9395
 11
-136.125
 21
81.0514
  0
LINE
  8
0
 10
-136.125
 20
81.0514
 11
-136.333
 21
81.187
  0
LINE
  8
0
 10
-136.333
 20
81.187
 11
-136.524
 21
81.3446
  0
LINE
  8
0
 10
-136.524
 20
81.3446
 11
-136.697
 21
81.5223
  0
LINE
  8
0
 10
-136.697
 20
81.5223
 11
-136.849
 21
81.7179
  0
LINE
  8
0
 10
-136.849
 20
81.7179
 11
-136.979
 21
81.9291
  0
LINE
  8
0
 10
-136.979
 20
81.9291
 11
-137.085
 21
82.1533
  0
LINE
  8
0
 10
-137.085
 20
82.1533
 11
-137.165
 21
82.3878
  0
LINE
  8
0
 10
-137.165
 20
82.3878
 11
-137.219
 21
82.6297
  0
LINE
  8
0
 10
-137.219
 20
82.6297
 11
-137.247
 21
82.8761
  0
LINE
  8
0
 10
-137.247
 20
82.8761
 11
-137.247
 21
83.1239
  0
LINE
  8
0
 10
-137.247
 20
83.1239
 11
-137.219
 21
83.3703
  0
LINE
  8
0
 10
-137.219
 20
83.3703
 11
-137.165
 21
83.6122
  0
LINE
  8
0
 10
-137.165
 20
83.6122
 11
-137.085
 21
83.8467
  0
LINE
  8
0
 10
-137.085
 20
83.8467
 11
-136.979
 21
84.0709
  0
LINE
  8
0
 10
-136.979
 20
84.0709
 11
-136.849
 21
84.2821
  0
LINE
  8
0
 10
-136.849
 20
84.2821
 11
-136.697
 21
84.4777
  0
LINE
  8
0
 10
-136.697
 20
84.4777
 11
-136.524
 21
84.6554
  0
LINE
  8
0
 10
-136.524
 20
84.6554
 11
-136.333
 21
84.813
  0
LINE
  8
0
 10
-136.333
 20
84.813
 11
-136.125
 21
84.9485
  0
LINE
  8
0
 10
-136.125
 20
84.9485
 11
-135.904
 21
85.0605
  0
LINE
  8
0
 10
-135.904
 20
85.0605
 11
-135.672
 21
85.1474
  0
LINE
  8
0
 10
-135.672
 20
85.1474
 11
-135.431
 21
85.2083
  0
LINE
  8
0
 10
-135.431
 20
85.2083
 11
-135.186
 21
85.2423
  0
LINE
  8
0
 10
-135.186
 20
85.2423
 11
-134.938
 21
85.2491
  0
LINE
  8
0
 10
-134.938
 20
85.2491
 11
-134.691
 21
85.2287
  0
LINE
  8
0
 10
-134.691
 20
85.2287
 11
-134.448
 21
85.1812
  0
LINE
  8
0
 10
-134.448
 20
85.1812
 11
-134.211
 21
85.1071
  0
LINE
  8
0
 10
-134.211
 20
85.1071
 11
-133.984
 21
85.0076
  0
LINE
  8
0
 10
-133.984
 20
85.0076
 11
-133.769
 21
84.8836
  0
LINE
  8
0
 10
-133.769
 20
84.8836
 11
-133.57
 21
84.7368
  0
LINE
  8
0
 10
-133.57
 20
84.7368
 11
-133.387
 21
84.5689
  0
LINE
  8
0
 10
-133.387
 20
84.5689
 11
-133.224
 21
84.382
  0
LINE
  8
0
 10
-133.224
 20
84.382
 11
-133.083
 21
84.1783
  0
LINE
  8
0
 10
-133.083
 20
84.1783
 11
-132.965
 21
83.9602
  0
LINE
  8
0
 10
-132.965
 20
83.9602
 11
-132.872
 21
83.7306
  0
LINE
  8
0
 10
-132.872
 20
83.7306
 11
-132.804
 21
83.492
  0
LINE
  8
0
 10
-132.804
 20
83.492
 11
-132.764
 21
83.2475
  0
LINE
  8
0
 10
-132.764
 20
83.2475
 11
-132.75
 21
83
  0
LINE
  8
0
 10
-132.75
 20
83
 11
-132.764
 21
82.7525
  0
LINE
  8
0
 10
-132.764
 20
82.7525
 11
-132.804
 21
82.508
  0
LINE
  8
0
 10
-132.804
 20
82.508
 11
-132.872
 21
82.2694
  0
LINE
  8
0
 10
-132.872
 20
82.2694
 11
-132.965
 21
82.0397
  0
LINE
  8
0
 10
-132.965
 20
82.0397
 11
-133.083
 21
81.8217
  0
LINE
  8
0
 10
-133.083
 20
81.8217
 11
-133.224
 21
81.618
  0
LINE
  8
0
 10
-133.224
 20
81.618
 11
-133.387
 21
81.4311
  0
LINE
  8
0
 10
-133.387
 20
81.4311
 11
-133.57
 21
81.2632
  0
LINE
  8
0
 10
-133.57
 20
81.2632
 11
-133.769
 21
81.1164
  0
LINE
  8
0
 10
-133.769
 20
81.1164
 11
-133.984
 21
80.9924
  0
LINE
  8
0
 10
-133.984
 20
80.9924
 11
-134.211
 21
80.8929
  0
LINE
  8
0
 10
-134.211
 20
80.8929
 11
-134.448
 21
80.8188
  0
LINE
  8
0
 10
-134.448
 20
80.8188
 11
-134.691
 21
80.7713
  0
LINE
  8
0
 10
-134.691
 20
80.7713
 11
-134.938
 21
80.7509
  0
LINE
  8
0
 10
-134.938
 20
80.7509
 11
-135.186
 21
80.7577
  0
LINE
  8
0
 10
-225.186
 20
80.7577
 11
-225.431
 21
80.7917
  0
LINE
  8
0
 10
-225.431
 20
80.7917
 11
-225.672
 21
80.8526
  0
LINE
  8
0
 10
-225.672
 20
80.8526
 11
-225.904
 21
80.9395
  0
LINE
  8
0
 10
-225.904
 20
80.9395
 11
-226.125
 21
81.0514
  0
LINE
  8
0
 10
-226.125
 20
81.0514
 11
-226.333
 21
81.187
  0
LINE
  8
0
 10
-226.333
 20
81.187
 11
-226.524
 21
81.3446
  0
LINE
  8
0
 10
-226.524
 20
81.3446
 11
-226.697
 21
81.5223
  0
LINE
  8
0
 10
-226.697
 20
81.5223
 11
-226.849
 21
81.7179
  0
LINE
  8
0
 10
-226.849
 20
81.7179
 11
-226.979
 21
81.9291
  0
LINE
  8
0
 10
-226.979
 20
81.9291
 11
-227.085
 21
82.1533
  0
LINE
  8
0
 10
-227.085
 20
82.1533
 11
-227.165
 21
82.3878
  0
LINE
  8
0
 10
-227.165
 20
82.3878
 11
-227.219
 21
82.6297
  0
LINE
  8
0
 10
-227.219
 20
82.6297
 11
-227.247
 21
82.8761
  0
LINE
  8
0
 10
-227.247
 20
82.8761
 11
-227.247
 21
83.1239
  0
LINE
  8
0
 10
-227.247
 20
83.1239
 11
-227.219
 21
83.3703
  0
LINE
  8
0
 10
-227.219
 20
83.3703
 11
-227.165
 21
83.6122
  0
LINE
  8
0
 10
-227.165
 20
83.6122
 11
-227.085
 21
83.8467
  0
LINE
  8
0
 10
-227.085
 20
83.8467
 11
-226.979
 21
84.0709
  0
LINE
  8
0
 10
-226.979
 20
84.0709
 11
-226.849
 21
84.2821
  0
LINE
  8
0
 10
-226.849
 20
84.2821
 11
-226.697
 21
84.4777
  0
LINE
  8
0
 10
-226.697
 20
84.4777
 11
-226.524
 21
84.6554
  0
LINE
  8
0
 10
-226.524
 20
84.6554
 11
-226.333
 21
84.813
  0
LINE
  8
0
 10
-226.333
 20
84.813
 11
-226.125
 21
84.9485
  0
LINE
  8
0
 10
-226.125
 20
84.9485
 11
-225.904
 21
85.0605
  0
LINE
  8
0
 10
-225.904
 20
85.0605
 11
-225.672
 21
85.1474
  0
LINE
  8
0
 10
-225.672
 20
85.1474
 11
-225.431
 21
85.2083
  0
LINE
  8
0
 10
-225.431
 20
85.2083
 11
-225.186
 21
85.2423
  0
LINE
  8
0
 10
-225.186
 20
85.2423
 11
-224.938
 21
85.2491
  0
LINE
  8
0
 10
-224.938
 20
85.2491
 11
-224.691
 21
85.2287
  0
LINE
  8
0
 10
-224.691
 20
85.2287
 11
-224.448
 21
85.1812
  0
LINE
  8
0
 10
-224.448
 20
85.1812
 11
-224.211
 21
85.1071
  0
LINE
  8
0
 10
-224.211
 20
85.1071
 11
-223.984
 21
85.0076
  0
LINE
  8
0
 10
-223.984
 20
85.0076
 11
-223.769
 21
84.8836
  0
LINE
  8
0
 10
-223.769
 20
84.8836
 11
-223.57
 21
84.7368
  0
LINE
  8
0
 10
-223.57
 20
84.7368
 11
-223.387
 21
84.5689
  0
LINE
  8
0
 10
-223.387
 20
84.5689
 11
-223.224
 21
84.382
  0
LINE
  8
0
 10
-223.224
 20
84.382
 11
-223.083
 21
84.1783
  0
LINE
  8
0
 10
-223.083
 20
84.1783
 11
-222.965
 21
83.9602
  0
LINE
  8
0
 10
-222.965
 20
83.9602
 11
-222.872
 21
83.7306
  0
LINE
  8
0
 10
-222.872
 20
83.7306
 11
-222.804
 21
83.492
  0
LINE
  8
0
 10
-222.804
 20
83.492
 11
-222.764
 21
83.2475
  0
LINE
  8
0
 10
-222.764
 20
83.2475
 11
-222.75
 21
83
  0
LINE
  8
0
 10
-222.75
 20
83
 11
-222.764
 21
82.7525
  0
LINE
  8
0
 10
-222.764
 20
82.7525
 11
-222.804
 21
82.508
  0
LINE
  8
0
 10
-222.804
 20
82.508
 11
-222.872
 21
82.2694
  0
LINE
  8
0
 10
-222.872
 20
82.2694
 11
-222.965
 21
82.0397
  0
LINE
  8
0
 10
-222.965
 20
82.0397
 11
-223.083
 21
81.8217
  0
LINE
  8
0
 10
-223.083
 20
81.8217
 11
-223.224
 21
81.618
  0
LINE
  8
0
 10
-223.224
 20
81.618
 11
-223.387
 21
81.4311
  0
LINE
  8
0
 10
-223.387
 20
81.4311
 11
-223.57
 21
81.2632
  0
LINE
  8
0
 10
-223.57
 20
81.2632
 11
-223.769
 21
81.1164
  0
LINE
  8
0
 10
-223.769
 20
81.1164
 11
-223.984
 21
80.9924
  0
LINE
  8
0
 10
-223.984
 20
80.9924
 11
-224.211
 21
80.8929
  0
LINE
  8
0
 10
-224.211
 20
80.8929
 11
-224.448
 21
80.8188
  0
LINE
  8
0
 10
-224.448
 20
80.8188
 11
-224.691
 21
80.7713
  0
LINE
  8
0
 10
-224.691
 20
80.7713
 11
-224.938
 21
80.7509
  0
LINE
  8
0
 10
-224.938
 20
80.7509
 11
-225.186
 21
80.7577
  0
LINE
  8
0
 10
-45.1858
 20
80.7577
 11
-45.4314
 21
80.7917
  0
LINE
  8
0
 10
-45.4314
 20
80.7917
 11
-45.6716
 21
80.8526
  0
LINE
  8
0
 10
-45.6716
 20
80.8526
 11
-45.9038
 21
80.9395
  0
LINE
  8
0
 10
-45.9038
 20
80.9395
 11
-46.125
 21
81.0514
  0
LINE
  8
0
 10
-46.125
 20
81.0514
 11
-46.3325
 21
81.187
  0
LINE
  8
0
 10
-46.3325
 20
81.187
 11
-46.5239
 21
81.3446
  0
LINE
  8
0
 10
-46.5239
 20
81.3446
 11
-46.6967
 21
81.5223
  0
LINE
  8
0
 10
-46.6967
 20
81.5223
 11
-46.849
 21
81.7179
  0
LINE
  8
0
 10
-46.849
 20
81.7179
 11
-46.9788
 21
81.9291
  0
LINE
  8
0
 10
-46.9788
 20
81.9291
 11
-47.0846
 21
82.1533
  0
LINE
  8
0
 10
-47.0846
 20
82.1533
 11
-47.1651
 21
82.3878
  0
LINE
  8
0
 10
-47.1651
 20
82.3878
 11
-47.2193
 21
82.6297
  0
LINE
  8
0
 10
-47.2193
 20
82.6297
 11
-47.2466
 21
82.8761
  0
LINE
  8
0
 10
-47.2466
 20
82.8761
 11
-47.2466
 21
83.1239
  0
LINE
  8
0
 10
-47.2466
 20
83.1239
 11
-47.2193
 21
83.3703
  0
LINE
  8
0
 10
-47.2193
 20
83.3703
 11
-47.1651
 21
83.6122
  0
LINE
  8
0
 10
-47.1651
 20
83.6122
 11
-47.0846
 21
83.8467
  0
LINE
  8
0
 10
-47.0846
 20
83.8467
 11
-46.9788
 21
84.0709
  0
LINE
  8
0
 10
-46.9788
 20
84.0709
 11
-46.849
 21
84.2821
  0
LINE
  8
0
 10
-46.849
 20
84.2821
 11
-46.6967
 21
84.4777
  0
LINE
  8
0
 10
-46.6967
 20
84.4777
 11
-46.5239
 21
84.6554
  0
LINE
  8
0
 10
-46.5239
 20
84.6554
 11
-46.3325
 21
84.813
  0
LINE
  8
0
 10
-46.3325
 20
84.813
 11
-46.125
 21
84.9485
  0
LINE
  8
0
 10
-46.125
 20
84.9485
 11
-45.9038
 21
85.0605
  0
LINE
  8
0
 10
-45.9038
 20
85.0605
 11
-45.6716
 21
85.1474
  0
LINE
  8
0
 10
-45.6716
 20
85.1474
 11
-45.4314
 21
85.2083
  0
LINE
  8
0
 10
-45.4314
 20
85.2083
 11
-45.1858
 21
85.2423
  0
LINE
  8
0
 10
-45.1858
 20
85.2423
 11
-44.938
 21
85.2491
  0
LINE
  8
0
 10
-44.938
 20
85.2491
 11
-44.6909
 21
85.2287
  0
LINE
  8
0
 10
-44.6909
 20
85.2287
 11
-44.4476
 21
85.1812
  0
LINE
  8
0
 10
-44.4476
 20
85.1812
 11
-44.2111
 21
85.1071
  0
LINE
  8
0
 10
-44.2111
 20
85.1071
 11
-43.984
 21
85.0076
  0
LINE
  8
0
 10
-43.984
 20
85.0076
 11
-43.7694
 21
84.8836
  0
LINE
  8
0
 10
-43.7694
 20
84.8836
 11
-43.5696
 21
84.7368
  0
LINE
  8
0
 10
-43.5696
 20
84.7368
 11
-43.3872
 21
84.5689
  0
LINE
  8
0
 10
-43.3872
 20
84.5689
 11
-43.2244
 21
84.382
  0
LINE
  8
0
 10
-43.2244
 20
84.382
 11
-43.0832
 21
84.1783
  0
LINE
  8
0
 10
-43.0832
 20
84.1783
 11
-42.9652
 21
83.9602
  0
LINE
  8
0
 10
-42.9652
 20
83.9602
 11
-42.8719
 21
83.7306
  0
LINE
  8
0
 10
-42.8719
 20
83.7306
 11
-42.8045
 21
83.492
  0
LINE
  8
0
 10
-42.8045
 20
83.492
 11
-42.7637
 21
83.2475
  0
LINE
  8
0
 10
-42.7637
 20
83.2475
 11
-42.75
 21
83
  0
LINE
  8
0
 10
-42.75
 20
83
 11
-42.7637
 21
82.7525
  0
LINE
  8
0
 10
-42.7637
 20
82.7525
 11
-42.8045
 21
82.508
  0
LINE
  8
0
 10
-42.8045
 20
82.508
 11
-42.8719
 21
82.2694
  0
LINE
  8
0
 10
-42.8719
 20
82.2694
 11
-42.9652
 21
82.0397
  0
LINE
  8
0
 10
-42.9652
 20
82.0397
 11
-43.0832
 21
81.8217
  0
LINE
  8
0
 10
-43.0832
 20
81.8217
 11
-43.2244
 21
81.618
  0
LINE
  8
0
 10
-43.2244
 20
81.618
 11
-43.3872
 21
81.4311
  0
LINE
  8
0
 10
-43.3872
 20
81.4311
 11
-43.5696
 21
81.2632
  0
LINE
  8
0
 10
-43.5696
 20
81.2632
 11
-43.7694
 21
81.1164
  0
LINE
  8
0
 10
-43.7694
 20
81.1164
 11
-43.984
 21
80.9924
  0
LINE
  8
0
 10
-43.984
 20
80.9924
 11
-44.2111
 21
80.8929
  0
LINE
  8
0
 10
-44.2111
 20
80.8929
 11
-44.4476
 21
80.8188
  0
LINE
  8
0
 10
-44.4476
 20
80.8188
 11
-44.6909
 21
80.7713
  0
LINE
  8
0
 10
-44.6909
 20
80.7713
 11
-44.938
 21
80.7509
  0
LINE
  8
0
 10
-44.938
 20
80.7509
 11
-45.1858
 21
80.7577
  0
LINE
  8
0
 10
44.8142
 20
80.7577
 11
44.5686
 21
80.7917
  0
LINE
  8
0
 10
44.5686
 20
80.7917
 11
44.3283
 21
80.8526
  0
LINE
  8
0
 10
44.3283
 20
80.8526
 11
44.0962
 21
80.9395
  0
LINE
  8
0
 10
44.0962
 20
80.9395
 11
43.875
 21
81.0514
  0
LINE
  8
0
 10
43.875
 20
81.0514
 11
43.6675
 21
81.187
  0
LINE
  8
0
 10
43.6675
 20
81.187
 11
43.4761
 21
81.3446
  0
LINE
  8
0
 10
43.4761
 20
81.3446
 11
43.3033
 21
81.5223
  0
LINE
  8
0
 10
43.3033
 20
81.5223
 11
43.151
 21
81.7179
  0
LINE
  8
0
 10
43.151
 20
81.7179
 11
43.0212
 21
81.9291
  0
LINE
  8
0
 10
43.0212
 20
81.9291
 11
42.9154
 21
82.1533
  0
LINE
  8
0
 10
42.9154
 20
82.1533
 11
42.8349
 21
82.3878
  0
LINE
  8
0
 10
42.8349
 20
82.3878
 11
42.7807
 21
82.6297
  0
LINE
  8
0
 10
42.7807
 20
82.6297
 11
42.7534
 21
82.8761
  0
LINE
  8
0
 10
42.7534
 20
82.8761
 11
42.7534
 21
83.1239
  0
LINE
  8
0
 10
42.7534
 20
83.1239
 11
42.7807
 21
83.3703
  0
LINE
  8
0
 10
42.7807
 20
83.3703
 11
42.8349
 21
83.6122
  0
LINE
  8
0
 10
42.8349
 20
83.6122
 11
42.9154
 21
83.8467
  0
LINE
  8
0
 10
42.9154
 20
83.8467
 11
43.0212
 21
84.0709
  0
LINE
  8
0
 10
43.0212
 20
84.0709
 11
43.151
 21
84.2821
  0
LINE
  8
0
 10
43.151
 20
84.2821
 11
43.3033
 21
84.4777
  0
LINE
  8
0
 10
43.3033
 20
84.4777
 11
43.4761
 21
84.6554
  0
LINE
  8
0
 10
43.4761
 20
84.6554
 11
43.6675
 21
84.813
  0
LINE
  8
0
 10
43.6675
 20
84.813
 11
43.875
 21
84.9485
  0
LINE
  8
0
 10
43.875
 20
84.9485
 11
44.0962
 21
85.0605
  0
LINE
  8
0
 10
44.0962
 20
85.0605
 11
44.3283
 21
85.1474
  0
LINE
  8
0
 10
44.3283
 20
85.1474
 11
44.5686
 21
85.2083
  0
LINE
  8
0
 10
44.5686
 20
85.2083
 11
44.8142
 21
85.2423
  0
LINE
  8
0
 10
44.8142
 20
85.2423
 11
45.062
 21
85.2491
  0
LINE
  8
0
 10
45.062
 20
85.2491
 11
45.309
 21
85.2287
  0
LINE
  8
0
 10
45.309
 20
85.2287
 11
45.5523
 21
85.1812
  0
LINE
  8
0
 10
45.5523
 20
85.1812
 11
45.7889
 21
85.1071
  0
LINE
  8
0
 10
45.7889
 20
85.1071
 11
46.0159
 21
85.0076
  0
LINE
  8
0
 10
46.0159
 20
85.0076
 11
46.2306
 21
84.8836
  0
LINE
  8
0
 10
46.2306
 20
84.8836
 11
46.4304
 21
84.7368
  0
LINE
  8
0
 10
46.4304
 20
84.7368
 11
46.6128
 21
84.5689
  0
LINE
  8
0
 10
46.6128
 20
84.5689
 11
46.7756
 21
84.382
  0
LINE
  8
0
 10
46.7756
 20
84.382
 11
46.9168
 21
84.1783
  0
LINE
  8
0
 10
46.9168
 20
84.1783
 11
47.0348
 21
83.9602
  0
LINE
  8
0
 10
47.0348
 20
83.9602
 11
47.1281
 21
83.7306
  0
LINE
  8
0
 10
47.1281
 20
83.7306
 11
47.1955
 21
83.492
  0
LINE
  8
0
 10
47.1955
 20
83.492
 11
47.2363
 21
83.2475
  0
LINE
  8
0
 10
47.2363
 20
83.2475
 11
47.25
 21
83
  0
LINE
  8
0
 10
47.25
 20
83
 11
47.2363
 21
82.7525
  0
LINE
  8
0
 10
47.2363
 20
82.7525
 11
47.1955
 21
82.508
  0
LINE
  8
0
 10
47.1955
 20
82.508
 11
47.1281
 21
82.2694
  0
LINE
  8
0
 10
47.1281
 20
82.2694
 11
47.0348
 21
82.0397
  0
LINE
  8
0
 10
47.0348
 20
82.0397
 11
46.9168
 21
81.8217
  0
LINE
  8
0
 10
46.9168
 20
81.8217
 11
46.7756
 21
81.618
  0
LINE
  8
0
 10
46.7756
 20
81.618
 11
46.6128
 21
81.4311
  0
LINE
  8
0
 10
46.6128
 20
81.4311
 11
46.4304
 21
81.2632
  0
LINE
  8
0
 10
46.4304
 20
81.2632
 11
46.2306
 21
81.1164
  0
LINE
  8
0
 10
46.2306
 20
81.1164
 11
46.0159
 21
80.9924
  0
LINE
  8
0
 10
46.0159
 20
80.9924
 11
45.7889
 21
80.8929
  0
LINE
  8
0
 10
45.7889
 20
80.8929
 11
45.5523
 21
80.8188
  0
LINE
  8
0
 10
45.5523
 20
80.8188
 11
45.309
 21
80.7713
  0
LINE
  8
0
 10
45.309
 20
80.7713
 11
45.062
 21
80.7509
  0
LINE
  8
0
 10
45.062
 20
80.7509
 11
44.8142
 21
80.7577
  0
LINE
  8
0
 10
134.814
 20
80.7577
 11
134.569
 21
80.7917
  0
LINE
  8
0
 10
134.569
 20
80.7917
 11
134.328
 21
80.8526
  0
LINE
  8
0
 10
134.328
 20
80.8526
 11
134.096
 21
80.9395
  0
LINE
  8
0
 10
134.096
 20
80.9395
 11
133.875
 21
81.0514
  0
LINE
  8
0
 10
133.875
 20
81.0514
 11
133.667
 21
81.187
  0
LINE
  8
0
 10
133.667
 20
81.187
 11
133.476
 21
81.3446
  0
LINE
  8
0
 10
133.476
 20
81.3446
 11
133.303
 21
81.5223
  0
LINE
  8
0
 10
133.303
 20
81.5223
 11
133.151
 21
81.7179
  0
LINE
  8
0
 10
133.151
 20
81.7179
 11
133.021
 21
81.9291
  0
LINE
  8
0
 10
133.021
 20
81.9291
 11
132.915
 21
82.1533
  0
LINE
  8
0
 10
132.915
 20
82.1533
 11
132.835
 21
82.3878
  0
LINE
  8
0
 10
132.835
 20
82.3878
 11
132.781
 21
82.6297
  0
LINE
  8
0
 10
132.781
 20
82.6297
 11
132.753
 21
82.8761
  0
LINE
  8
0
 10
132.753
 20
82.8761
 11
132.753
 21
83.1239
  0
LINE
  8
0
 10
132.753
 20
83.1239
 11
132.781
 21
83.3703
  0
LINE
  8
0
 10
132.781
 20
83.3703
 11
132.835
 21
83.6122
  0
LINE
  8
0
 10
132.835
 20
83.6122
 11
132.915
 21
83.8467
  0
LINE
  8
0
 10
132.915
 20
83.8467
 11
133.021
 21
84.0709
  0
LINE
  8
0
 10
133.021
 20
84.0709
 11
133.151
 21
84.2821
  0
LINE
  8
0
 10
133.151
 20
84.2821
 11
133.303
 21
84.4777
  0
LINE
  8
0
 10
133.303
 20
84.4777
 11
133.476
 21
84.6554
  0
LINE
  8
0
 10
133.476
 20
84.6554
 11
133.667
 21
84.813
  0
LINE
  8
0
 10
133.667
 20
84.813
 11
133.875
 21
84.9485
  0
LINE
  8
0
 10
133.875
 20
84.9485
 11
134.096
 21
85.0605
  0
LINE
  8
0
 10
134.096
 20
85.0605
 11
134.328
 21
85.1474
  0
LINE
  8
0
 10
134.328
 20
85.1474
 11
134.569
 21
85.2083
  0
LINE
  8
0
 10
134.569
 20
85.2083
 11
134.814
 21
85.2423
  0
LINE
  8
0
 10
134.814
 20
85.2423
 11
135.062
 21
85.2491
  0
LINE
  8
0
 10
135.062
 20
85.2491
 11
135.309
 21
85.2287
  0
LINE
  8
0
 10
135.309
 20
85.2287
 11
135.552
 21
85.1812
  0
LINE
  8
0
 10
135.552
 20
85.1812
 11
135.789
 21
85.1071
  0
LINE
  8
0
 10
135.789
 20
85.1071
 11
136.016
 21
85.0076
  0
LINE
  8
0
 10
136.016
 20
85.0076
 11
136.231
 21
84.8836
  0
LINE
  8
0
 10
136.231
 20
84.8836
 11
136.43
 21
84.7368
  0
LINE
  8
0
 10
136.43
 20
84.7368
 11
136.613
 21
84.5689
  0
LINE
  8
0
 10
136.613
 20
84.5689
 11
136.776
 21
84.382
  0
LINE
  8
0
 10
136.776
 20
84.382
 11
136.917
 21
84.1783
  0
LINE
  8
0
 10
136.917
 20
84.1783
 11
137.035
 21
83.9602
  0
LINE
  8
0
 10
137.035
 20
83.9602
 11
137.128
 21
83.7306
  0
LINE
  8
0
 10
137.128
 20
83.7306
 11
137.196
 21
83.492
  0
LINE
  8
0
 10
137.196
 20
83.492
 11
137.236
 21
83.2475
  0
LINE
  8
0
 10
137.236
 20
83.2475
 11
137.25
 21
83
  0
LINE
  8
0
 10
137.25
 20
83
 11
137.236
 21
82.7525
  0
LINE
  8
0
 10
137.236
 20
82.7525
 11
137.196
 21
82.508
  0
LINE
  8
0
 10
137.196
 20
82.508
 11
137.128
 21
82.2694
  0
LINE
  8
0
 10
137.128
 20
82.2694
 11
137.035
 21
82.0397
  0
LINE
  8
0
 10
137.035
 20
82.0397
 11
136.917
 21
81.8217
  0
LINE
  8
0
 10
136.917
 20
81.8217
 11
136.776
 21
81.618
  0
LINE
  8
0
 10
136.776
 20
81.618
 11
136.613
 21
81.4311
  0
LINE
  8
0
 10
136.613
 20
81.4311
 11
136.43
 21
81.2632
  0
LINE
  8
0
 10
136.43
 20
81.2632
 11
136.231
 21
81.1164
  0
LINE
  8
0
 10
136.231
 20
81.1164
 11
136.016
 21
80.9924
  0
LINE
  8
0
 10
136.016
 20
80.9924
 11
135.789
 21
80.8929
  0
LINE
  8
0
 10
135.789
 20
80.8929
 11
135.552
 21
80.8188
  0
LINE
  8
0
 10
135.552
 20
80.8188
 11
135.309
 21
80.7713
  0
LINE
  8
0
 10
135.309
 20
80.7713
 11
135.062
 21
80.7509
  0
LINE
  8
0
 10
135.062
 20
80.7509
 11
134.814
 21
80.7577
  0
LINE
  8
0
 10
224.814
 20
80.7577
 11
224.569
 21
80.7917
  0
LINE
  8
0
 10
224.569
 20
80.7917
 11
224.328
 21
80.8526
  0
LINE
  8
0
 10
224.328
 20
80.8526
 11
224.096
 21
80.9395
  0
LINE
  8
0
 10
224.096
 20
80.9395
 11
223.875
 21
81.0514
  0
LINE
  8
0
 10
223.875
 20
81.0514
 11
223.667
 21
81.187
  0
LINE
  8
0
 10
223.667
 20
81.187
 11
223.476
 21
81.3446
  0
LINE
  8
0
 10
223.476
 20
81.3446
 11
223.303
 21
81.5223
  0
LINE
  8
0
 10
223.303
 20
81.5223
 11
223.151
 21
81.7179
  0
LINE
  8
0
 10
223.151
 20
81.7179
 11
223.021
 21
81.9291
  0
LINE
  8
0
 10
223.021
 20
81.9291
 11
222.915
 21
82.1533
  0
LINE
  8
0
 10
222.915
 20
82.1533
 11
222.835
 21
82.3878
  0
LINE
  8
0
 10
222.835
 20
82.3878
 11
222.781
 21
82.6297
  0
LINE
  8
0
 10
222.781
 20
82.6297
 11
222.753
 21
82.8761
  0
LINE
  8
0
 10
222.753
 20
82.8761
 11
222.753
 21
83.1239
  0
LINE
  8
0
 10
222.753
 20
83.1239
 11
222.781
 21
83.3703
  0
LINE
  8
0
 10
222.781
 20
83.3703
 11
222.835
 21
83.6122
  0
LINE
  8
0
 10
222.835
 20
83.6122
 11
222.915
 21
83.8467
  0
LINE
  8
0
 10
222.915
 20
83.8467
 11
223.021
 21
84.0709
  0
LINE
  8
0
 10
223.021
 20
84.0709
 11
223.151
 21
84.2821
  0
LINE
  8
0
 10
223.151
 20
84.2821
 11
223.303
 21
84.4777
  0
LINE
  8
0
 10
223.303
 20
84.4777
 11
223.476
 21
84.6554
  0
LINE
  8
0
 10
223.476
 20
84.6554
 11
223.667
 21
84.813
  0
LINE
  8
0
 10
223.667
 20
84.813
 11
223.875
 21
84.9485
  0
LINE
  8
0
 10
223.875
 20
84.9485
 11
224.096
 21
85.0605
  0
LINE
  8
0
 10
224.096
 20
85.0605
 11
224.328
 21
85.1474
  0
LINE
  8
0
 10
224.328
 20
85.1474
 11
224.569
 21
85.2083
  0
LINE
  8
0
 10
224.569
 20
85.2083
 11
224.814
 21
85.2423
  0
LINE
  8
0
 10
224.814
 20
85.2423
 11
225.062
 21
85.2491
  0
LINE
  8
0
 10
225.062
 20
85.2491
 11
225.309
 21
85.2287
  0
LINE
  8
0
 10
225.309
 20
85.2287
 11
225.552
 21
85.1812
  0
LINE
  8
0
 10
225.552
 20
85.1812
 11
225.789
 21
85.1071
  0
LINE
  8
0
 10
225.789
 20
85.1071
 11
226.016
 21
85.0076
  0
LINE
  8
0
 10
226.016
 20
85.0076
 11
226.231
 21
84.8836
  0
LINE
  8
0
 10
226.231
 20
84.8836
 11
226.43
 21
84.7368
  0
LINE
  8
0
 10
226.43
 20
84.7368
 11
226.613
 21
84.5689
  0
LINE
  8
0
 10
226.613
 20
84.5689
 11
226.776
 21
84.382
  0
LINE
  8
0
 10
226.776
 20
84.382
 11
226.917
 21
84.1783
  0
LINE
  8
0
 10
226.917
 20
84.1783
 11
227.035
 21
83.9602
  0
LINE
  8
0
 10
227.035
 20
83.9602
 11
227.128
 21
83.7306
  0
LINE
  8
0
 10
227.128
 20
83.7306
 11
227.196
 21
83.492
  0
LINE
  8
0
 10
227.196
 20
83.492
 11
227.236
 21
83.2475
  0
LINE
  8
0
 10
227.236
 20
83.2475
 11
227.25
 21
83
  0
LINE
  8
0
 10
227.25
 20
83
 11
227.236
 21
82.7525
  0
LINE
  8
0
 10
227.236
 20
82.7525
 11
227.196
 21
82.508
  0
LINE
  8
0
 10
227.196
 20
82.508
 11
227.128
 21
82.2694
  0
LINE
  8
0
 10
227.128
 20
82.2694
 11
227.035
 21
82.0397
  0
LINE
  8
0
 10
227.035
 20
82.0397
 11
226.917
 21
81.8217
  0
LINE
  8
0
 10
226.917
 20
81.8217
 11
226.776
 21
81.618
  0
LINE
  8
0
 10
226.776
 20
81.618
 11
226.613
 21
81.4311
  0
LINE
  8
0
 10
226.613
 20
81.4311
 11
226.43
 21
81.2632
  0
LINE
  8
0
 10
226.43
 20
81.2632
 11
226.231
 21
81.1164
  0
LINE
  8
0
 10
226.231
 20
81.1164
 11
226.016
 21
80.9924
  0
LINE
  8
0
 10
226.016
 20
80.9924
 11
225.789
 21
80.8929
  0
LINE
  8
0
 10
225.789
 20
80.8929
 11
225.552
 21
80.8188
  0
LINE
  8
0
 10
225.552
 20
80.8188
 11
225.309
 21
80.7713
  0
LINE
  8
0
 10
225.309
 20
80.7713
 11
225.062
 21
80.7509
  0
LINE
  8
0
 10
225.062
 20
80.7509
 11
224.814
 21
80.7577
  0
ENDSEC
  0
SECTION
  2
OBJECTS
  0
DICTIONARY
  0
ENDSEC
  0
EOF
