  0
SECTION
  2
BLOCKS
  0
ENDSEC
  0
SECTION
  2
ENTITIES
  0
LINE
  8
0
 10
270.398
 20
-89.8476
 11
270.915
 21
-89.7657
  0
LINE
  8
0
 10
270.915
 20
-89.7657
 11
271.42
 21
-89.6303
  0
LINE
  8
0
 10
271.42
 20
-89.6303
 11
271.909
 21
-89.4427
  0
LINE
  8
0
 10
271.909
 20
-89.4427
 11
272.375
 21
-89.2051
  0
LINE
  8
0
 10
272.375
 20
-89.2051
 11
272.814
 21
-88.9201
  0
LINE
  8
0
 10
272.814
 20
-88.9201
 11
273.221
 21
-88.5907
  0
LINE
  8
0
 10
273.221
 20
-88.5907
 11
273.591
 21
-88.2207
  0
LINE
  8
0
 10
273.591
 20
-88.2207
 11
273.92
 21
-87.8139
  0
LINE
  8
0
 10
273.92
 20
-87.8139
 11
274.205
 21
-87.375
  0
LINE
  8
0
 10
274.205
 20
-87.375
 11
274.443
 21
-86.9087
  0
LINE
  8
0
 10
274.443
 20
-86.9087
 11
274.63
 21
-86.4201
  0
LINE
  8
0
 10
274.63
 20
-86.4201
 11
274.766
 21
-85.9146
  0
LINE
  8
0
 10
274.766
 20
-85.9146
 11
274.848
 21
-85.3976
  0
LINE
  8
0
 10
274.848
 20
-85.3976
 11
274.875
 21
-84.875
  0
LINE
  8
0
 10
274.875
 20
-84.875
 11
274.875
 21
84.875
  0
LINE
  8
0
 10
274.875
 20
84.875
 11
274.848
 21
85.3976
  0
LINE
  8
0
 10
274.848
 20
85.3976
 11
274.766
 21
85.9146
  0
LINE
  8
0
 10
274.766
 20
85.9146
 11
274.63
 21
86.4201
  0
LINE
  8
0
 10
274.63
 20
86.4201
 11
274.443
 21
86.9087
  0
LINE
  8
0
 10
274.443
 20
86.9087
 11
274.205
 21
87.375
  0
LINE
  8
0
 10
274.205
 20
87.375
 11
273.92
 21
87.8139
  0
LINE
  8
0
 10
273.92
 20
87.8139
 11
273.591
 21
88.2207
  0
LINE
  8
0
 10
273.591
 20
88.2207
 11
273.221
 21
88.5907
  0
LINE
  8
0
 10
273.221
 20
88.5907
 11
272.814
 21
88.9201
  0
LINE
  8
0
 10
272.814
 20
88.9201
 11
272.375
 21
89.2051
  0
LINE
  8
0
 10
272.375
 20
89.2051
 11
271.909
 21
89.4427
  0
LINE
  8
0
 10
271.909
 20
89.4427
 11
271.42
 21
89.6303
  0
LINE
  8
0
 10
271.42
 20
89.6303
 11
270.915
 21
89.7657
  0
LINE
  8
0
 10
270.915
 20
89.7657
 11
270.398
 21
89.8476
  0
LINE
  8
0
 10
270.398
 20
89.8476
 11
269.875
 21
89.875
  0
LINE
  8
0
 10
269.875
 20
89.875
 11
-269.875
 21
89.875
  0
LINE
  8
0
 10
-269.875
 20
89.875
 11
-270.398
 21
89.8476
  0
LINE
  8
0
 10
-270.398
 20
89.8476
 11
-270.915
 21
89.7657
  0
LINE
  8
0
 10
-270.915
 20
89.7657
 11
-271.42
 21
89.6303
  0
LINE
  8
0
 10
-271.42
 20
89.6303
 11
-271.909
 21
89.4427
  0
LINE
  8
0
 10
-271.909
 20
89.4427
 11
-272.375
 21
89.2051
  0
LINE
  8
0
 10
-272.375
 20
89.2051
 11
-272.814
 21
88.9201
  0
LINE
  8
0
 10
-272.814
 20
88.9201
 11
-273.221
 21
88.5907
  0
LINE
  8
0
 10
-273.221
 20
88.5907
 11
-273.591
 21
88.2207
  0
LINE
  8
0
 10
-273.591
 20
88.2207
 11
-273.92
 21
87.8139
  0
LINE
  8
0
 10
-273.92
 20
87.8139
 11
-274.205
 21
87.375
  0
LINE
  8
0
 10
-274.205
 20
87.375
 11
-274.443
 21
86.9087
  0
LINE
  8
0
 10
-274.443
 20
86.9087
 11
-274.63
 21
86.4201
  0
LINE
  8
0
 10
-274.63
 20
86.4201
 11
-274.766
 21
85.9146
  0
LINE
  8
0
 10
-274.766
 20
85.9146
 11
-274.848
 21
85.3976
  0
LINE
  8
0
 10
-274.848
 20
85.3976
 11
-274.875
 21
84.875
  0
LINE
  8
0
 10
-274.875
 20
84.875
 11
-274.875
 21
-84.875
  0
LINE
  8
0
 10
-274.875
 20
-84.875
 11
-274.848
 21
-85.3976
  0
LINE
  8
0
 10
-274.848
 20
-85.3976
 11
-274.766
 21
-85.9146
  0
LINE
  8
0
 10
-274.766
 20
-85.9146
 11
-274.63
 21
-86.4201
  0
LINE
  8
0
 10
-274.63
 20
-86.4201
 11
-274.443
 21
-86.9087
  0
LINE
  8
0
 10
-274.443
 20
-86.9087
 11
-274.205
 21
-87.375
  0
LINE
  8
0
 10
-274.205
 20
-87.375
 11
-273.92
 21
-87.8139
  0
LINE
  8
0
 10
-273.92
 20
-87.8139
 11
-273.591
 21
-88.2207
  0
LINE
  8
0
 10
-273.591
 20
-88.2207
 11
-273.221
 21
-88.5907
  0
LINE
  8
0
 10
-273.221
 20
-88.5907
 11
-272.814
 21
-88.9201
  0
LINE
  8
0
 10
-272.814
 20
-88.9201
 11
-272.375
 21
-89.2051
  0
LINE
  8
0
 10
-272.375
 20
-89.2051
 11
-271.909
 21
-89.4427
  0
LINE
  8
0
 10
-271.909
 20
-89.4427
 11
-271.42
 21
-89.6303
  0
LINE
  8
0
 10
-271.42
 20
-89.6303
 11
-270.915
 21
-89.7657
  0
LINE
  8
0
 10
-270.915
 20
-89.7657
 11
-270.398
 21
-89.8476
  0
LINE
  8
0
 10
-270.398
 20
-89.8476
 11
-269.875
 21
-89.875
  0
LINE
  8
0
 10
-269.875
 20
-89.875
 11
269.875
 21
-89.875
  0
LINE
  8
0
 10
269.875
 20
-89.875
 11
270.398
 21
-89.8476
  0
LINE
  8
0
 10
-265.523
 20
75.0274
 11
-266.04
 21
75.1093
  0
LINE
  8
0
 10
-266.04
 20
75.1093
 11
-266.545
 21
75.2447
  0
LINE
  8
0
 10
-266.545
 20
75.2447
 11
-267.034
 21
75.4323
  0
LINE
  8
0
 10
-267.034
 20
75.4323
 11
-267.5
 21
75.6699
  0
LINE
  8
0
 10
-267.5
 20
75.6699
 11
-267.939
 21
75.9549
  0
LINE
  8
0
 10
-267.939
 20
75.9549
 11
-268.346
 21
76.2843
  0
LINE
  8
0
 10
-268.346
 20
76.2843
 11
-268.716
 21
76.6543
  0
LINE
  8
0
 10
-268.716
 20
76.6543
 11
-269.045
 21
77.0611
  0
LINE
  8
0
 10
-269.045
 20
77.0611
 11
-269.33
 21
77.5
  0
LINE
  8
0
 10
-269.33
 20
77.5
 11
-269.568
 21
77.9663
  0
LINE
  8
0
 10
-269.568
 20
77.9663
 11
-269.755
 21
78.4549
  0
LINE
  8
0
 10
-269.755
 20
78.4549
 11
-269.891
 21
78.9604
  0
LINE
  8
0
 10
-269.891
 20
78.9604
 11
-269.973
 21
79.4774
  0
LINE
  8
0
 10
-269.973
 20
79.4774
 11
-270
 21
80
  0
LINE
  8
0
 10
-270
 20
80
 11
-269.973
 21
80.5226
  0
LINE
  8
0
 10
-269.973
 20
80.5226
 11
-269.891
 21
81.0396
  0
LINE
  8
0
 10
-269.891
 20
81.0396
 11
-269.755
 21
81.5451
  0
LINE
  8
0
 10
-269.755
 20
81.5451
 11
-269.568
 21
82.0337
  0
LINE
  8
0
 10
-269.568
 20
82.0337
 11
-269.33
 21
82.5
  0
LINE
  8
0
 10
-269.33
 20
82.5
 11
-269.045
 21
82.9389
  0
LINE
  8
0
 10
-269.045
 20
82.9389
 11
-268.716
 21
83.3456
  0
LINE
  8
0
 10
-268.716
 20
83.3456
 11
-268.346
 21
83.7157
  0
LINE
  8
0
 10
-268.346
 20
83.7157
 11
-267.939
 21
84.0451
  0
LINE
  8
0
 10
-267.939
 20
84.0451
 11
-267.5
 21
84.3301
  0
LINE
  8
0
 10
-267.5
 20
84.3301
 11
-267.034
 21
84.5677
  0
LINE
  8
0
 10
-267.034
 20
84.5677
 11
-266.545
 21
84.7553
  0
LINE
  8
0
 10
-266.545
 20
84.7553
 11
-266.04
 21
84.8907
  0
LINE
  8
0
 10
-266.04
 20
84.8907
 11
-265.523
 21
84.9726
  0
LINE
  8
0
 10
-265.523
 20
84.9726
 11
-265
 21
85
  0
LINE
  8
0
 10
-265
 20
85
 11
-264.477
 21
84.9726
  0
LINE
  8
0
 10
-264.477
 20
84.9726
 11
-263.96
 21
84.8907
  0
LINE
  8
0
 10
-263.96
 20
84.8907
 11
-263.455
 21
84.7553
  0
LINE
  8
0
 10
-263.455
 20
84.7553
 11
-262.966
 21
84.5677
  0
LINE
  8
0
 10
-262.966
 20
84.5677
 11
-262.5
 21
84.3301
  0
LINE
  8
0
 10
-262.5
 20
84.3301
 11
-262.061
 21
84.0451
  0
LINE
  8
0
 10
-262.061
 20
84.0451
 11
-261.654
 21
83.7157
  0
LINE
  8
0
 10
-261.654
 20
83.7157
 11
-261.284
 21
83.3456
  0
LINE
  8
0
 10
-261.284
 20
83.3456
 11
-260.955
 21
82.9389
  0
LINE
  8
0
 10
-260.955
 20
82.9389
 11
-260.67
 21
82.5
  0
LINE
  8
0
 10
-260.67
 20
82.5
 11
-260.432
 21
82.0337
  0
LINE
  8
0
 10
-260.432
 20
82.0337
 11
-260.245
 21
81.5451
  0
LINE
  8
0
 10
-260.245
 20
81.5451
 11
-260.109
 21
81.0396
  0
LINE
  8
0
 10
-260.109
 20
81.0396
 11
-260.027
 21
80.5226
  0
LINE
  8
0
 10
-260.027
 20
80.5226
 11
-260
 21
80
  0
LINE
  8
0
 10
-260
 20
80
 11
-260.027
 21
79.4774
  0
LINE
  8
0
 10
-260.027
 20
79.4774
 11
-260.109
 21
78.9604
  0
LINE
  8
0
 10
-260.109
 20
78.9604
 11
-260.245
 21
78.4549
  0
LINE
  8
0
 10
-260.245
 20
78.4549
 11
-260.432
 21
77.9663
  0
LINE
  8
0
 10
-260.432
 20
77.9663
 11
-260.67
 21
77.5
  0
LINE
  8
0
 10
-260.67
 20
77.5
 11
-260.955
 21
77.0611
  0
LINE
  8
0
 10
-260.955
 20
77.0611
 11
-261.284
 21
76.6543
  0
LINE
  8
0
 10
-261.284
 20
76.6543
 11
-261.654
 21
76.2843
  0
LINE
  8
0
 10
-261.654
 20
76.2843
 11
-262.061
 21
75.9549
  0
LINE
  8
0
 10
-262.061
 20
75.9549
 11
-262.5
 21
75.6699
  0
LINE
  8
0
 10
-262.5
 20
75.6699
 11
-262.966
 21
75.4323
  0
LINE
  8
0
 10
-262.966
 20
75.4323
 11
-263.455
 21
75.2447
  0
LINE
  8
0
 10
-263.455
 20
75.2447
 11
-263.96
 21
75.1093
  0
LINE
  8
0
 10
-263.96
 20
75.1093
 11
-264.477
 21
75.0274
  0
LINE
  8
0
 10
-264.477
 20
75.0274
 11
-265
 21
75
  0
LINE
  8
0
 10
-265
 20
75
 11
-265.523
 21
75.0274
  0
LINE
  8
0
 10
264.477
 20
75.0274
 11
263.96
 21
75.1093
  0
LINE
  8
0
 10
263.96
 20
75.1093
 11
263.455
 21
75.2447
  0
LINE
  8
0
 10
263.455
 20
75.2447
 11
262.966
 21
75.4323
  0
LINE
  8
0
 10
262.966
 20
75.4323
 11
262.5
 21
75.6699
  0
LINE
  8
0
 10
262.5
 20
75.6699
 11
262.061
 21
75.9549
  0
LINE
  8
0
 10
262.061
 20
75.9549
 11
261.654
 21
76.2843
  0
LINE
  8
0
 10
261.654
 20
76.2843
 11
261.284
 21
76.6543
  0
LINE
  8
0
 10
261.284
 20
76.6543
 11
260.955
 21
77.0611
  0
LINE
  8
0
 10
260.955
 20
77.0611
 11
260.67
 21
77.5
  0
LINE
  8
0
 10
260.67
 20
77.5
 11
260.432
 21
77.9663
  0
LINE
  8
0
 10
260.432
 20
77.9663
 11
260.245
 21
78.4549
  0
LINE
  8
0
 10
260.245
 20
78.4549
 11
260.109
 21
78.9604
  0
LINE
  8
0
 10
260.109
 20
78.9604
 11
260.027
 21
79.4774
  0
LINE
  8
0
 10
260.027
 20
79.4774
 11
260
 21
80
  0
LINE
  8
0
 10
260
 20
80
 11
260.027
 21
80.5226
  0
LINE
  8
0
 10
260.027
 20
80.5226
 11
260.109
 21
81.0396
  0
LINE
  8
0
 10
260.109
 20
81.0396
 11
260.245
 21
81.5451
  0
LINE
  8
0
 10
260.245
 20
81.5451
 11
260.432
 21
82.0337
  0
LINE
  8
0
 10
260.432
 20
82.0337
 11
260.67
 21
82.5
  0
LINE
  8
0
 10
260.67
 20
82.5
 11
260.955
 21
82.9389
  0
LINE
  8
0
 10
260.955
 20
82.9389
 11
261.284
 21
83.3456
  0
LINE
  8
0
 10
261.284
 20
83.3456
 11
261.654
 21
83.7157
  0
LINE
  8
0
 10
261.654
 20
83.7157
 11
262.061
 21
84.0451
  0
LINE
  8
0
 10
262.061
 20
84.0451
 11
262.5
 21
84.3301
  0
LINE
  8
0
 10
262.5
 20
84.3301
 11
262.966
 21
84.5677
  0
LINE
  8
0
 10
262.966
 20
84.5677
 11
263.455
 21
84.7553
  0
LINE
  8
0
 10
263.455
 20
84.7553
 11
263.96
 21
84.8907
  0
LINE
  8
0
 10
263.96
 20
84.8907
 11
264.477
 21
84.9726
  0
LINE
  8
0
 10
264.477
 20
84.9726
 11
265
 21
85
  0
LINE
  8
0
 10
265
 20
85
 11
265.523
 21
84.9726
  0
LINE
  8
0
 10
265.523
 20
84.9726
 11
266.04
 21
84.8907
  0
LINE
  8
0
 10
266.04
 20
84.8907
 11
266.545
 21
84.7553
  0
LINE
  8
0
 10
266.545
 20
84.7553
 11
267.034
 21
84.5677
  0
LINE
  8
0
 10
267.034
 20
84.5677
 11
267.5
 21
84.3301
  0
LINE
  8
0
 10
267.5
 20
84.3301
 11
267.939
 21
84.0451
  0
LINE
  8
0
 10
267.939
 20
84.0451
 11
268.346
 21
83.7157
  0
LINE
  8
0
 10
268.346
 20
83.7157
 11
268.716
 21
83.3456
  0
LINE
  8
0
 10
268.716
 20
83.3456
 11
269.045
 21
82.9389
  0
LINE
  8
0
 10
269.045
 20
82.9389
 11
269.33
 21
82.5
  0
LINE
  8
0
 10
269.33
 20
82.5
 11
269.568
 21
82.0337
  0
LINE
  8
0
 10
269.568
 20
82.0337
 11
269.755
 21
81.5451
  0
LINE
  8
0
 10
269.755
 20
81.5451
 11
269.891
 21
81.0396
  0
LINE
  8
0
 10
269.891
 20
81.0396
 11
269.973
 21
80.5226
  0
LINE
  8
0
 10
269.973
 20
80.5226
 11
270
 21
80
  0
LINE
  8
0
 10
270
 20
80
 11
269.973
 21
79.4774
  0
LINE
  8
0
 10
269.973
 20
79.4774
 11
269.891
 21
78.9604
  0
LINE
  8
0
 10
269.891
 20
78.9604
 11
269.755
 21
78.4549
  0
LINE
  8
0
 10
269.755
 20
78.4549
 11
269.568
 21
77.9663
  0
LINE
  8
0
 10
269.568
 20
77.9663
 11
269.33
 21
77.5
  0
LINE
  8
0
 10
269.33
 20
77.5
 11
269.045
 21
77.0611
  0
LINE
  8
0
 10
269.045
 20
77.0611
 11
268.716
 21
76.6543
  0
LINE
  8
0
 10
268.716
 20
76.6543
 11
268.346
 21
76.2843
  0
LINE
  8
0
 10
268.346
 20
76.2843
 11
267.939
 21
75.9549
  0
LINE
  8
0
 10
267.939
 20
75.9549
 11
267.5
 21
75.6699
  0
LINE
  8
0
 10
267.5
 20
75.6699
 11
267.034
 21
75.4323
  0
LINE
  8
0
 10
267.034
 20
75.4323
 11
266.545
 21
75.2447
  0
LINE
  8
0
 10
266.545
 20
75.2447
 11
266.04
 21
75.1093
  0
LINE
  8
0
 10
266.04
 20
75.1093
 11
265.523
 21
75.0274
  0
LINE
  8
0
 10
265.523
 20
75.0274
 11
265
 21
75
  0
LINE
  8
0
 10
265
 20
75
 11
264.477
 21
75.0274
  0
LINE
  8
0
 10
-225.186
 20
77.7577
 11
-225.431
 21
77.7917
  0
LINE
  8
0
 10
-225.431
 20
77.7917
 11
-225.672
 21
77.8526
  0
LINE
  8
0
 10
-225.672
 20
77.8526
 11
-225.904
 21
77.9395
  0
LINE
  8
0
 10
-225.904
 20
77.9395
 11
-226.125
 21
78.0514
  0
LINE
  8
0
 10
-226.125
 20
78.0514
 11
-226.333
 21
78.187
  0
LINE
  8
0
 10
-226.333
 20
78.187
 11
-226.524
 21
78.3446
  0
LINE
  8
0
 10
-226.524
 20
78.3446
 11
-226.697
 21
78.5223
  0
LINE
  8
0
 10
-226.697
 20
78.5223
 11
-226.849
 21
78.7179
  0
LINE
  8
0
 10
-226.849
 20
78.7179
 11
-226.979
 21
78.9291
  0
LINE
  8
0
 10
-226.979
 20
78.9291
 11
-227.085
 21
79.1533
  0
LINE
  8
0
 10
-227.085
 20
79.1533
 11
-227.165
 21
79.3878
  0
LINE
  8
0
 10
-227.165
 20
79.3878
 11
-227.219
 21
79.6297
  0
LINE
  8
0
 10
-227.219
 20
79.6297
 11
-227.247
 21
79.8761
  0
LINE
  8
0
 10
-227.247
 20
79.8761
 11
-227.247
 21
80.1239
  0
LINE
  8
0
 10
-227.247
 20
80.1239
 11
-227.219
 21
80.3703
  0
LINE
  8
0
 10
-227.219
 20
80.3703
 11
-227.165
 21
80.6122
  0
LINE
  8
0
 10
-227.165
 20
80.6122
 11
-227.085
 21
80.8467
  0
LINE
  8
0
 10
-227.085
 20
80.8467
 11
-226.979
 21
81.0709
  0
LINE
  8
0
 10
-226.979
 20
81.0709
 11
-226.849
 21
81.2821
  0
LINE
  8
0
 10
-226.849
 20
81.2821
 11
-226.697
 21
81.4777
  0
LINE
  8
0
 10
-226.697
 20
81.4777
 11
-226.524
 21
81.6554
  0
LINE
  8
0
 10
-226.524
 20
81.6554
 11
-226.333
 21
81.813
  0
LINE
  8
0
 10
-226.333
 20
81.813
 11
-226.125
 21
81.9485
  0
LINE
  8
0
 10
-226.125
 20
81.9485
 11
-225.904
 21
82.0605
  0
LINE
  8
0
 10
-225.904
 20
82.0605
 11
-225.672
 21
82.1474
  0
LINE
  8
0
 10
-225.672
 20
82.1474
 11
-225.431
 21
82.2083
  0
LINE
  8
0
 10
-225.431
 20
82.2083
 11
-225.186
 21
82.2423
  0
LINE
  8
0
 10
-225.186
 20
82.2423
 11
-224.938
 21
82.2491
  0
LINE
  8
0
 10
-224.938
 20
82.2491
 11
-224.691
 21
82.2287
  0
LINE
  8
0
 10
-224.691
 20
82.2287
 11
-224.448
 21
82.1812
  0
LINE
  8
0
 10
-224.448
 20
82.1812
 11
-224.211
 21
82.1071
  0
LINE
  8
0
 10
-224.211
 20
82.1071
 11
-223.984
 21
82.0076
  0
LINE
  8
0
 10
-223.984
 20
82.0076
 11
-223.769
 21
81.8836
  0
LINE
  8
0
 10
-223.769
 20
81.8836
 11
-223.57
 21
81.7368
  0
LINE
  8
0
 10
-223.57
 20
81.7368
 11
-223.387
 21
81.5689
  0
LINE
  8
0
 10
-223.387
 20
81.5689
 11
-223.224
 21
81.382
  0
LINE
  8
0
 10
-223.224
 20
81.382
 11
-223.083
 21
81.1783
  0
LINE
  8
0
 10
-223.083
 20
81.1783
 11
-222.965
 21
80.9602
  0
LINE
  8
0
 10
-222.965
 20
80.9602
 11
-222.872
 21
80.7306
  0
LINE
  8
0
 10
-222.872
 20
80.7306
 11
-222.804
 21
80.492
  0
LINE
  8
0
 10
-222.804
 20
80.492
 11
-222.764
 21
80.2475
  0
LINE
  8
0
 10
-222.764
 20
80.2475
 11
-222.75
 21
80
  0
LINE
  8
0
 10
-222.75
 20
80
 11
-222.764
 21
79.7525
  0
LINE
  8
0
 10
-222.764
 20
79.7525
 11
-222.804
 21
79.508
  0
LINE
  8
0
 10
-222.804
 20
79.508
 11
-222.872
 21
79.2694
  0
LINE
  8
0
 10
-222.872
 20
79.2694
 11
-222.965
 21
79.0397
  0
LINE
  8
0
 10
-222.965
 20
79.0397
 11
-223.083
 21
78.8217
  0
LINE
  8
0
 10
-223.083
 20
78.8217
 11
-223.224
 21
78.618
  0
LINE
  8
0
 10
-223.224
 20
78.618
 11
-223.387
 21
78.4311
  0
LINE
  8
0
 10
-223.387
 20
78.4311
 11
-223.57
 21
78.2632
  0
LINE
  8
0
 10
-223.57
 20
78.2632
 11
-223.769
 21
78.1164
  0
LINE
  8
0
 10
-223.769
 20
78.1164
 11
-223.984
 21
77.9924
  0
LINE
  8
0
 10
-223.984
 20
77.9924
 11
-224.211
 21
77.8929
  0
LINE
  8
0
 10
-224.211
 20
77.8929
 11
-224.448
 21
77.8188
  0
LINE
  8
0
 10
-224.448
 20
77.8188
 11
-224.691
 21
77.7713
  0
LINE
  8
0
 10
-224.691
 20
77.7713
 11
-224.938
 21
77.7509
  0
LINE
  8
0
 10
-224.938
 20
77.7509
 11
-225.186
 21
77.7577
  0
LINE
  8
0
 10
44.8142
 20
77.7577
 11
44.5686
 21
77.7917
  0
LINE
  8
0
 10
44.5686
 20
77.7917
 11
44.3283
 21
77.8526
  0
LINE
  8
0
 10
44.3283
 20
77.8526
 11
44.0962
 21
77.9395
  0
LINE
  8
0
 10
44.0962
 20
77.9395
 11
43.875
 21
78.0514
  0
LINE
  8
0
 10
43.875
 20
78.0514
 11
43.6675
 21
78.187
  0
LINE
  8
0
 10
43.6675
 20
78.187
 11
43.4761
 21
78.3446
  0
LINE
  8
0
 10
43.4761
 20
78.3446
 11
43.3033
 21
78.5223
  0
LINE
  8
0
 10
43.3033
 20
78.5223
 11
43.151
 21
78.7179
  0
LINE
  8
0
 10
43.151
 20
78.7179
 11
43.0212
 21
78.9291
  0
LINE
  8
0
 10
43.0212
 20
78.9291
 11
42.9154
 21
79.1533
  0
LINE
  8
0
 10
42.9154
 20
79.1533
 11
42.8349
 21
79.3878
  0
LINE
  8
0
 10
42.8349
 20
79.3878
 11
42.7807
 21
79.6297
  0
LINE
  8
0
 10
42.7807
 20
79.6297
 11
42.7534
 21
79.8761
  0
LINE
  8
0
 10
42.7534
 20
79.8761
 11
42.7534
 21
80.1239
  0
LINE
  8
0
 10
42.7534
 20
80.1239
 11
42.7807
 21
80.3703
  0
LINE
  8
0
 10
42.7807
 20
80.3703
 11
42.8349
 21
80.6122
  0
LINE
  8
0
 10
42.8349
 20
80.6122
 11
42.9154
 21
80.8467
  0
LINE
  8
0
 10
42.9154
 20
80.8467
 11
43.0212
 21
81.0709
  0
LINE
  8
0
 10
43.0212
 20
81.0709
 11
43.151
 21
81.2821
  0
LINE
  8
0
 10
43.151
 20
81.2821
 11
43.3033
 21
81.4777
  0
LINE
  8
0
 10
43.3033
 20
81.4777
 11
43.4761
 21
81.6554
  0
LINE
  8
0
 10
43.4761
 20
81.6554
 11
43.6675
 21
81.813
  0
LINE
  8
0
 10
43.6675
 20
81.813
 11
43.875
 21
81.9485
  0
LINE
  8
0
 10
43.875
 20
81.9485
 11
44.0962
 21
82.0605
  0
LINE
  8
0
 10
44.0962
 20
82.0605
 11
44.3283
 21
82.1474
  0
LINE
  8
0
 10
44.3283
 20
82.1474
 11
44.5686
 21
82.2083
  0
LINE
  8
0
 10
44.5686
 20
82.2083
 11
44.8142
 21
82.2423
  0
LINE
  8
0
 10
44.8142
 20
82.2423
 11
45.062
 21
82.2491
  0
LINE
  8
0
 10
45.062
 20
82.2491
 11
45.309
 21
82.2287
  0
LINE
  8
0
 10
45.309
 20
82.2287
 11
45.5523
 21
82.1812
  0
LINE
  8
0
 10
45.5523
 20
82.1812
 11
45.7889
 21
82.1071
  0
LINE
  8
0
 10
45.7889
 20
82.1071
 11
46.0159
 21
82.0076
  0
LINE
  8
0
 10
46.0159
 20
82.0076
 11
46.2306
 21
81.8836
  0
LINE
  8
0
 10
46.2306
 20
81.8836
 11
46.4304
 21
81.7368
  0
LINE
  8
0
 10
46.4304
 20
81.7368
 11
46.6128
 21
81.5689
  0
LINE
  8
0
 10
46.6128
 20
81.5689
 11
46.7756
 21
81.382
  0
LINE
  8
0
 10
46.7756
 20
81.382
 11
46.9168
 21
81.1783
  0
LINE
  8
0
 10
46.9168
 20
81.1783
 11
47.0348
 21
80.9602
  0
LINE
  8
0
 10
47.0348
 20
80.9602
 11
47.1281
 21
80.7306
  0
LINE
  8
0
 10
47.1281
 20
80.7306
 11
47.1955
 21
80.492
  0
LINE
  8
0
 10
47.1955
 20
80.492
 11
47.2363
 21
80.2475
  0
LINE
  8
0
 10
47.2363
 20
80.2475
 11
47.25
 21
80
  0
LINE
  8
0
 10
47.25
 20
80
 11
47.2363
 21
79.7525
  0
LINE
  8
0
 10
47.2363
 20
79.7525
 11
47.1955
 21
79.508
  0
LINE
  8
0
 10
47.1955
 20
79.508
 11
47.1281
 21
79.2694
  0
LINE
  8
0
 10
47.1281
 20
79.2694
 11
47.0348
 21
79.0397
  0
LINE
  8
0
 10
47.0348
 20
79.0397
 11
46.9168
 21
78.8217
  0
LINE
  8
0
 10
46.9168
 20
78.8217
 11
46.7756
 21
78.618
  0
LINE
  8
0
 10
46.7756
 20
78.618
 11
46.6128
 21
78.4311
  0
LINE
  8
0
 10
46.6128
 20
78.4311
 11
46.4304
 21
78.2632
  0
LINE
  8
0
 10
46.4304
 20
78.2632
 11
46.2306
 21
78.1164
  0
LINE
  8
0
 10
46.2306
 20
78.1164
 11
46.0159
 21
77.9924
  0
LINE
  8
0
 10
46.0159
 20
77.9924
 11
45.7889
 21
77.8929
  0
LINE
  8
0
 10
45.7889
 20
77.8929
 11
45.5523
 21
77.8188
  0
LINE
  8
0
 10
45.5523
 20
77.8188
 11
45.309
 21
77.7713
  0
LINE
  8
0
 10
45.309
 20
77.7713
 11
45.062
 21
77.7509
  0
LINE
  8
0
 10
45.062
 20
77.7509
 11
44.8142
 21
77.7577
  0
LINE
  8
0
 10
-135.186
 20
77.7577
 11
-135.431
 21
77.7917
  0
LINE
  8
0
 10
-135.431
 20
77.7917
 11
-135.672
 21
77.8526
  0
LINE
  8
0
 10
-135.672
 20
77.8526
 11
-135.904
 21
77.9395
  0
LINE
  8
0
 10
-135.904
 20
77.9395
 11
-136.125
 21
78.0514
  0
LINE
  8
0
 10
-136.125
 20
78.0514
 11
-136.333
 21
78.187
  0
LINE
  8
0
 10
-136.333
 20
78.187
 11
-136.524
 21
78.3446
  0
LINE
  8
0
 10
-136.524
 20
78.3446
 11
-136.697
 21
78.5223
  0
LINE
  8
0
 10
-136.697
 20
78.5223
 11
-136.849
 21
78.7179
  0
LINE
  8
0
 10
-136.849
 20
78.7179
 11
-136.979
 21
78.9291
  0
LINE
  8
0
 10
-136.979
 20
78.9291
 11
-137.085
 21
79.1533
  0
LINE
  8
0
 10
-137.085
 20
79.1533
 11
-137.165
 21
79.3878
  0
LINE
  8
0
 10
-137.165
 20
79.3878
 11
-137.219
 21
79.6297
  0
LINE
  8
0
 10
-137.219
 20
79.6297
 11
-137.247
 21
79.8761
  0
LINE
  8
0
 10
-137.247
 20
79.8761
 11
-137.247
 21
80.1239
  0
LINE
  8
0
 10
-137.247
 20
80.1239
 11
-137.219
 21
80.3703
  0
LINE
  8
0
 10
-137.219
 20
80.3703
 11
-137.165
 21
80.6122
  0
LINE
  8
0
 10
-137.165
 20
80.6122
 11
-137.085
 21
80.8467
  0
LINE
  8
0
 10
-137.085
 20
80.8467
 11
-136.979
 21
81.0709
  0
LINE
  8
0
 10
-136.979
 20
81.0709
 11
-136.849
 21
81.2821
  0
LINE
  8
0
 10
-136.849
 20
81.2821
 11
-136.697
 21
81.4777
  0
LINE
  8
0
 10
-136.697
 20
81.4777
 11
-136.524
 21
81.6554
  0
LINE
  8
0
 10
-136.524
 20
81.6554
 11
-136.333
 21
81.813
  0
LINE
  8
0
 10
-136.333
 20
81.813
 11
-136.125
 21
81.9485
  0
LINE
  8
0
 10
-136.125
 20
81.9485
 11
-135.904
 21
82.0605
  0
LINE
  8
0
 10
-135.904
 20
82.0605
 11
-135.672
 21
82.1474
  0
LINE
  8
0
 10
-135.672
 20
82.1474
 11
-135.431
 21
82.2083
  0
LINE
  8
0
 10
-135.431
 20
82.2083
 11
-135.186
 21
82.2423
  0
LINE
  8
0
 10
-135.186
 20
82.2423
 11
-134.938
 21
82.2491
  0
LINE
  8
0
 10
-134.938
 20
82.2491
 11
-134.691
 21
82.2287
  0
LINE
  8
0
 10
-134.691
 20
82.2287
 11
-134.448
 21
82.1812
  0
LINE
  8
0
 10
-134.448
 20
82.1812
 11
-134.211
 21
82.1071
  0
LINE
  8
0
 10
-134.211
 20
82.1071
 11
-133.984
 21
82.0076
  0
LINE
  8
0
 10
-133.984
 20
82.0076
 11
-133.769
 21
81.8836
  0
LINE
  8
0
 10
-133.769
 20
81.8836
 11
-133.57
 21
81.7368
  0
LINE
  8
0
 10
-133.57
 20
81.7368
 11
-133.387
 21
81.5689
  0
LINE
  8
0
 10
-133.387
 20
81.5689
 11
-133.224
 21
81.382
  0
LINE
  8
0
 10
-133.224
 20
81.382
 11
-133.083
 21
81.1783
  0
LINE
  8
0
 10
-133.083
 20
81.1783
 11
-132.965
 21
80.9602
  0
LINE
  8
0
 10
-132.965
 20
80.9602
 11
-132.872
 21
80.7306
  0
LINE
  8
0
 10
-132.872
 20
80.7306
 11
-132.804
 21
80.492
  0
LINE
  8
0
 10
-132.804
 20
80.492
 11
-132.764
 21
80.2475
  0
LINE
  8
0
 10
-132.764
 20
80.2475
 11
-132.75
 21
80
  0
LINE
  8
0
 10
-132.75
 20
80
 11
-132.764
 21
79.7525
  0
LINE
  8
0
 10
-132.764
 20
79.7525
 11
-132.804
 21
79.508
  0
LINE
  8
0
 10
-132.804
 20
79.508
 11
-132.872
 21
79.2694
  0
LINE
  8
0
 10
-132.872
 20
79.2694
 11
-132.965
 21
79.0397
  0
LINE
  8
0
 10
-132.965
 20
79.0397
 11
-133.083
 21
78.8217
  0
LINE
  8
0
 10
-133.083
 20
78.8217
 11
-133.224
 21
78.618
  0
LINE
  8
0
 10
-133.224
 20
78.618
 11
-133.387
 21
78.4311
  0
LINE
  8
0
 10
-133.387
 20
78.4311
 11
-133.57
 21
78.2632
  0
LINE
  8
0
 10
-133.57
 20
78.2632
 11
-133.769
 21
78.1164
  0
LINE
  8
0
 10
-133.769
 20
78.1164
 11
-133.984
 21
77.9924
  0
LINE
  8
0
 10
-133.984
 20
77.9924
 11
-134.211
 21
77.8929
  0
LINE
  8
0
 10
-134.211
 20
77.8929
 11
-134.448
 21
77.8188
  0
LINE
  8
0
 10
-134.448
 20
77.8188
 11
-134.691
 21
77.7713
  0
LINE
  8
0
 10
-134.691
 20
77.7713
 11
-134.938
 21
77.7509
  0
LINE
  8
0
 10
-134.938
 20
77.7509
 11
-135.186
 21
77.7577
  0
LINE
  8
0
 10
224.814
 20
77.7577
 11
224.569
 21
77.7917
  0
LINE
  8
0
 10
224.569
 20
77.7917
 11
224.328
 21
77.8526
  0
LINE
  8
0
 10
224.328
 20
77.8526
 11
224.096
 21
77.9395
  0
LINE
  8
0
 10
224.096
 20
77.9395
 11
223.875
 21
78.0514
  0
LINE
  8
0
 10
223.875
 20
78.0514
 11
223.667
 21
78.187
  0
LINE
  8
0
 10
223.667
 20
78.187
 11
223.476
 21
78.3446
  0
LINE
  8
0
 10
223.476
 20
78.3446
 11
223.303
 21
78.5223
  0
LINE
  8
0
 10
223.303
 20
78.5223
 11
223.151
 21
78.7179
  0
LINE
  8
0
 10
223.151
 20
78.7179
 11
223.021
 21
78.9291
  0
LINE
  8
0
 10
223.021
 20
78.9291
 11
222.915
 21
79.1533
  0
LINE
  8
0
 10
222.915
 20
79.1533
 11
222.835
 21
79.3878
  0
LINE
  8
0
 10
222.835
 20
79.3878
 11
222.781
 21
79.6297
  0
LINE
  8
0
 10
222.781
 20
79.6297
 11
222.753
 21
79.8761
  0
LINE
  8
0
 10
222.753
 20
79.8761
 11
222.753
 21
80.1239
  0
LINE
  8
0
 10
222.753
 20
80.1239
 11
222.781
 21
80.3703
  0
LINE
  8
0
 10
222.781
 20
80.3703
 11
222.835
 21
80.6122
  0
LINE
  8
0
 10
222.835
 20
80.6122
 11
222.915
 21
80.8467
  0
LINE
  8
0
 10
222.915
 20
80.8467
 11
223.021
 21
81.0709
  0
LINE
  8
0
 10
223.021
 20
81.0709
 11
223.151
 21
81.2821
  0
LINE
  8
0
 10
223.151
 20
81.2821
 11
223.303
 21
81.4777
  0
LINE
  8
0
 10
223.303
 20
81.4777
 11
223.476
 21
81.6554
  0
LINE
  8
0
 10
223.476
 20
81.6554
 11
223.667
 21
81.813
  0
LINE
  8
0
 10
223.667
 20
81.813
 11
223.875
 21
81.9485
  0
LINE
  8
0
 10
223.875
 20
81.9485
 11
224.096
 21
82.0605
  0
LINE
  8
0
 10
224.096
 20
82.0605
 11
224.328
 21
82.1474
  0
LINE
  8
0
 10
224.328
 20
82.1474
 11
224.569
 21
82.2083
  0
LINE
  8
0
 10
224.569
 20
82.2083
 11
224.814
 21
82.2423
  0
LINE
  8
0
 10
224.814
 20
82.2423
 11
225.062
 21
82.2491
  0
LINE
  8
0
 10
225.062
 20
82.2491
 11
225.309
 21
82.2287
  0
LINE
  8
0
 10
225.309
 20
82.2287
 11
225.552
 21
82.1812
  0
LINE
  8
0
 10
225.552
 20
82.1812
 11
225.789
 21
82.1071
  0
LINE
  8
0
 10
225.789
 20
82.1071
 11
226.016
 21
82.0076
  0
LINE
  8
0
 10
226.016
 20
82.0076
 11
226.231
 21
81.8836
  0
LINE
  8
0
 10
226.231
 20
81.8836
 11
226.43
 21
81.7368
  0
LINE
  8
0
 10
226.43
 20
81.7368
 11
226.613
 21
81.5689
  0
LINE
  8
0
 10
226.613
 20
81.5689
 11
226.776
 21
81.382
  0
LINE
  8
0
 10
226.776
 20
81.382
 11
226.917
 21
81.1783
  0
LINE
  8
0
 10
226.917
 20
81.1783
 11
227.035
 21
80.9602
  0
LINE
  8
0
 10
227.035
 20
80.9602
 11
227.128
 21
80.7306
  0
LINE
  8
0
 10
227.128
 20
80.7306
 11
227.196
 21
80.492
  0
LINE
  8
0
 10
227.196
 20
80.492
 11
227.236
 21
80.2475
  0
LINE
  8
0
 10
227.236
 20
80.2475
 11
227.25
 21
80
  0
LINE
  8
0
 10
227.25
 20
80
 11
227.236
 21
79.7525
  0
LINE
  8
0
 10
227.236
 20
79.7525
 11
227.196
 21
79.508
  0
LINE
  8
0
 10
227.196
 20
79.508
 11
227.128
 21
79.2694
  0
LINE
  8
0
 10
227.128
 20
79.2694
 11
227.035
 21
79.0397
  0
LINE
  8
0
 10
227.035
 20
79.0397
 11
226.917
 21
78.8217
  0
LINE
  8
0
 10
226.917
 20
78.8217
 11
226.776
 21
78.618
  0
LINE
  8
0
 10
226.776
 20
78.618
 11
226.613
 21
78.4311
  0
LINE
  8
0
 10
226.613
 20
78.4311
 11
226.43
 21
78.2632
  0
LINE
  8
0
 10
226.43
 20
78.2632
 11
226.231
 21
78.1164
  0
LINE
  8
0
 10
226.231
 20
78.1164
 11
226.016
 21
77.9924
  0
LINE
  8
0
 10
226.016
 20
77.9924
 11
225.789
 21
77.8929
  0
LINE
  8
0
 10
225.789
 20
77.8929
 11
225.552
 21
77.8188
  0
LINE
  8
0
 10
225.552
 20
77.8188
 11
225.309
 21
77.7713
  0
LINE
  8
0
 10
225.309
 20
77.7713
 11
225.062
 21
77.7509
  0
LINE
  8
0
 10
225.062
 20
77.7509
 11
224.814
 21
77.7577
  0
LINE
  8
0
 10
134.814
 20
77.7577
 11
134.569
 21
77.7917
  0
LINE
  8
0
 10
134.569
 20
77.7917
 11
134.328
 21
77.8526
  0
LINE
  8
0
 10
134.328
 20
77.8526
 11
134.096
 21
77.9395
  0
LINE
  8
0
 10
134.096
 20
77.9395
 11
133.875
 21
78.0514
  0
LINE
  8
0
 10
133.875
 20
78.0514
 11
133.667
 21
78.187
  0
LINE
  8
0
 10
133.667
 20
78.187
 11
133.476
 21
78.3446
  0
LINE
  8
0
 10
133.476
 20
78.3446
 11
133.303
 21
78.5223
  0
LINE
  8
0
 10
133.303
 20
78.5223
 11
133.151
 21
78.7179
  0
LINE
  8
0
 10
133.151
 20
78.7179
 11
133.021
 21
78.9291
  0
LINE
  8
0
 10
133.021
 20
78.9291
 11
132.915
 21
79.1533
  0
LINE
  8
0
 10
132.915
 20
79.1533
 11
132.835
 21
79.3878
  0
LINE
  8
0
 10
132.835
 20
79.3878
 11
132.781
 21
79.6297
  0
LINE
  8
0
 10
132.781
 20
79.6297
 11
132.753
 21
79.8761
  0
LINE
  8
0
 10
132.753
 20
79.8761
 11
132.753
 21
80.1239
  0
LINE
  8
0
 10
132.753
 20
80.1239
 11
132.781
 21
80.3703
  0
LINE
  8
0
 10
132.781
 20
80.3703
 11
132.835
 21
80.6122
  0
LINE
  8
0
 10
132.835
 20
80.6122
 11
132.915
 21
80.8467
  0
LINE
  8
0
 10
132.915
 20
80.8467
 11
133.021
 21
81.0709
  0
LINE
  8
0
 10
133.021
 20
81.0709
 11
133.151
 21
81.2821
  0
LINE
  8
0
 10
133.151
 20
81.2821
 11
133.303
 21
81.4777
  0
LINE
  8
0
 10
133.303
 20
81.4777
 11
133.476
 21
81.6554
  0
LINE
  8
0
 10
133.476
 20
81.6554
 11
133.667
 21
81.813
  0
LINE
  8
0
 10
133.667
 20
81.813
 11
133.875
 21
81.9485
  0
LINE
  8
0
 10
133.875
 20
81.9485
 11
134.096
 21
82.0605
  0
LINE
  8
0
 10
134.096
 20
82.0605
 11
134.328
 21
82.1474
  0
LINE
  8
0
 10
134.328
 20
82.1474
 11
134.569
 21
82.2083
  0
LINE
  8
0
 10
134.569
 20
82.2083
 11
134.814
 21
82.2423
  0
LINE
  8
0
 10
134.814
 20
82.2423
 11
135.062
 21
82.2491
  0
LINE
  8
0
 10
135.062
 20
82.2491
 11
135.309
 21
82.2287
  0
LINE
  8
0
 10
135.309
 20
82.2287
 11
135.552
 21
82.1812
  0
LINE
  8
0
 10
135.552
 20
82.1812
 11
135.789
 21
82.1071
  0
LINE
  8
0
 10
135.789
 20
82.1071
 11
136.016
 21
82.0076
  0
LINE
  8
0
 10
136.016
 20
82.0076
 11
136.231
 21
81.8836
  0
LINE
  8
0
 10
136.231
 20
81.8836
 11
136.43
 21
81.7368
  0
LINE
  8
0
 10
136.43
 20
81.7368
 11
136.613
 21
81.5689
  0
LINE
  8
0
 10
136.613
 20
81.5689
 11
136.776
 21
81.382
  0
LINE
  8
0
 10
136.776
 20
81.382
 11
136.917
 21
81.1783
  0
LINE
  8
0
 10
136.917
 20
81.1783
 11
137.035
 21
80.9602
  0
LINE
  8
0
 10
137.035
 20
80.9602
 11
137.128
 21
80.7306
  0
LINE
  8
0
 10
137.128
 20
80.7306
 11
137.196
 21
80.492
  0
LINE
  8
0
 10
137.196
 20
80.492
 11
137.236
 21
80.2475
  0
LINE
  8
0
 10
137.236
 20
80.2475
 11
137.25
 21
80
  0
LINE
  8
0
 10
137.25
 20
80
 11
137.236
 21
79.7525
  0
LINE
  8
0
 10
137.236
 20
79.7525
 11
137.196
 21
79.508
  0
LINE
  8
0
 10
137.196
 20
79.508
 11
137.128
 21
79.2694
  0
LINE
  8
0
 10
137.128
 20
79.2694
 11
137.035
 21
79.0397
  0
LINE
  8
0
 10
137.035
 20
79.0397
 11
136.917
 21
78.8217
  0
LINE
  8
0
 10
136.917
 20
78.8217
 11
136.776
 21
78.618
  0
LINE
  8
0
 10
136.776
 20
78.618
 11
136.613
 21
78.4311
  0
LINE
  8
0
 10
136.613
 20
78.4311
 11
136.43
 21
78.2632
  0
LINE
  8
0
 10
136.43
 20
78.2632
 11
136.231
 21
78.1164
  0
LINE
  8
0
 10
136.231
 20
78.1164
 11
136.016
 21
77.9924
  0
LINE
  8
0
 10
136.016
 20
77.9924
 11
135.789
 21
77.8929
  0
LINE
  8
0
 10
135.789
 20
77.8929
 11
135.552
 21
77.8188
  0
LINE
  8
0
 10
135.552
 20
77.8188
 11
135.309
 21
77.7713
  0
LINE
  8
0
 10
135.309
 20
77.7713
 11
135.062
 21
77.7509
  0
LINE
  8
0
 10
135.062
 20
77.7509
 11
134.814
 21
77.7577
  0
LINE
  8
0
 10
-45.1858
 20
77.7577
 11
-45.4314
 21
77.7917
  0
LINE
  8
0
 10
-45.4314
 20
77.7917
 11
-45.6716
 21
77.8526
  0
LINE
  8
0
 10
-45.6716
 20
77.8526
 11
-45.9038
 21
77.9395
  0
LINE
  8
0
 10
-45.9038
 20
77.9395
 11
-46.125
 21
78.0514
  0
LINE
  8
0
 10
-46.125
 20
78.0514
 11
-46.3325
 21
78.187
  0
LINE
  8
0
 10
-46.3325
 20
78.187
 11
-46.5239
 21
78.3446
  0
LINE
  8
0
 10
-46.5239
 20
78.3446
 11
-46.6967
 21
78.5223
  0
LINE
  8
0
 10
-46.6967
 20
78.5223
 11
-46.849
 21
78.7179
  0
LINE
  8
0
 10
-46.849
 20
78.7179
 11
-46.9788
 21
78.9291
  0
LINE
  8
0
 10
-46.9788
 20
78.9291
 11
-47.0846
 21
79.1533
  0
LINE
  8
0
 10
-47.0846
 20
79.1533
 11
-47.1651
 21
79.3878
  0
LINE
  8
0
 10
-47.1651
 20
79.3878
 11
-47.2193
 21
79.6297
  0
LINE
  8
0
 10
-47.2193
 20
79.6297
 11
-47.2466
 21
79.8761
  0
LINE
  8
0
 10
-47.2466
 20
79.8761
 11
-47.2466
 21
80.1239
  0
LINE
  8
0
 10
-47.2466
 20
80.1239
 11
-47.2193
 21
80.3703
  0
LINE
  8
0
 10
-47.2193
 20
80.3703
 11
-47.1651
 21
80.6122
  0
LINE
  8
0
 10
-47.1651
 20
80.6122
 11
-47.0846
 21
80.8467
  0
LINE
  8
0
 10
-47.0846
 20
80.8467
 11
-46.9788
 21
81.0709
  0
LINE
  8
0
 10
-46.9788
 20
81.0709
 11
-46.849
 21
81.2821
  0
LINE
  8
0
 10
-46.849
 20
81.2821
 11
-46.6967
 21
81.4777
  0
LINE
  8
0
 10
-46.6967
 20
81.4777
 11
-46.5239
 21
81.6554
  0
LINE
  8
0
 10
-46.5239
 20
81.6554
 11
-46.3325
 21
81.813
  0
LINE
  8
0
 10
-46.3325
 20
81.813
 11
-46.125
 21
81.9485
  0
LINE
  8
0
 10
-46.125
 20
81.9485
 11
-45.9038
 21
82.0605
  0
LINE
  8
0
 10
-45.9038
 20
82.0605
 11
-45.6716
 21
82.1474
  0
LINE
  8
0
 10
-45.6716
 20
82.1474
 11
-45.4314
 21
82.2083
  0
LINE
  8
0
 10
-45.4314
 20
82.2083
 11
-45.1858
 21
82.2423
  0
LINE
  8
0
 10
-45.1858
 20
82.2423
 11
-44.938
 21
82.2491
  0
LINE
  8
0
 10
-44.938
 20
82.2491
 11
-44.6909
 21
82.2287
  0
LINE
  8
0
 10
-44.6909
 20
82.2287
 11
-44.4476
 21
82.1812
  0
LINE
  8
0
 10
-44.4476
 20
82.1812
 11
-44.2111
 21
82.1071
  0
LINE
  8
0
 10
-44.2111
 20
82.1071
 11
-43.984
 21
82.0076
  0
LINE
  8
0
 10
-43.984
 20
82.0076
 11
-43.7694
 21
81.8836
  0
LINE
  8
0
 10
-43.7694
 20
81.8836
 11
-43.5696
 21
81.7368
  0
LINE
  8
0
 10
-43.5696
 20
81.7368
 11
-43.3872
 21
81.5689
  0
LINE
  8
0
 10
-43.3872
 20
81.5689
 11
-43.2244
 21
81.382
  0
LINE
  8
0
 10
-43.2244
 20
81.382
 11
-43.0832
 21
81.1783
  0
LINE
  8
0
 10
-43.0832
 20
81.1783
 11
-42.9652
 21
80.9602
  0
LINE
  8
0
 10
-42.9652
 20
80.9602
 11
-42.8719
 21
80.7306
  0
LINE
  8
0
 10
-42.8719
 20
80.7306
 11
-42.8045
 21
80.492
  0
LINE
  8
0
 10
-42.8045
 20
80.492
 11
-42.7637
 21
80.2475
  0
LINE
  8
0
 10
-42.7637
 20
80.2475
 11
-42.75
 21
80
  0
LINE
  8
0
 10
-42.75
 20
80
 11
-42.7637
 21
79.7525
  0
LINE
  8
0
 10
-42.7637
 20
79.7525
 11
-42.8045
 21
79.508
  0
LINE
  8
0
 10
-42.8045
 20
79.508
 11
-42.8719
 21
79.2694
  0
LINE
  8
0
 10
-42.8719
 20
79.2694
 11
-42.9652
 21
79.0397
  0
LINE
  8
0
 10
-42.9652
 20
79.0397
 11
-43.0832
 21
78.8217
  0
LINE
  8
0
 10
-43.0832
 20
78.8217
 11
-43.2244
 21
78.618
  0
LINE
  8
0
 10
-43.2244
 20
78.618
 11
-43.3872
 21
78.4311
  0
LINE
  8
0
 10
-43.3872
 20
78.4311
 11
-43.5696
 21
78.2632
  0
LINE
  8
0
 10
-43.5696
 20
78.2632
 11
-43.7694
 21
78.1164
  0
LINE
  8
0
 10
-43.7694
 20
78.1164
 11
-43.984
 21
77.9924
  0
LINE
  8
0
 10
-43.984
 20
77.9924
 11
-44.2111
 21
77.8929
  0
LINE
  8
0
 10
-44.2111
 20
77.8929
 11
-44.4476
 21
77.8188
  0
LINE
  8
0
 10
-44.4476
 20
77.8188
 11
-44.6909
 21
77.7713
  0
LINE
  8
0
 10
-44.6909
 20
77.7713
 11
-44.938
 21
77.7509
  0
LINE
  8
0
 10
-44.938
 20
77.7509
 11
-45.1858
 21
77.7577
  0
LINE
  8
0
 10
264.814
 20
37.7577
 11
264.569
 21
37.7917
  0
LINE
  8
0
 10
264.569
 20
37.7917
 11
264.328
 21
37.8526
  0
LINE
  8
0
 10
264.328
 20
37.8526
 11
264.096
 21
37.9395
  0
LINE
  8
0
 10
264.096
 20
37.9395
 11
263.875
 21
38.0514
  0
LINE
  8
0
 10
263.875
 20
38.0514
 11
263.667
 21
38.187
  0
LINE
  8
0
 10
263.667
 20
38.187
 11
263.476
 21
38.3446
  0
LINE
  8
0
 10
263.476
 20
38.3446
 11
263.303
 21
38.5223
  0
LINE
  8
0
 10
263.303
 20
38.5223
 11
263.151
 21
38.7179
  0
LINE
  8
0
 10
263.151
 20
38.7179
 11
263.021
 21
38.9291
  0
LINE
  8
0
 10
263.021
 20
38.9291
 11
262.915
 21
39.1533
  0
LINE
  8
0
 10
262.915
 20
39.1533
 11
262.835
 21
39.3878
  0
LINE
  8
0
 10
262.835
 20
39.3878
 11
262.781
 21
39.6297
  0
LINE
  8
0
 10
262.781
 20
39.6297
 11
262.753
 21
39.8761
  0
LINE
  8
0
 10
262.753
 20
39.8761
 11
262.753
 21
40.1239
  0
LINE
  8
0
 10
262.753
 20
40.1239
 11
262.781
 21
40.3703
  0
LINE
  8
0
 10
262.781
 20
40.3703
 11
262.835
 21
40.6122
  0
LINE
  8
0
 10
262.835
 20
40.6122
 11
262.915
 21
40.8467
  0
LINE
  8
0
 10
262.915
 20
40.8467
 11
263.021
 21
41.0709
  0
LINE
  8
0
 10
263.021
 20
41.0709
 11
263.151
 21
41.2821
  0
LINE
  8
0
 10
263.151
 20
41.2821
 11
263.303
 21
41.4777
  0
LINE
  8
0
 10
263.303
 20
41.4777
 11
263.476
 21
41.6554
  0
LINE
  8
0
 10
263.476
 20
41.6554
 11
263.667
 21
41.813
  0
LINE
  8
0
 10
263.667
 20
41.813
 11
263.875
 21
41.9485
  0
LINE
  8
0
 10
263.875
 20
41.9485
 11
264.096
 21
42.0605
  0
LINE
  8
0
 10
264.096
 20
42.0605
 11
264.328
 21
42.1474
  0
LINE
  8
0
 10
264.328
 20
42.1474
 11
264.569
 21
42.2083
  0
LINE
  8
0
 10
264.569
 20
42.2083
 11
264.814
 21
42.2423
  0
LINE
  8
0
 10
264.814
 20
42.2423
 11
265.062
 21
42.2491
  0
LINE
  8
0
 10
265.062
 20
42.2491
 11
265.309
 21
42.2287
  0
LINE
  8
0
 10
265.309
 20
42.2287
 11
265.552
 21
42.1812
  0
LINE
  8
0
 10
265.552
 20
42.1812
 11
265.789
 21
42.1071
  0
LINE
  8
0
 10
265.789
 20
42.1071
 11
266.016
 21
42.0076
  0
LINE
  8
0
 10
266.016
 20
42.0076
 11
266.231
 21
41.8836
  0
LINE
  8
0
 10
266.231
 20
41.8836
 11
266.43
 21
41.7368
  0
LINE
  8
0
 10
266.43
 20
41.7368
 11
266.613
 21
41.5689
  0
LINE
  8
0
 10
266.613
 20
41.5689
 11
266.776
 21
41.382
  0
LINE
  8
0
 10
266.776
 20
41.382
 11
266.917
 21
41.1783
  0
LINE
  8
0
 10
266.917
 20
41.1783
 11
267.035
 21
40.9602
  0
LINE
  8
0
 10
267.035
 20
40.9602
 11
267.128
 21
40.7306
  0
LINE
  8
0
 10
267.128
 20
40.7306
 11
267.196
 21
40.492
  0
LINE
  8
0
 10
267.196
 20
40.492
 11
267.236
 21
40.2475
  0
LINE
  8
0
 10
267.236
 20
40.2475
 11
267.25
 21
40
  0
LINE
  8
0
 10
267.25
 20
40
 11
267.236
 21
39.7525
  0
LINE
  8
0
 10
267.236
 20
39.7525
 11
267.196
 21
39.508
  0
LINE
  8
0
 10
267.196
 20
39.508
 11
267.128
 21
39.2694
  0
LINE
  8
0
 10
267.128
 20
39.2694
 11
267.035
 21
39.0397
  0
LINE
  8
0
 10
267.035
 20
39.0397
 11
266.917
 21
38.8217
  0
LINE
  8
0
 10
266.917
 20
38.8217
 11
266.776
 21
38.618
  0
LINE
  8
0
 10
266.776
 20
38.618
 11
266.613
 21
38.4311
  0
LINE
  8
0
 10
266.613
 20
38.4311
 11
266.43
 21
38.2632
  0
LINE
  8
0
 10
266.43
 20
38.2632
 11
266.231
 21
38.1164
  0
LINE
  8
0
 10
266.231
 20
38.1164
 11
266.016
 21
37.9924
  0
LINE
  8
0
 10
266.016
 20
37.9924
 11
265.789
 21
37.8928
  0
LINE
  8
0
 10
265.789
 20
37.8928
 11
265.552
 21
37.8188
  0
LINE
  8
0
 10
265.552
 20
37.8188
 11
265.309
 21
37.7713
  0
LINE
  8
0
 10
265.309
 20
37.7713
 11
265.062
 21
37.7509
  0
LINE
  8
0
 10
265.062
 20
37.7509
 11
264.814
 21
37.7577
  0
LINE
  8
0
 10
-265.309
 20
37.7713
 11
-265.552
 21
37.8188
  0
LINE
  8
0
 10
-265.552
 20
37.8188
 11
-265.789
 21
37.8928
  0
LINE
  8
0
 10
-265.789
 20
37.8928
 11
-266.016
 21
37.9924
  0
LINE
  8
0
 10
-266.016
 20
37.9924
 11
-266.231
 21
38.1164
  0
LINE
  8
0
 10
-266.231
 20
38.1164
 11
-266.43
 21
38.2632
  0
LINE
  8
0
 10
-266.43
 20
38.2632
 11
-266.613
 21
38.4311
  0
LINE
  8
0
 10
-266.613
 20
38.4311
 11
-266.776
 21
38.618
  0
LINE
  8
0
 10
-266.776
 20
38.618
 11
-266.917
 21
38.8217
  0
LINE
  8
0
 10
-266.917
 20
38.8217
 11
-267.035
 21
39.0397
  0
LINE
  8
0
 10
-267.035
 20
39.0397
 11
-267.128
 21
39.2694
  0
LINE
  8
0
 10
-267.128
 20
39.2694
 11
-267.196
 21
39.508
  0
LINE
  8
0
 10
-267.196
 20
39.508
 11
-267.236
 21
39.7525
  0
LINE
  8
0
 10
-267.236
 20
39.7525
 11
-267.25
 21
40
  0
LINE
  8
0
 10
-267.25
 20
40
 11
-267.236
 21
40.2475
  0
LINE
  8
0
 10
-267.236
 20
40.2475
 11
-267.196
 21
40.492
  0
LINE
  8
0
 10
-267.196
 20
40.492
 11
-267.128
 21
40.7306
  0
LINE
  8
0
 10
-267.128
 20
40.7306
 11
-267.035
 21
40.9602
  0
LINE
  8
0
 10
-267.035
 20
40.9602
 11
-266.917
 21
41.1783
  0
LINE
  8
0
 10
-266.917
 20
41.1783
 11
-266.776
 21
41.382
  0
LINE
  8
0
 10
-266.776
 20
41.382
 11
-266.613
 21
41.5689
  0
LINE
  8
0
 10
-266.613
 20
41.5689
 11
-266.43
 21
41.7368
  0
LINE
  8
0
 10
-266.43
 20
41.7368
 11
-266.231
 21
41.8836
  0
LINE
  8
0
 10
-266.231
 20
41.8836
 11
-266.016
 21
42.0076
  0
LINE
  8
0
 10
-266.016
 20
42.0076
 11
-265.789
 21
42.1071
  0
LINE
  8
0
 10
-265.789
 20
42.1071
 11
-265.552
 21
42.1812
  0
LINE
  8
0
 10
-265.552
 20
42.1812
 11
-265.309
 21
42.2287
  0
LINE
  8
0
 10
-265.309
 20
42.2287
 11
-265.062
 21
42.2491
  0
LINE
  8
0
 10
-265.062
 20
42.2491
 11
-264.814
 21
42.2423
  0
LINE
  8
0
 10
-264.814
 20
42.2423
 11
-264.569
 21
42.2083
  0
LINE
  8
0
 10
-264.569
 20
42.2083
 11
-264.328
 21
42.1474
  0
LINE
  8
0
 10
-264.328
 20
42.1474
 11
-264.096
 21
42.0605
  0
LINE
  8
0
 10
-264.096
 20
42.0605
 11
-263.875
 21
41.9485
  0
LINE
  8
0
 10
-263.875
 20
41.9485
 11
-263.667
 21
41.813
  0
LINE
  8
0
 10
-263.667
 20
41.813
 11
-263.476
 21
41.6554
  0
LINE
  8
0
 10
-263.476
 20
41.6554
 11
-263.303
 21
41.4777
  0
LINE
  8
0
 10
-263.303
 20
41.4777
 11
-263.151
 21
41.2821
  0
LINE
  8
0
 10
-263.151
 20
41.2821
 11
-263.021
 21
41.0709
  0
LINE
  8
0
 10
-263.021
 20
41.0709
 11
-262.915
 21
40.8467
  0
LINE
  8
0
 10
-262.915
 20
40.8467
 11
-262.835
 21
40.6122
  0
LINE
  8
0
 10
-262.835
 20
40.6122
 11
-262.781
 21
40.3703
  0
LINE
  8
0
 10
-262.781
 20
40.3703
 11
-262.753
 21
40.1239
  0
LINE
  8
0
 10
-262.753
 20
40.1239
 11
-262.753
 21
39.8761
  0
LINE
  8
0
 10
-262.753
 20
39.8761
 11
-262.781
 21
39.6297
  0
LINE
  8
0
 10
-262.781
 20
39.6297
 11
-262.835
 21
39.3878
  0
LINE
  8
0
 10
-262.835
 20
39.3878
 11
-262.915
 21
39.1533
  0
LINE
  8
0
 10
-262.915
 20
39.1533
 11
-263.021
 21
38.9291
  0
LINE
  8
0
 10
-263.021
 20
38.9291
 11
-263.151
 21
38.7179
  0
LINE
  8
0
 10
-263.151
 20
38.7179
 11
-263.303
 21
38.5223
  0
LINE
  8
0
 10
-263.303
 20
38.5223
 11
-263.476
 21
38.3446
  0
LINE
  8
0
 10
-263.476
 20
38.3446
 11
-263.667
 21
38.187
  0
LINE
  8
0
 10
-263.667
 20
38.187
 11
-263.875
 21
38.0514
  0
LINE
  8
0
 10
-263.875
 20
38.0514
 11
-264.096
 21
37.9395
  0
LINE
  8
0
 10
-264.096
 20
37.9395
 11
-264.328
 21
37.8526
  0
LINE
  8
0
 10
-264.328
 20
37.8526
 11
-264.569
 21
37.7917
  0
LINE
  8
0
 10
-264.569
 20
37.7917
 11
-264.814
 21
37.7577
  0
LINE
  8
0
 10
-264.814
 20
37.7577
 11
-265.062
 21
37.7509
  0
LINE
  8
0
 10
-265.062
 20
37.7509
 11
-265.309
 21
37.7713
  0
LINE
  8
0
 10
-265.309
 20
-42.2287
 11
-265.552
 21
-42.1812
  0
LINE
  8
0
 10
-265.552
 20
-42.1812
 11
-265.789
 21
-42.1071
  0
LINE
  8
0
 10
-265.789
 20
-42.1071
 11
-266.016
 21
-42.0076
  0
LINE
  8
0
 10
-266.016
 20
-42.0076
 11
-266.231
 21
-41.8836
  0
LINE
  8
0
 10
-266.231
 20
-41.8836
 11
-266.43
 21
-41.7368
  0
LINE
  8
0
 10
-266.43
 20
-41.7368
 11
-266.613
 21
-41.5689
  0
LINE
  8
0
 10
-266.613
 20
-41.5689
 11
-266.776
 21
-41.382
  0
LINE
  8
0
 10
-266.776
 20
-41.382
 11
-266.917
 21
-41.1783
  0
LINE
  8
0
 10
-266.917
 20
-41.1783
 11
-267.035
 21
-40.9602
  0
LINE
  8
0
 10
-267.035
 20
-40.9602
 11
-267.128
 21
-40.7306
  0
LINE
  8
0
 10
-267.128
 20
-40.7306
 11
-267.196
 21
-40.492
  0
LINE
  8
0
 10
-267.196
 20
-40.492
 11
-267.236
 21
-40.2475
  0
LINE
  8
0
 10
-267.236
 20
-40.2475
 11
-267.25
 21
-40
  0
LINE
  8
0
 10
-267.25
 20
-40
 11
-267.236
 21
-39.7525
  0
LINE
  8
0
 10
-267.236
 20
-39.7525
 11
-267.196
 21
-39.508
  0
LINE
  8
0
 10
-267.196
 20
-39.508
 11
-267.128
 21
-39.2694
  0
LINE
  8
0
 10
-267.128
 20
-39.2694
 11
-267.035
 21
-39.0397
  0
LINE
  8
0
 10
-267.035
 20
-39.0397
 11
-266.917
 21
-38.8217
  0
LINE
  8
0
 10
-266.917
 20
-38.8217
 11
-266.776
 21
-38.618
  0
LINE
  8
0
 10
-266.776
 20
-38.618
 11
-266.613
 21
-38.4311
  0
LINE
  8
0
 10
-266.613
 20
-38.4311
 11
-266.43
 21
-38.2632
  0
LINE
  8
0
 10
-266.43
 20
-38.2632
 11
-266.231
 21
-38.1164
  0
LINE
  8
0
 10
-266.231
 20
-38.1164
 11
-266.016
 21
-37.9924
  0
LINE
  8
0
 10
-266.016
 20
-37.9924
 11
-265.789
 21
-37.8928
  0
LINE
  8
0
 10
-265.789
 20
-37.8928
 11
-265.552
 21
-37.8188
  0
LINE
  8
0
 10
-265.552
 20
-37.8188
 11
-265.309
 21
-37.7713
  0
LINE
  8
0
 10
-265.309
 20
-37.7713
 11
-265.062
 21
-37.7509
  0
LINE
  8
0
 10
-265.062
 20
-37.7509
 11
-264.814
 21
-37.7577
  0
LINE
  8
0
 10
-264.814
 20
-37.7577
 11
-264.569
 21
-37.7917
  0
LINE
  8
0
 10
-264.569
 20
-37.7917
 11
-264.328
 21
-37.8526
  0
LINE
  8
0
 10
-264.328
 20
-37.8526
 11
-264.096
 21
-37.9395
  0
LINE
  8
0
 10
-264.096
 20
-37.9395
 11
-263.875
 21
-38.0514
  0
LINE
  8
0
 10
-263.875
 20
-38.0514
 11
-263.667
 21
-38.187
  0
LINE
  8
0
 10
-263.667
 20
-38.187
 11
-263.476
 21
-38.3446
  0
LINE
  8
0
 10
-263.476
 20
-38.3446
 11
-263.303
 21
-38.5223
  0
LINE
  8
0
 10
-263.303
 20
-38.5223
 11
-263.151
 21
-38.7179
  0
LINE
  8
0
 10
-263.151
 20
-38.7179
 11
-263.021
 21
-38.9291
  0
LINE
  8
0
 10
-263.021
 20
-38.9291
 11
-262.915
 21
-39.1533
  0
LINE
  8
0
 10
-262.915
 20
-39.1533
 11
-262.835
 21
-39.3878
  0
LINE
  8
0
 10
-262.835
 20
-39.3878
 11
-262.781
 21
-39.6297
  0
LINE
  8
0
 10
-262.781
 20
-39.6297
 11
-262.753
 21
-39.8761
  0
LINE
  8
0
 10
-262.753
 20
-39.8761
 11
-262.753
 21
-40.1239
  0
LINE
  8
0
 10
-262.753
 20
-40.1239
 11
-262.781
 21
-40.3703
  0
LINE
  8
0
 10
-262.781
 20
-40.3703
 11
-262.835
 21
-40.6122
  0
LINE
  8
0
 10
-262.835
 20
-40.6122
 11
-262.915
 21
-40.8467
  0
LINE
  8
0
 10
-262.915
 20
-40.8467
 11
-263.021
 21
-41.0709
  0
LINE
  8
0
 10
-263.021
 20
-41.0709
 11
-263.151
 21
-41.2821
  0
LINE
  8
0
 10
-263.151
 20
-41.2821
 11
-263.303
 21
-41.4777
  0
LINE
  8
0
 10
-263.303
 20
-41.4777
 11
-263.476
 21
-41.6554
  0
LINE
  8
0
 10
-263.476
 20
-41.6554
 11
-263.667
 21
-41.813
  0
LINE
  8
0
 10
-263.667
 20
-41.813
 11
-263.875
 21
-41.9485
  0
LINE
  8
0
 10
-263.875
 20
-41.9485
 11
-264.096
 21
-42.0605
  0
LINE
  8
0
 10
-264.096
 20
-42.0605
 11
-264.328
 21
-42.1474
  0
LINE
  8
0
 10
-264.328
 20
-42.1474
 11
-264.569
 21
-42.2083
  0
LINE
  8
0
 10
-264.569
 20
-42.2083
 11
-264.814
 21
-42.2423
  0
LINE
  8
0
 10
-264.814
 20
-42.2423
 11
-265.062
 21
-42.2491
  0
LINE
  8
0
 10
-265.062
 20
-42.2491
 11
-265.309
 21
-42.2287
  0
LINE
  8
0
 10
264.814
 20
-42.2423
 11
264.569
 21
-42.2083
  0
LINE
  8
0
 10
264.569
 20
-42.2083
 11
264.328
 21
-42.1474
  0
LINE
  8
0
 10
264.328
 20
-42.1474
 11
264.096
 21
-42.0605
  0
LINE
  8
0
 10
264.096
 20
-42.0605
 11
263.875
 21
-41.9485
  0
LINE
  8
0
 10
263.875
 20
-41.9485
 11
263.667
 21
-41.813
  0
LINE
  8
0
 10
263.667
 20
-41.813
 11
263.476
 21
-41.6554
  0
LINE
  8
0
 10
263.476
 20
-41.6554
 11
263.303
 21
-41.4777
  0
LINE
  8
0
 10
263.303
 20
-41.4777
 11
263.151
 21
-41.2821
  0
LINE
  8
0
 10
263.151
 20
-41.2821
 11
263.021
 21
-41.0709
  0
LINE
  8
0
 10
263.021
 20
-41.0709
 11
262.915
 21
-40.8467
  0
LINE
  8
0
 10
262.915
 20
-40.8467
 11
262.835
 21
-40.6122
  0
LINE
  8
0
 10
262.835
 20
-40.6122
 11
262.781
 21
-40.3703
  0
LINE
  8
0
 10
262.781
 20
-40.3703
 11
262.753
 21
-40.1239
  0
LINE
  8
0
 10
262.753
 20
-40.1239
 11
262.753
 21
-39.8761
  0
LINE
  8
0
 10
262.753
 20
-39.8761
 11
262.781
 21
-39.6297
  0
LINE
  8
0
 10
262.781
 20
-39.6297
 11
262.835
 21
-39.3878
  0
LINE
  8
0
 10
262.835
 20
-39.3878
 11
262.915
 21
-39.1533
  0
LINE
  8
0
 10
262.915
 20
-39.1533
 11
263.021
 21
-38.9291
  0
LINE
  8
0
 10
263.021
 20
-38.9291
 11
263.151
 21
-38.7179
  0
LINE
  8
0
 10
263.151
 20
-38.7179
 11
263.303
 21
-38.5223
  0
LINE
  8
0
 10
263.303
 20
-38.5223
 11
263.476
 21
-38.3446
  0
LINE
  8
0
 10
263.476
 20
-38.3446
 11
263.667
 21
-38.187
  0
LINE
  8
0
 10
263.667
 20
-38.187
 11
263.875
 21
-38.0514
  0
LINE
  8
0
 10
263.875
 20
-38.0514
 11
264.096
 21
-37.9395
  0
LINE
  8
0
 10
264.096
 20
-37.9395
 11
264.328
 21
-37.8526
  0
LINE
  8
0
 10
264.328
 20
-37.8526
 11
264.569
 21
-37.7917
  0
LINE
  8
0
 10
264.569
 20
-37.7917
 11
264.814
 21
-37.7577
  0
LINE
  8
0
 10
264.814
 20
-37.7577
 11
265.062
 21
-37.7509
  0
LINE
  8
0
 10
265.062
 20
-37.7509
 11
265.309
 21
-37.7713
  0
LINE
  8
0
 10
265.309
 20
-37.7713
 11
265.552
 21
-37.8188
  0
LINE
  8
0
 10
265.552
 20
-37.8188
 11
265.789
 21
-37.8928
  0
LINE
  8
0
 10
265.789
 20
-37.8928
 11
266.016
 21
-37.9924
  0
LINE
  8
0
 10
266.016
 20
-37.9924
 11
266.231
 21
-38.1164
  0
LINE
  8
0
 10
266.231
 20
-38.1164
 11
266.43
 21
-38.2632
  0
LINE
  8
0
 10
266.43
 20
-38.2632
 11
266.613
 21
-38.4311
  0
LINE
  8
0
 10
266.613
 20
-38.4311
 11
266.776
 21
-38.618
  0
LINE
  8
0
 10
266.776
 20
-38.618
 11
266.917
 21
-38.8217
  0
LINE
  8
0
 10
266.917
 20
-38.8217
 11
267.035
 21
-39.0397
  0
LINE
  8
0
 10
267.035
 20
-39.0397
 11
267.128
 21
-39.2694
  0
LINE
  8
0
 10
267.128
 20
-39.2694
 11
267.196
 21
-39.508
  0
LINE
  8
0
 10
267.196
 20
-39.508
 11
267.236
 21
-39.7525
  0
LINE
  8
0
 10
267.236
 20
-39.7525
 11
267.25
 21
-40
  0
LINE
  8
0
 10
267.25
 20
-40
 11
267.236
 21
-40.2475
  0
LINE
  8
0
 10
267.236
 20
-40.2475
 11
267.196
 21
-40.492
  0
LINE
  8
0
 10
267.196
 20
-40.492
 11
267.128
 21
-40.7306
  0
LINE
  8
0
 10
267.128
 20
-40.7306
 11
267.035
 21
-40.9602
  0
LINE
  8
0
 10
267.035
 20
-40.9602
 11
266.917
 21
-41.1783
  0
LINE
  8
0
 10
266.917
 20
-41.1783
 11
266.776
 21
-41.382
  0
LINE
  8
0
 10
266.776
 20
-41.382
 11
266.613
 21
-41.5689
  0
LINE
  8
0
 10
266.613
 20
-41.5689
 11
266.43
 21
-41.7368
  0
LINE
  8
0
 10
266.43
 20
-41.7368
 11
266.231
 21
-41.8836
  0
LINE
  8
0
 10
266.231
 20
-41.8836
 11
266.016
 21
-42.0076
  0
LINE
  8
0
 10
266.016
 20
-42.0076
 11
265.789
 21
-42.1071
  0
LINE
  8
0
 10
265.789
 20
-42.1071
 11
265.552
 21
-42.1812
  0
LINE
  8
0
 10
265.552
 20
-42.1812
 11
265.309
 21
-42.2287
  0
LINE
  8
0
 10
265.309
 20
-42.2287
 11
265.062
 21
-42.2491
  0
LINE
  8
0
 10
265.062
 20
-42.2491
 11
264.814
 21
-42.2423
  0
LINE
  8
0
 10
-265.523
 20
-84.9726
 11
-266.04
 21
-84.8907
  0
LINE
  8
0
 10
-266.04
 20
-84.8907
 11
-266.545
 21
-84.7553
  0
LINE
  8
0
 10
-266.545
 20
-84.7553
 11
-267.034
 21
-84.5677
  0
LINE
  8
0
 10
-267.034
 20
-84.5677
 11
-267.5
 21
-84.3301
  0
LINE
  8
0
 10
-267.5
 20
-84.3301
 11
-267.939
 21
-84.0451
  0
LINE
  8
0
 10
-267.939
 20
-84.0451
 11
-268.346
 21
-83.7157
  0
LINE
  8
0
 10
-268.346
 20
-83.7157
 11
-268.716
 21
-83.3456
  0
LINE
  8
0
 10
-268.716
 20
-83.3456
 11
-269.045
 21
-82.9389
  0
LINE
  8
0
 10
-269.045
 20
-82.9389
 11
-269.33
 21
-82.5
  0
LINE
  8
0
 10
-269.33
 20
-82.5
 11
-269.568
 21
-82.0337
  0
LINE
  8
0
 10
-269.568
 20
-82.0337
 11
-269.755
 21
-81.5451
  0
LINE
  8
0
 10
-269.755
 20
-81.5451
 11
-269.891
 21
-81.0396
  0
LINE
  8
0
 10
-269.891
 20
-81.0396
 11
-269.973
 21
-80.5226
  0
LINE
  8
0
 10
-269.973
 20
-80.5226
 11
-270
 21
-80
  0
LINE
  8
0
 10
-270
 20
-80
 11
-269.973
 21
-79.4774
  0
LINE
  8
0
 10
-269.973
 20
-79.4774
 11
-269.891
 21
-78.9604
  0
LINE
  8
0
 10
-269.891
 20
-78.9604
 11
-269.755
 21
-78.4549
  0
LINE
  8
0
 10
-269.755
 20
-78.4549
 11
-269.568
 21
-77.9663
  0
LINE
  8
0
 10
-269.568
 20
-77.9663
 11
-269.33
 21
-77.5
  0
LINE
  8
0
 10
-269.33
 20
-77.5
 11
-269.045
 21
-77.0611
  0
LINE
  8
0
 10
-269.045
 20
-77.0611
 11
-268.716
 21
-76.6543
  0
LINE
  8
0
 10
-268.716
 20
-76.6543
 11
-268.346
 21
-76.2843
  0
LINE
  8
0
 10
-268.346
 20
-76.2843
 11
-267.939
 21
-75.9549
  0
LINE
  8
0
 10
-267.939
 20
-75.9549
 11
-267.5
 21
-75.6699
  0
LINE
  8
0
 10
-267.5
 20
-75.6699
 11
-267.034
 21
-75.4323
  0
LINE
  8
0
 10
-267.034
 20
-75.4323
 11
-266.545
 21
-75.2447
  0
LINE
  8
0
 10
-266.545
 20
-75.2447
 11
-266.04
 21
-75.1093
  0
LINE
  8
0
 10
-266.04
 20
-75.1093
 11
-265.523
 21
-75.0274
  0
LINE
  8
0
 10
-265.523
 20
-75.0274
 11
-265
 21
-75
  0
LINE
  8
0
 10
-265
 20
-75
 11
-264.477
 21
-75.0274
  0
LINE
  8
0
 10
-264.477
 20
-75.0274
 11
-263.96
 21
-75.1093
  0
LINE
  8
0
 10
-263.96
 20
-75.1093
 11
-263.455
 21
-75.2447
  0
LINE
  8
0
 10
-263.455
 20
-75.2447
 11
-262.966
 21
-75.4323
  0
LINE
  8
0
 10
-262.966
 20
-75.4323
 11
-262.5
 21
-75.6699
  0
LINE
  8
0
 10
-262.5
 20
-75.6699
 11
-262.061
 21
-75.9549
  0
LINE
  8
0
 10
-262.061
 20
-75.9549
 11
-261.654
 21
-76.2843
  0
LINE
  8
0
 10
-261.654
 20
-76.2843
 11
-261.284
 21
-76.6543
  0
LINE
  8
0
 10
-261.284
 20
-76.6543
 11
-260.955
 21
-77.0611
  0
LINE
  8
0
 10
-260.955
 20
-77.0611
 11
-260.67
 21
-77.5
  0
LINE
  8
0
 10
-260.67
 20
-77.5
 11
-260.432
 21
-77.9663
  0
LINE
  8
0
 10
-260.432
 20
-77.9663
 11
-260.245
 21
-78.4549
  0
LINE
  8
0
 10
-260.245
 20
-78.4549
 11
-260.109
 21
-78.9604
  0
LINE
  8
0
 10
-260.109
 20
-78.9604
 11
-260.027
 21
-79.4774
  0
LINE
  8
0
 10
-260.027
 20
-79.4774
 11
-260
 21
-80
  0
LINE
  8
0
 10
-260
 20
-80
 11
-260.027
 21
-80.5226
  0
LINE
  8
0
 10
-260.027
 20
-80.5226
 11
-260.109
 21
-81.0396
  0
LINE
  8
0
 10
-260.109
 20
-81.0396
 11
-260.245
 21
-81.5451
  0
LINE
  8
0
 10
-260.245
 20
-81.5451
 11
-260.432
 21
-82.0337
  0
LINE
  8
0
 10
-260.432
 20
-82.0337
 11
-260.67
 21
-82.5
  0
LINE
  8
0
 10
-260.67
 20
-82.5
 11
-260.955
 21
-82.9389
  0
LINE
  8
0
 10
-260.955
 20
-82.9389
 11
-261.284
 21
-83.3456
  0
LINE
  8
0
 10
-261.284
 20
-83.3456
 11
-261.654
 21
-83.7157
  0
LINE
  8
0
 10
-261.654
 20
-83.7157
 11
-262.061
 21
-84.0451
  0
LINE
  8
0
 10
-262.061
 20
-84.0451
 11
-262.5
 21
-84.3301
  0
LINE
  8
0
 10
-262.5
 20
-84.3301
 11
-262.966
 21
-84.5677
  0
LINE
  8
0
 10
-262.966
 20
-84.5677
 11
-263.455
 21
-84.7553
  0
LINE
  8
0
 10
-263.455
 20
-84.7553
 11
-263.96
 21
-84.8907
  0
LINE
  8
0
 10
-263.96
 20
-84.8907
 11
-264.477
 21
-84.9726
  0
LINE
  8
0
 10
-264.477
 20
-84.9726
 11
-265
 21
-85
  0
LINE
  8
0
 10
-265
 20
-85
 11
-265.523
 21
-84.9726
  0
LINE
  8
0
 10
264.477
 20
-84.9726
 11
263.96
 21
-84.8907
  0
LINE
  8
0
 10
263.96
 20
-84.8907
 11
263.455
 21
-84.7553
  0
LINE
  8
0
 10
263.455
 20
-84.7553
 11
262.966
 21
-84.5677
  0
LINE
  8
0
 10
262.966
 20
-84.5677
 11
262.5
 21
-84.3301
  0
LINE
  8
0
 10
262.5
 20
-84.3301
 11
262.061
 21
-84.0451
  0
LINE
  8
0
 10
262.061
 20
-84.0451
 11
261.654
 21
-83.7157
  0
LINE
  8
0
 10
261.654
 20
-83.7157
 11
261.284
 21
-83.3456
  0
LINE
  8
0
 10
261.284
 20
-83.3456
 11
260.955
 21
-82.9389
  0
LINE
  8
0
 10
260.955
 20
-82.9389
 11
260.67
 21
-82.5
  0
LINE
  8
0
 10
260.67
 20
-82.5
 11
260.432
 21
-82.0337
  0
LINE
  8
0
 10
260.432
 20
-82.0337
 11
260.245
 21
-81.5451
  0
LINE
  8
0
 10
260.245
 20
-81.5451
 11
260.109
 21
-81.0396
  0
LINE
  8
0
 10
260.109
 20
-81.0396
 11
260.027
 21
-80.5226
  0
LINE
  8
0
 10
260.027
 20
-80.5226
 11
260
 21
-80
  0
LINE
  8
0
 10
260
 20
-80
 11
260.027
 21
-79.4774
  0
LINE
  8
0
 10
260.027
 20
-79.4774
 11
260.109
 21
-78.9604
  0
LINE
  8
0
 10
260.109
 20
-78.9604
 11
260.245
 21
-78.4549
  0
LINE
  8
0
 10
260.245
 20
-78.4549
 11
260.432
 21
-77.9663
  0
LINE
  8
0
 10
260.432
 20
-77.9663
 11
260.67
 21
-77.5
  0
LINE
  8
0
 10
260.67
 20
-77.5
 11
260.955
 21
-77.0611
  0
LINE
  8
0
 10
260.955
 20
-77.0611
 11
261.284
 21
-76.6543
  0
LINE
  8
0
 10
261.284
 20
-76.6543
 11
261.654
 21
-76.2843
  0
LINE
  8
0
 10
261.654
 20
-76.2843
 11
262.061
 21
-75.9549
  0
LINE
  8
0
 10
262.061
 20
-75.9549
 11
262.5
 21
-75.6699
  0
LINE
  8
0
 10
262.5
 20
-75.6699
 11
262.966
 21
-75.4323
  0
LINE
  8
0
 10
262.966
 20
-75.4323
 11
263.455
 21
-75.2447
  0
LINE
  8
0
 10
263.455
 20
-75.2447
 11
263.96
 21
-75.1093
  0
LINE
  8
0
 10
263.96
 20
-75.1093
 11
264.477
 21
-75.0274
  0
LINE
  8
0
 10
264.477
 20
-75.0274
 11
265
 21
-75
  0
LINE
  8
0
 10
265
 20
-75
 11
265.523
 21
-75.0274
  0
LINE
  8
0
 10
265.523
 20
-75.0274
 11
266.04
 21
-75.1093
  0
LINE
  8
0
 10
266.04
 20
-75.1093
 11
266.545
 21
-75.2447
  0
LINE
  8
0
 10
266.545
 20
-75.2447
 11
267.034
 21
-75.4323
  0
LINE
  8
0
 10
267.034
 20
-75.4323
 11
267.5
 21
-75.6699
  0
LINE
  8
0
 10
267.5
 20
-75.6699
 11
267.939
 21
-75.9549
  0
LINE
  8
0
 10
267.939
 20
-75.9549
 11
268.346
 21
-76.2843
  0
LINE
  8
0
 10
268.346
 20
-76.2843
 11
268.716
 21
-76.6543
  0
LINE
  8
0
 10
268.716
 20
-76.6543
 11
269.045
 21
-77.0611
  0
LINE
  8
0
 10
269.045
 20
-77.0611
 11
269.33
 21
-77.5
  0
LINE
  8
0
 10
269.33
 20
-77.5
 11
269.568
 21
-77.9663
  0
LINE
  8
0
 10
269.568
 20
-77.9663
 11
269.755
 21
-78.4549
  0
LINE
  8
0
 10
269.755
 20
-78.4549
 11
269.891
 21
-78.9604
  0
LINE
  8
0
 10
269.891
 20
-78.9604
 11
269.973
 21
-79.4774
  0
LINE
  8
0
 10
269.973
 20
-79.4774
 11
270
 21
-80
  0
LINE
  8
0
 10
270
 20
-80
 11
269.973
 21
-80.5226
  0
LINE
  8
0
 10
269.973
 20
-80.5226
 11
269.891
 21
-81.0396
  0
LINE
  8
0
 10
269.891
 20
-81.0396
 11
269.755
 21
-81.5451
  0
LINE
  8
0
 10
269.755
 20
-81.5451
 11
269.568
 21
-82.0337
  0
LINE
  8
0
 10
269.568
 20
-82.0337
 11
269.33
 21
-82.5
  0
LINE
  8
0
 10
269.33
 20
-82.5
 11
269.045
 21
-82.9389
  0
LINE
  8
0
 10
269.045
 20
-82.9389
 11
268.716
 21
-83.3456
  0
LINE
  8
0
 10
268.716
 20
-83.3456
 11
268.346
 21
-83.7157
  0
LINE
  8
0
 10
268.346
 20
-83.7157
 11
267.939
 21
-84.0451
  0
LINE
  8
0
 10
267.939
 20
-84.0451
 11
267.5
 21
-84.3301
  0
LINE
  8
0
 10
267.5
 20
-84.3301
 11
267.034
 21
-84.5677
  0
LINE
  8
0
 10
267.034
 20
-84.5677
 11
266.545
 21
-84.7553
  0
LINE
  8
0
 10
266.545
 20
-84.7553
 11
266.04
 21
-84.8907
  0
LINE
  8
0
 10
266.04
 20
-84.8907
 11
265.523
 21
-84.9726
  0
LINE
  8
0
 10
265.523
 20
-84.9726
 11
265
 21
-85
  0
LINE
  8
0
 10
265
 20
-85
 11
264.477
 21
-84.9726
  0
ENDSEC
  0
SECTION
  2
OBJECTS
  0
DICTIONARY
  0
ENDSEC
  0
EOF
