  0
SECTION
  2
BLOCKS
  0
ENDSEC
  0
SECTION
  2
ENTITIES
  0
LINE
  8
0
 10
192.838
 20
-175.298
 11
194.286
 21
-175.069
  0
LINE
  8
0
 10
194.286
 20
-175.069
 11
195.701
 21
-174.69
  0
LINE
  8
0
 10
195.701
 20
-174.69
 11
197.069
 21
-174.165
  0
LINE
  8
0
 10
197.069
 20
-174.165
 11
198.375
 21
-173.499
  0
LINE
  8
0
 10
198.375
 20
-173.499
 11
199.604
 21
-172.701
  0
LINE
  8
0
 10
199.604
 20
-172.701
 11
200.743
 21
-171.779
  0
LINE
  8
0
 10
200.743
 20
-171.779
 11
201.779
 21
-170.743
  0
LINE
  8
0
 10
201.779
 20
-170.743
 11
202.701
 21
-169.604
  0
LINE
  8
0
 10
202.701
 20
-169.604
 11
203.499
 21
-168.375
  0
LINE
  8
0
 10
203.499
 20
-168.375
 11
204.165
 21
-167.069
  0
LINE
  8
0
 10
204.165
 20
-167.069
 11
204.69
 21
-165.701
  0
LINE
  8
0
 10
204.69
 20
-165.701
 11
205.069
 21
-164.286
  0
LINE
  8
0
 10
205.069
 20
-164.286
 11
205.298
 21
-162.838
  0
LINE
  8
0
 10
205.298
 20
-162.838
 11
205.375
 21
-161.375
  0
LINE
  8
0
 10
205.375
 20
-161.375
 11
205.375
 21
161.375
  0
LINE
  8
0
 10
205.375
 20
161.375
 11
205.298
 21
162.838
  0
LINE
  8
0
 10
205.298
 20
162.838
 11
205.069
 21
164.286
  0
LINE
  8
0
 10
205.069
 20
164.286
 11
204.69
 21
165.701
  0
LINE
  8
0
 10
204.69
 20
165.701
 11
204.165
 21
167.069
  0
LINE
  8
0
 10
204.165
 20
167.069
 11
203.499
 21
168.375
  0
LINE
  8
0
 10
203.499
 20
168.375
 11
202.701
 21
169.604
  0
LINE
  8
0
 10
202.701
 20
169.604
 11
201.779
 21
170.743
  0
LINE
  8
0
 10
201.779
 20
170.743
 11
200.743
 21
171.779
  0
LINE
  8
0
 10
200.743
 20
171.779
 11
199.604
 21
172.701
  0
LINE
  8
0
 10
199.604
 20
172.701
 11
198.375
 21
173.499
  0
LINE
  8
0
 10
198.375
 20
173.499
 11
197.069
 21
174.165
  0
LINE
  8
0
 10
197.069
 20
174.165
 11
195.701
 21
174.69
  0
LINE
  8
0
 10
195.701
 20
174.69
 11
194.286
 21
175.069
  0
LINE
  8
0
 10
194.286
 20
175.069
 11
192.838
 21
175.298
  0
LINE
  8
0
 10
192.838
 20
175.298
 11
191.375
 21
175.375
  0
LINE
  8
0
 10
191.375
 20
175.375
 11
-191.375
 21
175.375
  0
LINE
  8
0
 10
-191.375
 20
175.375
 11
-192.838
 21
175.298
  0
LINE
  8
0
 10
-192.838
 20
175.298
 11
-194.286
 21
175.069
  0
LINE
  8
0
 10
-194.286
 20
175.069
 11
-195.701
 21
174.69
  0
LINE
  8
0
 10
-195.701
 20
174.69
 11
-197.069
 21
174.165
  0
LINE
  8
0
 10
-197.069
 20
174.165
 11
-198.375
 21
173.499
  0
LINE
  8
0
 10
-198.375
 20
173.499
 11
-199.604
 21
172.701
  0
LINE
  8
0
 10
-199.604
 20
172.701
 11
-200.743
 21
171.779
  0
LINE
  8
0
 10
-200.743
 20
171.779
 11
-201.779
 21
170.743
  0
LINE
  8
0
 10
-201.779
 20
170.743
 11
-202.701
 21
169.604
  0
LINE
  8
0
 10
-202.701
 20
169.604
 11
-203.499
 21
168.375
  0
LINE
  8
0
 10
-203.499
 20
168.375
 11
-204.165
 21
167.069
  0
LINE
  8
0
 10
-204.165
 20
167.069
 11
-204.69
 21
165.701
  0
LINE
  8
0
 10
-204.69
 20
165.701
 11
-205.069
 21
164.286
  0
LINE
  8
0
 10
-205.069
 20
164.286
 11
-205.298
 21
162.838
  0
LINE
  8
0
 10
-205.298
 20
162.838
 11
-205.375
 21
161.375
  0
LINE
  8
0
 10
-205.375
 20
161.375
 11
-205.375
 21
-161.375
  0
LINE
  8
0
 10
-205.375
 20
-161.375
 11
-205.298
 21
-162.838
  0
LINE
  8
0
 10
-205.298
 20
-162.838
 11
-205.069
 21
-164.286
  0
LINE
  8
0
 10
-205.069
 20
-164.286
 11
-204.69
 21
-165.701
  0
LINE
  8
0
 10
-204.69
 20
-165.701
 11
-204.165
 21
-167.069
  0
LINE
  8
0
 10
-204.165
 20
-167.069
 11
-203.499
 21
-168.375
  0
LINE
  8
0
 10
-203.499
 20
-168.375
 11
-202.701
 21
-169.604
  0
LINE
  8
0
 10
-202.701
 20
-169.604
 11
-201.779
 21
-170.743
  0
LINE
  8
0
 10
-201.779
 20
-170.743
 11
-200.743
 21
-171.779
  0
LINE
  8
0
 10
-200.743
 20
-171.779
 11
-199.604
 21
-172.701
  0
LINE
  8
0
 10
-199.604
 20
-172.701
 11
-198.375
 21
-173.499
  0
LINE
  8
0
 10
-198.375
 20
-173.499
 11
-197.069
 21
-174.165
  0
LINE
  8
0
 10
-197.069
 20
-174.165
 11
-195.701
 21
-174.69
  0
LINE
  8
0
 10
-195.701
 20
-174.69
 11
-194.286
 21
-175.069
  0
LINE
  8
0
 10
-194.286
 20
-175.069
 11
-192.838
 21
-175.298
  0
LINE
  8
0
 10
-192.838
 20
-175.298
 11
-191.375
 21
-175.375
  0
LINE
  8
0
 10
-191.375
 20
-175.375
 11
191.375
 21
-175.375
  0
LINE
  8
0
 10
191.375
 20
-175.375
 11
192.838
 21
-175.298
  0
LINE
  8
0
 10
185.252
 20
153.138
 11
185.006
 21
153.177
  0
LINE
  8
0
 10
185.006
 20
153.177
 11
184.766
 21
153.241
  0
LINE
  8
0
 10
184.766
 20
153.241
 11
184.534
 21
153.33
  0
LINE
  8
0
 10
184.534
 20
153.33
 11
184.312
 21
153.443
  0
LINE
  8
0
 10
184.312
 20
153.443
 11
184.104
 21
153.579
  0
LINE
  8
0
 10
184.104
 20
153.579
 11
183.911
 21
153.735
  0
LINE
  8
0
 10
183.911
 20
153.735
 11
183.735
 21
153.911
  0
LINE
  8
0
 10
183.735
 20
153.911
 11
183.579
 21
154.104
  0
LINE
  8
0
 10
183.579
 20
154.104
 11
183.443
 21
154.312
  0
LINE
  8
0
 10
183.443
 20
154.312
 11
183.33
 21
154.534
  0
LINE
  8
0
 10
183.33
 20
154.534
 11
183.241
 21
154.766
  0
LINE
  8
0
 10
183.241
 20
154.766
 11
183.177
 21
155.006
  0
LINE
  8
0
 10
183.177
 20
155.006
 11
183.138
 21
155.252
  0
LINE
  8
0
 10
183.138
 20
155.252
 11
183.125
 21
155.5
  0
LINE
  8
0
 10
183.125
 20
155.5
 11
183.138
 21
155.748
  0
LINE
  8
0
 10
183.138
 20
155.748
 11
183.177
 21
155.994
  0
LINE
  8
0
 10
183.177
 20
155.994
 11
183.241
 21
156.234
  0
LINE
  8
0
 10
183.241
 20
156.234
 11
183.33
 21
156.466
  0
LINE
  8
0
 10
183.33
 20
156.466
 11
183.443
 21
156.688
  0
LINE
  8
0
 10
183.443
 20
156.688
 11
183.579
 21
156.896
  0
LINE
  8
0
 10
183.579
 20
156.896
 11
183.735
 21
157.089
  0
LINE
  8
0
 10
183.735
 20
157.089
 11
183.911
 21
157.265
  0
LINE
  8
0
 10
183.911
 20
157.265
 11
184.104
 21
157.421
  0
LINE
  8
0
 10
184.104
 20
157.421
 11
184.312
 21
157.557
  0
LINE
  8
0
 10
184.312
 20
157.557
 11
184.534
 21
157.67
  0
LINE
  8
0
 10
184.534
 20
157.67
 11
184.766
 21
157.759
  0
LINE
  8
0
 10
184.766
 20
157.759
 11
185.006
 21
157.823
  0
LINE
  8
0
 10
185.006
 20
157.823
 11
185.252
 21
157.862
  0
LINE
  8
0
 10
185.252
 20
157.862
 11
185.5
 21
157.875
  0
LINE
  8
0
 10
185.5
 20
157.875
 11
185.748
 21
157.862
  0
LINE
  8
0
 10
185.748
 20
157.862
 11
185.994
 21
157.823
  0
LINE
  8
0
 10
185.994
 20
157.823
 11
186.234
 21
157.759
  0
LINE
  8
0
 10
186.234
 20
157.759
 11
186.466
 21
157.67
  0
LINE
  8
0
 10
186.466
 20
157.67
 11
186.688
 21
157.557
  0
LINE
  8
0
 10
186.688
 20
157.557
 11
186.896
 21
157.421
  0
LINE
  8
0
 10
186.896
 20
157.421
 11
187.089
 21
157.265
  0
LINE
  8
0
 10
187.089
 20
157.265
 11
187.265
 21
157.089
  0
LINE
  8
0
 10
187.265
 20
157.089
 11
187.421
 21
156.896
  0
LINE
  8
0
 10
187.421
 20
156.896
 11
187.557
 21
156.688
  0
LINE
  8
0
 10
187.557
 20
156.688
 11
187.67
 21
156.466
  0
LINE
  8
0
 10
187.67
 20
156.466
 11
187.759
 21
156.234
  0
LINE
  8
0
 10
187.759
 20
156.234
 11
187.823
 21
155.994
  0
LINE
  8
0
 10
187.823
 20
155.994
 11
187.862
 21
155.748
  0
LINE
  8
0
 10
187.862
 20
155.748
 11
187.875
 21
155.5
  0
LINE
  8
0
 10
187.875
 20
155.5
 11
187.862
 21
155.252
  0
LINE
  8
0
 10
187.862
 20
155.252
 11
187.823
 21
155.006
  0
LINE
  8
0
 10
187.823
 20
155.006
 11
187.759
 21
154.766
  0
LINE
  8
0
 10
187.759
 20
154.766
 11
187.67
 21
154.534
  0
LINE
  8
0
 10
187.67
 20
154.534
 11
187.557
 21
154.312
  0
LINE
  8
0
 10
187.557
 20
154.312
 11
187.421
 21
154.104
  0
LINE
  8
0
 10
187.421
 20
154.104
 11
187.265
 21
153.911
  0
LINE
  8
0
 10
187.265
 20
153.911
 11
187.089
 21
153.735
  0
LINE
  8
0
 10
187.089
 20
153.735
 11
186.896
 21
153.579
  0
LINE
  8
0
 10
186.896
 20
153.579
 11
186.688
 21
153.443
  0
LINE
  8
0
 10
186.688
 20
153.443
 11
186.466
 21
153.33
  0
LINE
  8
0
 10
186.466
 20
153.33
 11
186.234
 21
153.241
  0
LINE
  8
0
 10
186.234
 20
153.241
 11
185.994
 21
153.177
  0
LINE
  8
0
 10
185.994
 20
153.177
 11
185.748
 21
153.138
  0
LINE
  8
0
 10
185.748
 20
153.138
 11
185.5
 21
153.125
  0
LINE
  8
0
 10
185.5
 20
153.125
 11
185.252
 21
153.138
  0
LINE
  8
0
 10
-185.748
 20
153.138
 11
-185.994
 21
153.177
  0
LINE
  8
0
 10
-185.994
 20
153.177
 11
-186.234
 21
153.241
  0
LINE
  8
0
 10
-186.234
 20
153.241
 11
-186.466
 21
153.33
  0
LINE
  8
0
 10
-186.466
 20
153.33
 11
-186.688
 21
153.443
  0
LINE
  8
0
 10
-186.688
 20
153.443
 11
-186.896
 21
153.579
  0
LINE
  8
0
 10
-186.896
 20
153.579
 11
-187.089
 21
153.735
  0
LINE
  8
0
 10
-187.089
 20
153.735
 11
-187.265
 21
153.911
  0
LINE
  8
0
 10
-187.265
 20
153.911
 11
-187.421
 21
154.104
  0
LINE
  8
0
 10
-187.421
 20
154.104
 11
-187.557
 21
154.312
  0
LINE
  8
0
 10
-187.557
 20
154.312
 11
-187.67
 21
154.534
  0
LINE
  8
0
 10
-187.67
 20
154.534
 11
-187.759
 21
154.766
  0
LINE
  8
0
 10
-187.759
 20
154.766
 11
-187.823
 21
155.006
  0
LINE
  8
0
 10
-187.823
 20
155.006
 11
-187.862
 21
155.252
  0
LINE
  8
0
 10
-187.862
 20
155.252
 11
-187.875
 21
155.5
  0
LINE
  8
0
 10
-187.875
 20
155.5
 11
-187.862
 21
155.748
  0
LINE
  8
0
 10
-187.862
 20
155.748
 11
-187.823
 21
155.994
  0
LINE
  8
0
 10
-187.823
 20
155.994
 11
-187.759
 21
156.234
  0
LINE
  8
0
 10
-187.759
 20
156.234
 11
-187.67
 21
156.466
  0
LINE
  8
0
 10
-187.67
 20
156.466
 11
-187.557
 21
156.688
  0
LINE
  8
0
 10
-187.557
 20
156.688
 11
-187.421
 21
156.896
  0
LINE
  8
0
 10
-187.421
 20
156.896
 11
-187.265
 21
157.089
  0
LINE
  8
0
 10
-187.265
 20
157.089
 11
-187.089
 21
157.265
  0
LINE
  8
0
 10
-187.089
 20
157.265
 11
-186.896
 21
157.421
  0
LINE
  8
0
 10
-186.896
 20
157.421
 11
-186.688
 21
157.557
  0
LINE
  8
0
 10
-186.688
 20
157.557
 11
-186.466
 21
157.67
  0
LINE
  8
0
 10
-186.466
 20
157.67
 11
-186.234
 21
157.759
  0
LINE
  8
0
 10
-186.234
 20
157.759
 11
-185.994
 21
157.823
  0
LINE
  8
0
 10
-185.994
 20
157.823
 11
-185.748
 21
157.862
  0
LINE
  8
0
 10
-185.748
 20
157.862
 11
-185.5
 21
157.875
  0
LINE
  8
0
 10
-185.5
 20
157.875
 11
-185.252
 21
157.862
  0
LINE
  8
0
 10
-185.252
 20
157.862
 11
-185.006
 21
157.823
  0
LINE
  8
0
 10
-185.006
 20
157.823
 11
-184.766
 21
157.759
  0
LINE
  8
0
 10
-184.766
 20
157.759
 11
-184.534
 21
157.67
  0
LINE
  8
0
 10
-184.534
 20
157.67
 11
-184.312
 21
157.557
  0
LINE
  8
0
 10
-184.312
 20
157.557
 11
-184.104
 21
157.421
  0
LINE
  8
0
 10
-184.104
 20
157.421
 11
-183.911
 21
157.265
  0
LINE
  8
0
 10
-183.911
 20
157.265
 11
-183.735
 21
157.089
  0
LINE
  8
0
 10
-183.735
 20
157.089
 11
-183.579
 21
156.896
  0
LINE
  8
0
 10
-183.579
 20
156.896
 11
-183.443
 21
156.688
  0
LINE
  8
0
 10
-183.443
 20
156.688
 11
-183.33
 21
156.466
  0
LINE
  8
0
 10
-183.33
 20
156.466
 11
-183.241
 21
156.234
  0
LINE
  8
0
 10
-183.241
 20
156.234
 11
-183.177
 21
155.994
  0
LINE
  8
0
 10
-183.177
 20
155.994
 11
-183.138
 21
155.748
  0
LINE
  8
0
 10
-183.138
 20
155.748
 11
-183.125
 21
155.5
  0
LINE
  8
0
 10
-183.125
 20
155.5
 11
-183.138
 21
155.252
  0
LINE
  8
0
 10
-183.138
 20
155.252
 11
-183.177
 21
155.006
  0
LINE
  8
0
 10
-183.177
 20
155.006
 11
-183.241
 21
154.766
  0
LINE
  8
0
 10
-183.241
 20
154.766
 11
-183.33
 21
154.534
  0
LINE
  8
0
 10
-183.33
 20
154.534
 11
-183.443
 21
154.312
  0
LINE
  8
0
 10
-183.443
 20
154.312
 11
-183.579
 21
154.104
  0
LINE
  8
0
 10
-183.579
 20
154.104
 11
-183.735
 21
153.911
  0
LINE
  8
0
 10
-183.735
 20
153.911
 11
-183.911
 21
153.735
  0
LINE
  8
0
 10
-183.911
 20
153.735
 11
-184.104
 21
153.579
  0
LINE
  8
0
 10
-184.104
 20
153.579
 11
-184.312
 21
153.443
  0
LINE
  8
0
 10
-184.312
 20
153.443
 11
-184.534
 21
153.33
  0
LINE
  8
0
 10
-184.534
 20
153.33
 11
-184.766
 21
153.241
  0
LINE
  8
0
 10
-184.766
 20
153.241
 11
-185.006
 21
153.177
  0
LINE
  8
0
 10
-185.006
 20
153.177
 11
-185.252
 21
153.138
  0
LINE
  8
0
 10
-185.252
 20
153.138
 11
-185.5
 21
153.125
  0
LINE
  8
0
 10
-185.5
 20
153.125
 11
-185.748
 21
153.138
  0
LINE
  8
0
 10
59.8761
 20
96.0051
 11
59.6318
 21
96.0459
  0
LINE
  8
0
 10
59.6318
 20
96.0459
 11
59.3974
 21
96.1263
  0
LINE
  8
0
 10
59.3974
 20
96.1263
 11
59.1796
 21
96.2442
  0
LINE
  8
0
 10
59.1796
 20
96.2442
 11
58.9841
 21
96.3964
  0
LINE
  8
0
 10
58.9841
 20
96.3964
 11
58.8163
 21
96.5787
  0
LINE
  8
0
 10
58.8163
 20
96.5787
 11
58.6808
 21
96.7861
  0
LINE
  8
0
 10
58.6808
 20
96.7861
 11
58.5813
 21
97.0129
  0
LINE
  8
0
 10
58.5813
 20
97.0129
 11
58.5204
 21
97.2531
  0
LINE
  8
0
 10
58.5204
 20
97.2531
 11
58.5
 21
97.5
  0
LINE
  8
0
 10
58.5
 20
97.5
 11
58.5204
 21
97.7469
  0
LINE
  8
0
 10
58.5204
 20
97.7469
 11
58.5813
 21
97.987
  0
LINE
  8
0
 10
58.5813
 20
97.987
 11
58.6808
 21
98.2139
  0
LINE
  8
0
 10
58.6808
 20
98.2139
 11
58.8163
 21
98.4213
  0
LINE
  8
0
 10
58.8163
 20
98.4213
 11
58.9841
 21
98.6036
  0
LINE
  8
0
 10
58.9841
 20
98.6036
 11
59.1796
 21
98.7558
  0
LINE
  8
0
 10
59.1796
 20
98.7558
 11
59.3974
 21
98.8737
  0
LINE
  8
0
 10
59.3974
 20
98.8737
 11
59.6318
 21
98.9541
  0
LINE
  8
0
 10
59.6318
 20
98.9541
 11
59.8761
 21
98.9949
  0
LINE
  8
0
 10
59.8761
 20
98.9949
 11
138.124
 21
98.9949
  0
LINE
  8
0
 10
138.124
 20
98.9949
 11
138.368
 21
98.9541
  0
LINE
  8
0
 10
138.368
 20
98.9541
 11
138.603
 21
98.8737
  0
LINE
  8
0
 10
138.603
 20
98.8737
 11
138.82
 21
98.7558
  0
LINE
  8
0
 10
138.82
 20
98.7558
 11
139.016
 21
98.6036
  0
LINE
  8
0
 10
139.016
 20
98.6036
 11
139.184
 21
98.4213
  0
LINE
  8
0
 10
139.184
 20
98.4213
 11
139.319
 21
98.2139
  0
LINE
  8
0
 10
139.319
 20
98.2139
 11
139.419
 21
97.987
  0
LINE
  8
0
 10
139.419
 20
97.987
 11
139.48
 21
97.7469
  0
LINE
  8
0
 10
139.48
 20
97.7469
 11
139.5
 21
97.5
  0
LINE
  8
0
 10
139.5
 20
97.5
 11
139.48
 21
97.2531
  0
LINE
  8
0
 10
139.48
 20
97.2531
 11
139.419
 21
97.0129
  0
LINE
  8
0
 10
139.419
 20
97.0129
 11
139.319
 21
96.7861
  0
LINE
  8
0
 10
139.319
 20
96.7861
 11
139.184
 21
96.5787
  0
LINE
  8
0
 10
139.184
 20
96.5787
 11
139.016
 21
96.3964
  0
LINE
  8
0
 10
139.016
 20
96.3964
 11
138.82
 21
96.2442
  0
LINE
  8
0
 10
138.82
 20
96.2442
 11
138.603
 21
96.1263
  0
LINE
  8
0
 10
138.603
 20
96.1263
 11
138.368
 21
96.0459
  0
LINE
  8
0
 10
138.368
 20
96.0459
 11
138.124
 21
96.0051
  0
LINE
  8
0
 10
138.124
 20
96.0051
 11
59.8761
 21
96.0051
  0
LINE
  8
0
 10
59.8761
 20
88.5051
 11
59.6318
 21
88.5459
  0
LINE
  8
0
 10
59.6318
 20
88.5459
 11
59.3974
 21
88.6263
  0
LINE
  8
0
 10
59.3974
 20
88.6263
 11
59.1796
 21
88.7442
  0
LINE
  8
0
 10
59.1796
 20
88.7442
 11
58.9841
 21
88.8964
  0
LINE
  8
0
 10
58.9841
 20
88.8964
 11
58.8163
 21
89.0787
  0
LINE
  8
0
 10
58.8163
 20
89.0787
 11
58.6808
 21
89.2861
  0
LINE
  8
0
 10
58.6808
 20
89.2861
 11
58.5813
 21
89.5129
  0
LINE
  8
0
 10
58.5813
 20
89.5129
 11
58.5204
 21
89.7531
  0
LINE
  8
0
 10
58.5204
 20
89.7531
 11
58.5
 21
90
  0
LINE
  8
0
 10
58.5
 20
90
 11
58.5204
 21
90.2469
  0
LINE
  8
0
 10
58.5204
 20
90.2469
 11
58.5813
 21
90.487
  0
LINE
  8
0
 10
58.5813
 20
90.487
 11
58.6808
 21
90.7139
  0
LINE
  8
0
 10
58.6808
 20
90.7139
 11
58.8163
 21
90.9213
  0
LINE
  8
0
 10
58.8163
 20
90.9213
 11
58.9841
 21
91.1036
  0
LINE
  8
0
 10
58.9841
 20
91.1036
 11
59.1796
 21
91.2558
  0
LINE
  8
0
 10
59.1796
 20
91.2558
 11
59.3974
 21
91.3737
  0
LINE
  8
0
 10
59.3974
 20
91.3737
 11
59.6318
 21
91.4541
  0
LINE
  8
0
 10
59.6318
 20
91.4541
 11
59.8761
 21
91.4949
  0
LINE
  8
0
 10
59.8761
 20
91.4949
 11
138.124
 21
91.4949
  0
LINE
  8
0
 10
138.124
 20
91.4949
 11
138.368
 21
91.4541
  0
LINE
  8
0
 10
138.368
 20
91.4541
 11
138.603
 21
91.3737
  0
LINE
  8
0
 10
138.603
 20
91.3737
 11
138.82
 21
91.2558
  0
LINE
  8
0
 10
138.82
 20
91.2558
 11
139.016
 21
91.1036
  0
LINE
  8
0
 10
139.016
 20
91.1036
 11
139.184
 21
90.9213
  0
LINE
  8
0
 10
139.184
 20
90.9213
 11
139.319
 21
90.7139
  0
LINE
  8
0
 10
139.319
 20
90.7139
 11
139.419
 21
90.487
  0
LINE
  8
0
 10
139.419
 20
90.487
 11
139.48
 21
90.2469
  0
LINE
  8
0
 10
139.48
 20
90.2469
 11
139.5
 21
90
  0
LINE
  8
0
 10
139.5
 20
90
 11
139.48
 21
89.7531
  0
LINE
  8
0
 10
139.48
 20
89.7531
 11
139.419
 21
89.5129
  0
LINE
  8
0
 10
139.419
 20
89.5129
 11
139.319
 21
89.2861
  0
LINE
  8
0
 10
139.319
 20
89.2861
 11
139.184
 21
89.0787
  0
LINE
  8
0
 10
139.184
 20
89.0787
 11
139.016
 21
88.8964
  0
LINE
  8
0
 10
139.016
 20
88.8964
 11
138.82
 21
88.7442
  0
LINE
  8
0
 10
138.82
 20
88.7442
 11
138.603
 21
88.6263
  0
LINE
  8
0
 10
138.603
 20
88.6263
 11
138.368
 21
88.5459
  0
LINE
  8
0
 10
138.368
 20
88.5459
 11
138.124
 21
88.5051
  0
LINE
  8
0
 10
138.124
 20
88.5051
 11
59.8761
 21
88.5051
  0
LINE
  8
0
 10
59.8761
 20
81.0051
 11
59.6318
 21
81.0459
  0
LINE
  8
0
 10
59.6318
 20
81.0459
 11
59.3974
 21
81.1263
  0
LINE
  8
0
 10
59.3974
 20
81.1263
 11
59.1796
 21
81.2442
  0
LINE
  8
0
 10
59.1796
 20
81.2442
 11
58.9841
 21
81.3964
  0
LINE
  8
0
 10
58.9841
 20
81.3964
 11
58.8163
 21
81.5787
  0
LINE
  8
0
 10
58.8163
 20
81.5787
 11
58.6808
 21
81.7861
  0
LINE
  8
0
 10
58.6808
 20
81.7861
 11
58.5813
 21
82.0129
  0
LINE
  8
0
 10
58.5813
 20
82.0129
 11
58.5204
 21
82.2531
  0
LINE
  8
0
 10
58.5204
 20
82.2531
 11
58.5
 21
82.5
  0
LINE
  8
0
 10
58.5
 20
82.5
 11
58.5204
 21
82.7469
  0
LINE
  8
0
 10
58.5204
 20
82.7469
 11
58.5813
 21
82.987
  0
LINE
  8
0
 10
58.5813
 20
82.987
 11
58.6808
 21
83.2139
  0
LINE
  8
0
 10
58.6808
 20
83.2139
 11
58.8163
 21
83.4213
  0
LINE
  8
0
 10
58.8163
 20
83.4213
 11
58.9841
 21
83.6036
  0
LINE
  8
0
 10
58.9841
 20
83.6036
 11
59.1796
 21
83.7558
  0
LINE
  8
0
 10
59.1796
 20
83.7558
 11
59.3974
 21
83.8737
  0
LINE
  8
0
 10
59.3974
 20
83.8737
 11
59.6318
 21
83.9541
  0
LINE
  8
0
 10
59.6318
 20
83.9541
 11
59.8761
 21
83.9949
  0
LINE
  8
0
 10
59.8761
 20
83.9949
 11
138.124
 21
83.9949
  0
LINE
  8
0
 10
138.124
 20
83.9949
 11
138.368
 21
83.9541
  0
LINE
  8
0
 10
138.368
 20
83.9541
 11
138.603
 21
83.8737
  0
LINE
  8
0
 10
138.603
 20
83.8737
 11
138.82
 21
83.7558
  0
LINE
  8
0
 10
138.82
 20
83.7558
 11
139.016
 21
83.6036
  0
LINE
  8
0
 10
139.016
 20
83.6036
 11
139.184
 21
83.4213
  0
LINE
  8
0
 10
139.184
 20
83.4213
 11
139.319
 21
83.2139
  0
LINE
  8
0
 10
139.319
 20
83.2139
 11
139.419
 21
82.987
  0
LINE
  8
0
 10
139.419
 20
82.987
 11
139.48
 21
82.7469
  0
LINE
  8
0
 10
139.48
 20
82.7469
 11
139.5
 21
82.5
  0
LINE
  8
0
 10
139.5
 20
82.5
 11
139.48
 21
82.2531
  0
LINE
  8
0
 10
139.48
 20
82.2531
 11
139.419
 21
82.0129
  0
LINE
  8
0
 10
139.419
 20
82.0129
 11
139.319
 21
81.7861
  0
LINE
  8
0
 10
139.319
 20
81.7861
 11
139.184
 21
81.5787
  0
LINE
  8
0
 10
139.184
 20
81.5787
 11
139.016
 21
81.3964
  0
LINE
  8
0
 10
139.016
 20
81.3964
 11
138.82
 21
81.2442
  0
LINE
  8
0
 10
138.82
 20
81.2442
 11
138.603
 21
81.1263
  0
LINE
  8
0
 10
138.603
 20
81.1263
 11
138.368
 21
81.0459
  0
LINE
  8
0
 10
138.368
 20
81.0459
 11
138.124
 21
81.0051
  0
LINE
  8
0
 10
138.124
 20
81.0051
 11
59.8761
 21
81.0051
  0
LINE
  8
0
 10
59.8761
 20
73.5051
 11
59.6318
 21
73.5459
  0
LINE
  8
0
 10
59.6318
 20
73.5459
 11
59.3974
 21
73.6263
  0
LINE
  8
0
 10
59.3974
 20
73.6263
 11
59.1796
 21
73.7442
  0
LINE
  8
0
 10
59.1796
 20
73.7442
 11
58.9841
 21
73.8964
  0
LINE
  8
0
 10
58.9841
 20
73.8964
 11
58.8163
 21
74.0787
  0
LINE
  8
0
 10
58.8163
 20
74.0787
 11
58.6808
 21
74.2861
  0
LINE
  8
0
 10
58.6808
 20
74.2861
 11
58.5813
 21
74.5129
  0
LINE
  8
0
 10
58.5813
 20
74.5129
 11
58.5204
 21
74.7531
  0
LINE
  8
0
 10
58.5204
 20
74.7531
 11
58.5
 21
75
  0
LINE
  8
0
 10
58.5
 20
75
 11
58.5204
 21
75.2469
  0
LINE
  8
0
 10
58.5204
 20
75.2469
 11
58.5813
 21
75.487
  0
LINE
  8
0
 10
58.5813
 20
75.487
 11
58.6808
 21
75.7139
  0
LINE
  8
0
 10
58.6808
 20
75.7139
 11
58.8163
 21
75.9213
  0
LINE
  8
0
 10
58.8163
 20
75.9213
 11
58.9841
 21
76.1036
  0
LINE
  8
0
 10
58.9841
 20
76.1036
 11
59.1796
 21
76.2558
  0
LINE
  8
0
 10
59.1796
 20
76.2558
 11
59.3974
 21
76.3737
  0
LINE
  8
0
 10
59.3974
 20
76.3737
 11
59.6318
 21
76.4541
  0
LINE
  8
0
 10
59.6318
 20
76.4541
 11
59.8761
 21
76.4949
  0
LINE
  8
0
 10
59.8761
 20
76.4949
 11
138.124
 21
76.4949
  0
LINE
  8
0
 10
138.124
 20
76.4949
 11
138.368
 21
76.4541
  0
LINE
  8
0
 10
138.368
 20
76.4541
 11
138.603
 21
76.3737
  0
LINE
  8
0
 10
138.603
 20
76.3737
 11
138.82
 21
76.2558
  0
LINE
  8
0
 10
138.82
 20
76.2558
 11
139.016
 21
76.1036
  0
LINE
  8
0
 10
139.016
 20
76.1036
 11
139.184
 21
75.9213
  0
LINE
  8
0
 10
139.184
 20
75.9213
 11
139.319
 21
75.7139
  0
LINE
  8
0
 10
139.319
 20
75.7139
 11
139.419
 21
75.487
  0
LINE
  8
0
 10
139.419
 20
75.487
 11
139.48
 21
75.2469
  0
LINE
  8
0
 10
139.48
 20
75.2469
 11
139.5
 21
75
  0
LINE
  8
0
 10
139.5
 20
75
 11
139.48
 21
74.7531
  0
LINE
  8
0
 10
139.48
 20
74.7531
 11
139.419
 21
74.5129
  0
LINE
  8
0
 10
139.419
 20
74.5129
 11
139.319
 21
74.2861
  0
LINE
  8
0
 10
139.319
 20
74.2861
 11
139.184
 21
74.0787
  0
LINE
  8
0
 10
139.184
 20
74.0787
 11
139.016
 21
73.8964
  0
LINE
  8
0
 10
139.016
 20
73.8964
 11
138.82
 21
73.7442
  0
LINE
  8
0
 10
138.82
 20
73.7442
 11
138.603
 21
73.6263
  0
LINE
  8
0
 10
138.603
 20
73.6263
 11
138.368
 21
73.5459
  0
LINE
  8
0
 10
138.368
 20
73.5459
 11
138.124
 21
73.5051
  0
LINE
  8
0
 10
138.124
 20
73.5051
 11
59.8761
 21
73.5051
  0
LINE
  8
0
 10
59.8761
 20
66.0051
 11
59.6318
 21
66.0459
  0
LINE
  8
0
 10
59.6318
 20
66.0459
 11
59.3974
 21
66.1263
  0
LINE
  8
0
 10
59.3974
 20
66.1263
 11
59.1796
 21
66.2442
  0
LINE
  8
0
 10
59.1796
 20
66.2442
 11
58.9841
 21
66.3964
  0
LINE
  8
0
 10
58.9841
 20
66.3964
 11
58.8163
 21
66.5787
  0
LINE
  8
0
 10
58.8163
 20
66.5787
 11
58.6808
 21
66.7861
  0
LINE
  8
0
 10
58.6808
 20
66.7861
 11
58.5813
 21
67.0129
  0
LINE
  8
0
 10
58.5813
 20
67.0129
 11
58.5204
 21
67.2531
  0
LINE
  8
0
 10
58.5204
 20
67.2531
 11
58.5
 21
67.5
  0
LINE
  8
0
 10
58.5
 20
67.5
 11
58.5204
 21
67.7469
  0
LINE
  8
0
 10
58.5204
 20
67.7469
 11
58.5813
 21
67.987
  0
LINE
  8
0
 10
58.5813
 20
67.987
 11
58.6808
 21
68.2139
  0
LINE
  8
0
 10
58.6808
 20
68.2139
 11
58.8163
 21
68.4213
  0
LINE
  8
0
 10
58.8163
 20
68.4213
 11
58.9841
 21
68.6036
  0
LINE
  8
0
 10
58.9841
 20
68.6036
 11
59.1796
 21
68.7558
  0
LINE
  8
0
 10
59.1796
 20
68.7558
 11
59.3974
 21
68.8737
  0
LINE
  8
0
 10
59.3974
 20
68.8737
 11
59.6318
 21
68.9541
  0
LINE
  8
0
 10
59.6318
 20
68.9541
 11
59.8761
 21
68.9949
  0
LINE
  8
0
 10
59.8761
 20
68.9949
 11
138.124
 21
68.9949
  0
LINE
  8
0
 10
138.124
 20
68.9949
 11
138.368
 21
68.9541
  0
LINE
  8
0
 10
138.368
 20
68.9541
 11
138.603
 21
68.8737
  0
LINE
  8
0
 10
138.603
 20
68.8737
 11
138.82
 21
68.7558
  0
LINE
  8
0
 10
138.82
 20
68.7558
 11
139.016
 21
68.6036
  0
LINE
  8
0
 10
139.016
 20
68.6036
 11
139.184
 21
68.4213
  0
LINE
  8
0
 10
139.184
 20
68.4213
 11
139.319
 21
68.2139
  0
LINE
  8
0
 10
139.319
 20
68.2139
 11
139.419
 21
67.987
  0
LINE
  8
0
 10
139.419
 20
67.987
 11
139.48
 21
67.7469
  0
LINE
  8
0
 10
139.48
 20
67.7469
 11
139.5
 21
67.5
  0
LINE
  8
0
 10
139.5
 20
67.5
 11
139.48
 21
67.2531
  0
LINE
  8
0
 10
139.48
 20
67.2531
 11
139.419
 21
67.0129
  0
LINE
  8
0
 10
139.419
 20
67.0129
 11
139.319
 21
66.7861
  0
LINE
  8
0
 10
139.319
 20
66.7861
 11
139.184
 21
66.5787
  0
LINE
  8
0
 10
139.184
 20
66.5787
 11
139.016
 21
66.3964
  0
LINE
  8
0
 10
139.016
 20
66.3964
 11
138.82
 21
66.2442
  0
LINE
  8
0
 10
138.82
 20
66.2442
 11
138.603
 21
66.1263
  0
LINE
  8
0
 10
138.603
 20
66.1263
 11
138.368
 21
66.0459
  0
LINE
  8
0
 10
138.368
 20
66.0459
 11
138.124
 21
66.0051
  0
LINE
  8
0
 10
138.124
 20
66.0051
 11
59.8761
 21
66.0051
  0
LINE
  8
0
 10
59.8761
 20
58.5051
 11
59.6318
 21
58.5459
  0
LINE
  8
0
 10
59.6318
 20
58.5459
 11
59.3974
 21
58.6263
  0
LINE
  8
0
 10
59.3974
 20
58.6263
 11
59.1796
 21
58.7442
  0
LINE
  8
0
 10
59.1796
 20
58.7442
 11
58.9841
 21
58.8964
  0
LINE
  8
0
 10
58.9841
 20
58.8964
 11
58.8163
 21
59.0787
  0
LINE
  8
0
 10
58.8163
 20
59.0787
 11
58.6808
 21
59.2861
  0
LINE
  8
0
 10
58.6808
 20
59.2861
 11
58.5813
 21
59.5129
  0
LINE
  8
0
 10
58.5813
 20
59.5129
 11
58.5204
 21
59.7531
  0
LINE
  8
0
 10
58.5204
 20
59.7531
 11
58.5
 21
60
  0
LINE
  8
0
 10
58.5
 20
60
 11
58.5204
 21
60.2469
  0
LINE
  8
0
 10
58.5204
 20
60.2469
 11
58.5813
 21
60.487
  0
LINE
  8
0
 10
58.5813
 20
60.487
 11
58.6808
 21
60.7139
  0
LINE
  8
0
 10
58.6808
 20
60.7139
 11
58.8163
 21
60.9213
  0
LINE
  8
0
 10
58.8163
 20
60.9213
 11
58.9841
 21
61.1036
  0
LINE
  8
0
 10
58.9841
 20
61.1036
 11
59.1796
 21
61.2557
  0
LINE
  8
0
 10
59.1796
 20
61.2557
 11
59.3974
 21
61.3737
  0
LINE
  8
0
 10
59.3974
 20
61.3737
 11
59.6318
 21
61.4541
  0
LINE
  8
0
 10
59.6318
 20
61.4541
 11
59.8761
 21
61.4949
  0
LINE
  8
0
 10
59.8761
 20
61.4949
 11
138.124
 21
61.4949
  0
LINE
  8
0
 10
138.124
 20
61.4949
 11
138.368
 21
61.4541
  0
LINE
  8
0
 10
138.368
 20
61.4541
 11
138.603
 21
61.3737
  0
LINE
  8
0
 10
138.603
 20
61.3737
 11
138.82
 21
61.2557
  0
LINE
  8
0
 10
138.82
 20
61.2557
 11
139.016
 21
61.1036
  0
LINE
  8
0
 10
139.016
 20
61.1036
 11
139.184
 21
60.9213
  0
LINE
  8
0
 10
139.184
 20
60.9213
 11
139.319
 21
60.7139
  0
LINE
  8
0
 10
139.319
 20
60.7139
 11
139.419
 21
60.487
  0
LINE
  8
0
 10
139.419
 20
60.487
 11
139.48
 21
60.2469
  0
LINE
  8
0
 10
139.48
 20
60.2469
 11
139.5
 21
60
  0
LINE
  8
0
 10
139.5
 20
60
 11
139.48
 21
59.7531
  0
LINE
  8
0
 10
139.48
 20
59.7531
 11
139.419
 21
59.5129
  0
LINE
  8
0
 10
139.419
 20
59.5129
 11
139.319
 21
59.2861
  0
LINE
  8
0
 10
139.319
 20
59.2861
 11
139.184
 21
59.0787
  0
LINE
  8
0
 10
139.184
 20
59.0787
 11
139.016
 21
58.8964
  0
LINE
  8
0
 10
139.016
 20
58.8964
 11
138.82
 21
58.7442
  0
LINE
  8
0
 10
138.82
 20
58.7442
 11
138.603
 21
58.6263
  0
LINE
  8
0
 10
138.603
 20
58.6263
 11
138.368
 21
58.5459
  0
LINE
  8
0
 10
138.368
 20
58.5459
 11
138.124
 21
58.5051
  0
LINE
  8
0
 10
138.124
 20
58.5051
 11
59.8761
 21
58.5051
  0
LINE
  8
0
 10
59.8761
 20
51.0051
 11
59.6318
 21
51.0459
  0
LINE
  8
0
 10
59.6318
 20
51.0459
 11
59.3974
 21
51.1263
  0
LINE
  8
0
 10
59.3974
 20
51.1263
 11
59.1796
 21
51.2442
  0
LINE
  8
0
 10
59.1796
 20
51.2442
 11
58.9841
 21
51.3964
  0
LINE
  8
0
 10
58.9841
 20
51.3964
 11
58.8163
 21
51.5787
  0
LINE
  8
0
 10
58.8163
 20
51.5787
 11
58.6808
 21
51.7861
  0
LINE
  8
0
 10
58.6808
 20
51.7861
 11
58.5813
 21
52.0129
  0
LINE
  8
0
 10
58.5813
 20
52.0129
 11
58.5204
 21
52.2531
  0
LINE
  8
0
 10
58.5204
 20
52.2531
 11
58.5
 21
52.5
  0
LINE
  8
0
 10
58.5
 20
52.5
 11
58.5204
 21
52.7469
  0
LINE
  8
0
 10
58.5204
 20
52.7469
 11
58.5813
 21
52.987
  0
LINE
  8
0
 10
58.5813
 20
52.987
 11
58.6808
 21
53.2139
  0
LINE
  8
0
 10
58.6808
 20
53.2139
 11
58.8163
 21
53.4213
  0
LINE
  8
0
 10
58.8163
 20
53.4213
 11
58.9841
 21
53.6036
  0
LINE
  8
0
 10
58.9841
 20
53.6036
 11
59.1796
 21
53.7557
  0
LINE
  8
0
 10
59.1796
 20
53.7557
 11
59.3974
 21
53.8737
  0
LINE
  8
0
 10
59.3974
 20
53.8737
 11
59.6318
 21
53.9541
  0
LINE
  8
0
 10
59.6318
 20
53.9541
 11
59.8761
 21
53.9949
  0
LINE
  8
0
 10
59.8761
 20
53.9949
 11
138.124
 21
53.9949
  0
LINE
  8
0
 10
138.124
 20
53.9949
 11
138.368
 21
53.9541
  0
LINE
  8
0
 10
138.368
 20
53.9541
 11
138.603
 21
53.8737
  0
LINE
  8
0
 10
138.603
 20
53.8737
 11
138.82
 21
53.7557
  0
LINE
  8
0
 10
138.82
 20
53.7557
 11
139.016
 21
53.6036
  0
LINE
  8
0
 10
139.016
 20
53.6036
 11
139.184
 21
53.4213
  0
LINE
  8
0
 10
139.184
 20
53.4213
 11
139.319
 21
53.2139
  0
LINE
  8
0
 10
139.319
 20
53.2139
 11
139.419
 21
52.987
  0
LINE
  8
0
 10
139.419
 20
52.987
 11
139.48
 21
52.7469
  0
LINE
  8
0
 10
139.48
 20
52.7469
 11
139.5
 21
52.5
  0
LINE
  8
0
 10
139.5
 20
52.5
 11
139.48
 21
52.2531
  0
LINE
  8
0
 10
139.48
 20
52.2531
 11
139.419
 21
52.0129
  0
LINE
  8
0
 10
139.419
 20
52.0129
 11
139.319
 21
51.7861
  0
LINE
  8
0
 10
139.319
 20
51.7861
 11
139.184
 21
51.5787
  0
LINE
  8
0
 10
139.184
 20
51.5787
 11
139.016
 21
51.3964
  0
LINE
  8
0
 10
139.016
 20
51.3964
 11
138.82
 21
51.2442
  0
LINE
  8
0
 10
138.82
 20
51.2442
 11
138.603
 21
51.1263
  0
LINE
  8
0
 10
138.603
 20
51.1263
 11
138.368
 21
51.0459
  0
LINE
  8
0
 10
138.368
 20
51.0459
 11
138.124
 21
51.0051
  0
LINE
  8
0
 10
138.124
 20
51.0051
 11
59.8761
 21
51.0051
  0
LINE
  8
0
 10
59.8761
 20
43.5051
 11
59.6318
 21
43.5459
  0
LINE
  8
0
 10
59.6318
 20
43.5459
 11
59.3974
 21
43.6263
  0
LINE
  8
0
 10
59.3974
 20
43.6263
 11
59.1796
 21
43.7442
  0
LINE
  8
0
 10
59.1796
 20
43.7442
 11
58.9841
 21
43.8964
  0
LINE
  8
0
 10
58.9841
 20
43.8964
 11
58.8163
 21
44.0787
  0
LINE
  8
0
 10
58.8163
 20
44.0787
 11
58.6808
 21
44.2861
  0
LINE
  8
0
 10
58.6808
 20
44.2861
 11
58.5813
 21
44.5129
  0
LINE
  8
0
 10
58.5813
 20
44.5129
 11
58.5204
 21
44.7531
  0
LINE
  8
0
 10
58.5204
 20
44.7531
 11
58.5
 21
45
  0
LINE
  8
0
 10
58.5
 20
45
 11
58.5204
 21
45.2469
  0
LINE
  8
0
 10
58.5204
 20
45.2469
 11
58.5813
 21
45.487
  0
LINE
  8
0
 10
58.5813
 20
45.487
 11
58.6808
 21
45.7139
  0
LINE
  8
0
 10
58.6808
 20
45.7139
 11
58.8163
 21
45.9213
  0
LINE
  8
0
 10
58.8163
 20
45.9213
 11
58.9841
 21
46.1036
  0
LINE
  8
0
 10
58.9841
 20
46.1036
 11
59.1796
 21
46.2557
  0
LINE
  8
0
 10
59.1796
 20
46.2557
 11
59.3974
 21
46.3737
  0
LINE
  8
0
 10
59.3974
 20
46.3737
 11
59.6318
 21
46.4541
  0
LINE
  8
0
 10
59.6318
 20
46.4541
 11
59.8761
 21
46.4949
  0
LINE
  8
0
 10
59.8761
 20
46.4949
 11
138.124
 21
46.4949
  0
LINE
  8
0
 10
138.124
 20
46.4949
 11
138.368
 21
46.4541
  0
LINE
  8
0
 10
138.368
 20
46.4541
 11
138.603
 21
46.3737
  0
LINE
  8
0
 10
138.603
 20
46.3737
 11
138.82
 21
46.2557
  0
LINE
  8
0
 10
138.82
 20
46.2557
 11
139.016
 21
46.1036
  0
LINE
  8
0
 10
139.016
 20
46.1036
 11
139.184
 21
45.9213
  0
LINE
  8
0
 10
139.184
 20
45.9213
 11
139.319
 21
45.7139
  0
LINE
  8
0
 10
139.319
 20
45.7139
 11
139.419
 21
45.487
  0
LINE
  8
0
 10
139.419
 20
45.487
 11
139.48
 21
45.2469
  0
LINE
  8
0
 10
139.48
 20
45.2469
 11
139.5
 21
45
  0
LINE
  8
0
 10
139.5
 20
45
 11
139.48
 21
44.7531
  0
LINE
  8
0
 10
139.48
 20
44.7531
 11
139.419
 21
44.5129
  0
LINE
  8
0
 10
139.419
 20
44.5129
 11
139.319
 21
44.2861
  0
LINE
  8
0
 10
139.319
 20
44.2861
 11
139.184
 21
44.0787
  0
LINE
  8
0
 10
139.184
 20
44.0787
 11
139.016
 21
43.8964
  0
LINE
  8
0
 10
139.016
 20
43.8964
 11
138.82
 21
43.7442
  0
LINE
  8
0
 10
138.82
 20
43.7442
 11
138.603
 21
43.6263
  0
LINE
  8
0
 10
138.603
 20
43.6263
 11
138.368
 21
43.5459
  0
LINE
  8
0
 10
138.368
 20
43.5459
 11
138.124
 21
43.5051
  0
LINE
  8
0
 10
138.124
 20
43.5051
 11
59.8761
 21
43.5051
  0
LINE
  8
0
 10
59.8761
 20
36.0051
 11
59.6318
 21
36.0459
  0
LINE
  8
0
 10
59.6318
 20
36.0459
 11
59.3974
 21
36.1263
  0
LINE
  8
0
 10
59.3974
 20
36.1263
 11
59.1796
 21
36.2442
  0
LINE
  8
0
 10
59.1796
 20
36.2442
 11
58.9841
 21
36.3964
  0
LINE
  8
0
 10
58.9841
 20
36.3964
 11
58.8163
 21
36.5787
  0
LINE
  8
0
 10
58.8163
 20
36.5787
 11
58.6808
 21
36.7861
  0
LINE
  8
0
 10
58.6808
 20
36.7861
 11
58.5813
 21
37.0129
  0
LINE
  8
0
 10
58.5813
 20
37.0129
 11
58.5204
 21
37.2531
  0
LINE
  8
0
 10
58.5204
 20
37.2531
 11
58.5
 21
37.5
  0
LINE
  8
0
 10
58.5
 20
37.5
 11
58.5204
 21
37.7469
  0
LINE
  8
0
 10
58.5204
 20
37.7469
 11
58.5813
 21
37.987
  0
LINE
  8
0
 10
58.5813
 20
37.987
 11
58.6808
 21
38.2139
  0
LINE
  8
0
 10
58.6808
 20
38.2139
 11
58.8163
 21
38.4213
  0
LINE
  8
0
 10
58.8163
 20
38.4213
 11
58.9841
 21
38.6036
  0
LINE
  8
0
 10
58.9841
 20
38.6036
 11
59.1796
 21
38.7557
  0
LINE
  8
0
 10
59.1796
 20
38.7557
 11
59.3974
 21
38.8737
  0
LINE
  8
0
 10
59.3974
 20
38.8737
 11
59.6318
 21
38.9541
  0
LINE
  8
0
 10
59.6318
 20
38.9541
 11
59.8761
 21
38.9949
  0
LINE
  8
0
 10
59.8761
 20
38.9949
 11
138.124
 21
38.9949
  0
LINE
  8
0
 10
138.124
 20
38.9949
 11
138.368
 21
38.9541
  0
LINE
  8
0
 10
138.368
 20
38.9541
 11
138.603
 21
38.8737
  0
LINE
  8
0
 10
138.603
 20
38.8737
 11
138.82
 21
38.7557
  0
LINE
  8
0
 10
138.82
 20
38.7557
 11
139.016
 21
38.6036
  0
LINE
  8
0
 10
139.016
 20
38.6036
 11
139.184
 21
38.4213
  0
LINE
  8
0
 10
139.184
 20
38.4213
 11
139.319
 21
38.2139
  0
LINE
  8
0
 10
139.319
 20
38.2139
 11
139.419
 21
37.987
  0
LINE
  8
0
 10
139.419
 20
37.987
 11
139.48
 21
37.7469
  0
LINE
  8
0
 10
139.48
 20
37.7469
 11
139.5
 21
37.5
  0
LINE
  8
0
 10
139.5
 20
37.5
 11
139.48
 21
37.2531
  0
LINE
  8
0
 10
139.48
 20
37.2531
 11
139.419
 21
37.0129
  0
LINE
  8
0
 10
139.419
 20
37.0129
 11
139.319
 21
36.7861
  0
LINE
  8
0
 10
139.319
 20
36.7861
 11
139.184
 21
36.5787
  0
LINE
  8
0
 10
139.184
 20
36.5787
 11
139.016
 21
36.3964
  0
LINE
  8
0
 10
139.016
 20
36.3964
 11
138.82
 21
36.2442
  0
LINE
  8
0
 10
138.82
 20
36.2442
 11
138.603
 21
36.1263
  0
LINE
  8
0
 10
138.603
 20
36.1263
 11
138.368
 21
36.0459
  0
LINE
  8
0
 10
138.368
 20
36.0459
 11
138.124
 21
36.0051
  0
LINE
  8
0
 10
138.124
 20
36.0051
 11
59.8761
 21
36.0051
  0
LINE
  8
0
 10
59.8761
 20
28.5051
 11
59.6318
 21
28.5459
  0
LINE
  8
0
 10
59.6318
 20
28.5459
 11
59.3974
 21
28.6263
  0
LINE
  8
0
 10
59.3974
 20
28.6263
 11
59.1796
 21
28.7442
  0
LINE
  8
0
 10
59.1796
 20
28.7442
 11
58.9841
 21
28.8964
  0
LINE
  8
0
 10
58.9841
 20
28.8964
 11
58.8163
 21
29.0787
  0
LINE
  8
0
 10
58.8163
 20
29.0787
 11
58.6808
 21
29.2861
  0
LINE
  8
0
 10
58.6808
 20
29.2861
 11
58.5813
 21
29.5129
  0
LINE
  8
0
 10
58.5813
 20
29.5129
 11
58.5204
 21
29.7531
  0
LINE
  8
0
 10
58.5204
 20
29.7531
 11
58.5
 21
30
  0
LINE
  8
0
 10
58.5
 20
30
 11
58.5204
 21
30.2469
  0
LINE
  8
0
 10
58.5204
 20
30.2469
 11
58.5813
 21
30.487
  0
LINE
  8
0
 10
58.5813
 20
30.487
 11
58.6808
 21
30.7139
  0
LINE
  8
0
 10
58.6808
 20
30.7139
 11
58.8163
 21
30.9213
  0
LINE
  8
0
 10
58.8163
 20
30.9213
 11
58.9841
 21
31.1036
  0
LINE
  8
0
 10
58.9841
 20
31.1036
 11
59.1796
 21
31.2557
  0
LINE
  8
0
 10
59.1796
 20
31.2557
 11
59.3974
 21
31.3737
  0
LINE
  8
0
 10
59.3974
 20
31.3737
 11
59.6318
 21
31.4541
  0
LINE
  8
0
 10
59.6318
 20
31.4541
 11
59.8761
 21
31.4949
  0
LINE
  8
0
 10
59.8761
 20
31.4949
 11
138.124
 21
31.4949
  0
LINE
  8
0
 10
138.124
 20
31.4949
 11
138.368
 21
31.4541
  0
LINE
  8
0
 10
138.368
 20
31.4541
 11
138.603
 21
31.3737
  0
LINE
  8
0
 10
138.603
 20
31.3737
 11
138.82
 21
31.2557
  0
LINE
  8
0
 10
138.82
 20
31.2557
 11
139.016
 21
31.1036
  0
LINE
  8
0
 10
139.016
 20
31.1036
 11
139.184
 21
30.9213
  0
LINE
  8
0
 10
139.184
 20
30.9213
 11
139.319
 21
30.7139
  0
LINE
  8
0
 10
139.319
 20
30.7139
 11
139.419
 21
30.487
  0
LINE
  8
0
 10
139.419
 20
30.487
 11
139.48
 21
30.2469
  0
LINE
  8
0
 10
139.48
 20
30.2469
 11
139.5
 21
30
  0
LINE
  8
0
 10
139.5
 20
30
 11
139.48
 21
29.7531
  0
LINE
  8
0
 10
139.48
 20
29.7531
 11
139.419
 21
29.5129
  0
LINE
  8
0
 10
139.419
 20
29.5129
 11
139.319
 21
29.2861
  0
LINE
  8
0
 10
139.319
 20
29.2861
 11
139.184
 21
29.0787
  0
LINE
  8
0
 10
139.184
 20
29.0787
 11
139.016
 21
28.8964
  0
LINE
  8
0
 10
139.016
 20
28.8964
 11
138.82
 21
28.7442
  0
LINE
  8
0
 10
138.82
 20
28.7442
 11
138.603
 21
28.6263
  0
LINE
  8
0
 10
138.603
 20
28.6263
 11
138.368
 21
28.5459
  0
LINE
  8
0
 10
138.368
 20
28.5459
 11
138.124
 21
28.5051
  0
LINE
  8
0
 10
138.124
 20
28.5051
 11
59.8761
 21
28.5051
  0
LINE
  8
0
 10
59.8761
 20
21.0051
 11
59.6318
 21
21.0459
  0
LINE
  8
0
 10
59.6318
 20
21.0459
 11
59.3974
 21
21.1263
  0
LINE
  8
0
 10
59.3974
 20
21.1263
 11
59.1796
 21
21.2442
  0
LINE
  8
0
 10
59.1796
 20
21.2442
 11
58.9841
 21
21.3964
  0
LINE
  8
0
 10
58.9841
 20
21.3964
 11
58.8163
 21
21.5787
  0
LINE
  8
0
 10
58.8163
 20
21.5787
 11
58.6808
 21
21.7861
  0
LINE
  8
0
 10
58.6808
 20
21.7861
 11
58.5813
 21
22.0129
  0
LINE
  8
0
 10
58.5813
 20
22.0129
 11
58.5204
 21
22.2531
  0
LINE
  8
0
 10
58.5204
 20
22.2531
 11
58.5
 21
22.5
  0
LINE
  8
0
 10
58.5
 20
22.5
 11
58.5204
 21
22.7469
  0
LINE
  8
0
 10
58.5204
 20
22.7469
 11
58.5813
 21
22.987
  0
LINE
  8
0
 10
58.5813
 20
22.987
 11
58.6808
 21
23.2139
  0
LINE
  8
0
 10
58.6808
 20
23.2139
 11
58.8163
 21
23.4213
  0
LINE
  8
0
 10
58.8163
 20
23.4213
 11
58.9841
 21
23.6036
  0
LINE
  8
0
 10
58.9841
 20
23.6036
 11
59.1796
 21
23.7557
  0
LINE
  8
0
 10
59.1796
 20
23.7557
 11
59.3974
 21
23.8737
  0
LINE
  8
0
 10
59.3974
 20
23.8737
 11
59.6318
 21
23.9541
  0
LINE
  8
0
 10
59.6318
 20
23.9541
 11
59.8761
 21
23.9949
  0
LINE
  8
0
 10
59.8761
 20
23.9949
 11
138.124
 21
23.9949
  0
LINE
  8
0
 10
138.124
 20
23.9949
 11
138.368
 21
23.9541
  0
LINE
  8
0
 10
138.368
 20
23.9541
 11
138.603
 21
23.8737
  0
LINE
  8
0
 10
138.603
 20
23.8737
 11
138.82
 21
23.7557
  0
LINE
  8
0
 10
138.82
 20
23.7557
 11
139.016
 21
23.6036
  0
LINE
  8
0
 10
139.016
 20
23.6036
 11
139.184
 21
23.4213
  0
LINE
  8
0
 10
139.184
 20
23.4213
 11
139.319
 21
23.2139
  0
LINE
  8
0
 10
139.319
 20
23.2139
 11
139.419
 21
22.987
  0
LINE
  8
0
 10
139.419
 20
22.987
 11
139.48
 21
22.7469
  0
LINE
  8
0
 10
139.48
 20
22.7469
 11
139.5
 21
22.5
  0
LINE
  8
0
 10
139.5
 20
22.5
 11
139.48
 21
22.2531
  0
LINE
  8
0
 10
139.48
 20
22.2531
 11
139.419
 21
22.0129
  0
LINE
  8
0
 10
139.419
 20
22.0129
 11
139.319
 21
21.7861
  0
LINE
  8
0
 10
139.319
 20
21.7861
 11
139.184
 21
21.5787
  0
LINE
  8
0
 10
139.184
 20
21.5787
 11
139.016
 21
21.3964
  0
LINE
  8
0
 10
139.016
 20
21.3964
 11
138.82
 21
21.2442
  0
LINE
  8
0
 10
138.82
 20
21.2442
 11
138.603
 21
21.1263
  0
LINE
  8
0
 10
138.603
 20
21.1263
 11
138.368
 21
21.0459
  0
LINE
  8
0
 10
138.368
 20
21.0459
 11
138.124
 21
21.0051
  0
LINE
  8
0
 10
138.124
 20
21.0051
 11
59.8761
 21
21.0051
  0
LINE
  8
0
 10
59.8761
 20
13.5051
 11
59.6318
 21
13.5459
  0
LINE
  8
0
 10
59.6318
 20
13.5459
 11
59.3974
 21
13.6263
  0
LINE
  8
0
 10
59.3974
 20
13.6263
 11
59.1796
 21
13.7442
  0
LINE
  8
0
 10
59.1796
 20
13.7442
 11
58.9841
 21
13.8964
  0
LINE
  8
0
 10
58.9841
 20
13.8964
 11
58.8163
 21
14.0787
  0
LINE
  8
0
 10
58.8163
 20
14.0787
 11
58.6808
 21
14.2861
  0
LINE
  8
0
 10
58.6808
 20
14.2861
 11
58.5813
 21
14.5129
  0
LINE
  8
0
 10
58.5813
 20
14.5129
 11
58.5204
 21
14.7531
  0
LINE
  8
0
 10
58.5204
 20
14.7531
 11
58.5
 21
15
  0
LINE
  8
0
 10
58.5
 20
15
 11
58.5204
 21
15.2469
  0
LINE
  8
0
 10
58.5204
 20
15.2469
 11
58.5813
 21
15.487
  0
LINE
  8
0
 10
58.5813
 20
15.487
 11
58.6808
 21
15.7139
  0
LINE
  8
0
 10
58.6808
 20
15.7139
 11
58.8163
 21
15.9213
  0
LINE
  8
0
 10
58.8163
 20
15.9213
 11
58.9841
 21
16.1036
  0
LINE
  8
0
 10
58.9841
 20
16.1036
 11
59.1796
 21
16.2557
  0
LINE
  8
0
 10
59.1796
 20
16.2557
 11
59.3974
 21
16.3737
  0
LINE
  8
0
 10
59.3974
 20
16.3737
 11
59.6318
 21
16.4541
  0
LINE
  8
0
 10
59.6318
 20
16.4541
 11
59.8761
 21
16.4949
  0
LINE
  8
0
 10
59.8761
 20
16.4949
 11
138.124
 21
16.4949
  0
LINE
  8
0
 10
138.124
 20
16.4949
 11
138.368
 21
16.4541
  0
LINE
  8
0
 10
138.368
 20
16.4541
 11
138.603
 21
16.3737
  0
LINE
  8
0
 10
138.603
 20
16.3737
 11
138.82
 21
16.2557
  0
LINE
  8
0
 10
138.82
 20
16.2557
 11
139.016
 21
16.1036
  0
LINE
  8
0
 10
139.016
 20
16.1036
 11
139.184
 21
15.9213
  0
LINE
  8
0
 10
139.184
 20
15.9213
 11
139.319
 21
15.7139
  0
LINE
  8
0
 10
139.319
 20
15.7139
 11
139.419
 21
15.487
  0
LINE
  8
0
 10
139.419
 20
15.487
 11
139.48
 21
15.2469
  0
LINE
  8
0
 10
139.48
 20
15.2469
 11
139.5
 21
15
  0
LINE
  8
0
 10
139.5
 20
15
 11
139.48
 21
14.7531
  0
LINE
  8
0
 10
139.48
 20
14.7531
 11
139.419
 21
14.5129
  0
LINE
  8
0
 10
139.419
 20
14.5129
 11
139.319
 21
14.2861
  0
LINE
  8
0
 10
139.319
 20
14.2861
 11
139.184
 21
14.0787
  0
LINE
  8
0
 10
139.184
 20
14.0787
 11
139.016
 21
13.8964
  0
LINE
  8
0
 10
139.016
 20
13.8964
 11
138.82
 21
13.7442
  0
LINE
  8
0
 10
138.82
 20
13.7442
 11
138.603
 21
13.6263
  0
LINE
  8
0
 10
138.603
 20
13.6263
 11
138.368
 21
13.5459
  0
LINE
  8
0
 10
138.368
 20
13.5459
 11
138.124
 21
13.5051
  0
LINE
  8
0
 10
138.124
 20
13.5051
 11
59.8761
 21
13.5051
  0
LINE
  8
0
 10
59.8761
 20
6.00511
 11
59.6318
 21
6.0459
  0
LINE
  8
0
 10
59.6318
 20
6.0459
 11
59.3974
 21
6.12633
  0
LINE
  8
0
 10
59.3974
 20
6.12633
 11
59.1796
 21
6.24425
  0
LINE
  8
0
 10
59.1796
 20
6.24425
 11
58.9841
 21
6.39641
  0
LINE
  8
0
 10
58.9841
 20
6.39641
 11
58.8163
 21
6.57867
  0
LINE
  8
0
 10
58.8163
 20
6.57867
 11
58.6808
 21
6.78607
  0
LINE
  8
0
 10
58.6808
 20
6.78607
 11
58.5813
 21
7.01294
  0
LINE
  8
0
 10
58.5813
 20
7.01294
 11
58.5204
 21
7.2531
  0
LINE
  8
0
 10
58.5204
 20
7.2531
 11
58.5
 21
7.5
  0
LINE
  8
0
 10
58.5
 20
7.5
 11
58.5204
 21
7.74689
  0
LINE
  8
0
 10
58.5204
 20
7.74689
 11
58.5813
 21
7.98705
  0
LINE
  8
0
 10
58.5813
 20
7.98705
 11
58.6808
 21
8.21391
  0
LINE
  8
0
 10
58.6808
 20
8.21391
 11
58.8163
 21
8.42131
  0
LINE
  8
0
 10
58.8163
 20
8.42131
 11
58.9841
 21
8.60358
  0
LINE
  8
0
 10
58.9841
 20
8.60358
 11
59.1796
 21
8.75574
  0
LINE
  8
0
 10
59.1796
 20
8.75574
 11
59.3974
 21
8.87366
  0
LINE
  8
0
 10
59.3974
 20
8.87366
 11
59.6318
 21
8.95409
  0
LINE
  8
0
 10
59.6318
 20
8.95409
 11
59.8761
 21
8.99487
  0
LINE
  8
0
 10
59.8761
 20
8.99487
 11
138.124
 21
8.99487
  0
LINE
  8
0
 10
138.124
 20
8.99487
 11
138.368
 21
8.95409
  0
LINE
  8
0
 10
138.368
 20
8.95409
 11
138.603
 21
8.87366
  0
LINE
  8
0
 10
138.603
 20
8.87366
 11
138.82
 21
8.75574
  0
LINE
  8
0
 10
138.82
 20
8.75574
 11
139.016
 21
8.60358
  0
LINE
  8
0
 10
139.016
 20
8.60358
 11
139.184
 21
8.42131
  0
LINE
  8
0
 10
139.184
 20
8.42131
 11
139.319
 21
8.21391
  0
LINE
  8
0
 10
139.319
 20
8.21391
 11
139.419
 21
7.98705
  0
LINE
  8
0
 10
139.419
 20
7.98705
 11
139.48
 21
7.74689
  0
LINE
  8
0
 10
139.48
 20
7.74689
 11
139.5
 21
7.5
  0
LINE
  8
0
 10
139.5
 20
7.5
 11
139.48
 21
7.2531
  0
LINE
  8
0
 10
139.48
 20
7.2531
 11
139.419
 21
7.01294
  0
LINE
  8
0
 10
139.419
 20
7.01294
 11
139.319
 21
6.78607
  0
LINE
  8
0
 10
139.319
 20
6.78607
 11
139.184
 21
6.57867
  0
LINE
  8
0
 10
139.184
 20
6.57867
 11
139.016
 21
6.39641
  0
LINE
  8
0
 10
139.016
 20
6.39641
 11
138.82
 21
6.24425
  0
LINE
  8
0
 10
138.82
 20
6.24425
 11
138.603
 21
6.12633
  0
LINE
  8
0
 10
138.603
 20
6.12633
 11
138.368
 21
6.0459
  0
LINE
  8
0
 10
138.368
 20
6.0459
 11
138.124
 21
6.00511
  0
LINE
  8
0
 10
138.124
 20
6.00511
 11
59.8761
 21
6.00511
  0
LINE
  8
0
 10
59.8761
 20
-1.49487
 11
59.6318
 21
-1.45409
  0
LINE
  8
0
 10
59.6318
 20
-1.45409
 11
59.3974
 21
-1.37366
  0
LINE
  8
0
 10
59.3974
 20
-1.37366
 11
59.1796
 21
-1.25574
  0
LINE
  8
0
 10
59.1796
 20
-1.25574
 11
58.9841
 21
-1.10358
  0
LINE
  8
0
 10
58.9841
 20
-1.10358
 11
58.8163
 21
-0.92131
  0
LINE
  8
0
 10
58.8163
 20
-0.92131
 11
58.6808
 21
-0.713913
  0
LINE
  8
0
 10
58.6808
 20
-0.713913
 11
58.5813
 21
-0.487045
  0
LINE
  8
0
 10
58.5813
 20
-0.487045
 11
58.5204
 21
-0.246887
  0
LINE
  8
0
 10
58.5204
 20
-0.246887
 11
58.5
 21
0
  0
LINE
  8
0
 10
58.5
 20
0
 11
58.5204
 21
0.246887
  0
LINE
  8
0
 10
58.5204
 20
0.246887
 11
58.5813
 21
0.487045
  0
LINE
  8
0
 10
58.5813
 20
0.487045
 11
58.6808
 21
0.713913
  0
LINE
  8
0
 10
58.6808
 20
0.713913
 11
58.8163
 21
0.92131
  0
LINE
  8
0
 10
58.8163
 20
0.92131
 11
58.9841
 21
1.10358
  0
LINE
  8
0
 10
58.9841
 20
1.10358
 11
59.1796
 21
1.25574
  0
LINE
  8
0
 10
59.1796
 20
1.25574
 11
59.3974
 21
1.37366
  0
LINE
  8
0
 10
59.3974
 20
1.37366
 11
59.6318
 21
1.45409
  0
LINE
  8
0
 10
59.6318
 20
1.45409
 11
59.8761
 21
1.49487
  0
LINE
  8
0
 10
59.8761
 20
1.49487
 11
138.124
 21
1.49487
  0
LINE
  8
0
 10
138.124
 20
1.49487
 11
138.368
 21
1.45409
  0
LINE
  8
0
 10
138.368
 20
1.45409
 11
138.603
 21
1.37366
  0
LINE
  8
0
 10
138.603
 20
1.37366
 11
138.82
 21
1.25574
  0
LINE
  8
0
 10
138.82
 20
1.25574
 11
139.016
 21
1.10358
  0
LINE
  8
0
 10
139.016
 20
1.10358
 11
139.184
 21
0.92131
  0
LINE
  8
0
 10
139.184
 20
0.92131
 11
139.319
 21
0.713913
  0
LINE
  8
0
 10
139.319
 20
0.713913
 11
139.419
 21
0.487045
  0
LINE
  8
0
 10
139.419
 20
0.487045
 11
139.48
 21
0.246887
  0
LINE
  8
0
 10
139.48
 20
0.246887
 11
139.5
 21
0
  0
LINE
  8
0
 10
139.5
 20
0
 11
139.48
 21
-0.246887
  0
LINE
  8
0
 10
139.48
 20
-0.246887
 11
139.419
 21
-0.487045
  0
LINE
  8
0
 10
139.419
 20
-0.487045
 11
139.319
 21
-0.713913
  0
LINE
  8
0
 10
139.319
 20
-0.713913
 11
139.184
 21
-0.92131
  0
LINE
  8
0
 10
139.184
 20
-0.92131
 11
139.016
 21
-1.10358
  0
LINE
  8
0
 10
139.016
 20
-1.10358
 11
138.82
 21
-1.25574
  0
LINE
  8
0
 10
138.82
 20
-1.25574
 11
138.603
 21
-1.37366
  0
LINE
  8
0
 10
138.603
 20
-1.37366
 11
138.368
 21
-1.45409
  0
LINE
  8
0
 10
138.368
 20
-1.45409
 11
138.124
 21
-1.49487
  0
LINE
  8
0
 10
138.124
 20
-1.49487
 11
59.8761
 21
-1.49487
  0
LINE
  8
0
 10
59.8761
 20
-8.99487
 11
59.6318
 21
-8.95409
  0
LINE
  8
0
 10
59.6318
 20
-8.95409
 11
59.3974
 21
-8.87366
  0
LINE
  8
0
 10
59.3974
 20
-8.87366
 11
59.1796
 21
-8.75574
  0
LINE
  8
0
 10
59.1796
 20
-8.75574
 11
58.9841
 21
-8.60358
  0
LINE
  8
0
 10
58.9841
 20
-8.60358
 11
58.8163
 21
-8.42131
  0
LINE
  8
0
 10
58.8163
 20
-8.42131
 11
58.6808
 21
-8.21391
  0
LINE
  8
0
 10
58.6808
 20
-8.21391
 11
58.5813
 21
-7.98705
  0
LINE
  8
0
 10
58.5813
 20
-7.98705
 11
58.5204
 21
-7.74689
  0
LINE
  8
0
 10
58.5204
 20
-7.74689
 11
58.5
 21
-7.5
  0
LINE
  8
0
 10
58.5
 20
-7.5
 11
58.5204
 21
-7.2531
  0
LINE
  8
0
 10
58.5204
 20
-7.2531
 11
58.5813
 21
-7.01294
  0
LINE
  8
0
 10
58.5813
 20
-7.01294
 11
58.6808
 21
-6.78607
  0
LINE
  8
0
 10
58.6808
 20
-6.78607
 11
58.8163
 21
-6.57867
  0
LINE
  8
0
 10
58.8163
 20
-6.57867
 11
58.9841
 21
-6.39641
  0
LINE
  8
0
 10
58.9841
 20
-6.39641
 11
59.1796
 21
-6.24425
  0
LINE
  8
0
 10
59.1796
 20
-6.24425
 11
59.3974
 21
-6.12633
  0
LINE
  8
0
 10
59.3974
 20
-6.12633
 11
59.6318
 21
-6.0459
  0
LINE
  8
0
 10
59.6318
 20
-6.0459
 11
59.8761
 21
-6.00511
  0
LINE
  8
0
 10
59.8761
 20
-6.00511
 11
138.124
 21
-6.00511
  0
LINE
  8
0
 10
138.124
 20
-6.00511
 11
138.368
 21
-6.0459
  0
LINE
  8
0
 10
138.368
 20
-6.0459
 11
138.603
 21
-6.12633
  0
LINE
  8
0
 10
138.603
 20
-6.12633
 11
138.82
 21
-6.24425
  0
LINE
  8
0
 10
138.82
 20
-6.24425
 11
139.016
 21
-6.39641
  0
LINE
  8
0
 10
139.016
 20
-6.39641
 11
139.184
 21
-6.57867
  0
LINE
  8
0
 10
139.184
 20
-6.57867
 11
139.319
 21
-6.78607
  0
LINE
  8
0
 10
139.319
 20
-6.78607
 11
139.419
 21
-7.01294
  0
LINE
  8
0
 10
139.419
 20
-7.01294
 11
139.48
 21
-7.2531
  0
LINE
  8
0
 10
139.48
 20
-7.2531
 11
139.5
 21
-7.5
  0
LINE
  8
0
 10
139.5
 20
-7.5
 11
139.48
 21
-7.74689
  0
LINE
  8
0
 10
139.48
 20
-7.74689
 11
139.419
 21
-7.98705
  0
LINE
  8
0
 10
139.419
 20
-7.98705
 11
139.319
 21
-8.21391
  0
LINE
  8
0
 10
139.319
 20
-8.21391
 11
139.184
 21
-8.42131
  0
LINE
  8
0
 10
139.184
 20
-8.42131
 11
139.016
 21
-8.60358
  0
LINE
  8
0
 10
139.016
 20
-8.60358
 11
138.82
 21
-8.75574
  0
LINE
  8
0
 10
138.82
 20
-8.75574
 11
138.603
 21
-8.87366
  0
LINE
  8
0
 10
138.603
 20
-8.87366
 11
138.368
 21
-8.95409
  0
LINE
  8
0
 10
138.368
 20
-8.95409
 11
138.124
 21
-8.99487
  0
LINE
  8
0
 10
138.124
 20
-8.99487
 11
59.8761
 21
-8.99487
  0
LINE
  8
0
 10
59.8761
 20
-16.4949
 11
59.6318
 21
-16.4541
  0
LINE
  8
0
 10
59.6318
 20
-16.4541
 11
59.3974
 21
-16.3737
  0
LINE
  8
0
 10
59.3974
 20
-16.3737
 11
59.1796
 21
-16.2557
  0
LINE
  8
0
 10
59.1796
 20
-16.2557
 11
58.9841
 21
-16.1036
  0
LINE
  8
0
 10
58.9841
 20
-16.1036
 11
58.8163
 21
-15.9213
  0
LINE
  8
0
 10
58.8163
 20
-15.9213
 11
58.6808
 21
-15.7139
  0
LINE
  8
0
 10
58.6808
 20
-15.7139
 11
58.5813
 21
-15.487
  0
LINE
  8
0
 10
58.5813
 20
-15.487
 11
58.5204
 21
-15.2469
  0
LINE
  8
0
 10
58.5204
 20
-15.2469
 11
58.5
 21
-15
  0
LINE
  8
0
 10
58.5
 20
-15
 11
58.5204
 21
-14.7531
  0
LINE
  8
0
 10
58.5204
 20
-14.7531
 11
58.5813
 21
-14.5129
  0
LINE
  8
0
 10
58.5813
 20
-14.5129
 11
58.6808
 21
-14.2861
  0
LINE
  8
0
 10
58.6808
 20
-14.2861
 11
58.8163
 21
-14.0787
  0
LINE
  8
0
 10
58.8163
 20
-14.0787
 11
58.9841
 21
-13.8964
  0
LINE
  8
0
 10
58.9841
 20
-13.8964
 11
59.1796
 21
-13.7442
  0
LINE
  8
0
 10
59.1796
 20
-13.7442
 11
59.3974
 21
-13.6263
  0
LINE
  8
0
 10
59.3974
 20
-13.6263
 11
59.6318
 21
-13.5459
  0
LINE
  8
0
 10
59.6318
 20
-13.5459
 11
59.8761
 21
-13.5051
  0
LINE
  8
0
 10
59.8761
 20
-13.5051
 11
138.124
 21
-13.5051
  0
LINE
  8
0
 10
138.124
 20
-13.5051
 11
138.368
 21
-13.5459
  0
LINE
  8
0
 10
138.368
 20
-13.5459
 11
138.603
 21
-13.6263
  0
LINE
  8
0
 10
138.603
 20
-13.6263
 11
138.82
 21
-13.7442
  0
LINE
  8
0
 10
138.82
 20
-13.7442
 11
139.016
 21
-13.8964
  0
LINE
  8
0
 10
139.016
 20
-13.8964
 11
139.184
 21
-14.0787
  0
LINE
  8
0
 10
139.184
 20
-14.0787
 11
139.319
 21
-14.2861
  0
LINE
  8
0
 10
139.319
 20
-14.2861
 11
139.419
 21
-14.5129
  0
LINE
  8
0
 10
139.419
 20
-14.5129
 11
139.48
 21
-14.7531
  0
LINE
  8
0
 10
139.48
 20
-14.7531
 11
139.5
 21
-15
  0
LINE
  8
0
 10
139.5
 20
-15
 11
139.48
 21
-15.2469
  0
LINE
  8
0
 10
139.48
 20
-15.2469
 11
139.419
 21
-15.487
  0
LINE
  8
0
 10
139.419
 20
-15.487
 11
139.319
 21
-15.7139
  0
LINE
  8
0
 10
139.319
 20
-15.7139
 11
139.184
 21
-15.9213
  0
LINE
  8
0
 10
139.184
 20
-15.9213
 11
139.016
 21
-16.1036
  0
LINE
  8
0
 10
139.016
 20
-16.1036
 11
138.82
 21
-16.2557
  0
LINE
  8
0
 10
138.82
 20
-16.2557
 11
138.603
 21
-16.3737
  0
LINE
  8
0
 10
138.603
 20
-16.3737
 11
138.368
 21
-16.4541
  0
LINE
  8
0
 10
138.368
 20
-16.4541
 11
138.124
 21
-16.4949
  0
LINE
  8
0
 10
138.124
 20
-16.4949
 11
59.8761
 21
-16.4949
  0
LINE
  8
0
 10
59.8761
 20
-23.9949
 11
59.6318
 21
-23.9541
  0
LINE
  8
0
 10
59.6318
 20
-23.9541
 11
59.3974
 21
-23.8737
  0
LINE
  8
0
 10
59.3974
 20
-23.8737
 11
59.1796
 21
-23.7557
  0
LINE
  8
0
 10
59.1796
 20
-23.7557
 11
58.9841
 21
-23.6036
  0
LINE
  8
0
 10
58.9841
 20
-23.6036
 11
58.8163
 21
-23.4213
  0
LINE
  8
0
 10
58.8163
 20
-23.4213
 11
58.6808
 21
-23.2139
  0
LINE
  8
0
 10
58.6808
 20
-23.2139
 11
58.5813
 21
-22.987
  0
LINE
  8
0
 10
58.5813
 20
-22.987
 11
58.5204
 21
-22.7469
  0
LINE
  8
0
 10
58.5204
 20
-22.7469
 11
58.5
 21
-22.5
  0
LINE
  8
0
 10
58.5
 20
-22.5
 11
58.5204
 21
-22.2531
  0
LINE
  8
0
 10
58.5204
 20
-22.2531
 11
58.5813
 21
-22.0129
  0
LINE
  8
0
 10
58.5813
 20
-22.0129
 11
58.6808
 21
-21.7861
  0
LINE
  8
0
 10
58.6808
 20
-21.7861
 11
58.8163
 21
-21.5787
  0
LINE
  8
0
 10
58.8163
 20
-21.5787
 11
58.9841
 21
-21.3964
  0
LINE
  8
0
 10
58.9841
 20
-21.3964
 11
59.1796
 21
-21.2442
  0
LINE
  8
0
 10
59.1796
 20
-21.2442
 11
59.3974
 21
-21.1263
  0
LINE
  8
0
 10
59.3974
 20
-21.1263
 11
59.6318
 21
-21.0459
  0
LINE
  8
0
 10
59.6318
 20
-21.0459
 11
59.8761
 21
-21.0051
  0
LINE
  8
0
 10
59.8761
 20
-21.0051
 11
138.124
 21
-21.0051
  0
LINE
  8
0
 10
138.124
 20
-21.0051
 11
138.368
 21
-21.0459
  0
LINE
  8
0
 10
138.368
 20
-21.0459
 11
138.603
 21
-21.1263
  0
LINE
  8
0
 10
138.603
 20
-21.1263
 11
138.82
 21
-21.2442
  0
LINE
  8
0
 10
138.82
 20
-21.2442
 11
139.016
 21
-21.3964
  0
LINE
  8
0
 10
139.016
 20
-21.3964
 11
139.184
 21
-21.5787
  0
LINE
  8
0
 10
139.184
 20
-21.5787
 11
139.319
 21
-21.7861
  0
LINE
  8
0
 10
139.319
 20
-21.7861
 11
139.419
 21
-22.0129
  0
LINE
  8
0
 10
139.419
 20
-22.0129
 11
139.48
 21
-22.2531
  0
LINE
  8
0
 10
139.48
 20
-22.2531
 11
139.5
 21
-22.5
  0
LINE
  8
0
 10
139.5
 20
-22.5
 11
139.48
 21
-22.7469
  0
LINE
  8
0
 10
139.48
 20
-22.7469
 11
139.419
 21
-22.987
  0
LINE
  8
0
 10
139.419
 20
-22.987
 11
139.319
 21
-23.2139
  0
LINE
  8
0
 10
139.319
 20
-23.2139
 11
139.184
 21
-23.4213
  0
LINE
  8
0
 10
139.184
 20
-23.4213
 11
139.016
 21
-23.6036
  0
LINE
  8
0
 10
139.016
 20
-23.6036
 11
138.82
 21
-23.7557
  0
LINE
  8
0
 10
138.82
 20
-23.7557
 11
138.603
 21
-23.8737
  0
LINE
  8
0
 10
138.603
 20
-23.8737
 11
138.368
 21
-23.9541
  0
LINE
  8
0
 10
138.368
 20
-23.9541
 11
138.124
 21
-23.9949
  0
LINE
  8
0
 10
138.124
 20
-23.9949
 11
59.8761
 21
-23.9949
  0
LINE
  8
0
 10
59.8761
 20
-31.4949
 11
59.6318
 21
-31.4541
  0
LINE
  8
0
 10
59.6318
 20
-31.4541
 11
59.3974
 21
-31.3737
  0
LINE
  8
0
 10
59.3974
 20
-31.3737
 11
59.1796
 21
-31.2557
  0
LINE
  8
0
 10
59.1796
 20
-31.2557
 11
58.9841
 21
-31.1036
  0
LINE
  8
0
 10
58.9841
 20
-31.1036
 11
58.8163
 21
-30.9213
  0
LINE
  8
0
 10
58.8163
 20
-30.9213
 11
58.6808
 21
-30.7139
  0
LINE
  8
0
 10
58.6808
 20
-30.7139
 11
58.5813
 21
-30.487
  0
LINE
  8
0
 10
58.5813
 20
-30.487
 11
58.5204
 21
-30.2469
  0
LINE
  8
0
 10
58.5204
 20
-30.2469
 11
58.5
 21
-30
  0
LINE
  8
0
 10
58.5
 20
-30
 11
58.5204
 21
-29.7531
  0
LINE
  8
0
 10
58.5204
 20
-29.7531
 11
58.5813
 21
-29.5129
  0
LINE
  8
0
 10
58.5813
 20
-29.5129
 11
58.6808
 21
-29.2861
  0
LINE
  8
0
 10
58.6808
 20
-29.2861
 11
58.8163
 21
-29.0787
  0
LINE
  8
0
 10
58.8163
 20
-29.0787
 11
58.9841
 21
-28.8964
  0
LINE
  8
0
 10
58.9841
 20
-28.8964
 11
59.1796
 21
-28.7442
  0
LINE
  8
0
 10
59.1796
 20
-28.7442
 11
59.3974
 21
-28.6263
  0
LINE
  8
0
 10
59.3974
 20
-28.6263
 11
59.6318
 21
-28.5459
  0
LINE
  8
0
 10
59.6318
 20
-28.5459
 11
59.8761
 21
-28.5051
  0
LINE
  8
0
 10
59.8761
 20
-28.5051
 11
138.124
 21
-28.5051
  0
LINE
  8
0
 10
138.124
 20
-28.5051
 11
138.368
 21
-28.5459
  0
LINE
  8
0
 10
138.368
 20
-28.5459
 11
138.603
 21
-28.6263
  0
LINE
  8
0
 10
138.603
 20
-28.6263
 11
138.82
 21
-28.7442
  0
LINE
  8
0
 10
138.82
 20
-28.7442
 11
139.016
 21
-28.8964
  0
LINE
  8
0
 10
139.016
 20
-28.8964
 11
139.184
 21
-29.0787
  0
LINE
  8
0
 10
139.184
 20
-29.0787
 11
139.319
 21
-29.2861
  0
LINE
  8
0
 10
139.319
 20
-29.2861
 11
139.419
 21
-29.5129
  0
LINE
  8
0
 10
139.419
 20
-29.5129
 11
139.48
 21
-29.7531
  0
LINE
  8
0
 10
139.48
 20
-29.7531
 11
139.5
 21
-30
  0
LINE
  8
0
 10
139.5
 20
-30
 11
139.48
 21
-30.2469
  0
LINE
  8
0
 10
139.48
 20
-30.2469
 11
139.419
 21
-30.487
  0
LINE
  8
0
 10
139.419
 20
-30.487
 11
139.319
 21
-30.7139
  0
LINE
  8
0
 10
139.319
 20
-30.7139
 11
139.184
 21
-30.9213
  0
LINE
  8
0
 10
139.184
 20
-30.9213
 11
139.016
 21
-31.1036
  0
LINE
  8
0
 10
139.016
 20
-31.1036
 11
138.82
 21
-31.2557
  0
LINE
  8
0
 10
138.82
 20
-31.2557
 11
138.603
 21
-31.3737
  0
LINE
  8
0
 10
138.603
 20
-31.3737
 11
138.368
 21
-31.4541
  0
LINE
  8
0
 10
138.368
 20
-31.4541
 11
138.124
 21
-31.4949
  0
LINE
  8
0
 10
138.124
 20
-31.4949
 11
59.8761
 21
-31.4949
  0
LINE
  8
0
 10
59.8761
 20
-38.9949
 11
59.6318
 21
-38.9541
  0
LINE
  8
0
 10
59.6318
 20
-38.9541
 11
59.3974
 21
-38.8737
  0
LINE
  8
0
 10
59.3974
 20
-38.8737
 11
59.1796
 21
-38.7558
  0
LINE
  8
0
 10
59.1796
 20
-38.7558
 11
58.9841
 21
-38.6036
  0
LINE
  8
0
 10
58.9841
 20
-38.6036
 11
58.8163
 21
-38.4213
  0
LINE
  8
0
 10
58.8163
 20
-38.4213
 11
58.6808
 21
-38.2139
  0
LINE
  8
0
 10
58.6808
 20
-38.2139
 11
58.5813
 21
-37.987
  0
LINE
  8
0
 10
58.5813
 20
-37.987
 11
58.5204
 21
-37.7469
  0
LINE
  8
0
 10
58.5204
 20
-37.7469
 11
58.5
 21
-37.5
  0
LINE
  8
0
 10
58.5
 20
-37.5
 11
58.5204
 21
-37.2531
  0
LINE
  8
0
 10
58.5204
 20
-37.2531
 11
58.5813
 21
-37.0129
  0
LINE
  8
0
 10
58.5813
 20
-37.0129
 11
58.6808
 21
-36.7861
  0
LINE
  8
0
 10
58.6808
 20
-36.7861
 11
58.8163
 21
-36.5787
  0
LINE
  8
0
 10
58.8163
 20
-36.5787
 11
58.9841
 21
-36.3964
  0
LINE
  8
0
 10
58.9841
 20
-36.3964
 11
59.1796
 21
-36.2442
  0
LINE
  8
0
 10
59.1796
 20
-36.2442
 11
59.3974
 21
-36.1263
  0
LINE
  8
0
 10
59.3974
 20
-36.1263
 11
59.6318
 21
-36.0459
  0
LINE
  8
0
 10
59.6318
 20
-36.0459
 11
59.8761
 21
-36.0051
  0
LINE
  8
0
 10
59.8761
 20
-36.0051
 11
138.124
 21
-36.0051
  0
LINE
  8
0
 10
138.124
 20
-36.0051
 11
138.368
 21
-36.0459
  0
LINE
  8
0
 10
138.368
 20
-36.0459
 11
138.603
 21
-36.1263
  0
LINE
  8
0
 10
138.603
 20
-36.1263
 11
138.82
 21
-36.2442
  0
LINE
  8
0
 10
138.82
 20
-36.2442
 11
139.016
 21
-36.3964
  0
LINE
  8
0
 10
139.016
 20
-36.3964
 11
139.184
 21
-36.5787
  0
LINE
  8
0
 10
139.184
 20
-36.5787
 11
139.319
 21
-36.7861
  0
LINE
  8
0
 10
139.319
 20
-36.7861
 11
139.419
 21
-37.0129
  0
LINE
  8
0
 10
139.419
 20
-37.0129
 11
139.48
 21
-37.2531
  0
LINE
  8
0
 10
139.48
 20
-37.2531
 11
139.5
 21
-37.5
  0
LINE
  8
0
 10
139.5
 20
-37.5
 11
139.48
 21
-37.7469
  0
LINE
  8
0
 10
139.48
 20
-37.7469
 11
139.419
 21
-37.987
  0
LINE
  8
0
 10
139.419
 20
-37.987
 11
139.319
 21
-38.2139
  0
LINE
  8
0
 10
139.319
 20
-38.2139
 11
139.184
 21
-38.4213
  0
LINE
  8
0
 10
139.184
 20
-38.4213
 11
139.016
 21
-38.6036
  0
LINE
  8
0
 10
139.016
 20
-38.6036
 11
138.82
 21
-38.7558
  0
LINE
  8
0
 10
138.82
 20
-38.7558
 11
138.603
 21
-38.8737
  0
LINE
  8
0
 10
138.603
 20
-38.8737
 11
138.368
 21
-38.9541
  0
LINE
  8
0
 10
138.368
 20
-38.9541
 11
138.124
 21
-38.9949
  0
LINE
  8
0
 10
138.124
 20
-38.9949
 11
59.8761
 21
-38.9949
  0
LINE
  8
0
 10
59.8761
 20
-46.4949
 11
59.6318
 21
-46.4541
  0
LINE
  8
0
 10
59.6318
 20
-46.4541
 11
59.3974
 21
-46.3737
  0
LINE
  8
0
 10
59.3974
 20
-46.3737
 11
59.1796
 21
-46.2558
  0
LINE
  8
0
 10
59.1796
 20
-46.2558
 11
58.9841
 21
-46.1036
  0
LINE
  8
0
 10
58.9841
 20
-46.1036
 11
58.8163
 21
-45.9213
  0
LINE
  8
0
 10
58.8163
 20
-45.9213
 11
58.6808
 21
-45.7139
  0
LINE
  8
0
 10
58.6808
 20
-45.7139
 11
58.5813
 21
-45.487
  0
LINE
  8
0
 10
58.5813
 20
-45.487
 11
58.5204
 21
-45.2469
  0
LINE
  8
0
 10
58.5204
 20
-45.2469
 11
58.5
 21
-45
  0
LINE
  8
0
 10
58.5
 20
-45
 11
58.5204
 21
-44.7531
  0
LINE
  8
0
 10
58.5204
 20
-44.7531
 11
58.5813
 21
-44.5129
  0
LINE
  8
0
 10
58.5813
 20
-44.5129
 11
58.6808
 21
-44.2861
  0
LINE
  8
0
 10
58.6808
 20
-44.2861
 11
58.8163
 21
-44.0787
  0
LINE
  8
0
 10
58.8163
 20
-44.0787
 11
58.9841
 21
-43.8964
  0
LINE
  8
0
 10
58.9841
 20
-43.8964
 11
59.1796
 21
-43.7442
  0
LINE
  8
0
 10
59.1796
 20
-43.7442
 11
59.3974
 21
-43.6263
  0
LINE
  8
0
 10
59.3974
 20
-43.6263
 11
59.6318
 21
-43.5459
  0
LINE
  8
0
 10
59.6318
 20
-43.5459
 11
59.8761
 21
-43.5051
  0
LINE
  8
0
 10
59.8761
 20
-43.5051
 11
138.124
 21
-43.5051
  0
LINE
  8
0
 10
138.124
 20
-43.5051
 11
138.368
 21
-43.5459
  0
LINE
  8
0
 10
138.368
 20
-43.5459
 11
138.603
 21
-43.6263
  0
LINE
  8
0
 10
138.603
 20
-43.6263
 11
138.82
 21
-43.7442
  0
LINE
  8
0
 10
138.82
 20
-43.7442
 11
139.016
 21
-43.8964
  0
LINE
  8
0
 10
139.016
 20
-43.8964
 11
139.184
 21
-44.0787
  0
LINE
  8
0
 10
139.184
 20
-44.0787
 11
139.319
 21
-44.2861
  0
LINE
  8
0
 10
139.319
 20
-44.2861
 11
139.419
 21
-44.5129
  0
LINE
  8
0
 10
139.419
 20
-44.5129
 11
139.48
 21
-44.7531
  0
LINE
  8
0
 10
139.48
 20
-44.7531
 11
139.5
 21
-45
  0
LINE
  8
0
 10
139.5
 20
-45
 11
139.48
 21
-45.2469
  0
LINE
  8
0
 10
139.48
 20
-45.2469
 11
139.419
 21
-45.487
  0
LINE
  8
0
 10
139.419
 20
-45.487
 11
139.319
 21
-45.7139
  0
LINE
  8
0
 10
139.319
 20
-45.7139
 11
139.184
 21
-45.9213
  0
LINE
  8
0
 10
139.184
 20
-45.9213
 11
139.016
 21
-46.1036
  0
LINE
  8
0
 10
139.016
 20
-46.1036
 11
138.82
 21
-46.2558
  0
LINE
  8
0
 10
138.82
 20
-46.2558
 11
138.603
 21
-46.3737
  0
LINE
  8
0
 10
138.603
 20
-46.3737
 11
138.368
 21
-46.4541
  0
LINE
  8
0
 10
138.368
 20
-46.4541
 11
138.124
 21
-46.4949
  0
LINE
  8
0
 10
138.124
 20
-46.4949
 11
59.8761
 21
-46.4949
  0
LINE
  8
0
 10
59.8761
 20
-53.9949
 11
59.6318
 21
-53.9541
  0
LINE
  8
0
 10
59.6318
 20
-53.9541
 11
59.3974
 21
-53.8737
  0
LINE
  8
0
 10
59.3974
 20
-53.8737
 11
59.1796
 21
-53.7558
  0
LINE
  8
0
 10
59.1796
 20
-53.7558
 11
58.9841
 21
-53.6036
  0
LINE
  8
0
 10
58.9841
 20
-53.6036
 11
58.8163
 21
-53.4213
  0
LINE
  8
0
 10
58.8163
 20
-53.4213
 11
58.6808
 21
-53.2139
  0
LINE
  8
0
 10
58.6808
 20
-53.2139
 11
58.5813
 21
-52.987
  0
LINE
  8
0
 10
58.5813
 20
-52.987
 11
58.5204
 21
-52.7469
  0
LINE
  8
0
 10
58.5204
 20
-52.7469
 11
58.5
 21
-52.5
  0
LINE
  8
0
 10
58.5
 20
-52.5
 11
58.5204
 21
-52.2531
  0
LINE
  8
0
 10
58.5204
 20
-52.2531
 11
58.5813
 21
-52.0129
  0
LINE
  8
0
 10
58.5813
 20
-52.0129
 11
58.6808
 21
-51.7861
  0
LINE
  8
0
 10
58.6808
 20
-51.7861
 11
58.8163
 21
-51.5787
  0
LINE
  8
0
 10
58.8163
 20
-51.5787
 11
58.9841
 21
-51.3964
  0
LINE
  8
0
 10
58.9841
 20
-51.3964
 11
59.1796
 21
-51.2442
  0
LINE
  8
0
 10
59.1796
 20
-51.2442
 11
59.3974
 21
-51.1263
  0
LINE
  8
0
 10
59.3974
 20
-51.1263
 11
59.6318
 21
-51.0459
  0
LINE
  8
0
 10
59.6318
 20
-51.0459
 11
59.8761
 21
-51.0051
  0
LINE
  8
0
 10
59.8761
 20
-51.0051
 11
138.124
 21
-51.0051
  0
LINE
  8
0
 10
138.124
 20
-51.0051
 11
138.368
 21
-51.0459
  0
LINE
  8
0
 10
138.368
 20
-51.0459
 11
138.603
 21
-51.1263
  0
LINE
  8
0
 10
138.603
 20
-51.1263
 11
138.82
 21
-51.2442
  0
LINE
  8
0
 10
138.82
 20
-51.2442
 11
139.016
 21
-51.3964
  0
LINE
  8
0
 10
139.016
 20
-51.3964
 11
139.184
 21
-51.5787
  0
LINE
  8
0
 10
139.184
 20
-51.5787
 11
139.319
 21
-51.7861
  0
LINE
  8
0
 10
139.319
 20
-51.7861
 11
139.419
 21
-52.0129
  0
LINE
  8
0
 10
139.419
 20
-52.0129
 11
139.48
 21
-52.2531
  0
LINE
  8
0
 10
139.48
 20
-52.2531
 11
139.5
 21
-52.5
  0
LINE
  8
0
 10
139.5
 20
-52.5
 11
139.48
 21
-52.7469
  0
LINE
  8
0
 10
139.48
 20
-52.7469
 11
139.419
 21
-52.987
  0
LINE
  8
0
 10
139.419
 20
-52.987
 11
139.319
 21
-53.2139
  0
LINE
  8
0
 10
139.319
 20
-53.2139
 11
139.184
 21
-53.4213
  0
LINE
  8
0
 10
139.184
 20
-53.4213
 11
139.016
 21
-53.6036
  0
LINE
  8
0
 10
139.016
 20
-53.6036
 11
138.82
 21
-53.7558
  0
LINE
  8
0
 10
138.82
 20
-53.7558
 11
138.603
 21
-53.8737
  0
LINE
  8
0
 10
138.603
 20
-53.8737
 11
138.368
 21
-53.9541
  0
LINE
  8
0
 10
138.368
 20
-53.9541
 11
138.124
 21
-53.9949
  0
LINE
  8
0
 10
138.124
 20
-53.9949
 11
59.8761
 21
-53.9949
  0
LINE
  8
0
 10
59.8761
 20
-61.4949
 11
59.6318
 21
-61.4541
  0
LINE
  8
0
 10
59.6318
 20
-61.4541
 11
59.3974
 21
-61.3737
  0
LINE
  8
0
 10
59.3974
 20
-61.3737
 11
59.1796
 21
-61.2558
  0
LINE
  8
0
 10
59.1796
 20
-61.2558
 11
58.9841
 21
-61.1036
  0
LINE
  8
0
 10
58.9841
 20
-61.1036
 11
58.8163
 21
-60.9213
  0
LINE
  8
0
 10
58.8163
 20
-60.9213
 11
58.6808
 21
-60.7139
  0
LINE
  8
0
 10
58.6808
 20
-60.7139
 11
58.5813
 21
-60.487
  0
LINE
  8
0
 10
58.5813
 20
-60.487
 11
58.5204
 21
-60.2469
  0
LINE
  8
0
 10
58.5204
 20
-60.2469
 11
58.5
 21
-60
  0
LINE
  8
0
 10
58.5
 20
-60
 11
58.5204
 21
-59.7531
  0
LINE
  8
0
 10
58.5204
 20
-59.7531
 11
58.5813
 21
-59.5129
  0
LINE
  8
0
 10
58.5813
 20
-59.5129
 11
58.6808
 21
-59.2861
  0
LINE
  8
0
 10
58.6808
 20
-59.2861
 11
58.8163
 21
-59.0787
  0
LINE
  8
0
 10
58.8163
 20
-59.0787
 11
58.9841
 21
-58.8964
  0
LINE
  8
0
 10
58.9841
 20
-58.8964
 11
59.1796
 21
-58.7442
  0
LINE
  8
0
 10
59.1796
 20
-58.7442
 11
59.3974
 21
-58.6263
  0
LINE
  8
0
 10
59.3974
 20
-58.6263
 11
59.6318
 21
-58.5459
  0
LINE
  8
0
 10
59.6318
 20
-58.5459
 11
59.8761
 21
-58.5051
  0
LINE
  8
0
 10
59.8761
 20
-58.5051
 11
138.124
 21
-58.5051
  0
LINE
  8
0
 10
138.124
 20
-58.5051
 11
138.368
 21
-58.5459
  0
LINE
  8
0
 10
138.368
 20
-58.5459
 11
138.603
 21
-58.6263
  0
LINE
  8
0
 10
138.603
 20
-58.6263
 11
138.82
 21
-58.7442
  0
LINE
  8
0
 10
138.82
 20
-58.7442
 11
139.016
 21
-58.8964
  0
LINE
  8
0
 10
139.016
 20
-58.8964
 11
139.184
 21
-59.0787
  0
LINE
  8
0
 10
139.184
 20
-59.0787
 11
139.319
 21
-59.2861
  0
LINE
  8
0
 10
139.319
 20
-59.2861
 11
139.419
 21
-59.5129
  0
LINE
  8
0
 10
139.419
 20
-59.5129
 11
139.48
 21
-59.7531
  0
LINE
  8
0
 10
139.48
 20
-59.7531
 11
139.5
 21
-60
  0
LINE
  8
0
 10
139.5
 20
-60
 11
139.48
 21
-60.2469
  0
LINE
  8
0
 10
139.48
 20
-60.2469
 11
139.419
 21
-60.487
  0
LINE
  8
0
 10
139.419
 20
-60.487
 11
139.319
 21
-60.7139
  0
LINE
  8
0
 10
139.319
 20
-60.7139
 11
139.184
 21
-60.9213
  0
LINE
  8
0
 10
139.184
 20
-60.9213
 11
139.016
 21
-61.1036
  0
LINE
  8
0
 10
139.016
 20
-61.1036
 11
138.82
 21
-61.2558
  0
LINE
  8
0
 10
138.82
 20
-61.2558
 11
138.603
 21
-61.3737
  0
LINE
  8
0
 10
138.603
 20
-61.3737
 11
138.368
 21
-61.4541
  0
LINE
  8
0
 10
138.368
 20
-61.4541
 11
138.124
 21
-61.4949
  0
LINE
  8
0
 10
138.124
 20
-61.4949
 11
59.8761
 21
-61.4949
  0
LINE
  8
0
 10
59.8761
 20
-68.9949
 11
59.6318
 21
-68.9541
  0
LINE
  8
0
 10
59.6318
 20
-68.9541
 11
59.3974
 21
-68.8737
  0
LINE
  8
0
 10
59.3974
 20
-68.8737
 11
59.1796
 21
-68.7558
  0
LINE
  8
0
 10
59.1796
 20
-68.7558
 11
58.9841
 21
-68.6036
  0
LINE
  8
0
 10
58.9841
 20
-68.6036
 11
58.8163
 21
-68.4213
  0
LINE
  8
0
 10
58.8163
 20
-68.4213
 11
58.6808
 21
-68.2139
  0
LINE
  8
0
 10
58.6808
 20
-68.2139
 11
58.5813
 21
-67.987
  0
LINE
  8
0
 10
58.5813
 20
-67.987
 11
58.5204
 21
-67.7469
  0
LINE
  8
0
 10
58.5204
 20
-67.7469
 11
58.5
 21
-67.5
  0
LINE
  8
0
 10
58.5
 20
-67.5
 11
58.5204
 21
-67.2531
  0
LINE
  8
0
 10
58.5204
 20
-67.2531
 11
58.5813
 21
-67.013
  0
LINE
  8
0
 10
58.5813
 20
-67.013
 11
58.6808
 21
-66.7861
  0
LINE
  8
0
 10
58.6808
 20
-66.7861
 11
58.8163
 21
-66.5787
  0
LINE
  8
0
 10
58.8163
 20
-66.5787
 11
58.9841
 21
-66.3964
  0
LINE
  8
0
 10
58.9841
 20
-66.3964
 11
59.1796
 21
-66.2442
  0
LINE
  8
0
 10
59.1796
 20
-66.2442
 11
59.3974
 21
-66.1263
  0
LINE
  8
0
 10
59.3974
 20
-66.1263
 11
59.6318
 21
-66.0459
  0
LINE
  8
0
 10
59.6318
 20
-66.0459
 11
59.8761
 21
-66.0051
  0
LINE
  8
0
 10
59.8761
 20
-66.0051
 11
138.124
 21
-66.0051
  0
LINE
  8
0
 10
138.124
 20
-66.0051
 11
138.368
 21
-66.0459
  0
LINE
  8
0
 10
138.368
 20
-66.0459
 11
138.603
 21
-66.1263
  0
LINE
  8
0
 10
138.603
 20
-66.1263
 11
138.82
 21
-66.2442
  0
LINE
  8
0
 10
138.82
 20
-66.2442
 11
139.016
 21
-66.3964
  0
LINE
  8
0
 10
139.016
 20
-66.3964
 11
139.184
 21
-66.5787
  0
LINE
  8
0
 10
139.184
 20
-66.5787
 11
139.319
 21
-66.7861
  0
LINE
  8
0
 10
139.319
 20
-66.7861
 11
139.419
 21
-67.013
  0
LINE
  8
0
 10
139.419
 20
-67.013
 11
139.48
 21
-67.2531
  0
LINE
  8
0
 10
139.48
 20
-67.2531
 11
139.5
 21
-67.5
  0
LINE
  8
0
 10
139.5
 20
-67.5
 11
139.48
 21
-67.7469
  0
LINE
  8
0
 10
139.48
 20
-67.7469
 11
139.419
 21
-67.987
  0
LINE
  8
0
 10
139.419
 20
-67.987
 11
139.319
 21
-68.2139
  0
LINE
  8
0
 10
139.319
 20
-68.2139
 11
139.184
 21
-68.4213
  0
LINE
  8
0
 10
139.184
 20
-68.4213
 11
139.016
 21
-68.6036
  0
LINE
  8
0
 10
139.016
 20
-68.6036
 11
138.82
 21
-68.7558
  0
LINE
  8
0
 10
138.82
 20
-68.7558
 11
138.603
 21
-68.8737
  0
LINE
  8
0
 10
138.603
 20
-68.8737
 11
138.368
 21
-68.9541
  0
LINE
  8
0
 10
138.368
 20
-68.9541
 11
138.124
 21
-68.9949
  0
LINE
  8
0
 10
138.124
 20
-68.9949
 11
59.8761
 21
-68.9949
  0
LINE
  8
0
 10
59.8761
 20
-76.4949
 11
59.6318
 21
-76.4541
  0
LINE
  8
0
 10
59.6318
 20
-76.4541
 11
59.3974
 21
-76.3737
  0
LINE
  8
0
 10
59.3974
 20
-76.3737
 11
59.1796
 21
-76.2558
  0
LINE
  8
0
 10
59.1796
 20
-76.2558
 11
58.9841
 21
-76.1036
  0
LINE
  8
0
 10
58.9841
 20
-76.1036
 11
58.8163
 21
-75.9213
  0
LINE
  8
0
 10
58.8163
 20
-75.9213
 11
58.6808
 21
-75.7139
  0
LINE
  8
0
 10
58.6808
 20
-75.7139
 11
58.5813
 21
-75.487
  0
LINE
  8
0
 10
58.5813
 20
-75.487
 11
58.5204
 21
-75.2469
  0
LINE
  8
0
 10
58.5204
 20
-75.2469
 11
58.5
 21
-75
  0
LINE
  8
0
 10
58.5
 20
-75
 11
58.5204
 21
-74.7531
  0
LINE
  8
0
 10
58.5204
 20
-74.7531
 11
58.5813
 21
-74.513
  0
LINE
  8
0
 10
58.5813
 20
-74.513
 11
58.6808
 21
-74.2861
  0
LINE
  8
0
 10
58.6808
 20
-74.2861
 11
58.8163
 21
-74.0787
  0
LINE
  8
0
 10
58.8163
 20
-74.0787
 11
58.9841
 21
-73.8964
  0
LINE
  8
0
 10
58.9841
 20
-73.8964
 11
59.1796
 21
-73.7442
  0
LINE
  8
0
 10
59.1796
 20
-73.7442
 11
59.3974
 21
-73.6263
  0
LINE
  8
0
 10
59.3974
 20
-73.6263
 11
59.6318
 21
-73.5459
  0
LINE
  8
0
 10
59.6318
 20
-73.5459
 11
59.8761
 21
-73.5051
  0
LINE
  8
0
 10
59.8761
 20
-73.5051
 11
138.124
 21
-73.5051
  0
LINE
  8
0
 10
138.124
 20
-73.5051
 11
138.368
 21
-73.5459
  0
LINE
  8
0
 10
138.368
 20
-73.5459
 11
138.603
 21
-73.6263
  0
LINE
  8
0
 10
138.603
 20
-73.6263
 11
138.82
 21
-73.7442
  0
LINE
  8
0
 10
138.82
 20
-73.7442
 11
139.016
 21
-73.8964
  0
LINE
  8
0
 10
139.016
 20
-73.8964
 11
139.184
 21
-74.0787
  0
LINE
  8
0
 10
139.184
 20
-74.0787
 11
139.319
 21
-74.2861
  0
LINE
  8
0
 10
139.319
 20
-74.2861
 11
139.419
 21
-74.513
  0
LINE
  8
0
 10
139.419
 20
-74.513
 11
139.48
 21
-74.7531
  0
LINE
  8
0
 10
139.48
 20
-74.7531
 11
139.5
 21
-75
  0
LINE
  8
0
 10
139.5
 20
-75
 11
139.48
 21
-75.2469
  0
LINE
  8
0
 10
139.48
 20
-75.2469
 11
139.419
 21
-75.487
  0
LINE
  8
0
 10
139.419
 20
-75.487
 11
139.319
 21
-75.7139
  0
LINE
  8
0
 10
139.319
 20
-75.7139
 11
139.184
 21
-75.9213
  0
LINE
  8
0
 10
139.184
 20
-75.9213
 11
139.016
 21
-76.1036
  0
LINE
  8
0
 10
139.016
 20
-76.1036
 11
138.82
 21
-76.2558
  0
LINE
  8
0
 10
138.82
 20
-76.2558
 11
138.603
 21
-76.3737
  0
LINE
  8
0
 10
138.603
 20
-76.3737
 11
138.368
 21
-76.4541
  0
LINE
  8
0
 10
138.368
 20
-76.4541
 11
138.124
 21
-76.4949
  0
LINE
  8
0
 10
138.124
 20
-76.4949
 11
59.8761
 21
-76.4949
  0
LINE
  8
0
 10
-185.748
 20
-157.862
 11
-185.994
 21
-157.823
  0
LINE
  8
0
 10
-185.994
 20
-157.823
 11
-186.234
 21
-157.759
  0
LINE
  8
0
 10
-186.234
 20
-157.759
 11
-186.466
 21
-157.67
  0
LINE
  8
0
 10
-186.466
 20
-157.67
 11
-186.688
 21
-157.557
  0
LINE
  8
0
 10
-186.688
 20
-157.557
 11
-186.896
 21
-157.421
  0
LINE
  8
0
 10
-186.896
 20
-157.421
 11
-187.089
 21
-157.265
  0
LINE
  8
0
 10
-187.089
 20
-157.265
 11
-187.265
 21
-157.089
  0
LINE
  8
0
 10
-187.265
 20
-157.089
 11
-187.421
 21
-156.896
  0
LINE
  8
0
 10
-187.421
 20
-156.896
 11
-187.557
 21
-156.688
  0
LINE
  8
0
 10
-187.557
 20
-156.688
 11
-187.67
 21
-156.466
  0
LINE
  8
0
 10
-187.67
 20
-156.466
 11
-187.759
 21
-156.234
  0
LINE
  8
0
 10
-187.759
 20
-156.234
 11
-187.823
 21
-155.994
  0
LINE
  8
0
 10
-187.823
 20
-155.994
 11
-187.862
 21
-155.748
  0
LINE
  8
0
 10
-187.862
 20
-155.748
 11
-187.875
 21
-155.5
  0
LINE
  8
0
 10
-187.875
 20
-155.5
 11
-187.862
 21
-155.252
  0
LINE
  8
0
 10
-187.862
 20
-155.252
 11
-187.823
 21
-155.006
  0
LINE
  8
0
 10
-187.823
 20
-155.006
 11
-187.759
 21
-154.766
  0
LINE
  8
0
 10
-187.759
 20
-154.766
 11
-187.67
 21
-154.534
  0
LINE
  8
0
 10
-187.67
 20
-154.534
 11
-187.557
 21
-154.312
  0
LINE
  8
0
 10
-187.557
 20
-154.312
 11
-187.421
 21
-154.104
  0
LINE
  8
0
 10
-187.421
 20
-154.104
 11
-187.265
 21
-153.911
  0
LINE
  8
0
 10
-187.265
 20
-153.911
 11
-187.089
 21
-153.735
  0
LINE
  8
0
 10
-187.089
 20
-153.735
 11
-186.896
 21
-153.579
  0
LINE
  8
0
 10
-186.896
 20
-153.579
 11
-186.688
 21
-153.443
  0
LINE
  8
0
 10
-186.688
 20
-153.443
 11
-186.466
 21
-153.33
  0
LINE
  8
0
 10
-186.466
 20
-153.33
 11
-186.234
 21
-153.241
  0
LINE
  8
0
 10
-186.234
 20
-153.241
 11
-185.994
 21
-153.177
  0
LINE
  8
0
 10
-185.994
 20
-153.177
 11
-185.748
 21
-153.138
  0
LINE
  8
0
 10
-185.748
 20
-153.138
 11
-185.5
 21
-153.125
  0
LINE
  8
0
 10
-185.5
 20
-153.125
 11
-185.252
 21
-153.138
  0
LINE
  8
0
 10
-185.252
 20
-153.138
 11
-185.006
 21
-153.177
  0
LINE
  8
0
 10
-185.006
 20
-153.177
 11
-184.766
 21
-153.241
  0
LINE
  8
0
 10
-184.766
 20
-153.241
 11
-184.534
 21
-153.33
  0
LINE
  8
0
 10
-184.534
 20
-153.33
 11
-184.312
 21
-153.443
  0
LINE
  8
0
 10
-184.312
 20
-153.443
 11
-184.104
 21
-153.579
  0
LINE
  8
0
 10
-184.104
 20
-153.579
 11
-183.911
 21
-153.735
  0
LINE
  8
0
 10
-183.911
 20
-153.735
 11
-183.735
 21
-153.911
  0
LINE
  8
0
 10
-183.735
 20
-153.911
 11
-183.579
 21
-154.104
  0
LINE
  8
0
 10
-183.579
 20
-154.104
 11
-183.443
 21
-154.312
  0
LINE
  8
0
 10
-183.443
 20
-154.312
 11
-183.33
 21
-154.534
  0
LINE
  8
0
 10
-183.33
 20
-154.534
 11
-183.241
 21
-154.766
  0
LINE
  8
0
 10
-183.241
 20
-154.766
 11
-183.177
 21
-155.006
  0
LINE
  8
0
 10
-183.177
 20
-155.006
 11
-183.138
 21
-155.252
  0
LINE
  8
0
 10
-183.138
 20
-155.252
 11
-183.125
 21
-155.5
  0
LINE
  8
0
 10
-183.125
 20
-155.5
 11
-183.138
 21
-155.748
  0
LINE
  8
0
 10
-183.138
 20
-155.748
 11
-183.177
 21
-155.994
  0
LINE
  8
0
 10
-183.177
 20
-155.994
 11
-183.241
 21
-156.234
  0
LINE
  8
0
 10
-183.241
 20
-156.234
 11
-183.33
 21
-156.466
  0
LINE
  8
0
 10
-183.33
 20
-156.466
 11
-183.443
 21
-156.688
  0
LINE
  8
0
 10
-183.443
 20
-156.688
 11
-183.579
 21
-156.896
  0
LINE
  8
0
 10
-183.579
 20
-156.896
 11
-183.735
 21
-157.089
  0
LINE
  8
0
 10
-183.735
 20
-157.089
 11
-183.911
 21
-157.265
  0
LINE
  8
0
 10
-183.911
 20
-157.265
 11
-184.104
 21
-157.421
  0
LINE
  8
0
 10
-184.104
 20
-157.421
 11
-184.312
 21
-157.557
  0
LINE
  8
0
 10
-184.312
 20
-157.557
 11
-184.534
 21
-157.67
  0
LINE
  8
0
 10
-184.534
 20
-157.67
 11
-184.766
 21
-157.759
  0
LINE
  8
0
 10
-184.766
 20
-157.759
 11
-185.006
 21
-157.823
  0
LINE
  8
0
 10
-185.006
 20
-157.823
 11
-185.252
 21
-157.862
  0
LINE
  8
0
 10
-185.252
 20
-157.862
 11
-185.5
 21
-157.875
  0
LINE
  8
0
 10
-185.5
 20
-157.875
 11
-185.748
 21
-157.862
  0
LINE
  8
0
 10
185.252
 20
-157.862
 11
185.006
 21
-157.823
  0
LINE
  8
0
 10
185.006
 20
-157.823
 11
184.766
 21
-157.759
  0
LINE
  8
0
 10
184.766
 20
-157.759
 11
184.534
 21
-157.67
  0
LINE
  8
0
 10
184.534
 20
-157.67
 11
184.312
 21
-157.557
  0
LINE
  8
0
 10
184.312
 20
-157.557
 11
184.104
 21
-157.421
  0
LINE
  8
0
 10
184.104
 20
-157.421
 11
183.911
 21
-157.265
  0
LINE
  8
0
 10
183.911
 20
-157.265
 11
183.735
 21
-157.089
  0
LINE
  8
0
 10
183.735
 20
-157.089
 11
183.579
 21
-156.896
  0
LINE
  8
0
 10
183.579
 20
-156.896
 11
183.443
 21
-156.688
  0
LINE
  8
0
 10
183.443
 20
-156.688
 11
183.33
 21
-156.466
  0
LINE
  8
0
 10
183.33
 20
-156.466
 11
183.241
 21
-156.234
  0
LINE
  8
0
 10
183.241
 20
-156.234
 11
183.177
 21
-155.994
  0
LINE
  8
0
 10
183.177
 20
-155.994
 11
183.138
 21
-155.748
  0
LINE
  8
0
 10
183.138
 20
-155.748
 11
183.125
 21
-155.5
  0
LINE
  8
0
 10
183.125
 20
-155.5
 11
183.138
 21
-155.252
  0
LINE
  8
0
 10
183.138
 20
-155.252
 11
183.177
 21
-155.006
  0
LINE
  8
0
 10
183.177
 20
-155.006
 11
183.241
 21
-154.766
  0
LINE
  8
0
 10
183.241
 20
-154.766
 11
183.33
 21
-154.534
  0
LINE
  8
0
 10
183.33
 20
-154.534
 11
183.443
 21
-154.312
  0
LINE
  8
0
 10
183.443
 20
-154.312
 11
183.579
 21
-154.104
  0
LINE
  8
0
 10
183.579
 20
-154.104
 11
183.735
 21
-153.911
  0
LINE
  8
0
 10
183.735
 20
-153.911
 11
183.911
 21
-153.735
  0
LINE
  8
0
 10
183.911
 20
-153.735
 11
184.104
 21
-153.579
  0
LINE
  8
0
 10
184.104
 20
-153.579
 11
184.312
 21
-153.443
  0
LINE
  8
0
 10
184.312
 20
-153.443
 11
184.534
 21
-153.33
  0
LINE
  8
0
 10
184.534
 20
-153.33
 11
184.766
 21
-153.241
  0
LINE
  8
0
 10
184.766
 20
-153.241
 11
185.006
 21
-153.177
  0
LINE
  8
0
 10
185.006
 20
-153.177
 11
185.252
 21
-153.138
  0
LINE
  8
0
 10
185.252
 20
-153.138
 11
185.5
 21
-153.125
  0
LINE
  8
0
 10
185.5
 20
-153.125
 11
185.748
 21
-153.138
  0
LINE
  8
0
 10
185.748
 20
-153.138
 11
185.994
 21
-153.177
  0
LINE
  8
0
 10
185.994
 20
-153.177
 11
186.234
 21
-153.241
  0
LINE
  8
0
 10
186.234
 20
-153.241
 11
186.466
 21
-153.33
  0
LINE
  8
0
 10
186.466
 20
-153.33
 11
186.688
 21
-153.443
  0
LINE
  8
0
 10
186.688
 20
-153.443
 11
186.896
 21
-153.579
  0
LINE
  8
0
 10
186.896
 20
-153.579
 11
187.089
 21
-153.735
  0
LINE
  8
0
 10
187.089
 20
-153.735
 11
187.265
 21
-153.911
  0
LINE
  8
0
 10
187.265
 20
-153.911
 11
187.421
 21
-154.104
  0
LINE
  8
0
 10
187.421
 20
-154.104
 11
187.557
 21
-154.312
  0
LINE
  8
0
 10
187.557
 20
-154.312
 11
187.67
 21
-154.534
  0
LINE
  8
0
 10
187.67
 20
-154.534
 11
187.759
 21
-154.766
  0
LINE
  8
0
 10
187.759
 20
-154.766
 11
187.823
 21
-155.006
  0
LINE
  8
0
 10
187.823
 20
-155.006
 11
187.862
 21
-155.252
  0
LINE
  8
0
 10
187.862
 20
-155.252
 11
187.875
 21
-155.5
  0
LINE
  8
0
 10
187.875
 20
-155.5
 11
187.862
 21
-155.748
  0
LINE
  8
0
 10
187.862
 20
-155.748
 11
187.823
 21
-155.994
  0
LINE
  8
0
 10
187.823
 20
-155.994
 11
187.759
 21
-156.234
  0
LINE
  8
0
 10
187.759
 20
-156.234
 11
187.67
 21
-156.466
  0
LINE
  8
0
 10
187.67
 20
-156.466
 11
187.557
 21
-156.688
  0
LINE
  8
0
 10
187.557
 20
-156.688
 11
187.421
 21
-156.896
  0
LINE
  8
0
 10
187.421
 20
-156.896
 11
187.265
 21
-157.089
  0
LINE
  8
0
 10
187.265
 20
-157.089
 11
187.089
 21
-157.265
  0
LINE
  8
0
 10
187.089
 20
-157.265
 11
186.896
 21
-157.421
  0
LINE
  8
0
 10
186.896
 20
-157.421
 11
186.688
 21
-157.557
  0
LINE
  8
0
 10
186.688
 20
-157.557
 11
186.466
 21
-157.67
  0
LINE
  8
0
 10
186.466
 20
-157.67
 11
186.234
 21
-157.759
  0
LINE
  8
0
 10
186.234
 20
-157.759
 11
185.994
 21
-157.823
  0
LINE
  8
0
 10
185.994
 20
-157.823
 11
185.748
 21
-157.862
  0
LINE
  8
0
 10
185.748
 20
-157.862
 11
185.5
 21
-157.875
  0
LINE
  8
0
 10
185.5
 20
-157.875
 11
185.252
 21
-157.862
  0
ENDSEC
  0
SECTION
  2
OBJECTS
  0
DICTIONARY
  0
ENDSEC
  0
EOF
