  0
SECTION
  2
BLOCKS
  0
ENDSEC
  0
SECTION
  2
ENTITIES
  0
LINE
  8
0
 10
225.898
 20
-92.3476
 11
226.415
 21
-92.2657
  0
LINE
  8
0
 10
226.415
 20
-92.2657
 11
226.92
 21
-92.1303
  0
LINE
  8
0
 10
226.92
 20
-92.1303
 11
227.409
 21
-91.9427
  0
LINE
  8
0
 10
227.409
 20
-91.9427
 11
227.875
 21
-91.7051
  0
LINE
  8
0
 10
227.875
 20
-91.7051
 11
228.314
 21
-91.4201
  0
LINE
  8
0
 10
228.314
 20
-91.4201
 11
228.721
 21
-91.0907
  0
LINE
  8
0
 10
228.721
 20
-91.0907
 11
229.091
 21
-90.7207
  0
LINE
  8
0
 10
229.091
 20
-90.7207
 11
229.42
 21
-90.3139
  0
LINE
  8
0
 10
229.42
 20
-90.3139
 11
229.705
 21
-89.875
  0
LINE
  8
0
 10
229.705
 20
-89.875
 11
229.943
 21
-89.4087
  0
LINE
  8
0
 10
229.943
 20
-89.4087
 11
230.13
 21
-88.9201
  0
LINE
  8
0
 10
230.13
 20
-88.9201
 11
230.266
 21
-88.4146
  0
LINE
  8
0
 10
230.266
 20
-88.4146
 11
230.348
 21
-87.8976
  0
LINE
  8
0
 10
230.348
 20
-87.8976
 11
230.375
 21
-87.375
  0
LINE
  8
0
 10
230.375
 20
-87.375
 11
230.375
 21
87.375
  0
LINE
  8
0
 10
230.375
 20
87.375
 11
230.348
 21
87.8976
  0
LINE
  8
0
 10
230.348
 20
87.8976
 11
230.266
 21
88.4146
  0
LINE
  8
0
 10
230.266
 20
88.4146
 11
230.13
 21
88.9201
  0
LINE
  8
0
 10
230.13
 20
88.9201
 11
229.943
 21
89.4087
  0
LINE
  8
0
 10
229.943
 20
89.4087
 11
229.705
 21
89.875
  0
LINE
  8
0
 10
229.705
 20
89.875
 11
229.42
 21
90.3139
  0
LINE
  8
0
 10
229.42
 20
90.3139
 11
229.091
 21
90.7207
  0
LINE
  8
0
 10
229.091
 20
90.7207
 11
228.721
 21
91.0907
  0
LINE
  8
0
 10
228.721
 20
91.0907
 11
228.314
 21
91.4201
  0
LINE
  8
0
 10
228.314
 20
91.4201
 11
227.875
 21
91.7051
  0
LINE
  8
0
 10
227.875
 20
91.7051
 11
227.409
 21
91.9427
  0
LINE
  8
0
 10
227.409
 20
91.9427
 11
226.92
 21
92.1303
  0
LINE
  8
0
 10
226.92
 20
92.1303
 11
226.415
 21
92.2657
  0
LINE
  8
0
 10
226.415
 20
92.2657
 11
225.898
 21
92.3476
  0
LINE
  8
0
 10
225.898
 20
92.3476
 11
225.375
 21
92.375
  0
LINE
  8
0
 10
225.375
 20
92.375
 11
-225.375
 21
92.375
  0
LINE
  8
0
 10
-225.375
 20
92.375
 11
-225.898
 21
92.3476
  0
LINE
  8
0
 10
-225.898
 20
92.3476
 11
-226.415
 21
92.2657
  0
LINE
  8
0
 10
-226.415
 20
92.2657
 11
-226.92
 21
92.1303
  0
LINE
  8
0
 10
-226.92
 20
92.1303
 11
-227.409
 21
91.9427
  0
LINE
  8
0
 10
-227.409
 20
91.9427
 11
-227.875
 21
91.7051
  0
LINE
  8
0
 10
-227.875
 20
91.7051
 11
-228.314
 21
91.4201
  0
LINE
  8
0
 10
-228.314
 20
91.4201
 11
-228.721
 21
91.0907
  0
LINE
  8
0
 10
-228.721
 20
91.0907
 11
-229.091
 21
90.7207
  0
LINE
  8
0
 10
-229.091
 20
90.7207
 11
-229.42
 21
90.3139
  0
LINE
  8
0
 10
-229.42
 20
90.3139
 11
-229.705
 21
89.875
  0
LINE
  8
0
 10
-229.705
 20
89.875
 11
-229.943
 21
89.4087
  0
LINE
  8
0
 10
-229.943
 20
89.4087
 11
-230.13
 21
88.9201
  0
LINE
  8
0
 10
-230.13
 20
88.9201
 11
-230.266
 21
88.4146
  0
LINE
  8
0
 10
-230.266
 20
88.4146
 11
-230.348
 21
87.8976
  0
LINE
  8
0
 10
-230.348
 20
87.8976
 11
-230.375
 21
87.375
  0
LINE
  8
0
 10
-230.375
 20
87.375
 11
-230.375
 21
-87.375
  0
LINE
  8
0
 10
-230.375
 20
-87.375
 11
-230.348
 21
-87.8976
  0
LINE
  8
0
 10
-230.348
 20
-87.8976
 11
-230.266
 21
-88.4146
  0
LINE
  8
0
 10
-230.266
 20
-88.4146
 11
-230.13
 21
-88.9201
  0
LINE
  8
0
 10
-230.13
 20
-88.9201
 11
-229.943
 21
-89.4087
  0
LINE
  8
0
 10
-229.943
 20
-89.4087
 11
-229.705
 21
-89.875
  0
LINE
  8
0
 10
-229.705
 20
-89.875
 11
-229.42
 21
-90.3139
  0
LINE
  8
0
 10
-229.42
 20
-90.3139
 11
-229.091
 21
-90.7207
  0
LINE
  8
0
 10
-229.091
 20
-90.7207
 11
-228.721
 21
-91.0907
  0
LINE
  8
0
 10
-228.721
 20
-91.0907
 11
-228.314
 21
-91.4201
  0
LINE
  8
0
 10
-228.314
 20
-91.4201
 11
-227.875
 21
-91.7051
  0
LINE
  8
0
 10
-227.875
 20
-91.7051
 11
-227.409
 21
-91.9427
  0
LINE
  8
0
 10
-227.409
 20
-91.9427
 11
-226.92
 21
-92.1303
  0
LINE
  8
0
 10
-226.92
 20
-92.1303
 11
-226.415
 21
-92.2657
  0
LINE
  8
0
 10
-226.415
 20
-92.2657
 11
-225.898
 21
-92.3476
  0
LINE
  8
0
 10
-225.898
 20
-92.3476
 11
-225.375
 21
-92.375
  0
LINE
  8
0
 10
-225.375
 20
-92.375
 11
225.375
 21
-92.375
  0
LINE
  8
0
 10
225.375
 20
-92.375
 11
225.898
 21
-92.3476
  0
LINE
  8
0
 10
-223.392
 20
81.2705
 11
-223.78
 21
81.3319
  0
LINE
  8
0
 10
-223.78
 20
81.3319
 11
-224.159
 21
81.4335
  0
LINE
  8
0
 10
-224.159
 20
81.4335
 11
-224.525
 21
81.5742
  0
LINE
  8
0
 10
-224.525
 20
81.5742
 11
-224.875
 21
81.7524
  0
LINE
  8
0
 10
-224.875
 20
81.7524
 11
-225.204
 21
81.9662
  0
LINE
  8
0
 10
-225.204
 20
81.9662
 11
-225.509
 21
82.2132
  0
LINE
  8
0
 10
-225.509
 20
82.2132
 11
-225.787
 21
82.4908
  0
LINE
  8
0
 10
-225.787
 20
82.4908
 11
-226.034
 21
82.7958
  0
LINE
  8
0
 10
-226.034
 20
82.7958
 11
-226.248
 21
83.125
  0
LINE
  8
0
 10
-226.248
 20
83.125
 11
-226.426
 21
83.4747
  0
LINE
  8
0
 10
-226.426
 20
83.4747
 11
-226.566
 21
83.8412
  0
LINE
  8
0
 10
-226.566
 20
83.8412
 11
-226.668
 21
84.2203
  0
LINE
  8
0
 10
-226.668
 20
84.2203
 11
-226.729
 21
84.608
  0
LINE
  8
0
 10
-226.729
 20
84.608
 11
-226.75
 21
85
  0
LINE
  8
0
 10
-226.75
 20
85
 11
-226.729
 21
85.392
  0
LINE
  8
0
 10
-226.729
 20
85.392
 11
-226.668
 21
85.7797
  0
LINE
  8
0
 10
-226.668
 20
85.7797
 11
-226.566
 21
86.1588
  0
LINE
  8
0
 10
-226.566
 20
86.1588
 11
-226.426
 21
86.5253
  0
LINE
  8
0
 10
-226.426
 20
86.5253
 11
-226.248
 21
86.875
  0
LINE
  8
0
 10
-226.248
 20
86.875
 11
-226.034
 21
87.2042
  0
LINE
  8
0
 10
-226.034
 20
87.2042
 11
-225.787
 21
87.5092
  0
LINE
  8
0
 10
-225.787
 20
87.5092
 11
-225.509
 21
87.7868
  0
LINE
  8
0
 10
-225.509
 20
87.7868
 11
-225.204
 21
88.0338
  0
LINE
  8
0
 10
-225.204
 20
88.0338
 11
-224.875
 21
88.2476
  0
LINE
  8
0
 10
-224.875
 20
88.2476
 11
-224.525
 21
88.4258
  0
LINE
  8
0
 10
-224.525
 20
88.4258
 11
-224.159
 21
88.5665
  0
LINE
  8
0
 10
-224.159
 20
88.5665
 11
-223.78
 21
88.668
  0
LINE
  8
0
 10
-223.78
 20
88.668
 11
-223.392
 21
88.7294
  0
LINE
  8
0
 10
-223.392
 20
88.7294
 11
-223
 21
88.75
  0
LINE
  8
0
 10
-223
 20
88.75
 11
-222.608
 21
88.7294
  0
LINE
  8
0
 10
-222.608
 20
88.7294
 11
-222.22
 21
88.668
  0
LINE
  8
0
 10
-222.22
 20
88.668
 11
-221.841
 21
88.5665
  0
LINE
  8
0
 10
-221.841
 20
88.5665
 11
-221.475
 21
88.4258
  0
LINE
  8
0
 10
-221.475
 20
88.4258
 11
-221.125
 21
88.2476
  0
LINE
  8
0
 10
-221.125
 20
88.2476
 11
-220.796
 21
88.0338
  0
LINE
  8
0
 10
-220.796
 20
88.0338
 11
-220.491
 21
87.7868
  0
LINE
  8
0
 10
-220.491
 20
87.7868
 11
-220.213
 21
87.5092
  0
LINE
  8
0
 10
-220.213
 20
87.5092
 11
-219.966
 21
87.2042
  0
LINE
  8
0
 10
-219.966
 20
87.2042
 11
-219.752
 21
86.875
  0
LINE
  8
0
 10
-219.752
 20
86.875
 11
-219.574
 21
86.5253
  0
LINE
  8
0
 10
-219.574
 20
86.5253
 11
-219.434
 21
86.1588
  0
LINE
  8
0
 10
-219.434
 20
86.1588
 11
-219.332
 21
85.7797
  0
LINE
  8
0
 10
-219.332
 20
85.7797
 11
-219.271
 21
85.392
  0
LINE
  8
0
 10
-219.271
 20
85.392
 11
-219.25
 21
85
  0
LINE
  8
0
 10
-219.25
 20
85
 11
-219.271
 21
84.608
  0
LINE
  8
0
 10
-219.271
 20
84.608
 11
-219.332
 21
84.2203
  0
LINE
  8
0
 10
-219.332
 20
84.2203
 11
-219.434
 21
83.8412
  0
LINE
  8
0
 10
-219.434
 20
83.8412
 11
-219.574
 21
83.4747
  0
LINE
  8
0
 10
-219.574
 20
83.4747
 11
-219.752
 21
83.125
  0
LINE
  8
0
 10
-219.752
 20
83.125
 11
-219.966
 21
82.7958
  0
LINE
  8
0
 10
-219.966
 20
82.7958
 11
-220.213
 21
82.4908
  0
LINE
  8
0
 10
-220.213
 20
82.4908
 11
-220.491
 21
82.2132
  0
LINE
  8
0
 10
-220.491
 20
82.2132
 11
-220.796
 21
81.9662
  0
LINE
  8
0
 10
-220.796
 20
81.9662
 11
-221.125
 21
81.7524
  0
LINE
  8
0
 10
-221.125
 20
81.7524
 11
-221.475
 21
81.5742
  0
LINE
  8
0
 10
-221.475
 20
81.5742
 11
-221.841
 21
81.4335
  0
LINE
  8
0
 10
-221.841
 20
81.4335
 11
-222.22
 21
81.3319
  0
LINE
  8
0
 10
-222.22
 20
81.3319
 11
-222.608
 21
81.2705
  0
LINE
  8
0
 10
-222.608
 20
81.2705
 11
-223
 21
81.25
  0
LINE
  8
0
 10
-223
 20
81.25
 11
-223.392
 21
81.2705
  0
LINE
  8
0
 10
222.608
 20
81.2705
 11
222.22
 21
81.3319
  0
LINE
  8
0
 10
222.22
 20
81.3319
 11
221.841
 21
81.4335
  0
LINE
  8
0
 10
221.841
 20
81.4335
 11
221.475
 21
81.5742
  0
LINE
  8
0
 10
221.475
 20
81.5742
 11
221.125
 21
81.7524
  0
LINE
  8
0
 10
221.125
 20
81.7524
 11
220.796
 21
81.9662
  0
LINE
  8
0
 10
220.796
 20
81.9662
 11
220.491
 21
82.2132
  0
LINE
  8
0
 10
220.491
 20
82.2132
 11
220.213
 21
82.4908
  0
LINE
  8
0
 10
220.213
 20
82.4908
 11
219.966
 21
82.7958
  0
LINE
  8
0
 10
219.966
 20
82.7958
 11
219.752
 21
83.125
  0
LINE
  8
0
 10
219.752
 20
83.125
 11
219.574
 21
83.4747
  0
LINE
  8
0
 10
219.574
 20
83.4747
 11
219.434
 21
83.8412
  0
LINE
  8
0
 10
219.434
 20
83.8412
 11
219.332
 21
84.2203
  0
LINE
  8
0
 10
219.332
 20
84.2203
 11
219.271
 21
84.608
  0
LINE
  8
0
 10
219.271
 20
84.608
 11
219.25
 21
85
  0
LINE
  8
0
 10
219.25
 20
85
 11
219.271
 21
85.392
  0
LINE
  8
0
 10
219.271
 20
85.392
 11
219.332
 21
85.7797
  0
LINE
  8
0
 10
219.332
 20
85.7797
 11
219.434
 21
86.1588
  0
LINE
  8
0
 10
219.434
 20
86.1588
 11
219.574
 21
86.5253
  0
LINE
  8
0
 10
219.574
 20
86.5253
 11
219.752
 21
86.875
  0
LINE
  8
0
 10
219.752
 20
86.875
 11
219.966
 21
87.2042
  0
LINE
  8
0
 10
219.966
 20
87.2042
 11
220.213
 21
87.5092
  0
LINE
  8
0
 10
220.213
 20
87.5092
 11
220.491
 21
87.7868
  0
LINE
  8
0
 10
220.491
 20
87.7868
 11
220.796
 21
88.0338
  0
LINE
  8
0
 10
220.796
 20
88.0338
 11
221.125
 21
88.2476
  0
LINE
  8
0
 10
221.125
 20
88.2476
 11
221.475
 21
88.4258
  0
LINE
  8
0
 10
221.475
 20
88.4258
 11
221.841
 21
88.5665
  0
LINE
  8
0
 10
221.841
 20
88.5665
 11
222.22
 21
88.668
  0
LINE
  8
0
 10
222.22
 20
88.668
 11
222.608
 21
88.7294
  0
LINE
  8
0
 10
222.608
 20
88.7294
 11
223
 21
88.75
  0
LINE
  8
0
 10
223
 20
88.75
 11
223.392
 21
88.7294
  0
LINE
  8
0
 10
223.392
 20
88.7294
 11
223.78
 21
88.668
  0
LINE
  8
0
 10
223.78
 20
88.668
 11
224.159
 21
88.5665
  0
LINE
  8
0
 10
224.159
 20
88.5665
 11
224.525
 21
88.4258
  0
LINE
  8
0
 10
224.525
 20
88.4258
 11
224.875
 21
88.2476
  0
LINE
  8
0
 10
224.875
 20
88.2476
 11
225.204
 21
88.0338
  0
LINE
  8
0
 10
225.204
 20
88.0338
 11
225.509
 21
87.7868
  0
LINE
  8
0
 10
225.509
 20
87.7868
 11
225.787
 21
87.5092
  0
LINE
  8
0
 10
225.787
 20
87.5092
 11
226.034
 21
87.2042
  0
LINE
  8
0
 10
226.034
 20
87.2042
 11
226.248
 21
86.875
  0
LINE
  8
0
 10
226.248
 20
86.875
 11
226.426
 21
86.5253
  0
LINE
  8
0
 10
226.426
 20
86.5253
 11
226.566
 21
86.1588
  0
LINE
  8
0
 10
226.566
 20
86.1588
 11
226.668
 21
85.7797
  0
LINE
  8
0
 10
226.668
 20
85.7797
 11
226.729
 21
85.392
  0
LINE
  8
0
 10
226.729
 20
85.392
 11
226.75
 21
85
  0
LINE
  8
0
 10
226.75
 20
85
 11
226.729
 21
84.608
  0
LINE
  8
0
 10
226.729
 20
84.608
 11
226.668
 21
84.2203
  0
LINE
  8
0
 10
226.668
 20
84.2203
 11
226.566
 21
83.8412
  0
LINE
  8
0
 10
226.566
 20
83.8412
 11
226.426
 21
83.4747
  0
LINE
  8
0
 10
226.426
 20
83.4747
 11
226.248
 21
83.125
  0
LINE
  8
0
 10
226.248
 20
83.125
 11
226.034
 21
82.7958
  0
LINE
  8
0
 10
226.034
 20
82.7958
 11
225.787
 21
82.4908
  0
LINE
  8
0
 10
225.787
 20
82.4908
 11
225.509
 21
82.2132
  0
LINE
  8
0
 10
225.509
 20
82.2132
 11
225.204
 21
81.9662
  0
LINE
  8
0
 10
225.204
 20
81.9662
 11
224.875
 21
81.7524
  0
LINE
  8
0
 10
224.875
 20
81.7524
 11
224.525
 21
81.5742
  0
LINE
  8
0
 10
224.525
 20
81.5742
 11
224.159
 21
81.4335
  0
LINE
  8
0
 10
224.159
 20
81.4335
 11
223.78
 21
81.3319
  0
LINE
  8
0
 10
223.78
 20
81.3319
 11
223.392
 21
81.2705
  0
LINE
  8
0
 10
223.392
 20
81.2705
 11
223
 21
81.25
  0
LINE
  8
0
 10
223
 20
81.25
 11
222.608
 21
81.2705
  0
LINE
  8
0
 10
180.191
 20
83.3283
 11
179.951
 21
83.3911
  0
LINE
  8
0
 10
179.951
 20
83.3911
 11
179.723
 21
83.4881
  0
LINE
  8
0
 10
179.723
 20
83.4881
 11
179.511
 21
83.6174
  0
LINE
  8
0
 10
179.511
 20
83.6174
 11
179.32
 21
83.7762
  0
LINE
  8
0
 10
179.32
 20
83.7762
 11
179.154
 21
83.961
  0
LINE
  8
0
 10
179.154
 20
83.961
 11
179.018
 21
84.168
  0
LINE
  8
0
 10
179.018
 20
84.168
 11
178.912
 21
84.3927
  0
LINE
  8
0
 10
178.912
 20
84.3927
 11
178.841
 21
84.6304
  0
LINE
  8
0
 10
178.841
 20
84.6304
 11
178.805
 21
84.8759
  0
LINE
  8
0
 10
178.805
 20
84.8759
 11
178.805
 21
85.1241
  0
LINE
  8
0
 10
178.805
 20
85.1241
 11
178.841
 21
85.3696
  0
LINE
  8
0
 10
178.841
 20
85.3696
 11
178.912
 21
85.6073
  0
LINE
  8
0
 10
178.912
 20
85.6073
 11
179.018
 21
85.832
  0
LINE
  8
0
 10
179.018
 20
85.832
 11
179.154
 21
86.039
  0
LINE
  8
0
 10
179.154
 20
86.039
 11
179.32
 21
86.2238
  0
LINE
  8
0
 10
179.32
 20
86.2238
 11
179.511
 21
86.3826
  0
LINE
  8
0
 10
179.511
 20
86.3826
 11
179.723
 21
86.5119
  0
LINE
  8
0
 10
179.723
 20
86.5119
 11
179.951
 21
86.6089
  0
LINE
  8
0
 10
179.951
 20
86.6089
 11
180.191
 21
86.6717
  0
LINE
  8
0
 10
180.191
 20
86.6717
 11
180.438
 21
86.6989
  0
LINE
  8
0
 10
180.438
 20
86.6989
 11
180.686
 21
86.6898
  0
LINE
  8
0
 10
180.686
 20
86.6898
 11
180.93
 21
86.6447
  0
LINE
  8
0
 10
180.93
 20
86.6447
 11
181.165
 21
86.5646
  0
LINE
  8
0
 10
181.165
 20
86.5646
 11
181.386
 21
86.4511
  0
LINE
  8
0
 10
181.386
 20
86.4511
 11
181.587
 21
86.3067
  0
LINE
  8
0
 10
181.587
 20
86.3067
 11
181.766
 21
86.1344
  0
LINE
  8
0
 10
181.766
 20
86.1344
 11
181.918
 21
85.938
  0
LINE
  8
0
 10
181.918
 20
85.938
 11
182.039
 21
85.7216
  0
LINE
  8
0
 10
182.039
 20
85.7216
 11
182.128
 21
85.4898
  0
LINE
  8
0
 10
182.128
 20
85.4898
 11
182.182
 21
85.2475
  0
LINE
  8
0
 10
182.182
 20
85.2475
 11
182.2
 21
85
  0
LINE
  8
0
 10
182.2
 20
85
 11
182.182
 21
84.7525
  0
LINE
  8
0
 10
182.182
 20
84.7525
 11
182.128
 21
84.5102
  0
LINE
  8
0
 10
182.128
 20
84.5102
 11
182.039
 21
84.2784
  0
LINE
  8
0
 10
182.039
 20
84.2784
 11
181.918
 21
84.062
  0
LINE
  8
0
 10
181.918
 20
84.062
 11
181.766
 21
83.8656
  0
LINE
  8
0
 10
181.766
 20
83.8656
 11
181.587
 21
83.6933
  0
LINE
  8
0
 10
181.587
 20
83.6933
 11
181.386
 21
83.5489
  0
LINE
  8
0
 10
181.386
 20
83.5489
 11
181.165
 21
83.4354
  0
LINE
  8
0
 10
181.165
 20
83.4354
 11
180.93
 21
83.3553
  0
LINE
  8
0
 10
180.93
 20
83.3553
 11
180.686
 21
83.3102
  0
LINE
  8
0
 10
180.686
 20
83.3102
 11
180.438
 21
83.3011
  0
LINE
  8
0
 10
180.438
 20
83.3011
 11
180.191
 21
83.3283
  0
LINE
  8
0
 10
-0.308777
 20
83.3283
 11
-0.548889
 21
83.3911
  0
LINE
  8
0
 10
-0.548889
 20
83.3911
 11
-0.777298
 21
83.4881
  0
LINE
  8
0
 10
-0.777298
 20
83.4881
 11
-0.989151
 21
83.6174
  0
LINE
  8
0
 10
-0.989151
 20
83.6174
 11
-1.17992
 21
83.7762
  0
LINE
  8
0
 10
-1.17992
 20
83.7762
 11
-1.34554
 21
83.961
  0
LINE
  8
0
 10
-1.34554
 20
83.961
 11
-1.48248
 21
84.168
  0
LINE
  8
0
 10
-1.48248
 20
84.168
 11
-1.58781
 21
84.3927
  0
LINE
  8
0
 10
-1.58781
 20
84.3927
 11
-1.65932
 21
84.6304
  0
LINE
  8
0
 10
-1.65932
 20
84.6304
 11
-1.69545
 21
84.8759
  0
LINE
  8
0
 10
-1.69545
 20
84.8759
 11
-1.69545
 21
85.1241
  0
LINE
  8
0
 10
-1.69545
 20
85.1241
 11
-1.65932
 21
85.3696
  0
LINE
  8
0
 10
-1.65932
 20
85.3696
 11
-1.58781
 21
85.6073
  0
LINE
  8
0
 10
-1.58781
 20
85.6073
 11
-1.48248
 21
85.832
  0
LINE
  8
0
 10
-1.48248
 20
85.832
 11
-1.34554
 21
86.039
  0
LINE
  8
0
 10
-1.34554
 20
86.039
 11
-1.17992
 21
86.2238
  0
LINE
  8
0
 10
-1.17992
 20
86.2238
 11
-0.989151
 21
86.3826
  0
LINE
  8
0
 10
-0.989151
 20
86.3826
 11
-0.777298
 21
86.5119
  0
LINE
  8
0
 10
-0.777298
 20
86.5119
 11
-0.548889
 21
86.6089
  0
LINE
  8
0
 10
-0.548889
 20
86.6089
 11
-0.308777
 21
86.6717
  0
LINE
  8
0
 10
-0.308777
 20
86.6717
 11
-0.0620728
 21
86.6989
  0
LINE
  8
0
 10
-0.0620728
 20
86.6989
 11
0.185928
 21
86.6898
  0
LINE
  8
0
 10
0.185928
 20
86.6898
 11
0.429977
 21
86.6447
  0
LINE
  8
0
 10
0.429977
 20
86.6447
 11
0.664871
 21
86.5646
  0
LINE
  8
0
 10
0.664871
 20
86.5646
 11
0.88559
 21
86.4511
  0
LINE
  8
0
 10
0.88559
 20
86.4511
 11
1.08743
 21
86.3067
  0
LINE
  8
0
 10
1.08743
 20
86.3067
 11
1.2661
 21
86.1344
  0
LINE
  8
0
 10
1.2661
 20
86.1344
 11
1.41779
 21
85.938
  0
LINE
  8
0
 10
1.41779
 20
85.938
 11
1.53926
 21
85.7216
  0
LINE
  8
0
 10
1.53926
 20
85.7216
 11
1.62791
 21
85.4898
  0
LINE
  8
0
 10
1.62791
 20
85.4898
 11
1.68187
 21
85.2475
  0
LINE
  8
0
 10
1.68187
 20
85.2475
 11
1.7
 21
85
  0
LINE
  8
0
 10
1.7
 20
85
 11
1.68187
 21
84.7525
  0
LINE
  8
0
 10
1.68187
 20
84.7525
 11
1.62791
 21
84.5102
  0
LINE
  8
0
 10
1.62791
 20
84.5102
 11
1.53926
 21
84.2784
  0
LINE
  8
0
 10
1.53926
 20
84.2784
 11
1.41779
 21
84.062
  0
LINE
  8
0
 10
1.41779
 20
84.062
 11
1.2661
 21
83.8656
  0
LINE
  8
0
 10
1.2661
 20
83.8656
 11
1.08743
 21
83.6933
  0
LINE
  8
0
 10
1.08743
 20
83.6933
 11
0.88559
 21
83.5489
  0
LINE
  8
0
 10
0.88559
 20
83.5489
 11
0.664871
 21
83.4354
  0
LINE
  8
0
 10
0.664871
 20
83.4354
 11
0.429977
 21
83.3553
  0
LINE
  8
0
 10
0.429977
 20
83.3553
 11
0.185928
 21
83.3102
  0
LINE
  8
0
 10
0.185928
 20
83.3102
 11
-0.0620728
 21
83.3011
  0
LINE
  8
0
 10
-0.0620728
 20
83.3011
 11
-0.308777
 21
83.3283
  0
LINE
  8
0
 10
-180.809
 20
83.3283
 11
-181.049
 21
83.3911
  0
LINE
  8
0
 10
-181.049
 20
83.3911
 11
-181.277
 21
83.4881
  0
LINE
  8
0
 10
-181.277
 20
83.4881
 11
-181.489
 21
83.6174
  0
LINE
  8
0
 10
-181.489
 20
83.6174
 11
-181.68
 21
83.7762
  0
LINE
  8
0
 10
-181.68
 20
83.7762
 11
-181.846
 21
83.961
  0
LINE
  8
0
 10
-181.846
 20
83.961
 11
-181.982
 21
84.168
  0
LINE
  8
0
 10
-181.982
 20
84.168
 11
-182.088
 21
84.3927
  0
LINE
  8
0
 10
-182.088
 20
84.3927
 11
-182.159
 21
84.6304
  0
LINE
  8
0
 10
-182.159
 20
84.6304
 11
-182.195
 21
84.8759
  0
LINE
  8
0
 10
-182.195
 20
84.8759
 11
-182.195
 21
85.1241
  0
LINE
  8
0
 10
-182.195
 20
85.1241
 11
-182.159
 21
85.3696
  0
LINE
  8
0
 10
-182.159
 20
85.3696
 11
-182.088
 21
85.6073
  0
LINE
  8
0
 10
-182.088
 20
85.6073
 11
-181.982
 21
85.832
  0
LINE
  8
0
 10
-181.982
 20
85.832
 11
-181.846
 21
86.039
  0
LINE
  8
0
 10
-181.846
 20
86.039
 11
-181.68
 21
86.2238
  0
LINE
  8
0
 10
-181.68
 20
86.2238
 11
-181.489
 21
86.3826
  0
LINE
  8
0
 10
-181.489
 20
86.3826
 11
-181.277
 21
86.5119
  0
LINE
  8
0
 10
-181.277
 20
86.5119
 11
-181.049
 21
86.6089
  0
LINE
  8
0
 10
-181.049
 20
86.6089
 11
-180.809
 21
86.6717
  0
LINE
  8
0
 10
-180.809
 20
86.6717
 11
-180.562
 21
86.6989
  0
LINE
  8
0
 10
-180.562
 20
86.6989
 11
-180.314
 21
86.6898
  0
LINE
  8
0
 10
-180.314
 20
86.6898
 11
-180.07
 21
86.6447
  0
LINE
  8
0
 10
-180.07
 20
86.6447
 11
-179.835
 21
86.5646
  0
LINE
  8
0
 10
-179.835
 20
86.5646
 11
-179.614
 21
86.4511
  0
LINE
  8
0
 10
-179.614
 20
86.4511
 11
-179.413
 21
86.3067
  0
LINE
  8
0
 10
-179.413
 20
86.3067
 11
-179.234
 21
86.1344
  0
LINE
  8
0
 10
-179.234
 20
86.1344
 11
-179.082
 21
85.938
  0
LINE
  8
0
 10
-179.082
 20
85.938
 11
-178.961
 21
85.7216
  0
LINE
  8
0
 10
-178.961
 20
85.7216
 11
-178.872
 21
85.4898
  0
LINE
  8
0
 10
-178.872
 20
85.4898
 11
-178.818
 21
85.2475
  0
LINE
  8
0
 10
-178.818
 20
85.2475
 11
-178.8
 21
85
  0
LINE
  8
0
 10
-178.8
 20
85
 11
-178.818
 21
84.7525
  0
LINE
  8
0
 10
-178.818
 20
84.7525
 11
-178.872
 21
84.5102
  0
LINE
  8
0
 10
-178.872
 20
84.5102
 11
-178.961
 21
84.2784
  0
LINE
  8
0
 10
-178.961
 20
84.2784
 11
-179.082
 21
84.062
  0
LINE
  8
0
 10
-179.082
 20
84.062
 11
-179.234
 21
83.8656
  0
LINE
  8
0
 10
-179.234
 20
83.8656
 11
-179.413
 21
83.6933
  0
LINE
  8
0
 10
-179.413
 20
83.6933
 11
-179.614
 21
83.5489
  0
LINE
  8
0
 10
-179.614
 20
83.5489
 11
-179.835
 21
83.4354
  0
LINE
  8
0
 10
-179.835
 20
83.4354
 11
-180.07
 21
83.3553
  0
LINE
  8
0
 10
-180.07
 20
83.3553
 11
-180.314
 21
83.3102
  0
LINE
  8
0
 10
-180.314
 20
83.3102
 11
-180.562
 21
83.3011
  0
LINE
  8
0
 10
-180.562
 20
83.3011
 11
-180.809
 21
83.3283
  0
LINE
  8
0
 10
-90.5588
 20
83.3283
 11
-90.7989
 21
83.3911
  0
LINE
  8
0
 10
-90.7989
 20
83.3911
 11
-91.0273
 21
83.4881
  0
LINE
  8
0
 10
-91.0273
 20
83.4881
 11
-91.2392
 21
83.6174
  0
LINE
  8
0
 10
-91.2392
 20
83.6174
 11
-91.4299
 21
83.7762
  0
LINE
  8
0
 10
-91.4299
 20
83.7762
 11
-91.5955
 21
83.961
  0
LINE
  8
0
 10
-91.5955
 20
83.961
 11
-91.7325
 21
84.168
  0
LINE
  8
0
 10
-91.7325
 20
84.168
 11
-91.8378
 21
84.3927
  0
LINE
  8
0
 10
-91.8378
 20
84.3927
 11
-91.9093
 21
84.6304
  0
LINE
  8
0
 10
-91.9093
 20
84.6304
 11
-91.9455
 21
84.8759
  0
LINE
  8
0
 10
-91.9455
 20
84.8759
 11
-91.9455
 21
85.1241
  0
LINE
  8
0
 10
-91.9455
 20
85.1241
 11
-91.9093
 21
85.3696
  0
LINE
  8
0
 10
-91.9093
 20
85.3696
 11
-91.8378
 21
85.6073
  0
LINE
  8
0
 10
-91.8378
 20
85.6073
 11
-91.7325
 21
85.832
  0
LINE
  8
0
 10
-91.7325
 20
85.832
 11
-91.5955
 21
86.039
  0
LINE
  8
0
 10
-91.5955
 20
86.039
 11
-91.4299
 21
86.2238
  0
LINE
  8
0
 10
-91.4299
 20
86.2238
 11
-91.2392
 21
86.3826
  0
LINE
  8
0
 10
-91.2392
 20
86.3826
 11
-91.0273
 21
86.5119
  0
LINE
  8
0
 10
-91.0273
 20
86.5119
 11
-90.7989
 21
86.6089
  0
LINE
  8
0
 10
-90.7989
 20
86.6089
 11
-90.5588
 21
86.6717
  0
LINE
  8
0
 10
-90.5588
 20
86.6717
 11
-90.3121
 21
86.6989
  0
LINE
  8
0
 10
-90.3121
 20
86.6989
 11
-90.0641
 21
86.6898
  0
LINE
  8
0
 10
-90.0641
 20
86.6898
 11
-89.82
 21
86.6447
  0
LINE
  8
0
 10
-89.82
 20
86.6447
 11
-89.5851
 21
86.5646
  0
LINE
  8
0
 10
-89.5851
 20
86.5646
 11
-89.3644
 21
86.4511
  0
LINE
  8
0
 10
-89.3644
 20
86.4511
 11
-89.1626
 21
86.3067
  0
LINE
  8
0
 10
-89.1626
 20
86.3067
 11
-88.9839
 21
86.1344
  0
LINE
  8
0
 10
-88.9839
 20
86.1344
 11
-88.8322
 21
85.938
  0
LINE
  8
0
 10
-88.8322
 20
85.938
 11
-88.7107
 21
85.7216
  0
LINE
  8
0
 10
-88.7107
 20
85.7216
 11
-88.6221
 21
85.4898
  0
LINE
  8
0
 10
-88.6221
 20
85.4898
 11
-88.5681
 21
85.2475
  0
LINE
  8
0
 10
-88.5681
 20
85.2475
 11
-88.55
 21
85
  0
LINE
  8
0
 10
-88.55
 20
85
 11
-88.5681
 21
84.7525
  0
LINE
  8
0
 10
-88.5681
 20
84.7525
 11
-88.6221
 21
84.5102
  0
LINE
  8
0
 10
-88.6221
 20
84.5102
 11
-88.7107
 21
84.2784
  0
LINE
  8
0
 10
-88.7107
 20
84.2784
 11
-88.8322
 21
84.062
  0
LINE
  8
0
 10
-88.8322
 20
84.062
 11
-88.9839
 21
83.8656
  0
LINE
  8
0
 10
-88.9839
 20
83.8656
 11
-89.1626
 21
83.6933
  0
LINE
  8
0
 10
-89.1626
 20
83.6933
 11
-89.3644
 21
83.5489
  0
LINE
  8
0
 10
-89.3644
 20
83.5489
 11
-89.5851
 21
83.4354
  0
LINE
  8
0
 10
-89.5851
 20
83.4354
 11
-89.82
 21
83.3553
  0
LINE
  8
0
 10
-89.82
 20
83.3553
 11
-90.0641
 21
83.3102
  0
LINE
  8
0
 10
-90.0641
 20
83.3102
 11
-90.3121
 21
83.3011
  0
LINE
  8
0
 10
-90.3121
 20
83.3011
 11
-90.5588
 21
83.3283
  0
LINE
  8
0
 10
89.9412
 20
83.3283
 11
89.7011
 21
83.3911
  0
LINE
  8
0
 10
89.7011
 20
83.3911
 11
89.4727
 21
83.4881
  0
LINE
  8
0
 10
89.4727
 20
83.4881
 11
89.2608
 21
83.6174
  0
LINE
  8
0
 10
89.2608
 20
83.6174
 11
89.0701
 21
83.7762
  0
LINE
  8
0
 10
89.0701
 20
83.7762
 11
88.9044
 21
83.961
  0
LINE
  8
0
 10
88.9044
 20
83.961
 11
88.7675
 21
84.168
  0
LINE
  8
0
 10
88.7675
 20
84.168
 11
88.6622
 21
84.3927
  0
LINE
  8
0
 10
88.6622
 20
84.3927
 11
88.5907
 21
84.6304
  0
LINE
  8
0
 10
88.5907
 20
84.6304
 11
88.5545
 21
84.8759
  0
LINE
  8
0
 10
88.5545
 20
84.8759
 11
88.5545
 21
85.1241
  0
LINE
  8
0
 10
88.5545
 20
85.1241
 11
88.5907
 21
85.3696
  0
LINE
  8
0
 10
88.5907
 20
85.3696
 11
88.6622
 21
85.6073
  0
LINE
  8
0
 10
88.6622
 20
85.6073
 11
88.7675
 21
85.832
  0
LINE
  8
0
 10
88.7675
 20
85.832
 11
88.9044
 21
86.039
  0
LINE
  8
0
 10
88.9044
 20
86.039
 11
89.0701
 21
86.2238
  0
LINE
  8
0
 10
89.0701
 20
86.2238
 11
89.2608
 21
86.3826
  0
LINE
  8
0
 10
89.2608
 20
86.3826
 11
89.4727
 21
86.5119
  0
LINE
  8
0
 10
89.4727
 20
86.5119
 11
89.7011
 21
86.6089
  0
LINE
  8
0
 10
89.7011
 20
86.6089
 11
89.9412
 21
86.6717
  0
LINE
  8
0
 10
89.9412
 20
86.6717
 11
90.1879
 21
86.6989
  0
LINE
  8
0
 10
90.1879
 20
86.6989
 11
90.4359
 21
86.6898
  0
LINE
  8
0
 10
90.4359
 20
86.6898
 11
90.68
 21
86.6447
  0
LINE
  8
0
 10
90.68
 20
86.6447
 11
90.9149
 21
86.5646
  0
LINE
  8
0
 10
90.9149
 20
86.5646
 11
91.1356
 21
86.4511
  0
LINE
  8
0
 10
91.1356
 20
86.4511
 11
91.3374
 21
86.3067
  0
LINE
  8
0
 10
91.3374
 20
86.3067
 11
91.5161
 21
86.1344
  0
LINE
  8
0
 10
91.5161
 20
86.1344
 11
91.6678
 21
85.938
  0
LINE
  8
0
 10
91.6678
 20
85.938
 11
91.7893
 21
85.7216
  0
LINE
  8
0
 10
91.7893
 20
85.7216
 11
91.8779
 21
85.4898
  0
LINE
  8
0
 10
91.8779
 20
85.4898
 11
91.9319
 21
85.2475
  0
LINE
  8
0
 10
91.9319
 20
85.2475
 11
91.95
 21
85
  0
LINE
  8
0
 10
91.95
 20
85
 11
91.9319
 21
84.7525
  0
LINE
  8
0
 10
91.9319
 20
84.7525
 11
91.8779
 21
84.5102
  0
LINE
  8
0
 10
91.8779
 20
84.5102
 11
91.7893
 21
84.2784
  0
LINE
  8
0
 10
91.7893
 20
84.2784
 11
91.6678
 21
84.062
  0
LINE
  8
0
 10
91.6678
 20
84.062
 11
91.5161
 21
83.8656
  0
LINE
  8
0
 10
91.5161
 20
83.8656
 11
91.3374
 21
83.6933
  0
LINE
  8
0
 10
91.3374
 20
83.6933
 11
91.1356
 21
83.5489
  0
LINE
  8
0
 10
91.1356
 20
83.5489
 11
90.9149
 21
83.4354
  0
LINE
  8
0
 10
90.9149
 20
83.4354
 11
90.68
 21
83.3553
  0
LINE
  8
0
 10
90.68
 20
83.3553
 11
90.4359
 21
83.3102
  0
LINE
  8
0
 10
90.4359
 20
83.3102
 11
90.1879
 21
83.3011
  0
LINE
  8
0
 10
90.1879
 20
83.3011
 11
89.9412
 21
83.3283
  0
LINE
  8
0
 10
-223.186
 20
40.8102
 11
-223.43
 21
40.8553
  0
LINE
  8
0
 10
-223.43
 20
40.8553
 11
-223.665
 21
40.9354
  0
LINE
  8
0
 10
-223.665
 20
40.9354
 11
-223.886
 21
41.0489
  0
LINE
  8
0
 10
-223.886
 20
41.0489
 11
-224.087
 21
41.1933
  0
LINE
  8
0
 10
-224.087
 20
41.1933
 11
-224.266
 21
41.3656
  0
LINE
  8
0
 10
-224.266
 20
41.3656
 11
-224.418
 21
41.562
  0
LINE
  8
0
 10
-224.418
 20
41.562
 11
-224.539
 21
41.7784
  0
LINE
  8
0
 10
-224.539
 20
41.7784
 11
-224.628
 21
42.0102
  0
LINE
  8
0
 10
-224.628
 20
42.0102
 11
-224.682
 21
42.2525
  0
LINE
  8
0
 10
-224.682
 20
42.2525
 11
-224.7
 21
42.5
  0
LINE
  8
0
 10
-224.7
 20
42.5
 11
-224.682
 21
42.7475
  0
LINE
  8
0
 10
-224.682
 20
42.7475
 11
-224.628
 21
42.9898
  0
LINE
  8
0
 10
-224.628
 20
42.9898
 11
-224.539
 21
43.2216
  0
LINE
  8
0
 10
-224.539
 20
43.2216
 11
-224.418
 21
43.438
  0
LINE
  8
0
 10
-224.418
 20
43.438
 11
-224.266
 21
43.6344
  0
LINE
  8
0
 10
-224.266
 20
43.6344
 11
-224.087
 21
43.8067
  0
LINE
  8
0
 10
-224.087
 20
43.8067
 11
-223.886
 21
43.9511
  0
LINE
  8
0
 10
-223.886
 20
43.9511
 11
-223.665
 21
44.0646
  0
LINE
  8
0
 10
-223.665
 20
44.0646
 11
-223.43
 21
44.1447
  0
LINE
  8
0
 10
-223.43
 20
44.1447
 11
-223.186
 21
44.1898
  0
LINE
  8
0
 10
-223.186
 20
44.1898
 11
-222.938
 21
44.1989
  0
LINE
  8
0
 10
-222.938
 20
44.1989
 11
-222.691
 21
44.1717
  0
LINE
  8
0
 10
-222.691
 20
44.1717
 11
-222.451
 21
44.1089
  0
LINE
  8
0
 10
-222.451
 20
44.1089
 11
-222.223
 21
44.0119
  0
LINE
  8
0
 10
-222.223
 20
44.0119
 11
-222.011
 21
43.8826
  0
LINE
  8
0
 10
-222.011
 20
43.8826
 11
-221.82
 21
43.7238
  0
LINE
  8
0
 10
-221.82
 20
43.7238
 11
-221.654
 21
43.539
  0
LINE
  8
0
 10
-221.654
 20
43.539
 11
-221.518
 21
43.332
  0
LINE
  8
0
 10
-221.518
 20
43.332
 11
-221.412
 21
43.1073
  0
LINE
  8
0
 10
-221.412
 20
43.1073
 11
-221.341
 21
42.8696
  0
LINE
  8
0
 10
-221.341
 20
42.8696
 11
-221.305
 21
42.6241
  0
LINE
  8
0
 10
-221.305
 20
42.6241
 11
-221.305
 21
42.3759
  0
LINE
  8
0
 10
-221.305
 20
42.3759
 11
-221.341
 21
42.1304
  0
LINE
  8
0
 10
-221.341
 20
42.1304
 11
-221.412
 21
41.8927
  0
LINE
  8
0
 10
-221.412
 20
41.8927
 11
-221.518
 21
41.668
  0
LINE
  8
0
 10
-221.518
 20
41.668
 11
-221.654
 21
41.461
  0
LINE
  8
0
 10
-221.654
 20
41.461
 11
-221.82
 21
41.2762
  0
LINE
  8
0
 10
-221.82
 20
41.2762
 11
-222.011
 21
41.1174
  0
LINE
  8
0
 10
-222.011
 20
41.1174
 11
-222.223
 21
40.9881
  0
LINE
  8
0
 10
-222.223
 20
40.9881
 11
-222.451
 21
40.8911
  0
LINE
  8
0
 10
-222.451
 20
40.8911
 11
-222.691
 21
40.8283
  0
LINE
  8
0
 10
-222.691
 20
40.8283
 11
-222.938
 21
40.8011
  0
LINE
  8
0
 10
-222.938
 20
40.8011
 11
-223.186
 21
40.8102
  0
LINE
  8
0
 10
222.691
 20
40.8283
 11
222.451
 21
40.8911
  0
LINE
  8
0
 10
222.451
 20
40.8911
 11
222.223
 21
40.9881
  0
LINE
  8
0
 10
222.223
 20
40.9881
 11
222.011
 21
41.1174
  0
LINE
  8
0
 10
222.011
 20
41.1174
 11
221.82
 21
41.2762
  0
LINE
  8
0
 10
221.82
 20
41.2762
 11
221.654
 21
41.461
  0
LINE
  8
0
 10
221.654
 20
41.461
 11
221.518
 21
41.668
  0
LINE
  8
0
 10
221.518
 20
41.668
 11
221.412
 21
41.8927
  0
LINE
  8
0
 10
221.412
 20
41.8927
 11
221.341
 21
42.1304
  0
LINE
  8
0
 10
221.341
 20
42.1304
 11
221.305
 21
42.3759
  0
LINE
  8
0
 10
221.305
 20
42.3759
 11
221.305
 21
42.6241
  0
LINE
  8
0
 10
221.305
 20
42.6241
 11
221.341
 21
42.8696
  0
LINE
  8
0
 10
221.341
 20
42.8696
 11
221.412
 21
43.1073
  0
LINE
  8
0
 10
221.412
 20
43.1073
 11
221.518
 21
43.332
  0
LINE
  8
0
 10
221.518
 20
43.332
 11
221.654
 21
43.539
  0
LINE
  8
0
 10
221.654
 20
43.539
 11
221.82
 21
43.7238
  0
LINE
  8
0
 10
221.82
 20
43.7238
 11
222.011
 21
43.8826
  0
LINE
  8
0
 10
222.011
 20
43.8826
 11
222.223
 21
44.0119
  0
LINE
  8
0
 10
222.223
 20
44.0119
 11
222.451
 21
44.1089
  0
LINE
  8
0
 10
222.451
 20
44.1089
 11
222.691
 21
44.1717
  0
LINE
  8
0
 10
222.691
 20
44.1717
 11
222.938
 21
44.1989
  0
LINE
  8
0
 10
222.938
 20
44.1989
 11
223.186
 21
44.1898
  0
LINE
  8
0
 10
223.186
 20
44.1898
 11
223.43
 21
44.1447
  0
LINE
  8
0
 10
223.43
 20
44.1447
 11
223.665
 21
44.0646
  0
LINE
  8
0
 10
223.665
 20
44.0646
 11
223.886
 21
43.9511
  0
LINE
  8
0
 10
223.886
 20
43.9511
 11
224.087
 21
43.8067
  0
LINE
  8
0
 10
224.087
 20
43.8067
 11
224.266
 21
43.6344
  0
LINE
  8
0
 10
224.266
 20
43.6344
 11
224.418
 21
43.438
  0
LINE
  8
0
 10
224.418
 20
43.438
 11
224.539
 21
43.2216
  0
LINE
  8
0
 10
224.539
 20
43.2216
 11
224.628
 21
42.9898
  0
LINE
  8
0
 10
224.628
 20
42.9898
 11
224.682
 21
42.7475
  0
LINE
  8
0
 10
224.682
 20
42.7475
 11
224.7
 21
42.5
  0
LINE
  8
0
 10
224.7
 20
42.5
 11
224.682
 21
42.2525
  0
LINE
  8
0
 10
224.682
 20
42.2525
 11
224.628
 21
42.0102
  0
LINE
  8
0
 10
224.628
 20
42.0102
 11
224.539
 21
41.7784
  0
LINE
  8
0
 10
224.539
 20
41.7784
 11
224.418
 21
41.562
  0
LINE
  8
0
 10
224.418
 20
41.562
 11
224.266
 21
41.3656
  0
LINE
  8
0
 10
224.266
 20
41.3656
 11
224.087
 21
41.1933
  0
LINE
  8
0
 10
224.087
 20
41.1933
 11
223.886
 21
41.0489
  0
LINE
  8
0
 10
223.886
 20
41.0489
 11
223.665
 21
40.9354
  0
LINE
  8
0
 10
223.665
 20
40.9354
 11
223.43
 21
40.8553
  0
LINE
  8
0
 10
223.43
 20
40.8553
 11
223.186
 21
40.8102
  0
LINE
  8
0
 10
223.186
 20
40.8102
 11
222.938
 21
40.8011
  0
LINE
  8
0
 10
222.938
 20
40.8011
 11
222.691
 21
40.8283
  0
LINE
  8
0
 10
-223.186
 20
-44.1898
 11
-223.43
 21
-44.1447
  0
LINE
  8
0
 10
-223.43
 20
-44.1447
 11
-223.665
 21
-44.0646
  0
LINE
  8
0
 10
-223.665
 20
-44.0646
 11
-223.886
 21
-43.9511
  0
LINE
  8
0
 10
-223.886
 20
-43.9511
 11
-224.087
 21
-43.8067
  0
LINE
  8
0
 10
-224.087
 20
-43.8067
 11
-224.266
 21
-43.6344
  0
LINE
  8
0
 10
-224.266
 20
-43.6344
 11
-224.418
 21
-43.438
  0
LINE
  8
0
 10
-224.418
 20
-43.438
 11
-224.539
 21
-43.2216
  0
LINE
  8
0
 10
-224.539
 20
-43.2216
 11
-224.628
 21
-42.9898
  0
LINE
  8
0
 10
-224.628
 20
-42.9898
 11
-224.682
 21
-42.7475
  0
LINE
  8
0
 10
-224.682
 20
-42.7475
 11
-224.7
 21
-42.5
  0
LINE
  8
0
 10
-224.7
 20
-42.5
 11
-224.682
 21
-42.2525
  0
LINE
  8
0
 10
-224.682
 20
-42.2525
 11
-224.628
 21
-42.0102
  0
LINE
  8
0
 10
-224.628
 20
-42.0102
 11
-224.539
 21
-41.7784
  0
LINE
  8
0
 10
-224.539
 20
-41.7784
 11
-224.418
 21
-41.562
  0
LINE
  8
0
 10
-224.418
 20
-41.562
 11
-224.266
 21
-41.3656
  0
LINE
  8
0
 10
-224.266
 20
-41.3656
 11
-224.087
 21
-41.1933
  0
LINE
  8
0
 10
-224.087
 20
-41.1933
 11
-223.886
 21
-41.0489
  0
LINE
  8
0
 10
-223.886
 20
-41.0489
 11
-223.665
 21
-40.9354
  0
LINE
  8
0
 10
-223.665
 20
-40.9354
 11
-223.43
 21
-40.8553
  0
LINE
  8
0
 10
-223.43
 20
-40.8553
 11
-223.186
 21
-40.8102
  0
LINE
  8
0
 10
-223.186
 20
-40.8102
 11
-222.938
 21
-40.8011
  0
LINE
  8
0
 10
-222.938
 20
-40.8011
 11
-222.691
 21
-40.8283
  0
LINE
  8
0
 10
-222.691
 20
-40.8283
 11
-222.451
 21
-40.8911
  0
LINE
  8
0
 10
-222.451
 20
-40.8911
 11
-222.223
 21
-40.9881
  0
LINE
  8
0
 10
-222.223
 20
-40.9881
 11
-222.011
 21
-41.1174
  0
LINE
  8
0
 10
-222.011
 20
-41.1174
 11
-221.82
 21
-41.2762
  0
LINE
  8
0
 10
-221.82
 20
-41.2762
 11
-221.654
 21
-41.461
  0
LINE
  8
0
 10
-221.654
 20
-41.461
 11
-221.518
 21
-41.668
  0
LINE
  8
0
 10
-221.518
 20
-41.668
 11
-221.412
 21
-41.8927
  0
LINE
  8
0
 10
-221.412
 20
-41.8927
 11
-221.341
 21
-42.1304
  0
LINE
  8
0
 10
-221.341
 20
-42.1304
 11
-221.305
 21
-42.3759
  0
LINE
  8
0
 10
-221.305
 20
-42.3759
 11
-221.305
 21
-42.6241
  0
LINE
  8
0
 10
-221.305
 20
-42.6241
 11
-221.341
 21
-42.8696
  0
LINE
  8
0
 10
-221.341
 20
-42.8696
 11
-221.412
 21
-43.1073
  0
LINE
  8
0
 10
-221.412
 20
-43.1073
 11
-221.518
 21
-43.332
  0
LINE
  8
0
 10
-221.518
 20
-43.332
 11
-221.654
 21
-43.539
  0
LINE
  8
0
 10
-221.654
 20
-43.539
 11
-221.82
 21
-43.7238
  0
LINE
  8
0
 10
-221.82
 20
-43.7238
 11
-222.011
 21
-43.8826
  0
LINE
  8
0
 10
-222.011
 20
-43.8826
 11
-222.223
 21
-44.0119
  0
LINE
  8
0
 10
-222.223
 20
-44.0119
 11
-222.451
 21
-44.1089
  0
LINE
  8
0
 10
-222.451
 20
-44.1089
 11
-222.691
 21
-44.1717
  0
LINE
  8
0
 10
-222.691
 20
-44.1717
 11
-222.938
 21
-44.1989
  0
LINE
  8
0
 10
-222.938
 20
-44.1989
 11
-223.186
 21
-44.1898
  0
LINE
  8
0
 10
222.691
 20
-44.1717
 11
222.451
 21
-44.1089
  0
LINE
  8
0
 10
222.451
 20
-44.1089
 11
222.223
 21
-44.0119
  0
LINE
  8
0
 10
222.223
 20
-44.0119
 11
222.011
 21
-43.8826
  0
LINE
  8
0
 10
222.011
 20
-43.8826
 11
221.82
 21
-43.7238
  0
LINE
  8
0
 10
221.82
 20
-43.7238
 11
221.654
 21
-43.539
  0
LINE
  8
0
 10
221.654
 20
-43.539
 11
221.518
 21
-43.332
  0
LINE
  8
0
 10
221.518
 20
-43.332
 11
221.412
 21
-43.1073
  0
LINE
  8
0
 10
221.412
 20
-43.1073
 11
221.341
 21
-42.8696
  0
LINE
  8
0
 10
221.341
 20
-42.8696
 11
221.305
 21
-42.6241
  0
LINE
  8
0
 10
221.305
 20
-42.6241
 11
221.305
 21
-42.3759
  0
LINE
  8
0
 10
221.305
 20
-42.3759
 11
221.341
 21
-42.1304
  0
LINE
  8
0
 10
221.341
 20
-42.1304
 11
221.412
 21
-41.8927
  0
LINE
  8
0
 10
221.412
 20
-41.8927
 11
221.518
 21
-41.668
  0
LINE
  8
0
 10
221.518
 20
-41.668
 11
221.654
 21
-41.461
  0
LINE
  8
0
 10
221.654
 20
-41.461
 11
221.82
 21
-41.2762
  0
LINE
  8
0
 10
221.82
 20
-41.2762
 11
222.011
 21
-41.1174
  0
LINE
  8
0
 10
222.011
 20
-41.1174
 11
222.223
 21
-40.9881
  0
LINE
  8
0
 10
222.223
 20
-40.9881
 11
222.451
 21
-40.8911
  0
LINE
  8
0
 10
222.451
 20
-40.8911
 11
222.691
 21
-40.8283
  0
LINE
  8
0
 10
222.691
 20
-40.8283
 11
222.938
 21
-40.8011
  0
LINE
  8
0
 10
222.938
 20
-40.8011
 11
223.186
 21
-40.8102
  0
LINE
  8
0
 10
223.186
 20
-40.8102
 11
223.43
 21
-40.8553
  0
LINE
  8
0
 10
223.43
 20
-40.8553
 11
223.665
 21
-40.9354
  0
LINE
  8
0
 10
223.665
 20
-40.9354
 11
223.886
 21
-41.0489
  0
LINE
  8
0
 10
223.886
 20
-41.0489
 11
224.087
 21
-41.1933
  0
LINE
  8
0
 10
224.087
 20
-41.1933
 11
224.266
 21
-41.3656
  0
LINE
  8
0
 10
224.266
 20
-41.3656
 11
224.418
 21
-41.562
  0
LINE
  8
0
 10
224.418
 20
-41.562
 11
224.539
 21
-41.7784
  0
LINE
  8
0
 10
224.539
 20
-41.7784
 11
224.628
 21
-42.0102
  0
LINE
  8
0
 10
224.628
 20
-42.0102
 11
224.682
 21
-42.2525
  0
LINE
  8
0
 10
224.682
 20
-42.2525
 11
224.7
 21
-42.5
  0
LINE
  8
0
 10
224.7
 20
-42.5
 11
224.682
 21
-42.7475
  0
LINE
  8
0
 10
224.682
 20
-42.7475
 11
224.628
 21
-42.9898
  0
LINE
  8
0
 10
224.628
 20
-42.9898
 11
224.539
 21
-43.2216
  0
LINE
  8
0
 10
224.539
 20
-43.2216
 11
224.418
 21
-43.438
  0
LINE
  8
0
 10
224.418
 20
-43.438
 11
224.266
 21
-43.6344
  0
LINE
  8
0
 10
224.266
 20
-43.6344
 11
224.087
 21
-43.8067
  0
LINE
  8
0
 10
224.087
 20
-43.8067
 11
223.886
 21
-43.9511
  0
LINE
  8
0
 10
223.886
 20
-43.9511
 11
223.665
 21
-44.0646
  0
LINE
  8
0
 10
223.665
 20
-44.0646
 11
223.43
 21
-44.1447
  0
LINE
  8
0
 10
223.43
 20
-44.1447
 11
223.186
 21
-44.1898
  0
LINE
  8
0
 10
223.186
 20
-44.1898
 11
222.938
 21
-44.1989
  0
LINE
  8
0
 10
222.938
 20
-44.1989
 11
222.691
 21
-44.1717
  0
LINE
  8
0
 10
-223.392
 20
-88.7294
 11
-223.78
 21
-88.668
  0
LINE
  8
0
 10
-223.78
 20
-88.668
 11
-224.159
 21
-88.5665
  0
LINE
  8
0
 10
-224.159
 20
-88.5665
 11
-224.525
 21
-88.4258
  0
LINE
  8
0
 10
-224.525
 20
-88.4258
 11
-224.875
 21
-88.2476
  0
LINE
  8
0
 10
-224.875
 20
-88.2476
 11
-225.204
 21
-88.0338
  0
LINE
  8
0
 10
-225.204
 20
-88.0338
 11
-225.509
 21
-87.7868
  0
LINE
  8
0
 10
-225.509
 20
-87.7868
 11
-225.787
 21
-87.5092
  0
LINE
  8
0
 10
-225.787
 20
-87.5092
 11
-226.034
 21
-87.2042
  0
LINE
  8
0
 10
-226.034
 20
-87.2042
 11
-226.248
 21
-86.875
  0
LINE
  8
0
 10
-226.248
 20
-86.875
 11
-226.426
 21
-86.5253
  0
LINE
  8
0
 10
-226.426
 20
-86.5253
 11
-226.566
 21
-86.1588
  0
LINE
  8
0
 10
-226.566
 20
-86.1588
 11
-226.668
 21
-85.7797
  0
LINE
  8
0
 10
-226.668
 20
-85.7797
 11
-226.729
 21
-85.392
  0
LINE
  8
0
 10
-226.729
 20
-85.392
 11
-226.75
 21
-85
  0
LINE
  8
0
 10
-226.75
 20
-85
 11
-226.729
 21
-84.608
  0
LINE
  8
0
 10
-226.729
 20
-84.608
 11
-226.668
 21
-84.2203
  0
LINE
  8
0
 10
-226.668
 20
-84.2203
 11
-226.566
 21
-83.8412
  0
LINE
  8
0
 10
-226.566
 20
-83.8412
 11
-226.426
 21
-83.4747
  0
LINE
  8
0
 10
-226.426
 20
-83.4747
 11
-226.248
 21
-83.125
  0
LINE
  8
0
 10
-226.248
 20
-83.125
 11
-226.034
 21
-82.7958
  0
LINE
  8
0
 10
-226.034
 20
-82.7958
 11
-225.787
 21
-82.4908
  0
LINE
  8
0
 10
-225.787
 20
-82.4908
 11
-225.509
 21
-82.2132
  0
LINE
  8
0
 10
-225.509
 20
-82.2132
 11
-225.204
 21
-81.9662
  0
LINE
  8
0
 10
-225.204
 20
-81.9662
 11
-224.875
 21
-81.7524
  0
LINE
  8
0
 10
-224.875
 20
-81.7524
 11
-224.525
 21
-81.5742
  0
LINE
  8
0
 10
-224.525
 20
-81.5742
 11
-224.159
 21
-81.4335
  0
LINE
  8
0
 10
-224.159
 20
-81.4335
 11
-223.78
 21
-81.3319
  0
LINE
  8
0
 10
-223.78
 20
-81.3319
 11
-223.392
 21
-81.2705
  0
LINE
  8
0
 10
-223.392
 20
-81.2705
 11
-223
 21
-81.25
  0
LINE
  8
0
 10
-223
 20
-81.25
 11
-222.608
 21
-81.2705
  0
LINE
  8
0
 10
-222.608
 20
-81.2705
 11
-222.22
 21
-81.3319
  0
LINE
  8
0
 10
-222.22
 20
-81.3319
 11
-221.841
 21
-81.4335
  0
LINE
  8
0
 10
-221.841
 20
-81.4335
 11
-221.475
 21
-81.5742
  0
LINE
  8
0
 10
-221.475
 20
-81.5742
 11
-221.125
 21
-81.7524
  0
LINE
  8
0
 10
-221.125
 20
-81.7524
 11
-220.796
 21
-81.9662
  0
LINE
  8
0
 10
-220.796
 20
-81.9662
 11
-220.491
 21
-82.2132
  0
LINE
  8
0
 10
-220.491
 20
-82.2132
 11
-220.213
 21
-82.4908
  0
LINE
  8
0
 10
-220.213
 20
-82.4908
 11
-219.966
 21
-82.7958
  0
LINE
  8
0
 10
-219.966
 20
-82.7958
 11
-219.752
 21
-83.125
  0
LINE
  8
0
 10
-219.752
 20
-83.125
 11
-219.574
 21
-83.4747
  0
LINE
  8
0
 10
-219.574
 20
-83.4747
 11
-219.434
 21
-83.8412
  0
LINE
  8
0
 10
-219.434
 20
-83.8412
 11
-219.332
 21
-84.2203
  0
LINE
  8
0
 10
-219.332
 20
-84.2203
 11
-219.271
 21
-84.608
  0
LINE
  8
0
 10
-219.271
 20
-84.608
 11
-219.25
 21
-85
  0
LINE
  8
0
 10
-219.25
 20
-85
 11
-219.271
 21
-85.392
  0
LINE
  8
0
 10
-219.271
 20
-85.392
 11
-219.332
 21
-85.7797
  0
LINE
  8
0
 10
-219.332
 20
-85.7797
 11
-219.434
 21
-86.1588
  0
LINE
  8
0
 10
-219.434
 20
-86.1588
 11
-219.574
 21
-86.5253
  0
LINE
  8
0
 10
-219.574
 20
-86.5253
 11
-219.752
 21
-86.875
  0
LINE
  8
0
 10
-219.752
 20
-86.875
 11
-219.966
 21
-87.2042
  0
LINE
  8
0
 10
-219.966
 20
-87.2042
 11
-220.213
 21
-87.5092
  0
LINE
  8
0
 10
-220.213
 20
-87.5092
 11
-220.491
 21
-87.7868
  0
LINE
  8
0
 10
-220.491
 20
-87.7868
 11
-220.796
 21
-88.0338
  0
LINE
  8
0
 10
-220.796
 20
-88.0338
 11
-221.125
 21
-88.2476
  0
LINE
  8
0
 10
-221.125
 20
-88.2476
 11
-221.475
 21
-88.4258
  0
LINE
  8
0
 10
-221.475
 20
-88.4258
 11
-221.841
 21
-88.5665
  0
LINE
  8
0
 10
-221.841
 20
-88.5665
 11
-222.22
 21
-88.668
  0
LINE
  8
0
 10
-222.22
 20
-88.668
 11
-222.608
 21
-88.7294
  0
LINE
  8
0
 10
-222.608
 20
-88.7294
 11
-223
 21
-88.75
  0
LINE
  8
0
 10
-223
 20
-88.75
 11
-223.392
 21
-88.7294
  0
LINE
  8
0
 10
222.608
 20
-88.7294
 11
222.22
 21
-88.668
  0
LINE
  8
0
 10
222.22
 20
-88.668
 11
221.841
 21
-88.5665
  0
LINE
  8
0
 10
221.841
 20
-88.5665
 11
221.475
 21
-88.4258
  0
LINE
  8
0
 10
221.475
 20
-88.4258
 11
221.125
 21
-88.2476
  0
LINE
  8
0
 10
221.125
 20
-88.2476
 11
220.796
 21
-88.0338
  0
LINE
  8
0
 10
220.796
 20
-88.0338
 11
220.491
 21
-87.7868
  0
LINE
  8
0
 10
220.491
 20
-87.7868
 11
220.213
 21
-87.5092
  0
LINE
  8
0
 10
220.213
 20
-87.5092
 11
219.966
 21
-87.2042
  0
LINE
  8
0
 10
219.966
 20
-87.2042
 11
219.752
 21
-86.875
  0
LINE
  8
0
 10
219.752
 20
-86.875
 11
219.574
 21
-86.5253
  0
LINE
  8
0
 10
219.574
 20
-86.5253
 11
219.434
 21
-86.1588
  0
LINE
  8
0
 10
219.434
 20
-86.1588
 11
219.332
 21
-85.7797
  0
LINE
  8
0
 10
219.332
 20
-85.7797
 11
219.271
 21
-85.392
  0
LINE
  8
0
 10
219.271
 20
-85.392
 11
219.25
 21
-85
  0
LINE
  8
0
 10
219.25
 20
-85
 11
219.271
 21
-84.608
  0
LINE
  8
0
 10
219.271
 20
-84.608
 11
219.332
 21
-84.2203
  0
LINE
  8
0
 10
219.332
 20
-84.2203
 11
219.434
 21
-83.8412
  0
LINE
  8
0
 10
219.434
 20
-83.8412
 11
219.574
 21
-83.4747
  0
LINE
  8
0
 10
219.574
 20
-83.4747
 11
219.752
 21
-83.125
  0
LINE
  8
0
 10
219.752
 20
-83.125
 11
219.966
 21
-82.7958
  0
LINE
  8
0
 10
219.966
 20
-82.7958
 11
220.213
 21
-82.4908
  0
LINE
  8
0
 10
220.213
 20
-82.4908
 11
220.491
 21
-82.2132
  0
LINE
  8
0
 10
220.491
 20
-82.2132
 11
220.796
 21
-81.9662
  0
LINE
  8
0
 10
220.796
 20
-81.9662
 11
221.125
 21
-81.7524
  0
LINE
  8
0
 10
221.125
 20
-81.7524
 11
221.475
 21
-81.5742
  0
LINE
  8
0
 10
221.475
 20
-81.5742
 11
221.841
 21
-81.4335
  0
LINE
  8
0
 10
221.841
 20
-81.4335
 11
222.22
 21
-81.3319
  0
LINE
  8
0
 10
222.22
 20
-81.3319
 11
222.608
 21
-81.2705
  0
LINE
  8
0
 10
222.608
 20
-81.2705
 11
223
 21
-81.25
  0
LINE
  8
0
 10
223
 20
-81.25
 11
223.392
 21
-81.2705
  0
LINE
  8
0
 10
223.392
 20
-81.2705
 11
223.78
 21
-81.3319
  0
LINE
  8
0
 10
223.78
 20
-81.3319
 11
224.159
 21
-81.4335
  0
LINE
  8
0
 10
224.159
 20
-81.4335
 11
224.525
 21
-81.5742
  0
LINE
  8
0
 10
224.525
 20
-81.5742
 11
224.875
 21
-81.7524
  0
LINE
  8
0
 10
224.875
 20
-81.7524
 11
225.204
 21
-81.9662
  0
LINE
  8
0
 10
225.204
 20
-81.9662
 11
225.509
 21
-82.2132
  0
LINE
  8
0
 10
225.509
 20
-82.2132
 11
225.787
 21
-82.4908
  0
LINE
  8
0
 10
225.787
 20
-82.4908
 11
226.034
 21
-82.7958
  0
LINE
  8
0
 10
226.034
 20
-82.7958
 11
226.248
 21
-83.125
  0
LINE
  8
0
 10
226.248
 20
-83.125
 11
226.426
 21
-83.4747
  0
LINE
  8
0
 10
226.426
 20
-83.4747
 11
226.566
 21
-83.8412
  0
LINE
  8
0
 10
226.566
 20
-83.8412
 11
226.668
 21
-84.2203
  0
LINE
  8
0
 10
226.668
 20
-84.2203
 11
226.729
 21
-84.608
  0
LINE
  8
0
 10
226.729
 20
-84.608
 11
226.75
 21
-85
  0
LINE
  8
0
 10
226.75
 20
-85
 11
226.729
 21
-85.392
  0
LINE
  8
0
 10
226.729
 20
-85.392
 11
226.668
 21
-85.7797
  0
LINE
  8
0
 10
226.668
 20
-85.7797
 11
226.566
 21
-86.1588
  0
LINE
  8
0
 10
226.566
 20
-86.1588
 11
226.426
 21
-86.5253
  0
LINE
  8
0
 10
226.426
 20
-86.5253
 11
226.248
 21
-86.875
  0
LINE
  8
0
 10
226.248
 20
-86.875
 11
226.034
 21
-87.2042
  0
LINE
  8
0
 10
226.034
 20
-87.2042
 11
225.787
 21
-87.5092
  0
LINE
  8
0
 10
225.787
 20
-87.5092
 11
225.509
 21
-87.7868
  0
LINE
  8
0
 10
225.509
 20
-87.7868
 11
225.204
 21
-88.0338
  0
LINE
  8
0
 10
225.204
 20
-88.0338
 11
224.875
 21
-88.2476
  0
LINE
  8
0
 10
224.875
 20
-88.2476
 11
224.525
 21
-88.4258
  0
LINE
  8
0
 10
224.525
 20
-88.4258
 11
224.159
 21
-88.5665
  0
LINE
  8
0
 10
224.159
 20
-88.5665
 11
223.78
 21
-88.668
  0
LINE
  8
0
 10
223.78
 20
-88.668
 11
223.392
 21
-88.7294
  0
LINE
  8
0
 10
223.392
 20
-88.7294
 11
223
 21
-88.75
  0
LINE
  8
0
 10
223
 20
-88.75
 11
222.608
 21
-88.7294
  0
ENDSEC
  0
SECTION
  2
OBJECTS
  0
DICTIONARY
  0
ENDSEC
  0
EOF
