  0
SECTION
  2
BLOCKS
  0
ENDSEC
  0
SECTION
  2
ENTITIES
  0
LINE
  8
0
 10
130.784
 20
-140.459
 11
131.559
 21
-140.336
  0
LINE
  8
0
 10
131.559
 20
-140.336
 11
132.318
 21
-140.133
  0
LINE
  8
0
 10
132.318
 20
-140.133
 11
133.051
 21
-139.852
  0
LINE
  8
0
 10
133.051
 20
-139.852
 11
133.75
 21
-139.495
  0
LINE
  8
0
 10
133.75
 20
-139.495
 11
134.408
 21
-139.068
  0
LINE
  8
0
 10
134.408
 20
-139.068
 11
135.018
 21
-138.574
  0
LINE
  8
0
 10
135.018
 20
-138.574
 11
135.574
 21
-138.018
  0
LINE
  8
0
 10
135.574
 20
-138.018
 11
136.068
 21
-137.408
  0
LINE
  8
0
 10
136.068
 20
-137.408
 11
136.495
 21
-136.75
  0
LINE
  8
0
 10
136.495
 20
-136.75
 11
136.852
 21
-136.051
  0
LINE
  8
0
 10
136.852
 20
-136.051
 11
137.133
 21
-135.318
  0
LINE
  8
0
 10
137.133
 20
-135.318
 11
137.336
 21
-134.559
  0
LINE
  8
0
 10
137.336
 20
-134.559
 11
137.459
 21
-133.784
  0
LINE
  8
0
 10
137.459
 20
-133.784
 11
137.5
 21
-133
  0
LINE
  8
0
 10
137.5
 20
-133
 11
137.5
 21
-16.7
  0
LINE
  8
0
 10
137.5
 20
-16.7
 11
137.527
 21
-16.1774
  0
LINE
  8
0
 10
137.527
 20
-16.1774
 11
137.609
 21
-15.6604
  0
LINE
  8
0
 10
137.609
 20
-15.6604
 11
137.745
 21
-15.1549
  0
LINE
  8
0
 10
137.745
 20
-15.1549
 11
137.932
 21
-14.6663
  0
LINE
  8
0
 10
137.932
 20
-14.6663
 11
138.17
 21
-14.2
  0
LINE
  8
0
 10
138.17
 20
-14.2
 11
138.455
 21
-13.7611
  0
LINE
  8
0
 10
138.455
 20
-13.7611
 11
138.784
 21
-13.3544
  0
LINE
  8
0
 10
138.784
 20
-13.3544
 11
139.154
 21
-12.9843
  0
LINE
  8
0
 10
139.154
 20
-12.9843
 11
139.561
 21
-12.6549
  0
LINE
  8
0
 10
139.561
 20
-12.6549
 11
140
 21
-12.3699
  0
LINE
  8
0
 10
140
 20
-12.3699
 11
140.466
 21
-12.1323
  0
LINE
  8
0
 10
140.466
 20
-12.1323
 11
140.955
 21
-11.9447
  0
LINE
  8
0
 10
140.955
 20
-11.9447
 11
141.46
 21
-11.8093
  0
LINE
  8
0
 10
141.46
 20
-11.8093
 11
141.977
 21
-11.7274
  0
LINE
  8
0
 10
141.977
 20
-11.7274
 11
143.284
 21
-11.6589
  0
LINE
  8
0
 10
143.284
 20
-11.6589
 11
144.059
 21
-11.5361
  0
LINE
  8
0
 10
144.059
 20
-11.5361
 11
144.818
 21
-11.3329
  0
LINE
  8
0
 10
144.818
 20
-11.3329
 11
145.551
 21
-11.0516
  0
LINE
  8
0
 10
145.551
 20
-11.0516
 11
146.25
 21
-10.6952
  0
LINE
  8
0
 10
146.25
 20
-10.6952
 11
146.908
 21
-10.2676
  0
LINE
  8
0
 10
146.908
 20
-10.2676
 11
147.518
 21
-9.77357
  0
LINE
  8
0
 10
147.518
 20
-9.77357
 11
148.074
 21
-9.21848
  0
LINE
  8
0
 10
148.074
 20
-9.21848
 11
148.568
 21
-8.60838
  0
LINE
  8
0
 10
148.568
 20
-8.60838
 11
148.995
 21
-7.95
  0
LINE
  8
0
 10
148.995
 20
-7.95
 11
149.352
 21
-7.25052
  0
LINE
  8
0
 10
149.352
 20
-7.25052
 11
149.633
 21
-6.51762
  0
LINE
  8
0
 10
149.633
 20
-6.51762
 11
149.836
 21
-5.75932
  0
LINE
  8
0
 10
149.836
 20
-5.75932
 11
149.959
 21
-4.98396
  0
LINE
  8
0
 10
149.959
 20
-4.98396
 11
150
 21
-4.2
  0
LINE
  8
0
 10
150
 20
-4.2
 11
150
 21
-1.69885
  0
LINE
  8
0
 10
150
 20
-1.69885
 11
142.438
 21
-1.69885
  0
LINE
  8
0
 10
142.438
 20
-1.69885
 11
142.191
 21
-1.67171
  0
LINE
  8
0
 10
142.191
 20
-1.67171
 11
141.951
 21
-1.60893
  0
LINE
  8
0
 10
141.951
 20
-1.60893
 11
141.723
 21
-1.51187
  0
LINE
  8
0
 10
141.723
 20
-1.51187
 11
141.511
 21
-1.38258
  0
LINE
  8
0
 10
141.511
 20
-1.38258
 11
141.32
 21
-1.22383
  0
LINE
  8
0
 10
141.32
 20
-1.22383
 11
141.154
 21
-1.03899
  0
LINE
  8
0
 10
141.154
 20
-1.03899
 11
141.018
 21
-0.832001
  0
LINE
  8
0
 10
141.018
 20
-0.832001
 11
140.912
 21
-0.607285
  0
LINE
  8
0
 10
140.912
 20
-0.607285
 11
140.841
 21
-0.369629
  0
LINE
  8
0
 10
140.841
 20
-0.369629
 11
140.805
 21
-0.124084
  0
LINE
  8
0
 10
140.805
 20
-0.124084
 11
140.805
 21
0.124084
  0
LINE
  8
0
 10
140.805
 20
0.124084
 11
140.841
 21
0.369629
  0
LINE
  8
0
 10
140.841
 20
0.369629
 11
140.912
 21
0.607285
  0
LINE
  8
0
 10
140.912
 20
0.607285
 11
141.018
 21
0.832001
  0
LINE
  8
0
 10
141.018
 20
0.832001
 11
141.154
 21
1.03899
  0
LINE
  8
0
 10
141.154
 20
1.03899
 11
141.32
 21
1.22383
  0
LINE
  8
0
 10
141.32
 20
1.22383
 11
141.511
 21
1.38258
  0
LINE
  8
0
 10
141.511
 20
1.38258
 11
141.723
 21
1.51187
  0
LINE
  8
0
 10
141.723
 20
1.51187
 11
141.951
 21
1.60893
  0
LINE
  8
0
 10
141.951
 20
1.60893
 11
142.191
 21
1.67171
  0
LINE
  8
0
 10
142.191
 20
1.67171
 11
142.438
 21
1.69885
  0
LINE
  8
0
 10
142.438
 20
1.69885
 11
150
 21
1.69885
  0
LINE
  8
0
 10
150
 20
1.69885
 11
150
 21
4.2
  0
LINE
  8
0
 10
150
 20
4.2
 11
149.959
 21
4.98396
  0
LINE
  8
0
 10
149.959
 20
4.98396
 11
149.836
 21
5.75932
  0
LINE
  8
0
 10
149.836
 20
5.75932
 11
149.633
 21
6.51762
  0
LINE
  8
0
 10
149.633
 20
6.51762
 11
149.352
 21
7.25052
  0
LINE
  8
0
 10
149.352
 20
7.25052
 11
148.995
 21
7.95
  0
LINE
  8
0
 10
148.995
 20
7.95
 11
148.568
 21
8.60838
  0
LINE
  8
0
 10
148.568
 20
8.60838
 11
148.074
 21
9.21848
  0
LINE
  8
0
 10
148.074
 20
9.21848
 11
147.518
 21
9.77357
  0
LINE
  8
0
 10
147.518
 20
9.77357
 11
146.908
 21
10.2676
  0
LINE
  8
0
 10
146.908
 20
10.2676
 11
146.25
 21
10.6952
  0
LINE
  8
0
 10
146.25
 20
10.6952
 11
145.551
 21
11.0516
  0
LINE
  8
0
 10
145.551
 20
11.0516
 11
144.818
 21
11.3329
  0
LINE
  8
0
 10
144.818
 20
11.3329
 11
144.059
 21
11.5361
  0
LINE
  8
0
 10
144.059
 20
11.5361
 11
143.284
 21
11.6589
  0
LINE
  8
0
 10
143.284
 20
11.6589
 11
141.977
 21
11.7274
  0
LINE
  8
0
 10
141.977
 20
11.7274
 11
141.46
 21
11.8093
  0
LINE
  8
0
 10
141.46
 20
11.8093
 11
140.955
 21
11.9447
  0
LINE
  8
0
 10
140.955
 20
11.9447
 11
140.466
 21
12.1323
  0
LINE
  8
0
 10
140.466
 20
12.1323
 11
140
 21
12.3699
  0
LINE
  8
0
 10
140
 20
12.3699
 11
139.561
 21
12.6549
  0
LINE
  8
0
 10
139.561
 20
12.6549
 11
139.154
 21
12.9843
  0
LINE
  8
0
 10
139.154
 20
12.9843
 11
138.784
 21
13.3544
  0
LINE
  8
0
 10
138.784
 20
13.3544
 11
138.455
 21
13.7611
  0
LINE
  8
0
 10
138.455
 20
13.7611
 11
138.17
 21
14.2
  0
LINE
  8
0
 10
138.17
 20
14.2
 11
137.932
 21
14.6663
  0
LINE
  8
0
 10
137.932
 20
14.6663
 11
137.745
 21
15.1549
  0
LINE
  8
0
 10
137.745
 20
15.1549
 11
137.609
 21
15.6604
  0
LINE
  8
0
 10
137.609
 20
15.6604
 11
137.527
 21
16.1774
  0
LINE
  8
0
 10
137.527
 20
16.1774
 11
137.5
 21
16.7
  0
LINE
  8
0
 10
137.5
 20
16.7
 11
137.5
 21
133
  0
LINE
  8
0
 10
137.5
 20
133
 11
137.459
 21
133.784
  0
LINE
  8
0
 10
137.459
 20
133.784
 11
137.336
 21
134.559
  0
LINE
  8
0
 10
137.336
 20
134.559
 11
137.133
 21
135.318
  0
LINE
  8
0
 10
137.133
 20
135.318
 11
136.852
 21
136.051
  0
LINE
  8
0
 10
136.852
 20
136.051
 11
136.495
 21
136.75
  0
LINE
  8
0
 10
136.495
 20
136.75
 11
136.068
 21
137.408
  0
LINE
  8
0
 10
136.068
 20
137.408
 11
135.574
 21
138.018
  0
LINE
  8
0
 10
135.574
 20
138.018
 11
135.018
 21
138.574
  0
LINE
  8
0
 10
135.018
 20
138.574
 11
134.408
 21
139.068
  0
LINE
  8
0
 10
134.408
 20
139.068
 11
133.75
 21
139.495
  0
LINE
  8
0
 10
133.75
 20
139.495
 11
133.051
 21
139.852
  0
LINE
  8
0
 10
133.051
 20
139.852
 11
132.318
 21
140.133
  0
LINE
  8
0
 10
132.318
 20
140.133
 11
131.559
 21
140.336
  0
LINE
  8
0
 10
131.559
 20
140.336
 11
130.784
 21
140.459
  0
LINE
  8
0
 10
130.784
 20
140.459
 11
130
 21
140.5
  0
LINE
  8
0
 10
130
 20
140.5
 11
-130
 21
140.5
  0
LINE
  8
0
 10
-130
 20
140.5
 11
-130.784
 21
140.459
  0
LINE
  8
0
 10
-130.784
 20
140.459
 11
-131.559
 21
140.336
  0
LINE
  8
0
 10
-131.559
 20
140.336
 11
-132.318
 21
140.133
  0
LINE
  8
0
 10
-132.318
 20
140.133
 11
-133.051
 21
139.852
  0
LINE
  8
0
 10
-133.051
 20
139.852
 11
-133.75
 21
139.495
  0
LINE
  8
0
 10
-133.75
 20
139.495
 11
-134.408
 21
139.068
  0
LINE
  8
0
 10
-134.408
 20
139.068
 11
-135.018
 21
138.574
  0
LINE
  8
0
 10
-135.018
 20
138.574
 11
-135.574
 21
138.018
  0
LINE
  8
0
 10
-135.574
 20
138.018
 11
-136.068
 21
137.408
  0
LINE
  8
0
 10
-136.068
 20
137.408
 11
-136.495
 21
136.75
  0
LINE
  8
0
 10
-136.495
 20
136.75
 11
-136.852
 21
136.051
  0
LINE
  8
0
 10
-136.852
 20
136.051
 11
-137.133
 21
135.318
  0
LINE
  8
0
 10
-137.133
 20
135.318
 11
-137.336
 21
134.559
  0
LINE
  8
0
 10
-137.336
 20
134.559
 11
-137.459
 21
133.784
  0
LINE
  8
0
 10
-137.459
 20
133.784
 11
-137.5
 21
133
  0
LINE
  8
0
 10
-137.5
 20
133
 11
-137.5
 21
119.2
  0
LINE
  8
0
 10
-137.5
 20
119.2
 11
-137.527
 21
118.677
  0
LINE
  8
0
 10
-137.527
 20
118.677
 11
-137.609
 21
118.16
  0
LINE
  8
0
 10
-137.609
 20
118.16
 11
-137.745
 21
117.655
  0
LINE
  8
0
 10
-137.745
 20
117.655
 11
-137.932
 21
117.166
  0
LINE
  8
0
 10
-137.932
 20
117.166
 11
-138.17
 21
116.7
  0
LINE
  8
0
 10
-138.17
 20
116.7
 11
-138.455
 21
116.261
  0
LINE
  8
0
 10
-138.455
 20
116.261
 11
-138.784
 21
115.854
  0
LINE
  8
0
 10
-138.784
 20
115.854
 11
-139.154
 21
115.484
  0
LINE
  8
0
 10
-139.154
 20
115.484
 11
-139.561
 21
115.155
  0
LINE
  8
0
 10
-139.561
 20
115.155
 11
-140
 21
114.87
  0
LINE
  8
0
 10
-140
 20
114.87
 11
-140.466
 21
114.632
  0
LINE
  8
0
 10
-140.466
 20
114.632
 11
-140.955
 21
114.445
  0
LINE
  8
0
 10
-140.955
 20
114.445
 11
-141.46
 21
114.309
  0
LINE
  8
0
 10
-141.46
 20
114.309
 11
-141.977
 21
114.227
  0
LINE
  8
0
 10
-141.977
 20
114.227
 11
-143.284
 21
114.159
  0
LINE
  8
0
 10
-143.284
 20
114.159
 11
-144.059
 21
114.036
  0
LINE
  8
0
 10
-144.059
 20
114.036
 11
-144.818
 21
113.833
  0
LINE
  8
0
 10
-144.818
 20
113.833
 11
-145.551
 21
113.552
  0
LINE
  8
0
 10
-145.551
 20
113.552
 11
-146.25
 21
113.195
  0
LINE
  8
0
 10
-146.25
 20
113.195
 11
-146.908
 21
112.768
  0
LINE
  8
0
 10
-146.908
 20
112.768
 11
-147.518
 21
112.274
  0
LINE
  8
0
 10
-147.518
 20
112.274
 11
-148.074
 21
111.718
  0
LINE
  8
0
 10
-148.074
 20
111.718
 11
-148.568
 21
111.108
  0
LINE
  8
0
 10
-148.568
 20
111.108
 11
-148.995
 21
110.45
  0
LINE
  8
0
 10
-148.995
 20
110.45
 11
-149.352
 21
109.751
  0
LINE
  8
0
 10
-149.352
 20
109.751
 11
-149.633
 21
109.018
  0
LINE
  8
0
 10
-149.633
 20
109.018
 11
-149.836
 21
108.259
  0
LINE
  8
0
 10
-149.836
 20
108.259
 11
-149.959
 21
107.484
  0
LINE
  8
0
 10
-149.959
 20
107.484
 11
-150
 21
106.7
  0
LINE
  8
0
 10
-150
 20
106.7
 11
-150
 21
104.199
  0
LINE
  8
0
 10
-150
 20
104.199
 11
-142.438
 21
104.199
  0
LINE
  8
0
 10
-142.438
 20
104.199
 11
-142.191
 21
104.172
  0
LINE
  8
0
 10
-142.191
 20
104.172
 11
-141.951
 21
104.109
  0
LINE
  8
0
 10
-141.951
 20
104.109
 11
-141.723
 21
104.012
  0
LINE
  8
0
 10
-141.723
 20
104.012
 11
-141.511
 21
103.883
  0
LINE
  8
0
 10
-141.511
 20
103.883
 11
-141.32
 21
103.724
  0
LINE
  8
0
 10
-141.32
 20
103.724
 11
-141.154
 21
103.539
  0
LINE
  8
0
 10
-141.154
 20
103.539
 11
-141.018
 21
103.332
  0
LINE
  8
0
 10
-141.018
 20
103.332
 11
-140.912
 21
103.107
  0
LINE
  8
0
 10
-140.912
 20
103.107
 11
-140.841
 21
102.87
  0
LINE
  8
0
 10
-140.841
 20
102.87
 11
-140.805
 21
102.624
  0
LINE
  8
0
 10
-140.805
 20
102.624
 11
-140.805
 21
102.376
  0
LINE
  8
0
 10
-140.805
 20
102.376
 11
-140.841
 21
102.13
  0
LINE
  8
0
 10
-140.841
 20
102.13
 11
-140.912
 21
101.893
  0
LINE
  8
0
 10
-140.912
 20
101.893
 11
-141.018
 21
101.668
  0
LINE
  8
0
 10
-141.018
 20
101.668
 11
-141.154
 21
101.461
  0
LINE
  8
0
 10
-141.154
 20
101.461
 11
-141.32
 21
101.276
  0
LINE
  8
0
 10
-141.32
 20
101.276
 11
-141.511
 21
101.117
  0
LINE
  8
0
 10
-141.511
 20
101.117
 11
-141.723
 21
100.988
  0
LINE
  8
0
 10
-141.723
 20
100.988
 11
-141.951
 21
100.891
  0
LINE
  8
0
 10
-141.951
 20
100.891
 11
-142.191
 21
100.828
  0
LINE
  8
0
 10
-142.191
 20
100.828
 11
-142.438
 21
100.801
  0
LINE
  8
0
 10
-142.438
 20
100.801
 11
-150
 21
100.801
  0
LINE
  8
0
 10
-150
 20
100.801
 11
-150
 21
98.3
  0
LINE
  8
0
 10
-150
 20
98.3
 11
-149.959
 21
97.516
  0
LINE
  8
0
 10
-149.959
 20
97.516
 11
-149.836
 21
96.7407
  0
LINE
  8
0
 10
-149.836
 20
96.7407
 11
-149.633
 21
95.9824
  0
LINE
  8
0
 10
-149.633
 20
95.9824
 11
-149.352
 21
95.2495
  0
LINE
  8
0
 10
-149.352
 20
95.2495
 11
-148.995
 21
94.55
  0
LINE
  8
0
 10
-148.995
 20
94.55
 11
-148.568
 21
93.8916
  0
LINE
  8
0
 10
-148.568
 20
93.8916
 11
-148.074
 21
93.2815
  0
LINE
  8
0
 10
-148.074
 20
93.2815
 11
-147.518
 21
92.7264
  0
LINE
  8
0
 10
-147.518
 20
92.7264
 11
-146.908
 21
92.2324
  0
LINE
  8
0
 10
-146.908
 20
92.2324
 11
-146.25
 21
91.8048
  0
LINE
  8
0
 10
-146.25
 20
91.8048
 11
-145.551
 21
91.4484
  0
LINE
  8
0
 10
-145.551
 20
91.4484
 11
-144.818
 21
91.1671
  0
LINE
  8
0
 10
-144.818
 20
91.1671
 11
-144.059
 21
90.9639
  0
LINE
  8
0
 10
-144.059
 20
90.9639
 11
-143.284
 21
90.8411
  0
LINE
  8
0
 10
-143.284
 20
90.8411
 11
-141.977
 21
90.7726
  0
LINE
  8
0
 10
-141.977
 20
90.7726
 11
-141.46
 21
90.6907
  0
LINE
  8
0
 10
-141.46
 20
90.6907
 11
-140.955
 21
90.5553
  0
LINE
  8
0
 10
-140.955
 20
90.5553
 11
-140.466
 21
90.3677
  0
LINE
  8
0
 10
-140.466
 20
90.3677
 11
-140
 21
90.1301
  0
LINE
  8
0
 10
-140
 20
90.1301
 11
-139.561
 21
89.8451
  0
LINE
  8
0
 10
-139.561
 20
89.8451
 11
-139.154
 21
89.5157
  0
LINE
  8
0
 10
-139.154
 20
89.5157
 11
-138.784
 21
89.1456
  0
LINE
  8
0
 10
-138.784
 20
89.1456
 11
-138.455
 21
88.7389
  0
LINE
  8
0
 10
-138.455
 20
88.7389
 11
-138.17
 21
88.3
  0
LINE
  8
0
 10
-138.17
 20
88.3
 11
-137.932
 21
87.8337
  0
LINE
  8
0
 10
-137.932
 20
87.8337
 11
-137.745
 21
87.3451
  0
LINE
  8
0
 10
-137.745
 20
87.3451
 11
-137.609
 21
86.8396
  0
LINE
  8
0
 10
-137.609
 20
86.8396
 11
-137.527
 21
86.3226
  0
LINE
  8
0
 10
-137.527
 20
86.3226
 11
-137.5
 21
85.8
  0
LINE
  8
0
 10
-137.5
 20
85.8
 11
-137.5
 21
-85.8
  0
LINE
  8
0
 10
-137.5
 20
-85.8
 11
-137.527
 21
-86.3226
  0
LINE
  8
0
 10
-137.527
 20
-86.3226
 11
-137.609
 21
-86.8396
  0
LINE
  8
0
 10
-137.609
 20
-86.8396
 11
-137.745
 21
-87.3451
  0
LINE
  8
0
 10
-137.745
 20
-87.3451
 11
-137.932
 21
-87.8337
  0
LINE
  8
0
 10
-137.932
 20
-87.8337
 11
-138.17
 21
-88.3
  0
LINE
  8
0
 10
-138.17
 20
-88.3
 11
-138.455
 21
-88.7389
  0
LINE
  8
0
 10
-138.455
 20
-88.7389
 11
-138.784
 21
-89.1456
  0
LINE
  8
0
 10
-138.784
 20
-89.1456
 11
-139.154
 21
-89.5157
  0
LINE
  8
0
 10
-139.154
 20
-89.5157
 11
-139.561
 21
-89.8451
  0
LINE
  8
0
 10
-139.561
 20
-89.8451
 11
-140
 21
-90.1301
  0
LINE
  8
0
 10
-140
 20
-90.1301
 11
-140.466
 21
-90.3677
  0
LINE
  8
0
 10
-140.466
 20
-90.3677
 11
-140.955
 21
-90.5553
  0
LINE
  8
0
 10
-140.955
 20
-90.5553
 11
-141.46
 21
-90.6907
  0
LINE
  8
0
 10
-141.46
 20
-90.6907
 11
-141.977
 21
-90.7726
  0
LINE
  8
0
 10
-141.977
 20
-90.7726
 11
-143.284
 21
-90.8411
  0
LINE
  8
0
 10
-143.284
 20
-90.8411
 11
-144.059
 21
-90.9639
  0
LINE
  8
0
 10
-144.059
 20
-90.9639
 11
-144.818
 21
-91.1671
  0
LINE
  8
0
 10
-144.818
 20
-91.1671
 11
-145.551
 21
-91.4484
  0
LINE
  8
0
 10
-145.551
 20
-91.4484
 11
-146.25
 21
-91.8048
  0
LINE
  8
0
 10
-146.25
 20
-91.8048
 11
-146.908
 21
-92.2324
  0
LINE
  8
0
 10
-146.908
 20
-92.2324
 11
-147.518
 21
-92.7264
  0
LINE
  8
0
 10
-147.518
 20
-92.7264
 11
-148.074
 21
-93.2815
  0
LINE
  8
0
 10
-148.074
 20
-93.2815
 11
-148.568
 21
-93.8916
  0
LINE
  8
0
 10
-148.568
 20
-93.8916
 11
-148.995
 21
-94.55
  0
LINE
  8
0
 10
-148.995
 20
-94.55
 11
-149.352
 21
-95.2495
  0
LINE
  8
0
 10
-149.352
 20
-95.2495
 11
-149.633
 21
-95.9824
  0
LINE
  8
0
 10
-149.633
 20
-95.9824
 11
-149.836
 21
-96.7407
  0
LINE
  8
0
 10
-149.836
 20
-96.7407
 11
-149.959
 21
-97.516
  0
LINE
  8
0
 10
-149.959
 20
-97.516
 11
-150
 21
-98.3
  0
LINE
  8
0
 10
-150
 20
-98.3
 11
-150
 21
-100.801
  0
LINE
  8
0
 10
-150
 20
-100.801
 11
-142.438
 21
-100.801
  0
LINE
  8
0
 10
-142.438
 20
-100.801
 11
-142.191
 21
-100.828
  0
LINE
  8
0
 10
-142.191
 20
-100.828
 11
-141.951
 21
-100.891
  0
LINE
  8
0
 10
-141.951
 20
-100.891
 11
-141.723
 21
-100.988
  0
LINE
  8
0
 10
-141.723
 20
-100.988
 11
-141.511
 21
-101.117
  0
LINE
  8
0
 10
-141.511
 20
-101.117
 11
-141.32
 21
-101.276
  0
LINE
  8
0
 10
-141.32
 20
-101.276
 11
-141.154
 21
-101.461
  0
LINE
  8
0
 10
-141.154
 20
-101.461
 11
-141.018
 21
-101.668
  0
LINE
  8
0
 10
-141.018
 20
-101.668
 11
-140.912
 21
-101.893
  0
LINE
  8
0
 10
-140.912
 20
-101.893
 11
-140.841
 21
-102.13
  0
LINE
  8
0
 10
-140.841
 20
-102.13
 11
-140.805
 21
-102.376
  0
LINE
  8
0
 10
-140.805
 20
-102.376
 11
-140.805
 21
-102.624
  0
LINE
  8
0
 10
-140.805
 20
-102.624
 11
-140.841
 21
-102.87
  0
LINE
  8
0
 10
-140.841
 20
-102.87
 11
-140.912
 21
-103.107
  0
LINE
  8
0
 10
-140.912
 20
-103.107
 11
-141.018
 21
-103.332
  0
LINE
  8
0
 10
-141.018
 20
-103.332
 11
-141.154
 21
-103.539
  0
LINE
  8
0
 10
-141.154
 20
-103.539
 11
-141.32
 21
-103.724
  0
LINE
  8
0
 10
-141.32
 20
-103.724
 11
-141.511
 21
-103.883
  0
LINE
  8
0
 10
-141.511
 20
-103.883
 11
-141.723
 21
-104.012
  0
LINE
  8
0
 10
-141.723
 20
-104.012
 11
-141.951
 21
-104.109
  0
LINE
  8
0
 10
-141.951
 20
-104.109
 11
-142.191
 21
-104.172
  0
LINE
  8
0
 10
-142.191
 20
-104.172
 11
-142.438
 21
-104.199
  0
LINE
  8
0
 10
-142.438
 20
-104.199
 11
-150
 21
-104.199
  0
LINE
  8
0
 10
-150
 20
-104.199
 11
-150
 21
-106.7
  0
LINE
  8
0
 10
-150
 20
-106.7
 11
-149.959
 21
-107.484
  0
LINE
  8
0
 10
-149.959
 20
-107.484
 11
-149.836
 21
-108.259
  0
LINE
  8
0
 10
-149.836
 20
-108.259
 11
-149.633
 21
-109.018
  0
LINE
  8
0
 10
-149.633
 20
-109.018
 11
-149.352
 21
-109.751
  0
LINE
  8
0
 10
-149.352
 20
-109.751
 11
-148.995
 21
-110.45
  0
LINE
  8
0
 10
-148.995
 20
-110.45
 11
-148.568
 21
-111.108
  0
LINE
  8
0
 10
-148.568
 20
-111.108
 11
-148.074
 21
-111.718
  0
LINE
  8
0
 10
-148.074
 20
-111.718
 11
-147.518
 21
-112.274
  0
LINE
  8
0
 10
-147.518
 20
-112.274
 11
-146.908
 21
-112.768
  0
LINE
  8
0
 10
-146.908
 20
-112.768
 11
-146.25
 21
-113.195
  0
LINE
  8
0
 10
-146.25
 20
-113.195
 11
-145.551
 21
-113.552
  0
LINE
  8
0
 10
-145.551
 20
-113.552
 11
-144.818
 21
-113.833
  0
LINE
  8
0
 10
-144.818
 20
-113.833
 11
-144.059
 21
-114.036
  0
LINE
  8
0
 10
-144.059
 20
-114.036
 11
-143.284
 21
-114.159
  0
LINE
  8
0
 10
-143.284
 20
-114.159
 11
-141.977
 21
-114.227
  0
LINE
  8
0
 10
-141.977
 20
-114.227
 11
-141.46
 21
-114.309
  0
LINE
  8
0
 10
-141.46
 20
-114.309
 11
-140.955
 21
-114.445
  0
LINE
  8
0
 10
-140.955
 20
-114.445
 11
-140.466
 21
-114.632
  0
LINE
  8
0
 10
-140.466
 20
-114.632
 11
-140
 21
-114.87
  0
LINE
  8
0
 10
-140
 20
-114.87
 11
-139.561
 21
-115.155
  0
LINE
  8
0
 10
-139.561
 20
-115.155
 11
-139.154
 21
-115.484
  0
LINE
  8
0
 10
-139.154
 20
-115.484
 11
-138.784
 21
-115.854
  0
LINE
  8
0
 10
-138.784
 20
-115.854
 11
-138.455
 21
-116.261
  0
LINE
  8
0
 10
-138.455
 20
-116.261
 11
-138.17
 21
-116.7
  0
LINE
  8
0
 10
-138.17
 20
-116.7
 11
-137.932
 21
-117.166
  0
LINE
  8
0
 10
-137.932
 20
-117.166
 11
-137.745
 21
-117.655
  0
LINE
  8
0
 10
-137.745
 20
-117.655
 11
-137.609
 21
-118.16
  0
LINE
  8
0
 10
-137.609
 20
-118.16
 11
-137.527
 21
-118.677
  0
LINE
  8
0
 10
-137.527
 20
-118.677
 11
-137.5
 21
-119.2
  0
LINE
  8
0
 10
-137.5
 20
-119.2
 11
-137.5
 21
-133
  0
LINE
  8
0
 10
-137.5
 20
-133
 11
-137.459
 21
-133.784
  0
LINE
  8
0
 10
-137.459
 20
-133.784
 11
-137.336
 21
-134.559
  0
LINE
  8
0
 10
-137.336
 20
-134.559
 11
-137.133
 21
-135.318
  0
LINE
  8
0
 10
-137.133
 20
-135.318
 11
-136.852
 21
-136.051
  0
LINE
  8
0
 10
-136.852
 20
-136.051
 11
-136.495
 21
-136.75
  0
LINE
  8
0
 10
-136.495
 20
-136.75
 11
-136.068
 21
-137.408
  0
LINE
  8
0
 10
-136.068
 20
-137.408
 11
-135.574
 21
-138.018
  0
LINE
  8
0
 10
-135.574
 20
-138.018
 11
-135.018
 21
-138.574
  0
LINE
  8
0
 10
-135.018
 20
-138.574
 11
-134.408
 21
-139.068
  0
LINE
  8
0
 10
-134.408
 20
-139.068
 11
-133.75
 21
-139.495
  0
LINE
  8
0
 10
-133.75
 20
-139.495
 11
-133.051
 21
-139.852
  0
LINE
  8
0
 10
-133.051
 20
-139.852
 11
-132.318
 21
-140.133
  0
LINE
  8
0
 10
-132.318
 20
-140.133
 11
-131.559
 21
-140.336
  0
LINE
  8
0
 10
-131.559
 20
-140.336
 11
-130.784
 21
-140.459
  0
LINE
  8
0
 10
-130.784
 20
-140.459
 11
-130
 21
-140.5
  0
LINE
  8
0
 10
-130
 20
-140.5
 11
130
 21
-140.5
  0
LINE
  8
0
 10
130
 20
-140.5
 11
130.784
 21
-140.459
  0
LINE
  8
0
 10
132.317
 20
-36.5894
 11
132.076
 21
-36.5428
  0
LINE
  8
0
 10
132.076
 20
-36.5428
 11
131.845
 21
-36.46
  0
LINE
  8
0
 10
131.845
 20
-36.46
 11
131.63
 21
-36.343
  0
LINE
  8
0
 10
131.63
 20
-36.343
 11
131.435
 21
-36.1945
  0
LINE
  8
0
 10
131.435
 20
-36.1945
 11
131.266
 21
-36.018
  0
LINE
  8
0
 10
131.266
 20
-36.018
 11
131.125
 21
-35.8176
  0
LINE
  8
0
 10
131.125
 20
-35.8176
 11
131.016
 21
-35.5981
  0
LINE
  8
0
 10
131.016
 20
-35.5981
 11
130.942
 21
-35.3646
  0
LINE
  8
0
 10
130.942
 20
-35.3646
 11
130.905
 21
-35.1225
  0
LINE
  8
0
 10
130.905
 20
-35.1225
 11
130.905
 21
-34.8775
  0
LINE
  8
0
 10
130.905
 20
-34.8775
 11
130.942
 21
-34.6354
  0
LINE
  8
0
 10
130.942
 20
-34.6354
 11
131.016
 21
-34.4019
  0
LINE
  8
0
 10
131.016
 20
-34.4019
 11
131.125
 21
-34.1824
  0
LINE
  8
0
 10
131.125
 20
-34.1824
 11
131.266
 21
-33.982
  0
LINE
  8
0
 10
131.266
 20
-33.982
 11
131.435
 21
-33.8055
  0
LINE
  8
0
 10
131.435
 20
-33.8055
 11
131.63
 21
-33.657
  0
LINE
  8
0
 10
131.63
 20
-33.657
 11
131.845
 21
-33.54
  0
LINE
  8
0
 10
131.845
 20
-33.54
 11
132.076
 21
-33.4572
  0
LINE
  8
0
 10
132.076
 20
-33.4572
 11
132.317
 21
-33.4106
  0
LINE
  8
0
 10
132.317
 20
-33.4106
 11
132.561
 21
-33.4012
  0
LINE
  8
0
 10
132.561
 20
-33.4012
 11
132.805
 21
-33.4293
  0
LINE
  8
0
 10
132.805
 20
-33.4293
 11
133.041
 21
-33.4942
  0
LINE
  8
0
 10
133.041
 20
-33.4942
 11
133.264
 21
-33.5944
  0
LINE
  8
0
 10
133.264
 20
-33.5944
 11
133.47
 21
-33.7275
  0
LINE
  8
0
 10
133.47
 20
-33.7275
 11
133.653
 21
-33.8905
  0
LINE
  8
0
 10
133.653
 20
-33.8905
 11
133.809
 21
-34.0795
  0
LINE
  8
0
 10
133.809
 20
-34.0795
 11
133.934
 21
-34.29
  0
LINE
  8
0
 10
133.934
 20
-34.29
 11
134.025
 21
-34.5172
  0
LINE
  8
0
 10
134.025
 20
-34.5172
 11
134.081
 21
-34.7558
  0
LINE
  8
0
 10
134.081
 20
-34.7558
 11
134.1
 21
-35
  0
LINE
  8
0
 10
134.1
 20
-35
 11
134.081
 21
-35.2442
  0
LINE
  8
0
 10
134.081
 20
-35.2442
 11
134.025
 21
-35.4827
  0
LINE
  8
0
 10
134.025
 20
-35.4827
 11
133.934
 21
-35.7099
  0
LINE
  8
0
 10
133.934
 20
-35.7099
 11
133.809
 21
-35.9205
  0
LINE
  8
0
 10
133.809
 20
-35.9205
 11
133.653
 21
-36.1095
  0
LINE
  8
0
 10
133.653
 20
-36.1095
 11
133.47
 21
-36.2725
  0
LINE
  8
0
 10
133.47
 20
-36.2725
 11
133.264
 21
-36.4056
  0
LINE
  8
0
 10
133.264
 20
-36.4056
 11
133.041
 21
-36.5058
  0
LINE
  8
0
 10
133.041
 20
-36.5058
 11
132.805
 21
-36.5707
  0
LINE
  8
0
 10
132.805
 20
-36.5707
 11
132.561
 21
-36.5988
  0
LINE
  8
0
 10
132.561
 20
-36.5988
 11
132.317
 21
-36.5894
  0
LINE
  8
0
 10
132.317
 20
-56.5894
 11
132.076
 21
-56.5428
  0
LINE
  8
0
 10
132.076
 20
-56.5428
 11
131.845
 21
-56.46
  0
LINE
  8
0
 10
131.845
 20
-56.46
 11
131.63
 21
-56.343
  0
LINE
  8
0
 10
131.63
 20
-56.343
 11
131.435
 21
-56.1945
  0
LINE
  8
0
 10
131.435
 20
-56.1945
 11
131.266
 21
-56.018
  0
LINE
  8
0
 10
131.266
 20
-56.018
 11
131.125
 21
-55.8176
  0
LINE
  8
0
 10
131.125
 20
-55.8176
 11
131.016
 21
-55.5981
  0
LINE
  8
0
 10
131.016
 20
-55.5981
 11
130.942
 21
-55.3646
  0
LINE
  8
0
 10
130.942
 20
-55.3646
 11
130.905
 21
-55.1225
  0
LINE
  8
0
 10
130.905
 20
-55.1225
 11
130.905
 21
-54.8775
  0
LINE
  8
0
 10
130.905
 20
-54.8775
 11
130.942
 21
-54.6354
  0
LINE
  8
0
 10
130.942
 20
-54.6354
 11
131.016
 21
-54.4019
  0
LINE
  8
0
 10
131.016
 20
-54.4019
 11
131.125
 21
-54.1824
  0
LINE
  8
0
 10
131.125
 20
-54.1824
 11
131.266
 21
-53.982
  0
LINE
  8
0
 10
131.266
 20
-53.982
 11
131.435
 21
-53.8055
  0
LINE
  8
0
 10
131.435
 20
-53.8055
 11
131.63
 21
-53.657
  0
LINE
  8
0
 10
131.63
 20
-53.657
 11
131.845
 21
-53.54
  0
LINE
  8
0
 10
131.845
 20
-53.54
 11
132.076
 21
-53.4572
  0
LINE
  8
0
 10
132.076
 20
-53.4572
 11
132.317
 21
-53.4106
  0
LINE
  8
0
 10
132.317
 20
-53.4106
 11
132.561
 21
-53.4012
  0
LINE
  8
0
 10
132.561
 20
-53.4012
 11
132.805
 21
-53.4293
  0
LINE
  8
0
 10
132.805
 20
-53.4293
 11
133.041
 21
-53.4942
  0
LINE
  8
0
 10
133.041
 20
-53.4942
 11
133.264
 21
-53.5944
  0
LINE
  8
0
 10
133.264
 20
-53.5944
 11
133.47
 21
-53.7275
  0
LINE
  8
0
 10
133.47
 20
-53.7275
 11
133.653
 21
-53.8905
  0
LINE
  8
0
 10
133.653
 20
-53.8905
 11
133.809
 21
-54.0795
  0
LINE
  8
0
 10
133.809
 20
-54.0795
 11
133.934
 21
-54.29
  0
LINE
  8
0
 10
133.934
 20
-54.29
 11
134.025
 21
-54.5172
  0
LINE
  8
0
 10
134.025
 20
-54.5172
 11
134.081
 21
-54.7558
  0
LINE
  8
0
 10
134.081
 20
-54.7558
 11
134.1
 21
-55
  0
LINE
  8
0
 10
134.1
 20
-55
 11
134.081
 21
-55.2442
  0
LINE
  8
0
 10
134.081
 20
-55.2442
 11
134.025
 21
-55.4827
  0
LINE
  8
0
 10
134.025
 20
-55.4827
 11
133.934
 21
-55.7099
  0
LINE
  8
0
 10
133.934
 20
-55.7099
 11
133.809
 21
-55.9205
  0
LINE
  8
0
 10
133.809
 20
-55.9205
 11
133.653
 21
-56.1095
  0
LINE
  8
0
 10
133.653
 20
-56.1095
 11
133.47
 21
-56.2725
  0
LINE
  8
0
 10
133.47
 20
-56.2725
 11
133.264
 21
-56.4056
  0
LINE
  8
0
 10
133.264
 20
-56.4056
 11
133.041
 21
-56.5058
  0
LINE
  8
0
 10
133.041
 20
-56.5058
 11
132.805
 21
-56.5707
  0
LINE
  8
0
 10
132.805
 20
-56.5707
 11
132.561
 21
-56.5988
  0
LINE
  8
0
 10
132.561
 20
-56.5988
 11
132.317
 21
-56.5894
  0
ENDSEC
  0
SECTION
  2
OBJECTS
  0
DICTIONARY
  0
ENDSEC
  0
EOF
