  0
SECTION
  2
BLOCKS
  0
ENDSEC
  0
SECTION
  2
ENTITIES
  0
LINE
  8
0
 10
177.091
 20
-177.39
 11
179.158
 21
-177.063
  0
LINE
  8
0
 10
179.158
 20
-177.063
 11
181.18
 21
-176.521
  0
LINE
  8
0
 10
181.18
 20
-176.521
 11
183.135
 21
-175.771
  0
LINE
  8
0
 10
183.135
 20
-175.771
 11
185
 21
-174.82
  0
LINE
  8
0
 10
185
 20
-174.82
 11
186.756
 21
-173.68
  0
LINE
  8
0
 10
186.756
 20
-173.68
 11
188.383
 21
-172.363
  0
LINE
  8
0
 10
188.383
 20
-172.363
 11
189.863
 21
-170.883
  0
LINE
  8
0
 10
189.863
 20
-170.883
 11
191.18
 21
-169.256
  0
LINE
  8
0
 10
191.18
 20
-169.256
 11
192.32
 21
-167.5
  0
LINE
  8
0
 10
192.32
 20
-167.5
 11
193.271
 21
-165.635
  0
LINE
  8
0
 10
193.271
 20
-165.635
 11
194.021
 21
-163.68
  0
LINE
  8
0
 10
194.021
 20
-163.68
 11
194.563
 21
-161.658
  0
LINE
  8
0
 10
194.563
 20
-161.658
 11
194.89
 21
-159.591
  0
LINE
  8
0
 10
194.89
 20
-159.591
 11
195
 21
-157.5
  0
LINE
  8
0
 10
195
 20
-157.5
 11
195
 21
157.5
  0
LINE
  8
0
 10
195
 20
157.5
 11
194.89
 21
159.591
  0
LINE
  8
0
 10
194.89
 20
159.591
 11
194.563
 21
161.658
  0
LINE
  8
0
 10
194.563
 20
161.658
 11
194.021
 21
163.68
  0
LINE
  8
0
 10
194.021
 20
163.68
 11
193.271
 21
165.635
  0
LINE
  8
0
 10
193.271
 20
165.635
 11
192.32
 21
167.5
  0
LINE
  8
0
 10
192.32
 20
167.5
 11
191.18
 21
169.256
  0
LINE
  8
0
 10
191.18
 20
169.256
 11
189.863
 21
170.883
  0
LINE
  8
0
 10
189.863
 20
170.883
 11
188.383
 21
172.363
  0
LINE
  8
0
 10
188.383
 20
172.363
 11
186.756
 21
173.68
  0
LINE
  8
0
 10
186.756
 20
173.68
 11
185
 21
174.82
  0
LINE
  8
0
 10
185
 20
174.82
 11
183.135
 21
175.771
  0
LINE
  8
0
 10
183.135
 20
175.771
 11
181.18
 21
176.521
  0
LINE
  8
0
 10
181.18
 20
176.521
 11
179.158
 21
177.063
  0
LINE
  8
0
 10
179.158
 20
177.063
 11
177.091
 21
177.39
  0
LINE
  8
0
 10
177.091
 20
177.39
 11
175
 21
177.5
  0
LINE
  8
0
 10
175
 20
177.5
 11
3
 21
177.5
  0
LINE
  8
0
 10
3
 20
177.5
 11
2.73868
 21
177.486
  0
LINE
  8
0
 10
2.73868
 20
177.486
 11
2.48021
 21
177.445
  0
LINE
  8
0
 10
2.48021
 20
177.445
 11
2.22745
 21
177.378
  0
LINE
  8
0
 10
2.22745
 20
177.378
 11
1.98315
 21
177.284
  0
LINE
  8
0
 10
1.98315
 20
177.284
 11
1.75
 21
177.165
  0
LINE
  8
0
 10
1.75
 20
177.165
 11
1.53053
 21
177.023
  0
LINE
  8
0
 10
1.53053
 20
177.023
 11
1.32716
 21
176.858
  0
LINE
  8
0
 10
1.32716
 20
176.858
 11
1.14214
 21
176.673
  0
LINE
  8
0
 10
1.14214
 20
176.673
 11
0.977448
 21
176.469
  0
LINE
  8
0
 10
0.977448
 20
176.469
 11
0.83493
 21
176.25
  0
LINE
  8
0
 10
0.83493
 20
176.25
 11
0.716125
 21
176.017
  0
LINE
  8
0
 10
0.716125
 20
176.017
 11
0.622345
 21
175.773
  0
LINE
  8
0
 10
0.622345
 20
175.773
 11
0.554626
 21
175.52
  0
LINE
  8
0
 10
0.554626
 20
175.52
 11
0.513687
 21
175.261
  0
LINE
  8
0
 10
0.513687
 20
175.261
 11
0.5
 21
175
  0
LINE
  8
0
 10
0.5
 20
175
 11
0.5
 21
-175
  0
LINE
  8
0
 10
0.5
 20
-175
 11
0.513687
 21
-175.261
  0
LINE
  8
0
 10
0.513687
 20
-175.261
 11
0.554626
 21
-175.52
  0
LINE
  8
0
 10
0.554626
 20
-175.52
 11
0.622345
 21
-175.773
  0
LINE
  8
0
 10
0.622345
 20
-175.773
 11
0.716125
 21
-176.017
  0
LINE
  8
0
 10
0.716125
 20
-176.017
 11
0.83493
 21
-176.25
  0
LINE
  8
0
 10
0.83493
 20
-176.25
 11
0.977448
 21
-176.469
  0
LINE
  8
0
 10
0.977448
 20
-176.469
 11
1.14214
 21
-176.673
  0
LINE
  8
0
 10
1.14214
 20
-176.673
 11
1.32716
 21
-176.858
  0
LINE
  8
0
 10
1.32716
 20
-176.858
 11
1.53053
 21
-177.023
  0
LINE
  8
0
 10
1.53053
 20
-177.023
 11
1.75
 21
-177.165
  0
LINE
  8
0
 10
1.75
 20
-177.165
 11
1.98315
 21
-177.284
  0
LINE
  8
0
 10
1.98315
 20
-177.284
 11
2.22745
 21
-177.378
  0
LINE
  8
0
 10
2.22745
 20
-177.378
 11
2.48021
 21
-177.445
  0
LINE
  8
0
 10
2.48021
 20
-177.445
 11
2.73868
 21
-177.486
  0
LINE
  8
0
 10
2.73868
 20
-177.486
 11
3
 21
-177.5
  0
LINE
  8
0
 10
3
 20
-177.5
 11
175
 21
-177.5
  0
LINE
  8
0
 10
175
 20
-177.5
 11
177.091
 21
-177.39
  0
ENDSEC
  0
SECTION
  2
OBJECTS
  0
DICTIONARY
  0
ENDSEC
  0
EOF
