solid OpenSCAD_Model
  facet normal 0 0 -1
    outer loop
      vertex 175 -177.5 0
      vertex 195 -157.5 0
      vertex 194.89 -159.591 0
    endloop
  endfacet
  facet normal -0 0 -1
    outer loop
      vertex 195 -157.5 0
      vertex 0.5 -175 0
      vertex 195 157.5 0
    endloop
  endfacet
  facet normal 0 0 -1
    outer loop
      vertex 175 -177.5 0
      vertex 194.89 -159.591 0
      vertex 194.563 -161.658 0
    endloop
  endfacet
  facet normal 0 0 -1
    outer loop
      vertex 0.5 175 0
      vertex 195 157.5 0
      vertex 0.5 -175 0
    endloop
  endfacet
  facet normal 0 0 -1
    outer loop
      vertex 175 -177.5 0
      vertex 194.563 -161.658 0
      vertex 194.021 -163.68 0
    endloop
  endfacet
  facet normal 0 -0 -1
    outer loop
      vertex 175 177.5 0
      vertex 195 157.5 0
      vertex 0.5 175 0
    endloop
  endfacet
  facet normal 0 0 -1
    outer loop
      vertex 175 -177.5 0
      vertex 194.021 -163.68 0
      vertex 193.271 -165.635 0
    endloop
  endfacet
  facet normal 0 0 -1
    outer loop
      vertex 195 157.5 0
      vertex 175 177.5 0
      vertex 194.89 159.591 0
    endloop
  endfacet
  facet normal 0 0 -1
    outer loop
      vertex 175 -177.5 0
      vertex 193.271 -165.635 0
      vertex 192.32 -167.5 0
    endloop
  endfacet
  facet normal 0 0 -1
    outer loop
      vertex 194.89 159.591 0
      vertex 175 177.5 0
      vertex 194.563 161.658 0
    endloop
  endfacet
  facet normal 0 0 -1
    outer loop
      vertex 175 -177.5 0
      vertex 192.32 -167.5 0
      vertex 191.18 -169.256 0
    endloop
  endfacet
  facet normal 0 0 -1
    outer loop
      vertex 195 -157.5 0
      vertex 175 -177.5 0
      vertex 0.5 -175 0
    endloop
  endfacet
  facet normal 0 0 -1
    outer loop
      vertex 175 -177.5 0
      vertex 191.18 -169.256 0
      vertex 189.863 -170.883 0
    endloop
  endfacet
  facet normal 0 0 -1
    outer loop
      vertex 194.563 161.658 0
      vertex 175 177.5 0
      vertex 194.021 163.68 0
    endloop
  endfacet
  facet normal 0 0 -1
    outer loop
      vertex 175 -177.5 0
      vertex 189.863 -170.883 0
      vertex 188.383 -172.363 0
    endloop
  endfacet
  facet normal 0 0 -1
    outer loop
      vertex 192.32 167.5 0
      vertex 175 177.5 0
      vertex 191.18 169.256 0
    endloop
  endfacet
  facet normal 0 0 -1
    outer loop
      vertex 175 -177.5 0
      vertex 188.383 -172.363 0
      vertex 186.756 -173.68 0
    endloop
  endfacet
  facet normal 0 0 -1
    outer loop
      vertex 191.18 169.256 0
      vertex 175 177.5 0
      vertex 189.863 170.883 0
    endloop
  endfacet
  facet normal 0 0 -1
    outer loop
      vertex 175 -177.5 0
      vertex 186.756 -173.68 0
      vertex 185 -174.82 0
    endloop
  endfacet
  facet normal 0 0 -1
    outer loop
      vertex 189.863 170.883 0
      vertex 175 177.5 0
      vertex 188.383 172.363 0
    endloop
  endfacet
  facet normal 0 0 -1
    outer loop
      vertex 175 -177.5 0
      vertex 185 -174.82 0
      vertex 183.135 -175.771 0
    endloop
  endfacet
  facet normal 0 0 -1
    outer loop
      vertex 188.383 172.363 0
      vertex 175 177.5 0
      vertex 186.756 173.68 0
    endloop
  endfacet
  facet normal 0 0 -1
    outer loop
      vertex 175 -177.5 0
      vertex 183.135 -175.771 0
      vertex 181.18 -176.521 0
    endloop
  endfacet
  facet normal 0 0 -1
    outer loop
      vertex 186.756 173.68 0
      vertex 175 177.5 0
      vertex 185 174.82 0
    endloop
  endfacet
  facet normal 0 0 -1
    outer loop
      vertex 175 -177.5 0
      vertex 181.18 -176.521 0
      vertex 179.158 -177.063 0
    endloop
  endfacet
  facet normal 0 0 -1
    outer loop
      vertex 185 174.82 0
      vertex 175 177.5 0
      vertex 183.135 175.771 0
    endloop
  endfacet
  facet normal 0 0 -1
    outer loop
      vertex 175 -177.5 0
      vertex 179.158 -177.063 0
      vertex 177.091 -177.39 0
    endloop
  endfacet
  facet normal 0 0 -1
    outer loop
      vertex 183.135 175.771 0
      vertex 175 177.5 0
      vertex 181.18 176.521 0
    endloop
  endfacet
  facet normal 0 0 -1
    outer loop
      vertex 181.18 176.521 0
      vertex 175 177.5 0
      vertex 179.158 177.063 0
    endloop
  endfacet
  facet normal 0 0 -1
    outer loop
      vertex 179.158 177.063 0
      vertex 175 177.5 0
      vertex 177.091 177.39 0
    endloop
  endfacet
  facet normal 0 0 -1
    outer loop
      vertex 0.5 -175 0
      vertex 175 -177.5 0
      vertex 3 -177.5 0
    endloop
  endfacet
  facet normal 0 0 -1
    outer loop
      vertex 194.021 163.68 0
      vertex 175 177.5 0
      vertex 193.271 165.635 0
    endloop
  endfacet
  facet normal 0 0 -1
    outer loop
      vertex 0.5 -175 0
      vertex 3 -177.5 0
      vertex 2.73868 -177.486 0
    endloop
  endfacet
  facet normal 0 0 -1
    outer loop
      vertex 193.271 165.635 0
      vertex 175 177.5 0
      vertex 192.32 167.5 0
    endloop
  endfacet
  facet normal 0 0 -1
    outer loop
      vertex 0.5 -175 0
      vertex 2.73868 -177.486 0
      vertex 2.48021 -177.445 0
    endloop
  endfacet
  facet normal -0 0 -1
    outer loop
      vertex 175 177.5 0
      vertex 0.5 175 0
      vertex 3 177.5 0
    endloop
  endfacet
  facet normal 0 0 -1
    outer loop
      vertex 0.5 -175 0
      vertex 2.48021 -177.445 0
      vertex 2.22745 -177.378 0
    endloop
  endfacet
  facet normal 0 0 -1
    outer loop
      vertex 3 177.5 0
      vertex 0.5 175 0
      vertex 2.73868 177.486 0
    endloop
  endfacet
  facet normal 0 0 -1
    outer loop
      vertex 0.5 -175 0
      vertex 2.22745 -177.378 0
      vertex 1.98315 -177.284 0
    endloop
  endfacet
  facet normal 0 0 -1
    outer loop
      vertex 2.73868 177.486 0
      vertex 0.5 175 0
      vertex 2.48021 177.445 0
    endloop
  endfacet
  facet normal 0 0 -1
    outer loop
      vertex 0.5 -175 0
      vertex 1.98315 -177.284 0
      vertex 1.75 -177.165 0
    endloop
  endfacet
  facet normal 0 0 -1
    outer loop
      vertex 2.48021 177.445 0
      vertex 0.5 175 0
      vertex 2.22745 177.378 0
    endloop
  endfacet
  facet normal 0 0 -1
    outer loop
      vertex 0.5 -175 0
      vertex 1.75 -177.165 0
      vertex 1.53053 -177.023 0
    endloop
  endfacet
  facet normal 0 0 -1
    outer loop
      vertex 2.22745 177.378 0
      vertex 0.5 175 0
      vertex 1.98315 177.284 0
    endloop
  endfacet
  facet normal 0 0 -1
    outer loop
      vertex 0.5 -175 0
      vertex 1.53053 -177.023 0
      vertex 1.32716 -176.858 0
    endloop
  endfacet
  facet normal 0 0 -1
    outer loop
      vertex 1.98315 177.284 0
      vertex 0.5 175 0
      vertex 1.75 177.165 0
    endloop
  endfacet
  facet normal 0 0 -1
    outer loop
      vertex 0.5 -175 0
      vertex 1.32716 -176.858 0
      vertex 1.14214 -176.673 0
    endloop
  endfacet
  facet normal 0 0 -1
    outer loop
      vertex 1.75 177.165 0
      vertex 0.5 175 0
      vertex 1.53053 177.023 0
    endloop
  endfacet
  facet normal 0 0 -1
    outer loop
      vertex 0.5 -175 0
      vertex 1.14214 -176.673 0
      vertex 0.977448 -176.469 0
    endloop
  endfacet
  facet normal 0 0 -1
    outer loop
      vertex 1.53053 177.023 0
      vertex 0.5 175 0
      vertex 1.32716 176.858 0
    endloop
  endfacet
  facet normal 0 0 -1
    outer loop
      vertex 0.5 -175 0
      vertex 0.977448 -176.469 0
      vertex 0.83493 -176.25 0
    endloop
  endfacet
  facet normal 0 0 -1
    outer loop
      vertex 1.32716 176.858 0
      vertex 0.5 175 0
      vertex 1.14214 176.673 0
    endloop
  endfacet
  facet normal 0 0 -1
    outer loop
      vertex 0.5 -175 0
      vertex 0.83493 -176.25 0
      vertex 0.716125 -176.017 0
    endloop
  endfacet
  facet normal 0 0 -1
    outer loop
      vertex 1.14214 176.673 0
      vertex 0.5 175 0
      vertex 0.977448 176.469 0
    endloop
  endfacet
  facet normal 0 0 -1
    outer loop
      vertex 0.5 -175 0
      vertex 0.716125 -176.017 0
      vertex 0.622345 -175.773 0
    endloop
  endfacet
  facet normal 0 0 -1
    outer loop
      vertex 0.977448 176.469 0
      vertex 0.5 175 0
      vertex 0.83493 176.25 0
    endloop
  endfacet
  facet normal 0 0 -1
    outer loop
      vertex 0.5 -175 0
      vertex 0.622345 -175.773 0
      vertex 0.554626 -175.52 0
    endloop
  endfacet
  facet normal 0 0 -1
    outer loop
      vertex 0.83493 176.25 0
      vertex 0.5 175 0
      vertex 0.716125 176.017 0
    endloop
  endfacet
  facet normal 0 0 -1
    outer loop
      vertex 0.5 -175 0
      vertex 0.554626 -175.52 0
      vertex 0.513687 -175.261 0
    endloop
  endfacet
  facet normal 0 0 -1
    outer loop
      vertex 0.716125 176.017 0
      vertex 0.5 175 0
      vertex 0.622345 175.773 0
    endloop
  endfacet
  facet normal 0 0 -1
    outer loop
      vertex 0.622345 175.773 0
      vertex 0.5 175 0
      vertex 0.554626 175.52 0
    endloop
  endfacet
  facet normal 0 0 -1
    outer loop
      vertex 0.554626 175.52 0
      vertex 0.5 175 0
      vertex 0.513687 175.261 0
    endloop
  endfacet
  facet normal -0.987737 -0.156127 0
    outer loop
      vertex 0.554626 -175.52 0
      vertex 0.513687 -175.261 6.35
      vertex 0.513687 -175.261 0
    endloop
  endfacet
  facet normal -0.987737 -0.156127 0
    outer loop
      vertex 0.513687 -175.261 6.35
      vertex 0.554626 -175.52 0
      vertex 0.554626 -175.52 6.35
    endloop
  endfacet
  facet normal -1 0 0
    outer loop
      vertex 0.5 -175 0
      vertex 0.5 175 6.35
      vertex 0.5 175 0
    endloop
  endfacet
  facet normal -1 -0 0
    outer loop
      vertex 0.5 175 6.35
      vertex 0.5 -175 0
      vertex 0.5 -175 6.35
    endloop
  endfacet
  facet normal 0.998619 0.0525338 0
    outer loop
      vertex 195 157.5 6.35
      vertex 194.89 159.591 0
      vertex 194.89 159.591 6.35
    endloop
  endfacet
  facet normal 0.998619 0.0525338 0
    outer loop
      vertex 194.89 159.591 0
      vertex 195 157.5 6.35
      vertex 195 157.5 0
    endloop
  endfacet
  facet normal -0.998628 -0.0523687 0
    outer loop
      vertex 0.513687 -175.261 0
      vertex 0.5 -175 6.35
      vertex 0.5 -175 0
    endloop
  endfacet
  facet normal -0.998628 -0.0523687 0
    outer loop
      vertex 0.5 -175 6.35
      vertex 0.513687 -175.261 0
      vertex 0.513687 -175.261 6.35
    endloop
  endfacet
  facet normal -0.83815 0.54544 0
    outer loop
      vertex 0.83493 176.25 0
      vertex 0.977448 176.469 6.35
      vertex 0.977448 176.469 0
    endloop
  endfacet
  facet normal -0.83815 0.54544 0
    outer loop
      vertex 0.977448 176.469 6.35
      vertex 0.83493 176.25 0
      vertex 0.83493 176.25 6.35
    endloop
  endfacet
  facet normal 0 0 1
    outer loop
      vertex 175 177.5 6.35
      vertex 195 157.5 6.35
      vertex 194.89 159.591 6.35
    endloop
  endfacet
  facet normal 0 0 1
    outer loop
      vertex 195 157.5 6.35
      vertex 0.5 175 6.35
      vertex 195 -157.5 6.35
    endloop
  endfacet
  facet normal 0 0 1
    outer loop
      vertex 175 177.5 6.35
      vertex 194.89 159.591 6.35
      vertex 194.563 161.658 6.35
    endloop
  endfacet
  facet normal 0 0 1
    outer loop
      vertex 0.5 -175 6.35
      vertex 195 -157.5 6.35
      vertex 0.5 175 6.35
    endloop
  endfacet
  facet normal 0 0 1
    outer loop
      vertex 175 177.5 6.35
      vertex 194.563 161.658 6.35
      vertex 194.021 163.68 6.35
    endloop
  endfacet
  facet normal 0 -0 1
    outer loop
      vertex 175 -177.5 6.35
      vertex 195 -157.5 6.35
      vertex 0.5 -175 6.35
    endloop
  endfacet
  facet normal 0 0 1
    outer loop
      vertex 175 177.5 6.35
      vertex 194.021 163.68 6.35
      vertex 193.271 165.635 6.35
    endloop
  endfacet
  facet normal 0 0 1
    outer loop
      vertex 195 -157.5 6.35
      vertex 175 -177.5 6.35
      vertex 194.89 -159.591 6.35
    endloop
  endfacet
  facet normal 0 0 1
    outer loop
      vertex 175 177.5 6.35
      vertex 193.271 165.635 6.35
      vertex 192.32 167.5 6.35
    endloop
  endfacet
  facet normal 0 0 1
    outer loop
      vertex 194.89 -159.591 6.35
      vertex 175 -177.5 6.35
      vertex 194.563 -161.658 6.35
    endloop
  endfacet
  facet normal 0 0 1
    outer loop
      vertex 175 177.5 6.35
      vertex 192.32 167.5 6.35
      vertex 191.18 169.256 6.35
    endloop
  endfacet
  facet normal 0 0 1
    outer loop
      vertex 195 157.5 6.35
      vertex 175 177.5 6.35
      vertex 0.5 175 6.35
    endloop
  endfacet
  facet normal 0 0 1
    outer loop
      vertex 175 177.5 6.35
      vertex 191.18 169.256 6.35
      vertex 189.863 170.883 6.35
    endloop
  endfacet
  facet normal 0 0 1
    outer loop
      vertex 194.563 -161.658 6.35
      vertex 175 -177.5 6.35
      vertex 194.021 -163.68 6.35
    endloop
  endfacet
  facet normal 0 0 1
    outer loop
      vertex 175 177.5 6.35
      vertex 189.863 170.883 6.35
      vertex 188.383 172.363 6.35
    endloop
  endfacet
  facet normal 0 0 1
    outer loop
      vertex 192.32 -167.5 6.35
      vertex 175 -177.5 6.35
      vertex 191.18 -169.256 6.35
    endloop
  endfacet
  facet normal 0 0 1
    outer loop
      vertex 175 177.5 6.35
      vertex 188.383 172.363 6.35
      vertex 186.756 173.68 6.35
    endloop
  endfacet
  facet normal 0 0 1
    outer loop
      vertex 191.18 -169.256 6.35
      vertex 175 -177.5 6.35
      vertex 189.863 -170.883 6.35
    endloop
  endfacet
  facet normal 0 0 1
    outer loop
      vertex 175 177.5 6.35
      vertex 186.756 173.68 6.35
      vertex 185 174.82 6.35
    endloop
  endfacet
  facet normal 0 0 1
    outer loop
      vertex 189.863 -170.883 6.35
      vertex 175 -177.5 6.35
      vertex 188.383 -172.363 6.35
    endloop
  endfacet
  facet normal 0 0 1
    outer loop
      vertex 175 177.5 6.35
      vertex 185 174.82 6.35
      vertex 183.135 175.771 6.35
    endloop
  endfacet
  facet normal 0 0 1
    outer loop
      vertex 188.383 -172.363 6.35
      vertex 175 -177.5 6.35
      vertex 186.756 -173.68 6.35
    endloop
  endfacet
  facet normal 0 0 1
    outer loop
      vertex 175 177.5 6.35
      vertex 183.135 175.771 6.35
      vertex 181.18 176.521 6.35
    endloop
  endfacet
  facet normal 0 0 1
    outer loop
      vertex 186.756 -173.68 6.35
      vertex 175 -177.5 6.35
      vertex 185 -174.82 6.35
    endloop
  endfacet
  facet normal 0 0 1
    outer loop
      vertex 175 177.5 6.35
      vertex 181.18 176.521 6.35
      vertex 179.158 177.063 6.35
    endloop
  endfacet
  facet normal 0 0 1
    outer loop
      vertex 185 -174.82 6.35
      vertex 175 -177.5 6.35
      vertex 183.135 -175.771 6.35
    endloop
  endfacet
  facet normal 0 0 1
    outer loop
      vertex 175 177.5 6.35
      vertex 179.158 177.063 6.35
      vertex 177.091 177.39 6.35
    endloop
  endfacet
  facet normal 0 0 1
    outer loop
      vertex 183.135 -175.771 6.35
      vertex 175 -177.5 6.35
      vertex 181.18 -176.521 6.35
    endloop
  endfacet
  facet normal 0 0 1
    outer loop
      vertex 181.18 -176.521 6.35
      vertex 175 -177.5 6.35
      vertex 179.158 -177.063 6.35
    endloop
  endfacet
  facet normal 0 0 1
    outer loop
      vertex 179.158 -177.063 6.35
      vertex 175 -177.5 6.35
      vertex 177.091 -177.39 6.35
    endloop
  endfacet
  facet normal 0 0 1
    outer loop
      vertex 0.5 175 6.35
      vertex 175 177.5 6.35
      vertex 3 177.5 6.35
    endloop
  endfacet
  facet normal 0 0 1
    outer loop
      vertex 194.021 -163.68 6.35
      vertex 175 -177.5 6.35
      vertex 193.271 -165.635 6.35
    endloop
  endfacet
  facet normal 0 0 1
    outer loop
      vertex 0.5 175 6.35
      vertex 3 177.5 6.35
      vertex 2.73868 177.486 6.35
    endloop
  endfacet
  facet normal 0 0 1
    outer loop
      vertex 193.271 -165.635 6.35
      vertex 175 -177.5 6.35
      vertex 192.32 -167.5 6.35
    endloop
  endfacet
  facet normal 0 0 1
    outer loop
      vertex 0.5 175 6.35
      vertex 2.73868 177.486 6.35
      vertex 2.48021 177.445 6.35
    endloop
  endfacet
  facet normal 0 0 1
    outer loop
      vertex 175 -177.5 6.35
      vertex 0.5 -175 6.35
      vertex 3 -177.5 6.35
    endloop
  endfacet
  facet normal 0 0 1
    outer loop
      vertex 0.5 175 6.35
      vertex 2.48021 177.445 6.35
      vertex 2.22745 177.378 6.35
    endloop
  endfacet
  facet normal 0 0 1
    outer loop
      vertex 3 -177.5 6.35
      vertex 0.5 -175 6.35
      vertex 2.73868 -177.486 6.35
    endloop
  endfacet
  facet normal 0 0 1
    outer loop
      vertex 0.5 175 6.35
      vertex 2.22745 177.378 6.35
      vertex 1.98315 177.284 6.35
    endloop
  endfacet
  facet normal 0 0 1
    outer loop
      vertex 2.73868 -177.486 6.35
      vertex 0.5 -175 6.35
      vertex 2.48021 -177.445 6.35
    endloop
  endfacet
  facet normal 0 0 1
    outer loop
      vertex 0.5 175 6.35
      vertex 1.98315 177.284 6.35
      vertex 1.75 177.165 6.35
    endloop
  endfacet
  facet normal 0 0 1
    outer loop
      vertex 2.48021 -177.445 6.35
      vertex 0.5 -175 6.35
      vertex 2.22745 -177.378 6.35
    endloop
  endfacet
  facet normal 0 0 1
    outer loop
      vertex 0.5 175 6.35
      vertex 1.75 177.165 6.35
      vertex 1.53053 177.023 6.35
    endloop
  endfacet
  facet normal 0 0 1
    outer loop
      vertex 2.22745 -177.378 6.35
      vertex 0.5 -175 6.35
      vertex 1.98315 -177.284 6.35
    endloop
  endfacet
  facet normal 0 0 1
    outer loop
      vertex 0.5 175 6.35
      vertex 1.53053 177.023 6.35
      vertex 1.32716 176.858 6.35
    endloop
  endfacet
  facet normal 0 0 1
    outer loop
      vertex 1.98315 -177.284 6.35
      vertex 0.5 -175 6.35
      vertex 1.75 -177.165 6.35
    endloop
  endfacet
  facet normal 0 0 1
    outer loop
      vertex 0.5 175 6.35
      vertex 1.32716 176.858 6.35
      vertex 1.14214 176.673 6.35
    endloop
  endfacet
  facet normal 0 0 1
    outer loop
      vertex 1.75 -177.165 6.35
      vertex 0.5 -175 6.35
      vertex 1.53053 -177.023 6.35
    endloop
  endfacet
  facet normal 0 0 1
    outer loop
      vertex 0.5 175 6.35
      vertex 1.14214 176.673 6.35
      vertex 0.977448 176.469 6.35
    endloop
  endfacet
  facet normal 0 0 1
    outer loop
      vertex 1.53053 -177.023 6.35
      vertex 0.5 -175 6.35
      vertex 1.32716 -176.858 6.35
    endloop
  endfacet
  facet normal 0 0 1
    outer loop
      vertex 0.5 175 6.35
      vertex 0.977448 176.469 6.35
      vertex 0.83493 176.25 6.35
    endloop
  endfacet
  facet normal 0 0 1
    outer loop
      vertex 1.32716 -176.858 6.35
      vertex 0.5 -175 6.35
      vertex 1.14214 -176.673 6.35
    endloop
  endfacet
  facet normal 0 0 1
    outer loop
      vertex 0.5 175 6.35
      vertex 0.83493 176.25 6.35
      vertex 0.716125 176.017 6.35
    endloop
  endfacet
  facet normal 0 0 1
    outer loop
      vertex 1.14214 -176.673 6.35
      vertex 0.5 -175 6.35
      vertex 0.977448 -176.469 6.35
    endloop
  endfacet
  facet normal 0 0 1
    outer loop
      vertex 0.5 175 6.35
      vertex 0.716125 176.017 6.35
      vertex 0.622345 175.773 6.35
    endloop
  endfacet
  facet normal 0 0 1
    outer loop
      vertex 0.977448 -176.469 6.35
      vertex 0.5 -175 6.35
      vertex 0.83493 -176.25 6.35
    endloop
  endfacet
  facet normal 0 0 1
    outer loop
      vertex 0.5 175 6.35
      vertex 0.622345 175.773 6.35
      vertex 0.554626 175.52 6.35
    endloop
  endfacet
  facet normal 0 0 1
    outer loop
      vertex 0.83493 -176.25 6.35
      vertex 0.5 -175 6.35
      vertex 0.716125 -176.017 6.35
    endloop
  endfacet
  facet normal 0 0 1
    outer loop
      vertex 0.5 175 6.35
      vertex 0.554626 175.52 6.35
      vertex 0.513687 175.261 6.35
    endloop
  endfacet
  facet normal 0 0 1
    outer loop
      vertex 0.716125 -176.017 6.35
      vertex 0.5 -175 6.35
      vertex 0.622345 -175.773 6.35
    endloop
  endfacet
  facet normal 0 0 1
    outer loop
      vertex 0.622345 -175.773 6.35
      vertex 0.5 -175 6.35
      vertex 0.554626 -175.52 6.35
    endloop
  endfacet
  facet normal 0 0 1
    outer loop
      vertex 0.554626 -175.52 6.35
      vertex 0.5 -175 6.35
      vertex 0.513687 -175.261 6.35
    endloop
  endfacet
  facet normal 0.156257 0.987716 -0
    outer loop
      vertex 179.158 177.063 0
      vertex 177.091 177.39 6.35
      vertex 179.158 177.063 6.35
    endloop
  endfacet
  facet normal 0.156257 0.987716 0
    outer loop
      vertex 177.091 177.39 6.35
      vertex 179.158 177.063 0
      vertex 177.091 177.39 0
    endloop
  endfacet
  facet normal -0.998628 0.0523687 0
    outer loop
      vertex 0.5 175 0
      vertex 0.513687 175.261 6.35
      vertex 0.513687 175.261 0
    endloop
  endfacet
  facet normal -0.998628 0.0523687 0
    outer loop
      vertex 0.513687 175.261 6.35
      vertex 0.5 175 0
      vertex 0.5 175 6.35
    endloop
  endfacet
  facet normal 1 -0 0
    outer loop
      vertex 195 -157.5 6.35
      vertex 195 157.5 0
      vertex 195 157.5 6.35
    endloop
  endfacet
  facet normal 1 0 0
    outer loop
      vertex 195 157.5 0
      vertex 195 -157.5 6.35
      vertex 195 -157.5 0
    endloop
  endfacet
  facet normal 0.777267 0.629171 0
    outer loop
      vertex 191.18 169.256 6.35
      vertex 189.863 170.883 0
      vertex 189.863 170.883 6.35
    endloop
  endfacet
  facet normal 0.777267 0.629171 0
    outer loop
      vertex 189.863 170.883 0
      vertex 191.18 169.256 6.35
      vertex 191.18 169.256 0
    endloop
  endfacet
  facet normal 0 1 -0
    outer loop
      vertex 175 177.5 0
      vertex 3 177.5 6.35
      vertex 175 177.5 6.35
    endloop
  endfacet
  facet normal 0 1 0
    outer loop
      vertex 3 177.5 6.35
      vertex 175 177.5 0
      vertex 3 177.5 0
    endloop
  endfacet
  facet normal 0.0525338 0.998619 -0
    outer loop
      vertex 177.091 177.39 0
      vertex 175 177.5 6.35
      vertex 177.091 177.39 6.35
    endloop
  endfacet
  facet normal 0.0525338 0.998619 0
    outer loop
      vertex 175 177.5 6.35
      vertex 177.091 177.39 0
      vertex 175 177.5 0
    endloop
  endfacet
  facet normal -0.93343 0.358759 0
    outer loop
      vertex 0.622345 175.773 0
      vertex 0.716125 176.017 6.35
      vertex 0.716125 176.017 0
    endloop
  endfacet
  facet normal -0.93343 0.358759 0
    outer loop
      vertex 0.716125 176.017 6.35
      vertex 0.622345 175.773 0
      vertex 0.622345 175.773 6.35
    endloop
  endfacet
  facet normal -0.890874 0.45425 0
    outer loop
      vertex 0.716125 176.017 0
      vertex 0.83493 176.25 6.35
      vertex 0.83493 176.25 0
    endloop
  endfacet
  facet normal -0.890874 0.45425 0
    outer loop
      vertex 0.83493 176.25 6.35
      vertex 0.716125 176.017 0
      vertex 0.716125 176.017 6.35
    endloop
  endfacet
  facet normal 0.890864 -0.454269 0
    outer loop
      vertex 192.32 -167.5 6.35
      vertex 193.271 -165.635 0
      vertex 193.271 -165.635 6.35
    endloop
  endfacet
  facet normal 0.890864 -0.454269 0
    outer loop
      vertex 193.271 -165.635 0
      vertex 192.32 -167.5 6.35
      vertex 192.32 -167.5 0
    endloop
  endfacet
  facet normal 0.987716 -0.156257 0
    outer loop
      vertex 194.563 -161.658 6.35
      vertex 194.89 -159.591 0
      vertex 194.89 -159.591 6.35
    endloop
  endfacet
  facet normal 0.987716 -0.156257 0
    outer loop
      vertex 194.89 -159.591 0
      vertex 194.563 -161.658 6.35
      vertex 194.563 -161.658 0
    endloop
  endfacet
  facet normal 0 -1 0
    outer loop
      vertex 3 -177.5 0
      vertex 175 -177.5 6.35
      vertex 3 -177.5 6.35
    endloop
  endfacet
  facet normal 0 -1 -0
    outer loop
      vertex 175 -177.5 6.35
      vertex 3 -177.5 0
      vertex 175 -177.5 0
    endloop
  endfacet
  facet normal 0.933653 0.358179 0
    outer loop
      vertex 194.021 163.68 6.35
      vertex 193.271 165.635 0
      vertex 193.271 165.635 6.35
    endloop
  endfacet
  facet normal 0.933653 0.358179 0
    outer loop
      vertex 193.271 165.635 0
      vertex 194.021 163.68 6.35
      vertex 194.021 163.68 0
    endloop
  endfacet
  facet normal 0.987716 0.156257 0
    outer loop
      vertex 194.89 159.591 6.35
      vertex 194.563 161.658 0
      vertex 194.563 161.658 6.35
    endloop
  endfacet
  facet normal 0.987716 0.156257 0
    outer loop
      vertex 194.563 161.658 0
      vertex 194.89 159.591 6.35
      vertex 194.89 159.591 0
    endloop
  endfacet
  facet normal 0.890864 0.454269 0
    outer loop
      vertex 193.271 165.635 6.35
      vertex 192.32 167.5 0
      vertex 192.32 167.5 6.35
    endloop
  endfacet
  facet normal 0.890864 0.454269 0
    outer loop
      vertex 192.32 167.5 0
      vertex 193.271 165.635 6.35
      vertex 193.271 165.635 0
    endloop
  endfacet
  facet normal 0.454269 0.890864 -0
    outer loop
      vertex 185 174.82 0
      vertex 183.135 175.771 6.35
      vertex 185 174.82 6.35
    endloop
  endfacet
  facet normal 0.454269 0.890864 0
    outer loop
      vertex 183.135 175.771 6.35
      vertex 185 174.82 0
      vertex 183.135 175.771 0
    endloop
  endfacet
  facet normal 0.629171 0.777267 -0
    outer loop
      vertex 188.383 172.363 0
      vertex 186.756 173.68 6.35
      vertex 188.383 172.363 6.35
    endloop
  endfacet
  facet normal 0.629171 0.777267 0
    outer loop
      vertex 186.756 173.68 6.35
      vertex 188.383 172.363 0
      vertex 186.756 173.68 0
    endloop
  endfacet
  facet normal -0.45461 0.890691 0
    outer loop
      vertex 1.98315 177.284 0
      vertex 1.75 177.165 6.35
      vertex 1.98315 177.284 6.35
    endloop
  endfacet
  facet normal -0.45461 0.890691 0
    outer loop
      vertex 1.75 177.165 6.35
      vertex 1.98315 177.284 0
      vertex 1.75 177.165 0
    endloop
  endfacet
  facet normal -0.987737 0.156127 0
    outer loop
      vertex 0.513687 175.261 0
      vertex 0.554626 175.52 6.35
      vertex 0.554626 175.52 0
    endloop
  endfacet
  facet normal -0.987737 0.156127 0
    outer loop
      vertex 0.554626 175.52 6.35
      vertex 0.513687 175.261 0
      vertex 0.513687 175.261 6.35
    endloop
  endfacet
  facet normal -0.965995 0.258562 0
    outer loop
      vertex 0.554626 175.52 0
      vertex 0.622345 175.773 6.35
      vertex 0.622345 175.773 0
    endloop
  endfacet
  facet normal -0.965995 0.258562 0
    outer loop
      vertex 0.622345 175.773 6.35
      vertex 0.554626 175.52 0
      vertex 0.554626 175.52 6.35
    endloop
  endfacet
  facet normal 0.933653 -0.358179 0
    outer loop
      vertex 193.271 -165.635 6.35
      vertex 194.021 -163.68 0
      vertex 194.021 -163.68 6.35
    endloop
  endfacet
  facet normal 0.933653 -0.358179 0
    outer loop
      vertex 194.021 -163.68 0
      vertex 193.271 -165.635 6.35
      vertex 193.271 -165.635 0
    endloop
  endfacet
  facet normal 0.998619 -0.0525338 0
    outer loop
      vertex 194.89 -159.591 6.35
      vertex 195 -157.5 0
      vertex 195 -157.5 6.35
    endloop
  endfacet
  facet normal 0.998619 -0.0525338 0
    outer loop
      vertex 195 -157.5 0
      vertex 194.89 -159.591 6.35
      vertex 194.89 -159.591 0
    endloop
  endfacet
  facet normal 0.0525338 -0.998619 0
    outer loop
      vertex 175 -177.5 0
      vertex 177.091 -177.39 6.35
      vertex 175 -177.5 6.35
    endloop
  endfacet
  facet normal 0.0525338 -0.998619 0
    outer loop
      vertex 177.091 -177.39 6.35
      vertex 175 -177.5 0
      vertex 177.091 -177.39 0
    endloop
  endfacet
  facet normal 0.544518 -0.838749 0
    outer loop
      vertex 185 -174.82 0
      vertex 186.756 -173.68 6.35
      vertex 185 -174.82 6.35
    endloop
  endfacet
  facet normal 0.544518 -0.838749 0
    outer loop
      vertex 186.756 -173.68 6.35
      vertex 185 -174.82 0
      vertex 186.756 -173.68 0
    endloop
  endfacet
  facet normal 0.707107 -0.707107 0
    outer loop
      vertex 188.383 -172.363 6.35
      vertex 189.863 -170.883 0
      vertex 189.863 -170.883 6.35
    endloop
  endfacet
  facet normal 0.707107 -0.707107 0
    outer loop
      vertex 189.863 -170.883 0
      vertex 188.383 -172.363 6.35
      vertex 188.383 -172.363 0
    endloop
  endfacet
  facet normal 0.965901 0.258911 0
    outer loop
      vertex 194.563 161.658 6.35
      vertex 194.021 163.68 0
      vertex 194.021 163.68 6.35
    endloop
  endfacet
  facet normal 0.965901 0.258911 0
    outer loop
      vertex 194.021 163.68 0
      vertex 194.563 161.658 6.35
      vertex 194.563 161.658 0
    endloop
  endfacet
  facet normal 0.838749 0.544518 0
    outer loop
      vertex 192.32 167.5 6.35
      vertex 191.18 169.256 0
      vertex 191.18 169.256 6.35
    endloop
  endfacet
  facet normal 0.838749 0.544518 0
    outer loop
      vertex 191.18 169.256 0
      vertex 192.32 167.5 6.35
      vertex 192.32 167.5 0
    endloop
  endfacet
  facet normal 0.358179 0.933653 -0
    outer loop
      vertex 183.135 175.771 0
      vertex 181.18 176.521 6.35
      vertex 183.135 175.771 6.35
    endloop
  endfacet
  facet normal 0.358179 0.933653 0
    outer loop
      vertex 181.18 176.521 6.35
      vertex 183.135 175.771 0
      vertex 181.18 176.521 0
    endloop
  endfacet
  facet normal 0.258911 0.965901 -0
    outer loop
      vertex 181.18 176.521 0
      vertex 179.158 177.063 6.35
      vertex 181.18 176.521 6.35
    endloop
  endfacet
  facet normal 0.258911 0.965901 0
    outer loop
      vertex 179.158 177.063 6.35
      vertex 181.18 176.521 0
      vertex 179.158 177.063 0
    endloop
  endfacet
  facet normal 0.544518 0.838749 -0
    outer loop
      vertex 186.756 173.68 0
      vertex 185 174.82 6.35
      vertex 186.756 173.68 6.35
    endloop
  endfacet
  facet normal 0.544518 0.838749 0
    outer loop
      vertex 185 174.82 6.35
      vertex 186.756 173.68 0
      vertex 185 174.82 0
    endloop
  endfacet
  facet normal 0.707107 0.707107 0
    outer loop
      vertex 189.863 170.883 6.35
      vertex 188.383 172.363 0
      vertex 188.383 172.363 6.35
    endloop
  endfacet
  facet normal 0.707107 0.707107 0
    outer loop
      vertex 188.383 172.363 0
      vertex 189.863 170.883 6.35
      vertex 189.863 170.883 0
    endloop
  endfacet
  facet normal -0.630045 0.776559 0
    outer loop
      vertex 1.53053 177.023 0
      vertex 1.32716 176.858 6.35
      vertex 1.53053 177.023 6.35
    endloop
  endfacet
  facet normal -0.630045 0.776559 0
    outer loop
      vertex 1.32716 176.858 6.35
      vertex 1.53053 177.023 0
      vertex 1.32716 176.858 0
    endloop
  endfacet
  facet normal -0.256225 0.966617 0
    outer loop
      vertex 2.48021 177.445 0
      vertex 2.22745 177.378 6.35
      vertex 2.48021 177.445 6.35
    endloop
  endfacet
  facet normal -0.256225 0.966617 0
    outer loop
      vertex 2.22745 177.378 6.35
      vertex 2.48021 177.445 0
      vertex 2.22745 177.378 0
    endloop
  endfacet
  facet normal -0.0534974 0.998568 0
    outer loop
      vertex 3 177.5 0
      vertex 2.73868 177.486 6.35
      vertex 3 177.5 6.35
    endloop
  endfacet
  facet normal -0.0534974 0.998568 0
    outer loop
      vertex 2.73868 177.486 6.35
      vertex 3 177.5 0
      vertex 2.73868 177.486 0
    endloop
  endfacet
  facet normal -0.359107 0.933296 0
    outer loop
      vertex 2.22745 177.378 0
      vertex 1.98315 177.284 6.35
      vertex 2.22745 177.378 6.35
    endloop
  endfacet
  facet normal -0.359107 0.933296 0
    outer loop
      vertex 1.98315 177.284 6.35
      vertex 2.22745 177.378 0
      vertex 1.98315 177.284 0
    endloop
  endfacet
  facet normal -0.543224 0.839588 0
    outer loop
      vertex 1.75 177.165 0
      vertex 1.53053 177.023 6.35
      vertex 1.75 177.165 6.35
    endloop
  endfacet
  facet normal -0.543224 0.839588 0
    outer loop
      vertex 1.53053 177.023 6.35
      vertex 1.75 177.165 0
      vertex 1.53053 177.023 0
    endloop
  endfacet
  facet normal 0.965901 -0.258911 0
    outer loop
      vertex 194.021 -163.68 6.35
      vertex 194.563 -161.658 0
      vertex 194.563 -161.658 6.35
    endloop
  endfacet
  facet normal 0.965901 -0.258911 0
    outer loop
      vertex 194.563 -161.658 0
      vertex 194.021 -163.68 6.35
      vertex 194.021 -163.68 0
    endloop
  endfacet
  facet normal 0.156257 -0.987716 0
    outer loop
      vertex 177.091 -177.39 0
      vertex 179.158 -177.063 6.35
      vertex 177.091 -177.39 6.35
    endloop
  endfacet
  facet normal 0.156257 -0.987716 0
    outer loop
      vertex 179.158 -177.063 6.35
      vertex 177.091 -177.39 0
      vertex 179.158 -177.063 0
    endloop
  endfacet
  facet normal 0.454269 -0.890864 0
    outer loop
      vertex 183.135 -175.771 0
      vertex 185 -174.82 6.35
      vertex 183.135 -175.771 6.35
    endloop
  endfacet
  facet normal 0.454269 -0.890864 0
    outer loop
      vertex 185 -174.82 6.35
      vertex 183.135 -175.771 0
      vertex 185 -174.82 0
    endloop
  endfacet
  facet normal 0.258911 -0.965901 0
    outer loop
      vertex 179.158 -177.063 0
      vertex 181.18 -176.521 6.35
      vertex 179.158 -177.063 6.35
    endloop
  endfacet
  facet normal 0.258911 -0.965901 0
    outer loop
      vertex 181.18 -176.521 6.35
      vertex 179.158 -177.063 0
      vertex 181.18 -176.521 0
    endloop
  endfacet
  facet normal 0.629171 -0.777267 0
    outer loop
      vertex 186.756 -173.68 0
      vertex 188.383 -172.363 6.35
      vertex 186.756 -173.68 6.35
    endloop
  endfacet
  facet normal 0.629171 -0.777267 0
    outer loop
      vertex 188.383 -172.363 6.35
      vertex 186.756 -173.68 0
      vertex 188.383 -172.363 0
    endloop
  endfacet
  facet normal 0.777267 -0.629171 0
    outer loop
      vertex 189.863 -170.883 6.35
      vertex 191.18 -169.256 0
      vertex 191.18 -169.256 6.35
    endloop
  endfacet
  facet normal 0.777267 -0.629171 0
    outer loop
      vertex 191.18 -169.256 0
      vertex 189.863 -170.883 6.35
      vertex 189.863 -170.883 0
    endloop
  endfacet
  facet normal -0.965995 -0.258562 0
    outer loop
      vertex 0.622345 -175.773 0
      vertex 0.554626 -175.52 6.35
      vertex 0.554626 -175.52 0
    endloop
  endfacet
  facet normal -0.965995 -0.258562 0
    outer loop
      vertex 0.554626 -175.52 6.35
      vertex 0.622345 -175.773 0
      vertex 0.622345 -175.773 6.35
    endloop
  endfacet
  facet normal -0.156667 0.987651 0
    outer loop
      vertex 2.73868 177.486 0
      vertex 2.48021 177.445 6.35
      vertex 2.73868 177.486 6.35
    endloop
  endfacet
  facet normal -0.156667 0.987651 0
    outer loop
      vertex 2.48021 177.445 6.35
      vertex 2.73868 177.486 0
      vertex 2.48021 177.445 0
    endloop
  endfacet
  facet normal -0.707069 0.707145 0
    outer loop
      vertex 1.14214 176.673 0
      vertex 1.32716 176.858 6.35
      vertex 1.32716 176.858 0
    endloop
  endfacet
  facet normal -0.707069 0.707145 0
    outer loop
      vertex 1.32716 176.858 6.35
      vertex 1.14214 176.673 0
      vertex 1.14214 176.673 6.35
    endloop
  endfacet
  facet normal -0.778085 0.628159 0
    outer loop
      vertex 0.977448 176.469 0
      vertex 1.14214 176.673 6.35
      vertex 1.14214 176.673 0
    endloop
  endfacet
  facet normal -0.778085 0.628159 0
    outer loop
      vertex 1.14214 176.673 6.35
      vertex 0.977448 176.469 0
      vertex 0.977448 176.469 6.35
    endloop
  endfacet
  facet normal 0.358179 -0.933653 0
    outer loop
      vertex 181.18 -176.521 0
      vertex 183.135 -175.771 6.35
      vertex 181.18 -176.521 6.35
    endloop
  endfacet
  facet normal 0.358179 -0.933653 0
    outer loop
      vertex 183.135 -175.771 6.35
      vertex 181.18 -176.521 0
      vertex 183.135 -175.771 0
    endloop
  endfacet
  facet normal 0.838749 -0.544518 0
    outer loop
      vertex 191.18 -169.256 6.35
      vertex 192.32 -167.5 0
      vertex 192.32 -167.5 6.35
    endloop
  endfacet
  facet normal 0.838749 -0.544518 0
    outer loop
      vertex 192.32 -167.5 0
      vertex 191.18 -169.256 6.35
      vertex 191.18 -169.256 0
    endloop
  endfacet
  facet normal -0.543224 -0.839588 0
    outer loop
      vertex 1.53053 -177.023 0
      vertex 1.75 -177.165 6.35
      vertex 1.53053 -177.023 6.35
    endloop
  endfacet
  facet normal -0.543224 -0.839588 -0
    outer loop
      vertex 1.75 -177.165 6.35
      vertex 1.53053 -177.023 0
      vertex 1.75 -177.165 0
    endloop
  endfacet
  facet normal -0.359107 -0.933296 0
    outer loop
      vertex 1.98315 -177.284 0
      vertex 2.22745 -177.378 6.35
      vertex 1.98315 -177.284 6.35
    endloop
  endfacet
  facet normal -0.359107 -0.933296 -0
    outer loop
      vertex 2.22745 -177.378 6.35
      vertex 1.98315 -177.284 0
      vertex 2.22745 -177.378 0
    endloop
  endfacet
  facet normal -0.256225 -0.966617 0
    outer loop
      vertex 2.22745 -177.378 0
      vertex 2.48021 -177.445 6.35
      vertex 2.22745 -177.378 6.35
    endloop
  endfacet
  facet normal -0.256225 -0.966617 -0
    outer loop
      vertex 2.48021 -177.445 6.35
      vertex 2.22745 -177.378 0
      vertex 2.48021 -177.445 0
    endloop
  endfacet
  facet normal -0.0534974 -0.998568 0
    outer loop
      vertex 2.73868 -177.486 0
      vertex 3 -177.5 6.35
      vertex 2.73868 -177.486 6.35
    endloop
  endfacet
  facet normal -0.0534974 -0.998568 -0
    outer loop
      vertex 3 -177.5 6.35
      vertex 2.73868 -177.486 0
      vertex 3 -177.5 0
    endloop
  endfacet
  facet normal -0.83815 -0.54544 0
    outer loop
      vertex 0.977448 -176.469 0
      vertex 0.83493 -176.25 6.35
      vertex 0.83493 -176.25 0
    endloop
  endfacet
  facet normal -0.83815 -0.54544 0
    outer loop
      vertex 0.83493 -176.25 6.35
      vertex 0.977448 -176.469 0
      vertex 0.977448 -176.469 6.35
    endloop
  endfacet
  facet normal -0.707069 -0.707145 0
    outer loop
      vertex 1.32716 -176.858 0
      vertex 1.14214 -176.673 6.35
      vertex 1.14214 -176.673 0
    endloop
  endfacet
  facet normal -0.707069 -0.707145 0
    outer loop
      vertex 1.14214 -176.673 6.35
      vertex 1.32716 -176.858 0
      vertex 1.32716 -176.858 6.35
    endloop
  endfacet
  facet normal -0.93343 -0.358759 0
    outer loop
      vertex 0.716125 -176.017 0
      vertex 0.622345 -175.773 6.35
      vertex 0.622345 -175.773 0
    endloop
  endfacet
  facet normal -0.93343 -0.358759 0
    outer loop
      vertex 0.622345 -175.773 6.35
      vertex 0.716125 -176.017 0
      vertex 0.716125 -176.017 6.35
    endloop
  endfacet
  facet normal -0.45461 -0.890691 0
    outer loop
      vertex 1.75 -177.165 0
      vertex 1.98315 -177.284 6.35
      vertex 1.75 -177.165 6.35
    endloop
  endfacet
  facet normal -0.45461 -0.890691 -0
    outer loop
      vertex 1.98315 -177.284 6.35
      vertex 1.75 -177.165 0
      vertex 1.98315 -177.284 0
    endloop
  endfacet
  facet normal -0.156667 -0.987651 0
    outer loop
      vertex 2.48021 -177.445 0
      vertex 2.73868 -177.486 6.35
      vertex 2.48021 -177.445 6.35
    endloop
  endfacet
  facet normal -0.156667 -0.987651 -0
    outer loop
      vertex 2.73868 -177.486 6.35
      vertex 2.48021 -177.445 0
      vertex 2.73868 -177.486 0
    endloop
  endfacet
  facet normal -0.778085 -0.628159 0
    outer loop
      vertex 1.14214 -176.673 0
      vertex 0.977448 -176.469 6.35
      vertex 0.977448 -176.469 0
    endloop
  endfacet
  facet normal -0.778085 -0.628159 0
    outer loop
      vertex 0.977448 -176.469 6.35
      vertex 1.14214 -176.673 0
      vertex 1.14214 -176.673 6.35
    endloop
  endfacet
  facet normal -0.630045 -0.776559 0
    outer loop
      vertex 1.32716 -176.858 0
      vertex 1.53053 -177.023 6.35
      vertex 1.32716 -176.858 6.35
    endloop
  endfacet
  facet normal -0.630045 -0.776559 -0
    outer loop
      vertex 1.53053 -177.023 6.35
      vertex 1.32716 -176.858 0
      vertex 1.53053 -177.023 0
    endloop
  endfacet
  facet normal -0.890874 -0.45425 0
    outer loop
      vertex 0.83493 -176.25 0
      vertex 0.716125 -176.017 6.35
      vertex 0.716125 -176.017 0
    endloop
  endfacet
  facet normal -0.890874 -0.45425 0
    outer loop
      vertex 0.716125 -176.017 6.35
      vertex 0.83493 -176.25 0
      vertex 0.83493 -176.25 6.35
    endloop
  endfacet
endsolid OpenSCAD_Model
