  0
SECTION
  2
BLOCKS
  0
ENDSEC
  0
SECTION
  2
ENTITIES
  0
LINE
  8
0
 10
238.65
 20
58.75
 11
0
 21
58.75
  0
LINE
  8
0
 10
0
 20
58.75
 11
0
 21
0
  0
LINE
  8
0
 10
0
 20
0
 11
238.65
 21
0
  0
LINE
  8
0
 10
238.65
 20
0
 11
238.65
 21
58.75
  0
LINE
  8
0
 10
79.033
 20
42.1154
 11
78.7956
 21
42.1861
  0
LINE
  8
0
 10
78.7956
 20
42.1861
 11
78.5239
 21
42.3255
  0
LINE
  8
0
 10
78.5239
 20
42.3255
 11
77.533
 21
42.969
  0
LINE
  8
0
 10
77.533
 20
42.969
 11
77.465
 21
43.0082
  0
LINE
  8
0
 10
77.465
 20
43.0082
 11
76.136
 21
43.6853
  0
LINE
  8
0
 10
76.136
 20
43.6853
 11
76.0643
 21
43.7173
  0
LINE
  8
0
 10
76.0643
 20
43.7173
 11
74.672
 21
44.2517
  0
LINE
  8
0
 10
74.672
 20
44.2517
 11
74.5971
 21
44.2761
  0
LINE
  8
0
 10
74.5971
 20
44.2761
 11
73.1568
 21
44.662
  0
LINE
  8
0
 10
73.1568
 20
44.662
 11
73.0798
 21
44.6784
  0
LINE
  8
0
 10
73.0798
 20
44.6784
 11
71.6067
 21
44.9117
  0
LINE
  8
0
 10
71.6067
 20
44.9117
 11
71.5286
 21
44.9199
  0
LINE
  8
0
 10
71.5286
 20
44.9199
 11
70.0393
 21
44.9979
  0
LINE
  8
0
 10
70.0393
 20
44.9979
 11
69.9607
 21
44.9979
  0
LINE
  8
0
 10
69.9607
 20
44.9979
 11
68.4714
 21
44.9199
  0
LINE
  8
0
 10
68.4714
 20
44.9199
 11
68.3933
 21
44.9117
  0
LINE
  8
0
 10
68.3933
 20
44.9117
 11
66.9202
 21
44.6784
  0
LINE
  8
0
 10
66.9202
 20
44.6784
 11
66.8432
 21
44.662
  0
LINE
  8
0
 10
66.8432
 20
44.662
 11
65.4029
 21
44.2761
  0
LINE
  8
0
 10
65.4029
 20
44.2761
 11
65.328
 21
44.2517
  0
LINE
  8
0
 10
65.328
 20
44.2517
 11
63.9357
 21
43.7173
  0
LINE
  8
0
 10
63.9357
 20
43.7173
 11
63.864
 21
43.6853
  0
LINE
  8
0
 10
63.864
 20
43.6853
 11
62.535
 21
43.0082
  0
LINE
  8
0
 10
62.535
 20
43.0082
 11
62.467
 21
42.969
  0
LINE
  8
0
 10
62.467
 20
42.969
 11
61.4761
 21
42.3255
  0
LINE
  8
0
 10
61.4761
 20
42.3255
 11
61.2579
 21
42.2081
  0
LINE
  8
0
 10
61.2579
 20
42.2081
 11
61.0234
 21
42.1284
  0
LINE
  8
0
 10
61.0234
 20
42.1284
 11
60.7789
 21
42.0883
  0
LINE
  8
0
 10
60.7789
 20
42.0883
 11
60.5312
 21
42.0889
  0
LINE
  8
0
 10
60.5312
 20
42.0889
 11
60.2869
 21
42.1304
  0
LINE
  8
0
 10
60.2869
 20
42.1304
 11
60.0528
 21
42.2115
  0
LINE
  8
0
 10
60.0528
 20
42.2115
 11
59.8353
 21
42.33
  0
LINE
  8
0
 10
59.8353
 20
42.33
 11
59.5985
 21
42.5228
  0
LINE
  8
0
 10
59.5985
 20
42.5228
 11
59.2405
 21
42.8808
  0
LINE
  8
0
 10
59.2405
 20
42.8808
 11
59.0804
 21
43.0698
  0
LINE
  8
0
 10
59.0804
 20
43.0698
 11
58.9536
 21
43.2827
  0
LINE
  8
0
 10
58.9536
 20
43.2827
 11
58.8635
 21
43.5134
  0
LINE
  8
0
 10
58.8635
 20
43.5134
 11
58.8127
 21
43.7559
  0
LINE
  8
0
 10
58.8127
 20
43.7559
 11
58.8025
 21
44.0034
  0
LINE
  8
0
 10
58.8025
 20
44.0034
 11
58.8331
 21
44.2493
  0
LINE
  8
0
 10
58.8331
 20
44.2493
 11
58.9038
 21
44.4867
  0
LINE
  8
0
 10
58.9038
 20
44.4867
 11
59.0126
 21
44.7093
  0
LINE
  8
0
 10
59.0126
 20
44.7093
 11
59.1566
 21
44.9109
  0
LINE
  8
0
 10
59.1566
 20
44.9109
 11
59.3317
 21
45.0861
  0
LINE
  8
0
 10
59.3317
 20
45.0861
 11
59.4842
 21
45.1995
  0
LINE
  8
0
 10
59.4842
 20
45.1995
 11
60.6841
 21
45.9786
  0
LINE
  8
0
 10
60.6841
 20
45.9786
 11
60.82
 21
46.0571
  0
LINE
  8
0
 10
60.82
 20
46.0571
 11
62.4053
 21
46.8649
  0
LINE
  8
0
 10
62.4053
 20
46.8649
 11
62.5488
 21
46.9288
  0
LINE
  8
0
 10
62.5488
 20
46.9288
 11
64.2098
 21
47.5664
  0
LINE
  8
0
 10
64.2098
 20
47.5664
 11
64.3591
 21
47.6149
  0
LINE
  8
0
 10
64.3591
 20
47.6149
 11
66.0777
 21
48.0754
  0
LINE
  8
0
 10
66.0777
 20
48.0754
 11
66.2313
 21
48.108
  0
LINE
  8
0
 10
66.2313
 20
48.108
 11
67.9887
 21
48.3864
  0
LINE
  8
0
 10
67.9887
 20
48.3864
 11
68.1448
 21
48.4028
  0
LINE
  8
0
 10
68.1448
 20
48.4028
 11
69.9215
 21
48.4959
  0
LINE
  8
0
 10
69.9215
 20
48.4959
 11
70.0785
 21
48.4959
  0
LINE
  8
0
 10
70.0785
 20
48.4959
 11
71.8552
 21
48.4028
  0
LINE
  8
0
 10
71.8552
 20
48.4028
 11
72.0113
 21
48.3864
  0
LINE
  8
0
 10
72.0113
 20
48.3864
 11
73.7687
 21
48.108
  0
LINE
  8
0
 10
73.7687
 20
48.108
 11
73.9223
 21
48.0754
  0
LINE
  8
0
 10
73.9223
 20
48.0754
 11
75.6409
 21
47.6149
  0
LINE
  8
0
 10
75.6409
 20
47.6149
 11
75.7902
 21
47.5664
  0
LINE
  8
0
 10
75.7902
 20
47.5664
 11
77.4512
 21
46.9288
  0
LINE
  8
0
 10
77.4512
 20
46.9288
 11
77.5947
 21
46.8649
  0
LINE
  8
0
 10
77.5947
 20
46.8649
 11
79.18
 21
46.0571
  0
LINE
  8
0
 10
79.18
 20
46.0571
 11
79.3159
 21
45.9786
  0
LINE
  8
0
 10
79.3159
 20
45.9786
 11
80.5158
 21
45.1995
  0
LINE
  8
0
 10
80.5158
 20
45.1995
 11
80.7117
 21
45.0478
  0
LINE
  8
0
 10
80.7117
 20
45.0478
 11
80.88
 21
44.866
  0
LINE
  8
0
 10
80.88
 20
44.866
 11
81.0161
 21
44.659
  0
LINE
  8
0
 10
81.0161
 20
44.659
 11
81.1162
 21
44.4324
  0
LINE
  8
0
 10
81.1162
 20
44.4324
 11
81.1777
 21
44.1924
  0
LINE
  8
0
 10
81.1777
 20
44.1924
 11
81.1988
 21
43.9456
  0
LINE
  8
0
 10
81.1988
 20
43.9456
 11
81.179
 21
43.6986
  0
LINE
  8
0
 10
81.179
 20
43.6986
 11
81.1189
 21
43.4583
  0
LINE
  8
0
 10
81.1189
 20
43.4583
 11
81.02
 21
43.2312
  0
LINE
  8
0
 10
81.02
 20
43.2312
 11
80.8851
 21
43.0234
  0
LINE
  8
0
 10
80.8851
 20
43.0234
 11
80.7595
 21
42.8808
  0
LINE
  8
0
 10
80.7595
 20
42.8808
 11
80.4015
 21
42.5228
  0
LINE
  8
0
 10
80.4015
 20
42.5228
 11
80.2124
 21
42.3627
  0
LINE
  8
0
 10
80.2124
 20
42.3627
 11
79.9996
 21
42.2359
  0
LINE
  8
0
 10
79.9996
 20
42.2359
 11
79.7688
 21
42.1458
  0
LINE
  8
0
 10
79.7688
 20
42.1458
 11
79.5264
 21
42.095
  0
LINE
  8
0
 10
79.5264
 20
42.095
 11
79.2789
 21
42.0847
  0
LINE
  8
0
 10
79.2789
 20
42.0847
 11
79.033
 21
42.1154
  0
LINE
  8
0
 10
189.033
 20
42.1154
 11
188.796
 21
42.1861
  0
LINE
  8
0
 10
188.796
 20
42.1861
 11
188.524
 21
42.3255
  0
LINE
  8
0
 10
188.524
 20
42.3255
 11
187.533
 21
42.969
  0
LINE
  8
0
 10
187.533
 20
42.969
 11
187.465
 21
43.0082
  0
LINE
  8
0
 10
187.465
 20
43.0082
 11
186.136
 21
43.6853
  0
LINE
  8
0
 10
186.136
 20
43.6853
 11
186.064
 21
43.7173
  0
LINE
  8
0
 10
186.064
 20
43.7173
 11
184.672
 21
44.2517
  0
LINE
  8
0
 10
184.672
 20
44.2517
 11
184.597
 21
44.2761
  0
LINE
  8
0
 10
184.597
 20
44.2761
 11
183.157
 21
44.662
  0
LINE
  8
0
 10
183.157
 20
44.662
 11
183.08
 21
44.6784
  0
LINE
  8
0
 10
183.08
 20
44.6784
 11
181.607
 21
44.9117
  0
LINE
  8
0
 10
181.607
 20
44.9117
 11
181.529
 21
44.9199
  0
LINE
  8
0
 10
181.529
 20
44.9199
 11
180.039
 21
44.9979
  0
LINE
  8
0
 10
180.039
 20
44.9979
 11
179.961
 21
44.9979
  0
LINE
  8
0
 10
179.961
 20
44.9979
 11
178.471
 21
44.9199
  0
LINE
  8
0
 10
178.471
 20
44.9199
 11
178.393
 21
44.9117
  0
LINE
  8
0
 10
178.393
 20
44.9117
 11
176.92
 21
44.6784
  0
LINE
  8
0
 10
176.92
 20
44.6784
 11
176.843
 21
44.662
  0
LINE
  8
0
 10
176.843
 20
44.662
 11
175.403
 21
44.2761
  0
LINE
  8
0
 10
175.403
 20
44.2761
 11
175.328
 21
44.2517
  0
LINE
  8
0
 10
175.328
 20
44.2517
 11
173.936
 21
43.7173
  0
LINE
  8
0
 10
173.936
 20
43.7173
 11
173.864
 21
43.6853
  0
LINE
  8
0
 10
173.864
 20
43.6853
 11
172.535
 21
43.0082
  0
LINE
  8
0
 10
172.535
 20
43.0082
 11
172.467
 21
42.969
  0
LINE
  8
0
 10
172.467
 20
42.969
 11
171.476
 21
42.3255
  0
LINE
  8
0
 10
171.476
 20
42.3255
 11
171.258
 21
42.2081
  0
LINE
  8
0
 10
171.258
 20
42.2081
 11
171.023
 21
42.1284
  0
LINE
  8
0
 10
171.023
 20
42.1284
 11
170.779
 21
42.0883
  0
LINE
  8
0
 10
170.779
 20
42.0883
 11
170.531
 21
42.0889
  0
LINE
  8
0
 10
170.531
 20
42.0889
 11
170.287
 21
42.1304
  0
LINE
  8
0
 10
170.287
 20
42.1304
 11
170.053
 21
42.2115
  0
LINE
  8
0
 10
170.053
 20
42.2115
 11
169.835
 21
42.33
  0
LINE
  8
0
 10
169.835
 20
42.33
 11
169.599
 21
42.5228
  0
LINE
  8
0
 10
169.599
 20
42.5228
 11
169.241
 21
42.8808
  0
LINE
  8
0
 10
169.241
 20
42.8808
 11
169.08
 21
43.0698
  0
LINE
  8
0
 10
169.08
 20
43.0698
 11
168.954
 21
43.2827
  0
LINE
  8
0
 10
168.954
 20
43.2827
 11
168.864
 21
43.5134
  0
LINE
  8
0
 10
168.864
 20
43.5134
 11
168.813
 21
43.7559
  0
LINE
  8
0
 10
168.813
 20
43.7559
 11
168.802
 21
44.0034
  0
LINE
  8
0
 10
168.802
 20
44.0034
 11
168.833
 21
44.2493
  0
LINE
  8
0
 10
168.833
 20
44.2493
 11
168.904
 21
44.4867
  0
LINE
  8
0
 10
168.904
 20
44.4867
 11
169.013
 21
44.7093
  0
LINE
  8
0
 10
169.013
 20
44.7093
 11
169.157
 21
44.9109
  0
LINE
  8
0
 10
169.157
 20
44.9109
 11
169.332
 21
45.0861
  0
LINE
  8
0
 10
169.332
 20
45.0861
 11
169.484
 21
45.1995
  0
LINE
  8
0
 10
169.484
 20
45.1995
 11
170.684
 21
45.9786
  0
LINE
  8
0
 10
170.684
 20
45.9786
 11
170.82
 21
46.0571
  0
LINE
  8
0
 10
170.82
 20
46.0571
 11
172.405
 21
46.8649
  0
LINE
  8
0
 10
172.405
 20
46.8649
 11
172.549
 21
46.9288
  0
LINE
  8
0
 10
172.549
 20
46.9288
 11
174.21
 21
47.5664
  0
LINE
  8
0
 10
174.21
 20
47.5664
 11
174.359
 21
47.6149
  0
LINE
  8
0
 10
174.359
 20
47.6149
 11
176.078
 21
48.0754
  0
LINE
  8
0
 10
176.078
 20
48.0754
 11
176.231
 21
48.108
  0
LINE
  8
0
 10
176.231
 20
48.108
 11
177.989
 21
48.3864
  0
LINE
  8
0
 10
177.989
 20
48.3864
 11
178.145
 21
48.4028
  0
LINE
  8
0
 10
178.145
 20
48.4028
 11
179.921
 21
48.4959
  0
LINE
  8
0
 10
179.921
 20
48.4959
 11
180.079
 21
48.4959
  0
LINE
  8
0
 10
180.079
 20
48.4959
 11
181.855
 21
48.4028
  0
LINE
  8
0
 10
181.855
 20
48.4028
 11
182.011
 21
48.3864
  0
LINE
  8
0
 10
182.011
 20
48.3864
 11
183.769
 21
48.108
  0
LINE
  8
0
 10
183.769
 20
48.108
 11
183.922
 21
48.0754
  0
LINE
  8
0
 10
183.922
 20
48.0754
 11
185.641
 21
47.6149
  0
LINE
  8
0
 10
185.641
 20
47.6149
 11
185.79
 21
47.5664
  0
LINE
  8
0
 10
185.79
 20
47.5664
 11
187.451
 21
46.9288
  0
LINE
  8
0
 10
187.451
 20
46.9288
 11
187.595
 21
46.8649
  0
LINE
  8
0
 10
187.595
 20
46.8649
 11
189.18
 21
46.0571
  0
LINE
  8
0
 10
189.18
 20
46.0571
 11
189.316
 21
45.9786
  0
LINE
  8
0
 10
189.316
 20
45.9786
 11
190.516
 21
45.1995
  0
LINE
  8
0
 10
190.516
 20
45.1995
 11
190.712
 21
45.0478
  0
LINE
  8
0
 10
190.712
 20
45.0478
 11
190.88
 21
44.866
  0
LINE
  8
0
 10
190.88
 20
44.866
 11
191.016
 21
44.659
  0
LINE
  8
0
 10
191.016
 20
44.659
 11
191.116
 21
44.4324
  0
LINE
  8
0
 10
191.116
 20
44.4324
 11
191.178
 21
44.1924
  0
LINE
  8
0
 10
191.178
 20
44.1924
 11
191.199
 21
43.9456
  0
LINE
  8
0
 10
191.199
 20
43.9456
 11
191.179
 21
43.6986
  0
LINE
  8
0
 10
191.179
 20
43.6986
 11
191.119
 21
43.4583
  0
LINE
  8
0
 10
191.119
 20
43.4583
 11
191.02
 21
43.2312
  0
LINE
  8
0
 10
191.02
 20
43.2312
 11
190.885
 21
43.0234
  0
LINE
  8
0
 10
190.885
 20
43.0234
 11
190.759
 21
42.8808
  0
LINE
  8
0
 10
190.759
 20
42.8808
 11
190.401
 21
42.5228
  0
LINE
  8
0
 10
190.401
 20
42.5228
 11
190.212
 21
42.3627
  0
LINE
  8
0
 10
190.212
 20
42.3627
 11
190
 21
42.2359
  0
LINE
  8
0
 10
190
 20
42.2359
 11
189.769
 21
42.1458
  0
LINE
  8
0
 10
189.769
 20
42.1458
 11
189.526
 21
42.095
  0
LINE
  8
0
 10
189.526
 20
42.095
 11
189.279
 21
42.0847
  0
LINE
  8
0
 10
189.279
 20
42.0847
 11
189.033
 21
42.1154
  0
LINE
  8
0
 10
53.8764
 20
44.35
 11
53.6318
 21
44.3869
  0
LINE
  8
0
 10
53.6318
 20
44.3869
 11
53.3955
 21
44.4597
  0
LINE
  8
0
 10
53.3955
 20
44.4597
 11
53.1727
 21
44.567
  0
LINE
  8
0
 10
53.1727
 20
44.567
 11
52.9684
 21
44.7064
  0
LINE
  8
0
 10
52.9684
 20
44.7064
 11
52.7871
 21
44.8746
  0
LINE
  8
0
 10
52.7871
 20
44.8746
 11
52.6329
 21
45.0679
  0
LINE
  8
0
 10
52.6329
 20
45.0679
 11
52.5092
 21
45.2821
  0
LINE
  8
0
 10
52.5092
 20
45.2821
 11
52.4189
 21
45.5123
  0
LINE
  8
0
 10
52.4189
 20
45.5123
 11
52.3639
 21
45.7534
  0
LINE
  8
0
 10
52.3639
 20
45.7534
 11
52.3454
 21
46
  0
LINE
  8
0
 10
52.3454
 20
46
 11
52.3639
 21
46.2466
  0
LINE
  8
0
 10
52.3639
 20
46.2466
 11
52.4189
 21
46.4877
  0
LINE
  8
0
 10
52.4189
 20
46.4877
 11
52.5092
 21
46.7179
  0
LINE
  8
0
 10
52.5092
 20
46.7179
 11
52.6329
 21
46.9321
  0
LINE
  8
0
 10
52.6329
 20
46.9321
 11
52.7871
 21
47.1254
  0
LINE
  8
0
 10
52.7871
 20
47.1254
 11
52.9684
 21
47.2936
  0
LINE
  8
0
 10
52.9684
 20
47.2936
 11
53.1727
 21
47.4329
  0
LINE
  8
0
 10
53.1727
 20
47.4329
 11
53.3955
 21
47.5402
  0
LINE
  8
0
 10
53.3955
 20
47.5402
 11
53.6318
 21
47.6131
  0
LINE
  8
0
 10
53.6318
 20
47.6131
 11
53.8764
 21
47.65
  0
LINE
  8
0
 10
53.8764
 20
47.65
 11
54.1237
 21
47.65
  0
LINE
  8
0
 10
54.1237
 20
47.65
 11
54.3682
 21
47.6131
  0
LINE
  8
0
 10
54.3682
 20
47.6131
 11
54.6045
 21
47.5402
  0
LINE
  8
0
 10
54.6045
 20
47.5402
 11
54.8273
 21
47.4329
  0
LINE
  8
0
 10
54.8273
 20
47.4329
 11
55.0316
 21
47.2936
  0
LINE
  8
0
 10
55.0316
 20
47.2936
 11
55.2129
 21
47.1254
  0
LINE
  8
0
 10
55.2129
 20
47.1254
 11
55.3671
 21
46.9321
  0
LINE
  8
0
 10
55.3671
 20
46.9321
 11
55.4908
 21
46.7179
  0
LINE
  8
0
 10
55.4908
 20
46.7179
 11
55.5811
 21
46.4877
  0
LINE
  8
0
 10
55.5811
 20
46.4877
 11
55.6362
 21
46.2466
  0
LINE
  8
0
 10
55.6362
 20
46.2466
 11
55.6546
 21
46
  0
LINE
  8
0
 10
55.6546
 20
46
 11
55.6362
 21
45.7534
  0
LINE
  8
0
 10
55.6362
 20
45.7534
 11
55.5811
 21
45.5123
  0
LINE
  8
0
 10
55.5811
 20
45.5123
 11
55.4908
 21
45.2821
  0
LINE
  8
0
 10
55.4908
 20
45.2821
 11
55.3671
 21
45.0679
  0
LINE
  8
0
 10
55.3671
 20
45.0679
 11
55.2129
 21
44.8746
  0
LINE
  8
0
 10
55.2129
 20
44.8746
 11
55.0316
 21
44.7064
  0
LINE
  8
0
 10
55.0316
 20
44.7064
 11
54.8273
 21
44.567
  0
LINE
  8
0
 10
54.8273
 20
44.567
 11
54.6045
 21
44.4597
  0
LINE
  8
0
 10
54.6045
 20
44.4597
 11
54.3682
 21
44.3869
  0
LINE
  8
0
 10
54.3682
 20
44.3869
 11
54.1237
 21
44.35
  0
LINE
  8
0
 10
54.1237
 20
44.35
 11
53.8764
 21
44.35
  0
LINE
  8
0
 10
163.876
 20
44.35
 11
163.632
 21
44.3869
  0
LINE
  8
0
 10
163.632
 20
44.3869
 11
163.396
 21
44.4597
  0
LINE
  8
0
 10
163.396
 20
44.4597
 11
163.173
 21
44.567
  0
LINE
  8
0
 10
163.173
 20
44.567
 11
162.968
 21
44.7064
  0
LINE
  8
0
 10
162.968
 20
44.7064
 11
162.787
 21
44.8746
  0
LINE
  8
0
 10
162.787
 20
44.8746
 11
162.633
 21
45.0679
  0
LINE
  8
0
 10
162.633
 20
45.0679
 11
162.509
 21
45.2821
  0
LINE
  8
0
 10
162.509
 20
45.2821
 11
162.419
 21
45.5123
  0
LINE
  8
0
 10
162.419
 20
45.5123
 11
162.364
 21
45.7534
  0
LINE
  8
0
 10
162.364
 20
45.7534
 11
162.345
 21
46
  0
LINE
  8
0
 10
162.345
 20
46
 11
162.364
 21
46.2466
  0
LINE
  8
0
 10
162.364
 20
46.2466
 11
162.419
 21
46.4877
  0
LINE
  8
0
 10
162.419
 20
46.4877
 11
162.509
 21
46.7179
  0
LINE
  8
0
 10
162.509
 20
46.7179
 11
162.633
 21
46.9321
  0
LINE
  8
0
 10
162.633
 20
46.9321
 11
162.787
 21
47.1254
  0
LINE
  8
0
 10
162.787
 20
47.1254
 11
162.968
 21
47.2936
  0
LINE
  8
0
 10
162.968
 20
47.2936
 11
163.173
 21
47.4329
  0
LINE
  8
0
 10
163.173
 20
47.4329
 11
163.396
 21
47.5402
  0
LINE
  8
0
 10
163.396
 20
47.5402
 11
163.632
 21
47.6131
  0
LINE
  8
0
 10
163.632
 20
47.6131
 11
163.876
 21
47.65
  0
LINE
  8
0
 10
163.876
 20
47.65
 11
164.124
 21
47.65
  0
LINE
  8
0
 10
164.124
 20
47.65
 11
164.368
 21
47.6131
  0
LINE
  8
0
 10
164.368
 20
47.6131
 11
164.605
 21
47.5402
  0
LINE
  8
0
 10
164.605
 20
47.5402
 11
164.827
 21
47.4329
  0
LINE
  8
0
 10
164.827
 20
47.4329
 11
165.032
 21
47.2936
  0
LINE
  8
0
 10
165.032
 20
47.2936
 11
165.213
 21
47.1254
  0
LINE
  8
0
 10
165.213
 20
47.1254
 11
165.367
 21
46.9321
  0
LINE
  8
0
 10
165.367
 20
46.9321
 11
165.491
 21
46.7179
  0
LINE
  8
0
 10
165.491
 20
46.7179
 11
165.581
 21
46.4877
  0
LINE
  8
0
 10
165.581
 20
46.4877
 11
165.636
 21
46.2466
  0
LINE
  8
0
 10
165.636
 20
46.2466
 11
165.655
 21
46
  0
LINE
  8
0
 10
165.655
 20
46
 11
165.636
 21
45.7534
  0
LINE
  8
0
 10
165.636
 20
45.7534
 11
165.581
 21
45.5123
  0
LINE
  8
0
 10
165.581
 20
45.5123
 11
165.491
 21
45.2821
  0
LINE
  8
0
 10
165.491
 20
45.2821
 11
165.367
 21
45.0679
  0
LINE
  8
0
 10
165.367
 20
45.0679
 11
165.213
 21
44.8746
  0
LINE
  8
0
 10
165.213
 20
44.8746
 11
165.032
 21
44.7064
  0
LINE
  8
0
 10
165.032
 20
44.7064
 11
164.827
 21
44.567
  0
LINE
  8
0
 10
164.827
 20
44.567
 11
164.605
 21
44.4597
  0
LINE
  8
0
 10
164.605
 20
44.4597
 11
164.368
 21
44.3869
  0
LINE
  8
0
 10
164.368
 20
44.3869
 11
164.124
 21
44.35
  0
LINE
  8
0
 10
164.124
 20
44.35
 11
163.876
 21
44.35
  0
LINE
  8
0
 10
195.876
 20
44.35
 11
195.632
 21
44.3869
  0
LINE
  8
0
 10
195.632
 20
44.3869
 11
195.395
 21
44.4597
  0
LINE
  8
0
 10
195.395
 20
44.4597
 11
195.173
 21
44.567
  0
LINE
  8
0
 10
195.173
 20
44.567
 11
194.968
 21
44.7064
  0
LINE
  8
0
 10
194.968
 20
44.7064
 11
194.787
 21
44.8746
  0
LINE
  8
0
 10
194.787
 20
44.8746
 11
194.633
 21
45.0679
  0
LINE
  8
0
 10
194.633
 20
45.0679
 11
194.509
 21
45.2821
  0
LINE
  8
0
 10
194.509
 20
45.2821
 11
194.419
 21
45.5123
  0
LINE
  8
0
 10
194.419
 20
45.5123
 11
194.364
 21
45.7534
  0
LINE
  8
0
 10
194.364
 20
45.7534
 11
194.345
 21
46
  0
LINE
  8
0
 10
194.345
 20
46
 11
194.364
 21
46.2466
  0
LINE
  8
0
 10
194.364
 20
46.2466
 11
194.419
 21
46.4877
  0
LINE
  8
0
 10
194.419
 20
46.4877
 11
194.509
 21
46.7179
  0
LINE
  8
0
 10
194.509
 20
46.7179
 11
194.633
 21
46.9321
  0
LINE
  8
0
 10
194.633
 20
46.9321
 11
194.787
 21
47.1254
  0
LINE
  8
0
 10
194.787
 20
47.1254
 11
194.968
 21
47.2936
  0
LINE
  8
0
 10
194.968
 20
47.2936
 11
195.173
 21
47.4329
  0
LINE
  8
0
 10
195.173
 20
47.4329
 11
195.395
 21
47.5402
  0
LINE
  8
0
 10
195.395
 20
47.5402
 11
195.632
 21
47.6131
  0
LINE
  8
0
 10
195.632
 20
47.6131
 11
195.876
 21
47.65
  0
LINE
  8
0
 10
195.876
 20
47.65
 11
196.124
 21
47.65
  0
LINE
  8
0
 10
196.124
 20
47.65
 11
196.368
 21
47.6131
  0
LINE
  8
0
 10
196.368
 20
47.6131
 11
196.604
 21
47.5402
  0
LINE
  8
0
 10
196.604
 20
47.5402
 11
196.827
 21
47.4329
  0
LINE
  8
0
 10
196.827
 20
47.4329
 11
197.032
 21
47.2936
  0
LINE
  8
0
 10
197.032
 20
47.2936
 11
197.213
 21
47.1254
  0
LINE
  8
0
 10
197.213
 20
47.1254
 11
197.367
 21
46.9321
  0
LINE
  8
0
 10
197.367
 20
46.9321
 11
197.491
 21
46.7179
  0
LINE
  8
0
 10
197.491
 20
46.7179
 11
197.581
 21
46.4877
  0
LINE
  8
0
 10
197.581
 20
46.4877
 11
197.636
 21
46.2466
  0
LINE
  8
0
 10
197.636
 20
46.2466
 11
197.655
 21
46
  0
LINE
  8
0
 10
197.655
 20
46
 11
197.636
 21
45.7534
  0
LINE
  8
0
 10
197.636
 20
45.7534
 11
197.581
 21
45.5123
  0
LINE
  8
0
 10
197.581
 20
45.5123
 11
197.491
 21
45.2821
  0
LINE
  8
0
 10
197.491
 20
45.2821
 11
197.367
 21
45.0679
  0
LINE
  8
0
 10
197.367
 20
45.0679
 11
197.213
 21
44.8746
  0
LINE
  8
0
 10
197.213
 20
44.8746
 11
197.032
 21
44.7064
  0
LINE
  8
0
 10
197.032
 20
44.7064
 11
196.827
 21
44.567
  0
LINE
  8
0
 10
196.827
 20
44.567
 11
196.604
 21
44.4597
  0
LINE
  8
0
 10
196.604
 20
44.4597
 11
196.368
 21
44.3869
  0
LINE
  8
0
 10
196.368
 20
44.3869
 11
196.124
 21
44.35
  0
LINE
  8
0
 10
196.124
 20
44.35
 11
195.876
 21
44.35
  0
LINE
  8
0
 10
85.8763
 20
44.35
 11
85.6318
 21
44.3869
  0
LINE
  8
0
 10
85.6318
 20
44.3869
 11
85.3955
 21
44.4597
  0
LINE
  8
0
 10
85.3955
 20
44.4597
 11
85.1727
 21
44.567
  0
LINE
  8
0
 10
85.1727
 20
44.567
 11
84.9684
 21
44.7064
  0
LINE
  8
0
 10
84.9684
 20
44.7064
 11
84.7871
 21
44.8746
  0
LINE
  8
0
 10
84.7871
 20
44.8746
 11
84.6329
 21
45.0679
  0
LINE
  8
0
 10
84.6329
 20
45.0679
 11
84.5092
 21
45.2821
  0
LINE
  8
0
 10
84.5092
 20
45.2821
 11
84.4189
 21
45.5123
  0
LINE
  8
0
 10
84.4189
 20
45.5123
 11
84.3638
 21
45.7534
  0
LINE
  8
0
 10
84.3638
 20
45.7534
 11
84.3454
 21
46
  0
LINE
  8
0
 10
84.3454
 20
46
 11
84.3638
 21
46.2466
  0
LINE
  8
0
 10
84.3638
 20
46.2466
 11
84.4189
 21
46.4877
  0
LINE
  8
0
 10
84.4189
 20
46.4877
 11
84.5092
 21
46.7179
  0
LINE
  8
0
 10
84.5092
 20
46.7179
 11
84.6329
 21
46.9321
  0
LINE
  8
0
 10
84.6329
 20
46.9321
 11
84.7871
 21
47.1254
  0
LINE
  8
0
 10
84.7871
 20
47.1254
 11
84.9684
 21
47.2936
  0
LINE
  8
0
 10
84.9684
 20
47.2936
 11
85.1727
 21
47.4329
  0
LINE
  8
0
 10
85.1727
 20
47.4329
 11
85.3955
 21
47.5402
  0
LINE
  8
0
 10
85.3955
 20
47.5402
 11
85.6318
 21
47.6131
  0
LINE
  8
0
 10
85.6318
 20
47.6131
 11
85.8763
 21
47.65
  0
LINE
  8
0
 10
85.8763
 20
47.65
 11
86.1236
 21
47.65
  0
LINE
  8
0
 10
86.1236
 20
47.65
 11
86.3682
 21
47.6131
  0
LINE
  8
0
 10
86.3682
 20
47.6131
 11
86.6045
 21
47.5402
  0
LINE
  8
0
 10
86.6045
 20
47.5402
 11
86.8273
 21
47.4329
  0
LINE
  8
0
 10
86.8273
 20
47.4329
 11
87.0316
 21
47.2936
  0
LINE
  8
0
 10
87.0316
 20
47.2936
 11
87.2129
 21
47.1254
  0
LINE
  8
0
 10
87.2129
 20
47.1254
 11
87.3671
 21
46.9321
  0
LINE
  8
0
 10
87.3671
 20
46.9321
 11
87.4908
 21
46.7179
  0
LINE
  8
0
 10
87.4908
 20
46.7179
 11
87.5811
 21
46.4877
  0
LINE
  8
0
 10
87.5811
 20
46.4877
 11
87.6361
 21
46.2466
  0
LINE
  8
0
 10
87.6361
 20
46.2466
 11
87.6546
 21
46
  0
LINE
  8
0
 10
87.6546
 20
46
 11
87.6361
 21
45.7534
  0
LINE
  8
0
 10
87.6361
 20
45.7534
 11
87.5811
 21
45.5123
  0
LINE
  8
0
 10
87.5811
 20
45.5123
 11
87.4908
 21
45.2821
  0
LINE
  8
0
 10
87.4908
 20
45.2821
 11
87.3671
 21
45.0679
  0
LINE
  8
0
 10
87.3671
 20
45.0679
 11
87.2129
 21
44.8746
  0
LINE
  8
0
 10
87.2129
 20
44.8746
 11
87.0316
 21
44.7064
  0
LINE
  8
0
 10
87.0316
 20
44.7064
 11
86.8273
 21
44.567
  0
LINE
  8
0
 10
86.8273
 20
44.567
 11
86.6045
 21
44.4597
  0
LINE
  8
0
 10
86.6045
 20
44.4597
 11
86.3682
 21
44.3869
  0
LINE
  8
0
 10
86.3682
 20
44.3869
 11
86.1236
 21
44.35
  0
LINE
  8
0
 10
86.1236
 20
44.35
 11
85.8763
 21
44.35
  0
LINE
  8
0
 10
4.31406
 20
42.3102
 11
4.07001
 21
42.3553
  0
LINE
  8
0
 10
4.07001
 20
42.3553
 11
3.83511
 21
42.4354
  0
LINE
  8
0
 10
3.83511
 20
42.4354
 11
3.6144
 21
42.5489
  0
LINE
  8
0
 10
3.6144
 20
42.5489
 11
3.41255
 21
42.6933
  0
LINE
  8
0
 10
3.41255
 20
42.6933
 11
3.23389
 21
42.8656
  0
LINE
  8
0
 10
3.23389
 20
42.8656
 11
3.0822
 21
43.062
  0
LINE
  8
0
 10
3.0822
 20
43.062
 11
2.96072
 21
43.2784
  0
LINE
  8
0
 10
2.96072
 20
43.2784
 11
2.87207
 21
43.5102
  0
LINE
  8
0
 10
2.87207
 20
43.5102
 11
2.81812
 21
43.7525
  0
LINE
  8
0
 10
2.81812
 20
43.7525
 11
2.79999
 21
44
  0
LINE
  8
0
 10
2.79999
 20
44
 11
2.81812
 21
44.2475
  0
LINE
  8
0
 10
2.81812
 20
44.2475
 11
2.87207
 21
44.4898
  0
LINE
  8
0
 10
2.87207
 20
44.4898
 11
2.96072
 21
44.7216
  0
LINE
  8
0
 10
2.96072
 20
44.7216
 11
3.0822
 21
44.938
  0
LINE
  8
0
 10
3.0822
 20
44.938
 11
3.23389
 21
45.1344
  0
LINE
  8
0
 10
3.23389
 20
45.1344
 11
3.41255
 21
45.3067
  0
LINE
  8
0
 10
3.41255
 20
45.3067
 11
3.6144
 21
45.4511
  0
LINE
  8
0
 10
3.6144
 20
45.4511
 11
3.83511
 21
45.5646
  0
LINE
  8
0
 10
3.83511
 20
45.5646
 11
4.07001
 21
45.6447
  0
LINE
  8
0
 10
4.07001
 20
45.6447
 11
4.31406
 21
45.6898
  0
LINE
  8
0
 10
4.31406
 20
45.6898
 11
4.56209
 21
45.6989
  0
LINE
  8
0
 10
4.56209
 20
45.6989
 11
4.80878
 21
45.6717
  0
LINE
  8
0
 10
4.80878
 20
45.6717
 11
5.04889
 21
45.6089
  0
LINE
  8
0
 10
5.04889
 20
45.6089
 11
5.2773
 21
45.5119
  0
LINE
  8
0
 10
5.2773
 20
45.5119
 11
5.48915
 21
45.3826
  0
LINE
  8
0
 10
5.48915
 20
45.3826
 11
5.67992
 21
45.2238
  0
LINE
  8
0
 10
5.67992
 20
45.2238
 11
5.84554
 21
45.039
  0
LINE
  8
0
 10
5.84554
 20
45.039
 11
5.98248
 21
44.832
  0
LINE
  8
0
 10
5.98248
 20
44.832
 11
6.08781
 21
44.6073
  0
LINE
  8
0
 10
6.08781
 20
44.6073
 11
6.15932
 21
44.3696
  0
LINE
  8
0
 10
6.15932
 20
44.3696
 11
6.19547
 21
44.1241
  0
LINE
  8
0
 10
6.19547
 20
44.1241
 11
6.19547
 21
43.8759
  0
LINE
  8
0
 10
6.19547
 20
43.8759
 11
6.15932
 21
43.6304
  0
LINE
  8
0
 10
6.15932
 20
43.6304
 11
6.08781
 21
43.3927
  0
LINE
  8
0
 10
6.08781
 20
43.3927
 11
5.98248
 21
43.168
  0
LINE
  8
0
 10
5.98248
 20
43.168
 11
5.84554
 21
42.961
  0
LINE
  8
0
 10
5.84554
 20
42.961
 11
5.67992
 21
42.7762
  0
LINE
  8
0
 10
5.67992
 20
42.7762
 11
5.48915
 21
42.6174
  0
LINE
  8
0
 10
5.48915
 20
42.6174
 11
5.2773
 21
42.4881
  0
LINE
  8
0
 10
5.2773
 20
42.4881
 11
5.04889
 21
42.3911
  0
LINE
  8
0
 10
5.04889
 20
42.3911
 11
4.80878
 21
42.3283
  0
LINE
  8
0
 10
4.80878
 20
42.3283
 11
4.56209
 21
42.3011
  0
LINE
  8
0
 10
4.56209
 20
42.3011
 11
4.31406
 21
42.3102
  0
LINE
  8
0
 10
234.091
 20
42.3283
 11
233.851
 21
42.3911
  0
LINE
  8
0
 10
233.851
 20
42.3911
 11
233.623
 21
42.4881
  0
LINE
  8
0
 10
233.623
 20
42.4881
 11
233.411
 21
42.6174
  0
LINE
  8
0
 10
233.411
 20
42.6174
 11
233.22
 21
42.7762
  0
LINE
  8
0
 10
233.22
 20
42.7762
 11
233.054
 21
42.961
  0
LINE
  8
0
 10
233.054
 20
42.961
 11
232.918
 21
43.168
  0
LINE
  8
0
 10
232.918
 20
43.168
 11
232.812
 21
43.3927
  0
LINE
  8
0
 10
232.812
 20
43.3927
 11
232.741
 21
43.6304
  0
LINE
  8
0
 10
232.741
 20
43.6304
 11
232.705
 21
43.8759
  0
LINE
  8
0
 10
232.705
 20
43.8759
 11
232.705
 21
44.1241
  0
LINE
  8
0
 10
232.705
 20
44.1241
 11
232.741
 21
44.3696
  0
LINE
  8
0
 10
232.741
 20
44.3696
 11
232.812
 21
44.6073
  0
LINE
  8
0
 10
232.812
 20
44.6073
 11
232.918
 21
44.832
  0
LINE
  8
0
 10
232.918
 20
44.832
 11
233.054
 21
45.039
  0
LINE
  8
0
 10
233.054
 20
45.039
 11
233.22
 21
45.2238
  0
LINE
  8
0
 10
233.22
 20
45.2238
 11
233.411
 21
45.3826
  0
LINE
  8
0
 10
233.411
 20
45.3826
 11
233.623
 21
45.5119
  0
LINE
  8
0
 10
233.623
 20
45.5119
 11
233.851
 21
45.6089
  0
LINE
  8
0
 10
233.851
 20
45.6089
 11
234.091
 21
45.6717
  0
LINE
  8
0
 10
234.091
 20
45.6717
 11
234.338
 21
45.6989
  0
LINE
  8
0
 10
234.338
 20
45.6989
 11
234.586
 21
45.6898
  0
LINE
  8
0
 10
234.586
 20
45.6898
 11
234.83
 21
45.6447
  0
LINE
  8
0
 10
234.83
 20
45.6447
 11
235.065
 21
45.5646
  0
LINE
  8
0
 10
235.065
 20
45.5646
 11
235.286
 21
45.4511
  0
LINE
  8
0
 10
235.286
 20
45.4511
 11
235.487
 21
45.3067
  0
LINE
  8
0
 10
235.487
 20
45.3067
 11
235.666
 21
45.1344
  0
LINE
  8
0
 10
235.666
 20
45.1344
 11
235.818
 21
44.938
  0
LINE
  8
0
 10
235.818
 20
44.938
 11
235.939
 21
44.7216
  0
LINE
  8
0
 10
235.939
 20
44.7216
 11
236.028
 21
44.4898
  0
LINE
  8
0
 10
236.028
 20
44.4898
 11
236.082
 21
44.2475
  0
LINE
  8
0
 10
236.082
 20
44.2475
 11
236.1
 21
44
  0
LINE
  8
0
 10
236.1
 20
44
 11
236.082
 21
43.7525
  0
LINE
  8
0
 10
236.082
 20
43.7525
 11
236.028
 21
43.5102
  0
LINE
  8
0
 10
236.028
 20
43.5102
 11
235.939
 21
43.2784
  0
LINE
  8
0
 10
235.939
 20
43.2784
 11
235.818
 21
43.062
  0
LINE
  8
0
 10
235.818
 20
43.062
 11
235.666
 21
42.8656
  0
LINE
  8
0
 10
235.666
 20
42.8656
 11
235.487
 21
42.6933
  0
LINE
  8
0
 10
235.487
 20
42.6933
 11
235.286
 21
42.5489
  0
LINE
  8
0
 10
235.286
 20
42.5489
 11
235.065
 21
42.4354
  0
LINE
  8
0
 10
235.065
 20
42.4354
 11
234.83
 21
42.3553
  0
LINE
  8
0
 10
234.83
 20
42.3553
 11
234.586
 21
42.3102
  0
LINE
  8
0
 10
234.586
 20
42.3102
 11
234.338
 21
42.3011
  0
LINE
  8
0
 10
234.338
 20
42.3011
 11
234.091
 21
42.3283
  0
LINE
  8
0
 10
174.358
 20
38.1279
 11
174.12
 21
38.1946
  0
LINE
  8
0
 10
174.12
 20
38.1946
 11
173.895
 21
38.2997
  0
LINE
  8
0
 10
173.895
 20
38.2997
 11
173.691
 21
38.4403
  0
LINE
  8
0
 10
173.691
 20
38.4403
 11
173.581
 21
38.5402
  0
LINE
  8
0
 10
173.581
 20
38.5402
 11
173.213
 21
38.9084
  0
LINE
  8
0
 10
173.213
 20
38.9084
 11
173.053
 21
39.0974
  0
LINE
  8
0
 10
173.053
 20
39.0974
 11
172.926
 21
39.3102
  0
LINE
  8
0
 10
172.926
 20
39.3102
 11
172.836
 21
39.541
  0
LINE
  8
0
 10
172.836
 20
39.541
 11
172.785
 21
39.7835
  0
LINE
  8
0
 10
172.785
 20
39.7835
 11
172.775
 21
40.031
  0
LINE
  8
0
 10
172.775
 20
40.031
 11
172.806
 21
40.2768
  0
LINE
  8
0
 10
172.806
 20
40.2768
 11
172.876
 21
40.5143
  0
LINE
  8
0
 10
172.876
 20
40.5143
 11
172.985
 21
40.7368
  0
LINE
  8
0
 10
172.985
 20
40.7368
 11
173.129
 21
40.9385
  0
LINE
  8
0
 10
173.129
 20
40.9385
 11
173.304
 21
41.1136
  0
LINE
  8
0
 10
173.304
 20
41.1136
 11
173.593
 21
41.3055
  0
LINE
  8
0
 10
173.593
 20
41.3055
 11
174.642
 21
41.8403
  0
LINE
  8
0
 10
174.642
 20
41.8403
 11
174.786
 21
41.9042
  0
LINE
  8
0
 10
174.786
 20
41.9042
 11
175.909
 21
42.3356
  0
LINE
  8
0
 10
175.909
 20
42.3356
 11
176.059
 21
42.3841
  0
LINE
  8
0
 10
176.059
 20
42.3841
 11
177.221
 21
42.6955
  0
LINE
  8
0
 10
177.221
 20
42.6955
 11
177.375
 21
42.7282
  0
LINE
  8
0
 10
177.375
 20
42.7282
 11
178.564
 21
42.9165
  0
LINE
  8
0
 10
178.564
 20
42.9165
 11
178.72
 21
42.9329
  0
LINE
  8
0
 10
178.72
 20
42.9329
 11
179.921
 21
42.9959
  0
LINE
  8
0
 10
179.921
 20
42.9959
 11
180.079
 21
42.9959
  0
LINE
  8
0
 10
180.079
 20
42.9959
 11
181.28
 21
42.9329
  0
LINE
  8
0
 10
181.28
 20
42.9329
 11
181.436
 21
42.9165
  0
LINE
  8
0
 10
181.436
 20
42.9165
 11
182.625
 21
42.7282
  0
LINE
  8
0
 10
182.625
 20
42.7282
 11
182.779
 21
42.6955
  0
LINE
  8
0
 10
182.779
 20
42.6955
 11
183.941
 21
42.3841
  0
LINE
  8
0
 10
183.941
 20
42.3841
 11
184.091
 21
42.3356
  0
LINE
  8
0
 10
184.091
 20
42.3356
 11
185.214
 21
41.9042
  0
LINE
  8
0
 10
185.214
 20
41.9042
 11
185.358
 21
41.8403
  0
LINE
  8
0
 10
185.358
 20
41.8403
 11
186.407
 21
41.3055
  0
LINE
  8
0
 10
186.407
 20
41.3055
 11
186.618
 21
41.1752
  0
LINE
  8
0
 10
186.618
 20
41.1752
 11
186.804
 21
41.012
  0
LINE
  8
0
 10
186.804
 20
41.012
 11
186.961
 21
40.8203
  0
LINE
  8
0
 10
186.961
 20
40.8203
 11
187.085
 21
40.6054
  0
LINE
  8
0
 10
187.085
 20
40.6054
 11
187.171
 21
40.3732
  0
LINE
  8
0
 10
187.171
 20
40.3732
 11
187.218
 21
40.1299
  0
LINE
  8
0
 10
187.218
 20
40.1299
 11
187.224
 21
39.8822
  0
LINE
  8
0
 10
187.224
 20
39.8822
 11
187.189
 21
39.6369
  0
LINE
  8
0
 10
187.189
 20
39.6369
 11
187.115
 21
39.4007
  0
LINE
  8
0
 10
187.115
 20
39.4007
 11
187.002
 21
39.18
  0
LINE
  8
0
 10
187.002
 20
39.18
 11
186.787
 21
38.9084
  0
LINE
  8
0
 10
186.787
 20
38.9084
 11
186.419
 21
38.5402
  0
LINE
  8
0
 10
186.419
 20
38.5402
 11
186.23
 21
38.3801
  0
LINE
  8
0
 10
186.23
 20
38.3801
 11
186.017
 21
38.2533
  0
LINE
  8
0
 10
186.017
 20
38.2533
 11
185.786
 21
38.1632
  0
LINE
  8
0
 10
185.786
 20
38.1632
 11
185.544
 21
38.1124
  0
LINE
  8
0
 10
185.544
 20
38.1124
 11
185.296
 21
38.1021
  0
LINE
  8
0
 10
185.296
 20
38.1021
 11
185.05
 21
38.1328
  0
LINE
  8
0
 10
185.05
 20
38.1328
 11
184.813
 21
38.2034
  0
LINE
  8
0
 10
184.813
 20
38.2034
 11
184.677
 21
38.2643
  0
LINE
  8
0
 10
184.677
 20
38.2643
 11
183.899
 21
38.6608
  0
LINE
  8
0
 10
183.899
 20
38.6608
 11
183.827
 21
38.6928
  0
LINE
  8
0
 10
183.827
 20
38.6928
 11
182.972
 21
39.0209
  0
LINE
  8
0
 10
182.972
 20
39.0209
 11
182.898
 21
39.0452
  0
LINE
  8
0
 10
182.898
 20
39.0452
 11
182.013
 21
39.2822
  0
LINE
  8
0
 10
182.013
 20
39.2822
 11
181.936
 21
39.2985
  0
LINE
  8
0
 10
181.936
 20
39.2985
 11
181.032
 21
39.4418
  0
LINE
  8
0
 10
181.032
 20
39.4418
 11
180.954
 21
39.45
  0
LINE
  8
0
 10
180.954
 20
39.45
 11
180.039
 21
39.4979
  0
LINE
  8
0
 10
180.039
 20
39.4979
 11
179.961
 21
39.4979
  0
LINE
  8
0
 10
179.961
 20
39.4979
 11
179.046
 21
39.45
  0
LINE
  8
0
 10
179.046
 20
39.45
 11
178.968
 21
39.4418
  0
LINE
  8
0
 10
178.968
 20
39.4418
 11
178.064
 21
39.2985
  0
LINE
  8
0
 10
178.064
 20
39.2985
 11
177.987
 21
39.2822
  0
LINE
  8
0
 10
177.987
 20
39.2822
 11
177.102
 21
39.0452
  0
LINE
  8
0
 10
177.102
 20
39.0452
 11
177.028
 21
39.0209
  0
LINE
  8
0
 10
177.028
 20
39.0209
 11
176.173
 21
38.6928
  0
LINE
  8
0
 10
176.173
 20
38.6928
 11
176.101
 21
38.6608
  0
LINE
  8
0
 10
176.101
 20
38.6608
 11
175.323
 21
38.2643
  0
LINE
  8
0
 10
175.323
 20
38.2643
 11
175.094
 21
38.1705
  0
LINE
  8
0
 10
175.094
 20
38.1705
 11
174.852
 21
38.1156
  0
LINE
  8
0
 10
174.852
 20
38.1156
 11
174.605
 21
38.1013
  0
LINE
  8
0
 10
174.605
 20
38.1013
 11
174.358
 21
38.1279
  0
LINE
  8
0
 10
64.3583
 20
38.1279
 11
64.1197
 21
38.1946
  0
LINE
  8
0
 10
64.1197
 20
38.1946
 11
63.8954
 21
38.2997
  0
LINE
  8
0
 10
63.8954
 20
38.2997
 11
63.6914
 21
38.4403
  0
LINE
  8
0
 10
63.6914
 20
38.4403
 11
63.5811
 21
38.5402
  0
LINE
  8
0
 10
63.5811
 20
38.5402
 11
63.213
 21
38.9084
  0
LINE
  8
0
 10
63.213
 20
38.9084
 11
63.0528
 21
39.0974
  0
LINE
  8
0
 10
63.0528
 20
39.0974
 11
62.926
 21
39.3102
  0
LINE
  8
0
 10
62.926
 20
39.3102
 11
62.836
 21
39.541
  0
LINE
  8
0
 10
62.836
 20
39.541
 11
62.7851
 21
39.7835
  0
LINE
  8
0
 10
62.7851
 20
39.7835
 11
62.7749
 21
40.031
  0
LINE
  8
0
 10
62.7749
 20
40.031
 11
62.8055
 21
40.2768
  0
LINE
  8
0
 10
62.8055
 20
40.2768
 11
62.8762
 21
40.5143
  0
LINE
  8
0
 10
62.8762
 20
40.5143
 11
62.985
 21
40.7368
  0
LINE
  8
0
 10
62.985
 20
40.7368
 11
63.129
 21
40.9385
  0
LINE
  8
0
 10
63.129
 20
40.9385
 11
63.3042
 21
41.1136
  0
LINE
  8
0
 10
63.3042
 20
41.1136
 11
63.5926
 21
41.3055
  0
LINE
  8
0
 10
63.5926
 20
41.3055
 11
64.6423
 21
41.8403
  0
LINE
  8
0
 10
64.6423
 20
41.8403
 11
64.7857
 21
41.9042
  0
LINE
  8
0
 10
64.7857
 20
41.9042
 11
65.9095
 21
42.3356
  0
LINE
  8
0
 10
65.9095
 20
42.3356
 11
66.0588
 21
42.3841
  0
LINE
  8
0
 10
66.0588
 20
42.3841
 11
67.2211
 21
42.6955
  0
LINE
  8
0
 10
67.2211
 20
42.6955
 11
67.3747
 21
42.7282
  0
LINE
  8
0
 10
67.3747
 20
42.7282
 11
68.5636
 21
42.9165
  0
LINE
  8
0
 10
68.5636
 20
42.9165
 11
68.7197
 21
42.9329
  0
LINE
  8
0
 10
68.7197
 20
42.9329
 11
69.9215
 21
42.9959
  0
LINE
  8
0
 10
69.9215
 20
42.9959
 11
70.0785
 21
42.9959
  0
LINE
  8
0
 10
70.0785
 20
42.9959
 11
71.2803
 21
42.9329
  0
LINE
  8
0
 10
71.2803
 20
42.9329
 11
71.4364
 21
42.9165
  0
LINE
  8
0
 10
71.4364
 20
42.9165
 11
72.6253
 21
42.7282
  0
LINE
  8
0
 10
72.6253
 20
42.7282
 11
72.7789
 21
42.6955
  0
LINE
  8
0
 10
72.7789
 20
42.6955
 11
73.9412
 21
42.3841
  0
LINE
  8
0
 10
73.9412
 20
42.3841
 11
74.0905
 21
42.3356
  0
LINE
  8
0
 10
74.0905
 20
42.3356
 11
75.2143
 21
41.9042
  0
LINE
  8
0
 10
75.2143
 20
41.9042
 11
75.3577
 21
41.8403
  0
LINE
  8
0
 10
75.3577
 20
41.8403
 11
76.4074
 21
41.3055
  0
LINE
  8
0
 10
76.4074
 20
41.3055
 11
76.6181
 21
41.1752
  0
LINE
  8
0
 10
76.6181
 20
41.1752
 11
76.8044
 21
41.012
  0
LINE
  8
0
 10
76.8044
 20
41.012
 11
76.9614
 21
40.8203
  0
LINE
  8
0
 10
76.9614
 20
40.8203
 11
77.0847
 21
40.6054
  0
LINE
  8
0
 10
77.0847
 20
40.6054
 11
77.1709
 21
40.3732
  0
LINE
  8
0
 10
77.1709
 20
40.3732
 11
77.2177
 21
40.1299
  0
LINE
  8
0
 10
77.2177
 20
40.1299
 11
77.2239
 21
39.8822
  0
LINE
  8
0
 10
77.2239
 20
39.8822
 11
77.1892
 21
39.6369
  0
LINE
  8
0
 10
77.1892
 20
39.6369
 11
77.1145
 21
39.4007
  0
LINE
  8
0
 10
77.1145
 20
39.4007
 11
77.0021
 21
39.18
  0
LINE
  8
0
 10
77.0021
 20
39.18
 11
76.787
 21
38.9084
  0
LINE
  8
0
 10
76.787
 20
38.9084
 11
76.4189
 21
38.5402
  0
LINE
  8
0
 10
76.4189
 20
38.5402
 11
76.2298
 21
38.3801
  0
LINE
  8
0
 10
76.2298
 20
38.3801
 11
76.017
 21
38.2533
  0
LINE
  8
0
 10
76.017
 20
38.2533
 11
75.7862
 21
38.1632
  0
LINE
  8
0
 10
75.7862
 20
38.1632
 11
75.5437
 21
38.1124
  0
LINE
  8
0
 10
75.5437
 20
38.1124
 11
75.2962
 21
38.1021
  0
LINE
  8
0
 10
75.2962
 20
38.1021
 11
75.0504
 21
38.1328
  0
LINE
  8
0
 10
75.0504
 20
38.1328
 11
74.8129
 21
38.2034
  0
LINE
  8
0
 10
74.8129
 20
38.2034
 11
74.6772
 21
38.2643
  0
LINE
  8
0
 10
74.6772
 20
38.2643
 11
73.8991
 21
38.6608
  0
LINE
  8
0
 10
73.8991
 20
38.6608
 11
73.8273
 21
38.6928
  0
LINE
  8
0
 10
73.8273
 20
38.6928
 11
72.9724
 21
39.0209
  0
LINE
  8
0
 10
72.9724
 20
39.0209
 11
72.8977
 21
39.0452
  0
LINE
  8
0
 10
72.8977
 20
39.0452
 11
72.0131
 21
39.2822
  0
LINE
  8
0
 10
72.0131
 20
39.2822
 11
71.9364
 21
39.2985
  0
LINE
  8
0
 10
71.9364
 20
39.2985
 11
71.0317
 21
39.4418
  0
LINE
  8
0
 10
71.0317
 20
39.4418
 11
70.9538
 21
39.45
  0
LINE
  8
0
 10
70.9538
 20
39.45
 11
70.0393
 21
39.4979
  0
LINE
  8
0
 10
70.0393
 20
39.4979
 11
69.9607
 21
39.4979
  0
LINE
  8
0
 10
69.9607
 20
39.4979
 11
69.0462
 21
39.45
  0
LINE
  8
0
 10
69.0462
 20
39.45
 11
68.9683
 21
39.4418
  0
LINE
  8
0
 10
68.9683
 20
39.4418
 11
68.0636
 21
39.2985
  0
LINE
  8
0
 10
68.0636
 20
39.2985
 11
67.9869
 21
39.2822
  0
LINE
  8
0
 10
67.9869
 20
39.2822
 11
67.1023
 21
39.0452
  0
LINE
  8
0
 10
67.1023
 20
39.0452
 11
67.0276
 21
39.0209
  0
LINE
  8
0
 10
67.0276
 20
39.0209
 11
66.1727
 21
38.6928
  0
LINE
  8
0
 10
66.1727
 20
38.6928
 11
66.1009
 21
38.6608
  0
LINE
  8
0
 10
66.1009
 20
38.6608
 11
65.3228
 21
38.2643
  0
LINE
  8
0
 10
65.3228
 20
38.2643
 11
65.0935
 21
38.1705
  0
LINE
  8
0
 10
65.0935
 20
38.1705
 11
64.8519
 21
38.1156
  0
LINE
  8
0
 10
64.8519
 20
38.1156
 11
64.6046
 21
38.1013
  0
LINE
  8
0
 10
64.6046
 20
38.1013
 11
64.3583
 21
38.1279
  0
LINE
  8
0
 10
55.7507
 20
18.8331
 11
55.5133
 21
18.9038
  0
LINE
  8
0
 10
55.5133
 20
18.9038
 11
55.2907
 21
19.0126
  0
LINE
  8
0
 10
55.2907
 20
19.0126
 11
55.0891
 21
19.1566
  0
LINE
  8
0
 10
55.0891
 20
19.1566
 11
54.9139
 21
19.3317
  0
LINE
  8
0
 10
54.9139
 20
19.3317
 11
54.8005
 21
19.4842
  0
LINE
  8
0
 10
54.8005
 20
19.4842
 11
54.0214
 21
20.6841
  0
LINE
  8
0
 10
54.0214
 20
20.6841
 11
53.9429
 21
20.82
  0
LINE
  8
0
 10
53.9429
 20
20.82
 11
53.1351
 21
22.4053
  0
LINE
  8
0
 10
53.1351
 20
22.4053
 11
53.0712
 21
22.5488
  0
LINE
  8
0
 10
53.0712
 20
22.5488
 11
52.4336
 21
24.2098
  0
LINE
  8
0
 10
52.4336
 20
24.2098
 11
52.3851
 21
24.3591
  0
LINE
  8
0
 10
52.3851
 20
24.3591
 11
51.9246
 21
26.0777
  0
LINE
  8
0
 10
51.9246
 20
26.0777
 11
51.892
 21
26.2313
  0
LINE
  8
0
 10
51.892
 20
26.2313
 11
51.6136
 21
27.9887
  0
LINE
  8
0
 10
51.6136
 20
27.9887
 11
51.5972
 21
28.1448
  0
LINE
  8
0
 10
51.5972
 20
28.1448
 11
51.5041
 21
29.9215
  0
LINE
  8
0
 10
51.5041
 20
29.9215
 11
51.5041
 21
30.0785
  0
LINE
  8
0
 10
51.5041
 20
30.0785
 11
51.5972
 21
31.8552
  0
LINE
  8
0
 10
51.5972
 20
31.8552
 11
51.6136
 21
32.0113
  0
LINE
  8
0
 10
51.6136
 20
32.0113
 11
51.892
 21
33.7687
  0
LINE
  8
0
 10
51.892
 20
33.7687
 11
51.9246
 21
33.9223
  0
LINE
  8
0
 10
51.9246
 20
33.9223
 11
52.3851
 21
35.6409
  0
LINE
  8
0
 10
52.3851
 20
35.6409
 11
52.4336
 21
35.7902
  0
LINE
  8
0
 10
52.4336
 20
35.7902
 11
53.0712
 21
37.4512
  0
LINE
  8
0
 10
53.0712
 20
37.4512
 11
53.1351
 21
37.5947
  0
LINE
  8
0
 10
53.1351
 20
37.5947
 11
53.9429
 21
39.18
  0
LINE
  8
0
 10
53.9429
 20
39.18
 11
54.0214
 21
39.3159
  0
LINE
  8
0
 10
54.0214
 20
39.3159
 11
54.8005
 21
40.5158
  0
LINE
  8
0
 10
54.8005
 20
40.5158
 11
54.9522
 21
40.7117
  0
LINE
  8
0
 10
54.9522
 20
40.7117
 11
55.134
 21
40.88
  0
LINE
  8
0
 10
55.134
 20
40.88
 11
55.341
 21
41.0161
  0
LINE
  8
0
 10
55.341
 20
41.0161
 11
55.5676
 21
41.1162
  0
LINE
  8
0
 10
55.5676
 20
41.1162
 11
55.8076
 21
41.1777
  0
LINE
  8
0
 10
55.8076
 20
41.1777
 11
56.0544
 21
41.1988
  0
LINE
  8
0
 10
56.0544
 20
41.1988
 11
56.3014
 21
41.179
  0
LINE
  8
0
 10
56.3014
 20
41.179
 11
56.5417
 21
41.1189
  0
LINE
  8
0
 10
56.5417
 20
41.1189
 11
56.7688
 21
41.02
  0
LINE
  8
0
 10
56.7688
 20
41.02
 11
56.9766
 21
40.8851
  0
LINE
  8
0
 10
56.9766
 20
40.8851
 11
57.1192
 21
40.7595
  0
LINE
  8
0
 10
57.1192
 20
40.7595
 11
57.4772
 21
40.4015
  0
LINE
  8
0
 10
57.4772
 20
40.4015
 11
57.6373
 21
40.2124
  0
LINE
  8
0
 10
57.6373
 20
40.2124
 11
57.7641
 21
39.9996
  0
LINE
  8
0
 10
57.7641
 20
39.9996
 11
57.8542
 21
39.7688
  0
LINE
  8
0
 10
57.8542
 20
39.7688
 11
57.905
 21
39.5264
  0
LINE
  8
0
 10
57.905
 20
39.5264
 11
57.9153
 21
39.2789
  0
LINE
  8
0
 10
57.9153
 20
39.2789
 11
57.8846
 21
39.033
  0
LINE
  8
0
 10
57.8846
 20
39.033
 11
57.8139
 21
38.7956
  0
LINE
  8
0
 10
57.8139
 20
38.7956
 11
57.6745
 21
38.5239
  0
LINE
  8
0
 10
57.6745
 20
38.5239
 11
57.031
 21
37.533
  0
LINE
  8
0
 10
57.031
 20
37.533
 11
56.9918
 21
37.465
  0
LINE
  8
0
 10
56.9918
 20
37.465
 11
56.3147
 21
36.136
  0
LINE
  8
0
 10
56.3147
 20
36.136
 11
56.2827
 21
36.0643
  0
LINE
  8
0
 10
56.2827
 20
36.0643
 11
55.7483
 21
34.672
  0
LINE
  8
0
 10
55.7483
 20
34.672
 11
55.7239
 21
34.5971
  0
LINE
  8
0
 10
55.7239
 20
34.5971
 11
55.338
 21
33.1568
  0
LINE
  8
0
 10
55.338
 20
33.1568
 11
55.3216
 21
33.0798
  0
LINE
  8
0
 10
55.3216
 20
33.0798
 11
55.0883
 21
31.6067
  0
LINE
  8
0
 10
55.0883
 20
31.6067
 11
55.0801
 21
31.5286
  0
LINE
  8
0
 10
55.0801
 20
31.5286
 11
55.0021
 21
30.0393
  0
LINE
  8
0
 10
55.0021
 20
30.0393
 11
55.0021
 21
29.9607
  0
LINE
  8
0
 10
55.0021
 20
29.9607
 11
55.0801
 21
28.4714
  0
LINE
  8
0
 10
55.0801
 20
28.4714
 11
55.0883
 21
28.3933
  0
LINE
  8
0
 10
55.0883
 20
28.3933
 11
55.3216
 21
26.9202
  0
LINE
  8
0
 10
55.3216
 20
26.9202
 11
55.338
 21
26.8432
  0
LINE
  8
0
 10
55.338
 20
26.8432
 11
55.7239
 21
25.4029
  0
LINE
  8
0
 10
55.7239
 20
25.4029
 11
55.7483
 21
25.328
  0
LINE
  8
0
 10
55.7483
 20
25.328
 11
56.2827
 21
23.9357
  0
LINE
  8
0
 10
56.2827
 20
23.9357
 11
56.3147
 21
23.864
  0
LINE
  8
0
 10
56.3147
 20
23.864
 11
56.9918
 21
22.535
  0
LINE
  8
0
 10
56.9918
 20
22.535
 11
57.031
 21
22.467
  0
LINE
  8
0
 10
57.031
 20
22.467
 11
57.6745
 21
21.4761
  0
LINE
  8
0
 10
57.6745
 20
21.4761
 11
57.7919
 21
21.2579
  0
LINE
  8
0
 10
57.7919
 20
21.2579
 11
57.8716
 21
21.0234
  0
LINE
  8
0
 10
57.8716
 20
21.0234
 11
57.9117
 21
20.7789
  0
LINE
  8
0
 10
57.9117
 20
20.7789
 11
57.9111
 21
20.5312
  0
LINE
  8
0
 10
57.9111
 20
20.5312
 11
57.8696
 21
20.2869
  0
LINE
  8
0
 10
57.8696
 20
20.2869
 11
57.7885
 21
20.0528
  0
LINE
  8
0
 10
57.7885
 20
20.0528
 11
57.67
 21
19.8353
  0
LINE
  8
0
 10
57.67
 20
19.8353
 11
57.4772
 21
19.5985
  0
LINE
  8
0
 10
57.4772
 20
19.5985
 11
57.1192
 21
19.2405
  0
LINE
  8
0
 10
57.1192
 20
19.2405
 11
56.9302
 21
19.0804
  0
LINE
  8
0
 10
56.9302
 20
19.0804
 11
56.7173
 21
18.9536
  0
LINE
  8
0
 10
56.7173
 20
18.9536
 11
56.4866
 21
18.8635
  0
LINE
  8
0
 10
56.4866
 20
18.8635
 11
56.2441
 21
18.8127
  0
LINE
  8
0
 10
56.2441
 20
18.8127
 11
55.9966
 21
18.8025
  0
LINE
  8
0
 10
55.9966
 20
18.8025
 11
55.7507
 21
18.8331
  0
LINE
  8
0
 10
165.751
 20
18.8331
 11
165.513
 21
18.9038
  0
LINE
  8
0
 10
165.513
 20
18.9038
 11
165.291
 21
19.0126
  0
LINE
  8
0
 10
165.291
 20
19.0126
 11
165.089
 21
19.1566
  0
LINE
  8
0
 10
165.089
 20
19.1566
 11
164.914
 21
19.3317
  0
LINE
  8
0
 10
164.914
 20
19.3317
 11
164.801
 21
19.4842
  0
LINE
  8
0
 10
164.801
 20
19.4842
 11
164.021
 21
20.6841
  0
LINE
  8
0
 10
164.021
 20
20.6841
 11
163.943
 21
20.82
  0
LINE
  8
0
 10
163.943
 20
20.82
 11
163.135
 21
22.4053
  0
LINE
  8
0
 10
163.135
 20
22.4053
 11
163.071
 21
22.5488
  0
LINE
  8
0
 10
163.071
 20
22.5488
 11
162.434
 21
24.2098
  0
LINE
  8
0
 10
162.434
 20
24.2098
 11
162.385
 21
24.3591
  0
LINE
  8
0
 10
162.385
 20
24.3591
 11
161.925
 21
26.0777
  0
LINE
  8
0
 10
161.925
 20
26.0777
 11
161.892
 21
26.2313
  0
LINE
  8
0
 10
161.892
 20
26.2313
 11
161.614
 21
27.9887
  0
LINE
  8
0
 10
161.614
 20
27.9887
 11
161.597
 21
28.1448
  0
LINE
  8
0
 10
161.597
 20
28.1448
 11
161.504
 21
29.9215
  0
LINE
  8
0
 10
161.504
 20
29.9215
 11
161.504
 21
30.0785
  0
LINE
  8
0
 10
161.504
 20
30.0785
 11
161.597
 21
31.8552
  0
LINE
  8
0
 10
161.597
 20
31.8552
 11
161.614
 21
32.0113
  0
LINE
  8
0
 10
161.614
 20
32.0113
 11
161.892
 21
33.7687
  0
LINE
  8
0
 10
161.892
 20
33.7687
 11
161.925
 21
33.9223
  0
LINE
  8
0
 10
161.925
 20
33.9223
 11
162.385
 21
35.6409
  0
LINE
  8
0
 10
162.385
 20
35.6409
 11
162.434
 21
35.7902
  0
LINE
  8
0
 10
162.434
 20
35.7902
 11
163.071
 21
37.4512
  0
LINE
  8
0
 10
163.071
 20
37.4512
 11
163.135
 21
37.5947
  0
LINE
  8
0
 10
163.135
 20
37.5947
 11
163.943
 21
39.18
  0
LINE
  8
0
 10
163.943
 20
39.18
 11
164.021
 21
39.3159
  0
LINE
  8
0
 10
164.021
 20
39.3159
 11
164.801
 21
40.5158
  0
LINE
  8
0
 10
164.801
 20
40.5158
 11
164.952
 21
40.7117
  0
LINE
  8
0
 10
164.952
 20
40.7117
 11
165.134
 21
40.88
  0
LINE
  8
0
 10
165.134
 20
40.88
 11
165.341
 21
41.0161
  0
LINE
  8
0
 10
165.341
 20
41.0161
 11
165.568
 21
41.1162
  0
LINE
  8
0
 10
165.568
 20
41.1162
 11
165.808
 21
41.1777
  0
LINE
  8
0
 10
165.808
 20
41.1777
 11
166.054
 21
41.1988
  0
LINE
  8
0
 10
166.054
 20
41.1988
 11
166.301
 21
41.179
  0
LINE
  8
0
 10
166.301
 20
41.179
 11
166.542
 21
41.1189
  0
LINE
  8
0
 10
166.542
 20
41.1189
 11
166.769
 21
41.02
  0
LINE
  8
0
 10
166.769
 20
41.02
 11
166.977
 21
40.8851
  0
LINE
  8
0
 10
166.977
 20
40.8851
 11
167.119
 21
40.7595
  0
LINE
  8
0
 10
167.119
 20
40.7595
 11
167.477
 21
40.4015
  0
LINE
  8
0
 10
167.477
 20
40.4015
 11
167.637
 21
40.2124
  0
LINE
  8
0
 10
167.637
 20
40.2124
 11
167.764
 21
39.9996
  0
LINE
  8
0
 10
167.764
 20
39.9996
 11
167.854
 21
39.7688
  0
LINE
  8
0
 10
167.854
 20
39.7688
 11
167.905
 21
39.5264
  0
LINE
  8
0
 10
167.905
 20
39.5264
 11
167.915
 21
39.2789
  0
LINE
  8
0
 10
167.915
 20
39.2789
 11
167.885
 21
39.033
  0
LINE
  8
0
 10
167.885
 20
39.033
 11
167.814
 21
38.7956
  0
LINE
  8
0
 10
167.814
 20
38.7956
 11
167.675
 21
38.5239
  0
LINE
  8
0
 10
167.675
 20
38.5239
 11
167.031
 21
37.533
  0
LINE
  8
0
 10
167.031
 20
37.533
 11
166.992
 21
37.465
  0
LINE
  8
0
 10
166.992
 20
37.465
 11
166.315
 21
36.136
  0
LINE
  8
0
 10
166.315
 20
36.136
 11
166.283
 21
36.0643
  0
LINE
  8
0
 10
166.283
 20
36.0643
 11
165.748
 21
34.672
  0
LINE
  8
0
 10
165.748
 20
34.672
 11
165.724
 21
34.5971
  0
LINE
  8
0
 10
165.724
 20
34.5971
 11
165.338
 21
33.1568
  0
LINE
  8
0
 10
165.338
 20
33.1568
 11
165.322
 21
33.0798
  0
LINE
  8
0
 10
165.322
 20
33.0798
 11
165.088
 21
31.6067
  0
LINE
  8
0
 10
165.088
 20
31.6067
 11
165.08
 21
31.5286
  0
LINE
  8
0
 10
165.08
 20
31.5286
 11
165.002
 21
30.0393
  0
LINE
  8
0
 10
165.002
 20
30.0393
 11
165.002
 21
29.9607
  0
LINE
  8
0
 10
165.002
 20
29.9607
 11
165.08
 21
28.4714
  0
LINE
  8
0
 10
165.08
 20
28.4714
 11
165.088
 21
28.3933
  0
LINE
  8
0
 10
165.088
 20
28.3933
 11
165.322
 21
26.9202
  0
LINE
  8
0
 10
165.322
 20
26.9202
 11
165.338
 21
26.8432
  0
LINE
  8
0
 10
165.338
 20
26.8432
 11
165.724
 21
25.4029
  0
LINE
  8
0
 10
165.724
 20
25.4029
 11
165.748
 21
25.328
  0
LINE
  8
0
 10
165.748
 20
25.328
 11
166.283
 21
23.9357
  0
LINE
  8
0
 10
166.283
 20
23.9357
 11
166.315
 21
23.864
  0
LINE
  8
0
 10
166.315
 20
23.864
 11
166.992
 21
22.535
  0
LINE
  8
0
 10
166.992
 20
22.535
 11
167.031
 21
22.467
  0
LINE
  8
0
 10
167.031
 20
22.467
 11
167.675
 21
21.4761
  0
LINE
  8
0
 10
167.675
 20
21.4761
 11
167.792
 21
21.2579
  0
LINE
  8
0
 10
167.792
 20
21.2579
 11
167.872
 21
21.0234
  0
LINE
  8
0
 10
167.872
 20
21.0234
 11
167.912
 21
20.7789
  0
LINE
  8
0
 10
167.912
 20
20.7789
 11
167.911
 21
20.5312
  0
LINE
  8
0
 10
167.911
 20
20.5312
 11
167.87
 21
20.2869
  0
LINE
  8
0
 10
167.87
 20
20.2869
 11
167.789
 21
20.0528
  0
LINE
  8
0
 10
167.789
 20
20.0528
 11
167.67
 21
19.8353
  0
LINE
  8
0
 10
167.67
 20
19.8353
 11
167.477
 21
19.5985
  0
LINE
  8
0
 10
167.477
 20
19.5985
 11
167.119
 21
19.2405
  0
LINE
  8
0
 10
167.119
 20
19.2405
 11
166.93
 21
19.0804
  0
LINE
  8
0
 10
166.93
 20
19.0804
 11
166.717
 21
18.9536
  0
LINE
  8
0
 10
166.717
 20
18.9536
 11
166.487
 21
18.8635
  0
LINE
  8
0
 10
166.487
 20
18.8635
 11
166.244
 21
18.8127
  0
LINE
  8
0
 10
166.244
 20
18.8127
 11
165.997
 21
18.8025
  0
LINE
  8
0
 10
165.997
 20
18.8025
 11
165.751
 21
18.8331
  0
LINE
  8
0
 10
83.6986
 20
18.821
 11
83.4583
 21
18.8811
  0
LINE
  8
0
 10
83.4583
 20
18.8811
 11
83.2312
 21
18.98
  0
LINE
  8
0
 10
83.2312
 20
18.98
 11
83.0234
 21
19.1149
  0
LINE
  8
0
 10
83.0234
 20
19.1149
 11
82.8808
 21
19.2405
  0
LINE
  8
0
 10
82.8808
 20
19.2405
 11
82.5228
 21
19.5985
  0
LINE
  8
0
 10
82.5228
 20
19.5985
 11
82.3627
 21
19.7876
  0
LINE
  8
0
 10
82.3627
 20
19.7876
 11
82.2359
 21
20.0004
  0
LINE
  8
0
 10
82.2359
 20
20.0004
 11
82.1458
 21
20.2312
  0
LINE
  8
0
 10
82.1458
 20
20.2312
 11
82.095
 21
20.4736
  0
LINE
  8
0
 10
82.095
 20
20.4736
 11
82.0847
 21
20.7211
  0
LINE
  8
0
 10
82.0847
 20
20.7211
 11
82.1154
 21
20.967
  0
LINE
  8
0
 10
82.1154
 20
20.967
 11
82.1861
 21
21.2044
  0
LINE
  8
0
 10
82.1861
 20
21.2044
 11
82.3255
 21
21.4761
  0
LINE
  8
0
 10
82.3255
 20
21.4761
 11
82.969
 21
22.467
  0
LINE
  8
0
 10
82.969
 20
22.467
 11
83.0082
 21
22.535
  0
LINE
  8
0
 10
83.0082
 20
22.535
 11
83.6853
 21
23.864
  0
LINE
  8
0
 10
83.6853
 20
23.864
 11
83.7173
 21
23.9357
  0
LINE
  8
0
 10
83.7173
 20
23.9357
 11
84.2517
 21
25.328
  0
LINE
  8
0
 10
84.2517
 20
25.328
 11
84.2761
 21
25.4029
  0
LINE
  8
0
 10
84.2761
 20
25.4029
 11
84.662
 21
26.8432
  0
LINE
  8
0
 10
84.662
 20
26.8432
 11
84.6784
 21
26.9202
  0
LINE
  8
0
 10
84.6784
 20
26.9202
 11
84.9117
 21
28.3933
  0
LINE
  8
0
 10
84.9117
 20
28.3933
 11
84.9199
 21
28.4714
  0
LINE
  8
0
 10
84.9199
 20
28.4714
 11
84.9979
 21
29.9607
  0
LINE
  8
0
 10
84.9979
 20
29.9607
 11
84.9979
 21
30.0393
  0
LINE
  8
0
 10
84.9979
 20
30.0393
 11
84.9199
 21
31.5286
  0
LINE
  8
0
 10
84.9199
 20
31.5286
 11
84.9117
 21
31.6067
  0
LINE
  8
0
 10
84.9117
 20
31.6067
 11
84.6784
 21
33.0798
  0
LINE
  8
0
 10
84.6784
 20
33.0798
 11
84.662
 21
33.1568
  0
LINE
  8
0
 10
84.662
 20
33.1568
 11
84.2761
 21
34.5971
  0
LINE
  8
0
 10
84.2761
 20
34.5971
 11
84.2517
 21
34.672
  0
LINE
  8
0
 10
84.2517
 20
34.672
 11
83.7173
 21
36.0643
  0
LINE
  8
0
 10
83.7173
 20
36.0643
 11
83.6853
 21
36.136
  0
LINE
  8
0
 10
83.6853
 20
36.136
 11
83.0082
 21
37.465
  0
LINE
  8
0
 10
83.0082
 20
37.465
 11
82.969
 21
37.533
  0
LINE
  8
0
 10
82.969
 20
37.533
 11
82.3255
 21
38.5239
  0
LINE
  8
0
 10
82.3255
 20
38.5239
 11
82.2081
 21
38.7421
  0
LINE
  8
0
 10
82.2081
 20
38.7421
 11
82.1284
 21
38.9766
  0
LINE
  8
0
 10
82.1284
 20
38.9766
 11
82.0883
 21
39.2211
  0
LINE
  8
0
 10
82.0883
 20
39.2211
 11
82.0889
 21
39.4688
  0
LINE
  8
0
 10
82.0889
 20
39.4688
 11
82.1304
 21
39.7131
  0
LINE
  8
0
 10
82.1304
 20
39.7131
 11
82.2115
 21
39.9472
  0
LINE
  8
0
 10
82.2115
 20
39.9472
 11
82.33
 21
40.1647
  0
LINE
  8
0
 10
82.33
 20
40.1647
 11
82.5228
 21
40.4015
  0
LINE
  8
0
 10
82.5228
 20
40.4015
 11
82.8808
 21
40.7595
  0
LINE
  8
0
 10
82.8808
 20
40.7595
 11
83.0698
 21
40.9196
  0
LINE
  8
0
 10
83.0698
 20
40.9196
 11
83.2827
 21
41.0464
  0
LINE
  8
0
 10
83.2827
 20
41.0464
 11
83.5134
 21
41.1365
  0
LINE
  8
0
 10
83.5134
 20
41.1365
 11
83.7559
 21
41.1873
  0
LINE
  8
0
 10
83.7559
 20
41.1873
 11
84.0034
 21
41.1975
  0
LINE
  8
0
 10
84.0034
 20
41.1975
 11
84.2493
 21
41.1669
  0
LINE
  8
0
 10
84.2493
 20
41.1669
 11
84.4867
 21
41.0962
  0
LINE
  8
0
 10
84.4867
 20
41.0962
 11
84.7093
 21
40.9874
  0
LINE
  8
0
 10
84.7093
 20
40.9874
 11
84.9109
 21
40.8434
  0
LINE
  8
0
 10
84.9109
 20
40.8434
 11
85.0861
 21
40.6683
  0
LINE
  8
0
 10
85.0861
 20
40.6683
 11
85.1995
 21
40.5158
  0
LINE
  8
0
 10
85.1995
 20
40.5158
 11
85.9786
 21
39.3159
  0
LINE
  8
0
 10
85.9786
 20
39.3159
 11
86.0571
 21
39.18
  0
LINE
  8
0
 10
86.0571
 20
39.18
 11
86.8649
 21
37.5947
  0
LINE
  8
0
 10
86.8649
 20
37.5947
 11
86.9288
 21
37.4512
  0
LINE
  8
0
 10
86.9288
 20
37.4512
 11
87.5664
 21
35.7902
  0
LINE
  8
0
 10
87.5664
 20
35.7902
 11
87.6149
 21
35.6409
  0
LINE
  8
0
 10
87.6149
 20
35.6409
 11
88.0754
 21
33.9223
  0
LINE
  8
0
 10
88.0754
 20
33.9223
 11
88.108
 21
33.7687
  0
LINE
  8
0
 10
88.108
 20
33.7687
 11
88.3864
 21
32.0113
  0
LINE
  8
0
 10
88.3864
 20
32.0113
 11
88.4028
 21
31.8552
  0
LINE
  8
0
 10
88.4028
 20
31.8552
 11
88.4959
 21
30.0785
  0
LINE
  8
0
 10
88.4959
 20
30.0785
 11
88.4959
 21
29.9215
  0
LINE
  8
0
 10
88.4959
 20
29.9215
 11
88.4028
 21
28.1448
  0
LINE
  8
0
 10
88.4028
 20
28.1448
 11
88.3864
 21
27.9887
  0
LINE
  8
0
 10
88.3864
 20
27.9887
 11
88.108
 21
26.2313
  0
LINE
  8
0
 10
88.108
 20
26.2313
 11
88.0754
 21
26.0777
  0
LINE
  8
0
 10
88.0754
 20
26.0777
 11
87.6149
 21
24.3591
  0
LINE
  8
0
 10
87.6149
 20
24.3591
 11
87.5664
 21
24.2098
  0
LINE
  8
0
 10
87.5664
 20
24.2098
 11
86.9288
 21
22.5488
  0
LINE
  8
0
 10
86.9288
 20
22.5488
 11
86.8649
 21
22.4053
  0
LINE
  8
0
 10
86.8649
 20
22.4053
 11
86.0571
 21
20.82
  0
LINE
  8
0
 10
86.0571
 20
20.82
 11
85.9786
 21
20.6841
  0
LINE
  8
0
 10
85.9786
 20
20.6841
 11
85.1995
 21
19.4842
  0
LINE
  8
0
 10
85.1995
 20
19.4842
 11
85.0478
 21
19.2883
  0
LINE
  8
0
 10
85.0478
 20
19.2883
 11
84.866
 21
19.12
  0
LINE
  8
0
 10
84.866
 20
19.12
 11
84.659
 21
18.9839
  0
LINE
  8
0
 10
84.659
 20
18.9839
 11
84.4324
 21
18.8838
  0
LINE
  8
0
 10
84.4324
 20
18.8838
 11
84.1924
 21
18.8223
  0
LINE
  8
0
 10
84.1924
 20
18.8223
 11
83.9456
 21
18.8012
  0
LINE
  8
0
 10
83.9456
 20
18.8012
 11
83.6986
 21
18.821
  0
LINE
  8
0
 10
193.699
 20
18.821
 11
193.458
 21
18.8811
  0
LINE
  8
0
 10
193.458
 20
18.8811
 11
193.231
 21
18.98
  0
LINE
  8
0
 10
193.231
 20
18.98
 11
193.023
 21
19.1149
  0
LINE
  8
0
 10
193.023
 20
19.1149
 11
192.881
 21
19.2405
  0
LINE
  8
0
 10
192.881
 20
19.2405
 11
192.523
 21
19.5985
  0
LINE
  8
0
 10
192.523
 20
19.5985
 11
192.363
 21
19.7876
  0
LINE
  8
0
 10
192.363
 20
19.7876
 11
192.236
 21
20.0004
  0
LINE
  8
0
 10
192.236
 20
20.0004
 11
192.146
 21
20.2312
  0
LINE
  8
0
 10
192.146
 20
20.2312
 11
192.095
 21
20.4736
  0
LINE
  8
0
 10
192.095
 20
20.4736
 11
192.085
 21
20.7211
  0
LINE
  8
0
 10
192.085
 20
20.7211
 11
192.115
 21
20.967
  0
LINE
  8
0
 10
192.115
 20
20.967
 11
192.186
 21
21.2044
  0
LINE
  8
0
 10
192.186
 20
21.2044
 11
192.325
 21
21.4761
  0
LINE
  8
0
 10
192.325
 20
21.4761
 11
192.969
 21
22.467
  0
LINE
  8
0
 10
192.969
 20
22.467
 11
193.008
 21
22.535
  0
LINE
  8
0
 10
193.008
 20
22.535
 11
193.685
 21
23.864
  0
LINE
  8
0
 10
193.685
 20
23.864
 11
193.717
 21
23.9357
  0
LINE
  8
0
 10
193.717
 20
23.9357
 11
194.252
 21
25.328
  0
LINE
  8
0
 10
194.252
 20
25.328
 11
194.276
 21
25.4029
  0
LINE
  8
0
 10
194.276
 20
25.4029
 11
194.662
 21
26.8432
  0
LINE
  8
0
 10
194.662
 20
26.8432
 11
194.678
 21
26.9202
  0
LINE
  8
0
 10
194.678
 20
26.9202
 11
194.912
 21
28.3933
  0
LINE
  8
0
 10
194.912
 20
28.3933
 11
194.92
 21
28.4714
  0
LINE
  8
0
 10
194.92
 20
28.4714
 11
194.998
 21
29.9607
  0
LINE
  8
0
 10
194.998
 20
29.9607
 11
194.998
 21
30.0393
  0
LINE
  8
0
 10
194.998
 20
30.0393
 11
194.92
 21
31.5286
  0
LINE
  8
0
 10
194.92
 20
31.5286
 11
194.912
 21
31.6067
  0
LINE
  8
0
 10
194.912
 20
31.6067
 11
194.678
 21
33.0798
  0
LINE
  8
0
 10
194.678
 20
33.0798
 11
194.662
 21
33.1568
  0
LINE
  8
0
 10
194.662
 20
33.1568
 11
194.276
 21
34.5971
  0
LINE
  8
0
 10
194.276
 20
34.5971
 11
194.252
 21
34.672
  0
LINE
  8
0
 10
194.252
 20
34.672
 11
193.717
 21
36.0643
  0
LINE
  8
0
 10
193.717
 20
36.0643
 11
193.685
 21
36.136
  0
LINE
  8
0
 10
193.685
 20
36.136
 11
193.008
 21
37.465
  0
LINE
  8
0
 10
193.008
 20
37.465
 11
192.969
 21
37.533
  0
LINE
  8
0
 10
192.969
 20
37.533
 11
192.325
 21
38.5239
  0
LINE
  8
0
 10
192.325
 20
38.5239
 11
192.208
 21
38.7421
  0
LINE
  8
0
 10
192.208
 20
38.7421
 11
192.128
 21
38.9766
  0
LINE
  8
0
 10
192.128
 20
38.9766
 11
192.088
 21
39.2211
  0
LINE
  8
0
 10
192.088
 20
39.2211
 11
192.089
 21
39.4688
  0
LINE
  8
0
 10
192.089
 20
39.4688
 11
192.13
 21
39.7131
  0
LINE
  8
0
 10
192.13
 20
39.7131
 11
192.211
 21
39.9472
  0
LINE
  8
0
 10
192.211
 20
39.9472
 11
192.33
 21
40.1647
  0
LINE
  8
0
 10
192.33
 20
40.1647
 11
192.523
 21
40.4015
  0
LINE
  8
0
 10
192.523
 20
40.4015
 11
192.881
 21
40.7595
  0
LINE
  8
0
 10
192.881
 20
40.7595
 11
193.07
 21
40.9196
  0
LINE
  8
0
 10
193.07
 20
40.9196
 11
193.283
 21
41.0464
  0
LINE
  8
0
 10
193.283
 20
41.0464
 11
193.513
 21
41.1365
  0
LINE
  8
0
 10
193.513
 20
41.1365
 11
193.756
 21
41.1873
  0
LINE
  8
0
 10
193.756
 20
41.1873
 11
194.003
 21
41.1975
  0
LINE
  8
0
 10
194.003
 20
41.1975
 11
194.249
 21
41.1669
  0
LINE
  8
0
 10
194.249
 20
41.1669
 11
194.487
 21
41.0962
  0
LINE
  8
0
 10
194.487
 20
41.0962
 11
194.709
 21
40.9874
  0
LINE
  8
0
 10
194.709
 20
40.9874
 11
194.911
 21
40.8434
  0
LINE
  8
0
 10
194.911
 20
40.8434
 11
195.086
 21
40.6683
  0
LINE
  8
0
 10
195.086
 20
40.6683
 11
195.199
 21
40.5158
  0
LINE
  8
0
 10
195.199
 20
40.5158
 11
195.979
 21
39.3159
  0
LINE
  8
0
 10
195.979
 20
39.3159
 11
196.057
 21
39.18
  0
LINE
  8
0
 10
196.057
 20
39.18
 11
196.865
 21
37.5947
  0
LINE
  8
0
 10
196.865
 20
37.5947
 11
196.929
 21
37.4512
  0
LINE
  8
0
 10
196.929
 20
37.4512
 11
197.566
 21
35.7902
  0
LINE
  8
0
 10
197.566
 20
35.7902
 11
197.615
 21
35.6409
  0
LINE
  8
0
 10
197.615
 20
35.6409
 11
198.075
 21
33.9223
  0
LINE
  8
0
 10
198.075
 20
33.9223
 11
198.108
 21
33.7687
  0
LINE
  8
0
 10
198.108
 20
33.7687
 11
198.386
 21
32.0113
  0
LINE
  8
0
 10
198.386
 20
32.0113
 11
198.403
 21
31.8552
  0
LINE
  8
0
 10
198.403
 20
31.8552
 11
198.496
 21
30.0785
  0
LINE
  8
0
 10
198.496
 20
30.0785
 11
198.496
 21
29.9215
  0
LINE
  8
0
 10
198.496
 20
29.9215
 11
198.403
 21
28.1448
  0
LINE
  8
0
 10
198.403
 20
28.1448
 11
198.386
 21
27.9887
  0
LINE
  8
0
 10
198.386
 20
27.9887
 11
198.108
 21
26.2313
  0
LINE
  8
0
 10
198.108
 20
26.2313
 11
198.075
 21
26.0777
  0
LINE
  8
0
 10
198.075
 20
26.0777
 11
197.615
 21
24.3591
  0
LINE
  8
0
 10
197.615
 20
24.3591
 11
197.566
 21
24.2098
  0
LINE
  8
0
 10
197.566
 20
24.2098
 11
196.929
 21
22.5488
  0
LINE
  8
0
 10
196.929
 20
22.5488
 11
196.865
 21
22.4053
  0
LINE
  8
0
 10
196.865
 20
22.4053
 11
196.057
 21
20.82
  0
LINE
  8
0
 10
196.057
 20
20.82
 11
195.979
 21
20.6841
  0
LINE
  8
0
 10
195.979
 20
20.6841
 11
195.199
 21
19.4842
  0
LINE
  8
0
 10
195.199
 20
19.4842
 11
195.048
 21
19.2883
  0
LINE
  8
0
 10
195.048
 20
19.2883
 11
194.866
 21
19.12
  0
LINE
  8
0
 10
194.866
 20
19.12
 11
194.659
 21
18.9839
  0
LINE
  8
0
 10
194.659
 20
18.9839
 11
194.432
 21
18.8838
  0
LINE
  8
0
 10
194.432
 20
18.8838
 11
194.192
 21
18.8223
  0
LINE
  8
0
 10
194.192
 20
18.8223
 11
193.946
 21
18.8012
  0
LINE
  8
0
 10
193.946
 20
18.8012
 11
193.699
 21
18.821
  0
LINE
  8
0
 10
79.6369
 20
22.8108
 11
79.4007
 21
22.8855
  0
LINE
  8
0
 10
79.4007
 20
22.8855
 11
79.18
 21
22.9979
  0
LINE
  8
0
 10
79.18
 20
22.9979
 11
78.9084
 21
23.213
  0
LINE
  8
0
 10
78.9084
 20
23.213
 11
78.5402
 21
23.5811
  0
LINE
  8
0
 10
78.5402
 20
23.5811
 11
78.3801
 21
23.7702
  0
LINE
  8
0
 10
78.3801
 20
23.7702
 11
78.2533
 21
23.983
  0
LINE
  8
0
 10
78.2533
 20
23.983
 11
78.1632
 21
24.2138
  0
LINE
  8
0
 10
78.1632
 20
24.2138
 11
78.1124
 21
24.4563
  0
LINE
  8
0
 10
78.1124
 20
24.4563
 11
78.1021
 21
24.7038
  0
LINE
  8
0
 10
78.1021
 20
24.7038
 11
78.1328
 21
24.9496
  0
LINE
  8
0
 10
78.1328
 20
24.9496
 11
78.2034
 21
25.1871
  0
LINE
  8
0
 10
78.2034
 20
25.1871
 11
78.2643
 21
25.3228
  0
LINE
  8
0
 10
78.2643
 20
25.3228
 11
78.6608
 21
26.1009
  0
LINE
  8
0
 10
78.6608
 20
26.1009
 11
78.6928
 21
26.1727
  0
LINE
  8
0
 10
78.6928
 20
26.1727
 11
79.0209
 21
27.0276
  0
LINE
  8
0
 10
79.0209
 20
27.0276
 11
79.0452
 21
27.1023
  0
LINE
  8
0
 10
79.0452
 20
27.1023
 11
79.2822
 21
27.9869
  0
LINE
  8
0
 10
79.2822
 20
27.9869
 11
79.2985
 21
28.0636
  0
LINE
  8
0
 10
79.2985
 20
28.0636
 11
79.4418
 21
28.9683
  0
LINE
  8
0
 10
79.4418
 20
28.9683
 11
79.45
 21
29.0462
  0
LINE
  8
0
 10
79.45
 20
29.0462
 11
79.4979
 21
29.9607
  0
LINE
  8
0
 10
79.4979
 20
29.9607
 11
79.4979
 21
30.0393
  0
LINE
  8
0
 10
79.4979
 20
30.0393
 11
79.45
 21
30.9538
  0
LINE
  8
0
 10
79.45
 20
30.9538
 11
79.4418
 21
31.0317
  0
LINE
  8
0
 10
79.4418
 20
31.0317
 11
79.2985
 21
31.9364
  0
LINE
  8
0
 10
79.2985
 20
31.9364
 11
79.2822
 21
32.0131
  0
LINE
  8
0
 10
79.2822
 20
32.0131
 11
79.0452
 21
32.8977
  0
LINE
  8
0
 10
79.0452
 20
32.8977
 11
79.0209
 21
32.9724
  0
LINE
  8
0
 10
79.0209
 20
32.9724
 11
78.6928
 21
33.8273
  0
LINE
  8
0
 10
78.6928
 20
33.8273
 11
78.6608
 21
33.8991
  0
LINE
  8
0
 10
78.6608
 20
33.8991
 11
78.2643
 21
34.6772
  0
LINE
  8
0
 10
78.2643
 20
34.6772
 11
78.1705
 21
34.9065
  0
LINE
  8
0
 10
78.1705
 20
34.9065
 11
78.1156
 21
35.1481
  0
LINE
  8
0
 10
78.1156
 20
35.1481
 11
78.1013
 21
35.3954
  0
LINE
  8
0
 10
78.1013
 20
35.3954
 11
78.1279
 21
35.6417
  0
LINE
  8
0
 10
78.1279
 20
35.6417
 11
78.1946
 21
35.8803
  0
LINE
  8
0
 10
78.1946
 20
35.8803
 11
78.2997
 21
36.1046
  0
LINE
  8
0
 10
78.2997
 20
36.1046
 11
78.4403
 21
36.3086
  0
LINE
  8
0
 10
78.4403
 20
36.3086
 11
78.5402
 21
36.4189
  0
LINE
  8
0
 10
78.5402
 20
36.4189
 11
78.9084
 21
36.787
  0
LINE
  8
0
 10
78.9084
 20
36.787
 11
79.0974
 21
36.9472
  0
LINE
  8
0
 10
79.0974
 20
36.9472
 11
79.3102
 21
37.074
  0
LINE
  8
0
 10
79.3102
 20
37.074
 11
79.541
 21
37.164
  0
LINE
  8
0
 10
79.541
 20
37.164
 11
79.7835
 21
37.2149
  0
LINE
  8
0
 10
79.7835
 20
37.2149
 11
80.031
 21
37.2251
  0
LINE
  8
0
 10
80.031
 20
37.2251
 11
80.2768
 21
37.1945
  0
LINE
  8
0
 10
80.2768
 20
37.1945
 11
80.5143
 21
37.1238
  0
LINE
  8
0
 10
80.5143
 20
37.1238
 11
80.7368
 21
37.015
  0
LINE
  8
0
 10
80.7368
 20
37.015
 11
80.9385
 21
36.871
  0
LINE
  8
0
 10
80.9385
 20
36.871
 11
81.1136
 21
36.6958
  0
LINE
  8
0
 10
81.1136
 20
36.6958
 11
81.3055
 21
36.4074
  0
LINE
  8
0
 10
81.3055
 20
36.4074
 11
81.8403
 21
35.3577
  0
LINE
  8
0
 10
81.8403
 20
35.3577
 11
81.9042
 21
35.2143
  0
LINE
  8
0
 10
81.9042
 20
35.2143
 11
82.3356
 21
34.0905
  0
LINE
  8
0
 10
82.3356
 20
34.0905
 11
82.3841
 21
33.9412
  0
LINE
  8
0
 10
82.3841
 20
33.9412
 11
82.6955
 21
32.7789
  0
LINE
  8
0
 10
82.6955
 20
32.7789
 11
82.7282
 21
32.6253
  0
LINE
  8
0
 10
82.7282
 20
32.6253
 11
82.9165
 21
31.4364
  0
LINE
  8
0
 10
82.9165
 20
31.4364
 11
82.9329
 21
31.2803
  0
LINE
  8
0
 10
82.9329
 20
31.2803
 11
82.9959
 21
30.0785
  0
LINE
  8
0
 10
82.9959
 20
30.0785
 11
82.9959
 21
29.9215
  0
LINE
  8
0
 10
82.9959
 20
29.9215
 11
82.9329
 21
28.7197
  0
LINE
  8
0
 10
82.9329
 20
28.7197
 11
82.9165
 21
28.5636
  0
LINE
  8
0
 10
82.9165
 20
28.5636
 11
82.7282
 21
27.3747
  0
LINE
  8
0
 10
82.7282
 20
27.3747
 11
82.6955
 21
27.2211
  0
LINE
  8
0
 10
82.6955
 20
27.2211
 11
82.3841
 21
26.0588
  0
LINE
  8
0
 10
82.3841
 20
26.0588
 11
82.3356
 21
25.9095
  0
LINE
  8
0
 10
82.3356
 20
25.9095
 11
81.9042
 21
24.7857
  0
LINE
  8
0
 10
81.9042
 20
24.7857
 11
81.8403
 21
24.6423
  0
LINE
  8
0
 10
81.8403
 20
24.6423
 11
81.3055
 21
23.5926
  0
LINE
  8
0
 10
81.3055
 20
23.5926
 11
81.1752
 21
23.3819
  0
LINE
  8
0
 10
81.1752
 20
23.3819
 11
81.012
 21
23.1956
  0
LINE
  8
0
 10
81.012
 20
23.1956
 11
80.8203
 21
23.0386
  0
LINE
  8
0
 10
80.8203
 20
23.0386
 11
80.6054
 21
22.9153
  0
LINE
  8
0
 10
80.6054
 20
22.9153
 11
80.3732
 21
22.8291
  0
LINE
  8
0
 10
80.3732
 20
22.8291
 11
80.1299
 21
22.7823
  0
LINE
  8
0
 10
80.1299
 20
22.7823
 11
79.8822
 21
22.7761
  0
LINE
  8
0
 10
79.8822
 20
22.7761
 11
79.6369
 21
22.8108
  0
LINE
  8
0
 10
189.637
 20
22.8108
 11
189.401
 21
22.8855
  0
LINE
  8
0
 10
189.401
 20
22.8855
 11
189.18
 21
22.9979
  0
LINE
  8
0
 10
189.18
 20
22.9979
 11
188.908
 21
23.213
  0
LINE
  8
0
 10
188.908
 20
23.213
 11
188.54
 21
23.5811
  0
LINE
  8
0
 10
188.54
 20
23.5811
 11
188.38
 21
23.7702
  0
LINE
  8
0
 10
188.38
 20
23.7702
 11
188.253
 21
23.983
  0
LINE
  8
0
 10
188.253
 20
23.983
 11
188.163
 21
24.2138
  0
LINE
  8
0
 10
188.163
 20
24.2138
 11
188.112
 21
24.4563
  0
LINE
  8
0
 10
188.112
 20
24.4563
 11
188.102
 21
24.7038
  0
LINE
  8
0
 10
188.102
 20
24.7038
 11
188.133
 21
24.9496
  0
LINE
  8
0
 10
188.133
 20
24.9496
 11
188.203
 21
25.1871
  0
LINE
  8
0
 10
188.203
 20
25.1871
 11
188.264
 21
25.3228
  0
LINE
  8
0
 10
188.264
 20
25.3228
 11
188.661
 21
26.1009
  0
LINE
  8
0
 10
188.661
 20
26.1009
 11
188.693
 21
26.1727
  0
LINE
  8
0
 10
188.693
 20
26.1727
 11
189.021
 21
27.0276
  0
LINE
  8
0
 10
189.021
 20
27.0276
 11
189.045
 21
27.1023
  0
LINE
  8
0
 10
189.045
 20
27.1023
 11
189.282
 21
27.9869
  0
LINE
  8
0
 10
189.282
 20
27.9869
 11
189.299
 21
28.0636
  0
LINE
  8
0
 10
189.299
 20
28.0636
 11
189.442
 21
28.9683
  0
LINE
  8
0
 10
189.442
 20
28.9683
 11
189.45
 21
29.0462
  0
LINE
  8
0
 10
189.45
 20
29.0462
 11
189.498
 21
29.9607
  0
LINE
  8
0
 10
189.498
 20
29.9607
 11
189.498
 21
30.0393
  0
LINE
  8
0
 10
189.498
 20
30.0393
 11
189.45
 21
30.9538
  0
LINE
  8
0
 10
189.45
 20
30.9538
 11
189.442
 21
31.0317
  0
LINE
  8
0
 10
189.442
 20
31.0317
 11
189.299
 21
31.9364
  0
LINE
  8
0
 10
189.299
 20
31.9364
 11
189.282
 21
32.0131
  0
LINE
  8
0
 10
189.282
 20
32.0131
 11
189.045
 21
32.8977
  0
LINE
  8
0
 10
189.045
 20
32.8977
 11
189.021
 21
32.9724
  0
LINE
  8
0
 10
189.021
 20
32.9724
 11
188.693
 21
33.8273
  0
LINE
  8
0
 10
188.693
 20
33.8273
 11
188.661
 21
33.8991
  0
LINE
  8
0
 10
188.661
 20
33.8991
 11
188.264
 21
34.6772
  0
LINE
  8
0
 10
188.264
 20
34.6772
 11
188.17
 21
34.9065
  0
LINE
  8
0
 10
188.17
 20
34.9065
 11
188.116
 21
35.1481
  0
LINE
  8
0
 10
188.116
 20
35.1481
 11
188.101
 21
35.3954
  0
LINE
  8
0
 10
188.101
 20
35.3954
 11
188.128
 21
35.6417
  0
LINE
  8
0
 10
188.128
 20
35.6417
 11
188.195
 21
35.8803
  0
LINE
  8
0
 10
188.195
 20
35.8803
 11
188.3
 21
36.1046
  0
LINE
  8
0
 10
188.3
 20
36.1046
 11
188.44
 21
36.3086
  0
LINE
  8
0
 10
188.44
 20
36.3086
 11
188.54
 21
36.4189
  0
LINE
  8
0
 10
188.54
 20
36.4189
 11
188.908
 21
36.787
  0
LINE
  8
0
 10
188.908
 20
36.787
 11
189.097
 21
36.9472
  0
LINE
  8
0
 10
189.097
 20
36.9472
 11
189.31
 21
37.074
  0
LINE
  8
0
 10
189.31
 20
37.074
 11
189.541
 21
37.164
  0
LINE
  8
0
 10
189.541
 20
37.164
 11
189.783
 21
37.2149
  0
LINE
  8
0
 10
189.783
 20
37.2149
 11
190.031
 21
37.2251
  0
LINE
  8
0
 10
190.031
 20
37.2251
 11
190.277
 21
37.1945
  0
LINE
  8
0
 10
190.277
 20
37.1945
 11
190.514
 21
37.1238
  0
LINE
  8
0
 10
190.514
 20
37.1238
 11
190.737
 21
37.015
  0
LINE
  8
0
 10
190.737
 20
37.015
 11
190.938
 21
36.871
  0
LINE
  8
0
 10
190.938
 20
36.871
 11
191.114
 21
36.6958
  0
LINE
  8
0
 10
191.114
 20
36.6958
 11
191.306
 21
36.4074
  0
LINE
  8
0
 10
191.306
 20
36.4074
 11
191.84
 21
35.3577
  0
LINE
  8
0
 10
191.84
 20
35.3577
 11
191.904
 21
35.2143
  0
LINE
  8
0
 10
191.904
 20
35.2143
 11
192.336
 21
34.0905
  0
LINE
  8
0
 10
192.336
 20
34.0905
 11
192.384
 21
33.9412
  0
LINE
  8
0
 10
192.384
 20
33.9412
 11
192.696
 21
32.7789
  0
LINE
  8
0
 10
192.696
 20
32.7789
 11
192.728
 21
32.6253
  0
LINE
  8
0
 10
192.728
 20
32.6253
 11
192.916
 21
31.4364
  0
LINE
  8
0
 10
192.916
 20
31.4364
 11
192.933
 21
31.2803
  0
LINE
  8
0
 10
192.933
 20
31.2803
 11
192.996
 21
30.0785
  0
LINE
  8
0
 10
192.996
 20
30.0785
 11
192.996
 21
29.9215
  0
LINE
  8
0
 10
192.996
 20
29.9215
 11
192.933
 21
28.7197
  0
LINE
  8
0
 10
192.933
 20
28.7197
 11
192.916
 21
28.5636
  0
LINE
  8
0
 10
192.916
 20
28.5636
 11
192.728
 21
27.3747
  0
LINE
  8
0
 10
192.728
 20
27.3747
 11
192.696
 21
27.2211
  0
LINE
  8
0
 10
192.696
 20
27.2211
 11
192.384
 21
26.0588
  0
LINE
  8
0
 10
192.384
 20
26.0588
 11
192.336
 21
25.9095
  0
LINE
  8
0
 10
192.336
 20
25.9095
 11
191.904
 21
24.7857
  0
LINE
  8
0
 10
191.904
 20
24.7857
 11
191.84
 21
24.6423
  0
LINE
  8
0
 10
191.84
 20
24.6423
 11
191.306
 21
23.5926
  0
LINE
  8
0
 10
191.306
 20
23.5926
 11
191.175
 21
23.3819
  0
LINE
  8
0
 10
191.175
 20
23.3819
 11
191.012
 21
23.1956
  0
LINE
  8
0
 10
191.012
 20
23.1956
 11
190.82
 21
23.0386
  0
LINE
  8
0
 10
190.82
 20
23.0386
 11
190.605
 21
22.9153
  0
LINE
  8
0
 10
190.605
 20
22.9153
 11
190.373
 21
22.8291
  0
LINE
  8
0
 10
190.373
 20
22.8291
 11
190.13
 21
22.7823
  0
LINE
  8
0
 10
190.13
 20
22.7823
 11
189.882
 21
22.7761
  0
LINE
  8
0
 10
189.882
 20
22.7761
 11
189.637
 21
22.8108
  0
LINE
  8
0
 10
59.7232
 20
22.8055
 11
59.4857
 21
22.8762
  0
LINE
  8
0
 10
59.4857
 20
22.8762
 11
59.2632
 21
22.985
  0
LINE
  8
0
 10
59.2632
 20
22.985
 11
59.0615
 21
23.129
  0
LINE
  8
0
 10
59.0615
 20
23.129
 11
58.8864
 21
23.3042
  0
LINE
  8
0
 10
58.8864
 20
23.3042
 11
58.6945
 21
23.5926
  0
LINE
  8
0
 10
58.6945
 20
23.5926
 11
58.1597
 21
24.6423
  0
LINE
  8
0
 10
58.1597
 20
24.6423
 11
58.0958
 21
24.7857
  0
LINE
  8
0
 10
58.0958
 20
24.7857
 11
57.6644
 21
25.9095
  0
LINE
  8
0
 10
57.6644
 20
25.9095
 11
57.6159
 21
26.0588
  0
LINE
  8
0
 10
57.6159
 20
26.0588
 11
57.3045
 21
27.2211
  0
LINE
  8
0
 10
57.3045
 20
27.2211
 11
57.2718
 21
27.3747
  0
LINE
  8
0
 10
57.2718
 20
27.3747
 11
57.0835
 21
28.5636
  0
LINE
  8
0
 10
57.0835
 20
28.5636
 11
57.0671
 21
28.7197
  0
LINE
  8
0
 10
57.0671
 20
28.7197
 11
57.0041
 21
29.9215
  0
LINE
  8
0
 10
57.0041
 20
29.9215
 11
57.0041
 21
30.0785
  0
LINE
  8
0
 10
57.0041
 20
30.0785
 11
57.0671
 21
31.2803
  0
LINE
  8
0
 10
57.0671
 20
31.2803
 11
57.0835
 21
31.4364
  0
LINE
  8
0
 10
57.0835
 20
31.4364
 11
57.2718
 21
32.6253
  0
LINE
  8
0
 10
57.2718
 20
32.6253
 11
57.3045
 21
32.7789
  0
LINE
  8
0
 10
57.3045
 20
32.7789
 11
57.6159
 21
33.9412
  0
LINE
  8
0
 10
57.6159
 20
33.9412
 11
57.6644
 21
34.0905
  0
LINE
  8
0
 10
57.6644
 20
34.0905
 11
58.0958
 21
35.2143
  0
LINE
  8
0
 10
58.0958
 20
35.2143
 11
58.1597
 21
35.3577
  0
LINE
  8
0
 10
58.1597
 20
35.3577
 11
58.6945
 21
36.4074
  0
LINE
  8
0
 10
58.6945
 20
36.4074
 11
58.8248
 21
36.6181
  0
LINE
  8
0
 10
58.8248
 20
36.6181
 11
58.988
 21
36.8044
  0
LINE
  8
0
 10
58.988
 20
36.8044
 11
59.1797
 21
36.9614
  0
LINE
  8
0
 10
59.1797
 20
36.9614
 11
59.3946
 21
37.0847
  0
LINE
  8
0
 10
59.3946
 20
37.0847
 11
59.6268
 21
37.1709
  0
LINE
  8
0
 10
59.6268
 20
37.1709
 11
59.8701
 21
37.2177
  0
LINE
  8
0
 10
59.8701
 20
37.2177
 11
60.1178
 21
37.2239
  0
LINE
  8
0
 10
60.1178
 20
37.2239
 11
60.3631
 21
37.1892
  0
LINE
  8
0
 10
60.3631
 20
37.1892
 11
60.5993
 21
37.1145
  0
LINE
  8
0
 10
60.5993
 20
37.1145
 11
60.82
 21
37.0021
  0
LINE
  8
0
 10
60.82
 20
37.0021
 11
61.0916
 21
36.787
  0
LINE
  8
0
 10
61.0916
 20
36.787
 11
61.4598
 21
36.4189
  0
LINE
  8
0
 10
61.4598
 20
36.4189
 11
61.6199
 21
36.2298
  0
LINE
  8
0
 10
61.6199
 20
36.2298
 11
61.7467
 21
36.017
  0
LINE
  8
0
 10
61.7467
 20
36.017
 11
61.8368
 21
35.7862
  0
LINE
  8
0
 10
61.8368
 20
35.7862
 11
61.8876
 21
35.5437
  0
LINE
  8
0
 10
61.8876
 20
35.5437
 11
61.8979
 21
35.2962
  0
LINE
  8
0
 10
61.8979
 20
35.2962
 11
61.8672
 21
35.0504
  0
LINE
  8
0
 10
61.8672
 20
35.0504
 11
61.7966
 21
34.8129
  0
LINE
  8
0
 10
61.7966
 20
34.8129
 11
61.7357
 21
34.6772
  0
LINE
  8
0
 10
61.7357
 20
34.6772
 11
61.3392
 21
33.8991
  0
LINE
  8
0
 10
61.3392
 20
33.8991
 11
61.3072
 21
33.8273
  0
LINE
  8
0
 10
61.3072
 20
33.8273
 11
60.9791
 21
32.9724
  0
LINE
  8
0
 10
60.9791
 20
32.9724
 11
60.9548
 21
32.8977
  0
LINE
  8
0
 10
60.9548
 20
32.8977
 11
60.7178
 21
32.0131
  0
LINE
  8
0
 10
60.7178
 20
32.0131
 11
60.7015
 21
31.9364
  0
LINE
  8
0
 10
60.7015
 20
31.9364
 11
60.5582
 21
31.0317
  0
LINE
  8
0
 10
60.5582
 20
31.0317
 11
60.55
 21
30.9538
  0
LINE
  8
0
 10
60.55
 20
30.9538
 11
60.5021
 21
30.0393
  0
LINE
  8
0
 10
60.5021
 20
30.0393
 11
60.5021
 21
29.9607
  0
LINE
  8
0
 10
60.5021
 20
29.9607
 11
60.55
 21
29.0462
  0
LINE
  8
0
 10
60.55
 20
29.0462
 11
60.5582
 21
28.9683
  0
LINE
  8
0
 10
60.5582
 20
28.9683
 11
60.7015
 21
28.0636
  0
LINE
  8
0
 10
60.7015
 20
28.0636
 11
60.7178
 21
27.9869
  0
LINE
  8
0
 10
60.7178
 20
27.9869
 11
60.9548
 21
27.1023
  0
LINE
  8
0
 10
60.9548
 20
27.1023
 11
60.9791
 21
27.0276
  0
LINE
  8
0
 10
60.9791
 20
27.0276
 11
61.3072
 21
26.1727
  0
LINE
  8
0
 10
61.3072
 20
26.1727
 11
61.3392
 21
26.1009
  0
LINE
  8
0
 10
61.3392
 20
26.1009
 11
61.7357
 21
25.3228
  0
LINE
  8
0
 10
61.7357
 20
25.3228
 11
61.8295
 21
25.0935
  0
LINE
  8
0
 10
61.8295
 20
25.0935
 11
61.8844
 21
24.8519
  0
LINE
  8
0
 10
61.8844
 20
24.8519
 11
61.8987
 21
24.6046
  0
LINE
  8
0
 10
61.8987
 20
24.6046
 11
61.8721
 21
24.3583
  0
LINE
  8
0
 10
61.8721
 20
24.3583
 11
61.8054
 21
24.1197
  0
LINE
  8
0
 10
61.8054
 20
24.1197
 11
61.7003
 21
23.8954
  0
LINE
  8
0
 10
61.7003
 20
23.8954
 11
61.5597
 21
23.6914
  0
LINE
  8
0
 10
61.5597
 20
23.6914
 11
61.4598
 21
23.5811
  0
LINE
  8
0
 10
61.4598
 20
23.5811
 11
61.0916
 21
23.213
  0
LINE
  8
0
 10
61.0916
 20
23.213
 11
60.9026
 21
23.0528
  0
LINE
  8
0
 10
60.9026
 20
23.0528
 11
60.6898
 21
22.926
  0
LINE
  8
0
 10
60.6898
 20
22.926
 11
60.459
 21
22.836
  0
LINE
  8
0
 10
60.459
 20
22.836
 11
60.2165
 21
22.7851
  0
LINE
  8
0
 10
60.2165
 20
22.7851
 11
59.969
 21
22.7749
  0
LINE
  8
0
 10
59.969
 20
22.7749
 11
59.7232
 21
22.8055
  0
LINE
  8
0
 10
169.723
 20
22.8055
 11
169.486
 21
22.8762
  0
LINE
  8
0
 10
169.486
 20
22.8762
 11
169.263
 21
22.985
  0
LINE
  8
0
 10
169.263
 20
22.985
 11
169.062
 21
23.129
  0
LINE
  8
0
 10
169.062
 20
23.129
 11
168.886
 21
23.3042
  0
LINE
  8
0
 10
168.886
 20
23.3042
 11
168.694
 21
23.5926
  0
LINE
  8
0
 10
168.694
 20
23.5926
 11
168.16
 21
24.6423
  0
LINE
  8
0
 10
168.16
 20
24.6423
 11
168.096
 21
24.7857
  0
LINE
  8
0
 10
168.096
 20
24.7857
 11
167.664
 21
25.9095
  0
LINE
  8
0
 10
167.664
 20
25.9095
 11
167.616
 21
26.0588
  0
LINE
  8
0
 10
167.616
 20
26.0588
 11
167.304
 21
27.2211
  0
LINE
  8
0
 10
167.304
 20
27.2211
 11
167.272
 21
27.3747
  0
LINE
  8
0
 10
167.272
 20
27.3747
 11
167.084
 21
28.5636
  0
LINE
  8
0
 10
167.084
 20
28.5636
 11
167.067
 21
28.7197
  0
LINE
  8
0
 10
167.067
 20
28.7197
 11
167.004
 21
29.9215
  0
LINE
  8
0
 10
167.004
 20
29.9215
 11
167.004
 21
30.0785
  0
LINE
  8
0
 10
167.004
 20
30.0785
 11
167.067
 21
31.2803
  0
LINE
  8
0
 10
167.067
 20
31.2803
 11
167.084
 21
31.4364
  0
LINE
  8
0
 10
167.084
 20
31.4364
 11
167.272
 21
32.6253
  0
LINE
  8
0
 10
167.272
 20
32.6253
 11
167.304
 21
32.7789
  0
LINE
  8
0
 10
167.304
 20
32.7789
 11
167.616
 21
33.9412
  0
LINE
  8
0
 10
167.616
 20
33.9412
 11
167.664
 21
34.0905
  0
LINE
  8
0
 10
167.664
 20
34.0905
 11
168.096
 21
35.2143
  0
LINE
  8
0
 10
168.096
 20
35.2143
 11
168.16
 21
35.3577
  0
LINE
  8
0
 10
168.16
 20
35.3577
 11
168.694
 21
36.4074
  0
LINE
  8
0
 10
168.694
 20
36.4074
 11
168.825
 21
36.6181
  0
LINE
  8
0
 10
168.825
 20
36.6181
 11
168.988
 21
36.8044
  0
LINE
  8
0
 10
168.988
 20
36.8044
 11
169.18
 21
36.9614
  0
LINE
  8
0
 10
169.18
 20
36.9614
 11
169.395
 21
37.0847
  0
LINE
  8
0
 10
169.395
 20
37.0847
 11
169.627
 21
37.1709
  0
LINE
  8
0
 10
169.627
 20
37.1709
 11
169.87
 21
37.2177
  0
LINE
  8
0
 10
169.87
 20
37.2177
 11
170.118
 21
37.2239
  0
LINE
  8
0
 10
170.118
 20
37.2239
 11
170.363
 21
37.1892
  0
LINE
  8
0
 10
170.363
 20
37.1892
 11
170.599
 21
37.1145
  0
LINE
  8
0
 10
170.599
 20
37.1145
 11
170.82
 21
37.0021
  0
LINE
  8
0
 10
170.82
 20
37.0021
 11
171.092
 21
36.787
  0
LINE
  8
0
 10
171.092
 20
36.787
 11
171.46
 21
36.4189
  0
LINE
  8
0
 10
171.46
 20
36.4189
 11
171.62
 21
36.2298
  0
LINE
  8
0
 10
171.62
 20
36.2298
 11
171.747
 21
36.017
  0
LINE
  8
0
 10
171.747
 20
36.017
 11
171.837
 21
35.7862
  0
LINE
  8
0
 10
171.837
 20
35.7862
 11
171.888
 21
35.5437
  0
LINE
  8
0
 10
171.888
 20
35.5437
 11
171.898
 21
35.2962
  0
LINE
  8
0
 10
171.898
 20
35.2962
 11
171.867
 21
35.0504
  0
LINE
  8
0
 10
171.867
 20
35.0504
 11
171.797
 21
34.8129
  0
LINE
  8
0
 10
171.797
 20
34.8129
 11
171.736
 21
34.6772
  0
LINE
  8
0
 10
171.736
 20
34.6772
 11
171.339
 21
33.8991
  0
LINE
  8
0
 10
171.339
 20
33.8991
 11
171.307
 21
33.8273
  0
LINE
  8
0
 10
171.307
 20
33.8273
 11
170.979
 21
32.9724
  0
LINE
  8
0
 10
170.979
 20
32.9724
 11
170.955
 21
32.8977
  0
LINE
  8
0
 10
170.955
 20
32.8977
 11
170.718
 21
32.0131
  0
LINE
  8
0
 10
170.718
 20
32.0131
 11
170.701
 21
31.9364
  0
LINE
  8
0
 10
170.701
 20
31.9364
 11
170.558
 21
31.0317
  0
LINE
  8
0
 10
170.558
 20
31.0317
 11
170.55
 21
30.9538
  0
LINE
  8
0
 10
170.55
 20
30.9538
 11
170.502
 21
30.0393
  0
LINE
  8
0
 10
170.502
 20
30.0393
 11
170.502
 21
29.9607
  0
LINE
  8
0
 10
170.502
 20
29.9607
 11
170.55
 21
29.0462
  0
LINE
  8
0
 10
170.55
 20
29.0462
 11
170.558
 21
28.9683
  0
LINE
  8
0
 10
170.558
 20
28.9683
 11
170.701
 21
28.0636
  0
LINE
  8
0
 10
170.701
 20
28.0636
 11
170.718
 21
27.9869
  0
LINE
  8
0
 10
170.718
 20
27.9869
 11
170.955
 21
27.1023
  0
LINE
  8
0
 10
170.955
 20
27.1023
 11
170.979
 21
27.0276
  0
LINE
  8
0
 10
170.979
 20
27.0276
 11
171.307
 21
26.1727
  0
LINE
  8
0
 10
171.307
 20
26.1727
 11
171.339
 21
26.1009
  0
LINE
  8
0
 10
171.339
 20
26.1009
 11
171.736
 21
25.3228
  0
LINE
  8
0
 10
171.736
 20
25.3228
 11
171.83
 21
25.0935
  0
LINE
  8
0
 10
171.83
 20
25.0935
 11
171.884
 21
24.8519
  0
LINE
  8
0
 10
171.884
 20
24.8519
 11
171.899
 21
24.6046
  0
LINE
  8
0
 10
171.899
 20
24.6046
 11
171.872
 21
24.3583
  0
LINE
  8
0
 10
171.872
 20
24.3583
 11
171.805
 21
24.1197
  0
LINE
  8
0
 10
171.805
 20
24.1197
 11
171.7
 21
23.8954
  0
LINE
  8
0
 10
171.7
 20
23.8954
 11
171.56
 21
23.6914
  0
LINE
  8
0
 10
171.56
 20
23.6914
 11
171.46
 21
23.5811
  0
LINE
  8
0
 10
171.46
 20
23.5811
 11
171.092
 21
23.213
  0
LINE
  8
0
 10
171.092
 20
23.213
 11
170.903
 21
23.0528
  0
LINE
  8
0
 10
170.903
 20
23.0528
 11
170.69
 21
22.926
  0
LINE
  8
0
 10
170.69
 20
22.926
 11
170.459
 21
22.836
  0
LINE
  8
0
 10
170.459
 20
22.836
 11
170.217
 21
22.7851
  0
LINE
  8
0
 10
170.217
 20
22.7851
 11
169.969
 21
22.7749
  0
LINE
  8
0
 10
169.969
 20
22.7749
 11
169.723
 21
22.8055
  0
LINE
  8
0
 10
181.152
 20
33.7563
 11
181.258
 21
33.9784
  0
LINE
  8
0
 10
181.258
 20
33.9784
 11
181.391
 21
34.1857
  0
LINE
  8
0
 10
181.391
 20
34.1857
 11
181.548
 21
34.3752
  0
LINE
  8
0
 10
181.548
 20
34.3752
 11
181.728
 21
34.5439
  0
LINE
  8
0
 10
181.728
 20
34.5439
 11
181.926
 21
34.6892
  0
LINE
  8
0
 10
181.926
 20
34.6892
 11
182.141
 21
34.809
  0
LINE
  8
0
 10
182.141
 20
34.809
 11
182.37
 21
34.9015
  0
LINE
  8
0
 10
182.37
 20
34.9015
 11
182.607
 21
34.9653
  0
LINE
  8
0
 10
182.607
 20
34.9653
 11
182.851
 21
34.9993
  0
LINE
  8
0
 10
182.851
 20
34.9993
 11
183.098
 21
35.0031
  0
LINE
  8
0
 10
183.098
 20
35.0031
 11
183.342
 21
34.9766
  0
LINE
  8
0
 10
183.342
 20
34.9766
 11
183.582
 21
34.9202
  0
LINE
  8
0
 10
183.582
 20
34.9202
 11
183.813
 21
34.8348
  0
LINE
  8
0
 10
183.813
 20
34.8348
 11
184.032
 21
34.7216
  0
LINE
  8
0
 10
184.032
 20
34.7216
 11
184.235
 21
34.5825
  0
LINE
  8
0
 10
184.235
 20
34.5825
 11
184.419
 21
34.4194
  0
LINE
  8
0
 10
184.419
 20
34.4194
 11
184.582
 21
34.2349
  0
LINE
  8
0
 10
184.582
 20
34.2349
 11
184.722
 21
34.0318
  0
LINE
  8
0
 10
184.722
 20
34.0318
 11
184.835
 21
33.813
  0
LINE
  8
0
 10
184.835
 20
33.813
 11
184.92
 21
33.5821
  0
LINE
  8
0
 10
184.92
 20
33.5821
 11
184.977
 21
33.3424
  0
LINE
  8
0
 10
184.977
 20
33.3424
 11
185.003
 21
33.0976
  0
LINE
  8
0
 10
185.003
 20
33.0976
 11
184.999
 21
32.8513
  0
LINE
  8
0
 10
184.999
 20
32.8513
 11
184.965
 21
32.6075
  0
LINE
  8
0
 10
184.965
 20
32.6075
 11
184.902
 21
32.3696
  0
LINE
  8
0
 10
184.902
 20
32.3696
 11
184.809
 21
32.1414
  0
LINE
  8
0
 10
184.809
 20
32.1414
 11
184.689
 21
31.9263
  0
LINE
  8
0
 10
184.689
 20
31.9263
 11
184.544
 21
31.7275
  0
LINE
  8
0
 10
184.544
 20
31.7275
 11
184.375
 21
31.5481
  0
LINE
  8
0
 10
184.375
 20
31.5481
 11
184.186
 21
31.3908
  0
LINE
  8
0
 10
184.186
 20
31.3908
 11
183.978
 21
31.2579
  0
LINE
  8
0
 10
183.978
 20
31.2579
 11
183.756
 21
31.1516
  0
LINE
  8
0
 10
183.756
 20
31.1516
 11
183.523
 21
31.0733
  0
LINE
  8
0
 10
183.523
 20
31.0733
 11
183.282
 21
31.0244
  0
LINE
  8
0
 10
183.282
 20
31.0244
 11
183.036
 21
31.0054
  0
LINE
  8
0
 10
183.036
 20
31.0054
 11
182.79
 21
31.0168
  0
LINE
  8
0
 10
182.79
 20
31.0168
 11
182.547
 21
31.0583
  0
LINE
  8
0
 10
182.547
 20
31.0583
 11
182.312
 21
31.1293
  0
LINE
  8
0
 10
182.312
 20
31.1293
 11
182.086
 21
31.2288
  0
LINE
  8
0
 10
182.086
 20
31.2288
 11
181.875
 21
31.3552
  0
LINE
  8
0
 10
181.875
 20
31.3552
 11
181.681
 21
31.5066
  0
LINE
  8
0
 10
181.681
 20
31.5066
 11
181.507
 21
31.6807
  0
LINE
  8
0
 10
181.507
 20
31.6807
 11
181.355
 21
31.8749
  0
LINE
  8
0
 10
181.355
 20
31.8749
 11
181.229
 21
32.0863
  0
LINE
  8
0
 10
181.229
 20
32.0863
 11
181.129
 21
32.3115
  0
LINE
  8
0
 10
181.129
 20
32.3115
 11
181.058
 21
32.5473
  0
LINE
  8
0
 10
181.058
 20
32.5473
 11
181.017
 21
32.79
  0
LINE
  8
0
 10
181.017
 20
32.79
 11
181.005
 21
33.036
  0
LINE
  8
0
 10
181.005
 20
33.036
 11
181.024
 21
33.2815
  0
LINE
  8
0
 10
181.024
 20
33.2815
 11
181.073
 21
33.5228
  0
LINE
  8
0
 10
181.073
 20
33.5228
 11
181.152
 21
33.7563
  0
LINE
  8
0
 10
71.2288
 20
32.0863
 11
71.1293
 21
32.3115
  0
LINE
  8
0
 10
71.1293
 20
32.3115
 11
71.0583
 21
32.5473
  0
LINE
  8
0
 10
71.0583
 20
32.5473
 11
71.0168
 21
32.79
  0
LINE
  8
0
 10
71.0168
 20
32.79
 11
71.0054
 21
33.036
  0
LINE
  8
0
 10
71.0054
 20
33.036
 11
71.0244
 21
33.2815
  0
LINE
  8
0
 10
71.0244
 20
33.2815
 11
71.0733
 21
33.5228
  0
LINE
  8
0
 10
71.0733
 20
33.5228
 11
71.1516
 21
33.7563
  0
LINE
  8
0
 10
71.1516
 20
33.7563
 11
71.2579
 21
33.9784
  0
LINE
  8
0
 10
71.2579
 20
33.9784
 11
71.3908
 21
34.1857
  0
LINE
  8
0
 10
71.3908
 20
34.1857
 11
71.5481
 21
34.3752
  0
LINE
  8
0
 10
71.5481
 20
34.3752
 11
71.7275
 21
34.5439
  0
LINE
  8
0
 10
71.7275
 20
34.5439
 11
71.9263
 21
34.6892
  0
LINE
  8
0
 10
71.9263
 20
34.6892
 11
72.1414
 21
34.809
  0
LINE
  8
0
 10
72.1414
 20
34.809
 11
72.3696
 21
34.9015
  0
LINE
  8
0
 10
72.3696
 20
34.9015
 11
72.6075
 21
34.9653
  0
LINE
  8
0
 10
72.6075
 20
34.9653
 11
72.8513
 21
34.9993
  0
LINE
  8
0
 10
72.8513
 20
34.9993
 11
73.0976
 21
35.0031
  0
LINE
  8
0
 10
73.0976
 20
35.0031
 11
73.3424
 21
34.9766
  0
LINE
  8
0
 10
73.3424
 20
34.9766
 11
73.5821
 21
34.9202
  0
LINE
  8
0
 10
73.5821
 20
34.9202
 11
73.813
 21
34.8348
  0
LINE
  8
0
 10
73.813
 20
34.8348
 11
74.0318
 21
34.7216
  0
LINE
  8
0
 10
74.0318
 20
34.7216
 11
74.2349
 21
34.5825
  0
LINE
  8
0
 10
74.2349
 20
34.5825
 11
74.4194
 21
34.4194
  0
LINE
  8
0
 10
74.4194
 20
34.4194
 11
74.5825
 21
34.2349
  0
LINE
  8
0
 10
74.5825
 20
34.2349
 11
74.7216
 21
34.0318
  0
LINE
  8
0
 10
74.7216
 20
34.0318
 11
74.8348
 21
33.813
  0
LINE
  8
0
 10
74.8348
 20
33.813
 11
74.9202
 21
33.5821
  0
LINE
  8
0
 10
74.9202
 20
33.5821
 11
74.9766
 21
33.3424
  0
LINE
  8
0
 10
74.9766
 20
33.3424
 11
75.0031
 21
33.0976
  0
LINE
  8
0
 10
75.0031
 20
33.0976
 11
74.9993
 21
32.8513
  0
LINE
  8
0
 10
74.9993
 20
32.8513
 11
74.9653
 21
32.6075
  0
LINE
  8
0
 10
74.9653
 20
32.6075
 11
74.9015
 21
32.3696
  0
LINE
  8
0
 10
74.9015
 20
32.3696
 11
74.809
 21
32.1414
  0
LINE
  8
0
 10
74.809
 20
32.1414
 11
74.6892
 21
31.9263
  0
LINE
  8
0
 10
74.6892
 20
31.9263
 11
74.5439
 21
31.7275
  0
LINE
  8
0
 10
74.5439
 20
31.7275
 11
74.3752
 21
31.5481
  0
LINE
  8
0
 10
74.3752
 20
31.5481
 11
74.1857
 21
31.3908
  0
LINE
  8
0
 10
74.1857
 20
31.3908
 11
73.9784
 21
31.2579
  0
LINE
  8
0
 10
73.9784
 20
31.2579
 11
73.7563
 21
31.1516
  0
LINE
  8
0
 10
73.7563
 20
31.1516
 11
73.5228
 21
31.0733
  0
LINE
  8
0
 10
73.5228
 20
31.0733
 11
73.2815
 21
31.0244
  0
LINE
  8
0
 10
73.2815
 20
31.0244
 11
73.036
 21
31.0054
  0
LINE
  8
0
 10
73.036
 20
31.0054
 11
72.79
 21
31.0168
  0
LINE
  8
0
 10
72.79
 20
31.0168
 11
72.5473
 21
31.0583
  0
LINE
  8
0
 10
72.5473
 20
31.0583
 11
72.3115
 21
31.1293
  0
LINE
  8
0
 10
72.3115
 20
31.1293
 11
72.0863
 21
31.2288
  0
LINE
  8
0
 10
72.0863
 20
31.2288
 11
71.8749
 21
31.3552
  0
LINE
  8
0
 10
71.8749
 20
31.3552
 11
71.6807
 21
31.5066
  0
LINE
  8
0
 10
71.6807
 20
31.5066
 11
71.5066
 21
31.6807
  0
LINE
  8
0
 10
71.5066
 20
31.6807
 11
71.3552
 21
31.8749
  0
LINE
  8
0
 10
71.3552
 20
31.8749
 11
71.2288
 21
32.0863
  0
LINE
  8
0
 10
71.0244
 20
26.7185
 11
71.0054
 21
26.964
  0
LINE
  8
0
 10
71.0054
 20
26.964
 11
71.0168
 21
27.21
  0
LINE
  8
0
 10
71.0168
 20
27.21
 11
71.0583
 21
27.4527
  0
LINE
  8
0
 10
71.0583
 20
27.4527
 11
71.1293
 21
27.6885
  0
LINE
  8
0
 10
71.1293
 20
27.6885
 11
71.2288
 21
27.9137
  0
LINE
  8
0
 10
71.2288
 20
27.9137
 11
71.3552
 21
28.1251
  0
LINE
  8
0
 10
71.3552
 20
28.1251
 11
71.5066
 21
28.3193
  0
LINE
  8
0
 10
71.5066
 20
28.3193
 11
71.6807
 21
28.4934
  0
LINE
  8
0
 10
71.6807
 20
28.4934
 11
71.8749
 21
28.6448
  0
LINE
  8
0
 10
71.8749
 20
28.6448
 11
72.0863
 21
28.7712
  0
LINE
  8
0
 10
72.0863
 20
28.7712
 11
72.3115
 21
28.8707
  0
LINE
  8
0
 10
72.3115
 20
28.8707
 11
72.5473
 21
28.9417
  0
LINE
  8
0
 10
72.5473
 20
28.9417
 11
72.79
 21
28.9832
  0
LINE
  8
0
 10
72.79
 20
28.9832
 11
73.036
 21
28.9946
  0
LINE
  8
0
 10
73.036
 20
28.9946
 11
73.2815
 21
28.9756
  0
LINE
  8
0
 10
73.2815
 20
28.9756
 11
73.5228
 21
28.9267
  0
LINE
  8
0
 10
73.5228
 20
28.9267
 11
73.7563
 21
28.8484
  0
LINE
  8
0
 10
73.7563
 20
28.8484
 11
73.9784
 21
28.7421
  0
LINE
  8
0
 10
73.9784
 20
28.7421
 11
74.1857
 21
28.6092
  0
LINE
  8
0
 10
74.1857
 20
28.6092
 11
74.3752
 21
28.4519
  0
LINE
  8
0
 10
74.3752
 20
28.4519
 11
74.5439
 21
28.2725
  0
LINE
  8
0
 10
74.5439
 20
28.2725
 11
74.6892
 21
28.0737
  0
LINE
  8
0
 10
74.6892
 20
28.0737
 11
74.809
 21
27.8586
  0
LINE
  8
0
 10
74.809
 20
27.8586
 11
74.9015
 21
27.6304
  0
LINE
  8
0
 10
74.9015
 20
27.6304
 11
74.9653
 21
27.3925
  0
LINE
  8
0
 10
74.9653
 20
27.3925
 11
74.9993
 21
27.1487
  0
LINE
  8
0
 10
74.9993
 20
27.1487
 11
75.0031
 21
26.9024
  0
LINE
  8
0
 10
75.0031
 20
26.9024
 11
74.9766
 21
26.6576
  0
LINE
  8
0
 10
74.9766
 20
26.6576
 11
74.9202
 21
26.4179
  0
LINE
  8
0
 10
74.9202
 20
26.4179
 11
74.8348
 21
26.187
  0
LINE
  8
0
 10
74.8348
 20
26.187
 11
74.7216
 21
25.9682
  0
LINE
  8
0
 10
74.7216
 20
25.9682
 11
74.5825
 21
25.7651
  0
LINE
  8
0
 10
74.5825
 20
25.7651
 11
74.4194
 21
25.5806
  0
LINE
  8
0
 10
74.4194
 20
25.5806
 11
74.2349
 21
25.4175
  0
LINE
  8
0
 10
74.2349
 20
25.4175
 11
74.0318
 21
25.2784
  0
LINE
  8
0
 10
74.0318
 20
25.2784
 11
73.813
 21
25.1652
  0
LINE
  8
0
 10
73.813
 20
25.1652
 11
73.5821
 21
25.0798
  0
LINE
  8
0
 10
73.5821
 20
25.0798
 11
73.3424
 21
25.0234
  0
LINE
  8
0
 10
73.3424
 20
25.0234
 11
73.0976
 21
24.9969
  0
LINE
  8
0
 10
73.0976
 20
24.9969
 11
72.8513
 21
25.0007
  0
LINE
  8
0
 10
72.8513
 20
25.0007
 11
72.6075
 21
25.0347
  0
LINE
  8
0
 10
72.6075
 20
25.0347
 11
72.3696
 21
25.0985
  0
LINE
  8
0
 10
72.3696
 20
25.0985
 11
72.1414
 21
25.191
  0
LINE
  8
0
 10
72.1414
 20
25.191
 11
71.9263
 21
25.3108
  0
LINE
  8
0
 10
71.9263
 20
25.3108
 11
71.7275
 21
25.4561
  0
LINE
  8
0
 10
71.7275
 20
25.4561
 11
71.5481
 21
25.6248
  0
LINE
  8
0
 10
71.5481
 20
25.6248
 11
71.3908
 21
25.8143
  0
LINE
  8
0
 10
71.3908
 20
25.8143
 11
71.2579
 21
26.0216
  0
LINE
  8
0
 10
71.2579
 20
26.0216
 11
71.1516
 21
26.2437
  0
LINE
  8
0
 10
71.1516
 20
26.2437
 11
71.0733
 21
26.4772
  0
LINE
  8
0
 10
71.0733
 20
26.4772
 11
71.0244
 21
26.7185
  0
LINE
  8
0
 10
181.005
 20
26.964
 11
181.017
 21
27.21
  0
LINE
  8
0
 10
181.017
 20
27.21
 11
181.058
 21
27.4527
  0
LINE
  8
0
 10
181.058
 20
27.4527
 11
181.129
 21
27.6885
  0
LINE
  8
0
 10
181.129
 20
27.6885
 11
181.229
 21
27.9137
  0
LINE
  8
0
 10
181.229
 20
27.9137
 11
181.355
 21
28.1251
  0
LINE
  8
0
 10
181.355
 20
28.1251
 11
181.507
 21
28.3193
  0
LINE
  8
0
 10
181.507
 20
28.3193
 11
181.681
 21
28.4934
  0
LINE
  8
0
 10
181.681
 20
28.4934
 11
181.875
 21
28.6448
  0
LINE
  8
0
 10
181.875
 20
28.6448
 11
182.086
 21
28.7712
  0
LINE
  8
0
 10
182.086
 20
28.7712
 11
182.312
 21
28.8707
  0
LINE
  8
0
 10
182.312
 20
28.8707
 11
182.547
 21
28.9417
  0
LINE
  8
0
 10
182.547
 20
28.9417
 11
182.79
 21
28.9832
  0
LINE
  8
0
 10
182.79
 20
28.9832
 11
183.036
 21
28.9946
  0
LINE
  8
0
 10
183.036
 20
28.9946
 11
183.282
 21
28.9756
  0
LINE
  8
0
 10
183.282
 20
28.9756
 11
183.523
 21
28.9267
  0
LINE
  8
0
 10
183.523
 20
28.9267
 11
183.756
 21
28.8484
  0
LINE
  8
0
 10
183.756
 20
28.8484
 11
183.978
 21
28.7421
  0
LINE
  8
0
 10
183.978
 20
28.7421
 11
184.186
 21
28.6092
  0
LINE
  8
0
 10
184.186
 20
28.6092
 11
184.375
 21
28.4519
  0
LINE
  8
0
 10
184.375
 20
28.4519
 11
184.544
 21
28.2725
  0
LINE
  8
0
 10
184.544
 20
28.2725
 11
184.689
 21
28.0737
  0
LINE
  8
0
 10
184.689
 20
28.0737
 11
184.809
 21
27.8586
  0
LINE
  8
0
 10
184.809
 20
27.8586
 11
184.902
 21
27.6304
  0
LINE
  8
0
 10
184.902
 20
27.6304
 11
184.965
 21
27.3925
  0
LINE
  8
0
 10
184.965
 20
27.3925
 11
184.999
 21
27.1487
  0
LINE
  8
0
 10
184.999
 20
27.1487
 11
185.003
 21
26.9024
  0
LINE
  8
0
 10
185.003
 20
26.9024
 11
184.977
 21
26.6576
  0
LINE
  8
0
 10
184.977
 20
26.6576
 11
184.92
 21
26.4179
  0
LINE
  8
0
 10
184.92
 20
26.4179
 11
184.835
 21
26.187
  0
LINE
  8
0
 10
184.835
 20
26.187
 11
184.722
 21
25.9682
  0
LINE
  8
0
 10
184.722
 20
25.9682
 11
184.582
 21
25.7651
  0
LINE
  8
0
 10
184.582
 20
25.7651
 11
184.419
 21
25.5806
  0
LINE
  8
0
 10
184.419
 20
25.5806
 11
184.235
 21
25.4175
  0
LINE
  8
0
 10
184.235
 20
25.4175
 11
184.032
 21
25.2784
  0
LINE
  8
0
 10
184.032
 20
25.2784
 11
183.813
 21
25.1652
  0
LINE
  8
0
 10
183.813
 20
25.1652
 11
183.582
 21
25.0798
  0
LINE
  8
0
 10
183.582
 20
25.0798
 11
183.342
 21
25.0234
  0
LINE
  8
0
 10
183.342
 20
25.0234
 11
183.098
 21
24.9969
  0
LINE
  8
0
 10
183.098
 20
24.9969
 11
182.851
 21
25.0007
  0
LINE
  8
0
 10
182.851
 20
25.0007
 11
182.607
 21
25.0347
  0
LINE
  8
0
 10
182.607
 20
25.0347
 11
182.37
 21
25.0985
  0
LINE
  8
0
 10
182.37
 20
25.0985
 11
182.141
 21
25.191
  0
LINE
  8
0
 10
182.141
 20
25.191
 11
181.926
 21
25.3108
  0
LINE
  8
0
 10
181.926
 20
25.3108
 11
181.728
 21
25.4561
  0
LINE
  8
0
 10
181.728
 20
25.4561
 11
181.548
 21
25.6248
  0
LINE
  8
0
 10
181.548
 20
25.6248
 11
181.391
 21
25.8143
  0
LINE
  8
0
 10
181.391
 20
25.8143
 11
181.258
 21
26.0216
  0
LINE
  8
0
 10
181.258
 20
26.0216
 11
181.152
 21
26.2437
  0
LINE
  8
0
 10
181.152
 20
26.2437
 11
181.073
 21
26.4772
  0
LINE
  8
0
 10
181.073
 20
26.4772
 11
181.024
 21
26.7185
  0
LINE
  8
0
 10
181.024
 20
26.7185
 11
181.005
 21
26.964
  0
LINE
  8
0
 10
69.9215
 20
17.0041
 11
68.7197
 21
17.0671
  0
LINE
  8
0
 10
68.7197
 20
17.0671
 11
68.5636
 21
17.0835
  0
LINE
  8
0
 10
68.5636
 20
17.0835
 11
67.3747
 21
17.2718
  0
LINE
  8
0
 10
67.3747
 20
17.2718
 11
67.2211
 21
17.3045
  0
LINE
  8
0
 10
67.2211
 20
17.3045
 11
66.0588
 21
17.6159
  0
LINE
  8
0
 10
66.0588
 20
17.6159
 11
65.9095
 21
17.6644
  0
LINE
  8
0
 10
65.9095
 20
17.6644
 11
64.7857
 21
18.0958
  0
LINE
  8
0
 10
64.7857
 20
18.0958
 11
64.6423
 21
18.1597
  0
LINE
  8
0
 10
64.6423
 20
18.1597
 11
63.5926
 21
18.6945
  0
LINE
  8
0
 10
63.5926
 20
18.6945
 11
63.3819
 21
18.8248
  0
LINE
  8
0
 10
63.3819
 20
18.8248
 11
63.1956
 21
18.988
  0
LINE
  8
0
 10
63.1956
 20
18.988
 11
63.0386
 21
19.1797
  0
LINE
  8
0
 10
63.0386
 20
19.1797
 11
62.9153
 21
19.3946
  0
LINE
  8
0
 10
62.9153
 20
19.3946
 11
62.8291
 21
19.6268
  0
LINE
  8
0
 10
62.8291
 20
19.6268
 11
62.7823
 21
19.8701
  0
LINE
  8
0
 10
62.7823
 20
19.8701
 11
62.7761
 21
20.1178
  0
LINE
  8
0
 10
62.7761
 20
20.1178
 11
62.8108
 21
20.3631
  0
LINE
  8
0
 10
62.8108
 20
20.3631
 11
62.8855
 21
20.5993
  0
LINE
  8
0
 10
62.8855
 20
20.5993
 11
62.9979
 21
20.82
  0
LINE
  8
0
 10
62.9979
 20
20.82
 11
63.213
 21
21.0916
  0
LINE
  8
0
 10
63.213
 20
21.0916
 11
63.5811
 21
21.4598
  0
LINE
  8
0
 10
63.5811
 20
21.4598
 11
63.7702
 21
21.6199
  0
LINE
  8
0
 10
63.7702
 20
21.6199
 11
63.983
 21
21.7467
  0
LINE
  8
0
 10
63.983
 20
21.7467
 11
64.2138
 21
21.8368
  0
LINE
  8
0
 10
64.2138
 20
21.8368
 11
64.4563
 21
21.8876
  0
LINE
  8
0
 10
64.4563
 20
21.8876
 11
64.7038
 21
21.8979
  0
LINE
  8
0
 10
64.7038
 20
21.8979
 11
64.9496
 21
21.8672
  0
LINE
  8
0
 10
64.9496
 20
21.8672
 11
65.1871
 21
21.7966
  0
LINE
  8
0
 10
65.1871
 20
21.7966
 11
65.3228
 21
21.7357
  0
LINE
  8
0
 10
65.3228
 20
21.7357
 11
66.1009
 21
21.3392
  0
LINE
  8
0
 10
66.1009
 20
21.3392
 11
66.1727
 21
21.3072
  0
LINE
  8
0
 10
66.1727
 20
21.3072
 11
67.0276
 21
20.9791
  0
LINE
  8
0
 10
67.0276
 20
20.9791
 11
67.1023
 21
20.9548
  0
LINE
  8
0
 10
67.1023
 20
20.9548
 11
67.9869
 21
20.7178
  0
LINE
  8
0
 10
67.9869
 20
20.7178
 11
68.0636
 21
20.7015
  0
LINE
  8
0
 10
68.0636
 20
20.7015
 11
68.9683
 21
20.5582
  0
LINE
  8
0
 10
68.9683
 20
20.5582
 11
69.0462
 21
20.55
  0
LINE
  8
0
 10
69.0462
 20
20.55
 11
69.9607
 21
20.5021
  0
LINE
  8
0
 10
69.9607
 20
20.5021
 11
70.0393
 21
20.5021
  0
LINE
  8
0
 10
70.0393
 20
20.5021
 11
70.9538
 21
20.55
  0
LINE
  8
0
 10
70.9538
 20
20.55
 11
71.0317
 21
20.5582
  0
LINE
  8
0
 10
71.0317
 20
20.5582
 11
71.9364
 21
20.7015
  0
LINE
  8
0
 10
71.9364
 20
20.7015
 11
72.0131
 21
20.7178
  0
LINE
  8
0
 10
72.0131
 20
20.7178
 11
72.8977
 21
20.9548
  0
LINE
  8
0
 10
72.8977
 20
20.9548
 11
72.9724
 21
20.9791
  0
LINE
  8
0
 10
72.9724
 20
20.9791
 11
73.8273
 21
21.3072
  0
LINE
  8
0
 10
73.8273
 20
21.3072
 11
73.8991
 21
21.3392
  0
LINE
  8
0
 10
73.8991
 20
21.3392
 11
74.6772
 21
21.7357
  0
LINE
  8
0
 10
74.6772
 20
21.7357
 11
74.9065
 21
21.8295
  0
LINE
  8
0
 10
74.9065
 20
21.8295
 11
75.1481
 21
21.8844
  0
LINE
  8
0
 10
75.1481
 20
21.8844
 11
75.3954
 21
21.8987
  0
LINE
  8
0
 10
75.3954
 20
21.8987
 11
75.6417
 21
21.8721
  0
LINE
  8
0
 10
75.6417
 20
21.8721
 11
75.8803
 21
21.8054
  0
LINE
  8
0
 10
75.8803
 20
21.8054
 11
76.1046
 21
21.7003
  0
LINE
  8
0
 10
76.1046
 20
21.7003
 11
76.3086
 21
21.5597
  0
LINE
  8
0
 10
76.3086
 20
21.5597
 11
76.4189
 21
21.4598
  0
LINE
  8
0
 10
76.4189
 20
21.4598
 11
76.787
 21
21.0916
  0
LINE
  8
0
 10
76.787
 20
21.0916
 11
76.9472
 21
20.9026
  0
LINE
  8
0
 10
76.9472
 20
20.9026
 11
77.074
 21
20.6898
  0
LINE
  8
0
 10
77.074
 20
20.6898
 11
77.164
 21
20.459
  0
LINE
  8
0
 10
77.164
 20
20.459
 11
77.2149
 21
20.2165
  0
LINE
  8
0
 10
77.2149
 20
20.2165
 11
77.2251
 21
19.969
  0
LINE
  8
0
 10
77.2251
 20
19.969
 11
77.1945
 21
19.7232
  0
LINE
  8
0
 10
77.1945
 20
19.7232
 11
77.1238
 21
19.4857
  0
LINE
  8
0
 10
77.1238
 20
19.4857
 11
77.015
 21
19.2632
  0
LINE
  8
0
 10
77.015
 20
19.2632
 11
76.871
 21
19.0615
  0
LINE
  8
0
 10
76.871
 20
19.0615
 11
76.6958
 21
18.8864
  0
LINE
  8
0
 10
76.6958
 20
18.8864
 11
76.4074
 21
18.6945
  0
LINE
  8
0
 10
76.4074
 20
18.6945
 11
75.3577
 21
18.1597
  0
LINE
  8
0
 10
75.3577
 20
18.1597
 11
75.2143
 21
18.0958
  0
LINE
  8
0
 10
75.2143
 20
18.0958
 11
74.0905
 21
17.6644
  0
LINE
  8
0
 10
74.0905
 20
17.6644
 11
73.9412
 21
17.6159
  0
LINE
  8
0
 10
73.9412
 20
17.6159
 11
72.7789
 21
17.3045
  0
LINE
  8
0
 10
72.7789
 20
17.3045
 11
72.6253
 21
17.2718
  0
LINE
  8
0
 10
72.6253
 20
17.2718
 11
71.4364
 21
17.0835
  0
LINE
  8
0
 10
71.4364
 20
17.0835
 11
71.2803
 21
17.0671
  0
LINE
  8
0
 10
71.2803
 20
17.0671
 11
70.0785
 21
17.0041
  0
LINE
  8
0
 10
70.0785
 20
17.0041
 11
69.9215
 21
17.0041
  0
LINE
  8
0
 10
179.921
 20
17.0041
 11
178.72
 21
17.0671
  0
LINE
  8
0
 10
178.72
 20
17.0671
 11
178.564
 21
17.0835
  0
LINE
  8
0
 10
178.564
 20
17.0835
 11
177.375
 21
17.2718
  0
LINE
  8
0
 10
177.375
 20
17.2718
 11
177.221
 21
17.3045
  0
LINE
  8
0
 10
177.221
 20
17.3045
 11
176.059
 21
17.6159
  0
LINE
  8
0
 10
176.059
 20
17.6159
 11
175.909
 21
17.6644
  0
LINE
  8
0
 10
175.909
 20
17.6644
 11
174.786
 21
18.0958
  0
LINE
  8
0
 10
174.786
 20
18.0958
 11
174.642
 21
18.1597
  0
LINE
  8
0
 10
174.642
 20
18.1597
 11
173.593
 21
18.6945
  0
LINE
  8
0
 10
173.593
 20
18.6945
 11
173.382
 21
18.8248
  0
LINE
  8
0
 10
173.382
 20
18.8248
 11
173.196
 21
18.988
  0
LINE
  8
0
 10
173.196
 20
18.988
 11
173.039
 21
19.1797
  0
LINE
  8
0
 10
173.039
 20
19.1797
 11
172.915
 21
19.3946
  0
LINE
  8
0
 10
172.915
 20
19.3946
 11
172.829
 21
19.6268
  0
LINE
  8
0
 10
172.829
 20
19.6268
 11
172.782
 21
19.8701
  0
LINE
  8
0
 10
172.782
 20
19.8701
 11
172.776
 21
20.1178
  0
LINE
  8
0
 10
172.776
 20
20.1178
 11
172.811
 21
20.3631
  0
LINE
  8
0
 10
172.811
 20
20.3631
 11
172.885
 21
20.5993
  0
LINE
  8
0
 10
172.885
 20
20.5993
 11
172.998
 21
20.82
  0
LINE
  8
0
 10
172.998
 20
20.82
 11
173.213
 21
21.0916
  0
LINE
  8
0
 10
173.213
 20
21.0916
 11
173.581
 21
21.4598
  0
LINE
  8
0
 10
173.581
 20
21.4598
 11
173.77
 21
21.6199
  0
LINE
  8
0
 10
173.77
 20
21.6199
 11
173.983
 21
21.7467
  0
LINE
  8
0
 10
173.983
 20
21.7467
 11
174.214
 21
21.8368
  0
LINE
  8
0
 10
174.214
 20
21.8368
 11
174.456
 21
21.8876
  0
LINE
  8
0
 10
174.456
 20
21.8876
 11
174.704
 21
21.8979
  0
LINE
  8
0
 10
174.704
 20
21.8979
 11
174.95
 21
21.8672
  0
LINE
  8
0
 10
174.95
 20
21.8672
 11
175.187
 21
21.7966
  0
LINE
  8
0
 10
175.187
 20
21.7966
 11
175.323
 21
21.7357
  0
LINE
  8
0
 10
175.323
 20
21.7357
 11
176.101
 21
21.3392
  0
LINE
  8
0
 10
176.101
 20
21.3392
 11
176.173
 21
21.3072
  0
LINE
  8
0
 10
176.173
 20
21.3072
 11
177.028
 21
20.9791
  0
LINE
  8
0
 10
177.028
 20
20.9791
 11
177.102
 21
20.9548
  0
LINE
  8
0
 10
177.102
 20
20.9548
 11
177.987
 21
20.7178
  0
LINE
  8
0
 10
177.987
 20
20.7178
 11
178.064
 21
20.7015
  0
LINE
  8
0
 10
178.064
 20
20.7015
 11
178.968
 21
20.5582
  0
LINE
  8
0
 10
178.968
 20
20.5582
 11
179.046
 21
20.55
  0
LINE
  8
0
 10
179.046
 20
20.55
 11
179.961
 21
20.5021
  0
LINE
  8
0
 10
179.961
 20
20.5021
 11
180.039
 21
20.5021
  0
LINE
  8
0
 10
180.039
 20
20.5021
 11
180.954
 21
20.55
  0
LINE
  8
0
 10
180.954
 20
20.55
 11
181.032
 21
20.5582
  0
LINE
  8
0
 10
181.032
 20
20.5582
 11
181.936
 21
20.7015
  0
LINE
  8
0
 10
181.936
 20
20.7015
 11
182.013
 21
20.7178
  0
LINE
  8
0
 10
182.013
 20
20.7178
 11
182.898
 21
20.9548
  0
LINE
  8
0
 10
182.898
 20
20.9548
 11
182.972
 21
20.9791
  0
LINE
  8
0
 10
182.972
 20
20.9791
 11
183.827
 21
21.3072
  0
LINE
  8
0
 10
183.827
 20
21.3072
 11
183.899
 21
21.3392
  0
LINE
  8
0
 10
183.899
 20
21.3392
 11
184.677
 21
21.7357
  0
LINE
  8
0
 10
184.677
 20
21.7357
 11
184.906
 21
21.8295
  0
LINE
  8
0
 10
184.906
 20
21.8295
 11
185.148
 21
21.8844
  0
LINE
  8
0
 10
185.148
 20
21.8844
 11
185.395
 21
21.8987
  0
LINE
  8
0
 10
185.395
 20
21.8987
 11
185.642
 21
21.8721
  0
LINE
  8
0
 10
185.642
 20
21.8721
 11
185.88
 21
21.8054
  0
LINE
  8
0
 10
185.88
 20
21.8054
 11
186.105
 21
21.7003
  0
LINE
  8
0
 10
186.105
 20
21.7003
 11
186.309
 21
21.5597
  0
LINE
  8
0
 10
186.309
 20
21.5597
 11
186.419
 21
21.4598
  0
LINE
  8
0
 10
186.419
 20
21.4598
 11
186.787
 21
21.0916
  0
LINE
  8
0
 10
186.787
 20
21.0916
 11
186.947
 21
20.9026
  0
LINE
  8
0
 10
186.947
 20
20.9026
 11
187.074
 21
20.6898
  0
LINE
  8
0
 10
187.074
 20
20.6898
 11
187.164
 21
20.459
  0
LINE
  8
0
 10
187.164
 20
20.459
 11
187.215
 21
20.2165
  0
LINE
  8
0
 10
187.215
 20
20.2165
 11
187.225
 21
19.969
  0
LINE
  8
0
 10
187.225
 20
19.969
 11
187.194
 21
19.7232
  0
LINE
  8
0
 10
187.194
 20
19.7232
 11
187.124
 21
19.4857
  0
LINE
  8
0
 10
187.124
 20
19.4857
 11
187.015
 21
19.2632
  0
LINE
  8
0
 10
187.015
 20
19.2632
 11
186.871
 21
19.0615
  0
LINE
  8
0
 10
186.871
 20
19.0615
 11
186.696
 21
18.8864
  0
LINE
  8
0
 10
186.696
 20
18.8864
 11
186.407
 21
18.6945
  0
LINE
  8
0
 10
186.407
 20
18.6945
 11
185.358
 21
18.1597
  0
LINE
  8
0
 10
185.358
 20
18.1597
 11
185.214
 21
18.0958
  0
LINE
  8
0
 10
185.214
 20
18.0958
 11
184.091
 21
17.6644
  0
LINE
  8
0
 10
184.091
 20
17.6644
 11
183.941
 21
17.6159
  0
LINE
  8
0
 10
183.941
 20
17.6159
 11
182.779
 21
17.3045
  0
LINE
  8
0
 10
182.779
 20
17.3045
 11
182.625
 21
17.2718
  0
LINE
  8
0
 10
182.625
 20
17.2718
 11
181.436
 21
17.0835
  0
LINE
  8
0
 10
181.436
 20
17.0835
 11
181.28
 21
17.0671
  0
LINE
  8
0
 10
181.28
 20
17.0671
 11
180.079
 21
17.0041
  0
LINE
  8
0
 10
180.079
 20
17.0041
 11
179.921
 21
17.0041
  0
LINE
  8
0
 10
179.921
 20
11.5041
 11
178.145
 21
11.5972
  0
LINE
  8
0
 10
178.145
 20
11.5972
 11
177.989
 21
11.6136
  0
LINE
  8
0
 10
177.989
 20
11.6136
 11
176.231
 21
11.892
  0
LINE
  8
0
 10
176.231
 20
11.892
 11
176.078
 21
11.9246
  0
LINE
  8
0
 10
176.078
 20
11.9246
 11
174.359
 21
12.3851
  0
LINE
  8
0
 10
174.359
 20
12.3851
 11
174.21
 21
12.4336
  0
LINE
  8
0
 10
174.21
 20
12.4336
 11
172.549
 21
13.0712
  0
LINE
  8
0
 10
172.549
 20
13.0712
 11
172.405
 21
13.1351
  0
LINE
  8
0
 10
172.405
 20
13.1351
 11
170.82
 21
13.9429
  0
LINE
  8
0
 10
170.82
 20
13.9429
 11
170.684
 21
14.0214
  0
LINE
  8
0
 10
170.684
 20
14.0214
 11
169.484
 21
14.8005
  0
LINE
  8
0
 10
169.484
 20
14.8005
 11
169.288
 21
14.9522
  0
LINE
  8
0
 10
169.288
 20
14.9522
 11
169.12
 21
15.134
  0
LINE
  8
0
 10
169.12
 20
15.134
 11
168.984
 21
15.341
  0
LINE
  8
0
 10
168.984
 20
15.341
 11
168.884
 21
15.5676
  0
LINE
  8
0
 10
168.884
 20
15.5676
 11
168.822
 21
15.8076
  0
LINE
  8
0
 10
168.822
 20
15.8076
 11
168.801
 21
16.0544
  0
LINE
  8
0
 10
168.801
 20
16.0544
 11
168.821
 21
16.3014
  0
LINE
  8
0
 10
168.821
 20
16.3014
 11
168.881
 21
16.5417
  0
LINE
  8
0
 10
168.881
 20
16.5417
 11
168.98
 21
16.7688
  0
LINE
  8
0
 10
168.98
 20
16.7688
 11
169.115
 21
16.9766
  0
LINE
  8
0
 10
169.115
 20
16.9766
 11
169.241
 21
17.1192
  0
LINE
  8
0
 10
169.241
 20
17.1192
 11
169.599
 21
17.4772
  0
LINE
  8
0
 10
169.599
 20
17.4772
 11
169.788
 21
17.6373
  0
LINE
  8
0
 10
169.788
 20
17.6373
 11
170
 21
17.7641
  0
LINE
  8
0
 10
170
 20
17.7641
 11
170.231
 21
17.8542
  0
LINE
  8
0
 10
170.231
 20
17.8542
 11
170.474
 21
17.905
  0
LINE
  8
0
 10
170.474
 20
17.905
 11
170.721
 21
17.9153
  0
LINE
  8
0
 10
170.721
 20
17.9153
 11
170.967
 21
17.8846
  0
LINE
  8
0
 10
170.967
 20
17.8846
 11
171.204
 21
17.8139
  0
LINE
  8
0
 10
171.204
 20
17.8139
 11
171.476
 21
17.6745
  0
LINE
  8
0
 10
171.476
 20
17.6745
 11
172.467
 21
17.031
  0
LINE
  8
0
 10
172.467
 20
17.031
 11
172.535
 21
16.9918
  0
LINE
  8
0
 10
172.535
 20
16.9918
 11
173.864
 21
16.3147
  0
LINE
  8
0
 10
173.864
 20
16.3147
 11
173.936
 21
16.2827
  0
LINE
  8
0
 10
173.936
 20
16.2827
 11
175.328
 21
15.7483
  0
LINE
  8
0
 10
175.328
 20
15.7483
 11
175.403
 21
15.7239
  0
LINE
  8
0
 10
175.403
 20
15.7239
 11
176.843
 21
15.338
  0
LINE
  8
0
 10
176.843
 20
15.338
 11
176.92
 21
15.3216
  0
LINE
  8
0
 10
176.92
 20
15.3216
 11
178.393
 21
15.0883
  0
LINE
  8
0
 10
178.393
 20
15.0883
 11
178.471
 21
15.0801
  0
LINE
  8
0
 10
178.471
 20
15.0801
 11
179.961
 21
15.0021
  0
LINE
  8
0
 10
179.961
 20
15.0021
 11
180.039
 21
15.0021
  0
LINE
  8
0
 10
180.039
 20
15.0021
 11
181.529
 21
15.0801
  0
LINE
  8
0
 10
181.529
 20
15.0801
 11
181.607
 21
15.0883
  0
LINE
  8
0
 10
181.607
 20
15.0883
 11
183.08
 21
15.3216
  0
LINE
  8
0
 10
183.08
 20
15.3216
 11
183.157
 21
15.338
  0
LINE
  8
0
 10
183.157
 20
15.338
 11
184.597
 21
15.7239
  0
LINE
  8
0
 10
184.597
 20
15.7239
 11
184.672
 21
15.7483
  0
LINE
  8
0
 10
184.672
 20
15.7483
 11
186.064
 21
16.2827
  0
LINE
  8
0
 10
186.064
 20
16.2827
 11
186.136
 21
16.3147
  0
LINE
  8
0
 10
186.136
 20
16.3147
 11
187.465
 21
16.9918
  0
LINE
  8
0
 10
187.465
 20
16.9918
 11
187.533
 21
17.031
  0
LINE
  8
0
 10
187.533
 20
17.031
 11
188.524
 21
17.6745
  0
LINE
  8
0
 10
188.524
 20
17.6745
 11
188.742
 21
17.7919
  0
LINE
  8
0
 10
188.742
 20
17.7919
 11
188.977
 21
17.8716
  0
LINE
  8
0
 10
188.977
 20
17.8716
 11
189.221
 21
17.9117
  0
LINE
  8
0
 10
189.221
 20
17.9117
 11
189.469
 21
17.9111
  0
LINE
  8
0
 10
189.469
 20
17.9111
 11
189.713
 21
17.8696
  0
LINE
  8
0
 10
189.713
 20
17.8696
 11
189.947
 21
17.7885
  0
LINE
  8
0
 10
189.947
 20
17.7885
 11
190.165
 21
17.67
  0
LINE
  8
0
 10
190.165
 20
17.67
 11
190.401
 21
17.4772
  0
LINE
  8
0
 10
190.401
 20
17.4772
 11
190.759
 21
17.1192
  0
LINE
  8
0
 10
190.759
 20
17.1192
 11
190.92
 21
16.9302
  0
LINE
  8
0
 10
190.92
 20
16.9302
 11
191.046
 21
16.7173
  0
LINE
  8
0
 10
191.046
 20
16.7173
 11
191.136
 21
16.4866
  0
LINE
  8
0
 10
191.136
 20
16.4866
 11
191.187
 21
16.2441
  0
LINE
  8
0
 10
191.187
 20
16.2441
 11
191.198
 21
15.9966
  0
LINE
  8
0
 10
191.198
 20
15.9966
 11
191.167
 21
15.7507
  0
LINE
  8
0
 10
191.167
 20
15.7507
 11
191.096
 21
15.5133
  0
LINE
  8
0
 10
191.096
 20
15.5133
 11
190.987
 21
15.2907
  0
LINE
  8
0
 10
190.987
 20
15.2907
 11
190.843
 21
15.0891
  0
LINE
  8
0
 10
190.843
 20
15.0891
 11
190.668
 21
14.9139
  0
LINE
  8
0
 10
190.668
 20
14.9139
 11
190.516
 21
14.8005
  0
LINE
  8
0
 10
190.516
 20
14.8005
 11
189.316
 21
14.0214
  0
LINE
  8
0
 10
189.316
 20
14.0214
 11
189.18
 21
13.9429
  0
LINE
  8
0
 10
189.18
 20
13.9429
 11
187.595
 21
13.1351
  0
LINE
  8
0
 10
187.595
 20
13.1351
 11
187.451
 21
13.0712
  0
LINE
  8
0
 10
187.451
 20
13.0712
 11
185.79
 21
12.4336
  0
LINE
  8
0
 10
185.79
 20
12.4336
 11
185.641
 21
12.3851
  0
LINE
  8
0
 10
185.641
 20
12.3851
 11
183.922
 21
11.9246
  0
LINE
  8
0
 10
183.922
 20
11.9246
 11
183.769
 21
11.892
  0
LINE
  8
0
 10
183.769
 20
11.892
 11
182.011
 21
11.6136
  0
LINE
  8
0
 10
182.011
 20
11.6136
 11
181.855
 21
11.5972
  0
LINE
  8
0
 10
181.855
 20
11.5972
 11
180.079
 21
11.5041
  0
LINE
  8
0
 10
180.079
 20
11.5041
 11
179.921
 21
11.5041
  0
LINE
  8
0
 10
69.9215
 20
11.5041
 11
68.1448
 21
11.5972
  0
LINE
  8
0
 10
68.1448
 20
11.5972
 11
67.9887
 21
11.6136
  0
LINE
  8
0
 10
67.9887
 20
11.6136
 11
66.2313
 21
11.892
  0
LINE
  8
0
 10
66.2313
 20
11.892
 11
66.0777
 21
11.9246
  0
LINE
  8
0
 10
66.0777
 20
11.9246
 11
64.3591
 21
12.3851
  0
LINE
  8
0
 10
64.3591
 20
12.3851
 11
64.2098
 21
12.4336
  0
LINE
  8
0
 10
64.2098
 20
12.4336
 11
62.5488
 21
13.0712
  0
LINE
  8
0
 10
62.5488
 20
13.0712
 11
62.4053
 21
13.1351
  0
LINE
  8
0
 10
62.4053
 20
13.1351
 11
60.82
 21
13.9429
  0
LINE
  8
0
 10
60.82
 20
13.9429
 11
60.6841
 21
14.0214
  0
LINE
  8
0
 10
60.6841
 20
14.0214
 11
59.4842
 21
14.8005
  0
LINE
  8
0
 10
59.4842
 20
14.8005
 11
59.2883
 21
14.9522
  0
LINE
  8
0
 10
59.2883
 20
14.9522
 11
59.12
 21
15.134
  0
LINE
  8
0
 10
59.12
 20
15.134
 11
58.9839
 21
15.341
  0
LINE
  8
0
 10
58.9839
 20
15.341
 11
58.8838
 21
15.5676
  0
LINE
  8
0
 10
58.8838
 20
15.5676
 11
58.8223
 21
15.8076
  0
LINE
  8
0
 10
58.8223
 20
15.8076
 11
58.8012
 21
16.0544
  0
LINE
  8
0
 10
58.8012
 20
16.0544
 11
58.821
 21
16.3014
  0
LINE
  8
0
 10
58.821
 20
16.3014
 11
58.8811
 21
16.5417
  0
LINE
  8
0
 10
58.8811
 20
16.5417
 11
58.98
 21
16.7688
  0
LINE
  8
0
 10
58.98
 20
16.7688
 11
59.1149
 21
16.9766
  0
LINE
  8
0
 10
59.1149
 20
16.9766
 11
59.2405
 21
17.1192
  0
LINE
  8
0
 10
59.2405
 20
17.1192
 11
59.5985
 21
17.4772
  0
LINE
  8
0
 10
59.5985
 20
17.4772
 11
59.7876
 21
17.6373
  0
LINE
  8
0
 10
59.7876
 20
17.6373
 11
60.0004
 21
17.7641
  0
LINE
  8
0
 10
60.0004
 20
17.7641
 11
60.2312
 21
17.8542
  0
LINE
  8
0
 10
60.2312
 20
17.8542
 11
60.4736
 21
17.905
  0
LINE
  8
0
 10
60.4736
 20
17.905
 11
60.7211
 21
17.9153
  0
LINE
  8
0
 10
60.7211
 20
17.9153
 11
60.967
 21
17.8846
  0
LINE
  8
0
 10
60.967
 20
17.8846
 11
61.2044
 21
17.8139
  0
LINE
  8
0
 10
61.2044
 20
17.8139
 11
61.4761
 21
17.6745
  0
LINE
  8
0
 10
61.4761
 20
17.6745
 11
62.467
 21
17.031
  0
LINE
  8
0
 10
62.467
 20
17.031
 11
62.535
 21
16.9918
  0
LINE
  8
0
 10
62.535
 20
16.9918
 11
63.864
 21
16.3147
  0
LINE
  8
0
 10
63.864
 20
16.3147
 11
63.9357
 21
16.2827
  0
LINE
  8
0
 10
63.9357
 20
16.2827
 11
65.328
 21
15.7483
  0
LINE
  8
0
 10
65.328
 20
15.7483
 11
65.4029
 21
15.7239
  0
LINE
  8
0
 10
65.4029
 20
15.7239
 11
66.8432
 21
15.338
  0
LINE
  8
0
 10
66.8432
 20
15.338
 11
66.9202
 21
15.3216
  0
LINE
  8
0
 10
66.9202
 20
15.3216
 11
68.3933
 21
15.0883
  0
LINE
  8
0
 10
68.3933
 20
15.0883
 11
68.4714
 21
15.0801
  0
LINE
  8
0
 10
68.4714
 20
15.0801
 11
69.9607
 21
15.0021
  0
LINE
  8
0
 10
69.9607
 20
15.0021
 11
70.0393
 21
15.0021
  0
LINE
  8
0
 10
70.0393
 20
15.0021
 11
71.5286
 21
15.0801
  0
LINE
  8
0
 10
71.5286
 20
15.0801
 11
71.6067
 21
15.0883
  0
LINE
  8
0
 10
71.6067
 20
15.0883
 11
73.0798
 21
15.3216
  0
LINE
  8
0
 10
73.0798
 20
15.3216
 11
73.1568
 21
15.338
  0
LINE
  8
0
 10
73.1568
 20
15.338
 11
74.5971
 21
15.7239
  0
LINE
  8
0
 10
74.5971
 20
15.7239
 11
74.672
 21
15.7483
  0
LINE
  8
0
 10
74.672
 20
15.7483
 11
76.0643
 21
16.2827
  0
LINE
  8
0
 10
76.0643
 20
16.2827
 11
76.136
 21
16.3147
  0
LINE
  8
0
 10
76.136
 20
16.3147
 11
77.465
 21
16.9918
  0
LINE
  8
0
 10
77.465
 20
16.9918
 11
77.533
 21
17.031
  0
LINE
  8
0
 10
77.533
 20
17.031
 11
78.5239
 21
17.6745
  0
LINE
  8
0
 10
78.5239
 20
17.6745
 11
78.7421
 21
17.7919
  0
LINE
  8
0
 10
78.7421
 20
17.7919
 11
78.9766
 21
17.8716
  0
LINE
  8
0
 10
78.9766
 20
17.8716
 11
79.2211
 21
17.9117
  0
LINE
  8
0
 10
79.2211
 20
17.9117
 11
79.4688
 21
17.9111
  0
LINE
  8
0
 10
79.4688
 20
17.9111
 11
79.7131
 21
17.8696
  0
LINE
  8
0
 10
79.7131
 20
17.8696
 11
79.9472
 21
17.7885
  0
LINE
  8
0
 10
79.9472
 20
17.7885
 11
80.1647
 21
17.67
  0
LINE
  8
0
 10
80.1647
 20
17.67
 11
80.4015
 21
17.4772
  0
LINE
  8
0
 10
80.4015
 20
17.4772
 11
80.7595
 21
17.1192
  0
LINE
  8
0
 10
80.7595
 20
17.1192
 11
80.9196
 21
16.9302
  0
LINE
  8
0
 10
80.9196
 20
16.9302
 11
81.0464
 21
16.7173
  0
LINE
  8
0
 10
81.0464
 20
16.7173
 11
81.1365
 21
16.4866
  0
LINE
  8
0
 10
81.1365
 20
16.4866
 11
81.1873
 21
16.2441
  0
LINE
  8
0
 10
81.1873
 20
16.2441
 11
81.1975
 21
15.9966
  0
LINE
  8
0
 10
81.1975
 20
15.9966
 11
81.1669
 21
15.7507
  0
LINE
  8
0
 10
81.1669
 20
15.7507
 11
81.0962
 21
15.5133
  0
LINE
  8
0
 10
81.0962
 20
15.5133
 11
80.9874
 21
15.2907
  0
LINE
  8
0
 10
80.9874
 20
15.2907
 11
80.8434
 21
15.0891
  0
LINE
  8
0
 10
80.8434
 20
15.0891
 11
80.6683
 21
14.9139
  0
LINE
  8
0
 10
80.6683
 20
14.9139
 11
80.5158
 21
14.8005
  0
LINE
  8
0
 10
80.5158
 20
14.8005
 11
79.3159
 21
14.0214
  0
LINE
  8
0
 10
79.3159
 20
14.0214
 11
79.18
 21
13.9429
  0
LINE
  8
0
 10
79.18
 20
13.9429
 11
77.5947
 21
13.1351
  0
LINE
  8
0
 10
77.5947
 20
13.1351
 11
77.4512
 21
13.0712
  0
LINE
  8
0
 10
77.4512
 20
13.0712
 11
75.7902
 21
12.4336
  0
LINE
  8
0
 10
75.7902
 20
12.4336
 11
75.6409
 21
12.3851
  0
LINE
  8
0
 10
75.6409
 20
12.3851
 11
73.9223
 21
11.9246
  0
LINE
  8
0
 10
73.9223
 20
11.9246
 11
73.7687
 21
11.892
  0
LINE
  8
0
 10
73.7687
 20
11.892
 11
72.0113
 21
11.6136
  0
LINE
  8
0
 10
72.0113
 20
11.6136
 11
71.8552
 21
11.5972
  0
LINE
  8
0
 10
71.8552
 20
11.5972
 11
70.0785
 21
11.5041
  0
LINE
  8
0
 10
70.0785
 20
11.5041
 11
69.9215
 21
11.5041
  0
LINE
  8
0
 10
4.31406
 20
13.3102
 11
4.07001
 21
13.3553
  0
LINE
  8
0
 10
4.07001
 20
13.3553
 11
3.83511
 21
13.4354
  0
LINE
  8
0
 10
3.83511
 20
13.4354
 11
3.6144
 21
13.5489
  0
LINE
  8
0
 10
3.6144
 20
13.5489
 11
3.41255
 21
13.6933
  0
LINE
  8
0
 10
3.41255
 20
13.6933
 11
3.23389
 21
13.8656
  0
LINE
  8
0
 10
3.23389
 20
13.8656
 11
3.0822
 21
14.062
  0
LINE
  8
0
 10
3.0822
 20
14.062
 11
2.96072
 21
14.2784
  0
LINE
  8
0
 10
2.96072
 20
14.2784
 11
2.87207
 21
14.5102
  0
LINE
  8
0
 10
2.87207
 20
14.5102
 11
2.81812
 21
14.7525
  0
LINE
  8
0
 10
2.81812
 20
14.7525
 11
2.79999
 21
15
  0
LINE
  8
0
 10
2.79999
 20
15
 11
2.81812
 21
15.2475
  0
LINE
  8
0
 10
2.81812
 20
15.2475
 11
2.87207
 21
15.4898
  0
LINE
  8
0
 10
2.87207
 20
15.4898
 11
2.96072
 21
15.7216
  0
LINE
  8
0
 10
2.96072
 20
15.7216
 11
3.0822
 21
15.938
  0
LINE
  8
0
 10
3.0822
 20
15.938
 11
3.23389
 21
16.1344
  0
LINE
  8
0
 10
3.23389
 20
16.1344
 11
3.41255
 21
16.3067
  0
LINE
  8
0
 10
3.41255
 20
16.3067
 11
3.6144
 21
16.4511
  0
LINE
  8
0
 10
3.6144
 20
16.4511
 11
3.83511
 21
16.5646
  0
LINE
  8
0
 10
3.83511
 20
16.5646
 11
4.07001
 21
16.6447
  0
LINE
  8
0
 10
4.07001
 20
16.6447
 11
4.31406
 21
16.6898
  0
LINE
  8
0
 10
4.31406
 20
16.6898
 11
4.56209
 21
16.6989
  0
LINE
  8
0
 10
4.56209
 20
16.6989
 11
4.80878
 21
16.6717
  0
LINE
  8
0
 10
4.80878
 20
16.6717
 11
5.04889
 21
16.6089
  0
LINE
  8
0
 10
5.04889
 20
16.6089
 11
5.2773
 21
16.5119
  0
LINE
  8
0
 10
5.2773
 20
16.5119
 11
5.48915
 21
16.3826
  0
LINE
  8
0
 10
5.48915
 20
16.3826
 11
5.67992
 21
16.2238
  0
LINE
  8
0
 10
5.67992
 20
16.2238
 11
5.84554
 21
16.039
  0
LINE
  8
0
 10
5.84554
 20
16.039
 11
5.98248
 21
15.832
  0
LINE
  8
0
 10
5.98248
 20
15.832
 11
6.08781
 21
15.6073
  0
LINE
  8
0
 10
6.08781
 20
15.6073
 11
6.15932
 21
15.3696
  0
LINE
  8
0
 10
6.15932
 20
15.3696
 11
6.19547
 21
15.1241
  0
LINE
  8
0
 10
6.19547
 20
15.1241
 11
6.19547
 21
14.8759
  0
LINE
  8
0
 10
6.19547
 20
14.8759
 11
6.15932
 21
14.6304
  0
LINE
  8
0
 10
6.15932
 20
14.6304
 11
6.08781
 21
14.3927
  0
LINE
  8
0
 10
6.08781
 20
14.3927
 11
5.98248
 21
14.168
  0
LINE
  8
0
 10
5.98248
 20
14.168
 11
5.84554
 21
13.961
  0
LINE
  8
0
 10
5.84554
 20
13.961
 11
5.67992
 21
13.7762
  0
LINE
  8
0
 10
5.67992
 20
13.7762
 11
5.48915
 21
13.6174
  0
LINE
  8
0
 10
5.48915
 20
13.6174
 11
5.2773
 21
13.4881
  0
LINE
  8
0
 10
5.2773
 20
13.4881
 11
5.04889
 21
13.3911
  0
LINE
  8
0
 10
5.04889
 20
13.3911
 11
4.80878
 21
13.3283
  0
LINE
  8
0
 10
4.80878
 20
13.3283
 11
4.56209
 21
13.3011
  0
LINE
  8
0
 10
4.56209
 20
13.3011
 11
4.31406
 21
13.3102
  0
LINE
  8
0
 10
234.091
 20
13.3283
 11
233.851
 21
13.3911
  0
LINE
  8
0
 10
233.851
 20
13.3911
 11
233.623
 21
13.4881
  0
LINE
  8
0
 10
233.623
 20
13.4881
 11
233.411
 21
13.6174
  0
LINE
  8
0
 10
233.411
 20
13.6174
 11
233.22
 21
13.7762
  0
LINE
  8
0
 10
233.22
 20
13.7762
 11
233.054
 21
13.961
  0
LINE
  8
0
 10
233.054
 20
13.961
 11
232.918
 21
14.168
  0
LINE
  8
0
 10
232.918
 20
14.168
 11
232.812
 21
14.3927
  0
LINE
  8
0
 10
232.812
 20
14.3927
 11
232.741
 21
14.6304
  0
LINE
  8
0
 10
232.741
 20
14.6304
 11
232.705
 21
14.8759
  0
LINE
  8
0
 10
232.705
 20
14.8759
 11
232.705
 21
15.1241
  0
LINE
  8
0
 10
232.705
 20
15.1241
 11
232.741
 21
15.3696
  0
LINE
  8
0
 10
232.741
 20
15.3696
 11
232.812
 21
15.6073
  0
LINE
  8
0
 10
232.812
 20
15.6073
 11
232.918
 21
15.832
  0
LINE
  8
0
 10
232.918
 20
15.832
 11
233.054
 21
16.039
  0
LINE
  8
0
 10
233.054
 20
16.039
 11
233.22
 21
16.2238
  0
LINE
  8
0
 10
233.22
 20
16.2238
 11
233.411
 21
16.3826
  0
LINE
  8
0
 10
233.411
 20
16.3826
 11
233.623
 21
16.5119
  0
LINE
  8
0
 10
233.623
 20
16.5119
 11
233.851
 21
16.6089
  0
LINE
  8
0
 10
233.851
 20
16.6089
 11
234.091
 21
16.6717
  0
LINE
  8
0
 10
234.091
 20
16.6717
 11
234.338
 21
16.6989
  0
LINE
  8
0
 10
234.338
 20
16.6989
 11
234.586
 21
16.6898
  0
LINE
  8
0
 10
234.586
 20
16.6898
 11
234.83
 21
16.6447
  0
LINE
  8
0
 10
234.83
 20
16.6447
 11
235.065
 21
16.5646
  0
LINE
  8
0
 10
235.065
 20
16.5646
 11
235.286
 21
16.4511
  0
LINE
  8
0
 10
235.286
 20
16.4511
 11
235.487
 21
16.3067
  0
LINE
  8
0
 10
235.487
 20
16.3067
 11
235.666
 21
16.1344
  0
LINE
  8
0
 10
235.666
 20
16.1344
 11
235.818
 21
15.938
  0
LINE
  8
0
 10
235.818
 20
15.938
 11
235.939
 21
15.7216
  0
LINE
  8
0
 10
235.939
 20
15.7216
 11
236.028
 21
15.4898
  0
LINE
  8
0
 10
236.028
 20
15.4898
 11
236.082
 21
15.2475
  0
LINE
  8
0
 10
236.082
 20
15.2475
 11
236.1
 21
15
  0
LINE
  8
0
 10
236.1
 20
15
 11
236.082
 21
14.7525
  0
LINE
  8
0
 10
236.082
 20
14.7525
 11
236.028
 21
14.5102
  0
LINE
  8
0
 10
236.028
 20
14.5102
 11
235.939
 21
14.2784
  0
LINE
  8
0
 10
235.939
 20
14.2784
 11
235.818
 21
14.062
  0
LINE
  8
0
 10
235.818
 20
14.062
 11
235.666
 21
13.8656
  0
LINE
  8
0
 10
235.666
 20
13.8656
 11
235.487
 21
13.6933
  0
LINE
  8
0
 10
235.487
 20
13.6933
 11
235.286
 21
13.5489
  0
LINE
  8
0
 10
235.286
 20
13.5489
 11
235.065
 21
13.4354
  0
LINE
  8
0
 10
235.065
 20
13.4354
 11
234.83
 21
13.3553
  0
LINE
  8
0
 10
234.83
 20
13.3553
 11
234.586
 21
13.3102
  0
LINE
  8
0
 10
234.586
 20
13.3102
 11
234.338
 21
13.3011
  0
LINE
  8
0
 10
234.338
 20
13.3011
 11
234.091
 21
13.3283
  0
LINE
  8
0
 10
195.876
 20
12.35
 11
195.632
 21
12.3869
  0
LINE
  8
0
 10
195.632
 20
12.3869
 11
195.395
 21
12.4598
  0
LINE
  8
0
 10
195.395
 20
12.4598
 11
195.173
 21
12.5671
  0
LINE
  8
0
 10
195.173
 20
12.5671
 11
194.968
 21
12.7064
  0
LINE
  8
0
 10
194.968
 20
12.7064
 11
194.787
 21
12.8746
  0
LINE
  8
0
 10
194.787
 20
12.8746
 11
194.633
 21
13.0679
  0
LINE
  8
0
 10
194.633
 20
13.0679
 11
194.509
 21
13.2821
  0
LINE
  8
0
 10
194.509
 20
13.2821
 11
194.419
 21
13.5123
  0
LINE
  8
0
 10
194.419
 20
13.5123
 11
194.364
 21
13.7534
  0
LINE
  8
0
 10
194.364
 20
13.7534
 11
194.345
 21
14
  0
LINE
  8
0
 10
194.345
 20
14
 11
194.364
 21
14.2466
  0
LINE
  8
0
 10
194.364
 20
14.2466
 11
194.419
 21
14.4877
  0
LINE
  8
0
 10
194.419
 20
14.4877
 11
194.509
 21
14.7179
  0
LINE
  8
0
 10
194.509
 20
14.7179
 11
194.633
 21
14.9321
  0
LINE
  8
0
 10
194.633
 20
14.9321
 11
194.787
 21
15.1254
  0
LINE
  8
0
 10
194.787
 20
15.1254
 11
194.968
 21
15.2936
  0
LINE
  8
0
 10
194.968
 20
15.2936
 11
195.173
 21
15.433
  0
LINE
  8
0
 10
195.173
 20
15.433
 11
195.395
 21
15.5403
  0
LINE
  8
0
 10
195.395
 20
15.5403
 11
195.632
 21
15.6131
  0
LINE
  8
0
 10
195.632
 20
15.6131
 11
195.876
 21
15.65
  0
LINE
  8
0
 10
195.876
 20
15.65
 11
196.124
 21
15.65
  0
LINE
  8
0
 10
196.124
 20
15.65
 11
196.368
 21
15.6131
  0
LINE
  8
0
 10
196.368
 20
15.6131
 11
196.604
 21
15.5403
  0
LINE
  8
0
 10
196.604
 20
15.5403
 11
196.827
 21
15.433
  0
LINE
  8
0
 10
196.827
 20
15.433
 11
197.032
 21
15.2936
  0
LINE
  8
0
 10
197.032
 20
15.2936
 11
197.213
 21
15.1254
  0
LINE
  8
0
 10
197.213
 20
15.1254
 11
197.367
 21
14.9321
  0
LINE
  8
0
 10
197.367
 20
14.9321
 11
197.491
 21
14.7179
  0
LINE
  8
0
 10
197.491
 20
14.7179
 11
197.581
 21
14.4877
  0
LINE
  8
0
 10
197.581
 20
14.4877
 11
197.636
 21
14.2466
  0
LINE
  8
0
 10
197.636
 20
14.2466
 11
197.655
 21
14
  0
LINE
  8
0
 10
197.655
 20
14
 11
197.636
 21
13.7534
  0
LINE
  8
0
 10
197.636
 20
13.7534
 11
197.581
 21
13.5123
  0
LINE
  8
0
 10
197.581
 20
13.5123
 11
197.491
 21
13.2821
  0
LINE
  8
0
 10
197.491
 20
13.2821
 11
197.367
 21
13.0679
  0
LINE
  8
0
 10
197.367
 20
13.0679
 11
197.213
 21
12.8746
  0
LINE
  8
0
 10
197.213
 20
12.8746
 11
197.032
 21
12.7064
  0
LINE
  8
0
 10
197.032
 20
12.7064
 11
196.827
 21
12.5671
  0
LINE
  8
0
 10
196.827
 20
12.5671
 11
196.604
 21
12.4598
  0
LINE
  8
0
 10
196.604
 20
12.4598
 11
196.368
 21
12.3869
  0
LINE
  8
0
 10
196.368
 20
12.3869
 11
196.124
 21
12.35
  0
LINE
  8
0
 10
196.124
 20
12.35
 11
195.876
 21
12.35
  0
LINE
  8
0
 10
163.876
 20
12.35
 11
163.632
 21
12.3869
  0
LINE
  8
0
 10
163.632
 20
12.3869
 11
163.396
 21
12.4598
  0
LINE
  8
0
 10
163.396
 20
12.4598
 11
163.173
 21
12.5671
  0
LINE
  8
0
 10
163.173
 20
12.5671
 11
162.968
 21
12.7064
  0
LINE
  8
0
 10
162.968
 20
12.7064
 11
162.787
 21
12.8746
  0
LINE
  8
0
 10
162.787
 20
12.8746
 11
162.633
 21
13.0679
  0
LINE
  8
0
 10
162.633
 20
13.0679
 11
162.509
 21
13.2821
  0
LINE
  8
0
 10
162.509
 20
13.2821
 11
162.419
 21
13.5123
  0
LINE
  8
0
 10
162.419
 20
13.5123
 11
162.364
 21
13.7534
  0
LINE
  8
0
 10
162.364
 20
13.7534
 11
162.345
 21
14
  0
LINE
  8
0
 10
162.345
 20
14
 11
162.364
 21
14.2466
  0
LINE
  8
0
 10
162.364
 20
14.2466
 11
162.419
 21
14.4877
  0
LINE
  8
0
 10
162.419
 20
14.4877
 11
162.509
 21
14.7179
  0
LINE
  8
0
 10
162.509
 20
14.7179
 11
162.633
 21
14.9321
  0
LINE
  8
0
 10
162.633
 20
14.9321
 11
162.787
 21
15.1254
  0
LINE
  8
0
 10
162.787
 20
15.1254
 11
162.968
 21
15.2936
  0
LINE
  8
0
 10
162.968
 20
15.2936
 11
163.173
 21
15.433
  0
LINE
  8
0
 10
163.173
 20
15.433
 11
163.396
 21
15.5403
  0
LINE
  8
0
 10
163.396
 20
15.5403
 11
163.632
 21
15.6131
  0
LINE
  8
0
 10
163.632
 20
15.6131
 11
163.876
 21
15.65
  0
LINE
  8
0
 10
163.876
 20
15.65
 11
164.124
 21
15.65
  0
LINE
  8
0
 10
164.124
 20
15.65
 11
164.368
 21
15.6131
  0
LINE
  8
0
 10
164.368
 20
15.6131
 11
164.605
 21
15.5403
  0
LINE
  8
0
 10
164.605
 20
15.5403
 11
164.827
 21
15.433
  0
LINE
  8
0
 10
164.827
 20
15.433
 11
165.032
 21
15.2936
  0
LINE
  8
0
 10
165.032
 20
15.2936
 11
165.213
 21
15.1254
  0
LINE
  8
0
 10
165.213
 20
15.1254
 11
165.367
 21
14.9321
  0
LINE
  8
0
 10
165.367
 20
14.9321
 11
165.491
 21
14.7179
  0
LINE
  8
0
 10
165.491
 20
14.7179
 11
165.581
 21
14.4877
  0
LINE
  8
0
 10
165.581
 20
14.4877
 11
165.636
 21
14.2466
  0
LINE
  8
0
 10
165.636
 20
14.2466
 11
165.655
 21
14
  0
LINE
  8
0
 10
165.655
 20
14
 11
165.636
 21
13.7534
  0
LINE
  8
0
 10
165.636
 20
13.7534
 11
165.581
 21
13.5123
  0
LINE
  8
0
 10
165.581
 20
13.5123
 11
165.491
 21
13.2821
  0
LINE
  8
0
 10
165.491
 20
13.2821
 11
165.367
 21
13.0679
  0
LINE
  8
0
 10
165.367
 20
13.0679
 11
165.213
 21
12.8746
  0
LINE
  8
0
 10
165.213
 20
12.8746
 11
165.032
 21
12.7064
  0
LINE
  8
0
 10
165.032
 20
12.7064
 11
164.827
 21
12.5671
  0
LINE
  8
0
 10
164.827
 20
12.5671
 11
164.605
 21
12.4598
  0
LINE
  8
0
 10
164.605
 20
12.4598
 11
164.368
 21
12.3869
  0
LINE
  8
0
 10
164.368
 20
12.3869
 11
164.124
 21
12.35
  0
LINE
  8
0
 10
164.124
 20
12.35
 11
163.876
 21
12.35
  0
LINE
  8
0
 10
53.8764
 20
12.35
 11
53.6318
 21
12.3869
  0
LINE
  8
0
 10
53.6318
 20
12.3869
 11
53.3955
 21
12.4598
  0
LINE
  8
0
 10
53.3955
 20
12.4598
 11
53.1727
 21
12.5671
  0
LINE
  8
0
 10
53.1727
 20
12.5671
 11
52.9684
 21
12.7064
  0
LINE
  8
0
 10
52.9684
 20
12.7064
 11
52.7871
 21
12.8746
  0
LINE
  8
0
 10
52.7871
 20
12.8746
 11
52.6329
 21
13.0679
  0
LINE
  8
0
 10
52.6329
 20
13.0679
 11
52.5092
 21
13.2821
  0
LINE
  8
0
 10
52.5092
 20
13.2821
 11
52.4189
 21
13.5123
  0
LINE
  8
0
 10
52.4189
 20
13.5123
 11
52.3639
 21
13.7534
  0
LINE
  8
0
 10
52.3639
 20
13.7534
 11
52.3454
 21
14
  0
LINE
  8
0
 10
52.3454
 20
14
 11
52.3639
 21
14.2466
  0
LINE
  8
0
 10
52.3639
 20
14.2466
 11
52.4189
 21
14.4877
  0
LINE
  8
0
 10
52.4189
 20
14.4877
 11
52.5092
 21
14.7179
  0
LINE
  8
0
 10
52.5092
 20
14.7179
 11
52.6329
 21
14.9321
  0
LINE
  8
0
 10
52.6329
 20
14.9321
 11
52.7871
 21
15.1254
  0
LINE
  8
0
 10
52.7871
 20
15.1254
 11
52.9684
 21
15.2936
  0
LINE
  8
0
 10
52.9684
 20
15.2936
 11
53.1727
 21
15.433
  0
LINE
  8
0
 10
53.1727
 20
15.433
 11
53.3955
 21
15.5403
  0
LINE
  8
0
 10
53.3955
 20
15.5403
 11
53.6318
 21
15.6131
  0
LINE
  8
0
 10
53.6318
 20
15.6131
 11
53.8764
 21
15.65
  0
LINE
  8
0
 10
53.8764
 20
15.65
 11
54.1237
 21
15.65
  0
LINE
  8
0
 10
54.1237
 20
15.65
 11
54.3682
 21
15.6131
  0
LINE
  8
0
 10
54.3682
 20
15.6131
 11
54.6045
 21
15.5403
  0
LINE
  8
0
 10
54.6045
 20
15.5403
 11
54.8273
 21
15.433
  0
LINE
  8
0
 10
54.8273
 20
15.433
 11
55.0316
 21
15.2936
  0
LINE
  8
0
 10
55.0316
 20
15.2936
 11
55.2129
 21
15.1254
  0
LINE
  8
0
 10
55.2129
 20
15.1254
 11
55.3671
 21
14.9321
  0
LINE
  8
0
 10
55.3671
 20
14.9321
 11
55.4908
 21
14.7179
  0
LINE
  8
0
 10
55.4908
 20
14.7179
 11
55.5811
 21
14.4877
  0
LINE
  8
0
 10
55.5811
 20
14.4877
 11
55.6362
 21
14.2466
  0
LINE
  8
0
 10
55.6362
 20
14.2466
 11
55.6546
 21
14
  0
LINE
  8
0
 10
55.6546
 20
14
 11
55.6362
 21
13.7534
  0
LINE
  8
0
 10
55.6362
 20
13.7534
 11
55.5811
 21
13.5123
  0
LINE
  8
0
 10
55.5811
 20
13.5123
 11
55.4908
 21
13.2821
  0
LINE
  8
0
 10
55.4908
 20
13.2821
 11
55.3671
 21
13.0679
  0
LINE
  8
0
 10
55.3671
 20
13.0679
 11
55.2129
 21
12.8746
  0
LINE
  8
0
 10
55.2129
 20
12.8746
 11
55.0316
 21
12.7064
  0
LINE
  8
0
 10
55.0316
 20
12.7064
 11
54.8273
 21
12.5671
  0
LINE
  8
0
 10
54.8273
 20
12.5671
 11
54.6045
 21
12.4598
  0
LINE
  8
0
 10
54.6045
 20
12.4598
 11
54.3682
 21
12.3869
  0
LINE
  8
0
 10
54.3682
 20
12.3869
 11
54.1237
 21
12.35
  0
LINE
  8
0
 10
54.1237
 20
12.35
 11
53.8764
 21
12.35
  0
LINE
  8
0
 10
85.8763
 20
12.35
 11
85.6318
 21
12.3869
  0
LINE
  8
0
 10
85.6318
 20
12.3869
 11
85.3955
 21
12.4598
  0
LINE
  8
0
 10
85.3955
 20
12.4598
 11
85.1727
 21
12.5671
  0
LINE
  8
0
 10
85.1727
 20
12.5671
 11
84.9684
 21
12.7064
  0
LINE
  8
0
 10
84.9684
 20
12.7064
 11
84.7871
 21
12.8746
  0
LINE
  8
0
 10
84.7871
 20
12.8746
 11
84.6329
 21
13.0679
  0
LINE
  8
0
 10
84.6329
 20
13.0679
 11
84.5092
 21
13.2821
  0
LINE
  8
0
 10
84.5092
 20
13.2821
 11
84.4189
 21
13.5123
  0
LINE
  8
0
 10
84.4189
 20
13.5123
 11
84.3638
 21
13.7534
  0
LINE
  8
0
 10
84.3638
 20
13.7534
 11
84.3454
 21
14
  0
LINE
  8
0
 10
84.3454
 20
14
 11
84.3638
 21
14.2466
  0
LINE
  8
0
 10
84.3638
 20
14.2466
 11
84.4189
 21
14.4877
  0
LINE
  8
0
 10
84.4189
 20
14.4877
 11
84.5092
 21
14.7179
  0
LINE
  8
0
 10
84.5092
 20
14.7179
 11
84.6329
 21
14.9321
  0
LINE
  8
0
 10
84.6329
 20
14.9321
 11
84.7871
 21
15.1254
  0
LINE
  8
0
 10
84.7871
 20
15.1254
 11
84.9684
 21
15.2936
  0
LINE
  8
0
 10
84.9684
 20
15.2936
 11
85.1727
 21
15.433
  0
LINE
  8
0
 10
85.1727
 20
15.433
 11
85.3955
 21
15.5403
  0
LINE
  8
0
 10
85.3955
 20
15.5403
 11
85.6318
 21
15.6131
  0
LINE
  8
0
 10
85.6318
 20
15.6131
 11
85.8763
 21
15.65
  0
LINE
  8
0
 10
85.8763
 20
15.65
 11
86.1236
 21
15.65
  0
LINE
  8
0
 10
86.1236
 20
15.65
 11
86.3682
 21
15.6131
  0
LINE
  8
0
 10
86.3682
 20
15.6131
 11
86.6045
 21
15.5403
  0
LINE
  8
0
 10
86.6045
 20
15.5403
 11
86.8273
 21
15.433
  0
LINE
  8
0
 10
86.8273
 20
15.433
 11
87.0316
 21
15.2936
  0
LINE
  8
0
 10
87.0316
 20
15.2936
 11
87.2129
 21
15.1254
  0
LINE
  8
0
 10
87.2129
 20
15.1254
 11
87.3671
 21
14.9321
  0
LINE
  8
0
 10
87.3671
 20
14.9321
 11
87.4908
 21
14.7179
  0
LINE
  8
0
 10
87.4908
 20
14.7179
 11
87.5811
 21
14.4877
  0
LINE
  8
0
 10
87.5811
 20
14.4877
 11
87.6361
 21
14.2466
  0
LINE
  8
0
 10
87.6361
 20
14.2466
 11
87.6546
 21
14
  0
LINE
  8
0
 10
87.6546
 20
14
 11
87.6361
 21
13.7534
  0
LINE
  8
0
 10
87.6361
 20
13.7534
 11
87.5811
 21
13.5123
  0
LINE
  8
0
 10
87.5811
 20
13.5123
 11
87.4908
 21
13.2821
  0
LINE
  8
0
 10
87.4908
 20
13.2821
 11
87.3671
 21
13.0679
  0
LINE
  8
0
 10
87.3671
 20
13.0679
 11
87.2129
 21
12.8746
  0
LINE
  8
0
 10
87.2129
 20
12.8746
 11
87.0316
 21
12.7064
  0
LINE
  8
0
 10
87.0316
 20
12.7064
 11
86.8273
 21
12.5671
  0
LINE
  8
0
 10
86.8273
 20
12.5671
 11
86.6045
 21
12.4598
  0
LINE
  8
0
 10
86.6045
 20
12.4598
 11
86.3682
 21
12.3869
  0
LINE
  8
0
 10
86.3682
 20
12.3869
 11
86.1236
 21
12.35
  0
LINE
  8
0
 10
86.1236
 20
12.35
 11
85.8763
 21
12.35
  0
LINE
  8
0
 10
178.976
 20
33.2815
 11
178.995
 21
33.036
  0
LINE
  8
0
 10
178.995
 20
33.036
 11
178.983
 21
32.79
  0
LINE
  8
0
 10
178.983
 20
32.79
 11
178.942
 21
32.5473
  0
LINE
  8
0
 10
178.942
 20
32.5473
 11
178.871
 21
32.3115
  0
LINE
  8
0
 10
178.871
 20
32.3115
 11
178.771
 21
32.0863
  0
LINE
  8
0
 10
178.771
 20
32.0863
 11
178.645
 21
31.8749
  0
LINE
  8
0
 10
178.645
 20
31.8749
 11
178.493
 21
31.6807
  0
LINE
  8
0
 10
178.493
 20
31.6807
 11
178.319
 21
31.5066
  0
LINE
  8
0
 10
178.319
 20
31.5066
 11
178.125
 21
31.3552
  0
LINE
  8
0
 10
178.125
 20
31.3552
 11
177.914
 21
31.2288
  0
LINE
  8
0
 10
177.914
 20
31.2288
 11
177.688
 21
31.1293
  0
LINE
  8
0
 10
177.688
 20
31.1293
 11
177.453
 21
31.0583
  0
LINE
  8
0
 10
177.453
 20
31.0583
 11
177.21
 21
31.0168
  0
LINE
  8
0
 10
177.21
 20
31.0168
 11
176.964
 21
31.0054
  0
LINE
  8
0
 10
176.964
 20
31.0054
 11
176.718
 21
31.0244
  0
LINE
  8
0
 10
176.718
 20
31.0244
 11
176.477
 21
31.0733
  0
LINE
  8
0
 10
176.477
 20
31.0733
 11
176.244
 21
31.1516
  0
LINE
  8
0
 10
176.244
 20
31.1516
 11
176.022
 21
31.2579
  0
LINE
  8
0
 10
176.022
 20
31.2579
 11
175.814
 21
31.3908
  0
LINE
  8
0
 10
175.814
 20
31.3908
 11
175.625
 21
31.5481
  0
LINE
  8
0
 10
175.625
 20
31.5481
 11
175.456
 21
31.7275
  0
LINE
  8
0
 10
175.456
 20
31.7275
 11
175.311
 21
31.9263
  0
LINE
  8
0
 10
175.311
 20
31.9263
 11
175.191
 21
32.1414
  0
LINE
  8
0
 10
175.191
 20
32.1414
 11
175.098
 21
32.3696
  0
LINE
  8
0
 10
175.098
 20
32.3696
 11
175.035
 21
32.6075
  0
LINE
  8
0
 10
175.035
 20
32.6075
 11
175.001
 21
32.8513
  0
LINE
  8
0
 10
175.001
 20
32.8513
 11
174.997
 21
33.0976
  0
LINE
  8
0
 10
174.997
 20
33.0976
 11
175.023
 21
33.3424
  0
LINE
  8
0
 10
175.023
 20
33.3424
 11
175.08
 21
33.5821
  0
LINE
  8
0
 10
175.08
 20
33.5821
 11
175.165
 21
33.813
  0
LINE
  8
0
 10
175.165
 20
33.813
 11
175.278
 21
34.0318
  0
LINE
  8
0
 10
175.278
 20
34.0318
 11
175.418
 21
34.2349
  0
LINE
  8
0
 10
175.418
 20
34.2349
 11
175.581
 21
34.4194
  0
LINE
  8
0
 10
175.581
 20
34.4194
 11
175.765
 21
34.5825
  0
LINE
  8
0
 10
175.765
 20
34.5825
 11
175.968
 21
34.7216
  0
LINE
  8
0
 10
175.968
 20
34.7216
 11
176.187
 21
34.8348
  0
LINE
  8
0
 10
176.187
 20
34.8348
 11
176.418
 21
34.9202
  0
LINE
  8
0
 10
176.418
 20
34.9202
 11
176.658
 21
34.9766
  0
LINE
  8
0
 10
176.658
 20
34.9766
 11
176.902
 21
35.0031
  0
LINE
  8
0
 10
176.902
 20
35.0031
 11
177.149
 21
34.9993
  0
LINE
  8
0
 10
177.149
 20
34.9993
 11
177.393
 21
34.9653
  0
LINE
  8
0
 10
177.393
 20
34.9653
 11
177.63
 21
34.9015
  0
LINE
  8
0
 10
177.63
 20
34.9015
 11
177.859
 21
34.809
  0
LINE
  8
0
 10
177.859
 20
34.809
 11
178.074
 21
34.6892
  0
LINE
  8
0
 10
178.074
 20
34.6892
 11
178.272
 21
34.5439
  0
LINE
  8
0
 10
178.272
 20
34.5439
 11
178.452
 21
34.3752
  0
LINE
  8
0
 10
178.452
 20
34.3752
 11
178.609
 21
34.1857
  0
LINE
  8
0
 10
178.609
 20
34.1857
 11
178.742
 21
33.9784
  0
LINE
  8
0
 10
178.742
 20
33.9784
 11
178.848
 21
33.7563
  0
LINE
  8
0
 10
178.848
 20
33.7563
 11
178.927
 21
33.5228
  0
LINE
  8
0
 10
178.927
 20
33.5228
 11
178.976
 21
33.2815
  0
LINE
  8
0
 10
68.1251
 20
31.3552
 11
67.9137
 21
31.2288
  0
LINE
  8
0
 10
67.9137
 20
31.2288
 11
67.6885
 21
31.1293
  0
LINE
  8
0
 10
67.6885
 20
31.1293
 11
67.4527
 21
31.0583
  0
LINE
  8
0
 10
67.4527
 20
31.0583
 11
67.21
 21
31.0168
  0
LINE
  8
0
 10
67.21
 20
31.0168
 11
66.964
 21
31.0054
  0
LINE
  8
0
 10
66.964
 20
31.0054
 11
66.7185
 21
31.0244
  0
LINE
  8
0
 10
66.7185
 20
31.0244
 11
66.4772
 21
31.0733
  0
LINE
  8
0
 10
66.4772
 20
31.0733
 11
66.2437
 21
31.1516
  0
LINE
  8
0
 10
66.2437
 20
31.1516
 11
66.0216
 21
31.2579
  0
LINE
  8
0
 10
66.0216
 20
31.2579
 11
65.8143
 21
31.3908
  0
LINE
  8
0
 10
65.8143
 20
31.3908
 11
65.6248
 21
31.5481
  0
LINE
  8
0
 10
65.6248
 20
31.5481
 11
65.4561
 21
31.7275
  0
LINE
  8
0
 10
65.4561
 20
31.7275
 11
65.3108
 21
31.9263
  0
LINE
  8
0
 10
65.3108
 20
31.9263
 11
65.191
 21
32.1414
  0
LINE
  8
0
 10
65.191
 20
32.1414
 11
65.0985
 21
32.3696
  0
LINE
  8
0
 10
65.0985
 20
32.3696
 11
65.0347
 21
32.6075
  0
LINE
  8
0
 10
65.0347
 20
32.6075
 11
65.0007
 21
32.8513
  0
LINE
  8
0
 10
65.0007
 20
32.8513
 11
64.9969
 21
33.0976
  0
LINE
  8
0
 10
64.9969
 20
33.0976
 11
65.0234
 21
33.3424
  0
LINE
  8
0
 10
65.0234
 20
33.3424
 11
65.0798
 21
33.5821
  0
LINE
  8
0
 10
65.0798
 20
33.5821
 11
65.1652
 21
33.813
  0
LINE
  8
0
 10
65.1652
 20
33.813
 11
65.2784
 21
34.0318
  0
LINE
  8
0
 10
65.2784
 20
34.0318
 11
65.4175
 21
34.2349
  0
LINE
  8
0
 10
65.4175
 20
34.2349
 11
65.5806
 21
34.4194
  0
LINE
  8
0
 10
65.5806
 20
34.4194
 11
65.7651
 21
34.5825
  0
LINE
  8
0
 10
65.7651
 20
34.5825
 11
65.9682
 21
34.7216
  0
LINE
  8
0
 10
65.9682
 20
34.7216
 11
66.187
 21
34.8348
  0
LINE
  8
0
 10
66.187
 20
34.8348
 11
66.4179
 21
34.9202
  0
LINE
  8
0
 10
66.4179
 20
34.9202
 11
66.6576
 21
34.9766
  0
LINE
  8
0
 10
66.6576
 20
34.9766
 11
66.9024
 21
35.0031
  0
LINE
  8
0
 10
66.9024
 20
35.0031
 11
67.1487
 21
34.9993
  0
LINE
  8
0
 10
67.1487
 20
34.9993
 11
67.3925
 21
34.9653
  0
LINE
  8
0
 10
67.3925
 20
34.9653
 11
67.6304
 21
34.9015
  0
LINE
  8
0
 10
67.6304
 20
34.9015
 11
67.8586
 21
34.809
  0
LINE
  8
0
 10
67.8586
 20
34.809
 11
68.0737
 21
34.6892
  0
LINE
  8
0
 10
68.0737
 20
34.6892
 11
68.2725
 21
34.5439
  0
LINE
  8
0
 10
68.2725
 20
34.5439
 11
68.4519
 21
34.3752
  0
LINE
  8
0
 10
68.4519
 20
34.3752
 11
68.6092
 21
34.1857
  0
LINE
  8
0
 10
68.6092
 20
34.1857
 11
68.7421
 21
33.9784
  0
LINE
  8
0
 10
68.7421
 20
33.9784
 11
68.8484
 21
33.7563
  0
LINE
  8
0
 10
68.8484
 20
33.7563
 11
68.9267
 21
33.5228
  0
LINE
  8
0
 10
68.9267
 20
33.5228
 11
68.9756
 21
33.2815
  0
LINE
  8
0
 10
68.9756
 20
33.2815
 11
68.9946
 21
33.036
  0
LINE
  8
0
 10
68.9946
 20
33.036
 11
68.9832
 21
32.79
  0
LINE
  8
0
 10
68.9832
 20
32.79
 11
68.9417
 21
32.5473
  0
LINE
  8
0
 10
68.9417
 20
32.5473
 11
68.8707
 21
32.3115
  0
LINE
  8
0
 10
68.8707
 20
32.3115
 11
68.7712
 21
32.0863
  0
LINE
  8
0
 10
68.7712
 20
32.0863
 11
68.6448
 21
31.8749
  0
LINE
  8
0
 10
68.6448
 20
31.8749
 11
68.4934
 21
31.6807
  0
LINE
  8
0
 10
68.4934
 20
31.6807
 11
68.3193
 21
31.5066
  0
LINE
  8
0
 10
68.3193
 20
31.5066
 11
68.1251
 21
31.3552
  0
LINE
  8
0
 10
68.6092
 20
25.8143
 11
68.4519
 21
25.6248
  0
LINE
  8
0
 10
68.4519
 20
25.6248
 11
68.2725
 21
25.4561
  0
LINE
  8
0
 10
68.2725
 20
25.4561
 11
68.0737
 21
25.3108
  0
LINE
  8
0
 10
68.0737
 20
25.3108
 11
67.8586
 21
25.191
  0
LINE
  8
0
 10
67.8586
 20
25.191
 11
67.6304
 21
25.0985
  0
LINE
  8
0
 10
67.6304
 20
25.0985
 11
67.3925
 21
25.0347
  0
LINE
  8
0
 10
67.3925
 20
25.0347
 11
67.1487
 21
25.0007
  0
LINE
  8
0
 10
67.1487
 20
25.0007
 11
66.9024
 21
24.9969
  0
LINE
  8
0
 10
66.9024
 20
24.9969
 11
66.6576
 21
25.0234
  0
LINE
  8
0
 10
66.6576
 20
25.0234
 11
66.4179
 21
25.0798
  0
LINE
  8
0
 10
66.4179
 20
25.0798
 11
66.187
 21
25.1652
  0
LINE
  8
0
 10
66.187
 20
25.1652
 11
65.9682
 21
25.2784
  0
LINE
  8
0
 10
65.9682
 20
25.2784
 11
65.7651
 21
25.4175
  0
LINE
  8
0
 10
65.7651
 20
25.4175
 11
65.5806
 21
25.5806
  0
LINE
  8
0
 10
65.5806
 20
25.5806
 11
65.4175
 21
25.7651
  0
LINE
  8
0
 10
65.4175
 20
25.7651
 11
65.2784
 21
25.9682
  0
LINE
  8
0
 10
65.2784
 20
25.9682
 11
65.1652
 21
26.187
  0
LINE
  8
0
 10
65.1652
 20
26.187
 11
65.0798
 21
26.4179
  0
LINE
  8
0
 10
65.0798
 20
26.4179
 11
65.0234
 21
26.6576
  0
LINE
  8
0
 10
65.0234
 20
26.6576
 11
64.9969
 21
26.9024
  0
LINE
  8
0
 10
64.9969
 20
26.9024
 11
65.0007
 21
27.1487
  0
LINE
  8
0
 10
65.0007
 20
27.1487
 11
65.0347
 21
27.3925
  0
LINE
  8
0
 10
65.0347
 20
27.3925
 11
65.0985
 21
27.6304
  0
LINE
  8
0
 10
65.0985
 20
27.6304
 11
65.191
 21
27.8586
  0
LINE
  8
0
 10
65.191
 20
27.8586
 11
65.3108
 21
28.0737
  0
LINE
  8
0
 10
65.3108
 20
28.0737
 11
65.4561
 21
28.2725
  0
LINE
  8
0
 10
65.4561
 20
28.2725
 11
65.6248
 21
28.4519
  0
LINE
  8
0
 10
65.6248
 20
28.4519
 11
65.8143
 21
28.6092
  0
LINE
  8
0
 10
65.8143
 20
28.6092
 11
66.0216
 21
28.7421
  0
LINE
  8
0
 10
66.0216
 20
28.7421
 11
66.2437
 21
28.8484
  0
LINE
  8
0
 10
66.2437
 20
28.8484
 11
66.4772
 21
28.9267
  0
LINE
  8
0
 10
66.4772
 20
28.9267
 11
66.7185
 21
28.9756
  0
LINE
  8
0
 10
66.7185
 20
28.9756
 11
66.964
 21
28.9946
  0
LINE
  8
0
 10
66.964
 20
28.9946
 11
67.21
 21
28.9832
  0
LINE
  8
0
 10
67.21
 20
28.9832
 11
67.4527
 21
28.9417
  0
LINE
  8
0
 10
67.4527
 20
28.9417
 11
67.6885
 21
28.8707
  0
LINE
  8
0
 10
67.6885
 20
28.8707
 11
67.9137
 21
28.7712
  0
LINE
  8
0
 10
67.9137
 20
28.7712
 11
68.1251
 21
28.6448
  0
LINE
  8
0
 10
68.1251
 20
28.6448
 11
68.3193
 21
28.4934
  0
LINE
  8
0
 10
68.3193
 20
28.4934
 11
68.4934
 21
28.3193
  0
LINE
  8
0
 10
68.4934
 20
28.3193
 11
68.6448
 21
28.1251
  0
LINE
  8
0
 10
68.6448
 20
28.1251
 11
68.7712
 21
27.9137
  0
LINE
  8
0
 10
68.7712
 20
27.9137
 11
68.8707
 21
27.6885
  0
LINE
  8
0
 10
68.8707
 20
27.6885
 11
68.9417
 21
27.4527
  0
LINE
  8
0
 10
68.9417
 20
27.4527
 11
68.9832
 21
27.21
  0
LINE
  8
0
 10
68.9832
 20
27.21
 11
68.9946
 21
26.964
  0
LINE
  8
0
 10
68.9946
 20
26.964
 11
68.9756
 21
26.7185
  0
LINE
  8
0
 10
68.9756
 20
26.7185
 11
68.9267
 21
26.4772
  0
LINE
  8
0
 10
68.9267
 20
26.4772
 11
68.8484
 21
26.2437
  0
LINE
  8
0
 10
68.8484
 20
26.2437
 11
68.7421
 21
26.0216
  0
LINE
  8
0
 10
68.7421
 20
26.0216
 11
68.6092
 21
25.8143
  0
LINE
  8
0
 10
178.742
 20
26.0216
 11
178.609
 21
25.8143
  0
LINE
  8
0
 10
178.609
 20
25.8143
 11
178.452
 21
25.6248
  0
LINE
  8
0
 10
178.452
 20
25.6248
 11
178.272
 21
25.4561
  0
LINE
  8
0
 10
178.272
 20
25.4561
 11
178.074
 21
25.3108
  0
LINE
  8
0
 10
178.074
 20
25.3108
 11
177.859
 21
25.191
  0
LINE
  8
0
 10
177.859
 20
25.191
 11
177.63
 21
25.0985
  0
LINE
  8
0
 10
177.63
 20
25.0985
 11
177.393
 21
25.0347
  0
LINE
  8
0
 10
177.393
 20
25.0347
 11
177.149
 21
25.0007
  0
LINE
  8
0
 10
177.149
 20
25.0007
 11
176.902
 21
24.9969
  0
LINE
  8
0
 10
176.902
 20
24.9969
 11
176.658
 21
25.0234
  0
LINE
  8
0
 10
176.658
 20
25.0234
 11
176.418
 21
25.0798
  0
LINE
  8
0
 10
176.418
 20
25.0798
 11
176.187
 21
25.1652
  0
LINE
  8
0
 10
176.187
 20
25.1652
 11
175.968
 21
25.2784
  0
LINE
  8
0
 10
175.968
 20
25.2784
 11
175.765
 21
25.4175
  0
LINE
  8
0
 10
175.765
 20
25.4175
 11
175.581
 21
25.5806
  0
LINE
  8
0
 10
175.581
 20
25.5806
 11
175.418
 21
25.7651
  0
LINE
  8
0
 10
175.418
 20
25.7651
 11
175.278
 21
25.9682
  0
LINE
  8
0
 10
175.278
 20
25.9682
 11
175.165
 21
26.187
  0
LINE
  8
0
 10
175.165
 20
26.187
 11
175.08
 21
26.4179
  0
LINE
  8
0
 10
175.08
 20
26.4179
 11
175.023
 21
26.6576
  0
LINE
  8
0
 10
175.023
 20
26.6576
 11
174.997
 21
26.9024
  0
LINE
  8
0
 10
174.997
 20
26.9024
 11
175.001
 21
27.1487
  0
LINE
  8
0
 10
175.001
 20
27.1487
 11
175.035
 21
27.3925
  0
LINE
  8
0
 10
175.035
 20
27.3925
 11
175.098
 21
27.6304
  0
LINE
  8
0
 10
175.098
 20
27.6304
 11
175.191
 21
27.8586
  0
LINE
  8
0
 10
175.191
 20
27.8586
 11
175.311
 21
28.0737
  0
LINE
  8
0
 10
175.311
 20
28.0737
 11
175.456
 21
28.2725
  0
LINE
  8
0
 10
175.456
 20
28.2725
 11
175.625
 21
28.4519
  0
LINE
  8
0
 10
175.625
 20
28.4519
 11
175.814
 21
28.6092
  0
LINE
  8
0
 10
175.814
 20
28.6092
 11
176.022
 21
28.7421
  0
LINE
  8
0
 10
176.022
 20
28.7421
 11
176.244
 21
28.8484
  0
LINE
  8
0
 10
176.244
 20
28.8484
 11
176.477
 21
28.9267
  0
LINE
  8
0
 10
176.477
 20
28.9267
 11
176.718
 21
28.9756
  0
LINE
  8
0
 10
176.718
 20
28.9756
 11
176.964
 21
28.9946
  0
LINE
  8
0
 10
176.964
 20
28.9946
 11
177.21
 21
28.9832
  0
LINE
  8
0
 10
177.21
 20
28.9832
 11
177.453
 21
28.9417
  0
LINE
  8
0
 10
177.453
 20
28.9417
 11
177.688
 21
28.8707
  0
LINE
  8
0
 10
177.688
 20
28.8707
 11
177.914
 21
28.7712
  0
LINE
  8
0
 10
177.914
 20
28.7712
 11
178.125
 21
28.6448
  0
LINE
  8
0
 10
178.125
 20
28.6448
 11
178.319
 21
28.4934
  0
LINE
  8
0
 10
178.319
 20
28.4934
 11
178.493
 21
28.3193
  0
LINE
  8
0
 10
178.493
 20
28.3193
 11
178.645
 21
28.1251
  0
LINE
  8
0
 10
178.645
 20
28.1251
 11
178.771
 21
27.9137
  0
LINE
  8
0
 10
178.771
 20
27.9137
 11
178.871
 21
27.6885
  0
LINE
  8
0
 10
178.871
 20
27.6885
 11
178.942
 21
27.4527
  0
LINE
  8
0
 10
178.942
 20
27.4527
 11
178.983
 21
27.21
  0
LINE
  8
0
 10
178.983
 20
27.21
 11
178.995
 21
26.964
  0
LINE
  8
0
 10
178.995
 20
26.964
 11
178.976
 21
26.7185
  0
LINE
  8
0
 10
178.976
 20
26.7185
 11
178.927
 21
26.4772
  0
LINE
  8
0
 10
178.927
 20
26.4772
 11
178.848
 21
26.2437
  0
LINE
  8
0
 10
178.848
 20
26.2437
 11
178.742
 21
26.0216
  0
ENDSEC
  0
SECTION
  2
OBJECTS
  0
DICTIONARY
  0
ENDSEC
  0
EOF
