  0
SECTION
  2
BLOCKS
  0
ENDSEC
  0
SECTION
  2
ENTITIES
  0
LINE
  8
0
 10
167.288
 20
-149.748
 11
168.736
 21
-149.519
  0
LINE
  8
0
 10
168.736
 20
-149.519
 11
170.151
 21
-149.14
  0
LINE
  8
0
 10
170.151
 20
-149.14
 11
171.519
 21
-148.615
  0
LINE
  8
0
 10
171.519
 20
-148.615
 11
172.825
 21
-147.949
  0
LINE
  8
0
 10
172.825
 20
-147.949
 11
174.054
 21
-147.151
  0
LINE
  8
0
 10
174.054
 20
-147.151
 11
175.193
 21
-146.229
  0
LINE
  8
0
 10
175.193
 20
-146.229
 11
176.229
 21
-145.193
  0
LINE
  8
0
 10
176.229
 20
-145.193
 11
177.151
 21
-144.054
  0
LINE
  8
0
 10
177.151
 20
-144.054
 11
177.949
 21
-142.825
  0
LINE
  8
0
 10
177.949
 20
-142.825
 11
178.615
 21
-141.519
  0
LINE
  8
0
 10
178.615
 20
-141.519
 11
179.14
 21
-140.151
  0
LINE
  8
0
 10
179.14
 20
-140.151
 11
179.519
 21
-138.736
  0
LINE
  8
0
 10
179.519
 20
-138.736
 11
179.748
 21
-137.288
  0
LINE
  8
0
 10
179.748
 20
-137.288
 11
179.825
 21
-135.825
  0
LINE
  8
0
 10
179.825
 20
-135.825
 11
179.825
 21
135.825
  0
LINE
  8
0
 10
179.825
 20
135.825
 11
179.748
 21
137.288
  0
LINE
  8
0
 10
179.748
 20
137.288
 11
179.519
 21
138.736
  0
LINE
  8
0
 10
179.519
 20
138.736
 11
179.14
 21
140.151
  0
LINE
  8
0
 10
179.14
 20
140.151
 11
178.615
 21
141.519
  0
LINE
  8
0
 10
178.615
 20
141.519
 11
177.949
 21
142.825
  0
LINE
  8
0
 10
177.949
 20
142.825
 11
177.151
 21
144.054
  0
LINE
  8
0
 10
177.151
 20
144.054
 11
176.229
 21
145.193
  0
LINE
  8
0
 10
176.229
 20
145.193
 11
175.193
 21
146.229
  0
LINE
  8
0
 10
175.193
 20
146.229
 11
174.054
 21
147.151
  0
LINE
  8
0
 10
174.054
 20
147.151
 11
172.825
 21
147.949
  0
LINE
  8
0
 10
172.825
 20
147.949
 11
171.519
 21
148.615
  0
LINE
  8
0
 10
171.519
 20
148.615
 11
170.151
 21
149.14
  0
LINE
  8
0
 10
170.151
 20
149.14
 11
168.736
 21
149.519
  0
LINE
  8
0
 10
168.736
 20
149.519
 11
167.288
 21
149.748
  0
LINE
  8
0
 10
167.288
 20
149.748
 11
165.825
 21
149.825
  0
LINE
  8
0
 10
165.825
 20
149.825
 11
-165.825
 21
149.825
  0
LINE
  8
0
 10
-165.825
 20
149.825
 11
-167.288
 21
149.748
  0
LINE
  8
0
 10
-167.288
 20
149.748
 11
-168.736
 21
149.519
  0
LINE
  8
0
 10
-168.736
 20
149.519
 11
-170.151
 21
149.14
  0
LINE
  8
0
 10
-170.151
 20
149.14
 11
-171.519
 21
148.615
  0
LINE
  8
0
 10
-171.519
 20
148.615
 11
-172.825
 21
147.949
  0
LINE
  8
0
 10
-172.825
 20
147.949
 11
-174.054
 21
147.151
  0
LINE
  8
0
 10
-174.054
 20
147.151
 11
-175.193
 21
146.229
  0
LINE
  8
0
 10
-175.193
 20
146.229
 11
-176.229
 21
145.193
  0
LINE
  8
0
 10
-176.229
 20
145.193
 11
-177.151
 21
144.054
  0
LINE
  8
0
 10
-177.151
 20
144.054
 11
-177.949
 21
142.825
  0
LINE
  8
0
 10
-177.949
 20
142.825
 11
-178.615
 21
141.519
  0
LINE
  8
0
 10
-178.615
 20
141.519
 11
-179.14
 21
140.151
  0
LINE
  8
0
 10
-179.14
 20
140.151
 11
-179.519
 21
138.736
  0
LINE
  8
0
 10
-179.519
 20
138.736
 11
-179.748
 21
137.288
  0
LINE
  8
0
 10
-179.748
 20
137.288
 11
-179.825
 21
135.825
  0
LINE
  8
0
 10
-179.825
 20
135.825
 11
-179.825
 21
-135.825
  0
LINE
  8
0
 10
-179.825
 20
-135.825
 11
-179.748
 21
-137.288
  0
LINE
  8
0
 10
-179.748
 20
-137.288
 11
-179.519
 21
-138.736
  0
LINE
  8
0
 10
-179.519
 20
-138.736
 11
-179.14
 21
-140.151
  0
LINE
  8
0
 10
-179.14
 20
-140.151
 11
-178.615
 21
-141.519
  0
LINE
  8
0
 10
-178.615
 20
-141.519
 11
-177.949
 21
-142.825
  0
LINE
  8
0
 10
-177.949
 20
-142.825
 11
-177.151
 21
-144.054
  0
LINE
  8
0
 10
-177.151
 20
-144.054
 11
-176.229
 21
-145.193
  0
LINE
  8
0
 10
-176.229
 20
-145.193
 11
-175.193
 21
-146.229
  0
LINE
  8
0
 10
-175.193
 20
-146.229
 11
-174.054
 21
-147.151
  0
LINE
  8
0
 10
-174.054
 20
-147.151
 11
-172.825
 21
-147.949
  0
LINE
  8
0
 10
-172.825
 20
-147.949
 11
-171.519
 21
-148.615
  0
LINE
  8
0
 10
-171.519
 20
-148.615
 11
-170.151
 21
-149.14
  0
LINE
  8
0
 10
-170.151
 20
-149.14
 11
-168.736
 21
-149.519
  0
LINE
  8
0
 10
-168.736
 20
-149.519
 11
-167.288
 21
-149.748
  0
LINE
  8
0
 10
-167.288
 20
-149.748
 11
-165.825
 21
-149.825
  0
LINE
  8
0
 10
-165.825
 20
-149.825
 11
165.825
 21
-149.825
  0
LINE
  8
0
 10
165.825
 20
-149.825
 11
167.288
 21
-149.748
  0
LINE
  8
0
 10
159.702
 20
127.588
 11
159.456
 21
127.627
  0
LINE
  8
0
 10
159.456
 20
127.627
 11
159.216
 21
127.691
  0
LINE
  8
0
 10
159.216
 20
127.691
 11
158.984
 21
127.78
  0
LINE
  8
0
 10
158.984
 20
127.78
 11
158.762
 21
127.893
  0
LINE
  8
0
 10
158.762
 20
127.893
 11
158.554
 21
128.029
  0
LINE
  8
0
 10
158.554
 20
128.029
 11
158.361
 21
128.185
  0
LINE
  8
0
 10
158.361
 20
128.185
 11
158.185
 21
128.361
  0
LINE
  8
0
 10
158.185
 20
128.361
 11
158.029
 21
128.554
  0
LINE
  8
0
 10
158.029
 20
128.554
 11
157.893
 21
128.762
  0
LINE
  8
0
 10
157.893
 20
128.762
 11
157.78
 21
128.984
  0
LINE
  8
0
 10
157.78
 20
128.984
 11
157.691
 21
129.216
  0
LINE
  8
0
 10
157.691
 20
129.216
 11
157.627
 21
129.456
  0
LINE
  8
0
 10
157.627
 20
129.456
 11
157.588
 21
129.702
  0
LINE
  8
0
 10
157.588
 20
129.702
 11
157.575
 21
129.95
  0
LINE
  8
0
 10
157.575
 20
129.95
 11
157.588
 21
130.198
  0
LINE
  8
0
 10
157.588
 20
130.198
 11
157.627
 21
130.444
  0
LINE
  8
0
 10
157.627
 20
130.444
 11
157.691
 21
130.684
  0
LINE
  8
0
 10
157.691
 20
130.684
 11
157.78
 21
130.916
  0
LINE
  8
0
 10
157.78
 20
130.916
 11
157.893
 21
131.137
  0
LINE
  8
0
 10
157.893
 20
131.137
 11
158.029
 21
131.346
  0
LINE
  8
0
 10
158.029
 20
131.346
 11
158.185
 21
131.539
  0
LINE
  8
0
 10
158.185
 20
131.539
 11
158.361
 21
131.715
  0
LINE
  8
0
 10
158.361
 20
131.715
 11
158.554
 21
131.871
  0
LINE
  8
0
 10
158.554
 20
131.871
 11
158.762
 21
132.007
  0
LINE
  8
0
 10
158.762
 20
132.007
 11
158.984
 21
132.12
  0
LINE
  8
0
 10
158.984
 20
132.12
 11
159.216
 21
132.209
  0
LINE
  8
0
 10
159.216
 20
132.209
 11
159.456
 21
132.273
  0
LINE
  8
0
 10
159.456
 20
132.273
 11
159.702
 21
132.312
  0
LINE
  8
0
 10
159.702
 20
132.312
 11
159.95
 21
132.325
  0
LINE
  8
0
 10
159.95
 20
132.325
 11
160.198
 21
132.312
  0
LINE
  8
0
 10
160.198
 20
132.312
 11
160.444
 21
132.273
  0
LINE
  8
0
 10
160.444
 20
132.273
 11
160.684
 21
132.209
  0
LINE
  8
0
 10
160.684
 20
132.209
 11
160.916
 21
132.12
  0
LINE
  8
0
 10
160.916
 20
132.12
 11
161.137
 21
132.007
  0
LINE
  8
0
 10
161.137
 20
132.007
 11
161.346
 21
131.871
  0
LINE
  8
0
 10
161.346
 20
131.871
 11
161.539
 21
131.715
  0
LINE
  8
0
 10
161.539
 20
131.715
 11
161.715
 21
131.539
  0
LINE
  8
0
 10
161.715
 20
131.539
 11
161.871
 21
131.346
  0
LINE
  8
0
 10
161.871
 20
131.346
 11
162.007
 21
131.137
  0
LINE
  8
0
 10
162.007
 20
131.137
 11
162.12
 21
130.916
  0
LINE
  8
0
 10
162.12
 20
130.916
 11
162.209
 21
130.684
  0
LINE
  8
0
 10
162.209
 20
130.684
 11
162.273
 21
130.444
  0
LINE
  8
0
 10
162.273
 20
130.444
 11
162.312
 21
130.198
  0
LINE
  8
0
 10
162.312
 20
130.198
 11
162.325
 21
129.95
  0
LINE
  8
0
 10
162.325
 20
129.95
 11
162.312
 21
129.702
  0
LINE
  8
0
 10
162.312
 20
129.702
 11
162.273
 21
129.456
  0
LINE
  8
0
 10
162.273
 20
129.456
 11
162.209
 21
129.216
  0
LINE
  8
0
 10
162.209
 20
129.216
 11
162.12
 21
128.984
  0
LINE
  8
0
 10
162.12
 20
128.984
 11
162.007
 21
128.762
  0
LINE
  8
0
 10
162.007
 20
128.762
 11
161.871
 21
128.554
  0
LINE
  8
0
 10
161.871
 20
128.554
 11
161.715
 21
128.361
  0
LINE
  8
0
 10
161.715
 20
128.361
 11
161.539
 21
128.185
  0
LINE
  8
0
 10
161.539
 20
128.185
 11
161.346
 21
128.029
  0
LINE
  8
0
 10
161.346
 20
128.029
 11
161.137
 21
127.893
  0
LINE
  8
0
 10
161.137
 20
127.893
 11
160.916
 21
127.78
  0
LINE
  8
0
 10
160.916
 20
127.78
 11
160.684
 21
127.691
  0
LINE
  8
0
 10
160.684
 20
127.691
 11
160.444
 21
127.627
  0
LINE
  8
0
 10
160.444
 20
127.627
 11
160.198
 21
127.588
  0
LINE
  8
0
 10
160.198
 20
127.588
 11
159.95
 21
127.575
  0
LINE
  8
0
 10
159.95
 20
127.575
 11
159.702
 21
127.588
  0
LINE
  8
0
 10
-160.198
 20
127.588
 11
-160.444
 21
127.627
  0
LINE
  8
0
 10
-160.444
 20
127.627
 11
-160.684
 21
127.691
  0
LINE
  8
0
 10
-160.684
 20
127.691
 11
-160.916
 21
127.78
  0
LINE
  8
0
 10
-160.916
 20
127.78
 11
-161.137
 21
127.893
  0
LINE
  8
0
 10
-161.137
 20
127.893
 11
-161.346
 21
128.029
  0
LINE
  8
0
 10
-161.346
 20
128.029
 11
-161.539
 21
128.185
  0
LINE
  8
0
 10
-161.539
 20
128.185
 11
-161.715
 21
128.361
  0
LINE
  8
0
 10
-161.715
 20
128.361
 11
-161.871
 21
128.554
  0
LINE
  8
0
 10
-161.871
 20
128.554
 11
-162.007
 21
128.762
  0
LINE
  8
0
 10
-162.007
 20
128.762
 11
-162.12
 21
128.984
  0
LINE
  8
0
 10
-162.12
 20
128.984
 11
-162.209
 21
129.216
  0
LINE
  8
0
 10
-162.209
 20
129.216
 11
-162.273
 21
129.456
  0
LINE
  8
0
 10
-162.273
 20
129.456
 11
-162.312
 21
129.702
  0
LINE
  8
0
 10
-162.312
 20
129.702
 11
-162.325
 21
129.95
  0
LINE
  8
0
 10
-162.325
 20
129.95
 11
-162.312
 21
130.198
  0
LINE
  8
0
 10
-162.312
 20
130.198
 11
-162.273
 21
130.444
  0
LINE
  8
0
 10
-162.273
 20
130.444
 11
-162.209
 21
130.684
  0
LINE
  8
0
 10
-162.209
 20
130.684
 11
-162.12
 21
130.916
  0
LINE
  8
0
 10
-162.12
 20
130.916
 11
-162.007
 21
131.137
  0
LINE
  8
0
 10
-162.007
 20
131.137
 11
-161.871
 21
131.346
  0
LINE
  8
0
 10
-161.871
 20
131.346
 11
-161.715
 21
131.539
  0
LINE
  8
0
 10
-161.715
 20
131.539
 11
-161.539
 21
131.715
  0
LINE
  8
0
 10
-161.539
 20
131.715
 11
-161.346
 21
131.871
  0
LINE
  8
0
 10
-161.346
 20
131.871
 11
-161.137
 21
132.007
  0
LINE
  8
0
 10
-161.137
 20
132.007
 11
-160.916
 21
132.12
  0
LINE
  8
0
 10
-160.916
 20
132.12
 11
-160.684
 21
132.209
  0
LINE
  8
0
 10
-160.684
 20
132.209
 11
-160.444
 21
132.273
  0
LINE
  8
0
 10
-160.444
 20
132.273
 11
-160.198
 21
132.312
  0
LINE
  8
0
 10
-160.198
 20
132.312
 11
-159.95
 21
132.325
  0
LINE
  8
0
 10
-159.95
 20
132.325
 11
-159.702
 21
132.312
  0
LINE
  8
0
 10
-159.702
 20
132.312
 11
-159.456
 21
132.273
  0
LINE
  8
0
 10
-159.456
 20
132.273
 11
-159.216
 21
132.209
  0
LINE
  8
0
 10
-159.216
 20
132.209
 11
-158.984
 21
132.12
  0
LINE
  8
0
 10
-158.984
 20
132.12
 11
-158.762
 21
132.007
  0
LINE
  8
0
 10
-158.762
 20
132.007
 11
-158.554
 21
131.871
  0
LINE
  8
0
 10
-158.554
 20
131.871
 11
-158.361
 21
131.715
  0
LINE
  8
0
 10
-158.361
 20
131.715
 11
-158.185
 21
131.539
  0
LINE
  8
0
 10
-158.185
 20
131.539
 11
-158.029
 21
131.346
  0
LINE
  8
0
 10
-158.029
 20
131.346
 11
-157.893
 21
131.137
  0
LINE
  8
0
 10
-157.893
 20
131.137
 11
-157.78
 21
130.916
  0
LINE
  8
0
 10
-157.78
 20
130.916
 11
-157.691
 21
130.684
  0
LINE
  8
0
 10
-157.691
 20
130.684
 11
-157.627
 21
130.444
  0
LINE
  8
0
 10
-157.627
 20
130.444
 11
-157.588
 21
130.198
  0
LINE
  8
0
 10
-157.588
 20
130.198
 11
-157.575
 21
129.95
  0
LINE
  8
0
 10
-157.575
 20
129.95
 11
-157.588
 21
129.702
  0
LINE
  8
0
 10
-157.588
 20
129.702
 11
-157.627
 21
129.456
  0
LINE
  8
0
 10
-157.627
 20
129.456
 11
-157.691
 21
129.216
  0
LINE
  8
0
 10
-157.691
 20
129.216
 11
-157.78
 21
128.984
  0
LINE
  8
0
 10
-157.78
 20
128.984
 11
-157.893
 21
128.762
  0
LINE
  8
0
 10
-157.893
 20
128.762
 11
-158.029
 21
128.554
  0
LINE
  8
0
 10
-158.029
 20
128.554
 11
-158.185
 21
128.361
  0
LINE
  8
0
 10
-158.185
 20
128.361
 11
-158.361
 21
128.185
  0
LINE
  8
0
 10
-158.361
 20
128.185
 11
-158.554
 21
128.029
  0
LINE
  8
0
 10
-158.554
 20
128.029
 11
-158.762
 21
127.893
  0
LINE
  8
0
 10
-158.762
 20
127.893
 11
-158.984
 21
127.78
  0
LINE
  8
0
 10
-158.984
 20
127.78
 11
-159.216
 21
127.691
  0
LINE
  8
0
 10
-159.216
 20
127.691
 11
-159.456
 21
127.627
  0
LINE
  8
0
 10
-159.456
 20
127.627
 11
-159.702
 21
127.588
  0
LINE
  8
0
 10
-159.702
 20
127.588
 11
-159.95
 21
127.575
  0
LINE
  8
0
 10
-159.95
 20
127.575
 11
-160.198
 21
127.588
  0
LINE
  8
0
 10
49.8761
 20
108.505
 11
49.6318
 21
108.546
  0
LINE
  8
0
 10
49.6318
 20
108.546
 11
49.3974
 21
108.626
  0
LINE
  8
0
 10
49.3974
 20
108.626
 11
49.1796
 21
108.744
  0
LINE
  8
0
 10
49.1796
 20
108.744
 11
48.9841
 21
108.896
  0
LINE
  8
0
 10
48.9841
 20
108.896
 11
48.8163
 21
109.079
  0
LINE
  8
0
 10
48.8163
 20
109.079
 11
48.6808
 21
109.286
  0
LINE
  8
0
 10
48.6808
 20
109.286
 11
48.5813
 21
109.513
  0
LINE
  8
0
 10
48.5813
 20
109.513
 11
48.5204
 21
109.753
  0
LINE
  8
0
 10
48.5204
 20
109.753
 11
48.5
 21
110
  0
LINE
  8
0
 10
48.5
 20
110
 11
48.5204
 21
110.247
  0
LINE
  8
0
 10
48.5204
 20
110.247
 11
48.5813
 21
110.487
  0
LINE
  8
0
 10
48.5813
 20
110.487
 11
48.6808
 21
110.714
  0
LINE
  8
0
 10
48.6808
 20
110.714
 11
48.8163
 21
110.921
  0
LINE
  8
0
 10
48.8163
 20
110.921
 11
48.9841
 21
111.104
  0
LINE
  8
0
 10
48.9841
 20
111.104
 11
49.1796
 21
111.256
  0
LINE
  8
0
 10
49.1796
 20
111.256
 11
49.3974
 21
111.374
  0
LINE
  8
0
 10
49.3974
 20
111.374
 11
49.6318
 21
111.454
  0
LINE
  8
0
 10
49.6318
 20
111.454
 11
49.8761
 21
111.495
  0
LINE
  8
0
 10
49.8761
 20
111.495
 11
128.124
 21
111.495
  0
LINE
  8
0
 10
128.124
 20
111.495
 11
128.368
 21
111.454
  0
LINE
  8
0
 10
128.368
 20
111.454
 11
128.603
 21
111.374
  0
LINE
  8
0
 10
128.603
 20
111.374
 11
128.82
 21
111.256
  0
LINE
  8
0
 10
128.82
 20
111.256
 11
129.016
 21
111.104
  0
LINE
  8
0
 10
129.016
 20
111.104
 11
129.184
 21
110.921
  0
LINE
  8
0
 10
129.184
 20
110.921
 11
129.319
 21
110.714
  0
LINE
  8
0
 10
129.319
 20
110.714
 11
129.419
 21
110.487
  0
LINE
  8
0
 10
129.419
 20
110.487
 11
129.48
 21
110.247
  0
LINE
  8
0
 10
129.48
 20
110.247
 11
129.5
 21
110
  0
LINE
  8
0
 10
129.5
 20
110
 11
129.48
 21
109.753
  0
LINE
  8
0
 10
129.48
 20
109.753
 11
129.419
 21
109.513
  0
LINE
  8
0
 10
129.419
 20
109.513
 11
129.319
 21
109.286
  0
LINE
  8
0
 10
129.319
 20
109.286
 11
129.184
 21
109.079
  0
LINE
  8
0
 10
129.184
 20
109.079
 11
129.016
 21
108.896
  0
LINE
  8
0
 10
129.016
 20
108.896
 11
128.82
 21
108.744
  0
LINE
  8
0
 10
128.82
 20
108.744
 11
128.603
 21
108.626
  0
LINE
  8
0
 10
128.603
 20
108.626
 11
128.368
 21
108.546
  0
LINE
  8
0
 10
128.368
 20
108.546
 11
128.124
 21
108.505
  0
LINE
  8
0
 10
128.124
 20
108.505
 11
49.8761
 21
108.505
  0
LINE
  8
0
 10
49.8761
 20
101.005
 11
49.6318
 21
101.046
  0
LINE
  8
0
 10
49.6318
 20
101.046
 11
49.3974
 21
101.126
  0
LINE
  8
0
 10
49.3974
 20
101.126
 11
49.1796
 21
101.244
  0
LINE
  8
0
 10
49.1796
 20
101.244
 11
48.9841
 21
101.396
  0
LINE
  8
0
 10
48.9841
 20
101.396
 11
48.8163
 21
101.579
  0
LINE
  8
0
 10
48.8163
 20
101.579
 11
48.6808
 21
101.786
  0
LINE
  8
0
 10
48.6808
 20
101.786
 11
48.5813
 21
102.013
  0
LINE
  8
0
 10
48.5813
 20
102.013
 11
48.5204
 21
102.253
  0
LINE
  8
0
 10
48.5204
 20
102.253
 11
48.5
 21
102.5
  0
LINE
  8
0
 10
48.5
 20
102.5
 11
48.5204
 21
102.747
  0
LINE
  8
0
 10
48.5204
 20
102.747
 11
48.5813
 21
102.987
  0
LINE
  8
0
 10
48.5813
 20
102.987
 11
48.6808
 21
103.214
  0
LINE
  8
0
 10
48.6808
 20
103.214
 11
48.8163
 21
103.421
  0
LINE
  8
0
 10
48.8163
 20
103.421
 11
48.9841
 21
103.604
  0
LINE
  8
0
 10
48.9841
 20
103.604
 11
49.1796
 21
103.756
  0
LINE
  8
0
 10
49.1796
 20
103.756
 11
49.3974
 21
103.874
  0
LINE
  8
0
 10
49.3974
 20
103.874
 11
49.6318
 21
103.954
  0
LINE
  8
0
 10
49.6318
 20
103.954
 11
49.8761
 21
103.995
  0
LINE
  8
0
 10
49.8761
 20
103.995
 11
128.124
 21
103.995
  0
LINE
  8
0
 10
128.124
 20
103.995
 11
128.368
 21
103.954
  0
LINE
  8
0
 10
128.368
 20
103.954
 11
128.603
 21
103.874
  0
LINE
  8
0
 10
128.603
 20
103.874
 11
128.82
 21
103.756
  0
LINE
  8
0
 10
128.82
 20
103.756
 11
129.016
 21
103.604
  0
LINE
  8
0
 10
129.016
 20
103.604
 11
129.184
 21
103.421
  0
LINE
  8
0
 10
129.184
 20
103.421
 11
129.319
 21
103.214
  0
LINE
  8
0
 10
129.319
 20
103.214
 11
129.419
 21
102.987
  0
LINE
  8
0
 10
129.419
 20
102.987
 11
129.48
 21
102.747
  0
LINE
  8
0
 10
129.48
 20
102.747
 11
129.5
 21
102.5
  0
LINE
  8
0
 10
129.5
 20
102.5
 11
129.48
 21
102.253
  0
LINE
  8
0
 10
129.48
 20
102.253
 11
129.419
 21
102.013
  0
LINE
  8
0
 10
129.419
 20
102.013
 11
129.319
 21
101.786
  0
LINE
  8
0
 10
129.319
 20
101.786
 11
129.184
 21
101.579
  0
LINE
  8
0
 10
129.184
 20
101.579
 11
129.016
 21
101.396
  0
LINE
  8
0
 10
129.016
 20
101.396
 11
128.82
 21
101.244
  0
LINE
  8
0
 10
128.82
 20
101.244
 11
128.603
 21
101.126
  0
LINE
  8
0
 10
128.603
 20
101.126
 11
128.368
 21
101.046
  0
LINE
  8
0
 10
128.368
 20
101.046
 11
128.124
 21
101.005
  0
LINE
  8
0
 10
128.124
 20
101.005
 11
49.8761
 21
101.005
  0
LINE
  8
0
 10
49.8761
 20
93.5051
 11
49.6318
 21
93.5459
  0
LINE
  8
0
 10
49.6318
 20
93.5459
 11
49.3974
 21
93.6263
  0
LINE
  8
0
 10
49.3974
 20
93.6263
 11
49.1796
 21
93.7442
  0
LINE
  8
0
 10
49.1796
 20
93.7442
 11
48.9841
 21
93.8964
  0
LINE
  8
0
 10
48.9841
 20
93.8964
 11
48.8163
 21
94.0787
  0
LINE
  8
0
 10
48.8163
 20
94.0787
 11
48.6808
 21
94.2861
  0
LINE
  8
0
 10
48.6808
 20
94.2861
 11
48.5813
 21
94.513
  0
LINE
  8
0
 10
48.5813
 20
94.513
 11
48.5204
 21
94.7531
  0
LINE
  8
0
 10
48.5204
 20
94.7531
 11
48.5
 21
95
  0
LINE
  8
0
 10
48.5
 20
95
 11
48.5204
 21
95.2469
  0
LINE
  8
0
 10
48.5204
 20
95.2469
 11
48.5813
 21
95.487
  0
LINE
  8
0
 10
48.5813
 20
95.487
 11
48.6808
 21
95.7139
  0
LINE
  8
0
 10
48.6808
 20
95.7139
 11
48.8163
 21
95.9213
  0
LINE
  8
0
 10
48.8163
 20
95.9213
 11
48.9841
 21
96.1036
  0
LINE
  8
0
 10
48.9841
 20
96.1036
 11
49.1796
 21
96.2558
  0
LINE
  8
0
 10
49.1796
 20
96.2558
 11
49.3974
 21
96.3737
  0
LINE
  8
0
 10
49.3974
 20
96.3737
 11
49.6318
 21
96.4541
  0
LINE
  8
0
 10
49.6318
 20
96.4541
 11
49.8761
 21
96.4949
  0
LINE
  8
0
 10
49.8761
 20
96.4949
 11
128.124
 21
96.4949
  0
LINE
  8
0
 10
128.124
 20
96.4949
 11
128.368
 21
96.4541
  0
LINE
  8
0
 10
128.368
 20
96.4541
 11
128.603
 21
96.3737
  0
LINE
  8
0
 10
128.603
 20
96.3737
 11
128.82
 21
96.2558
  0
LINE
  8
0
 10
128.82
 20
96.2558
 11
129.016
 21
96.1036
  0
LINE
  8
0
 10
129.016
 20
96.1036
 11
129.184
 21
95.9213
  0
LINE
  8
0
 10
129.184
 20
95.9213
 11
129.319
 21
95.7139
  0
LINE
  8
0
 10
129.319
 20
95.7139
 11
129.419
 21
95.487
  0
LINE
  8
0
 10
129.419
 20
95.487
 11
129.48
 21
95.2469
  0
LINE
  8
0
 10
129.48
 20
95.2469
 11
129.5
 21
95
  0
LINE
  8
0
 10
129.5
 20
95
 11
129.48
 21
94.7531
  0
LINE
  8
0
 10
129.48
 20
94.7531
 11
129.419
 21
94.513
  0
LINE
  8
0
 10
129.419
 20
94.513
 11
129.319
 21
94.2861
  0
LINE
  8
0
 10
129.319
 20
94.2861
 11
129.184
 21
94.0787
  0
LINE
  8
0
 10
129.184
 20
94.0787
 11
129.016
 21
93.8964
  0
LINE
  8
0
 10
129.016
 20
93.8964
 11
128.82
 21
93.7442
  0
LINE
  8
0
 10
128.82
 20
93.7442
 11
128.603
 21
93.6263
  0
LINE
  8
0
 10
128.603
 20
93.6263
 11
128.368
 21
93.5459
  0
LINE
  8
0
 10
128.368
 20
93.5459
 11
128.124
 21
93.5051
  0
LINE
  8
0
 10
128.124
 20
93.5051
 11
49.8761
 21
93.5051
  0
LINE
  8
0
 10
49.8761
 20
86.0051
 11
49.6318
 21
86.0459
  0
LINE
  8
0
 10
49.6318
 20
86.0459
 11
49.3974
 21
86.1263
  0
LINE
  8
0
 10
49.3974
 20
86.1263
 11
49.1796
 21
86.2442
  0
LINE
  8
0
 10
49.1796
 20
86.2442
 11
48.9841
 21
86.3964
  0
LINE
  8
0
 10
48.9841
 20
86.3964
 11
48.8163
 21
86.5787
  0
LINE
  8
0
 10
48.8163
 20
86.5787
 11
48.6808
 21
86.7861
  0
LINE
  8
0
 10
48.6808
 20
86.7861
 11
48.5813
 21
87.013
  0
LINE
  8
0
 10
48.5813
 20
87.013
 11
48.5204
 21
87.2531
  0
LINE
  8
0
 10
48.5204
 20
87.2531
 11
48.5
 21
87.5
  0
LINE
  8
0
 10
48.5
 20
87.5
 11
48.5204
 21
87.7469
  0
LINE
  8
0
 10
48.5204
 20
87.7469
 11
48.5813
 21
87.987
  0
LINE
  8
0
 10
48.5813
 20
87.987
 11
48.6808
 21
88.2139
  0
LINE
  8
0
 10
48.6808
 20
88.2139
 11
48.8163
 21
88.4213
  0
LINE
  8
0
 10
48.8163
 20
88.4213
 11
48.9841
 21
88.6036
  0
LINE
  8
0
 10
48.9841
 20
88.6036
 11
49.1796
 21
88.7558
  0
LINE
  8
0
 10
49.1796
 20
88.7558
 11
49.3974
 21
88.8737
  0
LINE
  8
0
 10
49.3974
 20
88.8737
 11
49.6318
 21
88.9541
  0
LINE
  8
0
 10
49.6318
 20
88.9541
 11
49.8761
 21
88.9949
  0
LINE
  8
0
 10
49.8761
 20
88.9949
 11
128.124
 21
88.9949
  0
LINE
  8
0
 10
128.124
 20
88.9949
 11
128.368
 21
88.9541
  0
LINE
  8
0
 10
128.368
 20
88.9541
 11
128.603
 21
88.8737
  0
LINE
  8
0
 10
128.603
 20
88.8737
 11
128.82
 21
88.7558
  0
LINE
  8
0
 10
128.82
 20
88.7558
 11
129.016
 21
88.6036
  0
LINE
  8
0
 10
129.016
 20
88.6036
 11
129.184
 21
88.4213
  0
LINE
  8
0
 10
129.184
 20
88.4213
 11
129.319
 21
88.2139
  0
LINE
  8
0
 10
129.319
 20
88.2139
 11
129.419
 21
87.987
  0
LINE
  8
0
 10
129.419
 20
87.987
 11
129.48
 21
87.7469
  0
LINE
  8
0
 10
129.48
 20
87.7469
 11
129.5
 21
87.5
  0
LINE
  8
0
 10
129.5
 20
87.5
 11
129.48
 21
87.2531
  0
LINE
  8
0
 10
129.48
 20
87.2531
 11
129.419
 21
87.013
  0
LINE
  8
0
 10
129.419
 20
87.013
 11
129.319
 21
86.7861
  0
LINE
  8
0
 10
129.319
 20
86.7861
 11
129.184
 21
86.5787
  0
LINE
  8
0
 10
129.184
 20
86.5787
 11
129.016
 21
86.3964
  0
LINE
  8
0
 10
129.016
 20
86.3964
 11
128.82
 21
86.2442
  0
LINE
  8
0
 10
128.82
 20
86.2442
 11
128.603
 21
86.1263
  0
LINE
  8
0
 10
128.603
 20
86.1263
 11
128.368
 21
86.0459
  0
LINE
  8
0
 10
128.368
 20
86.0459
 11
128.124
 21
86.0051
  0
LINE
  8
0
 10
128.124
 20
86.0051
 11
49.8761
 21
86.0051
  0
LINE
  8
0
 10
49.8761
 20
78.5051
 11
49.6318
 21
78.5459
  0
LINE
  8
0
 10
49.6318
 20
78.5459
 11
49.3974
 21
78.6263
  0
LINE
  8
0
 10
49.3974
 20
78.6263
 11
49.1796
 21
78.7442
  0
LINE
  8
0
 10
49.1796
 20
78.7442
 11
48.9841
 21
78.8964
  0
LINE
  8
0
 10
48.9841
 20
78.8964
 11
48.8163
 21
79.0787
  0
LINE
  8
0
 10
48.8163
 20
79.0787
 11
48.6808
 21
79.2861
  0
LINE
  8
0
 10
48.6808
 20
79.2861
 11
48.5813
 21
79.513
  0
LINE
  8
0
 10
48.5813
 20
79.513
 11
48.5204
 21
79.7531
  0
LINE
  8
0
 10
48.5204
 20
79.7531
 11
48.5
 21
80
  0
LINE
  8
0
 10
48.5
 20
80
 11
48.5204
 21
80.2469
  0
LINE
  8
0
 10
48.5204
 20
80.2469
 11
48.5813
 21
80.487
  0
LINE
  8
0
 10
48.5813
 20
80.487
 11
48.6808
 21
80.7139
  0
LINE
  8
0
 10
48.6808
 20
80.7139
 11
48.8163
 21
80.9213
  0
LINE
  8
0
 10
48.8163
 20
80.9213
 11
48.9841
 21
81.1036
  0
LINE
  8
0
 10
48.9841
 20
81.1036
 11
49.1796
 21
81.2558
  0
LINE
  8
0
 10
49.1796
 20
81.2558
 11
49.3974
 21
81.3737
  0
LINE
  8
0
 10
49.3974
 20
81.3737
 11
49.6318
 21
81.4541
  0
LINE
  8
0
 10
49.6318
 20
81.4541
 11
49.8761
 21
81.4949
  0
LINE
  8
0
 10
49.8761
 20
81.4949
 11
128.124
 21
81.4949
  0
LINE
  8
0
 10
128.124
 20
81.4949
 11
128.368
 21
81.4541
  0
LINE
  8
0
 10
128.368
 20
81.4541
 11
128.603
 21
81.3737
  0
LINE
  8
0
 10
128.603
 20
81.3737
 11
128.82
 21
81.2558
  0
LINE
  8
0
 10
128.82
 20
81.2558
 11
129.016
 21
81.1036
  0
LINE
  8
0
 10
129.016
 20
81.1036
 11
129.184
 21
80.9213
  0
LINE
  8
0
 10
129.184
 20
80.9213
 11
129.319
 21
80.7139
  0
LINE
  8
0
 10
129.319
 20
80.7139
 11
129.419
 21
80.487
  0
LINE
  8
0
 10
129.419
 20
80.487
 11
129.48
 21
80.2469
  0
LINE
  8
0
 10
129.48
 20
80.2469
 11
129.5
 21
80
  0
LINE
  8
0
 10
129.5
 20
80
 11
129.48
 21
79.7531
  0
LINE
  8
0
 10
129.48
 20
79.7531
 11
129.419
 21
79.513
  0
LINE
  8
0
 10
129.419
 20
79.513
 11
129.319
 21
79.2861
  0
LINE
  8
0
 10
129.319
 20
79.2861
 11
129.184
 21
79.0787
  0
LINE
  8
0
 10
129.184
 20
79.0787
 11
129.016
 21
78.8964
  0
LINE
  8
0
 10
129.016
 20
78.8964
 11
128.82
 21
78.7442
  0
LINE
  8
0
 10
128.82
 20
78.7442
 11
128.603
 21
78.6263
  0
LINE
  8
0
 10
128.603
 20
78.6263
 11
128.368
 21
78.5459
  0
LINE
  8
0
 10
128.368
 20
78.5459
 11
128.124
 21
78.5051
  0
LINE
  8
0
 10
128.124
 20
78.5051
 11
49.8761
 21
78.5051
  0
LINE
  8
0
 10
49.8761
 20
71.0051
 11
49.6318
 21
71.0459
  0
LINE
  8
0
 10
49.6318
 20
71.0459
 11
49.3974
 21
71.1263
  0
LINE
  8
0
 10
49.3974
 20
71.1263
 11
49.1796
 21
71.2442
  0
LINE
  8
0
 10
49.1796
 20
71.2442
 11
48.9841
 21
71.3964
  0
LINE
  8
0
 10
48.9841
 20
71.3964
 11
48.8163
 21
71.5787
  0
LINE
  8
0
 10
48.8163
 20
71.5787
 11
48.6808
 21
71.7861
  0
LINE
  8
0
 10
48.6808
 20
71.7861
 11
48.5813
 21
72.013
  0
LINE
  8
0
 10
48.5813
 20
72.013
 11
48.5204
 21
72.2531
  0
LINE
  8
0
 10
48.5204
 20
72.2531
 11
48.5
 21
72.5
  0
LINE
  8
0
 10
48.5
 20
72.5
 11
48.5204
 21
72.7469
  0
LINE
  8
0
 10
48.5204
 20
72.7469
 11
48.5813
 21
72.987
  0
LINE
  8
0
 10
48.5813
 20
72.987
 11
48.6808
 21
73.2139
  0
LINE
  8
0
 10
48.6808
 20
73.2139
 11
48.8163
 21
73.4213
  0
LINE
  8
0
 10
48.8163
 20
73.4213
 11
48.9841
 21
73.6036
  0
LINE
  8
0
 10
48.9841
 20
73.6036
 11
49.1796
 21
73.7558
  0
LINE
  8
0
 10
49.1796
 20
73.7558
 11
49.3974
 21
73.8737
  0
LINE
  8
0
 10
49.3974
 20
73.8737
 11
49.6318
 21
73.9541
  0
LINE
  8
0
 10
49.6318
 20
73.9541
 11
49.8761
 21
73.9949
  0
LINE
  8
0
 10
49.8761
 20
73.9949
 11
128.124
 21
73.9949
  0
LINE
  8
0
 10
128.124
 20
73.9949
 11
128.368
 21
73.9541
  0
LINE
  8
0
 10
128.368
 20
73.9541
 11
128.603
 21
73.8737
  0
LINE
  8
0
 10
128.603
 20
73.8737
 11
128.82
 21
73.7558
  0
LINE
  8
0
 10
128.82
 20
73.7558
 11
129.016
 21
73.6036
  0
LINE
  8
0
 10
129.016
 20
73.6036
 11
129.184
 21
73.4213
  0
LINE
  8
0
 10
129.184
 20
73.4213
 11
129.319
 21
73.2139
  0
LINE
  8
0
 10
129.319
 20
73.2139
 11
129.419
 21
72.987
  0
LINE
  8
0
 10
129.419
 20
72.987
 11
129.48
 21
72.7469
  0
LINE
  8
0
 10
129.48
 20
72.7469
 11
129.5
 21
72.5
  0
LINE
  8
0
 10
129.5
 20
72.5
 11
129.48
 21
72.2531
  0
LINE
  8
0
 10
129.48
 20
72.2531
 11
129.419
 21
72.013
  0
LINE
  8
0
 10
129.419
 20
72.013
 11
129.319
 21
71.7861
  0
LINE
  8
0
 10
129.319
 20
71.7861
 11
129.184
 21
71.5787
  0
LINE
  8
0
 10
129.184
 20
71.5787
 11
129.016
 21
71.3964
  0
LINE
  8
0
 10
129.016
 20
71.3964
 11
128.82
 21
71.2442
  0
LINE
  8
0
 10
128.82
 20
71.2442
 11
128.603
 21
71.1263
  0
LINE
  8
0
 10
128.603
 20
71.1263
 11
128.368
 21
71.0459
  0
LINE
  8
0
 10
128.368
 20
71.0459
 11
128.124
 21
71.0051
  0
LINE
  8
0
 10
128.124
 20
71.0051
 11
49.8761
 21
71.0051
  0
LINE
  8
0
 10
49.8761
 20
63.5051
 11
49.6318
 21
63.5459
  0
LINE
  8
0
 10
49.6318
 20
63.5459
 11
49.3974
 21
63.6263
  0
LINE
  8
0
 10
49.3974
 20
63.6263
 11
49.1796
 21
63.7442
  0
LINE
  8
0
 10
49.1796
 20
63.7442
 11
48.9841
 21
63.8964
  0
LINE
  8
0
 10
48.9841
 20
63.8964
 11
48.8163
 21
64.0787
  0
LINE
  8
0
 10
48.8163
 20
64.0787
 11
48.6808
 21
64.2861
  0
LINE
  8
0
 10
48.6808
 20
64.2861
 11
48.5813
 21
64.513
  0
LINE
  8
0
 10
48.5813
 20
64.513
 11
48.5204
 21
64.7531
  0
LINE
  8
0
 10
48.5204
 20
64.7531
 11
48.5
 21
65
  0
LINE
  8
0
 10
48.5
 20
65
 11
48.5204
 21
65.2469
  0
LINE
  8
0
 10
48.5204
 20
65.2469
 11
48.5813
 21
65.487
  0
LINE
  8
0
 10
48.5813
 20
65.487
 11
48.6808
 21
65.7139
  0
LINE
  8
0
 10
48.6808
 20
65.7139
 11
48.8163
 21
65.9213
  0
LINE
  8
0
 10
48.8163
 20
65.9213
 11
48.9841
 21
66.1036
  0
LINE
  8
0
 10
48.9841
 20
66.1036
 11
49.1796
 21
66.2558
  0
LINE
  8
0
 10
49.1796
 20
66.2558
 11
49.3974
 21
66.3737
  0
LINE
  8
0
 10
49.3974
 20
66.3737
 11
49.6318
 21
66.4541
  0
LINE
  8
0
 10
49.6318
 20
66.4541
 11
49.8761
 21
66.4949
  0
LINE
  8
0
 10
49.8761
 20
66.4949
 11
128.124
 21
66.4949
  0
LINE
  8
0
 10
128.124
 20
66.4949
 11
128.368
 21
66.4541
  0
LINE
  8
0
 10
128.368
 20
66.4541
 11
128.603
 21
66.3737
  0
LINE
  8
0
 10
128.603
 20
66.3737
 11
128.82
 21
66.2558
  0
LINE
  8
0
 10
128.82
 20
66.2558
 11
129.016
 21
66.1036
  0
LINE
  8
0
 10
129.016
 20
66.1036
 11
129.184
 21
65.9213
  0
LINE
  8
0
 10
129.184
 20
65.9213
 11
129.319
 21
65.7139
  0
LINE
  8
0
 10
129.319
 20
65.7139
 11
129.419
 21
65.487
  0
LINE
  8
0
 10
129.419
 20
65.487
 11
129.48
 21
65.2469
  0
LINE
  8
0
 10
129.48
 20
65.2469
 11
129.5
 21
65
  0
LINE
  8
0
 10
129.5
 20
65
 11
129.48
 21
64.7531
  0
LINE
  8
0
 10
129.48
 20
64.7531
 11
129.419
 21
64.513
  0
LINE
  8
0
 10
129.419
 20
64.513
 11
129.319
 21
64.2861
  0
LINE
  8
0
 10
129.319
 20
64.2861
 11
129.184
 21
64.0787
  0
LINE
  8
0
 10
129.184
 20
64.0787
 11
129.016
 21
63.8964
  0
LINE
  8
0
 10
129.016
 20
63.8964
 11
128.82
 21
63.7442
  0
LINE
  8
0
 10
128.82
 20
63.7442
 11
128.603
 21
63.6263
  0
LINE
  8
0
 10
128.603
 20
63.6263
 11
128.368
 21
63.5459
  0
LINE
  8
0
 10
128.368
 20
63.5459
 11
128.124
 21
63.5051
  0
LINE
  8
0
 10
128.124
 20
63.5051
 11
49.8761
 21
63.5051
  0
LINE
  8
0
 10
49.8761
 20
56.0051
 11
49.6318
 21
56.0459
  0
LINE
  8
0
 10
49.6318
 20
56.0459
 11
49.3974
 21
56.1263
  0
LINE
  8
0
 10
49.3974
 20
56.1263
 11
49.1796
 21
56.2442
  0
LINE
  8
0
 10
49.1796
 20
56.2442
 11
48.9841
 21
56.3964
  0
LINE
  8
0
 10
48.9841
 20
56.3964
 11
48.8163
 21
56.5787
  0
LINE
  8
0
 10
48.8163
 20
56.5787
 11
48.6808
 21
56.7861
  0
LINE
  8
0
 10
48.6808
 20
56.7861
 11
48.5813
 21
57.0129
  0
LINE
  8
0
 10
48.5813
 20
57.0129
 11
48.5204
 21
57.2531
  0
LINE
  8
0
 10
48.5204
 20
57.2531
 11
48.5
 21
57.5
  0
LINE
  8
0
 10
48.5
 20
57.5
 11
48.5204
 21
57.7469
  0
LINE
  8
0
 10
48.5204
 20
57.7469
 11
48.5813
 21
57.987
  0
LINE
  8
0
 10
48.5813
 20
57.987
 11
48.6808
 21
58.2139
  0
LINE
  8
0
 10
48.6808
 20
58.2139
 11
48.8163
 21
58.4213
  0
LINE
  8
0
 10
48.8163
 20
58.4213
 11
48.9841
 21
58.6036
  0
LINE
  8
0
 10
48.9841
 20
58.6036
 11
49.1796
 21
58.7558
  0
LINE
  8
0
 10
49.1796
 20
58.7558
 11
49.3974
 21
58.8737
  0
LINE
  8
0
 10
49.3974
 20
58.8737
 11
49.6318
 21
58.9541
  0
LINE
  8
0
 10
49.6318
 20
58.9541
 11
49.8761
 21
58.9949
  0
LINE
  8
0
 10
49.8761
 20
58.9949
 11
128.124
 21
58.9949
  0
LINE
  8
0
 10
128.124
 20
58.9949
 11
128.368
 21
58.9541
  0
LINE
  8
0
 10
128.368
 20
58.9541
 11
128.603
 21
58.8737
  0
LINE
  8
0
 10
128.603
 20
58.8737
 11
128.82
 21
58.7558
  0
LINE
  8
0
 10
128.82
 20
58.7558
 11
129.016
 21
58.6036
  0
LINE
  8
0
 10
129.016
 20
58.6036
 11
129.184
 21
58.4213
  0
LINE
  8
0
 10
129.184
 20
58.4213
 11
129.319
 21
58.2139
  0
LINE
  8
0
 10
129.319
 20
58.2139
 11
129.419
 21
57.987
  0
LINE
  8
0
 10
129.419
 20
57.987
 11
129.48
 21
57.7469
  0
LINE
  8
0
 10
129.48
 20
57.7469
 11
129.5
 21
57.5
  0
LINE
  8
0
 10
129.5
 20
57.5
 11
129.48
 21
57.2531
  0
LINE
  8
0
 10
129.48
 20
57.2531
 11
129.419
 21
57.0129
  0
LINE
  8
0
 10
129.419
 20
57.0129
 11
129.319
 21
56.7861
  0
LINE
  8
0
 10
129.319
 20
56.7861
 11
129.184
 21
56.5787
  0
LINE
  8
0
 10
129.184
 20
56.5787
 11
129.016
 21
56.3964
  0
LINE
  8
0
 10
129.016
 20
56.3964
 11
128.82
 21
56.2442
  0
LINE
  8
0
 10
128.82
 20
56.2442
 11
128.603
 21
56.1263
  0
LINE
  8
0
 10
128.603
 20
56.1263
 11
128.368
 21
56.0459
  0
LINE
  8
0
 10
128.368
 20
56.0459
 11
128.124
 21
56.0051
  0
LINE
  8
0
 10
128.124
 20
56.0051
 11
49.8761
 21
56.0051
  0
LINE
  8
0
 10
49.8761
 20
48.5051
 11
49.6318
 21
48.5459
  0
LINE
  8
0
 10
49.6318
 20
48.5459
 11
49.3974
 21
48.6263
  0
LINE
  8
0
 10
49.3974
 20
48.6263
 11
49.1796
 21
48.7442
  0
LINE
  8
0
 10
49.1796
 20
48.7442
 11
48.9841
 21
48.8964
  0
LINE
  8
0
 10
48.9841
 20
48.8964
 11
48.8163
 21
49.0787
  0
LINE
  8
0
 10
48.8163
 20
49.0787
 11
48.6808
 21
49.2861
  0
LINE
  8
0
 10
48.6808
 20
49.2861
 11
48.5813
 21
49.5129
  0
LINE
  8
0
 10
48.5813
 20
49.5129
 11
48.5204
 21
49.7531
  0
LINE
  8
0
 10
48.5204
 20
49.7531
 11
48.5
 21
50
  0
LINE
  8
0
 10
48.5
 20
50
 11
48.5204
 21
50.2469
  0
LINE
  8
0
 10
48.5204
 20
50.2469
 11
48.5813
 21
50.487
  0
LINE
  8
0
 10
48.5813
 20
50.487
 11
48.6808
 21
50.7139
  0
LINE
  8
0
 10
48.6808
 20
50.7139
 11
48.8163
 21
50.9213
  0
LINE
  8
0
 10
48.8163
 20
50.9213
 11
48.9841
 21
51.1036
  0
LINE
  8
0
 10
48.9841
 20
51.1036
 11
49.1796
 21
51.2558
  0
LINE
  8
0
 10
49.1796
 20
51.2558
 11
49.3974
 21
51.3737
  0
LINE
  8
0
 10
49.3974
 20
51.3737
 11
49.6318
 21
51.4541
  0
LINE
  8
0
 10
49.6318
 20
51.4541
 11
49.8761
 21
51.4949
  0
LINE
  8
0
 10
49.8761
 20
51.4949
 11
128.124
 21
51.4949
  0
LINE
  8
0
 10
128.124
 20
51.4949
 11
128.368
 21
51.4541
  0
LINE
  8
0
 10
128.368
 20
51.4541
 11
128.603
 21
51.3737
  0
LINE
  8
0
 10
128.603
 20
51.3737
 11
128.82
 21
51.2558
  0
LINE
  8
0
 10
128.82
 20
51.2558
 11
129.016
 21
51.1036
  0
LINE
  8
0
 10
129.016
 20
51.1036
 11
129.184
 21
50.9213
  0
LINE
  8
0
 10
129.184
 20
50.9213
 11
129.319
 21
50.7139
  0
LINE
  8
0
 10
129.319
 20
50.7139
 11
129.419
 21
50.487
  0
LINE
  8
0
 10
129.419
 20
50.487
 11
129.48
 21
50.2469
  0
LINE
  8
0
 10
129.48
 20
50.2469
 11
129.5
 21
50
  0
LINE
  8
0
 10
129.5
 20
50
 11
129.48
 21
49.7531
  0
LINE
  8
0
 10
129.48
 20
49.7531
 11
129.419
 21
49.5129
  0
LINE
  8
0
 10
129.419
 20
49.5129
 11
129.319
 21
49.2861
  0
LINE
  8
0
 10
129.319
 20
49.2861
 11
129.184
 21
49.0787
  0
LINE
  8
0
 10
129.184
 20
49.0787
 11
129.016
 21
48.8964
  0
LINE
  8
0
 10
129.016
 20
48.8964
 11
128.82
 21
48.7442
  0
LINE
  8
0
 10
128.82
 20
48.7442
 11
128.603
 21
48.6263
  0
LINE
  8
0
 10
128.603
 20
48.6263
 11
128.368
 21
48.5459
  0
LINE
  8
0
 10
128.368
 20
48.5459
 11
128.124
 21
48.5051
  0
LINE
  8
0
 10
128.124
 20
48.5051
 11
49.8761
 21
48.5051
  0
LINE
  8
0
 10
49.8761
 20
41.0051
 11
49.6318
 21
41.0459
  0
LINE
  8
0
 10
49.6318
 20
41.0459
 11
49.3974
 21
41.1263
  0
LINE
  8
0
 10
49.3974
 20
41.1263
 11
49.1796
 21
41.2442
  0
LINE
  8
0
 10
49.1796
 20
41.2442
 11
48.9841
 21
41.3964
  0
LINE
  8
0
 10
48.9841
 20
41.3964
 11
48.8163
 21
41.5787
  0
LINE
  8
0
 10
48.8163
 20
41.5787
 11
48.6808
 21
41.7861
  0
LINE
  8
0
 10
48.6808
 20
41.7861
 11
48.5813
 21
42.0129
  0
LINE
  8
0
 10
48.5813
 20
42.0129
 11
48.5204
 21
42.2531
  0
LINE
  8
0
 10
48.5204
 20
42.2531
 11
48.5
 21
42.5
  0
LINE
  8
0
 10
48.5
 20
42.5
 11
48.5204
 21
42.7469
  0
LINE
  8
0
 10
48.5204
 20
42.7469
 11
48.5813
 21
42.987
  0
LINE
  8
0
 10
48.5813
 20
42.987
 11
48.6808
 21
43.2139
  0
LINE
  8
0
 10
48.6808
 20
43.2139
 11
48.8163
 21
43.4213
  0
LINE
  8
0
 10
48.8163
 20
43.4213
 11
48.9841
 21
43.6036
  0
LINE
  8
0
 10
48.9841
 20
43.6036
 11
49.1796
 21
43.7558
  0
LINE
  8
0
 10
49.1796
 20
43.7558
 11
49.3974
 21
43.8737
  0
LINE
  8
0
 10
49.3974
 20
43.8737
 11
49.6318
 21
43.9541
  0
LINE
  8
0
 10
49.6318
 20
43.9541
 11
49.8761
 21
43.9949
  0
LINE
  8
0
 10
49.8761
 20
43.9949
 11
128.124
 21
43.9949
  0
LINE
  8
0
 10
128.124
 20
43.9949
 11
128.368
 21
43.9541
  0
LINE
  8
0
 10
128.368
 20
43.9541
 11
128.603
 21
43.8737
  0
LINE
  8
0
 10
128.603
 20
43.8737
 11
128.82
 21
43.7558
  0
LINE
  8
0
 10
128.82
 20
43.7558
 11
129.016
 21
43.6036
  0
LINE
  8
0
 10
129.016
 20
43.6036
 11
129.184
 21
43.4213
  0
LINE
  8
0
 10
129.184
 20
43.4213
 11
129.319
 21
43.2139
  0
LINE
  8
0
 10
129.319
 20
43.2139
 11
129.419
 21
42.987
  0
LINE
  8
0
 10
129.419
 20
42.987
 11
129.48
 21
42.7469
  0
LINE
  8
0
 10
129.48
 20
42.7469
 11
129.5
 21
42.5
  0
LINE
  8
0
 10
129.5
 20
42.5
 11
129.48
 21
42.2531
  0
LINE
  8
0
 10
129.48
 20
42.2531
 11
129.419
 21
42.0129
  0
LINE
  8
0
 10
129.419
 20
42.0129
 11
129.319
 21
41.7861
  0
LINE
  8
0
 10
129.319
 20
41.7861
 11
129.184
 21
41.5787
  0
LINE
  8
0
 10
129.184
 20
41.5787
 11
129.016
 21
41.3964
  0
LINE
  8
0
 10
129.016
 20
41.3964
 11
128.82
 21
41.2442
  0
LINE
  8
0
 10
128.82
 20
41.2442
 11
128.603
 21
41.1263
  0
LINE
  8
0
 10
128.603
 20
41.1263
 11
128.368
 21
41.0459
  0
LINE
  8
0
 10
128.368
 20
41.0459
 11
128.124
 21
41.0051
  0
LINE
  8
0
 10
128.124
 20
41.0051
 11
49.8761
 21
41.0051
  0
LINE
  8
0
 10
49.8761
 20
33.5051
 11
49.6318
 21
33.5459
  0
LINE
  8
0
 10
49.6318
 20
33.5459
 11
49.3974
 21
33.6263
  0
LINE
  8
0
 10
49.3974
 20
33.6263
 11
49.1796
 21
33.7442
  0
LINE
  8
0
 10
49.1796
 20
33.7442
 11
48.9841
 21
33.8964
  0
LINE
  8
0
 10
48.9841
 20
33.8964
 11
48.8163
 21
34.0787
  0
LINE
  8
0
 10
48.8163
 20
34.0787
 11
48.6808
 21
34.2861
  0
LINE
  8
0
 10
48.6808
 20
34.2861
 11
48.5813
 21
34.5129
  0
LINE
  8
0
 10
48.5813
 20
34.5129
 11
48.5204
 21
34.7531
  0
LINE
  8
0
 10
48.5204
 20
34.7531
 11
48.5
 21
35
  0
LINE
  8
0
 10
48.5
 20
35
 11
48.5204
 21
35.2469
  0
LINE
  8
0
 10
48.5204
 20
35.2469
 11
48.5813
 21
35.487
  0
LINE
  8
0
 10
48.5813
 20
35.487
 11
48.6808
 21
35.7139
  0
LINE
  8
0
 10
48.6808
 20
35.7139
 11
48.8163
 21
35.9213
  0
LINE
  8
0
 10
48.8163
 20
35.9213
 11
48.9841
 21
36.1036
  0
LINE
  8
0
 10
48.9841
 20
36.1036
 11
49.1796
 21
36.2558
  0
LINE
  8
0
 10
49.1796
 20
36.2558
 11
49.3974
 21
36.3737
  0
LINE
  8
0
 10
49.3974
 20
36.3737
 11
49.6318
 21
36.4541
  0
LINE
  8
0
 10
49.6318
 20
36.4541
 11
49.8761
 21
36.4949
  0
LINE
  8
0
 10
49.8761
 20
36.4949
 11
128.124
 21
36.4949
  0
LINE
  8
0
 10
128.124
 20
36.4949
 11
128.368
 21
36.4541
  0
LINE
  8
0
 10
128.368
 20
36.4541
 11
128.603
 21
36.3737
  0
LINE
  8
0
 10
128.603
 20
36.3737
 11
128.82
 21
36.2558
  0
LINE
  8
0
 10
128.82
 20
36.2558
 11
129.016
 21
36.1036
  0
LINE
  8
0
 10
129.016
 20
36.1036
 11
129.184
 21
35.9213
  0
LINE
  8
0
 10
129.184
 20
35.9213
 11
129.319
 21
35.7139
  0
LINE
  8
0
 10
129.319
 20
35.7139
 11
129.419
 21
35.487
  0
LINE
  8
0
 10
129.419
 20
35.487
 11
129.48
 21
35.2469
  0
LINE
  8
0
 10
129.48
 20
35.2469
 11
129.5
 21
35
  0
LINE
  8
0
 10
129.5
 20
35
 11
129.48
 21
34.7531
  0
LINE
  8
0
 10
129.48
 20
34.7531
 11
129.419
 21
34.5129
  0
LINE
  8
0
 10
129.419
 20
34.5129
 11
129.319
 21
34.2861
  0
LINE
  8
0
 10
129.319
 20
34.2861
 11
129.184
 21
34.0787
  0
LINE
  8
0
 10
129.184
 20
34.0787
 11
129.016
 21
33.8964
  0
LINE
  8
0
 10
129.016
 20
33.8964
 11
128.82
 21
33.7442
  0
LINE
  8
0
 10
128.82
 20
33.7442
 11
128.603
 21
33.6263
  0
LINE
  8
0
 10
128.603
 20
33.6263
 11
128.368
 21
33.5459
  0
LINE
  8
0
 10
128.368
 20
33.5459
 11
128.124
 21
33.5051
  0
LINE
  8
0
 10
128.124
 20
33.5051
 11
49.8761
 21
33.5051
  0
LINE
  8
0
 10
49.8761
 20
26.0051
 11
49.6318
 21
26.0459
  0
LINE
  8
0
 10
49.6318
 20
26.0459
 11
49.3974
 21
26.1263
  0
LINE
  8
0
 10
49.3974
 20
26.1263
 11
49.1796
 21
26.2442
  0
LINE
  8
0
 10
49.1796
 20
26.2442
 11
48.9841
 21
26.3964
  0
LINE
  8
0
 10
48.9841
 20
26.3964
 11
48.8163
 21
26.5787
  0
LINE
  8
0
 10
48.8163
 20
26.5787
 11
48.6808
 21
26.7861
  0
LINE
  8
0
 10
48.6808
 20
26.7861
 11
48.5813
 21
27.0129
  0
LINE
  8
0
 10
48.5813
 20
27.0129
 11
48.5204
 21
27.2531
  0
LINE
  8
0
 10
48.5204
 20
27.2531
 11
48.5
 21
27.5
  0
LINE
  8
0
 10
48.5
 20
27.5
 11
48.5204
 21
27.7469
  0
LINE
  8
0
 10
48.5204
 20
27.7469
 11
48.5813
 21
27.987
  0
LINE
  8
0
 10
48.5813
 20
27.987
 11
48.6808
 21
28.2139
  0
LINE
  8
0
 10
48.6808
 20
28.2139
 11
48.8163
 21
28.4213
  0
LINE
  8
0
 10
48.8163
 20
28.4213
 11
48.9841
 21
28.6036
  0
LINE
  8
0
 10
48.9841
 20
28.6036
 11
49.1796
 21
28.7557
  0
LINE
  8
0
 10
49.1796
 20
28.7557
 11
49.3974
 21
28.8737
  0
LINE
  8
0
 10
49.3974
 20
28.8737
 11
49.6318
 21
28.9541
  0
LINE
  8
0
 10
49.6318
 20
28.9541
 11
49.8761
 21
28.9949
  0
LINE
  8
0
 10
49.8761
 20
28.9949
 11
128.124
 21
28.9949
  0
LINE
  8
0
 10
128.124
 20
28.9949
 11
128.368
 21
28.9541
  0
LINE
  8
0
 10
128.368
 20
28.9541
 11
128.603
 21
28.8737
  0
LINE
  8
0
 10
128.603
 20
28.8737
 11
128.82
 21
28.7557
  0
LINE
  8
0
 10
128.82
 20
28.7557
 11
129.016
 21
28.6036
  0
LINE
  8
0
 10
129.016
 20
28.6036
 11
129.184
 21
28.4213
  0
LINE
  8
0
 10
129.184
 20
28.4213
 11
129.319
 21
28.2139
  0
LINE
  8
0
 10
129.319
 20
28.2139
 11
129.419
 21
27.987
  0
LINE
  8
0
 10
129.419
 20
27.987
 11
129.48
 21
27.7469
  0
LINE
  8
0
 10
129.48
 20
27.7469
 11
129.5
 21
27.5
  0
LINE
  8
0
 10
129.5
 20
27.5
 11
129.48
 21
27.2531
  0
LINE
  8
0
 10
129.48
 20
27.2531
 11
129.419
 21
27.0129
  0
LINE
  8
0
 10
129.419
 20
27.0129
 11
129.319
 21
26.7861
  0
LINE
  8
0
 10
129.319
 20
26.7861
 11
129.184
 21
26.5787
  0
LINE
  8
0
 10
129.184
 20
26.5787
 11
129.016
 21
26.3964
  0
LINE
  8
0
 10
129.016
 20
26.3964
 11
128.82
 21
26.2442
  0
LINE
  8
0
 10
128.82
 20
26.2442
 11
128.603
 21
26.1263
  0
LINE
  8
0
 10
128.603
 20
26.1263
 11
128.368
 21
26.0459
  0
LINE
  8
0
 10
128.368
 20
26.0459
 11
128.124
 21
26.0051
  0
LINE
  8
0
 10
128.124
 20
26.0051
 11
49.8761
 21
26.0051
  0
LINE
  8
0
 10
49.8761
 20
18.5051
 11
49.6318
 21
18.5459
  0
LINE
  8
0
 10
49.6318
 20
18.5459
 11
49.3974
 21
18.6263
  0
LINE
  8
0
 10
49.3974
 20
18.6263
 11
49.1796
 21
18.7442
  0
LINE
  8
0
 10
49.1796
 20
18.7442
 11
48.9841
 21
18.8964
  0
LINE
  8
0
 10
48.9841
 20
18.8964
 11
48.8163
 21
19.0787
  0
LINE
  8
0
 10
48.8163
 20
19.0787
 11
48.6808
 21
19.2861
  0
LINE
  8
0
 10
48.6808
 20
19.2861
 11
48.5813
 21
19.5129
  0
LINE
  8
0
 10
48.5813
 20
19.5129
 11
48.5204
 21
19.7531
  0
LINE
  8
0
 10
48.5204
 20
19.7531
 11
48.5
 21
20
  0
LINE
  8
0
 10
48.5
 20
20
 11
48.5204
 21
20.2469
  0
LINE
  8
0
 10
48.5204
 20
20.2469
 11
48.5813
 21
20.487
  0
LINE
  8
0
 10
48.5813
 20
20.487
 11
48.6808
 21
20.7139
  0
LINE
  8
0
 10
48.6808
 20
20.7139
 11
48.8163
 21
20.9213
  0
LINE
  8
0
 10
48.8163
 20
20.9213
 11
48.9841
 21
21.1036
  0
LINE
  8
0
 10
48.9841
 20
21.1036
 11
49.1796
 21
21.2557
  0
LINE
  8
0
 10
49.1796
 20
21.2557
 11
49.3974
 21
21.3737
  0
LINE
  8
0
 10
49.3974
 20
21.3737
 11
49.6318
 21
21.4541
  0
LINE
  8
0
 10
49.6318
 20
21.4541
 11
49.8761
 21
21.4949
  0
LINE
  8
0
 10
49.8761
 20
21.4949
 11
128.124
 21
21.4949
  0
LINE
  8
0
 10
128.124
 20
21.4949
 11
128.368
 21
21.4541
  0
LINE
  8
0
 10
128.368
 20
21.4541
 11
128.603
 21
21.3737
  0
LINE
  8
0
 10
128.603
 20
21.3737
 11
128.82
 21
21.2557
  0
LINE
  8
0
 10
128.82
 20
21.2557
 11
129.016
 21
21.1036
  0
LINE
  8
0
 10
129.016
 20
21.1036
 11
129.184
 21
20.9213
  0
LINE
  8
0
 10
129.184
 20
20.9213
 11
129.319
 21
20.7139
  0
LINE
  8
0
 10
129.319
 20
20.7139
 11
129.419
 21
20.487
  0
LINE
  8
0
 10
129.419
 20
20.487
 11
129.48
 21
20.2469
  0
LINE
  8
0
 10
129.48
 20
20.2469
 11
129.5
 21
20
  0
LINE
  8
0
 10
129.5
 20
20
 11
129.48
 21
19.7531
  0
LINE
  8
0
 10
129.48
 20
19.7531
 11
129.419
 21
19.5129
  0
LINE
  8
0
 10
129.419
 20
19.5129
 11
129.319
 21
19.2861
  0
LINE
  8
0
 10
129.319
 20
19.2861
 11
129.184
 21
19.0787
  0
LINE
  8
0
 10
129.184
 20
19.0787
 11
129.016
 21
18.8964
  0
LINE
  8
0
 10
129.016
 20
18.8964
 11
128.82
 21
18.7442
  0
LINE
  8
0
 10
128.82
 20
18.7442
 11
128.603
 21
18.6263
  0
LINE
  8
0
 10
128.603
 20
18.6263
 11
128.368
 21
18.5459
  0
LINE
  8
0
 10
128.368
 20
18.5459
 11
128.124
 21
18.5051
  0
LINE
  8
0
 10
128.124
 20
18.5051
 11
49.8761
 21
18.5051
  0
LINE
  8
0
 10
49.8761
 20
11.0051
 11
49.6318
 21
11.0459
  0
LINE
  8
0
 10
49.6318
 20
11.0459
 11
49.3974
 21
11.1263
  0
LINE
  8
0
 10
49.3974
 20
11.1263
 11
49.1796
 21
11.2442
  0
LINE
  8
0
 10
49.1796
 20
11.2442
 11
48.9841
 21
11.3964
  0
LINE
  8
0
 10
48.9841
 20
11.3964
 11
48.8163
 21
11.5787
  0
LINE
  8
0
 10
48.8163
 20
11.5787
 11
48.6808
 21
11.7861
  0
LINE
  8
0
 10
48.6808
 20
11.7861
 11
48.5813
 21
12.0129
  0
LINE
  8
0
 10
48.5813
 20
12.0129
 11
48.5204
 21
12.2531
  0
LINE
  8
0
 10
48.5204
 20
12.2531
 11
48.5
 21
12.5
  0
LINE
  8
0
 10
48.5
 20
12.5
 11
48.5204
 21
12.7469
  0
LINE
  8
0
 10
48.5204
 20
12.7469
 11
48.5813
 21
12.987
  0
LINE
  8
0
 10
48.5813
 20
12.987
 11
48.6808
 21
13.2139
  0
LINE
  8
0
 10
48.6808
 20
13.2139
 11
48.8163
 21
13.4213
  0
LINE
  8
0
 10
48.8163
 20
13.4213
 11
48.9841
 21
13.6036
  0
LINE
  8
0
 10
48.9841
 20
13.6036
 11
49.1796
 21
13.7557
  0
LINE
  8
0
 10
49.1796
 20
13.7557
 11
49.3974
 21
13.8737
  0
LINE
  8
0
 10
49.3974
 20
13.8737
 11
49.6318
 21
13.9541
  0
LINE
  8
0
 10
49.6318
 20
13.9541
 11
49.8761
 21
13.9949
  0
LINE
  8
0
 10
49.8761
 20
13.9949
 11
128.124
 21
13.9949
  0
LINE
  8
0
 10
128.124
 20
13.9949
 11
128.368
 21
13.9541
  0
LINE
  8
0
 10
128.368
 20
13.9541
 11
128.603
 21
13.8737
  0
LINE
  8
0
 10
128.603
 20
13.8737
 11
128.82
 21
13.7557
  0
LINE
  8
0
 10
128.82
 20
13.7557
 11
129.016
 21
13.6036
  0
LINE
  8
0
 10
129.016
 20
13.6036
 11
129.184
 21
13.4213
  0
LINE
  8
0
 10
129.184
 20
13.4213
 11
129.319
 21
13.2139
  0
LINE
  8
0
 10
129.319
 20
13.2139
 11
129.419
 21
12.987
  0
LINE
  8
0
 10
129.419
 20
12.987
 11
129.48
 21
12.7469
  0
LINE
  8
0
 10
129.48
 20
12.7469
 11
129.5
 21
12.5
  0
LINE
  8
0
 10
129.5
 20
12.5
 11
129.48
 21
12.2531
  0
LINE
  8
0
 10
129.48
 20
12.2531
 11
129.419
 21
12.0129
  0
LINE
  8
0
 10
129.419
 20
12.0129
 11
129.319
 21
11.7861
  0
LINE
  8
0
 10
129.319
 20
11.7861
 11
129.184
 21
11.5787
  0
LINE
  8
0
 10
129.184
 20
11.5787
 11
129.016
 21
11.3964
  0
LINE
  8
0
 10
129.016
 20
11.3964
 11
128.82
 21
11.2442
  0
LINE
  8
0
 10
128.82
 20
11.2442
 11
128.603
 21
11.1263
  0
LINE
  8
0
 10
128.603
 20
11.1263
 11
128.368
 21
11.0459
  0
LINE
  8
0
 10
128.368
 20
11.0459
 11
128.124
 21
11.0051
  0
LINE
  8
0
 10
128.124
 20
11.0051
 11
49.8761
 21
11.0051
  0
LINE
  8
0
 10
49.8761
 20
3.50511
 11
49.6318
 21
3.5459
  0
LINE
  8
0
 10
49.6318
 20
3.5459
 11
49.3974
 21
3.62633
  0
LINE
  8
0
 10
49.3974
 20
3.62633
 11
49.1796
 21
3.74425
  0
LINE
  8
0
 10
49.1796
 20
3.74425
 11
48.9841
 21
3.89641
  0
LINE
  8
0
 10
48.9841
 20
3.89641
 11
48.8163
 21
4.07867
  0
LINE
  8
0
 10
48.8163
 20
4.07867
 11
48.6808
 21
4.28607
  0
LINE
  8
0
 10
48.6808
 20
4.28607
 11
48.5813
 21
4.51294
  0
LINE
  8
0
 10
48.5813
 20
4.51294
 11
48.5204
 21
4.7531
  0
LINE
  8
0
 10
48.5204
 20
4.7531
 11
48.5
 21
5
  0
LINE
  8
0
 10
48.5
 20
5
 11
48.5204
 21
5.24689
  0
LINE
  8
0
 10
48.5204
 20
5.24689
 11
48.5813
 21
5.48705
  0
LINE
  8
0
 10
48.5813
 20
5.48705
 11
48.6808
 21
5.71391
  0
LINE
  8
0
 10
48.6808
 20
5.71391
 11
48.8163
 21
5.92131
  0
LINE
  8
0
 10
48.8163
 20
5.92131
 11
48.9841
 21
6.10358
  0
LINE
  8
0
 10
48.9841
 20
6.10358
 11
49.1796
 21
6.25574
  0
LINE
  8
0
 10
49.1796
 20
6.25574
 11
49.3974
 21
6.37366
  0
LINE
  8
0
 10
49.3974
 20
6.37366
 11
49.6318
 21
6.45409
  0
LINE
  8
0
 10
49.6318
 20
6.45409
 11
49.8761
 21
6.49487
  0
LINE
  8
0
 10
49.8761
 20
6.49487
 11
128.124
 21
6.49487
  0
LINE
  8
0
 10
128.124
 20
6.49487
 11
128.368
 21
6.45409
  0
LINE
  8
0
 10
128.368
 20
6.45409
 11
128.603
 21
6.37366
  0
LINE
  8
0
 10
128.603
 20
6.37366
 11
128.82
 21
6.25574
  0
LINE
  8
0
 10
128.82
 20
6.25574
 11
129.016
 21
6.10358
  0
LINE
  8
0
 10
129.016
 20
6.10358
 11
129.184
 21
5.92131
  0
LINE
  8
0
 10
129.184
 20
5.92131
 11
129.319
 21
5.71391
  0
LINE
  8
0
 10
129.319
 20
5.71391
 11
129.419
 21
5.48705
  0
LINE
  8
0
 10
129.419
 20
5.48705
 11
129.48
 21
5.24689
  0
LINE
  8
0
 10
129.48
 20
5.24689
 11
129.5
 21
5
  0
LINE
  8
0
 10
129.5
 20
5
 11
129.48
 21
4.7531
  0
LINE
  8
0
 10
129.48
 20
4.7531
 11
129.419
 21
4.51294
  0
LINE
  8
0
 10
129.419
 20
4.51294
 11
129.319
 21
4.28607
  0
LINE
  8
0
 10
129.319
 20
4.28607
 11
129.184
 21
4.07867
  0
LINE
  8
0
 10
129.184
 20
4.07867
 11
129.016
 21
3.89641
  0
LINE
  8
0
 10
129.016
 20
3.89641
 11
128.82
 21
3.74425
  0
LINE
  8
0
 10
128.82
 20
3.74425
 11
128.603
 21
3.62633
  0
LINE
  8
0
 10
128.603
 20
3.62633
 11
128.368
 21
3.5459
  0
LINE
  8
0
 10
128.368
 20
3.5459
 11
128.124
 21
3.50511
  0
LINE
  8
0
 10
128.124
 20
3.50511
 11
49.8761
 21
3.50511
  0
LINE
  8
0
 10
49.8761
 20
-3.99487
 11
49.6318
 21
-3.95409
  0
LINE
  8
0
 10
49.6318
 20
-3.95409
 11
49.3974
 21
-3.87366
  0
LINE
  8
0
 10
49.3974
 20
-3.87366
 11
49.1796
 21
-3.75574
  0
LINE
  8
0
 10
49.1796
 20
-3.75574
 11
48.9841
 21
-3.60358
  0
LINE
  8
0
 10
48.9841
 20
-3.60358
 11
48.8163
 21
-3.42131
  0
LINE
  8
0
 10
48.8163
 20
-3.42131
 11
48.6808
 21
-3.21391
  0
LINE
  8
0
 10
48.6808
 20
-3.21391
 11
48.5813
 21
-2.98705
  0
LINE
  8
0
 10
48.5813
 20
-2.98705
 11
48.5204
 21
-2.74689
  0
LINE
  8
0
 10
48.5204
 20
-2.74689
 11
48.5
 21
-2.5
  0
LINE
  8
0
 10
48.5
 20
-2.5
 11
48.5204
 21
-2.2531
  0
LINE
  8
0
 10
48.5204
 20
-2.2531
 11
48.5813
 21
-2.01294
  0
LINE
  8
0
 10
48.5813
 20
-2.01294
 11
48.6808
 21
-1.78607
  0
LINE
  8
0
 10
48.6808
 20
-1.78607
 11
48.8163
 21
-1.57867
  0
LINE
  8
0
 10
48.8163
 20
-1.57867
 11
48.9841
 21
-1.39641
  0
LINE
  8
0
 10
48.9841
 20
-1.39641
 11
49.1796
 21
-1.24425
  0
LINE
  8
0
 10
49.1796
 20
-1.24425
 11
49.3974
 21
-1.12633
  0
LINE
  8
0
 10
49.3974
 20
-1.12633
 11
49.6318
 21
-1.0459
  0
LINE
  8
0
 10
49.6318
 20
-1.0459
 11
49.8761
 21
-1.00511
  0
LINE
  8
0
 10
49.8761
 20
-1.00511
 11
128.124
 21
-1.00511
  0
LINE
  8
0
 10
128.124
 20
-1.00511
 11
128.368
 21
-1.0459
  0
LINE
  8
0
 10
128.368
 20
-1.0459
 11
128.603
 21
-1.12633
  0
LINE
  8
0
 10
128.603
 20
-1.12633
 11
128.82
 21
-1.24425
  0
LINE
  8
0
 10
128.82
 20
-1.24425
 11
129.016
 21
-1.39641
  0
LINE
  8
0
 10
129.016
 20
-1.39641
 11
129.184
 21
-1.57867
  0
LINE
  8
0
 10
129.184
 20
-1.57867
 11
129.319
 21
-1.78607
  0
LINE
  8
0
 10
129.319
 20
-1.78607
 11
129.419
 21
-2.01294
  0
LINE
  8
0
 10
129.419
 20
-2.01294
 11
129.48
 21
-2.2531
  0
LINE
  8
0
 10
129.48
 20
-2.2531
 11
129.5
 21
-2.5
  0
LINE
  8
0
 10
129.5
 20
-2.5
 11
129.48
 21
-2.74689
  0
LINE
  8
0
 10
129.48
 20
-2.74689
 11
129.419
 21
-2.98705
  0
LINE
  8
0
 10
129.419
 20
-2.98705
 11
129.319
 21
-3.21391
  0
LINE
  8
0
 10
129.319
 20
-3.21391
 11
129.184
 21
-3.42131
  0
LINE
  8
0
 10
129.184
 20
-3.42131
 11
129.016
 21
-3.60358
  0
LINE
  8
0
 10
129.016
 20
-3.60358
 11
128.82
 21
-3.75574
  0
LINE
  8
0
 10
128.82
 20
-3.75574
 11
128.603
 21
-3.87366
  0
LINE
  8
0
 10
128.603
 20
-3.87366
 11
128.368
 21
-3.95409
  0
LINE
  8
0
 10
128.368
 20
-3.95409
 11
128.124
 21
-3.99487
  0
LINE
  8
0
 10
128.124
 20
-3.99487
 11
49.8761
 21
-3.99487
  0
LINE
  8
0
 10
49.8761
 20
-11.4949
 11
49.6318
 21
-11.4541
  0
LINE
  8
0
 10
49.6318
 20
-11.4541
 11
49.3974
 21
-11.3737
  0
LINE
  8
0
 10
49.3974
 20
-11.3737
 11
49.1796
 21
-11.2557
  0
LINE
  8
0
 10
49.1796
 20
-11.2557
 11
48.9841
 21
-11.1036
  0
LINE
  8
0
 10
48.9841
 20
-11.1036
 11
48.8163
 21
-10.9213
  0
LINE
  8
0
 10
48.8163
 20
-10.9213
 11
48.6808
 21
-10.7139
  0
LINE
  8
0
 10
48.6808
 20
-10.7139
 11
48.5813
 21
-10.487
  0
LINE
  8
0
 10
48.5813
 20
-10.487
 11
48.5204
 21
-10.2469
  0
LINE
  8
0
 10
48.5204
 20
-10.2469
 11
48.5
 21
-10
  0
LINE
  8
0
 10
48.5
 20
-10
 11
48.5204
 21
-9.7531
  0
LINE
  8
0
 10
48.5204
 20
-9.7531
 11
48.5813
 21
-9.51294
  0
LINE
  8
0
 10
48.5813
 20
-9.51294
 11
48.6808
 21
-9.28607
  0
LINE
  8
0
 10
48.6808
 20
-9.28607
 11
48.8163
 21
-9.07867
  0
LINE
  8
0
 10
48.8163
 20
-9.07867
 11
48.9841
 21
-8.89641
  0
LINE
  8
0
 10
48.9841
 20
-8.89641
 11
49.1796
 21
-8.74425
  0
LINE
  8
0
 10
49.1796
 20
-8.74425
 11
49.3974
 21
-8.62633
  0
LINE
  8
0
 10
49.3974
 20
-8.62633
 11
49.6318
 21
-8.5459
  0
LINE
  8
0
 10
49.6318
 20
-8.5459
 11
49.8761
 21
-8.50511
  0
LINE
  8
0
 10
49.8761
 20
-8.50511
 11
128.124
 21
-8.50511
  0
LINE
  8
0
 10
128.124
 20
-8.50511
 11
128.368
 21
-8.5459
  0
LINE
  8
0
 10
128.368
 20
-8.5459
 11
128.603
 21
-8.62633
  0
LINE
  8
0
 10
128.603
 20
-8.62633
 11
128.82
 21
-8.74425
  0
LINE
  8
0
 10
128.82
 20
-8.74425
 11
129.016
 21
-8.89641
  0
LINE
  8
0
 10
129.016
 20
-8.89641
 11
129.184
 21
-9.07867
  0
LINE
  8
0
 10
129.184
 20
-9.07867
 11
129.319
 21
-9.28607
  0
LINE
  8
0
 10
129.319
 20
-9.28607
 11
129.419
 21
-9.51294
  0
LINE
  8
0
 10
129.419
 20
-9.51294
 11
129.48
 21
-9.7531
  0
LINE
  8
0
 10
129.48
 20
-9.7531
 11
129.5
 21
-10
  0
LINE
  8
0
 10
129.5
 20
-10
 11
129.48
 21
-10.2469
  0
LINE
  8
0
 10
129.48
 20
-10.2469
 11
129.419
 21
-10.487
  0
LINE
  8
0
 10
129.419
 20
-10.487
 11
129.319
 21
-10.7139
  0
LINE
  8
0
 10
129.319
 20
-10.7139
 11
129.184
 21
-10.9213
  0
LINE
  8
0
 10
129.184
 20
-10.9213
 11
129.016
 21
-11.1036
  0
LINE
  8
0
 10
129.016
 20
-11.1036
 11
128.82
 21
-11.2557
  0
LINE
  8
0
 10
128.82
 20
-11.2557
 11
128.603
 21
-11.3737
  0
LINE
  8
0
 10
128.603
 20
-11.3737
 11
128.368
 21
-11.4541
  0
LINE
  8
0
 10
128.368
 20
-11.4541
 11
128.124
 21
-11.4949
  0
LINE
  8
0
 10
128.124
 20
-11.4949
 11
49.8761
 21
-11.4949
  0
LINE
  8
0
 10
49.8761
 20
-18.9949
 11
49.6318
 21
-18.9541
  0
LINE
  8
0
 10
49.6318
 20
-18.9541
 11
49.3974
 21
-18.8737
  0
LINE
  8
0
 10
49.3974
 20
-18.8737
 11
49.1796
 21
-18.7557
  0
LINE
  8
0
 10
49.1796
 20
-18.7557
 11
48.9841
 21
-18.6036
  0
LINE
  8
0
 10
48.9841
 20
-18.6036
 11
48.8163
 21
-18.4213
  0
LINE
  8
0
 10
48.8163
 20
-18.4213
 11
48.6808
 21
-18.2139
  0
LINE
  8
0
 10
48.6808
 20
-18.2139
 11
48.5813
 21
-17.987
  0
LINE
  8
0
 10
48.5813
 20
-17.987
 11
48.5204
 21
-17.7469
  0
LINE
  8
0
 10
48.5204
 20
-17.7469
 11
48.5
 21
-17.5
  0
LINE
  8
0
 10
48.5
 20
-17.5
 11
48.5204
 21
-17.2531
  0
LINE
  8
0
 10
48.5204
 20
-17.2531
 11
48.5813
 21
-17.0129
  0
LINE
  8
0
 10
48.5813
 20
-17.0129
 11
48.6808
 21
-16.7861
  0
LINE
  8
0
 10
48.6808
 20
-16.7861
 11
48.8163
 21
-16.5787
  0
LINE
  8
0
 10
48.8163
 20
-16.5787
 11
48.9841
 21
-16.3964
  0
LINE
  8
0
 10
48.9841
 20
-16.3964
 11
49.1796
 21
-16.2442
  0
LINE
  8
0
 10
49.1796
 20
-16.2442
 11
49.3974
 21
-16.1263
  0
LINE
  8
0
 10
49.3974
 20
-16.1263
 11
49.6318
 21
-16.0459
  0
LINE
  8
0
 10
49.6318
 20
-16.0459
 11
49.8761
 21
-16.0051
  0
LINE
  8
0
 10
49.8761
 20
-16.0051
 11
128.124
 21
-16.0051
  0
LINE
  8
0
 10
128.124
 20
-16.0051
 11
128.368
 21
-16.0459
  0
LINE
  8
0
 10
128.368
 20
-16.0459
 11
128.603
 21
-16.1263
  0
LINE
  8
0
 10
128.603
 20
-16.1263
 11
128.82
 21
-16.2442
  0
LINE
  8
0
 10
128.82
 20
-16.2442
 11
129.016
 21
-16.3964
  0
LINE
  8
0
 10
129.016
 20
-16.3964
 11
129.184
 21
-16.5787
  0
LINE
  8
0
 10
129.184
 20
-16.5787
 11
129.319
 21
-16.7861
  0
LINE
  8
0
 10
129.319
 20
-16.7861
 11
129.419
 21
-17.0129
  0
LINE
  8
0
 10
129.419
 20
-17.0129
 11
129.48
 21
-17.2531
  0
LINE
  8
0
 10
129.48
 20
-17.2531
 11
129.5
 21
-17.5
  0
LINE
  8
0
 10
129.5
 20
-17.5
 11
129.48
 21
-17.7469
  0
LINE
  8
0
 10
129.48
 20
-17.7469
 11
129.419
 21
-17.987
  0
LINE
  8
0
 10
129.419
 20
-17.987
 11
129.319
 21
-18.2139
  0
LINE
  8
0
 10
129.319
 20
-18.2139
 11
129.184
 21
-18.4213
  0
LINE
  8
0
 10
129.184
 20
-18.4213
 11
129.016
 21
-18.6036
  0
LINE
  8
0
 10
129.016
 20
-18.6036
 11
128.82
 21
-18.7557
  0
LINE
  8
0
 10
128.82
 20
-18.7557
 11
128.603
 21
-18.8737
  0
LINE
  8
0
 10
128.603
 20
-18.8737
 11
128.368
 21
-18.9541
  0
LINE
  8
0
 10
128.368
 20
-18.9541
 11
128.124
 21
-18.9949
  0
LINE
  8
0
 10
128.124
 20
-18.9949
 11
49.8761
 21
-18.9949
  0
LINE
  8
0
 10
49.8761
 20
-26.4949
 11
49.6318
 21
-26.4541
  0
LINE
  8
0
 10
49.6318
 20
-26.4541
 11
49.3974
 21
-26.3737
  0
LINE
  8
0
 10
49.3974
 20
-26.3737
 11
49.1796
 21
-26.2557
  0
LINE
  8
0
 10
49.1796
 20
-26.2557
 11
48.9841
 21
-26.1036
  0
LINE
  8
0
 10
48.9841
 20
-26.1036
 11
48.8163
 21
-25.9213
  0
LINE
  8
0
 10
48.8163
 20
-25.9213
 11
48.6808
 21
-25.7139
  0
LINE
  8
0
 10
48.6808
 20
-25.7139
 11
48.5813
 21
-25.487
  0
LINE
  8
0
 10
48.5813
 20
-25.487
 11
48.5204
 21
-25.2469
  0
LINE
  8
0
 10
48.5204
 20
-25.2469
 11
48.5
 21
-25
  0
LINE
  8
0
 10
48.5
 20
-25
 11
48.5204
 21
-24.7531
  0
LINE
  8
0
 10
48.5204
 20
-24.7531
 11
48.5813
 21
-24.5129
  0
LINE
  8
0
 10
48.5813
 20
-24.5129
 11
48.6808
 21
-24.2861
  0
LINE
  8
0
 10
48.6808
 20
-24.2861
 11
48.8163
 21
-24.0787
  0
LINE
  8
0
 10
48.8163
 20
-24.0787
 11
48.9841
 21
-23.8964
  0
LINE
  8
0
 10
48.9841
 20
-23.8964
 11
49.1796
 21
-23.7442
  0
LINE
  8
0
 10
49.1796
 20
-23.7442
 11
49.3974
 21
-23.6263
  0
LINE
  8
0
 10
49.3974
 20
-23.6263
 11
49.6318
 21
-23.5459
  0
LINE
  8
0
 10
49.6318
 20
-23.5459
 11
49.8761
 21
-23.5051
  0
LINE
  8
0
 10
49.8761
 20
-23.5051
 11
128.124
 21
-23.5051
  0
LINE
  8
0
 10
128.124
 20
-23.5051
 11
128.368
 21
-23.5459
  0
LINE
  8
0
 10
128.368
 20
-23.5459
 11
128.603
 21
-23.6263
  0
LINE
  8
0
 10
128.603
 20
-23.6263
 11
128.82
 21
-23.7442
  0
LINE
  8
0
 10
128.82
 20
-23.7442
 11
129.016
 21
-23.8964
  0
LINE
  8
0
 10
129.016
 20
-23.8964
 11
129.184
 21
-24.0787
  0
LINE
  8
0
 10
129.184
 20
-24.0787
 11
129.319
 21
-24.2861
  0
LINE
  8
0
 10
129.319
 20
-24.2861
 11
129.419
 21
-24.5129
  0
LINE
  8
0
 10
129.419
 20
-24.5129
 11
129.48
 21
-24.7531
  0
LINE
  8
0
 10
129.48
 20
-24.7531
 11
129.5
 21
-25
  0
LINE
  8
0
 10
129.5
 20
-25
 11
129.48
 21
-25.2469
  0
LINE
  8
0
 10
129.48
 20
-25.2469
 11
129.419
 21
-25.487
  0
LINE
  8
0
 10
129.419
 20
-25.487
 11
129.319
 21
-25.7139
  0
LINE
  8
0
 10
129.319
 20
-25.7139
 11
129.184
 21
-25.9213
  0
LINE
  8
0
 10
129.184
 20
-25.9213
 11
129.016
 21
-26.1036
  0
LINE
  8
0
 10
129.016
 20
-26.1036
 11
128.82
 21
-26.2557
  0
LINE
  8
0
 10
128.82
 20
-26.2557
 11
128.603
 21
-26.3737
  0
LINE
  8
0
 10
128.603
 20
-26.3737
 11
128.368
 21
-26.4541
  0
LINE
  8
0
 10
128.368
 20
-26.4541
 11
128.124
 21
-26.4949
  0
LINE
  8
0
 10
128.124
 20
-26.4949
 11
49.8761
 21
-26.4949
  0
LINE
  8
0
 10
49.8761
 20
-33.9949
 11
49.6318
 21
-33.9541
  0
LINE
  8
0
 10
49.6318
 20
-33.9541
 11
49.3974
 21
-33.8737
  0
LINE
  8
0
 10
49.3974
 20
-33.8737
 11
49.1796
 21
-33.7557
  0
LINE
  8
0
 10
49.1796
 20
-33.7557
 11
48.9841
 21
-33.6036
  0
LINE
  8
0
 10
48.9841
 20
-33.6036
 11
48.8163
 21
-33.4213
  0
LINE
  8
0
 10
48.8163
 20
-33.4213
 11
48.6808
 21
-33.2139
  0
LINE
  8
0
 10
48.6808
 20
-33.2139
 11
48.5813
 21
-32.987
  0
LINE
  8
0
 10
48.5813
 20
-32.987
 11
48.5204
 21
-32.7469
  0
LINE
  8
0
 10
48.5204
 20
-32.7469
 11
48.5
 21
-32.5
  0
LINE
  8
0
 10
48.5
 20
-32.5
 11
48.5204
 21
-32.2531
  0
LINE
  8
0
 10
48.5204
 20
-32.2531
 11
48.5813
 21
-32.0129
  0
LINE
  8
0
 10
48.5813
 20
-32.0129
 11
48.6808
 21
-31.7861
  0
LINE
  8
0
 10
48.6808
 20
-31.7861
 11
48.8163
 21
-31.5787
  0
LINE
  8
0
 10
48.8163
 20
-31.5787
 11
48.9841
 21
-31.3964
  0
LINE
  8
0
 10
48.9841
 20
-31.3964
 11
49.1796
 21
-31.2442
  0
LINE
  8
0
 10
49.1796
 20
-31.2442
 11
49.3974
 21
-31.1263
  0
LINE
  8
0
 10
49.3974
 20
-31.1263
 11
49.6318
 21
-31.0459
  0
LINE
  8
0
 10
49.6318
 20
-31.0459
 11
49.8761
 21
-31.0051
  0
LINE
  8
0
 10
49.8761
 20
-31.0051
 11
128.124
 21
-31.0051
  0
LINE
  8
0
 10
128.124
 20
-31.0051
 11
128.368
 21
-31.0459
  0
LINE
  8
0
 10
128.368
 20
-31.0459
 11
128.603
 21
-31.1263
  0
LINE
  8
0
 10
128.603
 20
-31.1263
 11
128.82
 21
-31.2442
  0
LINE
  8
0
 10
128.82
 20
-31.2442
 11
129.016
 21
-31.3964
  0
LINE
  8
0
 10
129.016
 20
-31.3964
 11
129.184
 21
-31.5787
  0
LINE
  8
0
 10
129.184
 20
-31.5787
 11
129.319
 21
-31.7861
  0
LINE
  8
0
 10
129.319
 20
-31.7861
 11
129.419
 21
-32.0129
  0
LINE
  8
0
 10
129.419
 20
-32.0129
 11
129.48
 21
-32.2531
  0
LINE
  8
0
 10
129.48
 20
-32.2531
 11
129.5
 21
-32.5
  0
LINE
  8
0
 10
129.5
 20
-32.5
 11
129.48
 21
-32.7469
  0
LINE
  8
0
 10
129.48
 20
-32.7469
 11
129.419
 21
-32.987
  0
LINE
  8
0
 10
129.419
 20
-32.987
 11
129.319
 21
-33.2139
  0
LINE
  8
0
 10
129.319
 20
-33.2139
 11
129.184
 21
-33.4213
  0
LINE
  8
0
 10
129.184
 20
-33.4213
 11
129.016
 21
-33.6036
  0
LINE
  8
0
 10
129.016
 20
-33.6036
 11
128.82
 21
-33.7557
  0
LINE
  8
0
 10
128.82
 20
-33.7557
 11
128.603
 21
-33.8737
  0
LINE
  8
0
 10
128.603
 20
-33.8737
 11
128.368
 21
-33.9541
  0
LINE
  8
0
 10
128.368
 20
-33.9541
 11
128.124
 21
-33.9949
  0
LINE
  8
0
 10
128.124
 20
-33.9949
 11
49.8761
 21
-33.9949
  0
LINE
  8
0
 10
49.8761
 20
-41.4949
 11
49.6318
 21
-41.4541
  0
LINE
  8
0
 10
49.6318
 20
-41.4541
 11
49.3974
 21
-41.3737
  0
LINE
  8
0
 10
49.3974
 20
-41.3737
 11
49.1796
 21
-41.2557
  0
LINE
  8
0
 10
49.1796
 20
-41.2557
 11
48.9841
 21
-41.1036
  0
LINE
  8
0
 10
48.9841
 20
-41.1036
 11
48.8163
 21
-40.9213
  0
LINE
  8
0
 10
48.8163
 20
-40.9213
 11
48.6808
 21
-40.7139
  0
LINE
  8
0
 10
48.6808
 20
-40.7139
 11
48.5813
 21
-40.487
  0
LINE
  8
0
 10
48.5813
 20
-40.487
 11
48.5204
 21
-40.2469
  0
LINE
  8
0
 10
48.5204
 20
-40.2469
 11
48.5
 21
-40
  0
LINE
  8
0
 10
48.5
 20
-40
 11
48.5204
 21
-39.7531
  0
LINE
  8
0
 10
48.5204
 20
-39.7531
 11
48.5813
 21
-39.5129
  0
LINE
  8
0
 10
48.5813
 20
-39.5129
 11
48.6808
 21
-39.2861
  0
LINE
  8
0
 10
48.6808
 20
-39.2861
 11
48.8163
 21
-39.0787
  0
LINE
  8
0
 10
48.8163
 20
-39.0787
 11
48.9841
 21
-38.8964
  0
LINE
  8
0
 10
48.9841
 20
-38.8964
 11
49.1796
 21
-38.7442
  0
LINE
  8
0
 10
49.1796
 20
-38.7442
 11
49.3974
 21
-38.6263
  0
LINE
  8
0
 10
49.3974
 20
-38.6263
 11
49.6318
 21
-38.5459
  0
LINE
  8
0
 10
49.6318
 20
-38.5459
 11
49.8761
 21
-38.5051
  0
LINE
  8
0
 10
49.8761
 20
-38.5051
 11
128.124
 21
-38.5051
  0
LINE
  8
0
 10
128.124
 20
-38.5051
 11
128.368
 21
-38.5459
  0
LINE
  8
0
 10
128.368
 20
-38.5459
 11
128.603
 21
-38.6263
  0
LINE
  8
0
 10
128.603
 20
-38.6263
 11
128.82
 21
-38.7442
  0
LINE
  8
0
 10
128.82
 20
-38.7442
 11
129.016
 21
-38.8964
  0
LINE
  8
0
 10
129.016
 20
-38.8964
 11
129.184
 21
-39.0787
  0
LINE
  8
0
 10
129.184
 20
-39.0787
 11
129.319
 21
-39.2861
  0
LINE
  8
0
 10
129.319
 20
-39.2861
 11
129.419
 21
-39.5129
  0
LINE
  8
0
 10
129.419
 20
-39.5129
 11
129.48
 21
-39.7531
  0
LINE
  8
0
 10
129.48
 20
-39.7531
 11
129.5
 21
-40
  0
LINE
  8
0
 10
129.5
 20
-40
 11
129.48
 21
-40.2469
  0
LINE
  8
0
 10
129.48
 20
-40.2469
 11
129.419
 21
-40.487
  0
LINE
  8
0
 10
129.419
 20
-40.487
 11
129.319
 21
-40.7139
  0
LINE
  8
0
 10
129.319
 20
-40.7139
 11
129.184
 21
-40.9213
  0
LINE
  8
0
 10
129.184
 20
-40.9213
 11
129.016
 21
-41.1036
  0
LINE
  8
0
 10
129.016
 20
-41.1036
 11
128.82
 21
-41.2557
  0
LINE
  8
0
 10
128.82
 20
-41.2557
 11
128.603
 21
-41.3737
  0
LINE
  8
0
 10
128.603
 20
-41.3737
 11
128.368
 21
-41.4541
  0
LINE
  8
0
 10
128.368
 20
-41.4541
 11
128.124
 21
-41.4949
  0
LINE
  8
0
 10
128.124
 20
-41.4949
 11
49.8761
 21
-41.4949
  0
LINE
  8
0
 10
49.8761
 20
-48.9949
 11
49.6318
 21
-48.9541
  0
LINE
  8
0
 10
49.6318
 20
-48.9541
 11
49.3974
 21
-48.8737
  0
LINE
  8
0
 10
49.3974
 20
-48.8737
 11
49.1796
 21
-48.7557
  0
LINE
  8
0
 10
49.1796
 20
-48.7557
 11
48.9841
 21
-48.6036
  0
LINE
  8
0
 10
48.9841
 20
-48.6036
 11
48.8163
 21
-48.4213
  0
LINE
  8
0
 10
48.8163
 20
-48.4213
 11
48.6808
 21
-48.2139
  0
LINE
  8
0
 10
48.6808
 20
-48.2139
 11
48.5813
 21
-47.987
  0
LINE
  8
0
 10
48.5813
 20
-47.987
 11
48.5204
 21
-47.7469
  0
LINE
  8
0
 10
48.5204
 20
-47.7469
 11
48.5
 21
-47.5
  0
LINE
  8
0
 10
48.5
 20
-47.5
 11
48.5204
 21
-47.2531
  0
LINE
  8
0
 10
48.5204
 20
-47.2531
 11
48.5813
 21
-47.0129
  0
LINE
  8
0
 10
48.5813
 20
-47.0129
 11
48.6808
 21
-46.7861
  0
LINE
  8
0
 10
48.6808
 20
-46.7861
 11
48.8163
 21
-46.5787
  0
LINE
  8
0
 10
48.8163
 20
-46.5787
 11
48.9841
 21
-46.3964
  0
LINE
  8
0
 10
48.9841
 20
-46.3964
 11
49.1796
 21
-46.2442
  0
LINE
  8
0
 10
49.1796
 20
-46.2442
 11
49.3974
 21
-46.1263
  0
LINE
  8
0
 10
49.3974
 20
-46.1263
 11
49.6318
 21
-46.0459
  0
LINE
  8
0
 10
49.6318
 20
-46.0459
 11
49.8761
 21
-46.0051
  0
LINE
  8
0
 10
49.8761
 20
-46.0051
 11
128.124
 21
-46.0051
  0
LINE
  8
0
 10
128.124
 20
-46.0051
 11
128.368
 21
-46.0459
  0
LINE
  8
0
 10
128.368
 20
-46.0459
 11
128.603
 21
-46.1263
  0
LINE
  8
0
 10
128.603
 20
-46.1263
 11
128.82
 21
-46.2442
  0
LINE
  8
0
 10
128.82
 20
-46.2442
 11
129.016
 21
-46.3964
  0
LINE
  8
0
 10
129.016
 20
-46.3964
 11
129.184
 21
-46.5787
  0
LINE
  8
0
 10
129.184
 20
-46.5787
 11
129.319
 21
-46.7861
  0
LINE
  8
0
 10
129.319
 20
-46.7861
 11
129.419
 21
-47.0129
  0
LINE
  8
0
 10
129.419
 20
-47.0129
 11
129.48
 21
-47.2531
  0
LINE
  8
0
 10
129.48
 20
-47.2531
 11
129.5
 21
-47.5
  0
LINE
  8
0
 10
129.5
 20
-47.5
 11
129.48
 21
-47.7469
  0
LINE
  8
0
 10
129.48
 20
-47.7469
 11
129.419
 21
-47.987
  0
LINE
  8
0
 10
129.419
 20
-47.987
 11
129.319
 21
-48.2139
  0
LINE
  8
0
 10
129.319
 20
-48.2139
 11
129.184
 21
-48.4213
  0
LINE
  8
0
 10
129.184
 20
-48.4213
 11
129.016
 21
-48.6036
  0
LINE
  8
0
 10
129.016
 20
-48.6036
 11
128.82
 21
-48.7557
  0
LINE
  8
0
 10
128.82
 20
-48.7557
 11
128.603
 21
-48.8737
  0
LINE
  8
0
 10
128.603
 20
-48.8737
 11
128.368
 21
-48.9541
  0
LINE
  8
0
 10
128.368
 20
-48.9541
 11
128.124
 21
-48.9949
  0
LINE
  8
0
 10
128.124
 20
-48.9949
 11
49.8761
 21
-48.9949
  0
LINE
  8
0
 10
49.8761
 20
-56.4949
 11
49.6318
 21
-56.4541
  0
LINE
  8
0
 10
49.6318
 20
-56.4541
 11
49.3974
 21
-56.3737
  0
LINE
  8
0
 10
49.3974
 20
-56.3737
 11
49.1796
 21
-56.2557
  0
LINE
  8
0
 10
49.1796
 20
-56.2557
 11
48.9841
 21
-56.1036
  0
LINE
  8
0
 10
48.9841
 20
-56.1036
 11
48.8163
 21
-55.9213
  0
LINE
  8
0
 10
48.8163
 20
-55.9213
 11
48.6808
 21
-55.7139
  0
LINE
  8
0
 10
48.6808
 20
-55.7139
 11
48.5813
 21
-55.487
  0
LINE
  8
0
 10
48.5813
 20
-55.487
 11
48.5204
 21
-55.2469
  0
LINE
  8
0
 10
48.5204
 20
-55.2469
 11
48.5
 21
-55
  0
LINE
  8
0
 10
48.5
 20
-55
 11
48.5204
 21
-54.7531
  0
LINE
  8
0
 10
48.5204
 20
-54.7531
 11
48.5813
 21
-54.5129
  0
LINE
  8
0
 10
48.5813
 20
-54.5129
 11
48.6808
 21
-54.2861
  0
LINE
  8
0
 10
48.6808
 20
-54.2861
 11
48.8163
 21
-54.0787
  0
LINE
  8
0
 10
48.8163
 20
-54.0787
 11
48.9841
 21
-53.8964
  0
LINE
  8
0
 10
48.9841
 20
-53.8964
 11
49.1796
 21
-53.7442
  0
LINE
  8
0
 10
49.1796
 20
-53.7442
 11
49.3974
 21
-53.6263
  0
LINE
  8
0
 10
49.3974
 20
-53.6263
 11
49.6318
 21
-53.5459
  0
LINE
  8
0
 10
49.6318
 20
-53.5459
 11
49.8761
 21
-53.5051
  0
LINE
  8
0
 10
49.8761
 20
-53.5051
 11
128.124
 21
-53.5051
  0
LINE
  8
0
 10
128.124
 20
-53.5051
 11
128.368
 21
-53.5459
  0
LINE
  8
0
 10
128.368
 20
-53.5459
 11
128.603
 21
-53.6263
  0
LINE
  8
0
 10
128.603
 20
-53.6263
 11
128.82
 21
-53.7442
  0
LINE
  8
0
 10
128.82
 20
-53.7442
 11
129.016
 21
-53.8964
  0
LINE
  8
0
 10
129.016
 20
-53.8964
 11
129.184
 21
-54.0787
  0
LINE
  8
0
 10
129.184
 20
-54.0787
 11
129.319
 21
-54.2861
  0
LINE
  8
0
 10
129.319
 20
-54.2861
 11
129.419
 21
-54.5129
  0
LINE
  8
0
 10
129.419
 20
-54.5129
 11
129.48
 21
-54.7531
  0
LINE
  8
0
 10
129.48
 20
-54.7531
 11
129.5
 21
-55
  0
LINE
  8
0
 10
129.5
 20
-55
 11
129.48
 21
-55.2469
  0
LINE
  8
0
 10
129.48
 20
-55.2469
 11
129.419
 21
-55.487
  0
LINE
  8
0
 10
129.419
 20
-55.487
 11
129.319
 21
-55.7139
  0
LINE
  8
0
 10
129.319
 20
-55.7139
 11
129.184
 21
-55.9213
  0
LINE
  8
0
 10
129.184
 20
-55.9213
 11
129.016
 21
-56.1036
  0
LINE
  8
0
 10
129.016
 20
-56.1036
 11
128.82
 21
-56.2557
  0
LINE
  8
0
 10
128.82
 20
-56.2557
 11
128.603
 21
-56.3737
  0
LINE
  8
0
 10
128.603
 20
-56.3737
 11
128.368
 21
-56.4541
  0
LINE
  8
0
 10
128.368
 20
-56.4541
 11
128.124
 21
-56.4949
  0
LINE
  8
0
 10
128.124
 20
-56.4949
 11
49.8761
 21
-56.4949
  0
LINE
  8
0
 10
49.8761
 20
-63.9949
 11
49.6318
 21
-63.9541
  0
LINE
  8
0
 10
49.6318
 20
-63.9541
 11
49.3974
 21
-63.8737
  0
LINE
  8
0
 10
49.3974
 20
-63.8737
 11
49.1796
 21
-63.7557
  0
LINE
  8
0
 10
49.1796
 20
-63.7557
 11
48.9841
 21
-63.6036
  0
LINE
  8
0
 10
48.9841
 20
-63.6036
 11
48.8163
 21
-63.4213
  0
LINE
  8
0
 10
48.8163
 20
-63.4213
 11
48.6808
 21
-63.2139
  0
LINE
  8
0
 10
48.6808
 20
-63.2139
 11
48.5813
 21
-62.987
  0
LINE
  8
0
 10
48.5813
 20
-62.987
 11
48.5204
 21
-62.7469
  0
LINE
  8
0
 10
48.5204
 20
-62.7469
 11
48.5
 21
-62.5
  0
LINE
  8
0
 10
48.5
 20
-62.5
 11
48.5204
 21
-62.2531
  0
LINE
  8
0
 10
48.5204
 20
-62.2531
 11
48.5813
 21
-62.0129
  0
LINE
  8
0
 10
48.5813
 20
-62.0129
 11
48.6808
 21
-61.7861
  0
LINE
  8
0
 10
48.6808
 20
-61.7861
 11
48.8163
 21
-61.5787
  0
LINE
  8
0
 10
48.8163
 20
-61.5787
 11
48.9841
 21
-61.3964
  0
LINE
  8
0
 10
48.9841
 20
-61.3964
 11
49.1796
 21
-61.2442
  0
LINE
  8
0
 10
49.1796
 20
-61.2442
 11
49.3974
 21
-61.1263
  0
LINE
  8
0
 10
49.3974
 20
-61.1263
 11
49.6318
 21
-61.0459
  0
LINE
  8
0
 10
49.6318
 20
-61.0459
 11
49.8761
 21
-61.0051
  0
LINE
  8
0
 10
49.8761
 20
-61.0051
 11
128.124
 21
-61.0051
  0
LINE
  8
0
 10
128.124
 20
-61.0051
 11
128.368
 21
-61.0459
  0
LINE
  8
0
 10
128.368
 20
-61.0459
 11
128.603
 21
-61.1263
  0
LINE
  8
0
 10
128.603
 20
-61.1263
 11
128.82
 21
-61.2442
  0
LINE
  8
0
 10
128.82
 20
-61.2442
 11
129.016
 21
-61.3964
  0
LINE
  8
0
 10
129.016
 20
-61.3964
 11
129.184
 21
-61.5787
  0
LINE
  8
0
 10
129.184
 20
-61.5787
 11
129.319
 21
-61.7861
  0
LINE
  8
0
 10
129.319
 20
-61.7861
 11
129.419
 21
-62.0129
  0
LINE
  8
0
 10
129.419
 20
-62.0129
 11
129.48
 21
-62.2531
  0
LINE
  8
0
 10
129.48
 20
-62.2531
 11
129.5
 21
-62.5
  0
LINE
  8
0
 10
129.5
 20
-62.5
 11
129.48
 21
-62.7469
  0
LINE
  8
0
 10
129.48
 20
-62.7469
 11
129.419
 21
-62.987
  0
LINE
  8
0
 10
129.419
 20
-62.987
 11
129.319
 21
-63.2139
  0
LINE
  8
0
 10
129.319
 20
-63.2139
 11
129.184
 21
-63.4213
  0
LINE
  8
0
 10
129.184
 20
-63.4213
 11
129.016
 21
-63.6036
  0
LINE
  8
0
 10
129.016
 20
-63.6036
 11
128.82
 21
-63.7557
  0
LINE
  8
0
 10
128.82
 20
-63.7557
 11
128.603
 21
-63.8737
  0
LINE
  8
0
 10
128.603
 20
-63.8737
 11
128.368
 21
-63.9541
  0
LINE
  8
0
 10
128.368
 20
-63.9541
 11
128.124
 21
-63.9949
  0
LINE
  8
0
 10
128.124
 20
-63.9949
 11
49.8761
 21
-63.9949
  0
LINE
  8
0
 10
-160.198
 20
-132.312
 11
-160.444
 21
-132.273
  0
LINE
  8
0
 10
-160.444
 20
-132.273
 11
-160.684
 21
-132.209
  0
LINE
  8
0
 10
-160.684
 20
-132.209
 11
-160.916
 21
-132.12
  0
LINE
  8
0
 10
-160.916
 20
-132.12
 11
-161.137
 21
-132.007
  0
LINE
  8
0
 10
-161.137
 20
-132.007
 11
-161.346
 21
-131.871
  0
LINE
  8
0
 10
-161.346
 20
-131.871
 11
-161.539
 21
-131.715
  0
LINE
  8
0
 10
-161.539
 20
-131.715
 11
-161.715
 21
-131.539
  0
LINE
  8
0
 10
-161.715
 20
-131.539
 11
-161.871
 21
-131.346
  0
LINE
  8
0
 10
-161.871
 20
-131.346
 11
-162.007
 21
-131.137
  0
LINE
  8
0
 10
-162.007
 20
-131.137
 11
-162.12
 21
-130.916
  0
LINE
  8
0
 10
-162.12
 20
-130.916
 11
-162.209
 21
-130.684
  0
LINE
  8
0
 10
-162.209
 20
-130.684
 11
-162.273
 21
-130.444
  0
LINE
  8
0
 10
-162.273
 20
-130.444
 11
-162.312
 21
-130.198
  0
LINE
  8
0
 10
-162.312
 20
-130.198
 11
-162.325
 21
-129.95
  0
LINE
  8
0
 10
-162.325
 20
-129.95
 11
-162.312
 21
-129.702
  0
LINE
  8
0
 10
-162.312
 20
-129.702
 11
-162.273
 21
-129.456
  0
LINE
  8
0
 10
-162.273
 20
-129.456
 11
-162.209
 21
-129.216
  0
LINE
  8
0
 10
-162.209
 20
-129.216
 11
-162.12
 21
-128.984
  0
LINE
  8
0
 10
-162.12
 20
-128.984
 11
-162.007
 21
-128.762
  0
LINE
  8
0
 10
-162.007
 20
-128.762
 11
-161.871
 21
-128.554
  0
LINE
  8
0
 10
-161.871
 20
-128.554
 11
-161.715
 21
-128.361
  0
LINE
  8
0
 10
-161.715
 20
-128.361
 11
-161.539
 21
-128.185
  0
LINE
  8
0
 10
-161.539
 20
-128.185
 11
-161.346
 21
-128.029
  0
LINE
  8
0
 10
-161.346
 20
-128.029
 11
-161.137
 21
-127.893
  0
LINE
  8
0
 10
-161.137
 20
-127.893
 11
-160.916
 21
-127.78
  0
LINE
  8
0
 10
-160.916
 20
-127.78
 11
-160.684
 21
-127.691
  0
LINE
  8
0
 10
-160.684
 20
-127.691
 11
-160.444
 21
-127.627
  0
LINE
  8
0
 10
-160.444
 20
-127.627
 11
-160.198
 21
-127.588
  0
LINE
  8
0
 10
-160.198
 20
-127.588
 11
-159.95
 21
-127.575
  0
LINE
  8
0
 10
-159.95
 20
-127.575
 11
-159.702
 21
-127.588
  0
LINE
  8
0
 10
-159.702
 20
-127.588
 11
-159.456
 21
-127.627
  0
LINE
  8
0
 10
-159.456
 20
-127.627
 11
-159.216
 21
-127.691
  0
LINE
  8
0
 10
-159.216
 20
-127.691
 11
-158.984
 21
-127.78
  0
LINE
  8
0
 10
-158.984
 20
-127.78
 11
-158.762
 21
-127.893
  0
LINE
  8
0
 10
-158.762
 20
-127.893
 11
-158.554
 21
-128.029
  0
LINE
  8
0
 10
-158.554
 20
-128.029
 11
-158.361
 21
-128.185
  0
LINE
  8
0
 10
-158.361
 20
-128.185
 11
-158.185
 21
-128.361
  0
LINE
  8
0
 10
-158.185
 20
-128.361
 11
-158.029
 21
-128.554
  0
LINE
  8
0
 10
-158.029
 20
-128.554
 11
-157.893
 21
-128.762
  0
LINE
  8
0
 10
-157.893
 20
-128.762
 11
-157.78
 21
-128.984
  0
LINE
  8
0
 10
-157.78
 20
-128.984
 11
-157.691
 21
-129.216
  0
LINE
  8
0
 10
-157.691
 20
-129.216
 11
-157.627
 21
-129.456
  0
LINE
  8
0
 10
-157.627
 20
-129.456
 11
-157.588
 21
-129.702
  0
LINE
  8
0
 10
-157.588
 20
-129.702
 11
-157.575
 21
-129.95
  0
LINE
  8
0
 10
-157.575
 20
-129.95
 11
-157.588
 21
-130.198
  0
LINE
  8
0
 10
-157.588
 20
-130.198
 11
-157.627
 21
-130.444
  0
LINE
  8
0
 10
-157.627
 20
-130.444
 11
-157.691
 21
-130.684
  0
LINE
  8
0
 10
-157.691
 20
-130.684
 11
-157.78
 21
-130.916
  0
LINE
  8
0
 10
-157.78
 20
-130.916
 11
-157.893
 21
-131.137
  0
LINE
  8
0
 10
-157.893
 20
-131.137
 11
-158.029
 21
-131.346
  0
LINE
  8
0
 10
-158.029
 20
-131.346
 11
-158.185
 21
-131.539
  0
LINE
  8
0
 10
-158.185
 20
-131.539
 11
-158.361
 21
-131.715
  0
LINE
  8
0
 10
-158.361
 20
-131.715
 11
-158.554
 21
-131.871
  0
LINE
  8
0
 10
-158.554
 20
-131.871
 11
-158.762
 21
-132.007
  0
LINE
  8
0
 10
-158.762
 20
-132.007
 11
-158.984
 21
-132.12
  0
LINE
  8
0
 10
-158.984
 20
-132.12
 11
-159.216
 21
-132.209
  0
LINE
  8
0
 10
-159.216
 20
-132.209
 11
-159.456
 21
-132.273
  0
LINE
  8
0
 10
-159.456
 20
-132.273
 11
-159.702
 21
-132.312
  0
LINE
  8
0
 10
-159.702
 20
-132.312
 11
-159.95
 21
-132.325
  0
LINE
  8
0
 10
-159.95
 20
-132.325
 11
-160.198
 21
-132.312
  0
LINE
  8
0
 10
159.702
 20
-132.312
 11
159.456
 21
-132.273
  0
LINE
  8
0
 10
159.456
 20
-132.273
 11
159.216
 21
-132.209
  0
LINE
  8
0
 10
159.216
 20
-132.209
 11
158.984
 21
-132.12
  0
LINE
  8
0
 10
158.984
 20
-132.12
 11
158.762
 21
-132.007
  0
LINE
  8
0
 10
158.762
 20
-132.007
 11
158.554
 21
-131.871
  0
LINE
  8
0
 10
158.554
 20
-131.871
 11
158.361
 21
-131.715
  0
LINE
  8
0
 10
158.361
 20
-131.715
 11
158.185
 21
-131.539
  0
LINE
  8
0
 10
158.185
 20
-131.539
 11
158.029
 21
-131.346
  0
LINE
  8
0
 10
158.029
 20
-131.346
 11
157.893
 21
-131.137
  0
LINE
  8
0
 10
157.893
 20
-131.137
 11
157.78
 21
-130.916
  0
LINE
  8
0
 10
157.78
 20
-130.916
 11
157.691
 21
-130.684
  0
LINE
  8
0
 10
157.691
 20
-130.684
 11
157.627
 21
-130.444
  0
LINE
  8
0
 10
157.627
 20
-130.444
 11
157.588
 21
-130.198
  0
LINE
  8
0
 10
157.588
 20
-130.198
 11
157.575
 21
-129.95
  0
LINE
  8
0
 10
157.575
 20
-129.95
 11
157.588
 21
-129.702
  0
LINE
  8
0
 10
157.588
 20
-129.702
 11
157.627
 21
-129.456
  0
LINE
  8
0
 10
157.627
 20
-129.456
 11
157.691
 21
-129.216
  0
LINE
  8
0
 10
157.691
 20
-129.216
 11
157.78
 21
-128.984
  0
LINE
  8
0
 10
157.78
 20
-128.984
 11
157.893
 21
-128.762
  0
LINE
  8
0
 10
157.893
 20
-128.762
 11
158.029
 21
-128.554
  0
LINE
  8
0
 10
158.029
 20
-128.554
 11
158.185
 21
-128.361
  0
LINE
  8
0
 10
158.185
 20
-128.361
 11
158.361
 21
-128.185
  0
LINE
  8
0
 10
158.361
 20
-128.185
 11
158.554
 21
-128.029
  0
LINE
  8
0
 10
158.554
 20
-128.029
 11
158.762
 21
-127.893
  0
LINE
  8
0
 10
158.762
 20
-127.893
 11
158.984
 21
-127.78
  0
LINE
  8
0
 10
158.984
 20
-127.78
 11
159.216
 21
-127.691
  0
LINE
  8
0
 10
159.216
 20
-127.691
 11
159.456
 21
-127.627
  0
LINE
  8
0
 10
159.456
 20
-127.627
 11
159.702
 21
-127.588
  0
LINE
  8
0
 10
159.702
 20
-127.588
 11
159.95
 21
-127.575
  0
LINE
  8
0
 10
159.95
 20
-127.575
 11
160.198
 21
-127.588
  0
LINE
  8
0
 10
160.198
 20
-127.588
 11
160.444
 21
-127.627
  0
LINE
  8
0
 10
160.444
 20
-127.627
 11
160.684
 21
-127.691
  0
LINE
  8
0
 10
160.684
 20
-127.691
 11
160.916
 21
-127.78
  0
LINE
  8
0
 10
160.916
 20
-127.78
 11
161.137
 21
-127.893
  0
LINE
  8
0
 10
161.137
 20
-127.893
 11
161.346
 21
-128.029
  0
LINE
  8
0
 10
161.346
 20
-128.029
 11
161.539
 21
-128.185
  0
LINE
  8
0
 10
161.539
 20
-128.185
 11
161.715
 21
-128.361
  0
LINE
  8
0
 10
161.715
 20
-128.361
 11
161.871
 21
-128.554
  0
LINE
  8
0
 10
161.871
 20
-128.554
 11
162.007
 21
-128.762
  0
LINE
  8
0
 10
162.007
 20
-128.762
 11
162.12
 21
-128.984
  0
LINE
  8
0
 10
162.12
 20
-128.984
 11
162.209
 21
-129.216
  0
LINE
  8
0
 10
162.209
 20
-129.216
 11
162.273
 21
-129.456
  0
LINE
  8
0
 10
162.273
 20
-129.456
 11
162.312
 21
-129.702
  0
LINE
  8
0
 10
162.312
 20
-129.702
 11
162.325
 21
-129.95
  0
LINE
  8
0
 10
162.325
 20
-129.95
 11
162.312
 21
-130.198
  0
LINE
  8
0
 10
162.312
 20
-130.198
 11
162.273
 21
-130.444
  0
LINE
  8
0
 10
162.273
 20
-130.444
 11
162.209
 21
-130.684
  0
LINE
  8
0
 10
162.209
 20
-130.684
 11
162.12
 21
-130.916
  0
LINE
  8
0
 10
162.12
 20
-130.916
 11
162.007
 21
-131.137
  0
LINE
  8
0
 10
162.007
 20
-131.137
 11
161.871
 21
-131.346
  0
LINE
  8
0
 10
161.871
 20
-131.346
 11
161.715
 21
-131.539
  0
LINE
  8
0
 10
161.715
 20
-131.539
 11
161.539
 21
-131.715
  0
LINE
  8
0
 10
161.539
 20
-131.715
 11
161.346
 21
-131.871
  0
LINE
  8
0
 10
161.346
 20
-131.871
 11
161.137
 21
-132.007
  0
LINE
  8
0
 10
161.137
 20
-132.007
 11
160.916
 21
-132.12
  0
LINE
  8
0
 10
160.916
 20
-132.12
 11
160.684
 21
-132.209
  0
LINE
  8
0
 10
160.684
 20
-132.209
 11
160.444
 21
-132.273
  0
LINE
  8
0
 10
160.444
 20
-132.273
 11
160.198
 21
-132.312
  0
LINE
  8
0
 10
160.198
 20
-132.312
 11
159.95
 21
-132.325
  0
LINE
  8
0
 10
159.95
 20
-132.325
 11
159.702
 21
-132.312
  0
ENDSEC
  0
SECTION
  2
OBJECTS
  0
DICTIONARY
  0
ENDSEC
  0
EOF
