solid OpenSCAD_Model
  facet normal 0.258376 -0.966045 0
    outer loop
      vertex 131.559 -155.336 5.9
      vertex 132.318 -155.133 6.8
      vertex 131.559 -155.336 6.8
    endloop
  endfacet
  facet normal 0.258376 -0.966045 0
    outer loop
      vertex 132.318 -155.133 6.8
      vertex 131.559 -155.336 5.9
      vertex 132.318 -155.133 5.9
    endloop
  endfacet
  facet normal 0.156748 -0.987639 0
    outer loop
      vertex 130.784 -155.459 5.9
      vertex 131.559 -155.336 6.8
      vertex 130.784 -155.459 6.8
    endloop
  endfacet
  facet normal 0.156748 -0.987639 0
    outer loop
      vertex 131.559 -155.336 6.8
      vertex 130.784 -155.459 5.9
      vertex 131.559 -155.336 5.9
    endloop
  endfacet
  facet normal 0 -1 0
    outer loop
      vertex 95 -155.5 5.9
      vertex 130 -155.5 6.8
      vertex 95 -155.5 6.8
    endloop
  endfacet
  facet normal 0 -1 -0
    outer loop
      vertex 130 -155.5 6.8
      vertex 95 -155.5 5.9
      vertex 130 -155.5 5.9
    endloop
  endfacet
  facet normal -0.707679 -0.706534 0
    outer loop
      vertex 89.9815 -153.574 5.9
      vertex 89.4264 -153.018 6.8
      vertex 89.4264 -153.018 5.9
    endloop
  endfacet
  facet normal -0.707679 -0.706534 0
    outer loop
      vertex 89.4264 -153.018 6.8
      vertex 89.9815 -153.574 5.9
      vertex 89.9815 -153.574 6.8
    endloop
  endfacet
  facet normal -0.998629 -0.0523516 0
    outer loop
      vertex 87.5411 -148.784 5.9
      vertex 87.5 -148 6.35
      vertex 87.5 -148 5.9
    endloop
  endfacet
  facet normal -0.998629 -0.0523516 -0
    outer loop
      vertex 87.5411 -148.784 6.8
      vertex 87.5 -148 6.35
      vertex 87.5411 -148.784 5.9
    endloop
  endfacet
  facet normal -0.998629 -0.0523516 0
    outer loop
      vertex 87.5 -148 6.35
      vertex 87.5411 -148.784 6.8
      vertex 87.5 -148 6.8
    endloop
  endfacet
  facet normal -0.454584 -0.890704 0
    outer loop
      vertex 91.25 -154.495 5.9
      vertex 91.9495 -154.852 6.8
      vertex 91.25 -154.495 6.8
    endloop
  endfacet
  facet normal -0.454584 -0.890704 -0
    outer loop
      vertex 91.9495 -154.852 6.8
      vertex 91.25 -154.495 5.9
      vertex 91.9495 -154.852 5.9
    endloop
  endfacet
  facet normal -0.544128 -0.839002 0
    outer loop
      vertex 90.5916 -154.068 5.9
      vertex 91.25 -154.495 6.8
      vertex 90.5916 -154.068 6.8
    endloop
  endfacet
  facet normal -0.544128 -0.839002 -0
    outer loop
      vertex 91.25 -154.495 6.8
      vertex 90.5916 -154.068 5.9
      vertex 91.25 -154.495 5.9
    endloop
  endfacet
  facet normal -0.0522246 -0.998635 0
    outer loop
      vertex 94.216 -155.459 5.9
      vertex 95 -155.5 6.8
      vertex 94.216 -155.459 6.8
    endloop
  endfacet
  facet normal -0.0522246 -0.998635 -0
    outer loop
      vertex 95 -155.5 6.8
      vertex 94.216 -155.459 5.9
      vertex 95 -155.5 5.9
    endloop
  endfacet
  facet normal -0.258598 -0.965985 0
    outer loop
      vertex 92.6824 -155.133 5.9
      vertex 93.4407 -155.336 6.8
      vertex 92.6824 -155.133 6.8
    endloop
  endfacet
  facet normal -0.258598 -0.965985 -0
    outer loop
      vertex 93.4407 -155.336 6.8
      vertex 92.6824 -155.133 5.9
      vertex 93.4407 -155.336 5.9
    endloop
  endfacet
  facet normal 0.0522246 -0.998635 0
    outer loop
      vertex 130 -155.5 5.9
      vertex 130.784 -155.459 6.8
      vertex 130 -155.5 6.8
    endloop
  endfacet
  facet normal 0.0522246 -0.998635 0
    outer loop
      vertex 130.784 -155.459 6.8
      vertex 130 -155.5 5.9
      vertex 130.784 -155.459 5.9
    endloop
  endfacet
  facet normal 0.998635 -0.0522246 0
    outer loop
      vertex 137.459 -148.784 6.8
      vertex 137.5 -148 5.9
      vertex 137.5 -148 6.8
    endloop
  endfacet
  facet normal 0.998635 -0.0522246 0
    outer loop
      vertex 137.5 -148 5.9
      vertex 137.459 -148.784 6.8
      vertex 137.459 -148.784 5.9
    endloop
  endfacet
  facet normal 1 -0 0
    outer loop
      vertex 137.5 -148 6.8
      vertex 137.5 133 5.9
      vertex 137.5 133 6.8
    endloop
  endfacet
  facet normal 1 0 0
    outer loop
      vertex 137.5 133 5.9
      vertex 137.5 -148 6.8
      vertex 137.5 -148 5.9
    endloop
  endfacet
  facet normal 0 0 -1
    outer loop
      vertex -95 -155.5 5.9
      vertex -87.5 -148 5.9
      vertex -87.5411 -148.784 5.9
    endloop
  endfacet
  facet normal 0 0 -1
    outer loop
      vertex 130 -155.5 5.9
      vertex 137.5 -148 5.9
      vertex 137.459 -148.784 5.9
    endloop
  endfacet
  facet normal 0 0 -1
    outer loop
      vertex 137.5 -148 5.9
      vertex 87.5 -140.5 5.9
      vertex 137.5 133 5.9
    endloop
  endfacet
  facet normal 0 0 -1
    outer loop
      vertex 130 -155.5 5.9
      vertex 137.459 -148.784 5.9
      vertex 137.336 -149.559 5.9
    endloop
  endfacet
  facet normal 0 -0 -1
    outer loop
      vertex 130 140.5 5.9
      vertex 137.5 133 5.9
      vertex 87.5 -140.5 5.9
    endloop
  endfacet
  facet normal 0 0 -1
    outer loop
      vertex 130 -155.5 5.9
      vertex 137.336 -149.559 5.9
      vertex 137.133 -150.318 5.9
    endloop
  endfacet
  facet normal 0 0 -1
    outer loop
      vertex 137.5 133 5.9
      vertex 130 140.5 5.9
      vertex 137.459 133.784 5.9
    endloop
  endfacet
  facet normal 0 0 -1
    outer loop
      vertex 130 -155.5 5.9
      vertex 137.133 -150.318 5.9
      vertex 136.852 -151.051 5.9
    endloop
  endfacet
  facet normal 0 0 -1
    outer loop
      vertex 137.459 133.784 5.9
      vertex 130 140.5 5.9
      vertex 137.336 134.559 5.9
    endloop
  endfacet
  facet normal 0 0 -1
    outer loop
      vertex 130 -155.5 5.9
      vertex 136.852 -151.051 5.9
      vertex 136.495 -151.75 5.9
    endloop
  endfacet
  facet normal 0 0 -1
    outer loop
      vertex 137.336 134.559 5.9
      vertex 130 140.5 5.9
      vertex 137.133 135.318 5.9
    endloop
  endfacet
  facet normal 0 0 -1
    outer loop
      vertex 130 -155.5 5.9
      vertex 136.495 -151.75 5.9
      vertex 136.068 -152.408 5.9
    endloop
  endfacet
  facet normal 0 0 -1
    outer loop
      vertex 137.133 135.318 5.9
      vertex 130 140.5 5.9
      vertex 136.852 136.051 5.9
    endloop
  endfacet
  facet normal 0 0 -1
    outer loop
      vertex 130 -155.5 5.9
      vertex 136.068 -152.408 5.9
      vertex 135.574 -153.018 5.9
    endloop
  endfacet
  facet normal 0 0 -1
    outer loop
      vertex 136.852 136.051 5.9
      vertex 130 140.5 5.9
      vertex 136.495 136.75 5.9
    endloop
  endfacet
  facet normal 0 0 -1
    outer loop
      vertex 130 -155.5 5.9
      vertex 135.574 -153.018 5.9
      vertex 135.018 -153.574 5.9
    endloop
  endfacet
  facet normal 0 0 -1
    outer loop
      vertex 136.495 136.75 5.9
      vertex 130 140.5 5.9
      vertex 136.068 137.408 5.9
    endloop
  endfacet
  facet normal 0 0 -1
    outer loop
      vertex 130 -155.5 5.9
      vertex 135.018 -153.574 5.9
      vertex 134.408 -154.068 5.9
    endloop
  endfacet
  facet normal 0 0 -1
    outer loop
      vertex 136.068 137.408 5.9
      vertex 130 140.5 5.9
      vertex 135.574 138.018 5.9
    endloop
  endfacet
  facet normal 0 0 -1
    outer loop
      vertex 130 -155.5 5.9
      vertex 134.408 -154.068 5.9
      vertex 133.75 -154.495 5.9
    endloop
  endfacet
  facet normal 0 0 -1
    outer loop
      vertex 135.574 138.018 5.9
      vertex 130 140.5 5.9
      vertex 135.018 138.574 5.9
    endloop
  endfacet
  facet normal 0 0 -1
    outer loop
      vertex 130 -155.5 5.9
      vertex 133.75 -154.495 5.9
      vertex 133.051 -154.852 5.9
    endloop
  endfacet
  facet normal 0 0 -1
    outer loop
      vertex 135.018 138.574 5.9
      vertex 130 140.5 5.9
      vertex 134.408 139.068 5.9
    endloop
  endfacet
  facet normal 0 0 -1
    outer loop
      vertex 130 -155.5 5.9
      vertex 133.051 -154.852 5.9
      vertex 132.318 -155.133 5.9
    endloop
  endfacet
  facet normal 0 0 -1
    outer loop
      vertex 134.408 139.068 5.9
      vertex 130 140.5 5.9
      vertex 133.75 139.495 5.9
    endloop
  endfacet
  facet normal 0 0 -1
    outer loop
      vertex 130 -155.5 5.9
      vertex 132.318 -155.133 5.9
      vertex 131.559 -155.336 5.9
    endloop
  endfacet
  facet normal 0 0 -1
    outer loop
      vertex 133.75 139.495 5.9
      vertex 130 140.5 5.9
      vertex 133.051 139.852 5.9
    endloop
  endfacet
  facet normal 0 0 -1
    outer loop
      vertex 130 -155.5 5.9
      vertex 131.559 -155.336 5.9
      vertex 130.784 -155.459 5.9
    endloop
  endfacet
  facet normal 0 0 -1
    outer loop
      vertex 133.051 139.852 5.9
      vertex 130 140.5 5.9
      vertex 132.318 140.133 5.9
    endloop
  endfacet
  facet normal -0 0 -1
    outer loop
      vertex 137.5 -148 5.9
      vertex 130 -155.5 5.9
      vertex 87.5 -140.5 5.9
    endloop
  endfacet
  facet normal 0 0 -1
    outer loop
      vertex 132.318 140.133 5.9
      vertex 130 140.5 5.9
      vertex 131.559 140.336 5.9
    endloop
  endfacet
  facet normal 0 0 -1
    outer loop
      vertex 87.5 -140.5 5.9
      vertex 130 -155.5 5.9
      vertex 95 -155.5 5.9
    endloop
  endfacet
  facet normal 0 0 -1
    outer loop
      vertex 87.5 -148 5.9
      vertex 95 -155.5 5.9
      vertex 94.216 -155.459 5.9
    endloop
  endfacet
  facet normal 0 0 -1
    outer loop
      vertex 87.5 -148 5.9
      vertex 94.216 -155.459 5.9
      vertex 93.4407 -155.336 5.9
    endloop
  endfacet
  facet normal 0 0 -1
    outer loop
      vertex 87.5 -148 5.9
      vertex 93.4407 -155.336 5.9
      vertex 92.6824 -155.133 5.9
    endloop
  endfacet
  facet normal 0 0 -1
    outer loop
      vertex 87.5 -148 5.9
      vertex 92.6824 -155.133 5.9
      vertex 91.9495 -154.852 5.9
    endloop
  endfacet
  facet normal 0 0 -1
    outer loop
      vertex 87.5 -148 5.9
      vertex 91.9495 -154.852 5.9
      vertex 91.25 -154.495 5.9
    endloop
  endfacet
  facet normal 0 0 -1
    outer loop
      vertex 87.5 -148 5.9
      vertex 91.25 -154.495 5.9
      vertex 90.5916 -154.068 5.9
    endloop
  endfacet
  facet normal 0 0 -1
    outer loop
      vertex 87.5 -148 5.9
      vertex 90.5916 -154.068 5.9
      vertex 89.9815 -153.574 5.9
    endloop
  endfacet
  facet normal 0 0 -1
    outer loop
      vertex 87.5 -148 5.9
      vertex 89.9815 -153.574 5.9
      vertex 89.4264 -153.018 5.9
    endloop
  endfacet
  facet normal 0 0 -1
    outer loop
      vertex 87.5 -148 5.9
      vertex 89.4264 -153.018 5.9
      vertex 88.9324 -152.408 5.9
    endloop
  endfacet
  facet normal 0 0 -1
    outer loop
      vertex 87.5 -148 5.9
      vertex 88.9324 -152.408 5.9
      vertex 88.5048 -151.75 5.9
    endloop
  endfacet
  facet normal 0 0 -1
    outer loop
      vertex 87.5 -148 5.9
      vertex 88.5048 -151.75 5.9
      vertex 88.1484 -151.051 5.9
    endloop
  endfacet
  facet normal 0 0 -1
    outer loop
      vertex 87.5 -148 5.9
      vertex 88.1484 -151.051 5.9
      vertex 87.8671 -150.318 5.9
    endloop
  endfacet
  facet normal 0 0 -1
    outer loop
      vertex 87.5 -148 5.9
      vertex 87.8671 -150.318 5.9
      vertex 87.6639 -149.559 5.9
    endloop
  endfacet
  facet normal 0 0 -1
    outer loop
      vertex 87.5 -148 5.9
      vertex 87.6639 -149.559 5.9
      vertex 87.5411 -148.784 5.9
    endloop
  endfacet
  facet normal 0 0 -1
    outer loop
      vertex 95 -155.5 5.9
      vertex 87.5 -148 5.9
      vertex 87.5 -140.5 5.9
    endloop
  endfacet
  facet normal 0 0 -1
    outer loop
      vertex 131.559 140.336 5.9
      vertex 130 140.5 5.9
      vertex 130.784 140.459 5.9
    endloop
  endfacet
  facet normal 0 0 -1
    outer loop
      vertex -87.5 -140.5 5.9
      vertex 130 140.5 5.9
      vertex 87.5 -140.5 5.9
    endloop
  endfacet
  facet normal 0 0 -1
    outer loop
      vertex -95 -155.5 5.9
      vertex -87.5411 -148.784 5.9
      vertex -87.6639 -149.559 5.9
    endloop
  endfacet
  facet normal 0 0 -1
    outer loop
      vertex -95 -155.5 5.9
      vertex -87.6639 -149.559 5.9
      vertex -87.8671 -150.318 5.9
    endloop
  endfacet
  facet normal 0 0 -1
    outer loop
      vertex -95 -155.5 5.9
      vertex -87.8671 -150.318 5.9
      vertex -88.1484 -151.051 5.9
    endloop
  endfacet
  facet normal 0 0 -1
    outer loop
      vertex -95 -155.5 5.9
      vertex -88.1484 -151.051 5.9
      vertex -88.5048 -151.75 5.9
    endloop
  endfacet
  facet normal 0 0 -1
    outer loop
      vertex -95 -155.5 5.9
      vertex -88.5048 -151.75 5.9
      vertex -88.9324 -152.408 5.9
    endloop
  endfacet
  facet normal 0 0 -1
    outer loop
      vertex -95 -155.5 5.9
      vertex -88.9324 -152.408 5.9
      vertex -89.4264 -153.018 5.9
    endloop
  endfacet
  facet normal 0 0 -1
    outer loop
      vertex -95 -155.5 5.9
      vertex -89.4264 -153.018 5.9
      vertex -89.9815 -153.574 5.9
    endloop
  endfacet
  facet normal 0 0 -1
    outer loop
      vertex -95 -155.5 5.9
      vertex -89.9815 -153.574 5.9
      vertex -90.5916 -154.068 5.9
    endloop
  endfacet
  facet normal 0 0 -1
    outer loop
      vertex -95 -155.5 5.9
      vertex -90.5916 -154.068 5.9
      vertex -91.25 -154.495 5.9
    endloop
  endfacet
  facet normal 0 0 -1
    outer loop
      vertex -95 -155.5 5.9
      vertex -91.25 -154.495 5.9
      vertex -91.9495 -154.852 5.9
    endloop
  endfacet
  facet normal 0 0 -1
    outer loop
      vertex -95 -155.5 5.9
      vertex -91.9495 -154.852 5.9
      vertex -92.6824 -155.133 5.9
    endloop
  endfacet
  facet normal 0 0 -1
    outer loop
      vertex -95 -155.5 5.9
      vertex -92.6824 -155.133 5.9
      vertex -93.4407 -155.336 5.9
    endloop
  endfacet
  facet normal 0 0 -1
    outer loop
      vertex -95 -155.5 5.9
      vertex -93.4407 -155.336 5.9
      vertex -94.216 -155.459 5.9
    endloop
  endfacet
  facet normal -0 0 -1
    outer loop
      vertex -87.5 -148 5.9
      vertex -95 -155.5 5.9
      vertex -87.5 -140.5 5.9
    endloop
  endfacet
  facet normal 0 0 -1
    outer loop
      vertex -130 -155.5 5.9
      vertex -87.5 -140.5 5.9
      vertex -95 -155.5 5.9
    endloop
  endfacet
  facet normal 0 0 -1
    outer loop
      vertex -137.5 -148 5.9
      vertex -87.5 -140.5 5.9
      vertex -130 -155.5 5.9
    endloop
  endfacet
  facet normal 0 0 -1
    outer loop
      vertex -137.5 133 5.9
      vertex -87.5 -140.5 5.9
      vertex -137.5 -148 5.9
    endloop
  endfacet
  facet normal 0 0 -1
    outer loop
      vertex -137.5 -148 5.9
      vertex -130 -155.5 5.9
      vertex -130.784 -155.459 5.9
    endloop
  endfacet
  facet normal 0 -0 -1
    outer loop
      vertex -130 140.5 5.9
      vertex -87.5 -140.5 5.9
      vertex -137.5 133 5.9
    endloop
  endfacet
  facet normal 0 0 -1
    outer loop
      vertex -137.5 -148 5.9
      vertex -130.784 -155.459 5.9
      vertex -131.559 -155.336 5.9
    endloop
  endfacet
  facet normal 0 0 -1
    outer loop
      vertex -87.5 -140.5 5.9
      vertex -130 140.5 5.9
      vertex 130 140.5 5.9
    endloop
  endfacet
  facet normal 0 0 -1
    outer loop
      vertex -137.5 -148 5.9
      vertex -131.559 -155.336 5.9
      vertex -132.318 -155.133 5.9
    endloop
  endfacet
  facet normal 0 0 -1
    outer loop
      vertex -130 140.5 5.9
      vertex -137.5 133 5.9
      vertex -130.784 140.459 5.9
    endloop
  endfacet
  facet normal 0 0 -1
    outer loop
      vertex -137.5 -148 5.9
      vertex -132.318 -155.133 5.9
      vertex -133.051 -154.852 5.9
    endloop
  endfacet
  facet normal 0 0 -1
    outer loop
      vertex -130.784 140.459 5.9
      vertex -137.5 133 5.9
      vertex -131.559 140.336 5.9
    endloop
  endfacet
  facet normal 0 0 -1
    outer loop
      vertex -137.5 -148 5.9
      vertex -133.051 -154.852 5.9
      vertex -133.75 -154.495 5.9
    endloop
  endfacet
  facet normal 0 0 -1
    outer loop
      vertex -131.559 140.336 5.9
      vertex -137.5 133 5.9
      vertex -132.318 140.133 5.9
    endloop
  endfacet
  facet normal 0 0 -1
    outer loop
      vertex -137.5 -148 5.9
      vertex -133.75 -154.495 5.9
      vertex -134.408 -154.068 5.9
    endloop
  endfacet
  facet normal 0 0 -1
    outer loop
      vertex -132.318 140.133 5.9
      vertex -137.5 133 5.9
      vertex -133.051 139.852 5.9
    endloop
  endfacet
  facet normal 0 0 -1
    outer loop
      vertex -137.5 -148 5.9
      vertex -134.408 -154.068 5.9
      vertex -135.018 -153.574 5.9
    endloop
  endfacet
  facet normal 0 0 -1
    outer loop
      vertex -133.051 139.852 5.9
      vertex -137.5 133 5.9
      vertex -133.75 139.495 5.9
    endloop
  endfacet
  facet normal 0 0 -1
    outer loop
      vertex -137.5 -148 5.9
      vertex -135.018 -153.574 5.9
      vertex -135.574 -153.018 5.9
    endloop
  endfacet
  facet normal 0 0 -1
    outer loop
      vertex -133.75 139.495 5.9
      vertex -137.5 133 5.9
      vertex -134.408 139.068 5.9
    endloop
  endfacet
  facet normal 0 0 -1
    outer loop
      vertex -137.5 -148 5.9
      vertex -135.574 -153.018 5.9
      vertex -136.068 -152.408 5.9
    endloop
  endfacet
  facet normal 0 0 -1
    outer loop
      vertex -134.408 139.068 5.9
      vertex -137.5 133 5.9
      vertex -135.018 138.574 5.9
    endloop
  endfacet
  facet normal 0 0 -1
    outer loop
      vertex -137.5 -148 5.9
      vertex -136.068 -152.408 5.9
      vertex -136.495 -151.75 5.9
    endloop
  endfacet
  facet normal 0 0 -1
    outer loop
      vertex -135.018 138.574 5.9
      vertex -137.5 133 5.9
      vertex -135.574 138.018 5.9
    endloop
  endfacet
  facet normal 0 0 -1
    outer loop
      vertex -137.5 -148 5.9
      vertex -136.495 -151.75 5.9
      vertex -136.852 -151.051 5.9
    endloop
  endfacet
  facet normal 0 0 -1
    outer loop
      vertex -135.574 138.018 5.9
      vertex -137.5 133 5.9
      vertex -136.068 137.408 5.9
    endloop
  endfacet
  facet normal 0 0 -1
    outer loop
      vertex -137.5 -148 5.9
      vertex -136.852 -151.051 5.9
      vertex -137.133 -150.318 5.9
    endloop
  endfacet
  facet normal 0 0 -1
    outer loop
      vertex -136.068 137.408 5.9
      vertex -137.5 133 5.9
      vertex -136.495 136.75 5.9
    endloop
  endfacet
  facet normal 0 0 -1
    outer loop
      vertex -137.5 -148 5.9
      vertex -137.133 -150.318 5.9
      vertex -137.336 -149.559 5.9
    endloop
  endfacet
  facet normal 0 0 -1
    outer loop
      vertex -136.495 136.75 5.9
      vertex -137.5 133 5.9
      vertex -136.852 136.051 5.9
    endloop
  endfacet
  facet normal 0 0 -1
    outer loop
      vertex -137.5 -148 5.9
      vertex -137.336 -149.559 5.9
      vertex -137.459 -148.784 5.9
    endloop
  endfacet
  facet normal 0 0 -1
    outer loop
      vertex -136.852 136.051 5.9
      vertex -137.5 133 5.9
      vertex -137.133 135.318 5.9
    endloop
  endfacet
  facet normal 0 0 -1
    outer loop
      vertex -137.133 135.318 5.9
      vertex -137.5 133 5.9
      vertex -137.336 134.559 5.9
    endloop
  endfacet
  facet normal 0 0 -1
    outer loop
      vertex -137.336 134.559 5.9
      vertex -137.5 133 5.9
      vertex -137.459 133.784 5.9
    endloop
  endfacet
  facet normal -0.156689 -0.987648 0
    outer loop
      vertex 93.4407 -155.336 5.9
      vertex 94.216 -155.459 6.8
      vertex 93.4407 -155.336 6.8
    endloop
  endfacet
  facet normal -0.156689 -0.987648 -0
    outer loop
      vertex 94.216 -155.459 6.8
      vertex 93.4407 -155.336 5.9
      vertex 94.216 -155.459 5.9
    endloop
  endfacet
  facet normal 0.987639 -0.156748 0
    outer loop
      vertex 137.336 -149.559 6.8
      vertex 137.459 -148.784 5.9
      vertex 137.459 -148.784 6.8
    endloop
  endfacet
  facet normal 0.987639 -0.156748 0
    outer loop
      vertex 137.459 -148.784 5.9
      vertex 137.336 -149.559 6.8
      vertex 137.336 -149.559 5.9
    endloop
  endfacet
  facet normal 0.777126 -0.629345 0
    outer loop
      vertex 135.574 -153.018 6.8
      vertex 136.068 -152.408 5.9
      vertex 136.068 -152.408 6.8
    endloop
  endfacet
  facet normal 0.777126 -0.629345 0
    outer loop
      vertex 136.068 -152.408 5.9
      vertex 135.574 -153.018 6.8
      vertex 135.574 -153.018 5.9
    endloop
  endfacet
  facet normal 0.357955 -0.933739 0
    outer loop
      vertex 132.318 -155.133 5.9
      vertex 133.051 -154.852 6.8
      vertex 132.318 -155.133 6.8
    endloop
  endfacet
  facet normal 0.357955 -0.933739 0
    outer loop
      vertex 133.051 -154.852 6.8
      vertex 132.318 -155.133 5.9
      vertex 133.051 -154.852 5.9
    endloop
  endfacet
  facet normal -0.629283 -0.777177 0
    outer loop
      vertex 89.9815 -153.574 5.9
      vertex 90.5916 -154.068 6.8
      vertex 89.9815 -153.574 6.8
    endloop
  endfacet
  facet normal -0.629283 -0.777177 -0
    outer loop
      vertex 90.5916 -154.068 6.8
      vertex 89.9815 -153.574 5.9
      vertex 90.5916 -154.068 5.9
    endloop
  endfacet
  facet normal -0.987678 -0.156499 0
    outer loop
      vertex 87.6639 -149.559 5.9
      vertex 87.5411 -148.784 6.8
      vertex 87.5411 -148.784 5.9
    endloop
  endfacet
  facet normal -0.987678 -0.156499 0
    outer loop
      vertex 87.5411 -148.784 6.8
      vertex 87.6639 -149.559 5.9
      vertex 87.6639 -149.559 6.8
    endloop
  endfacet
  facet normal -0.965981 -0.258613 0
    outer loop
      vertex 87.8671 -150.318 5.9
      vertex 87.6639 -149.559 6.8
      vertex 87.6639 -149.559 5.9
    endloop
  endfacet
  facet normal -0.965981 -0.258613 0
    outer loop
      vertex 87.6639 -149.559 6.8
      vertex 87.8671 -150.318 5.9
      vertex 87.8671 -150.318 6.8
    endloop
  endfacet
  facet normal -0.933611 -0.358288 0
    outer loop
      vertex 88.1484 -151.051 5.9
      vertex 87.8671 -150.318 6.8
      vertex 87.8671 -150.318 5.9
    endloop
  endfacet
  facet normal -0.933611 -0.358288 0
    outer loop
      vertex 87.8671 -150.318 6.8
      vertex 88.1484 -151.051 5.9
      vertex 88.1484 -151.051 6.8
    endloop
  endfacet
  facet normal -0.838502 -0.544899 0
    outer loop
      vertex 88.9324 -152.408 5.9
      vertex 88.5048 -151.75 6.8
      vertex 88.5048 -151.75 5.9
    endloop
  endfacet
  facet normal -0.838502 -0.544899 0
    outer loop
      vertex 88.5048 -151.75 6.8
      vertex 88.9324 -152.408 5.9
      vertex 88.9324 -152.408 6.8
    endloop
  endfacet
  facet normal 0 0 1
    outer loop
      vertex 130 140.5 6.8
      vertex 137.5 133 6.8
      vertex 137.459 133.784 6.8
    endloop
  endfacet
  facet normal 0 0 1
    outer loop
      vertex 137.5 133 6.8
      vertex 87.5 -140.5 6.8
      vertex 137.5 -148 6.8
    endloop
  endfacet
  facet normal 0 0 1
    outer loop
      vertex 130 140.5 6.8
      vertex 137.459 133.784 6.8
      vertex 137.336 134.559 6.8
    endloop
  endfacet
  facet normal 0 -0 1
    outer loop
      vertex 130 -155.5 6.8
      vertex 137.5 -148 6.8
      vertex 87.5 -140.5 6.8
    endloop
  endfacet
  facet normal 0 0 1
    outer loop
      vertex 130 140.5 6.8
      vertex 137.336 134.559 6.8
      vertex 137.133 135.318 6.8
    endloop
  endfacet
  facet normal 0 0 1
    outer loop
      vertex 137.5 -148 6.8
      vertex 130 -155.5 6.8
      vertex 137.459 -148.784 6.8
    endloop
  endfacet
  facet normal 0 0 1
    outer loop
      vertex 130 140.5 6.8
      vertex 137.133 135.318 6.8
      vertex 136.852 136.051 6.8
    endloop
  endfacet
  facet normal 0 0 1
    outer loop
      vertex 137.459 -148.784 6.8
      vertex 130 -155.5 6.8
      vertex 137.336 -149.559 6.8
    endloop
  endfacet
  facet normal 0 0 1
    outer loop
      vertex 130 140.5 6.8
      vertex 136.852 136.051 6.8
      vertex 136.495 136.75 6.8
    endloop
  endfacet
  facet normal 0 0 1
    outer loop
      vertex 137.336 -149.559 6.8
      vertex 130 -155.5 6.8
      vertex 137.133 -150.318 6.8
    endloop
  endfacet
  facet normal 0 0 1
    outer loop
      vertex 130 140.5 6.8
      vertex 136.495 136.75 6.8
      vertex 136.068 137.408 6.8
    endloop
  endfacet
  facet normal 0 0 1
    outer loop
      vertex 137.133 -150.318 6.8
      vertex 130 -155.5 6.8
      vertex 136.852 -151.051 6.8
    endloop
  endfacet
  facet normal 0 0 1
    outer loop
      vertex 130 140.5 6.8
      vertex 136.068 137.408 6.8
      vertex 135.574 138.018 6.8
    endloop
  endfacet
  facet normal 0 0 1
    outer loop
      vertex 136.852 -151.051 6.8
      vertex 130 -155.5 6.8
      vertex 136.495 -151.75 6.8
    endloop
  endfacet
  facet normal 0 0 1
    outer loop
      vertex 130 140.5 6.8
      vertex 135.574 138.018 6.8
      vertex 135.018 138.574 6.8
    endloop
  endfacet
  facet normal 0 0 1
    outer loop
      vertex 136.495 -151.75 6.8
      vertex 130 -155.5 6.8
      vertex 136.068 -152.408 6.8
    endloop
  endfacet
  facet normal 0 0 1
    outer loop
      vertex 130 140.5 6.8
      vertex 135.018 138.574 6.8
      vertex 134.408 139.068 6.8
    endloop
  endfacet
  facet normal 0 0 1
    outer loop
      vertex 136.068 -152.408 6.8
      vertex 130 -155.5 6.8
      vertex 135.574 -153.018 6.8
    endloop
  endfacet
  facet normal 0 0 1
    outer loop
      vertex 130 140.5 6.8
      vertex 134.408 139.068 6.8
      vertex 133.75 139.495 6.8
    endloop
  endfacet
  facet normal 0 0 1
    outer loop
      vertex 135.574 -153.018 6.8
      vertex 130 -155.5 6.8
      vertex 135.018 -153.574 6.8
    endloop
  endfacet
  facet normal 0 0 1
    outer loop
      vertex 130 140.5 6.8
      vertex 133.75 139.495 6.8
      vertex 133.051 139.852 6.8
    endloop
  endfacet
  facet normal 0 0 1
    outer loop
      vertex 135.018 -153.574 6.8
      vertex 130 -155.5 6.8
      vertex 134.408 -154.068 6.8
    endloop
  endfacet
  facet normal 0 0 1
    outer loop
      vertex 130 140.5 6.8
      vertex 133.051 139.852 6.8
      vertex 132.318 140.133 6.8
    endloop
  endfacet
  facet normal 0 0 1
    outer loop
      vertex 134.408 -154.068 6.8
      vertex 130 -155.5 6.8
      vertex 133.75 -154.495 6.8
    endloop
  endfacet
  facet normal 0 0 1
    outer loop
      vertex 130 140.5 6.8
      vertex 132.318 140.133 6.8
      vertex 131.559 140.336 6.8
    endloop
  endfacet
  facet normal 0 0 1
    outer loop
      vertex 133.75 -154.495 6.8
      vertex 130 -155.5 6.8
      vertex 133.051 -154.852 6.8
    endloop
  endfacet
  facet normal 0 0 1
    outer loop
      vertex 130 140.5 6.8
      vertex 131.559 140.336 6.8
      vertex 130.784 140.459 6.8
    endloop
  endfacet
  facet normal 0 0 1
    outer loop
      vertex 133.051 -154.852 6.8
      vertex 130 -155.5 6.8
      vertex 132.318 -155.133 6.8
    endloop
  endfacet
  facet normal 0 0 1
    outer loop
      vertex 137.5 133 6.8
      vertex 130 140.5 6.8
      vertex 80 -140.5 6.8
    endloop
  endfacet
  facet normal 0 0 1
    outer loop
      vertex 132.318 -155.133 6.8
      vertex 130 -155.5 6.8
      vertex 131.559 -155.336 6.8
    endloop
  endfacet
  facet normal 0 0 1
    outer loop
      vertex 131.559 -155.336 6.8
      vertex 130 -155.5 6.8
      vertex 130.784 -155.459 6.8
    endloop
  endfacet
  facet normal 0 0 1
    outer loop
      vertex 130 -155.5 6.8
      vertex 87.5 -140.5 6.8
      vertex 95 -155.5 6.8
    endloop
  endfacet
  facet normal -0 0 1
    outer loop
      vertex 87.5 -148 6.8
      vertex 95 -155.5 6.8
      vertex 87.5 -140.5 6.8
    endloop
  endfacet
  facet normal 0 0 1
    outer loop
      vertex 95 -155.5 6.8
      vertex 87.5 -148 6.8
      vertex 94.216 -155.459 6.8
    endloop
  endfacet
  facet normal 0 0 1
    outer loop
      vertex 94.216 -155.459 6.8
      vertex 87.5 -148 6.8
      vertex 93.4407 -155.336 6.8
    endloop
  endfacet
  facet normal 0 0 1
    outer loop
      vertex 93.4407 -155.336 6.8
      vertex 87.5 -148 6.8
      vertex 92.6824 -155.133 6.8
    endloop
  endfacet
  facet normal 0 0 1
    outer loop
      vertex 92.6824 -155.133 6.8
      vertex 87.5 -148 6.8
      vertex 91.9495 -154.852 6.8
    endloop
  endfacet
  facet normal 0 0 1
    outer loop
      vertex 91.9495 -154.852 6.8
      vertex 87.5 -148 6.8
      vertex 91.25 -154.495 6.8
    endloop
  endfacet
  facet normal 0 0 1
    outer loop
      vertex 91.25 -154.495 6.8
      vertex 87.5 -148 6.8
      vertex 90.5916 -154.068 6.8
    endloop
  endfacet
  facet normal 0 0 1
    outer loop
      vertex 90.5916 -154.068 6.8
      vertex 87.5 -148 6.8
      vertex 89.9815 -153.574 6.8
    endloop
  endfacet
  facet normal 0 0 1
    outer loop
      vertex 89.9815 -153.574 6.8
      vertex 87.5 -148 6.8
      vertex 89.4264 -153.018 6.8
    endloop
  endfacet
  facet normal 0 0 1
    outer loop
      vertex 89.4264 -153.018 6.8
      vertex 87.5 -148 6.8
      vertex 88.9324 -152.408 6.8
    endloop
  endfacet
  facet normal 0 0 1
    outer loop
      vertex 88.9324 -152.408 6.8
      vertex 87.5 -148 6.8
      vertex 88.5048 -151.75 6.8
    endloop
  endfacet
  facet normal 0 0 1
    outer loop
      vertex 88.5048 -151.75 6.8
      vertex 87.5 -148 6.8
      vertex 88.1484 -151.051 6.8
    endloop
  endfacet
  facet normal 0 0 1
    outer loop
      vertex 88.1484 -151.051 6.8
      vertex 87.5 -148 6.8
      vertex 87.8671 -150.318 6.8
    endloop
  endfacet
  facet normal 0 0 1
    outer loop
      vertex 87.8671 -150.318 6.8
      vertex 87.5 -148 6.8
      vertex 87.6639 -149.559 6.8
    endloop
  endfacet
  facet normal 0 0 1
    outer loop
      vertex 137.5 133 6.8
      vertex 80 -140.5 6.8
      vertex 87.5 -140.5 6.8
    endloop
  endfacet
  facet normal 0 0 1
    outer loop
      vertex 130 140.5 6.8
      vertex -80 -140.5 6.8
      vertex 80 -140.5 6.8
    endloop
  endfacet
  facet normal -0 0 1
    outer loop
      vertex -130 140.5 6.8
      vertex -80 -140.5 6.8
      vertex 130 140.5 6.8
    endloop
  endfacet
  facet normal 0 0 1
    outer loop
      vertex -95 -155.5 6.8
      vertex -87.5 -148 6.8
      vertex -87.5 -140.5 6.8
    endloop
  endfacet
  facet normal 0 0 1
    outer loop
      vertex -87.5 -148 6.8
      vertex -95 -155.5 6.8
      vertex -87.5411 -148.784 6.8
    endloop
  endfacet
  facet normal 0 0 1
    outer loop
      vertex -87.5411 -148.784 6.8
      vertex -95 -155.5 6.8
      vertex -87.6639 -149.559 6.8
    endloop
  endfacet
  facet normal 0 0 1
    outer loop
      vertex -87.6639 -149.559 6.8
      vertex -95 -155.5 6.8
      vertex -87.8671 -150.318 6.8
    endloop
  endfacet
  facet normal 0 0 1
    outer loop
      vertex -87.8671 -150.318 6.8
      vertex -95 -155.5 6.8
      vertex -88.1484 -151.051 6.8
    endloop
  endfacet
  facet normal 0 0 1
    outer loop
      vertex -88.1484 -151.051 6.8
      vertex -95 -155.5 6.8
      vertex -88.5048 -151.75 6.8
    endloop
  endfacet
  facet normal 0 0 1
    outer loop
      vertex -88.5048 -151.75 6.8
      vertex -95 -155.5 6.8
      vertex -88.9324 -152.408 6.8
    endloop
  endfacet
  facet normal 0 0 1
    outer loop
      vertex -88.9324 -152.408 6.8
      vertex -95 -155.5 6.8
      vertex -89.4264 -153.018 6.8
    endloop
  endfacet
  facet normal 0 0 1
    outer loop
      vertex -89.4264 -153.018 6.8
      vertex -95 -155.5 6.8
      vertex -89.9815 -153.574 6.8
    endloop
  endfacet
  facet normal 0 0 1
    outer loop
      vertex -89.9815 -153.574 6.8
      vertex -95 -155.5 6.8
      vertex -90.5916 -154.068 6.8
    endloop
  endfacet
  facet normal 0 0 1
    outer loop
      vertex -90.5916 -154.068 6.8
      vertex -95 -155.5 6.8
      vertex -91.25 -154.495 6.8
    endloop
  endfacet
  facet normal 0 0 1
    outer loop
      vertex -91.25 -154.495 6.8
      vertex -95 -155.5 6.8
      vertex -91.9495 -154.852 6.8
    endloop
  endfacet
  facet normal 0 0 1
    outer loop
      vertex -91.9495 -154.852 6.8
      vertex -95 -155.5 6.8
      vertex -92.6824 -155.133 6.8
    endloop
  endfacet
  facet normal 0 0 1
    outer loop
      vertex -92.6824 -155.133 6.8
      vertex -95 -155.5 6.8
      vertex -93.4407 -155.336 6.8
    endloop
  endfacet
  facet normal 0 0 1
    outer loop
      vertex -93.4407 -155.336 6.8
      vertex -95 -155.5 6.8
      vertex -94.216 -155.459 6.8
    endloop
  endfacet
  facet normal -0 0 1
    outer loop
      vertex -137.5 133 6.8
      vertex -80 -140.5 6.8
      vertex -130 140.5 6.8
    endloop
  endfacet
  facet normal 0 0 1
    outer loop
      vertex -80 -140.5 6.8
      vertex -137.5 133 6.8
      vertex -87.5 -140.5 6.8
    endloop
  endfacet
  facet normal 0 0 1
    outer loop
      vertex -137.5 -148 6.8
      vertex -87.5 -140.5 6.8
      vertex -137.5 133 6.8
    endloop
  endfacet
  facet normal 0 0 1
    outer loop
      vertex -137.5 133 6.8
      vertex -130 140.5 6.8
      vertex -130.784 140.459 6.8
    endloop
  endfacet
  facet normal 0 -0 1
    outer loop
      vertex -130 -155.5 6.8
      vertex -87.5 -140.5 6.8
      vertex -137.5 -148 6.8
    endloop
  endfacet
  facet normal 0 0 1
    outer loop
      vertex -137.5 133 6.8
      vertex -130.784 140.459 6.8
      vertex -131.559 140.336 6.8
    endloop
  endfacet
  facet normal 0 0 1
    outer loop
      vertex -87.5 -140.5 6.8
      vertex -130 -155.5 6.8
      vertex -95 -155.5 6.8
    endloop
  endfacet
  facet normal 0 0 1
    outer loop
      vertex -137.5 133 6.8
      vertex -131.559 140.336 6.8
      vertex -132.318 140.133 6.8
    endloop
  endfacet
  facet normal 0 0 1
    outer loop
      vertex -130 -155.5 6.8
      vertex -137.5 -148 6.8
      vertex -130.784 -155.459 6.8
    endloop
  endfacet
  facet normal 0 0 1
    outer loop
      vertex -137.5 133 6.8
      vertex -132.318 140.133 6.8
      vertex -133.051 139.852 6.8
    endloop
  endfacet
  facet normal 0 0 1
    outer loop
      vertex -130.784 -155.459 6.8
      vertex -137.5 -148 6.8
      vertex -131.559 -155.336 6.8
    endloop
  endfacet
  facet normal 0 0 1
    outer loop
      vertex -137.5 133 6.8
      vertex -133.051 139.852 6.8
      vertex -133.75 139.495 6.8
    endloop
  endfacet
  facet normal 0 0 1
    outer loop
      vertex -131.559 -155.336 6.8
      vertex -137.5 -148 6.8
      vertex -132.318 -155.133 6.8
    endloop
  endfacet
  facet normal 0 0 1
    outer loop
      vertex -137.5 133 6.8
      vertex -133.75 139.495 6.8
      vertex -134.408 139.068 6.8
    endloop
  endfacet
  facet normal 0 0 1
    outer loop
      vertex -132.318 -155.133 6.8
      vertex -137.5 -148 6.8
      vertex -133.051 -154.852 6.8
    endloop
  endfacet
  facet normal 0 0 1
    outer loop
      vertex -137.5 133 6.8
      vertex -134.408 139.068 6.8
      vertex -135.018 138.574 6.8
    endloop
  endfacet
  facet normal 0 0 1
    outer loop
      vertex -133.051 -154.852 6.8
      vertex -137.5 -148 6.8
      vertex -133.75 -154.495 6.8
    endloop
  endfacet
  facet normal 0 0 1
    outer loop
      vertex -137.5 133 6.8
      vertex -135.018 138.574 6.8
      vertex -135.574 138.018 6.8
    endloop
  endfacet
  facet normal 0 0 1
    outer loop
      vertex -133.75 -154.495 6.8
      vertex -137.5 -148 6.8
      vertex -134.408 -154.068 6.8
    endloop
  endfacet
  facet normal 0 0 1
    outer loop
      vertex -137.5 133 6.8
      vertex -135.574 138.018 6.8
      vertex -136.068 137.408 6.8
    endloop
  endfacet
  facet normal 0 0 1
    outer loop
      vertex -134.408 -154.068 6.8
      vertex -137.5 -148 6.8
      vertex -135.018 -153.574 6.8
    endloop
  endfacet
  facet normal 0 0 1
    outer loop
      vertex -137.5 133 6.8
      vertex -136.068 137.408 6.8
      vertex -136.495 136.75 6.8
    endloop
  endfacet
  facet normal 0 0 1
    outer loop
      vertex -135.018 -153.574 6.8
      vertex -137.5 -148 6.8
      vertex -135.574 -153.018 6.8
    endloop
  endfacet
  facet normal 0 0 1
    outer loop
      vertex -137.5 133 6.8
      vertex -136.495 136.75 6.8
      vertex -136.852 136.051 6.8
    endloop
  endfacet
  facet normal 0 0 1
    outer loop
      vertex -135.574 -153.018 6.8
      vertex -137.5 -148 6.8
      vertex -136.068 -152.408 6.8
    endloop
  endfacet
  facet normal 0 0 1
    outer loop
      vertex -137.5 133 6.8
      vertex -136.852 136.051 6.8
      vertex -137.133 135.318 6.8
    endloop
  endfacet
  facet normal 0 0 1
    outer loop
      vertex -136.068 -152.408 6.8
      vertex -137.5 -148 6.8
      vertex -136.495 -151.75 6.8
    endloop
  endfacet
  facet normal 0 0 1
    outer loop
      vertex -137.5 133 6.8
      vertex -137.133 135.318 6.8
      vertex -137.336 134.559 6.8
    endloop
  endfacet
  facet normal 0 0 1
    outer loop
      vertex -136.495 -151.75 6.8
      vertex -137.5 -148 6.8
      vertex -136.852 -151.051 6.8
    endloop
  endfacet
  facet normal 0 0 1
    outer loop
      vertex -137.5 133 6.8
      vertex -137.336 134.559 6.8
      vertex -137.459 133.784 6.8
    endloop
  endfacet
  facet normal 0 0 1
    outer loop
      vertex -136.852 -151.051 6.8
      vertex -137.5 -148 6.8
      vertex -137.133 -150.318 6.8
    endloop
  endfacet
  facet normal 0 0 1
    outer loop
      vertex -137.133 -150.318 6.8
      vertex -137.5 -148 6.8
      vertex -137.336 -149.559 6.8
    endloop
  endfacet
  facet normal 0 0 1
    outer loop
      vertex -137.336 -149.559 6.8
      vertex -137.5 -148 6.8
      vertex -137.459 -148.784 6.8
    endloop
  endfacet
  facet normal 0 0 1
    outer loop
      vertex 87.6639 -149.559 6.8
      vertex 87.5 -148 6.8
      vertex 87.5411 -148.784 6.8
    endloop
  endfacet
  facet normal -1 0 0
    outer loop
      vertex 87.5 -148 5.9
      vertex 87.5 -140.5 6.35
      vertex 87.5 -140.5 5.9
    endloop
  endfacet
  facet normal -1 -0 0
    outer loop
      vertex 87.5 -140.5 6.35
      vertex 87.5 -148 5.9
      vertex 87.5 -148 6.35
    endloop
  endfacet
  facet normal 1 -0 0
    outer loop
      vertex 87.5 -148 7.35
      vertex 87.5 -140.5 6.8
      vertex 87.5 -140.5 7.35
    endloop
  endfacet
  facet normal 1 0 0
    outer loop
      vertex 87.5 -140.5 6.8
      vertex 87.5 -148 7.35
      vertex 87.5 -148 6.8
    endloop
  endfacet
  facet normal -0.357997 -0.933723 0
    outer loop
      vertex 91.9495 -154.852 5.9
      vertex 92.6824 -155.133 6.8
      vertex 91.9495 -154.852 6.8
    endloop
  endfacet
  facet normal -0.357997 -0.933723 -0
    outer loop
      vertex 92.6824 -155.133 6.8
      vertex 91.9495 -154.852 5.9
      vertex 92.6824 -155.133 5.9
    endloop
  endfacet
  facet normal 0.933739 -0.357955 0
    outer loop
      vertex 136.852 -151.051 6.8
      vertex 137.133 -150.318 5.9
      vertex 137.133 -150.318 6.8
    endloop
  endfacet
  facet normal 0.933739 -0.357955 0
    outer loop
      vertex 137.133 -150.318 5.9
      vertex 136.852 -151.051 6.8
      vertex 136.852 -151.051 5.9
    endloop
  endfacet
  facet normal 0.890572 -0.454842 0
    outer loop
      vertex 136.495 -151.75 6.8
      vertex 136.852 -151.051 5.9
      vertex 136.852 -151.051 6.8
    endloop
  endfacet
  facet normal 0.890572 -0.454842 0
    outer loop
      vertex 136.852 -151.051 5.9
      vertex 136.495 -151.75 6.8
      vertex 136.495 -151.75 5.9
    endloop
  endfacet
  facet normal 0.454842 -0.890572 0
    outer loop
      vertex 133.051 -154.852 5.9
      vertex 133.75 -154.495 6.8
      vertex 133.051 -154.852 6.8
    endloop
  endfacet
  facet normal 0.454842 -0.890572 0
    outer loop
      vertex 133.75 -154.495 6.8
      vertex 133.051 -154.852 5.9
      vertex 133.75 -154.495 5.9
    endloop
  endfacet
  facet normal 0.707107 -0.707107 0
    outer loop
      vertex 135.018 -153.574 6.8
      vertex 135.574 -153.018 5.9
      vertex 135.574 -153.018 6.8
    endloop
  endfacet
  facet normal 0.707107 -0.707107 0
    outer loop
      vertex 135.574 -153.018 5.9
      vertex 135.018 -153.574 6.8
      vertex 135.018 -153.574 5.9
    endloop
  endfacet
  facet normal 0.544361 -0.838851 0
    outer loop
      vertex 133.75 -154.495 5.9
      vertex 134.408 -154.068 6.8
      vertex 133.75 -154.495 6.8
    endloop
  endfacet
  facet normal 0.544361 -0.838851 0
    outer loop
      vertex 134.408 -154.068 6.8
      vertex 133.75 -154.495 5.9
      vertex 134.408 -154.068 5.9
    endloop
  endfacet
  facet normal -0.890882 -0.454235 0
    outer loop
      vertex 88.5048 -151.75 5.9
      vertex 88.1484 -151.051 6.8
      vertex 88.1484 -151.051 5.9
    endloop
  endfacet
  facet normal -0.890882 -0.454235 0
    outer loop
      vertex 88.1484 -151.051 6.8
      vertex 88.5048 -151.75 5.9
      vertex 88.5048 -151.75 6.8
    endloop
  endfacet
  facet normal -0.777126 -0.629345 0
    outer loop
      vertex 89.4264 -153.018 5.9
      vertex 88.9324 -152.408 6.8
      vertex 88.9324 -152.408 5.9
    endloop
  endfacet
  facet normal -0.777126 -0.629345 0
    outer loop
      vertex 88.9324 -152.408 6.8
      vertex 89.4264 -153.018 5.9
      vertex 89.4264 -153.018 6.8
    endloop
  endfacet
  facet normal 0.966045 -0.258376 0
    outer loop
      vertex 137.133 -150.318 6.8
      vertex 137.336 -149.559 5.9
      vertex 137.336 -149.559 6.8
    endloop
  endfacet
  facet normal 0.966045 -0.258376 0
    outer loop
      vertex 137.336 -149.559 5.9
      vertex 137.133 -150.318 6.8
      vertex 137.133 -150.318 5.9
    endloop
  endfacet
  facet normal 0.838851 -0.544361 0
    outer loop
      vertex 136.068 -152.408 6.8
      vertex 136.495 -151.75 5.9
      vertex 136.495 -151.75 6.8
    endloop
  endfacet
  facet normal 0.838851 -0.544361 0
    outer loop
      vertex 136.495 -151.75 5.9
      vertex 136.068 -152.408 6.8
      vertex 136.068 -152.408 5.9
    endloop
  endfacet
  facet normal 0.629345 -0.777126 0
    outer loop
      vertex 134.408 -154.068 5.9
      vertex 135.018 -153.574 6.8
      vertex 134.408 -154.068 6.8
    endloop
  endfacet
  facet normal 0.629345 -0.777126 0
    outer loop
      vertex 135.018 -153.574 6.8
      vertex 134.408 -154.068 5.9
      vertex 135.018 -153.574 5.9
    endloop
  endfacet
  facet normal 0 0 -1
    outer loop
      vertex 87.4589 -147.216 6.35
      vertex 87.5 -140.5 6.35
      vertex 87.5 -148 6.35
    endloop
  endfacet
  facet normal 0 0 -1
    outer loop
      vertex 87.3361 -146.441 6.35
      vertex 87.5 -140.5 6.35
      vertex 87.4589 -147.216 6.35
    endloop
  endfacet
  facet normal 0 0 -1
    outer loop
      vertex 87.1329 -145.682 6.35
      vertex 87.5 -140.5 6.35
      vertex 87.3361 -146.441 6.35
    endloop
  endfacet
  facet normal 0 0 -1
    outer loop
      vertex 86.8516 -144.949 6.35
      vertex 87.5 -140.5 6.35
      vertex 87.1329 -145.682 6.35
    endloop
  endfacet
  facet normal 0 0 -1
    outer loop
      vertex 86.4952 -144.25 6.35
      vertex 87.5 -140.5 6.35
      vertex 86.8516 -144.949 6.35
    endloop
  endfacet
  facet normal 0 0 -1
    outer loop
      vertex 86.0676 -143.592 6.35
      vertex 87.5 -140.5 6.35
      vertex 86.4952 -144.25 6.35
    endloop
  endfacet
  facet normal 0 0 -1
    outer loop
      vertex 85.5736 -142.982 6.35
      vertex 87.5 -140.5 6.35
      vertex 86.0676 -143.592 6.35
    endloop
  endfacet
  facet normal 0 0 -1
    outer loop
      vertex 85.0185 -142.426 6.35
      vertex 87.5 -140.5 6.35
      vertex 85.5736 -142.982 6.35
    endloop
  endfacet
  facet normal 0 0 -1
    outer loop
      vertex 84.4084 -141.932 6.35
      vertex 87.5 -140.5 6.35
      vertex 85.0185 -142.426 6.35
    endloop
  endfacet
  facet normal 0 0 -1
    outer loop
      vertex 83.75 -141.505 6.35
      vertex 87.5 -140.5 6.35
      vertex 84.4084 -141.932 6.35
    endloop
  endfacet
  facet normal 0 0 -1
    outer loop
      vertex 83.0505 -141.148 6.35
      vertex 87.5 -140.5 6.35
      vertex 83.75 -141.505 6.35
    endloop
  endfacet
  facet normal 0 0 -1
    outer loop
      vertex 82.3176 -140.867 6.35
      vertex 87.5 -140.5 6.35
      vertex 83.0505 -141.148 6.35
    endloop
  endfacet
  facet normal 0 0 -1
    outer loop
      vertex 81.5593 -140.664 6.35
      vertex 87.5 -140.5 6.35
      vertex 82.3176 -140.867 6.35
    endloop
  endfacet
  facet normal 0 0 -1
    outer loop
      vertex 80.784 -140.541 6.35
      vertex 87.5 -140.5 6.35
      vertex 81.5593 -140.664 6.35
    endloop
  endfacet
  facet normal -0 0 -1
    outer loop
      vertex 87.5 -140.5 6.35
      vertex 80.784 -140.541 6.35
      vertex 80 -140.5 6.35
    endloop
  endfacet
  facet normal 0 0 1
    outer loop
      vertex 87.5 -140.5 7.35
      vertex 87.4589 -147.216 7.35
      vertex 87.5 -148 7.35
    endloop
  endfacet
  facet normal 0 0 1
    outer loop
      vertex 87.5 -140.5 7.35
      vertex 87.3361 -146.441 7.35
      vertex 87.4589 -147.216 7.35
    endloop
  endfacet
  facet normal 0 0 1
    outer loop
      vertex 87.5 -140.5 7.35
      vertex 87.1329 -145.682 7.35
      vertex 87.3361 -146.441 7.35
    endloop
  endfacet
  facet normal 0 0 1
    outer loop
      vertex 87.5 -140.5 7.35
      vertex 86.8516 -144.949 7.35
      vertex 87.1329 -145.682 7.35
    endloop
  endfacet
  facet normal 0 0 1
    outer loop
      vertex 87.5 -140.5 7.35
      vertex 86.4952 -144.25 7.35
      vertex 86.8516 -144.949 7.35
    endloop
  endfacet
  facet normal 0 0 1
    outer loop
      vertex 87.5 -140.5 7.35
      vertex 86.0676 -143.592 7.35
      vertex 86.4952 -144.25 7.35
    endloop
  endfacet
  facet normal 0 0 1
    outer loop
      vertex 87.5 -140.5 7.35
      vertex 85.5736 -142.982 7.35
      vertex 86.0676 -143.592 7.35
    endloop
  endfacet
  facet normal 0 0 1
    outer loop
      vertex 87.5 -140.5 7.35
      vertex 85.0185 -142.426 7.35
      vertex 85.5736 -142.982 7.35
    endloop
  endfacet
  facet normal 0 0 1
    outer loop
      vertex 87.5 -140.5 7.35
      vertex 84.4084 -141.932 7.35
      vertex 85.0185 -142.426 7.35
    endloop
  endfacet
  facet normal 0 0 1
    outer loop
      vertex 87.5 -140.5 7.35
      vertex 83.75 -141.505 7.35
      vertex 84.4084 -141.932 7.35
    endloop
  endfacet
  facet normal 0 0 1
    outer loop
      vertex 87.5 -140.5 7.35
      vertex 83.0505 -141.148 7.35
      vertex 83.75 -141.505 7.35
    endloop
  endfacet
  facet normal 0 0 1
    outer loop
      vertex 87.5 -140.5 7.35
      vertex 82.3176 -140.867 7.35
      vertex 83.0505 -141.148 7.35
    endloop
  endfacet
  facet normal 0 0 1
    outer loop
      vertex 87.5 -140.5 7.35
      vertex 81.5593 -140.664 7.35
      vertex 82.3176 -140.867 7.35
    endloop
  endfacet
  facet normal 0 0 1
    outer loop
      vertex 87.5 -140.5 7.35
      vertex 80.784 -140.541 7.35
      vertex 81.5593 -140.664 7.35
    endloop
  endfacet
  facet normal 0 -0 1
    outer loop
      vertex 80.784 -140.541 7.35
      vertex 87.5 -140.5 7.35
      vertex 80 -140.5 7.35
    endloop
  endfacet
  facet normal 0 -1 0
    outer loop
      vertex -87.5 -140.5 5.9
      vertex -80 -140.5 6.35
      vertex -87.5 -140.5 6.35
    endloop
  endfacet
  facet normal 0 -1 -0
    outer loop
      vertex -80 -140.5 6.35
      vertex -87.5 -140.5 5.9
      vertex 80 -140.5 6.35
    endloop
  endfacet
  facet normal 0 -1 0
    outer loop
      vertex 87.5 -140.5 5.9
      vertex 80 -140.5 6.35
      vertex -87.5 -140.5 5.9
    endloop
  endfacet
  facet normal 0 -1 0
    outer loop
      vertex 80 -140.5 6.35
      vertex 87.5 -140.5 5.9
      vertex 87.5 -140.5 6.35
    endloop
  endfacet
  facet normal 0 -1 0
    outer loop
      vertex -80 -140.5 6.35
      vertex 80 -140.5 6.8
      vertex -80 -140.5 6.8
    endloop
  endfacet
  facet normal 0 -1 -0
    outer loop
      vertex 80 -140.5 6.8
      vertex -80 -140.5 6.35
      vertex 80 -140.5 6.35
    endloop
  endfacet
  facet normal 0 1 -0
    outer loop
      vertex -80 -140.5 6.8
      vertex -87.5 -140.5 7.35
      vertex -80 -140.5 7.35
    endloop
  endfacet
  facet normal 0 1 0
    outer loop
      vertex -87.5 -140.5 7.35
      vertex -80 -140.5 6.8
      vertex -87.5 -140.5 6.8
    endloop
  endfacet
  facet normal 0 1 -0
    outer loop
      vertex 87.5 -140.5 6.8
      vertex 80 -140.5 7.35
      vertex 87.5 -140.5 7.35
    endloop
  endfacet
  facet normal 0 1 0
    outer loop
      vertex 80 -140.5 7.35
      vertex 87.5 -140.5 6.8
      vertex 80 -140.5 6.8
    endloop
  endfacet
  facet normal -0.0522246 -0.998635 0
    outer loop
      vertex 80 -140.5 6.8
      vertex 80.784 -140.541 7.35
      vertex 80 -140.5 7.35
    endloop
  endfacet
  facet normal -0.0522246 -0.998635 0
    outer loop
      vertex 80.784 -140.541 6.35
      vertex 80 -140.5 6.8
      vertex 80 -140.5 6.35
    endloop
  endfacet
  facet normal -0.0522246 -0.998635 0
    outer loop
      vertex 80 -140.5 6.8
      vertex 80.784 -140.541 6.35
      vertex 80.784 -140.541 7.35
    endloop
  endfacet
  facet normal -0.156689 -0.987648 0
    outer loop
      vertex 80.784 -140.541 6.35
      vertex 81.5593 -140.664 7.35
      vertex 80.784 -140.541 7.35
    endloop
  endfacet
  facet normal -0.156689 -0.987648 -0
    outer loop
      vertex 81.5593 -140.664 7.35
      vertex 80.784 -140.541 6.35
      vertex 81.5593 -140.664 6.35
    endloop
  endfacet
  facet normal -0.258598 -0.965985 0
    outer loop
      vertex 81.5593 -140.664 6.35
      vertex 82.3176 -140.867 7.35
      vertex 81.5593 -140.664 7.35
    endloop
  endfacet
  facet normal -0.258598 -0.965985 -0
    outer loop
      vertex 82.3176 -140.867 7.35
      vertex 81.5593 -140.664 6.35
      vertex 82.3176 -140.867 6.35
    endloop
  endfacet
  facet normal -0.357997 -0.933723 0
    outer loop
      vertex 82.3176 -140.867 6.35
      vertex 83.0505 -141.148 7.35
      vertex 82.3176 -140.867 7.35
    endloop
  endfacet
  facet normal -0.357997 -0.933723 -0
    outer loop
      vertex 83.0505 -141.148 7.35
      vertex 82.3176 -140.867 6.35
      vertex 83.0505 -141.148 6.35
    endloop
  endfacet
  facet normal -0.454584 -0.890704 0
    outer loop
      vertex 83.0505 -141.148 6.35
      vertex 83.75 -141.505 7.35
      vertex 83.0505 -141.148 7.35
    endloop
  endfacet
  facet normal -0.454584 -0.890704 -0
    outer loop
      vertex 83.75 -141.505 7.35
      vertex 83.0505 -141.148 6.35
      vertex 83.75 -141.505 6.35
    endloop
  endfacet
  facet normal -0.544128 -0.839002 0
    outer loop
      vertex 83.75 -141.505 6.35
      vertex 84.4084 -141.932 7.35
      vertex 83.75 -141.505 7.35
    endloop
  endfacet
  facet normal -0.544128 -0.839002 -0
    outer loop
      vertex 84.4084 -141.932 7.35
      vertex 83.75 -141.505 6.35
      vertex 84.4084 -141.932 6.35
    endloop
  endfacet
  facet normal -0.629283 -0.777177 0
    outer loop
      vertex 84.4084 -141.932 6.35
      vertex 85.0185 -142.426 7.35
      vertex 84.4084 -141.932 7.35
    endloop
  endfacet
  facet normal -0.629283 -0.777177 -0
    outer loop
      vertex 85.0185 -142.426 7.35
      vertex 84.4084 -141.932 6.35
      vertex 85.0185 -142.426 6.35
    endloop
  endfacet
  facet normal -0.707679 -0.706534 0
    outer loop
      vertex 85.5736 -142.982 6.35
      vertex 85.0185 -142.426 7.35
      vertex 85.0185 -142.426 6.35
    endloop
  endfacet
  facet normal -0.707679 -0.706534 0
    outer loop
      vertex 85.0185 -142.426 7.35
      vertex 85.5736 -142.982 6.35
      vertex 85.5736 -142.982 7.35
    endloop
  endfacet
  facet normal -0.777126 -0.629345 0
    outer loop
      vertex 86.0676 -143.592 6.35
      vertex 85.5736 -142.982 7.35
      vertex 85.5736 -142.982 6.35
    endloop
  endfacet
  facet normal -0.777126 -0.629345 0
    outer loop
      vertex 85.5736 -142.982 7.35
      vertex 86.0676 -143.592 6.35
      vertex 86.0676 -143.592 7.35
    endloop
  endfacet
  facet normal -0.838502 -0.544899 0
    outer loop
      vertex 86.4952 -144.25 6.35
      vertex 86.0676 -143.592 7.35
      vertex 86.0676 -143.592 6.35
    endloop
  endfacet
  facet normal -0.838502 -0.544899 0
    outer loop
      vertex 86.0676 -143.592 7.35
      vertex 86.4952 -144.25 6.35
      vertex 86.4952 -144.25 7.35
    endloop
  endfacet
  facet normal -0.890882 -0.454235 0
    outer loop
      vertex 86.8516 -144.949 6.35
      vertex 86.4952 -144.25 7.35
      vertex 86.4952 -144.25 6.35
    endloop
  endfacet
  facet normal -0.890882 -0.454235 0
    outer loop
      vertex 86.4952 -144.25 7.35
      vertex 86.8516 -144.949 6.35
      vertex 86.8516 -144.949 7.35
    endloop
  endfacet
  facet normal -0.933611 -0.358288 0
    outer loop
      vertex 87.1329 -145.682 6.35
      vertex 86.8516 -144.949 7.35
      vertex 86.8516 -144.949 6.35
    endloop
  endfacet
  facet normal -0.933611 -0.358288 0
    outer loop
      vertex 86.8516 -144.949 7.35
      vertex 87.1329 -145.682 6.35
      vertex 87.1329 -145.682 7.35
    endloop
  endfacet
  facet normal -0.965981 -0.258613 0
    outer loop
      vertex 87.3361 -146.441 6.35
      vertex 87.1329 -145.682 7.35
      vertex 87.1329 -145.682 6.35
    endloop
  endfacet
  facet normal -0.965981 -0.258613 0
    outer loop
      vertex 87.1329 -145.682 7.35
      vertex 87.3361 -146.441 6.35
      vertex 87.3361 -146.441 7.35
    endloop
  endfacet
  facet normal -0.987678 -0.156499 0
    outer loop
      vertex 87.4589 -147.216 6.35
      vertex 87.3361 -146.441 7.35
      vertex 87.3361 -146.441 6.35
    endloop
  endfacet
  facet normal -0.987678 -0.156499 0
    outer loop
      vertex 87.3361 -146.441 7.35
      vertex 87.4589 -147.216 6.35
      vertex 87.4589 -147.216 7.35
    endloop
  endfacet
  facet normal -0.998629 -0.0523516 -0
    outer loop
      vertex 87.5 -148 6.8
      vertex 87.4589 -147.216 6.35
      vertex 87.5 -148 6.35
    endloop
  endfacet
  facet normal -0.998629 -0.0523516 0
    outer loop
      vertex 87.4589 -147.216 6.35
      vertex 87.5 -148 6.8
      vertex 87.4589 -147.216 7.35
    endloop
  endfacet
  facet normal -0.998629 -0.0523516 0
    outer loop
      vertex 87.4589 -147.216 7.35
      vertex 87.5 -148 6.8
      vertex 87.5 -148 7.35
    endloop
  endfacet
  facet normal -0.258376 -0.966045 0
    outer loop
      vertex -132.318 -155.133 5.9
      vertex -131.559 -155.336 6.8
      vertex -132.318 -155.133 6.8
    endloop
  endfacet
  facet normal -0.258376 -0.966045 -0
    outer loop
      vertex -131.559 -155.336 6.8
      vertex -132.318 -155.133 5.9
      vertex -131.559 -155.336 5.9
    endloop
  endfacet
  facet normal -0.156748 -0.987639 0
    outer loop
      vertex -131.559 -155.336 5.9
      vertex -130.784 -155.459 6.8
      vertex -131.559 -155.336 6.8
    endloop
  endfacet
  facet normal -0.156748 -0.987639 -0
    outer loop
      vertex -130.784 -155.459 6.8
      vertex -131.559 -155.336 5.9
      vertex -130.784 -155.459 5.9
    endloop
  endfacet
  facet normal 0 -1 0
    outer loop
      vertex -130 -155.5 5.9
      vertex -95 -155.5 6.8
      vertex -130 -155.5 6.8
    endloop
  endfacet
  facet normal 0 -1 -0
    outer loop
      vertex -95 -155.5 6.8
      vertex -130 -155.5 5.9
      vertex -95 -155.5 5.9
    endloop
  endfacet
  facet normal 0.707679 -0.706534 0
    outer loop
      vertex -89.9815 -153.574 6.8
      vertex -89.4264 -153.018 5.9
      vertex -89.4264 -153.018 6.8
    endloop
  endfacet
  facet normal 0.707679 -0.706534 0
    outer loop
      vertex -89.4264 -153.018 5.9
      vertex -89.9815 -153.574 6.8
      vertex -89.9815 -153.574 5.9
    endloop
  endfacet
  facet normal 0.998629 -0.0523516 0
    outer loop
      vertex -87.5411 -148.784 6.8
      vertex -87.5 -148 6.35
      vertex -87.5 -148 6.8
    endloop
  endfacet
  facet normal 0.998629 -0.0523516 0
    outer loop
      vertex -87.5411 -148.784 5.9
      vertex -87.5 -148 6.35
      vertex -87.5411 -148.784 6.8
    endloop
  endfacet
  facet normal 0.998629 -0.0523516 0
    outer loop
      vertex -87.5 -148 6.35
      vertex -87.5411 -148.784 5.9
      vertex -87.5 -148 5.9
    endloop
  endfacet
  facet normal 0.454584 -0.890704 0
    outer loop
      vertex -91.9495 -154.852 5.9
      vertex -91.25 -154.495 6.8
      vertex -91.9495 -154.852 6.8
    endloop
  endfacet
  facet normal 0.454584 -0.890704 0
    outer loop
      vertex -91.25 -154.495 6.8
      vertex -91.9495 -154.852 5.9
      vertex -91.25 -154.495 5.9
    endloop
  endfacet
  facet normal 0.544128 -0.839002 0
    outer loop
      vertex -91.25 -154.495 5.9
      vertex -90.5916 -154.068 6.8
      vertex -91.25 -154.495 6.8
    endloop
  endfacet
  facet normal 0.544128 -0.839002 0
    outer loop
      vertex -90.5916 -154.068 6.8
      vertex -91.25 -154.495 5.9
      vertex -90.5916 -154.068 5.9
    endloop
  endfacet
  facet normal 0.0522246 -0.998635 0
    outer loop
      vertex -95 -155.5 5.9
      vertex -94.216 -155.459 6.8
      vertex -95 -155.5 6.8
    endloop
  endfacet
  facet normal 0.0522246 -0.998635 0
    outer loop
      vertex -94.216 -155.459 6.8
      vertex -95 -155.5 5.9
      vertex -94.216 -155.459 5.9
    endloop
  endfacet
  facet normal 0.258598 -0.965985 0
    outer loop
      vertex -93.4407 -155.336 5.9
      vertex -92.6824 -155.133 6.8
      vertex -93.4407 -155.336 6.8
    endloop
  endfacet
  facet normal 0.258598 -0.965985 0
    outer loop
      vertex -92.6824 -155.133 6.8
      vertex -93.4407 -155.336 5.9
      vertex -92.6824 -155.133 5.9
    endloop
  endfacet
  facet normal -0.0522246 -0.998635 0
    outer loop
      vertex -130.784 -155.459 5.9
      vertex -130 -155.5 6.8
      vertex -130.784 -155.459 6.8
    endloop
  endfacet
  facet normal -0.0522246 -0.998635 -0
    outer loop
      vertex -130 -155.5 6.8
      vertex -130.784 -155.459 5.9
      vertex -130 -155.5 5.9
    endloop
  endfacet
  facet normal -0.998635 -0.0522246 0
    outer loop
      vertex -137.459 -148.784 5.9
      vertex -137.5 -148 6.8
      vertex -137.5 -148 5.9
    endloop
  endfacet
  facet normal -0.998635 -0.0522246 0
    outer loop
      vertex -137.5 -148 6.8
      vertex -137.459 -148.784 5.9
      vertex -137.459 -148.784 6.8
    endloop
  endfacet
  facet normal -1 0 0
    outer loop
      vertex -137.5 -148 5.9
      vertex -137.5 133 6.8
      vertex -137.5 133 5.9
    endloop
  endfacet
  facet normal -1 -0 0
    outer loop
      vertex -137.5 133 6.8
      vertex -137.5 -148 5.9
      vertex -137.5 -148 6.8
    endloop
  endfacet
  facet normal 0.156689 -0.987648 0
    outer loop
      vertex -94.216 -155.459 5.9
      vertex -93.4407 -155.336 6.8
      vertex -94.216 -155.459 6.8
    endloop
  endfacet
  facet normal 0.156689 -0.987648 0
    outer loop
      vertex -93.4407 -155.336 6.8
      vertex -94.216 -155.459 5.9
      vertex -93.4407 -155.336 5.9
    endloop
  endfacet
  facet normal -0.987639 -0.156748 0
    outer loop
      vertex -137.336 -149.559 5.9
      vertex -137.459 -148.784 6.8
      vertex -137.459 -148.784 5.9
    endloop
  endfacet
  facet normal -0.987639 -0.156748 0
    outer loop
      vertex -137.459 -148.784 6.8
      vertex -137.336 -149.559 5.9
      vertex -137.336 -149.559 6.8
    endloop
  endfacet
  facet normal -0.777126 -0.629345 0
    outer loop
      vertex -135.574 -153.018 5.9
      vertex -136.068 -152.408 6.8
      vertex -136.068 -152.408 5.9
    endloop
  endfacet
  facet normal -0.777126 -0.629345 0
    outer loop
      vertex -136.068 -152.408 6.8
      vertex -135.574 -153.018 5.9
      vertex -135.574 -153.018 6.8
    endloop
  endfacet
  facet normal -0.357955 -0.933739 0
    outer loop
      vertex -133.051 -154.852 5.9
      vertex -132.318 -155.133 6.8
      vertex -133.051 -154.852 6.8
    endloop
  endfacet
  facet normal -0.357955 -0.933739 -0
    outer loop
      vertex -132.318 -155.133 6.8
      vertex -133.051 -154.852 5.9
      vertex -132.318 -155.133 5.9
    endloop
  endfacet
  facet normal 0.629283 -0.777177 0
    outer loop
      vertex -90.5916 -154.068 5.9
      vertex -89.9815 -153.574 6.8
      vertex -90.5916 -154.068 6.8
    endloop
  endfacet
  facet normal 0.629283 -0.777177 0
    outer loop
      vertex -89.9815 -153.574 6.8
      vertex -90.5916 -154.068 5.9
      vertex -89.9815 -153.574 5.9
    endloop
  endfacet
  facet normal 0.987678 -0.156499 0
    outer loop
      vertex -87.6639 -149.559 6.8
      vertex -87.5411 -148.784 5.9
      vertex -87.5411 -148.784 6.8
    endloop
  endfacet
  facet normal 0.987678 -0.156499 0
    outer loop
      vertex -87.5411 -148.784 5.9
      vertex -87.6639 -149.559 6.8
      vertex -87.6639 -149.559 5.9
    endloop
  endfacet
  facet normal 0.965981 -0.258613 0
    outer loop
      vertex -87.8671 -150.318 6.8
      vertex -87.6639 -149.559 5.9
      vertex -87.6639 -149.559 6.8
    endloop
  endfacet
  facet normal 0.965981 -0.258613 0
    outer loop
      vertex -87.6639 -149.559 5.9
      vertex -87.8671 -150.318 6.8
      vertex -87.8671 -150.318 5.9
    endloop
  endfacet
  facet normal 0.933611 -0.358288 0
    outer loop
      vertex -88.1484 -151.051 6.8
      vertex -87.8671 -150.318 5.9
      vertex -87.8671 -150.318 6.8
    endloop
  endfacet
  facet normal 0.933611 -0.358288 0
    outer loop
      vertex -87.8671 -150.318 5.9
      vertex -88.1484 -151.051 6.8
      vertex -88.1484 -151.051 5.9
    endloop
  endfacet
  facet normal 0.838502 -0.544899 0
    outer loop
      vertex -88.9324 -152.408 6.8
      vertex -88.5048 -151.75 5.9
      vertex -88.5048 -151.75 6.8
    endloop
  endfacet
  facet normal 0.838502 -0.544899 0
    outer loop
      vertex -88.5048 -151.75 5.9
      vertex -88.9324 -152.408 6.8
      vertex -88.9324 -152.408 5.9
    endloop
  endfacet
  facet normal 1 -0 0
    outer loop
      vertex -87.5 -148 6.35
      vertex -87.5 -140.5 5.9
      vertex -87.5 -140.5 6.35
    endloop
  endfacet
  facet normal 1 0 0
    outer loop
      vertex -87.5 -140.5 5.9
      vertex -87.5 -148 6.35
      vertex -87.5 -148 5.9
    endloop
  endfacet
  facet normal -1 0 0
    outer loop
      vertex -87.5 -148 6.8
      vertex -87.5 -140.5 7.35
      vertex -87.5 -140.5 6.8
    endloop
  endfacet
  facet normal -1 -0 0
    outer loop
      vertex -87.5 -140.5 7.35
      vertex -87.5 -148 6.8
      vertex -87.5 -148 7.35
    endloop
  endfacet
  facet normal 0.357997 -0.933723 0
    outer loop
      vertex -92.6824 -155.133 5.9
      vertex -91.9495 -154.852 6.8
      vertex -92.6824 -155.133 6.8
    endloop
  endfacet
  facet normal 0.357997 -0.933723 0
    outer loop
      vertex -91.9495 -154.852 6.8
      vertex -92.6824 -155.133 5.9
      vertex -91.9495 -154.852 5.9
    endloop
  endfacet
  facet normal -0.933739 -0.357955 0
    outer loop
      vertex -136.852 -151.051 5.9
      vertex -137.133 -150.318 6.8
      vertex -137.133 -150.318 5.9
    endloop
  endfacet
  facet normal -0.933739 -0.357955 0
    outer loop
      vertex -137.133 -150.318 6.8
      vertex -136.852 -151.051 5.9
      vertex -136.852 -151.051 6.8
    endloop
  endfacet
  facet normal -0.890572 -0.454842 0
    outer loop
      vertex -136.495 -151.75 5.9
      vertex -136.852 -151.051 6.8
      vertex -136.852 -151.051 5.9
    endloop
  endfacet
  facet normal -0.890572 -0.454842 0
    outer loop
      vertex -136.852 -151.051 6.8
      vertex -136.495 -151.75 5.9
      vertex -136.495 -151.75 6.8
    endloop
  endfacet
  facet normal -0.454842 -0.890572 0
    outer loop
      vertex -133.75 -154.495 5.9
      vertex -133.051 -154.852 6.8
      vertex -133.75 -154.495 6.8
    endloop
  endfacet
  facet normal -0.454842 -0.890572 -0
    outer loop
      vertex -133.051 -154.852 6.8
      vertex -133.75 -154.495 5.9
      vertex -133.051 -154.852 5.9
    endloop
  endfacet
  facet normal -0.707107 -0.707107 0
    outer loop
      vertex -135.018 -153.574 5.9
      vertex -135.574 -153.018 6.8
      vertex -135.574 -153.018 5.9
    endloop
  endfacet
  facet normal -0.707107 -0.707107 0
    outer loop
      vertex -135.574 -153.018 6.8
      vertex -135.018 -153.574 5.9
      vertex -135.018 -153.574 6.8
    endloop
  endfacet
  facet normal -0.544361 -0.838851 0
    outer loop
      vertex -134.408 -154.068 5.9
      vertex -133.75 -154.495 6.8
      vertex -134.408 -154.068 6.8
    endloop
  endfacet
  facet normal -0.544361 -0.838851 -0
    outer loop
      vertex -133.75 -154.495 6.8
      vertex -134.408 -154.068 5.9
      vertex -133.75 -154.495 5.9
    endloop
  endfacet
  facet normal 0.890882 -0.454235 0
    outer loop
      vertex -88.5048 -151.75 6.8
      vertex -88.1484 -151.051 5.9
      vertex -88.1484 -151.051 6.8
    endloop
  endfacet
  facet normal 0.890882 -0.454235 0
    outer loop
      vertex -88.1484 -151.051 5.9
      vertex -88.5048 -151.75 6.8
      vertex -88.5048 -151.75 5.9
    endloop
  endfacet
  facet normal 0.777126 -0.629345 0
    outer loop
      vertex -89.4264 -153.018 6.8
      vertex -88.9324 -152.408 5.9
      vertex -88.9324 -152.408 6.8
    endloop
  endfacet
  facet normal 0.777126 -0.629345 0
    outer loop
      vertex -88.9324 -152.408 5.9
      vertex -89.4264 -153.018 6.8
      vertex -89.4264 -153.018 5.9
    endloop
  endfacet
  facet normal -0.966045 -0.258376 0
    outer loop
      vertex -137.133 -150.318 5.9
      vertex -137.336 -149.559 6.8
      vertex -137.336 -149.559 5.9
    endloop
  endfacet
  facet normal -0.966045 -0.258376 0
    outer loop
      vertex -137.336 -149.559 6.8
      vertex -137.133 -150.318 5.9
      vertex -137.133 -150.318 6.8
    endloop
  endfacet
  facet normal -0.838851 -0.544361 0
    outer loop
      vertex -136.068 -152.408 5.9
      vertex -136.495 -151.75 6.8
      vertex -136.495 -151.75 5.9
    endloop
  endfacet
  facet normal -0.838851 -0.544361 0
    outer loop
      vertex -136.495 -151.75 6.8
      vertex -136.068 -152.408 5.9
      vertex -136.068 -152.408 6.8
    endloop
  endfacet
  facet normal -0.629345 -0.777126 0
    outer loop
      vertex -135.018 -153.574 5.9
      vertex -134.408 -154.068 6.8
      vertex -135.018 -153.574 6.8
    endloop
  endfacet
  facet normal -0.629345 -0.777126 -0
    outer loop
      vertex -134.408 -154.068 6.8
      vertex -135.018 -153.574 5.9
      vertex -134.408 -154.068 5.9
    endloop
  endfacet
  facet normal 0 0 -1
    outer loop
      vertex -80.784 -140.541 6.35
      vertex -87.5 -140.5 6.35
      vertex -80 -140.5 6.35
    endloop
  endfacet
  facet normal 0 0 -1
    outer loop
      vertex -81.5593 -140.664 6.35
      vertex -87.5 -140.5 6.35
      vertex -80.784 -140.541 6.35
    endloop
  endfacet
  facet normal 0 0 -1
    outer loop
      vertex -82.3176 -140.867 6.35
      vertex -87.5 -140.5 6.35
      vertex -81.5593 -140.664 6.35
    endloop
  endfacet
  facet normal 0 0 -1
    outer loop
      vertex -83.0505 -141.148 6.35
      vertex -87.5 -140.5 6.35
      vertex -82.3176 -140.867 6.35
    endloop
  endfacet
  facet normal 0 0 -1
    outer loop
      vertex -83.75 -141.505 6.35
      vertex -87.5 -140.5 6.35
      vertex -83.0505 -141.148 6.35
    endloop
  endfacet
  facet normal 0 0 -1
    outer loop
      vertex -84.4084 -141.932 6.35
      vertex -87.5 -140.5 6.35
      vertex -83.75 -141.505 6.35
    endloop
  endfacet
  facet normal 0 0 -1
    outer loop
      vertex -85.0185 -142.426 6.35
      vertex -87.5 -140.5 6.35
      vertex -84.4084 -141.932 6.35
    endloop
  endfacet
  facet normal 0 0 -1
    outer loop
      vertex -85.5736 -142.982 6.35
      vertex -87.5 -140.5 6.35
      vertex -85.0185 -142.426 6.35
    endloop
  endfacet
  facet normal 0 0 -1
    outer loop
      vertex -86.0676 -143.592 6.35
      vertex -87.5 -140.5 6.35
      vertex -85.5736 -142.982 6.35
    endloop
  endfacet
  facet normal 0 0 -1
    outer loop
      vertex -86.4952 -144.25 6.35
      vertex -87.5 -140.5 6.35
      vertex -86.0676 -143.592 6.35
    endloop
  endfacet
  facet normal 0 0 -1
    outer loop
      vertex -86.8516 -144.949 6.35
      vertex -87.5 -140.5 6.35
      vertex -86.4952 -144.25 6.35
    endloop
  endfacet
  facet normal 0 0 -1
    outer loop
      vertex -87.1329 -145.682 6.35
      vertex -87.5 -140.5 6.35
      vertex -86.8516 -144.949 6.35
    endloop
  endfacet
  facet normal 0 0 -1
    outer loop
      vertex -87.3361 -146.441 6.35
      vertex -87.5 -140.5 6.35
      vertex -87.1329 -145.682 6.35
    endloop
  endfacet
  facet normal 0 0 -1
    outer loop
      vertex -87.4589 -147.216 6.35
      vertex -87.5 -140.5 6.35
      vertex -87.3361 -146.441 6.35
    endloop
  endfacet
  facet normal 0 0 -1
    outer loop
      vertex -87.5 -140.5 6.35
      vertex -87.4589 -147.216 6.35
      vertex -87.5 -148 6.35
    endloop
  endfacet
  facet normal -0 0 1
    outer loop
      vertex -87.5 -140.5 7.35
      vertex -80.784 -140.541 7.35
      vertex -80 -140.5 7.35
    endloop
  endfacet
  facet normal 0 0 1
    outer loop
      vertex -87.5 -140.5 7.35
      vertex -81.5593 -140.664 7.35
      vertex -80.784 -140.541 7.35
    endloop
  endfacet
  facet normal 0 0 1
    outer loop
      vertex -87.5 -140.5 7.35
      vertex -82.3176 -140.867 7.35
      vertex -81.5593 -140.664 7.35
    endloop
  endfacet
  facet normal 0 0 1
    outer loop
      vertex -87.5 -140.5 7.35
      vertex -83.0505 -141.148 7.35
      vertex -82.3176 -140.867 7.35
    endloop
  endfacet
  facet normal 0 0 1
    outer loop
      vertex -87.5 -140.5 7.35
      vertex -83.75 -141.505 7.35
      vertex -83.0505 -141.148 7.35
    endloop
  endfacet
  facet normal 0 0 1
    outer loop
      vertex -87.5 -140.5 7.35
      vertex -84.4084 -141.932 7.35
      vertex -83.75 -141.505 7.35
    endloop
  endfacet
  facet normal 0 0 1
    outer loop
      vertex -87.5 -140.5 7.35
      vertex -85.0185 -142.426 7.35
      vertex -84.4084 -141.932 7.35
    endloop
  endfacet
  facet normal 0 0 1
    outer loop
      vertex -87.5 -140.5 7.35
      vertex -85.5736 -142.982 7.35
      vertex -85.0185 -142.426 7.35
    endloop
  endfacet
  facet normal 0 0 1
    outer loop
      vertex -87.5 -140.5 7.35
      vertex -86.0676 -143.592 7.35
      vertex -85.5736 -142.982 7.35
    endloop
  endfacet
  facet normal 0 0 1
    outer loop
      vertex -87.5 -140.5 7.35
      vertex -86.4952 -144.25 7.35
      vertex -86.0676 -143.592 7.35
    endloop
  endfacet
  facet normal 0 0 1
    outer loop
      vertex -87.5 -140.5 7.35
      vertex -86.8516 -144.949 7.35
      vertex -86.4952 -144.25 7.35
    endloop
  endfacet
  facet normal 0 0 1
    outer loop
      vertex -87.5 -140.5 7.35
      vertex -87.1329 -145.682 7.35
      vertex -86.8516 -144.949 7.35
    endloop
  endfacet
  facet normal 0 0 1
    outer loop
      vertex -87.5 -140.5 7.35
      vertex -87.3361 -146.441 7.35
      vertex -87.1329 -145.682 7.35
    endloop
  endfacet
  facet normal 0 0 1
    outer loop
      vertex -87.5 -140.5 7.35
      vertex -87.4589 -147.216 7.35
      vertex -87.3361 -146.441 7.35
    endloop
  endfacet
  facet normal 0 0 1
    outer loop
      vertex -87.4589 -147.216 7.35
      vertex -87.5 -140.5 7.35
      vertex -87.5 -148 7.35
    endloop
  endfacet
  facet normal 0.0522246 -0.998635 0
    outer loop
      vertex -80.784 -140.541 7.35
      vertex -80 -140.5 6.8
      vertex -80 -140.5 7.35
    endloop
  endfacet
  facet normal 0.0522246 -0.998635 0
    outer loop
      vertex -80.784 -140.541 6.35
      vertex -80 -140.5 6.8
      vertex -80.784 -140.541 7.35
    endloop
  endfacet
  facet normal 0.0522246 -0.998635 0
    outer loop
      vertex -80 -140.5 6.8
      vertex -80.784 -140.541 6.35
      vertex -80 -140.5 6.35
    endloop
  endfacet
  facet normal 0.156689 -0.987648 0
    outer loop
      vertex -81.5593 -140.664 6.35
      vertex -80.784 -140.541 7.35
      vertex -81.5593 -140.664 7.35
    endloop
  endfacet
  facet normal 0.156689 -0.987648 0
    outer loop
      vertex -80.784 -140.541 7.35
      vertex -81.5593 -140.664 6.35
      vertex -80.784 -140.541 6.35
    endloop
  endfacet
  facet normal 0.258598 -0.965985 0
    outer loop
      vertex -82.3176 -140.867 6.35
      vertex -81.5593 -140.664 7.35
      vertex -82.3176 -140.867 7.35
    endloop
  endfacet
  facet normal 0.258598 -0.965985 0
    outer loop
      vertex -81.5593 -140.664 7.35
      vertex -82.3176 -140.867 6.35
      vertex -81.5593 -140.664 6.35
    endloop
  endfacet
  facet normal 0.357997 -0.933723 0
    outer loop
      vertex -83.0505 -141.148 6.35
      vertex -82.3176 -140.867 7.35
      vertex -83.0505 -141.148 7.35
    endloop
  endfacet
  facet normal 0.357997 -0.933723 0
    outer loop
      vertex -82.3176 -140.867 7.35
      vertex -83.0505 -141.148 6.35
      vertex -82.3176 -140.867 6.35
    endloop
  endfacet
  facet normal 0.454584 -0.890704 0
    outer loop
      vertex -83.75 -141.505 6.35
      vertex -83.0505 -141.148 7.35
      vertex -83.75 -141.505 7.35
    endloop
  endfacet
  facet normal 0.454584 -0.890704 0
    outer loop
      vertex -83.0505 -141.148 7.35
      vertex -83.75 -141.505 6.35
      vertex -83.0505 -141.148 6.35
    endloop
  endfacet
  facet normal 0.544128 -0.839002 0
    outer loop
      vertex -84.4084 -141.932 6.35
      vertex -83.75 -141.505 7.35
      vertex -84.4084 -141.932 7.35
    endloop
  endfacet
  facet normal 0.544128 -0.839002 0
    outer loop
      vertex -83.75 -141.505 7.35
      vertex -84.4084 -141.932 6.35
      vertex -83.75 -141.505 6.35
    endloop
  endfacet
  facet normal 0.629283 -0.777177 0
    outer loop
      vertex -85.0185 -142.426 6.35
      vertex -84.4084 -141.932 7.35
      vertex -85.0185 -142.426 7.35
    endloop
  endfacet
  facet normal 0.629283 -0.777177 0
    outer loop
      vertex -84.4084 -141.932 7.35
      vertex -85.0185 -142.426 6.35
      vertex -84.4084 -141.932 6.35
    endloop
  endfacet
  facet normal 0.707679 -0.706534 0
    outer loop
      vertex -85.5736 -142.982 7.35
      vertex -85.0185 -142.426 6.35
      vertex -85.0185 -142.426 7.35
    endloop
  endfacet
  facet normal 0.707679 -0.706534 0
    outer loop
      vertex -85.0185 -142.426 6.35
      vertex -85.5736 -142.982 7.35
      vertex -85.5736 -142.982 6.35
    endloop
  endfacet
  facet normal 0.777126 -0.629345 0
    outer loop
      vertex -86.0676 -143.592 7.35
      vertex -85.5736 -142.982 6.35
      vertex -85.5736 -142.982 7.35
    endloop
  endfacet
  facet normal 0.777126 -0.629345 0
    outer loop
      vertex -85.5736 -142.982 6.35
      vertex -86.0676 -143.592 7.35
      vertex -86.0676 -143.592 6.35
    endloop
  endfacet
  facet normal 0.838502 -0.544899 0
    outer loop
      vertex -86.4952 -144.25 7.35
      vertex -86.0676 -143.592 6.35
      vertex -86.0676 -143.592 7.35
    endloop
  endfacet
  facet normal 0.838502 -0.544899 0
    outer loop
      vertex -86.0676 -143.592 6.35
      vertex -86.4952 -144.25 7.35
      vertex -86.4952 -144.25 6.35
    endloop
  endfacet
  facet normal 0.890882 -0.454235 0
    outer loop
      vertex -86.8516 -144.949 7.35
      vertex -86.4952 -144.25 6.35
      vertex -86.4952 -144.25 7.35
    endloop
  endfacet
  facet normal 0.890882 -0.454235 0
    outer loop
      vertex -86.4952 -144.25 6.35
      vertex -86.8516 -144.949 7.35
      vertex -86.8516 -144.949 6.35
    endloop
  endfacet
  facet normal 0.933611 -0.358288 0
    outer loop
      vertex -87.1329 -145.682 7.35
      vertex -86.8516 -144.949 6.35
      vertex -86.8516 -144.949 7.35
    endloop
  endfacet
  facet normal 0.933611 -0.358288 0
    outer loop
      vertex -86.8516 -144.949 6.35
      vertex -87.1329 -145.682 7.35
      vertex -87.1329 -145.682 6.35
    endloop
  endfacet
  facet normal 0.965981 -0.258613 0
    outer loop
      vertex -87.3361 -146.441 7.35
      vertex -87.1329 -145.682 6.35
      vertex -87.1329 -145.682 7.35
    endloop
  endfacet
  facet normal 0.965981 -0.258613 0
    outer loop
      vertex -87.1329 -145.682 6.35
      vertex -87.3361 -146.441 7.35
      vertex -87.3361 -146.441 6.35
    endloop
  endfacet
  facet normal 0.987678 -0.156499 0
    outer loop
      vertex -87.4589 -147.216 7.35
      vertex -87.3361 -146.441 6.35
      vertex -87.3361 -146.441 7.35
    endloop
  endfacet
  facet normal 0.987678 -0.156499 0
    outer loop
      vertex -87.3361 -146.441 6.35
      vertex -87.4589 -147.216 7.35
      vertex -87.4589 -147.216 6.35
    endloop
  endfacet
  facet normal 0.998629 -0.0523516 0
    outer loop
      vertex -87.5 -148 6.8
      vertex -87.4589 -147.216 7.35
      vertex -87.5 -148 7.35
    endloop
  endfacet
  facet normal 0.998629 -0.0523516 0
    outer loop
      vertex -87.4589 -147.216 7.35
      vertex -87.5 -148 6.8
      vertex -87.4589 -147.216 6.35
    endloop
  endfacet
  facet normal 0.998629 -0.0523516 0
    outer loop
      vertex -87.4589 -147.216 6.35
      vertex -87.5 -148 6.8
      vertex -87.5 -148 6.35
    endloop
  endfacet
  facet normal -0.156748 0.987639 0
    outer loop
      vertex -130.784 140.459 5.9
      vertex -131.559 140.336 6.8
      vertex -130.784 140.459 6.8
    endloop
  endfacet
  facet normal -0.156748 0.987639 0
    outer loop
      vertex -131.559 140.336 6.8
      vertex -130.784 140.459 5.9
      vertex -131.559 140.336 5.9
    endloop
  endfacet
  facet normal 0.777126 0.629345 0
    outer loop
      vertex 136.068 137.408 6.8
      vertex 135.574 138.018 5.9
      vertex 135.574 138.018 6.8
    endloop
  endfacet
  facet normal 0.777126 0.629345 0
    outer loop
      vertex 135.574 138.018 5.9
      vertex 136.068 137.408 6.8
      vertex 136.068 137.408 5.9
    endloop
  endfacet
  facet normal -0.998635 0.0522246 0
    outer loop
      vertex -137.5 133 5.9
      vertex -137.459 133.784 6.8
      vertex -137.459 133.784 5.9
    endloop
  endfacet
  facet normal -0.998635 0.0522246 0
    outer loop
      vertex -137.459 133.784 6.8
      vertex -137.5 133 5.9
      vertex -137.5 133 6.8
    endloop
  endfacet
  facet normal 0.0522246 0.998635 -0
    outer loop
      vertex 130.784 140.459 5.9
      vertex 130 140.5 6.8
      vertex 130.784 140.459 6.8
    endloop
  endfacet
  facet normal 0.0522246 0.998635 0
    outer loop
      vertex 130 140.5 6.8
      vertex 130.784 140.459 5.9
      vertex 130 140.5 5.9
    endloop
  endfacet
  facet normal 0 1 -0
    outer loop
      vertex 130 140.5 5.9
      vertex -130 140.5 6.8
      vertex 130 140.5 6.8
    endloop
  endfacet
  facet normal 0 1 0
    outer loop
      vertex -130 140.5 6.8
      vertex 130 140.5 5.9
      vertex -130 140.5 5.9
    endloop
  endfacet
  facet normal -0.707107 0.707107 0
    outer loop
      vertex -135.574 138.018 5.9
      vertex -135.018 138.574 6.8
      vertex -135.018 138.574 5.9
    endloop
  endfacet
  facet normal -0.707107 0.707107 0
    outer loop
      vertex -135.018 138.574 6.8
      vertex -135.574 138.018 5.9
      vertex -135.574 138.018 6.8
    endloop
  endfacet
  facet normal 0.454842 0.890572 -0
    outer loop
      vertex 133.75 139.495 5.9
      vertex 133.051 139.852 6.8
      vertex 133.75 139.495 6.8
    endloop
  endfacet
  facet normal 0.454842 0.890572 0
    outer loop
      vertex 133.051 139.852 6.8
      vertex 133.75 139.495 5.9
      vertex 133.051 139.852 5.9
    endloop
  endfacet
  facet normal -0.0522246 0.998635 0
    outer loop
      vertex -130 140.5 5.9
      vertex -130.784 140.459 6.8
      vertex -130 140.5 6.8
    endloop
  endfacet
  facet normal -0.0522246 0.998635 0
    outer loop
      vertex -130.784 140.459 6.8
      vertex -130 140.5 5.9
      vertex -130.784 140.459 5.9
    endloop
  endfacet
  facet normal -0.454842 0.890572 0
    outer loop
      vertex -133.051 139.852 5.9
      vertex -133.75 139.495 6.8
      vertex -133.051 139.852 6.8
    endloop
  endfacet
  facet normal -0.454842 0.890572 0
    outer loop
      vertex -133.75 139.495 6.8
      vertex -133.051 139.852 5.9
      vertex -133.75 139.495 5.9
    endloop
  endfacet
  facet normal -0.890572 0.454842 0
    outer loop
      vertex -136.852 136.051 5.9
      vertex -136.495 136.75 6.8
      vertex -136.495 136.75 5.9
    endloop
  endfacet
  facet normal -0.890572 0.454842 0
    outer loop
      vertex -136.495 136.75 6.8
      vertex -136.852 136.051 5.9
      vertex -136.852 136.051 6.8
    endloop
  endfacet
  facet normal -0.838851 0.544361 0
    outer loop
      vertex -136.495 136.75 5.9
      vertex -136.068 137.408 6.8
      vertex -136.068 137.408 5.9
    endloop
  endfacet
  facet normal -0.838851 0.544361 0
    outer loop
      vertex -136.068 137.408 6.8
      vertex -136.495 136.75 5.9
      vertex -136.495 136.75 6.8
    endloop
  endfacet
  facet normal 0.629345 0.777126 -0
    outer loop
      vertex 135.018 138.574 5.9
      vertex 134.408 139.068 6.8
      vertex 135.018 138.574 6.8
    endloop
  endfacet
  facet normal 0.629345 0.777126 0
    outer loop
      vertex 134.408 139.068 6.8
      vertex 135.018 138.574 5.9
      vertex 134.408 139.068 5.9
    endloop
  endfacet
  facet normal 0.707107 0.707107 0
    outer loop
      vertex 135.574 138.018 6.8
      vertex 135.018 138.574 5.9
      vertex 135.018 138.574 6.8
    endloop
  endfacet
  facet normal 0.707107 0.707107 0
    outer loop
      vertex 135.018 138.574 5.9
      vertex 135.574 138.018 6.8
      vertex 135.574 138.018 5.9
    endloop
  endfacet
  facet normal 0.544361 0.838851 -0
    outer loop
      vertex 134.408 139.068 5.9
      vertex 133.75 139.495 6.8
      vertex 134.408 139.068 6.8
    endloop
  endfacet
  facet normal 0.544361 0.838851 0
    outer loop
      vertex 133.75 139.495 6.8
      vertex 134.408 139.068 5.9
      vertex 133.75 139.495 5.9
    endloop
  endfacet
  facet normal 0.258376 0.966045 -0
    outer loop
      vertex 132.318 140.133 5.9
      vertex 131.559 140.336 6.8
      vertex 132.318 140.133 6.8
    endloop
  endfacet
  facet normal 0.258376 0.966045 0
    outer loop
      vertex 131.559 140.336 6.8
      vertex 132.318 140.133 5.9
      vertex 131.559 140.336 5.9
    endloop
  endfacet
  facet normal 0.156748 0.987639 -0
    outer loop
      vertex 131.559 140.336 5.9
      vertex 130.784 140.459 6.8
      vertex 131.559 140.336 6.8
    endloop
  endfacet
  facet normal 0.156748 0.987639 0
    outer loop
      vertex 130.784 140.459 6.8
      vertex 131.559 140.336 5.9
      vertex 130.784 140.459 5.9
    endloop
  endfacet
  facet normal 0.357955 0.933739 -0
    outer loop
      vertex 133.051 139.852 5.9
      vertex 132.318 140.133 6.8
      vertex 133.051 139.852 6.8
    endloop
  endfacet
  facet normal 0.357955 0.933739 0
    outer loop
      vertex 132.318 140.133 6.8
      vertex 133.051 139.852 5.9
      vertex 132.318 140.133 5.9
    endloop
  endfacet
  facet normal 0.933739 0.357955 0
    outer loop
      vertex 137.133 135.318 6.8
      vertex 136.852 136.051 5.9
      vertex 136.852 136.051 6.8
    endloop
  endfacet
  facet normal 0.933739 0.357955 0
    outer loop
      vertex 136.852 136.051 5.9
      vertex 137.133 135.318 6.8
      vertex 137.133 135.318 5.9
    endloop
  endfacet
  facet normal 0.890572 0.454842 0
    outer loop
      vertex 136.852 136.051 6.8
      vertex 136.495 136.75 5.9
      vertex 136.495 136.75 6.8
    endloop
  endfacet
  facet normal 0.890572 0.454842 0
    outer loop
      vertex 136.495 136.75 5.9
      vertex 136.852 136.051 6.8
      vertex 136.852 136.051 5.9
    endloop
  endfacet
  facet normal -0.357955 0.933739 0
    outer loop
      vertex -132.318 140.133 5.9
      vertex -133.051 139.852 6.8
      vertex -132.318 140.133 6.8
    endloop
  endfacet
  facet normal -0.357955 0.933739 0
    outer loop
      vertex -133.051 139.852 6.8
      vertex -132.318 140.133 5.9
      vertex -133.051 139.852 5.9
    endloop
  endfacet
  facet normal -0.258376 0.966045 0
    outer loop
      vertex -131.559 140.336 5.9
      vertex -132.318 140.133 6.8
      vertex -131.559 140.336 6.8
    endloop
  endfacet
  facet normal -0.258376 0.966045 0
    outer loop
      vertex -132.318 140.133 6.8
      vertex -131.559 140.336 5.9
      vertex -132.318 140.133 5.9
    endloop
  endfacet
  facet normal -0.629345 0.777126 0
    outer loop
      vertex -134.408 139.068 5.9
      vertex -135.018 138.574 6.8
      vertex -134.408 139.068 6.8
    endloop
  endfacet
  facet normal -0.629345 0.777126 0
    outer loop
      vertex -135.018 138.574 6.8
      vertex -134.408 139.068 5.9
      vertex -135.018 138.574 5.9
    endloop
  endfacet
  facet normal -0.544361 0.838851 0
    outer loop
      vertex -133.75 139.495 5.9
      vertex -134.408 139.068 6.8
      vertex -133.75 139.495 6.8
    endloop
  endfacet
  facet normal -0.544361 0.838851 0
    outer loop
      vertex -134.408 139.068 6.8
      vertex -133.75 139.495 5.9
      vertex -134.408 139.068 5.9
    endloop
  endfacet
  facet normal -0.966045 0.258376 0
    outer loop
      vertex -137.336 134.559 5.9
      vertex -137.133 135.318 6.8
      vertex -137.133 135.318 5.9
    endloop
  endfacet
  facet normal -0.966045 0.258376 0
    outer loop
      vertex -137.133 135.318 6.8
      vertex -137.336 134.559 5.9
      vertex -137.336 134.559 6.8
    endloop
  endfacet
  facet normal -0.933739 0.357955 0
    outer loop
      vertex -137.133 135.318 5.9
      vertex -136.852 136.051 6.8
      vertex -136.852 136.051 5.9
    endloop
  endfacet
  facet normal -0.933739 0.357955 0
    outer loop
      vertex -136.852 136.051 6.8
      vertex -137.133 135.318 5.9
      vertex -137.133 135.318 6.8
    endloop
  endfacet
  facet normal -0.987639 0.156748 0
    outer loop
      vertex -137.459 133.784 5.9
      vertex -137.336 134.559 6.8
      vertex -137.336 134.559 5.9
    endloop
  endfacet
  facet normal -0.987639 0.156748 0
    outer loop
      vertex -137.336 134.559 6.8
      vertex -137.459 133.784 5.9
      vertex -137.459 133.784 6.8
    endloop
  endfacet
  facet normal -0.777126 0.629345 0
    outer loop
      vertex -136.068 137.408 5.9
      vertex -135.574 138.018 6.8
      vertex -135.574 138.018 5.9
    endloop
  endfacet
  facet normal -0.777126 0.629345 0
    outer loop
      vertex -135.574 138.018 6.8
      vertex -136.068 137.408 5.9
      vertex -136.068 137.408 6.8
    endloop
  endfacet
  facet normal 0.987639 0.156748 0
    outer loop
      vertex 137.459 133.784 6.8
      vertex 137.336 134.559 5.9
      vertex 137.336 134.559 6.8
    endloop
  endfacet
  facet normal 0.987639 0.156748 0
    outer loop
      vertex 137.336 134.559 5.9
      vertex 137.459 133.784 6.8
      vertex 137.459 133.784 5.9
    endloop
  endfacet
  facet normal 0.998635 0.0522246 0
    outer loop
      vertex 137.5 133 6.8
      vertex 137.459 133.784 5.9
      vertex 137.459 133.784 6.8
    endloop
  endfacet
  facet normal 0.998635 0.0522246 0
    outer loop
      vertex 137.459 133.784 5.9
      vertex 137.5 133 6.8
      vertex 137.5 133 5.9
    endloop
  endfacet
  facet normal 0.966045 0.258376 0
    outer loop
      vertex 137.336 134.559 6.8
      vertex 137.133 135.318 5.9
      vertex 137.133 135.318 6.8
    endloop
  endfacet
  facet normal 0.966045 0.258376 0
    outer loop
      vertex 137.133 135.318 5.9
      vertex 137.336 134.559 6.8
      vertex 137.336 134.559 5.9
    endloop
  endfacet
  facet normal 0.838851 0.544361 0
    outer loop
      vertex 136.495 136.75 6.8
      vertex 136.068 137.408 5.9
      vertex 136.068 137.408 6.8
    endloop
  endfacet
  facet normal 0.838851 0.544361 0
    outer loop
      vertex 136.068 137.408 5.9
      vertex 136.495 136.75 6.8
      vertex 136.495 136.75 5.9
    endloop
  endfacet
endsolid OpenSCAD_Model
