  0
SECTION
  2
BLOCKS
  0
ENDSEC
  0
SECTION
  2
ENTITIES
  0
LINE
  8
0
 10
210.398
 20
-199.848
 11
210.915
 21
-199.766
  0
LINE
  8
0
 10
210.915
 20
-199.766
 11
211.42
 21
-199.63
  0
LINE
  8
0
 10
211.42
 20
-199.63
 11
211.909
 21
-199.443
  0
LINE
  8
0
 10
211.909
 20
-199.443
 11
212.375
 21
-199.205
  0
LINE
  8
0
 10
212.375
 20
-199.205
 11
212.814
 21
-198.92
  0
LINE
  8
0
 10
212.814
 20
-198.92
 11
213.221
 21
-198.591
  0
LINE
  8
0
 10
213.221
 20
-198.591
 11
213.591
 21
-198.221
  0
LINE
  8
0
 10
213.591
 20
-198.221
 11
213.92
 21
-197.814
  0
LINE
  8
0
 10
213.92
 20
-197.814
 11
214.205
 21
-197.375
  0
LINE
  8
0
 10
214.205
 20
-197.375
 11
214.443
 21
-196.909
  0
LINE
  8
0
 10
214.443
 20
-196.909
 11
214.63
 21
-196.42
  0
LINE
  8
0
 10
214.63
 20
-196.42
 11
214.766
 21
-195.915
  0
LINE
  8
0
 10
214.766
 20
-195.915
 11
214.848
 21
-195.398
  0
LINE
  8
0
 10
214.848
 20
-195.398
 11
214.875
 21
-194.875
  0
LINE
  8
0
 10
214.875
 20
-194.875
 11
214.875
 21
194.875
  0
LINE
  8
0
 10
214.875
 20
194.875
 11
214.848
 21
195.398
  0
LINE
  8
0
 10
214.848
 20
195.398
 11
214.766
 21
195.915
  0
LINE
  8
0
 10
214.766
 20
195.915
 11
214.63
 21
196.42
  0
LINE
  8
0
 10
214.63
 20
196.42
 11
214.443
 21
196.909
  0
LINE
  8
0
 10
214.443
 20
196.909
 11
214.205
 21
197.375
  0
LINE
  8
0
 10
214.205
 20
197.375
 11
213.92
 21
197.814
  0
LINE
  8
0
 10
213.92
 20
197.814
 11
213.591
 21
198.221
  0
LINE
  8
0
 10
213.591
 20
198.221
 11
213.221
 21
198.591
  0
LINE
  8
0
 10
213.221
 20
198.591
 11
212.814
 21
198.92
  0
LINE
  8
0
 10
212.814
 20
198.92
 11
212.375
 21
199.205
  0
LINE
  8
0
 10
212.375
 20
199.205
 11
211.909
 21
199.443
  0
LINE
  8
0
 10
211.909
 20
199.443
 11
211.42
 21
199.63
  0
LINE
  8
0
 10
211.42
 20
199.63
 11
210.915
 21
199.766
  0
LINE
  8
0
 10
210.915
 20
199.766
 11
210.398
 21
199.848
  0
LINE
  8
0
 10
210.398
 20
199.848
 11
209.875
 21
199.875
  0
LINE
  8
0
 10
209.875
 20
199.875
 11
-209.875
 21
199.875
  0
LINE
  8
0
 10
-209.875
 20
199.875
 11
-210.398
 21
199.848
  0
LINE
  8
0
 10
-210.398
 20
199.848
 11
-210.915
 21
199.766
  0
LINE
  8
0
 10
-210.915
 20
199.766
 11
-211.42
 21
199.63
  0
LINE
  8
0
 10
-211.42
 20
199.63
 11
-211.909
 21
199.443
  0
LINE
  8
0
 10
-211.909
 20
199.443
 11
-212.375
 21
199.205
  0
LINE
  8
0
 10
-212.375
 20
199.205
 11
-212.814
 21
198.92
  0
LINE
  8
0
 10
-212.814
 20
198.92
 11
-213.221
 21
198.591
  0
LINE
  8
0
 10
-213.221
 20
198.591
 11
-213.591
 21
198.221
  0
LINE
  8
0
 10
-213.591
 20
198.221
 11
-213.92
 21
197.814
  0
LINE
  8
0
 10
-213.92
 20
197.814
 11
-214.205
 21
197.375
  0
LINE
  8
0
 10
-214.205
 20
197.375
 11
-214.443
 21
196.909
  0
LINE
  8
0
 10
-214.443
 20
196.909
 11
-214.63
 21
196.42
  0
LINE
  8
0
 10
-214.63
 20
196.42
 11
-214.766
 21
195.915
  0
LINE
  8
0
 10
-214.766
 20
195.915
 11
-214.848
 21
195.398
  0
LINE
  8
0
 10
-214.848
 20
195.398
 11
-214.875
 21
194.875
  0
LINE
  8
0
 10
-214.875
 20
194.875
 11
-214.875
 21
-194.875
  0
LINE
  8
0
 10
-214.875
 20
-194.875
 11
-214.848
 21
-195.398
  0
LINE
  8
0
 10
-214.848
 20
-195.398
 11
-214.766
 21
-195.915
  0
LINE
  8
0
 10
-214.766
 20
-195.915
 11
-214.63
 21
-196.42
  0
LINE
  8
0
 10
-214.63
 20
-196.42
 11
-214.443
 21
-196.909
  0
LINE
  8
0
 10
-214.443
 20
-196.909
 11
-214.205
 21
-197.375
  0
LINE
  8
0
 10
-214.205
 20
-197.375
 11
-213.92
 21
-197.814
  0
LINE
  8
0
 10
-213.92
 20
-197.814
 11
-213.591
 21
-198.221
  0
LINE
  8
0
 10
-213.591
 20
-198.221
 11
-213.221
 21
-198.591
  0
LINE
  8
0
 10
-213.221
 20
-198.591
 11
-212.814
 21
-198.92
  0
LINE
  8
0
 10
-212.814
 20
-198.92
 11
-212.375
 21
-199.205
  0
LINE
  8
0
 10
-212.375
 20
-199.205
 11
-211.909
 21
-199.443
  0
LINE
  8
0
 10
-211.909
 20
-199.443
 11
-211.42
 21
-199.63
  0
LINE
  8
0
 10
-211.42
 20
-199.63
 11
-210.915
 21
-199.766
  0
LINE
  8
0
 10
-210.915
 20
-199.766
 11
-210.398
 21
-199.848
  0
LINE
  8
0
 10
-210.398
 20
-199.848
 11
-209.875
 21
-199.875
  0
LINE
  8
0
 10
-209.875
 20
-199.875
 11
209.875
 21
-199.875
  0
LINE
  8
0
 10
209.875
 20
-199.875
 11
210.398
 21
-199.848
  0
LINE
  8
0
 10
207.108
 20
188.771
 11
206.72
 21
188.832
  0
LINE
  8
0
 10
206.72
 20
188.832
 11
206.341
 21
188.934
  0
LINE
  8
0
 10
206.341
 20
188.934
 11
205.975
 21
189.074
  0
LINE
  8
0
 10
205.975
 20
189.074
 11
205.625
 21
189.252
  0
LINE
  8
0
 10
205.625
 20
189.252
 11
205.296
 21
189.466
  0
LINE
  8
0
 10
205.296
 20
189.466
 11
204.991
 21
189.713
  0
LINE
  8
0
 10
204.991
 20
189.713
 11
204.713
 21
189.991
  0
LINE
  8
0
 10
204.713
 20
189.991
 11
204.466
 21
190.296
  0
LINE
  8
0
 10
204.466
 20
190.296
 11
204.252
 21
190.625
  0
LINE
  8
0
 10
204.252
 20
190.625
 11
204.074
 21
190.975
  0
LINE
  8
0
 10
204.074
 20
190.975
 11
203.934
 21
191.341
  0
LINE
  8
0
 10
203.934
 20
191.341
 11
203.832
 21
191.72
  0
LINE
  8
0
 10
203.832
 20
191.72
 11
203.771
 21
192.108
  0
LINE
  8
0
 10
203.771
 20
192.108
 11
203.75
 21
192.5
  0
LINE
  8
0
 10
203.75
 20
192.5
 11
203.771
 21
192.892
  0
LINE
  8
0
 10
203.771
 20
192.892
 11
203.832
 21
193.28
  0
LINE
  8
0
 10
203.832
 20
193.28
 11
203.934
 21
193.659
  0
LINE
  8
0
 10
203.934
 20
193.659
 11
204.074
 21
194.025
  0
LINE
  8
0
 10
204.074
 20
194.025
 11
204.252
 21
194.375
  0
LINE
  8
0
 10
204.252
 20
194.375
 11
204.466
 21
194.704
  0
LINE
  8
0
 10
204.466
 20
194.704
 11
204.713
 21
195.009
  0
LINE
  8
0
 10
204.713
 20
195.009
 11
204.991
 21
195.287
  0
LINE
  8
0
 10
204.991
 20
195.287
 11
205.296
 21
195.534
  0
LINE
  8
0
 10
205.296
 20
195.534
 11
205.625
 21
195.748
  0
LINE
  8
0
 10
205.625
 20
195.748
 11
205.975
 21
195.926
  0
LINE
  8
0
 10
205.975
 20
195.926
 11
206.341
 21
196.066
  0
LINE
  8
0
 10
206.341
 20
196.066
 11
206.72
 21
196.168
  0
LINE
  8
0
 10
206.72
 20
196.168
 11
207.108
 21
196.229
  0
LINE
  8
0
 10
207.108
 20
196.229
 11
207.5
 21
196.25
  0
LINE
  8
0
 10
207.5
 20
196.25
 11
207.892
 21
196.229
  0
LINE
  8
0
 10
207.892
 20
196.229
 11
208.28
 21
196.168
  0
LINE
  8
0
 10
208.28
 20
196.168
 11
208.659
 21
196.066
  0
LINE
  8
0
 10
208.659
 20
196.066
 11
209.025
 21
195.926
  0
LINE
  8
0
 10
209.025
 20
195.926
 11
209.375
 21
195.748
  0
LINE
  8
0
 10
209.375
 20
195.748
 11
209.704
 21
195.534
  0
LINE
  8
0
 10
209.704
 20
195.534
 11
210.009
 21
195.287
  0
LINE
  8
0
 10
210.009
 20
195.287
 11
210.287
 21
195.009
  0
LINE
  8
0
 10
210.287
 20
195.009
 11
210.534
 21
194.704
  0
LINE
  8
0
 10
210.534
 20
194.704
 11
210.748
 21
194.375
  0
LINE
  8
0
 10
210.748
 20
194.375
 11
210.926
 21
194.025
  0
LINE
  8
0
 10
210.926
 20
194.025
 11
211.066
 21
193.659
  0
LINE
  8
0
 10
211.066
 20
193.659
 11
211.168
 21
193.28
  0
LINE
  8
0
 10
211.168
 20
193.28
 11
211.229
 21
192.892
  0
LINE
  8
0
 10
211.229
 20
192.892
 11
211.25
 21
192.5
  0
LINE
  8
0
 10
211.25
 20
192.5
 11
211.229
 21
192.108
  0
LINE
  8
0
 10
211.229
 20
192.108
 11
211.168
 21
191.72
  0
LINE
  8
0
 10
211.168
 20
191.72
 11
211.066
 21
191.341
  0
LINE
  8
0
 10
211.066
 20
191.341
 11
210.926
 21
190.975
  0
LINE
  8
0
 10
210.926
 20
190.975
 11
210.748
 21
190.625
  0
LINE
  8
0
 10
210.748
 20
190.625
 11
210.534
 21
190.296
  0
LINE
  8
0
 10
210.534
 20
190.296
 11
210.287
 21
189.991
  0
LINE
  8
0
 10
210.287
 20
189.991
 11
210.009
 21
189.713
  0
LINE
  8
0
 10
210.009
 20
189.713
 11
209.704
 21
189.466
  0
LINE
  8
0
 10
209.704
 20
189.466
 11
209.375
 21
189.252
  0
LINE
  8
0
 10
209.375
 20
189.252
 11
209.025
 21
189.074
  0
LINE
  8
0
 10
209.025
 20
189.074
 11
208.659
 21
188.934
  0
LINE
  8
0
 10
208.659
 20
188.934
 11
208.28
 21
188.832
  0
LINE
  8
0
 10
208.28
 20
188.832
 11
207.892
 21
188.771
  0
LINE
  8
0
 10
207.892
 20
188.771
 11
207.5
 21
188.75
  0
LINE
  8
0
 10
207.5
 20
188.75
 11
207.108
 21
188.771
  0
LINE
  8
0
 10
-207.892
 20
188.771
 11
-208.28
 21
188.832
  0
LINE
  8
0
 10
-208.28
 20
188.832
 11
-208.659
 21
188.934
  0
LINE
  8
0
 10
-208.659
 20
188.934
 11
-209.025
 21
189.074
  0
LINE
  8
0
 10
-209.025
 20
189.074
 11
-209.375
 21
189.252
  0
LINE
  8
0
 10
-209.375
 20
189.252
 11
-209.704
 21
189.466
  0
LINE
  8
0
 10
-209.704
 20
189.466
 11
-210.009
 21
189.713
  0
LINE
  8
0
 10
-210.009
 20
189.713
 11
-210.287
 21
189.991
  0
LINE
  8
0
 10
-210.287
 20
189.991
 11
-210.534
 21
190.296
  0
LINE
  8
0
 10
-210.534
 20
190.296
 11
-210.748
 21
190.625
  0
LINE
  8
0
 10
-210.748
 20
190.625
 11
-210.926
 21
190.975
  0
LINE
  8
0
 10
-210.926
 20
190.975
 11
-211.066
 21
191.341
  0
LINE
  8
0
 10
-211.066
 20
191.341
 11
-211.168
 21
191.72
  0
LINE
  8
0
 10
-211.168
 20
191.72
 11
-211.229
 21
192.108
  0
LINE
  8
0
 10
-211.229
 20
192.108
 11
-211.25
 21
192.5
  0
LINE
  8
0
 10
-211.25
 20
192.5
 11
-211.229
 21
192.892
  0
LINE
  8
0
 10
-211.229
 20
192.892
 11
-211.168
 21
193.28
  0
LINE
  8
0
 10
-211.168
 20
193.28
 11
-211.066
 21
193.659
  0
LINE
  8
0
 10
-211.066
 20
193.659
 11
-210.926
 21
194.025
  0
LINE
  8
0
 10
-210.926
 20
194.025
 11
-210.748
 21
194.375
  0
LINE
  8
0
 10
-210.748
 20
194.375
 11
-210.534
 21
194.704
  0
LINE
  8
0
 10
-210.534
 20
194.704
 11
-210.287
 21
195.009
  0
LINE
  8
0
 10
-210.287
 20
195.009
 11
-210.009
 21
195.287
  0
LINE
  8
0
 10
-210.009
 20
195.287
 11
-209.704
 21
195.534
  0
LINE
  8
0
 10
-209.704
 20
195.534
 11
-209.375
 21
195.748
  0
LINE
  8
0
 10
-209.375
 20
195.748
 11
-209.025
 21
195.926
  0
LINE
  8
0
 10
-209.025
 20
195.926
 11
-208.659
 21
196.066
  0
LINE
  8
0
 10
-208.659
 20
196.066
 11
-208.28
 21
196.168
  0
LINE
  8
0
 10
-208.28
 20
196.168
 11
-207.892
 21
196.229
  0
LINE
  8
0
 10
-207.892
 20
196.229
 11
-207.5
 21
196.25
  0
LINE
  8
0
 10
-207.5
 20
196.25
 11
-207.108
 21
196.229
  0
LINE
  8
0
 10
-207.108
 20
196.229
 11
-206.72
 21
196.168
  0
LINE
  8
0
 10
-206.72
 20
196.168
 11
-206.341
 21
196.066
  0
LINE
  8
0
 10
-206.341
 20
196.066
 11
-205.975
 21
195.926
  0
LINE
  8
0
 10
-205.975
 20
195.926
 11
-205.625
 21
195.748
  0
LINE
  8
0
 10
-205.625
 20
195.748
 11
-205.296
 21
195.534
  0
LINE
  8
0
 10
-205.296
 20
195.534
 11
-204.991
 21
195.287
  0
LINE
  8
0
 10
-204.991
 20
195.287
 11
-204.713
 21
195.009
  0
LINE
  8
0
 10
-204.713
 20
195.009
 11
-204.466
 21
194.704
  0
LINE
  8
0
 10
-204.466
 20
194.704
 11
-204.252
 21
194.375
  0
LINE
  8
0
 10
-204.252
 20
194.375
 11
-204.074
 21
194.025
  0
LINE
  8
0
 10
-204.074
 20
194.025
 11
-203.934
 21
193.659
  0
LINE
  8
0
 10
-203.934
 20
193.659
 11
-203.832
 21
193.28
  0
LINE
  8
0
 10
-203.832
 20
193.28
 11
-203.771
 21
192.892
  0
LINE
  8
0
 10
-203.771
 20
192.892
 11
-203.75
 21
192.5
  0
LINE
  8
0
 10
-203.75
 20
192.5
 11
-203.771
 21
192.108
  0
LINE
  8
0
 10
-203.771
 20
192.108
 11
-203.832
 21
191.72
  0
LINE
  8
0
 10
-203.832
 20
191.72
 11
-203.934
 21
191.341
  0
LINE
  8
0
 10
-203.934
 20
191.341
 11
-204.074
 21
190.975
  0
LINE
  8
0
 10
-204.074
 20
190.975
 11
-204.252
 21
190.625
  0
LINE
  8
0
 10
-204.252
 20
190.625
 11
-204.466
 21
190.296
  0
LINE
  8
0
 10
-204.466
 20
190.296
 11
-204.713
 21
189.991
  0
LINE
  8
0
 10
-204.713
 20
189.991
 11
-204.991
 21
189.713
  0
LINE
  8
0
 10
-204.991
 20
189.713
 11
-205.296
 21
189.466
  0
LINE
  8
0
 10
-205.296
 20
189.466
 11
-205.625
 21
189.252
  0
LINE
  8
0
 10
-205.625
 20
189.252
 11
-205.975
 21
189.074
  0
LINE
  8
0
 10
-205.975
 20
189.074
 11
-206.341
 21
188.934
  0
LINE
  8
0
 10
-206.341
 20
188.934
 11
-206.72
 21
188.832
  0
LINE
  8
0
 10
-206.72
 20
188.832
 11
-207.108
 21
188.771
  0
LINE
  8
0
 10
-207.108
 20
188.771
 11
-207.5
 21
188.75
  0
LINE
  8
0
 10
-207.5
 20
188.75
 11
-207.892
 21
188.771
  0
LINE
  8
0
 10
-165.309
 20
190.828
 11
-165.549
 21
190.891
  0
LINE
  8
0
 10
-165.549
 20
190.891
 11
-165.777
 21
190.988
  0
LINE
  8
0
 10
-165.777
 20
190.988
 11
-165.989
 21
191.117
  0
LINE
  8
0
 10
-165.989
 20
191.117
 11
-166.18
 21
191.276
  0
LINE
  8
0
 10
-166.18
 20
191.276
 11
-166.346
 21
191.461
  0
LINE
  8
0
 10
-166.346
 20
191.461
 11
-166.482
 21
191.668
  0
LINE
  8
0
 10
-166.482
 20
191.668
 11
-166.588
 21
191.893
  0
LINE
  8
0
 10
-166.588
 20
191.893
 11
-166.659
 21
192.13
  0
LINE
  8
0
 10
-166.659
 20
192.13
 11
-166.695
 21
192.376
  0
LINE
  8
0
 10
-166.695
 20
192.376
 11
-166.695
 21
192.624
  0
LINE
  8
0
 10
-166.695
 20
192.624
 11
-166.659
 21
192.87
  0
LINE
  8
0
 10
-166.659
 20
192.87
 11
-166.588
 21
193.107
  0
LINE
  8
0
 10
-166.588
 20
193.107
 11
-166.482
 21
193.332
  0
LINE
  8
0
 10
-166.482
 20
193.332
 11
-166.346
 21
193.539
  0
LINE
  8
0
 10
-166.346
 20
193.539
 11
-166.18
 21
193.724
  0
LINE
  8
0
 10
-166.18
 20
193.724
 11
-165.989
 21
193.883
  0
LINE
  8
0
 10
-165.989
 20
193.883
 11
-165.777
 21
194.012
  0
LINE
  8
0
 10
-165.777
 20
194.012
 11
-165.549
 21
194.109
  0
LINE
  8
0
 10
-165.549
 20
194.109
 11
-165.309
 21
194.172
  0
LINE
  8
0
 10
-165.309
 20
194.172
 11
-165.062
 21
194.199
  0
LINE
  8
0
 10
-165.062
 20
194.199
 11
-164.814
 21
194.19
  0
LINE
  8
0
 10
-164.814
 20
194.19
 11
-164.57
 21
194.145
  0
LINE
  8
0
 10
-164.57
 20
194.145
 11
-164.335
 21
194.065
  0
LINE
  8
0
 10
-164.335
 20
194.065
 11
-164.114
 21
193.951
  0
LINE
  8
0
 10
-164.114
 20
193.951
 11
-163.913
 21
193.807
  0
LINE
  8
0
 10
-163.913
 20
193.807
 11
-163.734
 21
193.634
  0
LINE
  8
0
 10
-163.734
 20
193.634
 11
-163.582
 21
193.438
  0
LINE
  8
0
 10
-163.582
 20
193.438
 11
-163.461
 21
193.222
  0
LINE
  8
0
 10
-163.461
 20
193.222
 11
-163.372
 21
192.99
  0
LINE
  8
0
 10
-163.372
 20
192.99
 11
-163.318
 21
192.748
  0
LINE
  8
0
 10
-163.318
 20
192.748
 11
-163.3
 21
192.5
  0
LINE
  8
0
 10
-163.3
 20
192.5
 11
-163.318
 21
192.252
  0
LINE
  8
0
 10
-163.318
 20
192.252
 11
-163.372
 21
192.01
  0
LINE
  8
0
 10
-163.372
 20
192.01
 11
-163.461
 21
191.778
  0
LINE
  8
0
 10
-163.461
 20
191.778
 11
-163.582
 21
191.562
  0
LINE
  8
0
 10
-163.582
 20
191.562
 11
-163.734
 21
191.366
  0
LINE
  8
0
 10
-163.734
 20
191.366
 11
-163.913
 21
191.193
  0
LINE
  8
0
 10
-163.913
 20
191.193
 11
-164.114
 21
191.049
  0
LINE
  8
0
 10
-164.114
 20
191.049
 11
-164.335
 21
190.935
  0
LINE
  8
0
 10
-164.335
 20
190.935
 11
-164.57
 21
190.855
  0
LINE
  8
0
 10
-164.57
 20
190.855
 11
-164.814
 21
190.81
  0
LINE
  8
0
 10
-164.814
 20
190.81
 11
-165.062
 21
190.801
  0
LINE
  8
0
 10
-165.062
 20
190.801
 11
-165.309
 21
190.828
  0
LINE
  8
0
 10
-0.308777
 20
190.828
 11
-0.548889
 21
190.891
  0
LINE
  8
0
 10
-0.548889
 20
190.891
 11
-0.777298
 21
190.988
  0
LINE
  8
0
 10
-0.777298
 20
190.988
 11
-0.989151
 21
191.117
  0
LINE
  8
0
 10
-0.989151
 20
191.117
 11
-1.17992
 21
191.276
  0
LINE
  8
0
 10
-1.17992
 20
191.276
 11
-1.34554
 21
191.461
  0
LINE
  8
0
 10
-1.34554
 20
191.461
 11
-1.48248
 21
191.668
  0
LINE
  8
0
 10
-1.48248
 20
191.668
 11
-1.58781
 21
191.893
  0
LINE
  8
0
 10
-1.58781
 20
191.893
 11
-1.65932
 21
192.13
  0
LINE
  8
0
 10
-1.65932
 20
192.13
 11
-1.69545
 21
192.376
  0
LINE
  8
0
 10
-1.69545
 20
192.376
 11
-1.69545
 21
192.624
  0
LINE
  8
0
 10
-1.69545
 20
192.624
 11
-1.65932
 21
192.87
  0
LINE
  8
0
 10
-1.65932
 20
192.87
 11
-1.58781
 21
193.107
  0
LINE
  8
0
 10
-1.58781
 20
193.107
 11
-1.48248
 21
193.332
  0
LINE
  8
0
 10
-1.48248
 20
193.332
 11
-1.34554
 21
193.539
  0
LINE
  8
0
 10
-1.34554
 20
193.539
 11
-1.17992
 21
193.724
  0
LINE
  8
0
 10
-1.17992
 20
193.724
 11
-0.989151
 21
193.883
  0
LINE
  8
0
 10
-0.989151
 20
193.883
 11
-0.777298
 21
194.012
  0
LINE
  8
0
 10
-0.777298
 20
194.012
 11
-0.548889
 21
194.109
  0
LINE
  8
0
 10
-0.548889
 20
194.109
 11
-0.308777
 21
194.172
  0
LINE
  8
0
 10
-0.308777
 20
194.172
 11
-0.0620728
 21
194.199
  0
LINE
  8
0
 10
-0.0620728
 20
194.199
 11
0.185928
 21
194.19
  0
LINE
  8
0
 10
0.185928
 20
194.19
 11
0.429977
 21
194.145
  0
LINE
  8
0
 10
0.429977
 20
194.145
 11
0.664871
 21
194.065
  0
LINE
  8
0
 10
0.664871
 20
194.065
 11
0.88559
 21
193.951
  0
LINE
  8
0
 10
0.88559
 20
193.951
 11
1.08743
 21
193.807
  0
LINE
  8
0
 10
1.08743
 20
193.807
 11
1.2661
 21
193.634
  0
LINE
  8
0
 10
1.2661
 20
193.634
 11
1.41779
 21
193.438
  0
LINE
  8
0
 10
1.41779
 20
193.438
 11
1.53926
 21
193.222
  0
LINE
  8
0
 10
1.53926
 20
193.222
 11
1.62791
 21
192.99
  0
LINE
  8
0
 10
1.62791
 20
192.99
 11
1.68187
 21
192.748
  0
LINE
  8
0
 10
1.68187
 20
192.748
 11
1.7
 21
192.5
  0
LINE
  8
0
 10
1.7
 20
192.5
 11
1.68187
 21
192.252
  0
LINE
  8
0
 10
1.68187
 20
192.252
 11
1.62791
 21
192.01
  0
LINE
  8
0
 10
1.62791
 20
192.01
 11
1.53926
 21
191.778
  0
LINE
  8
0
 10
1.53926
 20
191.778
 11
1.41779
 21
191.562
  0
LINE
  8
0
 10
1.41779
 20
191.562
 11
1.2661
 21
191.366
  0
LINE
  8
0
 10
1.2661
 20
191.366
 11
1.08743
 21
191.193
  0
LINE
  8
0
 10
1.08743
 20
191.193
 11
0.88559
 21
191.049
  0
LINE
  8
0
 10
0.88559
 20
191.049
 11
0.664871
 21
190.935
  0
LINE
  8
0
 10
0.664871
 20
190.935
 11
0.429977
 21
190.855
  0
LINE
  8
0
 10
0.429977
 20
190.855
 11
0.185928
 21
190.81
  0
LINE
  8
0
 10
0.185928
 20
190.81
 11
-0.0620728
 21
190.801
  0
LINE
  8
0
 10
-0.0620728
 20
190.801
 11
-0.308777
 21
190.828
  0
LINE
  8
0
 10
82.1912
 20
190.828
 11
81.9511
 21
190.891
  0
LINE
  8
0
 10
81.9511
 20
190.891
 11
81.7227
 21
190.988
  0
LINE
  8
0
 10
81.7227
 20
190.988
 11
81.5108
 21
191.117
  0
LINE
  8
0
 10
81.5108
 20
191.117
 11
81.3201
 21
191.276
  0
LINE
  8
0
 10
81.3201
 20
191.276
 11
81.1544
 21
191.461
  0
LINE
  8
0
 10
81.1544
 20
191.461
 11
81.0175
 21
191.668
  0
LINE
  8
0
 10
81.0175
 20
191.668
 11
80.9122
 21
191.893
  0
LINE
  8
0
 10
80.9122
 20
191.893
 11
80.8407
 21
192.13
  0
LINE
  8
0
 10
80.8407
 20
192.13
 11
80.8045
 21
192.376
  0
LINE
  8
0
 10
80.8045
 20
192.376
 11
80.8045
 21
192.624
  0
LINE
  8
0
 10
80.8045
 20
192.624
 11
80.8407
 21
192.87
  0
LINE
  8
0
 10
80.8407
 20
192.87
 11
80.9122
 21
193.107
  0
LINE
  8
0
 10
80.9122
 20
193.107
 11
81.0175
 21
193.332
  0
LINE
  8
0
 10
81.0175
 20
193.332
 11
81.1544
 21
193.539
  0
LINE
  8
0
 10
81.1544
 20
193.539
 11
81.3201
 21
193.724
  0
LINE
  8
0
 10
81.3201
 20
193.724
 11
81.5108
 21
193.883
  0
LINE
  8
0
 10
81.5108
 20
193.883
 11
81.7227
 21
194.012
  0
LINE
  8
0
 10
81.7227
 20
194.012
 11
81.9511
 21
194.109
  0
LINE
  8
0
 10
81.9511
 20
194.109
 11
82.1912
 21
194.172
  0
LINE
  8
0
 10
82.1912
 20
194.172
 11
82.4379
 21
194.199
  0
LINE
  8
0
 10
82.4379
 20
194.199
 11
82.6859
 21
194.19
  0
LINE
  8
0
 10
82.6859
 20
194.19
 11
82.93
 21
194.145
  0
LINE
  8
0
 10
82.93
 20
194.145
 11
83.1649
 21
194.065
  0
LINE
  8
0
 10
83.1649
 20
194.065
 11
83.3856
 21
193.951
  0
LINE
  8
0
 10
83.3856
 20
193.951
 11
83.5874
 21
193.807
  0
LINE
  8
0
 10
83.5874
 20
193.807
 11
83.7661
 21
193.634
  0
LINE
  8
0
 10
83.7661
 20
193.634
 11
83.9178
 21
193.438
  0
LINE
  8
0
 10
83.9178
 20
193.438
 11
84.0393
 21
193.222
  0
LINE
  8
0
 10
84.0393
 20
193.222
 11
84.1279
 21
192.99
  0
LINE
  8
0
 10
84.1279
 20
192.99
 11
84.1819
 21
192.748
  0
LINE
  8
0
 10
84.1819
 20
192.748
 11
84.2
 21
192.5
  0
LINE
  8
0
 10
84.2
 20
192.5
 11
84.1819
 21
192.252
  0
LINE
  8
0
 10
84.1819
 20
192.252
 11
84.1279
 21
192.01
  0
LINE
  8
0
 10
84.1279
 20
192.01
 11
84.0393
 21
191.778
  0
LINE
  8
0
 10
84.0393
 20
191.778
 11
83.9178
 21
191.562
  0
LINE
  8
0
 10
83.9178
 20
191.562
 11
83.7661
 21
191.366
  0
LINE
  8
0
 10
83.7661
 20
191.366
 11
83.5874
 21
191.193
  0
LINE
  8
0
 10
83.5874
 20
191.193
 11
83.3856
 21
191.049
  0
LINE
  8
0
 10
83.3856
 20
191.049
 11
83.1649
 21
190.935
  0
LINE
  8
0
 10
83.1649
 20
190.935
 11
82.93
 21
190.855
  0
LINE
  8
0
 10
82.93
 20
190.855
 11
82.6859
 21
190.81
  0
LINE
  8
0
 10
82.6859
 20
190.81
 11
82.4379
 21
190.801
  0
LINE
  8
0
 10
82.4379
 20
190.801
 11
82.1912
 21
190.828
  0
LINE
  8
0
 10
-82.8088
 20
190.828
 11
-83.0489
 21
190.891
  0
LINE
  8
0
 10
-83.0489
 20
190.891
 11
-83.2773
 21
190.988
  0
LINE
  8
0
 10
-83.2773
 20
190.988
 11
-83.4892
 21
191.117
  0
LINE
  8
0
 10
-83.4892
 20
191.117
 11
-83.6799
 21
191.276
  0
LINE
  8
0
 10
-83.6799
 20
191.276
 11
-83.8455
 21
191.461
  0
LINE
  8
0
 10
-83.8455
 20
191.461
 11
-83.9825
 21
191.668
  0
LINE
  8
0
 10
-83.9825
 20
191.668
 11
-84.0878
 21
191.893
  0
LINE
  8
0
 10
-84.0878
 20
191.893
 11
-84.1593
 21
192.13
  0
LINE
  8
0
 10
-84.1593
 20
192.13
 11
-84.1955
 21
192.376
  0
LINE
  8
0
 10
-84.1955
 20
192.376
 11
-84.1955
 21
192.624
  0
LINE
  8
0
 10
-84.1955
 20
192.624
 11
-84.1593
 21
192.87
  0
LINE
  8
0
 10
-84.1593
 20
192.87
 11
-84.0878
 21
193.107
  0
LINE
  8
0
 10
-84.0878
 20
193.107
 11
-83.9825
 21
193.332
  0
LINE
  8
0
 10
-83.9825
 20
193.332
 11
-83.8455
 21
193.539
  0
LINE
  8
0
 10
-83.8455
 20
193.539
 11
-83.6799
 21
193.724
  0
LINE
  8
0
 10
-83.6799
 20
193.724
 11
-83.4892
 21
193.883
  0
LINE
  8
0
 10
-83.4892
 20
193.883
 11
-83.2773
 21
194.012
  0
LINE
  8
0
 10
-83.2773
 20
194.012
 11
-83.0489
 21
194.109
  0
LINE
  8
0
 10
-83.0489
 20
194.109
 11
-82.8088
 21
194.172
  0
LINE
  8
0
 10
-82.8088
 20
194.172
 11
-82.5621
 21
194.199
  0
LINE
  8
0
 10
-82.5621
 20
194.199
 11
-82.3141
 21
194.19
  0
LINE
  8
0
 10
-82.3141
 20
194.19
 11
-82.07
 21
194.145
  0
LINE
  8
0
 10
-82.07
 20
194.145
 11
-81.8351
 21
194.065
  0
LINE
  8
0
 10
-81.8351
 20
194.065
 11
-81.6144
 21
193.951
  0
LINE
  8
0
 10
-81.6144
 20
193.951
 11
-81.4126
 21
193.807
  0
LINE
  8
0
 10
-81.4126
 20
193.807
 11
-81.2339
 21
193.634
  0
LINE
  8
0
 10
-81.2339
 20
193.634
 11
-81.0822
 21
193.438
  0
LINE
  8
0
 10
-81.0822
 20
193.438
 11
-80.9607
 21
193.222
  0
LINE
  8
0
 10
-80.9607
 20
193.222
 11
-80.8721
 21
192.99
  0
LINE
  8
0
 10
-80.8721
 20
192.99
 11
-80.8181
 21
192.748
  0
LINE
  8
0
 10
-80.8181
 20
192.748
 11
-80.8
 21
192.5
  0
LINE
  8
0
 10
-80.8
 20
192.5
 11
-80.8181
 21
192.252
  0
LINE
  8
0
 10
-80.8181
 20
192.252
 11
-80.8721
 21
192.01
  0
LINE
  8
0
 10
-80.8721
 20
192.01
 11
-80.9607
 21
191.778
  0
LINE
  8
0
 10
-80.9607
 20
191.778
 11
-81.0822
 21
191.562
  0
LINE
  8
0
 10
-81.0822
 20
191.562
 11
-81.2339
 21
191.366
  0
LINE
  8
0
 10
-81.2339
 20
191.366
 11
-81.4126
 21
191.193
  0
LINE
  8
0
 10
-81.4126
 20
191.193
 11
-81.6144
 21
191.049
  0
LINE
  8
0
 10
-81.6144
 20
191.049
 11
-81.8351
 21
190.935
  0
LINE
  8
0
 10
-81.8351
 20
190.935
 11
-82.07
 21
190.855
  0
LINE
  8
0
 10
-82.07
 20
190.855
 11
-82.3141
 21
190.81
  0
LINE
  8
0
 10
-82.3141
 20
190.81
 11
-82.5621
 21
190.801
  0
LINE
  8
0
 10
-82.5621
 20
190.801
 11
-82.8088
 21
190.828
  0
LINE
  8
0
 10
164.691
 20
190.828
 11
164.451
 21
190.891
  0
LINE
  8
0
 10
164.451
 20
190.891
 11
164.223
 21
190.988
  0
LINE
  8
0
 10
164.223
 20
190.988
 11
164.011
 21
191.117
  0
LINE
  8
0
 10
164.011
 20
191.117
 11
163.82
 21
191.276
  0
LINE
  8
0
 10
163.82
 20
191.276
 11
163.654
 21
191.461
  0
LINE
  8
0
 10
163.654
 20
191.461
 11
163.518
 21
191.668
  0
LINE
  8
0
 10
163.518
 20
191.668
 11
163.412
 21
191.893
  0
LINE
  8
0
 10
163.412
 20
191.893
 11
163.341
 21
192.13
  0
LINE
  8
0
 10
163.341
 20
192.13
 11
163.305
 21
192.376
  0
LINE
  8
0
 10
163.305
 20
192.376
 11
163.305
 21
192.624
  0
LINE
  8
0
 10
163.305
 20
192.624
 11
163.341
 21
192.87
  0
LINE
  8
0
 10
163.341
 20
192.87
 11
163.412
 21
193.107
  0
LINE
  8
0
 10
163.412
 20
193.107
 11
163.518
 21
193.332
  0
LINE
  8
0
 10
163.518
 20
193.332
 11
163.654
 21
193.539
  0
LINE
  8
0
 10
163.654
 20
193.539
 11
163.82
 21
193.724
  0
LINE
  8
0
 10
163.82
 20
193.724
 11
164.011
 21
193.883
  0
LINE
  8
0
 10
164.011
 20
193.883
 11
164.223
 21
194.012
  0
LINE
  8
0
 10
164.223
 20
194.012
 11
164.451
 21
194.109
  0
LINE
  8
0
 10
164.451
 20
194.109
 11
164.691
 21
194.172
  0
LINE
  8
0
 10
164.691
 20
194.172
 11
164.938
 21
194.199
  0
LINE
  8
0
 10
164.938
 20
194.199
 11
165.186
 21
194.19
  0
LINE
  8
0
 10
165.186
 20
194.19
 11
165.43
 21
194.145
  0
LINE
  8
0
 10
165.43
 20
194.145
 11
165.665
 21
194.065
  0
LINE
  8
0
 10
165.665
 20
194.065
 11
165.886
 21
193.951
  0
LINE
  8
0
 10
165.886
 20
193.951
 11
166.087
 21
193.807
  0
LINE
  8
0
 10
166.087
 20
193.807
 11
166.266
 21
193.634
  0
LINE
  8
0
 10
166.266
 20
193.634
 11
166.418
 21
193.438
  0
LINE
  8
0
 10
166.418
 20
193.438
 11
166.539
 21
193.222
  0
LINE
  8
0
 10
166.539
 20
193.222
 11
166.628
 21
192.99
  0
LINE
  8
0
 10
166.628
 20
192.99
 11
166.682
 21
192.748
  0
LINE
  8
0
 10
166.682
 20
192.748
 11
166.7
 21
192.5
  0
LINE
  8
0
 10
166.7
 20
192.5
 11
166.682
 21
192.252
  0
LINE
  8
0
 10
166.682
 20
192.252
 11
166.628
 21
192.01
  0
LINE
  8
0
 10
166.628
 20
192.01
 11
166.539
 21
191.778
  0
LINE
  8
0
 10
166.539
 20
191.778
 11
166.418
 21
191.562
  0
LINE
  8
0
 10
166.418
 20
191.562
 11
166.266
 21
191.366
  0
LINE
  8
0
 10
166.266
 20
191.366
 11
166.087
 21
191.193
  0
LINE
  8
0
 10
166.087
 20
191.193
 11
165.886
 21
191.049
  0
LINE
  8
0
 10
165.886
 20
191.049
 11
165.665
 21
190.935
  0
LINE
  8
0
 10
165.665
 20
190.935
 11
165.43
 21
190.855
  0
LINE
  8
0
 10
165.43
 20
190.855
 11
165.186
 21
190.81
  0
LINE
  8
0
 10
165.186
 20
190.81
 11
164.938
 21
190.801
  0
LINE
  8
0
 10
164.938
 20
190.801
 11
164.691
 21
190.828
  0
LINE
  8
0
 10
-207.686
 20
148.31
 11
-207.93
 21
148.355
  0
LINE
  8
0
 10
-207.93
 20
148.355
 11
-208.165
 21
148.435
  0
LINE
  8
0
 10
-208.165
 20
148.435
 11
-208.386
 21
148.549
  0
LINE
  8
0
 10
-208.386
 20
148.549
 11
-208.587
 21
148.693
  0
LINE
  8
0
 10
-208.587
 20
148.693
 11
-208.766
 21
148.866
  0
LINE
  8
0
 10
-208.766
 20
148.866
 11
-208.918
 21
149.062
  0
LINE
  8
0
 10
-208.918
 20
149.062
 11
-209.039
 21
149.278
  0
LINE
  8
0
 10
-209.039
 20
149.278
 11
-209.128
 21
149.51
  0
LINE
  8
0
 10
-209.128
 20
149.51
 11
-209.182
 21
149.752
  0
LINE
  8
0
 10
-209.182
 20
149.752
 11
-209.2
 21
150
  0
LINE
  8
0
 10
-209.2
 20
150
 11
-209.182
 21
150.248
  0
LINE
  8
0
 10
-209.182
 20
150.248
 11
-209.128
 21
150.49
  0
LINE
  8
0
 10
-209.128
 20
150.49
 11
-209.039
 21
150.722
  0
LINE
  8
0
 10
-209.039
 20
150.722
 11
-208.918
 21
150.938
  0
LINE
  8
0
 10
-208.918
 20
150.938
 11
-208.766
 21
151.134
  0
LINE
  8
0
 10
-208.766
 20
151.134
 11
-208.587
 21
151.307
  0
LINE
  8
0
 10
-208.587
 20
151.307
 11
-208.386
 21
151.451
  0
LINE
  8
0
 10
-208.386
 20
151.451
 11
-208.165
 21
151.565
  0
LINE
  8
0
 10
-208.165
 20
151.565
 11
-207.93
 21
151.645
  0
LINE
  8
0
 10
-207.93
 20
151.645
 11
-207.686
 21
151.69
  0
LINE
  8
0
 10
-207.686
 20
151.69
 11
-207.438
 21
151.699
  0
LINE
  8
0
 10
-207.438
 20
151.699
 11
-207.191
 21
151.672
  0
LINE
  8
0
 10
-207.191
 20
151.672
 11
-206.951
 21
151.609
  0
LINE
  8
0
 10
-206.951
 20
151.609
 11
-206.723
 21
151.512
  0
LINE
  8
0
 10
-206.723
 20
151.512
 11
-206.511
 21
151.383
  0
LINE
  8
0
 10
-206.511
 20
151.383
 11
-206.32
 21
151.224
  0
LINE
  8
0
 10
-206.32
 20
151.224
 11
-206.154
 21
151.039
  0
LINE
  8
0
 10
-206.154
 20
151.039
 11
-206.018
 21
150.832
  0
LINE
  8
0
 10
-206.018
 20
150.832
 11
-205.912
 21
150.607
  0
LINE
  8
0
 10
-205.912
 20
150.607
 11
-205.841
 21
150.37
  0
LINE
  8
0
 10
-205.841
 20
150.37
 11
-205.805
 21
150.124
  0
LINE
  8
0
 10
-205.805
 20
150.124
 11
-205.805
 21
149.876
  0
LINE
  8
0
 10
-205.805
 20
149.876
 11
-205.841
 21
149.63
  0
LINE
  8
0
 10
-205.841
 20
149.63
 11
-205.912
 21
149.393
  0
LINE
  8
0
 10
-205.912
 20
149.393
 11
-206.018
 21
149.168
  0
LINE
  8
0
 10
-206.018
 20
149.168
 11
-206.154
 21
148.961
  0
LINE
  8
0
 10
-206.154
 20
148.961
 11
-206.32
 21
148.776
  0
LINE
  8
0
 10
-206.32
 20
148.776
 11
-206.511
 21
148.617
  0
LINE
  8
0
 10
-206.511
 20
148.617
 11
-206.723
 21
148.488
  0
LINE
  8
0
 10
-206.723
 20
148.488
 11
-206.951
 21
148.391
  0
LINE
  8
0
 10
-206.951
 20
148.391
 11
-207.191
 21
148.328
  0
LINE
  8
0
 10
-207.191
 20
148.328
 11
-207.438
 21
148.301
  0
LINE
  8
0
 10
-207.438
 20
148.301
 11
-207.686
 21
148.31
  0
LINE
  8
0
 10
-152.686
 20
148.31
 11
-152.93
 21
148.355
  0
LINE
  8
0
 10
-152.93
 20
148.355
 11
-153.165
 21
148.435
  0
LINE
  8
0
 10
-153.165
 20
148.435
 11
-153.386
 21
148.549
  0
LINE
  8
0
 10
-153.386
 20
148.549
 11
-153.587
 21
148.693
  0
LINE
  8
0
 10
-153.587
 20
148.693
 11
-153.766
 21
148.866
  0
LINE
  8
0
 10
-153.766
 20
148.866
 11
-153.918
 21
149.062
  0
LINE
  8
0
 10
-153.918
 20
149.062
 11
-154.039
 21
149.278
  0
LINE
  8
0
 10
-154.039
 20
149.278
 11
-154.128
 21
149.51
  0
LINE
  8
0
 10
-154.128
 20
149.51
 11
-154.182
 21
149.752
  0
LINE
  8
0
 10
-154.182
 20
149.752
 11
-154.2
 21
150
  0
LINE
  8
0
 10
-154.2
 20
150
 11
-154.182
 21
150.248
  0
LINE
  8
0
 10
-154.182
 20
150.248
 11
-154.128
 21
150.49
  0
LINE
  8
0
 10
-154.128
 20
150.49
 11
-154.039
 21
150.722
  0
LINE
  8
0
 10
-154.039
 20
150.722
 11
-153.918
 21
150.938
  0
LINE
  8
0
 10
-153.918
 20
150.938
 11
-153.766
 21
151.134
  0
LINE
  8
0
 10
-153.766
 20
151.134
 11
-153.587
 21
151.307
  0
LINE
  8
0
 10
-153.587
 20
151.307
 11
-153.386
 21
151.451
  0
LINE
  8
0
 10
-153.386
 20
151.451
 11
-153.165
 21
151.565
  0
LINE
  8
0
 10
-153.165
 20
151.565
 11
-152.93
 21
151.645
  0
LINE
  8
0
 10
-152.93
 20
151.645
 11
-152.686
 21
151.69
  0
LINE
  8
0
 10
-152.686
 20
151.69
 11
-152.438
 21
151.699
  0
LINE
  8
0
 10
-152.438
 20
151.699
 11
-152.191
 21
151.672
  0
LINE
  8
0
 10
-152.191
 20
151.672
 11
-151.951
 21
151.609
  0
LINE
  8
0
 10
-151.951
 20
151.609
 11
-151.723
 21
151.512
  0
LINE
  8
0
 10
-151.723
 20
151.512
 11
-151.511
 21
151.383
  0
LINE
  8
0
 10
-151.511
 20
151.383
 11
-151.32
 21
151.224
  0
LINE
  8
0
 10
-151.32
 20
151.224
 11
-151.154
 21
151.039
  0
LINE
  8
0
 10
-151.154
 20
151.039
 11
-151.018
 21
150.832
  0
LINE
  8
0
 10
-151.018
 20
150.832
 11
-150.912
 21
150.607
  0
LINE
  8
0
 10
-150.912
 20
150.607
 11
-150.841
 21
150.37
  0
LINE
  8
0
 10
-150.841
 20
150.37
 11
-150.805
 21
150.124
  0
LINE
  8
0
 10
-150.805
 20
150.124
 11
-150.805
 21
149.876
  0
LINE
  8
0
 10
-150.805
 20
149.876
 11
-150.841
 21
149.63
  0
LINE
  8
0
 10
-150.841
 20
149.63
 11
-150.912
 21
149.393
  0
LINE
  8
0
 10
-150.912
 20
149.393
 11
-151.018
 21
149.168
  0
LINE
  8
0
 10
-151.018
 20
149.168
 11
-151.154
 21
148.961
  0
LINE
  8
0
 10
-151.154
 20
148.961
 11
-151.32
 21
148.776
  0
LINE
  8
0
 10
-151.32
 20
148.776
 11
-151.511
 21
148.617
  0
LINE
  8
0
 10
-151.511
 20
148.617
 11
-151.723
 21
148.488
  0
LINE
  8
0
 10
-151.723
 20
148.488
 11
-151.951
 21
148.391
  0
LINE
  8
0
 10
-151.951
 20
148.391
 11
-152.191
 21
148.328
  0
LINE
  8
0
 10
-152.191
 20
148.328
 11
-152.438
 21
148.301
  0
LINE
  8
0
 10
-152.438
 20
148.301
 11
-152.686
 21
148.31
  0
LINE
  8
0
 10
152.191
 20
148.328
 11
151.951
 21
148.391
  0
LINE
  8
0
 10
151.951
 20
148.391
 11
151.723
 21
148.488
  0
LINE
  8
0
 10
151.723
 20
148.488
 11
151.511
 21
148.617
  0
LINE
  8
0
 10
151.511
 20
148.617
 11
151.32
 21
148.776
  0
LINE
  8
0
 10
151.32
 20
148.776
 11
151.154
 21
148.961
  0
LINE
  8
0
 10
151.154
 20
148.961
 11
151.018
 21
149.168
  0
LINE
  8
0
 10
151.018
 20
149.168
 11
150.912
 21
149.393
  0
LINE
  8
0
 10
150.912
 20
149.393
 11
150.841
 21
149.63
  0
LINE
  8
0
 10
150.841
 20
149.63
 11
150.805
 21
149.876
  0
LINE
  8
0
 10
150.805
 20
149.876
 11
150.805
 21
150.124
  0
LINE
  8
0
 10
150.805
 20
150.124
 11
150.841
 21
150.37
  0
LINE
  8
0
 10
150.841
 20
150.37
 11
150.912
 21
150.607
  0
LINE
  8
0
 10
150.912
 20
150.607
 11
151.018
 21
150.832
  0
LINE
  8
0
 10
151.018
 20
150.832
 11
151.154
 21
151.039
  0
LINE
  8
0
 10
151.154
 20
151.039
 11
151.32
 21
151.224
  0
LINE
  8
0
 10
151.32
 20
151.224
 11
151.511
 21
151.383
  0
LINE
  8
0
 10
151.511
 20
151.383
 11
151.723
 21
151.512
  0
LINE
  8
0
 10
151.723
 20
151.512
 11
151.951
 21
151.609
  0
LINE
  8
0
 10
151.951
 20
151.609
 11
152.191
 21
151.672
  0
LINE
  8
0
 10
152.191
 20
151.672
 11
152.438
 21
151.699
  0
LINE
  8
0
 10
152.438
 20
151.699
 11
152.686
 21
151.69
  0
LINE
  8
0
 10
152.686
 20
151.69
 11
152.93
 21
151.645
  0
LINE
  8
0
 10
152.93
 20
151.645
 11
153.165
 21
151.565
  0
LINE
  8
0
 10
153.165
 20
151.565
 11
153.386
 21
151.451
  0
LINE
  8
0
 10
153.386
 20
151.451
 11
153.587
 21
151.307
  0
LINE
  8
0
 10
153.587
 20
151.307
 11
153.766
 21
151.134
  0
LINE
  8
0
 10
153.766
 20
151.134
 11
153.918
 21
150.938
  0
LINE
  8
0
 10
153.918
 20
150.938
 11
154.039
 21
150.722
  0
LINE
  8
0
 10
154.039
 20
150.722
 11
154.128
 21
150.49
  0
LINE
  8
0
 10
154.128
 20
150.49
 11
154.182
 21
150.248
  0
LINE
  8
0
 10
154.182
 20
150.248
 11
154.2
 21
150
  0
LINE
  8
0
 10
154.2
 20
150
 11
154.182
 21
149.752
  0
LINE
  8
0
 10
154.182
 20
149.752
 11
154.128
 21
149.51
  0
LINE
  8
0
 10
154.128
 20
149.51
 11
154.039
 21
149.278
  0
LINE
  8
0
 10
154.039
 20
149.278
 11
153.918
 21
149.062
  0
LINE
  8
0
 10
153.918
 20
149.062
 11
153.766
 21
148.866
  0
LINE
  8
0
 10
153.766
 20
148.866
 11
153.587
 21
148.693
  0
LINE
  8
0
 10
153.587
 20
148.693
 11
153.386
 21
148.549
  0
LINE
  8
0
 10
153.386
 20
148.549
 11
153.165
 21
148.435
  0
LINE
  8
0
 10
153.165
 20
148.435
 11
152.93
 21
148.355
  0
LINE
  8
0
 10
152.93
 20
148.355
 11
152.686
 21
148.31
  0
LINE
  8
0
 10
152.686
 20
148.31
 11
152.438
 21
148.301
  0
LINE
  8
0
 10
152.438
 20
148.301
 11
152.191
 21
148.328
  0
LINE
  8
0
 10
207.191
 20
148.328
 11
206.951
 21
148.391
  0
LINE
  8
0
 10
206.951
 20
148.391
 11
206.723
 21
148.488
  0
LINE
  8
0
 10
206.723
 20
148.488
 11
206.511
 21
148.617
  0
LINE
  8
0
 10
206.511
 20
148.617
 11
206.32
 21
148.776
  0
LINE
  8
0
 10
206.32
 20
148.776
 11
206.154
 21
148.961
  0
LINE
  8
0
 10
206.154
 20
148.961
 11
206.018
 21
149.168
  0
LINE
  8
0
 10
206.018
 20
149.168
 11
205.912
 21
149.393
  0
LINE
  8
0
 10
205.912
 20
149.393
 11
205.841
 21
149.63
  0
LINE
  8
0
 10
205.841
 20
149.63
 11
205.805
 21
149.876
  0
LINE
  8
0
 10
205.805
 20
149.876
 11
205.805
 21
150.124
  0
LINE
  8
0
 10
205.805
 20
150.124
 11
205.841
 21
150.37
  0
LINE
  8
0
 10
205.841
 20
150.37
 11
205.912
 21
150.607
  0
LINE
  8
0
 10
205.912
 20
150.607
 11
206.018
 21
150.832
  0
LINE
  8
0
 10
206.018
 20
150.832
 11
206.154
 21
151.039
  0
LINE
  8
0
 10
206.154
 20
151.039
 11
206.32
 21
151.224
  0
LINE
  8
0
 10
206.32
 20
151.224
 11
206.511
 21
151.383
  0
LINE
  8
0
 10
206.511
 20
151.383
 11
206.723
 21
151.512
  0
LINE
  8
0
 10
206.723
 20
151.512
 11
206.951
 21
151.609
  0
LINE
  8
0
 10
206.951
 20
151.609
 11
207.191
 21
151.672
  0
LINE
  8
0
 10
207.191
 20
151.672
 11
207.438
 21
151.699
  0
LINE
  8
0
 10
207.438
 20
151.699
 11
207.686
 21
151.69
  0
LINE
  8
0
 10
207.686
 20
151.69
 11
207.93
 21
151.645
  0
LINE
  8
0
 10
207.93
 20
151.645
 11
208.165
 21
151.565
  0
LINE
  8
0
 10
208.165
 20
151.565
 11
208.386
 21
151.451
  0
LINE
  8
0
 10
208.386
 20
151.451
 11
208.587
 21
151.307
  0
LINE
  8
0
 10
208.587
 20
151.307
 11
208.766
 21
151.134
  0
LINE
  8
0
 10
208.766
 20
151.134
 11
208.918
 21
150.938
  0
LINE
  8
0
 10
208.918
 20
150.938
 11
209.039
 21
150.722
  0
LINE
  8
0
 10
209.039
 20
150.722
 11
209.128
 21
150.49
  0
LINE
  8
0
 10
209.128
 20
150.49
 11
209.182
 21
150.248
  0
LINE
  8
0
 10
209.182
 20
150.248
 11
209.2
 21
150
  0
LINE
  8
0
 10
209.2
 20
150
 11
209.182
 21
149.752
  0
LINE
  8
0
 10
209.182
 20
149.752
 11
209.128
 21
149.51
  0
LINE
  8
0
 10
209.128
 20
149.51
 11
209.039
 21
149.278
  0
LINE
  8
0
 10
209.039
 20
149.278
 11
208.918
 21
149.062
  0
LINE
  8
0
 10
208.918
 20
149.062
 11
208.766
 21
148.866
  0
LINE
  8
0
 10
208.766
 20
148.866
 11
208.587
 21
148.693
  0
LINE
  8
0
 10
208.587
 20
148.693
 11
208.386
 21
148.549
  0
LINE
  8
0
 10
208.386
 20
148.549
 11
208.165
 21
148.435
  0
LINE
  8
0
 10
208.165
 20
148.435
 11
207.93
 21
148.355
  0
LINE
  8
0
 10
207.93
 20
148.355
 11
207.686
 21
148.31
  0
LINE
  8
0
 10
207.686
 20
148.31
 11
207.438
 21
148.301
  0
LINE
  8
0
 10
207.438
 20
148.301
 11
207.191
 21
148.328
  0
LINE
  8
0
 10
-164.623
 20
103.855
 11
-164.867
 21
103.891
  0
LINE
  8
0
 10
-164.867
 20
103.891
 11
-165.103
 21
103.964
  0
LINE
  8
0
 10
-165.103
 20
103.964
 11
-165.325
 21
104.071
  0
LINE
  8
0
 10
-165.325
 20
104.071
 11
-165.529
 21
104.21
  0
LINE
  8
0
 10
-165.529
 20
104.21
 11
-165.71
 21
104.378
  0
LINE
  8
0
 10
-165.71
 20
104.378
 11
-165.863
 21
104.571
  0
LINE
  8
0
 10
-165.863
 20
104.571
 11
-165.987
 21
104.784
  0
LINE
  8
0
 10
-165.987
 20
104.784
 11
-166.077
 21
105.014
  0
LINE
  8
0
 10
-166.077
 20
105.014
 11
-166.132
 21
105.254
  0
LINE
  8
0
 10
-166.132
 20
105.254
 11
-166.15
 21
105.5
  0
LINE
  8
0
 10
-166.15
 20
105.5
 11
-166.132
 21
105.746
  0
LINE
  8
0
 10
-166.132
 20
105.746
 11
-166.077
 21
105.986
  0
LINE
  8
0
 10
-166.077
 20
105.986
 11
-165.987
 21
106.216
  0
LINE
  8
0
 10
-165.987
 20
106.216
 11
-165.863
 21
106.429
  0
LINE
  8
0
 10
-165.863
 20
106.429
 11
-165.71
 21
106.622
  0
LINE
  8
0
 10
-165.71
 20
106.622
 11
-165.529
 21
106.79
  0
LINE
  8
0
 10
-165.529
 20
106.79
 11
-165.325
 21
106.929
  0
LINE
  8
0
 10
-165.325
 20
106.929
 11
-165.103
 21
107.036
  0
LINE
  8
0
 10
-165.103
 20
107.036
 11
-164.867
 21
107.109
  0
LINE
  8
0
 10
-164.867
 20
107.109
 11
-164.623
 21
107.145
  0
LINE
  8
0
 10
-164.623
 20
107.145
 11
-164.377
 21
107.145
  0
LINE
  8
0
 10
-164.377
 20
107.145
 11
-164.133
 21
107.109
  0
LINE
  8
0
 10
-164.133
 20
107.109
 11
-163.897
 21
107.036
  0
LINE
  8
0
 10
-163.897
 20
107.036
 11
-163.675
 21
106.929
  0
LINE
  8
0
 10
-163.675
 20
106.929
 11
-163.471
 21
106.79
  0
LINE
  8
0
 10
-163.471
 20
106.79
 11
-163.29
 21
106.622
  0
LINE
  8
0
 10
-163.29
 20
106.622
 11
-163.137
 21
106.429
  0
LINE
  8
0
 10
-163.137
 20
106.429
 11
-163.013
 21
106.216
  0
LINE
  8
0
 10
-163.013
 20
106.216
 11
-162.923
 21
105.986
  0
LINE
  8
0
 10
-162.923
 20
105.986
 11
-162.868
 21
105.746
  0
LINE
  8
0
 10
-162.868
 20
105.746
 11
-162.85
 21
105.5
  0
LINE
  8
0
 10
-162.85
 20
105.5
 11
-162.868
 21
105.254
  0
LINE
  8
0
 10
-162.868
 20
105.254
 11
-162.923
 21
105.014
  0
LINE
  8
0
 10
-162.923
 20
105.014
 11
-163.013
 21
104.784
  0
LINE
  8
0
 10
-163.013
 20
104.784
 11
-163.137
 21
104.571
  0
LINE
  8
0
 10
-163.137
 20
104.571
 11
-163.29
 21
104.378
  0
LINE
  8
0
 10
-163.29
 20
104.378
 11
-163.471
 21
104.21
  0
LINE
  8
0
 10
-163.471
 20
104.21
 11
-163.675
 21
104.071
  0
LINE
  8
0
 10
-163.675
 20
104.071
 11
-163.897
 21
103.964
  0
LINE
  8
0
 10
-163.897
 20
103.964
 11
-164.133
 21
103.891
  0
LINE
  8
0
 10
-164.133
 20
103.891
 11
-164.377
 21
103.855
  0
LINE
  8
0
 10
-164.377
 20
103.855
 11
-164.623
 21
103.855
  0
LINE
  8
0
 10
-195.623
 20
103.855
 11
-195.867
 21
103.891
  0
LINE
  8
0
 10
-195.867
 20
103.891
 11
-196.103
 21
103.964
  0
LINE
  8
0
 10
-196.103
 20
103.964
 11
-196.325
 21
104.071
  0
LINE
  8
0
 10
-196.325
 20
104.071
 11
-196.529
 21
104.21
  0
LINE
  8
0
 10
-196.529
 20
104.21
 11
-196.71
 21
104.378
  0
LINE
  8
0
 10
-196.71
 20
104.378
 11
-196.863
 21
104.571
  0
LINE
  8
0
 10
-196.863
 20
104.571
 11
-196.987
 21
104.784
  0
LINE
  8
0
 10
-196.987
 20
104.784
 11
-197.077
 21
105.014
  0
LINE
  8
0
 10
-197.077
 20
105.014
 11
-197.132
 21
105.254
  0
LINE
  8
0
 10
-197.132
 20
105.254
 11
-197.15
 21
105.5
  0
LINE
  8
0
 10
-197.15
 20
105.5
 11
-197.132
 21
105.746
  0
LINE
  8
0
 10
-197.132
 20
105.746
 11
-197.077
 21
105.986
  0
LINE
  8
0
 10
-197.077
 20
105.986
 11
-196.987
 21
106.216
  0
LINE
  8
0
 10
-196.987
 20
106.216
 11
-196.863
 21
106.429
  0
LINE
  8
0
 10
-196.863
 20
106.429
 11
-196.71
 21
106.622
  0
LINE
  8
0
 10
-196.71
 20
106.622
 11
-196.529
 21
106.79
  0
LINE
  8
0
 10
-196.529
 20
106.79
 11
-196.325
 21
106.929
  0
LINE
  8
0
 10
-196.325
 20
106.929
 11
-196.103
 21
107.036
  0
LINE
  8
0
 10
-196.103
 20
107.036
 11
-195.867
 21
107.109
  0
LINE
  8
0
 10
-195.867
 20
107.109
 11
-195.623
 21
107.145
  0
LINE
  8
0
 10
-195.623
 20
107.145
 11
-195.377
 21
107.145
  0
LINE
  8
0
 10
-195.377
 20
107.145
 11
-195.133
 21
107.109
  0
LINE
  8
0
 10
-195.133
 20
107.109
 11
-194.897
 21
107.036
  0
LINE
  8
0
 10
-194.897
 20
107.036
 11
-194.675
 21
106.929
  0
LINE
  8
0
 10
-194.675
 20
106.929
 11
-194.471
 21
106.79
  0
LINE
  8
0
 10
-194.471
 20
106.79
 11
-194.29
 21
106.622
  0
LINE
  8
0
 10
-194.29
 20
106.622
 11
-194.137
 21
106.429
  0
LINE
  8
0
 10
-194.137
 20
106.429
 11
-194.013
 21
106.216
  0
LINE
  8
0
 10
-194.013
 20
106.216
 11
-193.923
 21
105.986
  0
LINE
  8
0
 10
-193.923
 20
105.986
 11
-193.868
 21
105.746
  0
LINE
  8
0
 10
-193.868
 20
105.746
 11
-193.85
 21
105.5
  0
LINE
  8
0
 10
-193.85
 20
105.5
 11
-193.868
 21
105.254
  0
LINE
  8
0
 10
-193.868
 20
105.254
 11
-193.923
 21
105.014
  0
LINE
  8
0
 10
-193.923
 20
105.014
 11
-194.013
 21
104.784
  0
LINE
  8
0
 10
-194.013
 20
104.784
 11
-194.137
 21
104.571
  0
LINE
  8
0
 10
-194.137
 20
104.571
 11
-194.29
 21
104.378
  0
LINE
  8
0
 10
-194.29
 20
104.378
 11
-194.471
 21
104.21
  0
LINE
  8
0
 10
-194.471
 20
104.21
 11
-194.675
 21
104.071
  0
LINE
  8
0
 10
-194.675
 20
104.071
 11
-194.897
 21
103.964
  0
LINE
  8
0
 10
-194.897
 20
103.964
 11
-195.133
 21
103.891
  0
LINE
  8
0
 10
-195.133
 20
103.891
 11
-195.377
 21
103.855
  0
LINE
  8
0
 10
-195.377
 20
103.855
 11
-195.623
 21
103.855
  0
LINE
  8
0
 10
-181.202
 20
78.563
 11
-182.391
 21
78.7513
  0
LINE
  8
0
 10
-182.391
 20
78.7513
 11
-183.554
 21
79.0629
  0
LINE
  8
0
 10
-183.554
 20
79.0629
 11
-184.677
 21
79.4942
  0
LINE
  8
0
 10
-184.677
 20
79.4942
 11
-185.75
 21
80.0407
  0
LINE
  8
0
 10
-185.75
 20
80.0407
 11
-186.76
 21
80.6963
  0
LINE
  8
0
 10
-186.76
 20
80.6963
 11
-187.695
 21
81.4538
  0
LINE
  8
0
 10
-187.695
 20
81.4538
 11
-188.546
 21
82.305
  0
LINE
  8
0
 10
-188.546
 20
82.305
 11
-189.304
 21
83.2405
  0
LINE
  8
0
 10
-189.304
 20
83.2405
 11
-189.959
 21
84.25
  0
LINE
  8
0
 10
-189.959
 20
84.25
 11
-190.506
 21
85.3225
  0
LINE
  8
0
 10
-190.506
 20
85.3225
 11
-190.937
 21
86.4463
  0
LINE
  8
0
 10
-190.937
 20
86.4463
 11
-191.249
 21
87.609
  0
LINE
  8
0
 10
-191.249
 20
87.609
 11
-191.437
 21
88.7979
  0
LINE
  8
0
 10
-191.437
 20
88.7979
 11
-191.5
 21
90
  0
LINE
  8
0
 10
-191.5
 20
90
 11
-191.437
 21
91.2021
  0
LINE
  8
0
 10
-191.437
 20
91.2021
 11
-191.249
 21
92.391
  0
LINE
  8
0
 10
-191.249
 20
92.391
 11
-190.937
 21
93.5537
  0
LINE
  8
0
 10
-190.937
 20
93.5537
 11
-190.506
 21
94.6775
  0
LINE
  8
0
 10
-190.506
 20
94.6775
 11
-189.959
 21
95.75
  0
LINE
  8
0
 10
-189.959
 20
95.75
 11
-189.304
 21
96.7595
  0
LINE
  8
0
 10
-189.304
 20
96.7595
 11
-188.546
 21
97.695
  0
LINE
  8
0
 10
-188.546
 20
97.695
 11
-187.695
 21
98.5462
  0
LINE
  8
0
 10
-187.695
 20
98.5462
 11
-186.76
 21
99.3037
  0
LINE
  8
0
 10
-186.76
 20
99.3037
 11
-185.75
 21
99.9593
  0
LINE
  8
0
 10
-185.75
 20
99.9593
 11
-184.677
 21
100.506
  0
LINE
  8
0
 10
-184.677
 20
100.506
 11
-183.554
 21
100.937
  0
LINE
  8
0
 10
-183.554
 20
100.937
 11
-182.391
 21
101.249
  0
LINE
  8
0
 10
-182.391
 20
101.249
 11
-181.202
 21
101.437
  0
LINE
  8
0
 10
-181.202
 20
101.437
 11
-180
 21
101.5
  0
LINE
  8
0
 10
-180
 20
101.5
 11
-178.798
 21
101.437
  0
LINE
  8
0
 10
-178.798
 20
101.437
 11
-177.609
 21
101.249
  0
LINE
  8
0
 10
-177.609
 20
101.249
 11
-176.446
 21
100.937
  0
LINE
  8
0
 10
-176.446
 20
100.937
 11
-175.323
 21
100.506
  0
LINE
  8
0
 10
-175.323
 20
100.506
 11
-174.25
 21
99.9593
  0
LINE
  8
0
 10
-174.25
 20
99.9593
 11
-173.24
 21
99.3037
  0
LINE
  8
0
 10
-173.24
 20
99.3037
 11
-172.305
 21
98.5462
  0
LINE
  8
0
 10
-172.305
 20
98.5462
 11
-171.454
 21
97.695
  0
LINE
  8
0
 10
-171.454
 20
97.695
 11
-170.696
 21
96.7595
  0
LINE
  8
0
 10
-170.696
 20
96.7595
 11
-170.041
 21
95.75
  0
LINE
  8
0
 10
-170.041
 20
95.75
 11
-169.494
 21
94.6775
  0
LINE
  8
0
 10
-169.494
 20
94.6775
 11
-169.063
 21
93.5537
  0
LINE
  8
0
 10
-169.063
 20
93.5537
 11
-168.751
 21
92.391
  0
LINE
  8
0
 10
-168.751
 20
92.391
 11
-168.563
 21
91.2021
  0
LINE
  8
0
 10
-168.563
 20
91.2021
 11
-168.5
 21
90
  0
LINE
  8
0
 10
-168.5
 20
90
 11
-168.563
 21
88.7979
  0
LINE
  8
0
 10
-168.563
 20
88.7979
 11
-168.751
 21
87.609
  0
LINE
  8
0
 10
-168.751
 20
87.609
 11
-169.063
 21
86.4463
  0
LINE
  8
0
 10
-169.063
 20
86.4463
 11
-169.494
 21
85.3225
  0
LINE
  8
0
 10
-169.494
 20
85.3225
 11
-170.041
 21
84.25
  0
LINE
  8
0
 10
-170.041
 20
84.25
 11
-170.696
 21
83.2405
  0
LINE
  8
0
 10
-170.696
 20
83.2405
 11
-171.454
 21
82.305
  0
LINE
  8
0
 10
-171.454
 20
82.305
 11
-172.305
 21
81.4538
  0
LINE
  8
0
 10
-172.305
 20
81.4538
 11
-173.24
 21
80.6963
  0
LINE
  8
0
 10
-173.24
 20
80.6963
 11
-174.25
 21
80.0407
  0
LINE
  8
0
 10
-174.25
 20
80.0407
 11
-175.323
 21
79.4942
  0
LINE
  8
0
 10
-175.323
 20
79.4942
 11
-176.446
 21
79.0629
  0
LINE
  8
0
 10
-176.446
 20
79.0629
 11
-177.609
 21
78.7513
  0
LINE
  8
0
 10
-177.609
 20
78.7513
 11
-178.798
 21
78.563
  0
LINE
  8
0
 10
-178.798
 20
78.563
 11
-180
 21
78.5
  0
LINE
  8
0
 10
-180
 20
78.5
 11
-181.202
 21
78.563
  0
LINE
  8
0
 10
-164.623
 20
72.8546
 11
-164.867
 21
72.8914
  0
LINE
  8
0
 10
-164.867
 20
72.8914
 11
-165.103
 21
72.9641
  0
LINE
  8
0
 10
-165.103
 20
72.9641
 11
-165.325
 21
73.0711
  0
LINE
  8
0
 10
-165.325
 20
73.0711
 11
-165.529
 21
73.21
  0
LINE
  8
0
 10
-165.529
 20
73.21
 11
-165.71
 21
73.3777
  0
LINE
  8
0
 10
-165.71
 20
73.3777
 11
-165.863
 21
73.5705
  0
LINE
  8
0
 10
-165.863
 20
73.5705
 11
-165.987
 21
73.7841
  0
LINE
  8
0
 10
-165.987
 20
73.7841
 11
-166.077
 21
74.0137
  0
LINE
  8
0
 10
-166.077
 20
74.0137
 11
-166.132
 21
74.2541
  0
LINE
  8
0
 10
-166.132
 20
74.2541
 11
-166.15
 21
74.5
  0
LINE
  8
0
 10
-166.15
 20
74.5
 11
-166.132
 21
74.7459
  0
LINE
  8
0
 10
-166.132
 20
74.7459
 11
-166.077
 21
74.9863
  0
LINE
  8
0
 10
-166.077
 20
74.9863
 11
-165.987
 21
75.2159
  0
LINE
  8
0
 10
-165.987
 20
75.2159
 11
-165.863
 21
75.4295
  0
LINE
  8
0
 10
-165.863
 20
75.4295
 11
-165.71
 21
75.6223
  0
LINE
  8
0
 10
-165.71
 20
75.6223
 11
-165.529
 21
75.79
  0
LINE
  8
0
 10
-165.529
 20
75.79
 11
-165.325
 21
75.9289
  0
LINE
  8
0
 10
-165.325
 20
75.9289
 11
-165.103
 21
76.0359
  0
LINE
  8
0
 10
-165.103
 20
76.0359
 11
-164.867
 21
76.1086
  0
LINE
  8
0
 10
-164.867
 20
76.1086
 11
-164.623
 21
76.1454
  0
LINE
  8
0
 10
-164.623
 20
76.1454
 11
-164.377
 21
76.1454
  0
LINE
  8
0
 10
-164.377
 20
76.1454
 11
-164.133
 21
76.1086
  0
LINE
  8
0
 10
-164.133
 20
76.1086
 11
-163.897
 21
76.0359
  0
LINE
  8
0
 10
-163.897
 20
76.0359
 11
-163.675
 21
75.9289
  0
LINE
  8
0
 10
-163.675
 20
75.9289
 11
-163.471
 21
75.79
  0
LINE
  8
0
 10
-163.471
 20
75.79
 11
-163.29
 21
75.6223
  0
LINE
  8
0
 10
-163.29
 20
75.6223
 11
-163.137
 21
75.4295
  0
LINE
  8
0
 10
-163.137
 20
75.4295
 11
-163.013
 21
75.2159
  0
LINE
  8
0
 10
-163.013
 20
75.2159
 11
-162.923
 21
74.9863
  0
LINE
  8
0
 10
-162.923
 20
74.9863
 11
-162.868
 21
74.7459
  0
LINE
  8
0
 10
-162.868
 20
74.7459
 11
-162.85
 21
74.5
  0
LINE
  8
0
 10
-162.85
 20
74.5
 11
-162.868
 21
74.2541
  0
LINE
  8
0
 10
-162.868
 20
74.2541
 11
-162.923
 21
74.0137
  0
LINE
  8
0
 10
-162.923
 20
74.0137
 11
-163.013
 21
73.7841
  0
LINE
  8
0
 10
-163.013
 20
73.7841
 11
-163.137
 21
73.5705
  0
LINE
  8
0
 10
-163.137
 20
73.5705
 11
-163.29
 21
73.3777
  0
LINE
  8
0
 10
-163.29
 20
73.3777
 11
-163.471
 21
73.21
  0
LINE
  8
0
 10
-163.471
 20
73.21
 11
-163.675
 21
73.0711
  0
LINE
  8
0
 10
-163.675
 20
73.0711
 11
-163.897
 21
72.9641
  0
LINE
  8
0
 10
-163.897
 20
72.9641
 11
-164.133
 21
72.8914
  0
LINE
  8
0
 10
-164.133
 20
72.8914
 11
-164.377
 21
72.8546
  0
LINE
  8
0
 10
-164.377
 20
72.8546
 11
-164.623
 21
72.8546
  0
LINE
  8
0
 10
-195.623
 20
72.8546
 11
-195.867
 21
72.8914
  0
LINE
  8
0
 10
-195.867
 20
72.8914
 11
-196.103
 21
72.9641
  0
LINE
  8
0
 10
-196.103
 20
72.9641
 11
-196.325
 21
73.0711
  0
LINE
  8
0
 10
-196.325
 20
73.0711
 11
-196.529
 21
73.21
  0
LINE
  8
0
 10
-196.529
 20
73.21
 11
-196.71
 21
73.3777
  0
LINE
  8
0
 10
-196.71
 20
73.3777
 11
-196.863
 21
73.5705
  0
LINE
  8
0
 10
-196.863
 20
73.5705
 11
-196.987
 21
73.7841
  0
LINE
  8
0
 10
-196.987
 20
73.7841
 11
-197.077
 21
74.0137
  0
LINE
  8
0
 10
-197.077
 20
74.0137
 11
-197.132
 21
74.2541
  0
LINE
  8
0
 10
-197.132
 20
74.2541
 11
-197.15
 21
74.5
  0
LINE
  8
0
 10
-197.15
 20
74.5
 11
-197.132
 21
74.7459
  0
LINE
  8
0
 10
-197.132
 20
74.7459
 11
-197.077
 21
74.9863
  0
LINE
  8
0
 10
-197.077
 20
74.9863
 11
-196.987
 21
75.2159
  0
LINE
  8
0
 10
-196.987
 20
75.2159
 11
-196.863
 21
75.4295
  0
LINE
  8
0
 10
-196.863
 20
75.4295
 11
-196.71
 21
75.6223
  0
LINE
  8
0
 10
-196.71
 20
75.6223
 11
-196.529
 21
75.79
  0
LINE
  8
0
 10
-196.529
 20
75.79
 11
-196.325
 21
75.9289
  0
LINE
  8
0
 10
-196.325
 20
75.9289
 11
-196.103
 21
76.0359
  0
LINE
  8
0
 10
-196.103
 20
76.0359
 11
-195.867
 21
76.1086
  0
LINE
  8
0
 10
-195.867
 20
76.1086
 11
-195.623
 21
76.1454
  0
LINE
  8
0
 10
-195.623
 20
76.1454
 11
-195.377
 21
76.1454
  0
LINE
  8
0
 10
-195.377
 20
76.1454
 11
-195.133
 21
76.1086
  0
LINE
  8
0
 10
-195.133
 20
76.1086
 11
-194.897
 21
76.0359
  0
LINE
  8
0
 10
-194.897
 20
76.0359
 11
-194.675
 21
75.9289
  0
LINE
  8
0
 10
-194.675
 20
75.9289
 11
-194.471
 21
75.79
  0
LINE
  8
0
 10
-194.471
 20
75.79
 11
-194.29
 21
75.6223
  0
LINE
  8
0
 10
-194.29
 20
75.6223
 11
-194.137
 21
75.4295
  0
LINE
  8
0
 10
-194.137
 20
75.4295
 11
-194.013
 21
75.2159
  0
LINE
  8
0
 10
-194.013
 20
75.2159
 11
-193.923
 21
74.9863
  0
LINE
  8
0
 10
-193.923
 20
74.9863
 11
-193.868
 21
74.7459
  0
LINE
  8
0
 10
-193.868
 20
74.7459
 11
-193.85
 21
74.5
  0
LINE
  8
0
 10
-193.85
 20
74.5
 11
-193.868
 21
74.2541
  0
LINE
  8
0
 10
-193.868
 20
74.2541
 11
-193.923
 21
74.0137
  0
LINE
  8
0
 10
-193.923
 20
74.0137
 11
-194.013
 21
73.7841
  0
LINE
  8
0
 10
-194.013
 20
73.7841
 11
-194.137
 21
73.5705
  0
LINE
  8
0
 10
-194.137
 20
73.5705
 11
-194.29
 21
73.3777
  0
LINE
  8
0
 10
-194.29
 20
73.3777
 11
-194.471
 21
73.21
  0
LINE
  8
0
 10
-194.471
 20
73.21
 11
-194.675
 21
73.0711
  0
LINE
  8
0
 10
-194.675
 20
73.0711
 11
-194.897
 21
72.9641
  0
LINE
  8
0
 10
-194.897
 20
72.9641
 11
-195.133
 21
72.8914
  0
LINE
  8
0
 10
-195.133
 20
72.8914
 11
-195.377
 21
72.8546
  0
LINE
  8
0
 10
-195.377
 20
72.8546
 11
-195.623
 21
72.8546
  0
LINE
  8
0
 10
207.191
 20
48.3283
 11
206.951
 21
48.3911
  0
LINE
  8
0
 10
206.951
 20
48.3911
 11
206.723
 21
48.4881
  0
LINE
  8
0
 10
206.723
 20
48.4881
 11
206.511
 21
48.6174
  0
LINE
  8
0
 10
206.511
 20
48.6174
 11
206.32
 21
48.7762
  0
LINE
  8
0
 10
206.32
 20
48.7762
 11
206.154
 21
48.961
  0
LINE
  8
0
 10
206.154
 20
48.961
 11
206.018
 21
49.168
  0
LINE
  8
0
 10
206.018
 20
49.168
 11
205.912
 21
49.3927
  0
LINE
  8
0
 10
205.912
 20
49.3927
 11
205.841
 21
49.6304
  0
LINE
  8
0
 10
205.841
 20
49.6304
 11
205.805
 21
49.8759
  0
LINE
  8
0
 10
205.805
 20
49.8759
 11
205.805
 21
50.1241
  0
LINE
  8
0
 10
205.805
 20
50.1241
 11
205.841
 21
50.3696
  0
LINE
  8
0
 10
205.841
 20
50.3696
 11
205.912
 21
50.6073
  0
LINE
  8
0
 10
205.912
 20
50.6073
 11
206.018
 21
50.832
  0
LINE
  8
0
 10
206.018
 20
50.832
 11
206.154
 21
51.039
  0
LINE
  8
0
 10
206.154
 20
51.039
 11
206.32
 21
51.2238
  0
LINE
  8
0
 10
206.32
 20
51.2238
 11
206.511
 21
51.3826
  0
LINE
  8
0
 10
206.511
 20
51.3826
 11
206.723
 21
51.5119
  0
LINE
  8
0
 10
206.723
 20
51.5119
 11
206.951
 21
51.6089
  0
LINE
  8
0
 10
206.951
 20
51.6089
 11
207.191
 21
51.6717
  0
LINE
  8
0
 10
207.191
 20
51.6717
 11
207.438
 21
51.6989
  0
LINE
  8
0
 10
207.438
 20
51.6989
 11
207.686
 21
51.6898
  0
LINE
  8
0
 10
207.686
 20
51.6898
 11
207.93
 21
51.6447
  0
LINE
  8
0
 10
207.93
 20
51.6447
 11
208.165
 21
51.5646
  0
LINE
  8
0
 10
208.165
 20
51.5646
 11
208.386
 21
51.4511
  0
LINE
  8
0
 10
208.386
 20
51.4511
 11
208.587
 21
51.3067
  0
LINE
  8
0
 10
208.587
 20
51.3067
 11
208.766
 21
51.1344
  0
LINE
  8
0
 10
208.766
 20
51.1344
 11
208.918
 21
50.938
  0
LINE
  8
0
 10
208.918
 20
50.938
 11
209.039
 21
50.7216
  0
LINE
  8
0
 10
209.039
 20
50.7216
 11
209.128
 21
50.4898
  0
LINE
  8
0
 10
209.128
 20
50.4898
 11
209.182
 21
50.2475
  0
LINE
  8
0
 10
209.182
 20
50.2475
 11
209.2
 21
50
  0
LINE
  8
0
 10
209.2
 20
50
 11
209.182
 21
49.7525
  0
LINE
  8
0
 10
209.182
 20
49.7525
 11
209.128
 21
49.5102
  0
LINE
  8
0
 10
209.128
 20
49.5102
 11
209.039
 21
49.2784
  0
LINE
  8
0
 10
209.039
 20
49.2784
 11
208.918
 21
49.062
  0
LINE
  8
0
 10
208.918
 20
49.062
 11
208.766
 21
48.8656
  0
LINE
  8
0
 10
208.766
 20
48.8656
 11
208.587
 21
48.6933
  0
LINE
  8
0
 10
208.587
 20
48.6933
 11
208.386
 21
48.5489
  0
LINE
  8
0
 10
208.386
 20
48.5489
 11
208.165
 21
48.4354
  0
LINE
  8
0
 10
208.165
 20
48.4354
 11
207.93
 21
48.3553
  0
LINE
  8
0
 10
207.93
 20
48.3553
 11
207.686
 21
48.3102
  0
LINE
  8
0
 10
207.686
 20
48.3102
 11
207.438
 21
48.3011
  0
LINE
  8
0
 10
207.438
 20
48.3011
 11
207.191
 21
48.3283
  0
LINE
  8
0
 10
-152.686
 20
48.3102
 11
-152.93
 21
48.3553
  0
LINE
  8
0
 10
-152.93
 20
48.3553
 11
-153.165
 21
48.4354
  0
LINE
  8
0
 10
-153.165
 20
48.4354
 11
-153.386
 21
48.5489
  0
LINE
  8
0
 10
-153.386
 20
48.5489
 11
-153.587
 21
48.6933
  0
LINE
  8
0
 10
-153.587
 20
48.6933
 11
-153.766
 21
48.8656
  0
LINE
  8
0
 10
-153.766
 20
48.8656
 11
-153.918
 21
49.062
  0
LINE
  8
0
 10
-153.918
 20
49.062
 11
-154.039
 21
49.2784
  0
LINE
  8
0
 10
-154.039
 20
49.2784
 11
-154.128
 21
49.5102
  0
LINE
  8
0
 10
-154.128
 20
49.5102
 11
-154.182
 21
49.7525
  0
LINE
  8
0
 10
-154.182
 20
49.7525
 11
-154.2
 21
50
  0
LINE
  8
0
 10
-154.2
 20
50
 11
-154.182
 21
50.2475
  0
LINE
  8
0
 10
-154.182
 20
50.2475
 11
-154.128
 21
50.4898
  0
LINE
  8
0
 10
-154.128
 20
50.4898
 11
-154.039
 21
50.7216
  0
LINE
  8
0
 10
-154.039
 20
50.7216
 11
-153.918
 21
50.938
  0
LINE
  8
0
 10
-153.918
 20
50.938
 11
-153.766
 21
51.1344
  0
LINE
  8
0
 10
-153.766
 20
51.1344
 11
-153.587
 21
51.3067
  0
LINE
  8
0
 10
-153.587
 20
51.3067
 11
-153.386
 21
51.4511
  0
LINE
  8
0
 10
-153.386
 20
51.4511
 11
-153.165
 21
51.5646
  0
LINE
  8
0
 10
-153.165
 20
51.5646
 11
-152.93
 21
51.6447
  0
LINE
  8
0
 10
-152.93
 20
51.6447
 11
-152.686
 21
51.6898
  0
LINE
  8
0
 10
-152.686
 20
51.6898
 11
-152.438
 21
51.6989
  0
LINE
  8
0
 10
-152.438
 20
51.6989
 11
-152.191
 21
51.6717
  0
LINE
  8
0
 10
-152.191
 20
51.6717
 11
-151.951
 21
51.6089
  0
LINE
  8
0
 10
-151.951
 20
51.6089
 11
-151.723
 21
51.5119
  0
LINE
  8
0
 10
-151.723
 20
51.5119
 11
-151.511
 21
51.3826
  0
LINE
  8
0
 10
-151.511
 20
51.3826
 11
-151.32
 21
51.2238
  0
LINE
  8
0
 10
-151.32
 20
51.2238
 11
-151.154
 21
51.039
  0
LINE
  8
0
 10
-151.154
 20
51.039
 11
-151.018
 21
50.832
  0
LINE
  8
0
 10
-151.018
 20
50.832
 11
-150.912
 21
50.6073
  0
LINE
  8
0
 10
-150.912
 20
50.6073
 11
-150.841
 21
50.3696
  0
LINE
  8
0
 10
-150.841
 20
50.3696
 11
-150.805
 21
50.1241
  0
LINE
  8
0
 10
-150.805
 20
50.1241
 11
-150.805
 21
49.8759
  0
LINE
  8
0
 10
-150.805
 20
49.8759
 11
-150.841
 21
49.6304
  0
LINE
  8
0
 10
-150.841
 20
49.6304
 11
-150.912
 21
49.3927
  0
LINE
  8
0
 10
-150.912
 20
49.3927
 11
-151.018
 21
49.168
  0
LINE
  8
0
 10
-151.018
 20
49.168
 11
-151.154
 21
48.961
  0
LINE
  8
0
 10
-151.154
 20
48.961
 11
-151.32
 21
48.7762
  0
LINE
  8
0
 10
-151.32
 20
48.7762
 11
-151.511
 21
48.6174
  0
LINE
  8
0
 10
-151.511
 20
48.6174
 11
-151.723
 21
48.4881
  0
LINE
  8
0
 10
-151.723
 20
48.4881
 11
-151.951
 21
48.3911
  0
LINE
  8
0
 10
-151.951
 20
48.3911
 11
-152.191
 21
48.3283
  0
LINE
  8
0
 10
-152.191
 20
48.3283
 11
-152.438
 21
48.3011
  0
LINE
  8
0
 10
-152.438
 20
48.3011
 11
-152.686
 21
48.3102
  0
LINE
  8
0
 10
-207.686
 20
48.3102
 11
-207.93
 21
48.3553
  0
LINE
  8
0
 10
-207.93
 20
48.3553
 11
-208.165
 21
48.4354
  0
LINE
  8
0
 10
-208.165
 20
48.4354
 11
-208.386
 21
48.5489
  0
LINE
  8
0
 10
-208.386
 20
48.5489
 11
-208.587
 21
48.6933
  0
LINE
  8
0
 10
-208.587
 20
48.6933
 11
-208.766
 21
48.8656
  0
LINE
  8
0
 10
-208.766
 20
48.8656
 11
-208.918
 21
49.062
  0
LINE
  8
0
 10
-208.918
 20
49.062
 11
-209.039
 21
49.2784
  0
LINE
  8
0
 10
-209.039
 20
49.2784
 11
-209.128
 21
49.5102
  0
LINE
  8
0
 10
-209.128
 20
49.5102
 11
-209.182
 21
49.7525
  0
LINE
  8
0
 10
-209.182
 20
49.7525
 11
-209.2
 21
50
  0
LINE
  8
0
 10
-209.2
 20
50
 11
-209.182
 21
50.2475
  0
LINE
  8
0
 10
-209.182
 20
50.2475
 11
-209.128
 21
50.4898
  0
LINE
  8
0
 10
-209.128
 20
50.4898
 11
-209.039
 21
50.7216
  0
LINE
  8
0
 10
-209.039
 20
50.7216
 11
-208.918
 21
50.938
  0
LINE
  8
0
 10
-208.918
 20
50.938
 11
-208.766
 21
51.1344
  0
LINE
  8
0
 10
-208.766
 20
51.1344
 11
-208.587
 21
51.3067
  0
LINE
  8
0
 10
-208.587
 20
51.3067
 11
-208.386
 21
51.4511
  0
LINE
  8
0
 10
-208.386
 20
51.4511
 11
-208.165
 21
51.5646
  0
LINE
  8
0
 10
-208.165
 20
51.5646
 11
-207.93
 21
51.6447
  0
LINE
  8
0
 10
-207.93
 20
51.6447
 11
-207.686
 21
51.6898
  0
LINE
  8
0
 10
-207.686
 20
51.6898
 11
-207.438
 21
51.6989
  0
LINE
  8
0
 10
-207.438
 20
51.6989
 11
-207.191
 21
51.6717
  0
LINE
  8
0
 10
-207.191
 20
51.6717
 11
-206.951
 21
51.6089
  0
LINE
  8
0
 10
-206.951
 20
51.6089
 11
-206.723
 21
51.5119
  0
LINE
  8
0
 10
-206.723
 20
51.5119
 11
-206.511
 21
51.3826
  0
LINE
  8
0
 10
-206.511
 20
51.3826
 11
-206.32
 21
51.2238
  0
LINE
  8
0
 10
-206.32
 20
51.2238
 11
-206.154
 21
51.039
  0
LINE
  8
0
 10
-206.154
 20
51.039
 11
-206.018
 21
50.832
  0
LINE
  8
0
 10
-206.018
 20
50.832
 11
-205.912
 21
50.6073
  0
LINE
  8
0
 10
-205.912
 20
50.6073
 11
-205.841
 21
50.3696
  0
LINE
  8
0
 10
-205.841
 20
50.3696
 11
-205.805
 21
50.1241
  0
LINE
  8
0
 10
-205.805
 20
50.1241
 11
-205.805
 21
49.8759
  0
LINE
  8
0
 10
-205.805
 20
49.8759
 11
-205.841
 21
49.6304
  0
LINE
  8
0
 10
-205.841
 20
49.6304
 11
-205.912
 21
49.3927
  0
LINE
  8
0
 10
-205.912
 20
49.3927
 11
-206.018
 21
49.168
  0
LINE
  8
0
 10
-206.018
 20
49.168
 11
-206.154
 21
48.961
  0
LINE
  8
0
 10
-206.154
 20
48.961
 11
-206.32
 21
48.7762
  0
LINE
  8
0
 10
-206.32
 20
48.7762
 11
-206.511
 21
48.6174
  0
LINE
  8
0
 10
-206.511
 20
48.6174
 11
-206.723
 21
48.4881
  0
LINE
  8
0
 10
-206.723
 20
48.4881
 11
-206.951
 21
48.3911
  0
LINE
  8
0
 10
-206.951
 20
48.3911
 11
-207.191
 21
48.3283
  0
LINE
  8
0
 10
-207.191
 20
48.3283
 11
-207.438
 21
48.3011
  0
LINE
  8
0
 10
-207.438
 20
48.3011
 11
-207.686
 21
48.3102
  0
LINE
  8
0
 10
152.191
 20
48.3283
 11
151.951
 21
48.3911
  0
LINE
  8
0
 10
151.951
 20
48.3911
 11
151.723
 21
48.4881
  0
LINE
  8
0
 10
151.723
 20
48.4881
 11
151.511
 21
48.6174
  0
LINE
  8
0
 10
151.511
 20
48.6174
 11
151.32
 21
48.7762
  0
LINE
  8
0
 10
151.32
 20
48.7762
 11
151.154
 21
48.961
  0
LINE
  8
0
 10
151.154
 20
48.961
 11
151.018
 21
49.168
  0
LINE
  8
0
 10
151.018
 20
49.168
 11
150.912
 21
49.3927
  0
LINE
  8
0
 10
150.912
 20
49.3927
 11
150.841
 21
49.6304
  0
LINE
  8
0
 10
150.841
 20
49.6304
 11
150.805
 21
49.8759
  0
LINE
  8
0
 10
150.805
 20
49.8759
 11
150.805
 21
50.1241
  0
LINE
  8
0
 10
150.805
 20
50.1241
 11
150.841
 21
50.3696
  0
LINE
  8
0
 10
150.841
 20
50.3696
 11
150.912
 21
50.6073
  0
LINE
  8
0
 10
150.912
 20
50.6073
 11
151.018
 21
50.832
  0
LINE
  8
0
 10
151.018
 20
50.832
 11
151.154
 21
51.039
  0
LINE
  8
0
 10
151.154
 20
51.039
 11
151.32
 21
51.2238
  0
LINE
  8
0
 10
151.32
 20
51.2238
 11
151.511
 21
51.3826
  0
LINE
  8
0
 10
151.511
 20
51.3826
 11
151.723
 21
51.5119
  0
LINE
  8
0
 10
151.723
 20
51.5119
 11
151.951
 21
51.6089
  0
LINE
  8
0
 10
151.951
 20
51.6089
 11
152.191
 21
51.6717
  0
LINE
  8
0
 10
152.191
 20
51.6717
 11
152.438
 21
51.6989
  0
LINE
  8
0
 10
152.438
 20
51.6989
 11
152.686
 21
51.6898
  0
LINE
  8
0
 10
152.686
 20
51.6898
 11
152.93
 21
51.6447
  0
LINE
  8
0
 10
152.93
 20
51.6447
 11
153.165
 21
51.5646
  0
LINE
  8
0
 10
153.165
 20
51.5646
 11
153.386
 21
51.4511
  0
LINE
  8
0
 10
153.386
 20
51.4511
 11
153.587
 21
51.3067
  0
LINE
  8
0
 10
153.587
 20
51.3067
 11
153.766
 21
51.1344
  0
LINE
  8
0
 10
153.766
 20
51.1344
 11
153.918
 21
50.938
  0
LINE
  8
0
 10
153.918
 20
50.938
 11
154.039
 21
50.7216
  0
LINE
  8
0
 10
154.039
 20
50.7216
 11
154.128
 21
50.4898
  0
LINE
  8
0
 10
154.128
 20
50.4898
 11
154.182
 21
50.2475
  0
LINE
  8
0
 10
154.182
 20
50.2475
 11
154.2
 21
50
  0
LINE
  8
0
 10
154.2
 20
50
 11
154.182
 21
49.7525
  0
LINE
  8
0
 10
154.182
 20
49.7525
 11
154.128
 21
49.5102
  0
LINE
  8
0
 10
154.128
 20
49.5102
 11
154.039
 21
49.2784
  0
LINE
  8
0
 10
154.039
 20
49.2784
 11
153.918
 21
49.062
  0
LINE
  8
0
 10
153.918
 20
49.062
 11
153.766
 21
48.8656
  0
LINE
  8
0
 10
153.766
 20
48.8656
 11
153.587
 21
48.6933
  0
LINE
  8
0
 10
153.587
 20
48.6933
 11
153.386
 21
48.5489
  0
LINE
  8
0
 10
153.386
 20
48.5489
 11
153.165
 21
48.4354
  0
LINE
  8
0
 10
153.165
 20
48.4354
 11
152.93
 21
48.3553
  0
LINE
  8
0
 10
152.93
 20
48.3553
 11
152.686
 21
48.3102
  0
LINE
  8
0
 10
152.686
 20
48.3102
 11
152.438
 21
48.3011
  0
LINE
  8
0
 10
152.438
 20
48.3011
 11
152.191
 21
48.3283
  0
LINE
  8
0
 10
195.377
 20
1.3546
 11
195.133
 21
1.39136
  0
LINE
  8
0
 10
195.133
 20
1.39136
 11
194.897
 21
1.46405
  0
LINE
  8
0
 10
194.897
 20
1.46405
 11
194.675
 21
1.57104
  0
LINE
  8
0
 10
194.675
 20
1.57104
 11
194.471
 21
1.70998
  0
LINE
  8
0
 10
194.471
 20
1.70998
 11
194.29
 21
1.8777
  0
LINE
  8
0
 10
194.29
 20
1.8777
 11
194.137
 21
2.07051
  0
LINE
  8
0
 10
194.137
 20
2.07051
 11
194.013
 21
2.28409
  0
LINE
  8
0
 10
194.013
 20
2.28409
 11
193.923
 21
2.51364
  0
LINE
  8
0
 10
193.923
 20
2.51364
 11
193.868
 21
2.75407
  0
LINE
  8
0
 10
193.868
 20
2.75407
 11
193.85
 21
3
  0
LINE
  8
0
 10
193.85
 20
3
 11
193.868
 21
3.24591
  0
LINE
  8
0
 10
193.868
 20
3.24591
 11
193.923
 21
3.48634
  0
LINE
  8
0
 10
193.923
 20
3.48634
 11
194.013
 21
3.7159
  0
LINE
  8
0
 10
194.013
 20
3.7159
 11
194.137
 21
3.92947
  0
LINE
  8
0
 10
194.137
 20
3.92947
 11
194.29
 21
4.12228
  0
LINE
  8
0
 10
194.29
 20
4.12228
 11
194.471
 21
4.29001
  0
LINE
  8
0
 10
194.471
 20
4.29001
 11
194.675
 21
4.42894
  0
LINE
  8
0
 10
194.675
 20
4.42894
 11
194.897
 21
4.53593
  0
LINE
  8
0
 10
194.897
 20
4.53593
 11
195.133
 21
4.60863
  0
LINE
  8
0
 10
195.133
 20
4.60863
 11
195.377
 21
4.64539
  0
LINE
  8
0
 10
195.377
 20
4.64539
 11
195.623
 21
4.64539
  0
LINE
  8
0
 10
195.623
 20
4.64539
 11
195.867
 21
4.60863
  0
LINE
  8
0
 10
195.867
 20
4.60863
 11
196.103
 21
4.53593
  0
LINE
  8
0
 10
196.103
 20
4.53593
 11
196.325
 21
4.42894
  0
LINE
  8
0
 10
196.325
 20
4.42894
 11
196.529
 21
4.29001
  0
LINE
  8
0
 10
196.529
 20
4.29001
 11
196.71
 21
4.12228
  0
LINE
  8
0
 10
196.71
 20
4.12228
 11
196.863
 21
3.92947
  0
LINE
  8
0
 10
196.863
 20
3.92947
 11
196.987
 21
3.7159
  0
LINE
  8
0
 10
196.987
 20
3.7159
 11
197.077
 21
3.48634
  0
LINE
  8
0
 10
197.077
 20
3.48634
 11
197.132
 21
3.24591
  0
LINE
  8
0
 10
197.132
 20
3.24591
 11
197.15
 21
3
  0
LINE
  8
0
 10
197.15
 20
3
 11
197.132
 21
2.75407
  0
LINE
  8
0
 10
197.132
 20
2.75407
 11
197.077
 21
2.51364
  0
LINE
  8
0
 10
197.077
 20
2.51364
 11
196.987
 21
2.28409
  0
LINE
  8
0
 10
196.987
 20
2.28409
 11
196.863
 21
2.07051
  0
LINE
  8
0
 10
196.863
 20
2.07051
 11
196.71
 21
1.8777
  0
LINE
  8
0
 10
196.71
 20
1.8777
 11
196.529
 21
1.70998
  0
LINE
  8
0
 10
196.529
 20
1.70998
 11
196.325
 21
1.57104
  0
LINE
  8
0
 10
196.325
 20
1.57104
 11
196.103
 21
1.46405
  0
LINE
  8
0
 10
196.103
 20
1.46405
 11
195.867
 21
1.39136
  0
LINE
  8
0
 10
195.867
 20
1.39136
 11
195.623
 21
1.3546
  0
LINE
  8
0
 10
195.623
 20
1.3546
 11
195.377
 21
1.3546
  0
LINE
  8
0
 10
164.377
 20
1.3546
 11
164.133
 21
1.39136
  0
LINE
  8
0
 10
164.133
 20
1.39136
 11
163.897
 21
1.46405
  0
LINE
  8
0
 10
163.897
 20
1.46405
 11
163.675
 21
1.57104
  0
LINE
  8
0
 10
163.675
 20
1.57104
 11
163.471
 21
1.70998
  0
LINE
  8
0
 10
163.471
 20
1.70998
 11
163.29
 21
1.8777
  0
LINE
  8
0
 10
163.29
 20
1.8777
 11
163.137
 21
2.07051
  0
LINE
  8
0
 10
163.137
 20
2.07051
 11
163.013
 21
2.28409
  0
LINE
  8
0
 10
163.013
 20
2.28409
 11
162.923
 21
2.51364
  0
LINE
  8
0
 10
162.923
 20
2.51364
 11
162.868
 21
2.75407
  0
LINE
  8
0
 10
162.868
 20
2.75407
 11
162.85
 21
3
  0
LINE
  8
0
 10
162.85
 20
3
 11
162.868
 21
3.24591
  0
LINE
  8
0
 10
162.868
 20
3.24591
 11
162.923
 21
3.48634
  0
LINE
  8
0
 10
162.923
 20
3.48634
 11
163.013
 21
3.7159
  0
LINE
  8
0
 10
163.013
 20
3.7159
 11
163.137
 21
3.92947
  0
LINE
  8
0
 10
163.137
 20
3.92947
 11
163.29
 21
4.12228
  0
LINE
  8
0
 10
163.29
 20
4.12228
 11
163.471
 21
4.29001
  0
LINE
  8
0
 10
163.471
 20
4.29001
 11
163.675
 21
4.42894
  0
LINE
  8
0
 10
163.675
 20
4.42894
 11
163.897
 21
4.53593
  0
LINE
  8
0
 10
163.897
 20
4.53593
 11
164.133
 21
4.60863
  0
LINE
  8
0
 10
164.133
 20
4.60863
 11
164.377
 21
4.64539
  0
LINE
  8
0
 10
164.377
 20
4.64539
 11
164.623
 21
4.64539
  0
LINE
  8
0
 10
164.623
 20
4.64539
 11
164.867
 21
4.60863
  0
LINE
  8
0
 10
164.867
 20
4.60863
 11
165.103
 21
4.53593
  0
LINE
  8
0
 10
165.103
 20
4.53593
 11
165.325
 21
4.42894
  0
LINE
  8
0
 10
165.325
 20
4.42894
 11
165.529
 21
4.29001
  0
LINE
  8
0
 10
165.529
 20
4.29001
 11
165.71
 21
4.12228
  0
LINE
  8
0
 10
165.71
 20
4.12228
 11
165.863
 21
3.92947
  0
LINE
  8
0
 10
165.863
 20
3.92947
 11
165.987
 21
3.7159
  0
LINE
  8
0
 10
165.987
 20
3.7159
 11
166.077
 21
3.48634
  0
LINE
  8
0
 10
166.077
 20
3.48634
 11
166.132
 21
3.24591
  0
LINE
  8
0
 10
166.132
 20
3.24591
 11
166.15
 21
3
  0
LINE
  8
0
 10
166.15
 20
3
 11
166.132
 21
2.75407
  0
LINE
  8
0
 10
166.132
 20
2.75407
 11
166.077
 21
2.51364
  0
LINE
  8
0
 10
166.077
 20
2.51364
 11
165.987
 21
2.28409
  0
LINE
  8
0
 10
165.987
 20
2.28409
 11
165.863
 21
2.07051
  0
LINE
  8
0
 10
165.863
 20
2.07051
 11
165.71
 21
1.8777
  0
LINE
  8
0
 10
165.71
 20
1.8777
 11
165.529
 21
1.70998
  0
LINE
  8
0
 10
165.529
 20
1.70998
 11
165.325
 21
1.57104
  0
LINE
  8
0
 10
165.325
 20
1.57104
 11
165.103
 21
1.46405
  0
LINE
  8
0
 10
165.103
 20
1.46405
 11
164.867
 21
1.39136
  0
LINE
  8
0
 10
164.867
 20
1.39136
 11
164.623
 21
1.3546
  0
LINE
  8
0
 10
164.623
 20
1.3546
 11
164.377
 21
1.3546
  0
LINE
  8
0
 10
178.798
 20
-23.937
 11
177.609
 21
-23.7487
  0
LINE
  8
0
 10
177.609
 20
-23.7487
 11
176.446
 21
-23.4371
  0
LINE
  8
0
 10
176.446
 20
-23.4371
 11
175.323
 21
-23.0058
  0
LINE
  8
0
 10
175.323
 20
-23.0058
 11
174.25
 21
-22.4593
  0
LINE
  8
0
 10
174.25
 20
-22.4593
 11
173.24
 21
-21.8037
  0
LINE
  8
0
 10
173.24
 20
-21.8037
 11
172.305
 21
-21.0462
  0
LINE
  8
0
 10
172.305
 20
-21.0462
 11
171.454
 21
-20.195
  0
LINE
  8
0
 10
171.454
 20
-20.195
 11
170.696
 21
-19.2595
  0
LINE
  8
0
 10
170.696
 20
-19.2595
 11
170.041
 21
-18.25
  0
LINE
  8
0
 10
170.041
 20
-18.25
 11
169.494
 21
-17.1775
  0
LINE
  8
0
 10
169.494
 20
-17.1775
 11
169.063
 21
-16.0537
  0
LINE
  8
0
 10
169.063
 20
-16.0537
 11
168.751
 21
-14.891
  0
LINE
  8
0
 10
168.751
 20
-14.891
 11
168.563
 21
-13.7021
  0
LINE
  8
0
 10
168.563
 20
-13.7021
 11
168.5
 21
-12.5
  0
LINE
  8
0
 10
168.5
 20
-12.5
 11
168.563
 21
-11.2979
  0
LINE
  8
0
 10
168.563
 20
-11.2979
 11
168.751
 21
-10.109
  0
LINE
  8
0
 10
168.751
 20
-10.109
 11
169.063
 21
-8.9463
  0
LINE
  8
0
 10
169.063
 20
-8.9463
 11
169.494
 21
-7.82253
  0
LINE
  8
0
 10
169.494
 20
-7.82253
 11
170.041
 21
-6.75
  0
LINE
  8
0
 10
170.041
 20
-6.75
 11
170.696
 21
-5.74046
  0
LINE
  8
0
 10
170.696
 20
-5.74046
 11
171.454
 21
-4.80499
  0
LINE
  8
0
 10
171.454
 20
-4.80499
 11
172.305
 21
-3.95383
  0
LINE
  8
0
 10
172.305
 20
-3.95383
 11
173.24
 21
-3.1963
  0
LINE
  8
0
 10
173.24
 20
-3.1963
 11
174.25
 21
-2.5407
  0
LINE
  8
0
 10
174.25
 20
-2.5407
 11
175.323
 21
-1.99422
  0
LINE
  8
0
 10
175.323
 20
-1.99422
 11
176.446
 21
-1.56285
  0
LINE
  8
0
 10
176.446
 20
-1.56285
 11
177.609
 21
-1.2513
  0
LINE
  8
0
 10
177.609
 20
-1.2513
 11
178.798
 21
-1.06299
  0
LINE
  8
0
 10
178.798
 20
-1.06299
 11
180
 21
-1
  0
LINE
  8
0
 10
180
 20
-1
 11
181.202
 21
-1.06299
  0
LINE
  8
0
 10
181.202
 20
-1.06299
 11
182.391
 21
-1.2513
  0
LINE
  8
0
 10
182.391
 20
-1.2513
 11
183.554
 21
-1.56285
  0
LINE
  8
0
 10
183.554
 20
-1.56285
 11
184.677
 21
-1.99422
  0
LINE
  8
0
 10
184.677
 20
-1.99422
 11
185.75
 21
-2.5407
  0
LINE
  8
0
 10
185.75
 20
-2.5407
 11
186.76
 21
-3.1963
  0
LINE
  8
0
 10
186.76
 20
-3.1963
 11
187.695
 21
-3.95383
  0
LINE
  8
0
 10
187.695
 20
-3.95383
 11
188.546
 21
-4.80499
  0
LINE
  8
0
 10
188.546
 20
-4.80499
 11
189.304
 21
-5.74046
  0
LINE
  8
0
 10
189.304
 20
-5.74046
 11
189.959
 21
-6.75
  0
LINE
  8
0
 10
189.959
 20
-6.75
 11
190.506
 21
-7.82253
  0
LINE
  8
0
 10
190.506
 20
-7.82253
 11
190.937
 21
-8.9463
  0
LINE
  8
0
 10
190.937
 20
-8.9463
 11
191.249
 21
-10.109
  0
LINE
  8
0
 10
191.249
 20
-10.109
 11
191.437
 21
-11.2979
  0
LINE
  8
0
 10
191.437
 20
-11.2979
 11
191.5
 21
-12.5
  0
LINE
  8
0
 10
191.5
 20
-12.5
 11
191.437
 21
-13.7021
  0
LINE
  8
0
 10
191.437
 20
-13.7021
 11
191.249
 21
-14.891
  0
LINE
  8
0
 10
191.249
 20
-14.891
 11
190.937
 21
-16.0537
  0
LINE
  8
0
 10
190.937
 20
-16.0537
 11
190.506
 21
-17.1775
  0
LINE
  8
0
 10
190.506
 20
-17.1775
 11
189.959
 21
-18.25
  0
LINE
  8
0
 10
189.959
 20
-18.25
 11
189.304
 21
-19.2595
  0
LINE
  8
0
 10
189.304
 20
-19.2595
 11
188.546
 21
-20.195
  0
LINE
  8
0
 10
188.546
 20
-20.195
 11
187.695
 21
-21.0462
  0
LINE
  8
0
 10
187.695
 20
-21.0462
 11
186.76
 21
-21.8037
  0
LINE
  8
0
 10
186.76
 20
-21.8037
 11
185.75
 21
-22.4593
  0
LINE
  8
0
 10
185.75
 20
-22.4593
 11
184.677
 21
-23.0058
  0
LINE
  8
0
 10
184.677
 20
-23.0058
 11
183.554
 21
-23.4371
  0
LINE
  8
0
 10
183.554
 20
-23.4371
 11
182.391
 21
-23.7487
  0
LINE
  8
0
 10
182.391
 20
-23.7487
 11
181.202
 21
-23.937
  0
LINE
  8
0
 10
181.202
 20
-23.937
 11
180
 21
-24
  0
LINE
  8
0
 10
180
 20
-24
 11
178.798
 21
-23.937
  0
LINE
  8
0
 10
164.377
 20
-29.6454
 11
164.133
 21
-29.6086
  0
LINE
  8
0
 10
164.133
 20
-29.6086
 11
163.897
 21
-29.5359
  0
LINE
  8
0
 10
163.897
 20
-29.5359
 11
163.675
 21
-29.4289
  0
LINE
  8
0
 10
163.675
 20
-29.4289
 11
163.471
 21
-29.29
  0
LINE
  8
0
 10
163.471
 20
-29.29
 11
163.29
 21
-29.1223
  0
LINE
  8
0
 10
163.29
 20
-29.1223
 11
163.137
 21
-28.9295
  0
LINE
  8
0
 10
163.137
 20
-28.9295
 11
163.013
 21
-28.7159
  0
LINE
  8
0
 10
163.013
 20
-28.7159
 11
162.923
 21
-28.4863
  0
LINE
  8
0
 10
162.923
 20
-28.4863
 11
162.868
 21
-28.2459
  0
LINE
  8
0
 10
162.868
 20
-28.2459
 11
162.85
 21
-28
  0
LINE
  8
0
 10
162.85
 20
-28
 11
162.868
 21
-27.7541
  0
LINE
  8
0
 10
162.868
 20
-27.7541
 11
162.923
 21
-27.5136
  0
LINE
  8
0
 10
162.923
 20
-27.5136
 11
163.013
 21
-27.2841
  0
LINE
  8
0
 10
163.013
 20
-27.2841
 11
163.137
 21
-27.0705
  0
LINE
  8
0
 10
163.137
 20
-27.0705
 11
163.29
 21
-26.8777
  0
LINE
  8
0
 10
163.29
 20
-26.8777
 11
163.471
 21
-26.71
  0
LINE
  8
0
 10
163.471
 20
-26.71
 11
163.675
 21
-26.571
  0
LINE
  8
0
 10
163.675
 20
-26.571
 11
163.897
 21
-26.4641
  0
LINE
  8
0
 10
163.897
 20
-26.4641
 11
164.133
 21
-26.3914
  0
LINE
  8
0
 10
164.133
 20
-26.3914
 11
164.377
 21
-26.3546
  0
LINE
  8
0
 10
164.377
 20
-26.3546
 11
164.623
 21
-26.3546
  0
LINE
  8
0
 10
164.623
 20
-26.3546
 11
164.867
 21
-26.3914
  0
LINE
  8
0
 10
164.867
 20
-26.3914
 11
165.103
 21
-26.4641
  0
LINE
  8
0
 10
165.103
 20
-26.4641
 11
165.325
 21
-26.571
  0
LINE
  8
0
 10
165.325
 20
-26.571
 11
165.529
 21
-26.71
  0
LINE
  8
0
 10
165.529
 20
-26.71
 11
165.71
 21
-26.8777
  0
LINE
  8
0
 10
165.71
 20
-26.8777
 11
165.863
 21
-27.0705
  0
LINE
  8
0
 10
165.863
 20
-27.0705
 11
165.987
 21
-27.2841
  0
LINE
  8
0
 10
165.987
 20
-27.2841
 11
166.077
 21
-27.5136
  0
LINE
  8
0
 10
166.077
 20
-27.5136
 11
166.132
 21
-27.7541
  0
LINE
  8
0
 10
166.132
 20
-27.7541
 11
166.15
 21
-28
  0
LINE
  8
0
 10
166.15
 20
-28
 11
166.132
 21
-28.2459
  0
LINE
  8
0
 10
166.132
 20
-28.2459
 11
166.077
 21
-28.4863
  0
LINE
  8
0
 10
166.077
 20
-28.4863
 11
165.987
 21
-28.7159
  0
LINE
  8
0
 10
165.987
 20
-28.7159
 11
165.863
 21
-28.9295
  0
LINE
  8
0
 10
165.863
 20
-28.9295
 11
165.71
 21
-29.1223
  0
LINE
  8
0
 10
165.71
 20
-29.1223
 11
165.529
 21
-29.29
  0
LINE
  8
0
 10
165.529
 20
-29.29
 11
165.325
 21
-29.4289
  0
LINE
  8
0
 10
165.325
 20
-29.4289
 11
165.103
 21
-29.5359
  0
LINE
  8
0
 10
165.103
 20
-29.5359
 11
164.867
 21
-29.6086
  0
LINE
  8
0
 10
164.867
 20
-29.6086
 11
164.623
 21
-29.6454
  0
LINE
  8
0
 10
164.623
 20
-29.6454
 11
164.377
 21
-29.6454
  0
LINE
  8
0
 10
195.377
 20
-29.6454
 11
195.133
 21
-29.6086
  0
LINE
  8
0
 10
195.133
 20
-29.6086
 11
194.897
 21
-29.5359
  0
LINE
  8
0
 10
194.897
 20
-29.5359
 11
194.675
 21
-29.4289
  0
LINE
  8
0
 10
194.675
 20
-29.4289
 11
194.471
 21
-29.29
  0
LINE
  8
0
 10
194.471
 20
-29.29
 11
194.29
 21
-29.1223
  0
LINE
  8
0
 10
194.29
 20
-29.1223
 11
194.137
 21
-28.9295
  0
LINE
  8
0
 10
194.137
 20
-28.9295
 11
194.013
 21
-28.7159
  0
LINE
  8
0
 10
194.013
 20
-28.7159
 11
193.923
 21
-28.4863
  0
LINE
  8
0
 10
193.923
 20
-28.4863
 11
193.868
 21
-28.2459
  0
LINE
  8
0
 10
193.868
 20
-28.2459
 11
193.85
 21
-28
  0
LINE
  8
0
 10
193.85
 20
-28
 11
193.868
 21
-27.7541
  0
LINE
  8
0
 10
193.868
 20
-27.7541
 11
193.923
 21
-27.5136
  0
LINE
  8
0
 10
193.923
 20
-27.5136
 11
194.013
 21
-27.2841
  0
LINE
  8
0
 10
194.013
 20
-27.2841
 11
194.137
 21
-27.0705
  0
LINE
  8
0
 10
194.137
 20
-27.0705
 11
194.29
 21
-26.8777
  0
LINE
  8
0
 10
194.29
 20
-26.8777
 11
194.471
 21
-26.71
  0
LINE
  8
0
 10
194.471
 20
-26.71
 11
194.675
 21
-26.571
  0
LINE
  8
0
 10
194.675
 20
-26.571
 11
194.897
 21
-26.4641
  0
LINE
  8
0
 10
194.897
 20
-26.4641
 11
195.133
 21
-26.3914
  0
LINE
  8
0
 10
195.133
 20
-26.3914
 11
195.377
 21
-26.3546
  0
LINE
  8
0
 10
195.377
 20
-26.3546
 11
195.623
 21
-26.3546
  0
LINE
  8
0
 10
195.623
 20
-26.3546
 11
195.867
 21
-26.3914
  0
LINE
  8
0
 10
195.867
 20
-26.3914
 11
196.103
 21
-26.4641
  0
LINE
  8
0
 10
196.103
 20
-26.4641
 11
196.325
 21
-26.571
  0
LINE
  8
0
 10
196.325
 20
-26.571
 11
196.529
 21
-26.71
  0
LINE
  8
0
 10
196.529
 20
-26.71
 11
196.71
 21
-26.8777
  0
LINE
  8
0
 10
196.71
 20
-26.8777
 11
196.863
 21
-27.0705
  0
LINE
  8
0
 10
196.863
 20
-27.0705
 11
196.987
 21
-27.2841
  0
LINE
  8
0
 10
196.987
 20
-27.2841
 11
197.077
 21
-27.5136
  0
LINE
  8
0
 10
197.077
 20
-27.5136
 11
197.132
 21
-27.7541
  0
LINE
  8
0
 10
197.132
 20
-27.7541
 11
197.15
 21
-28
  0
LINE
  8
0
 10
197.15
 20
-28
 11
197.132
 21
-28.2459
  0
LINE
  8
0
 10
197.132
 20
-28.2459
 11
197.077
 21
-28.4863
  0
LINE
  8
0
 10
197.077
 20
-28.4863
 11
196.987
 21
-28.7159
  0
LINE
  8
0
 10
196.987
 20
-28.7159
 11
196.863
 21
-28.9295
  0
LINE
  8
0
 10
196.863
 20
-28.9295
 11
196.71
 21
-29.1223
  0
LINE
  8
0
 10
196.71
 20
-29.1223
 11
196.529
 21
-29.29
  0
LINE
  8
0
 10
196.529
 20
-29.29
 11
196.325
 21
-29.4289
  0
LINE
  8
0
 10
196.325
 20
-29.4289
 11
196.103
 21
-29.5359
  0
LINE
  8
0
 10
196.103
 20
-29.5359
 11
195.867
 21
-29.6086
  0
LINE
  8
0
 10
195.867
 20
-29.6086
 11
195.623
 21
-29.6454
  0
LINE
  8
0
 10
195.623
 20
-29.6454
 11
195.377
 21
-29.6454
  0
LINE
  8
0
 10
207.191
 20
-51.6717
 11
206.951
 21
-51.6089
  0
LINE
  8
0
 10
206.951
 20
-51.6089
 11
206.723
 21
-51.5119
  0
LINE
  8
0
 10
206.723
 20
-51.5119
 11
206.511
 21
-51.3826
  0
LINE
  8
0
 10
206.511
 20
-51.3826
 11
206.32
 21
-51.2238
  0
LINE
  8
0
 10
206.32
 20
-51.2238
 11
206.154
 21
-51.039
  0
LINE
  8
0
 10
206.154
 20
-51.039
 11
206.018
 21
-50.832
  0
LINE
  8
0
 10
206.018
 20
-50.832
 11
205.912
 21
-50.6073
  0
LINE
  8
0
 10
205.912
 20
-50.6073
 11
205.841
 21
-50.3696
  0
LINE
  8
0
 10
205.841
 20
-50.3696
 11
205.805
 21
-50.1241
  0
LINE
  8
0
 10
205.805
 20
-50.1241
 11
205.805
 21
-49.8759
  0
LINE
  8
0
 10
205.805
 20
-49.8759
 11
205.841
 21
-49.6304
  0
LINE
  8
0
 10
205.841
 20
-49.6304
 11
205.912
 21
-49.3927
  0
LINE
  8
0
 10
205.912
 20
-49.3927
 11
206.018
 21
-49.168
  0
LINE
  8
0
 10
206.018
 20
-49.168
 11
206.154
 21
-48.961
  0
LINE
  8
0
 10
206.154
 20
-48.961
 11
206.32
 21
-48.7762
  0
LINE
  8
0
 10
206.32
 20
-48.7762
 11
206.511
 21
-48.6174
  0
LINE
  8
0
 10
206.511
 20
-48.6174
 11
206.723
 21
-48.4881
  0
LINE
  8
0
 10
206.723
 20
-48.4881
 11
206.951
 21
-48.3911
  0
LINE
  8
0
 10
206.951
 20
-48.3911
 11
207.191
 21
-48.3283
  0
LINE
  8
0
 10
207.191
 20
-48.3283
 11
207.438
 21
-48.3011
  0
LINE
  8
0
 10
207.438
 20
-48.3011
 11
207.686
 21
-48.3102
  0
LINE
  8
0
 10
207.686
 20
-48.3102
 11
207.93
 21
-48.3553
  0
LINE
  8
0
 10
207.93
 20
-48.3553
 11
208.165
 21
-48.4354
  0
LINE
  8
0
 10
208.165
 20
-48.4354
 11
208.386
 21
-48.5489
  0
LINE
  8
0
 10
208.386
 20
-48.5489
 11
208.587
 21
-48.6933
  0
LINE
  8
0
 10
208.587
 20
-48.6933
 11
208.766
 21
-48.8656
  0
LINE
  8
0
 10
208.766
 20
-48.8656
 11
208.918
 21
-49.062
  0
LINE
  8
0
 10
208.918
 20
-49.062
 11
209.039
 21
-49.2784
  0
LINE
  8
0
 10
209.039
 20
-49.2784
 11
209.128
 21
-49.5102
  0
LINE
  8
0
 10
209.128
 20
-49.5102
 11
209.182
 21
-49.7525
  0
LINE
  8
0
 10
209.182
 20
-49.7525
 11
209.2
 21
-50
  0
LINE
  8
0
 10
209.2
 20
-50
 11
209.182
 21
-50.2475
  0
LINE
  8
0
 10
209.182
 20
-50.2475
 11
209.128
 21
-50.4898
  0
LINE
  8
0
 10
209.128
 20
-50.4898
 11
209.039
 21
-50.7216
  0
LINE
  8
0
 10
209.039
 20
-50.7216
 11
208.918
 21
-50.938
  0
LINE
  8
0
 10
208.918
 20
-50.938
 11
208.766
 21
-51.1344
  0
LINE
  8
0
 10
208.766
 20
-51.1344
 11
208.587
 21
-51.3067
  0
LINE
  8
0
 10
208.587
 20
-51.3067
 11
208.386
 21
-51.4511
  0
LINE
  8
0
 10
208.386
 20
-51.4511
 11
208.165
 21
-51.5646
  0
LINE
  8
0
 10
208.165
 20
-51.5646
 11
207.93
 21
-51.6447
  0
LINE
  8
0
 10
207.93
 20
-51.6447
 11
207.686
 21
-51.6898
  0
LINE
  8
0
 10
207.686
 20
-51.6898
 11
207.438
 21
-51.6989
  0
LINE
  8
0
 10
207.438
 20
-51.6989
 11
207.191
 21
-51.6717
  0
LINE
  8
0
 10
-207.686
 20
-51.6898
 11
-207.93
 21
-51.6447
  0
LINE
  8
0
 10
-207.93
 20
-51.6447
 11
-208.165
 21
-51.5646
  0
LINE
  8
0
 10
-208.165
 20
-51.5646
 11
-208.386
 21
-51.4511
  0
LINE
  8
0
 10
-208.386
 20
-51.4511
 11
-208.587
 21
-51.3067
  0
LINE
  8
0
 10
-208.587
 20
-51.3067
 11
-208.766
 21
-51.1344
  0
LINE
  8
0
 10
-208.766
 20
-51.1344
 11
-208.918
 21
-50.938
  0
LINE
  8
0
 10
-208.918
 20
-50.938
 11
-209.039
 21
-50.7216
  0
LINE
  8
0
 10
-209.039
 20
-50.7216
 11
-209.128
 21
-50.4898
  0
LINE
  8
0
 10
-209.128
 20
-50.4898
 11
-209.182
 21
-50.2475
  0
LINE
  8
0
 10
-209.182
 20
-50.2475
 11
-209.2
 21
-50
  0
LINE
  8
0
 10
-209.2
 20
-50
 11
-209.182
 21
-49.7525
  0
LINE
  8
0
 10
-209.182
 20
-49.7525
 11
-209.128
 21
-49.5102
  0
LINE
  8
0
 10
-209.128
 20
-49.5102
 11
-209.039
 21
-49.2784
  0
LINE
  8
0
 10
-209.039
 20
-49.2784
 11
-208.918
 21
-49.062
  0
LINE
  8
0
 10
-208.918
 20
-49.062
 11
-208.766
 21
-48.8656
  0
LINE
  8
0
 10
-208.766
 20
-48.8656
 11
-208.587
 21
-48.6933
  0
LINE
  8
0
 10
-208.587
 20
-48.6933
 11
-208.386
 21
-48.5489
  0
LINE
  8
0
 10
-208.386
 20
-48.5489
 11
-208.165
 21
-48.4354
  0
LINE
  8
0
 10
-208.165
 20
-48.4354
 11
-207.93
 21
-48.3553
  0
LINE
  8
0
 10
-207.93
 20
-48.3553
 11
-207.686
 21
-48.3102
  0
LINE
  8
0
 10
-207.686
 20
-48.3102
 11
-207.438
 21
-48.3011
  0
LINE
  8
0
 10
-207.438
 20
-48.3011
 11
-207.191
 21
-48.3283
  0
LINE
  8
0
 10
-207.191
 20
-48.3283
 11
-206.951
 21
-48.3911
  0
LINE
  8
0
 10
-206.951
 20
-48.3911
 11
-206.723
 21
-48.4881
  0
LINE
  8
0
 10
-206.723
 20
-48.4881
 11
-206.511
 21
-48.6174
  0
LINE
  8
0
 10
-206.511
 20
-48.6174
 11
-206.32
 21
-48.7762
  0
LINE
  8
0
 10
-206.32
 20
-48.7762
 11
-206.154
 21
-48.961
  0
LINE
  8
0
 10
-206.154
 20
-48.961
 11
-206.018
 21
-49.168
  0
LINE
  8
0
 10
-206.018
 20
-49.168
 11
-205.912
 21
-49.3927
  0
LINE
  8
0
 10
-205.912
 20
-49.3927
 11
-205.841
 21
-49.6304
  0
LINE
  8
0
 10
-205.841
 20
-49.6304
 11
-205.805
 21
-49.8759
  0
LINE
  8
0
 10
-205.805
 20
-49.8759
 11
-205.805
 21
-50.1241
  0
LINE
  8
0
 10
-205.805
 20
-50.1241
 11
-205.841
 21
-50.3696
  0
LINE
  8
0
 10
-205.841
 20
-50.3696
 11
-205.912
 21
-50.6073
  0
LINE
  8
0
 10
-205.912
 20
-50.6073
 11
-206.018
 21
-50.832
  0
LINE
  8
0
 10
-206.018
 20
-50.832
 11
-206.154
 21
-51.039
  0
LINE
  8
0
 10
-206.154
 20
-51.039
 11
-206.32
 21
-51.2238
  0
LINE
  8
0
 10
-206.32
 20
-51.2238
 11
-206.511
 21
-51.3826
  0
LINE
  8
0
 10
-206.511
 20
-51.3826
 11
-206.723
 21
-51.5119
  0
LINE
  8
0
 10
-206.723
 20
-51.5119
 11
-206.951
 21
-51.6089
  0
LINE
  8
0
 10
-206.951
 20
-51.6089
 11
-207.191
 21
-51.6717
  0
LINE
  8
0
 10
-207.191
 20
-51.6717
 11
-207.438
 21
-51.6989
  0
LINE
  8
0
 10
-207.438
 20
-51.6989
 11
-207.686
 21
-51.6898
  0
LINE
  8
0
 10
152.191
 20
-51.6717
 11
151.951
 21
-51.6089
  0
LINE
  8
0
 10
151.951
 20
-51.6089
 11
151.723
 21
-51.5119
  0
LINE
  8
0
 10
151.723
 20
-51.5119
 11
151.511
 21
-51.3826
  0
LINE
  8
0
 10
151.511
 20
-51.3826
 11
151.32
 21
-51.2238
  0
LINE
  8
0
 10
151.32
 20
-51.2238
 11
151.154
 21
-51.039
  0
LINE
  8
0
 10
151.154
 20
-51.039
 11
151.018
 21
-50.832
  0
LINE
  8
0
 10
151.018
 20
-50.832
 11
150.912
 21
-50.6073
  0
LINE
  8
0
 10
150.912
 20
-50.6073
 11
150.841
 21
-50.3696
  0
LINE
  8
0
 10
150.841
 20
-50.3696
 11
150.805
 21
-50.1241
  0
LINE
  8
0
 10
150.805
 20
-50.1241
 11
150.805
 21
-49.8759
  0
LINE
  8
0
 10
150.805
 20
-49.8759
 11
150.841
 21
-49.6304
  0
LINE
  8
0
 10
150.841
 20
-49.6304
 11
150.912
 21
-49.3927
  0
LINE
  8
0
 10
150.912
 20
-49.3927
 11
151.018
 21
-49.168
  0
LINE
  8
0
 10
151.018
 20
-49.168
 11
151.154
 21
-48.961
  0
LINE
  8
0
 10
151.154
 20
-48.961
 11
151.32
 21
-48.7762
  0
LINE
  8
0
 10
151.32
 20
-48.7762
 11
151.511
 21
-48.6174
  0
LINE
  8
0
 10
151.511
 20
-48.6174
 11
151.723
 21
-48.4881
  0
LINE
  8
0
 10
151.723
 20
-48.4881
 11
151.951
 21
-48.3911
  0
LINE
  8
0
 10
151.951
 20
-48.3911
 11
152.191
 21
-48.3283
  0
LINE
  8
0
 10
152.191
 20
-48.3283
 11
152.438
 21
-48.3011
  0
LINE
  8
0
 10
152.438
 20
-48.3011
 11
152.686
 21
-48.3102
  0
LINE
  8
0
 10
152.686
 20
-48.3102
 11
152.93
 21
-48.3553
  0
LINE
  8
0
 10
152.93
 20
-48.3553
 11
153.165
 21
-48.4354
  0
LINE
  8
0
 10
153.165
 20
-48.4354
 11
153.386
 21
-48.5489
  0
LINE
  8
0
 10
153.386
 20
-48.5489
 11
153.587
 21
-48.6933
  0
LINE
  8
0
 10
153.587
 20
-48.6933
 11
153.766
 21
-48.8656
  0
LINE
  8
0
 10
153.766
 20
-48.8656
 11
153.918
 21
-49.062
  0
LINE
  8
0
 10
153.918
 20
-49.062
 11
154.039
 21
-49.2784
  0
LINE
  8
0
 10
154.039
 20
-49.2784
 11
154.128
 21
-49.5102
  0
LINE
  8
0
 10
154.128
 20
-49.5102
 11
154.182
 21
-49.7525
  0
LINE
  8
0
 10
154.182
 20
-49.7525
 11
154.2
 21
-50
  0
LINE
  8
0
 10
154.2
 20
-50
 11
154.182
 21
-50.2475
  0
LINE
  8
0
 10
154.182
 20
-50.2475
 11
154.128
 21
-50.4898
  0
LINE
  8
0
 10
154.128
 20
-50.4898
 11
154.039
 21
-50.7216
  0
LINE
  8
0
 10
154.039
 20
-50.7216
 11
153.918
 21
-50.938
  0
LINE
  8
0
 10
153.918
 20
-50.938
 11
153.766
 21
-51.1344
  0
LINE
  8
0
 10
153.766
 20
-51.1344
 11
153.587
 21
-51.3067
  0
LINE
  8
0
 10
153.587
 20
-51.3067
 11
153.386
 21
-51.4511
  0
LINE
  8
0
 10
153.386
 20
-51.4511
 11
153.165
 21
-51.5646
  0
LINE
  8
0
 10
153.165
 20
-51.5646
 11
152.93
 21
-51.6447
  0
LINE
  8
0
 10
152.93
 20
-51.6447
 11
152.686
 21
-51.6898
  0
LINE
  8
0
 10
152.686
 20
-51.6898
 11
152.438
 21
-51.6989
  0
LINE
  8
0
 10
152.438
 20
-51.6989
 11
152.191
 21
-51.6717
  0
LINE
  8
0
 10
-152.686
 20
-51.6898
 11
-152.93
 21
-51.6447
  0
LINE
  8
0
 10
-152.93
 20
-51.6447
 11
-153.165
 21
-51.5646
  0
LINE
  8
0
 10
-153.165
 20
-51.5646
 11
-153.386
 21
-51.4511
  0
LINE
  8
0
 10
-153.386
 20
-51.4511
 11
-153.587
 21
-51.3067
  0
LINE
  8
0
 10
-153.587
 20
-51.3067
 11
-153.766
 21
-51.1344
  0
LINE
  8
0
 10
-153.766
 20
-51.1344
 11
-153.918
 21
-50.938
  0
LINE
  8
0
 10
-153.918
 20
-50.938
 11
-154.039
 21
-50.7216
  0
LINE
  8
0
 10
-154.039
 20
-50.7216
 11
-154.128
 21
-50.4898
  0
LINE
  8
0
 10
-154.128
 20
-50.4898
 11
-154.182
 21
-50.2475
  0
LINE
  8
0
 10
-154.182
 20
-50.2475
 11
-154.2
 21
-50
  0
LINE
  8
0
 10
-154.2
 20
-50
 11
-154.182
 21
-49.7525
  0
LINE
  8
0
 10
-154.182
 20
-49.7525
 11
-154.128
 21
-49.5102
  0
LINE
  8
0
 10
-154.128
 20
-49.5102
 11
-154.039
 21
-49.2784
  0
LINE
  8
0
 10
-154.039
 20
-49.2784
 11
-153.918
 21
-49.062
  0
LINE
  8
0
 10
-153.918
 20
-49.062
 11
-153.766
 21
-48.8656
  0
LINE
  8
0
 10
-153.766
 20
-48.8656
 11
-153.587
 21
-48.6933
  0
LINE
  8
0
 10
-153.587
 20
-48.6933
 11
-153.386
 21
-48.5489
  0
LINE
  8
0
 10
-153.386
 20
-48.5489
 11
-153.165
 21
-48.4354
  0
LINE
  8
0
 10
-153.165
 20
-48.4354
 11
-152.93
 21
-48.3553
  0
LINE
  8
0
 10
-152.93
 20
-48.3553
 11
-152.686
 21
-48.3102
  0
LINE
  8
0
 10
-152.686
 20
-48.3102
 11
-152.438
 21
-48.3011
  0
LINE
  8
0
 10
-152.438
 20
-48.3011
 11
-152.191
 21
-48.3283
  0
LINE
  8
0
 10
-152.191
 20
-48.3283
 11
-151.951
 21
-48.3911
  0
LINE
  8
0
 10
-151.951
 20
-48.3911
 11
-151.723
 21
-48.4881
  0
LINE
  8
0
 10
-151.723
 20
-48.4881
 11
-151.511
 21
-48.6174
  0
LINE
  8
0
 10
-151.511
 20
-48.6174
 11
-151.32
 21
-48.7762
  0
LINE
  8
0
 10
-151.32
 20
-48.7762
 11
-151.154
 21
-48.961
  0
LINE
  8
0
 10
-151.154
 20
-48.961
 11
-151.018
 21
-49.168
  0
LINE
  8
0
 10
-151.018
 20
-49.168
 11
-150.912
 21
-49.3927
  0
LINE
  8
0
 10
-150.912
 20
-49.3927
 11
-150.841
 21
-49.6304
  0
LINE
  8
0
 10
-150.841
 20
-49.6304
 11
-150.805
 21
-49.8759
  0
LINE
  8
0
 10
-150.805
 20
-49.8759
 11
-150.805
 21
-50.1241
  0
LINE
  8
0
 10
-150.805
 20
-50.1241
 11
-150.841
 21
-50.3696
  0
LINE
  8
0
 10
-150.841
 20
-50.3696
 11
-150.912
 21
-50.6073
  0
LINE
  8
0
 10
-150.912
 20
-50.6073
 11
-151.018
 21
-50.832
  0
LINE
  8
0
 10
-151.018
 20
-50.832
 11
-151.154
 21
-51.039
  0
LINE
  8
0
 10
-151.154
 20
-51.039
 11
-151.32
 21
-51.2238
  0
LINE
  8
0
 10
-151.32
 20
-51.2238
 11
-151.511
 21
-51.3826
  0
LINE
  8
0
 10
-151.511
 20
-51.3826
 11
-151.723
 21
-51.5119
  0
LINE
  8
0
 10
-151.723
 20
-51.5119
 11
-151.951
 21
-51.6089
  0
LINE
  8
0
 10
-151.951
 20
-51.6089
 11
-152.191
 21
-51.6717
  0
LINE
  8
0
 10
-152.191
 20
-51.6717
 11
-152.438
 21
-51.6989
  0
LINE
  8
0
 10
-152.438
 20
-51.6989
 11
-152.686
 21
-51.6898
  0
LINE
  8
0
 10
-164.623
 20
-101.145
 11
-164.867
 21
-101.109
  0
LINE
  8
0
 10
-164.867
 20
-101.109
 11
-165.103
 21
-101.036
  0
LINE
  8
0
 10
-165.103
 20
-101.036
 11
-165.325
 21
-100.929
  0
LINE
  8
0
 10
-165.325
 20
-100.929
 11
-165.529
 21
-100.79
  0
LINE
  8
0
 10
-165.529
 20
-100.79
 11
-165.71
 21
-100.622
  0
LINE
  8
0
 10
-165.71
 20
-100.622
 11
-165.863
 21
-100.429
  0
LINE
  8
0
 10
-165.863
 20
-100.429
 11
-165.987
 21
-100.216
  0
LINE
  8
0
 10
-165.987
 20
-100.216
 11
-166.077
 21
-99.9863
  0
LINE
  8
0
 10
-166.077
 20
-99.9863
 11
-166.132
 21
-99.7459
  0
LINE
  8
0
 10
-166.132
 20
-99.7459
 11
-166.15
 21
-99.5
  0
LINE
  8
0
 10
-166.15
 20
-99.5
 11
-166.132
 21
-99.2541
  0
LINE
  8
0
 10
-166.132
 20
-99.2541
 11
-166.077
 21
-99.0137
  0
LINE
  8
0
 10
-166.077
 20
-99.0137
 11
-165.987
 21
-98.7841
  0
LINE
  8
0
 10
-165.987
 20
-98.7841
 11
-165.863
 21
-98.5705
  0
LINE
  8
0
 10
-165.863
 20
-98.5705
 11
-165.71
 21
-98.3777
  0
LINE
  8
0
 10
-165.71
 20
-98.3777
 11
-165.529
 21
-98.21
  0
LINE
  8
0
 10
-165.529
 20
-98.21
 11
-165.325
 21
-98.0711
  0
LINE
  8
0
 10
-165.325
 20
-98.0711
 11
-165.103
 21
-97.9641
  0
LINE
  8
0
 10
-165.103
 20
-97.9641
 11
-164.867
 21
-97.8914
  0
LINE
  8
0
 10
-164.867
 20
-97.8914
 11
-164.623
 21
-97.8546
  0
LINE
  8
0
 10
-164.623
 20
-97.8546
 11
-164.377
 21
-97.8546
  0
LINE
  8
0
 10
-164.377
 20
-97.8546
 11
-164.133
 21
-97.8914
  0
LINE
  8
0
 10
-164.133
 20
-97.8914
 11
-163.897
 21
-97.9641
  0
LINE
  8
0
 10
-163.897
 20
-97.9641
 11
-163.675
 21
-98.0711
  0
LINE
  8
0
 10
-163.675
 20
-98.0711
 11
-163.471
 21
-98.21
  0
LINE
  8
0
 10
-163.471
 20
-98.21
 11
-163.29
 21
-98.3777
  0
LINE
  8
0
 10
-163.29
 20
-98.3777
 11
-163.137
 21
-98.5705
  0
LINE
  8
0
 10
-163.137
 20
-98.5705
 11
-163.013
 21
-98.7841
  0
LINE
  8
0
 10
-163.013
 20
-98.7841
 11
-162.923
 21
-99.0137
  0
LINE
  8
0
 10
-162.923
 20
-99.0137
 11
-162.868
 21
-99.2541
  0
LINE
  8
0
 10
-162.868
 20
-99.2541
 11
-162.85
 21
-99.5
  0
LINE
  8
0
 10
-162.85
 20
-99.5
 11
-162.868
 21
-99.7459
  0
LINE
  8
0
 10
-162.868
 20
-99.7459
 11
-162.923
 21
-99.9863
  0
LINE
  8
0
 10
-162.923
 20
-99.9863
 11
-163.013
 21
-100.216
  0
LINE
  8
0
 10
-163.013
 20
-100.216
 11
-163.137
 21
-100.429
  0
LINE
  8
0
 10
-163.137
 20
-100.429
 11
-163.29
 21
-100.622
  0
LINE
  8
0
 10
-163.29
 20
-100.622
 11
-163.471
 21
-100.79
  0
LINE
  8
0
 10
-163.471
 20
-100.79
 11
-163.675
 21
-100.929
  0
LINE
  8
0
 10
-163.675
 20
-100.929
 11
-163.897
 21
-101.036
  0
LINE
  8
0
 10
-163.897
 20
-101.036
 11
-164.133
 21
-101.109
  0
LINE
  8
0
 10
-164.133
 20
-101.109
 11
-164.377
 21
-101.145
  0
LINE
  8
0
 10
-164.377
 20
-101.145
 11
-164.623
 21
-101.145
  0
LINE
  8
0
 10
-195.623
 20
-101.145
 11
-195.867
 21
-101.109
  0
LINE
  8
0
 10
-195.867
 20
-101.109
 11
-196.103
 21
-101.036
  0
LINE
  8
0
 10
-196.103
 20
-101.036
 11
-196.325
 21
-100.929
  0
LINE
  8
0
 10
-196.325
 20
-100.929
 11
-196.529
 21
-100.79
  0
LINE
  8
0
 10
-196.529
 20
-100.79
 11
-196.71
 21
-100.622
  0
LINE
  8
0
 10
-196.71
 20
-100.622
 11
-196.863
 21
-100.429
  0
LINE
  8
0
 10
-196.863
 20
-100.429
 11
-196.987
 21
-100.216
  0
LINE
  8
0
 10
-196.987
 20
-100.216
 11
-197.077
 21
-99.9863
  0
LINE
  8
0
 10
-197.077
 20
-99.9863
 11
-197.132
 21
-99.7459
  0
LINE
  8
0
 10
-197.132
 20
-99.7459
 11
-197.15
 21
-99.5
  0
LINE
  8
0
 10
-197.15
 20
-99.5
 11
-197.132
 21
-99.2541
  0
LINE
  8
0
 10
-197.132
 20
-99.2541
 11
-197.077
 21
-99.0137
  0
LINE
  8
0
 10
-197.077
 20
-99.0137
 11
-196.987
 21
-98.7841
  0
LINE
  8
0
 10
-196.987
 20
-98.7841
 11
-196.863
 21
-98.5705
  0
LINE
  8
0
 10
-196.863
 20
-98.5705
 11
-196.71
 21
-98.3777
  0
LINE
  8
0
 10
-196.71
 20
-98.3777
 11
-196.529
 21
-98.21
  0
LINE
  8
0
 10
-196.529
 20
-98.21
 11
-196.325
 21
-98.0711
  0
LINE
  8
0
 10
-196.325
 20
-98.0711
 11
-196.103
 21
-97.9641
  0
LINE
  8
0
 10
-196.103
 20
-97.9641
 11
-195.867
 21
-97.8914
  0
LINE
  8
0
 10
-195.867
 20
-97.8914
 11
-195.623
 21
-97.8546
  0
LINE
  8
0
 10
-195.623
 20
-97.8546
 11
-195.377
 21
-97.8546
  0
LINE
  8
0
 10
-195.377
 20
-97.8546
 11
-195.133
 21
-97.8914
  0
LINE
  8
0
 10
-195.133
 20
-97.8914
 11
-194.897
 21
-97.9641
  0
LINE
  8
0
 10
-194.897
 20
-97.9641
 11
-194.675
 21
-98.0711
  0
LINE
  8
0
 10
-194.675
 20
-98.0711
 11
-194.471
 21
-98.21
  0
LINE
  8
0
 10
-194.471
 20
-98.21
 11
-194.29
 21
-98.3777
  0
LINE
  8
0
 10
-194.29
 20
-98.3777
 11
-194.137
 21
-98.5705
  0
LINE
  8
0
 10
-194.137
 20
-98.5705
 11
-194.013
 21
-98.7841
  0
LINE
  8
0
 10
-194.013
 20
-98.7841
 11
-193.923
 21
-99.0137
  0
LINE
  8
0
 10
-193.923
 20
-99.0137
 11
-193.868
 21
-99.2541
  0
LINE
  8
0
 10
-193.868
 20
-99.2541
 11
-193.85
 21
-99.5
  0
LINE
  8
0
 10
-193.85
 20
-99.5
 11
-193.868
 21
-99.7459
  0
LINE
  8
0
 10
-193.868
 20
-99.7459
 11
-193.923
 21
-99.9863
  0
LINE
  8
0
 10
-193.923
 20
-99.9863
 11
-194.013
 21
-100.216
  0
LINE
  8
0
 10
-194.013
 20
-100.216
 11
-194.137
 21
-100.429
  0
LINE
  8
0
 10
-194.137
 20
-100.429
 11
-194.29
 21
-100.622
  0
LINE
  8
0
 10
-194.29
 20
-100.622
 11
-194.471
 21
-100.79
  0
LINE
  8
0
 10
-194.471
 20
-100.79
 11
-194.675
 21
-100.929
  0
LINE
  8
0
 10
-194.675
 20
-100.929
 11
-194.897
 21
-101.036
  0
LINE
  8
0
 10
-194.897
 20
-101.036
 11
-195.133
 21
-101.109
  0
LINE
  8
0
 10
-195.133
 20
-101.109
 11
-195.377
 21
-101.145
  0
LINE
  8
0
 10
-195.377
 20
-101.145
 11
-195.623
 21
-101.145
  0
LINE
  8
0
 10
-181.202
 20
-126.437
 11
-182.391
 21
-126.249
  0
LINE
  8
0
 10
-182.391
 20
-126.249
 11
-183.554
 21
-125.937
  0
LINE
  8
0
 10
-183.554
 20
-125.937
 11
-184.677
 21
-125.506
  0
LINE
  8
0
 10
-184.677
 20
-125.506
 11
-185.75
 21
-124.959
  0
LINE
  8
0
 10
-185.75
 20
-124.959
 11
-186.76
 21
-124.304
  0
LINE
  8
0
 10
-186.76
 20
-124.304
 11
-187.695
 21
-123.546
  0
LINE
  8
0
 10
-187.695
 20
-123.546
 11
-188.546
 21
-122.695
  0
LINE
  8
0
 10
-188.546
 20
-122.695
 11
-189.304
 21
-121.76
  0
LINE
  8
0
 10
-189.304
 20
-121.76
 11
-189.959
 21
-120.75
  0
LINE
  8
0
 10
-189.959
 20
-120.75
 11
-190.506
 21
-119.677
  0
LINE
  8
0
 10
-190.506
 20
-119.677
 11
-190.937
 21
-118.554
  0
LINE
  8
0
 10
-190.937
 20
-118.554
 11
-191.249
 21
-117.391
  0
LINE
  8
0
 10
-191.249
 20
-117.391
 11
-191.437
 21
-116.202
  0
LINE
  8
0
 10
-191.437
 20
-116.202
 11
-191.5
 21
-115
  0
LINE
  8
0
 10
-191.5
 20
-115
 11
-191.437
 21
-113.798
  0
LINE
  8
0
 10
-191.437
 20
-113.798
 11
-191.249
 21
-112.609
  0
LINE
  8
0
 10
-191.249
 20
-112.609
 11
-190.937
 21
-111.446
  0
LINE
  8
0
 10
-190.937
 20
-111.446
 11
-190.506
 21
-110.323
  0
LINE
  8
0
 10
-190.506
 20
-110.323
 11
-189.959
 21
-109.25
  0
LINE
  8
0
 10
-189.959
 20
-109.25
 11
-189.304
 21
-108.24
  0
LINE
  8
0
 10
-189.304
 20
-108.24
 11
-188.546
 21
-107.305
  0
LINE
  8
0
 10
-188.546
 20
-107.305
 11
-187.695
 21
-106.454
  0
LINE
  8
0
 10
-187.695
 20
-106.454
 11
-186.76
 21
-105.696
  0
LINE
  8
0
 10
-186.76
 20
-105.696
 11
-185.75
 21
-105.041
  0
LINE
  8
0
 10
-185.75
 20
-105.041
 11
-184.677
 21
-104.494
  0
LINE
  8
0
 10
-184.677
 20
-104.494
 11
-183.554
 21
-104.063
  0
LINE
  8
0
 10
-183.554
 20
-104.063
 11
-182.391
 21
-103.751
  0
LINE
  8
0
 10
-182.391
 20
-103.751
 11
-181.202
 21
-103.563
  0
LINE
  8
0
 10
-181.202
 20
-103.563
 11
-180
 21
-103.5
  0
LINE
  8
0
 10
-180
 20
-103.5
 11
-178.798
 21
-103.563
  0
LINE
  8
0
 10
-178.798
 20
-103.563
 11
-177.609
 21
-103.751
  0
LINE
  8
0
 10
-177.609
 20
-103.751
 11
-176.446
 21
-104.063
  0
LINE
  8
0
 10
-176.446
 20
-104.063
 11
-175.323
 21
-104.494
  0
LINE
  8
0
 10
-175.323
 20
-104.494
 11
-174.25
 21
-105.041
  0
LINE
  8
0
 10
-174.25
 20
-105.041
 11
-173.24
 21
-105.696
  0
LINE
  8
0
 10
-173.24
 20
-105.696
 11
-172.305
 21
-106.454
  0
LINE
  8
0
 10
-172.305
 20
-106.454
 11
-171.454
 21
-107.305
  0
LINE
  8
0
 10
-171.454
 20
-107.305
 11
-170.696
 21
-108.24
  0
LINE
  8
0
 10
-170.696
 20
-108.24
 11
-170.041
 21
-109.25
  0
LINE
  8
0
 10
-170.041
 20
-109.25
 11
-169.494
 21
-110.323
  0
LINE
  8
0
 10
-169.494
 20
-110.323
 11
-169.063
 21
-111.446
  0
LINE
  8
0
 10
-169.063
 20
-111.446
 11
-168.751
 21
-112.609
  0
LINE
  8
0
 10
-168.751
 20
-112.609
 11
-168.563
 21
-113.798
  0
LINE
  8
0
 10
-168.563
 20
-113.798
 11
-168.5
 21
-115
  0
LINE
  8
0
 10
-168.5
 20
-115
 11
-168.563
 21
-116.202
  0
LINE
  8
0
 10
-168.563
 20
-116.202
 11
-168.751
 21
-117.391
  0
LINE
  8
0
 10
-168.751
 20
-117.391
 11
-169.063
 21
-118.554
  0
LINE
  8
0
 10
-169.063
 20
-118.554
 11
-169.494
 21
-119.677
  0
LINE
  8
0
 10
-169.494
 20
-119.677
 11
-170.041
 21
-120.75
  0
LINE
  8
0
 10
-170.041
 20
-120.75
 11
-170.696
 21
-121.76
  0
LINE
  8
0
 10
-170.696
 20
-121.76
 11
-171.454
 21
-122.695
  0
LINE
  8
0
 10
-171.454
 20
-122.695
 11
-172.305
 21
-123.546
  0
LINE
  8
0
 10
-172.305
 20
-123.546
 11
-173.24
 21
-124.304
  0
LINE
  8
0
 10
-173.24
 20
-124.304
 11
-174.25
 21
-124.959
  0
LINE
  8
0
 10
-174.25
 20
-124.959
 11
-175.323
 21
-125.506
  0
LINE
  8
0
 10
-175.323
 20
-125.506
 11
-176.446
 21
-125.937
  0
LINE
  8
0
 10
-176.446
 20
-125.937
 11
-177.609
 21
-126.249
  0
LINE
  8
0
 10
-177.609
 20
-126.249
 11
-178.798
 21
-126.437
  0
LINE
  8
0
 10
-178.798
 20
-126.437
 11
-180
 21
-126.5
  0
LINE
  8
0
 10
-180
 20
-126.5
 11
-181.202
 21
-126.437
  0
LINE
  8
0
 10
-195.623
 20
-132.145
 11
-195.867
 21
-132.109
  0
LINE
  8
0
 10
-195.867
 20
-132.109
 11
-196.103
 21
-132.036
  0
LINE
  8
0
 10
-196.103
 20
-132.036
 11
-196.325
 21
-131.929
  0
LINE
  8
0
 10
-196.325
 20
-131.929
 11
-196.529
 21
-131.79
  0
LINE
  8
0
 10
-196.529
 20
-131.79
 11
-196.71
 21
-131.622
  0
LINE
  8
0
 10
-196.71
 20
-131.622
 11
-196.863
 21
-131.429
  0
LINE
  8
0
 10
-196.863
 20
-131.429
 11
-196.987
 21
-131.216
  0
LINE
  8
0
 10
-196.987
 20
-131.216
 11
-197.077
 21
-130.986
  0
LINE
  8
0
 10
-197.077
 20
-130.986
 11
-197.132
 21
-130.746
  0
LINE
  8
0
 10
-197.132
 20
-130.746
 11
-197.15
 21
-130.5
  0
LINE
  8
0
 10
-197.15
 20
-130.5
 11
-197.132
 21
-130.254
  0
LINE
  8
0
 10
-197.132
 20
-130.254
 11
-197.077
 21
-130.014
  0
LINE
  8
0
 10
-197.077
 20
-130.014
 11
-196.987
 21
-129.784
  0
LINE
  8
0
 10
-196.987
 20
-129.784
 11
-196.863
 21
-129.571
  0
LINE
  8
0
 10
-196.863
 20
-129.571
 11
-196.71
 21
-129.378
  0
LINE
  8
0
 10
-196.71
 20
-129.378
 11
-196.529
 21
-129.21
  0
LINE
  8
0
 10
-196.529
 20
-129.21
 11
-196.325
 21
-129.071
  0
LINE
  8
0
 10
-196.325
 20
-129.071
 11
-196.103
 21
-128.964
  0
LINE
  8
0
 10
-196.103
 20
-128.964
 11
-195.867
 21
-128.891
  0
LINE
  8
0
 10
-195.867
 20
-128.891
 11
-195.623
 21
-128.855
  0
LINE
  8
0
 10
-195.623
 20
-128.855
 11
-195.377
 21
-128.855
  0
LINE
  8
0
 10
-195.377
 20
-128.855
 11
-195.133
 21
-128.891
  0
LINE
  8
0
 10
-195.133
 20
-128.891
 11
-194.897
 21
-128.964
  0
LINE
  8
0
 10
-194.897
 20
-128.964
 11
-194.675
 21
-129.071
  0
LINE
  8
0
 10
-194.675
 20
-129.071
 11
-194.471
 21
-129.21
  0
LINE
  8
0
 10
-194.471
 20
-129.21
 11
-194.29
 21
-129.378
  0
LINE
  8
0
 10
-194.29
 20
-129.378
 11
-194.137
 21
-129.571
  0
LINE
  8
0
 10
-194.137
 20
-129.571
 11
-194.013
 21
-129.784
  0
LINE
  8
0
 10
-194.013
 20
-129.784
 11
-193.923
 21
-130.014
  0
LINE
  8
0
 10
-193.923
 20
-130.014
 11
-193.868
 21
-130.254
  0
LINE
  8
0
 10
-193.868
 20
-130.254
 11
-193.85
 21
-130.5
  0
LINE
  8
0
 10
-193.85
 20
-130.5
 11
-193.868
 21
-130.746
  0
LINE
  8
0
 10
-193.868
 20
-130.746
 11
-193.923
 21
-130.986
  0
LINE
  8
0
 10
-193.923
 20
-130.986
 11
-194.013
 21
-131.216
  0
LINE
  8
0
 10
-194.013
 20
-131.216
 11
-194.137
 21
-131.429
  0
LINE
  8
0
 10
-194.137
 20
-131.429
 11
-194.29
 21
-131.622
  0
LINE
  8
0
 10
-194.29
 20
-131.622
 11
-194.471
 21
-131.79
  0
LINE
  8
0
 10
-194.471
 20
-131.79
 11
-194.675
 21
-131.929
  0
LINE
  8
0
 10
-194.675
 20
-131.929
 11
-194.897
 21
-132.036
  0
LINE
  8
0
 10
-194.897
 20
-132.036
 11
-195.133
 21
-132.109
  0
LINE
  8
0
 10
-195.133
 20
-132.109
 11
-195.377
 21
-132.145
  0
LINE
  8
0
 10
-195.377
 20
-132.145
 11
-195.623
 21
-132.145
  0
LINE
  8
0
 10
-164.623
 20
-132.145
 11
-164.867
 21
-132.109
  0
LINE
  8
0
 10
-164.867
 20
-132.109
 11
-165.103
 21
-132.036
  0
LINE
  8
0
 10
-165.103
 20
-132.036
 11
-165.325
 21
-131.929
  0
LINE
  8
0
 10
-165.325
 20
-131.929
 11
-165.529
 21
-131.79
  0
LINE
  8
0
 10
-165.529
 20
-131.79
 11
-165.71
 21
-131.622
  0
LINE
  8
0
 10
-165.71
 20
-131.622
 11
-165.863
 21
-131.429
  0
LINE
  8
0
 10
-165.863
 20
-131.429
 11
-165.987
 21
-131.216
  0
LINE
  8
0
 10
-165.987
 20
-131.216
 11
-166.077
 21
-130.986
  0
LINE
  8
0
 10
-166.077
 20
-130.986
 11
-166.132
 21
-130.746
  0
LINE
  8
0
 10
-166.132
 20
-130.746
 11
-166.15
 21
-130.5
  0
LINE
  8
0
 10
-166.15
 20
-130.5
 11
-166.132
 21
-130.254
  0
LINE
  8
0
 10
-166.132
 20
-130.254
 11
-166.077
 21
-130.014
  0
LINE
  8
0
 10
-166.077
 20
-130.014
 11
-165.987
 21
-129.784
  0
LINE
  8
0
 10
-165.987
 20
-129.784
 11
-165.863
 21
-129.571
  0
LINE
  8
0
 10
-165.863
 20
-129.571
 11
-165.71
 21
-129.378
  0
LINE
  8
0
 10
-165.71
 20
-129.378
 11
-165.529
 21
-129.21
  0
LINE
  8
0
 10
-165.529
 20
-129.21
 11
-165.325
 21
-129.071
  0
LINE
  8
0
 10
-165.325
 20
-129.071
 11
-165.103
 21
-128.964
  0
LINE
  8
0
 10
-165.103
 20
-128.964
 11
-164.867
 21
-128.891
  0
LINE
  8
0
 10
-164.867
 20
-128.891
 11
-164.623
 21
-128.855
  0
LINE
  8
0
 10
-164.623
 20
-128.855
 11
-164.377
 21
-128.855
  0
LINE
  8
0
 10
-164.377
 20
-128.855
 11
-164.133
 21
-128.891
  0
LINE
  8
0
 10
-164.133
 20
-128.891
 11
-163.897
 21
-128.964
  0
LINE
  8
0
 10
-163.897
 20
-128.964
 11
-163.675
 21
-129.071
  0
LINE
  8
0
 10
-163.675
 20
-129.071
 11
-163.471
 21
-129.21
  0
LINE
  8
0
 10
-163.471
 20
-129.21
 11
-163.29
 21
-129.378
  0
LINE
  8
0
 10
-163.29
 20
-129.378
 11
-163.137
 21
-129.571
  0
LINE
  8
0
 10
-163.137
 20
-129.571
 11
-163.013
 21
-129.784
  0
LINE
  8
0
 10
-163.013
 20
-129.784
 11
-162.923
 21
-130.014
  0
LINE
  8
0
 10
-162.923
 20
-130.014
 11
-162.868
 21
-130.254
  0
LINE
  8
0
 10
-162.868
 20
-130.254
 11
-162.85
 21
-130.5
  0
LINE
  8
0
 10
-162.85
 20
-130.5
 11
-162.868
 21
-130.746
  0
LINE
  8
0
 10
-162.868
 20
-130.746
 11
-162.923
 21
-130.986
  0
LINE
  8
0
 10
-162.923
 20
-130.986
 11
-163.013
 21
-131.216
  0
LINE
  8
0
 10
-163.013
 20
-131.216
 11
-163.137
 21
-131.429
  0
LINE
  8
0
 10
-163.137
 20
-131.429
 11
-163.29
 21
-131.622
  0
LINE
  8
0
 10
-163.29
 20
-131.622
 11
-163.471
 21
-131.79
  0
LINE
  8
0
 10
-163.471
 20
-131.79
 11
-163.675
 21
-131.929
  0
LINE
  8
0
 10
-163.675
 20
-131.929
 11
-163.897
 21
-132.036
  0
LINE
  8
0
 10
-163.897
 20
-132.036
 11
-164.133
 21
-132.109
  0
LINE
  8
0
 10
-164.133
 20
-132.109
 11
-164.377
 21
-132.145
  0
LINE
  8
0
 10
-164.377
 20
-132.145
 11
-164.623
 21
-132.145
  0
LINE
  8
0
 10
-207.686
 20
-151.69
 11
-207.93
 21
-151.645
  0
LINE
  8
0
 10
-207.93
 20
-151.645
 11
-208.165
 21
-151.565
  0
LINE
  8
0
 10
-208.165
 20
-151.565
 11
-208.386
 21
-151.451
  0
LINE
  8
0
 10
-208.386
 20
-151.451
 11
-208.587
 21
-151.307
  0
LINE
  8
0
 10
-208.587
 20
-151.307
 11
-208.766
 21
-151.134
  0
LINE
  8
0
 10
-208.766
 20
-151.134
 11
-208.918
 21
-150.938
  0
LINE
  8
0
 10
-208.918
 20
-150.938
 11
-209.039
 21
-150.722
  0
LINE
  8
0
 10
-209.039
 20
-150.722
 11
-209.128
 21
-150.49
  0
LINE
  8
0
 10
-209.128
 20
-150.49
 11
-209.182
 21
-150.248
  0
LINE
  8
0
 10
-209.182
 20
-150.248
 11
-209.2
 21
-150
  0
LINE
  8
0
 10
-209.2
 20
-150
 11
-209.182
 21
-149.752
  0
LINE
  8
0
 10
-209.182
 20
-149.752
 11
-209.128
 21
-149.51
  0
LINE
  8
0
 10
-209.128
 20
-149.51
 11
-209.039
 21
-149.278
  0
LINE
  8
0
 10
-209.039
 20
-149.278
 11
-208.918
 21
-149.062
  0
LINE
  8
0
 10
-208.918
 20
-149.062
 11
-208.766
 21
-148.866
  0
LINE
  8
0
 10
-208.766
 20
-148.866
 11
-208.587
 21
-148.693
  0
LINE
  8
0
 10
-208.587
 20
-148.693
 11
-208.386
 21
-148.549
  0
LINE
  8
0
 10
-208.386
 20
-148.549
 11
-208.165
 21
-148.435
  0
LINE
  8
0
 10
-208.165
 20
-148.435
 11
-207.93
 21
-148.355
  0
LINE
  8
0
 10
-207.93
 20
-148.355
 11
-207.686
 21
-148.31
  0
LINE
  8
0
 10
-207.686
 20
-148.31
 11
-207.438
 21
-148.301
  0
LINE
  8
0
 10
-207.438
 20
-148.301
 11
-207.191
 21
-148.328
  0
LINE
  8
0
 10
-207.191
 20
-148.328
 11
-206.951
 21
-148.391
  0
LINE
  8
0
 10
-206.951
 20
-148.391
 11
-206.723
 21
-148.488
  0
LINE
  8
0
 10
-206.723
 20
-148.488
 11
-206.511
 21
-148.617
  0
LINE
  8
0
 10
-206.511
 20
-148.617
 11
-206.32
 21
-148.776
  0
LINE
  8
0
 10
-206.32
 20
-148.776
 11
-206.154
 21
-148.961
  0
LINE
  8
0
 10
-206.154
 20
-148.961
 11
-206.018
 21
-149.168
  0
LINE
  8
0
 10
-206.018
 20
-149.168
 11
-205.912
 21
-149.393
  0
LINE
  8
0
 10
-205.912
 20
-149.393
 11
-205.841
 21
-149.63
  0
LINE
  8
0
 10
-205.841
 20
-149.63
 11
-205.805
 21
-149.876
  0
LINE
  8
0
 10
-205.805
 20
-149.876
 11
-205.805
 21
-150.124
  0
LINE
  8
0
 10
-205.805
 20
-150.124
 11
-205.841
 21
-150.37
  0
LINE
  8
0
 10
-205.841
 20
-150.37
 11
-205.912
 21
-150.607
  0
LINE
  8
0
 10
-205.912
 20
-150.607
 11
-206.018
 21
-150.832
  0
LINE
  8
0
 10
-206.018
 20
-150.832
 11
-206.154
 21
-151.039
  0
LINE
  8
0
 10
-206.154
 20
-151.039
 11
-206.32
 21
-151.224
  0
LINE
  8
0
 10
-206.32
 20
-151.224
 11
-206.511
 21
-151.383
  0
LINE
  8
0
 10
-206.511
 20
-151.383
 11
-206.723
 21
-151.512
  0
LINE
  8
0
 10
-206.723
 20
-151.512
 11
-206.951
 21
-151.609
  0
LINE
  8
0
 10
-206.951
 20
-151.609
 11
-207.191
 21
-151.672
  0
LINE
  8
0
 10
-207.191
 20
-151.672
 11
-207.438
 21
-151.699
  0
LINE
  8
0
 10
-207.438
 20
-151.699
 11
-207.686
 21
-151.69
  0
LINE
  8
0
 10
-152.686
 20
-151.69
 11
-152.93
 21
-151.645
  0
LINE
  8
0
 10
-152.93
 20
-151.645
 11
-153.165
 21
-151.565
  0
LINE
  8
0
 10
-153.165
 20
-151.565
 11
-153.386
 21
-151.451
  0
LINE
  8
0
 10
-153.386
 20
-151.451
 11
-153.587
 21
-151.307
  0
LINE
  8
0
 10
-153.587
 20
-151.307
 11
-153.766
 21
-151.134
  0
LINE
  8
0
 10
-153.766
 20
-151.134
 11
-153.918
 21
-150.938
  0
LINE
  8
0
 10
-153.918
 20
-150.938
 11
-154.039
 21
-150.722
  0
LINE
  8
0
 10
-154.039
 20
-150.722
 11
-154.128
 21
-150.49
  0
LINE
  8
0
 10
-154.128
 20
-150.49
 11
-154.182
 21
-150.248
  0
LINE
  8
0
 10
-154.182
 20
-150.248
 11
-154.2
 21
-150
  0
LINE
  8
0
 10
-154.2
 20
-150
 11
-154.182
 21
-149.752
  0
LINE
  8
0
 10
-154.182
 20
-149.752
 11
-154.128
 21
-149.51
  0
LINE
  8
0
 10
-154.128
 20
-149.51
 11
-154.039
 21
-149.278
  0
LINE
  8
0
 10
-154.039
 20
-149.278
 11
-153.918
 21
-149.062
  0
LINE
  8
0
 10
-153.918
 20
-149.062
 11
-153.766
 21
-148.866
  0
LINE
  8
0
 10
-153.766
 20
-148.866
 11
-153.587
 21
-148.693
  0
LINE
  8
0
 10
-153.587
 20
-148.693
 11
-153.386
 21
-148.549
  0
LINE
  8
0
 10
-153.386
 20
-148.549
 11
-153.165
 21
-148.435
  0
LINE
  8
0
 10
-153.165
 20
-148.435
 11
-152.93
 21
-148.355
  0
LINE
  8
0
 10
-152.93
 20
-148.355
 11
-152.686
 21
-148.31
  0
LINE
  8
0
 10
-152.686
 20
-148.31
 11
-152.438
 21
-148.301
  0
LINE
  8
0
 10
-152.438
 20
-148.301
 11
-152.191
 21
-148.328
  0
LINE
  8
0
 10
-152.191
 20
-148.328
 11
-151.951
 21
-148.391
  0
LINE
  8
0
 10
-151.951
 20
-148.391
 11
-151.723
 21
-148.488
  0
LINE
  8
0
 10
-151.723
 20
-148.488
 11
-151.511
 21
-148.617
  0
LINE
  8
0
 10
-151.511
 20
-148.617
 11
-151.32
 21
-148.776
  0
LINE
  8
0
 10
-151.32
 20
-148.776
 11
-151.154
 21
-148.961
  0
LINE
  8
0
 10
-151.154
 20
-148.961
 11
-151.018
 21
-149.168
  0
LINE
  8
0
 10
-151.018
 20
-149.168
 11
-150.912
 21
-149.393
  0
LINE
  8
0
 10
-150.912
 20
-149.393
 11
-150.841
 21
-149.63
  0
LINE
  8
0
 10
-150.841
 20
-149.63
 11
-150.805
 21
-149.876
  0
LINE
  8
0
 10
-150.805
 20
-149.876
 11
-150.805
 21
-150.124
  0
LINE
  8
0
 10
-150.805
 20
-150.124
 11
-150.841
 21
-150.37
  0
LINE
  8
0
 10
-150.841
 20
-150.37
 11
-150.912
 21
-150.607
  0
LINE
  8
0
 10
-150.912
 20
-150.607
 11
-151.018
 21
-150.832
  0
LINE
  8
0
 10
-151.018
 20
-150.832
 11
-151.154
 21
-151.039
  0
LINE
  8
0
 10
-151.154
 20
-151.039
 11
-151.32
 21
-151.224
  0
LINE
  8
0
 10
-151.32
 20
-151.224
 11
-151.511
 21
-151.383
  0
LINE
  8
0
 10
-151.511
 20
-151.383
 11
-151.723
 21
-151.512
  0
LINE
  8
0
 10
-151.723
 20
-151.512
 11
-151.951
 21
-151.609
  0
LINE
  8
0
 10
-151.951
 20
-151.609
 11
-152.191
 21
-151.672
  0
LINE
  8
0
 10
-152.191
 20
-151.672
 11
-152.438
 21
-151.699
  0
LINE
  8
0
 10
-152.438
 20
-151.699
 11
-152.686
 21
-151.69
  0
LINE
  8
0
 10
207.191
 20
-151.672
 11
206.951
 21
-151.609
  0
LINE
  8
0
 10
206.951
 20
-151.609
 11
206.723
 21
-151.512
  0
LINE
  8
0
 10
206.723
 20
-151.512
 11
206.511
 21
-151.383
  0
LINE
  8
0
 10
206.511
 20
-151.383
 11
206.32
 21
-151.224
  0
LINE
  8
0
 10
206.32
 20
-151.224
 11
206.154
 21
-151.039
  0
LINE
  8
0
 10
206.154
 20
-151.039
 11
206.018
 21
-150.832
  0
LINE
  8
0
 10
206.018
 20
-150.832
 11
205.912
 21
-150.607
  0
LINE
  8
0
 10
205.912
 20
-150.607
 11
205.841
 21
-150.37
  0
LINE
  8
0
 10
205.841
 20
-150.37
 11
205.805
 21
-150.124
  0
LINE
  8
0
 10
205.805
 20
-150.124
 11
205.805
 21
-149.876
  0
LINE
  8
0
 10
205.805
 20
-149.876
 11
205.841
 21
-149.63
  0
LINE
  8
0
 10
205.841
 20
-149.63
 11
205.912
 21
-149.393
  0
LINE
  8
0
 10
205.912
 20
-149.393
 11
206.018
 21
-149.168
  0
LINE
  8
0
 10
206.018
 20
-149.168
 11
206.154
 21
-148.961
  0
LINE
  8
0
 10
206.154
 20
-148.961
 11
206.32
 21
-148.776
  0
LINE
  8
0
 10
206.32
 20
-148.776
 11
206.511
 21
-148.617
  0
LINE
  8
0
 10
206.511
 20
-148.617
 11
206.723
 21
-148.488
  0
LINE
  8
0
 10
206.723
 20
-148.488
 11
206.951
 21
-148.391
  0
LINE
  8
0
 10
206.951
 20
-148.391
 11
207.191
 21
-148.328
  0
LINE
  8
0
 10
207.191
 20
-148.328
 11
207.438
 21
-148.301
  0
LINE
  8
0
 10
207.438
 20
-148.301
 11
207.686
 21
-148.31
  0
LINE
  8
0
 10
207.686
 20
-148.31
 11
207.93
 21
-148.355
  0
LINE
  8
0
 10
207.93
 20
-148.355
 11
208.165
 21
-148.435
  0
LINE
  8
0
 10
208.165
 20
-148.435
 11
208.386
 21
-148.549
  0
LINE
  8
0
 10
208.386
 20
-148.549
 11
208.587
 21
-148.693
  0
LINE
  8
0
 10
208.587
 20
-148.693
 11
208.766
 21
-148.866
  0
LINE
  8
0
 10
208.766
 20
-148.866
 11
208.918
 21
-149.062
  0
LINE
  8
0
 10
208.918
 20
-149.062
 11
209.039
 21
-149.278
  0
LINE
  8
0
 10
209.039
 20
-149.278
 11
209.128
 21
-149.51
  0
LINE
  8
0
 10
209.128
 20
-149.51
 11
209.182
 21
-149.752
  0
LINE
  8
0
 10
209.182
 20
-149.752
 11
209.2
 21
-150
  0
LINE
  8
0
 10
209.2
 20
-150
 11
209.182
 21
-150.248
  0
LINE
  8
0
 10
209.182
 20
-150.248
 11
209.128
 21
-150.49
  0
LINE
  8
0
 10
209.128
 20
-150.49
 11
209.039
 21
-150.722
  0
LINE
  8
0
 10
209.039
 20
-150.722
 11
208.918
 21
-150.938
  0
LINE
  8
0
 10
208.918
 20
-150.938
 11
208.766
 21
-151.134
  0
LINE
  8
0
 10
208.766
 20
-151.134
 11
208.587
 21
-151.307
  0
LINE
  8
0
 10
208.587
 20
-151.307
 11
208.386
 21
-151.451
  0
LINE
  8
0
 10
208.386
 20
-151.451
 11
208.165
 21
-151.565
  0
LINE
  8
0
 10
208.165
 20
-151.565
 11
207.93
 21
-151.645
  0
LINE
  8
0
 10
207.93
 20
-151.645
 11
207.686
 21
-151.69
  0
LINE
  8
0
 10
207.686
 20
-151.69
 11
207.438
 21
-151.699
  0
LINE
  8
0
 10
207.438
 20
-151.699
 11
207.191
 21
-151.672
  0
LINE
  8
0
 10
152.191
 20
-151.672
 11
151.951
 21
-151.609
  0
LINE
  8
0
 10
151.951
 20
-151.609
 11
151.723
 21
-151.512
  0
LINE
  8
0
 10
151.723
 20
-151.512
 11
151.511
 21
-151.383
  0
LINE
  8
0
 10
151.511
 20
-151.383
 11
151.32
 21
-151.224
  0
LINE
  8
0
 10
151.32
 20
-151.224
 11
151.154
 21
-151.039
  0
LINE
  8
0
 10
151.154
 20
-151.039
 11
151.018
 21
-150.832
  0
LINE
  8
0
 10
151.018
 20
-150.832
 11
150.912
 21
-150.607
  0
LINE
  8
0
 10
150.912
 20
-150.607
 11
150.841
 21
-150.37
  0
LINE
  8
0
 10
150.841
 20
-150.37
 11
150.805
 21
-150.124
  0
LINE
  8
0
 10
150.805
 20
-150.124
 11
150.805
 21
-149.876
  0
LINE
  8
0
 10
150.805
 20
-149.876
 11
150.841
 21
-149.63
  0
LINE
  8
0
 10
150.841
 20
-149.63
 11
150.912
 21
-149.393
  0
LINE
  8
0
 10
150.912
 20
-149.393
 11
151.018
 21
-149.168
  0
LINE
  8
0
 10
151.018
 20
-149.168
 11
151.154
 21
-148.961
  0
LINE
  8
0
 10
151.154
 20
-148.961
 11
151.32
 21
-148.776
  0
LINE
  8
0
 10
151.32
 20
-148.776
 11
151.511
 21
-148.617
  0
LINE
  8
0
 10
151.511
 20
-148.617
 11
151.723
 21
-148.488
  0
LINE
  8
0
 10
151.723
 20
-148.488
 11
151.951
 21
-148.391
  0
LINE
  8
0
 10
151.951
 20
-148.391
 11
152.191
 21
-148.328
  0
LINE
  8
0
 10
152.191
 20
-148.328
 11
152.438
 21
-148.301
  0
LINE
  8
0
 10
152.438
 20
-148.301
 11
152.686
 21
-148.31
  0
LINE
  8
0
 10
152.686
 20
-148.31
 11
152.93
 21
-148.355
  0
LINE
  8
0
 10
152.93
 20
-148.355
 11
153.165
 21
-148.435
  0
LINE
  8
0
 10
153.165
 20
-148.435
 11
153.386
 21
-148.549
  0
LINE
  8
0
 10
153.386
 20
-148.549
 11
153.587
 21
-148.693
  0
LINE
  8
0
 10
153.587
 20
-148.693
 11
153.766
 21
-148.866
  0
LINE
  8
0
 10
153.766
 20
-148.866
 11
153.918
 21
-149.062
  0
LINE
  8
0
 10
153.918
 20
-149.062
 11
154.039
 21
-149.278
  0
LINE
  8
0
 10
154.039
 20
-149.278
 11
154.128
 21
-149.51
  0
LINE
  8
0
 10
154.128
 20
-149.51
 11
154.182
 21
-149.752
  0
LINE
  8
0
 10
154.182
 20
-149.752
 11
154.2
 21
-150
  0
LINE
  8
0
 10
154.2
 20
-150
 11
154.182
 21
-150.248
  0
LINE
  8
0
 10
154.182
 20
-150.248
 11
154.128
 21
-150.49
  0
LINE
  8
0
 10
154.128
 20
-150.49
 11
154.039
 21
-150.722
  0
LINE
  8
0
 10
154.039
 20
-150.722
 11
153.918
 21
-150.938
  0
LINE
  8
0
 10
153.918
 20
-150.938
 11
153.766
 21
-151.134
  0
LINE
  8
0
 10
153.766
 20
-151.134
 11
153.587
 21
-151.307
  0
LINE
  8
0
 10
153.587
 20
-151.307
 11
153.386
 21
-151.451
  0
LINE
  8
0
 10
153.386
 20
-151.451
 11
153.165
 21
-151.565
  0
LINE
  8
0
 10
153.165
 20
-151.565
 11
152.93
 21
-151.645
  0
LINE
  8
0
 10
152.93
 20
-151.645
 11
152.686
 21
-151.69
  0
LINE
  8
0
 10
152.686
 20
-151.69
 11
152.438
 21
-151.699
  0
LINE
  8
0
 10
152.438
 20
-151.699
 11
152.191
 21
-151.672
  0
LINE
  8
0
 10
-207.892
 20
-196.229
 11
-208.28
 21
-196.168
  0
LINE
  8
0
 10
-208.28
 20
-196.168
 11
-208.659
 21
-196.066
  0
LINE
  8
0
 10
-208.659
 20
-196.066
 11
-209.025
 21
-195.926
  0
LINE
  8
0
 10
-209.025
 20
-195.926
 11
-209.375
 21
-195.748
  0
LINE
  8
0
 10
-209.375
 20
-195.748
 11
-209.704
 21
-195.534
  0
LINE
  8
0
 10
-209.704
 20
-195.534
 11
-210.009
 21
-195.287
  0
LINE
  8
0
 10
-210.009
 20
-195.287
 11
-210.287
 21
-195.009
  0
LINE
  8
0
 10
-210.287
 20
-195.009
 11
-210.534
 21
-194.704
  0
LINE
  8
0
 10
-210.534
 20
-194.704
 11
-210.748
 21
-194.375
  0
LINE
  8
0
 10
-210.748
 20
-194.375
 11
-210.926
 21
-194.025
  0
LINE
  8
0
 10
-210.926
 20
-194.025
 11
-211.066
 21
-193.659
  0
LINE
  8
0
 10
-211.066
 20
-193.659
 11
-211.168
 21
-193.28
  0
LINE
  8
0
 10
-211.168
 20
-193.28
 11
-211.229
 21
-192.892
  0
LINE
  8
0
 10
-211.229
 20
-192.892
 11
-211.25
 21
-192.5
  0
LINE
  8
0
 10
-211.25
 20
-192.5
 11
-211.229
 21
-192.108
  0
LINE
  8
0
 10
-211.229
 20
-192.108
 11
-211.168
 21
-191.72
  0
LINE
  8
0
 10
-211.168
 20
-191.72
 11
-211.066
 21
-191.341
  0
LINE
  8
0
 10
-211.066
 20
-191.341
 11
-210.926
 21
-190.975
  0
LINE
  8
0
 10
-210.926
 20
-190.975
 11
-210.748
 21
-190.625
  0
LINE
  8
0
 10
-210.748
 20
-190.625
 11
-210.534
 21
-190.296
  0
LINE
  8
0
 10
-210.534
 20
-190.296
 11
-210.287
 21
-189.991
  0
LINE
  8
0
 10
-210.287
 20
-189.991
 11
-210.009
 21
-189.713
  0
LINE
  8
0
 10
-210.009
 20
-189.713
 11
-209.704
 21
-189.466
  0
LINE
  8
0
 10
-209.704
 20
-189.466
 11
-209.375
 21
-189.252
  0
LINE
  8
0
 10
-209.375
 20
-189.252
 11
-209.025
 21
-189.074
  0
LINE
  8
0
 10
-209.025
 20
-189.074
 11
-208.659
 21
-188.934
  0
LINE
  8
0
 10
-208.659
 20
-188.934
 11
-208.28
 21
-188.832
  0
LINE
  8
0
 10
-208.28
 20
-188.832
 11
-207.892
 21
-188.771
  0
LINE
  8
0
 10
-207.892
 20
-188.771
 11
-207.5
 21
-188.75
  0
LINE
  8
0
 10
-207.5
 20
-188.75
 11
-207.108
 21
-188.771
  0
LINE
  8
0
 10
-207.108
 20
-188.771
 11
-206.72
 21
-188.832
  0
LINE
  8
0
 10
-206.72
 20
-188.832
 11
-206.341
 21
-188.934
  0
LINE
  8
0
 10
-206.341
 20
-188.934
 11
-205.975
 21
-189.074
  0
LINE
  8
0
 10
-205.975
 20
-189.074
 11
-205.625
 21
-189.252
  0
LINE
  8
0
 10
-205.625
 20
-189.252
 11
-205.296
 21
-189.466
  0
LINE
  8
0
 10
-205.296
 20
-189.466
 11
-204.991
 21
-189.713
  0
LINE
  8
0
 10
-204.991
 20
-189.713
 11
-204.713
 21
-189.991
  0
LINE
  8
0
 10
-204.713
 20
-189.991
 11
-204.466
 21
-190.296
  0
LINE
  8
0
 10
-204.466
 20
-190.296
 11
-204.252
 21
-190.625
  0
LINE
  8
0
 10
-204.252
 20
-190.625
 11
-204.074
 21
-190.975
  0
LINE
  8
0
 10
-204.074
 20
-190.975
 11
-203.934
 21
-191.341
  0
LINE
  8
0
 10
-203.934
 20
-191.341
 11
-203.832
 21
-191.72
  0
LINE
  8
0
 10
-203.832
 20
-191.72
 11
-203.771
 21
-192.108
  0
LINE
  8
0
 10
-203.771
 20
-192.108
 11
-203.75
 21
-192.5
  0
LINE
  8
0
 10
-203.75
 20
-192.5
 11
-203.771
 21
-192.892
  0
LINE
  8
0
 10
-203.771
 20
-192.892
 11
-203.832
 21
-193.28
  0
LINE
  8
0
 10
-203.832
 20
-193.28
 11
-203.934
 21
-193.659
  0
LINE
  8
0
 10
-203.934
 20
-193.659
 11
-204.074
 21
-194.025
  0
LINE
  8
0
 10
-204.074
 20
-194.025
 11
-204.252
 21
-194.375
  0
LINE
  8
0
 10
-204.252
 20
-194.375
 11
-204.466
 21
-194.704
  0
LINE
  8
0
 10
-204.466
 20
-194.704
 11
-204.713
 21
-195.009
  0
LINE
  8
0
 10
-204.713
 20
-195.009
 11
-204.991
 21
-195.287
  0
LINE
  8
0
 10
-204.991
 20
-195.287
 11
-205.296
 21
-195.534
  0
LINE
  8
0
 10
-205.296
 20
-195.534
 11
-205.625
 21
-195.748
  0
LINE
  8
0
 10
-205.625
 20
-195.748
 11
-205.975
 21
-195.926
  0
LINE
  8
0
 10
-205.975
 20
-195.926
 11
-206.341
 21
-196.066
  0
LINE
  8
0
 10
-206.341
 20
-196.066
 11
-206.72
 21
-196.168
  0
LINE
  8
0
 10
-206.72
 20
-196.168
 11
-207.108
 21
-196.229
  0
LINE
  8
0
 10
-207.108
 20
-196.229
 11
-207.5
 21
-196.25
  0
LINE
  8
0
 10
-207.5
 20
-196.25
 11
-207.892
 21
-196.229
  0
LINE
  8
0
 10
207.108
 20
-196.229
 11
206.72
 21
-196.168
  0
LINE
  8
0
 10
206.72
 20
-196.168
 11
206.341
 21
-196.066
  0
LINE
  8
0
 10
206.341
 20
-196.066
 11
205.975
 21
-195.926
  0
LINE
  8
0
 10
205.975
 20
-195.926
 11
205.625
 21
-195.748
  0
LINE
  8
0
 10
205.625
 20
-195.748
 11
205.296
 21
-195.534
  0
LINE
  8
0
 10
205.296
 20
-195.534
 11
204.991
 21
-195.287
  0
LINE
  8
0
 10
204.991
 20
-195.287
 11
204.713
 21
-195.009
  0
LINE
  8
0
 10
204.713
 20
-195.009
 11
204.466
 21
-194.704
  0
LINE
  8
0
 10
204.466
 20
-194.704
 11
204.252
 21
-194.375
  0
LINE
  8
0
 10
204.252
 20
-194.375
 11
204.074
 21
-194.025
  0
LINE
  8
0
 10
204.074
 20
-194.025
 11
203.934
 21
-193.659
  0
LINE
  8
0
 10
203.934
 20
-193.659
 11
203.832
 21
-193.28
  0
LINE
  8
0
 10
203.832
 20
-193.28
 11
203.771
 21
-192.892
  0
LINE
  8
0
 10
203.771
 20
-192.892
 11
203.75
 21
-192.5
  0
LINE
  8
0
 10
203.75
 20
-192.5
 11
203.771
 21
-192.108
  0
LINE
  8
0
 10
203.771
 20
-192.108
 11
203.832
 21
-191.72
  0
LINE
  8
0
 10
203.832
 20
-191.72
 11
203.934
 21
-191.341
  0
LINE
  8
0
 10
203.934
 20
-191.341
 11
204.074
 21
-190.975
  0
LINE
  8
0
 10
204.074
 20
-190.975
 11
204.252
 21
-190.625
  0
LINE
  8
0
 10
204.252
 20
-190.625
 11
204.466
 21
-190.296
  0
LINE
  8
0
 10
204.466
 20
-190.296
 11
204.713
 21
-189.991
  0
LINE
  8
0
 10
204.713
 20
-189.991
 11
204.991
 21
-189.713
  0
LINE
  8
0
 10
204.991
 20
-189.713
 11
205.296
 21
-189.466
  0
LINE
  8
0
 10
205.296
 20
-189.466
 11
205.625
 21
-189.252
  0
LINE
  8
0
 10
205.625
 20
-189.252
 11
205.975
 21
-189.074
  0
LINE
  8
0
 10
205.975
 20
-189.074
 11
206.341
 21
-188.934
  0
LINE
  8
0
 10
206.341
 20
-188.934
 11
206.72
 21
-188.832
  0
LINE
  8
0
 10
206.72
 20
-188.832
 11
207.108
 21
-188.771
  0
LINE
  8
0
 10
207.108
 20
-188.771
 11
207.5
 21
-188.75
  0
LINE
  8
0
 10
207.5
 20
-188.75
 11
207.892
 21
-188.771
  0
LINE
  8
0
 10
207.892
 20
-188.771
 11
208.28
 21
-188.832
  0
LINE
  8
0
 10
208.28
 20
-188.832
 11
208.659
 21
-188.934
  0
LINE
  8
0
 10
208.659
 20
-188.934
 11
209.025
 21
-189.074
  0
LINE
  8
0
 10
209.025
 20
-189.074
 11
209.375
 21
-189.252
  0
LINE
  8
0
 10
209.375
 20
-189.252
 11
209.704
 21
-189.466
  0
LINE
  8
0
 10
209.704
 20
-189.466
 11
210.009
 21
-189.713
  0
LINE
  8
0
 10
210.009
 20
-189.713
 11
210.287
 21
-189.991
  0
LINE
  8
0
 10
210.287
 20
-189.991
 11
210.534
 21
-190.296
  0
LINE
  8
0
 10
210.534
 20
-190.296
 11
210.748
 21
-190.625
  0
LINE
  8
0
 10
210.748
 20
-190.625
 11
210.926
 21
-190.975
  0
LINE
  8
0
 10
210.926
 20
-190.975
 11
211.066
 21
-191.341
  0
LINE
  8
0
 10
211.066
 20
-191.341
 11
211.168
 21
-191.72
  0
LINE
  8
0
 10
211.168
 20
-191.72
 11
211.229
 21
-192.108
  0
LINE
  8
0
 10
211.229
 20
-192.108
 11
211.25
 21
-192.5
  0
LINE
  8
0
 10
211.25
 20
-192.5
 11
211.229
 21
-192.892
  0
LINE
  8
0
 10
211.229
 20
-192.892
 11
211.168
 21
-193.28
  0
LINE
  8
0
 10
211.168
 20
-193.28
 11
211.066
 21
-193.659
  0
LINE
  8
0
 10
211.066
 20
-193.659
 11
210.926
 21
-194.025
  0
LINE
  8
0
 10
210.926
 20
-194.025
 11
210.748
 21
-194.375
  0
LINE
  8
0
 10
210.748
 20
-194.375
 11
210.534
 21
-194.704
  0
LINE
  8
0
 10
210.534
 20
-194.704
 11
210.287
 21
-195.009
  0
LINE
  8
0
 10
210.287
 20
-195.009
 11
210.009
 21
-195.287
  0
LINE
  8
0
 10
210.009
 20
-195.287
 11
209.704
 21
-195.534
  0
LINE
  8
0
 10
209.704
 20
-195.534
 11
209.375
 21
-195.748
  0
LINE
  8
0
 10
209.375
 20
-195.748
 11
209.025
 21
-195.926
  0
LINE
  8
0
 10
209.025
 20
-195.926
 11
208.659
 21
-196.066
  0
LINE
  8
0
 10
208.659
 20
-196.066
 11
208.28
 21
-196.168
  0
LINE
  8
0
 10
208.28
 20
-196.168
 11
207.892
 21
-196.229
  0
LINE
  8
0
 10
207.892
 20
-196.229
 11
207.5
 21
-196.25
  0
LINE
  8
0
 10
207.5
 20
-196.25
 11
207.108
 21
-196.229
  0
LINE
  8
0
 10
-165.309
 20
-194.172
 11
-165.549
 21
-194.109
  0
LINE
  8
0
 10
-165.549
 20
-194.109
 11
-165.777
 21
-194.012
  0
LINE
  8
0
 10
-165.777
 20
-194.012
 11
-165.989
 21
-193.883
  0
LINE
  8
0
 10
-165.989
 20
-193.883
 11
-166.18
 21
-193.724
  0
LINE
  8
0
 10
-166.18
 20
-193.724
 11
-166.346
 21
-193.539
  0
LINE
  8
0
 10
-166.346
 20
-193.539
 11
-166.482
 21
-193.332
  0
LINE
  8
0
 10
-166.482
 20
-193.332
 11
-166.588
 21
-193.107
  0
LINE
  8
0
 10
-166.588
 20
-193.107
 11
-166.659
 21
-192.87
  0
LINE
  8
0
 10
-166.659
 20
-192.87
 11
-166.695
 21
-192.624
  0
LINE
  8
0
 10
-166.695
 20
-192.624
 11
-166.695
 21
-192.376
  0
LINE
  8
0
 10
-166.695
 20
-192.376
 11
-166.659
 21
-192.13
  0
LINE
  8
0
 10
-166.659
 20
-192.13
 11
-166.588
 21
-191.893
  0
LINE
  8
0
 10
-166.588
 20
-191.893
 11
-166.482
 21
-191.668
  0
LINE
  8
0
 10
-166.482
 20
-191.668
 11
-166.346
 21
-191.461
  0
LINE
  8
0
 10
-166.346
 20
-191.461
 11
-166.18
 21
-191.276
  0
LINE
  8
0
 10
-166.18
 20
-191.276
 11
-165.989
 21
-191.117
  0
LINE
  8
0
 10
-165.989
 20
-191.117
 11
-165.777
 21
-190.988
  0
LINE
  8
0
 10
-165.777
 20
-190.988
 11
-165.549
 21
-190.891
  0
LINE
  8
0
 10
-165.549
 20
-190.891
 11
-165.309
 21
-190.828
  0
LINE
  8
0
 10
-165.309
 20
-190.828
 11
-165.062
 21
-190.801
  0
LINE
  8
0
 10
-165.062
 20
-190.801
 11
-164.814
 21
-190.81
  0
LINE
  8
0
 10
-164.814
 20
-190.81
 11
-164.57
 21
-190.855
  0
LINE
  8
0
 10
-164.57
 20
-190.855
 11
-164.335
 21
-190.935
  0
LINE
  8
0
 10
-164.335
 20
-190.935
 11
-164.114
 21
-191.049
  0
LINE
  8
0
 10
-164.114
 20
-191.049
 11
-163.913
 21
-191.193
  0
LINE
  8
0
 10
-163.913
 20
-191.193
 11
-163.734
 21
-191.366
  0
LINE
  8
0
 10
-163.734
 20
-191.366
 11
-163.582
 21
-191.562
  0
LINE
  8
0
 10
-163.582
 20
-191.562
 11
-163.461
 21
-191.778
  0
LINE
  8
0
 10
-163.461
 20
-191.778
 11
-163.372
 21
-192.01
  0
LINE
  8
0
 10
-163.372
 20
-192.01
 11
-163.318
 21
-192.252
  0
LINE
  8
0
 10
-163.318
 20
-192.252
 11
-163.3
 21
-192.5
  0
LINE
  8
0
 10
-163.3
 20
-192.5
 11
-163.318
 21
-192.748
  0
LINE
  8
0
 10
-163.318
 20
-192.748
 11
-163.372
 21
-192.99
  0
LINE
  8
0
 10
-163.372
 20
-192.99
 11
-163.461
 21
-193.222
  0
LINE
  8
0
 10
-163.461
 20
-193.222
 11
-163.582
 21
-193.438
  0
LINE
  8
0
 10
-163.582
 20
-193.438
 11
-163.734
 21
-193.634
  0
LINE
  8
0
 10
-163.734
 20
-193.634
 11
-163.913
 21
-193.807
  0
LINE
  8
0
 10
-163.913
 20
-193.807
 11
-164.114
 21
-193.951
  0
LINE
  8
0
 10
-164.114
 20
-193.951
 11
-164.335
 21
-194.065
  0
LINE
  8
0
 10
-164.335
 20
-194.065
 11
-164.57
 21
-194.145
  0
LINE
  8
0
 10
-164.57
 20
-194.145
 11
-164.814
 21
-194.19
  0
LINE
  8
0
 10
-164.814
 20
-194.19
 11
-165.062
 21
-194.199
  0
LINE
  8
0
 10
-165.062
 20
-194.199
 11
-165.309
 21
-194.172
  0
LINE
  8
0
 10
164.691
 20
-194.172
 11
164.451
 21
-194.109
  0
LINE
  8
0
 10
164.451
 20
-194.109
 11
164.223
 21
-194.012
  0
LINE
  8
0
 10
164.223
 20
-194.012
 11
164.011
 21
-193.883
  0
LINE
  8
0
 10
164.011
 20
-193.883
 11
163.82
 21
-193.724
  0
LINE
  8
0
 10
163.82
 20
-193.724
 11
163.654
 21
-193.539
  0
LINE
  8
0
 10
163.654
 20
-193.539
 11
163.518
 21
-193.332
  0
LINE
  8
0
 10
163.518
 20
-193.332
 11
163.412
 21
-193.107
  0
LINE
  8
0
 10
163.412
 20
-193.107
 11
163.341
 21
-192.87
  0
LINE
  8
0
 10
163.341
 20
-192.87
 11
163.305
 21
-192.624
  0
LINE
  8
0
 10
163.305
 20
-192.624
 11
163.305
 21
-192.376
  0
LINE
  8
0
 10
163.305
 20
-192.376
 11
163.341
 21
-192.13
  0
LINE
  8
0
 10
163.341
 20
-192.13
 11
163.412
 21
-191.893
  0
LINE
  8
0
 10
163.412
 20
-191.893
 11
163.518
 21
-191.668
  0
LINE
  8
0
 10
163.518
 20
-191.668
 11
163.654
 21
-191.461
  0
LINE
  8
0
 10
163.654
 20
-191.461
 11
163.82
 21
-191.276
  0
LINE
  8
0
 10
163.82
 20
-191.276
 11
164.011
 21
-191.117
  0
LINE
  8
0
 10
164.011
 20
-191.117
 11
164.223
 21
-190.988
  0
LINE
  8
0
 10
164.223
 20
-190.988
 11
164.451
 21
-190.891
  0
LINE
  8
0
 10
164.451
 20
-190.891
 11
164.691
 21
-190.828
  0
LINE
  8
0
 10
164.691
 20
-190.828
 11
164.938
 21
-190.801
  0
LINE
  8
0
 10
164.938
 20
-190.801
 11
165.186
 21
-190.81
  0
LINE
  8
0
 10
165.186
 20
-190.81
 11
165.43
 21
-190.855
  0
LINE
  8
0
 10
165.43
 20
-190.855
 11
165.665
 21
-190.935
  0
LINE
  8
0
 10
165.665
 20
-190.935
 11
165.886
 21
-191.049
  0
LINE
  8
0
 10
165.886
 20
-191.049
 11
166.087
 21
-191.193
  0
LINE
  8
0
 10
166.087
 20
-191.193
 11
166.266
 21
-191.366
  0
LINE
  8
0
 10
166.266
 20
-191.366
 11
166.418
 21
-191.562
  0
LINE
  8
0
 10
166.418
 20
-191.562
 11
166.539
 21
-191.778
  0
LINE
  8
0
 10
166.539
 20
-191.778
 11
166.628
 21
-192.01
  0
LINE
  8
0
 10
166.628
 20
-192.01
 11
166.682
 21
-192.252
  0
LINE
  8
0
 10
166.682
 20
-192.252
 11
166.7
 21
-192.5
  0
LINE
  8
0
 10
166.7
 20
-192.5
 11
166.682
 21
-192.748
  0
LINE
  8
0
 10
166.682
 20
-192.748
 11
166.628
 21
-192.99
  0
LINE
  8
0
 10
166.628
 20
-192.99
 11
166.539
 21
-193.222
  0
LINE
  8
0
 10
166.539
 20
-193.222
 11
166.418
 21
-193.438
  0
LINE
  8
0
 10
166.418
 20
-193.438
 11
166.266
 21
-193.634
  0
LINE
  8
0
 10
166.266
 20
-193.634
 11
166.087
 21
-193.807
  0
LINE
  8
0
 10
166.087
 20
-193.807
 11
165.886
 21
-193.951
  0
LINE
  8
0
 10
165.886
 20
-193.951
 11
165.665
 21
-194.065
  0
LINE
  8
0
 10
165.665
 20
-194.065
 11
165.43
 21
-194.145
  0
LINE
  8
0
 10
165.43
 20
-194.145
 11
165.186
 21
-194.19
  0
LINE
  8
0
 10
165.186
 20
-194.19
 11
164.938
 21
-194.199
  0
LINE
  8
0
 10
164.938
 20
-194.199
 11
164.691
 21
-194.172
  0
LINE
  8
0
 10
82.1912
 20
-194.172
 11
81.9511
 21
-194.109
  0
LINE
  8
0
 10
81.9511
 20
-194.109
 11
81.7227
 21
-194.012
  0
LINE
  8
0
 10
81.7227
 20
-194.012
 11
81.5108
 21
-193.883
  0
LINE
  8
0
 10
81.5108
 20
-193.883
 11
81.3201
 21
-193.724
  0
LINE
  8
0
 10
81.3201
 20
-193.724
 11
81.1544
 21
-193.539
  0
LINE
  8
0
 10
81.1544
 20
-193.539
 11
81.0175
 21
-193.332
  0
LINE
  8
0
 10
81.0175
 20
-193.332
 11
80.9122
 21
-193.107
  0
LINE
  8
0
 10
80.9122
 20
-193.107
 11
80.8407
 21
-192.87
  0
LINE
  8
0
 10
80.8407
 20
-192.87
 11
80.8045
 21
-192.624
  0
LINE
  8
0
 10
80.8045
 20
-192.624
 11
80.8045
 21
-192.376
  0
LINE
  8
0
 10
80.8045
 20
-192.376
 11
80.8407
 21
-192.13
  0
LINE
  8
0
 10
80.8407
 20
-192.13
 11
80.9122
 21
-191.893
  0
LINE
  8
0
 10
80.9122
 20
-191.893
 11
81.0175
 21
-191.668
  0
LINE
  8
0
 10
81.0175
 20
-191.668
 11
81.1544
 21
-191.461
  0
LINE
  8
0
 10
81.1544
 20
-191.461
 11
81.3201
 21
-191.276
  0
LINE
  8
0
 10
81.3201
 20
-191.276
 11
81.5108
 21
-191.117
  0
LINE
  8
0
 10
81.5108
 20
-191.117
 11
81.7227
 21
-190.988
  0
LINE
  8
0
 10
81.7227
 20
-190.988
 11
81.9511
 21
-190.891
  0
LINE
  8
0
 10
81.9511
 20
-190.891
 11
82.1912
 21
-190.828
  0
LINE
  8
0
 10
82.1912
 20
-190.828
 11
82.4379
 21
-190.801
  0
LINE
  8
0
 10
82.4379
 20
-190.801
 11
82.6859
 21
-190.81
  0
LINE
  8
0
 10
82.6859
 20
-190.81
 11
82.93
 21
-190.855
  0
LINE
  8
0
 10
82.93
 20
-190.855
 11
83.1649
 21
-190.935
  0
LINE
  8
0
 10
83.1649
 20
-190.935
 11
83.3856
 21
-191.049
  0
LINE
  8
0
 10
83.3856
 20
-191.049
 11
83.5874
 21
-191.193
  0
LINE
  8
0
 10
83.5874
 20
-191.193
 11
83.7661
 21
-191.366
  0
LINE
  8
0
 10
83.7661
 20
-191.366
 11
83.9178
 21
-191.562
  0
LINE
  8
0
 10
83.9178
 20
-191.562
 11
84.0393
 21
-191.778
  0
LINE
  8
0
 10
84.0393
 20
-191.778
 11
84.1279
 21
-192.01
  0
LINE
  8
0
 10
84.1279
 20
-192.01
 11
84.1819
 21
-192.252
  0
LINE
  8
0
 10
84.1819
 20
-192.252
 11
84.2
 21
-192.5
  0
LINE
  8
0
 10
84.2
 20
-192.5
 11
84.1819
 21
-192.748
  0
LINE
  8
0
 10
84.1819
 20
-192.748
 11
84.1279
 21
-192.99
  0
LINE
  8
0
 10
84.1279
 20
-192.99
 11
84.0393
 21
-193.222
  0
LINE
  8
0
 10
84.0393
 20
-193.222
 11
83.9178
 21
-193.438
  0
LINE
  8
0
 10
83.9178
 20
-193.438
 11
83.7661
 21
-193.634
  0
LINE
  8
0
 10
83.7661
 20
-193.634
 11
83.5874
 21
-193.807
  0
LINE
  8
0
 10
83.5874
 20
-193.807
 11
83.3856
 21
-193.951
  0
LINE
  8
0
 10
83.3856
 20
-193.951
 11
83.1649
 21
-194.065
  0
LINE
  8
0
 10
83.1649
 20
-194.065
 11
82.93
 21
-194.145
  0
LINE
  8
0
 10
82.93
 20
-194.145
 11
82.6859
 21
-194.19
  0
LINE
  8
0
 10
82.6859
 20
-194.19
 11
82.4379
 21
-194.199
  0
LINE
  8
0
 10
82.4379
 20
-194.199
 11
82.1912
 21
-194.172
  0
LINE
  8
0
 10
-0.308777
 20
-194.172
 11
-0.548889
 21
-194.109
  0
LINE
  8
0
 10
-0.548889
 20
-194.109
 11
-0.777298
 21
-194.012
  0
LINE
  8
0
 10
-0.777298
 20
-194.012
 11
-0.989151
 21
-193.883
  0
LINE
  8
0
 10
-0.989151
 20
-193.883
 11
-1.17992
 21
-193.724
  0
LINE
  8
0
 10
-1.17992
 20
-193.724
 11
-1.34554
 21
-193.539
  0
LINE
  8
0
 10
-1.34554
 20
-193.539
 11
-1.48248
 21
-193.332
  0
LINE
  8
0
 10
-1.48248
 20
-193.332
 11
-1.58781
 21
-193.107
  0
LINE
  8
0
 10
-1.58781
 20
-193.107
 11
-1.65932
 21
-192.87
  0
LINE
  8
0
 10
-1.65932
 20
-192.87
 11
-1.69545
 21
-192.624
  0
LINE
  8
0
 10
-1.69545
 20
-192.624
 11
-1.69545
 21
-192.376
  0
LINE
  8
0
 10
-1.69545
 20
-192.376
 11
-1.65932
 21
-192.13
  0
LINE
  8
0
 10
-1.65932
 20
-192.13
 11
-1.58781
 21
-191.893
  0
LINE
  8
0
 10
-1.58781
 20
-191.893
 11
-1.48248
 21
-191.668
  0
LINE
  8
0
 10
-1.48248
 20
-191.668
 11
-1.34554
 21
-191.461
  0
LINE
  8
0
 10
-1.34554
 20
-191.461
 11
-1.17992
 21
-191.276
  0
LINE
  8
0
 10
-1.17992
 20
-191.276
 11
-0.989151
 21
-191.117
  0
LINE
  8
0
 10
-0.989151
 20
-191.117
 11
-0.777298
 21
-190.988
  0
LINE
  8
0
 10
-0.777298
 20
-190.988
 11
-0.548889
 21
-190.891
  0
LINE
  8
0
 10
-0.548889
 20
-190.891
 11
-0.308777
 21
-190.828
  0
LINE
  8
0
 10
-0.308777
 20
-190.828
 11
-0.0620728
 21
-190.801
  0
LINE
  8
0
 10
-0.0620728
 20
-190.801
 11
0.185928
 21
-190.81
  0
LINE
  8
0
 10
0.185928
 20
-190.81
 11
0.429977
 21
-190.855
  0
LINE
  8
0
 10
0.429977
 20
-190.855
 11
0.664871
 21
-190.935
  0
LINE
  8
0
 10
0.664871
 20
-190.935
 11
0.88559
 21
-191.049
  0
LINE
  8
0
 10
0.88559
 20
-191.049
 11
1.08743
 21
-191.193
  0
LINE
  8
0
 10
1.08743
 20
-191.193
 11
1.2661
 21
-191.366
  0
LINE
  8
0
 10
1.2661
 20
-191.366
 11
1.41779
 21
-191.562
  0
LINE
  8
0
 10
1.41779
 20
-191.562
 11
1.53926
 21
-191.778
  0
LINE
  8
0
 10
1.53926
 20
-191.778
 11
1.62791
 21
-192.01
  0
LINE
  8
0
 10
1.62791
 20
-192.01
 11
1.68187
 21
-192.252
  0
LINE
  8
0
 10
1.68187
 20
-192.252
 11
1.7
 21
-192.5
  0
LINE
  8
0
 10
1.7
 20
-192.5
 11
1.68187
 21
-192.748
  0
LINE
  8
0
 10
1.68187
 20
-192.748
 11
1.62791
 21
-192.99
  0
LINE
  8
0
 10
1.62791
 20
-192.99
 11
1.53926
 21
-193.222
  0
LINE
  8
0
 10
1.53926
 20
-193.222
 11
1.41779
 21
-193.438
  0
LINE
  8
0
 10
1.41779
 20
-193.438
 11
1.2661
 21
-193.634
  0
LINE
  8
0
 10
1.2661
 20
-193.634
 11
1.08743
 21
-193.807
  0
LINE
  8
0
 10
1.08743
 20
-193.807
 11
0.88559
 21
-193.951
  0
LINE
  8
0
 10
0.88559
 20
-193.951
 11
0.664871
 21
-194.065
  0
LINE
  8
0
 10
0.664871
 20
-194.065
 11
0.429977
 21
-194.145
  0
LINE
  8
0
 10
0.429977
 20
-194.145
 11
0.185928
 21
-194.19
  0
LINE
  8
0
 10
0.185928
 20
-194.19
 11
-0.0620728
 21
-194.199
  0
LINE
  8
0
 10
-0.0620728
 20
-194.199
 11
-0.308777
 21
-194.172
  0
LINE
  8
0
 10
-82.8088
 20
-194.172
 11
-83.0489
 21
-194.109
  0
LINE
  8
0
 10
-83.0489
 20
-194.109
 11
-83.2773
 21
-194.012
  0
LINE
  8
0
 10
-83.2773
 20
-194.012
 11
-83.4892
 21
-193.883
  0
LINE
  8
0
 10
-83.4892
 20
-193.883
 11
-83.6799
 21
-193.724
  0
LINE
  8
0
 10
-83.6799
 20
-193.724
 11
-83.8455
 21
-193.539
  0
LINE
  8
0
 10
-83.8455
 20
-193.539
 11
-83.9825
 21
-193.332
  0
LINE
  8
0
 10
-83.9825
 20
-193.332
 11
-84.0878
 21
-193.107
  0
LINE
  8
0
 10
-84.0878
 20
-193.107
 11
-84.1593
 21
-192.87
  0
LINE
  8
0
 10
-84.1593
 20
-192.87
 11
-84.1955
 21
-192.624
  0
LINE
  8
0
 10
-84.1955
 20
-192.624
 11
-84.1955
 21
-192.376
  0
LINE
  8
0
 10
-84.1955
 20
-192.376
 11
-84.1593
 21
-192.13
  0
LINE
  8
0
 10
-84.1593
 20
-192.13
 11
-84.0878
 21
-191.893
  0
LINE
  8
0
 10
-84.0878
 20
-191.893
 11
-83.9825
 21
-191.668
  0
LINE
  8
0
 10
-83.9825
 20
-191.668
 11
-83.8455
 21
-191.461
  0
LINE
  8
0
 10
-83.8455
 20
-191.461
 11
-83.6799
 21
-191.276
  0
LINE
  8
0
 10
-83.6799
 20
-191.276
 11
-83.4892
 21
-191.117
  0
LINE
  8
0
 10
-83.4892
 20
-191.117
 11
-83.2773
 21
-190.988
  0
LINE
  8
0
 10
-83.2773
 20
-190.988
 11
-83.0489
 21
-190.891
  0
LINE
  8
0
 10
-83.0489
 20
-190.891
 11
-82.8088
 21
-190.828
  0
LINE
  8
0
 10
-82.8088
 20
-190.828
 11
-82.5621
 21
-190.801
  0
LINE
  8
0
 10
-82.5621
 20
-190.801
 11
-82.3141
 21
-190.81
  0
LINE
  8
0
 10
-82.3141
 20
-190.81
 11
-82.07
 21
-190.855
  0
LINE
  8
0
 10
-82.07
 20
-190.855
 11
-81.8351
 21
-190.935
  0
LINE
  8
0
 10
-81.8351
 20
-190.935
 11
-81.6144
 21
-191.049
  0
LINE
  8
0
 10
-81.6144
 20
-191.049
 11
-81.4126
 21
-191.193
  0
LINE
  8
0
 10
-81.4126
 20
-191.193
 11
-81.2339
 21
-191.366
  0
LINE
  8
0
 10
-81.2339
 20
-191.366
 11
-81.0822
 21
-191.562
  0
LINE
  8
0
 10
-81.0822
 20
-191.562
 11
-80.9607
 21
-191.778
  0
LINE
  8
0
 10
-80.9607
 20
-191.778
 11
-80.8721
 21
-192.01
  0
LINE
  8
0
 10
-80.8721
 20
-192.01
 11
-80.8181
 21
-192.252
  0
LINE
  8
0
 10
-80.8181
 20
-192.252
 11
-80.8
 21
-192.5
  0
LINE
  8
0
 10
-80.8
 20
-192.5
 11
-80.8181
 21
-192.748
  0
LINE
  8
0
 10
-80.8181
 20
-192.748
 11
-80.8721
 21
-192.99
  0
LINE
  8
0
 10
-80.8721
 20
-192.99
 11
-80.9607
 21
-193.222
  0
LINE
  8
0
 10
-80.9607
 20
-193.222
 11
-81.0822
 21
-193.438
  0
LINE
  8
0
 10
-81.0822
 20
-193.438
 11
-81.2339
 21
-193.634
  0
LINE
  8
0
 10
-81.2339
 20
-193.634
 11
-81.4126
 21
-193.807
  0
LINE
  8
0
 10
-81.4126
 20
-193.807
 11
-81.6144
 21
-193.951
  0
LINE
  8
0
 10
-81.6144
 20
-193.951
 11
-81.8351
 21
-194.065
  0
LINE
  8
0
 10
-81.8351
 20
-194.065
 11
-82.07
 21
-194.145
  0
LINE
  8
0
 10
-82.07
 20
-194.145
 11
-82.3141
 21
-194.19
  0
LINE
  8
0
 10
-82.3141
 20
-194.19
 11
-82.5621
 21
-194.199
  0
LINE
  8
0
 10
-82.5621
 20
-194.199
 11
-82.8088
 21
-194.172
  0
ENDSEC
  0
SECTION
  2
OBJECTS
  0
DICTIONARY
  0
ENDSEC
  0
EOF
