  0
SECTION
  2
BLOCKS
  0
ENDSEC
  0
SECTION
  2
ENTITIES
  0
LINE
  8
0
 10
285.523
 20
-206.323
 11
286.04
 21
-206.241
  0
LINE
  8
0
 10
286.04
 20
-206.241
 11
286.545
 21
-206.105
  0
LINE
  8
0
 10
286.545
 20
-206.105
 11
287.034
 21
-205.918
  0
LINE
  8
0
 10
287.034
 20
-205.918
 11
287.5
 21
-205.68
  0
LINE
  8
0
 10
287.5
 20
-205.68
 11
287.939
 21
-205.395
  0
LINE
  8
0
 10
287.939
 20
-205.395
 11
288.346
 21
-205.066
  0
LINE
  8
0
 10
288.346
 20
-205.066
 11
288.716
 21
-204.696
  0
LINE
  8
0
 10
288.716
 20
-204.696
 11
289.045
 21
-204.289
  0
LINE
  8
0
 10
289.045
 20
-204.289
 11
289.33
 21
-203.85
  0
LINE
  8
0
 10
289.33
 20
-203.85
 11
289.568
 21
-203.384
  0
LINE
  8
0
 10
289.568
 20
-203.384
 11
289.755
 21
-202.895
  0
LINE
  8
0
 10
289.755
 20
-202.895
 11
289.891
 21
-202.39
  0
LINE
  8
0
 10
289.891
 20
-202.39
 11
289.973
 21
-201.873
  0
LINE
  8
0
 10
289.973
 20
-201.873
 11
290
 21
-201.35
  0
LINE
  8
0
 10
290
 20
-201.35
 11
290
 21
201.35
  0
LINE
  8
0
 10
290
 20
201.35
 11
289.973
 21
201.873
  0
LINE
  8
0
 10
289.973
 20
201.873
 11
289.891
 21
202.39
  0
LINE
  8
0
 10
289.891
 20
202.39
 11
289.755
 21
202.895
  0
LINE
  8
0
 10
289.755
 20
202.895
 11
289.568
 21
203.384
  0
LINE
  8
0
 10
289.568
 20
203.384
 11
289.33
 21
203.85
  0
LINE
  8
0
 10
289.33
 20
203.85
 11
289.045
 21
204.289
  0
LINE
  8
0
 10
289.045
 20
204.289
 11
288.716
 21
204.696
  0
LINE
  8
0
 10
288.716
 20
204.696
 11
288.346
 21
205.066
  0
LINE
  8
0
 10
288.346
 20
205.066
 11
287.939
 21
205.395
  0
LINE
  8
0
 10
287.939
 20
205.395
 11
287.5
 21
205.68
  0
LINE
  8
0
 10
287.5
 20
205.68
 11
287.034
 21
205.918
  0
LINE
  8
0
 10
287.034
 20
205.918
 11
286.545
 21
206.105
  0
LINE
  8
0
 10
286.545
 20
206.105
 11
286.04
 21
206.241
  0
LINE
  8
0
 10
286.04
 20
206.241
 11
285.523
 21
206.323
  0
LINE
  8
0
 10
285.523
 20
206.323
 11
285
 21
206.35
  0
LINE
  8
0
 10
285
 20
206.35
 11
-285
 21
206.35
  0
LINE
  8
0
 10
-285
 20
206.35
 11
-285.523
 21
206.323
  0
LINE
  8
0
 10
-285.523
 20
206.323
 11
-286.04
 21
206.241
  0
LINE
  8
0
 10
-286.04
 20
206.241
 11
-286.545
 21
206.105
  0
LINE
  8
0
 10
-286.545
 20
206.105
 11
-287.034
 21
205.918
  0
LINE
  8
0
 10
-287.034
 20
205.918
 11
-287.5
 21
205.68
  0
LINE
  8
0
 10
-287.5
 20
205.68
 11
-287.939
 21
205.395
  0
LINE
  8
0
 10
-287.939
 20
205.395
 11
-288.346
 21
205.066
  0
LINE
  8
0
 10
-288.346
 20
205.066
 11
-288.716
 21
204.696
  0
LINE
  8
0
 10
-288.716
 20
204.696
 11
-289.045
 21
204.289
  0
LINE
  8
0
 10
-289.045
 20
204.289
 11
-289.33
 21
203.85
  0
LINE
  8
0
 10
-289.33
 20
203.85
 11
-289.568
 21
203.384
  0
LINE
  8
0
 10
-289.568
 20
203.384
 11
-289.755
 21
202.895
  0
LINE
  8
0
 10
-289.755
 20
202.895
 11
-289.891
 21
202.39
  0
LINE
  8
0
 10
-289.891
 20
202.39
 11
-289.973
 21
201.873
  0
LINE
  8
0
 10
-289.973
 20
201.873
 11
-290
 21
201.35
  0
LINE
  8
0
 10
-290
 20
201.35
 11
-290
 21
-201.35
  0
LINE
  8
0
 10
-290
 20
-201.35
 11
-289.973
 21
-201.873
  0
LINE
  8
0
 10
-289.973
 20
-201.873
 11
-289.891
 21
-202.39
  0
LINE
  8
0
 10
-289.891
 20
-202.39
 11
-289.755
 21
-202.895
  0
LINE
  8
0
 10
-289.755
 20
-202.895
 11
-289.568
 21
-203.384
  0
LINE
  8
0
 10
-289.568
 20
-203.384
 11
-289.33
 21
-203.85
  0
LINE
  8
0
 10
-289.33
 20
-203.85
 11
-289.045
 21
-204.289
  0
LINE
  8
0
 10
-289.045
 20
-204.289
 11
-288.716
 21
-204.696
  0
LINE
  8
0
 10
-288.716
 20
-204.696
 11
-288.346
 21
-205.066
  0
LINE
  8
0
 10
-288.346
 20
-205.066
 11
-287.939
 21
-205.395
  0
LINE
  8
0
 10
-287.939
 20
-205.395
 11
-287.5
 21
-205.68
  0
LINE
  8
0
 10
-287.5
 20
-205.68
 11
-287.034
 21
-205.918
  0
LINE
  8
0
 10
-287.034
 20
-205.918
 11
-286.545
 21
-206.105
  0
LINE
  8
0
 10
-286.545
 20
-206.105
 11
-286.04
 21
-206.241
  0
LINE
  8
0
 10
-286.04
 20
-206.241
 11
-285.523
 21
-206.323
  0
LINE
  8
0
 10
-285.523
 20
-206.323
 11
-285
 21
-206.35
  0
LINE
  8
0
 10
-285
 20
-206.35
 11
285
 21
-206.35
  0
LINE
  8
0
 10
285
 20
-206.35
 11
285.523
 21
-206.323
  0
LINE
  8
0
 10
207.108
 20
188.771
 11
206.72
 21
188.832
  0
LINE
  8
0
 10
206.72
 20
188.832
 11
206.341
 21
188.934
  0
LINE
  8
0
 10
206.341
 20
188.934
 11
205.975
 21
189.074
  0
LINE
  8
0
 10
205.975
 20
189.074
 11
205.625
 21
189.252
  0
LINE
  8
0
 10
205.625
 20
189.252
 11
205.296
 21
189.466
  0
LINE
  8
0
 10
205.296
 20
189.466
 11
204.991
 21
189.713
  0
LINE
  8
0
 10
204.991
 20
189.713
 11
204.713
 21
189.991
  0
LINE
  8
0
 10
204.713
 20
189.991
 11
204.466
 21
190.296
  0
LINE
  8
0
 10
204.466
 20
190.296
 11
204.252
 21
190.625
  0
LINE
  8
0
 10
204.252
 20
190.625
 11
204.074
 21
190.975
  0
LINE
  8
0
 10
204.074
 20
190.975
 11
203.934
 21
191.341
  0
LINE
  8
0
 10
203.934
 20
191.341
 11
203.832
 21
191.72
  0
LINE
  8
0
 10
203.832
 20
191.72
 11
203.771
 21
192.108
  0
LINE
  8
0
 10
203.771
 20
192.108
 11
203.75
 21
192.5
  0
LINE
  8
0
 10
203.75
 20
192.5
 11
203.771
 21
192.892
  0
LINE
  8
0
 10
203.771
 20
192.892
 11
203.832
 21
193.28
  0
LINE
  8
0
 10
203.832
 20
193.28
 11
203.934
 21
193.659
  0
LINE
  8
0
 10
203.934
 20
193.659
 11
204.074
 21
194.025
  0
LINE
  8
0
 10
204.074
 20
194.025
 11
204.252
 21
194.375
  0
LINE
  8
0
 10
204.252
 20
194.375
 11
204.466
 21
194.704
  0
LINE
  8
0
 10
204.466
 20
194.704
 11
204.713
 21
195.009
  0
LINE
  8
0
 10
204.713
 20
195.009
 11
204.991
 21
195.287
  0
LINE
  8
0
 10
204.991
 20
195.287
 11
205.296
 21
195.534
  0
LINE
  8
0
 10
205.296
 20
195.534
 11
205.625
 21
195.748
  0
LINE
  8
0
 10
205.625
 20
195.748
 11
205.975
 21
195.926
  0
LINE
  8
0
 10
205.975
 20
195.926
 11
206.341
 21
196.066
  0
LINE
  8
0
 10
206.341
 20
196.066
 11
206.72
 21
196.168
  0
LINE
  8
0
 10
206.72
 20
196.168
 11
207.108
 21
196.229
  0
LINE
  8
0
 10
207.108
 20
196.229
 11
207.5
 21
196.25
  0
LINE
  8
0
 10
207.5
 20
196.25
 11
207.892
 21
196.229
  0
LINE
  8
0
 10
207.892
 20
196.229
 11
208.28
 21
196.168
  0
LINE
  8
0
 10
208.28
 20
196.168
 11
208.659
 21
196.066
  0
LINE
  8
0
 10
208.659
 20
196.066
 11
209.025
 21
195.926
  0
LINE
  8
0
 10
209.025
 20
195.926
 11
209.375
 21
195.748
  0
LINE
  8
0
 10
209.375
 20
195.748
 11
209.704
 21
195.534
  0
LINE
  8
0
 10
209.704
 20
195.534
 11
210.009
 21
195.287
  0
LINE
  8
0
 10
210.009
 20
195.287
 11
210.287
 21
195.009
  0
LINE
  8
0
 10
210.287
 20
195.009
 11
210.534
 21
194.704
  0
LINE
  8
0
 10
210.534
 20
194.704
 11
210.748
 21
194.375
  0
LINE
  8
0
 10
210.748
 20
194.375
 11
210.926
 21
194.025
  0
LINE
  8
0
 10
210.926
 20
194.025
 11
211.066
 21
193.659
  0
LINE
  8
0
 10
211.066
 20
193.659
 11
211.168
 21
193.28
  0
LINE
  8
0
 10
211.168
 20
193.28
 11
211.229
 21
192.892
  0
LINE
  8
0
 10
211.229
 20
192.892
 11
211.25
 21
192.5
  0
LINE
  8
0
 10
211.25
 20
192.5
 11
211.229
 21
192.108
  0
LINE
  8
0
 10
211.229
 20
192.108
 11
211.168
 21
191.72
  0
LINE
  8
0
 10
211.168
 20
191.72
 11
211.066
 21
191.341
  0
LINE
  8
0
 10
211.066
 20
191.341
 11
210.926
 21
190.975
  0
LINE
  8
0
 10
210.926
 20
190.975
 11
210.748
 21
190.625
  0
LINE
  8
0
 10
210.748
 20
190.625
 11
210.534
 21
190.296
  0
LINE
  8
0
 10
210.534
 20
190.296
 11
210.287
 21
189.991
  0
LINE
  8
0
 10
210.287
 20
189.991
 11
210.009
 21
189.713
  0
LINE
  8
0
 10
210.009
 20
189.713
 11
209.704
 21
189.466
  0
LINE
  8
0
 10
209.704
 20
189.466
 11
209.375
 21
189.252
  0
LINE
  8
0
 10
209.375
 20
189.252
 11
209.025
 21
189.074
  0
LINE
  8
0
 10
209.025
 20
189.074
 11
208.659
 21
188.934
  0
LINE
  8
0
 10
208.659
 20
188.934
 11
208.28
 21
188.832
  0
LINE
  8
0
 10
208.28
 20
188.832
 11
207.892
 21
188.771
  0
LINE
  8
0
 10
207.892
 20
188.771
 11
207.5
 21
188.75
  0
LINE
  8
0
 10
207.5
 20
188.75
 11
207.108
 21
188.771
  0
LINE
  8
0
 10
-207.892
 20
188.771
 11
-208.28
 21
188.832
  0
LINE
  8
0
 10
-208.28
 20
188.832
 11
-208.659
 21
188.934
  0
LINE
  8
0
 10
-208.659
 20
188.934
 11
-209.025
 21
189.074
  0
LINE
  8
0
 10
-209.025
 20
189.074
 11
-209.375
 21
189.252
  0
LINE
  8
0
 10
-209.375
 20
189.252
 11
-209.704
 21
189.466
  0
LINE
  8
0
 10
-209.704
 20
189.466
 11
-210.009
 21
189.713
  0
LINE
  8
0
 10
-210.009
 20
189.713
 11
-210.287
 21
189.991
  0
LINE
  8
0
 10
-210.287
 20
189.991
 11
-210.534
 21
190.296
  0
LINE
  8
0
 10
-210.534
 20
190.296
 11
-210.748
 21
190.625
  0
LINE
  8
0
 10
-210.748
 20
190.625
 11
-210.926
 21
190.975
  0
LINE
  8
0
 10
-210.926
 20
190.975
 11
-211.066
 21
191.341
  0
LINE
  8
0
 10
-211.066
 20
191.341
 11
-211.168
 21
191.72
  0
LINE
  8
0
 10
-211.168
 20
191.72
 11
-211.229
 21
192.108
  0
LINE
  8
0
 10
-211.229
 20
192.108
 11
-211.25
 21
192.5
  0
LINE
  8
0
 10
-211.25
 20
192.5
 11
-211.229
 21
192.892
  0
LINE
  8
0
 10
-211.229
 20
192.892
 11
-211.168
 21
193.28
  0
LINE
  8
0
 10
-211.168
 20
193.28
 11
-211.066
 21
193.659
  0
LINE
  8
0
 10
-211.066
 20
193.659
 11
-210.926
 21
194.025
  0
LINE
  8
0
 10
-210.926
 20
194.025
 11
-210.748
 21
194.375
  0
LINE
  8
0
 10
-210.748
 20
194.375
 11
-210.534
 21
194.704
  0
LINE
  8
0
 10
-210.534
 20
194.704
 11
-210.287
 21
195.009
  0
LINE
  8
0
 10
-210.287
 20
195.009
 11
-210.009
 21
195.287
  0
LINE
  8
0
 10
-210.009
 20
195.287
 11
-209.704
 21
195.534
  0
LINE
  8
0
 10
-209.704
 20
195.534
 11
-209.375
 21
195.748
  0
LINE
  8
0
 10
-209.375
 20
195.748
 11
-209.025
 21
195.926
  0
LINE
  8
0
 10
-209.025
 20
195.926
 11
-208.659
 21
196.066
  0
LINE
  8
0
 10
-208.659
 20
196.066
 11
-208.28
 21
196.168
  0
LINE
  8
0
 10
-208.28
 20
196.168
 11
-207.892
 21
196.229
  0
LINE
  8
0
 10
-207.892
 20
196.229
 11
-207.5
 21
196.25
  0
LINE
  8
0
 10
-207.5
 20
196.25
 11
-207.108
 21
196.229
  0
LINE
  8
0
 10
-207.108
 20
196.229
 11
-206.72
 21
196.168
  0
LINE
  8
0
 10
-206.72
 20
196.168
 11
-206.341
 21
196.066
  0
LINE
  8
0
 10
-206.341
 20
196.066
 11
-205.975
 21
195.926
  0
LINE
  8
0
 10
-205.975
 20
195.926
 11
-205.625
 21
195.748
  0
LINE
  8
0
 10
-205.625
 20
195.748
 11
-205.296
 21
195.534
  0
LINE
  8
0
 10
-205.296
 20
195.534
 11
-204.991
 21
195.287
  0
LINE
  8
0
 10
-204.991
 20
195.287
 11
-204.713
 21
195.009
  0
LINE
  8
0
 10
-204.713
 20
195.009
 11
-204.466
 21
194.704
  0
LINE
  8
0
 10
-204.466
 20
194.704
 11
-204.252
 21
194.375
  0
LINE
  8
0
 10
-204.252
 20
194.375
 11
-204.074
 21
194.025
  0
LINE
  8
0
 10
-204.074
 20
194.025
 11
-203.934
 21
193.659
  0
LINE
  8
0
 10
-203.934
 20
193.659
 11
-203.832
 21
193.28
  0
LINE
  8
0
 10
-203.832
 20
193.28
 11
-203.771
 21
192.892
  0
LINE
  8
0
 10
-203.771
 20
192.892
 11
-203.75
 21
192.5
  0
LINE
  8
0
 10
-203.75
 20
192.5
 11
-203.771
 21
192.108
  0
LINE
  8
0
 10
-203.771
 20
192.108
 11
-203.832
 21
191.72
  0
LINE
  8
0
 10
-203.832
 20
191.72
 11
-203.934
 21
191.341
  0
LINE
  8
0
 10
-203.934
 20
191.341
 11
-204.074
 21
190.975
  0
LINE
  8
0
 10
-204.074
 20
190.975
 11
-204.252
 21
190.625
  0
LINE
  8
0
 10
-204.252
 20
190.625
 11
-204.466
 21
190.296
  0
LINE
  8
0
 10
-204.466
 20
190.296
 11
-204.713
 21
189.991
  0
LINE
  8
0
 10
-204.713
 20
189.991
 11
-204.991
 21
189.713
  0
LINE
  8
0
 10
-204.991
 20
189.713
 11
-205.296
 21
189.466
  0
LINE
  8
0
 10
-205.296
 20
189.466
 11
-205.625
 21
189.252
  0
LINE
  8
0
 10
-205.625
 20
189.252
 11
-205.975
 21
189.074
  0
LINE
  8
0
 10
-205.975
 20
189.074
 11
-206.341
 21
188.934
  0
LINE
  8
0
 10
-206.341
 20
188.934
 11
-206.72
 21
188.832
  0
LINE
  8
0
 10
-206.72
 20
188.832
 11
-207.108
 21
188.771
  0
LINE
  8
0
 10
-207.108
 20
188.771
 11
-207.5
 21
188.75
  0
LINE
  8
0
 10
-207.5
 20
188.75
 11
-207.892
 21
188.771
  0
LINE
  8
0
 10
264.377
 20
191.855
 11
264.133
 21
191.891
  0
LINE
  8
0
 10
264.133
 20
191.891
 11
263.897
 21
191.964
  0
LINE
  8
0
 10
263.897
 20
191.964
 11
263.675
 21
192.071
  0
LINE
  8
0
 10
263.675
 20
192.071
 11
263.471
 21
192.21
  0
LINE
  8
0
 10
263.471
 20
192.21
 11
263.29
 21
192.378
  0
LINE
  8
0
 10
263.29
 20
192.378
 11
263.137
 21
192.571
  0
LINE
  8
0
 10
263.137
 20
192.571
 11
263.013
 21
192.784
  0
LINE
  8
0
 10
263.013
 20
192.784
 11
262.923
 21
193.014
  0
LINE
  8
0
 10
262.923
 20
193.014
 11
262.868
 21
193.254
  0
LINE
  8
0
 10
262.868
 20
193.254
 11
262.85
 21
193.5
  0
LINE
  8
0
 10
262.85
 20
193.5
 11
262.868
 21
193.746
  0
LINE
  8
0
 10
262.868
 20
193.746
 11
262.923
 21
193.986
  0
LINE
  8
0
 10
262.923
 20
193.986
 11
263.013
 21
194.216
  0
LINE
  8
0
 10
263.013
 20
194.216
 11
263.137
 21
194.429
  0
LINE
  8
0
 10
263.137
 20
194.429
 11
263.29
 21
194.622
  0
LINE
  8
0
 10
263.29
 20
194.622
 11
263.471
 21
194.79
  0
LINE
  8
0
 10
263.471
 20
194.79
 11
263.675
 21
194.929
  0
LINE
  8
0
 10
263.675
 20
194.929
 11
263.897
 21
195.036
  0
LINE
  8
0
 10
263.897
 20
195.036
 11
264.133
 21
195.109
  0
LINE
  8
0
 10
264.133
 20
195.109
 11
264.377
 21
195.145
  0
LINE
  8
0
 10
264.377
 20
195.145
 11
272.623
 21
195.145
  0
LINE
  8
0
 10
272.623
 20
195.145
 11
272.867
 21
195.109
  0
LINE
  8
0
 10
272.867
 20
195.109
 11
273.103
 21
195.036
  0
LINE
  8
0
 10
273.103
 20
195.036
 11
273.325
 21
194.929
  0
LINE
  8
0
 10
273.325
 20
194.929
 11
273.529
 21
194.79
  0
LINE
  8
0
 10
273.529
 20
194.79
 11
273.71
 21
194.622
  0
LINE
  8
0
 10
273.71
 20
194.622
 11
273.863
 21
194.429
  0
LINE
  8
0
 10
273.863
 20
194.429
 11
273.987
 21
194.216
  0
LINE
  8
0
 10
273.987
 20
194.216
 11
274.077
 21
193.986
  0
LINE
  8
0
 10
274.077
 20
193.986
 11
274.132
 21
193.746
  0
LINE
  8
0
 10
274.132
 20
193.746
 11
274.15
 21
193.5
  0
LINE
  8
0
 10
274.15
 20
193.5
 11
274.132
 21
193.254
  0
LINE
  8
0
 10
274.132
 20
193.254
 11
274.077
 21
193.014
  0
LINE
  8
0
 10
274.077
 20
193.014
 11
273.987
 21
192.784
  0
LINE
  8
0
 10
273.987
 20
192.784
 11
273.863
 21
192.571
  0
LINE
  8
0
 10
273.863
 20
192.571
 11
273.71
 21
192.378
  0
LINE
  8
0
 10
273.71
 20
192.378
 11
273.529
 21
192.21
  0
LINE
  8
0
 10
273.529
 20
192.21
 11
273.325
 21
192.071
  0
LINE
  8
0
 10
273.325
 20
192.071
 11
273.103
 21
191.964
  0
LINE
  8
0
 10
273.103
 20
191.964
 11
272.867
 21
191.891
  0
LINE
  8
0
 10
272.867
 20
191.891
 11
272.623
 21
191.855
  0
LINE
  8
0
 10
272.623
 20
191.855
 11
264.377
 21
191.855
  0
LINE
  8
0
 10
233.377
 20
191.855
 11
233.133
 21
191.891
  0
LINE
  8
0
 10
233.133
 20
191.891
 11
232.897
 21
191.964
  0
LINE
  8
0
 10
232.897
 20
191.964
 11
232.675
 21
192.071
  0
LINE
  8
0
 10
232.675
 20
192.071
 11
232.471
 21
192.21
  0
LINE
  8
0
 10
232.471
 20
192.21
 11
232.29
 21
192.378
  0
LINE
  8
0
 10
232.29
 20
192.378
 11
232.137
 21
192.571
  0
LINE
  8
0
 10
232.137
 20
192.571
 11
232.013
 21
192.784
  0
LINE
  8
0
 10
232.013
 20
192.784
 11
231.923
 21
193.014
  0
LINE
  8
0
 10
231.923
 20
193.014
 11
231.868
 21
193.254
  0
LINE
  8
0
 10
231.868
 20
193.254
 11
231.85
 21
193.5
  0
LINE
  8
0
 10
231.85
 20
193.5
 11
231.868
 21
193.746
  0
LINE
  8
0
 10
231.868
 20
193.746
 11
231.923
 21
193.986
  0
LINE
  8
0
 10
231.923
 20
193.986
 11
232.013
 21
194.216
  0
LINE
  8
0
 10
232.013
 20
194.216
 11
232.137
 21
194.429
  0
LINE
  8
0
 10
232.137
 20
194.429
 11
232.29
 21
194.622
  0
LINE
  8
0
 10
232.29
 20
194.622
 11
232.471
 21
194.79
  0
LINE
  8
0
 10
232.471
 20
194.79
 11
232.675
 21
194.929
  0
LINE
  8
0
 10
232.675
 20
194.929
 11
232.897
 21
195.036
  0
LINE
  8
0
 10
232.897
 20
195.036
 11
233.133
 21
195.109
  0
LINE
  8
0
 10
233.133
 20
195.109
 11
233.377
 21
195.145
  0
LINE
  8
0
 10
233.377
 20
195.145
 11
241.623
 21
195.145
  0
LINE
  8
0
 10
241.623
 20
195.145
 11
241.867
 21
195.109
  0
LINE
  8
0
 10
241.867
 20
195.109
 11
242.103
 21
195.036
  0
LINE
  8
0
 10
242.103
 20
195.036
 11
242.325
 21
194.929
  0
LINE
  8
0
 10
242.325
 20
194.929
 11
242.529
 21
194.79
  0
LINE
  8
0
 10
242.529
 20
194.79
 11
242.71
 21
194.622
  0
LINE
  8
0
 10
242.71
 20
194.622
 11
242.863
 21
194.429
  0
LINE
  8
0
 10
242.863
 20
194.429
 11
242.987
 21
194.216
  0
LINE
  8
0
 10
242.987
 20
194.216
 11
243.077
 21
193.986
  0
LINE
  8
0
 10
243.077
 20
193.986
 11
243.132
 21
193.746
  0
LINE
  8
0
 10
243.132
 20
193.746
 11
243.15
 21
193.5
  0
LINE
  8
0
 10
243.15
 20
193.5
 11
243.132
 21
193.254
  0
LINE
  8
0
 10
243.132
 20
193.254
 11
243.077
 21
193.014
  0
LINE
  8
0
 10
243.077
 20
193.014
 11
242.987
 21
192.784
  0
LINE
  8
0
 10
242.987
 20
192.784
 11
242.863
 21
192.571
  0
LINE
  8
0
 10
242.863
 20
192.571
 11
242.71
 21
192.378
  0
LINE
  8
0
 10
242.71
 20
192.378
 11
242.529
 21
192.21
  0
LINE
  8
0
 10
242.529
 20
192.21
 11
242.325
 21
192.071
  0
LINE
  8
0
 10
242.325
 20
192.071
 11
242.103
 21
191.964
  0
LINE
  8
0
 10
242.103
 20
191.964
 11
241.867
 21
191.891
  0
LINE
  8
0
 10
241.867
 20
191.891
 11
241.623
 21
191.855
  0
LINE
  8
0
 10
241.623
 20
191.855
 11
233.377
 21
191.855
  0
LINE
  8
0
 10
62.5
 20
190.75
 11
62.2509
 21
190.768
  0
LINE
  8
0
 10
62.2509
 20
190.768
 11
62.007
 21
190.821
  0
LINE
  8
0
 10
62.007
 20
190.821
 11
61.773
 21
190.908
  0
LINE
  8
0
 10
61.773
 20
190.908
 11
61.5539
 21
191.028
  0
LINE
  8
0
 10
61.5539
 20
191.028
 11
61.354
 21
191.177
  0
LINE
  8
0
 10
61.354
 20
191.177
 11
61.1774
 21
191.354
  0
LINE
  8
0
 10
61.1774
 20
191.354
 11
61.0278
 21
191.554
  0
LINE
  8
0
 10
61.0278
 20
191.554
 11
60.9081
 21
191.773
  0
LINE
  8
0
 10
60.9081
 20
191.773
 11
60.8209
 21
192.007
  0
LINE
  8
0
 10
60.8209
 20
192.007
 11
60.7678
 21
192.251
  0
LINE
  8
0
 10
60.7678
 20
192.251
 11
60.75
 21
192.5
  0
LINE
  8
0
 10
60.75
 20
192.5
 11
60.7678
 21
192.749
  0
LINE
  8
0
 10
60.7678
 20
192.749
 11
60.8209
 21
192.993
  0
LINE
  8
0
 10
60.8209
 20
192.993
 11
60.9081
 21
193.227
  0
LINE
  8
0
 10
60.9081
 20
193.227
 11
61.0278
 21
193.446
  0
LINE
  8
0
 10
61.0278
 20
193.446
 11
61.1774
 21
193.646
  0
LINE
  8
0
 10
61.1774
 20
193.646
 11
61.354
 21
193.823
  0
LINE
  8
0
 10
61.354
 20
193.823
 11
61.5539
 21
193.972
  0
LINE
  8
0
 10
61.5539
 20
193.972
 11
61.773
 21
194.092
  0
LINE
  8
0
 10
61.773
 20
194.092
 11
62.007
 21
194.179
  0
LINE
  8
0
 10
62.007
 20
194.179
 11
62.2509
 21
194.232
  0
LINE
  8
0
 10
62.2509
 20
194.232
 11
62.5
 21
194.25
  0
LINE
  8
0
 10
62.5
 20
194.25
 11
152.5
 21
194.25
  0
LINE
  8
0
 10
152.5
 20
194.25
 11
152.749
 21
194.232
  0
LINE
  8
0
 10
152.749
 20
194.232
 11
152.993
 21
194.179
  0
LINE
  8
0
 10
152.993
 20
194.179
 11
153.227
 21
194.092
  0
LINE
  8
0
 10
153.227
 20
194.092
 11
153.446
 21
193.972
  0
LINE
  8
0
 10
153.446
 20
193.972
 11
153.646
 21
193.823
  0
LINE
  8
0
 10
153.646
 20
193.823
 11
153.823
 21
193.646
  0
LINE
  8
0
 10
153.823
 20
193.646
 11
153.972
 21
193.446
  0
LINE
  8
0
 10
153.972
 20
193.446
 11
154.092
 21
193.227
  0
LINE
  8
0
 10
154.092
 20
193.227
 11
154.179
 21
192.993
  0
LINE
  8
0
 10
154.179
 20
192.993
 11
154.232
 21
192.749
  0
LINE
  8
0
 10
154.232
 20
192.749
 11
154.25
 21
192.5
  0
LINE
  8
0
 10
154.25
 20
192.5
 11
154.232
 21
192.251
  0
LINE
  8
0
 10
154.232
 20
192.251
 11
154.179
 21
192.007
  0
LINE
  8
0
 10
154.179
 20
192.007
 11
154.092
 21
191.773
  0
LINE
  8
0
 10
154.092
 20
191.773
 11
153.972
 21
191.554
  0
LINE
  8
0
 10
153.972
 20
191.554
 11
153.823
 21
191.354
  0
LINE
  8
0
 10
153.823
 20
191.354
 11
153.646
 21
191.177
  0
LINE
  8
0
 10
153.646
 20
191.177
 11
153.446
 21
191.028
  0
LINE
  8
0
 10
153.446
 20
191.028
 11
153.227
 21
190.908
  0
LINE
  8
0
 10
153.227
 20
190.908
 11
152.993
 21
190.821
  0
LINE
  8
0
 10
152.993
 20
190.821
 11
152.749
 21
190.768
  0
LINE
  8
0
 10
152.749
 20
190.768
 11
152.5
 21
190.75
  0
LINE
  8
0
 10
152.5
 20
190.75
 11
62.5
 21
190.75
  0
LINE
  8
0
 10
-157.5
 20
190.75
 11
-157.749
 21
190.768
  0
LINE
  8
0
 10
-157.749
 20
190.768
 11
-157.993
 21
190.821
  0
LINE
  8
0
 10
-157.993
 20
190.821
 11
-158.227
 21
190.908
  0
LINE
  8
0
 10
-158.227
 20
190.908
 11
-158.446
 21
191.028
  0
LINE
  8
0
 10
-158.446
 20
191.028
 11
-158.646
 21
191.177
  0
LINE
  8
0
 10
-158.646
 20
191.177
 11
-158.823
 21
191.354
  0
LINE
  8
0
 10
-158.823
 20
191.354
 11
-158.972
 21
191.554
  0
LINE
  8
0
 10
-158.972
 20
191.554
 11
-159.092
 21
191.773
  0
LINE
  8
0
 10
-159.092
 20
191.773
 11
-159.179
 21
192.007
  0
LINE
  8
0
 10
-159.179
 20
192.007
 11
-159.232
 21
192.251
  0
LINE
  8
0
 10
-159.232
 20
192.251
 11
-159.25
 21
192.5
  0
LINE
  8
0
 10
-159.25
 20
192.5
 11
-159.232
 21
192.749
  0
LINE
  8
0
 10
-159.232
 20
192.749
 11
-159.179
 21
192.993
  0
LINE
  8
0
 10
-159.179
 20
192.993
 11
-159.092
 21
193.227
  0
LINE
  8
0
 10
-159.092
 20
193.227
 11
-158.972
 21
193.446
  0
LINE
  8
0
 10
-158.972
 20
193.446
 11
-158.823
 21
193.646
  0
LINE
  8
0
 10
-158.823
 20
193.646
 11
-158.646
 21
193.823
  0
LINE
  8
0
 10
-158.646
 20
193.823
 11
-158.446
 21
193.972
  0
LINE
  8
0
 10
-158.446
 20
193.972
 11
-158.227
 21
194.092
  0
LINE
  8
0
 10
-158.227
 20
194.092
 11
-157.993
 21
194.179
  0
LINE
  8
0
 10
-157.993
 20
194.179
 11
-157.749
 21
194.232
  0
LINE
  8
0
 10
-157.749
 20
194.232
 11
-157.5
 21
194.25
  0
LINE
  8
0
 10
-157.5
 20
194.25
 11
-67.5
 21
194.25
  0
LINE
  8
0
 10
-67.5
 20
194.25
 11
-67.2509
 21
194.232
  0
LINE
  8
0
 10
-67.2509
 20
194.232
 11
-67.007
 21
194.179
  0
LINE
  8
0
 10
-67.007
 20
194.179
 11
-66.773
 21
194.092
  0
LINE
  8
0
 10
-66.773
 20
194.092
 11
-66.5539
 21
193.972
  0
LINE
  8
0
 10
-66.5539
 20
193.972
 11
-66.354
 21
193.823
  0
LINE
  8
0
 10
-66.354
 20
193.823
 11
-66.1774
 21
193.646
  0
LINE
  8
0
 10
-66.1774
 20
193.646
 11
-66.0278
 21
193.446
  0
LINE
  8
0
 10
-66.0278
 20
193.446
 11
-65.9081
 21
193.227
  0
LINE
  8
0
 10
-65.9081
 20
193.227
 11
-65.8209
 21
192.993
  0
LINE
  8
0
 10
-65.8209
 20
192.993
 11
-65.7678
 21
192.749
  0
LINE
  8
0
 10
-65.7678
 20
192.749
 11
-65.75
 21
192.5
  0
LINE
  8
0
 10
-65.75
 20
192.5
 11
-65.7678
 21
192.251
  0
LINE
  8
0
 10
-65.7678
 20
192.251
 11
-65.8209
 21
192.007
  0
LINE
  8
0
 10
-65.8209
 20
192.007
 11
-65.9081
 21
191.773
  0
LINE
  8
0
 10
-65.9081
 20
191.773
 11
-66.0278
 21
191.554
  0
LINE
  8
0
 10
-66.0278
 20
191.554
 11
-66.1774
 21
191.354
  0
LINE
  8
0
 10
-66.1774
 20
191.354
 11
-66.354
 21
191.177
  0
LINE
  8
0
 10
-66.354
 20
191.177
 11
-66.5539
 21
191.028
  0
LINE
  8
0
 10
-66.5539
 20
191.028
 11
-66.773
 21
190.908
  0
LINE
  8
0
 10
-66.773
 20
190.908
 11
-67.007
 21
190.821
  0
LINE
  8
0
 10
-67.007
 20
190.821
 11
-67.2509
 21
190.768
  0
LINE
  8
0
 10
-67.2509
 20
190.768
 11
-67.5
 21
190.75
  0
LINE
  8
0
 10
-67.5
 20
190.75
 11
-157.5
 21
190.75
  0
LINE
  8
0
 10
-47.5
 20
190.75
 11
-47.749
 21
190.768
  0
LINE
  8
0
 10
-47.749
 20
190.768
 11
-47.993
 21
190.821
  0
LINE
  8
0
 10
-47.993
 20
190.821
 11
-48.227
 21
190.908
  0
LINE
  8
0
 10
-48.227
 20
190.908
 11
-48.4461
 21
191.028
  0
LINE
  8
0
 10
-48.4461
 20
191.028
 11
-48.646
 21
191.177
  0
LINE
  8
0
 10
-48.646
 20
191.177
 11
-48.8226
 21
191.354
  0
LINE
  8
0
 10
-48.8226
 20
191.354
 11
-48.9722
 21
191.554
  0
LINE
  8
0
 10
-48.9722
 20
191.554
 11
-49.0918
 21
191.773
  0
LINE
  8
0
 10
-49.0918
 20
191.773
 11
-49.1791
 21
192.007
  0
LINE
  8
0
 10
-49.1791
 20
192.007
 11
-49.2322
 21
192.251
  0
LINE
  8
0
 10
-49.2322
 20
192.251
 11
-49.25
 21
192.5
  0
LINE
  8
0
 10
-49.25
 20
192.5
 11
-49.2322
 21
192.749
  0
LINE
  8
0
 10
-49.2322
 20
192.749
 11
-49.1791
 21
192.993
  0
LINE
  8
0
 10
-49.1791
 20
192.993
 11
-49.0918
 21
193.227
  0
LINE
  8
0
 10
-49.0918
 20
193.227
 11
-48.9722
 21
193.446
  0
LINE
  8
0
 10
-48.9722
 20
193.446
 11
-48.8226
 21
193.646
  0
LINE
  8
0
 10
-48.8226
 20
193.646
 11
-48.646
 21
193.823
  0
LINE
  8
0
 10
-48.646
 20
193.823
 11
-48.4461
 21
193.972
  0
LINE
  8
0
 10
-48.4461
 20
193.972
 11
-48.227
 21
194.092
  0
LINE
  8
0
 10
-48.227
 20
194.092
 11
-47.993
 21
194.179
  0
LINE
  8
0
 10
-47.993
 20
194.179
 11
-47.749
 21
194.232
  0
LINE
  8
0
 10
-47.749
 20
194.232
 11
-47.5
 21
194.25
  0
LINE
  8
0
 10
-47.5
 20
194.25
 11
42.5
 21
194.25
  0
LINE
  8
0
 10
42.5
 20
194.25
 11
42.749
 21
194.232
  0
LINE
  8
0
 10
42.749
 20
194.232
 11
42.993
 21
194.179
  0
LINE
  8
0
 10
42.993
 20
194.179
 11
43.227
 21
194.092
  0
LINE
  8
0
 10
43.227
 20
194.092
 11
43.4461
 21
193.972
  0
LINE
  8
0
 10
43.4461
 20
193.972
 11
43.646
 21
193.823
  0
LINE
  8
0
 10
43.646
 20
193.823
 11
43.8226
 21
193.646
  0
LINE
  8
0
 10
43.8226
 20
193.646
 11
43.9722
 21
193.446
  0
LINE
  8
0
 10
43.9722
 20
193.446
 11
44.0918
 21
193.227
  0
LINE
  8
0
 10
44.0918
 20
193.227
 11
44.1791
 21
192.993
  0
LINE
  8
0
 10
44.1791
 20
192.993
 11
44.2322
 21
192.749
  0
LINE
  8
0
 10
44.2322
 20
192.749
 11
44.25
 21
192.5
  0
LINE
  8
0
 10
44.25
 20
192.5
 11
44.2322
 21
192.251
  0
LINE
  8
0
 10
44.2322
 20
192.251
 11
44.1791
 21
192.007
  0
LINE
  8
0
 10
44.1791
 20
192.007
 11
44.0918
 21
191.773
  0
LINE
  8
0
 10
44.0918
 20
191.773
 11
43.9722
 21
191.554
  0
LINE
  8
0
 10
43.9722
 20
191.554
 11
43.8226
 21
191.354
  0
LINE
  8
0
 10
43.8226
 20
191.354
 11
43.646
 21
191.177
  0
LINE
  8
0
 10
43.646
 20
191.177
 11
43.4461
 21
191.028
  0
LINE
  8
0
 10
43.4461
 20
191.028
 11
43.227
 21
190.908
  0
LINE
  8
0
 10
43.227
 20
190.908
 11
42.993
 21
190.821
  0
LINE
  8
0
 10
42.993
 20
190.821
 11
42.749
 21
190.768
  0
LINE
  8
0
 10
42.749
 20
190.768
 11
42.5
 21
190.75
  0
LINE
  8
0
 10
42.5
 20
190.75
 11
-47.5
 21
190.75
  0
LINE
  8
0
 10
-185.186
 20
190.81
 11
-185.43
 21
190.855
  0
LINE
  8
0
 10
-185.43
 20
190.855
 11
-185.665
 21
190.935
  0
LINE
  8
0
 10
-185.665
 20
190.935
 11
-185.886
 21
191.049
  0
LINE
  8
0
 10
-185.886
 20
191.049
 11
-186.087
 21
191.193
  0
LINE
  8
0
 10
-186.087
 20
191.193
 11
-186.266
 21
191.366
  0
LINE
  8
0
 10
-186.266
 20
191.366
 11
-186.418
 21
191.562
  0
LINE
  8
0
 10
-186.418
 20
191.562
 11
-186.539
 21
191.778
  0
LINE
  8
0
 10
-186.539
 20
191.778
 11
-186.628
 21
192.01
  0
LINE
  8
0
 10
-186.628
 20
192.01
 11
-186.682
 21
192.252
  0
LINE
  8
0
 10
-186.682
 20
192.252
 11
-186.7
 21
192.5
  0
LINE
  8
0
 10
-186.7
 20
192.5
 11
-186.682
 21
192.748
  0
LINE
  8
0
 10
-186.682
 20
192.748
 11
-186.628
 21
192.99
  0
LINE
  8
0
 10
-186.628
 20
192.99
 11
-186.539
 21
193.222
  0
LINE
  8
0
 10
-186.539
 20
193.222
 11
-186.418
 21
193.438
  0
LINE
  8
0
 10
-186.418
 20
193.438
 11
-186.266
 21
193.634
  0
LINE
  8
0
 10
-186.266
 20
193.634
 11
-186.087
 21
193.807
  0
LINE
  8
0
 10
-186.087
 20
193.807
 11
-185.886
 21
193.951
  0
LINE
  8
0
 10
-185.886
 20
193.951
 11
-185.665
 21
194.065
  0
LINE
  8
0
 10
-185.665
 20
194.065
 11
-185.43
 21
194.145
  0
LINE
  8
0
 10
-185.43
 20
194.145
 11
-185.186
 21
194.19
  0
LINE
  8
0
 10
-185.186
 20
194.19
 11
-184.938
 21
194.199
  0
LINE
  8
0
 10
-184.938
 20
194.199
 11
-184.691
 21
194.172
  0
LINE
  8
0
 10
-184.691
 20
194.172
 11
-184.451
 21
194.109
  0
LINE
  8
0
 10
-184.451
 20
194.109
 11
-184.223
 21
194.012
  0
LINE
  8
0
 10
-184.223
 20
194.012
 11
-184.011
 21
193.883
  0
LINE
  8
0
 10
-184.011
 20
193.883
 11
-183.82
 21
193.724
  0
LINE
  8
0
 10
-183.82
 20
193.724
 11
-183.654
 21
193.539
  0
LINE
  8
0
 10
-183.654
 20
193.539
 11
-183.518
 21
193.332
  0
LINE
  8
0
 10
-183.518
 20
193.332
 11
-183.412
 21
193.107
  0
LINE
  8
0
 10
-183.412
 20
193.107
 11
-183.341
 21
192.87
  0
LINE
  8
0
 10
-183.341
 20
192.87
 11
-183.305
 21
192.624
  0
LINE
  8
0
 10
-183.305
 20
192.624
 11
-183.305
 21
192.376
  0
LINE
  8
0
 10
-183.305
 20
192.376
 11
-183.341
 21
192.13
  0
LINE
  8
0
 10
-183.341
 20
192.13
 11
-183.412
 21
191.893
  0
LINE
  8
0
 10
-183.412
 20
191.893
 11
-183.518
 21
191.668
  0
LINE
  8
0
 10
-183.518
 20
191.668
 11
-183.654
 21
191.461
  0
LINE
  8
0
 10
-183.654
 20
191.461
 11
-183.82
 21
191.276
  0
LINE
  8
0
 10
-183.82
 20
191.276
 11
-184.011
 21
191.117
  0
LINE
  8
0
 10
-184.011
 20
191.117
 11
-184.223
 21
190.988
  0
LINE
  8
0
 10
-184.223
 20
190.988
 11
-184.451
 21
190.891
  0
LINE
  8
0
 10
-184.451
 20
190.891
 11
-184.691
 21
190.828
  0
LINE
  8
0
 10
-184.691
 20
190.828
 11
-184.938
 21
190.801
  0
LINE
  8
0
 10
-184.938
 20
190.801
 11
-185.186
 21
190.81
  0
LINE
  8
0
 10
184.691
 20
190.828
 11
184.451
 21
190.891
  0
LINE
  8
0
 10
184.451
 20
190.891
 11
184.223
 21
190.988
  0
LINE
  8
0
 10
184.223
 20
190.988
 11
184.011
 21
191.117
  0
LINE
  8
0
 10
184.011
 20
191.117
 11
183.82
 21
191.276
  0
LINE
  8
0
 10
183.82
 20
191.276
 11
183.654
 21
191.461
  0
LINE
  8
0
 10
183.654
 20
191.461
 11
183.518
 21
191.668
  0
LINE
  8
0
 10
183.518
 20
191.668
 11
183.412
 21
191.893
  0
LINE
  8
0
 10
183.412
 20
191.893
 11
183.341
 21
192.13
  0
LINE
  8
0
 10
183.341
 20
192.13
 11
183.305
 21
192.376
  0
LINE
  8
0
 10
183.305
 20
192.376
 11
183.305
 21
192.624
  0
LINE
  8
0
 10
183.305
 20
192.624
 11
183.341
 21
192.87
  0
LINE
  8
0
 10
183.341
 20
192.87
 11
183.412
 21
193.107
  0
LINE
  8
0
 10
183.412
 20
193.107
 11
183.518
 21
193.332
  0
LINE
  8
0
 10
183.518
 20
193.332
 11
183.654
 21
193.539
  0
LINE
  8
0
 10
183.654
 20
193.539
 11
183.82
 21
193.724
  0
LINE
  8
0
 10
183.82
 20
193.724
 11
184.011
 21
193.883
  0
LINE
  8
0
 10
184.011
 20
193.883
 11
184.223
 21
194.012
  0
LINE
  8
0
 10
184.223
 20
194.012
 11
184.451
 21
194.109
  0
LINE
  8
0
 10
184.451
 20
194.109
 11
184.691
 21
194.172
  0
LINE
  8
0
 10
184.691
 20
194.172
 11
184.938
 21
194.199
  0
LINE
  8
0
 10
184.938
 20
194.199
 11
185.186
 21
194.19
  0
LINE
  8
0
 10
185.186
 20
194.19
 11
185.43
 21
194.145
  0
LINE
  8
0
 10
185.43
 20
194.145
 11
185.665
 21
194.065
  0
LINE
  8
0
 10
185.665
 20
194.065
 11
185.886
 21
193.951
  0
LINE
  8
0
 10
185.886
 20
193.951
 11
186.087
 21
193.807
  0
LINE
  8
0
 10
186.087
 20
193.807
 11
186.266
 21
193.634
  0
LINE
  8
0
 10
186.266
 20
193.634
 11
186.418
 21
193.438
  0
LINE
  8
0
 10
186.418
 20
193.438
 11
186.539
 21
193.222
  0
LINE
  8
0
 10
186.539
 20
193.222
 11
186.628
 21
192.99
  0
LINE
  8
0
 10
186.628
 20
192.99
 11
186.682
 21
192.748
  0
LINE
  8
0
 10
186.682
 20
192.748
 11
186.7
 21
192.5
  0
LINE
  8
0
 10
186.7
 20
192.5
 11
186.682
 21
192.252
  0
LINE
  8
0
 10
186.682
 20
192.252
 11
186.628
 21
192.01
  0
LINE
  8
0
 10
186.628
 20
192.01
 11
186.539
 21
191.778
  0
LINE
  8
0
 10
186.539
 20
191.778
 11
186.418
 21
191.562
  0
LINE
  8
0
 10
186.418
 20
191.562
 11
186.266
 21
191.366
  0
LINE
  8
0
 10
186.266
 20
191.366
 11
186.087
 21
191.193
  0
LINE
  8
0
 10
186.087
 20
191.193
 11
185.886
 21
191.049
  0
LINE
  8
0
 10
185.886
 20
191.049
 11
185.665
 21
190.935
  0
LINE
  8
0
 10
185.665
 20
190.935
 11
185.43
 21
190.855
  0
LINE
  8
0
 10
185.43
 20
190.855
 11
185.186
 21
190.81
  0
LINE
  8
0
 10
185.186
 20
190.81
 11
184.938
 21
190.801
  0
LINE
  8
0
 10
184.938
 20
190.801
 11
184.691
 21
190.828
  0
LINE
  8
0
 10
248.5
 20
165.5
 11
247.193
 21
165.568
  0
LINE
  8
0
 10
247.193
 20
165.568
 11
245.901
 21
165.773
  0
LINE
  8
0
 10
245.901
 20
165.773
 11
244.637
 21
166.112
  0
LINE
  8
0
 10
244.637
 20
166.112
 11
243.416
 21
166.581
  0
LINE
  8
0
 10
243.416
 20
166.581
 11
242.25
 21
167.175
  0
LINE
  8
0
 10
242.25
 20
167.175
 11
241.153
 21
167.887
  0
LINE
  8
0
 10
241.153
 20
167.887
 11
240.136
 21
168.711
  0
LINE
  8
0
 10
240.136
 20
168.711
 11
239.211
 21
169.636
  0
LINE
  8
0
 10
239.211
 20
169.636
 11
238.387
 21
170.653
  0
LINE
  8
0
 10
238.387
 20
170.653
 11
237.675
 21
171.75
  0
LINE
  8
0
 10
237.675
 20
171.75
 11
237.081
 21
172.916
  0
LINE
  8
0
 10
237.081
 20
172.916
 11
236.612
 21
174.137
  0
LINE
  8
0
 10
236.612
 20
174.137
 11
236.273
 21
175.401
  0
LINE
  8
0
 10
236.273
 20
175.401
 11
236.068
 21
176.693
  0
LINE
  8
0
 10
236.068
 20
176.693
 11
236
 21
178
  0
LINE
  8
0
 10
236
 20
178
 11
236.068
 21
179.307
  0
LINE
  8
0
 10
236.068
 20
179.307
 11
236.273
 21
180.599
  0
LINE
  8
0
 10
236.273
 20
180.599
 11
236.612
 21
181.863
  0
LINE
  8
0
 10
236.612
 20
181.863
 11
237.081
 21
183.084
  0
LINE
  8
0
 10
237.081
 20
183.084
 11
237.675
 21
184.25
  0
LINE
  8
0
 10
237.675
 20
184.25
 11
238.387
 21
185.347
  0
LINE
  8
0
 10
238.387
 20
185.347
 11
239.211
 21
186.364
  0
LINE
  8
0
 10
239.211
 20
186.364
 11
240.136
 21
187.289
  0
LINE
  8
0
 10
240.136
 20
187.289
 11
241.153
 21
188.113
  0
LINE
  8
0
 10
241.153
 20
188.113
 11
242.25
 21
188.825
  0
LINE
  8
0
 10
242.25
 20
188.825
 11
243.416
 21
189.419
  0
LINE
  8
0
 10
243.416
 20
189.419
 11
244.637
 21
189.888
  0
LINE
  8
0
 10
244.637
 20
189.888
 11
245.901
 21
190.227
  0
LINE
  8
0
 10
245.901
 20
190.227
 11
247.193
 21
190.432
  0
LINE
  8
0
 10
247.193
 20
190.432
 11
248.5
 21
190.5
  0
LINE
  8
0
 10
248.5
 20
190.5
 11
256.5
 21
190.5
  0
LINE
  8
0
 10
256.5
 20
190.5
 11
257.807
 21
190.432
  0
LINE
  8
0
 10
257.807
 20
190.432
 11
259.099
 21
190.227
  0
LINE
  8
0
 10
259.099
 20
190.227
 11
260.363
 21
189.888
  0
LINE
  8
0
 10
260.363
 20
189.888
 11
261.584
 21
189.419
  0
LINE
  8
0
 10
261.584
 20
189.419
 11
262.75
 21
188.825
  0
LINE
  8
0
 10
262.75
 20
188.825
 11
263.847
 21
188.113
  0
LINE
  8
0
 10
263.847
 20
188.113
 11
264.864
 21
187.289
  0
LINE
  8
0
 10
264.864
 20
187.289
 11
265.789
 21
186.364
  0
LINE
  8
0
 10
265.789
 20
186.364
 11
266.613
 21
185.347
  0
LINE
  8
0
 10
266.613
 20
185.347
 11
267.325
 21
184.25
  0
LINE
  8
0
 10
267.325
 20
184.25
 11
267.919
 21
183.084
  0
LINE
  8
0
 10
267.919
 20
183.084
 11
268.388
 21
181.863
  0
LINE
  8
0
 10
268.388
 20
181.863
 11
268.727
 21
180.599
  0
LINE
  8
0
 10
268.727
 20
180.599
 11
268.932
 21
179.307
  0
LINE
  8
0
 10
268.932
 20
179.307
 11
269
 21
178
  0
LINE
  8
0
 10
269
 20
178
 11
268.932
 21
176.693
  0
LINE
  8
0
 10
268.932
 20
176.693
 11
268.727
 21
175.401
  0
LINE
  8
0
 10
268.727
 20
175.401
 11
268.388
 21
174.137
  0
LINE
  8
0
 10
268.388
 20
174.137
 11
267.919
 21
172.916
  0
LINE
  8
0
 10
267.919
 20
172.916
 11
267.325
 21
171.75
  0
LINE
  8
0
 10
267.325
 20
171.75
 11
266.613
 21
170.653
  0
LINE
  8
0
 10
266.613
 20
170.653
 11
265.789
 21
169.636
  0
LINE
  8
0
 10
265.789
 20
169.636
 11
264.864
 21
168.711
  0
LINE
  8
0
 10
264.864
 20
168.711
 11
263.847
 21
167.887
  0
LINE
  8
0
 10
263.847
 20
167.887
 11
262.75
 21
167.175
  0
LINE
  8
0
 10
262.75
 20
167.175
 11
261.584
 21
166.581
  0
LINE
  8
0
 10
261.584
 20
166.581
 11
260.363
 21
166.112
  0
LINE
  8
0
 10
260.363
 20
166.112
 11
259.099
 21
165.773
  0
LINE
  8
0
 10
259.099
 20
165.773
 11
257.807
 21
165.568
  0
LINE
  8
0
 10
257.807
 20
165.568
 11
256.5
 21
165.5
  0
LINE
  8
0
 10
256.5
 20
165.5
 11
248.5
 21
165.5
  0
LINE
  8
0
 10
-199
 20
-185
 11
-199.223
 21
-184.975
  0
LINE
  8
0
 10
-199.223
 20
-184.975
 11
-199.434
 21
-184.901
  0
LINE
  8
0
 10
-199.434
 20
-184.901
 11
-199.623
 21
-184.782
  0
LINE
  8
0
 10
-199.623
 20
-184.782
 11
-199.782
 21
-184.623
  0
LINE
  8
0
 10
-199.782
 20
-184.623
 11
-199.901
 21
-184.434
  0
LINE
  8
0
 10
-199.901
 20
-184.434
 11
-199.975
 21
-184.223
  0
LINE
  8
0
 10
-199.975
 20
-184.223
 11
-200
 21
-184
  0
LINE
  8
0
 10
-200
 20
-184
 11
-200
 21
184
  0
LINE
  8
0
 10
-200
 20
184
 11
-199.975
 21
184.223
  0
LINE
  8
0
 10
-199.975
 20
184.223
 11
-199.901
 21
184.434
  0
LINE
  8
0
 10
-199.901
 20
184.434
 11
-199.782
 21
184.623
  0
LINE
  8
0
 10
-199.782
 20
184.623
 11
-199.623
 21
184.782
  0
LINE
  8
0
 10
-199.623
 20
184.782
 11
-199.434
 21
184.901
  0
LINE
  8
0
 10
-199.434
 20
184.901
 11
-199.223
 21
184.975
  0
LINE
  8
0
 10
-199.223
 20
184.975
 11
-199
 21
185
  0
LINE
  8
0
 10
-199
 20
185
 11
199
 21
185
  0
LINE
  8
0
 10
199
 20
185
 11
199.223
 21
184.975
  0
LINE
  8
0
 10
199.223
 20
184.975
 11
199.434
 21
184.901
  0
LINE
  8
0
 10
199.434
 20
184.901
 11
199.623
 21
184.782
  0
LINE
  8
0
 10
199.623
 20
184.782
 11
199.782
 21
184.623
  0
LINE
  8
0
 10
199.782
 20
184.623
 11
199.901
 21
184.434
  0
LINE
  8
0
 10
199.901
 20
184.434
 11
199.975
 21
184.223
  0
LINE
  8
0
 10
199.975
 20
184.223
 11
200
 21
184
  0
LINE
  8
0
 10
200
 20
184
 11
200
 21
-184
  0
LINE
  8
0
 10
200
 20
-184
 11
199.975
 21
-184.223
  0
LINE
  8
0
 10
199.975
 20
-184.223
 11
199.901
 21
-184.434
  0
LINE
  8
0
 10
199.901
 20
-184.434
 11
199.782
 21
-184.623
  0
LINE
  8
0
 10
199.782
 20
-184.623
 11
199.623
 21
-184.782
  0
LINE
  8
0
 10
199.623
 20
-184.782
 11
199.434
 21
-184.901
  0
LINE
  8
0
 10
199.434
 20
-184.901
 11
199.223
 21
-184.975
  0
LINE
  8
0
 10
199.223
 20
-184.975
 11
199
 21
-185
  0
LINE
  8
0
 10
199
 20
-185
 11
-199
 21
-185
  0
LINE
  8
0
 10
-255.244
 20
176.774
 11
-255.478
 21
176.845
  0
LINE
  8
0
 10
-255.478
 20
176.845
 11
-255.694
 21
176.961
  0
LINE
  8
0
 10
-255.694
 20
176.961
 11
-255.884
 21
177.116
  0
LINE
  8
0
 10
-255.884
 20
177.116
 11
-256.039
 21
177.306
  0
LINE
  8
0
 10
-256.039
 20
177.306
 11
-256.155
 21
177.522
  0
LINE
  8
0
 10
-256.155
 20
177.522
 11
-256.226
 21
177.756
  0
LINE
  8
0
 10
-256.226
 20
177.756
 11
-256.25
 21
178
  0
LINE
  8
0
 10
-256.25
 20
178
 11
-256.226
 21
178.244
  0
LINE
  8
0
 10
-256.226
 20
178.244
 11
-256.155
 21
178.478
  0
LINE
  8
0
 10
-256.155
 20
178.478
 11
-256.039
 21
178.694
  0
LINE
  8
0
 10
-256.039
 20
178.694
 11
-255.884
 21
178.884
  0
LINE
  8
0
 10
-255.884
 20
178.884
 11
-255.694
 21
179.039
  0
LINE
  8
0
 10
-255.694
 20
179.039
 11
-255.478
 21
179.155
  0
LINE
  8
0
 10
-255.478
 20
179.155
 11
-255.244
 21
179.226
  0
LINE
  8
0
 10
-255.244
 20
179.226
 11
-255
 21
179.25
  0
LINE
  8
0
 10
-255
 20
179.25
 11
-254.756
 21
179.226
  0
LINE
  8
0
 10
-254.756
 20
179.226
 11
-254.522
 21
179.155
  0
LINE
  8
0
 10
-254.522
 20
179.155
 11
-254.306
 21
179.039
  0
LINE
  8
0
 10
-254.306
 20
179.039
 11
-254.116
 21
178.884
  0
LINE
  8
0
 10
-254.116
 20
178.884
 11
-253.961
 21
178.694
  0
LINE
  8
0
 10
-253.961
 20
178.694
 11
-253.845
 21
178.478
  0
LINE
  8
0
 10
-253.845
 20
178.478
 11
-253.774
 21
178.244
  0
LINE
  8
0
 10
-253.774
 20
178.244
 11
-253.75
 21
178
  0
LINE
  8
0
 10
-253.75
 20
178
 11
-253.774
 21
177.756
  0
LINE
  8
0
 10
-253.774
 20
177.756
 11
-253.845
 21
177.522
  0
LINE
  8
0
 10
-253.845
 20
177.522
 11
-253.961
 21
177.306
  0
LINE
  8
0
 10
-253.961
 20
177.306
 11
-254.116
 21
177.116
  0
LINE
  8
0
 10
-254.116
 20
177.116
 11
-254.306
 21
176.961
  0
LINE
  8
0
 10
-254.306
 20
176.961
 11
-254.522
 21
176.845
  0
LINE
  8
0
 10
-254.522
 20
176.845
 11
-254.756
 21
176.774
  0
LINE
  8
0
 10
-254.756
 20
176.774
 11
-255
 21
176.75
  0
LINE
  8
0
 10
-255
 20
176.75
 11
-255.244
 21
176.774
  0
LINE
  8
0
 10
207.191
 20
168.328
 11
206.951
 21
168.391
  0
LINE
  8
0
 10
206.951
 20
168.391
 11
206.723
 21
168.488
  0
LINE
  8
0
 10
206.723
 20
168.488
 11
206.511
 21
168.617
  0
LINE
  8
0
 10
206.511
 20
168.617
 11
206.32
 21
168.776
  0
LINE
  8
0
 10
206.32
 20
168.776
 11
206.154
 21
168.961
  0
LINE
  8
0
 10
206.154
 20
168.961
 11
206.018
 21
169.168
  0
LINE
  8
0
 10
206.018
 20
169.168
 11
205.912
 21
169.393
  0
LINE
  8
0
 10
205.912
 20
169.393
 11
205.841
 21
169.63
  0
LINE
  8
0
 10
205.841
 20
169.63
 11
205.805
 21
169.876
  0
LINE
  8
0
 10
205.805
 20
169.876
 11
205.805
 21
170.124
  0
LINE
  8
0
 10
205.805
 20
170.124
 11
205.841
 21
170.37
  0
LINE
  8
0
 10
205.841
 20
170.37
 11
205.912
 21
170.607
  0
LINE
  8
0
 10
205.912
 20
170.607
 11
206.018
 21
170.832
  0
LINE
  8
0
 10
206.018
 20
170.832
 11
206.154
 21
171.039
  0
LINE
  8
0
 10
206.154
 20
171.039
 11
206.32
 21
171.224
  0
LINE
  8
0
 10
206.32
 20
171.224
 11
206.511
 21
171.383
  0
LINE
  8
0
 10
206.511
 20
171.383
 11
206.723
 21
171.512
  0
LINE
  8
0
 10
206.723
 20
171.512
 11
206.951
 21
171.609
  0
LINE
  8
0
 10
206.951
 20
171.609
 11
207.191
 21
171.672
  0
LINE
  8
0
 10
207.191
 20
171.672
 11
207.438
 21
171.699
  0
LINE
  8
0
 10
207.438
 20
171.699
 11
207.686
 21
171.69
  0
LINE
  8
0
 10
207.686
 20
171.69
 11
207.93
 21
171.645
  0
LINE
  8
0
 10
207.93
 20
171.645
 11
208.165
 21
171.565
  0
LINE
  8
0
 10
208.165
 20
171.565
 11
208.386
 21
171.451
  0
LINE
  8
0
 10
208.386
 20
171.451
 11
208.587
 21
171.307
  0
LINE
  8
0
 10
208.587
 20
171.307
 11
208.766
 21
171.134
  0
LINE
  8
0
 10
208.766
 20
171.134
 11
208.918
 21
170.938
  0
LINE
  8
0
 10
208.918
 20
170.938
 11
209.039
 21
170.722
  0
LINE
  8
0
 10
209.039
 20
170.722
 11
209.128
 21
170.49
  0
LINE
  8
0
 10
209.128
 20
170.49
 11
209.182
 21
170.248
  0
LINE
  8
0
 10
209.182
 20
170.248
 11
209.2
 21
170
  0
LINE
  8
0
 10
209.2
 20
170
 11
209.182
 21
169.752
  0
LINE
  8
0
 10
209.182
 20
169.752
 11
209.128
 21
169.51
  0
LINE
  8
0
 10
209.128
 20
169.51
 11
209.039
 21
169.278
  0
LINE
  8
0
 10
209.039
 20
169.278
 11
208.918
 21
169.062
  0
LINE
  8
0
 10
208.918
 20
169.062
 11
208.766
 21
168.866
  0
LINE
  8
0
 10
208.766
 20
168.866
 11
208.587
 21
168.693
  0
LINE
  8
0
 10
208.587
 20
168.693
 11
208.386
 21
168.549
  0
LINE
  8
0
 10
208.386
 20
168.549
 11
208.165
 21
168.435
  0
LINE
  8
0
 10
208.165
 20
168.435
 11
207.93
 21
168.355
  0
LINE
  8
0
 10
207.93
 20
168.355
 11
207.686
 21
168.31
  0
LINE
  8
0
 10
207.686
 20
168.31
 11
207.438
 21
168.301
  0
LINE
  8
0
 10
207.438
 20
168.301
 11
207.191
 21
168.328
  0
LINE
  8
0
 10
-207.686
 20
168.31
 11
-207.93
 21
168.355
  0
LINE
  8
0
 10
-207.93
 20
168.355
 11
-208.165
 21
168.435
  0
LINE
  8
0
 10
-208.165
 20
168.435
 11
-208.386
 21
168.549
  0
LINE
  8
0
 10
-208.386
 20
168.549
 11
-208.587
 21
168.693
  0
LINE
  8
0
 10
-208.587
 20
168.693
 11
-208.766
 21
168.866
  0
LINE
  8
0
 10
-208.766
 20
168.866
 11
-208.918
 21
169.062
  0
LINE
  8
0
 10
-208.918
 20
169.062
 11
-209.039
 21
169.278
  0
LINE
  8
0
 10
-209.039
 20
169.278
 11
-209.128
 21
169.51
  0
LINE
  8
0
 10
-209.128
 20
169.51
 11
-209.182
 21
169.752
  0
LINE
  8
0
 10
-209.182
 20
169.752
 11
-209.2
 21
170
  0
LINE
  8
0
 10
-209.2
 20
170
 11
-209.182
 21
170.248
  0
LINE
  8
0
 10
-209.182
 20
170.248
 11
-209.128
 21
170.49
  0
LINE
  8
0
 10
-209.128
 20
170.49
 11
-209.039
 21
170.722
  0
LINE
  8
0
 10
-209.039
 20
170.722
 11
-208.918
 21
170.938
  0
LINE
  8
0
 10
-208.918
 20
170.938
 11
-208.766
 21
171.134
  0
LINE
  8
0
 10
-208.766
 20
171.134
 11
-208.587
 21
171.307
  0
LINE
  8
0
 10
-208.587
 20
171.307
 11
-208.386
 21
171.451
  0
LINE
  8
0
 10
-208.386
 20
171.451
 11
-208.165
 21
171.565
  0
LINE
  8
0
 10
-208.165
 20
171.565
 11
-207.93
 21
171.645
  0
LINE
  8
0
 10
-207.93
 20
171.645
 11
-207.686
 21
171.69
  0
LINE
  8
0
 10
-207.686
 20
171.69
 11
-207.438
 21
171.699
  0
LINE
  8
0
 10
-207.438
 20
171.699
 11
-207.191
 21
171.672
  0
LINE
  8
0
 10
-207.191
 20
171.672
 11
-206.951
 21
171.609
  0
LINE
  8
0
 10
-206.951
 20
171.609
 11
-206.723
 21
171.512
  0
LINE
  8
0
 10
-206.723
 20
171.512
 11
-206.511
 21
171.383
  0
LINE
  8
0
 10
-206.511
 20
171.383
 11
-206.32
 21
171.224
  0
LINE
  8
0
 10
-206.32
 20
171.224
 11
-206.154
 21
171.039
  0
LINE
  8
0
 10
-206.154
 20
171.039
 11
-206.018
 21
170.832
  0
LINE
  8
0
 10
-206.018
 20
170.832
 11
-205.912
 21
170.607
  0
LINE
  8
0
 10
-205.912
 20
170.607
 11
-205.841
 21
170.37
  0
LINE
  8
0
 10
-205.841
 20
170.37
 11
-205.805
 21
170.124
  0
LINE
  8
0
 10
-205.805
 20
170.124
 11
-205.805
 21
169.876
  0
LINE
  8
0
 10
-205.805
 20
169.876
 11
-205.841
 21
169.63
  0
LINE
  8
0
 10
-205.841
 20
169.63
 11
-205.912
 21
169.393
  0
LINE
  8
0
 10
-205.912
 20
169.393
 11
-206.018
 21
169.168
  0
LINE
  8
0
 10
-206.018
 20
169.168
 11
-206.154
 21
168.961
  0
LINE
  8
0
 10
-206.154
 20
168.961
 11
-206.32
 21
168.776
  0
LINE
  8
0
 10
-206.32
 20
168.776
 11
-206.511
 21
168.617
  0
LINE
  8
0
 10
-206.511
 20
168.617
 11
-206.723
 21
168.488
  0
LINE
  8
0
 10
-206.723
 20
168.488
 11
-206.951
 21
168.391
  0
LINE
  8
0
 10
-206.951
 20
168.391
 11
-207.191
 21
168.328
  0
LINE
  8
0
 10
-207.191
 20
168.328
 11
-207.438
 21
168.301
  0
LINE
  8
0
 10
-207.438
 20
168.301
 11
-207.686
 21
168.31
  0
LINE
  8
0
 10
-234.744
 20
165.774
 11
-234.978
 21
165.845
  0
LINE
  8
0
 10
-234.978
 20
165.845
 11
-235.194
 21
165.961
  0
LINE
  8
0
 10
-235.194
 20
165.961
 11
-235.384
 21
166.116
  0
LINE
  8
0
 10
-235.384
 20
166.116
 11
-235.539
 21
166.306
  0
LINE
  8
0
 10
-235.539
 20
166.306
 11
-235.655
 21
166.522
  0
LINE
  8
0
 10
-235.655
 20
166.522
 11
-235.726
 21
166.756
  0
LINE
  8
0
 10
-235.726
 20
166.756
 11
-235.75
 21
167
  0
LINE
  8
0
 10
-235.75
 20
167
 11
-235.726
 21
167.244
  0
LINE
  8
0
 10
-235.726
 20
167.244
 11
-235.655
 21
167.478
  0
LINE
  8
0
 10
-235.655
 20
167.478
 11
-235.539
 21
167.694
  0
LINE
  8
0
 10
-235.539
 20
167.694
 11
-235.384
 21
167.884
  0
LINE
  8
0
 10
-235.384
 20
167.884
 11
-235.194
 21
168.039
  0
LINE
  8
0
 10
-235.194
 20
168.039
 11
-234.978
 21
168.155
  0
LINE
  8
0
 10
-234.978
 20
168.155
 11
-234.744
 21
168.226
  0
LINE
  8
0
 10
-234.744
 20
168.226
 11
-234.5
 21
168.25
  0
LINE
  8
0
 10
-234.5
 20
168.25
 11
-234.256
 21
168.226
  0
LINE
  8
0
 10
-234.256
 20
168.226
 11
-234.022
 21
168.155
  0
LINE
  8
0
 10
-234.022
 20
168.155
 11
-233.806
 21
168.039
  0
LINE
  8
0
 10
-233.806
 20
168.039
 11
-233.616
 21
167.884
  0
LINE
  8
0
 10
-233.616
 20
167.884
 11
-233.461
 21
167.694
  0
LINE
  8
0
 10
-233.461
 20
167.694
 11
-233.345
 21
167.478
  0
LINE
  8
0
 10
-233.345
 20
167.478
 11
-233.274
 21
167.244
  0
LINE
  8
0
 10
-233.274
 20
167.244
 11
-233.25
 21
167
  0
LINE
  8
0
 10
-233.25
 20
167
 11
-233.274
 21
166.756
  0
LINE
  8
0
 10
-233.274
 20
166.756
 11
-233.345
 21
166.522
  0
LINE
  8
0
 10
-233.345
 20
166.522
 11
-233.461
 21
166.306
  0
LINE
  8
0
 10
-233.461
 20
166.306
 11
-233.616
 21
166.116
  0
LINE
  8
0
 10
-233.616
 20
166.116
 11
-233.806
 21
165.961
  0
LINE
  8
0
 10
-233.806
 20
165.961
 11
-234.022
 21
165.845
  0
LINE
  8
0
 10
-234.022
 20
165.845
 11
-234.256
 21
165.774
  0
LINE
  8
0
 10
-234.256
 20
165.774
 11
-234.5
 21
165.75
  0
LINE
  8
0
 10
-234.5
 20
165.75
 11
-234.744
 21
165.774
  0
LINE
  8
0
 10
233.377
 20
160.855
 11
233.133
 21
160.891
  0
LINE
  8
0
 10
233.133
 20
160.891
 11
232.897
 21
160.964
  0
LINE
  8
0
 10
232.897
 20
160.964
 11
232.675
 21
161.071
  0
LINE
  8
0
 10
232.675
 20
161.071
 11
232.471
 21
161.21
  0
LINE
  8
0
 10
232.471
 20
161.21
 11
232.29
 21
161.378
  0
LINE
  8
0
 10
232.29
 20
161.378
 11
232.137
 21
161.571
  0
LINE
  8
0
 10
232.137
 20
161.571
 11
232.013
 21
161.784
  0
LINE
  8
0
 10
232.013
 20
161.784
 11
231.923
 21
162.014
  0
LINE
  8
0
 10
231.923
 20
162.014
 11
231.868
 21
162.254
  0
LINE
  8
0
 10
231.868
 20
162.254
 11
231.85
 21
162.5
  0
LINE
  8
0
 10
231.85
 20
162.5
 11
231.868
 21
162.746
  0
LINE
  8
0
 10
231.868
 20
162.746
 11
231.923
 21
162.986
  0
LINE
  8
0
 10
231.923
 20
162.986
 11
232.013
 21
163.216
  0
LINE
  8
0
 10
232.013
 20
163.216
 11
232.137
 21
163.429
  0
LINE
  8
0
 10
232.137
 20
163.429
 11
232.29
 21
163.622
  0
LINE
  8
0
 10
232.29
 20
163.622
 11
232.471
 21
163.79
  0
LINE
  8
0
 10
232.471
 20
163.79
 11
232.675
 21
163.929
  0
LINE
  8
0
 10
232.675
 20
163.929
 11
232.897
 21
164.036
  0
LINE
  8
0
 10
232.897
 20
164.036
 11
233.133
 21
164.109
  0
LINE
  8
0
 10
233.133
 20
164.109
 11
233.377
 21
164.145
  0
LINE
  8
0
 10
233.377
 20
164.145
 11
241.623
 21
164.145
  0
LINE
  8
0
 10
241.623
 20
164.145
 11
241.867
 21
164.109
  0
LINE
  8
0
 10
241.867
 20
164.109
 11
242.103
 21
164.036
  0
LINE
  8
0
 10
242.103
 20
164.036
 11
242.325
 21
163.929
  0
LINE
  8
0
 10
242.325
 20
163.929
 11
242.529
 21
163.79
  0
LINE
  8
0
 10
242.529
 20
163.79
 11
242.71
 21
163.622
  0
LINE
  8
0
 10
242.71
 20
163.622
 11
242.863
 21
163.429
  0
LINE
  8
0
 10
242.863
 20
163.429
 11
242.987
 21
163.216
  0
LINE
  8
0
 10
242.987
 20
163.216
 11
243.077
 21
162.986
  0
LINE
  8
0
 10
243.077
 20
162.986
 11
243.132
 21
162.746
  0
LINE
  8
0
 10
243.132
 20
162.746
 11
243.15
 21
162.5
  0
LINE
  8
0
 10
243.15
 20
162.5
 11
243.132
 21
162.254
  0
LINE
  8
0
 10
243.132
 20
162.254
 11
243.077
 21
162.014
  0
LINE
  8
0
 10
243.077
 20
162.014
 11
242.987
 21
161.784
  0
LINE
  8
0
 10
242.987
 20
161.784
 11
242.863
 21
161.571
  0
LINE
  8
0
 10
242.863
 20
161.571
 11
242.71
 21
161.378
  0
LINE
  8
0
 10
242.71
 20
161.378
 11
242.529
 21
161.21
  0
LINE
  8
0
 10
242.529
 20
161.21
 11
242.325
 21
161.071
  0
LINE
  8
0
 10
242.325
 20
161.071
 11
242.103
 21
160.964
  0
LINE
  8
0
 10
242.103
 20
160.964
 11
241.867
 21
160.891
  0
LINE
  8
0
 10
241.867
 20
160.891
 11
241.623
 21
160.855
  0
LINE
  8
0
 10
241.623
 20
160.855
 11
233.377
 21
160.855
  0
LINE
  8
0
 10
264.377
 20
160.855
 11
264.133
 21
160.891
  0
LINE
  8
0
 10
264.133
 20
160.891
 11
263.897
 21
160.964
  0
LINE
  8
0
 10
263.897
 20
160.964
 11
263.675
 21
161.071
  0
LINE
  8
0
 10
263.675
 20
161.071
 11
263.471
 21
161.21
  0
LINE
  8
0
 10
263.471
 20
161.21
 11
263.29
 21
161.378
  0
LINE
  8
0
 10
263.29
 20
161.378
 11
263.137
 21
161.571
  0
LINE
  8
0
 10
263.137
 20
161.571
 11
263.013
 21
161.784
  0
LINE
  8
0
 10
263.013
 20
161.784
 11
262.923
 21
162.014
  0
LINE
  8
0
 10
262.923
 20
162.014
 11
262.868
 21
162.254
  0
LINE
  8
0
 10
262.868
 20
162.254
 11
262.85
 21
162.5
  0
LINE
  8
0
 10
262.85
 20
162.5
 11
262.868
 21
162.746
  0
LINE
  8
0
 10
262.868
 20
162.746
 11
262.923
 21
162.986
  0
LINE
  8
0
 10
262.923
 20
162.986
 11
263.013
 21
163.216
  0
LINE
  8
0
 10
263.013
 20
163.216
 11
263.137
 21
163.429
  0
LINE
  8
0
 10
263.137
 20
163.429
 11
263.29
 21
163.622
  0
LINE
  8
0
 10
263.29
 20
163.622
 11
263.471
 21
163.79
  0
LINE
  8
0
 10
263.471
 20
163.79
 11
263.675
 21
163.929
  0
LINE
  8
0
 10
263.675
 20
163.929
 11
263.897
 21
164.036
  0
LINE
  8
0
 10
263.897
 20
164.036
 11
264.133
 21
164.109
  0
LINE
  8
0
 10
264.133
 20
164.109
 11
264.377
 21
164.145
  0
LINE
  8
0
 10
264.377
 20
164.145
 11
272.623
 21
164.145
  0
LINE
  8
0
 10
272.623
 20
164.145
 11
272.867
 21
164.109
  0
LINE
  8
0
 10
272.867
 20
164.109
 11
273.103
 21
164.036
  0
LINE
  8
0
 10
273.103
 20
164.036
 11
273.325
 21
163.929
  0
LINE
  8
0
 10
273.325
 20
163.929
 11
273.529
 21
163.79
  0
LINE
  8
0
 10
273.529
 20
163.79
 11
273.71
 21
163.622
  0
LINE
  8
0
 10
273.71
 20
163.622
 11
273.863
 21
163.429
  0
LINE
  8
0
 10
273.863
 20
163.429
 11
273.987
 21
163.216
  0
LINE
  8
0
 10
273.987
 20
163.216
 11
274.077
 21
162.986
  0
LINE
  8
0
 10
274.077
 20
162.986
 11
274.132
 21
162.746
  0
LINE
  8
0
 10
274.132
 20
162.746
 11
274.15
 21
162.5
  0
LINE
  8
0
 10
274.15
 20
162.5
 11
274.132
 21
162.254
  0
LINE
  8
0
 10
274.132
 20
162.254
 11
274.077
 21
162.014
  0
LINE
  8
0
 10
274.077
 20
162.014
 11
273.987
 21
161.784
  0
LINE
  8
0
 10
273.987
 20
161.784
 11
273.863
 21
161.571
  0
LINE
  8
0
 10
273.863
 20
161.571
 11
273.71
 21
161.378
  0
LINE
  8
0
 10
273.71
 20
161.378
 11
273.529
 21
161.21
  0
LINE
  8
0
 10
273.529
 20
161.21
 11
273.325
 21
161.071
  0
LINE
  8
0
 10
273.325
 20
161.071
 11
273.103
 21
160.964
  0
LINE
  8
0
 10
273.103
 20
160.964
 11
272.867
 21
160.891
  0
LINE
  8
0
 10
272.867
 20
160.891
 11
272.623
 21
160.855
  0
LINE
  8
0
 10
272.623
 20
160.855
 11
264.377
 21
160.855
  0
LINE
  8
0
 10
207.251
 20
55.7678
 11
207.007
 21
55.8209
  0
LINE
  8
0
 10
207.007
 20
55.8209
 11
206.773
 21
55.9081
  0
LINE
  8
0
 10
206.773
 20
55.9081
 11
206.554
 21
56.0278
  0
LINE
  8
0
 10
206.554
 20
56.0278
 11
206.354
 21
56.1774
  0
LINE
  8
0
 10
206.354
 20
56.1774
 11
206.177
 21
56.354
  0
LINE
  8
0
 10
206.177
 20
56.354
 11
206.028
 21
56.5539
  0
LINE
  8
0
 10
206.028
 20
56.5539
 11
205.908
 21
56.773
  0
LINE
  8
0
 10
205.908
 20
56.773
 11
205.821
 21
57.007
  0
LINE
  8
0
 10
205.821
 20
57.007
 11
205.768
 21
57.2509
  0
LINE
  8
0
 10
205.768
 20
57.2509
 11
205.75
 21
57.5
  0
LINE
  8
0
 10
205.75
 20
57.5
 11
205.75
 21
147.5
  0
LINE
  8
0
 10
205.75
 20
147.5
 11
205.768
 21
147.749
  0
LINE
  8
0
 10
205.768
 20
147.749
 11
205.821
 21
147.993
  0
LINE
  8
0
 10
205.821
 20
147.993
 11
205.908
 21
148.227
  0
LINE
  8
0
 10
205.908
 20
148.227
 11
206.028
 21
148.446
  0
LINE
  8
0
 10
206.028
 20
148.446
 11
206.177
 21
148.646
  0
LINE
  8
0
 10
206.177
 20
148.646
 11
206.354
 21
148.823
  0
LINE
  8
0
 10
206.354
 20
148.823
 11
206.554
 21
148.972
  0
LINE
  8
0
 10
206.554
 20
148.972
 11
206.773
 21
149.092
  0
LINE
  8
0
 10
206.773
 20
149.092
 11
207.007
 21
149.179
  0
LINE
  8
0
 10
207.007
 20
149.179
 11
207.251
 21
149.232
  0
LINE
  8
0
 10
207.251
 20
149.232
 11
207.5
 21
149.25
  0
LINE
  8
0
 10
207.5
 20
149.25
 11
207.749
 21
149.232
  0
LINE
  8
0
 10
207.749
 20
149.232
 11
207.993
 21
149.179
  0
LINE
  8
0
 10
207.993
 20
149.179
 11
208.227
 21
149.092
  0
LINE
  8
0
 10
208.227
 20
149.092
 11
208.446
 21
148.972
  0
LINE
  8
0
 10
208.446
 20
148.972
 11
208.646
 21
148.823
  0
LINE
  8
0
 10
208.646
 20
148.823
 11
208.823
 21
148.646
  0
LINE
  8
0
 10
208.823
 20
148.646
 11
208.972
 21
148.446
  0
LINE
  8
0
 10
208.972
 20
148.446
 11
209.092
 21
148.227
  0
LINE
  8
0
 10
209.092
 20
148.227
 11
209.179
 21
147.993
  0
LINE
  8
0
 10
209.179
 20
147.993
 11
209.232
 21
147.749
  0
LINE
  8
0
 10
209.232
 20
147.749
 11
209.25
 21
147.5
  0
LINE
  8
0
 10
209.25
 20
147.5
 11
209.25
 21
57.5
  0
LINE
  8
0
 10
209.25
 20
57.5
 11
209.232
 21
57.2509
  0
LINE
  8
0
 10
209.232
 20
57.2509
 11
209.179
 21
57.007
  0
LINE
  8
0
 10
209.179
 20
57.007
 11
209.092
 21
56.773
  0
LINE
  8
0
 10
209.092
 20
56.773
 11
208.972
 21
56.5539
  0
LINE
  8
0
 10
208.972
 20
56.5539
 11
208.823
 21
56.354
  0
LINE
  8
0
 10
208.823
 20
56.354
 11
208.646
 21
56.1774
  0
LINE
  8
0
 10
208.646
 20
56.1774
 11
208.446
 21
56.0278
  0
LINE
  8
0
 10
208.446
 20
56.0278
 11
208.227
 21
55.9081
  0
LINE
  8
0
 10
208.227
 20
55.9081
 11
207.993
 21
55.8209
  0
LINE
  8
0
 10
207.993
 20
55.8209
 11
207.749
 21
55.7678
  0
LINE
  8
0
 10
207.749
 20
55.7678
 11
207.5
 21
55.75
  0
LINE
  8
0
 10
207.5
 20
55.75
 11
207.251
 21
55.7678
  0
LINE
  8
0
 10
-207.749
 20
55.7678
 11
-207.993
 21
55.8209
  0
LINE
  8
0
 10
-207.993
 20
55.8209
 11
-208.227
 21
55.9081
  0
LINE
  8
0
 10
-208.227
 20
55.9081
 11
-208.446
 21
56.0278
  0
LINE
  8
0
 10
-208.446
 20
56.0278
 11
-208.646
 21
56.1774
  0
LINE
  8
0
 10
-208.646
 20
56.1774
 11
-208.823
 21
56.354
  0
LINE
  8
0
 10
-208.823
 20
56.354
 11
-208.972
 21
56.5539
  0
LINE
  8
0
 10
-208.972
 20
56.5539
 11
-209.092
 21
56.773
  0
LINE
  8
0
 10
-209.092
 20
56.773
 11
-209.179
 21
57.007
  0
LINE
  8
0
 10
-209.179
 20
57.007
 11
-209.232
 21
57.2509
  0
LINE
  8
0
 10
-209.232
 20
57.2509
 11
-209.25
 21
57.5
  0
LINE
  8
0
 10
-209.25
 20
57.5
 11
-209.25
 21
147.5
  0
LINE
  8
0
 10
-209.25
 20
147.5
 11
-209.232
 21
147.749
  0
LINE
  8
0
 10
-209.232
 20
147.749
 11
-209.179
 21
147.993
  0
LINE
  8
0
 10
-209.179
 20
147.993
 11
-209.092
 21
148.227
  0
LINE
  8
0
 10
-209.092
 20
148.227
 11
-208.972
 21
148.446
  0
LINE
  8
0
 10
-208.972
 20
148.446
 11
-208.823
 21
148.646
  0
LINE
  8
0
 10
-208.823
 20
148.646
 11
-208.646
 21
148.823
  0
LINE
  8
0
 10
-208.646
 20
148.823
 11
-208.446
 21
148.972
  0
LINE
  8
0
 10
-208.446
 20
148.972
 11
-208.227
 21
149.092
  0
LINE
  8
0
 10
-208.227
 20
149.092
 11
-207.993
 21
149.179
  0
LINE
  8
0
 10
-207.993
 20
149.179
 11
-207.749
 21
149.232
  0
LINE
  8
0
 10
-207.749
 20
149.232
 11
-207.5
 21
149.25
  0
LINE
  8
0
 10
-207.5
 20
149.25
 11
-207.251
 21
149.232
  0
LINE
  8
0
 10
-207.251
 20
149.232
 11
-207.007
 21
149.179
  0
LINE
  8
0
 10
-207.007
 20
149.179
 11
-206.773
 21
149.092
  0
LINE
  8
0
 10
-206.773
 20
149.092
 11
-206.554
 21
148.972
  0
LINE
  8
0
 10
-206.554
 20
148.972
 11
-206.354
 21
148.823
  0
LINE
  8
0
 10
-206.354
 20
148.823
 11
-206.177
 21
148.646
  0
LINE
  8
0
 10
-206.177
 20
148.646
 11
-206.028
 21
148.446
  0
LINE
  8
0
 10
-206.028
 20
148.446
 11
-205.908
 21
148.227
  0
LINE
  8
0
 10
-205.908
 20
148.227
 11
-205.821
 21
147.993
  0
LINE
  8
0
 10
-205.821
 20
147.993
 11
-205.768
 21
147.749
  0
LINE
  8
0
 10
-205.768
 20
147.749
 11
-205.75
 21
147.5
  0
LINE
  8
0
 10
-205.75
 20
147.5
 11
-205.75
 21
57.5
  0
LINE
  8
0
 10
-205.75
 20
57.5
 11
-205.768
 21
57.2509
  0
LINE
  8
0
 10
-205.768
 20
57.2509
 11
-205.821
 21
57.007
  0
LINE
  8
0
 10
-205.821
 20
57.007
 11
-205.908
 21
56.773
  0
LINE
  8
0
 10
-205.908
 20
56.773
 11
-206.028
 21
56.5539
  0
LINE
  8
0
 10
-206.028
 20
56.5539
 11
-206.177
 21
56.354
  0
LINE
  8
0
 10
-206.177
 20
56.354
 11
-206.354
 21
56.1774
  0
LINE
  8
0
 10
-206.354
 20
56.1774
 11
-206.554
 21
56.0278
  0
LINE
  8
0
 10
-206.554
 20
56.0278
 11
-206.773
 21
55.9081
  0
LINE
  8
0
 10
-206.773
 20
55.9081
 11
-207.007
 21
55.8209
  0
LINE
  8
0
 10
-207.007
 20
55.8209
 11
-207.251
 21
55.7678
  0
LINE
  8
0
 10
-207.251
 20
55.7678
 11
-207.5
 21
55.75
  0
LINE
  8
0
 10
-207.5
 20
55.75
 11
-207.749
 21
55.7678
  0
LINE
  8
0
 10
207.251
 20
-44.2322
 11
207.007
 21
-44.1791
  0
LINE
  8
0
 10
207.007
 20
-44.1791
 11
206.773
 21
-44.0918
  0
LINE
  8
0
 10
206.773
 20
-44.0918
 11
206.554
 21
-43.9722
  0
LINE
  8
0
 10
206.554
 20
-43.9722
 11
206.354
 21
-43.8226
  0
LINE
  8
0
 10
206.354
 20
-43.8226
 11
206.177
 21
-43.646
  0
LINE
  8
0
 10
206.177
 20
-43.646
 11
206.028
 21
-43.4461
  0
LINE
  8
0
 10
206.028
 20
-43.4461
 11
205.908
 21
-43.227
  0
LINE
  8
0
 10
205.908
 20
-43.227
 11
205.821
 21
-42.993
  0
LINE
  8
0
 10
205.821
 20
-42.993
 11
205.768
 21
-42.749
  0
LINE
  8
0
 10
205.768
 20
-42.749
 11
205.75
 21
-42.5
  0
LINE
  8
0
 10
205.75
 20
-42.5
 11
205.75
 21
47.5
  0
LINE
  8
0
 10
205.75
 20
47.5
 11
205.768
 21
47.749
  0
LINE
  8
0
 10
205.768
 20
47.749
 11
205.821
 21
47.993
  0
LINE
  8
0
 10
205.821
 20
47.993
 11
205.908
 21
48.227
  0
LINE
  8
0
 10
205.908
 20
48.227
 11
206.028
 21
48.4461
  0
LINE
  8
0
 10
206.028
 20
48.4461
 11
206.177
 21
48.646
  0
LINE
  8
0
 10
206.177
 20
48.646
 11
206.354
 21
48.8226
  0
LINE
  8
0
 10
206.354
 20
48.8226
 11
206.554
 21
48.9722
  0
LINE
  8
0
 10
206.554
 20
48.9722
 11
206.773
 21
49.0918
  0
LINE
  8
0
 10
206.773
 20
49.0918
 11
207.007
 21
49.1791
  0
LINE
  8
0
 10
207.007
 20
49.1791
 11
207.251
 21
49.2322
  0
LINE
  8
0
 10
207.251
 20
49.2322
 11
207.5
 21
49.25
  0
LINE
  8
0
 10
207.5
 20
49.25
 11
207.749
 21
49.2322
  0
LINE
  8
0
 10
207.749
 20
49.2322
 11
207.993
 21
49.1791
  0
LINE
  8
0
 10
207.993
 20
49.1791
 11
208.227
 21
49.0918
  0
LINE
  8
0
 10
208.227
 20
49.0918
 11
208.446
 21
48.9722
  0
LINE
  8
0
 10
208.446
 20
48.9722
 11
208.646
 21
48.8226
  0
LINE
  8
0
 10
208.646
 20
48.8226
 11
208.823
 21
48.646
  0
LINE
  8
0
 10
208.823
 20
48.646
 11
208.972
 21
48.4461
  0
LINE
  8
0
 10
208.972
 20
48.4461
 11
209.092
 21
48.227
  0
LINE
  8
0
 10
209.092
 20
48.227
 11
209.179
 21
47.993
  0
LINE
  8
0
 10
209.179
 20
47.993
 11
209.232
 21
47.749
  0
LINE
  8
0
 10
209.232
 20
47.749
 11
209.25
 21
47.5
  0
LINE
  8
0
 10
209.25
 20
47.5
 11
209.25
 21
-42.5
  0
LINE
  8
0
 10
209.25
 20
-42.5
 11
209.232
 21
-42.749
  0
LINE
  8
0
 10
209.232
 20
-42.749
 11
209.179
 21
-42.993
  0
LINE
  8
0
 10
209.179
 20
-42.993
 11
209.092
 21
-43.227
  0
LINE
  8
0
 10
209.092
 20
-43.227
 11
208.972
 21
-43.4461
  0
LINE
  8
0
 10
208.972
 20
-43.4461
 11
208.823
 21
-43.646
  0
LINE
  8
0
 10
208.823
 20
-43.646
 11
208.646
 21
-43.8226
  0
LINE
  8
0
 10
208.646
 20
-43.8226
 11
208.446
 21
-43.9722
  0
LINE
  8
0
 10
208.446
 20
-43.9722
 11
208.227
 21
-44.0918
  0
LINE
  8
0
 10
208.227
 20
-44.0918
 11
207.993
 21
-44.1791
  0
LINE
  8
0
 10
207.993
 20
-44.1791
 11
207.749
 21
-44.2322
  0
LINE
  8
0
 10
207.749
 20
-44.2322
 11
207.5
 21
-44.25
  0
LINE
  8
0
 10
207.5
 20
-44.25
 11
207.251
 21
-44.2322
  0
LINE
  8
0
 10
-207.749
 20
-44.2322
 11
-207.993
 21
-44.1791
  0
LINE
  8
0
 10
-207.993
 20
-44.1791
 11
-208.227
 21
-44.0918
  0
LINE
  8
0
 10
-208.227
 20
-44.0918
 11
-208.446
 21
-43.9722
  0
LINE
  8
0
 10
-208.446
 20
-43.9722
 11
-208.646
 21
-43.8226
  0
LINE
  8
0
 10
-208.646
 20
-43.8226
 11
-208.823
 21
-43.646
  0
LINE
  8
0
 10
-208.823
 20
-43.646
 11
-208.972
 21
-43.4461
  0
LINE
  8
0
 10
-208.972
 20
-43.4461
 11
-209.092
 21
-43.227
  0
LINE
  8
0
 10
-209.092
 20
-43.227
 11
-209.179
 21
-42.993
  0
LINE
  8
0
 10
-209.179
 20
-42.993
 11
-209.232
 21
-42.749
  0
LINE
  8
0
 10
-209.232
 20
-42.749
 11
-209.25
 21
-42.5
  0
LINE
  8
0
 10
-209.25
 20
-42.5
 11
-209.25
 21
47.5
  0
LINE
  8
0
 10
-209.25
 20
47.5
 11
-209.232
 21
47.749
  0
LINE
  8
0
 10
-209.232
 20
47.749
 11
-209.179
 21
47.993
  0
LINE
  8
0
 10
-209.179
 20
47.993
 11
-209.092
 21
48.227
  0
LINE
  8
0
 10
-209.092
 20
48.227
 11
-208.972
 21
48.4461
  0
LINE
  8
0
 10
-208.972
 20
48.4461
 11
-208.823
 21
48.646
  0
LINE
  8
0
 10
-208.823
 20
48.646
 11
-208.646
 21
48.8226
  0
LINE
  8
0
 10
-208.646
 20
48.8226
 11
-208.446
 21
48.9722
  0
LINE
  8
0
 10
-208.446
 20
48.9722
 11
-208.227
 21
49.0918
  0
LINE
  8
0
 10
-208.227
 20
49.0918
 11
-207.993
 21
49.1791
  0
LINE
  8
0
 10
-207.993
 20
49.1791
 11
-207.749
 21
49.2322
  0
LINE
  8
0
 10
-207.749
 20
49.2322
 11
-207.5
 21
49.25
  0
LINE
  8
0
 10
-207.5
 20
49.25
 11
-207.251
 21
49.2322
  0
LINE
  8
0
 10
-207.251
 20
49.2322
 11
-207.007
 21
49.1791
  0
LINE
  8
0
 10
-207.007
 20
49.1791
 11
-206.773
 21
49.0918
  0
LINE
  8
0
 10
-206.773
 20
49.0918
 11
-206.554
 21
48.9722
  0
LINE
  8
0
 10
-206.554
 20
48.9722
 11
-206.354
 21
48.8226
  0
LINE
  8
0
 10
-206.354
 20
48.8226
 11
-206.177
 21
48.646
  0
LINE
  8
0
 10
-206.177
 20
48.646
 11
-206.028
 21
48.4461
  0
LINE
  8
0
 10
-206.028
 20
48.4461
 11
-205.908
 21
48.227
  0
LINE
  8
0
 10
-205.908
 20
48.227
 11
-205.821
 21
47.993
  0
LINE
  8
0
 10
-205.821
 20
47.993
 11
-205.768
 21
47.749
  0
LINE
  8
0
 10
-205.768
 20
47.749
 11
-205.75
 21
47.5
  0
LINE
  8
0
 10
-205.75
 20
47.5
 11
-205.75
 21
-42.5
  0
LINE
  8
0
 10
-205.75
 20
-42.5
 11
-205.768
 21
-42.749
  0
LINE
  8
0
 10
-205.768
 20
-42.749
 11
-205.821
 21
-42.993
  0
LINE
  8
0
 10
-205.821
 20
-42.993
 11
-205.908
 21
-43.227
  0
LINE
  8
0
 10
-205.908
 20
-43.227
 11
-206.028
 21
-43.4461
  0
LINE
  8
0
 10
-206.028
 20
-43.4461
 11
-206.177
 21
-43.646
  0
LINE
  8
0
 10
-206.177
 20
-43.646
 11
-206.354
 21
-43.8226
  0
LINE
  8
0
 10
-206.354
 20
-43.8226
 11
-206.554
 21
-43.9722
  0
LINE
  8
0
 10
-206.554
 20
-43.9722
 11
-206.773
 21
-44.0918
  0
LINE
  8
0
 10
-206.773
 20
-44.0918
 11
-207.007
 21
-44.1791
  0
LINE
  8
0
 10
-207.007
 20
-44.1791
 11
-207.251
 21
-44.2322
  0
LINE
  8
0
 10
-207.251
 20
-44.2322
 11
-207.5
 21
-44.25
  0
LINE
  8
0
 10
-207.5
 20
-44.25
 11
-207.749
 21
-44.2322
  0
LINE
  8
0
 10
264.816
 20
28.5617
 11
264.575
 21
28.6136
  0
LINE
  8
0
 10
264.575
 20
28.6136
 11
264.347
 21
28.7052
  0
LINE
  8
0
 10
264.347
 20
28.7052
 11
264.138
 21
28.8342
  0
LINE
  8
0
 10
264.138
 20
28.8342
 11
263.953
 21
28.9967
  0
LINE
  8
0
 10
263.953
 20
28.9967
 11
263.799
 21
29.188
  0
LINE
  8
0
 10
263.799
 20
29.188
 11
263.679
 21
29.4027
  0
LINE
  8
0
 10
263.679
 20
29.4027
 11
263.597
 21
29.6346
  0
LINE
  8
0
 10
263.597
 20
29.6346
 11
263.555
 21
29.877
  0
LINE
  8
0
 10
263.555
 20
29.877
 11
263.555
 21
30.123
  0
LINE
  8
0
 10
263.555
 20
30.123
 11
263.597
 21
30.3654
  0
LINE
  8
0
 10
263.597
 20
30.3654
 11
263.679
 21
30.5972
  0
LINE
  8
0
 10
263.679
 20
30.5972
 11
263.799
 21
30.812
  0
LINE
  8
0
 10
263.799
 20
30.812
 11
263.953
 21
31.0033
  0
LINE
  8
0
 10
263.953
 20
31.0033
 11
264.138
 21
31.1658
  0
LINE
  8
0
 10
264.138
 20
31.1658
 11
264.347
 21
31.2947
  0
LINE
  8
0
 10
264.347
 20
31.2947
 11
264.575
 21
31.3864
  0
LINE
  8
0
 10
264.575
 20
31.3864
 11
264.816
 21
31.4382
  0
LINE
  8
0
 10
264.816
 20
31.4382
 11
265.062
 21
31.4487
  0
LINE
  8
0
 10
265.062
 20
31.4487
 11
265.305
 21
31.4174
  0
LINE
  8
0
 10
265.305
 20
31.4174
 11
265.541
 21
31.3454
  0
LINE
  8
0
 10
265.541
 20
31.3454
 11
265.76
 21
31.2347
  0
LINE
  8
0
 10
265.76
 20
31.2347
 11
265.958
 21
31.0885
  0
LINE
  8
0
 10
265.958
 20
31.0885
 11
266.128
 21
30.9109
  0
LINE
  8
0
 10
266.128
 20
30.9109
 11
266.266
 21
30.7072
  0
LINE
  8
0
 10
266.266
 20
30.7072
 11
266.367
 21
30.483
  0
LINE
  8
0
 10
266.367
 20
30.483
 11
266.429
 21
30.245
  0
LINE
  8
0
 10
266.429
 20
30.245
 11
266.45
 21
30
  0
LINE
  8
0
 10
266.45
 20
30
 11
266.429
 21
29.7549
  0
LINE
  8
0
 10
266.429
 20
29.7549
 11
266.367
 21
29.5169
  0
LINE
  8
0
 10
266.367
 20
29.5169
 11
266.266
 21
29.2928
  0
LINE
  8
0
 10
266.266
 20
29.2928
 11
266.128
 21
29.0891
  0
LINE
  8
0
 10
266.128
 20
29.0891
 11
265.958
 21
28.9115
  0
LINE
  8
0
 10
265.958
 20
28.9115
 11
265.76
 21
28.7653
  0
LINE
  8
0
 10
265.76
 20
28.7653
 11
265.541
 21
28.6546
  0
LINE
  8
0
 10
265.541
 20
28.6546
 11
265.305
 21
28.5825
  0
LINE
  8
0
 10
265.305
 20
28.5825
 11
265.062
 21
28.5513
  0
LINE
  8
0
 10
265.062
 20
28.5513
 11
264.816
 21
28.5617
  0
LINE
  8
0
 10
-265.305
 20
28.5825
 11
-265.541
 21
28.6546
  0
LINE
  8
0
 10
-265.541
 20
28.6546
 11
-265.76
 21
28.7653
  0
LINE
  8
0
 10
-265.76
 20
28.7653
 11
-265.958
 21
28.9115
  0
LINE
  8
0
 10
-265.958
 20
28.9115
 11
-266.128
 21
29.0891
  0
LINE
  8
0
 10
-266.128
 20
29.0891
 11
-266.266
 21
29.2928
  0
LINE
  8
0
 10
-266.266
 20
29.2928
 11
-266.367
 21
29.5169
  0
LINE
  8
0
 10
-266.367
 20
29.5169
 11
-266.429
 21
29.7549
  0
LINE
  8
0
 10
-266.429
 20
29.7549
 11
-266.45
 21
30
  0
LINE
  8
0
 10
-266.45
 20
30
 11
-266.429
 21
30.245
  0
LINE
  8
0
 10
-266.429
 20
30.245
 11
-266.367
 21
30.483
  0
LINE
  8
0
 10
-266.367
 20
30.483
 11
-266.266
 21
30.7072
  0
LINE
  8
0
 10
-266.266
 20
30.7072
 11
-266.128
 21
30.9109
  0
LINE
  8
0
 10
-266.128
 20
30.9109
 11
-265.958
 21
31.0885
  0
LINE
  8
0
 10
-265.958
 20
31.0885
 11
-265.76
 21
31.2347
  0
LINE
  8
0
 10
-265.76
 20
31.2347
 11
-265.541
 21
31.3454
  0
LINE
  8
0
 10
-265.541
 20
31.3454
 11
-265.305
 21
31.4174
  0
LINE
  8
0
 10
-265.305
 20
31.4174
 11
-265.062
 21
31.4487
  0
LINE
  8
0
 10
-265.062
 20
31.4487
 11
-264.816
 21
31.4382
  0
LINE
  8
0
 10
-264.816
 20
31.4382
 11
-264.575
 21
31.3864
  0
LINE
  8
0
 10
-264.575
 20
31.3864
 11
-264.347
 21
31.2947
  0
LINE
  8
0
 10
-264.347
 20
31.2947
 11
-264.138
 21
31.1658
  0
LINE
  8
0
 10
-264.138
 20
31.1658
 11
-263.953
 21
31.0033
  0
LINE
  8
0
 10
-263.953
 20
31.0033
 11
-263.799
 21
30.812
  0
LINE
  8
0
 10
-263.799
 20
30.812
 11
-263.679
 21
30.5972
  0
LINE
  8
0
 10
-263.679
 20
30.5972
 11
-263.597
 21
30.3654
  0
LINE
  8
0
 10
-263.597
 20
30.3654
 11
-263.555
 21
30.123
  0
LINE
  8
0
 10
-263.555
 20
30.123
 11
-263.555
 21
29.877
  0
LINE
  8
0
 10
-263.555
 20
29.877
 11
-263.597
 21
29.6346
  0
LINE
  8
0
 10
-263.597
 20
29.6346
 11
-263.679
 21
29.4027
  0
LINE
  8
0
 10
-263.679
 20
29.4027
 11
-263.799
 21
29.188
  0
LINE
  8
0
 10
-263.799
 20
29.188
 11
-263.953
 21
28.9967
  0
LINE
  8
0
 10
-263.953
 20
28.9967
 11
-264.138
 21
28.8342
  0
LINE
  8
0
 10
-264.138
 20
28.8342
 11
-264.347
 21
28.7052
  0
LINE
  8
0
 10
-264.347
 20
28.7052
 11
-264.575
 21
28.6136
  0
LINE
  8
0
 10
-264.575
 20
28.6136
 11
-264.816
 21
28.5617
  0
LINE
  8
0
 10
-264.816
 20
28.5617
 11
-265.062
 21
28.5513
  0
LINE
  8
0
 10
-265.062
 20
28.5513
 11
-265.305
 21
28.5825
  0
LINE
  8
0
 10
264.603
 20
6.22081
 11
264.21
 21
6.28304
  0
LINE
  8
0
 10
264.21
 20
6.28304
 11
263.826
 21
6.38597
  0
LINE
  8
0
 10
263.826
 20
6.38597
 11
263.454
 21
6.52852
  0
LINE
  8
0
 10
263.454
 20
6.52852
 11
263.1
 21
6.70909
  0
LINE
  8
0
 10
263.1
 20
6.70909
 11
262.766
 21
6.92572
  0
LINE
  8
0
 10
262.766
 20
6.92572
 11
262.457
 21
7.17604
  0
LINE
  8
0
 10
262.457
 20
7.17604
 11
262.176
 21
7.45729
  0
LINE
  8
0
 10
262.176
 20
7.45729
 11
261.926
 21
7.7664
  0
LINE
  8
0
 10
261.926
 20
7.7664
 11
261.709
 21
8.09999
  0
LINE
  8
0
 10
261.709
 20
8.09999
 11
261.529
 21
8.45439
  0
LINE
  8
0
 10
261.529
 20
8.45439
 11
261.386
 21
8.82573
  0
LINE
  8
0
 10
261.386
 20
8.82573
 11
261.283
 21
9.20993
  0
LINE
  8
0
 10
261.283
 20
9.20993
 11
261.221
 21
9.60278
  0
LINE
  8
0
 10
261.221
 20
9.60278
 11
261.2
 21
10
  0
LINE
  8
0
 10
261.2
 20
10
 11
261.221
 21
10.3972
  0
LINE
  8
0
 10
261.221
 20
10.3972
 11
261.283
 21
10.7901
  0
LINE
  8
0
 10
261.283
 20
10.7901
 11
261.386
 21
11.1743
  0
LINE
  8
0
 10
261.386
 20
11.1743
 11
261.529
 21
11.5456
  0
LINE
  8
0
 10
261.529
 20
11.5456
 11
261.709
 21
11.9
  0
LINE
  8
0
 10
261.709
 20
11.9
 11
261.926
 21
12.2336
  0
LINE
  8
0
 10
261.926
 20
12.2336
 11
262.176
 21
12.5427
  0
LINE
  8
0
 10
262.176
 20
12.5427
 11
262.457
 21
12.8239
  0
LINE
  8
0
 10
262.457
 20
12.8239
 11
262.766
 21
13.0743
  0
LINE
  8
0
 10
262.766
 20
13.0743
 11
263.1
 21
13.2909
  0
LINE
  8
0
 10
263.1
 20
13.2909
 11
263.454
 21
13.4715
  0
LINE
  8
0
 10
263.454
 20
13.4715
 11
263.826
 21
13.614
  0
LINE
  8
0
 10
263.826
 20
13.614
 11
264.21
 21
13.7169
  0
LINE
  8
0
 10
264.21
 20
13.7169
 11
264.603
 21
13.7792
  0
LINE
  8
0
 10
264.603
 20
13.7792
 11
265
 21
13.8
  0
LINE
  8
0
 10
265
 20
13.8
 11
265.397
 21
13.7792
  0
LINE
  8
0
 10
265.397
 20
13.7792
 11
265.79
 21
13.7169
  0
LINE
  8
0
 10
265.79
 20
13.7169
 11
266.174
 21
13.614
  0
LINE
  8
0
 10
266.174
 20
13.614
 11
266.546
 21
13.4715
  0
LINE
  8
0
 10
266.546
 20
13.4715
 11
266.9
 21
13.2909
  0
LINE
  8
0
 10
266.9
 20
13.2909
 11
267.234
 21
13.0743
  0
LINE
  8
0
 10
267.234
 20
13.0743
 11
267.543
 21
12.8239
  0
LINE
  8
0
 10
267.543
 20
12.8239
 11
267.824
 21
12.5427
  0
LINE
  8
0
 10
267.824
 20
12.5427
 11
268.074
 21
12.2336
  0
LINE
  8
0
 10
268.074
 20
12.2336
 11
268.291
 21
11.9
  0
LINE
  8
0
 10
268.291
 20
11.9
 11
268.471
 21
11.5456
  0
LINE
  8
0
 10
268.471
 20
11.5456
 11
268.614
 21
11.1743
  0
LINE
  8
0
 10
268.614
 20
11.1743
 11
268.717
 21
10.7901
  0
LINE
  8
0
 10
268.717
 20
10.7901
 11
268.779
 21
10.3972
  0
LINE
  8
0
 10
268.779
 20
10.3972
 11
268.8
 21
10
  0
LINE
  8
0
 10
268.8
 20
10
 11
268.779
 21
9.60278
  0
LINE
  8
0
 10
268.779
 20
9.60278
 11
268.717
 21
9.20993
  0
LINE
  8
0
 10
268.717
 20
9.20993
 11
268.614
 21
8.82573
  0
LINE
  8
0
 10
268.614
 20
8.82573
 11
268.471
 21
8.45439
  0
LINE
  8
0
 10
268.471
 20
8.45439
 11
268.291
 21
8.09999
  0
LINE
  8
0
 10
268.291
 20
8.09999
 11
268.074
 21
7.7664
  0
LINE
  8
0
 10
268.074
 20
7.7664
 11
267.824
 21
7.45729
  0
LINE
  8
0
 10
267.824
 20
7.45729
 11
267.543
 21
7.17604
  0
LINE
  8
0
 10
267.543
 20
7.17604
 11
267.234
 21
6.92572
  0
LINE
  8
0
 10
267.234
 20
6.92572
 11
266.9
 21
6.70909
  0
LINE
  8
0
 10
266.9
 20
6.70909
 11
266.546
 21
6.52852
  0
LINE
  8
0
 10
266.546
 20
6.52852
 11
266.174
 21
6.38597
  0
LINE
  8
0
 10
266.174
 20
6.38597
 11
265.79
 21
6.28304
  0
LINE
  8
0
 10
265.79
 20
6.28304
 11
265.397
 21
6.22081
  0
LINE
  8
0
 10
265.397
 20
6.22081
 11
265
 21
6.2
  0
LINE
  8
0
 10
265
 20
6.2
 11
264.603
 21
6.22081
  0
LINE
  8
0
 10
-265.397
 20
6.22081
 11
-265.79
 21
6.28304
  0
LINE
  8
0
 10
-265.79
 20
6.28304
 11
-266.174
 21
6.38597
  0
LINE
  8
0
 10
-266.174
 20
6.38597
 11
-266.546
 21
6.52852
  0
LINE
  8
0
 10
-266.546
 20
6.52852
 11
-266.9
 21
6.70909
  0
LINE
  8
0
 10
-266.9
 20
6.70909
 11
-267.234
 21
6.92572
  0
LINE
  8
0
 10
-267.234
 20
6.92572
 11
-267.543
 21
7.17604
  0
LINE
  8
0
 10
-267.543
 20
7.17604
 11
-267.824
 21
7.45729
  0
LINE
  8
0
 10
-267.824
 20
7.45729
 11
-268.074
 21
7.7664
  0
LINE
  8
0
 10
-268.074
 20
7.7664
 11
-268.291
 21
8.09999
  0
LINE
  8
0
 10
-268.291
 20
8.09999
 11
-268.471
 21
8.45439
  0
LINE
  8
0
 10
-268.471
 20
8.45439
 11
-268.614
 21
8.82573
  0
LINE
  8
0
 10
-268.614
 20
8.82573
 11
-268.717
 21
9.20993
  0
LINE
  8
0
 10
-268.717
 20
9.20993
 11
-268.779
 21
9.60278
  0
LINE
  8
0
 10
-268.779
 20
9.60278
 11
-268.8
 21
10
  0
LINE
  8
0
 10
-268.8
 20
10
 11
-268.779
 21
10.3972
  0
LINE
  8
0
 10
-268.779
 20
10.3972
 11
-268.717
 21
10.7901
  0
LINE
  8
0
 10
-268.717
 20
10.7901
 11
-268.614
 21
11.1743
  0
LINE
  8
0
 10
-268.614
 20
11.1743
 11
-268.471
 21
11.5456
  0
LINE
  8
0
 10
-268.471
 20
11.5456
 11
-268.291
 21
11.9
  0
LINE
  8
0
 10
-268.291
 20
11.9
 11
-268.074
 21
12.2336
  0
LINE
  8
0
 10
-268.074
 20
12.2336
 11
-267.824
 21
12.5427
  0
LINE
  8
0
 10
-267.824
 20
12.5427
 11
-267.543
 21
12.8239
  0
LINE
  8
0
 10
-267.543
 20
12.8239
 11
-267.234
 21
13.0743
  0
LINE
  8
0
 10
-267.234
 20
13.0743
 11
-266.9
 21
13.2909
  0
LINE
  8
0
 10
-266.9
 20
13.2909
 11
-266.546
 21
13.4715
  0
LINE
  8
0
 10
-266.546
 20
13.4715
 11
-266.174
 21
13.614
  0
LINE
  8
0
 10
-266.174
 20
13.614
 11
-265.79
 21
13.7169
  0
LINE
  8
0
 10
-265.79
 20
13.7169
 11
-265.397
 21
13.7792
  0
LINE
  8
0
 10
-265.397
 20
13.7792
 11
-265
 21
13.8
  0
LINE
  8
0
 10
-265
 20
13.8
 11
-264.603
 21
13.7792
  0
LINE
  8
0
 10
-264.603
 20
13.7792
 11
-264.21
 21
13.7169
  0
LINE
  8
0
 10
-264.21
 20
13.7169
 11
-263.826
 21
13.614
  0
LINE
  8
0
 10
-263.826
 20
13.614
 11
-263.454
 21
13.4715
  0
LINE
  8
0
 10
-263.454
 20
13.4715
 11
-263.1
 21
13.2909
  0
LINE
  8
0
 10
-263.1
 20
13.2909
 11
-262.766
 21
13.0743
  0
LINE
  8
0
 10
-262.766
 20
13.0743
 11
-262.457
 21
12.8239
  0
LINE
  8
0
 10
-262.457
 20
12.8239
 11
-262.176
 21
12.5427
  0
LINE
  8
0
 10
-262.176
 20
12.5427
 11
-261.926
 21
12.2336
  0
LINE
  8
0
 10
-261.926
 20
12.2336
 11
-261.709
 21
11.9
  0
LINE
  8
0
 10
-261.709
 20
11.9
 11
-261.529
 21
11.5456
  0
LINE
  8
0
 10
-261.529
 20
11.5456
 11
-261.386
 21
11.1743
  0
LINE
  8
0
 10
-261.386
 20
11.1743
 11
-261.283
 21
10.7901
  0
LINE
  8
0
 10
-261.283
 20
10.7901
 11
-261.221
 21
10.3972
  0
LINE
  8
0
 10
-261.221
 20
10.3972
 11
-261.2
 21
10
  0
LINE
  8
0
 10
-261.2
 20
10
 11
-261.221
 21
9.60278
  0
LINE
  8
0
 10
-261.221
 20
9.60278
 11
-261.283
 21
9.20993
  0
LINE
  8
0
 10
-261.283
 20
9.20993
 11
-261.386
 21
8.82573
  0
LINE
  8
0
 10
-261.386
 20
8.82573
 11
-261.529
 21
8.45439
  0
LINE
  8
0
 10
-261.529
 20
8.45439
 11
-261.709
 21
8.09999
  0
LINE
  8
0
 10
-261.709
 20
8.09999
 11
-261.926
 21
7.7664
  0
LINE
  8
0
 10
-261.926
 20
7.7664
 11
-262.176
 21
7.45729
  0
LINE
  8
0
 10
-262.176
 20
7.45729
 11
-262.457
 21
7.17604
  0
LINE
  8
0
 10
-262.457
 20
7.17604
 11
-262.766
 21
6.92572
  0
LINE
  8
0
 10
-262.766
 20
6.92572
 11
-263.1
 21
6.70909
  0
LINE
  8
0
 10
-263.1
 20
6.70909
 11
-263.454
 21
6.52852
  0
LINE
  8
0
 10
-263.454
 20
6.52852
 11
-263.826
 21
6.38597
  0
LINE
  8
0
 10
-263.826
 20
6.38597
 11
-264.21
 21
6.28304
  0
LINE
  8
0
 10
-264.21
 20
6.28304
 11
-264.603
 21
6.22081
  0
LINE
  8
0
 10
-264.603
 20
6.22081
 11
-265
 21
6.2
  0
LINE
  8
0
 10
-265
 20
6.2
 11
-265.397
 21
6.22081
  0
LINE
  8
0
 10
264.603
 20
-13.7792
 11
264.21
 21
-13.7169
  0
LINE
  8
0
 10
264.21
 20
-13.7169
 11
263.826
 21
-13.614
  0
LINE
  8
0
 10
263.826
 20
-13.614
 11
263.454
 21
-13.4715
  0
LINE
  8
0
 10
263.454
 20
-13.4715
 11
263.1
 21
-13.2909
  0
LINE
  8
0
 10
263.1
 20
-13.2909
 11
262.766
 21
-13.0743
  0
LINE
  8
0
 10
262.766
 20
-13.0743
 11
262.457
 21
-12.8239
  0
LINE
  8
0
 10
262.457
 20
-12.8239
 11
262.176
 21
-12.5427
  0
LINE
  8
0
 10
262.176
 20
-12.5427
 11
261.926
 21
-12.2336
  0
LINE
  8
0
 10
261.926
 20
-12.2336
 11
261.709
 21
-11.9
  0
LINE
  8
0
 10
261.709
 20
-11.9
 11
261.529
 21
-11.5456
  0
LINE
  8
0
 10
261.529
 20
-11.5456
 11
261.386
 21
-11.1743
  0
LINE
  8
0
 10
261.386
 20
-11.1743
 11
261.283
 21
-10.7901
  0
LINE
  8
0
 10
261.283
 20
-10.7901
 11
261.221
 21
-10.3972
  0
LINE
  8
0
 10
261.221
 20
-10.3972
 11
261.2
 21
-10
  0
LINE
  8
0
 10
261.2
 20
-10
 11
261.221
 21
-9.60278
  0
LINE
  8
0
 10
261.221
 20
-9.60278
 11
261.283
 21
-9.20993
  0
LINE
  8
0
 10
261.283
 20
-9.20993
 11
261.386
 21
-8.82573
  0
LINE
  8
0
 10
261.386
 20
-8.82573
 11
261.529
 21
-8.45439
  0
LINE
  8
0
 10
261.529
 20
-8.45439
 11
261.709
 21
-8.09999
  0
LINE
  8
0
 10
261.709
 20
-8.09999
 11
261.926
 21
-7.7664
  0
LINE
  8
0
 10
261.926
 20
-7.7664
 11
262.176
 21
-7.45729
  0
LINE
  8
0
 10
262.176
 20
-7.45729
 11
262.457
 21
-7.17604
  0
LINE
  8
0
 10
262.457
 20
-7.17604
 11
262.766
 21
-6.92572
  0
LINE
  8
0
 10
262.766
 20
-6.92572
 11
263.1
 21
-6.70909
  0
LINE
  8
0
 10
263.1
 20
-6.70909
 11
263.454
 21
-6.52852
  0
LINE
  8
0
 10
263.454
 20
-6.52852
 11
263.826
 21
-6.38597
  0
LINE
  8
0
 10
263.826
 20
-6.38597
 11
264.21
 21
-6.28304
  0
LINE
  8
0
 10
264.21
 20
-6.28304
 11
264.603
 21
-6.22081
  0
LINE
  8
0
 10
264.603
 20
-6.22081
 11
265
 21
-6.2
  0
LINE
  8
0
 10
265
 20
-6.2
 11
265.397
 21
-6.22081
  0
LINE
  8
0
 10
265.397
 20
-6.22081
 11
265.79
 21
-6.28304
  0
LINE
  8
0
 10
265.79
 20
-6.28304
 11
266.174
 21
-6.38597
  0
LINE
  8
0
 10
266.174
 20
-6.38597
 11
266.546
 21
-6.52852
  0
LINE
  8
0
 10
266.546
 20
-6.52852
 11
266.9
 21
-6.70909
  0
LINE
  8
0
 10
266.9
 20
-6.70909
 11
267.234
 21
-6.92572
  0
LINE
  8
0
 10
267.234
 20
-6.92572
 11
267.543
 21
-7.17604
  0
LINE
  8
0
 10
267.543
 20
-7.17604
 11
267.824
 21
-7.45729
  0
LINE
  8
0
 10
267.824
 20
-7.45729
 11
268.074
 21
-7.7664
  0
LINE
  8
0
 10
268.074
 20
-7.7664
 11
268.291
 21
-8.09999
  0
LINE
  8
0
 10
268.291
 20
-8.09999
 11
268.471
 21
-8.45439
  0
LINE
  8
0
 10
268.471
 20
-8.45439
 11
268.614
 21
-8.82573
  0
LINE
  8
0
 10
268.614
 20
-8.82573
 11
268.717
 21
-9.20993
  0
LINE
  8
0
 10
268.717
 20
-9.20993
 11
268.779
 21
-9.60278
  0
LINE
  8
0
 10
268.779
 20
-9.60278
 11
268.8
 21
-10
  0
LINE
  8
0
 10
268.8
 20
-10
 11
268.779
 21
-10.3972
  0
LINE
  8
0
 10
268.779
 20
-10.3972
 11
268.717
 21
-10.7901
  0
LINE
  8
0
 10
268.717
 20
-10.7901
 11
268.614
 21
-11.1743
  0
LINE
  8
0
 10
268.614
 20
-11.1743
 11
268.471
 21
-11.5456
  0
LINE
  8
0
 10
268.471
 20
-11.5456
 11
268.291
 21
-11.9
  0
LINE
  8
0
 10
268.291
 20
-11.9
 11
268.074
 21
-12.2336
  0
LINE
  8
0
 10
268.074
 20
-12.2336
 11
267.824
 21
-12.5427
  0
LINE
  8
0
 10
267.824
 20
-12.5427
 11
267.543
 21
-12.8239
  0
LINE
  8
0
 10
267.543
 20
-12.8239
 11
267.234
 21
-13.0743
  0
LINE
  8
0
 10
267.234
 20
-13.0743
 11
266.9
 21
-13.2909
  0
LINE
  8
0
 10
266.9
 20
-13.2909
 11
266.546
 21
-13.4715
  0
LINE
  8
0
 10
266.546
 20
-13.4715
 11
266.174
 21
-13.614
  0
LINE
  8
0
 10
266.174
 20
-13.614
 11
265.79
 21
-13.7169
  0
LINE
  8
0
 10
265.79
 20
-13.7169
 11
265.397
 21
-13.7792
  0
LINE
  8
0
 10
265.397
 20
-13.7792
 11
265
 21
-13.8
  0
LINE
  8
0
 10
265
 20
-13.8
 11
264.603
 21
-13.7792
  0
LINE
  8
0
 10
-265.397
 20
-13.7792
 11
-265.79
 21
-13.7169
  0
LINE
  8
0
 10
-265.79
 20
-13.7169
 11
-266.174
 21
-13.614
  0
LINE
  8
0
 10
-266.174
 20
-13.614
 11
-266.546
 21
-13.4715
  0
LINE
  8
0
 10
-266.546
 20
-13.4715
 11
-266.9
 21
-13.2909
  0
LINE
  8
0
 10
-266.9
 20
-13.2909
 11
-267.234
 21
-13.0743
  0
LINE
  8
0
 10
-267.234
 20
-13.0743
 11
-267.543
 21
-12.8239
  0
LINE
  8
0
 10
-267.543
 20
-12.8239
 11
-267.824
 21
-12.5427
  0
LINE
  8
0
 10
-267.824
 20
-12.5427
 11
-268.074
 21
-12.2336
  0
LINE
  8
0
 10
-268.074
 20
-12.2336
 11
-268.291
 21
-11.9
  0
LINE
  8
0
 10
-268.291
 20
-11.9
 11
-268.471
 21
-11.5456
  0
LINE
  8
0
 10
-268.471
 20
-11.5456
 11
-268.614
 21
-11.1743
  0
LINE
  8
0
 10
-268.614
 20
-11.1743
 11
-268.717
 21
-10.7901
  0
LINE
  8
0
 10
-268.717
 20
-10.7901
 11
-268.779
 21
-10.3972
  0
LINE
  8
0
 10
-268.779
 20
-10.3972
 11
-268.8
 21
-10
  0
LINE
  8
0
 10
-268.8
 20
-10
 11
-268.779
 21
-9.60278
  0
LINE
  8
0
 10
-268.779
 20
-9.60278
 11
-268.717
 21
-9.20993
  0
LINE
  8
0
 10
-268.717
 20
-9.20993
 11
-268.614
 21
-8.82573
  0
LINE
  8
0
 10
-268.614
 20
-8.82573
 11
-268.471
 21
-8.45439
  0
LINE
  8
0
 10
-268.471
 20
-8.45439
 11
-268.291
 21
-8.09999
  0
LINE
  8
0
 10
-268.291
 20
-8.09999
 11
-268.074
 21
-7.7664
  0
LINE
  8
0
 10
-268.074
 20
-7.7664
 11
-267.824
 21
-7.45729
  0
LINE
  8
0
 10
-267.824
 20
-7.45729
 11
-267.543
 21
-7.17604
  0
LINE
  8
0
 10
-267.543
 20
-7.17604
 11
-267.234
 21
-6.92572
  0
LINE
  8
0
 10
-267.234
 20
-6.92572
 11
-266.9
 21
-6.70909
  0
LINE
  8
0
 10
-266.9
 20
-6.70909
 11
-266.546
 21
-6.52852
  0
LINE
  8
0
 10
-266.546
 20
-6.52852
 11
-266.174
 21
-6.38597
  0
LINE
  8
0
 10
-266.174
 20
-6.38597
 11
-265.79
 21
-6.28304
  0
LINE
  8
0
 10
-265.79
 20
-6.28304
 11
-265.397
 21
-6.22081
  0
LINE
  8
0
 10
-265.397
 20
-6.22081
 11
-265
 21
-6.2
  0
LINE
  8
0
 10
-265
 20
-6.2
 11
-264.603
 21
-6.22081
  0
LINE
  8
0
 10
-264.603
 20
-6.22081
 11
-264.21
 21
-6.28304
  0
LINE
  8
0
 10
-264.21
 20
-6.28304
 11
-263.826
 21
-6.38597
  0
LINE
  8
0
 10
-263.826
 20
-6.38597
 11
-263.454
 21
-6.52852
  0
LINE
  8
0
 10
-263.454
 20
-6.52852
 11
-263.1
 21
-6.70909
  0
LINE
  8
0
 10
-263.1
 20
-6.70909
 11
-262.766
 21
-6.92572
  0
LINE
  8
0
 10
-262.766
 20
-6.92572
 11
-262.457
 21
-7.17604
  0
LINE
  8
0
 10
-262.457
 20
-7.17604
 11
-262.176
 21
-7.45729
  0
LINE
  8
0
 10
-262.176
 20
-7.45729
 11
-261.926
 21
-7.7664
  0
LINE
  8
0
 10
-261.926
 20
-7.7664
 11
-261.709
 21
-8.09999
  0
LINE
  8
0
 10
-261.709
 20
-8.09999
 11
-261.529
 21
-8.45439
  0
LINE
  8
0
 10
-261.529
 20
-8.45439
 11
-261.386
 21
-8.82573
  0
LINE
  8
0
 10
-261.386
 20
-8.82573
 11
-261.283
 21
-9.20993
  0
LINE
  8
0
 10
-261.283
 20
-9.20993
 11
-261.221
 21
-9.60278
  0
LINE
  8
0
 10
-261.221
 20
-9.60278
 11
-261.2
 21
-10
  0
LINE
  8
0
 10
-261.2
 20
-10
 11
-261.221
 21
-10.3972
  0
LINE
  8
0
 10
-261.221
 20
-10.3972
 11
-261.283
 21
-10.7901
  0
LINE
  8
0
 10
-261.283
 20
-10.7901
 11
-261.386
 21
-11.1743
  0
LINE
  8
0
 10
-261.386
 20
-11.1743
 11
-261.529
 21
-11.5456
  0
LINE
  8
0
 10
-261.529
 20
-11.5456
 11
-261.709
 21
-11.9
  0
LINE
  8
0
 10
-261.709
 20
-11.9
 11
-261.926
 21
-12.2336
  0
LINE
  8
0
 10
-261.926
 20
-12.2336
 11
-262.176
 21
-12.5427
  0
LINE
  8
0
 10
-262.176
 20
-12.5427
 11
-262.457
 21
-12.8239
  0
LINE
  8
0
 10
-262.457
 20
-12.8239
 11
-262.766
 21
-13.0743
  0
LINE
  8
0
 10
-262.766
 20
-13.0743
 11
-263.1
 21
-13.2909
  0
LINE
  8
0
 10
-263.1
 20
-13.2909
 11
-263.454
 21
-13.4715
  0
LINE
  8
0
 10
-263.454
 20
-13.4715
 11
-263.826
 21
-13.614
  0
LINE
  8
0
 10
-263.826
 20
-13.614
 11
-264.21
 21
-13.7169
  0
LINE
  8
0
 10
-264.21
 20
-13.7169
 11
-264.603
 21
-13.7792
  0
LINE
  8
0
 10
-264.603
 20
-13.7792
 11
-265
 21
-13.8
  0
LINE
  8
0
 10
-265
 20
-13.8
 11
-265.397
 21
-13.7792
  0
LINE
  8
0
 10
264.816
 20
-31.4382
 11
264.575
 21
-31.3864
  0
LINE
  8
0
 10
264.575
 20
-31.3864
 11
264.347
 21
-31.2947
  0
LINE
  8
0
 10
264.347
 20
-31.2947
 11
264.138
 21
-31.1658
  0
LINE
  8
0
 10
264.138
 20
-31.1658
 11
263.953
 21
-31.0033
  0
LINE
  8
0
 10
263.953
 20
-31.0033
 11
263.799
 21
-30.812
  0
LINE
  8
0
 10
263.799
 20
-30.812
 11
263.679
 21
-30.5972
  0
LINE
  8
0
 10
263.679
 20
-30.5972
 11
263.597
 21
-30.3654
  0
LINE
  8
0
 10
263.597
 20
-30.3654
 11
263.555
 21
-30.123
  0
LINE
  8
0
 10
263.555
 20
-30.123
 11
263.555
 21
-29.877
  0
LINE
  8
0
 10
263.555
 20
-29.877
 11
263.597
 21
-29.6346
  0
LINE
  8
0
 10
263.597
 20
-29.6346
 11
263.679
 21
-29.4027
  0
LINE
  8
0
 10
263.679
 20
-29.4027
 11
263.799
 21
-29.188
  0
LINE
  8
0
 10
263.799
 20
-29.188
 11
263.953
 21
-28.9967
  0
LINE
  8
0
 10
263.953
 20
-28.9967
 11
264.138
 21
-28.8342
  0
LINE
  8
0
 10
264.138
 20
-28.8342
 11
264.347
 21
-28.7052
  0
LINE
  8
0
 10
264.347
 20
-28.7052
 11
264.575
 21
-28.6136
  0
LINE
  8
0
 10
264.575
 20
-28.6136
 11
264.816
 21
-28.5617
  0
LINE
  8
0
 10
264.816
 20
-28.5617
 11
265.062
 21
-28.5513
  0
LINE
  8
0
 10
265.062
 20
-28.5513
 11
265.305
 21
-28.5825
  0
LINE
  8
0
 10
265.305
 20
-28.5825
 11
265.541
 21
-28.6546
  0
LINE
  8
0
 10
265.541
 20
-28.6546
 11
265.76
 21
-28.7653
  0
LINE
  8
0
 10
265.76
 20
-28.7653
 11
265.958
 21
-28.9115
  0
LINE
  8
0
 10
265.958
 20
-28.9115
 11
266.128
 21
-29.0891
  0
LINE
  8
0
 10
266.128
 20
-29.0891
 11
266.266
 21
-29.2928
  0
LINE
  8
0
 10
266.266
 20
-29.2928
 11
266.367
 21
-29.5169
  0
LINE
  8
0
 10
266.367
 20
-29.5169
 11
266.429
 21
-29.7549
  0
LINE
  8
0
 10
266.429
 20
-29.7549
 11
266.45
 21
-30
  0
LINE
  8
0
 10
266.45
 20
-30
 11
266.429
 21
-30.245
  0
LINE
  8
0
 10
266.429
 20
-30.245
 11
266.367
 21
-30.483
  0
LINE
  8
0
 10
266.367
 20
-30.483
 11
266.266
 21
-30.7072
  0
LINE
  8
0
 10
266.266
 20
-30.7072
 11
266.128
 21
-30.9109
  0
LINE
  8
0
 10
266.128
 20
-30.9109
 11
265.958
 21
-31.0885
  0
LINE
  8
0
 10
265.958
 20
-31.0885
 11
265.76
 21
-31.2347
  0
LINE
  8
0
 10
265.76
 20
-31.2347
 11
265.541
 21
-31.3454
  0
LINE
  8
0
 10
265.541
 20
-31.3454
 11
265.305
 21
-31.4174
  0
LINE
  8
0
 10
265.305
 20
-31.4174
 11
265.062
 21
-31.4487
  0
LINE
  8
0
 10
265.062
 20
-31.4487
 11
264.816
 21
-31.4382
  0
LINE
  8
0
 10
-265.305
 20
-31.4174
 11
-265.541
 21
-31.3454
  0
LINE
  8
0
 10
-265.541
 20
-31.3454
 11
-265.76
 21
-31.2347
  0
LINE
  8
0
 10
-265.76
 20
-31.2347
 11
-265.958
 21
-31.0885
  0
LINE
  8
0
 10
-265.958
 20
-31.0885
 11
-266.128
 21
-30.9109
  0
LINE
  8
0
 10
-266.128
 20
-30.9109
 11
-266.266
 21
-30.7072
  0
LINE
  8
0
 10
-266.266
 20
-30.7072
 11
-266.367
 21
-30.483
  0
LINE
  8
0
 10
-266.367
 20
-30.483
 11
-266.429
 21
-30.245
  0
LINE
  8
0
 10
-266.429
 20
-30.245
 11
-266.45
 21
-30
  0
LINE
  8
0
 10
-266.45
 20
-30
 11
-266.429
 21
-29.7549
  0
LINE
  8
0
 10
-266.429
 20
-29.7549
 11
-266.367
 21
-29.5169
  0
LINE
  8
0
 10
-266.367
 20
-29.5169
 11
-266.266
 21
-29.2928
  0
LINE
  8
0
 10
-266.266
 20
-29.2928
 11
-266.128
 21
-29.0891
  0
LINE
  8
0
 10
-266.128
 20
-29.0891
 11
-265.958
 21
-28.9115
  0
LINE
  8
0
 10
-265.958
 20
-28.9115
 11
-265.76
 21
-28.7653
  0
LINE
  8
0
 10
-265.76
 20
-28.7653
 11
-265.541
 21
-28.6546
  0
LINE
  8
0
 10
-265.541
 20
-28.6546
 11
-265.305
 21
-28.5825
  0
LINE
  8
0
 10
-265.305
 20
-28.5825
 11
-265.062
 21
-28.5513
  0
LINE
  8
0
 10
-265.062
 20
-28.5513
 11
-264.816
 21
-28.5617
  0
LINE
  8
0
 10
-264.816
 20
-28.5617
 11
-264.575
 21
-28.6136
  0
LINE
  8
0
 10
-264.575
 20
-28.6136
 11
-264.347
 21
-28.7052
  0
LINE
  8
0
 10
-264.347
 20
-28.7052
 11
-264.138
 21
-28.8342
  0
LINE
  8
0
 10
-264.138
 20
-28.8342
 11
-263.953
 21
-28.9967
  0
LINE
  8
0
 10
-263.953
 20
-28.9967
 11
-263.799
 21
-29.188
  0
LINE
  8
0
 10
-263.799
 20
-29.188
 11
-263.679
 21
-29.4027
  0
LINE
  8
0
 10
-263.679
 20
-29.4027
 11
-263.597
 21
-29.6346
  0
LINE
  8
0
 10
-263.597
 20
-29.6346
 11
-263.555
 21
-29.877
  0
LINE
  8
0
 10
-263.555
 20
-29.877
 11
-263.555
 21
-30.123
  0
LINE
  8
0
 10
-263.555
 20
-30.123
 11
-263.597
 21
-30.3654
  0
LINE
  8
0
 10
-263.597
 20
-30.3654
 11
-263.679
 21
-30.5972
  0
LINE
  8
0
 10
-263.679
 20
-30.5972
 11
-263.799
 21
-30.812
  0
LINE
  8
0
 10
-263.799
 20
-30.812
 11
-263.953
 21
-31.0033
  0
LINE
  8
0
 10
-263.953
 20
-31.0033
 11
-264.138
 21
-31.1658
  0
LINE
  8
0
 10
-264.138
 20
-31.1658
 11
-264.347
 21
-31.2947
  0
LINE
  8
0
 10
-264.347
 20
-31.2947
 11
-264.575
 21
-31.3864
  0
LINE
  8
0
 10
-264.575
 20
-31.3864
 11
-264.816
 21
-31.4382
  0
LINE
  8
0
 10
-264.816
 20
-31.4382
 11
-265.062
 21
-31.4487
  0
LINE
  8
0
 10
-265.062
 20
-31.4487
 11
-265.305
 21
-31.4174
  0
LINE
  8
0
 10
207.251
 20
-144.232
 11
207.007
 21
-144.179
  0
LINE
  8
0
 10
207.007
 20
-144.179
 11
206.773
 21
-144.092
  0
LINE
  8
0
 10
206.773
 20
-144.092
 11
206.554
 21
-143.972
  0
LINE
  8
0
 10
206.554
 20
-143.972
 11
206.354
 21
-143.823
  0
LINE
  8
0
 10
206.354
 20
-143.823
 11
206.177
 21
-143.646
  0
LINE
  8
0
 10
206.177
 20
-143.646
 11
206.028
 21
-143.446
  0
LINE
  8
0
 10
206.028
 20
-143.446
 11
205.908
 21
-143.227
  0
LINE
  8
0
 10
205.908
 20
-143.227
 11
205.821
 21
-142.993
  0
LINE
  8
0
 10
205.821
 20
-142.993
 11
205.768
 21
-142.749
  0
LINE
  8
0
 10
205.768
 20
-142.749
 11
205.75
 21
-142.5
  0
LINE
  8
0
 10
205.75
 20
-142.5
 11
205.75
 21
-52.5
  0
LINE
  8
0
 10
205.75
 20
-52.5
 11
205.768
 21
-52.2509
  0
LINE
  8
0
 10
205.768
 20
-52.2509
 11
205.821
 21
-52.007
  0
LINE
  8
0
 10
205.821
 20
-52.007
 11
205.908
 21
-51.773
  0
LINE
  8
0
 10
205.908
 20
-51.773
 11
206.028
 21
-51.5539
  0
LINE
  8
0
 10
206.028
 20
-51.5539
 11
206.177
 21
-51.354
  0
LINE
  8
0
 10
206.177
 20
-51.354
 11
206.354
 21
-51.1774
  0
LINE
  8
0
 10
206.354
 20
-51.1774
 11
206.554
 21
-51.0278
  0
LINE
  8
0
 10
206.554
 20
-51.0278
 11
206.773
 21
-50.9081
  0
LINE
  8
0
 10
206.773
 20
-50.9081
 11
207.007
 21
-50.8209
  0
LINE
  8
0
 10
207.007
 20
-50.8209
 11
207.251
 21
-50.7678
  0
LINE
  8
0
 10
207.251
 20
-50.7678
 11
207.5
 21
-50.75
  0
LINE
  8
0
 10
207.5
 20
-50.75
 11
207.749
 21
-50.7678
  0
LINE
  8
0
 10
207.749
 20
-50.7678
 11
207.993
 21
-50.8209
  0
LINE
  8
0
 10
207.993
 20
-50.8209
 11
208.227
 21
-50.9081
  0
LINE
  8
0
 10
208.227
 20
-50.9081
 11
208.446
 21
-51.0278
  0
LINE
  8
0
 10
208.446
 20
-51.0278
 11
208.646
 21
-51.1774
  0
LINE
  8
0
 10
208.646
 20
-51.1774
 11
208.823
 21
-51.354
  0
LINE
  8
0
 10
208.823
 20
-51.354
 11
208.972
 21
-51.5539
  0
LINE
  8
0
 10
208.972
 20
-51.5539
 11
209.092
 21
-51.773
  0
LINE
  8
0
 10
209.092
 20
-51.773
 11
209.179
 21
-52.007
  0
LINE
  8
0
 10
209.179
 20
-52.007
 11
209.232
 21
-52.2509
  0
LINE
  8
0
 10
209.232
 20
-52.2509
 11
209.25
 21
-52.5
  0
LINE
  8
0
 10
209.25
 20
-52.5
 11
209.25
 21
-142.5
  0
LINE
  8
0
 10
209.25
 20
-142.5
 11
209.232
 21
-142.749
  0
LINE
  8
0
 10
209.232
 20
-142.749
 11
209.179
 21
-142.993
  0
LINE
  8
0
 10
209.179
 20
-142.993
 11
209.092
 21
-143.227
  0
LINE
  8
0
 10
209.092
 20
-143.227
 11
208.972
 21
-143.446
  0
LINE
  8
0
 10
208.972
 20
-143.446
 11
208.823
 21
-143.646
  0
LINE
  8
0
 10
208.823
 20
-143.646
 11
208.646
 21
-143.823
  0
LINE
  8
0
 10
208.646
 20
-143.823
 11
208.446
 21
-143.972
  0
LINE
  8
0
 10
208.446
 20
-143.972
 11
208.227
 21
-144.092
  0
LINE
  8
0
 10
208.227
 20
-144.092
 11
207.993
 21
-144.179
  0
LINE
  8
0
 10
207.993
 20
-144.179
 11
207.749
 21
-144.232
  0
LINE
  8
0
 10
207.749
 20
-144.232
 11
207.5
 21
-144.25
  0
LINE
  8
0
 10
207.5
 20
-144.25
 11
207.251
 21
-144.232
  0
LINE
  8
0
 10
-207.749
 20
-144.232
 11
-207.993
 21
-144.179
  0
LINE
  8
0
 10
-207.993
 20
-144.179
 11
-208.227
 21
-144.092
  0
LINE
  8
0
 10
-208.227
 20
-144.092
 11
-208.446
 21
-143.972
  0
LINE
  8
0
 10
-208.446
 20
-143.972
 11
-208.646
 21
-143.823
  0
LINE
  8
0
 10
-208.646
 20
-143.823
 11
-208.823
 21
-143.646
  0
LINE
  8
0
 10
-208.823
 20
-143.646
 11
-208.972
 21
-143.446
  0
LINE
  8
0
 10
-208.972
 20
-143.446
 11
-209.092
 21
-143.227
  0
LINE
  8
0
 10
-209.092
 20
-143.227
 11
-209.179
 21
-142.993
  0
LINE
  8
0
 10
-209.179
 20
-142.993
 11
-209.232
 21
-142.749
  0
LINE
  8
0
 10
-209.232
 20
-142.749
 11
-209.25
 21
-142.5
  0
LINE
  8
0
 10
-209.25
 20
-142.5
 11
-209.25
 21
-52.5
  0
LINE
  8
0
 10
-209.25
 20
-52.5
 11
-209.232
 21
-52.2509
  0
LINE
  8
0
 10
-209.232
 20
-52.2509
 11
-209.179
 21
-52.007
  0
LINE
  8
0
 10
-209.179
 20
-52.007
 11
-209.092
 21
-51.773
  0
LINE
  8
0
 10
-209.092
 20
-51.773
 11
-208.972
 21
-51.5539
  0
LINE
  8
0
 10
-208.972
 20
-51.5539
 11
-208.823
 21
-51.354
  0
LINE
  8
0
 10
-208.823
 20
-51.354
 11
-208.646
 21
-51.1774
  0
LINE
  8
0
 10
-208.646
 20
-51.1774
 11
-208.446
 21
-51.0278
  0
LINE
  8
0
 10
-208.446
 20
-51.0278
 11
-208.227
 21
-50.9081
  0
LINE
  8
0
 10
-208.227
 20
-50.9081
 11
-207.993
 21
-50.8209
  0
LINE
  8
0
 10
-207.993
 20
-50.8209
 11
-207.749
 21
-50.7678
  0
LINE
  8
0
 10
-207.749
 20
-50.7678
 11
-207.5
 21
-50.75
  0
LINE
  8
0
 10
-207.5
 20
-50.75
 11
-207.251
 21
-50.7678
  0
LINE
  8
0
 10
-207.251
 20
-50.7678
 11
-207.007
 21
-50.8209
  0
LINE
  8
0
 10
-207.007
 20
-50.8209
 11
-206.773
 21
-50.9081
  0
LINE
  8
0
 10
-206.773
 20
-50.9081
 11
-206.554
 21
-51.0278
  0
LINE
  8
0
 10
-206.554
 20
-51.0278
 11
-206.354
 21
-51.1774
  0
LINE
  8
0
 10
-206.354
 20
-51.1774
 11
-206.177
 21
-51.354
  0
LINE
  8
0
 10
-206.177
 20
-51.354
 11
-206.028
 21
-51.5539
  0
LINE
  8
0
 10
-206.028
 20
-51.5539
 11
-205.908
 21
-51.773
  0
LINE
  8
0
 10
-205.908
 20
-51.773
 11
-205.821
 21
-52.007
  0
LINE
  8
0
 10
-205.821
 20
-52.007
 11
-205.768
 21
-52.2509
  0
LINE
  8
0
 10
-205.768
 20
-52.2509
 11
-205.75
 21
-52.5
  0
LINE
  8
0
 10
-205.75
 20
-52.5
 11
-205.75
 21
-142.5
  0
LINE
  8
0
 10
-205.75
 20
-142.5
 11
-205.768
 21
-142.749
  0
LINE
  8
0
 10
-205.768
 20
-142.749
 11
-205.821
 21
-142.993
  0
LINE
  8
0
 10
-205.821
 20
-142.993
 11
-205.908
 21
-143.227
  0
LINE
  8
0
 10
-205.908
 20
-143.227
 11
-206.028
 21
-143.446
  0
LINE
  8
0
 10
-206.028
 20
-143.446
 11
-206.177
 21
-143.646
  0
LINE
  8
0
 10
-206.177
 20
-143.646
 11
-206.354
 21
-143.823
  0
LINE
  8
0
 10
-206.354
 20
-143.823
 11
-206.554
 21
-143.972
  0
LINE
  8
0
 10
-206.554
 20
-143.972
 11
-206.773
 21
-144.092
  0
LINE
  8
0
 10
-206.773
 20
-144.092
 11
-207.007
 21
-144.179
  0
LINE
  8
0
 10
-207.007
 20
-144.179
 11
-207.251
 21
-144.232
  0
LINE
  8
0
 10
-207.251
 20
-144.232
 11
-207.5
 21
-144.25
  0
LINE
  8
0
 10
-207.5
 20
-144.25
 11
-207.749
 21
-144.232
  0
LINE
  8
0
 10
264.377
 20
-164.145
 11
264.133
 21
-164.109
  0
LINE
  8
0
 10
264.133
 20
-164.109
 11
263.897
 21
-164.036
  0
LINE
  8
0
 10
263.897
 20
-164.036
 11
263.675
 21
-163.929
  0
LINE
  8
0
 10
263.675
 20
-163.929
 11
263.471
 21
-163.79
  0
LINE
  8
0
 10
263.471
 20
-163.79
 11
263.29
 21
-163.622
  0
LINE
  8
0
 10
263.29
 20
-163.622
 11
263.137
 21
-163.429
  0
LINE
  8
0
 10
263.137
 20
-163.429
 11
263.013
 21
-163.216
  0
LINE
  8
0
 10
263.013
 20
-163.216
 11
262.923
 21
-162.986
  0
LINE
  8
0
 10
262.923
 20
-162.986
 11
262.868
 21
-162.746
  0
LINE
  8
0
 10
262.868
 20
-162.746
 11
262.85
 21
-162.5
  0
LINE
  8
0
 10
262.85
 20
-162.5
 11
262.868
 21
-162.254
  0
LINE
  8
0
 10
262.868
 20
-162.254
 11
262.923
 21
-162.014
  0
LINE
  8
0
 10
262.923
 20
-162.014
 11
263.013
 21
-161.784
  0
LINE
  8
0
 10
263.013
 20
-161.784
 11
263.137
 21
-161.571
  0
LINE
  8
0
 10
263.137
 20
-161.571
 11
263.29
 21
-161.378
  0
LINE
  8
0
 10
263.29
 20
-161.378
 11
263.471
 21
-161.21
  0
LINE
  8
0
 10
263.471
 20
-161.21
 11
263.675
 21
-161.071
  0
LINE
  8
0
 10
263.675
 20
-161.071
 11
263.897
 21
-160.964
  0
LINE
  8
0
 10
263.897
 20
-160.964
 11
264.133
 21
-160.891
  0
LINE
  8
0
 10
264.133
 20
-160.891
 11
264.377
 21
-160.855
  0
LINE
  8
0
 10
264.377
 20
-160.855
 11
272.623
 21
-160.855
  0
LINE
  8
0
 10
272.623
 20
-160.855
 11
272.867
 21
-160.891
  0
LINE
  8
0
 10
272.867
 20
-160.891
 11
273.103
 21
-160.964
  0
LINE
  8
0
 10
273.103
 20
-160.964
 11
273.325
 21
-161.071
  0
LINE
  8
0
 10
273.325
 20
-161.071
 11
273.529
 21
-161.21
  0
LINE
  8
0
 10
273.529
 20
-161.21
 11
273.71
 21
-161.378
  0
LINE
  8
0
 10
273.71
 20
-161.378
 11
273.863
 21
-161.571
  0
LINE
  8
0
 10
273.863
 20
-161.571
 11
273.987
 21
-161.784
  0
LINE
  8
0
 10
273.987
 20
-161.784
 11
274.077
 21
-162.014
  0
LINE
  8
0
 10
274.077
 20
-162.014
 11
274.132
 21
-162.254
  0
LINE
  8
0
 10
274.132
 20
-162.254
 11
274.15
 21
-162.5
  0
LINE
  8
0
 10
274.15
 20
-162.5
 11
274.132
 21
-162.746
  0
LINE
  8
0
 10
274.132
 20
-162.746
 11
274.077
 21
-162.986
  0
LINE
  8
0
 10
274.077
 20
-162.986
 11
273.987
 21
-163.216
  0
LINE
  8
0
 10
273.987
 20
-163.216
 11
273.863
 21
-163.429
  0
LINE
  8
0
 10
273.863
 20
-163.429
 11
273.71
 21
-163.622
  0
LINE
  8
0
 10
273.71
 20
-163.622
 11
273.529
 21
-163.79
  0
LINE
  8
0
 10
273.529
 20
-163.79
 11
273.325
 21
-163.929
  0
LINE
  8
0
 10
273.325
 20
-163.929
 11
273.103
 21
-164.036
  0
LINE
  8
0
 10
273.103
 20
-164.036
 11
272.867
 21
-164.109
  0
LINE
  8
0
 10
272.867
 20
-164.109
 11
272.623
 21
-164.145
  0
LINE
  8
0
 10
272.623
 20
-164.145
 11
264.377
 21
-164.145
  0
LINE
  8
0
 10
233.377
 20
-164.145
 11
233.133
 21
-164.109
  0
LINE
  8
0
 10
233.133
 20
-164.109
 11
232.897
 21
-164.036
  0
LINE
  8
0
 10
232.897
 20
-164.036
 11
232.675
 21
-163.929
  0
LINE
  8
0
 10
232.675
 20
-163.929
 11
232.471
 21
-163.79
  0
LINE
  8
0
 10
232.471
 20
-163.79
 11
232.29
 21
-163.622
  0
LINE
  8
0
 10
232.29
 20
-163.622
 11
232.137
 21
-163.429
  0
LINE
  8
0
 10
232.137
 20
-163.429
 11
232.013
 21
-163.216
  0
LINE
  8
0
 10
232.013
 20
-163.216
 11
231.923
 21
-162.986
  0
LINE
  8
0
 10
231.923
 20
-162.986
 11
231.868
 21
-162.746
  0
LINE
  8
0
 10
231.868
 20
-162.746
 11
231.85
 21
-162.5
  0
LINE
  8
0
 10
231.85
 20
-162.5
 11
231.868
 21
-162.254
  0
LINE
  8
0
 10
231.868
 20
-162.254
 11
231.923
 21
-162.014
  0
LINE
  8
0
 10
231.923
 20
-162.014
 11
232.013
 21
-161.784
  0
LINE
  8
0
 10
232.013
 20
-161.784
 11
232.137
 21
-161.571
  0
LINE
  8
0
 10
232.137
 20
-161.571
 11
232.29
 21
-161.378
  0
LINE
  8
0
 10
232.29
 20
-161.378
 11
232.471
 21
-161.21
  0
LINE
  8
0
 10
232.471
 20
-161.21
 11
232.675
 21
-161.071
  0
LINE
  8
0
 10
232.675
 20
-161.071
 11
232.897
 21
-160.964
  0
LINE
  8
0
 10
232.897
 20
-160.964
 11
233.133
 21
-160.891
  0
LINE
  8
0
 10
233.133
 20
-160.891
 11
233.377
 21
-160.855
  0
LINE
  8
0
 10
233.377
 20
-160.855
 11
241.623
 21
-160.855
  0
LINE
  8
0
 10
241.623
 20
-160.855
 11
241.867
 21
-160.891
  0
LINE
  8
0
 10
241.867
 20
-160.891
 11
242.103
 21
-160.964
  0
LINE
  8
0
 10
242.103
 20
-160.964
 11
242.325
 21
-161.071
  0
LINE
  8
0
 10
242.325
 20
-161.071
 11
242.529
 21
-161.21
  0
LINE
  8
0
 10
242.529
 20
-161.21
 11
242.71
 21
-161.378
  0
LINE
  8
0
 10
242.71
 20
-161.378
 11
242.863
 21
-161.571
  0
LINE
  8
0
 10
242.863
 20
-161.571
 11
242.987
 21
-161.784
  0
LINE
  8
0
 10
242.987
 20
-161.784
 11
243.077
 21
-162.014
  0
LINE
  8
0
 10
243.077
 20
-162.014
 11
243.132
 21
-162.254
  0
LINE
  8
0
 10
243.132
 20
-162.254
 11
243.15
 21
-162.5
  0
LINE
  8
0
 10
243.15
 20
-162.5
 11
243.132
 21
-162.746
  0
LINE
  8
0
 10
243.132
 20
-162.746
 11
243.077
 21
-162.986
  0
LINE
  8
0
 10
243.077
 20
-162.986
 11
242.987
 21
-163.216
  0
LINE
  8
0
 10
242.987
 20
-163.216
 11
242.863
 21
-163.429
  0
LINE
  8
0
 10
242.863
 20
-163.429
 11
242.71
 21
-163.622
  0
LINE
  8
0
 10
242.71
 20
-163.622
 11
242.529
 21
-163.79
  0
LINE
  8
0
 10
242.529
 20
-163.79
 11
242.325
 21
-163.929
  0
LINE
  8
0
 10
242.325
 20
-163.929
 11
242.103
 21
-164.036
  0
LINE
  8
0
 10
242.103
 20
-164.036
 11
241.867
 21
-164.109
  0
LINE
  8
0
 10
241.867
 20
-164.109
 11
241.623
 21
-164.145
  0
LINE
  8
0
 10
241.623
 20
-164.145
 11
233.377
 21
-164.145
  0
LINE
  8
0
 10
248.5
 20
-190.5
 11
247.193
 21
-190.432
  0
LINE
  8
0
 10
247.193
 20
-190.432
 11
245.901
 21
-190.227
  0
LINE
  8
0
 10
245.901
 20
-190.227
 11
244.637
 21
-189.888
  0
LINE
  8
0
 10
244.637
 20
-189.888
 11
243.416
 21
-189.419
  0
LINE
  8
0
 10
243.416
 20
-189.419
 11
242.25
 21
-188.825
  0
LINE
  8
0
 10
242.25
 20
-188.825
 11
241.153
 21
-188.113
  0
LINE
  8
0
 10
241.153
 20
-188.113
 11
240.136
 21
-187.289
  0
LINE
  8
0
 10
240.136
 20
-187.289
 11
239.211
 21
-186.364
  0
LINE
  8
0
 10
239.211
 20
-186.364
 11
238.387
 21
-185.347
  0
LINE
  8
0
 10
238.387
 20
-185.347
 11
237.675
 21
-184.25
  0
LINE
  8
0
 10
237.675
 20
-184.25
 11
237.081
 21
-183.084
  0
LINE
  8
0
 10
237.081
 20
-183.084
 11
236.612
 21
-181.863
  0
LINE
  8
0
 10
236.612
 20
-181.863
 11
236.273
 21
-180.599
  0
LINE
  8
0
 10
236.273
 20
-180.599
 11
236.068
 21
-179.307
  0
LINE
  8
0
 10
236.068
 20
-179.307
 11
236
 21
-178
  0
LINE
  8
0
 10
236
 20
-178
 11
236.068
 21
-176.693
  0
LINE
  8
0
 10
236.068
 20
-176.693
 11
236.273
 21
-175.401
  0
LINE
  8
0
 10
236.273
 20
-175.401
 11
236.612
 21
-174.137
  0
LINE
  8
0
 10
236.612
 20
-174.137
 11
237.081
 21
-172.916
  0
LINE
  8
0
 10
237.081
 20
-172.916
 11
237.675
 21
-171.75
  0
LINE
  8
0
 10
237.675
 20
-171.75
 11
238.387
 21
-170.653
  0
LINE
  8
0
 10
238.387
 20
-170.653
 11
239.211
 21
-169.636
  0
LINE
  8
0
 10
239.211
 20
-169.636
 11
240.136
 21
-168.711
  0
LINE
  8
0
 10
240.136
 20
-168.711
 11
241.153
 21
-167.887
  0
LINE
  8
0
 10
241.153
 20
-167.887
 11
242.25
 21
-167.175
  0
LINE
  8
0
 10
242.25
 20
-167.175
 11
243.416
 21
-166.581
  0
LINE
  8
0
 10
243.416
 20
-166.581
 11
244.637
 21
-166.112
  0
LINE
  8
0
 10
244.637
 20
-166.112
 11
245.901
 21
-165.773
  0
LINE
  8
0
 10
245.901
 20
-165.773
 11
247.193
 21
-165.568
  0
LINE
  8
0
 10
247.193
 20
-165.568
 11
248.5
 21
-165.5
  0
LINE
  8
0
 10
248.5
 20
-165.5
 11
256.5
 21
-165.5
  0
LINE
  8
0
 10
256.5
 20
-165.5
 11
257.807
 21
-165.568
  0
LINE
  8
0
 10
257.807
 20
-165.568
 11
259.099
 21
-165.773
  0
LINE
  8
0
 10
259.099
 20
-165.773
 11
260.363
 21
-166.112
  0
LINE
  8
0
 10
260.363
 20
-166.112
 11
261.584
 21
-166.581
  0
LINE
  8
0
 10
261.584
 20
-166.581
 11
262.75
 21
-167.175
  0
LINE
  8
0
 10
262.75
 20
-167.175
 11
263.847
 21
-167.887
  0
LINE
  8
0
 10
263.847
 20
-167.887
 11
264.864
 21
-168.711
  0
LINE
  8
0
 10
264.864
 20
-168.711
 11
265.789
 21
-169.636
  0
LINE
  8
0
 10
265.789
 20
-169.636
 11
266.613
 21
-170.653
  0
LINE
  8
0
 10
266.613
 20
-170.653
 11
267.325
 21
-171.75
  0
LINE
  8
0
 10
267.325
 20
-171.75
 11
267.919
 21
-172.916
  0
LINE
  8
0
 10
267.919
 20
-172.916
 11
268.388
 21
-174.137
  0
LINE
  8
0
 10
268.388
 20
-174.137
 11
268.727
 21
-175.401
  0
LINE
  8
0
 10
268.727
 20
-175.401
 11
268.932
 21
-176.693
  0
LINE
  8
0
 10
268.932
 20
-176.693
 11
269
 21
-178
  0
LINE
  8
0
 10
269
 20
-178
 11
268.932
 21
-179.307
  0
LINE
  8
0
 10
268.932
 20
-179.307
 11
268.727
 21
-180.599
  0
LINE
  8
0
 10
268.727
 20
-180.599
 11
268.388
 21
-181.863
  0
LINE
  8
0
 10
268.388
 20
-181.863
 11
267.919
 21
-183.084
  0
LINE
  8
0
 10
267.919
 20
-183.084
 11
267.325
 21
-184.25
  0
LINE
  8
0
 10
267.325
 20
-184.25
 11
266.613
 21
-185.347
  0
LINE
  8
0
 10
266.613
 20
-185.347
 11
265.789
 21
-186.364
  0
LINE
  8
0
 10
265.789
 20
-186.364
 11
264.864
 21
-187.289
  0
LINE
  8
0
 10
264.864
 20
-187.289
 11
263.847
 21
-188.113
  0
LINE
  8
0
 10
263.847
 20
-188.113
 11
262.75
 21
-188.825
  0
LINE
  8
0
 10
262.75
 20
-188.825
 11
261.584
 21
-189.419
  0
LINE
  8
0
 10
261.584
 20
-189.419
 11
260.363
 21
-189.888
  0
LINE
  8
0
 10
260.363
 20
-189.888
 11
259.099
 21
-190.227
  0
LINE
  8
0
 10
259.099
 20
-190.227
 11
257.807
 21
-190.432
  0
LINE
  8
0
 10
257.807
 20
-190.432
 11
256.5
 21
-190.5
  0
LINE
  8
0
 10
256.5
 20
-190.5
 11
248.5
 21
-190.5
  0
LINE
  8
0
 10
-234.744
 20
-168.226
 11
-234.978
 21
-168.155
  0
LINE
  8
0
 10
-234.978
 20
-168.155
 11
-235.194
 21
-168.039
  0
LINE
  8
0
 10
-235.194
 20
-168.039
 11
-235.384
 21
-167.884
  0
LINE
  8
0
 10
-235.384
 20
-167.884
 11
-235.539
 21
-167.694
  0
LINE
  8
0
 10
-235.539
 20
-167.694
 11
-235.655
 21
-167.478
  0
LINE
  8
0
 10
-235.655
 20
-167.478
 11
-235.726
 21
-167.244
  0
LINE
  8
0
 10
-235.726
 20
-167.244
 11
-235.75
 21
-167
  0
LINE
  8
0
 10
-235.75
 20
-167
 11
-235.726
 21
-166.756
  0
LINE
  8
0
 10
-235.726
 20
-166.756
 11
-235.655
 21
-166.522
  0
LINE
  8
0
 10
-235.655
 20
-166.522
 11
-235.539
 21
-166.306
  0
LINE
  8
0
 10
-235.539
 20
-166.306
 11
-235.384
 21
-166.116
  0
LINE
  8
0
 10
-235.384
 20
-166.116
 11
-235.194
 21
-165.961
  0
LINE
  8
0
 10
-235.194
 20
-165.961
 11
-234.978
 21
-165.845
  0
LINE
  8
0
 10
-234.978
 20
-165.845
 11
-234.744
 21
-165.774
  0
LINE
  8
0
 10
-234.744
 20
-165.774
 11
-234.5
 21
-165.75
  0
LINE
  8
0
 10
-234.5
 20
-165.75
 11
-234.256
 21
-165.774
  0
LINE
  8
0
 10
-234.256
 20
-165.774
 11
-234.022
 21
-165.845
  0
LINE
  8
0
 10
-234.022
 20
-165.845
 11
-233.806
 21
-165.961
  0
LINE
  8
0
 10
-233.806
 20
-165.961
 11
-233.616
 21
-166.116
  0
LINE
  8
0
 10
-233.616
 20
-166.116
 11
-233.461
 21
-166.306
  0
LINE
  8
0
 10
-233.461
 20
-166.306
 11
-233.345
 21
-166.522
  0
LINE
  8
0
 10
-233.345
 20
-166.522
 11
-233.274
 21
-166.756
  0
LINE
  8
0
 10
-233.274
 20
-166.756
 11
-233.25
 21
-167
  0
LINE
  8
0
 10
-233.25
 20
-167
 11
-233.274
 21
-167.244
  0
LINE
  8
0
 10
-233.274
 20
-167.244
 11
-233.345
 21
-167.478
  0
LINE
  8
0
 10
-233.345
 20
-167.478
 11
-233.461
 21
-167.694
  0
LINE
  8
0
 10
-233.461
 20
-167.694
 11
-233.616
 21
-167.884
  0
LINE
  8
0
 10
-233.616
 20
-167.884
 11
-233.806
 21
-168.039
  0
LINE
  8
0
 10
-233.806
 20
-168.039
 11
-234.022
 21
-168.155
  0
LINE
  8
0
 10
-234.022
 20
-168.155
 11
-234.256
 21
-168.226
  0
LINE
  8
0
 10
-234.256
 20
-168.226
 11
-234.5
 21
-168.25
  0
LINE
  8
0
 10
-234.5
 20
-168.25
 11
-234.744
 21
-168.226
  0
LINE
  8
0
 10
-207.686
 20
-171.69
 11
-207.93
 21
-171.645
  0
LINE
  8
0
 10
-207.93
 20
-171.645
 11
-208.165
 21
-171.565
  0
LINE
  8
0
 10
-208.165
 20
-171.565
 11
-208.386
 21
-171.451
  0
LINE
  8
0
 10
-208.386
 20
-171.451
 11
-208.587
 21
-171.307
  0
LINE
  8
0
 10
-208.587
 20
-171.307
 11
-208.766
 21
-171.134
  0
LINE
  8
0
 10
-208.766
 20
-171.134
 11
-208.918
 21
-170.938
  0
LINE
  8
0
 10
-208.918
 20
-170.938
 11
-209.039
 21
-170.722
  0
LINE
  8
0
 10
-209.039
 20
-170.722
 11
-209.128
 21
-170.49
  0
LINE
  8
0
 10
-209.128
 20
-170.49
 11
-209.182
 21
-170.248
  0
LINE
  8
0
 10
-209.182
 20
-170.248
 11
-209.2
 21
-170
  0
LINE
  8
0
 10
-209.2
 20
-170
 11
-209.182
 21
-169.752
  0
LINE
  8
0
 10
-209.182
 20
-169.752
 11
-209.128
 21
-169.51
  0
LINE
  8
0
 10
-209.128
 20
-169.51
 11
-209.039
 21
-169.278
  0
LINE
  8
0
 10
-209.039
 20
-169.278
 11
-208.918
 21
-169.062
  0
LINE
  8
0
 10
-208.918
 20
-169.062
 11
-208.766
 21
-168.866
  0
LINE
  8
0
 10
-208.766
 20
-168.866
 11
-208.587
 21
-168.693
  0
LINE
  8
0
 10
-208.587
 20
-168.693
 11
-208.386
 21
-168.549
  0
LINE
  8
0
 10
-208.386
 20
-168.549
 11
-208.165
 21
-168.435
  0
LINE
  8
0
 10
-208.165
 20
-168.435
 11
-207.93
 21
-168.355
  0
LINE
  8
0
 10
-207.93
 20
-168.355
 11
-207.686
 21
-168.31
  0
LINE
  8
0
 10
-207.686
 20
-168.31
 11
-207.438
 21
-168.301
  0
LINE
  8
0
 10
-207.438
 20
-168.301
 11
-207.191
 21
-168.328
  0
LINE
  8
0
 10
-207.191
 20
-168.328
 11
-206.951
 21
-168.391
  0
LINE
  8
0
 10
-206.951
 20
-168.391
 11
-206.723
 21
-168.488
  0
LINE
  8
0
 10
-206.723
 20
-168.488
 11
-206.511
 21
-168.617
  0
LINE
  8
0
 10
-206.511
 20
-168.617
 11
-206.32
 21
-168.776
  0
LINE
  8
0
 10
-206.32
 20
-168.776
 11
-206.154
 21
-168.961
  0
LINE
  8
0
 10
-206.154
 20
-168.961
 11
-206.018
 21
-169.168
  0
LINE
  8
0
 10
-206.018
 20
-169.168
 11
-205.912
 21
-169.393
  0
LINE
  8
0
 10
-205.912
 20
-169.393
 11
-205.841
 21
-169.63
  0
LINE
  8
0
 10
-205.841
 20
-169.63
 11
-205.805
 21
-169.876
  0
LINE
  8
0
 10
-205.805
 20
-169.876
 11
-205.805
 21
-170.124
  0
LINE
  8
0
 10
-205.805
 20
-170.124
 11
-205.841
 21
-170.37
  0
LINE
  8
0
 10
-205.841
 20
-170.37
 11
-205.912
 21
-170.607
  0
LINE
  8
0
 10
-205.912
 20
-170.607
 11
-206.018
 21
-170.832
  0
LINE
  8
0
 10
-206.018
 20
-170.832
 11
-206.154
 21
-171.039
  0
LINE
  8
0
 10
-206.154
 20
-171.039
 11
-206.32
 21
-171.224
  0
LINE
  8
0
 10
-206.32
 20
-171.224
 11
-206.511
 21
-171.383
  0
LINE
  8
0
 10
-206.511
 20
-171.383
 11
-206.723
 21
-171.512
  0
LINE
  8
0
 10
-206.723
 20
-171.512
 11
-206.951
 21
-171.609
  0
LINE
  8
0
 10
-206.951
 20
-171.609
 11
-207.191
 21
-171.672
  0
LINE
  8
0
 10
-207.191
 20
-171.672
 11
-207.438
 21
-171.699
  0
LINE
  8
0
 10
-207.438
 20
-171.699
 11
-207.686
 21
-171.69
  0
LINE
  8
0
 10
207.191
 20
-171.672
 11
206.951
 21
-171.609
  0
LINE
  8
0
 10
206.951
 20
-171.609
 11
206.723
 21
-171.512
  0
LINE
  8
0
 10
206.723
 20
-171.512
 11
206.511
 21
-171.383
  0
LINE
  8
0
 10
206.511
 20
-171.383
 11
206.32
 21
-171.224
  0
LINE
  8
0
 10
206.32
 20
-171.224
 11
206.154
 21
-171.039
  0
LINE
  8
0
 10
206.154
 20
-171.039
 11
206.018
 21
-170.832
  0
LINE
  8
0
 10
206.018
 20
-170.832
 11
205.912
 21
-170.607
  0
LINE
  8
0
 10
205.912
 20
-170.607
 11
205.841
 21
-170.37
  0
LINE
  8
0
 10
205.841
 20
-170.37
 11
205.805
 21
-170.124
  0
LINE
  8
0
 10
205.805
 20
-170.124
 11
205.805
 21
-169.876
  0
LINE
  8
0
 10
205.805
 20
-169.876
 11
205.841
 21
-169.63
  0
LINE
  8
0
 10
205.841
 20
-169.63
 11
205.912
 21
-169.393
  0
LINE
  8
0
 10
205.912
 20
-169.393
 11
206.018
 21
-169.168
  0
LINE
  8
0
 10
206.018
 20
-169.168
 11
206.154
 21
-168.961
  0
LINE
  8
0
 10
206.154
 20
-168.961
 11
206.32
 21
-168.776
  0
LINE
  8
0
 10
206.32
 20
-168.776
 11
206.511
 21
-168.617
  0
LINE
  8
0
 10
206.511
 20
-168.617
 11
206.723
 21
-168.488
  0
LINE
  8
0
 10
206.723
 20
-168.488
 11
206.951
 21
-168.391
  0
LINE
  8
0
 10
206.951
 20
-168.391
 11
207.191
 21
-168.328
  0
LINE
  8
0
 10
207.191
 20
-168.328
 11
207.438
 21
-168.301
  0
LINE
  8
0
 10
207.438
 20
-168.301
 11
207.686
 21
-168.31
  0
LINE
  8
0
 10
207.686
 20
-168.31
 11
207.93
 21
-168.355
  0
LINE
  8
0
 10
207.93
 20
-168.355
 11
208.165
 21
-168.435
  0
LINE
  8
0
 10
208.165
 20
-168.435
 11
208.386
 21
-168.549
  0
LINE
  8
0
 10
208.386
 20
-168.549
 11
208.587
 21
-168.693
  0
LINE
  8
0
 10
208.587
 20
-168.693
 11
208.766
 21
-168.866
  0
LINE
  8
0
 10
208.766
 20
-168.866
 11
208.918
 21
-169.062
  0
LINE
  8
0
 10
208.918
 20
-169.062
 11
209.039
 21
-169.278
  0
LINE
  8
0
 10
209.039
 20
-169.278
 11
209.128
 21
-169.51
  0
LINE
  8
0
 10
209.128
 20
-169.51
 11
209.182
 21
-169.752
  0
LINE
  8
0
 10
209.182
 20
-169.752
 11
209.2
 21
-170
  0
LINE
  8
0
 10
209.2
 20
-170
 11
209.182
 21
-170.248
  0
LINE
  8
0
 10
209.182
 20
-170.248
 11
209.128
 21
-170.49
  0
LINE
  8
0
 10
209.128
 20
-170.49
 11
209.039
 21
-170.722
  0
LINE
  8
0
 10
209.039
 20
-170.722
 11
208.918
 21
-170.938
  0
LINE
  8
0
 10
208.918
 20
-170.938
 11
208.766
 21
-171.134
  0
LINE
  8
0
 10
208.766
 20
-171.134
 11
208.587
 21
-171.307
  0
LINE
  8
0
 10
208.587
 20
-171.307
 11
208.386
 21
-171.451
  0
LINE
  8
0
 10
208.386
 20
-171.451
 11
208.165
 21
-171.565
  0
LINE
  8
0
 10
208.165
 20
-171.565
 11
207.93
 21
-171.645
  0
LINE
  8
0
 10
207.93
 20
-171.645
 11
207.686
 21
-171.69
  0
LINE
  8
0
 10
207.686
 20
-171.69
 11
207.438
 21
-171.699
  0
LINE
  8
0
 10
207.438
 20
-171.699
 11
207.191
 21
-171.672
  0
LINE
  8
0
 10
-255.244
 20
-179.226
 11
-255.478
 21
-179.155
  0
LINE
  8
0
 10
-255.478
 20
-179.155
 11
-255.694
 21
-179.039
  0
LINE
  8
0
 10
-255.694
 20
-179.039
 11
-255.884
 21
-178.884
  0
LINE
  8
0
 10
-255.884
 20
-178.884
 11
-256.039
 21
-178.694
  0
LINE
  8
0
 10
-256.039
 20
-178.694
 11
-256.155
 21
-178.478
  0
LINE
  8
0
 10
-256.155
 20
-178.478
 11
-256.226
 21
-178.244
  0
LINE
  8
0
 10
-256.226
 20
-178.244
 11
-256.25
 21
-178
  0
LINE
  8
0
 10
-256.25
 20
-178
 11
-256.226
 21
-177.756
  0
LINE
  8
0
 10
-256.226
 20
-177.756
 11
-256.155
 21
-177.522
  0
LINE
  8
0
 10
-256.155
 20
-177.522
 11
-256.039
 21
-177.306
  0
LINE
  8
0
 10
-256.039
 20
-177.306
 11
-255.884
 21
-177.116
  0
LINE
  8
0
 10
-255.884
 20
-177.116
 11
-255.694
 21
-176.961
  0
LINE
  8
0
 10
-255.694
 20
-176.961
 11
-255.478
 21
-176.845
  0
LINE
  8
0
 10
-255.478
 20
-176.845
 11
-255.244
 21
-176.774
  0
LINE
  8
0
 10
-255.244
 20
-176.774
 11
-255
 21
-176.75
  0
LINE
  8
0
 10
-255
 20
-176.75
 11
-254.756
 21
-176.774
  0
LINE
  8
0
 10
-254.756
 20
-176.774
 11
-254.522
 21
-176.845
  0
LINE
  8
0
 10
-254.522
 20
-176.845
 11
-254.306
 21
-176.961
  0
LINE
  8
0
 10
-254.306
 20
-176.961
 11
-254.116
 21
-177.116
  0
LINE
  8
0
 10
-254.116
 20
-177.116
 11
-253.961
 21
-177.306
  0
LINE
  8
0
 10
-253.961
 20
-177.306
 11
-253.845
 21
-177.522
  0
LINE
  8
0
 10
-253.845
 20
-177.522
 11
-253.774
 21
-177.756
  0
LINE
  8
0
 10
-253.774
 20
-177.756
 11
-253.75
 21
-178
  0
LINE
  8
0
 10
-253.75
 20
-178
 11
-253.774
 21
-178.244
  0
LINE
  8
0
 10
-253.774
 20
-178.244
 11
-253.845
 21
-178.478
  0
LINE
  8
0
 10
-253.845
 20
-178.478
 11
-253.961
 21
-178.694
  0
LINE
  8
0
 10
-253.961
 20
-178.694
 11
-254.116
 21
-178.884
  0
LINE
  8
0
 10
-254.116
 20
-178.884
 11
-254.306
 21
-179.039
  0
LINE
  8
0
 10
-254.306
 20
-179.039
 11
-254.522
 21
-179.155
  0
LINE
  8
0
 10
-254.522
 20
-179.155
 11
-254.756
 21
-179.226
  0
LINE
  8
0
 10
-254.756
 20
-179.226
 11
-255
 21
-179.25
  0
LINE
  8
0
 10
-255
 20
-179.25
 11
-255.244
 21
-179.226
  0
LINE
  8
0
 10
207.108
 20
-196.229
 11
206.72
 21
-196.168
  0
LINE
  8
0
 10
206.72
 20
-196.168
 11
206.341
 21
-196.066
  0
LINE
  8
0
 10
206.341
 20
-196.066
 11
205.975
 21
-195.926
  0
LINE
  8
0
 10
205.975
 20
-195.926
 11
205.625
 21
-195.748
  0
LINE
  8
0
 10
205.625
 20
-195.748
 11
205.296
 21
-195.534
  0
LINE
  8
0
 10
205.296
 20
-195.534
 11
204.991
 21
-195.287
  0
LINE
  8
0
 10
204.991
 20
-195.287
 11
204.713
 21
-195.009
  0
LINE
  8
0
 10
204.713
 20
-195.009
 11
204.466
 21
-194.704
  0
LINE
  8
0
 10
204.466
 20
-194.704
 11
204.252
 21
-194.375
  0
LINE
  8
0
 10
204.252
 20
-194.375
 11
204.074
 21
-194.025
  0
LINE
  8
0
 10
204.074
 20
-194.025
 11
203.934
 21
-193.659
  0
LINE
  8
0
 10
203.934
 20
-193.659
 11
203.832
 21
-193.28
  0
LINE
  8
0
 10
203.832
 20
-193.28
 11
203.771
 21
-192.892
  0
LINE
  8
0
 10
203.771
 20
-192.892
 11
203.75
 21
-192.5
  0
LINE
  8
0
 10
203.75
 20
-192.5
 11
203.771
 21
-192.108
  0
LINE
  8
0
 10
203.771
 20
-192.108
 11
203.832
 21
-191.72
  0
LINE
  8
0
 10
203.832
 20
-191.72
 11
203.934
 21
-191.341
  0
LINE
  8
0
 10
203.934
 20
-191.341
 11
204.074
 21
-190.975
  0
LINE
  8
0
 10
204.074
 20
-190.975
 11
204.252
 21
-190.625
  0
LINE
  8
0
 10
204.252
 20
-190.625
 11
204.466
 21
-190.296
  0
LINE
  8
0
 10
204.466
 20
-190.296
 11
204.713
 21
-189.991
  0
LINE
  8
0
 10
204.713
 20
-189.991
 11
204.991
 21
-189.713
  0
LINE
  8
0
 10
204.991
 20
-189.713
 11
205.296
 21
-189.466
  0
LINE
  8
0
 10
205.296
 20
-189.466
 11
205.625
 21
-189.252
  0
LINE
  8
0
 10
205.625
 20
-189.252
 11
205.975
 21
-189.074
  0
LINE
  8
0
 10
205.975
 20
-189.074
 11
206.341
 21
-188.934
  0
LINE
  8
0
 10
206.341
 20
-188.934
 11
206.72
 21
-188.832
  0
LINE
  8
0
 10
206.72
 20
-188.832
 11
207.108
 21
-188.771
  0
LINE
  8
0
 10
207.108
 20
-188.771
 11
207.5
 21
-188.75
  0
LINE
  8
0
 10
207.5
 20
-188.75
 11
207.892
 21
-188.771
  0
LINE
  8
0
 10
207.892
 20
-188.771
 11
208.28
 21
-188.832
  0
LINE
  8
0
 10
208.28
 20
-188.832
 11
208.659
 21
-188.934
  0
LINE
  8
0
 10
208.659
 20
-188.934
 11
209.025
 21
-189.074
  0
LINE
  8
0
 10
209.025
 20
-189.074
 11
209.375
 21
-189.252
  0
LINE
  8
0
 10
209.375
 20
-189.252
 11
209.704
 21
-189.466
  0
LINE
  8
0
 10
209.704
 20
-189.466
 11
210.009
 21
-189.713
  0
LINE
  8
0
 10
210.009
 20
-189.713
 11
210.287
 21
-189.991
  0
LINE
  8
0
 10
210.287
 20
-189.991
 11
210.534
 21
-190.296
  0
LINE
  8
0
 10
210.534
 20
-190.296
 11
210.748
 21
-190.625
  0
LINE
  8
0
 10
210.748
 20
-190.625
 11
210.926
 21
-190.975
  0
LINE
  8
0
 10
210.926
 20
-190.975
 11
211.066
 21
-191.341
  0
LINE
  8
0
 10
211.066
 20
-191.341
 11
211.168
 21
-191.72
  0
LINE
  8
0
 10
211.168
 20
-191.72
 11
211.229
 21
-192.108
  0
LINE
  8
0
 10
211.229
 20
-192.108
 11
211.25
 21
-192.5
  0
LINE
  8
0
 10
211.25
 20
-192.5
 11
211.229
 21
-192.892
  0
LINE
  8
0
 10
211.229
 20
-192.892
 11
211.168
 21
-193.28
  0
LINE
  8
0
 10
211.168
 20
-193.28
 11
211.066
 21
-193.659
  0
LINE
  8
0
 10
211.066
 20
-193.659
 11
210.926
 21
-194.025
  0
LINE
  8
0
 10
210.926
 20
-194.025
 11
210.748
 21
-194.375
  0
LINE
  8
0
 10
210.748
 20
-194.375
 11
210.534
 21
-194.704
  0
LINE
  8
0
 10
210.534
 20
-194.704
 11
210.287
 21
-195.009
  0
LINE
  8
0
 10
210.287
 20
-195.009
 11
210.009
 21
-195.287
  0
LINE
  8
0
 10
210.009
 20
-195.287
 11
209.704
 21
-195.534
  0
LINE
  8
0
 10
209.704
 20
-195.534
 11
209.375
 21
-195.748
  0
LINE
  8
0
 10
209.375
 20
-195.748
 11
209.025
 21
-195.926
  0
LINE
  8
0
 10
209.025
 20
-195.926
 11
208.659
 21
-196.066
  0
LINE
  8
0
 10
208.659
 20
-196.066
 11
208.28
 21
-196.168
  0
LINE
  8
0
 10
208.28
 20
-196.168
 11
207.892
 21
-196.229
  0
LINE
  8
0
 10
207.892
 20
-196.229
 11
207.5
 21
-196.25
  0
LINE
  8
0
 10
207.5
 20
-196.25
 11
207.108
 21
-196.229
  0
LINE
  8
0
 10
-207.892
 20
-196.229
 11
-208.28
 21
-196.168
  0
LINE
  8
0
 10
-208.28
 20
-196.168
 11
-208.659
 21
-196.066
  0
LINE
  8
0
 10
-208.659
 20
-196.066
 11
-209.025
 21
-195.926
  0
LINE
  8
0
 10
-209.025
 20
-195.926
 11
-209.375
 21
-195.748
  0
LINE
  8
0
 10
-209.375
 20
-195.748
 11
-209.704
 21
-195.534
  0
LINE
  8
0
 10
-209.704
 20
-195.534
 11
-210.009
 21
-195.287
  0
LINE
  8
0
 10
-210.009
 20
-195.287
 11
-210.287
 21
-195.009
  0
LINE
  8
0
 10
-210.287
 20
-195.009
 11
-210.534
 21
-194.704
  0
LINE
  8
0
 10
-210.534
 20
-194.704
 11
-210.748
 21
-194.375
  0
LINE
  8
0
 10
-210.748
 20
-194.375
 11
-210.926
 21
-194.025
  0
LINE
  8
0
 10
-210.926
 20
-194.025
 11
-211.066
 21
-193.659
  0
LINE
  8
0
 10
-211.066
 20
-193.659
 11
-211.168
 21
-193.28
  0
LINE
  8
0
 10
-211.168
 20
-193.28
 11
-211.229
 21
-192.892
  0
LINE
  8
0
 10
-211.229
 20
-192.892
 11
-211.25
 21
-192.5
  0
LINE
  8
0
 10
-211.25
 20
-192.5
 11
-211.229
 21
-192.108
  0
LINE
  8
0
 10
-211.229
 20
-192.108
 11
-211.168
 21
-191.72
  0
LINE
  8
0
 10
-211.168
 20
-191.72
 11
-211.066
 21
-191.341
  0
LINE
  8
0
 10
-211.066
 20
-191.341
 11
-210.926
 21
-190.975
  0
LINE
  8
0
 10
-210.926
 20
-190.975
 11
-210.748
 21
-190.625
  0
LINE
  8
0
 10
-210.748
 20
-190.625
 11
-210.534
 21
-190.296
  0
LINE
  8
0
 10
-210.534
 20
-190.296
 11
-210.287
 21
-189.991
  0
LINE
  8
0
 10
-210.287
 20
-189.991
 11
-210.009
 21
-189.713
  0
LINE
  8
0
 10
-210.009
 20
-189.713
 11
-209.704
 21
-189.466
  0
LINE
  8
0
 10
-209.704
 20
-189.466
 11
-209.375
 21
-189.252
  0
LINE
  8
0
 10
-209.375
 20
-189.252
 11
-209.025
 21
-189.074
  0
LINE
  8
0
 10
-209.025
 20
-189.074
 11
-208.659
 21
-188.934
  0
LINE
  8
0
 10
-208.659
 20
-188.934
 11
-208.28
 21
-188.832
  0
LINE
  8
0
 10
-208.28
 20
-188.832
 11
-207.892
 21
-188.771
  0
LINE
  8
0
 10
-207.892
 20
-188.771
 11
-207.5
 21
-188.75
  0
LINE
  8
0
 10
-207.5
 20
-188.75
 11
-207.108
 21
-188.771
  0
LINE
  8
0
 10
-207.108
 20
-188.771
 11
-206.72
 21
-188.832
  0
LINE
  8
0
 10
-206.72
 20
-188.832
 11
-206.341
 21
-188.934
  0
LINE
  8
0
 10
-206.341
 20
-188.934
 11
-205.975
 21
-189.074
  0
LINE
  8
0
 10
-205.975
 20
-189.074
 11
-205.625
 21
-189.252
  0
LINE
  8
0
 10
-205.625
 20
-189.252
 11
-205.296
 21
-189.466
  0
LINE
  8
0
 10
-205.296
 20
-189.466
 11
-204.991
 21
-189.713
  0
LINE
  8
0
 10
-204.991
 20
-189.713
 11
-204.713
 21
-189.991
  0
LINE
  8
0
 10
-204.713
 20
-189.991
 11
-204.466
 21
-190.296
  0
LINE
  8
0
 10
-204.466
 20
-190.296
 11
-204.252
 21
-190.625
  0
LINE
  8
0
 10
-204.252
 20
-190.625
 11
-204.074
 21
-190.975
  0
LINE
  8
0
 10
-204.074
 20
-190.975
 11
-203.934
 21
-191.341
  0
LINE
  8
0
 10
-203.934
 20
-191.341
 11
-203.832
 21
-191.72
  0
LINE
  8
0
 10
-203.832
 20
-191.72
 11
-203.771
 21
-192.108
  0
LINE
  8
0
 10
-203.771
 20
-192.108
 11
-203.75
 21
-192.5
  0
LINE
  8
0
 10
-203.75
 20
-192.5
 11
-203.771
 21
-192.892
  0
LINE
  8
0
 10
-203.771
 20
-192.892
 11
-203.832
 21
-193.28
  0
LINE
  8
0
 10
-203.832
 20
-193.28
 11
-203.934
 21
-193.659
  0
LINE
  8
0
 10
-203.934
 20
-193.659
 11
-204.074
 21
-194.025
  0
LINE
  8
0
 10
-204.074
 20
-194.025
 11
-204.252
 21
-194.375
  0
LINE
  8
0
 10
-204.252
 20
-194.375
 11
-204.466
 21
-194.704
  0
LINE
  8
0
 10
-204.466
 20
-194.704
 11
-204.713
 21
-195.009
  0
LINE
  8
0
 10
-204.713
 20
-195.009
 11
-204.991
 21
-195.287
  0
LINE
  8
0
 10
-204.991
 20
-195.287
 11
-205.296
 21
-195.534
  0
LINE
  8
0
 10
-205.296
 20
-195.534
 11
-205.625
 21
-195.748
  0
LINE
  8
0
 10
-205.625
 20
-195.748
 11
-205.975
 21
-195.926
  0
LINE
  8
0
 10
-205.975
 20
-195.926
 11
-206.341
 21
-196.066
  0
LINE
  8
0
 10
-206.341
 20
-196.066
 11
-206.72
 21
-196.168
  0
LINE
  8
0
 10
-206.72
 20
-196.168
 11
-207.108
 21
-196.229
  0
LINE
  8
0
 10
-207.108
 20
-196.229
 11
-207.5
 21
-196.25
  0
LINE
  8
0
 10
-207.5
 20
-196.25
 11
-207.892
 21
-196.229
  0
LINE
  8
0
 10
62.5
 20
-194.25
 11
62.2509
 21
-194.232
  0
LINE
  8
0
 10
62.2509
 20
-194.232
 11
62.007
 21
-194.179
  0
LINE
  8
0
 10
62.007
 20
-194.179
 11
61.773
 21
-194.092
  0
LINE
  8
0
 10
61.773
 20
-194.092
 11
61.5539
 21
-193.972
  0
LINE
  8
0
 10
61.5539
 20
-193.972
 11
61.354
 21
-193.823
  0
LINE
  8
0
 10
61.354
 20
-193.823
 11
61.1774
 21
-193.646
  0
LINE
  8
0
 10
61.1774
 20
-193.646
 11
61.0278
 21
-193.446
  0
LINE
  8
0
 10
61.0278
 20
-193.446
 11
60.9081
 21
-193.227
  0
LINE
  8
0
 10
60.9081
 20
-193.227
 11
60.8209
 21
-192.993
  0
LINE
  8
0
 10
60.8209
 20
-192.993
 11
60.7678
 21
-192.749
  0
LINE
  8
0
 10
60.7678
 20
-192.749
 11
60.75
 21
-192.5
  0
LINE
  8
0
 10
60.75
 20
-192.5
 11
60.7678
 21
-192.251
  0
LINE
  8
0
 10
60.7678
 20
-192.251
 11
60.8209
 21
-192.007
  0
LINE
  8
0
 10
60.8209
 20
-192.007
 11
60.9081
 21
-191.773
  0
LINE
  8
0
 10
60.9081
 20
-191.773
 11
61.0278
 21
-191.554
  0
LINE
  8
0
 10
61.0278
 20
-191.554
 11
61.1774
 21
-191.354
  0
LINE
  8
0
 10
61.1774
 20
-191.354
 11
61.354
 21
-191.177
  0
LINE
  8
0
 10
61.354
 20
-191.177
 11
61.5539
 21
-191.028
  0
LINE
  8
0
 10
61.5539
 20
-191.028
 11
61.773
 21
-190.908
  0
LINE
  8
0
 10
61.773
 20
-190.908
 11
62.007
 21
-190.821
  0
LINE
  8
0
 10
62.007
 20
-190.821
 11
62.2509
 21
-190.768
  0
LINE
  8
0
 10
62.2509
 20
-190.768
 11
62.5
 21
-190.75
  0
LINE
  8
0
 10
62.5
 20
-190.75
 11
152.5
 21
-190.75
  0
LINE
  8
0
 10
152.5
 20
-190.75
 11
152.749
 21
-190.768
  0
LINE
  8
0
 10
152.749
 20
-190.768
 11
152.993
 21
-190.821
  0
LINE
  8
0
 10
152.993
 20
-190.821
 11
153.227
 21
-190.908
  0
LINE
  8
0
 10
153.227
 20
-190.908
 11
153.446
 21
-191.028
  0
LINE
  8
0
 10
153.446
 20
-191.028
 11
153.646
 21
-191.177
  0
LINE
  8
0
 10
153.646
 20
-191.177
 11
153.823
 21
-191.354
  0
LINE
  8
0
 10
153.823
 20
-191.354
 11
153.972
 21
-191.554
  0
LINE
  8
0
 10
153.972
 20
-191.554
 11
154.092
 21
-191.773
  0
LINE
  8
0
 10
154.092
 20
-191.773
 11
154.179
 21
-192.007
  0
LINE
  8
0
 10
154.179
 20
-192.007
 11
154.232
 21
-192.251
  0
LINE
  8
0
 10
154.232
 20
-192.251
 11
154.25
 21
-192.5
  0
LINE
  8
0
 10
154.25
 20
-192.5
 11
154.232
 21
-192.749
  0
LINE
  8
0
 10
154.232
 20
-192.749
 11
154.179
 21
-192.993
  0
LINE
  8
0
 10
154.179
 20
-192.993
 11
154.092
 21
-193.227
  0
LINE
  8
0
 10
154.092
 20
-193.227
 11
153.972
 21
-193.446
  0
LINE
  8
0
 10
153.972
 20
-193.446
 11
153.823
 21
-193.646
  0
LINE
  8
0
 10
153.823
 20
-193.646
 11
153.646
 21
-193.823
  0
LINE
  8
0
 10
153.646
 20
-193.823
 11
153.446
 21
-193.972
  0
LINE
  8
0
 10
153.446
 20
-193.972
 11
153.227
 21
-194.092
  0
LINE
  8
0
 10
153.227
 20
-194.092
 11
152.993
 21
-194.179
  0
LINE
  8
0
 10
152.993
 20
-194.179
 11
152.749
 21
-194.232
  0
LINE
  8
0
 10
152.749
 20
-194.232
 11
152.5
 21
-194.25
  0
LINE
  8
0
 10
152.5
 20
-194.25
 11
62.5
 21
-194.25
  0
LINE
  8
0
 10
-47.5
 20
-194.25
 11
-47.749
 21
-194.232
  0
LINE
  8
0
 10
-47.749
 20
-194.232
 11
-47.993
 21
-194.179
  0
LINE
  8
0
 10
-47.993
 20
-194.179
 11
-48.227
 21
-194.092
  0
LINE
  8
0
 10
-48.227
 20
-194.092
 11
-48.4461
 21
-193.972
  0
LINE
  8
0
 10
-48.4461
 20
-193.972
 11
-48.646
 21
-193.823
  0
LINE
  8
0
 10
-48.646
 20
-193.823
 11
-48.8226
 21
-193.646
  0
LINE
  8
0
 10
-48.8226
 20
-193.646
 11
-48.9722
 21
-193.446
  0
LINE
  8
0
 10
-48.9722
 20
-193.446
 11
-49.0918
 21
-193.227
  0
LINE
  8
0
 10
-49.0918
 20
-193.227
 11
-49.1791
 21
-192.993
  0
LINE
  8
0
 10
-49.1791
 20
-192.993
 11
-49.2322
 21
-192.749
  0
LINE
  8
0
 10
-49.2322
 20
-192.749
 11
-49.25
 21
-192.5
  0
LINE
  8
0
 10
-49.25
 20
-192.5
 11
-49.2322
 21
-192.251
  0
LINE
  8
0
 10
-49.2322
 20
-192.251
 11
-49.1791
 21
-192.007
  0
LINE
  8
0
 10
-49.1791
 20
-192.007
 11
-49.0918
 21
-191.773
  0
LINE
  8
0
 10
-49.0918
 20
-191.773
 11
-48.9722
 21
-191.554
  0
LINE
  8
0
 10
-48.9722
 20
-191.554
 11
-48.8226
 21
-191.354
  0
LINE
  8
0
 10
-48.8226
 20
-191.354
 11
-48.646
 21
-191.177
  0
LINE
  8
0
 10
-48.646
 20
-191.177
 11
-48.4461
 21
-191.028
  0
LINE
  8
0
 10
-48.4461
 20
-191.028
 11
-48.227
 21
-190.908
  0
LINE
  8
0
 10
-48.227
 20
-190.908
 11
-47.993
 21
-190.821
  0
LINE
  8
0
 10
-47.993
 20
-190.821
 11
-47.749
 21
-190.768
  0
LINE
  8
0
 10
-47.749
 20
-190.768
 11
-47.5
 21
-190.75
  0
LINE
  8
0
 10
-47.5
 20
-190.75
 11
42.5
 21
-190.75
  0
LINE
  8
0
 10
42.5
 20
-190.75
 11
42.749
 21
-190.768
  0
LINE
  8
0
 10
42.749
 20
-190.768
 11
42.993
 21
-190.821
  0
LINE
  8
0
 10
42.993
 20
-190.821
 11
43.227
 21
-190.908
  0
LINE
  8
0
 10
43.227
 20
-190.908
 11
43.4461
 21
-191.028
  0
LINE
  8
0
 10
43.4461
 20
-191.028
 11
43.646
 21
-191.177
  0
LINE
  8
0
 10
43.646
 20
-191.177
 11
43.8226
 21
-191.354
  0
LINE
  8
0
 10
43.8226
 20
-191.354
 11
43.9722
 21
-191.554
  0
LINE
  8
0
 10
43.9722
 20
-191.554
 11
44.0918
 21
-191.773
  0
LINE
  8
0
 10
44.0918
 20
-191.773
 11
44.1791
 21
-192.007
  0
LINE
  8
0
 10
44.1791
 20
-192.007
 11
44.2322
 21
-192.251
  0
LINE
  8
0
 10
44.2322
 20
-192.251
 11
44.25
 21
-192.5
  0
LINE
  8
0
 10
44.25
 20
-192.5
 11
44.2322
 21
-192.749
  0
LINE
  8
0
 10
44.2322
 20
-192.749
 11
44.1791
 21
-192.993
  0
LINE
  8
0
 10
44.1791
 20
-192.993
 11
44.0918
 21
-193.227
  0
LINE
  8
0
 10
44.0918
 20
-193.227
 11
43.9722
 21
-193.446
  0
LINE
  8
0
 10
43.9722
 20
-193.446
 11
43.8226
 21
-193.646
  0
LINE
  8
0
 10
43.8226
 20
-193.646
 11
43.646
 21
-193.823
  0
LINE
  8
0
 10
43.646
 20
-193.823
 11
43.4461
 21
-193.972
  0
LINE
  8
0
 10
43.4461
 20
-193.972
 11
43.227
 21
-194.092
  0
LINE
  8
0
 10
43.227
 20
-194.092
 11
42.993
 21
-194.179
  0
LINE
  8
0
 10
42.993
 20
-194.179
 11
42.749
 21
-194.232
  0
LINE
  8
0
 10
42.749
 20
-194.232
 11
42.5
 21
-194.25
  0
LINE
  8
0
 10
42.5
 20
-194.25
 11
-47.5
 21
-194.25
  0
LINE
  8
0
 10
-157.5
 20
-194.25
 11
-157.749
 21
-194.232
  0
LINE
  8
0
 10
-157.749
 20
-194.232
 11
-157.993
 21
-194.179
  0
LINE
  8
0
 10
-157.993
 20
-194.179
 11
-158.227
 21
-194.092
  0
LINE
  8
0
 10
-158.227
 20
-194.092
 11
-158.446
 21
-193.972
  0
LINE
  8
0
 10
-158.446
 20
-193.972
 11
-158.646
 21
-193.823
  0
LINE
  8
0
 10
-158.646
 20
-193.823
 11
-158.823
 21
-193.646
  0
LINE
  8
0
 10
-158.823
 20
-193.646
 11
-158.972
 21
-193.446
  0
LINE
  8
0
 10
-158.972
 20
-193.446
 11
-159.092
 21
-193.227
  0
LINE
  8
0
 10
-159.092
 20
-193.227
 11
-159.179
 21
-192.993
  0
LINE
  8
0
 10
-159.179
 20
-192.993
 11
-159.232
 21
-192.749
  0
LINE
  8
0
 10
-159.232
 20
-192.749
 11
-159.25
 21
-192.5
  0
LINE
  8
0
 10
-159.25
 20
-192.5
 11
-159.232
 21
-192.251
  0
LINE
  8
0
 10
-159.232
 20
-192.251
 11
-159.179
 21
-192.007
  0
LINE
  8
0
 10
-159.179
 20
-192.007
 11
-159.092
 21
-191.773
  0
LINE
  8
0
 10
-159.092
 20
-191.773
 11
-158.972
 21
-191.554
  0
LINE
  8
0
 10
-158.972
 20
-191.554
 11
-158.823
 21
-191.354
  0
LINE
  8
0
 10
-158.823
 20
-191.354
 11
-158.646
 21
-191.177
  0
LINE
  8
0
 10
-158.646
 20
-191.177
 11
-158.446
 21
-191.028
  0
LINE
  8
0
 10
-158.446
 20
-191.028
 11
-158.227
 21
-190.908
  0
LINE
  8
0
 10
-158.227
 20
-190.908
 11
-157.993
 21
-190.821
  0
LINE
  8
0
 10
-157.993
 20
-190.821
 11
-157.749
 21
-190.768
  0
LINE
  8
0
 10
-157.749
 20
-190.768
 11
-157.5
 21
-190.75
  0
LINE
  8
0
 10
-157.5
 20
-190.75
 11
-67.5
 21
-190.75
  0
LINE
  8
0
 10
-67.5
 20
-190.75
 11
-67.2509
 21
-190.768
  0
LINE
  8
0
 10
-67.2509
 20
-190.768
 11
-67.007
 21
-190.821
  0
LINE
  8
0
 10
-67.007
 20
-190.821
 11
-66.773
 21
-190.908
  0
LINE
  8
0
 10
-66.773
 20
-190.908
 11
-66.5539
 21
-191.028
  0
LINE
  8
0
 10
-66.5539
 20
-191.028
 11
-66.354
 21
-191.177
  0
LINE
  8
0
 10
-66.354
 20
-191.177
 11
-66.1774
 21
-191.354
  0
LINE
  8
0
 10
-66.1774
 20
-191.354
 11
-66.0278
 21
-191.554
  0
LINE
  8
0
 10
-66.0278
 20
-191.554
 11
-65.9081
 21
-191.773
  0
LINE
  8
0
 10
-65.9081
 20
-191.773
 11
-65.8209
 21
-192.007
  0
LINE
  8
0
 10
-65.8209
 20
-192.007
 11
-65.7678
 21
-192.251
  0
LINE
  8
0
 10
-65.7678
 20
-192.251
 11
-65.75
 21
-192.5
  0
LINE
  8
0
 10
-65.75
 20
-192.5
 11
-65.7678
 21
-192.749
  0
LINE
  8
0
 10
-65.7678
 20
-192.749
 11
-65.8209
 21
-192.993
  0
LINE
  8
0
 10
-65.8209
 20
-192.993
 11
-65.9081
 21
-193.227
  0
LINE
  8
0
 10
-65.9081
 20
-193.227
 11
-66.0278
 21
-193.446
  0
LINE
  8
0
 10
-66.0278
 20
-193.446
 11
-66.1774
 21
-193.646
  0
LINE
  8
0
 10
-66.1774
 20
-193.646
 11
-66.354
 21
-193.823
  0
LINE
  8
0
 10
-66.354
 20
-193.823
 11
-66.5539
 21
-193.972
  0
LINE
  8
0
 10
-66.5539
 20
-193.972
 11
-66.773
 21
-194.092
  0
LINE
  8
0
 10
-66.773
 20
-194.092
 11
-67.007
 21
-194.179
  0
LINE
  8
0
 10
-67.007
 20
-194.179
 11
-67.2509
 21
-194.232
  0
LINE
  8
0
 10
-67.2509
 20
-194.232
 11
-67.5
 21
-194.25
  0
LINE
  8
0
 10
-67.5
 20
-194.25
 11
-157.5
 21
-194.25
  0
LINE
  8
0
 10
-185.186
 20
-194.19
 11
-185.43
 21
-194.145
  0
LINE
  8
0
 10
-185.43
 20
-194.145
 11
-185.665
 21
-194.065
  0
LINE
  8
0
 10
-185.665
 20
-194.065
 11
-185.886
 21
-193.951
  0
LINE
  8
0
 10
-185.886
 20
-193.951
 11
-186.087
 21
-193.807
  0
LINE
  8
0
 10
-186.087
 20
-193.807
 11
-186.266
 21
-193.634
  0
LINE
  8
0
 10
-186.266
 20
-193.634
 11
-186.418
 21
-193.438
  0
LINE
  8
0
 10
-186.418
 20
-193.438
 11
-186.539
 21
-193.222
  0
LINE
  8
0
 10
-186.539
 20
-193.222
 11
-186.628
 21
-192.99
  0
LINE
  8
0
 10
-186.628
 20
-192.99
 11
-186.682
 21
-192.748
  0
LINE
  8
0
 10
-186.682
 20
-192.748
 11
-186.7
 21
-192.5
  0
LINE
  8
0
 10
-186.7
 20
-192.5
 11
-186.682
 21
-192.252
  0
LINE
  8
0
 10
-186.682
 20
-192.252
 11
-186.628
 21
-192.01
  0
LINE
  8
0
 10
-186.628
 20
-192.01
 11
-186.539
 21
-191.778
  0
LINE
  8
0
 10
-186.539
 20
-191.778
 11
-186.418
 21
-191.562
  0
LINE
  8
0
 10
-186.418
 20
-191.562
 11
-186.266
 21
-191.366
  0
LINE
  8
0
 10
-186.266
 20
-191.366
 11
-186.087
 21
-191.193
  0
LINE
  8
0
 10
-186.087
 20
-191.193
 11
-185.886
 21
-191.049
  0
LINE
  8
0
 10
-185.886
 20
-191.049
 11
-185.665
 21
-190.935
  0
LINE
  8
0
 10
-185.665
 20
-190.935
 11
-185.43
 21
-190.855
  0
LINE
  8
0
 10
-185.43
 20
-190.855
 11
-185.186
 21
-190.81
  0
LINE
  8
0
 10
-185.186
 20
-190.81
 11
-184.938
 21
-190.801
  0
LINE
  8
0
 10
-184.938
 20
-190.801
 11
-184.691
 21
-190.828
  0
LINE
  8
0
 10
-184.691
 20
-190.828
 11
-184.451
 21
-190.891
  0
LINE
  8
0
 10
-184.451
 20
-190.891
 11
-184.223
 21
-190.988
  0
LINE
  8
0
 10
-184.223
 20
-190.988
 11
-184.011
 21
-191.117
  0
LINE
  8
0
 10
-184.011
 20
-191.117
 11
-183.82
 21
-191.276
  0
LINE
  8
0
 10
-183.82
 20
-191.276
 11
-183.654
 21
-191.461
  0
LINE
  8
0
 10
-183.654
 20
-191.461
 11
-183.518
 21
-191.668
  0
LINE
  8
0
 10
-183.518
 20
-191.668
 11
-183.412
 21
-191.893
  0
LINE
  8
0
 10
-183.412
 20
-191.893
 11
-183.341
 21
-192.13
  0
LINE
  8
0
 10
-183.341
 20
-192.13
 11
-183.305
 21
-192.376
  0
LINE
  8
0
 10
-183.305
 20
-192.376
 11
-183.305
 21
-192.624
  0
LINE
  8
0
 10
-183.305
 20
-192.624
 11
-183.341
 21
-192.87
  0
LINE
  8
0
 10
-183.341
 20
-192.87
 11
-183.412
 21
-193.107
  0
LINE
  8
0
 10
-183.412
 20
-193.107
 11
-183.518
 21
-193.332
  0
LINE
  8
0
 10
-183.518
 20
-193.332
 11
-183.654
 21
-193.539
  0
LINE
  8
0
 10
-183.654
 20
-193.539
 11
-183.82
 21
-193.724
  0
LINE
  8
0
 10
-183.82
 20
-193.724
 11
-184.011
 21
-193.883
  0
LINE
  8
0
 10
-184.011
 20
-193.883
 11
-184.223
 21
-194.012
  0
LINE
  8
0
 10
-184.223
 20
-194.012
 11
-184.451
 21
-194.109
  0
LINE
  8
0
 10
-184.451
 20
-194.109
 11
-184.691
 21
-194.172
  0
LINE
  8
0
 10
-184.691
 20
-194.172
 11
-184.938
 21
-194.199
  0
LINE
  8
0
 10
-184.938
 20
-194.199
 11
-185.186
 21
-194.19
  0
LINE
  8
0
 10
184.691
 20
-194.172
 11
184.451
 21
-194.109
  0
LINE
  8
0
 10
184.451
 20
-194.109
 11
184.223
 21
-194.012
  0
LINE
  8
0
 10
184.223
 20
-194.012
 11
184.011
 21
-193.883
  0
LINE
  8
0
 10
184.011
 20
-193.883
 11
183.82
 21
-193.724
  0
LINE
  8
0
 10
183.82
 20
-193.724
 11
183.654
 21
-193.539
  0
LINE
  8
0
 10
183.654
 20
-193.539
 11
183.518
 21
-193.332
  0
LINE
  8
0
 10
183.518
 20
-193.332
 11
183.412
 21
-193.107
  0
LINE
  8
0
 10
183.412
 20
-193.107
 11
183.341
 21
-192.87
  0
LINE
  8
0
 10
183.341
 20
-192.87
 11
183.305
 21
-192.624
  0
LINE
  8
0
 10
183.305
 20
-192.624
 11
183.305
 21
-192.376
  0
LINE
  8
0
 10
183.305
 20
-192.376
 11
183.341
 21
-192.13
  0
LINE
  8
0
 10
183.341
 20
-192.13
 11
183.412
 21
-191.893
  0
LINE
  8
0
 10
183.412
 20
-191.893
 11
183.518
 21
-191.668
  0
LINE
  8
0
 10
183.518
 20
-191.668
 11
183.654
 21
-191.461
  0
LINE
  8
0
 10
183.654
 20
-191.461
 11
183.82
 21
-191.276
  0
LINE
  8
0
 10
183.82
 20
-191.276
 11
184.011
 21
-191.117
  0
LINE
  8
0
 10
184.011
 20
-191.117
 11
184.223
 21
-190.988
  0
LINE
  8
0
 10
184.223
 20
-190.988
 11
184.451
 21
-190.891
  0
LINE
  8
0
 10
184.451
 20
-190.891
 11
184.691
 21
-190.828
  0
LINE
  8
0
 10
184.691
 20
-190.828
 11
184.938
 21
-190.801
  0
LINE
  8
0
 10
184.938
 20
-190.801
 11
185.186
 21
-190.81
  0
LINE
  8
0
 10
185.186
 20
-190.81
 11
185.43
 21
-190.855
  0
LINE
  8
0
 10
185.43
 20
-190.855
 11
185.665
 21
-190.935
  0
LINE
  8
0
 10
185.665
 20
-190.935
 11
185.886
 21
-191.049
  0
LINE
  8
0
 10
185.886
 20
-191.049
 11
186.087
 21
-191.193
  0
LINE
  8
0
 10
186.087
 20
-191.193
 11
186.266
 21
-191.366
  0
LINE
  8
0
 10
186.266
 20
-191.366
 11
186.418
 21
-191.562
  0
LINE
  8
0
 10
186.418
 20
-191.562
 11
186.539
 21
-191.778
  0
LINE
  8
0
 10
186.539
 20
-191.778
 11
186.628
 21
-192.01
  0
LINE
  8
0
 10
186.628
 20
-192.01
 11
186.682
 21
-192.252
  0
LINE
  8
0
 10
186.682
 20
-192.252
 11
186.7
 21
-192.5
  0
LINE
  8
0
 10
186.7
 20
-192.5
 11
186.682
 21
-192.748
  0
LINE
  8
0
 10
186.682
 20
-192.748
 11
186.628
 21
-192.99
  0
LINE
  8
0
 10
186.628
 20
-192.99
 11
186.539
 21
-193.222
  0
LINE
  8
0
 10
186.539
 20
-193.222
 11
186.418
 21
-193.438
  0
LINE
  8
0
 10
186.418
 20
-193.438
 11
186.266
 21
-193.634
  0
LINE
  8
0
 10
186.266
 20
-193.634
 11
186.087
 21
-193.807
  0
LINE
  8
0
 10
186.087
 20
-193.807
 11
185.886
 21
-193.951
  0
LINE
  8
0
 10
185.886
 20
-193.951
 11
185.665
 21
-194.065
  0
LINE
  8
0
 10
185.665
 20
-194.065
 11
185.43
 21
-194.145
  0
LINE
  8
0
 10
185.43
 20
-194.145
 11
185.186
 21
-194.19
  0
LINE
  8
0
 10
185.186
 20
-194.19
 11
184.938
 21
-194.199
  0
LINE
  8
0
 10
184.938
 20
-194.199
 11
184.691
 21
-194.172
  0
LINE
  8
0
 10
264.377
 20
-195.145
 11
264.133
 21
-195.109
  0
LINE
  8
0
 10
264.133
 20
-195.109
 11
263.897
 21
-195.036
  0
LINE
  8
0
 10
263.897
 20
-195.036
 11
263.675
 21
-194.929
  0
LINE
  8
0
 10
263.675
 20
-194.929
 11
263.471
 21
-194.79
  0
LINE
  8
0
 10
263.471
 20
-194.79
 11
263.29
 21
-194.622
  0
LINE
  8
0
 10
263.29
 20
-194.622
 11
263.137
 21
-194.429
  0
LINE
  8
0
 10
263.137
 20
-194.429
 11
263.013
 21
-194.216
  0
LINE
  8
0
 10
263.013
 20
-194.216
 11
262.923
 21
-193.986
  0
LINE
  8
0
 10
262.923
 20
-193.986
 11
262.868
 21
-193.746
  0
LINE
  8
0
 10
262.868
 20
-193.746
 11
262.85
 21
-193.5
  0
LINE
  8
0
 10
262.85
 20
-193.5
 11
262.868
 21
-193.254
  0
LINE
  8
0
 10
262.868
 20
-193.254
 11
262.923
 21
-193.014
  0
LINE
  8
0
 10
262.923
 20
-193.014
 11
263.013
 21
-192.784
  0
LINE
  8
0
 10
263.013
 20
-192.784
 11
263.137
 21
-192.571
  0
LINE
  8
0
 10
263.137
 20
-192.571
 11
263.29
 21
-192.378
  0
LINE
  8
0
 10
263.29
 20
-192.378
 11
263.471
 21
-192.21
  0
LINE
  8
0
 10
263.471
 20
-192.21
 11
263.675
 21
-192.071
  0
LINE
  8
0
 10
263.675
 20
-192.071
 11
263.897
 21
-191.964
  0
LINE
  8
0
 10
263.897
 20
-191.964
 11
264.133
 21
-191.891
  0
LINE
  8
0
 10
264.133
 20
-191.891
 11
264.377
 21
-191.855
  0
LINE
  8
0
 10
264.377
 20
-191.855
 11
272.623
 21
-191.855
  0
LINE
  8
0
 10
272.623
 20
-191.855
 11
272.867
 21
-191.891
  0
LINE
  8
0
 10
272.867
 20
-191.891
 11
273.103
 21
-191.964
  0
LINE
  8
0
 10
273.103
 20
-191.964
 11
273.325
 21
-192.071
  0
LINE
  8
0
 10
273.325
 20
-192.071
 11
273.529
 21
-192.21
  0
LINE
  8
0
 10
273.529
 20
-192.21
 11
273.71
 21
-192.378
  0
LINE
  8
0
 10
273.71
 20
-192.378
 11
273.863
 21
-192.571
  0
LINE
  8
0
 10
273.863
 20
-192.571
 11
273.987
 21
-192.784
  0
LINE
  8
0
 10
273.987
 20
-192.784
 11
274.077
 21
-193.014
  0
LINE
  8
0
 10
274.077
 20
-193.014
 11
274.132
 21
-193.254
  0
LINE
  8
0
 10
274.132
 20
-193.254
 11
274.15
 21
-193.5
  0
LINE
  8
0
 10
274.15
 20
-193.5
 11
274.132
 21
-193.746
  0
LINE
  8
0
 10
274.132
 20
-193.746
 11
274.077
 21
-193.986
  0
LINE
  8
0
 10
274.077
 20
-193.986
 11
273.987
 21
-194.216
  0
LINE
  8
0
 10
273.987
 20
-194.216
 11
273.863
 21
-194.429
  0
LINE
  8
0
 10
273.863
 20
-194.429
 11
273.71
 21
-194.622
  0
LINE
  8
0
 10
273.71
 20
-194.622
 11
273.529
 21
-194.79
  0
LINE
  8
0
 10
273.529
 20
-194.79
 11
273.325
 21
-194.929
  0
LINE
  8
0
 10
273.325
 20
-194.929
 11
273.103
 21
-195.036
  0
LINE
  8
0
 10
273.103
 20
-195.036
 11
272.867
 21
-195.109
  0
LINE
  8
0
 10
272.867
 20
-195.109
 11
272.623
 21
-195.145
  0
LINE
  8
0
 10
272.623
 20
-195.145
 11
264.377
 21
-195.145
  0
LINE
  8
0
 10
233.377
 20
-195.145
 11
233.133
 21
-195.109
  0
LINE
  8
0
 10
233.133
 20
-195.109
 11
232.897
 21
-195.036
  0
LINE
  8
0
 10
232.897
 20
-195.036
 11
232.675
 21
-194.929
  0
LINE
  8
0
 10
232.675
 20
-194.929
 11
232.471
 21
-194.79
  0
LINE
  8
0
 10
232.471
 20
-194.79
 11
232.29
 21
-194.622
  0
LINE
  8
0
 10
232.29
 20
-194.622
 11
232.137
 21
-194.429
  0
LINE
  8
0
 10
232.137
 20
-194.429
 11
232.013
 21
-194.216
  0
LINE
  8
0
 10
232.013
 20
-194.216
 11
231.923
 21
-193.986
  0
LINE
  8
0
 10
231.923
 20
-193.986
 11
231.868
 21
-193.746
  0
LINE
  8
0
 10
231.868
 20
-193.746
 11
231.85
 21
-193.5
  0
LINE
  8
0
 10
231.85
 20
-193.5
 11
231.868
 21
-193.254
  0
LINE
  8
0
 10
231.868
 20
-193.254
 11
231.923
 21
-193.014
  0
LINE
  8
0
 10
231.923
 20
-193.014
 11
232.013
 21
-192.784
  0
LINE
  8
0
 10
232.013
 20
-192.784
 11
232.137
 21
-192.571
  0
LINE
  8
0
 10
232.137
 20
-192.571
 11
232.29
 21
-192.378
  0
LINE
  8
0
 10
232.29
 20
-192.378
 11
232.471
 21
-192.21
  0
LINE
  8
0
 10
232.471
 20
-192.21
 11
232.675
 21
-192.071
  0
LINE
  8
0
 10
232.675
 20
-192.071
 11
232.897
 21
-191.964
  0
LINE
  8
0
 10
232.897
 20
-191.964
 11
233.133
 21
-191.891
  0
LINE
  8
0
 10
233.133
 20
-191.891
 11
233.377
 21
-191.855
  0
LINE
  8
0
 10
233.377
 20
-191.855
 11
241.623
 21
-191.855
  0
LINE
  8
0
 10
241.623
 20
-191.855
 11
241.867
 21
-191.891
  0
LINE
  8
0
 10
241.867
 20
-191.891
 11
242.103
 21
-191.964
  0
LINE
  8
0
 10
242.103
 20
-191.964
 11
242.325
 21
-192.071
  0
LINE
  8
0
 10
242.325
 20
-192.071
 11
242.529
 21
-192.21
  0
LINE
  8
0
 10
242.529
 20
-192.21
 11
242.71
 21
-192.378
  0
LINE
  8
0
 10
242.71
 20
-192.378
 11
242.863
 21
-192.571
  0
LINE
  8
0
 10
242.863
 20
-192.571
 11
242.987
 21
-192.784
  0
LINE
  8
0
 10
242.987
 20
-192.784
 11
243.077
 21
-193.014
  0
LINE
  8
0
 10
243.077
 20
-193.014
 11
243.132
 21
-193.254
  0
LINE
  8
0
 10
243.132
 20
-193.254
 11
243.15
 21
-193.5
  0
LINE
  8
0
 10
243.15
 20
-193.5
 11
243.132
 21
-193.746
  0
LINE
  8
0
 10
243.132
 20
-193.746
 11
243.077
 21
-193.986
  0
LINE
  8
0
 10
243.077
 20
-193.986
 11
242.987
 21
-194.216
  0
LINE
  8
0
 10
242.987
 20
-194.216
 11
242.863
 21
-194.429
  0
LINE
  8
0
 10
242.863
 20
-194.429
 11
242.71
 21
-194.622
  0
LINE
  8
0
 10
242.71
 20
-194.622
 11
242.529
 21
-194.79
  0
LINE
  8
0
 10
242.529
 20
-194.79
 11
242.325
 21
-194.929
  0
LINE
  8
0
 10
242.325
 20
-194.929
 11
242.103
 21
-195.036
  0
LINE
  8
0
 10
242.103
 20
-195.036
 11
241.867
 21
-195.109
  0
LINE
  8
0
 10
241.867
 20
-195.109
 11
241.623
 21
-195.145
  0
LINE
  8
0
 10
241.623
 20
-195.145
 11
233.377
 21
-195.145
  0
ENDSEC
  0
SECTION
  2
OBJECTS
  0
DICTIONARY
  0
ENDSEC
  0
EOF
