  0
SECTION
  2
BLOCKS
  0
ENDSEC
  0
SECTION
  2
ENTITIES
  0
LINE
  8
0
 10
315.523
 20
-243.473
 11
316.04
 21
-243.391
  0
LINE
  8
0
 10
316.04
 20
-243.391
 11
316.545
 21
-243.255
  0
LINE
  8
0
 10
316.545
 20
-243.255
 11
317.034
 21
-243.068
  0
LINE
  8
0
 10
317.034
 20
-243.068
 11
317.5
 21
-242.83
  0
LINE
  8
0
 10
317.5
 20
-242.83
 11
317.939
 21
-242.545
  0
LINE
  8
0
 10
317.939
 20
-242.545
 11
318.346
 21
-242.216
  0
LINE
  8
0
 10
318.346
 20
-242.216
 11
318.716
 21
-241.846
  0
LINE
  8
0
 10
318.716
 20
-241.846
 11
319.045
 21
-241.439
  0
LINE
  8
0
 10
319.045
 20
-241.439
 11
319.33
 21
-241
  0
LINE
  8
0
 10
319.33
 20
-241
 11
319.568
 21
-240.534
  0
LINE
  8
0
 10
319.568
 20
-240.534
 11
319.755
 21
-240.045
  0
LINE
  8
0
 10
319.755
 20
-240.045
 11
319.891
 21
-239.54
  0
LINE
  8
0
 10
319.891
 20
-239.54
 11
319.973
 21
-239.023
  0
LINE
  8
0
 10
319.973
 20
-239.023
 11
320
 21
-238.5
  0
LINE
  8
0
 10
320
 20
-238.5
 11
320
 21
238.5
  0
LINE
  8
0
 10
320
 20
238.5
 11
319.973
 21
239.023
  0
LINE
  8
0
 10
319.973
 20
239.023
 11
319.891
 21
239.54
  0
LINE
  8
0
 10
319.891
 20
239.54
 11
319.755
 21
240.045
  0
LINE
  8
0
 10
319.755
 20
240.045
 11
319.568
 21
240.534
  0
LINE
  8
0
 10
319.568
 20
240.534
 11
319.33
 21
241
  0
LINE
  8
0
 10
319.33
 20
241
 11
319.045
 21
241.439
  0
LINE
  8
0
 10
319.045
 20
241.439
 11
318.716
 21
241.846
  0
LINE
  8
0
 10
318.716
 20
241.846
 11
318.346
 21
242.216
  0
LINE
  8
0
 10
318.346
 20
242.216
 11
317.939
 21
242.545
  0
LINE
  8
0
 10
317.939
 20
242.545
 11
317.5
 21
242.83
  0
LINE
  8
0
 10
317.5
 20
242.83
 11
317.034
 21
243.068
  0
LINE
  8
0
 10
317.034
 20
243.068
 11
316.545
 21
243.255
  0
LINE
  8
0
 10
316.545
 20
243.255
 11
316.04
 21
243.391
  0
LINE
  8
0
 10
316.04
 20
243.391
 11
315.523
 21
243.473
  0
LINE
  8
0
 10
315.523
 20
243.473
 11
315
 21
243.5
  0
LINE
  8
0
 10
315
 20
243.5
 11
-315
 21
243.5
  0
LINE
  8
0
 10
-315
 20
243.5
 11
-315.523
 21
243.473
  0
LINE
  8
0
 10
-315.523
 20
243.473
 11
-316.04
 21
243.391
  0
LINE
  8
0
 10
-316.04
 20
243.391
 11
-316.545
 21
243.255
  0
LINE
  8
0
 10
-316.545
 20
243.255
 11
-317.034
 21
243.068
  0
LINE
  8
0
 10
-317.034
 20
243.068
 11
-317.5
 21
242.83
  0
LINE
  8
0
 10
-317.5
 20
242.83
 11
-317.939
 21
242.545
  0
LINE
  8
0
 10
-317.939
 20
242.545
 11
-318.346
 21
242.216
  0
LINE
  8
0
 10
-318.346
 20
242.216
 11
-318.716
 21
241.846
  0
LINE
  8
0
 10
-318.716
 20
241.846
 11
-319.045
 21
241.439
  0
LINE
  8
0
 10
-319.045
 20
241.439
 11
-319.33
 21
241
  0
LINE
  8
0
 10
-319.33
 20
241
 11
-319.568
 21
240.534
  0
LINE
  8
0
 10
-319.568
 20
240.534
 11
-319.755
 21
240.045
  0
LINE
  8
0
 10
-319.755
 20
240.045
 11
-319.891
 21
239.54
  0
LINE
  8
0
 10
-319.891
 20
239.54
 11
-319.973
 21
239.023
  0
LINE
  8
0
 10
-319.973
 20
239.023
 11
-320
 21
238.5
  0
LINE
  8
0
 10
-320
 20
238.5
 11
-320
 21
-238.5
  0
LINE
  8
0
 10
-320
 20
-238.5
 11
-319.973
 21
-239.023
  0
LINE
  8
0
 10
-319.973
 20
-239.023
 11
-319.891
 21
-239.54
  0
LINE
  8
0
 10
-319.891
 20
-239.54
 11
-319.755
 21
-240.045
  0
LINE
  8
0
 10
-319.755
 20
-240.045
 11
-319.568
 21
-240.534
  0
LINE
  8
0
 10
-319.568
 20
-240.534
 11
-319.33
 21
-241
  0
LINE
  8
0
 10
-319.33
 20
-241
 11
-319.045
 21
-241.439
  0
LINE
  8
0
 10
-319.045
 20
-241.439
 11
-318.716
 21
-241.846
  0
LINE
  8
0
 10
-318.716
 20
-241.846
 11
-318.346
 21
-242.216
  0
LINE
  8
0
 10
-318.346
 20
-242.216
 11
-317.939
 21
-242.545
  0
LINE
  8
0
 10
-317.939
 20
-242.545
 11
-317.5
 21
-242.83
  0
LINE
  8
0
 10
-317.5
 20
-242.83
 11
-317.034
 21
-243.068
  0
LINE
  8
0
 10
-317.034
 20
-243.068
 11
-316.545
 21
-243.255
  0
LINE
  8
0
 10
-316.545
 20
-243.255
 11
-316.04
 21
-243.391
  0
LINE
  8
0
 10
-316.04
 20
-243.391
 11
-315.523
 21
-243.473
  0
LINE
  8
0
 10
-315.523
 20
-243.473
 11
-315
 21
-243.5
  0
LINE
  8
0
 10
-315
 20
-243.5
 11
315
 21
-243.5
  0
LINE
  8
0
 10
315
 20
-243.5
 11
315.523
 21
-243.473
  0
LINE
  8
0
 10
237.108
 20
226.271
 11
236.72
 21
226.332
  0
LINE
  8
0
 10
236.72
 20
226.332
 11
236.341
 21
226.434
  0
LINE
  8
0
 10
236.341
 20
226.434
 11
235.975
 21
226.574
  0
LINE
  8
0
 10
235.975
 20
226.574
 11
235.625
 21
226.752
  0
LINE
  8
0
 10
235.625
 20
226.752
 11
235.296
 21
226.966
  0
LINE
  8
0
 10
235.296
 20
226.966
 11
234.991
 21
227.213
  0
LINE
  8
0
 10
234.991
 20
227.213
 11
234.713
 21
227.491
  0
LINE
  8
0
 10
234.713
 20
227.491
 11
234.466
 21
227.796
  0
LINE
  8
0
 10
234.466
 20
227.796
 11
234.252
 21
228.125
  0
LINE
  8
0
 10
234.252
 20
228.125
 11
234.074
 21
228.475
  0
LINE
  8
0
 10
234.074
 20
228.475
 11
233.934
 21
228.841
  0
LINE
  8
0
 10
233.934
 20
228.841
 11
233.832
 21
229.22
  0
LINE
  8
0
 10
233.832
 20
229.22
 11
233.771
 21
229.608
  0
LINE
  8
0
 10
233.771
 20
229.608
 11
233.75
 21
230
  0
LINE
  8
0
 10
233.75
 20
230
 11
233.771
 21
230.392
  0
LINE
  8
0
 10
233.771
 20
230.392
 11
233.832
 21
230.78
  0
LINE
  8
0
 10
233.832
 20
230.78
 11
233.934
 21
231.159
  0
LINE
  8
0
 10
233.934
 20
231.159
 11
234.074
 21
231.525
  0
LINE
  8
0
 10
234.074
 20
231.525
 11
234.252
 21
231.875
  0
LINE
  8
0
 10
234.252
 20
231.875
 11
234.466
 21
232.204
  0
LINE
  8
0
 10
234.466
 20
232.204
 11
234.713
 21
232.509
  0
LINE
  8
0
 10
234.713
 20
232.509
 11
234.991
 21
232.787
  0
LINE
  8
0
 10
234.991
 20
232.787
 11
235.296
 21
233.034
  0
LINE
  8
0
 10
235.296
 20
233.034
 11
235.625
 21
233.248
  0
LINE
  8
0
 10
235.625
 20
233.248
 11
235.975
 21
233.426
  0
LINE
  8
0
 10
235.975
 20
233.426
 11
236.341
 21
233.566
  0
LINE
  8
0
 10
236.341
 20
233.566
 11
236.72
 21
233.668
  0
LINE
  8
0
 10
236.72
 20
233.668
 11
237.108
 21
233.729
  0
LINE
  8
0
 10
237.108
 20
233.729
 11
237.5
 21
233.75
  0
LINE
  8
0
 10
237.5
 20
233.75
 11
237.892
 21
233.729
  0
LINE
  8
0
 10
237.892
 20
233.729
 11
238.28
 21
233.668
  0
LINE
  8
0
 10
238.28
 20
233.668
 11
238.659
 21
233.566
  0
LINE
  8
0
 10
238.659
 20
233.566
 11
239.025
 21
233.426
  0
LINE
  8
0
 10
239.025
 20
233.426
 11
239.375
 21
233.248
  0
LINE
  8
0
 10
239.375
 20
233.248
 11
239.704
 21
233.034
  0
LINE
  8
0
 10
239.704
 20
233.034
 11
240.009
 21
232.787
  0
LINE
  8
0
 10
240.009
 20
232.787
 11
240.287
 21
232.509
  0
LINE
  8
0
 10
240.287
 20
232.509
 11
240.534
 21
232.204
  0
LINE
  8
0
 10
240.534
 20
232.204
 11
240.748
 21
231.875
  0
LINE
  8
0
 10
240.748
 20
231.875
 11
240.926
 21
231.525
  0
LINE
  8
0
 10
240.926
 20
231.525
 11
241.066
 21
231.159
  0
LINE
  8
0
 10
241.066
 20
231.159
 11
241.168
 21
230.78
  0
LINE
  8
0
 10
241.168
 20
230.78
 11
241.229
 21
230.392
  0
LINE
  8
0
 10
241.229
 20
230.392
 11
241.25
 21
230
  0
LINE
  8
0
 10
241.25
 20
230
 11
241.229
 21
229.608
  0
LINE
  8
0
 10
241.229
 20
229.608
 11
241.168
 21
229.22
  0
LINE
  8
0
 10
241.168
 20
229.22
 11
241.066
 21
228.841
  0
LINE
  8
0
 10
241.066
 20
228.841
 11
240.926
 21
228.475
  0
LINE
  8
0
 10
240.926
 20
228.475
 11
240.748
 21
228.125
  0
LINE
  8
0
 10
240.748
 20
228.125
 11
240.534
 21
227.796
  0
LINE
  8
0
 10
240.534
 20
227.796
 11
240.287
 21
227.491
  0
LINE
  8
0
 10
240.287
 20
227.491
 11
240.009
 21
227.213
  0
LINE
  8
0
 10
240.009
 20
227.213
 11
239.704
 21
226.966
  0
LINE
  8
0
 10
239.704
 20
226.966
 11
239.375
 21
226.752
  0
LINE
  8
0
 10
239.375
 20
226.752
 11
239.025
 21
226.574
  0
LINE
  8
0
 10
239.025
 20
226.574
 11
238.659
 21
226.434
  0
LINE
  8
0
 10
238.659
 20
226.434
 11
238.28
 21
226.332
  0
LINE
  8
0
 10
238.28
 20
226.332
 11
237.892
 21
226.271
  0
LINE
  8
0
 10
237.892
 20
226.271
 11
237.5
 21
226.25
  0
LINE
  8
0
 10
237.5
 20
226.25
 11
237.108
 21
226.271
  0
LINE
  8
0
 10
-237.892
 20
226.271
 11
-238.28
 21
226.332
  0
LINE
  8
0
 10
-238.28
 20
226.332
 11
-238.659
 21
226.434
  0
LINE
  8
0
 10
-238.659
 20
226.434
 11
-239.025
 21
226.574
  0
LINE
  8
0
 10
-239.025
 20
226.574
 11
-239.375
 21
226.752
  0
LINE
  8
0
 10
-239.375
 20
226.752
 11
-239.704
 21
226.966
  0
LINE
  8
0
 10
-239.704
 20
226.966
 11
-240.009
 21
227.213
  0
LINE
  8
0
 10
-240.009
 20
227.213
 11
-240.287
 21
227.491
  0
LINE
  8
0
 10
-240.287
 20
227.491
 11
-240.534
 21
227.796
  0
LINE
  8
0
 10
-240.534
 20
227.796
 11
-240.748
 21
228.125
  0
LINE
  8
0
 10
-240.748
 20
228.125
 11
-240.926
 21
228.475
  0
LINE
  8
0
 10
-240.926
 20
228.475
 11
-241.066
 21
228.841
  0
LINE
  8
0
 10
-241.066
 20
228.841
 11
-241.168
 21
229.22
  0
LINE
  8
0
 10
-241.168
 20
229.22
 11
-241.229
 21
229.608
  0
LINE
  8
0
 10
-241.229
 20
229.608
 11
-241.25
 21
230
  0
LINE
  8
0
 10
-241.25
 20
230
 11
-241.229
 21
230.392
  0
LINE
  8
0
 10
-241.229
 20
230.392
 11
-241.168
 21
230.78
  0
LINE
  8
0
 10
-241.168
 20
230.78
 11
-241.066
 21
231.159
  0
LINE
  8
0
 10
-241.066
 20
231.159
 11
-240.926
 21
231.525
  0
LINE
  8
0
 10
-240.926
 20
231.525
 11
-240.748
 21
231.875
  0
LINE
  8
0
 10
-240.748
 20
231.875
 11
-240.534
 21
232.204
  0
LINE
  8
0
 10
-240.534
 20
232.204
 11
-240.287
 21
232.509
  0
LINE
  8
0
 10
-240.287
 20
232.509
 11
-240.009
 21
232.787
  0
LINE
  8
0
 10
-240.009
 20
232.787
 11
-239.704
 21
233.034
  0
LINE
  8
0
 10
-239.704
 20
233.034
 11
-239.375
 21
233.248
  0
LINE
  8
0
 10
-239.375
 20
233.248
 11
-239.025
 21
233.426
  0
LINE
  8
0
 10
-239.025
 20
233.426
 11
-238.659
 21
233.566
  0
LINE
  8
0
 10
-238.659
 20
233.566
 11
-238.28
 21
233.668
  0
LINE
  8
0
 10
-238.28
 20
233.668
 11
-237.892
 21
233.729
  0
LINE
  8
0
 10
-237.892
 20
233.729
 11
-237.5
 21
233.75
  0
LINE
  8
0
 10
-237.5
 20
233.75
 11
-237.108
 21
233.729
  0
LINE
  8
0
 10
-237.108
 20
233.729
 11
-236.72
 21
233.668
  0
LINE
  8
0
 10
-236.72
 20
233.668
 11
-236.341
 21
233.566
  0
LINE
  8
0
 10
-236.341
 20
233.566
 11
-235.975
 21
233.426
  0
LINE
  8
0
 10
-235.975
 20
233.426
 11
-235.625
 21
233.248
  0
LINE
  8
0
 10
-235.625
 20
233.248
 11
-235.296
 21
233.034
  0
LINE
  8
0
 10
-235.296
 20
233.034
 11
-234.991
 21
232.787
  0
LINE
  8
0
 10
-234.991
 20
232.787
 11
-234.713
 21
232.509
  0
LINE
  8
0
 10
-234.713
 20
232.509
 11
-234.466
 21
232.204
  0
LINE
  8
0
 10
-234.466
 20
232.204
 11
-234.252
 21
231.875
  0
LINE
  8
0
 10
-234.252
 20
231.875
 11
-234.074
 21
231.525
  0
LINE
  8
0
 10
-234.074
 20
231.525
 11
-233.934
 21
231.159
  0
LINE
  8
0
 10
-233.934
 20
231.159
 11
-233.832
 21
230.78
  0
LINE
  8
0
 10
-233.832
 20
230.78
 11
-233.771
 21
230.392
  0
LINE
  8
0
 10
-233.771
 20
230.392
 11
-233.75
 21
230
  0
LINE
  8
0
 10
-233.75
 20
230
 11
-233.771
 21
229.608
  0
LINE
  8
0
 10
-233.771
 20
229.608
 11
-233.832
 21
229.22
  0
LINE
  8
0
 10
-233.832
 20
229.22
 11
-233.934
 21
228.841
  0
LINE
  8
0
 10
-233.934
 20
228.841
 11
-234.074
 21
228.475
  0
LINE
  8
0
 10
-234.074
 20
228.475
 11
-234.252
 21
228.125
  0
LINE
  8
0
 10
-234.252
 20
228.125
 11
-234.466
 21
227.796
  0
LINE
  8
0
 10
-234.466
 20
227.796
 11
-234.713
 21
227.491
  0
LINE
  8
0
 10
-234.713
 20
227.491
 11
-234.991
 21
227.213
  0
LINE
  8
0
 10
-234.991
 20
227.213
 11
-235.296
 21
226.966
  0
LINE
  8
0
 10
-235.296
 20
226.966
 11
-235.625
 21
226.752
  0
LINE
  8
0
 10
-235.625
 20
226.752
 11
-235.975
 21
226.574
  0
LINE
  8
0
 10
-235.975
 20
226.574
 11
-236.341
 21
226.434
  0
LINE
  8
0
 10
-236.341
 20
226.434
 11
-236.72
 21
226.332
  0
LINE
  8
0
 10
-236.72
 20
226.332
 11
-237.108
 21
226.271
  0
LINE
  8
0
 10
-237.108
 20
226.271
 11
-237.5
 21
226.25
  0
LINE
  8
0
 10
-237.5
 20
226.25
 11
-237.892
 21
226.271
  0
LINE
  8
0
 10
263.027
 20
229.355
 11
262.783
 21
229.391
  0
LINE
  8
0
 10
262.783
 20
229.391
 11
262.547
 21
229.464
  0
LINE
  8
0
 10
262.547
 20
229.464
 11
262.325
 21
229.571
  0
LINE
  8
0
 10
262.325
 20
229.571
 11
262.121
 21
229.71
  0
LINE
  8
0
 10
262.121
 20
229.71
 11
261.94
 21
229.878
  0
LINE
  8
0
 10
261.94
 20
229.878
 11
261.787
 21
230.071
  0
LINE
  8
0
 10
261.787
 20
230.071
 11
261.663
 21
230.284
  0
LINE
  8
0
 10
261.663
 20
230.284
 11
261.573
 21
230.514
  0
LINE
  8
0
 10
261.573
 20
230.514
 11
261.518
 21
230.754
  0
LINE
  8
0
 10
261.518
 20
230.754
 11
261.5
 21
231
  0
LINE
  8
0
 10
261.5
 20
231
 11
261.518
 21
231.246
  0
LINE
  8
0
 10
261.518
 20
231.246
 11
261.573
 21
231.486
  0
LINE
  8
0
 10
261.573
 20
231.486
 11
261.663
 21
231.716
  0
LINE
  8
0
 10
261.663
 20
231.716
 11
261.787
 21
231.929
  0
LINE
  8
0
 10
261.787
 20
231.929
 11
261.94
 21
232.122
  0
LINE
  8
0
 10
261.94
 20
232.122
 11
262.121
 21
232.29
  0
LINE
  8
0
 10
262.121
 20
232.29
 11
262.325
 21
232.429
  0
LINE
  8
0
 10
262.325
 20
232.429
 11
262.547
 21
232.536
  0
LINE
  8
0
 10
262.547
 20
232.536
 11
262.783
 21
232.609
  0
LINE
  8
0
 10
262.783
 20
232.609
 11
263.027
 21
232.645
  0
LINE
  8
0
 10
263.027
 20
232.645
 11
271.273
 21
232.645
  0
LINE
  8
0
 10
271.273
 20
232.645
 11
271.517
 21
232.609
  0
LINE
  8
0
 10
271.517
 20
232.609
 11
271.753
 21
232.536
  0
LINE
  8
0
 10
271.753
 20
232.536
 11
271.975
 21
232.429
  0
LINE
  8
0
 10
271.975
 20
232.429
 11
272.179
 21
232.29
  0
LINE
  8
0
 10
272.179
 20
232.29
 11
272.36
 21
232.122
  0
LINE
  8
0
 10
272.36
 20
232.122
 11
272.513
 21
231.929
  0
LINE
  8
0
 10
272.513
 20
231.929
 11
272.637
 21
231.716
  0
LINE
  8
0
 10
272.637
 20
231.716
 11
272.727
 21
231.486
  0
LINE
  8
0
 10
272.727
 20
231.486
 11
272.782
 21
231.246
  0
LINE
  8
0
 10
272.782
 20
231.246
 11
272.8
 21
231
  0
LINE
  8
0
 10
272.8
 20
231
 11
272.782
 21
230.754
  0
LINE
  8
0
 10
272.782
 20
230.754
 11
272.727
 21
230.514
  0
LINE
  8
0
 10
272.727
 20
230.514
 11
272.637
 21
230.284
  0
LINE
  8
0
 10
272.637
 20
230.284
 11
272.513
 21
230.071
  0
LINE
  8
0
 10
272.513
 20
230.071
 11
272.36
 21
229.878
  0
LINE
  8
0
 10
272.36
 20
229.878
 11
272.179
 21
229.71
  0
LINE
  8
0
 10
272.179
 20
229.71
 11
271.975
 21
229.571
  0
LINE
  8
0
 10
271.975
 20
229.571
 11
271.753
 21
229.464
  0
LINE
  8
0
 10
271.753
 20
229.464
 11
271.517
 21
229.391
  0
LINE
  8
0
 10
271.517
 20
229.391
 11
271.273
 21
229.355
  0
LINE
  8
0
 10
271.273
 20
229.355
 11
263.027
 21
229.355
  0
LINE
  8
0
 10
294.027
 20
229.355
 11
293.783
 21
229.391
  0
LINE
  8
0
 10
293.783
 20
229.391
 11
293.547
 21
229.464
  0
LINE
  8
0
 10
293.547
 20
229.464
 11
293.325
 21
229.571
  0
LINE
  8
0
 10
293.325
 20
229.571
 11
293.121
 21
229.71
  0
LINE
  8
0
 10
293.121
 20
229.71
 11
292.94
 21
229.878
  0
LINE
  8
0
 10
292.94
 20
229.878
 11
292.787
 21
230.071
  0
LINE
  8
0
 10
292.787
 20
230.071
 11
292.663
 21
230.284
  0
LINE
  8
0
 10
292.663
 20
230.284
 11
292.573
 21
230.514
  0
LINE
  8
0
 10
292.573
 20
230.514
 11
292.518
 21
230.754
  0
LINE
  8
0
 10
292.518
 20
230.754
 11
292.5
 21
231
  0
LINE
  8
0
 10
292.5
 20
231
 11
292.518
 21
231.246
  0
LINE
  8
0
 10
292.518
 20
231.246
 11
292.573
 21
231.486
  0
LINE
  8
0
 10
292.573
 20
231.486
 11
292.663
 21
231.716
  0
LINE
  8
0
 10
292.663
 20
231.716
 11
292.787
 21
231.929
  0
LINE
  8
0
 10
292.787
 20
231.929
 11
292.94
 21
232.122
  0
LINE
  8
0
 10
292.94
 20
232.122
 11
293.121
 21
232.29
  0
LINE
  8
0
 10
293.121
 20
232.29
 11
293.325
 21
232.429
  0
LINE
  8
0
 10
293.325
 20
232.429
 11
293.547
 21
232.536
  0
LINE
  8
0
 10
293.547
 20
232.536
 11
293.783
 21
232.609
  0
LINE
  8
0
 10
293.783
 20
232.609
 11
294.027
 21
232.645
  0
LINE
  8
0
 10
294.027
 20
232.645
 11
302.273
 21
232.645
  0
LINE
  8
0
 10
302.273
 20
232.645
 11
302.517
 21
232.609
  0
LINE
  8
0
 10
302.517
 20
232.609
 11
302.753
 21
232.536
  0
LINE
  8
0
 10
302.753
 20
232.536
 11
302.975
 21
232.429
  0
LINE
  8
0
 10
302.975
 20
232.429
 11
303.179
 21
232.29
  0
LINE
  8
0
 10
303.179
 20
232.29
 11
303.36
 21
232.122
  0
LINE
  8
0
 10
303.36
 20
232.122
 11
303.513
 21
231.929
  0
LINE
  8
0
 10
303.513
 20
231.929
 11
303.637
 21
231.716
  0
LINE
  8
0
 10
303.637
 20
231.716
 11
303.727
 21
231.486
  0
LINE
  8
0
 10
303.727
 20
231.486
 11
303.782
 21
231.246
  0
LINE
  8
0
 10
303.782
 20
231.246
 11
303.8
 21
231
  0
LINE
  8
0
 10
303.8
 20
231
 11
303.782
 21
230.754
  0
LINE
  8
0
 10
303.782
 20
230.754
 11
303.727
 21
230.514
  0
LINE
  8
0
 10
303.727
 20
230.514
 11
303.637
 21
230.284
  0
LINE
  8
0
 10
303.637
 20
230.284
 11
303.513
 21
230.071
  0
LINE
  8
0
 10
303.513
 20
230.071
 11
303.36
 21
229.878
  0
LINE
  8
0
 10
303.36
 20
229.878
 11
303.179
 21
229.71
  0
LINE
  8
0
 10
303.179
 20
229.71
 11
302.975
 21
229.571
  0
LINE
  8
0
 10
302.975
 20
229.571
 11
302.753
 21
229.464
  0
LINE
  8
0
 10
302.753
 20
229.464
 11
302.517
 21
229.391
  0
LINE
  8
0
 10
302.517
 20
229.391
 11
302.273
 21
229.355
  0
LINE
  8
0
 10
302.273
 20
229.355
 11
294.027
 21
229.355
  0
LINE
  8
0
 10
72.5
 20
228.25
 11
72.2509
 21
228.268
  0
LINE
  8
0
 10
72.2509
 20
228.268
 11
72.007
 21
228.321
  0
LINE
  8
0
 10
72.007
 20
228.321
 11
71.773
 21
228.408
  0
LINE
  8
0
 10
71.773
 20
228.408
 11
71.5539
 21
228.528
  0
LINE
  8
0
 10
71.5539
 20
228.528
 11
71.354
 21
228.677
  0
LINE
  8
0
 10
71.354
 20
228.677
 11
71.1774
 21
228.854
  0
LINE
  8
0
 10
71.1774
 20
228.854
 11
71.0278
 21
229.054
  0
LINE
  8
0
 10
71.0278
 20
229.054
 11
70.9081
 21
229.273
  0
LINE
  8
0
 10
70.9081
 20
229.273
 11
70.8209
 21
229.507
  0
LINE
  8
0
 10
70.8209
 20
229.507
 11
70.7678
 21
229.751
  0
LINE
  8
0
 10
70.7678
 20
229.751
 11
70.75
 21
230
  0
LINE
  8
0
 10
70.75
 20
230
 11
70.7678
 21
230.249
  0
LINE
  8
0
 10
70.7678
 20
230.249
 11
70.8209
 21
230.493
  0
LINE
  8
0
 10
70.8209
 20
230.493
 11
70.9081
 21
230.727
  0
LINE
  8
0
 10
70.9081
 20
230.727
 11
71.0278
 21
230.946
  0
LINE
  8
0
 10
71.0278
 20
230.946
 11
71.1774
 21
231.146
  0
LINE
  8
0
 10
71.1774
 20
231.146
 11
71.354
 21
231.323
  0
LINE
  8
0
 10
71.354
 20
231.323
 11
71.5539
 21
231.472
  0
LINE
  8
0
 10
71.5539
 20
231.472
 11
71.773
 21
231.592
  0
LINE
  8
0
 10
71.773
 20
231.592
 11
72.007
 21
231.679
  0
LINE
  8
0
 10
72.007
 20
231.679
 11
72.2509
 21
231.732
  0
LINE
  8
0
 10
72.2509
 20
231.732
 11
72.5
 21
231.75
  0
LINE
  8
0
 10
72.5
 20
231.75
 11
187.5
 21
231.75
  0
LINE
  8
0
 10
187.5
 20
231.75
 11
187.749
 21
231.732
  0
LINE
  8
0
 10
187.749
 20
231.732
 11
187.993
 21
231.679
  0
LINE
  8
0
 10
187.993
 20
231.679
 11
188.227
 21
231.592
  0
LINE
  8
0
 10
188.227
 20
231.592
 11
188.446
 21
231.472
  0
LINE
  8
0
 10
188.446
 20
231.472
 11
188.646
 21
231.323
  0
LINE
  8
0
 10
188.646
 20
231.323
 11
188.823
 21
231.146
  0
LINE
  8
0
 10
188.823
 20
231.146
 11
188.972
 21
230.946
  0
LINE
  8
0
 10
188.972
 20
230.946
 11
189.092
 21
230.727
  0
LINE
  8
0
 10
189.092
 20
230.727
 11
189.179
 21
230.493
  0
LINE
  8
0
 10
189.179
 20
230.493
 11
189.232
 21
230.249
  0
LINE
  8
0
 10
189.232
 20
230.249
 11
189.25
 21
230
  0
LINE
  8
0
 10
189.25
 20
230
 11
189.232
 21
229.751
  0
LINE
  8
0
 10
189.232
 20
229.751
 11
189.179
 21
229.507
  0
LINE
  8
0
 10
189.179
 20
229.507
 11
189.092
 21
229.273
  0
LINE
  8
0
 10
189.092
 20
229.273
 11
188.972
 21
229.054
  0
LINE
  8
0
 10
188.972
 20
229.054
 11
188.823
 21
228.854
  0
LINE
  8
0
 10
188.823
 20
228.854
 11
188.646
 21
228.677
  0
LINE
  8
0
 10
188.646
 20
228.677
 11
188.446
 21
228.528
  0
LINE
  8
0
 10
188.446
 20
228.528
 11
188.227
 21
228.408
  0
LINE
  8
0
 10
188.227
 20
228.408
 11
187.993
 21
228.321
  0
LINE
  8
0
 10
187.993
 20
228.321
 11
187.749
 21
228.268
  0
LINE
  8
0
 10
187.749
 20
228.268
 11
187.5
 21
228.25
  0
LINE
  8
0
 10
187.5
 20
228.25
 11
72.5
 21
228.25
  0
LINE
  8
0
 10
-187.5
 20
228.25
 11
-187.749
 21
228.268
  0
LINE
  8
0
 10
-187.749
 20
228.268
 11
-187.993
 21
228.321
  0
LINE
  8
0
 10
-187.993
 20
228.321
 11
-188.227
 21
228.408
  0
LINE
  8
0
 10
-188.227
 20
228.408
 11
-188.446
 21
228.528
  0
LINE
  8
0
 10
-188.446
 20
228.528
 11
-188.646
 21
228.677
  0
LINE
  8
0
 10
-188.646
 20
228.677
 11
-188.823
 21
228.854
  0
LINE
  8
0
 10
-188.823
 20
228.854
 11
-188.972
 21
229.054
  0
LINE
  8
0
 10
-188.972
 20
229.054
 11
-189.092
 21
229.273
  0
LINE
  8
0
 10
-189.092
 20
229.273
 11
-189.179
 21
229.507
  0
LINE
  8
0
 10
-189.179
 20
229.507
 11
-189.232
 21
229.751
  0
LINE
  8
0
 10
-189.232
 20
229.751
 11
-189.25
 21
230
  0
LINE
  8
0
 10
-189.25
 20
230
 11
-189.232
 21
230.249
  0
LINE
  8
0
 10
-189.232
 20
230.249
 11
-189.179
 21
230.493
  0
LINE
  8
0
 10
-189.179
 20
230.493
 11
-189.092
 21
230.727
  0
LINE
  8
0
 10
-189.092
 20
230.727
 11
-188.972
 21
230.946
  0
LINE
  8
0
 10
-188.972
 20
230.946
 11
-188.823
 21
231.146
  0
LINE
  8
0
 10
-188.823
 20
231.146
 11
-188.646
 21
231.323
  0
LINE
  8
0
 10
-188.646
 20
231.323
 11
-188.446
 21
231.472
  0
LINE
  8
0
 10
-188.446
 20
231.472
 11
-188.227
 21
231.592
  0
LINE
  8
0
 10
-188.227
 20
231.592
 11
-187.993
 21
231.679
  0
LINE
  8
0
 10
-187.993
 20
231.679
 11
-187.749
 21
231.732
  0
LINE
  8
0
 10
-187.749
 20
231.732
 11
-187.5
 21
231.75
  0
LINE
  8
0
 10
-187.5
 20
231.75
 11
-72.5
 21
231.75
  0
LINE
  8
0
 10
-72.5
 20
231.75
 11
-72.2509
 21
231.732
  0
LINE
  8
0
 10
-72.2509
 20
231.732
 11
-72.007
 21
231.679
  0
LINE
  8
0
 10
-72.007
 20
231.679
 11
-71.773
 21
231.592
  0
LINE
  8
0
 10
-71.773
 20
231.592
 11
-71.5539
 21
231.472
  0
LINE
  8
0
 10
-71.5539
 20
231.472
 11
-71.354
 21
231.323
  0
LINE
  8
0
 10
-71.354
 20
231.323
 11
-71.1774
 21
231.146
  0
LINE
  8
0
 10
-71.1774
 20
231.146
 11
-71.0278
 21
230.946
  0
LINE
  8
0
 10
-71.0278
 20
230.946
 11
-70.9081
 21
230.727
  0
LINE
  8
0
 10
-70.9081
 20
230.727
 11
-70.8209
 21
230.493
  0
LINE
  8
0
 10
-70.8209
 20
230.493
 11
-70.7678
 21
230.249
  0
LINE
  8
0
 10
-70.7678
 20
230.249
 11
-70.75
 21
230
  0
LINE
  8
0
 10
-70.75
 20
230
 11
-70.7678
 21
229.751
  0
LINE
  8
0
 10
-70.7678
 20
229.751
 11
-70.8209
 21
229.507
  0
LINE
  8
0
 10
-70.8209
 20
229.507
 11
-70.9081
 21
229.273
  0
LINE
  8
0
 10
-70.9081
 20
229.273
 11
-71.0278
 21
229.054
  0
LINE
  8
0
 10
-71.0278
 20
229.054
 11
-71.1774
 21
228.854
  0
LINE
  8
0
 10
-71.1774
 20
228.854
 11
-71.354
 21
228.677
  0
LINE
  8
0
 10
-71.354
 20
228.677
 11
-71.5539
 21
228.528
  0
LINE
  8
0
 10
-71.5539
 20
228.528
 11
-71.773
 21
228.408
  0
LINE
  8
0
 10
-71.773
 20
228.408
 11
-72.007
 21
228.321
  0
LINE
  8
0
 10
-72.007
 20
228.321
 11
-72.2509
 21
228.268
  0
LINE
  8
0
 10
-72.2509
 20
228.268
 11
-72.5
 21
228.25
  0
LINE
  8
0
 10
-72.5
 20
228.25
 11
-187.5
 21
228.25
  0
LINE
  8
0
 10
-57.5
 20
228.25
 11
-57.749
 21
228.268
  0
LINE
  8
0
 10
-57.749
 20
228.268
 11
-57.993
 21
228.321
  0
LINE
  8
0
 10
-57.993
 20
228.321
 11
-58.227
 21
228.408
  0
LINE
  8
0
 10
-58.227
 20
228.408
 11
-58.4461
 21
228.528
  0
LINE
  8
0
 10
-58.4461
 20
228.528
 11
-58.646
 21
228.677
  0
LINE
  8
0
 10
-58.646
 20
228.677
 11
-58.8226
 21
228.854
  0
LINE
  8
0
 10
-58.8226
 20
228.854
 11
-58.9722
 21
229.054
  0
LINE
  8
0
 10
-58.9722
 20
229.054
 11
-59.0918
 21
229.273
  0
LINE
  8
0
 10
-59.0918
 20
229.273
 11
-59.1791
 21
229.507
  0
LINE
  8
0
 10
-59.1791
 20
229.507
 11
-59.2322
 21
229.751
  0
LINE
  8
0
 10
-59.2322
 20
229.751
 11
-59.25
 21
230
  0
LINE
  8
0
 10
-59.25
 20
230
 11
-59.2322
 21
230.249
  0
LINE
  8
0
 10
-59.2322
 20
230.249
 11
-59.1791
 21
230.493
  0
LINE
  8
0
 10
-59.1791
 20
230.493
 11
-59.0918
 21
230.727
  0
LINE
  8
0
 10
-59.0918
 20
230.727
 11
-58.9722
 21
230.946
  0
LINE
  8
0
 10
-58.9722
 20
230.946
 11
-58.8226
 21
231.146
  0
LINE
  8
0
 10
-58.8226
 20
231.146
 11
-58.646
 21
231.323
  0
LINE
  8
0
 10
-58.646
 20
231.323
 11
-58.4461
 21
231.472
  0
LINE
  8
0
 10
-58.4461
 20
231.472
 11
-58.227
 21
231.592
  0
LINE
  8
0
 10
-58.227
 20
231.592
 11
-57.993
 21
231.679
  0
LINE
  8
0
 10
-57.993
 20
231.679
 11
-57.749
 21
231.732
  0
LINE
  8
0
 10
-57.749
 20
231.732
 11
-57.5
 21
231.75
  0
LINE
  8
0
 10
-57.5
 20
231.75
 11
57.5
 21
231.75
  0
LINE
  8
0
 10
57.5
 20
231.75
 11
57.749
 21
231.732
  0
LINE
  8
0
 10
57.749
 20
231.732
 11
57.993
 21
231.679
  0
LINE
  8
0
 10
57.993
 20
231.679
 11
58.227
 21
231.592
  0
LINE
  8
0
 10
58.227
 20
231.592
 11
58.4461
 21
231.472
  0
LINE
  8
0
 10
58.4461
 20
231.472
 11
58.646
 21
231.323
  0
LINE
  8
0
 10
58.646
 20
231.323
 11
58.8226
 21
231.146
  0
LINE
  8
0
 10
58.8226
 20
231.146
 11
58.9722
 21
230.946
  0
LINE
  8
0
 10
58.9722
 20
230.946
 11
59.0918
 21
230.727
  0
LINE
  8
0
 10
59.0918
 20
230.727
 11
59.1791
 21
230.493
  0
LINE
  8
0
 10
59.1791
 20
230.493
 11
59.2322
 21
230.249
  0
LINE
  8
0
 10
59.2322
 20
230.249
 11
59.25
 21
230
  0
LINE
  8
0
 10
59.25
 20
230
 11
59.2322
 21
229.751
  0
LINE
  8
0
 10
59.2322
 20
229.751
 11
59.1791
 21
229.507
  0
LINE
  8
0
 10
59.1791
 20
229.507
 11
59.0918
 21
229.273
  0
LINE
  8
0
 10
59.0918
 20
229.273
 11
58.9722
 21
229.054
  0
LINE
  8
0
 10
58.9722
 20
229.054
 11
58.8226
 21
228.854
  0
LINE
  8
0
 10
58.8226
 20
228.854
 11
58.646
 21
228.677
  0
LINE
  8
0
 10
58.646
 20
228.677
 11
58.4461
 21
228.528
  0
LINE
  8
0
 10
58.4461
 20
228.528
 11
58.227
 21
228.408
  0
LINE
  8
0
 10
58.227
 20
228.408
 11
57.993
 21
228.321
  0
LINE
  8
0
 10
57.993
 20
228.321
 11
57.749
 21
228.268
  0
LINE
  8
0
 10
57.749
 20
228.268
 11
57.5
 21
228.25
  0
LINE
  8
0
 10
57.5
 20
228.25
 11
-57.5
 21
228.25
  0
LINE
  8
0
 10
-215.186
 20
228.31
 11
-215.43
 21
228.355
  0
LINE
  8
0
 10
-215.43
 20
228.355
 11
-215.665
 21
228.435
  0
LINE
  8
0
 10
-215.665
 20
228.435
 11
-215.886
 21
228.549
  0
LINE
  8
0
 10
-215.886
 20
228.549
 11
-216.087
 21
228.693
  0
LINE
  8
0
 10
-216.087
 20
228.693
 11
-216.266
 21
228.866
  0
LINE
  8
0
 10
-216.266
 20
228.866
 11
-216.418
 21
229.062
  0
LINE
  8
0
 10
-216.418
 20
229.062
 11
-216.539
 21
229.278
  0
LINE
  8
0
 10
-216.539
 20
229.278
 11
-216.628
 21
229.51
  0
LINE
  8
0
 10
-216.628
 20
229.51
 11
-216.682
 21
229.752
  0
LINE
  8
0
 10
-216.682
 20
229.752
 11
-216.7
 21
230
  0
LINE
  8
0
 10
-216.7
 20
230
 11
-216.682
 21
230.248
  0
LINE
  8
0
 10
-216.682
 20
230.248
 11
-216.628
 21
230.49
  0
LINE
  8
0
 10
-216.628
 20
230.49
 11
-216.539
 21
230.722
  0
LINE
  8
0
 10
-216.539
 20
230.722
 11
-216.418
 21
230.938
  0
LINE
  8
0
 10
-216.418
 20
230.938
 11
-216.266
 21
231.134
  0
LINE
  8
0
 10
-216.266
 20
231.134
 11
-216.087
 21
231.307
  0
LINE
  8
0
 10
-216.087
 20
231.307
 11
-215.886
 21
231.451
  0
LINE
  8
0
 10
-215.886
 20
231.451
 11
-215.665
 21
231.565
  0
LINE
  8
0
 10
-215.665
 20
231.565
 11
-215.43
 21
231.645
  0
LINE
  8
0
 10
-215.43
 20
231.645
 11
-215.186
 21
231.69
  0
LINE
  8
0
 10
-215.186
 20
231.69
 11
-214.938
 21
231.699
  0
LINE
  8
0
 10
-214.938
 20
231.699
 11
-214.691
 21
231.672
  0
LINE
  8
0
 10
-214.691
 20
231.672
 11
-214.451
 21
231.609
  0
LINE
  8
0
 10
-214.451
 20
231.609
 11
-214.223
 21
231.512
  0
LINE
  8
0
 10
-214.223
 20
231.512
 11
-214.011
 21
231.383
  0
LINE
  8
0
 10
-214.011
 20
231.383
 11
-213.82
 21
231.224
  0
LINE
  8
0
 10
-213.82
 20
231.224
 11
-213.654
 21
231.039
  0
LINE
  8
0
 10
-213.654
 20
231.039
 11
-213.518
 21
230.832
  0
LINE
  8
0
 10
-213.518
 20
230.832
 11
-213.412
 21
230.607
  0
LINE
  8
0
 10
-213.412
 20
230.607
 11
-213.341
 21
230.37
  0
LINE
  8
0
 10
-213.341
 20
230.37
 11
-213.305
 21
230.124
  0
LINE
  8
0
 10
-213.305
 20
230.124
 11
-213.305
 21
229.876
  0
LINE
  8
0
 10
-213.305
 20
229.876
 11
-213.341
 21
229.63
  0
LINE
  8
0
 10
-213.341
 20
229.63
 11
-213.412
 21
229.393
  0
LINE
  8
0
 10
-213.412
 20
229.393
 11
-213.518
 21
229.168
  0
LINE
  8
0
 10
-213.518
 20
229.168
 11
-213.654
 21
228.961
  0
LINE
  8
0
 10
-213.654
 20
228.961
 11
-213.82
 21
228.776
  0
LINE
  8
0
 10
-213.82
 20
228.776
 11
-214.011
 21
228.617
  0
LINE
  8
0
 10
-214.011
 20
228.617
 11
-214.223
 21
228.488
  0
LINE
  8
0
 10
-214.223
 20
228.488
 11
-214.451
 21
228.391
  0
LINE
  8
0
 10
-214.451
 20
228.391
 11
-214.691
 21
228.328
  0
LINE
  8
0
 10
-214.691
 20
228.328
 11
-214.938
 21
228.301
  0
LINE
  8
0
 10
-214.938
 20
228.301
 11
-215.186
 21
228.31
  0
LINE
  8
0
 10
214.691
 20
228.328
 11
214.451
 21
228.391
  0
LINE
  8
0
 10
214.451
 20
228.391
 11
214.223
 21
228.488
  0
LINE
  8
0
 10
214.223
 20
228.488
 11
214.011
 21
228.617
  0
LINE
  8
0
 10
214.011
 20
228.617
 11
213.82
 21
228.776
  0
LINE
  8
0
 10
213.82
 20
228.776
 11
213.654
 21
228.961
  0
LINE
  8
0
 10
213.654
 20
228.961
 11
213.518
 21
229.168
  0
LINE
  8
0
 10
213.518
 20
229.168
 11
213.412
 21
229.393
  0
LINE
  8
0
 10
213.412
 20
229.393
 11
213.341
 21
229.63
  0
LINE
  8
0
 10
213.341
 20
229.63
 11
213.305
 21
229.876
  0
LINE
  8
0
 10
213.305
 20
229.876
 11
213.305
 21
230.124
  0
LINE
  8
0
 10
213.305
 20
230.124
 11
213.341
 21
230.37
  0
LINE
  8
0
 10
213.341
 20
230.37
 11
213.412
 21
230.607
  0
LINE
  8
0
 10
213.412
 20
230.607
 11
213.518
 21
230.832
  0
LINE
  8
0
 10
213.518
 20
230.832
 11
213.654
 21
231.039
  0
LINE
  8
0
 10
213.654
 20
231.039
 11
213.82
 21
231.224
  0
LINE
  8
0
 10
213.82
 20
231.224
 11
214.011
 21
231.383
  0
LINE
  8
0
 10
214.011
 20
231.383
 11
214.223
 21
231.512
  0
LINE
  8
0
 10
214.223
 20
231.512
 11
214.451
 21
231.609
  0
LINE
  8
0
 10
214.451
 20
231.609
 11
214.691
 21
231.672
  0
LINE
  8
0
 10
214.691
 20
231.672
 11
214.938
 21
231.699
  0
LINE
  8
0
 10
214.938
 20
231.699
 11
215.186
 21
231.69
  0
LINE
  8
0
 10
215.186
 20
231.69
 11
215.43
 21
231.645
  0
LINE
  8
0
 10
215.43
 20
231.645
 11
215.665
 21
231.565
  0
LINE
  8
0
 10
215.665
 20
231.565
 11
215.886
 21
231.451
  0
LINE
  8
0
 10
215.886
 20
231.451
 11
216.087
 21
231.307
  0
LINE
  8
0
 10
216.087
 20
231.307
 11
216.266
 21
231.134
  0
LINE
  8
0
 10
216.266
 20
231.134
 11
216.418
 21
230.938
  0
LINE
  8
0
 10
216.418
 20
230.938
 11
216.539
 21
230.722
  0
LINE
  8
0
 10
216.539
 20
230.722
 11
216.628
 21
230.49
  0
LINE
  8
0
 10
216.628
 20
230.49
 11
216.682
 21
230.248
  0
LINE
  8
0
 10
216.682
 20
230.248
 11
216.7
 21
230
  0
LINE
  8
0
 10
216.7
 20
230
 11
216.682
 21
229.752
  0
LINE
  8
0
 10
216.682
 20
229.752
 11
216.628
 21
229.51
  0
LINE
  8
0
 10
216.628
 20
229.51
 11
216.539
 21
229.278
  0
LINE
  8
0
 10
216.539
 20
229.278
 11
216.418
 21
229.062
  0
LINE
  8
0
 10
216.418
 20
229.062
 11
216.266
 21
228.866
  0
LINE
  8
0
 10
216.266
 20
228.866
 11
216.087
 21
228.693
  0
LINE
  8
0
 10
216.087
 20
228.693
 11
215.886
 21
228.549
  0
LINE
  8
0
 10
215.886
 20
228.549
 11
215.665
 21
228.435
  0
LINE
  8
0
 10
215.665
 20
228.435
 11
215.43
 21
228.355
  0
LINE
  8
0
 10
215.43
 20
228.355
 11
215.186
 21
228.31
  0
LINE
  8
0
 10
215.186
 20
228.31
 11
214.938
 21
228.301
  0
LINE
  8
0
 10
214.938
 20
228.301
 11
214.691
 21
228.328
  0
LINE
  8
0
 10
278.15
 20
203
 11
276.843
 21
203.068
  0
LINE
  8
0
 10
276.843
 20
203.068
 11
275.551
 21
203.273
  0
LINE
  8
0
 10
275.551
 20
203.273
 11
274.287
 21
203.612
  0
LINE
  8
0
 10
274.287
 20
203.612
 11
273.066
 21
204.081
  0
LINE
  8
0
 10
273.066
 20
204.081
 11
271.9
 21
204.675
  0
LINE
  8
0
 10
271.9
 20
204.675
 11
270.803
 21
205.387
  0
LINE
  8
0
 10
270.803
 20
205.387
 11
269.786
 21
206.211
  0
LINE
  8
0
 10
269.786
 20
206.211
 11
268.861
 21
207.136
  0
LINE
  8
0
 10
268.861
 20
207.136
 11
268.037
 21
208.153
  0
LINE
  8
0
 10
268.037
 20
208.153
 11
267.325
 21
209.25
  0
LINE
  8
0
 10
267.325
 20
209.25
 11
266.731
 21
210.416
  0
LINE
  8
0
 10
266.731
 20
210.416
 11
266.262
 21
211.637
  0
LINE
  8
0
 10
266.262
 20
211.637
 11
265.923
 21
212.901
  0
LINE
  8
0
 10
265.923
 20
212.901
 11
265.718
 21
214.193
  0
LINE
  8
0
 10
265.718
 20
214.193
 11
265.65
 21
215.5
  0
LINE
  8
0
 10
265.65
 20
215.5
 11
265.718
 21
216.807
  0
LINE
  8
0
 10
265.718
 20
216.807
 11
265.923
 21
218.099
  0
LINE
  8
0
 10
265.923
 20
218.099
 11
266.262
 21
219.363
  0
LINE
  8
0
 10
266.262
 20
219.363
 11
266.731
 21
220.584
  0
LINE
  8
0
 10
266.731
 20
220.584
 11
267.325
 21
221.75
  0
LINE
  8
0
 10
267.325
 20
221.75
 11
268.037
 21
222.847
  0
LINE
  8
0
 10
268.037
 20
222.847
 11
268.861
 21
223.864
  0
LINE
  8
0
 10
268.861
 20
223.864
 11
269.786
 21
224.789
  0
LINE
  8
0
 10
269.786
 20
224.789
 11
270.803
 21
225.613
  0
LINE
  8
0
 10
270.803
 20
225.613
 11
271.9
 21
226.325
  0
LINE
  8
0
 10
271.9
 20
226.325
 11
273.066
 21
226.919
  0
LINE
  8
0
 10
273.066
 20
226.919
 11
274.287
 21
227.388
  0
LINE
  8
0
 10
274.287
 20
227.388
 11
275.551
 21
227.727
  0
LINE
  8
0
 10
275.551
 20
227.727
 11
276.843
 21
227.932
  0
LINE
  8
0
 10
276.843
 20
227.932
 11
278.15
 21
228
  0
LINE
  8
0
 10
278.15
 20
228
 11
286.15
 21
228
  0
LINE
  8
0
 10
286.15
 20
228
 11
287.457
 21
227.932
  0
LINE
  8
0
 10
287.457
 20
227.932
 11
288.749
 21
227.727
  0
LINE
  8
0
 10
288.749
 20
227.727
 11
290.013
 21
227.388
  0
LINE
  8
0
 10
290.013
 20
227.388
 11
291.234
 21
226.919
  0
LINE
  8
0
 10
291.234
 20
226.919
 11
292.4
 21
226.325
  0
LINE
  8
0
 10
292.4
 20
226.325
 11
293.497
 21
225.613
  0
LINE
  8
0
 10
293.497
 20
225.613
 11
294.514
 21
224.789
  0
LINE
  8
0
 10
294.514
 20
224.789
 11
295.439
 21
223.864
  0
LINE
  8
0
 10
295.439
 20
223.864
 11
296.263
 21
222.847
  0
LINE
  8
0
 10
296.263
 20
222.847
 11
296.975
 21
221.75
  0
LINE
  8
0
 10
296.975
 20
221.75
 11
297.569
 21
220.584
  0
LINE
  8
0
 10
297.569
 20
220.584
 11
298.038
 21
219.363
  0
LINE
  8
0
 10
298.038
 20
219.363
 11
298.377
 21
218.099
  0
LINE
  8
0
 10
298.377
 20
218.099
 11
298.582
 21
216.807
  0
LINE
  8
0
 10
298.582
 20
216.807
 11
298.65
 21
215.5
  0
LINE
  8
0
 10
298.65
 20
215.5
 11
298.582
 21
214.193
  0
LINE
  8
0
 10
298.582
 20
214.193
 11
298.377
 21
212.901
  0
LINE
  8
0
 10
298.377
 20
212.901
 11
298.038
 21
211.637
  0
LINE
  8
0
 10
298.038
 20
211.637
 11
297.569
 21
210.416
  0
LINE
  8
0
 10
297.569
 20
210.416
 11
296.975
 21
209.25
  0
LINE
  8
0
 10
296.975
 20
209.25
 11
296.263
 21
208.153
  0
LINE
  8
0
 10
296.263
 20
208.153
 11
295.439
 21
207.136
  0
LINE
  8
0
 10
295.439
 20
207.136
 11
294.514
 21
206.211
  0
LINE
  8
0
 10
294.514
 20
206.211
 11
293.497
 21
205.387
  0
LINE
  8
0
 10
293.497
 20
205.387
 11
292.4
 21
204.675
  0
LINE
  8
0
 10
292.4
 20
204.675
 11
291.234
 21
204.081
  0
LINE
  8
0
 10
291.234
 20
204.081
 11
290.013
 21
203.612
  0
LINE
  8
0
 10
290.013
 20
203.612
 11
288.749
 21
203.273
  0
LINE
  8
0
 10
288.749
 20
203.273
 11
287.457
 21
203.068
  0
LINE
  8
0
 10
287.457
 20
203.068
 11
286.15
 21
203
  0
LINE
  8
0
 10
286.15
 20
203
 11
278.15
 21
203
  0
LINE
  8
0
 10
-229
 20
-222.5
 11
-229.223
 21
-222.475
  0
LINE
  8
0
 10
-229.223
 20
-222.475
 11
-229.434
 21
-222.401
  0
LINE
  8
0
 10
-229.434
 20
-222.401
 11
-229.623
 21
-222.282
  0
LINE
  8
0
 10
-229.623
 20
-222.282
 11
-229.782
 21
-222.123
  0
LINE
  8
0
 10
-229.782
 20
-222.123
 11
-229.901
 21
-221.934
  0
LINE
  8
0
 10
-229.901
 20
-221.934
 11
-229.975
 21
-221.723
  0
LINE
  8
0
 10
-229.975
 20
-221.723
 11
-230
 21
-221.5
  0
LINE
  8
0
 10
-230
 20
-221.5
 11
-230
 21
221.5
  0
LINE
  8
0
 10
-230
 20
221.5
 11
-229.975
 21
221.723
  0
LINE
  8
0
 10
-229.975
 20
221.723
 11
-229.901
 21
221.934
  0
LINE
  8
0
 10
-229.901
 20
221.934
 11
-229.782
 21
222.123
  0
LINE
  8
0
 10
-229.782
 20
222.123
 11
-229.623
 21
222.282
  0
LINE
  8
0
 10
-229.623
 20
222.282
 11
-229.434
 21
222.401
  0
LINE
  8
0
 10
-229.434
 20
222.401
 11
-229.223
 21
222.475
  0
LINE
  8
0
 10
-229.223
 20
222.475
 11
-229
 21
222.5
  0
LINE
  8
0
 10
-229
 20
222.5
 11
229
 21
222.5
  0
LINE
  8
0
 10
229
 20
222.5
 11
229.223
 21
222.475
  0
LINE
  8
0
 10
229.223
 20
222.475
 11
229.434
 21
222.401
  0
LINE
  8
0
 10
229.434
 20
222.401
 11
229.623
 21
222.282
  0
LINE
  8
0
 10
229.623
 20
222.282
 11
229.782
 21
222.123
  0
LINE
  8
0
 10
229.782
 20
222.123
 11
229.901
 21
221.934
  0
LINE
  8
0
 10
229.901
 20
221.934
 11
229.975
 21
221.723
  0
LINE
  8
0
 10
229.975
 20
221.723
 11
230
 21
221.5
  0
LINE
  8
0
 10
230
 20
221.5
 11
230
 21
-221.5
  0
LINE
  8
0
 10
230
 20
-221.5
 11
229.975
 21
-221.723
  0
LINE
  8
0
 10
229.975
 20
-221.723
 11
229.901
 21
-221.934
  0
LINE
  8
0
 10
229.901
 20
-221.934
 11
229.782
 21
-222.123
  0
LINE
  8
0
 10
229.782
 20
-222.123
 11
229.623
 21
-222.282
  0
LINE
  8
0
 10
229.623
 20
-222.282
 11
229.434
 21
-222.401
  0
LINE
  8
0
 10
229.434
 20
-222.401
 11
229.223
 21
-222.475
  0
LINE
  8
0
 10
229.223
 20
-222.475
 11
229
 21
-222.5
  0
LINE
  8
0
 10
229
 20
-222.5
 11
-229
 21
-222.5
  0
LINE
  8
0
 10
-284.894
 20
214.274
 11
-285.128
 21
214.345
  0
LINE
  8
0
 10
-285.128
 20
214.345
 11
-285.344
 21
214.461
  0
LINE
  8
0
 10
-285.344
 20
214.461
 11
-285.534
 21
214.616
  0
LINE
  8
0
 10
-285.534
 20
214.616
 11
-285.689
 21
214.806
  0
LINE
  8
0
 10
-285.689
 20
214.806
 11
-285.805
 21
215.022
  0
LINE
  8
0
 10
-285.805
 20
215.022
 11
-285.876
 21
215.256
  0
LINE
  8
0
 10
-285.876
 20
215.256
 11
-285.9
 21
215.5
  0
LINE
  8
0
 10
-285.9
 20
215.5
 11
-285.876
 21
215.744
  0
LINE
  8
0
 10
-285.876
 20
215.744
 11
-285.805
 21
215.978
  0
LINE
  8
0
 10
-285.805
 20
215.978
 11
-285.689
 21
216.194
  0
LINE
  8
0
 10
-285.689
 20
216.194
 11
-285.534
 21
216.384
  0
LINE
  8
0
 10
-285.534
 20
216.384
 11
-285.344
 21
216.539
  0
LINE
  8
0
 10
-285.344
 20
216.539
 11
-285.128
 21
216.655
  0
LINE
  8
0
 10
-285.128
 20
216.655
 11
-284.894
 21
216.726
  0
LINE
  8
0
 10
-284.894
 20
216.726
 11
-284.65
 21
216.75
  0
LINE
  8
0
 10
-284.65
 20
216.75
 11
-284.406
 21
216.726
  0
LINE
  8
0
 10
-284.406
 20
216.726
 11
-284.172
 21
216.655
  0
LINE
  8
0
 10
-284.172
 20
216.655
 11
-283.956
 21
216.539
  0
LINE
  8
0
 10
-283.956
 20
216.539
 11
-283.766
 21
216.384
  0
LINE
  8
0
 10
-283.766
 20
216.384
 11
-283.611
 21
216.194
  0
LINE
  8
0
 10
-283.611
 20
216.194
 11
-283.495
 21
215.978
  0
LINE
  8
0
 10
-283.495
 20
215.978
 11
-283.424
 21
215.744
  0
LINE
  8
0
 10
-283.424
 20
215.744
 11
-283.4
 21
215.5
  0
LINE
  8
0
 10
-283.4
 20
215.5
 11
-283.424
 21
215.256
  0
LINE
  8
0
 10
-283.424
 20
215.256
 11
-283.495
 21
215.022
  0
LINE
  8
0
 10
-283.495
 20
215.022
 11
-283.611
 21
214.806
  0
LINE
  8
0
 10
-283.611
 20
214.806
 11
-283.766
 21
214.616
  0
LINE
  8
0
 10
-283.766
 20
214.616
 11
-283.956
 21
214.461
  0
LINE
  8
0
 10
-283.956
 20
214.461
 11
-284.172
 21
214.345
  0
LINE
  8
0
 10
-284.172
 20
214.345
 11
-284.406
 21
214.274
  0
LINE
  8
0
 10
-284.406
 20
214.274
 11
-284.65
 21
214.25
  0
LINE
  8
0
 10
-284.65
 20
214.25
 11
-284.894
 21
214.274
  0
LINE
  8
0
 10
237.191
 20
205.828
 11
236.951
 21
205.891
  0
LINE
  8
0
 10
236.951
 20
205.891
 11
236.723
 21
205.988
  0
LINE
  8
0
 10
236.723
 20
205.988
 11
236.511
 21
206.117
  0
LINE
  8
0
 10
236.511
 20
206.117
 11
236.32
 21
206.276
  0
LINE
  8
0
 10
236.32
 20
206.276
 11
236.154
 21
206.461
  0
LINE
  8
0
 10
236.154
 20
206.461
 11
236.018
 21
206.668
  0
LINE
  8
0
 10
236.018
 20
206.668
 11
235.912
 21
206.893
  0
LINE
  8
0
 10
235.912
 20
206.893
 11
235.841
 21
207.13
  0
LINE
  8
0
 10
235.841
 20
207.13
 11
235.805
 21
207.376
  0
LINE
  8
0
 10
235.805
 20
207.376
 11
235.805
 21
207.624
  0
LINE
  8
0
 10
235.805
 20
207.624
 11
235.841
 21
207.87
  0
LINE
  8
0
 10
235.841
 20
207.87
 11
235.912
 21
208.107
  0
LINE
  8
0
 10
235.912
 20
208.107
 11
236.018
 21
208.332
  0
LINE
  8
0
 10
236.018
 20
208.332
 11
236.154
 21
208.539
  0
LINE
  8
0
 10
236.154
 20
208.539
 11
236.32
 21
208.724
  0
LINE
  8
0
 10
236.32
 20
208.724
 11
236.511
 21
208.883
  0
LINE
  8
0
 10
236.511
 20
208.883
 11
236.723
 21
209.012
  0
LINE
  8
0
 10
236.723
 20
209.012
 11
236.951
 21
209.109
  0
LINE
  8
0
 10
236.951
 20
209.109
 11
237.191
 21
209.172
  0
LINE
  8
0
 10
237.191
 20
209.172
 11
237.438
 21
209.199
  0
LINE
  8
0
 10
237.438
 20
209.199
 11
237.686
 21
209.19
  0
LINE
  8
0
 10
237.686
 20
209.19
 11
237.93
 21
209.145
  0
LINE
  8
0
 10
237.93
 20
209.145
 11
238.165
 21
209.065
  0
LINE
  8
0
 10
238.165
 20
209.065
 11
238.386
 21
208.951
  0
LINE
  8
0
 10
238.386
 20
208.951
 11
238.587
 21
208.807
  0
LINE
  8
0
 10
238.587
 20
208.807
 11
238.766
 21
208.634
  0
LINE
  8
0
 10
238.766
 20
208.634
 11
238.918
 21
208.438
  0
LINE
  8
0
 10
238.918
 20
208.438
 11
239.039
 21
208.222
  0
LINE
  8
0
 10
239.039
 20
208.222
 11
239.128
 21
207.99
  0
LINE
  8
0
 10
239.128
 20
207.99
 11
239.182
 21
207.748
  0
LINE
  8
0
 10
239.182
 20
207.748
 11
239.2
 21
207.5
  0
LINE
  8
0
 10
239.2
 20
207.5
 11
239.182
 21
207.252
  0
LINE
  8
0
 10
239.182
 20
207.252
 11
239.128
 21
207.01
  0
LINE
  8
0
 10
239.128
 20
207.01
 11
239.039
 21
206.778
  0
LINE
  8
0
 10
239.039
 20
206.778
 11
238.918
 21
206.562
  0
LINE
  8
0
 10
238.918
 20
206.562
 11
238.766
 21
206.366
  0
LINE
  8
0
 10
238.766
 20
206.366
 11
238.587
 21
206.193
  0
LINE
  8
0
 10
238.587
 20
206.193
 11
238.386
 21
206.049
  0
LINE
  8
0
 10
238.386
 20
206.049
 11
238.165
 21
205.935
  0
LINE
  8
0
 10
238.165
 20
205.935
 11
237.93
 21
205.855
  0
LINE
  8
0
 10
237.93
 20
205.855
 11
237.686
 21
205.81
  0
LINE
  8
0
 10
237.686
 20
205.81
 11
237.438
 21
205.801
  0
LINE
  8
0
 10
237.438
 20
205.801
 11
237.191
 21
205.828
  0
LINE
  8
0
 10
-237.686
 20
205.81
 11
-237.93
 21
205.855
  0
LINE
  8
0
 10
-237.93
 20
205.855
 11
-238.165
 21
205.935
  0
LINE
  8
0
 10
-238.165
 20
205.935
 11
-238.386
 21
206.049
  0
LINE
  8
0
 10
-238.386
 20
206.049
 11
-238.587
 21
206.193
  0
LINE
  8
0
 10
-238.587
 20
206.193
 11
-238.766
 21
206.366
  0
LINE
  8
0
 10
-238.766
 20
206.366
 11
-238.918
 21
206.562
  0
LINE
  8
0
 10
-238.918
 20
206.562
 11
-239.039
 21
206.778
  0
LINE
  8
0
 10
-239.039
 20
206.778
 11
-239.128
 21
207.01
  0
LINE
  8
0
 10
-239.128
 20
207.01
 11
-239.182
 21
207.252
  0
LINE
  8
0
 10
-239.182
 20
207.252
 11
-239.2
 21
207.5
  0
LINE
  8
0
 10
-239.2
 20
207.5
 11
-239.182
 21
207.748
  0
LINE
  8
0
 10
-239.182
 20
207.748
 11
-239.128
 21
207.99
  0
LINE
  8
0
 10
-239.128
 20
207.99
 11
-239.039
 21
208.222
  0
LINE
  8
0
 10
-239.039
 20
208.222
 11
-238.918
 21
208.438
  0
LINE
  8
0
 10
-238.918
 20
208.438
 11
-238.766
 21
208.634
  0
LINE
  8
0
 10
-238.766
 20
208.634
 11
-238.587
 21
208.807
  0
LINE
  8
0
 10
-238.587
 20
208.807
 11
-238.386
 21
208.951
  0
LINE
  8
0
 10
-238.386
 20
208.951
 11
-238.165
 21
209.065
  0
LINE
  8
0
 10
-238.165
 20
209.065
 11
-237.93
 21
209.145
  0
LINE
  8
0
 10
-237.93
 20
209.145
 11
-237.686
 21
209.19
  0
LINE
  8
0
 10
-237.686
 20
209.19
 11
-237.438
 21
209.199
  0
LINE
  8
0
 10
-237.438
 20
209.199
 11
-237.191
 21
209.172
  0
LINE
  8
0
 10
-237.191
 20
209.172
 11
-236.951
 21
209.109
  0
LINE
  8
0
 10
-236.951
 20
209.109
 11
-236.723
 21
209.012
  0
LINE
  8
0
 10
-236.723
 20
209.012
 11
-236.511
 21
208.883
  0
LINE
  8
0
 10
-236.511
 20
208.883
 11
-236.32
 21
208.724
  0
LINE
  8
0
 10
-236.32
 20
208.724
 11
-236.154
 21
208.539
  0
LINE
  8
0
 10
-236.154
 20
208.539
 11
-236.018
 21
208.332
  0
LINE
  8
0
 10
-236.018
 20
208.332
 11
-235.912
 21
208.107
  0
LINE
  8
0
 10
-235.912
 20
208.107
 11
-235.841
 21
207.87
  0
LINE
  8
0
 10
-235.841
 20
207.87
 11
-235.805
 21
207.624
  0
LINE
  8
0
 10
-235.805
 20
207.624
 11
-235.805
 21
207.376
  0
LINE
  8
0
 10
-235.805
 20
207.376
 11
-235.841
 21
207.13
  0
LINE
  8
0
 10
-235.841
 20
207.13
 11
-235.912
 21
206.893
  0
LINE
  8
0
 10
-235.912
 20
206.893
 11
-236.018
 21
206.668
  0
LINE
  8
0
 10
-236.018
 20
206.668
 11
-236.154
 21
206.461
  0
LINE
  8
0
 10
-236.154
 20
206.461
 11
-236.32
 21
206.276
  0
LINE
  8
0
 10
-236.32
 20
206.276
 11
-236.511
 21
206.117
  0
LINE
  8
0
 10
-236.511
 20
206.117
 11
-236.723
 21
205.988
  0
LINE
  8
0
 10
-236.723
 20
205.988
 11
-236.951
 21
205.891
  0
LINE
  8
0
 10
-236.951
 20
205.891
 11
-237.191
 21
205.828
  0
LINE
  8
0
 10
-237.191
 20
205.828
 11
-237.438
 21
205.801
  0
LINE
  8
0
 10
-237.438
 20
205.801
 11
-237.686
 21
205.81
  0
LINE
  8
0
 10
-264.744
 20
203.274
 11
-264.978
 21
203.345
  0
LINE
  8
0
 10
-264.978
 20
203.345
 11
-265.194
 21
203.461
  0
LINE
  8
0
 10
-265.194
 20
203.461
 11
-265.384
 21
203.616
  0
LINE
  8
0
 10
-265.384
 20
203.616
 11
-265.539
 21
203.806
  0
LINE
  8
0
 10
-265.539
 20
203.806
 11
-265.655
 21
204.022
  0
LINE
  8
0
 10
-265.655
 20
204.022
 11
-265.726
 21
204.256
  0
LINE
  8
0
 10
-265.726
 20
204.256
 11
-265.75
 21
204.5
  0
LINE
  8
0
 10
-265.75
 20
204.5
 11
-265.726
 21
204.744
  0
LINE
  8
0
 10
-265.726
 20
204.744
 11
-265.655
 21
204.978
  0
LINE
  8
0
 10
-265.655
 20
204.978
 11
-265.539
 21
205.194
  0
LINE
  8
0
 10
-265.539
 20
205.194
 11
-265.384
 21
205.384
  0
LINE
  8
0
 10
-265.384
 20
205.384
 11
-265.194
 21
205.539
  0
LINE
  8
0
 10
-265.194
 20
205.539
 11
-264.978
 21
205.655
  0
LINE
  8
0
 10
-264.978
 20
205.655
 11
-264.744
 21
205.726
  0
LINE
  8
0
 10
-264.744
 20
205.726
 11
-264.5
 21
205.75
  0
LINE
  8
0
 10
-264.5
 20
205.75
 11
-264.256
 21
205.726
  0
LINE
  8
0
 10
-264.256
 20
205.726
 11
-264.022
 21
205.655
  0
LINE
  8
0
 10
-264.022
 20
205.655
 11
-263.806
 21
205.539
  0
LINE
  8
0
 10
-263.806
 20
205.539
 11
-263.616
 21
205.384
  0
LINE
  8
0
 10
-263.616
 20
205.384
 11
-263.461
 21
205.194
  0
LINE
  8
0
 10
-263.461
 20
205.194
 11
-263.345
 21
204.978
  0
LINE
  8
0
 10
-263.345
 20
204.978
 11
-263.274
 21
204.744
  0
LINE
  8
0
 10
-263.274
 20
204.744
 11
-263.25
 21
204.5
  0
LINE
  8
0
 10
-263.25
 20
204.5
 11
-263.274
 21
204.256
  0
LINE
  8
0
 10
-263.274
 20
204.256
 11
-263.345
 21
204.022
  0
LINE
  8
0
 10
-263.345
 20
204.022
 11
-263.461
 21
203.806
  0
LINE
  8
0
 10
-263.461
 20
203.806
 11
-263.616
 21
203.616
  0
LINE
  8
0
 10
-263.616
 20
203.616
 11
-263.806
 21
203.461
  0
LINE
  8
0
 10
-263.806
 20
203.461
 11
-264.022
 21
203.345
  0
LINE
  8
0
 10
-264.022
 20
203.345
 11
-264.256
 21
203.274
  0
LINE
  8
0
 10
-264.256
 20
203.274
 11
-264.5
 21
203.25
  0
LINE
  8
0
 10
-264.5
 20
203.25
 11
-264.744
 21
203.274
  0
LINE
  8
0
 10
263.027
 20
198.355
 11
262.783
 21
198.391
  0
LINE
  8
0
 10
262.783
 20
198.391
 11
262.547
 21
198.464
  0
LINE
  8
0
 10
262.547
 20
198.464
 11
262.325
 21
198.571
  0
LINE
  8
0
 10
262.325
 20
198.571
 11
262.121
 21
198.71
  0
LINE
  8
0
 10
262.121
 20
198.71
 11
261.94
 21
198.878
  0
LINE
  8
0
 10
261.94
 20
198.878
 11
261.787
 21
199.071
  0
LINE
  8
0
 10
261.787
 20
199.071
 11
261.663
 21
199.284
  0
LINE
  8
0
 10
261.663
 20
199.284
 11
261.573
 21
199.514
  0
LINE
  8
0
 10
261.573
 20
199.514
 11
261.518
 21
199.754
  0
LINE
  8
0
 10
261.518
 20
199.754
 11
261.5
 21
200
  0
LINE
  8
0
 10
261.5
 20
200
 11
261.518
 21
200.246
  0
LINE
  8
0
 10
261.518
 20
200.246
 11
261.573
 21
200.486
  0
LINE
  8
0
 10
261.573
 20
200.486
 11
261.663
 21
200.716
  0
LINE
  8
0
 10
261.663
 20
200.716
 11
261.787
 21
200.929
  0
LINE
  8
0
 10
261.787
 20
200.929
 11
261.94
 21
201.122
  0
LINE
  8
0
 10
261.94
 20
201.122
 11
262.121
 21
201.29
  0
LINE
  8
0
 10
262.121
 20
201.29
 11
262.325
 21
201.429
  0
LINE
  8
0
 10
262.325
 20
201.429
 11
262.547
 21
201.536
  0
LINE
  8
0
 10
262.547
 20
201.536
 11
262.783
 21
201.609
  0
LINE
  8
0
 10
262.783
 20
201.609
 11
263.027
 21
201.645
  0
LINE
  8
0
 10
263.027
 20
201.645
 11
271.273
 21
201.645
  0
LINE
  8
0
 10
271.273
 20
201.645
 11
271.517
 21
201.609
  0
LINE
  8
0
 10
271.517
 20
201.609
 11
271.753
 21
201.536
  0
LINE
  8
0
 10
271.753
 20
201.536
 11
271.975
 21
201.429
  0
LINE
  8
0
 10
271.975
 20
201.429
 11
272.179
 21
201.29
  0
LINE
  8
0
 10
272.179
 20
201.29
 11
272.36
 21
201.122
  0
LINE
  8
0
 10
272.36
 20
201.122
 11
272.513
 21
200.929
  0
LINE
  8
0
 10
272.513
 20
200.929
 11
272.637
 21
200.716
  0
LINE
  8
0
 10
272.637
 20
200.716
 11
272.727
 21
200.486
  0
LINE
  8
0
 10
272.727
 20
200.486
 11
272.782
 21
200.246
  0
LINE
  8
0
 10
272.782
 20
200.246
 11
272.8
 21
200
  0
LINE
  8
0
 10
272.8
 20
200
 11
272.782
 21
199.754
  0
LINE
  8
0
 10
272.782
 20
199.754
 11
272.727
 21
199.514
  0
LINE
  8
0
 10
272.727
 20
199.514
 11
272.637
 21
199.284
  0
LINE
  8
0
 10
272.637
 20
199.284
 11
272.513
 21
199.071
  0
LINE
  8
0
 10
272.513
 20
199.071
 11
272.36
 21
198.878
  0
LINE
  8
0
 10
272.36
 20
198.878
 11
272.179
 21
198.71
  0
LINE
  8
0
 10
272.179
 20
198.71
 11
271.975
 21
198.571
  0
LINE
  8
0
 10
271.975
 20
198.571
 11
271.753
 21
198.464
  0
LINE
  8
0
 10
271.753
 20
198.464
 11
271.517
 21
198.391
  0
LINE
  8
0
 10
271.517
 20
198.391
 11
271.273
 21
198.355
  0
LINE
  8
0
 10
271.273
 20
198.355
 11
263.027
 21
198.355
  0
LINE
  8
0
 10
294.027
 20
198.355
 11
293.783
 21
198.391
  0
LINE
  8
0
 10
293.783
 20
198.391
 11
293.547
 21
198.464
  0
LINE
  8
0
 10
293.547
 20
198.464
 11
293.325
 21
198.571
  0
LINE
  8
0
 10
293.325
 20
198.571
 11
293.121
 21
198.71
  0
LINE
  8
0
 10
293.121
 20
198.71
 11
292.94
 21
198.878
  0
LINE
  8
0
 10
292.94
 20
198.878
 11
292.787
 21
199.071
  0
LINE
  8
0
 10
292.787
 20
199.071
 11
292.663
 21
199.284
  0
LINE
  8
0
 10
292.663
 20
199.284
 11
292.573
 21
199.514
  0
LINE
  8
0
 10
292.573
 20
199.514
 11
292.518
 21
199.754
  0
LINE
  8
0
 10
292.518
 20
199.754
 11
292.5
 21
200
  0
LINE
  8
0
 10
292.5
 20
200
 11
292.518
 21
200.246
  0
LINE
  8
0
 10
292.518
 20
200.246
 11
292.573
 21
200.486
  0
LINE
  8
0
 10
292.573
 20
200.486
 11
292.663
 21
200.716
  0
LINE
  8
0
 10
292.663
 20
200.716
 11
292.787
 21
200.929
  0
LINE
  8
0
 10
292.787
 20
200.929
 11
292.94
 21
201.122
  0
LINE
  8
0
 10
292.94
 20
201.122
 11
293.121
 21
201.29
  0
LINE
  8
0
 10
293.121
 20
201.29
 11
293.325
 21
201.429
  0
LINE
  8
0
 10
293.325
 20
201.429
 11
293.547
 21
201.536
  0
LINE
  8
0
 10
293.547
 20
201.536
 11
293.783
 21
201.609
  0
LINE
  8
0
 10
293.783
 20
201.609
 11
294.027
 21
201.645
  0
LINE
  8
0
 10
294.027
 20
201.645
 11
302.273
 21
201.645
  0
LINE
  8
0
 10
302.273
 20
201.645
 11
302.517
 21
201.609
  0
LINE
  8
0
 10
302.517
 20
201.609
 11
302.753
 21
201.536
  0
LINE
  8
0
 10
302.753
 20
201.536
 11
302.975
 21
201.429
  0
LINE
  8
0
 10
302.975
 20
201.429
 11
303.179
 21
201.29
  0
LINE
  8
0
 10
303.179
 20
201.29
 11
303.36
 21
201.122
  0
LINE
  8
0
 10
303.36
 20
201.122
 11
303.513
 21
200.929
  0
LINE
  8
0
 10
303.513
 20
200.929
 11
303.637
 21
200.716
  0
LINE
  8
0
 10
303.637
 20
200.716
 11
303.727
 21
200.486
  0
LINE
  8
0
 10
303.727
 20
200.486
 11
303.782
 21
200.246
  0
LINE
  8
0
 10
303.782
 20
200.246
 11
303.8
 21
200
  0
LINE
  8
0
 10
303.8
 20
200
 11
303.782
 21
199.754
  0
LINE
  8
0
 10
303.782
 20
199.754
 11
303.727
 21
199.514
  0
LINE
  8
0
 10
303.727
 20
199.514
 11
303.637
 21
199.284
  0
LINE
  8
0
 10
303.637
 20
199.284
 11
303.513
 21
199.071
  0
LINE
  8
0
 10
303.513
 20
199.071
 11
303.36
 21
198.878
  0
LINE
  8
0
 10
303.36
 20
198.878
 11
303.179
 21
198.71
  0
LINE
  8
0
 10
303.179
 20
198.71
 11
302.975
 21
198.571
  0
LINE
  8
0
 10
302.975
 20
198.571
 11
302.753
 21
198.464
  0
LINE
  8
0
 10
302.753
 20
198.464
 11
302.517
 21
198.391
  0
LINE
  8
0
 10
302.517
 20
198.391
 11
302.273
 21
198.355
  0
LINE
  8
0
 10
302.273
 20
198.355
 11
294.027
 21
198.355
  0
LINE
  8
0
 10
-237.749
 20
68.2678
 11
-237.993
 21
68.3209
  0
LINE
  8
0
 10
-237.993
 20
68.3209
 11
-238.227
 21
68.4081
  0
LINE
  8
0
 10
-238.227
 20
68.4081
 11
-238.446
 21
68.5278
  0
LINE
  8
0
 10
-238.446
 20
68.5278
 11
-238.646
 21
68.6774
  0
LINE
  8
0
 10
-238.646
 20
68.6774
 11
-238.823
 21
68.854
  0
LINE
  8
0
 10
-238.823
 20
68.854
 11
-238.972
 21
69.0539
  0
LINE
  8
0
 10
-238.972
 20
69.0539
 11
-239.092
 21
69.273
  0
LINE
  8
0
 10
-239.092
 20
69.273
 11
-239.179
 21
69.507
  0
LINE
  8
0
 10
-239.179
 20
69.507
 11
-239.232
 21
69.7509
  0
LINE
  8
0
 10
-239.232
 20
69.7509
 11
-239.25
 21
70
  0
LINE
  8
0
 10
-239.25
 20
70
 11
-239.25
 21
185
  0
LINE
  8
0
 10
-239.25
 20
185
 11
-239.232
 21
185.249
  0
LINE
  8
0
 10
-239.232
 20
185.249
 11
-239.179
 21
185.493
  0
LINE
  8
0
 10
-239.179
 20
185.493
 11
-239.092
 21
185.727
  0
LINE
  8
0
 10
-239.092
 20
185.727
 11
-238.972
 21
185.946
  0
LINE
  8
0
 10
-238.972
 20
185.946
 11
-238.823
 21
186.146
  0
LINE
  8
0
 10
-238.823
 20
186.146
 11
-238.646
 21
186.323
  0
LINE
  8
0
 10
-238.646
 20
186.323
 11
-238.446
 21
186.472
  0
LINE
  8
0
 10
-238.446
 20
186.472
 11
-238.227
 21
186.592
  0
LINE
  8
0
 10
-238.227
 20
186.592
 11
-237.993
 21
186.679
  0
LINE
  8
0
 10
-237.993
 20
186.679
 11
-237.749
 21
186.732
  0
LINE
  8
0
 10
-237.749
 20
186.732
 11
-237.5
 21
186.75
  0
LINE
  8
0
 10
-237.5
 20
186.75
 11
-237.251
 21
186.732
  0
LINE
  8
0
 10
-237.251
 20
186.732
 11
-237.007
 21
186.679
  0
LINE
  8
0
 10
-237.007
 20
186.679
 11
-236.773
 21
186.592
  0
LINE
  8
0
 10
-236.773
 20
186.592
 11
-236.554
 21
186.472
  0
LINE
  8
0
 10
-236.554
 20
186.472
 11
-236.354
 21
186.323
  0
LINE
  8
0
 10
-236.354
 20
186.323
 11
-236.177
 21
186.146
  0
LINE
  8
0
 10
-236.177
 20
186.146
 11
-236.028
 21
185.946
  0
LINE
  8
0
 10
-236.028
 20
185.946
 11
-235.908
 21
185.727
  0
LINE
  8
0
 10
-235.908
 20
185.727
 11
-235.821
 21
185.493
  0
LINE
  8
0
 10
-235.821
 20
185.493
 11
-235.768
 21
185.249
  0
LINE
  8
0
 10
-235.768
 20
185.249
 11
-235.75
 21
185
  0
LINE
  8
0
 10
-235.75
 20
185
 11
-235.75
 21
70
  0
LINE
  8
0
 10
-235.75
 20
70
 11
-235.768
 21
69.7509
  0
LINE
  8
0
 10
-235.768
 20
69.7509
 11
-235.821
 21
69.507
  0
LINE
  8
0
 10
-235.821
 20
69.507
 11
-235.908
 21
69.273
  0
LINE
  8
0
 10
-235.908
 20
69.273
 11
-236.028
 21
69.0539
  0
LINE
  8
0
 10
-236.028
 20
69.0539
 11
-236.177
 21
68.854
  0
LINE
  8
0
 10
-236.177
 20
68.854
 11
-236.354
 21
68.6774
  0
LINE
  8
0
 10
-236.354
 20
68.6774
 11
-236.554
 21
68.5278
  0
LINE
  8
0
 10
-236.554
 20
68.5278
 11
-236.773
 21
68.4081
  0
LINE
  8
0
 10
-236.773
 20
68.4081
 11
-237.007
 21
68.3209
  0
LINE
  8
0
 10
-237.007
 20
68.3209
 11
-237.251
 21
68.2678
  0
LINE
  8
0
 10
-237.251
 20
68.2678
 11
-237.5
 21
68.25
  0
LINE
  8
0
 10
-237.5
 20
68.25
 11
-237.749
 21
68.2678
  0
LINE
  8
0
 10
237.251
 20
68.2678
 11
237.007
 21
68.3209
  0
LINE
  8
0
 10
237.007
 20
68.3209
 11
236.773
 21
68.4081
  0
LINE
  8
0
 10
236.773
 20
68.4081
 11
236.554
 21
68.5278
  0
LINE
  8
0
 10
236.554
 20
68.5278
 11
236.354
 21
68.6774
  0
LINE
  8
0
 10
236.354
 20
68.6774
 11
236.177
 21
68.854
  0
LINE
  8
0
 10
236.177
 20
68.854
 11
236.028
 21
69.0539
  0
LINE
  8
0
 10
236.028
 20
69.0539
 11
235.908
 21
69.273
  0
LINE
  8
0
 10
235.908
 20
69.273
 11
235.821
 21
69.507
  0
LINE
  8
0
 10
235.821
 20
69.507
 11
235.768
 21
69.7509
  0
LINE
  8
0
 10
235.768
 20
69.7509
 11
235.75
 21
70
  0
LINE
  8
0
 10
235.75
 20
70
 11
235.75
 21
185
  0
LINE
  8
0
 10
235.75
 20
185
 11
235.768
 21
185.249
  0
LINE
  8
0
 10
235.768
 20
185.249
 11
235.821
 21
185.493
  0
LINE
  8
0
 10
235.821
 20
185.493
 11
235.908
 21
185.727
  0
LINE
  8
0
 10
235.908
 20
185.727
 11
236.028
 21
185.946
  0
LINE
  8
0
 10
236.028
 20
185.946
 11
236.177
 21
186.146
  0
LINE
  8
0
 10
236.177
 20
186.146
 11
236.354
 21
186.323
  0
LINE
  8
0
 10
236.354
 20
186.323
 11
236.554
 21
186.472
  0
LINE
  8
0
 10
236.554
 20
186.472
 11
236.773
 21
186.592
  0
LINE
  8
0
 10
236.773
 20
186.592
 11
237.007
 21
186.679
  0
LINE
  8
0
 10
237.007
 20
186.679
 11
237.251
 21
186.732
  0
LINE
  8
0
 10
237.251
 20
186.732
 11
237.5
 21
186.75
  0
LINE
  8
0
 10
237.5
 20
186.75
 11
237.749
 21
186.732
  0
LINE
  8
0
 10
237.749
 20
186.732
 11
237.993
 21
186.679
  0
LINE
  8
0
 10
237.993
 20
186.679
 11
238.227
 21
186.592
  0
LINE
  8
0
 10
238.227
 20
186.592
 11
238.446
 21
186.472
  0
LINE
  8
0
 10
238.446
 20
186.472
 11
238.646
 21
186.323
  0
LINE
  8
0
 10
238.646
 20
186.323
 11
238.823
 21
186.146
  0
LINE
  8
0
 10
238.823
 20
186.146
 11
238.972
 21
185.946
  0
LINE
  8
0
 10
238.972
 20
185.946
 11
239.092
 21
185.727
  0
LINE
  8
0
 10
239.092
 20
185.727
 11
239.179
 21
185.493
  0
LINE
  8
0
 10
239.179
 20
185.493
 11
239.232
 21
185.249
  0
LINE
  8
0
 10
239.232
 20
185.249
 11
239.25
 21
185
  0
LINE
  8
0
 10
239.25
 20
185
 11
239.25
 21
70
  0
LINE
  8
0
 10
239.25
 20
70
 11
239.232
 21
69.7509
  0
LINE
  8
0
 10
239.232
 20
69.7509
 11
239.179
 21
69.507
  0
LINE
  8
0
 10
239.179
 20
69.507
 11
239.092
 21
69.273
  0
LINE
  8
0
 10
239.092
 20
69.273
 11
238.972
 21
69.0539
  0
LINE
  8
0
 10
238.972
 20
69.0539
 11
238.823
 21
68.854
  0
LINE
  8
0
 10
238.823
 20
68.854
 11
238.646
 21
68.6774
  0
LINE
  8
0
 10
238.646
 20
68.6774
 11
238.446
 21
68.5278
  0
LINE
  8
0
 10
238.446
 20
68.5278
 11
238.227
 21
68.4081
  0
LINE
  8
0
 10
238.227
 20
68.4081
 11
237.993
 21
68.3209
  0
LINE
  8
0
 10
237.993
 20
68.3209
 11
237.749
 21
68.2678
  0
LINE
  8
0
 10
237.749
 20
68.2678
 11
237.5
 21
68.25
  0
LINE
  8
0
 10
237.5
 20
68.25
 11
237.251
 21
68.2678
  0
LINE
  8
0
 10
-295.305
 20
66.0825
 11
-295.541
 21
66.1546
  0
LINE
  8
0
 10
-295.541
 20
66.1546
 11
-295.76
 21
66.2653
  0
LINE
  8
0
 10
-295.76
 20
66.2653
 11
-295.958
 21
66.4115
  0
LINE
  8
0
 10
-295.958
 20
66.4115
 11
-296.128
 21
66.5891
  0
LINE
  8
0
 10
-296.128
 20
66.5891
 11
-296.266
 21
66.7928
  0
LINE
  8
0
 10
-296.266
 20
66.7928
 11
-296.367
 21
67.0169
  0
LINE
  8
0
 10
-296.367
 20
67.0169
 11
-296.429
 21
67.2549
  0
LINE
  8
0
 10
-296.429
 20
67.2549
 11
-296.45
 21
67.5
  0
LINE
  8
0
 10
-296.45
 20
67.5
 11
-296.429
 21
67.745
  0
LINE
  8
0
 10
-296.429
 20
67.745
 11
-296.367
 21
67.983
  0
LINE
  8
0
 10
-296.367
 20
67.983
 11
-296.266
 21
68.2072
  0
LINE
  8
0
 10
-296.266
 20
68.2072
 11
-296.128
 21
68.4109
  0
LINE
  8
0
 10
-296.128
 20
68.4109
 11
-295.958
 21
68.5885
  0
LINE
  8
0
 10
-295.958
 20
68.5885
 11
-295.76
 21
68.7347
  0
LINE
  8
0
 10
-295.76
 20
68.7347
 11
-295.541
 21
68.8454
  0
LINE
  8
0
 10
-295.541
 20
68.8454
 11
-295.305
 21
68.9174
  0
LINE
  8
0
 10
-295.305
 20
68.9174
 11
-295.062
 21
68.9487
  0
LINE
  8
0
 10
-295.062
 20
68.9487
 11
-294.816
 21
68.9382
  0
LINE
  8
0
 10
-294.816
 20
68.9382
 11
-294.575
 21
68.8864
  0
LINE
  8
0
 10
-294.575
 20
68.8864
 11
-294.347
 21
68.7947
  0
LINE
  8
0
 10
-294.347
 20
68.7947
 11
-294.138
 21
68.6658
  0
LINE
  8
0
 10
-294.138
 20
68.6658
 11
-293.953
 21
68.5033
  0
LINE
  8
0
 10
-293.953
 20
68.5033
 11
-293.799
 21
68.312
  0
LINE
  8
0
 10
-293.799
 20
68.312
 11
-293.679
 21
68.0973
  0
LINE
  8
0
 10
-293.679
 20
68.0973
 11
-293.597
 21
67.8654
  0
LINE
  8
0
 10
-293.597
 20
67.8654
 11
-293.555
 21
67.623
  0
LINE
  8
0
 10
-293.555
 20
67.623
 11
-293.555
 21
67.377
  0
LINE
  8
0
 10
-293.555
 20
67.377
 11
-293.597
 21
67.1346
  0
LINE
  8
0
 10
-293.597
 20
67.1346
 11
-293.679
 21
66.9027
  0
LINE
  8
0
 10
-293.679
 20
66.9027
 11
-293.799
 21
66.688
  0
LINE
  8
0
 10
-293.799
 20
66.688
 11
-293.953
 21
66.4967
  0
LINE
  8
0
 10
-293.953
 20
66.4967
 11
-294.138
 21
66.3342
  0
LINE
  8
0
 10
-294.138
 20
66.3342
 11
-294.347
 21
66.2053
  0
LINE
  8
0
 10
-294.347
 20
66.2053
 11
-294.575
 21
66.1136
  0
LINE
  8
0
 10
-294.575
 20
66.1136
 11
-294.816
 21
66.0617
  0
LINE
  8
0
 10
-294.816
 20
66.0617
 11
-295.062
 21
66.0513
  0
LINE
  8
0
 10
-295.062
 20
66.0513
 11
-295.305
 21
66.0825
  0
LINE
  8
0
 10
294.816
 20
66.0617
 11
294.575
 21
66.1136
  0
LINE
  8
0
 10
294.575
 20
66.1136
 11
294.347
 21
66.2053
  0
LINE
  8
0
 10
294.347
 20
66.2053
 11
294.138
 21
66.3342
  0
LINE
  8
0
 10
294.138
 20
66.3342
 11
293.953
 21
66.4967
  0
LINE
  8
0
 10
293.953
 20
66.4967
 11
293.799
 21
66.688
  0
LINE
  8
0
 10
293.799
 20
66.688
 11
293.679
 21
66.9027
  0
LINE
  8
0
 10
293.679
 20
66.9027
 11
293.597
 21
67.1346
  0
LINE
  8
0
 10
293.597
 20
67.1346
 11
293.555
 21
67.377
  0
LINE
  8
0
 10
293.555
 20
67.377
 11
293.555
 21
67.623
  0
LINE
  8
0
 10
293.555
 20
67.623
 11
293.597
 21
67.8654
  0
LINE
  8
0
 10
293.597
 20
67.8654
 11
293.679
 21
68.0973
  0
LINE
  8
0
 10
293.679
 20
68.0973
 11
293.799
 21
68.312
  0
LINE
  8
0
 10
293.799
 20
68.312
 11
293.953
 21
68.5033
  0
LINE
  8
0
 10
293.953
 20
68.5033
 11
294.138
 21
68.6658
  0
LINE
  8
0
 10
294.138
 20
68.6658
 11
294.347
 21
68.7947
  0
LINE
  8
0
 10
294.347
 20
68.7947
 11
294.575
 21
68.8864
  0
LINE
  8
0
 10
294.575
 20
68.8864
 11
294.816
 21
68.9382
  0
LINE
  8
0
 10
294.816
 20
68.9382
 11
295.062
 21
68.9487
  0
LINE
  8
0
 10
295.062
 20
68.9487
 11
295.305
 21
68.9174
  0
LINE
  8
0
 10
295.305
 20
68.9174
 11
295.541
 21
68.8454
  0
LINE
  8
0
 10
295.541
 20
68.8454
 11
295.76
 21
68.7347
  0
LINE
  8
0
 10
295.76
 20
68.7347
 11
295.958
 21
68.5885
  0
LINE
  8
0
 10
295.958
 20
68.5885
 11
296.128
 21
68.4109
  0
LINE
  8
0
 10
296.128
 20
68.4109
 11
296.266
 21
68.2072
  0
LINE
  8
0
 10
296.266
 20
68.2072
 11
296.367
 21
67.983
  0
LINE
  8
0
 10
296.367
 20
67.983
 11
296.429
 21
67.745
  0
LINE
  8
0
 10
296.429
 20
67.745
 11
296.45
 21
67.5
  0
LINE
  8
0
 10
296.45
 20
67.5
 11
296.429
 21
67.2549
  0
LINE
  8
0
 10
296.429
 20
67.2549
 11
296.367
 21
67.0169
  0
LINE
  8
0
 10
296.367
 20
67.0169
 11
296.266
 21
66.7928
  0
LINE
  8
0
 10
296.266
 20
66.7928
 11
296.128
 21
66.5891
  0
LINE
  8
0
 10
296.128
 20
66.5891
 11
295.958
 21
66.4115
  0
LINE
  8
0
 10
295.958
 20
66.4115
 11
295.76
 21
66.2653
  0
LINE
  8
0
 10
295.76
 20
66.2653
 11
295.541
 21
66.1546
  0
LINE
  8
0
 10
295.541
 20
66.1546
 11
295.305
 21
66.0825
  0
LINE
  8
0
 10
295.305
 20
66.0825
 11
295.062
 21
66.0513
  0
LINE
  8
0
 10
295.062
 20
66.0513
 11
294.816
 21
66.0617
  0
LINE
  8
0
 10
-237.749
 20
-56.7322
 11
-237.993
 21
-56.6791
  0
LINE
  8
0
 10
-237.993
 20
-56.6791
 11
-238.227
 21
-56.5918
  0
LINE
  8
0
 10
-238.227
 20
-56.5918
 11
-238.446
 21
-56.4722
  0
LINE
  8
0
 10
-238.446
 20
-56.4722
 11
-238.646
 21
-56.3226
  0
LINE
  8
0
 10
-238.646
 20
-56.3226
 11
-238.823
 21
-56.146
  0
LINE
  8
0
 10
-238.823
 20
-56.146
 11
-238.972
 21
-55.9461
  0
LINE
  8
0
 10
-238.972
 20
-55.9461
 11
-239.092
 21
-55.727
  0
LINE
  8
0
 10
-239.092
 20
-55.727
 11
-239.179
 21
-55.493
  0
LINE
  8
0
 10
-239.179
 20
-55.493
 11
-239.232
 21
-55.249
  0
LINE
  8
0
 10
-239.232
 20
-55.249
 11
-239.25
 21
-55
  0
LINE
  8
0
 10
-239.25
 20
-55
 11
-239.25
 21
60
  0
LINE
  8
0
 10
-239.25
 20
60
 11
-239.232
 21
60.249
  0
LINE
  8
0
 10
-239.232
 20
60.249
 11
-239.179
 21
60.493
  0
LINE
  8
0
 10
-239.179
 20
60.493
 11
-239.092
 21
60.727
  0
LINE
  8
0
 10
-239.092
 20
60.727
 11
-238.972
 21
60.9461
  0
LINE
  8
0
 10
-238.972
 20
60.9461
 11
-238.823
 21
61.146
  0
LINE
  8
0
 10
-238.823
 20
61.146
 11
-238.646
 21
61.3226
  0
LINE
  8
0
 10
-238.646
 20
61.3226
 11
-238.446
 21
61.4722
  0
LINE
  8
0
 10
-238.446
 20
61.4722
 11
-238.227
 21
61.5918
  0
LINE
  8
0
 10
-238.227
 20
61.5918
 11
-237.993
 21
61.6791
  0
LINE
  8
0
 10
-237.993
 20
61.6791
 11
-237.749
 21
61.7322
  0
LINE
  8
0
 10
-237.749
 20
61.7322
 11
-237.5
 21
61.75
  0
LINE
  8
0
 10
-237.5
 20
61.75
 11
-237.251
 21
61.7322
  0
LINE
  8
0
 10
-237.251
 20
61.7322
 11
-237.007
 21
61.6791
  0
LINE
  8
0
 10
-237.007
 20
61.6791
 11
-236.773
 21
61.5918
  0
LINE
  8
0
 10
-236.773
 20
61.5918
 11
-236.554
 21
61.4722
  0
LINE
  8
0
 10
-236.554
 20
61.4722
 11
-236.354
 21
61.3226
  0
LINE
  8
0
 10
-236.354
 20
61.3226
 11
-236.177
 21
61.146
  0
LINE
  8
0
 10
-236.177
 20
61.146
 11
-236.028
 21
60.9461
  0
LINE
  8
0
 10
-236.028
 20
60.9461
 11
-235.908
 21
60.727
  0
LINE
  8
0
 10
-235.908
 20
60.727
 11
-235.821
 21
60.493
  0
LINE
  8
0
 10
-235.821
 20
60.493
 11
-235.768
 21
60.249
  0
LINE
  8
0
 10
-235.768
 20
60.249
 11
-235.75
 21
60
  0
LINE
  8
0
 10
-235.75
 20
60
 11
-235.75
 21
-55
  0
LINE
  8
0
 10
-235.75
 20
-55
 11
-235.768
 21
-55.249
  0
LINE
  8
0
 10
-235.768
 20
-55.249
 11
-235.821
 21
-55.493
  0
LINE
  8
0
 10
-235.821
 20
-55.493
 11
-235.908
 21
-55.727
  0
LINE
  8
0
 10
-235.908
 20
-55.727
 11
-236.028
 21
-55.9461
  0
LINE
  8
0
 10
-236.028
 20
-55.9461
 11
-236.177
 21
-56.146
  0
LINE
  8
0
 10
-236.177
 20
-56.146
 11
-236.354
 21
-56.3226
  0
LINE
  8
0
 10
-236.354
 20
-56.3226
 11
-236.554
 21
-56.4722
  0
LINE
  8
0
 10
-236.554
 20
-56.4722
 11
-236.773
 21
-56.5918
  0
LINE
  8
0
 10
-236.773
 20
-56.5918
 11
-237.007
 21
-56.6791
  0
LINE
  8
0
 10
-237.007
 20
-56.6791
 11
-237.251
 21
-56.7322
  0
LINE
  8
0
 10
-237.251
 20
-56.7322
 11
-237.5
 21
-56.75
  0
LINE
  8
0
 10
-237.5
 20
-56.75
 11
-237.749
 21
-56.7322
  0
LINE
  8
0
 10
237.251
 20
-56.7322
 11
237.007
 21
-56.6791
  0
LINE
  8
0
 10
237.007
 20
-56.6791
 11
236.773
 21
-56.5918
  0
LINE
  8
0
 10
236.773
 20
-56.5918
 11
236.554
 21
-56.4722
  0
LINE
  8
0
 10
236.554
 20
-56.4722
 11
236.354
 21
-56.3226
  0
LINE
  8
0
 10
236.354
 20
-56.3226
 11
236.177
 21
-56.146
  0
LINE
  8
0
 10
236.177
 20
-56.146
 11
236.028
 21
-55.9461
  0
LINE
  8
0
 10
236.028
 20
-55.9461
 11
235.908
 21
-55.727
  0
LINE
  8
0
 10
235.908
 20
-55.727
 11
235.821
 21
-55.493
  0
LINE
  8
0
 10
235.821
 20
-55.493
 11
235.768
 21
-55.249
  0
LINE
  8
0
 10
235.768
 20
-55.249
 11
235.75
 21
-55
  0
LINE
  8
0
 10
235.75
 20
-55
 11
235.75
 21
60
  0
LINE
  8
0
 10
235.75
 20
60
 11
235.768
 21
60.249
  0
LINE
  8
0
 10
235.768
 20
60.249
 11
235.821
 21
60.493
  0
LINE
  8
0
 10
235.821
 20
60.493
 11
235.908
 21
60.727
  0
LINE
  8
0
 10
235.908
 20
60.727
 11
236.028
 21
60.9461
  0
LINE
  8
0
 10
236.028
 20
60.9461
 11
236.177
 21
61.146
  0
LINE
  8
0
 10
236.177
 20
61.146
 11
236.354
 21
61.3226
  0
LINE
  8
0
 10
236.354
 20
61.3226
 11
236.554
 21
61.4722
  0
LINE
  8
0
 10
236.554
 20
61.4722
 11
236.773
 21
61.5918
  0
LINE
  8
0
 10
236.773
 20
61.5918
 11
237.007
 21
61.6791
  0
LINE
  8
0
 10
237.007
 20
61.6791
 11
237.251
 21
61.7322
  0
LINE
  8
0
 10
237.251
 20
61.7322
 11
237.5
 21
61.75
  0
LINE
  8
0
 10
237.5
 20
61.75
 11
237.749
 21
61.7322
  0
LINE
  8
0
 10
237.749
 20
61.7322
 11
237.993
 21
61.6791
  0
LINE
  8
0
 10
237.993
 20
61.6791
 11
238.227
 21
61.5918
  0
LINE
  8
0
 10
238.227
 20
61.5918
 11
238.446
 21
61.4722
  0
LINE
  8
0
 10
238.446
 20
61.4722
 11
238.646
 21
61.3226
  0
LINE
  8
0
 10
238.646
 20
61.3226
 11
238.823
 21
61.146
  0
LINE
  8
0
 10
238.823
 20
61.146
 11
238.972
 21
60.9461
  0
LINE
  8
0
 10
238.972
 20
60.9461
 11
239.092
 21
60.727
  0
LINE
  8
0
 10
239.092
 20
60.727
 11
239.179
 21
60.493
  0
LINE
  8
0
 10
239.179
 20
60.493
 11
239.232
 21
60.249
  0
LINE
  8
0
 10
239.232
 20
60.249
 11
239.25
 21
60
  0
LINE
  8
0
 10
239.25
 20
60
 11
239.25
 21
-55
  0
LINE
  8
0
 10
239.25
 20
-55
 11
239.232
 21
-55.249
  0
LINE
  8
0
 10
239.232
 20
-55.249
 11
239.179
 21
-55.493
  0
LINE
  8
0
 10
239.179
 20
-55.493
 11
239.092
 21
-55.727
  0
LINE
  8
0
 10
239.092
 20
-55.727
 11
238.972
 21
-55.9461
  0
LINE
  8
0
 10
238.972
 20
-55.9461
 11
238.823
 21
-56.146
  0
LINE
  8
0
 10
238.823
 20
-56.146
 11
238.646
 21
-56.3226
  0
LINE
  8
0
 10
238.646
 20
-56.3226
 11
238.446
 21
-56.4722
  0
LINE
  8
0
 10
238.446
 20
-56.4722
 11
238.227
 21
-56.5918
  0
LINE
  8
0
 10
238.227
 20
-56.5918
 11
237.993
 21
-56.6791
  0
LINE
  8
0
 10
237.993
 20
-56.6791
 11
237.749
 21
-56.7322
  0
LINE
  8
0
 10
237.749
 20
-56.7322
 11
237.5
 21
-56.75
  0
LINE
  8
0
 10
237.5
 20
-56.75
 11
237.251
 21
-56.7322
  0
LINE
  8
0
 10
294.749
 20
45.1131
 11
294.501
 21
45.1524
  0
LINE
  8
0
 10
294.501
 20
45.1524
 11
294.258
 21
45.2175
  0
LINE
  8
0
 10
294.258
 20
45.2175
 11
294.024
 21
45.3075
  0
LINE
  8
0
 10
294.024
 20
45.3075
 11
293.8
 21
45.4215
  0
LINE
  8
0
 10
293.8
 20
45.4215
 11
293.589
 21
45.5583
  0
LINE
  8
0
 10
293.589
 20
45.5583
 11
293.394
 21
45.7164
  0
LINE
  8
0
 10
293.394
 20
45.7164
 11
293.216
 21
45.8941
  0
LINE
  8
0
 10
293.216
 20
45.8941
 11
293.058
 21
46.0893
  0
LINE
  8
0
 10
293.058
 20
46.0893
 11
292.922
 21
46.3
  0
LINE
  8
0
 10
292.922
 20
46.3
 11
292.807
 21
46.5238
  0
LINE
  8
0
 10
292.807
 20
46.5238
 11
292.717
 21
46.7583
  0
LINE
  8
0
 10
292.717
 20
46.7583
 11
292.652
 21
47.001
  0
LINE
  8
0
 10
292.652
 20
47.001
 11
292.613
 21
47.2491
  0
LINE
  8
0
 10
292.613
 20
47.2491
 11
292.6
 21
47.5
  0
LINE
  8
0
 10
292.6
 20
47.5
 11
292.613
 21
47.7509
  0
LINE
  8
0
 10
292.613
 20
47.7509
 11
292.652
 21
47.999
  0
LINE
  8
0
 10
292.652
 20
47.999
 11
292.717
 21
48.2416
  0
LINE
  8
0
 10
292.717
 20
48.2416
 11
292.807
 21
48.4762
  0
LINE
  8
0
 10
292.807
 20
48.4762
 11
292.922
 21
48.7
  0
LINE
  8
0
 10
292.922
 20
48.7
 11
293.058
 21
48.9107
  0
LINE
  8
0
 10
293.058
 20
48.9107
 11
293.216
 21
49.1059
  0
LINE
  8
0
 10
293.216
 20
49.1059
 11
293.394
 21
49.2835
  0
LINE
  8
0
 10
293.394
 20
49.2835
 11
293.589
 21
49.4416
  0
LINE
  8
0
 10
293.589
 20
49.4416
 11
293.8
 21
49.5785
  0
LINE
  8
0
 10
293.8
 20
49.5785
 11
294.024
 21
49.6925
  0
LINE
  8
0
 10
294.024
 20
49.6925
 11
294.258
 21
49.7825
  0
LINE
  8
0
 10
294.258
 20
49.7825
 11
294.501
 21
49.8475
  0
LINE
  8
0
 10
294.501
 20
49.8475
 11
294.749
 21
49.8868
  0
LINE
  8
0
 10
294.749
 20
49.8868
 11
295
 21
49.9
  0
LINE
  8
0
 10
295
 20
49.9
 11
295.251
 21
49.8868
  0
LINE
  8
0
 10
295.251
 20
49.8868
 11
295.499
 21
49.8475
  0
LINE
  8
0
 10
295.499
 20
49.8475
 11
295.742
 21
49.7825
  0
LINE
  8
0
 10
295.742
 20
49.7825
 11
295.976
 21
49.6925
  0
LINE
  8
0
 10
295.976
 20
49.6925
 11
296.2
 21
49.5785
  0
LINE
  8
0
 10
296.2
 20
49.5785
 11
296.411
 21
49.4416
  0
LINE
  8
0
 10
296.411
 20
49.4416
 11
296.606
 21
49.2835
  0
LINE
  8
0
 10
296.606
 20
49.2835
 11
296.784
 21
49.1059
  0
LINE
  8
0
 10
296.784
 20
49.1059
 11
296.942
 21
48.9107
  0
LINE
  8
0
 10
296.942
 20
48.9107
 11
297.078
 21
48.7
  0
LINE
  8
0
 10
297.078
 20
48.7
 11
297.193
 21
48.4762
  0
LINE
  8
0
 10
297.193
 20
48.4762
 11
297.283
 21
48.2416
  0
LINE
  8
0
 10
297.283
 20
48.2416
 11
297.348
 21
47.999
  0
LINE
  8
0
 10
297.348
 20
47.999
 11
297.387
 21
47.7509
  0
LINE
  8
0
 10
297.387
 20
47.7509
 11
297.4
 21
47.5
  0
LINE
  8
0
 10
297.4
 20
47.5
 11
297.387
 21
47.2491
  0
LINE
  8
0
 10
297.387
 20
47.2491
 11
297.348
 21
47.001
  0
LINE
  8
0
 10
297.348
 20
47.001
 11
297.283
 21
46.7583
  0
LINE
  8
0
 10
297.283
 20
46.7583
 11
297.193
 21
46.5238
  0
LINE
  8
0
 10
297.193
 20
46.5238
 11
297.078
 21
46.3
  0
LINE
  8
0
 10
297.078
 20
46.3
 11
296.942
 21
46.0893
  0
LINE
  8
0
 10
296.942
 20
46.0893
 11
296.784
 21
45.8941
  0
LINE
  8
0
 10
296.784
 20
45.8941
 11
296.606
 21
45.7164
  0
LINE
  8
0
 10
296.606
 20
45.7164
 11
296.411
 21
45.5583
  0
LINE
  8
0
 10
296.411
 20
45.5583
 11
296.2
 21
45.4215
  0
LINE
  8
0
 10
296.2
 20
45.4215
 11
295.976
 21
45.3075
  0
LINE
  8
0
 10
295.976
 20
45.3075
 11
295.742
 21
45.2175
  0
LINE
  8
0
 10
295.742
 20
45.2175
 11
295.499
 21
45.1524
  0
LINE
  8
0
 10
295.499
 20
45.1524
 11
295.251
 21
45.1131
  0
LINE
  8
0
 10
295.251
 20
45.1131
 11
295
 21
45.1
  0
LINE
  8
0
 10
295
 20
45.1
 11
294.749
 21
45.1131
  0
LINE
  8
0
 10
-295.251
 20
45.1131
 11
-295.499
 21
45.1524
  0
LINE
  8
0
 10
-295.499
 20
45.1524
 11
-295.742
 21
45.2175
  0
LINE
  8
0
 10
-295.742
 20
45.2175
 11
-295.976
 21
45.3075
  0
LINE
  8
0
 10
-295.976
 20
45.3075
 11
-296.2
 21
45.4215
  0
LINE
  8
0
 10
-296.2
 20
45.4215
 11
-296.411
 21
45.5583
  0
LINE
  8
0
 10
-296.411
 20
45.5583
 11
-296.606
 21
45.7164
  0
LINE
  8
0
 10
-296.606
 20
45.7164
 11
-296.784
 21
45.8941
  0
LINE
  8
0
 10
-296.784
 20
45.8941
 11
-296.942
 21
46.0893
  0
LINE
  8
0
 10
-296.942
 20
46.0893
 11
-297.078
 21
46.3
  0
LINE
  8
0
 10
-297.078
 20
46.3
 11
-297.193
 21
46.5238
  0
LINE
  8
0
 10
-297.193
 20
46.5238
 11
-297.283
 21
46.7583
  0
LINE
  8
0
 10
-297.283
 20
46.7583
 11
-297.348
 21
47.001
  0
LINE
  8
0
 10
-297.348
 20
47.001
 11
-297.387
 21
47.2491
  0
LINE
  8
0
 10
-297.387
 20
47.2491
 11
-297.4
 21
47.5
  0
LINE
  8
0
 10
-297.4
 20
47.5
 11
-297.387
 21
47.7509
  0
LINE
  8
0
 10
-297.387
 20
47.7509
 11
-297.348
 21
47.999
  0
LINE
  8
0
 10
-297.348
 20
47.999
 11
-297.283
 21
48.2416
  0
LINE
  8
0
 10
-297.283
 20
48.2416
 11
-297.193
 21
48.4762
  0
LINE
  8
0
 10
-297.193
 20
48.4762
 11
-297.078
 21
48.7
  0
LINE
  8
0
 10
-297.078
 20
48.7
 11
-296.942
 21
48.9107
  0
LINE
  8
0
 10
-296.942
 20
48.9107
 11
-296.784
 21
49.1059
  0
LINE
  8
0
 10
-296.784
 20
49.1059
 11
-296.606
 21
49.2835
  0
LINE
  8
0
 10
-296.606
 20
49.2835
 11
-296.411
 21
49.4416
  0
LINE
  8
0
 10
-296.411
 20
49.4416
 11
-296.2
 21
49.5785
  0
LINE
  8
0
 10
-296.2
 20
49.5785
 11
-295.976
 21
49.6925
  0
LINE
  8
0
 10
-295.976
 20
49.6925
 11
-295.742
 21
49.7825
  0
LINE
  8
0
 10
-295.742
 20
49.7825
 11
-295.499
 21
49.8475
  0
LINE
  8
0
 10
-295.499
 20
49.8475
 11
-295.251
 21
49.8868
  0
LINE
  8
0
 10
-295.251
 20
49.8868
 11
-295
 21
49.9
  0
LINE
  8
0
 10
-295
 20
49.9
 11
-294.749
 21
49.8868
  0
LINE
  8
0
 10
-294.749
 20
49.8868
 11
-294.501
 21
49.8475
  0
LINE
  8
0
 10
-294.501
 20
49.8475
 11
-294.258
 21
49.7825
  0
LINE
  8
0
 10
-294.258
 20
49.7825
 11
-294.024
 21
49.6925
  0
LINE
  8
0
 10
-294.024
 20
49.6925
 11
-293.8
 21
49.5785
  0
LINE
  8
0
 10
-293.8
 20
49.5785
 11
-293.589
 21
49.4416
  0
LINE
  8
0
 10
-293.589
 20
49.4416
 11
-293.394
 21
49.2835
  0
LINE
  8
0
 10
-293.394
 20
49.2835
 11
-293.216
 21
49.1059
  0
LINE
  8
0
 10
-293.216
 20
49.1059
 11
-293.058
 21
48.9107
  0
LINE
  8
0
 10
-293.058
 20
48.9107
 11
-292.922
 21
48.7
  0
LINE
  8
0
 10
-292.922
 20
48.7
 11
-292.807
 21
48.4762
  0
LINE
  8
0
 10
-292.807
 20
48.4762
 11
-292.717
 21
48.2416
  0
LINE
  8
0
 10
-292.717
 20
48.2416
 11
-292.652
 21
47.999
  0
LINE
  8
0
 10
-292.652
 20
47.999
 11
-292.613
 21
47.7509
  0
LINE
  8
0
 10
-292.613
 20
47.7509
 11
-292.6
 21
47.5
  0
LINE
  8
0
 10
-292.6
 20
47.5
 11
-292.613
 21
47.2491
  0
LINE
  8
0
 10
-292.613
 20
47.2491
 11
-292.652
 21
47.001
  0
LINE
  8
0
 10
-292.652
 20
47.001
 11
-292.717
 21
46.7583
  0
LINE
  8
0
 10
-292.717
 20
46.7583
 11
-292.807
 21
46.5238
  0
LINE
  8
0
 10
-292.807
 20
46.5238
 11
-292.922
 21
46.3
  0
LINE
  8
0
 10
-292.922
 20
46.3
 11
-293.058
 21
46.0893
  0
LINE
  8
0
 10
-293.058
 20
46.0893
 11
-293.216
 21
45.8941
  0
LINE
  8
0
 10
-293.216
 20
45.8941
 11
-293.394
 21
45.7164
  0
LINE
  8
0
 10
-293.394
 20
45.7164
 11
-293.589
 21
45.5583
  0
LINE
  8
0
 10
-293.589
 20
45.5583
 11
-293.8
 21
45.4215
  0
LINE
  8
0
 10
-293.8
 20
45.4215
 11
-294.024
 21
45.3075
  0
LINE
  8
0
 10
-294.024
 20
45.3075
 11
-294.258
 21
45.2175
  0
LINE
  8
0
 10
-294.258
 20
45.2175
 11
-294.501
 21
45.1524
  0
LINE
  8
0
 10
-294.501
 20
45.1524
 11
-294.749
 21
45.1131
  0
LINE
  8
0
 10
-294.749
 20
45.1131
 11
-295
 21
45.1
  0
LINE
  8
0
 10
-295
 20
45.1
 11
-295.251
 21
45.1131
  0
LINE
  8
0
 10
-295.397
 20
23.7208
 11
-295.79
 21
23.783
  0
LINE
  8
0
 10
-295.79
 20
23.783
 11
-296.174
 21
23.886
  0
LINE
  8
0
 10
-296.174
 20
23.886
 11
-296.546
 21
24.0285
  0
LINE
  8
0
 10
-296.546
 20
24.0285
 11
-296.9
 21
24.2091
  0
LINE
  8
0
 10
-296.9
 20
24.2091
 11
-297.234
 21
24.4257
  0
LINE
  8
0
 10
-297.234
 20
24.4257
 11
-297.543
 21
24.676
  0
LINE
  8
0
 10
-297.543
 20
24.676
 11
-297.824
 21
24.9573
  0
LINE
  8
0
 10
-297.824
 20
24.9573
 11
-298.074
 21
25.2664
  0
LINE
  8
0
 10
-298.074
 20
25.2664
 11
-298.291
 21
25.6
  0
LINE
  8
0
 10
-298.291
 20
25.6
 11
-298.471
 21
25.9544
  0
LINE
  8
0
 10
-298.471
 20
25.9544
 11
-298.614
 21
26.3257
  0
LINE
  8
0
 10
-298.614
 20
26.3257
 11
-298.717
 21
26.7099
  0
LINE
  8
0
 10
-298.717
 20
26.7099
 11
-298.779
 21
27.1028
  0
LINE
  8
0
 10
-298.779
 20
27.1028
 11
-298.8
 21
27.5
  0
LINE
  8
0
 10
-298.8
 20
27.5
 11
-298.779
 21
27.8972
  0
LINE
  8
0
 10
-298.779
 20
27.8972
 11
-298.717
 21
28.2901
  0
LINE
  8
0
 10
-298.717
 20
28.2901
 11
-298.614
 21
28.6743
  0
LINE
  8
0
 10
-298.614
 20
28.6743
 11
-298.471
 21
29.0456
  0
LINE
  8
0
 10
-298.471
 20
29.0456
 11
-298.291
 21
29.4
  0
LINE
  8
0
 10
-298.291
 20
29.4
 11
-298.074
 21
29.7336
  0
LINE
  8
0
 10
-298.074
 20
29.7336
 11
-297.824
 21
30.0427
  0
LINE
  8
0
 10
-297.824
 20
30.0427
 11
-297.543
 21
30.3239
  0
LINE
  8
0
 10
-297.543
 20
30.3239
 11
-297.234
 21
30.5743
  0
LINE
  8
0
 10
-297.234
 20
30.5743
 11
-296.9
 21
30.7909
  0
LINE
  8
0
 10
-296.9
 20
30.7909
 11
-296.546
 21
30.9715
  0
LINE
  8
0
 10
-296.546
 20
30.9715
 11
-296.174
 21
31.114
  0
LINE
  8
0
 10
-296.174
 20
31.114
 11
-295.79
 21
31.2169
  0
LINE
  8
0
 10
-295.79
 20
31.2169
 11
-295.397
 21
31.2792
  0
LINE
  8
0
 10
-295.397
 20
31.2792
 11
-295
 21
31.3
  0
LINE
  8
0
 10
-295
 20
31.3
 11
-294.603
 21
31.2792
  0
LINE
  8
0
 10
-294.603
 20
31.2792
 11
-294.21
 21
31.2169
  0
LINE
  8
0
 10
-294.21
 20
31.2169
 11
-293.826
 21
31.114
  0
LINE
  8
0
 10
-293.826
 20
31.114
 11
-293.454
 21
30.9715
  0
LINE
  8
0
 10
-293.454
 20
30.9715
 11
-293.1
 21
30.7909
  0
LINE
  8
0
 10
-293.1
 20
30.7909
 11
-292.766
 21
30.5743
  0
LINE
  8
0
 10
-292.766
 20
30.5743
 11
-292.457
 21
30.3239
  0
LINE
  8
0
 10
-292.457
 20
30.3239
 11
-292.176
 21
30.0427
  0
LINE
  8
0
 10
-292.176
 20
30.0427
 11
-291.926
 21
29.7336
  0
LINE
  8
0
 10
-291.926
 20
29.7336
 11
-291.709
 21
29.4
  0
LINE
  8
0
 10
-291.709
 20
29.4
 11
-291.529
 21
29.0456
  0
LINE
  8
0
 10
-291.529
 20
29.0456
 11
-291.386
 21
28.6743
  0
LINE
  8
0
 10
-291.386
 20
28.6743
 11
-291.283
 21
28.2901
  0
LINE
  8
0
 10
-291.283
 20
28.2901
 11
-291.221
 21
27.8972
  0
LINE
  8
0
 10
-291.221
 20
27.8972
 11
-291.2
 21
27.5
  0
LINE
  8
0
 10
-291.2
 20
27.5
 11
-291.221
 21
27.1028
  0
LINE
  8
0
 10
-291.221
 20
27.1028
 11
-291.283
 21
26.7099
  0
LINE
  8
0
 10
-291.283
 20
26.7099
 11
-291.386
 21
26.3257
  0
LINE
  8
0
 10
-291.386
 20
26.3257
 11
-291.529
 21
25.9544
  0
LINE
  8
0
 10
-291.529
 20
25.9544
 11
-291.709
 21
25.6
  0
LINE
  8
0
 10
-291.709
 20
25.6
 11
-291.926
 21
25.2664
  0
LINE
  8
0
 10
-291.926
 20
25.2664
 11
-292.176
 21
24.9573
  0
LINE
  8
0
 10
-292.176
 20
24.9573
 11
-292.457
 21
24.676
  0
LINE
  8
0
 10
-292.457
 20
24.676
 11
-292.766
 21
24.4257
  0
LINE
  8
0
 10
-292.766
 20
24.4257
 11
-293.1
 21
24.2091
  0
LINE
  8
0
 10
-293.1
 20
24.2091
 11
-293.454
 21
24.0285
  0
LINE
  8
0
 10
-293.454
 20
24.0285
 11
-293.826
 21
23.886
  0
LINE
  8
0
 10
-293.826
 20
23.886
 11
-294.21
 21
23.783
  0
LINE
  8
0
 10
-294.21
 20
23.783
 11
-294.603
 21
23.7208
  0
LINE
  8
0
 10
-294.603
 20
23.7208
 11
-295
 21
23.7
  0
LINE
  8
0
 10
-295
 20
23.7
 11
-295.397
 21
23.7208
  0
LINE
  8
0
 10
294.603
 20
23.7208
 11
294.21
 21
23.783
  0
LINE
  8
0
 10
294.21
 20
23.783
 11
293.826
 21
23.886
  0
LINE
  8
0
 10
293.826
 20
23.886
 11
293.454
 21
24.0285
  0
LINE
  8
0
 10
293.454
 20
24.0285
 11
293.1
 21
24.2091
  0
LINE
  8
0
 10
293.1
 20
24.2091
 11
292.766
 21
24.4257
  0
LINE
  8
0
 10
292.766
 20
24.4257
 11
292.457
 21
24.676
  0
LINE
  8
0
 10
292.457
 20
24.676
 11
292.176
 21
24.9573
  0
LINE
  8
0
 10
292.176
 20
24.9573
 11
291.926
 21
25.2664
  0
LINE
  8
0
 10
291.926
 20
25.2664
 11
291.709
 21
25.6
  0
LINE
  8
0
 10
291.709
 20
25.6
 11
291.529
 21
25.9544
  0
LINE
  8
0
 10
291.529
 20
25.9544
 11
291.386
 21
26.3257
  0
LINE
  8
0
 10
291.386
 20
26.3257
 11
291.283
 21
26.7099
  0
LINE
  8
0
 10
291.283
 20
26.7099
 11
291.221
 21
27.1028
  0
LINE
  8
0
 10
291.221
 20
27.1028
 11
291.2
 21
27.5
  0
LINE
  8
0
 10
291.2
 20
27.5
 11
291.221
 21
27.8972
  0
LINE
  8
0
 10
291.221
 20
27.8972
 11
291.283
 21
28.2901
  0
LINE
  8
0
 10
291.283
 20
28.2901
 11
291.386
 21
28.6743
  0
LINE
  8
0
 10
291.386
 20
28.6743
 11
291.529
 21
29.0456
  0
LINE
  8
0
 10
291.529
 20
29.0456
 11
291.709
 21
29.4
  0
LINE
  8
0
 10
291.709
 20
29.4
 11
291.926
 21
29.7336
  0
LINE
  8
0
 10
291.926
 20
29.7336
 11
292.176
 21
30.0427
  0
LINE
  8
0
 10
292.176
 20
30.0427
 11
292.457
 21
30.3239
  0
LINE
  8
0
 10
292.457
 20
30.3239
 11
292.766
 21
30.5743
  0
LINE
  8
0
 10
292.766
 20
30.5743
 11
293.1
 21
30.7909
  0
LINE
  8
0
 10
293.1
 20
30.7909
 11
293.454
 21
30.9715
  0
LINE
  8
0
 10
293.454
 20
30.9715
 11
293.826
 21
31.114
  0
LINE
  8
0
 10
293.826
 20
31.114
 11
294.21
 21
31.2169
  0
LINE
  8
0
 10
294.21
 20
31.2169
 11
294.603
 21
31.2792
  0
LINE
  8
0
 10
294.603
 20
31.2792
 11
295
 21
31.3
  0
LINE
  8
0
 10
295
 20
31.3
 11
295.397
 21
31.2792
  0
LINE
  8
0
 10
295.397
 20
31.2792
 11
295.79
 21
31.2169
  0
LINE
  8
0
 10
295.79
 20
31.2169
 11
296.174
 21
31.114
  0
LINE
  8
0
 10
296.174
 20
31.114
 11
296.546
 21
30.9715
  0
LINE
  8
0
 10
296.546
 20
30.9715
 11
296.9
 21
30.7909
  0
LINE
  8
0
 10
296.9
 20
30.7909
 11
297.234
 21
30.5743
  0
LINE
  8
0
 10
297.234
 20
30.5743
 11
297.543
 21
30.3239
  0
LINE
  8
0
 10
297.543
 20
30.3239
 11
297.824
 21
30.0427
  0
LINE
  8
0
 10
297.824
 20
30.0427
 11
298.074
 21
29.7336
  0
LINE
  8
0
 10
298.074
 20
29.7336
 11
298.291
 21
29.4
  0
LINE
  8
0
 10
298.291
 20
29.4
 11
298.471
 21
29.0456
  0
LINE
  8
0
 10
298.471
 20
29.0456
 11
298.614
 21
28.6743
  0
LINE
  8
0
 10
298.614
 20
28.6743
 11
298.717
 21
28.2901
  0
LINE
  8
0
 10
298.717
 20
28.2901
 11
298.779
 21
27.8972
  0
LINE
  8
0
 10
298.779
 20
27.8972
 11
298.8
 21
27.5
  0
LINE
  8
0
 10
298.8
 20
27.5
 11
298.779
 21
27.1028
  0
LINE
  8
0
 10
298.779
 20
27.1028
 11
298.717
 21
26.7099
  0
LINE
  8
0
 10
298.717
 20
26.7099
 11
298.614
 21
26.3257
  0
LINE
  8
0
 10
298.614
 20
26.3257
 11
298.471
 21
25.9544
  0
LINE
  8
0
 10
298.471
 20
25.9544
 11
298.291
 21
25.6
  0
LINE
  8
0
 10
298.291
 20
25.6
 11
298.074
 21
25.2664
  0
LINE
  8
0
 10
298.074
 20
25.2664
 11
297.824
 21
24.9573
  0
LINE
  8
0
 10
297.824
 20
24.9573
 11
297.543
 21
24.676
  0
LINE
  8
0
 10
297.543
 20
24.676
 11
297.234
 21
24.4257
  0
LINE
  8
0
 10
297.234
 20
24.4257
 11
296.9
 21
24.2091
  0
LINE
  8
0
 10
296.9
 20
24.2091
 11
296.546
 21
24.0285
  0
LINE
  8
0
 10
296.546
 20
24.0285
 11
296.174
 21
23.886
  0
LINE
  8
0
 10
296.174
 20
23.886
 11
295.79
 21
23.783
  0
LINE
  8
0
 10
295.79
 20
23.783
 11
295.397
 21
23.7208
  0
LINE
  8
0
 10
295.397
 20
23.7208
 11
295
 21
23.7
  0
LINE
  8
0
 10
295
 20
23.7
 11
294.603
 21
23.7208
  0
LINE
  8
0
 10
294.603
 20
-31.2792
 11
294.21
 21
-31.2169
  0
LINE
  8
0
 10
294.21
 20
-31.2169
 11
293.826
 21
-31.114
  0
LINE
  8
0
 10
293.826
 20
-31.114
 11
293.454
 21
-30.9715
  0
LINE
  8
0
 10
293.454
 20
-30.9715
 11
293.1
 21
-30.7909
  0
LINE
  8
0
 10
293.1
 20
-30.7909
 11
292.766
 21
-30.5743
  0
LINE
  8
0
 10
292.766
 20
-30.5743
 11
292.457
 21
-30.3239
  0
LINE
  8
0
 10
292.457
 20
-30.3239
 11
292.176
 21
-30.0427
  0
LINE
  8
0
 10
292.176
 20
-30.0427
 11
291.926
 21
-29.7336
  0
LINE
  8
0
 10
291.926
 20
-29.7336
 11
291.709
 21
-29.4
  0
LINE
  8
0
 10
291.709
 20
-29.4
 11
291.529
 21
-29.0456
  0
LINE
  8
0
 10
291.529
 20
-29.0456
 11
291.386
 21
-28.6743
  0
LINE
  8
0
 10
291.386
 20
-28.6743
 11
291.283
 21
-28.2901
  0
LINE
  8
0
 10
291.283
 20
-28.2901
 11
291.221
 21
-27.8972
  0
LINE
  8
0
 10
291.221
 20
-27.8972
 11
291.2
 21
-27.5
  0
LINE
  8
0
 10
291.2
 20
-27.5
 11
291.221
 21
-27.1028
  0
LINE
  8
0
 10
291.221
 20
-27.1028
 11
291.283
 21
-26.7099
  0
LINE
  8
0
 10
291.283
 20
-26.7099
 11
291.386
 21
-26.3257
  0
LINE
  8
0
 10
291.386
 20
-26.3257
 11
291.529
 21
-25.9544
  0
LINE
  8
0
 10
291.529
 20
-25.9544
 11
291.709
 21
-25.6
  0
LINE
  8
0
 10
291.709
 20
-25.6
 11
291.926
 21
-25.2664
  0
LINE
  8
0
 10
291.926
 20
-25.2664
 11
292.176
 21
-24.9573
  0
LINE
  8
0
 10
292.176
 20
-24.9573
 11
292.457
 21
-24.676
  0
LINE
  8
0
 10
292.457
 20
-24.676
 11
292.766
 21
-24.4257
  0
LINE
  8
0
 10
292.766
 20
-24.4257
 11
293.1
 21
-24.2091
  0
LINE
  8
0
 10
293.1
 20
-24.2091
 11
293.454
 21
-24.0285
  0
LINE
  8
0
 10
293.454
 20
-24.0285
 11
293.826
 21
-23.886
  0
LINE
  8
0
 10
293.826
 20
-23.886
 11
294.21
 21
-23.783
  0
LINE
  8
0
 10
294.21
 20
-23.783
 11
294.603
 21
-23.7208
  0
LINE
  8
0
 10
294.603
 20
-23.7208
 11
295
 21
-23.7
  0
LINE
  8
0
 10
295
 20
-23.7
 11
295.397
 21
-23.7208
  0
LINE
  8
0
 10
295.397
 20
-23.7208
 11
295.79
 21
-23.783
  0
LINE
  8
0
 10
295.79
 20
-23.783
 11
296.174
 21
-23.886
  0
LINE
  8
0
 10
296.174
 20
-23.886
 11
296.546
 21
-24.0285
  0
LINE
  8
0
 10
296.546
 20
-24.0285
 11
296.9
 21
-24.2091
  0
LINE
  8
0
 10
296.9
 20
-24.2091
 11
297.234
 21
-24.4257
  0
LINE
  8
0
 10
297.234
 20
-24.4257
 11
297.543
 21
-24.676
  0
LINE
  8
0
 10
297.543
 20
-24.676
 11
297.824
 21
-24.9573
  0
LINE
  8
0
 10
297.824
 20
-24.9573
 11
298.074
 21
-25.2664
  0
LINE
  8
0
 10
298.074
 20
-25.2664
 11
298.291
 21
-25.6
  0
LINE
  8
0
 10
298.291
 20
-25.6
 11
298.471
 21
-25.9544
  0
LINE
  8
0
 10
298.471
 20
-25.9544
 11
298.614
 21
-26.3257
  0
LINE
  8
0
 10
298.614
 20
-26.3257
 11
298.717
 21
-26.7099
  0
LINE
  8
0
 10
298.717
 20
-26.7099
 11
298.779
 21
-27.1028
  0
LINE
  8
0
 10
298.779
 20
-27.1028
 11
298.8
 21
-27.5
  0
LINE
  8
0
 10
298.8
 20
-27.5
 11
298.779
 21
-27.8972
  0
LINE
  8
0
 10
298.779
 20
-27.8972
 11
298.717
 21
-28.2901
  0
LINE
  8
0
 10
298.717
 20
-28.2901
 11
298.614
 21
-28.6743
  0
LINE
  8
0
 10
298.614
 20
-28.6743
 11
298.471
 21
-29.0456
  0
LINE
  8
0
 10
298.471
 20
-29.0456
 11
298.291
 21
-29.4
  0
LINE
  8
0
 10
298.291
 20
-29.4
 11
298.074
 21
-29.7336
  0
LINE
  8
0
 10
298.074
 20
-29.7336
 11
297.824
 21
-30.0427
  0
LINE
  8
0
 10
297.824
 20
-30.0427
 11
297.543
 21
-30.3239
  0
LINE
  8
0
 10
297.543
 20
-30.3239
 11
297.234
 21
-30.5743
  0
LINE
  8
0
 10
297.234
 20
-30.5743
 11
296.9
 21
-30.7909
  0
LINE
  8
0
 10
296.9
 20
-30.7909
 11
296.546
 21
-30.9715
  0
LINE
  8
0
 10
296.546
 20
-30.9715
 11
296.174
 21
-31.114
  0
LINE
  8
0
 10
296.174
 20
-31.114
 11
295.79
 21
-31.2169
  0
LINE
  8
0
 10
295.79
 20
-31.2169
 11
295.397
 21
-31.2792
  0
LINE
  8
0
 10
295.397
 20
-31.2792
 11
295
 21
-31.3
  0
LINE
  8
0
 10
295
 20
-31.3
 11
294.603
 21
-31.2792
  0
LINE
  8
0
 10
-295.397
 20
-31.2792
 11
-295.79
 21
-31.2169
  0
LINE
  8
0
 10
-295.79
 20
-31.2169
 11
-296.174
 21
-31.114
  0
LINE
  8
0
 10
-296.174
 20
-31.114
 11
-296.546
 21
-30.9715
  0
LINE
  8
0
 10
-296.546
 20
-30.9715
 11
-296.9
 21
-30.7909
  0
LINE
  8
0
 10
-296.9
 20
-30.7909
 11
-297.234
 21
-30.5743
  0
LINE
  8
0
 10
-297.234
 20
-30.5743
 11
-297.543
 21
-30.3239
  0
LINE
  8
0
 10
-297.543
 20
-30.3239
 11
-297.824
 21
-30.0427
  0
LINE
  8
0
 10
-297.824
 20
-30.0427
 11
-298.074
 21
-29.7336
  0
LINE
  8
0
 10
-298.074
 20
-29.7336
 11
-298.291
 21
-29.4
  0
LINE
  8
0
 10
-298.291
 20
-29.4
 11
-298.471
 21
-29.0456
  0
LINE
  8
0
 10
-298.471
 20
-29.0456
 11
-298.614
 21
-28.6743
  0
LINE
  8
0
 10
-298.614
 20
-28.6743
 11
-298.717
 21
-28.2901
  0
LINE
  8
0
 10
-298.717
 20
-28.2901
 11
-298.779
 21
-27.8972
  0
LINE
  8
0
 10
-298.779
 20
-27.8972
 11
-298.8
 21
-27.5
  0
LINE
  8
0
 10
-298.8
 20
-27.5
 11
-298.779
 21
-27.1028
  0
LINE
  8
0
 10
-298.779
 20
-27.1028
 11
-298.717
 21
-26.7099
  0
LINE
  8
0
 10
-298.717
 20
-26.7099
 11
-298.614
 21
-26.3257
  0
LINE
  8
0
 10
-298.614
 20
-26.3257
 11
-298.471
 21
-25.9544
  0
LINE
  8
0
 10
-298.471
 20
-25.9544
 11
-298.291
 21
-25.6
  0
LINE
  8
0
 10
-298.291
 20
-25.6
 11
-298.074
 21
-25.2664
  0
LINE
  8
0
 10
-298.074
 20
-25.2664
 11
-297.824
 21
-24.9573
  0
LINE
  8
0
 10
-297.824
 20
-24.9573
 11
-297.543
 21
-24.676
  0
LINE
  8
0
 10
-297.543
 20
-24.676
 11
-297.234
 21
-24.4257
  0
LINE
  8
0
 10
-297.234
 20
-24.4257
 11
-296.9
 21
-24.2091
  0
LINE
  8
0
 10
-296.9
 20
-24.2091
 11
-296.546
 21
-24.0285
  0
LINE
  8
0
 10
-296.546
 20
-24.0285
 11
-296.174
 21
-23.886
  0
LINE
  8
0
 10
-296.174
 20
-23.886
 11
-295.79
 21
-23.783
  0
LINE
  8
0
 10
-295.79
 20
-23.783
 11
-295.397
 21
-23.7208
  0
LINE
  8
0
 10
-295.397
 20
-23.7208
 11
-295
 21
-23.7
  0
LINE
  8
0
 10
-295
 20
-23.7
 11
-294.603
 21
-23.7208
  0
LINE
  8
0
 10
-294.603
 20
-23.7208
 11
-294.21
 21
-23.783
  0
LINE
  8
0
 10
-294.21
 20
-23.783
 11
-293.826
 21
-23.886
  0
LINE
  8
0
 10
-293.826
 20
-23.886
 11
-293.454
 21
-24.0285
  0
LINE
  8
0
 10
-293.454
 20
-24.0285
 11
-293.1
 21
-24.2091
  0
LINE
  8
0
 10
-293.1
 20
-24.2091
 11
-292.766
 21
-24.4257
  0
LINE
  8
0
 10
-292.766
 20
-24.4257
 11
-292.457
 21
-24.676
  0
LINE
  8
0
 10
-292.457
 20
-24.676
 11
-292.176
 21
-24.9573
  0
LINE
  8
0
 10
-292.176
 20
-24.9573
 11
-291.926
 21
-25.2664
  0
LINE
  8
0
 10
-291.926
 20
-25.2664
 11
-291.709
 21
-25.6
  0
LINE
  8
0
 10
-291.709
 20
-25.6
 11
-291.529
 21
-25.9544
  0
LINE
  8
0
 10
-291.529
 20
-25.9544
 11
-291.386
 21
-26.3257
  0
LINE
  8
0
 10
-291.386
 20
-26.3257
 11
-291.283
 21
-26.7099
  0
LINE
  8
0
 10
-291.283
 20
-26.7099
 11
-291.221
 21
-27.1028
  0
LINE
  8
0
 10
-291.221
 20
-27.1028
 11
-291.2
 21
-27.5
  0
LINE
  8
0
 10
-291.2
 20
-27.5
 11
-291.221
 21
-27.8972
  0
LINE
  8
0
 10
-291.221
 20
-27.8972
 11
-291.283
 21
-28.2901
  0
LINE
  8
0
 10
-291.283
 20
-28.2901
 11
-291.386
 21
-28.6743
  0
LINE
  8
0
 10
-291.386
 20
-28.6743
 11
-291.529
 21
-29.0456
  0
LINE
  8
0
 10
-291.529
 20
-29.0456
 11
-291.709
 21
-29.4
  0
LINE
  8
0
 10
-291.709
 20
-29.4
 11
-291.926
 21
-29.7336
  0
LINE
  8
0
 10
-291.926
 20
-29.7336
 11
-292.176
 21
-30.0427
  0
LINE
  8
0
 10
-292.176
 20
-30.0427
 11
-292.457
 21
-30.3239
  0
LINE
  8
0
 10
-292.457
 20
-30.3239
 11
-292.766
 21
-30.5743
  0
LINE
  8
0
 10
-292.766
 20
-30.5743
 11
-293.1
 21
-30.7909
  0
LINE
  8
0
 10
-293.1
 20
-30.7909
 11
-293.454
 21
-30.9715
  0
LINE
  8
0
 10
-293.454
 20
-30.9715
 11
-293.826
 21
-31.114
  0
LINE
  8
0
 10
-293.826
 20
-31.114
 11
-294.21
 21
-31.2169
  0
LINE
  8
0
 10
-294.21
 20
-31.2169
 11
-294.603
 21
-31.2792
  0
LINE
  8
0
 10
-294.603
 20
-31.2792
 11
-295
 21
-31.3
  0
LINE
  8
0
 10
-295
 20
-31.3
 11
-295.397
 21
-31.2792
  0
LINE
  8
0
 10
294.749
 20
-49.8868
 11
294.501
 21
-49.8475
  0
LINE
  8
0
 10
294.501
 20
-49.8475
 11
294.258
 21
-49.7825
  0
LINE
  8
0
 10
294.258
 20
-49.7825
 11
294.024
 21
-49.6925
  0
LINE
  8
0
 10
294.024
 20
-49.6925
 11
293.8
 21
-49.5785
  0
LINE
  8
0
 10
293.8
 20
-49.5785
 11
293.589
 21
-49.4416
  0
LINE
  8
0
 10
293.589
 20
-49.4416
 11
293.394
 21
-49.2835
  0
LINE
  8
0
 10
293.394
 20
-49.2835
 11
293.216
 21
-49.1059
  0
LINE
  8
0
 10
293.216
 20
-49.1059
 11
293.058
 21
-48.9107
  0
LINE
  8
0
 10
293.058
 20
-48.9107
 11
292.922
 21
-48.7
  0
LINE
  8
0
 10
292.922
 20
-48.7
 11
292.807
 21
-48.4762
  0
LINE
  8
0
 10
292.807
 20
-48.4762
 11
292.717
 21
-48.2416
  0
LINE
  8
0
 10
292.717
 20
-48.2416
 11
292.652
 21
-47.999
  0
LINE
  8
0
 10
292.652
 20
-47.999
 11
292.613
 21
-47.7509
  0
LINE
  8
0
 10
292.613
 20
-47.7509
 11
292.6
 21
-47.5
  0
LINE
  8
0
 10
292.6
 20
-47.5
 11
292.613
 21
-47.2491
  0
LINE
  8
0
 10
292.613
 20
-47.2491
 11
292.652
 21
-47.001
  0
LINE
  8
0
 10
292.652
 20
-47.001
 11
292.717
 21
-46.7583
  0
LINE
  8
0
 10
292.717
 20
-46.7583
 11
292.807
 21
-46.5238
  0
LINE
  8
0
 10
292.807
 20
-46.5238
 11
292.922
 21
-46.3
  0
LINE
  8
0
 10
292.922
 20
-46.3
 11
293.058
 21
-46.0893
  0
LINE
  8
0
 10
293.058
 20
-46.0893
 11
293.216
 21
-45.8941
  0
LINE
  8
0
 10
293.216
 20
-45.8941
 11
293.394
 21
-45.7164
  0
LINE
  8
0
 10
293.394
 20
-45.7164
 11
293.589
 21
-45.5583
  0
LINE
  8
0
 10
293.589
 20
-45.5583
 11
293.8
 21
-45.4215
  0
LINE
  8
0
 10
293.8
 20
-45.4215
 11
294.024
 21
-45.3075
  0
LINE
  8
0
 10
294.024
 20
-45.3075
 11
294.258
 21
-45.2175
  0
LINE
  8
0
 10
294.258
 20
-45.2175
 11
294.501
 21
-45.1524
  0
LINE
  8
0
 10
294.501
 20
-45.1524
 11
294.749
 21
-45.1131
  0
LINE
  8
0
 10
294.749
 20
-45.1131
 11
295
 21
-45.1
  0
LINE
  8
0
 10
295
 20
-45.1
 11
295.251
 21
-45.1131
  0
LINE
  8
0
 10
295.251
 20
-45.1131
 11
295.499
 21
-45.1524
  0
LINE
  8
0
 10
295.499
 20
-45.1524
 11
295.742
 21
-45.2175
  0
LINE
  8
0
 10
295.742
 20
-45.2175
 11
295.976
 21
-45.3075
  0
LINE
  8
0
 10
295.976
 20
-45.3075
 11
296.2
 21
-45.4215
  0
LINE
  8
0
 10
296.2
 20
-45.4215
 11
296.411
 21
-45.5583
  0
LINE
  8
0
 10
296.411
 20
-45.5583
 11
296.606
 21
-45.7164
  0
LINE
  8
0
 10
296.606
 20
-45.7164
 11
296.784
 21
-45.8941
  0
LINE
  8
0
 10
296.784
 20
-45.8941
 11
296.942
 21
-46.0893
  0
LINE
  8
0
 10
296.942
 20
-46.0893
 11
297.078
 21
-46.3
  0
LINE
  8
0
 10
297.078
 20
-46.3
 11
297.193
 21
-46.5238
  0
LINE
  8
0
 10
297.193
 20
-46.5238
 11
297.283
 21
-46.7583
  0
LINE
  8
0
 10
297.283
 20
-46.7583
 11
297.348
 21
-47.001
  0
LINE
  8
0
 10
297.348
 20
-47.001
 11
297.387
 21
-47.2491
  0
LINE
  8
0
 10
297.387
 20
-47.2491
 11
297.4
 21
-47.5
  0
LINE
  8
0
 10
297.4
 20
-47.5
 11
297.387
 21
-47.7509
  0
LINE
  8
0
 10
297.387
 20
-47.7509
 11
297.348
 21
-47.999
  0
LINE
  8
0
 10
297.348
 20
-47.999
 11
297.283
 21
-48.2416
  0
LINE
  8
0
 10
297.283
 20
-48.2416
 11
297.193
 21
-48.4762
  0
LINE
  8
0
 10
297.193
 20
-48.4762
 11
297.078
 21
-48.7
  0
LINE
  8
0
 10
297.078
 20
-48.7
 11
296.942
 21
-48.9107
  0
LINE
  8
0
 10
296.942
 20
-48.9107
 11
296.784
 21
-49.1059
  0
LINE
  8
0
 10
296.784
 20
-49.1059
 11
296.606
 21
-49.2835
  0
LINE
  8
0
 10
296.606
 20
-49.2835
 11
296.411
 21
-49.4416
  0
LINE
  8
0
 10
296.411
 20
-49.4416
 11
296.2
 21
-49.5785
  0
LINE
  8
0
 10
296.2
 20
-49.5785
 11
295.976
 21
-49.6925
  0
LINE
  8
0
 10
295.976
 20
-49.6925
 11
295.742
 21
-49.7825
  0
LINE
  8
0
 10
295.742
 20
-49.7825
 11
295.499
 21
-49.8475
  0
LINE
  8
0
 10
295.499
 20
-49.8475
 11
295.251
 21
-49.8868
  0
LINE
  8
0
 10
295.251
 20
-49.8868
 11
295
 21
-49.9
  0
LINE
  8
0
 10
295
 20
-49.9
 11
294.749
 21
-49.8868
  0
LINE
  8
0
 10
-295.251
 20
-49.8868
 11
-295.499
 21
-49.8475
  0
LINE
  8
0
 10
-295.499
 20
-49.8475
 11
-295.742
 21
-49.7825
  0
LINE
  8
0
 10
-295.742
 20
-49.7825
 11
-295.976
 21
-49.6925
  0
LINE
  8
0
 10
-295.976
 20
-49.6925
 11
-296.2
 21
-49.5785
  0
LINE
  8
0
 10
-296.2
 20
-49.5785
 11
-296.411
 21
-49.4416
  0
LINE
  8
0
 10
-296.411
 20
-49.4416
 11
-296.606
 21
-49.2835
  0
LINE
  8
0
 10
-296.606
 20
-49.2835
 11
-296.784
 21
-49.1059
  0
LINE
  8
0
 10
-296.784
 20
-49.1059
 11
-296.942
 21
-48.9107
  0
LINE
  8
0
 10
-296.942
 20
-48.9107
 11
-297.078
 21
-48.7
  0
LINE
  8
0
 10
-297.078
 20
-48.7
 11
-297.193
 21
-48.4762
  0
LINE
  8
0
 10
-297.193
 20
-48.4762
 11
-297.283
 21
-48.2416
  0
LINE
  8
0
 10
-297.283
 20
-48.2416
 11
-297.348
 21
-47.999
  0
LINE
  8
0
 10
-297.348
 20
-47.999
 11
-297.387
 21
-47.7509
  0
LINE
  8
0
 10
-297.387
 20
-47.7509
 11
-297.4
 21
-47.5
  0
LINE
  8
0
 10
-297.4
 20
-47.5
 11
-297.387
 21
-47.2491
  0
LINE
  8
0
 10
-297.387
 20
-47.2491
 11
-297.348
 21
-47.001
  0
LINE
  8
0
 10
-297.348
 20
-47.001
 11
-297.283
 21
-46.7583
  0
LINE
  8
0
 10
-297.283
 20
-46.7583
 11
-297.193
 21
-46.5238
  0
LINE
  8
0
 10
-297.193
 20
-46.5238
 11
-297.078
 21
-46.3
  0
LINE
  8
0
 10
-297.078
 20
-46.3
 11
-296.942
 21
-46.0893
  0
LINE
  8
0
 10
-296.942
 20
-46.0893
 11
-296.784
 21
-45.8941
  0
LINE
  8
0
 10
-296.784
 20
-45.8941
 11
-296.606
 21
-45.7164
  0
LINE
  8
0
 10
-296.606
 20
-45.7164
 11
-296.411
 21
-45.5583
  0
LINE
  8
0
 10
-296.411
 20
-45.5583
 11
-296.2
 21
-45.4215
  0
LINE
  8
0
 10
-296.2
 20
-45.4215
 11
-295.976
 21
-45.3075
  0
LINE
  8
0
 10
-295.976
 20
-45.3075
 11
-295.742
 21
-45.2175
  0
LINE
  8
0
 10
-295.742
 20
-45.2175
 11
-295.499
 21
-45.1524
  0
LINE
  8
0
 10
-295.499
 20
-45.1524
 11
-295.251
 21
-45.1131
  0
LINE
  8
0
 10
-295.251
 20
-45.1131
 11
-295
 21
-45.1
  0
LINE
  8
0
 10
-295
 20
-45.1
 11
-294.749
 21
-45.1131
  0
LINE
  8
0
 10
-294.749
 20
-45.1131
 11
-294.501
 21
-45.1524
  0
LINE
  8
0
 10
-294.501
 20
-45.1524
 11
-294.258
 21
-45.2175
  0
LINE
  8
0
 10
-294.258
 20
-45.2175
 11
-294.024
 21
-45.3075
  0
LINE
  8
0
 10
-294.024
 20
-45.3075
 11
-293.8
 21
-45.4215
  0
LINE
  8
0
 10
-293.8
 20
-45.4215
 11
-293.589
 21
-45.5583
  0
LINE
  8
0
 10
-293.589
 20
-45.5583
 11
-293.394
 21
-45.7164
  0
LINE
  8
0
 10
-293.394
 20
-45.7164
 11
-293.216
 21
-45.8941
  0
LINE
  8
0
 10
-293.216
 20
-45.8941
 11
-293.058
 21
-46.0893
  0
LINE
  8
0
 10
-293.058
 20
-46.0893
 11
-292.922
 21
-46.3
  0
LINE
  8
0
 10
-292.922
 20
-46.3
 11
-292.807
 21
-46.5238
  0
LINE
  8
0
 10
-292.807
 20
-46.5238
 11
-292.717
 21
-46.7583
  0
LINE
  8
0
 10
-292.717
 20
-46.7583
 11
-292.652
 21
-47.001
  0
LINE
  8
0
 10
-292.652
 20
-47.001
 11
-292.613
 21
-47.2491
  0
LINE
  8
0
 10
-292.613
 20
-47.2491
 11
-292.6
 21
-47.5
  0
LINE
  8
0
 10
-292.6
 20
-47.5
 11
-292.613
 21
-47.7509
  0
LINE
  8
0
 10
-292.613
 20
-47.7509
 11
-292.652
 21
-47.999
  0
LINE
  8
0
 10
-292.652
 20
-47.999
 11
-292.717
 21
-48.2416
  0
LINE
  8
0
 10
-292.717
 20
-48.2416
 11
-292.807
 21
-48.4762
  0
LINE
  8
0
 10
-292.807
 20
-48.4762
 11
-292.922
 21
-48.7
  0
LINE
  8
0
 10
-292.922
 20
-48.7
 11
-293.058
 21
-48.9107
  0
LINE
  8
0
 10
-293.058
 20
-48.9107
 11
-293.216
 21
-49.1059
  0
LINE
  8
0
 10
-293.216
 20
-49.1059
 11
-293.394
 21
-49.2835
  0
LINE
  8
0
 10
-293.394
 20
-49.2835
 11
-293.589
 21
-49.4416
  0
LINE
  8
0
 10
-293.589
 20
-49.4416
 11
-293.8
 21
-49.5785
  0
LINE
  8
0
 10
-293.8
 20
-49.5785
 11
-294.024
 21
-49.6925
  0
LINE
  8
0
 10
-294.024
 20
-49.6925
 11
-294.258
 21
-49.7825
  0
LINE
  8
0
 10
-294.258
 20
-49.7825
 11
-294.501
 21
-49.8475
  0
LINE
  8
0
 10
-294.501
 20
-49.8475
 11
-294.749
 21
-49.8868
  0
LINE
  8
0
 10
-294.749
 20
-49.8868
 11
-295
 21
-49.9
  0
LINE
  8
0
 10
-295
 20
-49.9
 11
-295.251
 21
-49.8868
  0
LINE
  8
0
 10
237.251
 20
-181.732
 11
237.007
 21
-181.679
  0
LINE
  8
0
 10
237.007
 20
-181.679
 11
236.773
 21
-181.592
  0
LINE
  8
0
 10
236.773
 20
-181.592
 11
236.554
 21
-181.472
  0
LINE
  8
0
 10
236.554
 20
-181.472
 11
236.354
 21
-181.323
  0
LINE
  8
0
 10
236.354
 20
-181.323
 11
236.177
 21
-181.146
  0
LINE
  8
0
 10
236.177
 20
-181.146
 11
236.028
 21
-180.946
  0
LINE
  8
0
 10
236.028
 20
-180.946
 11
235.908
 21
-180.727
  0
LINE
  8
0
 10
235.908
 20
-180.727
 11
235.821
 21
-180.493
  0
LINE
  8
0
 10
235.821
 20
-180.493
 11
235.768
 21
-180.249
  0
LINE
  8
0
 10
235.768
 20
-180.249
 11
235.75
 21
-180
  0
LINE
  8
0
 10
235.75
 20
-180
 11
235.75
 21
-65
  0
LINE
  8
0
 10
235.75
 20
-65
 11
235.768
 21
-64.7509
  0
LINE
  8
0
 10
235.768
 20
-64.7509
 11
235.821
 21
-64.507
  0
LINE
  8
0
 10
235.821
 20
-64.507
 11
235.908
 21
-64.273
  0
LINE
  8
0
 10
235.908
 20
-64.273
 11
236.028
 21
-64.0539
  0
LINE
  8
0
 10
236.028
 20
-64.0539
 11
236.177
 21
-63.854
  0
LINE
  8
0
 10
236.177
 20
-63.854
 11
236.354
 21
-63.6774
  0
LINE
  8
0
 10
236.354
 20
-63.6774
 11
236.554
 21
-63.5278
  0
LINE
  8
0
 10
236.554
 20
-63.5278
 11
236.773
 21
-63.4081
  0
LINE
  8
0
 10
236.773
 20
-63.4081
 11
237.007
 21
-63.3209
  0
LINE
  8
0
 10
237.007
 20
-63.3209
 11
237.251
 21
-63.2678
  0
LINE
  8
0
 10
237.251
 20
-63.2678
 11
237.5
 21
-63.25
  0
LINE
  8
0
 10
237.5
 20
-63.25
 11
237.749
 21
-63.2678
  0
LINE
  8
0
 10
237.749
 20
-63.2678
 11
237.993
 21
-63.3209
  0
LINE
  8
0
 10
237.993
 20
-63.3209
 11
238.227
 21
-63.4081
  0
LINE
  8
0
 10
238.227
 20
-63.4081
 11
238.446
 21
-63.5278
  0
LINE
  8
0
 10
238.446
 20
-63.5278
 11
238.646
 21
-63.6774
  0
LINE
  8
0
 10
238.646
 20
-63.6774
 11
238.823
 21
-63.854
  0
LINE
  8
0
 10
238.823
 20
-63.854
 11
238.972
 21
-64.0539
  0
LINE
  8
0
 10
238.972
 20
-64.0539
 11
239.092
 21
-64.273
  0
LINE
  8
0
 10
239.092
 20
-64.273
 11
239.179
 21
-64.507
  0
LINE
  8
0
 10
239.179
 20
-64.507
 11
239.232
 21
-64.7509
  0
LINE
  8
0
 10
239.232
 20
-64.7509
 11
239.25
 21
-65
  0
LINE
  8
0
 10
239.25
 20
-65
 11
239.25
 21
-180
  0
LINE
  8
0
 10
239.25
 20
-180
 11
239.232
 21
-180.249
  0
LINE
  8
0
 10
239.232
 20
-180.249
 11
239.179
 21
-180.493
  0
LINE
  8
0
 10
239.179
 20
-180.493
 11
239.092
 21
-180.727
  0
LINE
  8
0
 10
239.092
 20
-180.727
 11
238.972
 21
-180.946
  0
LINE
  8
0
 10
238.972
 20
-180.946
 11
238.823
 21
-181.146
  0
LINE
  8
0
 10
238.823
 20
-181.146
 11
238.646
 21
-181.323
  0
LINE
  8
0
 10
238.646
 20
-181.323
 11
238.446
 21
-181.472
  0
LINE
  8
0
 10
238.446
 20
-181.472
 11
238.227
 21
-181.592
  0
LINE
  8
0
 10
238.227
 20
-181.592
 11
237.993
 21
-181.679
  0
LINE
  8
0
 10
237.993
 20
-181.679
 11
237.749
 21
-181.732
  0
LINE
  8
0
 10
237.749
 20
-181.732
 11
237.5
 21
-181.75
  0
LINE
  8
0
 10
237.5
 20
-181.75
 11
237.251
 21
-181.732
  0
LINE
  8
0
 10
-237.749
 20
-181.732
 11
-237.993
 21
-181.679
  0
LINE
  8
0
 10
-237.993
 20
-181.679
 11
-238.227
 21
-181.592
  0
LINE
  8
0
 10
-238.227
 20
-181.592
 11
-238.446
 21
-181.472
  0
LINE
  8
0
 10
-238.446
 20
-181.472
 11
-238.646
 21
-181.323
  0
LINE
  8
0
 10
-238.646
 20
-181.323
 11
-238.823
 21
-181.146
  0
LINE
  8
0
 10
-238.823
 20
-181.146
 11
-238.972
 21
-180.946
  0
LINE
  8
0
 10
-238.972
 20
-180.946
 11
-239.092
 21
-180.727
  0
LINE
  8
0
 10
-239.092
 20
-180.727
 11
-239.179
 21
-180.493
  0
LINE
  8
0
 10
-239.179
 20
-180.493
 11
-239.232
 21
-180.249
  0
LINE
  8
0
 10
-239.232
 20
-180.249
 11
-239.25
 21
-180
  0
LINE
  8
0
 10
-239.25
 20
-180
 11
-239.25
 21
-65
  0
LINE
  8
0
 10
-239.25
 20
-65
 11
-239.232
 21
-64.7509
  0
LINE
  8
0
 10
-239.232
 20
-64.7509
 11
-239.179
 21
-64.507
  0
LINE
  8
0
 10
-239.179
 20
-64.507
 11
-239.092
 21
-64.273
  0
LINE
  8
0
 10
-239.092
 20
-64.273
 11
-238.972
 21
-64.0539
  0
LINE
  8
0
 10
-238.972
 20
-64.0539
 11
-238.823
 21
-63.854
  0
LINE
  8
0
 10
-238.823
 20
-63.854
 11
-238.646
 21
-63.6774
  0
LINE
  8
0
 10
-238.646
 20
-63.6774
 11
-238.446
 21
-63.5278
  0
LINE
  8
0
 10
-238.446
 20
-63.5278
 11
-238.227
 21
-63.4081
  0
LINE
  8
0
 10
-238.227
 20
-63.4081
 11
-237.993
 21
-63.3209
  0
LINE
  8
0
 10
-237.993
 20
-63.3209
 11
-237.749
 21
-63.2678
  0
LINE
  8
0
 10
-237.749
 20
-63.2678
 11
-237.5
 21
-63.25
  0
LINE
  8
0
 10
-237.5
 20
-63.25
 11
-237.251
 21
-63.2678
  0
LINE
  8
0
 10
-237.251
 20
-63.2678
 11
-237.007
 21
-63.3209
  0
LINE
  8
0
 10
-237.007
 20
-63.3209
 11
-236.773
 21
-63.4081
  0
LINE
  8
0
 10
-236.773
 20
-63.4081
 11
-236.554
 21
-63.5278
  0
LINE
  8
0
 10
-236.554
 20
-63.5278
 11
-236.354
 21
-63.6774
  0
LINE
  8
0
 10
-236.354
 20
-63.6774
 11
-236.177
 21
-63.854
  0
LINE
  8
0
 10
-236.177
 20
-63.854
 11
-236.028
 21
-64.0539
  0
LINE
  8
0
 10
-236.028
 20
-64.0539
 11
-235.908
 21
-64.273
  0
LINE
  8
0
 10
-235.908
 20
-64.273
 11
-235.821
 21
-64.507
  0
LINE
  8
0
 10
-235.821
 20
-64.507
 11
-235.768
 21
-64.7509
  0
LINE
  8
0
 10
-235.768
 20
-64.7509
 11
-235.75
 21
-65
  0
LINE
  8
0
 10
-235.75
 20
-65
 11
-235.75
 21
-180
  0
LINE
  8
0
 10
-235.75
 20
-180
 11
-235.768
 21
-180.249
  0
LINE
  8
0
 10
-235.768
 20
-180.249
 11
-235.821
 21
-180.493
  0
LINE
  8
0
 10
-235.821
 20
-180.493
 11
-235.908
 21
-180.727
  0
LINE
  8
0
 10
-235.908
 20
-180.727
 11
-236.028
 21
-180.946
  0
LINE
  8
0
 10
-236.028
 20
-180.946
 11
-236.177
 21
-181.146
  0
LINE
  8
0
 10
-236.177
 20
-181.146
 11
-236.354
 21
-181.323
  0
LINE
  8
0
 10
-236.354
 20
-181.323
 11
-236.554
 21
-181.472
  0
LINE
  8
0
 10
-236.554
 20
-181.472
 11
-236.773
 21
-181.592
  0
LINE
  8
0
 10
-236.773
 20
-181.592
 11
-237.007
 21
-181.679
  0
LINE
  8
0
 10
-237.007
 20
-181.679
 11
-237.251
 21
-181.732
  0
LINE
  8
0
 10
-237.251
 20
-181.732
 11
-237.5
 21
-181.75
  0
LINE
  8
0
 10
-237.5
 20
-181.75
 11
-237.749
 21
-181.732
  0
LINE
  8
0
 10
-295.305
 20
-68.9174
 11
-295.541
 21
-68.8454
  0
LINE
  8
0
 10
-295.541
 20
-68.8454
 11
-295.76
 21
-68.7347
  0
LINE
  8
0
 10
-295.76
 20
-68.7347
 11
-295.958
 21
-68.5885
  0
LINE
  8
0
 10
-295.958
 20
-68.5885
 11
-296.128
 21
-68.4109
  0
LINE
  8
0
 10
-296.128
 20
-68.4109
 11
-296.266
 21
-68.2072
  0
LINE
  8
0
 10
-296.266
 20
-68.2072
 11
-296.367
 21
-67.983
  0
LINE
  8
0
 10
-296.367
 20
-67.983
 11
-296.429
 21
-67.745
  0
LINE
  8
0
 10
-296.429
 20
-67.745
 11
-296.45
 21
-67.5
  0
LINE
  8
0
 10
-296.45
 20
-67.5
 11
-296.429
 21
-67.2549
  0
LINE
  8
0
 10
-296.429
 20
-67.2549
 11
-296.367
 21
-67.0169
  0
LINE
  8
0
 10
-296.367
 20
-67.0169
 11
-296.266
 21
-66.7928
  0
LINE
  8
0
 10
-296.266
 20
-66.7928
 11
-296.128
 21
-66.5891
  0
LINE
  8
0
 10
-296.128
 20
-66.5891
 11
-295.958
 21
-66.4115
  0
LINE
  8
0
 10
-295.958
 20
-66.4115
 11
-295.76
 21
-66.2653
  0
LINE
  8
0
 10
-295.76
 20
-66.2653
 11
-295.541
 21
-66.1546
  0
LINE
  8
0
 10
-295.541
 20
-66.1546
 11
-295.305
 21
-66.0825
  0
LINE
  8
0
 10
-295.305
 20
-66.0825
 11
-295.062
 21
-66.0513
  0
LINE
  8
0
 10
-295.062
 20
-66.0513
 11
-294.816
 21
-66.0617
  0
LINE
  8
0
 10
-294.816
 20
-66.0617
 11
-294.575
 21
-66.1136
  0
LINE
  8
0
 10
-294.575
 20
-66.1136
 11
-294.347
 21
-66.2053
  0
LINE
  8
0
 10
-294.347
 20
-66.2053
 11
-294.138
 21
-66.3342
  0
LINE
  8
0
 10
-294.138
 20
-66.3342
 11
-293.953
 21
-66.4967
  0
LINE
  8
0
 10
-293.953
 20
-66.4967
 11
-293.799
 21
-66.688
  0
LINE
  8
0
 10
-293.799
 20
-66.688
 11
-293.679
 21
-66.9027
  0
LINE
  8
0
 10
-293.679
 20
-66.9027
 11
-293.597
 21
-67.1346
  0
LINE
  8
0
 10
-293.597
 20
-67.1346
 11
-293.555
 21
-67.377
  0
LINE
  8
0
 10
-293.555
 20
-67.377
 11
-293.555
 21
-67.623
  0
LINE
  8
0
 10
-293.555
 20
-67.623
 11
-293.597
 21
-67.8654
  0
LINE
  8
0
 10
-293.597
 20
-67.8654
 11
-293.679
 21
-68.0973
  0
LINE
  8
0
 10
-293.679
 20
-68.0973
 11
-293.799
 21
-68.312
  0
LINE
  8
0
 10
-293.799
 20
-68.312
 11
-293.953
 21
-68.5033
  0
LINE
  8
0
 10
-293.953
 20
-68.5033
 11
-294.138
 21
-68.6658
  0
LINE
  8
0
 10
-294.138
 20
-68.6658
 11
-294.347
 21
-68.7947
  0
LINE
  8
0
 10
-294.347
 20
-68.7947
 11
-294.575
 21
-68.8864
  0
LINE
  8
0
 10
-294.575
 20
-68.8864
 11
-294.816
 21
-68.9382
  0
LINE
  8
0
 10
-294.816
 20
-68.9382
 11
-295.062
 21
-68.9487
  0
LINE
  8
0
 10
-295.062
 20
-68.9487
 11
-295.305
 21
-68.9174
  0
LINE
  8
0
 10
294.816
 20
-68.9382
 11
294.575
 21
-68.8864
  0
LINE
  8
0
 10
294.575
 20
-68.8864
 11
294.347
 21
-68.7947
  0
LINE
  8
0
 10
294.347
 20
-68.7947
 11
294.138
 21
-68.6658
  0
LINE
  8
0
 10
294.138
 20
-68.6658
 11
293.953
 21
-68.5033
  0
LINE
  8
0
 10
293.953
 20
-68.5033
 11
293.799
 21
-68.312
  0
LINE
  8
0
 10
293.799
 20
-68.312
 11
293.679
 21
-68.0973
  0
LINE
  8
0
 10
293.679
 20
-68.0973
 11
293.597
 21
-67.8654
  0
LINE
  8
0
 10
293.597
 20
-67.8654
 11
293.555
 21
-67.623
  0
LINE
  8
0
 10
293.555
 20
-67.623
 11
293.555
 21
-67.377
  0
LINE
  8
0
 10
293.555
 20
-67.377
 11
293.597
 21
-67.1346
  0
LINE
  8
0
 10
293.597
 20
-67.1346
 11
293.679
 21
-66.9027
  0
LINE
  8
0
 10
293.679
 20
-66.9027
 11
293.799
 21
-66.688
  0
LINE
  8
0
 10
293.799
 20
-66.688
 11
293.953
 21
-66.4967
  0
LINE
  8
0
 10
293.953
 20
-66.4967
 11
294.138
 21
-66.3342
  0
LINE
  8
0
 10
294.138
 20
-66.3342
 11
294.347
 21
-66.2053
  0
LINE
  8
0
 10
294.347
 20
-66.2053
 11
294.575
 21
-66.1136
  0
LINE
  8
0
 10
294.575
 20
-66.1136
 11
294.816
 21
-66.0617
  0
LINE
  8
0
 10
294.816
 20
-66.0617
 11
295.062
 21
-66.0513
  0
LINE
  8
0
 10
295.062
 20
-66.0513
 11
295.305
 21
-66.0825
  0
LINE
  8
0
 10
295.305
 20
-66.0825
 11
295.541
 21
-66.1546
  0
LINE
  8
0
 10
295.541
 20
-66.1546
 11
295.76
 21
-66.2653
  0
LINE
  8
0
 10
295.76
 20
-66.2653
 11
295.958
 21
-66.4115
  0
LINE
  8
0
 10
295.958
 20
-66.4115
 11
296.128
 21
-66.5891
  0
LINE
  8
0
 10
296.128
 20
-66.5891
 11
296.266
 21
-66.7928
  0
LINE
  8
0
 10
296.266
 20
-66.7928
 11
296.367
 21
-67.0169
  0
LINE
  8
0
 10
296.367
 20
-67.0169
 11
296.429
 21
-67.2549
  0
LINE
  8
0
 10
296.429
 20
-67.2549
 11
296.45
 21
-67.5
  0
LINE
  8
0
 10
296.45
 20
-67.5
 11
296.429
 21
-67.745
  0
LINE
  8
0
 10
296.429
 20
-67.745
 11
296.367
 21
-67.983
  0
LINE
  8
0
 10
296.367
 20
-67.983
 11
296.266
 21
-68.2072
  0
LINE
  8
0
 10
296.266
 20
-68.2072
 11
296.128
 21
-68.4109
  0
LINE
  8
0
 10
296.128
 20
-68.4109
 11
295.958
 21
-68.5885
  0
LINE
  8
0
 10
295.958
 20
-68.5885
 11
295.76
 21
-68.7347
  0
LINE
  8
0
 10
295.76
 20
-68.7347
 11
295.541
 21
-68.8454
  0
LINE
  8
0
 10
295.541
 20
-68.8454
 11
295.305
 21
-68.9174
  0
LINE
  8
0
 10
295.305
 20
-68.9174
 11
295.062
 21
-68.9487
  0
LINE
  8
0
 10
295.062
 20
-68.9487
 11
294.816
 21
-68.9382
  0
LINE
  8
0
 10
294.027
 20
-201.645
 11
293.783
 21
-201.609
  0
LINE
  8
0
 10
293.783
 20
-201.609
 11
293.547
 21
-201.536
  0
LINE
  8
0
 10
293.547
 20
-201.536
 11
293.325
 21
-201.429
  0
LINE
  8
0
 10
293.325
 20
-201.429
 11
293.121
 21
-201.29
  0
LINE
  8
0
 10
293.121
 20
-201.29
 11
292.94
 21
-201.122
  0
LINE
  8
0
 10
292.94
 20
-201.122
 11
292.787
 21
-200.929
  0
LINE
  8
0
 10
292.787
 20
-200.929
 11
292.663
 21
-200.716
  0
LINE
  8
0
 10
292.663
 20
-200.716
 11
292.573
 21
-200.486
  0
LINE
  8
0
 10
292.573
 20
-200.486
 11
292.518
 21
-200.246
  0
LINE
  8
0
 10
292.518
 20
-200.246
 11
292.5
 21
-200
  0
LINE
  8
0
 10
292.5
 20
-200
 11
292.518
 21
-199.754
  0
LINE
  8
0
 10
292.518
 20
-199.754
 11
292.573
 21
-199.514
  0
LINE
  8
0
 10
292.573
 20
-199.514
 11
292.663
 21
-199.284
  0
LINE
  8
0
 10
292.663
 20
-199.284
 11
292.787
 21
-199.071
  0
LINE
  8
0
 10
292.787
 20
-199.071
 11
292.94
 21
-198.878
  0
LINE
  8
0
 10
292.94
 20
-198.878
 11
293.121
 21
-198.71
  0
LINE
  8
0
 10
293.121
 20
-198.71
 11
293.325
 21
-198.571
  0
LINE
  8
0
 10
293.325
 20
-198.571
 11
293.547
 21
-198.464
  0
LINE
  8
0
 10
293.547
 20
-198.464
 11
293.783
 21
-198.391
  0
LINE
  8
0
 10
293.783
 20
-198.391
 11
294.027
 21
-198.355
  0
LINE
  8
0
 10
294.027
 20
-198.355
 11
302.273
 21
-198.355
  0
LINE
  8
0
 10
302.273
 20
-198.355
 11
302.517
 21
-198.391
  0
LINE
  8
0
 10
302.517
 20
-198.391
 11
302.753
 21
-198.464
  0
LINE
  8
0
 10
302.753
 20
-198.464
 11
302.975
 21
-198.571
  0
LINE
  8
0
 10
302.975
 20
-198.571
 11
303.179
 21
-198.71
  0
LINE
  8
0
 10
303.179
 20
-198.71
 11
303.36
 21
-198.878
  0
LINE
  8
0
 10
303.36
 20
-198.878
 11
303.513
 21
-199.071
  0
LINE
  8
0
 10
303.513
 20
-199.071
 11
303.637
 21
-199.284
  0
LINE
  8
0
 10
303.637
 20
-199.284
 11
303.727
 21
-199.514
  0
LINE
  8
0
 10
303.727
 20
-199.514
 11
303.782
 21
-199.754
  0
LINE
  8
0
 10
303.782
 20
-199.754
 11
303.8
 21
-200
  0
LINE
  8
0
 10
303.8
 20
-200
 11
303.782
 21
-200.246
  0
LINE
  8
0
 10
303.782
 20
-200.246
 11
303.727
 21
-200.486
  0
LINE
  8
0
 10
303.727
 20
-200.486
 11
303.637
 21
-200.716
  0
LINE
  8
0
 10
303.637
 20
-200.716
 11
303.513
 21
-200.929
  0
LINE
  8
0
 10
303.513
 20
-200.929
 11
303.36
 21
-201.122
  0
LINE
  8
0
 10
303.36
 20
-201.122
 11
303.179
 21
-201.29
  0
LINE
  8
0
 10
303.179
 20
-201.29
 11
302.975
 21
-201.429
  0
LINE
  8
0
 10
302.975
 20
-201.429
 11
302.753
 21
-201.536
  0
LINE
  8
0
 10
302.753
 20
-201.536
 11
302.517
 21
-201.609
  0
LINE
  8
0
 10
302.517
 20
-201.609
 11
302.273
 21
-201.645
  0
LINE
  8
0
 10
302.273
 20
-201.645
 11
294.027
 21
-201.645
  0
LINE
  8
0
 10
263.027
 20
-201.645
 11
262.783
 21
-201.609
  0
LINE
  8
0
 10
262.783
 20
-201.609
 11
262.547
 21
-201.536
  0
LINE
  8
0
 10
262.547
 20
-201.536
 11
262.325
 21
-201.429
  0
LINE
  8
0
 10
262.325
 20
-201.429
 11
262.121
 21
-201.29
  0
LINE
  8
0
 10
262.121
 20
-201.29
 11
261.94
 21
-201.122
  0
LINE
  8
0
 10
261.94
 20
-201.122
 11
261.787
 21
-200.929
  0
LINE
  8
0
 10
261.787
 20
-200.929
 11
261.663
 21
-200.716
  0
LINE
  8
0
 10
261.663
 20
-200.716
 11
261.573
 21
-200.486
  0
LINE
  8
0
 10
261.573
 20
-200.486
 11
261.518
 21
-200.246
  0
LINE
  8
0
 10
261.518
 20
-200.246
 11
261.5
 21
-200
  0
LINE
  8
0
 10
261.5
 20
-200
 11
261.518
 21
-199.754
  0
LINE
  8
0
 10
261.518
 20
-199.754
 11
261.573
 21
-199.514
  0
LINE
  8
0
 10
261.573
 20
-199.514
 11
261.663
 21
-199.284
  0
LINE
  8
0
 10
261.663
 20
-199.284
 11
261.787
 21
-199.071
  0
LINE
  8
0
 10
261.787
 20
-199.071
 11
261.94
 21
-198.878
  0
LINE
  8
0
 10
261.94
 20
-198.878
 11
262.121
 21
-198.71
  0
LINE
  8
0
 10
262.121
 20
-198.71
 11
262.325
 21
-198.571
  0
LINE
  8
0
 10
262.325
 20
-198.571
 11
262.547
 21
-198.464
  0
LINE
  8
0
 10
262.547
 20
-198.464
 11
262.783
 21
-198.391
  0
LINE
  8
0
 10
262.783
 20
-198.391
 11
263.027
 21
-198.355
  0
LINE
  8
0
 10
263.027
 20
-198.355
 11
271.273
 21
-198.355
  0
LINE
  8
0
 10
271.273
 20
-198.355
 11
271.517
 21
-198.391
  0
LINE
  8
0
 10
271.517
 20
-198.391
 11
271.753
 21
-198.464
  0
LINE
  8
0
 10
271.753
 20
-198.464
 11
271.975
 21
-198.571
  0
LINE
  8
0
 10
271.975
 20
-198.571
 11
272.179
 21
-198.71
  0
LINE
  8
0
 10
272.179
 20
-198.71
 11
272.36
 21
-198.878
  0
LINE
  8
0
 10
272.36
 20
-198.878
 11
272.513
 21
-199.071
  0
LINE
  8
0
 10
272.513
 20
-199.071
 11
272.637
 21
-199.284
  0
LINE
  8
0
 10
272.637
 20
-199.284
 11
272.727
 21
-199.514
  0
LINE
  8
0
 10
272.727
 20
-199.514
 11
272.782
 21
-199.754
  0
LINE
  8
0
 10
272.782
 20
-199.754
 11
272.8
 21
-200
  0
LINE
  8
0
 10
272.8
 20
-200
 11
272.782
 21
-200.246
  0
LINE
  8
0
 10
272.782
 20
-200.246
 11
272.727
 21
-200.486
  0
LINE
  8
0
 10
272.727
 20
-200.486
 11
272.637
 21
-200.716
  0
LINE
  8
0
 10
272.637
 20
-200.716
 11
272.513
 21
-200.929
  0
LINE
  8
0
 10
272.513
 20
-200.929
 11
272.36
 21
-201.122
  0
LINE
  8
0
 10
272.36
 20
-201.122
 11
272.179
 21
-201.29
  0
LINE
  8
0
 10
272.179
 20
-201.29
 11
271.975
 21
-201.429
  0
LINE
  8
0
 10
271.975
 20
-201.429
 11
271.753
 21
-201.536
  0
LINE
  8
0
 10
271.753
 20
-201.536
 11
271.517
 21
-201.609
  0
LINE
  8
0
 10
271.517
 20
-201.609
 11
271.273
 21
-201.645
  0
LINE
  8
0
 10
271.273
 20
-201.645
 11
263.027
 21
-201.645
  0
LINE
  8
0
 10
278.15
 20
-228
 11
276.843
 21
-227.932
  0
LINE
  8
0
 10
276.843
 20
-227.932
 11
275.551
 21
-227.727
  0
LINE
  8
0
 10
275.551
 20
-227.727
 11
274.287
 21
-227.388
  0
LINE
  8
0
 10
274.287
 20
-227.388
 11
273.066
 21
-226.919
  0
LINE
  8
0
 10
273.066
 20
-226.919
 11
271.9
 21
-226.325
  0
LINE
  8
0
 10
271.9
 20
-226.325
 11
270.803
 21
-225.613
  0
LINE
  8
0
 10
270.803
 20
-225.613
 11
269.786
 21
-224.789
  0
LINE
  8
0
 10
269.786
 20
-224.789
 11
268.861
 21
-223.864
  0
LINE
  8
0
 10
268.861
 20
-223.864
 11
268.037
 21
-222.847
  0
LINE
  8
0
 10
268.037
 20
-222.847
 11
267.325
 21
-221.75
  0
LINE
  8
0
 10
267.325
 20
-221.75
 11
266.731
 21
-220.584
  0
LINE
  8
0
 10
266.731
 20
-220.584
 11
266.262
 21
-219.363
  0
LINE
  8
0
 10
266.262
 20
-219.363
 11
265.923
 21
-218.099
  0
LINE
  8
0
 10
265.923
 20
-218.099
 11
265.718
 21
-216.807
  0
LINE
  8
0
 10
265.718
 20
-216.807
 11
265.65
 21
-215.5
  0
LINE
  8
0
 10
265.65
 20
-215.5
 11
265.718
 21
-214.193
  0
LINE
  8
0
 10
265.718
 20
-214.193
 11
265.923
 21
-212.901
  0
LINE
  8
0
 10
265.923
 20
-212.901
 11
266.262
 21
-211.637
  0
LINE
  8
0
 10
266.262
 20
-211.637
 11
266.731
 21
-210.416
  0
LINE
  8
0
 10
266.731
 20
-210.416
 11
267.325
 21
-209.25
  0
LINE
  8
0
 10
267.325
 20
-209.25
 11
268.037
 21
-208.153
  0
LINE
  8
0
 10
268.037
 20
-208.153
 11
268.861
 21
-207.136
  0
LINE
  8
0
 10
268.861
 20
-207.136
 11
269.786
 21
-206.211
  0
LINE
  8
0
 10
269.786
 20
-206.211
 11
270.803
 21
-205.387
  0
LINE
  8
0
 10
270.803
 20
-205.387
 11
271.9
 21
-204.675
  0
LINE
  8
0
 10
271.9
 20
-204.675
 11
273.066
 21
-204.081
  0
LINE
  8
0
 10
273.066
 20
-204.081
 11
274.287
 21
-203.612
  0
LINE
  8
0
 10
274.287
 20
-203.612
 11
275.551
 21
-203.273
  0
LINE
  8
0
 10
275.551
 20
-203.273
 11
276.843
 21
-203.068
  0
LINE
  8
0
 10
276.843
 20
-203.068
 11
278.15
 21
-203
  0
LINE
  8
0
 10
278.15
 20
-203
 11
286.15
 21
-203
  0
LINE
  8
0
 10
286.15
 20
-203
 11
287.457
 21
-203.068
  0
LINE
  8
0
 10
287.457
 20
-203.068
 11
288.749
 21
-203.273
  0
LINE
  8
0
 10
288.749
 20
-203.273
 11
290.013
 21
-203.612
  0
LINE
  8
0
 10
290.013
 20
-203.612
 11
291.234
 21
-204.081
  0
LINE
  8
0
 10
291.234
 20
-204.081
 11
292.4
 21
-204.675
  0
LINE
  8
0
 10
292.4
 20
-204.675
 11
293.497
 21
-205.387
  0
LINE
  8
0
 10
293.497
 20
-205.387
 11
294.514
 21
-206.211
  0
LINE
  8
0
 10
294.514
 20
-206.211
 11
295.439
 21
-207.136
  0
LINE
  8
0
 10
295.439
 20
-207.136
 11
296.263
 21
-208.153
  0
LINE
  8
0
 10
296.263
 20
-208.153
 11
296.975
 21
-209.25
  0
LINE
  8
0
 10
296.975
 20
-209.25
 11
297.569
 21
-210.416
  0
LINE
  8
0
 10
297.569
 20
-210.416
 11
298.038
 21
-211.637
  0
LINE
  8
0
 10
298.038
 20
-211.637
 11
298.377
 21
-212.901
  0
LINE
  8
0
 10
298.377
 20
-212.901
 11
298.582
 21
-214.193
  0
LINE
  8
0
 10
298.582
 20
-214.193
 11
298.65
 21
-215.5
  0
LINE
  8
0
 10
298.65
 20
-215.5
 11
298.582
 21
-216.807
  0
LINE
  8
0
 10
298.582
 20
-216.807
 11
298.377
 21
-218.099
  0
LINE
  8
0
 10
298.377
 20
-218.099
 11
298.038
 21
-219.363
  0
LINE
  8
0
 10
298.038
 20
-219.363
 11
297.569
 21
-220.584
  0
LINE
  8
0
 10
297.569
 20
-220.584
 11
296.975
 21
-221.75
  0
LINE
  8
0
 10
296.975
 20
-221.75
 11
296.263
 21
-222.847
  0
LINE
  8
0
 10
296.263
 20
-222.847
 11
295.439
 21
-223.864
  0
LINE
  8
0
 10
295.439
 20
-223.864
 11
294.514
 21
-224.789
  0
LINE
  8
0
 10
294.514
 20
-224.789
 11
293.497
 21
-225.613
  0
LINE
  8
0
 10
293.497
 20
-225.613
 11
292.4
 21
-226.325
  0
LINE
  8
0
 10
292.4
 20
-226.325
 11
291.234
 21
-226.919
  0
LINE
  8
0
 10
291.234
 20
-226.919
 11
290.013
 21
-227.388
  0
LINE
  8
0
 10
290.013
 20
-227.388
 11
288.749
 21
-227.727
  0
LINE
  8
0
 10
288.749
 20
-227.727
 11
287.457
 21
-227.932
  0
LINE
  8
0
 10
287.457
 20
-227.932
 11
286.15
 21
-228
  0
LINE
  8
0
 10
286.15
 20
-228
 11
278.15
 21
-228
  0
LINE
  8
0
 10
-264.744
 20
-205.726
 11
-264.978
 21
-205.655
  0
LINE
  8
0
 10
-264.978
 20
-205.655
 11
-265.194
 21
-205.539
  0
LINE
  8
0
 10
-265.194
 20
-205.539
 11
-265.384
 21
-205.384
  0
LINE
  8
0
 10
-265.384
 20
-205.384
 11
-265.539
 21
-205.194
  0
LINE
  8
0
 10
-265.539
 20
-205.194
 11
-265.655
 21
-204.978
  0
LINE
  8
0
 10
-265.655
 20
-204.978
 11
-265.726
 21
-204.744
  0
LINE
  8
0
 10
-265.726
 20
-204.744
 11
-265.75
 21
-204.5
  0
LINE
  8
0
 10
-265.75
 20
-204.5
 11
-265.726
 21
-204.256
  0
LINE
  8
0
 10
-265.726
 20
-204.256
 11
-265.655
 21
-204.022
  0
LINE
  8
0
 10
-265.655
 20
-204.022
 11
-265.539
 21
-203.806
  0
LINE
  8
0
 10
-265.539
 20
-203.806
 11
-265.384
 21
-203.616
  0
LINE
  8
0
 10
-265.384
 20
-203.616
 11
-265.194
 21
-203.461
  0
LINE
  8
0
 10
-265.194
 20
-203.461
 11
-264.978
 21
-203.345
  0
LINE
  8
0
 10
-264.978
 20
-203.345
 11
-264.744
 21
-203.274
  0
LINE
  8
0
 10
-264.744
 20
-203.274
 11
-264.5
 21
-203.25
  0
LINE
  8
0
 10
-264.5
 20
-203.25
 11
-264.256
 21
-203.274
  0
LINE
  8
0
 10
-264.256
 20
-203.274
 11
-264.022
 21
-203.345
  0
LINE
  8
0
 10
-264.022
 20
-203.345
 11
-263.806
 21
-203.461
  0
LINE
  8
0
 10
-263.806
 20
-203.461
 11
-263.616
 21
-203.616
  0
LINE
  8
0
 10
-263.616
 20
-203.616
 11
-263.461
 21
-203.806
  0
LINE
  8
0
 10
-263.461
 20
-203.806
 11
-263.345
 21
-204.022
  0
LINE
  8
0
 10
-263.345
 20
-204.022
 11
-263.274
 21
-204.256
  0
LINE
  8
0
 10
-263.274
 20
-204.256
 11
-263.25
 21
-204.5
  0
LINE
  8
0
 10
-263.25
 20
-204.5
 11
-263.274
 21
-204.744
  0
LINE
  8
0
 10
-263.274
 20
-204.744
 11
-263.345
 21
-204.978
  0
LINE
  8
0
 10
-263.345
 20
-204.978
 11
-263.461
 21
-205.194
  0
LINE
  8
0
 10
-263.461
 20
-205.194
 11
-263.616
 21
-205.384
  0
LINE
  8
0
 10
-263.616
 20
-205.384
 11
-263.806
 21
-205.539
  0
LINE
  8
0
 10
-263.806
 20
-205.539
 11
-264.022
 21
-205.655
  0
LINE
  8
0
 10
-264.022
 20
-205.655
 11
-264.256
 21
-205.726
  0
LINE
  8
0
 10
-264.256
 20
-205.726
 11
-264.5
 21
-205.75
  0
LINE
  8
0
 10
-264.5
 20
-205.75
 11
-264.744
 21
-205.726
  0
LINE
  8
0
 10
-237.686
 20
-209.19
 11
-237.93
 21
-209.145
  0
LINE
  8
0
 10
-237.93
 20
-209.145
 11
-238.165
 21
-209.065
  0
LINE
  8
0
 10
-238.165
 20
-209.065
 11
-238.386
 21
-208.951
  0
LINE
  8
0
 10
-238.386
 20
-208.951
 11
-238.587
 21
-208.807
  0
LINE
  8
0
 10
-238.587
 20
-208.807
 11
-238.766
 21
-208.634
  0
LINE
  8
0
 10
-238.766
 20
-208.634
 11
-238.918
 21
-208.438
  0
LINE
  8
0
 10
-238.918
 20
-208.438
 11
-239.039
 21
-208.222
  0
LINE
  8
0
 10
-239.039
 20
-208.222
 11
-239.128
 21
-207.99
  0
LINE
  8
0
 10
-239.128
 20
-207.99
 11
-239.182
 21
-207.748
  0
LINE
  8
0
 10
-239.182
 20
-207.748
 11
-239.2
 21
-207.5
  0
LINE
  8
0
 10
-239.2
 20
-207.5
 11
-239.182
 21
-207.252
  0
LINE
  8
0
 10
-239.182
 20
-207.252
 11
-239.128
 21
-207.01
  0
LINE
  8
0
 10
-239.128
 20
-207.01
 11
-239.039
 21
-206.778
  0
LINE
  8
0
 10
-239.039
 20
-206.778
 11
-238.918
 21
-206.562
  0
LINE
  8
0
 10
-238.918
 20
-206.562
 11
-238.766
 21
-206.366
  0
LINE
  8
0
 10
-238.766
 20
-206.366
 11
-238.587
 21
-206.193
  0
LINE
  8
0
 10
-238.587
 20
-206.193
 11
-238.386
 21
-206.049
  0
LINE
  8
0
 10
-238.386
 20
-206.049
 11
-238.165
 21
-205.935
  0
LINE
  8
0
 10
-238.165
 20
-205.935
 11
-237.93
 21
-205.855
  0
LINE
  8
0
 10
-237.93
 20
-205.855
 11
-237.686
 21
-205.81
  0
LINE
  8
0
 10
-237.686
 20
-205.81
 11
-237.438
 21
-205.801
  0
LINE
  8
0
 10
-237.438
 20
-205.801
 11
-237.191
 21
-205.828
  0
LINE
  8
0
 10
-237.191
 20
-205.828
 11
-236.951
 21
-205.891
  0
LINE
  8
0
 10
-236.951
 20
-205.891
 11
-236.723
 21
-205.988
  0
LINE
  8
0
 10
-236.723
 20
-205.988
 11
-236.511
 21
-206.117
  0
LINE
  8
0
 10
-236.511
 20
-206.117
 11
-236.32
 21
-206.276
  0
LINE
  8
0
 10
-236.32
 20
-206.276
 11
-236.154
 21
-206.461
  0
LINE
  8
0
 10
-236.154
 20
-206.461
 11
-236.018
 21
-206.668
  0
LINE
  8
0
 10
-236.018
 20
-206.668
 11
-235.912
 21
-206.893
  0
LINE
  8
0
 10
-235.912
 20
-206.893
 11
-235.841
 21
-207.13
  0
LINE
  8
0
 10
-235.841
 20
-207.13
 11
-235.805
 21
-207.376
  0
LINE
  8
0
 10
-235.805
 20
-207.376
 11
-235.805
 21
-207.624
  0
LINE
  8
0
 10
-235.805
 20
-207.624
 11
-235.841
 21
-207.87
  0
LINE
  8
0
 10
-235.841
 20
-207.87
 11
-235.912
 21
-208.107
  0
LINE
  8
0
 10
-235.912
 20
-208.107
 11
-236.018
 21
-208.332
  0
LINE
  8
0
 10
-236.018
 20
-208.332
 11
-236.154
 21
-208.539
  0
LINE
  8
0
 10
-236.154
 20
-208.539
 11
-236.32
 21
-208.724
  0
LINE
  8
0
 10
-236.32
 20
-208.724
 11
-236.511
 21
-208.883
  0
LINE
  8
0
 10
-236.511
 20
-208.883
 11
-236.723
 21
-209.012
  0
LINE
  8
0
 10
-236.723
 20
-209.012
 11
-236.951
 21
-209.109
  0
LINE
  8
0
 10
-236.951
 20
-209.109
 11
-237.191
 21
-209.172
  0
LINE
  8
0
 10
-237.191
 20
-209.172
 11
-237.438
 21
-209.199
  0
LINE
  8
0
 10
-237.438
 20
-209.199
 11
-237.686
 21
-209.19
  0
LINE
  8
0
 10
237.191
 20
-209.172
 11
236.951
 21
-209.109
  0
LINE
  8
0
 10
236.951
 20
-209.109
 11
236.723
 21
-209.012
  0
LINE
  8
0
 10
236.723
 20
-209.012
 11
236.511
 21
-208.883
  0
LINE
  8
0
 10
236.511
 20
-208.883
 11
236.32
 21
-208.724
  0
LINE
  8
0
 10
236.32
 20
-208.724
 11
236.154
 21
-208.539
  0
LINE
  8
0
 10
236.154
 20
-208.539
 11
236.018
 21
-208.332
  0
LINE
  8
0
 10
236.018
 20
-208.332
 11
235.912
 21
-208.107
  0
LINE
  8
0
 10
235.912
 20
-208.107
 11
235.841
 21
-207.87
  0
LINE
  8
0
 10
235.841
 20
-207.87
 11
235.805
 21
-207.624
  0
LINE
  8
0
 10
235.805
 20
-207.624
 11
235.805
 21
-207.376
  0
LINE
  8
0
 10
235.805
 20
-207.376
 11
235.841
 21
-207.13
  0
LINE
  8
0
 10
235.841
 20
-207.13
 11
235.912
 21
-206.893
  0
LINE
  8
0
 10
235.912
 20
-206.893
 11
236.018
 21
-206.668
  0
LINE
  8
0
 10
236.018
 20
-206.668
 11
236.154
 21
-206.461
  0
LINE
  8
0
 10
236.154
 20
-206.461
 11
236.32
 21
-206.276
  0
LINE
  8
0
 10
236.32
 20
-206.276
 11
236.511
 21
-206.117
  0
LINE
  8
0
 10
236.511
 20
-206.117
 11
236.723
 21
-205.988
  0
LINE
  8
0
 10
236.723
 20
-205.988
 11
236.951
 21
-205.891
  0
LINE
  8
0
 10
236.951
 20
-205.891
 11
237.191
 21
-205.828
  0
LINE
  8
0
 10
237.191
 20
-205.828
 11
237.438
 21
-205.801
  0
LINE
  8
0
 10
237.438
 20
-205.801
 11
237.686
 21
-205.81
  0
LINE
  8
0
 10
237.686
 20
-205.81
 11
237.93
 21
-205.855
  0
LINE
  8
0
 10
237.93
 20
-205.855
 11
238.165
 21
-205.935
  0
LINE
  8
0
 10
238.165
 20
-205.935
 11
238.386
 21
-206.049
  0
LINE
  8
0
 10
238.386
 20
-206.049
 11
238.587
 21
-206.193
  0
LINE
  8
0
 10
238.587
 20
-206.193
 11
238.766
 21
-206.366
  0
LINE
  8
0
 10
238.766
 20
-206.366
 11
238.918
 21
-206.562
  0
LINE
  8
0
 10
238.918
 20
-206.562
 11
239.039
 21
-206.778
  0
LINE
  8
0
 10
239.039
 20
-206.778
 11
239.128
 21
-207.01
  0
LINE
  8
0
 10
239.128
 20
-207.01
 11
239.182
 21
-207.252
  0
LINE
  8
0
 10
239.182
 20
-207.252
 11
239.2
 21
-207.5
  0
LINE
  8
0
 10
239.2
 20
-207.5
 11
239.182
 21
-207.748
  0
LINE
  8
0
 10
239.182
 20
-207.748
 11
239.128
 21
-207.99
  0
LINE
  8
0
 10
239.128
 20
-207.99
 11
239.039
 21
-208.222
  0
LINE
  8
0
 10
239.039
 20
-208.222
 11
238.918
 21
-208.438
  0
LINE
  8
0
 10
238.918
 20
-208.438
 11
238.766
 21
-208.634
  0
LINE
  8
0
 10
238.766
 20
-208.634
 11
238.587
 21
-208.807
  0
LINE
  8
0
 10
238.587
 20
-208.807
 11
238.386
 21
-208.951
  0
LINE
  8
0
 10
238.386
 20
-208.951
 11
238.165
 21
-209.065
  0
LINE
  8
0
 10
238.165
 20
-209.065
 11
237.93
 21
-209.145
  0
LINE
  8
0
 10
237.93
 20
-209.145
 11
237.686
 21
-209.19
  0
LINE
  8
0
 10
237.686
 20
-209.19
 11
237.438
 21
-209.199
  0
LINE
  8
0
 10
237.438
 20
-209.199
 11
237.191
 21
-209.172
  0
LINE
  8
0
 10
-284.894
 20
-216.726
 11
-285.128
 21
-216.655
  0
LINE
  8
0
 10
-285.128
 20
-216.655
 11
-285.344
 21
-216.539
  0
LINE
  8
0
 10
-285.344
 20
-216.539
 11
-285.534
 21
-216.384
  0
LINE
  8
0
 10
-285.534
 20
-216.384
 11
-285.689
 21
-216.194
  0
LINE
  8
0
 10
-285.689
 20
-216.194
 11
-285.805
 21
-215.978
  0
LINE
  8
0
 10
-285.805
 20
-215.978
 11
-285.876
 21
-215.744
  0
LINE
  8
0
 10
-285.876
 20
-215.744
 11
-285.9
 21
-215.5
  0
LINE
  8
0
 10
-285.9
 20
-215.5
 11
-285.876
 21
-215.256
  0
LINE
  8
0
 10
-285.876
 20
-215.256
 11
-285.805
 21
-215.022
  0
LINE
  8
0
 10
-285.805
 20
-215.022
 11
-285.689
 21
-214.806
  0
LINE
  8
0
 10
-285.689
 20
-214.806
 11
-285.534
 21
-214.616
  0
LINE
  8
0
 10
-285.534
 20
-214.616
 11
-285.344
 21
-214.461
  0
LINE
  8
0
 10
-285.344
 20
-214.461
 11
-285.128
 21
-214.345
  0
LINE
  8
0
 10
-285.128
 20
-214.345
 11
-284.894
 21
-214.274
  0
LINE
  8
0
 10
-284.894
 20
-214.274
 11
-284.65
 21
-214.25
  0
LINE
  8
0
 10
-284.65
 20
-214.25
 11
-284.406
 21
-214.274
  0
LINE
  8
0
 10
-284.406
 20
-214.274
 11
-284.172
 21
-214.345
  0
LINE
  8
0
 10
-284.172
 20
-214.345
 11
-283.956
 21
-214.461
  0
LINE
  8
0
 10
-283.956
 20
-214.461
 11
-283.766
 21
-214.616
  0
LINE
  8
0
 10
-283.766
 20
-214.616
 11
-283.611
 21
-214.806
  0
LINE
  8
0
 10
-283.611
 20
-214.806
 11
-283.495
 21
-215.022
  0
LINE
  8
0
 10
-283.495
 20
-215.022
 11
-283.424
 21
-215.256
  0
LINE
  8
0
 10
-283.424
 20
-215.256
 11
-283.4
 21
-215.5
  0
LINE
  8
0
 10
-283.4
 20
-215.5
 11
-283.424
 21
-215.744
  0
LINE
  8
0
 10
-283.424
 20
-215.744
 11
-283.495
 21
-215.978
  0
LINE
  8
0
 10
-283.495
 20
-215.978
 11
-283.611
 21
-216.194
  0
LINE
  8
0
 10
-283.611
 20
-216.194
 11
-283.766
 21
-216.384
  0
LINE
  8
0
 10
-283.766
 20
-216.384
 11
-283.956
 21
-216.539
  0
LINE
  8
0
 10
-283.956
 20
-216.539
 11
-284.172
 21
-216.655
  0
LINE
  8
0
 10
-284.172
 20
-216.655
 11
-284.406
 21
-216.726
  0
LINE
  8
0
 10
-284.406
 20
-216.726
 11
-284.65
 21
-216.75
  0
LINE
  8
0
 10
-284.65
 20
-216.75
 11
-284.894
 21
-216.726
  0
LINE
  8
0
 10
237.108
 20
-233.729
 11
236.72
 21
-233.668
  0
LINE
  8
0
 10
236.72
 20
-233.668
 11
236.341
 21
-233.566
  0
LINE
  8
0
 10
236.341
 20
-233.566
 11
235.975
 21
-233.426
  0
LINE
  8
0
 10
235.975
 20
-233.426
 11
235.625
 21
-233.248
  0
LINE
  8
0
 10
235.625
 20
-233.248
 11
235.296
 21
-233.034
  0
LINE
  8
0
 10
235.296
 20
-233.034
 11
234.991
 21
-232.787
  0
LINE
  8
0
 10
234.991
 20
-232.787
 11
234.713
 21
-232.509
  0
LINE
  8
0
 10
234.713
 20
-232.509
 11
234.466
 21
-232.204
  0
LINE
  8
0
 10
234.466
 20
-232.204
 11
234.252
 21
-231.875
  0
LINE
  8
0
 10
234.252
 20
-231.875
 11
234.074
 21
-231.525
  0
LINE
  8
0
 10
234.074
 20
-231.525
 11
233.934
 21
-231.159
  0
LINE
  8
0
 10
233.934
 20
-231.159
 11
233.832
 21
-230.78
  0
LINE
  8
0
 10
233.832
 20
-230.78
 11
233.771
 21
-230.392
  0
LINE
  8
0
 10
233.771
 20
-230.392
 11
233.75
 21
-230
  0
LINE
  8
0
 10
233.75
 20
-230
 11
233.771
 21
-229.608
  0
LINE
  8
0
 10
233.771
 20
-229.608
 11
233.832
 21
-229.22
  0
LINE
  8
0
 10
233.832
 20
-229.22
 11
233.934
 21
-228.841
  0
LINE
  8
0
 10
233.934
 20
-228.841
 11
234.074
 21
-228.475
  0
LINE
  8
0
 10
234.074
 20
-228.475
 11
234.252
 21
-228.125
  0
LINE
  8
0
 10
234.252
 20
-228.125
 11
234.466
 21
-227.796
  0
LINE
  8
0
 10
234.466
 20
-227.796
 11
234.713
 21
-227.491
  0
LINE
  8
0
 10
234.713
 20
-227.491
 11
234.991
 21
-227.213
  0
LINE
  8
0
 10
234.991
 20
-227.213
 11
235.296
 21
-226.966
  0
LINE
  8
0
 10
235.296
 20
-226.966
 11
235.625
 21
-226.752
  0
LINE
  8
0
 10
235.625
 20
-226.752
 11
235.975
 21
-226.574
  0
LINE
  8
0
 10
235.975
 20
-226.574
 11
236.341
 21
-226.434
  0
LINE
  8
0
 10
236.341
 20
-226.434
 11
236.72
 21
-226.332
  0
LINE
  8
0
 10
236.72
 20
-226.332
 11
237.108
 21
-226.271
  0
LINE
  8
0
 10
237.108
 20
-226.271
 11
237.5
 21
-226.25
  0
LINE
  8
0
 10
237.5
 20
-226.25
 11
237.892
 21
-226.271
  0
LINE
  8
0
 10
237.892
 20
-226.271
 11
238.28
 21
-226.332
  0
LINE
  8
0
 10
238.28
 20
-226.332
 11
238.659
 21
-226.434
  0
LINE
  8
0
 10
238.659
 20
-226.434
 11
239.025
 21
-226.574
  0
LINE
  8
0
 10
239.025
 20
-226.574
 11
239.375
 21
-226.752
  0
LINE
  8
0
 10
239.375
 20
-226.752
 11
239.704
 21
-226.966
  0
LINE
  8
0
 10
239.704
 20
-226.966
 11
240.009
 21
-227.213
  0
LINE
  8
0
 10
240.009
 20
-227.213
 11
240.287
 21
-227.491
  0
LINE
  8
0
 10
240.287
 20
-227.491
 11
240.534
 21
-227.796
  0
LINE
  8
0
 10
240.534
 20
-227.796
 11
240.748
 21
-228.125
  0
LINE
  8
0
 10
240.748
 20
-228.125
 11
240.926
 21
-228.475
  0
LINE
  8
0
 10
240.926
 20
-228.475
 11
241.066
 21
-228.841
  0
LINE
  8
0
 10
241.066
 20
-228.841
 11
241.168
 21
-229.22
  0
LINE
  8
0
 10
241.168
 20
-229.22
 11
241.229
 21
-229.608
  0
LINE
  8
0
 10
241.229
 20
-229.608
 11
241.25
 21
-230
  0
LINE
  8
0
 10
241.25
 20
-230
 11
241.229
 21
-230.392
  0
LINE
  8
0
 10
241.229
 20
-230.392
 11
241.168
 21
-230.78
  0
LINE
  8
0
 10
241.168
 20
-230.78
 11
241.066
 21
-231.159
  0
LINE
  8
0
 10
241.066
 20
-231.159
 11
240.926
 21
-231.525
  0
LINE
  8
0
 10
240.926
 20
-231.525
 11
240.748
 21
-231.875
  0
LINE
  8
0
 10
240.748
 20
-231.875
 11
240.534
 21
-232.204
  0
LINE
  8
0
 10
240.534
 20
-232.204
 11
240.287
 21
-232.509
  0
LINE
  8
0
 10
240.287
 20
-232.509
 11
240.009
 21
-232.787
  0
LINE
  8
0
 10
240.009
 20
-232.787
 11
239.704
 21
-233.034
  0
LINE
  8
0
 10
239.704
 20
-233.034
 11
239.375
 21
-233.248
  0
LINE
  8
0
 10
239.375
 20
-233.248
 11
239.025
 21
-233.426
  0
LINE
  8
0
 10
239.025
 20
-233.426
 11
238.659
 21
-233.566
  0
LINE
  8
0
 10
238.659
 20
-233.566
 11
238.28
 21
-233.668
  0
LINE
  8
0
 10
238.28
 20
-233.668
 11
237.892
 21
-233.729
  0
LINE
  8
0
 10
237.892
 20
-233.729
 11
237.5
 21
-233.75
  0
LINE
  8
0
 10
237.5
 20
-233.75
 11
237.108
 21
-233.729
  0
LINE
  8
0
 10
-237.892
 20
-233.729
 11
-238.28
 21
-233.668
  0
LINE
  8
0
 10
-238.28
 20
-233.668
 11
-238.659
 21
-233.566
  0
LINE
  8
0
 10
-238.659
 20
-233.566
 11
-239.025
 21
-233.426
  0
LINE
  8
0
 10
-239.025
 20
-233.426
 11
-239.375
 21
-233.248
  0
LINE
  8
0
 10
-239.375
 20
-233.248
 11
-239.704
 21
-233.034
  0
LINE
  8
0
 10
-239.704
 20
-233.034
 11
-240.009
 21
-232.787
  0
LINE
  8
0
 10
-240.009
 20
-232.787
 11
-240.287
 21
-232.509
  0
LINE
  8
0
 10
-240.287
 20
-232.509
 11
-240.534
 21
-232.204
  0
LINE
  8
0
 10
-240.534
 20
-232.204
 11
-240.748
 21
-231.875
  0
LINE
  8
0
 10
-240.748
 20
-231.875
 11
-240.926
 21
-231.525
  0
LINE
  8
0
 10
-240.926
 20
-231.525
 11
-241.066
 21
-231.159
  0
LINE
  8
0
 10
-241.066
 20
-231.159
 11
-241.168
 21
-230.78
  0
LINE
  8
0
 10
-241.168
 20
-230.78
 11
-241.229
 21
-230.392
  0
LINE
  8
0
 10
-241.229
 20
-230.392
 11
-241.25
 21
-230
  0
LINE
  8
0
 10
-241.25
 20
-230
 11
-241.229
 21
-229.608
  0
LINE
  8
0
 10
-241.229
 20
-229.608
 11
-241.168
 21
-229.22
  0
LINE
  8
0
 10
-241.168
 20
-229.22
 11
-241.066
 21
-228.841
  0
LINE
  8
0
 10
-241.066
 20
-228.841
 11
-240.926
 21
-228.475
  0
LINE
  8
0
 10
-240.926
 20
-228.475
 11
-240.748
 21
-228.125
  0
LINE
  8
0
 10
-240.748
 20
-228.125
 11
-240.534
 21
-227.796
  0
LINE
  8
0
 10
-240.534
 20
-227.796
 11
-240.287
 21
-227.491
  0
LINE
  8
0
 10
-240.287
 20
-227.491
 11
-240.009
 21
-227.213
  0
LINE
  8
0
 10
-240.009
 20
-227.213
 11
-239.704
 21
-226.966
  0
LINE
  8
0
 10
-239.704
 20
-226.966
 11
-239.375
 21
-226.752
  0
LINE
  8
0
 10
-239.375
 20
-226.752
 11
-239.025
 21
-226.574
  0
LINE
  8
0
 10
-239.025
 20
-226.574
 11
-238.659
 21
-226.434
  0
LINE
  8
0
 10
-238.659
 20
-226.434
 11
-238.28
 21
-226.332
  0
LINE
  8
0
 10
-238.28
 20
-226.332
 11
-237.892
 21
-226.271
  0
LINE
  8
0
 10
-237.892
 20
-226.271
 11
-237.5
 21
-226.25
  0
LINE
  8
0
 10
-237.5
 20
-226.25
 11
-237.108
 21
-226.271
  0
LINE
  8
0
 10
-237.108
 20
-226.271
 11
-236.72
 21
-226.332
  0
LINE
  8
0
 10
-236.72
 20
-226.332
 11
-236.341
 21
-226.434
  0
LINE
  8
0
 10
-236.341
 20
-226.434
 11
-235.975
 21
-226.574
  0
LINE
  8
0
 10
-235.975
 20
-226.574
 11
-235.625
 21
-226.752
  0
LINE
  8
0
 10
-235.625
 20
-226.752
 11
-235.296
 21
-226.966
  0
LINE
  8
0
 10
-235.296
 20
-226.966
 11
-234.991
 21
-227.213
  0
LINE
  8
0
 10
-234.991
 20
-227.213
 11
-234.713
 21
-227.491
  0
LINE
  8
0
 10
-234.713
 20
-227.491
 11
-234.466
 21
-227.796
  0
LINE
  8
0
 10
-234.466
 20
-227.796
 11
-234.252
 21
-228.125
  0
LINE
  8
0
 10
-234.252
 20
-228.125
 11
-234.074
 21
-228.475
  0
LINE
  8
0
 10
-234.074
 20
-228.475
 11
-233.934
 21
-228.841
  0
LINE
  8
0
 10
-233.934
 20
-228.841
 11
-233.832
 21
-229.22
  0
LINE
  8
0
 10
-233.832
 20
-229.22
 11
-233.771
 21
-229.608
  0
LINE
  8
0
 10
-233.771
 20
-229.608
 11
-233.75
 21
-230
  0
LINE
  8
0
 10
-233.75
 20
-230
 11
-233.771
 21
-230.392
  0
LINE
  8
0
 10
-233.771
 20
-230.392
 11
-233.832
 21
-230.78
  0
LINE
  8
0
 10
-233.832
 20
-230.78
 11
-233.934
 21
-231.159
  0
LINE
  8
0
 10
-233.934
 20
-231.159
 11
-234.074
 21
-231.525
  0
LINE
  8
0
 10
-234.074
 20
-231.525
 11
-234.252
 21
-231.875
  0
LINE
  8
0
 10
-234.252
 20
-231.875
 11
-234.466
 21
-232.204
  0
LINE
  8
0
 10
-234.466
 20
-232.204
 11
-234.713
 21
-232.509
  0
LINE
  8
0
 10
-234.713
 20
-232.509
 11
-234.991
 21
-232.787
  0
LINE
  8
0
 10
-234.991
 20
-232.787
 11
-235.296
 21
-233.034
  0
LINE
  8
0
 10
-235.296
 20
-233.034
 11
-235.625
 21
-233.248
  0
LINE
  8
0
 10
-235.625
 20
-233.248
 11
-235.975
 21
-233.426
  0
LINE
  8
0
 10
-235.975
 20
-233.426
 11
-236.341
 21
-233.566
  0
LINE
  8
0
 10
-236.341
 20
-233.566
 11
-236.72
 21
-233.668
  0
LINE
  8
0
 10
-236.72
 20
-233.668
 11
-237.108
 21
-233.729
  0
LINE
  8
0
 10
-237.108
 20
-233.729
 11
-237.5
 21
-233.75
  0
LINE
  8
0
 10
-237.5
 20
-233.75
 11
-237.892
 21
-233.729
  0
LINE
  8
0
 10
72.5
 20
-231.75
 11
72.2509
 21
-231.732
  0
LINE
  8
0
 10
72.2509
 20
-231.732
 11
72.007
 21
-231.679
  0
LINE
  8
0
 10
72.007
 20
-231.679
 11
71.773
 21
-231.592
  0
LINE
  8
0
 10
71.773
 20
-231.592
 11
71.5539
 21
-231.472
  0
LINE
  8
0
 10
71.5539
 20
-231.472
 11
71.354
 21
-231.323
  0
LINE
  8
0
 10
71.354
 20
-231.323
 11
71.1774
 21
-231.146
  0
LINE
  8
0
 10
71.1774
 20
-231.146
 11
71.0278
 21
-230.946
  0
LINE
  8
0
 10
71.0278
 20
-230.946
 11
70.9081
 21
-230.727
  0
LINE
  8
0
 10
70.9081
 20
-230.727
 11
70.8209
 21
-230.493
  0
LINE
  8
0
 10
70.8209
 20
-230.493
 11
70.7678
 21
-230.249
  0
LINE
  8
0
 10
70.7678
 20
-230.249
 11
70.75
 21
-230
  0
LINE
  8
0
 10
70.75
 20
-230
 11
70.7678
 21
-229.751
  0
LINE
  8
0
 10
70.7678
 20
-229.751
 11
70.8209
 21
-229.507
  0
LINE
  8
0
 10
70.8209
 20
-229.507
 11
70.9081
 21
-229.273
  0
LINE
  8
0
 10
70.9081
 20
-229.273
 11
71.0278
 21
-229.054
  0
LINE
  8
0
 10
71.0278
 20
-229.054
 11
71.1774
 21
-228.854
  0
LINE
  8
0
 10
71.1774
 20
-228.854
 11
71.354
 21
-228.677
  0
LINE
  8
0
 10
71.354
 20
-228.677
 11
71.5539
 21
-228.528
  0
LINE
  8
0
 10
71.5539
 20
-228.528
 11
71.773
 21
-228.408
  0
LINE
  8
0
 10
71.773
 20
-228.408
 11
72.007
 21
-228.321
  0
LINE
  8
0
 10
72.007
 20
-228.321
 11
72.2509
 21
-228.268
  0
LINE
  8
0
 10
72.2509
 20
-228.268
 11
72.5
 21
-228.25
  0
LINE
  8
0
 10
72.5
 20
-228.25
 11
187.5
 21
-228.25
  0
LINE
  8
0
 10
187.5
 20
-228.25
 11
187.749
 21
-228.268
  0
LINE
  8
0
 10
187.749
 20
-228.268
 11
187.993
 21
-228.321
  0
LINE
  8
0
 10
187.993
 20
-228.321
 11
188.227
 21
-228.408
  0
LINE
  8
0
 10
188.227
 20
-228.408
 11
188.446
 21
-228.528
  0
LINE
  8
0
 10
188.446
 20
-228.528
 11
188.646
 21
-228.677
  0
LINE
  8
0
 10
188.646
 20
-228.677
 11
188.823
 21
-228.854
  0
LINE
  8
0
 10
188.823
 20
-228.854
 11
188.972
 21
-229.054
  0
LINE
  8
0
 10
188.972
 20
-229.054
 11
189.092
 21
-229.273
  0
LINE
  8
0
 10
189.092
 20
-229.273
 11
189.179
 21
-229.507
  0
LINE
  8
0
 10
189.179
 20
-229.507
 11
189.232
 21
-229.751
  0
LINE
  8
0
 10
189.232
 20
-229.751
 11
189.25
 21
-230
  0
LINE
  8
0
 10
189.25
 20
-230
 11
189.232
 21
-230.249
  0
LINE
  8
0
 10
189.232
 20
-230.249
 11
189.179
 21
-230.493
  0
LINE
  8
0
 10
189.179
 20
-230.493
 11
189.092
 21
-230.727
  0
LINE
  8
0
 10
189.092
 20
-230.727
 11
188.972
 21
-230.946
  0
LINE
  8
0
 10
188.972
 20
-230.946
 11
188.823
 21
-231.146
  0
LINE
  8
0
 10
188.823
 20
-231.146
 11
188.646
 21
-231.323
  0
LINE
  8
0
 10
188.646
 20
-231.323
 11
188.446
 21
-231.472
  0
LINE
  8
0
 10
188.446
 20
-231.472
 11
188.227
 21
-231.592
  0
LINE
  8
0
 10
188.227
 20
-231.592
 11
187.993
 21
-231.679
  0
LINE
  8
0
 10
187.993
 20
-231.679
 11
187.749
 21
-231.732
  0
LINE
  8
0
 10
187.749
 20
-231.732
 11
187.5
 21
-231.75
  0
LINE
  8
0
 10
187.5
 20
-231.75
 11
72.5
 21
-231.75
  0
LINE
  8
0
 10
-57.5
 20
-231.75
 11
-57.749
 21
-231.732
  0
LINE
  8
0
 10
-57.749
 20
-231.732
 11
-57.993
 21
-231.679
  0
LINE
  8
0
 10
-57.993
 20
-231.679
 11
-58.227
 21
-231.592
  0
LINE
  8
0
 10
-58.227
 20
-231.592
 11
-58.4461
 21
-231.472
  0
LINE
  8
0
 10
-58.4461
 20
-231.472
 11
-58.646
 21
-231.323
  0
LINE
  8
0
 10
-58.646
 20
-231.323
 11
-58.8226
 21
-231.146
  0
LINE
  8
0
 10
-58.8226
 20
-231.146
 11
-58.9722
 21
-230.946
  0
LINE
  8
0
 10
-58.9722
 20
-230.946
 11
-59.0918
 21
-230.727
  0
LINE
  8
0
 10
-59.0918
 20
-230.727
 11
-59.1791
 21
-230.493
  0
LINE
  8
0
 10
-59.1791
 20
-230.493
 11
-59.2322
 21
-230.249
  0
LINE
  8
0
 10
-59.2322
 20
-230.249
 11
-59.25
 21
-230
  0
LINE
  8
0
 10
-59.25
 20
-230
 11
-59.2322
 21
-229.751
  0
LINE
  8
0
 10
-59.2322
 20
-229.751
 11
-59.1791
 21
-229.507
  0
LINE
  8
0
 10
-59.1791
 20
-229.507
 11
-59.0918
 21
-229.273
  0
LINE
  8
0
 10
-59.0918
 20
-229.273
 11
-58.9722
 21
-229.054
  0
LINE
  8
0
 10
-58.9722
 20
-229.054
 11
-58.8226
 21
-228.854
  0
LINE
  8
0
 10
-58.8226
 20
-228.854
 11
-58.646
 21
-228.677
  0
LINE
  8
0
 10
-58.646
 20
-228.677
 11
-58.4461
 21
-228.528
  0
LINE
  8
0
 10
-58.4461
 20
-228.528
 11
-58.227
 21
-228.408
  0
LINE
  8
0
 10
-58.227
 20
-228.408
 11
-57.993
 21
-228.321
  0
LINE
  8
0
 10
-57.993
 20
-228.321
 11
-57.749
 21
-228.268
  0
LINE
  8
0
 10
-57.749
 20
-228.268
 11
-57.5
 21
-228.25
  0
LINE
  8
0
 10
-57.5
 20
-228.25
 11
57.5
 21
-228.25
  0
LINE
  8
0
 10
57.5
 20
-228.25
 11
57.749
 21
-228.268
  0
LINE
  8
0
 10
57.749
 20
-228.268
 11
57.993
 21
-228.321
  0
LINE
  8
0
 10
57.993
 20
-228.321
 11
58.227
 21
-228.408
  0
LINE
  8
0
 10
58.227
 20
-228.408
 11
58.4461
 21
-228.528
  0
LINE
  8
0
 10
58.4461
 20
-228.528
 11
58.646
 21
-228.677
  0
LINE
  8
0
 10
58.646
 20
-228.677
 11
58.8226
 21
-228.854
  0
LINE
  8
0
 10
58.8226
 20
-228.854
 11
58.9722
 21
-229.054
  0
LINE
  8
0
 10
58.9722
 20
-229.054
 11
59.0918
 21
-229.273
  0
LINE
  8
0
 10
59.0918
 20
-229.273
 11
59.1791
 21
-229.507
  0
LINE
  8
0
 10
59.1791
 20
-229.507
 11
59.2322
 21
-229.751
  0
LINE
  8
0
 10
59.2322
 20
-229.751
 11
59.25
 21
-230
  0
LINE
  8
0
 10
59.25
 20
-230
 11
59.2322
 21
-230.249
  0
LINE
  8
0
 10
59.2322
 20
-230.249
 11
59.1791
 21
-230.493
  0
LINE
  8
0
 10
59.1791
 20
-230.493
 11
59.0918
 21
-230.727
  0
LINE
  8
0
 10
59.0918
 20
-230.727
 11
58.9722
 21
-230.946
  0
LINE
  8
0
 10
58.9722
 20
-230.946
 11
58.8226
 21
-231.146
  0
LINE
  8
0
 10
58.8226
 20
-231.146
 11
58.646
 21
-231.323
  0
LINE
  8
0
 10
58.646
 20
-231.323
 11
58.4461
 21
-231.472
  0
LINE
  8
0
 10
58.4461
 20
-231.472
 11
58.227
 21
-231.592
  0
LINE
  8
0
 10
58.227
 20
-231.592
 11
57.993
 21
-231.679
  0
LINE
  8
0
 10
57.993
 20
-231.679
 11
57.749
 21
-231.732
  0
LINE
  8
0
 10
57.749
 20
-231.732
 11
57.5
 21
-231.75
  0
LINE
  8
0
 10
57.5
 20
-231.75
 11
-57.5
 21
-231.75
  0
LINE
  8
0
 10
-187.5
 20
-231.75
 11
-187.749
 21
-231.732
  0
LINE
  8
0
 10
-187.749
 20
-231.732
 11
-187.993
 21
-231.679
  0
LINE
  8
0
 10
-187.993
 20
-231.679
 11
-188.227
 21
-231.592
  0
LINE
  8
0
 10
-188.227
 20
-231.592
 11
-188.446
 21
-231.472
  0
LINE
  8
0
 10
-188.446
 20
-231.472
 11
-188.646
 21
-231.323
  0
LINE
  8
0
 10
-188.646
 20
-231.323
 11
-188.823
 21
-231.146
  0
LINE
  8
0
 10
-188.823
 20
-231.146
 11
-188.972
 21
-230.946
  0
LINE
  8
0
 10
-188.972
 20
-230.946
 11
-189.092
 21
-230.727
  0
LINE
  8
0
 10
-189.092
 20
-230.727
 11
-189.179
 21
-230.493
  0
LINE
  8
0
 10
-189.179
 20
-230.493
 11
-189.232
 21
-230.249
  0
LINE
  8
0
 10
-189.232
 20
-230.249
 11
-189.25
 21
-230
  0
LINE
  8
0
 10
-189.25
 20
-230
 11
-189.232
 21
-229.751
  0
LINE
  8
0
 10
-189.232
 20
-229.751
 11
-189.179
 21
-229.507
  0
LINE
  8
0
 10
-189.179
 20
-229.507
 11
-189.092
 21
-229.273
  0
LINE
  8
0
 10
-189.092
 20
-229.273
 11
-188.972
 21
-229.054
  0
LINE
  8
0
 10
-188.972
 20
-229.054
 11
-188.823
 21
-228.854
  0
LINE
  8
0
 10
-188.823
 20
-228.854
 11
-188.646
 21
-228.677
  0
LINE
  8
0
 10
-188.646
 20
-228.677
 11
-188.446
 21
-228.528
  0
LINE
  8
0
 10
-188.446
 20
-228.528
 11
-188.227
 21
-228.408
  0
LINE
  8
0
 10
-188.227
 20
-228.408
 11
-187.993
 21
-228.321
  0
LINE
  8
0
 10
-187.993
 20
-228.321
 11
-187.749
 21
-228.268
  0
LINE
  8
0
 10
-187.749
 20
-228.268
 11
-187.5
 21
-228.25
  0
LINE
  8
0
 10
-187.5
 20
-228.25
 11
-72.5
 21
-228.25
  0
LINE
  8
0
 10
-72.5
 20
-228.25
 11
-72.2509
 21
-228.268
  0
LINE
  8
0
 10
-72.2509
 20
-228.268
 11
-72.007
 21
-228.321
  0
LINE
  8
0
 10
-72.007
 20
-228.321
 11
-71.773
 21
-228.408
  0
LINE
  8
0
 10
-71.773
 20
-228.408
 11
-71.5539
 21
-228.528
  0
LINE
  8
0
 10
-71.5539
 20
-228.528
 11
-71.354
 21
-228.677
  0
LINE
  8
0
 10
-71.354
 20
-228.677
 11
-71.1774
 21
-228.854
  0
LINE
  8
0
 10
-71.1774
 20
-228.854
 11
-71.0278
 21
-229.054
  0
LINE
  8
0
 10
-71.0278
 20
-229.054
 11
-70.9081
 21
-229.273
  0
LINE
  8
0
 10
-70.9081
 20
-229.273
 11
-70.8209
 21
-229.507
  0
LINE
  8
0
 10
-70.8209
 20
-229.507
 11
-70.7678
 21
-229.751
  0
LINE
  8
0
 10
-70.7678
 20
-229.751
 11
-70.75
 21
-230
  0
LINE
  8
0
 10
-70.75
 20
-230
 11
-70.7678
 21
-230.249
  0
LINE
  8
0
 10
-70.7678
 20
-230.249
 11
-70.8209
 21
-230.493
  0
LINE
  8
0
 10
-70.8209
 20
-230.493
 11
-70.9081
 21
-230.727
  0
LINE
  8
0
 10
-70.9081
 20
-230.727
 11
-71.0278
 21
-230.946
  0
LINE
  8
0
 10
-71.0278
 20
-230.946
 11
-71.1774
 21
-231.146
  0
LINE
  8
0
 10
-71.1774
 20
-231.146
 11
-71.354
 21
-231.323
  0
LINE
  8
0
 10
-71.354
 20
-231.323
 11
-71.5539
 21
-231.472
  0
LINE
  8
0
 10
-71.5539
 20
-231.472
 11
-71.773
 21
-231.592
  0
LINE
  8
0
 10
-71.773
 20
-231.592
 11
-72.007
 21
-231.679
  0
LINE
  8
0
 10
-72.007
 20
-231.679
 11
-72.2509
 21
-231.732
  0
LINE
  8
0
 10
-72.2509
 20
-231.732
 11
-72.5
 21
-231.75
  0
LINE
  8
0
 10
-72.5
 20
-231.75
 11
-187.5
 21
-231.75
  0
LINE
  8
0
 10
-215.186
 20
-231.69
 11
-215.43
 21
-231.645
  0
LINE
  8
0
 10
-215.43
 20
-231.645
 11
-215.665
 21
-231.565
  0
LINE
  8
0
 10
-215.665
 20
-231.565
 11
-215.886
 21
-231.451
  0
LINE
  8
0
 10
-215.886
 20
-231.451
 11
-216.087
 21
-231.307
  0
LINE
  8
0
 10
-216.087
 20
-231.307
 11
-216.266
 21
-231.134
  0
LINE
  8
0
 10
-216.266
 20
-231.134
 11
-216.418
 21
-230.938
  0
LINE
  8
0
 10
-216.418
 20
-230.938
 11
-216.539
 21
-230.722
  0
LINE
  8
0
 10
-216.539
 20
-230.722
 11
-216.628
 21
-230.49
  0
LINE
  8
0
 10
-216.628
 20
-230.49
 11
-216.682
 21
-230.248
  0
LINE
  8
0
 10
-216.682
 20
-230.248
 11
-216.7
 21
-230
  0
LINE
  8
0
 10
-216.7
 20
-230
 11
-216.682
 21
-229.752
  0
LINE
  8
0
 10
-216.682
 20
-229.752
 11
-216.628
 21
-229.51
  0
LINE
  8
0
 10
-216.628
 20
-229.51
 11
-216.539
 21
-229.278
  0
LINE
  8
0
 10
-216.539
 20
-229.278
 11
-216.418
 21
-229.062
  0
LINE
  8
0
 10
-216.418
 20
-229.062
 11
-216.266
 21
-228.866
  0
LINE
  8
0
 10
-216.266
 20
-228.866
 11
-216.087
 21
-228.693
  0
LINE
  8
0
 10
-216.087
 20
-228.693
 11
-215.886
 21
-228.549
  0
LINE
  8
0
 10
-215.886
 20
-228.549
 11
-215.665
 21
-228.435
  0
LINE
  8
0
 10
-215.665
 20
-228.435
 11
-215.43
 21
-228.355
  0
LINE
  8
0
 10
-215.43
 20
-228.355
 11
-215.186
 21
-228.31
  0
LINE
  8
0
 10
-215.186
 20
-228.31
 11
-214.938
 21
-228.301
  0
LINE
  8
0
 10
-214.938
 20
-228.301
 11
-214.691
 21
-228.328
  0
LINE
  8
0
 10
-214.691
 20
-228.328
 11
-214.451
 21
-228.391
  0
LINE
  8
0
 10
-214.451
 20
-228.391
 11
-214.223
 21
-228.488
  0
LINE
  8
0
 10
-214.223
 20
-228.488
 11
-214.011
 21
-228.617
  0
LINE
  8
0
 10
-214.011
 20
-228.617
 11
-213.82
 21
-228.776
  0
LINE
  8
0
 10
-213.82
 20
-228.776
 11
-213.654
 21
-228.961
  0
LINE
  8
0
 10
-213.654
 20
-228.961
 11
-213.518
 21
-229.168
  0
LINE
  8
0
 10
-213.518
 20
-229.168
 11
-213.412
 21
-229.393
  0
LINE
  8
0
 10
-213.412
 20
-229.393
 11
-213.341
 21
-229.63
  0
LINE
  8
0
 10
-213.341
 20
-229.63
 11
-213.305
 21
-229.876
  0
LINE
  8
0
 10
-213.305
 20
-229.876
 11
-213.305
 21
-230.124
  0
LINE
  8
0
 10
-213.305
 20
-230.124
 11
-213.341
 21
-230.37
  0
LINE
  8
0
 10
-213.341
 20
-230.37
 11
-213.412
 21
-230.607
  0
LINE
  8
0
 10
-213.412
 20
-230.607
 11
-213.518
 21
-230.832
  0
LINE
  8
0
 10
-213.518
 20
-230.832
 11
-213.654
 21
-231.039
  0
LINE
  8
0
 10
-213.654
 20
-231.039
 11
-213.82
 21
-231.224
  0
LINE
  8
0
 10
-213.82
 20
-231.224
 11
-214.011
 21
-231.383
  0
LINE
  8
0
 10
-214.011
 20
-231.383
 11
-214.223
 21
-231.512
  0
LINE
  8
0
 10
-214.223
 20
-231.512
 11
-214.451
 21
-231.609
  0
LINE
  8
0
 10
-214.451
 20
-231.609
 11
-214.691
 21
-231.672
  0
LINE
  8
0
 10
-214.691
 20
-231.672
 11
-214.938
 21
-231.699
  0
LINE
  8
0
 10
-214.938
 20
-231.699
 11
-215.186
 21
-231.69
  0
LINE
  8
0
 10
214.691
 20
-231.672
 11
214.451
 21
-231.609
  0
LINE
  8
0
 10
214.451
 20
-231.609
 11
214.223
 21
-231.512
  0
LINE
  8
0
 10
214.223
 20
-231.512
 11
214.011
 21
-231.383
  0
LINE
  8
0
 10
214.011
 20
-231.383
 11
213.82
 21
-231.224
  0
LINE
  8
0
 10
213.82
 20
-231.224
 11
213.654
 21
-231.039
  0
LINE
  8
0
 10
213.654
 20
-231.039
 11
213.518
 21
-230.832
  0
LINE
  8
0
 10
213.518
 20
-230.832
 11
213.412
 21
-230.607
  0
LINE
  8
0
 10
213.412
 20
-230.607
 11
213.341
 21
-230.37
  0
LINE
  8
0
 10
213.341
 20
-230.37
 11
213.305
 21
-230.124
  0
LINE
  8
0
 10
213.305
 20
-230.124
 11
213.305
 21
-229.876
  0
LINE
  8
0
 10
213.305
 20
-229.876
 11
213.341
 21
-229.63
  0
LINE
  8
0
 10
213.341
 20
-229.63
 11
213.412
 21
-229.393
  0
LINE
  8
0
 10
213.412
 20
-229.393
 11
213.518
 21
-229.168
  0
LINE
  8
0
 10
213.518
 20
-229.168
 11
213.654
 21
-228.961
  0
LINE
  8
0
 10
213.654
 20
-228.961
 11
213.82
 21
-228.776
  0
LINE
  8
0
 10
213.82
 20
-228.776
 11
214.011
 21
-228.617
  0
LINE
  8
0
 10
214.011
 20
-228.617
 11
214.223
 21
-228.488
  0
LINE
  8
0
 10
214.223
 20
-228.488
 11
214.451
 21
-228.391
  0
LINE
  8
0
 10
214.451
 20
-228.391
 11
214.691
 21
-228.328
  0
LINE
  8
0
 10
214.691
 20
-228.328
 11
214.938
 21
-228.301
  0
LINE
  8
0
 10
214.938
 20
-228.301
 11
215.186
 21
-228.31
  0
LINE
  8
0
 10
215.186
 20
-228.31
 11
215.43
 21
-228.355
  0
LINE
  8
0
 10
215.43
 20
-228.355
 11
215.665
 21
-228.435
  0
LINE
  8
0
 10
215.665
 20
-228.435
 11
215.886
 21
-228.549
  0
LINE
  8
0
 10
215.886
 20
-228.549
 11
216.087
 21
-228.693
  0
LINE
  8
0
 10
216.087
 20
-228.693
 11
216.266
 21
-228.866
  0
LINE
  8
0
 10
216.266
 20
-228.866
 11
216.418
 21
-229.062
  0
LINE
  8
0
 10
216.418
 20
-229.062
 11
216.539
 21
-229.278
  0
LINE
  8
0
 10
216.539
 20
-229.278
 11
216.628
 21
-229.51
  0
LINE
  8
0
 10
216.628
 20
-229.51
 11
216.682
 21
-229.752
  0
LINE
  8
0
 10
216.682
 20
-229.752
 11
216.7
 21
-230
  0
LINE
  8
0
 10
216.7
 20
-230
 11
216.682
 21
-230.248
  0
LINE
  8
0
 10
216.682
 20
-230.248
 11
216.628
 21
-230.49
  0
LINE
  8
0
 10
216.628
 20
-230.49
 11
216.539
 21
-230.722
  0
LINE
  8
0
 10
216.539
 20
-230.722
 11
216.418
 21
-230.938
  0
LINE
  8
0
 10
216.418
 20
-230.938
 11
216.266
 21
-231.134
  0
LINE
  8
0
 10
216.266
 20
-231.134
 11
216.087
 21
-231.307
  0
LINE
  8
0
 10
216.087
 20
-231.307
 11
215.886
 21
-231.451
  0
LINE
  8
0
 10
215.886
 20
-231.451
 11
215.665
 21
-231.565
  0
LINE
  8
0
 10
215.665
 20
-231.565
 11
215.43
 21
-231.645
  0
LINE
  8
0
 10
215.43
 20
-231.645
 11
215.186
 21
-231.69
  0
LINE
  8
0
 10
215.186
 20
-231.69
 11
214.938
 21
-231.699
  0
LINE
  8
0
 10
214.938
 20
-231.699
 11
214.691
 21
-231.672
  0
LINE
  8
0
 10
294.027
 20
-232.645
 11
293.783
 21
-232.609
  0
LINE
  8
0
 10
293.783
 20
-232.609
 11
293.547
 21
-232.536
  0
LINE
  8
0
 10
293.547
 20
-232.536
 11
293.325
 21
-232.429
  0
LINE
  8
0
 10
293.325
 20
-232.429
 11
293.121
 21
-232.29
  0
LINE
  8
0
 10
293.121
 20
-232.29
 11
292.94
 21
-232.122
  0
LINE
  8
0
 10
292.94
 20
-232.122
 11
292.787
 21
-231.929
  0
LINE
  8
0
 10
292.787
 20
-231.929
 11
292.663
 21
-231.716
  0
LINE
  8
0
 10
292.663
 20
-231.716
 11
292.573
 21
-231.486
  0
LINE
  8
0
 10
292.573
 20
-231.486
 11
292.518
 21
-231.246
  0
LINE
  8
0
 10
292.518
 20
-231.246
 11
292.5
 21
-231
  0
LINE
  8
0
 10
292.5
 20
-231
 11
292.518
 21
-230.754
  0
LINE
  8
0
 10
292.518
 20
-230.754
 11
292.573
 21
-230.514
  0
LINE
  8
0
 10
292.573
 20
-230.514
 11
292.663
 21
-230.284
  0
LINE
  8
0
 10
292.663
 20
-230.284
 11
292.787
 21
-230.071
  0
LINE
  8
0
 10
292.787
 20
-230.071
 11
292.94
 21
-229.878
  0
LINE
  8
0
 10
292.94
 20
-229.878
 11
293.121
 21
-229.71
  0
LINE
  8
0
 10
293.121
 20
-229.71
 11
293.325
 21
-229.571
  0
LINE
  8
0
 10
293.325
 20
-229.571
 11
293.547
 21
-229.464
  0
LINE
  8
0
 10
293.547
 20
-229.464
 11
293.783
 21
-229.391
  0
LINE
  8
0
 10
293.783
 20
-229.391
 11
294.027
 21
-229.355
  0
LINE
  8
0
 10
294.027
 20
-229.355
 11
302.273
 21
-229.355
  0
LINE
  8
0
 10
302.273
 20
-229.355
 11
302.517
 21
-229.391
  0
LINE
  8
0
 10
302.517
 20
-229.391
 11
302.753
 21
-229.464
  0
LINE
  8
0
 10
302.753
 20
-229.464
 11
302.975
 21
-229.571
  0
LINE
  8
0
 10
302.975
 20
-229.571
 11
303.179
 21
-229.71
  0
LINE
  8
0
 10
303.179
 20
-229.71
 11
303.36
 21
-229.878
  0
LINE
  8
0
 10
303.36
 20
-229.878
 11
303.513
 21
-230.071
  0
LINE
  8
0
 10
303.513
 20
-230.071
 11
303.637
 21
-230.284
  0
LINE
  8
0
 10
303.637
 20
-230.284
 11
303.727
 21
-230.514
  0
LINE
  8
0
 10
303.727
 20
-230.514
 11
303.782
 21
-230.754
  0
LINE
  8
0
 10
303.782
 20
-230.754
 11
303.8
 21
-231
  0
LINE
  8
0
 10
303.8
 20
-231
 11
303.782
 21
-231.246
  0
LINE
  8
0
 10
303.782
 20
-231.246
 11
303.727
 21
-231.486
  0
LINE
  8
0
 10
303.727
 20
-231.486
 11
303.637
 21
-231.716
  0
LINE
  8
0
 10
303.637
 20
-231.716
 11
303.513
 21
-231.929
  0
LINE
  8
0
 10
303.513
 20
-231.929
 11
303.36
 21
-232.122
  0
LINE
  8
0
 10
303.36
 20
-232.122
 11
303.179
 21
-232.29
  0
LINE
  8
0
 10
303.179
 20
-232.29
 11
302.975
 21
-232.429
  0
LINE
  8
0
 10
302.975
 20
-232.429
 11
302.753
 21
-232.536
  0
LINE
  8
0
 10
302.753
 20
-232.536
 11
302.517
 21
-232.609
  0
LINE
  8
0
 10
302.517
 20
-232.609
 11
302.273
 21
-232.645
  0
LINE
  8
0
 10
302.273
 20
-232.645
 11
294.027
 21
-232.645
  0
LINE
  8
0
 10
263.027
 20
-232.645
 11
262.783
 21
-232.609
  0
LINE
  8
0
 10
262.783
 20
-232.609
 11
262.547
 21
-232.536
  0
LINE
  8
0
 10
262.547
 20
-232.536
 11
262.325
 21
-232.429
  0
LINE
  8
0
 10
262.325
 20
-232.429
 11
262.121
 21
-232.29
  0
LINE
  8
0
 10
262.121
 20
-232.29
 11
261.94
 21
-232.122
  0
LINE
  8
0
 10
261.94
 20
-232.122
 11
261.787
 21
-231.929
  0
LINE
  8
0
 10
261.787
 20
-231.929
 11
261.663
 21
-231.716
  0
LINE
  8
0
 10
261.663
 20
-231.716
 11
261.573
 21
-231.486
  0
LINE
  8
0
 10
261.573
 20
-231.486
 11
261.518
 21
-231.246
  0
LINE
  8
0
 10
261.518
 20
-231.246
 11
261.5
 21
-231
  0
LINE
  8
0
 10
261.5
 20
-231
 11
261.518
 21
-230.754
  0
LINE
  8
0
 10
261.518
 20
-230.754
 11
261.573
 21
-230.514
  0
LINE
  8
0
 10
261.573
 20
-230.514
 11
261.663
 21
-230.284
  0
LINE
  8
0
 10
261.663
 20
-230.284
 11
261.787
 21
-230.071
  0
LINE
  8
0
 10
261.787
 20
-230.071
 11
261.94
 21
-229.878
  0
LINE
  8
0
 10
261.94
 20
-229.878
 11
262.121
 21
-229.71
  0
LINE
  8
0
 10
262.121
 20
-229.71
 11
262.325
 21
-229.571
  0
LINE
  8
0
 10
262.325
 20
-229.571
 11
262.547
 21
-229.464
  0
LINE
  8
0
 10
262.547
 20
-229.464
 11
262.783
 21
-229.391
  0
LINE
  8
0
 10
262.783
 20
-229.391
 11
263.027
 21
-229.355
  0
LINE
  8
0
 10
263.027
 20
-229.355
 11
271.273
 21
-229.355
  0
LINE
  8
0
 10
271.273
 20
-229.355
 11
271.517
 21
-229.391
  0
LINE
  8
0
 10
271.517
 20
-229.391
 11
271.753
 21
-229.464
  0
LINE
  8
0
 10
271.753
 20
-229.464
 11
271.975
 21
-229.571
  0
LINE
  8
0
 10
271.975
 20
-229.571
 11
272.179
 21
-229.71
  0
LINE
  8
0
 10
272.179
 20
-229.71
 11
272.36
 21
-229.878
  0
LINE
  8
0
 10
272.36
 20
-229.878
 11
272.513
 21
-230.071
  0
LINE
  8
0
 10
272.513
 20
-230.071
 11
272.637
 21
-230.284
  0
LINE
  8
0
 10
272.637
 20
-230.284
 11
272.727
 21
-230.514
  0
LINE
  8
0
 10
272.727
 20
-230.514
 11
272.782
 21
-230.754
  0
LINE
  8
0
 10
272.782
 20
-230.754
 11
272.8
 21
-231
  0
LINE
  8
0
 10
272.8
 20
-231
 11
272.782
 21
-231.246
  0
LINE
  8
0
 10
272.782
 20
-231.246
 11
272.727
 21
-231.486
  0
LINE
  8
0
 10
272.727
 20
-231.486
 11
272.637
 21
-231.716
  0
LINE
  8
0
 10
272.637
 20
-231.716
 11
272.513
 21
-231.929
  0
LINE
  8
0
 10
272.513
 20
-231.929
 11
272.36
 21
-232.122
  0
LINE
  8
0
 10
272.36
 20
-232.122
 11
272.179
 21
-232.29
  0
LINE
  8
0
 10
272.179
 20
-232.29
 11
271.975
 21
-232.429
  0
LINE
  8
0
 10
271.975
 20
-232.429
 11
271.753
 21
-232.536
  0
LINE
  8
0
 10
271.753
 20
-232.536
 11
271.517
 21
-232.609
  0
LINE
  8
0
 10
271.517
 20
-232.609
 11
271.273
 21
-232.645
  0
LINE
  8
0
 10
271.273
 20
-232.645
 11
263.027
 21
-232.645
  0
ENDSEC
  0
SECTION
  2
OBJECTS
  0
DICTIONARY
  0
ENDSEC
  0
EOF
