  0
SECTION
  2
BLOCKS
  0
ENDSEC
  0
SECTION
  2
ENTITIES
  0
LINE
  8
0
 10
232.898
 20
-222.348
 11
233.415
 21
-222.266
  0
LINE
  8
0
 10
233.415
 20
-222.266
 11
233.92
 21
-222.13
  0
LINE
  8
0
 10
233.92
 20
-222.13
 11
234.409
 21
-221.943
  0
LINE
  8
0
 10
234.409
 20
-221.943
 11
234.875
 21
-221.705
  0
LINE
  8
0
 10
234.875
 20
-221.705
 11
235.314
 21
-221.42
  0
LINE
  8
0
 10
235.314
 20
-221.42
 11
235.721
 21
-221.091
  0
LINE
  8
0
 10
235.721
 20
-221.091
 11
236.091
 21
-220.721
  0
LINE
  8
0
 10
236.091
 20
-220.721
 11
236.42
 21
-220.314
  0
LINE
  8
0
 10
236.42
 20
-220.314
 11
236.705
 21
-219.875
  0
LINE
  8
0
 10
236.705
 20
-219.875
 11
236.943
 21
-219.409
  0
LINE
  8
0
 10
236.943
 20
-219.409
 11
237.13
 21
-218.92
  0
LINE
  8
0
 10
237.13
 20
-218.92
 11
237.266
 21
-218.415
  0
LINE
  8
0
 10
237.266
 20
-218.415
 11
237.348
 21
-217.898
  0
LINE
  8
0
 10
237.348
 20
-217.898
 11
237.375
 21
-217.375
  0
LINE
  8
0
 10
237.375
 20
-217.375
 11
237.375
 21
217.375
  0
LINE
  8
0
 10
237.375
 20
217.375
 11
237.348
 21
217.898
  0
LINE
  8
0
 10
237.348
 20
217.898
 11
237.266
 21
218.415
  0
LINE
  8
0
 10
237.266
 20
218.415
 11
237.13
 21
218.92
  0
LINE
  8
0
 10
237.13
 20
218.92
 11
236.943
 21
219.409
  0
LINE
  8
0
 10
236.943
 20
219.409
 11
236.705
 21
219.875
  0
LINE
  8
0
 10
236.705
 20
219.875
 11
236.42
 21
220.314
  0
LINE
  8
0
 10
236.42
 20
220.314
 11
236.091
 21
220.721
  0
LINE
  8
0
 10
236.091
 20
220.721
 11
235.721
 21
221.091
  0
LINE
  8
0
 10
235.721
 20
221.091
 11
235.314
 21
221.42
  0
LINE
  8
0
 10
235.314
 20
221.42
 11
234.875
 21
221.705
  0
LINE
  8
0
 10
234.875
 20
221.705
 11
234.409
 21
221.943
  0
LINE
  8
0
 10
234.409
 20
221.943
 11
233.92
 21
222.13
  0
LINE
  8
0
 10
233.92
 20
222.13
 11
233.415
 21
222.266
  0
LINE
  8
0
 10
233.415
 20
222.266
 11
232.898
 21
222.348
  0
LINE
  8
0
 10
232.898
 20
222.348
 11
232.375
 21
222.375
  0
LINE
  8
0
 10
232.375
 20
222.375
 11
-232.375
 21
222.375
  0
LINE
  8
0
 10
-232.375
 20
222.375
 11
-232.898
 21
222.348
  0
LINE
  8
0
 10
-232.898
 20
222.348
 11
-233.415
 21
222.266
  0
LINE
  8
0
 10
-233.415
 20
222.266
 11
-233.92
 21
222.13
  0
LINE
  8
0
 10
-233.92
 20
222.13
 11
-234.409
 21
221.943
  0
LINE
  8
0
 10
-234.409
 20
221.943
 11
-234.875
 21
221.705
  0
LINE
  8
0
 10
-234.875
 20
221.705
 11
-235.314
 21
221.42
  0
LINE
  8
0
 10
-235.314
 20
221.42
 11
-235.721
 21
221.091
  0
LINE
  8
0
 10
-235.721
 20
221.091
 11
-236.091
 21
220.721
  0
LINE
  8
0
 10
-236.091
 20
220.721
 11
-236.42
 21
220.314
  0
LINE
  8
0
 10
-236.42
 20
220.314
 11
-236.705
 21
219.875
  0
LINE
  8
0
 10
-236.705
 20
219.875
 11
-236.943
 21
219.409
  0
LINE
  8
0
 10
-236.943
 20
219.409
 11
-237.13
 21
218.92
  0
LINE
  8
0
 10
-237.13
 20
218.92
 11
-237.266
 21
218.415
  0
LINE
  8
0
 10
-237.266
 20
218.415
 11
-237.348
 21
217.898
  0
LINE
  8
0
 10
-237.348
 20
217.898
 11
-237.375
 21
217.375
  0
LINE
  8
0
 10
-237.375
 20
217.375
 11
-237.375
 21
-217.375
  0
LINE
  8
0
 10
-237.375
 20
-217.375
 11
-237.348
 21
-217.898
  0
LINE
  8
0
 10
-237.348
 20
-217.898
 11
-237.266
 21
-218.415
  0
LINE
  8
0
 10
-237.266
 20
-218.415
 11
-237.13
 21
-218.92
  0
LINE
  8
0
 10
-237.13
 20
-218.92
 11
-236.943
 21
-219.409
  0
LINE
  8
0
 10
-236.943
 20
-219.409
 11
-236.705
 21
-219.875
  0
LINE
  8
0
 10
-236.705
 20
-219.875
 11
-236.42
 21
-220.314
  0
LINE
  8
0
 10
-236.42
 20
-220.314
 11
-236.091
 21
-220.721
  0
LINE
  8
0
 10
-236.091
 20
-220.721
 11
-235.721
 21
-221.091
  0
LINE
  8
0
 10
-235.721
 20
-221.091
 11
-235.314
 21
-221.42
  0
LINE
  8
0
 10
-235.314
 20
-221.42
 11
-234.875
 21
-221.705
  0
LINE
  8
0
 10
-234.875
 20
-221.705
 11
-234.409
 21
-221.943
  0
LINE
  8
0
 10
-234.409
 20
-221.943
 11
-233.92
 21
-222.13
  0
LINE
  8
0
 10
-233.92
 20
-222.13
 11
-233.415
 21
-222.266
  0
LINE
  8
0
 10
-233.415
 20
-222.266
 11
-232.898
 21
-222.348
  0
LINE
  8
0
 10
-232.898
 20
-222.348
 11
-232.375
 21
-222.375
  0
LINE
  8
0
 10
-232.375
 20
-222.375
 11
232.375
 21
-222.375
  0
LINE
  8
0
 10
232.375
 20
-222.375
 11
232.898
 21
-222.348
  0
LINE
  8
0
 10
229.608
 20
211.271
 11
229.22
 21
211.332
  0
LINE
  8
0
 10
229.22
 20
211.332
 11
228.841
 21
211.434
  0
LINE
  8
0
 10
228.841
 20
211.434
 11
228.475
 21
211.574
  0
LINE
  8
0
 10
228.475
 20
211.574
 11
228.125
 21
211.752
  0
LINE
  8
0
 10
228.125
 20
211.752
 11
227.796
 21
211.966
  0
LINE
  8
0
 10
227.796
 20
211.966
 11
227.491
 21
212.213
  0
LINE
  8
0
 10
227.491
 20
212.213
 11
227.213
 21
212.491
  0
LINE
  8
0
 10
227.213
 20
212.491
 11
226.966
 21
212.796
  0
LINE
  8
0
 10
226.966
 20
212.796
 11
226.752
 21
213.125
  0
LINE
  8
0
 10
226.752
 20
213.125
 11
226.574
 21
213.475
  0
LINE
  8
0
 10
226.574
 20
213.475
 11
226.434
 21
213.841
  0
LINE
  8
0
 10
226.434
 20
213.841
 11
226.332
 21
214.22
  0
LINE
  8
0
 10
226.332
 20
214.22
 11
226.271
 21
214.608
  0
LINE
  8
0
 10
226.271
 20
214.608
 11
226.25
 21
215
  0
LINE
  8
0
 10
226.25
 20
215
 11
226.271
 21
215.392
  0
LINE
  8
0
 10
226.271
 20
215.392
 11
226.332
 21
215.78
  0
LINE
  8
0
 10
226.332
 20
215.78
 11
226.434
 21
216.159
  0
LINE
  8
0
 10
226.434
 20
216.159
 11
226.574
 21
216.525
  0
LINE
  8
0
 10
226.574
 20
216.525
 11
226.752
 21
216.875
  0
LINE
  8
0
 10
226.752
 20
216.875
 11
226.966
 21
217.204
  0
LINE
  8
0
 10
226.966
 20
217.204
 11
227.213
 21
217.509
  0
LINE
  8
0
 10
227.213
 20
217.509
 11
227.491
 21
217.787
  0
LINE
  8
0
 10
227.491
 20
217.787
 11
227.796
 21
218.034
  0
LINE
  8
0
 10
227.796
 20
218.034
 11
228.125
 21
218.248
  0
LINE
  8
0
 10
228.125
 20
218.248
 11
228.475
 21
218.426
  0
LINE
  8
0
 10
228.475
 20
218.426
 11
228.841
 21
218.566
  0
LINE
  8
0
 10
228.841
 20
218.566
 11
229.22
 21
218.668
  0
LINE
  8
0
 10
229.22
 20
218.668
 11
229.608
 21
218.729
  0
LINE
  8
0
 10
229.608
 20
218.729
 11
230
 21
218.75
  0
LINE
  8
0
 10
230
 20
218.75
 11
230.392
 21
218.729
  0
LINE
  8
0
 10
230.392
 20
218.729
 11
230.78
 21
218.668
  0
LINE
  8
0
 10
230.78
 20
218.668
 11
231.159
 21
218.566
  0
LINE
  8
0
 10
231.159
 20
218.566
 11
231.525
 21
218.426
  0
LINE
  8
0
 10
231.525
 20
218.426
 11
231.875
 21
218.248
  0
LINE
  8
0
 10
231.875
 20
218.248
 11
232.204
 21
218.034
  0
LINE
  8
0
 10
232.204
 20
218.034
 11
232.509
 21
217.787
  0
LINE
  8
0
 10
232.509
 20
217.787
 11
232.787
 21
217.509
  0
LINE
  8
0
 10
232.787
 20
217.509
 11
233.034
 21
217.204
  0
LINE
  8
0
 10
233.034
 20
217.204
 11
233.248
 21
216.875
  0
LINE
  8
0
 10
233.248
 20
216.875
 11
233.426
 21
216.525
  0
LINE
  8
0
 10
233.426
 20
216.525
 11
233.566
 21
216.159
  0
LINE
  8
0
 10
233.566
 20
216.159
 11
233.668
 21
215.78
  0
LINE
  8
0
 10
233.668
 20
215.78
 11
233.729
 21
215.392
  0
LINE
  8
0
 10
233.729
 20
215.392
 11
233.75
 21
215
  0
LINE
  8
0
 10
233.75
 20
215
 11
233.729
 21
214.608
  0
LINE
  8
0
 10
233.729
 20
214.608
 11
233.668
 21
214.22
  0
LINE
  8
0
 10
233.668
 20
214.22
 11
233.566
 21
213.841
  0
LINE
  8
0
 10
233.566
 20
213.841
 11
233.426
 21
213.475
  0
LINE
  8
0
 10
233.426
 20
213.475
 11
233.248
 21
213.125
  0
LINE
  8
0
 10
233.248
 20
213.125
 11
233.034
 21
212.796
  0
LINE
  8
0
 10
233.034
 20
212.796
 11
232.787
 21
212.491
  0
LINE
  8
0
 10
232.787
 20
212.491
 11
232.509
 21
212.213
  0
LINE
  8
0
 10
232.509
 20
212.213
 11
232.204
 21
211.966
  0
LINE
  8
0
 10
232.204
 20
211.966
 11
231.875
 21
211.752
  0
LINE
  8
0
 10
231.875
 20
211.752
 11
231.525
 21
211.574
  0
LINE
  8
0
 10
231.525
 20
211.574
 11
231.159
 21
211.434
  0
LINE
  8
0
 10
231.159
 20
211.434
 11
230.78
 21
211.332
  0
LINE
  8
0
 10
230.78
 20
211.332
 11
230.392
 21
211.271
  0
LINE
  8
0
 10
230.392
 20
211.271
 11
230
 21
211.25
  0
LINE
  8
0
 10
230
 20
211.25
 11
229.608
 21
211.271
  0
LINE
  8
0
 10
-230.392
 20
211.271
 11
-230.78
 21
211.332
  0
LINE
  8
0
 10
-230.78
 20
211.332
 11
-231.159
 21
211.434
  0
LINE
  8
0
 10
-231.159
 20
211.434
 11
-231.525
 21
211.574
  0
LINE
  8
0
 10
-231.525
 20
211.574
 11
-231.875
 21
211.752
  0
LINE
  8
0
 10
-231.875
 20
211.752
 11
-232.204
 21
211.966
  0
LINE
  8
0
 10
-232.204
 20
211.966
 11
-232.509
 21
212.213
  0
LINE
  8
0
 10
-232.509
 20
212.213
 11
-232.787
 21
212.491
  0
LINE
  8
0
 10
-232.787
 20
212.491
 11
-233.034
 21
212.796
  0
LINE
  8
0
 10
-233.034
 20
212.796
 11
-233.248
 21
213.125
  0
LINE
  8
0
 10
-233.248
 20
213.125
 11
-233.426
 21
213.475
  0
LINE
  8
0
 10
-233.426
 20
213.475
 11
-233.566
 21
213.841
  0
LINE
  8
0
 10
-233.566
 20
213.841
 11
-233.668
 21
214.22
  0
LINE
  8
0
 10
-233.668
 20
214.22
 11
-233.729
 21
214.608
  0
LINE
  8
0
 10
-233.729
 20
214.608
 11
-233.75
 21
215
  0
LINE
  8
0
 10
-233.75
 20
215
 11
-233.729
 21
215.392
  0
LINE
  8
0
 10
-233.729
 20
215.392
 11
-233.668
 21
215.78
  0
LINE
  8
0
 10
-233.668
 20
215.78
 11
-233.566
 21
216.159
  0
LINE
  8
0
 10
-233.566
 20
216.159
 11
-233.426
 21
216.525
  0
LINE
  8
0
 10
-233.426
 20
216.525
 11
-233.248
 21
216.875
  0
LINE
  8
0
 10
-233.248
 20
216.875
 11
-233.034
 21
217.204
  0
LINE
  8
0
 10
-233.034
 20
217.204
 11
-232.787
 21
217.509
  0
LINE
  8
0
 10
-232.787
 20
217.509
 11
-232.509
 21
217.787
  0
LINE
  8
0
 10
-232.509
 20
217.787
 11
-232.204
 21
218.034
  0
LINE
  8
0
 10
-232.204
 20
218.034
 11
-231.875
 21
218.248
  0
LINE
  8
0
 10
-231.875
 20
218.248
 11
-231.525
 21
218.426
  0
LINE
  8
0
 10
-231.525
 20
218.426
 11
-231.159
 21
218.566
  0
LINE
  8
0
 10
-231.159
 20
218.566
 11
-230.78
 21
218.668
  0
LINE
  8
0
 10
-230.78
 20
218.668
 11
-230.392
 21
218.729
  0
LINE
  8
0
 10
-230.392
 20
218.729
 11
-230
 21
218.75
  0
LINE
  8
0
 10
-230
 20
218.75
 11
-229.608
 21
218.729
  0
LINE
  8
0
 10
-229.608
 20
218.729
 11
-229.22
 21
218.668
  0
LINE
  8
0
 10
-229.22
 20
218.668
 11
-228.841
 21
218.566
  0
LINE
  8
0
 10
-228.841
 20
218.566
 11
-228.475
 21
218.426
  0
LINE
  8
0
 10
-228.475
 20
218.426
 11
-228.125
 21
218.248
  0
LINE
  8
0
 10
-228.125
 20
218.248
 11
-227.796
 21
218.034
  0
LINE
  8
0
 10
-227.796
 20
218.034
 11
-227.491
 21
217.787
  0
LINE
  8
0
 10
-227.491
 20
217.787
 11
-227.213
 21
217.509
  0
LINE
  8
0
 10
-227.213
 20
217.509
 11
-226.966
 21
217.204
  0
LINE
  8
0
 10
-226.966
 20
217.204
 11
-226.752
 21
216.875
  0
LINE
  8
0
 10
-226.752
 20
216.875
 11
-226.574
 21
216.525
  0
LINE
  8
0
 10
-226.574
 20
216.525
 11
-226.434
 21
216.159
  0
LINE
  8
0
 10
-226.434
 20
216.159
 11
-226.332
 21
215.78
  0
LINE
  8
0
 10
-226.332
 20
215.78
 11
-226.271
 21
215.392
  0
LINE
  8
0
 10
-226.271
 20
215.392
 11
-226.25
 21
215
  0
LINE
  8
0
 10
-226.25
 20
215
 11
-226.271
 21
214.608
  0
LINE
  8
0
 10
-226.271
 20
214.608
 11
-226.332
 21
214.22
  0
LINE
  8
0
 10
-226.332
 20
214.22
 11
-226.434
 21
213.841
  0
LINE
  8
0
 10
-226.434
 20
213.841
 11
-226.574
 21
213.475
  0
LINE
  8
0
 10
-226.574
 20
213.475
 11
-226.752
 21
213.125
  0
LINE
  8
0
 10
-226.752
 20
213.125
 11
-226.966
 21
212.796
  0
LINE
  8
0
 10
-226.966
 20
212.796
 11
-227.213
 21
212.491
  0
LINE
  8
0
 10
-227.213
 20
212.491
 11
-227.491
 21
212.213
  0
LINE
  8
0
 10
-227.491
 20
212.213
 11
-227.796
 21
211.966
  0
LINE
  8
0
 10
-227.796
 20
211.966
 11
-228.125
 21
211.752
  0
LINE
  8
0
 10
-228.125
 20
211.752
 11
-228.475
 21
211.574
  0
LINE
  8
0
 10
-228.475
 20
211.574
 11
-228.841
 21
211.434
  0
LINE
  8
0
 10
-228.841
 20
211.434
 11
-229.22
 21
211.332
  0
LINE
  8
0
 10
-229.22
 20
211.332
 11
-229.608
 21
211.271
  0
LINE
  8
0
 10
-229.608
 20
211.271
 11
-230
 21
211.25
  0
LINE
  8
0
 10
-230
 20
211.25
 11
-230.392
 21
211.271
  0
LINE
  8
0
 10
187.191
 20
213.328
 11
186.951
 21
213.391
  0
LINE
  8
0
 10
186.951
 20
213.391
 11
186.723
 21
213.488
  0
LINE
  8
0
 10
186.723
 20
213.488
 11
186.511
 21
213.617
  0
LINE
  8
0
 10
186.511
 20
213.617
 11
186.32
 21
213.776
  0
LINE
  8
0
 10
186.32
 20
213.776
 11
186.154
 21
213.961
  0
LINE
  8
0
 10
186.154
 20
213.961
 11
186.018
 21
214.168
  0
LINE
  8
0
 10
186.018
 20
214.168
 11
185.912
 21
214.393
  0
LINE
  8
0
 10
185.912
 20
214.393
 11
185.841
 21
214.63
  0
LINE
  8
0
 10
185.841
 20
214.63
 11
185.805
 21
214.876
  0
LINE
  8
0
 10
185.805
 20
214.876
 11
185.805
 21
215.124
  0
LINE
  8
0
 10
185.805
 20
215.124
 11
185.841
 21
215.37
  0
LINE
  8
0
 10
185.841
 20
215.37
 11
185.912
 21
215.607
  0
LINE
  8
0
 10
185.912
 20
215.607
 11
186.018
 21
215.832
  0
LINE
  8
0
 10
186.018
 20
215.832
 11
186.154
 21
216.039
  0
LINE
  8
0
 10
186.154
 20
216.039
 11
186.32
 21
216.224
  0
LINE
  8
0
 10
186.32
 20
216.224
 11
186.511
 21
216.383
  0
LINE
  8
0
 10
186.511
 20
216.383
 11
186.723
 21
216.512
  0
LINE
  8
0
 10
186.723
 20
216.512
 11
186.951
 21
216.609
  0
LINE
  8
0
 10
186.951
 20
216.609
 11
187.191
 21
216.672
  0
LINE
  8
0
 10
187.191
 20
216.672
 11
187.438
 21
216.699
  0
LINE
  8
0
 10
187.438
 20
216.699
 11
187.686
 21
216.69
  0
LINE
  8
0
 10
187.686
 20
216.69
 11
187.93
 21
216.645
  0
LINE
  8
0
 10
187.93
 20
216.645
 11
188.165
 21
216.565
  0
LINE
  8
0
 10
188.165
 20
216.565
 11
188.386
 21
216.451
  0
LINE
  8
0
 10
188.386
 20
216.451
 11
188.587
 21
216.307
  0
LINE
  8
0
 10
188.587
 20
216.307
 11
188.766
 21
216.134
  0
LINE
  8
0
 10
188.766
 20
216.134
 11
188.918
 21
215.938
  0
LINE
  8
0
 10
188.918
 20
215.938
 11
189.039
 21
215.722
  0
LINE
  8
0
 10
189.039
 20
215.722
 11
189.128
 21
215.49
  0
LINE
  8
0
 10
189.128
 20
215.49
 11
189.182
 21
215.248
  0
LINE
  8
0
 10
189.182
 20
215.248
 11
189.2
 21
215
  0
LINE
  8
0
 10
189.2
 20
215
 11
189.182
 21
214.752
  0
LINE
  8
0
 10
189.182
 20
214.752
 11
189.128
 21
214.51
  0
LINE
  8
0
 10
189.128
 20
214.51
 11
189.039
 21
214.278
  0
LINE
  8
0
 10
189.039
 20
214.278
 11
188.918
 21
214.062
  0
LINE
  8
0
 10
188.918
 20
214.062
 11
188.766
 21
213.866
  0
LINE
  8
0
 10
188.766
 20
213.866
 11
188.587
 21
213.693
  0
LINE
  8
0
 10
188.587
 20
213.693
 11
188.386
 21
213.549
  0
LINE
  8
0
 10
188.386
 20
213.549
 11
188.165
 21
213.435
  0
LINE
  8
0
 10
188.165
 20
213.435
 11
187.93
 21
213.355
  0
LINE
  8
0
 10
187.93
 20
213.355
 11
187.686
 21
213.31
  0
LINE
  8
0
 10
187.686
 20
213.31
 11
187.438
 21
213.301
  0
LINE
  8
0
 10
187.438
 20
213.301
 11
187.191
 21
213.328
  0
LINE
  8
0
 10
93.4412
 20
213.328
 11
93.2011
 21
213.391
  0
LINE
  8
0
 10
93.2011
 20
213.391
 11
92.9727
 21
213.488
  0
LINE
  8
0
 10
92.9727
 20
213.488
 11
92.7608
 21
213.617
  0
LINE
  8
0
 10
92.7608
 20
213.617
 11
92.5701
 21
213.776
  0
LINE
  8
0
 10
92.5701
 20
213.776
 11
92.4044
 21
213.961
  0
LINE
  8
0
 10
92.4044
 20
213.961
 11
92.2675
 21
214.168
  0
LINE
  8
0
 10
92.2675
 20
214.168
 11
92.1622
 21
214.393
  0
LINE
  8
0
 10
92.1622
 20
214.393
 11
92.0907
 21
214.63
  0
LINE
  8
0
 10
92.0907
 20
214.63
 11
92.0545
 21
214.876
  0
LINE
  8
0
 10
92.0545
 20
214.876
 11
92.0545
 21
215.124
  0
LINE
  8
0
 10
92.0545
 20
215.124
 11
92.0907
 21
215.37
  0
LINE
  8
0
 10
92.0907
 20
215.37
 11
92.1622
 21
215.607
  0
LINE
  8
0
 10
92.1622
 20
215.607
 11
92.2675
 21
215.832
  0
LINE
  8
0
 10
92.2675
 20
215.832
 11
92.4044
 21
216.039
  0
LINE
  8
0
 10
92.4044
 20
216.039
 11
92.5701
 21
216.224
  0
LINE
  8
0
 10
92.5701
 20
216.224
 11
92.7608
 21
216.383
  0
LINE
  8
0
 10
92.7608
 20
216.383
 11
92.9727
 21
216.512
  0
LINE
  8
0
 10
92.9727
 20
216.512
 11
93.2011
 21
216.609
  0
LINE
  8
0
 10
93.2011
 20
216.609
 11
93.4412
 21
216.672
  0
LINE
  8
0
 10
93.4412
 20
216.672
 11
93.6879
 21
216.699
  0
LINE
  8
0
 10
93.6879
 20
216.699
 11
93.9359
 21
216.69
  0
LINE
  8
0
 10
93.9359
 20
216.69
 11
94.18
 21
216.645
  0
LINE
  8
0
 10
94.18
 20
216.645
 11
94.4149
 21
216.565
  0
LINE
  8
0
 10
94.4149
 20
216.565
 11
94.6356
 21
216.451
  0
LINE
  8
0
 10
94.6356
 20
216.451
 11
94.8374
 21
216.307
  0
LINE
  8
0
 10
94.8374
 20
216.307
 11
95.0161
 21
216.134
  0
LINE
  8
0
 10
95.0161
 20
216.134
 11
95.1678
 21
215.938
  0
LINE
  8
0
 10
95.1678
 20
215.938
 11
95.2893
 21
215.722
  0
LINE
  8
0
 10
95.2893
 20
215.722
 11
95.3779
 21
215.49
  0
LINE
  8
0
 10
95.3779
 20
215.49
 11
95.4319
 21
215.248
  0
LINE
  8
0
 10
95.4319
 20
215.248
 11
95.45
 21
215
  0
LINE
  8
0
 10
95.45
 20
215
 11
95.4319
 21
214.752
  0
LINE
  8
0
 10
95.4319
 20
214.752
 11
95.3779
 21
214.51
  0
LINE
  8
0
 10
95.3779
 20
214.51
 11
95.2893
 21
214.278
  0
LINE
  8
0
 10
95.2893
 20
214.278
 11
95.1678
 21
214.062
  0
LINE
  8
0
 10
95.1678
 20
214.062
 11
95.0161
 21
213.866
  0
LINE
  8
0
 10
95.0161
 20
213.866
 11
94.8374
 21
213.693
  0
LINE
  8
0
 10
94.8374
 20
213.693
 11
94.6356
 21
213.549
  0
LINE
  8
0
 10
94.6356
 20
213.549
 11
94.4149
 21
213.435
  0
LINE
  8
0
 10
94.4149
 20
213.435
 11
94.18
 21
213.355
  0
LINE
  8
0
 10
94.18
 20
213.355
 11
93.9359
 21
213.31
  0
LINE
  8
0
 10
93.9359
 20
213.31
 11
93.6879
 21
213.301
  0
LINE
  8
0
 10
93.6879
 20
213.301
 11
93.4412
 21
213.328
  0
LINE
  8
0
 10
-0.308777
 20
213.328
 11
-0.548889
 21
213.391
  0
LINE
  8
0
 10
-0.548889
 20
213.391
 11
-0.777298
 21
213.488
  0
LINE
  8
0
 10
-0.777298
 20
213.488
 11
-0.989151
 21
213.617
  0
LINE
  8
0
 10
-0.989151
 20
213.617
 11
-1.17992
 21
213.776
  0
LINE
  8
0
 10
-1.17992
 20
213.776
 11
-1.34554
 21
213.961
  0
LINE
  8
0
 10
-1.34554
 20
213.961
 11
-1.48248
 21
214.168
  0
LINE
  8
0
 10
-1.48248
 20
214.168
 11
-1.58781
 21
214.393
  0
LINE
  8
0
 10
-1.58781
 20
214.393
 11
-1.65932
 21
214.63
  0
LINE
  8
0
 10
-1.65932
 20
214.63
 11
-1.69545
 21
214.876
  0
LINE
  8
0
 10
-1.69545
 20
214.876
 11
-1.69545
 21
215.124
  0
LINE
  8
0
 10
-1.69545
 20
215.124
 11
-1.65932
 21
215.37
  0
LINE
  8
0
 10
-1.65932
 20
215.37
 11
-1.58781
 21
215.607
  0
LINE
  8
0
 10
-1.58781
 20
215.607
 11
-1.48248
 21
215.832
  0
LINE
  8
0
 10
-1.48248
 20
215.832
 11
-1.34554
 21
216.039
  0
LINE
  8
0
 10
-1.34554
 20
216.039
 11
-1.17992
 21
216.224
  0
LINE
  8
0
 10
-1.17992
 20
216.224
 11
-0.989151
 21
216.383
  0
LINE
  8
0
 10
-0.989151
 20
216.383
 11
-0.777298
 21
216.512
  0
LINE
  8
0
 10
-0.777298
 20
216.512
 11
-0.548889
 21
216.609
  0
LINE
  8
0
 10
-0.548889
 20
216.609
 11
-0.308777
 21
216.672
  0
LINE
  8
0
 10
-0.308777
 20
216.672
 11
-0.0620728
 21
216.699
  0
LINE
  8
0
 10
-0.0620728
 20
216.699
 11
0.185928
 21
216.69
  0
LINE
  8
0
 10
0.185928
 20
216.69
 11
0.429977
 21
216.645
  0
LINE
  8
0
 10
0.429977
 20
216.645
 11
0.664871
 21
216.565
  0
LINE
  8
0
 10
0.664871
 20
216.565
 11
0.88559
 21
216.451
  0
LINE
  8
0
 10
0.88559
 20
216.451
 11
1.08743
 21
216.307
  0
LINE
  8
0
 10
1.08743
 20
216.307
 11
1.2661
 21
216.134
  0
LINE
  8
0
 10
1.2661
 20
216.134
 11
1.41779
 21
215.938
  0
LINE
  8
0
 10
1.41779
 20
215.938
 11
1.53926
 21
215.722
  0
LINE
  8
0
 10
1.53926
 20
215.722
 11
1.62791
 21
215.49
  0
LINE
  8
0
 10
1.62791
 20
215.49
 11
1.68187
 21
215.248
  0
LINE
  8
0
 10
1.68187
 20
215.248
 11
1.7
 21
215
  0
LINE
  8
0
 10
1.7
 20
215
 11
1.68187
 21
214.752
  0
LINE
  8
0
 10
1.68187
 20
214.752
 11
1.62791
 21
214.51
  0
LINE
  8
0
 10
1.62791
 20
214.51
 11
1.53926
 21
214.278
  0
LINE
  8
0
 10
1.53926
 20
214.278
 11
1.41779
 21
214.062
  0
LINE
  8
0
 10
1.41779
 20
214.062
 11
1.2661
 21
213.866
  0
LINE
  8
0
 10
1.2661
 20
213.866
 11
1.08743
 21
213.693
  0
LINE
  8
0
 10
1.08743
 20
213.693
 11
0.88559
 21
213.549
  0
LINE
  8
0
 10
0.88559
 20
213.549
 11
0.664871
 21
213.435
  0
LINE
  8
0
 10
0.664871
 20
213.435
 11
0.429977
 21
213.355
  0
LINE
  8
0
 10
0.429977
 20
213.355
 11
0.185928
 21
213.31
  0
LINE
  8
0
 10
0.185928
 20
213.31
 11
-0.0620728
 21
213.301
  0
LINE
  8
0
 10
-0.0620728
 20
213.301
 11
-0.308777
 21
213.328
  0
LINE
  8
0
 10
-187.809
 20
213.328
 11
-188.049
 21
213.391
  0
LINE
  8
0
 10
-188.049
 20
213.391
 11
-188.277
 21
213.488
  0
LINE
  8
0
 10
-188.277
 20
213.488
 11
-188.489
 21
213.617
  0
LINE
  8
0
 10
-188.489
 20
213.617
 11
-188.68
 21
213.776
  0
LINE
  8
0
 10
-188.68
 20
213.776
 11
-188.846
 21
213.961
  0
LINE
  8
0
 10
-188.846
 20
213.961
 11
-188.982
 21
214.168
  0
LINE
  8
0
 10
-188.982
 20
214.168
 11
-189.088
 21
214.393
  0
LINE
  8
0
 10
-189.088
 20
214.393
 11
-189.159
 21
214.63
  0
LINE
  8
0
 10
-189.159
 20
214.63
 11
-189.195
 21
214.876
  0
LINE
  8
0
 10
-189.195
 20
214.876
 11
-189.195
 21
215.124
  0
LINE
  8
0
 10
-189.195
 20
215.124
 11
-189.159
 21
215.37
  0
LINE
  8
0
 10
-189.159
 20
215.37
 11
-189.088
 21
215.607
  0
LINE
  8
0
 10
-189.088
 20
215.607
 11
-188.982
 21
215.832
  0
LINE
  8
0
 10
-188.982
 20
215.832
 11
-188.846
 21
216.039
  0
LINE
  8
0
 10
-188.846
 20
216.039
 11
-188.68
 21
216.224
  0
LINE
  8
0
 10
-188.68
 20
216.224
 11
-188.489
 21
216.383
  0
LINE
  8
0
 10
-188.489
 20
216.383
 11
-188.277
 21
216.512
  0
LINE
  8
0
 10
-188.277
 20
216.512
 11
-188.049
 21
216.609
  0
LINE
  8
0
 10
-188.049
 20
216.609
 11
-187.809
 21
216.672
  0
LINE
  8
0
 10
-187.809
 20
216.672
 11
-187.562
 21
216.699
  0
LINE
  8
0
 10
-187.562
 20
216.699
 11
-187.314
 21
216.69
  0
LINE
  8
0
 10
-187.314
 20
216.69
 11
-187.07
 21
216.645
  0
LINE
  8
0
 10
-187.07
 20
216.645
 11
-186.835
 21
216.565
  0
LINE
  8
0
 10
-186.835
 20
216.565
 11
-186.614
 21
216.451
  0
LINE
  8
0
 10
-186.614
 20
216.451
 11
-186.413
 21
216.307
  0
LINE
  8
0
 10
-186.413
 20
216.307
 11
-186.234
 21
216.134
  0
LINE
  8
0
 10
-186.234
 20
216.134
 11
-186.082
 21
215.938
  0
LINE
  8
0
 10
-186.082
 20
215.938
 11
-185.961
 21
215.722
  0
LINE
  8
0
 10
-185.961
 20
215.722
 11
-185.872
 21
215.49
  0
LINE
  8
0
 10
-185.872
 20
215.49
 11
-185.818
 21
215.248
  0
LINE
  8
0
 10
-185.818
 20
215.248
 11
-185.8
 21
215
  0
LINE
  8
0
 10
-185.8
 20
215
 11
-185.818
 21
214.752
  0
LINE
  8
0
 10
-185.818
 20
214.752
 11
-185.872
 21
214.51
  0
LINE
  8
0
 10
-185.872
 20
214.51
 11
-185.961
 21
214.278
  0
LINE
  8
0
 10
-185.961
 20
214.278
 11
-186.082
 21
214.062
  0
LINE
  8
0
 10
-186.082
 20
214.062
 11
-186.234
 21
213.866
  0
LINE
  8
0
 10
-186.234
 20
213.866
 11
-186.413
 21
213.693
  0
LINE
  8
0
 10
-186.413
 20
213.693
 11
-186.614
 21
213.549
  0
LINE
  8
0
 10
-186.614
 20
213.549
 11
-186.835
 21
213.435
  0
LINE
  8
0
 10
-186.835
 20
213.435
 11
-187.07
 21
213.355
  0
LINE
  8
0
 10
-187.07
 20
213.355
 11
-187.314
 21
213.31
  0
LINE
  8
0
 10
-187.314
 20
213.31
 11
-187.562
 21
213.301
  0
LINE
  8
0
 10
-187.562
 20
213.301
 11
-187.809
 21
213.328
  0
LINE
  8
0
 10
-94.0588
 20
213.328
 11
-94.2989
 21
213.391
  0
LINE
  8
0
 10
-94.2989
 20
213.391
 11
-94.5273
 21
213.488
  0
LINE
  8
0
 10
-94.5273
 20
213.488
 11
-94.7392
 21
213.617
  0
LINE
  8
0
 10
-94.7392
 20
213.617
 11
-94.9299
 21
213.776
  0
LINE
  8
0
 10
-94.9299
 20
213.776
 11
-95.0955
 21
213.961
  0
LINE
  8
0
 10
-95.0955
 20
213.961
 11
-95.2325
 21
214.168
  0
LINE
  8
0
 10
-95.2325
 20
214.168
 11
-95.3378
 21
214.393
  0
LINE
  8
0
 10
-95.3378
 20
214.393
 11
-95.4093
 21
214.63
  0
LINE
  8
0
 10
-95.4093
 20
214.63
 11
-95.4455
 21
214.876
  0
LINE
  8
0
 10
-95.4455
 20
214.876
 11
-95.4455
 21
215.124
  0
LINE
  8
0
 10
-95.4455
 20
215.124
 11
-95.4093
 21
215.37
  0
LINE
  8
0
 10
-95.4093
 20
215.37
 11
-95.3378
 21
215.607
  0
LINE
  8
0
 10
-95.3378
 20
215.607
 11
-95.2325
 21
215.832
  0
LINE
  8
0
 10
-95.2325
 20
215.832
 11
-95.0955
 21
216.039
  0
LINE
  8
0
 10
-95.0955
 20
216.039
 11
-94.9299
 21
216.224
  0
LINE
  8
0
 10
-94.9299
 20
216.224
 11
-94.7392
 21
216.383
  0
LINE
  8
0
 10
-94.7392
 20
216.383
 11
-94.5273
 21
216.512
  0
LINE
  8
0
 10
-94.5273
 20
216.512
 11
-94.2989
 21
216.609
  0
LINE
  8
0
 10
-94.2989
 20
216.609
 11
-94.0588
 21
216.672
  0
LINE
  8
0
 10
-94.0588
 20
216.672
 11
-93.8121
 21
216.699
  0
LINE
  8
0
 10
-93.8121
 20
216.699
 11
-93.5641
 21
216.69
  0
LINE
  8
0
 10
-93.5641
 20
216.69
 11
-93.32
 21
216.645
  0
LINE
  8
0
 10
-93.32
 20
216.645
 11
-93.0851
 21
216.565
  0
LINE
  8
0
 10
-93.0851
 20
216.565
 11
-92.8644
 21
216.451
  0
LINE
  8
0
 10
-92.8644
 20
216.451
 11
-92.6626
 21
216.307
  0
LINE
  8
0
 10
-92.6626
 20
216.307
 11
-92.4839
 21
216.134
  0
LINE
  8
0
 10
-92.4839
 20
216.134
 11
-92.3322
 21
215.938
  0
LINE
  8
0
 10
-92.3322
 20
215.938
 11
-92.2107
 21
215.722
  0
LINE
  8
0
 10
-92.2107
 20
215.722
 11
-92.1221
 21
215.49
  0
LINE
  8
0
 10
-92.1221
 20
215.49
 11
-92.0681
 21
215.248
  0
LINE
  8
0
 10
-92.0681
 20
215.248
 11
-92.05
 21
215
  0
LINE
  8
0
 10
-92.05
 20
215
 11
-92.0681
 21
214.752
  0
LINE
  8
0
 10
-92.0681
 20
214.752
 11
-92.1221
 21
214.51
  0
LINE
  8
0
 10
-92.1221
 20
214.51
 11
-92.2107
 21
214.278
  0
LINE
  8
0
 10
-92.2107
 20
214.278
 11
-92.3322
 21
214.062
  0
LINE
  8
0
 10
-92.3322
 20
214.062
 11
-92.4839
 21
213.866
  0
LINE
  8
0
 10
-92.4839
 20
213.866
 11
-92.6626
 21
213.693
  0
LINE
  8
0
 10
-92.6626
 20
213.693
 11
-92.8644
 21
213.549
  0
LINE
  8
0
 10
-92.8644
 20
213.549
 11
-93.0851
 21
213.435
  0
LINE
  8
0
 10
-93.0851
 20
213.435
 11
-93.32
 21
213.355
  0
LINE
  8
0
 10
-93.32
 20
213.355
 11
-93.5641
 21
213.31
  0
LINE
  8
0
 10
-93.5641
 20
213.31
 11
-93.8121
 21
213.301
  0
LINE
  8
0
 10
-93.8121
 20
213.301
 11
-94.0588
 21
213.328
  0
LINE
  8
0
 10
-230.186
 20
170.81
 11
-230.43
 21
170.855
  0
LINE
  8
0
 10
-230.43
 20
170.855
 11
-230.665
 21
170.935
  0
LINE
  8
0
 10
-230.665
 20
170.935
 11
-230.886
 21
171.049
  0
LINE
  8
0
 10
-230.886
 20
171.049
 11
-231.087
 21
171.193
  0
LINE
  8
0
 10
-231.087
 20
171.193
 11
-231.266
 21
171.366
  0
LINE
  8
0
 10
-231.266
 20
171.366
 11
-231.418
 21
171.562
  0
LINE
  8
0
 10
-231.418
 20
171.562
 11
-231.539
 21
171.778
  0
LINE
  8
0
 10
-231.539
 20
171.778
 11
-231.628
 21
172.01
  0
LINE
  8
0
 10
-231.628
 20
172.01
 11
-231.682
 21
172.252
  0
LINE
  8
0
 10
-231.682
 20
172.252
 11
-231.7
 21
172.5
  0
LINE
  8
0
 10
-231.7
 20
172.5
 11
-231.682
 21
172.748
  0
LINE
  8
0
 10
-231.682
 20
172.748
 11
-231.628
 21
172.99
  0
LINE
  8
0
 10
-231.628
 20
172.99
 11
-231.539
 21
173.222
  0
LINE
  8
0
 10
-231.539
 20
173.222
 11
-231.418
 21
173.438
  0
LINE
  8
0
 10
-231.418
 20
173.438
 11
-231.266
 21
173.634
  0
LINE
  8
0
 10
-231.266
 20
173.634
 11
-231.087
 21
173.807
  0
LINE
  8
0
 10
-231.087
 20
173.807
 11
-230.886
 21
173.951
  0
LINE
  8
0
 10
-230.886
 20
173.951
 11
-230.665
 21
174.065
  0
LINE
  8
0
 10
-230.665
 20
174.065
 11
-230.43
 21
174.145
  0
LINE
  8
0
 10
-230.43
 20
174.145
 11
-230.186
 21
174.19
  0
LINE
  8
0
 10
-230.186
 20
174.19
 11
-229.938
 21
174.199
  0
LINE
  8
0
 10
-229.938
 20
174.199
 11
-229.691
 21
174.172
  0
LINE
  8
0
 10
-229.691
 20
174.172
 11
-229.451
 21
174.109
  0
LINE
  8
0
 10
-229.451
 20
174.109
 11
-229.223
 21
174.012
  0
LINE
  8
0
 10
-229.223
 20
174.012
 11
-229.011
 21
173.883
  0
LINE
  8
0
 10
-229.011
 20
173.883
 11
-228.82
 21
173.724
  0
LINE
  8
0
 10
-228.82
 20
173.724
 11
-228.654
 21
173.539
  0
LINE
  8
0
 10
-228.654
 20
173.539
 11
-228.518
 21
173.332
  0
LINE
  8
0
 10
-228.518
 20
173.332
 11
-228.412
 21
173.107
  0
LINE
  8
0
 10
-228.412
 20
173.107
 11
-228.341
 21
172.87
  0
LINE
  8
0
 10
-228.341
 20
172.87
 11
-228.305
 21
172.624
  0
LINE
  8
0
 10
-228.305
 20
172.624
 11
-228.305
 21
172.376
  0
LINE
  8
0
 10
-228.305
 20
172.376
 11
-228.341
 21
172.13
  0
LINE
  8
0
 10
-228.341
 20
172.13
 11
-228.412
 21
171.893
  0
LINE
  8
0
 10
-228.412
 20
171.893
 11
-228.518
 21
171.668
  0
LINE
  8
0
 10
-228.518
 20
171.668
 11
-228.654
 21
171.461
  0
LINE
  8
0
 10
-228.654
 20
171.461
 11
-228.82
 21
171.276
  0
LINE
  8
0
 10
-228.82
 20
171.276
 11
-229.011
 21
171.117
  0
LINE
  8
0
 10
-229.011
 20
171.117
 11
-229.223
 21
170.988
  0
LINE
  8
0
 10
-229.223
 20
170.988
 11
-229.451
 21
170.891
  0
LINE
  8
0
 10
-229.451
 20
170.891
 11
-229.691
 21
170.828
  0
LINE
  8
0
 10
-229.691
 20
170.828
 11
-229.938
 21
170.801
  0
LINE
  8
0
 10
-229.938
 20
170.801
 11
-230.186
 21
170.81
  0
LINE
  8
0
 10
229.691
 20
170.828
 11
229.451
 21
170.891
  0
LINE
  8
0
 10
229.451
 20
170.891
 11
229.223
 21
170.988
  0
LINE
  8
0
 10
229.223
 20
170.988
 11
229.011
 21
171.117
  0
LINE
  8
0
 10
229.011
 20
171.117
 11
228.82
 21
171.276
  0
LINE
  8
0
 10
228.82
 20
171.276
 11
228.654
 21
171.461
  0
LINE
  8
0
 10
228.654
 20
171.461
 11
228.518
 21
171.668
  0
LINE
  8
0
 10
228.518
 20
171.668
 11
228.412
 21
171.893
  0
LINE
  8
0
 10
228.412
 20
171.893
 11
228.341
 21
172.13
  0
LINE
  8
0
 10
228.341
 20
172.13
 11
228.305
 21
172.376
  0
LINE
  8
0
 10
228.305
 20
172.376
 11
228.305
 21
172.624
  0
LINE
  8
0
 10
228.305
 20
172.624
 11
228.341
 21
172.87
  0
LINE
  8
0
 10
228.341
 20
172.87
 11
228.412
 21
173.107
  0
LINE
  8
0
 10
228.412
 20
173.107
 11
228.518
 21
173.332
  0
LINE
  8
0
 10
228.518
 20
173.332
 11
228.654
 21
173.539
  0
LINE
  8
0
 10
228.654
 20
173.539
 11
228.82
 21
173.724
  0
LINE
  8
0
 10
228.82
 20
173.724
 11
229.011
 21
173.883
  0
LINE
  8
0
 10
229.011
 20
173.883
 11
229.223
 21
174.012
  0
LINE
  8
0
 10
229.223
 20
174.012
 11
229.451
 21
174.109
  0
LINE
  8
0
 10
229.451
 20
174.109
 11
229.691
 21
174.172
  0
LINE
  8
0
 10
229.691
 20
174.172
 11
229.938
 21
174.199
  0
LINE
  8
0
 10
229.938
 20
174.199
 11
230.186
 21
174.19
  0
LINE
  8
0
 10
230.186
 20
174.19
 11
230.43
 21
174.145
  0
LINE
  8
0
 10
230.43
 20
174.145
 11
230.665
 21
174.065
  0
LINE
  8
0
 10
230.665
 20
174.065
 11
230.886
 21
173.951
  0
LINE
  8
0
 10
230.886
 20
173.951
 11
231.087
 21
173.807
  0
LINE
  8
0
 10
231.087
 20
173.807
 11
231.266
 21
173.634
  0
LINE
  8
0
 10
231.266
 20
173.634
 11
231.418
 21
173.438
  0
LINE
  8
0
 10
231.418
 20
173.438
 11
231.539
 21
173.222
  0
LINE
  8
0
 10
231.539
 20
173.222
 11
231.628
 21
172.99
  0
LINE
  8
0
 10
231.628
 20
172.99
 11
231.682
 21
172.748
  0
LINE
  8
0
 10
231.682
 20
172.748
 11
231.7
 21
172.5
  0
LINE
  8
0
 10
231.7
 20
172.5
 11
231.682
 21
172.252
  0
LINE
  8
0
 10
231.682
 20
172.252
 11
231.628
 21
172.01
  0
LINE
  8
0
 10
231.628
 20
172.01
 11
231.539
 21
171.778
  0
LINE
  8
0
 10
231.539
 20
171.778
 11
231.418
 21
171.562
  0
LINE
  8
0
 10
231.418
 20
171.562
 11
231.266
 21
171.366
  0
LINE
  8
0
 10
231.266
 20
171.366
 11
231.087
 21
171.193
  0
LINE
  8
0
 10
231.087
 20
171.193
 11
230.886
 21
171.049
  0
LINE
  8
0
 10
230.886
 20
171.049
 11
230.665
 21
170.935
  0
LINE
  8
0
 10
230.665
 20
170.935
 11
230.43
 21
170.855
  0
LINE
  8
0
 10
230.43
 20
170.855
 11
230.186
 21
170.81
  0
LINE
  8
0
 10
230.186
 20
170.81
 11
229.938
 21
170.801
  0
LINE
  8
0
 10
229.938
 20
170.801
 11
229.691
 21
170.828
  0
LINE
  8
0
 10
-85.3589
 20
108.571
 11
-86.7029
 21
108.784
  0
LINE
  8
0
 10
-86.7029
 20
108.784
 11
-88.0172
 21
109.136
  0
LINE
  8
0
 10
-88.0172
 20
109.136
 11
-89.2876
 21
109.624
  0
LINE
  8
0
 10
-89.2876
 20
109.624
 11
-90.5
 21
110.242
  0
LINE
  8
0
 10
-90.5
 20
110.242
 11
-91.6412
 21
110.983
  0
LINE
  8
0
 10
-91.6412
 20
110.983
 11
-92.6987
 21
111.839
  0
LINE
  8
0
 10
-92.6987
 20
111.839
 11
-93.6609
 21
112.801
  0
LINE
  8
0
 10
-93.6609
 20
112.801
 11
-94.5172
 21
113.859
  0
LINE
  8
0
 10
-94.5172
 20
113.859
 11
-95.2583
 21
115
  0
LINE
  8
0
 10
-95.2583
 20
115
 11
-95.8761
 21
116.212
  0
LINE
  8
0
 10
-95.8761
 20
116.212
 11
-96.3637
 21
117.483
  0
LINE
  8
0
 10
-96.3637
 20
117.483
 11
-96.7159
 21
118.797
  0
LINE
  8
0
 10
-96.7159
 20
118.797
 11
-96.9288
 21
120.141
  0
LINE
  8
0
 10
-96.9288
 20
120.141
 11
-97
 21
121.5
  0
LINE
  8
0
 10
-97
 20
121.5
 11
-96.9288
 21
122.859
  0
LINE
  8
0
 10
-96.9288
 20
122.859
 11
-96.7159
 21
124.203
  0
LINE
  8
0
 10
-96.7159
 20
124.203
 11
-96.3637
 21
125.517
  0
LINE
  8
0
 10
-96.3637
 20
125.517
 11
-95.8761
 21
126.788
  0
LINE
  8
0
 10
-95.8761
 20
126.788
 11
-95.2583
 21
128
  0
LINE
  8
0
 10
-95.2583
 20
128
 11
-94.5172
 21
129.141
  0
LINE
  8
0
 10
-94.5172
 20
129.141
 11
-93.6609
 21
130.199
  0
LINE
  8
0
 10
-93.6609
 20
130.199
 11
-92.6987
 21
131.161
  0
LINE
  8
0
 10
-92.6987
 20
131.161
 11
-91.6412
 21
132.017
  0
LINE
  8
0
 10
-91.6412
 20
132.017
 11
-90.5
 21
132.758
  0
LINE
  8
0
 10
-90.5
 20
132.758
 11
-89.2876
 21
133.376
  0
LINE
  8
0
 10
-89.2876
 20
133.376
 11
-88.0172
 21
133.864
  0
LINE
  8
0
 10
-88.0172
 20
133.864
 11
-86.7029
 21
134.216
  0
LINE
  8
0
 10
-86.7029
 20
134.216
 11
-85.3589
 21
134.429
  0
LINE
  8
0
 10
-85.3589
 20
134.429
 11
-84
 21
134.5
  0
LINE
  8
0
 10
-84
 20
134.5
 11
-82.6411
 21
134.429
  0
LINE
  8
0
 10
-82.6411
 20
134.429
 11
-81.2971
 21
134.216
  0
LINE
  8
0
 10
-81.2971
 20
134.216
 11
-79.9828
 21
133.864
  0
LINE
  8
0
 10
-79.9828
 20
133.864
 11
-78.7124
 21
133.376
  0
LINE
  8
0
 10
-78.7124
 20
133.376
 11
-77.5
 21
132.758
  0
LINE
  8
0
 10
-77.5
 20
132.758
 11
-76.3588
 21
132.017
  0
LINE
  8
0
 10
-76.3588
 20
132.017
 11
-75.3013
 21
131.161
  0
LINE
  8
0
 10
-75.3013
 20
131.161
 11
-74.3391
 21
130.199
  0
LINE
  8
0
 10
-74.3391
 20
130.199
 11
-73.4828
 21
129.141
  0
LINE
  8
0
 10
-73.4828
 20
129.141
 11
-72.7417
 21
128
  0
LINE
  8
0
 10
-72.7417
 20
128
 11
-72.1239
 21
126.788
  0
LINE
  8
0
 10
-72.1239
 20
126.788
 11
-71.6363
 21
125.517
  0
LINE
  8
0
 10
-71.6363
 20
125.517
 11
-71.2841
 21
124.203
  0
LINE
  8
0
 10
-71.2841
 20
124.203
 11
-71.0712
 21
122.859
  0
LINE
  8
0
 10
-71.0712
 20
122.859
 11
-71
 21
121.5
  0
LINE
  8
0
 10
-71
 20
121.5
 11
-71.0712
 21
120.141
  0
LINE
  8
0
 10
-71.0712
 20
120.141
 11
-71.2841
 21
118.797
  0
LINE
  8
0
 10
-71.2841
 20
118.797
 11
-71.6363
 21
117.483
  0
LINE
  8
0
 10
-71.6363
 20
117.483
 11
-72.1239
 21
116.212
  0
LINE
  8
0
 10
-72.1239
 20
116.212
 11
-72.7417
 21
115
  0
LINE
  8
0
 10
-72.7417
 20
115
 11
-73.4828
 21
113.859
  0
LINE
  8
0
 10
-73.4828
 20
113.859
 11
-74.3391
 21
112.801
  0
LINE
  8
0
 10
-74.3391
 20
112.801
 11
-75.3013
 21
111.839
  0
LINE
  8
0
 10
-75.3013
 20
111.839
 11
-76.3588
 21
110.983
  0
LINE
  8
0
 10
-76.3588
 20
110.983
 11
-77.5
 21
110.242
  0
LINE
  8
0
 10
-77.5
 20
110.242
 11
-78.7124
 21
109.624
  0
LINE
  8
0
 10
-78.7124
 20
109.624
 11
-79.9828
 21
109.136
  0
LINE
  8
0
 10
-79.9828
 20
109.136
 11
-81.2971
 21
108.784
  0
LINE
  8
0
 10
-81.2971
 20
108.784
 11
-82.6411
 21
108.571
  0
LINE
  8
0
 10
-82.6411
 20
108.571
 11
-84
 21
108.5
  0
LINE
  8
0
 10
-84
 20
108.5
 11
-85.3589
 21
108.571
  0
LINE
  8
0
 10
185.376
 20
129.005
 11
185.132
 21
129.046
  0
LINE
  8
0
 10
185.132
 20
129.046
 11
184.897
 21
129.126
  0
LINE
  8
0
 10
184.897
 20
129.126
 11
184.68
 21
129.244
  0
LINE
  8
0
 10
184.68
 20
129.244
 11
184.484
 21
129.396
  0
LINE
  8
0
 10
184.484
 20
129.396
 11
184.316
 21
129.579
  0
LINE
  8
0
 10
184.316
 20
129.579
 11
184.181
 21
129.786
  0
LINE
  8
0
 10
184.181
 20
129.786
 11
184.081
 21
130.013
  0
LINE
  8
0
 10
184.081
 20
130.013
 11
184.02
 21
130.253
  0
LINE
  8
0
 10
184.02
 20
130.253
 11
184
 21
130.5
  0
LINE
  8
0
 10
184
 20
130.5
 11
184.02
 21
130.747
  0
LINE
  8
0
 10
184.02
 20
130.747
 11
184.081
 21
130.987
  0
LINE
  8
0
 10
184.081
 20
130.987
 11
184.181
 21
131.214
  0
LINE
  8
0
 10
184.181
 20
131.214
 11
184.316
 21
131.421
  0
LINE
  8
0
 10
184.316
 20
131.421
 11
184.484
 21
131.604
  0
LINE
  8
0
 10
184.484
 20
131.604
 11
184.68
 21
131.756
  0
LINE
  8
0
 10
184.68
 20
131.756
 11
184.897
 21
131.874
  0
LINE
  8
0
 10
184.897
 20
131.874
 11
185.132
 21
131.954
  0
LINE
  8
0
 10
185.132
 20
131.954
 11
185.376
 21
131.995
  0
LINE
  8
0
 10
185.376
 20
131.995
 11
185.624
 21
131.995
  0
LINE
  8
0
 10
185.624
 20
131.995
 11
185.868
 21
131.954
  0
LINE
  8
0
 10
185.868
 20
131.954
 11
186.103
 21
131.874
  0
LINE
  8
0
 10
186.103
 20
131.874
 11
186.32
 21
131.756
  0
LINE
  8
0
 10
186.32
 20
131.756
 11
186.516
 21
131.604
  0
LINE
  8
0
 10
186.516
 20
131.604
 11
186.684
 21
131.421
  0
LINE
  8
0
 10
186.684
 20
131.421
 11
186.819
 21
131.214
  0
LINE
  8
0
 10
186.819
 20
131.214
 11
186.919
 21
130.987
  0
LINE
  8
0
 10
186.919
 20
130.987
 11
186.98
 21
130.747
  0
LINE
  8
0
 10
186.98
 20
130.747
 11
187
 21
130.5
  0
LINE
  8
0
 10
187
 20
130.5
 11
186.98
 21
130.253
  0
LINE
  8
0
 10
186.98
 20
130.253
 11
186.919
 21
130.013
  0
LINE
  8
0
 10
186.919
 20
130.013
 11
186.819
 21
129.786
  0
LINE
  8
0
 10
186.819
 20
129.786
 11
186.684
 21
129.579
  0
LINE
  8
0
 10
186.684
 20
129.579
 11
186.516
 21
129.396
  0
LINE
  8
0
 10
186.516
 20
129.396
 11
186.32
 21
129.244
  0
LINE
  8
0
 10
186.32
 20
129.244
 11
186.103
 21
129.126
  0
LINE
  8
0
 10
186.103
 20
129.126
 11
185.868
 21
129.046
  0
LINE
  8
0
 10
185.868
 20
129.046
 11
185.624
 21
129.005
  0
LINE
  8
0
 10
185.624
 20
129.005
 11
185.376
 21
129.005
  0
LINE
  8
0
 10
-185.624
 20
129.005
 11
-185.868
 21
129.046
  0
LINE
  8
0
 10
-185.868
 20
129.046
 11
-186.103
 21
129.126
  0
LINE
  8
0
 10
-186.103
 20
129.126
 11
-186.32
 21
129.244
  0
LINE
  8
0
 10
-186.32
 20
129.244
 11
-186.516
 21
129.396
  0
LINE
  8
0
 10
-186.516
 20
129.396
 11
-186.684
 21
129.579
  0
LINE
  8
0
 10
-186.684
 20
129.579
 11
-186.819
 21
129.786
  0
LINE
  8
0
 10
-186.819
 20
129.786
 11
-186.919
 21
130.013
  0
LINE
  8
0
 10
-186.919
 20
130.013
 11
-186.98
 21
130.253
  0
LINE
  8
0
 10
-186.98
 20
130.253
 11
-187
 21
130.5
  0
LINE
  8
0
 10
-187
 20
130.5
 11
-186.98
 21
130.747
  0
LINE
  8
0
 10
-186.98
 20
130.747
 11
-186.919
 21
130.987
  0
LINE
  8
0
 10
-186.919
 20
130.987
 11
-186.819
 21
131.214
  0
LINE
  8
0
 10
-186.819
 20
131.214
 11
-186.684
 21
131.421
  0
LINE
  8
0
 10
-186.684
 20
131.421
 11
-186.516
 21
131.604
  0
LINE
  8
0
 10
-186.516
 20
131.604
 11
-186.32
 21
131.756
  0
LINE
  8
0
 10
-186.32
 20
131.756
 11
-186.103
 21
131.874
  0
LINE
  8
0
 10
-186.103
 20
131.874
 11
-185.868
 21
131.954
  0
LINE
  8
0
 10
-185.868
 20
131.954
 11
-185.624
 21
131.995
  0
LINE
  8
0
 10
-185.624
 20
131.995
 11
-185.376
 21
131.995
  0
LINE
  8
0
 10
-185.376
 20
131.995
 11
-185.132
 21
131.954
  0
LINE
  8
0
 10
-185.132
 20
131.954
 11
-184.897
 21
131.874
  0
LINE
  8
0
 10
-184.897
 20
131.874
 11
-184.68
 21
131.756
  0
LINE
  8
0
 10
-184.68
 20
131.756
 11
-184.484
 21
131.604
  0
LINE
  8
0
 10
-184.484
 20
131.604
 11
-184.316
 21
131.421
  0
LINE
  8
0
 10
-184.316
 20
131.421
 11
-184.181
 21
131.214
  0
LINE
  8
0
 10
-184.181
 20
131.214
 11
-184.081
 21
130.987
  0
LINE
  8
0
 10
-184.081
 20
130.987
 11
-184.02
 21
130.747
  0
LINE
  8
0
 10
-184.02
 20
130.747
 11
-184
 21
130.5
  0
LINE
  8
0
 10
-184
 20
130.5
 11
-184.02
 21
130.253
  0
LINE
  8
0
 10
-184.02
 20
130.253
 11
-184.081
 21
130.013
  0
LINE
  8
0
 10
-184.081
 20
130.013
 11
-184.181
 21
129.786
  0
LINE
  8
0
 10
-184.181
 20
129.786
 11
-184.316
 21
129.579
  0
LINE
  8
0
 10
-184.316
 20
129.579
 11
-184.484
 21
129.396
  0
LINE
  8
0
 10
-184.484
 20
129.396
 11
-184.68
 21
129.244
  0
LINE
  8
0
 10
-184.68
 20
129.244
 11
-184.897
 21
129.126
  0
LINE
  8
0
 10
-184.897
 20
129.126
 11
-185.132
 21
129.046
  0
LINE
  8
0
 10
-185.132
 20
129.046
 11
-185.376
 21
129.005
  0
LINE
  8
0
 10
-185.376
 20
129.005
 11
-185.624
 21
129.005
  0
LINE
  8
0
 10
139.186
 20
108.016
 11
138.876
 21
108.066
  0
LINE
  8
0
 10
138.876
 20
108.066
 11
138.573
 21
108.147
  0
LINE
  8
0
 10
138.573
 20
108.147
 11
138.28
 21
108.259
  0
LINE
  8
0
 10
138.28
 20
108.259
 11
138
 21
108.402
  0
LINE
  8
0
 10
138
 20
108.402
 11
137.737
 21
108.573
  0
LINE
  8
0
 10
137.737
 20
108.573
 11
137.493
 21
108.771
  0
LINE
  8
0
 10
137.493
 20
108.771
 11
137.271
 21
108.993
  0
LINE
  8
0
 10
137.271
 20
108.993
 11
137.073
 21
109.237
  0
LINE
  8
0
 10
137.073
 20
109.237
 11
136.902
 21
109.5
  0
LINE
  8
0
 10
136.902
 20
109.5
 11
136.759
 21
109.78
  0
LINE
  8
0
 10
136.759
 20
109.78
 11
136.647
 21
110.073
  0
LINE
  8
0
 10
136.647
 20
110.073
 11
136.566
 21
110.376
  0
LINE
  8
0
 10
136.566
 20
110.376
 11
136.516
 21
110.686
  0
LINE
  8
0
 10
136.516
 20
110.686
 11
136.5
 21
111
  0
LINE
  8
0
 10
136.5
 20
111
 11
136.516
 21
111.314
  0
LINE
  8
0
 10
136.516
 20
111.314
 11
136.566
 21
111.624
  0
LINE
  8
0
 10
136.566
 20
111.624
 11
136.647
 21
111.927
  0
LINE
  8
0
 10
136.647
 20
111.927
 11
136.759
 21
112.22
  0
LINE
  8
0
 10
136.759
 20
112.22
 11
136.902
 21
112.5
  0
LINE
  8
0
 10
136.902
 20
112.5
 11
137.073
 21
112.763
  0
LINE
  8
0
 10
137.073
 20
112.763
 11
137.271
 21
113.007
  0
LINE
  8
0
 10
137.271
 20
113.007
 11
137.493
 21
113.229
  0
LINE
  8
0
 10
137.493
 20
113.229
 11
137.737
 21
113.427
  0
LINE
  8
0
 10
137.737
 20
113.427
 11
138
 21
113.598
  0
LINE
  8
0
 10
138
 20
113.598
 11
138.28
 21
113.741
  0
LINE
  8
0
 10
138.28
 20
113.741
 11
138.573
 21
113.853
  0
LINE
  8
0
 10
138.573
 20
113.853
 11
138.876
 21
113.934
  0
LINE
  8
0
 10
138.876
 20
113.934
 11
139.186
 21
113.984
  0
LINE
  8
0
 10
139.186
 20
113.984
 11
139.5
 21
114
  0
LINE
  8
0
 10
139.5
 20
114
 11
139.814
 21
113.984
  0
LINE
  8
0
 10
139.814
 20
113.984
 11
140.124
 21
113.934
  0
LINE
  8
0
 10
140.124
 20
113.934
 11
140.427
 21
113.853
  0
LINE
  8
0
 10
140.427
 20
113.853
 11
140.72
 21
113.741
  0
LINE
  8
0
 10
140.72
 20
113.741
 11
141
 21
113.598
  0
LINE
  8
0
 10
141
 20
113.598
 11
141.263
 21
113.427
  0
LINE
  8
0
 10
141.263
 20
113.427
 11
141.507
 21
113.229
  0
LINE
  8
0
 10
141.507
 20
113.229
 11
141.729
 21
113.007
  0
LINE
  8
0
 10
141.729
 20
113.007
 11
141.927
 21
112.763
  0
LINE
  8
0
 10
141.927
 20
112.763
 11
142.098
 21
112.5
  0
LINE
  8
0
 10
142.098
 20
112.5
 11
142.241
 21
112.22
  0
LINE
  8
0
 10
142.241
 20
112.22
 11
142.353
 21
111.927
  0
LINE
  8
0
 10
142.353
 20
111.927
 11
142.434
 21
111.624
  0
LINE
  8
0
 10
142.434
 20
111.624
 11
142.484
 21
111.314
  0
LINE
  8
0
 10
142.484
 20
111.314
 11
142.5
 21
111
  0
LINE
  8
0
 10
142.5
 20
111
 11
142.484
 21
110.686
  0
LINE
  8
0
 10
142.484
 20
110.686
 11
142.434
 21
110.376
  0
LINE
  8
0
 10
142.434
 20
110.376
 11
142.353
 21
110.073
  0
LINE
  8
0
 10
142.353
 20
110.073
 11
142.241
 21
109.78
  0
LINE
  8
0
 10
142.241
 20
109.78
 11
142.098
 21
109.5
  0
LINE
  8
0
 10
142.098
 20
109.5
 11
141.927
 21
109.237
  0
LINE
  8
0
 10
141.927
 20
109.237
 11
141.729
 21
108.993
  0
LINE
  8
0
 10
141.729
 20
108.993
 11
141.507
 21
108.771
  0
LINE
  8
0
 10
141.507
 20
108.771
 11
141.263
 21
108.573
  0
LINE
  8
0
 10
141.263
 20
108.573
 11
141
 21
108.402
  0
LINE
  8
0
 10
141
 20
108.402
 11
140.72
 21
108.259
  0
LINE
  8
0
 10
140.72
 20
108.259
 11
140.427
 21
108.147
  0
LINE
  8
0
 10
140.427
 20
108.147
 11
140.124
 21
108.066
  0
LINE
  8
0
 10
140.124
 20
108.066
 11
139.814
 21
108.016
  0
LINE
  8
0
 10
139.814
 20
108.016
 11
139.5
 21
108
  0
LINE
  8
0
 10
139.5
 20
108
 11
139.186
 21
108.016
  0
LINE
  8
0
 10
54.1864
 20
108.016
 11
53.8763
 21
108.066
  0
LINE
  8
0
 10
53.8763
 20
108.066
 11
53.5729
 21
108.147
  0
LINE
  8
0
 10
53.5729
 20
108.147
 11
53.2798
 21
108.259
  0
LINE
  8
0
 10
53.2798
 20
108.259
 11
53
 21
108.402
  0
LINE
  8
0
 10
53
 20
108.402
 11
52.7366
 21
108.573
  0
LINE
  8
0
 10
52.7366
 20
108.573
 11
52.4926
 21
108.771
  0
LINE
  8
0
 10
52.4926
 20
108.771
 11
52.2706
 21
108.993
  0
LINE
  8
0
 10
52.2706
 20
108.993
 11
52.0729
 21
109.237
  0
LINE
  8
0
 10
52.0729
 20
109.237
 11
51.9019
 21
109.5
  0
LINE
  8
0
 10
51.9019
 20
109.5
 11
51.7594
 21
109.78
  0
LINE
  8
0
 10
51.7594
 20
109.78
 11
51.6468
 21
110.073
  0
LINE
  8
0
 10
51.6468
 20
110.073
 11
51.5656
 21
110.376
  0
LINE
  8
0
 10
51.5656
 20
110.376
 11
51.5164
 21
110.686
  0
LINE
  8
0
 10
51.5164
 20
110.686
 11
51.5
 21
111
  0
LINE
  8
0
 10
51.5
 20
111
 11
51.5164
 21
111.314
  0
LINE
  8
0
 10
51.5164
 20
111.314
 11
51.5656
 21
111.624
  0
LINE
  8
0
 10
51.5656
 20
111.624
 11
51.6468
 21
111.927
  0
LINE
  8
0
 10
51.6468
 20
111.927
 11
51.7594
 21
112.22
  0
LINE
  8
0
 10
51.7594
 20
112.22
 11
51.9019
 21
112.5
  0
LINE
  8
0
 10
51.9019
 20
112.5
 11
52.0729
 21
112.763
  0
LINE
  8
0
 10
52.0729
 20
112.763
 11
52.2706
 21
113.007
  0
LINE
  8
0
 10
52.2706
 20
113.007
 11
52.4926
 21
113.229
  0
LINE
  8
0
 10
52.4926
 20
113.229
 11
52.7366
 21
113.427
  0
LINE
  8
0
 10
52.7366
 20
113.427
 11
53
 21
113.598
  0
LINE
  8
0
 10
53
 20
113.598
 11
53.2798
 21
113.741
  0
LINE
  8
0
 10
53.2798
 20
113.741
 11
53.5729
 21
113.853
  0
LINE
  8
0
 10
53.5729
 20
113.853
 11
53.8763
 21
113.934
  0
LINE
  8
0
 10
53.8763
 20
113.934
 11
54.1864
 21
113.984
  0
LINE
  8
0
 10
54.1864
 20
113.984
 11
54.5
 21
114
  0
LINE
  8
0
 10
54.5
 20
114
 11
54.8136
 21
113.984
  0
LINE
  8
0
 10
54.8136
 20
113.984
 11
55.1237
 21
113.934
  0
LINE
  8
0
 10
55.1237
 20
113.934
 11
55.427
 21
113.853
  0
LINE
  8
0
 10
55.427
 20
113.853
 11
55.7202
 21
113.741
  0
LINE
  8
0
 10
55.7202
 20
113.741
 11
56
 21
113.598
  0
LINE
  8
0
 10
56
 20
113.598
 11
56.2634
 21
113.427
  0
LINE
  8
0
 10
56.2634
 20
113.427
 11
56.5074
 21
113.229
  0
LINE
  8
0
 10
56.5074
 20
113.229
 11
56.7294
 21
113.007
  0
LINE
  8
0
 10
56.7294
 20
113.007
 11
56.927
 21
112.763
  0
LINE
  8
0
 10
56.927
 20
112.763
 11
57.0981
 21
112.5
  0
LINE
  8
0
 10
57.0981
 20
112.5
 11
57.2406
 21
112.22
  0
LINE
  8
0
 10
57.2406
 20
112.22
 11
57.3532
 21
111.927
  0
LINE
  8
0
 10
57.3532
 20
111.927
 11
57.4344
 21
111.624
  0
LINE
  8
0
 10
57.4344
 20
111.624
 11
57.4836
 21
111.314
  0
LINE
  8
0
 10
57.4836
 20
111.314
 11
57.5
 21
111
  0
LINE
  8
0
 10
57.5
 20
111
 11
57.4836
 21
110.686
  0
LINE
  8
0
 10
57.4836
 20
110.686
 11
57.4344
 21
110.376
  0
LINE
  8
0
 10
57.4344
 20
110.376
 11
57.3532
 21
110.073
  0
LINE
  8
0
 10
57.3532
 20
110.073
 11
57.2406
 21
109.78
  0
LINE
  8
0
 10
57.2406
 20
109.78
 11
57.0981
 21
109.5
  0
LINE
  8
0
 10
57.0981
 20
109.5
 11
56.927
 21
109.237
  0
LINE
  8
0
 10
56.927
 20
109.237
 11
56.7294
 21
108.993
  0
LINE
  8
0
 10
56.7294
 20
108.993
 11
56.5074
 21
108.771
  0
LINE
  8
0
 10
56.5074
 20
108.771
 11
56.2634
 21
108.573
  0
LINE
  8
0
 10
56.2634
 20
108.573
 11
56
 21
108.402
  0
LINE
  8
0
 10
56
 20
108.402
 11
55.7202
 21
108.259
  0
LINE
  8
0
 10
55.7202
 20
108.259
 11
55.427
 21
108.147
  0
LINE
  8
0
 10
55.427
 20
108.147
 11
55.1237
 21
108.066
  0
LINE
  8
0
 10
55.1237
 20
108.066
 11
54.8136
 21
108.016
  0
LINE
  8
0
 10
54.8136
 20
108.016
 11
54.5
 21
108
  0
LINE
  8
0
 10
54.5
 20
108
 11
54.1864
 21
108.016
  0
LINE
  8
0
 10
-12.7463
 20
88.8138
 11
-12.9895
 21
88.8551
  0
LINE
  8
0
 10
-12.9895
 20
88.8551
 11
-13.2266
 21
88.9234
  0
LINE
  8
0
 10
-13.2266
 20
88.9234
 11
-13.4545
 21
89.0179
  0
LINE
  8
0
 10
-13.4545
 20
89.0179
 11
-13.6705
 21
89.1372
  0
LINE
  8
0
 10
-13.6705
 20
89.1372
 11
-13.8717
 21
89.28
  0
LINE
  8
0
 10
-13.8717
 20
89.28
 11
-14.0556
 21
89.4444
  0
LINE
  8
0
 10
-14.0556
 20
89.4444
 11
-14.22
 21
89.6283
  0
LINE
  8
0
 10
-14.22
 20
89.6283
 11
-14.3628
 21
89.8295
  0
LINE
  8
0
 10
-14.3628
 20
89.8295
 11
-14.4821
 21
90.0455
  0
LINE
  8
0
 10
-14.4821
 20
90.0455
 11
-14.5765
 21
90.2734
  0
LINE
  8
0
 10
-14.5765
 20
90.2734
 11
-14.6448
 21
90.5105
  0
LINE
  8
0
 10
-14.6448
 20
90.5105
 11
-14.6862
 21
90.7537
  0
LINE
  8
0
 10
-14.6862
 20
90.7537
 11
-14.7
 21
91
  0
LINE
  8
0
 10
-14.7
 20
91
 11
-14.6862
 21
91.2463
  0
LINE
  8
0
 10
-14.6862
 20
91.2463
 11
-14.6448
 21
91.4895
  0
LINE
  8
0
 10
-14.6448
 20
91.4895
 11
-14.5765
 21
91.7266
  0
LINE
  8
0
 10
-14.5765
 20
91.7266
 11
-14.4821
 21
91.9545
  0
LINE
  8
0
 10
-14.4821
 20
91.9545
 11
-14.3628
 21
92.1705
  0
LINE
  8
0
 10
-14.3628
 20
92.1705
 11
-14.22
 21
92.3717
  0
LINE
  8
0
 10
-14.22
 20
92.3717
 11
-14.0556
 21
92.5556
  0
LINE
  8
0
 10
-14.0556
 20
92.5556
 11
-13.8717
 21
92.72
  0
LINE
  8
0
 10
-13.8717
 20
92.72
 11
-13.6705
 21
92.8628
  0
LINE
  8
0
 10
-13.6705
 20
92.8628
 11
-13.4545
 21
92.9821
  0
LINE
  8
0
 10
-13.4545
 20
92.9821
 11
-13.2266
 21
93.0765
  0
LINE
  8
0
 10
-13.2266
 20
93.0765
 11
-12.9895
 21
93.1448
  0
LINE
  8
0
 10
-12.9895
 20
93.1448
 11
-12.7463
 21
93.1862
  0
LINE
  8
0
 10
-12.7463
 20
93.1862
 11
-12.5
 21
93.2
  0
LINE
  8
0
 10
-12.5
 20
93.2
 11
-12.2537
 21
93.1862
  0
LINE
  8
0
 10
-12.2537
 20
93.1862
 11
-12.0105
 21
93.1448
  0
LINE
  8
0
 10
-12.0105
 20
93.1448
 11
-11.7734
 21
93.0765
  0
LINE
  8
0
 10
-11.7734
 20
93.0765
 11
-11.5455
 21
92.9821
  0
LINE
  8
0
 10
-11.5455
 20
92.9821
 11
-11.3295
 21
92.8628
  0
LINE
  8
0
 10
-11.3295
 20
92.8628
 11
-11.1283
 21
92.72
  0
LINE
  8
0
 10
-11.1283
 20
92.72
 11
-10.9444
 21
92.5556
  0
LINE
  8
0
 10
-10.9444
 20
92.5556
 11
-10.78
 21
92.3717
  0
LINE
  8
0
 10
-10.78
 20
92.3717
 11
-10.6372
 21
92.1705
  0
LINE
  8
0
 10
-10.6372
 20
92.1705
 11
-10.5179
 21
91.9545
  0
LINE
  8
0
 10
-10.5179
 20
91.9545
 11
-10.4234
 21
91.7266
  0
LINE
  8
0
 10
-10.4234
 20
91.7266
 11
-10.3551
 21
91.4895
  0
LINE
  8
0
 10
-10.3551
 20
91.4895
 11
-10.3138
 21
91.2463
  0
LINE
  8
0
 10
-10.3138
 20
91.2463
 11
-10.3
 21
91
  0
LINE
  8
0
 10
-10.3
 20
91
 11
-10.3138
 21
90.7537
  0
LINE
  8
0
 10
-10.3138
 20
90.7537
 11
-10.3551
 21
90.5105
  0
LINE
  8
0
 10
-10.3551
 20
90.5105
 11
-10.4234
 21
90.2734
  0
LINE
  8
0
 10
-10.4234
 20
90.2734
 11
-10.5179
 21
90.0455
  0
LINE
  8
0
 10
-10.5179
 20
90.0455
 11
-10.6372
 21
89.8295
  0
LINE
  8
0
 10
-10.6372
 20
89.8295
 11
-10.78
 21
89.6283
  0
LINE
  8
0
 10
-10.78
 20
89.6283
 11
-10.9444
 21
89.4444
  0
LINE
  8
0
 10
-10.9444
 20
89.4444
 11
-11.1283
 21
89.28
  0
LINE
  8
0
 10
-11.1283
 20
89.28
 11
-11.3295
 21
89.1372
  0
LINE
  8
0
 10
-11.3295
 20
89.1372
 11
-11.5455
 21
89.0179
  0
LINE
  8
0
 10
-11.5455
 20
89.0179
 11
-11.7734
 21
88.9234
  0
LINE
  8
0
 10
-11.7734
 20
88.9234
 11
-12.0105
 21
88.8551
  0
LINE
  8
0
 10
-12.0105
 20
88.8551
 11
-12.2537
 21
88.8138
  0
LINE
  8
0
 10
-12.2537
 20
88.8138
 11
-12.5
 21
88.8
  0
LINE
  8
0
 10
-12.5
 20
88.8
 11
-12.7463
 21
88.8138
  0
LINE
  8
0
 10
-142.746
 20
88.8138
 11
-142.99
 21
88.8551
  0
LINE
  8
0
 10
-142.99
 20
88.8551
 11
-143.227
 21
88.9234
  0
LINE
  8
0
 10
-143.227
 20
88.9234
 11
-143.455
 21
89.0179
  0
LINE
  8
0
 10
-143.455
 20
89.0179
 11
-143.67
 21
89.1372
  0
LINE
  8
0
 10
-143.67
 20
89.1372
 11
-143.872
 21
89.28
  0
LINE
  8
0
 10
-143.872
 20
89.28
 11
-144.056
 21
89.4444
  0
LINE
  8
0
 10
-144.056
 20
89.4444
 11
-144.22
 21
89.6283
  0
LINE
  8
0
 10
-144.22
 20
89.6283
 11
-144.363
 21
89.8295
  0
LINE
  8
0
 10
-144.363
 20
89.8295
 11
-144.482
 21
90.0455
  0
LINE
  8
0
 10
-144.482
 20
90.0455
 11
-144.577
 21
90.2734
  0
LINE
  8
0
 10
-144.577
 20
90.2734
 11
-144.645
 21
90.5105
  0
LINE
  8
0
 10
-144.645
 20
90.5105
 11
-144.686
 21
90.7537
  0
LINE
  8
0
 10
-144.686
 20
90.7537
 11
-144.7
 21
91
  0
LINE
  8
0
 10
-144.7
 20
91
 11
-144.686
 21
91.2463
  0
LINE
  8
0
 10
-144.686
 20
91.2463
 11
-144.645
 21
91.4895
  0
LINE
  8
0
 10
-144.645
 20
91.4895
 11
-144.577
 21
91.7266
  0
LINE
  8
0
 10
-144.577
 20
91.7266
 11
-144.482
 21
91.9545
  0
LINE
  8
0
 10
-144.482
 20
91.9545
 11
-144.363
 21
92.1705
  0
LINE
  8
0
 10
-144.363
 20
92.1705
 11
-144.22
 21
92.3717
  0
LINE
  8
0
 10
-144.22
 20
92.3717
 11
-144.056
 21
92.5556
  0
LINE
  8
0
 10
-144.056
 20
92.5556
 11
-143.872
 21
92.72
  0
LINE
  8
0
 10
-143.872
 20
92.72
 11
-143.67
 21
92.8628
  0
LINE
  8
0
 10
-143.67
 20
92.8628
 11
-143.455
 21
92.9821
  0
LINE
  8
0
 10
-143.455
 20
92.9821
 11
-143.227
 21
93.0765
  0
LINE
  8
0
 10
-143.227
 20
93.0765
 11
-142.99
 21
93.1448
  0
LINE
  8
0
 10
-142.99
 20
93.1448
 11
-142.746
 21
93.1862
  0
LINE
  8
0
 10
-142.746
 20
93.1862
 11
-142.5
 21
93.2
  0
LINE
  8
0
 10
-142.5
 20
93.2
 11
-142.254
 21
93.1862
  0
LINE
  8
0
 10
-142.254
 20
93.1862
 11
-142.01
 21
93.1448
  0
LINE
  8
0
 10
-142.01
 20
93.1448
 11
-141.773
 21
93.0765
  0
LINE
  8
0
 10
-141.773
 20
93.0765
 11
-141.545
 21
92.9821
  0
LINE
  8
0
 10
-141.545
 20
92.9821
 11
-141.33
 21
92.8628
  0
LINE
  8
0
 10
-141.33
 20
92.8628
 11
-141.128
 21
92.72
  0
LINE
  8
0
 10
-141.128
 20
92.72
 11
-140.944
 21
92.5556
  0
LINE
  8
0
 10
-140.944
 20
92.5556
 11
-140.78
 21
92.3717
  0
LINE
  8
0
 10
-140.78
 20
92.3717
 11
-140.637
 21
92.1705
  0
LINE
  8
0
 10
-140.637
 20
92.1705
 11
-140.518
 21
91.9545
  0
LINE
  8
0
 10
-140.518
 20
91.9545
 11
-140.423
 21
91.7266
  0
LINE
  8
0
 10
-140.423
 20
91.7266
 11
-140.355
 21
91.4895
  0
LINE
  8
0
 10
-140.355
 20
91.4895
 11
-140.314
 21
91.2463
  0
LINE
  8
0
 10
-140.314
 20
91.2463
 11
-140.3
 21
91
  0
LINE
  8
0
 10
-140.3
 20
91
 11
-140.314
 21
90.7537
  0
LINE
  8
0
 10
-140.314
 20
90.7537
 11
-140.355
 21
90.5105
  0
LINE
  8
0
 10
-140.355
 20
90.5105
 11
-140.423
 21
90.2734
  0
LINE
  8
0
 10
-140.423
 20
90.2734
 11
-140.518
 21
90.0455
  0
LINE
  8
0
 10
-140.518
 20
90.0455
 11
-140.637
 21
89.8295
  0
LINE
  8
0
 10
-140.637
 20
89.8295
 11
-140.78
 21
89.6283
  0
LINE
  8
0
 10
-140.78
 20
89.6283
 11
-140.944
 21
89.4444
  0
LINE
  8
0
 10
-140.944
 20
89.4444
 11
-141.128
 21
89.28
  0
LINE
  8
0
 10
-141.128
 20
89.28
 11
-141.33
 21
89.1372
  0
LINE
  8
0
 10
-141.33
 20
89.1372
 11
-141.545
 21
89.0179
  0
LINE
  8
0
 10
-141.545
 20
89.0179
 11
-141.773
 21
88.9234
  0
LINE
  8
0
 10
-141.773
 20
88.9234
 11
-142.01
 21
88.8551
  0
LINE
  8
0
 10
-142.01
 20
88.8551
 11
-142.254
 21
88.8138
  0
LINE
  8
0
 10
-142.254
 20
88.8138
 11
-142.5
 21
88.8
  0
LINE
  8
0
 10
-142.5
 20
88.8
 11
-142.746
 21
88.8138
  0
LINE
  8
0
 10
-27.7463
 20
88.8138
 11
-27.9895
 21
88.8551
  0
LINE
  8
0
 10
-27.9895
 20
88.8551
 11
-28.2266
 21
88.9234
  0
LINE
  8
0
 10
-28.2266
 20
88.9234
 11
-28.4545
 21
89.0179
  0
LINE
  8
0
 10
-28.4545
 20
89.0179
 11
-28.6705
 21
89.1372
  0
LINE
  8
0
 10
-28.6705
 20
89.1372
 11
-28.8717
 21
89.28
  0
LINE
  8
0
 10
-28.8717
 20
89.28
 11
-29.0556
 21
89.4444
  0
LINE
  8
0
 10
-29.0556
 20
89.4444
 11
-29.22
 21
89.6283
  0
LINE
  8
0
 10
-29.22
 20
89.6283
 11
-29.3628
 21
89.8295
  0
LINE
  8
0
 10
-29.3628
 20
89.8295
 11
-29.4821
 21
90.0455
  0
LINE
  8
0
 10
-29.4821
 20
90.0455
 11
-29.5765
 21
90.2734
  0
LINE
  8
0
 10
-29.5765
 20
90.2734
 11
-29.6448
 21
90.5105
  0
LINE
  8
0
 10
-29.6448
 20
90.5105
 11
-29.6862
 21
90.7537
  0
LINE
  8
0
 10
-29.6862
 20
90.7537
 11
-29.7
 21
91
  0
LINE
  8
0
 10
-29.7
 20
91
 11
-29.6862
 21
91.2463
  0
LINE
  8
0
 10
-29.6862
 20
91.2463
 11
-29.6448
 21
91.4895
  0
LINE
  8
0
 10
-29.6448
 20
91.4895
 11
-29.5765
 21
91.7266
  0
LINE
  8
0
 10
-29.5765
 20
91.7266
 11
-29.4821
 21
91.9545
  0
LINE
  8
0
 10
-29.4821
 20
91.9545
 11
-29.3628
 21
92.1705
  0
LINE
  8
0
 10
-29.3628
 20
92.1705
 11
-29.22
 21
92.3717
  0
LINE
  8
0
 10
-29.22
 20
92.3717
 11
-29.0556
 21
92.5556
  0
LINE
  8
0
 10
-29.0556
 20
92.5556
 11
-28.8717
 21
92.72
  0
LINE
  8
0
 10
-28.8717
 20
92.72
 11
-28.6705
 21
92.8628
  0
LINE
  8
0
 10
-28.6705
 20
92.8628
 11
-28.4545
 21
92.9821
  0
LINE
  8
0
 10
-28.4545
 20
92.9821
 11
-28.2266
 21
93.0765
  0
LINE
  8
0
 10
-28.2266
 20
93.0765
 11
-27.9895
 21
93.1448
  0
LINE
  8
0
 10
-27.9895
 20
93.1448
 11
-27.7463
 21
93.1862
  0
LINE
  8
0
 10
-27.7463
 20
93.1862
 11
-27.5
 21
93.2
  0
LINE
  8
0
 10
-27.5
 20
93.2
 11
-27.2537
 21
93.1862
  0
LINE
  8
0
 10
-27.2537
 20
93.1862
 11
-27.0105
 21
93.1448
  0
LINE
  8
0
 10
-27.0105
 20
93.1448
 11
-26.7734
 21
93.0765
  0
LINE
  8
0
 10
-26.7734
 20
93.0765
 11
-26.5455
 21
92.9821
  0
LINE
  8
0
 10
-26.5455
 20
92.9821
 11
-26.3295
 21
92.8628
  0
LINE
  8
0
 10
-26.3295
 20
92.8628
 11
-26.1283
 21
92.72
  0
LINE
  8
0
 10
-26.1283
 20
92.72
 11
-25.9444
 21
92.5556
  0
LINE
  8
0
 10
-25.9444
 20
92.5556
 11
-25.78
 21
92.3717
  0
LINE
  8
0
 10
-25.78
 20
92.3717
 11
-25.6372
 21
92.1705
  0
LINE
  8
0
 10
-25.6372
 20
92.1705
 11
-25.5179
 21
91.9545
  0
LINE
  8
0
 10
-25.5179
 20
91.9545
 11
-25.4234
 21
91.7266
  0
LINE
  8
0
 10
-25.4234
 20
91.7266
 11
-25.3551
 21
91.4895
  0
LINE
  8
0
 10
-25.3551
 20
91.4895
 11
-25.3138
 21
91.2463
  0
LINE
  8
0
 10
-25.3138
 20
91.2463
 11
-25.3
 21
91
  0
LINE
  8
0
 10
-25.3
 20
91
 11
-25.3138
 21
90.7537
  0
LINE
  8
0
 10
-25.3138
 20
90.7537
 11
-25.3551
 21
90.5105
  0
LINE
  8
0
 10
-25.3551
 20
90.5105
 11
-25.4234
 21
90.2734
  0
LINE
  8
0
 10
-25.4234
 20
90.2734
 11
-25.5179
 21
90.0455
  0
LINE
  8
0
 10
-25.5179
 20
90.0455
 11
-25.6372
 21
89.8295
  0
LINE
  8
0
 10
-25.6372
 20
89.8295
 11
-25.78
 21
89.6283
  0
LINE
  8
0
 10
-25.78
 20
89.6283
 11
-25.9444
 21
89.4444
  0
LINE
  8
0
 10
-25.9444
 20
89.4444
 11
-26.1283
 21
89.28
  0
LINE
  8
0
 10
-26.1283
 20
89.28
 11
-26.3295
 21
89.1372
  0
LINE
  8
0
 10
-26.3295
 20
89.1372
 11
-26.5455
 21
89.0179
  0
LINE
  8
0
 10
-26.5455
 20
89.0179
 11
-26.7734
 21
88.9234
  0
LINE
  8
0
 10
-26.7734
 20
88.9234
 11
-27.0105
 21
88.8551
  0
LINE
  8
0
 10
-27.0105
 20
88.8551
 11
-27.2537
 21
88.8138
  0
LINE
  8
0
 10
-27.2537
 20
88.8138
 11
-27.5
 21
88.8
  0
LINE
  8
0
 10
-27.5
 20
88.8
 11
-27.7463
 21
88.8138
  0
LINE
  8
0
 10
229.691
 20
84.5783
 11
229.451
 21
84.6411
  0
LINE
  8
0
 10
229.451
 20
84.6411
 11
229.223
 21
84.7381
  0
LINE
  8
0
 10
229.223
 20
84.7381
 11
229.011
 21
84.8674
  0
LINE
  8
0
 10
229.011
 20
84.8674
 11
228.82
 21
85.0262
  0
LINE
  8
0
 10
228.82
 20
85.0262
 11
228.654
 21
85.211
  0
LINE
  8
0
 10
228.654
 20
85.211
 11
228.518
 21
85.418
  0
LINE
  8
0
 10
228.518
 20
85.418
 11
228.412
 21
85.6427
  0
LINE
  8
0
 10
228.412
 20
85.6427
 11
228.341
 21
85.8804
  0
LINE
  8
0
 10
228.341
 20
85.8804
 11
228.305
 21
86.1259
  0
LINE
  8
0
 10
228.305
 20
86.1259
 11
228.305
 21
86.3741
  0
LINE
  8
0
 10
228.305
 20
86.3741
 11
228.341
 21
86.6196
  0
LINE
  8
0
 10
228.341
 20
86.6196
 11
228.412
 21
86.8573
  0
LINE
  8
0
 10
228.412
 20
86.8573
 11
228.518
 21
87.082
  0
LINE
  8
0
 10
228.518
 20
87.082
 11
228.654
 21
87.289
  0
LINE
  8
0
 10
228.654
 20
87.289
 11
228.82
 21
87.4738
  0
LINE
  8
0
 10
228.82
 20
87.4738
 11
229.011
 21
87.6326
  0
LINE
  8
0
 10
229.011
 20
87.6326
 11
229.223
 21
87.7619
  0
LINE
  8
0
 10
229.223
 20
87.7619
 11
229.451
 21
87.8589
  0
LINE
  8
0
 10
229.451
 20
87.8589
 11
229.691
 21
87.9217
  0
LINE
  8
0
 10
229.691
 20
87.9217
 11
229.938
 21
87.9489
  0
LINE
  8
0
 10
229.938
 20
87.9489
 11
230.186
 21
87.9398
  0
LINE
  8
0
 10
230.186
 20
87.9398
 11
230.43
 21
87.8947
  0
LINE
  8
0
 10
230.43
 20
87.8947
 11
230.665
 21
87.8146
  0
LINE
  8
0
 10
230.665
 20
87.8146
 11
230.886
 21
87.7011
  0
LINE
  8
0
 10
230.886
 20
87.7011
 11
231.087
 21
87.5567
  0
LINE
  8
0
 10
231.087
 20
87.5567
 11
231.266
 21
87.3844
  0
LINE
  8
0
 10
231.266
 20
87.3844
 11
231.418
 21
87.188
  0
LINE
  8
0
 10
231.418
 20
87.188
 11
231.539
 21
86.9716
  0
LINE
  8
0
 10
231.539
 20
86.9716
 11
231.628
 21
86.7398
  0
LINE
  8
0
 10
231.628
 20
86.7398
 11
231.682
 21
86.4975
  0
LINE
  8
0
 10
231.682
 20
86.4975
 11
231.7
 21
86.25
  0
LINE
  8
0
 10
231.7
 20
86.25
 11
231.682
 21
86.0025
  0
LINE
  8
0
 10
231.682
 20
86.0025
 11
231.628
 21
85.7602
  0
LINE
  8
0
 10
231.628
 20
85.7602
 11
231.539
 21
85.5284
  0
LINE
  8
0
 10
231.539
 20
85.5284
 11
231.418
 21
85.312
  0
LINE
  8
0
 10
231.418
 20
85.312
 11
231.266
 21
85.1156
  0
LINE
  8
0
 10
231.266
 20
85.1156
 11
231.087
 21
84.9433
  0
LINE
  8
0
 10
231.087
 20
84.9433
 11
230.886
 21
84.7989
  0
LINE
  8
0
 10
230.886
 20
84.7989
 11
230.665
 21
84.6854
  0
LINE
  8
0
 10
230.665
 20
84.6854
 11
230.43
 21
84.6053
  0
LINE
  8
0
 10
230.43
 20
84.6053
 11
230.186
 21
84.5602
  0
LINE
  8
0
 10
230.186
 20
84.5602
 11
229.938
 21
84.5511
  0
LINE
  8
0
 10
229.938
 20
84.5511
 11
229.691
 21
84.5783
  0
LINE
  8
0
 10
-230.186
 20
84.5602
 11
-230.43
 21
84.6053
  0
LINE
  8
0
 10
-230.43
 20
84.6053
 11
-230.665
 21
84.6854
  0
LINE
  8
0
 10
-230.665
 20
84.6854
 11
-230.886
 21
84.7989
  0
LINE
  8
0
 10
-230.886
 20
84.7989
 11
-231.087
 21
84.9433
  0
LINE
  8
0
 10
-231.087
 20
84.9433
 11
-231.266
 21
85.1156
  0
LINE
  8
0
 10
-231.266
 20
85.1156
 11
-231.418
 21
85.312
  0
LINE
  8
0
 10
-231.418
 20
85.312
 11
-231.539
 21
85.5284
  0
LINE
  8
0
 10
-231.539
 20
85.5284
 11
-231.628
 21
85.7602
  0
LINE
  8
0
 10
-231.628
 20
85.7602
 11
-231.682
 21
86.0025
  0
LINE
  8
0
 10
-231.682
 20
86.0025
 11
-231.7
 21
86.25
  0
LINE
  8
0
 10
-231.7
 20
86.25
 11
-231.682
 21
86.4975
  0
LINE
  8
0
 10
-231.682
 20
86.4975
 11
-231.628
 21
86.7398
  0
LINE
  8
0
 10
-231.628
 20
86.7398
 11
-231.539
 21
86.9716
  0
LINE
  8
0
 10
-231.539
 20
86.9716
 11
-231.418
 21
87.188
  0
LINE
  8
0
 10
-231.418
 20
87.188
 11
-231.266
 21
87.3844
  0
LINE
  8
0
 10
-231.266
 20
87.3844
 11
-231.087
 21
87.5567
  0
LINE
  8
0
 10
-231.087
 20
87.5567
 11
-230.886
 21
87.7011
  0
LINE
  8
0
 10
-230.886
 20
87.7011
 11
-230.665
 21
87.8146
  0
LINE
  8
0
 10
-230.665
 20
87.8146
 11
-230.43
 21
87.8947
  0
LINE
  8
0
 10
-230.43
 20
87.8947
 11
-230.186
 21
87.9398
  0
LINE
  8
0
 10
-230.186
 20
87.9398
 11
-229.938
 21
87.9489
  0
LINE
  8
0
 10
-229.938
 20
87.9489
 11
-229.691
 21
87.9217
  0
LINE
  8
0
 10
-229.691
 20
87.9217
 11
-229.451
 21
87.8589
  0
LINE
  8
0
 10
-229.451
 20
87.8589
 11
-229.223
 21
87.7619
  0
LINE
  8
0
 10
-229.223
 20
87.7619
 11
-229.011
 21
87.6326
  0
LINE
  8
0
 10
-229.011
 20
87.6326
 11
-228.82
 21
87.4738
  0
LINE
  8
0
 10
-228.82
 20
87.4738
 11
-228.654
 21
87.289
  0
LINE
  8
0
 10
-228.654
 20
87.289
 11
-228.518
 21
87.082
  0
LINE
  8
0
 10
-228.518
 20
87.082
 11
-228.412
 21
86.8573
  0
LINE
  8
0
 10
-228.412
 20
86.8573
 11
-228.341
 21
86.6196
  0
LINE
  8
0
 10
-228.341
 20
86.6196
 11
-228.305
 21
86.3741
  0
LINE
  8
0
 10
-228.305
 20
86.3741
 11
-228.305
 21
86.1259
  0
LINE
  8
0
 10
-228.305
 20
86.1259
 11
-228.341
 21
85.8804
  0
LINE
  8
0
 10
-228.341
 20
85.8804
 11
-228.412
 21
85.6427
  0
LINE
  8
0
 10
-228.412
 20
85.6427
 11
-228.518
 21
85.418
  0
LINE
  8
0
 10
-228.518
 20
85.418
 11
-228.654
 21
85.211
  0
LINE
  8
0
 10
-228.654
 20
85.211
 11
-228.82
 21
85.0262
  0
LINE
  8
0
 10
-228.82
 20
85.0262
 11
-229.011
 21
84.8674
  0
LINE
  8
0
 10
-229.011
 20
84.8674
 11
-229.223
 21
84.7381
  0
LINE
  8
0
 10
-229.223
 20
84.7381
 11
-229.451
 21
84.6411
  0
LINE
  8
0
 10
-229.451
 20
84.6411
 11
-229.691
 21
84.5783
  0
LINE
  8
0
 10
-229.691
 20
84.5783
 11
-229.938
 21
84.5511
  0
LINE
  8
0
 10
-229.938
 20
84.5511
 11
-230.186
 21
84.5602
  0
LINE
  8
0
 10
229.691
 20
-1.67171
 11
229.451
 21
-1.60893
  0
LINE
  8
0
 10
229.451
 20
-1.60893
 11
229.223
 21
-1.51187
  0
LINE
  8
0
 10
229.223
 20
-1.51187
 11
229.011
 21
-1.38258
  0
LINE
  8
0
 10
229.011
 20
-1.38258
 11
228.82
 21
-1.22383
  0
LINE
  8
0
 10
228.82
 20
-1.22383
 11
228.654
 21
-1.03899
  0
LINE
  8
0
 10
228.654
 20
-1.03899
 11
228.518
 21
-0.832001
  0
LINE
  8
0
 10
228.518
 20
-0.832001
 11
228.412
 21
-0.607285
  0
LINE
  8
0
 10
228.412
 20
-0.607285
 11
228.341
 21
-0.369629
  0
LINE
  8
0
 10
228.341
 20
-0.369629
 11
228.305
 21
-0.124084
  0
LINE
  8
0
 10
228.305
 20
-0.124084
 11
228.305
 21
0.124084
  0
LINE
  8
0
 10
228.305
 20
0.124084
 11
228.341
 21
0.369629
  0
LINE
  8
0
 10
228.341
 20
0.369629
 11
228.412
 21
0.607285
  0
LINE
  8
0
 10
228.412
 20
0.607285
 11
228.518
 21
0.832001
  0
LINE
  8
0
 10
228.518
 20
0.832001
 11
228.654
 21
1.03899
  0
LINE
  8
0
 10
228.654
 20
1.03899
 11
228.82
 21
1.22383
  0
LINE
  8
0
 10
228.82
 20
1.22383
 11
229.011
 21
1.38258
  0
LINE
  8
0
 10
229.011
 20
1.38258
 11
229.223
 21
1.51187
  0
LINE
  8
0
 10
229.223
 20
1.51187
 11
229.451
 21
1.60893
  0
LINE
  8
0
 10
229.451
 20
1.60893
 11
229.691
 21
1.67171
  0
LINE
  8
0
 10
229.691
 20
1.67171
 11
229.938
 21
1.69885
  0
LINE
  8
0
 10
229.938
 20
1.69885
 11
230.186
 21
1.68979
  0
LINE
  8
0
 10
230.186
 20
1.68979
 11
230.43
 21
1.64471
  0
LINE
  8
0
 10
230.43
 20
1.64471
 11
230.665
 21
1.56458
  0
LINE
  8
0
 10
230.665
 20
1.56458
 11
230.886
 21
1.4511
  0
LINE
  8
0
 10
230.886
 20
1.4511
 11
231.087
 21
1.30669
  0
LINE
  8
0
 10
231.087
 20
1.30669
 11
231.266
 21
1.13443
  0
LINE
  8
0
 10
231.266
 20
1.13443
 11
231.418
 21
0.938004
  0
LINE
  8
0
 10
231.418
 20
0.938004
 11
231.539
 21
0.721573
  0
LINE
  8
0
 10
231.539
 20
0.721573
 11
231.628
 21
0.489761
  0
LINE
  8
0
 10
231.628
 20
0.489761
 11
231.682
 21
0.247513
  0
LINE
  8
0
 10
231.682
 20
0.247513
 11
231.7
 21
0
  0
LINE
  8
0
 10
231.7
 20
0
 11
231.682
 21
-0.247513
  0
LINE
  8
0
 10
231.682
 20
-0.247513
 11
231.628
 21
-0.489761
  0
LINE
  8
0
 10
231.628
 20
-0.489761
 11
231.539
 21
-0.721573
  0
LINE
  8
0
 10
231.539
 20
-0.721573
 11
231.418
 21
-0.938004
  0
LINE
  8
0
 10
231.418
 20
-0.938004
 11
231.266
 21
-1.13443
  0
LINE
  8
0
 10
231.266
 20
-1.13443
 11
231.087
 21
-1.30669
  0
LINE
  8
0
 10
231.087
 20
-1.30669
 11
230.886
 21
-1.4511
  0
LINE
  8
0
 10
230.886
 20
-1.4511
 11
230.665
 21
-1.56458
  0
LINE
  8
0
 10
230.665
 20
-1.56458
 11
230.43
 21
-1.64471
  0
LINE
  8
0
 10
230.43
 20
-1.64471
 11
230.186
 21
-1.68979
  0
LINE
  8
0
 10
230.186
 20
-1.68979
 11
229.938
 21
-1.69885
  0
LINE
  8
0
 10
229.938
 20
-1.69885
 11
229.691
 21
-1.67171
  0
LINE
  8
0
 10
-230.186
 20
-1.68979
 11
-230.43
 21
-1.64471
  0
LINE
  8
0
 10
-230.43
 20
-1.64471
 11
-230.665
 21
-1.56458
  0
LINE
  8
0
 10
-230.665
 20
-1.56458
 11
-230.886
 21
-1.4511
  0
LINE
  8
0
 10
-230.886
 20
-1.4511
 11
-231.087
 21
-1.30669
  0
LINE
  8
0
 10
-231.087
 20
-1.30669
 11
-231.266
 21
-1.13443
  0
LINE
  8
0
 10
-231.266
 20
-1.13443
 11
-231.418
 21
-0.938004
  0
LINE
  8
0
 10
-231.418
 20
-0.938004
 11
-231.539
 21
-0.721573
  0
LINE
  8
0
 10
-231.539
 20
-0.721573
 11
-231.628
 21
-0.489761
  0
LINE
  8
0
 10
-231.628
 20
-0.489761
 11
-231.682
 21
-0.247513
  0
LINE
  8
0
 10
-231.682
 20
-0.247513
 11
-231.7
 21
0
  0
LINE
  8
0
 10
-231.7
 20
0
 11
-231.682
 21
0.247513
  0
LINE
  8
0
 10
-231.682
 20
0.247513
 11
-231.628
 21
0.489761
  0
LINE
  8
0
 10
-231.628
 20
0.489761
 11
-231.539
 21
0.721573
  0
LINE
  8
0
 10
-231.539
 20
0.721573
 11
-231.418
 21
0.938004
  0
LINE
  8
0
 10
-231.418
 20
0.938004
 11
-231.266
 21
1.13443
  0
LINE
  8
0
 10
-231.266
 20
1.13443
 11
-231.087
 21
1.30669
  0
LINE
  8
0
 10
-231.087
 20
1.30669
 11
-230.886
 21
1.4511
  0
LINE
  8
0
 10
-230.886
 20
1.4511
 11
-230.665
 21
1.56458
  0
LINE
  8
0
 10
-230.665
 20
1.56458
 11
-230.43
 21
1.64471
  0
LINE
  8
0
 10
-230.43
 20
1.64471
 11
-230.186
 21
1.68979
  0
LINE
  8
0
 10
-230.186
 20
1.68979
 11
-229.938
 21
1.69885
  0
LINE
  8
0
 10
-229.938
 20
1.69885
 11
-229.691
 21
1.67171
  0
LINE
  8
0
 10
-229.691
 20
1.67171
 11
-229.451
 21
1.60893
  0
LINE
  8
0
 10
-229.451
 20
1.60893
 11
-229.223
 21
1.51187
  0
LINE
  8
0
 10
-229.223
 20
1.51187
 11
-229.011
 21
1.38258
  0
LINE
  8
0
 10
-229.011
 20
1.38258
 11
-228.82
 21
1.22383
  0
LINE
  8
0
 10
-228.82
 20
1.22383
 11
-228.654
 21
1.03899
  0
LINE
  8
0
 10
-228.654
 20
1.03899
 11
-228.518
 21
0.832001
  0
LINE
  8
0
 10
-228.518
 20
0.832001
 11
-228.412
 21
0.607285
  0
LINE
  8
0
 10
-228.412
 20
0.607285
 11
-228.341
 21
0.369629
  0
LINE
  8
0
 10
-228.341
 20
0.369629
 11
-228.305
 21
0.124084
  0
LINE
  8
0
 10
-228.305
 20
0.124084
 11
-228.305
 21
-0.124084
  0
LINE
  8
0
 10
-228.305
 20
-0.124084
 11
-228.341
 21
-0.369629
  0
LINE
  8
0
 10
-228.341
 20
-0.369629
 11
-228.412
 21
-0.607285
  0
LINE
  8
0
 10
-228.412
 20
-0.607285
 11
-228.518
 21
-0.832001
  0
LINE
  8
0
 10
-228.518
 20
-0.832001
 11
-228.654
 21
-1.03899
  0
LINE
  8
0
 10
-228.654
 20
-1.03899
 11
-228.82
 21
-1.22383
  0
LINE
  8
0
 10
-228.82
 20
-1.22383
 11
-229.011
 21
-1.38258
  0
LINE
  8
0
 10
-229.011
 20
-1.38258
 11
-229.223
 21
-1.51187
  0
LINE
  8
0
 10
-229.223
 20
-1.51187
 11
-229.451
 21
-1.60893
  0
LINE
  8
0
 10
-229.451
 20
-1.60893
 11
-229.691
 21
-1.67171
  0
LINE
  8
0
 10
-229.691
 20
-1.67171
 11
-229.938
 21
-1.69885
  0
LINE
  8
0
 10
-229.938
 20
-1.69885
 11
-230.186
 21
-1.68979
  0
LINE
  8
0
 10
-142.746
 20
-3.18616
 11
-142.99
 21
-3.14484
  0
LINE
  8
0
 10
-142.99
 20
-3.14484
 11
-143.227
 21
-3.07654
  0
LINE
  8
0
 10
-143.227
 20
-3.07654
 11
-143.455
 21
-2.98212
  0
LINE
  8
0
 10
-143.455
 20
-2.98212
 11
-143.67
 21
-2.86279
  0
LINE
  8
0
 10
-143.67
 20
-2.86279
 11
-143.872
 21
-2.72002
  0
LINE
  8
0
 10
-143.872
 20
-2.72002
 11
-144.056
 21
-2.55563
  0
LINE
  8
0
 10
-144.056
 20
-2.55563
 11
-144.22
 21
-2.37167
  0
LINE
  8
0
 10
-144.22
 20
-2.37167
 11
-144.363
 21
-2.17046
  0
LINE
  8
0
 10
-144.363
 20
-2.17046
 11
-144.482
 21
-1.95454
  0
LINE
  8
0
 10
-144.482
 20
-1.95454
 11
-144.577
 21
-1.72661
  0
LINE
  8
0
 10
-144.577
 20
-1.72661
 11
-144.645
 21
-1.48953
  0
LINE
  8
0
 10
-144.645
 20
-1.48953
 11
-144.686
 21
-1.24631
  0
LINE
  8
0
 10
-144.686
 20
-1.24631
 11
-144.7
 21
-1
  0
LINE
  8
0
 10
-144.7
 20
-1
 11
-144.686
 21
-0.753677
  0
LINE
  8
0
 10
-144.686
 20
-0.753677
 11
-144.645
 21
-0.510452
  0
LINE
  8
0
 10
-144.645
 20
-0.510452
 11
-144.577
 21
-0.273376
  0
LINE
  8
0
 10
-144.577
 20
-0.273376
 11
-144.482
 21
-0.0454407
  0
LINE
  8
0
 10
-144.482
 20
-0.0454407
 11
-144.363
 21
0.170471
  0
LINE
  8
0
 10
-144.363
 20
0.170471
 11
-144.22
 21
0.371674
  0
LINE
  8
0
 10
-144.22
 20
0.371674
 11
-144.056
 21
0.555634
  0
LINE
  8
0
 10
-144.056
 20
0.555634
 11
-143.872
 21
0.720016
  0
LINE
  8
0
 10
-143.872
 20
0.720016
 11
-143.67
 21
0.862793
  0
LINE
  8
0
 10
-143.67
 20
0.862793
 11
-143.455
 21
0.982132
  0
LINE
  8
0
 10
-143.455
 20
0.982132
 11
-143.227
 21
1.07654
  0
LINE
  8
0
 10
-143.227
 20
1.07654
 11
-142.99
 21
1.14484
  0
LINE
  8
0
 10
-142.99
 20
1.14484
 11
-142.746
 21
1.18616
  0
LINE
  8
0
 10
-142.746
 20
1.18616
 11
-142.5
 21
1.2
  0
LINE
  8
0
 10
-142.5
 20
1.2
 11
-142.254
 21
1.18616
  0
LINE
  8
0
 10
-142.254
 20
1.18616
 11
-142.01
 21
1.14484
  0
LINE
  8
0
 10
-142.01
 20
1.14484
 11
-141.773
 21
1.07654
  0
LINE
  8
0
 10
-141.773
 20
1.07654
 11
-141.545
 21
0.982132
  0
LINE
  8
0
 10
-141.545
 20
0.982132
 11
-141.33
 21
0.862793
  0
LINE
  8
0
 10
-141.33
 20
0.862793
 11
-141.128
 21
0.720016
  0
LINE
  8
0
 10
-141.128
 20
0.720016
 11
-140.944
 21
0.555634
  0
LINE
  8
0
 10
-140.944
 20
0.555634
 11
-140.78
 21
0.371674
  0
LINE
  8
0
 10
-140.78
 20
0.371674
 11
-140.637
 21
0.170471
  0
LINE
  8
0
 10
-140.637
 20
0.170471
 11
-140.518
 21
-0.0454407
  0
LINE
  8
0
 10
-140.518
 20
-0.0454407
 11
-140.423
 21
-0.273376
  0
LINE
  8
0
 10
-140.423
 20
-0.273376
 11
-140.355
 21
-0.510452
  0
LINE
  8
0
 10
-140.355
 20
-0.510452
 11
-140.314
 21
-0.753677
  0
LINE
  8
0
 10
-140.314
 20
-0.753677
 11
-140.3
 21
-1
  0
LINE
  8
0
 10
-140.3
 20
-1
 11
-140.314
 21
-1.24631
  0
LINE
  8
0
 10
-140.314
 20
-1.24631
 11
-140.355
 21
-1.48953
  0
LINE
  8
0
 10
-140.355
 20
-1.48953
 11
-140.423
 21
-1.72661
  0
LINE
  8
0
 10
-140.423
 20
-1.72661
 11
-140.518
 21
-1.95454
  0
LINE
  8
0
 10
-140.518
 20
-1.95454
 11
-140.637
 21
-2.17046
  0
LINE
  8
0
 10
-140.637
 20
-2.17046
 11
-140.78
 21
-2.37167
  0
LINE
  8
0
 10
-140.78
 20
-2.37167
 11
-140.944
 21
-2.55563
  0
LINE
  8
0
 10
-140.944
 20
-2.55563
 11
-141.128
 21
-2.72002
  0
LINE
  8
0
 10
-141.128
 20
-2.72002
 11
-141.33
 21
-2.86279
  0
LINE
  8
0
 10
-141.33
 20
-2.86279
 11
-141.545
 21
-2.98212
  0
LINE
  8
0
 10
-141.545
 20
-2.98212
 11
-141.773
 21
-3.07654
  0
LINE
  8
0
 10
-141.773
 20
-3.07654
 11
-142.01
 21
-3.14484
  0
LINE
  8
0
 10
-142.01
 20
-3.14484
 11
-142.254
 21
-3.18616
  0
LINE
  8
0
 10
-142.254
 20
-3.18616
 11
-142.5
 21
-3.2
  0
LINE
  8
0
 10
-142.5
 20
-3.2
 11
-142.746
 21
-3.18616
  0
LINE
  8
0
 10
-27.7463
 20
-3.18616
 11
-27.9895
 21
-3.14484
  0
LINE
  8
0
 10
-27.9895
 20
-3.14484
 11
-28.2266
 21
-3.07654
  0
LINE
  8
0
 10
-28.2266
 20
-3.07654
 11
-28.4545
 21
-2.98212
  0
LINE
  8
0
 10
-28.4545
 20
-2.98212
 11
-28.6705
 21
-2.86279
  0
LINE
  8
0
 10
-28.6705
 20
-2.86279
 11
-28.8717
 21
-2.72002
  0
LINE
  8
0
 10
-28.8717
 20
-2.72002
 11
-29.0556
 21
-2.55563
  0
LINE
  8
0
 10
-29.0556
 20
-2.55563
 11
-29.22
 21
-2.37167
  0
LINE
  8
0
 10
-29.22
 20
-2.37167
 11
-29.3628
 21
-2.17046
  0
LINE
  8
0
 10
-29.3628
 20
-2.17046
 11
-29.4821
 21
-1.95454
  0
LINE
  8
0
 10
-29.4821
 20
-1.95454
 11
-29.5765
 21
-1.72661
  0
LINE
  8
0
 10
-29.5765
 20
-1.72661
 11
-29.6448
 21
-1.48953
  0
LINE
  8
0
 10
-29.6448
 20
-1.48953
 11
-29.6862
 21
-1.24631
  0
LINE
  8
0
 10
-29.6862
 20
-1.24631
 11
-29.7
 21
-1
  0
LINE
  8
0
 10
-29.7
 20
-1
 11
-29.6862
 21
-0.753677
  0
LINE
  8
0
 10
-29.6862
 20
-0.753677
 11
-29.6448
 21
-0.510452
  0
LINE
  8
0
 10
-29.6448
 20
-0.510452
 11
-29.5765
 21
-0.273376
  0
LINE
  8
0
 10
-29.5765
 20
-0.273376
 11
-29.4821
 21
-0.0454407
  0
LINE
  8
0
 10
-29.4821
 20
-0.0454407
 11
-29.3628
 21
0.170471
  0
LINE
  8
0
 10
-29.3628
 20
0.170471
 11
-29.22
 21
0.371674
  0
LINE
  8
0
 10
-29.22
 20
0.371674
 11
-29.0556
 21
0.555634
  0
LINE
  8
0
 10
-29.0556
 20
0.555634
 11
-28.8717
 21
0.720016
  0
LINE
  8
0
 10
-28.8717
 20
0.720016
 11
-28.6705
 21
0.862793
  0
LINE
  8
0
 10
-28.6705
 20
0.862793
 11
-28.4545
 21
0.982132
  0
LINE
  8
0
 10
-28.4545
 20
0.982132
 11
-28.2266
 21
1.07654
  0
LINE
  8
0
 10
-28.2266
 20
1.07654
 11
-27.9895
 21
1.14484
  0
LINE
  8
0
 10
-27.9895
 20
1.14484
 11
-27.7463
 21
1.18616
  0
LINE
  8
0
 10
-27.7463
 20
1.18616
 11
-27.5
 21
1.2
  0
LINE
  8
0
 10
-27.5
 20
1.2
 11
-27.2537
 21
1.18616
  0
LINE
  8
0
 10
-27.2537
 20
1.18616
 11
-27.0105
 21
1.14484
  0
LINE
  8
0
 10
-27.0105
 20
1.14484
 11
-26.7734
 21
1.07654
  0
LINE
  8
0
 10
-26.7734
 20
1.07654
 11
-26.5455
 21
0.982132
  0
LINE
  8
0
 10
-26.5455
 20
0.982132
 11
-26.3295
 21
0.862793
  0
LINE
  8
0
 10
-26.3295
 20
0.862793
 11
-26.1283
 21
0.720016
  0
LINE
  8
0
 10
-26.1283
 20
0.720016
 11
-25.9444
 21
0.555634
  0
LINE
  8
0
 10
-25.9444
 20
0.555634
 11
-25.78
 21
0.371674
  0
LINE
  8
0
 10
-25.78
 20
0.371674
 11
-25.6372
 21
0.170471
  0
LINE
  8
0
 10
-25.6372
 20
0.170471
 11
-25.5179
 21
-0.0454407
  0
LINE
  8
0
 10
-25.5179
 20
-0.0454407
 11
-25.4234
 21
-0.273376
  0
LINE
  8
0
 10
-25.4234
 20
-0.273376
 11
-25.3551
 21
-0.510452
  0
LINE
  8
0
 10
-25.3551
 20
-0.510452
 11
-25.3138
 21
-0.753677
  0
LINE
  8
0
 10
-25.3138
 20
-0.753677
 11
-25.3
 21
-1
  0
LINE
  8
0
 10
-25.3
 20
-1
 11
-25.3138
 21
-1.24631
  0
LINE
  8
0
 10
-25.3138
 20
-1.24631
 11
-25.3551
 21
-1.48953
  0
LINE
  8
0
 10
-25.3551
 20
-1.48953
 11
-25.4234
 21
-1.72661
  0
LINE
  8
0
 10
-25.4234
 20
-1.72661
 11
-25.5179
 21
-1.95454
  0
LINE
  8
0
 10
-25.5179
 20
-1.95454
 11
-25.6372
 21
-2.17046
  0
LINE
  8
0
 10
-25.6372
 20
-2.17046
 11
-25.78
 21
-2.37167
  0
LINE
  8
0
 10
-25.78
 20
-2.37167
 11
-25.9444
 21
-2.55563
  0
LINE
  8
0
 10
-25.9444
 20
-2.55563
 11
-26.1283
 21
-2.72002
  0
LINE
  8
0
 10
-26.1283
 20
-2.72002
 11
-26.3295
 21
-2.86279
  0
LINE
  8
0
 10
-26.3295
 20
-2.86279
 11
-26.5455
 21
-2.98212
  0
LINE
  8
0
 10
-26.5455
 20
-2.98212
 11
-26.7734
 21
-3.07654
  0
LINE
  8
0
 10
-26.7734
 20
-3.07654
 11
-27.0105
 21
-3.14484
  0
LINE
  8
0
 10
-27.0105
 20
-3.14484
 11
-27.2537
 21
-3.18616
  0
LINE
  8
0
 10
-27.2537
 20
-3.18616
 11
-27.5
 21
-3.2
  0
LINE
  8
0
 10
-27.5
 20
-3.2
 11
-27.7463
 21
-3.18616
  0
LINE
  8
0
 10
139.186
 20
-16.9836
 11
138.876
 21
-16.9344
  0
LINE
  8
0
 10
138.876
 20
-16.9344
 11
138.573
 21
-16.8532
  0
LINE
  8
0
 10
138.573
 20
-16.8532
 11
138.28
 21
-16.7406
  0
LINE
  8
0
 10
138.28
 20
-16.7406
 11
138
 21
-16.5981
  0
LINE
  8
0
 10
138
 20
-16.5981
 11
137.737
 21
-16.427
  0
LINE
  8
0
 10
137.737
 20
-16.427
 11
137.493
 21
-16.2294
  0
LINE
  8
0
 10
137.493
 20
-16.2294
 11
137.271
 21
-16.0074
  0
LINE
  8
0
 10
137.271
 20
-16.0074
 11
137.073
 21
-15.7634
  0
LINE
  8
0
 10
137.073
 20
-15.7634
 11
136.902
 21
-15.5
  0
LINE
  8
0
 10
136.902
 20
-15.5
 11
136.759
 21
-15.2202
  0
LINE
  8
0
 10
136.759
 20
-15.2202
 11
136.647
 21
-14.927
  0
LINE
  8
0
 10
136.647
 20
-14.927
 11
136.566
 21
-14.6237
  0
LINE
  8
0
 10
136.566
 20
-14.6237
 11
136.516
 21
-14.3136
  0
LINE
  8
0
 10
136.516
 20
-14.3136
 11
136.5
 21
-14
  0
LINE
  8
0
 10
136.5
 20
-14
 11
136.516
 21
-13.6864
  0
LINE
  8
0
 10
136.516
 20
-13.6864
 11
136.566
 21
-13.3763
  0
LINE
  8
0
 10
136.566
 20
-13.3763
 11
136.647
 21
-13.0729
  0
LINE
  8
0
 10
136.647
 20
-13.0729
 11
136.759
 21
-12.7798
  0
LINE
  8
0
 10
136.759
 20
-12.7798
 11
136.902
 21
-12.5
  0
LINE
  8
0
 10
136.902
 20
-12.5
 11
137.073
 21
-12.2366
  0
LINE
  8
0
 10
137.073
 20
-12.2366
 11
137.271
 21
-11.9926
  0
LINE
  8
0
 10
137.271
 20
-11.9926
 11
137.493
 21
-11.7706
  0
LINE
  8
0
 10
137.493
 20
-11.7706
 11
137.737
 21
-11.5729
  0
LINE
  8
0
 10
137.737
 20
-11.5729
 11
138
 21
-11.4019
  0
LINE
  8
0
 10
138
 20
-11.4019
 11
138.28
 21
-11.2594
  0
LINE
  8
0
 10
138.28
 20
-11.2594
 11
138.573
 21
-11.1468
  0
LINE
  8
0
 10
138.573
 20
-11.1468
 11
138.876
 21
-11.0656
  0
LINE
  8
0
 10
138.876
 20
-11.0656
 11
139.186
 21
-11.0164
  0
LINE
  8
0
 10
139.186
 20
-11.0164
 11
139.5
 21
-11
  0
LINE
  8
0
 10
139.5
 20
-11
 11
139.814
 21
-11.0164
  0
LINE
  8
0
 10
139.814
 20
-11.0164
 11
140.124
 21
-11.0656
  0
LINE
  8
0
 10
140.124
 20
-11.0656
 11
140.427
 21
-11.1468
  0
LINE
  8
0
 10
140.427
 20
-11.1468
 11
140.72
 21
-11.2594
  0
LINE
  8
0
 10
140.72
 20
-11.2594
 11
141
 21
-11.4019
  0
LINE
  8
0
 10
141
 20
-11.4019
 11
141.263
 21
-11.5729
  0
LINE
  8
0
 10
141.263
 20
-11.5729
 11
141.507
 21
-11.7706
  0
LINE
  8
0
 10
141.507
 20
-11.7706
 11
141.729
 21
-11.9926
  0
LINE
  8
0
 10
141.729
 20
-11.9926
 11
141.927
 21
-12.2366
  0
LINE
  8
0
 10
141.927
 20
-12.2366
 11
142.098
 21
-12.5
  0
LINE
  8
0
 10
142.098
 20
-12.5
 11
142.241
 21
-12.7798
  0
LINE
  8
0
 10
142.241
 20
-12.7798
 11
142.353
 21
-13.0729
  0
LINE
  8
0
 10
142.353
 20
-13.0729
 11
142.434
 21
-13.3763
  0
LINE
  8
0
 10
142.434
 20
-13.3763
 11
142.484
 21
-13.6864
  0
LINE
  8
0
 10
142.484
 20
-13.6864
 11
142.5
 21
-14
  0
LINE
  8
0
 10
142.5
 20
-14
 11
142.484
 21
-14.3136
  0
LINE
  8
0
 10
142.484
 20
-14.3136
 11
142.434
 21
-14.6237
  0
LINE
  8
0
 10
142.434
 20
-14.6237
 11
142.353
 21
-14.927
  0
LINE
  8
0
 10
142.353
 20
-14.927
 11
142.241
 21
-15.2202
  0
LINE
  8
0
 10
142.241
 20
-15.2202
 11
142.098
 21
-15.5
  0
LINE
  8
0
 10
142.098
 20
-15.5
 11
141.927
 21
-15.7634
  0
LINE
  8
0
 10
141.927
 20
-15.7634
 11
141.729
 21
-16.0074
  0
LINE
  8
0
 10
141.729
 20
-16.0074
 11
141.507
 21
-16.2294
  0
LINE
  8
0
 10
141.507
 20
-16.2294
 11
141.263
 21
-16.427
  0
LINE
  8
0
 10
141.263
 20
-16.427
 11
141
 21
-16.5981
  0
LINE
  8
0
 10
141
 20
-16.5981
 11
140.72
 21
-16.7406
  0
LINE
  8
0
 10
140.72
 20
-16.7406
 11
140.427
 21
-16.8532
  0
LINE
  8
0
 10
140.427
 20
-16.8532
 11
140.124
 21
-16.9344
  0
LINE
  8
0
 10
140.124
 20
-16.9344
 11
139.814
 21
-16.9836
  0
LINE
  8
0
 10
139.814
 20
-16.9836
 11
139.5
 21
-17
  0
LINE
  8
0
 10
139.5
 20
-17
 11
139.186
 21
-16.9836
  0
LINE
  8
0
 10
54.1864
 20
-16.9836
 11
53.8763
 21
-16.9344
  0
LINE
  8
0
 10
53.8763
 20
-16.9344
 11
53.5729
 21
-16.8532
  0
LINE
  8
0
 10
53.5729
 20
-16.8532
 11
53.2798
 21
-16.7406
  0
LINE
  8
0
 10
53.2798
 20
-16.7406
 11
53
 21
-16.5981
  0
LINE
  8
0
 10
53
 20
-16.5981
 11
52.7366
 21
-16.427
  0
LINE
  8
0
 10
52.7366
 20
-16.427
 11
52.4926
 21
-16.2294
  0
LINE
  8
0
 10
52.4926
 20
-16.2294
 11
52.2706
 21
-16.0074
  0
LINE
  8
0
 10
52.2706
 20
-16.0074
 11
52.0729
 21
-15.7634
  0
LINE
  8
0
 10
52.0729
 20
-15.7634
 11
51.9019
 21
-15.5
  0
LINE
  8
0
 10
51.9019
 20
-15.5
 11
51.7594
 21
-15.2202
  0
LINE
  8
0
 10
51.7594
 20
-15.2202
 11
51.6468
 21
-14.927
  0
LINE
  8
0
 10
51.6468
 20
-14.927
 11
51.5656
 21
-14.6237
  0
LINE
  8
0
 10
51.5656
 20
-14.6237
 11
51.5164
 21
-14.3136
  0
LINE
  8
0
 10
51.5164
 20
-14.3136
 11
51.5
 21
-14
  0
LINE
  8
0
 10
51.5
 20
-14
 11
51.5164
 21
-13.6864
  0
LINE
  8
0
 10
51.5164
 20
-13.6864
 11
51.5656
 21
-13.3763
  0
LINE
  8
0
 10
51.5656
 20
-13.3763
 11
51.6468
 21
-13.0729
  0
LINE
  8
0
 10
51.6468
 20
-13.0729
 11
51.7594
 21
-12.7798
  0
LINE
  8
0
 10
51.7594
 20
-12.7798
 11
51.9019
 21
-12.5
  0
LINE
  8
0
 10
51.9019
 20
-12.5
 11
52.0729
 21
-12.2366
  0
LINE
  8
0
 10
52.0729
 20
-12.2366
 11
52.2706
 21
-11.9926
  0
LINE
  8
0
 10
52.2706
 20
-11.9926
 11
52.4926
 21
-11.7706
  0
LINE
  8
0
 10
52.4926
 20
-11.7706
 11
52.7366
 21
-11.5729
  0
LINE
  8
0
 10
52.7366
 20
-11.5729
 11
53
 21
-11.4019
  0
LINE
  8
0
 10
53
 20
-11.4019
 11
53.2798
 21
-11.2594
  0
LINE
  8
0
 10
53.2798
 20
-11.2594
 11
53.5729
 21
-11.1468
  0
LINE
  8
0
 10
53.5729
 20
-11.1468
 11
53.8763
 21
-11.0656
  0
LINE
  8
0
 10
53.8763
 20
-11.0656
 11
54.1864
 21
-11.0164
  0
LINE
  8
0
 10
54.1864
 20
-11.0164
 11
54.5
 21
-11
  0
LINE
  8
0
 10
54.5
 20
-11
 11
54.8136
 21
-11.0164
  0
LINE
  8
0
 10
54.8136
 20
-11.0164
 11
55.1237
 21
-11.0656
  0
LINE
  8
0
 10
55.1237
 20
-11.0656
 11
55.427
 21
-11.1468
  0
LINE
  8
0
 10
55.427
 20
-11.1468
 11
55.7202
 21
-11.2594
  0
LINE
  8
0
 10
55.7202
 20
-11.2594
 11
56
 21
-11.4019
  0
LINE
  8
0
 10
56
 20
-11.4019
 11
56.2634
 21
-11.5729
  0
LINE
  8
0
 10
56.2634
 20
-11.5729
 11
56.5074
 21
-11.7706
  0
LINE
  8
0
 10
56.5074
 20
-11.7706
 11
56.7294
 21
-11.9926
  0
LINE
  8
0
 10
56.7294
 20
-11.9926
 11
56.927
 21
-12.2366
  0
LINE
  8
0
 10
56.927
 20
-12.2366
 11
57.0981
 21
-12.5
  0
LINE
  8
0
 10
57.0981
 20
-12.5
 11
57.2406
 21
-12.7798
  0
LINE
  8
0
 10
57.2406
 20
-12.7798
 11
57.3532
 21
-13.0729
  0
LINE
  8
0
 10
57.3532
 20
-13.0729
 11
57.4344
 21
-13.3763
  0
LINE
  8
0
 10
57.4344
 20
-13.3763
 11
57.4836
 21
-13.6864
  0
LINE
  8
0
 10
57.4836
 20
-13.6864
 11
57.5
 21
-14
  0
LINE
  8
0
 10
57.5
 20
-14
 11
57.4836
 21
-14.3136
  0
LINE
  8
0
 10
57.4836
 20
-14.3136
 11
57.4344
 21
-14.6237
  0
LINE
  8
0
 10
57.4344
 20
-14.6237
 11
57.3532
 21
-14.927
  0
LINE
  8
0
 10
57.3532
 20
-14.927
 11
57.2406
 21
-15.2202
  0
LINE
  8
0
 10
57.2406
 20
-15.2202
 11
57.0981
 21
-15.5
  0
LINE
  8
0
 10
57.0981
 20
-15.5
 11
56.927
 21
-15.7634
  0
LINE
  8
0
 10
56.927
 20
-15.7634
 11
56.7294
 21
-16.0074
  0
LINE
  8
0
 10
56.7294
 20
-16.0074
 11
56.5074
 21
-16.2294
  0
LINE
  8
0
 10
56.5074
 20
-16.2294
 11
56.2634
 21
-16.427
  0
LINE
  8
0
 10
56.2634
 20
-16.427
 11
56
 21
-16.5981
  0
LINE
  8
0
 10
56
 20
-16.5981
 11
55.7202
 21
-16.7406
  0
LINE
  8
0
 10
55.7202
 20
-16.7406
 11
55.427
 21
-16.8532
  0
LINE
  8
0
 10
55.427
 20
-16.8532
 11
55.1237
 21
-16.9344
  0
LINE
  8
0
 10
55.1237
 20
-16.9344
 11
54.8136
 21
-16.9836
  0
LINE
  8
0
 10
54.8136
 20
-16.9836
 11
54.5
 21
-17
  0
LINE
  8
0
 10
54.5
 20
-17
 11
54.1864
 21
-16.9836
  0
LINE
  8
0
 10
-27.7463
 20
-21.1862
 11
-27.9895
 21
-21.1448
  0
LINE
  8
0
 10
-27.9895
 20
-21.1448
 11
-28.2266
 21
-21.0765
  0
LINE
  8
0
 10
-28.2266
 20
-21.0765
 11
-28.4545
 21
-20.9821
  0
LINE
  8
0
 10
-28.4545
 20
-20.9821
 11
-28.6705
 21
-20.8628
  0
LINE
  8
0
 10
-28.6705
 20
-20.8628
 11
-28.8717
 21
-20.72
  0
LINE
  8
0
 10
-28.8717
 20
-20.72
 11
-29.0556
 21
-20.5556
  0
LINE
  8
0
 10
-29.0556
 20
-20.5556
 11
-29.22
 21
-20.3717
  0
LINE
  8
0
 10
-29.22
 20
-20.3717
 11
-29.3628
 21
-20.1705
  0
LINE
  8
0
 10
-29.3628
 20
-20.1705
 11
-29.4821
 21
-19.9545
  0
LINE
  8
0
 10
-29.4821
 20
-19.9545
 11
-29.5765
 21
-19.7266
  0
LINE
  8
0
 10
-29.5765
 20
-19.7266
 11
-29.6448
 21
-19.4895
  0
LINE
  8
0
 10
-29.6448
 20
-19.4895
 11
-29.6862
 21
-19.2463
  0
LINE
  8
0
 10
-29.6862
 20
-19.2463
 11
-29.7
 21
-19
  0
LINE
  8
0
 10
-29.7
 20
-19
 11
-29.6862
 21
-18.7537
  0
LINE
  8
0
 10
-29.6862
 20
-18.7537
 11
-29.6448
 21
-18.5105
  0
LINE
  8
0
 10
-29.6448
 20
-18.5105
 11
-29.5765
 21
-18.2734
  0
LINE
  8
0
 10
-29.5765
 20
-18.2734
 11
-29.4821
 21
-18.0455
  0
LINE
  8
0
 10
-29.4821
 20
-18.0455
 11
-29.3628
 21
-17.8295
  0
LINE
  8
0
 10
-29.3628
 20
-17.8295
 11
-29.22
 21
-17.6283
  0
LINE
  8
0
 10
-29.22
 20
-17.6283
 11
-29.0556
 21
-17.4444
  0
LINE
  8
0
 10
-29.0556
 20
-17.4444
 11
-28.8717
 21
-17.28
  0
LINE
  8
0
 10
-28.8717
 20
-17.28
 11
-28.6705
 21
-17.1372
  0
LINE
  8
0
 10
-28.6705
 20
-17.1372
 11
-28.4545
 21
-17.0179
  0
LINE
  8
0
 10
-28.4545
 20
-17.0179
 11
-28.2266
 21
-16.9234
  0
LINE
  8
0
 10
-28.2266
 20
-16.9234
 11
-27.9895
 21
-16.8551
  0
LINE
  8
0
 10
-27.9895
 20
-16.8551
 11
-27.7463
 21
-16.8138
  0
LINE
  8
0
 10
-27.7463
 20
-16.8138
 11
-27.5
 21
-16.8
  0
LINE
  8
0
 10
-27.5
 20
-16.8
 11
-27.2537
 21
-16.8138
  0
LINE
  8
0
 10
-27.2537
 20
-16.8138
 11
-27.0105
 21
-16.8551
  0
LINE
  8
0
 10
-27.0105
 20
-16.8551
 11
-26.7734
 21
-16.9234
  0
LINE
  8
0
 10
-26.7734
 20
-16.9234
 11
-26.5455
 21
-17.0179
  0
LINE
  8
0
 10
-26.5455
 20
-17.0179
 11
-26.3295
 21
-17.1372
  0
LINE
  8
0
 10
-26.3295
 20
-17.1372
 11
-26.1283
 21
-17.28
  0
LINE
  8
0
 10
-26.1283
 20
-17.28
 11
-25.9444
 21
-17.4444
  0
LINE
  8
0
 10
-25.9444
 20
-17.4444
 11
-25.78
 21
-17.6283
  0
LINE
  8
0
 10
-25.78
 20
-17.6283
 11
-25.6372
 21
-17.8295
  0
LINE
  8
0
 10
-25.6372
 20
-17.8295
 11
-25.5179
 21
-18.0455
  0
LINE
  8
0
 10
-25.5179
 20
-18.0455
 11
-25.4234
 21
-18.2734
  0
LINE
  8
0
 10
-25.4234
 20
-18.2734
 11
-25.3551
 21
-18.5105
  0
LINE
  8
0
 10
-25.3551
 20
-18.5105
 11
-25.3138
 21
-18.7537
  0
LINE
  8
0
 10
-25.3138
 20
-18.7537
 11
-25.3
 21
-19
  0
LINE
  8
0
 10
-25.3
 20
-19
 11
-25.3138
 21
-19.2463
  0
LINE
  8
0
 10
-25.3138
 20
-19.2463
 11
-25.3551
 21
-19.4895
  0
LINE
  8
0
 10
-25.3551
 20
-19.4895
 11
-25.4234
 21
-19.7266
  0
LINE
  8
0
 10
-25.4234
 20
-19.7266
 11
-25.5179
 21
-19.9545
  0
LINE
  8
0
 10
-25.5179
 20
-19.9545
 11
-25.6372
 21
-20.1705
  0
LINE
  8
0
 10
-25.6372
 20
-20.1705
 11
-25.78
 21
-20.3717
  0
LINE
  8
0
 10
-25.78
 20
-20.3717
 11
-25.9444
 21
-20.5556
  0
LINE
  8
0
 10
-25.9444
 20
-20.5556
 11
-26.1283
 21
-20.72
  0
LINE
  8
0
 10
-26.1283
 20
-20.72
 11
-26.3295
 21
-20.8628
  0
LINE
  8
0
 10
-26.3295
 20
-20.8628
 11
-26.5455
 21
-20.9821
  0
LINE
  8
0
 10
-26.5455
 20
-20.9821
 11
-26.7734
 21
-21.0765
  0
LINE
  8
0
 10
-26.7734
 20
-21.0765
 11
-27.0105
 21
-21.1448
  0
LINE
  8
0
 10
-27.0105
 20
-21.1448
 11
-27.2537
 21
-21.1862
  0
LINE
  8
0
 10
-27.2537
 20
-21.1862
 11
-27.5
 21
-21.2
  0
LINE
  8
0
 10
-27.5
 20
-21.2
 11
-27.7463
 21
-21.1862
  0
LINE
  8
0
 10
-142.746
 20
-21.1862
 11
-142.99
 21
-21.1448
  0
LINE
  8
0
 10
-142.99
 20
-21.1448
 11
-143.227
 21
-21.0765
  0
LINE
  8
0
 10
-143.227
 20
-21.0765
 11
-143.455
 21
-20.9821
  0
LINE
  8
0
 10
-143.455
 20
-20.9821
 11
-143.67
 21
-20.8628
  0
LINE
  8
0
 10
-143.67
 20
-20.8628
 11
-143.872
 21
-20.72
  0
LINE
  8
0
 10
-143.872
 20
-20.72
 11
-144.056
 21
-20.5556
  0
LINE
  8
0
 10
-144.056
 20
-20.5556
 11
-144.22
 21
-20.3717
  0
LINE
  8
0
 10
-144.22
 20
-20.3717
 11
-144.363
 21
-20.1705
  0
LINE
  8
0
 10
-144.363
 20
-20.1705
 11
-144.482
 21
-19.9545
  0
LINE
  8
0
 10
-144.482
 20
-19.9545
 11
-144.577
 21
-19.7266
  0
LINE
  8
0
 10
-144.577
 20
-19.7266
 11
-144.645
 21
-19.4895
  0
LINE
  8
0
 10
-144.645
 20
-19.4895
 11
-144.686
 21
-19.2463
  0
LINE
  8
0
 10
-144.686
 20
-19.2463
 11
-144.7
 21
-19
  0
LINE
  8
0
 10
-144.7
 20
-19
 11
-144.686
 21
-18.7537
  0
LINE
  8
0
 10
-144.686
 20
-18.7537
 11
-144.645
 21
-18.5105
  0
LINE
  8
0
 10
-144.645
 20
-18.5105
 11
-144.577
 21
-18.2734
  0
LINE
  8
0
 10
-144.577
 20
-18.2734
 11
-144.482
 21
-18.0455
  0
LINE
  8
0
 10
-144.482
 20
-18.0455
 11
-144.363
 21
-17.8295
  0
LINE
  8
0
 10
-144.363
 20
-17.8295
 11
-144.22
 21
-17.6283
  0
LINE
  8
0
 10
-144.22
 20
-17.6283
 11
-144.056
 21
-17.4444
  0
LINE
  8
0
 10
-144.056
 20
-17.4444
 11
-143.872
 21
-17.28
  0
LINE
  8
0
 10
-143.872
 20
-17.28
 11
-143.67
 21
-17.1372
  0
LINE
  8
0
 10
-143.67
 20
-17.1372
 11
-143.455
 21
-17.0179
  0
LINE
  8
0
 10
-143.455
 20
-17.0179
 11
-143.227
 21
-16.9234
  0
LINE
  8
0
 10
-143.227
 20
-16.9234
 11
-142.99
 21
-16.8551
  0
LINE
  8
0
 10
-142.99
 20
-16.8551
 11
-142.746
 21
-16.8138
  0
LINE
  8
0
 10
-142.746
 20
-16.8138
 11
-142.5
 21
-16.8
  0
LINE
  8
0
 10
-142.5
 20
-16.8
 11
-142.254
 21
-16.8138
  0
LINE
  8
0
 10
-142.254
 20
-16.8138
 11
-142.01
 21
-16.8551
  0
LINE
  8
0
 10
-142.01
 20
-16.8551
 11
-141.773
 21
-16.9234
  0
LINE
  8
0
 10
-141.773
 20
-16.9234
 11
-141.545
 21
-17.0179
  0
LINE
  8
0
 10
-141.545
 20
-17.0179
 11
-141.33
 21
-17.1372
  0
LINE
  8
0
 10
-141.33
 20
-17.1372
 11
-141.128
 21
-17.28
  0
LINE
  8
0
 10
-141.128
 20
-17.28
 11
-140.944
 21
-17.4444
  0
LINE
  8
0
 10
-140.944
 20
-17.4444
 11
-140.78
 21
-17.6283
  0
LINE
  8
0
 10
-140.78
 20
-17.6283
 11
-140.637
 21
-17.8295
  0
LINE
  8
0
 10
-140.637
 20
-17.8295
 11
-140.518
 21
-18.0455
  0
LINE
  8
0
 10
-140.518
 20
-18.0455
 11
-140.423
 21
-18.2734
  0
LINE
  8
0
 10
-140.423
 20
-18.2734
 11
-140.355
 21
-18.5105
  0
LINE
  8
0
 10
-140.355
 20
-18.5105
 11
-140.314
 21
-18.7537
  0
LINE
  8
0
 10
-140.314
 20
-18.7537
 11
-140.3
 21
-19
  0
LINE
  8
0
 10
-140.3
 20
-19
 11
-140.314
 21
-19.2463
  0
LINE
  8
0
 10
-140.314
 20
-19.2463
 11
-140.355
 21
-19.4895
  0
LINE
  8
0
 10
-140.355
 20
-19.4895
 11
-140.423
 21
-19.7266
  0
LINE
  8
0
 10
-140.423
 20
-19.7266
 11
-140.518
 21
-19.9545
  0
LINE
  8
0
 10
-140.518
 20
-19.9545
 11
-140.637
 21
-20.1705
  0
LINE
  8
0
 10
-140.637
 20
-20.1705
 11
-140.78
 21
-20.3717
  0
LINE
  8
0
 10
-140.78
 20
-20.3717
 11
-140.944
 21
-20.5556
  0
LINE
  8
0
 10
-140.944
 20
-20.5556
 11
-141.128
 21
-20.72
  0
LINE
  8
0
 10
-141.128
 20
-20.72
 11
-141.33
 21
-20.8628
  0
LINE
  8
0
 10
-141.33
 20
-20.8628
 11
-141.545
 21
-20.9821
  0
LINE
  8
0
 10
-141.545
 20
-20.9821
 11
-141.773
 21
-21.0765
  0
LINE
  8
0
 10
-141.773
 20
-21.0765
 11
-142.01
 21
-21.1448
  0
LINE
  8
0
 10
-142.01
 20
-21.1448
 11
-142.254
 21
-21.1862
  0
LINE
  8
0
 10
-142.254
 20
-21.1862
 11
-142.5
 21
-21.2
  0
LINE
  8
0
 10
-142.5
 20
-21.2
 11
-142.746
 21
-21.1862
  0
LINE
  8
0
 10
-142.746
 20
-35.1862
 11
-142.99
 21
-35.1448
  0
LINE
  8
0
 10
-142.99
 20
-35.1448
 11
-143.227
 21
-35.0765
  0
LINE
  8
0
 10
-143.227
 20
-35.0765
 11
-143.455
 21
-34.9821
  0
LINE
  8
0
 10
-143.455
 20
-34.9821
 11
-143.67
 21
-34.8628
  0
LINE
  8
0
 10
-143.67
 20
-34.8628
 11
-143.872
 21
-34.72
  0
LINE
  8
0
 10
-143.872
 20
-34.72
 11
-144.056
 21
-34.5556
  0
LINE
  8
0
 10
-144.056
 20
-34.5556
 11
-144.22
 21
-34.3717
  0
LINE
  8
0
 10
-144.22
 20
-34.3717
 11
-144.363
 21
-34.1705
  0
LINE
  8
0
 10
-144.363
 20
-34.1705
 11
-144.482
 21
-33.9545
  0
LINE
  8
0
 10
-144.482
 20
-33.9545
 11
-144.577
 21
-33.7266
  0
LINE
  8
0
 10
-144.577
 20
-33.7266
 11
-144.645
 21
-33.4895
  0
LINE
  8
0
 10
-144.645
 20
-33.4895
 11
-144.686
 21
-33.2463
  0
LINE
  8
0
 10
-144.686
 20
-33.2463
 11
-144.7
 21
-33
  0
LINE
  8
0
 10
-144.7
 20
-33
 11
-144.686
 21
-32.7537
  0
LINE
  8
0
 10
-144.686
 20
-32.7537
 11
-144.645
 21
-32.5105
  0
LINE
  8
0
 10
-144.645
 20
-32.5105
 11
-144.577
 21
-32.2734
  0
LINE
  8
0
 10
-144.577
 20
-32.2734
 11
-144.482
 21
-32.0455
  0
LINE
  8
0
 10
-144.482
 20
-32.0455
 11
-144.363
 21
-31.8295
  0
LINE
  8
0
 10
-144.363
 20
-31.8295
 11
-144.22
 21
-31.6283
  0
LINE
  8
0
 10
-144.22
 20
-31.6283
 11
-144.056
 21
-31.4444
  0
LINE
  8
0
 10
-144.056
 20
-31.4444
 11
-143.872
 21
-31.28
  0
LINE
  8
0
 10
-143.872
 20
-31.28
 11
-143.67
 21
-31.1372
  0
LINE
  8
0
 10
-143.67
 20
-31.1372
 11
-143.455
 21
-31.0179
  0
LINE
  8
0
 10
-143.455
 20
-31.0179
 11
-143.227
 21
-30.9234
  0
LINE
  8
0
 10
-143.227
 20
-30.9234
 11
-142.99
 21
-30.8551
  0
LINE
  8
0
 10
-142.99
 20
-30.8551
 11
-142.746
 21
-30.8138
  0
LINE
  8
0
 10
-142.746
 20
-30.8138
 11
-142.5
 21
-30.8
  0
LINE
  8
0
 10
-142.5
 20
-30.8
 11
-142.254
 21
-30.8138
  0
LINE
  8
0
 10
-142.254
 20
-30.8138
 11
-142.01
 21
-30.8551
  0
LINE
  8
0
 10
-142.01
 20
-30.8551
 11
-141.773
 21
-30.9234
  0
LINE
  8
0
 10
-141.773
 20
-30.9234
 11
-141.545
 21
-31.0179
  0
LINE
  8
0
 10
-141.545
 20
-31.0179
 11
-141.33
 21
-31.1372
  0
LINE
  8
0
 10
-141.33
 20
-31.1372
 11
-141.128
 21
-31.28
  0
LINE
  8
0
 10
-141.128
 20
-31.28
 11
-140.944
 21
-31.4444
  0
LINE
  8
0
 10
-140.944
 20
-31.4444
 11
-140.78
 21
-31.6283
  0
LINE
  8
0
 10
-140.78
 20
-31.6283
 11
-140.637
 21
-31.8295
  0
LINE
  8
0
 10
-140.637
 20
-31.8295
 11
-140.518
 21
-32.0455
  0
LINE
  8
0
 10
-140.518
 20
-32.0455
 11
-140.423
 21
-32.2734
  0
LINE
  8
0
 10
-140.423
 20
-32.2734
 11
-140.355
 21
-32.5105
  0
LINE
  8
0
 10
-140.355
 20
-32.5105
 11
-140.314
 21
-32.7537
  0
LINE
  8
0
 10
-140.314
 20
-32.7537
 11
-140.3
 21
-33
  0
LINE
  8
0
 10
-140.3
 20
-33
 11
-140.314
 21
-33.2463
  0
LINE
  8
0
 10
-140.314
 20
-33.2463
 11
-140.355
 21
-33.4895
  0
LINE
  8
0
 10
-140.355
 20
-33.4895
 11
-140.423
 21
-33.7266
  0
LINE
  8
0
 10
-140.423
 20
-33.7266
 11
-140.518
 21
-33.9545
  0
LINE
  8
0
 10
-140.518
 20
-33.9545
 11
-140.637
 21
-34.1705
  0
LINE
  8
0
 10
-140.637
 20
-34.1705
 11
-140.78
 21
-34.3717
  0
LINE
  8
0
 10
-140.78
 20
-34.3717
 11
-140.944
 21
-34.5556
  0
LINE
  8
0
 10
-140.944
 20
-34.5556
 11
-141.128
 21
-34.72
  0
LINE
  8
0
 10
-141.128
 20
-34.72
 11
-141.33
 21
-34.8628
  0
LINE
  8
0
 10
-141.33
 20
-34.8628
 11
-141.545
 21
-34.9821
  0
LINE
  8
0
 10
-141.545
 20
-34.9821
 11
-141.773
 21
-35.0765
  0
LINE
  8
0
 10
-141.773
 20
-35.0765
 11
-142.01
 21
-35.1448
  0
LINE
  8
0
 10
-142.01
 20
-35.1448
 11
-142.254
 21
-35.1862
  0
LINE
  8
0
 10
-142.254
 20
-35.1862
 11
-142.5
 21
-35.2
  0
LINE
  8
0
 10
-142.5
 20
-35.2
 11
-142.746
 21
-35.1862
  0
LINE
  8
0
 10
-12.7463
 20
-35.1862
 11
-12.9895
 21
-35.1448
  0
LINE
  8
0
 10
-12.9895
 20
-35.1448
 11
-13.2266
 21
-35.0765
  0
LINE
  8
0
 10
-13.2266
 20
-35.0765
 11
-13.4545
 21
-34.9821
  0
LINE
  8
0
 10
-13.4545
 20
-34.9821
 11
-13.6705
 21
-34.8628
  0
LINE
  8
0
 10
-13.6705
 20
-34.8628
 11
-13.8717
 21
-34.72
  0
LINE
  8
0
 10
-13.8717
 20
-34.72
 11
-14.0556
 21
-34.5556
  0
LINE
  8
0
 10
-14.0556
 20
-34.5556
 11
-14.22
 21
-34.3717
  0
LINE
  8
0
 10
-14.22
 20
-34.3717
 11
-14.3628
 21
-34.1705
  0
LINE
  8
0
 10
-14.3628
 20
-34.1705
 11
-14.4821
 21
-33.9545
  0
LINE
  8
0
 10
-14.4821
 20
-33.9545
 11
-14.5765
 21
-33.7266
  0
LINE
  8
0
 10
-14.5765
 20
-33.7266
 11
-14.6448
 21
-33.4895
  0
LINE
  8
0
 10
-14.6448
 20
-33.4895
 11
-14.6862
 21
-33.2463
  0
LINE
  8
0
 10
-14.6862
 20
-33.2463
 11
-14.7
 21
-33
  0
LINE
  8
0
 10
-14.7
 20
-33
 11
-14.6862
 21
-32.7537
  0
LINE
  8
0
 10
-14.6862
 20
-32.7537
 11
-14.6448
 21
-32.5105
  0
LINE
  8
0
 10
-14.6448
 20
-32.5105
 11
-14.5765
 21
-32.2734
  0
LINE
  8
0
 10
-14.5765
 20
-32.2734
 11
-14.4821
 21
-32.0455
  0
LINE
  8
0
 10
-14.4821
 20
-32.0455
 11
-14.3628
 21
-31.8295
  0
LINE
  8
0
 10
-14.3628
 20
-31.8295
 11
-14.22
 21
-31.6283
  0
LINE
  8
0
 10
-14.22
 20
-31.6283
 11
-14.0556
 21
-31.4444
  0
LINE
  8
0
 10
-14.0556
 20
-31.4444
 11
-13.8717
 21
-31.28
  0
LINE
  8
0
 10
-13.8717
 20
-31.28
 11
-13.6705
 21
-31.1372
  0
LINE
  8
0
 10
-13.6705
 20
-31.1372
 11
-13.4545
 21
-31.0179
  0
LINE
  8
0
 10
-13.4545
 20
-31.0179
 11
-13.2266
 21
-30.9234
  0
LINE
  8
0
 10
-13.2266
 20
-30.9234
 11
-12.9895
 21
-30.8551
  0
LINE
  8
0
 10
-12.9895
 20
-30.8551
 11
-12.7463
 21
-30.8138
  0
LINE
  8
0
 10
-12.7463
 20
-30.8138
 11
-12.5
 21
-30.8
  0
LINE
  8
0
 10
-12.5
 20
-30.8
 11
-12.2537
 21
-30.8138
  0
LINE
  8
0
 10
-12.2537
 20
-30.8138
 11
-12.0105
 21
-30.8551
  0
LINE
  8
0
 10
-12.0105
 20
-30.8551
 11
-11.7734
 21
-30.9234
  0
LINE
  8
0
 10
-11.7734
 20
-30.9234
 11
-11.5455
 21
-31.0179
  0
LINE
  8
0
 10
-11.5455
 20
-31.0179
 11
-11.3295
 21
-31.1372
  0
LINE
  8
0
 10
-11.3295
 20
-31.1372
 11
-11.1283
 21
-31.28
  0
LINE
  8
0
 10
-11.1283
 20
-31.28
 11
-10.9444
 21
-31.4444
  0
LINE
  8
0
 10
-10.9444
 20
-31.4444
 11
-10.78
 21
-31.6283
  0
LINE
  8
0
 10
-10.78
 20
-31.6283
 11
-10.6372
 21
-31.8295
  0
LINE
  8
0
 10
-10.6372
 20
-31.8295
 11
-10.5179
 21
-32.0455
  0
LINE
  8
0
 10
-10.5179
 20
-32.0455
 11
-10.4234
 21
-32.2734
  0
LINE
  8
0
 10
-10.4234
 20
-32.2734
 11
-10.3551
 21
-32.5105
  0
LINE
  8
0
 10
-10.3551
 20
-32.5105
 11
-10.3138
 21
-32.7537
  0
LINE
  8
0
 10
-10.3138
 20
-32.7537
 11
-10.3
 21
-33
  0
LINE
  8
0
 10
-10.3
 20
-33
 11
-10.3138
 21
-33.2463
  0
LINE
  8
0
 10
-10.3138
 20
-33.2463
 11
-10.3551
 21
-33.4895
  0
LINE
  8
0
 10
-10.3551
 20
-33.4895
 11
-10.4234
 21
-33.7266
  0
LINE
  8
0
 10
-10.4234
 20
-33.7266
 11
-10.5179
 21
-33.9545
  0
LINE
  8
0
 10
-10.5179
 20
-33.9545
 11
-10.6372
 21
-34.1705
  0
LINE
  8
0
 10
-10.6372
 20
-34.1705
 11
-10.78
 21
-34.3717
  0
LINE
  8
0
 10
-10.78
 20
-34.3717
 11
-10.9444
 21
-34.5556
  0
LINE
  8
0
 10
-10.9444
 20
-34.5556
 11
-11.1283
 21
-34.72
  0
LINE
  8
0
 10
-11.1283
 20
-34.72
 11
-11.3295
 21
-34.8628
  0
LINE
  8
0
 10
-11.3295
 20
-34.8628
 11
-11.5455
 21
-34.9821
  0
LINE
  8
0
 10
-11.5455
 20
-34.9821
 11
-11.7734
 21
-35.0765
  0
LINE
  8
0
 10
-11.7734
 20
-35.0765
 11
-12.0105
 21
-35.1448
  0
LINE
  8
0
 10
-12.0105
 20
-35.1448
 11
-12.2537
 21
-35.1862
  0
LINE
  8
0
 10
-12.2537
 20
-35.1862
 11
-12.5
 21
-35.2
  0
LINE
  8
0
 10
-12.5
 20
-35.2
 11
-12.7463
 21
-35.1862
  0
LINE
  8
0
 10
229.691
 20
-87.9217
 11
229.451
 21
-87.8589
  0
LINE
  8
0
 10
229.451
 20
-87.8589
 11
229.223
 21
-87.7619
  0
LINE
  8
0
 10
229.223
 20
-87.7619
 11
229.011
 21
-87.6326
  0
LINE
  8
0
 10
229.011
 20
-87.6326
 11
228.82
 21
-87.4738
  0
LINE
  8
0
 10
228.82
 20
-87.4738
 11
228.654
 21
-87.289
  0
LINE
  8
0
 10
228.654
 20
-87.289
 11
228.518
 21
-87.082
  0
LINE
  8
0
 10
228.518
 20
-87.082
 11
228.412
 21
-86.8573
  0
LINE
  8
0
 10
228.412
 20
-86.8573
 11
228.341
 21
-86.6196
  0
LINE
  8
0
 10
228.341
 20
-86.6196
 11
228.305
 21
-86.3741
  0
LINE
  8
0
 10
228.305
 20
-86.3741
 11
228.305
 21
-86.1259
  0
LINE
  8
0
 10
228.305
 20
-86.1259
 11
228.341
 21
-85.8804
  0
LINE
  8
0
 10
228.341
 20
-85.8804
 11
228.412
 21
-85.6427
  0
LINE
  8
0
 10
228.412
 20
-85.6427
 11
228.518
 21
-85.418
  0
LINE
  8
0
 10
228.518
 20
-85.418
 11
228.654
 21
-85.211
  0
LINE
  8
0
 10
228.654
 20
-85.211
 11
228.82
 21
-85.0262
  0
LINE
  8
0
 10
228.82
 20
-85.0262
 11
229.011
 21
-84.8674
  0
LINE
  8
0
 10
229.011
 20
-84.8674
 11
229.223
 21
-84.7381
  0
LINE
  8
0
 10
229.223
 20
-84.7381
 11
229.451
 21
-84.6411
  0
LINE
  8
0
 10
229.451
 20
-84.6411
 11
229.691
 21
-84.5783
  0
LINE
  8
0
 10
229.691
 20
-84.5783
 11
229.938
 21
-84.5511
  0
LINE
  8
0
 10
229.938
 20
-84.5511
 11
230.186
 21
-84.5602
  0
LINE
  8
0
 10
230.186
 20
-84.5602
 11
230.43
 21
-84.6053
  0
LINE
  8
0
 10
230.43
 20
-84.6053
 11
230.665
 21
-84.6854
  0
LINE
  8
0
 10
230.665
 20
-84.6854
 11
230.886
 21
-84.7989
  0
LINE
  8
0
 10
230.886
 20
-84.7989
 11
231.087
 21
-84.9433
  0
LINE
  8
0
 10
231.087
 20
-84.9433
 11
231.266
 21
-85.1156
  0
LINE
  8
0
 10
231.266
 20
-85.1156
 11
231.418
 21
-85.312
  0
LINE
  8
0
 10
231.418
 20
-85.312
 11
231.539
 21
-85.5284
  0
LINE
  8
0
 10
231.539
 20
-85.5284
 11
231.628
 21
-85.7602
  0
LINE
  8
0
 10
231.628
 20
-85.7602
 11
231.682
 21
-86.0025
  0
LINE
  8
0
 10
231.682
 20
-86.0025
 11
231.7
 21
-86.25
  0
LINE
  8
0
 10
231.7
 20
-86.25
 11
231.682
 21
-86.4975
  0
LINE
  8
0
 10
231.682
 20
-86.4975
 11
231.628
 21
-86.7398
  0
LINE
  8
0
 10
231.628
 20
-86.7398
 11
231.539
 21
-86.9716
  0
LINE
  8
0
 10
231.539
 20
-86.9716
 11
231.418
 21
-87.188
  0
LINE
  8
0
 10
231.418
 20
-87.188
 11
231.266
 21
-87.3844
  0
LINE
  8
0
 10
231.266
 20
-87.3844
 11
231.087
 21
-87.5567
  0
LINE
  8
0
 10
231.087
 20
-87.5567
 11
230.886
 21
-87.7011
  0
LINE
  8
0
 10
230.886
 20
-87.7011
 11
230.665
 21
-87.8146
  0
LINE
  8
0
 10
230.665
 20
-87.8146
 11
230.43
 21
-87.8947
  0
LINE
  8
0
 10
230.43
 20
-87.8947
 11
230.186
 21
-87.9398
  0
LINE
  8
0
 10
230.186
 20
-87.9398
 11
229.938
 21
-87.9489
  0
LINE
  8
0
 10
229.938
 20
-87.9489
 11
229.691
 21
-87.9217
  0
LINE
  8
0
 10
-230.186
 20
-87.9398
 11
-230.43
 21
-87.8947
  0
LINE
  8
0
 10
-230.43
 20
-87.8947
 11
-230.665
 21
-87.8146
  0
LINE
  8
0
 10
-230.665
 20
-87.8146
 11
-230.886
 21
-87.7011
  0
LINE
  8
0
 10
-230.886
 20
-87.7011
 11
-231.087
 21
-87.5567
  0
LINE
  8
0
 10
-231.087
 20
-87.5567
 11
-231.266
 21
-87.3844
  0
LINE
  8
0
 10
-231.266
 20
-87.3844
 11
-231.418
 21
-87.188
  0
LINE
  8
0
 10
-231.418
 20
-87.188
 11
-231.539
 21
-86.9716
  0
LINE
  8
0
 10
-231.539
 20
-86.9716
 11
-231.628
 21
-86.7398
  0
LINE
  8
0
 10
-231.628
 20
-86.7398
 11
-231.682
 21
-86.4975
  0
LINE
  8
0
 10
-231.682
 20
-86.4975
 11
-231.7
 21
-86.25
  0
LINE
  8
0
 10
-231.7
 20
-86.25
 11
-231.682
 21
-86.0025
  0
LINE
  8
0
 10
-231.682
 20
-86.0025
 11
-231.628
 21
-85.7602
  0
LINE
  8
0
 10
-231.628
 20
-85.7602
 11
-231.539
 21
-85.5284
  0
LINE
  8
0
 10
-231.539
 20
-85.5284
 11
-231.418
 21
-85.312
  0
LINE
  8
0
 10
-231.418
 20
-85.312
 11
-231.266
 21
-85.1156
  0
LINE
  8
0
 10
-231.266
 20
-85.1156
 11
-231.087
 21
-84.9433
  0
LINE
  8
0
 10
-231.087
 20
-84.9433
 11
-230.886
 21
-84.7989
  0
LINE
  8
0
 10
-230.886
 20
-84.7989
 11
-230.665
 21
-84.6854
  0
LINE
  8
0
 10
-230.665
 20
-84.6854
 11
-230.43
 21
-84.6053
  0
LINE
  8
0
 10
-230.43
 20
-84.6053
 11
-230.186
 21
-84.5602
  0
LINE
  8
0
 10
-230.186
 20
-84.5602
 11
-229.938
 21
-84.5511
  0
LINE
  8
0
 10
-229.938
 20
-84.5511
 11
-229.691
 21
-84.5783
  0
LINE
  8
0
 10
-229.691
 20
-84.5783
 11
-229.451
 21
-84.6411
  0
LINE
  8
0
 10
-229.451
 20
-84.6411
 11
-229.223
 21
-84.7381
  0
LINE
  8
0
 10
-229.223
 20
-84.7381
 11
-229.011
 21
-84.8674
  0
LINE
  8
0
 10
-229.011
 20
-84.8674
 11
-228.82
 21
-85.0262
  0
LINE
  8
0
 10
-228.82
 20
-85.0262
 11
-228.654
 21
-85.211
  0
LINE
  8
0
 10
-228.654
 20
-85.211
 11
-228.518
 21
-85.418
  0
LINE
  8
0
 10
-228.518
 20
-85.418
 11
-228.412
 21
-85.6427
  0
LINE
  8
0
 10
-228.412
 20
-85.6427
 11
-228.341
 21
-85.8804
  0
LINE
  8
0
 10
-228.341
 20
-85.8804
 11
-228.305
 21
-86.1259
  0
LINE
  8
0
 10
-228.305
 20
-86.1259
 11
-228.305
 21
-86.3741
  0
LINE
  8
0
 10
-228.305
 20
-86.3741
 11
-228.341
 21
-86.6196
  0
LINE
  8
0
 10
-228.341
 20
-86.6196
 11
-228.412
 21
-86.8573
  0
LINE
  8
0
 10
-228.412
 20
-86.8573
 11
-228.518
 21
-87.082
  0
LINE
  8
0
 10
-228.518
 20
-87.082
 11
-228.654
 21
-87.289
  0
LINE
  8
0
 10
-228.654
 20
-87.289
 11
-228.82
 21
-87.4738
  0
LINE
  8
0
 10
-228.82
 20
-87.4738
 11
-229.011
 21
-87.6326
  0
LINE
  8
0
 10
-229.011
 20
-87.6326
 11
-229.223
 21
-87.7619
  0
LINE
  8
0
 10
-229.223
 20
-87.7619
 11
-229.451
 21
-87.8589
  0
LINE
  8
0
 10
-229.451
 20
-87.8589
 11
-229.691
 21
-87.9217
  0
LINE
  8
0
 10
-229.691
 20
-87.9217
 11
-229.938
 21
-87.9489
  0
LINE
  8
0
 10
-229.938
 20
-87.9489
 11
-230.186
 21
-87.9398
  0
LINE
  8
0
 10
-27.7463
 20
-113.186
 11
-27.9895
 21
-113.145
  0
LINE
  8
0
 10
-27.9895
 20
-113.145
 11
-28.2266
 21
-113.077
  0
LINE
  8
0
 10
-28.2266
 20
-113.077
 11
-28.4545
 21
-112.982
  0
LINE
  8
0
 10
-28.4545
 20
-112.982
 11
-28.6705
 21
-112.863
  0
LINE
  8
0
 10
-28.6705
 20
-112.863
 11
-28.8717
 21
-112.72
  0
LINE
  8
0
 10
-28.8717
 20
-112.72
 11
-29.0556
 21
-112.556
  0
LINE
  8
0
 10
-29.0556
 20
-112.556
 11
-29.22
 21
-112.372
  0
LINE
  8
0
 10
-29.22
 20
-112.372
 11
-29.3628
 21
-112.17
  0
LINE
  8
0
 10
-29.3628
 20
-112.17
 11
-29.4821
 21
-111.955
  0
LINE
  8
0
 10
-29.4821
 20
-111.955
 11
-29.5765
 21
-111.727
  0
LINE
  8
0
 10
-29.5765
 20
-111.727
 11
-29.6448
 21
-111.49
  0
LINE
  8
0
 10
-29.6448
 20
-111.49
 11
-29.6862
 21
-111.246
  0
LINE
  8
0
 10
-29.6862
 20
-111.246
 11
-29.7
 21
-111
  0
LINE
  8
0
 10
-29.7
 20
-111
 11
-29.6862
 21
-110.754
  0
LINE
  8
0
 10
-29.6862
 20
-110.754
 11
-29.6448
 21
-110.51
  0
LINE
  8
0
 10
-29.6448
 20
-110.51
 11
-29.5765
 21
-110.273
  0
LINE
  8
0
 10
-29.5765
 20
-110.273
 11
-29.4821
 21
-110.045
  0
LINE
  8
0
 10
-29.4821
 20
-110.045
 11
-29.3628
 21
-109.83
  0
LINE
  8
0
 10
-29.3628
 20
-109.83
 11
-29.22
 21
-109.628
  0
LINE
  8
0
 10
-29.22
 20
-109.628
 11
-29.0556
 21
-109.444
  0
LINE
  8
0
 10
-29.0556
 20
-109.444
 11
-28.8717
 21
-109.28
  0
LINE
  8
0
 10
-28.8717
 20
-109.28
 11
-28.6705
 21
-109.137
  0
LINE
  8
0
 10
-28.6705
 20
-109.137
 11
-28.4545
 21
-109.018
  0
LINE
  8
0
 10
-28.4545
 20
-109.018
 11
-28.2266
 21
-108.923
  0
LINE
  8
0
 10
-28.2266
 20
-108.923
 11
-27.9895
 21
-108.855
  0
LINE
  8
0
 10
-27.9895
 20
-108.855
 11
-27.7463
 21
-108.814
  0
LINE
  8
0
 10
-27.7463
 20
-108.814
 11
-27.5
 21
-108.8
  0
LINE
  8
0
 10
-27.5
 20
-108.8
 11
-27.2537
 21
-108.814
  0
LINE
  8
0
 10
-27.2537
 20
-108.814
 11
-27.0105
 21
-108.855
  0
LINE
  8
0
 10
-27.0105
 20
-108.855
 11
-26.7734
 21
-108.923
  0
LINE
  8
0
 10
-26.7734
 20
-108.923
 11
-26.5455
 21
-109.018
  0
LINE
  8
0
 10
-26.5455
 20
-109.018
 11
-26.3295
 21
-109.137
  0
LINE
  8
0
 10
-26.3295
 20
-109.137
 11
-26.1283
 21
-109.28
  0
LINE
  8
0
 10
-26.1283
 20
-109.28
 11
-25.9444
 21
-109.444
  0
LINE
  8
0
 10
-25.9444
 20
-109.444
 11
-25.78
 21
-109.628
  0
LINE
  8
0
 10
-25.78
 20
-109.628
 11
-25.6372
 21
-109.83
  0
LINE
  8
0
 10
-25.6372
 20
-109.83
 11
-25.5179
 21
-110.045
  0
LINE
  8
0
 10
-25.5179
 20
-110.045
 11
-25.4234
 21
-110.273
  0
LINE
  8
0
 10
-25.4234
 20
-110.273
 11
-25.3551
 21
-110.51
  0
LINE
  8
0
 10
-25.3551
 20
-110.51
 11
-25.3138
 21
-110.754
  0
LINE
  8
0
 10
-25.3138
 20
-110.754
 11
-25.3
 21
-111
  0
LINE
  8
0
 10
-25.3
 20
-111
 11
-25.3138
 21
-111.246
  0
LINE
  8
0
 10
-25.3138
 20
-111.246
 11
-25.3551
 21
-111.49
  0
LINE
  8
0
 10
-25.3551
 20
-111.49
 11
-25.4234
 21
-111.727
  0
LINE
  8
0
 10
-25.4234
 20
-111.727
 11
-25.5179
 21
-111.955
  0
LINE
  8
0
 10
-25.5179
 20
-111.955
 11
-25.6372
 21
-112.17
  0
LINE
  8
0
 10
-25.6372
 20
-112.17
 11
-25.78
 21
-112.372
  0
LINE
  8
0
 10
-25.78
 20
-112.372
 11
-25.9444
 21
-112.556
  0
LINE
  8
0
 10
-25.9444
 20
-112.556
 11
-26.1283
 21
-112.72
  0
LINE
  8
0
 10
-26.1283
 20
-112.72
 11
-26.3295
 21
-112.863
  0
LINE
  8
0
 10
-26.3295
 20
-112.863
 11
-26.5455
 21
-112.982
  0
LINE
  8
0
 10
-26.5455
 20
-112.982
 11
-26.7734
 21
-113.077
  0
LINE
  8
0
 10
-26.7734
 20
-113.077
 11
-27.0105
 21
-113.145
  0
LINE
  8
0
 10
-27.0105
 20
-113.145
 11
-27.2537
 21
-113.186
  0
LINE
  8
0
 10
-27.2537
 20
-113.186
 11
-27.5
 21
-113.2
  0
LINE
  8
0
 10
-27.5
 20
-113.2
 11
-27.7463
 21
-113.186
  0
LINE
  8
0
 10
-142.746
 20
-113.186
 11
-142.99
 21
-113.145
  0
LINE
  8
0
 10
-142.99
 20
-113.145
 11
-143.227
 21
-113.077
  0
LINE
  8
0
 10
-143.227
 20
-113.077
 11
-143.455
 21
-112.982
  0
LINE
  8
0
 10
-143.455
 20
-112.982
 11
-143.67
 21
-112.863
  0
LINE
  8
0
 10
-143.67
 20
-112.863
 11
-143.872
 21
-112.72
  0
LINE
  8
0
 10
-143.872
 20
-112.72
 11
-144.056
 21
-112.556
  0
LINE
  8
0
 10
-144.056
 20
-112.556
 11
-144.22
 21
-112.372
  0
LINE
  8
0
 10
-144.22
 20
-112.372
 11
-144.363
 21
-112.17
  0
LINE
  8
0
 10
-144.363
 20
-112.17
 11
-144.482
 21
-111.955
  0
LINE
  8
0
 10
-144.482
 20
-111.955
 11
-144.577
 21
-111.727
  0
LINE
  8
0
 10
-144.577
 20
-111.727
 11
-144.645
 21
-111.49
  0
LINE
  8
0
 10
-144.645
 20
-111.49
 11
-144.686
 21
-111.246
  0
LINE
  8
0
 10
-144.686
 20
-111.246
 11
-144.7
 21
-111
  0
LINE
  8
0
 10
-144.7
 20
-111
 11
-144.686
 21
-110.754
  0
LINE
  8
0
 10
-144.686
 20
-110.754
 11
-144.645
 21
-110.51
  0
LINE
  8
0
 10
-144.645
 20
-110.51
 11
-144.577
 21
-110.273
  0
LINE
  8
0
 10
-144.577
 20
-110.273
 11
-144.482
 21
-110.045
  0
LINE
  8
0
 10
-144.482
 20
-110.045
 11
-144.363
 21
-109.83
  0
LINE
  8
0
 10
-144.363
 20
-109.83
 11
-144.22
 21
-109.628
  0
LINE
  8
0
 10
-144.22
 20
-109.628
 11
-144.056
 21
-109.444
  0
LINE
  8
0
 10
-144.056
 20
-109.444
 11
-143.872
 21
-109.28
  0
LINE
  8
0
 10
-143.872
 20
-109.28
 11
-143.67
 21
-109.137
  0
LINE
  8
0
 10
-143.67
 20
-109.137
 11
-143.455
 21
-109.018
  0
LINE
  8
0
 10
-143.455
 20
-109.018
 11
-143.227
 21
-108.923
  0
LINE
  8
0
 10
-143.227
 20
-108.923
 11
-142.99
 21
-108.855
  0
LINE
  8
0
 10
-142.99
 20
-108.855
 11
-142.746
 21
-108.814
  0
LINE
  8
0
 10
-142.746
 20
-108.814
 11
-142.5
 21
-108.8
  0
LINE
  8
0
 10
-142.5
 20
-108.8
 11
-142.254
 21
-108.814
  0
LINE
  8
0
 10
-142.254
 20
-108.814
 11
-142.01
 21
-108.855
  0
LINE
  8
0
 10
-142.01
 20
-108.855
 11
-141.773
 21
-108.923
  0
LINE
  8
0
 10
-141.773
 20
-108.923
 11
-141.545
 21
-109.018
  0
LINE
  8
0
 10
-141.545
 20
-109.018
 11
-141.33
 21
-109.137
  0
LINE
  8
0
 10
-141.33
 20
-109.137
 11
-141.128
 21
-109.28
  0
LINE
  8
0
 10
-141.128
 20
-109.28
 11
-140.944
 21
-109.444
  0
LINE
  8
0
 10
-140.944
 20
-109.444
 11
-140.78
 21
-109.628
  0
LINE
  8
0
 10
-140.78
 20
-109.628
 11
-140.637
 21
-109.83
  0
LINE
  8
0
 10
-140.637
 20
-109.83
 11
-140.518
 21
-110.045
  0
LINE
  8
0
 10
-140.518
 20
-110.045
 11
-140.423
 21
-110.273
  0
LINE
  8
0
 10
-140.423
 20
-110.273
 11
-140.355
 21
-110.51
  0
LINE
  8
0
 10
-140.355
 20
-110.51
 11
-140.314
 21
-110.754
  0
LINE
  8
0
 10
-140.314
 20
-110.754
 11
-140.3
 21
-111
  0
LINE
  8
0
 10
-140.3
 20
-111
 11
-140.314
 21
-111.246
  0
LINE
  8
0
 10
-140.314
 20
-111.246
 11
-140.355
 21
-111.49
  0
LINE
  8
0
 10
-140.355
 20
-111.49
 11
-140.423
 21
-111.727
  0
LINE
  8
0
 10
-140.423
 20
-111.727
 11
-140.518
 21
-111.955
  0
LINE
  8
0
 10
-140.518
 20
-111.955
 11
-140.637
 21
-112.17
  0
LINE
  8
0
 10
-140.637
 20
-112.17
 11
-140.78
 21
-112.372
  0
LINE
  8
0
 10
-140.78
 20
-112.372
 11
-140.944
 21
-112.556
  0
LINE
  8
0
 10
-140.944
 20
-112.556
 11
-141.128
 21
-112.72
  0
LINE
  8
0
 10
-141.128
 20
-112.72
 11
-141.33
 21
-112.863
  0
LINE
  8
0
 10
-141.33
 20
-112.863
 11
-141.545
 21
-112.982
  0
LINE
  8
0
 10
-141.545
 20
-112.982
 11
-141.773
 21
-113.077
  0
LINE
  8
0
 10
-141.773
 20
-113.077
 11
-142.01
 21
-113.145
  0
LINE
  8
0
 10
-142.01
 20
-113.145
 11
-142.254
 21
-113.186
  0
LINE
  8
0
 10
-142.254
 20
-113.186
 11
-142.5
 21
-113.2
  0
LINE
  8
0
 10
-142.5
 20
-113.2
 11
-142.746
 21
-113.186
  0
LINE
  8
0
 10
229.691
 20
-174.172
 11
229.451
 21
-174.109
  0
LINE
  8
0
 10
229.451
 20
-174.109
 11
229.223
 21
-174.012
  0
LINE
  8
0
 10
229.223
 20
-174.012
 11
229.011
 21
-173.883
  0
LINE
  8
0
 10
229.011
 20
-173.883
 11
228.82
 21
-173.724
  0
LINE
  8
0
 10
228.82
 20
-173.724
 11
228.654
 21
-173.539
  0
LINE
  8
0
 10
228.654
 20
-173.539
 11
228.518
 21
-173.332
  0
LINE
  8
0
 10
228.518
 20
-173.332
 11
228.412
 21
-173.107
  0
LINE
  8
0
 10
228.412
 20
-173.107
 11
228.341
 21
-172.87
  0
LINE
  8
0
 10
228.341
 20
-172.87
 11
228.305
 21
-172.624
  0
LINE
  8
0
 10
228.305
 20
-172.624
 11
228.305
 21
-172.376
  0
LINE
  8
0
 10
228.305
 20
-172.376
 11
228.341
 21
-172.13
  0
LINE
  8
0
 10
228.341
 20
-172.13
 11
228.412
 21
-171.893
  0
LINE
  8
0
 10
228.412
 20
-171.893
 11
228.518
 21
-171.668
  0
LINE
  8
0
 10
228.518
 20
-171.668
 11
228.654
 21
-171.461
  0
LINE
  8
0
 10
228.654
 20
-171.461
 11
228.82
 21
-171.276
  0
LINE
  8
0
 10
228.82
 20
-171.276
 11
229.011
 21
-171.117
  0
LINE
  8
0
 10
229.011
 20
-171.117
 11
229.223
 21
-170.988
  0
LINE
  8
0
 10
229.223
 20
-170.988
 11
229.451
 21
-170.891
  0
LINE
  8
0
 10
229.451
 20
-170.891
 11
229.691
 21
-170.828
  0
LINE
  8
0
 10
229.691
 20
-170.828
 11
229.938
 21
-170.801
  0
LINE
  8
0
 10
229.938
 20
-170.801
 11
230.186
 21
-170.81
  0
LINE
  8
0
 10
230.186
 20
-170.81
 11
230.43
 21
-170.855
  0
LINE
  8
0
 10
230.43
 20
-170.855
 11
230.665
 21
-170.935
  0
LINE
  8
0
 10
230.665
 20
-170.935
 11
230.886
 21
-171.049
  0
LINE
  8
0
 10
230.886
 20
-171.049
 11
231.087
 21
-171.193
  0
LINE
  8
0
 10
231.087
 20
-171.193
 11
231.266
 21
-171.366
  0
LINE
  8
0
 10
231.266
 20
-171.366
 11
231.418
 21
-171.562
  0
LINE
  8
0
 10
231.418
 20
-171.562
 11
231.539
 21
-171.778
  0
LINE
  8
0
 10
231.539
 20
-171.778
 11
231.628
 21
-172.01
  0
LINE
  8
0
 10
231.628
 20
-172.01
 11
231.682
 21
-172.252
  0
LINE
  8
0
 10
231.682
 20
-172.252
 11
231.7
 21
-172.5
  0
LINE
  8
0
 10
231.7
 20
-172.5
 11
231.682
 21
-172.748
  0
LINE
  8
0
 10
231.682
 20
-172.748
 11
231.628
 21
-172.99
  0
LINE
  8
0
 10
231.628
 20
-172.99
 11
231.539
 21
-173.222
  0
LINE
  8
0
 10
231.539
 20
-173.222
 11
231.418
 21
-173.438
  0
LINE
  8
0
 10
231.418
 20
-173.438
 11
231.266
 21
-173.634
  0
LINE
  8
0
 10
231.266
 20
-173.634
 11
231.087
 21
-173.807
  0
LINE
  8
0
 10
231.087
 20
-173.807
 11
230.886
 21
-173.951
  0
LINE
  8
0
 10
230.886
 20
-173.951
 11
230.665
 21
-174.065
  0
LINE
  8
0
 10
230.665
 20
-174.065
 11
230.43
 21
-174.145
  0
LINE
  8
0
 10
230.43
 20
-174.145
 11
230.186
 21
-174.19
  0
LINE
  8
0
 10
230.186
 20
-174.19
 11
229.938
 21
-174.199
  0
LINE
  8
0
 10
229.938
 20
-174.199
 11
229.691
 21
-174.172
  0
LINE
  8
0
 10
-230.186
 20
-174.19
 11
-230.43
 21
-174.145
  0
LINE
  8
0
 10
-230.43
 20
-174.145
 11
-230.665
 21
-174.065
  0
LINE
  8
0
 10
-230.665
 20
-174.065
 11
-230.886
 21
-173.951
  0
LINE
  8
0
 10
-230.886
 20
-173.951
 11
-231.087
 21
-173.807
  0
LINE
  8
0
 10
-231.087
 20
-173.807
 11
-231.266
 21
-173.634
  0
LINE
  8
0
 10
-231.266
 20
-173.634
 11
-231.418
 21
-173.438
  0
LINE
  8
0
 10
-231.418
 20
-173.438
 11
-231.539
 21
-173.222
  0
LINE
  8
0
 10
-231.539
 20
-173.222
 11
-231.628
 21
-172.99
  0
LINE
  8
0
 10
-231.628
 20
-172.99
 11
-231.682
 21
-172.748
  0
LINE
  8
0
 10
-231.682
 20
-172.748
 11
-231.7
 21
-172.5
  0
LINE
  8
0
 10
-231.7
 20
-172.5
 11
-231.682
 21
-172.252
  0
LINE
  8
0
 10
-231.682
 20
-172.252
 11
-231.628
 21
-172.01
  0
LINE
  8
0
 10
-231.628
 20
-172.01
 11
-231.539
 21
-171.778
  0
LINE
  8
0
 10
-231.539
 20
-171.778
 11
-231.418
 21
-171.562
  0
LINE
  8
0
 10
-231.418
 20
-171.562
 11
-231.266
 21
-171.366
  0
LINE
  8
0
 10
-231.266
 20
-171.366
 11
-231.087
 21
-171.193
  0
LINE
  8
0
 10
-231.087
 20
-171.193
 11
-230.886
 21
-171.049
  0
LINE
  8
0
 10
-230.886
 20
-171.049
 11
-230.665
 21
-170.935
  0
LINE
  8
0
 10
-230.665
 20
-170.935
 11
-230.43
 21
-170.855
  0
LINE
  8
0
 10
-230.43
 20
-170.855
 11
-230.186
 21
-170.81
  0
LINE
  8
0
 10
-230.186
 20
-170.81
 11
-229.938
 21
-170.801
  0
LINE
  8
0
 10
-229.938
 20
-170.801
 11
-229.691
 21
-170.828
  0
LINE
  8
0
 10
-229.691
 20
-170.828
 11
-229.451
 21
-170.891
  0
LINE
  8
0
 10
-229.451
 20
-170.891
 11
-229.223
 21
-170.988
  0
LINE
  8
0
 10
-229.223
 20
-170.988
 11
-229.011
 21
-171.117
  0
LINE
  8
0
 10
-229.011
 20
-171.117
 11
-228.82
 21
-171.276
  0
LINE
  8
0
 10
-228.82
 20
-171.276
 11
-228.654
 21
-171.461
  0
LINE
  8
0
 10
-228.654
 20
-171.461
 11
-228.518
 21
-171.668
  0
LINE
  8
0
 10
-228.518
 20
-171.668
 11
-228.412
 21
-171.893
  0
LINE
  8
0
 10
-228.412
 20
-171.893
 11
-228.341
 21
-172.13
  0
LINE
  8
0
 10
-228.341
 20
-172.13
 11
-228.305
 21
-172.376
  0
LINE
  8
0
 10
-228.305
 20
-172.376
 11
-228.305
 21
-172.624
  0
LINE
  8
0
 10
-228.305
 20
-172.624
 11
-228.341
 21
-172.87
  0
LINE
  8
0
 10
-228.341
 20
-172.87
 11
-228.412
 21
-173.107
  0
LINE
  8
0
 10
-228.412
 20
-173.107
 11
-228.518
 21
-173.332
  0
LINE
  8
0
 10
-228.518
 20
-173.332
 11
-228.654
 21
-173.539
  0
LINE
  8
0
 10
-228.654
 20
-173.539
 11
-228.82
 21
-173.724
  0
LINE
  8
0
 10
-228.82
 20
-173.724
 11
-229.011
 21
-173.883
  0
LINE
  8
0
 10
-229.011
 20
-173.883
 11
-229.223
 21
-174.012
  0
LINE
  8
0
 10
-229.223
 20
-174.012
 11
-229.451
 21
-174.109
  0
LINE
  8
0
 10
-229.451
 20
-174.109
 11
-229.691
 21
-174.172
  0
LINE
  8
0
 10
-229.691
 20
-174.172
 11
-229.938
 21
-174.199
  0
LINE
  8
0
 10
-229.938
 20
-174.199
 11
-230.186
 21
-174.19
  0
LINE
  8
0
 10
-185.624
 20
-181.995
 11
-185.868
 21
-181.954
  0
LINE
  8
0
 10
-185.868
 20
-181.954
 11
-186.103
 21
-181.874
  0
LINE
  8
0
 10
-186.103
 20
-181.874
 11
-186.32
 21
-181.756
  0
LINE
  8
0
 10
-186.32
 20
-181.756
 11
-186.516
 21
-181.604
  0
LINE
  8
0
 10
-186.516
 20
-181.604
 11
-186.684
 21
-181.421
  0
LINE
  8
0
 10
-186.684
 20
-181.421
 11
-186.819
 21
-181.214
  0
LINE
  8
0
 10
-186.819
 20
-181.214
 11
-186.919
 21
-180.987
  0
LINE
  8
0
 10
-186.919
 20
-180.987
 11
-186.98
 21
-180.747
  0
LINE
  8
0
 10
-186.98
 20
-180.747
 11
-187
 21
-180.5
  0
LINE
  8
0
 10
-187
 20
-180.5
 11
-186.98
 21
-180.253
  0
LINE
  8
0
 10
-186.98
 20
-180.253
 11
-186.919
 21
-180.013
  0
LINE
  8
0
 10
-186.919
 20
-180.013
 11
-186.819
 21
-179.786
  0
LINE
  8
0
 10
-186.819
 20
-179.786
 11
-186.684
 21
-179.579
  0
LINE
  8
0
 10
-186.684
 20
-179.579
 11
-186.516
 21
-179.396
  0
LINE
  8
0
 10
-186.516
 20
-179.396
 11
-186.32
 21
-179.244
  0
LINE
  8
0
 10
-186.32
 20
-179.244
 11
-186.103
 21
-179.126
  0
LINE
  8
0
 10
-186.103
 20
-179.126
 11
-185.868
 21
-179.046
  0
LINE
  8
0
 10
-185.868
 20
-179.046
 11
-185.624
 21
-179.005
  0
LINE
  8
0
 10
-185.624
 20
-179.005
 11
-185.376
 21
-179.005
  0
LINE
  8
0
 10
-185.376
 20
-179.005
 11
-185.132
 21
-179.046
  0
LINE
  8
0
 10
-185.132
 20
-179.046
 11
-184.897
 21
-179.126
  0
LINE
  8
0
 10
-184.897
 20
-179.126
 11
-184.68
 21
-179.244
  0
LINE
  8
0
 10
-184.68
 20
-179.244
 11
-184.484
 21
-179.396
  0
LINE
  8
0
 10
-184.484
 20
-179.396
 11
-184.316
 21
-179.579
  0
LINE
  8
0
 10
-184.316
 20
-179.579
 11
-184.181
 21
-179.786
  0
LINE
  8
0
 10
-184.181
 20
-179.786
 11
-184.081
 21
-180.013
  0
LINE
  8
0
 10
-184.081
 20
-180.013
 11
-184.02
 21
-180.253
  0
LINE
  8
0
 10
-184.02
 20
-180.253
 11
-184
 21
-180.5
  0
LINE
  8
0
 10
-184
 20
-180.5
 11
-184.02
 21
-180.747
  0
LINE
  8
0
 10
-184.02
 20
-180.747
 11
-184.081
 21
-180.987
  0
LINE
  8
0
 10
-184.081
 20
-180.987
 11
-184.181
 21
-181.214
  0
LINE
  8
0
 10
-184.181
 20
-181.214
 11
-184.316
 21
-181.421
  0
LINE
  8
0
 10
-184.316
 20
-181.421
 11
-184.484
 21
-181.604
  0
LINE
  8
0
 10
-184.484
 20
-181.604
 11
-184.68
 21
-181.756
  0
LINE
  8
0
 10
-184.68
 20
-181.756
 11
-184.897
 21
-181.874
  0
LINE
  8
0
 10
-184.897
 20
-181.874
 11
-185.132
 21
-181.954
  0
LINE
  8
0
 10
-185.132
 20
-181.954
 11
-185.376
 21
-181.995
  0
LINE
  8
0
 10
-185.376
 20
-181.995
 11
-185.624
 21
-181.995
  0
LINE
  8
0
 10
185.376
 20
-181.995
 11
185.132
 21
-181.954
  0
LINE
  8
0
 10
185.132
 20
-181.954
 11
184.897
 21
-181.874
  0
LINE
  8
0
 10
184.897
 20
-181.874
 11
184.68
 21
-181.756
  0
LINE
  8
0
 10
184.68
 20
-181.756
 11
184.484
 21
-181.604
  0
LINE
  8
0
 10
184.484
 20
-181.604
 11
184.316
 21
-181.421
  0
LINE
  8
0
 10
184.316
 20
-181.421
 11
184.181
 21
-181.214
  0
LINE
  8
0
 10
184.181
 20
-181.214
 11
184.081
 21
-180.987
  0
LINE
  8
0
 10
184.081
 20
-180.987
 11
184.02
 21
-180.747
  0
LINE
  8
0
 10
184.02
 20
-180.747
 11
184
 21
-180.5
  0
LINE
  8
0
 10
184
 20
-180.5
 11
184.02
 21
-180.253
  0
LINE
  8
0
 10
184.02
 20
-180.253
 11
184.081
 21
-180.013
  0
LINE
  8
0
 10
184.081
 20
-180.013
 11
184.181
 21
-179.786
  0
LINE
  8
0
 10
184.181
 20
-179.786
 11
184.316
 21
-179.579
  0
LINE
  8
0
 10
184.316
 20
-179.579
 11
184.484
 21
-179.396
  0
LINE
  8
0
 10
184.484
 20
-179.396
 11
184.68
 21
-179.244
  0
LINE
  8
0
 10
184.68
 20
-179.244
 11
184.897
 21
-179.126
  0
LINE
  8
0
 10
184.897
 20
-179.126
 11
185.132
 21
-179.046
  0
LINE
  8
0
 10
185.132
 20
-179.046
 11
185.376
 21
-179.005
  0
LINE
  8
0
 10
185.376
 20
-179.005
 11
185.624
 21
-179.005
  0
LINE
  8
0
 10
185.624
 20
-179.005
 11
185.868
 21
-179.046
  0
LINE
  8
0
 10
185.868
 20
-179.046
 11
186.103
 21
-179.126
  0
LINE
  8
0
 10
186.103
 20
-179.126
 11
186.32
 21
-179.244
  0
LINE
  8
0
 10
186.32
 20
-179.244
 11
186.516
 21
-179.396
  0
LINE
  8
0
 10
186.516
 20
-179.396
 11
186.684
 21
-179.579
  0
LINE
  8
0
 10
186.684
 20
-179.579
 11
186.819
 21
-179.786
  0
LINE
  8
0
 10
186.819
 20
-179.786
 11
186.919
 21
-180.013
  0
LINE
  8
0
 10
186.919
 20
-180.013
 11
186.98
 21
-180.253
  0
LINE
  8
0
 10
186.98
 20
-180.253
 11
187
 21
-180.5
  0
LINE
  8
0
 10
187
 20
-180.5
 11
186.98
 21
-180.747
  0
LINE
  8
0
 10
186.98
 20
-180.747
 11
186.919
 21
-180.987
  0
LINE
  8
0
 10
186.919
 20
-180.987
 11
186.819
 21
-181.214
  0
LINE
  8
0
 10
186.819
 20
-181.214
 11
186.684
 21
-181.421
  0
LINE
  8
0
 10
186.684
 20
-181.421
 11
186.516
 21
-181.604
  0
LINE
  8
0
 10
186.516
 20
-181.604
 11
186.32
 21
-181.756
  0
LINE
  8
0
 10
186.32
 20
-181.756
 11
186.103
 21
-181.874
  0
LINE
  8
0
 10
186.103
 20
-181.874
 11
185.868
 21
-181.954
  0
LINE
  8
0
 10
185.868
 20
-181.954
 11
185.624
 21
-181.995
  0
LINE
  8
0
 10
185.624
 20
-181.995
 11
185.376
 21
-181.995
  0
LINE
  8
0
 10
-230.392
 20
-218.729
 11
-230.78
 21
-218.668
  0
LINE
  8
0
 10
-230.78
 20
-218.668
 11
-231.159
 21
-218.566
  0
LINE
  8
0
 10
-231.159
 20
-218.566
 11
-231.525
 21
-218.426
  0
LINE
  8
0
 10
-231.525
 20
-218.426
 11
-231.875
 21
-218.248
  0
LINE
  8
0
 10
-231.875
 20
-218.248
 11
-232.204
 21
-218.034
  0
LINE
  8
0
 10
-232.204
 20
-218.034
 11
-232.509
 21
-217.787
  0
LINE
  8
0
 10
-232.509
 20
-217.787
 11
-232.787
 21
-217.509
  0
LINE
  8
0
 10
-232.787
 20
-217.509
 11
-233.034
 21
-217.204
  0
LINE
  8
0
 10
-233.034
 20
-217.204
 11
-233.248
 21
-216.875
  0
LINE
  8
0
 10
-233.248
 20
-216.875
 11
-233.426
 21
-216.525
  0
LINE
  8
0
 10
-233.426
 20
-216.525
 11
-233.566
 21
-216.159
  0
LINE
  8
0
 10
-233.566
 20
-216.159
 11
-233.668
 21
-215.78
  0
LINE
  8
0
 10
-233.668
 20
-215.78
 11
-233.729
 21
-215.392
  0
LINE
  8
0
 10
-233.729
 20
-215.392
 11
-233.75
 21
-215
  0
LINE
  8
0
 10
-233.75
 20
-215
 11
-233.729
 21
-214.608
  0
LINE
  8
0
 10
-233.729
 20
-214.608
 11
-233.668
 21
-214.22
  0
LINE
  8
0
 10
-233.668
 20
-214.22
 11
-233.566
 21
-213.841
  0
LINE
  8
0
 10
-233.566
 20
-213.841
 11
-233.426
 21
-213.475
  0
LINE
  8
0
 10
-233.426
 20
-213.475
 11
-233.248
 21
-213.125
  0
LINE
  8
0
 10
-233.248
 20
-213.125
 11
-233.034
 21
-212.796
  0
LINE
  8
0
 10
-233.034
 20
-212.796
 11
-232.787
 21
-212.491
  0
LINE
  8
0
 10
-232.787
 20
-212.491
 11
-232.509
 21
-212.213
  0
LINE
  8
0
 10
-232.509
 20
-212.213
 11
-232.204
 21
-211.966
  0
LINE
  8
0
 10
-232.204
 20
-211.966
 11
-231.875
 21
-211.752
  0
LINE
  8
0
 10
-231.875
 20
-211.752
 11
-231.525
 21
-211.574
  0
LINE
  8
0
 10
-231.525
 20
-211.574
 11
-231.159
 21
-211.434
  0
LINE
  8
0
 10
-231.159
 20
-211.434
 11
-230.78
 21
-211.332
  0
LINE
  8
0
 10
-230.78
 20
-211.332
 11
-230.392
 21
-211.271
  0
LINE
  8
0
 10
-230.392
 20
-211.271
 11
-230
 21
-211.25
  0
LINE
  8
0
 10
-230
 20
-211.25
 11
-229.608
 21
-211.271
  0
LINE
  8
0
 10
-229.608
 20
-211.271
 11
-229.22
 21
-211.332
  0
LINE
  8
0
 10
-229.22
 20
-211.332
 11
-228.841
 21
-211.434
  0
LINE
  8
0
 10
-228.841
 20
-211.434
 11
-228.475
 21
-211.574
  0
LINE
  8
0
 10
-228.475
 20
-211.574
 11
-228.125
 21
-211.752
  0
LINE
  8
0
 10
-228.125
 20
-211.752
 11
-227.796
 21
-211.966
  0
LINE
  8
0
 10
-227.796
 20
-211.966
 11
-227.491
 21
-212.213
  0
LINE
  8
0
 10
-227.491
 20
-212.213
 11
-227.213
 21
-212.491
  0
LINE
  8
0
 10
-227.213
 20
-212.491
 11
-226.966
 21
-212.796
  0
LINE
  8
0
 10
-226.966
 20
-212.796
 11
-226.752
 21
-213.125
  0
LINE
  8
0
 10
-226.752
 20
-213.125
 11
-226.574
 21
-213.475
  0
LINE
  8
0
 10
-226.574
 20
-213.475
 11
-226.434
 21
-213.841
  0
LINE
  8
0
 10
-226.434
 20
-213.841
 11
-226.332
 21
-214.22
  0
LINE
  8
0
 10
-226.332
 20
-214.22
 11
-226.271
 21
-214.608
  0
LINE
  8
0
 10
-226.271
 20
-214.608
 11
-226.25
 21
-215
  0
LINE
  8
0
 10
-226.25
 20
-215
 11
-226.271
 21
-215.392
  0
LINE
  8
0
 10
-226.271
 20
-215.392
 11
-226.332
 21
-215.78
  0
LINE
  8
0
 10
-226.332
 20
-215.78
 11
-226.434
 21
-216.159
  0
LINE
  8
0
 10
-226.434
 20
-216.159
 11
-226.574
 21
-216.525
  0
LINE
  8
0
 10
-226.574
 20
-216.525
 11
-226.752
 21
-216.875
  0
LINE
  8
0
 10
-226.752
 20
-216.875
 11
-226.966
 21
-217.204
  0
LINE
  8
0
 10
-226.966
 20
-217.204
 11
-227.213
 21
-217.509
  0
LINE
  8
0
 10
-227.213
 20
-217.509
 11
-227.491
 21
-217.787
  0
LINE
  8
0
 10
-227.491
 20
-217.787
 11
-227.796
 21
-218.034
  0
LINE
  8
0
 10
-227.796
 20
-218.034
 11
-228.125
 21
-218.248
  0
LINE
  8
0
 10
-228.125
 20
-218.248
 11
-228.475
 21
-218.426
  0
LINE
  8
0
 10
-228.475
 20
-218.426
 11
-228.841
 21
-218.566
  0
LINE
  8
0
 10
-228.841
 20
-218.566
 11
-229.22
 21
-218.668
  0
LINE
  8
0
 10
-229.22
 20
-218.668
 11
-229.608
 21
-218.729
  0
LINE
  8
0
 10
-229.608
 20
-218.729
 11
-230
 21
-218.75
  0
LINE
  8
0
 10
-230
 20
-218.75
 11
-230.392
 21
-218.729
  0
LINE
  8
0
 10
229.608
 20
-218.729
 11
229.22
 21
-218.668
  0
LINE
  8
0
 10
229.22
 20
-218.668
 11
228.841
 21
-218.566
  0
LINE
  8
0
 10
228.841
 20
-218.566
 11
228.475
 21
-218.426
  0
LINE
  8
0
 10
228.475
 20
-218.426
 11
228.125
 21
-218.248
  0
LINE
  8
0
 10
228.125
 20
-218.248
 11
227.796
 21
-218.034
  0
LINE
  8
0
 10
227.796
 20
-218.034
 11
227.491
 21
-217.787
  0
LINE
  8
0
 10
227.491
 20
-217.787
 11
227.213
 21
-217.509
  0
LINE
  8
0
 10
227.213
 20
-217.509
 11
226.966
 21
-217.204
  0
LINE
  8
0
 10
226.966
 20
-217.204
 11
226.752
 21
-216.875
  0
LINE
  8
0
 10
226.752
 20
-216.875
 11
226.574
 21
-216.525
  0
LINE
  8
0
 10
226.574
 20
-216.525
 11
226.434
 21
-216.159
  0
LINE
  8
0
 10
226.434
 20
-216.159
 11
226.332
 21
-215.78
  0
LINE
  8
0
 10
226.332
 20
-215.78
 11
226.271
 21
-215.392
  0
LINE
  8
0
 10
226.271
 20
-215.392
 11
226.25
 21
-215
  0
LINE
  8
0
 10
226.25
 20
-215
 11
226.271
 21
-214.608
  0
LINE
  8
0
 10
226.271
 20
-214.608
 11
226.332
 21
-214.22
  0
LINE
  8
0
 10
226.332
 20
-214.22
 11
226.434
 21
-213.841
  0
LINE
  8
0
 10
226.434
 20
-213.841
 11
226.574
 21
-213.475
  0
LINE
  8
0
 10
226.574
 20
-213.475
 11
226.752
 21
-213.125
  0
LINE
  8
0
 10
226.752
 20
-213.125
 11
226.966
 21
-212.796
  0
LINE
  8
0
 10
226.966
 20
-212.796
 11
227.213
 21
-212.491
  0
LINE
  8
0
 10
227.213
 20
-212.491
 11
227.491
 21
-212.213
  0
LINE
  8
0
 10
227.491
 20
-212.213
 11
227.796
 21
-211.966
  0
LINE
  8
0
 10
227.796
 20
-211.966
 11
228.125
 21
-211.752
  0
LINE
  8
0
 10
228.125
 20
-211.752
 11
228.475
 21
-211.574
  0
LINE
  8
0
 10
228.475
 20
-211.574
 11
228.841
 21
-211.434
  0
LINE
  8
0
 10
228.841
 20
-211.434
 11
229.22
 21
-211.332
  0
LINE
  8
0
 10
229.22
 20
-211.332
 11
229.608
 21
-211.271
  0
LINE
  8
0
 10
229.608
 20
-211.271
 11
230
 21
-211.25
  0
LINE
  8
0
 10
230
 20
-211.25
 11
230.392
 21
-211.271
  0
LINE
  8
0
 10
230.392
 20
-211.271
 11
230.78
 21
-211.332
  0
LINE
  8
0
 10
230.78
 20
-211.332
 11
231.159
 21
-211.434
  0
LINE
  8
0
 10
231.159
 20
-211.434
 11
231.525
 21
-211.574
  0
LINE
  8
0
 10
231.525
 20
-211.574
 11
231.875
 21
-211.752
  0
LINE
  8
0
 10
231.875
 20
-211.752
 11
232.204
 21
-211.966
  0
LINE
  8
0
 10
232.204
 20
-211.966
 11
232.509
 21
-212.213
  0
LINE
  8
0
 10
232.509
 20
-212.213
 11
232.787
 21
-212.491
  0
LINE
  8
0
 10
232.787
 20
-212.491
 11
233.034
 21
-212.796
  0
LINE
  8
0
 10
233.034
 20
-212.796
 11
233.248
 21
-213.125
  0
LINE
  8
0
 10
233.248
 20
-213.125
 11
233.426
 21
-213.475
  0
LINE
  8
0
 10
233.426
 20
-213.475
 11
233.566
 21
-213.841
  0
LINE
  8
0
 10
233.566
 20
-213.841
 11
233.668
 21
-214.22
  0
LINE
  8
0
 10
233.668
 20
-214.22
 11
233.729
 21
-214.608
  0
LINE
  8
0
 10
233.729
 20
-214.608
 11
233.75
 21
-215
  0
LINE
  8
0
 10
233.75
 20
-215
 11
233.729
 21
-215.392
  0
LINE
  8
0
 10
233.729
 20
-215.392
 11
233.668
 21
-215.78
  0
LINE
  8
0
 10
233.668
 20
-215.78
 11
233.566
 21
-216.159
  0
LINE
  8
0
 10
233.566
 20
-216.159
 11
233.426
 21
-216.525
  0
LINE
  8
0
 10
233.426
 20
-216.525
 11
233.248
 21
-216.875
  0
LINE
  8
0
 10
233.248
 20
-216.875
 11
233.034
 21
-217.204
  0
LINE
  8
0
 10
233.034
 20
-217.204
 11
232.787
 21
-217.509
  0
LINE
  8
0
 10
232.787
 20
-217.509
 11
232.509
 21
-217.787
  0
LINE
  8
0
 10
232.509
 20
-217.787
 11
232.204
 21
-218.034
  0
LINE
  8
0
 10
232.204
 20
-218.034
 11
231.875
 21
-218.248
  0
LINE
  8
0
 10
231.875
 20
-218.248
 11
231.525
 21
-218.426
  0
LINE
  8
0
 10
231.525
 20
-218.426
 11
231.159
 21
-218.566
  0
LINE
  8
0
 10
231.159
 20
-218.566
 11
230.78
 21
-218.668
  0
LINE
  8
0
 10
230.78
 20
-218.668
 11
230.392
 21
-218.729
  0
LINE
  8
0
 10
230.392
 20
-218.729
 11
230
 21
-218.75
  0
LINE
  8
0
 10
230
 20
-218.75
 11
229.608
 21
-218.729
  0
LINE
  8
0
 10
-187.809
 20
-216.672
 11
-188.049
 21
-216.609
  0
LINE
  8
0
 10
-188.049
 20
-216.609
 11
-188.277
 21
-216.512
  0
LINE
  8
0
 10
-188.277
 20
-216.512
 11
-188.489
 21
-216.383
  0
LINE
  8
0
 10
-188.489
 20
-216.383
 11
-188.68
 21
-216.224
  0
LINE
  8
0
 10
-188.68
 20
-216.224
 11
-188.846
 21
-216.039
  0
LINE
  8
0
 10
-188.846
 20
-216.039
 11
-188.982
 21
-215.832
  0
LINE
  8
0
 10
-188.982
 20
-215.832
 11
-189.088
 21
-215.607
  0
LINE
  8
0
 10
-189.088
 20
-215.607
 11
-189.159
 21
-215.37
  0
LINE
  8
0
 10
-189.159
 20
-215.37
 11
-189.195
 21
-215.124
  0
LINE
  8
0
 10
-189.195
 20
-215.124
 11
-189.195
 21
-214.876
  0
LINE
  8
0
 10
-189.195
 20
-214.876
 11
-189.159
 21
-214.63
  0
LINE
  8
0
 10
-189.159
 20
-214.63
 11
-189.088
 21
-214.393
  0
LINE
  8
0
 10
-189.088
 20
-214.393
 11
-188.982
 21
-214.168
  0
LINE
  8
0
 10
-188.982
 20
-214.168
 11
-188.846
 21
-213.961
  0
LINE
  8
0
 10
-188.846
 20
-213.961
 11
-188.68
 21
-213.776
  0
LINE
  8
0
 10
-188.68
 20
-213.776
 11
-188.489
 21
-213.617
  0
LINE
  8
0
 10
-188.489
 20
-213.617
 11
-188.277
 21
-213.488
  0
LINE
  8
0
 10
-188.277
 20
-213.488
 11
-188.049
 21
-213.391
  0
LINE
  8
0
 10
-188.049
 20
-213.391
 11
-187.809
 21
-213.328
  0
LINE
  8
0
 10
-187.809
 20
-213.328
 11
-187.562
 21
-213.301
  0
LINE
  8
0
 10
-187.562
 20
-213.301
 11
-187.314
 21
-213.31
  0
LINE
  8
0
 10
-187.314
 20
-213.31
 11
-187.07
 21
-213.355
  0
LINE
  8
0
 10
-187.07
 20
-213.355
 11
-186.835
 21
-213.435
  0
LINE
  8
0
 10
-186.835
 20
-213.435
 11
-186.614
 21
-213.549
  0
LINE
  8
0
 10
-186.614
 20
-213.549
 11
-186.413
 21
-213.693
  0
LINE
  8
0
 10
-186.413
 20
-213.693
 11
-186.234
 21
-213.866
  0
LINE
  8
0
 10
-186.234
 20
-213.866
 11
-186.082
 21
-214.062
  0
LINE
  8
0
 10
-186.082
 20
-214.062
 11
-185.961
 21
-214.278
  0
LINE
  8
0
 10
-185.961
 20
-214.278
 11
-185.872
 21
-214.51
  0
LINE
  8
0
 10
-185.872
 20
-214.51
 11
-185.818
 21
-214.752
  0
LINE
  8
0
 10
-185.818
 20
-214.752
 11
-185.8
 21
-215
  0
LINE
  8
0
 10
-185.8
 20
-215
 11
-185.818
 21
-215.248
  0
LINE
  8
0
 10
-185.818
 20
-215.248
 11
-185.872
 21
-215.49
  0
LINE
  8
0
 10
-185.872
 20
-215.49
 11
-185.961
 21
-215.722
  0
LINE
  8
0
 10
-185.961
 20
-215.722
 11
-186.082
 21
-215.938
  0
LINE
  8
0
 10
-186.082
 20
-215.938
 11
-186.234
 21
-216.134
  0
LINE
  8
0
 10
-186.234
 20
-216.134
 11
-186.413
 21
-216.307
  0
LINE
  8
0
 10
-186.413
 20
-216.307
 11
-186.614
 21
-216.451
  0
LINE
  8
0
 10
-186.614
 20
-216.451
 11
-186.835
 21
-216.565
  0
LINE
  8
0
 10
-186.835
 20
-216.565
 11
-187.07
 21
-216.645
  0
LINE
  8
0
 10
-187.07
 20
-216.645
 11
-187.314
 21
-216.69
  0
LINE
  8
0
 10
-187.314
 20
-216.69
 11
-187.562
 21
-216.699
  0
LINE
  8
0
 10
-187.562
 20
-216.699
 11
-187.809
 21
-216.672
  0
LINE
  8
0
 10
187.191
 20
-216.672
 11
186.951
 21
-216.609
  0
LINE
  8
0
 10
186.951
 20
-216.609
 11
186.723
 21
-216.512
  0
LINE
  8
0
 10
186.723
 20
-216.512
 11
186.511
 21
-216.383
  0
LINE
  8
0
 10
186.511
 20
-216.383
 11
186.32
 21
-216.224
  0
LINE
  8
0
 10
186.32
 20
-216.224
 11
186.154
 21
-216.039
  0
LINE
  8
0
 10
186.154
 20
-216.039
 11
186.018
 21
-215.832
  0
LINE
  8
0
 10
186.018
 20
-215.832
 11
185.912
 21
-215.607
  0
LINE
  8
0
 10
185.912
 20
-215.607
 11
185.841
 21
-215.37
  0
LINE
  8
0
 10
185.841
 20
-215.37
 11
185.805
 21
-215.124
  0
LINE
  8
0
 10
185.805
 20
-215.124
 11
185.805
 21
-214.876
  0
LINE
  8
0
 10
185.805
 20
-214.876
 11
185.841
 21
-214.63
  0
LINE
  8
0
 10
185.841
 20
-214.63
 11
185.912
 21
-214.393
  0
LINE
  8
0
 10
185.912
 20
-214.393
 11
186.018
 21
-214.168
  0
LINE
  8
0
 10
186.018
 20
-214.168
 11
186.154
 21
-213.961
  0
LINE
  8
0
 10
186.154
 20
-213.961
 11
186.32
 21
-213.776
  0
LINE
  8
0
 10
186.32
 20
-213.776
 11
186.511
 21
-213.617
  0
LINE
  8
0
 10
186.511
 20
-213.617
 11
186.723
 21
-213.488
  0
LINE
  8
0
 10
186.723
 20
-213.488
 11
186.951
 21
-213.391
  0
LINE
  8
0
 10
186.951
 20
-213.391
 11
187.191
 21
-213.328
  0
LINE
  8
0
 10
187.191
 20
-213.328
 11
187.438
 21
-213.301
  0
LINE
  8
0
 10
187.438
 20
-213.301
 11
187.686
 21
-213.31
  0
LINE
  8
0
 10
187.686
 20
-213.31
 11
187.93
 21
-213.355
  0
LINE
  8
0
 10
187.93
 20
-213.355
 11
188.165
 21
-213.435
  0
LINE
  8
0
 10
188.165
 20
-213.435
 11
188.386
 21
-213.549
  0
LINE
  8
0
 10
188.386
 20
-213.549
 11
188.587
 21
-213.693
  0
LINE
  8
0
 10
188.587
 20
-213.693
 11
188.766
 21
-213.866
  0
LINE
  8
0
 10
188.766
 20
-213.866
 11
188.918
 21
-214.062
  0
LINE
  8
0
 10
188.918
 20
-214.062
 11
189.039
 21
-214.278
  0
LINE
  8
0
 10
189.039
 20
-214.278
 11
189.128
 21
-214.51
  0
LINE
  8
0
 10
189.128
 20
-214.51
 11
189.182
 21
-214.752
  0
LINE
  8
0
 10
189.182
 20
-214.752
 11
189.2
 21
-215
  0
LINE
  8
0
 10
189.2
 20
-215
 11
189.182
 21
-215.248
  0
LINE
  8
0
 10
189.182
 20
-215.248
 11
189.128
 21
-215.49
  0
LINE
  8
0
 10
189.128
 20
-215.49
 11
189.039
 21
-215.722
  0
LINE
  8
0
 10
189.039
 20
-215.722
 11
188.918
 21
-215.938
  0
LINE
  8
0
 10
188.918
 20
-215.938
 11
188.766
 21
-216.134
  0
LINE
  8
0
 10
188.766
 20
-216.134
 11
188.587
 21
-216.307
  0
LINE
  8
0
 10
188.587
 20
-216.307
 11
188.386
 21
-216.451
  0
LINE
  8
0
 10
188.386
 20
-216.451
 11
188.165
 21
-216.565
  0
LINE
  8
0
 10
188.165
 20
-216.565
 11
187.93
 21
-216.645
  0
LINE
  8
0
 10
187.93
 20
-216.645
 11
187.686
 21
-216.69
  0
LINE
  8
0
 10
187.686
 20
-216.69
 11
187.438
 21
-216.699
  0
LINE
  8
0
 10
187.438
 20
-216.699
 11
187.191
 21
-216.672
  0
LINE
  8
0
 10
93.4412
 20
-216.672
 11
93.2011
 21
-216.609
  0
LINE
  8
0
 10
93.2011
 20
-216.609
 11
92.9727
 21
-216.512
  0
LINE
  8
0
 10
92.9727
 20
-216.512
 11
92.7608
 21
-216.383
  0
LINE
  8
0
 10
92.7608
 20
-216.383
 11
92.5701
 21
-216.224
  0
LINE
  8
0
 10
92.5701
 20
-216.224
 11
92.4044
 21
-216.039
  0
LINE
  8
0
 10
92.4044
 20
-216.039
 11
92.2675
 21
-215.832
  0
LINE
  8
0
 10
92.2675
 20
-215.832
 11
92.1622
 21
-215.607
  0
LINE
  8
0
 10
92.1622
 20
-215.607
 11
92.0907
 21
-215.37
  0
LINE
  8
0
 10
92.0907
 20
-215.37
 11
92.0545
 21
-215.124
  0
LINE
  8
0
 10
92.0545
 20
-215.124
 11
92.0545
 21
-214.876
  0
LINE
  8
0
 10
92.0545
 20
-214.876
 11
92.0907
 21
-214.63
  0
LINE
  8
0
 10
92.0907
 20
-214.63
 11
92.1622
 21
-214.393
  0
LINE
  8
0
 10
92.1622
 20
-214.393
 11
92.2675
 21
-214.168
  0
LINE
  8
0
 10
92.2675
 20
-214.168
 11
92.4044
 21
-213.961
  0
LINE
  8
0
 10
92.4044
 20
-213.961
 11
92.5701
 21
-213.776
  0
LINE
  8
0
 10
92.5701
 20
-213.776
 11
92.7608
 21
-213.617
  0
LINE
  8
0
 10
92.7608
 20
-213.617
 11
92.9727
 21
-213.488
  0
LINE
  8
0
 10
92.9727
 20
-213.488
 11
93.2011
 21
-213.391
  0
LINE
  8
0
 10
93.2011
 20
-213.391
 11
93.4412
 21
-213.328
  0
LINE
  8
0
 10
93.4412
 20
-213.328
 11
93.6879
 21
-213.301
  0
LINE
  8
0
 10
93.6879
 20
-213.301
 11
93.9359
 21
-213.31
  0
LINE
  8
0
 10
93.9359
 20
-213.31
 11
94.18
 21
-213.355
  0
LINE
  8
0
 10
94.18
 20
-213.355
 11
94.4149
 21
-213.435
  0
LINE
  8
0
 10
94.4149
 20
-213.435
 11
94.6356
 21
-213.549
  0
LINE
  8
0
 10
94.6356
 20
-213.549
 11
94.8374
 21
-213.693
  0
LINE
  8
0
 10
94.8374
 20
-213.693
 11
95.0161
 21
-213.866
  0
LINE
  8
0
 10
95.0161
 20
-213.866
 11
95.1678
 21
-214.062
  0
LINE
  8
0
 10
95.1678
 20
-214.062
 11
95.2893
 21
-214.278
  0
LINE
  8
0
 10
95.2893
 20
-214.278
 11
95.3779
 21
-214.51
  0
LINE
  8
0
 10
95.3779
 20
-214.51
 11
95.4319
 21
-214.752
  0
LINE
  8
0
 10
95.4319
 20
-214.752
 11
95.45
 21
-215
  0
LINE
  8
0
 10
95.45
 20
-215
 11
95.4319
 21
-215.248
  0
LINE
  8
0
 10
95.4319
 20
-215.248
 11
95.3779
 21
-215.49
  0
LINE
  8
0
 10
95.3779
 20
-215.49
 11
95.2893
 21
-215.722
  0
LINE
  8
0
 10
95.2893
 20
-215.722
 11
95.1678
 21
-215.938
  0
LINE
  8
0
 10
95.1678
 20
-215.938
 11
95.0161
 21
-216.134
  0
LINE
  8
0
 10
95.0161
 20
-216.134
 11
94.8374
 21
-216.307
  0
LINE
  8
0
 10
94.8374
 20
-216.307
 11
94.6356
 21
-216.451
  0
LINE
  8
0
 10
94.6356
 20
-216.451
 11
94.4149
 21
-216.565
  0
LINE
  8
0
 10
94.4149
 20
-216.565
 11
94.18
 21
-216.645
  0
LINE
  8
0
 10
94.18
 20
-216.645
 11
93.9359
 21
-216.69
  0
LINE
  8
0
 10
93.9359
 20
-216.69
 11
93.6879
 21
-216.699
  0
LINE
  8
0
 10
93.6879
 20
-216.699
 11
93.4412
 21
-216.672
  0
LINE
  8
0
 10
-94.0588
 20
-216.672
 11
-94.2989
 21
-216.609
  0
LINE
  8
0
 10
-94.2989
 20
-216.609
 11
-94.5273
 21
-216.512
  0
LINE
  8
0
 10
-94.5273
 20
-216.512
 11
-94.7392
 21
-216.383
  0
LINE
  8
0
 10
-94.7392
 20
-216.383
 11
-94.9299
 21
-216.224
  0
LINE
  8
0
 10
-94.9299
 20
-216.224
 11
-95.0955
 21
-216.039
  0
LINE
  8
0
 10
-95.0955
 20
-216.039
 11
-95.2325
 21
-215.832
  0
LINE
  8
0
 10
-95.2325
 20
-215.832
 11
-95.3378
 21
-215.607
  0
LINE
  8
0
 10
-95.3378
 20
-215.607
 11
-95.4093
 21
-215.37
  0
LINE
  8
0
 10
-95.4093
 20
-215.37
 11
-95.4455
 21
-215.124
  0
LINE
  8
0
 10
-95.4455
 20
-215.124
 11
-95.4455
 21
-214.876
  0
LINE
  8
0
 10
-95.4455
 20
-214.876
 11
-95.4093
 21
-214.63
  0
LINE
  8
0
 10
-95.4093
 20
-214.63
 11
-95.3378
 21
-214.393
  0
LINE
  8
0
 10
-95.3378
 20
-214.393
 11
-95.2325
 21
-214.168
  0
LINE
  8
0
 10
-95.2325
 20
-214.168
 11
-95.0955
 21
-213.961
  0
LINE
  8
0
 10
-95.0955
 20
-213.961
 11
-94.9299
 21
-213.776
  0
LINE
  8
0
 10
-94.9299
 20
-213.776
 11
-94.7392
 21
-213.617
  0
LINE
  8
0
 10
-94.7392
 20
-213.617
 11
-94.5273
 21
-213.488
  0
LINE
  8
0
 10
-94.5273
 20
-213.488
 11
-94.2989
 21
-213.391
  0
LINE
  8
0
 10
-94.2989
 20
-213.391
 11
-94.0588
 21
-213.328
  0
LINE
  8
0
 10
-94.0588
 20
-213.328
 11
-93.8121
 21
-213.301
  0
LINE
  8
0
 10
-93.8121
 20
-213.301
 11
-93.5641
 21
-213.31
  0
LINE
  8
0
 10
-93.5641
 20
-213.31
 11
-93.32
 21
-213.355
  0
LINE
  8
0
 10
-93.32
 20
-213.355
 11
-93.0851
 21
-213.435
  0
LINE
  8
0
 10
-93.0851
 20
-213.435
 11
-92.8644
 21
-213.549
  0
LINE
  8
0
 10
-92.8644
 20
-213.549
 11
-92.6626
 21
-213.693
  0
LINE
  8
0
 10
-92.6626
 20
-213.693
 11
-92.4839
 21
-213.866
  0
LINE
  8
0
 10
-92.4839
 20
-213.866
 11
-92.3322
 21
-214.062
  0
LINE
  8
0
 10
-92.3322
 20
-214.062
 11
-92.2107
 21
-214.278
  0
LINE
  8
0
 10
-92.2107
 20
-214.278
 11
-92.1221
 21
-214.51
  0
LINE
  8
0
 10
-92.1221
 20
-214.51
 11
-92.0681
 21
-214.752
  0
LINE
  8
0
 10
-92.0681
 20
-214.752
 11
-92.05
 21
-215
  0
LINE
  8
0
 10
-92.05
 20
-215
 11
-92.0681
 21
-215.248
  0
LINE
  8
0
 10
-92.0681
 20
-215.248
 11
-92.1221
 21
-215.49
  0
LINE
  8
0
 10
-92.1221
 20
-215.49
 11
-92.2107
 21
-215.722
  0
LINE
  8
0
 10
-92.2107
 20
-215.722
 11
-92.3322
 21
-215.938
  0
LINE
  8
0
 10
-92.3322
 20
-215.938
 11
-92.4839
 21
-216.134
  0
LINE
  8
0
 10
-92.4839
 20
-216.134
 11
-92.6626
 21
-216.307
  0
LINE
  8
0
 10
-92.6626
 20
-216.307
 11
-92.8644
 21
-216.451
  0
LINE
  8
0
 10
-92.8644
 20
-216.451
 11
-93.0851
 21
-216.565
  0
LINE
  8
0
 10
-93.0851
 20
-216.565
 11
-93.32
 21
-216.645
  0
LINE
  8
0
 10
-93.32
 20
-216.645
 11
-93.5641
 21
-216.69
  0
LINE
  8
0
 10
-93.5641
 20
-216.69
 11
-93.8121
 21
-216.699
  0
LINE
  8
0
 10
-93.8121
 20
-216.699
 11
-94.0588
 21
-216.672
  0
LINE
  8
0
 10
-0.308777
 20
-216.672
 11
-0.548889
 21
-216.609
  0
LINE
  8
0
 10
-0.548889
 20
-216.609
 11
-0.777298
 21
-216.512
  0
LINE
  8
0
 10
-0.777298
 20
-216.512
 11
-0.989151
 21
-216.383
  0
LINE
  8
0
 10
-0.989151
 20
-216.383
 11
-1.17992
 21
-216.224
  0
LINE
  8
0
 10
-1.17992
 20
-216.224
 11
-1.34554
 21
-216.039
  0
LINE
  8
0
 10
-1.34554
 20
-216.039
 11
-1.48248
 21
-215.832
  0
LINE
  8
0
 10
-1.48248
 20
-215.832
 11
-1.58781
 21
-215.607
  0
LINE
  8
0
 10
-1.58781
 20
-215.607
 11
-1.65932
 21
-215.37
  0
LINE
  8
0
 10
-1.65932
 20
-215.37
 11
-1.69545
 21
-215.124
  0
LINE
  8
0
 10
-1.69545
 20
-215.124
 11
-1.69545
 21
-214.876
  0
LINE
  8
0
 10
-1.69545
 20
-214.876
 11
-1.65932
 21
-214.63
  0
LINE
  8
0
 10
-1.65932
 20
-214.63
 11
-1.58781
 21
-214.393
  0
LINE
  8
0
 10
-1.58781
 20
-214.393
 11
-1.48248
 21
-214.168
  0
LINE
  8
0
 10
-1.48248
 20
-214.168
 11
-1.34554
 21
-213.961
  0
LINE
  8
0
 10
-1.34554
 20
-213.961
 11
-1.17992
 21
-213.776
  0
LINE
  8
0
 10
-1.17992
 20
-213.776
 11
-0.989151
 21
-213.617
  0
LINE
  8
0
 10
-0.989151
 20
-213.617
 11
-0.777298
 21
-213.488
  0
LINE
  8
0
 10
-0.777298
 20
-213.488
 11
-0.548889
 21
-213.391
  0
LINE
  8
0
 10
-0.548889
 20
-213.391
 11
-0.308777
 21
-213.328
  0
LINE
  8
0
 10
-0.308777
 20
-213.328
 11
-0.0620728
 21
-213.301
  0
LINE
  8
0
 10
-0.0620728
 20
-213.301
 11
0.185928
 21
-213.31
  0
LINE
  8
0
 10
0.185928
 20
-213.31
 11
0.429977
 21
-213.355
  0
LINE
  8
0
 10
0.429977
 20
-213.355
 11
0.664871
 21
-213.435
  0
LINE
  8
0
 10
0.664871
 20
-213.435
 11
0.88559
 21
-213.549
  0
LINE
  8
0
 10
0.88559
 20
-213.549
 11
1.08743
 21
-213.693
  0
LINE
  8
0
 10
1.08743
 20
-213.693
 11
1.2661
 21
-213.866
  0
LINE
  8
0
 10
1.2661
 20
-213.866
 11
1.41779
 21
-214.062
  0
LINE
  8
0
 10
1.41779
 20
-214.062
 11
1.53926
 21
-214.278
  0
LINE
  8
0
 10
1.53926
 20
-214.278
 11
1.62791
 21
-214.51
  0
LINE
  8
0
 10
1.62791
 20
-214.51
 11
1.68187
 21
-214.752
  0
LINE
  8
0
 10
1.68187
 20
-214.752
 11
1.7
 21
-215
  0
LINE
  8
0
 10
1.7
 20
-215
 11
1.68187
 21
-215.248
  0
LINE
  8
0
 10
1.68187
 20
-215.248
 11
1.62791
 21
-215.49
  0
LINE
  8
0
 10
1.62791
 20
-215.49
 11
1.53926
 21
-215.722
  0
LINE
  8
0
 10
1.53926
 20
-215.722
 11
1.41779
 21
-215.938
  0
LINE
  8
0
 10
1.41779
 20
-215.938
 11
1.2661
 21
-216.134
  0
LINE
  8
0
 10
1.2661
 20
-216.134
 11
1.08743
 21
-216.307
  0
LINE
  8
0
 10
1.08743
 20
-216.307
 11
0.88559
 21
-216.451
  0
LINE
  8
0
 10
0.88559
 20
-216.451
 11
0.664871
 21
-216.565
  0
LINE
  8
0
 10
0.664871
 20
-216.565
 11
0.429977
 21
-216.645
  0
LINE
  8
0
 10
0.429977
 20
-216.645
 11
0.185928
 21
-216.69
  0
LINE
  8
0
 10
0.185928
 20
-216.69
 11
-0.0620728
 21
-216.699
  0
LINE
  8
0
 10
-0.0620728
 20
-216.699
 11
-0.308777
 21
-216.672
  0
ENDSEC
  0
SECTION
  2
OBJECTS
  0
DICTIONARY
  0
ENDSEC
  0
EOF
