  0
SECTION
  2
BLOCKS
  0
ENDSEC
  0
SECTION
  2
ENTITIES
  0
LINE
  8
0
 10
300.523
 20
-75.9726
 11
301.04
 21
-75.8907
  0
LINE
  8
0
 10
301.04
 20
-75.8907
 11
301.545
 21
-75.7553
  0
LINE
  8
0
 10
301.545
 20
-75.7553
 11
302.034
 21
-75.5677
  0
LINE
  8
0
 10
302.034
 20
-75.5677
 11
302.5
 21
-75.3301
  0
LINE
  8
0
 10
302.5
 20
-75.3301
 11
302.939
 21
-75.0451
  0
LINE
  8
0
 10
302.939
 20
-75.0451
 11
303.346
 21
-74.7157
  0
LINE
  8
0
 10
303.346
 20
-74.7157
 11
303.716
 21
-74.3457
  0
LINE
  8
0
 10
303.716
 20
-74.3457
 11
304.045
 21
-73.9389
  0
LINE
  8
0
 10
304.045
 20
-73.9389
 11
304.33
 21
-73.5
  0
LINE
  8
0
 10
304.33
 20
-73.5
 11
304.568
 21
-73.0337
  0
LINE
  8
0
 10
304.568
 20
-73.0337
 11
304.755
 21
-72.5451
  0
LINE
  8
0
 10
304.755
 20
-72.5451
 11
304.891
 21
-72.0396
  0
LINE
  8
0
 10
304.891
 20
-72.0396
 11
304.973
 21
-71.5226
  0
LINE
  8
0
 10
304.973
 20
-71.5226
 11
305
 21
-71
  0
LINE
  8
0
 10
305
 20
-71
 11
305
 21
95.375
  0
LINE
  8
0
 10
305
 20
95.375
 11
-305
 21
95.375
  0
LINE
  8
0
 10
-305
 20
95.375
 11
-305
 21
-71
  0
LINE
  8
0
 10
-305
 20
-71
 11
-304.973
 21
-71.5226
  0
LINE
  8
0
 10
-304.973
 20
-71.5226
 11
-304.891
 21
-72.0396
  0
LINE
  8
0
 10
-304.891
 20
-72.0396
 11
-304.755
 21
-72.5451
  0
LINE
  8
0
 10
-304.755
 20
-72.5451
 11
-304.568
 21
-73.0337
  0
LINE
  8
0
 10
-304.568
 20
-73.0337
 11
-304.33
 21
-73.5
  0
LINE
  8
0
 10
-304.33
 20
-73.5
 11
-304.045
 21
-73.9389
  0
LINE
  8
0
 10
-304.045
 20
-73.9389
 11
-303.716
 21
-74.3457
  0
LINE
  8
0
 10
-303.716
 20
-74.3457
 11
-303.346
 21
-74.7157
  0
LINE
  8
0
 10
-303.346
 20
-74.7157
 11
-302.939
 21
-75.0451
  0
LINE
  8
0
 10
-302.939
 20
-75.0451
 11
-302.5
 21
-75.3301
  0
LINE
  8
0
 10
-302.5
 20
-75.3301
 11
-302.034
 21
-75.5677
  0
LINE
  8
0
 10
-302.034
 20
-75.5677
 11
-301.545
 21
-75.7553
  0
LINE
  8
0
 10
-301.545
 20
-75.7553
 11
-301.04
 21
-75.8907
  0
LINE
  8
0
 10
-301.04
 20
-75.8907
 11
-300.523
 21
-75.9726
  0
LINE
  8
0
 10
-300.523
 20
-75.9726
 11
-300
 21
-76
  0
LINE
  8
0
 10
-300
 20
-76
 11
300
 21
-76
  0
LINE
  8
0
 10
300
 20
-76
 11
300.523
 21
-75.9726
  0
LINE
  8
0
 10
89.6912
 20
86.3283
 11
89.4511
 21
86.3911
  0
LINE
  8
0
 10
89.4511
 20
86.3911
 11
89.2227
 21
86.4881
  0
LINE
  8
0
 10
89.2227
 20
86.4881
 11
89.0108
 21
86.6174
  0
LINE
  8
0
 10
89.0108
 20
86.6174
 11
88.8201
 21
86.7762
  0
LINE
  8
0
 10
88.8201
 20
86.7762
 11
88.6544
 21
86.961
  0
LINE
  8
0
 10
88.6544
 20
86.961
 11
88.5175
 21
87.168
  0
LINE
  8
0
 10
88.5175
 20
87.168
 11
88.4122
 21
87.3927
  0
LINE
  8
0
 10
88.4122
 20
87.3927
 11
88.3407
 21
87.6304
  0
LINE
  8
0
 10
88.3407
 20
87.6304
 11
88.3045
 21
87.8759
  0
LINE
  8
0
 10
88.3045
 20
87.8759
 11
88.3045
 21
88.1241
  0
LINE
  8
0
 10
88.3045
 20
88.1241
 11
88.3407
 21
88.3696
  0
LINE
  8
0
 10
88.3407
 20
88.3696
 11
88.4122
 21
88.6073
  0
LINE
  8
0
 10
88.4122
 20
88.6073
 11
88.5175
 21
88.832
  0
LINE
  8
0
 10
88.5175
 20
88.832
 11
88.6544
 21
89.039
  0
LINE
  8
0
 10
88.6544
 20
89.039
 11
88.8201
 21
89.2238
  0
LINE
  8
0
 10
88.8201
 20
89.2238
 11
89.0108
 21
89.3826
  0
LINE
  8
0
 10
89.0108
 20
89.3826
 11
89.2227
 21
89.5119
  0
LINE
  8
0
 10
89.2227
 20
89.5119
 11
89.4511
 21
89.6089
  0
LINE
  8
0
 10
89.4511
 20
89.6089
 11
89.6912
 21
89.6717
  0
LINE
  8
0
 10
89.6912
 20
89.6717
 11
89.9379
 21
89.6989
  0
LINE
  8
0
 10
89.9379
 20
89.6989
 11
90.1859
 21
89.6898
  0
LINE
  8
0
 10
90.1859
 20
89.6898
 11
90.43
 21
89.6447
  0
LINE
  8
0
 10
90.43
 20
89.6447
 11
90.6649
 21
89.5646
  0
LINE
  8
0
 10
90.6649
 20
89.5646
 11
90.8856
 21
89.4511
  0
LINE
  8
0
 10
90.8856
 20
89.4511
 11
91.0874
 21
89.3067
  0
LINE
  8
0
 10
91.0874
 20
89.3067
 11
91.2661
 21
89.1344
  0
LINE
  8
0
 10
91.2661
 20
89.1344
 11
91.4178
 21
88.938
  0
LINE
  8
0
 10
91.4178
 20
88.938
 11
91.5393
 21
88.7216
  0
LINE
  8
0
 10
91.5393
 20
88.7216
 11
91.6279
 21
88.4898
  0
LINE
  8
0
 10
91.6279
 20
88.4898
 11
91.6819
 21
88.2475
  0
LINE
  8
0
 10
91.6819
 20
88.2475
 11
91.7
 21
88
  0
LINE
  8
0
 10
91.7
 20
88
 11
91.6819
 21
87.7525
  0
LINE
  8
0
 10
91.6819
 20
87.7525
 11
91.6279
 21
87.5102
  0
LINE
  8
0
 10
91.6279
 20
87.5102
 11
91.5393
 21
87.2784
  0
LINE
  8
0
 10
91.5393
 20
87.2784
 11
91.4178
 21
87.062
  0
LINE
  8
0
 10
91.4178
 20
87.062
 11
91.2661
 21
86.8656
  0
LINE
  8
0
 10
91.2661
 20
86.8656
 11
91.0874
 21
86.6933
  0
LINE
  8
0
 10
91.0874
 20
86.6933
 11
90.8856
 21
86.5489
  0
LINE
  8
0
 10
90.8856
 20
86.5489
 11
90.6649
 21
86.4354
  0
LINE
  8
0
 10
90.6649
 20
86.4354
 11
90.43
 21
86.3553
  0
LINE
  8
0
 10
90.43
 20
86.3553
 11
90.1859
 21
86.3102
  0
LINE
  8
0
 10
90.1859
 20
86.3102
 11
89.9379
 21
86.3011
  0
LINE
  8
0
 10
89.9379
 20
86.3011
 11
89.6912
 21
86.3283
  0
LINE
  8
0
 10
180.43
 20
89.6447
 11
180.665
 21
89.5646
  0
LINE
  8
0
 10
180.665
 20
89.5646
 11
180.886
 21
89.4511
  0
LINE
  8
0
 10
180.886
 20
89.4511
 11
181.087
 21
89.3067
  0
LINE
  8
0
 10
181.087
 20
89.3067
 11
181.266
 21
89.1344
  0
LINE
  8
0
 10
181.266
 20
89.1344
 11
181.418
 21
88.938
  0
LINE
  8
0
 10
181.418
 20
88.938
 11
181.539
 21
88.7216
  0
LINE
  8
0
 10
181.539
 20
88.7216
 11
181.628
 21
88.4898
  0
LINE
  8
0
 10
181.628
 20
88.4898
 11
181.682
 21
88.2475
  0
LINE
  8
0
 10
181.682
 20
88.2475
 11
181.7
 21
88
  0
LINE
  8
0
 10
181.7
 20
88
 11
181.682
 21
87.7525
  0
LINE
  8
0
 10
181.682
 20
87.7525
 11
181.628
 21
87.5102
  0
LINE
  8
0
 10
181.628
 20
87.5102
 11
181.539
 21
87.2784
  0
LINE
  8
0
 10
181.539
 20
87.2784
 11
181.418
 21
87.062
  0
LINE
  8
0
 10
181.418
 20
87.062
 11
181.266
 21
86.8656
  0
LINE
  8
0
 10
181.266
 20
86.8656
 11
181.087
 21
86.6933
  0
LINE
  8
0
 10
181.087
 20
86.6933
 11
180.886
 21
86.5489
  0
LINE
  8
0
 10
180.886
 20
86.5489
 11
180.665
 21
86.4354
  0
LINE
  8
0
 10
180.665
 20
86.4354
 11
180.43
 21
86.3553
  0
LINE
  8
0
 10
180.43
 20
86.3553
 11
180.186
 21
86.3102
  0
LINE
  8
0
 10
180.186
 20
86.3102
 11
179.938
 21
86.3011
  0
LINE
  8
0
 10
179.938
 20
86.3011
 11
179.691
 21
86.3283
  0
LINE
  8
0
 10
179.691
 20
86.3283
 11
179.451
 21
86.3911
  0
LINE
  8
0
 10
179.451
 20
86.3911
 11
179.223
 21
86.4881
  0
LINE
  8
0
 10
179.223
 20
86.4881
 11
179.011
 21
86.6174
  0
LINE
  8
0
 10
179.011
 20
86.6174
 11
178.82
 21
86.7762
  0
LINE
  8
0
 10
178.82
 20
86.7762
 11
178.654
 21
86.961
  0
LINE
  8
0
 10
178.654
 20
86.961
 11
178.518
 21
87.168
  0
LINE
  8
0
 10
178.518
 20
87.168
 11
178.412
 21
87.3927
  0
LINE
  8
0
 10
178.412
 20
87.3927
 11
178.341
 21
87.6304
  0
LINE
  8
0
 10
178.341
 20
87.6304
 11
178.305
 21
87.8759
  0
LINE
  8
0
 10
178.305
 20
87.8759
 11
178.305
 21
88.1241
  0
LINE
  8
0
 10
178.305
 20
88.1241
 11
178.341
 21
88.3696
  0
LINE
  8
0
 10
178.341
 20
88.3696
 11
178.412
 21
88.6073
  0
LINE
  8
0
 10
178.412
 20
88.6073
 11
178.518
 21
88.832
  0
LINE
  8
0
 10
178.518
 20
88.832
 11
178.654
 21
89.039
  0
LINE
  8
0
 10
178.654
 20
89.039
 11
178.82
 21
89.2238
  0
LINE
  8
0
 10
178.82
 20
89.2238
 11
179.011
 21
89.3826
  0
LINE
  8
0
 10
179.011
 20
89.3826
 11
179.223
 21
89.5119
  0
LINE
  8
0
 10
179.223
 20
89.5119
 11
179.451
 21
89.6089
  0
LINE
  8
0
 10
179.451
 20
89.6089
 11
179.691
 21
89.6717
  0
LINE
  8
0
 10
179.691
 20
89.6717
 11
179.938
 21
89.6989
  0
LINE
  8
0
 10
179.938
 20
89.6989
 11
180.186
 21
89.6898
  0
LINE
  8
0
 10
180.186
 20
89.6898
 11
180.43
 21
89.6447
  0
LINE
  8
0
 10
-180.309
 20
86.3283
 11
-180.549
 21
86.3911
  0
LINE
  8
0
 10
-180.549
 20
86.3911
 11
-180.777
 21
86.4881
  0
LINE
  8
0
 10
-180.777
 20
86.4881
 11
-180.989
 21
86.6174
  0
LINE
  8
0
 10
-180.989
 20
86.6174
 11
-181.18
 21
86.7762
  0
LINE
  8
0
 10
-181.18
 20
86.7762
 11
-181.346
 21
86.961
  0
LINE
  8
0
 10
-181.346
 20
86.961
 11
-181.482
 21
87.168
  0
LINE
  8
0
 10
-181.482
 20
87.168
 11
-181.588
 21
87.3927
  0
LINE
  8
0
 10
-181.588
 20
87.3927
 11
-181.659
 21
87.6304
  0
LINE
  8
0
 10
-181.659
 20
87.6304
 11
-181.695
 21
87.8759
  0
LINE
  8
0
 10
-181.695
 20
87.8759
 11
-181.695
 21
88.1241
  0
LINE
  8
0
 10
-181.695
 20
88.1241
 11
-181.659
 21
88.3696
  0
LINE
  8
0
 10
-181.659
 20
88.3696
 11
-181.588
 21
88.6073
  0
LINE
  8
0
 10
-181.588
 20
88.6073
 11
-181.482
 21
88.832
  0
LINE
  8
0
 10
-181.482
 20
88.832
 11
-181.346
 21
89.039
  0
LINE
  8
0
 10
-181.346
 20
89.039
 11
-181.18
 21
89.2238
  0
LINE
  8
0
 10
-181.18
 20
89.2238
 11
-180.989
 21
89.3826
  0
LINE
  8
0
 10
-180.989
 20
89.3826
 11
-180.777
 21
89.5119
  0
LINE
  8
0
 10
-180.777
 20
89.5119
 11
-180.549
 21
89.6089
  0
LINE
  8
0
 10
-180.549
 20
89.6089
 11
-180.309
 21
89.6717
  0
LINE
  8
0
 10
-180.309
 20
89.6717
 11
-180.062
 21
89.6989
  0
LINE
  8
0
 10
-180.062
 20
89.6989
 11
-179.814
 21
89.6898
  0
LINE
  8
0
 10
-179.814
 20
89.6898
 11
-179.57
 21
89.6447
  0
LINE
  8
0
 10
-179.57
 20
89.6447
 11
-179.335
 21
89.5646
  0
LINE
  8
0
 10
-179.335
 20
89.5646
 11
-179.114
 21
89.4511
  0
LINE
  8
0
 10
-179.114
 20
89.4511
 11
-178.913
 21
89.3067
  0
LINE
  8
0
 10
-178.913
 20
89.3067
 11
-178.734
 21
89.1344
  0
LINE
  8
0
 10
-178.734
 20
89.1344
 11
-178.582
 21
88.938
  0
LINE
  8
0
 10
-178.582
 20
88.938
 11
-178.461
 21
88.7216
  0
LINE
  8
0
 10
-178.461
 20
88.7216
 11
-178.372
 21
88.4898
  0
LINE
  8
0
 10
-178.372
 20
88.4898
 11
-178.318
 21
88.2475
  0
LINE
  8
0
 10
-178.318
 20
88.2475
 11
-178.3
 21
88
  0
LINE
  8
0
 10
-178.3
 20
88
 11
-178.318
 21
87.7525
  0
LINE
  8
0
 10
-178.318
 20
87.7525
 11
-178.372
 21
87.5102
  0
LINE
  8
0
 10
-178.372
 20
87.5102
 11
-178.461
 21
87.2784
  0
LINE
  8
0
 10
-178.461
 20
87.2784
 11
-178.582
 21
87.062
  0
LINE
  8
0
 10
-178.582
 20
87.062
 11
-178.734
 21
86.8656
  0
LINE
  8
0
 10
-178.734
 20
86.8656
 11
-178.913
 21
86.6933
  0
LINE
  8
0
 10
-178.913
 20
86.6933
 11
-179.114
 21
86.5489
  0
LINE
  8
0
 10
-179.114
 20
86.5489
 11
-179.335
 21
86.4354
  0
LINE
  8
0
 10
-179.335
 20
86.4354
 11
-179.57
 21
86.3553
  0
LINE
  8
0
 10
-179.57
 20
86.3553
 11
-179.814
 21
86.3102
  0
LINE
  8
0
 10
-179.814
 20
86.3102
 11
-180.062
 21
86.3011
  0
LINE
  8
0
 10
-180.062
 20
86.3011
 11
-180.309
 21
86.3283
  0
LINE
  8
0
 10
-270.309
 20
86.3283
 11
-270.549
 21
86.3911
  0
LINE
  8
0
 10
-270.549
 20
86.3911
 11
-270.777
 21
86.4881
  0
LINE
  8
0
 10
-270.777
 20
86.4881
 11
-270.989
 21
86.6174
  0
LINE
  8
0
 10
-270.989
 20
86.6174
 11
-271.18
 21
86.7762
  0
LINE
  8
0
 10
-271.18
 20
86.7762
 11
-271.346
 21
86.961
  0
LINE
  8
0
 10
-271.346
 20
86.961
 11
-271.482
 21
87.168
  0
LINE
  8
0
 10
-271.482
 20
87.168
 11
-271.588
 21
87.3927
  0
LINE
  8
0
 10
-271.588
 20
87.3927
 11
-271.659
 21
87.6304
  0
LINE
  8
0
 10
-271.659
 20
87.6304
 11
-271.695
 21
87.8759
  0
LINE
  8
0
 10
-271.695
 20
87.8759
 11
-271.695
 21
88.1241
  0
LINE
  8
0
 10
-271.695
 20
88.1241
 11
-271.659
 21
88.3696
  0
LINE
  8
0
 10
-271.659
 20
88.3696
 11
-271.588
 21
88.6073
  0
LINE
  8
0
 10
-271.588
 20
88.6073
 11
-271.482
 21
88.832
  0
LINE
  8
0
 10
-271.482
 20
88.832
 11
-271.346
 21
89.039
  0
LINE
  8
0
 10
-271.346
 20
89.039
 11
-271.18
 21
89.2238
  0
LINE
  8
0
 10
-271.18
 20
89.2238
 11
-270.989
 21
89.3826
  0
LINE
  8
0
 10
-270.989
 20
89.3826
 11
-270.777
 21
89.5119
  0
LINE
  8
0
 10
-270.777
 20
89.5119
 11
-270.549
 21
89.6089
  0
LINE
  8
0
 10
-270.549
 20
89.6089
 11
-270.309
 21
89.6717
  0
LINE
  8
0
 10
-270.309
 20
89.6717
 11
-270.062
 21
89.6989
  0
LINE
  8
0
 10
-270.062
 20
89.6989
 11
-269.814
 21
89.6898
  0
LINE
  8
0
 10
-269.814
 20
89.6898
 11
-269.57
 21
89.6447
  0
LINE
  8
0
 10
-269.57
 20
89.6447
 11
-269.335
 21
89.5646
  0
LINE
  8
0
 10
-269.335
 20
89.5646
 11
-269.114
 21
89.4511
  0
LINE
  8
0
 10
-269.114
 20
89.4511
 11
-268.913
 21
89.3067
  0
LINE
  8
0
 10
-268.913
 20
89.3067
 11
-268.734
 21
89.1344
  0
LINE
  8
0
 10
-268.734
 20
89.1344
 11
-268.582
 21
88.938
  0
LINE
  8
0
 10
-268.582
 20
88.938
 11
-268.461
 21
88.7216
  0
LINE
  8
0
 10
-268.461
 20
88.7216
 11
-268.372
 21
88.4898
  0
LINE
  8
0
 10
-268.372
 20
88.4898
 11
-268.318
 21
88.2475
  0
LINE
  8
0
 10
-268.318
 20
88.2475
 11
-268.3
 21
88
  0
LINE
  8
0
 10
-268.3
 20
88
 11
-268.318
 21
87.7525
  0
LINE
  8
0
 10
-268.318
 20
87.7525
 11
-268.372
 21
87.5102
  0
LINE
  8
0
 10
-268.372
 20
87.5102
 11
-268.461
 21
87.2784
  0
LINE
  8
0
 10
-268.461
 20
87.2784
 11
-268.582
 21
87.062
  0
LINE
  8
0
 10
-268.582
 20
87.062
 11
-268.734
 21
86.8656
  0
LINE
  8
0
 10
-268.734
 20
86.8656
 11
-268.913
 21
86.6933
  0
LINE
  8
0
 10
-268.913
 20
86.6933
 11
-269.114
 21
86.5489
  0
LINE
  8
0
 10
-269.114
 20
86.5489
 11
-269.335
 21
86.4354
  0
LINE
  8
0
 10
-269.335
 20
86.4354
 11
-269.57
 21
86.3553
  0
LINE
  8
0
 10
-269.57
 20
86.3553
 11
-269.814
 21
86.3102
  0
LINE
  8
0
 10
-269.814
 20
86.3102
 11
-270.062
 21
86.3011
  0
LINE
  8
0
 10
-270.062
 20
86.3011
 11
-270.309
 21
86.3283
  0
LINE
  8
0
 10
-90.3088
 20
86.3283
 11
-90.5489
 21
86.3911
  0
LINE
  8
0
 10
-90.5489
 20
86.3911
 11
-90.7773
 21
86.4881
  0
LINE
  8
0
 10
-90.7773
 20
86.4881
 11
-90.9892
 21
86.6174
  0
LINE
  8
0
 10
-90.9892
 20
86.6174
 11
-91.1799
 21
86.7762
  0
LINE
  8
0
 10
-91.1799
 20
86.7762
 11
-91.3455
 21
86.961
  0
LINE
  8
0
 10
-91.3455
 20
86.961
 11
-91.4825
 21
87.168
  0
LINE
  8
0
 10
-91.4825
 20
87.168
 11
-91.5878
 21
87.3927
  0
LINE
  8
0
 10
-91.5878
 20
87.3927
 11
-91.6593
 21
87.6304
  0
LINE
  8
0
 10
-91.6593
 20
87.6304
 11
-91.6955
 21
87.8759
  0
LINE
  8
0
 10
-91.6955
 20
87.8759
 11
-91.6955
 21
88.1241
  0
LINE
  8
0
 10
-91.6955
 20
88.1241
 11
-91.6593
 21
88.3696
  0
LINE
  8
0
 10
-91.6593
 20
88.3696
 11
-91.5878
 21
88.6073
  0
LINE
  8
0
 10
-91.5878
 20
88.6073
 11
-91.4825
 21
88.832
  0
LINE
  8
0
 10
-91.4825
 20
88.832
 11
-91.3455
 21
89.039
  0
LINE
  8
0
 10
-91.3455
 20
89.039
 11
-91.1799
 21
89.2238
  0
LINE
  8
0
 10
-91.1799
 20
89.2238
 11
-90.9892
 21
89.3826
  0
LINE
  8
0
 10
-90.9892
 20
89.3826
 11
-90.7773
 21
89.5119
  0
LINE
  8
0
 10
-90.7773
 20
89.5119
 11
-90.5489
 21
89.6089
  0
LINE
  8
0
 10
-90.5489
 20
89.6089
 11
-90.3088
 21
89.6717
  0
LINE
  8
0
 10
-90.3088
 20
89.6717
 11
-90.0621
 21
89.6989
  0
LINE
  8
0
 10
-90.0621
 20
89.6989
 11
-89.8141
 21
89.6898
  0
LINE
  8
0
 10
-89.8141
 20
89.6898
 11
-89.57
 21
89.6447
  0
LINE
  8
0
 10
-89.57
 20
89.6447
 11
-89.3351
 21
89.5646
  0
LINE
  8
0
 10
-89.3351
 20
89.5646
 11
-89.1144
 21
89.4511
  0
LINE
  8
0
 10
-89.1144
 20
89.4511
 11
-88.9126
 21
89.3067
  0
LINE
  8
0
 10
-88.9126
 20
89.3067
 11
-88.7339
 21
89.1344
  0
LINE
  8
0
 10
-88.7339
 20
89.1344
 11
-88.5822
 21
88.938
  0
LINE
  8
0
 10
-88.5822
 20
88.938
 11
-88.4607
 21
88.7216
  0
LINE
  8
0
 10
-88.4607
 20
88.7216
 11
-88.3721
 21
88.4898
  0
LINE
  8
0
 10
-88.3721
 20
88.4898
 11
-88.3181
 21
88.2475
  0
LINE
  8
0
 10
-88.3181
 20
88.2475
 11
-88.3
 21
88
  0
LINE
  8
0
 10
-88.3
 20
88
 11
-88.3181
 21
87.7525
  0
LINE
  8
0
 10
-88.3181
 20
87.7525
 11
-88.3721
 21
87.5102
  0
LINE
  8
0
 10
-88.3721
 20
87.5102
 11
-88.4607
 21
87.2784
  0
LINE
  8
0
 10
-88.4607
 20
87.2784
 11
-88.5822
 21
87.062
  0
LINE
  8
0
 10
-88.5822
 20
87.062
 11
-88.7339
 21
86.8656
  0
LINE
  8
0
 10
-88.7339
 20
86.8656
 11
-88.9126
 21
86.6933
  0
LINE
  8
0
 10
-88.9126
 20
86.6933
 11
-89.1144
 21
86.5489
  0
LINE
  8
0
 10
-89.1144
 20
86.5489
 11
-89.3351
 21
86.4354
  0
LINE
  8
0
 10
-89.3351
 20
86.4354
 11
-89.57
 21
86.3553
  0
LINE
  8
0
 10
-89.57
 20
86.3553
 11
-89.8141
 21
86.3102
  0
LINE
  8
0
 10
-89.8141
 20
86.3102
 11
-90.0621
 21
86.3011
  0
LINE
  8
0
 10
-90.0621
 20
86.3011
 11
-90.3088
 21
86.3283
  0
LINE
  8
0
 10
269.691
 20
86.3283
 11
269.451
 21
86.3911
  0
LINE
  8
0
 10
269.451
 20
86.3911
 11
269.223
 21
86.4881
  0
LINE
  8
0
 10
269.223
 20
86.4881
 11
269.011
 21
86.6174
  0
LINE
  8
0
 10
269.011
 20
86.6174
 11
268.82
 21
86.7762
  0
LINE
  8
0
 10
268.82
 20
86.7762
 11
268.654
 21
86.961
  0
LINE
  8
0
 10
268.654
 20
86.961
 11
268.518
 21
87.168
  0
LINE
  8
0
 10
268.518
 20
87.168
 11
268.412
 21
87.3927
  0
LINE
  8
0
 10
268.412
 20
87.3927
 11
268.341
 21
87.6304
  0
LINE
  8
0
 10
268.341
 20
87.6304
 11
268.305
 21
87.8759
  0
LINE
  8
0
 10
268.305
 20
87.8759
 11
268.305
 21
88.1241
  0
LINE
  8
0
 10
268.305
 20
88.1241
 11
268.341
 21
88.3696
  0
LINE
  8
0
 10
268.341
 20
88.3696
 11
268.412
 21
88.6073
  0
LINE
  8
0
 10
268.412
 20
88.6073
 11
268.518
 21
88.832
  0
LINE
  8
0
 10
268.518
 20
88.832
 11
268.654
 21
89.039
  0
LINE
  8
0
 10
268.654
 20
89.039
 11
268.82
 21
89.2238
  0
LINE
  8
0
 10
268.82
 20
89.2238
 11
269.011
 21
89.3826
  0
LINE
  8
0
 10
269.011
 20
89.3826
 11
269.223
 21
89.5119
  0
LINE
  8
0
 10
269.223
 20
89.5119
 11
269.451
 21
89.6089
  0
LINE
  8
0
 10
269.451
 20
89.6089
 11
269.691
 21
89.6717
  0
LINE
  8
0
 10
269.691
 20
89.6717
 11
269.938
 21
89.6989
  0
LINE
  8
0
 10
269.938
 20
89.6989
 11
270.186
 21
89.6898
  0
LINE
  8
0
 10
270.186
 20
89.6898
 11
270.43
 21
89.6447
  0
LINE
  8
0
 10
270.43
 20
89.6447
 11
270.665
 21
89.5646
  0
LINE
  8
0
 10
270.665
 20
89.5646
 11
270.886
 21
89.4511
  0
LINE
  8
0
 10
270.886
 20
89.4511
 11
271.087
 21
89.3067
  0
LINE
  8
0
 10
271.087
 20
89.3067
 11
271.266
 21
89.1344
  0
LINE
  8
0
 10
271.266
 20
89.1344
 11
271.418
 21
88.938
  0
LINE
  8
0
 10
271.418
 20
88.938
 11
271.539
 21
88.7216
  0
LINE
  8
0
 10
271.539
 20
88.7216
 11
271.628
 21
88.4898
  0
LINE
  8
0
 10
271.628
 20
88.4898
 11
271.682
 21
88.2475
  0
LINE
  8
0
 10
271.682
 20
88.2475
 11
271.7
 21
88
  0
LINE
  8
0
 10
271.7
 20
88
 11
271.682
 21
87.7525
  0
LINE
  8
0
 10
271.682
 20
87.7525
 11
271.628
 21
87.5102
  0
LINE
  8
0
 10
271.628
 20
87.5102
 11
271.539
 21
87.2784
  0
LINE
  8
0
 10
271.539
 20
87.2784
 11
271.418
 21
87.062
  0
LINE
  8
0
 10
271.418
 20
87.062
 11
271.266
 21
86.8656
  0
LINE
  8
0
 10
271.266
 20
86.8656
 11
271.087
 21
86.6933
  0
LINE
  8
0
 10
271.087
 20
86.6933
 11
270.886
 21
86.5489
  0
LINE
  8
0
 10
270.886
 20
86.5489
 11
270.665
 21
86.4354
  0
LINE
  8
0
 10
270.665
 20
86.4354
 11
270.43
 21
86.3553
  0
LINE
  8
0
 10
270.43
 20
86.3553
 11
270.186
 21
86.3102
  0
LINE
  8
0
 10
270.186
 20
86.3102
 11
269.938
 21
86.3011
  0
LINE
  8
0
 10
269.938
 20
86.3011
 11
269.691
 21
86.3283
  0
LINE
  8
0
 10
-0.308777
 20
86.3283
 11
-0.548889
 21
86.3911
  0
LINE
  8
0
 10
-0.548889
 20
86.3911
 11
-0.777298
 21
86.4881
  0
LINE
  8
0
 10
-0.777298
 20
86.4881
 11
-0.989151
 21
86.6174
  0
LINE
  8
0
 10
-0.989151
 20
86.6174
 11
-1.17992
 21
86.7762
  0
LINE
  8
0
 10
-1.17992
 20
86.7762
 11
-1.34554
 21
86.961
  0
LINE
  8
0
 10
-1.34554
 20
86.961
 11
-1.48248
 21
87.168
  0
LINE
  8
0
 10
-1.48248
 20
87.168
 11
-1.58781
 21
87.3927
  0
LINE
  8
0
 10
-1.58781
 20
87.3927
 11
-1.65932
 21
87.6304
  0
LINE
  8
0
 10
-1.65932
 20
87.6304
 11
-1.69545
 21
87.8759
  0
LINE
  8
0
 10
-1.69545
 20
87.8759
 11
-1.69545
 21
88.1241
  0
LINE
  8
0
 10
-1.69545
 20
88.1241
 11
-1.65932
 21
88.3696
  0
LINE
  8
0
 10
-1.65932
 20
88.3696
 11
-1.58781
 21
88.6073
  0
LINE
  8
0
 10
-1.58781
 20
88.6073
 11
-1.48248
 21
88.832
  0
LINE
  8
0
 10
-1.48248
 20
88.832
 11
-1.34554
 21
89.039
  0
LINE
  8
0
 10
-1.34554
 20
89.039
 11
-1.17992
 21
89.2238
  0
LINE
  8
0
 10
-1.17992
 20
89.2238
 11
-0.989151
 21
89.3826
  0
LINE
  8
0
 10
-0.989151
 20
89.3826
 11
-0.777298
 21
89.5119
  0
LINE
  8
0
 10
-0.777298
 20
89.5119
 11
-0.548889
 21
89.6089
  0
LINE
  8
0
 10
-0.548889
 20
89.6089
 11
-0.308777
 21
89.6717
  0
LINE
  8
0
 10
-0.308777
 20
89.6717
 11
-0.0620728
 21
89.6989
  0
LINE
  8
0
 10
-0.0620728
 20
89.6989
 11
0.185928
 21
89.6898
  0
LINE
  8
0
 10
0.185928
 20
89.6898
 11
0.429977
 21
89.6447
  0
LINE
  8
0
 10
0.429977
 20
89.6447
 11
0.664871
 21
89.5646
  0
LINE
  8
0
 10
0.664871
 20
89.5646
 11
0.88559
 21
89.4511
  0
LINE
  8
0
 10
0.88559
 20
89.4511
 11
1.08743
 21
89.3067
  0
LINE
  8
0
 10
1.08743
 20
89.3067
 11
1.2661
 21
89.1344
  0
LINE
  8
0
 10
1.2661
 20
89.1344
 11
1.41779
 21
88.938
  0
LINE
  8
0
 10
1.41779
 20
88.938
 11
1.53926
 21
88.7216
  0
LINE
  8
0
 10
1.53926
 20
88.7216
 11
1.62791
 21
88.4898
  0
LINE
  8
0
 10
1.62791
 20
88.4898
 11
1.68187
 21
88.2475
  0
LINE
  8
0
 10
1.68187
 20
88.2475
 11
1.7
 21
88
  0
LINE
  8
0
 10
1.7
 20
88
 11
1.68187
 21
87.7525
  0
LINE
  8
0
 10
1.68187
 20
87.7525
 11
1.62791
 21
87.5102
  0
LINE
  8
0
 10
1.62791
 20
87.5102
 11
1.53926
 21
87.2784
  0
LINE
  8
0
 10
1.53926
 20
87.2784
 11
1.41779
 21
87.062
  0
LINE
  8
0
 10
1.41779
 20
87.062
 11
1.2661
 21
86.8656
  0
LINE
  8
0
 10
1.2661
 20
86.8656
 11
1.08743
 21
86.6933
  0
LINE
  8
0
 10
1.08743
 20
86.6933
 11
0.88559
 21
86.5489
  0
LINE
  8
0
 10
0.88559
 20
86.5489
 11
0.664871
 21
86.4354
  0
LINE
  8
0
 10
0.664871
 20
86.4354
 11
0.429977
 21
86.3553
  0
LINE
  8
0
 10
0.429977
 20
86.3553
 11
0.185928
 21
86.3102
  0
LINE
  8
0
 10
0.185928
 20
86.3102
 11
-0.0620728
 21
86.3011
  0
LINE
  8
0
 10
-0.0620728
 20
86.3011
 11
-0.308777
 21
86.3283
  0
ENDSEC
  0
SECTION
  2
OBJECTS
  0
DICTIONARY
  0
ENDSEC
  0
EOF
