  0
SECTION
  2
BLOCKS
  0
ENDSEC
  0
SECTION
  2
ENTITIES
  0
LINE
  8
0
 10
-290
 20
186
 11
-289.973
 21
186.523
  0
LINE
  8
0
 10
-289.973
 20
186.523
 11
-289.891
 21
187.04
  0
LINE
  8
0
 10
-289.891
 20
187.04
 11
-289.755
 21
187.545
  0
LINE
  8
0
 10
-289.755
 20
187.545
 11
-289.568
 21
188.034
  0
LINE
  8
0
 10
-289.568
 20
188.034
 11
-289.33
 21
188.5
  0
LINE
  8
0
 10
-289.33
 20
188.5
 11
-289.045
 21
188.939
  0
LINE
  8
0
 10
-289.045
 20
188.939
 11
-288.716
 21
189.346
  0
LINE
  8
0
 10
-288.716
 20
189.346
 11
-288.346
 21
189.716
  0
LINE
  8
0
 10
-288.346
 20
189.716
 11
-287.939
 21
190.045
  0
LINE
  8
0
 10
-287.939
 20
190.045
 11
-287.5
 21
190.33
  0
LINE
  8
0
 10
-287.5
 20
190.33
 11
-287.034
 21
190.568
  0
LINE
  8
0
 10
-287.034
 20
190.568
 11
-286.545
 21
190.755
  0
LINE
  8
0
 10
-286.545
 20
190.755
 11
-286.04
 21
190.891
  0
LINE
  8
0
 10
-286.04
 20
190.891
 11
-285.523
 21
190.973
  0
LINE
  8
0
 10
-285.523
 20
190.973
 11
-285
 21
191
  0
LINE
  8
0
 10
-285
 20
191
 11
285
 21
191
  0
LINE
  8
0
 10
285
 20
191
 11
285.523
 21
190.973
  0
LINE
  8
0
 10
285.523
 20
190.973
 11
286.04
 21
190.891
  0
LINE
  8
0
 10
286.04
 20
190.891
 11
286.545
 21
190.755
  0
LINE
  8
0
 10
286.545
 20
190.755
 11
287.034
 21
190.568
  0
LINE
  8
0
 10
287.034
 20
190.568
 11
287.5
 21
190.33
  0
LINE
  8
0
 10
287.5
 20
190.33
 11
287.939
 21
190.045
  0
LINE
  8
0
 10
287.939
 20
190.045
 11
288.346
 21
189.716
  0
LINE
  8
0
 10
288.346
 20
189.716
 11
288.716
 21
189.346
  0
LINE
  8
0
 10
288.716
 20
189.346
 11
289.045
 21
188.939
  0
LINE
  8
0
 10
289.045
 20
188.939
 11
289.33
 21
188.5
  0
LINE
  8
0
 10
289.33
 20
188.5
 11
289.568
 21
188.034
  0
LINE
  8
0
 10
289.568
 20
188.034
 11
289.755
 21
187.545
  0
LINE
  8
0
 10
289.755
 20
187.545
 11
289.891
 21
187.04
  0
LINE
  8
0
 10
289.891
 20
187.04
 11
289.973
 21
186.523
  0
LINE
  8
0
 10
289.973
 20
186.523
 11
290
 21
186
  0
LINE
  8
0
 10
290
 20
186
 11
290
 21
-243.375
  0
LINE
  8
0
 10
290
 20
-243.375
 11
314.875
 21
-243.375
  0
LINE
  8
0
 10
314.875
 20
-243.375
 11
315.398
 21
-243.348
  0
LINE
  8
0
 10
315.398
 20
-243.348
 11
315.915
 21
-243.266
  0
LINE
  8
0
 10
315.915
 20
-243.266
 11
316.42
 21
-243.13
  0
LINE
  8
0
 10
316.42
 20
-243.13
 11
316.909
 21
-242.943
  0
LINE
  8
0
 10
316.909
 20
-242.943
 11
317.375
 21
-242.705
  0
LINE
  8
0
 10
317.375
 20
-242.705
 11
317.814
 21
-242.42
  0
LINE
  8
0
 10
317.814
 20
-242.42
 11
318.221
 21
-242.091
  0
LINE
  8
0
 10
318.221
 20
-242.091
 11
318.591
 21
-241.721
  0
LINE
  8
0
 10
318.591
 20
-241.721
 11
318.92
 21
-241.314
  0
LINE
  8
0
 10
318.92
 20
-241.314
 11
319.205
 21
-240.875
  0
LINE
  8
0
 10
319.205
 20
-240.875
 11
319.443
 21
-240.409
  0
LINE
  8
0
 10
319.443
 20
-240.409
 11
319.63
 21
-239.92
  0
LINE
  8
0
 10
319.63
 20
-239.92
 11
319.766
 21
-239.415
  0
LINE
  8
0
 10
319.766
 20
-239.415
 11
319.848
 21
-238.898
  0
LINE
  8
0
 10
319.848
 20
-238.898
 11
319.875
 21
-238.375
  0
LINE
  8
0
 10
319.875
 20
-238.375
 11
319.875
 21
238.375
  0
LINE
  8
0
 10
319.875
 20
238.375
 11
319.848
 21
238.898
  0
LINE
  8
0
 10
319.848
 20
238.898
 11
319.766
 21
239.415
  0
LINE
  8
0
 10
319.766
 20
239.415
 11
319.63
 21
239.92
  0
LINE
  8
0
 10
319.63
 20
239.92
 11
319.443
 21
240.409
  0
LINE
  8
0
 10
319.443
 20
240.409
 11
319.205
 21
240.875
  0
LINE
  8
0
 10
319.205
 20
240.875
 11
318.92
 21
241.314
  0
LINE
  8
0
 10
318.92
 20
241.314
 11
318.591
 21
241.721
  0
LINE
  8
0
 10
318.591
 20
241.721
 11
318.221
 21
242.091
  0
LINE
  8
0
 10
318.221
 20
242.091
 11
317.814
 21
242.42
  0
LINE
  8
0
 10
317.814
 20
242.42
 11
317.375
 21
242.705
  0
LINE
  8
0
 10
317.375
 20
242.705
 11
316.909
 21
242.943
  0
LINE
  8
0
 10
316.909
 20
242.943
 11
316.42
 21
243.13
  0
LINE
  8
0
 10
316.42
 20
243.13
 11
315.915
 21
243.266
  0
LINE
  8
0
 10
315.915
 20
243.266
 11
315.398
 21
243.348
  0
LINE
  8
0
 10
315.398
 20
243.348
 11
314.875
 21
243.375
  0
LINE
  8
0
 10
314.875
 20
243.375
 11
-314.875
 21
243.375
  0
LINE
  8
0
 10
-314.875
 20
243.375
 11
-315.398
 21
243.348
  0
LINE
  8
0
 10
-315.398
 20
243.348
 11
-315.915
 21
243.266
  0
LINE
  8
0
 10
-315.915
 20
243.266
 11
-316.42
 21
243.13
  0
LINE
  8
0
 10
-316.42
 20
243.13
 11
-316.909
 21
242.943
  0
LINE
  8
0
 10
-316.909
 20
242.943
 11
-317.375
 21
242.705
  0
LINE
  8
0
 10
-317.375
 20
242.705
 11
-317.814
 21
242.42
  0
LINE
  8
0
 10
-317.814
 20
242.42
 11
-318.221
 21
242.091
  0
LINE
  8
0
 10
-318.221
 20
242.091
 11
-318.591
 21
241.721
  0
LINE
  8
0
 10
-318.591
 20
241.721
 11
-318.92
 21
241.314
  0
LINE
  8
0
 10
-318.92
 20
241.314
 11
-319.205
 21
240.875
  0
LINE
  8
0
 10
-319.205
 20
240.875
 11
-319.443
 21
240.409
  0
LINE
  8
0
 10
-319.443
 20
240.409
 11
-319.63
 21
239.92
  0
LINE
  8
0
 10
-319.63
 20
239.92
 11
-319.766
 21
239.415
  0
LINE
  8
0
 10
-319.766
 20
239.415
 11
-319.848
 21
238.898
  0
LINE
  8
0
 10
-319.848
 20
238.898
 11
-319.875
 21
238.375
  0
LINE
  8
0
 10
-319.875
 20
238.375
 11
-319.875
 21
-238.375
  0
LINE
  8
0
 10
-319.875
 20
-238.375
 11
-319.848
 21
-238.898
  0
LINE
  8
0
 10
-319.848
 20
-238.898
 11
-319.766
 21
-239.415
  0
LINE
  8
0
 10
-319.766
 20
-239.415
 11
-319.63
 21
-239.92
  0
LINE
  8
0
 10
-319.63
 20
-239.92
 11
-319.443
 21
-240.409
  0
LINE
  8
0
 10
-319.443
 20
-240.409
 11
-319.205
 21
-240.875
  0
LINE
  8
0
 10
-319.205
 20
-240.875
 11
-318.92
 21
-241.314
  0
LINE
  8
0
 10
-318.92
 20
-241.314
 11
-318.591
 21
-241.721
  0
LINE
  8
0
 10
-318.591
 20
-241.721
 11
-318.221
 21
-242.091
  0
LINE
  8
0
 10
-318.221
 20
-242.091
 11
-317.814
 21
-242.42
  0
LINE
  8
0
 10
-317.814
 20
-242.42
 11
-317.375
 21
-242.705
  0
LINE
  8
0
 10
-317.375
 20
-242.705
 11
-316.909
 21
-242.943
  0
LINE
  8
0
 10
-316.909
 20
-242.943
 11
-316.42
 21
-243.13
  0
LINE
  8
0
 10
-316.42
 20
-243.13
 11
-315.915
 21
-243.266
  0
LINE
  8
0
 10
-315.915
 20
-243.266
 11
-315.398
 21
-243.348
  0
LINE
  8
0
 10
-315.398
 20
-243.348
 11
-314.875
 21
-243.375
  0
LINE
  8
0
 10
-314.875
 20
-243.375
 11
-290
 21
-243.375
  0
LINE
  8
0
 10
-290
 20
-243.375
 11
-290
 21
186
  0
LINE
  8
0
 10
-312.892
 20
232.271
 11
-313.28
 21
232.332
  0
LINE
  8
0
 10
-313.28
 20
232.332
 11
-313.659
 21
232.434
  0
LINE
  8
0
 10
-313.659
 20
232.434
 11
-314.025
 21
232.574
  0
LINE
  8
0
 10
-314.025
 20
232.574
 11
-314.375
 21
232.752
  0
LINE
  8
0
 10
-314.375
 20
232.752
 11
-314.704
 21
232.966
  0
LINE
  8
0
 10
-314.704
 20
232.966
 11
-315.009
 21
233.213
  0
LINE
  8
0
 10
-315.009
 20
233.213
 11
-315.287
 21
233.491
  0
LINE
  8
0
 10
-315.287
 20
233.491
 11
-315.534
 21
233.796
  0
LINE
  8
0
 10
-315.534
 20
233.796
 11
-315.748
 21
234.125
  0
LINE
  8
0
 10
-315.748
 20
234.125
 11
-315.926
 21
234.475
  0
LINE
  8
0
 10
-315.926
 20
234.475
 11
-316.066
 21
234.841
  0
LINE
  8
0
 10
-316.066
 20
234.841
 11
-316.168
 21
235.22
  0
LINE
  8
0
 10
-316.168
 20
235.22
 11
-316.229
 21
235.608
  0
LINE
  8
0
 10
-316.229
 20
235.608
 11
-316.25
 21
236
  0
LINE
  8
0
 10
-316.25
 20
236
 11
-316.229
 21
236.392
  0
LINE
  8
0
 10
-316.229
 20
236.392
 11
-316.168
 21
236.78
  0
LINE
  8
0
 10
-316.168
 20
236.78
 11
-316.066
 21
237.159
  0
LINE
  8
0
 10
-316.066
 20
237.159
 11
-315.926
 21
237.525
  0
LINE
  8
0
 10
-315.926
 20
237.525
 11
-315.748
 21
237.875
  0
LINE
  8
0
 10
-315.748
 20
237.875
 11
-315.534
 21
238.204
  0
LINE
  8
0
 10
-315.534
 20
238.204
 11
-315.287
 21
238.509
  0
LINE
  8
0
 10
-315.287
 20
238.509
 11
-315.009
 21
238.787
  0
LINE
  8
0
 10
-315.009
 20
238.787
 11
-314.704
 21
239.034
  0
LINE
  8
0
 10
-314.704
 20
239.034
 11
-314.375
 21
239.248
  0
LINE
  8
0
 10
-314.375
 20
239.248
 11
-314.025
 21
239.426
  0
LINE
  8
0
 10
-314.025
 20
239.426
 11
-313.659
 21
239.566
  0
LINE
  8
0
 10
-313.659
 20
239.566
 11
-313.28
 21
239.668
  0
LINE
  8
0
 10
-313.28
 20
239.668
 11
-312.892
 21
239.729
  0
LINE
  8
0
 10
-312.892
 20
239.729
 11
-312.5
 21
239.75
  0
LINE
  8
0
 10
-312.5
 20
239.75
 11
-312.108
 21
239.729
  0
LINE
  8
0
 10
-312.108
 20
239.729
 11
-311.72
 21
239.668
  0
LINE
  8
0
 10
-311.72
 20
239.668
 11
-311.341
 21
239.566
  0
LINE
  8
0
 10
-311.341
 20
239.566
 11
-310.975
 21
239.426
  0
LINE
  8
0
 10
-310.975
 20
239.426
 11
-310.625
 21
239.248
  0
LINE
  8
0
 10
-310.625
 20
239.248
 11
-310.296
 21
239.034
  0
LINE
  8
0
 10
-310.296
 20
239.034
 11
-309.991
 21
238.787
  0
LINE
  8
0
 10
-309.991
 20
238.787
 11
-309.713
 21
238.509
  0
LINE
  8
0
 10
-309.713
 20
238.509
 11
-309.466
 21
238.204
  0
LINE
  8
0
 10
-309.466
 20
238.204
 11
-309.252
 21
237.875
  0
LINE
  8
0
 10
-309.252
 20
237.875
 11
-309.074
 21
237.525
  0
LINE
  8
0
 10
-309.074
 20
237.525
 11
-308.934
 21
237.159
  0
LINE
  8
0
 10
-308.934
 20
237.159
 11
-308.832
 21
236.78
  0
LINE
  8
0
 10
-308.832
 20
236.78
 11
-308.771
 21
236.392
  0
LINE
  8
0
 10
-308.771
 20
236.392
 11
-308.75
 21
236
  0
LINE
  8
0
 10
-308.75
 20
236
 11
-308.771
 21
235.608
  0
LINE
  8
0
 10
-308.771
 20
235.608
 11
-308.832
 21
235.22
  0
LINE
  8
0
 10
-308.832
 20
235.22
 11
-308.934
 21
234.841
  0
LINE
  8
0
 10
-308.934
 20
234.841
 11
-309.074
 21
234.475
  0
LINE
  8
0
 10
-309.074
 20
234.475
 11
-309.252
 21
234.125
  0
LINE
  8
0
 10
-309.252
 20
234.125
 11
-309.466
 21
233.796
  0
LINE
  8
0
 10
-309.466
 20
233.796
 11
-309.713
 21
233.491
  0
LINE
  8
0
 10
-309.713
 20
233.491
 11
-309.991
 21
233.213
  0
LINE
  8
0
 10
-309.991
 20
233.213
 11
-310.296
 21
232.966
  0
LINE
  8
0
 10
-310.296
 20
232.966
 11
-310.625
 21
232.752
  0
LINE
  8
0
 10
-310.625
 20
232.752
 11
-310.975
 21
232.574
  0
LINE
  8
0
 10
-310.975
 20
232.574
 11
-311.341
 21
232.434
  0
LINE
  8
0
 10
-311.341
 20
232.434
 11
-311.72
 21
232.332
  0
LINE
  8
0
 10
-311.72
 20
232.332
 11
-312.108
 21
232.271
  0
LINE
  8
0
 10
-312.108
 20
232.271
 11
-312.5
 21
232.25
  0
LINE
  8
0
 10
-312.5
 20
232.25
 11
-312.892
 21
232.271
  0
LINE
  8
0
 10
312.108
 20
232.271
 11
311.72
 21
232.332
  0
LINE
  8
0
 10
311.72
 20
232.332
 11
311.341
 21
232.434
  0
LINE
  8
0
 10
311.341
 20
232.434
 11
310.975
 21
232.574
  0
LINE
  8
0
 10
310.975
 20
232.574
 11
310.625
 21
232.752
  0
LINE
  8
0
 10
310.625
 20
232.752
 11
310.296
 21
232.966
  0
LINE
  8
0
 10
310.296
 20
232.966
 11
309.991
 21
233.213
  0
LINE
  8
0
 10
309.991
 20
233.213
 11
309.713
 21
233.491
  0
LINE
  8
0
 10
309.713
 20
233.491
 11
309.466
 21
233.796
  0
LINE
  8
0
 10
309.466
 20
233.796
 11
309.252
 21
234.125
  0
LINE
  8
0
 10
309.252
 20
234.125
 11
309.074
 21
234.475
  0
LINE
  8
0
 10
309.074
 20
234.475
 11
308.934
 21
234.841
  0
LINE
  8
0
 10
308.934
 20
234.841
 11
308.832
 21
235.22
  0
LINE
  8
0
 10
308.832
 20
235.22
 11
308.771
 21
235.608
  0
LINE
  8
0
 10
308.771
 20
235.608
 11
308.75
 21
236
  0
LINE
  8
0
 10
308.75
 20
236
 11
308.771
 21
236.392
  0
LINE
  8
0
 10
308.771
 20
236.392
 11
308.832
 21
236.78
  0
LINE
  8
0
 10
308.832
 20
236.78
 11
308.934
 21
237.159
  0
LINE
  8
0
 10
308.934
 20
237.159
 11
309.074
 21
237.525
  0
LINE
  8
0
 10
309.074
 20
237.525
 11
309.252
 21
237.875
  0
LINE
  8
0
 10
309.252
 20
237.875
 11
309.466
 21
238.204
  0
LINE
  8
0
 10
309.466
 20
238.204
 11
309.713
 21
238.509
  0
LINE
  8
0
 10
309.713
 20
238.509
 11
309.991
 21
238.787
  0
LINE
  8
0
 10
309.991
 20
238.787
 11
310.296
 21
239.034
  0
LINE
  8
0
 10
310.296
 20
239.034
 11
310.625
 21
239.248
  0
LINE
  8
0
 10
310.625
 20
239.248
 11
310.975
 21
239.426
  0
LINE
  8
0
 10
310.975
 20
239.426
 11
311.341
 21
239.566
  0
LINE
  8
0
 10
311.341
 20
239.566
 11
311.72
 21
239.668
  0
LINE
  8
0
 10
311.72
 20
239.668
 11
312.108
 21
239.729
  0
LINE
  8
0
 10
312.108
 20
239.729
 11
312.5
 21
239.75
  0
LINE
  8
0
 10
312.5
 20
239.75
 11
312.892
 21
239.729
  0
LINE
  8
0
 10
312.892
 20
239.729
 11
313.28
 21
239.668
  0
LINE
  8
0
 10
313.28
 20
239.668
 11
313.659
 21
239.566
  0
LINE
  8
0
 10
313.659
 20
239.566
 11
314.025
 21
239.426
  0
LINE
  8
0
 10
314.025
 20
239.426
 11
314.375
 21
239.248
  0
LINE
  8
0
 10
314.375
 20
239.248
 11
314.704
 21
239.034
  0
LINE
  8
0
 10
314.704
 20
239.034
 11
315.009
 21
238.787
  0
LINE
  8
0
 10
315.009
 20
238.787
 11
315.287
 21
238.509
  0
LINE
  8
0
 10
315.287
 20
238.509
 11
315.534
 21
238.204
  0
LINE
  8
0
 10
315.534
 20
238.204
 11
315.748
 21
237.875
  0
LINE
  8
0
 10
315.748
 20
237.875
 11
315.926
 21
237.525
  0
LINE
  8
0
 10
315.926
 20
237.525
 11
316.066
 21
237.159
  0
LINE
  8
0
 10
316.066
 20
237.159
 11
316.168
 21
236.78
  0
LINE
  8
0
 10
316.168
 20
236.78
 11
316.229
 21
236.392
  0
LINE
  8
0
 10
316.229
 20
236.392
 11
316.25
 21
236
  0
LINE
  8
0
 10
316.25
 20
236
 11
316.229
 21
235.608
  0
LINE
  8
0
 10
316.229
 20
235.608
 11
316.168
 21
235.22
  0
LINE
  8
0
 10
316.168
 20
235.22
 11
316.066
 21
234.841
  0
LINE
  8
0
 10
316.066
 20
234.841
 11
315.926
 21
234.475
  0
LINE
  8
0
 10
315.926
 20
234.475
 11
315.748
 21
234.125
  0
LINE
  8
0
 10
315.748
 20
234.125
 11
315.534
 21
233.796
  0
LINE
  8
0
 10
315.534
 20
233.796
 11
315.287
 21
233.491
  0
LINE
  8
0
 10
315.287
 20
233.491
 11
315.009
 21
233.213
  0
LINE
  8
0
 10
315.009
 20
233.213
 11
314.704
 21
232.966
  0
LINE
  8
0
 10
314.704
 20
232.966
 11
314.375
 21
232.752
  0
LINE
  8
0
 10
314.375
 20
232.752
 11
314.025
 21
232.574
  0
LINE
  8
0
 10
314.025
 20
232.574
 11
313.659
 21
232.434
  0
LINE
  8
0
 10
313.659
 20
232.434
 11
313.28
 21
232.332
  0
LINE
  8
0
 10
313.28
 20
232.332
 11
312.892
 21
232.271
  0
LINE
  8
0
 10
312.892
 20
232.271
 11
312.5
 21
232.25
  0
LINE
  8
0
 10
312.5
 20
232.25
 11
312.108
 21
232.271
  0
LINE
  8
0
 10
-90.3088
 20
234.328
 11
-90.5489
 21
234.391
  0
LINE
  8
0
 10
-90.5489
 20
234.391
 11
-90.7773
 21
234.488
  0
LINE
  8
0
 10
-90.7773
 20
234.488
 11
-90.9892
 21
234.617
  0
LINE
  8
0
 10
-90.9892
 20
234.617
 11
-91.1799
 21
234.776
  0
LINE
  8
0
 10
-91.1799
 20
234.776
 11
-91.3455
 21
234.961
  0
LINE
  8
0
 10
-91.3455
 20
234.961
 11
-91.4825
 21
235.168
  0
LINE
  8
0
 10
-91.4825
 20
235.168
 11
-91.5878
 21
235.393
  0
LINE
  8
0
 10
-91.5878
 20
235.393
 11
-91.6593
 21
235.63
  0
LINE
  8
0
 10
-91.6593
 20
235.63
 11
-91.6955
 21
235.876
  0
LINE
  8
0
 10
-91.6955
 20
235.876
 11
-91.6955
 21
236.124
  0
LINE
  8
0
 10
-91.6955
 20
236.124
 11
-91.6593
 21
236.37
  0
LINE
  8
0
 10
-91.6593
 20
236.37
 11
-91.5878
 21
236.607
  0
LINE
  8
0
 10
-91.5878
 20
236.607
 11
-91.4825
 21
236.832
  0
LINE
  8
0
 10
-91.4825
 20
236.832
 11
-91.3455
 21
237.039
  0
LINE
  8
0
 10
-91.3455
 20
237.039
 11
-91.1799
 21
237.224
  0
LINE
  8
0
 10
-91.1799
 20
237.224
 11
-90.9892
 21
237.383
  0
LINE
  8
0
 10
-90.9892
 20
237.383
 11
-90.7773
 21
237.512
  0
LINE
  8
0
 10
-90.7773
 20
237.512
 11
-90.5489
 21
237.609
  0
LINE
  8
0
 10
-90.5489
 20
237.609
 11
-90.3088
 21
237.672
  0
LINE
  8
0
 10
-90.3088
 20
237.672
 11
-90.0621
 21
237.699
  0
LINE
  8
0
 10
-90.0621
 20
237.699
 11
-89.8141
 21
237.69
  0
LINE
  8
0
 10
-89.8141
 20
237.69
 11
-89.57
 21
237.645
  0
LINE
  8
0
 10
-89.57
 20
237.645
 11
-89.3351
 21
237.565
  0
LINE
  8
0
 10
-89.3351
 20
237.565
 11
-89.1144
 21
237.451
  0
LINE
  8
0
 10
-89.1144
 20
237.451
 11
-88.9126
 21
237.307
  0
LINE
  8
0
 10
-88.9126
 20
237.307
 11
-88.7339
 21
237.134
  0
LINE
  8
0
 10
-88.7339
 20
237.134
 11
-88.5822
 21
236.938
  0
LINE
  8
0
 10
-88.5822
 20
236.938
 11
-88.4607
 21
236.722
  0
LINE
  8
0
 10
-88.4607
 20
236.722
 11
-88.3721
 21
236.49
  0
LINE
  8
0
 10
-88.3721
 20
236.49
 11
-88.3181
 21
236.248
  0
LINE
  8
0
 10
-88.3181
 20
236.248
 11
-88.3
 21
236
  0
LINE
  8
0
 10
-88.3
 20
236
 11
-88.3181
 21
235.752
  0
LINE
  8
0
 10
-88.3181
 20
235.752
 11
-88.3721
 21
235.51
  0
LINE
  8
0
 10
-88.3721
 20
235.51
 11
-88.4607
 21
235.278
  0
LINE
  8
0
 10
-88.4607
 20
235.278
 11
-88.5822
 21
235.062
  0
LINE
  8
0
 10
-88.5822
 20
235.062
 11
-88.7339
 21
234.866
  0
LINE
  8
0
 10
-88.7339
 20
234.866
 11
-88.9126
 21
234.693
  0
LINE
  8
0
 10
-88.9126
 20
234.693
 11
-89.1144
 21
234.549
  0
LINE
  8
0
 10
-89.1144
 20
234.549
 11
-89.3351
 21
234.435
  0
LINE
  8
0
 10
-89.3351
 20
234.435
 11
-89.57
 21
234.355
  0
LINE
  8
0
 10
-89.57
 20
234.355
 11
-89.8141
 21
234.31
  0
LINE
  8
0
 10
-89.8141
 20
234.31
 11
-90.0621
 21
234.301
  0
LINE
  8
0
 10
-90.0621
 20
234.301
 11
-90.3088
 21
234.328
  0
LINE
  8
0
 10
-0.308777
 20
234.328
 11
-0.548889
 21
234.391
  0
LINE
  8
0
 10
-0.548889
 20
234.391
 11
-0.777298
 21
234.488
  0
LINE
  8
0
 10
-0.777298
 20
234.488
 11
-0.989151
 21
234.617
  0
LINE
  8
0
 10
-0.989151
 20
234.617
 11
-1.17992
 21
234.776
  0
LINE
  8
0
 10
-1.17992
 20
234.776
 11
-1.34554
 21
234.961
  0
LINE
  8
0
 10
-1.34554
 20
234.961
 11
-1.48248
 21
235.168
  0
LINE
  8
0
 10
-1.48248
 20
235.168
 11
-1.58781
 21
235.393
  0
LINE
  8
0
 10
-1.58781
 20
235.393
 11
-1.65932
 21
235.63
  0
LINE
  8
0
 10
-1.65932
 20
235.63
 11
-1.69545
 21
235.876
  0
LINE
  8
0
 10
-1.69545
 20
235.876
 11
-1.69545
 21
236.124
  0
LINE
  8
0
 10
-1.69545
 20
236.124
 11
-1.65932
 21
236.37
  0
LINE
  8
0
 10
-1.65932
 20
236.37
 11
-1.58781
 21
236.607
  0
LINE
  8
0
 10
-1.58781
 20
236.607
 11
-1.48248
 21
236.832
  0
LINE
  8
0
 10
-1.48248
 20
236.832
 11
-1.34554
 21
237.039
  0
LINE
  8
0
 10
-1.34554
 20
237.039
 11
-1.17992
 21
237.224
  0
LINE
  8
0
 10
-1.17992
 20
237.224
 11
-0.989151
 21
237.383
  0
LINE
  8
0
 10
-0.989151
 20
237.383
 11
-0.777298
 21
237.512
  0
LINE
  8
0
 10
-0.777298
 20
237.512
 11
-0.548889
 21
237.609
  0
LINE
  8
0
 10
-0.548889
 20
237.609
 11
-0.308777
 21
237.672
  0
LINE
  8
0
 10
-0.308777
 20
237.672
 11
-0.0620728
 21
237.699
  0
LINE
  8
0
 10
-0.0620728
 20
237.699
 11
0.185928
 21
237.69
  0
LINE
  8
0
 10
0.185928
 20
237.69
 11
0.429977
 21
237.645
  0
LINE
  8
0
 10
0.429977
 20
237.645
 11
0.664871
 21
237.565
  0
LINE
  8
0
 10
0.664871
 20
237.565
 11
0.88559
 21
237.451
  0
LINE
  8
0
 10
0.88559
 20
237.451
 11
1.08743
 21
237.307
  0
LINE
  8
0
 10
1.08743
 20
237.307
 11
1.2661
 21
237.134
  0
LINE
  8
0
 10
1.2661
 20
237.134
 11
1.41779
 21
236.938
  0
LINE
  8
0
 10
1.41779
 20
236.938
 11
1.53926
 21
236.722
  0
LINE
  8
0
 10
1.53926
 20
236.722
 11
1.62791
 21
236.49
  0
LINE
  8
0
 10
1.62791
 20
236.49
 11
1.68187
 21
236.248
  0
LINE
  8
0
 10
1.68187
 20
236.248
 11
1.7
 21
236
  0
LINE
  8
0
 10
1.7
 20
236
 11
1.68187
 21
235.752
  0
LINE
  8
0
 10
1.68187
 20
235.752
 11
1.62791
 21
235.51
  0
LINE
  8
0
 10
1.62791
 20
235.51
 11
1.53926
 21
235.278
  0
LINE
  8
0
 10
1.53926
 20
235.278
 11
1.41779
 21
235.062
  0
LINE
  8
0
 10
1.41779
 20
235.062
 11
1.2661
 21
234.866
  0
LINE
  8
0
 10
1.2661
 20
234.866
 11
1.08743
 21
234.693
  0
LINE
  8
0
 10
1.08743
 20
234.693
 11
0.88559
 21
234.549
  0
LINE
  8
0
 10
0.88559
 20
234.549
 11
0.664871
 21
234.435
  0
LINE
  8
0
 10
0.664871
 20
234.435
 11
0.429977
 21
234.355
  0
LINE
  8
0
 10
0.429977
 20
234.355
 11
0.185928
 21
234.31
  0
LINE
  8
0
 10
0.185928
 20
234.31
 11
-0.0620728
 21
234.301
  0
LINE
  8
0
 10
-0.0620728
 20
234.301
 11
-0.308777
 21
234.328
  0
LINE
  8
0
 10
269.691
 20
234.328
 11
269.451
 21
234.391
  0
LINE
  8
0
 10
269.451
 20
234.391
 11
269.223
 21
234.488
  0
LINE
  8
0
 10
269.223
 20
234.488
 11
269.011
 21
234.617
  0
LINE
  8
0
 10
269.011
 20
234.617
 11
268.82
 21
234.776
  0
LINE
  8
0
 10
268.82
 20
234.776
 11
268.654
 21
234.961
  0
LINE
  8
0
 10
268.654
 20
234.961
 11
268.518
 21
235.168
  0
LINE
  8
0
 10
268.518
 20
235.168
 11
268.412
 21
235.393
  0
LINE
  8
0
 10
268.412
 20
235.393
 11
268.341
 21
235.63
  0
LINE
  8
0
 10
268.341
 20
235.63
 11
268.305
 21
235.876
  0
LINE
  8
0
 10
268.305
 20
235.876
 11
268.305
 21
236.124
  0
LINE
  8
0
 10
268.305
 20
236.124
 11
268.341
 21
236.37
  0
LINE
  8
0
 10
268.341
 20
236.37
 11
268.412
 21
236.607
  0
LINE
  8
0
 10
268.412
 20
236.607
 11
268.518
 21
236.832
  0
LINE
  8
0
 10
268.518
 20
236.832
 11
268.654
 21
237.039
  0
LINE
  8
0
 10
268.654
 20
237.039
 11
268.82
 21
237.224
  0
LINE
  8
0
 10
268.82
 20
237.224
 11
269.011
 21
237.383
  0
LINE
  8
0
 10
269.011
 20
237.383
 11
269.223
 21
237.512
  0
LINE
  8
0
 10
269.223
 20
237.512
 11
269.451
 21
237.609
  0
LINE
  8
0
 10
269.451
 20
237.609
 11
269.691
 21
237.672
  0
LINE
  8
0
 10
269.691
 20
237.672
 11
269.938
 21
237.699
  0
LINE
  8
0
 10
269.938
 20
237.699
 11
270.186
 21
237.69
  0
LINE
  8
0
 10
270.186
 20
237.69
 11
270.43
 21
237.645
  0
LINE
  8
0
 10
270.43
 20
237.645
 11
270.665
 21
237.565
  0
LINE
  8
0
 10
270.665
 20
237.565
 11
270.886
 21
237.451
  0
LINE
  8
0
 10
270.886
 20
237.451
 11
271.087
 21
237.307
  0
LINE
  8
0
 10
271.087
 20
237.307
 11
271.266
 21
237.134
  0
LINE
  8
0
 10
271.266
 20
237.134
 11
271.418
 21
236.938
  0
LINE
  8
0
 10
271.418
 20
236.938
 11
271.539
 21
236.722
  0
LINE
  8
0
 10
271.539
 20
236.722
 11
271.628
 21
236.49
  0
LINE
  8
0
 10
271.628
 20
236.49
 11
271.682
 21
236.248
  0
LINE
  8
0
 10
271.682
 20
236.248
 11
271.7
 21
236
  0
LINE
  8
0
 10
271.7
 20
236
 11
271.682
 21
235.752
  0
LINE
  8
0
 10
271.682
 20
235.752
 11
271.628
 21
235.51
  0
LINE
  8
0
 10
271.628
 20
235.51
 11
271.539
 21
235.278
  0
LINE
  8
0
 10
271.539
 20
235.278
 11
271.418
 21
235.062
  0
LINE
  8
0
 10
271.418
 20
235.062
 11
271.266
 21
234.866
  0
LINE
  8
0
 10
271.266
 20
234.866
 11
271.087
 21
234.693
  0
LINE
  8
0
 10
271.087
 20
234.693
 11
270.886
 21
234.549
  0
LINE
  8
0
 10
270.886
 20
234.549
 11
270.665
 21
234.435
  0
LINE
  8
0
 10
270.665
 20
234.435
 11
270.43
 21
234.355
  0
LINE
  8
0
 10
270.43
 20
234.355
 11
270.186
 21
234.31
  0
LINE
  8
0
 10
270.186
 20
234.31
 11
269.938
 21
234.301
  0
LINE
  8
0
 10
269.938
 20
234.301
 11
269.691
 21
234.328
  0
LINE
  8
0
 10
179.691
 20
234.328
 11
179.451
 21
234.391
  0
LINE
  8
0
 10
179.451
 20
234.391
 11
179.223
 21
234.488
  0
LINE
  8
0
 10
179.223
 20
234.488
 11
179.011
 21
234.617
  0
LINE
  8
0
 10
179.011
 20
234.617
 11
178.82
 21
234.776
  0
LINE
  8
0
 10
178.82
 20
234.776
 11
178.654
 21
234.961
  0
LINE
  8
0
 10
178.654
 20
234.961
 11
178.518
 21
235.168
  0
LINE
  8
0
 10
178.518
 20
235.168
 11
178.412
 21
235.393
  0
LINE
  8
0
 10
178.412
 20
235.393
 11
178.341
 21
235.63
  0
LINE
  8
0
 10
178.341
 20
235.63
 11
178.305
 21
235.876
  0
LINE
  8
0
 10
178.305
 20
235.876
 11
178.305
 21
236.124
  0
LINE
  8
0
 10
178.305
 20
236.124
 11
178.341
 21
236.37
  0
LINE
  8
0
 10
178.341
 20
236.37
 11
178.412
 21
236.607
  0
LINE
  8
0
 10
178.412
 20
236.607
 11
178.518
 21
236.832
  0
LINE
  8
0
 10
178.518
 20
236.832
 11
178.654
 21
237.039
  0
LINE
  8
0
 10
178.654
 20
237.039
 11
178.82
 21
237.224
  0
LINE
  8
0
 10
178.82
 20
237.224
 11
179.011
 21
237.383
  0
LINE
  8
0
 10
179.011
 20
237.383
 11
179.223
 21
237.512
  0
LINE
  8
0
 10
179.223
 20
237.512
 11
179.451
 21
237.609
  0
LINE
  8
0
 10
179.451
 20
237.609
 11
179.691
 21
237.672
  0
LINE
  8
0
 10
179.691
 20
237.672
 11
179.938
 21
237.699
  0
LINE
  8
0
 10
179.938
 20
237.699
 11
180.186
 21
237.69
  0
LINE
  8
0
 10
180.186
 20
237.69
 11
180.43
 21
237.645
  0
LINE
  8
0
 10
180.43
 20
237.645
 11
180.665
 21
237.565
  0
LINE
  8
0
 10
180.665
 20
237.565
 11
180.886
 21
237.451
  0
LINE
  8
0
 10
180.886
 20
237.451
 11
181.087
 21
237.307
  0
LINE
  8
0
 10
181.087
 20
237.307
 11
181.266
 21
237.134
  0
LINE
  8
0
 10
181.266
 20
237.134
 11
181.418
 21
236.938
  0
LINE
  8
0
 10
181.418
 20
236.938
 11
181.539
 21
236.722
  0
LINE
  8
0
 10
181.539
 20
236.722
 11
181.628
 21
236.49
  0
LINE
  8
0
 10
181.628
 20
236.49
 11
181.682
 21
236.248
  0
LINE
  8
0
 10
181.682
 20
236.248
 11
181.7
 21
236
  0
LINE
  8
0
 10
181.7
 20
236
 11
181.682
 21
235.752
  0
LINE
  8
0
 10
181.682
 20
235.752
 11
181.628
 21
235.51
  0
LINE
  8
0
 10
181.628
 20
235.51
 11
181.539
 21
235.278
  0
LINE
  8
0
 10
181.539
 20
235.278
 11
181.418
 21
235.062
  0
LINE
  8
0
 10
181.418
 20
235.062
 11
181.266
 21
234.866
  0
LINE
  8
0
 10
181.266
 20
234.866
 11
181.087
 21
234.693
  0
LINE
  8
0
 10
181.087
 20
234.693
 11
180.886
 21
234.549
  0
LINE
  8
0
 10
180.886
 20
234.549
 11
180.665
 21
234.435
  0
LINE
  8
0
 10
180.665
 20
234.435
 11
180.43
 21
234.355
  0
LINE
  8
0
 10
180.43
 20
234.355
 11
180.186
 21
234.31
  0
LINE
  8
0
 10
180.186
 20
234.31
 11
179.938
 21
234.301
  0
LINE
  8
0
 10
179.938
 20
234.301
 11
179.691
 21
234.328
  0
LINE
  8
0
 10
89.6912
 20
234.328
 11
89.4511
 21
234.391
  0
LINE
  8
0
 10
89.4511
 20
234.391
 11
89.2227
 21
234.488
  0
LINE
  8
0
 10
89.2227
 20
234.488
 11
89.0108
 21
234.617
  0
LINE
  8
0
 10
89.0108
 20
234.617
 11
88.8201
 21
234.776
  0
LINE
  8
0
 10
88.8201
 20
234.776
 11
88.6544
 21
234.961
  0
LINE
  8
0
 10
88.6544
 20
234.961
 11
88.5175
 21
235.168
  0
LINE
  8
0
 10
88.5175
 20
235.168
 11
88.4122
 21
235.393
  0
LINE
  8
0
 10
88.4122
 20
235.393
 11
88.3407
 21
235.63
  0
LINE
  8
0
 10
88.3407
 20
235.63
 11
88.3045
 21
235.876
  0
LINE
  8
0
 10
88.3045
 20
235.876
 11
88.3045
 21
236.124
  0
LINE
  8
0
 10
88.3045
 20
236.124
 11
88.3407
 21
236.37
  0
LINE
  8
0
 10
88.3407
 20
236.37
 11
88.4122
 21
236.607
  0
LINE
  8
0
 10
88.4122
 20
236.607
 11
88.5175
 21
236.832
  0
LINE
  8
0
 10
88.5175
 20
236.832
 11
88.6544
 21
237.039
  0
LINE
  8
0
 10
88.6544
 20
237.039
 11
88.8201
 21
237.224
  0
LINE
  8
0
 10
88.8201
 20
237.224
 11
89.0108
 21
237.383
  0
LINE
  8
0
 10
89.0108
 20
237.383
 11
89.2227
 21
237.512
  0
LINE
  8
0
 10
89.2227
 20
237.512
 11
89.4511
 21
237.609
  0
LINE
  8
0
 10
89.4511
 20
237.609
 11
89.6912
 21
237.672
  0
LINE
  8
0
 10
89.6912
 20
237.672
 11
89.9379
 21
237.699
  0
LINE
  8
0
 10
89.9379
 20
237.699
 11
90.1859
 21
237.69
  0
LINE
  8
0
 10
90.1859
 20
237.69
 11
90.43
 21
237.645
  0
LINE
  8
0
 10
90.43
 20
237.645
 11
90.6649
 21
237.565
  0
LINE
  8
0
 10
90.6649
 20
237.565
 11
90.8856
 21
237.451
  0
LINE
  8
0
 10
90.8856
 20
237.451
 11
91.0874
 21
237.307
  0
LINE
  8
0
 10
91.0874
 20
237.307
 11
91.2661
 21
237.134
  0
LINE
  8
0
 10
91.2661
 20
237.134
 11
91.4178
 21
236.938
  0
LINE
  8
0
 10
91.4178
 20
236.938
 11
91.5393
 21
236.722
  0
LINE
  8
0
 10
91.5393
 20
236.722
 11
91.6279
 21
236.49
  0
LINE
  8
0
 10
91.6279
 20
236.49
 11
91.6819
 21
236.248
  0
LINE
  8
0
 10
91.6819
 20
236.248
 11
91.7
 21
236
  0
LINE
  8
0
 10
91.7
 20
236
 11
91.6819
 21
235.752
  0
LINE
  8
0
 10
91.6819
 20
235.752
 11
91.6279
 21
235.51
  0
LINE
  8
0
 10
91.6279
 20
235.51
 11
91.5393
 21
235.278
  0
LINE
  8
0
 10
91.5393
 20
235.278
 11
91.4178
 21
235.062
  0
LINE
  8
0
 10
91.4178
 20
235.062
 11
91.2661
 21
234.866
  0
LINE
  8
0
 10
91.2661
 20
234.866
 11
91.0874
 21
234.693
  0
LINE
  8
0
 10
91.0874
 20
234.693
 11
90.8856
 21
234.549
  0
LINE
  8
0
 10
90.8856
 20
234.549
 11
90.6649
 21
234.435
  0
LINE
  8
0
 10
90.6649
 20
234.435
 11
90.43
 21
234.355
  0
LINE
  8
0
 10
90.43
 20
234.355
 11
90.1859
 21
234.31
  0
LINE
  8
0
 10
90.1859
 20
234.31
 11
89.9379
 21
234.301
  0
LINE
  8
0
 10
89.9379
 20
234.301
 11
89.6912
 21
234.328
  0
LINE
  8
0
 10
-270.309
 20
234.328
 11
-270.549
 21
234.391
  0
LINE
  8
0
 10
-270.549
 20
234.391
 11
-270.777
 21
234.488
  0
LINE
  8
0
 10
-270.777
 20
234.488
 11
-270.989
 21
234.617
  0
LINE
  8
0
 10
-270.989
 20
234.617
 11
-271.18
 21
234.776
  0
LINE
  8
0
 10
-271.18
 20
234.776
 11
-271.346
 21
234.961
  0
LINE
  8
0
 10
-271.346
 20
234.961
 11
-271.482
 21
235.168
  0
LINE
  8
0
 10
-271.482
 20
235.168
 11
-271.588
 21
235.393
  0
LINE
  8
0
 10
-271.588
 20
235.393
 11
-271.659
 21
235.63
  0
LINE
  8
0
 10
-271.659
 20
235.63
 11
-271.695
 21
235.876
  0
LINE
  8
0
 10
-271.695
 20
235.876
 11
-271.695
 21
236.124
  0
LINE
  8
0
 10
-271.695
 20
236.124
 11
-271.659
 21
236.37
  0
LINE
  8
0
 10
-271.659
 20
236.37
 11
-271.588
 21
236.607
  0
LINE
  8
0
 10
-271.588
 20
236.607
 11
-271.482
 21
236.832
  0
LINE
  8
0
 10
-271.482
 20
236.832
 11
-271.346
 21
237.039
  0
LINE
  8
0
 10
-271.346
 20
237.039
 11
-271.18
 21
237.224
  0
LINE
  8
0
 10
-271.18
 20
237.224
 11
-270.989
 21
237.383
  0
LINE
  8
0
 10
-270.989
 20
237.383
 11
-270.777
 21
237.512
  0
LINE
  8
0
 10
-270.777
 20
237.512
 11
-270.549
 21
237.609
  0
LINE
  8
0
 10
-270.549
 20
237.609
 11
-270.309
 21
237.672
  0
LINE
  8
0
 10
-270.309
 20
237.672
 11
-270.062
 21
237.699
  0
LINE
  8
0
 10
-270.062
 20
237.699
 11
-269.814
 21
237.69
  0
LINE
  8
0
 10
-269.814
 20
237.69
 11
-269.57
 21
237.645
  0
LINE
  8
0
 10
-269.57
 20
237.645
 11
-269.335
 21
237.565
  0
LINE
  8
0
 10
-269.335
 20
237.565
 11
-269.114
 21
237.451
  0
LINE
  8
0
 10
-269.114
 20
237.451
 11
-268.913
 21
237.307
  0
LINE
  8
0
 10
-268.913
 20
237.307
 11
-268.734
 21
237.134
  0
LINE
  8
0
 10
-268.734
 20
237.134
 11
-268.582
 21
236.938
  0
LINE
  8
0
 10
-268.582
 20
236.938
 11
-268.461
 21
236.722
  0
LINE
  8
0
 10
-268.461
 20
236.722
 11
-268.372
 21
236.49
  0
LINE
  8
0
 10
-268.372
 20
236.49
 11
-268.318
 21
236.248
  0
LINE
  8
0
 10
-268.318
 20
236.248
 11
-268.3
 21
236
  0
LINE
  8
0
 10
-268.3
 20
236
 11
-268.318
 21
235.752
  0
LINE
  8
0
 10
-268.318
 20
235.752
 11
-268.372
 21
235.51
  0
LINE
  8
0
 10
-268.372
 20
235.51
 11
-268.461
 21
235.278
  0
LINE
  8
0
 10
-268.461
 20
235.278
 11
-268.582
 21
235.062
  0
LINE
  8
0
 10
-268.582
 20
235.062
 11
-268.734
 21
234.866
  0
LINE
  8
0
 10
-268.734
 20
234.866
 11
-268.913
 21
234.693
  0
LINE
  8
0
 10
-268.913
 20
234.693
 11
-269.114
 21
234.549
  0
LINE
  8
0
 10
-269.114
 20
234.549
 11
-269.335
 21
234.435
  0
LINE
  8
0
 10
-269.335
 20
234.435
 11
-269.57
 21
234.355
  0
LINE
  8
0
 10
-269.57
 20
234.355
 11
-269.814
 21
234.31
  0
LINE
  8
0
 10
-269.814
 20
234.31
 11
-270.062
 21
234.301
  0
LINE
  8
0
 10
-270.062
 20
234.301
 11
-270.309
 21
234.328
  0
LINE
  8
0
 10
-180.309
 20
234.328
 11
-180.549
 21
234.391
  0
LINE
  8
0
 10
-180.549
 20
234.391
 11
-180.777
 21
234.488
  0
LINE
  8
0
 10
-180.777
 20
234.488
 11
-180.989
 21
234.617
  0
LINE
  8
0
 10
-180.989
 20
234.617
 11
-181.18
 21
234.776
  0
LINE
  8
0
 10
-181.18
 20
234.776
 11
-181.346
 21
234.961
  0
LINE
  8
0
 10
-181.346
 20
234.961
 11
-181.482
 21
235.168
  0
LINE
  8
0
 10
-181.482
 20
235.168
 11
-181.588
 21
235.393
  0
LINE
  8
0
 10
-181.588
 20
235.393
 11
-181.659
 21
235.63
  0
LINE
  8
0
 10
-181.659
 20
235.63
 11
-181.695
 21
235.876
  0
LINE
  8
0
 10
-181.695
 20
235.876
 11
-181.695
 21
236.124
  0
LINE
  8
0
 10
-181.695
 20
236.124
 11
-181.659
 21
236.37
  0
LINE
  8
0
 10
-181.659
 20
236.37
 11
-181.588
 21
236.607
  0
LINE
  8
0
 10
-181.588
 20
236.607
 11
-181.482
 21
236.832
  0
LINE
  8
0
 10
-181.482
 20
236.832
 11
-181.346
 21
237.039
  0
LINE
  8
0
 10
-181.346
 20
237.039
 11
-181.18
 21
237.224
  0
LINE
  8
0
 10
-181.18
 20
237.224
 11
-180.989
 21
237.383
  0
LINE
  8
0
 10
-180.989
 20
237.383
 11
-180.777
 21
237.512
  0
LINE
  8
0
 10
-180.777
 20
237.512
 11
-180.549
 21
237.609
  0
LINE
  8
0
 10
-180.549
 20
237.609
 11
-180.309
 21
237.672
  0
LINE
  8
0
 10
-180.309
 20
237.672
 11
-180.062
 21
237.699
  0
LINE
  8
0
 10
-180.062
 20
237.699
 11
-179.814
 21
237.69
  0
LINE
  8
0
 10
-179.814
 20
237.69
 11
-179.57
 21
237.645
  0
LINE
  8
0
 10
-179.57
 20
237.645
 11
-179.335
 21
237.565
  0
LINE
  8
0
 10
-179.335
 20
237.565
 11
-179.114
 21
237.451
  0
LINE
  8
0
 10
-179.114
 20
237.451
 11
-178.913
 21
237.307
  0
LINE
  8
0
 10
-178.913
 20
237.307
 11
-178.734
 21
237.134
  0
LINE
  8
0
 10
-178.734
 20
237.134
 11
-178.582
 21
236.938
  0
LINE
  8
0
 10
-178.582
 20
236.938
 11
-178.461
 21
236.722
  0
LINE
  8
0
 10
-178.461
 20
236.722
 11
-178.372
 21
236.49
  0
LINE
  8
0
 10
-178.372
 20
236.49
 11
-178.318
 21
236.248
  0
LINE
  8
0
 10
-178.318
 20
236.248
 11
-178.3
 21
236
  0
LINE
  8
0
 10
-178.3
 20
236
 11
-178.318
 21
235.752
  0
LINE
  8
0
 10
-178.318
 20
235.752
 11
-178.372
 21
235.51
  0
LINE
  8
0
 10
-178.372
 20
235.51
 11
-178.461
 21
235.278
  0
LINE
  8
0
 10
-178.461
 20
235.278
 11
-178.582
 21
235.062
  0
LINE
  8
0
 10
-178.582
 20
235.062
 11
-178.734
 21
234.866
  0
LINE
  8
0
 10
-178.734
 20
234.866
 11
-178.913
 21
234.693
  0
LINE
  8
0
 10
-178.913
 20
234.693
 11
-179.114
 21
234.549
  0
LINE
  8
0
 10
-179.114
 20
234.549
 11
-179.335
 21
234.435
  0
LINE
  8
0
 10
-179.335
 20
234.435
 11
-179.57
 21
234.355
  0
LINE
  8
0
 10
-179.57
 20
234.355
 11
-179.814
 21
234.31
  0
LINE
  8
0
 10
-179.814
 20
234.31
 11
-180.062
 21
234.301
  0
LINE
  8
0
 10
-180.062
 20
234.301
 11
-180.309
 21
234.328
  0
LINE
  8
0
 10
312.191
 20
191.828
 11
311.951
 21
191.891
  0
LINE
  8
0
 10
311.951
 20
191.891
 11
311.723
 21
191.988
  0
LINE
  8
0
 10
311.723
 20
191.988
 11
311.511
 21
192.117
  0
LINE
  8
0
 10
311.511
 20
192.117
 11
311.32
 21
192.276
  0
LINE
  8
0
 10
311.32
 20
192.276
 11
311.154
 21
192.461
  0
LINE
  8
0
 10
311.154
 20
192.461
 11
311.018
 21
192.668
  0
LINE
  8
0
 10
311.018
 20
192.668
 11
310.912
 21
192.893
  0
LINE
  8
0
 10
310.912
 20
192.893
 11
310.841
 21
193.13
  0
LINE
  8
0
 10
310.841
 20
193.13
 11
310.805
 21
193.376
  0
LINE
  8
0
 10
310.805
 20
193.376
 11
310.805
 21
193.624
  0
LINE
  8
0
 10
310.805
 20
193.624
 11
310.841
 21
193.87
  0
LINE
  8
0
 10
310.841
 20
193.87
 11
310.912
 21
194.107
  0
LINE
  8
0
 10
310.912
 20
194.107
 11
311.018
 21
194.332
  0
LINE
  8
0
 10
311.018
 20
194.332
 11
311.154
 21
194.539
  0
LINE
  8
0
 10
311.154
 20
194.539
 11
311.32
 21
194.724
  0
LINE
  8
0
 10
311.32
 20
194.724
 11
311.511
 21
194.883
  0
LINE
  8
0
 10
311.511
 20
194.883
 11
311.723
 21
195.012
  0
LINE
  8
0
 10
311.723
 20
195.012
 11
311.951
 21
195.109
  0
LINE
  8
0
 10
311.951
 20
195.109
 11
312.191
 21
195.172
  0
LINE
  8
0
 10
312.191
 20
195.172
 11
312.438
 21
195.199
  0
LINE
  8
0
 10
312.438
 20
195.199
 11
312.686
 21
195.19
  0
LINE
  8
0
 10
312.686
 20
195.19
 11
312.93
 21
195.145
  0
LINE
  8
0
 10
312.93
 20
195.145
 11
313.165
 21
195.065
  0
LINE
  8
0
 10
313.165
 20
195.065
 11
313.386
 21
194.951
  0
LINE
  8
0
 10
313.386
 20
194.951
 11
313.587
 21
194.807
  0
LINE
  8
0
 10
313.587
 20
194.807
 11
313.766
 21
194.634
  0
LINE
  8
0
 10
313.766
 20
194.634
 11
313.918
 21
194.438
  0
LINE
  8
0
 10
313.918
 20
194.438
 11
314.039
 21
194.222
  0
LINE
  8
0
 10
314.039
 20
194.222
 11
314.128
 21
193.99
  0
LINE
  8
0
 10
314.128
 20
193.99
 11
314.182
 21
193.748
  0
LINE
  8
0
 10
314.182
 20
193.748
 11
314.2
 21
193.5
  0
LINE
  8
0
 10
314.2
 20
193.5
 11
314.182
 21
193.252
  0
LINE
  8
0
 10
314.182
 20
193.252
 11
314.128
 21
193.01
  0
LINE
  8
0
 10
314.128
 20
193.01
 11
314.039
 21
192.778
  0
LINE
  8
0
 10
314.039
 20
192.778
 11
313.918
 21
192.562
  0
LINE
  8
0
 10
313.918
 20
192.562
 11
313.766
 21
192.366
  0
LINE
  8
0
 10
313.766
 20
192.366
 11
313.587
 21
192.193
  0
LINE
  8
0
 10
313.587
 20
192.193
 11
313.386
 21
192.049
  0
LINE
  8
0
 10
313.386
 20
192.049
 11
313.165
 21
191.935
  0
LINE
  8
0
 10
313.165
 20
191.935
 11
312.93
 21
191.855
  0
LINE
  8
0
 10
312.93
 20
191.855
 11
312.686
 21
191.81
  0
LINE
  8
0
 10
312.686
 20
191.81
 11
312.438
 21
191.801
  0
LINE
  8
0
 10
312.438
 20
191.801
 11
312.191
 21
191.828
  0
LINE
  8
0
 10
-312.686
 20
191.81
 11
-312.93
 21
191.855
  0
LINE
  8
0
 10
-312.93
 20
191.855
 11
-313.165
 21
191.935
  0
LINE
  8
0
 10
-313.165
 20
191.935
 11
-313.386
 21
192.049
  0
LINE
  8
0
 10
-313.386
 20
192.049
 11
-313.587
 21
192.193
  0
LINE
  8
0
 10
-313.587
 20
192.193
 11
-313.766
 21
192.366
  0
LINE
  8
0
 10
-313.766
 20
192.366
 11
-313.918
 21
192.562
  0
LINE
  8
0
 10
-313.918
 20
192.562
 11
-314.039
 21
192.778
  0
LINE
  8
0
 10
-314.039
 20
192.778
 11
-314.128
 21
193.01
  0
LINE
  8
0
 10
-314.128
 20
193.01
 11
-314.182
 21
193.252
  0
LINE
  8
0
 10
-314.182
 20
193.252
 11
-314.2
 21
193.5
  0
LINE
  8
0
 10
-314.2
 20
193.5
 11
-314.182
 21
193.748
  0
LINE
  8
0
 10
-314.182
 20
193.748
 11
-314.128
 21
193.99
  0
LINE
  8
0
 10
-314.128
 20
193.99
 11
-314.039
 21
194.222
  0
LINE
  8
0
 10
-314.039
 20
194.222
 11
-313.918
 21
194.438
  0
LINE
  8
0
 10
-313.918
 20
194.438
 11
-313.766
 21
194.634
  0
LINE
  8
0
 10
-313.766
 20
194.634
 11
-313.587
 21
194.807
  0
LINE
  8
0
 10
-313.587
 20
194.807
 11
-313.386
 21
194.951
  0
LINE
  8
0
 10
-313.386
 20
194.951
 11
-313.165
 21
195.065
  0
LINE
  8
0
 10
-313.165
 20
195.065
 11
-312.93
 21
195.145
  0
LINE
  8
0
 10
-312.93
 20
195.145
 11
-312.686
 21
195.19
  0
LINE
  8
0
 10
-312.686
 20
195.19
 11
-312.438
 21
195.199
  0
LINE
  8
0
 10
-312.438
 20
195.199
 11
-312.191
 21
195.172
  0
LINE
  8
0
 10
-312.191
 20
195.172
 11
-311.951
 21
195.109
  0
LINE
  8
0
 10
-311.951
 20
195.109
 11
-311.723
 21
195.012
  0
LINE
  8
0
 10
-311.723
 20
195.012
 11
-311.511
 21
194.883
  0
LINE
  8
0
 10
-311.511
 20
194.883
 11
-311.32
 21
194.724
  0
LINE
  8
0
 10
-311.32
 20
194.724
 11
-311.154
 21
194.539
  0
LINE
  8
0
 10
-311.154
 20
194.539
 11
-311.018
 21
194.332
  0
LINE
  8
0
 10
-311.018
 20
194.332
 11
-310.912
 21
194.107
  0
LINE
  8
0
 10
-310.912
 20
194.107
 11
-310.841
 21
193.87
  0
LINE
  8
0
 10
-310.841
 20
193.87
 11
-310.805
 21
193.624
  0
LINE
  8
0
 10
-310.805
 20
193.624
 11
-310.805
 21
193.376
  0
LINE
  8
0
 10
-310.805
 20
193.376
 11
-310.841
 21
193.13
  0
LINE
  8
0
 10
-310.841
 20
193.13
 11
-310.912
 21
192.893
  0
LINE
  8
0
 10
-310.912
 20
192.893
 11
-311.018
 21
192.668
  0
LINE
  8
0
 10
-311.018
 20
192.668
 11
-311.154
 21
192.461
  0
LINE
  8
0
 10
-311.154
 20
192.461
 11
-311.32
 21
192.276
  0
LINE
  8
0
 10
-311.32
 20
192.276
 11
-311.511
 21
192.117
  0
LINE
  8
0
 10
-311.511
 20
192.117
 11
-311.723
 21
191.988
  0
LINE
  8
0
 10
-311.723
 20
191.988
 11
-311.951
 21
191.891
  0
LINE
  8
0
 10
-311.951
 20
191.891
 11
-312.191
 21
191.828
  0
LINE
  8
0
 10
-312.191
 20
191.828
 11
-312.438
 21
191.801
  0
LINE
  8
0
 10
-312.438
 20
191.801
 11
-312.686
 21
191.81
  0
LINE
  8
0
 10
-312.686
 20
95.0602
 11
-312.93
 21
95.1053
  0
LINE
  8
0
 10
-312.93
 20
95.1053
 11
-313.165
 21
95.1854
  0
LINE
  8
0
 10
-313.165
 20
95.1854
 11
-313.386
 21
95.2989
  0
LINE
  8
0
 10
-313.386
 20
95.2989
 11
-313.587
 21
95.4433
  0
LINE
  8
0
 10
-313.587
 20
95.4433
 11
-313.766
 21
95.6156
  0
LINE
  8
0
 10
-313.766
 20
95.6156
 11
-313.918
 21
95.812
  0
LINE
  8
0
 10
-313.918
 20
95.812
 11
-314.039
 21
96.0284
  0
LINE
  8
0
 10
-314.039
 20
96.0284
 11
-314.128
 21
96.2602
  0
LINE
  8
0
 10
-314.128
 20
96.2602
 11
-314.182
 21
96.5025
  0
LINE
  8
0
 10
-314.182
 20
96.5025
 11
-314.2
 21
96.75
  0
LINE
  8
0
 10
-314.2
 20
96.75
 11
-314.182
 21
96.9975
  0
LINE
  8
0
 10
-314.182
 20
96.9975
 11
-314.128
 21
97.2398
  0
LINE
  8
0
 10
-314.128
 20
97.2398
 11
-314.039
 21
97.4716
  0
LINE
  8
0
 10
-314.039
 20
97.4716
 11
-313.918
 21
97.688
  0
LINE
  8
0
 10
-313.918
 20
97.688
 11
-313.766
 21
97.8844
  0
LINE
  8
0
 10
-313.766
 20
97.8844
 11
-313.587
 21
98.0567
  0
LINE
  8
0
 10
-313.587
 20
98.0567
 11
-313.386
 21
98.2011
  0
LINE
  8
0
 10
-313.386
 20
98.2011
 11
-313.165
 21
98.3146
  0
LINE
  8
0
 10
-313.165
 20
98.3146
 11
-312.93
 21
98.3947
  0
LINE
  8
0
 10
-312.93
 20
98.3947
 11
-312.686
 21
98.4398
  0
LINE
  8
0
 10
-312.686
 20
98.4398
 11
-312.438
 21
98.4489
  0
LINE
  8
0
 10
-312.438
 20
98.4489
 11
-312.191
 21
98.4217
  0
LINE
  8
0
 10
-312.191
 20
98.4217
 11
-311.951
 21
98.3589
  0
LINE
  8
0
 10
-311.951
 20
98.3589
 11
-311.723
 21
98.2619
  0
LINE
  8
0
 10
-311.723
 20
98.2619
 11
-311.511
 21
98.1326
  0
LINE
  8
0
 10
-311.511
 20
98.1326
 11
-311.32
 21
97.9738
  0
LINE
  8
0
 10
-311.32
 20
97.9738
 11
-311.154
 21
97.789
  0
LINE
  8
0
 10
-311.154
 20
97.789
 11
-311.018
 21
97.582
  0
LINE
  8
0
 10
-311.018
 20
97.582
 11
-310.912
 21
97.3573
  0
LINE
  8
0
 10
-310.912
 20
97.3573
 11
-310.841
 21
97.1196
  0
LINE
  8
0
 10
-310.841
 20
97.1196
 11
-310.805
 21
96.8741
  0
LINE
  8
0
 10
-310.805
 20
96.8741
 11
-310.805
 21
96.6259
  0
LINE
  8
0
 10
-310.805
 20
96.6259
 11
-310.841
 21
96.3804
  0
LINE
  8
0
 10
-310.841
 20
96.3804
 11
-310.912
 21
96.1427
  0
LINE
  8
0
 10
-310.912
 20
96.1427
 11
-311.018
 21
95.918
  0
LINE
  8
0
 10
-311.018
 20
95.918
 11
-311.154
 21
95.711
  0
LINE
  8
0
 10
-311.154
 20
95.711
 11
-311.32
 21
95.5262
  0
LINE
  8
0
 10
-311.32
 20
95.5262
 11
-311.511
 21
95.3674
  0
LINE
  8
0
 10
-311.511
 20
95.3674
 11
-311.723
 21
95.2381
  0
LINE
  8
0
 10
-311.723
 20
95.2381
 11
-311.951
 21
95.1411
  0
LINE
  8
0
 10
-311.951
 20
95.1411
 11
-312.191
 21
95.0783
  0
LINE
  8
0
 10
-312.191
 20
95.0783
 11
-312.438
 21
95.0511
  0
LINE
  8
0
 10
-312.438
 20
95.0511
 11
-312.686
 21
95.0602
  0
LINE
  8
0
 10
312.191
 20
95.0783
 11
311.951
 21
95.1411
  0
LINE
  8
0
 10
311.951
 20
95.1411
 11
311.723
 21
95.2381
  0
LINE
  8
0
 10
311.723
 20
95.2381
 11
311.511
 21
95.3674
  0
LINE
  8
0
 10
311.511
 20
95.3674
 11
311.32
 21
95.5262
  0
LINE
  8
0
 10
311.32
 20
95.5262
 11
311.154
 21
95.711
  0
LINE
  8
0
 10
311.154
 20
95.711
 11
311.018
 21
95.918
  0
LINE
  8
0
 10
311.018
 20
95.918
 11
310.912
 21
96.1427
  0
LINE
  8
0
 10
310.912
 20
96.1427
 11
310.841
 21
96.3804
  0
LINE
  8
0
 10
310.841
 20
96.3804
 11
310.805
 21
96.6259
  0
LINE
  8
0
 10
310.805
 20
96.6259
 11
310.805
 21
96.8741
  0
LINE
  8
0
 10
310.805
 20
96.8741
 11
310.841
 21
97.1196
  0
LINE
  8
0
 10
310.841
 20
97.1196
 11
310.912
 21
97.3573
  0
LINE
  8
0
 10
310.912
 20
97.3573
 11
311.018
 21
97.582
  0
LINE
  8
0
 10
311.018
 20
97.582
 11
311.154
 21
97.789
  0
LINE
  8
0
 10
311.154
 20
97.789
 11
311.32
 21
97.9738
  0
LINE
  8
0
 10
311.32
 20
97.9738
 11
311.511
 21
98.1326
  0
LINE
  8
0
 10
311.511
 20
98.1326
 11
311.723
 21
98.2619
  0
LINE
  8
0
 10
311.723
 20
98.2619
 11
311.951
 21
98.3589
  0
LINE
  8
0
 10
311.951
 20
98.3589
 11
312.191
 21
98.4217
  0
LINE
  8
0
 10
312.191
 20
98.4217
 11
312.438
 21
98.4489
  0
LINE
  8
0
 10
312.438
 20
98.4489
 11
312.686
 21
98.4398
  0
LINE
  8
0
 10
312.686
 20
98.4398
 11
312.93
 21
98.3947
  0
LINE
  8
0
 10
312.93
 20
98.3947
 11
313.165
 21
98.3146
  0
LINE
  8
0
 10
313.165
 20
98.3146
 11
313.386
 21
98.2011
  0
LINE
  8
0
 10
313.386
 20
98.2011
 11
313.587
 21
98.0567
  0
LINE
  8
0
 10
313.587
 20
98.0567
 11
313.766
 21
97.8844
  0
LINE
  8
0
 10
313.766
 20
97.8844
 11
313.918
 21
97.688
  0
LINE
  8
0
 10
313.918
 20
97.688
 11
314.039
 21
97.4716
  0
LINE
  8
0
 10
314.039
 20
97.4716
 11
314.128
 21
97.2398
  0
LINE
  8
0
 10
314.128
 20
97.2398
 11
314.182
 21
96.9975
  0
LINE
  8
0
 10
314.182
 20
96.9975
 11
314.2
 21
96.75
  0
LINE
  8
0
 10
314.2
 20
96.75
 11
314.182
 21
96.5025
  0
LINE
  8
0
 10
314.182
 20
96.5025
 11
314.128
 21
96.2602
  0
LINE
  8
0
 10
314.128
 20
96.2602
 11
314.039
 21
96.0284
  0
LINE
  8
0
 10
314.039
 20
96.0284
 11
313.918
 21
95.812
  0
LINE
  8
0
 10
313.918
 20
95.812
 11
313.766
 21
95.6156
  0
LINE
  8
0
 10
313.766
 20
95.6156
 11
313.587
 21
95.4433
  0
LINE
  8
0
 10
313.587
 20
95.4433
 11
313.386
 21
95.2989
  0
LINE
  8
0
 10
313.386
 20
95.2989
 11
313.165
 21
95.1854
  0
LINE
  8
0
 10
313.165
 20
95.1854
 11
312.93
 21
95.1053
  0
LINE
  8
0
 10
312.93
 20
95.1053
 11
312.686
 21
95.0602
  0
LINE
  8
0
 10
312.686
 20
95.0602
 11
312.438
 21
95.0511
  0
LINE
  8
0
 10
312.438
 20
95.0511
 11
312.191
 21
95.0783
  0
LINE
  8
0
 10
312.191
 20
-1.67171
 11
311.951
 21
-1.60893
  0
LINE
  8
0
 10
311.951
 20
-1.60893
 11
311.723
 21
-1.51187
  0
LINE
  8
0
 10
311.723
 20
-1.51187
 11
311.511
 21
-1.38258
  0
LINE
  8
0
 10
311.511
 20
-1.38258
 11
311.32
 21
-1.22383
  0
LINE
  8
0
 10
311.32
 20
-1.22383
 11
311.154
 21
-1.03899
  0
LINE
  8
0
 10
311.154
 20
-1.03899
 11
311.018
 21
-0.832001
  0
LINE
  8
0
 10
311.018
 20
-0.832001
 11
310.912
 21
-0.607285
  0
LINE
  8
0
 10
310.912
 20
-0.607285
 11
310.841
 21
-0.369629
  0
LINE
  8
0
 10
310.841
 20
-0.369629
 11
310.805
 21
-0.124084
  0
LINE
  8
0
 10
310.805
 20
-0.124084
 11
310.805
 21
0.124084
  0
LINE
  8
0
 10
310.805
 20
0.124084
 11
310.841
 21
0.369629
  0
LINE
  8
0
 10
310.841
 20
0.369629
 11
310.912
 21
0.607285
  0
LINE
  8
0
 10
310.912
 20
0.607285
 11
311.018
 21
0.832001
  0
LINE
  8
0
 10
311.018
 20
0.832001
 11
311.154
 21
1.03899
  0
LINE
  8
0
 10
311.154
 20
1.03899
 11
311.32
 21
1.22383
  0
LINE
  8
0
 10
311.32
 20
1.22383
 11
311.511
 21
1.38258
  0
LINE
  8
0
 10
311.511
 20
1.38258
 11
311.723
 21
1.51187
  0
LINE
  8
0
 10
311.723
 20
1.51187
 11
311.951
 21
1.60893
  0
LINE
  8
0
 10
311.951
 20
1.60893
 11
312.191
 21
1.67171
  0
LINE
  8
0
 10
312.191
 20
1.67171
 11
312.438
 21
1.69885
  0
LINE
  8
0
 10
312.438
 20
1.69885
 11
312.686
 21
1.68979
  0
LINE
  8
0
 10
312.686
 20
1.68979
 11
312.93
 21
1.64471
  0
LINE
  8
0
 10
312.93
 20
1.64471
 11
313.165
 21
1.56458
  0
LINE
  8
0
 10
313.165
 20
1.56458
 11
313.386
 21
1.4511
  0
LINE
  8
0
 10
313.386
 20
1.4511
 11
313.587
 21
1.30669
  0
LINE
  8
0
 10
313.587
 20
1.30669
 11
313.766
 21
1.13443
  0
LINE
  8
0
 10
313.766
 20
1.13443
 11
313.918
 21
0.938004
  0
LINE
  8
0
 10
313.918
 20
0.938004
 11
314.039
 21
0.721573
  0
LINE
  8
0
 10
314.039
 20
0.721573
 11
314.128
 21
0.489761
  0
LINE
  8
0
 10
314.128
 20
0.489761
 11
314.182
 21
0.247513
  0
LINE
  8
0
 10
314.182
 20
0.247513
 11
314.2
 21
0
  0
LINE
  8
0
 10
314.2
 20
0
 11
314.182
 21
-0.247513
  0
LINE
  8
0
 10
314.182
 20
-0.247513
 11
314.128
 21
-0.489761
  0
LINE
  8
0
 10
314.128
 20
-0.489761
 11
314.039
 21
-0.721573
  0
LINE
  8
0
 10
314.039
 20
-0.721573
 11
313.918
 21
-0.938004
  0
LINE
  8
0
 10
313.918
 20
-0.938004
 11
313.766
 21
-1.13443
  0
LINE
  8
0
 10
313.766
 20
-1.13443
 11
313.587
 21
-1.30669
  0
LINE
  8
0
 10
313.587
 20
-1.30669
 11
313.386
 21
-1.4511
  0
LINE
  8
0
 10
313.386
 20
-1.4511
 11
313.165
 21
-1.56458
  0
LINE
  8
0
 10
313.165
 20
-1.56458
 11
312.93
 21
-1.64471
  0
LINE
  8
0
 10
312.93
 20
-1.64471
 11
312.686
 21
-1.68979
  0
LINE
  8
0
 10
312.686
 20
-1.68979
 11
312.438
 21
-1.69885
  0
LINE
  8
0
 10
312.438
 20
-1.69885
 11
312.191
 21
-1.67171
  0
LINE
  8
0
 10
-312.686
 20
-1.68979
 11
-312.93
 21
-1.64471
  0
LINE
  8
0
 10
-312.93
 20
-1.64471
 11
-313.165
 21
-1.56458
  0
LINE
  8
0
 10
-313.165
 20
-1.56458
 11
-313.386
 21
-1.4511
  0
LINE
  8
0
 10
-313.386
 20
-1.4511
 11
-313.587
 21
-1.30669
  0
LINE
  8
0
 10
-313.587
 20
-1.30669
 11
-313.766
 21
-1.13443
  0
LINE
  8
0
 10
-313.766
 20
-1.13443
 11
-313.918
 21
-0.938004
  0
LINE
  8
0
 10
-313.918
 20
-0.938004
 11
-314.039
 21
-0.721573
  0
LINE
  8
0
 10
-314.039
 20
-0.721573
 11
-314.128
 21
-0.489761
  0
LINE
  8
0
 10
-314.128
 20
-0.489761
 11
-314.182
 21
-0.247513
  0
LINE
  8
0
 10
-314.182
 20
-0.247513
 11
-314.2
 21
0
  0
LINE
  8
0
 10
-314.2
 20
0
 11
-314.182
 21
0.247513
  0
LINE
  8
0
 10
-314.182
 20
0.247513
 11
-314.128
 21
0.489761
  0
LINE
  8
0
 10
-314.128
 20
0.489761
 11
-314.039
 21
0.721573
  0
LINE
  8
0
 10
-314.039
 20
0.721573
 11
-313.918
 21
0.938004
  0
LINE
  8
0
 10
-313.918
 20
0.938004
 11
-313.766
 21
1.13443
  0
LINE
  8
0
 10
-313.766
 20
1.13443
 11
-313.587
 21
1.30669
  0
LINE
  8
0
 10
-313.587
 20
1.30669
 11
-313.386
 21
1.4511
  0
LINE
  8
0
 10
-313.386
 20
1.4511
 11
-313.165
 21
1.56458
  0
LINE
  8
0
 10
-313.165
 20
1.56458
 11
-312.93
 21
1.64471
  0
LINE
  8
0
 10
-312.93
 20
1.64471
 11
-312.686
 21
1.68979
  0
LINE
  8
0
 10
-312.686
 20
1.68979
 11
-312.438
 21
1.69885
  0
LINE
  8
0
 10
-312.438
 20
1.69885
 11
-312.191
 21
1.67171
  0
LINE
  8
0
 10
-312.191
 20
1.67171
 11
-311.951
 21
1.60893
  0
LINE
  8
0
 10
-311.951
 20
1.60893
 11
-311.723
 21
1.51187
  0
LINE
  8
0
 10
-311.723
 20
1.51187
 11
-311.511
 21
1.38258
  0
LINE
  8
0
 10
-311.511
 20
1.38258
 11
-311.32
 21
1.22383
  0
LINE
  8
0
 10
-311.32
 20
1.22383
 11
-311.154
 21
1.03899
  0
LINE
  8
0
 10
-311.154
 20
1.03899
 11
-311.018
 21
0.832001
  0
LINE
  8
0
 10
-311.018
 20
0.832001
 11
-310.912
 21
0.607285
  0
LINE
  8
0
 10
-310.912
 20
0.607285
 11
-310.841
 21
0.369629
  0
LINE
  8
0
 10
-310.841
 20
0.369629
 11
-310.805
 21
0.124084
  0
LINE
  8
0
 10
-310.805
 20
0.124084
 11
-310.805
 21
-0.124084
  0
LINE
  8
0
 10
-310.805
 20
-0.124084
 11
-310.841
 21
-0.369629
  0
LINE
  8
0
 10
-310.841
 20
-0.369629
 11
-310.912
 21
-0.607285
  0
LINE
  8
0
 10
-310.912
 20
-0.607285
 11
-311.018
 21
-0.832001
  0
LINE
  8
0
 10
-311.018
 20
-0.832001
 11
-311.154
 21
-1.03899
  0
LINE
  8
0
 10
-311.154
 20
-1.03899
 11
-311.32
 21
-1.22383
  0
LINE
  8
0
 10
-311.32
 20
-1.22383
 11
-311.511
 21
-1.38258
  0
LINE
  8
0
 10
-311.511
 20
-1.38258
 11
-311.723
 21
-1.51187
  0
LINE
  8
0
 10
-311.723
 20
-1.51187
 11
-311.951
 21
-1.60893
  0
LINE
  8
0
 10
-311.951
 20
-1.60893
 11
-312.191
 21
-1.67171
  0
LINE
  8
0
 10
-312.191
 20
-1.67171
 11
-312.438
 21
-1.69885
  0
LINE
  8
0
 10
-312.438
 20
-1.69885
 11
-312.686
 21
-1.68979
  0
LINE
  8
0
 10
-312.686
 20
-98.4398
 11
-312.93
 21
-98.3947
  0
LINE
  8
0
 10
-312.93
 20
-98.3947
 11
-313.165
 21
-98.3146
  0
LINE
  8
0
 10
-313.165
 20
-98.3146
 11
-313.386
 21
-98.2011
  0
LINE
  8
0
 10
-313.386
 20
-98.2011
 11
-313.587
 21
-98.0567
  0
LINE
  8
0
 10
-313.587
 20
-98.0567
 11
-313.766
 21
-97.8844
  0
LINE
  8
0
 10
-313.766
 20
-97.8844
 11
-313.918
 21
-97.688
  0
LINE
  8
0
 10
-313.918
 20
-97.688
 11
-314.039
 21
-97.4716
  0
LINE
  8
0
 10
-314.039
 20
-97.4716
 11
-314.128
 21
-97.2398
  0
LINE
  8
0
 10
-314.128
 20
-97.2398
 11
-314.182
 21
-96.9975
  0
LINE
  8
0
 10
-314.182
 20
-96.9975
 11
-314.2
 21
-96.75
  0
LINE
  8
0
 10
-314.2
 20
-96.75
 11
-314.182
 21
-96.5025
  0
LINE
  8
0
 10
-314.182
 20
-96.5025
 11
-314.128
 21
-96.2602
  0
LINE
  8
0
 10
-314.128
 20
-96.2602
 11
-314.039
 21
-96.0284
  0
LINE
  8
0
 10
-314.039
 20
-96.0284
 11
-313.918
 21
-95.812
  0
LINE
  8
0
 10
-313.918
 20
-95.812
 11
-313.766
 21
-95.6156
  0
LINE
  8
0
 10
-313.766
 20
-95.6156
 11
-313.587
 21
-95.4433
  0
LINE
  8
0
 10
-313.587
 20
-95.4433
 11
-313.386
 21
-95.2989
  0
LINE
  8
0
 10
-313.386
 20
-95.2989
 11
-313.165
 21
-95.1854
  0
LINE
  8
0
 10
-313.165
 20
-95.1854
 11
-312.93
 21
-95.1053
  0
LINE
  8
0
 10
-312.93
 20
-95.1053
 11
-312.686
 21
-95.0602
  0
LINE
  8
0
 10
-312.686
 20
-95.0602
 11
-312.438
 21
-95.0511
  0
LINE
  8
0
 10
-312.438
 20
-95.0511
 11
-312.191
 21
-95.0783
  0
LINE
  8
0
 10
-312.191
 20
-95.0783
 11
-311.951
 21
-95.1411
  0
LINE
  8
0
 10
-311.951
 20
-95.1411
 11
-311.723
 21
-95.2381
  0
LINE
  8
0
 10
-311.723
 20
-95.2381
 11
-311.511
 21
-95.3674
  0
LINE
  8
0
 10
-311.511
 20
-95.3674
 11
-311.32
 21
-95.5262
  0
LINE
  8
0
 10
-311.32
 20
-95.5262
 11
-311.154
 21
-95.711
  0
LINE
  8
0
 10
-311.154
 20
-95.711
 11
-311.018
 21
-95.918
  0
LINE
  8
0
 10
-311.018
 20
-95.918
 11
-310.912
 21
-96.1427
  0
LINE
  8
0
 10
-310.912
 20
-96.1427
 11
-310.841
 21
-96.3804
  0
LINE
  8
0
 10
-310.841
 20
-96.3804
 11
-310.805
 21
-96.6259
  0
LINE
  8
0
 10
-310.805
 20
-96.6259
 11
-310.805
 21
-96.8741
  0
LINE
  8
0
 10
-310.805
 20
-96.8741
 11
-310.841
 21
-97.1196
  0
LINE
  8
0
 10
-310.841
 20
-97.1196
 11
-310.912
 21
-97.3573
  0
LINE
  8
0
 10
-310.912
 20
-97.3573
 11
-311.018
 21
-97.582
  0
LINE
  8
0
 10
-311.018
 20
-97.582
 11
-311.154
 21
-97.789
  0
LINE
  8
0
 10
-311.154
 20
-97.789
 11
-311.32
 21
-97.9738
  0
LINE
  8
0
 10
-311.32
 20
-97.9738
 11
-311.511
 21
-98.1326
  0
LINE
  8
0
 10
-311.511
 20
-98.1326
 11
-311.723
 21
-98.2619
  0
LINE
  8
0
 10
-311.723
 20
-98.2619
 11
-311.951
 21
-98.3589
  0
LINE
  8
0
 10
-311.951
 20
-98.3589
 11
-312.191
 21
-98.4217
  0
LINE
  8
0
 10
-312.191
 20
-98.4217
 11
-312.438
 21
-98.4489
  0
LINE
  8
0
 10
-312.438
 20
-98.4489
 11
-312.686
 21
-98.4398
  0
LINE
  8
0
 10
312.191
 20
-98.4217
 11
311.951
 21
-98.3589
  0
LINE
  8
0
 10
311.951
 20
-98.3589
 11
311.723
 21
-98.2619
  0
LINE
  8
0
 10
311.723
 20
-98.2619
 11
311.511
 21
-98.1326
  0
LINE
  8
0
 10
311.511
 20
-98.1326
 11
311.32
 21
-97.9738
  0
LINE
  8
0
 10
311.32
 20
-97.9738
 11
311.154
 21
-97.789
  0
LINE
  8
0
 10
311.154
 20
-97.789
 11
311.018
 21
-97.582
  0
LINE
  8
0
 10
311.018
 20
-97.582
 11
310.912
 21
-97.3573
  0
LINE
  8
0
 10
310.912
 20
-97.3573
 11
310.841
 21
-97.1196
  0
LINE
  8
0
 10
310.841
 20
-97.1196
 11
310.805
 21
-96.8741
  0
LINE
  8
0
 10
310.805
 20
-96.8741
 11
310.805
 21
-96.6259
  0
LINE
  8
0
 10
310.805
 20
-96.6259
 11
310.841
 21
-96.3804
  0
LINE
  8
0
 10
310.841
 20
-96.3804
 11
310.912
 21
-96.1427
  0
LINE
  8
0
 10
310.912
 20
-96.1427
 11
311.018
 21
-95.918
  0
LINE
  8
0
 10
311.018
 20
-95.918
 11
311.154
 21
-95.711
  0
LINE
  8
0
 10
311.154
 20
-95.711
 11
311.32
 21
-95.5262
  0
LINE
  8
0
 10
311.32
 20
-95.5262
 11
311.511
 21
-95.3674
  0
LINE
  8
0
 10
311.511
 20
-95.3674
 11
311.723
 21
-95.2381
  0
LINE
  8
0
 10
311.723
 20
-95.2381
 11
311.951
 21
-95.1411
  0
LINE
  8
0
 10
311.951
 20
-95.1411
 11
312.191
 21
-95.0783
  0
LINE
  8
0
 10
312.191
 20
-95.0783
 11
312.438
 21
-95.0511
  0
LINE
  8
0
 10
312.438
 20
-95.0511
 11
312.686
 21
-95.0602
  0
LINE
  8
0
 10
312.686
 20
-95.0602
 11
312.93
 21
-95.1053
  0
LINE
  8
0
 10
312.93
 20
-95.1053
 11
313.165
 21
-95.1854
  0
LINE
  8
0
 10
313.165
 20
-95.1854
 11
313.386
 21
-95.2989
  0
LINE
  8
0
 10
313.386
 20
-95.2989
 11
313.587
 21
-95.4433
  0
LINE
  8
0
 10
313.587
 20
-95.4433
 11
313.766
 21
-95.6156
  0
LINE
  8
0
 10
313.766
 20
-95.6156
 11
313.918
 21
-95.812
  0
LINE
  8
0
 10
313.918
 20
-95.812
 11
314.039
 21
-96.0284
  0
LINE
  8
0
 10
314.039
 20
-96.0284
 11
314.128
 21
-96.2602
  0
LINE
  8
0
 10
314.128
 20
-96.2602
 11
314.182
 21
-96.5025
  0
LINE
  8
0
 10
314.182
 20
-96.5025
 11
314.2
 21
-96.75
  0
LINE
  8
0
 10
314.2
 20
-96.75
 11
314.182
 21
-96.9975
  0
LINE
  8
0
 10
314.182
 20
-96.9975
 11
314.128
 21
-97.2398
  0
LINE
  8
0
 10
314.128
 20
-97.2398
 11
314.039
 21
-97.4716
  0
LINE
  8
0
 10
314.039
 20
-97.4716
 11
313.918
 21
-97.688
  0
LINE
  8
0
 10
313.918
 20
-97.688
 11
313.766
 21
-97.8844
  0
LINE
  8
0
 10
313.766
 20
-97.8844
 11
313.587
 21
-98.0567
  0
LINE
  8
0
 10
313.587
 20
-98.0567
 11
313.386
 21
-98.2011
  0
LINE
  8
0
 10
313.386
 20
-98.2011
 11
313.165
 21
-98.3146
  0
LINE
  8
0
 10
313.165
 20
-98.3146
 11
312.93
 21
-98.3947
  0
LINE
  8
0
 10
312.93
 20
-98.3947
 11
312.686
 21
-98.4398
  0
LINE
  8
0
 10
312.686
 20
-98.4398
 11
312.438
 21
-98.4489
  0
LINE
  8
0
 10
312.438
 20
-98.4489
 11
312.191
 21
-98.4217
  0
LINE
  8
0
 10
-312.686
 20
-195.19
 11
-312.93
 21
-195.145
  0
LINE
  8
0
 10
-312.93
 20
-195.145
 11
-313.165
 21
-195.065
  0
LINE
  8
0
 10
-313.165
 20
-195.065
 11
-313.386
 21
-194.951
  0
LINE
  8
0
 10
-313.386
 20
-194.951
 11
-313.587
 21
-194.807
  0
LINE
  8
0
 10
-313.587
 20
-194.807
 11
-313.766
 21
-194.634
  0
LINE
  8
0
 10
-313.766
 20
-194.634
 11
-313.918
 21
-194.438
  0
LINE
  8
0
 10
-313.918
 20
-194.438
 11
-314.039
 21
-194.222
  0
LINE
  8
0
 10
-314.039
 20
-194.222
 11
-314.128
 21
-193.99
  0
LINE
  8
0
 10
-314.128
 20
-193.99
 11
-314.182
 21
-193.748
  0
LINE
  8
0
 10
-314.182
 20
-193.748
 11
-314.2
 21
-193.5
  0
LINE
  8
0
 10
-314.2
 20
-193.5
 11
-314.182
 21
-193.252
  0
LINE
  8
0
 10
-314.182
 20
-193.252
 11
-314.128
 21
-193.01
  0
LINE
  8
0
 10
-314.128
 20
-193.01
 11
-314.039
 21
-192.778
  0
LINE
  8
0
 10
-314.039
 20
-192.778
 11
-313.918
 21
-192.562
  0
LINE
  8
0
 10
-313.918
 20
-192.562
 11
-313.766
 21
-192.366
  0
LINE
  8
0
 10
-313.766
 20
-192.366
 11
-313.587
 21
-192.193
  0
LINE
  8
0
 10
-313.587
 20
-192.193
 11
-313.386
 21
-192.049
  0
LINE
  8
0
 10
-313.386
 20
-192.049
 11
-313.165
 21
-191.935
  0
LINE
  8
0
 10
-313.165
 20
-191.935
 11
-312.93
 21
-191.855
  0
LINE
  8
0
 10
-312.93
 20
-191.855
 11
-312.686
 21
-191.81
  0
LINE
  8
0
 10
-312.686
 20
-191.81
 11
-312.438
 21
-191.801
  0
LINE
  8
0
 10
-312.438
 20
-191.801
 11
-312.191
 21
-191.828
  0
LINE
  8
0
 10
-312.191
 20
-191.828
 11
-311.951
 21
-191.891
  0
LINE
  8
0
 10
-311.951
 20
-191.891
 11
-311.723
 21
-191.988
  0
LINE
  8
0
 10
-311.723
 20
-191.988
 11
-311.511
 21
-192.117
  0
LINE
  8
0
 10
-311.511
 20
-192.117
 11
-311.32
 21
-192.276
  0
LINE
  8
0
 10
-311.32
 20
-192.276
 11
-311.154
 21
-192.461
  0
LINE
  8
0
 10
-311.154
 20
-192.461
 11
-311.018
 21
-192.668
  0
LINE
  8
0
 10
-311.018
 20
-192.668
 11
-310.912
 21
-192.893
  0
LINE
  8
0
 10
-310.912
 20
-192.893
 11
-310.841
 21
-193.13
  0
LINE
  8
0
 10
-310.841
 20
-193.13
 11
-310.805
 21
-193.376
  0
LINE
  8
0
 10
-310.805
 20
-193.376
 11
-310.805
 21
-193.624
  0
LINE
  8
0
 10
-310.805
 20
-193.624
 11
-310.841
 21
-193.87
  0
LINE
  8
0
 10
-310.841
 20
-193.87
 11
-310.912
 21
-194.107
  0
LINE
  8
0
 10
-310.912
 20
-194.107
 11
-311.018
 21
-194.332
  0
LINE
  8
0
 10
-311.018
 20
-194.332
 11
-311.154
 21
-194.539
  0
LINE
  8
0
 10
-311.154
 20
-194.539
 11
-311.32
 21
-194.724
  0
LINE
  8
0
 10
-311.32
 20
-194.724
 11
-311.511
 21
-194.883
  0
LINE
  8
0
 10
-311.511
 20
-194.883
 11
-311.723
 21
-195.012
  0
LINE
  8
0
 10
-311.723
 20
-195.012
 11
-311.951
 21
-195.109
  0
LINE
  8
0
 10
-311.951
 20
-195.109
 11
-312.191
 21
-195.172
  0
LINE
  8
0
 10
-312.191
 20
-195.172
 11
-312.438
 21
-195.199
  0
LINE
  8
0
 10
-312.438
 20
-195.199
 11
-312.686
 21
-195.19
  0
LINE
  8
0
 10
312.191
 20
-195.172
 11
311.951
 21
-195.109
  0
LINE
  8
0
 10
311.951
 20
-195.109
 11
311.723
 21
-195.012
  0
LINE
  8
0
 10
311.723
 20
-195.012
 11
311.511
 21
-194.883
  0
LINE
  8
0
 10
311.511
 20
-194.883
 11
311.32
 21
-194.724
  0
LINE
  8
0
 10
311.32
 20
-194.724
 11
311.154
 21
-194.539
  0
LINE
  8
0
 10
311.154
 20
-194.539
 11
311.018
 21
-194.332
  0
LINE
  8
0
 10
311.018
 20
-194.332
 11
310.912
 21
-194.107
  0
LINE
  8
0
 10
310.912
 20
-194.107
 11
310.841
 21
-193.87
  0
LINE
  8
0
 10
310.841
 20
-193.87
 11
310.805
 21
-193.624
  0
LINE
  8
0
 10
310.805
 20
-193.624
 11
310.805
 21
-193.376
  0
LINE
  8
0
 10
310.805
 20
-193.376
 11
310.841
 21
-193.13
  0
LINE
  8
0
 10
310.841
 20
-193.13
 11
310.912
 21
-192.893
  0
LINE
  8
0
 10
310.912
 20
-192.893
 11
311.018
 21
-192.668
  0
LINE
  8
0
 10
311.018
 20
-192.668
 11
311.154
 21
-192.461
  0
LINE
  8
0
 10
311.154
 20
-192.461
 11
311.32
 21
-192.276
  0
LINE
  8
0
 10
311.32
 20
-192.276
 11
311.511
 21
-192.117
  0
LINE
  8
0
 10
311.511
 20
-192.117
 11
311.723
 21
-191.988
  0
LINE
  8
0
 10
311.723
 20
-191.988
 11
311.951
 21
-191.891
  0
LINE
  8
0
 10
311.951
 20
-191.891
 11
312.191
 21
-191.828
  0
LINE
  8
0
 10
312.191
 20
-191.828
 11
312.438
 21
-191.801
  0
LINE
  8
0
 10
312.438
 20
-191.801
 11
312.686
 21
-191.81
  0
LINE
  8
0
 10
312.686
 20
-191.81
 11
312.93
 21
-191.855
  0
LINE
  8
0
 10
312.93
 20
-191.855
 11
313.165
 21
-191.935
  0
LINE
  8
0
 10
313.165
 20
-191.935
 11
313.386
 21
-192.049
  0
LINE
  8
0
 10
313.386
 20
-192.049
 11
313.587
 21
-192.193
  0
LINE
  8
0
 10
313.587
 20
-192.193
 11
313.766
 21
-192.366
  0
LINE
  8
0
 10
313.766
 20
-192.366
 11
313.918
 21
-192.562
  0
LINE
  8
0
 10
313.918
 20
-192.562
 11
314.039
 21
-192.778
  0
LINE
  8
0
 10
314.039
 20
-192.778
 11
314.128
 21
-193.01
  0
LINE
  8
0
 10
314.128
 20
-193.01
 11
314.182
 21
-193.252
  0
LINE
  8
0
 10
314.182
 20
-193.252
 11
314.2
 21
-193.5
  0
LINE
  8
0
 10
314.2
 20
-193.5
 11
314.182
 21
-193.748
  0
LINE
  8
0
 10
314.182
 20
-193.748
 11
314.128
 21
-193.99
  0
LINE
  8
0
 10
314.128
 20
-193.99
 11
314.039
 21
-194.222
  0
LINE
  8
0
 10
314.039
 20
-194.222
 11
313.918
 21
-194.438
  0
LINE
  8
0
 10
313.918
 20
-194.438
 11
313.766
 21
-194.634
  0
LINE
  8
0
 10
313.766
 20
-194.634
 11
313.587
 21
-194.807
  0
LINE
  8
0
 10
313.587
 20
-194.807
 11
313.386
 21
-194.951
  0
LINE
  8
0
 10
313.386
 20
-194.951
 11
313.165
 21
-195.065
  0
LINE
  8
0
 10
313.165
 20
-195.065
 11
312.93
 21
-195.145
  0
LINE
  8
0
 10
312.93
 20
-195.145
 11
312.686
 21
-195.19
  0
LINE
  8
0
 10
312.686
 20
-195.19
 11
312.438
 21
-195.199
  0
LINE
  8
0
 10
312.438
 20
-195.199
 11
312.191
 21
-195.172
  0
LINE
  8
0
 10
-312.892
 20
-239.729
 11
-313.28
 21
-239.668
  0
LINE
  8
0
 10
-313.28
 20
-239.668
 11
-313.659
 21
-239.566
  0
LINE
  8
0
 10
-313.659
 20
-239.566
 11
-314.025
 21
-239.426
  0
LINE
  8
0
 10
-314.025
 20
-239.426
 11
-314.375
 21
-239.248
  0
LINE
  8
0
 10
-314.375
 20
-239.248
 11
-314.704
 21
-239.034
  0
LINE
  8
0
 10
-314.704
 20
-239.034
 11
-315.009
 21
-238.787
  0
LINE
  8
0
 10
-315.009
 20
-238.787
 11
-315.287
 21
-238.509
  0
LINE
  8
0
 10
-315.287
 20
-238.509
 11
-315.534
 21
-238.204
  0
LINE
  8
0
 10
-315.534
 20
-238.204
 11
-315.748
 21
-237.875
  0
LINE
  8
0
 10
-315.748
 20
-237.875
 11
-315.926
 21
-237.525
  0
LINE
  8
0
 10
-315.926
 20
-237.525
 11
-316.066
 21
-237.159
  0
LINE
  8
0
 10
-316.066
 20
-237.159
 11
-316.168
 21
-236.78
  0
LINE
  8
0
 10
-316.168
 20
-236.78
 11
-316.229
 21
-236.392
  0
LINE
  8
0
 10
-316.229
 20
-236.392
 11
-316.25
 21
-236
  0
LINE
  8
0
 10
-316.25
 20
-236
 11
-316.229
 21
-235.608
  0
LINE
  8
0
 10
-316.229
 20
-235.608
 11
-316.168
 21
-235.22
  0
LINE
  8
0
 10
-316.168
 20
-235.22
 11
-316.066
 21
-234.841
  0
LINE
  8
0
 10
-316.066
 20
-234.841
 11
-315.926
 21
-234.475
  0
LINE
  8
0
 10
-315.926
 20
-234.475
 11
-315.748
 21
-234.125
  0
LINE
  8
0
 10
-315.748
 20
-234.125
 11
-315.534
 21
-233.796
  0
LINE
  8
0
 10
-315.534
 20
-233.796
 11
-315.287
 21
-233.491
  0
LINE
  8
0
 10
-315.287
 20
-233.491
 11
-315.009
 21
-233.213
  0
LINE
  8
0
 10
-315.009
 20
-233.213
 11
-314.704
 21
-232.966
  0
LINE
  8
0
 10
-314.704
 20
-232.966
 11
-314.375
 21
-232.752
  0
LINE
  8
0
 10
-314.375
 20
-232.752
 11
-314.025
 21
-232.574
  0
LINE
  8
0
 10
-314.025
 20
-232.574
 11
-313.659
 21
-232.434
  0
LINE
  8
0
 10
-313.659
 20
-232.434
 11
-313.28
 21
-232.332
  0
LINE
  8
0
 10
-313.28
 20
-232.332
 11
-312.892
 21
-232.271
  0
LINE
  8
0
 10
-312.892
 20
-232.271
 11
-312.5
 21
-232.25
  0
LINE
  8
0
 10
-312.5
 20
-232.25
 11
-312.108
 21
-232.271
  0
LINE
  8
0
 10
-312.108
 20
-232.271
 11
-311.72
 21
-232.332
  0
LINE
  8
0
 10
-311.72
 20
-232.332
 11
-311.341
 21
-232.434
  0
LINE
  8
0
 10
-311.341
 20
-232.434
 11
-310.975
 21
-232.574
  0
LINE
  8
0
 10
-310.975
 20
-232.574
 11
-310.625
 21
-232.752
  0
LINE
  8
0
 10
-310.625
 20
-232.752
 11
-310.296
 21
-232.966
  0
LINE
  8
0
 10
-310.296
 20
-232.966
 11
-309.991
 21
-233.213
  0
LINE
  8
0
 10
-309.991
 20
-233.213
 11
-309.713
 21
-233.491
  0
LINE
  8
0
 10
-309.713
 20
-233.491
 11
-309.466
 21
-233.796
  0
LINE
  8
0
 10
-309.466
 20
-233.796
 11
-309.252
 21
-234.125
  0
LINE
  8
0
 10
-309.252
 20
-234.125
 11
-309.074
 21
-234.475
  0
LINE
  8
0
 10
-309.074
 20
-234.475
 11
-308.934
 21
-234.841
  0
LINE
  8
0
 10
-308.934
 20
-234.841
 11
-308.832
 21
-235.22
  0
LINE
  8
0
 10
-308.832
 20
-235.22
 11
-308.771
 21
-235.608
  0
LINE
  8
0
 10
-308.771
 20
-235.608
 11
-308.75
 21
-236
  0
LINE
  8
0
 10
-308.75
 20
-236
 11
-308.771
 21
-236.392
  0
LINE
  8
0
 10
-308.771
 20
-236.392
 11
-308.832
 21
-236.78
  0
LINE
  8
0
 10
-308.832
 20
-236.78
 11
-308.934
 21
-237.159
  0
LINE
  8
0
 10
-308.934
 20
-237.159
 11
-309.074
 21
-237.525
  0
LINE
  8
0
 10
-309.074
 20
-237.525
 11
-309.252
 21
-237.875
  0
LINE
  8
0
 10
-309.252
 20
-237.875
 11
-309.466
 21
-238.204
  0
LINE
  8
0
 10
-309.466
 20
-238.204
 11
-309.713
 21
-238.509
  0
LINE
  8
0
 10
-309.713
 20
-238.509
 11
-309.991
 21
-238.787
  0
LINE
  8
0
 10
-309.991
 20
-238.787
 11
-310.296
 21
-239.034
  0
LINE
  8
0
 10
-310.296
 20
-239.034
 11
-310.625
 21
-239.248
  0
LINE
  8
0
 10
-310.625
 20
-239.248
 11
-310.975
 21
-239.426
  0
LINE
  8
0
 10
-310.975
 20
-239.426
 11
-311.341
 21
-239.566
  0
LINE
  8
0
 10
-311.341
 20
-239.566
 11
-311.72
 21
-239.668
  0
LINE
  8
0
 10
-311.72
 20
-239.668
 11
-312.108
 21
-239.729
  0
LINE
  8
0
 10
-312.108
 20
-239.729
 11
-312.5
 21
-239.75
  0
LINE
  8
0
 10
-312.5
 20
-239.75
 11
-312.892
 21
-239.729
  0
LINE
  8
0
 10
312.108
 20
-239.729
 11
311.72
 21
-239.668
  0
LINE
  8
0
 10
311.72
 20
-239.668
 11
311.341
 21
-239.566
  0
LINE
  8
0
 10
311.341
 20
-239.566
 11
310.975
 21
-239.426
  0
LINE
  8
0
 10
310.975
 20
-239.426
 11
310.625
 21
-239.248
  0
LINE
  8
0
 10
310.625
 20
-239.248
 11
310.296
 21
-239.034
  0
LINE
  8
0
 10
310.296
 20
-239.034
 11
309.991
 21
-238.787
  0
LINE
  8
0
 10
309.991
 20
-238.787
 11
309.713
 21
-238.509
  0
LINE
  8
0
 10
309.713
 20
-238.509
 11
309.466
 21
-238.204
  0
LINE
  8
0
 10
309.466
 20
-238.204
 11
309.252
 21
-237.875
  0
LINE
  8
0
 10
309.252
 20
-237.875
 11
309.074
 21
-237.525
  0
LINE
  8
0
 10
309.074
 20
-237.525
 11
308.934
 21
-237.159
  0
LINE
  8
0
 10
308.934
 20
-237.159
 11
308.832
 21
-236.78
  0
LINE
  8
0
 10
308.832
 20
-236.78
 11
308.771
 21
-236.392
  0
LINE
  8
0
 10
308.771
 20
-236.392
 11
308.75
 21
-236
  0
LINE
  8
0
 10
308.75
 20
-236
 11
308.771
 21
-235.608
  0
LINE
  8
0
 10
308.771
 20
-235.608
 11
308.832
 21
-235.22
  0
LINE
  8
0
 10
308.832
 20
-235.22
 11
308.934
 21
-234.841
  0
LINE
  8
0
 10
308.934
 20
-234.841
 11
309.074
 21
-234.475
  0
LINE
  8
0
 10
309.074
 20
-234.475
 11
309.252
 21
-234.125
  0
LINE
  8
0
 10
309.252
 20
-234.125
 11
309.466
 21
-233.796
  0
LINE
  8
0
 10
309.466
 20
-233.796
 11
309.713
 21
-233.491
  0
LINE
  8
0
 10
309.713
 20
-233.491
 11
309.991
 21
-233.213
  0
LINE
  8
0
 10
309.991
 20
-233.213
 11
310.296
 21
-232.966
  0
LINE
  8
0
 10
310.296
 20
-232.966
 11
310.625
 21
-232.752
  0
LINE
  8
0
 10
310.625
 20
-232.752
 11
310.975
 21
-232.574
  0
LINE
  8
0
 10
310.975
 20
-232.574
 11
311.341
 21
-232.434
  0
LINE
  8
0
 10
311.341
 20
-232.434
 11
311.72
 21
-232.332
  0
LINE
  8
0
 10
311.72
 20
-232.332
 11
312.108
 21
-232.271
  0
LINE
  8
0
 10
312.108
 20
-232.271
 11
312.5
 21
-232.25
  0
LINE
  8
0
 10
312.5
 20
-232.25
 11
312.892
 21
-232.271
  0
LINE
  8
0
 10
312.892
 20
-232.271
 11
313.28
 21
-232.332
  0
LINE
  8
0
 10
313.28
 20
-232.332
 11
313.659
 21
-232.434
  0
LINE
  8
0
 10
313.659
 20
-232.434
 11
314.025
 21
-232.574
  0
LINE
  8
0
 10
314.025
 20
-232.574
 11
314.375
 21
-232.752
  0
LINE
  8
0
 10
314.375
 20
-232.752
 11
314.704
 21
-232.966
  0
LINE
  8
0
 10
314.704
 20
-232.966
 11
315.009
 21
-233.213
  0
LINE
  8
0
 10
315.009
 20
-233.213
 11
315.287
 21
-233.491
  0
LINE
  8
0
 10
315.287
 20
-233.491
 11
315.534
 21
-233.796
  0
LINE
  8
0
 10
315.534
 20
-233.796
 11
315.748
 21
-234.125
  0
LINE
  8
0
 10
315.748
 20
-234.125
 11
315.926
 21
-234.475
  0
LINE
  8
0
 10
315.926
 20
-234.475
 11
316.066
 21
-234.841
  0
LINE
  8
0
 10
316.066
 20
-234.841
 11
316.168
 21
-235.22
  0
LINE
  8
0
 10
316.168
 20
-235.22
 11
316.229
 21
-235.608
  0
LINE
  8
0
 10
316.229
 20
-235.608
 11
316.25
 21
-236
  0
LINE
  8
0
 10
316.25
 20
-236
 11
316.229
 21
-236.392
  0
LINE
  8
0
 10
316.229
 20
-236.392
 11
316.168
 21
-236.78
  0
LINE
  8
0
 10
316.168
 20
-236.78
 11
316.066
 21
-237.159
  0
LINE
  8
0
 10
316.066
 20
-237.159
 11
315.926
 21
-237.525
  0
LINE
  8
0
 10
315.926
 20
-237.525
 11
315.748
 21
-237.875
  0
LINE
  8
0
 10
315.748
 20
-237.875
 11
315.534
 21
-238.204
  0
LINE
  8
0
 10
315.534
 20
-238.204
 11
315.287
 21
-238.509
  0
LINE
  8
0
 10
315.287
 20
-238.509
 11
315.009
 21
-238.787
  0
LINE
  8
0
 10
315.009
 20
-238.787
 11
314.704
 21
-239.034
  0
LINE
  8
0
 10
314.704
 20
-239.034
 11
314.375
 21
-239.248
  0
LINE
  8
0
 10
314.375
 20
-239.248
 11
314.025
 21
-239.426
  0
LINE
  8
0
 10
314.025
 20
-239.426
 11
313.659
 21
-239.566
  0
LINE
  8
0
 10
313.659
 20
-239.566
 11
313.28
 21
-239.668
  0
LINE
  8
0
 10
313.28
 20
-239.668
 11
312.892
 21
-239.729
  0
LINE
  8
0
 10
312.892
 20
-239.729
 11
312.5
 21
-239.75
  0
LINE
  8
0
 10
312.5
 20
-239.75
 11
312.108
 21
-239.729
  0
ENDSEC
  0
SECTION
  2
OBJECTS
  0
DICTIONARY
  0
ENDSEC
  0
EOF
