  0
SECTION
  2
BLOCKS
  0
ENDSEC
  0
SECTION
  2
ENTITIES
  0
LINE
  8
0
 10
315.398
 20
-92.3476
 11
315.915
 21
-92.2657
  0
LINE
  8
0
 10
315.915
 20
-92.2657
 11
316.42
 21
-92.1303
  0
LINE
  8
0
 10
316.42
 20
-92.1303
 11
316.909
 21
-91.9427
  0
LINE
  8
0
 10
316.909
 20
-91.9427
 11
317.375
 21
-91.7051
  0
LINE
  8
0
 10
317.375
 20
-91.7051
 11
317.814
 21
-91.4201
  0
LINE
  8
0
 10
317.814
 20
-91.4201
 11
318.221
 21
-91.0907
  0
LINE
  8
0
 10
318.221
 20
-91.0907
 11
318.591
 21
-90.7207
  0
LINE
  8
0
 10
318.591
 20
-90.7207
 11
318.92
 21
-90.3139
  0
LINE
  8
0
 10
318.92
 20
-90.3139
 11
319.205
 21
-89.875
  0
LINE
  8
0
 10
319.205
 20
-89.875
 11
319.443
 21
-89.4087
  0
LINE
  8
0
 10
319.443
 20
-89.4087
 11
319.63
 21
-88.9201
  0
LINE
  8
0
 10
319.63
 20
-88.9201
 11
319.766
 21
-88.4146
  0
LINE
  8
0
 10
319.766
 20
-88.4146
 11
319.848
 21
-87.8976
  0
LINE
  8
0
 10
319.848
 20
-87.8976
 11
319.875
 21
-87.375
  0
LINE
  8
0
 10
319.875
 20
-87.375
 11
319.875
 21
87.375
  0
LINE
  8
0
 10
319.875
 20
87.375
 11
319.848
 21
87.8976
  0
LINE
  8
0
 10
319.848
 20
87.8976
 11
319.766
 21
88.4146
  0
LINE
  8
0
 10
319.766
 20
88.4146
 11
319.63
 21
88.9201
  0
LINE
  8
0
 10
319.63
 20
88.9201
 11
319.443
 21
89.4087
  0
LINE
  8
0
 10
319.443
 20
89.4087
 11
319.205
 21
89.875
  0
LINE
  8
0
 10
319.205
 20
89.875
 11
318.92
 21
90.3139
  0
LINE
  8
0
 10
318.92
 20
90.3139
 11
318.591
 21
90.7207
  0
LINE
  8
0
 10
318.591
 20
90.7207
 11
318.221
 21
91.0907
  0
LINE
  8
0
 10
318.221
 20
91.0907
 11
317.814
 21
91.4201
  0
LINE
  8
0
 10
317.814
 20
91.4201
 11
317.375
 21
91.7051
  0
LINE
  8
0
 10
317.375
 20
91.7051
 11
316.909
 21
91.9427
  0
LINE
  8
0
 10
316.909
 20
91.9427
 11
316.42
 21
92.1303
  0
LINE
  8
0
 10
316.42
 20
92.1303
 11
315.915
 21
92.2657
  0
LINE
  8
0
 10
315.915
 20
92.2657
 11
315.398
 21
92.3476
  0
LINE
  8
0
 10
315.398
 20
92.3476
 11
314.875
 21
92.375
  0
LINE
  8
0
 10
314.875
 20
92.375
 11
-314.875
 21
92.375
  0
LINE
  8
0
 10
-314.875
 20
92.375
 11
-315.398
 21
92.3476
  0
LINE
  8
0
 10
-315.398
 20
92.3476
 11
-315.915
 21
92.2657
  0
LINE
  8
0
 10
-315.915
 20
92.2657
 11
-316.42
 21
92.1303
  0
LINE
  8
0
 10
-316.42
 20
92.1303
 11
-316.909
 21
91.9427
  0
LINE
  8
0
 10
-316.909
 20
91.9427
 11
-317.375
 21
91.7051
  0
LINE
  8
0
 10
-317.375
 20
91.7051
 11
-317.814
 21
91.4201
  0
LINE
  8
0
 10
-317.814
 20
91.4201
 11
-318.221
 21
91.0907
  0
LINE
  8
0
 10
-318.221
 20
91.0907
 11
-318.591
 21
90.7207
  0
LINE
  8
0
 10
-318.591
 20
90.7207
 11
-318.92
 21
90.3139
  0
LINE
  8
0
 10
-318.92
 20
90.3139
 11
-319.205
 21
89.875
  0
LINE
  8
0
 10
-319.205
 20
89.875
 11
-319.443
 21
89.4087
  0
LINE
  8
0
 10
-319.443
 20
89.4087
 11
-319.63
 21
88.9201
  0
LINE
  8
0
 10
-319.63
 20
88.9201
 11
-319.766
 21
88.4146
  0
LINE
  8
0
 10
-319.766
 20
88.4146
 11
-319.848
 21
87.8976
  0
LINE
  8
0
 10
-319.848
 20
87.8976
 11
-319.875
 21
87.375
  0
LINE
  8
0
 10
-319.875
 20
87.375
 11
-319.875
 21
-87.375
  0
LINE
  8
0
 10
-319.875
 20
-87.375
 11
-319.848
 21
-87.8976
  0
LINE
  8
0
 10
-319.848
 20
-87.8976
 11
-319.766
 21
-88.4146
  0
LINE
  8
0
 10
-319.766
 20
-88.4146
 11
-319.63
 21
-88.9201
  0
LINE
  8
0
 10
-319.63
 20
-88.9201
 11
-319.443
 21
-89.4087
  0
LINE
  8
0
 10
-319.443
 20
-89.4087
 11
-319.205
 21
-89.875
  0
LINE
  8
0
 10
-319.205
 20
-89.875
 11
-318.92
 21
-90.3139
  0
LINE
  8
0
 10
-318.92
 20
-90.3139
 11
-318.591
 21
-90.7207
  0
LINE
  8
0
 10
-318.591
 20
-90.7207
 11
-318.221
 21
-91.0907
  0
LINE
  8
0
 10
-318.221
 20
-91.0907
 11
-317.814
 21
-91.4201
  0
LINE
  8
0
 10
-317.814
 20
-91.4201
 11
-317.375
 21
-91.7051
  0
LINE
  8
0
 10
-317.375
 20
-91.7051
 11
-316.909
 21
-91.9427
  0
LINE
  8
0
 10
-316.909
 20
-91.9427
 11
-316.42
 21
-92.1303
  0
LINE
  8
0
 10
-316.42
 20
-92.1303
 11
-315.915
 21
-92.2657
  0
LINE
  8
0
 10
-315.915
 20
-92.2657
 11
-315.398
 21
-92.3476
  0
LINE
  8
0
 10
-315.398
 20
-92.3476
 11
-314.875
 21
-92.375
  0
LINE
  8
0
 10
-314.875
 20
-92.375
 11
314.875
 21
-92.375
  0
LINE
  8
0
 10
314.875
 20
-92.375
 11
315.398
 21
-92.3476
  0
LINE
  8
0
 10
-312.892
 20
81.2705
 11
-313.28
 21
81.3319
  0
LINE
  8
0
 10
-313.28
 20
81.3319
 11
-313.659
 21
81.4335
  0
LINE
  8
0
 10
-313.659
 20
81.4335
 11
-314.025
 21
81.5742
  0
LINE
  8
0
 10
-314.025
 20
81.5742
 11
-314.375
 21
81.7524
  0
LINE
  8
0
 10
-314.375
 20
81.7524
 11
-314.704
 21
81.9662
  0
LINE
  8
0
 10
-314.704
 20
81.9662
 11
-315.009
 21
82.2132
  0
LINE
  8
0
 10
-315.009
 20
82.2132
 11
-315.287
 21
82.4908
  0
LINE
  8
0
 10
-315.287
 20
82.4908
 11
-315.534
 21
82.7958
  0
LINE
  8
0
 10
-315.534
 20
82.7958
 11
-315.748
 21
83.125
  0
LINE
  8
0
 10
-315.748
 20
83.125
 11
-315.926
 21
83.4747
  0
LINE
  8
0
 10
-315.926
 20
83.4747
 11
-316.066
 21
83.8412
  0
LINE
  8
0
 10
-316.066
 20
83.8412
 11
-316.168
 21
84.2203
  0
LINE
  8
0
 10
-316.168
 20
84.2203
 11
-316.229
 21
84.608
  0
LINE
  8
0
 10
-316.229
 20
84.608
 11
-316.25
 21
85
  0
LINE
  8
0
 10
-316.25
 20
85
 11
-316.229
 21
85.392
  0
LINE
  8
0
 10
-316.229
 20
85.392
 11
-316.168
 21
85.7797
  0
LINE
  8
0
 10
-316.168
 20
85.7797
 11
-316.066
 21
86.1588
  0
LINE
  8
0
 10
-316.066
 20
86.1588
 11
-315.926
 21
86.5253
  0
LINE
  8
0
 10
-315.926
 20
86.5253
 11
-315.748
 21
86.875
  0
LINE
  8
0
 10
-315.748
 20
86.875
 11
-315.534
 21
87.2042
  0
LINE
  8
0
 10
-315.534
 20
87.2042
 11
-315.287
 21
87.5092
  0
LINE
  8
0
 10
-315.287
 20
87.5092
 11
-315.009
 21
87.7868
  0
LINE
  8
0
 10
-315.009
 20
87.7868
 11
-314.704
 21
88.0338
  0
LINE
  8
0
 10
-314.704
 20
88.0338
 11
-314.375
 21
88.2476
  0
LINE
  8
0
 10
-314.375
 20
88.2476
 11
-314.025
 21
88.4258
  0
LINE
  8
0
 10
-314.025
 20
88.4258
 11
-313.659
 21
88.5665
  0
LINE
  8
0
 10
-313.659
 20
88.5665
 11
-313.28
 21
88.668
  0
LINE
  8
0
 10
-313.28
 20
88.668
 11
-312.892
 21
88.7294
  0
LINE
  8
0
 10
-312.892
 20
88.7294
 11
-312.5
 21
88.75
  0
LINE
  8
0
 10
-312.5
 20
88.75
 11
-312.108
 21
88.7294
  0
LINE
  8
0
 10
-312.108
 20
88.7294
 11
-311.72
 21
88.668
  0
LINE
  8
0
 10
-311.72
 20
88.668
 11
-311.341
 21
88.5665
  0
LINE
  8
0
 10
-311.341
 20
88.5665
 11
-310.975
 21
88.4258
  0
LINE
  8
0
 10
-310.975
 20
88.4258
 11
-310.625
 21
88.2476
  0
LINE
  8
0
 10
-310.625
 20
88.2476
 11
-310.296
 21
88.0338
  0
LINE
  8
0
 10
-310.296
 20
88.0338
 11
-309.991
 21
87.7868
  0
LINE
  8
0
 10
-309.991
 20
87.7868
 11
-309.713
 21
87.5092
  0
LINE
  8
0
 10
-309.713
 20
87.5092
 11
-309.466
 21
87.2042
  0
LINE
  8
0
 10
-309.466
 20
87.2042
 11
-309.252
 21
86.875
  0
LINE
  8
0
 10
-309.252
 20
86.875
 11
-309.074
 21
86.5253
  0
LINE
  8
0
 10
-309.074
 20
86.5253
 11
-308.934
 21
86.1588
  0
LINE
  8
0
 10
-308.934
 20
86.1588
 11
-308.832
 21
85.7797
  0
LINE
  8
0
 10
-308.832
 20
85.7797
 11
-308.771
 21
85.392
  0
LINE
  8
0
 10
-308.771
 20
85.392
 11
-308.75
 21
85
  0
LINE
  8
0
 10
-308.75
 20
85
 11
-308.771
 21
84.608
  0
LINE
  8
0
 10
-308.771
 20
84.608
 11
-308.832
 21
84.2203
  0
LINE
  8
0
 10
-308.832
 20
84.2203
 11
-308.934
 21
83.8412
  0
LINE
  8
0
 10
-308.934
 20
83.8412
 11
-309.074
 21
83.4747
  0
LINE
  8
0
 10
-309.074
 20
83.4747
 11
-309.252
 21
83.125
  0
LINE
  8
0
 10
-309.252
 20
83.125
 11
-309.466
 21
82.7958
  0
LINE
  8
0
 10
-309.466
 20
82.7958
 11
-309.713
 21
82.4908
  0
LINE
  8
0
 10
-309.713
 20
82.4908
 11
-309.991
 21
82.2132
  0
LINE
  8
0
 10
-309.991
 20
82.2132
 11
-310.296
 21
81.9662
  0
LINE
  8
0
 10
-310.296
 20
81.9662
 11
-310.625
 21
81.7524
  0
LINE
  8
0
 10
-310.625
 20
81.7524
 11
-310.975
 21
81.5742
  0
LINE
  8
0
 10
-310.975
 20
81.5742
 11
-311.341
 21
81.4335
  0
LINE
  8
0
 10
-311.341
 20
81.4335
 11
-311.72
 21
81.3319
  0
LINE
  8
0
 10
-311.72
 20
81.3319
 11
-312.108
 21
81.2705
  0
LINE
  8
0
 10
-312.108
 20
81.2705
 11
-312.5
 21
81.25
  0
LINE
  8
0
 10
-312.5
 20
81.25
 11
-312.892
 21
81.2705
  0
LINE
  8
0
 10
312.108
 20
81.2705
 11
311.72
 21
81.3319
  0
LINE
  8
0
 10
311.72
 20
81.3319
 11
311.341
 21
81.4335
  0
LINE
  8
0
 10
311.341
 20
81.4335
 11
310.975
 21
81.5742
  0
LINE
  8
0
 10
310.975
 20
81.5742
 11
310.625
 21
81.7524
  0
LINE
  8
0
 10
310.625
 20
81.7524
 11
310.296
 21
81.9662
  0
LINE
  8
0
 10
310.296
 20
81.9662
 11
309.991
 21
82.2132
  0
LINE
  8
0
 10
309.991
 20
82.2132
 11
309.713
 21
82.4908
  0
LINE
  8
0
 10
309.713
 20
82.4908
 11
309.466
 21
82.7958
  0
LINE
  8
0
 10
309.466
 20
82.7958
 11
309.252
 21
83.125
  0
LINE
  8
0
 10
309.252
 20
83.125
 11
309.074
 21
83.4747
  0
LINE
  8
0
 10
309.074
 20
83.4747
 11
308.934
 21
83.8412
  0
LINE
  8
0
 10
308.934
 20
83.8412
 11
308.832
 21
84.2203
  0
LINE
  8
0
 10
308.832
 20
84.2203
 11
308.771
 21
84.608
  0
LINE
  8
0
 10
308.771
 20
84.608
 11
308.75
 21
85
  0
LINE
  8
0
 10
308.75
 20
85
 11
308.771
 21
85.392
  0
LINE
  8
0
 10
308.771
 20
85.392
 11
308.832
 21
85.7797
  0
LINE
  8
0
 10
308.832
 20
85.7797
 11
308.934
 21
86.1588
  0
LINE
  8
0
 10
308.934
 20
86.1588
 11
309.074
 21
86.5253
  0
LINE
  8
0
 10
309.074
 20
86.5253
 11
309.252
 21
86.875
  0
LINE
  8
0
 10
309.252
 20
86.875
 11
309.466
 21
87.2042
  0
LINE
  8
0
 10
309.466
 20
87.2042
 11
309.713
 21
87.5092
  0
LINE
  8
0
 10
309.713
 20
87.5092
 11
309.991
 21
87.7868
  0
LINE
  8
0
 10
309.991
 20
87.7868
 11
310.296
 21
88.0338
  0
LINE
  8
0
 10
310.296
 20
88.0338
 11
310.625
 21
88.2476
  0
LINE
  8
0
 10
310.625
 20
88.2476
 11
310.975
 21
88.4258
  0
LINE
  8
0
 10
310.975
 20
88.4258
 11
311.341
 21
88.5665
  0
LINE
  8
0
 10
311.341
 20
88.5665
 11
311.72
 21
88.668
  0
LINE
  8
0
 10
311.72
 20
88.668
 11
312.108
 21
88.7294
  0
LINE
  8
0
 10
312.108
 20
88.7294
 11
312.5
 21
88.75
  0
LINE
  8
0
 10
312.5
 20
88.75
 11
312.892
 21
88.7294
  0
LINE
  8
0
 10
312.892
 20
88.7294
 11
313.28
 21
88.668
  0
LINE
  8
0
 10
313.28
 20
88.668
 11
313.659
 21
88.5665
  0
LINE
  8
0
 10
313.659
 20
88.5665
 11
314.025
 21
88.4258
  0
LINE
  8
0
 10
314.025
 20
88.4258
 11
314.375
 21
88.2476
  0
LINE
  8
0
 10
314.375
 20
88.2476
 11
314.704
 21
88.0338
  0
LINE
  8
0
 10
314.704
 20
88.0338
 11
315.009
 21
87.7868
  0
LINE
  8
0
 10
315.009
 20
87.7868
 11
315.287
 21
87.5092
  0
LINE
  8
0
 10
315.287
 20
87.5092
 11
315.534
 21
87.2042
  0
LINE
  8
0
 10
315.534
 20
87.2042
 11
315.748
 21
86.875
  0
LINE
  8
0
 10
315.748
 20
86.875
 11
315.926
 21
86.5253
  0
LINE
  8
0
 10
315.926
 20
86.5253
 11
316.066
 21
86.1588
  0
LINE
  8
0
 10
316.066
 20
86.1588
 11
316.168
 21
85.7797
  0
LINE
  8
0
 10
316.168
 20
85.7797
 11
316.229
 21
85.392
  0
LINE
  8
0
 10
316.229
 20
85.392
 11
316.25
 21
85
  0
LINE
  8
0
 10
316.25
 20
85
 11
316.229
 21
84.608
  0
LINE
  8
0
 10
316.229
 20
84.608
 11
316.168
 21
84.2203
  0
LINE
  8
0
 10
316.168
 20
84.2203
 11
316.066
 21
83.8412
  0
LINE
  8
0
 10
316.066
 20
83.8412
 11
315.926
 21
83.4747
  0
LINE
  8
0
 10
315.926
 20
83.4747
 11
315.748
 21
83.125
  0
LINE
  8
0
 10
315.748
 20
83.125
 11
315.534
 21
82.7958
  0
LINE
  8
0
 10
315.534
 20
82.7958
 11
315.287
 21
82.4908
  0
LINE
  8
0
 10
315.287
 20
82.4908
 11
315.009
 21
82.2132
  0
LINE
  8
0
 10
315.009
 20
82.2132
 11
314.704
 21
81.9662
  0
LINE
  8
0
 10
314.704
 20
81.9662
 11
314.375
 21
81.7524
  0
LINE
  8
0
 10
314.375
 20
81.7524
 11
314.025
 21
81.5742
  0
LINE
  8
0
 10
314.025
 20
81.5742
 11
313.659
 21
81.4335
  0
LINE
  8
0
 10
313.659
 20
81.4335
 11
313.28
 21
81.3319
  0
LINE
  8
0
 10
313.28
 20
81.3319
 11
312.892
 21
81.2705
  0
LINE
  8
0
 10
312.892
 20
81.2705
 11
312.5
 21
81.25
  0
LINE
  8
0
 10
312.5
 20
81.25
 11
312.108
 21
81.2705
  0
LINE
  8
0
 10
-0.308777
 20
83.3283
 11
-0.548889
 21
83.3911
  0
LINE
  8
0
 10
-0.548889
 20
83.3911
 11
-0.777298
 21
83.4881
  0
LINE
  8
0
 10
-0.777298
 20
83.4881
 11
-0.989151
 21
83.6174
  0
LINE
  8
0
 10
-0.989151
 20
83.6174
 11
-1.17992
 21
83.7762
  0
LINE
  8
0
 10
-1.17992
 20
83.7762
 11
-1.34554
 21
83.961
  0
LINE
  8
0
 10
-1.34554
 20
83.961
 11
-1.48248
 21
84.168
  0
LINE
  8
0
 10
-1.48248
 20
84.168
 11
-1.58781
 21
84.3927
  0
LINE
  8
0
 10
-1.58781
 20
84.3927
 11
-1.65932
 21
84.6304
  0
LINE
  8
0
 10
-1.65932
 20
84.6304
 11
-1.69545
 21
84.8759
  0
LINE
  8
0
 10
-1.69545
 20
84.8759
 11
-1.69545
 21
85.1241
  0
LINE
  8
0
 10
-1.69545
 20
85.1241
 11
-1.65932
 21
85.3696
  0
LINE
  8
0
 10
-1.65932
 20
85.3696
 11
-1.58781
 21
85.6073
  0
LINE
  8
0
 10
-1.58781
 20
85.6073
 11
-1.48248
 21
85.832
  0
LINE
  8
0
 10
-1.48248
 20
85.832
 11
-1.34554
 21
86.039
  0
LINE
  8
0
 10
-1.34554
 20
86.039
 11
-1.17992
 21
86.2238
  0
LINE
  8
0
 10
-1.17992
 20
86.2238
 11
-0.989151
 21
86.3826
  0
LINE
  8
0
 10
-0.989151
 20
86.3826
 11
-0.777298
 21
86.5119
  0
LINE
  8
0
 10
-0.777298
 20
86.5119
 11
-0.548889
 21
86.6089
  0
LINE
  8
0
 10
-0.548889
 20
86.6089
 11
-0.308777
 21
86.6717
  0
LINE
  8
0
 10
-0.308777
 20
86.6717
 11
-0.0620728
 21
86.6989
  0
LINE
  8
0
 10
-0.0620728
 20
86.6989
 11
0.185928
 21
86.6898
  0
LINE
  8
0
 10
0.185928
 20
86.6898
 11
0.429977
 21
86.6447
  0
LINE
  8
0
 10
0.429977
 20
86.6447
 11
0.664871
 21
86.5646
  0
LINE
  8
0
 10
0.664871
 20
86.5646
 11
0.88559
 21
86.4511
  0
LINE
  8
0
 10
0.88559
 20
86.4511
 11
1.08743
 21
86.3067
  0
LINE
  8
0
 10
1.08743
 20
86.3067
 11
1.2661
 21
86.1344
  0
LINE
  8
0
 10
1.2661
 20
86.1344
 11
1.41779
 21
85.938
  0
LINE
  8
0
 10
1.41779
 20
85.938
 11
1.53926
 21
85.7216
  0
LINE
  8
0
 10
1.53926
 20
85.7216
 11
1.62791
 21
85.4898
  0
LINE
  8
0
 10
1.62791
 20
85.4898
 11
1.68187
 21
85.2475
  0
LINE
  8
0
 10
1.68187
 20
85.2475
 11
1.7
 21
85
  0
LINE
  8
0
 10
1.7
 20
85
 11
1.68187
 21
84.7525
  0
LINE
  8
0
 10
1.68187
 20
84.7525
 11
1.62791
 21
84.5102
  0
LINE
  8
0
 10
1.62791
 20
84.5102
 11
1.53926
 21
84.2784
  0
LINE
  8
0
 10
1.53926
 20
84.2784
 11
1.41779
 21
84.062
  0
LINE
  8
0
 10
1.41779
 20
84.062
 11
1.2661
 21
83.8656
  0
LINE
  8
0
 10
1.2661
 20
83.8656
 11
1.08743
 21
83.6933
  0
LINE
  8
0
 10
1.08743
 20
83.6933
 11
0.88559
 21
83.5489
  0
LINE
  8
0
 10
0.88559
 20
83.5489
 11
0.664871
 21
83.4354
  0
LINE
  8
0
 10
0.664871
 20
83.4354
 11
0.429977
 21
83.3553
  0
LINE
  8
0
 10
0.429977
 20
83.3553
 11
0.185928
 21
83.3102
  0
LINE
  8
0
 10
0.185928
 20
83.3102
 11
-0.0620728
 21
83.3011
  0
LINE
  8
0
 10
-0.0620728
 20
83.3011
 11
-0.308777
 21
83.3283
  0
LINE
  8
0
 10
-180.309
 20
83.3283
 11
-180.549
 21
83.3911
  0
LINE
  8
0
 10
-180.549
 20
83.3911
 11
-180.777
 21
83.4881
  0
LINE
  8
0
 10
-180.777
 20
83.4881
 11
-180.989
 21
83.6174
  0
LINE
  8
0
 10
-180.989
 20
83.6174
 11
-181.18
 21
83.7762
  0
LINE
  8
0
 10
-181.18
 20
83.7762
 11
-181.346
 21
83.961
  0
LINE
  8
0
 10
-181.346
 20
83.961
 11
-181.482
 21
84.168
  0
LINE
  8
0
 10
-181.482
 20
84.168
 11
-181.588
 21
84.3927
  0
LINE
  8
0
 10
-181.588
 20
84.3927
 11
-181.659
 21
84.6304
  0
LINE
  8
0
 10
-181.659
 20
84.6304
 11
-181.695
 21
84.8759
  0
LINE
  8
0
 10
-181.695
 20
84.8759
 11
-181.695
 21
85.1241
  0
LINE
  8
0
 10
-181.695
 20
85.1241
 11
-181.659
 21
85.3696
  0
LINE
  8
0
 10
-181.659
 20
85.3696
 11
-181.588
 21
85.6073
  0
LINE
  8
0
 10
-181.588
 20
85.6073
 11
-181.482
 21
85.832
  0
LINE
  8
0
 10
-181.482
 20
85.832
 11
-181.346
 21
86.039
  0
LINE
  8
0
 10
-181.346
 20
86.039
 11
-181.18
 21
86.2238
  0
LINE
  8
0
 10
-181.18
 20
86.2238
 11
-180.989
 21
86.3826
  0
LINE
  8
0
 10
-180.989
 20
86.3826
 11
-180.777
 21
86.5119
  0
LINE
  8
0
 10
-180.777
 20
86.5119
 11
-180.549
 21
86.6089
  0
LINE
  8
0
 10
-180.549
 20
86.6089
 11
-180.309
 21
86.6717
  0
LINE
  8
0
 10
-180.309
 20
86.6717
 11
-180.062
 21
86.6989
  0
LINE
  8
0
 10
-180.062
 20
86.6989
 11
-179.814
 21
86.6898
  0
LINE
  8
0
 10
-179.814
 20
86.6898
 11
-179.57
 21
86.6447
  0
LINE
  8
0
 10
-179.57
 20
86.6447
 11
-179.335
 21
86.5646
  0
LINE
  8
0
 10
-179.335
 20
86.5646
 11
-179.114
 21
86.4511
  0
LINE
  8
0
 10
-179.114
 20
86.4511
 11
-178.913
 21
86.3067
  0
LINE
  8
0
 10
-178.913
 20
86.3067
 11
-178.734
 21
86.1344
  0
LINE
  8
0
 10
-178.734
 20
86.1344
 11
-178.582
 21
85.938
  0
LINE
  8
0
 10
-178.582
 20
85.938
 11
-178.461
 21
85.7216
  0
LINE
  8
0
 10
-178.461
 20
85.7216
 11
-178.372
 21
85.4898
  0
LINE
  8
0
 10
-178.372
 20
85.4898
 11
-178.318
 21
85.2475
  0
LINE
  8
0
 10
-178.318
 20
85.2475
 11
-178.3
 21
85
  0
LINE
  8
0
 10
-178.3
 20
85
 11
-178.318
 21
84.7525
  0
LINE
  8
0
 10
-178.318
 20
84.7525
 11
-178.372
 21
84.5102
  0
LINE
  8
0
 10
-178.372
 20
84.5102
 11
-178.461
 21
84.2784
  0
LINE
  8
0
 10
-178.461
 20
84.2784
 11
-178.582
 21
84.062
  0
LINE
  8
0
 10
-178.582
 20
84.062
 11
-178.734
 21
83.8656
  0
LINE
  8
0
 10
-178.734
 20
83.8656
 11
-178.913
 21
83.6933
  0
LINE
  8
0
 10
-178.913
 20
83.6933
 11
-179.114
 21
83.5489
  0
LINE
  8
0
 10
-179.114
 20
83.5489
 11
-179.335
 21
83.4354
  0
LINE
  8
0
 10
-179.335
 20
83.4354
 11
-179.57
 21
83.3553
  0
LINE
  8
0
 10
-179.57
 20
83.3553
 11
-179.814
 21
83.3102
  0
LINE
  8
0
 10
-179.814
 20
83.3102
 11
-180.062
 21
83.3011
  0
LINE
  8
0
 10
-180.062
 20
83.3011
 11
-180.309
 21
83.3283
  0
LINE
  8
0
 10
-270.309
 20
83.3283
 11
-270.549
 21
83.3911
  0
LINE
  8
0
 10
-270.549
 20
83.3911
 11
-270.777
 21
83.4881
  0
LINE
  8
0
 10
-270.777
 20
83.4881
 11
-270.989
 21
83.6174
  0
LINE
  8
0
 10
-270.989
 20
83.6174
 11
-271.18
 21
83.7762
  0
LINE
  8
0
 10
-271.18
 20
83.7762
 11
-271.346
 21
83.961
  0
LINE
  8
0
 10
-271.346
 20
83.961
 11
-271.482
 21
84.168
  0
LINE
  8
0
 10
-271.482
 20
84.168
 11
-271.588
 21
84.3927
  0
LINE
  8
0
 10
-271.588
 20
84.3927
 11
-271.659
 21
84.6304
  0
LINE
  8
0
 10
-271.659
 20
84.6304
 11
-271.695
 21
84.8759
  0
LINE
  8
0
 10
-271.695
 20
84.8759
 11
-271.695
 21
85.1241
  0
LINE
  8
0
 10
-271.695
 20
85.1241
 11
-271.659
 21
85.3696
  0
LINE
  8
0
 10
-271.659
 20
85.3696
 11
-271.588
 21
85.6073
  0
LINE
  8
0
 10
-271.588
 20
85.6073
 11
-271.482
 21
85.832
  0
LINE
  8
0
 10
-271.482
 20
85.832
 11
-271.346
 21
86.039
  0
LINE
  8
0
 10
-271.346
 20
86.039
 11
-271.18
 21
86.2238
  0
LINE
  8
0
 10
-271.18
 20
86.2238
 11
-270.989
 21
86.3826
  0
LINE
  8
0
 10
-270.989
 20
86.3826
 11
-270.777
 21
86.5119
  0
LINE
  8
0
 10
-270.777
 20
86.5119
 11
-270.549
 21
86.6089
  0
LINE
  8
0
 10
-270.549
 20
86.6089
 11
-270.309
 21
86.6717
  0
LINE
  8
0
 10
-270.309
 20
86.6717
 11
-270.062
 21
86.6989
  0
LINE
  8
0
 10
-270.062
 20
86.6989
 11
-269.814
 21
86.6898
  0
LINE
  8
0
 10
-269.814
 20
86.6898
 11
-269.57
 21
86.6447
  0
LINE
  8
0
 10
-269.57
 20
86.6447
 11
-269.335
 21
86.5646
  0
LINE
  8
0
 10
-269.335
 20
86.5646
 11
-269.114
 21
86.4511
  0
LINE
  8
0
 10
-269.114
 20
86.4511
 11
-268.913
 21
86.3067
  0
LINE
  8
0
 10
-268.913
 20
86.3067
 11
-268.734
 21
86.1344
  0
LINE
  8
0
 10
-268.734
 20
86.1344
 11
-268.582
 21
85.938
  0
LINE
  8
0
 10
-268.582
 20
85.938
 11
-268.461
 21
85.7216
  0
LINE
  8
0
 10
-268.461
 20
85.7216
 11
-268.372
 21
85.4898
  0
LINE
  8
0
 10
-268.372
 20
85.4898
 11
-268.318
 21
85.2475
  0
LINE
  8
0
 10
-268.318
 20
85.2475
 11
-268.3
 21
85
  0
LINE
  8
0
 10
-268.3
 20
85
 11
-268.318
 21
84.7525
  0
LINE
  8
0
 10
-268.318
 20
84.7525
 11
-268.372
 21
84.5102
  0
LINE
  8
0
 10
-268.372
 20
84.5102
 11
-268.461
 21
84.2784
  0
LINE
  8
0
 10
-268.461
 20
84.2784
 11
-268.582
 21
84.062
  0
LINE
  8
0
 10
-268.582
 20
84.062
 11
-268.734
 21
83.8656
  0
LINE
  8
0
 10
-268.734
 20
83.8656
 11
-268.913
 21
83.6933
  0
LINE
  8
0
 10
-268.913
 20
83.6933
 11
-269.114
 21
83.5489
  0
LINE
  8
0
 10
-269.114
 20
83.5489
 11
-269.335
 21
83.4354
  0
LINE
  8
0
 10
-269.335
 20
83.4354
 11
-269.57
 21
83.3553
  0
LINE
  8
0
 10
-269.57
 20
83.3553
 11
-269.814
 21
83.3102
  0
LINE
  8
0
 10
-269.814
 20
83.3102
 11
-270.062
 21
83.3011
  0
LINE
  8
0
 10
-270.062
 20
83.3011
 11
-270.309
 21
83.3283
  0
LINE
  8
0
 10
269.691
 20
83.3283
 11
269.451
 21
83.3911
  0
LINE
  8
0
 10
269.451
 20
83.3911
 11
269.223
 21
83.4881
  0
LINE
  8
0
 10
269.223
 20
83.4881
 11
269.011
 21
83.6174
  0
LINE
  8
0
 10
269.011
 20
83.6174
 11
268.82
 21
83.7762
  0
LINE
  8
0
 10
268.82
 20
83.7762
 11
268.654
 21
83.961
  0
LINE
  8
0
 10
268.654
 20
83.961
 11
268.518
 21
84.168
  0
LINE
  8
0
 10
268.518
 20
84.168
 11
268.412
 21
84.3927
  0
LINE
  8
0
 10
268.412
 20
84.3927
 11
268.341
 21
84.6304
  0
LINE
  8
0
 10
268.341
 20
84.6304
 11
268.305
 21
84.8759
  0
LINE
  8
0
 10
268.305
 20
84.8759
 11
268.305
 21
85.1241
  0
LINE
  8
0
 10
268.305
 20
85.1241
 11
268.341
 21
85.3696
  0
LINE
  8
0
 10
268.341
 20
85.3696
 11
268.412
 21
85.6073
  0
LINE
  8
0
 10
268.412
 20
85.6073
 11
268.518
 21
85.832
  0
LINE
  8
0
 10
268.518
 20
85.832
 11
268.654
 21
86.039
  0
LINE
  8
0
 10
268.654
 20
86.039
 11
268.82
 21
86.2238
  0
LINE
  8
0
 10
268.82
 20
86.2238
 11
269.011
 21
86.3826
  0
LINE
  8
0
 10
269.011
 20
86.3826
 11
269.223
 21
86.5119
  0
LINE
  8
0
 10
269.223
 20
86.5119
 11
269.451
 21
86.6089
  0
LINE
  8
0
 10
269.451
 20
86.6089
 11
269.691
 21
86.6717
  0
LINE
  8
0
 10
269.691
 20
86.6717
 11
269.938
 21
86.6989
  0
LINE
  8
0
 10
269.938
 20
86.6989
 11
270.186
 21
86.6898
  0
LINE
  8
0
 10
270.186
 20
86.6898
 11
270.43
 21
86.6447
  0
LINE
  8
0
 10
270.43
 20
86.6447
 11
270.665
 21
86.5646
  0
LINE
  8
0
 10
270.665
 20
86.5646
 11
270.886
 21
86.4511
  0
LINE
  8
0
 10
270.886
 20
86.4511
 11
271.087
 21
86.3067
  0
LINE
  8
0
 10
271.087
 20
86.3067
 11
271.266
 21
86.1344
  0
LINE
  8
0
 10
271.266
 20
86.1344
 11
271.418
 21
85.938
  0
LINE
  8
0
 10
271.418
 20
85.938
 11
271.539
 21
85.7216
  0
LINE
  8
0
 10
271.539
 20
85.7216
 11
271.628
 21
85.4898
  0
LINE
  8
0
 10
271.628
 20
85.4898
 11
271.682
 21
85.2475
  0
LINE
  8
0
 10
271.682
 20
85.2475
 11
271.7
 21
85
  0
LINE
  8
0
 10
271.7
 20
85
 11
271.682
 21
84.7525
  0
LINE
  8
0
 10
271.682
 20
84.7525
 11
271.628
 21
84.5102
  0
LINE
  8
0
 10
271.628
 20
84.5102
 11
271.539
 21
84.2784
  0
LINE
  8
0
 10
271.539
 20
84.2784
 11
271.418
 21
84.062
  0
LINE
  8
0
 10
271.418
 20
84.062
 11
271.266
 21
83.8656
  0
LINE
  8
0
 10
271.266
 20
83.8656
 11
271.087
 21
83.6933
  0
LINE
  8
0
 10
271.087
 20
83.6933
 11
270.886
 21
83.5489
  0
LINE
  8
0
 10
270.886
 20
83.5489
 11
270.665
 21
83.4354
  0
LINE
  8
0
 10
270.665
 20
83.4354
 11
270.43
 21
83.3553
  0
LINE
  8
0
 10
270.43
 20
83.3553
 11
270.186
 21
83.3102
  0
LINE
  8
0
 10
270.186
 20
83.3102
 11
269.938
 21
83.3011
  0
LINE
  8
0
 10
269.938
 20
83.3011
 11
269.691
 21
83.3283
  0
LINE
  8
0
 10
-90.3088
 20
83.3283
 11
-90.5489
 21
83.3911
  0
LINE
  8
0
 10
-90.5489
 20
83.3911
 11
-90.7773
 21
83.4881
  0
LINE
  8
0
 10
-90.7773
 20
83.4881
 11
-90.9892
 21
83.6174
  0
LINE
  8
0
 10
-90.9892
 20
83.6174
 11
-91.1799
 21
83.7762
  0
LINE
  8
0
 10
-91.1799
 20
83.7762
 11
-91.3455
 21
83.961
  0
LINE
  8
0
 10
-91.3455
 20
83.961
 11
-91.4825
 21
84.168
  0
LINE
  8
0
 10
-91.4825
 20
84.168
 11
-91.5878
 21
84.3927
  0
LINE
  8
0
 10
-91.5878
 20
84.3927
 11
-91.6593
 21
84.6304
  0
LINE
  8
0
 10
-91.6593
 20
84.6304
 11
-91.6955
 21
84.8759
  0
LINE
  8
0
 10
-91.6955
 20
84.8759
 11
-91.6955
 21
85.1241
  0
LINE
  8
0
 10
-91.6955
 20
85.1241
 11
-91.6593
 21
85.3696
  0
LINE
  8
0
 10
-91.6593
 20
85.3696
 11
-91.5878
 21
85.6073
  0
LINE
  8
0
 10
-91.5878
 20
85.6073
 11
-91.4825
 21
85.832
  0
LINE
  8
0
 10
-91.4825
 20
85.832
 11
-91.3455
 21
86.039
  0
LINE
  8
0
 10
-91.3455
 20
86.039
 11
-91.1799
 21
86.2238
  0
LINE
  8
0
 10
-91.1799
 20
86.2238
 11
-90.9892
 21
86.3826
  0
LINE
  8
0
 10
-90.9892
 20
86.3826
 11
-90.7773
 21
86.5119
  0
LINE
  8
0
 10
-90.7773
 20
86.5119
 11
-90.5489
 21
86.6089
  0
LINE
  8
0
 10
-90.5489
 20
86.6089
 11
-90.3088
 21
86.6717
  0
LINE
  8
0
 10
-90.3088
 20
86.6717
 11
-90.0621
 21
86.6989
  0
LINE
  8
0
 10
-90.0621
 20
86.6989
 11
-89.8141
 21
86.6898
  0
LINE
  8
0
 10
-89.8141
 20
86.6898
 11
-89.57
 21
86.6447
  0
LINE
  8
0
 10
-89.57
 20
86.6447
 11
-89.3351
 21
86.5646
  0
LINE
  8
0
 10
-89.3351
 20
86.5646
 11
-89.1144
 21
86.4511
  0
LINE
  8
0
 10
-89.1144
 20
86.4511
 11
-88.9126
 21
86.3067
  0
LINE
  8
0
 10
-88.9126
 20
86.3067
 11
-88.7339
 21
86.1344
  0
LINE
  8
0
 10
-88.7339
 20
86.1344
 11
-88.5822
 21
85.938
  0
LINE
  8
0
 10
-88.5822
 20
85.938
 11
-88.4607
 21
85.7216
  0
LINE
  8
0
 10
-88.4607
 20
85.7216
 11
-88.3721
 21
85.4898
  0
LINE
  8
0
 10
-88.3721
 20
85.4898
 11
-88.3181
 21
85.2475
  0
LINE
  8
0
 10
-88.3181
 20
85.2475
 11
-88.3
 21
85
  0
LINE
  8
0
 10
-88.3
 20
85
 11
-88.3181
 21
84.7525
  0
LINE
  8
0
 10
-88.3181
 20
84.7525
 11
-88.3721
 21
84.5102
  0
LINE
  8
0
 10
-88.3721
 20
84.5102
 11
-88.4607
 21
84.2784
  0
LINE
  8
0
 10
-88.4607
 20
84.2784
 11
-88.5822
 21
84.062
  0
LINE
  8
0
 10
-88.5822
 20
84.062
 11
-88.7339
 21
83.8656
  0
LINE
  8
0
 10
-88.7339
 20
83.8656
 11
-88.9126
 21
83.6933
  0
LINE
  8
0
 10
-88.9126
 20
83.6933
 11
-89.1144
 21
83.5489
  0
LINE
  8
0
 10
-89.1144
 20
83.5489
 11
-89.3351
 21
83.4354
  0
LINE
  8
0
 10
-89.3351
 20
83.4354
 11
-89.57
 21
83.3553
  0
LINE
  8
0
 10
-89.57
 20
83.3553
 11
-89.8141
 21
83.3102
  0
LINE
  8
0
 10
-89.8141
 20
83.3102
 11
-90.0621
 21
83.3011
  0
LINE
  8
0
 10
-90.0621
 20
83.3011
 11
-90.3088
 21
83.3283
  0
LINE
  8
0
 10
89.6912
 20
83.3283
 11
89.4511
 21
83.3911
  0
LINE
  8
0
 10
89.4511
 20
83.3911
 11
89.2227
 21
83.4881
  0
LINE
  8
0
 10
89.2227
 20
83.4881
 11
89.0108
 21
83.6174
  0
LINE
  8
0
 10
89.0108
 20
83.6174
 11
88.8201
 21
83.7762
  0
LINE
  8
0
 10
88.8201
 20
83.7762
 11
88.6544
 21
83.961
  0
LINE
  8
0
 10
88.6544
 20
83.961
 11
88.5175
 21
84.168
  0
LINE
  8
0
 10
88.5175
 20
84.168
 11
88.4122
 21
84.3927
  0
LINE
  8
0
 10
88.4122
 20
84.3927
 11
88.3407
 21
84.6304
  0
LINE
  8
0
 10
88.3407
 20
84.6304
 11
88.3045
 21
84.8759
  0
LINE
  8
0
 10
88.3045
 20
84.8759
 11
88.3045
 21
85.1241
  0
LINE
  8
0
 10
88.3045
 20
85.1241
 11
88.3407
 21
85.3696
  0
LINE
  8
0
 10
88.3407
 20
85.3696
 11
88.4122
 21
85.6073
  0
LINE
  8
0
 10
88.4122
 20
85.6073
 11
88.5175
 21
85.832
  0
LINE
  8
0
 10
88.5175
 20
85.832
 11
88.6544
 21
86.039
  0
LINE
  8
0
 10
88.6544
 20
86.039
 11
88.8201
 21
86.2238
  0
LINE
  8
0
 10
88.8201
 20
86.2238
 11
89.0108
 21
86.3826
  0
LINE
  8
0
 10
89.0108
 20
86.3826
 11
89.2227
 21
86.5119
  0
LINE
  8
0
 10
89.2227
 20
86.5119
 11
89.4511
 21
86.6089
  0
LINE
  8
0
 10
89.4511
 20
86.6089
 11
89.6912
 21
86.6717
  0
LINE
  8
0
 10
89.6912
 20
86.6717
 11
89.9379
 21
86.6989
  0
LINE
  8
0
 10
89.9379
 20
86.6989
 11
90.1859
 21
86.6898
  0
LINE
  8
0
 10
90.1859
 20
86.6898
 11
90.43
 21
86.6447
  0
LINE
  8
0
 10
90.43
 20
86.6447
 11
90.6649
 21
86.5646
  0
LINE
  8
0
 10
90.6649
 20
86.5646
 11
90.8856
 21
86.4511
  0
LINE
  8
0
 10
90.8856
 20
86.4511
 11
91.0874
 21
86.3067
  0
LINE
  8
0
 10
91.0874
 20
86.3067
 11
91.2661
 21
86.1344
  0
LINE
  8
0
 10
91.2661
 20
86.1344
 11
91.4178
 21
85.938
  0
LINE
  8
0
 10
91.4178
 20
85.938
 11
91.5393
 21
85.7216
  0
LINE
  8
0
 10
91.5393
 20
85.7216
 11
91.6279
 21
85.4898
  0
LINE
  8
0
 10
91.6279
 20
85.4898
 11
91.6819
 21
85.2475
  0
LINE
  8
0
 10
91.6819
 20
85.2475
 11
91.7
 21
85
  0
LINE
  8
0
 10
91.7
 20
85
 11
91.6819
 21
84.7525
  0
LINE
  8
0
 10
91.6819
 20
84.7525
 11
91.6279
 21
84.5102
  0
LINE
  8
0
 10
91.6279
 20
84.5102
 11
91.5393
 21
84.2784
  0
LINE
  8
0
 10
91.5393
 20
84.2784
 11
91.4178
 21
84.062
  0
LINE
  8
0
 10
91.4178
 20
84.062
 11
91.2661
 21
83.8656
  0
LINE
  8
0
 10
91.2661
 20
83.8656
 11
91.0874
 21
83.6933
  0
LINE
  8
0
 10
91.0874
 20
83.6933
 11
90.8856
 21
83.5489
  0
LINE
  8
0
 10
90.8856
 20
83.5489
 11
90.6649
 21
83.4354
  0
LINE
  8
0
 10
90.6649
 20
83.4354
 11
90.43
 21
83.3553
  0
LINE
  8
0
 10
90.43
 20
83.3553
 11
90.1859
 21
83.3102
  0
LINE
  8
0
 10
90.1859
 20
83.3102
 11
89.9379
 21
83.3011
  0
LINE
  8
0
 10
89.9379
 20
83.3011
 11
89.6912
 21
83.3283
  0
LINE
  8
0
 10
180.43
 20
86.6447
 11
180.665
 21
86.5646
  0
LINE
  8
0
 10
180.665
 20
86.5646
 11
180.886
 21
86.4511
  0
LINE
  8
0
 10
180.886
 20
86.4511
 11
181.087
 21
86.3067
  0
LINE
  8
0
 10
181.087
 20
86.3067
 11
181.266
 21
86.1344
  0
LINE
  8
0
 10
181.266
 20
86.1344
 11
181.418
 21
85.938
  0
LINE
  8
0
 10
181.418
 20
85.938
 11
181.539
 21
85.7216
  0
LINE
  8
0
 10
181.539
 20
85.7216
 11
181.628
 21
85.4898
  0
LINE
  8
0
 10
181.628
 20
85.4898
 11
181.682
 21
85.2475
  0
LINE
  8
0
 10
181.682
 20
85.2475
 11
181.7
 21
85
  0
LINE
  8
0
 10
181.7
 20
85
 11
181.682
 21
84.7525
  0
LINE
  8
0
 10
181.682
 20
84.7525
 11
181.628
 21
84.5102
  0
LINE
  8
0
 10
181.628
 20
84.5102
 11
181.539
 21
84.2784
  0
LINE
  8
0
 10
181.539
 20
84.2784
 11
181.418
 21
84.062
  0
LINE
  8
0
 10
181.418
 20
84.062
 11
181.266
 21
83.8656
  0
LINE
  8
0
 10
181.266
 20
83.8656
 11
181.087
 21
83.6933
  0
LINE
  8
0
 10
181.087
 20
83.6933
 11
180.886
 21
83.5489
  0
LINE
  8
0
 10
180.886
 20
83.5489
 11
180.665
 21
83.4354
  0
LINE
  8
0
 10
180.665
 20
83.4354
 11
180.43
 21
83.3553
  0
LINE
  8
0
 10
180.43
 20
83.3553
 11
180.186
 21
83.3102
  0
LINE
  8
0
 10
180.186
 20
83.3102
 11
179.938
 21
83.3011
  0
LINE
  8
0
 10
179.938
 20
83.3011
 11
179.691
 21
83.3283
  0
LINE
  8
0
 10
179.691
 20
83.3283
 11
179.451
 21
83.3911
  0
LINE
  8
0
 10
179.451
 20
83.3911
 11
179.223
 21
83.4881
  0
LINE
  8
0
 10
179.223
 20
83.4881
 11
179.011
 21
83.6174
  0
LINE
  8
0
 10
179.011
 20
83.6174
 11
178.82
 21
83.7762
  0
LINE
  8
0
 10
178.82
 20
83.7762
 11
178.654
 21
83.961
  0
LINE
  8
0
 10
178.654
 20
83.961
 11
178.518
 21
84.168
  0
LINE
  8
0
 10
178.518
 20
84.168
 11
178.412
 21
84.3927
  0
LINE
  8
0
 10
178.412
 20
84.3927
 11
178.341
 21
84.6304
  0
LINE
  8
0
 10
178.341
 20
84.6304
 11
178.305
 21
84.8759
  0
LINE
  8
0
 10
178.305
 20
84.8759
 11
178.305
 21
85.1241
  0
LINE
  8
0
 10
178.305
 20
85.1241
 11
178.341
 21
85.3696
  0
LINE
  8
0
 10
178.341
 20
85.3696
 11
178.412
 21
85.6073
  0
LINE
  8
0
 10
178.412
 20
85.6073
 11
178.518
 21
85.832
  0
LINE
  8
0
 10
178.518
 20
85.832
 11
178.654
 21
86.039
  0
LINE
  8
0
 10
178.654
 20
86.039
 11
178.82
 21
86.2238
  0
LINE
  8
0
 10
178.82
 20
86.2238
 11
179.011
 21
86.3826
  0
LINE
  8
0
 10
179.011
 20
86.3826
 11
179.223
 21
86.5119
  0
LINE
  8
0
 10
179.223
 20
86.5119
 11
179.451
 21
86.6089
  0
LINE
  8
0
 10
179.451
 20
86.6089
 11
179.691
 21
86.6717
  0
LINE
  8
0
 10
179.691
 20
86.6717
 11
179.938
 21
86.6989
  0
LINE
  8
0
 10
179.938
 20
86.6989
 11
180.186
 21
86.6898
  0
LINE
  8
0
 10
180.186
 20
86.6898
 11
180.43
 21
86.6447
  0
LINE
  8
0
 10
312.191
 20
40.8283
 11
311.951
 21
40.8911
  0
LINE
  8
0
 10
311.951
 20
40.8911
 11
311.723
 21
40.9881
  0
LINE
  8
0
 10
311.723
 20
40.9881
 11
311.511
 21
41.1174
  0
LINE
  8
0
 10
311.511
 20
41.1174
 11
311.32
 21
41.2762
  0
LINE
  8
0
 10
311.32
 20
41.2762
 11
311.154
 21
41.461
  0
LINE
  8
0
 10
311.154
 20
41.461
 11
311.018
 21
41.668
  0
LINE
  8
0
 10
311.018
 20
41.668
 11
310.912
 21
41.8927
  0
LINE
  8
0
 10
310.912
 20
41.8927
 11
310.841
 21
42.1304
  0
LINE
  8
0
 10
310.841
 20
42.1304
 11
310.805
 21
42.3759
  0
LINE
  8
0
 10
310.805
 20
42.3759
 11
310.805
 21
42.6241
  0
LINE
  8
0
 10
310.805
 20
42.6241
 11
310.841
 21
42.8696
  0
LINE
  8
0
 10
310.841
 20
42.8696
 11
310.912
 21
43.1073
  0
LINE
  8
0
 10
310.912
 20
43.1073
 11
311.018
 21
43.332
  0
LINE
  8
0
 10
311.018
 20
43.332
 11
311.154
 21
43.539
  0
LINE
  8
0
 10
311.154
 20
43.539
 11
311.32
 21
43.7238
  0
LINE
  8
0
 10
311.32
 20
43.7238
 11
311.511
 21
43.8826
  0
LINE
  8
0
 10
311.511
 20
43.8826
 11
311.723
 21
44.0119
  0
LINE
  8
0
 10
311.723
 20
44.0119
 11
311.951
 21
44.1089
  0
LINE
  8
0
 10
311.951
 20
44.1089
 11
312.191
 21
44.1717
  0
LINE
  8
0
 10
312.191
 20
44.1717
 11
312.438
 21
44.1989
  0
LINE
  8
0
 10
312.438
 20
44.1989
 11
312.686
 21
44.1898
  0
LINE
  8
0
 10
312.686
 20
44.1898
 11
312.93
 21
44.1447
  0
LINE
  8
0
 10
312.93
 20
44.1447
 11
313.165
 21
44.0646
  0
LINE
  8
0
 10
313.165
 20
44.0646
 11
313.386
 21
43.9511
  0
LINE
  8
0
 10
313.386
 20
43.9511
 11
313.587
 21
43.8067
  0
LINE
  8
0
 10
313.587
 20
43.8067
 11
313.766
 21
43.6344
  0
LINE
  8
0
 10
313.766
 20
43.6344
 11
313.918
 21
43.438
  0
LINE
  8
0
 10
313.918
 20
43.438
 11
314.039
 21
43.2216
  0
LINE
  8
0
 10
314.039
 20
43.2216
 11
314.128
 21
42.9898
  0
LINE
  8
0
 10
314.128
 20
42.9898
 11
314.182
 21
42.7475
  0
LINE
  8
0
 10
314.182
 20
42.7475
 11
314.2
 21
42.5
  0
LINE
  8
0
 10
314.2
 20
42.5
 11
314.182
 21
42.2525
  0
LINE
  8
0
 10
314.182
 20
42.2525
 11
314.128
 21
42.0102
  0
LINE
  8
0
 10
314.128
 20
42.0102
 11
314.039
 21
41.7784
  0
LINE
  8
0
 10
314.039
 20
41.7784
 11
313.918
 21
41.562
  0
LINE
  8
0
 10
313.918
 20
41.562
 11
313.766
 21
41.3656
  0
LINE
  8
0
 10
313.766
 20
41.3656
 11
313.587
 21
41.1933
  0
LINE
  8
0
 10
313.587
 20
41.1933
 11
313.386
 21
41.0489
  0
LINE
  8
0
 10
313.386
 20
41.0489
 11
313.165
 21
40.9354
  0
LINE
  8
0
 10
313.165
 20
40.9354
 11
312.93
 21
40.8553
  0
LINE
  8
0
 10
312.93
 20
40.8553
 11
312.686
 21
40.8102
  0
LINE
  8
0
 10
312.686
 20
40.8102
 11
312.438
 21
40.8011
  0
LINE
  8
0
 10
312.438
 20
40.8011
 11
312.191
 21
40.8283
  0
LINE
  8
0
 10
-312.686
 20
40.8102
 11
-312.93
 21
40.8553
  0
LINE
  8
0
 10
-312.93
 20
40.8553
 11
-313.165
 21
40.9354
  0
LINE
  8
0
 10
-313.165
 20
40.9354
 11
-313.386
 21
41.0489
  0
LINE
  8
0
 10
-313.386
 20
41.0489
 11
-313.587
 21
41.1933
  0
LINE
  8
0
 10
-313.587
 20
41.1933
 11
-313.766
 21
41.3656
  0
LINE
  8
0
 10
-313.766
 20
41.3656
 11
-313.918
 21
41.562
  0
LINE
  8
0
 10
-313.918
 20
41.562
 11
-314.039
 21
41.7784
  0
LINE
  8
0
 10
-314.039
 20
41.7784
 11
-314.128
 21
42.0102
  0
LINE
  8
0
 10
-314.128
 20
42.0102
 11
-314.182
 21
42.2525
  0
LINE
  8
0
 10
-314.182
 20
42.2525
 11
-314.2
 21
42.5
  0
LINE
  8
0
 10
-314.2
 20
42.5
 11
-314.182
 21
42.7475
  0
LINE
  8
0
 10
-314.182
 20
42.7475
 11
-314.128
 21
42.9898
  0
LINE
  8
0
 10
-314.128
 20
42.9898
 11
-314.039
 21
43.2216
  0
LINE
  8
0
 10
-314.039
 20
43.2216
 11
-313.918
 21
43.438
  0
LINE
  8
0
 10
-313.918
 20
43.438
 11
-313.766
 21
43.6344
  0
LINE
  8
0
 10
-313.766
 20
43.6344
 11
-313.587
 21
43.8067
  0
LINE
  8
0
 10
-313.587
 20
43.8067
 11
-313.386
 21
43.9511
  0
LINE
  8
0
 10
-313.386
 20
43.9511
 11
-313.165
 21
44.0646
  0
LINE
  8
0
 10
-313.165
 20
44.0646
 11
-312.93
 21
44.1447
  0
LINE
  8
0
 10
-312.93
 20
44.1447
 11
-312.686
 21
44.1898
  0
LINE
  8
0
 10
-312.686
 20
44.1898
 11
-312.438
 21
44.1989
  0
LINE
  8
0
 10
-312.438
 20
44.1989
 11
-312.191
 21
44.1717
  0
LINE
  8
0
 10
-312.191
 20
44.1717
 11
-311.951
 21
44.1089
  0
LINE
  8
0
 10
-311.951
 20
44.1089
 11
-311.723
 21
44.0119
  0
LINE
  8
0
 10
-311.723
 20
44.0119
 11
-311.511
 21
43.8826
  0
LINE
  8
0
 10
-311.511
 20
43.8826
 11
-311.32
 21
43.7238
  0
LINE
  8
0
 10
-311.32
 20
43.7238
 11
-311.154
 21
43.539
  0
LINE
  8
0
 10
-311.154
 20
43.539
 11
-311.018
 21
43.332
  0
LINE
  8
0
 10
-311.018
 20
43.332
 11
-310.912
 21
43.1073
  0
LINE
  8
0
 10
-310.912
 20
43.1073
 11
-310.841
 21
42.8696
  0
LINE
  8
0
 10
-310.841
 20
42.8696
 11
-310.805
 21
42.6241
  0
LINE
  8
0
 10
-310.805
 20
42.6241
 11
-310.805
 21
42.3759
  0
LINE
  8
0
 10
-310.805
 20
42.3759
 11
-310.841
 21
42.1304
  0
LINE
  8
0
 10
-310.841
 20
42.1304
 11
-310.912
 21
41.8927
  0
LINE
  8
0
 10
-310.912
 20
41.8927
 11
-311.018
 21
41.668
  0
LINE
  8
0
 10
-311.018
 20
41.668
 11
-311.154
 21
41.461
  0
LINE
  8
0
 10
-311.154
 20
41.461
 11
-311.32
 21
41.2762
  0
LINE
  8
0
 10
-311.32
 20
41.2762
 11
-311.511
 21
41.1174
  0
LINE
  8
0
 10
-311.511
 20
41.1174
 11
-311.723
 21
40.9881
  0
LINE
  8
0
 10
-311.723
 20
40.9881
 11
-311.951
 21
40.8911
  0
LINE
  8
0
 10
-311.951
 20
40.8911
 11
-312.191
 21
40.8283
  0
LINE
  8
0
 10
-312.191
 20
40.8283
 11
-312.438
 21
40.8011
  0
LINE
  8
0
 10
-312.438
 20
40.8011
 11
-312.686
 21
40.8102
  0
LINE
  8
0
 10
-312.686
 20
-44.1898
 11
-312.93
 21
-44.1447
  0
LINE
  8
0
 10
-312.93
 20
-44.1447
 11
-313.165
 21
-44.0646
  0
LINE
  8
0
 10
-313.165
 20
-44.0646
 11
-313.386
 21
-43.9511
  0
LINE
  8
0
 10
-313.386
 20
-43.9511
 11
-313.587
 21
-43.8067
  0
LINE
  8
0
 10
-313.587
 20
-43.8067
 11
-313.766
 21
-43.6344
  0
LINE
  8
0
 10
-313.766
 20
-43.6344
 11
-313.918
 21
-43.438
  0
LINE
  8
0
 10
-313.918
 20
-43.438
 11
-314.039
 21
-43.2216
  0
LINE
  8
0
 10
-314.039
 20
-43.2216
 11
-314.128
 21
-42.9898
  0
LINE
  8
0
 10
-314.128
 20
-42.9898
 11
-314.182
 21
-42.7475
  0
LINE
  8
0
 10
-314.182
 20
-42.7475
 11
-314.2
 21
-42.5
  0
LINE
  8
0
 10
-314.2
 20
-42.5
 11
-314.182
 21
-42.2525
  0
LINE
  8
0
 10
-314.182
 20
-42.2525
 11
-314.128
 21
-42.0102
  0
LINE
  8
0
 10
-314.128
 20
-42.0102
 11
-314.039
 21
-41.7784
  0
LINE
  8
0
 10
-314.039
 20
-41.7784
 11
-313.918
 21
-41.562
  0
LINE
  8
0
 10
-313.918
 20
-41.562
 11
-313.766
 21
-41.3656
  0
LINE
  8
0
 10
-313.766
 20
-41.3656
 11
-313.587
 21
-41.1933
  0
LINE
  8
0
 10
-313.587
 20
-41.1933
 11
-313.386
 21
-41.0489
  0
LINE
  8
0
 10
-313.386
 20
-41.0489
 11
-313.165
 21
-40.9354
  0
LINE
  8
0
 10
-313.165
 20
-40.9354
 11
-312.93
 21
-40.8553
  0
LINE
  8
0
 10
-312.93
 20
-40.8553
 11
-312.686
 21
-40.8102
  0
LINE
  8
0
 10
-312.686
 20
-40.8102
 11
-312.438
 21
-40.8011
  0
LINE
  8
0
 10
-312.438
 20
-40.8011
 11
-312.191
 21
-40.8283
  0
LINE
  8
0
 10
-312.191
 20
-40.8283
 11
-311.951
 21
-40.8911
  0
LINE
  8
0
 10
-311.951
 20
-40.8911
 11
-311.723
 21
-40.9881
  0
LINE
  8
0
 10
-311.723
 20
-40.9881
 11
-311.511
 21
-41.1174
  0
LINE
  8
0
 10
-311.511
 20
-41.1174
 11
-311.32
 21
-41.2762
  0
LINE
  8
0
 10
-311.32
 20
-41.2762
 11
-311.154
 21
-41.461
  0
LINE
  8
0
 10
-311.154
 20
-41.461
 11
-311.018
 21
-41.668
  0
LINE
  8
0
 10
-311.018
 20
-41.668
 11
-310.912
 21
-41.8927
  0
LINE
  8
0
 10
-310.912
 20
-41.8927
 11
-310.841
 21
-42.1304
  0
LINE
  8
0
 10
-310.841
 20
-42.1304
 11
-310.805
 21
-42.3759
  0
LINE
  8
0
 10
-310.805
 20
-42.3759
 11
-310.805
 21
-42.6241
  0
LINE
  8
0
 10
-310.805
 20
-42.6241
 11
-310.841
 21
-42.8696
  0
LINE
  8
0
 10
-310.841
 20
-42.8696
 11
-310.912
 21
-43.1073
  0
LINE
  8
0
 10
-310.912
 20
-43.1073
 11
-311.018
 21
-43.332
  0
LINE
  8
0
 10
-311.018
 20
-43.332
 11
-311.154
 21
-43.539
  0
LINE
  8
0
 10
-311.154
 20
-43.539
 11
-311.32
 21
-43.7238
  0
LINE
  8
0
 10
-311.32
 20
-43.7238
 11
-311.511
 21
-43.8826
  0
LINE
  8
0
 10
-311.511
 20
-43.8826
 11
-311.723
 21
-44.0119
  0
LINE
  8
0
 10
-311.723
 20
-44.0119
 11
-311.951
 21
-44.1089
  0
LINE
  8
0
 10
-311.951
 20
-44.1089
 11
-312.191
 21
-44.1717
  0
LINE
  8
0
 10
-312.191
 20
-44.1717
 11
-312.438
 21
-44.1989
  0
LINE
  8
0
 10
-312.438
 20
-44.1989
 11
-312.686
 21
-44.1898
  0
LINE
  8
0
 10
312.191
 20
-44.1717
 11
311.951
 21
-44.1089
  0
LINE
  8
0
 10
311.951
 20
-44.1089
 11
311.723
 21
-44.0119
  0
LINE
  8
0
 10
311.723
 20
-44.0119
 11
311.511
 21
-43.8826
  0
LINE
  8
0
 10
311.511
 20
-43.8826
 11
311.32
 21
-43.7238
  0
LINE
  8
0
 10
311.32
 20
-43.7238
 11
311.154
 21
-43.539
  0
LINE
  8
0
 10
311.154
 20
-43.539
 11
311.018
 21
-43.332
  0
LINE
  8
0
 10
311.018
 20
-43.332
 11
310.912
 21
-43.1073
  0
LINE
  8
0
 10
310.912
 20
-43.1073
 11
310.841
 21
-42.8696
  0
LINE
  8
0
 10
310.841
 20
-42.8696
 11
310.805
 21
-42.6241
  0
LINE
  8
0
 10
310.805
 20
-42.6241
 11
310.805
 21
-42.3759
  0
LINE
  8
0
 10
310.805
 20
-42.3759
 11
310.841
 21
-42.1304
  0
LINE
  8
0
 10
310.841
 20
-42.1304
 11
310.912
 21
-41.8927
  0
LINE
  8
0
 10
310.912
 20
-41.8927
 11
311.018
 21
-41.668
  0
LINE
  8
0
 10
311.018
 20
-41.668
 11
311.154
 21
-41.461
  0
LINE
  8
0
 10
311.154
 20
-41.461
 11
311.32
 21
-41.2762
  0
LINE
  8
0
 10
311.32
 20
-41.2762
 11
311.511
 21
-41.1174
  0
LINE
  8
0
 10
311.511
 20
-41.1174
 11
311.723
 21
-40.9881
  0
LINE
  8
0
 10
311.723
 20
-40.9881
 11
311.951
 21
-40.8911
  0
LINE
  8
0
 10
311.951
 20
-40.8911
 11
312.191
 21
-40.8283
  0
LINE
  8
0
 10
312.191
 20
-40.8283
 11
312.438
 21
-40.8011
  0
LINE
  8
0
 10
312.438
 20
-40.8011
 11
312.686
 21
-40.8102
  0
LINE
  8
0
 10
312.686
 20
-40.8102
 11
312.93
 21
-40.8553
  0
LINE
  8
0
 10
312.93
 20
-40.8553
 11
313.165
 21
-40.9354
  0
LINE
  8
0
 10
313.165
 20
-40.9354
 11
313.386
 21
-41.0489
  0
LINE
  8
0
 10
313.386
 20
-41.0489
 11
313.587
 21
-41.1933
  0
LINE
  8
0
 10
313.587
 20
-41.1933
 11
313.766
 21
-41.3656
  0
LINE
  8
0
 10
313.766
 20
-41.3656
 11
313.918
 21
-41.562
  0
LINE
  8
0
 10
313.918
 20
-41.562
 11
314.039
 21
-41.7784
  0
LINE
  8
0
 10
314.039
 20
-41.7784
 11
314.128
 21
-42.0102
  0
LINE
  8
0
 10
314.128
 20
-42.0102
 11
314.182
 21
-42.2525
  0
LINE
  8
0
 10
314.182
 20
-42.2525
 11
314.2
 21
-42.5
  0
LINE
  8
0
 10
314.2
 20
-42.5
 11
314.182
 21
-42.7475
  0
LINE
  8
0
 10
314.182
 20
-42.7475
 11
314.128
 21
-42.9898
  0
LINE
  8
0
 10
314.128
 20
-42.9898
 11
314.039
 21
-43.2216
  0
LINE
  8
0
 10
314.039
 20
-43.2216
 11
313.918
 21
-43.438
  0
LINE
  8
0
 10
313.918
 20
-43.438
 11
313.766
 21
-43.6344
  0
LINE
  8
0
 10
313.766
 20
-43.6344
 11
313.587
 21
-43.8067
  0
LINE
  8
0
 10
313.587
 20
-43.8067
 11
313.386
 21
-43.9511
  0
LINE
  8
0
 10
313.386
 20
-43.9511
 11
313.165
 21
-44.0646
  0
LINE
  8
0
 10
313.165
 20
-44.0646
 11
312.93
 21
-44.1447
  0
LINE
  8
0
 10
312.93
 20
-44.1447
 11
312.686
 21
-44.1898
  0
LINE
  8
0
 10
312.686
 20
-44.1898
 11
312.438
 21
-44.1989
  0
LINE
  8
0
 10
312.438
 20
-44.1989
 11
312.191
 21
-44.1717
  0
LINE
  8
0
 10
-312.892
 20
-88.7294
 11
-313.28
 21
-88.668
  0
LINE
  8
0
 10
-313.28
 20
-88.668
 11
-313.659
 21
-88.5665
  0
LINE
  8
0
 10
-313.659
 20
-88.5665
 11
-314.025
 21
-88.4258
  0
LINE
  8
0
 10
-314.025
 20
-88.4258
 11
-314.375
 21
-88.2476
  0
LINE
  8
0
 10
-314.375
 20
-88.2476
 11
-314.704
 21
-88.0338
  0
LINE
  8
0
 10
-314.704
 20
-88.0338
 11
-315.009
 21
-87.7868
  0
LINE
  8
0
 10
-315.009
 20
-87.7868
 11
-315.287
 21
-87.5092
  0
LINE
  8
0
 10
-315.287
 20
-87.5092
 11
-315.534
 21
-87.2042
  0
LINE
  8
0
 10
-315.534
 20
-87.2042
 11
-315.748
 21
-86.875
  0
LINE
  8
0
 10
-315.748
 20
-86.875
 11
-315.926
 21
-86.5253
  0
LINE
  8
0
 10
-315.926
 20
-86.5253
 11
-316.066
 21
-86.1588
  0
LINE
  8
0
 10
-316.066
 20
-86.1588
 11
-316.168
 21
-85.7797
  0
LINE
  8
0
 10
-316.168
 20
-85.7797
 11
-316.229
 21
-85.392
  0
LINE
  8
0
 10
-316.229
 20
-85.392
 11
-316.25
 21
-85
  0
LINE
  8
0
 10
-316.25
 20
-85
 11
-316.229
 21
-84.608
  0
LINE
  8
0
 10
-316.229
 20
-84.608
 11
-316.168
 21
-84.2203
  0
LINE
  8
0
 10
-316.168
 20
-84.2203
 11
-316.066
 21
-83.8412
  0
LINE
  8
0
 10
-316.066
 20
-83.8412
 11
-315.926
 21
-83.4747
  0
LINE
  8
0
 10
-315.926
 20
-83.4747
 11
-315.748
 21
-83.125
  0
LINE
  8
0
 10
-315.748
 20
-83.125
 11
-315.534
 21
-82.7958
  0
LINE
  8
0
 10
-315.534
 20
-82.7958
 11
-315.287
 21
-82.4908
  0
LINE
  8
0
 10
-315.287
 20
-82.4908
 11
-315.009
 21
-82.2132
  0
LINE
  8
0
 10
-315.009
 20
-82.2132
 11
-314.704
 21
-81.9662
  0
LINE
  8
0
 10
-314.704
 20
-81.9662
 11
-314.375
 21
-81.7524
  0
LINE
  8
0
 10
-314.375
 20
-81.7524
 11
-314.025
 21
-81.5742
  0
LINE
  8
0
 10
-314.025
 20
-81.5742
 11
-313.659
 21
-81.4335
  0
LINE
  8
0
 10
-313.659
 20
-81.4335
 11
-313.28
 21
-81.3319
  0
LINE
  8
0
 10
-313.28
 20
-81.3319
 11
-312.892
 21
-81.2705
  0
LINE
  8
0
 10
-312.892
 20
-81.2705
 11
-312.5
 21
-81.25
  0
LINE
  8
0
 10
-312.5
 20
-81.25
 11
-312.108
 21
-81.2705
  0
LINE
  8
0
 10
-312.108
 20
-81.2705
 11
-311.72
 21
-81.3319
  0
LINE
  8
0
 10
-311.72
 20
-81.3319
 11
-311.341
 21
-81.4335
  0
LINE
  8
0
 10
-311.341
 20
-81.4335
 11
-310.975
 21
-81.5742
  0
LINE
  8
0
 10
-310.975
 20
-81.5742
 11
-310.625
 21
-81.7524
  0
LINE
  8
0
 10
-310.625
 20
-81.7524
 11
-310.296
 21
-81.9662
  0
LINE
  8
0
 10
-310.296
 20
-81.9662
 11
-309.991
 21
-82.2132
  0
LINE
  8
0
 10
-309.991
 20
-82.2132
 11
-309.713
 21
-82.4908
  0
LINE
  8
0
 10
-309.713
 20
-82.4908
 11
-309.466
 21
-82.7958
  0
LINE
  8
0
 10
-309.466
 20
-82.7958
 11
-309.252
 21
-83.125
  0
LINE
  8
0
 10
-309.252
 20
-83.125
 11
-309.074
 21
-83.4747
  0
LINE
  8
0
 10
-309.074
 20
-83.4747
 11
-308.934
 21
-83.8412
  0
LINE
  8
0
 10
-308.934
 20
-83.8412
 11
-308.832
 21
-84.2203
  0
LINE
  8
0
 10
-308.832
 20
-84.2203
 11
-308.771
 21
-84.608
  0
LINE
  8
0
 10
-308.771
 20
-84.608
 11
-308.75
 21
-85
  0
LINE
  8
0
 10
-308.75
 20
-85
 11
-308.771
 21
-85.392
  0
LINE
  8
0
 10
-308.771
 20
-85.392
 11
-308.832
 21
-85.7797
  0
LINE
  8
0
 10
-308.832
 20
-85.7797
 11
-308.934
 21
-86.1588
  0
LINE
  8
0
 10
-308.934
 20
-86.1588
 11
-309.074
 21
-86.5253
  0
LINE
  8
0
 10
-309.074
 20
-86.5253
 11
-309.252
 21
-86.875
  0
LINE
  8
0
 10
-309.252
 20
-86.875
 11
-309.466
 21
-87.2042
  0
LINE
  8
0
 10
-309.466
 20
-87.2042
 11
-309.713
 21
-87.5092
  0
LINE
  8
0
 10
-309.713
 20
-87.5092
 11
-309.991
 21
-87.7868
  0
LINE
  8
0
 10
-309.991
 20
-87.7868
 11
-310.296
 21
-88.0338
  0
LINE
  8
0
 10
-310.296
 20
-88.0338
 11
-310.625
 21
-88.2476
  0
LINE
  8
0
 10
-310.625
 20
-88.2476
 11
-310.975
 21
-88.4258
  0
LINE
  8
0
 10
-310.975
 20
-88.4258
 11
-311.341
 21
-88.5665
  0
LINE
  8
0
 10
-311.341
 20
-88.5665
 11
-311.72
 21
-88.668
  0
LINE
  8
0
 10
-311.72
 20
-88.668
 11
-312.108
 21
-88.7294
  0
LINE
  8
0
 10
-312.108
 20
-88.7294
 11
-312.5
 21
-88.75
  0
LINE
  8
0
 10
-312.5
 20
-88.75
 11
-312.892
 21
-88.7294
  0
LINE
  8
0
 10
312.108
 20
-88.7294
 11
311.72
 21
-88.668
  0
LINE
  8
0
 10
311.72
 20
-88.668
 11
311.341
 21
-88.5665
  0
LINE
  8
0
 10
311.341
 20
-88.5665
 11
310.975
 21
-88.4258
  0
LINE
  8
0
 10
310.975
 20
-88.4258
 11
310.625
 21
-88.2476
  0
LINE
  8
0
 10
310.625
 20
-88.2476
 11
310.296
 21
-88.0338
  0
LINE
  8
0
 10
310.296
 20
-88.0338
 11
309.991
 21
-87.7868
  0
LINE
  8
0
 10
309.991
 20
-87.7868
 11
309.713
 21
-87.5092
  0
LINE
  8
0
 10
309.713
 20
-87.5092
 11
309.466
 21
-87.2042
  0
LINE
  8
0
 10
309.466
 20
-87.2042
 11
309.252
 21
-86.875
  0
LINE
  8
0
 10
309.252
 20
-86.875
 11
309.074
 21
-86.5253
  0
LINE
  8
0
 10
309.074
 20
-86.5253
 11
308.934
 21
-86.1588
  0
LINE
  8
0
 10
308.934
 20
-86.1588
 11
308.832
 21
-85.7797
  0
LINE
  8
0
 10
308.832
 20
-85.7797
 11
308.771
 21
-85.392
  0
LINE
  8
0
 10
308.771
 20
-85.392
 11
308.75
 21
-85
  0
LINE
  8
0
 10
308.75
 20
-85
 11
308.771
 21
-84.608
  0
LINE
  8
0
 10
308.771
 20
-84.608
 11
308.832
 21
-84.2203
  0
LINE
  8
0
 10
308.832
 20
-84.2203
 11
308.934
 21
-83.8412
  0
LINE
  8
0
 10
308.934
 20
-83.8412
 11
309.074
 21
-83.4747
  0
LINE
  8
0
 10
309.074
 20
-83.4747
 11
309.252
 21
-83.125
  0
LINE
  8
0
 10
309.252
 20
-83.125
 11
309.466
 21
-82.7958
  0
LINE
  8
0
 10
309.466
 20
-82.7958
 11
309.713
 21
-82.4908
  0
LINE
  8
0
 10
309.713
 20
-82.4908
 11
309.991
 21
-82.2132
  0
LINE
  8
0
 10
309.991
 20
-82.2132
 11
310.296
 21
-81.9662
  0
LINE
  8
0
 10
310.296
 20
-81.9662
 11
310.625
 21
-81.7524
  0
LINE
  8
0
 10
310.625
 20
-81.7524
 11
310.975
 21
-81.5742
  0
LINE
  8
0
 10
310.975
 20
-81.5742
 11
311.341
 21
-81.4335
  0
LINE
  8
0
 10
311.341
 20
-81.4335
 11
311.72
 21
-81.3319
  0
LINE
  8
0
 10
311.72
 20
-81.3319
 11
312.108
 21
-81.2705
  0
LINE
  8
0
 10
312.108
 20
-81.2705
 11
312.5
 21
-81.25
  0
LINE
  8
0
 10
312.5
 20
-81.25
 11
312.892
 21
-81.2705
  0
LINE
  8
0
 10
312.892
 20
-81.2705
 11
313.28
 21
-81.3319
  0
LINE
  8
0
 10
313.28
 20
-81.3319
 11
313.659
 21
-81.4335
  0
LINE
  8
0
 10
313.659
 20
-81.4335
 11
314.025
 21
-81.5742
  0
LINE
  8
0
 10
314.025
 20
-81.5742
 11
314.375
 21
-81.7524
  0
LINE
  8
0
 10
314.375
 20
-81.7524
 11
314.704
 21
-81.9662
  0
LINE
  8
0
 10
314.704
 20
-81.9662
 11
315.009
 21
-82.2132
  0
LINE
  8
0
 10
315.009
 20
-82.2132
 11
315.287
 21
-82.4908
  0
LINE
  8
0
 10
315.287
 20
-82.4908
 11
315.534
 21
-82.7958
  0
LINE
  8
0
 10
315.534
 20
-82.7958
 11
315.748
 21
-83.125
  0
LINE
  8
0
 10
315.748
 20
-83.125
 11
315.926
 21
-83.4747
  0
LINE
  8
0
 10
315.926
 20
-83.4747
 11
316.066
 21
-83.8412
  0
LINE
  8
0
 10
316.066
 20
-83.8412
 11
316.168
 21
-84.2203
  0
LINE
  8
0
 10
316.168
 20
-84.2203
 11
316.229
 21
-84.608
  0
LINE
  8
0
 10
316.229
 20
-84.608
 11
316.25
 21
-85
  0
LINE
  8
0
 10
316.25
 20
-85
 11
316.229
 21
-85.392
  0
LINE
  8
0
 10
316.229
 20
-85.392
 11
316.168
 21
-85.7797
  0
LINE
  8
0
 10
316.168
 20
-85.7797
 11
316.066
 21
-86.1588
  0
LINE
  8
0
 10
316.066
 20
-86.1588
 11
315.926
 21
-86.5253
  0
LINE
  8
0
 10
315.926
 20
-86.5253
 11
315.748
 21
-86.875
  0
LINE
  8
0
 10
315.748
 20
-86.875
 11
315.534
 21
-87.2042
  0
LINE
  8
0
 10
315.534
 20
-87.2042
 11
315.287
 21
-87.5092
  0
LINE
  8
0
 10
315.287
 20
-87.5092
 11
315.009
 21
-87.7868
  0
LINE
  8
0
 10
315.009
 20
-87.7868
 11
314.704
 21
-88.0338
  0
LINE
  8
0
 10
314.704
 20
-88.0338
 11
314.375
 21
-88.2476
  0
LINE
  8
0
 10
314.375
 20
-88.2476
 11
314.025
 21
-88.4258
  0
LINE
  8
0
 10
314.025
 20
-88.4258
 11
313.659
 21
-88.5665
  0
LINE
  8
0
 10
313.659
 20
-88.5665
 11
313.28
 21
-88.668
  0
LINE
  8
0
 10
313.28
 20
-88.668
 11
312.892
 21
-88.7294
  0
LINE
  8
0
 10
312.892
 20
-88.7294
 11
312.5
 21
-88.75
  0
LINE
  8
0
 10
312.5
 20
-88.75
 11
312.108
 21
-88.7294
  0
ENDSEC
  0
SECTION
  2
OBJECTS
  0
DICTIONARY
  0
ENDSEC
  0
EOF
