  0
SECTION
  2
BLOCKS
  0
ENDSEC
  0
SECTION
  2
ENTITIES
  0
LINE
  8
0
 10
238.898
 20
-92.3476
 11
239.415
 21
-92.2657
  0
LINE
  8
0
 10
239.415
 20
-92.2657
 11
239.92
 21
-92.1303
  0
LINE
  8
0
 10
239.92
 20
-92.1303
 11
240.409
 21
-91.9427
  0
LINE
  8
0
 10
240.409
 20
-91.9427
 11
240.875
 21
-91.7051
  0
LINE
  8
0
 10
240.875
 20
-91.7051
 11
241.314
 21
-91.4201
  0
LINE
  8
0
 10
241.314
 20
-91.4201
 11
241.721
 21
-91.0907
  0
LINE
  8
0
 10
241.721
 20
-91.0907
 11
242.091
 21
-90.7207
  0
LINE
  8
0
 10
242.091
 20
-90.7207
 11
242.42
 21
-90.3139
  0
LINE
  8
0
 10
242.42
 20
-90.3139
 11
242.705
 21
-89.875
  0
LINE
  8
0
 10
242.705
 20
-89.875
 11
242.943
 21
-89.4087
  0
LINE
  8
0
 10
242.943
 20
-89.4087
 11
243.13
 21
-88.9201
  0
LINE
  8
0
 10
243.13
 20
-88.9201
 11
243.266
 21
-88.4146
  0
LINE
  8
0
 10
243.266
 20
-88.4146
 11
243.348
 21
-87.8976
  0
LINE
  8
0
 10
243.348
 20
-87.8976
 11
243.375
 21
-87.375
  0
LINE
  8
0
 10
243.375
 20
-87.375
 11
243.375
 21
87.375
  0
LINE
  8
0
 10
243.375
 20
87.375
 11
243.348
 21
87.8976
  0
LINE
  8
0
 10
243.348
 20
87.8976
 11
243.266
 21
88.4146
  0
LINE
  8
0
 10
243.266
 20
88.4146
 11
243.13
 21
88.9201
  0
LINE
  8
0
 10
243.13
 20
88.9201
 11
242.943
 21
89.4087
  0
LINE
  8
0
 10
242.943
 20
89.4087
 11
242.705
 21
89.875
  0
LINE
  8
0
 10
242.705
 20
89.875
 11
242.42
 21
90.3139
  0
LINE
  8
0
 10
242.42
 20
90.3139
 11
242.091
 21
90.7207
  0
LINE
  8
0
 10
242.091
 20
90.7207
 11
241.721
 21
91.0907
  0
LINE
  8
0
 10
241.721
 20
91.0907
 11
241.314
 21
91.4201
  0
LINE
  8
0
 10
241.314
 20
91.4201
 11
240.875
 21
91.7051
  0
LINE
  8
0
 10
240.875
 20
91.7051
 11
240.409
 21
91.9427
  0
LINE
  8
0
 10
240.409
 20
91.9427
 11
239.92
 21
92.1303
  0
LINE
  8
0
 10
239.92
 20
92.1303
 11
239.415
 21
92.2657
  0
LINE
  8
0
 10
239.415
 20
92.2657
 11
238.898
 21
92.3476
  0
LINE
  8
0
 10
238.898
 20
92.3476
 11
238.375
 21
92.375
  0
LINE
  8
0
 10
238.375
 20
92.375
 11
-238.375
 21
92.375
  0
LINE
  8
0
 10
-238.375
 20
92.375
 11
-238.898
 21
92.3476
  0
LINE
  8
0
 10
-238.898
 20
92.3476
 11
-239.415
 21
92.2657
  0
LINE
  8
0
 10
-239.415
 20
92.2657
 11
-239.92
 21
92.1303
  0
LINE
  8
0
 10
-239.92
 20
92.1303
 11
-240.409
 21
91.9427
  0
LINE
  8
0
 10
-240.409
 20
91.9427
 11
-240.875
 21
91.7051
  0
LINE
  8
0
 10
-240.875
 20
91.7051
 11
-241.314
 21
91.4201
  0
LINE
  8
0
 10
-241.314
 20
91.4201
 11
-241.721
 21
91.0907
  0
LINE
  8
0
 10
-241.721
 20
91.0907
 11
-242.091
 21
90.7207
  0
LINE
  8
0
 10
-242.091
 20
90.7207
 11
-242.42
 21
90.3139
  0
LINE
  8
0
 10
-242.42
 20
90.3139
 11
-242.705
 21
89.875
  0
LINE
  8
0
 10
-242.705
 20
89.875
 11
-242.943
 21
89.4087
  0
LINE
  8
0
 10
-242.943
 20
89.4087
 11
-243.13
 21
88.9201
  0
LINE
  8
0
 10
-243.13
 20
88.9201
 11
-243.266
 21
88.4146
  0
LINE
  8
0
 10
-243.266
 20
88.4146
 11
-243.348
 21
87.8976
  0
LINE
  8
0
 10
-243.348
 20
87.8976
 11
-243.375
 21
87.375
  0
LINE
  8
0
 10
-243.375
 20
87.375
 11
-243.375
 21
-87.375
  0
LINE
  8
0
 10
-243.375
 20
-87.375
 11
-243.348
 21
-87.8976
  0
LINE
  8
0
 10
-243.348
 20
-87.8976
 11
-243.266
 21
-88.4146
  0
LINE
  8
0
 10
-243.266
 20
-88.4146
 11
-243.13
 21
-88.9201
  0
LINE
  8
0
 10
-243.13
 20
-88.9201
 11
-242.943
 21
-89.4087
  0
LINE
  8
0
 10
-242.943
 20
-89.4087
 11
-242.705
 21
-89.875
  0
LINE
  8
0
 10
-242.705
 20
-89.875
 11
-242.42
 21
-90.3139
  0
LINE
  8
0
 10
-242.42
 20
-90.3139
 11
-242.091
 21
-90.7207
  0
LINE
  8
0
 10
-242.091
 20
-90.7207
 11
-241.721
 21
-91.0907
  0
LINE
  8
0
 10
-241.721
 20
-91.0907
 11
-241.314
 21
-91.4201
  0
LINE
  8
0
 10
-241.314
 20
-91.4201
 11
-240.875
 21
-91.7051
  0
LINE
  8
0
 10
-240.875
 20
-91.7051
 11
-240.409
 21
-91.9427
  0
LINE
  8
0
 10
-240.409
 20
-91.9427
 11
-239.92
 21
-92.1303
  0
LINE
  8
0
 10
-239.92
 20
-92.1303
 11
-239.415
 21
-92.2657
  0
LINE
  8
0
 10
-239.415
 20
-92.2657
 11
-238.898
 21
-92.3476
  0
LINE
  8
0
 10
-238.898
 20
-92.3476
 11
-238.375
 21
-92.375
  0
LINE
  8
0
 10
-238.375
 20
-92.375
 11
238.375
 21
-92.375
  0
LINE
  8
0
 10
238.375
 20
-92.375
 11
238.898
 21
-92.3476
  0
LINE
  8
0
 10
235.608
 20
81.2705
 11
235.22
 21
81.3319
  0
LINE
  8
0
 10
235.22
 20
81.3319
 11
234.841
 21
81.4335
  0
LINE
  8
0
 10
234.841
 20
81.4335
 11
234.475
 21
81.5742
  0
LINE
  8
0
 10
234.475
 20
81.5742
 11
234.125
 21
81.7524
  0
LINE
  8
0
 10
234.125
 20
81.7524
 11
233.796
 21
81.9662
  0
LINE
  8
0
 10
233.796
 20
81.9662
 11
233.491
 21
82.2132
  0
LINE
  8
0
 10
233.491
 20
82.2132
 11
233.213
 21
82.4908
  0
LINE
  8
0
 10
233.213
 20
82.4908
 11
232.966
 21
82.7958
  0
LINE
  8
0
 10
232.966
 20
82.7958
 11
232.752
 21
83.125
  0
LINE
  8
0
 10
232.752
 20
83.125
 11
232.574
 21
83.4747
  0
LINE
  8
0
 10
232.574
 20
83.4747
 11
232.434
 21
83.8412
  0
LINE
  8
0
 10
232.434
 20
83.8412
 11
232.332
 21
84.2203
  0
LINE
  8
0
 10
232.332
 20
84.2203
 11
232.271
 21
84.608
  0
LINE
  8
0
 10
232.271
 20
84.608
 11
232.25
 21
85
  0
LINE
  8
0
 10
232.25
 20
85
 11
232.271
 21
85.392
  0
LINE
  8
0
 10
232.271
 20
85.392
 11
232.332
 21
85.7797
  0
LINE
  8
0
 10
232.332
 20
85.7797
 11
232.434
 21
86.1588
  0
LINE
  8
0
 10
232.434
 20
86.1588
 11
232.574
 21
86.5253
  0
LINE
  8
0
 10
232.574
 20
86.5253
 11
232.752
 21
86.875
  0
LINE
  8
0
 10
232.752
 20
86.875
 11
232.966
 21
87.2042
  0
LINE
  8
0
 10
232.966
 20
87.2042
 11
233.213
 21
87.5092
  0
LINE
  8
0
 10
233.213
 20
87.5092
 11
233.491
 21
87.7868
  0
LINE
  8
0
 10
233.491
 20
87.7868
 11
233.796
 21
88.0338
  0
LINE
  8
0
 10
233.796
 20
88.0338
 11
234.125
 21
88.2476
  0
LINE
  8
0
 10
234.125
 20
88.2476
 11
234.475
 21
88.4258
  0
LINE
  8
0
 10
234.475
 20
88.4258
 11
234.841
 21
88.5665
  0
LINE
  8
0
 10
234.841
 20
88.5665
 11
235.22
 21
88.668
  0
LINE
  8
0
 10
235.22
 20
88.668
 11
235.608
 21
88.7294
  0
LINE
  8
0
 10
235.608
 20
88.7294
 11
236
 21
88.75
  0
LINE
  8
0
 10
236
 20
88.75
 11
236.392
 21
88.7294
  0
LINE
  8
0
 10
236.392
 20
88.7294
 11
236.78
 21
88.668
  0
LINE
  8
0
 10
236.78
 20
88.668
 11
237.159
 21
88.5665
  0
LINE
  8
0
 10
237.159
 20
88.5665
 11
237.525
 21
88.4258
  0
LINE
  8
0
 10
237.525
 20
88.4258
 11
237.875
 21
88.2476
  0
LINE
  8
0
 10
237.875
 20
88.2476
 11
238.204
 21
88.0338
  0
LINE
  8
0
 10
238.204
 20
88.0338
 11
238.509
 21
87.7868
  0
LINE
  8
0
 10
238.509
 20
87.7868
 11
238.787
 21
87.5092
  0
LINE
  8
0
 10
238.787
 20
87.5092
 11
239.034
 21
87.2042
  0
LINE
  8
0
 10
239.034
 20
87.2042
 11
239.248
 21
86.875
  0
LINE
  8
0
 10
239.248
 20
86.875
 11
239.426
 21
86.5253
  0
LINE
  8
0
 10
239.426
 20
86.5253
 11
239.566
 21
86.1588
  0
LINE
  8
0
 10
239.566
 20
86.1588
 11
239.668
 21
85.7797
  0
LINE
  8
0
 10
239.668
 20
85.7797
 11
239.729
 21
85.392
  0
LINE
  8
0
 10
239.729
 20
85.392
 11
239.75
 21
85
  0
LINE
  8
0
 10
239.75
 20
85
 11
239.729
 21
84.608
  0
LINE
  8
0
 10
239.729
 20
84.608
 11
239.668
 21
84.2203
  0
LINE
  8
0
 10
239.668
 20
84.2203
 11
239.566
 21
83.8412
  0
LINE
  8
0
 10
239.566
 20
83.8412
 11
239.426
 21
83.4747
  0
LINE
  8
0
 10
239.426
 20
83.4747
 11
239.248
 21
83.125
  0
LINE
  8
0
 10
239.248
 20
83.125
 11
239.034
 21
82.7958
  0
LINE
  8
0
 10
239.034
 20
82.7958
 11
238.787
 21
82.4908
  0
LINE
  8
0
 10
238.787
 20
82.4908
 11
238.509
 21
82.2132
  0
LINE
  8
0
 10
238.509
 20
82.2132
 11
238.204
 21
81.9662
  0
LINE
  8
0
 10
238.204
 20
81.9662
 11
237.875
 21
81.7524
  0
LINE
  8
0
 10
237.875
 20
81.7524
 11
237.525
 21
81.5742
  0
LINE
  8
0
 10
237.525
 20
81.5742
 11
237.159
 21
81.4335
  0
LINE
  8
0
 10
237.159
 20
81.4335
 11
236.78
 21
81.3319
  0
LINE
  8
0
 10
236.78
 20
81.3319
 11
236.392
 21
81.2705
  0
LINE
  8
0
 10
236.392
 20
81.2705
 11
236
 21
81.25
  0
LINE
  8
0
 10
236
 20
81.25
 11
235.608
 21
81.2705
  0
LINE
  8
0
 10
-236.392
 20
81.2705
 11
-236.78
 21
81.3319
  0
LINE
  8
0
 10
-236.78
 20
81.3319
 11
-237.159
 21
81.4335
  0
LINE
  8
0
 10
-237.159
 20
81.4335
 11
-237.525
 21
81.5742
  0
LINE
  8
0
 10
-237.525
 20
81.5742
 11
-237.875
 21
81.7524
  0
LINE
  8
0
 10
-237.875
 20
81.7524
 11
-238.204
 21
81.9662
  0
LINE
  8
0
 10
-238.204
 20
81.9662
 11
-238.509
 21
82.2132
  0
LINE
  8
0
 10
-238.509
 20
82.2132
 11
-238.787
 21
82.4908
  0
LINE
  8
0
 10
-238.787
 20
82.4908
 11
-239.034
 21
82.7958
  0
LINE
  8
0
 10
-239.034
 20
82.7958
 11
-239.248
 21
83.125
  0
LINE
  8
0
 10
-239.248
 20
83.125
 11
-239.426
 21
83.4747
  0
LINE
  8
0
 10
-239.426
 20
83.4747
 11
-239.566
 21
83.8412
  0
LINE
  8
0
 10
-239.566
 20
83.8412
 11
-239.668
 21
84.2203
  0
LINE
  8
0
 10
-239.668
 20
84.2203
 11
-239.729
 21
84.608
  0
LINE
  8
0
 10
-239.729
 20
84.608
 11
-239.75
 21
85
  0
LINE
  8
0
 10
-239.75
 20
85
 11
-239.729
 21
85.392
  0
LINE
  8
0
 10
-239.729
 20
85.392
 11
-239.668
 21
85.7797
  0
LINE
  8
0
 10
-239.668
 20
85.7797
 11
-239.566
 21
86.1588
  0
LINE
  8
0
 10
-239.566
 20
86.1588
 11
-239.426
 21
86.5253
  0
LINE
  8
0
 10
-239.426
 20
86.5253
 11
-239.248
 21
86.875
  0
LINE
  8
0
 10
-239.248
 20
86.875
 11
-239.034
 21
87.2042
  0
LINE
  8
0
 10
-239.034
 20
87.2042
 11
-238.787
 21
87.5092
  0
LINE
  8
0
 10
-238.787
 20
87.5092
 11
-238.509
 21
87.7868
  0
LINE
  8
0
 10
-238.509
 20
87.7868
 11
-238.204
 21
88.0338
  0
LINE
  8
0
 10
-238.204
 20
88.0338
 11
-237.875
 21
88.2476
  0
LINE
  8
0
 10
-237.875
 20
88.2476
 11
-237.525
 21
88.4258
  0
LINE
  8
0
 10
-237.525
 20
88.4258
 11
-237.159
 21
88.5665
  0
LINE
  8
0
 10
-237.159
 20
88.5665
 11
-236.78
 21
88.668
  0
LINE
  8
0
 10
-236.78
 20
88.668
 11
-236.392
 21
88.7294
  0
LINE
  8
0
 10
-236.392
 20
88.7294
 11
-236
 21
88.75
  0
LINE
  8
0
 10
-236
 20
88.75
 11
-235.608
 21
88.7294
  0
LINE
  8
0
 10
-235.608
 20
88.7294
 11
-235.22
 21
88.668
  0
LINE
  8
0
 10
-235.22
 20
88.668
 11
-234.841
 21
88.5665
  0
LINE
  8
0
 10
-234.841
 20
88.5665
 11
-234.475
 21
88.4258
  0
LINE
  8
0
 10
-234.475
 20
88.4258
 11
-234.125
 21
88.2476
  0
LINE
  8
0
 10
-234.125
 20
88.2476
 11
-233.796
 21
88.0338
  0
LINE
  8
0
 10
-233.796
 20
88.0338
 11
-233.491
 21
87.7868
  0
LINE
  8
0
 10
-233.491
 20
87.7868
 11
-233.213
 21
87.5092
  0
LINE
  8
0
 10
-233.213
 20
87.5092
 11
-232.966
 21
87.2042
  0
LINE
  8
0
 10
-232.966
 20
87.2042
 11
-232.752
 21
86.875
  0
LINE
  8
0
 10
-232.752
 20
86.875
 11
-232.574
 21
86.5253
  0
LINE
  8
0
 10
-232.574
 20
86.5253
 11
-232.434
 21
86.1588
  0
LINE
  8
0
 10
-232.434
 20
86.1588
 11
-232.332
 21
85.7797
  0
LINE
  8
0
 10
-232.332
 20
85.7797
 11
-232.271
 21
85.392
  0
LINE
  8
0
 10
-232.271
 20
85.392
 11
-232.25
 21
85
  0
LINE
  8
0
 10
-232.25
 20
85
 11
-232.271
 21
84.608
  0
LINE
  8
0
 10
-232.271
 20
84.608
 11
-232.332
 21
84.2203
  0
LINE
  8
0
 10
-232.332
 20
84.2203
 11
-232.434
 21
83.8412
  0
LINE
  8
0
 10
-232.434
 20
83.8412
 11
-232.574
 21
83.4747
  0
LINE
  8
0
 10
-232.574
 20
83.4747
 11
-232.752
 21
83.125
  0
LINE
  8
0
 10
-232.752
 20
83.125
 11
-232.966
 21
82.7958
  0
LINE
  8
0
 10
-232.966
 20
82.7958
 11
-233.213
 21
82.4908
  0
LINE
  8
0
 10
-233.213
 20
82.4908
 11
-233.491
 21
82.2132
  0
LINE
  8
0
 10
-233.491
 20
82.2132
 11
-233.796
 21
81.9662
  0
LINE
  8
0
 10
-233.796
 20
81.9662
 11
-234.125
 21
81.7524
  0
LINE
  8
0
 10
-234.125
 20
81.7524
 11
-234.475
 21
81.5742
  0
LINE
  8
0
 10
-234.475
 20
81.5742
 11
-234.841
 21
81.4335
  0
LINE
  8
0
 10
-234.841
 20
81.4335
 11
-235.22
 21
81.3319
  0
LINE
  8
0
 10
-235.22
 20
81.3319
 11
-235.608
 21
81.2705
  0
LINE
  8
0
 10
-235.608
 20
81.2705
 11
-236
 21
81.25
  0
LINE
  8
0
 10
-236
 20
81.25
 11
-236.392
 21
81.2705
  0
LINE
  8
0
 10
-193.809
 20
83.3283
 11
-194.049
 21
83.3911
  0
LINE
  8
0
 10
-194.049
 20
83.3911
 11
-194.277
 21
83.4881
  0
LINE
  8
0
 10
-194.277
 20
83.4881
 11
-194.489
 21
83.6174
  0
LINE
  8
0
 10
-194.489
 20
83.6174
 11
-194.68
 21
83.7762
  0
LINE
  8
0
 10
-194.68
 20
83.7762
 11
-194.846
 21
83.961
  0
LINE
  8
0
 10
-194.846
 20
83.961
 11
-194.982
 21
84.168
  0
LINE
  8
0
 10
-194.982
 20
84.168
 11
-195.088
 21
84.3927
  0
LINE
  8
0
 10
-195.088
 20
84.3927
 11
-195.159
 21
84.6304
  0
LINE
  8
0
 10
-195.159
 20
84.6304
 11
-195.195
 21
84.8759
  0
LINE
  8
0
 10
-195.195
 20
84.8759
 11
-195.195
 21
85.1241
  0
LINE
  8
0
 10
-195.195
 20
85.1241
 11
-195.159
 21
85.3696
  0
LINE
  8
0
 10
-195.159
 20
85.3696
 11
-195.088
 21
85.6073
  0
LINE
  8
0
 10
-195.088
 20
85.6073
 11
-194.982
 21
85.832
  0
LINE
  8
0
 10
-194.982
 20
85.832
 11
-194.846
 21
86.039
  0
LINE
  8
0
 10
-194.846
 20
86.039
 11
-194.68
 21
86.2238
  0
LINE
  8
0
 10
-194.68
 20
86.2238
 11
-194.489
 21
86.3826
  0
LINE
  8
0
 10
-194.489
 20
86.3826
 11
-194.277
 21
86.5119
  0
LINE
  8
0
 10
-194.277
 20
86.5119
 11
-194.049
 21
86.6089
  0
LINE
  8
0
 10
-194.049
 20
86.6089
 11
-193.809
 21
86.6717
  0
LINE
  8
0
 10
-193.809
 20
86.6717
 11
-193.562
 21
86.6989
  0
LINE
  8
0
 10
-193.562
 20
86.6989
 11
-193.314
 21
86.6898
  0
LINE
  8
0
 10
-193.314
 20
86.6898
 11
-193.07
 21
86.6447
  0
LINE
  8
0
 10
-193.07
 20
86.6447
 11
-192.835
 21
86.5646
  0
LINE
  8
0
 10
-192.835
 20
86.5646
 11
-192.614
 21
86.4511
  0
LINE
  8
0
 10
-192.614
 20
86.4511
 11
-192.413
 21
86.3067
  0
LINE
  8
0
 10
-192.413
 20
86.3067
 11
-192.234
 21
86.1344
  0
LINE
  8
0
 10
-192.234
 20
86.1344
 11
-192.082
 21
85.938
  0
LINE
  8
0
 10
-192.082
 20
85.938
 11
-191.961
 21
85.7216
  0
LINE
  8
0
 10
-191.961
 20
85.7216
 11
-191.872
 21
85.4898
  0
LINE
  8
0
 10
-191.872
 20
85.4898
 11
-191.818
 21
85.2475
  0
LINE
  8
0
 10
-191.818
 20
85.2475
 11
-191.8
 21
85
  0
LINE
  8
0
 10
-191.8
 20
85
 11
-191.818
 21
84.7525
  0
LINE
  8
0
 10
-191.818
 20
84.7525
 11
-191.872
 21
84.5102
  0
LINE
  8
0
 10
-191.872
 20
84.5102
 11
-191.961
 21
84.2784
  0
LINE
  8
0
 10
-191.961
 20
84.2784
 11
-192.082
 21
84.062
  0
LINE
  8
0
 10
-192.082
 20
84.062
 11
-192.234
 21
83.8656
  0
LINE
  8
0
 10
-192.234
 20
83.8656
 11
-192.413
 21
83.6933
  0
LINE
  8
0
 10
-192.413
 20
83.6933
 11
-192.614
 21
83.5489
  0
LINE
  8
0
 10
-192.614
 20
83.5489
 11
-192.835
 21
83.4354
  0
LINE
  8
0
 10
-192.835
 20
83.4354
 11
-193.07
 21
83.3553
  0
LINE
  8
0
 10
-193.07
 20
83.3553
 11
-193.314
 21
83.3102
  0
LINE
  8
0
 10
-193.314
 20
83.3102
 11
-193.562
 21
83.3011
  0
LINE
  8
0
 10
-193.562
 20
83.3011
 11
-193.809
 21
83.3283
  0
LINE
  8
0
 10
-97.0588
 20
83.3283
 11
-97.2989
 21
83.3911
  0
LINE
  8
0
 10
-97.2989
 20
83.3911
 11
-97.5273
 21
83.4881
  0
LINE
  8
0
 10
-97.5273
 20
83.4881
 11
-97.7392
 21
83.6174
  0
LINE
  8
0
 10
-97.7392
 20
83.6174
 11
-97.9299
 21
83.7762
  0
LINE
  8
0
 10
-97.9299
 20
83.7762
 11
-98.0955
 21
83.961
  0
LINE
  8
0
 10
-98.0955
 20
83.961
 11
-98.2325
 21
84.168
  0
LINE
  8
0
 10
-98.2325
 20
84.168
 11
-98.3378
 21
84.3927
  0
LINE
  8
0
 10
-98.3378
 20
84.3927
 11
-98.4093
 21
84.6304
  0
LINE
  8
0
 10
-98.4093
 20
84.6304
 11
-98.4455
 21
84.8759
  0
LINE
  8
0
 10
-98.4455
 20
84.8759
 11
-98.4455
 21
85.1241
  0
LINE
  8
0
 10
-98.4455
 20
85.1241
 11
-98.4093
 21
85.3696
  0
LINE
  8
0
 10
-98.4093
 20
85.3696
 11
-98.3378
 21
85.6073
  0
LINE
  8
0
 10
-98.3378
 20
85.6073
 11
-98.2325
 21
85.832
  0
LINE
  8
0
 10
-98.2325
 20
85.832
 11
-98.0955
 21
86.039
  0
LINE
  8
0
 10
-98.0955
 20
86.039
 11
-97.9299
 21
86.2238
  0
LINE
  8
0
 10
-97.9299
 20
86.2238
 11
-97.7392
 21
86.3826
  0
LINE
  8
0
 10
-97.7392
 20
86.3826
 11
-97.5273
 21
86.5119
  0
LINE
  8
0
 10
-97.5273
 20
86.5119
 11
-97.2989
 21
86.6089
  0
LINE
  8
0
 10
-97.2989
 20
86.6089
 11
-97.0588
 21
86.6717
  0
LINE
  8
0
 10
-97.0588
 20
86.6717
 11
-96.8121
 21
86.6989
  0
LINE
  8
0
 10
-96.8121
 20
86.6989
 11
-96.5641
 21
86.6898
  0
LINE
  8
0
 10
-96.5641
 20
86.6898
 11
-96.32
 21
86.6447
  0
LINE
  8
0
 10
-96.32
 20
86.6447
 11
-96.0851
 21
86.5646
  0
LINE
  8
0
 10
-96.0851
 20
86.5646
 11
-95.8644
 21
86.4511
  0
LINE
  8
0
 10
-95.8644
 20
86.4511
 11
-95.6626
 21
86.3067
  0
LINE
  8
0
 10
-95.6626
 20
86.3067
 11
-95.4839
 21
86.1344
  0
LINE
  8
0
 10
-95.4839
 20
86.1344
 11
-95.3322
 21
85.938
  0
LINE
  8
0
 10
-95.3322
 20
85.938
 11
-95.2107
 21
85.7216
  0
LINE
  8
0
 10
-95.2107
 20
85.7216
 11
-95.1221
 21
85.4898
  0
LINE
  8
0
 10
-95.1221
 20
85.4898
 11
-95.0681
 21
85.2475
  0
LINE
  8
0
 10
-95.0681
 20
85.2475
 11
-95.05
 21
85
  0
LINE
  8
0
 10
-95.05
 20
85
 11
-95.0681
 21
84.7525
  0
LINE
  8
0
 10
-95.0681
 20
84.7525
 11
-95.1221
 21
84.5102
  0
LINE
  8
0
 10
-95.1221
 20
84.5102
 11
-95.2107
 21
84.2784
  0
LINE
  8
0
 10
-95.2107
 20
84.2784
 11
-95.3322
 21
84.062
  0
LINE
  8
0
 10
-95.3322
 20
84.062
 11
-95.4839
 21
83.8656
  0
LINE
  8
0
 10
-95.4839
 20
83.8656
 11
-95.6626
 21
83.6933
  0
LINE
  8
0
 10
-95.6626
 20
83.6933
 11
-95.8644
 21
83.5489
  0
LINE
  8
0
 10
-95.8644
 20
83.5489
 11
-96.0851
 21
83.4354
  0
LINE
  8
0
 10
-96.0851
 20
83.4354
 11
-96.32
 21
83.3553
  0
LINE
  8
0
 10
-96.32
 20
83.3553
 11
-96.5641
 21
83.3102
  0
LINE
  8
0
 10
-96.5641
 20
83.3102
 11
-96.8121
 21
83.3011
  0
LINE
  8
0
 10
-96.8121
 20
83.3011
 11
-97.0588
 21
83.3283
  0
LINE
  8
0
 10
-0.308777
 20
83.3283
 11
-0.548889
 21
83.3911
  0
LINE
  8
0
 10
-0.548889
 20
83.3911
 11
-0.777298
 21
83.4881
  0
LINE
  8
0
 10
-0.777298
 20
83.4881
 11
-0.989151
 21
83.6174
  0
LINE
  8
0
 10
-0.989151
 20
83.6174
 11
-1.17992
 21
83.7762
  0
LINE
  8
0
 10
-1.17992
 20
83.7762
 11
-1.34554
 21
83.961
  0
LINE
  8
0
 10
-1.34554
 20
83.961
 11
-1.48248
 21
84.168
  0
LINE
  8
0
 10
-1.48248
 20
84.168
 11
-1.58781
 21
84.3927
  0
LINE
  8
0
 10
-1.58781
 20
84.3927
 11
-1.65932
 21
84.6304
  0
LINE
  8
0
 10
-1.65932
 20
84.6304
 11
-1.69545
 21
84.8759
  0
LINE
  8
0
 10
-1.69545
 20
84.8759
 11
-1.69545
 21
85.1241
  0
LINE
  8
0
 10
-1.69545
 20
85.1241
 11
-1.65932
 21
85.3696
  0
LINE
  8
0
 10
-1.65932
 20
85.3696
 11
-1.58781
 21
85.6073
  0
LINE
  8
0
 10
-1.58781
 20
85.6073
 11
-1.48248
 21
85.832
  0
LINE
  8
0
 10
-1.48248
 20
85.832
 11
-1.34554
 21
86.039
  0
LINE
  8
0
 10
-1.34554
 20
86.039
 11
-1.17992
 21
86.2238
  0
LINE
  8
0
 10
-1.17992
 20
86.2238
 11
-0.989151
 21
86.3826
  0
LINE
  8
0
 10
-0.989151
 20
86.3826
 11
-0.777298
 21
86.5119
  0
LINE
  8
0
 10
-0.777298
 20
86.5119
 11
-0.548889
 21
86.6089
  0
LINE
  8
0
 10
-0.548889
 20
86.6089
 11
-0.308777
 21
86.6717
  0
LINE
  8
0
 10
-0.308777
 20
86.6717
 11
-0.0620728
 21
86.6989
  0
LINE
  8
0
 10
-0.0620728
 20
86.6989
 11
0.185928
 21
86.6898
  0
LINE
  8
0
 10
0.185928
 20
86.6898
 11
0.429977
 21
86.6447
  0
LINE
  8
0
 10
0.429977
 20
86.6447
 11
0.664871
 21
86.5646
  0
LINE
  8
0
 10
0.664871
 20
86.5646
 11
0.88559
 21
86.4511
  0
LINE
  8
0
 10
0.88559
 20
86.4511
 11
1.08743
 21
86.3067
  0
LINE
  8
0
 10
1.08743
 20
86.3067
 11
1.2661
 21
86.1344
  0
LINE
  8
0
 10
1.2661
 20
86.1344
 11
1.41779
 21
85.938
  0
LINE
  8
0
 10
1.41779
 20
85.938
 11
1.53926
 21
85.7216
  0
LINE
  8
0
 10
1.53926
 20
85.7216
 11
1.62791
 21
85.4898
  0
LINE
  8
0
 10
1.62791
 20
85.4898
 11
1.68187
 21
85.2475
  0
LINE
  8
0
 10
1.68187
 20
85.2475
 11
1.7
 21
85
  0
LINE
  8
0
 10
1.7
 20
85
 11
1.68187
 21
84.7525
  0
LINE
  8
0
 10
1.68187
 20
84.7525
 11
1.62791
 21
84.5102
  0
LINE
  8
0
 10
1.62791
 20
84.5102
 11
1.53926
 21
84.2784
  0
LINE
  8
0
 10
1.53926
 20
84.2784
 11
1.41779
 21
84.062
  0
LINE
  8
0
 10
1.41779
 20
84.062
 11
1.2661
 21
83.8656
  0
LINE
  8
0
 10
1.2661
 20
83.8656
 11
1.08743
 21
83.6933
  0
LINE
  8
0
 10
1.08743
 20
83.6933
 11
0.88559
 21
83.5489
  0
LINE
  8
0
 10
0.88559
 20
83.5489
 11
0.664871
 21
83.4354
  0
LINE
  8
0
 10
0.664871
 20
83.4354
 11
0.429977
 21
83.3553
  0
LINE
  8
0
 10
0.429977
 20
83.3553
 11
0.185928
 21
83.3102
  0
LINE
  8
0
 10
0.185928
 20
83.3102
 11
-0.0620728
 21
83.3011
  0
LINE
  8
0
 10
-0.0620728
 20
83.3011
 11
-0.308777
 21
83.3283
  0
LINE
  8
0
 10
96.4412
 20
83.3283
 11
96.2011
 21
83.3911
  0
LINE
  8
0
 10
96.2011
 20
83.3911
 11
95.9727
 21
83.4881
  0
LINE
  8
0
 10
95.9727
 20
83.4881
 11
95.7608
 21
83.6174
  0
LINE
  8
0
 10
95.7608
 20
83.6174
 11
95.5701
 21
83.7762
  0
LINE
  8
0
 10
95.5701
 20
83.7762
 11
95.4044
 21
83.961
  0
LINE
  8
0
 10
95.4044
 20
83.961
 11
95.2675
 21
84.168
  0
LINE
  8
0
 10
95.2675
 20
84.168
 11
95.1622
 21
84.3927
  0
LINE
  8
0
 10
95.1622
 20
84.3927
 11
95.0907
 21
84.6304
  0
LINE
  8
0
 10
95.0907
 20
84.6304
 11
95.0545
 21
84.8759
  0
LINE
  8
0
 10
95.0545
 20
84.8759
 11
95.0545
 21
85.1241
  0
LINE
  8
0
 10
95.0545
 20
85.1241
 11
95.0907
 21
85.3696
  0
LINE
  8
0
 10
95.0907
 20
85.3696
 11
95.1622
 21
85.6073
  0
LINE
  8
0
 10
95.1622
 20
85.6073
 11
95.2675
 21
85.832
  0
LINE
  8
0
 10
95.2675
 20
85.832
 11
95.4044
 21
86.039
  0
LINE
  8
0
 10
95.4044
 20
86.039
 11
95.5701
 21
86.2238
  0
LINE
  8
0
 10
95.5701
 20
86.2238
 11
95.7608
 21
86.3826
  0
LINE
  8
0
 10
95.7608
 20
86.3826
 11
95.9727
 21
86.5119
  0
LINE
  8
0
 10
95.9727
 20
86.5119
 11
96.2011
 21
86.6089
  0
LINE
  8
0
 10
96.2011
 20
86.6089
 11
96.4412
 21
86.6717
  0
LINE
  8
0
 10
96.4412
 20
86.6717
 11
96.6879
 21
86.6989
  0
LINE
  8
0
 10
96.6879
 20
86.6989
 11
96.9359
 21
86.6898
  0
LINE
  8
0
 10
96.9359
 20
86.6898
 11
97.18
 21
86.6447
  0
LINE
  8
0
 10
97.18
 20
86.6447
 11
97.4149
 21
86.5646
  0
LINE
  8
0
 10
97.4149
 20
86.5646
 11
97.6356
 21
86.4511
  0
LINE
  8
0
 10
97.6356
 20
86.4511
 11
97.8374
 21
86.3067
  0
LINE
  8
0
 10
97.8374
 20
86.3067
 11
98.0161
 21
86.1344
  0
LINE
  8
0
 10
98.0161
 20
86.1344
 11
98.1678
 21
85.938
  0
LINE
  8
0
 10
98.1678
 20
85.938
 11
98.2893
 21
85.7216
  0
LINE
  8
0
 10
98.2893
 20
85.7216
 11
98.3779
 21
85.4898
  0
LINE
  8
0
 10
98.3779
 20
85.4898
 11
98.4319
 21
85.2475
  0
LINE
  8
0
 10
98.4319
 20
85.2475
 11
98.45
 21
85
  0
LINE
  8
0
 10
98.45
 20
85
 11
98.4319
 21
84.7525
  0
LINE
  8
0
 10
98.4319
 20
84.7525
 11
98.3779
 21
84.5102
  0
LINE
  8
0
 10
98.3779
 20
84.5102
 11
98.2893
 21
84.2784
  0
LINE
  8
0
 10
98.2893
 20
84.2784
 11
98.1678
 21
84.062
  0
LINE
  8
0
 10
98.1678
 20
84.062
 11
98.0161
 21
83.8656
  0
LINE
  8
0
 10
98.0161
 20
83.8656
 11
97.8374
 21
83.6933
  0
LINE
  8
0
 10
97.8374
 20
83.6933
 11
97.6356
 21
83.5489
  0
LINE
  8
0
 10
97.6356
 20
83.5489
 11
97.4149
 21
83.4354
  0
LINE
  8
0
 10
97.4149
 20
83.4354
 11
97.18
 21
83.3553
  0
LINE
  8
0
 10
97.18
 20
83.3553
 11
96.9359
 21
83.3102
  0
LINE
  8
0
 10
96.9359
 20
83.3102
 11
96.6879
 21
83.3011
  0
LINE
  8
0
 10
96.6879
 20
83.3011
 11
96.4412
 21
83.3283
  0
LINE
  8
0
 10
193.191
 20
83.3283
 11
192.951
 21
83.3911
  0
LINE
  8
0
 10
192.951
 20
83.3911
 11
192.723
 21
83.4881
  0
LINE
  8
0
 10
192.723
 20
83.4881
 11
192.511
 21
83.6174
  0
LINE
  8
0
 10
192.511
 20
83.6174
 11
192.32
 21
83.7762
  0
LINE
  8
0
 10
192.32
 20
83.7762
 11
192.154
 21
83.961
  0
LINE
  8
0
 10
192.154
 20
83.961
 11
192.018
 21
84.168
  0
LINE
  8
0
 10
192.018
 20
84.168
 11
191.912
 21
84.3927
  0
LINE
  8
0
 10
191.912
 20
84.3927
 11
191.841
 21
84.6304
  0
LINE
  8
0
 10
191.841
 20
84.6304
 11
191.805
 21
84.8759
  0
LINE
  8
0
 10
191.805
 20
84.8759
 11
191.805
 21
85.1241
  0
LINE
  8
0
 10
191.805
 20
85.1241
 11
191.841
 21
85.3696
  0
LINE
  8
0
 10
191.841
 20
85.3696
 11
191.912
 21
85.6073
  0
LINE
  8
0
 10
191.912
 20
85.6073
 11
192.018
 21
85.832
  0
LINE
  8
0
 10
192.018
 20
85.832
 11
192.154
 21
86.039
  0
LINE
  8
0
 10
192.154
 20
86.039
 11
192.32
 21
86.2238
  0
LINE
  8
0
 10
192.32
 20
86.2238
 11
192.511
 21
86.3826
  0
LINE
  8
0
 10
192.511
 20
86.3826
 11
192.723
 21
86.5119
  0
LINE
  8
0
 10
192.723
 20
86.5119
 11
192.951
 21
86.6089
  0
LINE
  8
0
 10
192.951
 20
86.6089
 11
193.191
 21
86.6717
  0
LINE
  8
0
 10
193.191
 20
86.6717
 11
193.438
 21
86.6989
  0
LINE
  8
0
 10
193.438
 20
86.6989
 11
193.686
 21
86.6898
  0
LINE
  8
0
 10
193.686
 20
86.6898
 11
193.93
 21
86.6447
  0
LINE
  8
0
 10
193.93
 20
86.6447
 11
194.165
 21
86.5646
  0
LINE
  8
0
 10
194.165
 20
86.5646
 11
194.386
 21
86.4511
  0
LINE
  8
0
 10
194.386
 20
86.4511
 11
194.587
 21
86.3067
  0
LINE
  8
0
 10
194.587
 20
86.3067
 11
194.766
 21
86.1344
  0
LINE
  8
0
 10
194.766
 20
86.1344
 11
194.918
 21
85.938
  0
LINE
  8
0
 10
194.918
 20
85.938
 11
195.039
 21
85.7216
  0
LINE
  8
0
 10
195.039
 20
85.7216
 11
195.128
 21
85.4898
  0
LINE
  8
0
 10
195.128
 20
85.4898
 11
195.182
 21
85.2475
  0
LINE
  8
0
 10
195.182
 20
85.2475
 11
195.2
 21
85
  0
LINE
  8
0
 10
195.2
 20
85
 11
195.182
 21
84.7525
  0
LINE
  8
0
 10
195.182
 20
84.7525
 11
195.128
 21
84.5102
  0
LINE
  8
0
 10
195.128
 20
84.5102
 11
195.039
 21
84.2784
  0
LINE
  8
0
 10
195.039
 20
84.2784
 11
194.918
 21
84.062
  0
LINE
  8
0
 10
194.918
 20
84.062
 11
194.766
 21
83.8656
  0
LINE
  8
0
 10
194.766
 20
83.8656
 11
194.587
 21
83.6933
  0
LINE
  8
0
 10
194.587
 20
83.6933
 11
194.386
 21
83.5489
  0
LINE
  8
0
 10
194.386
 20
83.5489
 11
194.165
 21
83.4354
  0
LINE
  8
0
 10
194.165
 20
83.4354
 11
193.93
 21
83.3553
  0
LINE
  8
0
 10
193.93
 20
83.3553
 11
193.686
 21
83.3102
  0
LINE
  8
0
 10
193.686
 20
83.3102
 11
193.438
 21
83.3011
  0
LINE
  8
0
 10
193.438
 20
83.3011
 11
193.191
 21
83.3283
  0
LINE
  8
0
 10
235.691
 20
40.8283
 11
235.451
 21
40.8911
  0
LINE
  8
0
 10
235.451
 20
40.8911
 11
235.223
 21
40.9881
  0
LINE
  8
0
 10
235.223
 20
40.9881
 11
235.011
 21
41.1174
  0
LINE
  8
0
 10
235.011
 20
41.1174
 11
234.82
 21
41.2762
  0
LINE
  8
0
 10
234.82
 20
41.2762
 11
234.654
 21
41.461
  0
LINE
  8
0
 10
234.654
 20
41.461
 11
234.518
 21
41.668
  0
LINE
  8
0
 10
234.518
 20
41.668
 11
234.412
 21
41.8927
  0
LINE
  8
0
 10
234.412
 20
41.8927
 11
234.341
 21
42.1304
  0
LINE
  8
0
 10
234.341
 20
42.1304
 11
234.305
 21
42.3759
  0
LINE
  8
0
 10
234.305
 20
42.3759
 11
234.305
 21
42.6241
  0
LINE
  8
0
 10
234.305
 20
42.6241
 11
234.341
 21
42.8696
  0
LINE
  8
0
 10
234.341
 20
42.8696
 11
234.412
 21
43.1073
  0
LINE
  8
0
 10
234.412
 20
43.1073
 11
234.518
 21
43.332
  0
LINE
  8
0
 10
234.518
 20
43.332
 11
234.654
 21
43.539
  0
LINE
  8
0
 10
234.654
 20
43.539
 11
234.82
 21
43.7238
  0
LINE
  8
0
 10
234.82
 20
43.7238
 11
235.011
 21
43.8826
  0
LINE
  8
0
 10
235.011
 20
43.8826
 11
235.223
 21
44.0119
  0
LINE
  8
0
 10
235.223
 20
44.0119
 11
235.451
 21
44.1089
  0
LINE
  8
0
 10
235.451
 20
44.1089
 11
235.691
 21
44.1717
  0
LINE
  8
0
 10
235.691
 20
44.1717
 11
235.938
 21
44.1989
  0
LINE
  8
0
 10
235.938
 20
44.1989
 11
236.186
 21
44.1898
  0
LINE
  8
0
 10
236.186
 20
44.1898
 11
236.43
 21
44.1447
  0
LINE
  8
0
 10
236.43
 20
44.1447
 11
236.665
 21
44.0646
  0
LINE
  8
0
 10
236.665
 20
44.0646
 11
236.886
 21
43.9511
  0
LINE
  8
0
 10
236.886
 20
43.9511
 11
237.087
 21
43.8067
  0
LINE
  8
0
 10
237.087
 20
43.8067
 11
237.266
 21
43.6344
  0
LINE
  8
0
 10
237.266
 20
43.6344
 11
237.418
 21
43.438
  0
LINE
  8
0
 10
237.418
 20
43.438
 11
237.539
 21
43.2216
  0
LINE
  8
0
 10
237.539
 20
43.2216
 11
237.628
 21
42.9898
  0
LINE
  8
0
 10
237.628
 20
42.9898
 11
237.682
 21
42.7475
  0
LINE
  8
0
 10
237.682
 20
42.7475
 11
237.7
 21
42.5
  0
LINE
  8
0
 10
237.7
 20
42.5
 11
237.682
 21
42.2525
  0
LINE
  8
0
 10
237.682
 20
42.2525
 11
237.628
 21
42.0102
  0
LINE
  8
0
 10
237.628
 20
42.0102
 11
237.539
 21
41.7784
  0
LINE
  8
0
 10
237.539
 20
41.7784
 11
237.418
 21
41.562
  0
LINE
  8
0
 10
237.418
 20
41.562
 11
237.266
 21
41.3656
  0
LINE
  8
0
 10
237.266
 20
41.3656
 11
237.087
 21
41.1933
  0
LINE
  8
0
 10
237.087
 20
41.1933
 11
236.886
 21
41.0489
  0
LINE
  8
0
 10
236.886
 20
41.0489
 11
236.665
 21
40.9354
  0
LINE
  8
0
 10
236.665
 20
40.9354
 11
236.43
 21
40.8553
  0
LINE
  8
0
 10
236.43
 20
40.8553
 11
236.186
 21
40.8102
  0
LINE
  8
0
 10
236.186
 20
40.8102
 11
235.938
 21
40.8011
  0
LINE
  8
0
 10
235.938
 20
40.8011
 11
235.691
 21
40.8283
  0
LINE
  8
0
 10
-236.186
 20
40.8102
 11
-236.43
 21
40.8553
  0
LINE
  8
0
 10
-236.43
 20
40.8553
 11
-236.665
 21
40.9354
  0
LINE
  8
0
 10
-236.665
 20
40.9354
 11
-236.886
 21
41.0489
  0
LINE
  8
0
 10
-236.886
 20
41.0489
 11
-237.087
 21
41.1933
  0
LINE
  8
0
 10
-237.087
 20
41.1933
 11
-237.266
 21
41.3656
  0
LINE
  8
0
 10
-237.266
 20
41.3656
 11
-237.418
 21
41.562
  0
LINE
  8
0
 10
-237.418
 20
41.562
 11
-237.539
 21
41.7784
  0
LINE
  8
0
 10
-237.539
 20
41.7784
 11
-237.628
 21
42.0102
  0
LINE
  8
0
 10
-237.628
 20
42.0102
 11
-237.682
 21
42.2525
  0
LINE
  8
0
 10
-237.682
 20
42.2525
 11
-237.7
 21
42.5
  0
LINE
  8
0
 10
-237.7
 20
42.5
 11
-237.682
 21
42.7475
  0
LINE
  8
0
 10
-237.682
 20
42.7475
 11
-237.628
 21
42.9898
  0
LINE
  8
0
 10
-237.628
 20
42.9898
 11
-237.539
 21
43.2216
  0
LINE
  8
0
 10
-237.539
 20
43.2216
 11
-237.418
 21
43.438
  0
LINE
  8
0
 10
-237.418
 20
43.438
 11
-237.266
 21
43.6344
  0
LINE
  8
0
 10
-237.266
 20
43.6344
 11
-237.087
 21
43.8067
  0
LINE
  8
0
 10
-237.087
 20
43.8067
 11
-236.886
 21
43.9511
  0
LINE
  8
0
 10
-236.886
 20
43.9511
 11
-236.665
 21
44.0646
  0
LINE
  8
0
 10
-236.665
 20
44.0646
 11
-236.43
 21
44.1447
  0
LINE
  8
0
 10
-236.43
 20
44.1447
 11
-236.186
 21
44.1898
  0
LINE
  8
0
 10
-236.186
 20
44.1898
 11
-235.938
 21
44.1989
  0
LINE
  8
0
 10
-235.938
 20
44.1989
 11
-235.691
 21
44.1717
  0
LINE
  8
0
 10
-235.691
 20
44.1717
 11
-235.451
 21
44.1089
  0
LINE
  8
0
 10
-235.451
 20
44.1089
 11
-235.223
 21
44.0119
  0
LINE
  8
0
 10
-235.223
 20
44.0119
 11
-235.011
 21
43.8826
  0
LINE
  8
0
 10
-235.011
 20
43.8826
 11
-234.82
 21
43.7238
  0
LINE
  8
0
 10
-234.82
 20
43.7238
 11
-234.654
 21
43.539
  0
LINE
  8
0
 10
-234.654
 20
43.539
 11
-234.518
 21
43.332
  0
LINE
  8
0
 10
-234.518
 20
43.332
 11
-234.412
 21
43.1073
  0
LINE
  8
0
 10
-234.412
 20
43.1073
 11
-234.341
 21
42.8696
  0
LINE
  8
0
 10
-234.341
 20
42.8696
 11
-234.305
 21
42.6241
  0
LINE
  8
0
 10
-234.305
 20
42.6241
 11
-234.305
 21
42.3759
  0
LINE
  8
0
 10
-234.305
 20
42.3759
 11
-234.341
 21
42.1304
  0
LINE
  8
0
 10
-234.341
 20
42.1304
 11
-234.412
 21
41.8927
  0
LINE
  8
0
 10
-234.412
 20
41.8927
 11
-234.518
 21
41.668
  0
LINE
  8
0
 10
-234.518
 20
41.668
 11
-234.654
 21
41.461
  0
LINE
  8
0
 10
-234.654
 20
41.461
 11
-234.82
 21
41.2762
  0
LINE
  8
0
 10
-234.82
 20
41.2762
 11
-235.011
 21
41.1174
  0
LINE
  8
0
 10
-235.011
 20
41.1174
 11
-235.223
 21
40.9881
  0
LINE
  8
0
 10
-235.223
 20
40.9881
 11
-235.451
 21
40.8911
  0
LINE
  8
0
 10
-235.451
 20
40.8911
 11
-235.691
 21
40.8283
  0
LINE
  8
0
 10
-235.691
 20
40.8283
 11
-235.938
 21
40.8011
  0
LINE
  8
0
 10
-235.938
 20
40.8011
 11
-236.186
 21
40.8102
  0
LINE
  8
0
 10
-236.186
 20
-44.1898
 11
-236.43
 21
-44.1447
  0
LINE
  8
0
 10
-236.43
 20
-44.1447
 11
-236.665
 21
-44.0646
  0
LINE
  8
0
 10
-236.665
 20
-44.0646
 11
-236.886
 21
-43.9511
  0
LINE
  8
0
 10
-236.886
 20
-43.9511
 11
-237.087
 21
-43.8067
  0
LINE
  8
0
 10
-237.087
 20
-43.8067
 11
-237.266
 21
-43.6344
  0
LINE
  8
0
 10
-237.266
 20
-43.6344
 11
-237.418
 21
-43.438
  0
LINE
  8
0
 10
-237.418
 20
-43.438
 11
-237.539
 21
-43.2216
  0
LINE
  8
0
 10
-237.539
 20
-43.2216
 11
-237.628
 21
-42.9898
  0
LINE
  8
0
 10
-237.628
 20
-42.9898
 11
-237.682
 21
-42.7475
  0
LINE
  8
0
 10
-237.682
 20
-42.7475
 11
-237.7
 21
-42.5
  0
LINE
  8
0
 10
-237.7
 20
-42.5
 11
-237.682
 21
-42.2525
  0
LINE
  8
0
 10
-237.682
 20
-42.2525
 11
-237.628
 21
-42.0102
  0
LINE
  8
0
 10
-237.628
 20
-42.0102
 11
-237.539
 21
-41.7784
  0
LINE
  8
0
 10
-237.539
 20
-41.7784
 11
-237.418
 21
-41.562
  0
LINE
  8
0
 10
-237.418
 20
-41.562
 11
-237.266
 21
-41.3656
  0
LINE
  8
0
 10
-237.266
 20
-41.3656
 11
-237.087
 21
-41.1933
  0
LINE
  8
0
 10
-237.087
 20
-41.1933
 11
-236.886
 21
-41.0489
  0
LINE
  8
0
 10
-236.886
 20
-41.0489
 11
-236.665
 21
-40.9354
  0
LINE
  8
0
 10
-236.665
 20
-40.9354
 11
-236.43
 21
-40.8553
  0
LINE
  8
0
 10
-236.43
 20
-40.8553
 11
-236.186
 21
-40.8102
  0
LINE
  8
0
 10
-236.186
 20
-40.8102
 11
-235.938
 21
-40.8011
  0
LINE
  8
0
 10
-235.938
 20
-40.8011
 11
-235.691
 21
-40.8283
  0
LINE
  8
0
 10
-235.691
 20
-40.8283
 11
-235.451
 21
-40.8911
  0
LINE
  8
0
 10
-235.451
 20
-40.8911
 11
-235.223
 21
-40.9881
  0
LINE
  8
0
 10
-235.223
 20
-40.9881
 11
-235.011
 21
-41.1174
  0
LINE
  8
0
 10
-235.011
 20
-41.1174
 11
-234.82
 21
-41.2762
  0
LINE
  8
0
 10
-234.82
 20
-41.2762
 11
-234.654
 21
-41.461
  0
LINE
  8
0
 10
-234.654
 20
-41.461
 11
-234.518
 21
-41.668
  0
LINE
  8
0
 10
-234.518
 20
-41.668
 11
-234.412
 21
-41.8927
  0
LINE
  8
0
 10
-234.412
 20
-41.8927
 11
-234.341
 21
-42.1304
  0
LINE
  8
0
 10
-234.341
 20
-42.1304
 11
-234.305
 21
-42.3759
  0
LINE
  8
0
 10
-234.305
 20
-42.3759
 11
-234.305
 21
-42.6241
  0
LINE
  8
0
 10
-234.305
 20
-42.6241
 11
-234.341
 21
-42.8696
  0
LINE
  8
0
 10
-234.341
 20
-42.8696
 11
-234.412
 21
-43.1073
  0
LINE
  8
0
 10
-234.412
 20
-43.1073
 11
-234.518
 21
-43.332
  0
LINE
  8
0
 10
-234.518
 20
-43.332
 11
-234.654
 21
-43.539
  0
LINE
  8
0
 10
-234.654
 20
-43.539
 11
-234.82
 21
-43.7238
  0
LINE
  8
0
 10
-234.82
 20
-43.7238
 11
-235.011
 21
-43.8826
  0
LINE
  8
0
 10
-235.011
 20
-43.8826
 11
-235.223
 21
-44.0119
  0
LINE
  8
0
 10
-235.223
 20
-44.0119
 11
-235.451
 21
-44.1089
  0
LINE
  8
0
 10
-235.451
 20
-44.1089
 11
-235.691
 21
-44.1717
  0
LINE
  8
0
 10
-235.691
 20
-44.1717
 11
-235.938
 21
-44.1989
  0
LINE
  8
0
 10
-235.938
 20
-44.1989
 11
-236.186
 21
-44.1898
  0
LINE
  8
0
 10
235.691
 20
-44.1717
 11
235.451
 21
-44.1089
  0
LINE
  8
0
 10
235.451
 20
-44.1089
 11
235.223
 21
-44.0119
  0
LINE
  8
0
 10
235.223
 20
-44.0119
 11
235.011
 21
-43.8826
  0
LINE
  8
0
 10
235.011
 20
-43.8826
 11
234.82
 21
-43.7238
  0
LINE
  8
0
 10
234.82
 20
-43.7238
 11
234.654
 21
-43.539
  0
LINE
  8
0
 10
234.654
 20
-43.539
 11
234.518
 21
-43.332
  0
LINE
  8
0
 10
234.518
 20
-43.332
 11
234.412
 21
-43.1073
  0
LINE
  8
0
 10
234.412
 20
-43.1073
 11
234.341
 21
-42.8696
  0
LINE
  8
0
 10
234.341
 20
-42.8696
 11
234.305
 21
-42.6241
  0
LINE
  8
0
 10
234.305
 20
-42.6241
 11
234.305
 21
-42.3759
  0
LINE
  8
0
 10
234.305
 20
-42.3759
 11
234.341
 21
-42.1304
  0
LINE
  8
0
 10
234.341
 20
-42.1304
 11
234.412
 21
-41.8927
  0
LINE
  8
0
 10
234.412
 20
-41.8927
 11
234.518
 21
-41.668
  0
LINE
  8
0
 10
234.518
 20
-41.668
 11
234.654
 21
-41.461
  0
LINE
  8
0
 10
234.654
 20
-41.461
 11
234.82
 21
-41.2762
  0
LINE
  8
0
 10
234.82
 20
-41.2762
 11
235.011
 21
-41.1174
  0
LINE
  8
0
 10
235.011
 20
-41.1174
 11
235.223
 21
-40.9881
  0
LINE
  8
0
 10
235.223
 20
-40.9881
 11
235.451
 21
-40.8911
  0
LINE
  8
0
 10
235.451
 20
-40.8911
 11
235.691
 21
-40.8283
  0
LINE
  8
0
 10
235.691
 20
-40.8283
 11
235.938
 21
-40.8011
  0
LINE
  8
0
 10
235.938
 20
-40.8011
 11
236.186
 21
-40.8102
  0
LINE
  8
0
 10
236.186
 20
-40.8102
 11
236.43
 21
-40.8553
  0
LINE
  8
0
 10
236.43
 20
-40.8553
 11
236.665
 21
-40.9354
  0
LINE
  8
0
 10
236.665
 20
-40.9354
 11
236.886
 21
-41.0489
  0
LINE
  8
0
 10
236.886
 20
-41.0489
 11
237.087
 21
-41.1933
  0
LINE
  8
0
 10
237.087
 20
-41.1933
 11
237.266
 21
-41.3656
  0
LINE
  8
0
 10
237.266
 20
-41.3656
 11
237.418
 21
-41.562
  0
LINE
  8
0
 10
237.418
 20
-41.562
 11
237.539
 21
-41.7784
  0
LINE
  8
0
 10
237.539
 20
-41.7784
 11
237.628
 21
-42.0102
  0
LINE
  8
0
 10
237.628
 20
-42.0102
 11
237.682
 21
-42.2525
  0
LINE
  8
0
 10
237.682
 20
-42.2525
 11
237.7
 21
-42.5
  0
LINE
  8
0
 10
237.7
 20
-42.5
 11
237.682
 21
-42.7475
  0
LINE
  8
0
 10
237.682
 20
-42.7475
 11
237.628
 21
-42.9898
  0
LINE
  8
0
 10
237.628
 20
-42.9898
 11
237.539
 21
-43.2216
  0
LINE
  8
0
 10
237.539
 20
-43.2216
 11
237.418
 21
-43.438
  0
LINE
  8
0
 10
237.418
 20
-43.438
 11
237.266
 21
-43.6344
  0
LINE
  8
0
 10
237.266
 20
-43.6344
 11
237.087
 21
-43.8067
  0
LINE
  8
0
 10
237.087
 20
-43.8067
 11
236.886
 21
-43.9511
  0
LINE
  8
0
 10
236.886
 20
-43.9511
 11
236.665
 21
-44.0646
  0
LINE
  8
0
 10
236.665
 20
-44.0646
 11
236.43
 21
-44.1447
  0
LINE
  8
0
 10
236.43
 20
-44.1447
 11
236.186
 21
-44.1898
  0
LINE
  8
0
 10
236.186
 20
-44.1898
 11
235.938
 21
-44.1989
  0
LINE
  8
0
 10
235.938
 20
-44.1989
 11
235.691
 21
-44.1717
  0
LINE
  8
0
 10
-236.392
 20
-88.7294
 11
-236.78
 21
-88.668
  0
LINE
  8
0
 10
-236.78
 20
-88.668
 11
-237.159
 21
-88.5665
  0
LINE
  8
0
 10
-237.159
 20
-88.5665
 11
-237.525
 21
-88.4258
  0
LINE
  8
0
 10
-237.525
 20
-88.4258
 11
-237.875
 21
-88.2476
  0
LINE
  8
0
 10
-237.875
 20
-88.2476
 11
-238.204
 21
-88.0338
  0
LINE
  8
0
 10
-238.204
 20
-88.0338
 11
-238.509
 21
-87.7868
  0
LINE
  8
0
 10
-238.509
 20
-87.7868
 11
-238.787
 21
-87.5092
  0
LINE
  8
0
 10
-238.787
 20
-87.5092
 11
-239.034
 21
-87.2042
  0
LINE
  8
0
 10
-239.034
 20
-87.2042
 11
-239.248
 21
-86.875
  0
LINE
  8
0
 10
-239.248
 20
-86.875
 11
-239.426
 21
-86.5253
  0
LINE
  8
0
 10
-239.426
 20
-86.5253
 11
-239.566
 21
-86.1588
  0
LINE
  8
0
 10
-239.566
 20
-86.1588
 11
-239.668
 21
-85.7797
  0
LINE
  8
0
 10
-239.668
 20
-85.7797
 11
-239.729
 21
-85.392
  0
LINE
  8
0
 10
-239.729
 20
-85.392
 11
-239.75
 21
-85
  0
LINE
  8
0
 10
-239.75
 20
-85
 11
-239.729
 21
-84.608
  0
LINE
  8
0
 10
-239.729
 20
-84.608
 11
-239.668
 21
-84.2203
  0
LINE
  8
0
 10
-239.668
 20
-84.2203
 11
-239.566
 21
-83.8412
  0
LINE
  8
0
 10
-239.566
 20
-83.8412
 11
-239.426
 21
-83.4747
  0
LINE
  8
0
 10
-239.426
 20
-83.4747
 11
-239.248
 21
-83.125
  0
LINE
  8
0
 10
-239.248
 20
-83.125
 11
-239.034
 21
-82.7958
  0
LINE
  8
0
 10
-239.034
 20
-82.7958
 11
-238.787
 21
-82.4908
  0
LINE
  8
0
 10
-238.787
 20
-82.4908
 11
-238.509
 21
-82.2132
  0
LINE
  8
0
 10
-238.509
 20
-82.2132
 11
-238.204
 21
-81.9662
  0
LINE
  8
0
 10
-238.204
 20
-81.9662
 11
-237.875
 21
-81.7524
  0
LINE
  8
0
 10
-237.875
 20
-81.7524
 11
-237.525
 21
-81.5742
  0
LINE
  8
0
 10
-237.525
 20
-81.5742
 11
-237.159
 21
-81.4335
  0
LINE
  8
0
 10
-237.159
 20
-81.4335
 11
-236.78
 21
-81.3319
  0
LINE
  8
0
 10
-236.78
 20
-81.3319
 11
-236.392
 21
-81.2705
  0
LINE
  8
0
 10
-236.392
 20
-81.2705
 11
-236
 21
-81.25
  0
LINE
  8
0
 10
-236
 20
-81.25
 11
-235.608
 21
-81.2705
  0
LINE
  8
0
 10
-235.608
 20
-81.2705
 11
-235.22
 21
-81.3319
  0
LINE
  8
0
 10
-235.22
 20
-81.3319
 11
-234.841
 21
-81.4335
  0
LINE
  8
0
 10
-234.841
 20
-81.4335
 11
-234.475
 21
-81.5742
  0
LINE
  8
0
 10
-234.475
 20
-81.5742
 11
-234.125
 21
-81.7524
  0
LINE
  8
0
 10
-234.125
 20
-81.7524
 11
-233.796
 21
-81.9662
  0
LINE
  8
0
 10
-233.796
 20
-81.9662
 11
-233.491
 21
-82.2132
  0
LINE
  8
0
 10
-233.491
 20
-82.2132
 11
-233.213
 21
-82.4908
  0
LINE
  8
0
 10
-233.213
 20
-82.4908
 11
-232.966
 21
-82.7958
  0
LINE
  8
0
 10
-232.966
 20
-82.7958
 11
-232.752
 21
-83.125
  0
LINE
  8
0
 10
-232.752
 20
-83.125
 11
-232.574
 21
-83.4747
  0
LINE
  8
0
 10
-232.574
 20
-83.4747
 11
-232.434
 21
-83.8412
  0
LINE
  8
0
 10
-232.434
 20
-83.8412
 11
-232.332
 21
-84.2203
  0
LINE
  8
0
 10
-232.332
 20
-84.2203
 11
-232.271
 21
-84.608
  0
LINE
  8
0
 10
-232.271
 20
-84.608
 11
-232.25
 21
-85
  0
LINE
  8
0
 10
-232.25
 20
-85
 11
-232.271
 21
-85.392
  0
LINE
  8
0
 10
-232.271
 20
-85.392
 11
-232.332
 21
-85.7797
  0
LINE
  8
0
 10
-232.332
 20
-85.7797
 11
-232.434
 21
-86.1588
  0
LINE
  8
0
 10
-232.434
 20
-86.1588
 11
-232.574
 21
-86.5253
  0
LINE
  8
0
 10
-232.574
 20
-86.5253
 11
-232.752
 21
-86.875
  0
LINE
  8
0
 10
-232.752
 20
-86.875
 11
-232.966
 21
-87.2042
  0
LINE
  8
0
 10
-232.966
 20
-87.2042
 11
-233.213
 21
-87.5092
  0
LINE
  8
0
 10
-233.213
 20
-87.5092
 11
-233.491
 21
-87.7868
  0
LINE
  8
0
 10
-233.491
 20
-87.7868
 11
-233.796
 21
-88.0338
  0
LINE
  8
0
 10
-233.796
 20
-88.0338
 11
-234.125
 21
-88.2476
  0
LINE
  8
0
 10
-234.125
 20
-88.2476
 11
-234.475
 21
-88.4258
  0
LINE
  8
0
 10
-234.475
 20
-88.4258
 11
-234.841
 21
-88.5665
  0
LINE
  8
0
 10
-234.841
 20
-88.5665
 11
-235.22
 21
-88.668
  0
LINE
  8
0
 10
-235.22
 20
-88.668
 11
-235.608
 21
-88.7294
  0
LINE
  8
0
 10
-235.608
 20
-88.7294
 11
-236
 21
-88.75
  0
LINE
  8
0
 10
-236
 20
-88.75
 11
-236.392
 21
-88.7294
  0
LINE
  8
0
 10
235.608
 20
-88.7294
 11
235.22
 21
-88.668
  0
LINE
  8
0
 10
235.22
 20
-88.668
 11
234.841
 21
-88.5665
  0
LINE
  8
0
 10
234.841
 20
-88.5665
 11
234.475
 21
-88.4258
  0
LINE
  8
0
 10
234.475
 20
-88.4258
 11
234.125
 21
-88.2476
  0
LINE
  8
0
 10
234.125
 20
-88.2476
 11
233.796
 21
-88.0338
  0
LINE
  8
0
 10
233.796
 20
-88.0338
 11
233.491
 21
-87.7868
  0
LINE
  8
0
 10
233.491
 20
-87.7868
 11
233.213
 21
-87.5092
  0
LINE
  8
0
 10
233.213
 20
-87.5092
 11
232.966
 21
-87.2042
  0
LINE
  8
0
 10
232.966
 20
-87.2042
 11
232.752
 21
-86.875
  0
LINE
  8
0
 10
232.752
 20
-86.875
 11
232.574
 21
-86.5253
  0
LINE
  8
0
 10
232.574
 20
-86.5253
 11
232.434
 21
-86.1588
  0
LINE
  8
0
 10
232.434
 20
-86.1588
 11
232.332
 21
-85.7797
  0
LINE
  8
0
 10
232.332
 20
-85.7797
 11
232.271
 21
-85.392
  0
LINE
  8
0
 10
232.271
 20
-85.392
 11
232.25
 21
-85
  0
LINE
  8
0
 10
232.25
 20
-85
 11
232.271
 21
-84.608
  0
LINE
  8
0
 10
232.271
 20
-84.608
 11
232.332
 21
-84.2203
  0
LINE
  8
0
 10
232.332
 20
-84.2203
 11
232.434
 21
-83.8412
  0
LINE
  8
0
 10
232.434
 20
-83.8412
 11
232.574
 21
-83.4747
  0
LINE
  8
0
 10
232.574
 20
-83.4747
 11
232.752
 21
-83.125
  0
LINE
  8
0
 10
232.752
 20
-83.125
 11
232.966
 21
-82.7958
  0
LINE
  8
0
 10
232.966
 20
-82.7958
 11
233.213
 21
-82.4908
  0
LINE
  8
0
 10
233.213
 20
-82.4908
 11
233.491
 21
-82.2132
  0
LINE
  8
0
 10
233.491
 20
-82.2132
 11
233.796
 21
-81.9662
  0
LINE
  8
0
 10
233.796
 20
-81.9662
 11
234.125
 21
-81.7524
  0
LINE
  8
0
 10
234.125
 20
-81.7524
 11
234.475
 21
-81.5742
  0
LINE
  8
0
 10
234.475
 20
-81.5742
 11
234.841
 21
-81.4335
  0
LINE
  8
0
 10
234.841
 20
-81.4335
 11
235.22
 21
-81.3319
  0
LINE
  8
0
 10
235.22
 20
-81.3319
 11
235.608
 21
-81.2705
  0
LINE
  8
0
 10
235.608
 20
-81.2705
 11
236
 21
-81.25
  0
LINE
  8
0
 10
236
 20
-81.25
 11
236.392
 21
-81.2705
  0
LINE
  8
0
 10
236.392
 20
-81.2705
 11
236.78
 21
-81.3319
  0
LINE
  8
0
 10
236.78
 20
-81.3319
 11
237.159
 21
-81.4335
  0
LINE
  8
0
 10
237.159
 20
-81.4335
 11
237.525
 21
-81.5742
  0
LINE
  8
0
 10
237.525
 20
-81.5742
 11
237.875
 21
-81.7524
  0
LINE
  8
0
 10
237.875
 20
-81.7524
 11
238.204
 21
-81.9662
  0
LINE
  8
0
 10
238.204
 20
-81.9662
 11
238.509
 21
-82.2132
  0
LINE
  8
0
 10
238.509
 20
-82.2132
 11
238.787
 21
-82.4908
  0
LINE
  8
0
 10
238.787
 20
-82.4908
 11
239.034
 21
-82.7958
  0
LINE
  8
0
 10
239.034
 20
-82.7958
 11
239.248
 21
-83.125
  0
LINE
  8
0
 10
239.248
 20
-83.125
 11
239.426
 21
-83.4747
  0
LINE
  8
0
 10
239.426
 20
-83.4747
 11
239.566
 21
-83.8412
  0
LINE
  8
0
 10
239.566
 20
-83.8412
 11
239.668
 21
-84.2203
  0
LINE
  8
0
 10
239.668
 20
-84.2203
 11
239.729
 21
-84.608
  0
LINE
  8
0
 10
239.729
 20
-84.608
 11
239.75
 21
-85
  0
LINE
  8
0
 10
239.75
 20
-85
 11
239.729
 21
-85.392
  0
LINE
  8
0
 10
239.729
 20
-85.392
 11
239.668
 21
-85.7797
  0
LINE
  8
0
 10
239.668
 20
-85.7797
 11
239.566
 21
-86.1588
  0
LINE
  8
0
 10
239.566
 20
-86.1588
 11
239.426
 21
-86.5253
  0
LINE
  8
0
 10
239.426
 20
-86.5253
 11
239.248
 21
-86.875
  0
LINE
  8
0
 10
239.248
 20
-86.875
 11
239.034
 21
-87.2042
  0
LINE
  8
0
 10
239.034
 20
-87.2042
 11
238.787
 21
-87.5092
  0
LINE
  8
0
 10
238.787
 20
-87.5092
 11
238.509
 21
-87.7868
  0
LINE
  8
0
 10
238.509
 20
-87.7868
 11
238.204
 21
-88.0338
  0
LINE
  8
0
 10
238.204
 20
-88.0338
 11
237.875
 21
-88.2476
  0
LINE
  8
0
 10
237.875
 20
-88.2476
 11
237.525
 21
-88.4258
  0
LINE
  8
0
 10
237.525
 20
-88.4258
 11
237.159
 21
-88.5665
  0
LINE
  8
0
 10
237.159
 20
-88.5665
 11
236.78
 21
-88.668
  0
LINE
  8
0
 10
236.78
 20
-88.668
 11
236.392
 21
-88.7294
  0
LINE
  8
0
 10
236.392
 20
-88.7294
 11
236
 21
-88.75
  0
LINE
  8
0
 10
236
 20
-88.75
 11
235.608
 21
-88.7294
  0
ENDSEC
  0
SECTION
  2
OBJECTS
  0
DICTIONARY
  0
ENDSEC
  0
EOF
