  0
SECTION
  2
BLOCKS
  0
ENDSEC
  0
SECTION
  2
ENTITIES
  0
LINE
  8
0
 10
167.288
 20
-249.748
 11
168.736
 21
-249.519
  0
LINE
  8
0
 10
168.736
 20
-249.519
 11
170.151
 21
-249.14
  0
LINE
  8
0
 10
170.151
 20
-249.14
 11
171.519
 21
-248.615
  0
LINE
  8
0
 10
171.519
 20
-248.615
 11
172.825
 21
-247.949
  0
LINE
  8
0
 10
172.825
 20
-247.949
 11
174.054
 21
-247.151
  0
LINE
  8
0
 10
174.054
 20
-247.151
 11
175.193
 21
-246.229
  0
LINE
  8
0
 10
175.193
 20
-246.229
 11
176.229
 21
-245.193
  0
LINE
  8
0
 10
176.229
 20
-245.193
 11
177.151
 21
-244.054
  0
LINE
  8
0
 10
177.151
 20
-244.054
 11
177.949
 21
-242.825
  0
LINE
  8
0
 10
177.949
 20
-242.825
 11
178.615
 21
-241.519
  0
LINE
  8
0
 10
178.615
 20
-241.519
 11
179.14
 21
-240.151
  0
LINE
  8
0
 10
179.14
 20
-240.151
 11
179.519
 21
-238.736
  0
LINE
  8
0
 10
179.519
 20
-238.736
 11
179.748
 21
-237.288
  0
LINE
  8
0
 10
179.748
 20
-237.288
 11
179.825
 21
-235.825
  0
LINE
  8
0
 10
179.825
 20
-235.825
 11
179.825
 21
235.825
  0
LINE
  8
0
 10
179.825
 20
235.825
 11
179.748
 21
237.288
  0
LINE
  8
0
 10
179.748
 20
237.288
 11
179.519
 21
238.736
  0
LINE
  8
0
 10
179.519
 20
238.736
 11
179.14
 21
240.151
  0
LINE
  8
0
 10
179.14
 20
240.151
 11
178.615
 21
241.519
  0
LINE
  8
0
 10
178.615
 20
241.519
 11
177.949
 21
242.825
  0
LINE
  8
0
 10
177.949
 20
242.825
 11
177.151
 21
244.054
  0
LINE
  8
0
 10
177.151
 20
244.054
 11
176.229
 21
245.193
  0
LINE
  8
0
 10
176.229
 20
245.193
 11
175.193
 21
246.229
  0
LINE
  8
0
 10
175.193
 20
246.229
 11
174.054
 21
247.151
  0
LINE
  8
0
 10
174.054
 20
247.151
 11
172.825
 21
247.949
  0
LINE
  8
0
 10
172.825
 20
247.949
 11
171.519
 21
248.615
  0
LINE
  8
0
 10
171.519
 20
248.615
 11
170.151
 21
249.14
  0
LINE
  8
0
 10
170.151
 20
249.14
 11
168.736
 21
249.519
  0
LINE
  8
0
 10
168.736
 20
249.519
 11
167.288
 21
249.748
  0
LINE
  8
0
 10
167.288
 20
249.748
 11
165.825
 21
249.825
  0
LINE
  8
0
 10
165.825
 20
249.825
 11
-165.825
 21
249.825
  0
LINE
  8
0
 10
-165.825
 20
249.825
 11
-167.288
 21
249.748
  0
LINE
  8
0
 10
-167.288
 20
249.748
 11
-168.736
 21
249.519
  0
LINE
  8
0
 10
-168.736
 20
249.519
 11
-170.151
 21
249.14
  0
LINE
  8
0
 10
-170.151
 20
249.14
 11
-171.519
 21
248.615
  0
LINE
  8
0
 10
-171.519
 20
248.615
 11
-172.825
 21
247.949
  0
LINE
  8
0
 10
-172.825
 20
247.949
 11
-174.054
 21
247.151
  0
LINE
  8
0
 10
-174.054
 20
247.151
 11
-175.193
 21
246.229
  0
LINE
  8
0
 10
-175.193
 20
246.229
 11
-176.229
 21
245.193
  0
LINE
  8
0
 10
-176.229
 20
245.193
 11
-177.151
 21
244.054
  0
LINE
  8
0
 10
-177.151
 20
244.054
 11
-177.949
 21
242.825
  0
LINE
  8
0
 10
-177.949
 20
242.825
 11
-178.615
 21
241.519
  0
LINE
  8
0
 10
-178.615
 20
241.519
 11
-179.14
 21
240.151
  0
LINE
  8
0
 10
-179.14
 20
240.151
 11
-179.519
 21
238.736
  0
LINE
  8
0
 10
-179.519
 20
238.736
 11
-179.748
 21
237.288
  0
LINE
  8
0
 10
-179.748
 20
237.288
 11
-179.825
 21
235.825
  0
LINE
  8
0
 10
-179.825
 20
235.825
 11
-179.825
 21
-235.825
  0
LINE
  8
0
 10
-179.825
 20
-235.825
 11
-179.748
 21
-237.288
  0
LINE
  8
0
 10
-179.748
 20
-237.288
 11
-179.519
 21
-238.736
  0
LINE
  8
0
 10
-179.519
 20
-238.736
 11
-179.14
 21
-240.151
  0
LINE
  8
0
 10
-179.14
 20
-240.151
 11
-178.615
 21
-241.519
  0
LINE
  8
0
 10
-178.615
 20
-241.519
 11
-177.949
 21
-242.825
  0
LINE
  8
0
 10
-177.949
 20
-242.825
 11
-177.151
 21
-244.054
  0
LINE
  8
0
 10
-177.151
 20
-244.054
 11
-176.229
 21
-245.193
  0
LINE
  8
0
 10
-176.229
 20
-245.193
 11
-175.193
 21
-246.229
  0
LINE
  8
0
 10
-175.193
 20
-246.229
 11
-174.054
 21
-247.151
  0
LINE
  8
0
 10
-174.054
 20
-247.151
 11
-172.825
 21
-247.949
  0
LINE
  8
0
 10
-172.825
 20
-247.949
 11
-171.519
 21
-248.615
  0
LINE
  8
0
 10
-171.519
 20
-248.615
 11
-170.151
 21
-249.14
  0
LINE
  8
0
 10
-170.151
 20
-249.14
 11
-168.736
 21
-249.519
  0
LINE
  8
0
 10
-168.736
 20
-249.519
 11
-167.288
 21
-249.748
  0
LINE
  8
0
 10
-167.288
 20
-249.748
 11
-165.825
 21
-249.825
  0
LINE
  8
0
 10
-165.825
 20
-249.825
 11
165.825
 21
-249.825
  0
LINE
  8
0
 10
165.825
 20
-249.825
 11
167.288
 21
-249.748
  0
LINE
  8
0
 10
159.702
 20
227.588
 11
159.456
 21
227.627
  0
LINE
  8
0
 10
159.456
 20
227.627
 11
159.216
 21
227.691
  0
LINE
  8
0
 10
159.216
 20
227.691
 11
158.984
 21
227.78
  0
LINE
  8
0
 10
158.984
 20
227.78
 11
158.762
 21
227.893
  0
LINE
  8
0
 10
158.762
 20
227.893
 11
158.554
 21
228.029
  0
LINE
  8
0
 10
158.554
 20
228.029
 11
158.361
 21
228.185
  0
LINE
  8
0
 10
158.361
 20
228.185
 11
158.185
 21
228.361
  0
LINE
  8
0
 10
158.185
 20
228.361
 11
158.029
 21
228.554
  0
LINE
  8
0
 10
158.029
 20
228.554
 11
157.893
 21
228.762
  0
LINE
  8
0
 10
157.893
 20
228.762
 11
157.78
 21
228.984
  0
LINE
  8
0
 10
157.78
 20
228.984
 11
157.691
 21
229.216
  0
LINE
  8
0
 10
157.691
 20
229.216
 11
157.627
 21
229.456
  0
LINE
  8
0
 10
157.627
 20
229.456
 11
157.588
 21
229.702
  0
LINE
  8
0
 10
157.588
 20
229.702
 11
157.575
 21
229.95
  0
LINE
  8
0
 10
157.575
 20
229.95
 11
157.588
 21
230.198
  0
LINE
  8
0
 10
157.588
 20
230.198
 11
157.627
 21
230.444
  0
LINE
  8
0
 10
157.627
 20
230.444
 11
157.691
 21
230.684
  0
LINE
  8
0
 10
157.691
 20
230.684
 11
157.78
 21
230.916
  0
LINE
  8
0
 10
157.78
 20
230.916
 11
157.893
 21
231.137
  0
LINE
  8
0
 10
157.893
 20
231.137
 11
158.029
 21
231.346
  0
LINE
  8
0
 10
158.029
 20
231.346
 11
158.185
 21
231.539
  0
LINE
  8
0
 10
158.185
 20
231.539
 11
158.361
 21
231.715
  0
LINE
  8
0
 10
158.361
 20
231.715
 11
158.554
 21
231.871
  0
LINE
  8
0
 10
158.554
 20
231.871
 11
158.762
 21
232.007
  0
LINE
  8
0
 10
158.762
 20
232.007
 11
158.984
 21
232.12
  0
LINE
  8
0
 10
158.984
 20
232.12
 11
159.216
 21
232.209
  0
LINE
  8
0
 10
159.216
 20
232.209
 11
159.456
 21
232.273
  0
LINE
  8
0
 10
159.456
 20
232.273
 11
159.702
 21
232.312
  0
LINE
  8
0
 10
159.702
 20
232.312
 11
159.95
 21
232.325
  0
LINE
  8
0
 10
159.95
 20
232.325
 11
160.198
 21
232.312
  0
LINE
  8
0
 10
160.198
 20
232.312
 11
160.444
 21
232.273
  0
LINE
  8
0
 10
160.444
 20
232.273
 11
160.684
 21
232.209
  0
LINE
  8
0
 10
160.684
 20
232.209
 11
160.916
 21
232.12
  0
LINE
  8
0
 10
160.916
 20
232.12
 11
161.137
 21
232.007
  0
LINE
  8
0
 10
161.137
 20
232.007
 11
161.346
 21
231.871
  0
LINE
  8
0
 10
161.346
 20
231.871
 11
161.539
 21
231.715
  0
LINE
  8
0
 10
161.539
 20
231.715
 11
161.715
 21
231.539
  0
LINE
  8
0
 10
161.715
 20
231.539
 11
161.871
 21
231.346
  0
LINE
  8
0
 10
161.871
 20
231.346
 11
162.007
 21
231.137
  0
LINE
  8
0
 10
162.007
 20
231.137
 11
162.12
 21
230.916
  0
LINE
  8
0
 10
162.12
 20
230.916
 11
162.209
 21
230.684
  0
LINE
  8
0
 10
162.209
 20
230.684
 11
162.273
 21
230.444
  0
LINE
  8
0
 10
162.273
 20
230.444
 11
162.312
 21
230.198
  0
LINE
  8
0
 10
162.312
 20
230.198
 11
162.325
 21
229.95
  0
LINE
  8
0
 10
162.325
 20
229.95
 11
162.312
 21
229.702
  0
LINE
  8
0
 10
162.312
 20
229.702
 11
162.273
 21
229.456
  0
LINE
  8
0
 10
162.273
 20
229.456
 11
162.209
 21
229.216
  0
LINE
  8
0
 10
162.209
 20
229.216
 11
162.12
 21
228.984
  0
LINE
  8
0
 10
162.12
 20
228.984
 11
162.007
 21
228.762
  0
LINE
  8
0
 10
162.007
 20
228.762
 11
161.871
 21
228.554
  0
LINE
  8
0
 10
161.871
 20
228.554
 11
161.715
 21
228.361
  0
LINE
  8
0
 10
161.715
 20
228.361
 11
161.539
 21
228.185
  0
LINE
  8
0
 10
161.539
 20
228.185
 11
161.346
 21
228.029
  0
LINE
  8
0
 10
161.346
 20
228.029
 11
161.137
 21
227.893
  0
LINE
  8
0
 10
161.137
 20
227.893
 11
160.916
 21
227.78
  0
LINE
  8
0
 10
160.916
 20
227.78
 11
160.684
 21
227.691
  0
LINE
  8
0
 10
160.684
 20
227.691
 11
160.444
 21
227.627
  0
LINE
  8
0
 10
160.444
 20
227.627
 11
160.198
 21
227.588
  0
LINE
  8
0
 10
160.198
 20
227.588
 11
159.95
 21
227.575
  0
LINE
  8
0
 10
159.95
 20
227.575
 11
159.702
 21
227.588
  0
LINE
  8
0
 10
-160.198
 20
227.588
 11
-160.444
 21
227.627
  0
LINE
  8
0
 10
-160.444
 20
227.627
 11
-160.684
 21
227.691
  0
LINE
  8
0
 10
-160.684
 20
227.691
 11
-160.916
 21
227.78
  0
LINE
  8
0
 10
-160.916
 20
227.78
 11
-161.137
 21
227.893
  0
LINE
  8
0
 10
-161.137
 20
227.893
 11
-161.346
 21
228.029
  0
LINE
  8
0
 10
-161.346
 20
228.029
 11
-161.539
 21
228.185
  0
LINE
  8
0
 10
-161.539
 20
228.185
 11
-161.715
 21
228.361
  0
LINE
  8
0
 10
-161.715
 20
228.361
 11
-161.871
 21
228.554
  0
LINE
  8
0
 10
-161.871
 20
228.554
 11
-162.007
 21
228.762
  0
LINE
  8
0
 10
-162.007
 20
228.762
 11
-162.12
 21
228.984
  0
LINE
  8
0
 10
-162.12
 20
228.984
 11
-162.209
 21
229.216
  0
LINE
  8
0
 10
-162.209
 20
229.216
 11
-162.273
 21
229.456
  0
LINE
  8
0
 10
-162.273
 20
229.456
 11
-162.312
 21
229.702
  0
LINE
  8
0
 10
-162.312
 20
229.702
 11
-162.325
 21
229.95
  0
LINE
  8
0
 10
-162.325
 20
229.95
 11
-162.312
 21
230.198
  0
LINE
  8
0
 10
-162.312
 20
230.198
 11
-162.273
 21
230.444
  0
LINE
  8
0
 10
-162.273
 20
230.444
 11
-162.209
 21
230.684
  0
LINE
  8
0
 10
-162.209
 20
230.684
 11
-162.12
 21
230.916
  0
LINE
  8
0
 10
-162.12
 20
230.916
 11
-162.007
 21
231.137
  0
LINE
  8
0
 10
-162.007
 20
231.137
 11
-161.871
 21
231.346
  0
LINE
  8
0
 10
-161.871
 20
231.346
 11
-161.715
 21
231.539
  0
LINE
  8
0
 10
-161.715
 20
231.539
 11
-161.539
 21
231.715
  0
LINE
  8
0
 10
-161.539
 20
231.715
 11
-161.346
 21
231.871
  0
LINE
  8
0
 10
-161.346
 20
231.871
 11
-161.137
 21
232.007
  0
LINE
  8
0
 10
-161.137
 20
232.007
 11
-160.916
 21
232.12
  0
LINE
  8
0
 10
-160.916
 20
232.12
 11
-160.684
 21
232.209
  0
LINE
  8
0
 10
-160.684
 20
232.209
 11
-160.444
 21
232.273
  0
LINE
  8
0
 10
-160.444
 20
232.273
 11
-160.198
 21
232.312
  0
LINE
  8
0
 10
-160.198
 20
232.312
 11
-159.95
 21
232.325
  0
LINE
  8
0
 10
-159.95
 20
232.325
 11
-159.702
 21
232.312
  0
LINE
  8
0
 10
-159.702
 20
232.312
 11
-159.456
 21
232.273
  0
LINE
  8
0
 10
-159.456
 20
232.273
 11
-159.216
 21
232.209
  0
LINE
  8
0
 10
-159.216
 20
232.209
 11
-158.984
 21
232.12
  0
LINE
  8
0
 10
-158.984
 20
232.12
 11
-158.762
 21
232.007
  0
LINE
  8
0
 10
-158.762
 20
232.007
 11
-158.554
 21
231.871
  0
LINE
  8
0
 10
-158.554
 20
231.871
 11
-158.361
 21
231.715
  0
LINE
  8
0
 10
-158.361
 20
231.715
 11
-158.185
 21
231.539
  0
LINE
  8
0
 10
-158.185
 20
231.539
 11
-158.029
 21
231.346
  0
LINE
  8
0
 10
-158.029
 20
231.346
 11
-157.893
 21
231.137
  0
LINE
  8
0
 10
-157.893
 20
231.137
 11
-157.78
 21
230.916
  0
LINE
  8
0
 10
-157.78
 20
230.916
 11
-157.691
 21
230.684
  0
LINE
  8
0
 10
-157.691
 20
230.684
 11
-157.627
 21
230.444
  0
LINE
  8
0
 10
-157.627
 20
230.444
 11
-157.588
 21
230.198
  0
LINE
  8
0
 10
-157.588
 20
230.198
 11
-157.575
 21
229.95
  0
LINE
  8
0
 10
-157.575
 20
229.95
 11
-157.588
 21
229.702
  0
LINE
  8
0
 10
-157.588
 20
229.702
 11
-157.627
 21
229.456
  0
LINE
  8
0
 10
-157.627
 20
229.456
 11
-157.691
 21
229.216
  0
LINE
  8
0
 10
-157.691
 20
229.216
 11
-157.78
 21
228.984
  0
LINE
  8
0
 10
-157.78
 20
228.984
 11
-157.893
 21
228.762
  0
LINE
  8
0
 10
-157.893
 20
228.762
 11
-158.029
 21
228.554
  0
LINE
  8
0
 10
-158.029
 20
228.554
 11
-158.185
 21
228.361
  0
LINE
  8
0
 10
-158.185
 20
228.361
 11
-158.361
 21
228.185
  0
LINE
  8
0
 10
-158.361
 20
228.185
 11
-158.554
 21
228.029
  0
LINE
  8
0
 10
-158.554
 20
228.029
 11
-158.762
 21
227.893
  0
LINE
  8
0
 10
-158.762
 20
227.893
 11
-158.984
 21
227.78
  0
LINE
  8
0
 10
-158.984
 20
227.78
 11
-159.216
 21
227.691
  0
LINE
  8
0
 10
-159.216
 20
227.691
 11
-159.456
 21
227.627
  0
LINE
  8
0
 10
-159.456
 20
227.627
 11
-159.702
 21
227.588
  0
LINE
  8
0
 10
-159.702
 20
227.588
 11
-159.95
 21
227.575
  0
LINE
  8
0
 10
-159.95
 20
227.575
 11
-160.198
 21
227.588
  0
LINE
  8
0
 10
39.8761
 20
153.505
 11
39.6318
 21
153.546
  0
LINE
  8
0
 10
39.6318
 20
153.546
 11
39.3974
 21
153.626
  0
LINE
  8
0
 10
39.3974
 20
153.626
 11
39.1796
 21
153.744
  0
LINE
  8
0
 10
39.1796
 20
153.744
 11
38.9841
 21
153.896
  0
LINE
  8
0
 10
38.9841
 20
153.896
 11
38.8163
 21
154.079
  0
LINE
  8
0
 10
38.8163
 20
154.079
 11
38.6808
 21
154.286
  0
LINE
  8
0
 10
38.6808
 20
154.286
 11
38.5813
 21
154.513
  0
LINE
  8
0
 10
38.5813
 20
154.513
 11
38.5204
 21
154.753
  0
LINE
  8
0
 10
38.5204
 20
154.753
 11
38.5
 21
155
  0
LINE
  8
0
 10
38.5
 20
155
 11
38.5204
 21
155.247
  0
LINE
  8
0
 10
38.5204
 20
155.247
 11
38.5813
 21
155.487
  0
LINE
  8
0
 10
38.5813
 20
155.487
 11
38.6808
 21
155.714
  0
LINE
  8
0
 10
38.6808
 20
155.714
 11
38.8163
 21
155.921
  0
LINE
  8
0
 10
38.8163
 20
155.921
 11
38.9841
 21
156.104
  0
LINE
  8
0
 10
38.9841
 20
156.104
 11
39.1796
 21
156.256
  0
LINE
  8
0
 10
39.1796
 20
156.256
 11
39.3974
 21
156.374
  0
LINE
  8
0
 10
39.3974
 20
156.374
 11
39.6318
 21
156.454
  0
LINE
  8
0
 10
39.6318
 20
156.454
 11
39.8761
 21
156.495
  0
LINE
  8
0
 10
39.8761
 20
156.495
 11
118.124
 21
156.495
  0
LINE
  8
0
 10
118.124
 20
156.495
 11
118.368
 21
156.454
  0
LINE
  8
0
 10
118.368
 20
156.454
 11
118.603
 21
156.374
  0
LINE
  8
0
 10
118.603
 20
156.374
 11
118.82
 21
156.256
  0
LINE
  8
0
 10
118.82
 20
156.256
 11
119.016
 21
156.104
  0
LINE
  8
0
 10
119.016
 20
156.104
 11
119.184
 21
155.921
  0
LINE
  8
0
 10
119.184
 20
155.921
 11
119.319
 21
155.714
  0
LINE
  8
0
 10
119.319
 20
155.714
 11
119.419
 21
155.487
  0
LINE
  8
0
 10
119.419
 20
155.487
 11
119.48
 21
155.247
  0
LINE
  8
0
 10
119.48
 20
155.247
 11
119.5
 21
155
  0
LINE
  8
0
 10
119.5
 20
155
 11
119.48
 21
154.753
  0
LINE
  8
0
 10
119.48
 20
154.753
 11
119.419
 21
154.513
  0
LINE
  8
0
 10
119.419
 20
154.513
 11
119.319
 21
154.286
  0
LINE
  8
0
 10
119.319
 20
154.286
 11
119.184
 21
154.079
  0
LINE
  8
0
 10
119.184
 20
154.079
 11
119.016
 21
153.896
  0
LINE
  8
0
 10
119.016
 20
153.896
 11
118.82
 21
153.744
  0
LINE
  8
0
 10
118.82
 20
153.744
 11
118.603
 21
153.626
  0
LINE
  8
0
 10
118.603
 20
153.626
 11
118.368
 21
153.546
  0
LINE
  8
0
 10
118.368
 20
153.546
 11
118.124
 21
153.505
  0
LINE
  8
0
 10
118.124
 20
153.505
 11
39.8761
 21
153.505
  0
LINE
  8
0
 10
39.8761
 20
146.005
 11
39.6318
 21
146.046
  0
LINE
  8
0
 10
39.6318
 20
146.046
 11
39.3974
 21
146.126
  0
LINE
  8
0
 10
39.3974
 20
146.126
 11
39.1796
 21
146.244
  0
LINE
  8
0
 10
39.1796
 20
146.244
 11
38.9841
 21
146.396
  0
LINE
  8
0
 10
38.9841
 20
146.396
 11
38.8163
 21
146.579
  0
LINE
  8
0
 10
38.8163
 20
146.579
 11
38.6808
 21
146.786
  0
LINE
  8
0
 10
38.6808
 20
146.786
 11
38.5813
 21
147.013
  0
LINE
  8
0
 10
38.5813
 20
147.013
 11
38.5204
 21
147.253
  0
LINE
  8
0
 10
38.5204
 20
147.253
 11
38.5
 21
147.5
  0
LINE
  8
0
 10
38.5
 20
147.5
 11
38.5204
 21
147.747
  0
LINE
  8
0
 10
38.5204
 20
147.747
 11
38.5813
 21
147.987
  0
LINE
  8
0
 10
38.5813
 20
147.987
 11
38.6808
 21
148.214
  0
LINE
  8
0
 10
38.6808
 20
148.214
 11
38.8163
 21
148.421
  0
LINE
  8
0
 10
38.8163
 20
148.421
 11
38.9841
 21
148.604
  0
LINE
  8
0
 10
38.9841
 20
148.604
 11
39.1796
 21
148.756
  0
LINE
  8
0
 10
39.1796
 20
148.756
 11
39.3974
 21
148.874
  0
LINE
  8
0
 10
39.3974
 20
148.874
 11
39.6318
 21
148.954
  0
LINE
  8
0
 10
39.6318
 20
148.954
 11
39.8761
 21
148.995
  0
LINE
  8
0
 10
39.8761
 20
148.995
 11
118.124
 21
148.995
  0
LINE
  8
0
 10
118.124
 20
148.995
 11
118.368
 21
148.954
  0
LINE
  8
0
 10
118.368
 20
148.954
 11
118.603
 21
148.874
  0
LINE
  8
0
 10
118.603
 20
148.874
 11
118.82
 21
148.756
  0
LINE
  8
0
 10
118.82
 20
148.756
 11
119.016
 21
148.604
  0
LINE
  8
0
 10
119.016
 20
148.604
 11
119.184
 21
148.421
  0
LINE
  8
0
 10
119.184
 20
148.421
 11
119.319
 21
148.214
  0
LINE
  8
0
 10
119.319
 20
148.214
 11
119.419
 21
147.987
  0
LINE
  8
0
 10
119.419
 20
147.987
 11
119.48
 21
147.747
  0
LINE
  8
0
 10
119.48
 20
147.747
 11
119.5
 21
147.5
  0
LINE
  8
0
 10
119.5
 20
147.5
 11
119.48
 21
147.253
  0
LINE
  8
0
 10
119.48
 20
147.253
 11
119.419
 21
147.013
  0
LINE
  8
0
 10
119.419
 20
147.013
 11
119.319
 21
146.786
  0
LINE
  8
0
 10
119.319
 20
146.786
 11
119.184
 21
146.579
  0
LINE
  8
0
 10
119.184
 20
146.579
 11
119.016
 21
146.396
  0
LINE
  8
0
 10
119.016
 20
146.396
 11
118.82
 21
146.244
  0
LINE
  8
0
 10
118.82
 20
146.244
 11
118.603
 21
146.126
  0
LINE
  8
0
 10
118.603
 20
146.126
 11
118.368
 21
146.046
  0
LINE
  8
0
 10
118.368
 20
146.046
 11
118.124
 21
146.005
  0
LINE
  8
0
 10
118.124
 20
146.005
 11
39.8761
 21
146.005
  0
LINE
  8
0
 10
39.8761
 20
138.505
 11
39.6318
 21
138.546
  0
LINE
  8
0
 10
39.6318
 20
138.546
 11
39.3974
 21
138.626
  0
LINE
  8
0
 10
39.3974
 20
138.626
 11
39.1796
 21
138.744
  0
LINE
  8
0
 10
39.1796
 20
138.744
 11
38.9841
 21
138.896
  0
LINE
  8
0
 10
38.9841
 20
138.896
 11
38.8163
 21
139.079
  0
LINE
  8
0
 10
38.8163
 20
139.079
 11
38.6808
 21
139.286
  0
LINE
  8
0
 10
38.6808
 20
139.286
 11
38.5813
 21
139.513
  0
LINE
  8
0
 10
38.5813
 20
139.513
 11
38.5204
 21
139.753
  0
LINE
  8
0
 10
38.5204
 20
139.753
 11
38.5
 21
140
  0
LINE
  8
0
 10
38.5
 20
140
 11
38.5204
 21
140.247
  0
LINE
  8
0
 10
38.5204
 20
140.247
 11
38.5813
 21
140.487
  0
LINE
  8
0
 10
38.5813
 20
140.487
 11
38.6808
 21
140.714
  0
LINE
  8
0
 10
38.6808
 20
140.714
 11
38.8163
 21
140.921
  0
LINE
  8
0
 10
38.8163
 20
140.921
 11
38.9841
 21
141.104
  0
LINE
  8
0
 10
38.9841
 20
141.104
 11
39.1796
 21
141.256
  0
LINE
  8
0
 10
39.1796
 20
141.256
 11
39.3974
 21
141.374
  0
LINE
  8
0
 10
39.3974
 20
141.374
 11
39.6318
 21
141.454
  0
LINE
  8
0
 10
39.6318
 20
141.454
 11
39.8761
 21
141.495
  0
LINE
  8
0
 10
39.8761
 20
141.495
 11
118.124
 21
141.495
  0
LINE
  8
0
 10
118.124
 20
141.495
 11
118.368
 21
141.454
  0
LINE
  8
0
 10
118.368
 20
141.454
 11
118.603
 21
141.374
  0
LINE
  8
0
 10
118.603
 20
141.374
 11
118.82
 21
141.256
  0
LINE
  8
0
 10
118.82
 20
141.256
 11
119.016
 21
141.104
  0
LINE
  8
0
 10
119.016
 20
141.104
 11
119.184
 21
140.921
  0
LINE
  8
0
 10
119.184
 20
140.921
 11
119.319
 21
140.714
  0
LINE
  8
0
 10
119.319
 20
140.714
 11
119.419
 21
140.487
  0
LINE
  8
0
 10
119.419
 20
140.487
 11
119.48
 21
140.247
  0
LINE
  8
0
 10
119.48
 20
140.247
 11
119.5
 21
140
  0
LINE
  8
0
 10
119.5
 20
140
 11
119.48
 21
139.753
  0
LINE
  8
0
 10
119.48
 20
139.753
 11
119.419
 21
139.513
  0
LINE
  8
0
 10
119.419
 20
139.513
 11
119.319
 21
139.286
  0
LINE
  8
0
 10
119.319
 20
139.286
 11
119.184
 21
139.079
  0
LINE
  8
0
 10
119.184
 20
139.079
 11
119.016
 21
138.896
  0
LINE
  8
0
 10
119.016
 20
138.896
 11
118.82
 21
138.744
  0
LINE
  8
0
 10
118.82
 20
138.744
 11
118.603
 21
138.626
  0
LINE
  8
0
 10
118.603
 20
138.626
 11
118.368
 21
138.546
  0
LINE
  8
0
 10
118.368
 20
138.546
 11
118.124
 21
138.505
  0
LINE
  8
0
 10
118.124
 20
138.505
 11
39.8761
 21
138.505
  0
LINE
  8
0
 10
39.8761
 20
131.005
 11
39.6318
 21
131.046
  0
LINE
  8
0
 10
39.6318
 20
131.046
 11
39.3974
 21
131.126
  0
LINE
  8
0
 10
39.3974
 20
131.126
 11
39.1796
 21
131.244
  0
LINE
  8
0
 10
39.1796
 20
131.244
 11
38.9841
 21
131.396
  0
LINE
  8
0
 10
38.9841
 20
131.396
 11
38.8163
 21
131.579
  0
LINE
  8
0
 10
38.8163
 20
131.579
 11
38.6808
 21
131.786
  0
LINE
  8
0
 10
38.6808
 20
131.786
 11
38.5813
 21
132.013
  0
LINE
  8
0
 10
38.5813
 20
132.013
 11
38.5204
 21
132.253
  0
LINE
  8
0
 10
38.5204
 20
132.253
 11
38.5
 21
132.5
  0
LINE
  8
0
 10
38.5
 20
132.5
 11
38.5204
 21
132.747
  0
LINE
  8
0
 10
38.5204
 20
132.747
 11
38.5813
 21
132.987
  0
LINE
  8
0
 10
38.5813
 20
132.987
 11
38.6808
 21
133.214
  0
LINE
  8
0
 10
38.6808
 20
133.214
 11
38.8163
 21
133.421
  0
LINE
  8
0
 10
38.8163
 20
133.421
 11
38.9841
 21
133.604
  0
LINE
  8
0
 10
38.9841
 20
133.604
 11
39.1796
 21
133.756
  0
LINE
  8
0
 10
39.1796
 20
133.756
 11
39.3974
 21
133.874
  0
LINE
  8
0
 10
39.3974
 20
133.874
 11
39.6318
 21
133.954
  0
LINE
  8
0
 10
39.6318
 20
133.954
 11
39.8761
 21
133.995
  0
LINE
  8
0
 10
39.8761
 20
133.995
 11
118.124
 21
133.995
  0
LINE
  8
0
 10
118.124
 20
133.995
 11
118.368
 21
133.954
  0
LINE
  8
0
 10
118.368
 20
133.954
 11
118.603
 21
133.874
  0
LINE
  8
0
 10
118.603
 20
133.874
 11
118.82
 21
133.756
  0
LINE
  8
0
 10
118.82
 20
133.756
 11
119.016
 21
133.604
  0
LINE
  8
0
 10
119.016
 20
133.604
 11
119.184
 21
133.421
  0
LINE
  8
0
 10
119.184
 20
133.421
 11
119.319
 21
133.214
  0
LINE
  8
0
 10
119.319
 20
133.214
 11
119.419
 21
132.987
  0
LINE
  8
0
 10
119.419
 20
132.987
 11
119.48
 21
132.747
  0
LINE
  8
0
 10
119.48
 20
132.747
 11
119.5
 21
132.5
  0
LINE
  8
0
 10
119.5
 20
132.5
 11
119.48
 21
132.253
  0
LINE
  8
0
 10
119.48
 20
132.253
 11
119.419
 21
132.013
  0
LINE
  8
0
 10
119.419
 20
132.013
 11
119.319
 21
131.786
  0
LINE
  8
0
 10
119.319
 20
131.786
 11
119.184
 21
131.579
  0
LINE
  8
0
 10
119.184
 20
131.579
 11
119.016
 21
131.396
  0
LINE
  8
0
 10
119.016
 20
131.396
 11
118.82
 21
131.244
  0
LINE
  8
0
 10
118.82
 20
131.244
 11
118.603
 21
131.126
  0
LINE
  8
0
 10
118.603
 20
131.126
 11
118.368
 21
131.046
  0
LINE
  8
0
 10
118.368
 20
131.046
 11
118.124
 21
131.005
  0
LINE
  8
0
 10
118.124
 20
131.005
 11
39.8761
 21
131.005
  0
LINE
  8
0
 10
39.8761
 20
123.505
 11
39.6318
 21
123.546
  0
LINE
  8
0
 10
39.6318
 20
123.546
 11
39.3974
 21
123.626
  0
LINE
  8
0
 10
39.3974
 20
123.626
 11
39.1796
 21
123.744
  0
LINE
  8
0
 10
39.1796
 20
123.744
 11
38.9841
 21
123.896
  0
LINE
  8
0
 10
38.9841
 20
123.896
 11
38.8163
 21
124.079
  0
LINE
  8
0
 10
38.8163
 20
124.079
 11
38.6808
 21
124.286
  0
LINE
  8
0
 10
38.6808
 20
124.286
 11
38.5813
 21
124.513
  0
LINE
  8
0
 10
38.5813
 20
124.513
 11
38.5204
 21
124.753
  0
LINE
  8
0
 10
38.5204
 20
124.753
 11
38.5
 21
125
  0
LINE
  8
0
 10
38.5
 20
125
 11
38.5204
 21
125.247
  0
LINE
  8
0
 10
38.5204
 20
125.247
 11
38.5813
 21
125.487
  0
LINE
  8
0
 10
38.5813
 20
125.487
 11
38.6808
 21
125.714
  0
LINE
  8
0
 10
38.6808
 20
125.714
 11
38.8163
 21
125.921
  0
LINE
  8
0
 10
38.8163
 20
125.921
 11
38.9841
 21
126.104
  0
LINE
  8
0
 10
38.9841
 20
126.104
 11
39.1796
 21
126.256
  0
LINE
  8
0
 10
39.1796
 20
126.256
 11
39.3974
 21
126.374
  0
LINE
  8
0
 10
39.3974
 20
126.374
 11
39.6318
 21
126.454
  0
LINE
  8
0
 10
39.6318
 20
126.454
 11
39.8761
 21
126.495
  0
LINE
  8
0
 10
39.8761
 20
126.495
 11
118.124
 21
126.495
  0
LINE
  8
0
 10
118.124
 20
126.495
 11
118.368
 21
126.454
  0
LINE
  8
0
 10
118.368
 20
126.454
 11
118.603
 21
126.374
  0
LINE
  8
0
 10
118.603
 20
126.374
 11
118.82
 21
126.256
  0
LINE
  8
0
 10
118.82
 20
126.256
 11
119.016
 21
126.104
  0
LINE
  8
0
 10
119.016
 20
126.104
 11
119.184
 21
125.921
  0
LINE
  8
0
 10
119.184
 20
125.921
 11
119.319
 21
125.714
  0
LINE
  8
0
 10
119.319
 20
125.714
 11
119.419
 21
125.487
  0
LINE
  8
0
 10
119.419
 20
125.487
 11
119.48
 21
125.247
  0
LINE
  8
0
 10
119.48
 20
125.247
 11
119.5
 21
125
  0
LINE
  8
0
 10
119.5
 20
125
 11
119.48
 21
124.753
  0
LINE
  8
0
 10
119.48
 20
124.753
 11
119.419
 21
124.513
  0
LINE
  8
0
 10
119.419
 20
124.513
 11
119.319
 21
124.286
  0
LINE
  8
0
 10
119.319
 20
124.286
 11
119.184
 21
124.079
  0
LINE
  8
0
 10
119.184
 20
124.079
 11
119.016
 21
123.896
  0
LINE
  8
0
 10
119.016
 20
123.896
 11
118.82
 21
123.744
  0
LINE
  8
0
 10
118.82
 20
123.744
 11
118.603
 21
123.626
  0
LINE
  8
0
 10
118.603
 20
123.626
 11
118.368
 21
123.546
  0
LINE
  8
0
 10
118.368
 20
123.546
 11
118.124
 21
123.505
  0
LINE
  8
0
 10
118.124
 20
123.505
 11
39.8761
 21
123.505
  0
LINE
  8
0
 10
39.8761
 20
116.005
 11
39.6318
 21
116.046
  0
LINE
  8
0
 10
39.6318
 20
116.046
 11
39.3974
 21
116.126
  0
LINE
  8
0
 10
39.3974
 20
116.126
 11
39.1796
 21
116.244
  0
LINE
  8
0
 10
39.1796
 20
116.244
 11
38.9841
 21
116.396
  0
LINE
  8
0
 10
38.9841
 20
116.396
 11
38.8163
 21
116.579
  0
LINE
  8
0
 10
38.8163
 20
116.579
 11
38.6808
 21
116.786
  0
LINE
  8
0
 10
38.6808
 20
116.786
 11
38.5813
 21
117.013
  0
LINE
  8
0
 10
38.5813
 20
117.013
 11
38.5204
 21
117.253
  0
LINE
  8
0
 10
38.5204
 20
117.253
 11
38.5
 21
117.5
  0
LINE
  8
0
 10
38.5
 20
117.5
 11
38.5204
 21
117.747
  0
LINE
  8
0
 10
38.5204
 20
117.747
 11
38.5813
 21
117.987
  0
LINE
  8
0
 10
38.5813
 20
117.987
 11
38.6808
 21
118.214
  0
LINE
  8
0
 10
38.6808
 20
118.214
 11
38.8163
 21
118.421
  0
LINE
  8
0
 10
38.8163
 20
118.421
 11
38.9841
 21
118.604
  0
LINE
  8
0
 10
38.9841
 20
118.604
 11
39.1796
 21
118.756
  0
LINE
  8
0
 10
39.1796
 20
118.756
 11
39.3974
 21
118.874
  0
LINE
  8
0
 10
39.3974
 20
118.874
 11
39.6318
 21
118.954
  0
LINE
  8
0
 10
39.6318
 20
118.954
 11
39.8761
 21
118.995
  0
LINE
  8
0
 10
39.8761
 20
118.995
 11
118.124
 21
118.995
  0
LINE
  8
0
 10
118.124
 20
118.995
 11
118.368
 21
118.954
  0
LINE
  8
0
 10
118.368
 20
118.954
 11
118.603
 21
118.874
  0
LINE
  8
0
 10
118.603
 20
118.874
 11
118.82
 21
118.756
  0
LINE
  8
0
 10
118.82
 20
118.756
 11
119.016
 21
118.604
  0
LINE
  8
0
 10
119.016
 20
118.604
 11
119.184
 21
118.421
  0
LINE
  8
0
 10
119.184
 20
118.421
 11
119.319
 21
118.214
  0
LINE
  8
0
 10
119.319
 20
118.214
 11
119.419
 21
117.987
  0
LINE
  8
0
 10
119.419
 20
117.987
 11
119.48
 21
117.747
  0
LINE
  8
0
 10
119.48
 20
117.747
 11
119.5
 21
117.5
  0
LINE
  8
0
 10
119.5
 20
117.5
 11
119.48
 21
117.253
  0
LINE
  8
0
 10
119.48
 20
117.253
 11
119.419
 21
117.013
  0
LINE
  8
0
 10
119.419
 20
117.013
 11
119.319
 21
116.786
  0
LINE
  8
0
 10
119.319
 20
116.786
 11
119.184
 21
116.579
  0
LINE
  8
0
 10
119.184
 20
116.579
 11
119.016
 21
116.396
  0
LINE
  8
0
 10
119.016
 20
116.396
 11
118.82
 21
116.244
  0
LINE
  8
0
 10
118.82
 20
116.244
 11
118.603
 21
116.126
  0
LINE
  8
0
 10
118.603
 20
116.126
 11
118.368
 21
116.046
  0
LINE
  8
0
 10
118.368
 20
116.046
 11
118.124
 21
116.005
  0
LINE
  8
0
 10
118.124
 20
116.005
 11
39.8761
 21
116.005
  0
LINE
  8
0
 10
39.8761
 20
108.505
 11
39.6318
 21
108.546
  0
LINE
  8
0
 10
39.6318
 20
108.546
 11
39.3974
 21
108.626
  0
LINE
  8
0
 10
39.3974
 20
108.626
 11
39.1796
 21
108.744
  0
LINE
  8
0
 10
39.1796
 20
108.744
 11
38.9841
 21
108.896
  0
LINE
  8
0
 10
38.9841
 20
108.896
 11
38.8163
 21
109.079
  0
LINE
  8
0
 10
38.8163
 20
109.079
 11
38.6808
 21
109.286
  0
LINE
  8
0
 10
38.6808
 20
109.286
 11
38.5813
 21
109.513
  0
LINE
  8
0
 10
38.5813
 20
109.513
 11
38.5204
 21
109.753
  0
LINE
  8
0
 10
38.5204
 20
109.753
 11
38.5
 21
110
  0
LINE
  8
0
 10
38.5
 20
110
 11
38.5204
 21
110.247
  0
LINE
  8
0
 10
38.5204
 20
110.247
 11
38.5813
 21
110.487
  0
LINE
  8
0
 10
38.5813
 20
110.487
 11
38.6808
 21
110.714
  0
LINE
  8
0
 10
38.6808
 20
110.714
 11
38.8163
 21
110.921
  0
LINE
  8
0
 10
38.8163
 20
110.921
 11
38.9841
 21
111.104
  0
LINE
  8
0
 10
38.9841
 20
111.104
 11
39.1796
 21
111.256
  0
LINE
  8
0
 10
39.1796
 20
111.256
 11
39.3974
 21
111.374
  0
LINE
  8
0
 10
39.3974
 20
111.374
 11
39.6318
 21
111.454
  0
LINE
  8
0
 10
39.6318
 20
111.454
 11
39.8761
 21
111.495
  0
LINE
  8
0
 10
39.8761
 20
111.495
 11
118.124
 21
111.495
  0
LINE
  8
0
 10
118.124
 20
111.495
 11
118.368
 21
111.454
  0
LINE
  8
0
 10
118.368
 20
111.454
 11
118.603
 21
111.374
  0
LINE
  8
0
 10
118.603
 20
111.374
 11
118.82
 21
111.256
  0
LINE
  8
0
 10
118.82
 20
111.256
 11
119.016
 21
111.104
  0
LINE
  8
0
 10
119.016
 20
111.104
 11
119.184
 21
110.921
  0
LINE
  8
0
 10
119.184
 20
110.921
 11
119.319
 21
110.714
  0
LINE
  8
0
 10
119.319
 20
110.714
 11
119.419
 21
110.487
  0
LINE
  8
0
 10
119.419
 20
110.487
 11
119.48
 21
110.247
  0
LINE
  8
0
 10
119.48
 20
110.247
 11
119.5
 21
110
  0
LINE
  8
0
 10
119.5
 20
110
 11
119.48
 21
109.753
  0
LINE
  8
0
 10
119.48
 20
109.753
 11
119.419
 21
109.513
  0
LINE
  8
0
 10
119.419
 20
109.513
 11
119.319
 21
109.286
  0
LINE
  8
0
 10
119.319
 20
109.286
 11
119.184
 21
109.079
  0
LINE
  8
0
 10
119.184
 20
109.079
 11
119.016
 21
108.896
  0
LINE
  8
0
 10
119.016
 20
108.896
 11
118.82
 21
108.744
  0
LINE
  8
0
 10
118.82
 20
108.744
 11
118.603
 21
108.626
  0
LINE
  8
0
 10
118.603
 20
108.626
 11
118.368
 21
108.546
  0
LINE
  8
0
 10
118.368
 20
108.546
 11
118.124
 21
108.505
  0
LINE
  8
0
 10
118.124
 20
108.505
 11
39.8761
 21
108.505
  0
LINE
  8
0
 10
39.8761
 20
101.005
 11
39.6318
 21
101.046
  0
LINE
  8
0
 10
39.6318
 20
101.046
 11
39.3974
 21
101.126
  0
LINE
  8
0
 10
39.3974
 20
101.126
 11
39.1796
 21
101.244
  0
LINE
  8
0
 10
39.1796
 20
101.244
 11
38.9841
 21
101.396
  0
LINE
  8
0
 10
38.9841
 20
101.396
 11
38.8163
 21
101.579
  0
LINE
  8
0
 10
38.8163
 20
101.579
 11
38.6808
 21
101.786
  0
LINE
  8
0
 10
38.6808
 20
101.786
 11
38.5813
 21
102.013
  0
LINE
  8
0
 10
38.5813
 20
102.013
 11
38.5204
 21
102.253
  0
LINE
  8
0
 10
38.5204
 20
102.253
 11
38.5
 21
102.5
  0
LINE
  8
0
 10
38.5
 20
102.5
 11
38.5204
 21
102.747
  0
LINE
  8
0
 10
38.5204
 20
102.747
 11
38.5813
 21
102.987
  0
LINE
  8
0
 10
38.5813
 20
102.987
 11
38.6808
 21
103.214
  0
LINE
  8
0
 10
38.6808
 20
103.214
 11
38.8163
 21
103.421
  0
LINE
  8
0
 10
38.8163
 20
103.421
 11
38.9841
 21
103.604
  0
LINE
  8
0
 10
38.9841
 20
103.604
 11
39.1796
 21
103.756
  0
LINE
  8
0
 10
39.1796
 20
103.756
 11
39.3974
 21
103.874
  0
LINE
  8
0
 10
39.3974
 20
103.874
 11
39.6318
 21
103.954
  0
LINE
  8
0
 10
39.6318
 20
103.954
 11
39.8761
 21
103.995
  0
LINE
  8
0
 10
39.8761
 20
103.995
 11
118.124
 21
103.995
  0
LINE
  8
0
 10
118.124
 20
103.995
 11
118.368
 21
103.954
  0
LINE
  8
0
 10
118.368
 20
103.954
 11
118.603
 21
103.874
  0
LINE
  8
0
 10
118.603
 20
103.874
 11
118.82
 21
103.756
  0
LINE
  8
0
 10
118.82
 20
103.756
 11
119.016
 21
103.604
  0
LINE
  8
0
 10
119.016
 20
103.604
 11
119.184
 21
103.421
  0
LINE
  8
0
 10
119.184
 20
103.421
 11
119.319
 21
103.214
  0
LINE
  8
0
 10
119.319
 20
103.214
 11
119.419
 21
102.987
  0
LINE
  8
0
 10
119.419
 20
102.987
 11
119.48
 21
102.747
  0
LINE
  8
0
 10
119.48
 20
102.747
 11
119.5
 21
102.5
  0
LINE
  8
0
 10
119.5
 20
102.5
 11
119.48
 21
102.253
  0
LINE
  8
0
 10
119.48
 20
102.253
 11
119.419
 21
102.013
  0
LINE
  8
0
 10
119.419
 20
102.013
 11
119.319
 21
101.786
  0
LINE
  8
0
 10
119.319
 20
101.786
 11
119.184
 21
101.579
  0
LINE
  8
0
 10
119.184
 20
101.579
 11
119.016
 21
101.396
  0
LINE
  8
0
 10
119.016
 20
101.396
 11
118.82
 21
101.244
  0
LINE
  8
0
 10
118.82
 20
101.244
 11
118.603
 21
101.126
  0
LINE
  8
0
 10
118.603
 20
101.126
 11
118.368
 21
101.046
  0
LINE
  8
0
 10
118.368
 20
101.046
 11
118.124
 21
101.005
  0
LINE
  8
0
 10
118.124
 20
101.005
 11
39.8761
 21
101.005
  0
LINE
  8
0
 10
39.8761
 20
93.5051
 11
39.6318
 21
93.5459
  0
LINE
  8
0
 10
39.6318
 20
93.5459
 11
39.3974
 21
93.6263
  0
LINE
  8
0
 10
39.3974
 20
93.6263
 11
39.1796
 21
93.7442
  0
LINE
  8
0
 10
39.1796
 20
93.7442
 11
38.9841
 21
93.8964
  0
LINE
  8
0
 10
38.9841
 20
93.8964
 11
38.8163
 21
94.0787
  0
LINE
  8
0
 10
38.8163
 20
94.0787
 11
38.6808
 21
94.2861
  0
LINE
  8
0
 10
38.6808
 20
94.2861
 11
38.5813
 21
94.513
  0
LINE
  8
0
 10
38.5813
 20
94.513
 11
38.5204
 21
94.7531
  0
LINE
  8
0
 10
38.5204
 20
94.7531
 11
38.5
 21
95
  0
LINE
  8
0
 10
38.5
 20
95
 11
38.5204
 21
95.2469
  0
LINE
  8
0
 10
38.5204
 20
95.2469
 11
38.5813
 21
95.487
  0
LINE
  8
0
 10
38.5813
 20
95.487
 11
38.6808
 21
95.7139
  0
LINE
  8
0
 10
38.6808
 20
95.7139
 11
38.8163
 21
95.9213
  0
LINE
  8
0
 10
38.8163
 20
95.9213
 11
38.9841
 21
96.1036
  0
LINE
  8
0
 10
38.9841
 20
96.1036
 11
39.1796
 21
96.2558
  0
LINE
  8
0
 10
39.1796
 20
96.2558
 11
39.3974
 21
96.3737
  0
LINE
  8
0
 10
39.3974
 20
96.3737
 11
39.6318
 21
96.4541
  0
LINE
  8
0
 10
39.6318
 20
96.4541
 11
39.8761
 21
96.4949
  0
LINE
  8
0
 10
39.8761
 20
96.4949
 11
118.124
 21
96.4949
  0
LINE
  8
0
 10
118.124
 20
96.4949
 11
118.368
 21
96.4541
  0
LINE
  8
0
 10
118.368
 20
96.4541
 11
118.603
 21
96.3737
  0
LINE
  8
0
 10
118.603
 20
96.3737
 11
118.82
 21
96.2558
  0
LINE
  8
0
 10
118.82
 20
96.2558
 11
119.016
 21
96.1036
  0
LINE
  8
0
 10
119.016
 20
96.1036
 11
119.184
 21
95.9213
  0
LINE
  8
0
 10
119.184
 20
95.9213
 11
119.319
 21
95.7139
  0
LINE
  8
0
 10
119.319
 20
95.7139
 11
119.419
 21
95.487
  0
LINE
  8
0
 10
119.419
 20
95.487
 11
119.48
 21
95.2469
  0
LINE
  8
0
 10
119.48
 20
95.2469
 11
119.5
 21
95
  0
LINE
  8
0
 10
119.5
 20
95
 11
119.48
 21
94.7531
  0
LINE
  8
0
 10
119.48
 20
94.7531
 11
119.419
 21
94.513
  0
LINE
  8
0
 10
119.419
 20
94.513
 11
119.319
 21
94.2861
  0
LINE
  8
0
 10
119.319
 20
94.2861
 11
119.184
 21
94.0787
  0
LINE
  8
0
 10
119.184
 20
94.0787
 11
119.016
 21
93.8964
  0
LINE
  8
0
 10
119.016
 20
93.8964
 11
118.82
 21
93.7442
  0
LINE
  8
0
 10
118.82
 20
93.7442
 11
118.603
 21
93.6263
  0
LINE
  8
0
 10
118.603
 20
93.6263
 11
118.368
 21
93.5459
  0
LINE
  8
0
 10
118.368
 20
93.5459
 11
118.124
 21
93.5051
  0
LINE
  8
0
 10
118.124
 20
93.5051
 11
39.8761
 21
93.5051
  0
LINE
  8
0
 10
39.8761
 20
86.0051
 11
39.6318
 21
86.0459
  0
LINE
  8
0
 10
39.6318
 20
86.0459
 11
39.3974
 21
86.1263
  0
LINE
  8
0
 10
39.3974
 20
86.1263
 11
39.1796
 21
86.2442
  0
LINE
  8
0
 10
39.1796
 20
86.2442
 11
38.9841
 21
86.3964
  0
LINE
  8
0
 10
38.9841
 20
86.3964
 11
38.8163
 21
86.5787
  0
LINE
  8
0
 10
38.8163
 20
86.5787
 11
38.6808
 21
86.7861
  0
LINE
  8
0
 10
38.6808
 20
86.7861
 11
38.5813
 21
87.013
  0
LINE
  8
0
 10
38.5813
 20
87.013
 11
38.5204
 21
87.2531
  0
LINE
  8
0
 10
38.5204
 20
87.2531
 11
38.5
 21
87.5
  0
LINE
  8
0
 10
38.5
 20
87.5
 11
38.5204
 21
87.7469
  0
LINE
  8
0
 10
38.5204
 20
87.7469
 11
38.5813
 21
87.987
  0
LINE
  8
0
 10
38.5813
 20
87.987
 11
38.6808
 21
88.2139
  0
LINE
  8
0
 10
38.6808
 20
88.2139
 11
38.8163
 21
88.4213
  0
LINE
  8
0
 10
38.8163
 20
88.4213
 11
38.9841
 21
88.6036
  0
LINE
  8
0
 10
38.9841
 20
88.6036
 11
39.1796
 21
88.7558
  0
LINE
  8
0
 10
39.1796
 20
88.7558
 11
39.3974
 21
88.8737
  0
LINE
  8
0
 10
39.3974
 20
88.8737
 11
39.6318
 21
88.9541
  0
LINE
  8
0
 10
39.6318
 20
88.9541
 11
39.8761
 21
88.9949
  0
LINE
  8
0
 10
39.8761
 20
88.9949
 11
118.124
 21
88.9949
  0
LINE
  8
0
 10
118.124
 20
88.9949
 11
118.368
 21
88.9541
  0
LINE
  8
0
 10
118.368
 20
88.9541
 11
118.603
 21
88.8737
  0
LINE
  8
0
 10
118.603
 20
88.8737
 11
118.82
 21
88.7558
  0
LINE
  8
0
 10
118.82
 20
88.7558
 11
119.016
 21
88.6036
  0
LINE
  8
0
 10
119.016
 20
88.6036
 11
119.184
 21
88.4213
  0
LINE
  8
0
 10
119.184
 20
88.4213
 11
119.319
 21
88.2139
  0
LINE
  8
0
 10
119.319
 20
88.2139
 11
119.419
 21
87.987
  0
LINE
  8
0
 10
119.419
 20
87.987
 11
119.48
 21
87.7469
  0
LINE
  8
0
 10
119.48
 20
87.7469
 11
119.5
 21
87.5
  0
LINE
  8
0
 10
119.5
 20
87.5
 11
119.48
 21
87.2531
  0
LINE
  8
0
 10
119.48
 20
87.2531
 11
119.419
 21
87.013
  0
LINE
  8
0
 10
119.419
 20
87.013
 11
119.319
 21
86.7861
  0
LINE
  8
0
 10
119.319
 20
86.7861
 11
119.184
 21
86.5787
  0
LINE
  8
0
 10
119.184
 20
86.5787
 11
119.016
 21
86.3964
  0
LINE
  8
0
 10
119.016
 20
86.3964
 11
118.82
 21
86.2442
  0
LINE
  8
0
 10
118.82
 20
86.2442
 11
118.603
 21
86.1263
  0
LINE
  8
0
 10
118.603
 20
86.1263
 11
118.368
 21
86.0459
  0
LINE
  8
0
 10
118.368
 20
86.0459
 11
118.124
 21
86.0051
  0
LINE
  8
0
 10
118.124
 20
86.0051
 11
39.8761
 21
86.0051
  0
LINE
  8
0
 10
39.8761
 20
78.5051
 11
39.6318
 21
78.5459
  0
LINE
  8
0
 10
39.6318
 20
78.5459
 11
39.3974
 21
78.6263
  0
LINE
  8
0
 10
39.3974
 20
78.6263
 11
39.1796
 21
78.7442
  0
LINE
  8
0
 10
39.1796
 20
78.7442
 11
38.9841
 21
78.8964
  0
LINE
  8
0
 10
38.9841
 20
78.8964
 11
38.8163
 21
79.0787
  0
LINE
  8
0
 10
38.8163
 20
79.0787
 11
38.6808
 21
79.2861
  0
LINE
  8
0
 10
38.6808
 20
79.2861
 11
38.5813
 21
79.513
  0
LINE
  8
0
 10
38.5813
 20
79.513
 11
38.5204
 21
79.7531
  0
LINE
  8
0
 10
38.5204
 20
79.7531
 11
38.5
 21
80
  0
LINE
  8
0
 10
38.5
 20
80
 11
38.5204
 21
80.2469
  0
LINE
  8
0
 10
38.5204
 20
80.2469
 11
38.5813
 21
80.487
  0
LINE
  8
0
 10
38.5813
 20
80.487
 11
38.6808
 21
80.7139
  0
LINE
  8
0
 10
38.6808
 20
80.7139
 11
38.8163
 21
80.9213
  0
LINE
  8
0
 10
38.8163
 20
80.9213
 11
38.9841
 21
81.1036
  0
LINE
  8
0
 10
38.9841
 20
81.1036
 11
39.1796
 21
81.2558
  0
LINE
  8
0
 10
39.1796
 20
81.2558
 11
39.3974
 21
81.3737
  0
LINE
  8
0
 10
39.3974
 20
81.3737
 11
39.6318
 21
81.4541
  0
LINE
  8
0
 10
39.6318
 20
81.4541
 11
39.8761
 21
81.4949
  0
LINE
  8
0
 10
39.8761
 20
81.4949
 11
118.124
 21
81.4949
  0
LINE
  8
0
 10
118.124
 20
81.4949
 11
118.368
 21
81.4541
  0
LINE
  8
0
 10
118.368
 20
81.4541
 11
118.603
 21
81.3737
  0
LINE
  8
0
 10
118.603
 20
81.3737
 11
118.82
 21
81.2558
  0
LINE
  8
0
 10
118.82
 20
81.2558
 11
119.016
 21
81.1036
  0
LINE
  8
0
 10
119.016
 20
81.1036
 11
119.184
 21
80.9213
  0
LINE
  8
0
 10
119.184
 20
80.9213
 11
119.319
 21
80.7139
  0
LINE
  8
0
 10
119.319
 20
80.7139
 11
119.419
 21
80.487
  0
LINE
  8
0
 10
119.419
 20
80.487
 11
119.48
 21
80.2469
  0
LINE
  8
0
 10
119.48
 20
80.2469
 11
119.5
 21
80
  0
LINE
  8
0
 10
119.5
 20
80
 11
119.48
 21
79.7531
  0
LINE
  8
0
 10
119.48
 20
79.7531
 11
119.419
 21
79.513
  0
LINE
  8
0
 10
119.419
 20
79.513
 11
119.319
 21
79.2861
  0
LINE
  8
0
 10
119.319
 20
79.2861
 11
119.184
 21
79.0787
  0
LINE
  8
0
 10
119.184
 20
79.0787
 11
119.016
 21
78.8964
  0
LINE
  8
0
 10
119.016
 20
78.8964
 11
118.82
 21
78.7442
  0
LINE
  8
0
 10
118.82
 20
78.7442
 11
118.603
 21
78.6263
  0
LINE
  8
0
 10
118.603
 20
78.6263
 11
118.368
 21
78.5459
  0
LINE
  8
0
 10
118.368
 20
78.5459
 11
118.124
 21
78.5051
  0
LINE
  8
0
 10
118.124
 20
78.5051
 11
39.8761
 21
78.5051
  0
LINE
  8
0
 10
39.8761
 20
71.0051
 11
39.6318
 21
71.0459
  0
LINE
  8
0
 10
39.6318
 20
71.0459
 11
39.3974
 21
71.1263
  0
LINE
  8
0
 10
39.3974
 20
71.1263
 11
39.1796
 21
71.2442
  0
LINE
  8
0
 10
39.1796
 20
71.2442
 11
38.9841
 21
71.3964
  0
LINE
  8
0
 10
38.9841
 20
71.3964
 11
38.8163
 21
71.5787
  0
LINE
  8
0
 10
38.8163
 20
71.5787
 11
38.6808
 21
71.7861
  0
LINE
  8
0
 10
38.6808
 20
71.7861
 11
38.5813
 21
72.013
  0
LINE
  8
0
 10
38.5813
 20
72.013
 11
38.5204
 21
72.2531
  0
LINE
  8
0
 10
38.5204
 20
72.2531
 11
38.5
 21
72.5
  0
LINE
  8
0
 10
38.5
 20
72.5
 11
38.5204
 21
72.7469
  0
LINE
  8
0
 10
38.5204
 20
72.7469
 11
38.5813
 21
72.987
  0
LINE
  8
0
 10
38.5813
 20
72.987
 11
38.6808
 21
73.2139
  0
LINE
  8
0
 10
38.6808
 20
73.2139
 11
38.8163
 21
73.4213
  0
LINE
  8
0
 10
38.8163
 20
73.4213
 11
38.9841
 21
73.6036
  0
LINE
  8
0
 10
38.9841
 20
73.6036
 11
39.1796
 21
73.7558
  0
LINE
  8
0
 10
39.1796
 20
73.7558
 11
39.3974
 21
73.8737
  0
LINE
  8
0
 10
39.3974
 20
73.8737
 11
39.6318
 21
73.9541
  0
LINE
  8
0
 10
39.6318
 20
73.9541
 11
39.8761
 21
73.9949
  0
LINE
  8
0
 10
39.8761
 20
73.9949
 11
118.124
 21
73.9949
  0
LINE
  8
0
 10
118.124
 20
73.9949
 11
118.368
 21
73.9541
  0
LINE
  8
0
 10
118.368
 20
73.9541
 11
118.603
 21
73.8737
  0
LINE
  8
0
 10
118.603
 20
73.8737
 11
118.82
 21
73.7558
  0
LINE
  8
0
 10
118.82
 20
73.7558
 11
119.016
 21
73.6036
  0
LINE
  8
0
 10
119.016
 20
73.6036
 11
119.184
 21
73.4213
  0
LINE
  8
0
 10
119.184
 20
73.4213
 11
119.319
 21
73.2139
  0
LINE
  8
0
 10
119.319
 20
73.2139
 11
119.419
 21
72.987
  0
LINE
  8
0
 10
119.419
 20
72.987
 11
119.48
 21
72.7469
  0
LINE
  8
0
 10
119.48
 20
72.7469
 11
119.5
 21
72.5
  0
LINE
  8
0
 10
119.5
 20
72.5
 11
119.48
 21
72.2531
  0
LINE
  8
0
 10
119.48
 20
72.2531
 11
119.419
 21
72.013
  0
LINE
  8
0
 10
119.419
 20
72.013
 11
119.319
 21
71.7861
  0
LINE
  8
0
 10
119.319
 20
71.7861
 11
119.184
 21
71.5787
  0
LINE
  8
0
 10
119.184
 20
71.5787
 11
119.016
 21
71.3964
  0
LINE
  8
0
 10
119.016
 20
71.3964
 11
118.82
 21
71.2442
  0
LINE
  8
0
 10
118.82
 20
71.2442
 11
118.603
 21
71.1263
  0
LINE
  8
0
 10
118.603
 20
71.1263
 11
118.368
 21
71.0459
  0
LINE
  8
0
 10
118.368
 20
71.0459
 11
118.124
 21
71.0051
  0
LINE
  8
0
 10
118.124
 20
71.0051
 11
39.8761
 21
71.0051
  0
LINE
  8
0
 10
39.8761
 20
63.5051
 11
39.6318
 21
63.5459
  0
LINE
  8
0
 10
39.6318
 20
63.5459
 11
39.3974
 21
63.6263
  0
LINE
  8
0
 10
39.3974
 20
63.6263
 11
39.1796
 21
63.7442
  0
LINE
  8
0
 10
39.1796
 20
63.7442
 11
38.9841
 21
63.8964
  0
LINE
  8
0
 10
38.9841
 20
63.8964
 11
38.8163
 21
64.0787
  0
LINE
  8
0
 10
38.8163
 20
64.0787
 11
38.6808
 21
64.2861
  0
LINE
  8
0
 10
38.6808
 20
64.2861
 11
38.5813
 21
64.513
  0
LINE
  8
0
 10
38.5813
 20
64.513
 11
38.5204
 21
64.7531
  0
LINE
  8
0
 10
38.5204
 20
64.7531
 11
38.5
 21
65
  0
LINE
  8
0
 10
38.5
 20
65
 11
38.5204
 21
65.2469
  0
LINE
  8
0
 10
38.5204
 20
65.2469
 11
38.5813
 21
65.487
  0
LINE
  8
0
 10
38.5813
 20
65.487
 11
38.6808
 21
65.7139
  0
LINE
  8
0
 10
38.6808
 20
65.7139
 11
38.8163
 21
65.9213
  0
LINE
  8
0
 10
38.8163
 20
65.9213
 11
38.9841
 21
66.1036
  0
LINE
  8
0
 10
38.9841
 20
66.1036
 11
39.1796
 21
66.2558
  0
LINE
  8
0
 10
39.1796
 20
66.2558
 11
39.3974
 21
66.3737
  0
LINE
  8
0
 10
39.3974
 20
66.3737
 11
39.6318
 21
66.4541
  0
LINE
  8
0
 10
39.6318
 20
66.4541
 11
39.8761
 21
66.4949
  0
LINE
  8
0
 10
39.8761
 20
66.4949
 11
118.124
 21
66.4949
  0
LINE
  8
0
 10
118.124
 20
66.4949
 11
118.368
 21
66.4541
  0
LINE
  8
0
 10
118.368
 20
66.4541
 11
118.603
 21
66.3737
  0
LINE
  8
0
 10
118.603
 20
66.3737
 11
118.82
 21
66.2558
  0
LINE
  8
0
 10
118.82
 20
66.2558
 11
119.016
 21
66.1036
  0
LINE
  8
0
 10
119.016
 20
66.1036
 11
119.184
 21
65.9213
  0
LINE
  8
0
 10
119.184
 20
65.9213
 11
119.319
 21
65.7139
  0
LINE
  8
0
 10
119.319
 20
65.7139
 11
119.419
 21
65.487
  0
LINE
  8
0
 10
119.419
 20
65.487
 11
119.48
 21
65.2469
  0
LINE
  8
0
 10
119.48
 20
65.2469
 11
119.5
 21
65
  0
LINE
  8
0
 10
119.5
 20
65
 11
119.48
 21
64.7531
  0
LINE
  8
0
 10
119.48
 20
64.7531
 11
119.419
 21
64.513
  0
LINE
  8
0
 10
119.419
 20
64.513
 11
119.319
 21
64.2861
  0
LINE
  8
0
 10
119.319
 20
64.2861
 11
119.184
 21
64.0787
  0
LINE
  8
0
 10
119.184
 20
64.0787
 11
119.016
 21
63.8964
  0
LINE
  8
0
 10
119.016
 20
63.8964
 11
118.82
 21
63.7442
  0
LINE
  8
0
 10
118.82
 20
63.7442
 11
118.603
 21
63.6263
  0
LINE
  8
0
 10
118.603
 20
63.6263
 11
118.368
 21
63.5459
  0
LINE
  8
0
 10
118.368
 20
63.5459
 11
118.124
 21
63.5051
  0
LINE
  8
0
 10
118.124
 20
63.5051
 11
39.8761
 21
63.5051
  0
LINE
  8
0
 10
39.8761
 20
56.0051
 11
39.6318
 21
56.0459
  0
LINE
  8
0
 10
39.6318
 20
56.0459
 11
39.3974
 21
56.1263
  0
LINE
  8
0
 10
39.3974
 20
56.1263
 11
39.1796
 21
56.2442
  0
LINE
  8
0
 10
39.1796
 20
56.2442
 11
38.9841
 21
56.3964
  0
LINE
  8
0
 10
38.9841
 20
56.3964
 11
38.8163
 21
56.5787
  0
LINE
  8
0
 10
38.8163
 20
56.5787
 11
38.6808
 21
56.7861
  0
LINE
  8
0
 10
38.6808
 20
56.7861
 11
38.5813
 21
57.0129
  0
LINE
  8
0
 10
38.5813
 20
57.0129
 11
38.5204
 21
57.2531
  0
LINE
  8
0
 10
38.5204
 20
57.2531
 11
38.5
 21
57.5
  0
LINE
  8
0
 10
38.5
 20
57.5
 11
38.5204
 21
57.7469
  0
LINE
  8
0
 10
38.5204
 20
57.7469
 11
38.5813
 21
57.987
  0
LINE
  8
0
 10
38.5813
 20
57.987
 11
38.6808
 21
58.2139
  0
LINE
  8
0
 10
38.6808
 20
58.2139
 11
38.8163
 21
58.4213
  0
LINE
  8
0
 10
38.8163
 20
58.4213
 11
38.9841
 21
58.6036
  0
LINE
  8
0
 10
38.9841
 20
58.6036
 11
39.1796
 21
58.7558
  0
LINE
  8
0
 10
39.1796
 20
58.7558
 11
39.3974
 21
58.8737
  0
LINE
  8
0
 10
39.3974
 20
58.8737
 11
39.6318
 21
58.9541
  0
LINE
  8
0
 10
39.6318
 20
58.9541
 11
39.8761
 21
58.9949
  0
LINE
  8
0
 10
39.8761
 20
58.9949
 11
118.124
 21
58.9949
  0
LINE
  8
0
 10
118.124
 20
58.9949
 11
118.368
 21
58.9541
  0
LINE
  8
0
 10
118.368
 20
58.9541
 11
118.603
 21
58.8737
  0
LINE
  8
0
 10
118.603
 20
58.8737
 11
118.82
 21
58.7558
  0
LINE
  8
0
 10
118.82
 20
58.7558
 11
119.016
 21
58.6036
  0
LINE
  8
0
 10
119.016
 20
58.6036
 11
119.184
 21
58.4213
  0
LINE
  8
0
 10
119.184
 20
58.4213
 11
119.319
 21
58.2139
  0
LINE
  8
0
 10
119.319
 20
58.2139
 11
119.419
 21
57.987
  0
LINE
  8
0
 10
119.419
 20
57.987
 11
119.48
 21
57.7469
  0
LINE
  8
0
 10
119.48
 20
57.7469
 11
119.5
 21
57.5
  0
LINE
  8
0
 10
119.5
 20
57.5
 11
119.48
 21
57.2531
  0
LINE
  8
0
 10
119.48
 20
57.2531
 11
119.419
 21
57.0129
  0
LINE
  8
0
 10
119.419
 20
57.0129
 11
119.319
 21
56.7861
  0
LINE
  8
0
 10
119.319
 20
56.7861
 11
119.184
 21
56.5787
  0
LINE
  8
0
 10
119.184
 20
56.5787
 11
119.016
 21
56.3964
  0
LINE
  8
0
 10
119.016
 20
56.3964
 11
118.82
 21
56.2442
  0
LINE
  8
0
 10
118.82
 20
56.2442
 11
118.603
 21
56.1263
  0
LINE
  8
0
 10
118.603
 20
56.1263
 11
118.368
 21
56.0459
  0
LINE
  8
0
 10
118.368
 20
56.0459
 11
118.124
 21
56.0051
  0
LINE
  8
0
 10
118.124
 20
56.0051
 11
39.8761
 21
56.0051
  0
LINE
  8
0
 10
39.8761
 20
48.5051
 11
39.6318
 21
48.5459
  0
LINE
  8
0
 10
39.6318
 20
48.5459
 11
39.3974
 21
48.6263
  0
LINE
  8
0
 10
39.3974
 20
48.6263
 11
39.1796
 21
48.7442
  0
LINE
  8
0
 10
39.1796
 20
48.7442
 11
38.9841
 21
48.8964
  0
LINE
  8
0
 10
38.9841
 20
48.8964
 11
38.8163
 21
49.0787
  0
LINE
  8
0
 10
38.8163
 20
49.0787
 11
38.6808
 21
49.2861
  0
LINE
  8
0
 10
38.6808
 20
49.2861
 11
38.5813
 21
49.5129
  0
LINE
  8
0
 10
38.5813
 20
49.5129
 11
38.5204
 21
49.7531
  0
LINE
  8
0
 10
38.5204
 20
49.7531
 11
38.5
 21
50
  0
LINE
  8
0
 10
38.5
 20
50
 11
38.5204
 21
50.2469
  0
LINE
  8
0
 10
38.5204
 20
50.2469
 11
38.5813
 21
50.487
  0
LINE
  8
0
 10
38.5813
 20
50.487
 11
38.6808
 21
50.7139
  0
LINE
  8
0
 10
38.6808
 20
50.7139
 11
38.8163
 21
50.9213
  0
LINE
  8
0
 10
38.8163
 20
50.9213
 11
38.9841
 21
51.1036
  0
LINE
  8
0
 10
38.9841
 20
51.1036
 11
39.1796
 21
51.2558
  0
LINE
  8
0
 10
39.1796
 20
51.2558
 11
39.3974
 21
51.3737
  0
LINE
  8
0
 10
39.3974
 20
51.3737
 11
39.6318
 21
51.4541
  0
LINE
  8
0
 10
39.6318
 20
51.4541
 11
39.8761
 21
51.4949
  0
LINE
  8
0
 10
39.8761
 20
51.4949
 11
118.124
 21
51.4949
  0
LINE
  8
0
 10
118.124
 20
51.4949
 11
118.368
 21
51.4541
  0
LINE
  8
0
 10
118.368
 20
51.4541
 11
118.603
 21
51.3737
  0
LINE
  8
0
 10
118.603
 20
51.3737
 11
118.82
 21
51.2558
  0
LINE
  8
0
 10
118.82
 20
51.2558
 11
119.016
 21
51.1036
  0
LINE
  8
0
 10
119.016
 20
51.1036
 11
119.184
 21
50.9213
  0
LINE
  8
0
 10
119.184
 20
50.9213
 11
119.319
 21
50.7139
  0
LINE
  8
0
 10
119.319
 20
50.7139
 11
119.419
 21
50.487
  0
LINE
  8
0
 10
119.419
 20
50.487
 11
119.48
 21
50.2469
  0
LINE
  8
0
 10
119.48
 20
50.2469
 11
119.5
 21
50
  0
LINE
  8
0
 10
119.5
 20
50
 11
119.48
 21
49.7531
  0
LINE
  8
0
 10
119.48
 20
49.7531
 11
119.419
 21
49.5129
  0
LINE
  8
0
 10
119.419
 20
49.5129
 11
119.319
 21
49.2861
  0
LINE
  8
0
 10
119.319
 20
49.2861
 11
119.184
 21
49.0787
  0
LINE
  8
0
 10
119.184
 20
49.0787
 11
119.016
 21
48.8964
  0
LINE
  8
0
 10
119.016
 20
48.8964
 11
118.82
 21
48.7442
  0
LINE
  8
0
 10
118.82
 20
48.7442
 11
118.603
 21
48.6263
  0
LINE
  8
0
 10
118.603
 20
48.6263
 11
118.368
 21
48.5459
  0
LINE
  8
0
 10
118.368
 20
48.5459
 11
118.124
 21
48.5051
  0
LINE
  8
0
 10
118.124
 20
48.5051
 11
39.8761
 21
48.5051
  0
LINE
  8
0
 10
39.8761
 20
41.0051
 11
39.6318
 21
41.0459
  0
LINE
  8
0
 10
39.6318
 20
41.0459
 11
39.3974
 21
41.1263
  0
LINE
  8
0
 10
39.3974
 20
41.1263
 11
39.1796
 21
41.2442
  0
LINE
  8
0
 10
39.1796
 20
41.2442
 11
38.9841
 21
41.3964
  0
LINE
  8
0
 10
38.9841
 20
41.3964
 11
38.8163
 21
41.5787
  0
LINE
  8
0
 10
38.8163
 20
41.5787
 11
38.6808
 21
41.7861
  0
LINE
  8
0
 10
38.6808
 20
41.7861
 11
38.5813
 21
42.0129
  0
LINE
  8
0
 10
38.5813
 20
42.0129
 11
38.5204
 21
42.2531
  0
LINE
  8
0
 10
38.5204
 20
42.2531
 11
38.5
 21
42.5
  0
LINE
  8
0
 10
38.5
 20
42.5
 11
38.5204
 21
42.7469
  0
LINE
  8
0
 10
38.5204
 20
42.7469
 11
38.5813
 21
42.987
  0
LINE
  8
0
 10
38.5813
 20
42.987
 11
38.6808
 21
43.2139
  0
LINE
  8
0
 10
38.6808
 20
43.2139
 11
38.8163
 21
43.4213
  0
LINE
  8
0
 10
38.8163
 20
43.4213
 11
38.9841
 21
43.6036
  0
LINE
  8
0
 10
38.9841
 20
43.6036
 11
39.1796
 21
43.7558
  0
LINE
  8
0
 10
39.1796
 20
43.7558
 11
39.3974
 21
43.8737
  0
LINE
  8
0
 10
39.3974
 20
43.8737
 11
39.6318
 21
43.9541
  0
LINE
  8
0
 10
39.6318
 20
43.9541
 11
39.8761
 21
43.9949
  0
LINE
  8
0
 10
39.8761
 20
43.9949
 11
118.124
 21
43.9949
  0
LINE
  8
0
 10
118.124
 20
43.9949
 11
118.368
 21
43.9541
  0
LINE
  8
0
 10
118.368
 20
43.9541
 11
118.603
 21
43.8737
  0
LINE
  8
0
 10
118.603
 20
43.8737
 11
118.82
 21
43.7558
  0
LINE
  8
0
 10
118.82
 20
43.7558
 11
119.016
 21
43.6036
  0
LINE
  8
0
 10
119.016
 20
43.6036
 11
119.184
 21
43.4213
  0
LINE
  8
0
 10
119.184
 20
43.4213
 11
119.319
 21
43.2139
  0
LINE
  8
0
 10
119.319
 20
43.2139
 11
119.419
 21
42.987
  0
LINE
  8
0
 10
119.419
 20
42.987
 11
119.48
 21
42.7469
  0
LINE
  8
0
 10
119.48
 20
42.7469
 11
119.5
 21
42.5
  0
LINE
  8
0
 10
119.5
 20
42.5
 11
119.48
 21
42.2531
  0
LINE
  8
0
 10
119.48
 20
42.2531
 11
119.419
 21
42.0129
  0
LINE
  8
0
 10
119.419
 20
42.0129
 11
119.319
 21
41.7861
  0
LINE
  8
0
 10
119.319
 20
41.7861
 11
119.184
 21
41.5787
  0
LINE
  8
0
 10
119.184
 20
41.5787
 11
119.016
 21
41.3964
  0
LINE
  8
0
 10
119.016
 20
41.3964
 11
118.82
 21
41.2442
  0
LINE
  8
0
 10
118.82
 20
41.2442
 11
118.603
 21
41.1263
  0
LINE
  8
0
 10
118.603
 20
41.1263
 11
118.368
 21
41.0459
  0
LINE
  8
0
 10
118.368
 20
41.0459
 11
118.124
 21
41.0051
  0
LINE
  8
0
 10
118.124
 20
41.0051
 11
39.8761
 21
41.0051
  0
LINE
  8
0
 10
39.8761
 20
33.5051
 11
39.6318
 21
33.5459
  0
LINE
  8
0
 10
39.6318
 20
33.5459
 11
39.3974
 21
33.6263
  0
LINE
  8
0
 10
39.3974
 20
33.6263
 11
39.1796
 21
33.7442
  0
LINE
  8
0
 10
39.1796
 20
33.7442
 11
38.9841
 21
33.8964
  0
LINE
  8
0
 10
38.9841
 20
33.8964
 11
38.8163
 21
34.0787
  0
LINE
  8
0
 10
38.8163
 20
34.0787
 11
38.6808
 21
34.2861
  0
LINE
  8
0
 10
38.6808
 20
34.2861
 11
38.5813
 21
34.5129
  0
LINE
  8
0
 10
38.5813
 20
34.5129
 11
38.5204
 21
34.7531
  0
LINE
  8
0
 10
38.5204
 20
34.7531
 11
38.5
 21
35
  0
LINE
  8
0
 10
38.5
 20
35
 11
38.5204
 21
35.2469
  0
LINE
  8
0
 10
38.5204
 20
35.2469
 11
38.5813
 21
35.487
  0
LINE
  8
0
 10
38.5813
 20
35.487
 11
38.6808
 21
35.7139
  0
LINE
  8
0
 10
38.6808
 20
35.7139
 11
38.8163
 21
35.9213
  0
LINE
  8
0
 10
38.8163
 20
35.9213
 11
38.9841
 21
36.1036
  0
LINE
  8
0
 10
38.9841
 20
36.1036
 11
39.1796
 21
36.2558
  0
LINE
  8
0
 10
39.1796
 20
36.2558
 11
39.3974
 21
36.3737
  0
LINE
  8
0
 10
39.3974
 20
36.3737
 11
39.6318
 21
36.4541
  0
LINE
  8
0
 10
39.6318
 20
36.4541
 11
39.8761
 21
36.4949
  0
LINE
  8
0
 10
39.8761
 20
36.4949
 11
118.124
 21
36.4949
  0
LINE
  8
0
 10
118.124
 20
36.4949
 11
118.368
 21
36.4541
  0
LINE
  8
0
 10
118.368
 20
36.4541
 11
118.603
 21
36.3737
  0
LINE
  8
0
 10
118.603
 20
36.3737
 11
118.82
 21
36.2558
  0
LINE
  8
0
 10
118.82
 20
36.2558
 11
119.016
 21
36.1036
  0
LINE
  8
0
 10
119.016
 20
36.1036
 11
119.184
 21
35.9213
  0
LINE
  8
0
 10
119.184
 20
35.9213
 11
119.319
 21
35.7139
  0
LINE
  8
0
 10
119.319
 20
35.7139
 11
119.419
 21
35.487
  0
LINE
  8
0
 10
119.419
 20
35.487
 11
119.48
 21
35.2469
  0
LINE
  8
0
 10
119.48
 20
35.2469
 11
119.5
 21
35
  0
LINE
  8
0
 10
119.5
 20
35
 11
119.48
 21
34.7531
  0
LINE
  8
0
 10
119.48
 20
34.7531
 11
119.419
 21
34.5129
  0
LINE
  8
0
 10
119.419
 20
34.5129
 11
119.319
 21
34.2861
  0
LINE
  8
0
 10
119.319
 20
34.2861
 11
119.184
 21
34.0787
  0
LINE
  8
0
 10
119.184
 20
34.0787
 11
119.016
 21
33.8964
  0
LINE
  8
0
 10
119.016
 20
33.8964
 11
118.82
 21
33.7442
  0
LINE
  8
0
 10
118.82
 20
33.7442
 11
118.603
 21
33.6263
  0
LINE
  8
0
 10
118.603
 20
33.6263
 11
118.368
 21
33.5459
  0
LINE
  8
0
 10
118.368
 20
33.5459
 11
118.124
 21
33.5051
  0
LINE
  8
0
 10
118.124
 20
33.5051
 11
39.8761
 21
33.5051
  0
LINE
  8
0
 10
39.8761
 20
26.0051
 11
39.6318
 21
26.0459
  0
LINE
  8
0
 10
39.6318
 20
26.0459
 11
39.3974
 21
26.1263
  0
LINE
  8
0
 10
39.3974
 20
26.1263
 11
39.1796
 21
26.2442
  0
LINE
  8
0
 10
39.1796
 20
26.2442
 11
38.9841
 21
26.3964
  0
LINE
  8
0
 10
38.9841
 20
26.3964
 11
38.8163
 21
26.5787
  0
LINE
  8
0
 10
38.8163
 20
26.5787
 11
38.6808
 21
26.7861
  0
LINE
  8
0
 10
38.6808
 20
26.7861
 11
38.5813
 21
27.0129
  0
LINE
  8
0
 10
38.5813
 20
27.0129
 11
38.5204
 21
27.2531
  0
LINE
  8
0
 10
38.5204
 20
27.2531
 11
38.5
 21
27.5
  0
LINE
  8
0
 10
38.5
 20
27.5
 11
38.5204
 21
27.7469
  0
LINE
  8
0
 10
38.5204
 20
27.7469
 11
38.5813
 21
27.987
  0
LINE
  8
0
 10
38.5813
 20
27.987
 11
38.6808
 21
28.2139
  0
LINE
  8
0
 10
38.6808
 20
28.2139
 11
38.8163
 21
28.4213
  0
LINE
  8
0
 10
38.8163
 20
28.4213
 11
38.9841
 21
28.6036
  0
LINE
  8
0
 10
38.9841
 20
28.6036
 11
39.1796
 21
28.7557
  0
LINE
  8
0
 10
39.1796
 20
28.7557
 11
39.3974
 21
28.8737
  0
LINE
  8
0
 10
39.3974
 20
28.8737
 11
39.6318
 21
28.9541
  0
LINE
  8
0
 10
39.6318
 20
28.9541
 11
39.8761
 21
28.9949
  0
LINE
  8
0
 10
39.8761
 20
28.9949
 11
118.124
 21
28.9949
  0
LINE
  8
0
 10
118.124
 20
28.9949
 11
118.368
 21
28.9541
  0
LINE
  8
0
 10
118.368
 20
28.9541
 11
118.603
 21
28.8737
  0
LINE
  8
0
 10
118.603
 20
28.8737
 11
118.82
 21
28.7557
  0
LINE
  8
0
 10
118.82
 20
28.7557
 11
119.016
 21
28.6036
  0
LINE
  8
0
 10
119.016
 20
28.6036
 11
119.184
 21
28.4213
  0
LINE
  8
0
 10
119.184
 20
28.4213
 11
119.319
 21
28.2139
  0
LINE
  8
0
 10
119.319
 20
28.2139
 11
119.419
 21
27.987
  0
LINE
  8
0
 10
119.419
 20
27.987
 11
119.48
 21
27.7469
  0
LINE
  8
0
 10
119.48
 20
27.7469
 11
119.5
 21
27.5
  0
LINE
  8
0
 10
119.5
 20
27.5
 11
119.48
 21
27.2531
  0
LINE
  8
0
 10
119.48
 20
27.2531
 11
119.419
 21
27.0129
  0
LINE
  8
0
 10
119.419
 20
27.0129
 11
119.319
 21
26.7861
  0
LINE
  8
0
 10
119.319
 20
26.7861
 11
119.184
 21
26.5787
  0
LINE
  8
0
 10
119.184
 20
26.5787
 11
119.016
 21
26.3964
  0
LINE
  8
0
 10
119.016
 20
26.3964
 11
118.82
 21
26.2442
  0
LINE
  8
0
 10
118.82
 20
26.2442
 11
118.603
 21
26.1263
  0
LINE
  8
0
 10
118.603
 20
26.1263
 11
118.368
 21
26.0459
  0
LINE
  8
0
 10
118.368
 20
26.0459
 11
118.124
 21
26.0051
  0
LINE
  8
0
 10
118.124
 20
26.0051
 11
39.8761
 21
26.0051
  0
LINE
  8
0
 10
39.8761
 20
18.5051
 11
39.6318
 21
18.5459
  0
LINE
  8
0
 10
39.6318
 20
18.5459
 11
39.3974
 21
18.6263
  0
LINE
  8
0
 10
39.3974
 20
18.6263
 11
39.1796
 21
18.7442
  0
LINE
  8
0
 10
39.1796
 20
18.7442
 11
38.9841
 21
18.8964
  0
LINE
  8
0
 10
38.9841
 20
18.8964
 11
38.8163
 21
19.0787
  0
LINE
  8
0
 10
38.8163
 20
19.0787
 11
38.6808
 21
19.2861
  0
LINE
  8
0
 10
38.6808
 20
19.2861
 11
38.5813
 21
19.5129
  0
LINE
  8
0
 10
38.5813
 20
19.5129
 11
38.5204
 21
19.7531
  0
LINE
  8
0
 10
38.5204
 20
19.7531
 11
38.5
 21
20
  0
LINE
  8
0
 10
38.5
 20
20
 11
38.5204
 21
20.2469
  0
LINE
  8
0
 10
38.5204
 20
20.2469
 11
38.5813
 21
20.487
  0
LINE
  8
0
 10
38.5813
 20
20.487
 11
38.6808
 21
20.7139
  0
LINE
  8
0
 10
38.6808
 20
20.7139
 11
38.8163
 21
20.9213
  0
LINE
  8
0
 10
38.8163
 20
20.9213
 11
38.9841
 21
21.1036
  0
LINE
  8
0
 10
38.9841
 20
21.1036
 11
39.1796
 21
21.2557
  0
LINE
  8
0
 10
39.1796
 20
21.2557
 11
39.3974
 21
21.3737
  0
LINE
  8
0
 10
39.3974
 20
21.3737
 11
39.6318
 21
21.4541
  0
LINE
  8
0
 10
39.6318
 20
21.4541
 11
39.8761
 21
21.4949
  0
LINE
  8
0
 10
39.8761
 20
21.4949
 11
118.124
 21
21.4949
  0
LINE
  8
0
 10
118.124
 20
21.4949
 11
118.368
 21
21.4541
  0
LINE
  8
0
 10
118.368
 20
21.4541
 11
118.603
 21
21.3737
  0
LINE
  8
0
 10
118.603
 20
21.3737
 11
118.82
 21
21.2557
  0
LINE
  8
0
 10
118.82
 20
21.2557
 11
119.016
 21
21.1036
  0
LINE
  8
0
 10
119.016
 20
21.1036
 11
119.184
 21
20.9213
  0
LINE
  8
0
 10
119.184
 20
20.9213
 11
119.319
 21
20.7139
  0
LINE
  8
0
 10
119.319
 20
20.7139
 11
119.419
 21
20.487
  0
LINE
  8
0
 10
119.419
 20
20.487
 11
119.48
 21
20.2469
  0
LINE
  8
0
 10
119.48
 20
20.2469
 11
119.5
 21
20
  0
LINE
  8
0
 10
119.5
 20
20
 11
119.48
 21
19.7531
  0
LINE
  8
0
 10
119.48
 20
19.7531
 11
119.419
 21
19.5129
  0
LINE
  8
0
 10
119.419
 20
19.5129
 11
119.319
 21
19.2861
  0
LINE
  8
0
 10
119.319
 20
19.2861
 11
119.184
 21
19.0787
  0
LINE
  8
0
 10
119.184
 20
19.0787
 11
119.016
 21
18.8964
  0
LINE
  8
0
 10
119.016
 20
18.8964
 11
118.82
 21
18.7442
  0
LINE
  8
0
 10
118.82
 20
18.7442
 11
118.603
 21
18.6263
  0
LINE
  8
0
 10
118.603
 20
18.6263
 11
118.368
 21
18.5459
  0
LINE
  8
0
 10
118.368
 20
18.5459
 11
118.124
 21
18.5051
  0
LINE
  8
0
 10
118.124
 20
18.5051
 11
39.8761
 21
18.5051
  0
LINE
  8
0
 10
39.8761
 20
11.0051
 11
39.6318
 21
11.0459
  0
LINE
  8
0
 10
39.6318
 20
11.0459
 11
39.3974
 21
11.1263
  0
LINE
  8
0
 10
39.3974
 20
11.1263
 11
39.1796
 21
11.2442
  0
LINE
  8
0
 10
39.1796
 20
11.2442
 11
38.9841
 21
11.3964
  0
LINE
  8
0
 10
38.9841
 20
11.3964
 11
38.8163
 21
11.5787
  0
LINE
  8
0
 10
38.8163
 20
11.5787
 11
38.6808
 21
11.7861
  0
LINE
  8
0
 10
38.6808
 20
11.7861
 11
38.5813
 21
12.0129
  0
LINE
  8
0
 10
38.5813
 20
12.0129
 11
38.5204
 21
12.2531
  0
LINE
  8
0
 10
38.5204
 20
12.2531
 11
38.5
 21
12.5
  0
LINE
  8
0
 10
38.5
 20
12.5
 11
38.5204
 21
12.7469
  0
LINE
  8
0
 10
38.5204
 20
12.7469
 11
38.5813
 21
12.987
  0
LINE
  8
0
 10
38.5813
 20
12.987
 11
38.6808
 21
13.2139
  0
LINE
  8
0
 10
38.6808
 20
13.2139
 11
38.8163
 21
13.4213
  0
LINE
  8
0
 10
38.8163
 20
13.4213
 11
38.9841
 21
13.6036
  0
LINE
  8
0
 10
38.9841
 20
13.6036
 11
39.1796
 21
13.7557
  0
LINE
  8
0
 10
39.1796
 20
13.7557
 11
39.3974
 21
13.8737
  0
LINE
  8
0
 10
39.3974
 20
13.8737
 11
39.6318
 21
13.9541
  0
LINE
  8
0
 10
39.6318
 20
13.9541
 11
39.8761
 21
13.9949
  0
LINE
  8
0
 10
39.8761
 20
13.9949
 11
118.124
 21
13.9949
  0
LINE
  8
0
 10
118.124
 20
13.9949
 11
118.368
 21
13.9541
  0
LINE
  8
0
 10
118.368
 20
13.9541
 11
118.603
 21
13.8737
  0
LINE
  8
0
 10
118.603
 20
13.8737
 11
118.82
 21
13.7557
  0
LINE
  8
0
 10
118.82
 20
13.7557
 11
119.016
 21
13.6036
  0
LINE
  8
0
 10
119.016
 20
13.6036
 11
119.184
 21
13.4213
  0
LINE
  8
0
 10
119.184
 20
13.4213
 11
119.319
 21
13.2139
  0
LINE
  8
0
 10
119.319
 20
13.2139
 11
119.419
 21
12.987
  0
LINE
  8
0
 10
119.419
 20
12.987
 11
119.48
 21
12.7469
  0
LINE
  8
0
 10
119.48
 20
12.7469
 11
119.5
 21
12.5
  0
LINE
  8
0
 10
119.5
 20
12.5
 11
119.48
 21
12.2531
  0
LINE
  8
0
 10
119.48
 20
12.2531
 11
119.419
 21
12.0129
  0
LINE
  8
0
 10
119.419
 20
12.0129
 11
119.319
 21
11.7861
  0
LINE
  8
0
 10
119.319
 20
11.7861
 11
119.184
 21
11.5787
  0
LINE
  8
0
 10
119.184
 20
11.5787
 11
119.016
 21
11.3964
  0
LINE
  8
0
 10
119.016
 20
11.3964
 11
118.82
 21
11.2442
  0
LINE
  8
0
 10
118.82
 20
11.2442
 11
118.603
 21
11.1263
  0
LINE
  8
0
 10
118.603
 20
11.1263
 11
118.368
 21
11.0459
  0
LINE
  8
0
 10
118.368
 20
11.0459
 11
118.124
 21
11.0051
  0
LINE
  8
0
 10
118.124
 20
11.0051
 11
39.8761
 21
11.0051
  0
LINE
  8
0
 10
39.8761
 20
3.50511
 11
39.6318
 21
3.5459
  0
LINE
  8
0
 10
39.6318
 20
3.5459
 11
39.3974
 21
3.62633
  0
LINE
  8
0
 10
39.3974
 20
3.62633
 11
39.1796
 21
3.74425
  0
LINE
  8
0
 10
39.1796
 20
3.74425
 11
38.9841
 21
3.89641
  0
LINE
  8
0
 10
38.9841
 20
3.89641
 11
38.8163
 21
4.07867
  0
LINE
  8
0
 10
38.8163
 20
4.07867
 11
38.6808
 21
4.28607
  0
LINE
  8
0
 10
38.6808
 20
4.28607
 11
38.5813
 21
4.51294
  0
LINE
  8
0
 10
38.5813
 20
4.51294
 11
38.5204
 21
4.7531
  0
LINE
  8
0
 10
38.5204
 20
4.7531
 11
38.5
 21
5
  0
LINE
  8
0
 10
38.5
 20
5
 11
38.5204
 21
5.24689
  0
LINE
  8
0
 10
38.5204
 20
5.24689
 11
38.5813
 21
5.48705
  0
LINE
  8
0
 10
38.5813
 20
5.48705
 11
38.6808
 21
5.71391
  0
LINE
  8
0
 10
38.6808
 20
5.71391
 11
38.8163
 21
5.92131
  0
LINE
  8
0
 10
38.8163
 20
5.92131
 11
38.9841
 21
6.10358
  0
LINE
  8
0
 10
38.9841
 20
6.10358
 11
39.1796
 21
6.25574
  0
LINE
  8
0
 10
39.1796
 20
6.25574
 11
39.3974
 21
6.37366
  0
LINE
  8
0
 10
39.3974
 20
6.37366
 11
39.6318
 21
6.45409
  0
LINE
  8
0
 10
39.6318
 20
6.45409
 11
39.8761
 21
6.49487
  0
LINE
  8
0
 10
39.8761
 20
6.49487
 11
118.124
 21
6.49487
  0
LINE
  8
0
 10
118.124
 20
6.49487
 11
118.368
 21
6.45409
  0
LINE
  8
0
 10
118.368
 20
6.45409
 11
118.603
 21
6.37366
  0
LINE
  8
0
 10
118.603
 20
6.37366
 11
118.82
 21
6.25574
  0
LINE
  8
0
 10
118.82
 20
6.25574
 11
119.016
 21
6.10358
  0
LINE
  8
0
 10
119.016
 20
6.10358
 11
119.184
 21
5.92131
  0
LINE
  8
0
 10
119.184
 20
5.92131
 11
119.319
 21
5.71391
  0
LINE
  8
0
 10
119.319
 20
5.71391
 11
119.419
 21
5.48705
  0
LINE
  8
0
 10
119.419
 20
5.48705
 11
119.48
 21
5.24689
  0
LINE
  8
0
 10
119.48
 20
5.24689
 11
119.5
 21
5
  0
LINE
  8
0
 10
119.5
 20
5
 11
119.48
 21
4.7531
  0
LINE
  8
0
 10
119.48
 20
4.7531
 11
119.419
 21
4.51294
  0
LINE
  8
0
 10
119.419
 20
4.51294
 11
119.319
 21
4.28607
  0
LINE
  8
0
 10
119.319
 20
4.28607
 11
119.184
 21
4.07867
  0
LINE
  8
0
 10
119.184
 20
4.07867
 11
119.016
 21
3.89641
  0
LINE
  8
0
 10
119.016
 20
3.89641
 11
118.82
 21
3.74425
  0
LINE
  8
0
 10
118.82
 20
3.74425
 11
118.603
 21
3.62633
  0
LINE
  8
0
 10
118.603
 20
3.62633
 11
118.368
 21
3.5459
  0
LINE
  8
0
 10
118.368
 20
3.5459
 11
118.124
 21
3.50511
  0
LINE
  8
0
 10
118.124
 20
3.50511
 11
39.8761
 21
3.50511
  0
LINE
  8
0
 10
39.8761
 20
-3.99487
 11
39.6318
 21
-3.95409
  0
LINE
  8
0
 10
39.6318
 20
-3.95409
 11
39.3974
 21
-3.87366
  0
LINE
  8
0
 10
39.3974
 20
-3.87366
 11
39.1796
 21
-3.75574
  0
LINE
  8
0
 10
39.1796
 20
-3.75574
 11
38.9841
 21
-3.60358
  0
LINE
  8
0
 10
38.9841
 20
-3.60358
 11
38.8163
 21
-3.42131
  0
LINE
  8
0
 10
38.8163
 20
-3.42131
 11
38.6808
 21
-3.21391
  0
LINE
  8
0
 10
38.6808
 20
-3.21391
 11
38.5813
 21
-2.98705
  0
LINE
  8
0
 10
38.5813
 20
-2.98705
 11
38.5204
 21
-2.74689
  0
LINE
  8
0
 10
38.5204
 20
-2.74689
 11
38.5
 21
-2.5
  0
LINE
  8
0
 10
38.5
 20
-2.5
 11
38.5204
 21
-2.2531
  0
LINE
  8
0
 10
38.5204
 20
-2.2531
 11
38.5813
 21
-2.01294
  0
LINE
  8
0
 10
38.5813
 20
-2.01294
 11
38.6808
 21
-1.78607
  0
LINE
  8
0
 10
38.6808
 20
-1.78607
 11
38.8163
 21
-1.57867
  0
LINE
  8
0
 10
38.8163
 20
-1.57867
 11
38.9841
 21
-1.39641
  0
LINE
  8
0
 10
38.9841
 20
-1.39641
 11
39.1796
 21
-1.24425
  0
LINE
  8
0
 10
39.1796
 20
-1.24425
 11
39.3974
 21
-1.12633
  0
LINE
  8
0
 10
39.3974
 20
-1.12633
 11
39.6318
 21
-1.0459
  0
LINE
  8
0
 10
39.6318
 20
-1.0459
 11
39.8761
 21
-1.00511
  0
LINE
  8
0
 10
39.8761
 20
-1.00511
 11
118.124
 21
-1.00511
  0
LINE
  8
0
 10
118.124
 20
-1.00511
 11
118.368
 21
-1.0459
  0
LINE
  8
0
 10
118.368
 20
-1.0459
 11
118.603
 21
-1.12633
  0
LINE
  8
0
 10
118.603
 20
-1.12633
 11
118.82
 21
-1.24425
  0
LINE
  8
0
 10
118.82
 20
-1.24425
 11
119.016
 21
-1.39641
  0
LINE
  8
0
 10
119.016
 20
-1.39641
 11
119.184
 21
-1.57867
  0
LINE
  8
0
 10
119.184
 20
-1.57867
 11
119.319
 21
-1.78607
  0
LINE
  8
0
 10
119.319
 20
-1.78607
 11
119.419
 21
-2.01294
  0
LINE
  8
0
 10
119.419
 20
-2.01294
 11
119.48
 21
-2.2531
  0
LINE
  8
0
 10
119.48
 20
-2.2531
 11
119.5
 21
-2.5
  0
LINE
  8
0
 10
119.5
 20
-2.5
 11
119.48
 21
-2.74689
  0
LINE
  8
0
 10
119.48
 20
-2.74689
 11
119.419
 21
-2.98705
  0
LINE
  8
0
 10
119.419
 20
-2.98705
 11
119.319
 21
-3.21391
  0
LINE
  8
0
 10
119.319
 20
-3.21391
 11
119.184
 21
-3.42131
  0
LINE
  8
0
 10
119.184
 20
-3.42131
 11
119.016
 21
-3.60358
  0
LINE
  8
0
 10
119.016
 20
-3.60358
 11
118.82
 21
-3.75574
  0
LINE
  8
0
 10
118.82
 20
-3.75574
 11
118.603
 21
-3.87366
  0
LINE
  8
0
 10
118.603
 20
-3.87366
 11
118.368
 21
-3.95409
  0
LINE
  8
0
 10
118.368
 20
-3.95409
 11
118.124
 21
-3.99487
  0
LINE
  8
0
 10
118.124
 20
-3.99487
 11
39.8761
 21
-3.99487
  0
LINE
  8
0
 10
39.8761
 20
-11.4949
 11
39.6318
 21
-11.4541
  0
LINE
  8
0
 10
39.6318
 20
-11.4541
 11
39.3974
 21
-11.3737
  0
LINE
  8
0
 10
39.3974
 20
-11.3737
 11
39.1796
 21
-11.2557
  0
LINE
  8
0
 10
39.1796
 20
-11.2557
 11
38.9841
 21
-11.1036
  0
LINE
  8
0
 10
38.9841
 20
-11.1036
 11
38.8163
 21
-10.9213
  0
LINE
  8
0
 10
38.8163
 20
-10.9213
 11
38.6808
 21
-10.7139
  0
LINE
  8
0
 10
38.6808
 20
-10.7139
 11
38.5813
 21
-10.487
  0
LINE
  8
0
 10
38.5813
 20
-10.487
 11
38.5204
 21
-10.2469
  0
LINE
  8
0
 10
38.5204
 20
-10.2469
 11
38.5
 21
-10
  0
LINE
  8
0
 10
38.5
 20
-10
 11
38.5204
 21
-9.7531
  0
LINE
  8
0
 10
38.5204
 20
-9.7531
 11
38.5813
 21
-9.51294
  0
LINE
  8
0
 10
38.5813
 20
-9.51294
 11
38.6808
 21
-9.28607
  0
LINE
  8
0
 10
38.6808
 20
-9.28607
 11
38.8163
 21
-9.07867
  0
LINE
  8
0
 10
38.8163
 20
-9.07867
 11
38.9841
 21
-8.89641
  0
LINE
  8
0
 10
38.9841
 20
-8.89641
 11
39.1796
 21
-8.74425
  0
LINE
  8
0
 10
39.1796
 20
-8.74425
 11
39.3974
 21
-8.62633
  0
LINE
  8
0
 10
39.3974
 20
-8.62633
 11
39.6318
 21
-8.5459
  0
LINE
  8
0
 10
39.6318
 20
-8.5459
 11
39.8761
 21
-8.50511
  0
LINE
  8
0
 10
39.8761
 20
-8.50511
 11
118.124
 21
-8.50511
  0
LINE
  8
0
 10
118.124
 20
-8.50511
 11
118.368
 21
-8.5459
  0
LINE
  8
0
 10
118.368
 20
-8.5459
 11
118.603
 21
-8.62633
  0
LINE
  8
0
 10
118.603
 20
-8.62633
 11
118.82
 21
-8.74425
  0
LINE
  8
0
 10
118.82
 20
-8.74425
 11
119.016
 21
-8.89641
  0
LINE
  8
0
 10
119.016
 20
-8.89641
 11
119.184
 21
-9.07867
  0
LINE
  8
0
 10
119.184
 20
-9.07867
 11
119.319
 21
-9.28607
  0
LINE
  8
0
 10
119.319
 20
-9.28607
 11
119.419
 21
-9.51294
  0
LINE
  8
0
 10
119.419
 20
-9.51294
 11
119.48
 21
-9.7531
  0
LINE
  8
0
 10
119.48
 20
-9.7531
 11
119.5
 21
-10
  0
LINE
  8
0
 10
119.5
 20
-10
 11
119.48
 21
-10.2469
  0
LINE
  8
0
 10
119.48
 20
-10.2469
 11
119.419
 21
-10.487
  0
LINE
  8
0
 10
119.419
 20
-10.487
 11
119.319
 21
-10.7139
  0
LINE
  8
0
 10
119.319
 20
-10.7139
 11
119.184
 21
-10.9213
  0
LINE
  8
0
 10
119.184
 20
-10.9213
 11
119.016
 21
-11.1036
  0
LINE
  8
0
 10
119.016
 20
-11.1036
 11
118.82
 21
-11.2557
  0
LINE
  8
0
 10
118.82
 20
-11.2557
 11
118.603
 21
-11.3737
  0
LINE
  8
0
 10
118.603
 20
-11.3737
 11
118.368
 21
-11.4541
  0
LINE
  8
0
 10
118.368
 20
-11.4541
 11
118.124
 21
-11.4949
  0
LINE
  8
0
 10
118.124
 20
-11.4949
 11
39.8761
 21
-11.4949
  0
LINE
  8
0
 10
39.8761
 20
-18.9949
 11
39.6318
 21
-18.9541
  0
LINE
  8
0
 10
39.6318
 20
-18.9541
 11
39.3974
 21
-18.8737
  0
LINE
  8
0
 10
39.3974
 20
-18.8737
 11
39.1796
 21
-18.7557
  0
LINE
  8
0
 10
39.1796
 20
-18.7557
 11
38.9841
 21
-18.6036
  0
LINE
  8
0
 10
38.9841
 20
-18.6036
 11
38.8163
 21
-18.4213
  0
LINE
  8
0
 10
38.8163
 20
-18.4213
 11
38.6808
 21
-18.2139
  0
LINE
  8
0
 10
38.6808
 20
-18.2139
 11
38.5813
 21
-17.987
  0
LINE
  8
0
 10
38.5813
 20
-17.987
 11
38.5204
 21
-17.7469
  0
LINE
  8
0
 10
38.5204
 20
-17.7469
 11
38.5
 21
-17.5
  0
LINE
  8
0
 10
38.5
 20
-17.5
 11
38.5204
 21
-17.2531
  0
LINE
  8
0
 10
38.5204
 20
-17.2531
 11
38.5813
 21
-17.0129
  0
LINE
  8
0
 10
38.5813
 20
-17.0129
 11
38.6808
 21
-16.7861
  0
LINE
  8
0
 10
38.6808
 20
-16.7861
 11
38.8163
 21
-16.5787
  0
LINE
  8
0
 10
38.8163
 20
-16.5787
 11
38.9841
 21
-16.3964
  0
LINE
  8
0
 10
38.9841
 20
-16.3964
 11
39.1796
 21
-16.2442
  0
LINE
  8
0
 10
39.1796
 20
-16.2442
 11
39.3974
 21
-16.1263
  0
LINE
  8
0
 10
39.3974
 20
-16.1263
 11
39.6318
 21
-16.0459
  0
LINE
  8
0
 10
39.6318
 20
-16.0459
 11
39.8761
 21
-16.0051
  0
LINE
  8
0
 10
39.8761
 20
-16.0051
 11
118.124
 21
-16.0051
  0
LINE
  8
0
 10
118.124
 20
-16.0051
 11
118.368
 21
-16.0459
  0
LINE
  8
0
 10
118.368
 20
-16.0459
 11
118.603
 21
-16.1263
  0
LINE
  8
0
 10
118.603
 20
-16.1263
 11
118.82
 21
-16.2442
  0
LINE
  8
0
 10
118.82
 20
-16.2442
 11
119.016
 21
-16.3964
  0
LINE
  8
0
 10
119.016
 20
-16.3964
 11
119.184
 21
-16.5787
  0
LINE
  8
0
 10
119.184
 20
-16.5787
 11
119.319
 21
-16.7861
  0
LINE
  8
0
 10
119.319
 20
-16.7861
 11
119.419
 21
-17.0129
  0
LINE
  8
0
 10
119.419
 20
-17.0129
 11
119.48
 21
-17.2531
  0
LINE
  8
0
 10
119.48
 20
-17.2531
 11
119.5
 21
-17.5
  0
LINE
  8
0
 10
119.5
 20
-17.5
 11
119.48
 21
-17.7469
  0
LINE
  8
0
 10
119.48
 20
-17.7469
 11
119.419
 21
-17.987
  0
LINE
  8
0
 10
119.419
 20
-17.987
 11
119.319
 21
-18.2139
  0
LINE
  8
0
 10
119.319
 20
-18.2139
 11
119.184
 21
-18.4213
  0
LINE
  8
0
 10
119.184
 20
-18.4213
 11
119.016
 21
-18.6036
  0
LINE
  8
0
 10
119.016
 20
-18.6036
 11
118.82
 21
-18.7557
  0
LINE
  8
0
 10
118.82
 20
-18.7557
 11
118.603
 21
-18.8737
  0
LINE
  8
0
 10
118.603
 20
-18.8737
 11
118.368
 21
-18.9541
  0
LINE
  8
0
 10
118.368
 20
-18.9541
 11
118.124
 21
-18.9949
  0
LINE
  8
0
 10
118.124
 20
-18.9949
 11
39.8761
 21
-18.9949
  0
LINE
  8
0
 10
-160.198
 20
-232.312
 11
-160.444
 21
-232.273
  0
LINE
  8
0
 10
-160.444
 20
-232.273
 11
-160.684
 21
-232.209
  0
LINE
  8
0
 10
-160.684
 20
-232.209
 11
-160.916
 21
-232.12
  0
LINE
  8
0
 10
-160.916
 20
-232.12
 11
-161.137
 21
-232.007
  0
LINE
  8
0
 10
-161.137
 20
-232.007
 11
-161.346
 21
-231.871
  0
LINE
  8
0
 10
-161.346
 20
-231.871
 11
-161.539
 21
-231.715
  0
LINE
  8
0
 10
-161.539
 20
-231.715
 11
-161.715
 21
-231.539
  0
LINE
  8
0
 10
-161.715
 20
-231.539
 11
-161.871
 21
-231.346
  0
LINE
  8
0
 10
-161.871
 20
-231.346
 11
-162.007
 21
-231.137
  0
LINE
  8
0
 10
-162.007
 20
-231.137
 11
-162.12
 21
-230.916
  0
LINE
  8
0
 10
-162.12
 20
-230.916
 11
-162.209
 21
-230.684
  0
LINE
  8
0
 10
-162.209
 20
-230.684
 11
-162.273
 21
-230.444
  0
LINE
  8
0
 10
-162.273
 20
-230.444
 11
-162.312
 21
-230.198
  0
LINE
  8
0
 10
-162.312
 20
-230.198
 11
-162.325
 21
-229.95
  0
LINE
  8
0
 10
-162.325
 20
-229.95
 11
-162.312
 21
-229.702
  0
LINE
  8
0
 10
-162.312
 20
-229.702
 11
-162.273
 21
-229.456
  0
LINE
  8
0
 10
-162.273
 20
-229.456
 11
-162.209
 21
-229.216
  0
LINE
  8
0
 10
-162.209
 20
-229.216
 11
-162.12
 21
-228.984
  0
LINE
  8
0
 10
-162.12
 20
-228.984
 11
-162.007
 21
-228.762
  0
LINE
  8
0
 10
-162.007
 20
-228.762
 11
-161.871
 21
-228.554
  0
LINE
  8
0
 10
-161.871
 20
-228.554
 11
-161.715
 21
-228.361
  0
LINE
  8
0
 10
-161.715
 20
-228.361
 11
-161.539
 21
-228.185
  0
LINE
  8
0
 10
-161.539
 20
-228.185
 11
-161.346
 21
-228.029
  0
LINE
  8
0
 10
-161.346
 20
-228.029
 11
-161.137
 21
-227.893
  0
LINE
  8
0
 10
-161.137
 20
-227.893
 11
-160.916
 21
-227.78
  0
LINE
  8
0
 10
-160.916
 20
-227.78
 11
-160.684
 21
-227.691
  0
LINE
  8
0
 10
-160.684
 20
-227.691
 11
-160.444
 21
-227.627
  0
LINE
  8
0
 10
-160.444
 20
-227.627
 11
-160.198
 21
-227.588
  0
LINE
  8
0
 10
-160.198
 20
-227.588
 11
-159.95
 21
-227.575
  0
LINE
  8
0
 10
-159.95
 20
-227.575
 11
-159.702
 21
-227.588
  0
LINE
  8
0
 10
-159.702
 20
-227.588
 11
-159.456
 21
-227.627
  0
LINE
  8
0
 10
-159.456
 20
-227.627
 11
-159.216
 21
-227.691
  0
LINE
  8
0
 10
-159.216
 20
-227.691
 11
-158.984
 21
-227.78
  0
LINE
  8
0
 10
-158.984
 20
-227.78
 11
-158.762
 21
-227.893
  0
LINE
  8
0
 10
-158.762
 20
-227.893
 11
-158.554
 21
-228.029
  0
LINE
  8
0
 10
-158.554
 20
-228.029
 11
-158.361
 21
-228.185
  0
LINE
  8
0
 10
-158.361
 20
-228.185
 11
-158.185
 21
-228.361
  0
LINE
  8
0
 10
-158.185
 20
-228.361
 11
-158.029
 21
-228.554
  0
LINE
  8
0
 10
-158.029
 20
-228.554
 11
-157.893
 21
-228.762
  0
LINE
  8
0
 10
-157.893
 20
-228.762
 11
-157.78
 21
-228.984
  0
LINE
  8
0
 10
-157.78
 20
-228.984
 11
-157.691
 21
-229.216
  0
LINE
  8
0
 10
-157.691
 20
-229.216
 11
-157.627
 21
-229.456
  0
LINE
  8
0
 10
-157.627
 20
-229.456
 11
-157.588
 21
-229.702
  0
LINE
  8
0
 10
-157.588
 20
-229.702
 11
-157.575
 21
-229.95
  0
LINE
  8
0
 10
-157.575
 20
-229.95
 11
-157.588
 21
-230.198
  0
LINE
  8
0
 10
-157.588
 20
-230.198
 11
-157.627
 21
-230.444
  0
LINE
  8
0
 10
-157.627
 20
-230.444
 11
-157.691
 21
-230.684
  0
LINE
  8
0
 10
-157.691
 20
-230.684
 11
-157.78
 21
-230.916
  0
LINE
  8
0
 10
-157.78
 20
-230.916
 11
-157.893
 21
-231.137
  0
LINE
  8
0
 10
-157.893
 20
-231.137
 11
-158.029
 21
-231.346
  0
LINE
  8
0
 10
-158.029
 20
-231.346
 11
-158.185
 21
-231.539
  0
LINE
  8
0
 10
-158.185
 20
-231.539
 11
-158.361
 21
-231.715
  0
LINE
  8
0
 10
-158.361
 20
-231.715
 11
-158.554
 21
-231.871
  0
LINE
  8
0
 10
-158.554
 20
-231.871
 11
-158.762
 21
-232.007
  0
LINE
  8
0
 10
-158.762
 20
-232.007
 11
-158.984
 21
-232.12
  0
LINE
  8
0
 10
-158.984
 20
-232.12
 11
-159.216
 21
-232.209
  0
LINE
  8
0
 10
-159.216
 20
-232.209
 11
-159.456
 21
-232.273
  0
LINE
  8
0
 10
-159.456
 20
-232.273
 11
-159.702
 21
-232.312
  0
LINE
  8
0
 10
-159.702
 20
-232.312
 11
-159.95
 21
-232.325
  0
LINE
  8
0
 10
-159.95
 20
-232.325
 11
-160.198
 21
-232.312
  0
LINE
  8
0
 10
159.702
 20
-232.312
 11
159.456
 21
-232.273
  0
LINE
  8
0
 10
159.456
 20
-232.273
 11
159.216
 21
-232.209
  0
LINE
  8
0
 10
159.216
 20
-232.209
 11
158.984
 21
-232.12
  0
LINE
  8
0
 10
158.984
 20
-232.12
 11
158.762
 21
-232.007
  0
LINE
  8
0
 10
158.762
 20
-232.007
 11
158.554
 21
-231.871
  0
LINE
  8
0
 10
158.554
 20
-231.871
 11
158.361
 21
-231.715
  0
LINE
  8
0
 10
158.361
 20
-231.715
 11
158.185
 21
-231.539
  0
LINE
  8
0
 10
158.185
 20
-231.539
 11
158.029
 21
-231.346
  0
LINE
  8
0
 10
158.029
 20
-231.346
 11
157.893
 21
-231.137
  0
LINE
  8
0
 10
157.893
 20
-231.137
 11
157.78
 21
-230.916
  0
LINE
  8
0
 10
157.78
 20
-230.916
 11
157.691
 21
-230.684
  0
LINE
  8
0
 10
157.691
 20
-230.684
 11
157.627
 21
-230.444
  0
LINE
  8
0
 10
157.627
 20
-230.444
 11
157.588
 21
-230.198
  0
LINE
  8
0
 10
157.588
 20
-230.198
 11
157.575
 21
-229.95
  0
LINE
  8
0
 10
157.575
 20
-229.95
 11
157.588
 21
-229.702
  0
LINE
  8
0
 10
157.588
 20
-229.702
 11
157.627
 21
-229.456
  0
LINE
  8
0
 10
157.627
 20
-229.456
 11
157.691
 21
-229.216
  0
LINE
  8
0
 10
157.691
 20
-229.216
 11
157.78
 21
-228.984
  0
LINE
  8
0
 10
157.78
 20
-228.984
 11
157.893
 21
-228.762
  0
LINE
  8
0
 10
157.893
 20
-228.762
 11
158.029
 21
-228.554
  0
LINE
  8
0
 10
158.029
 20
-228.554
 11
158.185
 21
-228.361
  0
LINE
  8
0
 10
158.185
 20
-228.361
 11
158.361
 21
-228.185
  0
LINE
  8
0
 10
158.361
 20
-228.185
 11
158.554
 21
-228.029
  0
LINE
  8
0
 10
158.554
 20
-228.029
 11
158.762
 21
-227.893
  0
LINE
  8
0
 10
158.762
 20
-227.893
 11
158.984
 21
-227.78
  0
LINE
  8
0
 10
158.984
 20
-227.78
 11
159.216
 21
-227.691
  0
LINE
  8
0
 10
159.216
 20
-227.691
 11
159.456
 21
-227.627
  0
LINE
  8
0
 10
159.456
 20
-227.627
 11
159.702
 21
-227.588
  0
LINE
  8
0
 10
159.702
 20
-227.588
 11
159.95
 21
-227.575
  0
LINE
  8
0
 10
159.95
 20
-227.575
 11
160.198
 21
-227.588
  0
LINE
  8
0
 10
160.198
 20
-227.588
 11
160.444
 21
-227.627
  0
LINE
  8
0
 10
160.444
 20
-227.627
 11
160.684
 21
-227.691
  0
LINE
  8
0
 10
160.684
 20
-227.691
 11
160.916
 21
-227.78
  0
LINE
  8
0
 10
160.916
 20
-227.78
 11
161.137
 21
-227.893
  0
LINE
  8
0
 10
161.137
 20
-227.893
 11
161.346
 21
-228.029
  0
LINE
  8
0
 10
161.346
 20
-228.029
 11
161.539
 21
-228.185
  0
LINE
  8
0
 10
161.539
 20
-228.185
 11
161.715
 21
-228.361
  0
LINE
  8
0
 10
161.715
 20
-228.361
 11
161.871
 21
-228.554
  0
LINE
  8
0
 10
161.871
 20
-228.554
 11
162.007
 21
-228.762
  0
LINE
  8
0
 10
162.007
 20
-228.762
 11
162.12
 21
-228.984
  0
LINE
  8
0
 10
162.12
 20
-228.984
 11
162.209
 21
-229.216
  0
LINE
  8
0
 10
162.209
 20
-229.216
 11
162.273
 21
-229.456
  0
LINE
  8
0
 10
162.273
 20
-229.456
 11
162.312
 21
-229.702
  0
LINE
  8
0
 10
162.312
 20
-229.702
 11
162.325
 21
-229.95
  0
LINE
  8
0
 10
162.325
 20
-229.95
 11
162.312
 21
-230.198
  0
LINE
  8
0
 10
162.312
 20
-230.198
 11
162.273
 21
-230.444
  0
LINE
  8
0
 10
162.273
 20
-230.444
 11
162.209
 21
-230.684
  0
LINE
  8
0
 10
162.209
 20
-230.684
 11
162.12
 21
-230.916
  0
LINE
  8
0
 10
162.12
 20
-230.916
 11
162.007
 21
-231.137
  0
LINE
  8
0
 10
162.007
 20
-231.137
 11
161.871
 21
-231.346
  0
LINE
  8
0
 10
161.871
 20
-231.346
 11
161.715
 21
-231.539
  0
LINE
  8
0
 10
161.715
 20
-231.539
 11
161.539
 21
-231.715
  0
LINE
  8
0
 10
161.539
 20
-231.715
 11
161.346
 21
-231.871
  0
LINE
  8
0
 10
161.346
 20
-231.871
 11
161.137
 21
-232.007
  0
LINE
  8
0
 10
161.137
 20
-232.007
 11
160.916
 21
-232.12
  0
LINE
  8
0
 10
160.916
 20
-232.12
 11
160.684
 21
-232.209
  0
LINE
  8
0
 10
160.684
 20
-232.209
 11
160.444
 21
-232.273
  0
LINE
  8
0
 10
160.444
 20
-232.273
 11
160.198
 21
-232.312
  0
LINE
  8
0
 10
160.198
 20
-232.312
 11
159.95
 21
-232.325
  0
LINE
  8
0
 10
159.95
 20
-232.325
 11
159.702
 21
-232.312
  0
ENDSEC
  0
SECTION
  2
OBJECTS
  0
DICTIONARY
  0
ENDSEC
  0
EOF
