  0
SECTION
  2
BLOCKS
  0
ENDSEC
  0
SECTION
  2
ENTITIES
  0
LINE
  8
0
 10
222.898
 20
-372.348
 11
223.415
 21
-372.266
  0
LINE
  8
0
 10
223.415
 20
-372.266
 11
223.92
 21
-372.13
  0
LINE
  8
0
 10
223.92
 20
-372.13
 11
224.409
 21
-371.943
  0
LINE
  8
0
 10
224.409
 20
-371.943
 11
224.875
 21
-371.705
  0
LINE
  8
0
 10
224.875
 20
-371.705
 11
225.314
 21
-371.42
  0
LINE
  8
0
 10
225.314
 20
-371.42
 11
225.721
 21
-371.091
  0
LINE
  8
0
 10
225.721
 20
-371.091
 11
226.091
 21
-370.721
  0
LINE
  8
0
 10
226.091
 20
-370.721
 11
226.42
 21
-370.314
  0
LINE
  8
0
 10
226.42
 20
-370.314
 11
226.705
 21
-369.875
  0
LINE
  8
0
 10
226.705
 20
-369.875
 11
226.943
 21
-369.409
  0
LINE
  8
0
 10
226.943
 20
-369.409
 11
227.13
 21
-368.92
  0
LINE
  8
0
 10
227.13
 20
-368.92
 11
227.266
 21
-368.415
  0
LINE
  8
0
 10
227.266
 20
-368.415
 11
227.348
 21
-367.898
  0
LINE
  8
0
 10
227.348
 20
-367.898
 11
227.375
 21
-367.375
  0
LINE
  8
0
 10
227.375
 20
-367.375
 11
227.375
 21
367.375
  0
LINE
  8
0
 10
227.375
 20
367.375
 11
227.348
 21
367.898
  0
LINE
  8
0
 10
227.348
 20
367.898
 11
227.266
 21
368.415
  0
LINE
  8
0
 10
227.266
 20
368.415
 11
227.13
 21
368.92
  0
LINE
  8
0
 10
227.13
 20
368.92
 11
226.943
 21
369.409
  0
LINE
  8
0
 10
226.943
 20
369.409
 11
226.705
 21
369.875
  0
LINE
  8
0
 10
226.705
 20
369.875
 11
226.42
 21
370.314
  0
LINE
  8
0
 10
226.42
 20
370.314
 11
226.091
 21
370.721
  0
LINE
  8
0
 10
226.091
 20
370.721
 11
225.721
 21
371.091
  0
LINE
  8
0
 10
225.721
 20
371.091
 11
225.314
 21
371.42
  0
LINE
  8
0
 10
225.314
 20
371.42
 11
224.875
 21
371.705
  0
LINE
  8
0
 10
224.875
 20
371.705
 11
224.409
 21
371.943
  0
LINE
  8
0
 10
224.409
 20
371.943
 11
223.92
 21
372.13
  0
LINE
  8
0
 10
223.92
 20
372.13
 11
223.415
 21
372.266
  0
LINE
  8
0
 10
223.415
 20
372.266
 11
222.898
 21
372.348
  0
LINE
  8
0
 10
222.898
 20
372.348
 11
222.375
 21
372.375
  0
LINE
  8
0
 10
222.375
 20
372.375
 11
-222.375
 21
372.375
  0
LINE
  8
0
 10
-222.375
 20
372.375
 11
-222.898
 21
372.348
  0
LINE
  8
0
 10
-222.898
 20
372.348
 11
-223.415
 21
372.266
  0
LINE
  8
0
 10
-223.415
 20
372.266
 11
-223.92
 21
372.13
  0
LINE
  8
0
 10
-223.92
 20
372.13
 11
-224.409
 21
371.943
  0
LINE
  8
0
 10
-224.409
 20
371.943
 11
-224.875
 21
371.705
  0
LINE
  8
0
 10
-224.875
 20
371.705
 11
-225.314
 21
371.42
  0
LINE
  8
0
 10
-225.314
 20
371.42
 11
-225.721
 21
371.091
  0
LINE
  8
0
 10
-225.721
 20
371.091
 11
-226.091
 21
370.721
  0
LINE
  8
0
 10
-226.091
 20
370.721
 11
-226.42
 21
370.314
  0
LINE
  8
0
 10
-226.42
 20
370.314
 11
-226.705
 21
369.875
  0
LINE
  8
0
 10
-226.705
 20
369.875
 11
-226.943
 21
369.409
  0
LINE
  8
0
 10
-226.943
 20
369.409
 11
-227.13
 21
368.92
  0
LINE
  8
0
 10
-227.13
 20
368.92
 11
-227.266
 21
368.415
  0
LINE
  8
0
 10
-227.266
 20
368.415
 11
-227.348
 21
367.898
  0
LINE
  8
0
 10
-227.348
 20
367.898
 11
-227.375
 21
367.375
  0
LINE
  8
0
 10
-227.375
 20
367.375
 11
-227.375
 21
-367.375
  0
LINE
  8
0
 10
-227.375
 20
-367.375
 11
-227.348
 21
-367.898
  0
LINE
  8
0
 10
-227.348
 20
-367.898
 11
-227.266
 21
-368.415
  0
LINE
  8
0
 10
-227.266
 20
-368.415
 11
-227.13
 21
-368.92
  0
LINE
  8
0
 10
-227.13
 20
-368.92
 11
-226.943
 21
-369.409
  0
LINE
  8
0
 10
-226.943
 20
-369.409
 11
-226.705
 21
-369.875
  0
LINE
  8
0
 10
-226.705
 20
-369.875
 11
-226.42
 21
-370.314
  0
LINE
  8
0
 10
-226.42
 20
-370.314
 11
-226.091
 21
-370.721
  0
LINE
  8
0
 10
-226.091
 20
-370.721
 11
-225.721
 21
-371.091
  0
LINE
  8
0
 10
-225.721
 20
-371.091
 11
-225.314
 21
-371.42
  0
LINE
  8
0
 10
-225.314
 20
-371.42
 11
-224.875
 21
-371.705
  0
LINE
  8
0
 10
-224.875
 20
-371.705
 11
-224.409
 21
-371.943
  0
LINE
  8
0
 10
-224.409
 20
-371.943
 11
-223.92
 21
-372.13
  0
LINE
  8
0
 10
-223.92
 20
-372.13
 11
-223.415
 21
-372.266
  0
LINE
  8
0
 10
-223.415
 20
-372.266
 11
-222.898
 21
-372.348
  0
LINE
  8
0
 10
-222.898
 20
-372.348
 11
-222.375
 21
-372.375
  0
LINE
  8
0
 10
-222.375
 20
-372.375
 11
222.375
 21
-372.375
  0
LINE
  8
0
 10
222.375
 20
-372.375
 11
222.898
 21
-372.348
  0
LINE
  8
0
 10
219.608
 20
361.271
 11
219.22
 21
361.332
  0
LINE
  8
0
 10
219.22
 20
361.332
 11
218.841
 21
361.434
  0
LINE
  8
0
 10
218.841
 20
361.434
 11
218.475
 21
361.574
  0
LINE
  8
0
 10
218.475
 20
361.574
 11
218.125
 21
361.752
  0
LINE
  8
0
 10
218.125
 20
361.752
 11
217.796
 21
361.966
  0
LINE
  8
0
 10
217.796
 20
361.966
 11
217.491
 21
362.213
  0
LINE
  8
0
 10
217.491
 20
362.213
 11
217.213
 21
362.491
  0
LINE
  8
0
 10
217.213
 20
362.491
 11
216.966
 21
362.796
  0
LINE
  8
0
 10
216.966
 20
362.796
 11
216.752
 21
363.125
  0
LINE
  8
0
 10
216.752
 20
363.125
 11
216.574
 21
363.475
  0
LINE
  8
0
 10
216.574
 20
363.475
 11
216.434
 21
363.841
  0
LINE
  8
0
 10
216.434
 20
363.841
 11
216.332
 21
364.22
  0
LINE
  8
0
 10
216.332
 20
364.22
 11
216.271
 21
364.608
  0
LINE
  8
0
 10
216.271
 20
364.608
 11
216.25
 21
365
  0
LINE
  8
0
 10
216.25
 20
365
 11
216.271
 21
365.392
  0
LINE
  8
0
 10
216.271
 20
365.392
 11
216.332
 21
365.78
  0
LINE
  8
0
 10
216.332
 20
365.78
 11
216.434
 21
366.159
  0
LINE
  8
0
 10
216.434
 20
366.159
 11
216.574
 21
366.525
  0
LINE
  8
0
 10
216.574
 20
366.525
 11
216.752
 21
366.875
  0
LINE
  8
0
 10
216.752
 20
366.875
 11
216.966
 21
367.204
  0
LINE
  8
0
 10
216.966
 20
367.204
 11
217.213
 21
367.509
  0
LINE
  8
0
 10
217.213
 20
367.509
 11
217.491
 21
367.787
  0
LINE
  8
0
 10
217.491
 20
367.787
 11
217.796
 21
368.034
  0
LINE
  8
0
 10
217.796
 20
368.034
 11
218.125
 21
368.248
  0
LINE
  8
0
 10
218.125
 20
368.248
 11
218.475
 21
368.426
  0
LINE
  8
0
 10
218.475
 20
368.426
 11
218.841
 21
368.566
  0
LINE
  8
0
 10
218.841
 20
368.566
 11
219.22
 21
368.668
  0
LINE
  8
0
 10
219.22
 20
368.668
 11
219.608
 21
368.729
  0
LINE
  8
0
 10
219.608
 20
368.729
 11
220
 21
368.75
  0
LINE
  8
0
 10
220
 20
368.75
 11
220.392
 21
368.729
  0
LINE
  8
0
 10
220.392
 20
368.729
 11
220.78
 21
368.668
  0
LINE
  8
0
 10
220.78
 20
368.668
 11
221.159
 21
368.566
  0
LINE
  8
0
 10
221.159
 20
368.566
 11
221.525
 21
368.426
  0
LINE
  8
0
 10
221.525
 20
368.426
 11
221.875
 21
368.248
  0
LINE
  8
0
 10
221.875
 20
368.248
 11
222.204
 21
368.034
  0
LINE
  8
0
 10
222.204
 20
368.034
 11
222.509
 21
367.787
  0
LINE
  8
0
 10
222.509
 20
367.787
 11
222.787
 21
367.509
  0
LINE
  8
0
 10
222.787
 20
367.509
 11
223.034
 21
367.204
  0
LINE
  8
0
 10
223.034
 20
367.204
 11
223.248
 21
366.875
  0
LINE
  8
0
 10
223.248
 20
366.875
 11
223.426
 21
366.525
  0
LINE
  8
0
 10
223.426
 20
366.525
 11
223.566
 21
366.159
  0
LINE
  8
0
 10
223.566
 20
366.159
 11
223.668
 21
365.78
  0
LINE
  8
0
 10
223.668
 20
365.78
 11
223.729
 21
365.392
  0
LINE
  8
0
 10
223.729
 20
365.392
 11
223.75
 21
365
  0
LINE
  8
0
 10
223.75
 20
365
 11
223.729
 21
364.608
  0
LINE
  8
0
 10
223.729
 20
364.608
 11
223.668
 21
364.22
  0
LINE
  8
0
 10
223.668
 20
364.22
 11
223.566
 21
363.841
  0
LINE
  8
0
 10
223.566
 20
363.841
 11
223.426
 21
363.475
  0
LINE
  8
0
 10
223.426
 20
363.475
 11
223.248
 21
363.125
  0
LINE
  8
0
 10
223.248
 20
363.125
 11
223.034
 21
362.796
  0
LINE
  8
0
 10
223.034
 20
362.796
 11
222.787
 21
362.491
  0
LINE
  8
0
 10
222.787
 20
362.491
 11
222.509
 21
362.213
  0
LINE
  8
0
 10
222.509
 20
362.213
 11
222.204
 21
361.966
  0
LINE
  8
0
 10
222.204
 20
361.966
 11
221.875
 21
361.752
  0
LINE
  8
0
 10
221.875
 20
361.752
 11
221.525
 21
361.574
  0
LINE
  8
0
 10
221.525
 20
361.574
 11
221.159
 21
361.434
  0
LINE
  8
0
 10
221.159
 20
361.434
 11
220.78
 21
361.332
  0
LINE
  8
0
 10
220.78
 20
361.332
 11
220.392
 21
361.271
  0
LINE
  8
0
 10
220.392
 20
361.271
 11
220
 21
361.25
  0
LINE
  8
0
 10
220
 20
361.25
 11
219.608
 21
361.271
  0
LINE
  8
0
 10
-220.392
 20
361.271
 11
-220.78
 21
361.332
  0
LINE
  8
0
 10
-220.78
 20
361.332
 11
-221.159
 21
361.434
  0
LINE
  8
0
 10
-221.159
 20
361.434
 11
-221.525
 21
361.574
  0
LINE
  8
0
 10
-221.525
 20
361.574
 11
-221.875
 21
361.752
  0
LINE
  8
0
 10
-221.875
 20
361.752
 11
-222.204
 21
361.966
  0
LINE
  8
0
 10
-222.204
 20
361.966
 11
-222.509
 21
362.213
  0
LINE
  8
0
 10
-222.509
 20
362.213
 11
-222.787
 21
362.491
  0
LINE
  8
0
 10
-222.787
 20
362.491
 11
-223.034
 21
362.796
  0
LINE
  8
0
 10
-223.034
 20
362.796
 11
-223.248
 21
363.125
  0
LINE
  8
0
 10
-223.248
 20
363.125
 11
-223.426
 21
363.475
  0
LINE
  8
0
 10
-223.426
 20
363.475
 11
-223.566
 21
363.841
  0
LINE
  8
0
 10
-223.566
 20
363.841
 11
-223.668
 21
364.22
  0
LINE
  8
0
 10
-223.668
 20
364.22
 11
-223.729
 21
364.608
  0
LINE
  8
0
 10
-223.729
 20
364.608
 11
-223.75
 21
365
  0
LINE
  8
0
 10
-223.75
 20
365
 11
-223.729
 21
365.392
  0
LINE
  8
0
 10
-223.729
 20
365.392
 11
-223.668
 21
365.78
  0
LINE
  8
0
 10
-223.668
 20
365.78
 11
-223.566
 21
366.159
  0
LINE
  8
0
 10
-223.566
 20
366.159
 11
-223.426
 21
366.525
  0
LINE
  8
0
 10
-223.426
 20
366.525
 11
-223.248
 21
366.875
  0
LINE
  8
0
 10
-223.248
 20
366.875
 11
-223.034
 21
367.204
  0
LINE
  8
0
 10
-223.034
 20
367.204
 11
-222.787
 21
367.509
  0
LINE
  8
0
 10
-222.787
 20
367.509
 11
-222.509
 21
367.787
  0
LINE
  8
0
 10
-222.509
 20
367.787
 11
-222.204
 21
368.034
  0
LINE
  8
0
 10
-222.204
 20
368.034
 11
-221.875
 21
368.248
  0
LINE
  8
0
 10
-221.875
 20
368.248
 11
-221.525
 21
368.426
  0
LINE
  8
0
 10
-221.525
 20
368.426
 11
-221.159
 21
368.566
  0
LINE
  8
0
 10
-221.159
 20
368.566
 11
-220.78
 21
368.668
  0
LINE
  8
0
 10
-220.78
 20
368.668
 11
-220.392
 21
368.729
  0
LINE
  8
0
 10
-220.392
 20
368.729
 11
-220
 21
368.75
  0
LINE
  8
0
 10
-220
 20
368.75
 11
-219.608
 21
368.729
  0
LINE
  8
0
 10
-219.608
 20
368.729
 11
-219.22
 21
368.668
  0
LINE
  8
0
 10
-219.22
 20
368.668
 11
-218.841
 21
368.566
  0
LINE
  8
0
 10
-218.841
 20
368.566
 11
-218.475
 21
368.426
  0
LINE
  8
0
 10
-218.475
 20
368.426
 11
-218.125
 21
368.248
  0
LINE
  8
0
 10
-218.125
 20
368.248
 11
-217.796
 21
368.034
  0
LINE
  8
0
 10
-217.796
 20
368.034
 11
-217.491
 21
367.787
  0
LINE
  8
0
 10
-217.491
 20
367.787
 11
-217.213
 21
367.509
  0
LINE
  8
0
 10
-217.213
 20
367.509
 11
-216.966
 21
367.204
  0
LINE
  8
0
 10
-216.966
 20
367.204
 11
-216.752
 21
366.875
  0
LINE
  8
0
 10
-216.752
 20
366.875
 11
-216.574
 21
366.525
  0
LINE
  8
0
 10
-216.574
 20
366.525
 11
-216.434
 21
366.159
  0
LINE
  8
0
 10
-216.434
 20
366.159
 11
-216.332
 21
365.78
  0
LINE
  8
0
 10
-216.332
 20
365.78
 11
-216.271
 21
365.392
  0
LINE
  8
0
 10
-216.271
 20
365.392
 11
-216.25
 21
365
  0
LINE
  8
0
 10
-216.25
 20
365
 11
-216.271
 21
364.608
  0
LINE
  8
0
 10
-216.271
 20
364.608
 11
-216.332
 21
364.22
  0
LINE
  8
0
 10
-216.332
 20
364.22
 11
-216.434
 21
363.841
  0
LINE
  8
0
 10
-216.434
 20
363.841
 11
-216.574
 21
363.475
  0
LINE
  8
0
 10
-216.574
 20
363.475
 11
-216.752
 21
363.125
  0
LINE
  8
0
 10
-216.752
 20
363.125
 11
-216.966
 21
362.796
  0
LINE
  8
0
 10
-216.966
 20
362.796
 11
-217.213
 21
362.491
  0
LINE
  8
0
 10
-217.213
 20
362.491
 11
-217.491
 21
362.213
  0
LINE
  8
0
 10
-217.491
 20
362.213
 11
-217.796
 21
361.966
  0
LINE
  8
0
 10
-217.796
 20
361.966
 11
-218.125
 21
361.752
  0
LINE
  8
0
 10
-218.125
 20
361.752
 11
-218.475
 21
361.574
  0
LINE
  8
0
 10
-218.475
 20
361.574
 11
-218.841
 21
361.434
  0
LINE
  8
0
 10
-218.841
 20
361.434
 11
-219.22
 21
361.332
  0
LINE
  8
0
 10
-219.22
 20
361.332
 11
-219.608
 21
361.271
  0
LINE
  8
0
 10
-219.608
 20
361.271
 11
-220
 21
361.25
  0
LINE
  8
0
 10
-220
 20
361.25
 11
-220.392
 21
361.271
  0
LINE
  8
0
 10
0.429977
 20
366.645
 11
0.664871
 21
366.565
  0
LINE
  8
0
 10
0.664871
 20
366.565
 11
0.88559
 21
366.451
  0
LINE
  8
0
 10
0.88559
 20
366.451
 11
1.08743
 21
366.307
  0
LINE
  8
0
 10
1.08743
 20
366.307
 11
1.2661
 21
366.134
  0
LINE
  8
0
 10
1.2661
 20
366.134
 11
1.41779
 21
365.938
  0
LINE
  8
0
 10
1.41779
 20
365.938
 11
1.53926
 21
365.722
  0
LINE
  8
0
 10
1.53926
 20
365.722
 11
1.62791
 21
365.49
  0
LINE
  8
0
 10
1.62791
 20
365.49
 11
1.68187
 21
365.248
  0
LINE
  8
0
 10
1.68187
 20
365.248
 11
1.7
 21
365
  0
LINE
  8
0
 10
1.7
 20
365
 11
1.68187
 21
364.752
  0
LINE
  8
0
 10
1.68187
 20
364.752
 11
1.62791
 21
364.51
  0
LINE
  8
0
 10
1.62791
 20
364.51
 11
1.53926
 21
364.278
  0
LINE
  8
0
 10
1.53926
 20
364.278
 11
1.41779
 21
364.062
  0
LINE
  8
0
 10
1.41779
 20
364.062
 11
1.2661
 21
363.866
  0
LINE
  8
0
 10
1.2661
 20
363.866
 11
1.08743
 21
363.693
  0
LINE
  8
0
 10
1.08743
 20
363.693
 11
0.88559
 21
363.549
  0
LINE
  8
0
 10
0.88559
 20
363.549
 11
0.664871
 21
363.435
  0
LINE
  8
0
 10
0.664871
 20
363.435
 11
0.429977
 21
363.355
  0
LINE
  8
0
 10
0.429977
 20
363.355
 11
0.185928
 21
363.31
  0
LINE
  8
0
 10
0.185928
 20
363.31
 11
-0.0620728
 21
363.301
  0
LINE
  8
0
 10
-0.0620728
 20
363.301
 11
-0.308777
 21
363.328
  0
LINE
  8
0
 10
-0.308777
 20
363.328
 11
-0.548889
 21
363.391
  0
LINE
  8
0
 10
-0.548889
 20
363.391
 11
-0.777298
 21
363.488
  0
LINE
  8
0
 10
-0.777298
 20
363.488
 11
-0.989151
 21
363.617
  0
LINE
  8
0
 10
-0.989151
 20
363.617
 11
-1.17992
 21
363.776
  0
LINE
  8
0
 10
-1.17992
 20
363.776
 11
-1.34554
 21
363.961
  0
LINE
  8
0
 10
-1.34554
 20
363.961
 11
-1.48248
 21
364.168
  0
LINE
  8
0
 10
-1.48248
 20
364.168
 11
-1.58781
 21
364.393
  0
LINE
  8
0
 10
-1.58781
 20
364.393
 11
-1.65932
 21
364.63
  0
LINE
  8
0
 10
-1.65932
 20
364.63
 11
-1.69545
 21
364.876
  0
LINE
  8
0
 10
-1.69545
 20
364.876
 11
-1.69545
 21
365.124
  0
LINE
  8
0
 10
-1.69545
 20
365.124
 11
-1.65932
 21
365.37
  0
LINE
  8
0
 10
-1.65932
 20
365.37
 11
-1.58781
 21
365.607
  0
LINE
  8
0
 10
-1.58781
 20
365.607
 11
-1.48248
 21
365.832
  0
LINE
  8
0
 10
-1.48248
 20
365.832
 11
-1.34554
 21
366.039
  0
LINE
  8
0
 10
-1.34554
 20
366.039
 11
-1.17992
 21
366.224
  0
LINE
  8
0
 10
-1.17992
 20
366.224
 11
-0.989151
 21
366.383
  0
LINE
  8
0
 10
-0.989151
 20
366.383
 11
-0.777298
 21
366.512
  0
LINE
  8
0
 10
-0.777298
 20
366.512
 11
-0.548889
 21
366.609
  0
LINE
  8
0
 10
-0.548889
 20
366.609
 11
-0.308777
 21
366.672
  0
LINE
  8
0
 10
-0.308777
 20
366.672
 11
-0.0620728
 21
366.699
  0
LINE
  8
0
 10
-0.0620728
 20
366.699
 11
0.185928
 21
366.69
  0
LINE
  8
0
 10
0.185928
 20
366.69
 11
0.429977
 21
366.645
  0
LINE
  8
0
 10
-89.0588
 20
363.328
 11
-89.2989
 21
363.391
  0
LINE
  8
0
 10
-89.2989
 20
363.391
 11
-89.5273
 21
363.488
  0
LINE
  8
0
 10
-89.5273
 20
363.488
 11
-89.7392
 21
363.617
  0
LINE
  8
0
 10
-89.7392
 20
363.617
 11
-89.9299
 21
363.776
  0
LINE
  8
0
 10
-89.9299
 20
363.776
 11
-90.0955
 21
363.961
  0
LINE
  8
0
 10
-90.0955
 20
363.961
 11
-90.2325
 21
364.168
  0
LINE
  8
0
 10
-90.2325
 20
364.168
 11
-90.3378
 21
364.393
  0
LINE
  8
0
 10
-90.3378
 20
364.393
 11
-90.4093
 21
364.63
  0
LINE
  8
0
 10
-90.4093
 20
364.63
 11
-90.4455
 21
364.876
  0
LINE
  8
0
 10
-90.4455
 20
364.876
 11
-90.4455
 21
365.124
  0
LINE
  8
0
 10
-90.4455
 20
365.124
 11
-90.4093
 21
365.37
  0
LINE
  8
0
 10
-90.4093
 20
365.37
 11
-90.3378
 21
365.607
  0
LINE
  8
0
 10
-90.3378
 20
365.607
 11
-90.2325
 21
365.832
  0
LINE
  8
0
 10
-90.2325
 20
365.832
 11
-90.0955
 21
366.039
  0
LINE
  8
0
 10
-90.0955
 20
366.039
 11
-89.9299
 21
366.224
  0
LINE
  8
0
 10
-89.9299
 20
366.224
 11
-89.7392
 21
366.383
  0
LINE
  8
0
 10
-89.7392
 20
366.383
 11
-89.5273
 21
366.512
  0
LINE
  8
0
 10
-89.5273
 20
366.512
 11
-89.2989
 21
366.609
  0
LINE
  8
0
 10
-89.2989
 20
366.609
 11
-89.0588
 21
366.672
  0
LINE
  8
0
 10
-89.0588
 20
366.672
 11
-88.8121
 21
366.699
  0
LINE
  8
0
 10
-88.8121
 20
366.699
 11
-88.5641
 21
366.69
  0
LINE
  8
0
 10
-88.5641
 20
366.69
 11
-88.32
 21
366.645
  0
LINE
  8
0
 10
-88.32
 20
366.645
 11
-88.0851
 21
366.565
  0
LINE
  8
0
 10
-88.0851
 20
366.565
 11
-87.8644
 21
366.451
  0
LINE
  8
0
 10
-87.8644
 20
366.451
 11
-87.6626
 21
366.307
  0
LINE
  8
0
 10
-87.6626
 20
366.307
 11
-87.4839
 21
366.134
  0
LINE
  8
0
 10
-87.4839
 20
366.134
 11
-87.3322
 21
365.938
  0
LINE
  8
0
 10
-87.3322
 20
365.938
 11
-87.2107
 21
365.722
  0
LINE
  8
0
 10
-87.2107
 20
365.722
 11
-87.1221
 21
365.49
  0
LINE
  8
0
 10
-87.1221
 20
365.49
 11
-87.0681
 21
365.248
  0
LINE
  8
0
 10
-87.0681
 20
365.248
 11
-87.05
 21
365
  0
LINE
  8
0
 10
-87.05
 20
365
 11
-87.0681
 21
364.752
  0
LINE
  8
0
 10
-87.0681
 20
364.752
 11
-87.1221
 21
364.51
  0
LINE
  8
0
 10
-87.1221
 20
364.51
 11
-87.2107
 21
364.278
  0
LINE
  8
0
 10
-87.2107
 20
364.278
 11
-87.3322
 21
364.062
  0
LINE
  8
0
 10
-87.3322
 20
364.062
 11
-87.4839
 21
363.866
  0
LINE
  8
0
 10
-87.4839
 20
363.866
 11
-87.6626
 21
363.693
  0
LINE
  8
0
 10
-87.6626
 20
363.693
 11
-87.8644
 21
363.549
  0
LINE
  8
0
 10
-87.8644
 20
363.549
 11
-88.0851
 21
363.435
  0
LINE
  8
0
 10
-88.0851
 20
363.435
 11
-88.32
 21
363.355
  0
LINE
  8
0
 10
-88.32
 20
363.355
 11
-88.5641
 21
363.31
  0
LINE
  8
0
 10
-88.5641
 20
363.31
 11
-88.8121
 21
363.301
  0
LINE
  8
0
 10
-88.8121
 20
363.301
 11
-89.0588
 21
363.328
  0
LINE
  8
0
 10
-177.809
 20
363.328
 11
-178.049
 21
363.391
  0
LINE
  8
0
 10
-178.049
 20
363.391
 11
-178.277
 21
363.488
  0
LINE
  8
0
 10
-178.277
 20
363.488
 11
-178.489
 21
363.617
  0
LINE
  8
0
 10
-178.489
 20
363.617
 11
-178.68
 21
363.776
  0
LINE
  8
0
 10
-178.68
 20
363.776
 11
-178.846
 21
363.961
  0
LINE
  8
0
 10
-178.846
 20
363.961
 11
-178.982
 21
364.168
  0
LINE
  8
0
 10
-178.982
 20
364.168
 11
-179.088
 21
364.393
  0
LINE
  8
0
 10
-179.088
 20
364.393
 11
-179.159
 21
364.63
  0
LINE
  8
0
 10
-179.159
 20
364.63
 11
-179.195
 21
364.876
  0
LINE
  8
0
 10
-179.195
 20
364.876
 11
-179.195
 21
365.124
  0
LINE
  8
0
 10
-179.195
 20
365.124
 11
-179.159
 21
365.37
  0
LINE
  8
0
 10
-179.159
 20
365.37
 11
-179.088
 21
365.607
  0
LINE
  8
0
 10
-179.088
 20
365.607
 11
-178.982
 21
365.832
  0
LINE
  8
0
 10
-178.982
 20
365.832
 11
-178.846
 21
366.039
  0
LINE
  8
0
 10
-178.846
 20
366.039
 11
-178.68
 21
366.224
  0
LINE
  8
0
 10
-178.68
 20
366.224
 11
-178.489
 21
366.383
  0
LINE
  8
0
 10
-178.489
 20
366.383
 11
-178.277
 21
366.512
  0
LINE
  8
0
 10
-178.277
 20
366.512
 11
-178.049
 21
366.609
  0
LINE
  8
0
 10
-178.049
 20
366.609
 11
-177.809
 21
366.672
  0
LINE
  8
0
 10
-177.809
 20
366.672
 11
-177.562
 21
366.699
  0
LINE
  8
0
 10
-177.562
 20
366.699
 11
-177.314
 21
366.69
  0
LINE
  8
0
 10
-177.314
 20
366.69
 11
-177.07
 21
366.645
  0
LINE
  8
0
 10
-177.07
 20
366.645
 11
-176.835
 21
366.565
  0
LINE
  8
0
 10
-176.835
 20
366.565
 11
-176.614
 21
366.451
  0
LINE
  8
0
 10
-176.614
 20
366.451
 11
-176.413
 21
366.307
  0
LINE
  8
0
 10
-176.413
 20
366.307
 11
-176.234
 21
366.134
  0
LINE
  8
0
 10
-176.234
 20
366.134
 11
-176.082
 21
365.938
  0
LINE
  8
0
 10
-176.082
 20
365.938
 11
-175.961
 21
365.722
  0
LINE
  8
0
 10
-175.961
 20
365.722
 11
-175.872
 21
365.49
  0
LINE
  8
0
 10
-175.872
 20
365.49
 11
-175.818
 21
365.248
  0
LINE
  8
0
 10
-175.818
 20
365.248
 11
-175.8
 21
365
  0
LINE
  8
0
 10
-175.8
 20
365
 11
-175.818
 21
364.752
  0
LINE
  8
0
 10
-175.818
 20
364.752
 11
-175.872
 21
364.51
  0
LINE
  8
0
 10
-175.872
 20
364.51
 11
-175.961
 21
364.278
  0
LINE
  8
0
 10
-175.961
 20
364.278
 11
-176.082
 21
364.062
  0
LINE
  8
0
 10
-176.082
 20
364.062
 11
-176.234
 21
363.866
  0
LINE
  8
0
 10
-176.234
 20
363.866
 11
-176.413
 21
363.693
  0
LINE
  8
0
 10
-176.413
 20
363.693
 11
-176.614
 21
363.549
  0
LINE
  8
0
 10
-176.614
 20
363.549
 11
-176.835
 21
363.435
  0
LINE
  8
0
 10
-176.835
 20
363.435
 11
-177.07
 21
363.355
  0
LINE
  8
0
 10
-177.07
 20
363.355
 11
-177.314
 21
363.31
  0
LINE
  8
0
 10
-177.314
 20
363.31
 11
-177.562
 21
363.301
  0
LINE
  8
0
 10
-177.562
 20
363.301
 11
-177.809
 21
363.328
  0
LINE
  8
0
 10
177.191
 20
363.328
 11
176.951
 21
363.391
  0
LINE
  8
0
 10
176.951
 20
363.391
 11
176.723
 21
363.488
  0
LINE
  8
0
 10
176.723
 20
363.488
 11
176.511
 21
363.617
  0
LINE
  8
0
 10
176.511
 20
363.617
 11
176.32
 21
363.776
  0
LINE
  8
0
 10
176.32
 20
363.776
 11
176.154
 21
363.961
  0
LINE
  8
0
 10
176.154
 20
363.961
 11
176.018
 21
364.168
  0
LINE
  8
0
 10
176.018
 20
364.168
 11
175.912
 21
364.393
  0
LINE
  8
0
 10
175.912
 20
364.393
 11
175.841
 21
364.63
  0
LINE
  8
0
 10
175.841
 20
364.63
 11
175.805
 21
364.876
  0
LINE
  8
0
 10
175.805
 20
364.876
 11
175.805
 21
365.124
  0
LINE
  8
0
 10
175.805
 20
365.124
 11
175.841
 21
365.37
  0
LINE
  8
0
 10
175.841
 20
365.37
 11
175.912
 21
365.607
  0
LINE
  8
0
 10
175.912
 20
365.607
 11
176.018
 21
365.832
  0
LINE
  8
0
 10
176.018
 20
365.832
 11
176.154
 21
366.039
  0
LINE
  8
0
 10
176.154
 20
366.039
 11
176.32
 21
366.224
  0
LINE
  8
0
 10
176.32
 20
366.224
 11
176.511
 21
366.383
  0
LINE
  8
0
 10
176.511
 20
366.383
 11
176.723
 21
366.512
  0
LINE
  8
0
 10
176.723
 20
366.512
 11
176.951
 21
366.609
  0
LINE
  8
0
 10
176.951
 20
366.609
 11
177.191
 21
366.672
  0
LINE
  8
0
 10
177.191
 20
366.672
 11
177.438
 21
366.699
  0
LINE
  8
0
 10
177.438
 20
366.699
 11
177.686
 21
366.69
  0
LINE
  8
0
 10
177.686
 20
366.69
 11
177.93
 21
366.645
  0
LINE
  8
0
 10
177.93
 20
366.645
 11
178.165
 21
366.565
  0
LINE
  8
0
 10
178.165
 20
366.565
 11
178.386
 21
366.451
  0
LINE
  8
0
 10
178.386
 20
366.451
 11
178.587
 21
366.307
  0
LINE
  8
0
 10
178.587
 20
366.307
 11
178.766
 21
366.134
  0
LINE
  8
0
 10
178.766
 20
366.134
 11
178.918
 21
365.938
  0
LINE
  8
0
 10
178.918
 20
365.938
 11
179.039
 21
365.722
  0
LINE
  8
0
 10
179.039
 20
365.722
 11
179.128
 21
365.49
  0
LINE
  8
0
 10
179.128
 20
365.49
 11
179.182
 21
365.248
  0
LINE
  8
0
 10
179.182
 20
365.248
 11
179.2
 21
365
  0
LINE
  8
0
 10
179.2
 20
365
 11
179.182
 21
364.752
  0
LINE
  8
0
 10
179.182
 20
364.752
 11
179.128
 21
364.51
  0
LINE
  8
0
 10
179.128
 20
364.51
 11
179.039
 21
364.278
  0
LINE
  8
0
 10
179.039
 20
364.278
 11
178.918
 21
364.062
  0
LINE
  8
0
 10
178.918
 20
364.062
 11
178.766
 21
363.866
  0
LINE
  8
0
 10
178.766
 20
363.866
 11
178.587
 21
363.693
  0
LINE
  8
0
 10
178.587
 20
363.693
 11
178.386
 21
363.549
  0
LINE
  8
0
 10
178.386
 20
363.549
 11
178.165
 21
363.435
  0
LINE
  8
0
 10
178.165
 20
363.435
 11
177.93
 21
363.355
  0
LINE
  8
0
 10
177.93
 20
363.355
 11
177.686
 21
363.31
  0
LINE
  8
0
 10
177.686
 20
363.31
 11
177.438
 21
363.301
  0
LINE
  8
0
 10
177.438
 20
363.301
 11
177.191
 21
363.328
  0
LINE
  8
0
 10
88.4412
 20
363.328
 11
88.2011
 21
363.391
  0
LINE
  8
0
 10
88.2011
 20
363.391
 11
87.9727
 21
363.488
  0
LINE
  8
0
 10
87.9727
 20
363.488
 11
87.7608
 21
363.617
  0
LINE
  8
0
 10
87.7608
 20
363.617
 11
87.5701
 21
363.776
  0
LINE
  8
0
 10
87.5701
 20
363.776
 11
87.4044
 21
363.961
  0
LINE
  8
0
 10
87.4044
 20
363.961
 11
87.2675
 21
364.168
  0
LINE
  8
0
 10
87.2675
 20
364.168
 11
87.1622
 21
364.393
  0
LINE
  8
0
 10
87.1622
 20
364.393
 11
87.0907
 21
364.63
  0
LINE
  8
0
 10
87.0907
 20
364.63
 11
87.0545
 21
364.876
  0
LINE
  8
0
 10
87.0545
 20
364.876
 11
87.0545
 21
365.124
  0
LINE
  8
0
 10
87.0545
 20
365.124
 11
87.0907
 21
365.37
  0
LINE
  8
0
 10
87.0907
 20
365.37
 11
87.1622
 21
365.607
  0
LINE
  8
0
 10
87.1622
 20
365.607
 11
87.2675
 21
365.832
  0
LINE
  8
0
 10
87.2675
 20
365.832
 11
87.4044
 21
366.039
  0
LINE
  8
0
 10
87.4044
 20
366.039
 11
87.5701
 21
366.224
  0
LINE
  8
0
 10
87.5701
 20
366.224
 11
87.7608
 21
366.383
  0
LINE
  8
0
 10
87.7608
 20
366.383
 11
87.9727
 21
366.512
  0
LINE
  8
0
 10
87.9727
 20
366.512
 11
88.2011
 21
366.609
  0
LINE
  8
0
 10
88.2011
 20
366.609
 11
88.4412
 21
366.672
  0
LINE
  8
0
 10
88.4412
 20
366.672
 11
88.6879
 21
366.699
  0
LINE
  8
0
 10
88.6879
 20
366.699
 11
88.9359
 21
366.69
  0
LINE
  8
0
 10
88.9359
 20
366.69
 11
89.18
 21
366.645
  0
LINE
  8
0
 10
89.18
 20
366.645
 11
89.4149
 21
366.565
  0
LINE
  8
0
 10
89.4149
 20
366.565
 11
89.6356
 21
366.451
  0
LINE
  8
0
 10
89.6356
 20
366.451
 11
89.8374
 21
366.307
  0
LINE
  8
0
 10
89.8374
 20
366.307
 11
90.0161
 21
366.134
  0
LINE
  8
0
 10
90.0161
 20
366.134
 11
90.1678
 21
365.938
  0
LINE
  8
0
 10
90.1678
 20
365.938
 11
90.2893
 21
365.722
  0
LINE
  8
0
 10
90.2893
 20
365.722
 11
90.3779
 21
365.49
  0
LINE
  8
0
 10
90.3779
 20
365.49
 11
90.4319
 21
365.248
  0
LINE
  8
0
 10
90.4319
 20
365.248
 11
90.45
 21
365
  0
LINE
  8
0
 10
90.45
 20
365
 11
90.4319
 21
364.752
  0
LINE
  8
0
 10
90.4319
 20
364.752
 11
90.3779
 21
364.51
  0
LINE
  8
0
 10
90.3779
 20
364.51
 11
90.2893
 21
364.278
  0
LINE
  8
0
 10
90.2893
 20
364.278
 11
90.1678
 21
364.062
  0
LINE
  8
0
 10
90.1678
 20
364.062
 11
90.0161
 21
363.866
  0
LINE
  8
0
 10
90.0161
 20
363.866
 11
89.8374
 21
363.693
  0
LINE
  8
0
 10
89.8374
 20
363.693
 11
89.6356
 21
363.549
  0
LINE
  8
0
 10
89.6356
 20
363.549
 11
89.4149
 21
363.435
  0
LINE
  8
0
 10
89.4149
 20
363.435
 11
89.18
 21
363.355
  0
LINE
  8
0
 10
89.18
 20
363.355
 11
88.9359
 21
363.31
  0
LINE
  8
0
 10
88.9359
 20
363.31
 11
88.6879
 21
363.301
  0
LINE
  8
0
 10
88.6879
 20
363.301
 11
88.4412
 21
363.328
  0
LINE
  8
0
 10
219.691
 20
320.828
 11
219.451
 21
320.891
  0
LINE
  8
0
 10
219.451
 20
320.891
 11
219.223
 21
320.988
  0
LINE
  8
0
 10
219.223
 20
320.988
 11
219.011
 21
321.117
  0
LINE
  8
0
 10
219.011
 20
321.117
 11
218.82
 21
321.276
  0
LINE
  8
0
 10
218.82
 20
321.276
 11
218.654
 21
321.461
  0
LINE
  8
0
 10
218.654
 20
321.461
 11
218.518
 21
321.668
  0
LINE
  8
0
 10
218.518
 20
321.668
 11
218.412
 21
321.893
  0
LINE
  8
0
 10
218.412
 20
321.893
 11
218.341
 21
322.13
  0
LINE
  8
0
 10
218.341
 20
322.13
 11
218.305
 21
322.376
  0
LINE
  8
0
 10
218.305
 20
322.376
 11
218.305
 21
322.624
  0
LINE
  8
0
 10
218.305
 20
322.624
 11
218.341
 21
322.87
  0
LINE
  8
0
 10
218.341
 20
322.87
 11
218.412
 21
323.107
  0
LINE
  8
0
 10
218.412
 20
323.107
 11
218.518
 21
323.332
  0
LINE
  8
0
 10
218.518
 20
323.332
 11
218.654
 21
323.539
  0
LINE
  8
0
 10
218.654
 20
323.539
 11
218.82
 21
323.724
  0
LINE
  8
0
 10
218.82
 20
323.724
 11
219.011
 21
323.883
  0
LINE
  8
0
 10
219.011
 20
323.883
 11
219.223
 21
324.012
  0
LINE
  8
0
 10
219.223
 20
324.012
 11
219.451
 21
324.109
  0
LINE
  8
0
 10
219.451
 20
324.109
 11
219.691
 21
324.172
  0
LINE
  8
0
 10
219.691
 20
324.172
 11
219.938
 21
324.199
  0
LINE
  8
0
 10
219.938
 20
324.199
 11
220.186
 21
324.19
  0
LINE
  8
0
 10
220.186
 20
324.19
 11
220.43
 21
324.145
  0
LINE
  8
0
 10
220.43
 20
324.145
 11
220.665
 21
324.065
  0
LINE
  8
0
 10
220.665
 20
324.065
 11
220.886
 21
323.951
  0
LINE
  8
0
 10
220.886
 20
323.951
 11
221.087
 21
323.807
  0
LINE
  8
0
 10
221.087
 20
323.807
 11
221.266
 21
323.634
  0
LINE
  8
0
 10
221.266
 20
323.634
 11
221.418
 21
323.438
  0
LINE
  8
0
 10
221.418
 20
323.438
 11
221.539
 21
323.222
  0
LINE
  8
0
 10
221.539
 20
323.222
 11
221.628
 21
322.99
  0
LINE
  8
0
 10
221.628
 20
322.99
 11
221.682
 21
322.748
  0
LINE
  8
0
 10
221.682
 20
322.748
 11
221.7
 21
322.5
  0
LINE
  8
0
 10
221.7
 20
322.5
 11
221.682
 21
322.252
  0
LINE
  8
0
 10
221.682
 20
322.252
 11
221.628
 21
322.01
  0
LINE
  8
0
 10
221.628
 20
322.01
 11
221.539
 21
321.778
  0
LINE
  8
0
 10
221.539
 20
321.778
 11
221.418
 21
321.562
  0
LINE
  8
0
 10
221.418
 20
321.562
 11
221.266
 21
321.366
  0
LINE
  8
0
 10
221.266
 20
321.366
 11
221.087
 21
321.193
  0
LINE
  8
0
 10
221.087
 20
321.193
 11
220.886
 21
321.049
  0
LINE
  8
0
 10
220.886
 20
321.049
 11
220.665
 21
320.935
  0
LINE
  8
0
 10
220.665
 20
320.935
 11
220.43
 21
320.855
  0
LINE
  8
0
 10
220.43
 20
320.855
 11
220.186
 21
320.81
  0
LINE
  8
0
 10
220.186
 20
320.81
 11
219.938
 21
320.801
  0
LINE
  8
0
 10
219.938
 20
320.801
 11
219.691
 21
320.828
  0
LINE
  8
0
 10
-220.186
 20
320.81
 11
-220.43
 21
320.855
  0
LINE
  8
0
 10
-220.43
 20
320.855
 11
-220.665
 21
320.935
  0
LINE
  8
0
 10
-220.665
 20
320.935
 11
-220.886
 21
321.049
  0
LINE
  8
0
 10
-220.886
 20
321.049
 11
-221.087
 21
321.193
  0
LINE
  8
0
 10
-221.087
 20
321.193
 11
-221.266
 21
321.366
  0
LINE
  8
0
 10
-221.266
 20
321.366
 11
-221.418
 21
321.562
  0
LINE
  8
0
 10
-221.418
 20
321.562
 11
-221.539
 21
321.778
  0
LINE
  8
0
 10
-221.539
 20
321.778
 11
-221.628
 21
322.01
  0
LINE
  8
0
 10
-221.628
 20
322.01
 11
-221.682
 21
322.252
  0
LINE
  8
0
 10
-221.682
 20
322.252
 11
-221.7
 21
322.5
  0
LINE
  8
0
 10
-221.7
 20
322.5
 11
-221.682
 21
322.748
  0
LINE
  8
0
 10
-221.682
 20
322.748
 11
-221.628
 21
322.99
  0
LINE
  8
0
 10
-221.628
 20
322.99
 11
-221.539
 21
323.222
  0
LINE
  8
0
 10
-221.539
 20
323.222
 11
-221.418
 21
323.438
  0
LINE
  8
0
 10
-221.418
 20
323.438
 11
-221.266
 21
323.634
  0
LINE
  8
0
 10
-221.266
 20
323.634
 11
-221.087
 21
323.807
  0
LINE
  8
0
 10
-221.087
 20
323.807
 11
-220.886
 21
323.951
  0
LINE
  8
0
 10
-220.886
 20
323.951
 11
-220.665
 21
324.065
  0
LINE
  8
0
 10
-220.665
 20
324.065
 11
-220.43
 21
324.145
  0
LINE
  8
0
 10
-220.43
 20
324.145
 11
-220.186
 21
324.19
  0
LINE
  8
0
 10
-220.186
 20
324.19
 11
-219.938
 21
324.199
  0
LINE
  8
0
 10
-219.938
 20
324.199
 11
-219.691
 21
324.172
  0
LINE
  8
0
 10
-219.691
 20
324.172
 11
-219.451
 21
324.109
  0
LINE
  8
0
 10
-219.451
 20
324.109
 11
-219.223
 21
324.012
  0
LINE
  8
0
 10
-219.223
 20
324.012
 11
-219.011
 21
323.883
  0
LINE
  8
0
 10
-219.011
 20
323.883
 11
-218.82
 21
323.724
  0
LINE
  8
0
 10
-218.82
 20
323.724
 11
-218.654
 21
323.539
  0
LINE
  8
0
 10
-218.654
 20
323.539
 11
-218.518
 21
323.332
  0
LINE
  8
0
 10
-218.518
 20
323.332
 11
-218.412
 21
323.107
  0
LINE
  8
0
 10
-218.412
 20
323.107
 11
-218.341
 21
322.87
  0
LINE
  8
0
 10
-218.341
 20
322.87
 11
-218.305
 21
322.624
  0
LINE
  8
0
 10
-218.305
 20
322.624
 11
-218.305
 21
322.376
  0
LINE
  8
0
 10
-218.305
 20
322.376
 11
-218.341
 21
322.13
  0
LINE
  8
0
 10
-218.341
 20
322.13
 11
-218.412
 21
321.893
  0
LINE
  8
0
 10
-218.412
 20
321.893
 11
-218.518
 21
321.668
  0
LINE
  8
0
 10
-218.518
 20
321.668
 11
-218.654
 21
321.461
  0
LINE
  8
0
 10
-218.654
 20
321.461
 11
-218.82
 21
321.276
  0
LINE
  8
0
 10
-218.82
 20
321.276
 11
-219.011
 21
321.117
  0
LINE
  8
0
 10
-219.011
 20
321.117
 11
-219.223
 21
320.988
  0
LINE
  8
0
 10
-219.223
 20
320.988
 11
-219.451
 21
320.891
  0
LINE
  8
0
 10
-219.451
 20
320.891
 11
-219.691
 21
320.828
  0
LINE
  8
0
 10
-219.691
 20
320.828
 11
-219.938
 21
320.801
  0
LINE
  8
0
 10
-219.938
 20
320.801
 11
-220.186
 21
320.81
  0
LINE
  8
0
 10
219.691
 20
228.685
 11
219.451
 21
228.748
  0
LINE
  8
0
 10
219.451
 20
228.748
 11
219.223
 21
228.845
  0
LINE
  8
0
 10
219.223
 20
228.845
 11
219.011
 21
228.975
  0
LINE
  8
0
 10
219.011
 20
228.975
 11
218.82
 21
229.133
  0
LINE
  8
0
 10
218.82
 20
229.133
 11
218.654
 21
229.318
  0
LINE
  8
0
 10
218.654
 20
229.318
 11
218.518
 21
229.525
  0
LINE
  8
0
 10
218.518
 20
229.525
 11
218.412
 21
229.75
  0
LINE
  8
0
 10
218.412
 20
229.75
 11
218.341
 21
229.988
  0
LINE
  8
0
 10
218.341
 20
229.988
 11
218.305
 21
230.233
  0
LINE
  8
0
 10
218.305
 20
230.233
 11
218.305
 21
230.481
  0
LINE
  8
0
 10
218.305
 20
230.481
 11
218.341
 21
230.727
  0
LINE
  8
0
 10
218.341
 20
230.727
 11
218.412
 21
230.964
  0
LINE
  8
0
 10
218.412
 20
230.964
 11
218.518
 21
231.189
  0
LINE
  8
0
 10
218.518
 20
231.189
 11
218.654
 21
231.396
  0
LINE
  8
0
 10
218.654
 20
231.396
 11
218.82
 21
231.581
  0
LINE
  8
0
 10
218.82
 20
231.581
 11
219.011
 21
231.74
  0
LINE
  8
0
 10
219.011
 20
231.74
 11
219.223
 21
231.869
  0
LINE
  8
0
 10
219.223
 20
231.869
 11
219.451
 21
231.966
  0
LINE
  8
0
 10
219.451
 20
231.966
 11
219.691
 21
232.029
  0
LINE
  8
0
 10
219.691
 20
232.029
 11
219.938
 21
232.056
  0
LINE
  8
0
 10
219.938
 20
232.056
 11
220.186
 21
232.047
  0
LINE
  8
0
 10
220.186
 20
232.047
 11
220.43
 21
232.002
  0
LINE
  8
0
 10
220.43
 20
232.002
 11
220.665
 21
231.922
  0
LINE
  8
0
 10
220.665
 20
231.922
 11
220.886
 21
231.808
  0
LINE
  8
0
 10
220.886
 20
231.808
 11
221.087
 21
231.664
  0
LINE
  8
0
 10
221.087
 20
231.664
 11
221.266
 21
231.492
  0
LINE
  8
0
 10
221.266
 20
231.492
 11
221.418
 21
231.295
  0
LINE
  8
0
 10
221.418
 20
231.295
 11
221.539
 21
231.079
  0
LINE
  8
0
 10
221.539
 20
231.079
 11
221.628
 21
230.847
  0
LINE
  8
0
 10
221.628
 20
230.847
 11
221.682
 21
230.605
  0
LINE
  8
0
 10
221.682
 20
230.605
 11
221.7
 21
230.357
  0
LINE
  8
0
 10
221.7
 20
230.357
 11
221.682
 21
230.11
  0
LINE
  8
0
 10
221.682
 20
230.11
 11
221.628
 21
229.867
  0
LINE
  8
0
 10
221.628
 20
229.867
 11
221.539
 21
229.636
  0
LINE
  8
0
 10
221.539
 20
229.636
 11
221.418
 21
229.419
  0
LINE
  8
0
 10
221.418
 20
229.419
 11
221.266
 21
229.223
  0
LINE
  8
0
 10
221.266
 20
229.223
 11
221.087
 21
229.05
  0
LINE
  8
0
 10
221.087
 20
229.05
 11
220.886
 21
228.906
  0
LINE
  8
0
 10
220.886
 20
228.906
 11
220.665
 21
228.793
  0
LINE
  8
0
 10
220.665
 20
228.793
 11
220.43
 21
228.712
  0
LINE
  8
0
 10
220.43
 20
228.712
 11
220.186
 21
228.667
  0
LINE
  8
0
 10
220.186
 20
228.667
 11
219.938
 21
228.658
  0
LINE
  8
0
 10
219.938
 20
228.658
 11
219.691
 21
228.685
  0
LINE
  8
0
 10
-220.186
 20
228.667
 11
-220.43
 21
228.712
  0
LINE
  8
0
 10
-220.43
 20
228.712
 11
-220.665
 21
228.793
  0
LINE
  8
0
 10
-220.665
 20
228.793
 11
-220.886
 21
228.906
  0
LINE
  8
0
 10
-220.886
 20
228.906
 11
-221.087
 21
229.05
  0
LINE
  8
0
 10
-221.087
 20
229.05
 11
-221.266
 21
229.223
  0
LINE
  8
0
 10
-221.266
 20
229.223
 11
-221.418
 21
229.419
  0
LINE
  8
0
 10
-221.418
 20
229.419
 11
-221.539
 21
229.636
  0
LINE
  8
0
 10
-221.539
 20
229.636
 11
-221.628
 21
229.867
  0
LINE
  8
0
 10
-221.628
 20
229.867
 11
-221.682
 21
230.11
  0
LINE
  8
0
 10
-221.682
 20
230.11
 11
-221.7
 21
230.357
  0
LINE
  8
0
 10
-221.7
 20
230.357
 11
-221.682
 21
230.605
  0
LINE
  8
0
 10
-221.682
 20
230.605
 11
-221.628
 21
230.847
  0
LINE
  8
0
 10
-221.628
 20
230.847
 11
-221.539
 21
231.079
  0
LINE
  8
0
 10
-221.539
 20
231.079
 11
-221.418
 21
231.295
  0
LINE
  8
0
 10
-221.418
 20
231.295
 11
-221.266
 21
231.492
  0
LINE
  8
0
 10
-221.266
 20
231.492
 11
-221.087
 21
231.664
  0
LINE
  8
0
 10
-221.087
 20
231.664
 11
-220.886
 21
231.808
  0
LINE
  8
0
 10
-220.886
 20
231.808
 11
-220.665
 21
231.922
  0
LINE
  8
0
 10
-220.665
 20
231.922
 11
-220.43
 21
232.002
  0
LINE
  8
0
 10
-220.43
 20
232.002
 11
-220.186
 21
232.047
  0
LINE
  8
0
 10
-220.186
 20
232.047
 11
-219.938
 21
232.056
  0
LINE
  8
0
 10
-219.938
 20
232.056
 11
-219.691
 21
232.029
  0
LINE
  8
0
 10
-219.691
 20
232.029
 11
-219.451
 21
231.966
  0
LINE
  8
0
 10
-219.451
 20
231.966
 11
-219.223
 21
231.869
  0
LINE
  8
0
 10
-219.223
 20
231.869
 11
-219.011
 21
231.74
  0
LINE
  8
0
 10
-219.011
 20
231.74
 11
-218.82
 21
231.581
  0
LINE
  8
0
 10
-218.82
 20
231.581
 11
-218.654
 21
231.396
  0
LINE
  8
0
 10
-218.654
 20
231.396
 11
-218.518
 21
231.189
  0
LINE
  8
0
 10
-218.518
 20
231.189
 11
-218.412
 21
230.964
  0
LINE
  8
0
 10
-218.412
 20
230.964
 11
-218.341
 21
230.727
  0
LINE
  8
0
 10
-218.341
 20
230.727
 11
-218.305
 21
230.481
  0
LINE
  8
0
 10
-218.305
 20
230.481
 11
-218.305
 21
230.233
  0
LINE
  8
0
 10
-218.305
 20
230.233
 11
-218.341
 21
229.988
  0
LINE
  8
0
 10
-218.341
 20
229.988
 11
-218.412
 21
229.75
  0
LINE
  8
0
 10
-218.412
 20
229.75
 11
-218.518
 21
229.525
  0
LINE
  8
0
 10
-218.518
 20
229.525
 11
-218.654
 21
229.318
  0
LINE
  8
0
 10
-218.654
 20
229.318
 11
-218.82
 21
229.133
  0
LINE
  8
0
 10
-218.82
 20
229.133
 11
-219.011
 21
228.975
  0
LINE
  8
0
 10
-219.011
 20
228.975
 11
-219.223
 21
228.845
  0
LINE
  8
0
 10
-219.223
 20
228.845
 11
-219.451
 21
228.748
  0
LINE
  8
0
 10
-219.451
 20
228.748
 11
-219.691
 21
228.685
  0
LINE
  8
0
 10
-219.691
 20
228.685
 11
-219.938
 21
228.658
  0
LINE
  8
0
 10
-219.938
 20
228.658
 11
-220.186
 21
228.667
  0
LINE
  8
0
 10
-85.3589
 20
188.571
 11
-86.7029
 21
188.784
  0
LINE
  8
0
 10
-86.7029
 20
188.784
 11
-88.0172
 21
189.136
  0
LINE
  8
0
 10
-88.0172
 20
189.136
 11
-89.2876
 21
189.624
  0
LINE
  8
0
 10
-89.2876
 20
189.624
 11
-90.5
 21
190.242
  0
LINE
  8
0
 10
-90.5
 20
190.242
 11
-91.6412
 21
190.983
  0
LINE
  8
0
 10
-91.6412
 20
190.983
 11
-92.6987
 21
191.839
  0
LINE
  8
0
 10
-92.6987
 20
191.839
 11
-93.6609
 21
192.801
  0
LINE
  8
0
 10
-93.6609
 20
192.801
 11
-94.5172
 21
193.859
  0
LINE
  8
0
 10
-94.5172
 20
193.859
 11
-95.2583
 21
195
  0
LINE
  8
0
 10
-95.2583
 20
195
 11
-95.8761
 21
196.212
  0
LINE
  8
0
 10
-95.8761
 20
196.212
 11
-96.3637
 21
197.483
  0
LINE
  8
0
 10
-96.3637
 20
197.483
 11
-96.7159
 21
198.797
  0
LINE
  8
0
 10
-96.7159
 20
198.797
 11
-96.9288
 21
200.141
  0
LINE
  8
0
 10
-96.9288
 20
200.141
 11
-97
 21
201.5
  0
LINE
  8
0
 10
-97
 20
201.5
 11
-96.9288
 21
202.859
  0
LINE
  8
0
 10
-96.9288
 20
202.859
 11
-96.7159
 21
204.203
  0
LINE
  8
0
 10
-96.7159
 20
204.203
 11
-96.3637
 21
205.517
  0
LINE
  8
0
 10
-96.3637
 20
205.517
 11
-95.8761
 21
206.788
  0
LINE
  8
0
 10
-95.8761
 20
206.788
 11
-95.2583
 21
208
  0
LINE
  8
0
 10
-95.2583
 20
208
 11
-94.5172
 21
209.141
  0
LINE
  8
0
 10
-94.5172
 20
209.141
 11
-93.6609
 21
210.199
  0
LINE
  8
0
 10
-93.6609
 20
210.199
 11
-92.6987
 21
211.161
  0
LINE
  8
0
 10
-92.6987
 20
211.161
 11
-91.6412
 21
212.017
  0
LINE
  8
0
 10
-91.6412
 20
212.017
 11
-90.5
 21
212.758
  0
LINE
  8
0
 10
-90.5
 20
212.758
 11
-89.2876
 21
213.376
  0
LINE
  8
0
 10
-89.2876
 20
213.376
 11
-88.0172
 21
213.864
  0
LINE
  8
0
 10
-88.0172
 20
213.864
 11
-86.7029
 21
214.216
  0
LINE
  8
0
 10
-86.7029
 20
214.216
 11
-85.3589
 21
214.429
  0
LINE
  8
0
 10
-85.3589
 20
214.429
 11
-84
 21
214.5
  0
LINE
  8
0
 10
-84
 20
214.5
 11
-82.6411
 21
214.429
  0
LINE
  8
0
 10
-82.6411
 20
214.429
 11
-81.2971
 21
214.216
  0
LINE
  8
0
 10
-81.2971
 20
214.216
 11
-79.9828
 21
213.864
  0
LINE
  8
0
 10
-79.9828
 20
213.864
 11
-78.7124
 21
213.376
  0
LINE
  8
0
 10
-78.7124
 20
213.376
 11
-77.5
 21
212.758
  0
LINE
  8
0
 10
-77.5
 20
212.758
 11
-76.3588
 21
212.017
  0
LINE
  8
0
 10
-76.3588
 20
212.017
 11
-75.3013
 21
211.161
  0
LINE
  8
0
 10
-75.3013
 20
211.161
 11
-74.3391
 21
210.199
  0
LINE
  8
0
 10
-74.3391
 20
210.199
 11
-73.4828
 21
209.141
  0
LINE
  8
0
 10
-73.4828
 20
209.141
 11
-72.7417
 21
208
  0
LINE
  8
0
 10
-72.7417
 20
208
 11
-72.1239
 21
206.788
  0
LINE
  8
0
 10
-72.1239
 20
206.788
 11
-71.6363
 21
205.517
  0
LINE
  8
0
 10
-71.6363
 20
205.517
 11
-71.2841
 21
204.203
  0
LINE
  8
0
 10
-71.2841
 20
204.203
 11
-71.0712
 21
202.859
  0
LINE
  8
0
 10
-71.0712
 20
202.859
 11
-71
 21
201.5
  0
LINE
  8
0
 10
-71
 20
201.5
 11
-71.0712
 21
200.141
  0
LINE
  8
0
 10
-71.0712
 20
200.141
 11
-71.2841
 21
198.797
  0
LINE
  8
0
 10
-71.2841
 20
198.797
 11
-71.6363
 21
197.483
  0
LINE
  8
0
 10
-71.6363
 20
197.483
 11
-72.1239
 21
196.212
  0
LINE
  8
0
 10
-72.1239
 20
196.212
 11
-72.7417
 21
195
  0
LINE
  8
0
 10
-72.7417
 20
195
 11
-73.4828
 21
193.859
  0
LINE
  8
0
 10
-73.4828
 20
193.859
 11
-74.3391
 21
192.801
  0
LINE
  8
0
 10
-74.3391
 20
192.801
 11
-75.3013
 21
191.839
  0
LINE
  8
0
 10
-75.3013
 20
191.839
 11
-76.3588
 21
190.983
  0
LINE
  8
0
 10
-76.3588
 20
190.983
 11
-77.5
 21
190.242
  0
LINE
  8
0
 10
-77.5
 20
190.242
 11
-78.7124
 21
189.624
  0
LINE
  8
0
 10
-78.7124
 20
189.624
 11
-79.9828
 21
189.136
  0
LINE
  8
0
 10
-79.9828
 20
189.136
 11
-81.2971
 21
188.784
  0
LINE
  8
0
 10
-81.2971
 20
188.784
 11
-82.6411
 21
188.571
  0
LINE
  8
0
 10
-82.6411
 20
188.571
 11
-84
 21
188.5
  0
LINE
  8
0
 10
-84
 20
188.5
 11
-85.3589
 21
188.571
  0
LINE
  8
0
 10
-160.074
 20
203.455
 11
-160.318
 21
203.496
  0
LINE
  8
0
 10
-160.318
 20
203.496
 11
-160.553
 21
203.576
  0
LINE
  8
0
 10
-160.553
 20
203.576
 11
-160.77
 21
203.694
  0
LINE
  8
0
 10
-160.77
 20
203.694
 11
-160.966
 21
203.846
  0
LINE
  8
0
 10
-160.966
 20
203.846
 11
-161.134
 21
204.029
  0
LINE
  8
0
 10
-161.134
 20
204.029
 11
-161.269
 21
204.236
  0
LINE
  8
0
 10
-161.269
 20
204.236
 11
-161.369
 21
204.463
  0
LINE
  8
0
 10
-161.369
 20
204.463
 11
-161.43
 21
204.703
  0
LINE
  8
0
 10
-161.43
 20
204.703
 11
-161.45
 21
204.95
  0
LINE
  8
0
 10
-161.45
 20
204.95
 11
-161.43
 21
205.197
  0
LINE
  8
0
 10
-161.43
 20
205.197
 11
-161.369
 21
205.437
  0
LINE
  8
0
 10
-161.369
 20
205.437
 11
-161.269
 21
205.664
  0
LINE
  8
0
 10
-161.269
 20
205.664
 11
-161.134
 21
205.871
  0
LINE
  8
0
 10
-161.134
 20
205.871
 11
-160.966
 21
206.054
  0
LINE
  8
0
 10
-160.966
 20
206.054
 11
-160.77
 21
206.206
  0
LINE
  8
0
 10
-160.77
 20
206.206
 11
-160.553
 21
206.324
  0
LINE
  8
0
 10
-160.553
 20
206.324
 11
-160.318
 21
206.404
  0
LINE
  8
0
 10
-160.318
 20
206.404
 11
-160.074
 21
206.445
  0
LINE
  8
0
 10
-160.074
 20
206.445
 11
-159.826
 21
206.445
  0
LINE
  8
0
 10
-159.826
 20
206.445
 11
-159.582
 21
206.404
  0
LINE
  8
0
 10
-159.582
 20
206.404
 11
-159.347
 21
206.324
  0
LINE
  8
0
 10
-159.347
 20
206.324
 11
-159.13
 21
206.206
  0
LINE
  8
0
 10
-159.13
 20
206.206
 11
-158.934
 21
206.054
  0
LINE
  8
0
 10
-158.934
 20
206.054
 11
-158.766
 21
205.871
  0
LINE
  8
0
 10
-158.766
 20
205.871
 11
-158.631
 21
205.664
  0
LINE
  8
0
 10
-158.631
 20
205.664
 11
-158.531
 21
205.437
  0
LINE
  8
0
 10
-158.531
 20
205.437
 11
-158.47
 21
205.197
  0
LINE
  8
0
 10
-158.47
 20
205.197
 11
-158.45
 21
204.95
  0
LINE
  8
0
 10
-158.45
 20
204.95
 11
-158.47
 21
204.703
  0
LINE
  8
0
 10
-158.47
 20
204.703
 11
-158.531
 21
204.463
  0
LINE
  8
0
 10
-158.531
 20
204.463
 11
-158.631
 21
204.236
  0
LINE
  8
0
 10
-158.631
 20
204.236
 11
-158.766
 21
204.029
  0
LINE
  8
0
 10
-158.766
 20
204.029
 11
-158.934
 21
203.846
  0
LINE
  8
0
 10
-158.934
 20
203.846
 11
-159.13
 21
203.694
  0
LINE
  8
0
 10
-159.13
 20
203.694
 11
-159.347
 21
203.576
  0
LINE
  8
0
 10
-159.347
 20
203.576
 11
-159.582
 21
203.496
  0
LINE
  8
0
 10
-159.582
 20
203.496
 11
-159.826
 21
203.455
  0
LINE
  8
0
 10
-159.826
 20
203.455
 11
-160.074
 21
203.455
  0
LINE
  8
0
 10
159.826
 20
203.455
 11
159.582
 21
203.496
  0
LINE
  8
0
 10
159.582
 20
203.496
 11
159.347
 21
203.576
  0
LINE
  8
0
 10
159.347
 20
203.576
 11
159.13
 21
203.694
  0
LINE
  8
0
 10
159.13
 20
203.694
 11
158.934
 21
203.846
  0
LINE
  8
0
 10
158.934
 20
203.846
 11
158.766
 21
204.029
  0
LINE
  8
0
 10
158.766
 20
204.029
 11
158.631
 21
204.236
  0
LINE
  8
0
 10
158.631
 20
204.236
 11
158.531
 21
204.463
  0
LINE
  8
0
 10
158.531
 20
204.463
 11
158.47
 21
204.703
  0
LINE
  8
0
 10
158.47
 20
204.703
 11
158.45
 21
204.95
  0
LINE
  8
0
 10
158.45
 20
204.95
 11
158.47
 21
205.197
  0
LINE
  8
0
 10
158.47
 20
205.197
 11
158.531
 21
205.437
  0
LINE
  8
0
 10
158.531
 20
205.437
 11
158.631
 21
205.664
  0
LINE
  8
0
 10
158.631
 20
205.664
 11
158.766
 21
205.871
  0
LINE
  8
0
 10
158.766
 20
205.871
 11
158.934
 21
206.054
  0
LINE
  8
0
 10
158.934
 20
206.054
 11
159.13
 21
206.206
  0
LINE
  8
0
 10
159.13
 20
206.206
 11
159.347
 21
206.324
  0
LINE
  8
0
 10
159.347
 20
206.324
 11
159.582
 21
206.404
  0
LINE
  8
0
 10
159.582
 20
206.404
 11
159.826
 21
206.445
  0
LINE
  8
0
 10
159.826
 20
206.445
 11
160.074
 21
206.445
  0
LINE
  8
0
 10
160.074
 20
206.445
 11
160.318
 21
206.404
  0
LINE
  8
0
 10
160.318
 20
206.404
 11
160.553
 21
206.324
  0
LINE
  8
0
 10
160.553
 20
206.324
 11
160.77
 21
206.206
  0
LINE
  8
0
 10
160.77
 20
206.206
 11
160.966
 21
206.054
  0
LINE
  8
0
 10
160.966
 20
206.054
 11
161.134
 21
205.871
  0
LINE
  8
0
 10
161.134
 20
205.871
 11
161.269
 21
205.664
  0
LINE
  8
0
 10
161.269
 20
205.664
 11
161.369
 21
205.437
  0
LINE
  8
0
 10
161.369
 20
205.437
 11
161.43
 21
205.197
  0
LINE
  8
0
 10
161.43
 20
205.197
 11
161.45
 21
204.95
  0
LINE
  8
0
 10
161.45
 20
204.95
 11
161.43
 21
204.703
  0
LINE
  8
0
 10
161.43
 20
204.703
 11
161.369
 21
204.463
  0
LINE
  8
0
 10
161.369
 20
204.463
 11
161.269
 21
204.236
  0
LINE
  8
0
 10
161.269
 20
204.236
 11
161.134
 21
204.029
  0
LINE
  8
0
 10
161.134
 20
204.029
 11
160.966
 21
203.846
  0
LINE
  8
0
 10
160.966
 20
203.846
 11
160.77
 21
203.694
  0
LINE
  8
0
 10
160.77
 20
203.694
 11
160.553
 21
203.576
  0
LINE
  8
0
 10
160.553
 20
203.576
 11
160.318
 21
203.496
  0
LINE
  8
0
 10
160.318
 20
203.496
 11
160.074
 21
203.455
  0
LINE
  8
0
 10
160.074
 20
203.455
 11
159.826
 21
203.455
  0
LINE
  8
0
 10
-142.566
 20
169.314
 11
-142.81
 21
169.355
  0
LINE
  8
0
 10
-142.81
 20
169.355
 11
-143.047
 21
169.423
  0
LINE
  8
0
 10
-143.047
 20
169.423
 11
-143.275
 21
169.518
  0
LINE
  8
0
 10
-143.275
 20
169.518
 11
-143.49
 21
169.637
  0
LINE
  8
0
 10
-143.49
 20
169.637
 11
-143.692
 21
169.78
  0
LINE
  8
0
 10
-143.692
 20
169.78
 11
-143.876
 21
169.944
  0
LINE
  8
0
 10
-143.876
 20
169.944
 11
-144.04
 21
170.128
  0
LINE
  8
0
 10
-144.04
 20
170.128
 11
-144.183
 21
170.33
  0
LINE
  8
0
 10
-144.183
 20
170.33
 11
-144.302
 21
170.545
  0
LINE
  8
0
 10
-144.302
 20
170.545
 11
-144.397
 21
170.773
  0
LINE
  8
0
 10
-144.397
 20
170.773
 11
-144.465
 21
171.01
  0
LINE
  8
0
 10
-144.465
 20
171.01
 11
-144.506
 21
171.254
  0
LINE
  8
0
 10
-144.506
 20
171.254
 11
-144.52
 21
171.5
  0
LINE
  8
0
 10
-144.52
 20
171.5
 11
-144.506
 21
171.746
  0
LINE
  8
0
 10
-144.506
 20
171.746
 11
-144.465
 21
171.99
  0
LINE
  8
0
 10
-144.465
 20
171.99
 11
-144.397
 21
172.227
  0
LINE
  8
0
 10
-144.397
 20
172.227
 11
-144.302
 21
172.455
  0
LINE
  8
0
 10
-144.302
 20
172.455
 11
-144.183
 21
172.67
  0
LINE
  8
0
 10
-144.183
 20
172.67
 11
-144.04
 21
172.872
  0
LINE
  8
0
 10
-144.04
 20
172.872
 11
-143.876
 21
173.056
  0
LINE
  8
0
 10
-143.876
 20
173.056
 11
-143.692
 21
173.22
  0
LINE
  8
0
 10
-143.692
 20
173.22
 11
-143.49
 21
173.363
  0
LINE
  8
0
 10
-143.49
 20
173.363
 11
-143.275
 21
173.482
  0
LINE
  8
0
 10
-143.275
 20
173.482
 11
-143.047
 21
173.577
  0
LINE
  8
0
 10
-143.047
 20
173.577
 11
-142.81
 21
173.645
  0
LINE
  8
0
 10
-142.81
 20
173.645
 11
-142.566
 21
173.686
  0
LINE
  8
0
 10
-142.566
 20
173.686
 11
-142.32
 21
173.7
  0
LINE
  8
0
 10
-142.32
 20
173.7
 11
-142.074
 21
173.686
  0
LINE
  8
0
 10
-142.074
 20
173.686
 11
-141.83
 21
173.645
  0
LINE
  8
0
 10
-141.83
 20
173.645
 11
-141.593
 21
173.577
  0
LINE
  8
0
 10
-141.593
 20
173.577
 11
-141.365
 21
173.482
  0
LINE
  8
0
 10
-141.365
 20
173.482
 11
-141.15
 21
173.363
  0
LINE
  8
0
 10
-141.15
 20
173.363
 11
-140.948
 21
173.22
  0
LINE
  8
0
 10
-140.948
 20
173.22
 11
-140.764
 21
173.056
  0
LINE
  8
0
 10
-140.764
 20
173.056
 11
-140.6
 21
172.872
  0
LINE
  8
0
 10
-140.6
 20
172.872
 11
-140.457
 21
172.67
  0
LINE
  8
0
 10
-140.457
 20
172.67
 11
-140.338
 21
172.455
  0
LINE
  8
0
 10
-140.338
 20
172.455
 11
-140.243
 21
172.227
  0
LINE
  8
0
 10
-140.243
 20
172.227
 11
-140.175
 21
171.99
  0
LINE
  8
0
 10
-140.175
 20
171.99
 11
-140.134
 21
171.746
  0
LINE
  8
0
 10
-140.134
 20
171.746
 11
-140.12
 21
171.5
  0
LINE
  8
0
 10
-140.12
 20
171.5
 11
-140.134
 21
171.254
  0
LINE
  8
0
 10
-140.134
 20
171.254
 11
-140.175
 21
171.01
  0
LINE
  8
0
 10
-140.175
 20
171.01
 11
-140.243
 21
170.773
  0
LINE
  8
0
 10
-140.243
 20
170.773
 11
-140.338
 21
170.545
  0
LINE
  8
0
 10
-140.338
 20
170.545
 11
-140.457
 21
170.33
  0
LINE
  8
0
 10
-140.457
 20
170.33
 11
-140.6
 21
170.128
  0
LINE
  8
0
 10
-140.6
 20
170.128
 11
-140.764
 21
169.944
  0
LINE
  8
0
 10
-140.764
 20
169.944
 11
-140.948
 21
169.78
  0
LINE
  8
0
 10
-140.948
 20
169.78
 11
-141.15
 21
169.637
  0
LINE
  8
0
 10
-141.15
 20
169.637
 11
-141.365
 21
169.518
  0
LINE
  8
0
 10
-141.365
 20
169.518
 11
-141.593
 21
169.423
  0
LINE
  8
0
 10
-141.593
 20
169.423
 11
-141.83
 21
169.355
  0
LINE
  8
0
 10
-141.83
 20
169.355
 11
-142.074
 21
169.314
  0
LINE
  8
0
 10
-142.074
 20
169.314
 11
-142.32
 21
169.3
  0
LINE
  8
0
 10
-142.32
 20
169.3
 11
-142.566
 21
169.314
  0
LINE
  8
0
 10
-27.5663
 20
169.314
 11
-27.8095
 21
169.355
  0
LINE
  8
0
 10
-27.8095
 20
169.355
 11
-28.0466
 21
169.423
  0
LINE
  8
0
 10
-28.0466
 20
169.423
 11
-28.2745
 21
169.518
  0
LINE
  8
0
 10
-28.2745
 20
169.518
 11
-28.4905
 21
169.637
  0
LINE
  8
0
 10
-28.4905
 20
169.637
 11
-28.6917
 21
169.78
  0
LINE
  8
0
 10
-28.6917
 20
169.78
 11
-28.8756
 21
169.944
  0
LINE
  8
0
 10
-28.8756
 20
169.944
 11
-29.04
 21
170.128
  0
LINE
  8
0
 10
-29.04
 20
170.128
 11
-29.1828
 21
170.33
  0
LINE
  8
0
 10
-29.1828
 20
170.33
 11
-29.3021
 21
170.545
  0
LINE
  8
0
 10
-29.3021
 20
170.545
 11
-29.3965
 21
170.773
  0
LINE
  8
0
 10
-29.3965
 20
170.773
 11
-29.4648
 21
171.01
  0
LINE
  8
0
 10
-29.4648
 20
171.01
 11
-29.5062
 21
171.254
  0
LINE
  8
0
 10
-29.5062
 20
171.254
 11
-29.52
 21
171.5
  0
LINE
  8
0
 10
-29.52
 20
171.5
 11
-29.5062
 21
171.746
  0
LINE
  8
0
 10
-29.5062
 20
171.746
 11
-29.4648
 21
171.99
  0
LINE
  8
0
 10
-29.4648
 20
171.99
 11
-29.3965
 21
172.227
  0
LINE
  8
0
 10
-29.3965
 20
172.227
 11
-29.3021
 21
172.455
  0
LINE
  8
0
 10
-29.3021
 20
172.455
 11
-29.1828
 21
172.67
  0
LINE
  8
0
 10
-29.1828
 20
172.67
 11
-29.04
 21
172.872
  0
LINE
  8
0
 10
-29.04
 20
172.872
 11
-28.8756
 21
173.056
  0
LINE
  8
0
 10
-28.8756
 20
173.056
 11
-28.6917
 21
173.22
  0
LINE
  8
0
 10
-28.6917
 20
173.22
 11
-28.4905
 21
173.363
  0
LINE
  8
0
 10
-28.4905
 20
173.363
 11
-28.2745
 21
173.482
  0
LINE
  8
0
 10
-28.2745
 20
173.482
 11
-28.0466
 21
173.577
  0
LINE
  8
0
 10
-28.0466
 20
173.577
 11
-27.8095
 21
173.645
  0
LINE
  8
0
 10
-27.8095
 20
173.645
 11
-27.5663
 21
173.686
  0
LINE
  8
0
 10
-27.5663
 20
173.686
 11
-27.32
 21
173.7
  0
LINE
  8
0
 10
-27.32
 20
173.7
 11
-27.0737
 21
173.686
  0
LINE
  8
0
 10
-27.0737
 20
173.686
 11
-26.8304
 21
173.645
  0
LINE
  8
0
 10
-26.8304
 20
173.645
 11
-26.5934
 21
173.577
  0
LINE
  8
0
 10
-26.5934
 20
173.577
 11
-26.3654
 21
173.482
  0
LINE
  8
0
 10
-26.3654
 20
173.482
 11
-26.1495
 21
173.363
  0
LINE
  8
0
 10
-26.1495
 20
173.363
 11
-25.9483
 21
173.22
  0
LINE
  8
0
 10
-25.9483
 20
173.22
 11
-25.7644
 21
173.056
  0
LINE
  8
0
 10
-25.7644
 20
173.056
 11
-25.6
 21
172.872
  0
LINE
  8
0
 10
-25.6
 20
172.872
 11
-25.4572
 21
172.67
  0
LINE
  8
0
 10
-25.4572
 20
172.67
 11
-25.3379
 21
172.455
  0
LINE
  8
0
 10
-25.3379
 20
172.455
 11
-25.2435
 21
172.227
  0
LINE
  8
0
 10
-25.2435
 20
172.227
 11
-25.1752
 21
171.99
  0
LINE
  8
0
 10
-25.1752
 20
171.99
 11
-25.1338
 21
171.746
  0
LINE
  8
0
 10
-25.1338
 20
171.746
 11
-25.12
 21
171.5
  0
LINE
  8
0
 10
-25.12
 20
171.5
 11
-25.1338
 21
171.254
  0
LINE
  8
0
 10
-25.1338
 20
171.254
 11
-25.1752
 21
171.01
  0
LINE
  8
0
 10
-25.1752
 20
171.01
 11
-25.2435
 21
170.773
  0
LINE
  8
0
 10
-25.2435
 20
170.773
 11
-25.3379
 21
170.545
  0
LINE
  8
0
 10
-25.3379
 20
170.545
 11
-25.4572
 21
170.33
  0
LINE
  8
0
 10
-25.4572
 20
170.33
 11
-25.6
 21
170.128
  0
LINE
  8
0
 10
-25.6
 20
170.128
 11
-25.7644
 21
169.944
  0
LINE
  8
0
 10
-25.7644
 20
169.944
 11
-25.9483
 21
169.78
  0
LINE
  8
0
 10
-25.9483
 20
169.78
 11
-26.1495
 21
169.637
  0
LINE
  8
0
 10
-26.1495
 20
169.637
 11
-26.3654
 21
169.518
  0
LINE
  8
0
 10
-26.3654
 20
169.518
 11
-26.5934
 21
169.423
  0
LINE
  8
0
 10
-26.5934
 20
169.423
 11
-26.8304
 21
169.355
  0
LINE
  8
0
 10
-26.8304
 20
169.355
 11
-27.0737
 21
169.314
  0
LINE
  8
0
 10
-27.0737
 20
169.314
 11
-27.32
 21
169.3
  0
LINE
  8
0
 10
-27.32
 20
169.3
 11
-27.5663
 21
169.314
  0
LINE
  8
0
 10
-12.5663
 20
169.314
 11
-12.8095
 21
169.355
  0
LINE
  8
0
 10
-12.8095
 20
169.355
 11
-13.0466
 21
169.423
  0
LINE
  8
0
 10
-13.0466
 20
169.423
 11
-13.2745
 21
169.518
  0
LINE
  8
0
 10
-13.2745
 20
169.518
 11
-13.4905
 21
169.637
  0
LINE
  8
0
 10
-13.4905
 20
169.637
 11
-13.6917
 21
169.78
  0
LINE
  8
0
 10
-13.6917
 20
169.78
 11
-13.8756
 21
169.944
  0
LINE
  8
0
 10
-13.8756
 20
169.944
 11
-14.04
 21
170.128
  0
LINE
  8
0
 10
-14.04
 20
170.128
 11
-14.1828
 21
170.33
  0
LINE
  8
0
 10
-14.1828
 20
170.33
 11
-14.3021
 21
170.545
  0
LINE
  8
0
 10
-14.3021
 20
170.545
 11
-14.3965
 21
170.773
  0
LINE
  8
0
 10
-14.3965
 20
170.773
 11
-14.4648
 21
171.01
  0
LINE
  8
0
 10
-14.4648
 20
171.01
 11
-14.5062
 21
171.254
  0
LINE
  8
0
 10
-14.5062
 20
171.254
 11
-14.52
 21
171.5
  0
LINE
  8
0
 10
-14.52
 20
171.5
 11
-14.5062
 21
171.746
  0
LINE
  8
0
 10
-14.5062
 20
171.746
 11
-14.4648
 21
171.99
  0
LINE
  8
0
 10
-14.4648
 20
171.99
 11
-14.3965
 21
172.227
  0
LINE
  8
0
 10
-14.3965
 20
172.227
 11
-14.3021
 21
172.455
  0
LINE
  8
0
 10
-14.3021
 20
172.455
 11
-14.1828
 21
172.67
  0
LINE
  8
0
 10
-14.1828
 20
172.67
 11
-14.04
 21
172.872
  0
LINE
  8
0
 10
-14.04
 20
172.872
 11
-13.8756
 21
173.056
  0
LINE
  8
0
 10
-13.8756
 20
173.056
 11
-13.6917
 21
173.22
  0
LINE
  8
0
 10
-13.6917
 20
173.22
 11
-13.4905
 21
173.363
  0
LINE
  8
0
 10
-13.4905
 20
173.363
 11
-13.2745
 21
173.482
  0
LINE
  8
0
 10
-13.2745
 20
173.482
 11
-13.0466
 21
173.577
  0
LINE
  8
0
 10
-13.0466
 20
173.577
 11
-12.8095
 21
173.645
  0
LINE
  8
0
 10
-12.8095
 20
173.645
 11
-12.5663
 21
173.686
  0
LINE
  8
0
 10
-12.5663
 20
173.686
 11
-12.32
 21
173.7
  0
LINE
  8
0
 10
-12.32
 20
173.7
 11
-12.0737
 21
173.686
  0
LINE
  8
0
 10
-12.0737
 20
173.686
 11
-11.8304
 21
173.645
  0
LINE
  8
0
 10
-11.8304
 20
173.645
 11
-11.5934
 21
173.577
  0
LINE
  8
0
 10
-11.5934
 20
173.577
 11
-11.3654
 21
173.482
  0
LINE
  8
0
 10
-11.3654
 20
173.482
 11
-11.1495
 21
173.363
  0
LINE
  8
0
 10
-11.1495
 20
173.363
 11
-10.9483
 21
173.22
  0
LINE
  8
0
 10
-10.9483
 20
173.22
 11
-10.7644
 21
173.056
  0
LINE
  8
0
 10
-10.7644
 20
173.056
 11
-10.6
 21
172.872
  0
LINE
  8
0
 10
-10.6
 20
172.872
 11
-10.4572
 21
172.67
  0
LINE
  8
0
 10
-10.4572
 20
172.67
 11
-10.3379
 21
172.455
  0
LINE
  8
0
 10
-10.3379
 20
172.455
 11
-10.2435
 21
172.227
  0
LINE
  8
0
 10
-10.2435
 20
172.227
 11
-10.1752
 21
171.99
  0
LINE
  8
0
 10
-10.1752
 20
171.99
 11
-10.1338
 21
171.746
  0
LINE
  8
0
 10
-10.1338
 20
171.746
 11
-10.12
 21
171.5
  0
LINE
  8
0
 10
-10.12
 20
171.5
 11
-10.1338
 21
171.254
  0
LINE
  8
0
 10
-10.1338
 20
171.254
 11
-10.1752
 21
171.01
  0
LINE
  8
0
 10
-10.1752
 20
171.01
 11
-10.2435
 21
170.773
  0
LINE
  8
0
 10
-10.2435
 20
170.773
 11
-10.3379
 21
170.545
  0
LINE
  8
0
 10
-10.3379
 20
170.545
 11
-10.4572
 21
170.33
  0
LINE
  8
0
 10
-10.4572
 20
170.33
 11
-10.6
 21
170.128
  0
LINE
  8
0
 10
-10.6
 20
170.128
 11
-10.7644
 21
169.944
  0
LINE
  8
0
 10
-10.7644
 20
169.944
 11
-10.9483
 21
169.78
  0
LINE
  8
0
 10
-10.9483
 20
169.78
 11
-11.1495
 21
169.637
  0
LINE
  8
0
 10
-11.1495
 20
169.637
 11
-11.3654
 21
169.518
  0
LINE
  8
0
 10
-11.3654
 20
169.518
 11
-11.5934
 21
169.423
  0
LINE
  8
0
 10
-11.5934
 20
169.423
 11
-11.8304
 21
169.355
  0
LINE
  8
0
 10
-11.8304
 20
169.355
 11
-12.0737
 21
169.314
  0
LINE
  8
0
 10
-12.0737
 20
169.314
 11
-12.32
 21
169.3
  0
LINE
  8
0
 10
-12.32
 20
169.3
 11
-12.5663
 21
169.314
  0
LINE
  8
0
 10
-220.186
 20
136.524
 11
-220.43
 21
136.57
  0
LINE
  8
0
 10
-220.43
 20
136.57
 11
-220.665
 21
136.65
  0
LINE
  8
0
 10
-220.665
 20
136.65
 11
-220.886
 21
136.763
  0
LINE
  8
0
 10
-220.886
 20
136.763
 11
-221.087
 21
136.908
  0
LINE
  8
0
 10
-221.087
 20
136.908
 11
-221.266
 21
137.08
  0
LINE
  8
0
 10
-221.266
 20
137.08
 11
-221.418
 21
137.276
  0
LINE
  8
0
 10
-221.418
 20
137.276
 11
-221.539
 21
137.493
  0
LINE
  8
0
 10
-221.539
 20
137.493
 11
-221.628
 21
137.725
  0
LINE
  8
0
 10
-221.628
 20
137.725
 11
-221.682
 21
137.967
  0
LINE
  8
0
 10
-221.682
 20
137.967
 11
-221.7
 21
138.214
  0
LINE
  8
0
 10
-221.7
 20
138.214
 11
-221.682
 21
138.462
  0
LINE
  8
0
 10
-221.682
 20
138.462
 11
-221.628
 21
138.704
  0
LINE
  8
0
 10
-221.628
 20
138.704
 11
-221.539
 21
138.936
  0
LINE
  8
0
 10
-221.539
 20
138.936
 11
-221.418
 21
139.152
  0
LINE
  8
0
 10
-221.418
 20
139.152
 11
-221.266
 21
139.349
  0
LINE
  8
0
 10
-221.266
 20
139.349
 11
-221.087
 21
139.521
  0
LINE
  8
0
 10
-221.087
 20
139.521
 11
-220.886
 21
139.665
  0
LINE
  8
0
 10
-220.886
 20
139.665
 11
-220.665
 21
139.779
  0
LINE
  8
0
 10
-220.665
 20
139.779
 11
-220.43
 21
139.859
  0
LINE
  8
0
 10
-220.43
 20
139.859
 11
-220.186
 21
139.904
  0
LINE
  8
0
 10
-220.186
 20
139.904
 11
-219.938
 21
139.913
  0
LINE
  8
0
 10
-219.938
 20
139.913
 11
-219.691
 21
139.886
  0
LINE
  8
0
 10
-219.691
 20
139.886
 11
-219.451
 21
139.823
  0
LINE
  8
0
 10
-219.451
 20
139.823
 11
-219.223
 21
139.726
  0
LINE
  8
0
 10
-219.223
 20
139.726
 11
-219.011
 21
139.597
  0
LINE
  8
0
 10
-219.011
 20
139.597
 11
-218.82
 21
139.438
  0
LINE
  8
0
 10
-218.82
 20
139.438
 11
-218.654
 21
139.253
  0
LINE
  8
0
 10
-218.654
 20
139.253
 11
-218.518
 21
139.046
  0
LINE
  8
0
 10
-218.518
 20
139.046
 11
-218.412
 21
138.822
  0
LINE
  8
0
 10
-218.412
 20
138.822
 11
-218.341
 21
138.584
  0
LINE
  8
0
 10
-218.341
 20
138.584
 11
-218.305
 21
138.338
  0
LINE
  8
0
 10
-218.305
 20
138.338
 11
-218.305
 21
138.09
  0
LINE
  8
0
 10
-218.305
 20
138.09
 11
-218.341
 21
137.845
  0
LINE
  8
0
 10
-218.341
 20
137.845
 11
-218.412
 21
137.607
  0
LINE
  8
0
 10
-218.412
 20
137.607
 11
-218.518
 21
137.382
  0
LINE
  8
0
 10
-218.518
 20
137.382
 11
-218.654
 21
137.175
  0
LINE
  8
0
 10
-218.654
 20
137.175
 11
-218.82
 21
136.99
  0
LINE
  8
0
 10
-218.82
 20
136.99
 11
-219.011
 21
136.832
  0
LINE
  8
0
 10
-219.011
 20
136.832
 11
-219.223
 21
136.702
  0
LINE
  8
0
 10
-219.223
 20
136.702
 11
-219.451
 21
136.605
  0
LINE
  8
0
 10
-219.451
 20
136.605
 11
-219.691
 21
136.543
  0
LINE
  8
0
 10
-219.691
 20
136.543
 11
-219.938
 21
136.515
  0
LINE
  8
0
 10
-219.938
 20
136.515
 11
-220.186
 21
136.524
  0
LINE
  8
0
 10
219.691
 20
136.543
 11
219.451
 21
136.605
  0
LINE
  8
0
 10
219.451
 20
136.605
 11
219.223
 21
136.702
  0
LINE
  8
0
 10
219.223
 20
136.702
 11
219.011
 21
136.832
  0
LINE
  8
0
 10
219.011
 20
136.832
 11
218.82
 21
136.99
  0
LINE
  8
0
 10
218.82
 20
136.99
 11
218.654
 21
137.175
  0
LINE
  8
0
 10
218.654
 20
137.175
 11
218.518
 21
137.382
  0
LINE
  8
0
 10
218.518
 20
137.382
 11
218.412
 21
137.607
  0
LINE
  8
0
 10
218.412
 20
137.607
 11
218.341
 21
137.845
  0
LINE
  8
0
 10
218.341
 20
137.845
 11
218.305
 21
138.09
  0
LINE
  8
0
 10
218.305
 20
138.09
 11
218.305
 21
138.338
  0
LINE
  8
0
 10
218.305
 20
138.338
 11
218.341
 21
138.584
  0
LINE
  8
0
 10
218.341
 20
138.584
 11
218.412
 21
138.822
  0
LINE
  8
0
 10
218.412
 20
138.822
 11
218.518
 21
139.046
  0
LINE
  8
0
 10
218.518
 20
139.046
 11
218.654
 21
139.253
  0
LINE
  8
0
 10
218.654
 20
139.253
 11
218.82
 21
139.438
  0
LINE
  8
0
 10
218.82
 20
139.438
 11
219.011
 21
139.597
  0
LINE
  8
0
 10
219.011
 20
139.597
 11
219.223
 21
139.726
  0
LINE
  8
0
 10
219.223
 20
139.726
 11
219.451
 21
139.823
  0
LINE
  8
0
 10
219.451
 20
139.823
 11
219.691
 21
139.886
  0
LINE
  8
0
 10
219.691
 20
139.886
 11
219.938
 21
139.913
  0
LINE
  8
0
 10
219.938
 20
139.913
 11
220.186
 21
139.904
  0
LINE
  8
0
 10
220.186
 20
139.904
 11
220.43
 21
139.859
  0
LINE
  8
0
 10
220.43
 20
139.859
 11
220.665
 21
139.779
  0
LINE
  8
0
 10
220.665
 20
139.779
 11
220.886
 21
139.665
  0
LINE
  8
0
 10
220.886
 20
139.665
 11
221.087
 21
139.521
  0
LINE
  8
0
 10
221.087
 20
139.521
 11
221.266
 21
139.349
  0
LINE
  8
0
 10
221.266
 20
139.349
 11
221.418
 21
139.152
  0
LINE
  8
0
 10
221.418
 20
139.152
 11
221.539
 21
138.936
  0
LINE
  8
0
 10
221.539
 20
138.936
 11
221.628
 21
138.704
  0
LINE
  8
0
 10
221.628
 20
138.704
 11
221.682
 21
138.462
  0
LINE
  8
0
 10
221.682
 20
138.462
 11
221.7
 21
138.214
  0
LINE
  8
0
 10
221.7
 20
138.214
 11
221.682
 21
137.967
  0
LINE
  8
0
 10
221.682
 20
137.967
 11
221.628
 21
137.725
  0
LINE
  8
0
 10
221.628
 20
137.725
 11
221.539
 21
137.493
  0
LINE
  8
0
 10
221.539
 20
137.493
 11
221.418
 21
137.276
  0
LINE
  8
0
 10
221.418
 20
137.276
 11
221.266
 21
137.08
  0
LINE
  8
0
 10
221.266
 20
137.08
 11
221.087
 21
136.908
  0
LINE
  8
0
 10
221.087
 20
136.908
 11
220.886
 21
136.763
  0
LINE
  8
0
 10
220.886
 20
136.763
 11
220.665
 21
136.65
  0
LINE
  8
0
 10
220.665
 20
136.65
 11
220.43
 21
136.57
  0
LINE
  8
0
 10
220.43
 20
136.57
 11
220.186
 21
136.524
  0
LINE
  8
0
 10
220.186
 20
136.524
 11
219.938
 21
136.515
  0
LINE
  8
0
 10
219.938
 20
136.515
 11
219.691
 21
136.543
  0
LINE
  8
0
 10
34.1864
 20
133.016
 11
33.8763
 21
133.066
  0
LINE
  8
0
 10
33.8763
 20
133.066
 11
33.5729
 21
133.147
  0
LINE
  8
0
 10
33.5729
 20
133.147
 11
33.2798
 21
133.259
  0
LINE
  8
0
 10
33.2798
 20
133.259
 11
33
 21
133.402
  0
LINE
  8
0
 10
33
 20
133.402
 11
32.7366
 21
133.573
  0
LINE
  8
0
 10
32.7366
 20
133.573
 11
32.4926
 21
133.771
  0
LINE
  8
0
 10
32.4926
 20
133.771
 11
32.2706
 21
133.993
  0
LINE
  8
0
 10
32.2706
 20
133.993
 11
32.0729
 21
134.237
  0
LINE
  8
0
 10
32.0729
 20
134.237
 11
31.9019
 21
134.5
  0
LINE
  8
0
 10
31.9019
 20
134.5
 11
31.7594
 21
134.78
  0
LINE
  8
0
 10
31.7594
 20
134.78
 11
31.6468
 21
135.073
  0
LINE
  8
0
 10
31.6468
 20
135.073
 11
31.5656
 21
135.376
  0
LINE
  8
0
 10
31.5656
 20
135.376
 11
31.5164
 21
135.686
  0
LINE
  8
0
 10
31.5164
 20
135.686
 11
31.5
 21
136
  0
LINE
  8
0
 10
31.5
 20
136
 11
31.5164
 21
136.314
  0
LINE
  8
0
 10
31.5164
 20
136.314
 11
31.5656
 21
136.624
  0
LINE
  8
0
 10
31.5656
 20
136.624
 11
31.6468
 21
136.927
  0
LINE
  8
0
 10
31.6468
 20
136.927
 11
31.7594
 21
137.22
  0
LINE
  8
0
 10
31.7594
 20
137.22
 11
31.9019
 21
137.5
  0
LINE
  8
0
 10
31.9019
 20
137.5
 11
32.0729
 21
137.763
  0
LINE
  8
0
 10
32.0729
 20
137.763
 11
32.2706
 21
138.007
  0
LINE
  8
0
 10
32.2706
 20
138.007
 11
32.4926
 21
138.229
  0
LINE
  8
0
 10
32.4926
 20
138.229
 11
32.7366
 21
138.427
  0
LINE
  8
0
 10
32.7366
 20
138.427
 11
33
 21
138.598
  0
LINE
  8
0
 10
33
 20
138.598
 11
33.2798
 21
138.741
  0
LINE
  8
0
 10
33.2798
 20
138.741
 11
33.5729
 21
138.853
  0
LINE
  8
0
 10
33.5729
 20
138.853
 11
33.8763
 21
138.934
  0
LINE
  8
0
 10
33.8763
 20
138.934
 11
34.1864
 21
138.984
  0
LINE
  8
0
 10
34.1864
 20
138.984
 11
34.5
 21
139
  0
LINE
  8
0
 10
34.5
 20
139
 11
34.8136
 21
138.984
  0
LINE
  8
0
 10
34.8136
 20
138.984
 11
35.1237
 21
138.934
  0
LINE
  8
0
 10
35.1237
 20
138.934
 11
35.427
 21
138.853
  0
LINE
  8
0
 10
35.427
 20
138.853
 11
35.7202
 21
138.741
  0
LINE
  8
0
 10
35.7202
 20
138.741
 11
36
 21
138.598
  0
LINE
  8
0
 10
36
 20
138.598
 11
36.2634
 21
138.427
  0
LINE
  8
0
 10
36.2634
 20
138.427
 11
36.5074
 21
138.229
  0
LINE
  8
0
 10
36.5074
 20
138.229
 11
36.7294
 21
138.007
  0
LINE
  8
0
 10
36.7294
 20
138.007
 11
36.927
 21
137.763
  0
LINE
  8
0
 10
36.927
 20
137.763
 11
37.0981
 21
137.5
  0
LINE
  8
0
 10
37.0981
 20
137.5
 11
37.2406
 21
137.22
  0
LINE
  8
0
 10
37.2406
 20
137.22
 11
37.3532
 21
136.927
  0
LINE
  8
0
 10
37.3532
 20
136.927
 11
37.4344
 21
136.624
  0
LINE
  8
0
 10
37.4344
 20
136.624
 11
37.4836
 21
136.314
  0
LINE
  8
0
 10
37.4836
 20
136.314
 11
37.5
 21
136
  0
LINE
  8
0
 10
37.5
 20
136
 11
37.4836
 21
135.686
  0
LINE
  8
0
 10
37.4836
 20
135.686
 11
37.4344
 21
135.376
  0
LINE
  8
0
 10
37.4344
 20
135.376
 11
37.3532
 21
135.073
  0
LINE
  8
0
 10
37.3532
 20
135.073
 11
37.2406
 21
134.78
  0
LINE
  8
0
 10
37.2406
 20
134.78
 11
37.0981
 21
134.5
  0
LINE
  8
0
 10
37.0981
 20
134.5
 11
36.927
 21
134.237
  0
LINE
  8
0
 10
36.927
 20
134.237
 11
36.7294
 21
133.993
  0
LINE
  8
0
 10
36.7294
 20
133.993
 11
36.5074
 21
133.771
  0
LINE
  8
0
 10
36.5074
 20
133.771
 11
36.2634
 21
133.573
  0
LINE
  8
0
 10
36.2634
 20
133.573
 11
36
 21
133.402
  0
LINE
  8
0
 10
36
 20
133.402
 11
35.7202
 21
133.259
  0
LINE
  8
0
 10
35.7202
 20
133.259
 11
35.427
 21
133.147
  0
LINE
  8
0
 10
35.427
 20
133.147
 11
35.1237
 21
133.066
  0
LINE
  8
0
 10
35.1237
 20
133.066
 11
34.8136
 21
133.016
  0
LINE
  8
0
 10
34.8136
 20
133.016
 11
34.5
 21
133
  0
LINE
  8
0
 10
34.5
 20
133
 11
34.1864
 21
133.016
  0
LINE
  8
0
 10
119.186
 20
133.016
 11
118.876
 21
133.066
  0
LINE
  8
0
 10
118.876
 20
133.066
 11
118.573
 21
133.147
  0
LINE
  8
0
 10
118.573
 20
133.147
 11
118.28
 21
133.259
  0
LINE
  8
0
 10
118.28
 20
133.259
 11
118
 21
133.402
  0
LINE
  8
0
 10
118
 20
133.402
 11
117.737
 21
133.573
  0
LINE
  8
0
 10
117.737
 20
133.573
 11
117.493
 21
133.771
  0
LINE
  8
0
 10
117.493
 20
133.771
 11
117.271
 21
133.993
  0
LINE
  8
0
 10
117.271
 20
133.993
 11
117.073
 21
134.237
  0
LINE
  8
0
 10
117.073
 20
134.237
 11
116.902
 21
134.5
  0
LINE
  8
0
 10
116.902
 20
134.5
 11
116.759
 21
134.78
  0
LINE
  8
0
 10
116.759
 20
134.78
 11
116.647
 21
135.073
  0
LINE
  8
0
 10
116.647
 20
135.073
 11
116.566
 21
135.376
  0
LINE
  8
0
 10
116.566
 20
135.376
 11
116.516
 21
135.686
  0
LINE
  8
0
 10
116.516
 20
135.686
 11
116.5
 21
136
  0
LINE
  8
0
 10
116.5
 20
136
 11
116.516
 21
136.314
  0
LINE
  8
0
 10
116.516
 20
136.314
 11
116.566
 21
136.624
  0
LINE
  8
0
 10
116.566
 20
136.624
 11
116.647
 21
136.927
  0
LINE
  8
0
 10
116.647
 20
136.927
 11
116.759
 21
137.22
  0
LINE
  8
0
 10
116.759
 20
137.22
 11
116.902
 21
137.5
  0
LINE
  8
0
 10
116.902
 20
137.5
 11
117.073
 21
137.763
  0
LINE
  8
0
 10
117.073
 20
137.763
 11
117.271
 21
138.007
  0
LINE
  8
0
 10
117.271
 20
138.007
 11
117.493
 21
138.229
  0
LINE
  8
0
 10
117.493
 20
138.229
 11
117.737
 21
138.427
  0
LINE
  8
0
 10
117.737
 20
138.427
 11
118
 21
138.598
  0
LINE
  8
0
 10
118
 20
138.598
 11
118.28
 21
138.741
  0
LINE
  8
0
 10
118.28
 20
138.741
 11
118.573
 21
138.853
  0
LINE
  8
0
 10
118.573
 20
138.853
 11
118.876
 21
138.934
  0
LINE
  8
0
 10
118.876
 20
138.934
 11
119.186
 21
138.984
  0
LINE
  8
0
 10
119.186
 20
138.984
 11
119.5
 21
139
  0
LINE
  8
0
 10
119.5
 20
139
 11
119.814
 21
138.984
  0
LINE
  8
0
 10
119.814
 20
138.984
 11
120.124
 21
138.934
  0
LINE
  8
0
 10
120.124
 20
138.934
 11
120.427
 21
138.853
  0
LINE
  8
0
 10
120.427
 20
138.853
 11
120.72
 21
138.741
  0
LINE
  8
0
 10
120.72
 20
138.741
 11
121
 21
138.598
  0
LINE
  8
0
 10
121
 20
138.598
 11
121.263
 21
138.427
  0
LINE
  8
0
 10
121.263
 20
138.427
 11
121.507
 21
138.229
  0
LINE
  8
0
 10
121.507
 20
138.229
 11
121.729
 21
138.007
  0
LINE
  8
0
 10
121.729
 20
138.007
 11
121.927
 21
137.763
  0
LINE
  8
0
 10
121.927
 20
137.763
 11
122.098
 21
137.5
  0
LINE
  8
0
 10
122.098
 20
137.5
 11
122.241
 21
137.22
  0
LINE
  8
0
 10
122.241
 20
137.22
 11
122.353
 21
136.927
  0
LINE
  8
0
 10
122.353
 20
136.927
 11
122.434
 21
136.624
  0
LINE
  8
0
 10
122.434
 20
136.624
 11
122.484
 21
136.314
  0
LINE
  8
0
 10
122.484
 20
136.314
 11
122.5
 21
136
  0
LINE
  8
0
 10
122.5
 20
136
 11
122.484
 21
135.686
  0
LINE
  8
0
 10
122.484
 20
135.686
 11
122.434
 21
135.376
  0
LINE
  8
0
 10
122.434
 20
135.376
 11
122.353
 21
135.073
  0
LINE
  8
0
 10
122.353
 20
135.073
 11
122.241
 21
134.78
  0
LINE
  8
0
 10
122.241
 20
134.78
 11
122.098
 21
134.5
  0
LINE
  8
0
 10
122.098
 20
134.5
 11
121.927
 21
134.237
  0
LINE
  8
0
 10
121.927
 20
134.237
 11
121.729
 21
133.993
  0
LINE
  8
0
 10
121.729
 20
133.993
 11
121.507
 21
133.771
  0
LINE
  8
0
 10
121.507
 20
133.771
 11
121.263
 21
133.573
  0
LINE
  8
0
 10
121.263
 20
133.573
 11
121
 21
133.402
  0
LINE
  8
0
 10
121
 20
133.402
 11
120.72
 21
133.259
  0
LINE
  8
0
 10
120.72
 20
133.259
 11
120.427
 21
133.147
  0
LINE
  8
0
 10
120.427
 20
133.147
 11
120.124
 21
133.066
  0
LINE
  8
0
 10
120.124
 20
133.066
 11
119.814
 21
133.016
  0
LINE
  8
0
 10
119.814
 20
133.016
 11
119.5
 21
133
  0
LINE
  8
0
 10
119.5
 20
133
 11
119.186
 21
133.016
  0
LINE
  8
0
 10
-142.566
 20
77.3138
 11
-142.81
 21
77.3551
  0
LINE
  8
0
 10
-142.81
 20
77.3551
 11
-143.047
 21
77.4234
  0
LINE
  8
0
 10
-143.047
 20
77.4234
 11
-143.275
 21
77.5179
  0
LINE
  8
0
 10
-143.275
 20
77.5179
 11
-143.49
 21
77.6372
  0
LINE
  8
0
 10
-143.49
 20
77.6372
 11
-143.692
 21
77.78
  0
LINE
  8
0
 10
-143.692
 20
77.78
 11
-143.876
 21
77.9444
  0
LINE
  8
0
 10
-143.876
 20
77.9444
 11
-144.04
 21
78.1283
  0
LINE
  8
0
 10
-144.04
 20
78.1283
 11
-144.183
 21
78.3295
  0
LINE
  8
0
 10
-144.183
 20
78.3295
 11
-144.302
 21
78.5455
  0
LINE
  8
0
 10
-144.302
 20
78.5455
 11
-144.397
 21
78.7734
  0
LINE
  8
0
 10
-144.397
 20
78.7734
 11
-144.465
 21
79.0105
  0
LINE
  8
0
 10
-144.465
 20
79.0105
 11
-144.506
 21
79.2537
  0
LINE
  8
0
 10
-144.506
 20
79.2537
 11
-144.52
 21
79.5
  0
LINE
  8
0
 10
-144.52
 20
79.5
 11
-144.506
 21
79.7463
  0
LINE
  8
0
 10
-144.506
 20
79.7463
 11
-144.465
 21
79.9895
  0
LINE
  8
0
 10
-144.465
 20
79.9895
 11
-144.397
 21
80.2266
  0
LINE
  8
0
 10
-144.397
 20
80.2266
 11
-144.302
 21
80.4545
  0
LINE
  8
0
 10
-144.302
 20
80.4545
 11
-144.183
 21
80.6705
  0
LINE
  8
0
 10
-144.183
 20
80.6705
 11
-144.04
 21
80.8717
  0
LINE
  8
0
 10
-144.04
 20
80.8717
 11
-143.876
 21
81.0556
  0
LINE
  8
0
 10
-143.876
 20
81.0556
 11
-143.692
 21
81.22
  0
LINE
  8
0
 10
-143.692
 20
81.22
 11
-143.49
 21
81.3628
  0
LINE
  8
0
 10
-143.49
 20
81.3628
 11
-143.275
 21
81.4821
  0
LINE
  8
0
 10
-143.275
 20
81.4821
 11
-143.047
 21
81.5765
  0
LINE
  8
0
 10
-143.047
 20
81.5765
 11
-142.81
 21
81.6448
  0
LINE
  8
0
 10
-142.81
 20
81.6448
 11
-142.566
 21
81.6862
  0
LINE
  8
0
 10
-142.566
 20
81.6862
 11
-142.32
 21
81.7
  0
LINE
  8
0
 10
-142.32
 20
81.7
 11
-142.074
 21
81.6862
  0
LINE
  8
0
 10
-142.074
 20
81.6862
 11
-141.83
 21
81.6448
  0
LINE
  8
0
 10
-141.83
 20
81.6448
 11
-141.593
 21
81.5765
  0
LINE
  8
0
 10
-141.593
 20
81.5765
 11
-141.365
 21
81.4821
  0
LINE
  8
0
 10
-141.365
 20
81.4821
 11
-141.15
 21
81.3628
  0
LINE
  8
0
 10
-141.15
 20
81.3628
 11
-140.948
 21
81.22
  0
LINE
  8
0
 10
-140.948
 20
81.22
 11
-140.764
 21
81.0556
  0
LINE
  8
0
 10
-140.764
 20
81.0556
 11
-140.6
 21
80.8717
  0
LINE
  8
0
 10
-140.6
 20
80.8717
 11
-140.457
 21
80.6705
  0
LINE
  8
0
 10
-140.457
 20
80.6705
 11
-140.338
 21
80.4545
  0
LINE
  8
0
 10
-140.338
 20
80.4545
 11
-140.243
 21
80.2266
  0
LINE
  8
0
 10
-140.243
 20
80.2266
 11
-140.175
 21
79.9895
  0
LINE
  8
0
 10
-140.175
 20
79.9895
 11
-140.134
 21
79.7463
  0
LINE
  8
0
 10
-140.134
 20
79.7463
 11
-140.12
 21
79.5
  0
LINE
  8
0
 10
-140.12
 20
79.5
 11
-140.134
 21
79.2537
  0
LINE
  8
0
 10
-140.134
 20
79.2537
 11
-140.175
 21
79.0105
  0
LINE
  8
0
 10
-140.175
 20
79.0105
 11
-140.243
 21
78.7734
  0
LINE
  8
0
 10
-140.243
 20
78.7734
 11
-140.338
 21
78.5455
  0
LINE
  8
0
 10
-140.338
 20
78.5455
 11
-140.457
 21
78.3295
  0
LINE
  8
0
 10
-140.457
 20
78.3295
 11
-140.6
 21
78.1283
  0
LINE
  8
0
 10
-140.6
 20
78.1283
 11
-140.764
 21
77.9444
  0
LINE
  8
0
 10
-140.764
 20
77.9444
 11
-140.948
 21
77.78
  0
LINE
  8
0
 10
-140.948
 20
77.78
 11
-141.15
 21
77.6372
  0
LINE
  8
0
 10
-141.15
 20
77.6372
 11
-141.365
 21
77.5179
  0
LINE
  8
0
 10
-141.365
 20
77.5179
 11
-141.593
 21
77.4234
  0
LINE
  8
0
 10
-141.593
 20
77.4234
 11
-141.83
 21
77.3551
  0
LINE
  8
0
 10
-141.83
 20
77.3551
 11
-142.074
 21
77.3138
  0
LINE
  8
0
 10
-142.074
 20
77.3138
 11
-142.32
 21
77.3
  0
LINE
  8
0
 10
-142.32
 20
77.3
 11
-142.566
 21
77.3138
  0
LINE
  8
0
 10
-27.5663
 20
77.3138
 11
-27.8095
 21
77.3551
  0
LINE
  8
0
 10
-27.8095
 20
77.3551
 11
-28.0466
 21
77.4234
  0
LINE
  8
0
 10
-28.0466
 20
77.4234
 11
-28.2745
 21
77.5179
  0
LINE
  8
0
 10
-28.2745
 20
77.5179
 11
-28.4905
 21
77.6372
  0
LINE
  8
0
 10
-28.4905
 20
77.6372
 11
-28.6917
 21
77.78
  0
LINE
  8
0
 10
-28.6917
 20
77.78
 11
-28.8756
 21
77.9444
  0
LINE
  8
0
 10
-28.8756
 20
77.9444
 11
-29.04
 21
78.1283
  0
LINE
  8
0
 10
-29.04
 20
78.1283
 11
-29.1828
 21
78.3295
  0
LINE
  8
0
 10
-29.1828
 20
78.3295
 11
-29.3021
 21
78.5455
  0
LINE
  8
0
 10
-29.3021
 20
78.5455
 11
-29.3965
 21
78.7734
  0
LINE
  8
0
 10
-29.3965
 20
78.7734
 11
-29.4648
 21
79.0105
  0
LINE
  8
0
 10
-29.4648
 20
79.0105
 11
-29.5062
 21
79.2537
  0
LINE
  8
0
 10
-29.5062
 20
79.2537
 11
-29.52
 21
79.5
  0
LINE
  8
0
 10
-29.52
 20
79.5
 11
-29.5062
 21
79.7463
  0
LINE
  8
0
 10
-29.5062
 20
79.7463
 11
-29.4648
 21
79.9895
  0
LINE
  8
0
 10
-29.4648
 20
79.9895
 11
-29.3965
 21
80.2266
  0
LINE
  8
0
 10
-29.3965
 20
80.2266
 11
-29.3021
 21
80.4545
  0
LINE
  8
0
 10
-29.3021
 20
80.4545
 11
-29.1828
 21
80.6705
  0
LINE
  8
0
 10
-29.1828
 20
80.6705
 11
-29.04
 21
80.8717
  0
LINE
  8
0
 10
-29.04
 20
80.8717
 11
-28.8756
 21
81.0556
  0
LINE
  8
0
 10
-28.8756
 20
81.0556
 11
-28.6917
 21
81.22
  0
LINE
  8
0
 10
-28.6917
 20
81.22
 11
-28.4905
 21
81.3628
  0
LINE
  8
0
 10
-28.4905
 20
81.3628
 11
-28.2745
 21
81.4821
  0
LINE
  8
0
 10
-28.2745
 20
81.4821
 11
-28.0466
 21
81.5765
  0
LINE
  8
0
 10
-28.0466
 20
81.5765
 11
-27.8095
 21
81.6448
  0
LINE
  8
0
 10
-27.8095
 20
81.6448
 11
-27.5663
 21
81.6862
  0
LINE
  8
0
 10
-27.5663
 20
81.6862
 11
-27.32
 21
81.7
  0
LINE
  8
0
 10
-27.32
 20
81.7
 11
-27.0737
 21
81.6862
  0
LINE
  8
0
 10
-27.0737
 20
81.6862
 11
-26.8304
 21
81.6448
  0
LINE
  8
0
 10
-26.8304
 20
81.6448
 11
-26.5934
 21
81.5765
  0
LINE
  8
0
 10
-26.5934
 20
81.5765
 11
-26.3654
 21
81.4821
  0
LINE
  8
0
 10
-26.3654
 20
81.4821
 11
-26.1495
 21
81.3628
  0
LINE
  8
0
 10
-26.1495
 20
81.3628
 11
-25.9483
 21
81.22
  0
LINE
  8
0
 10
-25.9483
 20
81.22
 11
-25.7644
 21
81.0556
  0
LINE
  8
0
 10
-25.7644
 20
81.0556
 11
-25.6
 21
80.8717
  0
LINE
  8
0
 10
-25.6
 20
80.8717
 11
-25.4572
 21
80.6705
  0
LINE
  8
0
 10
-25.4572
 20
80.6705
 11
-25.3379
 21
80.4545
  0
LINE
  8
0
 10
-25.3379
 20
80.4545
 11
-25.2435
 21
80.2266
  0
LINE
  8
0
 10
-25.2435
 20
80.2266
 11
-25.1752
 21
79.9895
  0
LINE
  8
0
 10
-25.1752
 20
79.9895
 11
-25.1338
 21
79.7463
  0
LINE
  8
0
 10
-25.1338
 20
79.7463
 11
-25.12
 21
79.5
  0
LINE
  8
0
 10
-25.12
 20
79.5
 11
-25.1338
 21
79.2537
  0
LINE
  8
0
 10
-25.1338
 20
79.2537
 11
-25.1752
 21
79.0105
  0
LINE
  8
0
 10
-25.1752
 20
79.0105
 11
-25.2435
 21
78.7734
  0
LINE
  8
0
 10
-25.2435
 20
78.7734
 11
-25.3379
 21
78.5455
  0
LINE
  8
0
 10
-25.3379
 20
78.5455
 11
-25.4572
 21
78.3295
  0
LINE
  8
0
 10
-25.4572
 20
78.3295
 11
-25.6
 21
78.1283
  0
LINE
  8
0
 10
-25.6
 20
78.1283
 11
-25.7644
 21
77.9444
  0
LINE
  8
0
 10
-25.7644
 20
77.9444
 11
-25.9483
 21
77.78
  0
LINE
  8
0
 10
-25.9483
 20
77.78
 11
-26.1495
 21
77.6372
  0
LINE
  8
0
 10
-26.1495
 20
77.6372
 11
-26.3654
 21
77.5179
  0
LINE
  8
0
 10
-26.3654
 20
77.5179
 11
-26.5934
 21
77.4234
  0
LINE
  8
0
 10
-26.5934
 20
77.4234
 11
-26.8304
 21
77.3551
  0
LINE
  8
0
 10
-26.8304
 20
77.3551
 11
-27.0737
 21
77.3138
  0
LINE
  8
0
 10
-27.0737
 20
77.3138
 11
-27.32
 21
77.3
  0
LINE
  8
0
 10
-27.32
 20
77.3
 11
-27.5663
 21
77.3138
  0
LINE
  8
0
 10
-27.5663
 20
59.3138
 11
-27.8095
 21
59.3551
  0
LINE
  8
0
 10
-27.8095
 20
59.3551
 11
-28.0466
 21
59.4234
  0
LINE
  8
0
 10
-28.0466
 20
59.4234
 11
-28.2745
 21
59.5179
  0
LINE
  8
0
 10
-28.2745
 20
59.5179
 11
-28.4905
 21
59.6372
  0
LINE
  8
0
 10
-28.4905
 20
59.6372
 11
-28.6917
 21
59.78
  0
LINE
  8
0
 10
-28.6917
 20
59.78
 11
-28.8756
 21
59.9444
  0
LINE
  8
0
 10
-28.8756
 20
59.9444
 11
-29.04
 21
60.1283
  0
LINE
  8
0
 10
-29.04
 20
60.1283
 11
-29.1828
 21
60.3295
  0
LINE
  8
0
 10
-29.1828
 20
60.3295
 11
-29.3021
 21
60.5455
  0
LINE
  8
0
 10
-29.3021
 20
60.5455
 11
-29.3965
 21
60.7734
  0
LINE
  8
0
 10
-29.3965
 20
60.7734
 11
-29.4648
 21
61.0105
  0
LINE
  8
0
 10
-29.4648
 20
61.0105
 11
-29.5062
 21
61.2537
  0
LINE
  8
0
 10
-29.5062
 20
61.2537
 11
-29.52
 21
61.5
  0
LINE
  8
0
 10
-29.52
 20
61.5
 11
-29.5062
 21
61.7463
  0
LINE
  8
0
 10
-29.5062
 20
61.7463
 11
-29.4648
 21
61.9895
  0
LINE
  8
0
 10
-29.4648
 20
61.9895
 11
-29.3965
 21
62.2266
  0
LINE
  8
0
 10
-29.3965
 20
62.2266
 11
-29.3021
 21
62.4545
  0
LINE
  8
0
 10
-29.3021
 20
62.4545
 11
-29.1828
 21
62.6705
  0
LINE
  8
0
 10
-29.1828
 20
62.6705
 11
-29.04
 21
62.8717
  0
LINE
  8
0
 10
-29.04
 20
62.8717
 11
-28.8756
 21
63.0556
  0
LINE
  8
0
 10
-28.8756
 20
63.0556
 11
-28.6917
 21
63.22
  0
LINE
  8
0
 10
-28.6917
 20
63.22
 11
-28.4905
 21
63.3628
  0
LINE
  8
0
 10
-28.4905
 20
63.3628
 11
-28.2745
 21
63.4821
  0
LINE
  8
0
 10
-28.2745
 20
63.4821
 11
-28.0466
 21
63.5765
  0
LINE
  8
0
 10
-28.0466
 20
63.5765
 11
-27.8095
 21
63.6448
  0
LINE
  8
0
 10
-27.8095
 20
63.6448
 11
-27.5663
 21
63.6862
  0
LINE
  8
0
 10
-27.5663
 20
63.6862
 11
-27.32
 21
63.7
  0
LINE
  8
0
 10
-27.32
 20
63.7
 11
-27.0737
 21
63.6862
  0
LINE
  8
0
 10
-27.0737
 20
63.6862
 11
-26.8304
 21
63.6448
  0
LINE
  8
0
 10
-26.8304
 20
63.6448
 11
-26.5934
 21
63.5765
  0
LINE
  8
0
 10
-26.5934
 20
63.5765
 11
-26.3654
 21
63.4821
  0
LINE
  8
0
 10
-26.3654
 20
63.4821
 11
-26.1495
 21
63.3628
  0
LINE
  8
0
 10
-26.1495
 20
63.3628
 11
-25.9483
 21
63.22
  0
LINE
  8
0
 10
-25.9483
 20
63.22
 11
-25.7644
 21
63.0556
  0
LINE
  8
0
 10
-25.7644
 20
63.0556
 11
-25.6
 21
62.8717
  0
LINE
  8
0
 10
-25.6
 20
62.8717
 11
-25.4572
 21
62.6705
  0
LINE
  8
0
 10
-25.4572
 20
62.6705
 11
-25.3379
 21
62.4545
  0
LINE
  8
0
 10
-25.3379
 20
62.4545
 11
-25.2435
 21
62.2266
  0
LINE
  8
0
 10
-25.2435
 20
62.2266
 11
-25.1752
 21
61.9895
  0
LINE
  8
0
 10
-25.1752
 20
61.9895
 11
-25.1338
 21
61.7463
  0
LINE
  8
0
 10
-25.1338
 20
61.7463
 11
-25.12
 21
61.5
  0
LINE
  8
0
 10
-25.12
 20
61.5
 11
-25.1338
 21
61.2537
  0
LINE
  8
0
 10
-25.1338
 20
61.2537
 11
-25.1752
 21
61.0105
  0
LINE
  8
0
 10
-25.1752
 20
61.0105
 11
-25.2435
 21
60.7734
  0
LINE
  8
0
 10
-25.2435
 20
60.7734
 11
-25.3379
 21
60.5455
  0
LINE
  8
0
 10
-25.3379
 20
60.5455
 11
-25.4572
 21
60.3295
  0
LINE
  8
0
 10
-25.4572
 20
60.3295
 11
-25.6
 21
60.1283
  0
LINE
  8
0
 10
-25.6
 20
60.1283
 11
-25.7644
 21
59.9444
  0
LINE
  8
0
 10
-25.7644
 20
59.9444
 11
-25.9483
 21
59.78
  0
LINE
  8
0
 10
-25.9483
 20
59.78
 11
-26.1495
 21
59.6372
  0
LINE
  8
0
 10
-26.1495
 20
59.6372
 11
-26.3654
 21
59.5179
  0
LINE
  8
0
 10
-26.3654
 20
59.5179
 11
-26.5934
 21
59.4234
  0
LINE
  8
0
 10
-26.5934
 20
59.4234
 11
-26.8304
 21
59.3551
  0
LINE
  8
0
 10
-26.8304
 20
59.3551
 11
-27.0737
 21
59.3138
  0
LINE
  8
0
 10
-27.0737
 20
59.3138
 11
-27.32
 21
59.3
  0
LINE
  8
0
 10
-27.32
 20
59.3
 11
-27.5663
 21
59.3138
  0
LINE
  8
0
 10
-142.566
 20
59.3138
 11
-142.81
 21
59.3551
  0
LINE
  8
0
 10
-142.81
 20
59.3551
 11
-143.047
 21
59.4234
  0
LINE
  8
0
 10
-143.047
 20
59.4234
 11
-143.275
 21
59.5179
  0
LINE
  8
0
 10
-143.275
 20
59.5179
 11
-143.49
 21
59.6372
  0
LINE
  8
0
 10
-143.49
 20
59.6372
 11
-143.692
 21
59.78
  0
LINE
  8
0
 10
-143.692
 20
59.78
 11
-143.876
 21
59.9444
  0
LINE
  8
0
 10
-143.876
 20
59.9444
 11
-144.04
 21
60.1283
  0
LINE
  8
0
 10
-144.04
 20
60.1283
 11
-144.183
 21
60.3295
  0
LINE
  8
0
 10
-144.183
 20
60.3295
 11
-144.302
 21
60.5455
  0
LINE
  8
0
 10
-144.302
 20
60.5455
 11
-144.397
 21
60.7734
  0
LINE
  8
0
 10
-144.397
 20
60.7734
 11
-144.465
 21
61.0105
  0
LINE
  8
0
 10
-144.465
 20
61.0105
 11
-144.506
 21
61.2537
  0
LINE
  8
0
 10
-144.506
 20
61.2537
 11
-144.52
 21
61.5
  0
LINE
  8
0
 10
-144.52
 20
61.5
 11
-144.506
 21
61.7463
  0
LINE
  8
0
 10
-144.506
 20
61.7463
 11
-144.465
 21
61.9895
  0
LINE
  8
0
 10
-144.465
 20
61.9895
 11
-144.397
 21
62.2266
  0
LINE
  8
0
 10
-144.397
 20
62.2266
 11
-144.302
 21
62.4545
  0
LINE
  8
0
 10
-144.302
 20
62.4545
 11
-144.183
 21
62.6705
  0
LINE
  8
0
 10
-144.183
 20
62.6705
 11
-144.04
 21
62.8717
  0
LINE
  8
0
 10
-144.04
 20
62.8717
 11
-143.876
 21
63.0556
  0
LINE
  8
0
 10
-143.876
 20
63.0556
 11
-143.692
 21
63.22
  0
LINE
  8
0
 10
-143.692
 20
63.22
 11
-143.49
 21
63.3628
  0
LINE
  8
0
 10
-143.49
 20
63.3628
 11
-143.275
 21
63.4821
  0
LINE
  8
0
 10
-143.275
 20
63.4821
 11
-143.047
 21
63.5765
  0
LINE
  8
0
 10
-143.047
 20
63.5765
 11
-142.81
 21
63.6448
  0
LINE
  8
0
 10
-142.81
 20
63.6448
 11
-142.566
 21
63.6862
  0
LINE
  8
0
 10
-142.566
 20
63.6862
 11
-142.32
 21
63.7
  0
LINE
  8
0
 10
-142.32
 20
63.7
 11
-142.074
 21
63.6862
  0
LINE
  8
0
 10
-142.074
 20
63.6862
 11
-141.83
 21
63.6448
  0
LINE
  8
0
 10
-141.83
 20
63.6448
 11
-141.593
 21
63.5765
  0
LINE
  8
0
 10
-141.593
 20
63.5765
 11
-141.365
 21
63.4821
  0
LINE
  8
0
 10
-141.365
 20
63.4821
 11
-141.15
 21
63.3628
  0
LINE
  8
0
 10
-141.15
 20
63.3628
 11
-140.948
 21
63.22
  0
LINE
  8
0
 10
-140.948
 20
63.22
 11
-140.764
 21
63.0556
  0
LINE
  8
0
 10
-140.764
 20
63.0556
 11
-140.6
 21
62.8717
  0
LINE
  8
0
 10
-140.6
 20
62.8717
 11
-140.457
 21
62.6705
  0
LINE
  8
0
 10
-140.457
 20
62.6705
 11
-140.338
 21
62.4545
  0
LINE
  8
0
 10
-140.338
 20
62.4545
 11
-140.243
 21
62.2266
  0
LINE
  8
0
 10
-140.243
 20
62.2266
 11
-140.175
 21
61.9895
  0
LINE
  8
0
 10
-140.175
 20
61.9895
 11
-140.134
 21
61.7463
  0
LINE
  8
0
 10
-140.134
 20
61.7463
 11
-140.12
 21
61.5
  0
LINE
  8
0
 10
-140.12
 20
61.5
 11
-140.134
 21
61.2537
  0
LINE
  8
0
 10
-140.134
 20
61.2537
 11
-140.175
 21
61.0105
  0
LINE
  8
0
 10
-140.175
 20
61.0105
 11
-140.243
 21
60.7734
  0
LINE
  8
0
 10
-140.243
 20
60.7734
 11
-140.338
 21
60.5455
  0
LINE
  8
0
 10
-140.338
 20
60.5455
 11
-140.457
 21
60.3295
  0
LINE
  8
0
 10
-140.457
 20
60.3295
 11
-140.6
 21
60.1283
  0
LINE
  8
0
 10
-140.6
 20
60.1283
 11
-140.764
 21
59.9444
  0
LINE
  8
0
 10
-140.764
 20
59.9444
 11
-140.948
 21
59.78
  0
LINE
  8
0
 10
-140.948
 20
59.78
 11
-141.15
 21
59.6372
  0
LINE
  8
0
 10
-141.15
 20
59.6372
 11
-141.365
 21
59.5179
  0
LINE
  8
0
 10
-141.365
 20
59.5179
 11
-141.593
 21
59.4234
  0
LINE
  8
0
 10
-141.593
 20
59.4234
 11
-141.83
 21
59.3551
  0
LINE
  8
0
 10
-141.83
 20
59.3551
 11
-142.074
 21
59.3138
  0
LINE
  8
0
 10
-142.074
 20
59.3138
 11
-142.32
 21
59.3
  0
LINE
  8
0
 10
-142.32
 20
59.3
 11
-142.566
 21
59.3138
  0
LINE
  8
0
 10
-12.5663
 20
45.3138
 11
-12.8095
 21
45.3551
  0
LINE
  8
0
 10
-12.8095
 20
45.3551
 11
-13.0466
 21
45.4234
  0
LINE
  8
0
 10
-13.0466
 20
45.4234
 11
-13.2745
 21
45.5179
  0
LINE
  8
0
 10
-13.2745
 20
45.5179
 11
-13.4905
 21
45.6372
  0
LINE
  8
0
 10
-13.4905
 20
45.6372
 11
-13.6917
 21
45.78
  0
LINE
  8
0
 10
-13.6917
 20
45.78
 11
-13.8756
 21
45.9444
  0
LINE
  8
0
 10
-13.8756
 20
45.9444
 11
-14.04
 21
46.1283
  0
LINE
  8
0
 10
-14.04
 20
46.1283
 11
-14.1828
 21
46.3295
  0
LINE
  8
0
 10
-14.1828
 20
46.3295
 11
-14.3021
 21
46.5455
  0
LINE
  8
0
 10
-14.3021
 20
46.5455
 11
-14.3965
 21
46.7734
  0
LINE
  8
0
 10
-14.3965
 20
46.7734
 11
-14.4648
 21
47.0105
  0
LINE
  8
0
 10
-14.4648
 20
47.0105
 11
-14.5062
 21
47.2537
  0
LINE
  8
0
 10
-14.5062
 20
47.2537
 11
-14.52
 21
47.5
  0
LINE
  8
0
 10
-14.52
 20
47.5
 11
-14.5062
 21
47.7463
  0
LINE
  8
0
 10
-14.5062
 20
47.7463
 11
-14.4648
 21
47.9895
  0
LINE
  8
0
 10
-14.4648
 20
47.9895
 11
-14.3965
 21
48.2266
  0
LINE
  8
0
 10
-14.3965
 20
48.2266
 11
-14.3021
 21
48.4545
  0
LINE
  8
0
 10
-14.3021
 20
48.4545
 11
-14.1828
 21
48.6705
  0
LINE
  8
0
 10
-14.1828
 20
48.6705
 11
-14.04
 21
48.8717
  0
LINE
  8
0
 10
-14.04
 20
48.8717
 11
-13.8756
 21
49.0556
  0
LINE
  8
0
 10
-13.8756
 20
49.0556
 11
-13.6917
 21
49.22
  0
LINE
  8
0
 10
-13.6917
 20
49.22
 11
-13.4905
 21
49.3628
  0
LINE
  8
0
 10
-13.4905
 20
49.3628
 11
-13.2745
 21
49.4821
  0
LINE
  8
0
 10
-13.2745
 20
49.4821
 11
-13.0466
 21
49.5765
  0
LINE
  8
0
 10
-13.0466
 20
49.5765
 11
-12.8095
 21
49.6448
  0
LINE
  8
0
 10
-12.8095
 20
49.6448
 11
-12.5663
 21
49.6862
  0
LINE
  8
0
 10
-12.5663
 20
49.6862
 11
-12.32
 21
49.7
  0
LINE
  8
0
 10
-12.32
 20
49.7
 11
-12.0737
 21
49.6862
  0
LINE
  8
0
 10
-12.0737
 20
49.6862
 11
-11.8304
 21
49.6448
  0
LINE
  8
0
 10
-11.8304
 20
49.6448
 11
-11.5934
 21
49.5765
  0
LINE
  8
0
 10
-11.5934
 20
49.5765
 11
-11.3654
 21
49.4821
  0
LINE
  8
0
 10
-11.3654
 20
49.4821
 11
-11.1495
 21
49.3628
  0
LINE
  8
0
 10
-11.1495
 20
49.3628
 11
-10.9483
 21
49.22
  0
LINE
  8
0
 10
-10.9483
 20
49.22
 11
-10.7644
 21
49.0556
  0
LINE
  8
0
 10
-10.7644
 20
49.0556
 11
-10.6
 21
48.8717
  0
LINE
  8
0
 10
-10.6
 20
48.8717
 11
-10.4572
 21
48.6705
  0
LINE
  8
0
 10
-10.4572
 20
48.6705
 11
-10.3379
 21
48.4545
  0
LINE
  8
0
 10
-10.3379
 20
48.4545
 11
-10.2435
 21
48.2266
  0
LINE
  8
0
 10
-10.2435
 20
48.2266
 11
-10.1752
 21
47.9895
  0
LINE
  8
0
 10
-10.1752
 20
47.9895
 11
-10.1338
 21
47.7463
  0
LINE
  8
0
 10
-10.1338
 20
47.7463
 11
-10.12
 21
47.5
  0
LINE
  8
0
 10
-10.12
 20
47.5
 11
-10.1338
 21
47.2537
  0
LINE
  8
0
 10
-10.1338
 20
47.2537
 11
-10.1752
 21
47.0105
  0
LINE
  8
0
 10
-10.1752
 20
47.0105
 11
-10.2435
 21
46.7734
  0
LINE
  8
0
 10
-10.2435
 20
46.7734
 11
-10.3379
 21
46.5455
  0
LINE
  8
0
 10
-10.3379
 20
46.5455
 11
-10.4572
 21
46.3295
  0
LINE
  8
0
 10
-10.4572
 20
46.3295
 11
-10.6
 21
46.1283
  0
LINE
  8
0
 10
-10.6
 20
46.1283
 11
-10.7644
 21
45.9444
  0
LINE
  8
0
 10
-10.7644
 20
45.9444
 11
-10.9483
 21
45.78
  0
LINE
  8
0
 10
-10.9483
 20
45.78
 11
-11.1495
 21
45.6372
  0
LINE
  8
0
 10
-11.1495
 20
45.6372
 11
-11.3654
 21
45.5179
  0
LINE
  8
0
 10
-11.3654
 20
45.5179
 11
-11.5934
 21
45.4234
  0
LINE
  8
0
 10
-11.5934
 20
45.4234
 11
-11.8304
 21
45.3551
  0
LINE
  8
0
 10
-11.8304
 20
45.3551
 11
-12.0737
 21
45.3138
  0
LINE
  8
0
 10
-12.0737
 20
45.3138
 11
-12.32
 21
45.3
  0
LINE
  8
0
 10
-12.32
 20
45.3
 11
-12.5663
 21
45.3138
  0
LINE
  8
0
 10
-142.566
 20
45.3138
 11
-142.81
 21
45.3551
  0
LINE
  8
0
 10
-142.81
 20
45.3551
 11
-143.047
 21
45.4234
  0
LINE
  8
0
 10
-143.047
 20
45.4234
 11
-143.275
 21
45.5179
  0
LINE
  8
0
 10
-143.275
 20
45.5179
 11
-143.49
 21
45.6372
  0
LINE
  8
0
 10
-143.49
 20
45.6372
 11
-143.692
 21
45.78
  0
LINE
  8
0
 10
-143.692
 20
45.78
 11
-143.876
 21
45.9444
  0
LINE
  8
0
 10
-143.876
 20
45.9444
 11
-144.04
 21
46.1283
  0
LINE
  8
0
 10
-144.04
 20
46.1283
 11
-144.183
 21
46.3295
  0
LINE
  8
0
 10
-144.183
 20
46.3295
 11
-144.302
 21
46.5455
  0
LINE
  8
0
 10
-144.302
 20
46.5455
 11
-144.397
 21
46.7734
  0
LINE
  8
0
 10
-144.397
 20
46.7734
 11
-144.465
 21
47.0105
  0
LINE
  8
0
 10
-144.465
 20
47.0105
 11
-144.506
 21
47.2537
  0
LINE
  8
0
 10
-144.506
 20
47.2537
 11
-144.52
 21
47.5
  0
LINE
  8
0
 10
-144.52
 20
47.5
 11
-144.506
 21
47.7463
  0
LINE
  8
0
 10
-144.506
 20
47.7463
 11
-144.465
 21
47.9895
  0
LINE
  8
0
 10
-144.465
 20
47.9895
 11
-144.397
 21
48.2266
  0
LINE
  8
0
 10
-144.397
 20
48.2266
 11
-144.302
 21
48.4545
  0
LINE
  8
0
 10
-144.302
 20
48.4545
 11
-144.183
 21
48.6705
  0
LINE
  8
0
 10
-144.183
 20
48.6705
 11
-144.04
 21
48.8717
  0
LINE
  8
0
 10
-144.04
 20
48.8717
 11
-143.876
 21
49.0556
  0
LINE
  8
0
 10
-143.876
 20
49.0556
 11
-143.692
 21
49.22
  0
LINE
  8
0
 10
-143.692
 20
49.22
 11
-143.49
 21
49.3628
  0
LINE
  8
0
 10
-143.49
 20
49.3628
 11
-143.275
 21
49.4821
  0
LINE
  8
0
 10
-143.275
 20
49.4821
 11
-143.047
 21
49.5765
  0
LINE
  8
0
 10
-143.047
 20
49.5765
 11
-142.81
 21
49.6448
  0
LINE
  8
0
 10
-142.81
 20
49.6448
 11
-142.566
 21
49.6862
  0
LINE
  8
0
 10
-142.566
 20
49.6862
 11
-142.32
 21
49.7
  0
LINE
  8
0
 10
-142.32
 20
49.7
 11
-142.074
 21
49.6862
  0
LINE
  8
0
 10
-142.074
 20
49.6862
 11
-141.83
 21
49.6448
  0
LINE
  8
0
 10
-141.83
 20
49.6448
 11
-141.593
 21
49.5765
  0
LINE
  8
0
 10
-141.593
 20
49.5765
 11
-141.365
 21
49.4821
  0
LINE
  8
0
 10
-141.365
 20
49.4821
 11
-141.15
 21
49.3628
  0
LINE
  8
0
 10
-141.15
 20
49.3628
 11
-140.948
 21
49.22
  0
LINE
  8
0
 10
-140.948
 20
49.22
 11
-140.764
 21
49.0556
  0
LINE
  8
0
 10
-140.764
 20
49.0556
 11
-140.6
 21
48.8717
  0
LINE
  8
0
 10
-140.6
 20
48.8717
 11
-140.457
 21
48.6705
  0
LINE
  8
0
 10
-140.457
 20
48.6705
 11
-140.338
 21
48.4545
  0
LINE
  8
0
 10
-140.338
 20
48.4545
 11
-140.243
 21
48.2266
  0
LINE
  8
0
 10
-140.243
 20
48.2266
 11
-140.175
 21
47.9895
  0
LINE
  8
0
 10
-140.175
 20
47.9895
 11
-140.134
 21
47.7463
  0
LINE
  8
0
 10
-140.134
 20
47.7463
 11
-140.12
 21
47.5
  0
LINE
  8
0
 10
-140.12
 20
47.5
 11
-140.134
 21
47.2537
  0
LINE
  8
0
 10
-140.134
 20
47.2537
 11
-140.175
 21
47.0105
  0
LINE
  8
0
 10
-140.175
 20
47.0105
 11
-140.243
 21
46.7734
  0
LINE
  8
0
 10
-140.243
 20
46.7734
 11
-140.338
 21
46.5455
  0
LINE
  8
0
 10
-140.338
 20
46.5455
 11
-140.457
 21
46.3295
  0
LINE
  8
0
 10
-140.457
 20
46.3295
 11
-140.6
 21
46.1283
  0
LINE
  8
0
 10
-140.6
 20
46.1283
 11
-140.764
 21
45.9444
  0
LINE
  8
0
 10
-140.764
 20
45.9444
 11
-140.948
 21
45.78
  0
LINE
  8
0
 10
-140.948
 20
45.78
 11
-141.15
 21
45.6372
  0
LINE
  8
0
 10
-141.15
 20
45.6372
 11
-141.365
 21
45.5179
  0
LINE
  8
0
 10
-141.365
 20
45.5179
 11
-141.593
 21
45.4234
  0
LINE
  8
0
 10
-141.593
 20
45.4234
 11
-141.83
 21
45.3551
  0
LINE
  8
0
 10
-141.83
 20
45.3551
 11
-142.074
 21
45.3138
  0
LINE
  8
0
 10
-142.074
 20
45.3138
 11
-142.32
 21
45.3
  0
LINE
  8
0
 10
-142.32
 20
45.3
 11
-142.566
 21
45.3138
  0
LINE
  8
0
 10
-220.186
 20
44.3816
 11
-220.43
 21
44.4267
  0
LINE
  8
0
 10
-220.43
 20
44.4267
 11
-220.665
 21
44.5068
  0
LINE
  8
0
 10
-220.665
 20
44.5068
 11
-220.886
 21
44.6203
  0
LINE
  8
0
 10
-220.886
 20
44.6203
 11
-221.087
 21
44.7647
  0
LINE
  8
0
 10
-221.087
 20
44.7647
 11
-221.266
 21
44.937
  0
LINE
  8
0
 10
-221.266
 20
44.937
 11
-221.418
 21
45.1334
  0
LINE
  8
0
 10
-221.418
 20
45.1334
 11
-221.539
 21
45.3499
  0
LINE
  8
0
 10
-221.539
 20
45.3499
 11
-221.628
 21
45.5816
  0
LINE
  8
0
 10
-221.628
 20
45.5816
 11
-221.682
 21
45.8239
  0
LINE
  8
0
 10
-221.682
 20
45.8239
 11
-221.7
 21
46.0714
  0
LINE
  8
0
 10
-221.7
 20
46.0714
 11
-221.682
 21
46.3189
  0
LINE
  8
0
 10
-221.682
 20
46.3189
 11
-221.628
 21
46.5612
  0
LINE
  8
0
 10
-221.628
 20
46.5612
 11
-221.539
 21
46.793
  0
LINE
  8
0
 10
-221.539
 20
46.793
 11
-221.418
 21
47.0094
  0
LINE
  8
0
 10
-221.418
 20
47.0094
 11
-221.266
 21
47.2059
  0
LINE
  8
0
 10
-221.266
 20
47.2059
 11
-221.087
 21
47.3781
  0
LINE
  8
0
 10
-221.087
 20
47.3781
 11
-220.886
 21
47.5225
  0
LINE
  8
0
 10
-220.886
 20
47.5225
 11
-220.665
 21
47.636
  0
LINE
  8
0
 10
-220.665
 20
47.636
 11
-220.43
 21
47.7161
  0
LINE
  8
0
 10
-220.43
 20
47.7161
 11
-220.186
 21
47.7612
  0
LINE
  8
0
 10
-220.186
 20
47.7612
 11
-219.938
 21
47.7703
  0
LINE
  8
0
 10
-219.938
 20
47.7703
 11
-219.691
 21
47.7431
  0
LINE
  8
0
 10
-219.691
 20
47.7431
 11
-219.451
 21
47.6804
  0
LINE
  8
0
 10
-219.451
 20
47.6804
 11
-219.223
 21
47.5833
  0
LINE
  8
0
 10
-219.223
 20
47.5833
 11
-219.011
 21
47.454
  0
LINE
  8
0
 10
-219.011
 20
47.454
 11
-218.82
 21
47.2953
  0
LINE
  8
0
 10
-218.82
 20
47.2953
 11
-218.654
 21
47.1104
  0
LINE
  8
0
 10
-218.654
 20
47.1104
 11
-218.518
 21
46.9034
  0
LINE
  8
0
 10
-218.518
 20
46.9034
 11
-218.412
 21
46.6787
  0
LINE
  8
0
 10
-218.412
 20
46.6787
 11
-218.341
 21
46.4411
  0
LINE
  8
0
 10
-218.341
 20
46.4411
 11
-218.305
 21
46.1955
  0
LINE
  8
0
 10
-218.305
 20
46.1955
 11
-218.305
 21
45.9473
  0
LINE
  8
0
 10
-218.305
 20
45.9473
 11
-218.341
 21
45.7018
  0
LINE
  8
0
 10
-218.341
 20
45.7018
 11
-218.412
 21
45.4641
  0
LINE
  8
0
 10
-218.412
 20
45.4641
 11
-218.518
 21
45.2394
  0
LINE
  8
0
 10
-218.518
 20
45.2394
 11
-218.654
 21
45.0324
  0
LINE
  8
0
 10
-218.654
 20
45.0324
 11
-218.82
 21
44.8476
  0
LINE
  8
0
 10
-218.82
 20
44.8476
 11
-219.011
 21
44.6888
  0
LINE
  8
0
 10
-219.011
 20
44.6888
 11
-219.223
 21
44.5595
  0
LINE
  8
0
 10
-219.223
 20
44.5595
 11
-219.451
 21
44.4625
  0
LINE
  8
0
 10
-219.451
 20
44.4625
 11
-219.691
 21
44.3997
  0
LINE
  8
0
 10
-219.691
 20
44.3997
 11
-219.938
 21
44.3726
  0
LINE
  8
0
 10
-219.938
 20
44.3726
 11
-220.186
 21
44.3816
  0
LINE
  8
0
 10
219.691
 20
44.3997
 11
219.451
 21
44.4625
  0
LINE
  8
0
 10
219.451
 20
44.4625
 11
219.223
 21
44.5595
  0
LINE
  8
0
 10
219.223
 20
44.5595
 11
219.011
 21
44.6888
  0
LINE
  8
0
 10
219.011
 20
44.6888
 11
218.82
 21
44.8476
  0
LINE
  8
0
 10
218.82
 20
44.8476
 11
218.654
 21
45.0324
  0
LINE
  8
0
 10
218.654
 20
45.0324
 11
218.518
 21
45.2394
  0
LINE
  8
0
 10
218.518
 20
45.2394
 11
218.412
 21
45.4641
  0
LINE
  8
0
 10
218.412
 20
45.4641
 11
218.341
 21
45.7018
  0
LINE
  8
0
 10
218.341
 20
45.7018
 11
218.305
 21
45.9473
  0
LINE
  8
0
 10
218.305
 20
45.9473
 11
218.305
 21
46.1955
  0
LINE
  8
0
 10
218.305
 20
46.1955
 11
218.341
 21
46.4411
  0
LINE
  8
0
 10
218.341
 20
46.4411
 11
218.412
 21
46.6787
  0
LINE
  8
0
 10
218.412
 20
46.6787
 11
218.518
 21
46.9034
  0
LINE
  8
0
 10
218.518
 20
46.9034
 11
218.654
 21
47.1104
  0
LINE
  8
0
 10
218.654
 20
47.1104
 11
218.82
 21
47.2953
  0
LINE
  8
0
 10
218.82
 20
47.2953
 11
219.011
 21
47.454
  0
LINE
  8
0
 10
219.011
 20
47.454
 11
219.223
 21
47.5833
  0
LINE
  8
0
 10
219.223
 20
47.5833
 11
219.451
 21
47.6804
  0
LINE
  8
0
 10
219.451
 20
47.6804
 11
219.691
 21
47.7431
  0
LINE
  8
0
 10
219.691
 20
47.7431
 11
219.938
 21
47.7703
  0
LINE
  8
0
 10
219.938
 20
47.7703
 11
220.186
 21
47.7612
  0
LINE
  8
0
 10
220.186
 20
47.7612
 11
220.43
 21
47.7161
  0
LINE
  8
0
 10
220.43
 20
47.7161
 11
220.665
 21
47.636
  0
LINE
  8
0
 10
220.665
 20
47.636
 11
220.886
 21
47.5225
  0
LINE
  8
0
 10
220.886
 20
47.5225
 11
221.087
 21
47.3781
  0
LINE
  8
0
 10
221.087
 20
47.3781
 11
221.266
 21
47.2059
  0
LINE
  8
0
 10
221.266
 20
47.2059
 11
221.418
 21
47.0094
  0
LINE
  8
0
 10
221.418
 20
47.0094
 11
221.539
 21
46.793
  0
LINE
  8
0
 10
221.539
 20
46.793
 11
221.628
 21
46.5612
  0
LINE
  8
0
 10
221.628
 20
46.5612
 11
221.682
 21
46.3189
  0
LINE
  8
0
 10
221.682
 20
46.3189
 11
221.7
 21
46.0714
  0
LINE
  8
0
 10
221.7
 20
46.0714
 11
221.682
 21
45.8239
  0
LINE
  8
0
 10
221.682
 20
45.8239
 11
221.628
 21
45.5816
  0
LINE
  8
0
 10
221.628
 20
45.5816
 11
221.539
 21
45.3499
  0
LINE
  8
0
 10
221.539
 20
45.3499
 11
221.418
 21
45.1334
  0
LINE
  8
0
 10
221.418
 20
45.1334
 11
221.266
 21
44.937
  0
LINE
  8
0
 10
221.266
 20
44.937
 11
221.087
 21
44.7647
  0
LINE
  8
0
 10
221.087
 20
44.7647
 11
220.886
 21
44.6203
  0
LINE
  8
0
 10
220.886
 20
44.6203
 11
220.665
 21
44.5068
  0
LINE
  8
0
 10
220.665
 20
44.5068
 11
220.43
 21
44.4267
  0
LINE
  8
0
 10
220.43
 20
44.4267
 11
220.186
 21
44.3816
  0
LINE
  8
0
 10
220.186
 20
44.3816
 11
219.938
 21
44.3726
  0
LINE
  8
0
 10
219.938
 20
44.3726
 11
219.691
 21
44.3997
  0
LINE
  8
0
 10
34.1864
 20
8.01643
 11
33.8763
 21
8.06555
  0
LINE
  8
0
 10
33.8763
 20
8.06555
 11
33.5729
 21
8.14682
  0
LINE
  8
0
 10
33.5729
 20
8.14682
 11
33.2798
 21
8.25935
  0
LINE
  8
0
 10
33.2798
 20
8.25935
 11
33
 21
8.40192
  0
LINE
  8
0
 10
33
 20
8.40192
 11
32.7366
 21
8.57294
  0
LINE
  8
0
 10
32.7366
 20
8.57294
 11
32.4926
 21
8.77055
  0
LINE
  8
0
 10
32.4926
 20
8.77055
 11
32.2706
 21
8.9926
  0
LINE
  8
0
 10
32.2706
 20
8.9926
 11
32.0729
 21
9.23663
  0
LINE
  8
0
 10
32.0729
 20
9.23663
 11
31.9019
 21
9.5
  0
LINE
  8
0
 10
31.9019
 20
9.5
 11
31.7594
 21
9.77979
  0
LINE
  8
0
 10
31.7594
 20
9.77979
 11
31.6468
 21
10.0729
  0
LINE
  8
0
 10
31.6468
 20
10.0729
 11
31.5656
 21
10.3763
  0
LINE
  8
0
 10
31.5656
 20
10.3763
 11
31.5164
 21
10.6864
  0
LINE
  8
0
 10
31.5164
 20
10.6864
 11
31.5
 21
11
  0
LINE
  8
0
 10
31.5
 20
11
 11
31.5164
 21
11.3136
  0
LINE
  8
0
 10
31.5164
 20
11.3136
 11
31.5656
 21
11.6237
  0
LINE
  8
0
 10
31.5656
 20
11.6237
 11
31.6468
 21
11.927
  0
LINE
  8
0
 10
31.6468
 20
11.927
 11
31.7594
 21
12.2202
  0
LINE
  8
0
 10
31.7594
 20
12.2202
 11
31.9019
 21
12.5
  0
LINE
  8
0
 10
31.9019
 20
12.5
 11
32.0729
 21
12.7634
  0
LINE
  8
0
 10
32.0729
 20
12.7634
 11
32.2706
 21
13.0074
  0
LINE
  8
0
 10
32.2706
 20
13.0074
 11
32.4926
 21
13.2294
  0
LINE
  8
0
 10
32.4926
 20
13.2294
 11
32.7366
 21
13.427
  0
LINE
  8
0
 10
32.7366
 20
13.427
 11
33
 21
13.5981
  0
LINE
  8
0
 10
33
 20
13.5981
 11
33.2798
 21
13.7406
  0
LINE
  8
0
 10
33.2798
 20
13.7406
 11
33.5729
 21
13.8532
  0
LINE
  8
0
 10
33.5729
 20
13.8532
 11
33.8763
 21
13.9344
  0
LINE
  8
0
 10
33.8763
 20
13.9344
 11
34.1864
 21
13.9836
  0
LINE
  8
0
 10
34.1864
 20
13.9836
 11
34.5
 21
14
  0
LINE
  8
0
 10
34.5
 20
14
 11
34.8136
 21
13.9836
  0
LINE
  8
0
 10
34.8136
 20
13.9836
 11
35.1237
 21
13.9344
  0
LINE
  8
0
 10
35.1237
 20
13.9344
 11
35.427
 21
13.8532
  0
LINE
  8
0
 10
35.427
 20
13.8532
 11
35.7202
 21
13.7406
  0
LINE
  8
0
 10
35.7202
 20
13.7406
 11
36
 21
13.5981
  0
LINE
  8
0
 10
36
 20
13.5981
 11
36.2634
 21
13.427
  0
LINE
  8
0
 10
36.2634
 20
13.427
 11
36.5074
 21
13.2294
  0
LINE
  8
0
 10
36.5074
 20
13.2294
 11
36.7294
 21
13.0074
  0
LINE
  8
0
 10
36.7294
 20
13.0074
 11
36.927
 21
12.7634
  0
LINE
  8
0
 10
36.927
 20
12.7634
 11
37.0981
 21
12.5
  0
LINE
  8
0
 10
37.0981
 20
12.5
 11
37.2406
 21
12.2202
  0
LINE
  8
0
 10
37.2406
 20
12.2202
 11
37.3532
 21
11.927
  0
LINE
  8
0
 10
37.3532
 20
11.927
 11
37.4344
 21
11.6237
  0
LINE
  8
0
 10
37.4344
 20
11.6237
 11
37.4836
 21
11.3136
  0
LINE
  8
0
 10
37.4836
 20
11.3136
 11
37.5
 21
11
  0
LINE
  8
0
 10
37.5
 20
11
 11
37.4836
 21
10.6864
  0
LINE
  8
0
 10
37.4836
 20
10.6864
 11
37.4344
 21
10.3763
  0
LINE
  8
0
 10
37.4344
 20
10.3763
 11
37.3532
 21
10.0729
  0
LINE
  8
0
 10
37.3532
 20
10.0729
 11
37.2406
 21
9.77979
  0
LINE
  8
0
 10
37.2406
 20
9.77979
 11
37.0981
 21
9.5
  0
LINE
  8
0
 10
37.0981
 20
9.5
 11
36.927
 21
9.23663
  0
LINE
  8
0
 10
36.927
 20
9.23663
 11
36.7294
 21
8.9926
  0
LINE
  8
0
 10
36.7294
 20
8.9926
 11
36.5074
 21
8.77055
  0
LINE
  8
0
 10
36.5074
 20
8.77055
 11
36.2634
 21
8.57294
  0
LINE
  8
0
 10
36.2634
 20
8.57294
 11
36
 21
8.40192
  0
LINE
  8
0
 10
36
 20
8.40192
 11
35.7202
 21
8.25935
  0
LINE
  8
0
 10
35.7202
 20
8.25935
 11
35.427
 21
8.14682
  0
LINE
  8
0
 10
35.427
 20
8.14682
 11
35.1237
 21
8.06555
  0
LINE
  8
0
 10
35.1237
 20
8.06555
 11
34.8136
 21
8.01643
  0
LINE
  8
0
 10
34.8136
 20
8.01643
 11
34.5
 21
8
  0
LINE
  8
0
 10
34.5
 20
8
 11
34.1864
 21
8.01643
  0
LINE
  8
0
 10
119.186
 20
8.01643
 11
118.876
 21
8.06555
  0
LINE
  8
0
 10
118.876
 20
8.06555
 11
118.573
 21
8.14682
  0
LINE
  8
0
 10
118.573
 20
8.14682
 11
118.28
 21
8.25935
  0
LINE
  8
0
 10
118.28
 20
8.25935
 11
118
 21
8.40192
  0
LINE
  8
0
 10
118
 20
8.40192
 11
117.737
 21
8.57294
  0
LINE
  8
0
 10
117.737
 20
8.57294
 11
117.493
 21
8.77055
  0
LINE
  8
0
 10
117.493
 20
8.77055
 11
117.271
 21
8.9926
  0
LINE
  8
0
 10
117.271
 20
8.9926
 11
117.073
 21
9.23663
  0
LINE
  8
0
 10
117.073
 20
9.23663
 11
116.902
 21
9.5
  0
LINE
  8
0
 10
116.902
 20
9.5
 11
116.759
 21
9.77979
  0
LINE
  8
0
 10
116.759
 20
9.77979
 11
116.647
 21
10.0729
  0
LINE
  8
0
 10
116.647
 20
10.0729
 11
116.566
 21
10.3763
  0
LINE
  8
0
 10
116.566
 20
10.3763
 11
116.516
 21
10.6864
  0
LINE
  8
0
 10
116.516
 20
10.6864
 11
116.5
 21
11
  0
LINE
  8
0
 10
116.5
 20
11
 11
116.516
 21
11.3136
  0
LINE
  8
0
 10
116.516
 20
11.3136
 11
116.566
 21
11.6237
  0
LINE
  8
0
 10
116.566
 20
11.6237
 11
116.647
 21
11.927
  0
LINE
  8
0
 10
116.647
 20
11.927
 11
116.759
 21
12.2202
  0
LINE
  8
0
 10
116.759
 20
12.2202
 11
116.902
 21
12.5
  0
LINE
  8
0
 10
116.902
 20
12.5
 11
117.073
 21
12.7634
  0
LINE
  8
0
 10
117.073
 20
12.7634
 11
117.271
 21
13.0074
  0
LINE
  8
0
 10
117.271
 20
13.0074
 11
117.493
 21
13.2294
  0
LINE
  8
0
 10
117.493
 20
13.2294
 11
117.737
 21
13.427
  0
LINE
  8
0
 10
117.737
 20
13.427
 11
118
 21
13.5981
  0
LINE
  8
0
 10
118
 20
13.5981
 11
118.28
 21
13.7406
  0
LINE
  8
0
 10
118.28
 20
13.7406
 11
118.573
 21
13.8532
  0
LINE
  8
0
 10
118.573
 20
13.8532
 11
118.876
 21
13.9344
  0
LINE
  8
0
 10
118.876
 20
13.9344
 11
119.186
 21
13.9836
  0
LINE
  8
0
 10
119.186
 20
13.9836
 11
119.5
 21
14
  0
LINE
  8
0
 10
119.5
 20
14
 11
119.814
 21
13.9836
  0
LINE
  8
0
 10
119.814
 20
13.9836
 11
120.124
 21
13.9344
  0
LINE
  8
0
 10
120.124
 20
13.9344
 11
120.427
 21
13.8532
  0
LINE
  8
0
 10
120.427
 20
13.8532
 11
120.72
 21
13.7406
  0
LINE
  8
0
 10
120.72
 20
13.7406
 11
121
 21
13.5981
  0
LINE
  8
0
 10
121
 20
13.5981
 11
121.263
 21
13.427
  0
LINE
  8
0
 10
121.263
 20
13.427
 11
121.507
 21
13.2294
  0
LINE
  8
0
 10
121.507
 20
13.2294
 11
121.729
 21
13.0074
  0
LINE
  8
0
 10
121.729
 20
13.0074
 11
121.927
 21
12.7634
  0
LINE
  8
0
 10
121.927
 20
12.7634
 11
122.098
 21
12.5
  0
LINE
  8
0
 10
122.098
 20
12.5
 11
122.241
 21
12.2202
  0
LINE
  8
0
 10
122.241
 20
12.2202
 11
122.353
 21
11.927
  0
LINE
  8
0
 10
122.353
 20
11.927
 11
122.434
 21
11.6237
  0
LINE
  8
0
 10
122.434
 20
11.6237
 11
122.484
 21
11.3136
  0
LINE
  8
0
 10
122.484
 20
11.3136
 11
122.5
 21
11
  0
LINE
  8
0
 10
122.5
 20
11
 11
122.484
 21
10.6864
  0
LINE
  8
0
 10
122.484
 20
10.6864
 11
122.434
 21
10.3763
  0
LINE
  8
0
 10
122.434
 20
10.3763
 11
122.353
 21
10.0729
  0
LINE
  8
0
 10
122.353
 20
10.0729
 11
122.241
 21
9.77979
  0
LINE
  8
0
 10
122.241
 20
9.77979
 11
122.098
 21
9.5
  0
LINE
  8
0
 10
122.098
 20
9.5
 11
121.927
 21
9.23663
  0
LINE
  8
0
 10
121.927
 20
9.23663
 11
121.729
 21
8.9926
  0
LINE
  8
0
 10
121.729
 20
8.9926
 11
121.507
 21
8.77055
  0
LINE
  8
0
 10
121.507
 20
8.77055
 11
121.263
 21
8.57294
  0
LINE
  8
0
 10
121.263
 20
8.57294
 11
121
 21
8.40192
  0
LINE
  8
0
 10
121
 20
8.40192
 11
120.72
 21
8.25935
  0
LINE
  8
0
 10
120.72
 20
8.25935
 11
120.427
 21
8.14682
  0
LINE
  8
0
 10
120.427
 20
8.14682
 11
120.124
 21
8.06555
  0
LINE
  8
0
 10
120.124
 20
8.06555
 11
119.814
 21
8.01643
  0
LINE
  8
0
 10
119.814
 20
8.01643
 11
119.5
 21
8
  0
LINE
  8
0
 10
119.5
 20
8
 11
119.186
 21
8.01643
  0
LINE
  8
0
 10
-142.566
 20
-32.6862
 11
-142.81
 21
-32.6448
  0
LINE
  8
0
 10
-142.81
 20
-32.6448
 11
-143.047
 21
-32.5765
  0
LINE
  8
0
 10
-143.047
 20
-32.5765
 11
-143.275
 21
-32.4821
  0
LINE
  8
0
 10
-143.275
 20
-32.4821
 11
-143.49
 21
-32.3628
  0
LINE
  8
0
 10
-143.49
 20
-32.3628
 11
-143.692
 21
-32.22
  0
LINE
  8
0
 10
-143.692
 20
-32.22
 11
-143.876
 21
-32.0556
  0
LINE
  8
0
 10
-143.876
 20
-32.0556
 11
-144.04
 21
-31.8717
  0
LINE
  8
0
 10
-144.04
 20
-31.8717
 11
-144.183
 21
-31.6705
  0
LINE
  8
0
 10
-144.183
 20
-31.6705
 11
-144.302
 21
-31.4545
  0
LINE
  8
0
 10
-144.302
 20
-31.4545
 11
-144.397
 21
-31.2266
  0
LINE
  8
0
 10
-144.397
 20
-31.2266
 11
-144.465
 21
-30.9895
  0
LINE
  8
0
 10
-144.465
 20
-30.9895
 11
-144.506
 21
-30.7463
  0
LINE
  8
0
 10
-144.506
 20
-30.7463
 11
-144.52
 21
-30.5
  0
LINE
  8
0
 10
-144.52
 20
-30.5
 11
-144.506
 21
-30.2537
  0
LINE
  8
0
 10
-144.506
 20
-30.2537
 11
-144.465
 21
-30.0105
  0
LINE
  8
0
 10
-144.465
 20
-30.0105
 11
-144.397
 21
-29.7734
  0
LINE
  8
0
 10
-144.397
 20
-29.7734
 11
-144.302
 21
-29.5455
  0
LINE
  8
0
 10
-144.302
 20
-29.5455
 11
-144.183
 21
-29.3295
  0
LINE
  8
0
 10
-144.183
 20
-29.3295
 11
-144.04
 21
-29.1283
  0
LINE
  8
0
 10
-144.04
 20
-29.1283
 11
-143.876
 21
-28.9444
  0
LINE
  8
0
 10
-143.876
 20
-28.9444
 11
-143.692
 21
-28.78
  0
LINE
  8
0
 10
-143.692
 20
-28.78
 11
-143.49
 21
-28.6372
  0
LINE
  8
0
 10
-143.49
 20
-28.6372
 11
-143.275
 21
-28.5179
  0
LINE
  8
0
 10
-143.275
 20
-28.5179
 11
-143.047
 21
-28.4234
  0
LINE
  8
0
 10
-143.047
 20
-28.4234
 11
-142.81
 21
-28.3551
  0
LINE
  8
0
 10
-142.81
 20
-28.3551
 11
-142.566
 21
-28.3138
  0
LINE
  8
0
 10
-142.566
 20
-28.3138
 11
-142.32
 21
-28.3
  0
LINE
  8
0
 10
-142.32
 20
-28.3
 11
-142.074
 21
-28.3138
  0
LINE
  8
0
 10
-142.074
 20
-28.3138
 11
-141.83
 21
-28.3551
  0
LINE
  8
0
 10
-141.83
 20
-28.3551
 11
-141.593
 21
-28.4234
  0
LINE
  8
0
 10
-141.593
 20
-28.4234
 11
-141.365
 21
-28.5179
  0
LINE
  8
0
 10
-141.365
 20
-28.5179
 11
-141.15
 21
-28.6372
  0
LINE
  8
0
 10
-141.15
 20
-28.6372
 11
-140.948
 21
-28.78
  0
LINE
  8
0
 10
-140.948
 20
-28.78
 11
-140.764
 21
-28.9444
  0
LINE
  8
0
 10
-140.764
 20
-28.9444
 11
-140.6
 21
-29.1283
  0
LINE
  8
0
 10
-140.6
 20
-29.1283
 11
-140.457
 21
-29.3295
  0
LINE
  8
0
 10
-140.457
 20
-29.3295
 11
-140.338
 21
-29.5455
  0
LINE
  8
0
 10
-140.338
 20
-29.5455
 11
-140.243
 21
-29.7734
  0
LINE
  8
0
 10
-140.243
 20
-29.7734
 11
-140.175
 21
-30.0105
  0
LINE
  8
0
 10
-140.175
 20
-30.0105
 11
-140.134
 21
-30.2537
  0
LINE
  8
0
 10
-140.134
 20
-30.2537
 11
-140.12
 21
-30.5
  0
LINE
  8
0
 10
-140.12
 20
-30.5
 11
-140.134
 21
-30.7463
  0
LINE
  8
0
 10
-140.134
 20
-30.7463
 11
-140.175
 21
-30.9895
  0
LINE
  8
0
 10
-140.175
 20
-30.9895
 11
-140.243
 21
-31.2266
  0
LINE
  8
0
 10
-140.243
 20
-31.2266
 11
-140.338
 21
-31.4545
  0
LINE
  8
0
 10
-140.338
 20
-31.4545
 11
-140.457
 21
-31.6705
  0
LINE
  8
0
 10
-140.457
 20
-31.6705
 11
-140.6
 21
-31.8717
  0
LINE
  8
0
 10
-140.6
 20
-31.8717
 11
-140.764
 21
-32.0556
  0
LINE
  8
0
 10
-140.764
 20
-32.0556
 11
-140.948
 21
-32.22
  0
LINE
  8
0
 10
-140.948
 20
-32.22
 11
-141.15
 21
-32.3628
  0
LINE
  8
0
 10
-141.15
 20
-32.3628
 11
-141.365
 21
-32.4821
  0
LINE
  8
0
 10
-141.365
 20
-32.4821
 11
-141.593
 21
-32.5765
  0
LINE
  8
0
 10
-141.593
 20
-32.5765
 11
-141.83
 21
-32.6448
  0
LINE
  8
0
 10
-141.83
 20
-32.6448
 11
-142.074
 21
-32.6862
  0
LINE
  8
0
 10
-142.074
 20
-32.6862
 11
-142.32
 21
-32.7
  0
LINE
  8
0
 10
-142.32
 20
-32.7
 11
-142.566
 21
-32.6862
  0
LINE
  8
0
 10
-27.5663
 20
-32.6862
 11
-27.8095
 21
-32.6448
  0
LINE
  8
0
 10
-27.8095
 20
-32.6448
 11
-28.0466
 21
-32.5765
  0
LINE
  8
0
 10
-28.0466
 20
-32.5765
 11
-28.2745
 21
-32.4821
  0
LINE
  8
0
 10
-28.2745
 20
-32.4821
 11
-28.4905
 21
-32.3628
  0
LINE
  8
0
 10
-28.4905
 20
-32.3628
 11
-28.6917
 21
-32.22
  0
LINE
  8
0
 10
-28.6917
 20
-32.22
 11
-28.8756
 21
-32.0556
  0
LINE
  8
0
 10
-28.8756
 20
-32.0556
 11
-29.04
 21
-31.8717
  0
LINE
  8
0
 10
-29.04
 20
-31.8717
 11
-29.1828
 21
-31.6705
  0
LINE
  8
0
 10
-29.1828
 20
-31.6705
 11
-29.3021
 21
-31.4545
  0
LINE
  8
0
 10
-29.3021
 20
-31.4545
 11
-29.3965
 21
-31.2266
  0
LINE
  8
0
 10
-29.3965
 20
-31.2266
 11
-29.4648
 21
-30.9895
  0
LINE
  8
0
 10
-29.4648
 20
-30.9895
 11
-29.5062
 21
-30.7463
  0
LINE
  8
0
 10
-29.5062
 20
-30.7463
 11
-29.52
 21
-30.5
  0
LINE
  8
0
 10
-29.52
 20
-30.5
 11
-29.5062
 21
-30.2537
  0
LINE
  8
0
 10
-29.5062
 20
-30.2537
 11
-29.4648
 21
-30.0105
  0
LINE
  8
0
 10
-29.4648
 20
-30.0105
 11
-29.3965
 21
-29.7734
  0
LINE
  8
0
 10
-29.3965
 20
-29.7734
 11
-29.3021
 21
-29.5455
  0
LINE
  8
0
 10
-29.3021
 20
-29.5455
 11
-29.1828
 21
-29.3295
  0
LINE
  8
0
 10
-29.1828
 20
-29.3295
 11
-29.04
 21
-29.1283
  0
LINE
  8
0
 10
-29.04
 20
-29.1283
 11
-28.8756
 21
-28.9444
  0
LINE
  8
0
 10
-28.8756
 20
-28.9444
 11
-28.6917
 21
-28.78
  0
LINE
  8
0
 10
-28.6917
 20
-28.78
 11
-28.4905
 21
-28.6372
  0
LINE
  8
0
 10
-28.4905
 20
-28.6372
 11
-28.2745
 21
-28.5179
  0
LINE
  8
0
 10
-28.2745
 20
-28.5179
 11
-28.0466
 21
-28.4234
  0
LINE
  8
0
 10
-28.0466
 20
-28.4234
 11
-27.8095
 21
-28.3551
  0
LINE
  8
0
 10
-27.8095
 20
-28.3551
 11
-27.5663
 21
-28.3138
  0
LINE
  8
0
 10
-27.5663
 20
-28.3138
 11
-27.32
 21
-28.3
  0
LINE
  8
0
 10
-27.32
 20
-28.3
 11
-27.0737
 21
-28.3138
  0
LINE
  8
0
 10
-27.0737
 20
-28.3138
 11
-26.8304
 21
-28.3551
  0
LINE
  8
0
 10
-26.8304
 20
-28.3551
 11
-26.5934
 21
-28.4234
  0
LINE
  8
0
 10
-26.5934
 20
-28.4234
 11
-26.3654
 21
-28.5179
  0
LINE
  8
0
 10
-26.3654
 20
-28.5179
 11
-26.1495
 21
-28.6372
  0
LINE
  8
0
 10
-26.1495
 20
-28.6372
 11
-25.9483
 21
-28.78
  0
LINE
  8
0
 10
-25.9483
 20
-28.78
 11
-25.7644
 21
-28.9444
  0
LINE
  8
0
 10
-25.7644
 20
-28.9444
 11
-25.6
 21
-29.1283
  0
LINE
  8
0
 10
-25.6
 20
-29.1283
 11
-25.4572
 21
-29.3295
  0
LINE
  8
0
 10
-25.4572
 20
-29.3295
 11
-25.3379
 21
-29.5455
  0
LINE
  8
0
 10
-25.3379
 20
-29.5455
 11
-25.2435
 21
-29.7734
  0
LINE
  8
0
 10
-25.2435
 20
-29.7734
 11
-25.1752
 21
-30.0105
  0
LINE
  8
0
 10
-25.1752
 20
-30.0105
 11
-25.1338
 21
-30.2537
  0
LINE
  8
0
 10
-25.1338
 20
-30.2537
 11
-25.12
 21
-30.5
  0
LINE
  8
0
 10
-25.12
 20
-30.5
 11
-25.1338
 21
-30.7463
  0
LINE
  8
0
 10
-25.1338
 20
-30.7463
 11
-25.1752
 21
-30.9895
  0
LINE
  8
0
 10
-25.1752
 20
-30.9895
 11
-25.2435
 21
-31.2266
  0
LINE
  8
0
 10
-25.2435
 20
-31.2266
 11
-25.3379
 21
-31.4545
  0
LINE
  8
0
 10
-25.3379
 20
-31.4545
 11
-25.4572
 21
-31.6705
  0
LINE
  8
0
 10
-25.4572
 20
-31.6705
 11
-25.6
 21
-31.8717
  0
LINE
  8
0
 10
-25.6
 20
-31.8717
 11
-25.7644
 21
-32.0556
  0
LINE
  8
0
 10
-25.7644
 20
-32.0556
 11
-25.9483
 21
-32.22
  0
LINE
  8
0
 10
-25.9483
 20
-32.22
 11
-26.1495
 21
-32.3628
  0
LINE
  8
0
 10
-26.1495
 20
-32.3628
 11
-26.3654
 21
-32.4821
  0
LINE
  8
0
 10
-26.3654
 20
-32.4821
 11
-26.5934
 21
-32.5765
  0
LINE
  8
0
 10
-26.5934
 20
-32.5765
 11
-26.8304
 21
-32.6448
  0
LINE
  8
0
 10
-26.8304
 20
-32.6448
 11
-27.0737
 21
-32.6862
  0
LINE
  8
0
 10
-27.0737
 20
-32.6862
 11
-27.32
 21
-32.7
  0
LINE
  8
0
 10
-27.32
 20
-32.7
 11
-27.5663
 21
-32.6862
  0
LINE
  8
0
 10
-220.186
 20
-47.7612
 11
-220.43
 21
-47.7161
  0
LINE
  8
0
 10
-220.43
 20
-47.7161
 11
-220.665
 21
-47.636
  0
LINE
  8
0
 10
-220.665
 20
-47.636
 11
-220.886
 21
-47.5225
  0
LINE
  8
0
 10
-220.886
 20
-47.5225
 11
-221.087
 21
-47.3781
  0
LINE
  8
0
 10
-221.087
 20
-47.3781
 11
-221.266
 21
-47.2059
  0
LINE
  8
0
 10
-221.266
 20
-47.2059
 11
-221.418
 21
-47.0094
  0
LINE
  8
0
 10
-221.418
 20
-47.0094
 11
-221.539
 21
-46.793
  0
LINE
  8
0
 10
-221.539
 20
-46.793
 11
-221.628
 21
-46.5612
  0
LINE
  8
0
 10
-221.628
 20
-46.5612
 11
-221.682
 21
-46.3189
  0
LINE
  8
0
 10
-221.682
 20
-46.3189
 11
-221.7
 21
-46.0714
  0
LINE
  8
0
 10
-221.7
 20
-46.0714
 11
-221.682
 21
-45.8239
  0
LINE
  8
0
 10
-221.682
 20
-45.8239
 11
-221.628
 21
-45.5816
  0
LINE
  8
0
 10
-221.628
 20
-45.5816
 11
-221.539
 21
-45.3499
  0
LINE
  8
0
 10
-221.539
 20
-45.3499
 11
-221.418
 21
-45.1334
  0
LINE
  8
0
 10
-221.418
 20
-45.1334
 11
-221.266
 21
-44.937
  0
LINE
  8
0
 10
-221.266
 20
-44.937
 11
-221.087
 21
-44.7647
  0
LINE
  8
0
 10
-221.087
 20
-44.7647
 11
-220.886
 21
-44.6203
  0
LINE
  8
0
 10
-220.886
 20
-44.6203
 11
-220.665
 21
-44.5068
  0
LINE
  8
0
 10
-220.665
 20
-44.5068
 11
-220.43
 21
-44.4267
  0
LINE
  8
0
 10
-220.43
 20
-44.4267
 11
-220.186
 21
-44.3816
  0
LINE
  8
0
 10
-220.186
 20
-44.3816
 11
-219.938
 21
-44.3726
  0
LINE
  8
0
 10
-219.938
 20
-44.3726
 11
-219.691
 21
-44.3997
  0
LINE
  8
0
 10
-219.691
 20
-44.3997
 11
-219.451
 21
-44.4625
  0
LINE
  8
0
 10
-219.451
 20
-44.4625
 11
-219.223
 21
-44.5595
  0
LINE
  8
0
 10
-219.223
 20
-44.5595
 11
-219.011
 21
-44.6888
  0
LINE
  8
0
 10
-219.011
 20
-44.6888
 11
-218.82
 21
-44.8476
  0
LINE
  8
0
 10
-218.82
 20
-44.8476
 11
-218.654
 21
-45.0324
  0
LINE
  8
0
 10
-218.654
 20
-45.0324
 11
-218.518
 21
-45.2394
  0
LINE
  8
0
 10
-218.518
 20
-45.2394
 11
-218.412
 21
-45.4641
  0
LINE
  8
0
 10
-218.412
 20
-45.4641
 11
-218.341
 21
-45.7018
  0
LINE
  8
0
 10
-218.341
 20
-45.7018
 11
-218.305
 21
-45.9473
  0
LINE
  8
0
 10
-218.305
 20
-45.9473
 11
-218.305
 21
-46.1955
  0
LINE
  8
0
 10
-218.305
 20
-46.1955
 11
-218.341
 21
-46.4411
  0
LINE
  8
0
 10
-218.341
 20
-46.4411
 11
-218.412
 21
-46.6787
  0
LINE
  8
0
 10
-218.412
 20
-46.6787
 11
-218.518
 21
-46.9034
  0
LINE
  8
0
 10
-218.518
 20
-46.9034
 11
-218.654
 21
-47.1104
  0
LINE
  8
0
 10
-218.654
 20
-47.1104
 11
-218.82
 21
-47.2953
  0
LINE
  8
0
 10
-218.82
 20
-47.2953
 11
-219.011
 21
-47.454
  0
LINE
  8
0
 10
-219.011
 20
-47.454
 11
-219.223
 21
-47.5833
  0
LINE
  8
0
 10
-219.223
 20
-47.5833
 11
-219.451
 21
-47.6804
  0
LINE
  8
0
 10
-219.451
 20
-47.6804
 11
-219.691
 21
-47.7431
  0
LINE
  8
0
 10
-219.691
 20
-47.7431
 11
-219.938
 21
-47.7703
  0
LINE
  8
0
 10
-219.938
 20
-47.7703
 11
-220.186
 21
-47.7612
  0
LINE
  8
0
 10
219.691
 20
-47.7431
 11
219.451
 21
-47.6804
  0
LINE
  8
0
 10
219.451
 20
-47.6804
 11
219.223
 21
-47.5833
  0
LINE
  8
0
 10
219.223
 20
-47.5833
 11
219.011
 21
-47.454
  0
LINE
  8
0
 10
219.011
 20
-47.454
 11
218.82
 21
-47.2953
  0
LINE
  8
0
 10
218.82
 20
-47.2953
 11
218.654
 21
-47.1104
  0
LINE
  8
0
 10
218.654
 20
-47.1104
 11
218.518
 21
-46.9034
  0
LINE
  8
0
 10
218.518
 20
-46.9034
 11
218.412
 21
-46.6787
  0
LINE
  8
0
 10
218.412
 20
-46.6787
 11
218.341
 21
-46.4411
  0
LINE
  8
0
 10
218.341
 20
-46.4411
 11
218.305
 21
-46.1955
  0
LINE
  8
0
 10
218.305
 20
-46.1955
 11
218.305
 21
-45.9473
  0
LINE
  8
0
 10
218.305
 20
-45.9473
 11
218.341
 21
-45.7018
  0
LINE
  8
0
 10
218.341
 20
-45.7018
 11
218.412
 21
-45.4641
  0
LINE
  8
0
 10
218.412
 20
-45.4641
 11
218.518
 21
-45.2394
  0
LINE
  8
0
 10
218.518
 20
-45.2394
 11
218.654
 21
-45.0324
  0
LINE
  8
0
 10
218.654
 20
-45.0324
 11
218.82
 21
-44.8476
  0
LINE
  8
0
 10
218.82
 20
-44.8476
 11
219.011
 21
-44.6888
  0
LINE
  8
0
 10
219.011
 20
-44.6888
 11
219.223
 21
-44.5595
  0
LINE
  8
0
 10
219.223
 20
-44.5595
 11
219.451
 21
-44.4625
  0
LINE
  8
0
 10
219.451
 20
-44.4625
 11
219.691
 21
-44.3997
  0
LINE
  8
0
 10
219.691
 20
-44.3997
 11
219.938
 21
-44.3726
  0
LINE
  8
0
 10
219.938
 20
-44.3726
 11
220.186
 21
-44.3816
  0
LINE
  8
0
 10
220.186
 20
-44.3816
 11
220.43
 21
-44.4267
  0
LINE
  8
0
 10
220.43
 20
-44.4267
 11
220.665
 21
-44.5068
  0
LINE
  8
0
 10
220.665
 20
-44.5068
 11
220.886
 21
-44.6203
  0
LINE
  8
0
 10
220.886
 20
-44.6203
 11
221.087
 21
-44.7647
  0
LINE
  8
0
 10
221.087
 20
-44.7647
 11
221.266
 21
-44.937
  0
LINE
  8
0
 10
221.266
 20
-44.937
 11
221.418
 21
-45.1334
  0
LINE
  8
0
 10
221.418
 20
-45.1334
 11
221.539
 21
-45.3499
  0
LINE
  8
0
 10
221.539
 20
-45.3499
 11
221.628
 21
-45.5816
  0
LINE
  8
0
 10
221.628
 20
-45.5816
 11
221.682
 21
-45.8239
  0
LINE
  8
0
 10
221.682
 20
-45.8239
 11
221.7
 21
-46.0714
  0
LINE
  8
0
 10
221.7
 20
-46.0714
 11
221.682
 21
-46.3189
  0
LINE
  8
0
 10
221.682
 20
-46.3189
 11
221.628
 21
-46.5612
  0
LINE
  8
0
 10
221.628
 20
-46.5612
 11
221.539
 21
-46.793
  0
LINE
  8
0
 10
221.539
 20
-46.793
 11
221.418
 21
-47.0094
  0
LINE
  8
0
 10
221.418
 20
-47.0094
 11
221.266
 21
-47.2059
  0
LINE
  8
0
 10
221.266
 20
-47.2059
 11
221.087
 21
-47.3781
  0
LINE
  8
0
 10
221.087
 20
-47.3781
 11
220.886
 21
-47.5225
  0
LINE
  8
0
 10
220.886
 20
-47.5225
 11
220.665
 21
-47.636
  0
LINE
  8
0
 10
220.665
 20
-47.636
 11
220.43
 21
-47.7161
  0
LINE
  8
0
 10
220.43
 20
-47.7161
 11
220.186
 21
-47.7612
  0
LINE
  8
0
 10
220.186
 20
-47.7612
 11
219.938
 21
-47.7703
  0
LINE
  8
0
 10
219.938
 20
-47.7703
 11
219.691
 21
-47.7431
  0
LINE
  8
0
 10
219.691
 20
-139.886
 11
219.451
 21
-139.823
  0
LINE
  8
0
 10
219.451
 20
-139.823
 11
219.223
 21
-139.726
  0
LINE
  8
0
 10
219.223
 20
-139.726
 11
219.011
 21
-139.597
  0
LINE
  8
0
 10
219.011
 20
-139.597
 11
218.82
 21
-139.438
  0
LINE
  8
0
 10
218.82
 20
-139.438
 11
218.654
 21
-139.253
  0
LINE
  8
0
 10
218.654
 20
-139.253
 11
218.518
 21
-139.046
  0
LINE
  8
0
 10
218.518
 20
-139.046
 11
218.412
 21
-138.822
  0
LINE
  8
0
 10
218.412
 20
-138.822
 11
218.341
 21
-138.584
  0
LINE
  8
0
 10
218.341
 20
-138.584
 11
218.305
 21
-138.338
  0
LINE
  8
0
 10
218.305
 20
-138.338
 11
218.305
 21
-138.09
  0
LINE
  8
0
 10
218.305
 20
-138.09
 11
218.341
 21
-137.845
  0
LINE
  8
0
 10
218.341
 20
-137.845
 11
218.412
 21
-137.607
  0
LINE
  8
0
 10
218.412
 20
-137.607
 11
218.518
 21
-137.382
  0
LINE
  8
0
 10
218.518
 20
-137.382
 11
218.654
 21
-137.175
  0
LINE
  8
0
 10
218.654
 20
-137.175
 11
218.82
 21
-136.99
  0
LINE
  8
0
 10
218.82
 20
-136.99
 11
219.011
 21
-136.832
  0
LINE
  8
0
 10
219.011
 20
-136.832
 11
219.223
 21
-136.702
  0
LINE
  8
0
 10
219.223
 20
-136.702
 11
219.451
 21
-136.605
  0
LINE
  8
0
 10
219.451
 20
-136.605
 11
219.691
 21
-136.543
  0
LINE
  8
0
 10
219.691
 20
-136.543
 11
219.938
 21
-136.515
  0
LINE
  8
0
 10
219.938
 20
-136.515
 11
220.186
 21
-136.524
  0
LINE
  8
0
 10
220.186
 20
-136.524
 11
220.43
 21
-136.57
  0
LINE
  8
0
 10
220.43
 20
-136.57
 11
220.665
 21
-136.65
  0
LINE
  8
0
 10
220.665
 20
-136.65
 11
220.886
 21
-136.763
  0
LINE
  8
0
 10
220.886
 20
-136.763
 11
221.087
 21
-136.908
  0
LINE
  8
0
 10
221.087
 20
-136.908
 11
221.266
 21
-137.08
  0
LINE
  8
0
 10
221.266
 20
-137.08
 11
221.418
 21
-137.276
  0
LINE
  8
0
 10
221.418
 20
-137.276
 11
221.539
 21
-137.493
  0
LINE
  8
0
 10
221.539
 20
-137.493
 11
221.628
 21
-137.725
  0
LINE
  8
0
 10
221.628
 20
-137.725
 11
221.682
 21
-137.967
  0
LINE
  8
0
 10
221.682
 20
-137.967
 11
221.7
 21
-138.214
  0
LINE
  8
0
 10
221.7
 20
-138.214
 11
221.682
 21
-138.462
  0
LINE
  8
0
 10
221.682
 20
-138.462
 11
221.628
 21
-138.704
  0
LINE
  8
0
 10
221.628
 20
-138.704
 11
221.539
 21
-138.936
  0
LINE
  8
0
 10
221.539
 20
-138.936
 11
221.418
 21
-139.152
  0
LINE
  8
0
 10
221.418
 20
-139.152
 11
221.266
 21
-139.349
  0
LINE
  8
0
 10
221.266
 20
-139.349
 11
221.087
 21
-139.521
  0
LINE
  8
0
 10
221.087
 20
-139.521
 11
220.886
 21
-139.665
  0
LINE
  8
0
 10
220.886
 20
-139.665
 11
220.665
 21
-139.779
  0
LINE
  8
0
 10
220.665
 20
-139.779
 11
220.43
 21
-139.859
  0
LINE
  8
0
 10
220.43
 20
-139.859
 11
220.186
 21
-139.904
  0
LINE
  8
0
 10
220.186
 20
-139.904
 11
219.938
 21
-139.913
  0
LINE
  8
0
 10
219.938
 20
-139.913
 11
219.691
 21
-139.886
  0
LINE
  8
0
 10
-220.186
 20
-139.904
 11
-220.43
 21
-139.859
  0
LINE
  8
0
 10
-220.43
 20
-139.859
 11
-220.665
 21
-139.779
  0
LINE
  8
0
 10
-220.665
 20
-139.779
 11
-220.886
 21
-139.665
  0
LINE
  8
0
 10
-220.886
 20
-139.665
 11
-221.087
 21
-139.521
  0
LINE
  8
0
 10
-221.087
 20
-139.521
 11
-221.266
 21
-139.349
  0
LINE
  8
0
 10
-221.266
 20
-139.349
 11
-221.418
 21
-139.152
  0
LINE
  8
0
 10
-221.418
 20
-139.152
 11
-221.539
 21
-138.936
  0
LINE
  8
0
 10
-221.539
 20
-138.936
 11
-221.628
 21
-138.704
  0
LINE
  8
0
 10
-221.628
 20
-138.704
 11
-221.682
 21
-138.462
  0
LINE
  8
0
 10
-221.682
 20
-138.462
 11
-221.7
 21
-138.214
  0
LINE
  8
0
 10
-221.7
 20
-138.214
 11
-221.682
 21
-137.967
  0
LINE
  8
0
 10
-221.682
 20
-137.967
 11
-221.628
 21
-137.725
  0
LINE
  8
0
 10
-221.628
 20
-137.725
 11
-221.539
 21
-137.493
  0
LINE
  8
0
 10
-221.539
 20
-137.493
 11
-221.418
 21
-137.276
  0
LINE
  8
0
 10
-221.418
 20
-137.276
 11
-221.266
 21
-137.08
  0
LINE
  8
0
 10
-221.266
 20
-137.08
 11
-221.087
 21
-136.908
  0
LINE
  8
0
 10
-221.087
 20
-136.908
 11
-220.886
 21
-136.763
  0
LINE
  8
0
 10
-220.886
 20
-136.763
 11
-220.665
 21
-136.65
  0
LINE
  8
0
 10
-220.665
 20
-136.65
 11
-220.43
 21
-136.57
  0
LINE
  8
0
 10
-220.43
 20
-136.57
 11
-220.186
 21
-136.524
  0
LINE
  8
0
 10
-220.186
 20
-136.524
 11
-219.938
 21
-136.515
  0
LINE
  8
0
 10
-219.938
 20
-136.515
 11
-219.691
 21
-136.543
  0
LINE
  8
0
 10
-219.691
 20
-136.543
 11
-219.451
 21
-136.605
  0
LINE
  8
0
 10
-219.451
 20
-136.605
 11
-219.223
 21
-136.702
  0
LINE
  8
0
 10
-219.223
 20
-136.702
 11
-219.011
 21
-136.832
  0
LINE
  8
0
 10
-219.011
 20
-136.832
 11
-218.82
 21
-136.99
  0
LINE
  8
0
 10
-218.82
 20
-136.99
 11
-218.654
 21
-137.175
  0
LINE
  8
0
 10
-218.654
 20
-137.175
 11
-218.518
 21
-137.382
  0
LINE
  8
0
 10
-218.518
 20
-137.382
 11
-218.412
 21
-137.607
  0
LINE
  8
0
 10
-218.412
 20
-137.607
 11
-218.341
 21
-137.845
  0
LINE
  8
0
 10
-218.341
 20
-137.845
 11
-218.305
 21
-138.09
  0
LINE
  8
0
 10
-218.305
 20
-138.09
 11
-218.305
 21
-138.338
  0
LINE
  8
0
 10
-218.305
 20
-138.338
 11
-218.341
 21
-138.584
  0
LINE
  8
0
 10
-218.341
 20
-138.584
 11
-218.412
 21
-138.822
  0
LINE
  8
0
 10
-218.412
 20
-138.822
 11
-218.518
 21
-139.046
  0
LINE
  8
0
 10
-218.518
 20
-139.046
 11
-218.654
 21
-139.253
  0
LINE
  8
0
 10
-218.654
 20
-139.253
 11
-218.82
 21
-139.438
  0
LINE
  8
0
 10
-218.82
 20
-139.438
 11
-219.011
 21
-139.597
  0
LINE
  8
0
 10
-219.011
 20
-139.597
 11
-219.223
 21
-139.726
  0
LINE
  8
0
 10
-219.223
 20
-139.726
 11
-219.451
 21
-139.823
  0
LINE
  8
0
 10
-219.451
 20
-139.823
 11
-219.691
 21
-139.886
  0
LINE
  8
0
 10
-219.691
 20
-139.886
 11
-219.938
 21
-139.913
  0
LINE
  8
0
 10
-219.938
 20
-139.913
 11
-220.186
 21
-139.904
  0
LINE
  8
0
 10
219.691
 20
-232.029
 11
219.451
 21
-231.966
  0
LINE
  8
0
 10
219.451
 20
-231.966
 11
219.223
 21
-231.869
  0
LINE
  8
0
 10
219.223
 20
-231.869
 11
219.011
 21
-231.74
  0
LINE
  8
0
 10
219.011
 20
-231.74
 11
218.82
 21
-231.581
  0
LINE
  8
0
 10
218.82
 20
-231.581
 11
218.654
 21
-231.396
  0
LINE
  8
0
 10
218.654
 20
-231.396
 11
218.518
 21
-231.189
  0
LINE
  8
0
 10
218.518
 20
-231.189
 11
218.412
 21
-230.964
  0
LINE
  8
0
 10
218.412
 20
-230.964
 11
218.341
 21
-230.727
  0
LINE
  8
0
 10
218.341
 20
-230.727
 11
218.305
 21
-230.481
  0
LINE
  8
0
 10
218.305
 20
-230.481
 11
218.305
 21
-230.233
  0
LINE
  8
0
 10
218.305
 20
-230.233
 11
218.341
 21
-229.988
  0
LINE
  8
0
 10
218.341
 20
-229.988
 11
218.412
 21
-229.75
  0
LINE
  8
0
 10
218.412
 20
-229.75
 11
218.518
 21
-229.525
  0
LINE
  8
0
 10
218.518
 20
-229.525
 11
218.654
 21
-229.318
  0
LINE
  8
0
 10
218.654
 20
-229.318
 11
218.82
 21
-229.133
  0
LINE
  8
0
 10
218.82
 20
-229.133
 11
219.011
 21
-228.975
  0
LINE
  8
0
 10
219.011
 20
-228.975
 11
219.223
 21
-228.845
  0
LINE
  8
0
 10
219.223
 20
-228.845
 11
219.451
 21
-228.748
  0
LINE
  8
0
 10
219.451
 20
-228.748
 11
219.691
 21
-228.685
  0
LINE
  8
0
 10
219.691
 20
-228.685
 11
219.938
 21
-228.658
  0
LINE
  8
0
 10
219.938
 20
-228.658
 11
220.186
 21
-228.667
  0
LINE
  8
0
 10
220.186
 20
-228.667
 11
220.43
 21
-228.712
  0
LINE
  8
0
 10
220.43
 20
-228.712
 11
220.665
 21
-228.793
  0
LINE
  8
0
 10
220.665
 20
-228.793
 11
220.886
 21
-228.906
  0
LINE
  8
0
 10
220.886
 20
-228.906
 11
221.087
 21
-229.05
  0
LINE
  8
0
 10
221.087
 20
-229.05
 11
221.266
 21
-229.223
  0
LINE
  8
0
 10
221.266
 20
-229.223
 11
221.418
 21
-229.419
  0
LINE
  8
0
 10
221.418
 20
-229.419
 11
221.539
 21
-229.636
  0
LINE
  8
0
 10
221.539
 20
-229.636
 11
221.628
 21
-229.867
  0
LINE
  8
0
 10
221.628
 20
-229.867
 11
221.682
 21
-230.11
  0
LINE
  8
0
 10
221.682
 20
-230.11
 11
221.7
 21
-230.357
  0
LINE
  8
0
 10
221.7
 20
-230.357
 11
221.682
 21
-230.605
  0
LINE
  8
0
 10
221.682
 20
-230.605
 11
221.628
 21
-230.847
  0
LINE
  8
0
 10
221.628
 20
-230.847
 11
221.539
 21
-231.079
  0
LINE
  8
0
 10
221.539
 20
-231.079
 11
221.418
 21
-231.295
  0
LINE
  8
0
 10
221.418
 20
-231.295
 11
221.266
 21
-231.492
  0
LINE
  8
0
 10
221.266
 20
-231.492
 11
221.087
 21
-231.664
  0
LINE
  8
0
 10
221.087
 20
-231.664
 11
220.886
 21
-231.808
  0
LINE
  8
0
 10
220.886
 20
-231.808
 11
220.665
 21
-231.922
  0
LINE
  8
0
 10
220.665
 20
-231.922
 11
220.43
 21
-232.002
  0
LINE
  8
0
 10
220.43
 20
-232.002
 11
220.186
 21
-232.047
  0
LINE
  8
0
 10
220.186
 20
-232.047
 11
219.938
 21
-232.056
  0
LINE
  8
0
 10
219.938
 20
-232.056
 11
219.691
 21
-232.029
  0
LINE
  8
0
 10
-220.186
 20
-232.047
 11
-220.43
 21
-232.002
  0
LINE
  8
0
 10
-220.43
 20
-232.002
 11
-220.665
 21
-231.922
  0
LINE
  8
0
 10
-220.665
 20
-231.922
 11
-220.886
 21
-231.808
  0
LINE
  8
0
 10
-220.886
 20
-231.808
 11
-221.087
 21
-231.664
  0
LINE
  8
0
 10
-221.087
 20
-231.664
 11
-221.266
 21
-231.492
  0
LINE
  8
0
 10
-221.266
 20
-231.492
 11
-221.418
 21
-231.295
  0
LINE
  8
0
 10
-221.418
 20
-231.295
 11
-221.539
 21
-231.079
  0
LINE
  8
0
 10
-221.539
 20
-231.079
 11
-221.628
 21
-230.847
  0
LINE
  8
0
 10
-221.628
 20
-230.847
 11
-221.682
 21
-230.605
  0
LINE
  8
0
 10
-221.682
 20
-230.605
 11
-221.7
 21
-230.357
  0
LINE
  8
0
 10
-221.7
 20
-230.357
 11
-221.682
 21
-230.11
  0
LINE
  8
0
 10
-221.682
 20
-230.11
 11
-221.628
 21
-229.867
  0
LINE
  8
0
 10
-221.628
 20
-229.867
 11
-221.539
 21
-229.636
  0
LINE
  8
0
 10
-221.539
 20
-229.636
 11
-221.418
 21
-229.419
  0
LINE
  8
0
 10
-221.418
 20
-229.419
 11
-221.266
 21
-229.223
  0
LINE
  8
0
 10
-221.266
 20
-229.223
 11
-221.087
 21
-229.05
  0
LINE
  8
0
 10
-221.087
 20
-229.05
 11
-220.886
 21
-228.906
  0
LINE
  8
0
 10
-220.886
 20
-228.906
 11
-220.665
 21
-228.793
  0
LINE
  8
0
 10
-220.665
 20
-228.793
 11
-220.43
 21
-228.712
  0
LINE
  8
0
 10
-220.43
 20
-228.712
 11
-220.186
 21
-228.667
  0
LINE
  8
0
 10
-220.186
 20
-228.667
 11
-219.938
 21
-228.658
  0
LINE
  8
0
 10
-219.938
 20
-228.658
 11
-219.691
 21
-228.685
  0
LINE
  8
0
 10
-219.691
 20
-228.685
 11
-219.451
 21
-228.748
  0
LINE
  8
0
 10
-219.451
 20
-228.748
 11
-219.223
 21
-228.845
  0
LINE
  8
0
 10
-219.223
 20
-228.845
 11
-219.011
 21
-228.975
  0
LINE
  8
0
 10
-219.011
 20
-228.975
 11
-218.82
 21
-229.133
  0
LINE
  8
0
 10
-218.82
 20
-229.133
 11
-218.654
 21
-229.318
  0
LINE
  8
0
 10
-218.654
 20
-229.318
 11
-218.518
 21
-229.525
  0
LINE
  8
0
 10
-218.518
 20
-229.525
 11
-218.412
 21
-229.75
  0
LINE
  8
0
 10
-218.412
 20
-229.75
 11
-218.341
 21
-229.988
  0
LINE
  8
0
 10
-218.341
 20
-229.988
 11
-218.305
 21
-230.233
  0
LINE
  8
0
 10
-218.305
 20
-230.233
 11
-218.305
 21
-230.481
  0
LINE
  8
0
 10
-218.305
 20
-230.481
 11
-218.341
 21
-230.727
  0
LINE
  8
0
 10
-218.341
 20
-230.727
 11
-218.412
 21
-230.964
  0
LINE
  8
0
 10
-218.412
 20
-230.964
 11
-218.518
 21
-231.189
  0
LINE
  8
0
 10
-218.518
 20
-231.189
 11
-218.654
 21
-231.396
  0
LINE
  8
0
 10
-218.654
 20
-231.396
 11
-218.82
 21
-231.581
  0
LINE
  8
0
 10
-218.82
 20
-231.581
 11
-219.011
 21
-231.74
  0
LINE
  8
0
 10
-219.011
 20
-231.74
 11
-219.223
 21
-231.869
  0
LINE
  8
0
 10
-219.223
 20
-231.869
 11
-219.451
 21
-231.966
  0
LINE
  8
0
 10
-219.451
 20
-231.966
 11
-219.691
 21
-232.029
  0
LINE
  8
0
 10
-219.691
 20
-232.029
 11
-219.938
 21
-232.056
  0
LINE
  8
0
 10
-219.938
 20
-232.056
 11
-220.186
 21
-232.047
  0
LINE
  8
0
 10
159.826
 20
-256.445
 11
159.582
 21
-256.404
  0
LINE
  8
0
 10
159.582
 20
-256.404
 11
159.347
 21
-256.324
  0
LINE
  8
0
 10
159.347
 20
-256.324
 11
159.13
 21
-256.206
  0
LINE
  8
0
 10
159.13
 20
-256.206
 11
158.934
 21
-256.054
  0
LINE
  8
0
 10
158.934
 20
-256.054
 11
158.766
 21
-255.871
  0
LINE
  8
0
 10
158.766
 20
-255.871
 11
158.631
 21
-255.664
  0
LINE
  8
0
 10
158.631
 20
-255.664
 11
158.531
 21
-255.437
  0
LINE
  8
0
 10
158.531
 20
-255.437
 11
158.47
 21
-255.197
  0
LINE
  8
0
 10
158.47
 20
-255.197
 11
158.45
 21
-254.95
  0
LINE
  8
0
 10
158.45
 20
-254.95
 11
158.47
 21
-254.703
  0
LINE
  8
0
 10
158.47
 20
-254.703
 11
158.531
 21
-254.463
  0
LINE
  8
0
 10
158.531
 20
-254.463
 11
158.631
 21
-254.236
  0
LINE
  8
0
 10
158.631
 20
-254.236
 11
158.766
 21
-254.029
  0
LINE
  8
0
 10
158.766
 20
-254.029
 11
158.934
 21
-253.846
  0
LINE
  8
0
 10
158.934
 20
-253.846
 11
159.13
 21
-253.694
  0
LINE
  8
0
 10
159.13
 20
-253.694
 11
159.347
 21
-253.576
  0
LINE
  8
0
 10
159.347
 20
-253.576
 11
159.582
 21
-253.496
  0
LINE
  8
0
 10
159.582
 20
-253.496
 11
159.826
 21
-253.455
  0
LINE
  8
0
 10
159.826
 20
-253.455
 11
160.074
 21
-253.455
  0
LINE
  8
0
 10
160.074
 20
-253.455
 11
160.318
 21
-253.496
  0
LINE
  8
0
 10
160.318
 20
-253.496
 11
160.553
 21
-253.576
  0
LINE
  8
0
 10
160.553
 20
-253.576
 11
160.77
 21
-253.694
  0
LINE
  8
0
 10
160.77
 20
-253.694
 11
160.966
 21
-253.846
  0
LINE
  8
0
 10
160.966
 20
-253.846
 11
161.134
 21
-254.029
  0
LINE
  8
0
 10
161.134
 20
-254.029
 11
161.269
 21
-254.236
  0
LINE
  8
0
 10
161.269
 20
-254.236
 11
161.369
 21
-254.463
  0
LINE
  8
0
 10
161.369
 20
-254.463
 11
161.43
 21
-254.703
  0
LINE
  8
0
 10
161.43
 20
-254.703
 11
161.45
 21
-254.95
  0
LINE
  8
0
 10
161.45
 20
-254.95
 11
161.43
 21
-255.197
  0
LINE
  8
0
 10
161.43
 20
-255.197
 11
161.369
 21
-255.437
  0
LINE
  8
0
 10
161.369
 20
-255.437
 11
161.269
 21
-255.664
  0
LINE
  8
0
 10
161.269
 20
-255.664
 11
161.134
 21
-255.871
  0
LINE
  8
0
 10
161.134
 20
-255.871
 11
160.966
 21
-256.054
  0
LINE
  8
0
 10
160.966
 20
-256.054
 11
160.77
 21
-256.206
  0
LINE
  8
0
 10
160.77
 20
-256.206
 11
160.553
 21
-256.324
  0
LINE
  8
0
 10
160.553
 20
-256.324
 11
160.318
 21
-256.404
  0
LINE
  8
0
 10
160.318
 20
-256.404
 11
160.074
 21
-256.445
  0
LINE
  8
0
 10
160.074
 20
-256.445
 11
159.826
 21
-256.445
  0
LINE
  8
0
 10
-160.074
 20
-256.445
 11
-160.318
 21
-256.404
  0
LINE
  8
0
 10
-160.318
 20
-256.404
 11
-160.553
 21
-256.324
  0
LINE
  8
0
 10
-160.553
 20
-256.324
 11
-160.77
 21
-256.206
  0
LINE
  8
0
 10
-160.77
 20
-256.206
 11
-160.966
 21
-256.054
  0
LINE
  8
0
 10
-160.966
 20
-256.054
 11
-161.134
 21
-255.871
  0
LINE
  8
0
 10
-161.134
 20
-255.871
 11
-161.269
 21
-255.664
  0
LINE
  8
0
 10
-161.269
 20
-255.664
 11
-161.369
 21
-255.437
  0
LINE
  8
0
 10
-161.369
 20
-255.437
 11
-161.43
 21
-255.197
  0
LINE
  8
0
 10
-161.43
 20
-255.197
 11
-161.45
 21
-254.95
  0
LINE
  8
0
 10
-161.45
 20
-254.95
 11
-161.43
 21
-254.703
  0
LINE
  8
0
 10
-161.43
 20
-254.703
 11
-161.369
 21
-254.463
  0
LINE
  8
0
 10
-161.369
 20
-254.463
 11
-161.269
 21
-254.236
  0
LINE
  8
0
 10
-161.269
 20
-254.236
 11
-161.134
 21
-254.029
  0
LINE
  8
0
 10
-161.134
 20
-254.029
 11
-160.966
 21
-253.846
  0
LINE
  8
0
 10
-160.966
 20
-253.846
 11
-160.77
 21
-253.694
  0
LINE
  8
0
 10
-160.77
 20
-253.694
 11
-160.553
 21
-253.576
  0
LINE
  8
0
 10
-160.553
 20
-253.576
 11
-160.318
 21
-253.496
  0
LINE
  8
0
 10
-160.318
 20
-253.496
 11
-160.074
 21
-253.455
  0
LINE
  8
0
 10
-160.074
 20
-253.455
 11
-159.826
 21
-253.455
  0
LINE
  8
0
 10
-159.826
 20
-253.455
 11
-159.582
 21
-253.496
  0
LINE
  8
0
 10
-159.582
 20
-253.496
 11
-159.347
 21
-253.576
  0
LINE
  8
0
 10
-159.347
 20
-253.576
 11
-159.13
 21
-253.694
  0
LINE
  8
0
 10
-159.13
 20
-253.694
 11
-158.934
 21
-253.846
  0
LINE
  8
0
 10
-158.934
 20
-253.846
 11
-158.766
 21
-254.029
  0
LINE
  8
0
 10
-158.766
 20
-254.029
 11
-158.631
 21
-254.236
  0
LINE
  8
0
 10
-158.631
 20
-254.236
 11
-158.531
 21
-254.463
  0
LINE
  8
0
 10
-158.531
 20
-254.463
 11
-158.47
 21
-254.703
  0
LINE
  8
0
 10
-158.47
 20
-254.703
 11
-158.45
 21
-254.95
  0
LINE
  8
0
 10
-158.45
 20
-254.95
 11
-158.47
 21
-255.197
  0
LINE
  8
0
 10
-158.47
 20
-255.197
 11
-158.531
 21
-255.437
  0
LINE
  8
0
 10
-158.531
 20
-255.437
 11
-158.631
 21
-255.664
  0
LINE
  8
0
 10
-158.631
 20
-255.664
 11
-158.766
 21
-255.871
  0
LINE
  8
0
 10
-158.766
 20
-255.871
 11
-158.934
 21
-256.054
  0
LINE
  8
0
 10
-158.934
 20
-256.054
 11
-159.13
 21
-256.206
  0
LINE
  8
0
 10
-159.13
 20
-256.206
 11
-159.347
 21
-256.324
  0
LINE
  8
0
 10
-159.347
 20
-256.324
 11
-159.582
 21
-256.404
  0
LINE
  8
0
 10
-159.582
 20
-256.404
 11
-159.826
 21
-256.445
  0
LINE
  8
0
 10
-159.826
 20
-256.445
 11
-160.074
 21
-256.445
  0
LINE
  8
0
 10
219.691
 20
-324.172
 11
219.451
 21
-324.109
  0
LINE
  8
0
 10
219.451
 20
-324.109
 11
219.223
 21
-324.012
  0
LINE
  8
0
 10
219.223
 20
-324.012
 11
219.011
 21
-323.883
  0
LINE
  8
0
 10
219.011
 20
-323.883
 11
218.82
 21
-323.724
  0
LINE
  8
0
 10
218.82
 20
-323.724
 11
218.654
 21
-323.539
  0
LINE
  8
0
 10
218.654
 20
-323.539
 11
218.518
 21
-323.332
  0
LINE
  8
0
 10
218.518
 20
-323.332
 11
218.412
 21
-323.107
  0
LINE
  8
0
 10
218.412
 20
-323.107
 11
218.341
 21
-322.87
  0
LINE
  8
0
 10
218.341
 20
-322.87
 11
218.305
 21
-322.624
  0
LINE
  8
0
 10
218.305
 20
-322.624
 11
218.305
 21
-322.376
  0
LINE
  8
0
 10
218.305
 20
-322.376
 11
218.341
 21
-322.13
  0
LINE
  8
0
 10
218.341
 20
-322.13
 11
218.412
 21
-321.893
  0
LINE
  8
0
 10
218.412
 20
-321.893
 11
218.518
 21
-321.668
  0
LINE
  8
0
 10
218.518
 20
-321.668
 11
218.654
 21
-321.461
  0
LINE
  8
0
 10
218.654
 20
-321.461
 11
218.82
 21
-321.276
  0
LINE
  8
0
 10
218.82
 20
-321.276
 11
219.011
 21
-321.117
  0
LINE
  8
0
 10
219.011
 20
-321.117
 11
219.223
 21
-320.988
  0
LINE
  8
0
 10
219.223
 20
-320.988
 11
219.451
 21
-320.891
  0
LINE
  8
0
 10
219.451
 20
-320.891
 11
219.691
 21
-320.828
  0
LINE
  8
0
 10
219.691
 20
-320.828
 11
219.938
 21
-320.801
  0
LINE
  8
0
 10
219.938
 20
-320.801
 11
220.186
 21
-320.81
  0
LINE
  8
0
 10
220.186
 20
-320.81
 11
220.43
 21
-320.855
  0
LINE
  8
0
 10
220.43
 20
-320.855
 11
220.665
 21
-320.935
  0
LINE
  8
0
 10
220.665
 20
-320.935
 11
220.886
 21
-321.049
  0
LINE
  8
0
 10
220.886
 20
-321.049
 11
221.087
 21
-321.193
  0
LINE
  8
0
 10
221.087
 20
-321.193
 11
221.266
 21
-321.366
  0
LINE
  8
0
 10
221.266
 20
-321.366
 11
221.418
 21
-321.562
  0
LINE
  8
0
 10
221.418
 20
-321.562
 11
221.539
 21
-321.778
  0
LINE
  8
0
 10
221.539
 20
-321.778
 11
221.628
 21
-322.01
  0
LINE
  8
0
 10
221.628
 20
-322.01
 11
221.682
 21
-322.252
  0
LINE
  8
0
 10
221.682
 20
-322.252
 11
221.7
 21
-322.5
  0
LINE
  8
0
 10
221.7
 20
-322.5
 11
221.682
 21
-322.748
  0
LINE
  8
0
 10
221.682
 20
-322.748
 11
221.628
 21
-322.99
  0
LINE
  8
0
 10
221.628
 20
-322.99
 11
221.539
 21
-323.222
  0
LINE
  8
0
 10
221.539
 20
-323.222
 11
221.418
 21
-323.438
  0
LINE
  8
0
 10
221.418
 20
-323.438
 11
221.266
 21
-323.634
  0
LINE
  8
0
 10
221.266
 20
-323.634
 11
221.087
 21
-323.807
  0
LINE
  8
0
 10
221.087
 20
-323.807
 11
220.886
 21
-323.951
  0
LINE
  8
0
 10
220.886
 20
-323.951
 11
220.665
 21
-324.065
  0
LINE
  8
0
 10
220.665
 20
-324.065
 11
220.43
 21
-324.145
  0
LINE
  8
0
 10
220.43
 20
-324.145
 11
220.186
 21
-324.19
  0
LINE
  8
0
 10
220.186
 20
-324.19
 11
219.938
 21
-324.199
  0
LINE
  8
0
 10
219.938
 20
-324.199
 11
219.691
 21
-324.172
  0
LINE
  8
0
 10
-220.186
 20
-324.19
 11
-220.43
 21
-324.145
  0
LINE
  8
0
 10
-220.43
 20
-324.145
 11
-220.665
 21
-324.065
  0
LINE
  8
0
 10
-220.665
 20
-324.065
 11
-220.886
 21
-323.951
  0
LINE
  8
0
 10
-220.886
 20
-323.951
 11
-221.087
 21
-323.807
  0
LINE
  8
0
 10
-221.087
 20
-323.807
 11
-221.266
 21
-323.634
  0
LINE
  8
0
 10
-221.266
 20
-323.634
 11
-221.418
 21
-323.438
  0
LINE
  8
0
 10
-221.418
 20
-323.438
 11
-221.539
 21
-323.222
  0
LINE
  8
0
 10
-221.539
 20
-323.222
 11
-221.628
 21
-322.99
  0
LINE
  8
0
 10
-221.628
 20
-322.99
 11
-221.682
 21
-322.748
  0
LINE
  8
0
 10
-221.682
 20
-322.748
 11
-221.7
 21
-322.5
  0
LINE
  8
0
 10
-221.7
 20
-322.5
 11
-221.682
 21
-322.252
  0
LINE
  8
0
 10
-221.682
 20
-322.252
 11
-221.628
 21
-322.01
  0
LINE
  8
0
 10
-221.628
 20
-322.01
 11
-221.539
 21
-321.778
  0
LINE
  8
0
 10
-221.539
 20
-321.778
 11
-221.418
 21
-321.562
  0
LINE
  8
0
 10
-221.418
 20
-321.562
 11
-221.266
 21
-321.366
  0
LINE
  8
0
 10
-221.266
 20
-321.366
 11
-221.087
 21
-321.193
  0
LINE
  8
0
 10
-221.087
 20
-321.193
 11
-220.886
 21
-321.049
  0
LINE
  8
0
 10
-220.886
 20
-321.049
 11
-220.665
 21
-320.935
  0
LINE
  8
0
 10
-220.665
 20
-320.935
 11
-220.43
 21
-320.855
  0
LINE
  8
0
 10
-220.43
 20
-320.855
 11
-220.186
 21
-320.81
  0
LINE
  8
0
 10
-220.186
 20
-320.81
 11
-219.938
 21
-320.801
  0
LINE
  8
0
 10
-219.938
 20
-320.801
 11
-219.691
 21
-320.828
  0
LINE
  8
0
 10
-219.691
 20
-320.828
 11
-219.451
 21
-320.891
  0
LINE
  8
0
 10
-219.451
 20
-320.891
 11
-219.223
 21
-320.988
  0
LINE
  8
0
 10
-219.223
 20
-320.988
 11
-219.011
 21
-321.117
  0
LINE
  8
0
 10
-219.011
 20
-321.117
 11
-218.82
 21
-321.276
  0
LINE
  8
0
 10
-218.82
 20
-321.276
 11
-218.654
 21
-321.461
  0
LINE
  8
0
 10
-218.654
 20
-321.461
 11
-218.518
 21
-321.668
  0
LINE
  8
0
 10
-218.518
 20
-321.668
 11
-218.412
 21
-321.893
  0
LINE
  8
0
 10
-218.412
 20
-321.893
 11
-218.341
 21
-322.13
  0
LINE
  8
0
 10
-218.341
 20
-322.13
 11
-218.305
 21
-322.376
  0
LINE
  8
0
 10
-218.305
 20
-322.376
 11
-218.305
 21
-322.624
  0
LINE
  8
0
 10
-218.305
 20
-322.624
 11
-218.341
 21
-322.87
  0
LINE
  8
0
 10
-218.341
 20
-322.87
 11
-218.412
 21
-323.107
  0
LINE
  8
0
 10
-218.412
 20
-323.107
 11
-218.518
 21
-323.332
  0
LINE
  8
0
 10
-218.518
 20
-323.332
 11
-218.654
 21
-323.539
  0
LINE
  8
0
 10
-218.654
 20
-323.539
 11
-218.82
 21
-323.724
  0
LINE
  8
0
 10
-218.82
 20
-323.724
 11
-219.011
 21
-323.883
  0
LINE
  8
0
 10
-219.011
 20
-323.883
 11
-219.223
 21
-324.012
  0
LINE
  8
0
 10
-219.223
 20
-324.012
 11
-219.451
 21
-324.109
  0
LINE
  8
0
 10
-219.451
 20
-324.109
 11
-219.691
 21
-324.172
  0
LINE
  8
0
 10
-219.691
 20
-324.172
 11
-219.938
 21
-324.199
  0
LINE
  8
0
 10
-219.938
 20
-324.199
 11
-220.186
 21
-324.19
  0
LINE
  8
0
 10
-220.392
 20
-368.729
 11
-220.78
 21
-368.668
  0
LINE
  8
0
 10
-220.78
 20
-368.668
 11
-221.159
 21
-368.566
  0
LINE
  8
0
 10
-221.159
 20
-368.566
 11
-221.525
 21
-368.426
  0
LINE
  8
0
 10
-221.525
 20
-368.426
 11
-221.875
 21
-368.248
  0
LINE
  8
0
 10
-221.875
 20
-368.248
 11
-222.204
 21
-368.034
  0
LINE
  8
0
 10
-222.204
 20
-368.034
 11
-222.509
 21
-367.787
  0
LINE
  8
0
 10
-222.509
 20
-367.787
 11
-222.787
 21
-367.509
  0
LINE
  8
0
 10
-222.787
 20
-367.509
 11
-223.034
 21
-367.204
  0
LINE
  8
0
 10
-223.034
 20
-367.204
 11
-223.248
 21
-366.875
  0
LINE
  8
0
 10
-223.248
 20
-366.875
 11
-223.426
 21
-366.525
  0
LINE
  8
0
 10
-223.426
 20
-366.525
 11
-223.566
 21
-366.159
  0
LINE
  8
0
 10
-223.566
 20
-366.159
 11
-223.668
 21
-365.78
  0
LINE
  8
0
 10
-223.668
 20
-365.78
 11
-223.729
 21
-365.392
  0
LINE
  8
0
 10
-223.729
 20
-365.392
 11
-223.75
 21
-365
  0
LINE
  8
0
 10
-223.75
 20
-365
 11
-223.729
 21
-364.608
  0
LINE
  8
0
 10
-223.729
 20
-364.608
 11
-223.668
 21
-364.22
  0
LINE
  8
0
 10
-223.668
 20
-364.22
 11
-223.566
 21
-363.841
  0
LINE
  8
0
 10
-223.566
 20
-363.841
 11
-223.426
 21
-363.475
  0
LINE
  8
0
 10
-223.426
 20
-363.475
 11
-223.248
 21
-363.125
  0
LINE
  8
0
 10
-223.248
 20
-363.125
 11
-223.034
 21
-362.796
  0
LINE
  8
0
 10
-223.034
 20
-362.796
 11
-222.787
 21
-362.491
  0
LINE
  8
0
 10
-222.787
 20
-362.491
 11
-222.509
 21
-362.213
  0
LINE
  8
0
 10
-222.509
 20
-362.213
 11
-222.204
 21
-361.966
  0
LINE
  8
0
 10
-222.204
 20
-361.966
 11
-221.875
 21
-361.752
  0
LINE
  8
0
 10
-221.875
 20
-361.752
 11
-221.525
 21
-361.574
  0
LINE
  8
0
 10
-221.525
 20
-361.574
 11
-221.159
 21
-361.434
  0
LINE
  8
0
 10
-221.159
 20
-361.434
 11
-220.78
 21
-361.332
  0
LINE
  8
0
 10
-220.78
 20
-361.332
 11
-220.392
 21
-361.271
  0
LINE
  8
0
 10
-220.392
 20
-361.271
 11
-220
 21
-361.25
  0
LINE
  8
0
 10
-220
 20
-361.25
 11
-219.608
 21
-361.271
  0
LINE
  8
0
 10
-219.608
 20
-361.271
 11
-219.22
 21
-361.332
  0
LINE
  8
0
 10
-219.22
 20
-361.332
 11
-218.841
 21
-361.434
  0
LINE
  8
0
 10
-218.841
 20
-361.434
 11
-218.475
 21
-361.574
  0
LINE
  8
0
 10
-218.475
 20
-361.574
 11
-218.125
 21
-361.752
  0
LINE
  8
0
 10
-218.125
 20
-361.752
 11
-217.796
 21
-361.966
  0
LINE
  8
0
 10
-217.796
 20
-361.966
 11
-217.491
 21
-362.213
  0
LINE
  8
0
 10
-217.491
 20
-362.213
 11
-217.213
 21
-362.491
  0
LINE
  8
0
 10
-217.213
 20
-362.491
 11
-216.966
 21
-362.796
  0
LINE
  8
0
 10
-216.966
 20
-362.796
 11
-216.752
 21
-363.125
  0
LINE
  8
0
 10
-216.752
 20
-363.125
 11
-216.574
 21
-363.475
  0
LINE
  8
0
 10
-216.574
 20
-363.475
 11
-216.434
 21
-363.841
  0
LINE
  8
0
 10
-216.434
 20
-363.841
 11
-216.332
 21
-364.22
  0
LINE
  8
0
 10
-216.332
 20
-364.22
 11
-216.271
 21
-364.608
  0
LINE
  8
0
 10
-216.271
 20
-364.608
 11
-216.25
 21
-365
  0
LINE
  8
0
 10
-216.25
 20
-365
 11
-216.271
 21
-365.392
  0
LINE
  8
0
 10
-216.271
 20
-365.392
 11
-216.332
 21
-365.78
  0
LINE
  8
0
 10
-216.332
 20
-365.78
 11
-216.434
 21
-366.159
  0
LINE
  8
0
 10
-216.434
 20
-366.159
 11
-216.574
 21
-366.525
  0
LINE
  8
0
 10
-216.574
 20
-366.525
 11
-216.752
 21
-366.875
  0
LINE
  8
0
 10
-216.752
 20
-366.875
 11
-216.966
 21
-367.204
  0
LINE
  8
0
 10
-216.966
 20
-367.204
 11
-217.213
 21
-367.509
  0
LINE
  8
0
 10
-217.213
 20
-367.509
 11
-217.491
 21
-367.787
  0
LINE
  8
0
 10
-217.491
 20
-367.787
 11
-217.796
 21
-368.034
  0
LINE
  8
0
 10
-217.796
 20
-368.034
 11
-218.125
 21
-368.248
  0
LINE
  8
0
 10
-218.125
 20
-368.248
 11
-218.475
 21
-368.426
  0
LINE
  8
0
 10
-218.475
 20
-368.426
 11
-218.841
 21
-368.566
  0
LINE
  8
0
 10
-218.841
 20
-368.566
 11
-219.22
 21
-368.668
  0
LINE
  8
0
 10
-219.22
 20
-368.668
 11
-219.608
 21
-368.729
  0
LINE
  8
0
 10
-219.608
 20
-368.729
 11
-220
 21
-368.75
  0
LINE
  8
0
 10
-220
 20
-368.75
 11
-220.392
 21
-368.729
  0
LINE
  8
0
 10
219.608
 20
-368.729
 11
219.22
 21
-368.668
  0
LINE
  8
0
 10
219.22
 20
-368.668
 11
218.841
 21
-368.566
  0
LINE
  8
0
 10
218.841
 20
-368.566
 11
218.475
 21
-368.426
  0
LINE
  8
0
 10
218.475
 20
-368.426
 11
218.125
 21
-368.248
  0
LINE
  8
0
 10
218.125
 20
-368.248
 11
217.796
 21
-368.034
  0
LINE
  8
0
 10
217.796
 20
-368.034
 11
217.491
 21
-367.787
  0
LINE
  8
0
 10
217.491
 20
-367.787
 11
217.213
 21
-367.509
  0
LINE
  8
0
 10
217.213
 20
-367.509
 11
216.966
 21
-367.204
  0
LINE
  8
0
 10
216.966
 20
-367.204
 11
216.752
 21
-366.875
  0
LINE
  8
0
 10
216.752
 20
-366.875
 11
216.574
 21
-366.525
  0
LINE
  8
0
 10
216.574
 20
-366.525
 11
216.434
 21
-366.159
  0
LINE
  8
0
 10
216.434
 20
-366.159
 11
216.332
 21
-365.78
  0
LINE
  8
0
 10
216.332
 20
-365.78
 11
216.271
 21
-365.392
  0
LINE
  8
0
 10
216.271
 20
-365.392
 11
216.25
 21
-365
  0
LINE
  8
0
 10
216.25
 20
-365
 11
216.271
 21
-364.608
  0
LINE
  8
0
 10
216.271
 20
-364.608
 11
216.332
 21
-364.22
  0
LINE
  8
0
 10
216.332
 20
-364.22
 11
216.434
 21
-363.841
  0
LINE
  8
0
 10
216.434
 20
-363.841
 11
216.574
 21
-363.475
  0
LINE
  8
0
 10
216.574
 20
-363.475
 11
216.752
 21
-363.125
  0
LINE
  8
0
 10
216.752
 20
-363.125
 11
216.966
 21
-362.796
  0
LINE
  8
0
 10
216.966
 20
-362.796
 11
217.213
 21
-362.491
  0
LINE
  8
0
 10
217.213
 20
-362.491
 11
217.491
 21
-362.213
  0
LINE
  8
0
 10
217.491
 20
-362.213
 11
217.796
 21
-361.966
  0
LINE
  8
0
 10
217.796
 20
-361.966
 11
218.125
 21
-361.752
  0
LINE
  8
0
 10
218.125
 20
-361.752
 11
218.475
 21
-361.574
  0
LINE
  8
0
 10
218.475
 20
-361.574
 11
218.841
 21
-361.434
  0
LINE
  8
0
 10
218.841
 20
-361.434
 11
219.22
 21
-361.332
  0
LINE
  8
0
 10
219.22
 20
-361.332
 11
219.608
 21
-361.271
  0
LINE
  8
0
 10
219.608
 20
-361.271
 11
220
 21
-361.25
  0
LINE
  8
0
 10
220
 20
-361.25
 11
220.392
 21
-361.271
  0
LINE
  8
0
 10
220.392
 20
-361.271
 11
220.78
 21
-361.332
  0
LINE
  8
0
 10
220.78
 20
-361.332
 11
221.159
 21
-361.434
  0
LINE
  8
0
 10
221.159
 20
-361.434
 11
221.525
 21
-361.574
  0
LINE
  8
0
 10
221.525
 20
-361.574
 11
221.875
 21
-361.752
  0
LINE
  8
0
 10
221.875
 20
-361.752
 11
222.204
 21
-361.966
  0
LINE
  8
0
 10
222.204
 20
-361.966
 11
222.509
 21
-362.213
  0
LINE
  8
0
 10
222.509
 20
-362.213
 11
222.787
 21
-362.491
  0
LINE
  8
0
 10
222.787
 20
-362.491
 11
223.034
 21
-362.796
  0
LINE
  8
0
 10
223.034
 20
-362.796
 11
223.248
 21
-363.125
  0
LINE
  8
0
 10
223.248
 20
-363.125
 11
223.426
 21
-363.475
  0
LINE
  8
0
 10
223.426
 20
-363.475
 11
223.566
 21
-363.841
  0
LINE
  8
0
 10
223.566
 20
-363.841
 11
223.668
 21
-364.22
  0
LINE
  8
0
 10
223.668
 20
-364.22
 11
223.729
 21
-364.608
  0
LINE
  8
0
 10
223.729
 20
-364.608
 11
223.75
 21
-365
  0
LINE
  8
0
 10
223.75
 20
-365
 11
223.729
 21
-365.392
  0
LINE
  8
0
 10
223.729
 20
-365.392
 11
223.668
 21
-365.78
  0
LINE
  8
0
 10
223.668
 20
-365.78
 11
223.566
 21
-366.159
  0
LINE
  8
0
 10
223.566
 20
-366.159
 11
223.426
 21
-366.525
  0
LINE
  8
0
 10
223.426
 20
-366.525
 11
223.248
 21
-366.875
  0
LINE
  8
0
 10
223.248
 20
-366.875
 11
223.034
 21
-367.204
  0
LINE
  8
0
 10
223.034
 20
-367.204
 11
222.787
 21
-367.509
  0
LINE
  8
0
 10
222.787
 20
-367.509
 11
222.509
 21
-367.787
  0
LINE
  8
0
 10
222.509
 20
-367.787
 11
222.204
 21
-368.034
  0
LINE
  8
0
 10
222.204
 20
-368.034
 11
221.875
 21
-368.248
  0
LINE
  8
0
 10
221.875
 20
-368.248
 11
221.525
 21
-368.426
  0
LINE
  8
0
 10
221.525
 20
-368.426
 11
221.159
 21
-368.566
  0
LINE
  8
0
 10
221.159
 20
-368.566
 11
220.78
 21
-368.668
  0
LINE
  8
0
 10
220.78
 20
-368.668
 11
220.392
 21
-368.729
  0
LINE
  8
0
 10
220.392
 20
-368.729
 11
220
 21
-368.75
  0
LINE
  8
0
 10
220
 20
-368.75
 11
219.608
 21
-368.729
  0
LINE
  8
0
 10
177.191
 20
-366.672
 11
176.951
 21
-366.609
  0
LINE
  8
0
 10
176.951
 20
-366.609
 11
176.723
 21
-366.512
  0
LINE
  8
0
 10
176.723
 20
-366.512
 11
176.511
 21
-366.383
  0
LINE
  8
0
 10
176.511
 20
-366.383
 11
176.32
 21
-366.224
  0
LINE
  8
0
 10
176.32
 20
-366.224
 11
176.154
 21
-366.039
  0
LINE
  8
0
 10
176.154
 20
-366.039
 11
176.018
 21
-365.832
  0
LINE
  8
0
 10
176.018
 20
-365.832
 11
175.912
 21
-365.607
  0
LINE
  8
0
 10
175.912
 20
-365.607
 11
175.841
 21
-365.37
  0
LINE
  8
0
 10
175.841
 20
-365.37
 11
175.805
 21
-365.124
  0
LINE
  8
0
 10
175.805
 20
-365.124
 11
175.805
 21
-364.876
  0
LINE
  8
0
 10
175.805
 20
-364.876
 11
175.841
 21
-364.63
  0
LINE
  8
0
 10
175.841
 20
-364.63
 11
175.912
 21
-364.393
  0
LINE
  8
0
 10
175.912
 20
-364.393
 11
176.018
 21
-364.168
  0
LINE
  8
0
 10
176.018
 20
-364.168
 11
176.154
 21
-363.961
  0
LINE
  8
0
 10
176.154
 20
-363.961
 11
176.32
 21
-363.776
  0
LINE
  8
0
 10
176.32
 20
-363.776
 11
176.511
 21
-363.617
  0
LINE
  8
0
 10
176.511
 20
-363.617
 11
176.723
 21
-363.488
  0
LINE
  8
0
 10
176.723
 20
-363.488
 11
176.951
 21
-363.391
  0
LINE
  8
0
 10
176.951
 20
-363.391
 11
177.191
 21
-363.328
  0
LINE
  8
0
 10
177.191
 20
-363.328
 11
177.438
 21
-363.301
  0
LINE
  8
0
 10
177.438
 20
-363.301
 11
177.686
 21
-363.31
  0
LINE
  8
0
 10
177.686
 20
-363.31
 11
177.93
 21
-363.355
  0
LINE
  8
0
 10
177.93
 20
-363.355
 11
178.165
 21
-363.435
  0
LINE
  8
0
 10
178.165
 20
-363.435
 11
178.386
 21
-363.549
  0
LINE
  8
0
 10
178.386
 20
-363.549
 11
178.587
 21
-363.693
  0
LINE
  8
0
 10
178.587
 20
-363.693
 11
178.766
 21
-363.866
  0
LINE
  8
0
 10
178.766
 20
-363.866
 11
178.918
 21
-364.062
  0
LINE
  8
0
 10
178.918
 20
-364.062
 11
179.039
 21
-364.278
  0
LINE
  8
0
 10
179.039
 20
-364.278
 11
179.128
 21
-364.51
  0
LINE
  8
0
 10
179.128
 20
-364.51
 11
179.182
 21
-364.752
  0
LINE
  8
0
 10
179.182
 20
-364.752
 11
179.2
 21
-365
  0
LINE
  8
0
 10
179.2
 20
-365
 11
179.182
 21
-365.248
  0
LINE
  8
0
 10
179.182
 20
-365.248
 11
179.128
 21
-365.49
  0
LINE
  8
0
 10
179.128
 20
-365.49
 11
179.039
 21
-365.722
  0
LINE
  8
0
 10
179.039
 20
-365.722
 11
178.918
 21
-365.938
  0
LINE
  8
0
 10
178.918
 20
-365.938
 11
178.766
 21
-366.134
  0
LINE
  8
0
 10
178.766
 20
-366.134
 11
178.587
 21
-366.307
  0
LINE
  8
0
 10
178.587
 20
-366.307
 11
178.386
 21
-366.451
  0
LINE
  8
0
 10
178.386
 20
-366.451
 11
178.165
 21
-366.565
  0
LINE
  8
0
 10
178.165
 20
-366.565
 11
177.93
 21
-366.645
  0
LINE
  8
0
 10
177.93
 20
-366.645
 11
177.686
 21
-366.69
  0
LINE
  8
0
 10
177.686
 20
-366.69
 11
177.438
 21
-366.699
  0
LINE
  8
0
 10
177.438
 20
-366.699
 11
177.191
 21
-366.672
  0
LINE
  8
0
 10
88.4412
 20
-366.672
 11
88.2011
 21
-366.609
  0
LINE
  8
0
 10
88.2011
 20
-366.609
 11
87.9727
 21
-366.512
  0
LINE
  8
0
 10
87.9727
 20
-366.512
 11
87.7608
 21
-366.383
  0
LINE
  8
0
 10
87.7608
 20
-366.383
 11
87.5701
 21
-366.224
  0
LINE
  8
0
 10
87.5701
 20
-366.224
 11
87.4044
 21
-366.039
  0
LINE
  8
0
 10
87.4044
 20
-366.039
 11
87.2675
 21
-365.832
  0
LINE
  8
0
 10
87.2675
 20
-365.832
 11
87.1622
 21
-365.607
  0
LINE
  8
0
 10
87.1622
 20
-365.607
 11
87.0907
 21
-365.37
  0
LINE
  8
0
 10
87.0907
 20
-365.37
 11
87.0545
 21
-365.124
  0
LINE
  8
0
 10
87.0545
 20
-365.124
 11
87.0545
 21
-364.876
  0
LINE
  8
0
 10
87.0545
 20
-364.876
 11
87.0907
 21
-364.63
  0
LINE
  8
0
 10
87.0907
 20
-364.63
 11
87.1622
 21
-364.393
  0
LINE
  8
0
 10
87.1622
 20
-364.393
 11
87.2675
 21
-364.168
  0
LINE
  8
0
 10
87.2675
 20
-364.168
 11
87.4044
 21
-363.961
  0
LINE
  8
0
 10
87.4044
 20
-363.961
 11
87.5701
 21
-363.776
  0
LINE
  8
0
 10
87.5701
 20
-363.776
 11
87.7608
 21
-363.617
  0
LINE
  8
0
 10
87.7608
 20
-363.617
 11
87.9727
 21
-363.488
  0
LINE
  8
0
 10
87.9727
 20
-363.488
 11
88.2011
 21
-363.391
  0
LINE
  8
0
 10
88.2011
 20
-363.391
 11
88.4412
 21
-363.328
  0
LINE
  8
0
 10
88.4412
 20
-363.328
 11
88.6879
 21
-363.301
  0
LINE
  8
0
 10
88.6879
 20
-363.301
 11
88.9359
 21
-363.31
  0
LINE
  8
0
 10
88.9359
 20
-363.31
 11
89.18
 21
-363.355
  0
LINE
  8
0
 10
89.18
 20
-363.355
 11
89.4149
 21
-363.435
  0
LINE
  8
0
 10
89.4149
 20
-363.435
 11
89.6356
 21
-363.549
  0
LINE
  8
0
 10
89.6356
 20
-363.549
 11
89.8374
 21
-363.693
  0
LINE
  8
0
 10
89.8374
 20
-363.693
 11
90.0161
 21
-363.866
  0
LINE
  8
0
 10
90.0161
 20
-363.866
 11
90.1678
 21
-364.062
  0
LINE
  8
0
 10
90.1678
 20
-364.062
 11
90.2893
 21
-364.278
  0
LINE
  8
0
 10
90.2893
 20
-364.278
 11
90.3779
 21
-364.51
  0
LINE
  8
0
 10
90.3779
 20
-364.51
 11
90.4319
 21
-364.752
  0
LINE
  8
0
 10
90.4319
 20
-364.752
 11
90.45
 21
-365
  0
LINE
  8
0
 10
90.45
 20
-365
 11
90.4319
 21
-365.248
  0
LINE
  8
0
 10
90.4319
 20
-365.248
 11
90.3779
 21
-365.49
  0
LINE
  8
0
 10
90.3779
 20
-365.49
 11
90.2893
 21
-365.722
  0
LINE
  8
0
 10
90.2893
 20
-365.722
 11
90.1678
 21
-365.938
  0
LINE
  8
0
 10
90.1678
 20
-365.938
 11
90.0161
 21
-366.134
  0
LINE
  8
0
 10
90.0161
 20
-366.134
 11
89.8374
 21
-366.307
  0
LINE
  8
0
 10
89.8374
 20
-366.307
 11
89.6356
 21
-366.451
  0
LINE
  8
0
 10
89.6356
 20
-366.451
 11
89.4149
 21
-366.565
  0
LINE
  8
0
 10
89.4149
 20
-366.565
 11
89.18
 21
-366.645
  0
LINE
  8
0
 10
89.18
 20
-366.645
 11
88.9359
 21
-366.69
  0
LINE
  8
0
 10
88.9359
 20
-366.69
 11
88.6879
 21
-366.699
  0
LINE
  8
0
 10
88.6879
 20
-366.699
 11
88.4412
 21
-366.672
  0
LINE
  8
0
 10
-89.0588
 20
-366.672
 11
-89.2989
 21
-366.609
  0
LINE
  8
0
 10
-89.2989
 20
-366.609
 11
-89.5273
 21
-366.512
  0
LINE
  8
0
 10
-89.5273
 20
-366.512
 11
-89.7392
 21
-366.383
  0
LINE
  8
0
 10
-89.7392
 20
-366.383
 11
-89.9299
 21
-366.224
  0
LINE
  8
0
 10
-89.9299
 20
-366.224
 11
-90.0955
 21
-366.039
  0
LINE
  8
0
 10
-90.0955
 20
-366.039
 11
-90.2325
 21
-365.832
  0
LINE
  8
0
 10
-90.2325
 20
-365.832
 11
-90.3378
 21
-365.607
  0
LINE
  8
0
 10
-90.3378
 20
-365.607
 11
-90.4093
 21
-365.37
  0
LINE
  8
0
 10
-90.4093
 20
-365.37
 11
-90.4455
 21
-365.124
  0
LINE
  8
0
 10
-90.4455
 20
-365.124
 11
-90.4455
 21
-364.876
  0
LINE
  8
0
 10
-90.4455
 20
-364.876
 11
-90.4093
 21
-364.63
  0
LINE
  8
0
 10
-90.4093
 20
-364.63
 11
-90.3378
 21
-364.393
  0
LINE
  8
0
 10
-90.3378
 20
-364.393
 11
-90.2325
 21
-364.168
  0
LINE
  8
0
 10
-90.2325
 20
-364.168
 11
-90.0955
 21
-363.961
  0
LINE
  8
0
 10
-90.0955
 20
-363.961
 11
-89.9299
 21
-363.776
  0
LINE
  8
0
 10
-89.9299
 20
-363.776
 11
-89.7392
 21
-363.617
  0
LINE
  8
0
 10
-89.7392
 20
-363.617
 11
-89.5273
 21
-363.488
  0
LINE
  8
0
 10
-89.5273
 20
-363.488
 11
-89.2989
 21
-363.391
  0
LINE
  8
0
 10
-89.2989
 20
-363.391
 11
-89.0588
 21
-363.328
  0
LINE
  8
0
 10
-89.0588
 20
-363.328
 11
-88.8121
 21
-363.301
  0
LINE
  8
0
 10
-88.8121
 20
-363.301
 11
-88.5641
 21
-363.31
  0
LINE
  8
0
 10
-88.5641
 20
-363.31
 11
-88.32
 21
-363.355
  0
LINE
  8
0
 10
-88.32
 20
-363.355
 11
-88.0851
 21
-363.435
  0
LINE
  8
0
 10
-88.0851
 20
-363.435
 11
-87.8644
 21
-363.549
  0
LINE
  8
0
 10
-87.8644
 20
-363.549
 11
-87.6626
 21
-363.693
  0
LINE
  8
0
 10
-87.6626
 20
-363.693
 11
-87.4839
 21
-363.866
  0
LINE
  8
0
 10
-87.4839
 20
-363.866
 11
-87.3322
 21
-364.062
  0
LINE
  8
0
 10
-87.3322
 20
-364.062
 11
-87.2107
 21
-364.278
  0
LINE
  8
0
 10
-87.2107
 20
-364.278
 11
-87.1221
 21
-364.51
  0
LINE
  8
0
 10
-87.1221
 20
-364.51
 11
-87.0681
 21
-364.752
  0
LINE
  8
0
 10
-87.0681
 20
-364.752
 11
-87.05
 21
-365
  0
LINE
  8
0
 10
-87.05
 20
-365
 11
-87.0681
 21
-365.248
  0
LINE
  8
0
 10
-87.0681
 20
-365.248
 11
-87.1221
 21
-365.49
  0
LINE
  8
0
 10
-87.1221
 20
-365.49
 11
-87.2107
 21
-365.722
  0
LINE
  8
0
 10
-87.2107
 20
-365.722
 11
-87.3322
 21
-365.938
  0
LINE
  8
0
 10
-87.3322
 20
-365.938
 11
-87.4839
 21
-366.134
  0
LINE
  8
0
 10
-87.4839
 20
-366.134
 11
-87.6626
 21
-366.307
  0
LINE
  8
0
 10
-87.6626
 20
-366.307
 11
-87.8644
 21
-366.451
  0
LINE
  8
0
 10
-87.8644
 20
-366.451
 11
-88.0851
 21
-366.565
  0
LINE
  8
0
 10
-88.0851
 20
-366.565
 11
-88.32
 21
-366.645
  0
LINE
  8
0
 10
-88.32
 20
-366.645
 11
-88.5641
 21
-366.69
  0
LINE
  8
0
 10
-88.5641
 20
-366.69
 11
-88.8121
 21
-366.699
  0
LINE
  8
0
 10
-88.8121
 20
-366.699
 11
-89.0588
 21
-366.672
  0
LINE
  8
0
 10
-0.308777
 20
-366.672
 11
-0.548889
 21
-366.609
  0
LINE
  8
0
 10
-0.548889
 20
-366.609
 11
-0.777298
 21
-366.512
  0
LINE
  8
0
 10
-0.777298
 20
-366.512
 11
-0.989151
 21
-366.383
  0
LINE
  8
0
 10
-0.989151
 20
-366.383
 11
-1.17992
 21
-366.224
  0
LINE
  8
0
 10
-1.17992
 20
-366.224
 11
-1.34554
 21
-366.039
  0
LINE
  8
0
 10
-1.34554
 20
-366.039
 11
-1.48248
 21
-365.832
  0
LINE
  8
0
 10
-1.48248
 20
-365.832
 11
-1.58781
 21
-365.607
  0
LINE
  8
0
 10
-1.58781
 20
-365.607
 11
-1.65932
 21
-365.37
  0
LINE
  8
0
 10
-1.65932
 20
-365.37
 11
-1.69545
 21
-365.124
  0
LINE
  8
0
 10
-1.69545
 20
-365.124
 11
-1.69545
 21
-364.876
  0
LINE
  8
0
 10
-1.69545
 20
-364.876
 11
-1.65932
 21
-364.63
  0
LINE
  8
0
 10
-1.65932
 20
-364.63
 11
-1.58781
 21
-364.393
  0
LINE
  8
0
 10
-1.58781
 20
-364.393
 11
-1.48248
 21
-364.168
  0
LINE
  8
0
 10
-1.48248
 20
-364.168
 11
-1.34554
 21
-363.961
  0
LINE
  8
0
 10
-1.34554
 20
-363.961
 11
-1.17992
 21
-363.776
  0
LINE
  8
0
 10
-1.17992
 20
-363.776
 11
-0.989151
 21
-363.617
  0
LINE
  8
0
 10
-0.989151
 20
-363.617
 11
-0.777298
 21
-363.488
  0
LINE
  8
0
 10
-0.777298
 20
-363.488
 11
-0.548889
 21
-363.391
  0
LINE
  8
0
 10
-0.548889
 20
-363.391
 11
-0.308777
 21
-363.328
  0
LINE
  8
0
 10
-0.308777
 20
-363.328
 11
-0.0620728
 21
-363.301
  0
LINE
  8
0
 10
-0.0620728
 20
-363.301
 11
0.185928
 21
-363.31
  0
LINE
  8
0
 10
0.185928
 20
-363.31
 11
0.429977
 21
-363.355
  0
LINE
  8
0
 10
0.429977
 20
-363.355
 11
0.664871
 21
-363.435
  0
LINE
  8
0
 10
0.664871
 20
-363.435
 11
0.88559
 21
-363.549
  0
LINE
  8
0
 10
0.88559
 20
-363.549
 11
1.08743
 21
-363.693
  0
LINE
  8
0
 10
1.08743
 20
-363.693
 11
1.2661
 21
-363.866
  0
LINE
  8
0
 10
1.2661
 20
-363.866
 11
1.41779
 21
-364.062
  0
LINE
  8
0
 10
1.41779
 20
-364.062
 11
1.53926
 21
-364.278
  0
LINE
  8
0
 10
1.53926
 20
-364.278
 11
1.62791
 21
-364.51
  0
LINE
  8
0
 10
1.62791
 20
-364.51
 11
1.68187
 21
-364.752
  0
LINE
  8
0
 10
1.68187
 20
-364.752
 11
1.7
 21
-365
  0
LINE
  8
0
 10
1.7
 20
-365
 11
1.68187
 21
-365.248
  0
LINE
  8
0
 10
1.68187
 20
-365.248
 11
1.62791
 21
-365.49
  0
LINE
  8
0
 10
1.62791
 20
-365.49
 11
1.53926
 21
-365.722
  0
LINE
  8
0
 10
1.53926
 20
-365.722
 11
1.41779
 21
-365.938
  0
LINE
  8
0
 10
1.41779
 20
-365.938
 11
1.2661
 21
-366.134
  0
LINE
  8
0
 10
1.2661
 20
-366.134
 11
1.08743
 21
-366.307
  0
LINE
  8
0
 10
1.08743
 20
-366.307
 11
0.88559
 21
-366.451
  0
LINE
  8
0
 10
0.88559
 20
-366.451
 11
0.664871
 21
-366.565
  0
LINE
  8
0
 10
0.664871
 20
-366.565
 11
0.429977
 21
-366.645
  0
LINE
  8
0
 10
0.429977
 20
-366.645
 11
0.185928
 21
-366.69
  0
LINE
  8
0
 10
0.185928
 20
-366.69
 11
-0.0620728
 21
-366.699
  0
LINE
  8
0
 10
-0.0620728
 20
-366.699
 11
-0.308777
 21
-366.672
  0
LINE
  8
0
 10
-177.809
 20
-366.672
 11
-178.049
 21
-366.609
  0
LINE
  8
0
 10
-178.049
 20
-366.609
 11
-178.277
 21
-366.512
  0
LINE
  8
0
 10
-178.277
 20
-366.512
 11
-178.489
 21
-366.383
  0
LINE
  8
0
 10
-178.489
 20
-366.383
 11
-178.68
 21
-366.224
  0
LINE
  8
0
 10
-178.68
 20
-366.224
 11
-178.846
 21
-366.039
  0
LINE
  8
0
 10
-178.846
 20
-366.039
 11
-178.982
 21
-365.832
  0
LINE
  8
0
 10
-178.982
 20
-365.832
 11
-179.088
 21
-365.607
  0
LINE
  8
0
 10
-179.088
 20
-365.607
 11
-179.159
 21
-365.37
  0
LINE
  8
0
 10
-179.159
 20
-365.37
 11
-179.195
 21
-365.124
  0
LINE
  8
0
 10
-179.195
 20
-365.124
 11
-179.195
 21
-364.876
  0
LINE
  8
0
 10
-179.195
 20
-364.876
 11
-179.159
 21
-364.63
  0
LINE
  8
0
 10
-179.159
 20
-364.63
 11
-179.088
 21
-364.393
  0
LINE
  8
0
 10
-179.088
 20
-364.393
 11
-178.982
 21
-364.168
  0
LINE
  8
0
 10
-178.982
 20
-364.168
 11
-178.846
 21
-363.961
  0
LINE
  8
0
 10
-178.846
 20
-363.961
 11
-178.68
 21
-363.776
  0
LINE
  8
0
 10
-178.68
 20
-363.776
 11
-178.489
 21
-363.617
  0
LINE
  8
0
 10
-178.489
 20
-363.617
 11
-178.277
 21
-363.488
  0
LINE
  8
0
 10
-178.277
 20
-363.488
 11
-178.049
 21
-363.391
  0
LINE
  8
0
 10
-178.049
 20
-363.391
 11
-177.809
 21
-363.328
  0
LINE
  8
0
 10
-177.809
 20
-363.328
 11
-177.562
 21
-363.301
  0
LINE
  8
0
 10
-177.562
 20
-363.301
 11
-177.314
 21
-363.31
  0
LINE
  8
0
 10
-177.314
 20
-363.31
 11
-177.07
 21
-363.355
  0
LINE
  8
0
 10
-177.07
 20
-363.355
 11
-176.835
 21
-363.435
  0
LINE
  8
0
 10
-176.835
 20
-363.435
 11
-176.614
 21
-363.549
  0
LINE
  8
0
 10
-176.614
 20
-363.549
 11
-176.413
 21
-363.693
  0
LINE
  8
0
 10
-176.413
 20
-363.693
 11
-176.234
 21
-363.866
  0
LINE
  8
0
 10
-176.234
 20
-363.866
 11
-176.082
 21
-364.062
  0
LINE
  8
0
 10
-176.082
 20
-364.062
 11
-175.961
 21
-364.278
  0
LINE
  8
0
 10
-175.961
 20
-364.278
 11
-175.872
 21
-364.51
  0
LINE
  8
0
 10
-175.872
 20
-364.51
 11
-175.818
 21
-364.752
  0
LINE
  8
0
 10
-175.818
 20
-364.752
 11
-175.8
 21
-365
  0
LINE
  8
0
 10
-175.8
 20
-365
 11
-175.818
 21
-365.248
  0
LINE
  8
0
 10
-175.818
 20
-365.248
 11
-175.872
 21
-365.49
  0
LINE
  8
0
 10
-175.872
 20
-365.49
 11
-175.961
 21
-365.722
  0
LINE
  8
0
 10
-175.961
 20
-365.722
 11
-176.082
 21
-365.938
  0
LINE
  8
0
 10
-176.082
 20
-365.938
 11
-176.234
 21
-366.134
  0
LINE
  8
0
 10
-176.234
 20
-366.134
 11
-176.413
 21
-366.307
  0
LINE
  8
0
 10
-176.413
 20
-366.307
 11
-176.614
 21
-366.451
  0
LINE
  8
0
 10
-176.614
 20
-366.451
 11
-176.835
 21
-366.565
  0
LINE
  8
0
 10
-176.835
 20
-366.565
 11
-177.07
 21
-366.645
  0
LINE
  8
0
 10
-177.07
 20
-366.645
 11
-177.314
 21
-366.69
  0
LINE
  8
0
 10
-177.314
 20
-366.69
 11
-177.562
 21
-366.699
  0
LINE
  8
0
 10
-177.562
 20
-366.699
 11
-177.809
 21
-366.672
  0
ENDSEC
  0
SECTION
  2
OBJECTS
  0
DICTIONARY
  0
ENDSEC
  0
EOF
