  0
SECTION
  2
BLOCKS
  0
ENDSEC
  0
SECTION
  2
ENTITIES
  0
LINE
  8
0
 10
240.398
 20
-372.348
 11
240.915
 21
-372.266
  0
LINE
  8
0
 10
240.915
 20
-372.266
 11
241.42
 21
-372.13
  0
LINE
  8
0
 10
241.42
 20
-372.13
 11
241.909
 21
-371.943
  0
LINE
  8
0
 10
241.909
 20
-371.943
 11
242.375
 21
-371.705
  0
LINE
  8
0
 10
242.375
 20
-371.705
 11
242.814
 21
-371.42
  0
LINE
  8
0
 10
242.814
 20
-371.42
 11
243.221
 21
-371.091
  0
LINE
  8
0
 10
243.221
 20
-371.091
 11
243.591
 21
-370.721
  0
LINE
  8
0
 10
243.591
 20
-370.721
 11
243.92
 21
-370.314
  0
LINE
  8
0
 10
243.92
 20
-370.314
 11
244.205
 21
-369.875
  0
LINE
  8
0
 10
244.205
 20
-369.875
 11
244.443
 21
-369.409
  0
LINE
  8
0
 10
244.443
 20
-369.409
 11
244.63
 21
-368.92
  0
LINE
  8
0
 10
244.63
 20
-368.92
 11
244.766
 21
-368.415
  0
LINE
  8
0
 10
244.766
 20
-368.415
 11
244.848
 21
-367.898
  0
LINE
  8
0
 10
244.848
 20
-367.898
 11
244.875
 21
-367.375
  0
LINE
  8
0
 10
244.875
 20
-367.375
 11
244.875
 21
367.375
  0
LINE
  8
0
 10
244.875
 20
367.375
 11
244.848
 21
367.898
  0
LINE
  8
0
 10
244.848
 20
367.898
 11
244.766
 21
368.415
  0
LINE
  8
0
 10
244.766
 20
368.415
 11
244.63
 21
368.92
  0
LINE
  8
0
 10
244.63
 20
368.92
 11
244.443
 21
369.409
  0
LINE
  8
0
 10
244.443
 20
369.409
 11
244.205
 21
369.875
  0
LINE
  8
0
 10
244.205
 20
369.875
 11
243.92
 21
370.314
  0
LINE
  8
0
 10
243.92
 20
370.314
 11
243.591
 21
370.721
  0
LINE
  8
0
 10
243.591
 20
370.721
 11
243.221
 21
371.091
  0
LINE
  8
0
 10
243.221
 20
371.091
 11
242.814
 21
371.42
  0
LINE
  8
0
 10
242.814
 20
371.42
 11
242.375
 21
371.705
  0
LINE
  8
0
 10
242.375
 20
371.705
 11
241.909
 21
371.943
  0
LINE
  8
0
 10
241.909
 20
371.943
 11
241.42
 21
372.13
  0
LINE
  8
0
 10
241.42
 20
372.13
 11
240.915
 21
372.266
  0
LINE
  8
0
 10
240.915
 20
372.266
 11
240.398
 21
372.348
  0
LINE
  8
0
 10
240.398
 20
372.348
 11
239.875
 21
372.375
  0
LINE
  8
0
 10
239.875
 20
372.375
 11
-239.875
 21
372.375
  0
LINE
  8
0
 10
-239.875
 20
372.375
 11
-240.398
 21
372.348
  0
LINE
  8
0
 10
-240.398
 20
372.348
 11
-240.915
 21
372.266
  0
LINE
  8
0
 10
-240.915
 20
372.266
 11
-241.42
 21
372.13
  0
LINE
  8
0
 10
-241.42
 20
372.13
 11
-241.909
 21
371.943
  0
LINE
  8
0
 10
-241.909
 20
371.943
 11
-242.375
 21
371.705
  0
LINE
  8
0
 10
-242.375
 20
371.705
 11
-242.814
 21
371.42
  0
LINE
  8
0
 10
-242.814
 20
371.42
 11
-243.221
 21
371.091
  0
LINE
  8
0
 10
-243.221
 20
371.091
 11
-243.591
 21
370.721
  0
LINE
  8
0
 10
-243.591
 20
370.721
 11
-243.92
 21
370.314
  0
LINE
  8
0
 10
-243.92
 20
370.314
 11
-244.205
 21
369.875
  0
LINE
  8
0
 10
-244.205
 20
369.875
 11
-244.443
 21
369.409
  0
LINE
  8
0
 10
-244.443
 20
369.409
 11
-244.63
 21
368.92
  0
LINE
  8
0
 10
-244.63
 20
368.92
 11
-244.766
 21
368.415
  0
LINE
  8
0
 10
-244.766
 20
368.415
 11
-244.848
 21
367.898
  0
LINE
  8
0
 10
-244.848
 20
367.898
 11
-244.875
 21
367.375
  0
LINE
  8
0
 10
-244.875
 20
367.375
 11
-244.875
 21
-367.375
  0
LINE
  8
0
 10
-244.875
 20
-367.375
 11
-244.848
 21
-367.898
  0
LINE
  8
0
 10
-244.848
 20
-367.898
 11
-244.766
 21
-368.415
  0
LINE
  8
0
 10
-244.766
 20
-368.415
 11
-244.63
 21
-368.92
  0
LINE
  8
0
 10
-244.63
 20
-368.92
 11
-244.443
 21
-369.409
  0
LINE
  8
0
 10
-244.443
 20
-369.409
 11
-244.205
 21
-369.875
  0
LINE
  8
0
 10
-244.205
 20
-369.875
 11
-243.92
 21
-370.314
  0
LINE
  8
0
 10
-243.92
 20
-370.314
 11
-243.591
 21
-370.721
  0
LINE
  8
0
 10
-243.591
 20
-370.721
 11
-243.221
 21
-371.091
  0
LINE
  8
0
 10
-243.221
 20
-371.091
 11
-242.814
 21
-371.42
  0
LINE
  8
0
 10
-242.814
 20
-371.42
 11
-242.375
 21
-371.705
  0
LINE
  8
0
 10
-242.375
 20
-371.705
 11
-241.909
 21
-371.943
  0
LINE
  8
0
 10
-241.909
 20
-371.943
 11
-241.42
 21
-372.13
  0
LINE
  8
0
 10
-241.42
 20
-372.13
 11
-240.915
 21
-372.266
  0
LINE
  8
0
 10
-240.915
 20
-372.266
 11
-240.398
 21
-372.348
  0
LINE
  8
0
 10
-240.398
 20
-372.348
 11
-239.875
 21
-372.375
  0
LINE
  8
0
 10
-239.875
 20
-372.375
 11
239.875
 21
-372.375
  0
LINE
  8
0
 10
239.875
 20
-372.375
 11
240.398
 21
-372.348
  0
LINE
  8
0
 10
237.108
 20
361.271
 11
236.72
 21
361.332
  0
LINE
  8
0
 10
236.72
 20
361.332
 11
236.341
 21
361.434
  0
LINE
  8
0
 10
236.341
 20
361.434
 11
235.975
 21
361.574
  0
LINE
  8
0
 10
235.975
 20
361.574
 11
235.625
 21
361.752
  0
LINE
  8
0
 10
235.625
 20
361.752
 11
235.296
 21
361.966
  0
LINE
  8
0
 10
235.296
 20
361.966
 11
234.991
 21
362.213
  0
LINE
  8
0
 10
234.991
 20
362.213
 11
234.713
 21
362.491
  0
LINE
  8
0
 10
234.713
 20
362.491
 11
234.466
 21
362.796
  0
LINE
  8
0
 10
234.466
 20
362.796
 11
234.252
 21
363.125
  0
LINE
  8
0
 10
234.252
 20
363.125
 11
234.074
 21
363.475
  0
LINE
  8
0
 10
234.074
 20
363.475
 11
233.934
 21
363.841
  0
LINE
  8
0
 10
233.934
 20
363.841
 11
233.832
 21
364.22
  0
LINE
  8
0
 10
233.832
 20
364.22
 11
233.771
 21
364.608
  0
LINE
  8
0
 10
233.771
 20
364.608
 11
233.75
 21
365
  0
LINE
  8
0
 10
233.75
 20
365
 11
233.771
 21
365.392
  0
LINE
  8
0
 10
233.771
 20
365.392
 11
233.832
 21
365.78
  0
LINE
  8
0
 10
233.832
 20
365.78
 11
233.934
 21
366.159
  0
LINE
  8
0
 10
233.934
 20
366.159
 11
234.074
 21
366.525
  0
LINE
  8
0
 10
234.074
 20
366.525
 11
234.252
 21
366.875
  0
LINE
  8
0
 10
234.252
 20
366.875
 11
234.466
 21
367.204
  0
LINE
  8
0
 10
234.466
 20
367.204
 11
234.713
 21
367.509
  0
LINE
  8
0
 10
234.713
 20
367.509
 11
234.991
 21
367.787
  0
LINE
  8
0
 10
234.991
 20
367.787
 11
235.296
 21
368.034
  0
LINE
  8
0
 10
235.296
 20
368.034
 11
235.625
 21
368.248
  0
LINE
  8
0
 10
235.625
 20
368.248
 11
235.975
 21
368.426
  0
LINE
  8
0
 10
235.975
 20
368.426
 11
236.341
 21
368.566
  0
LINE
  8
0
 10
236.341
 20
368.566
 11
236.72
 21
368.668
  0
LINE
  8
0
 10
236.72
 20
368.668
 11
237.108
 21
368.729
  0
LINE
  8
0
 10
237.108
 20
368.729
 11
237.5
 21
368.75
  0
LINE
  8
0
 10
237.5
 20
368.75
 11
237.892
 21
368.729
  0
LINE
  8
0
 10
237.892
 20
368.729
 11
238.28
 21
368.668
  0
LINE
  8
0
 10
238.28
 20
368.668
 11
238.659
 21
368.566
  0
LINE
  8
0
 10
238.659
 20
368.566
 11
239.025
 21
368.426
  0
LINE
  8
0
 10
239.025
 20
368.426
 11
239.375
 21
368.248
  0
LINE
  8
0
 10
239.375
 20
368.248
 11
239.704
 21
368.034
  0
LINE
  8
0
 10
239.704
 20
368.034
 11
240.009
 21
367.787
  0
LINE
  8
0
 10
240.009
 20
367.787
 11
240.287
 21
367.509
  0
LINE
  8
0
 10
240.287
 20
367.509
 11
240.534
 21
367.204
  0
LINE
  8
0
 10
240.534
 20
367.204
 11
240.748
 21
366.875
  0
LINE
  8
0
 10
240.748
 20
366.875
 11
240.926
 21
366.525
  0
LINE
  8
0
 10
240.926
 20
366.525
 11
241.066
 21
366.159
  0
LINE
  8
0
 10
241.066
 20
366.159
 11
241.168
 21
365.78
  0
LINE
  8
0
 10
241.168
 20
365.78
 11
241.229
 21
365.392
  0
LINE
  8
0
 10
241.229
 20
365.392
 11
241.25
 21
365
  0
LINE
  8
0
 10
241.25
 20
365
 11
241.229
 21
364.608
  0
LINE
  8
0
 10
241.229
 20
364.608
 11
241.168
 21
364.22
  0
LINE
  8
0
 10
241.168
 20
364.22
 11
241.066
 21
363.841
  0
LINE
  8
0
 10
241.066
 20
363.841
 11
240.926
 21
363.475
  0
LINE
  8
0
 10
240.926
 20
363.475
 11
240.748
 21
363.125
  0
LINE
  8
0
 10
240.748
 20
363.125
 11
240.534
 21
362.796
  0
LINE
  8
0
 10
240.534
 20
362.796
 11
240.287
 21
362.491
  0
LINE
  8
0
 10
240.287
 20
362.491
 11
240.009
 21
362.213
  0
LINE
  8
0
 10
240.009
 20
362.213
 11
239.704
 21
361.966
  0
LINE
  8
0
 10
239.704
 20
361.966
 11
239.375
 21
361.752
  0
LINE
  8
0
 10
239.375
 20
361.752
 11
239.025
 21
361.574
  0
LINE
  8
0
 10
239.025
 20
361.574
 11
238.659
 21
361.434
  0
LINE
  8
0
 10
238.659
 20
361.434
 11
238.28
 21
361.332
  0
LINE
  8
0
 10
238.28
 20
361.332
 11
237.892
 21
361.271
  0
LINE
  8
0
 10
237.892
 20
361.271
 11
237.5
 21
361.25
  0
LINE
  8
0
 10
237.5
 20
361.25
 11
237.108
 21
361.271
  0
LINE
  8
0
 10
-237.892
 20
361.271
 11
-238.28
 21
361.332
  0
LINE
  8
0
 10
-238.28
 20
361.332
 11
-238.659
 21
361.434
  0
LINE
  8
0
 10
-238.659
 20
361.434
 11
-239.025
 21
361.574
  0
LINE
  8
0
 10
-239.025
 20
361.574
 11
-239.375
 21
361.752
  0
LINE
  8
0
 10
-239.375
 20
361.752
 11
-239.704
 21
361.966
  0
LINE
  8
0
 10
-239.704
 20
361.966
 11
-240.009
 21
362.213
  0
LINE
  8
0
 10
-240.009
 20
362.213
 11
-240.287
 21
362.491
  0
LINE
  8
0
 10
-240.287
 20
362.491
 11
-240.534
 21
362.796
  0
LINE
  8
0
 10
-240.534
 20
362.796
 11
-240.748
 21
363.125
  0
LINE
  8
0
 10
-240.748
 20
363.125
 11
-240.926
 21
363.475
  0
LINE
  8
0
 10
-240.926
 20
363.475
 11
-241.066
 21
363.841
  0
LINE
  8
0
 10
-241.066
 20
363.841
 11
-241.168
 21
364.22
  0
LINE
  8
0
 10
-241.168
 20
364.22
 11
-241.229
 21
364.608
  0
LINE
  8
0
 10
-241.229
 20
364.608
 11
-241.25
 21
365
  0
LINE
  8
0
 10
-241.25
 20
365
 11
-241.229
 21
365.392
  0
LINE
  8
0
 10
-241.229
 20
365.392
 11
-241.168
 21
365.78
  0
LINE
  8
0
 10
-241.168
 20
365.78
 11
-241.066
 21
366.159
  0
LINE
  8
0
 10
-241.066
 20
366.159
 11
-240.926
 21
366.525
  0
LINE
  8
0
 10
-240.926
 20
366.525
 11
-240.748
 21
366.875
  0
LINE
  8
0
 10
-240.748
 20
366.875
 11
-240.534
 21
367.204
  0
LINE
  8
0
 10
-240.534
 20
367.204
 11
-240.287
 21
367.509
  0
LINE
  8
0
 10
-240.287
 20
367.509
 11
-240.009
 21
367.787
  0
LINE
  8
0
 10
-240.009
 20
367.787
 11
-239.704
 21
368.034
  0
LINE
  8
0
 10
-239.704
 20
368.034
 11
-239.375
 21
368.248
  0
LINE
  8
0
 10
-239.375
 20
368.248
 11
-239.025
 21
368.426
  0
LINE
  8
0
 10
-239.025
 20
368.426
 11
-238.659
 21
368.566
  0
LINE
  8
0
 10
-238.659
 20
368.566
 11
-238.28
 21
368.668
  0
LINE
  8
0
 10
-238.28
 20
368.668
 11
-237.892
 21
368.729
  0
LINE
  8
0
 10
-237.892
 20
368.729
 11
-237.5
 21
368.75
  0
LINE
  8
0
 10
-237.5
 20
368.75
 11
-237.108
 21
368.729
  0
LINE
  8
0
 10
-237.108
 20
368.729
 11
-236.72
 21
368.668
  0
LINE
  8
0
 10
-236.72
 20
368.668
 11
-236.341
 21
368.566
  0
LINE
  8
0
 10
-236.341
 20
368.566
 11
-235.975
 21
368.426
  0
LINE
  8
0
 10
-235.975
 20
368.426
 11
-235.625
 21
368.248
  0
LINE
  8
0
 10
-235.625
 20
368.248
 11
-235.296
 21
368.034
  0
LINE
  8
0
 10
-235.296
 20
368.034
 11
-234.991
 21
367.787
  0
LINE
  8
0
 10
-234.991
 20
367.787
 11
-234.713
 21
367.509
  0
LINE
  8
0
 10
-234.713
 20
367.509
 11
-234.466
 21
367.204
  0
LINE
  8
0
 10
-234.466
 20
367.204
 11
-234.252
 21
366.875
  0
LINE
  8
0
 10
-234.252
 20
366.875
 11
-234.074
 21
366.525
  0
LINE
  8
0
 10
-234.074
 20
366.525
 11
-233.934
 21
366.159
  0
LINE
  8
0
 10
-233.934
 20
366.159
 11
-233.832
 21
365.78
  0
LINE
  8
0
 10
-233.832
 20
365.78
 11
-233.771
 21
365.392
  0
LINE
  8
0
 10
-233.771
 20
365.392
 11
-233.75
 21
365
  0
LINE
  8
0
 10
-233.75
 20
365
 11
-233.771
 21
364.608
  0
LINE
  8
0
 10
-233.771
 20
364.608
 11
-233.832
 21
364.22
  0
LINE
  8
0
 10
-233.832
 20
364.22
 11
-233.934
 21
363.841
  0
LINE
  8
0
 10
-233.934
 20
363.841
 11
-234.074
 21
363.475
  0
LINE
  8
0
 10
-234.074
 20
363.475
 11
-234.252
 21
363.125
  0
LINE
  8
0
 10
-234.252
 20
363.125
 11
-234.466
 21
362.796
  0
LINE
  8
0
 10
-234.466
 20
362.796
 11
-234.713
 21
362.491
  0
LINE
  8
0
 10
-234.713
 20
362.491
 11
-234.991
 21
362.213
  0
LINE
  8
0
 10
-234.991
 20
362.213
 11
-235.296
 21
361.966
  0
LINE
  8
0
 10
-235.296
 20
361.966
 11
-235.625
 21
361.752
  0
LINE
  8
0
 10
-235.625
 20
361.752
 11
-235.975
 21
361.574
  0
LINE
  8
0
 10
-235.975
 20
361.574
 11
-236.341
 21
361.434
  0
LINE
  8
0
 10
-236.341
 20
361.434
 11
-236.72
 21
361.332
  0
LINE
  8
0
 10
-236.72
 20
361.332
 11
-237.108
 21
361.271
  0
LINE
  8
0
 10
-237.108
 20
361.271
 11
-237.5
 21
361.25
  0
LINE
  8
0
 10
-237.5
 20
361.25
 11
-237.892
 21
361.271
  0
LINE
  8
0
 10
-195.309
 20
363.328
 11
-195.549
 21
363.391
  0
LINE
  8
0
 10
-195.549
 20
363.391
 11
-195.777
 21
363.488
  0
LINE
  8
0
 10
-195.777
 20
363.488
 11
-195.989
 21
363.617
  0
LINE
  8
0
 10
-195.989
 20
363.617
 11
-196.18
 21
363.776
  0
LINE
  8
0
 10
-196.18
 20
363.776
 11
-196.346
 21
363.961
  0
LINE
  8
0
 10
-196.346
 20
363.961
 11
-196.482
 21
364.168
  0
LINE
  8
0
 10
-196.482
 20
364.168
 11
-196.588
 21
364.393
  0
LINE
  8
0
 10
-196.588
 20
364.393
 11
-196.659
 21
364.63
  0
LINE
  8
0
 10
-196.659
 20
364.63
 11
-196.695
 21
364.876
  0
LINE
  8
0
 10
-196.695
 20
364.876
 11
-196.695
 21
365.124
  0
LINE
  8
0
 10
-196.695
 20
365.124
 11
-196.659
 21
365.37
  0
LINE
  8
0
 10
-196.659
 20
365.37
 11
-196.588
 21
365.607
  0
LINE
  8
0
 10
-196.588
 20
365.607
 11
-196.482
 21
365.832
  0
LINE
  8
0
 10
-196.482
 20
365.832
 11
-196.346
 21
366.039
  0
LINE
  8
0
 10
-196.346
 20
366.039
 11
-196.18
 21
366.224
  0
LINE
  8
0
 10
-196.18
 20
366.224
 11
-195.989
 21
366.383
  0
LINE
  8
0
 10
-195.989
 20
366.383
 11
-195.777
 21
366.512
  0
LINE
  8
0
 10
-195.777
 20
366.512
 11
-195.549
 21
366.609
  0
LINE
  8
0
 10
-195.549
 20
366.609
 11
-195.309
 21
366.672
  0
LINE
  8
0
 10
-195.309
 20
366.672
 11
-195.062
 21
366.699
  0
LINE
  8
0
 10
-195.062
 20
366.699
 11
-194.814
 21
366.69
  0
LINE
  8
0
 10
-194.814
 20
366.69
 11
-194.57
 21
366.645
  0
LINE
  8
0
 10
-194.57
 20
366.645
 11
-194.335
 21
366.565
  0
LINE
  8
0
 10
-194.335
 20
366.565
 11
-194.114
 21
366.451
  0
LINE
  8
0
 10
-194.114
 20
366.451
 11
-193.913
 21
366.307
  0
LINE
  8
0
 10
-193.913
 20
366.307
 11
-193.734
 21
366.134
  0
LINE
  8
0
 10
-193.734
 20
366.134
 11
-193.582
 21
365.938
  0
LINE
  8
0
 10
-193.582
 20
365.938
 11
-193.461
 21
365.722
  0
LINE
  8
0
 10
-193.461
 20
365.722
 11
-193.372
 21
365.49
  0
LINE
  8
0
 10
-193.372
 20
365.49
 11
-193.318
 21
365.248
  0
LINE
  8
0
 10
-193.318
 20
365.248
 11
-193.3
 21
365
  0
LINE
  8
0
 10
-193.3
 20
365
 11
-193.318
 21
364.752
  0
LINE
  8
0
 10
-193.318
 20
364.752
 11
-193.372
 21
364.51
  0
LINE
  8
0
 10
-193.372
 20
364.51
 11
-193.461
 21
364.278
  0
LINE
  8
0
 10
-193.461
 20
364.278
 11
-193.582
 21
364.062
  0
LINE
  8
0
 10
-193.582
 20
364.062
 11
-193.734
 21
363.866
  0
LINE
  8
0
 10
-193.734
 20
363.866
 11
-193.913
 21
363.693
  0
LINE
  8
0
 10
-193.913
 20
363.693
 11
-194.114
 21
363.549
  0
LINE
  8
0
 10
-194.114
 20
363.549
 11
-194.335
 21
363.435
  0
LINE
  8
0
 10
-194.335
 20
363.435
 11
-194.57
 21
363.355
  0
LINE
  8
0
 10
-194.57
 20
363.355
 11
-194.814
 21
363.31
  0
LINE
  8
0
 10
-194.814
 20
363.31
 11
-195.062
 21
363.301
  0
LINE
  8
0
 10
-195.062
 20
363.301
 11
-195.309
 21
363.328
  0
LINE
  8
0
 10
194.691
 20
363.328
 11
194.451
 21
363.391
  0
LINE
  8
0
 10
194.451
 20
363.391
 11
194.223
 21
363.488
  0
LINE
  8
0
 10
194.223
 20
363.488
 11
194.011
 21
363.617
  0
LINE
  8
0
 10
194.011
 20
363.617
 11
193.82
 21
363.776
  0
LINE
  8
0
 10
193.82
 20
363.776
 11
193.654
 21
363.961
  0
LINE
  8
0
 10
193.654
 20
363.961
 11
193.518
 21
364.168
  0
LINE
  8
0
 10
193.518
 20
364.168
 11
193.412
 21
364.393
  0
LINE
  8
0
 10
193.412
 20
364.393
 11
193.341
 21
364.63
  0
LINE
  8
0
 10
193.341
 20
364.63
 11
193.305
 21
364.876
  0
LINE
  8
0
 10
193.305
 20
364.876
 11
193.305
 21
365.124
  0
LINE
  8
0
 10
193.305
 20
365.124
 11
193.341
 21
365.37
  0
LINE
  8
0
 10
193.341
 20
365.37
 11
193.412
 21
365.607
  0
LINE
  8
0
 10
193.412
 20
365.607
 11
193.518
 21
365.832
  0
LINE
  8
0
 10
193.518
 20
365.832
 11
193.654
 21
366.039
  0
LINE
  8
0
 10
193.654
 20
366.039
 11
193.82
 21
366.224
  0
LINE
  8
0
 10
193.82
 20
366.224
 11
194.011
 21
366.383
  0
LINE
  8
0
 10
194.011
 20
366.383
 11
194.223
 21
366.512
  0
LINE
  8
0
 10
194.223
 20
366.512
 11
194.451
 21
366.609
  0
LINE
  8
0
 10
194.451
 20
366.609
 11
194.691
 21
366.672
  0
LINE
  8
0
 10
194.691
 20
366.672
 11
194.938
 21
366.699
  0
LINE
  8
0
 10
194.938
 20
366.699
 11
195.186
 21
366.69
  0
LINE
  8
0
 10
195.186
 20
366.69
 11
195.43
 21
366.645
  0
LINE
  8
0
 10
195.43
 20
366.645
 11
195.665
 21
366.565
  0
LINE
  8
0
 10
195.665
 20
366.565
 11
195.886
 21
366.451
  0
LINE
  8
0
 10
195.886
 20
366.451
 11
196.087
 21
366.307
  0
LINE
  8
0
 10
196.087
 20
366.307
 11
196.266
 21
366.134
  0
LINE
  8
0
 10
196.266
 20
366.134
 11
196.418
 21
365.938
  0
LINE
  8
0
 10
196.418
 20
365.938
 11
196.539
 21
365.722
  0
LINE
  8
0
 10
196.539
 20
365.722
 11
196.628
 21
365.49
  0
LINE
  8
0
 10
196.628
 20
365.49
 11
196.682
 21
365.248
  0
LINE
  8
0
 10
196.682
 20
365.248
 11
196.7
 21
365
  0
LINE
  8
0
 10
196.7
 20
365
 11
196.682
 21
364.752
  0
LINE
  8
0
 10
196.682
 20
364.752
 11
196.628
 21
364.51
  0
LINE
  8
0
 10
196.628
 20
364.51
 11
196.539
 21
364.278
  0
LINE
  8
0
 10
196.539
 20
364.278
 11
196.418
 21
364.062
  0
LINE
  8
0
 10
196.418
 20
364.062
 11
196.266
 21
363.866
  0
LINE
  8
0
 10
196.266
 20
363.866
 11
196.087
 21
363.693
  0
LINE
  8
0
 10
196.087
 20
363.693
 11
195.886
 21
363.549
  0
LINE
  8
0
 10
195.886
 20
363.549
 11
195.665
 21
363.435
  0
LINE
  8
0
 10
195.665
 20
363.435
 11
195.43
 21
363.355
  0
LINE
  8
0
 10
195.43
 20
363.355
 11
195.186
 21
363.31
  0
LINE
  8
0
 10
195.186
 20
363.31
 11
194.938
 21
363.301
  0
LINE
  8
0
 10
194.938
 20
363.301
 11
194.691
 21
363.328
  0
LINE
  8
0
 10
-97.8088
 20
363.328
 11
-98.0489
 21
363.391
  0
LINE
  8
0
 10
-98.0489
 20
363.391
 11
-98.2773
 21
363.488
  0
LINE
  8
0
 10
-98.2773
 20
363.488
 11
-98.4892
 21
363.617
  0
LINE
  8
0
 10
-98.4892
 20
363.617
 11
-98.6799
 21
363.776
  0
LINE
  8
0
 10
-98.6799
 20
363.776
 11
-98.8455
 21
363.961
  0
LINE
  8
0
 10
-98.8455
 20
363.961
 11
-98.9825
 21
364.168
  0
LINE
  8
0
 10
-98.9825
 20
364.168
 11
-99.0878
 21
364.393
  0
LINE
  8
0
 10
-99.0878
 20
364.393
 11
-99.1593
 21
364.63
  0
LINE
  8
0
 10
-99.1593
 20
364.63
 11
-99.1955
 21
364.876
  0
LINE
  8
0
 10
-99.1955
 20
364.876
 11
-99.1955
 21
365.124
  0
LINE
  8
0
 10
-99.1955
 20
365.124
 11
-99.1593
 21
365.37
  0
LINE
  8
0
 10
-99.1593
 20
365.37
 11
-99.0878
 21
365.607
  0
LINE
  8
0
 10
-99.0878
 20
365.607
 11
-98.9825
 21
365.832
  0
LINE
  8
0
 10
-98.9825
 20
365.832
 11
-98.8455
 21
366.039
  0
LINE
  8
0
 10
-98.8455
 20
366.039
 11
-98.6799
 21
366.224
  0
LINE
  8
0
 10
-98.6799
 20
366.224
 11
-98.4892
 21
366.383
  0
LINE
  8
0
 10
-98.4892
 20
366.383
 11
-98.2773
 21
366.512
  0
LINE
  8
0
 10
-98.2773
 20
366.512
 11
-98.0489
 21
366.609
  0
LINE
  8
0
 10
-98.0489
 20
366.609
 11
-97.8088
 21
366.672
  0
LINE
  8
0
 10
-97.8088
 20
366.672
 11
-97.5621
 21
366.699
  0
LINE
  8
0
 10
-97.5621
 20
366.699
 11
-97.3141
 21
366.69
  0
LINE
  8
0
 10
-97.3141
 20
366.69
 11
-97.07
 21
366.645
  0
LINE
  8
0
 10
-97.07
 20
366.645
 11
-96.8351
 21
366.565
  0
LINE
  8
0
 10
-96.8351
 20
366.565
 11
-96.6144
 21
366.451
  0
LINE
  8
0
 10
-96.6144
 20
366.451
 11
-96.4126
 21
366.307
  0
LINE
  8
0
 10
-96.4126
 20
366.307
 11
-96.2339
 21
366.134
  0
LINE
  8
0
 10
-96.2339
 20
366.134
 11
-96.0822
 21
365.938
  0
LINE
  8
0
 10
-96.0822
 20
365.938
 11
-95.9607
 21
365.722
  0
LINE
  8
0
 10
-95.9607
 20
365.722
 11
-95.8721
 21
365.49
  0
LINE
  8
0
 10
-95.8721
 20
365.49
 11
-95.8181
 21
365.248
  0
LINE
  8
0
 10
-95.8181
 20
365.248
 11
-95.8
 21
365
  0
LINE
  8
0
 10
-95.8
 20
365
 11
-95.8181
 21
364.752
  0
LINE
  8
0
 10
-95.8181
 20
364.752
 11
-95.8721
 21
364.51
  0
LINE
  8
0
 10
-95.8721
 20
364.51
 11
-95.9607
 21
364.278
  0
LINE
  8
0
 10
-95.9607
 20
364.278
 11
-96.0822
 21
364.062
  0
LINE
  8
0
 10
-96.0822
 20
364.062
 11
-96.2339
 21
363.866
  0
LINE
  8
0
 10
-96.2339
 20
363.866
 11
-96.4126
 21
363.693
  0
LINE
  8
0
 10
-96.4126
 20
363.693
 11
-96.6144
 21
363.549
  0
LINE
  8
0
 10
-96.6144
 20
363.549
 11
-96.8351
 21
363.435
  0
LINE
  8
0
 10
-96.8351
 20
363.435
 11
-97.07
 21
363.355
  0
LINE
  8
0
 10
-97.07
 20
363.355
 11
-97.3141
 21
363.31
  0
LINE
  8
0
 10
-97.3141
 20
363.31
 11
-97.5621
 21
363.301
  0
LINE
  8
0
 10
-97.5621
 20
363.301
 11
-97.8088
 21
363.328
  0
LINE
  8
0
 10
0.429977
 20
366.645
 11
0.664871
 21
366.565
  0
LINE
  8
0
 10
0.664871
 20
366.565
 11
0.88559
 21
366.451
  0
LINE
  8
0
 10
0.88559
 20
366.451
 11
1.08743
 21
366.307
  0
LINE
  8
0
 10
1.08743
 20
366.307
 11
1.2661
 21
366.134
  0
LINE
  8
0
 10
1.2661
 20
366.134
 11
1.41779
 21
365.938
  0
LINE
  8
0
 10
1.41779
 20
365.938
 11
1.53926
 21
365.722
  0
LINE
  8
0
 10
1.53926
 20
365.722
 11
1.62791
 21
365.49
  0
LINE
  8
0
 10
1.62791
 20
365.49
 11
1.68187
 21
365.248
  0
LINE
  8
0
 10
1.68187
 20
365.248
 11
1.7
 21
365
  0
LINE
  8
0
 10
1.7
 20
365
 11
1.68187
 21
364.752
  0
LINE
  8
0
 10
1.68187
 20
364.752
 11
1.62791
 21
364.51
  0
LINE
  8
0
 10
1.62791
 20
364.51
 11
1.53926
 21
364.278
  0
LINE
  8
0
 10
1.53926
 20
364.278
 11
1.41779
 21
364.062
  0
LINE
  8
0
 10
1.41779
 20
364.062
 11
1.2661
 21
363.866
  0
LINE
  8
0
 10
1.2661
 20
363.866
 11
1.08743
 21
363.693
  0
LINE
  8
0
 10
1.08743
 20
363.693
 11
0.88559
 21
363.549
  0
LINE
  8
0
 10
0.88559
 20
363.549
 11
0.664871
 21
363.435
  0
LINE
  8
0
 10
0.664871
 20
363.435
 11
0.429977
 21
363.355
  0
LINE
  8
0
 10
0.429977
 20
363.355
 11
0.185928
 21
363.31
  0
LINE
  8
0
 10
0.185928
 20
363.31
 11
-0.0620728
 21
363.301
  0
LINE
  8
0
 10
-0.0620728
 20
363.301
 11
-0.308777
 21
363.328
  0
LINE
  8
0
 10
-0.308777
 20
363.328
 11
-0.548889
 21
363.391
  0
LINE
  8
0
 10
-0.548889
 20
363.391
 11
-0.777298
 21
363.488
  0
LINE
  8
0
 10
-0.777298
 20
363.488
 11
-0.989151
 21
363.617
  0
LINE
  8
0
 10
-0.989151
 20
363.617
 11
-1.17992
 21
363.776
  0
LINE
  8
0
 10
-1.17992
 20
363.776
 11
-1.34554
 21
363.961
  0
LINE
  8
0
 10
-1.34554
 20
363.961
 11
-1.48248
 21
364.168
  0
LINE
  8
0
 10
-1.48248
 20
364.168
 11
-1.58781
 21
364.393
  0
LINE
  8
0
 10
-1.58781
 20
364.393
 11
-1.65932
 21
364.63
  0
LINE
  8
0
 10
-1.65932
 20
364.63
 11
-1.69545
 21
364.876
  0
LINE
  8
0
 10
-1.69545
 20
364.876
 11
-1.69545
 21
365.124
  0
LINE
  8
0
 10
-1.69545
 20
365.124
 11
-1.65932
 21
365.37
  0
LINE
  8
0
 10
-1.65932
 20
365.37
 11
-1.58781
 21
365.607
  0
LINE
  8
0
 10
-1.58781
 20
365.607
 11
-1.48248
 21
365.832
  0
LINE
  8
0
 10
-1.48248
 20
365.832
 11
-1.34554
 21
366.039
  0
LINE
  8
0
 10
-1.34554
 20
366.039
 11
-1.17992
 21
366.224
  0
LINE
  8
0
 10
-1.17992
 20
366.224
 11
-0.989151
 21
366.383
  0
LINE
  8
0
 10
-0.989151
 20
366.383
 11
-0.777298
 21
366.512
  0
LINE
  8
0
 10
-0.777298
 20
366.512
 11
-0.548889
 21
366.609
  0
LINE
  8
0
 10
-0.548889
 20
366.609
 11
-0.308777
 21
366.672
  0
LINE
  8
0
 10
-0.308777
 20
366.672
 11
-0.0620728
 21
366.699
  0
LINE
  8
0
 10
-0.0620728
 20
366.699
 11
0.185928
 21
366.69
  0
LINE
  8
0
 10
0.185928
 20
366.69
 11
0.429977
 21
366.645
  0
LINE
  8
0
 10
97.1912
 20
363.328
 11
96.9511
 21
363.391
  0
LINE
  8
0
 10
96.9511
 20
363.391
 11
96.7227
 21
363.488
  0
LINE
  8
0
 10
96.7227
 20
363.488
 11
96.5108
 21
363.617
  0
LINE
  8
0
 10
96.5108
 20
363.617
 11
96.3201
 21
363.776
  0
LINE
  8
0
 10
96.3201
 20
363.776
 11
96.1544
 21
363.961
  0
LINE
  8
0
 10
96.1544
 20
363.961
 11
96.0175
 21
364.168
  0
LINE
  8
0
 10
96.0175
 20
364.168
 11
95.9122
 21
364.393
  0
LINE
  8
0
 10
95.9122
 20
364.393
 11
95.8407
 21
364.63
  0
LINE
  8
0
 10
95.8407
 20
364.63
 11
95.8045
 21
364.876
  0
LINE
  8
0
 10
95.8045
 20
364.876
 11
95.8045
 21
365.124
  0
LINE
  8
0
 10
95.8045
 20
365.124
 11
95.8407
 21
365.37
  0
LINE
  8
0
 10
95.8407
 20
365.37
 11
95.9122
 21
365.607
  0
LINE
  8
0
 10
95.9122
 20
365.607
 11
96.0175
 21
365.832
  0
LINE
  8
0
 10
96.0175
 20
365.832
 11
96.1544
 21
366.039
  0
LINE
  8
0
 10
96.1544
 20
366.039
 11
96.3201
 21
366.224
  0
LINE
  8
0
 10
96.3201
 20
366.224
 11
96.5108
 21
366.383
  0
LINE
  8
0
 10
96.5108
 20
366.383
 11
96.7227
 21
366.512
  0
LINE
  8
0
 10
96.7227
 20
366.512
 11
96.9511
 21
366.609
  0
LINE
  8
0
 10
96.9511
 20
366.609
 11
97.1912
 21
366.672
  0
LINE
  8
0
 10
97.1912
 20
366.672
 11
97.4379
 21
366.699
  0
LINE
  8
0
 10
97.4379
 20
366.699
 11
97.6859
 21
366.69
  0
LINE
  8
0
 10
97.6859
 20
366.69
 11
97.93
 21
366.645
  0
LINE
  8
0
 10
97.93
 20
366.645
 11
98.1649
 21
366.565
  0
LINE
  8
0
 10
98.1649
 20
366.565
 11
98.3856
 21
366.451
  0
LINE
  8
0
 10
98.3856
 20
366.451
 11
98.5874
 21
366.307
  0
LINE
  8
0
 10
98.5874
 20
366.307
 11
98.7661
 21
366.134
  0
LINE
  8
0
 10
98.7661
 20
366.134
 11
98.9178
 21
365.938
  0
LINE
  8
0
 10
98.9178
 20
365.938
 11
99.0393
 21
365.722
  0
LINE
  8
0
 10
99.0393
 20
365.722
 11
99.1279
 21
365.49
  0
LINE
  8
0
 10
99.1279
 20
365.49
 11
99.1819
 21
365.248
  0
LINE
  8
0
 10
99.1819
 20
365.248
 11
99.2
 21
365
  0
LINE
  8
0
 10
99.2
 20
365
 11
99.1819
 21
364.752
  0
LINE
  8
0
 10
99.1819
 20
364.752
 11
99.1279
 21
364.51
  0
LINE
  8
0
 10
99.1279
 20
364.51
 11
99.0393
 21
364.278
  0
LINE
  8
0
 10
99.0393
 20
364.278
 11
98.9178
 21
364.062
  0
LINE
  8
0
 10
98.9178
 20
364.062
 11
98.7661
 21
363.866
  0
LINE
  8
0
 10
98.7661
 20
363.866
 11
98.5874
 21
363.693
  0
LINE
  8
0
 10
98.5874
 20
363.693
 11
98.3856
 21
363.549
  0
LINE
  8
0
 10
98.3856
 20
363.549
 11
98.1649
 21
363.435
  0
LINE
  8
0
 10
98.1649
 20
363.435
 11
97.93
 21
363.355
  0
LINE
  8
0
 10
97.93
 20
363.355
 11
97.6859
 21
363.31
  0
LINE
  8
0
 10
97.6859
 20
363.31
 11
97.4379
 21
363.301
  0
LINE
  8
0
 10
97.4379
 20
363.301
 11
97.1912
 21
363.328
  0
LINE
  8
0
 10
237.191
 20
320.828
 11
236.951
 21
320.891
  0
LINE
  8
0
 10
236.951
 20
320.891
 11
236.723
 21
320.988
  0
LINE
  8
0
 10
236.723
 20
320.988
 11
236.511
 21
321.117
  0
LINE
  8
0
 10
236.511
 20
321.117
 11
236.32
 21
321.276
  0
LINE
  8
0
 10
236.32
 20
321.276
 11
236.154
 21
321.461
  0
LINE
  8
0
 10
236.154
 20
321.461
 11
236.018
 21
321.668
  0
LINE
  8
0
 10
236.018
 20
321.668
 11
235.912
 21
321.893
  0
LINE
  8
0
 10
235.912
 20
321.893
 11
235.841
 21
322.13
  0
LINE
  8
0
 10
235.841
 20
322.13
 11
235.805
 21
322.376
  0
LINE
  8
0
 10
235.805
 20
322.376
 11
235.805
 21
322.624
  0
LINE
  8
0
 10
235.805
 20
322.624
 11
235.841
 21
322.87
  0
LINE
  8
0
 10
235.841
 20
322.87
 11
235.912
 21
323.107
  0
LINE
  8
0
 10
235.912
 20
323.107
 11
236.018
 21
323.332
  0
LINE
  8
0
 10
236.018
 20
323.332
 11
236.154
 21
323.539
  0
LINE
  8
0
 10
236.154
 20
323.539
 11
236.32
 21
323.724
  0
LINE
  8
0
 10
236.32
 20
323.724
 11
236.511
 21
323.883
  0
LINE
  8
0
 10
236.511
 20
323.883
 11
236.723
 21
324.012
  0
LINE
  8
0
 10
236.723
 20
324.012
 11
236.951
 21
324.109
  0
LINE
  8
0
 10
236.951
 20
324.109
 11
237.191
 21
324.172
  0
LINE
  8
0
 10
237.191
 20
324.172
 11
237.438
 21
324.199
  0
LINE
  8
0
 10
237.438
 20
324.199
 11
237.686
 21
324.19
  0
LINE
  8
0
 10
237.686
 20
324.19
 11
237.93
 21
324.145
  0
LINE
  8
0
 10
237.93
 20
324.145
 11
238.165
 21
324.065
  0
LINE
  8
0
 10
238.165
 20
324.065
 11
238.386
 21
323.951
  0
LINE
  8
0
 10
238.386
 20
323.951
 11
238.587
 21
323.807
  0
LINE
  8
0
 10
238.587
 20
323.807
 11
238.766
 21
323.634
  0
LINE
  8
0
 10
238.766
 20
323.634
 11
238.918
 21
323.438
  0
LINE
  8
0
 10
238.918
 20
323.438
 11
239.039
 21
323.222
  0
LINE
  8
0
 10
239.039
 20
323.222
 11
239.128
 21
322.99
  0
LINE
  8
0
 10
239.128
 20
322.99
 11
239.182
 21
322.748
  0
LINE
  8
0
 10
239.182
 20
322.748
 11
239.2
 21
322.5
  0
LINE
  8
0
 10
239.2
 20
322.5
 11
239.182
 21
322.252
  0
LINE
  8
0
 10
239.182
 20
322.252
 11
239.128
 21
322.01
  0
LINE
  8
0
 10
239.128
 20
322.01
 11
239.039
 21
321.778
  0
LINE
  8
0
 10
239.039
 20
321.778
 11
238.918
 21
321.562
  0
LINE
  8
0
 10
238.918
 20
321.562
 11
238.766
 21
321.366
  0
LINE
  8
0
 10
238.766
 20
321.366
 11
238.587
 21
321.193
  0
LINE
  8
0
 10
238.587
 20
321.193
 11
238.386
 21
321.049
  0
LINE
  8
0
 10
238.386
 20
321.049
 11
238.165
 21
320.935
  0
LINE
  8
0
 10
238.165
 20
320.935
 11
237.93
 21
320.855
  0
LINE
  8
0
 10
237.93
 20
320.855
 11
237.686
 21
320.81
  0
LINE
  8
0
 10
237.686
 20
320.81
 11
237.438
 21
320.801
  0
LINE
  8
0
 10
237.438
 20
320.801
 11
237.191
 21
320.828
  0
LINE
  8
0
 10
-237.686
 20
320.81
 11
-237.93
 21
320.855
  0
LINE
  8
0
 10
-237.93
 20
320.855
 11
-238.165
 21
320.935
  0
LINE
  8
0
 10
-238.165
 20
320.935
 11
-238.386
 21
321.049
  0
LINE
  8
0
 10
-238.386
 20
321.049
 11
-238.587
 21
321.193
  0
LINE
  8
0
 10
-238.587
 20
321.193
 11
-238.766
 21
321.366
  0
LINE
  8
0
 10
-238.766
 20
321.366
 11
-238.918
 21
321.562
  0
LINE
  8
0
 10
-238.918
 20
321.562
 11
-239.039
 21
321.778
  0
LINE
  8
0
 10
-239.039
 20
321.778
 11
-239.128
 21
322.01
  0
LINE
  8
0
 10
-239.128
 20
322.01
 11
-239.182
 21
322.252
  0
LINE
  8
0
 10
-239.182
 20
322.252
 11
-239.2
 21
322.5
  0
LINE
  8
0
 10
-239.2
 20
322.5
 11
-239.182
 21
322.748
  0
LINE
  8
0
 10
-239.182
 20
322.748
 11
-239.128
 21
322.99
  0
LINE
  8
0
 10
-239.128
 20
322.99
 11
-239.039
 21
323.222
  0
LINE
  8
0
 10
-239.039
 20
323.222
 11
-238.918
 21
323.438
  0
LINE
  8
0
 10
-238.918
 20
323.438
 11
-238.766
 21
323.634
  0
LINE
  8
0
 10
-238.766
 20
323.634
 11
-238.587
 21
323.807
  0
LINE
  8
0
 10
-238.587
 20
323.807
 11
-238.386
 21
323.951
  0
LINE
  8
0
 10
-238.386
 20
323.951
 11
-238.165
 21
324.065
  0
LINE
  8
0
 10
-238.165
 20
324.065
 11
-237.93
 21
324.145
  0
LINE
  8
0
 10
-237.93
 20
324.145
 11
-237.686
 21
324.19
  0
LINE
  8
0
 10
-237.686
 20
324.19
 11
-237.438
 21
324.199
  0
LINE
  8
0
 10
-237.438
 20
324.199
 11
-237.191
 21
324.172
  0
LINE
  8
0
 10
-237.191
 20
324.172
 11
-236.951
 21
324.109
  0
LINE
  8
0
 10
-236.951
 20
324.109
 11
-236.723
 21
324.012
  0
LINE
  8
0
 10
-236.723
 20
324.012
 11
-236.511
 21
323.883
  0
LINE
  8
0
 10
-236.511
 20
323.883
 11
-236.32
 21
323.724
  0
LINE
  8
0
 10
-236.32
 20
323.724
 11
-236.154
 21
323.539
  0
LINE
  8
0
 10
-236.154
 20
323.539
 11
-236.018
 21
323.332
  0
LINE
  8
0
 10
-236.018
 20
323.332
 11
-235.912
 21
323.107
  0
LINE
  8
0
 10
-235.912
 20
323.107
 11
-235.841
 21
322.87
  0
LINE
  8
0
 10
-235.841
 20
322.87
 11
-235.805
 21
322.624
  0
LINE
  8
0
 10
-235.805
 20
322.624
 11
-235.805
 21
322.376
  0
LINE
  8
0
 10
-235.805
 20
322.376
 11
-235.841
 21
322.13
  0
LINE
  8
0
 10
-235.841
 20
322.13
 11
-235.912
 21
321.893
  0
LINE
  8
0
 10
-235.912
 20
321.893
 11
-236.018
 21
321.668
  0
LINE
  8
0
 10
-236.018
 20
321.668
 11
-236.154
 21
321.461
  0
LINE
  8
0
 10
-236.154
 20
321.461
 11
-236.32
 21
321.276
  0
LINE
  8
0
 10
-236.32
 20
321.276
 11
-236.511
 21
321.117
  0
LINE
  8
0
 10
-236.511
 20
321.117
 11
-236.723
 21
320.988
  0
LINE
  8
0
 10
-236.723
 20
320.988
 11
-236.951
 21
320.891
  0
LINE
  8
0
 10
-236.951
 20
320.891
 11
-237.191
 21
320.828
  0
LINE
  8
0
 10
-237.191
 20
320.828
 11
-237.438
 21
320.801
  0
LINE
  8
0
 10
-237.438
 20
320.801
 11
-237.686
 21
320.81
  0
LINE
  8
0
 10
237.191
 20
228.685
 11
236.951
 21
228.748
  0
LINE
  8
0
 10
236.951
 20
228.748
 11
236.723
 21
228.845
  0
LINE
  8
0
 10
236.723
 20
228.845
 11
236.511
 21
228.975
  0
LINE
  8
0
 10
236.511
 20
228.975
 11
236.32
 21
229.133
  0
LINE
  8
0
 10
236.32
 20
229.133
 11
236.154
 21
229.318
  0
LINE
  8
0
 10
236.154
 20
229.318
 11
236.018
 21
229.525
  0
LINE
  8
0
 10
236.018
 20
229.525
 11
235.912
 21
229.75
  0
LINE
  8
0
 10
235.912
 20
229.75
 11
235.841
 21
229.988
  0
LINE
  8
0
 10
235.841
 20
229.988
 11
235.805
 21
230.233
  0
LINE
  8
0
 10
235.805
 20
230.233
 11
235.805
 21
230.481
  0
LINE
  8
0
 10
235.805
 20
230.481
 11
235.841
 21
230.727
  0
LINE
  8
0
 10
235.841
 20
230.727
 11
235.912
 21
230.964
  0
LINE
  8
0
 10
235.912
 20
230.964
 11
236.018
 21
231.189
  0
LINE
  8
0
 10
236.018
 20
231.189
 11
236.154
 21
231.396
  0
LINE
  8
0
 10
236.154
 20
231.396
 11
236.32
 21
231.581
  0
LINE
  8
0
 10
236.32
 20
231.581
 11
236.511
 21
231.74
  0
LINE
  8
0
 10
236.511
 20
231.74
 11
236.723
 21
231.869
  0
LINE
  8
0
 10
236.723
 20
231.869
 11
236.951
 21
231.966
  0
LINE
  8
0
 10
236.951
 20
231.966
 11
237.191
 21
232.029
  0
LINE
  8
0
 10
237.191
 20
232.029
 11
237.438
 21
232.056
  0
LINE
  8
0
 10
237.438
 20
232.056
 11
237.686
 21
232.047
  0
LINE
  8
0
 10
237.686
 20
232.047
 11
237.93
 21
232.002
  0
LINE
  8
0
 10
237.93
 20
232.002
 11
238.165
 21
231.922
  0
LINE
  8
0
 10
238.165
 20
231.922
 11
238.386
 21
231.808
  0
LINE
  8
0
 10
238.386
 20
231.808
 11
238.587
 21
231.664
  0
LINE
  8
0
 10
238.587
 20
231.664
 11
238.766
 21
231.492
  0
LINE
  8
0
 10
238.766
 20
231.492
 11
238.918
 21
231.295
  0
LINE
  8
0
 10
238.918
 20
231.295
 11
239.039
 21
231.079
  0
LINE
  8
0
 10
239.039
 20
231.079
 11
239.128
 21
230.847
  0
LINE
  8
0
 10
239.128
 20
230.847
 11
239.182
 21
230.605
  0
LINE
  8
0
 10
239.182
 20
230.605
 11
239.2
 21
230.357
  0
LINE
  8
0
 10
239.2
 20
230.357
 11
239.182
 21
230.11
  0
LINE
  8
0
 10
239.182
 20
230.11
 11
239.128
 21
229.867
  0
LINE
  8
0
 10
239.128
 20
229.867
 11
239.039
 21
229.636
  0
LINE
  8
0
 10
239.039
 20
229.636
 11
238.918
 21
229.419
  0
LINE
  8
0
 10
238.918
 20
229.419
 11
238.766
 21
229.223
  0
LINE
  8
0
 10
238.766
 20
229.223
 11
238.587
 21
229.05
  0
LINE
  8
0
 10
238.587
 20
229.05
 11
238.386
 21
228.906
  0
LINE
  8
0
 10
238.386
 20
228.906
 11
238.165
 21
228.793
  0
LINE
  8
0
 10
238.165
 20
228.793
 11
237.93
 21
228.712
  0
LINE
  8
0
 10
237.93
 20
228.712
 11
237.686
 21
228.667
  0
LINE
  8
0
 10
237.686
 20
228.667
 11
237.438
 21
228.658
  0
LINE
  8
0
 10
237.438
 20
228.658
 11
237.191
 21
228.685
  0
LINE
  8
0
 10
-237.686
 20
228.667
 11
-237.93
 21
228.712
  0
LINE
  8
0
 10
-237.93
 20
228.712
 11
-238.165
 21
228.793
  0
LINE
  8
0
 10
-238.165
 20
228.793
 11
-238.386
 21
228.906
  0
LINE
  8
0
 10
-238.386
 20
228.906
 11
-238.587
 21
229.05
  0
LINE
  8
0
 10
-238.587
 20
229.05
 11
-238.766
 21
229.223
  0
LINE
  8
0
 10
-238.766
 20
229.223
 11
-238.918
 21
229.419
  0
LINE
  8
0
 10
-238.918
 20
229.419
 11
-239.039
 21
229.636
  0
LINE
  8
0
 10
-239.039
 20
229.636
 11
-239.128
 21
229.867
  0
LINE
  8
0
 10
-239.128
 20
229.867
 11
-239.182
 21
230.11
  0
LINE
  8
0
 10
-239.182
 20
230.11
 11
-239.2
 21
230.357
  0
LINE
  8
0
 10
-239.2
 20
230.357
 11
-239.182
 21
230.605
  0
LINE
  8
0
 10
-239.182
 20
230.605
 11
-239.128
 21
230.847
  0
LINE
  8
0
 10
-239.128
 20
230.847
 11
-239.039
 21
231.079
  0
LINE
  8
0
 10
-239.039
 20
231.079
 11
-238.918
 21
231.295
  0
LINE
  8
0
 10
-238.918
 20
231.295
 11
-238.766
 21
231.492
  0
LINE
  8
0
 10
-238.766
 20
231.492
 11
-238.587
 21
231.664
  0
LINE
  8
0
 10
-238.587
 20
231.664
 11
-238.386
 21
231.808
  0
LINE
  8
0
 10
-238.386
 20
231.808
 11
-238.165
 21
231.922
  0
LINE
  8
0
 10
-238.165
 20
231.922
 11
-237.93
 21
232.002
  0
LINE
  8
0
 10
-237.93
 20
232.002
 11
-237.686
 21
232.047
  0
LINE
  8
0
 10
-237.686
 20
232.047
 11
-237.438
 21
232.056
  0
LINE
  8
0
 10
-237.438
 20
232.056
 11
-237.191
 21
232.029
  0
LINE
  8
0
 10
-237.191
 20
232.029
 11
-236.951
 21
231.966
  0
LINE
  8
0
 10
-236.951
 20
231.966
 11
-236.723
 21
231.869
  0
LINE
  8
0
 10
-236.723
 20
231.869
 11
-236.511
 21
231.74
  0
LINE
  8
0
 10
-236.511
 20
231.74
 11
-236.32
 21
231.581
  0
LINE
  8
0
 10
-236.32
 20
231.581
 11
-236.154
 21
231.396
  0
LINE
  8
0
 10
-236.154
 20
231.396
 11
-236.018
 21
231.189
  0
LINE
  8
0
 10
-236.018
 20
231.189
 11
-235.912
 21
230.964
  0
LINE
  8
0
 10
-235.912
 20
230.964
 11
-235.841
 21
230.727
  0
LINE
  8
0
 10
-235.841
 20
230.727
 11
-235.805
 21
230.481
  0
LINE
  8
0
 10
-235.805
 20
230.481
 11
-235.805
 21
230.233
  0
LINE
  8
0
 10
-235.805
 20
230.233
 11
-235.841
 21
229.988
  0
LINE
  8
0
 10
-235.841
 20
229.988
 11
-235.912
 21
229.75
  0
LINE
  8
0
 10
-235.912
 20
229.75
 11
-236.018
 21
229.525
  0
LINE
  8
0
 10
-236.018
 20
229.525
 11
-236.154
 21
229.318
  0
LINE
  8
0
 10
-236.154
 20
229.318
 11
-236.32
 21
229.133
  0
LINE
  8
0
 10
-236.32
 20
229.133
 11
-236.511
 21
228.975
  0
LINE
  8
0
 10
-236.511
 20
228.975
 11
-236.723
 21
228.845
  0
LINE
  8
0
 10
-236.723
 20
228.845
 11
-236.951
 21
228.748
  0
LINE
  8
0
 10
-236.951
 20
228.748
 11
-237.191
 21
228.685
  0
LINE
  8
0
 10
-237.191
 20
228.685
 11
-237.438
 21
228.658
  0
LINE
  8
0
 10
-237.438
 20
228.658
 11
-237.686
 21
228.667
  0
LINE
  8
0
 10
-237.686
 20
136.524
 11
-237.93
 21
136.57
  0
LINE
  8
0
 10
-237.93
 20
136.57
 11
-238.165
 21
136.65
  0
LINE
  8
0
 10
-238.165
 20
136.65
 11
-238.386
 21
136.763
  0
LINE
  8
0
 10
-238.386
 20
136.763
 11
-238.587
 21
136.908
  0
LINE
  8
0
 10
-238.587
 20
136.908
 11
-238.766
 21
137.08
  0
LINE
  8
0
 10
-238.766
 20
137.08
 11
-238.918
 21
137.276
  0
LINE
  8
0
 10
-238.918
 20
137.276
 11
-239.039
 21
137.493
  0
LINE
  8
0
 10
-239.039
 20
137.493
 11
-239.128
 21
137.725
  0
LINE
  8
0
 10
-239.128
 20
137.725
 11
-239.182
 21
137.967
  0
LINE
  8
0
 10
-239.182
 20
137.967
 11
-239.2
 21
138.214
  0
LINE
  8
0
 10
-239.2
 20
138.214
 11
-239.182
 21
138.462
  0
LINE
  8
0
 10
-239.182
 20
138.462
 11
-239.128
 21
138.704
  0
LINE
  8
0
 10
-239.128
 20
138.704
 11
-239.039
 21
138.936
  0
LINE
  8
0
 10
-239.039
 20
138.936
 11
-238.918
 21
139.152
  0
LINE
  8
0
 10
-238.918
 20
139.152
 11
-238.766
 21
139.349
  0
LINE
  8
0
 10
-238.766
 20
139.349
 11
-238.587
 21
139.521
  0
LINE
  8
0
 10
-238.587
 20
139.521
 11
-238.386
 21
139.665
  0
LINE
  8
0
 10
-238.386
 20
139.665
 11
-238.165
 21
139.779
  0
LINE
  8
0
 10
-238.165
 20
139.779
 11
-237.93
 21
139.859
  0
LINE
  8
0
 10
-237.93
 20
139.859
 11
-237.686
 21
139.904
  0
LINE
  8
0
 10
-237.686
 20
139.904
 11
-237.438
 21
139.913
  0
LINE
  8
0
 10
-237.438
 20
139.913
 11
-237.191
 21
139.886
  0
LINE
  8
0
 10
-237.191
 20
139.886
 11
-236.951
 21
139.823
  0
LINE
  8
0
 10
-236.951
 20
139.823
 11
-236.723
 21
139.726
  0
LINE
  8
0
 10
-236.723
 20
139.726
 11
-236.511
 21
139.597
  0
LINE
  8
0
 10
-236.511
 20
139.597
 11
-236.32
 21
139.438
  0
LINE
  8
0
 10
-236.32
 20
139.438
 11
-236.154
 21
139.253
  0
LINE
  8
0
 10
-236.154
 20
139.253
 11
-236.018
 21
139.046
  0
LINE
  8
0
 10
-236.018
 20
139.046
 11
-235.912
 21
138.822
  0
LINE
  8
0
 10
-235.912
 20
138.822
 11
-235.841
 21
138.584
  0
LINE
  8
0
 10
-235.841
 20
138.584
 11
-235.805
 21
138.338
  0
LINE
  8
0
 10
-235.805
 20
138.338
 11
-235.805
 21
138.09
  0
LINE
  8
0
 10
-235.805
 20
138.09
 11
-235.841
 21
137.845
  0
LINE
  8
0
 10
-235.841
 20
137.845
 11
-235.912
 21
137.607
  0
LINE
  8
0
 10
-235.912
 20
137.607
 11
-236.018
 21
137.382
  0
LINE
  8
0
 10
-236.018
 20
137.382
 11
-236.154
 21
137.175
  0
LINE
  8
0
 10
-236.154
 20
137.175
 11
-236.32
 21
136.99
  0
LINE
  8
0
 10
-236.32
 20
136.99
 11
-236.511
 21
136.832
  0
LINE
  8
0
 10
-236.511
 20
136.832
 11
-236.723
 21
136.702
  0
LINE
  8
0
 10
-236.723
 20
136.702
 11
-236.951
 21
136.605
  0
LINE
  8
0
 10
-236.951
 20
136.605
 11
-237.191
 21
136.543
  0
LINE
  8
0
 10
-237.191
 20
136.543
 11
-237.438
 21
136.515
  0
LINE
  8
0
 10
-237.438
 20
136.515
 11
-237.686
 21
136.524
  0
LINE
  8
0
 10
237.191
 20
136.543
 11
236.951
 21
136.605
  0
LINE
  8
0
 10
236.951
 20
136.605
 11
236.723
 21
136.702
  0
LINE
  8
0
 10
236.723
 20
136.702
 11
236.511
 21
136.832
  0
LINE
  8
0
 10
236.511
 20
136.832
 11
236.32
 21
136.99
  0
LINE
  8
0
 10
236.32
 20
136.99
 11
236.154
 21
137.175
  0
LINE
  8
0
 10
236.154
 20
137.175
 11
236.018
 21
137.382
  0
LINE
  8
0
 10
236.018
 20
137.382
 11
235.912
 21
137.607
  0
LINE
  8
0
 10
235.912
 20
137.607
 11
235.841
 21
137.845
  0
LINE
  8
0
 10
235.841
 20
137.845
 11
235.805
 21
138.09
  0
LINE
  8
0
 10
235.805
 20
138.09
 11
235.805
 21
138.338
  0
LINE
  8
0
 10
235.805
 20
138.338
 11
235.841
 21
138.584
  0
LINE
  8
0
 10
235.841
 20
138.584
 11
235.912
 21
138.822
  0
LINE
  8
0
 10
235.912
 20
138.822
 11
236.018
 21
139.046
  0
LINE
  8
0
 10
236.018
 20
139.046
 11
236.154
 21
139.253
  0
LINE
  8
0
 10
236.154
 20
139.253
 11
236.32
 21
139.438
  0
LINE
  8
0
 10
236.32
 20
139.438
 11
236.511
 21
139.597
  0
LINE
  8
0
 10
236.511
 20
139.597
 11
236.723
 21
139.726
  0
LINE
  8
0
 10
236.723
 20
139.726
 11
236.951
 21
139.823
  0
LINE
  8
0
 10
236.951
 20
139.823
 11
237.191
 21
139.886
  0
LINE
  8
0
 10
237.191
 20
139.886
 11
237.438
 21
139.913
  0
LINE
  8
0
 10
237.438
 20
139.913
 11
237.686
 21
139.904
  0
LINE
  8
0
 10
237.686
 20
139.904
 11
237.93
 21
139.859
  0
LINE
  8
0
 10
237.93
 20
139.859
 11
238.165
 21
139.779
  0
LINE
  8
0
 10
238.165
 20
139.779
 11
238.386
 21
139.665
  0
LINE
  8
0
 10
238.386
 20
139.665
 11
238.587
 21
139.521
  0
LINE
  8
0
 10
238.587
 20
139.521
 11
238.766
 21
139.349
  0
LINE
  8
0
 10
238.766
 20
139.349
 11
238.918
 21
139.152
  0
LINE
  8
0
 10
238.918
 20
139.152
 11
239.039
 21
138.936
  0
LINE
  8
0
 10
239.039
 20
138.936
 11
239.128
 21
138.704
  0
LINE
  8
0
 10
239.128
 20
138.704
 11
239.182
 21
138.462
  0
LINE
  8
0
 10
239.182
 20
138.462
 11
239.2
 21
138.214
  0
LINE
  8
0
 10
239.2
 20
138.214
 11
239.182
 21
137.967
  0
LINE
  8
0
 10
239.182
 20
137.967
 11
239.128
 21
137.725
  0
LINE
  8
0
 10
239.128
 20
137.725
 11
239.039
 21
137.493
  0
LINE
  8
0
 10
239.039
 20
137.493
 11
238.918
 21
137.276
  0
LINE
  8
0
 10
238.918
 20
137.276
 11
238.766
 21
137.08
  0
LINE
  8
0
 10
238.766
 20
137.08
 11
238.587
 21
136.908
  0
LINE
  8
0
 10
238.587
 20
136.908
 11
238.386
 21
136.763
  0
LINE
  8
0
 10
238.386
 20
136.763
 11
238.165
 21
136.65
  0
LINE
  8
0
 10
238.165
 20
136.65
 11
237.93
 21
136.57
  0
LINE
  8
0
 10
237.93
 20
136.57
 11
237.686
 21
136.524
  0
LINE
  8
0
 10
237.686
 20
136.524
 11
237.438
 21
136.515
  0
LINE
  8
0
 10
237.438
 20
136.515
 11
237.191
 21
136.543
  0
LINE
  8
0
 10
235.805
 20
46.1955
 11
235.841
 21
46.4411
  0
LINE
  8
0
 10
235.841
 20
46.4411
 11
235.912
 21
46.6787
  0
LINE
  8
0
 10
235.912
 20
46.6787
 11
236.018
 21
46.9034
  0
LINE
  8
0
 10
236.018
 20
46.9034
 11
236.154
 21
47.1104
  0
LINE
  8
0
 10
236.154
 20
47.1104
 11
236.32
 21
47.2953
  0
LINE
  8
0
 10
236.32
 20
47.2953
 11
236.511
 21
47.454
  0
LINE
  8
0
 10
236.511
 20
47.454
 11
236.723
 21
47.5833
  0
LINE
  8
0
 10
236.723
 20
47.5833
 11
236.951
 21
47.6804
  0
LINE
  8
0
 10
236.951
 20
47.6804
 11
237.191
 21
47.7431
  0
LINE
  8
0
 10
237.191
 20
47.7431
 11
237.438
 21
47.7703
  0
LINE
  8
0
 10
237.438
 20
47.7703
 11
237.686
 21
47.7612
  0
LINE
  8
0
 10
237.686
 20
47.7612
 11
237.93
 21
47.7161
  0
LINE
  8
0
 10
237.93
 20
47.7161
 11
238.165
 21
47.636
  0
LINE
  8
0
 10
238.165
 20
47.636
 11
238.386
 21
47.5225
  0
LINE
  8
0
 10
238.386
 20
47.5225
 11
238.587
 21
47.3781
  0
LINE
  8
0
 10
238.587
 20
47.3781
 11
238.766
 21
47.2059
  0
LINE
  8
0
 10
238.766
 20
47.2059
 11
238.918
 21
47.0094
  0
LINE
  8
0
 10
238.918
 20
47.0094
 11
239.039
 21
46.793
  0
LINE
  8
0
 10
239.039
 20
46.793
 11
239.128
 21
46.5612
  0
LINE
  8
0
 10
239.128
 20
46.5612
 11
239.182
 21
46.3189
  0
LINE
  8
0
 10
239.182
 20
46.3189
 11
239.2
 21
46.0714
  0
LINE
  8
0
 10
239.2
 20
46.0714
 11
239.182
 21
45.8239
  0
LINE
  8
0
 10
239.182
 20
45.8239
 11
239.128
 21
45.5816
  0
LINE
  8
0
 10
239.128
 20
45.5816
 11
239.039
 21
45.3499
  0
LINE
  8
0
 10
239.039
 20
45.3499
 11
238.918
 21
45.1334
  0
LINE
  8
0
 10
238.918
 20
45.1334
 11
238.766
 21
44.937
  0
LINE
  8
0
 10
238.766
 20
44.937
 11
238.587
 21
44.7647
  0
LINE
  8
0
 10
238.587
 20
44.7647
 11
238.386
 21
44.6203
  0
LINE
  8
0
 10
238.386
 20
44.6203
 11
238.165
 21
44.5068
  0
LINE
  8
0
 10
238.165
 20
44.5068
 11
237.93
 21
44.4267
  0
LINE
  8
0
 10
237.93
 20
44.4267
 11
237.686
 21
44.3816
  0
LINE
  8
0
 10
237.686
 20
44.3816
 11
237.438
 21
44.3726
  0
LINE
  8
0
 10
237.438
 20
44.3726
 11
237.191
 21
44.3997
  0
LINE
  8
0
 10
237.191
 20
44.3997
 11
236.951
 21
44.4625
  0
LINE
  8
0
 10
236.951
 20
44.4625
 11
236.723
 21
44.5595
  0
LINE
  8
0
 10
236.723
 20
44.5595
 11
236.511
 21
44.6888
  0
LINE
  8
0
 10
236.511
 20
44.6888
 11
236.32
 21
44.8476
  0
LINE
  8
0
 10
236.32
 20
44.8476
 11
236.154
 21
45.0324
  0
LINE
  8
0
 10
236.154
 20
45.0324
 11
236.018
 21
45.2394
  0
LINE
  8
0
 10
236.018
 20
45.2394
 11
235.912
 21
45.4641
  0
LINE
  8
0
 10
235.912
 20
45.4641
 11
235.841
 21
45.7018
  0
LINE
  8
0
 10
235.841
 20
45.7018
 11
235.805
 21
45.9473
  0
LINE
  8
0
 10
235.805
 20
45.9473
 11
235.805
 21
46.1955
  0
LINE
  8
0
 10
237.191
 20
-47.7431
 11
236.951
 21
-47.6804
  0
LINE
  8
0
 10
236.951
 20
-47.6804
 11
236.723
 21
-47.5833
  0
LINE
  8
0
 10
236.723
 20
-47.5833
 11
236.511
 21
-47.454
  0
LINE
  8
0
 10
236.511
 20
-47.454
 11
236.32
 21
-47.2953
  0
LINE
  8
0
 10
236.32
 20
-47.2953
 11
236.154
 21
-47.1104
  0
LINE
  8
0
 10
236.154
 20
-47.1104
 11
236.018
 21
-46.9034
  0
LINE
  8
0
 10
236.018
 20
-46.9034
 11
235.912
 21
-46.6787
  0
LINE
  8
0
 10
235.912
 20
-46.6787
 11
235.841
 21
-46.4411
  0
LINE
  8
0
 10
235.841
 20
-46.4411
 11
235.805
 21
-46.1955
  0
LINE
  8
0
 10
235.805
 20
-46.1955
 11
235.805
 21
-45.9473
  0
LINE
  8
0
 10
235.805
 20
-45.9473
 11
235.841
 21
-45.7018
  0
LINE
  8
0
 10
235.841
 20
-45.7018
 11
235.912
 21
-45.4641
  0
LINE
  8
0
 10
235.912
 20
-45.4641
 11
236.018
 21
-45.2394
  0
LINE
  8
0
 10
236.018
 20
-45.2394
 11
236.154
 21
-45.0324
  0
LINE
  8
0
 10
236.154
 20
-45.0324
 11
236.32
 21
-44.8476
  0
LINE
  8
0
 10
236.32
 20
-44.8476
 11
236.511
 21
-44.6888
  0
LINE
  8
0
 10
236.511
 20
-44.6888
 11
236.723
 21
-44.5595
  0
LINE
  8
0
 10
236.723
 20
-44.5595
 11
236.951
 21
-44.4625
  0
LINE
  8
0
 10
236.951
 20
-44.4625
 11
237.191
 21
-44.3997
  0
LINE
  8
0
 10
237.191
 20
-44.3997
 11
237.438
 21
-44.3726
  0
LINE
  8
0
 10
237.438
 20
-44.3726
 11
237.686
 21
-44.3816
  0
LINE
  8
0
 10
237.686
 20
-44.3816
 11
237.93
 21
-44.4267
  0
LINE
  8
0
 10
237.93
 20
-44.4267
 11
238.165
 21
-44.5068
  0
LINE
  8
0
 10
238.165
 20
-44.5068
 11
238.386
 21
-44.6203
  0
LINE
  8
0
 10
238.386
 20
-44.6203
 11
238.587
 21
-44.7647
  0
LINE
  8
0
 10
238.587
 20
-44.7647
 11
238.766
 21
-44.937
  0
LINE
  8
0
 10
238.766
 20
-44.937
 11
238.918
 21
-45.1334
  0
LINE
  8
0
 10
238.918
 20
-45.1334
 11
239.039
 21
-45.3499
  0
LINE
  8
0
 10
239.039
 20
-45.3499
 11
239.128
 21
-45.5816
  0
LINE
  8
0
 10
239.128
 20
-45.5816
 11
239.182
 21
-45.8239
  0
LINE
  8
0
 10
239.182
 20
-45.8239
 11
239.2
 21
-46.0714
  0
LINE
  8
0
 10
239.2
 20
-46.0714
 11
239.182
 21
-46.3189
  0
LINE
  8
0
 10
239.182
 20
-46.3189
 11
239.128
 21
-46.5612
  0
LINE
  8
0
 10
239.128
 20
-46.5612
 11
239.039
 21
-46.793
  0
LINE
  8
0
 10
239.039
 20
-46.793
 11
238.918
 21
-47.0094
  0
LINE
  8
0
 10
238.918
 20
-47.0094
 11
238.766
 21
-47.2059
  0
LINE
  8
0
 10
238.766
 20
-47.2059
 11
238.587
 21
-47.3781
  0
LINE
  8
0
 10
238.587
 20
-47.3781
 11
238.386
 21
-47.5225
  0
LINE
  8
0
 10
238.386
 20
-47.5225
 11
238.165
 21
-47.636
  0
LINE
  8
0
 10
238.165
 20
-47.636
 11
237.93
 21
-47.7161
  0
LINE
  8
0
 10
237.93
 20
-47.7161
 11
237.686
 21
-47.7612
  0
LINE
  8
0
 10
237.686
 20
-47.7612
 11
237.438
 21
-47.7703
  0
LINE
  8
0
 10
237.438
 20
-47.7703
 11
237.191
 21
-47.7431
  0
LINE
  8
0
 10
-237.686
 20
-47.7612
 11
-237.93
 21
-47.7161
  0
LINE
  8
0
 10
-237.93
 20
-47.7161
 11
-238.165
 21
-47.636
  0
LINE
  8
0
 10
-238.165
 20
-47.636
 11
-238.386
 21
-47.5225
  0
LINE
  8
0
 10
-238.386
 20
-47.5225
 11
-238.587
 21
-47.3781
  0
LINE
  8
0
 10
-238.587
 20
-47.3781
 11
-238.766
 21
-47.2059
  0
LINE
  8
0
 10
-238.766
 20
-47.2059
 11
-238.918
 21
-47.0094
  0
LINE
  8
0
 10
-238.918
 20
-47.0094
 11
-239.039
 21
-46.793
  0
LINE
  8
0
 10
-239.039
 20
-46.793
 11
-239.128
 21
-46.5612
  0
LINE
  8
0
 10
-239.128
 20
-46.5612
 11
-239.182
 21
-46.3189
  0
LINE
  8
0
 10
-239.182
 20
-46.3189
 11
-239.2
 21
-46.0714
  0
LINE
  8
0
 10
-239.2
 20
-46.0714
 11
-239.182
 21
-45.8239
  0
LINE
  8
0
 10
-239.182
 20
-45.8239
 11
-239.128
 21
-45.5816
  0
LINE
  8
0
 10
-239.128
 20
-45.5816
 11
-239.039
 21
-45.3499
  0
LINE
  8
0
 10
-239.039
 20
-45.3499
 11
-238.918
 21
-45.1334
  0
LINE
  8
0
 10
-238.918
 20
-45.1334
 11
-238.766
 21
-44.937
  0
LINE
  8
0
 10
-238.766
 20
-44.937
 11
-238.587
 21
-44.7647
  0
LINE
  8
0
 10
-238.587
 20
-44.7647
 11
-238.386
 21
-44.6203
  0
LINE
  8
0
 10
-238.386
 20
-44.6203
 11
-238.165
 21
-44.5068
  0
LINE
  8
0
 10
-238.165
 20
-44.5068
 11
-237.93
 21
-44.4267
  0
LINE
  8
0
 10
-237.93
 20
-44.4267
 11
-237.686
 21
-44.3816
  0
LINE
  8
0
 10
-237.686
 20
-44.3816
 11
-237.438
 21
-44.3726
  0
LINE
  8
0
 10
-237.438
 20
-44.3726
 11
-237.191
 21
-44.3997
  0
LINE
  8
0
 10
-237.191
 20
-44.3997
 11
-236.951
 21
-44.4625
  0
LINE
  8
0
 10
-236.951
 20
-44.4625
 11
-236.723
 21
-44.5595
  0
LINE
  8
0
 10
-236.723
 20
-44.5595
 11
-236.511
 21
-44.6888
  0
LINE
  8
0
 10
-236.511
 20
-44.6888
 11
-236.32
 21
-44.8476
  0
LINE
  8
0
 10
-236.32
 20
-44.8476
 11
-236.154
 21
-45.0324
  0
LINE
  8
0
 10
-236.154
 20
-45.0324
 11
-236.018
 21
-45.2394
  0
LINE
  8
0
 10
-236.018
 20
-45.2394
 11
-235.912
 21
-45.4641
  0
LINE
  8
0
 10
-235.912
 20
-45.4641
 11
-235.841
 21
-45.7018
  0
LINE
  8
0
 10
-235.841
 20
-45.7018
 11
-235.805
 21
-45.9473
  0
LINE
  8
0
 10
-235.805
 20
-45.9473
 11
-235.805
 21
-46.1955
  0
LINE
  8
0
 10
-235.805
 20
-46.1955
 11
-235.841
 21
-46.4411
  0
LINE
  8
0
 10
-235.841
 20
-46.4411
 11
-235.912
 21
-46.6787
  0
LINE
  8
0
 10
-235.912
 20
-46.6787
 11
-236.018
 21
-46.9034
  0
LINE
  8
0
 10
-236.018
 20
-46.9034
 11
-236.154
 21
-47.1104
  0
LINE
  8
0
 10
-236.154
 20
-47.1104
 11
-236.32
 21
-47.2953
  0
LINE
  8
0
 10
-236.32
 20
-47.2953
 11
-236.511
 21
-47.454
  0
LINE
  8
0
 10
-236.511
 20
-47.454
 11
-236.723
 21
-47.5833
  0
LINE
  8
0
 10
-236.723
 20
-47.5833
 11
-236.951
 21
-47.6804
  0
LINE
  8
0
 10
-236.951
 20
-47.6804
 11
-237.191
 21
-47.7431
  0
LINE
  8
0
 10
-237.191
 20
-47.7431
 11
-237.438
 21
-47.7703
  0
LINE
  8
0
 10
-237.438
 20
-47.7703
 11
-237.686
 21
-47.7612
  0
LINE
  8
0
 10
-237.686
 20
-139.904
 11
-237.93
 21
-139.859
  0
LINE
  8
0
 10
-237.93
 20
-139.859
 11
-238.165
 21
-139.779
  0
LINE
  8
0
 10
-238.165
 20
-139.779
 11
-238.386
 21
-139.665
  0
LINE
  8
0
 10
-238.386
 20
-139.665
 11
-238.587
 21
-139.521
  0
LINE
  8
0
 10
-238.587
 20
-139.521
 11
-238.766
 21
-139.349
  0
LINE
  8
0
 10
-238.766
 20
-139.349
 11
-238.918
 21
-139.152
  0
LINE
  8
0
 10
-238.918
 20
-139.152
 11
-239.039
 21
-138.936
  0
LINE
  8
0
 10
-239.039
 20
-138.936
 11
-239.128
 21
-138.704
  0
LINE
  8
0
 10
-239.128
 20
-138.704
 11
-239.182
 21
-138.462
  0
LINE
  8
0
 10
-239.182
 20
-138.462
 11
-239.2
 21
-138.214
  0
LINE
  8
0
 10
-239.2
 20
-138.214
 11
-239.182
 21
-137.967
  0
LINE
  8
0
 10
-239.182
 20
-137.967
 11
-239.128
 21
-137.725
  0
LINE
  8
0
 10
-239.128
 20
-137.725
 11
-239.039
 21
-137.493
  0
LINE
  8
0
 10
-239.039
 20
-137.493
 11
-238.918
 21
-137.276
  0
LINE
  8
0
 10
-238.918
 20
-137.276
 11
-238.766
 21
-137.08
  0
LINE
  8
0
 10
-238.766
 20
-137.08
 11
-238.587
 21
-136.908
  0
LINE
  8
0
 10
-238.587
 20
-136.908
 11
-238.386
 21
-136.763
  0
LINE
  8
0
 10
-238.386
 20
-136.763
 11
-238.165
 21
-136.65
  0
LINE
  8
0
 10
-238.165
 20
-136.65
 11
-237.93
 21
-136.57
  0
LINE
  8
0
 10
-237.93
 20
-136.57
 11
-237.686
 21
-136.524
  0
LINE
  8
0
 10
-237.686
 20
-136.524
 11
-237.438
 21
-136.515
  0
LINE
  8
0
 10
-237.438
 20
-136.515
 11
-237.191
 21
-136.543
  0
LINE
  8
0
 10
-237.191
 20
-136.543
 11
-236.951
 21
-136.605
  0
LINE
  8
0
 10
-236.951
 20
-136.605
 11
-236.723
 21
-136.702
  0
LINE
  8
0
 10
-236.723
 20
-136.702
 11
-236.511
 21
-136.832
  0
LINE
  8
0
 10
-236.511
 20
-136.832
 11
-236.32
 21
-136.99
  0
LINE
  8
0
 10
-236.32
 20
-136.99
 11
-236.154
 21
-137.175
  0
LINE
  8
0
 10
-236.154
 20
-137.175
 11
-236.018
 21
-137.382
  0
LINE
  8
0
 10
-236.018
 20
-137.382
 11
-235.912
 21
-137.607
  0
LINE
  8
0
 10
-235.912
 20
-137.607
 11
-235.841
 21
-137.845
  0
LINE
  8
0
 10
-235.841
 20
-137.845
 11
-235.805
 21
-138.09
  0
LINE
  8
0
 10
-235.805
 20
-138.09
 11
-235.805
 21
-138.338
  0
LINE
  8
0
 10
-235.805
 20
-138.338
 11
-235.841
 21
-138.584
  0
LINE
  8
0
 10
-235.841
 20
-138.584
 11
-235.912
 21
-138.822
  0
LINE
  8
0
 10
-235.912
 20
-138.822
 11
-236.018
 21
-139.046
  0
LINE
  8
0
 10
-236.018
 20
-139.046
 11
-236.154
 21
-139.253
  0
LINE
  8
0
 10
-236.154
 20
-139.253
 11
-236.32
 21
-139.438
  0
LINE
  8
0
 10
-236.32
 20
-139.438
 11
-236.511
 21
-139.597
  0
LINE
  8
0
 10
-236.511
 20
-139.597
 11
-236.723
 21
-139.726
  0
LINE
  8
0
 10
-236.723
 20
-139.726
 11
-236.951
 21
-139.823
  0
LINE
  8
0
 10
-236.951
 20
-139.823
 11
-237.191
 21
-139.886
  0
LINE
  8
0
 10
-237.191
 20
-139.886
 11
-237.438
 21
-139.913
  0
LINE
  8
0
 10
-237.438
 20
-139.913
 11
-237.686
 21
-139.904
  0
LINE
  8
0
 10
237.191
 20
-139.886
 11
236.951
 21
-139.823
  0
LINE
  8
0
 10
236.951
 20
-139.823
 11
236.723
 21
-139.726
  0
LINE
  8
0
 10
236.723
 20
-139.726
 11
236.511
 21
-139.597
  0
LINE
  8
0
 10
236.511
 20
-139.597
 11
236.32
 21
-139.438
  0
LINE
  8
0
 10
236.32
 20
-139.438
 11
236.154
 21
-139.253
  0
LINE
  8
0
 10
236.154
 20
-139.253
 11
236.018
 21
-139.046
  0
LINE
  8
0
 10
236.018
 20
-139.046
 11
235.912
 21
-138.822
  0
LINE
  8
0
 10
235.912
 20
-138.822
 11
235.841
 21
-138.584
  0
LINE
  8
0
 10
235.841
 20
-138.584
 11
235.805
 21
-138.338
  0
LINE
  8
0
 10
235.805
 20
-138.338
 11
235.805
 21
-138.09
  0
LINE
  8
0
 10
235.805
 20
-138.09
 11
235.841
 21
-137.845
  0
LINE
  8
0
 10
235.841
 20
-137.845
 11
235.912
 21
-137.607
  0
LINE
  8
0
 10
235.912
 20
-137.607
 11
236.018
 21
-137.382
  0
LINE
  8
0
 10
236.018
 20
-137.382
 11
236.154
 21
-137.175
  0
LINE
  8
0
 10
236.154
 20
-137.175
 11
236.32
 21
-136.99
  0
LINE
  8
0
 10
236.32
 20
-136.99
 11
236.511
 21
-136.832
  0
LINE
  8
0
 10
236.511
 20
-136.832
 11
236.723
 21
-136.702
  0
LINE
  8
0
 10
236.723
 20
-136.702
 11
236.951
 21
-136.605
  0
LINE
  8
0
 10
236.951
 20
-136.605
 11
237.191
 21
-136.543
  0
LINE
  8
0
 10
237.191
 20
-136.543
 11
237.438
 21
-136.515
  0
LINE
  8
0
 10
237.438
 20
-136.515
 11
237.686
 21
-136.524
  0
LINE
  8
0
 10
237.686
 20
-136.524
 11
237.93
 21
-136.57
  0
LINE
  8
0
 10
237.93
 20
-136.57
 11
238.165
 21
-136.65
  0
LINE
  8
0
 10
238.165
 20
-136.65
 11
238.386
 21
-136.763
  0
LINE
  8
0
 10
238.386
 20
-136.763
 11
238.587
 21
-136.908
  0
LINE
  8
0
 10
238.587
 20
-136.908
 11
238.766
 21
-137.08
  0
LINE
  8
0
 10
238.766
 20
-137.08
 11
238.918
 21
-137.276
  0
LINE
  8
0
 10
238.918
 20
-137.276
 11
239.039
 21
-137.493
  0
LINE
  8
0
 10
239.039
 20
-137.493
 11
239.128
 21
-137.725
  0
LINE
  8
0
 10
239.128
 20
-137.725
 11
239.182
 21
-137.967
  0
LINE
  8
0
 10
239.182
 20
-137.967
 11
239.2
 21
-138.214
  0
LINE
  8
0
 10
239.2
 20
-138.214
 11
239.182
 21
-138.462
  0
LINE
  8
0
 10
239.182
 20
-138.462
 11
239.128
 21
-138.704
  0
LINE
  8
0
 10
239.128
 20
-138.704
 11
239.039
 21
-138.936
  0
LINE
  8
0
 10
239.039
 20
-138.936
 11
238.918
 21
-139.152
  0
LINE
  8
0
 10
238.918
 20
-139.152
 11
238.766
 21
-139.349
  0
LINE
  8
0
 10
238.766
 20
-139.349
 11
238.587
 21
-139.521
  0
LINE
  8
0
 10
238.587
 20
-139.521
 11
238.386
 21
-139.665
  0
LINE
  8
0
 10
238.386
 20
-139.665
 11
238.165
 21
-139.779
  0
LINE
  8
0
 10
238.165
 20
-139.779
 11
237.93
 21
-139.859
  0
LINE
  8
0
 10
237.93
 20
-139.859
 11
237.686
 21
-139.904
  0
LINE
  8
0
 10
237.686
 20
-139.904
 11
237.438
 21
-139.913
  0
LINE
  8
0
 10
237.438
 20
-139.913
 11
237.191
 21
-139.886
  0
LINE
  8
0
 10
-237.686
 20
-232.047
 11
-237.93
 21
-232.002
  0
LINE
  8
0
 10
-237.93
 20
-232.002
 11
-238.165
 21
-231.922
  0
LINE
  8
0
 10
-238.165
 20
-231.922
 11
-238.386
 21
-231.808
  0
LINE
  8
0
 10
-238.386
 20
-231.808
 11
-238.587
 21
-231.664
  0
LINE
  8
0
 10
-238.587
 20
-231.664
 11
-238.766
 21
-231.492
  0
LINE
  8
0
 10
-238.766
 20
-231.492
 11
-238.918
 21
-231.295
  0
LINE
  8
0
 10
-238.918
 20
-231.295
 11
-239.039
 21
-231.079
  0
LINE
  8
0
 10
-239.039
 20
-231.079
 11
-239.128
 21
-230.847
  0
LINE
  8
0
 10
-239.128
 20
-230.847
 11
-239.182
 21
-230.605
  0
LINE
  8
0
 10
-239.182
 20
-230.605
 11
-239.2
 21
-230.357
  0
LINE
  8
0
 10
-239.2
 20
-230.357
 11
-239.182
 21
-230.11
  0
LINE
  8
0
 10
-239.182
 20
-230.11
 11
-239.128
 21
-229.867
  0
LINE
  8
0
 10
-239.128
 20
-229.867
 11
-239.039
 21
-229.636
  0
LINE
  8
0
 10
-239.039
 20
-229.636
 11
-238.918
 21
-229.419
  0
LINE
  8
0
 10
-238.918
 20
-229.419
 11
-238.766
 21
-229.223
  0
LINE
  8
0
 10
-238.766
 20
-229.223
 11
-238.587
 21
-229.05
  0
LINE
  8
0
 10
-238.587
 20
-229.05
 11
-238.386
 21
-228.906
  0
LINE
  8
0
 10
-238.386
 20
-228.906
 11
-238.165
 21
-228.793
  0
LINE
  8
0
 10
-238.165
 20
-228.793
 11
-237.93
 21
-228.712
  0
LINE
  8
0
 10
-237.93
 20
-228.712
 11
-237.686
 21
-228.667
  0
LINE
  8
0
 10
-237.686
 20
-228.667
 11
-237.438
 21
-228.658
  0
LINE
  8
0
 10
-237.438
 20
-228.658
 11
-237.191
 21
-228.685
  0
LINE
  8
0
 10
-237.191
 20
-228.685
 11
-236.951
 21
-228.748
  0
LINE
  8
0
 10
-236.951
 20
-228.748
 11
-236.723
 21
-228.845
  0
LINE
  8
0
 10
-236.723
 20
-228.845
 11
-236.511
 21
-228.975
  0
LINE
  8
0
 10
-236.511
 20
-228.975
 11
-236.32
 21
-229.133
  0
LINE
  8
0
 10
-236.32
 20
-229.133
 11
-236.154
 21
-229.318
  0
LINE
  8
0
 10
-236.154
 20
-229.318
 11
-236.018
 21
-229.525
  0
LINE
  8
0
 10
-236.018
 20
-229.525
 11
-235.912
 21
-229.75
  0
LINE
  8
0
 10
-235.912
 20
-229.75
 11
-235.841
 21
-229.988
  0
LINE
  8
0
 10
-235.841
 20
-229.988
 11
-235.805
 21
-230.233
  0
LINE
  8
0
 10
-235.805
 20
-230.233
 11
-235.805
 21
-230.481
  0
LINE
  8
0
 10
-235.805
 20
-230.481
 11
-235.841
 21
-230.727
  0
LINE
  8
0
 10
-235.841
 20
-230.727
 11
-235.912
 21
-230.964
  0
LINE
  8
0
 10
-235.912
 20
-230.964
 11
-236.018
 21
-231.189
  0
LINE
  8
0
 10
-236.018
 20
-231.189
 11
-236.154
 21
-231.396
  0
LINE
  8
0
 10
-236.154
 20
-231.396
 11
-236.32
 21
-231.581
  0
LINE
  8
0
 10
-236.32
 20
-231.581
 11
-236.511
 21
-231.74
  0
LINE
  8
0
 10
-236.511
 20
-231.74
 11
-236.723
 21
-231.869
  0
LINE
  8
0
 10
-236.723
 20
-231.869
 11
-236.951
 21
-231.966
  0
LINE
  8
0
 10
-236.951
 20
-231.966
 11
-237.191
 21
-232.029
  0
LINE
  8
0
 10
-237.191
 20
-232.029
 11
-237.438
 21
-232.056
  0
LINE
  8
0
 10
-237.438
 20
-232.056
 11
-237.686
 21
-232.047
  0
LINE
  8
0
 10
237.191
 20
-232.029
 11
236.951
 21
-231.966
  0
LINE
  8
0
 10
236.951
 20
-231.966
 11
236.723
 21
-231.869
  0
LINE
  8
0
 10
236.723
 20
-231.869
 11
236.511
 21
-231.74
  0
LINE
  8
0
 10
236.511
 20
-231.74
 11
236.32
 21
-231.581
  0
LINE
  8
0
 10
236.32
 20
-231.581
 11
236.154
 21
-231.396
  0
LINE
  8
0
 10
236.154
 20
-231.396
 11
236.018
 21
-231.189
  0
LINE
  8
0
 10
236.018
 20
-231.189
 11
235.912
 21
-230.964
  0
LINE
  8
0
 10
235.912
 20
-230.964
 11
235.841
 21
-230.727
  0
LINE
  8
0
 10
235.841
 20
-230.727
 11
235.805
 21
-230.481
  0
LINE
  8
0
 10
235.805
 20
-230.481
 11
235.805
 21
-230.233
  0
LINE
  8
0
 10
235.805
 20
-230.233
 11
235.841
 21
-229.988
  0
LINE
  8
0
 10
235.841
 20
-229.988
 11
235.912
 21
-229.75
  0
LINE
  8
0
 10
235.912
 20
-229.75
 11
236.018
 21
-229.525
  0
LINE
  8
0
 10
236.018
 20
-229.525
 11
236.154
 21
-229.318
  0
LINE
  8
0
 10
236.154
 20
-229.318
 11
236.32
 21
-229.133
  0
LINE
  8
0
 10
236.32
 20
-229.133
 11
236.511
 21
-228.975
  0
LINE
  8
0
 10
236.511
 20
-228.975
 11
236.723
 21
-228.845
  0
LINE
  8
0
 10
236.723
 20
-228.845
 11
236.951
 21
-228.748
  0
LINE
  8
0
 10
236.951
 20
-228.748
 11
237.191
 21
-228.685
  0
LINE
  8
0
 10
237.191
 20
-228.685
 11
237.438
 21
-228.658
  0
LINE
  8
0
 10
237.438
 20
-228.658
 11
237.686
 21
-228.667
  0
LINE
  8
0
 10
237.686
 20
-228.667
 11
237.93
 21
-228.712
  0
LINE
  8
0
 10
237.93
 20
-228.712
 11
238.165
 21
-228.793
  0
LINE
  8
0
 10
238.165
 20
-228.793
 11
238.386
 21
-228.906
  0
LINE
  8
0
 10
238.386
 20
-228.906
 11
238.587
 21
-229.05
  0
LINE
  8
0
 10
238.587
 20
-229.05
 11
238.766
 21
-229.223
  0
LINE
  8
0
 10
238.766
 20
-229.223
 11
238.918
 21
-229.419
  0
LINE
  8
0
 10
238.918
 20
-229.419
 11
239.039
 21
-229.636
  0
LINE
  8
0
 10
239.039
 20
-229.636
 11
239.128
 21
-229.867
  0
LINE
  8
0
 10
239.128
 20
-229.867
 11
239.182
 21
-230.11
  0
LINE
  8
0
 10
239.182
 20
-230.11
 11
239.2
 21
-230.357
  0
LINE
  8
0
 10
239.2
 20
-230.357
 11
239.182
 21
-230.605
  0
LINE
  8
0
 10
239.182
 20
-230.605
 11
239.128
 21
-230.847
  0
LINE
  8
0
 10
239.128
 20
-230.847
 11
239.039
 21
-231.079
  0
LINE
  8
0
 10
239.039
 20
-231.079
 11
238.918
 21
-231.295
  0
LINE
  8
0
 10
238.918
 20
-231.295
 11
238.766
 21
-231.492
  0
LINE
  8
0
 10
238.766
 20
-231.492
 11
238.587
 21
-231.664
  0
LINE
  8
0
 10
238.587
 20
-231.664
 11
238.386
 21
-231.808
  0
LINE
  8
0
 10
238.386
 20
-231.808
 11
238.165
 21
-231.922
  0
LINE
  8
0
 10
238.165
 20
-231.922
 11
237.93
 21
-232.002
  0
LINE
  8
0
 10
237.93
 20
-232.002
 11
237.686
 21
-232.047
  0
LINE
  8
0
 10
237.686
 20
-232.047
 11
237.438
 21
-232.056
  0
LINE
  8
0
 10
237.438
 20
-232.056
 11
237.191
 21
-232.029
  0
LINE
  8
0
 10
237.191
 20
-324.172
 11
236.951
 21
-324.109
  0
LINE
  8
0
 10
236.951
 20
-324.109
 11
236.723
 21
-324.012
  0
LINE
  8
0
 10
236.723
 20
-324.012
 11
236.511
 21
-323.883
  0
LINE
  8
0
 10
236.511
 20
-323.883
 11
236.32
 21
-323.724
  0
LINE
  8
0
 10
236.32
 20
-323.724
 11
236.154
 21
-323.539
  0
LINE
  8
0
 10
236.154
 20
-323.539
 11
236.018
 21
-323.332
  0
LINE
  8
0
 10
236.018
 20
-323.332
 11
235.912
 21
-323.107
  0
LINE
  8
0
 10
235.912
 20
-323.107
 11
235.841
 21
-322.87
  0
LINE
  8
0
 10
235.841
 20
-322.87
 11
235.805
 21
-322.624
  0
LINE
  8
0
 10
235.805
 20
-322.624
 11
235.805
 21
-322.376
  0
LINE
  8
0
 10
235.805
 20
-322.376
 11
235.841
 21
-322.13
  0
LINE
  8
0
 10
235.841
 20
-322.13
 11
235.912
 21
-321.893
  0
LINE
  8
0
 10
235.912
 20
-321.893
 11
236.018
 21
-321.668
  0
LINE
  8
0
 10
236.018
 20
-321.668
 11
236.154
 21
-321.461
  0
LINE
  8
0
 10
236.154
 20
-321.461
 11
236.32
 21
-321.276
  0
LINE
  8
0
 10
236.32
 20
-321.276
 11
236.511
 21
-321.117
  0
LINE
  8
0
 10
236.511
 20
-321.117
 11
236.723
 21
-320.988
  0
LINE
  8
0
 10
236.723
 20
-320.988
 11
236.951
 21
-320.891
  0
LINE
  8
0
 10
236.951
 20
-320.891
 11
237.191
 21
-320.828
  0
LINE
  8
0
 10
237.191
 20
-320.828
 11
237.438
 21
-320.801
  0
LINE
  8
0
 10
237.438
 20
-320.801
 11
237.686
 21
-320.81
  0
LINE
  8
0
 10
237.686
 20
-320.81
 11
237.93
 21
-320.855
  0
LINE
  8
0
 10
237.93
 20
-320.855
 11
238.165
 21
-320.935
  0
LINE
  8
0
 10
238.165
 20
-320.935
 11
238.386
 21
-321.049
  0
LINE
  8
0
 10
238.386
 20
-321.049
 11
238.587
 21
-321.193
  0
LINE
  8
0
 10
238.587
 20
-321.193
 11
238.766
 21
-321.366
  0
LINE
  8
0
 10
238.766
 20
-321.366
 11
238.918
 21
-321.562
  0
LINE
  8
0
 10
238.918
 20
-321.562
 11
239.039
 21
-321.778
  0
LINE
  8
0
 10
239.039
 20
-321.778
 11
239.128
 21
-322.01
  0
LINE
  8
0
 10
239.128
 20
-322.01
 11
239.182
 21
-322.252
  0
LINE
  8
0
 10
239.182
 20
-322.252
 11
239.2
 21
-322.5
  0
LINE
  8
0
 10
239.2
 20
-322.5
 11
239.182
 21
-322.748
  0
LINE
  8
0
 10
239.182
 20
-322.748
 11
239.128
 21
-322.99
  0
LINE
  8
0
 10
239.128
 20
-322.99
 11
239.039
 21
-323.222
  0
LINE
  8
0
 10
239.039
 20
-323.222
 11
238.918
 21
-323.438
  0
LINE
  8
0
 10
238.918
 20
-323.438
 11
238.766
 21
-323.634
  0
LINE
  8
0
 10
238.766
 20
-323.634
 11
238.587
 21
-323.807
  0
LINE
  8
0
 10
238.587
 20
-323.807
 11
238.386
 21
-323.951
  0
LINE
  8
0
 10
238.386
 20
-323.951
 11
238.165
 21
-324.065
  0
LINE
  8
0
 10
238.165
 20
-324.065
 11
237.93
 21
-324.145
  0
LINE
  8
0
 10
237.93
 20
-324.145
 11
237.686
 21
-324.19
  0
LINE
  8
0
 10
237.686
 20
-324.19
 11
237.438
 21
-324.199
  0
LINE
  8
0
 10
237.438
 20
-324.199
 11
237.191
 21
-324.172
  0
LINE
  8
0
 10
-237.686
 20
-324.19
 11
-237.93
 21
-324.145
  0
LINE
  8
0
 10
-237.93
 20
-324.145
 11
-238.165
 21
-324.065
  0
LINE
  8
0
 10
-238.165
 20
-324.065
 11
-238.386
 21
-323.951
  0
LINE
  8
0
 10
-238.386
 20
-323.951
 11
-238.587
 21
-323.807
  0
LINE
  8
0
 10
-238.587
 20
-323.807
 11
-238.766
 21
-323.634
  0
LINE
  8
0
 10
-238.766
 20
-323.634
 11
-238.918
 21
-323.438
  0
LINE
  8
0
 10
-238.918
 20
-323.438
 11
-239.039
 21
-323.222
  0
LINE
  8
0
 10
-239.039
 20
-323.222
 11
-239.128
 21
-322.99
  0
LINE
  8
0
 10
-239.128
 20
-322.99
 11
-239.182
 21
-322.748
  0
LINE
  8
0
 10
-239.182
 20
-322.748
 11
-239.2
 21
-322.5
  0
LINE
  8
0
 10
-239.2
 20
-322.5
 11
-239.182
 21
-322.252
  0
LINE
  8
0
 10
-239.182
 20
-322.252
 11
-239.128
 21
-322.01
  0
LINE
  8
0
 10
-239.128
 20
-322.01
 11
-239.039
 21
-321.778
  0
LINE
  8
0
 10
-239.039
 20
-321.778
 11
-238.918
 21
-321.562
  0
LINE
  8
0
 10
-238.918
 20
-321.562
 11
-238.766
 21
-321.366
  0
LINE
  8
0
 10
-238.766
 20
-321.366
 11
-238.587
 21
-321.193
  0
LINE
  8
0
 10
-238.587
 20
-321.193
 11
-238.386
 21
-321.049
  0
LINE
  8
0
 10
-238.386
 20
-321.049
 11
-238.165
 21
-320.935
  0
LINE
  8
0
 10
-238.165
 20
-320.935
 11
-237.93
 21
-320.855
  0
LINE
  8
0
 10
-237.93
 20
-320.855
 11
-237.686
 21
-320.81
  0
LINE
  8
0
 10
-237.686
 20
-320.81
 11
-237.438
 21
-320.801
  0
LINE
  8
0
 10
-237.438
 20
-320.801
 11
-237.191
 21
-320.828
  0
LINE
  8
0
 10
-237.191
 20
-320.828
 11
-236.951
 21
-320.891
  0
LINE
  8
0
 10
-236.951
 20
-320.891
 11
-236.723
 21
-320.988
  0
LINE
  8
0
 10
-236.723
 20
-320.988
 11
-236.511
 21
-321.117
  0
LINE
  8
0
 10
-236.511
 20
-321.117
 11
-236.32
 21
-321.276
  0
LINE
  8
0
 10
-236.32
 20
-321.276
 11
-236.154
 21
-321.461
  0
LINE
  8
0
 10
-236.154
 20
-321.461
 11
-236.018
 21
-321.668
  0
LINE
  8
0
 10
-236.018
 20
-321.668
 11
-235.912
 21
-321.893
  0
LINE
  8
0
 10
-235.912
 20
-321.893
 11
-235.841
 21
-322.13
  0
LINE
  8
0
 10
-235.841
 20
-322.13
 11
-235.805
 21
-322.376
  0
LINE
  8
0
 10
-235.805
 20
-322.376
 11
-235.805
 21
-322.624
  0
LINE
  8
0
 10
-235.805
 20
-322.624
 11
-235.841
 21
-322.87
  0
LINE
  8
0
 10
-235.841
 20
-322.87
 11
-235.912
 21
-323.107
  0
LINE
  8
0
 10
-235.912
 20
-323.107
 11
-236.018
 21
-323.332
  0
LINE
  8
0
 10
-236.018
 20
-323.332
 11
-236.154
 21
-323.539
  0
LINE
  8
0
 10
-236.154
 20
-323.539
 11
-236.32
 21
-323.724
  0
LINE
  8
0
 10
-236.32
 20
-323.724
 11
-236.511
 21
-323.883
  0
LINE
  8
0
 10
-236.511
 20
-323.883
 11
-236.723
 21
-324.012
  0
LINE
  8
0
 10
-236.723
 20
-324.012
 11
-236.951
 21
-324.109
  0
LINE
  8
0
 10
-236.951
 20
-324.109
 11
-237.191
 21
-324.172
  0
LINE
  8
0
 10
-237.191
 20
-324.172
 11
-237.438
 21
-324.199
  0
LINE
  8
0
 10
-237.438
 20
-324.199
 11
-237.686
 21
-324.19
  0
LINE
  8
0
 10
-237.892
 20
-368.729
 11
-238.28
 21
-368.668
  0
LINE
  8
0
 10
-238.28
 20
-368.668
 11
-238.659
 21
-368.566
  0
LINE
  8
0
 10
-238.659
 20
-368.566
 11
-239.025
 21
-368.426
  0
LINE
  8
0
 10
-239.025
 20
-368.426
 11
-239.375
 21
-368.248
  0
LINE
  8
0
 10
-239.375
 20
-368.248
 11
-239.704
 21
-368.034
  0
LINE
  8
0
 10
-239.704
 20
-368.034
 11
-240.009
 21
-367.787
  0
LINE
  8
0
 10
-240.009
 20
-367.787
 11
-240.287
 21
-367.509
  0
LINE
  8
0
 10
-240.287
 20
-367.509
 11
-240.534
 21
-367.204
  0
LINE
  8
0
 10
-240.534
 20
-367.204
 11
-240.748
 21
-366.875
  0
LINE
  8
0
 10
-240.748
 20
-366.875
 11
-240.926
 21
-366.525
  0
LINE
  8
0
 10
-240.926
 20
-366.525
 11
-241.066
 21
-366.159
  0
LINE
  8
0
 10
-241.066
 20
-366.159
 11
-241.168
 21
-365.78
  0
LINE
  8
0
 10
-241.168
 20
-365.78
 11
-241.229
 21
-365.392
  0
LINE
  8
0
 10
-241.229
 20
-365.392
 11
-241.25
 21
-365
  0
LINE
  8
0
 10
-241.25
 20
-365
 11
-241.229
 21
-364.608
  0
LINE
  8
0
 10
-241.229
 20
-364.608
 11
-241.168
 21
-364.22
  0
LINE
  8
0
 10
-241.168
 20
-364.22
 11
-241.066
 21
-363.841
  0
LINE
  8
0
 10
-241.066
 20
-363.841
 11
-240.926
 21
-363.475
  0
LINE
  8
0
 10
-240.926
 20
-363.475
 11
-240.748
 21
-363.125
  0
LINE
  8
0
 10
-240.748
 20
-363.125
 11
-240.534
 21
-362.796
  0
LINE
  8
0
 10
-240.534
 20
-362.796
 11
-240.287
 21
-362.491
  0
LINE
  8
0
 10
-240.287
 20
-362.491
 11
-240.009
 21
-362.213
  0
LINE
  8
0
 10
-240.009
 20
-362.213
 11
-239.704
 21
-361.966
  0
LINE
  8
0
 10
-239.704
 20
-361.966
 11
-239.375
 21
-361.752
  0
LINE
  8
0
 10
-239.375
 20
-361.752
 11
-239.025
 21
-361.574
  0
LINE
  8
0
 10
-239.025
 20
-361.574
 11
-238.659
 21
-361.434
  0
LINE
  8
0
 10
-238.659
 20
-361.434
 11
-238.28
 21
-361.332
  0
LINE
  8
0
 10
-238.28
 20
-361.332
 11
-237.892
 21
-361.271
  0
LINE
  8
0
 10
-237.892
 20
-361.271
 11
-237.5
 21
-361.25
  0
LINE
  8
0
 10
-237.5
 20
-361.25
 11
-237.108
 21
-361.271
  0
LINE
  8
0
 10
-237.108
 20
-361.271
 11
-236.72
 21
-361.332
  0
LINE
  8
0
 10
-236.72
 20
-361.332
 11
-236.341
 21
-361.434
  0
LINE
  8
0
 10
-236.341
 20
-361.434
 11
-235.975
 21
-361.574
  0
LINE
  8
0
 10
-235.975
 20
-361.574
 11
-235.625
 21
-361.752
  0
LINE
  8
0
 10
-235.625
 20
-361.752
 11
-235.296
 21
-361.966
  0
LINE
  8
0
 10
-235.296
 20
-361.966
 11
-234.991
 21
-362.213
  0
LINE
  8
0
 10
-234.991
 20
-362.213
 11
-234.713
 21
-362.491
  0
LINE
  8
0
 10
-234.713
 20
-362.491
 11
-234.466
 21
-362.796
  0
LINE
  8
0
 10
-234.466
 20
-362.796
 11
-234.252
 21
-363.125
  0
LINE
  8
0
 10
-234.252
 20
-363.125
 11
-234.074
 21
-363.475
  0
LINE
  8
0
 10
-234.074
 20
-363.475
 11
-233.934
 21
-363.841
  0
LINE
  8
0
 10
-233.934
 20
-363.841
 11
-233.832
 21
-364.22
  0
LINE
  8
0
 10
-233.832
 20
-364.22
 11
-233.771
 21
-364.608
  0
LINE
  8
0
 10
-233.771
 20
-364.608
 11
-233.75
 21
-365
  0
LINE
  8
0
 10
-233.75
 20
-365
 11
-233.771
 21
-365.392
  0
LINE
  8
0
 10
-233.771
 20
-365.392
 11
-233.832
 21
-365.78
  0
LINE
  8
0
 10
-233.832
 20
-365.78
 11
-233.934
 21
-366.159
  0
LINE
  8
0
 10
-233.934
 20
-366.159
 11
-234.074
 21
-366.525
  0
LINE
  8
0
 10
-234.074
 20
-366.525
 11
-234.252
 21
-366.875
  0
LINE
  8
0
 10
-234.252
 20
-366.875
 11
-234.466
 21
-367.204
  0
LINE
  8
0
 10
-234.466
 20
-367.204
 11
-234.713
 21
-367.509
  0
LINE
  8
0
 10
-234.713
 20
-367.509
 11
-234.991
 21
-367.787
  0
LINE
  8
0
 10
-234.991
 20
-367.787
 11
-235.296
 21
-368.034
  0
LINE
  8
0
 10
-235.296
 20
-368.034
 11
-235.625
 21
-368.248
  0
LINE
  8
0
 10
-235.625
 20
-368.248
 11
-235.975
 21
-368.426
  0
LINE
  8
0
 10
-235.975
 20
-368.426
 11
-236.341
 21
-368.566
  0
LINE
  8
0
 10
-236.341
 20
-368.566
 11
-236.72
 21
-368.668
  0
LINE
  8
0
 10
-236.72
 20
-368.668
 11
-237.108
 21
-368.729
  0
LINE
  8
0
 10
-237.108
 20
-368.729
 11
-237.5
 21
-368.75
  0
LINE
  8
0
 10
-237.5
 20
-368.75
 11
-237.892
 21
-368.729
  0
LINE
  8
0
 10
237.108
 20
-368.729
 11
236.72
 21
-368.668
  0
LINE
  8
0
 10
236.72
 20
-368.668
 11
236.341
 21
-368.566
  0
LINE
  8
0
 10
236.341
 20
-368.566
 11
235.975
 21
-368.426
  0
LINE
  8
0
 10
235.975
 20
-368.426
 11
235.625
 21
-368.248
  0
LINE
  8
0
 10
235.625
 20
-368.248
 11
235.296
 21
-368.034
  0
LINE
  8
0
 10
235.296
 20
-368.034
 11
234.991
 21
-367.787
  0
LINE
  8
0
 10
234.991
 20
-367.787
 11
234.713
 21
-367.509
  0
LINE
  8
0
 10
234.713
 20
-367.509
 11
234.466
 21
-367.204
  0
LINE
  8
0
 10
234.466
 20
-367.204
 11
234.252
 21
-366.875
  0
LINE
  8
0
 10
234.252
 20
-366.875
 11
234.074
 21
-366.525
  0
LINE
  8
0
 10
234.074
 20
-366.525
 11
233.934
 21
-366.159
  0
LINE
  8
0
 10
233.934
 20
-366.159
 11
233.832
 21
-365.78
  0
LINE
  8
0
 10
233.832
 20
-365.78
 11
233.771
 21
-365.392
  0
LINE
  8
0
 10
233.771
 20
-365.392
 11
233.75
 21
-365
  0
LINE
  8
0
 10
233.75
 20
-365
 11
233.771
 21
-364.608
  0
LINE
  8
0
 10
233.771
 20
-364.608
 11
233.832
 21
-364.22
  0
LINE
  8
0
 10
233.832
 20
-364.22
 11
233.934
 21
-363.841
  0
LINE
  8
0
 10
233.934
 20
-363.841
 11
234.074
 21
-363.475
  0
LINE
  8
0
 10
234.074
 20
-363.475
 11
234.252
 21
-363.125
  0
LINE
  8
0
 10
234.252
 20
-363.125
 11
234.466
 21
-362.796
  0
LINE
  8
0
 10
234.466
 20
-362.796
 11
234.713
 21
-362.491
  0
LINE
  8
0
 10
234.713
 20
-362.491
 11
234.991
 21
-362.213
  0
LINE
  8
0
 10
234.991
 20
-362.213
 11
235.296
 21
-361.966
  0
LINE
  8
0
 10
235.296
 20
-361.966
 11
235.625
 21
-361.752
  0
LINE
  8
0
 10
235.625
 20
-361.752
 11
235.975
 21
-361.574
  0
LINE
  8
0
 10
235.975
 20
-361.574
 11
236.341
 21
-361.434
  0
LINE
  8
0
 10
236.341
 20
-361.434
 11
236.72
 21
-361.332
  0
LINE
  8
0
 10
236.72
 20
-361.332
 11
237.108
 21
-361.271
  0
LINE
  8
0
 10
237.108
 20
-361.271
 11
237.5
 21
-361.25
  0
LINE
  8
0
 10
237.5
 20
-361.25
 11
237.892
 21
-361.271
  0
LINE
  8
0
 10
237.892
 20
-361.271
 11
238.28
 21
-361.332
  0
LINE
  8
0
 10
238.28
 20
-361.332
 11
238.659
 21
-361.434
  0
LINE
  8
0
 10
238.659
 20
-361.434
 11
239.025
 21
-361.574
  0
LINE
  8
0
 10
239.025
 20
-361.574
 11
239.375
 21
-361.752
  0
LINE
  8
0
 10
239.375
 20
-361.752
 11
239.704
 21
-361.966
  0
LINE
  8
0
 10
239.704
 20
-361.966
 11
240.009
 21
-362.213
  0
LINE
  8
0
 10
240.009
 20
-362.213
 11
240.287
 21
-362.491
  0
LINE
  8
0
 10
240.287
 20
-362.491
 11
240.534
 21
-362.796
  0
LINE
  8
0
 10
240.534
 20
-362.796
 11
240.748
 21
-363.125
  0
LINE
  8
0
 10
240.748
 20
-363.125
 11
240.926
 21
-363.475
  0
LINE
  8
0
 10
240.926
 20
-363.475
 11
241.066
 21
-363.841
  0
LINE
  8
0
 10
241.066
 20
-363.841
 11
241.168
 21
-364.22
  0
LINE
  8
0
 10
241.168
 20
-364.22
 11
241.229
 21
-364.608
  0
LINE
  8
0
 10
241.229
 20
-364.608
 11
241.25
 21
-365
  0
LINE
  8
0
 10
241.25
 20
-365
 11
241.229
 21
-365.392
  0
LINE
  8
0
 10
241.229
 20
-365.392
 11
241.168
 21
-365.78
  0
LINE
  8
0
 10
241.168
 20
-365.78
 11
241.066
 21
-366.159
  0
LINE
  8
0
 10
241.066
 20
-366.159
 11
240.926
 21
-366.525
  0
LINE
  8
0
 10
240.926
 20
-366.525
 11
240.748
 21
-366.875
  0
LINE
  8
0
 10
240.748
 20
-366.875
 11
240.534
 21
-367.204
  0
LINE
  8
0
 10
240.534
 20
-367.204
 11
240.287
 21
-367.509
  0
LINE
  8
0
 10
240.287
 20
-367.509
 11
240.009
 21
-367.787
  0
LINE
  8
0
 10
240.009
 20
-367.787
 11
239.704
 21
-368.034
  0
LINE
  8
0
 10
239.704
 20
-368.034
 11
239.375
 21
-368.248
  0
LINE
  8
0
 10
239.375
 20
-368.248
 11
239.025
 21
-368.426
  0
LINE
  8
0
 10
239.025
 20
-368.426
 11
238.659
 21
-368.566
  0
LINE
  8
0
 10
238.659
 20
-368.566
 11
238.28
 21
-368.668
  0
LINE
  8
0
 10
238.28
 20
-368.668
 11
237.892
 21
-368.729
  0
LINE
  8
0
 10
237.892
 20
-368.729
 11
237.5
 21
-368.75
  0
LINE
  8
0
 10
237.5
 20
-368.75
 11
237.108
 21
-368.729
  0
LINE
  8
0
 10
-195.309
 20
-366.672
 11
-195.549
 21
-366.609
  0
LINE
  8
0
 10
-195.549
 20
-366.609
 11
-195.777
 21
-366.512
  0
LINE
  8
0
 10
-195.777
 20
-366.512
 11
-195.989
 21
-366.383
  0
LINE
  8
0
 10
-195.989
 20
-366.383
 11
-196.18
 21
-366.224
  0
LINE
  8
0
 10
-196.18
 20
-366.224
 11
-196.346
 21
-366.039
  0
LINE
  8
0
 10
-196.346
 20
-366.039
 11
-196.482
 21
-365.832
  0
LINE
  8
0
 10
-196.482
 20
-365.832
 11
-196.588
 21
-365.607
  0
LINE
  8
0
 10
-196.588
 20
-365.607
 11
-196.659
 21
-365.37
  0
LINE
  8
0
 10
-196.659
 20
-365.37
 11
-196.695
 21
-365.124
  0
LINE
  8
0
 10
-196.695
 20
-365.124
 11
-196.695
 21
-364.876
  0
LINE
  8
0
 10
-196.695
 20
-364.876
 11
-196.659
 21
-364.63
  0
LINE
  8
0
 10
-196.659
 20
-364.63
 11
-196.588
 21
-364.393
  0
LINE
  8
0
 10
-196.588
 20
-364.393
 11
-196.482
 21
-364.168
  0
LINE
  8
0
 10
-196.482
 20
-364.168
 11
-196.346
 21
-363.961
  0
LINE
  8
0
 10
-196.346
 20
-363.961
 11
-196.18
 21
-363.776
  0
LINE
  8
0
 10
-196.18
 20
-363.776
 11
-195.989
 21
-363.617
  0
LINE
  8
0
 10
-195.989
 20
-363.617
 11
-195.777
 21
-363.488
  0
LINE
  8
0
 10
-195.777
 20
-363.488
 11
-195.549
 21
-363.391
  0
LINE
  8
0
 10
-195.549
 20
-363.391
 11
-195.309
 21
-363.328
  0
LINE
  8
0
 10
-195.309
 20
-363.328
 11
-195.062
 21
-363.301
  0
LINE
  8
0
 10
-195.062
 20
-363.301
 11
-194.814
 21
-363.31
  0
LINE
  8
0
 10
-194.814
 20
-363.31
 11
-194.57
 21
-363.355
  0
LINE
  8
0
 10
-194.57
 20
-363.355
 11
-194.335
 21
-363.435
  0
LINE
  8
0
 10
-194.335
 20
-363.435
 11
-194.114
 21
-363.549
  0
LINE
  8
0
 10
-194.114
 20
-363.549
 11
-193.913
 21
-363.693
  0
LINE
  8
0
 10
-193.913
 20
-363.693
 11
-193.734
 21
-363.866
  0
LINE
  8
0
 10
-193.734
 20
-363.866
 11
-193.582
 21
-364.062
  0
LINE
  8
0
 10
-193.582
 20
-364.062
 11
-193.461
 21
-364.278
  0
LINE
  8
0
 10
-193.461
 20
-364.278
 11
-193.372
 21
-364.51
  0
LINE
  8
0
 10
-193.372
 20
-364.51
 11
-193.318
 21
-364.752
  0
LINE
  8
0
 10
-193.318
 20
-364.752
 11
-193.3
 21
-365
  0
LINE
  8
0
 10
-193.3
 20
-365
 11
-193.318
 21
-365.248
  0
LINE
  8
0
 10
-193.318
 20
-365.248
 11
-193.372
 21
-365.49
  0
LINE
  8
0
 10
-193.372
 20
-365.49
 11
-193.461
 21
-365.722
  0
LINE
  8
0
 10
-193.461
 20
-365.722
 11
-193.582
 21
-365.938
  0
LINE
  8
0
 10
-193.582
 20
-365.938
 11
-193.734
 21
-366.134
  0
LINE
  8
0
 10
-193.734
 20
-366.134
 11
-193.913
 21
-366.307
  0
LINE
  8
0
 10
-193.913
 20
-366.307
 11
-194.114
 21
-366.451
  0
LINE
  8
0
 10
-194.114
 20
-366.451
 11
-194.335
 21
-366.565
  0
LINE
  8
0
 10
-194.335
 20
-366.565
 11
-194.57
 21
-366.645
  0
LINE
  8
0
 10
-194.57
 20
-366.645
 11
-194.814
 21
-366.69
  0
LINE
  8
0
 10
-194.814
 20
-366.69
 11
-195.062
 21
-366.699
  0
LINE
  8
0
 10
-195.062
 20
-366.699
 11
-195.309
 21
-366.672
  0
LINE
  8
0
 10
194.691
 20
-366.672
 11
194.451
 21
-366.609
  0
LINE
  8
0
 10
194.451
 20
-366.609
 11
194.223
 21
-366.512
  0
LINE
  8
0
 10
194.223
 20
-366.512
 11
194.011
 21
-366.383
  0
LINE
  8
0
 10
194.011
 20
-366.383
 11
193.82
 21
-366.224
  0
LINE
  8
0
 10
193.82
 20
-366.224
 11
193.654
 21
-366.039
  0
LINE
  8
0
 10
193.654
 20
-366.039
 11
193.518
 21
-365.832
  0
LINE
  8
0
 10
193.518
 20
-365.832
 11
193.412
 21
-365.607
  0
LINE
  8
0
 10
193.412
 20
-365.607
 11
193.341
 21
-365.37
  0
LINE
  8
0
 10
193.341
 20
-365.37
 11
193.305
 21
-365.124
  0
LINE
  8
0
 10
193.305
 20
-365.124
 11
193.305
 21
-364.876
  0
LINE
  8
0
 10
193.305
 20
-364.876
 11
193.341
 21
-364.63
  0
LINE
  8
0
 10
193.341
 20
-364.63
 11
193.412
 21
-364.393
  0
LINE
  8
0
 10
193.412
 20
-364.393
 11
193.518
 21
-364.168
  0
LINE
  8
0
 10
193.518
 20
-364.168
 11
193.654
 21
-363.961
  0
LINE
  8
0
 10
193.654
 20
-363.961
 11
193.82
 21
-363.776
  0
LINE
  8
0
 10
193.82
 20
-363.776
 11
194.011
 21
-363.617
  0
LINE
  8
0
 10
194.011
 20
-363.617
 11
194.223
 21
-363.488
  0
LINE
  8
0
 10
194.223
 20
-363.488
 11
194.451
 21
-363.391
  0
LINE
  8
0
 10
194.451
 20
-363.391
 11
194.691
 21
-363.328
  0
LINE
  8
0
 10
194.691
 20
-363.328
 11
194.938
 21
-363.301
  0
LINE
  8
0
 10
194.938
 20
-363.301
 11
195.186
 21
-363.31
  0
LINE
  8
0
 10
195.186
 20
-363.31
 11
195.43
 21
-363.355
  0
LINE
  8
0
 10
195.43
 20
-363.355
 11
195.665
 21
-363.435
  0
LINE
  8
0
 10
195.665
 20
-363.435
 11
195.886
 21
-363.549
  0
LINE
  8
0
 10
195.886
 20
-363.549
 11
196.087
 21
-363.693
  0
LINE
  8
0
 10
196.087
 20
-363.693
 11
196.266
 21
-363.866
  0
LINE
  8
0
 10
196.266
 20
-363.866
 11
196.418
 21
-364.062
  0
LINE
  8
0
 10
196.418
 20
-364.062
 11
196.539
 21
-364.278
  0
LINE
  8
0
 10
196.539
 20
-364.278
 11
196.628
 21
-364.51
  0
LINE
  8
0
 10
196.628
 20
-364.51
 11
196.682
 21
-364.752
  0
LINE
  8
0
 10
196.682
 20
-364.752
 11
196.7
 21
-365
  0
LINE
  8
0
 10
196.7
 20
-365
 11
196.682
 21
-365.248
  0
LINE
  8
0
 10
196.682
 20
-365.248
 11
196.628
 21
-365.49
  0
LINE
  8
0
 10
196.628
 20
-365.49
 11
196.539
 21
-365.722
  0
LINE
  8
0
 10
196.539
 20
-365.722
 11
196.418
 21
-365.938
  0
LINE
  8
0
 10
196.418
 20
-365.938
 11
196.266
 21
-366.134
  0
LINE
  8
0
 10
196.266
 20
-366.134
 11
196.087
 21
-366.307
  0
LINE
  8
0
 10
196.087
 20
-366.307
 11
195.886
 21
-366.451
  0
LINE
  8
0
 10
195.886
 20
-366.451
 11
195.665
 21
-366.565
  0
LINE
  8
0
 10
195.665
 20
-366.565
 11
195.43
 21
-366.645
  0
LINE
  8
0
 10
195.43
 20
-366.645
 11
195.186
 21
-366.69
  0
LINE
  8
0
 10
195.186
 20
-366.69
 11
194.938
 21
-366.699
  0
LINE
  8
0
 10
194.938
 20
-366.699
 11
194.691
 21
-366.672
  0
LINE
  8
0
 10
97.1912
 20
-366.672
 11
96.9511
 21
-366.609
  0
LINE
  8
0
 10
96.9511
 20
-366.609
 11
96.7227
 21
-366.512
  0
LINE
  8
0
 10
96.7227
 20
-366.512
 11
96.5108
 21
-366.383
  0
LINE
  8
0
 10
96.5108
 20
-366.383
 11
96.3201
 21
-366.224
  0
LINE
  8
0
 10
96.3201
 20
-366.224
 11
96.1544
 21
-366.039
  0
LINE
  8
0
 10
96.1544
 20
-366.039
 11
96.0175
 21
-365.832
  0
LINE
  8
0
 10
96.0175
 20
-365.832
 11
95.9122
 21
-365.607
  0
LINE
  8
0
 10
95.9122
 20
-365.607
 11
95.8407
 21
-365.37
  0
LINE
  8
0
 10
95.8407
 20
-365.37
 11
95.8045
 21
-365.124
  0
LINE
  8
0
 10
95.8045
 20
-365.124
 11
95.8045
 21
-364.876
  0
LINE
  8
0
 10
95.8045
 20
-364.876
 11
95.8407
 21
-364.63
  0
LINE
  8
0
 10
95.8407
 20
-364.63
 11
95.9122
 21
-364.393
  0
LINE
  8
0
 10
95.9122
 20
-364.393
 11
96.0175
 21
-364.168
  0
LINE
  8
0
 10
96.0175
 20
-364.168
 11
96.1544
 21
-363.961
  0
LINE
  8
0
 10
96.1544
 20
-363.961
 11
96.3201
 21
-363.776
  0
LINE
  8
0
 10
96.3201
 20
-363.776
 11
96.5108
 21
-363.617
  0
LINE
  8
0
 10
96.5108
 20
-363.617
 11
96.7227
 21
-363.488
  0
LINE
  8
0
 10
96.7227
 20
-363.488
 11
96.9511
 21
-363.391
  0
LINE
  8
0
 10
96.9511
 20
-363.391
 11
97.1912
 21
-363.328
  0
LINE
  8
0
 10
97.1912
 20
-363.328
 11
97.4379
 21
-363.301
  0
LINE
  8
0
 10
97.4379
 20
-363.301
 11
97.6859
 21
-363.31
  0
LINE
  8
0
 10
97.6859
 20
-363.31
 11
97.93
 21
-363.355
  0
LINE
  8
0
 10
97.93
 20
-363.355
 11
98.1649
 21
-363.435
  0
LINE
  8
0
 10
98.1649
 20
-363.435
 11
98.3856
 21
-363.549
  0
LINE
  8
0
 10
98.3856
 20
-363.549
 11
98.5874
 21
-363.693
  0
LINE
  8
0
 10
98.5874
 20
-363.693
 11
98.7661
 21
-363.866
  0
LINE
  8
0
 10
98.7661
 20
-363.866
 11
98.9178
 21
-364.062
  0
LINE
  8
0
 10
98.9178
 20
-364.062
 11
99.0393
 21
-364.278
  0
LINE
  8
0
 10
99.0393
 20
-364.278
 11
99.1279
 21
-364.51
  0
LINE
  8
0
 10
99.1279
 20
-364.51
 11
99.1819
 21
-364.752
  0
LINE
  8
0
 10
99.1819
 20
-364.752
 11
99.2
 21
-365
  0
LINE
  8
0
 10
99.2
 20
-365
 11
99.1819
 21
-365.248
  0
LINE
  8
0
 10
99.1819
 20
-365.248
 11
99.1279
 21
-365.49
  0
LINE
  8
0
 10
99.1279
 20
-365.49
 11
99.0393
 21
-365.722
  0
LINE
  8
0
 10
99.0393
 20
-365.722
 11
98.9178
 21
-365.938
  0
LINE
  8
0
 10
98.9178
 20
-365.938
 11
98.7661
 21
-366.134
  0
LINE
  8
0
 10
98.7661
 20
-366.134
 11
98.5874
 21
-366.307
  0
LINE
  8
0
 10
98.5874
 20
-366.307
 11
98.3856
 21
-366.451
  0
LINE
  8
0
 10
98.3856
 20
-366.451
 11
98.1649
 21
-366.565
  0
LINE
  8
0
 10
98.1649
 20
-366.565
 11
97.93
 21
-366.645
  0
LINE
  8
0
 10
97.93
 20
-366.645
 11
97.6859
 21
-366.69
  0
LINE
  8
0
 10
97.6859
 20
-366.69
 11
97.4379
 21
-366.699
  0
LINE
  8
0
 10
97.4379
 20
-366.699
 11
97.1912
 21
-366.672
  0
LINE
  8
0
 10
-97.8088
 20
-366.672
 11
-98.0489
 21
-366.609
  0
LINE
  8
0
 10
-98.0489
 20
-366.609
 11
-98.2773
 21
-366.512
  0
LINE
  8
0
 10
-98.2773
 20
-366.512
 11
-98.4892
 21
-366.383
  0
LINE
  8
0
 10
-98.4892
 20
-366.383
 11
-98.6799
 21
-366.224
  0
LINE
  8
0
 10
-98.6799
 20
-366.224
 11
-98.8455
 21
-366.039
  0
LINE
  8
0
 10
-98.8455
 20
-366.039
 11
-98.9825
 21
-365.832
  0
LINE
  8
0
 10
-98.9825
 20
-365.832
 11
-99.0878
 21
-365.607
  0
LINE
  8
0
 10
-99.0878
 20
-365.607
 11
-99.1593
 21
-365.37
  0
LINE
  8
0
 10
-99.1593
 20
-365.37
 11
-99.1955
 21
-365.124
  0
LINE
  8
0
 10
-99.1955
 20
-365.124
 11
-99.1955
 21
-364.876
  0
LINE
  8
0
 10
-99.1955
 20
-364.876
 11
-99.1593
 21
-364.63
  0
LINE
  8
0
 10
-99.1593
 20
-364.63
 11
-99.0878
 21
-364.393
  0
LINE
  8
0
 10
-99.0878
 20
-364.393
 11
-98.9825
 21
-364.168
  0
LINE
  8
0
 10
-98.9825
 20
-364.168
 11
-98.8455
 21
-363.961
  0
LINE
  8
0
 10
-98.8455
 20
-363.961
 11
-98.6799
 21
-363.776
  0
LINE
  8
0
 10
-98.6799
 20
-363.776
 11
-98.4892
 21
-363.617
  0
LINE
  8
0
 10
-98.4892
 20
-363.617
 11
-98.2773
 21
-363.488
  0
LINE
  8
0
 10
-98.2773
 20
-363.488
 11
-98.0489
 21
-363.391
  0
LINE
  8
0
 10
-98.0489
 20
-363.391
 11
-97.8088
 21
-363.328
  0
LINE
  8
0
 10
-97.8088
 20
-363.328
 11
-97.5621
 21
-363.301
  0
LINE
  8
0
 10
-97.5621
 20
-363.301
 11
-97.3141
 21
-363.31
  0
LINE
  8
0
 10
-97.3141
 20
-363.31
 11
-97.07
 21
-363.355
  0
LINE
  8
0
 10
-97.07
 20
-363.355
 11
-96.8351
 21
-363.435
  0
LINE
  8
0
 10
-96.8351
 20
-363.435
 11
-96.6144
 21
-363.549
  0
LINE
  8
0
 10
-96.6144
 20
-363.549
 11
-96.4126
 21
-363.693
  0
LINE
  8
0
 10
-96.4126
 20
-363.693
 11
-96.2339
 21
-363.866
  0
LINE
  8
0
 10
-96.2339
 20
-363.866
 11
-96.0822
 21
-364.062
  0
LINE
  8
0
 10
-96.0822
 20
-364.062
 11
-95.9607
 21
-364.278
  0
LINE
  8
0
 10
-95.9607
 20
-364.278
 11
-95.8721
 21
-364.51
  0
LINE
  8
0
 10
-95.8721
 20
-364.51
 11
-95.8181
 21
-364.752
  0
LINE
  8
0
 10
-95.8181
 20
-364.752
 11
-95.8
 21
-365
  0
LINE
  8
0
 10
-95.8
 20
-365
 11
-95.8181
 21
-365.248
  0
LINE
  8
0
 10
-95.8181
 20
-365.248
 11
-95.8721
 21
-365.49
  0
LINE
  8
0
 10
-95.8721
 20
-365.49
 11
-95.9607
 21
-365.722
  0
LINE
  8
0
 10
-95.9607
 20
-365.722
 11
-96.0822
 21
-365.938
  0
LINE
  8
0
 10
-96.0822
 20
-365.938
 11
-96.2339
 21
-366.134
  0
LINE
  8
0
 10
-96.2339
 20
-366.134
 11
-96.4126
 21
-366.307
  0
LINE
  8
0
 10
-96.4126
 20
-366.307
 11
-96.6144
 21
-366.451
  0
LINE
  8
0
 10
-96.6144
 20
-366.451
 11
-96.8351
 21
-366.565
  0
LINE
  8
0
 10
-96.8351
 20
-366.565
 11
-97.07
 21
-366.645
  0
LINE
  8
0
 10
-97.07
 20
-366.645
 11
-97.3141
 21
-366.69
  0
LINE
  8
0
 10
-97.3141
 20
-366.69
 11
-97.5621
 21
-366.699
  0
LINE
  8
0
 10
-97.5621
 20
-366.699
 11
-97.8088
 21
-366.672
  0
LINE
  8
0
 10
-0.308777
 20
-366.672
 11
-0.548889
 21
-366.609
  0
LINE
  8
0
 10
-0.548889
 20
-366.609
 11
-0.777298
 21
-366.512
  0
LINE
  8
0
 10
-0.777298
 20
-366.512
 11
-0.989151
 21
-366.383
  0
LINE
  8
0
 10
-0.989151
 20
-366.383
 11
-1.17992
 21
-366.224
  0
LINE
  8
0
 10
-1.17992
 20
-366.224
 11
-1.34554
 21
-366.039
  0
LINE
  8
0
 10
-1.34554
 20
-366.039
 11
-1.48248
 21
-365.832
  0
LINE
  8
0
 10
-1.48248
 20
-365.832
 11
-1.58781
 21
-365.607
  0
LINE
  8
0
 10
-1.58781
 20
-365.607
 11
-1.65932
 21
-365.37
  0
LINE
  8
0
 10
-1.65932
 20
-365.37
 11
-1.69545
 21
-365.124
  0
LINE
  8
0
 10
-1.69545
 20
-365.124
 11
-1.69545
 21
-364.876
  0
LINE
  8
0
 10
-1.69545
 20
-364.876
 11
-1.65932
 21
-364.63
  0
LINE
  8
0
 10
-1.65932
 20
-364.63
 11
-1.58781
 21
-364.393
  0
LINE
  8
0
 10
-1.58781
 20
-364.393
 11
-1.48248
 21
-364.168
  0
LINE
  8
0
 10
-1.48248
 20
-364.168
 11
-1.34554
 21
-363.961
  0
LINE
  8
0
 10
-1.34554
 20
-363.961
 11
-1.17992
 21
-363.776
  0
LINE
  8
0
 10
-1.17992
 20
-363.776
 11
-0.989151
 21
-363.617
  0
LINE
  8
0
 10
-0.989151
 20
-363.617
 11
-0.777298
 21
-363.488
  0
LINE
  8
0
 10
-0.777298
 20
-363.488
 11
-0.548889
 21
-363.391
  0
LINE
  8
0
 10
-0.548889
 20
-363.391
 11
-0.308777
 21
-363.328
  0
LINE
  8
0
 10
-0.308777
 20
-363.328
 11
-0.0620728
 21
-363.301
  0
LINE
  8
0
 10
-0.0620728
 20
-363.301
 11
0.185928
 21
-363.31
  0
LINE
  8
0
 10
0.185928
 20
-363.31
 11
0.429977
 21
-363.355
  0
LINE
  8
0
 10
0.429977
 20
-363.355
 11
0.664871
 21
-363.435
  0
LINE
  8
0
 10
0.664871
 20
-363.435
 11
0.88559
 21
-363.549
  0
LINE
  8
0
 10
0.88559
 20
-363.549
 11
1.08743
 21
-363.693
  0
LINE
  8
0
 10
1.08743
 20
-363.693
 11
1.2661
 21
-363.866
  0
LINE
  8
0
 10
1.2661
 20
-363.866
 11
1.41779
 21
-364.062
  0
LINE
  8
0
 10
1.41779
 20
-364.062
 11
1.53926
 21
-364.278
  0
LINE
  8
0
 10
1.53926
 20
-364.278
 11
1.62791
 21
-364.51
  0
LINE
  8
0
 10
1.62791
 20
-364.51
 11
1.68187
 21
-364.752
  0
LINE
  8
0
 10
1.68187
 20
-364.752
 11
1.7
 21
-365
  0
LINE
  8
0
 10
1.7
 20
-365
 11
1.68187
 21
-365.248
  0
LINE
  8
0
 10
1.68187
 20
-365.248
 11
1.62791
 21
-365.49
  0
LINE
  8
0
 10
1.62791
 20
-365.49
 11
1.53926
 21
-365.722
  0
LINE
  8
0
 10
1.53926
 20
-365.722
 11
1.41779
 21
-365.938
  0
LINE
  8
0
 10
1.41779
 20
-365.938
 11
1.2661
 21
-366.134
  0
LINE
  8
0
 10
1.2661
 20
-366.134
 11
1.08743
 21
-366.307
  0
LINE
  8
0
 10
1.08743
 20
-366.307
 11
0.88559
 21
-366.451
  0
LINE
  8
0
 10
0.88559
 20
-366.451
 11
0.664871
 21
-366.565
  0
LINE
  8
0
 10
0.664871
 20
-366.565
 11
0.429977
 21
-366.645
  0
LINE
  8
0
 10
0.429977
 20
-366.645
 11
0.185928
 21
-366.69
  0
LINE
  8
0
 10
0.185928
 20
-366.69
 11
-0.0620728
 21
-366.699
  0
LINE
  8
0
 10
-0.0620728
 20
-366.699
 11
-0.308777
 21
-366.672
  0
LINE
  8
0
 10
-236.018
 20
45.2394
 11
-236.154
 21
45.0324
  0
LINE
  8
0
 10
-236.154
 20
45.0324
 11
-236.32
 21
44.8476
  0
LINE
  8
0
 10
-236.32
 20
44.8476
 11
-236.511
 21
44.6888
  0
LINE
  8
0
 10
-236.511
 20
44.6888
 11
-236.723
 21
44.5595
  0
LINE
  8
0
 10
-236.723
 20
44.5595
 11
-236.951
 21
44.4625
  0
LINE
  8
0
 10
-236.951
 20
44.4625
 11
-237.191
 21
44.3997
  0
LINE
  8
0
 10
-237.191
 20
44.3997
 11
-237.438
 21
44.3726
  0
LINE
  8
0
 10
-237.438
 20
44.3726
 11
-237.686
 21
44.3816
  0
LINE
  8
0
 10
-237.686
 20
44.3816
 11
-237.93
 21
44.4267
  0
LINE
  8
0
 10
-237.93
 20
44.4267
 11
-238.165
 21
44.5068
  0
LINE
  8
0
 10
-238.165
 20
44.5068
 11
-238.386
 21
44.6203
  0
LINE
  8
0
 10
-238.386
 20
44.6203
 11
-238.587
 21
44.7647
  0
LINE
  8
0
 10
-238.587
 20
44.7647
 11
-238.766
 21
44.937
  0
LINE
  8
0
 10
-238.766
 20
44.937
 11
-238.918
 21
45.1334
  0
LINE
  8
0
 10
-238.918
 20
45.1334
 11
-239.039
 21
45.3499
  0
LINE
  8
0
 10
-239.039
 20
45.3499
 11
-239.128
 21
45.5816
  0
LINE
  8
0
 10
-239.128
 20
45.5816
 11
-239.182
 21
45.8239
  0
LINE
  8
0
 10
-239.182
 20
45.8239
 11
-239.2
 21
46.0714
  0
LINE
  8
0
 10
-239.2
 20
46.0714
 11
-239.182
 21
46.3189
  0
LINE
  8
0
 10
-239.182
 20
46.3189
 11
-239.128
 21
46.5612
  0
LINE
  8
0
 10
-239.128
 20
46.5612
 11
-239.039
 21
46.793
  0
LINE
  8
0
 10
-239.039
 20
46.793
 11
-238.918
 21
47.0094
  0
LINE
  8
0
 10
-238.918
 20
47.0094
 11
-238.766
 21
47.2059
  0
LINE
  8
0
 10
-238.766
 20
47.2059
 11
-238.587
 21
47.3781
  0
LINE
  8
0
 10
-238.587
 20
47.3781
 11
-238.386
 21
47.5225
  0
LINE
  8
0
 10
-238.386
 20
47.5225
 11
-238.165
 21
47.636
  0
LINE
  8
0
 10
-238.165
 20
47.636
 11
-237.93
 21
47.7161
  0
LINE
  8
0
 10
-237.93
 20
47.7161
 11
-237.686
 21
47.7612
  0
LINE
  8
0
 10
-237.686
 20
47.7612
 11
-237.438
 21
47.7703
  0
LINE
  8
0
 10
-237.438
 20
47.7703
 11
-237.191
 21
47.7431
  0
LINE
  8
0
 10
-237.191
 20
47.7431
 11
-236.951
 21
47.6804
  0
LINE
  8
0
 10
-236.951
 20
47.6804
 11
-236.723
 21
47.5833
  0
LINE
  8
0
 10
-236.723
 20
47.5833
 11
-236.511
 21
47.454
  0
LINE
  8
0
 10
-236.511
 20
47.454
 11
-236.32
 21
47.2953
  0
LINE
  8
0
 10
-236.32
 20
47.2953
 11
-236.154
 21
47.1104
  0
LINE
  8
0
 10
-236.154
 20
47.1104
 11
-236.018
 21
46.9034
  0
LINE
  8
0
 10
-236.018
 20
46.9034
 11
-235.912
 21
46.6787
  0
LINE
  8
0
 10
-235.912
 20
46.6787
 11
-235.841
 21
46.4411
  0
LINE
  8
0
 10
-235.841
 20
46.4411
 11
-235.805
 21
46.1955
  0
LINE
  8
0
 10
-235.805
 20
46.1955
 11
-235.805
 21
45.9473
  0
LINE
  8
0
 10
-235.805
 20
45.9473
 11
-235.841
 21
45.7018
  0
LINE
  8
0
 10
-235.841
 20
45.7018
 11
-235.912
 21
45.4641
  0
LINE
  8
0
 10
-235.912
 20
45.4641
 11
-236.018
 21
45.2394
  0
ENDSEC
  0
SECTION
  2
OBJECTS
  0
DICTIONARY
  0
ENDSEC
  0
EOF
