  0
SECTION
  2
BLOCKS
  0
ENDSEC
  0
SECTION
  2
ENTITIES
  0
LINE
  8
0
 10
315.523
 20
-233.823
 11
316.04
 21
-233.741
  0
LINE
  8
0
 10
316.04
 20
-233.741
 11
316.545
 21
-233.605
  0
LINE
  8
0
 10
316.545
 20
-233.605
 11
317.034
 21
-233.418
  0
LINE
  8
0
 10
317.034
 20
-233.418
 11
317.5
 21
-233.18
  0
LINE
  8
0
 10
317.5
 20
-233.18
 11
317.939
 21
-232.895
  0
LINE
  8
0
 10
317.939
 20
-232.895
 11
318.346
 21
-232.566
  0
LINE
  8
0
 10
318.346
 20
-232.566
 11
318.716
 21
-232.196
  0
LINE
  8
0
 10
318.716
 20
-232.196
 11
319.045
 21
-231.789
  0
LINE
  8
0
 10
319.045
 20
-231.789
 11
319.33
 21
-231.35
  0
LINE
  8
0
 10
319.33
 20
-231.35
 11
319.568
 21
-230.884
  0
LINE
  8
0
 10
319.568
 20
-230.884
 11
319.755
 21
-230.395
  0
LINE
  8
0
 10
319.755
 20
-230.395
 11
319.891
 21
-229.89
  0
LINE
  8
0
 10
319.891
 20
-229.89
 11
319.973
 21
-229.373
  0
LINE
  8
0
 10
319.973
 20
-229.373
 11
320
 21
-228.85
  0
LINE
  8
0
 10
320
 20
-228.85
 11
320
 21
228.85
  0
LINE
  8
0
 10
320
 20
228.85
 11
319.973
 21
229.373
  0
LINE
  8
0
 10
319.973
 20
229.373
 11
319.891
 21
229.89
  0
LINE
  8
0
 10
319.891
 20
229.89
 11
319.755
 21
230.395
  0
LINE
  8
0
 10
319.755
 20
230.395
 11
319.568
 21
230.884
  0
LINE
  8
0
 10
319.568
 20
230.884
 11
319.33
 21
231.35
  0
LINE
  8
0
 10
319.33
 20
231.35
 11
319.045
 21
231.789
  0
LINE
  8
0
 10
319.045
 20
231.789
 11
318.716
 21
232.196
  0
LINE
  8
0
 10
318.716
 20
232.196
 11
318.346
 21
232.566
  0
LINE
  8
0
 10
318.346
 20
232.566
 11
317.939
 21
232.895
  0
LINE
  8
0
 10
317.939
 20
232.895
 11
317.5
 21
233.18
  0
LINE
  8
0
 10
317.5
 20
233.18
 11
317.034
 21
233.418
  0
LINE
  8
0
 10
317.034
 20
233.418
 11
316.545
 21
233.605
  0
LINE
  8
0
 10
316.545
 20
233.605
 11
316.04
 21
233.741
  0
LINE
  8
0
 10
316.04
 20
233.741
 11
315.523
 21
233.823
  0
LINE
  8
0
 10
315.523
 20
233.823
 11
315
 21
233.85
  0
LINE
  8
0
 10
315
 20
233.85
 11
-315
 21
233.85
  0
LINE
  8
0
 10
-315
 20
233.85
 11
-315.523
 21
233.823
  0
LINE
  8
0
 10
-315.523
 20
233.823
 11
-316.04
 21
233.741
  0
LINE
  8
0
 10
-316.04
 20
233.741
 11
-316.545
 21
233.605
  0
LINE
  8
0
 10
-316.545
 20
233.605
 11
-317.034
 21
233.418
  0
LINE
  8
0
 10
-317.034
 20
233.418
 11
-317.5
 21
233.18
  0
LINE
  8
0
 10
-317.5
 20
233.18
 11
-317.939
 21
232.895
  0
LINE
  8
0
 10
-317.939
 20
232.895
 11
-318.346
 21
232.566
  0
LINE
  8
0
 10
-318.346
 20
232.566
 11
-318.716
 21
232.196
  0
LINE
  8
0
 10
-318.716
 20
232.196
 11
-319.045
 21
231.789
  0
LINE
  8
0
 10
-319.045
 20
231.789
 11
-319.33
 21
231.35
  0
LINE
  8
0
 10
-319.33
 20
231.35
 11
-319.568
 21
230.884
  0
LINE
  8
0
 10
-319.568
 20
230.884
 11
-319.755
 21
230.395
  0
LINE
  8
0
 10
-319.755
 20
230.395
 11
-319.891
 21
229.89
  0
LINE
  8
0
 10
-319.891
 20
229.89
 11
-319.973
 21
229.373
  0
LINE
  8
0
 10
-319.973
 20
229.373
 11
-320
 21
228.85
  0
LINE
  8
0
 10
-320
 20
228.85
 11
-320
 21
-228.85
  0
LINE
  8
0
 10
-320
 20
-228.85
 11
-319.973
 21
-229.373
  0
LINE
  8
0
 10
-319.973
 20
-229.373
 11
-319.891
 21
-229.89
  0
LINE
  8
0
 10
-319.891
 20
-229.89
 11
-319.755
 21
-230.395
  0
LINE
  8
0
 10
-319.755
 20
-230.395
 11
-319.568
 21
-230.884
  0
LINE
  8
0
 10
-319.568
 20
-230.884
 11
-319.33
 21
-231.35
  0
LINE
  8
0
 10
-319.33
 20
-231.35
 11
-319.045
 21
-231.789
  0
LINE
  8
0
 10
-319.045
 20
-231.789
 11
-318.716
 21
-232.196
  0
LINE
  8
0
 10
-318.716
 20
-232.196
 11
-318.346
 21
-232.566
  0
LINE
  8
0
 10
-318.346
 20
-232.566
 11
-317.939
 21
-232.895
  0
LINE
  8
0
 10
-317.939
 20
-232.895
 11
-317.5
 21
-233.18
  0
LINE
  8
0
 10
-317.5
 20
-233.18
 11
-317.034
 21
-233.418
  0
LINE
  8
0
 10
-317.034
 20
-233.418
 11
-316.545
 21
-233.605
  0
LINE
  8
0
 10
-316.545
 20
-233.605
 11
-316.04
 21
-233.741
  0
LINE
  8
0
 10
-316.04
 20
-233.741
 11
-315.523
 21
-233.823
  0
LINE
  8
0
 10
-315.523
 20
-233.823
 11
-315
 21
-233.85
  0
LINE
  8
0
 10
-315
 20
-233.85
 11
315
 21
-233.85
  0
LINE
  8
0
 10
315
 20
-233.85
 11
315.523
 21
-233.823
  0
LINE
  8
0
 10
-237.892
 20
216.271
 11
-238.28
 21
216.332
  0
LINE
  8
0
 10
-238.28
 20
216.332
 11
-238.659
 21
216.434
  0
LINE
  8
0
 10
-238.659
 20
216.434
 11
-239.025
 21
216.574
  0
LINE
  8
0
 10
-239.025
 20
216.574
 11
-239.375
 21
216.752
  0
LINE
  8
0
 10
-239.375
 20
216.752
 11
-239.704
 21
216.966
  0
LINE
  8
0
 10
-239.704
 20
216.966
 11
-240.009
 21
217.213
  0
LINE
  8
0
 10
-240.009
 20
217.213
 11
-240.287
 21
217.491
  0
LINE
  8
0
 10
-240.287
 20
217.491
 11
-240.534
 21
217.796
  0
LINE
  8
0
 10
-240.534
 20
217.796
 11
-240.748
 21
218.125
  0
LINE
  8
0
 10
-240.748
 20
218.125
 11
-240.926
 21
218.475
  0
LINE
  8
0
 10
-240.926
 20
218.475
 11
-241.066
 21
218.841
  0
LINE
  8
0
 10
-241.066
 20
218.841
 11
-241.168
 21
219.22
  0
LINE
  8
0
 10
-241.168
 20
219.22
 11
-241.229
 21
219.608
  0
LINE
  8
0
 10
-241.229
 20
219.608
 11
-241.25
 21
220
  0
LINE
  8
0
 10
-241.25
 20
220
 11
-241.229
 21
220.392
  0
LINE
  8
0
 10
-241.229
 20
220.392
 11
-241.168
 21
220.78
  0
LINE
  8
0
 10
-241.168
 20
220.78
 11
-241.066
 21
221.159
  0
LINE
  8
0
 10
-241.066
 20
221.159
 11
-240.926
 21
221.525
  0
LINE
  8
0
 10
-240.926
 20
221.525
 11
-240.748
 21
221.875
  0
LINE
  8
0
 10
-240.748
 20
221.875
 11
-240.534
 21
222.204
  0
LINE
  8
0
 10
-240.534
 20
222.204
 11
-240.287
 21
222.509
  0
LINE
  8
0
 10
-240.287
 20
222.509
 11
-240.009
 21
222.787
  0
LINE
  8
0
 10
-240.009
 20
222.787
 11
-239.704
 21
223.034
  0
LINE
  8
0
 10
-239.704
 20
223.034
 11
-239.375
 21
223.248
  0
LINE
  8
0
 10
-239.375
 20
223.248
 11
-239.025
 21
223.426
  0
LINE
  8
0
 10
-239.025
 20
223.426
 11
-238.659
 21
223.566
  0
LINE
  8
0
 10
-238.659
 20
223.566
 11
-238.28
 21
223.668
  0
LINE
  8
0
 10
-238.28
 20
223.668
 11
-237.892
 21
223.729
  0
LINE
  8
0
 10
-237.892
 20
223.729
 11
-237.5
 21
223.75
  0
LINE
  8
0
 10
-237.5
 20
223.75
 11
-237.108
 21
223.729
  0
LINE
  8
0
 10
-237.108
 20
223.729
 11
-236.72
 21
223.668
  0
LINE
  8
0
 10
-236.72
 20
223.668
 11
-236.341
 21
223.566
  0
LINE
  8
0
 10
-236.341
 20
223.566
 11
-235.975
 21
223.426
  0
LINE
  8
0
 10
-235.975
 20
223.426
 11
-235.625
 21
223.248
  0
LINE
  8
0
 10
-235.625
 20
223.248
 11
-235.296
 21
223.034
  0
LINE
  8
0
 10
-235.296
 20
223.034
 11
-234.991
 21
222.787
  0
LINE
  8
0
 10
-234.991
 20
222.787
 11
-234.713
 21
222.509
  0
LINE
  8
0
 10
-234.713
 20
222.509
 11
-234.466
 21
222.204
  0
LINE
  8
0
 10
-234.466
 20
222.204
 11
-234.252
 21
221.875
  0
LINE
  8
0
 10
-234.252
 20
221.875
 11
-234.074
 21
221.525
  0
LINE
  8
0
 10
-234.074
 20
221.525
 11
-233.934
 21
221.159
  0
LINE
  8
0
 10
-233.934
 20
221.159
 11
-233.832
 21
220.78
  0
LINE
  8
0
 10
-233.832
 20
220.78
 11
-233.771
 21
220.392
  0
LINE
  8
0
 10
-233.771
 20
220.392
 11
-233.75
 21
220
  0
LINE
  8
0
 10
-233.75
 20
220
 11
-233.771
 21
219.608
  0
LINE
  8
0
 10
-233.771
 20
219.608
 11
-233.832
 21
219.22
  0
LINE
  8
0
 10
-233.832
 20
219.22
 11
-233.934
 21
218.841
  0
LINE
  8
0
 10
-233.934
 20
218.841
 11
-234.074
 21
218.475
  0
LINE
  8
0
 10
-234.074
 20
218.475
 11
-234.252
 21
218.125
  0
LINE
  8
0
 10
-234.252
 20
218.125
 11
-234.466
 21
217.796
  0
LINE
  8
0
 10
-234.466
 20
217.796
 11
-234.713
 21
217.491
  0
LINE
  8
0
 10
-234.713
 20
217.491
 11
-234.991
 21
217.213
  0
LINE
  8
0
 10
-234.991
 20
217.213
 11
-235.296
 21
216.966
  0
LINE
  8
0
 10
-235.296
 20
216.966
 11
-235.625
 21
216.752
  0
LINE
  8
0
 10
-235.625
 20
216.752
 11
-235.975
 21
216.574
  0
LINE
  8
0
 10
-235.975
 20
216.574
 11
-236.341
 21
216.434
  0
LINE
  8
0
 10
-236.341
 20
216.434
 11
-236.72
 21
216.332
  0
LINE
  8
0
 10
-236.72
 20
216.332
 11
-237.108
 21
216.271
  0
LINE
  8
0
 10
-237.108
 20
216.271
 11
-237.5
 21
216.25
  0
LINE
  8
0
 10
-237.5
 20
216.25
 11
-237.892
 21
216.271
  0
LINE
  8
0
 10
237.108
 20
216.271
 11
236.72
 21
216.332
  0
LINE
  8
0
 10
236.72
 20
216.332
 11
236.341
 21
216.434
  0
LINE
  8
0
 10
236.341
 20
216.434
 11
235.975
 21
216.574
  0
LINE
  8
0
 10
235.975
 20
216.574
 11
235.625
 21
216.752
  0
LINE
  8
0
 10
235.625
 20
216.752
 11
235.296
 21
216.966
  0
LINE
  8
0
 10
235.296
 20
216.966
 11
234.991
 21
217.213
  0
LINE
  8
0
 10
234.991
 20
217.213
 11
234.713
 21
217.491
  0
LINE
  8
0
 10
234.713
 20
217.491
 11
234.466
 21
217.796
  0
LINE
  8
0
 10
234.466
 20
217.796
 11
234.252
 21
218.125
  0
LINE
  8
0
 10
234.252
 20
218.125
 11
234.074
 21
218.475
  0
LINE
  8
0
 10
234.074
 20
218.475
 11
233.934
 21
218.841
  0
LINE
  8
0
 10
233.934
 20
218.841
 11
233.832
 21
219.22
  0
LINE
  8
0
 10
233.832
 20
219.22
 11
233.771
 21
219.608
  0
LINE
  8
0
 10
233.771
 20
219.608
 11
233.75
 21
220
  0
LINE
  8
0
 10
233.75
 20
220
 11
233.771
 21
220.392
  0
LINE
  8
0
 10
233.771
 20
220.392
 11
233.832
 21
220.78
  0
LINE
  8
0
 10
233.832
 20
220.78
 11
233.934
 21
221.159
  0
LINE
  8
0
 10
233.934
 20
221.159
 11
234.074
 21
221.525
  0
LINE
  8
0
 10
234.074
 20
221.525
 11
234.252
 21
221.875
  0
LINE
  8
0
 10
234.252
 20
221.875
 11
234.466
 21
222.204
  0
LINE
  8
0
 10
234.466
 20
222.204
 11
234.713
 21
222.509
  0
LINE
  8
0
 10
234.713
 20
222.509
 11
234.991
 21
222.787
  0
LINE
  8
0
 10
234.991
 20
222.787
 11
235.296
 21
223.034
  0
LINE
  8
0
 10
235.296
 20
223.034
 11
235.625
 21
223.248
  0
LINE
  8
0
 10
235.625
 20
223.248
 11
235.975
 21
223.426
  0
LINE
  8
0
 10
235.975
 20
223.426
 11
236.341
 21
223.566
  0
LINE
  8
0
 10
236.341
 20
223.566
 11
236.72
 21
223.668
  0
LINE
  8
0
 10
236.72
 20
223.668
 11
237.108
 21
223.729
  0
LINE
  8
0
 10
237.108
 20
223.729
 11
237.5
 21
223.75
  0
LINE
  8
0
 10
237.5
 20
223.75
 11
237.892
 21
223.729
  0
LINE
  8
0
 10
237.892
 20
223.729
 11
238.28
 21
223.668
  0
LINE
  8
0
 10
238.28
 20
223.668
 11
238.659
 21
223.566
  0
LINE
  8
0
 10
238.659
 20
223.566
 11
239.025
 21
223.426
  0
LINE
  8
0
 10
239.025
 20
223.426
 11
239.375
 21
223.248
  0
LINE
  8
0
 10
239.375
 20
223.248
 11
239.704
 21
223.034
  0
LINE
  8
0
 10
239.704
 20
223.034
 11
240.009
 21
222.787
  0
LINE
  8
0
 10
240.009
 20
222.787
 11
240.287
 21
222.509
  0
LINE
  8
0
 10
240.287
 20
222.509
 11
240.534
 21
222.204
  0
LINE
  8
0
 10
240.534
 20
222.204
 11
240.748
 21
221.875
  0
LINE
  8
0
 10
240.748
 20
221.875
 11
240.926
 21
221.525
  0
LINE
  8
0
 10
240.926
 20
221.525
 11
241.066
 21
221.159
  0
LINE
  8
0
 10
241.066
 20
221.159
 11
241.168
 21
220.78
  0
LINE
  8
0
 10
241.168
 20
220.78
 11
241.229
 21
220.392
  0
LINE
  8
0
 10
241.229
 20
220.392
 11
241.25
 21
220
  0
LINE
  8
0
 10
241.25
 20
220
 11
241.229
 21
219.608
  0
LINE
  8
0
 10
241.229
 20
219.608
 11
241.168
 21
219.22
  0
LINE
  8
0
 10
241.168
 20
219.22
 11
241.066
 21
218.841
  0
LINE
  8
0
 10
241.066
 20
218.841
 11
240.926
 21
218.475
  0
LINE
  8
0
 10
240.926
 20
218.475
 11
240.748
 21
218.125
  0
LINE
  8
0
 10
240.748
 20
218.125
 11
240.534
 21
217.796
  0
LINE
  8
0
 10
240.534
 20
217.796
 11
240.287
 21
217.491
  0
LINE
  8
0
 10
240.287
 20
217.491
 11
240.009
 21
217.213
  0
LINE
  8
0
 10
240.009
 20
217.213
 11
239.704
 21
216.966
  0
LINE
  8
0
 10
239.704
 20
216.966
 11
239.375
 21
216.752
  0
LINE
  8
0
 10
239.375
 20
216.752
 11
239.025
 21
216.574
  0
LINE
  8
0
 10
239.025
 20
216.574
 11
238.659
 21
216.434
  0
LINE
  8
0
 10
238.659
 20
216.434
 11
238.28
 21
216.332
  0
LINE
  8
0
 10
238.28
 20
216.332
 11
237.892
 21
216.271
  0
LINE
  8
0
 10
237.892
 20
216.271
 11
237.5
 21
216.25
  0
LINE
  8
0
 10
237.5
 20
216.25
 11
237.108
 21
216.271
  0
LINE
  8
0
 10
263.377
 20
219.355
 11
263.133
 21
219.391
  0
LINE
  8
0
 10
263.133
 20
219.391
 11
262.897
 21
219.464
  0
LINE
  8
0
 10
262.897
 20
219.464
 11
262.675
 21
219.571
  0
LINE
  8
0
 10
262.675
 20
219.571
 11
262.471
 21
219.71
  0
LINE
  8
0
 10
262.471
 20
219.71
 11
262.29
 21
219.878
  0
LINE
  8
0
 10
262.29
 20
219.878
 11
262.137
 21
220.071
  0
LINE
  8
0
 10
262.137
 20
220.071
 11
262.013
 21
220.284
  0
LINE
  8
0
 10
262.013
 20
220.284
 11
261.923
 21
220.514
  0
LINE
  8
0
 10
261.923
 20
220.514
 11
261.868
 21
220.754
  0
LINE
  8
0
 10
261.868
 20
220.754
 11
261.85
 21
221
  0
LINE
  8
0
 10
261.85
 20
221
 11
261.868
 21
221.246
  0
LINE
  8
0
 10
261.868
 20
221.246
 11
261.923
 21
221.486
  0
LINE
  8
0
 10
261.923
 20
221.486
 11
262.013
 21
221.716
  0
LINE
  8
0
 10
262.013
 20
221.716
 11
262.137
 21
221.929
  0
LINE
  8
0
 10
262.137
 20
221.929
 11
262.29
 21
222.122
  0
LINE
  8
0
 10
262.29
 20
222.122
 11
262.471
 21
222.29
  0
LINE
  8
0
 10
262.471
 20
222.29
 11
262.675
 21
222.429
  0
LINE
  8
0
 10
262.675
 20
222.429
 11
262.897
 21
222.536
  0
LINE
  8
0
 10
262.897
 20
222.536
 11
263.133
 21
222.609
  0
LINE
  8
0
 10
263.133
 20
222.609
 11
263.377
 21
222.645
  0
LINE
  8
0
 10
263.377
 20
222.645
 11
271.623
 21
222.645
  0
LINE
  8
0
 10
271.623
 20
222.645
 11
271.867
 21
222.609
  0
LINE
  8
0
 10
271.867
 20
222.609
 11
272.103
 21
222.536
  0
LINE
  8
0
 10
272.103
 20
222.536
 11
272.325
 21
222.429
  0
LINE
  8
0
 10
272.325
 20
222.429
 11
272.529
 21
222.29
  0
LINE
  8
0
 10
272.529
 20
222.29
 11
272.71
 21
222.122
  0
LINE
  8
0
 10
272.71
 20
222.122
 11
272.863
 21
221.929
  0
LINE
  8
0
 10
272.863
 20
221.929
 11
272.987
 21
221.716
  0
LINE
  8
0
 10
272.987
 20
221.716
 11
273.077
 21
221.486
  0
LINE
  8
0
 10
273.077
 20
221.486
 11
273.132
 21
221.246
  0
LINE
  8
0
 10
273.132
 20
221.246
 11
273.15
 21
221
  0
LINE
  8
0
 10
273.15
 20
221
 11
273.132
 21
220.754
  0
LINE
  8
0
 10
273.132
 20
220.754
 11
273.077
 21
220.514
  0
LINE
  8
0
 10
273.077
 20
220.514
 11
272.987
 21
220.284
  0
LINE
  8
0
 10
272.987
 20
220.284
 11
272.863
 21
220.071
  0
LINE
  8
0
 10
272.863
 20
220.071
 11
272.71
 21
219.878
  0
LINE
  8
0
 10
272.71
 20
219.878
 11
272.529
 21
219.71
  0
LINE
  8
0
 10
272.529
 20
219.71
 11
272.325
 21
219.571
  0
LINE
  8
0
 10
272.325
 20
219.571
 11
272.103
 21
219.464
  0
LINE
  8
0
 10
272.103
 20
219.464
 11
271.867
 21
219.391
  0
LINE
  8
0
 10
271.867
 20
219.391
 11
271.623
 21
219.355
  0
LINE
  8
0
 10
271.623
 20
219.355
 11
263.377
 21
219.355
  0
LINE
  8
0
 10
294.377
 20
219.355
 11
294.133
 21
219.391
  0
LINE
  8
0
 10
294.133
 20
219.391
 11
293.897
 21
219.464
  0
LINE
  8
0
 10
293.897
 20
219.464
 11
293.675
 21
219.571
  0
LINE
  8
0
 10
293.675
 20
219.571
 11
293.471
 21
219.71
  0
LINE
  8
0
 10
293.471
 20
219.71
 11
293.29
 21
219.878
  0
LINE
  8
0
 10
293.29
 20
219.878
 11
293.137
 21
220.071
  0
LINE
  8
0
 10
293.137
 20
220.071
 11
293.013
 21
220.284
  0
LINE
  8
0
 10
293.013
 20
220.284
 11
292.923
 21
220.514
  0
LINE
  8
0
 10
292.923
 20
220.514
 11
292.868
 21
220.754
  0
LINE
  8
0
 10
292.868
 20
220.754
 11
292.85
 21
221
  0
LINE
  8
0
 10
292.85
 20
221
 11
292.868
 21
221.246
  0
LINE
  8
0
 10
292.868
 20
221.246
 11
292.923
 21
221.486
  0
LINE
  8
0
 10
292.923
 20
221.486
 11
293.013
 21
221.716
  0
LINE
  8
0
 10
293.013
 20
221.716
 11
293.137
 21
221.929
  0
LINE
  8
0
 10
293.137
 20
221.929
 11
293.29
 21
222.122
  0
LINE
  8
0
 10
293.29
 20
222.122
 11
293.471
 21
222.29
  0
LINE
  8
0
 10
293.471
 20
222.29
 11
293.675
 21
222.429
  0
LINE
  8
0
 10
293.675
 20
222.429
 11
293.897
 21
222.536
  0
LINE
  8
0
 10
293.897
 20
222.536
 11
294.133
 21
222.609
  0
LINE
  8
0
 10
294.133
 20
222.609
 11
294.377
 21
222.645
  0
LINE
  8
0
 10
294.377
 20
222.645
 11
302.623
 21
222.645
  0
LINE
  8
0
 10
302.623
 20
222.645
 11
302.867
 21
222.609
  0
LINE
  8
0
 10
302.867
 20
222.609
 11
303.103
 21
222.536
  0
LINE
  8
0
 10
303.103
 20
222.536
 11
303.325
 21
222.429
  0
LINE
  8
0
 10
303.325
 20
222.429
 11
303.529
 21
222.29
  0
LINE
  8
0
 10
303.529
 20
222.29
 11
303.71
 21
222.122
  0
LINE
  8
0
 10
303.71
 20
222.122
 11
303.863
 21
221.929
  0
LINE
  8
0
 10
303.863
 20
221.929
 11
303.987
 21
221.716
  0
LINE
  8
0
 10
303.987
 20
221.716
 11
304.077
 21
221.486
  0
LINE
  8
0
 10
304.077
 20
221.486
 11
304.132
 21
221.246
  0
LINE
  8
0
 10
304.132
 20
221.246
 11
304.15
 21
221
  0
LINE
  8
0
 10
304.15
 20
221
 11
304.132
 21
220.754
  0
LINE
  8
0
 10
304.132
 20
220.754
 11
304.077
 21
220.514
  0
LINE
  8
0
 10
304.077
 20
220.514
 11
303.987
 21
220.284
  0
LINE
  8
0
 10
303.987
 20
220.284
 11
303.863
 21
220.071
  0
LINE
  8
0
 10
303.863
 20
220.071
 11
303.71
 21
219.878
  0
LINE
  8
0
 10
303.71
 20
219.878
 11
303.529
 21
219.71
  0
LINE
  8
0
 10
303.529
 20
219.71
 11
303.325
 21
219.571
  0
LINE
  8
0
 10
303.325
 20
219.571
 11
303.103
 21
219.464
  0
LINE
  8
0
 10
303.103
 20
219.464
 11
302.867
 21
219.391
  0
LINE
  8
0
 10
302.867
 20
219.391
 11
302.623
 21
219.355
  0
LINE
  8
0
 10
302.623
 20
219.355
 11
294.377
 21
219.355
  0
LINE
  8
0
 10
72.5
 20
218.25
 11
72.2509
 21
218.268
  0
LINE
  8
0
 10
72.2509
 20
218.268
 11
72.007
 21
218.321
  0
LINE
  8
0
 10
72.007
 20
218.321
 11
71.773
 21
218.408
  0
LINE
  8
0
 10
71.773
 20
218.408
 11
71.5539
 21
218.528
  0
LINE
  8
0
 10
71.5539
 20
218.528
 11
71.354
 21
218.677
  0
LINE
  8
0
 10
71.354
 20
218.677
 11
71.1774
 21
218.854
  0
LINE
  8
0
 10
71.1774
 20
218.854
 11
71.0278
 21
219.054
  0
LINE
  8
0
 10
71.0278
 20
219.054
 11
70.9081
 21
219.273
  0
LINE
  8
0
 10
70.9081
 20
219.273
 11
70.8209
 21
219.507
  0
LINE
  8
0
 10
70.8209
 20
219.507
 11
70.7678
 21
219.751
  0
LINE
  8
0
 10
70.7678
 20
219.751
 11
70.75
 21
220
  0
LINE
  8
0
 10
70.75
 20
220
 11
70.7678
 21
220.249
  0
LINE
  8
0
 10
70.7678
 20
220.249
 11
70.8209
 21
220.493
  0
LINE
  8
0
 10
70.8209
 20
220.493
 11
70.9081
 21
220.727
  0
LINE
  8
0
 10
70.9081
 20
220.727
 11
71.0278
 21
220.946
  0
LINE
  8
0
 10
71.0278
 20
220.946
 11
71.1774
 21
221.146
  0
LINE
  8
0
 10
71.1774
 20
221.146
 11
71.354
 21
221.323
  0
LINE
  8
0
 10
71.354
 20
221.323
 11
71.5539
 21
221.472
  0
LINE
  8
0
 10
71.5539
 20
221.472
 11
71.773
 21
221.592
  0
LINE
  8
0
 10
71.773
 20
221.592
 11
72.007
 21
221.679
  0
LINE
  8
0
 10
72.007
 20
221.679
 11
72.2509
 21
221.732
  0
LINE
  8
0
 10
72.2509
 20
221.732
 11
72.5
 21
221.75
  0
LINE
  8
0
 10
72.5
 20
221.75
 11
180.833
 21
221.75
  0
LINE
  8
0
 10
180.833
 20
221.75
 11
181.082
 21
221.732
  0
LINE
  8
0
 10
181.082
 20
221.732
 11
181.326
 21
221.679
  0
LINE
  8
0
 10
181.326
 20
221.679
 11
181.56
 21
221.592
  0
LINE
  8
0
 10
181.56
 20
221.592
 11
181.779
 21
221.472
  0
LINE
  8
0
 10
181.779
 20
221.472
 11
181.979
 21
221.323
  0
LINE
  8
0
 10
181.979
 20
221.323
 11
182.156
 21
221.146
  0
LINE
  8
0
 10
182.156
 20
221.146
 11
182.306
 21
220.946
  0
LINE
  8
0
 10
182.306
 20
220.946
 11
182.425
 21
220.727
  0
LINE
  8
0
 10
182.425
 20
220.727
 11
182.512
 21
220.493
  0
LINE
  8
0
 10
182.512
 20
220.493
 11
182.566
 21
220.249
  0
LINE
  8
0
 10
182.566
 20
220.249
 11
182.583
 21
220
  0
LINE
  8
0
 10
182.583
 20
220
 11
182.566
 21
219.751
  0
LINE
  8
0
 10
182.566
 20
219.751
 11
182.512
 21
219.507
  0
LINE
  8
0
 10
182.512
 20
219.507
 11
182.425
 21
219.273
  0
LINE
  8
0
 10
182.425
 20
219.273
 11
182.306
 21
219.054
  0
LINE
  8
0
 10
182.306
 20
219.054
 11
182.156
 21
218.854
  0
LINE
  8
0
 10
182.156
 20
218.854
 11
181.979
 21
218.677
  0
LINE
  8
0
 10
181.979
 20
218.677
 11
181.779
 21
218.528
  0
LINE
  8
0
 10
181.779
 20
218.528
 11
181.56
 21
218.408
  0
LINE
  8
0
 10
181.56
 20
218.408
 11
181.326
 21
218.321
  0
LINE
  8
0
 10
181.326
 20
218.321
 11
181.082
 21
218.268
  0
LINE
  8
0
 10
181.082
 20
218.268
 11
180.833
 21
218.25
  0
LINE
  8
0
 10
180.833
 20
218.25
 11
72.5
 21
218.25
  0
LINE
  8
0
 10
-187.5
 20
218.25
 11
-187.749
 21
218.268
  0
LINE
  8
0
 10
-187.749
 20
218.268
 11
-187.993
 21
218.321
  0
LINE
  8
0
 10
-187.993
 20
218.321
 11
-188.227
 21
218.408
  0
LINE
  8
0
 10
-188.227
 20
218.408
 11
-188.446
 21
218.528
  0
LINE
  8
0
 10
-188.446
 20
218.528
 11
-188.646
 21
218.677
  0
LINE
  8
0
 10
-188.646
 20
218.677
 11
-188.823
 21
218.854
  0
LINE
  8
0
 10
-188.823
 20
218.854
 11
-188.972
 21
219.054
  0
LINE
  8
0
 10
-188.972
 20
219.054
 11
-189.092
 21
219.273
  0
LINE
  8
0
 10
-189.092
 20
219.273
 11
-189.179
 21
219.507
  0
LINE
  8
0
 10
-189.179
 20
219.507
 11
-189.232
 21
219.751
  0
LINE
  8
0
 10
-189.232
 20
219.751
 11
-189.25
 21
220
  0
LINE
  8
0
 10
-189.25
 20
220
 11
-189.232
 21
220.249
  0
LINE
  8
0
 10
-189.232
 20
220.249
 11
-189.179
 21
220.493
  0
LINE
  8
0
 10
-189.179
 20
220.493
 11
-189.092
 21
220.727
  0
LINE
  8
0
 10
-189.092
 20
220.727
 11
-188.972
 21
220.946
  0
LINE
  8
0
 10
-188.972
 20
220.946
 11
-188.823
 21
221.146
  0
LINE
  8
0
 10
-188.823
 20
221.146
 11
-188.646
 21
221.323
  0
LINE
  8
0
 10
-188.646
 20
221.323
 11
-188.446
 21
221.472
  0
LINE
  8
0
 10
-188.446
 20
221.472
 11
-188.227
 21
221.592
  0
LINE
  8
0
 10
-188.227
 20
221.592
 11
-187.993
 21
221.679
  0
LINE
  8
0
 10
-187.993
 20
221.679
 11
-187.749
 21
221.732
  0
LINE
  8
0
 10
-187.749
 20
221.732
 11
-187.5
 21
221.75
  0
LINE
  8
0
 10
-187.5
 20
221.75
 11
-79.1667
 21
221.75
  0
LINE
  8
0
 10
-79.1667
 20
221.75
 11
-78.9176
 21
221.732
  0
LINE
  8
0
 10
-78.9176
 20
221.732
 11
-78.6736
 21
221.679
  0
LINE
  8
0
 10
-78.6736
 20
221.679
 11
-78.4397
 21
221.592
  0
LINE
  8
0
 10
-78.4397
 20
221.592
 11
-78.2205
 21
221.472
  0
LINE
  8
0
 10
-78.2205
 20
221.472
 11
-78.0207
 21
221.323
  0
LINE
  8
0
 10
-78.0207
 20
221.323
 11
-77.8441
 21
221.146
  0
LINE
  8
0
 10
-77.8441
 20
221.146
 11
-77.6945
 21
220.946
  0
LINE
  8
0
 10
-77.6945
 20
220.946
 11
-77.5748
 21
220.727
  0
LINE
  8
0
 10
-77.5748
 20
220.727
 11
-77.4875
 21
220.493
  0
LINE
  8
0
 10
-77.4875
 20
220.493
 11
-77.4345
 21
220.249
  0
LINE
  8
0
 10
-77.4345
 20
220.249
 11
-77.4167
 21
220
  0
LINE
  8
0
 10
-77.4167
 20
220
 11
-77.4345
 21
219.751
  0
LINE
  8
0
 10
-77.4345
 20
219.751
 11
-77.4875
 21
219.507
  0
LINE
  8
0
 10
-77.4875
 20
219.507
 11
-77.5748
 21
219.273
  0
LINE
  8
0
 10
-77.5748
 20
219.273
 11
-77.6945
 21
219.054
  0
LINE
  8
0
 10
-77.6945
 20
219.054
 11
-77.8441
 21
218.854
  0
LINE
  8
0
 10
-77.8441
 20
218.854
 11
-78.0207
 21
218.677
  0
LINE
  8
0
 10
-78.0207
 20
218.677
 11
-78.2205
 21
218.528
  0
LINE
  8
0
 10
-78.2205
 20
218.528
 11
-78.4397
 21
218.408
  0
LINE
  8
0
 10
-78.4397
 20
218.408
 11
-78.6736
 21
218.321
  0
LINE
  8
0
 10
-78.6736
 20
218.321
 11
-78.9176
 21
218.268
  0
LINE
  8
0
 10
-78.9176
 20
218.268
 11
-79.1667
 21
218.25
  0
LINE
  8
0
 10
-79.1667
 20
218.25
 11
-187.5
 21
218.25
  0
LINE
  8
0
 10
-57.5
 20
218.25
 11
-57.749
 21
218.268
  0
LINE
  8
0
 10
-57.749
 20
218.268
 11
-57.993
 21
218.321
  0
LINE
  8
0
 10
-57.993
 20
218.321
 11
-58.227
 21
218.408
  0
LINE
  8
0
 10
-58.227
 20
218.408
 11
-58.4461
 21
218.528
  0
LINE
  8
0
 10
-58.4461
 20
218.528
 11
-58.646
 21
218.677
  0
LINE
  8
0
 10
-58.646
 20
218.677
 11
-58.8226
 21
218.854
  0
LINE
  8
0
 10
-58.8226
 20
218.854
 11
-58.9722
 21
219.054
  0
LINE
  8
0
 10
-58.9722
 20
219.054
 11
-59.0918
 21
219.273
  0
LINE
  8
0
 10
-59.0918
 20
219.273
 11
-59.1791
 21
219.507
  0
LINE
  8
0
 10
-59.1791
 20
219.507
 11
-59.2322
 21
219.751
  0
LINE
  8
0
 10
-59.2322
 20
219.751
 11
-59.25
 21
220
  0
LINE
  8
0
 10
-59.25
 20
220
 11
-59.2322
 21
220.249
  0
LINE
  8
0
 10
-59.2322
 20
220.249
 11
-59.1791
 21
220.493
  0
LINE
  8
0
 10
-59.1791
 20
220.493
 11
-59.0918
 21
220.727
  0
LINE
  8
0
 10
-59.0918
 20
220.727
 11
-58.9722
 21
220.946
  0
LINE
  8
0
 10
-58.9722
 20
220.946
 11
-58.8226
 21
221.146
  0
LINE
  8
0
 10
-58.8226
 20
221.146
 11
-58.646
 21
221.323
  0
LINE
  8
0
 10
-58.646
 20
221.323
 11
-58.4461
 21
221.472
  0
LINE
  8
0
 10
-58.4461
 20
221.472
 11
-58.227
 21
221.592
  0
LINE
  8
0
 10
-58.227
 20
221.592
 11
-57.993
 21
221.679
  0
LINE
  8
0
 10
-57.993
 20
221.679
 11
-57.749
 21
221.732
  0
LINE
  8
0
 10
-57.749
 20
221.732
 11
-57.5
 21
221.75
  0
LINE
  8
0
 10
-57.5
 20
221.75
 11
50.8333
 21
221.75
  0
LINE
  8
0
 10
50.8333
 20
221.75
 11
51.0824
 21
221.732
  0
LINE
  8
0
 10
51.0824
 20
221.732
 11
51.3264
 21
221.679
  0
LINE
  8
0
 10
51.3264
 20
221.679
 11
51.5603
 21
221.592
  0
LINE
  8
0
 10
51.5603
 20
221.592
 11
51.7794
 21
221.472
  0
LINE
  8
0
 10
51.7794
 20
221.472
 11
51.9793
 21
221.323
  0
LINE
  8
0
 10
51.9793
 20
221.323
 11
52.1559
 21
221.146
  0
LINE
  8
0
 10
52.1559
 20
221.146
 11
52.3055
 21
220.946
  0
LINE
  8
0
 10
52.3055
 20
220.946
 11
52.4252
 21
220.727
  0
LINE
  8
0
 10
52.4252
 20
220.727
 11
52.5124
 21
220.493
  0
LINE
  8
0
 10
52.5124
 20
220.493
 11
52.5655
 21
220.249
  0
LINE
  8
0
 10
52.5655
 20
220.249
 11
52.5833
 21
220
  0
LINE
  8
0
 10
52.5833
 20
220
 11
52.5655
 21
219.751
  0
LINE
  8
0
 10
52.5655
 20
219.751
 11
52.5124
 21
219.507
  0
LINE
  8
0
 10
52.5124
 20
219.507
 11
52.4252
 21
219.273
  0
LINE
  8
0
 10
52.4252
 20
219.273
 11
52.3055
 21
219.054
  0
LINE
  8
0
 10
52.3055
 20
219.054
 11
52.1559
 21
218.854
  0
LINE
  8
0
 10
52.1559
 20
218.854
 11
51.9793
 21
218.677
  0
LINE
  8
0
 10
51.9793
 20
218.677
 11
51.7794
 21
218.528
  0
LINE
  8
0
 10
51.7794
 20
218.528
 11
51.5603
 21
218.408
  0
LINE
  8
0
 10
51.5603
 20
218.408
 11
51.3264
 21
218.321
  0
LINE
  8
0
 10
51.3264
 20
218.321
 11
51.0824
 21
218.268
  0
LINE
  8
0
 10
51.0824
 20
218.268
 11
50.8333
 21
218.25
  0
LINE
  8
0
 10
50.8333
 20
218.25
 11
-57.5
 21
218.25
  0
LINE
  8
0
 10
-215.186
 20
218.31
 11
-215.43
 21
218.355
  0
LINE
  8
0
 10
-215.43
 20
218.355
 11
-215.665
 21
218.435
  0
LINE
  8
0
 10
-215.665
 20
218.435
 11
-215.886
 21
218.549
  0
LINE
  8
0
 10
-215.886
 20
218.549
 11
-216.087
 21
218.693
  0
LINE
  8
0
 10
-216.087
 20
218.693
 11
-216.266
 21
218.866
  0
LINE
  8
0
 10
-216.266
 20
218.866
 11
-216.418
 21
219.062
  0
LINE
  8
0
 10
-216.418
 20
219.062
 11
-216.539
 21
219.278
  0
LINE
  8
0
 10
-216.539
 20
219.278
 11
-216.628
 21
219.51
  0
LINE
  8
0
 10
-216.628
 20
219.51
 11
-216.682
 21
219.752
  0
LINE
  8
0
 10
-216.682
 20
219.752
 11
-216.7
 21
220
  0
LINE
  8
0
 10
-216.7
 20
220
 11
-216.682
 21
220.248
  0
LINE
  8
0
 10
-216.682
 20
220.248
 11
-216.628
 21
220.49
  0
LINE
  8
0
 10
-216.628
 20
220.49
 11
-216.539
 21
220.722
  0
LINE
  8
0
 10
-216.539
 20
220.722
 11
-216.418
 21
220.938
  0
LINE
  8
0
 10
-216.418
 20
220.938
 11
-216.266
 21
221.134
  0
LINE
  8
0
 10
-216.266
 20
221.134
 11
-216.087
 21
221.307
  0
LINE
  8
0
 10
-216.087
 20
221.307
 11
-215.886
 21
221.451
  0
LINE
  8
0
 10
-215.886
 20
221.451
 11
-215.665
 21
221.565
  0
LINE
  8
0
 10
-215.665
 20
221.565
 11
-215.43
 21
221.645
  0
LINE
  8
0
 10
-215.43
 20
221.645
 11
-215.186
 21
221.69
  0
LINE
  8
0
 10
-215.186
 20
221.69
 11
-214.938
 21
221.699
  0
LINE
  8
0
 10
-214.938
 20
221.699
 11
-214.691
 21
221.672
  0
LINE
  8
0
 10
-214.691
 20
221.672
 11
-214.451
 21
221.609
  0
LINE
  8
0
 10
-214.451
 20
221.609
 11
-214.223
 21
221.512
  0
LINE
  8
0
 10
-214.223
 20
221.512
 11
-214.011
 21
221.383
  0
LINE
  8
0
 10
-214.011
 20
221.383
 11
-213.82
 21
221.224
  0
LINE
  8
0
 10
-213.82
 20
221.224
 11
-213.654
 21
221.039
  0
LINE
  8
0
 10
-213.654
 20
221.039
 11
-213.518
 21
220.832
  0
LINE
  8
0
 10
-213.518
 20
220.832
 11
-213.412
 21
220.607
  0
LINE
  8
0
 10
-213.412
 20
220.607
 11
-213.341
 21
220.37
  0
LINE
  8
0
 10
-213.341
 20
220.37
 11
-213.305
 21
220.124
  0
LINE
  8
0
 10
-213.305
 20
220.124
 11
-213.305
 21
219.876
  0
LINE
  8
0
 10
-213.305
 20
219.876
 11
-213.341
 21
219.63
  0
LINE
  8
0
 10
-213.341
 20
219.63
 11
-213.412
 21
219.393
  0
LINE
  8
0
 10
-213.412
 20
219.393
 11
-213.518
 21
219.168
  0
LINE
  8
0
 10
-213.518
 20
219.168
 11
-213.654
 21
218.961
  0
LINE
  8
0
 10
-213.654
 20
218.961
 11
-213.82
 21
218.776
  0
LINE
  8
0
 10
-213.82
 20
218.776
 11
-214.011
 21
218.617
  0
LINE
  8
0
 10
-214.011
 20
218.617
 11
-214.223
 21
218.488
  0
LINE
  8
0
 10
-214.223
 20
218.488
 11
-214.451
 21
218.391
  0
LINE
  8
0
 10
-214.451
 20
218.391
 11
-214.691
 21
218.328
  0
LINE
  8
0
 10
-214.691
 20
218.328
 11
-214.938
 21
218.301
  0
LINE
  8
0
 10
-214.938
 20
218.301
 11
-215.186
 21
218.31
  0
LINE
  8
0
 10
214.691
 20
218.328
 11
214.451
 21
218.391
  0
LINE
  8
0
 10
214.451
 20
218.391
 11
214.223
 21
218.488
  0
LINE
  8
0
 10
214.223
 20
218.488
 11
214.011
 21
218.617
  0
LINE
  8
0
 10
214.011
 20
218.617
 11
213.82
 21
218.776
  0
LINE
  8
0
 10
213.82
 20
218.776
 11
213.654
 21
218.961
  0
LINE
  8
0
 10
213.654
 20
218.961
 11
213.518
 21
219.168
  0
LINE
  8
0
 10
213.518
 20
219.168
 11
213.412
 21
219.393
  0
LINE
  8
0
 10
213.412
 20
219.393
 11
213.341
 21
219.63
  0
LINE
  8
0
 10
213.341
 20
219.63
 11
213.305
 21
219.876
  0
LINE
  8
0
 10
213.305
 20
219.876
 11
213.305
 21
220.124
  0
LINE
  8
0
 10
213.305
 20
220.124
 11
213.341
 21
220.37
  0
LINE
  8
0
 10
213.341
 20
220.37
 11
213.412
 21
220.607
  0
LINE
  8
0
 10
213.412
 20
220.607
 11
213.518
 21
220.832
  0
LINE
  8
0
 10
213.518
 20
220.832
 11
213.654
 21
221.039
  0
LINE
  8
0
 10
213.654
 20
221.039
 11
213.82
 21
221.224
  0
LINE
  8
0
 10
213.82
 20
221.224
 11
214.011
 21
221.383
  0
LINE
  8
0
 10
214.011
 20
221.383
 11
214.223
 21
221.512
  0
LINE
  8
0
 10
214.223
 20
221.512
 11
214.451
 21
221.609
  0
LINE
  8
0
 10
214.451
 20
221.609
 11
214.691
 21
221.672
  0
LINE
  8
0
 10
214.691
 20
221.672
 11
214.938
 21
221.699
  0
LINE
  8
0
 10
214.938
 20
221.699
 11
215.186
 21
221.69
  0
LINE
  8
0
 10
215.186
 20
221.69
 11
215.43
 21
221.645
  0
LINE
  8
0
 10
215.43
 20
221.645
 11
215.665
 21
221.565
  0
LINE
  8
0
 10
215.665
 20
221.565
 11
215.886
 21
221.451
  0
LINE
  8
0
 10
215.886
 20
221.451
 11
216.087
 21
221.307
  0
LINE
  8
0
 10
216.087
 20
221.307
 11
216.266
 21
221.134
  0
LINE
  8
0
 10
216.266
 20
221.134
 11
216.418
 21
220.938
  0
LINE
  8
0
 10
216.418
 20
220.938
 11
216.539
 21
220.722
  0
LINE
  8
0
 10
216.539
 20
220.722
 11
216.628
 21
220.49
  0
LINE
  8
0
 10
216.628
 20
220.49
 11
216.682
 21
220.248
  0
LINE
  8
0
 10
216.682
 20
220.248
 11
216.7
 21
220
  0
LINE
  8
0
 10
216.7
 20
220
 11
216.682
 21
219.752
  0
LINE
  8
0
 10
216.682
 20
219.752
 11
216.628
 21
219.51
  0
LINE
  8
0
 10
216.628
 20
219.51
 11
216.539
 21
219.278
  0
LINE
  8
0
 10
216.539
 20
219.278
 11
216.418
 21
219.062
  0
LINE
  8
0
 10
216.418
 20
219.062
 11
216.266
 21
218.866
  0
LINE
  8
0
 10
216.266
 20
218.866
 11
216.087
 21
218.693
  0
LINE
  8
0
 10
216.087
 20
218.693
 11
215.886
 21
218.549
  0
LINE
  8
0
 10
215.886
 20
218.549
 11
215.665
 21
218.435
  0
LINE
  8
0
 10
215.665
 20
218.435
 11
215.43
 21
218.355
  0
LINE
  8
0
 10
215.43
 20
218.355
 11
215.186
 21
218.31
  0
LINE
  8
0
 10
215.186
 20
218.31
 11
214.938
 21
218.301
  0
LINE
  8
0
 10
214.938
 20
218.301
 11
214.691
 21
218.328
  0
LINE
  8
0
 10
278.5
 20
193
 11
277.193
 21
193.068
  0
LINE
  8
0
 10
277.193
 20
193.068
 11
275.901
 21
193.273
  0
LINE
  8
0
 10
275.901
 20
193.273
 11
274.637
 21
193.612
  0
LINE
  8
0
 10
274.637
 20
193.612
 11
273.416
 21
194.081
  0
LINE
  8
0
 10
273.416
 20
194.081
 11
272.25
 21
194.675
  0
LINE
  8
0
 10
272.25
 20
194.675
 11
271.153
 21
195.387
  0
LINE
  8
0
 10
271.153
 20
195.387
 11
270.136
 21
196.211
  0
LINE
  8
0
 10
270.136
 20
196.211
 11
269.211
 21
197.136
  0
LINE
  8
0
 10
269.211
 20
197.136
 11
268.387
 21
198.153
  0
LINE
  8
0
 10
268.387
 20
198.153
 11
267.675
 21
199.25
  0
LINE
  8
0
 10
267.675
 20
199.25
 11
267.081
 21
200.416
  0
LINE
  8
0
 10
267.081
 20
200.416
 11
266.612
 21
201.637
  0
LINE
  8
0
 10
266.612
 20
201.637
 11
266.273
 21
202.901
  0
LINE
  8
0
 10
266.273
 20
202.901
 11
266.068
 21
204.193
  0
LINE
  8
0
 10
266.068
 20
204.193
 11
266
 21
205.5
  0
LINE
  8
0
 10
266
 20
205.5
 11
266.068
 21
206.807
  0
LINE
  8
0
 10
266.068
 20
206.807
 11
266.273
 21
208.099
  0
LINE
  8
0
 10
266.273
 20
208.099
 11
266.612
 21
209.363
  0
LINE
  8
0
 10
266.612
 20
209.363
 11
267.081
 21
210.584
  0
LINE
  8
0
 10
267.081
 20
210.584
 11
267.675
 21
211.75
  0
LINE
  8
0
 10
267.675
 20
211.75
 11
268.387
 21
212.847
  0
LINE
  8
0
 10
268.387
 20
212.847
 11
269.211
 21
213.864
  0
LINE
  8
0
 10
269.211
 20
213.864
 11
270.136
 21
214.789
  0
LINE
  8
0
 10
270.136
 20
214.789
 11
271.153
 21
215.613
  0
LINE
  8
0
 10
271.153
 20
215.613
 11
272.25
 21
216.325
  0
LINE
  8
0
 10
272.25
 20
216.325
 11
273.416
 21
216.919
  0
LINE
  8
0
 10
273.416
 20
216.919
 11
274.637
 21
217.388
  0
LINE
  8
0
 10
274.637
 20
217.388
 11
275.901
 21
217.727
  0
LINE
  8
0
 10
275.901
 20
217.727
 11
277.193
 21
217.932
  0
LINE
  8
0
 10
277.193
 20
217.932
 11
278.5
 21
218
  0
LINE
  8
0
 10
278.5
 20
218
 11
286.5
 21
218
  0
LINE
  8
0
 10
286.5
 20
218
 11
287.807
 21
217.932
  0
LINE
  8
0
 10
287.807
 20
217.932
 11
289.099
 21
217.727
  0
LINE
  8
0
 10
289.099
 20
217.727
 11
290.363
 21
217.388
  0
LINE
  8
0
 10
290.363
 20
217.388
 11
291.584
 21
216.919
  0
LINE
  8
0
 10
291.584
 20
216.919
 11
292.75
 21
216.325
  0
LINE
  8
0
 10
292.75
 20
216.325
 11
293.847
 21
215.613
  0
LINE
  8
0
 10
293.847
 20
215.613
 11
294.864
 21
214.789
  0
LINE
  8
0
 10
294.864
 20
214.789
 11
295.789
 21
213.864
  0
LINE
  8
0
 10
295.789
 20
213.864
 11
296.613
 21
212.847
  0
LINE
  8
0
 10
296.613
 20
212.847
 11
297.325
 21
211.75
  0
LINE
  8
0
 10
297.325
 20
211.75
 11
297.919
 21
210.584
  0
LINE
  8
0
 10
297.919
 20
210.584
 11
298.388
 21
209.363
  0
LINE
  8
0
 10
298.388
 20
209.363
 11
298.727
 21
208.099
  0
LINE
  8
0
 10
298.727
 20
208.099
 11
298.932
 21
206.807
  0
LINE
  8
0
 10
298.932
 20
206.807
 11
299
 21
205.5
  0
LINE
  8
0
 10
299
 20
205.5
 11
298.932
 21
204.193
  0
LINE
  8
0
 10
298.932
 20
204.193
 11
298.727
 21
202.901
  0
LINE
  8
0
 10
298.727
 20
202.901
 11
298.388
 21
201.637
  0
LINE
  8
0
 10
298.388
 20
201.637
 11
297.919
 21
200.416
  0
LINE
  8
0
 10
297.919
 20
200.416
 11
297.325
 21
199.25
  0
LINE
  8
0
 10
297.325
 20
199.25
 11
296.613
 21
198.153
  0
LINE
  8
0
 10
296.613
 20
198.153
 11
295.789
 21
197.136
  0
LINE
  8
0
 10
295.789
 20
197.136
 11
294.864
 21
196.211
  0
LINE
  8
0
 10
294.864
 20
196.211
 11
293.847
 21
195.387
  0
LINE
  8
0
 10
293.847
 20
195.387
 11
292.75
 21
194.675
  0
LINE
  8
0
 10
292.75
 20
194.675
 11
291.584
 21
194.081
  0
LINE
  8
0
 10
291.584
 20
194.081
 11
290.363
 21
193.612
  0
LINE
  8
0
 10
290.363
 20
193.612
 11
289.099
 21
193.273
  0
LINE
  8
0
 10
289.099
 20
193.273
 11
287.807
 21
193.068
  0
LINE
  8
0
 10
287.807
 20
193.068
 11
286.5
 21
193
  0
LINE
  8
0
 10
286.5
 20
193
 11
278.5
 21
193
  0
LINE
  8
0
 10
-229
 20
-212.5
 11
-229.223
 21
-212.475
  0
LINE
  8
0
 10
-229.223
 20
-212.475
 11
-229.434
 21
-212.401
  0
LINE
  8
0
 10
-229.434
 20
-212.401
 11
-229.623
 21
-212.282
  0
LINE
  8
0
 10
-229.623
 20
-212.282
 11
-229.782
 21
-212.123
  0
LINE
  8
0
 10
-229.782
 20
-212.123
 11
-229.901
 21
-211.934
  0
LINE
  8
0
 10
-229.901
 20
-211.934
 11
-229.975
 21
-211.723
  0
LINE
  8
0
 10
-229.975
 20
-211.723
 11
-230
 21
-211.5
  0
LINE
  8
0
 10
-230
 20
-211.5
 11
-230
 21
211.5
  0
LINE
  8
0
 10
-230
 20
211.5
 11
-229.975
 21
211.723
  0
LINE
  8
0
 10
-229.975
 20
211.723
 11
-229.901
 21
211.934
  0
LINE
  8
0
 10
-229.901
 20
211.934
 11
-229.782
 21
212.123
  0
LINE
  8
0
 10
-229.782
 20
212.123
 11
-229.623
 21
212.282
  0
LINE
  8
0
 10
-229.623
 20
212.282
 11
-229.434
 21
212.401
  0
LINE
  8
0
 10
-229.434
 20
212.401
 11
-229.223
 21
212.475
  0
LINE
  8
0
 10
-229.223
 20
212.475
 11
-229
 21
212.5
  0
LINE
  8
0
 10
-229
 20
212.5
 11
229
 21
212.5
  0
LINE
  8
0
 10
229
 20
212.5
 11
229.223
 21
212.475
  0
LINE
  8
0
 10
229.223
 20
212.475
 11
229.434
 21
212.401
  0
LINE
  8
0
 10
229.434
 20
212.401
 11
229.623
 21
212.282
  0
LINE
  8
0
 10
229.623
 20
212.282
 11
229.782
 21
212.123
  0
LINE
  8
0
 10
229.782
 20
212.123
 11
229.901
 21
211.934
  0
LINE
  8
0
 10
229.901
 20
211.934
 11
229.975
 21
211.723
  0
LINE
  8
0
 10
229.975
 20
211.723
 11
230
 21
211.5
  0
LINE
  8
0
 10
230
 20
211.5
 11
230
 21
-211.5
  0
LINE
  8
0
 10
230
 20
-211.5
 11
229.975
 21
-211.723
  0
LINE
  8
0
 10
229.975
 20
-211.723
 11
229.901
 21
-211.934
  0
LINE
  8
0
 10
229.901
 20
-211.934
 11
229.782
 21
-212.123
  0
LINE
  8
0
 10
229.782
 20
-212.123
 11
229.623
 21
-212.282
  0
LINE
  8
0
 10
229.623
 20
-212.282
 11
229.434
 21
-212.401
  0
LINE
  8
0
 10
229.434
 20
-212.401
 11
229.223
 21
-212.475
  0
LINE
  8
0
 10
229.223
 20
-212.475
 11
229
 21
-212.5
  0
LINE
  8
0
 10
229
 20
-212.5
 11
-229
 21
-212.5
  0
LINE
  8
0
 10
-285.244
 20
204.274
 11
-285.478
 21
204.345
  0
LINE
  8
0
 10
-285.478
 20
204.345
 11
-285.694
 21
204.461
  0
LINE
  8
0
 10
-285.694
 20
204.461
 11
-285.884
 21
204.616
  0
LINE
  8
0
 10
-285.884
 20
204.616
 11
-286.039
 21
204.806
  0
LINE
  8
0
 10
-286.039
 20
204.806
 11
-286.155
 21
205.022
  0
LINE
  8
0
 10
-286.155
 20
205.022
 11
-286.226
 21
205.256
  0
LINE
  8
0
 10
-286.226
 20
205.256
 11
-286.25
 21
205.5
  0
LINE
  8
0
 10
-286.25
 20
205.5
 11
-286.226
 21
205.744
  0
LINE
  8
0
 10
-286.226
 20
205.744
 11
-286.155
 21
205.978
  0
LINE
  8
0
 10
-286.155
 20
205.978
 11
-286.039
 21
206.194
  0
LINE
  8
0
 10
-286.039
 20
206.194
 11
-285.884
 21
206.384
  0
LINE
  8
0
 10
-285.884
 20
206.384
 11
-285.694
 21
206.539
  0
LINE
  8
0
 10
-285.694
 20
206.539
 11
-285.478
 21
206.655
  0
LINE
  8
0
 10
-285.478
 20
206.655
 11
-285.244
 21
206.726
  0
LINE
  8
0
 10
-285.244
 20
206.726
 11
-285
 21
206.75
  0
LINE
  8
0
 10
-285
 20
206.75
 11
-284.756
 21
206.726
  0
LINE
  8
0
 10
-284.756
 20
206.726
 11
-284.522
 21
206.655
  0
LINE
  8
0
 10
-284.522
 20
206.655
 11
-284.306
 21
206.539
  0
LINE
  8
0
 10
-284.306
 20
206.539
 11
-284.116
 21
206.384
  0
LINE
  8
0
 10
-284.116
 20
206.384
 11
-283.961
 21
206.194
  0
LINE
  8
0
 10
-283.961
 20
206.194
 11
-283.845
 21
205.978
  0
LINE
  8
0
 10
-283.845
 20
205.978
 11
-283.774
 21
205.744
  0
LINE
  8
0
 10
-283.774
 20
205.744
 11
-283.75
 21
205.5
  0
LINE
  8
0
 10
-283.75
 20
205.5
 11
-283.774
 21
205.256
  0
LINE
  8
0
 10
-283.774
 20
205.256
 11
-283.845
 21
205.022
  0
LINE
  8
0
 10
-283.845
 20
205.022
 11
-283.961
 21
204.806
  0
LINE
  8
0
 10
-283.961
 20
204.806
 11
-284.116
 21
204.616
  0
LINE
  8
0
 10
-284.116
 20
204.616
 11
-284.306
 21
204.461
  0
LINE
  8
0
 10
-284.306
 20
204.461
 11
-284.522
 21
204.345
  0
LINE
  8
0
 10
-284.522
 20
204.345
 11
-284.756
 21
204.274
  0
LINE
  8
0
 10
-284.756
 20
204.274
 11
-285
 21
204.25
  0
LINE
  8
0
 10
-285
 20
204.25
 11
-285.244
 21
204.274
  0
LINE
  8
0
 10
-237.686
 20
195.81
 11
-237.93
 21
195.855
  0
LINE
  8
0
 10
-237.93
 20
195.855
 11
-238.165
 21
195.935
  0
LINE
  8
0
 10
-238.165
 20
195.935
 11
-238.386
 21
196.049
  0
LINE
  8
0
 10
-238.386
 20
196.049
 11
-238.587
 21
196.193
  0
LINE
  8
0
 10
-238.587
 20
196.193
 11
-238.766
 21
196.366
  0
LINE
  8
0
 10
-238.766
 20
196.366
 11
-238.918
 21
196.562
  0
LINE
  8
0
 10
-238.918
 20
196.562
 11
-239.039
 21
196.778
  0
LINE
  8
0
 10
-239.039
 20
196.778
 11
-239.128
 21
197.01
  0
LINE
  8
0
 10
-239.128
 20
197.01
 11
-239.182
 21
197.252
  0
LINE
  8
0
 10
-239.182
 20
197.252
 11
-239.2
 21
197.5
  0
LINE
  8
0
 10
-239.2
 20
197.5
 11
-239.182
 21
197.748
  0
LINE
  8
0
 10
-239.182
 20
197.748
 11
-239.128
 21
197.99
  0
LINE
  8
0
 10
-239.128
 20
197.99
 11
-239.039
 21
198.222
  0
LINE
  8
0
 10
-239.039
 20
198.222
 11
-238.918
 21
198.438
  0
LINE
  8
0
 10
-238.918
 20
198.438
 11
-238.766
 21
198.634
  0
LINE
  8
0
 10
-238.766
 20
198.634
 11
-238.587
 21
198.807
  0
LINE
  8
0
 10
-238.587
 20
198.807
 11
-238.386
 21
198.951
  0
LINE
  8
0
 10
-238.386
 20
198.951
 11
-238.165
 21
199.065
  0
LINE
  8
0
 10
-238.165
 20
199.065
 11
-237.93
 21
199.145
  0
LINE
  8
0
 10
-237.93
 20
199.145
 11
-237.686
 21
199.19
  0
LINE
  8
0
 10
-237.686
 20
199.19
 11
-237.438
 21
199.199
  0
LINE
  8
0
 10
-237.438
 20
199.199
 11
-237.191
 21
199.172
  0
LINE
  8
0
 10
-237.191
 20
199.172
 11
-236.951
 21
199.109
  0
LINE
  8
0
 10
-236.951
 20
199.109
 11
-236.723
 21
199.012
  0
LINE
  8
0
 10
-236.723
 20
199.012
 11
-236.511
 21
198.883
  0
LINE
  8
0
 10
-236.511
 20
198.883
 11
-236.32
 21
198.724
  0
LINE
  8
0
 10
-236.32
 20
198.724
 11
-236.154
 21
198.539
  0
LINE
  8
0
 10
-236.154
 20
198.539
 11
-236.018
 21
198.332
  0
LINE
  8
0
 10
-236.018
 20
198.332
 11
-235.912
 21
198.107
  0
LINE
  8
0
 10
-235.912
 20
198.107
 11
-235.841
 21
197.87
  0
LINE
  8
0
 10
-235.841
 20
197.87
 11
-235.805
 21
197.624
  0
LINE
  8
0
 10
-235.805
 20
197.624
 11
-235.805
 21
197.376
  0
LINE
  8
0
 10
-235.805
 20
197.376
 11
-235.841
 21
197.13
  0
LINE
  8
0
 10
-235.841
 20
197.13
 11
-235.912
 21
196.893
  0
LINE
  8
0
 10
-235.912
 20
196.893
 11
-236.018
 21
196.668
  0
LINE
  8
0
 10
-236.018
 20
196.668
 11
-236.154
 21
196.461
  0
LINE
  8
0
 10
-236.154
 20
196.461
 11
-236.32
 21
196.276
  0
LINE
  8
0
 10
-236.32
 20
196.276
 11
-236.511
 21
196.117
  0
LINE
  8
0
 10
-236.511
 20
196.117
 11
-236.723
 21
195.988
  0
LINE
  8
0
 10
-236.723
 20
195.988
 11
-236.951
 21
195.891
  0
LINE
  8
0
 10
-236.951
 20
195.891
 11
-237.191
 21
195.828
  0
LINE
  8
0
 10
-237.191
 20
195.828
 11
-237.438
 21
195.801
  0
LINE
  8
0
 10
-237.438
 20
195.801
 11
-237.686
 21
195.81
  0
LINE
  8
0
 10
237.191
 20
195.828
 11
236.951
 21
195.891
  0
LINE
  8
0
 10
236.951
 20
195.891
 11
236.723
 21
195.988
  0
LINE
  8
0
 10
236.723
 20
195.988
 11
236.511
 21
196.117
  0
LINE
  8
0
 10
236.511
 20
196.117
 11
236.32
 21
196.276
  0
LINE
  8
0
 10
236.32
 20
196.276
 11
236.154
 21
196.461
  0
LINE
  8
0
 10
236.154
 20
196.461
 11
236.018
 21
196.668
  0
LINE
  8
0
 10
236.018
 20
196.668
 11
235.912
 21
196.893
  0
LINE
  8
0
 10
235.912
 20
196.893
 11
235.841
 21
197.13
  0
LINE
  8
0
 10
235.841
 20
197.13
 11
235.805
 21
197.376
  0
LINE
  8
0
 10
235.805
 20
197.376
 11
235.805
 21
197.624
  0
LINE
  8
0
 10
235.805
 20
197.624
 11
235.841
 21
197.87
  0
LINE
  8
0
 10
235.841
 20
197.87
 11
235.912
 21
198.107
  0
LINE
  8
0
 10
235.912
 20
198.107
 11
236.018
 21
198.332
  0
LINE
  8
0
 10
236.018
 20
198.332
 11
236.154
 21
198.539
  0
LINE
  8
0
 10
236.154
 20
198.539
 11
236.32
 21
198.724
  0
LINE
  8
0
 10
236.32
 20
198.724
 11
236.511
 21
198.883
  0
LINE
  8
0
 10
236.511
 20
198.883
 11
236.723
 21
199.012
  0
LINE
  8
0
 10
236.723
 20
199.012
 11
236.951
 21
199.109
  0
LINE
  8
0
 10
236.951
 20
199.109
 11
237.191
 21
199.172
  0
LINE
  8
0
 10
237.191
 20
199.172
 11
237.438
 21
199.199
  0
LINE
  8
0
 10
237.438
 20
199.199
 11
237.686
 21
199.19
  0
LINE
  8
0
 10
237.686
 20
199.19
 11
237.93
 21
199.145
  0
LINE
  8
0
 10
237.93
 20
199.145
 11
238.165
 21
199.065
  0
LINE
  8
0
 10
238.165
 20
199.065
 11
238.386
 21
198.951
  0
LINE
  8
0
 10
238.386
 20
198.951
 11
238.587
 21
198.807
  0
LINE
  8
0
 10
238.587
 20
198.807
 11
238.766
 21
198.634
  0
LINE
  8
0
 10
238.766
 20
198.634
 11
238.918
 21
198.438
  0
LINE
  8
0
 10
238.918
 20
198.438
 11
239.039
 21
198.222
  0
LINE
  8
0
 10
239.039
 20
198.222
 11
239.128
 21
197.99
  0
LINE
  8
0
 10
239.128
 20
197.99
 11
239.182
 21
197.748
  0
LINE
  8
0
 10
239.182
 20
197.748
 11
239.2
 21
197.5
  0
LINE
  8
0
 10
239.2
 20
197.5
 11
239.182
 21
197.252
  0
LINE
  8
0
 10
239.182
 20
197.252
 11
239.128
 21
197.01
  0
LINE
  8
0
 10
239.128
 20
197.01
 11
239.039
 21
196.778
  0
LINE
  8
0
 10
239.039
 20
196.778
 11
238.918
 21
196.562
  0
LINE
  8
0
 10
238.918
 20
196.562
 11
238.766
 21
196.366
  0
LINE
  8
0
 10
238.766
 20
196.366
 11
238.587
 21
196.193
  0
LINE
  8
0
 10
238.587
 20
196.193
 11
238.386
 21
196.049
  0
LINE
  8
0
 10
238.386
 20
196.049
 11
238.165
 21
195.935
  0
LINE
  8
0
 10
238.165
 20
195.935
 11
237.93
 21
195.855
  0
LINE
  8
0
 10
237.93
 20
195.855
 11
237.686
 21
195.81
  0
LINE
  8
0
 10
237.686
 20
195.81
 11
237.438
 21
195.801
  0
LINE
  8
0
 10
237.438
 20
195.801
 11
237.191
 21
195.828
  0
LINE
  8
0
 10
-264.744
 20
193.274
 11
-264.978
 21
193.345
  0
LINE
  8
0
 10
-264.978
 20
193.345
 11
-265.194
 21
193.461
  0
LINE
  8
0
 10
-265.194
 20
193.461
 11
-265.384
 21
193.616
  0
LINE
  8
0
 10
-265.384
 20
193.616
 11
-265.539
 21
193.806
  0
LINE
  8
0
 10
-265.539
 20
193.806
 11
-265.655
 21
194.022
  0
LINE
  8
0
 10
-265.655
 20
194.022
 11
-265.726
 21
194.256
  0
LINE
  8
0
 10
-265.726
 20
194.256
 11
-265.75
 21
194.5
  0
LINE
  8
0
 10
-265.75
 20
194.5
 11
-265.726
 21
194.744
  0
LINE
  8
0
 10
-265.726
 20
194.744
 11
-265.655
 21
194.978
  0
LINE
  8
0
 10
-265.655
 20
194.978
 11
-265.539
 21
195.194
  0
LINE
  8
0
 10
-265.539
 20
195.194
 11
-265.384
 21
195.384
  0
LINE
  8
0
 10
-265.384
 20
195.384
 11
-265.194
 21
195.539
  0
LINE
  8
0
 10
-265.194
 20
195.539
 11
-264.978
 21
195.655
  0
LINE
  8
0
 10
-264.978
 20
195.655
 11
-264.744
 21
195.726
  0
LINE
  8
0
 10
-264.744
 20
195.726
 11
-264.5
 21
195.75
  0
LINE
  8
0
 10
-264.5
 20
195.75
 11
-264.256
 21
195.726
  0
LINE
  8
0
 10
-264.256
 20
195.726
 11
-264.022
 21
195.655
  0
LINE
  8
0
 10
-264.022
 20
195.655
 11
-263.806
 21
195.539
  0
LINE
  8
0
 10
-263.806
 20
195.539
 11
-263.616
 21
195.384
  0
LINE
  8
0
 10
-263.616
 20
195.384
 11
-263.461
 21
195.194
  0
LINE
  8
0
 10
-263.461
 20
195.194
 11
-263.345
 21
194.978
  0
LINE
  8
0
 10
-263.345
 20
194.978
 11
-263.274
 21
194.744
  0
LINE
  8
0
 10
-263.274
 20
194.744
 11
-263.25
 21
194.5
  0
LINE
  8
0
 10
-263.25
 20
194.5
 11
-263.274
 21
194.256
  0
LINE
  8
0
 10
-263.274
 20
194.256
 11
-263.345
 21
194.022
  0
LINE
  8
0
 10
-263.345
 20
194.022
 11
-263.461
 21
193.806
  0
LINE
  8
0
 10
-263.461
 20
193.806
 11
-263.616
 21
193.616
  0
LINE
  8
0
 10
-263.616
 20
193.616
 11
-263.806
 21
193.461
  0
LINE
  8
0
 10
-263.806
 20
193.461
 11
-264.022
 21
193.345
  0
LINE
  8
0
 10
-264.022
 20
193.345
 11
-264.256
 21
193.274
  0
LINE
  8
0
 10
-264.256
 20
193.274
 11
-264.5
 21
193.25
  0
LINE
  8
0
 10
-264.5
 20
193.25
 11
-264.744
 21
193.274
  0
LINE
  8
0
 10
263.377
 20
188.355
 11
263.133
 21
188.391
  0
LINE
  8
0
 10
263.133
 20
188.391
 11
262.897
 21
188.464
  0
LINE
  8
0
 10
262.897
 20
188.464
 11
262.675
 21
188.571
  0
LINE
  8
0
 10
262.675
 20
188.571
 11
262.471
 21
188.71
  0
LINE
  8
0
 10
262.471
 20
188.71
 11
262.29
 21
188.878
  0
LINE
  8
0
 10
262.29
 20
188.878
 11
262.137
 21
189.071
  0
LINE
  8
0
 10
262.137
 20
189.071
 11
262.013
 21
189.284
  0
LINE
  8
0
 10
262.013
 20
189.284
 11
261.923
 21
189.514
  0
LINE
  8
0
 10
261.923
 20
189.514
 11
261.868
 21
189.754
  0
LINE
  8
0
 10
261.868
 20
189.754
 11
261.85
 21
190
  0
LINE
  8
0
 10
261.85
 20
190
 11
261.868
 21
190.246
  0
LINE
  8
0
 10
261.868
 20
190.246
 11
261.923
 21
190.486
  0
LINE
  8
0
 10
261.923
 20
190.486
 11
262.013
 21
190.716
  0
LINE
  8
0
 10
262.013
 20
190.716
 11
262.137
 21
190.929
  0
LINE
  8
0
 10
262.137
 20
190.929
 11
262.29
 21
191.122
  0
LINE
  8
0
 10
262.29
 20
191.122
 11
262.471
 21
191.29
  0
LINE
  8
0
 10
262.471
 20
191.29
 11
262.675
 21
191.429
  0
LINE
  8
0
 10
262.675
 20
191.429
 11
262.897
 21
191.536
  0
LINE
  8
0
 10
262.897
 20
191.536
 11
263.133
 21
191.609
  0
LINE
  8
0
 10
263.133
 20
191.609
 11
263.377
 21
191.645
  0
LINE
  8
0
 10
263.377
 20
191.645
 11
271.623
 21
191.645
  0
LINE
  8
0
 10
271.623
 20
191.645
 11
271.867
 21
191.609
  0
LINE
  8
0
 10
271.867
 20
191.609
 11
272.103
 21
191.536
  0
LINE
  8
0
 10
272.103
 20
191.536
 11
272.325
 21
191.429
  0
LINE
  8
0
 10
272.325
 20
191.429
 11
272.529
 21
191.29
  0
LINE
  8
0
 10
272.529
 20
191.29
 11
272.71
 21
191.122
  0
LINE
  8
0
 10
272.71
 20
191.122
 11
272.863
 21
190.929
  0
LINE
  8
0
 10
272.863
 20
190.929
 11
272.987
 21
190.716
  0
LINE
  8
0
 10
272.987
 20
190.716
 11
273.077
 21
190.486
  0
LINE
  8
0
 10
273.077
 20
190.486
 11
273.132
 21
190.246
  0
LINE
  8
0
 10
273.132
 20
190.246
 11
273.15
 21
190
  0
LINE
  8
0
 10
273.15
 20
190
 11
273.132
 21
189.754
  0
LINE
  8
0
 10
273.132
 20
189.754
 11
273.077
 21
189.514
  0
LINE
  8
0
 10
273.077
 20
189.514
 11
272.987
 21
189.284
  0
LINE
  8
0
 10
272.987
 20
189.284
 11
272.863
 21
189.071
  0
LINE
  8
0
 10
272.863
 20
189.071
 11
272.71
 21
188.878
  0
LINE
  8
0
 10
272.71
 20
188.878
 11
272.529
 21
188.71
  0
LINE
  8
0
 10
272.529
 20
188.71
 11
272.325
 21
188.571
  0
LINE
  8
0
 10
272.325
 20
188.571
 11
272.103
 21
188.464
  0
LINE
  8
0
 10
272.103
 20
188.464
 11
271.867
 21
188.391
  0
LINE
  8
0
 10
271.867
 20
188.391
 11
271.623
 21
188.355
  0
LINE
  8
0
 10
271.623
 20
188.355
 11
263.377
 21
188.355
  0
LINE
  8
0
 10
294.377
 20
188.355
 11
294.133
 21
188.391
  0
LINE
  8
0
 10
294.133
 20
188.391
 11
293.897
 21
188.464
  0
LINE
  8
0
 10
293.897
 20
188.464
 11
293.675
 21
188.571
  0
LINE
  8
0
 10
293.675
 20
188.571
 11
293.471
 21
188.71
  0
LINE
  8
0
 10
293.471
 20
188.71
 11
293.29
 21
188.878
  0
LINE
  8
0
 10
293.29
 20
188.878
 11
293.137
 21
189.071
  0
LINE
  8
0
 10
293.137
 20
189.071
 11
293.013
 21
189.284
  0
LINE
  8
0
 10
293.013
 20
189.284
 11
292.923
 21
189.514
  0
LINE
  8
0
 10
292.923
 20
189.514
 11
292.868
 21
189.754
  0
LINE
  8
0
 10
292.868
 20
189.754
 11
292.85
 21
190
  0
LINE
  8
0
 10
292.85
 20
190
 11
292.868
 21
190.246
  0
LINE
  8
0
 10
292.868
 20
190.246
 11
292.923
 21
190.486
  0
LINE
  8
0
 10
292.923
 20
190.486
 11
293.013
 21
190.716
  0
LINE
  8
0
 10
293.013
 20
190.716
 11
293.137
 21
190.929
  0
LINE
  8
0
 10
293.137
 20
190.929
 11
293.29
 21
191.122
  0
LINE
  8
0
 10
293.29
 20
191.122
 11
293.471
 21
191.29
  0
LINE
  8
0
 10
293.471
 20
191.29
 11
293.675
 21
191.429
  0
LINE
  8
0
 10
293.675
 20
191.429
 11
293.897
 21
191.536
  0
LINE
  8
0
 10
293.897
 20
191.536
 11
294.133
 21
191.609
  0
LINE
  8
0
 10
294.133
 20
191.609
 11
294.377
 21
191.645
  0
LINE
  8
0
 10
294.377
 20
191.645
 11
302.623
 21
191.645
  0
LINE
  8
0
 10
302.623
 20
191.645
 11
302.867
 21
191.609
  0
LINE
  8
0
 10
302.867
 20
191.609
 11
303.103
 21
191.536
  0
LINE
  8
0
 10
303.103
 20
191.536
 11
303.325
 21
191.429
  0
LINE
  8
0
 10
303.325
 20
191.429
 11
303.529
 21
191.29
  0
LINE
  8
0
 10
303.529
 20
191.29
 11
303.71
 21
191.122
  0
LINE
  8
0
 10
303.71
 20
191.122
 11
303.863
 21
190.929
  0
LINE
  8
0
 10
303.863
 20
190.929
 11
303.987
 21
190.716
  0
LINE
  8
0
 10
303.987
 20
190.716
 11
304.077
 21
190.486
  0
LINE
  8
0
 10
304.077
 20
190.486
 11
304.132
 21
190.246
  0
LINE
  8
0
 10
304.132
 20
190.246
 11
304.15
 21
190
  0
LINE
  8
0
 10
304.15
 20
190
 11
304.132
 21
189.754
  0
LINE
  8
0
 10
304.132
 20
189.754
 11
304.077
 21
189.514
  0
LINE
  8
0
 10
304.077
 20
189.514
 11
303.987
 21
189.284
  0
LINE
  8
0
 10
303.987
 20
189.284
 11
303.863
 21
189.071
  0
LINE
  8
0
 10
303.863
 20
189.071
 11
303.71
 21
188.878
  0
LINE
  8
0
 10
303.71
 20
188.878
 11
303.529
 21
188.71
  0
LINE
  8
0
 10
303.529
 20
188.71
 11
303.325
 21
188.571
  0
LINE
  8
0
 10
303.325
 20
188.571
 11
303.103
 21
188.464
  0
LINE
  8
0
 10
303.103
 20
188.464
 11
302.867
 21
188.391
  0
LINE
  8
0
 10
302.867
 20
188.391
 11
302.623
 21
188.355
  0
LINE
  8
0
 10
302.623
 20
188.355
 11
294.377
 21
188.355
  0
LINE
  8
0
 10
-237.749
 20
64.9345
 11
-237.993
 21
64.9875
  0
LINE
  8
0
 10
-237.993
 20
64.9875
 11
-238.227
 21
65.0748
  0
LINE
  8
0
 10
-238.227
 20
65.0748
 11
-238.446
 21
65.1945
  0
LINE
  8
0
 10
-238.446
 20
65.1945
 11
-238.646
 21
65.3441
  0
LINE
  8
0
 10
-238.646
 20
65.3441
 11
-238.823
 21
65.5207
  0
LINE
  8
0
 10
-238.823
 20
65.5207
 11
-238.972
 21
65.7205
  0
LINE
  8
0
 10
-238.972
 20
65.7205
 11
-239.092
 21
65.9397
  0
LINE
  8
0
 10
-239.092
 20
65.9397
 11
-239.179
 21
66.1736
  0
LINE
  8
0
 10
-239.179
 20
66.1736
 11
-239.232
 21
66.4176
  0
LINE
  8
0
 10
-239.232
 20
66.4176
 11
-239.25
 21
66.6667
  0
LINE
  8
0
 10
-239.25
 20
66.6667
 11
-239.25
 21
175
  0
LINE
  8
0
 10
-239.25
 20
175
 11
-239.232
 21
175.249
  0
LINE
  8
0
 10
-239.232
 20
175.249
 11
-239.179
 21
175.493
  0
LINE
  8
0
 10
-239.179
 20
175.493
 11
-239.092
 21
175.727
  0
LINE
  8
0
 10
-239.092
 20
175.727
 11
-238.972
 21
175.946
  0
LINE
  8
0
 10
-238.972
 20
175.946
 11
-238.823
 21
176.146
  0
LINE
  8
0
 10
-238.823
 20
176.146
 11
-238.646
 21
176.323
  0
LINE
  8
0
 10
-238.646
 20
176.323
 11
-238.446
 21
176.472
  0
LINE
  8
0
 10
-238.446
 20
176.472
 11
-238.227
 21
176.592
  0
LINE
  8
0
 10
-238.227
 20
176.592
 11
-237.993
 21
176.679
  0
LINE
  8
0
 10
-237.993
 20
176.679
 11
-237.749
 21
176.732
  0
LINE
  8
0
 10
-237.749
 20
176.732
 11
-237.5
 21
176.75
  0
LINE
  8
0
 10
-237.5
 20
176.75
 11
-237.251
 21
176.732
  0
LINE
  8
0
 10
-237.251
 20
176.732
 11
-237.007
 21
176.679
  0
LINE
  8
0
 10
-237.007
 20
176.679
 11
-236.773
 21
176.592
  0
LINE
  8
0
 10
-236.773
 20
176.592
 11
-236.554
 21
176.472
  0
LINE
  8
0
 10
-236.554
 20
176.472
 11
-236.354
 21
176.323
  0
LINE
  8
0
 10
-236.354
 20
176.323
 11
-236.177
 21
176.146
  0
LINE
  8
0
 10
-236.177
 20
176.146
 11
-236.028
 21
175.946
  0
LINE
  8
0
 10
-236.028
 20
175.946
 11
-235.908
 21
175.727
  0
LINE
  8
0
 10
-235.908
 20
175.727
 11
-235.821
 21
175.493
  0
LINE
  8
0
 10
-235.821
 20
175.493
 11
-235.768
 21
175.249
  0
LINE
  8
0
 10
-235.768
 20
175.249
 11
-235.75
 21
175
  0
LINE
  8
0
 10
-235.75
 20
175
 11
-235.75
 21
66.6667
  0
LINE
  8
0
 10
-235.75
 20
66.6667
 11
-235.768
 21
66.4176
  0
LINE
  8
0
 10
-235.768
 20
66.4176
 11
-235.821
 21
66.1736
  0
LINE
  8
0
 10
-235.821
 20
66.1736
 11
-235.908
 21
65.9397
  0
LINE
  8
0
 10
-235.908
 20
65.9397
 11
-236.028
 21
65.7205
  0
LINE
  8
0
 10
-236.028
 20
65.7205
 11
-236.177
 21
65.5207
  0
LINE
  8
0
 10
-236.177
 20
65.5207
 11
-236.354
 21
65.3441
  0
LINE
  8
0
 10
-236.354
 20
65.3441
 11
-236.554
 21
65.1945
  0
LINE
  8
0
 10
-236.554
 20
65.1945
 11
-236.773
 21
65.0748
  0
LINE
  8
0
 10
-236.773
 20
65.0748
 11
-237.007
 21
64.9875
  0
LINE
  8
0
 10
-237.007
 20
64.9875
 11
-237.251
 21
64.9345
  0
LINE
  8
0
 10
-237.251
 20
64.9345
 11
-237.5
 21
64.9167
  0
LINE
  8
0
 10
-237.5
 20
64.9167
 11
-237.749
 21
64.9345
  0
LINE
  8
0
 10
237.251
 20
64.9345
 11
237.007
 21
64.9875
  0
LINE
  8
0
 10
237.007
 20
64.9875
 11
236.773
 21
65.0748
  0
LINE
  8
0
 10
236.773
 20
65.0748
 11
236.554
 21
65.1945
  0
LINE
  8
0
 10
236.554
 20
65.1945
 11
236.354
 21
65.3441
  0
LINE
  8
0
 10
236.354
 20
65.3441
 11
236.177
 21
65.5207
  0
LINE
  8
0
 10
236.177
 20
65.5207
 11
236.028
 21
65.7205
  0
LINE
  8
0
 10
236.028
 20
65.7205
 11
235.908
 21
65.9397
  0
LINE
  8
0
 10
235.908
 20
65.9397
 11
235.821
 21
66.1736
  0
LINE
  8
0
 10
235.821
 20
66.1736
 11
235.768
 21
66.4176
  0
LINE
  8
0
 10
235.768
 20
66.4176
 11
235.75
 21
66.6667
  0
LINE
  8
0
 10
235.75
 20
66.6667
 11
235.75
 21
175
  0
LINE
  8
0
 10
235.75
 20
175
 11
235.768
 21
175.249
  0
LINE
  8
0
 10
235.768
 20
175.249
 11
235.821
 21
175.493
  0
LINE
  8
0
 10
235.821
 20
175.493
 11
235.908
 21
175.727
  0
LINE
  8
0
 10
235.908
 20
175.727
 11
236.028
 21
175.946
  0
LINE
  8
0
 10
236.028
 20
175.946
 11
236.177
 21
176.146
  0
LINE
  8
0
 10
236.177
 20
176.146
 11
236.354
 21
176.323
  0
LINE
  8
0
 10
236.354
 20
176.323
 11
236.554
 21
176.472
  0
LINE
  8
0
 10
236.554
 20
176.472
 11
236.773
 21
176.592
  0
LINE
  8
0
 10
236.773
 20
176.592
 11
237.007
 21
176.679
  0
LINE
  8
0
 10
237.007
 20
176.679
 11
237.251
 21
176.732
  0
LINE
  8
0
 10
237.251
 20
176.732
 11
237.5
 21
176.75
  0
LINE
  8
0
 10
237.5
 20
176.75
 11
237.749
 21
176.732
  0
LINE
  8
0
 10
237.749
 20
176.732
 11
237.993
 21
176.679
  0
LINE
  8
0
 10
237.993
 20
176.679
 11
238.227
 21
176.592
  0
LINE
  8
0
 10
238.227
 20
176.592
 11
238.446
 21
176.472
  0
LINE
  8
0
 10
238.446
 20
176.472
 11
238.646
 21
176.323
  0
LINE
  8
0
 10
238.646
 20
176.323
 11
238.823
 21
176.146
  0
LINE
  8
0
 10
238.823
 20
176.146
 11
238.972
 21
175.946
  0
LINE
  8
0
 10
238.972
 20
175.946
 11
239.092
 21
175.727
  0
LINE
  8
0
 10
239.092
 20
175.727
 11
239.179
 21
175.493
  0
LINE
  8
0
 10
239.179
 20
175.493
 11
239.232
 21
175.249
  0
LINE
  8
0
 10
239.232
 20
175.249
 11
239.25
 21
175
  0
LINE
  8
0
 10
239.25
 20
175
 11
239.25
 21
66.6667
  0
LINE
  8
0
 10
239.25
 20
66.6667
 11
239.232
 21
66.4176
  0
LINE
  8
0
 10
239.232
 20
66.4176
 11
239.179
 21
66.1736
  0
LINE
  8
0
 10
239.179
 20
66.1736
 11
239.092
 21
65.9397
  0
LINE
  8
0
 10
239.092
 20
65.9397
 11
238.972
 21
65.7205
  0
LINE
  8
0
 10
238.972
 20
65.7205
 11
238.823
 21
65.5207
  0
LINE
  8
0
 10
238.823
 20
65.5207
 11
238.646
 21
65.3441
  0
LINE
  8
0
 10
238.646
 20
65.3441
 11
238.446
 21
65.1945
  0
LINE
  8
0
 10
238.446
 20
65.1945
 11
238.227
 21
65.0748
  0
LINE
  8
0
 10
238.227
 20
65.0748
 11
237.993
 21
64.9875
  0
LINE
  8
0
 10
237.993
 20
64.9875
 11
237.749
 21
64.9345
  0
LINE
  8
0
 10
237.749
 20
64.9345
 11
237.5
 21
64.9167
  0
LINE
  8
0
 10
237.5
 20
64.9167
 11
237.251
 21
64.9345
  0
LINE
  8
0
 10
294.816
 20
56.0617
 11
294.575
 21
56.1136
  0
LINE
  8
0
 10
294.575
 20
56.1136
 11
294.347
 21
56.2052
  0
LINE
  8
0
 10
294.347
 20
56.2052
 11
294.138
 21
56.3342
  0
LINE
  8
0
 10
294.138
 20
56.3342
 11
293.953
 21
56.4967
  0
LINE
  8
0
 10
293.953
 20
56.4967
 11
293.799
 21
56.688
  0
LINE
  8
0
 10
293.799
 20
56.688
 11
293.679
 21
56.9027
  0
LINE
  8
0
 10
293.679
 20
56.9027
 11
293.597
 21
57.1346
  0
LINE
  8
0
 10
293.597
 20
57.1346
 11
293.555
 21
57.377
  0
LINE
  8
0
 10
293.555
 20
57.377
 11
293.555
 21
57.623
  0
LINE
  8
0
 10
293.555
 20
57.623
 11
293.597
 21
57.8654
  0
LINE
  8
0
 10
293.597
 20
57.8654
 11
293.679
 21
58.0972
  0
LINE
  8
0
 10
293.679
 20
58.0972
 11
293.799
 21
58.312
  0
LINE
  8
0
 10
293.799
 20
58.312
 11
293.953
 21
58.5033
  0
LINE
  8
0
 10
293.953
 20
58.5033
 11
294.138
 21
58.6658
  0
LINE
  8
0
 10
294.138
 20
58.6658
 11
294.347
 21
58.7947
  0
LINE
  8
0
 10
294.347
 20
58.7947
 11
294.575
 21
58.8864
  0
LINE
  8
0
 10
294.575
 20
58.8864
 11
294.816
 21
58.9382
  0
LINE
  8
0
 10
294.816
 20
58.9382
 11
295.062
 21
58.9487
  0
LINE
  8
0
 10
295.062
 20
58.9487
 11
295.305
 21
58.9174
  0
LINE
  8
0
 10
295.305
 20
58.9174
 11
295.541
 21
58.8454
  0
LINE
  8
0
 10
295.541
 20
58.8454
 11
295.76
 21
58.7347
  0
LINE
  8
0
 10
295.76
 20
58.7347
 11
295.958
 21
58.5885
  0
LINE
  8
0
 10
295.958
 20
58.5885
 11
296.128
 21
58.4109
  0
LINE
  8
0
 10
296.128
 20
58.4109
 11
296.266
 21
58.2072
  0
LINE
  8
0
 10
296.266
 20
58.2072
 11
296.367
 21
57.983
  0
LINE
  8
0
 10
296.367
 20
57.983
 11
296.429
 21
57.745
  0
LINE
  8
0
 10
296.429
 20
57.745
 11
296.45
 21
57.5
  0
LINE
  8
0
 10
296.45
 20
57.5
 11
296.429
 21
57.2549
  0
LINE
  8
0
 10
296.429
 20
57.2549
 11
296.367
 21
57.0169
  0
LINE
  8
0
 10
296.367
 20
57.0169
 11
296.266
 21
56.7928
  0
LINE
  8
0
 10
296.266
 20
56.7928
 11
296.128
 21
56.5891
  0
LINE
  8
0
 10
296.128
 20
56.5891
 11
295.958
 21
56.4115
  0
LINE
  8
0
 10
295.958
 20
56.4115
 11
295.76
 21
56.2653
  0
LINE
  8
0
 10
295.76
 20
56.2653
 11
295.541
 21
56.1546
  0
LINE
  8
0
 10
295.541
 20
56.1546
 11
295.305
 21
56.0825
  0
LINE
  8
0
 10
295.305
 20
56.0825
 11
295.062
 21
56.0513
  0
LINE
  8
0
 10
295.062
 20
56.0513
 11
294.816
 21
56.0617
  0
LINE
  8
0
 10
-295.305
 20
56.0825
 11
-295.541
 21
56.1546
  0
LINE
  8
0
 10
-295.541
 20
56.1546
 11
-295.76
 21
56.2653
  0
LINE
  8
0
 10
-295.76
 20
56.2653
 11
-295.958
 21
56.4115
  0
LINE
  8
0
 10
-295.958
 20
56.4115
 11
-296.128
 21
56.5891
  0
LINE
  8
0
 10
-296.128
 20
56.5891
 11
-296.266
 21
56.7928
  0
LINE
  8
0
 10
-296.266
 20
56.7928
 11
-296.367
 21
57.0169
  0
LINE
  8
0
 10
-296.367
 20
57.0169
 11
-296.429
 21
57.2549
  0
LINE
  8
0
 10
-296.429
 20
57.2549
 11
-296.45
 21
57.5
  0
LINE
  8
0
 10
-296.45
 20
57.5
 11
-296.429
 21
57.745
  0
LINE
  8
0
 10
-296.429
 20
57.745
 11
-296.367
 21
57.983
  0
LINE
  8
0
 10
-296.367
 20
57.983
 11
-296.266
 21
58.2072
  0
LINE
  8
0
 10
-296.266
 20
58.2072
 11
-296.128
 21
58.4109
  0
LINE
  8
0
 10
-296.128
 20
58.4109
 11
-295.958
 21
58.5885
  0
LINE
  8
0
 10
-295.958
 20
58.5885
 11
-295.76
 21
58.7347
  0
LINE
  8
0
 10
-295.76
 20
58.7347
 11
-295.541
 21
58.8454
  0
LINE
  8
0
 10
-295.541
 20
58.8454
 11
-295.305
 21
58.9174
  0
LINE
  8
0
 10
-295.305
 20
58.9174
 11
-295.062
 21
58.9487
  0
LINE
  8
0
 10
-295.062
 20
58.9487
 11
-294.816
 21
58.9382
  0
LINE
  8
0
 10
-294.816
 20
58.9382
 11
-294.575
 21
58.8864
  0
LINE
  8
0
 10
-294.575
 20
58.8864
 11
-294.347
 21
58.7947
  0
LINE
  8
0
 10
-294.347
 20
58.7947
 11
-294.138
 21
58.6658
  0
LINE
  8
0
 10
-294.138
 20
58.6658
 11
-293.953
 21
58.5033
  0
LINE
  8
0
 10
-293.953
 20
58.5033
 11
-293.799
 21
58.312
  0
LINE
  8
0
 10
-293.799
 20
58.312
 11
-293.679
 21
58.0972
  0
LINE
  8
0
 10
-293.679
 20
58.0972
 11
-293.597
 21
57.8654
  0
LINE
  8
0
 10
-293.597
 20
57.8654
 11
-293.555
 21
57.623
  0
LINE
  8
0
 10
-293.555
 20
57.623
 11
-293.555
 21
57.377
  0
LINE
  8
0
 10
-293.555
 20
57.377
 11
-293.597
 21
57.1346
  0
LINE
  8
0
 10
-293.597
 20
57.1346
 11
-293.679
 21
56.9027
  0
LINE
  8
0
 10
-293.679
 20
56.9027
 11
-293.799
 21
56.688
  0
LINE
  8
0
 10
-293.799
 20
56.688
 11
-293.953
 21
56.4967
  0
LINE
  8
0
 10
-293.953
 20
56.4967
 11
-294.138
 21
56.3342
  0
LINE
  8
0
 10
-294.138
 20
56.3342
 11
-294.347
 21
56.2052
  0
LINE
  8
0
 10
-294.347
 20
56.2052
 11
-294.575
 21
56.1136
  0
LINE
  8
0
 10
-294.575
 20
56.1136
 11
-294.816
 21
56.0617
  0
LINE
  8
0
 10
-294.816
 20
56.0617
 11
-295.062
 21
56.0513
  0
LINE
  8
0
 10
-295.062
 20
56.0513
 11
-295.305
 21
56.0825
  0
LINE
  8
0
 10
237.251
 20
-53.3988
 11
237.007
 21
-53.3458
  0
LINE
  8
0
 10
237.007
 20
-53.3458
 11
236.773
 21
-53.2585
  0
LINE
  8
0
 10
236.773
 20
-53.2585
 11
236.554
 21
-53.1389
  0
LINE
  8
0
 10
236.554
 20
-53.1389
 11
236.354
 21
-52.9892
  0
LINE
  8
0
 10
236.354
 20
-52.9892
 11
236.177
 21
-52.8127
  0
LINE
  8
0
 10
236.177
 20
-52.8127
 11
236.028
 21
-52.6128
  0
LINE
  8
0
 10
236.028
 20
-52.6128
 11
235.908
 21
-52.3936
  0
LINE
  8
0
 10
235.908
 20
-52.3936
 11
235.821
 21
-52.1597
  0
LINE
  8
0
 10
235.821
 20
-52.1597
 11
235.768
 21
-51.9157
  0
LINE
  8
0
 10
235.768
 20
-51.9157
 11
235.75
 21
-51.6667
  0
LINE
  8
0
 10
235.75
 20
-51.6667
 11
235.75
 21
56.6667
  0
LINE
  8
0
 10
235.75
 20
56.6667
 11
235.768
 21
56.9157
  0
LINE
  8
0
 10
235.768
 20
56.9157
 11
235.821
 21
57.1597
  0
LINE
  8
0
 10
235.821
 20
57.1597
 11
235.908
 21
57.3936
  0
LINE
  8
0
 10
235.908
 20
57.3936
 11
236.028
 21
57.6128
  0
LINE
  8
0
 10
236.028
 20
57.6128
 11
236.177
 21
57.8127
  0
LINE
  8
0
 10
236.177
 20
57.8127
 11
236.354
 21
57.9892
  0
LINE
  8
0
 10
236.354
 20
57.9892
 11
236.554
 21
58.1389
  0
LINE
  8
0
 10
236.554
 20
58.1389
 11
236.773
 21
58.2585
  0
LINE
  8
0
 10
236.773
 20
58.2585
 11
237.007
 21
58.3458
  0
LINE
  8
0
 10
237.007
 20
58.3458
 11
237.251
 21
58.3988
  0
LINE
  8
0
 10
237.251
 20
58.3988
 11
237.5
 21
58.4167
  0
LINE
  8
0
 10
237.5
 20
58.4167
 11
237.749
 21
58.3988
  0
LINE
  8
0
 10
237.749
 20
58.3988
 11
237.993
 21
58.3458
  0
LINE
  8
0
 10
237.993
 20
58.3458
 11
238.227
 21
58.2585
  0
LINE
  8
0
 10
238.227
 20
58.2585
 11
238.446
 21
58.1389
  0
LINE
  8
0
 10
238.446
 20
58.1389
 11
238.646
 21
57.9892
  0
LINE
  8
0
 10
238.646
 20
57.9892
 11
238.823
 21
57.8127
  0
LINE
  8
0
 10
238.823
 20
57.8127
 11
238.972
 21
57.6128
  0
LINE
  8
0
 10
238.972
 20
57.6128
 11
239.092
 21
57.3936
  0
LINE
  8
0
 10
239.092
 20
57.3936
 11
239.179
 21
57.1597
  0
LINE
  8
0
 10
239.179
 20
57.1597
 11
239.232
 21
56.9157
  0
LINE
  8
0
 10
239.232
 20
56.9157
 11
239.25
 21
56.6667
  0
LINE
  8
0
 10
239.25
 20
56.6667
 11
239.25
 21
-51.6667
  0
LINE
  8
0
 10
239.25
 20
-51.6667
 11
239.232
 21
-51.9157
  0
LINE
  8
0
 10
239.232
 20
-51.9157
 11
239.179
 21
-52.1597
  0
LINE
  8
0
 10
239.179
 20
-52.1597
 11
239.092
 21
-52.3936
  0
LINE
  8
0
 10
239.092
 20
-52.3936
 11
238.972
 21
-52.6128
  0
LINE
  8
0
 10
238.972
 20
-52.6128
 11
238.823
 21
-52.8127
  0
LINE
  8
0
 10
238.823
 20
-52.8127
 11
238.646
 21
-52.9892
  0
LINE
  8
0
 10
238.646
 20
-52.9892
 11
238.446
 21
-53.1389
  0
LINE
  8
0
 10
238.446
 20
-53.1389
 11
238.227
 21
-53.2585
  0
LINE
  8
0
 10
238.227
 20
-53.2585
 11
237.993
 21
-53.3458
  0
LINE
  8
0
 10
237.993
 20
-53.3458
 11
237.749
 21
-53.3988
  0
LINE
  8
0
 10
237.749
 20
-53.3988
 11
237.5
 21
-53.4167
  0
LINE
  8
0
 10
237.5
 20
-53.4167
 11
237.251
 21
-53.3988
  0
LINE
  8
0
 10
-237.749
 20
-53.3988
 11
-237.993
 21
-53.3458
  0
LINE
  8
0
 10
-237.993
 20
-53.3458
 11
-238.227
 21
-53.2585
  0
LINE
  8
0
 10
-238.227
 20
-53.2585
 11
-238.446
 21
-53.1389
  0
LINE
  8
0
 10
-238.446
 20
-53.1389
 11
-238.646
 21
-52.9892
  0
LINE
  8
0
 10
-238.646
 20
-52.9892
 11
-238.823
 21
-52.8127
  0
LINE
  8
0
 10
-238.823
 20
-52.8127
 11
-238.972
 21
-52.6128
  0
LINE
  8
0
 10
-238.972
 20
-52.6128
 11
-239.092
 21
-52.3936
  0
LINE
  8
0
 10
-239.092
 20
-52.3936
 11
-239.179
 21
-52.1597
  0
LINE
  8
0
 10
-239.179
 20
-52.1597
 11
-239.232
 21
-51.9157
  0
LINE
  8
0
 10
-239.232
 20
-51.9157
 11
-239.25
 21
-51.6667
  0
LINE
  8
0
 10
-239.25
 20
-51.6667
 11
-239.25
 21
56.6667
  0
LINE
  8
0
 10
-239.25
 20
56.6667
 11
-239.232
 21
56.9157
  0
LINE
  8
0
 10
-239.232
 20
56.9157
 11
-239.179
 21
57.1597
  0
LINE
  8
0
 10
-239.179
 20
57.1597
 11
-239.092
 21
57.3936
  0
LINE
  8
0
 10
-239.092
 20
57.3936
 11
-238.972
 21
57.6128
  0
LINE
  8
0
 10
-238.972
 20
57.6128
 11
-238.823
 21
57.8127
  0
LINE
  8
0
 10
-238.823
 20
57.8127
 11
-238.646
 21
57.9892
  0
LINE
  8
0
 10
-238.646
 20
57.9892
 11
-238.446
 21
58.1389
  0
LINE
  8
0
 10
-238.446
 20
58.1389
 11
-238.227
 21
58.2585
  0
LINE
  8
0
 10
-238.227
 20
58.2585
 11
-237.993
 21
58.3458
  0
LINE
  8
0
 10
-237.993
 20
58.3458
 11
-237.749
 21
58.3988
  0
LINE
  8
0
 10
-237.749
 20
58.3988
 11
-237.5
 21
58.4167
  0
LINE
  8
0
 10
-237.5
 20
58.4167
 11
-237.251
 21
58.3988
  0
LINE
  8
0
 10
-237.251
 20
58.3988
 11
-237.007
 21
58.3458
  0
LINE
  8
0
 10
-237.007
 20
58.3458
 11
-236.773
 21
58.2585
  0
LINE
  8
0
 10
-236.773
 20
58.2585
 11
-236.554
 21
58.1389
  0
LINE
  8
0
 10
-236.554
 20
58.1389
 11
-236.354
 21
57.9892
  0
LINE
  8
0
 10
-236.354
 20
57.9892
 11
-236.177
 21
57.8127
  0
LINE
  8
0
 10
-236.177
 20
57.8127
 11
-236.028
 21
57.6128
  0
LINE
  8
0
 10
-236.028
 20
57.6128
 11
-235.908
 21
57.3936
  0
LINE
  8
0
 10
-235.908
 20
57.3936
 11
-235.821
 21
57.1597
  0
LINE
  8
0
 10
-235.821
 20
57.1597
 11
-235.768
 21
56.9157
  0
LINE
  8
0
 10
-235.768
 20
56.9157
 11
-235.75
 21
56.6667
  0
LINE
  8
0
 10
-235.75
 20
56.6667
 11
-235.75
 21
-51.6667
  0
LINE
  8
0
 10
-235.75
 20
-51.6667
 11
-235.768
 21
-51.9157
  0
LINE
  8
0
 10
-235.768
 20
-51.9157
 11
-235.821
 21
-52.1597
  0
LINE
  8
0
 10
-235.821
 20
-52.1597
 11
-235.908
 21
-52.3936
  0
LINE
  8
0
 10
-235.908
 20
-52.3936
 11
-236.028
 21
-52.6128
  0
LINE
  8
0
 10
-236.028
 20
-52.6128
 11
-236.177
 21
-52.8127
  0
LINE
  8
0
 10
-236.177
 20
-52.8127
 11
-236.354
 21
-52.9892
  0
LINE
  8
0
 10
-236.354
 20
-52.9892
 11
-236.554
 21
-53.1389
  0
LINE
  8
0
 10
-236.554
 20
-53.1389
 11
-236.773
 21
-53.2585
  0
LINE
  8
0
 10
-236.773
 20
-53.2585
 11
-237.007
 21
-53.3458
  0
LINE
  8
0
 10
-237.007
 20
-53.3458
 11
-237.251
 21
-53.3988
  0
LINE
  8
0
 10
-237.251
 20
-53.3988
 11
-237.5
 21
-53.4167
  0
LINE
  8
0
 10
-237.5
 20
-53.4167
 11
-237.749
 21
-53.3988
  0
LINE
  8
0
 10
-295.251
 20
35.1131
 11
-295.499
 21
35.1524
  0
LINE
  8
0
 10
-295.499
 20
35.1524
 11
-295.742
 21
35.2175
  0
LINE
  8
0
 10
-295.742
 20
35.2175
 11
-295.976
 21
35.3075
  0
LINE
  8
0
 10
-295.976
 20
35.3075
 11
-296.2
 21
35.4215
  0
LINE
  8
0
 10
-296.2
 20
35.4215
 11
-296.411
 21
35.5583
  0
LINE
  8
0
 10
-296.411
 20
35.5583
 11
-296.606
 21
35.7164
  0
LINE
  8
0
 10
-296.606
 20
35.7164
 11
-296.784
 21
35.8941
  0
LINE
  8
0
 10
-296.784
 20
35.8941
 11
-296.942
 21
36.0893
  0
LINE
  8
0
 10
-296.942
 20
36.0893
 11
-297.078
 21
36.3
  0
LINE
  8
0
 10
-297.078
 20
36.3
 11
-297.193
 21
36.5238
  0
LINE
  8
0
 10
-297.193
 20
36.5238
 11
-297.283
 21
36.7583
  0
LINE
  8
0
 10
-297.283
 20
36.7583
 11
-297.348
 21
37.001
  0
LINE
  8
0
 10
-297.348
 20
37.001
 11
-297.387
 21
37.2491
  0
LINE
  8
0
 10
-297.387
 20
37.2491
 11
-297.4
 21
37.5
  0
LINE
  8
0
 10
-297.4
 20
37.5
 11
-297.387
 21
37.7509
  0
LINE
  8
0
 10
-297.387
 20
37.7509
 11
-297.348
 21
37.999
  0
LINE
  8
0
 10
-297.348
 20
37.999
 11
-297.283
 21
38.2416
  0
LINE
  8
0
 10
-297.283
 20
38.2416
 11
-297.193
 21
38.4762
  0
LINE
  8
0
 10
-297.193
 20
38.4762
 11
-297.078
 21
38.7
  0
LINE
  8
0
 10
-297.078
 20
38.7
 11
-296.942
 21
38.9107
  0
LINE
  8
0
 10
-296.942
 20
38.9107
 11
-296.784
 21
39.1059
  0
LINE
  8
0
 10
-296.784
 20
39.1059
 11
-296.606
 21
39.2835
  0
LINE
  8
0
 10
-296.606
 20
39.2835
 11
-296.411
 21
39.4416
  0
LINE
  8
0
 10
-296.411
 20
39.4416
 11
-296.2
 21
39.5785
  0
LINE
  8
0
 10
-296.2
 20
39.5785
 11
-295.976
 21
39.6925
  0
LINE
  8
0
 10
-295.976
 20
39.6925
 11
-295.742
 21
39.7825
  0
LINE
  8
0
 10
-295.742
 20
39.7825
 11
-295.499
 21
39.8475
  0
LINE
  8
0
 10
-295.499
 20
39.8475
 11
-295.251
 21
39.8868
  0
LINE
  8
0
 10
-295.251
 20
39.8868
 11
-295
 21
39.9
  0
LINE
  8
0
 10
-295
 20
39.9
 11
-294.749
 21
39.8868
  0
LINE
  8
0
 10
-294.749
 20
39.8868
 11
-294.501
 21
39.8475
  0
LINE
  8
0
 10
-294.501
 20
39.8475
 11
-294.258
 21
39.7825
  0
LINE
  8
0
 10
-294.258
 20
39.7825
 11
-294.024
 21
39.6925
  0
LINE
  8
0
 10
-294.024
 20
39.6925
 11
-293.8
 21
39.5785
  0
LINE
  8
0
 10
-293.8
 20
39.5785
 11
-293.589
 21
39.4416
  0
LINE
  8
0
 10
-293.589
 20
39.4416
 11
-293.394
 21
39.2835
  0
LINE
  8
0
 10
-293.394
 20
39.2835
 11
-293.216
 21
39.1059
  0
LINE
  8
0
 10
-293.216
 20
39.1059
 11
-293.058
 21
38.9107
  0
LINE
  8
0
 10
-293.058
 20
38.9107
 11
-292.922
 21
38.7
  0
LINE
  8
0
 10
-292.922
 20
38.7
 11
-292.807
 21
38.4762
  0
LINE
  8
0
 10
-292.807
 20
38.4762
 11
-292.717
 21
38.2416
  0
LINE
  8
0
 10
-292.717
 20
38.2416
 11
-292.652
 21
37.999
  0
LINE
  8
0
 10
-292.652
 20
37.999
 11
-292.613
 21
37.7509
  0
LINE
  8
0
 10
-292.613
 20
37.7509
 11
-292.6
 21
37.5
  0
LINE
  8
0
 10
-292.6
 20
37.5
 11
-292.613
 21
37.2491
  0
LINE
  8
0
 10
-292.613
 20
37.2491
 11
-292.652
 21
37.001
  0
LINE
  8
0
 10
-292.652
 20
37.001
 11
-292.717
 21
36.7583
  0
LINE
  8
0
 10
-292.717
 20
36.7583
 11
-292.807
 21
36.5238
  0
LINE
  8
0
 10
-292.807
 20
36.5238
 11
-292.922
 21
36.3
  0
LINE
  8
0
 10
-292.922
 20
36.3
 11
-293.058
 21
36.0893
  0
LINE
  8
0
 10
-293.058
 20
36.0893
 11
-293.216
 21
35.8941
  0
LINE
  8
0
 10
-293.216
 20
35.8941
 11
-293.394
 21
35.7164
  0
LINE
  8
0
 10
-293.394
 20
35.7164
 11
-293.589
 21
35.5583
  0
LINE
  8
0
 10
-293.589
 20
35.5583
 11
-293.8
 21
35.4215
  0
LINE
  8
0
 10
-293.8
 20
35.4215
 11
-294.024
 21
35.3075
  0
LINE
  8
0
 10
-294.024
 20
35.3075
 11
-294.258
 21
35.2175
  0
LINE
  8
0
 10
-294.258
 20
35.2175
 11
-294.501
 21
35.1524
  0
LINE
  8
0
 10
-294.501
 20
35.1524
 11
-294.749
 21
35.1131
  0
LINE
  8
0
 10
-294.749
 20
35.1131
 11
-295
 21
35.1
  0
LINE
  8
0
 10
-295
 20
35.1
 11
-295.251
 21
35.1131
  0
LINE
  8
0
 10
294.749
 20
35.1131
 11
294.501
 21
35.1524
  0
LINE
  8
0
 10
294.501
 20
35.1524
 11
294.258
 21
35.2175
  0
LINE
  8
0
 10
294.258
 20
35.2175
 11
294.024
 21
35.3075
  0
LINE
  8
0
 10
294.024
 20
35.3075
 11
293.8
 21
35.4215
  0
LINE
  8
0
 10
293.8
 20
35.4215
 11
293.589
 21
35.5583
  0
LINE
  8
0
 10
293.589
 20
35.5583
 11
293.394
 21
35.7164
  0
LINE
  8
0
 10
293.394
 20
35.7164
 11
293.216
 21
35.8941
  0
LINE
  8
0
 10
293.216
 20
35.8941
 11
293.058
 21
36.0893
  0
LINE
  8
0
 10
293.058
 20
36.0893
 11
292.922
 21
36.3
  0
LINE
  8
0
 10
292.922
 20
36.3
 11
292.807
 21
36.5238
  0
LINE
  8
0
 10
292.807
 20
36.5238
 11
292.717
 21
36.7583
  0
LINE
  8
0
 10
292.717
 20
36.7583
 11
292.652
 21
37.001
  0
LINE
  8
0
 10
292.652
 20
37.001
 11
292.613
 21
37.2491
  0
LINE
  8
0
 10
292.613
 20
37.2491
 11
292.6
 21
37.5
  0
LINE
  8
0
 10
292.6
 20
37.5
 11
292.613
 21
37.7509
  0
LINE
  8
0
 10
292.613
 20
37.7509
 11
292.652
 21
37.999
  0
LINE
  8
0
 10
292.652
 20
37.999
 11
292.717
 21
38.2416
  0
LINE
  8
0
 10
292.717
 20
38.2416
 11
292.807
 21
38.4762
  0
LINE
  8
0
 10
292.807
 20
38.4762
 11
292.922
 21
38.7
  0
LINE
  8
0
 10
292.922
 20
38.7
 11
293.058
 21
38.9107
  0
LINE
  8
0
 10
293.058
 20
38.9107
 11
293.216
 21
39.1059
  0
LINE
  8
0
 10
293.216
 20
39.1059
 11
293.394
 21
39.2835
  0
LINE
  8
0
 10
293.394
 20
39.2835
 11
293.589
 21
39.4416
  0
LINE
  8
0
 10
293.589
 20
39.4416
 11
293.8
 21
39.5785
  0
LINE
  8
0
 10
293.8
 20
39.5785
 11
294.024
 21
39.6925
  0
LINE
  8
0
 10
294.024
 20
39.6925
 11
294.258
 21
39.7825
  0
LINE
  8
0
 10
294.258
 20
39.7825
 11
294.501
 21
39.8475
  0
LINE
  8
0
 10
294.501
 20
39.8475
 11
294.749
 21
39.8868
  0
LINE
  8
0
 10
294.749
 20
39.8868
 11
295
 21
39.9
  0
LINE
  8
0
 10
295
 20
39.9
 11
295.251
 21
39.8868
  0
LINE
  8
0
 10
295.251
 20
39.8868
 11
295.499
 21
39.8475
  0
LINE
  8
0
 10
295.499
 20
39.8475
 11
295.742
 21
39.7825
  0
LINE
  8
0
 10
295.742
 20
39.7825
 11
295.976
 21
39.6925
  0
LINE
  8
0
 10
295.976
 20
39.6925
 11
296.2
 21
39.5785
  0
LINE
  8
0
 10
296.2
 20
39.5785
 11
296.411
 21
39.4416
  0
LINE
  8
0
 10
296.411
 20
39.4416
 11
296.606
 21
39.2835
  0
LINE
  8
0
 10
296.606
 20
39.2835
 11
296.784
 21
39.1059
  0
LINE
  8
0
 10
296.784
 20
39.1059
 11
296.942
 21
38.9107
  0
LINE
  8
0
 10
296.942
 20
38.9107
 11
297.078
 21
38.7
  0
LINE
  8
0
 10
297.078
 20
38.7
 11
297.193
 21
38.4762
  0
LINE
  8
0
 10
297.193
 20
38.4762
 11
297.283
 21
38.2416
  0
LINE
  8
0
 10
297.283
 20
38.2416
 11
297.348
 21
37.999
  0
LINE
  8
0
 10
297.348
 20
37.999
 11
297.387
 21
37.7509
  0
LINE
  8
0
 10
297.387
 20
37.7509
 11
297.4
 21
37.5
  0
LINE
  8
0
 10
297.4
 20
37.5
 11
297.387
 21
37.2491
  0
LINE
  8
0
 10
297.387
 20
37.2491
 11
297.348
 21
37.001
  0
LINE
  8
0
 10
297.348
 20
37.001
 11
297.283
 21
36.7583
  0
LINE
  8
0
 10
297.283
 20
36.7583
 11
297.193
 21
36.5238
  0
LINE
  8
0
 10
297.193
 20
36.5238
 11
297.078
 21
36.3
  0
LINE
  8
0
 10
297.078
 20
36.3
 11
296.942
 21
36.0893
  0
LINE
  8
0
 10
296.942
 20
36.0893
 11
296.784
 21
35.8941
  0
LINE
  8
0
 10
296.784
 20
35.8941
 11
296.606
 21
35.7164
  0
LINE
  8
0
 10
296.606
 20
35.7164
 11
296.411
 21
35.5583
  0
LINE
  8
0
 10
296.411
 20
35.5583
 11
296.2
 21
35.4215
  0
LINE
  8
0
 10
296.2
 20
35.4215
 11
295.976
 21
35.3075
  0
LINE
  8
0
 10
295.976
 20
35.3075
 11
295.742
 21
35.2175
  0
LINE
  8
0
 10
295.742
 20
35.2175
 11
295.499
 21
35.1524
  0
LINE
  8
0
 10
295.499
 20
35.1524
 11
295.251
 21
35.1131
  0
LINE
  8
0
 10
295.251
 20
35.1131
 11
295
 21
35.1
  0
LINE
  8
0
 10
295
 20
35.1
 11
294.749
 21
35.1131
  0
LINE
  8
0
 10
-295.397
 20
13.7208
 11
-295.79
 21
13.783
  0
LINE
  8
0
 10
-295.79
 20
13.783
 11
-296.174
 21
13.886
  0
LINE
  8
0
 10
-296.174
 20
13.886
 11
-296.546
 21
14.0285
  0
LINE
  8
0
 10
-296.546
 20
14.0285
 11
-296.9
 21
14.2091
  0
LINE
  8
0
 10
-296.9
 20
14.2091
 11
-297.234
 21
14.4257
  0
LINE
  8
0
 10
-297.234
 20
14.4257
 11
-297.543
 21
14.676
  0
LINE
  8
0
 10
-297.543
 20
14.676
 11
-297.824
 21
14.9573
  0
LINE
  8
0
 10
-297.824
 20
14.9573
 11
-298.074
 21
15.2664
  0
LINE
  8
0
 10
-298.074
 20
15.2664
 11
-298.291
 21
15.6
  0
LINE
  8
0
 10
-298.291
 20
15.6
 11
-298.471
 21
15.9544
  0
LINE
  8
0
 10
-298.471
 20
15.9544
 11
-298.614
 21
16.3257
  0
LINE
  8
0
 10
-298.614
 20
16.3257
 11
-298.717
 21
16.7099
  0
LINE
  8
0
 10
-298.717
 20
16.7099
 11
-298.779
 21
17.1028
  0
LINE
  8
0
 10
-298.779
 20
17.1028
 11
-298.8
 21
17.5
  0
LINE
  8
0
 10
-298.8
 20
17.5
 11
-298.779
 21
17.8972
  0
LINE
  8
0
 10
-298.779
 20
17.8972
 11
-298.717
 21
18.2901
  0
LINE
  8
0
 10
-298.717
 20
18.2901
 11
-298.614
 21
18.6743
  0
LINE
  8
0
 10
-298.614
 20
18.6743
 11
-298.471
 21
19.0456
  0
LINE
  8
0
 10
-298.471
 20
19.0456
 11
-298.291
 21
19.4
  0
LINE
  8
0
 10
-298.291
 20
19.4
 11
-298.074
 21
19.7336
  0
LINE
  8
0
 10
-298.074
 20
19.7336
 11
-297.824
 21
20.0427
  0
LINE
  8
0
 10
-297.824
 20
20.0427
 11
-297.543
 21
20.3239
  0
LINE
  8
0
 10
-297.543
 20
20.3239
 11
-297.234
 21
20.5743
  0
LINE
  8
0
 10
-297.234
 20
20.5743
 11
-296.9
 21
20.7909
  0
LINE
  8
0
 10
-296.9
 20
20.7909
 11
-296.546
 21
20.9715
  0
LINE
  8
0
 10
-296.546
 20
20.9715
 11
-296.174
 21
21.114
  0
LINE
  8
0
 10
-296.174
 20
21.114
 11
-295.79
 21
21.2169
  0
LINE
  8
0
 10
-295.79
 20
21.2169
 11
-295.397
 21
21.2792
  0
LINE
  8
0
 10
-295.397
 20
21.2792
 11
-295
 21
21.3
  0
LINE
  8
0
 10
-295
 20
21.3
 11
-294.603
 21
21.2792
  0
LINE
  8
0
 10
-294.603
 20
21.2792
 11
-294.21
 21
21.2169
  0
LINE
  8
0
 10
-294.21
 20
21.2169
 11
-293.826
 21
21.114
  0
LINE
  8
0
 10
-293.826
 20
21.114
 11
-293.454
 21
20.9715
  0
LINE
  8
0
 10
-293.454
 20
20.9715
 11
-293.1
 21
20.7909
  0
LINE
  8
0
 10
-293.1
 20
20.7909
 11
-292.766
 21
20.5743
  0
LINE
  8
0
 10
-292.766
 20
20.5743
 11
-292.457
 21
20.3239
  0
LINE
  8
0
 10
-292.457
 20
20.3239
 11
-292.176
 21
20.0427
  0
LINE
  8
0
 10
-292.176
 20
20.0427
 11
-291.926
 21
19.7336
  0
LINE
  8
0
 10
-291.926
 20
19.7336
 11
-291.709
 21
19.4
  0
LINE
  8
0
 10
-291.709
 20
19.4
 11
-291.529
 21
19.0456
  0
LINE
  8
0
 10
-291.529
 20
19.0456
 11
-291.386
 21
18.6743
  0
LINE
  8
0
 10
-291.386
 20
18.6743
 11
-291.283
 21
18.2901
  0
LINE
  8
0
 10
-291.283
 20
18.2901
 11
-291.221
 21
17.8972
  0
LINE
  8
0
 10
-291.221
 20
17.8972
 11
-291.2
 21
17.5
  0
LINE
  8
0
 10
-291.2
 20
17.5
 11
-291.221
 21
17.1028
  0
LINE
  8
0
 10
-291.221
 20
17.1028
 11
-291.283
 21
16.7099
  0
LINE
  8
0
 10
-291.283
 20
16.7099
 11
-291.386
 21
16.3257
  0
LINE
  8
0
 10
-291.386
 20
16.3257
 11
-291.529
 21
15.9544
  0
LINE
  8
0
 10
-291.529
 20
15.9544
 11
-291.709
 21
15.6
  0
LINE
  8
0
 10
-291.709
 20
15.6
 11
-291.926
 21
15.2664
  0
LINE
  8
0
 10
-291.926
 20
15.2664
 11
-292.176
 21
14.9573
  0
LINE
  8
0
 10
-292.176
 20
14.9573
 11
-292.457
 21
14.676
  0
LINE
  8
0
 10
-292.457
 20
14.676
 11
-292.766
 21
14.4257
  0
LINE
  8
0
 10
-292.766
 20
14.4257
 11
-293.1
 21
14.2091
  0
LINE
  8
0
 10
-293.1
 20
14.2091
 11
-293.454
 21
14.0285
  0
LINE
  8
0
 10
-293.454
 20
14.0285
 11
-293.826
 21
13.886
  0
LINE
  8
0
 10
-293.826
 20
13.886
 11
-294.21
 21
13.783
  0
LINE
  8
0
 10
-294.21
 20
13.783
 11
-294.603
 21
13.7208
  0
LINE
  8
0
 10
-294.603
 20
13.7208
 11
-295
 21
13.7
  0
LINE
  8
0
 10
-295
 20
13.7
 11
-295.397
 21
13.7208
  0
LINE
  8
0
 10
294.603
 20
13.7208
 11
294.21
 21
13.783
  0
LINE
  8
0
 10
294.21
 20
13.783
 11
293.826
 21
13.886
  0
LINE
  8
0
 10
293.826
 20
13.886
 11
293.454
 21
14.0285
  0
LINE
  8
0
 10
293.454
 20
14.0285
 11
293.1
 21
14.2091
  0
LINE
  8
0
 10
293.1
 20
14.2091
 11
292.766
 21
14.4257
  0
LINE
  8
0
 10
292.766
 20
14.4257
 11
292.457
 21
14.676
  0
LINE
  8
0
 10
292.457
 20
14.676
 11
292.176
 21
14.9573
  0
LINE
  8
0
 10
292.176
 20
14.9573
 11
291.926
 21
15.2664
  0
LINE
  8
0
 10
291.926
 20
15.2664
 11
291.709
 21
15.6
  0
LINE
  8
0
 10
291.709
 20
15.6
 11
291.529
 21
15.9544
  0
LINE
  8
0
 10
291.529
 20
15.9544
 11
291.386
 21
16.3257
  0
LINE
  8
0
 10
291.386
 20
16.3257
 11
291.283
 21
16.7099
  0
LINE
  8
0
 10
291.283
 20
16.7099
 11
291.221
 21
17.1028
  0
LINE
  8
0
 10
291.221
 20
17.1028
 11
291.2
 21
17.5
  0
LINE
  8
0
 10
291.2
 20
17.5
 11
291.221
 21
17.8972
  0
LINE
  8
0
 10
291.221
 20
17.8972
 11
291.283
 21
18.2901
  0
LINE
  8
0
 10
291.283
 20
18.2901
 11
291.386
 21
18.6743
  0
LINE
  8
0
 10
291.386
 20
18.6743
 11
291.529
 21
19.0456
  0
LINE
  8
0
 10
291.529
 20
19.0456
 11
291.709
 21
19.4
  0
LINE
  8
0
 10
291.709
 20
19.4
 11
291.926
 21
19.7336
  0
LINE
  8
0
 10
291.926
 20
19.7336
 11
292.176
 21
20.0427
  0
LINE
  8
0
 10
292.176
 20
20.0427
 11
292.457
 21
20.3239
  0
LINE
  8
0
 10
292.457
 20
20.3239
 11
292.766
 21
20.5743
  0
LINE
  8
0
 10
292.766
 20
20.5743
 11
293.1
 21
20.7909
  0
LINE
  8
0
 10
293.1
 20
20.7909
 11
293.454
 21
20.9715
  0
LINE
  8
0
 10
293.454
 20
20.9715
 11
293.826
 21
21.114
  0
LINE
  8
0
 10
293.826
 20
21.114
 11
294.21
 21
21.2169
  0
LINE
  8
0
 10
294.21
 20
21.2169
 11
294.603
 21
21.2792
  0
LINE
  8
0
 10
294.603
 20
21.2792
 11
295
 21
21.3
  0
LINE
  8
0
 10
295
 20
21.3
 11
295.397
 21
21.2792
  0
LINE
  8
0
 10
295.397
 20
21.2792
 11
295.79
 21
21.2169
  0
LINE
  8
0
 10
295.79
 20
21.2169
 11
296.174
 21
21.114
  0
LINE
  8
0
 10
296.174
 20
21.114
 11
296.546
 21
20.9715
  0
LINE
  8
0
 10
296.546
 20
20.9715
 11
296.9
 21
20.7909
  0
LINE
  8
0
 10
296.9
 20
20.7909
 11
297.234
 21
20.5743
  0
LINE
  8
0
 10
297.234
 20
20.5743
 11
297.543
 21
20.3239
  0
LINE
  8
0
 10
297.543
 20
20.3239
 11
297.824
 21
20.0427
  0
LINE
  8
0
 10
297.824
 20
20.0427
 11
298.074
 21
19.7336
  0
LINE
  8
0
 10
298.074
 20
19.7336
 11
298.291
 21
19.4
  0
LINE
  8
0
 10
298.291
 20
19.4
 11
298.471
 21
19.0456
  0
LINE
  8
0
 10
298.471
 20
19.0456
 11
298.614
 21
18.6743
  0
LINE
  8
0
 10
298.614
 20
18.6743
 11
298.717
 21
18.2901
  0
LINE
  8
0
 10
298.717
 20
18.2901
 11
298.779
 21
17.8972
  0
LINE
  8
0
 10
298.779
 20
17.8972
 11
298.8
 21
17.5
  0
LINE
  8
0
 10
298.8
 20
17.5
 11
298.779
 21
17.1028
  0
LINE
  8
0
 10
298.779
 20
17.1028
 11
298.717
 21
16.7099
  0
LINE
  8
0
 10
298.717
 20
16.7099
 11
298.614
 21
16.3257
  0
LINE
  8
0
 10
298.614
 20
16.3257
 11
298.471
 21
15.9544
  0
LINE
  8
0
 10
298.471
 20
15.9544
 11
298.291
 21
15.6
  0
LINE
  8
0
 10
298.291
 20
15.6
 11
298.074
 21
15.2664
  0
LINE
  8
0
 10
298.074
 20
15.2664
 11
297.824
 21
14.9573
  0
LINE
  8
0
 10
297.824
 20
14.9573
 11
297.543
 21
14.676
  0
LINE
  8
0
 10
297.543
 20
14.676
 11
297.234
 21
14.4257
  0
LINE
  8
0
 10
297.234
 20
14.4257
 11
296.9
 21
14.2091
  0
LINE
  8
0
 10
296.9
 20
14.2091
 11
296.546
 21
14.0285
  0
LINE
  8
0
 10
296.546
 20
14.0285
 11
296.174
 21
13.886
  0
LINE
  8
0
 10
296.174
 20
13.886
 11
295.79
 21
13.783
  0
LINE
  8
0
 10
295.79
 20
13.783
 11
295.397
 21
13.7208
  0
LINE
  8
0
 10
295.397
 20
13.7208
 11
295
 21
13.7
  0
LINE
  8
0
 10
295
 20
13.7
 11
294.603
 21
13.7208
  0
LINE
  8
0
 10
294.603
 20
-21.2792
 11
294.21
 21
-21.2169
  0
LINE
  8
0
 10
294.21
 20
-21.2169
 11
293.826
 21
-21.114
  0
LINE
  8
0
 10
293.826
 20
-21.114
 11
293.454
 21
-20.9715
  0
LINE
  8
0
 10
293.454
 20
-20.9715
 11
293.1
 21
-20.7909
  0
LINE
  8
0
 10
293.1
 20
-20.7909
 11
292.766
 21
-20.5743
  0
LINE
  8
0
 10
292.766
 20
-20.5743
 11
292.457
 21
-20.3239
  0
LINE
  8
0
 10
292.457
 20
-20.3239
 11
292.176
 21
-20.0427
  0
LINE
  8
0
 10
292.176
 20
-20.0427
 11
291.926
 21
-19.7336
  0
LINE
  8
0
 10
291.926
 20
-19.7336
 11
291.709
 21
-19.4
  0
LINE
  8
0
 10
291.709
 20
-19.4
 11
291.529
 21
-19.0456
  0
LINE
  8
0
 10
291.529
 20
-19.0456
 11
291.386
 21
-18.6743
  0
LINE
  8
0
 10
291.386
 20
-18.6743
 11
291.283
 21
-18.2901
  0
LINE
  8
0
 10
291.283
 20
-18.2901
 11
291.221
 21
-17.8972
  0
LINE
  8
0
 10
291.221
 20
-17.8972
 11
291.2
 21
-17.5
  0
LINE
  8
0
 10
291.2
 20
-17.5
 11
291.221
 21
-17.1028
  0
LINE
  8
0
 10
291.221
 20
-17.1028
 11
291.283
 21
-16.7099
  0
LINE
  8
0
 10
291.283
 20
-16.7099
 11
291.386
 21
-16.3257
  0
LINE
  8
0
 10
291.386
 20
-16.3257
 11
291.529
 21
-15.9544
  0
LINE
  8
0
 10
291.529
 20
-15.9544
 11
291.709
 21
-15.6
  0
LINE
  8
0
 10
291.709
 20
-15.6
 11
291.926
 21
-15.2664
  0
LINE
  8
0
 10
291.926
 20
-15.2664
 11
292.176
 21
-14.9573
  0
LINE
  8
0
 10
292.176
 20
-14.9573
 11
292.457
 21
-14.676
  0
LINE
  8
0
 10
292.457
 20
-14.676
 11
292.766
 21
-14.4257
  0
LINE
  8
0
 10
292.766
 20
-14.4257
 11
293.1
 21
-14.2091
  0
LINE
  8
0
 10
293.1
 20
-14.2091
 11
293.454
 21
-14.0285
  0
LINE
  8
0
 10
293.454
 20
-14.0285
 11
293.826
 21
-13.886
  0
LINE
  8
0
 10
293.826
 20
-13.886
 11
294.21
 21
-13.783
  0
LINE
  8
0
 10
294.21
 20
-13.783
 11
294.603
 21
-13.7208
  0
LINE
  8
0
 10
294.603
 20
-13.7208
 11
295
 21
-13.7
  0
LINE
  8
0
 10
295
 20
-13.7
 11
295.397
 21
-13.7208
  0
LINE
  8
0
 10
295.397
 20
-13.7208
 11
295.79
 21
-13.783
  0
LINE
  8
0
 10
295.79
 20
-13.783
 11
296.174
 21
-13.886
  0
LINE
  8
0
 10
296.174
 20
-13.886
 11
296.546
 21
-14.0285
  0
LINE
  8
0
 10
296.546
 20
-14.0285
 11
296.9
 21
-14.2091
  0
LINE
  8
0
 10
296.9
 20
-14.2091
 11
297.234
 21
-14.4257
  0
LINE
  8
0
 10
297.234
 20
-14.4257
 11
297.543
 21
-14.676
  0
LINE
  8
0
 10
297.543
 20
-14.676
 11
297.824
 21
-14.9573
  0
LINE
  8
0
 10
297.824
 20
-14.9573
 11
298.074
 21
-15.2664
  0
LINE
  8
0
 10
298.074
 20
-15.2664
 11
298.291
 21
-15.6
  0
LINE
  8
0
 10
298.291
 20
-15.6
 11
298.471
 21
-15.9544
  0
LINE
  8
0
 10
298.471
 20
-15.9544
 11
298.614
 21
-16.3257
  0
LINE
  8
0
 10
298.614
 20
-16.3257
 11
298.717
 21
-16.7099
  0
LINE
  8
0
 10
298.717
 20
-16.7099
 11
298.779
 21
-17.1028
  0
LINE
  8
0
 10
298.779
 20
-17.1028
 11
298.8
 21
-17.5
  0
LINE
  8
0
 10
298.8
 20
-17.5
 11
298.779
 21
-17.8972
  0
LINE
  8
0
 10
298.779
 20
-17.8972
 11
298.717
 21
-18.2901
  0
LINE
  8
0
 10
298.717
 20
-18.2901
 11
298.614
 21
-18.6743
  0
LINE
  8
0
 10
298.614
 20
-18.6743
 11
298.471
 21
-19.0456
  0
LINE
  8
0
 10
298.471
 20
-19.0456
 11
298.291
 21
-19.4
  0
LINE
  8
0
 10
298.291
 20
-19.4
 11
298.074
 21
-19.7336
  0
LINE
  8
0
 10
298.074
 20
-19.7336
 11
297.824
 21
-20.0427
  0
LINE
  8
0
 10
297.824
 20
-20.0427
 11
297.543
 21
-20.3239
  0
LINE
  8
0
 10
297.543
 20
-20.3239
 11
297.234
 21
-20.5743
  0
LINE
  8
0
 10
297.234
 20
-20.5743
 11
296.9
 21
-20.7909
  0
LINE
  8
0
 10
296.9
 20
-20.7909
 11
296.546
 21
-20.9715
  0
LINE
  8
0
 10
296.546
 20
-20.9715
 11
296.174
 21
-21.114
  0
LINE
  8
0
 10
296.174
 20
-21.114
 11
295.79
 21
-21.2169
  0
LINE
  8
0
 10
295.79
 20
-21.2169
 11
295.397
 21
-21.2792
  0
LINE
  8
0
 10
295.397
 20
-21.2792
 11
295
 21
-21.3
  0
LINE
  8
0
 10
295
 20
-21.3
 11
294.603
 21
-21.2792
  0
LINE
  8
0
 10
-295.397
 20
-21.2792
 11
-295.79
 21
-21.2169
  0
LINE
  8
0
 10
-295.79
 20
-21.2169
 11
-296.174
 21
-21.114
  0
LINE
  8
0
 10
-296.174
 20
-21.114
 11
-296.546
 21
-20.9715
  0
LINE
  8
0
 10
-296.546
 20
-20.9715
 11
-296.9
 21
-20.7909
  0
LINE
  8
0
 10
-296.9
 20
-20.7909
 11
-297.234
 21
-20.5743
  0
LINE
  8
0
 10
-297.234
 20
-20.5743
 11
-297.543
 21
-20.3239
  0
LINE
  8
0
 10
-297.543
 20
-20.3239
 11
-297.824
 21
-20.0427
  0
LINE
  8
0
 10
-297.824
 20
-20.0427
 11
-298.074
 21
-19.7336
  0
LINE
  8
0
 10
-298.074
 20
-19.7336
 11
-298.291
 21
-19.4
  0
LINE
  8
0
 10
-298.291
 20
-19.4
 11
-298.471
 21
-19.0456
  0
LINE
  8
0
 10
-298.471
 20
-19.0456
 11
-298.614
 21
-18.6743
  0
LINE
  8
0
 10
-298.614
 20
-18.6743
 11
-298.717
 21
-18.2901
  0
LINE
  8
0
 10
-298.717
 20
-18.2901
 11
-298.779
 21
-17.8972
  0
LINE
  8
0
 10
-298.779
 20
-17.8972
 11
-298.8
 21
-17.5
  0
LINE
  8
0
 10
-298.8
 20
-17.5
 11
-298.779
 21
-17.1028
  0
LINE
  8
0
 10
-298.779
 20
-17.1028
 11
-298.717
 21
-16.7099
  0
LINE
  8
0
 10
-298.717
 20
-16.7099
 11
-298.614
 21
-16.3257
  0
LINE
  8
0
 10
-298.614
 20
-16.3257
 11
-298.471
 21
-15.9544
  0
LINE
  8
0
 10
-298.471
 20
-15.9544
 11
-298.291
 21
-15.6
  0
LINE
  8
0
 10
-298.291
 20
-15.6
 11
-298.074
 21
-15.2664
  0
LINE
  8
0
 10
-298.074
 20
-15.2664
 11
-297.824
 21
-14.9573
  0
LINE
  8
0
 10
-297.824
 20
-14.9573
 11
-297.543
 21
-14.676
  0
LINE
  8
0
 10
-297.543
 20
-14.676
 11
-297.234
 21
-14.4257
  0
LINE
  8
0
 10
-297.234
 20
-14.4257
 11
-296.9
 21
-14.2091
  0
LINE
  8
0
 10
-296.9
 20
-14.2091
 11
-296.546
 21
-14.0285
  0
LINE
  8
0
 10
-296.546
 20
-14.0285
 11
-296.174
 21
-13.886
  0
LINE
  8
0
 10
-296.174
 20
-13.886
 11
-295.79
 21
-13.783
  0
LINE
  8
0
 10
-295.79
 20
-13.783
 11
-295.397
 21
-13.7208
  0
LINE
  8
0
 10
-295.397
 20
-13.7208
 11
-295
 21
-13.7
  0
LINE
  8
0
 10
-295
 20
-13.7
 11
-294.603
 21
-13.7208
  0
LINE
  8
0
 10
-294.603
 20
-13.7208
 11
-294.21
 21
-13.783
  0
LINE
  8
0
 10
-294.21
 20
-13.783
 11
-293.826
 21
-13.886
  0
LINE
  8
0
 10
-293.826
 20
-13.886
 11
-293.454
 21
-14.0285
  0
LINE
  8
0
 10
-293.454
 20
-14.0285
 11
-293.1
 21
-14.2091
  0
LINE
  8
0
 10
-293.1
 20
-14.2091
 11
-292.766
 21
-14.4257
  0
LINE
  8
0
 10
-292.766
 20
-14.4257
 11
-292.457
 21
-14.676
  0
LINE
  8
0
 10
-292.457
 20
-14.676
 11
-292.176
 21
-14.9573
  0
LINE
  8
0
 10
-292.176
 20
-14.9573
 11
-291.926
 21
-15.2664
  0
LINE
  8
0
 10
-291.926
 20
-15.2664
 11
-291.709
 21
-15.6
  0
LINE
  8
0
 10
-291.709
 20
-15.6
 11
-291.529
 21
-15.9544
  0
LINE
  8
0
 10
-291.529
 20
-15.9544
 11
-291.386
 21
-16.3257
  0
LINE
  8
0
 10
-291.386
 20
-16.3257
 11
-291.283
 21
-16.7099
  0
LINE
  8
0
 10
-291.283
 20
-16.7099
 11
-291.221
 21
-17.1028
  0
LINE
  8
0
 10
-291.221
 20
-17.1028
 11
-291.2
 21
-17.5
  0
LINE
  8
0
 10
-291.2
 20
-17.5
 11
-291.221
 21
-17.8972
  0
LINE
  8
0
 10
-291.221
 20
-17.8972
 11
-291.283
 21
-18.2901
  0
LINE
  8
0
 10
-291.283
 20
-18.2901
 11
-291.386
 21
-18.6743
  0
LINE
  8
0
 10
-291.386
 20
-18.6743
 11
-291.529
 21
-19.0456
  0
LINE
  8
0
 10
-291.529
 20
-19.0456
 11
-291.709
 21
-19.4
  0
LINE
  8
0
 10
-291.709
 20
-19.4
 11
-291.926
 21
-19.7336
  0
LINE
  8
0
 10
-291.926
 20
-19.7336
 11
-292.176
 21
-20.0427
  0
LINE
  8
0
 10
-292.176
 20
-20.0427
 11
-292.457
 21
-20.3239
  0
LINE
  8
0
 10
-292.457
 20
-20.3239
 11
-292.766
 21
-20.5743
  0
LINE
  8
0
 10
-292.766
 20
-20.5743
 11
-293.1
 21
-20.7909
  0
LINE
  8
0
 10
-293.1
 20
-20.7909
 11
-293.454
 21
-20.9715
  0
LINE
  8
0
 10
-293.454
 20
-20.9715
 11
-293.826
 21
-21.114
  0
LINE
  8
0
 10
-293.826
 20
-21.114
 11
-294.21
 21
-21.2169
  0
LINE
  8
0
 10
-294.21
 20
-21.2169
 11
-294.603
 21
-21.2792
  0
LINE
  8
0
 10
-294.603
 20
-21.2792
 11
-295
 21
-21.3
  0
LINE
  8
0
 10
-295
 20
-21.3
 11
-295.397
 21
-21.2792
  0
LINE
  8
0
 10
-295.251
 20
-39.8868
 11
-295.499
 21
-39.8475
  0
LINE
  8
0
 10
-295.499
 20
-39.8475
 11
-295.742
 21
-39.7825
  0
LINE
  8
0
 10
-295.742
 20
-39.7825
 11
-295.976
 21
-39.6925
  0
LINE
  8
0
 10
-295.976
 20
-39.6925
 11
-296.2
 21
-39.5785
  0
LINE
  8
0
 10
-296.2
 20
-39.5785
 11
-296.411
 21
-39.4416
  0
LINE
  8
0
 10
-296.411
 20
-39.4416
 11
-296.606
 21
-39.2835
  0
LINE
  8
0
 10
-296.606
 20
-39.2835
 11
-296.784
 21
-39.1059
  0
LINE
  8
0
 10
-296.784
 20
-39.1059
 11
-296.942
 21
-38.9107
  0
LINE
  8
0
 10
-296.942
 20
-38.9107
 11
-297.078
 21
-38.7
  0
LINE
  8
0
 10
-297.078
 20
-38.7
 11
-297.193
 21
-38.4762
  0
LINE
  8
0
 10
-297.193
 20
-38.4762
 11
-297.283
 21
-38.2416
  0
LINE
  8
0
 10
-297.283
 20
-38.2416
 11
-297.348
 21
-37.999
  0
LINE
  8
0
 10
-297.348
 20
-37.999
 11
-297.387
 21
-37.7509
  0
LINE
  8
0
 10
-297.387
 20
-37.7509
 11
-297.4
 21
-37.5
  0
LINE
  8
0
 10
-297.4
 20
-37.5
 11
-297.387
 21
-37.2491
  0
LINE
  8
0
 10
-297.387
 20
-37.2491
 11
-297.348
 21
-37.001
  0
LINE
  8
0
 10
-297.348
 20
-37.001
 11
-297.283
 21
-36.7583
  0
LINE
  8
0
 10
-297.283
 20
-36.7583
 11
-297.193
 21
-36.5238
  0
LINE
  8
0
 10
-297.193
 20
-36.5238
 11
-297.078
 21
-36.3
  0
LINE
  8
0
 10
-297.078
 20
-36.3
 11
-296.942
 21
-36.0893
  0
LINE
  8
0
 10
-296.942
 20
-36.0893
 11
-296.784
 21
-35.8941
  0
LINE
  8
0
 10
-296.784
 20
-35.8941
 11
-296.606
 21
-35.7164
  0
LINE
  8
0
 10
-296.606
 20
-35.7164
 11
-296.411
 21
-35.5583
  0
LINE
  8
0
 10
-296.411
 20
-35.5583
 11
-296.2
 21
-35.4215
  0
LINE
  8
0
 10
-296.2
 20
-35.4215
 11
-295.976
 21
-35.3075
  0
LINE
  8
0
 10
-295.976
 20
-35.3075
 11
-295.742
 21
-35.2175
  0
LINE
  8
0
 10
-295.742
 20
-35.2175
 11
-295.499
 21
-35.1524
  0
LINE
  8
0
 10
-295.499
 20
-35.1524
 11
-295.251
 21
-35.1131
  0
LINE
  8
0
 10
-295.251
 20
-35.1131
 11
-295
 21
-35.1
  0
LINE
  8
0
 10
-295
 20
-35.1
 11
-294.749
 21
-35.1131
  0
LINE
  8
0
 10
-294.749
 20
-35.1131
 11
-294.501
 21
-35.1524
  0
LINE
  8
0
 10
-294.501
 20
-35.1524
 11
-294.258
 21
-35.2175
  0
LINE
  8
0
 10
-294.258
 20
-35.2175
 11
-294.024
 21
-35.3075
  0
LINE
  8
0
 10
-294.024
 20
-35.3075
 11
-293.8
 21
-35.4215
  0
LINE
  8
0
 10
-293.8
 20
-35.4215
 11
-293.589
 21
-35.5583
  0
LINE
  8
0
 10
-293.589
 20
-35.5583
 11
-293.394
 21
-35.7164
  0
LINE
  8
0
 10
-293.394
 20
-35.7164
 11
-293.216
 21
-35.8941
  0
LINE
  8
0
 10
-293.216
 20
-35.8941
 11
-293.058
 21
-36.0893
  0
LINE
  8
0
 10
-293.058
 20
-36.0893
 11
-292.922
 21
-36.3
  0
LINE
  8
0
 10
-292.922
 20
-36.3
 11
-292.807
 21
-36.5238
  0
LINE
  8
0
 10
-292.807
 20
-36.5238
 11
-292.717
 21
-36.7583
  0
LINE
  8
0
 10
-292.717
 20
-36.7583
 11
-292.652
 21
-37.001
  0
LINE
  8
0
 10
-292.652
 20
-37.001
 11
-292.613
 21
-37.2491
  0
LINE
  8
0
 10
-292.613
 20
-37.2491
 11
-292.6
 21
-37.5
  0
LINE
  8
0
 10
-292.6
 20
-37.5
 11
-292.613
 21
-37.7509
  0
LINE
  8
0
 10
-292.613
 20
-37.7509
 11
-292.652
 21
-37.999
  0
LINE
  8
0
 10
-292.652
 20
-37.999
 11
-292.717
 21
-38.2416
  0
LINE
  8
0
 10
-292.717
 20
-38.2416
 11
-292.807
 21
-38.4762
  0
LINE
  8
0
 10
-292.807
 20
-38.4762
 11
-292.922
 21
-38.7
  0
LINE
  8
0
 10
-292.922
 20
-38.7
 11
-293.058
 21
-38.9107
  0
LINE
  8
0
 10
-293.058
 20
-38.9107
 11
-293.216
 21
-39.1059
  0
LINE
  8
0
 10
-293.216
 20
-39.1059
 11
-293.394
 21
-39.2835
  0
LINE
  8
0
 10
-293.394
 20
-39.2835
 11
-293.589
 21
-39.4416
  0
LINE
  8
0
 10
-293.589
 20
-39.4416
 11
-293.8
 21
-39.5785
  0
LINE
  8
0
 10
-293.8
 20
-39.5785
 11
-294.024
 21
-39.6925
  0
LINE
  8
0
 10
-294.024
 20
-39.6925
 11
-294.258
 21
-39.7825
  0
LINE
  8
0
 10
-294.258
 20
-39.7825
 11
-294.501
 21
-39.8475
  0
LINE
  8
0
 10
-294.501
 20
-39.8475
 11
-294.749
 21
-39.8868
  0
LINE
  8
0
 10
-294.749
 20
-39.8868
 11
-295
 21
-39.9
  0
LINE
  8
0
 10
-295
 20
-39.9
 11
-295.251
 21
-39.8868
  0
LINE
  8
0
 10
294.749
 20
-39.8868
 11
294.501
 21
-39.8475
  0
LINE
  8
0
 10
294.501
 20
-39.8475
 11
294.258
 21
-39.7825
  0
LINE
  8
0
 10
294.258
 20
-39.7825
 11
294.024
 21
-39.6925
  0
LINE
  8
0
 10
294.024
 20
-39.6925
 11
293.8
 21
-39.5785
  0
LINE
  8
0
 10
293.8
 20
-39.5785
 11
293.589
 21
-39.4416
  0
LINE
  8
0
 10
293.589
 20
-39.4416
 11
293.394
 21
-39.2835
  0
LINE
  8
0
 10
293.394
 20
-39.2835
 11
293.216
 21
-39.1059
  0
LINE
  8
0
 10
293.216
 20
-39.1059
 11
293.058
 21
-38.9107
  0
LINE
  8
0
 10
293.058
 20
-38.9107
 11
292.922
 21
-38.7
  0
LINE
  8
0
 10
292.922
 20
-38.7
 11
292.807
 21
-38.4762
  0
LINE
  8
0
 10
292.807
 20
-38.4762
 11
292.717
 21
-38.2416
  0
LINE
  8
0
 10
292.717
 20
-38.2416
 11
292.652
 21
-37.999
  0
LINE
  8
0
 10
292.652
 20
-37.999
 11
292.613
 21
-37.7509
  0
LINE
  8
0
 10
292.613
 20
-37.7509
 11
292.6
 21
-37.5
  0
LINE
  8
0
 10
292.6
 20
-37.5
 11
292.613
 21
-37.2491
  0
LINE
  8
0
 10
292.613
 20
-37.2491
 11
292.652
 21
-37.001
  0
LINE
  8
0
 10
292.652
 20
-37.001
 11
292.717
 21
-36.7583
  0
LINE
  8
0
 10
292.717
 20
-36.7583
 11
292.807
 21
-36.5238
  0
LINE
  8
0
 10
292.807
 20
-36.5238
 11
292.922
 21
-36.3
  0
LINE
  8
0
 10
292.922
 20
-36.3
 11
293.058
 21
-36.0893
  0
LINE
  8
0
 10
293.058
 20
-36.0893
 11
293.216
 21
-35.8941
  0
LINE
  8
0
 10
293.216
 20
-35.8941
 11
293.394
 21
-35.7164
  0
LINE
  8
0
 10
293.394
 20
-35.7164
 11
293.589
 21
-35.5583
  0
LINE
  8
0
 10
293.589
 20
-35.5583
 11
293.8
 21
-35.4215
  0
LINE
  8
0
 10
293.8
 20
-35.4215
 11
294.024
 21
-35.3075
  0
LINE
  8
0
 10
294.024
 20
-35.3075
 11
294.258
 21
-35.2175
  0
LINE
  8
0
 10
294.258
 20
-35.2175
 11
294.501
 21
-35.1524
  0
LINE
  8
0
 10
294.501
 20
-35.1524
 11
294.749
 21
-35.1131
  0
LINE
  8
0
 10
294.749
 20
-35.1131
 11
295
 21
-35.1
  0
LINE
  8
0
 10
295
 20
-35.1
 11
295.251
 21
-35.1131
  0
LINE
  8
0
 10
295.251
 20
-35.1131
 11
295.499
 21
-35.1524
  0
LINE
  8
0
 10
295.499
 20
-35.1524
 11
295.742
 21
-35.2175
  0
LINE
  8
0
 10
295.742
 20
-35.2175
 11
295.976
 21
-35.3075
  0
LINE
  8
0
 10
295.976
 20
-35.3075
 11
296.2
 21
-35.4215
  0
LINE
  8
0
 10
296.2
 20
-35.4215
 11
296.411
 21
-35.5583
  0
LINE
  8
0
 10
296.411
 20
-35.5583
 11
296.606
 21
-35.7164
  0
LINE
  8
0
 10
296.606
 20
-35.7164
 11
296.784
 21
-35.8941
  0
LINE
  8
0
 10
296.784
 20
-35.8941
 11
296.942
 21
-36.0893
  0
LINE
  8
0
 10
296.942
 20
-36.0893
 11
297.078
 21
-36.3
  0
LINE
  8
0
 10
297.078
 20
-36.3
 11
297.193
 21
-36.5238
  0
LINE
  8
0
 10
297.193
 20
-36.5238
 11
297.283
 21
-36.7583
  0
LINE
  8
0
 10
297.283
 20
-36.7583
 11
297.348
 21
-37.001
  0
LINE
  8
0
 10
297.348
 20
-37.001
 11
297.387
 21
-37.2491
  0
LINE
  8
0
 10
297.387
 20
-37.2491
 11
297.4
 21
-37.5
  0
LINE
  8
0
 10
297.4
 20
-37.5
 11
297.387
 21
-37.7509
  0
LINE
  8
0
 10
297.387
 20
-37.7509
 11
297.348
 21
-37.999
  0
LINE
  8
0
 10
297.348
 20
-37.999
 11
297.283
 21
-38.2416
  0
LINE
  8
0
 10
297.283
 20
-38.2416
 11
297.193
 21
-38.4762
  0
LINE
  8
0
 10
297.193
 20
-38.4762
 11
297.078
 21
-38.7
  0
LINE
  8
0
 10
297.078
 20
-38.7
 11
296.942
 21
-38.9107
  0
LINE
  8
0
 10
296.942
 20
-38.9107
 11
296.784
 21
-39.1059
  0
LINE
  8
0
 10
296.784
 20
-39.1059
 11
296.606
 21
-39.2835
  0
LINE
  8
0
 10
296.606
 20
-39.2835
 11
296.411
 21
-39.4416
  0
LINE
  8
0
 10
296.411
 20
-39.4416
 11
296.2
 21
-39.5785
  0
LINE
  8
0
 10
296.2
 20
-39.5785
 11
295.976
 21
-39.6925
  0
LINE
  8
0
 10
295.976
 20
-39.6925
 11
295.742
 21
-39.7825
  0
LINE
  8
0
 10
295.742
 20
-39.7825
 11
295.499
 21
-39.8475
  0
LINE
  8
0
 10
295.499
 20
-39.8475
 11
295.251
 21
-39.8868
  0
LINE
  8
0
 10
295.251
 20
-39.8868
 11
295
 21
-39.9
  0
LINE
  8
0
 10
295
 20
-39.9
 11
294.749
 21
-39.8868
  0
LINE
  8
0
 10
294.816
 20
-58.9382
 11
294.575
 21
-58.8864
  0
LINE
  8
0
 10
294.575
 20
-58.8864
 11
294.347
 21
-58.7947
  0
LINE
  8
0
 10
294.347
 20
-58.7947
 11
294.138
 21
-58.6658
  0
LINE
  8
0
 10
294.138
 20
-58.6658
 11
293.953
 21
-58.5033
  0
LINE
  8
0
 10
293.953
 20
-58.5033
 11
293.799
 21
-58.312
  0
LINE
  8
0
 10
293.799
 20
-58.312
 11
293.679
 21
-58.0972
  0
LINE
  8
0
 10
293.679
 20
-58.0972
 11
293.597
 21
-57.8654
  0
LINE
  8
0
 10
293.597
 20
-57.8654
 11
293.555
 21
-57.623
  0
LINE
  8
0
 10
293.555
 20
-57.623
 11
293.555
 21
-57.377
  0
LINE
  8
0
 10
293.555
 20
-57.377
 11
293.597
 21
-57.1346
  0
LINE
  8
0
 10
293.597
 20
-57.1346
 11
293.679
 21
-56.9027
  0
LINE
  8
0
 10
293.679
 20
-56.9027
 11
293.799
 21
-56.688
  0
LINE
  8
0
 10
293.799
 20
-56.688
 11
293.953
 21
-56.4967
  0
LINE
  8
0
 10
293.953
 20
-56.4967
 11
294.138
 21
-56.3342
  0
LINE
  8
0
 10
294.138
 20
-56.3342
 11
294.347
 21
-56.2052
  0
LINE
  8
0
 10
294.347
 20
-56.2052
 11
294.575
 21
-56.1136
  0
LINE
  8
0
 10
294.575
 20
-56.1136
 11
294.816
 21
-56.0617
  0
LINE
  8
0
 10
294.816
 20
-56.0617
 11
295.062
 21
-56.0513
  0
LINE
  8
0
 10
295.062
 20
-56.0513
 11
295.305
 21
-56.0825
  0
LINE
  8
0
 10
295.305
 20
-56.0825
 11
295.541
 21
-56.1546
  0
LINE
  8
0
 10
295.541
 20
-56.1546
 11
295.76
 21
-56.2653
  0
LINE
  8
0
 10
295.76
 20
-56.2653
 11
295.958
 21
-56.4115
  0
LINE
  8
0
 10
295.958
 20
-56.4115
 11
296.128
 21
-56.5891
  0
LINE
  8
0
 10
296.128
 20
-56.5891
 11
296.266
 21
-56.7928
  0
LINE
  8
0
 10
296.266
 20
-56.7928
 11
296.367
 21
-57.0169
  0
LINE
  8
0
 10
296.367
 20
-57.0169
 11
296.429
 21
-57.2549
  0
LINE
  8
0
 10
296.429
 20
-57.2549
 11
296.45
 21
-57.5
  0
LINE
  8
0
 10
296.45
 20
-57.5
 11
296.429
 21
-57.745
  0
LINE
  8
0
 10
296.429
 20
-57.745
 11
296.367
 21
-57.983
  0
LINE
  8
0
 10
296.367
 20
-57.983
 11
296.266
 21
-58.2072
  0
LINE
  8
0
 10
296.266
 20
-58.2072
 11
296.128
 21
-58.4109
  0
LINE
  8
0
 10
296.128
 20
-58.4109
 11
295.958
 21
-58.5885
  0
LINE
  8
0
 10
295.958
 20
-58.5885
 11
295.76
 21
-58.7347
  0
LINE
  8
0
 10
295.76
 20
-58.7347
 11
295.541
 21
-58.8454
  0
LINE
  8
0
 10
295.541
 20
-58.8454
 11
295.305
 21
-58.9174
  0
LINE
  8
0
 10
295.305
 20
-58.9174
 11
295.062
 21
-58.9487
  0
LINE
  8
0
 10
295.062
 20
-58.9487
 11
294.816
 21
-58.9382
  0
LINE
  8
0
 10
-295.305
 20
-58.9174
 11
-295.541
 21
-58.8454
  0
LINE
  8
0
 10
-295.541
 20
-58.8454
 11
-295.76
 21
-58.7347
  0
LINE
  8
0
 10
-295.76
 20
-58.7347
 11
-295.958
 21
-58.5885
  0
LINE
  8
0
 10
-295.958
 20
-58.5885
 11
-296.128
 21
-58.4109
  0
LINE
  8
0
 10
-296.128
 20
-58.4109
 11
-296.266
 21
-58.2072
  0
LINE
  8
0
 10
-296.266
 20
-58.2072
 11
-296.367
 21
-57.983
  0
LINE
  8
0
 10
-296.367
 20
-57.983
 11
-296.429
 21
-57.745
  0
LINE
  8
0
 10
-296.429
 20
-57.745
 11
-296.45
 21
-57.5
  0
LINE
  8
0
 10
-296.45
 20
-57.5
 11
-296.429
 21
-57.2549
  0
LINE
  8
0
 10
-296.429
 20
-57.2549
 11
-296.367
 21
-57.0169
  0
LINE
  8
0
 10
-296.367
 20
-57.0169
 11
-296.266
 21
-56.7928
  0
LINE
  8
0
 10
-296.266
 20
-56.7928
 11
-296.128
 21
-56.5891
  0
LINE
  8
0
 10
-296.128
 20
-56.5891
 11
-295.958
 21
-56.4115
  0
LINE
  8
0
 10
-295.958
 20
-56.4115
 11
-295.76
 21
-56.2653
  0
LINE
  8
0
 10
-295.76
 20
-56.2653
 11
-295.541
 21
-56.1546
  0
LINE
  8
0
 10
-295.541
 20
-56.1546
 11
-295.305
 21
-56.0825
  0
LINE
  8
0
 10
-295.305
 20
-56.0825
 11
-295.062
 21
-56.0513
  0
LINE
  8
0
 10
-295.062
 20
-56.0513
 11
-294.816
 21
-56.0617
  0
LINE
  8
0
 10
-294.816
 20
-56.0617
 11
-294.575
 21
-56.1136
  0
LINE
  8
0
 10
-294.575
 20
-56.1136
 11
-294.347
 21
-56.2052
  0
LINE
  8
0
 10
-294.347
 20
-56.2052
 11
-294.138
 21
-56.3342
  0
LINE
  8
0
 10
-294.138
 20
-56.3342
 11
-293.953
 21
-56.4967
  0
LINE
  8
0
 10
-293.953
 20
-56.4967
 11
-293.799
 21
-56.688
  0
LINE
  8
0
 10
-293.799
 20
-56.688
 11
-293.679
 21
-56.9027
  0
LINE
  8
0
 10
-293.679
 20
-56.9027
 11
-293.597
 21
-57.1346
  0
LINE
  8
0
 10
-293.597
 20
-57.1346
 11
-293.555
 21
-57.377
  0
LINE
  8
0
 10
-293.555
 20
-57.377
 11
-293.555
 21
-57.623
  0
LINE
  8
0
 10
-293.555
 20
-57.623
 11
-293.597
 21
-57.8654
  0
LINE
  8
0
 10
-293.597
 20
-57.8654
 11
-293.679
 21
-58.0972
  0
LINE
  8
0
 10
-293.679
 20
-58.0972
 11
-293.799
 21
-58.312
  0
LINE
  8
0
 10
-293.799
 20
-58.312
 11
-293.953
 21
-58.5033
  0
LINE
  8
0
 10
-293.953
 20
-58.5033
 11
-294.138
 21
-58.6658
  0
LINE
  8
0
 10
-294.138
 20
-58.6658
 11
-294.347
 21
-58.7947
  0
LINE
  8
0
 10
-294.347
 20
-58.7947
 11
-294.575
 21
-58.8864
  0
LINE
  8
0
 10
-294.575
 20
-58.8864
 11
-294.816
 21
-58.9382
  0
LINE
  8
0
 10
-294.816
 20
-58.9382
 11
-295.062
 21
-58.9487
  0
LINE
  8
0
 10
-295.062
 20
-58.9487
 11
-295.305
 21
-58.9174
  0
LINE
  8
0
 10
237.251
 20
-171.732
 11
237.007
 21
-171.679
  0
LINE
  8
0
 10
237.007
 20
-171.679
 11
236.773
 21
-171.592
  0
LINE
  8
0
 10
236.773
 20
-171.592
 11
236.554
 21
-171.472
  0
LINE
  8
0
 10
236.554
 20
-171.472
 11
236.354
 21
-171.323
  0
LINE
  8
0
 10
236.354
 20
-171.323
 11
236.177
 21
-171.146
  0
LINE
  8
0
 10
236.177
 20
-171.146
 11
236.028
 21
-170.946
  0
LINE
  8
0
 10
236.028
 20
-170.946
 11
235.908
 21
-170.727
  0
LINE
  8
0
 10
235.908
 20
-170.727
 11
235.821
 21
-170.493
  0
LINE
  8
0
 10
235.821
 20
-170.493
 11
235.768
 21
-170.249
  0
LINE
  8
0
 10
235.768
 20
-170.249
 11
235.75
 21
-170
  0
LINE
  8
0
 10
235.75
 20
-170
 11
235.75
 21
-61.6667
  0
LINE
  8
0
 10
235.75
 20
-61.6667
 11
235.768
 21
-61.4176
  0
LINE
  8
0
 10
235.768
 20
-61.4176
 11
235.821
 21
-61.1736
  0
LINE
  8
0
 10
235.821
 20
-61.1736
 11
235.908
 21
-60.9397
  0
LINE
  8
0
 10
235.908
 20
-60.9397
 11
236.028
 21
-60.7205
  0
LINE
  8
0
 10
236.028
 20
-60.7205
 11
236.177
 21
-60.5207
  0
LINE
  8
0
 10
236.177
 20
-60.5207
 11
236.354
 21
-60.3441
  0
LINE
  8
0
 10
236.354
 20
-60.3441
 11
236.554
 21
-60.1945
  0
LINE
  8
0
 10
236.554
 20
-60.1945
 11
236.773
 21
-60.0748
  0
LINE
  8
0
 10
236.773
 20
-60.0748
 11
237.007
 21
-59.9875
  0
LINE
  8
0
 10
237.007
 20
-59.9875
 11
237.251
 21
-59.9345
  0
LINE
  8
0
 10
237.251
 20
-59.9345
 11
237.5
 21
-59.9167
  0
LINE
  8
0
 10
237.5
 20
-59.9167
 11
237.749
 21
-59.9345
  0
LINE
  8
0
 10
237.749
 20
-59.9345
 11
237.993
 21
-59.9875
  0
LINE
  8
0
 10
237.993
 20
-59.9875
 11
238.227
 21
-60.0748
  0
LINE
  8
0
 10
238.227
 20
-60.0748
 11
238.446
 21
-60.1945
  0
LINE
  8
0
 10
238.446
 20
-60.1945
 11
238.646
 21
-60.3441
  0
LINE
  8
0
 10
238.646
 20
-60.3441
 11
238.823
 21
-60.5207
  0
LINE
  8
0
 10
238.823
 20
-60.5207
 11
238.972
 21
-60.7205
  0
LINE
  8
0
 10
238.972
 20
-60.7205
 11
239.092
 21
-60.9397
  0
LINE
  8
0
 10
239.092
 20
-60.9397
 11
239.179
 21
-61.1736
  0
LINE
  8
0
 10
239.179
 20
-61.1736
 11
239.232
 21
-61.4176
  0
LINE
  8
0
 10
239.232
 20
-61.4176
 11
239.25
 21
-61.6667
  0
LINE
  8
0
 10
239.25
 20
-61.6667
 11
239.25
 21
-170
  0
LINE
  8
0
 10
239.25
 20
-170
 11
239.232
 21
-170.249
  0
LINE
  8
0
 10
239.232
 20
-170.249
 11
239.179
 21
-170.493
  0
LINE
  8
0
 10
239.179
 20
-170.493
 11
239.092
 21
-170.727
  0
LINE
  8
0
 10
239.092
 20
-170.727
 11
238.972
 21
-170.946
  0
LINE
  8
0
 10
238.972
 20
-170.946
 11
238.823
 21
-171.146
  0
LINE
  8
0
 10
238.823
 20
-171.146
 11
238.646
 21
-171.323
  0
LINE
  8
0
 10
238.646
 20
-171.323
 11
238.446
 21
-171.472
  0
LINE
  8
0
 10
238.446
 20
-171.472
 11
238.227
 21
-171.592
  0
LINE
  8
0
 10
238.227
 20
-171.592
 11
237.993
 21
-171.679
  0
LINE
  8
0
 10
237.993
 20
-171.679
 11
237.749
 21
-171.732
  0
LINE
  8
0
 10
237.749
 20
-171.732
 11
237.5
 21
-171.75
  0
LINE
  8
0
 10
237.5
 20
-171.75
 11
237.251
 21
-171.732
  0
LINE
  8
0
 10
-237.749
 20
-171.732
 11
-237.993
 21
-171.679
  0
LINE
  8
0
 10
-237.993
 20
-171.679
 11
-238.227
 21
-171.592
  0
LINE
  8
0
 10
-238.227
 20
-171.592
 11
-238.446
 21
-171.472
  0
LINE
  8
0
 10
-238.446
 20
-171.472
 11
-238.646
 21
-171.323
  0
LINE
  8
0
 10
-238.646
 20
-171.323
 11
-238.823
 21
-171.146
  0
LINE
  8
0
 10
-238.823
 20
-171.146
 11
-238.972
 21
-170.946
  0
LINE
  8
0
 10
-238.972
 20
-170.946
 11
-239.092
 21
-170.727
  0
LINE
  8
0
 10
-239.092
 20
-170.727
 11
-239.179
 21
-170.493
  0
LINE
  8
0
 10
-239.179
 20
-170.493
 11
-239.232
 21
-170.249
  0
LINE
  8
0
 10
-239.232
 20
-170.249
 11
-239.25
 21
-170
  0
LINE
  8
0
 10
-239.25
 20
-170
 11
-239.25
 21
-61.6667
  0
LINE
  8
0
 10
-239.25
 20
-61.6667
 11
-239.232
 21
-61.4176
  0
LINE
  8
0
 10
-239.232
 20
-61.4176
 11
-239.179
 21
-61.1736
  0
LINE
  8
0
 10
-239.179
 20
-61.1736
 11
-239.092
 21
-60.9397
  0
LINE
  8
0
 10
-239.092
 20
-60.9397
 11
-238.972
 21
-60.7205
  0
LINE
  8
0
 10
-238.972
 20
-60.7205
 11
-238.823
 21
-60.5207
  0
LINE
  8
0
 10
-238.823
 20
-60.5207
 11
-238.646
 21
-60.3441
  0
LINE
  8
0
 10
-238.646
 20
-60.3441
 11
-238.446
 21
-60.1945
  0
LINE
  8
0
 10
-238.446
 20
-60.1945
 11
-238.227
 21
-60.0748
  0
LINE
  8
0
 10
-238.227
 20
-60.0748
 11
-237.993
 21
-59.9875
  0
LINE
  8
0
 10
-237.993
 20
-59.9875
 11
-237.749
 21
-59.9345
  0
LINE
  8
0
 10
-237.749
 20
-59.9345
 11
-237.5
 21
-59.9167
  0
LINE
  8
0
 10
-237.5
 20
-59.9167
 11
-237.251
 21
-59.9345
  0
LINE
  8
0
 10
-237.251
 20
-59.9345
 11
-237.007
 21
-59.9875
  0
LINE
  8
0
 10
-237.007
 20
-59.9875
 11
-236.773
 21
-60.0748
  0
LINE
  8
0
 10
-236.773
 20
-60.0748
 11
-236.554
 21
-60.1945
  0
LINE
  8
0
 10
-236.554
 20
-60.1945
 11
-236.354
 21
-60.3441
  0
LINE
  8
0
 10
-236.354
 20
-60.3441
 11
-236.177
 21
-60.5207
  0
LINE
  8
0
 10
-236.177
 20
-60.5207
 11
-236.028
 21
-60.7205
  0
LINE
  8
0
 10
-236.028
 20
-60.7205
 11
-235.908
 21
-60.9397
  0
LINE
  8
0
 10
-235.908
 20
-60.9397
 11
-235.821
 21
-61.1736
  0
LINE
  8
0
 10
-235.821
 20
-61.1736
 11
-235.768
 21
-61.4176
  0
LINE
  8
0
 10
-235.768
 20
-61.4176
 11
-235.75
 21
-61.6667
  0
LINE
  8
0
 10
-235.75
 20
-61.6667
 11
-235.75
 21
-170
  0
LINE
  8
0
 10
-235.75
 20
-170
 11
-235.768
 21
-170.249
  0
LINE
  8
0
 10
-235.768
 20
-170.249
 11
-235.821
 21
-170.493
  0
LINE
  8
0
 10
-235.821
 20
-170.493
 11
-235.908
 21
-170.727
  0
LINE
  8
0
 10
-235.908
 20
-170.727
 11
-236.028
 21
-170.946
  0
LINE
  8
0
 10
-236.028
 20
-170.946
 11
-236.177
 21
-171.146
  0
LINE
  8
0
 10
-236.177
 20
-171.146
 11
-236.354
 21
-171.323
  0
LINE
  8
0
 10
-236.354
 20
-171.323
 11
-236.554
 21
-171.472
  0
LINE
  8
0
 10
-236.554
 20
-171.472
 11
-236.773
 21
-171.592
  0
LINE
  8
0
 10
-236.773
 20
-171.592
 11
-237.007
 21
-171.679
  0
LINE
  8
0
 10
-237.007
 20
-171.679
 11
-237.251
 21
-171.732
  0
LINE
  8
0
 10
-237.251
 20
-171.732
 11
-237.5
 21
-171.75
  0
LINE
  8
0
 10
-237.5
 20
-171.75
 11
-237.749
 21
-171.732
  0
LINE
  8
0
 10
263.377
 20
-191.645
 11
263.133
 21
-191.609
  0
LINE
  8
0
 10
263.133
 20
-191.609
 11
262.897
 21
-191.536
  0
LINE
  8
0
 10
262.897
 20
-191.536
 11
262.675
 21
-191.429
  0
LINE
  8
0
 10
262.675
 20
-191.429
 11
262.471
 21
-191.29
  0
LINE
  8
0
 10
262.471
 20
-191.29
 11
262.29
 21
-191.122
  0
LINE
  8
0
 10
262.29
 20
-191.122
 11
262.137
 21
-190.929
  0
LINE
  8
0
 10
262.137
 20
-190.929
 11
262.013
 21
-190.716
  0
LINE
  8
0
 10
262.013
 20
-190.716
 11
261.923
 21
-190.486
  0
LINE
  8
0
 10
261.923
 20
-190.486
 11
261.868
 21
-190.246
  0
LINE
  8
0
 10
261.868
 20
-190.246
 11
261.85
 21
-190
  0
LINE
  8
0
 10
261.85
 20
-190
 11
261.868
 21
-189.754
  0
LINE
  8
0
 10
261.868
 20
-189.754
 11
261.923
 21
-189.514
  0
LINE
  8
0
 10
261.923
 20
-189.514
 11
262.013
 21
-189.284
  0
LINE
  8
0
 10
262.013
 20
-189.284
 11
262.137
 21
-189.071
  0
LINE
  8
0
 10
262.137
 20
-189.071
 11
262.29
 21
-188.878
  0
LINE
  8
0
 10
262.29
 20
-188.878
 11
262.471
 21
-188.71
  0
LINE
  8
0
 10
262.471
 20
-188.71
 11
262.675
 21
-188.571
  0
LINE
  8
0
 10
262.675
 20
-188.571
 11
262.897
 21
-188.464
  0
LINE
  8
0
 10
262.897
 20
-188.464
 11
263.133
 21
-188.391
  0
LINE
  8
0
 10
263.133
 20
-188.391
 11
263.377
 21
-188.355
  0
LINE
  8
0
 10
263.377
 20
-188.355
 11
271.623
 21
-188.355
  0
LINE
  8
0
 10
271.623
 20
-188.355
 11
271.867
 21
-188.391
  0
LINE
  8
0
 10
271.867
 20
-188.391
 11
272.103
 21
-188.464
  0
LINE
  8
0
 10
272.103
 20
-188.464
 11
272.325
 21
-188.571
  0
LINE
  8
0
 10
272.325
 20
-188.571
 11
272.529
 21
-188.71
  0
LINE
  8
0
 10
272.529
 20
-188.71
 11
272.71
 21
-188.878
  0
LINE
  8
0
 10
272.71
 20
-188.878
 11
272.863
 21
-189.071
  0
LINE
  8
0
 10
272.863
 20
-189.071
 11
272.987
 21
-189.284
  0
LINE
  8
0
 10
272.987
 20
-189.284
 11
273.077
 21
-189.514
  0
LINE
  8
0
 10
273.077
 20
-189.514
 11
273.132
 21
-189.754
  0
LINE
  8
0
 10
273.132
 20
-189.754
 11
273.15
 21
-190
  0
LINE
  8
0
 10
273.15
 20
-190
 11
273.132
 21
-190.246
  0
LINE
  8
0
 10
273.132
 20
-190.246
 11
273.077
 21
-190.486
  0
LINE
  8
0
 10
273.077
 20
-190.486
 11
272.987
 21
-190.716
  0
LINE
  8
0
 10
272.987
 20
-190.716
 11
272.863
 21
-190.929
  0
LINE
  8
0
 10
272.863
 20
-190.929
 11
272.71
 21
-191.122
  0
LINE
  8
0
 10
272.71
 20
-191.122
 11
272.529
 21
-191.29
  0
LINE
  8
0
 10
272.529
 20
-191.29
 11
272.325
 21
-191.429
  0
LINE
  8
0
 10
272.325
 20
-191.429
 11
272.103
 21
-191.536
  0
LINE
  8
0
 10
272.103
 20
-191.536
 11
271.867
 21
-191.609
  0
LINE
  8
0
 10
271.867
 20
-191.609
 11
271.623
 21
-191.645
  0
LINE
  8
0
 10
271.623
 20
-191.645
 11
263.377
 21
-191.645
  0
LINE
  8
0
 10
294.377
 20
-191.645
 11
294.133
 21
-191.609
  0
LINE
  8
0
 10
294.133
 20
-191.609
 11
293.897
 21
-191.536
  0
LINE
  8
0
 10
293.897
 20
-191.536
 11
293.675
 21
-191.429
  0
LINE
  8
0
 10
293.675
 20
-191.429
 11
293.471
 21
-191.29
  0
LINE
  8
0
 10
293.471
 20
-191.29
 11
293.29
 21
-191.122
  0
LINE
  8
0
 10
293.29
 20
-191.122
 11
293.137
 21
-190.929
  0
LINE
  8
0
 10
293.137
 20
-190.929
 11
293.013
 21
-190.716
  0
LINE
  8
0
 10
293.013
 20
-190.716
 11
292.923
 21
-190.486
  0
LINE
  8
0
 10
292.923
 20
-190.486
 11
292.868
 21
-190.246
  0
LINE
  8
0
 10
292.868
 20
-190.246
 11
292.85
 21
-190
  0
LINE
  8
0
 10
292.85
 20
-190
 11
292.868
 21
-189.754
  0
LINE
  8
0
 10
292.868
 20
-189.754
 11
292.923
 21
-189.514
  0
LINE
  8
0
 10
292.923
 20
-189.514
 11
293.013
 21
-189.284
  0
LINE
  8
0
 10
293.013
 20
-189.284
 11
293.137
 21
-189.071
  0
LINE
  8
0
 10
293.137
 20
-189.071
 11
293.29
 21
-188.878
  0
LINE
  8
0
 10
293.29
 20
-188.878
 11
293.471
 21
-188.71
  0
LINE
  8
0
 10
293.471
 20
-188.71
 11
293.675
 21
-188.571
  0
LINE
  8
0
 10
293.675
 20
-188.571
 11
293.897
 21
-188.464
  0
LINE
  8
0
 10
293.897
 20
-188.464
 11
294.133
 21
-188.391
  0
LINE
  8
0
 10
294.133
 20
-188.391
 11
294.377
 21
-188.355
  0
LINE
  8
0
 10
294.377
 20
-188.355
 11
302.623
 21
-188.355
  0
LINE
  8
0
 10
302.623
 20
-188.355
 11
302.867
 21
-188.391
  0
LINE
  8
0
 10
302.867
 20
-188.391
 11
303.103
 21
-188.464
  0
LINE
  8
0
 10
303.103
 20
-188.464
 11
303.325
 21
-188.571
  0
LINE
  8
0
 10
303.325
 20
-188.571
 11
303.529
 21
-188.71
  0
LINE
  8
0
 10
303.529
 20
-188.71
 11
303.71
 21
-188.878
  0
LINE
  8
0
 10
303.71
 20
-188.878
 11
303.863
 21
-189.071
  0
LINE
  8
0
 10
303.863
 20
-189.071
 11
303.987
 21
-189.284
  0
LINE
  8
0
 10
303.987
 20
-189.284
 11
304.077
 21
-189.514
  0
LINE
  8
0
 10
304.077
 20
-189.514
 11
304.132
 21
-189.754
  0
LINE
  8
0
 10
304.132
 20
-189.754
 11
304.15
 21
-190
  0
LINE
  8
0
 10
304.15
 20
-190
 11
304.132
 21
-190.246
  0
LINE
  8
0
 10
304.132
 20
-190.246
 11
304.077
 21
-190.486
  0
LINE
  8
0
 10
304.077
 20
-190.486
 11
303.987
 21
-190.716
  0
LINE
  8
0
 10
303.987
 20
-190.716
 11
303.863
 21
-190.929
  0
LINE
  8
0
 10
303.863
 20
-190.929
 11
303.71
 21
-191.122
  0
LINE
  8
0
 10
303.71
 20
-191.122
 11
303.529
 21
-191.29
  0
LINE
  8
0
 10
303.529
 20
-191.29
 11
303.325
 21
-191.429
  0
LINE
  8
0
 10
303.325
 20
-191.429
 11
303.103
 21
-191.536
  0
LINE
  8
0
 10
303.103
 20
-191.536
 11
302.867
 21
-191.609
  0
LINE
  8
0
 10
302.867
 20
-191.609
 11
302.623
 21
-191.645
  0
LINE
  8
0
 10
302.623
 20
-191.645
 11
294.377
 21
-191.645
  0
LINE
  8
0
 10
278.5
 20
-218
 11
277.193
 21
-217.932
  0
LINE
  8
0
 10
277.193
 20
-217.932
 11
275.901
 21
-217.727
  0
LINE
  8
0
 10
275.901
 20
-217.727
 11
274.637
 21
-217.388
  0
LINE
  8
0
 10
274.637
 20
-217.388
 11
273.416
 21
-216.919
  0
LINE
  8
0
 10
273.416
 20
-216.919
 11
272.25
 21
-216.325
  0
LINE
  8
0
 10
272.25
 20
-216.325
 11
271.153
 21
-215.613
  0
LINE
  8
0
 10
271.153
 20
-215.613
 11
270.136
 21
-214.789
  0
LINE
  8
0
 10
270.136
 20
-214.789
 11
269.211
 21
-213.864
  0
LINE
  8
0
 10
269.211
 20
-213.864
 11
268.387
 21
-212.847
  0
LINE
  8
0
 10
268.387
 20
-212.847
 11
267.675
 21
-211.75
  0
LINE
  8
0
 10
267.675
 20
-211.75
 11
267.081
 21
-210.584
  0
LINE
  8
0
 10
267.081
 20
-210.584
 11
266.612
 21
-209.363
  0
LINE
  8
0
 10
266.612
 20
-209.363
 11
266.273
 21
-208.099
  0
LINE
  8
0
 10
266.273
 20
-208.099
 11
266.068
 21
-206.807
  0
LINE
  8
0
 10
266.068
 20
-206.807
 11
266
 21
-205.5
  0
LINE
  8
0
 10
266
 20
-205.5
 11
266.068
 21
-204.193
  0
LINE
  8
0
 10
266.068
 20
-204.193
 11
266.273
 21
-202.901
  0
LINE
  8
0
 10
266.273
 20
-202.901
 11
266.612
 21
-201.637
  0
LINE
  8
0
 10
266.612
 20
-201.637
 11
267.081
 21
-200.416
  0
LINE
  8
0
 10
267.081
 20
-200.416
 11
267.675
 21
-199.25
  0
LINE
  8
0
 10
267.675
 20
-199.25
 11
268.387
 21
-198.153
  0
LINE
  8
0
 10
268.387
 20
-198.153
 11
269.211
 21
-197.136
  0
LINE
  8
0
 10
269.211
 20
-197.136
 11
270.136
 21
-196.211
  0
LINE
  8
0
 10
270.136
 20
-196.211
 11
271.153
 21
-195.387
  0
LINE
  8
0
 10
271.153
 20
-195.387
 11
272.25
 21
-194.675
  0
LINE
  8
0
 10
272.25
 20
-194.675
 11
273.416
 21
-194.081
  0
LINE
  8
0
 10
273.416
 20
-194.081
 11
274.637
 21
-193.612
  0
LINE
  8
0
 10
274.637
 20
-193.612
 11
275.901
 21
-193.273
  0
LINE
  8
0
 10
275.901
 20
-193.273
 11
277.193
 21
-193.068
  0
LINE
  8
0
 10
277.193
 20
-193.068
 11
278.5
 21
-193
  0
LINE
  8
0
 10
278.5
 20
-193
 11
286.5
 21
-193
  0
LINE
  8
0
 10
286.5
 20
-193
 11
287.807
 21
-193.068
  0
LINE
  8
0
 10
287.807
 20
-193.068
 11
289.099
 21
-193.273
  0
LINE
  8
0
 10
289.099
 20
-193.273
 11
290.363
 21
-193.612
  0
LINE
  8
0
 10
290.363
 20
-193.612
 11
291.584
 21
-194.081
  0
LINE
  8
0
 10
291.584
 20
-194.081
 11
292.75
 21
-194.675
  0
LINE
  8
0
 10
292.75
 20
-194.675
 11
293.847
 21
-195.387
  0
LINE
  8
0
 10
293.847
 20
-195.387
 11
294.864
 21
-196.211
  0
LINE
  8
0
 10
294.864
 20
-196.211
 11
295.789
 21
-197.136
  0
LINE
  8
0
 10
295.789
 20
-197.136
 11
296.613
 21
-198.153
  0
LINE
  8
0
 10
296.613
 20
-198.153
 11
297.325
 21
-199.25
  0
LINE
  8
0
 10
297.325
 20
-199.25
 11
297.919
 21
-200.416
  0
LINE
  8
0
 10
297.919
 20
-200.416
 11
298.388
 21
-201.637
  0
LINE
  8
0
 10
298.388
 20
-201.637
 11
298.727
 21
-202.901
  0
LINE
  8
0
 10
298.727
 20
-202.901
 11
298.932
 21
-204.193
  0
LINE
  8
0
 10
298.932
 20
-204.193
 11
299
 21
-205.5
  0
LINE
  8
0
 10
299
 20
-205.5
 11
298.932
 21
-206.807
  0
LINE
  8
0
 10
298.932
 20
-206.807
 11
298.727
 21
-208.099
  0
LINE
  8
0
 10
298.727
 20
-208.099
 11
298.388
 21
-209.363
  0
LINE
  8
0
 10
298.388
 20
-209.363
 11
297.919
 21
-210.584
  0
LINE
  8
0
 10
297.919
 20
-210.584
 11
297.325
 21
-211.75
  0
LINE
  8
0
 10
297.325
 20
-211.75
 11
296.613
 21
-212.847
  0
LINE
  8
0
 10
296.613
 20
-212.847
 11
295.789
 21
-213.864
  0
LINE
  8
0
 10
295.789
 20
-213.864
 11
294.864
 21
-214.789
  0
LINE
  8
0
 10
294.864
 20
-214.789
 11
293.847
 21
-215.613
  0
LINE
  8
0
 10
293.847
 20
-215.613
 11
292.75
 21
-216.325
  0
LINE
  8
0
 10
292.75
 20
-216.325
 11
291.584
 21
-216.919
  0
LINE
  8
0
 10
291.584
 20
-216.919
 11
290.363
 21
-217.388
  0
LINE
  8
0
 10
290.363
 20
-217.388
 11
289.099
 21
-217.727
  0
LINE
  8
0
 10
289.099
 20
-217.727
 11
287.807
 21
-217.932
  0
LINE
  8
0
 10
287.807
 20
-217.932
 11
286.5
 21
-218
  0
LINE
  8
0
 10
286.5
 20
-218
 11
278.5
 21
-218
  0
LINE
  8
0
 10
-264.744
 20
-195.726
 11
-264.978
 21
-195.655
  0
LINE
  8
0
 10
-264.978
 20
-195.655
 11
-265.194
 21
-195.539
  0
LINE
  8
0
 10
-265.194
 20
-195.539
 11
-265.384
 21
-195.384
  0
LINE
  8
0
 10
-265.384
 20
-195.384
 11
-265.539
 21
-195.194
  0
LINE
  8
0
 10
-265.539
 20
-195.194
 11
-265.655
 21
-194.978
  0
LINE
  8
0
 10
-265.655
 20
-194.978
 11
-265.726
 21
-194.744
  0
LINE
  8
0
 10
-265.726
 20
-194.744
 11
-265.75
 21
-194.5
  0
LINE
  8
0
 10
-265.75
 20
-194.5
 11
-265.726
 21
-194.256
  0
LINE
  8
0
 10
-265.726
 20
-194.256
 11
-265.655
 21
-194.022
  0
LINE
  8
0
 10
-265.655
 20
-194.022
 11
-265.539
 21
-193.806
  0
LINE
  8
0
 10
-265.539
 20
-193.806
 11
-265.384
 21
-193.616
  0
LINE
  8
0
 10
-265.384
 20
-193.616
 11
-265.194
 21
-193.461
  0
LINE
  8
0
 10
-265.194
 20
-193.461
 11
-264.978
 21
-193.345
  0
LINE
  8
0
 10
-264.978
 20
-193.345
 11
-264.744
 21
-193.274
  0
LINE
  8
0
 10
-264.744
 20
-193.274
 11
-264.5
 21
-193.25
  0
LINE
  8
0
 10
-264.5
 20
-193.25
 11
-264.256
 21
-193.274
  0
LINE
  8
0
 10
-264.256
 20
-193.274
 11
-264.022
 21
-193.345
  0
LINE
  8
0
 10
-264.022
 20
-193.345
 11
-263.806
 21
-193.461
  0
LINE
  8
0
 10
-263.806
 20
-193.461
 11
-263.616
 21
-193.616
  0
LINE
  8
0
 10
-263.616
 20
-193.616
 11
-263.461
 21
-193.806
  0
LINE
  8
0
 10
-263.461
 20
-193.806
 11
-263.345
 21
-194.022
  0
LINE
  8
0
 10
-263.345
 20
-194.022
 11
-263.274
 21
-194.256
  0
LINE
  8
0
 10
-263.274
 20
-194.256
 11
-263.25
 21
-194.5
  0
LINE
  8
0
 10
-263.25
 20
-194.5
 11
-263.274
 21
-194.744
  0
LINE
  8
0
 10
-263.274
 20
-194.744
 11
-263.345
 21
-194.978
  0
LINE
  8
0
 10
-263.345
 20
-194.978
 11
-263.461
 21
-195.194
  0
LINE
  8
0
 10
-263.461
 20
-195.194
 11
-263.616
 21
-195.384
  0
LINE
  8
0
 10
-263.616
 20
-195.384
 11
-263.806
 21
-195.539
  0
LINE
  8
0
 10
-263.806
 20
-195.539
 11
-264.022
 21
-195.655
  0
LINE
  8
0
 10
-264.022
 20
-195.655
 11
-264.256
 21
-195.726
  0
LINE
  8
0
 10
-264.256
 20
-195.726
 11
-264.5
 21
-195.75
  0
LINE
  8
0
 10
-264.5
 20
-195.75
 11
-264.744
 21
-195.726
  0
LINE
  8
0
 10
-237.686
 20
-199.19
 11
-237.93
 21
-199.145
  0
LINE
  8
0
 10
-237.93
 20
-199.145
 11
-238.165
 21
-199.065
  0
LINE
  8
0
 10
-238.165
 20
-199.065
 11
-238.386
 21
-198.951
  0
LINE
  8
0
 10
-238.386
 20
-198.951
 11
-238.587
 21
-198.807
  0
LINE
  8
0
 10
-238.587
 20
-198.807
 11
-238.766
 21
-198.634
  0
LINE
  8
0
 10
-238.766
 20
-198.634
 11
-238.918
 21
-198.438
  0
LINE
  8
0
 10
-238.918
 20
-198.438
 11
-239.039
 21
-198.222
  0
LINE
  8
0
 10
-239.039
 20
-198.222
 11
-239.128
 21
-197.99
  0
LINE
  8
0
 10
-239.128
 20
-197.99
 11
-239.182
 21
-197.748
  0
LINE
  8
0
 10
-239.182
 20
-197.748
 11
-239.2
 21
-197.5
  0
LINE
  8
0
 10
-239.2
 20
-197.5
 11
-239.182
 21
-197.252
  0
LINE
  8
0
 10
-239.182
 20
-197.252
 11
-239.128
 21
-197.01
  0
LINE
  8
0
 10
-239.128
 20
-197.01
 11
-239.039
 21
-196.778
  0
LINE
  8
0
 10
-239.039
 20
-196.778
 11
-238.918
 21
-196.562
  0
LINE
  8
0
 10
-238.918
 20
-196.562
 11
-238.766
 21
-196.366
  0
LINE
  8
0
 10
-238.766
 20
-196.366
 11
-238.587
 21
-196.193
  0
LINE
  8
0
 10
-238.587
 20
-196.193
 11
-238.386
 21
-196.049
  0
LINE
  8
0
 10
-238.386
 20
-196.049
 11
-238.165
 21
-195.935
  0
LINE
  8
0
 10
-238.165
 20
-195.935
 11
-237.93
 21
-195.855
  0
LINE
  8
0
 10
-237.93
 20
-195.855
 11
-237.686
 21
-195.81
  0
LINE
  8
0
 10
-237.686
 20
-195.81
 11
-237.438
 21
-195.801
  0
LINE
  8
0
 10
-237.438
 20
-195.801
 11
-237.191
 21
-195.828
  0
LINE
  8
0
 10
-237.191
 20
-195.828
 11
-236.951
 21
-195.891
  0
LINE
  8
0
 10
-236.951
 20
-195.891
 11
-236.723
 21
-195.988
  0
LINE
  8
0
 10
-236.723
 20
-195.988
 11
-236.511
 21
-196.117
  0
LINE
  8
0
 10
-236.511
 20
-196.117
 11
-236.32
 21
-196.276
  0
LINE
  8
0
 10
-236.32
 20
-196.276
 11
-236.154
 21
-196.461
  0
LINE
  8
0
 10
-236.154
 20
-196.461
 11
-236.018
 21
-196.668
  0
LINE
  8
0
 10
-236.018
 20
-196.668
 11
-235.912
 21
-196.893
  0
LINE
  8
0
 10
-235.912
 20
-196.893
 11
-235.841
 21
-197.13
  0
LINE
  8
0
 10
-235.841
 20
-197.13
 11
-235.805
 21
-197.376
  0
LINE
  8
0
 10
-235.805
 20
-197.376
 11
-235.805
 21
-197.624
  0
LINE
  8
0
 10
-235.805
 20
-197.624
 11
-235.841
 21
-197.87
  0
LINE
  8
0
 10
-235.841
 20
-197.87
 11
-235.912
 21
-198.107
  0
LINE
  8
0
 10
-235.912
 20
-198.107
 11
-236.018
 21
-198.332
  0
LINE
  8
0
 10
-236.018
 20
-198.332
 11
-236.154
 21
-198.539
  0
LINE
  8
0
 10
-236.154
 20
-198.539
 11
-236.32
 21
-198.724
  0
LINE
  8
0
 10
-236.32
 20
-198.724
 11
-236.511
 21
-198.883
  0
LINE
  8
0
 10
-236.511
 20
-198.883
 11
-236.723
 21
-199.012
  0
LINE
  8
0
 10
-236.723
 20
-199.012
 11
-236.951
 21
-199.109
  0
LINE
  8
0
 10
-236.951
 20
-199.109
 11
-237.191
 21
-199.172
  0
LINE
  8
0
 10
-237.191
 20
-199.172
 11
-237.438
 21
-199.199
  0
LINE
  8
0
 10
-237.438
 20
-199.199
 11
-237.686
 21
-199.19
  0
LINE
  8
0
 10
237.191
 20
-199.172
 11
236.951
 21
-199.109
  0
LINE
  8
0
 10
236.951
 20
-199.109
 11
236.723
 21
-199.012
  0
LINE
  8
0
 10
236.723
 20
-199.012
 11
236.511
 21
-198.883
  0
LINE
  8
0
 10
236.511
 20
-198.883
 11
236.32
 21
-198.724
  0
LINE
  8
0
 10
236.32
 20
-198.724
 11
236.154
 21
-198.539
  0
LINE
  8
0
 10
236.154
 20
-198.539
 11
236.018
 21
-198.332
  0
LINE
  8
0
 10
236.018
 20
-198.332
 11
235.912
 21
-198.107
  0
LINE
  8
0
 10
235.912
 20
-198.107
 11
235.841
 21
-197.87
  0
LINE
  8
0
 10
235.841
 20
-197.87
 11
235.805
 21
-197.624
  0
LINE
  8
0
 10
235.805
 20
-197.624
 11
235.805
 21
-197.376
  0
LINE
  8
0
 10
235.805
 20
-197.376
 11
235.841
 21
-197.13
  0
LINE
  8
0
 10
235.841
 20
-197.13
 11
235.912
 21
-196.893
  0
LINE
  8
0
 10
235.912
 20
-196.893
 11
236.018
 21
-196.668
  0
LINE
  8
0
 10
236.018
 20
-196.668
 11
236.154
 21
-196.461
  0
LINE
  8
0
 10
236.154
 20
-196.461
 11
236.32
 21
-196.276
  0
LINE
  8
0
 10
236.32
 20
-196.276
 11
236.511
 21
-196.117
  0
LINE
  8
0
 10
236.511
 20
-196.117
 11
236.723
 21
-195.988
  0
LINE
  8
0
 10
236.723
 20
-195.988
 11
236.951
 21
-195.891
  0
LINE
  8
0
 10
236.951
 20
-195.891
 11
237.191
 21
-195.828
  0
LINE
  8
0
 10
237.191
 20
-195.828
 11
237.438
 21
-195.801
  0
LINE
  8
0
 10
237.438
 20
-195.801
 11
237.686
 21
-195.81
  0
LINE
  8
0
 10
237.686
 20
-195.81
 11
237.93
 21
-195.855
  0
LINE
  8
0
 10
237.93
 20
-195.855
 11
238.165
 21
-195.935
  0
LINE
  8
0
 10
238.165
 20
-195.935
 11
238.386
 21
-196.049
  0
LINE
  8
0
 10
238.386
 20
-196.049
 11
238.587
 21
-196.193
  0
LINE
  8
0
 10
238.587
 20
-196.193
 11
238.766
 21
-196.366
  0
LINE
  8
0
 10
238.766
 20
-196.366
 11
238.918
 21
-196.562
  0
LINE
  8
0
 10
238.918
 20
-196.562
 11
239.039
 21
-196.778
  0
LINE
  8
0
 10
239.039
 20
-196.778
 11
239.128
 21
-197.01
  0
LINE
  8
0
 10
239.128
 20
-197.01
 11
239.182
 21
-197.252
  0
LINE
  8
0
 10
239.182
 20
-197.252
 11
239.2
 21
-197.5
  0
LINE
  8
0
 10
239.2
 20
-197.5
 11
239.182
 21
-197.748
  0
LINE
  8
0
 10
239.182
 20
-197.748
 11
239.128
 21
-197.99
  0
LINE
  8
0
 10
239.128
 20
-197.99
 11
239.039
 21
-198.222
  0
LINE
  8
0
 10
239.039
 20
-198.222
 11
238.918
 21
-198.438
  0
LINE
  8
0
 10
238.918
 20
-198.438
 11
238.766
 21
-198.634
  0
LINE
  8
0
 10
238.766
 20
-198.634
 11
238.587
 21
-198.807
  0
LINE
  8
0
 10
238.587
 20
-198.807
 11
238.386
 21
-198.951
  0
LINE
  8
0
 10
238.386
 20
-198.951
 11
238.165
 21
-199.065
  0
LINE
  8
0
 10
238.165
 20
-199.065
 11
237.93
 21
-199.145
  0
LINE
  8
0
 10
237.93
 20
-199.145
 11
237.686
 21
-199.19
  0
LINE
  8
0
 10
237.686
 20
-199.19
 11
237.438
 21
-199.199
  0
LINE
  8
0
 10
237.438
 20
-199.199
 11
237.191
 21
-199.172
  0
LINE
  8
0
 10
-285.244
 20
-206.726
 11
-285.478
 21
-206.655
  0
LINE
  8
0
 10
-285.478
 20
-206.655
 11
-285.694
 21
-206.539
  0
LINE
  8
0
 10
-285.694
 20
-206.539
 11
-285.884
 21
-206.384
  0
LINE
  8
0
 10
-285.884
 20
-206.384
 11
-286.039
 21
-206.194
  0
LINE
  8
0
 10
-286.039
 20
-206.194
 11
-286.155
 21
-205.978
  0
LINE
  8
0
 10
-286.155
 20
-205.978
 11
-286.226
 21
-205.744
  0
LINE
  8
0
 10
-286.226
 20
-205.744
 11
-286.25
 21
-205.5
  0
LINE
  8
0
 10
-286.25
 20
-205.5
 11
-286.226
 21
-205.256
  0
LINE
  8
0
 10
-286.226
 20
-205.256
 11
-286.155
 21
-205.022
  0
LINE
  8
0
 10
-286.155
 20
-205.022
 11
-286.039
 21
-204.806
  0
LINE
  8
0
 10
-286.039
 20
-204.806
 11
-285.884
 21
-204.616
  0
LINE
  8
0
 10
-285.884
 20
-204.616
 11
-285.694
 21
-204.461
  0
LINE
  8
0
 10
-285.694
 20
-204.461
 11
-285.478
 21
-204.345
  0
LINE
  8
0
 10
-285.478
 20
-204.345
 11
-285.244
 21
-204.274
  0
LINE
  8
0
 10
-285.244
 20
-204.274
 11
-285
 21
-204.25
  0
LINE
  8
0
 10
-285
 20
-204.25
 11
-284.756
 21
-204.274
  0
LINE
  8
0
 10
-284.756
 20
-204.274
 11
-284.522
 21
-204.345
  0
LINE
  8
0
 10
-284.522
 20
-204.345
 11
-284.306
 21
-204.461
  0
LINE
  8
0
 10
-284.306
 20
-204.461
 11
-284.116
 21
-204.616
  0
LINE
  8
0
 10
-284.116
 20
-204.616
 11
-283.961
 21
-204.806
  0
LINE
  8
0
 10
-283.961
 20
-204.806
 11
-283.845
 21
-205.022
  0
LINE
  8
0
 10
-283.845
 20
-205.022
 11
-283.774
 21
-205.256
  0
LINE
  8
0
 10
-283.774
 20
-205.256
 11
-283.75
 21
-205.5
  0
LINE
  8
0
 10
-283.75
 20
-205.5
 11
-283.774
 21
-205.744
  0
LINE
  8
0
 10
-283.774
 20
-205.744
 11
-283.845
 21
-205.978
  0
LINE
  8
0
 10
-283.845
 20
-205.978
 11
-283.961
 21
-206.194
  0
LINE
  8
0
 10
-283.961
 20
-206.194
 11
-284.116
 21
-206.384
  0
LINE
  8
0
 10
-284.116
 20
-206.384
 11
-284.306
 21
-206.539
  0
LINE
  8
0
 10
-284.306
 20
-206.539
 11
-284.522
 21
-206.655
  0
LINE
  8
0
 10
-284.522
 20
-206.655
 11
-284.756
 21
-206.726
  0
LINE
  8
0
 10
-284.756
 20
-206.726
 11
-285
 21
-206.75
  0
LINE
  8
0
 10
-285
 20
-206.75
 11
-285.244
 21
-206.726
  0
LINE
  8
0
 10
237.108
 20
-223.729
 11
236.72
 21
-223.668
  0
LINE
  8
0
 10
236.72
 20
-223.668
 11
236.341
 21
-223.566
  0
LINE
  8
0
 10
236.341
 20
-223.566
 11
235.975
 21
-223.426
  0
LINE
  8
0
 10
235.975
 20
-223.426
 11
235.625
 21
-223.248
  0
LINE
  8
0
 10
235.625
 20
-223.248
 11
235.296
 21
-223.034
  0
LINE
  8
0
 10
235.296
 20
-223.034
 11
234.991
 21
-222.787
  0
LINE
  8
0
 10
234.991
 20
-222.787
 11
234.713
 21
-222.509
  0
LINE
  8
0
 10
234.713
 20
-222.509
 11
234.466
 21
-222.204
  0
LINE
  8
0
 10
234.466
 20
-222.204
 11
234.252
 21
-221.875
  0
LINE
  8
0
 10
234.252
 20
-221.875
 11
234.074
 21
-221.525
  0
LINE
  8
0
 10
234.074
 20
-221.525
 11
233.934
 21
-221.159
  0
LINE
  8
0
 10
233.934
 20
-221.159
 11
233.832
 21
-220.78
  0
LINE
  8
0
 10
233.832
 20
-220.78
 11
233.771
 21
-220.392
  0
LINE
  8
0
 10
233.771
 20
-220.392
 11
233.75
 21
-220
  0
LINE
  8
0
 10
233.75
 20
-220
 11
233.771
 21
-219.608
  0
LINE
  8
0
 10
233.771
 20
-219.608
 11
233.832
 21
-219.22
  0
LINE
  8
0
 10
233.832
 20
-219.22
 11
233.934
 21
-218.841
  0
LINE
  8
0
 10
233.934
 20
-218.841
 11
234.074
 21
-218.475
  0
LINE
  8
0
 10
234.074
 20
-218.475
 11
234.252
 21
-218.125
  0
LINE
  8
0
 10
234.252
 20
-218.125
 11
234.466
 21
-217.796
  0
LINE
  8
0
 10
234.466
 20
-217.796
 11
234.713
 21
-217.491
  0
LINE
  8
0
 10
234.713
 20
-217.491
 11
234.991
 21
-217.213
  0
LINE
  8
0
 10
234.991
 20
-217.213
 11
235.296
 21
-216.966
  0
LINE
  8
0
 10
235.296
 20
-216.966
 11
235.625
 21
-216.752
  0
LINE
  8
0
 10
235.625
 20
-216.752
 11
235.975
 21
-216.574
  0
LINE
  8
0
 10
235.975
 20
-216.574
 11
236.341
 21
-216.434
  0
LINE
  8
0
 10
236.341
 20
-216.434
 11
236.72
 21
-216.332
  0
LINE
  8
0
 10
236.72
 20
-216.332
 11
237.108
 21
-216.271
  0
LINE
  8
0
 10
237.108
 20
-216.271
 11
237.5
 21
-216.25
  0
LINE
  8
0
 10
237.5
 20
-216.25
 11
237.892
 21
-216.271
  0
LINE
  8
0
 10
237.892
 20
-216.271
 11
238.28
 21
-216.332
  0
LINE
  8
0
 10
238.28
 20
-216.332
 11
238.659
 21
-216.434
  0
LINE
  8
0
 10
238.659
 20
-216.434
 11
239.025
 21
-216.574
  0
LINE
  8
0
 10
239.025
 20
-216.574
 11
239.375
 21
-216.752
  0
LINE
  8
0
 10
239.375
 20
-216.752
 11
239.704
 21
-216.966
  0
LINE
  8
0
 10
239.704
 20
-216.966
 11
240.009
 21
-217.213
  0
LINE
  8
0
 10
240.009
 20
-217.213
 11
240.287
 21
-217.491
  0
LINE
  8
0
 10
240.287
 20
-217.491
 11
240.534
 21
-217.796
  0
LINE
  8
0
 10
240.534
 20
-217.796
 11
240.748
 21
-218.125
  0
LINE
  8
0
 10
240.748
 20
-218.125
 11
240.926
 21
-218.475
  0
LINE
  8
0
 10
240.926
 20
-218.475
 11
241.066
 21
-218.841
  0
LINE
  8
0
 10
241.066
 20
-218.841
 11
241.168
 21
-219.22
  0
LINE
  8
0
 10
241.168
 20
-219.22
 11
241.229
 21
-219.608
  0
LINE
  8
0
 10
241.229
 20
-219.608
 11
241.25
 21
-220
  0
LINE
  8
0
 10
241.25
 20
-220
 11
241.229
 21
-220.392
  0
LINE
  8
0
 10
241.229
 20
-220.392
 11
241.168
 21
-220.78
  0
LINE
  8
0
 10
241.168
 20
-220.78
 11
241.066
 21
-221.159
  0
LINE
  8
0
 10
241.066
 20
-221.159
 11
240.926
 21
-221.525
  0
LINE
  8
0
 10
240.926
 20
-221.525
 11
240.748
 21
-221.875
  0
LINE
  8
0
 10
240.748
 20
-221.875
 11
240.534
 21
-222.204
  0
LINE
  8
0
 10
240.534
 20
-222.204
 11
240.287
 21
-222.509
  0
LINE
  8
0
 10
240.287
 20
-222.509
 11
240.009
 21
-222.787
  0
LINE
  8
0
 10
240.009
 20
-222.787
 11
239.704
 21
-223.034
  0
LINE
  8
0
 10
239.704
 20
-223.034
 11
239.375
 21
-223.248
  0
LINE
  8
0
 10
239.375
 20
-223.248
 11
239.025
 21
-223.426
  0
LINE
  8
0
 10
239.025
 20
-223.426
 11
238.659
 21
-223.566
  0
LINE
  8
0
 10
238.659
 20
-223.566
 11
238.28
 21
-223.668
  0
LINE
  8
0
 10
238.28
 20
-223.668
 11
237.892
 21
-223.729
  0
LINE
  8
0
 10
237.892
 20
-223.729
 11
237.5
 21
-223.75
  0
LINE
  8
0
 10
237.5
 20
-223.75
 11
237.108
 21
-223.729
  0
LINE
  8
0
 10
-237.892
 20
-223.729
 11
-238.28
 21
-223.668
  0
LINE
  8
0
 10
-238.28
 20
-223.668
 11
-238.659
 21
-223.566
  0
LINE
  8
0
 10
-238.659
 20
-223.566
 11
-239.025
 21
-223.426
  0
LINE
  8
0
 10
-239.025
 20
-223.426
 11
-239.375
 21
-223.248
  0
LINE
  8
0
 10
-239.375
 20
-223.248
 11
-239.704
 21
-223.034
  0
LINE
  8
0
 10
-239.704
 20
-223.034
 11
-240.009
 21
-222.787
  0
LINE
  8
0
 10
-240.009
 20
-222.787
 11
-240.287
 21
-222.509
  0
LINE
  8
0
 10
-240.287
 20
-222.509
 11
-240.534
 21
-222.204
  0
LINE
  8
0
 10
-240.534
 20
-222.204
 11
-240.748
 21
-221.875
  0
LINE
  8
0
 10
-240.748
 20
-221.875
 11
-240.926
 21
-221.525
  0
LINE
  8
0
 10
-240.926
 20
-221.525
 11
-241.066
 21
-221.159
  0
LINE
  8
0
 10
-241.066
 20
-221.159
 11
-241.168
 21
-220.78
  0
LINE
  8
0
 10
-241.168
 20
-220.78
 11
-241.229
 21
-220.392
  0
LINE
  8
0
 10
-241.229
 20
-220.392
 11
-241.25
 21
-220
  0
LINE
  8
0
 10
-241.25
 20
-220
 11
-241.229
 21
-219.608
  0
LINE
  8
0
 10
-241.229
 20
-219.608
 11
-241.168
 21
-219.22
  0
LINE
  8
0
 10
-241.168
 20
-219.22
 11
-241.066
 21
-218.841
  0
LINE
  8
0
 10
-241.066
 20
-218.841
 11
-240.926
 21
-218.475
  0
LINE
  8
0
 10
-240.926
 20
-218.475
 11
-240.748
 21
-218.125
  0
LINE
  8
0
 10
-240.748
 20
-218.125
 11
-240.534
 21
-217.796
  0
LINE
  8
0
 10
-240.534
 20
-217.796
 11
-240.287
 21
-217.491
  0
LINE
  8
0
 10
-240.287
 20
-217.491
 11
-240.009
 21
-217.213
  0
LINE
  8
0
 10
-240.009
 20
-217.213
 11
-239.704
 21
-216.966
  0
LINE
  8
0
 10
-239.704
 20
-216.966
 11
-239.375
 21
-216.752
  0
LINE
  8
0
 10
-239.375
 20
-216.752
 11
-239.025
 21
-216.574
  0
LINE
  8
0
 10
-239.025
 20
-216.574
 11
-238.659
 21
-216.434
  0
LINE
  8
0
 10
-238.659
 20
-216.434
 11
-238.28
 21
-216.332
  0
LINE
  8
0
 10
-238.28
 20
-216.332
 11
-237.892
 21
-216.271
  0
LINE
  8
0
 10
-237.892
 20
-216.271
 11
-237.5
 21
-216.25
  0
LINE
  8
0
 10
-237.5
 20
-216.25
 11
-237.108
 21
-216.271
  0
LINE
  8
0
 10
-237.108
 20
-216.271
 11
-236.72
 21
-216.332
  0
LINE
  8
0
 10
-236.72
 20
-216.332
 11
-236.341
 21
-216.434
  0
LINE
  8
0
 10
-236.341
 20
-216.434
 11
-235.975
 21
-216.574
  0
LINE
  8
0
 10
-235.975
 20
-216.574
 11
-235.625
 21
-216.752
  0
LINE
  8
0
 10
-235.625
 20
-216.752
 11
-235.296
 21
-216.966
  0
LINE
  8
0
 10
-235.296
 20
-216.966
 11
-234.991
 21
-217.213
  0
LINE
  8
0
 10
-234.991
 20
-217.213
 11
-234.713
 21
-217.491
  0
LINE
  8
0
 10
-234.713
 20
-217.491
 11
-234.466
 21
-217.796
  0
LINE
  8
0
 10
-234.466
 20
-217.796
 11
-234.252
 21
-218.125
  0
LINE
  8
0
 10
-234.252
 20
-218.125
 11
-234.074
 21
-218.475
  0
LINE
  8
0
 10
-234.074
 20
-218.475
 11
-233.934
 21
-218.841
  0
LINE
  8
0
 10
-233.934
 20
-218.841
 11
-233.832
 21
-219.22
  0
LINE
  8
0
 10
-233.832
 20
-219.22
 11
-233.771
 21
-219.608
  0
LINE
  8
0
 10
-233.771
 20
-219.608
 11
-233.75
 21
-220
  0
LINE
  8
0
 10
-233.75
 20
-220
 11
-233.771
 21
-220.392
  0
LINE
  8
0
 10
-233.771
 20
-220.392
 11
-233.832
 21
-220.78
  0
LINE
  8
0
 10
-233.832
 20
-220.78
 11
-233.934
 21
-221.159
  0
LINE
  8
0
 10
-233.934
 20
-221.159
 11
-234.074
 21
-221.525
  0
LINE
  8
0
 10
-234.074
 20
-221.525
 11
-234.252
 21
-221.875
  0
LINE
  8
0
 10
-234.252
 20
-221.875
 11
-234.466
 21
-222.204
  0
LINE
  8
0
 10
-234.466
 20
-222.204
 11
-234.713
 21
-222.509
  0
LINE
  8
0
 10
-234.713
 20
-222.509
 11
-234.991
 21
-222.787
  0
LINE
  8
0
 10
-234.991
 20
-222.787
 11
-235.296
 21
-223.034
  0
LINE
  8
0
 10
-235.296
 20
-223.034
 11
-235.625
 21
-223.248
  0
LINE
  8
0
 10
-235.625
 20
-223.248
 11
-235.975
 21
-223.426
  0
LINE
  8
0
 10
-235.975
 20
-223.426
 11
-236.341
 21
-223.566
  0
LINE
  8
0
 10
-236.341
 20
-223.566
 11
-236.72
 21
-223.668
  0
LINE
  8
0
 10
-236.72
 20
-223.668
 11
-237.108
 21
-223.729
  0
LINE
  8
0
 10
-237.108
 20
-223.729
 11
-237.5
 21
-223.75
  0
LINE
  8
0
 10
-237.5
 20
-223.75
 11
-237.892
 21
-223.729
  0
LINE
  8
0
 10
72.5
 20
-221.75
 11
72.2509
 21
-221.732
  0
LINE
  8
0
 10
72.2509
 20
-221.732
 11
72.007
 21
-221.679
  0
LINE
  8
0
 10
72.007
 20
-221.679
 11
71.773
 21
-221.592
  0
LINE
  8
0
 10
71.773
 20
-221.592
 11
71.5539
 21
-221.472
  0
LINE
  8
0
 10
71.5539
 20
-221.472
 11
71.354
 21
-221.323
  0
LINE
  8
0
 10
71.354
 20
-221.323
 11
71.1774
 21
-221.146
  0
LINE
  8
0
 10
71.1774
 20
-221.146
 11
71.0278
 21
-220.946
  0
LINE
  8
0
 10
71.0278
 20
-220.946
 11
70.9081
 21
-220.727
  0
LINE
  8
0
 10
70.9081
 20
-220.727
 11
70.8209
 21
-220.493
  0
LINE
  8
0
 10
70.8209
 20
-220.493
 11
70.7678
 21
-220.249
  0
LINE
  8
0
 10
70.7678
 20
-220.249
 11
70.75
 21
-220
  0
LINE
  8
0
 10
70.75
 20
-220
 11
70.7678
 21
-219.751
  0
LINE
  8
0
 10
70.7678
 20
-219.751
 11
70.8209
 21
-219.507
  0
LINE
  8
0
 10
70.8209
 20
-219.507
 11
70.9081
 21
-219.273
  0
LINE
  8
0
 10
70.9081
 20
-219.273
 11
71.0278
 21
-219.054
  0
LINE
  8
0
 10
71.0278
 20
-219.054
 11
71.1774
 21
-218.854
  0
LINE
  8
0
 10
71.1774
 20
-218.854
 11
71.354
 21
-218.677
  0
LINE
  8
0
 10
71.354
 20
-218.677
 11
71.5539
 21
-218.528
  0
LINE
  8
0
 10
71.5539
 20
-218.528
 11
71.773
 21
-218.408
  0
LINE
  8
0
 10
71.773
 20
-218.408
 11
72.007
 21
-218.321
  0
LINE
  8
0
 10
72.007
 20
-218.321
 11
72.2509
 21
-218.268
  0
LINE
  8
0
 10
72.2509
 20
-218.268
 11
72.5
 21
-218.25
  0
LINE
  8
0
 10
72.5
 20
-218.25
 11
180.833
 21
-218.25
  0
LINE
  8
0
 10
180.833
 20
-218.25
 11
181.082
 21
-218.268
  0
LINE
  8
0
 10
181.082
 20
-218.268
 11
181.326
 21
-218.321
  0
LINE
  8
0
 10
181.326
 20
-218.321
 11
181.56
 21
-218.408
  0
LINE
  8
0
 10
181.56
 20
-218.408
 11
181.779
 21
-218.528
  0
LINE
  8
0
 10
181.779
 20
-218.528
 11
181.979
 21
-218.677
  0
LINE
  8
0
 10
181.979
 20
-218.677
 11
182.156
 21
-218.854
  0
LINE
  8
0
 10
182.156
 20
-218.854
 11
182.306
 21
-219.054
  0
LINE
  8
0
 10
182.306
 20
-219.054
 11
182.425
 21
-219.273
  0
LINE
  8
0
 10
182.425
 20
-219.273
 11
182.512
 21
-219.507
  0
LINE
  8
0
 10
182.512
 20
-219.507
 11
182.566
 21
-219.751
  0
LINE
  8
0
 10
182.566
 20
-219.751
 11
182.583
 21
-220
  0
LINE
  8
0
 10
182.583
 20
-220
 11
182.566
 21
-220.249
  0
LINE
  8
0
 10
182.566
 20
-220.249
 11
182.512
 21
-220.493
  0
LINE
  8
0
 10
182.512
 20
-220.493
 11
182.425
 21
-220.727
  0
LINE
  8
0
 10
182.425
 20
-220.727
 11
182.306
 21
-220.946
  0
LINE
  8
0
 10
182.306
 20
-220.946
 11
182.156
 21
-221.146
  0
LINE
  8
0
 10
182.156
 20
-221.146
 11
181.979
 21
-221.323
  0
LINE
  8
0
 10
181.979
 20
-221.323
 11
181.779
 21
-221.472
  0
LINE
  8
0
 10
181.779
 20
-221.472
 11
181.56
 21
-221.592
  0
LINE
  8
0
 10
181.56
 20
-221.592
 11
181.326
 21
-221.679
  0
LINE
  8
0
 10
181.326
 20
-221.679
 11
181.082
 21
-221.732
  0
LINE
  8
0
 10
181.082
 20
-221.732
 11
180.833
 21
-221.75
  0
LINE
  8
0
 10
180.833
 20
-221.75
 11
72.5
 21
-221.75
  0
LINE
  8
0
 10
-187.5
 20
-221.75
 11
-187.749
 21
-221.732
  0
LINE
  8
0
 10
-187.749
 20
-221.732
 11
-187.993
 21
-221.679
  0
LINE
  8
0
 10
-187.993
 20
-221.679
 11
-188.227
 21
-221.592
  0
LINE
  8
0
 10
-188.227
 20
-221.592
 11
-188.446
 21
-221.472
  0
LINE
  8
0
 10
-188.446
 20
-221.472
 11
-188.646
 21
-221.323
  0
LINE
  8
0
 10
-188.646
 20
-221.323
 11
-188.823
 21
-221.146
  0
LINE
  8
0
 10
-188.823
 20
-221.146
 11
-188.972
 21
-220.946
  0
LINE
  8
0
 10
-188.972
 20
-220.946
 11
-189.092
 21
-220.727
  0
LINE
  8
0
 10
-189.092
 20
-220.727
 11
-189.179
 21
-220.493
  0
LINE
  8
0
 10
-189.179
 20
-220.493
 11
-189.232
 21
-220.249
  0
LINE
  8
0
 10
-189.232
 20
-220.249
 11
-189.25
 21
-220
  0
LINE
  8
0
 10
-189.25
 20
-220
 11
-189.232
 21
-219.751
  0
LINE
  8
0
 10
-189.232
 20
-219.751
 11
-189.179
 21
-219.507
  0
LINE
  8
0
 10
-189.179
 20
-219.507
 11
-189.092
 21
-219.273
  0
LINE
  8
0
 10
-189.092
 20
-219.273
 11
-188.972
 21
-219.054
  0
LINE
  8
0
 10
-188.972
 20
-219.054
 11
-188.823
 21
-218.854
  0
LINE
  8
0
 10
-188.823
 20
-218.854
 11
-188.646
 21
-218.677
  0
LINE
  8
0
 10
-188.646
 20
-218.677
 11
-188.446
 21
-218.528
  0
LINE
  8
0
 10
-188.446
 20
-218.528
 11
-188.227
 21
-218.408
  0
LINE
  8
0
 10
-188.227
 20
-218.408
 11
-187.993
 21
-218.321
  0
LINE
  8
0
 10
-187.993
 20
-218.321
 11
-187.749
 21
-218.268
  0
LINE
  8
0
 10
-187.749
 20
-218.268
 11
-187.5
 21
-218.25
  0
LINE
  8
0
 10
-187.5
 20
-218.25
 11
-79.1667
 21
-218.25
  0
LINE
  8
0
 10
-79.1667
 20
-218.25
 11
-78.9176
 21
-218.268
  0
LINE
  8
0
 10
-78.9176
 20
-218.268
 11
-78.6736
 21
-218.321
  0
LINE
  8
0
 10
-78.6736
 20
-218.321
 11
-78.4397
 21
-218.408
  0
LINE
  8
0
 10
-78.4397
 20
-218.408
 11
-78.2205
 21
-218.528
  0
LINE
  8
0
 10
-78.2205
 20
-218.528
 11
-78.0207
 21
-218.677
  0
LINE
  8
0
 10
-78.0207
 20
-218.677
 11
-77.8441
 21
-218.854
  0
LINE
  8
0
 10
-77.8441
 20
-218.854
 11
-77.6945
 21
-219.054
  0
LINE
  8
0
 10
-77.6945
 20
-219.054
 11
-77.5748
 21
-219.273
  0
LINE
  8
0
 10
-77.5748
 20
-219.273
 11
-77.4875
 21
-219.507
  0
LINE
  8
0
 10
-77.4875
 20
-219.507
 11
-77.4345
 21
-219.751
  0
LINE
  8
0
 10
-77.4345
 20
-219.751
 11
-77.4167
 21
-220
  0
LINE
  8
0
 10
-77.4167
 20
-220
 11
-77.4345
 21
-220.249
  0
LINE
  8
0
 10
-77.4345
 20
-220.249
 11
-77.4875
 21
-220.493
  0
LINE
  8
0
 10
-77.4875
 20
-220.493
 11
-77.5748
 21
-220.727
  0
LINE
  8
0
 10
-77.5748
 20
-220.727
 11
-77.6945
 21
-220.946
  0
LINE
  8
0
 10
-77.6945
 20
-220.946
 11
-77.8441
 21
-221.146
  0
LINE
  8
0
 10
-77.8441
 20
-221.146
 11
-78.0207
 21
-221.323
  0
LINE
  8
0
 10
-78.0207
 20
-221.323
 11
-78.2205
 21
-221.472
  0
LINE
  8
0
 10
-78.2205
 20
-221.472
 11
-78.4397
 21
-221.592
  0
LINE
  8
0
 10
-78.4397
 20
-221.592
 11
-78.6736
 21
-221.679
  0
LINE
  8
0
 10
-78.6736
 20
-221.679
 11
-78.9176
 21
-221.732
  0
LINE
  8
0
 10
-78.9176
 20
-221.732
 11
-79.1667
 21
-221.75
  0
LINE
  8
0
 10
-79.1667
 20
-221.75
 11
-187.5
 21
-221.75
  0
LINE
  8
0
 10
-57.5
 20
-221.75
 11
-57.749
 21
-221.732
  0
LINE
  8
0
 10
-57.749
 20
-221.732
 11
-57.993
 21
-221.679
  0
LINE
  8
0
 10
-57.993
 20
-221.679
 11
-58.227
 21
-221.592
  0
LINE
  8
0
 10
-58.227
 20
-221.592
 11
-58.4461
 21
-221.472
  0
LINE
  8
0
 10
-58.4461
 20
-221.472
 11
-58.646
 21
-221.323
  0
LINE
  8
0
 10
-58.646
 20
-221.323
 11
-58.8226
 21
-221.146
  0
LINE
  8
0
 10
-58.8226
 20
-221.146
 11
-58.9722
 21
-220.946
  0
LINE
  8
0
 10
-58.9722
 20
-220.946
 11
-59.0918
 21
-220.727
  0
LINE
  8
0
 10
-59.0918
 20
-220.727
 11
-59.1791
 21
-220.493
  0
LINE
  8
0
 10
-59.1791
 20
-220.493
 11
-59.2322
 21
-220.249
  0
LINE
  8
0
 10
-59.2322
 20
-220.249
 11
-59.25
 21
-220
  0
LINE
  8
0
 10
-59.25
 20
-220
 11
-59.2322
 21
-219.751
  0
LINE
  8
0
 10
-59.2322
 20
-219.751
 11
-59.1791
 21
-219.507
  0
LINE
  8
0
 10
-59.1791
 20
-219.507
 11
-59.0918
 21
-219.273
  0
LINE
  8
0
 10
-59.0918
 20
-219.273
 11
-58.9722
 21
-219.054
  0
LINE
  8
0
 10
-58.9722
 20
-219.054
 11
-58.8226
 21
-218.854
  0
LINE
  8
0
 10
-58.8226
 20
-218.854
 11
-58.646
 21
-218.677
  0
LINE
  8
0
 10
-58.646
 20
-218.677
 11
-58.4461
 21
-218.528
  0
LINE
  8
0
 10
-58.4461
 20
-218.528
 11
-58.227
 21
-218.408
  0
LINE
  8
0
 10
-58.227
 20
-218.408
 11
-57.993
 21
-218.321
  0
LINE
  8
0
 10
-57.993
 20
-218.321
 11
-57.749
 21
-218.268
  0
LINE
  8
0
 10
-57.749
 20
-218.268
 11
-57.5
 21
-218.25
  0
LINE
  8
0
 10
-57.5
 20
-218.25
 11
50.8333
 21
-218.25
  0
LINE
  8
0
 10
50.8333
 20
-218.25
 11
51.0824
 21
-218.268
  0
LINE
  8
0
 10
51.0824
 20
-218.268
 11
51.3264
 21
-218.321
  0
LINE
  8
0
 10
51.3264
 20
-218.321
 11
51.5603
 21
-218.408
  0
LINE
  8
0
 10
51.5603
 20
-218.408
 11
51.7794
 21
-218.528
  0
LINE
  8
0
 10
51.7794
 20
-218.528
 11
51.9793
 21
-218.677
  0
LINE
  8
0
 10
51.9793
 20
-218.677
 11
52.1559
 21
-218.854
  0
LINE
  8
0
 10
52.1559
 20
-218.854
 11
52.3055
 21
-219.054
  0
LINE
  8
0
 10
52.3055
 20
-219.054
 11
52.4252
 21
-219.273
  0
LINE
  8
0
 10
52.4252
 20
-219.273
 11
52.5124
 21
-219.507
  0
LINE
  8
0
 10
52.5124
 20
-219.507
 11
52.5655
 21
-219.751
  0
LINE
  8
0
 10
52.5655
 20
-219.751
 11
52.5833
 21
-220
  0
LINE
  8
0
 10
52.5833
 20
-220
 11
52.5655
 21
-220.249
  0
LINE
  8
0
 10
52.5655
 20
-220.249
 11
52.5124
 21
-220.493
  0
LINE
  8
0
 10
52.5124
 20
-220.493
 11
52.4252
 21
-220.727
  0
LINE
  8
0
 10
52.4252
 20
-220.727
 11
52.3055
 21
-220.946
  0
LINE
  8
0
 10
52.3055
 20
-220.946
 11
52.1559
 21
-221.146
  0
LINE
  8
0
 10
52.1559
 20
-221.146
 11
51.9793
 21
-221.323
  0
LINE
  8
0
 10
51.9793
 20
-221.323
 11
51.7794
 21
-221.472
  0
LINE
  8
0
 10
51.7794
 20
-221.472
 11
51.5603
 21
-221.592
  0
LINE
  8
0
 10
51.5603
 20
-221.592
 11
51.3264
 21
-221.679
  0
LINE
  8
0
 10
51.3264
 20
-221.679
 11
51.0824
 21
-221.732
  0
LINE
  8
0
 10
51.0824
 20
-221.732
 11
50.8333
 21
-221.75
  0
LINE
  8
0
 10
50.8333
 20
-221.75
 11
-57.5
 21
-221.75
  0
LINE
  8
0
 10
214.691
 20
-221.672
 11
214.451
 21
-221.609
  0
LINE
  8
0
 10
214.451
 20
-221.609
 11
214.223
 21
-221.512
  0
LINE
  8
0
 10
214.223
 20
-221.512
 11
214.011
 21
-221.383
  0
LINE
  8
0
 10
214.011
 20
-221.383
 11
213.82
 21
-221.224
  0
LINE
  8
0
 10
213.82
 20
-221.224
 11
213.654
 21
-221.039
  0
LINE
  8
0
 10
213.654
 20
-221.039
 11
213.518
 21
-220.832
  0
LINE
  8
0
 10
213.518
 20
-220.832
 11
213.412
 21
-220.607
  0
LINE
  8
0
 10
213.412
 20
-220.607
 11
213.341
 21
-220.37
  0
LINE
  8
0
 10
213.341
 20
-220.37
 11
213.305
 21
-220.124
  0
LINE
  8
0
 10
213.305
 20
-220.124
 11
213.305
 21
-219.876
  0
LINE
  8
0
 10
213.305
 20
-219.876
 11
213.341
 21
-219.63
  0
LINE
  8
0
 10
213.341
 20
-219.63
 11
213.412
 21
-219.393
  0
LINE
  8
0
 10
213.412
 20
-219.393
 11
213.518
 21
-219.168
  0
LINE
  8
0
 10
213.518
 20
-219.168
 11
213.654
 21
-218.961
  0
LINE
  8
0
 10
213.654
 20
-218.961
 11
213.82
 21
-218.776
  0
LINE
  8
0
 10
213.82
 20
-218.776
 11
214.011
 21
-218.617
  0
LINE
  8
0
 10
214.011
 20
-218.617
 11
214.223
 21
-218.488
  0
LINE
  8
0
 10
214.223
 20
-218.488
 11
214.451
 21
-218.391
  0
LINE
  8
0
 10
214.451
 20
-218.391
 11
214.691
 21
-218.328
  0
LINE
  8
0
 10
214.691
 20
-218.328
 11
214.938
 21
-218.301
  0
LINE
  8
0
 10
214.938
 20
-218.301
 11
215.186
 21
-218.31
  0
LINE
  8
0
 10
215.186
 20
-218.31
 11
215.43
 21
-218.355
  0
LINE
  8
0
 10
215.43
 20
-218.355
 11
215.665
 21
-218.435
  0
LINE
  8
0
 10
215.665
 20
-218.435
 11
215.886
 21
-218.549
  0
LINE
  8
0
 10
215.886
 20
-218.549
 11
216.087
 21
-218.693
  0
LINE
  8
0
 10
216.087
 20
-218.693
 11
216.266
 21
-218.866
  0
LINE
  8
0
 10
216.266
 20
-218.866
 11
216.418
 21
-219.062
  0
LINE
  8
0
 10
216.418
 20
-219.062
 11
216.539
 21
-219.278
  0
LINE
  8
0
 10
216.539
 20
-219.278
 11
216.628
 21
-219.51
  0
LINE
  8
0
 10
216.628
 20
-219.51
 11
216.682
 21
-219.752
  0
LINE
  8
0
 10
216.682
 20
-219.752
 11
216.7
 21
-220
  0
LINE
  8
0
 10
216.7
 20
-220
 11
216.682
 21
-220.248
  0
LINE
  8
0
 10
216.682
 20
-220.248
 11
216.628
 21
-220.49
  0
LINE
  8
0
 10
216.628
 20
-220.49
 11
216.539
 21
-220.722
  0
LINE
  8
0
 10
216.539
 20
-220.722
 11
216.418
 21
-220.938
  0
LINE
  8
0
 10
216.418
 20
-220.938
 11
216.266
 21
-221.134
  0
LINE
  8
0
 10
216.266
 20
-221.134
 11
216.087
 21
-221.307
  0
LINE
  8
0
 10
216.087
 20
-221.307
 11
215.886
 21
-221.451
  0
LINE
  8
0
 10
215.886
 20
-221.451
 11
215.665
 21
-221.565
  0
LINE
  8
0
 10
215.665
 20
-221.565
 11
215.43
 21
-221.645
  0
LINE
  8
0
 10
215.43
 20
-221.645
 11
215.186
 21
-221.69
  0
LINE
  8
0
 10
215.186
 20
-221.69
 11
214.938
 21
-221.699
  0
LINE
  8
0
 10
214.938
 20
-221.699
 11
214.691
 21
-221.672
  0
LINE
  8
0
 10
-215.186
 20
-221.69
 11
-215.43
 21
-221.645
  0
LINE
  8
0
 10
-215.43
 20
-221.645
 11
-215.665
 21
-221.565
  0
LINE
  8
0
 10
-215.665
 20
-221.565
 11
-215.886
 21
-221.451
  0
LINE
  8
0
 10
-215.886
 20
-221.451
 11
-216.087
 21
-221.307
  0
LINE
  8
0
 10
-216.087
 20
-221.307
 11
-216.266
 21
-221.134
  0
LINE
  8
0
 10
-216.266
 20
-221.134
 11
-216.418
 21
-220.938
  0
LINE
  8
0
 10
-216.418
 20
-220.938
 11
-216.539
 21
-220.722
  0
LINE
  8
0
 10
-216.539
 20
-220.722
 11
-216.628
 21
-220.49
  0
LINE
  8
0
 10
-216.628
 20
-220.49
 11
-216.682
 21
-220.248
  0
LINE
  8
0
 10
-216.682
 20
-220.248
 11
-216.7
 21
-220
  0
LINE
  8
0
 10
-216.7
 20
-220
 11
-216.682
 21
-219.752
  0
LINE
  8
0
 10
-216.682
 20
-219.752
 11
-216.628
 21
-219.51
  0
LINE
  8
0
 10
-216.628
 20
-219.51
 11
-216.539
 21
-219.278
  0
LINE
  8
0
 10
-216.539
 20
-219.278
 11
-216.418
 21
-219.062
  0
LINE
  8
0
 10
-216.418
 20
-219.062
 11
-216.266
 21
-218.866
  0
LINE
  8
0
 10
-216.266
 20
-218.866
 11
-216.087
 21
-218.693
  0
LINE
  8
0
 10
-216.087
 20
-218.693
 11
-215.886
 21
-218.549
  0
LINE
  8
0
 10
-215.886
 20
-218.549
 11
-215.665
 21
-218.435
  0
LINE
  8
0
 10
-215.665
 20
-218.435
 11
-215.43
 21
-218.355
  0
LINE
  8
0
 10
-215.43
 20
-218.355
 11
-215.186
 21
-218.31
  0
LINE
  8
0
 10
-215.186
 20
-218.31
 11
-214.938
 21
-218.301
  0
LINE
  8
0
 10
-214.938
 20
-218.301
 11
-214.691
 21
-218.328
  0
LINE
  8
0
 10
-214.691
 20
-218.328
 11
-214.451
 21
-218.391
  0
LINE
  8
0
 10
-214.451
 20
-218.391
 11
-214.223
 21
-218.488
  0
LINE
  8
0
 10
-214.223
 20
-218.488
 11
-214.011
 21
-218.617
  0
LINE
  8
0
 10
-214.011
 20
-218.617
 11
-213.82
 21
-218.776
  0
LINE
  8
0
 10
-213.82
 20
-218.776
 11
-213.654
 21
-218.961
  0
LINE
  8
0
 10
-213.654
 20
-218.961
 11
-213.518
 21
-219.168
  0
LINE
  8
0
 10
-213.518
 20
-219.168
 11
-213.412
 21
-219.393
  0
LINE
  8
0
 10
-213.412
 20
-219.393
 11
-213.341
 21
-219.63
  0
LINE
  8
0
 10
-213.341
 20
-219.63
 11
-213.305
 21
-219.876
  0
LINE
  8
0
 10
-213.305
 20
-219.876
 11
-213.305
 21
-220.124
  0
LINE
  8
0
 10
-213.305
 20
-220.124
 11
-213.341
 21
-220.37
  0
LINE
  8
0
 10
-213.341
 20
-220.37
 11
-213.412
 21
-220.607
  0
LINE
  8
0
 10
-213.412
 20
-220.607
 11
-213.518
 21
-220.832
  0
LINE
  8
0
 10
-213.518
 20
-220.832
 11
-213.654
 21
-221.039
  0
LINE
  8
0
 10
-213.654
 20
-221.039
 11
-213.82
 21
-221.224
  0
LINE
  8
0
 10
-213.82
 20
-221.224
 11
-214.011
 21
-221.383
  0
LINE
  8
0
 10
-214.011
 20
-221.383
 11
-214.223
 21
-221.512
  0
LINE
  8
0
 10
-214.223
 20
-221.512
 11
-214.451
 21
-221.609
  0
LINE
  8
0
 10
-214.451
 20
-221.609
 11
-214.691
 21
-221.672
  0
LINE
  8
0
 10
-214.691
 20
-221.672
 11
-214.938
 21
-221.699
  0
LINE
  8
0
 10
-214.938
 20
-221.699
 11
-215.186
 21
-221.69
  0
LINE
  8
0
 10
294.377
 20
-222.645
 11
294.133
 21
-222.609
  0
LINE
  8
0
 10
294.133
 20
-222.609
 11
293.897
 21
-222.536
  0
LINE
  8
0
 10
293.897
 20
-222.536
 11
293.675
 21
-222.429
  0
LINE
  8
0
 10
293.675
 20
-222.429
 11
293.471
 21
-222.29
  0
LINE
  8
0
 10
293.471
 20
-222.29
 11
293.29
 21
-222.122
  0
LINE
  8
0
 10
293.29
 20
-222.122
 11
293.137
 21
-221.929
  0
LINE
  8
0
 10
293.137
 20
-221.929
 11
293.013
 21
-221.716
  0
LINE
  8
0
 10
293.013
 20
-221.716
 11
292.923
 21
-221.486
  0
LINE
  8
0
 10
292.923
 20
-221.486
 11
292.868
 21
-221.246
  0
LINE
  8
0
 10
292.868
 20
-221.246
 11
292.85
 21
-221
  0
LINE
  8
0
 10
292.85
 20
-221
 11
292.868
 21
-220.754
  0
LINE
  8
0
 10
292.868
 20
-220.754
 11
292.923
 21
-220.514
  0
LINE
  8
0
 10
292.923
 20
-220.514
 11
293.013
 21
-220.284
  0
LINE
  8
0
 10
293.013
 20
-220.284
 11
293.137
 21
-220.071
  0
LINE
  8
0
 10
293.137
 20
-220.071
 11
293.29
 21
-219.878
  0
LINE
  8
0
 10
293.29
 20
-219.878
 11
293.471
 21
-219.71
  0
LINE
  8
0
 10
293.471
 20
-219.71
 11
293.675
 21
-219.571
  0
LINE
  8
0
 10
293.675
 20
-219.571
 11
293.897
 21
-219.464
  0
LINE
  8
0
 10
293.897
 20
-219.464
 11
294.133
 21
-219.391
  0
LINE
  8
0
 10
294.133
 20
-219.391
 11
294.377
 21
-219.355
  0
LINE
  8
0
 10
294.377
 20
-219.355
 11
302.623
 21
-219.355
  0
LINE
  8
0
 10
302.623
 20
-219.355
 11
302.867
 21
-219.391
  0
LINE
  8
0
 10
302.867
 20
-219.391
 11
303.103
 21
-219.464
  0
LINE
  8
0
 10
303.103
 20
-219.464
 11
303.325
 21
-219.571
  0
LINE
  8
0
 10
303.325
 20
-219.571
 11
303.529
 21
-219.71
  0
LINE
  8
0
 10
303.529
 20
-219.71
 11
303.71
 21
-219.878
  0
LINE
  8
0
 10
303.71
 20
-219.878
 11
303.863
 21
-220.071
  0
LINE
  8
0
 10
303.863
 20
-220.071
 11
303.987
 21
-220.284
  0
LINE
  8
0
 10
303.987
 20
-220.284
 11
304.077
 21
-220.514
  0
LINE
  8
0
 10
304.077
 20
-220.514
 11
304.132
 21
-220.754
  0
LINE
  8
0
 10
304.132
 20
-220.754
 11
304.15
 21
-221
  0
LINE
  8
0
 10
304.15
 20
-221
 11
304.132
 21
-221.246
  0
LINE
  8
0
 10
304.132
 20
-221.246
 11
304.077
 21
-221.486
  0
LINE
  8
0
 10
304.077
 20
-221.486
 11
303.987
 21
-221.716
  0
LINE
  8
0
 10
303.987
 20
-221.716
 11
303.863
 21
-221.929
  0
LINE
  8
0
 10
303.863
 20
-221.929
 11
303.71
 21
-222.122
  0
LINE
  8
0
 10
303.71
 20
-222.122
 11
303.529
 21
-222.29
  0
LINE
  8
0
 10
303.529
 20
-222.29
 11
303.325
 21
-222.429
  0
LINE
  8
0
 10
303.325
 20
-222.429
 11
303.103
 21
-222.536
  0
LINE
  8
0
 10
303.103
 20
-222.536
 11
302.867
 21
-222.609
  0
LINE
  8
0
 10
302.867
 20
-222.609
 11
302.623
 21
-222.645
  0
LINE
  8
0
 10
302.623
 20
-222.645
 11
294.377
 21
-222.645
  0
LINE
  8
0
 10
263.377
 20
-222.645
 11
263.133
 21
-222.609
  0
LINE
  8
0
 10
263.133
 20
-222.609
 11
262.897
 21
-222.536
  0
LINE
  8
0
 10
262.897
 20
-222.536
 11
262.675
 21
-222.429
  0
LINE
  8
0
 10
262.675
 20
-222.429
 11
262.471
 21
-222.29
  0
LINE
  8
0
 10
262.471
 20
-222.29
 11
262.29
 21
-222.122
  0
LINE
  8
0
 10
262.29
 20
-222.122
 11
262.137
 21
-221.929
  0
LINE
  8
0
 10
262.137
 20
-221.929
 11
262.013
 21
-221.716
  0
LINE
  8
0
 10
262.013
 20
-221.716
 11
261.923
 21
-221.486
  0
LINE
  8
0
 10
261.923
 20
-221.486
 11
261.868
 21
-221.246
  0
LINE
  8
0
 10
261.868
 20
-221.246
 11
261.85
 21
-221
  0
LINE
  8
0
 10
261.85
 20
-221
 11
261.868
 21
-220.754
  0
LINE
  8
0
 10
261.868
 20
-220.754
 11
261.923
 21
-220.514
  0
LINE
  8
0
 10
261.923
 20
-220.514
 11
262.013
 21
-220.284
  0
LINE
  8
0
 10
262.013
 20
-220.284
 11
262.137
 21
-220.071
  0
LINE
  8
0
 10
262.137
 20
-220.071
 11
262.29
 21
-219.878
  0
LINE
  8
0
 10
262.29
 20
-219.878
 11
262.471
 21
-219.71
  0
LINE
  8
0
 10
262.471
 20
-219.71
 11
262.675
 21
-219.571
  0
LINE
  8
0
 10
262.675
 20
-219.571
 11
262.897
 21
-219.464
  0
LINE
  8
0
 10
262.897
 20
-219.464
 11
263.133
 21
-219.391
  0
LINE
  8
0
 10
263.133
 20
-219.391
 11
263.377
 21
-219.355
  0
LINE
  8
0
 10
263.377
 20
-219.355
 11
271.623
 21
-219.355
  0
LINE
  8
0
 10
271.623
 20
-219.355
 11
271.867
 21
-219.391
  0
LINE
  8
0
 10
271.867
 20
-219.391
 11
272.103
 21
-219.464
  0
LINE
  8
0
 10
272.103
 20
-219.464
 11
272.325
 21
-219.571
  0
LINE
  8
0
 10
272.325
 20
-219.571
 11
272.529
 21
-219.71
  0
LINE
  8
0
 10
272.529
 20
-219.71
 11
272.71
 21
-219.878
  0
LINE
  8
0
 10
272.71
 20
-219.878
 11
272.863
 21
-220.071
  0
LINE
  8
0
 10
272.863
 20
-220.071
 11
272.987
 21
-220.284
  0
LINE
  8
0
 10
272.987
 20
-220.284
 11
273.077
 21
-220.514
  0
LINE
  8
0
 10
273.077
 20
-220.514
 11
273.132
 21
-220.754
  0
LINE
  8
0
 10
273.132
 20
-220.754
 11
273.15
 21
-221
  0
LINE
  8
0
 10
273.15
 20
-221
 11
273.132
 21
-221.246
  0
LINE
  8
0
 10
273.132
 20
-221.246
 11
273.077
 21
-221.486
  0
LINE
  8
0
 10
273.077
 20
-221.486
 11
272.987
 21
-221.716
  0
LINE
  8
0
 10
272.987
 20
-221.716
 11
272.863
 21
-221.929
  0
LINE
  8
0
 10
272.863
 20
-221.929
 11
272.71
 21
-222.122
  0
LINE
  8
0
 10
272.71
 20
-222.122
 11
272.529
 21
-222.29
  0
LINE
  8
0
 10
272.529
 20
-222.29
 11
272.325
 21
-222.429
  0
LINE
  8
0
 10
272.325
 20
-222.429
 11
272.103
 21
-222.536
  0
LINE
  8
0
 10
272.103
 20
-222.536
 11
271.867
 21
-222.609
  0
LINE
  8
0
 10
271.867
 20
-222.609
 11
271.623
 21
-222.645
  0
LINE
  8
0
 10
271.623
 20
-222.645
 11
263.377
 21
-222.645
  0
ENDSEC
  0
SECTION
  2
OBJECTS
  0
DICTIONARY
  0
ENDSEC
  0
EOF
