solid OpenSCAD_Model
  facet normal 0 -1 0
    outer loop
      vertex -305 -233.725 0
      vertex 305 -233.725 6.35
      vertex -305 -233.725 6.35
    endloop
  endfacet
  facet normal 0 -1 -0
    outer loop
      vertex 305 -233.725 6.35
      vertex -305 -233.725 0
      vertex 305 -233.725 0
    endloop
  endfacet
  facet normal 0 0 1
    outer loop
      vertex 300 196.35 6.35
      vertex 305 191.35 6.35
      vertex 304.973 191.873 6.35
    endloop
  endfacet
  facet normal 0 0 1
    outer loop
      vertex 300 196.35 6.35
      vertex 304.973 191.873 6.35
      vertex 304.891 192.39 6.35
    endloop
  endfacet
  facet normal 0 0 1
    outer loop
      vertex 300 196.35 6.35
      vertex 304.891 192.39 6.35
      vertex 304.755 192.895 6.35
    endloop
  endfacet
  facet normal 0 0 1
    outer loop
      vertex 300 196.35 6.35
      vertex 304.755 192.895 6.35
      vertex 304.568 193.384 6.35
    endloop
  endfacet
  facet normal 0 0 1
    outer loop
      vertex 300 196.35 6.35
      vertex 304.568 193.384 6.35
      vertex 304.33 193.85 6.35
    endloop
  endfacet
  facet normal 0 0 1
    outer loop
      vertex 300 196.35 6.35
      vertex 304.33 193.85 6.35
      vertex 304.045 194.289 6.35
    endloop
  endfacet
  facet normal 0 0 1
    outer loop
      vertex 300 196.35 6.35
      vertex 304.045 194.289 6.35
      vertex 303.716 194.696 6.35
    endloop
  endfacet
  facet normal 0 0 1
    outer loop
      vertex 300 196.35 6.35
      vertex 303.716 194.696 6.35
      vertex 303.346 195.066 6.35
    endloop
  endfacet
  facet normal 0 0 1
    outer loop
      vertex 300 196.35 6.35
      vertex 303.346 195.066 6.35
      vertex 302.939 195.395 6.35
    endloop
  endfacet
  facet normal 0 0 1
    outer loop
      vertex 300 196.35 6.35
      vertex 302.939 195.395 6.35
      vertex 302.5 195.68 6.35
    endloop
  endfacet
  facet normal 0 0 1
    outer loop
      vertex 300 196.35 6.35
      vertex 302.5 195.68 6.35
      vertex 302.034 195.918 6.35
    endloop
  endfacet
  facet normal 0 0 1
    outer loop
      vertex 300 196.35 6.35
      vertex 302.034 195.918 6.35
      vertex 301.545 196.105 6.35
    endloop
  endfacet
  facet normal 0 0 1
    outer loop
      vertex 300 196.35 6.35
      vertex 301.545 196.105 6.35
      vertex 301.04 196.241 6.35
    endloop
  endfacet
  facet normal 0 0 1
    outer loop
      vertex 300 196.35 6.35
      vertex 301.04 196.241 6.35
      vertex 300.523 196.323 6.35
    endloop
  endfacet
  facet normal 0 0 1
    outer loop
      vertex 305 191.35 6.35
      vertex 300 196.35 6.35
      vertex 305 -233.725 6.35
    endloop
  endfacet
  facet normal -0 0 1
    outer loop
      vertex -300 196.35 6.35
      vertex 305 -233.725 6.35
      vertex 300 196.35 6.35
    endloop
  endfacet
  facet normal 0 0 1
    outer loop
      vertex -305 191.35 6.35
      vertex -300 196.35 6.35
      vertex -300.523 196.323 6.35
    endloop
  endfacet
  facet normal 0 0 1
    outer loop
      vertex -305 191.35 6.35
      vertex -300.523 196.323 6.35
      vertex -301.04 196.241 6.35
    endloop
  endfacet
  facet normal 0 0 1
    outer loop
      vertex -305 191.35 6.35
      vertex -301.04 196.241 6.35
      vertex -301.545 196.105 6.35
    endloop
  endfacet
  facet normal 0 0 1
    outer loop
      vertex -305 191.35 6.35
      vertex -301.545 196.105 6.35
      vertex -302.034 195.918 6.35
    endloop
  endfacet
  facet normal 0 0 1
    outer loop
      vertex -305 191.35 6.35
      vertex -302.034 195.918 6.35
      vertex -302.5 195.68 6.35
    endloop
  endfacet
  facet normal 0 0 1
    outer loop
      vertex -305 191.35 6.35
      vertex -302.5 195.68 6.35
      vertex -302.939 195.395 6.35
    endloop
  endfacet
  facet normal 0 0 1
    outer loop
      vertex -305 191.35 6.35
      vertex -302.939 195.395 6.35
      vertex -303.346 195.066 6.35
    endloop
  endfacet
  facet normal 0 0 1
    outer loop
      vertex -305 191.35 6.35
      vertex -303.346 195.066 6.35
      vertex -303.716 194.696 6.35
    endloop
  endfacet
  facet normal 0 0 1
    outer loop
      vertex -305 191.35 6.35
      vertex -303.716 194.696 6.35
      vertex -304.045 194.289 6.35
    endloop
  endfacet
  facet normal 0 0 1
    outer loop
      vertex -305 191.35 6.35
      vertex -304.045 194.289 6.35
      vertex -304.33 193.85 6.35
    endloop
  endfacet
  facet normal 0 0 1
    outer loop
      vertex -305 191.35 6.35
      vertex -304.33 193.85 6.35
      vertex -304.568 193.384 6.35
    endloop
  endfacet
  facet normal 0 0 1
    outer loop
      vertex -305 191.35 6.35
      vertex -304.568 193.384 6.35
      vertex -304.755 192.895 6.35
    endloop
  endfacet
  facet normal 0 0 1
    outer loop
      vertex -305 191.35 6.35
      vertex -304.755 192.895 6.35
      vertex -304.891 192.39 6.35
    endloop
  endfacet
  facet normal 0 0 1
    outer loop
      vertex -305 191.35 6.35
      vertex -304.891 192.39 6.35
      vertex -304.973 191.873 6.35
    endloop
  endfacet
  facet normal 0 0 1
    outer loop
      vertex -300 196.35 6.35
      vertex -305 191.35 6.35
      vertex -305 -233.725 6.35
    endloop
  endfacet
  facet normal 0 0 1
    outer loop
      vertex -300 196.35 6.35
      vertex -305 -233.725 6.35
      vertex 305 -233.725 6.35
    endloop
  endfacet
  facet normal 0 0 -1
    outer loop
      vertex 300 196.35 0
      vertex 305 191.35 0
      vertex 305 -233.725 0
    endloop
  endfacet
  facet normal 0 0 -1
    outer loop
      vertex 305 191.35 0
      vertex 300 196.35 0
      vertex 304.973 191.873 0
    endloop
  endfacet
  facet normal 0 0 -1
    outer loop
      vertex 304.973 191.873 0
      vertex 300 196.35 0
      vertex 304.891 192.39 0
    endloop
  endfacet
  facet normal 0 0 -1
    outer loop
      vertex 304.891 192.39 0
      vertex 300 196.35 0
      vertex 304.755 192.895 0
    endloop
  endfacet
  facet normal 0 0 -1
    outer loop
      vertex 304.755 192.895 0
      vertex 300 196.35 0
      vertex 304.568 193.384 0
    endloop
  endfacet
  facet normal 0 0 -1
    outer loop
      vertex 304.568 193.384 0
      vertex 300 196.35 0
      vertex 304.33 193.85 0
    endloop
  endfacet
  facet normal 0 0 -1
    outer loop
      vertex 304.33 193.85 0
      vertex 300 196.35 0
      vertex 304.045 194.289 0
    endloop
  endfacet
  facet normal 0 0 -1
    outer loop
      vertex 304.045 194.289 0
      vertex 300 196.35 0
      vertex 303.716 194.696 0
    endloop
  endfacet
  facet normal 0 0 -1
    outer loop
      vertex 303.716 194.696 0
      vertex 300 196.35 0
      vertex 303.346 195.066 0
    endloop
  endfacet
  facet normal 0 0 -1
    outer loop
      vertex 303.346 195.066 0
      vertex 300 196.35 0
      vertex 302.939 195.395 0
    endloop
  endfacet
  facet normal 0 0 -1
    outer loop
      vertex 302.939 195.395 0
      vertex 300 196.35 0
      vertex 302.5 195.68 0
    endloop
  endfacet
  facet normal 0 0 -1
    outer loop
      vertex 302.5 195.68 0
      vertex 300 196.35 0
      vertex 302.034 195.918 0
    endloop
  endfacet
  facet normal 0 0 -1
    outer loop
      vertex 302.034 195.918 0
      vertex 300 196.35 0
      vertex 301.545 196.105 0
    endloop
  endfacet
  facet normal 0 0 -1
    outer loop
      vertex 301.545 196.105 0
      vertex 300 196.35 0
      vertex 301.04 196.241 0
    endloop
  endfacet
  facet normal 0 0 -1
    outer loop
      vertex 301.04 196.241 0
      vertex 300 196.35 0
      vertex 300.523 196.323 0
    endloop
  endfacet
  facet normal 0 0 -1
    outer loop
      vertex 305 -233.725 0
      vertex -300 196.35 0
      vertex 300 196.35 0
    endloop
  endfacet
  facet normal 0 0 -1
    outer loop
      vertex -305 -233.725 0
      vertex -300 196.35 0
      vertex 305 -233.725 0
    endloop
  endfacet
  facet normal 0 0 -1
    outer loop
      vertex -305 191.35 0
      vertex -300 196.35 0
      vertex -305 -233.725 0
    endloop
  endfacet
  facet normal 0 0 -1
    outer loop
      vertex -300 196.35 0
      vertex -305 191.35 0
      vertex -300.523 196.323 0
    endloop
  endfacet
  facet normal 0 0 -1
    outer loop
      vertex -300.523 196.323 0
      vertex -305 191.35 0
      vertex -301.04 196.241 0
    endloop
  endfacet
  facet normal 0 0 -1
    outer loop
      vertex -301.545 196.105 0
      vertex -305 191.35 0
      vertex -302.034 195.918 0
    endloop
  endfacet
  facet normal 0 0 -1
    outer loop
      vertex -302.034 195.918 0
      vertex -305 191.35 0
      vertex -302.5 195.68 0
    endloop
  endfacet
  facet normal 0 0 -1
    outer loop
      vertex -302.5 195.68 0
      vertex -305 191.35 0
      vertex -302.939 195.395 0
    endloop
  endfacet
  facet normal 0 0 -1
    outer loop
      vertex -302.939 195.395 0
      vertex -305 191.35 0
      vertex -303.346 195.066 0
    endloop
  endfacet
  facet normal 0 0 -1
    outer loop
      vertex -303.346 195.066 0
      vertex -305 191.35 0
      vertex -303.716 194.696 0
    endloop
  endfacet
  facet normal 0 0 -1
    outer loop
      vertex -303.716 194.696 0
      vertex -305 191.35 0
      vertex -304.045 194.289 0
    endloop
  endfacet
  facet normal 0 0 -1
    outer loop
      vertex -304.045 194.289 0
      vertex -305 191.35 0
      vertex -304.33 193.85 0
    endloop
  endfacet
  facet normal 0 0 -1
    outer loop
      vertex -304.33 193.85 0
      vertex -305 191.35 0
      vertex -304.568 193.384 0
    endloop
  endfacet
  facet normal 0 0 -1
    outer loop
      vertex -304.568 193.384 0
      vertex -305 191.35 0
      vertex -304.755 192.895 0
    endloop
  endfacet
  facet normal 0 0 -1
    outer loop
      vertex -304.755 192.895 0
      vertex -305 191.35 0
      vertex -304.891 192.39 0
    endloop
  endfacet
  facet normal 0 0 -1
    outer loop
      vertex -301.04 196.241 0
      vertex -305 191.35 0
      vertex -301.545 196.105 0
    endloop
  endfacet
  facet normal 0 0 -1
    outer loop
      vertex -304.891 192.39 0
      vertex -305 191.35 0
      vertex -304.973 191.873 0
    endloop
  endfacet
  facet normal -0.0515566 0.99867 0
    outer loop
      vertex -300 196.35 0
      vertex -300.523 196.323 6.35
      vertex -300 196.35 6.35
    endloop
  endfacet
  facet normal -0.0515566 0.99867 0
    outer loop
      vertex -300.523 196.323 6.35
      vertex -300 196.35 0
      vertex -300.523 196.323 0
    endloop
  endfacet
  facet normal 0.0515566 0.99867 -0
    outer loop
      vertex 300.523 196.323 0
      vertex 300 196.35 6.35
      vertex 300.523 196.323 6.35
    endloop
  endfacet
  facet normal 0.0515566 0.99867 0
    outer loop
      vertex 300 196.35 6.35
      vertex 300.523 196.323 0
      vertex 300 196.35 0
    endloop
  endfacet
  facet normal -0.628648 0.77769 0
    outer loop
      vertex -302.939 195.395 0
      vertex -303.346 195.066 6.35
      vertex -302.939 195.395 6.35
    endloop
  endfacet
  facet normal -0.628648 0.77769 0
    outer loop
      vertex -303.346 195.066 6.35
      vertex -302.939 195.395 0
      vertex -303.346 195.066 0
    endloop
  endfacet
  facet normal 0 1 -0
    outer loop
      vertex 300 196.35 0
      vertex -300 196.35 6.35
      vertex 300 196.35 6.35
    endloop
  endfacet
  facet normal 0 1 0
    outer loop
      vertex -300 196.35 6.35
      vertex 300 196.35 0
      vertex -300 196.35 0
    endloop
  endfacet
  facet normal -1 0 0
    outer loop
      vertex -305 -233.725 0
      vertex -305 191.35 6.35
      vertex -305 191.35 0
    endloop
  endfacet
  facet normal -1 -0 0
    outer loop
      vertex -305 191.35 6.35
      vertex -305 -233.725 0
      vertex -305 -233.725 6.35
    endloop
  endfacet
  facet normal 1 -0 0
    outer loop
      vertex 305 -233.725 6.35
      vertex 305 191.35 0
      vertex 305 191.35 6.35
    endloop
  endfacet
  facet normal 1 0 0
    outer loop
      vertex 305 191.35 0
      vertex 305 -233.725 6.35
      vertex 305 -233.725 0
    endloop
  endfacet
  facet normal 0.628648 0.77769 -0
    outer loop
      vertex 303.346 195.066 0
      vertex 302.939 195.395 6.35
      vertex 303.346 195.066 6.35
    endloop
  endfacet
  facet normal 0.628648 0.77769 0
    outer loop
      vertex 302.939 195.395 6.35
      vertex 303.346 195.066 0
      vertex 302.939 195.395 0
    endloop
  endfacet
  facet normal 0.357186 0.934033 -0
    outer loop
      vertex 302.034 195.918 0
      vertex 301.545 196.105 6.35
      vertex 302.034 195.918 6.35
    endloop
  endfacet
  facet normal 0.357186 0.934033 0
    outer loop
      vertex 301.545 196.105 6.35
      vertex 302.034 195.918 0
      vertex 301.545 196.105 0
    endloop
  endfacet
  facet normal -0.965597 0.260042 0
    outer loop
      vertex -304.891 192.39 0
      vertex -304.755 192.895 6.35
      vertex -304.755 192.895 0
    endloop
  endfacet
  facet normal -0.965597 0.260042 0
    outer loop
      vertex -304.755 192.895 6.35
      vertex -304.891 192.39 0
      vertex -304.891 192.39 6.35
    endloop
  endfacet
  facet normal 0.260042 0.965597 -0
    outer loop
      vertex 301.545 196.105 0
      vertex 301.04 196.241 6.35
      vertex 301.545 196.105 6.35
    endloop
  endfacet
  facet normal 0.260042 0.965597 0
    outer loop
      vertex 301.04 196.241 6.35
      vertex 301.545 196.105 0
      vertex 301.04 196.241 0
    endloop
  endfacet
  facet normal -0.544518 0.838749 0
    outer loop
      vertex -302.5 195.68 0
      vertex -302.939 195.395 6.35
      vertex -302.5 195.68 6.35
    endloop
  endfacet
  facet normal -0.544518 0.838749 0
    outer loop
      vertex -302.939 195.395 6.35
      vertex -302.5 195.68 0
      vertex -302.939 195.395 0
    endloop
  endfacet
  facet normal -0.357186 0.934033 0
    outer loop
      vertex -301.545 196.105 0
      vertex -302.034 195.918 6.35
      vertex -301.545 196.105 6.35
    endloop
  endfacet
  facet normal -0.357186 0.934033 0
    outer loop
      vertex -302.034 195.918 6.35
      vertex -301.545 196.105 0
      vertex -302.034 195.918 0
    endloop
  endfacet
  facet normal -0.99867 0.0515566 0
    outer loop
      vertex -305 191.35 0
      vertex -304.973 191.873 6.35
      vertex -304.973 191.873 0
    endloop
  endfacet
  facet normal -0.99867 0.0515566 0
    outer loop
      vertex -304.973 191.873 6.35
      vertex -305 191.35 0
      vertex -305 191.35 6.35
    endloop
  endfacet
  facet normal -0.934033 0.357186 0
    outer loop
      vertex -304.755 192.895 0
      vertex -304.568 193.384 6.35
      vertex -304.568 193.384 0
    endloop
  endfacet
  facet normal -0.934033 0.357186 0
    outer loop
      vertex -304.568 193.384 6.35
      vertex -304.755 192.895 0
      vertex -304.755 192.895 6.35
    endloop
  endfacet
  facet normal -0.987654 0.156649 0
    outer loop
      vertex -304.973 191.873 0
      vertex -304.891 192.39 6.35
      vertex -304.891 192.39 0
    endloop
  endfacet
  facet normal -0.987654 0.156649 0
    outer loop
      vertex -304.891 192.39 6.35
      vertex -304.973 191.873 0
      vertex -304.973 191.873 6.35
    endloop
  endfacet
  facet normal 0.156649 0.987654 -0
    outer loop
      vertex 301.04 196.241 0
      vertex 300.523 196.323 6.35
      vertex 301.04 196.241 6.35
    endloop
  endfacet
  facet normal 0.156649 0.987654 0
    outer loop
      vertex 300.523 196.323 6.35
      vertex 301.04 196.241 0
      vertex 300.523 196.323 0
    endloop
  endfacet
  facet normal 0.454842 0.890572 -0
    outer loop
      vertex 302.5 195.68 0
      vertex 302.034 195.918 6.35
      vertex 302.5 195.68 6.35
    endloop
  endfacet
  facet normal 0.454842 0.890572 0
    outer loop
      vertex 302.034 195.918 6.35
      vertex 302.5 195.68 0
      vertex 302.034 195.918 0
    endloop
  endfacet
  facet normal 0.544518 0.838749 -0
    outer loop
      vertex 302.939 195.395 0
      vertex 302.5 195.68 6.35
      vertex 302.939 195.395 6.35
    endloop
  endfacet
  facet normal 0.544518 0.838749 0
    outer loop
      vertex 302.5 195.68 6.35
      vertex 302.939 195.395 0
      vertex 302.5 195.68 0
    endloop
  endfacet
  facet normal -0.454842 0.890572 0
    outer loop
      vertex -302.034 195.918 0
      vertex -302.5 195.68 6.35
      vertex -302.034 195.918 6.35
    endloop
  endfacet
  facet normal -0.454842 0.890572 0
    outer loop
      vertex -302.5 195.68 6.35
      vertex -302.034 195.918 0
      vertex -302.5 195.68 0
    endloop
  endfacet
  facet normal -0.890572 0.454842 0
    outer loop
      vertex -304.568 193.384 0
      vertex -304.33 193.85 6.35
      vertex -304.33 193.85 0
    endloop
  endfacet
  facet normal -0.890572 0.454842 0
    outer loop
      vertex -304.33 193.85 6.35
      vertex -304.568 193.384 0
      vertex -304.568 193.384 6.35
    endloop
  endfacet
  facet normal 0.890572 0.454842 0
    outer loop
      vertex 304.568 193.384 6.35
      vertex 304.33 193.85 0
      vertex 304.33 193.85 6.35
    endloop
  endfacet
  facet normal 0.890572 0.454842 0
    outer loop
      vertex 304.33 193.85 0
      vertex 304.568 193.384 6.35
      vertex 304.568 193.384 0
    endloop
  endfacet
  facet normal 0.965597 0.260042 0
    outer loop
      vertex 304.891 192.39 6.35
      vertex 304.755 192.895 0
      vertex 304.755 192.895 6.35
    endloop
  endfacet
  facet normal 0.965597 0.260042 0
    outer loop
      vertex 304.755 192.895 0
      vertex 304.891 192.39 6.35
      vertex 304.891 192.39 0
    endloop
  endfacet
  facet normal 0.934033 0.357186 0
    outer loop
      vertex 304.755 192.895 6.35
      vertex 304.568 193.384 0
      vertex 304.568 193.384 6.35
    endloop
  endfacet
  facet normal 0.934033 0.357186 0
    outer loop
      vertex 304.568 193.384 0
      vertex 304.755 192.895 6.35
      vertex 304.755 192.895 0
    endloop
  endfacet
  facet normal -0.707107 0.707107 0
    outer loop
      vertex -303.346 195.066 0
      vertex -303.716 194.696 6.35
      vertex -303.346 195.066 6.35
    endloop
  endfacet
  facet normal -0.707107 0.707107 0
    outer loop
      vertex -303.716 194.696 6.35
      vertex -303.346 195.066 0
      vertex -303.716 194.696 0
    endloop
  endfacet
  facet normal -0.77769 0.628648 0
    outer loop
      vertex -304.045 194.289 0
      vertex -303.716 194.696 6.35
      vertex -303.716 194.696 0
    endloop
  endfacet
  facet normal -0.77769 0.628648 0
    outer loop
      vertex -303.716 194.696 6.35
      vertex -304.045 194.289 0
      vertex -304.045 194.289 6.35
    endloop
  endfacet
  facet normal 0.707107 0.707107 -0
    outer loop
      vertex 303.716 194.696 0
      vertex 303.346 195.066 6.35
      vertex 303.716 194.696 6.35
    endloop
  endfacet
  facet normal 0.707107 0.707107 0
    outer loop
      vertex 303.346 195.066 6.35
      vertex 303.716 194.696 0
      vertex 303.346 195.066 0
    endloop
  endfacet
  facet normal 0.77769 0.628648 0
    outer loop
      vertex 304.045 194.289 6.35
      vertex 303.716 194.696 0
      vertex 303.716 194.696 6.35
    endloop
  endfacet
  facet normal 0.77769 0.628648 0
    outer loop
      vertex 303.716 194.696 0
      vertex 304.045 194.289 6.35
      vertex 304.045 194.289 0
    endloop
  endfacet
  facet normal 0.838749 0.544518 0
    outer loop
      vertex 304.33 193.85 6.35
      vertex 304.045 194.289 0
      vertex 304.045 194.289 6.35
    endloop
  endfacet
  facet normal 0.838749 0.544518 0
    outer loop
      vertex 304.045 194.289 0
      vertex 304.33 193.85 6.35
      vertex 304.33 193.85 0
    endloop
  endfacet
  facet normal 0.987654 0.156649 0
    outer loop
      vertex 304.973 191.873 6.35
      vertex 304.891 192.39 0
      vertex 304.891 192.39 6.35
    endloop
  endfacet
  facet normal 0.987654 0.156649 0
    outer loop
      vertex 304.891 192.39 0
      vertex 304.973 191.873 6.35
      vertex 304.973 191.873 0
    endloop
  endfacet
  facet normal 0.99867 0.0515566 0
    outer loop
      vertex 305 191.35 6.35
      vertex 304.973 191.873 0
      vertex 304.973 191.873 6.35
    endloop
  endfacet
  facet normal 0.99867 0.0515566 0
    outer loop
      vertex 304.973 191.873 0
      vertex 305 191.35 6.35
      vertex 305 191.35 0
    endloop
  endfacet
  facet normal -0.838749 0.544518 0
    outer loop
      vertex -304.33 193.85 0
      vertex -304.045 194.289 6.35
      vertex -304.045 194.289 0
    endloop
  endfacet
  facet normal -0.838749 0.544518 0
    outer loop
      vertex -304.045 194.289 6.35
      vertex -304.33 193.85 0
      vertex -304.33 193.85 6.35
    endloop
  endfacet
  facet normal -0.260042 0.965597 0
    outer loop
      vertex -301.04 196.241 0
      vertex -301.545 196.105 6.35
      vertex -301.04 196.241 6.35
    endloop
  endfacet
  facet normal -0.260042 0.965597 0
    outer loop
      vertex -301.545 196.105 6.35
      vertex -301.04 196.241 0
      vertex -301.545 196.105 0
    endloop
  endfacet
  facet normal -0.156649 0.987654 0
    outer loop
      vertex -300.523 196.323 0
      vertex -301.04 196.241 6.35
      vertex -300.523 196.323 6.35
    endloop
  endfacet
  facet normal -0.156649 0.987654 0
    outer loop
      vertex -301.04 196.241 6.35
      vertex -300.523 196.323 0
      vertex -301.04 196.241 0
    endloop
  endfacet
endsolid OpenSCAD_Model
