  0
SECTION
  2
BLOCKS
  0
ENDSEC
  0
SECTION
  2
ENTITIES
  0
LINE
  8
0
 10
-121.848
 20
-460.096
 11
-121.678
 21
-461.39
  0
LINE
  8
0
 10
-121.678
 20
-461.39
 11
-121.178
 21
-462.596
  0
LINE
  8
0
 10
-121.178
 20
-462.596
 11
-120.384
 21
-463.631
  0
LINE
  8
0
 10
-120.384
 20
-463.631
 11
-119.348
 21
-464.426
  0
LINE
  8
0
 10
-119.348
 20
-464.426
 11
-118.142
 21
-464.925
  0
LINE
  8
0
 10
-118.142
 20
-464.925
 11
-116.848
 21
-465.096
  0
LINE
  8
0
 10
-116.848
 20
-465.096
 11
436.852
 21
-465.096
  0
LINE
  8
0
 10
436.852
 20
-465.096
 11
459.431
 21
-455.619
  0
LINE
  8
0
 10
459.431
 20
-455.619
 11
460.72
 21
-455.014
  0
LINE
  8
0
 10
460.72
 20
-455.014
 11
461.954
 21
-454.302
  0
LINE
  8
0
 10
461.954
 20
-454.302
 11
463.124
 21
-453.49
  0
LINE
  8
0
 10
463.124
 20
-453.49
 11
464.222
 21
-452.582
  0
LINE
  8
0
 10
464.222
 20
-452.582
 11
465.24
 21
-451.586
  0
LINE
  8
0
 10
465.24
 20
-451.586
 11
466.171
 21
-450.508
  0
LINE
  8
0
 10
466.171
 20
-450.508
 11
467.009
 21
-449.356
  0
LINE
  8
0
 10
467.009
 20
-449.356
 11
467.747
 21
-448.137
  0
LINE
  8
0
 10
467.747
 20
-448.137
 11
468.381
 21
-446.862
  0
LINE
  8
0
 10
468.381
 20
-446.862
 11
468.905
 21
-445.537
  0
LINE
  8
0
 10
468.905
 20
-445.537
 11
469.317
 21
-444.174
  0
LINE
  8
0
 10
469.317
 20
-444.174
 11
469.613
 21
-442.78
  0
LINE
  8
0
 10
469.613
 20
-442.78
 11
469.792
 21
-441.367
  0
LINE
  8
0
 10
469.792
 20
-441.367
 11
469.852
 21
-439.944
  0
LINE
  8
0
 10
469.852
 20
-439.944
 11
469.852
 21
-431.795
  0
LINE
  8
0
 10
469.852
 20
-431.795
 11
469.78
 21
-430.234
  0
LINE
  8
0
 10
469.78
 20
-430.234
 11
469.565
 21
-428.687
  0
LINE
  8
0
 10
469.565
 20
-428.687
 11
469.209
 21
-427.166
  0
LINE
  8
0
 10
469.209
 20
-427.166
 11
468.715
 21
-425.684
  0
LINE
  8
0
 10
468.715
 20
-425.684
 11
468.087
 21
-424.253
  0
LINE
  8
0
 10
468.087
 20
-424.253
 11
467.331
 21
-422.886
  0
LINE
  8
0
 10
467.331
 20
-422.886
 11
466.452
 21
-421.595
  0
LINE
  8
0
 10
466.452
 20
-421.595
 11
465.458
 21
-420.389
  0
LINE
  8
0
 10
465.458
 20
-420.389
 11
452.468
 21
-406.032
  0
LINE
  8
0
 10
452.468
 20
-406.032
 11
451.394
 21
-404.959
  0
LINE
  8
0
 10
451.394
 20
-404.959
 11
450.217
 21
-404.001
  0
LINE
  8
0
 10
450.217
 20
-404.001
 11
448.949
 21
-403.166
  0
LINE
  8
0
 10
448.949
 20
-403.166
 11
447.603
 21
-402.463
  0
LINE
  8
0
 10
447.603
 20
-402.463
 11
446.193
 21
-401.901
  0
LINE
  8
0
 10
446.193
 20
-401.901
 11
444.733
 21
-401.483
  0
LINE
  8
0
 10
444.733
 20
-401.483
 11
443.239
 21
-401.216
  0
LINE
  8
0
 10
443.239
 20
-401.216
 11
441.725
 21
-401.101
  0
LINE
  8
0
 10
441.725
 20
-401.101
 11
440.456
 21
-400.903
  0
LINE
  8
0
 10
440.456
 20
-400.903
 11
439.279
 21
-400.389
  0
LINE
  8
0
 10
439.279
 20
-400.389
 11
438.272
 21
-399.593
  0
LINE
  8
0
 10
438.272
 20
-399.593
 11
437.501
 21
-398.565
  0
LINE
  8
0
 10
437.501
 20
-398.565
 11
437.017
 21
-397.376
  0
LINE
  8
0
 10
437.017
 20
-397.376
 11
436.852
 21
-396.102
  0
LINE
  8
0
 10
436.852
 20
-396.102
 11
436.852
 21
-66.3893
  0
LINE
  8
0
 10
436.852
 20
-66.3893
 11
437.017
 21
-65.1156
  0
LINE
  8
0
 10
437.017
 20
-65.1156
 11
437.501
 21
-63.926
  0
LINE
  8
0
 10
437.501
 20
-63.926
 11
438.272
 21
-62.8988
  0
LINE
  8
0
 10
438.272
 20
-62.8988
 11
439.279
 21
-62.102
  0
LINE
  8
0
 10
439.279
 20
-62.102
 11
440.456
 21
-61.5881
  0
LINE
  8
0
 10
440.456
 20
-61.5881
 11
441.725
 21
-61.3909
  0
LINE
  8
0
 10
441.725
 20
-61.3909
 11
443.239
 21
-61.2757
  0
LINE
  8
0
 10
443.239
 20
-61.2757
 11
444.733
 21
-61.008
  0
LINE
  8
0
 10
444.733
 20
-61.008
 11
446.193
 21
-60.5907
  0
LINE
  8
0
 10
446.193
 20
-60.5907
 11
447.603
 21
-60.028
  0
LINE
  8
0
 10
447.603
 20
-60.028
 11
448.949
 21
-59.3256
  0
LINE
  8
0
 10
448.949
 20
-59.3256
 11
450.217
 21
-58.4908
  0
LINE
  8
0
 10
450.217
 20
-58.4908
 11
451.394
 21
-57.5322
  0
LINE
  8
0
 10
451.394
 20
-57.5322
 11
452.468
 21
-56.4594
  0
LINE
  8
0
 10
452.468
 20
-56.4594
 11
465.458
 21
-42.1021
  0
LINE
  8
0
 10
465.458
 20
-42.1021
 11
466.452
 21
-40.8967
  0
LINE
  8
0
 10
466.452
 20
-40.8967
 11
467.331
 21
-39.6052
  0
LINE
  8
0
 10
467.331
 20
-39.6052
 11
468.087
 21
-38.2384
  0
LINE
  8
0
 10
468.087
 20
-38.2384
 11
468.715
 21
-36.8079
  0
LINE
  8
0
 10
468.715
 20
-36.8079
 11
469.209
 21
-35.3258
  0
LINE
  8
0
 10
469.209
 20
-35.3258
 11
469.565
 21
-33.8046
  0
LINE
  8
0
 10
469.565
 20
-33.8046
 11
469.78
 21
-32.2572
  0
LINE
  8
0
 10
469.78
 20
-32.2572
 11
469.852
 21
-30.6966
  0
LINE
  8
0
 10
469.852
 20
-30.6966
 11
469.852
 21
-22.5474
  0
LINE
  8
0
 10
469.852
 20
-22.5474
 11
469.792
 21
-21.1242
  0
LINE
  8
0
 10
469.792
 20
-21.1242
 11
469.613
 21
-19.711
  0
LINE
  8
0
 10
469.613
 20
-19.711
 11
469.317
 21
-18.3177
  0
LINE
  8
0
 10
469.317
 20
-18.3177
 11
468.905
 21
-16.9541
  0
LINE
  8
0
 10
468.905
 20
-16.9541
 11
468.381
 21
-15.6297
  0
LINE
  8
0
 10
468.381
 20
-15.6297
 11
467.747
 21
-14.354
  0
LINE
  8
0
 10
467.747
 20
-14.354
 11
467.009
 21
-13.1357
  0
LINE
  8
0
 10
467.009
 20
-13.1357
 11
466.171
 21
-11.9836
  0
LINE
  8
0
 10
466.171
 20
-11.9836
 11
465.24
 21
-10.9056
  0
LINE
  8
0
 10
465.24
 20
-10.9056
 11
464.222
 21
-9.90935
  0
LINE
  8
0
 10
464.222
 20
-9.90935
 11
463.124
 21
-9.00183
  0
LINE
  8
0
 10
463.124
 20
-9.00183
 11
461.954
 21
-8.18942
  0
LINE
  8
0
 10
461.954
 20
-8.18942
 11
460.72
 21
-7.47781
  0
LINE
  8
0
 10
460.72
 20
-7.47781
 11
459.431
 21
-6.87201
  0
LINE
  8
0
 10
459.431
 20
-6.87201
 11
436.852
 21
2.60429
  0
LINE
  8
0
 10
436.852
 20
2.60429
 11
-116.848
 21
2.60429
  0
LINE
  8
0
 10
-116.848
 20
2.60429
 11
-118.142
 21
2.43392
  0
LINE
  8
0
 10
-118.142
 20
2.43392
 11
-119.348
 21
1.93442
  0
LINE
  8
0
 10
-119.348
 20
1.93442
 11
-120.384
 21
1.13983
  0
LINE
  8
0
 10
-120.384
 20
1.13983
 11
-121.178
 21
0.104295
  0
LINE
  8
0
 10
-121.178
 20
0.104295
 11
-121.678
 21
-1.10161
  0
LINE
  8
0
 10
-121.678
 20
-1.10161
 11
-121.848
 21
-2.3957
  0
LINE
  8
0
 10
-121.848
 20
-2.3957
 11
-121.848
 21
-49.0957
  0
LINE
  8
0
 10
-121.848
 20
-49.0957
 11
-121.678
 21
-50.3898
  0
LINE
  8
0
 10
-121.678
 20
-50.3898
 11
-121.178
 21
-51.5957
  0
LINE
  8
0
 10
-121.178
 20
-51.5957
 11
-120.384
 21
-52.6312
  0
LINE
  8
0
 10
-120.384
 20
-52.6312
 11
-119.348
 21
-53.4258
  0
LINE
  8
0
 10
-119.348
 20
-53.4258
 11
-118.142
 21
-53.9253
  0
LINE
  8
0
 10
-118.142
 20
-53.9253
 11
-116.848
 21
-54.0957
  0
LINE
  8
0
 10
-116.848
 20
-54.0957
 11
-70.8483
 21
-54.0957
  0
LINE
  8
0
 10
-70.8483
 20
-54.0957
 11
-69.5542
 21
-54.2661
  0
LINE
  8
0
 10
-69.5542
 20
-54.2661
 11
-68.3483
 21
-54.7656
  0
LINE
  8
0
 10
-68.3483
 20
-54.7656
 11
-67.3128
 21
-55.5602
  0
LINE
  8
0
 10
-67.3128
 20
-55.5602
 11
-66.5182
 21
-56.5957
  0
LINE
  8
0
 10
-66.5182
 20
-56.5957
 11
-66.0187
 21
-57.8016
  0
LINE
  8
0
 10
-66.0187
 20
-57.8016
 11
-65.8483
 21
-59.0957
  0
LINE
  8
0
 10
-65.8483
 20
-59.0957
 11
-65.8483
 21
-403.396
  0
LINE
  8
0
 10
-65.8483
 20
-403.396
 11
-66.0187
 21
-404.69
  0
LINE
  8
0
 10
-66.0187
 20
-404.69
 11
-66.5182
 21
-405.896
  0
LINE
  8
0
 10
-66.5182
 20
-405.896
 11
-67.3128
 21
-406.931
  0
LINE
  8
0
 10
-67.3128
 20
-406.931
 11
-68.3483
 21
-407.726
  0
LINE
  8
0
 10
-68.3483
 20
-407.726
 11
-69.5542
 21
-408.225
  0
LINE
  8
0
 10
-69.5542
 20
-408.225
 11
-70.8483
 21
-408.396
  0
LINE
  8
0
 10
-70.8483
 20
-408.396
 11
-116.848
 21
-408.396
  0
LINE
  8
0
 10
-116.848
 20
-408.396
 11
-118.142
 21
-408.566
  0
LINE
  8
0
 10
-118.142
 20
-408.566
 11
-119.348
 21
-409.066
  0
LINE
  8
0
 10
-119.348
 20
-409.066
 11
-120.384
 21
-409.86
  0
LINE
  8
0
 10
-120.384
 20
-409.86
 11
-121.178
 21
-410.896
  0
LINE
  8
0
 10
-121.178
 20
-410.896
 11
-121.678
 21
-412.102
  0
LINE
  8
0
 10
-121.678
 20
-412.102
 11
-121.848
 21
-413.396
  0
LINE
  8
0
 10
-121.848
 20
-413.396
 11
-121.848
 21
-460.096
  0
LINE
  8
0
 10
-114.098
 20
-452.246
 11
-114.039
 21
-451.793
  0
LINE
  8
0
 10
-114.039
 20
-451.793
 11
-113.864
 21
-451.371
  0
LINE
  8
0
 10
-113.864
 20
-451.371
 11
-113.586
 21
-451.008
  0
LINE
  8
0
 10
-113.586
 20
-451.008
 11
-113.223
 21
-450.73
  0
LINE
  8
0
 10
-113.223
 20
-450.73
 11
-112.801
 21
-450.555
  0
LINE
  8
0
 10
-112.801
 20
-450.555
 11
-112.348
 21
-450.496
  0
LINE
  8
0
 10
-112.348
 20
-450.496
 11
-106.348
 21
-450.496
  0
LINE
  8
0
 10
-106.348
 20
-450.496
 11
-105.895
 21
-450.555
  0
LINE
  8
0
 10
-105.895
 20
-450.555
 11
-105.473
 21
-450.73
  0
LINE
  8
0
 10
-105.473
 20
-450.73
 11
-105.111
 21
-451.008
  0
LINE
  8
0
 10
-105.111
 20
-451.008
 11
-104.833
 21
-451.371
  0
LINE
  8
0
 10
-104.833
 20
-451.371
 11
-104.658
 21
-451.793
  0
LINE
  8
0
 10
-104.658
 20
-451.793
 11
-104.598
 21
-452.246
  0
LINE
  8
0
 10
-104.598
 20
-452.246
 11
-104.658
 21
-452.699
  0
LINE
  8
0
 10
-104.658
 20
-452.699
 11
-104.833
 21
-453.121
  0
LINE
  8
0
 10
-104.833
 20
-453.121
 11
-105.111
 21
-453.483
  0
LINE
  8
0
 10
-105.111
 20
-453.483
 11
-105.473
 21
-453.761
  0
LINE
  8
0
 10
-105.473
 20
-453.761
 11
-105.895
 21
-453.936
  0
LINE
  8
0
 10
-105.895
 20
-453.936
 11
-106.348
 21
-453.996
  0
LINE
  8
0
 10
-106.348
 20
-453.996
 11
-112.348
 21
-453.996
  0
LINE
  8
0
 10
-112.348
 20
-453.996
 11
-112.801
 21
-453.936
  0
LINE
  8
0
 10
-112.801
 20
-453.936
 11
-113.223
 21
-453.761
  0
LINE
  8
0
 10
-113.223
 20
-453.761
 11
-113.586
 21
-453.483
  0
LINE
  8
0
 10
-113.586
 20
-453.483
 11
-113.864
 21
-453.121
  0
LINE
  8
0
 10
-113.864
 20
-453.121
 11
-114.039
 21
-452.699
  0
LINE
  8
0
 10
-114.039
 20
-452.699
 11
-114.098
 21
-452.246
  0
LINE
  8
0
 10
-114.098
 20
-421.246
 11
-114.039
 21
-420.793
  0
LINE
  8
0
 10
-114.039
 20
-420.793
 11
-113.864
 21
-420.371
  0
LINE
  8
0
 10
-113.864
 20
-420.371
 11
-113.586
 21
-420.008
  0
LINE
  8
0
 10
-113.586
 20
-420.008
 11
-113.223
 21
-419.73
  0
LINE
  8
0
 10
-113.223
 20
-419.73
 11
-112.801
 21
-419.555
  0
LINE
  8
0
 10
-112.801
 20
-419.555
 11
-112.348
 21
-419.496
  0
LINE
  8
0
 10
-112.348
 20
-419.496
 11
-106.348
 21
-419.496
  0
LINE
  8
0
 10
-106.348
 20
-419.496
 11
-105.895
 21
-419.555
  0
LINE
  8
0
 10
-105.895
 20
-419.555
 11
-105.473
 21
-419.73
  0
LINE
  8
0
 10
-105.473
 20
-419.73
 11
-105.111
 21
-420.008
  0
LINE
  8
0
 10
-105.111
 20
-420.008
 11
-104.833
 21
-420.371
  0
LINE
  8
0
 10
-104.833
 20
-420.371
 11
-104.658
 21
-420.793
  0
LINE
  8
0
 10
-104.658
 20
-420.793
 11
-104.598
 21
-421.246
  0
LINE
  8
0
 10
-104.598
 20
-421.246
 11
-104.658
 21
-421.699
  0
LINE
  8
0
 10
-104.658
 20
-421.699
 11
-104.833
 21
-422.121
  0
LINE
  8
0
 10
-104.833
 20
-422.121
 11
-105.111
 21
-422.483
  0
LINE
  8
0
 10
-105.111
 20
-422.483
 11
-105.473
 21
-422.761
  0
LINE
  8
0
 10
-105.473
 20
-422.761
 11
-105.895
 21
-422.936
  0
LINE
  8
0
 10
-105.895
 20
-422.936
 11
-106.348
 21
-422.996
  0
LINE
  8
0
 10
-106.348
 20
-422.996
 11
-112.348
 21
-422.996
  0
LINE
  8
0
 10
-112.348
 20
-422.996
 11
-112.801
 21
-422.936
  0
LINE
  8
0
 10
-112.801
 20
-422.936
 11
-113.223
 21
-422.761
  0
LINE
  8
0
 10
-113.223
 20
-422.761
 11
-113.586
 21
-422.483
  0
LINE
  8
0
 10
-113.586
 20
-422.483
 11
-113.864
 21
-422.121
  0
LINE
  8
0
 10
-113.864
 20
-422.121
 11
-114.039
 21
-421.699
  0
LINE
  8
0
 10
-114.039
 20
-421.699
 11
-114.098
 21
-421.246
  0
LINE
  8
0
 10
-114.098
 20
-41.2457
 11
-114.039
 21
-40.7928
  0
LINE
  8
0
 10
-114.039
 20
-40.7928
 11
-113.864
 21
-40.3707
  0
LINE
  8
0
 10
-113.864
 20
-40.3707
 11
-113.586
 21
-40.0083
  0
LINE
  8
0
 10
-113.586
 20
-40.0083
 11
-113.223
 21
-39.7302
  0
LINE
  8
0
 10
-113.223
 20
-39.7302
 11
-112.801
 21
-39.5553
  0
LINE
  8
0
 10
-112.801
 20
-39.5553
 11
-112.348
 21
-39.4957
  0
LINE
  8
0
 10
-112.348
 20
-39.4957
 11
-106.348
 21
-39.4957
  0
LINE
  8
0
 10
-106.348
 20
-39.4957
 11
-105.895
 21
-39.5553
  0
LINE
  8
0
 10
-105.895
 20
-39.5553
 11
-105.473
 21
-39.7302
  0
LINE
  8
0
 10
-105.473
 20
-39.7302
 11
-105.111
 21
-40.0083
  0
LINE
  8
0
 10
-105.111
 20
-40.0083
 11
-104.833
 21
-40.3707
  0
LINE
  8
0
 10
-104.833
 20
-40.3707
 11
-104.658
 21
-40.7928
  0
LINE
  8
0
 10
-104.658
 20
-40.7928
 11
-104.598
 21
-41.2457
  0
LINE
  8
0
 10
-104.598
 20
-41.2457
 11
-104.658
 21
-41.6986
  0
LINE
  8
0
 10
-104.658
 20
-41.6986
 11
-104.833
 21
-42.1207
  0
LINE
  8
0
 10
-104.833
 20
-42.1207
 11
-105.111
 21
-42.4831
  0
LINE
  8
0
 10
-105.111
 20
-42.4831
 11
-105.473
 21
-42.7612
  0
LINE
  8
0
 10
-105.473
 20
-42.7612
 11
-105.895
 21
-42.9361
  0
LINE
  8
0
 10
-105.895
 20
-42.9361
 11
-106.348
 21
-42.9957
  0
LINE
  8
0
 10
-106.348
 20
-42.9957
 11
-112.348
 21
-42.9957
  0
LINE
  8
0
 10
-112.348
 20
-42.9957
 11
-112.801
 21
-42.9361
  0
LINE
  8
0
 10
-112.801
 20
-42.9361
 11
-113.223
 21
-42.7612
  0
LINE
  8
0
 10
-113.223
 20
-42.7612
 11
-113.586
 21
-42.4831
  0
LINE
  8
0
 10
-113.586
 20
-42.4831
 11
-113.864
 21
-42.1207
  0
LINE
  8
0
 10
-113.864
 20
-42.1207
 11
-114.039
 21
-41.6986
  0
LINE
  8
0
 10
-114.039
 20
-41.6986
 11
-114.098
 21
-41.2457
  0
LINE
  8
0
 10
-114.098
 20
-10.2457
 11
-114.039
 21
-9.79277
  0
LINE
  8
0
 10
-114.039
 20
-9.79277
 11
-113.864
 21
-9.3707
  0
LINE
  8
0
 10
-113.864
 20
-9.3707
 11
-113.586
 21
-9.00827
  0
LINE
  8
0
 10
-113.586
 20
-9.00827
 11
-113.223
 21
-8.73016
  0
LINE
  8
0
 10
-113.223
 20
-8.73016
 11
-112.801
 21
-8.55534
  0
LINE
  8
0
 10
-112.801
 20
-8.55534
 11
-112.348
 21
-8.4957
  0
LINE
  8
0
 10
-112.348
 20
-8.4957
 11
-106.348
 21
-8.4957
  0
LINE
  8
0
 10
-106.348
 20
-8.4957
 11
-105.895
 21
-8.55534
  0
LINE
  8
0
 10
-105.895
 20
-8.55534
 11
-105.473
 21
-8.73016
  0
LINE
  8
0
 10
-105.473
 20
-8.73016
 11
-105.111
 21
-9.00827
  0
LINE
  8
0
 10
-105.111
 20
-9.00827
 11
-104.833
 21
-9.3707
  0
LINE
  8
0
 10
-104.833
 20
-9.3707
 11
-104.658
 21
-9.79277
  0
LINE
  8
0
 10
-104.658
 20
-9.79277
 11
-104.598
 21
-10.2457
  0
LINE
  8
0
 10
-104.598
 20
-10.2457
 11
-104.658
 21
-10.6986
  0
LINE
  8
0
 10
-104.658
 20
-10.6986
 11
-104.833
 21
-11.1207
  0
LINE
  8
0
 10
-104.833
 20
-11.1207
 11
-105.111
 21
-11.4831
  0
LINE
  8
0
 10
-105.111
 20
-11.4831
 11
-105.473
 21
-11.7612
  0
LINE
  8
0
 10
-105.473
 20
-11.7612
 11
-105.895
 21
-11.9361
  0
LINE
  8
0
 10
-105.895
 20
-11.9361
 11
-106.348
 21
-11.9957
  0
LINE
  8
0
 10
-106.348
 20
-11.9957
 11
-112.348
 21
-11.9957
  0
LINE
  8
0
 10
-112.348
 20
-11.9957
 11
-112.801
 21
-11.9361
  0
LINE
  8
0
 10
-112.801
 20
-11.9361
 11
-113.223
 21
-11.7612
  0
LINE
  8
0
 10
-113.223
 20
-11.7612
 11
-113.586
 21
-11.4831
  0
LINE
  8
0
 10
-113.586
 20
-11.4831
 11
-113.864
 21
-11.1207
  0
LINE
  8
0
 10
-113.864
 20
-11.1207
 11
-114.039
 21
-10.6986
  0
LINE
  8
0
 10
-114.039
 20
-10.6986
 11
-114.098
 21
-10.2457
  0
LINE
  8
0
 10
-110.098
 20
-436.746
 11
-110.048
 21
-435.591
  0
LINE
  8
0
 10
-110.048
 20
-435.591
 11
-109.897
 21
-434.445
  0
LINE
  8
0
 10
-109.897
 20
-434.445
 11
-109.647
 21
-433.316
  0
LINE
  8
0
 10
-109.647
 20
-433.316
 11
-109.299
 21
-432.214
  0
LINE
  8
0
 10
-109.299
 20
-432.214
 11
-108.857
 21
-431.146
  0
LINE
  8
0
 10
-108.857
 20
-431.146
 11
-108.323
 21
-430.121
  0
LINE
  8
0
 10
-108.323
 20
-430.121
 11
-107.702
 21
-429.146
  0
LINE
  8
0
 10
-107.702
 20
-429.146
 11
-106.998
 21
-428.229
  0
LINE
  8
0
 10
-106.998
 20
-428.229
 11
-106.217
 21
-427.377
  0
LINE
  8
0
 10
-106.217
 20
-427.377
 11
-105.365
 21
-426.596
  0
LINE
  8
0
 10
-105.365
 20
-426.596
 11
-104.448
 21
-425.892
  0
LINE
  8
0
 10
-104.448
 20
-425.892
 11
-103.473
 21
-425.271
  0
LINE
  8
0
 10
-103.473
 20
-425.271
 11
-102.448
 21
-424.737
  0
LINE
  8
0
 10
-102.448
 20
-424.737
 11
-101.38
 21
-424.295
  0
LINE
  8
0
 10
-101.38
 20
-424.295
 11
-100.278
 21
-423.947
  0
LINE
  8
0
 10
-100.278
 20
-423.947
 11
-99.1491
 21
-423.697
  0
LINE
  8
0
 10
-99.1491
 20
-423.697
 11
-98.0031
 21
-423.546
  0
LINE
  8
0
 10
-98.0031
 20
-423.546
 11
-96.8483
 21
-423.496
  0
LINE
  8
0
 10
-96.8483
 20
-423.496
 11
-90.8483
 21
-423.496
  0
LINE
  8
0
 10
-90.8483
 20
-423.496
 11
-89.6935
 21
-423.546
  0
LINE
  8
0
 10
-89.6935
 20
-423.546
 11
-88.5475
 21
-423.697
  0
LINE
  8
0
 10
-88.5475
 20
-423.697
 11
-87.4189
 21
-423.947
  0
LINE
  8
0
 10
-87.4189
 20
-423.947
 11
-86.3165
 21
-424.295
  0
LINE
  8
0
 10
-86.3165
 20
-424.295
 11
-85.2486
 21
-424.737
  0
LINE
  8
0
 10
-85.2486
 20
-424.737
 11
-84.2233
 21
-425.271
  0
LINE
  8
0
 10
-84.2233
 20
-425.271
 11
-83.2484
 21
-425.892
  0
LINE
  8
0
 10
-83.2484
 20
-425.892
 11
-82.3314
 21
-426.596
  0
LINE
  8
0
 10
-82.3314
 20
-426.596
 11
-81.4791
 21
-427.377
  0
LINE
  8
0
 10
-81.4791
 20
-427.377
 11
-80.6982
 21
-428.229
  0
LINE
  8
0
 10
-80.6982
 20
-428.229
 11
-79.9945
 21
-429.146
  0
LINE
  8
0
 10
-79.9945
 20
-429.146
 11
-79.3735
 21
-430.121
  0
LINE
  8
0
 10
-79.3735
 20
-430.121
 11
-78.8397
 21
-431.146
  0
LINE
  8
0
 10
-78.8397
 20
-431.146
 11
-78.3974
 21
-432.214
  0
LINE
  8
0
 10
-78.3974
 20
-432.214
 11
-78.0498
 21
-433.316
  0
LINE
  8
0
 10
-78.0498
 20
-433.316
 11
-77.7996
 21
-434.445
  0
LINE
  8
0
 10
-77.7996
 20
-434.445
 11
-77.6487
 21
-435.591
  0
LINE
  8
0
 10
-77.6487
 20
-435.591
 11
-77.5983
 21
-436.746
  0
LINE
  8
0
 10
-77.5983
 20
-436.746
 11
-77.6487
 21
-437.901
  0
LINE
  8
0
 10
-77.6487
 20
-437.901
 11
-77.7996
 21
-439.047
  0
LINE
  8
0
 10
-77.7996
 20
-439.047
 11
-78.0498
 21
-440.175
  0
LINE
  8
0
 10
-78.0498
 20
-440.175
 11
-78.3974
 21
-441.277
  0
LINE
  8
0
 10
-78.3974
 20
-441.277
 11
-78.8397
 21
-442.345
  0
LINE
  8
0
 10
-78.8397
 20
-442.345
 11
-79.3735
 21
-443.371
  0
LINE
  8
0
 10
-79.3735
 20
-443.371
 11
-79.9945
 21
-444.346
  0
LINE
  8
0
 10
-79.9945
 20
-444.346
 11
-80.6982
 21
-445.263
  0
LINE
  8
0
 10
-80.6982
 20
-445.263
 11
-81.4791
 21
-446.115
  0
LINE
  8
0
 10
-81.4791
 20
-446.115
 11
-82.3314
 21
-446.896
  0
LINE
  8
0
 10
-82.3314
 20
-446.896
 11
-83.2484
 21
-447.599
  0
LINE
  8
0
 10
-83.2484
 20
-447.599
 11
-84.2233
 21
-448.221
  0
LINE
  8
0
 10
-84.2233
 20
-448.221
 11
-85.2486
 21
-448.754
  0
LINE
  8
0
 10
-85.2486
 20
-448.754
 11
-86.3165
 21
-449.197
  0
LINE
  8
0
 10
-86.3165
 20
-449.197
 11
-87.4189
 21
-449.544
  0
LINE
  8
0
 10
-87.4189
 20
-449.544
 11
-88.5475
 21
-449.794
  0
LINE
  8
0
 10
-88.5475
 20
-449.794
 11
-89.6935
 21
-449.945
  0
LINE
  8
0
 10
-89.6935
 20
-449.945
 11
-90.8483
 21
-449.996
  0
LINE
  8
0
 10
-90.8483
 20
-449.996
 11
-96.8483
 21
-449.996
  0
LINE
  8
0
 10
-96.8483
 20
-449.996
 11
-98.0031
 21
-449.945
  0
LINE
  8
0
 10
-98.0031
 20
-449.945
 11
-99.1491
 21
-449.794
  0
LINE
  8
0
 10
-99.1491
 20
-449.794
 11
-100.278
 21
-449.544
  0
LINE
  8
0
 10
-100.278
 20
-449.544
 11
-101.38
 21
-449.197
  0
LINE
  8
0
 10
-101.38
 20
-449.197
 11
-102.448
 21
-448.754
  0
LINE
  8
0
 10
-102.448
 20
-448.754
 11
-103.473
 21
-448.221
  0
LINE
  8
0
 10
-103.473
 20
-448.221
 11
-104.448
 21
-447.599
  0
LINE
  8
0
 10
-104.448
 20
-447.599
 11
-105.365
 21
-446.896
  0
LINE
  8
0
 10
-105.365
 20
-446.896
 11
-106.217
 21
-446.115
  0
LINE
  8
0
 10
-106.217
 20
-446.115
 11
-106.998
 21
-445.263
  0
LINE
  8
0
 10
-106.998
 20
-445.263
 11
-107.702
 21
-444.346
  0
LINE
  8
0
 10
-107.702
 20
-444.346
 11
-108.323
 21
-443.371
  0
LINE
  8
0
 10
-108.323
 20
-443.371
 11
-108.857
 21
-442.345
  0
LINE
  8
0
 10
-108.857
 20
-442.345
 11
-109.299
 21
-441.277
  0
LINE
  8
0
 10
-109.299
 20
-441.277
 11
-109.647
 21
-440.175
  0
LINE
  8
0
 10
-109.647
 20
-440.175
 11
-109.897
 21
-439.047
  0
LINE
  8
0
 10
-109.897
 20
-439.047
 11
-110.048
 21
-437.901
  0
LINE
  8
0
 10
-110.048
 20
-437.901
 11
-110.098
 21
-436.746
  0
LINE
  8
0
 10
-110.098
 20
-25.7457
 11
-110.048
 21
-24.5909
  0
LINE
  8
0
 10
-110.048
 20
-24.5909
 11
-109.897
 21
-23.4449
  0
LINE
  8
0
 10
-109.897
 20
-23.4449
 11
-109.647
 21
-22.3164
  0
LINE
  8
0
 10
-109.647
 20
-22.3164
 11
-109.299
 21
-21.2139
  0
LINE
  8
0
 10
-109.299
 20
-21.2139
 11
-108.857
 21
-20.146
  0
LINE
  8
0
 10
-108.857
 20
-20.146
 11
-108.323
 21
-19.1207
  0
LINE
  8
0
 10
-108.323
 20
-19.1207
 11
-107.702
 21
-18.1458
  0
LINE
  8
0
 10
-107.702
 20
-18.1458
 11
-106.998
 21
-17.2288
  0
LINE
  8
0
 10
-106.998
 20
-17.2288
 11
-106.217
 21
-16.3765
  0
LINE
  8
0
 10
-106.217
 20
-16.3765
 11
-105.365
 21
-15.5956
  0
LINE
  8
0
 10
-105.365
 20
-15.5956
 11
-104.448
 21
-14.8919
  0
LINE
  8
0
 10
-104.448
 20
-14.8919
 11
-103.473
 21
-14.2709
  0
LINE
  8
0
 10
-103.473
 20
-14.2709
 11
-102.448
 21
-13.7371
  0
LINE
  8
0
 10
-102.448
 20
-13.7371
 11
-101.38
 21
-13.2948
  0
LINE
  8
0
 10
-101.38
 20
-13.2948
 11
-100.278
 21
-12.9472
  0
LINE
  8
0
 10
-100.278
 20
-12.9472
 11
-99.1491
 21
-12.697
  0
LINE
  8
0
 10
-99.1491
 20
-12.697
 11
-98.0031
 21
-12.5461
  0
LINE
  8
0
 10
-98.0031
 20
-12.5461
 11
-96.8483
 21
-12.4957
  0
LINE
  8
0
 10
-96.8483
 20
-12.4957
 11
-90.8483
 21
-12.4957
  0
LINE
  8
0
 10
-90.8483
 20
-12.4957
 11
-89.6935
 21
-12.5461
  0
LINE
  8
0
 10
-89.6935
 20
-12.5461
 11
-88.5475
 21
-12.697
  0
LINE
  8
0
 10
-88.5475
 20
-12.697
 11
-87.4189
 21
-12.9472
  0
LINE
  8
0
 10
-87.4189
 20
-12.9472
 11
-86.3165
 21
-13.2948
  0
LINE
  8
0
 10
-86.3165
 20
-13.2948
 11
-85.2486
 21
-13.7371
  0
LINE
  8
0
 10
-85.2486
 20
-13.7371
 11
-84.2233
 21
-14.2709
  0
LINE
  8
0
 10
-84.2233
 20
-14.2709
 11
-83.2484
 21
-14.8919
  0
LINE
  8
0
 10
-83.2484
 20
-14.8919
 11
-82.3314
 21
-15.5956
  0
LINE
  8
0
 10
-82.3314
 20
-15.5956
 11
-81.4791
 21
-16.3765
  0
LINE
  8
0
 10
-81.4791
 20
-16.3765
 11
-80.6982
 21
-17.2288
  0
LINE
  8
0
 10
-80.6982
 20
-17.2288
 11
-79.9945
 21
-18.1458
  0
LINE
  8
0
 10
-79.9945
 20
-18.1458
 11
-79.3735
 21
-19.1207
  0
LINE
  8
0
 10
-79.3735
 20
-19.1207
 11
-78.8397
 21
-20.146
  0
LINE
  8
0
 10
-78.8397
 20
-20.146
 11
-78.3974
 21
-21.2139
  0
LINE
  8
0
 10
-78.3974
 20
-21.2139
 11
-78.0498
 21
-22.3164
  0
LINE
  8
0
 10
-78.0498
 20
-22.3164
 11
-77.7996
 21
-23.4449
  0
LINE
  8
0
 10
-77.7996
 20
-23.4449
 11
-77.6487
 21
-24.5909
  0
LINE
  8
0
 10
-77.6487
 20
-24.5909
 11
-77.5983
 21
-25.7457
  0
LINE
  8
0
 10
-77.5983
 20
-25.7457
 11
-77.6487
 21
-26.9005
  0
LINE
  8
0
 10
-77.6487
 20
-26.9005
 11
-77.7996
 21
-28.0465
  0
LINE
  8
0
 10
-77.7996
 20
-28.0465
 11
-78.0498
 21
-29.1751
  0
LINE
  8
0
 10
-78.0498
 20
-29.1751
 11
-78.3974
 21
-30.2775
  0
LINE
  8
0
 10
-78.3974
 20
-30.2775
 11
-78.8397
 21
-31.3454
  0
LINE
  8
0
 10
-78.8397
 20
-31.3454
 11
-79.3735
 21
-32.3707
  0
LINE
  8
0
 10
-79.3735
 20
-32.3707
 11
-79.9945
 21
-33.3456
  0
LINE
  8
0
 10
-79.9945
 20
-33.3456
 11
-80.6982
 21
-34.2626
  0
LINE
  8
0
 10
-80.6982
 20
-34.2626
 11
-81.4791
 21
-35.1149
  0
LINE
  8
0
 10
-81.4791
 20
-35.1149
 11
-82.3314
 21
-35.8958
  0
LINE
  8
0
 10
-82.3314
 20
-35.8958
 11
-83.2484
 21
-36.5995
  0
LINE
  8
0
 10
-83.2484
 20
-36.5995
 11
-84.2233
 21
-37.2205
  0
LINE
  8
0
 10
-84.2233
 20
-37.2205
 11
-85.2486
 21
-37.7543
  0
LINE
  8
0
 10
-85.2486
 20
-37.7543
 11
-86.3165
 21
-38.1966
  0
LINE
  8
0
 10
-86.3165
 20
-38.1966
 11
-87.4189
 21
-38.5442
  0
LINE
  8
0
 10
-87.4189
 20
-38.5442
 11
-88.5475
 21
-38.7944
  0
LINE
  8
0
 10
-88.5475
 20
-38.7944
 11
-89.6935
 21
-38.9453
  0
LINE
  8
0
 10
-89.6935
 20
-38.9453
 11
-90.8483
 21
-38.9957
  0
LINE
  8
0
 10
-90.8483
 20
-38.9957
 11
-96.8483
 21
-38.9957
  0
LINE
  8
0
 10
-96.8483
 20
-38.9957
 11
-98.0031
 21
-38.9453
  0
LINE
  8
0
 10
-98.0031
 20
-38.9453
 11
-99.1491
 21
-38.7944
  0
LINE
  8
0
 10
-99.1491
 20
-38.7944
 11
-100.278
 21
-38.5442
  0
LINE
  8
0
 10
-100.278
 20
-38.5442
 11
-101.38
 21
-38.1966
  0
LINE
  8
0
 10
-101.38
 20
-38.1966
 11
-102.448
 21
-37.7543
  0
LINE
  8
0
 10
-102.448
 20
-37.7543
 11
-103.473
 21
-37.2205
  0
LINE
  8
0
 10
-103.473
 20
-37.2205
 11
-104.448
 21
-36.5995
  0
LINE
  8
0
 10
-104.448
 20
-36.5995
 11
-105.365
 21
-35.8958
  0
LINE
  8
0
 10
-105.365
 20
-35.8958
 11
-106.217
 21
-35.1149
  0
LINE
  8
0
 10
-106.217
 20
-35.1149
 11
-106.998
 21
-34.2626
  0
LINE
  8
0
 10
-106.998
 20
-34.2626
 11
-107.702
 21
-33.3456
  0
LINE
  8
0
 10
-107.702
 20
-33.3456
 11
-108.323
 21
-32.3707
  0
LINE
  8
0
 10
-108.323
 20
-32.3707
 11
-108.857
 21
-31.3454
  0
LINE
  8
0
 10
-108.857
 20
-31.3454
 11
-109.299
 21
-30.2775
  0
LINE
  8
0
 10
-109.299
 20
-30.2775
 11
-109.647
 21
-29.1751
  0
LINE
  8
0
 10
-109.647
 20
-29.1751
 11
-109.897
 21
-28.0465
  0
LINE
  8
0
 10
-109.897
 20
-28.0465
 11
-110.048
 21
-26.9005
  0
LINE
  8
0
 10
-110.048
 20
-26.9005
 11
-110.098
 21
-25.7457
  0
LINE
  8
0
 10
-83.0983
 20
-452.246
 11
-83.0387
 21
-451.793
  0
LINE
  8
0
 10
-83.0387
 20
-451.793
 11
-82.8638
 21
-451.371
  0
LINE
  8
0
 10
-82.8638
 20
-451.371
 11
-82.5857
 21
-451.008
  0
LINE
  8
0
 10
-82.5857
 20
-451.008
 11
-82.2233
 21
-450.73
  0
LINE
  8
0
 10
-82.2233
 20
-450.73
 11
-81.8012
 21
-450.555
  0
LINE
  8
0
 10
-81.8012
 20
-450.555
 11
-81.3483
 21
-450.496
  0
LINE
  8
0
 10
-81.3483
 20
-450.496
 11
-75.3483
 21
-450.496
  0
LINE
  8
0
 10
-75.3483
 20
-450.496
 11
-74.8954
 21
-450.555
  0
LINE
  8
0
 10
-74.8954
 20
-450.555
 11
-74.4733
 21
-450.73
  0
LINE
  8
0
 10
-74.4733
 20
-450.73
 11
-74.1109
 21
-451.008
  0
LINE
  8
0
 10
-74.1109
 20
-451.008
 11
-73.8327
 21
-451.371
  0
LINE
  8
0
 10
-73.8327
 20
-451.371
 11
-73.6579
 21
-451.793
  0
LINE
  8
0
 10
-73.6579
 20
-451.793
 11
-73.5983
 21
-452.246
  0
LINE
  8
0
 10
-73.5983
 20
-452.246
 11
-73.6579
 21
-452.699
  0
LINE
  8
0
 10
-73.6579
 20
-452.699
 11
-73.8327
 21
-453.121
  0
LINE
  8
0
 10
-73.8327
 20
-453.121
 11
-74.1109
 21
-453.483
  0
LINE
  8
0
 10
-74.1109
 20
-453.483
 11
-74.4733
 21
-453.761
  0
LINE
  8
0
 10
-74.4733
 20
-453.761
 11
-74.8954
 21
-453.936
  0
LINE
  8
0
 10
-74.8954
 20
-453.936
 11
-75.3483
 21
-453.996
  0
LINE
  8
0
 10
-75.3483
 20
-453.996
 11
-81.3483
 21
-453.996
  0
LINE
  8
0
 10
-81.3483
 20
-453.996
 11
-81.8012
 21
-453.936
  0
LINE
  8
0
 10
-81.8012
 20
-453.936
 11
-82.2233
 21
-453.761
  0
LINE
  8
0
 10
-82.2233
 20
-453.761
 11
-82.5857
 21
-453.483
  0
LINE
  8
0
 10
-82.5857
 20
-453.483
 11
-82.8638
 21
-453.121
  0
LINE
  8
0
 10
-82.8638
 20
-453.121
 11
-83.0387
 21
-452.699
  0
LINE
  8
0
 10
-83.0387
 20
-452.699
 11
-83.0983
 21
-452.246
  0
LINE
  8
0
 10
-83.0983
 20
-421.246
 11
-83.0387
 21
-420.793
  0
LINE
  8
0
 10
-83.0387
 20
-420.793
 11
-82.8638
 21
-420.371
  0
LINE
  8
0
 10
-82.8638
 20
-420.371
 11
-82.5857
 21
-420.008
  0
LINE
  8
0
 10
-82.5857
 20
-420.008
 11
-82.2233
 21
-419.73
  0
LINE
  8
0
 10
-82.2233
 20
-419.73
 11
-81.8012
 21
-419.555
  0
LINE
  8
0
 10
-81.8012
 20
-419.555
 11
-81.3483
 21
-419.496
  0
LINE
  8
0
 10
-81.3483
 20
-419.496
 11
-75.3483
 21
-419.496
  0
LINE
  8
0
 10
-75.3483
 20
-419.496
 11
-74.8954
 21
-419.555
  0
LINE
  8
0
 10
-74.8954
 20
-419.555
 11
-74.4733
 21
-419.73
  0
LINE
  8
0
 10
-74.4733
 20
-419.73
 11
-74.1109
 21
-420.008
  0
LINE
  8
0
 10
-74.1109
 20
-420.008
 11
-73.8327
 21
-420.371
  0
LINE
  8
0
 10
-73.8327
 20
-420.371
 11
-73.6579
 21
-420.793
  0
LINE
  8
0
 10
-73.6579
 20
-420.793
 11
-73.5983
 21
-421.246
  0
LINE
  8
0
 10
-73.5983
 20
-421.246
 11
-73.6579
 21
-421.699
  0
LINE
  8
0
 10
-73.6579
 20
-421.699
 11
-73.8327
 21
-422.121
  0
LINE
  8
0
 10
-73.8327
 20
-422.121
 11
-74.1109
 21
-422.483
  0
LINE
  8
0
 10
-74.1109
 20
-422.483
 11
-74.4733
 21
-422.761
  0
LINE
  8
0
 10
-74.4733
 20
-422.761
 11
-74.8954
 21
-422.936
  0
LINE
  8
0
 10
-74.8954
 20
-422.936
 11
-75.3483
 21
-422.996
  0
LINE
  8
0
 10
-75.3483
 20
-422.996
 11
-81.3483
 21
-422.996
  0
LINE
  8
0
 10
-81.3483
 20
-422.996
 11
-81.8012
 21
-422.936
  0
LINE
  8
0
 10
-81.8012
 20
-422.936
 11
-82.2233
 21
-422.761
  0
LINE
  8
0
 10
-82.2233
 20
-422.761
 11
-82.5857
 21
-422.483
  0
LINE
  8
0
 10
-82.5857
 20
-422.483
 11
-82.8638
 21
-422.121
  0
LINE
  8
0
 10
-82.8638
 20
-422.121
 11
-83.0387
 21
-421.699
  0
LINE
  8
0
 10
-83.0387
 20
-421.699
 11
-83.0983
 21
-421.246
  0
LINE
  8
0
 10
-83.0983
 20
-41.2457
 11
-83.0387
 21
-40.7928
  0
LINE
  8
0
 10
-83.0387
 20
-40.7928
 11
-82.8638
 21
-40.3707
  0
LINE
  8
0
 10
-82.8638
 20
-40.3707
 11
-82.5857
 21
-40.0083
  0
LINE
  8
0
 10
-82.5857
 20
-40.0083
 11
-82.2233
 21
-39.7302
  0
LINE
  8
0
 10
-82.2233
 20
-39.7302
 11
-81.8012
 21
-39.5553
  0
LINE
  8
0
 10
-81.8012
 20
-39.5553
 11
-81.3483
 21
-39.4957
  0
LINE
  8
0
 10
-81.3483
 20
-39.4957
 11
-75.3483
 21
-39.4957
  0
LINE
  8
0
 10
-75.3483
 20
-39.4957
 11
-74.8954
 21
-39.5553
  0
LINE
  8
0
 10
-74.8954
 20
-39.5553
 11
-74.4733
 21
-39.7302
  0
LINE
  8
0
 10
-74.4733
 20
-39.7302
 11
-74.1109
 21
-40.0083
  0
LINE
  8
0
 10
-74.1109
 20
-40.0083
 11
-73.8327
 21
-40.3707
  0
LINE
  8
0
 10
-73.8327
 20
-40.3707
 11
-73.6579
 21
-40.7928
  0
LINE
  8
0
 10
-73.6579
 20
-40.7928
 11
-73.5983
 21
-41.2457
  0
LINE
  8
0
 10
-73.5983
 20
-41.2457
 11
-73.6579
 21
-41.6986
  0
LINE
  8
0
 10
-73.6579
 20
-41.6986
 11
-73.8327
 21
-42.1207
  0
LINE
  8
0
 10
-73.8327
 20
-42.1207
 11
-74.1109
 21
-42.4831
  0
LINE
  8
0
 10
-74.1109
 20
-42.4831
 11
-74.4733
 21
-42.7612
  0
LINE
  8
0
 10
-74.4733
 20
-42.7612
 11
-74.8954
 21
-42.9361
  0
LINE
  8
0
 10
-74.8954
 20
-42.9361
 11
-75.3483
 21
-42.9957
  0
LINE
  8
0
 10
-75.3483
 20
-42.9957
 11
-81.3483
 21
-42.9957
  0
LINE
  8
0
 10
-81.3483
 20
-42.9957
 11
-81.8012
 21
-42.9361
  0
LINE
  8
0
 10
-81.8012
 20
-42.9361
 11
-82.2233
 21
-42.7612
  0
LINE
  8
0
 10
-82.2233
 20
-42.7612
 11
-82.5857
 21
-42.4831
  0
LINE
  8
0
 10
-82.5857
 20
-42.4831
 11
-82.8638
 21
-42.1207
  0
LINE
  8
0
 10
-82.8638
 20
-42.1207
 11
-83.0387
 21
-41.6986
  0
LINE
  8
0
 10
-83.0387
 20
-41.6986
 11
-83.0983
 21
-41.2457
  0
LINE
  8
0
 10
-83.0983
 20
-10.2457
 11
-83.0387
 21
-9.79277
  0
LINE
  8
0
 10
-83.0387
 20
-9.79277
 11
-82.8638
 21
-9.3707
  0
LINE
  8
0
 10
-82.8638
 20
-9.3707
 11
-82.5857
 21
-9.00827
  0
LINE
  8
0
 10
-82.5857
 20
-9.00827
 11
-82.2233
 21
-8.73016
  0
LINE
  8
0
 10
-82.2233
 20
-8.73016
 11
-81.8012
 21
-8.55534
  0
LINE
  8
0
 10
-81.8012
 20
-8.55534
 11
-81.3483
 21
-8.4957
  0
LINE
  8
0
 10
-81.3483
 20
-8.4957
 11
-75.3483
 21
-8.4957
  0
LINE
  8
0
 10
-75.3483
 20
-8.4957
 11
-74.8954
 21
-8.55534
  0
LINE
  8
0
 10
-74.8954
 20
-8.55534
 11
-74.4733
 21
-8.73016
  0
LINE
  8
0
 10
-74.4733
 20
-8.73016
 11
-74.1109
 21
-9.00827
  0
LINE
  8
0
 10
-74.1109
 20
-9.00827
 11
-73.8327
 21
-9.3707
  0
LINE
  8
0
 10
-73.8327
 20
-9.3707
 11
-73.6579
 21
-9.79277
  0
LINE
  8
0
 10
-73.6579
 20
-9.79277
 11
-73.5983
 21
-10.2457
  0
LINE
  8
0
 10
-73.5983
 20
-10.2457
 11
-73.6579
 21
-10.6986
  0
LINE
  8
0
 10
-73.6579
 20
-10.6986
 11
-73.8327
 21
-11.1207
  0
LINE
  8
0
 10
-73.8327
 20
-11.1207
 11
-74.1109
 21
-11.4831
  0
LINE
  8
0
 10
-74.1109
 20
-11.4831
 11
-74.4733
 21
-11.7612
  0
LINE
  8
0
 10
-74.4733
 20
-11.7612
 11
-74.8954
 21
-11.9361
  0
LINE
  8
0
 10
-74.8954
 20
-11.9361
 11
-75.3483
 21
-11.9957
  0
LINE
  8
0
 10
-75.3483
 20
-11.9957
 11
-81.3483
 21
-11.9957
  0
LINE
  8
0
 10
-81.3483
 20
-11.9957
 11
-81.8012
 21
-11.9361
  0
LINE
  8
0
 10
-81.8012
 20
-11.9361
 11
-82.2233
 21
-11.7612
  0
LINE
  8
0
 10
-82.2233
 20
-11.7612
 11
-82.5857
 21
-11.4831
  0
LINE
  8
0
 10
-82.5857
 20
-11.4831
 11
-82.8638
 21
-11.1207
  0
LINE
  8
0
 10
-82.8638
 20
-11.1207
 11
-83.0387
 21
-10.6986
  0
LINE
  8
0
 10
-83.0387
 20
-10.6986
 11
-83.0983
 21
-10.2457
  0
LINE
  8
0
 10
-55.7483
 20
-451.246
 11
-55.6305
 21
-450.313
  0
LINE
  8
0
 10
-55.6305
 20
-450.313
 11
-55.2844
 21
-449.439
  0
LINE
  8
0
 10
-55.2844
 20
-449.439
 11
-54.7319
 21
-448.679
  0
LINE
  8
0
 10
-54.7319
 20
-448.679
 11
-54.0076
 21
-448.079
  0
LINE
  8
0
 10
-54.0076
 20
-448.079
 11
-53.1571
 21
-447.679
  0
LINE
  8
0
 10
-53.1571
 20
-447.679
 11
-52.2338
 21
-447.503
  0
LINE
  8
0
 10
-52.2338
 20
-447.503
 11
-51.2956
 21
-447.562
  0
LINE
  8
0
 10
-51.2956
 20
-447.562
 11
-50.4016
 21
-447.853
  0
LINE
  8
0
 10
-50.4016
 20
-447.853
 11
-49.608
 21
-448.356
  0
LINE
  8
0
 10
-49.608
 20
-448.356
 11
-48.9645
 21
-449.042
  0
LINE
  8
0
 10
-48.9645
 20
-449.042
 11
-48.5116
 21
-449.865
  0
LINE
  8
0
 10
-48.5116
 20
-449.865
 11
-48.2779
 21
-450.776
  0
LINE
  8
0
 10
-48.2779
 20
-450.776
 11
-48.2779
 21
-451.716
  0
LINE
  8
0
 10
-48.2779
 20
-451.716
 11
-48.5116
 21
-452.626
  0
LINE
  8
0
 10
-48.5116
 20
-452.626
 11
-48.9645
 21
-453.45
  0
LINE
  8
0
 10
-48.9645
 20
-453.45
 11
-49.608
 21
-454.135
  0
LINE
  8
0
 10
-49.608
 20
-454.135
 11
-50.4016
 21
-454.639
  0
LINE
  8
0
 10
-50.4016
 20
-454.639
 11
-51.2956
 21
-454.929
  0
LINE
  8
0
 10
-51.2956
 20
-454.929
 11
-52.2338
 21
-454.988
  0
LINE
  8
0
 10
-52.2338
 20
-454.988
 11
-53.1571
 21
-454.812
  0
LINE
  8
0
 10
-53.1571
 20
-454.812
 11
-54.0076
 21
-454.412
  0
LINE
  8
0
 10
-54.0076
 20
-454.412
 11
-54.7319
 21
-453.813
  0
LINE
  8
0
 10
-54.7319
 20
-453.813
 11
-55.2844
 21
-453.052
  0
LINE
  8
0
 10
-55.2844
 20
-453.052
 11
-55.6305
 21
-452.178
  0
LINE
  8
0
 10
-55.6305
 20
-452.178
 11
-55.7483
 21
-451.246
  0
LINE
  8
0
 10
-55.7483
 20
-11.2457
 11
-55.6305
 21
-10.3131
  0
LINE
  8
0
 10
-55.6305
 20
-10.3131
 11
-55.2844
 21
-9.43913
  0
LINE
  8
0
 10
-55.2844
 20
-9.43913
 11
-54.7319
 21
-8.67865
  0
LINE
  8
0
 10
-54.7319
 20
-8.67865
 11
-54.0076
 21
-8.07948
  0
LINE
  8
0
 10
-54.0076
 20
-8.07948
 11
-53.1571
 21
-7.67924
  0
LINE
  8
0
 10
-53.1571
 20
-7.67924
 11
-52.2338
 21
-7.5031
  0
LINE
  8
0
 10
-52.2338
 20
-7.5031
 11
-51.2956
 21
-7.56213
  0
LINE
  8
0
 10
-51.2956
 20
-7.56213
 11
-50.4016
 21
-7.8526
  0
LINE
  8
0
 10
-50.4016
 20
-7.8526
 11
-49.608
 21
-8.35628
  0
LINE
  8
0
 10
-49.608
 20
-8.35628
 11
-48.9645
 21
-9.04151
  0
LINE
  8
0
 10
-48.9645
 20
-9.04151
 11
-48.5116
 21
-9.86524
  0
LINE
  8
0
 10
-48.5116
 20
-9.86524
 11
-48.2779
 21
-10.7757
  0
LINE
  8
0
 10
-48.2779
 20
-10.7757
 11
-48.2779
 21
-11.7157
  0
LINE
  8
0
 10
-48.2779
 20
-11.7157
 11
-48.5116
 21
-12.6262
  0
LINE
  8
0
 10
-48.5116
 20
-12.6262
 11
-48.9645
 21
-13.4499
  0
LINE
  8
0
 10
-48.9645
 20
-13.4499
 11
-49.608
 21
-14.1351
  0
LINE
  8
0
 10
-49.608
 20
-14.1351
 11
-50.4016
 21
-14.6388
  0
LINE
  8
0
 10
-50.4016
 20
-14.6388
 11
-51.2956
 21
-14.9293
  0
LINE
  8
0
 10
-51.2956
 20
-14.9293
 11
-52.2338
 21
-14.9883
  0
LINE
  8
0
 10
-52.2338
 20
-14.9883
 11
-53.1571
 21
-14.8122
  0
LINE
  8
0
 10
-53.1571
 20
-14.8122
 11
-54.0076
 21
-14.4119
  0
LINE
  8
0
 10
-54.0076
 20
-14.4119
 11
-54.7319
 21
-13.8128
  0
LINE
  8
0
 10
-54.7319
 20
-13.8128
 11
-55.2844
 21
-13.0523
  0
LINE
  8
0
 10
-55.2844
 20
-13.0523
 11
-55.6305
 21
-12.1783
  0
LINE
  8
0
 10
-55.6305
 20
-12.1783
 11
-55.7483
 21
-11.2457
  0
LINE
  8
0
 10
-53.7483
 20
-430.096
 11
-53.7483
 21
-320.096
  0
LINE
  8
0
 10
-53.7483
 20
-320.096
 11
-53.6887
 21
-319.643
  0
LINE
  8
0
 10
-53.6887
 20
-319.643
 11
-53.5138
 21
-319.221
  0
LINE
  8
0
 10
-53.5138
 20
-319.221
 11
-53.2357
 21
-318.858
  0
LINE
  8
0
 10
-53.2357
 20
-318.858
 11
-52.8733
 21
-318.58
  0
LINE
  8
0
 10
-52.8733
 20
-318.58
 11
-52.4512
 21
-318.405
  0
LINE
  8
0
 10
-52.4512
 20
-318.405
 11
-51.9983
 21
-318.346
  0
LINE
  8
0
 10
-51.9983
 20
-318.346
 11
-51.5454
 21
-318.405
  0
LINE
  8
0
 10
-51.5454
 20
-318.405
 11
-51.1233
 21
-318.58
  0
LINE
  8
0
 10
-51.1233
 20
-318.58
 11
-50.7609
 21
-318.858
  0
LINE
  8
0
 10
-50.7609
 20
-318.858
 11
-50.4828
 21
-319.221
  0
LINE
  8
0
 10
-50.4828
 20
-319.221
 11
-50.3079
 21
-319.643
  0
LINE
  8
0
 10
-50.3079
 20
-319.643
 11
-50.2483
 21
-320.096
  0
LINE
  8
0
 10
-50.2483
 20
-320.096
 11
-50.2483
 21
-430.096
  0
LINE
  8
0
 10
-50.2483
 20
-430.096
 11
-50.3079
 21
-430.549
  0
LINE
  8
0
 10
-50.3079
 20
-430.549
 11
-50.4828
 21
-430.971
  0
LINE
  8
0
 10
-50.4828
 20
-430.971
 11
-50.7609
 21
-431.333
  0
LINE
  8
0
 10
-50.7609
 20
-431.333
 11
-51.1233
 21
-431.611
  0
LINE
  8
0
 10
-51.1233
 20
-431.611
 11
-51.5454
 21
-431.786
  0
LINE
  8
0
 10
-51.5454
 20
-431.786
 11
-51.9983
 21
-431.846
  0
LINE
  8
0
 10
-51.9983
 20
-431.846
 11
-52.4512
 21
-431.786
  0
LINE
  8
0
 10
-52.4512
 20
-431.786
 11
-52.8733
 21
-431.611
  0
LINE
  8
0
 10
-52.8733
 20
-431.611
 11
-53.2357
 21
-431.333
  0
LINE
  8
0
 10
-53.2357
 20
-431.333
 11
-53.5138
 21
-430.971
  0
LINE
  8
0
 10
-53.5138
 20
-430.971
 11
-53.6887
 21
-430.549
  0
LINE
  8
0
 10
-53.6887
 20
-430.549
 11
-53.7483
 21
-430.096
  0
LINE
  8
0
 10
-53.7483
 20
-286.246
 11
-53.7483
 21
-176.246
  0
LINE
  8
0
 10
-53.7483
 20
-176.246
 11
-53.6887
 21
-175.793
  0
LINE
  8
0
 10
-53.6887
 20
-175.793
 11
-53.5138
 21
-175.371
  0
LINE
  8
0
 10
-53.5138
 20
-175.371
 11
-53.2357
 21
-175.008
  0
LINE
  8
0
 10
-53.2357
 20
-175.008
 11
-52.8733
 21
-174.73
  0
LINE
  8
0
 10
-52.8733
 20
-174.73
 11
-52.4512
 21
-174.555
  0
LINE
  8
0
 10
-52.4512
 20
-174.555
 11
-51.9983
 21
-174.496
  0
LINE
  8
0
 10
-51.9983
 20
-174.496
 11
-51.5454
 21
-174.555
  0
LINE
  8
0
 10
-51.5454
 20
-174.555
 11
-51.1233
 21
-174.73
  0
LINE
  8
0
 10
-51.1233
 20
-174.73
 11
-50.7609
 21
-175.008
  0
LINE
  8
0
 10
-50.7609
 20
-175.008
 11
-50.4828
 21
-175.371
  0
LINE
  8
0
 10
-50.4828
 20
-175.371
 11
-50.3079
 21
-175.793
  0
LINE
  8
0
 10
-50.3079
 20
-175.793
 11
-50.2483
 21
-176.246
  0
LINE
  8
0
 10
-50.2483
 20
-176.246
 11
-50.2483
 21
-286.246
  0
LINE
  8
0
 10
-50.2483
 20
-286.246
 11
-50.3079
 21
-286.699
  0
LINE
  8
0
 10
-50.3079
 20
-286.699
 11
-50.4828
 21
-287.121
  0
LINE
  8
0
 10
-50.4828
 20
-287.121
 11
-50.7609
 21
-287.483
  0
LINE
  8
0
 10
-50.7609
 20
-287.483
 11
-51.1233
 21
-287.761
  0
LINE
  8
0
 10
-51.1233
 20
-287.761
 11
-51.5454
 21
-287.936
  0
LINE
  8
0
 10
-51.5454
 20
-287.936
 11
-51.9983
 21
-287.996
  0
LINE
  8
0
 10
-51.9983
 20
-287.996
 11
-52.4512
 21
-287.936
  0
LINE
  8
0
 10
-52.4512
 20
-287.936
 11
-52.8733
 21
-287.761
  0
LINE
  8
0
 10
-52.8733
 20
-287.761
 11
-53.2357
 21
-287.483
  0
LINE
  8
0
 10
-53.2357
 20
-287.483
 11
-53.5138
 21
-287.121
  0
LINE
  8
0
 10
-53.5138
 20
-287.121
 11
-53.6887
 21
-286.699
  0
LINE
  8
0
 10
-53.6887
 20
-286.699
 11
-53.7483
 21
-286.246
  0
LINE
  8
0
 10
-53.7483
 20
-142.396
 11
-53.7483
 21
-32.3957
  0
LINE
  8
0
 10
-53.7483
 20
-32.3957
 11
-53.6887
 21
-31.9428
  0
LINE
  8
0
 10
-53.6887
 20
-31.9428
 11
-53.5138
 21
-31.5207
  0
LINE
  8
0
 10
-53.5138
 20
-31.5207
 11
-53.2357
 21
-31.1583
  0
LINE
  8
0
 10
-53.2357
 20
-31.1583
 11
-52.8733
 21
-30.8802
  0
LINE
  8
0
 10
-52.8733
 20
-30.8802
 11
-52.4512
 21
-30.7053
  0
LINE
  8
0
 10
-52.4512
 20
-30.7053
 11
-51.9983
 21
-30.6457
  0
LINE
  8
0
 10
-51.9983
 20
-30.6457
 11
-51.5454
 21
-30.7053
  0
LINE
  8
0
 10
-51.5454
 20
-30.7053
 11
-51.1233
 21
-30.8802
  0
LINE
  8
0
 10
-51.1233
 20
-30.8802
 11
-50.7609
 21
-31.1583
  0
LINE
  8
0
 10
-50.7609
 20
-31.1583
 11
-50.4828
 21
-31.5207
  0
LINE
  8
0
 10
-50.4828
 20
-31.5207
 11
-50.3079
 21
-31.9428
  0
LINE
  8
0
 10
-50.3079
 20
-31.9428
 11
-50.2483
 21
-32.3957
  0
LINE
  8
0
 10
-50.2483
 20
-32.3957
 11
-50.2483
 21
-142.396
  0
LINE
  8
0
 10
-50.2483
 20
-142.396
 11
-50.3079
 21
-142.849
  0
LINE
  8
0
 10
-50.3079
 20
-142.849
 11
-50.4828
 21
-143.271
  0
LINE
  8
0
 10
-50.4828
 20
-143.271
 11
-50.7609
 21
-143.633
  0
LINE
  8
0
 10
-50.7609
 20
-143.633
 11
-51.1233
 21
-143.911
  0
LINE
  8
0
 10
-51.1233
 20
-143.911
 11
-51.5454
 21
-144.086
  0
LINE
  8
0
 10
-51.5454
 20
-144.086
 11
-51.9983
 21
-144.146
  0
LINE
  8
0
 10
-51.9983
 20
-144.146
 11
-52.4512
 21
-144.086
  0
LINE
  8
0
 10
-52.4512
 20
-144.086
 11
-52.8733
 21
-143.911
  0
LINE
  8
0
 10
-52.8733
 20
-143.911
 11
-53.2357
 21
-143.633
  0
LINE
  8
0
 10
-53.2357
 20
-143.633
 11
-53.5138
 21
-143.271
  0
LINE
  8
0
 10
-53.5138
 20
-143.271
 11
-53.6887
 21
-142.849
  0
LINE
  8
0
 10
-53.6887
 20
-142.849
 11
-53.7483
 21
-142.396
  0
LINE
  8
0
 10
-44.4983
 20
-438.746
 11
-44.4983
 21
-23.7457
  0
LINE
  8
0
 10
-44.4983
 20
-23.7457
 11
-44.3279
 21
-22.4516
  0
LINE
  8
0
 10
-44.3279
 20
-22.4516
 11
-43.8284
 21
-21.2457
  0
LINE
  8
0
 10
-43.8284
 20
-21.2457
 11
-43.0338
 21
-20.2102
  0
LINE
  8
0
 10
-43.0338
 20
-20.2102
 11
-41.9983
 21
-19.4156
  0
LINE
  8
0
 10
-41.9983
 20
-19.4156
 11
-40.7924
 21
-18.9161
  0
LINE
  8
0
 10
-40.7924
 20
-18.9161
 11
-39.4983
 21
-18.7457
  0
LINE
  8
0
 10
-39.4983
 20
-18.7457
 11
410.502
 21
-18.7457
  0
LINE
  8
0
 10
410.502
 20
-18.7457
 11
411.796
 21
-18.9161
  0
LINE
  8
0
 10
411.796
 20
-18.9161
 11
413.002
 21
-19.4156
  0
LINE
  8
0
 10
413.002
 20
-19.4156
 11
414.037
 21
-20.2102
  0
LINE
  8
0
 10
414.037
 20
-20.2102
 11
414.832
 21
-21.2457
  0
LINE
  8
0
 10
414.832
 20
-21.2457
 11
415.331
 21
-22.4516
  0
LINE
  8
0
 10
415.331
 20
-22.4516
 11
415.502
 21
-23.7457
  0
LINE
  8
0
 10
415.502
 20
-23.7457
 11
415.502
 21
-438.746
  0
LINE
  8
0
 10
415.502
 20
-438.746
 11
415.331
 21
-440.04
  0
LINE
  8
0
 10
415.331
 20
-440.04
 11
414.832
 21
-441.246
  0
LINE
  8
0
 10
414.832
 20
-441.246
 11
414.037
 21
-442.281
  0
LINE
  8
0
 10
414.037
 20
-442.281
 11
413.002
 21
-443.076
  0
LINE
  8
0
 10
413.002
 20
-443.076
 11
411.796
 21
-443.575
  0
LINE
  8
0
 10
411.796
 20
-443.575
 11
410.502
 21
-443.746
  0
LINE
  8
0
 10
410.502
 20
-443.746
 11
-39.4983
 21
-443.746
  0
LINE
  8
0
 10
-39.4983
 20
-443.746
 11
-40.7924
 21
-443.575
  0
LINE
  8
0
 10
-40.7924
 20
-443.575
 11
-41.9983
 21
-443.076
  0
LINE
  8
0
 10
-41.9983
 20
-443.076
 11
-43.0338
 21
-442.281
  0
LINE
  8
0
 10
-43.0338
 20
-442.281
 11
-43.8284
 21
-441.246
  0
LINE
  8
0
 10
-43.8284
 20
-441.246
 11
-44.3279
 21
-440.04
  0
LINE
  8
0
 10
-44.3279
 20
-440.04
 11
-44.4983
 21
-438.746
  0
LINE
  8
0
 10
-32.5983
 20
-451.246
 11
-32.5387
 21
-450.793
  0
LINE
  8
0
 10
-32.5387
 20
-450.793
 11
-32.3638
 21
-450.371
  0
LINE
  8
0
 10
-32.3638
 20
-450.371
 11
-32.0857
 21
-450.008
  0
LINE
  8
0
 10
-32.0857
 20
-450.008
 11
-31.7233
 21
-449.73
  0
LINE
  8
0
 10
-31.7233
 20
-449.73
 11
-31.3012
 21
-449.555
  0
LINE
  8
0
 10
-31.3012
 20
-449.555
 11
-30.8483
 21
-449.496
  0
LINE
  8
0
 10
-30.8483
 20
-449.496
 11
89.1517
 21
-449.496
  0
LINE
  8
0
 10
89.1517
 20
-449.496
 11
89.6046
 21
-449.555
  0
LINE
  8
0
 10
89.6046
 20
-449.555
 11
90.0267
 21
-449.73
  0
LINE
  8
0
 10
90.0267
 20
-449.73
 11
90.3891
 21
-450.008
  0
LINE
  8
0
 10
90.3891
 20
-450.008
 11
90.6673
 21
-450.371
  0
LINE
  8
0
 10
90.6673
 20
-450.371
 11
90.8421
 21
-450.793
  0
LINE
  8
0
 10
90.8421
 20
-450.793
 11
90.9017
 21
-451.246
  0
LINE
  8
0
 10
90.9017
 20
-451.246
 11
90.8421
 21
-451.699
  0
LINE
  8
0
 10
90.8421
 20
-451.699
 11
90.6673
 21
-452.121
  0
LINE
  8
0
 10
90.6673
 20
-452.121
 11
90.3891
 21
-452.483
  0
LINE
  8
0
 10
90.3891
 20
-452.483
 11
90.0267
 21
-452.761
  0
LINE
  8
0
 10
90.0267
 20
-452.761
 11
89.6046
 21
-452.936
  0
LINE
  8
0
 10
89.6046
 20
-452.936
 11
89.1517
 21
-452.996
  0
LINE
  8
0
 10
89.1517
 20
-452.996
 11
-30.8483
 21
-452.996
  0
LINE
  8
0
 10
-30.8483
 20
-452.996
 11
-31.3012
 21
-452.936
  0
LINE
  8
0
 10
-31.3012
 20
-452.936
 11
-31.7233
 21
-452.761
  0
LINE
  8
0
 10
-31.7233
 20
-452.761
 11
-32.0857
 21
-452.483
  0
LINE
  8
0
 10
-32.0857
 20
-452.483
 11
-32.3638
 21
-452.121
  0
LINE
  8
0
 10
-32.3638
 20
-452.121
 11
-32.5387
 21
-451.699
  0
LINE
  8
0
 10
-32.5387
 20
-451.699
 11
-32.5983
 21
-451.246
  0
LINE
  8
0
 10
-32.5983
 20
-11.2457
 11
-32.5387
 21
-10.7928
  0
LINE
  8
0
 10
-32.5387
 20
-10.7928
 11
-32.3638
 21
-10.3707
  0
LINE
  8
0
 10
-32.3638
 20
-10.3707
 11
-32.0857
 21
-10.0083
  0
LINE
  8
0
 10
-32.0857
 20
-10.0083
 11
-31.7233
 21
-9.73016
  0
LINE
  8
0
 10
-31.7233
 20
-9.73016
 11
-31.3012
 21
-9.55534
  0
LINE
  8
0
 10
-31.3012
 20
-9.55534
 11
-30.8483
 21
-9.4957
  0
LINE
  8
0
 10
-30.8483
 20
-9.4957
 11
89.1517
 21
-9.4957
  0
LINE
  8
0
 10
89.1517
 20
-9.4957
 11
89.6046
 21
-9.55534
  0
LINE
  8
0
 10
89.6046
 20
-9.55534
 11
90.0267
 21
-9.73016
  0
LINE
  8
0
 10
90.0267
 20
-9.73016
 11
90.3891
 21
-10.0083
  0
LINE
  8
0
 10
90.3891
 20
-10.0083
 11
90.6673
 21
-10.3707
  0
LINE
  8
0
 10
90.6673
 20
-10.3707
 11
90.8421
 21
-10.7928
  0
LINE
  8
0
 10
90.8421
 20
-10.7928
 11
90.9017
 21
-11.2457
  0
LINE
  8
0
 10
90.9017
 20
-11.2457
 11
90.8421
 21
-11.6986
  0
LINE
  8
0
 10
90.8421
 20
-11.6986
 11
90.6673
 21
-12.1207
  0
LINE
  8
0
 10
90.6673
 20
-12.1207
 11
90.3891
 21
-12.4831
  0
LINE
  8
0
 10
90.3891
 20
-12.4831
 11
90.0267
 21
-12.7612
  0
LINE
  8
0
 10
90.0267
 20
-12.7612
 11
89.6046
 21
-12.9361
  0
LINE
  8
0
 10
89.6046
 20
-12.9361
 11
89.1517
 21
-12.9957
  0
LINE
  8
0
 10
89.1517
 20
-12.9957
 11
-30.8483
 21
-12.9957
  0
LINE
  8
0
 10
-30.8483
 20
-12.9957
 11
-31.3012
 21
-12.9361
  0
LINE
  8
0
 10
-31.3012
 20
-12.9361
 11
-31.7233
 21
-12.7612
  0
LINE
  8
0
 10
-31.7233
 20
-12.7612
 11
-32.0857
 21
-12.4831
  0
LINE
  8
0
 10
-32.0857
 20
-12.4831
 11
-32.3638
 21
-12.1207
  0
LINE
  8
0
 10
-32.3638
 20
-12.1207
 11
-32.5387
 21
-11.6986
  0
LINE
  8
0
 10
-32.5387
 20
-11.6986
 11
-32.5983
 21
-11.2457
  0
LINE
  8
0
 10
123.752
 20
-451.246
 11
123.811
 21
-450.793
  0
LINE
  8
0
 10
123.811
 20
-450.793
 11
123.986
 21
-450.371
  0
LINE
  8
0
 10
123.986
 20
-450.371
 11
124.264
 21
-450.008
  0
LINE
  8
0
 10
124.264
 20
-450.008
 11
124.627
 21
-449.73
  0
LINE
  8
0
 10
124.627
 20
-449.73
 11
125.049
 21
-449.555
  0
LINE
  8
0
 10
125.049
 20
-449.555
 11
125.502
 21
-449.496
  0
LINE
  8
0
 10
125.502
 20
-449.496
 11
245.502
 21
-449.496
  0
LINE
  8
0
 10
245.502
 20
-449.496
 11
245.955
 21
-449.555
  0
LINE
  8
0
 10
245.955
 20
-449.555
 11
246.377
 21
-449.73
  0
LINE
  8
0
 10
246.377
 20
-449.73
 11
246.739
 21
-450.008
  0
LINE
  8
0
 10
246.739
 20
-450.008
 11
247.017
 21
-450.371
  0
LINE
  8
0
 10
247.017
 20
-450.371
 11
247.192
 21
-450.793
  0
LINE
  8
0
 10
247.192
 20
-450.793
 11
247.252
 21
-451.246
  0
LINE
  8
0
 10
247.252
 20
-451.246
 11
247.192
 21
-451.699
  0
LINE
  8
0
 10
247.192
 20
-451.699
 11
247.017
 21
-452.121
  0
LINE
  8
0
 10
247.017
 20
-452.121
 11
246.739
 21
-452.483
  0
LINE
  8
0
 10
246.739
 20
-452.483
 11
246.377
 21
-452.761
  0
LINE
  8
0
 10
246.377
 20
-452.761
 11
245.955
 21
-452.936
  0
LINE
  8
0
 10
245.955
 20
-452.936
 11
245.502
 21
-452.996
  0
LINE
  8
0
 10
245.502
 20
-452.996
 11
125.502
 21
-452.996
  0
LINE
  8
0
 10
125.502
 20
-452.996
 11
125.049
 21
-452.936
  0
LINE
  8
0
 10
125.049
 20
-452.936
 11
124.627
 21
-452.761
  0
LINE
  8
0
 10
124.627
 20
-452.761
 11
124.264
 21
-452.483
  0
LINE
  8
0
 10
124.264
 20
-452.483
 11
123.986
 21
-452.121
  0
LINE
  8
0
 10
123.986
 20
-452.121
 11
123.811
 21
-451.699
  0
LINE
  8
0
 10
123.811
 20
-451.699
 11
123.752
 21
-451.246
  0
LINE
  8
0
 10
123.752
 20
-11.2457
 11
123.811
 21
-10.7928
  0
LINE
  8
0
 10
123.811
 20
-10.7928
 11
123.986
 21
-10.3707
  0
LINE
  8
0
 10
123.986
 20
-10.3707
 11
124.264
 21
-10.0083
  0
LINE
  8
0
 10
124.264
 20
-10.0083
 11
124.627
 21
-9.73016
  0
LINE
  8
0
 10
124.627
 20
-9.73016
 11
125.049
 21
-9.55534
  0
LINE
  8
0
 10
125.049
 20
-9.55534
 11
125.502
 21
-9.4957
  0
LINE
  8
0
 10
125.502
 20
-9.4957
 11
245.502
 21
-9.4957
  0
LINE
  8
0
 10
245.502
 20
-9.4957
 11
245.955
 21
-9.55534
  0
LINE
  8
0
 10
245.955
 20
-9.55534
 11
246.377
 21
-9.73016
  0
LINE
  8
0
 10
246.377
 20
-9.73016
 11
246.739
 21
-10.0083
  0
LINE
  8
0
 10
246.739
 20
-10.0083
 11
247.017
 21
-10.3707
  0
LINE
  8
0
 10
247.017
 20
-10.3707
 11
247.192
 21
-10.7928
  0
LINE
  8
0
 10
247.192
 20
-10.7928
 11
247.252
 21
-11.2457
  0
LINE
  8
0
 10
247.252
 20
-11.2457
 11
247.192
 21
-11.6986
  0
LINE
  8
0
 10
247.192
 20
-11.6986
 11
247.017
 21
-12.1207
  0
LINE
  8
0
 10
247.017
 20
-12.1207
 11
246.739
 21
-12.4831
  0
LINE
  8
0
 10
246.739
 20
-12.4831
 11
246.377
 21
-12.7612
  0
LINE
  8
0
 10
246.377
 20
-12.7612
 11
245.955
 21
-12.9361
  0
LINE
  8
0
 10
245.955
 20
-12.9361
 11
245.502
 21
-12.9957
  0
LINE
  8
0
 10
245.502
 20
-12.9957
 11
125.502
 21
-12.9957
  0
LINE
  8
0
 10
125.502
 20
-12.9957
 11
125.049
 21
-12.9361
  0
LINE
  8
0
 10
125.049
 20
-12.9361
 11
124.627
 21
-12.7612
  0
LINE
  8
0
 10
124.627
 20
-12.7612
 11
124.264
 21
-12.4831
  0
LINE
  8
0
 10
124.264
 20
-12.4831
 11
123.986
 21
-12.1207
  0
LINE
  8
0
 10
123.986
 20
-12.1207
 11
123.811
 21
-11.6986
  0
LINE
  8
0
 10
123.811
 20
-11.6986
 11
123.752
 21
-11.2457
  0
LINE
  8
0
 10
280.102
 20
-451.246
 11
280.161
 21
-450.793
  0
LINE
  8
0
 10
280.161
 20
-450.793
 11
280.336
 21
-450.371
  0
LINE
  8
0
 10
280.336
 20
-450.371
 11
280.614
 21
-450.008
  0
LINE
  8
0
 10
280.614
 20
-450.008
 11
280.977
 21
-449.73
  0
LINE
  8
0
 10
280.977
 20
-449.73
 11
281.399
 21
-449.555
  0
LINE
  8
0
 10
281.399
 20
-449.555
 11
281.852
 21
-449.496
  0
LINE
  8
0
 10
281.852
 20
-449.496
 11
401.852
 21
-449.496
  0
LINE
  8
0
 10
401.852
 20
-449.496
 11
402.305
 21
-449.555
  0
LINE
  8
0
 10
402.305
 20
-449.555
 11
402.727
 21
-449.73
  0
LINE
  8
0
 10
402.727
 20
-449.73
 11
403.089
 21
-450.008
  0
LINE
  8
0
 10
403.089
 20
-450.008
 11
403.367
 21
-450.371
  0
LINE
  8
0
 10
403.367
 20
-450.371
 11
403.542
 21
-450.793
  0
LINE
  8
0
 10
403.542
 20
-450.793
 11
403.602
 21
-451.246
  0
LINE
  8
0
 10
403.602
 20
-451.246
 11
403.542
 21
-451.699
  0
LINE
  8
0
 10
403.542
 20
-451.699
 11
403.367
 21
-452.121
  0
LINE
  8
0
 10
403.367
 20
-452.121
 11
403.089
 21
-452.483
  0
LINE
  8
0
 10
403.089
 20
-452.483
 11
402.727
 21
-452.761
  0
LINE
  8
0
 10
402.727
 20
-452.761
 11
402.305
 21
-452.936
  0
LINE
  8
0
 10
402.305
 20
-452.936
 11
401.852
 21
-452.996
  0
LINE
  8
0
 10
401.852
 20
-452.996
 11
281.852
 21
-452.996
  0
LINE
  8
0
 10
281.852
 20
-452.996
 11
281.399
 21
-452.936
  0
LINE
  8
0
 10
281.399
 20
-452.936
 11
280.977
 21
-452.761
  0
LINE
  8
0
 10
280.977
 20
-452.761
 11
280.614
 21
-452.483
  0
LINE
  8
0
 10
280.614
 20
-452.483
 11
280.336
 21
-452.121
  0
LINE
  8
0
 10
280.336
 20
-452.121
 11
280.161
 21
-451.699
  0
LINE
  8
0
 10
280.161
 20
-451.699
 11
280.102
 21
-451.246
  0
LINE
  8
0
 10
280.102
 20
-11.2457
 11
280.161
 21
-10.7928
  0
LINE
  8
0
 10
280.161
 20
-10.7928
 11
280.336
 21
-10.3707
  0
LINE
  8
0
 10
280.336
 20
-10.3707
 11
280.614
 21
-10.0083
  0
LINE
  8
0
 10
280.614
 20
-10.0083
 11
280.977
 21
-9.73016
  0
LINE
  8
0
 10
280.977
 20
-9.73016
 11
281.399
 21
-9.55534
  0
LINE
  8
0
 10
281.399
 20
-9.55534
 11
281.852
 21
-9.4957
  0
LINE
  8
0
 10
281.852
 20
-9.4957
 11
401.852
 21
-9.4957
  0
LINE
  8
0
 10
401.852
 20
-9.4957
 11
402.305
 21
-9.55534
  0
LINE
  8
0
 10
402.305
 20
-9.55534
 11
402.727
 21
-9.73016
  0
LINE
  8
0
 10
402.727
 20
-9.73016
 11
403.089
 21
-10.0083
  0
LINE
  8
0
 10
403.089
 20
-10.0083
 11
403.367
 21
-10.3707
  0
LINE
  8
0
 10
403.367
 20
-10.3707
 11
403.542
 21
-10.7928
  0
LINE
  8
0
 10
403.542
 20
-10.7928
 11
403.602
 21
-11.2457
  0
LINE
  8
0
 10
403.602
 20
-11.2457
 11
403.542
 21
-11.6986
  0
LINE
  8
0
 10
403.542
 20
-11.6986
 11
403.367
 21
-12.1207
  0
LINE
  8
0
 10
403.367
 20
-12.1207
 11
403.089
 21
-12.4831
  0
LINE
  8
0
 10
403.089
 20
-12.4831
 11
402.727
 21
-12.7612
  0
LINE
  8
0
 10
402.727
 20
-12.7612
 11
402.305
 21
-12.9361
  0
LINE
  8
0
 10
402.305
 20
-12.9361
 11
401.852
 21
-12.9957
  0
LINE
  8
0
 10
401.852
 20
-12.9957
 11
281.852
 21
-12.9957
  0
LINE
  8
0
 10
281.852
 20
-12.9957
 11
281.399
 21
-12.9361
  0
LINE
  8
0
 10
281.399
 20
-12.9361
 11
280.977
 21
-12.7612
  0
LINE
  8
0
 10
280.977
 20
-12.7612
 11
280.614
 21
-12.4831
  0
LINE
  8
0
 10
280.614
 20
-12.4831
 11
280.336
 21
-12.1207
  0
LINE
  8
0
 10
280.336
 20
-12.1207
 11
280.161
 21
-11.6986
  0
LINE
  8
0
 10
280.161
 20
-11.6986
 11
280.102
 21
-11.2457
  0
LINE
  8
0
 10
419.252
 20
-451.246
 11
419.37
 21
-450.313
  0
LINE
  8
0
 10
419.37
 20
-450.313
 11
419.716
 21
-449.439
  0
LINE
  8
0
 10
419.716
 20
-449.439
 11
420.268
 21
-448.679
  0
LINE
  8
0
 10
420.268
 20
-448.679
 11
420.992
 21
-448.079
  0
LINE
  8
0
 10
420.992
 20
-448.079
 11
421.843
 21
-447.679
  0
LINE
  8
0
 10
421.843
 20
-447.679
 11
422.766
 21
-447.503
  0
LINE
  8
0
 10
422.766
 20
-447.503
 11
423.704
 21
-447.562
  0
LINE
  8
0
 10
423.704
 20
-447.562
 11
424.598
 21
-447.853
  0
LINE
  8
0
 10
424.598
 20
-447.853
 11
425.392
 21
-448.356
  0
LINE
  8
0
 10
425.392
 20
-448.356
 11
426.036
 21
-449.042
  0
LINE
  8
0
 10
426.036
 20
-449.042
 11
426.488
 21
-449.865
  0
LINE
  8
0
 10
426.488
 20
-449.865
 11
426.722
 21
-450.776
  0
LINE
  8
0
 10
426.722
 20
-450.776
 11
426.722
 21
-451.716
  0
LINE
  8
0
 10
426.722
 20
-451.716
 11
426.488
 21
-452.626
  0
LINE
  8
0
 10
426.488
 20
-452.626
 11
426.036
 21
-453.45
  0
LINE
  8
0
 10
426.036
 20
-453.45
 11
425.392
 21
-454.135
  0
LINE
  8
0
 10
425.392
 20
-454.135
 11
424.598
 21
-454.639
  0
LINE
  8
0
 10
424.598
 20
-454.639
 11
423.704
 21
-454.929
  0
LINE
  8
0
 10
423.704
 20
-454.929
 11
422.766
 21
-454.988
  0
LINE
  8
0
 10
422.766
 20
-454.988
 11
421.843
 21
-454.812
  0
LINE
  8
0
 10
421.843
 20
-454.812
 11
420.992
 21
-454.412
  0
LINE
  8
0
 10
420.992
 20
-454.412
 11
420.268
 21
-453.813
  0
LINE
  8
0
 10
420.268
 20
-453.813
 11
419.716
 21
-453.052
  0
LINE
  8
0
 10
419.716
 20
-453.052
 11
419.37
 21
-452.178
  0
LINE
  8
0
 10
419.37
 20
-452.178
 11
419.252
 21
-451.246
  0
LINE
  8
0
 10
419.252
 20
-11.2457
 11
419.37
 21
-10.3131
  0
LINE
  8
0
 10
419.37
 20
-10.3131
 11
419.716
 21
-9.43913
  0
LINE
  8
0
 10
419.716
 20
-9.43913
 11
420.268
 21
-8.67865
  0
LINE
  8
0
 10
420.268
 20
-8.67865
 11
420.992
 21
-8.07948
  0
LINE
  8
0
 10
420.992
 20
-8.07948
 11
421.843
 21
-7.67924
  0
LINE
  8
0
 10
421.843
 20
-7.67924
 11
422.766
 21
-7.5031
  0
LINE
  8
0
 10
422.766
 20
-7.5031
 11
423.704
 21
-7.56213
  0
LINE
  8
0
 10
423.704
 20
-7.56213
 11
424.598
 21
-7.8526
  0
LINE
  8
0
 10
424.598
 20
-7.8526
 11
425.392
 21
-8.35628
  0
LINE
  8
0
 10
425.392
 20
-8.35628
 11
426.036
 21
-9.04151
  0
LINE
  8
0
 10
426.036
 20
-9.04151
 11
426.488
 21
-9.86524
  0
LINE
  8
0
 10
426.488
 20
-9.86524
 11
426.722
 21
-10.7757
  0
LINE
  8
0
 10
426.722
 20
-10.7757
 11
426.722
 21
-11.7157
  0
LINE
  8
0
 10
426.722
 20
-11.7157
 11
426.488
 21
-12.6262
  0
LINE
  8
0
 10
426.488
 20
-12.6262
 11
426.036
 21
-13.4499
  0
LINE
  8
0
 10
426.036
 20
-13.4499
 11
425.392
 21
-14.1351
  0
LINE
  8
0
 10
425.392
 20
-14.1351
 11
424.598
 21
-14.6388
  0
LINE
  8
0
 10
424.598
 20
-14.6388
 11
423.704
 21
-14.9293
  0
LINE
  8
0
 10
423.704
 20
-14.9293
 11
422.766
 21
-14.9883
  0
LINE
  8
0
 10
422.766
 20
-14.9883
 11
421.843
 21
-14.8122
  0
LINE
  8
0
 10
421.843
 20
-14.8122
 11
420.992
 21
-14.4119
  0
LINE
  8
0
 10
420.992
 20
-14.4119
 11
420.268
 21
-13.8128
  0
LINE
  8
0
 10
420.268
 20
-13.8128
 11
419.716
 21
-13.0523
  0
LINE
  8
0
 10
419.716
 20
-13.0523
 11
419.37
 21
-12.1783
  0
LINE
  8
0
 10
419.37
 20
-12.1783
 11
419.252
 21
-11.2457
  0
LINE
  8
0
 10
421.252
 20
-430.096
 11
421.252
 21
-320.096
  0
LINE
  8
0
 10
421.252
 20
-320.096
 11
421.311
 21
-319.643
  0
LINE
  8
0
 10
421.311
 20
-319.643
 11
421.486
 21
-319.221
  0
LINE
  8
0
 10
421.486
 20
-319.221
 11
421.764
 21
-318.858
  0
LINE
  8
0
 10
421.764
 20
-318.858
 11
422.127
 21
-318.58
  0
LINE
  8
0
 10
422.127
 20
-318.58
 11
422.549
 21
-318.405
  0
LINE
  8
0
 10
422.549
 20
-318.405
 11
423.002
 21
-318.346
  0
LINE
  8
0
 10
423.002
 20
-318.346
 11
423.455
 21
-318.405
  0
LINE
  8
0
 10
423.455
 20
-318.405
 11
423.877
 21
-318.58
  0
LINE
  8
0
 10
423.877
 20
-318.58
 11
424.239
 21
-318.858
  0
LINE
  8
0
 10
424.239
 20
-318.858
 11
424.517
 21
-319.221
  0
LINE
  8
0
 10
424.517
 20
-319.221
 11
424.692
 21
-319.643
  0
LINE
  8
0
 10
424.692
 20
-319.643
 11
424.752
 21
-320.096
  0
LINE
  8
0
 10
424.752
 20
-320.096
 11
424.752
 21
-430.096
  0
LINE
  8
0
 10
424.752
 20
-430.096
 11
424.692
 21
-430.549
  0
LINE
  8
0
 10
424.692
 20
-430.549
 11
424.517
 21
-430.971
  0
LINE
  8
0
 10
424.517
 20
-430.971
 11
424.239
 21
-431.333
  0
LINE
  8
0
 10
424.239
 20
-431.333
 11
423.877
 21
-431.611
  0
LINE
  8
0
 10
423.877
 20
-431.611
 11
423.455
 21
-431.786
  0
LINE
  8
0
 10
423.455
 20
-431.786
 11
423.002
 21
-431.846
  0
LINE
  8
0
 10
423.002
 20
-431.846
 11
422.549
 21
-431.786
  0
LINE
  8
0
 10
422.549
 20
-431.786
 11
422.127
 21
-431.611
  0
LINE
  8
0
 10
422.127
 20
-431.611
 11
421.764
 21
-431.333
  0
LINE
  8
0
 10
421.764
 20
-431.333
 11
421.486
 21
-430.971
  0
LINE
  8
0
 10
421.486
 20
-430.971
 11
421.311
 21
-430.549
  0
LINE
  8
0
 10
421.311
 20
-430.549
 11
421.252
 21
-430.096
  0
LINE
  8
0
 10
421.252
 20
-286.246
 11
421.252
 21
-176.246
  0
LINE
  8
0
 10
421.252
 20
-176.246
 11
421.311
 21
-175.793
  0
LINE
  8
0
 10
421.311
 20
-175.793
 11
421.486
 21
-175.371
  0
LINE
  8
0
 10
421.486
 20
-175.371
 11
421.764
 21
-175.008
  0
LINE
  8
0
 10
421.764
 20
-175.008
 11
422.127
 21
-174.73
  0
LINE
  8
0
 10
422.127
 20
-174.73
 11
422.549
 21
-174.555
  0
LINE
  8
0
 10
422.549
 20
-174.555
 11
423.002
 21
-174.496
  0
LINE
  8
0
 10
423.002
 20
-174.496
 11
423.455
 21
-174.555
  0
LINE
  8
0
 10
423.455
 20
-174.555
 11
423.877
 21
-174.73
  0
LINE
  8
0
 10
423.877
 20
-174.73
 11
424.239
 21
-175.008
  0
LINE
  8
0
 10
424.239
 20
-175.008
 11
424.517
 21
-175.371
  0
LINE
  8
0
 10
424.517
 20
-175.371
 11
424.692
 21
-175.793
  0
LINE
  8
0
 10
424.692
 20
-175.793
 11
424.752
 21
-176.246
  0
LINE
  8
0
 10
424.752
 20
-176.246
 11
424.752
 21
-286.246
  0
LINE
  8
0
 10
424.752
 20
-286.246
 11
424.692
 21
-286.699
  0
LINE
  8
0
 10
424.692
 20
-286.699
 11
424.517
 21
-287.121
  0
LINE
  8
0
 10
424.517
 20
-287.121
 11
424.239
 21
-287.483
  0
LINE
  8
0
 10
424.239
 20
-287.483
 11
423.877
 21
-287.761
  0
LINE
  8
0
 10
423.877
 20
-287.761
 11
423.455
 21
-287.936
  0
LINE
  8
0
 10
423.455
 20
-287.936
 11
423.002
 21
-287.996
  0
LINE
  8
0
 10
423.002
 20
-287.996
 11
422.549
 21
-287.936
  0
LINE
  8
0
 10
422.549
 20
-287.936
 11
422.127
 21
-287.761
  0
LINE
  8
0
 10
422.127
 20
-287.761
 11
421.764
 21
-287.483
  0
LINE
  8
0
 10
421.764
 20
-287.483
 11
421.486
 21
-287.121
  0
LINE
  8
0
 10
421.486
 20
-287.121
 11
421.311
 21
-286.699
  0
LINE
  8
0
 10
421.311
 20
-286.699
 11
421.252
 21
-286.246
  0
LINE
  8
0
 10
421.252
 20
-142.396
 11
421.252
 21
-32.3957
  0
LINE
  8
0
 10
421.252
 20
-32.3957
 11
421.311
 21
-31.9428
  0
LINE
  8
0
 10
421.311
 20
-31.9428
 11
421.486
 21
-31.5207
  0
LINE
  8
0
 10
421.486
 20
-31.5207
 11
421.764
 21
-31.1583
  0
LINE
  8
0
 10
421.764
 20
-31.1583
 11
422.127
 21
-30.8802
  0
LINE
  8
0
 10
422.127
 20
-30.8802
 11
422.549
 21
-30.7053
  0
LINE
  8
0
 10
422.549
 20
-30.7053
 11
423.002
 21
-30.6457
  0
LINE
  8
0
 10
423.002
 20
-30.6457
 11
423.455
 21
-30.7053
  0
LINE
  8
0
 10
423.455
 20
-30.7053
 11
423.877
 21
-30.8802
  0
LINE
  8
0
 10
423.877
 20
-30.8802
 11
424.239
 21
-31.1583
  0
LINE
  8
0
 10
424.239
 20
-31.1583
 11
424.517
 21
-31.5207
  0
LINE
  8
0
 10
424.517
 20
-31.5207
 11
424.692
 21
-31.9428
  0
LINE
  8
0
 10
424.692
 20
-31.9428
 11
424.752
 21
-32.3957
  0
LINE
  8
0
 10
424.752
 20
-32.3957
 11
424.752
 21
-142.396
  0
LINE
  8
0
 10
424.752
 20
-142.396
 11
424.692
 21
-142.849
  0
LINE
  8
0
 10
424.692
 20
-142.849
 11
424.517
 21
-143.271
  0
LINE
  8
0
 10
424.517
 20
-143.271
 11
424.239
 21
-143.633
  0
LINE
  8
0
 10
424.239
 20
-143.633
 11
423.877
 21
-143.911
  0
LINE
  8
0
 10
423.877
 20
-143.911
 11
423.455
 21
-144.086
  0
LINE
  8
0
 10
423.455
 20
-144.086
 11
423.002
 21
-144.146
  0
LINE
  8
0
 10
423.002
 20
-144.146
 11
422.549
 21
-144.086
  0
LINE
  8
0
 10
422.549
 20
-144.086
 11
422.127
 21
-143.911
  0
LINE
  8
0
 10
422.127
 20
-143.911
 11
421.764
 21
-143.633
  0
LINE
  8
0
 10
421.764
 20
-143.633
 11
421.486
 21
-143.271
  0
LINE
  8
0
 10
421.486
 20
-143.271
 11
421.311
 21
-142.849
  0
LINE
  8
0
 10
421.311
 20
-142.849
 11
421.252
 21
-142.396
  0
LINE
  8
0
 10
446.302
 20
-425.246
 11
446.355
 21
-424.823
  0
LINE
  8
0
 10
446.355
 20
-424.823
 11
446.512
 21
-424.427
  0
LINE
  8
0
 10
446.512
 20
-424.427
 11
446.762
 21
-424.082
  0
LINE
  8
0
 10
446.762
 20
-424.082
 11
447.091
 21
-423.81
  0
LINE
  8
0
 10
447.091
 20
-423.81
 11
447.476
 21
-423.629
  0
LINE
  8
0
 10
447.476
 20
-423.629
 11
447.895
 21
-423.549
  0
LINE
  8
0
 10
447.895
 20
-423.549
 11
448.32
 21
-423.576
  0
LINE
  8
0
 10
448.32
 20
-423.576
 11
448.726
 21
-423.707
  0
LINE
  8
0
 10
448.726
 20
-423.707
 11
449.085
 21
-423.936
  0
LINE
  8
0
 10
449.085
 20
-423.936
 11
449.377
 21
-424.246
  0
LINE
  8
0
 10
449.377
 20
-424.246
 11
449.582
 21
-424.62
  0
LINE
  8
0
 10
449.582
 20
-424.62
 11
449.688
 21
-425.033
  0
LINE
  8
0
 10
449.688
 20
-425.033
 11
449.688
 21
-425.459
  0
LINE
  8
0
 10
449.688
 20
-425.459
 11
449.582
 21
-425.872
  0
LINE
  8
0
 10
449.582
 20
-425.872
 11
449.377
 21
-426.245
  0
LINE
  8
0
 10
449.377
 20
-426.245
 11
449.085
 21
-426.556
  0
LINE
  8
0
 10
449.085
 20
-426.556
 11
448.726
 21
-426.784
  0
LINE
  8
0
 10
448.726
 20
-426.784
 11
448.32
 21
-426.916
  0
LINE
  8
0
 10
448.32
 20
-426.916
 11
447.895
 21
-426.942
  0
LINE
  8
0
 10
447.895
 20
-426.942
 11
447.476
 21
-426.862
  0
LINE
  8
0
 10
447.476
 20
-426.862
 11
447.091
 21
-426.681
  0
LINE
  8
0
 10
447.091
 20
-426.681
 11
446.762
 21
-426.409
  0
LINE
  8
0
 10
446.762
 20
-426.409
 11
446.512
 21
-426.065
  0
LINE
  8
0
 10
446.512
 20
-426.065
 11
446.355
 21
-425.668
  0
LINE
  8
0
 10
446.355
 20
-425.668
 11
446.302
 21
-425.246
  0
LINE
  8
0
 10
446.302
 20
-37.2457
 11
446.355
 21
-36.8229
  0
LINE
  8
0
 10
446.355
 20
-36.8229
 11
446.512
 21
-36.4267
  0
LINE
  8
0
 10
446.512
 20
-36.4267
 11
446.762
 21
-36.082
  0
LINE
  8
0
 10
446.762
 20
-36.082
 11
447.091
 21
-35.8103
  0
LINE
  8
0
 10
447.091
 20
-35.8103
 11
447.476
 21
-35.6289
  0
LINE
  8
0
 10
447.476
 20
-35.6289
 11
447.895
 21
-35.5491
  0
LINE
  8
0
 10
447.895
 20
-35.5491
 11
448.32
 21
-35.5758
  0
LINE
  8
0
 10
448.32
 20
-35.5758
 11
448.726
 21
-35.7075
  0
LINE
  8
0
 10
448.726
 20
-35.7075
 11
449.085
 21
-35.9358
  0
LINE
  8
0
 10
449.085
 20
-35.9358
 11
449.377
 21
-36.2465
  0
LINE
  8
0
 10
449.377
 20
-36.2465
 11
449.582
 21
-36.6199
  0
LINE
  8
0
 10
449.582
 20
-36.6199
 11
449.688
 21
-37.0326
  0
LINE
  8
0
 10
449.688
 20
-37.0326
 11
449.688
 21
-37.4588
  0
LINE
  8
0
 10
449.688
 20
-37.4588
 11
449.582
 21
-37.8715
  0
LINE
  8
0
 10
449.582
 20
-37.8715
 11
449.377
 21
-38.2449
  0
LINE
  8
0
 10
449.377
 20
-38.2449
 11
449.085
 21
-38.5556
  0
LINE
  8
0
 10
449.085
 20
-38.5556
 11
448.726
 21
-38.7839
  0
LINE
  8
0
 10
448.726
 20
-38.7839
 11
448.32
 21
-38.9156
  0
LINE
  8
0
 10
448.32
 20
-38.9156
 11
447.895
 21
-38.9424
  0
LINE
  8
0
 10
447.895
 20
-38.9424
 11
447.476
 21
-38.8625
  0
LINE
  8
0
 10
447.476
 20
-38.8625
 11
447.091
 21
-38.6811
  0
LINE
  8
0
 10
447.091
 20
-38.6811
 11
446.762
 21
-38.4094
  0
LINE
  8
0
 10
446.762
 20
-38.4094
 11
446.512
 21
-38.0647
  0
LINE
  8
0
 10
446.512
 20
-38.0647
 11
446.355
 21
-37.6685
  0
LINE
  8
0
 10
446.355
 20
-37.6685
 11
446.302
 21
-37.2457
  0
LINE
  8
0
 10
461.302
 20
-440.246
 11
461.355
 21
-439.823
  0
LINE
  8
0
 10
461.355
 20
-439.823
 11
461.512
 21
-439.427
  0
LINE
  8
0
 10
461.512
 20
-439.427
 11
461.762
 21
-439.082
  0
LINE
  8
0
 10
461.762
 20
-439.082
 11
462.091
 21
-438.81
  0
LINE
  8
0
 10
462.091
 20
-438.81
 11
462.476
 21
-438.629
  0
LINE
  8
0
 10
462.476
 20
-438.629
 11
462.895
 21
-438.549
  0
LINE
  8
0
 10
462.895
 20
-438.549
 11
463.32
 21
-438.576
  0
LINE
  8
0
 10
463.32
 20
-438.576
 11
463.726
 21
-438.707
  0
LINE
  8
0
 10
463.726
 20
-438.707
 11
464.085
 21
-438.936
  0
LINE
  8
0
 10
464.085
 20
-438.936
 11
464.377
 21
-439.246
  0
LINE
  8
0
 10
464.377
 20
-439.246
 11
464.582
 21
-439.62
  0
LINE
  8
0
 10
464.582
 20
-439.62
 11
464.688
 21
-440.033
  0
LINE
  8
0
 10
464.688
 20
-440.033
 11
464.688
 21
-440.459
  0
LINE
  8
0
 10
464.688
 20
-440.459
 11
464.582
 21
-440.872
  0
LINE
  8
0
 10
464.582
 20
-440.872
 11
464.377
 21
-441.245
  0
LINE
  8
0
 10
464.377
 20
-441.245
 11
464.085
 21
-441.556
  0
LINE
  8
0
 10
464.085
 20
-441.556
 11
463.726
 21
-441.784
  0
LINE
  8
0
 10
463.726
 20
-441.784
 11
463.32
 21
-441.916
  0
LINE
  8
0
 10
463.32
 20
-441.916
 11
462.895
 21
-441.942
  0
LINE
  8
0
 10
462.895
 20
-441.942
 11
462.476
 21
-441.862
  0
LINE
  8
0
 10
462.476
 20
-441.862
 11
462.091
 21
-441.681
  0
LINE
  8
0
 10
462.091
 20
-441.681
 11
461.762
 21
-441.409
  0
LINE
  8
0
 10
461.762
 20
-441.409
 11
461.512
 21
-441.065
  0
LINE
  8
0
 10
461.512
 20
-441.065
 11
461.355
 21
-440.668
  0
LINE
  8
0
 10
461.355
 20
-440.668
 11
461.302
 21
-440.246
  0
LINE
  8
0
 10
461.302
 20
-22.2457
 11
461.355
 21
-21.8229
  0
LINE
  8
0
 10
461.355
 20
-21.8229
 11
461.512
 21
-21.4267
  0
LINE
  8
0
 10
461.512
 20
-21.4267
 11
461.762
 21
-21.082
  0
LINE
  8
0
 10
461.762
 20
-21.082
 11
462.091
 21
-20.8103
  0
LINE
  8
0
 10
462.091
 20
-20.8103
 11
462.476
 21
-20.6289
  0
LINE
  8
0
 10
462.476
 20
-20.6289
 11
462.895
 21
-20.5491
  0
LINE
  8
0
 10
462.895
 20
-20.5491
 11
463.32
 21
-20.5758
  0
LINE
  8
0
 10
463.32
 20
-20.5758
 11
463.726
 21
-20.7075
  0
LINE
  8
0
 10
463.726
 20
-20.7075
 11
464.085
 21
-20.9358
  0
LINE
  8
0
 10
464.085
 20
-20.9358
 11
464.377
 21
-21.2465
  0
LINE
  8
0
 10
464.377
 20
-21.2465
 11
464.582
 21
-21.6199
  0
LINE
  8
0
 10
464.582
 20
-21.6199
 11
464.688
 21
-22.0326
  0
LINE
  8
0
 10
464.688
 20
-22.0326
 11
464.688
 21
-22.4588
  0
LINE
  8
0
 10
464.688
 20
-22.4588
 11
464.582
 21
-22.8715
  0
LINE
  8
0
 10
464.582
 20
-22.8715
 11
464.377
 21
-23.2449
  0
LINE
  8
0
 10
464.377
 20
-23.2449
 11
464.085
 21
-23.5556
  0
LINE
  8
0
 10
464.085
 20
-23.5556
 11
463.726
 21
-23.7839
  0
LINE
  8
0
 10
463.726
 20
-23.7839
 11
463.32
 21
-23.9156
  0
LINE
  8
0
 10
463.32
 20
-23.9156
 11
462.895
 21
-23.9424
  0
LINE
  8
0
 10
462.895
 20
-23.9424
 11
462.476
 21
-23.8625
  0
LINE
  8
0
 10
462.476
 20
-23.8625
 11
462.091
 21
-23.6811
  0
LINE
  8
0
 10
462.091
 20
-23.6811
 11
461.762
 21
-23.4094
  0
LINE
  8
0
 10
461.762
 20
-23.4094
 11
461.512
 21
-23.0647
  0
LINE
  8
0
 10
461.512
 20
-23.0647
 11
461.355
 21
-22.6685
  0
LINE
  8
0
 10
461.355
 20
-22.6685
 11
461.302
 21
-22.2457
  0
ENDSEC
  0
SECTION
  2
OBJECTS
  0
DICTIONARY
  0
ENDSEC
  0
EOF
