  0
SECTION
  2
BLOCKS
  0
ENDSEC
  0
SECTION
  2
ENTITIES
  0
LINE
  8
0
 10
155.784
 20
-170.959
 11
156.559
 21
-170.836
  0
LINE
  8
0
 10
156.559
 20
-170.836
 11
157.318
 21
-170.633
  0
LINE
  8
0
 10
157.318
 20
-170.633
 11
158.051
 21
-170.352
  0
LINE
  8
0
 10
158.051
 20
-170.352
 11
158.75
 21
-169.995
  0
LINE
  8
0
 10
158.75
 20
-169.995
 11
159.408
 21
-169.568
  0
LINE
  8
0
 10
159.408
 20
-169.568
 11
160.018
 21
-169.074
  0
LINE
  8
0
 10
160.018
 20
-169.074
 11
160.574
 21
-168.518
  0
LINE
  8
0
 10
160.574
 20
-168.518
 11
161.068
 21
-167.908
  0
LINE
  8
0
 10
161.068
 20
-167.908
 11
161.495
 21
-167.25
  0
LINE
  8
0
 10
161.495
 20
-167.25
 11
161.852
 21
-166.551
  0
LINE
  8
0
 10
161.852
 20
-166.551
 11
162.133
 21
-165.818
  0
LINE
  8
0
 10
162.133
 20
-165.818
 11
162.336
 21
-165.059
  0
LINE
  8
0
 10
162.336
 20
-165.059
 11
162.459
 21
-164.284
  0
LINE
  8
0
 10
162.459
 20
-164.284
 11
162.5
 21
-163.5
  0
LINE
  8
0
 10
162.5
 20
-163.5
 11
162.5
 21
-16.7
  0
LINE
  8
0
 10
162.5
 20
-16.7
 11
162.527
 21
-16.1774
  0
LINE
  8
0
 10
162.527
 20
-16.1774
 11
162.609
 21
-15.6604
  0
LINE
  8
0
 10
162.609
 20
-15.6604
 11
162.745
 21
-15.1549
  0
LINE
  8
0
 10
162.745
 20
-15.1549
 11
162.932
 21
-14.6663
  0
LINE
  8
0
 10
162.932
 20
-14.6663
 11
163.17
 21
-14.2
  0
LINE
  8
0
 10
163.17
 20
-14.2
 11
163.455
 21
-13.7611
  0
LINE
  8
0
 10
163.455
 20
-13.7611
 11
163.784
 21
-13.3544
  0
LINE
  8
0
 10
163.784
 20
-13.3544
 11
164.154
 21
-12.9843
  0
LINE
  8
0
 10
164.154
 20
-12.9843
 11
164.561
 21
-12.6549
  0
LINE
  8
0
 10
164.561
 20
-12.6549
 11
165
 21
-12.3699
  0
LINE
  8
0
 10
165
 20
-12.3699
 11
165.466
 21
-12.1323
  0
LINE
  8
0
 10
165.466
 20
-12.1323
 11
165.955
 21
-11.9447
  0
LINE
  8
0
 10
165.955
 20
-11.9447
 11
166.46
 21
-11.8093
  0
LINE
  8
0
 10
166.46
 20
-11.8093
 11
166.977
 21
-11.7274
  0
LINE
  8
0
 10
166.977
 20
-11.7274
 11
168.284
 21
-11.6589
  0
LINE
  8
0
 10
168.284
 20
-11.6589
 11
169.059
 21
-11.5361
  0
LINE
  8
0
 10
169.059
 20
-11.5361
 11
169.818
 21
-11.3329
  0
LINE
  8
0
 10
169.818
 20
-11.3329
 11
170.551
 21
-11.0516
  0
LINE
  8
0
 10
170.551
 20
-11.0516
 11
171.25
 21
-10.6952
  0
LINE
  8
0
 10
171.25
 20
-10.6952
 11
171.908
 21
-10.2676
  0
LINE
  8
0
 10
171.908
 20
-10.2676
 11
172.518
 21
-9.77357
  0
LINE
  8
0
 10
172.518
 20
-9.77357
 11
173.074
 21
-9.21848
  0
LINE
  8
0
 10
173.074
 20
-9.21848
 11
173.568
 21
-8.60838
  0
LINE
  8
0
 10
173.568
 20
-8.60838
 11
173.995
 21
-7.95
  0
LINE
  8
0
 10
173.995
 20
-7.95
 11
174.352
 21
-7.25052
  0
LINE
  8
0
 10
174.352
 20
-7.25052
 11
174.633
 21
-6.51762
  0
LINE
  8
0
 10
174.633
 20
-6.51762
 11
174.836
 21
-5.75932
  0
LINE
  8
0
 10
174.836
 20
-5.75932
 11
174.959
 21
-4.98396
  0
LINE
  8
0
 10
174.959
 20
-4.98396
 11
175
 21
-4.2
  0
LINE
  8
0
 10
175
 20
-4.2
 11
175
 21
-1.69885
  0
LINE
  8
0
 10
175
 20
-1.69885
 11
167.438
 21
-1.69885
  0
LINE
  8
0
 10
167.438
 20
-1.69885
 11
167.191
 21
-1.67171
  0
LINE
  8
0
 10
167.191
 20
-1.67171
 11
166.951
 21
-1.60893
  0
LINE
  8
0
 10
166.951
 20
-1.60893
 11
166.723
 21
-1.51187
  0
LINE
  8
0
 10
166.723
 20
-1.51187
 11
166.511
 21
-1.38258
  0
LINE
  8
0
 10
166.511
 20
-1.38258
 11
166.32
 21
-1.22383
  0
LINE
  8
0
 10
166.32
 20
-1.22383
 11
166.154
 21
-1.03899
  0
LINE
  8
0
 10
166.154
 20
-1.03899
 11
166.018
 21
-0.832001
  0
LINE
  8
0
 10
166.018
 20
-0.832001
 11
165.912
 21
-0.607285
  0
LINE
  8
0
 10
165.912
 20
-0.607285
 11
165.841
 21
-0.369629
  0
LINE
  8
0
 10
165.841
 20
-0.369629
 11
165.805
 21
-0.124084
  0
LINE
  8
0
 10
165.805
 20
-0.124084
 11
165.805
 21
0.124084
  0
LINE
  8
0
 10
165.805
 20
0.124084
 11
165.841
 21
0.369629
  0
LINE
  8
0
 10
165.841
 20
0.369629
 11
165.912
 21
0.607285
  0
LINE
  8
0
 10
165.912
 20
0.607285
 11
166.018
 21
0.832001
  0
LINE
  8
0
 10
166.018
 20
0.832001
 11
166.154
 21
1.03899
  0
LINE
  8
0
 10
166.154
 20
1.03899
 11
166.32
 21
1.22383
  0
LINE
  8
0
 10
166.32
 20
1.22383
 11
166.511
 21
1.38258
  0
LINE
  8
0
 10
166.511
 20
1.38258
 11
166.723
 21
1.51187
  0
LINE
  8
0
 10
166.723
 20
1.51187
 11
166.951
 21
1.60893
  0
LINE
  8
0
 10
166.951
 20
1.60893
 11
167.191
 21
1.67171
  0
LINE
  8
0
 10
167.191
 20
1.67171
 11
167.438
 21
1.69885
  0
LINE
  8
0
 10
167.438
 20
1.69885
 11
175
 21
1.69885
  0
LINE
  8
0
 10
175
 20
1.69885
 11
175
 21
4.2
  0
LINE
  8
0
 10
175
 20
4.2
 11
174.959
 21
4.98396
  0
LINE
  8
0
 10
174.959
 20
4.98396
 11
174.836
 21
5.75932
  0
LINE
  8
0
 10
174.836
 20
5.75932
 11
174.633
 21
6.51762
  0
LINE
  8
0
 10
174.633
 20
6.51762
 11
174.352
 21
7.25052
  0
LINE
  8
0
 10
174.352
 20
7.25052
 11
173.995
 21
7.95
  0
LINE
  8
0
 10
173.995
 20
7.95
 11
173.568
 21
8.60838
  0
LINE
  8
0
 10
173.568
 20
8.60838
 11
173.074
 21
9.21848
  0
LINE
  8
0
 10
173.074
 20
9.21848
 11
172.518
 21
9.77357
  0
LINE
  8
0
 10
172.518
 20
9.77357
 11
171.908
 21
10.2676
  0
LINE
  8
0
 10
171.908
 20
10.2676
 11
171.25
 21
10.6952
  0
LINE
  8
0
 10
171.25
 20
10.6952
 11
170.551
 21
11.0516
  0
LINE
  8
0
 10
170.551
 20
11.0516
 11
169.818
 21
11.3329
  0
LINE
  8
0
 10
169.818
 20
11.3329
 11
169.059
 21
11.5361
  0
LINE
  8
0
 10
169.059
 20
11.5361
 11
168.284
 21
11.6589
  0
LINE
  8
0
 10
168.284
 20
11.6589
 11
166.977
 21
11.7274
  0
LINE
  8
0
 10
166.977
 20
11.7274
 11
166.46
 21
11.8093
  0
LINE
  8
0
 10
166.46
 20
11.8093
 11
165.955
 21
11.9447
  0
LINE
  8
0
 10
165.955
 20
11.9447
 11
165.466
 21
12.1323
  0
LINE
  8
0
 10
165.466
 20
12.1323
 11
165
 21
12.3699
  0
LINE
  8
0
 10
165
 20
12.3699
 11
164.561
 21
12.6549
  0
LINE
  8
0
 10
164.561
 20
12.6549
 11
164.154
 21
12.9843
  0
LINE
  8
0
 10
164.154
 20
12.9843
 11
163.784
 21
13.3544
  0
LINE
  8
0
 10
163.784
 20
13.3544
 11
163.455
 21
13.7611
  0
LINE
  8
0
 10
163.455
 20
13.7611
 11
163.17
 21
14.2
  0
LINE
  8
0
 10
163.17
 20
14.2
 11
162.932
 21
14.6663
  0
LINE
  8
0
 10
162.932
 20
14.6663
 11
162.745
 21
15.1549
  0
LINE
  8
0
 10
162.745
 20
15.1549
 11
162.609
 21
15.6604
  0
LINE
  8
0
 10
162.609
 20
15.6604
 11
162.527
 21
16.1774
  0
LINE
  8
0
 10
162.527
 20
16.1774
 11
162.5
 21
16.7
  0
LINE
  8
0
 10
162.5
 20
16.7
 11
162.5
 21
163.5
  0
LINE
  8
0
 10
162.5
 20
163.5
 11
162.459
 21
164.284
  0
LINE
  8
0
 10
162.459
 20
164.284
 11
162.336
 21
165.059
  0
LINE
  8
0
 10
162.336
 20
165.059
 11
162.133
 21
165.818
  0
LINE
  8
0
 10
162.133
 20
165.818
 11
161.852
 21
166.551
  0
LINE
  8
0
 10
161.852
 20
166.551
 11
161.495
 21
167.25
  0
LINE
  8
0
 10
161.495
 20
167.25
 11
161.068
 21
167.908
  0
LINE
  8
0
 10
161.068
 20
167.908
 11
160.574
 21
168.518
  0
LINE
  8
0
 10
160.574
 20
168.518
 11
160.018
 21
169.074
  0
LINE
  8
0
 10
160.018
 20
169.074
 11
159.408
 21
169.568
  0
LINE
  8
0
 10
159.408
 20
169.568
 11
158.75
 21
169.995
  0
LINE
  8
0
 10
158.75
 20
169.995
 11
158.051
 21
170.352
  0
LINE
  8
0
 10
158.051
 20
170.352
 11
157.318
 21
170.633
  0
LINE
  8
0
 10
157.318
 20
170.633
 11
156.559
 21
170.836
  0
LINE
  8
0
 10
156.559
 20
170.836
 11
155.784
 21
170.959
  0
LINE
  8
0
 10
155.784
 20
170.959
 11
155
 21
171
  0
LINE
  8
0
 10
155
 20
171
 11
-155
 21
171
  0
LINE
  8
0
 10
-155
 20
171
 11
-155.784
 21
170.959
  0
LINE
  8
0
 10
-155.784
 20
170.959
 11
-156.559
 21
170.836
  0
LINE
  8
0
 10
-156.559
 20
170.836
 11
-157.318
 21
170.633
  0
LINE
  8
0
 10
-157.318
 20
170.633
 11
-158.051
 21
170.352
  0
LINE
  8
0
 10
-158.051
 20
170.352
 11
-158.75
 21
169.995
  0
LINE
  8
0
 10
-158.75
 20
169.995
 11
-159.408
 21
169.568
  0
LINE
  8
0
 10
-159.408
 20
169.568
 11
-160.018
 21
169.074
  0
LINE
  8
0
 10
-160.018
 20
169.074
 11
-160.574
 21
168.518
  0
LINE
  8
0
 10
-160.574
 20
168.518
 11
-161.068
 21
167.908
  0
LINE
  8
0
 10
-161.068
 20
167.908
 11
-161.495
 21
167.25
  0
LINE
  8
0
 10
-161.495
 20
167.25
 11
-161.852
 21
166.551
  0
LINE
  8
0
 10
-161.852
 20
166.551
 11
-162.133
 21
165.818
  0
LINE
  8
0
 10
-162.133
 20
165.818
 11
-162.336
 21
165.059
  0
LINE
  8
0
 10
-162.336
 20
165.059
 11
-162.459
 21
164.284
  0
LINE
  8
0
 10
-162.459
 20
164.284
 11
-162.5
 21
163.5
  0
LINE
  8
0
 10
-162.5
 20
163.5
 11
-162.5
 21
144.2
  0
LINE
  8
0
 10
-162.5
 20
144.2
 11
-162.527
 21
143.677
  0
LINE
  8
0
 10
-162.527
 20
143.677
 11
-162.609
 21
143.16
  0
LINE
  8
0
 10
-162.609
 20
143.16
 11
-162.745
 21
142.655
  0
LINE
  8
0
 10
-162.745
 20
142.655
 11
-162.932
 21
142.166
  0
LINE
  8
0
 10
-162.932
 20
142.166
 11
-163.17
 21
141.7
  0
LINE
  8
0
 10
-163.17
 20
141.7
 11
-163.455
 21
141.261
  0
LINE
  8
0
 10
-163.455
 20
141.261
 11
-163.784
 21
140.854
  0
LINE
  8
0
 10
-163.784
 20
140.854
 11
-164.154
 21
140.484
  0
LINE
  8
0
 10
-164.154
 20
140.484
 11
-164.561
 21
140.155
  0
LINE
  8
0
 10
-164.561
 20
140.155
 11
-165
 21
139.87
  0
LINE
  8
0
 10
-165
 20
139.87
 11
-165.466
 21
139.632
  0
LINE
  8
0
 10
-165.466
 20
139.632
 11
-165.955
 21
139.445
  0
LINE
  8
0
 10
-165.955
 20
139.445
 11
-166.46
 21
139.309
  0
LINE
  8
0
 10
-166.46
 20
139.309
 11
-166.977
 21
139.227
  0
LINE
  8
0
 10
-166.977
 20
139.227
 11
-168.284
 21
139.159
  0
LINE
  8
0
 10
-168.284
 20
139.159
 11
-169.059
 21
139.036
  0
LINE
  8
0
 10
-169.059
 20
139.036
 11
-169.818
 21
138.833
  0
LINE
  8
0
 10
-169.818
 20
138.833
 11
-170.551
 21
138.552
  0
LINE
  8
0
 10
-170.551
 20
138.552
 11
-171.25
 21
138.195
  0
LINE
  8
0
 10
-171.25
 20
138.195
 11
-171.908
 21
137.768
  0
LINE
  8
0
 10
-171.908
 20
137.768
 11
-172.518
 21
137.274
  0
LINE
  8
0
 10
-172.518
 20
137.274
 11
-173.074
 21
136.718
  0
LINE
  8
0
 10
-173.074
 20
136.718
 11
-173.568
 21
136.108
  0
LINE
  8
0
 10
-173.568
 20
136.108
 11
-173.995
 21
135.45
  0
LINE
  8
0
 10
-173.995
 20
135.45
 11
-174.352
 21
134.751
  0
LINE
  8
0
 10
-174.352
 20
134.751
 11
-174.633
 21
134.018
  0
LINE
  8
0
 10
-174.633
 20
134.018
 11
-174.836
 21
133.259
  0
LINE
  8
0
 10
-174.836
 20
133.259
 11
-174.959
 21
132.484
  0
LINE
  8
0
 10
-174.959
 20
132.484
 11
-175
 21
131.7
  0
LINE
  8
0
 10
-175
 20
131.7
 11
-175
 21
129.199
  0
LINE
  8
0
 10
-175
 20
129.199
 11
-167.438
 21
129.199
  0
LINE
  8
0
 10
-167.438
 20
129.199
 11
-167.191
 21
129.172
  0
LINE
  8
0
 10
-167.191
 20
129.172
 11
-166.951
 21
129.109
  0
LINE
  8
0
 10
-166.951
 20
129.109
 11
-166.723
 21
129.012
  0
LINE
  8
0
 10
-166.723
 20
129.012
 11
-166.511
 21
128.883
  0
LINE
  8
0
 10
-166.511
 20
128.883
 11
-166.32
 21
128.724
  0
LINE
  8
0
 10
-166.32
 20
128.724
 11
-166.154
 21
128.539
  0
LINE
  8
0
 10
-166.154
 20
128.539
 11
-166.018
 21
128.332
  0
LINE
  8
0
 10
-166.018
 20
128.332
 11
-165.912
 21
128.107
  0
LINE
  8
0
 10
-165.912
 20
128.107
 11
-165.841
 21
127.87
  0
LINE
  8
0
 10
-165.841
 20
127.87
 11
-165.805
 21
127.624
  0
LINE
  8
0
 10
-165.805
 20
127.624
 11
-165.805
 21
127.376
  0
LINE
  8
0
 10
-165.805
 20
127.376
 11
-165.841
 21
127.13
  0
LINE
  8
0
 10
-165.841
 20
127.13
 11
-165.912
 21
126.893
  0
LINE
  8
0
 10
-165.912
 20
126.893
 11
-166.018
 21
126.668
  0
LINE
  8
0
 10
-166.018
 20
126.668
 11
-166.154
 21
126.461
  0
LINE
  8
0
 10
-166.154
 20
126.461
 11
-166.32
 21
126.276
  0
LINE
  8
0
 10
-166.32
 20
126.276
 11
-166.511
 21
126.117
  0
LINE
  8
0
 10
-166.511
 20
126.117
 11
-166.723
 21
125.988
  0
LINE
  8
0
 10
-166.723
 20
125.988
 11
-166.951
 21
125.891
  0
LINE
  8
0
 10
-166.951
 20
125.891
 11
-167.191
 21
125.828
  0
LINE
  8
0
 10
-167.191
 20
125.828
 11
-167.438
 21
125.801
  0
LINE
  8
0
 10
-167.438
 20
125.801
 11
-175
 21
125.801
  0
LINE
  8
0
 10
-175
 20
125.801
 11
-175
 21
123.3
  0
LINE
  8
0
 10
-175
 20
123.3
 11
-174.959
 21
122.516
  0
LINE
  8
0
 10
-174.959
 20
122.516
 11
-174.836
 21
121.741
  0
LINE
  8
0
 10
-174.836
 20
121.741
 11
-174.633
 21
120.982
  0
LINE
  8
0
 10
-174.633
 20
120.982
 11
-174.352
 21
120.249
  0
LINE
  8
0
 10
-174.352
 20
120.249
 11
-173.995
 21
119.55
  0
LINE
  8
0
 10
-173.995
 20
119.55
 11
-173.568
 21
118.892
  0
LINE
  8
0
 10
-173.568
 20
118.892
 11
-173.074
 21
118.282
  0
LINE
  8
0
 10
-173.074
 20
118.282
 11
-172.518
 21
117.726
  0
LINE
  8
0
 10
-172.518
 20
117.726
 11
-171.908
 21
117.232
  0
LINE
  8
0
 10
-171.908
 20
117.232
 11
-171.25
 21
116.805
  0
LINE
  8
0
 10
-171.25
 20
116.805
 11
-170.551
 21
116.448
  0
LINE
  8
0
 10
-170.551
 20
116.448
 11
-169.818
 21
116.167
  0
LINE
  8
0
 10
-169.818
 20
116.167
 11
-169.059
 21
115.964
  0
LINE
  8
0
 10
-169.059
 20
115.964
 11
-168.284
 21
115.841
  0
LINE
  8
0
 10
-168.284
 20
115.841
 11
-166.977
 21
115.773
  0
LINE
  8
0
 10
-166.977
 20
115.773
 11
-166.46
 21
115.691
  0
LINE
  8
0
 10
-166.46
 20
115.691
 11
-165.955
 21
115.555
  0
LINE
  8
0
 10
-165.955
 20
115.555
 11
-165.466
 21
115.368
  0
LINE
  8
0
 10
-165.466
 20
115.368
 11
-165
 21
115.13
  0
LINE
  8
0
 10
-165
 20
115.13
 11
-164.561
 21
114.845
  0
LINE
  8
0
 10
-164.561
 20
114.845
 11
-164.154
 21
114.516
  0
LINE
  8
0
 10
-164.154
 20
114.516
 11
-163.784
 21
114.146
  0
LINE
  8
0
 10
-163.784
 20
114.146
 11
-163.455
 21
113.739
  0
LINE
  8
0
 10
-163.455
 20
113.739
 11
-163.17
 21
113.3
  0
LINE
  8
0
 10
-163.17
 20
113.3
 11
-162.932
 21
112.834
  0
LINE
  8
0
 10
-162.932
 20
112.834
 11
-162.745
 21
112.345
  0
LINE
  8
0
 10
-162.745
 20
112.345
 11
-162.609
 21
111.84
  0
LINE
  8
0
 10
-162.609
 20
111.84
 11
-162.527
 21
111.323
  0
LINE
  8
0
 10
-162.527
 20
111.323
 11
-162.5
 21
110.8
  0
LINE
  8
0
 10
-162.5
 20
110.8
 11
-162.5
 21
-110.8
  0
LINE
  8
0
 10
-162.5
 20
-110.8
 11
-162.527
 21
-111.323
  0
LINE
  8
0
 10
-162.527
 20
-111.323
 11
-162.609
 21
-111.84
  0
LINE
  8
0
 10
-162.609
 20
-111.84
 11
-162.745
 21
-112.345
  0
LINE
  8
0
 10
-162.745
 20
-112.345
 11
-162.932
 21
-112.834
  0
LINE
  8
0
 10
-162.932
 20
-112.834
 11
-163.17
 21
-113.3
  0
LINE
  8
0
 10
-163.17
 20
-113.3
 11
-163.455
 21
-113.739
  0
LINE
  8
0
 10
-163.455
 20
-113.739
 11
-163.784
 21
-114.146
  0
LINE
  8
0
 10
-163.784
 20
-114.146
 11
-164.154
 21
-114.516
  0
LINE
  8
0
 10
-164.154
 20
-114.516
 11
-164.561
 21
-114.845
  0
LINE
  8
0
 10
-164.561
 20
-114.845
 11
-165
 21
-115.13
  0
LINE
  8
0
 10
-165
 20
-115.13
 11
-165.466
 21
-115.368
  0
LINE
  8
0
 10
-165.466
 20
-115.368
 11
-165.955
 21
-115.555
  0
LINE
  8
0
 10
-165.955
 20
-115.555
 11
-166.46
 21
-115.691
  0
LINE
  8
0
 10
-166.46
 20
-115.691
 11
-166.977
 21
-115.773
  0
LINE
  8
0
 10
-166.977
 20
-115.773
 11
-168.284
 21
-115.841
  0
LINE
  8
0
 10
-168.284
 20
-115.841
 11
-169.059
 21
-115.964
  0
LINE
  8
0
 10
-169.059
 20
-115.964
 11
-169.818
 21
-116.167
  0
LINE
  8
0
 10
-169.818
 20
-116.167
 11
-170.551
 21
-116.448
  0
LINE
  8
0
 10
-170.551
 20
-116.448
 11
-171.25
 21
-116.805
  0
LINE
  8
0
 10
-171.25
 20
-116.805
 11
-171.908
 21
-117.232
  0
LINE
  8
0
 10
-171.908
 20
-117.232
 11
-172.518
 21
-117.726
  0
LINE
  8
0
 10
-172.518
 20
-117.726
 11
-173.074
 21
-118.282
  0
LINE
  8
0
 10
-173.074
 20
-118.282
 11
-173.568
 21
-118.892
  0
LINE
  8
0
 10
-173.568
 20
-118.892
 11
-173.995
 21
-119.55
  0
LINE
  8
0
 10
-173.995
 20
-119.55
 11
-174.352
 21
-120.249
  0
LINE
  8
0
 10
-174.352
 20
-120.249
 11
-174.633
 21
-120.982
  0
LINE
  8
0
 10
-174.633
 20
-120.982
 11
-174.836
 21
-121.741
  0
LINE
  8
0
 10
-174.836
 20
-121.741
 11
-174.959
 21
-122.516
  0
LINE
  8
0
 10
-174.959
 20
-122.516
 11
-175
 21
-123.3
  0
LINE
  8
0
 10
-175
 20
-123.3
 11
-175
 21
-125.801
  0
LINE
  8
0
 10
-175
 20
-125.801
 11
-167.438
 21
-125.801
  0
LINE
  8
0
 10
-167.438
 20
-125.801
 11
-167.191
 21
-125.828
  0
LINE
  8
0
 10
-167.191
 20
-125.828
 11
-166.951
 21
-125.891
  0
LINE
  8
0
 10
-166.951
 20
-125.891
 11
-166.723
 21
-125.988
  0
LINE
  8
0
 10
-166.723
 20
-125.988
 11
-166.511
 21
-126.117
  0
LINE
  8
0
 10
-166.511
 20
-126.117
 11
-166.32
 21
-126.276
  0
LINE
  8
0
 10
-166.32
 20
-126.276
 11
-166.154
 21
-126.461
  0
LINE
  8
0
 10
-166.154
 20
-126.461
 11
-166.018
 21
-126.668
  0
LINE
  8
0
 10
-166.018
 20
-126.668
 11
-165.912
 21
-126.893
  0
LINE
  8
0
 10
-165.912
 20
-126.893
 11
-165.841
 21
-127.13
  0
LINE
  8
0
 10
-165.841
 20
-127.13
 11
-165.805
 21
-127.376
  0
LINE
  8
0
 10
-165.805
 20
-127.376
 11
-165.805
 21
-127.624
  0
LINE
  8
0
 10
-165.805
 20
-127.624
 11
-165.841
 21
-127.87
  0
LINE
  8
0
 10
-165.841
 20
-127.87
 11
-165.912
 21
-128.107
  0
LINE
  8
0
 10
-165.912
 20
-128.107
 11
-166.018
 21
-128.332
  0
LINE
  8
0
 10
-166.018
 20
-128.332
 11
-166.154
 21
-128.539
  0
LINE
  8
0
 10
-166.154
 20
-128.539
 11
-166.32
 21
-128.724
  0
LINE
  8
0
 10
-166.32
 20
-128.724
 11
-166.511
 21
-128.883
  0
LINE
  8
0
 10
-166.511
 20
-128.883
 11
-166.723
 21
-129.012
  0
LINE
  8
0
 10
-166.723
 20
-129.012
 11
-166.951
 21
-129.109
  0
LINE
  8
0
 10
-166.951
 20
-129.109
 11
-167.191
 21
-129.172
  0
LINE
  8
0
 10
-167.191
 20
-129.172
 11
-167.438
 21
-129.199
  0
LINE
  8
0
 10
-167.438
 20
-129.199
 11
-175
 21
-129.199
  0
LINE
  8
0
 10
-175
 20
-129.199
 11
-175
 21
-131.7
  0
LINE
  8
0
 10
-175
 20
-131.7
 11
-174.959
 21
-132.484
  0
LINE
  8
0
 10
-174.959
 20
-132.484
 11
-174.836
 21
-133.259
  0
LINE
  8
0
 10
-174.836
 20
-133.259
 11
-174.633
 21
-134.018
  0
LINE
  8
0
 10
-174.633
 20
-134.018
 11
-174.352
 21
-134.751
  0
LINE
  8
0
 10
-174.352
 20
-134.751
 11
-173.995
 21
-135.45
  0
LINE
  8
0
 10
-173.995
 20
-135.45
 11
-173.568
 21
-136.108
  0
LINE
  8
0
 10
-173.568
 20
-136.108
 11
-173.074
 21
-136.718
  0
LINE
  8
0
 10
-173.074
 20
-136.718
 11
-172.518
 21
-137.274
  0
LINE
  8
0
 10
-172.518
 20
-137.274
 11
-171.908
 21
-137.768
  0
LINE
  8
0
 10
-171.908
 20
-137.768
 11
-171.25
 21
-138.195
  0
LINE
  8
0
 10
-171.25
 20
-138.195
 11
-170.551
 21
-138.552
  0
LINE
  8
0
 10
-170.551
 20
-138.552
 11
-169.818
 21
-138.833
  0
LINE
  8
0
 10
-169.818
 20
-138.833
 11
-169.059
 21
-139.036
  0
LINE
  8
0
 10
-169.059
 20
-139.036
 11
-168.284
 21
-139.159
  0
LINE
  8
0
 10
-168.284
 20
-139.159
 11
-166.977
 21
-139.227
  0
LINE
  8
0
 10
-166.977
 20
-139.227
 11
-166.46
 21
-139.309
  0
LINE
  8
0
 10
-166.46
 20
-139.309
 11
-165.955
 21
-139.445
  0
LINE
  8
0
 10
-165.955
 20
-139.445
 11
-165.466
 21
-139.632
  0
LINE
  8
0
 10
-165.466
 20
-139.632
 11
-165
 21
-139.87
  0
LINE
  8
0
 10
-165
 20
-139.87
 11
-164.561
 21
-140.155
  0
LINE
  8
0
 10
-164.561
 20
-140.155
 11
-164.154
 21
-140.484
  0
LINE
  8
0
 10
-164.154
 20
-140.484
 11
-163.784
 21
-140.854
  0
LINE
  8
0
 10
-163.784
 20
-140.854
 11
-163.455
 21
-141.261
  0
LINE
  8
0
 10
-163.455
 20
-141.261
 11
-163.17
 21
-141.7
  0
LINE
  8
0
 10
-163.17
 20
-141.7
 11
-162.932
 21
-142.166
  0
LINE
  8
0
 10
-162.932
 20
-142.166
 11
-162.745
 21
-142.655
  0
LINE
  8
0
 10
-162.745
 20
-142.655
 11
-162.609
 21
-143.16
  0
LINE
  8
0
 10
-162.609
 20
-143.16
 11
-162.527
 21
-143.677
  0
LINE
  8
0
 10
-162.527
 20
-143.677
 11
-162.5
 21
-144.2
  0
LINE
  8
0
 10
-162.5
 20
-144.2
 11
-162.5
 21
-163.5
  0
LINE
  8
0
 10
-162.5
 20
-163.5
 11
-162.459
 21
-164.284
  0
LINE
  8
0
 10
-162.459
 20
-164.284
 11
-162.336
 21
-165.059
  0
LINE
  8
0
 10
-162.336
 20
-165.059
 11
-162.133
 21
-165.818
  0
LINE
  8
0
 10
-162.133
 20
-165.818
 11
-161.852
 21
-166.551
  0
LINE
  8
0
 10
-161.852
 20
-166.551
 11
-161.495
 21
-167.25
  0
LINE
  8
0
 10
-161.495
 20
-167.25
 11
-161.068
 21
-167.908
  0
LINE
  8
0
 10
-161.068
 20
-167.908
 11
-160.574
 21
-168.518
  0
LINE
  8
0
 10
-160.574
 20
-168.518
 11
-160.018
 21
-169.074
  0
LINE
  8
0
 10
-160.018
 20
-169.074
 11
-159.408
 21
-169.568
  0
LINE
  8
0
 10
-159.408
 20
-169.568
 11
-158.75
 21
-169.995
  0
LINE
  8
0
 10
-158.75
 20
-169.995
 11
-158.051
 21
-170.352
  0
LINE
  8
0
 10
-158.051
 20
-170.352
 11
-157.318
 21
-170.633
  0
LINE
  8
0
 10
-157.318
 20
-170.633
 11
-156.559
 21
-170.836
  0
LINE
  8
0
 10
-156.559
 20
-170.836
 11
-155.784
 21
-170.959
  0
LINE
  8
0
 10
-155.784
 20
-170.959
 11
-155
 21
-171
  0
LINE
  8
0
 10
-155
 20
-171
 11
155
 21
-171
  0
LINE
  8
0
 10
155
 20
-171
 11
155.784
 21
-170.959
  0
LINE
  8
0
 10
157.379
 20
14.0073
 11
157.145
 21
14.065
  0
LINE
  8
0
 10
157.145
 20
14.065
 11
156.932
 21
14.177
  0
LINE
  8
0
 10
156.932
 20
14.177
 11
156.751
 21
14.3369
  0
LINE
  8
0
 10
156.751
 20
14.3369
 11
156.615
 21
14.5353
  0
LINE
  8
0
 10
156.615
 20
14.5353
 11
156.529
 21
14.7607
  0
LINE
  8
0
 10
156.529
 20
14.7607
 11
156.5
 21
15
  0
LINE
  8
0
 10
156.5
 20
15
 11
156.529
 21
15.2393
  0
LINE
  8
0
 10
156.529
 20
15.2393
 11
156.615
 21
15.4647
  0
LINE
  8
0
 10
156.615
 20
15.4647
 11
156.751
 21
15.6631
  0
LINE
  8
0
 10
156.751
 20
15.6631
 11
156.932
 21
15.823
  0
LINE
  8
0
 10
156.932
 20
15.823
 11
157.145
 21
15.935
  0
LINE
  8
0
 10
157.145
 20
15.935
 11
157.379
 21
15.9927
  0
LINE
  8
0
 10
157.379
 20
15.9927
 11
157.621
 21
15.9927
  0
LINE
  8
0
 10
157.621
 20
15.9927
 11
157.855
 21
15.935
  0
LINE
  8
0
 10
157.855
 20
15.935
 11
158.068
 21
15.823
  0
LINE
  8
0
 10
158.068
 20
15.823
 11
158.249
 21
15.6631
  0
LINE
  8
0
 10
158.249
 20
15.6631
 11
158.385
 21
15.4647
  0
LINE
  8
0
 10
158.385
 20
15.4647
 11
158.471
 21
15.2393
  0
LINE
  8
0
 10
158.471
 20
15.2393
 11
158.5
 21
15
  0
LINE
  8
0
 10
158.5
 20
15
 11
158.471
 21
14.7607
  0
LINE
  8
0
 10
158.471
 20
14.7607
 11
158.385
 21
14.5353
  0
LINE
  8
0
 10
158.385
 20
14.5353
 11
158.249
 21
14.3369
  0
LINE
  8
0
 10
158.249
 20
14.3369
 11
158.068
 21
14.177
  0
LINE
  8
0
 10
158.068
 20
14.177
 11
157.855
 21
14.065
  0
LINE
  8
0
 10
157.855
 20
14.065
 11
157.621
 21
14.0073
  0
LINE
  8
0
 10
157.621
 20
14.0073
 11
157.379
 21
14.0073
  0
LINE
  8
0
 10
157.379
 20
-35.9927
 11
157.145
 21
-35.935
  0
LINE
  8
0
 10
157.145
 20
-35.935
 11
156.932
 21
-35.823
  0
LINE
  8
0
 10
156.932
 20
-35.823
 11
156.751
 21
-35.6631
  0
LINE
  8
0
 10
156.751
 20
-35.6631
 11
156.615
 21
-35.4647
  0
LINE
  8
0
 10
156.615
 20
-35.4647
 11
156.529
 21
-35.2393
  0
LINE
  8
0
 10
156.529
 20
-35.2393
 11
156.5
 21
-35
  0
LINE
  8
0
 10
156.5
 20
-35
 11
156.529
 21
-34.7607
  0
LINE
  8
0
 10
156.529
 20
-34.7607
 11
156.615
 21
-34.5353
  0
LINE
  8
0
 10
156.615
 20
-34.5353
 11
156.751
 21
-34.3369
  0
LINE
  8
0
 10
156.751
 20
-34.3369
 11
156.932
 21
-34.177
  0
LINE
  8
0
 10
156.932
 20
-34.177
 11
157.145
 21
-34.065
  0
LINE
  8
0
 10
157.145
 20
-34.065
 11
157.379
 21
-34.0073
  0
LINE
  8
0
 10
157.379
 20
-34.0073
 11
157.621
 21
-34.0073
  0
LINE
  8
0
 10
157.621
 20
-34.0073
 11
157.855
 21
-34.065
  0
LINE
  8
0
 10
157.855
 20
-34.065
 11
158.068
 21
-34.177
  0
LINE
  8
0
 10
158.068
 20
-34.177
 11
158.249
 21
-34.3369
  0
LINE
  8
0
 10
158.249
 20
-34.3369
 11
158.385
 21
-34.5353
  0
LINE
  8
0
 10
158.385
 20
-34.5353
 11
158.471
 21
-34.7607
  0
LINE
  8
0
 10
158.471
 20
-34.7607
 11
158.5
 21
-35
  0
LINE
  8
0
 10
158.5
 20
-35
 11
158.471
 21
-35.2393
  0
LINE
  8
0
 10
158.471
 20
-35.2393
 11
158.385
 21
-35.4647
  0
LINE
  8
0
 10
158.385
 20
-35.4647
 11
158.249
 21
-35.6631
  0
LINE
  8
0
 10
158.249
 20
-35.6631
 11
158.068
 21
-35.823
  0
LINE
  8
0
 10
158.068
 20
-35.823
 11
157.855
 21
-35.935
  0
LINE
  8
0
 10
157.855
 20
-35.935
 11
157.621
 21
-35.9927
  0
LINE
  8
0
 10
157.621
 20
-35.9927
 11
157.379
 21
-35.9927
  0
LINE
  8
0
 10
157.379
 20
-55.9927
 11
157.145
 21
-55.935
  0
LINE
  8
0
 10
157.145
 20
-55.935
 11
156.932
 21
-55.823
  0
LINE
  8
0
 10
156.932
 20
-55.823
 11
156.751
 21
-55.6631
  0
LINE
  8
0
 10
156.751
 20
-55.6631
 11
156.615
 21
-55.4647
  0
LINE
  8
0
 10
156.615
 20
-55.4647
 11
156.529
 21
-55.2393
  0
LINE
  8
0
 10
156.529
 20
-55.2393
 11
156.5
 21
-55
  0
LINE
  8
0
 10
156.5
 20
-55
 11
156.529
 21
-54.7607
  0
LINE
  8
0
 10
156.529
 20
-54.7607
 11
156.615
 21
-54.5353
  0
LINE
  8
0
 10
156.615
 20
-54.5353
 11
156.751
 21
-54.3369
  0
LINE
  8
0
 10
156.751
 20
-54.3369
 11
156.932
 21
-54.177
  0
LINE
  8
0
 10
156.932
 20
-54.177
 11
157.145
 21
-54.065
  0
LINE
  8
0
 10
157.145
 20
-54.065
 11
157.379
 21
-54.0073
  0
LINE
  8
0
 10
157.379
 20
-54.0073
 11
157.621
 21
-54.0073
  0
LINE
  8
0
 10
157.621
 20
-54.0073
 11
157.855
 21
-54.065
  0
LINE
  8
0
 10
157.855
 20
-54.065
 11
158.068
 21
-54.177
  0
LINE
  8
0
 10
158.068
 20
-54.177
 11
158.249
 21
-54.3369
  0
LINE
  8
0
 10
158.249
 20
-54.3369
 11
158.385
 21
-54.5353
  0
LINE
  8
0
 10
158.385
 20
-54.5353
 11
158.471
 21
-54.7607
  0
LINE
  8
0
 10
158.471
 20
-54.7607
 11
158.5
 21
-55
  0
LINE
  8
0
 10
158.5
 20
-55
 11
158.471
 21
-55.2393
  0
LINE
  8
0
 10
158.471
 20
-55.2393
 11
158.385
 21
-55.4647
  0
LINE
  8
0
 10
158.385
 20
-55.4647
 11
158.249
 21
-55.6631
  0
LINE
  8
0
 10
158.249
 20
-55.6631
 11
158.068
 21
-55.823
  0
LINE
  8
0
 10
158.068
 20
-55.823
 11
157.855
 21
-55.935
  0
LINE
  8
0
 10
157.855
 20
-55.935
 11
157.621
 21
-55.9927
  0
LINE
  8
0
 10
157.621
 20
-55.9927
 11
157.379
 21
-55.9927
  0
ENDSEC
  0
SECTION
  2
OBJECTS
  0
DICTIONARY
  0
ENDSEC
  0
EOF
