  0
SECTION
  2
BLOCKS
  0
ENDSEC
  0
SECTION
  2
ENTITIES
  0
LINE
  8
0
 10
222.923
 20
-222.473
 11
223.44
 21
-222.391
  0
LINE
  8
0
 10
223.44
 20
-222.391
 11
223.945
 21
-222.255
  0
LINE
  8
0
 10
223.945
 20
-222.255
 11
224.434
 21
-222.068
  0
LINE
  8
0
 10
224.434
 20
-222.068
 11
224.9
 21
-221.83
  0
LINE
  8
0
 10
224.9
 20
-221.83
 11
225.339
 21
-221.545
  0
LINE
  8
0
 10
225.339
 20
-221.545
 11
225.746
 21
-221.216
  0
LINE
  8
0
 10
225.746
 20
-221.216
 11
226.116
 21
-220.846
  0
LINE
  8
0
 10
226.116
 20
-220.846
 11
226.445
 21
-220.439
  0
LINE
  8
0
 10
226.445
 20
-220.439
 11
226.73
 21
-220
  0
LINE
  8
0
 10
226.73
 20
-220
 11
226.968
 21
-219.534
  0
LINE
  8
0
 10
226.968
 20
-219.534
 11
227.155
 21
-219.045
  0
LINE
  8
0
 10
227.155
 20
-219.045
 11
227.291
 21
-218.54
  0
LINE
  8
0
 10
227.291
 20
-218.54
 11
227.373
 21
-218.023
  0
LINE
  8
0
 10
227.373
 20
-218.023
 11
227.4
 21
-217.5
  0
LINE
  8
0
 10
227.4
 20
-217.5
 11
227.4
 21
217.5
  0
LINE
  8
0
 10
227.4
 20
217.5
 11
227.373
 21
218.023
  0
LINE
  8
0
 10
227.373
 20
218.023
 11
227.291
 21
218.54
  0
LINE
  8
0
 10
227.291
 20
218.54
 11
227.155
 21
219.045
  0
LINE
  8
0
 10
227.155
 20
219.045
 11
226.968
 21
219.534
  0
LINE
  8
0
 10
226.968
 20
219.534
 11
226.73
 21
220
  0
LINE
  8
0
 10
226.73
 20
220
 11
226.445
 21
220.439
  0
LINE
  8
0
 10
226.445
 20
220.439
 11
226.116
 21
220.846
  0
LINE
  8
0
 10
226.116
 20
220.846
 11
225.746
 21
221.216
  0
LINE
  8
0
 10
225.746
 20
221.216
 11
225.339
 21
221.545
  0
LINE
  8
0
 10
225.339
 20
221.545
 11
224.9
 21
221.83
  0
LINE
  8
0
 10
224.9
 20
221.83
 11
224.434
 21
222.068
  0
LINE
  8
0
 10
224.434
 20
222.068
 11
223.945
 21
222.255
  0
LINE
  8
0
 10
223.945
 20
222.255
 11
223.44
 21
222.391
  0
LINE
  8
0
 10
223.44
 20
222.391
 11
222.923
 21
222.473
  0
LINE
  8
0
 10
222.923
 20
222.473
 11
222.4
 21
222.5
  0
LINE
  8
0
 10
222.4
 20
222.5
 11
-222.4
 21
222.5
  0
LINE
  8
0
 10
-222.4
 20
222.5
 11
-222.923
 21
222.473
  0
LINE
  8
0
 10
-222.923
 20
222.473
 11
-223.44
 21
222.391
  0
LINE
  8
0
 10
-223.44
 20
222.391
 11
-223.945
 21
222.255
  0
LINE
  8
0
 10
-223.945
 20
222.255
 11
-224.434
 21
222.068
  0
LINE
  8
0
 10
-224.434
 20
222.068
 11
-224.9
 21
221.83
  0
LINE
  8
0
 10
-224.9
 20
221.83
 11
-225.339
 21
221.545
  0
LINE
  8
0
 10
-225.339
 20
221.545
 11
-225.746
 21
221.216
  0
LINE
  8
0
 10
-225.746
 20
221.216
 11
-226.116
 21
220.846
  0
LINE
  8
0
 10
-226.116
 20
220.846
 11
-226.445
 21
220.439
  0
LINE
  8
0
 10
-226.445
 20
220.439
 11
-226.73
 21
220
  0
LINE
  8
0
 10
-226.73
 20
220
 11
-226.968
 21
219.534
  0
LINE
  8
0
 10
-226.968
 20
219.534
 11
-227.155
 21
219.045
  0
LINE
  8
0
 10
-227.155
 20
219.045
 11
-227.291
 21
218.54
  0
LINE
  8
0
 10
-227.291
 20
218.54
 11
-227.373
 21
218.023
  0
LINE
  8
0
 10
-227.373
 20
218.023
 11
-227.4
 21
217.5
  0
LINE
  8
0
 10
-227.4
 20
217.5
 11
-227.4
 21
-217.5
  0
LINE
  8
0
 10
-227.4
 20
-217.5
 11
-227.373
 21
-218.023
  0
LINE
  8
0
 10
-227.373
 20
-218.023
 11
-227.291
 21
-218.54
  0
LINE
  8
0
 10
-227.291
 20
-218.54
 11
-227.155
 21
-219.045
  0
LINE
  8
0
 10
-227.155
 20
-219.045
 11
-226.968
 21
-219.534
  0
LINE
  8
0
 10
-226.968
 20
-219.534
 11
-226.73
 21
-220
  0
LINE
  8
0
 10
-226.73
 20
-220
 11
-226.445
 21
-220.439
  0
LINE
  8
0
 10
-226.445
 20
-220.439
 11
-226.116
 21
-220.846
  0
LINE
  8
0
 10
-226.116
 20
-220.846
 11
-225.746
 21
-221.216
  0
LINE
  8
0
 10
-225.746
 20
-221.216
 11
-225.339
 21
-221.545
  0
LINE
  8
0
 10
-225.339
 20
-221.545
 11
-224.9
 21
-221.83
  0
LINE
  8
0
 10
-224.9
 20
-221.83
 11
-224.434
 21
-222.068
  0
LINE
  8
0
 10
-224.434
 20
-222.068
 11
-223.945
 21
-222.255
  0
LINE
  8
0
 10
-223.945
 20
-222.255
 11
-223.44
 21
-222.391
  0
LINE
  8
0
 10
-223.44
 20
-222.391
 11
-222.923
 21
-222.473
  0
LINE
  8
0
 10
-222.923
 20
-222.473
 11
-222.4
 21
-222.5
  0
LINE
  8
0
 10
-222.4
 20
-222.5
 11
222.4
 21
-222.5
  0
LINE
  8
0
 10
222.4
 20
-222.5
 11
222.923
 21
-222.473
  0
LINE
  8
0
 10
-220.392
 20
211.271
 11
-220.78
 21
211.332
  0
LINE
  8
0
 10
-220.78
 20
211.332
 11
-221.159
 21
211.434
  0
LINE
  8
0
 10
-221.159
 20
211.434
 11
-221.525
 21
211.574
  0
LINE
  8
0
 10
-221.525
 20
211.574
 11
-221.875
 21
211.752
  0
LINE
  8
0
 10
-221.875
 20
211.752
 11
-222.204
 21
211.966
  0
LINE
  8
0
 10
-222.204
 20
211.966
 11
-222.509
 21
212.213
  0
LINE
  8
0
 10
-222.509
 20
212.213
 11
-222.787
 21
212.491
  0
LINE
  8
0
 10
-222.787
 20
212.491
 11
-223.034
 21
212.796
  0
LINE
  8
0
 10
-223.034
 20
212.796
 11
-223.248
 21
213.125
  0
LINE
  8
0
 10
-223.248
 20
213.125
 11
-223.426
 21
213.475
  0
LINE
  8
0
 10
-223.426
 20
213.475
 11
-223.566
 21
213.841
  0
LINE
  8
0
 10
-223.566
 20
213.841
 11
-223.668
 21
214.22
  0
LINE
  8
0
 10
-223.668
 20
214.22
 11
-223.729
 21
214.608
  0
LINE
  8
0
 10
-223.729
 20
214.608
 11
-223.75
 21
215
  0
LINE
  8
0
 10
-223.75
 20
215
 11
-223.729
 21
215.392
  0
LINE
  8
0
 10
-223.729
 20
215.392
 11
-223.668
 21
215.78
  0
LINE
  8
0
 10
-223.668
 20
215.78
 11
-223.566
 21
216.159
  0
LINE
  8
0
 10
-223.566
 20
216.159
 11
-223.426
 21
216.525
  0
LINE
  8
0
 10
-223.426
 20
216.525
 11
-223.248
 21
216.875
  0
LINE
  8
0
 10
-223.248
 20
216.875
 11
-223.034
 21
217.204
  0
LINE
  8
0
 10
-223.034
 20
217.204
 11
-222.787
 21
217.509
  0
LINE
  8
0
 10
-222.787
 20
217.509
 11
-222.509
 21
217.787
  0
LINE
  8
0
 10
-222.509
 20
217.787
 11
-222.204
 21
218.034
  0
LINE
  8
0
 10
-222.204
 20
218.034
 11
-221.875
 21
218.248
  0
LINE
  8
0
 10
-221.875
 20
218.248
 11
-221.525
 21
218.426
  0
LINE
  8
0
 10
-221.525
 20
218.426
 11
-221.159
 21
218.566
  0
LINE
  8
0
 10
-221.159
 20
218.566
 11
-220.78
 21
218.668
  0
LINE
  8
0
 10
-220.78
 20
218.668
 11
-220.392
 21
218.729
  0
LINE
  8
0
 10
-220.392
 20
218.729
 11
-220
 21
218.75
  0
LINE
  8
0
 10
-220
 20
218.75
 11
-219.608
 21
218.729
  0
LINE
  8
0
 10
-219.608
 20
218.729
 11
-219.22
 21
218.668
  0
LINE
  8
0
 10
-219.22
 20
218.668
 11
-218.841
 21
218.566
  0
LINE
  8
0
 10
-218.841
 20
218.566
 11
-218.475
 21
218.426
  0
LINE
  8
0
 10
-218.475
 20
218.426
 11
-218.125
 21
218.248
  0
LINE
  8
0
 10
-218.125
 20
218.248
 11
-217.796
 21
218.034
  0
LINE
  8
0
 10
-217.796
 20
218.034
 11
-217.491
 21
217.787
  0
LINE
  8
0
 10
-217.491
 20
217.787
 11
-217.213
 21
217.509
  0
LINE
  8
0
 10
-217.213
 20
217.509
 11
-216.966
 21
217.204
  0
LINE
  8
0
 10
-216.966
 20
217.204
 11
-216.752
 21
216.875
  0
LINE
  8
0
 10
-216.752
 20
216.875
 11
-216.574
 21
216.525
  0
LINE
  8
0
 10
-216.574
 20
216.525
 11
-216.434
 21
216.159
  0
LINE
  8
0
 10
-216.434
 20
216.159
 11
-216.332
 21
215.78
  0
LINE
  8
0
 10
-216.332
 20
215.78
 11
-216.271
 21
215.392
  0
LINE
  8
0
 10
-216.271
 20
215.392
 11
-216.25
 21
215
  0
LINE
  8
0
 10
-216.25
 20
215
 11
-216.271
 21
214.608
  0
LINE
  8
0
 10
-216.271
 20
214.608
 11
-216.332
 21
214.22
  0
LINE
  8
0
 10
-216.332
 20
214.22
 11
-216.434
 21
213.841
  0
LINE
  8
0
 10
-216.434
 20
213.841
 11
-216.574
 21
213.475
  0
LINE
  8
0
 10
-216.574
 20
213.475
 11
-216.752
 21
213.125
  0
LINE
  8
0
 10
-216.752
 20
213.125
 11
-216.966
 21
212.796
  0
LINE
  8
0
 10
-216.966
 20
212.796
 11
-217.213
 21
212.491
  0
LINE
  8
0
 10
-217.213
 20
212.491
 11
-217.491
 21
212.213
  0
LINE
  8
0
 10
-217.491
 20
212.213
 11
-217.796
 21
211.966
  0
LINE
  8
0
 10
-217.796
 20
211.966
 11
-218.125
 21
211.752
  0
LINE
  8
0
 10
-218.125
 20
211.752
 11
-218.475
 21
211.574
  0
LINE
  8
0
 10
-218.475
 20
211.574
 11
-218.841
 21
211.434
  0
LINE
  8
0
 10
-218.841
 20
211.434
 11
-219.22
 21
211.332
  0
LINE
  8
0
 10
-219.22
 20
211.332
 11
-219.608
 21
211.271
  0
LINE
  8
0
 10
-219.608
 20
211.271
 11
-220
 21
211.25
  0
LINE
  8
0
 10
-220
 20
211.25
 11
-220.392
 21
211.271
  0
LINE
  8
0
 10
219.608
 20
211.271
 11
219.22
 21
211.332
  0
LINE
  8
0
 10
219.22
 20
211.332
 11
218.841
 21
211.434
  0
LINE
  8
0
 10
218.841
 20
211.434
 11
218.475
 21
211.574
  0
LINE
  8
0
 10
218.475
 20
211.574
 11
218.125
 21
211.752
  0
LINE
  8
0
 10
218.125
 20
211.752
 11
217.796
 21
211.966
  0
LINE
  8
0
 10
217.796
 20
211.966
 11
217.491
 21
212.213
  0
LINE
  8
0
 10
217.491
 20
212.213
 11
217.213
 21
212.491
  0
LINE
  8
0
 10
217.213
 20
212.491
 11
216.966
 21
212.796
  0
LINE
  8
0
 10
216.966
 20
212.796
 11
216.752
 21
213.125
  0
LINE
  8
0
 10
216.752
 20
213.125
 11
216.574
 21
213.475
  0
LINE
  8
0
 10
216.574
 20
213.475
 11
216.434
 21
213.841
  0
LINE
  8
0
 10
216.434
 20
213.841
 11
216.332
 21
214.22
  0
LINE
  8
0
 10
216.332
 20
214.22
 11
216.271
 21
214.608
  0
LINE
  8
0
 10
216.271
 20
214.608
 11
216.25
 21
215
  0
LINE
  8
0
 10
216.25
 20
215
 11
216.271
 21
215.392
  0
LINE
  8
0
 10
216.271
 20
215.392
 11
216.332
 21
215.78
  0
LINE
  8
0
 10
216.332
 20
215.78
 11
216.434
 21
216.159
  0
LINE
  8
0
 10
216.434
 20
216.159
 11
216.574
 21
216.525
  0
LINE
  8
0
 10
216.574
 20
216.525
 11
216.752
 21
216.875
  0
LINE
  8
0
 10
216.752
 20
216.875
 11
216.966
 21
217.204
  0
LINE
  8
0
 10
216.966
 20
217.204
 11
217.213
 21
217.509
  0
LINE
  8
0
 10
217.213
 20
217.509
 11
217.491
 21
217.787
  0
LINE
  8
0
 10
217.491
 20
217.787
 11
217.796
 21
218.034
  0
LINE
  8
0
 10
217.796
 20
218.034
 11
218.125
 21
218.248
  0
LINE
  8
0
 10
218.125
 20
218.248
 11
218.475
 21
218.426
  0
LINE
  8
0
 10
218.475
 20
218.426
 11
218.841
 21
218.566
  0
LINE
  8
0
 10
218.841
 20
218.566
 11
219.22
 21
218.668
  0
LINE
  8
0
 10
219.22
 20
218.668
 11
219.608
 21
218.729
  0
LINE
  8
0
 10
219.608
 20
218.729
 11
220
 21
218.75
  0
LINE
  8
0
 10
220
 20
218.75
 11
220.392
 21
218.729
  0
LINE
  8
0
 10
220.392
 20
218.729
 11
220.78
 21
218.668
  0
LINE
  8
0
 10
220.78
 20
218.668
 11
221.159
 21
218.566
  0
LINE
  8
0
 10
221.159
 20
218.566
 11
221.525
 21
218.426
  0
LINE
  8
0
 10
221.525
 20
218.426
 11
221.875
 21
218.248
  0
LINE
  8
0
 10
221.875
 20
218.248
 11
222.204
 21
218.034
  0
LINE
  8
0
 10
222.204
 20
218.034
 11
222.509
 21
217.787
  0
LINE
  8
0
 10
222.509
 20
217.787
 11
222.787
 21
217.509
  0
LINE
  8
0
 10
222.787
 20
217.509
 11
223.034
 21
217.204
  0
LINE
  8
0
 10
223.034
 20
217.204
 11
223.248
 21
216.875
  0
LINE
  8
0
 10
223.248
 20
216.875
 11
223.426
 21
216.525
  0
LINE
  8
0
 10
223.426
 20
216.525
 11
223.566
 21
216.159
  0
LINE
  8
0
 10
223.566
 20
216.159
 11
223.668
 21
215.78
  0
LINE
  8
0
 10
223.668
 20
215.78
 11
223.729
 21
215.392
  0
LINE
  8
0
 10
223.729
 20
215.392
 11
223.75
 21
215
  0
LINE
  8
0
 10
223.75
 20
215
 11
223.729
 21
214.608
  0
LINE
  8
0
 10
223.729
 20
214.608
 11
223.668
 21
214.22
  0
LINE
  8
0
 10
223.668
 20
214.22
 11
223.566
 21
213.841
  0
LINE
  8
0
 10
223.566
 20
213.841
 11
223.426
 21
213.475
  0
LINE
  8
0
 10
223.426
 20
213.475
 11
223.248
 21
213.125
  0
LINE
  8
0
 10
223.248
 20
213.125
 11
223.034
 21
212.796
  0
LINE
  8
0
 10
223.034
 20
212.796
 11
222.787
 21
212.491
  0
LINE
  8
0
 10
222.787
 20
212.491
 11
222.509
 21
212.213
  0
LINE
  8
0
 10
222.509
 20
212.213
 11
222.204
 21
211.966
  0
LINE
  8
0
 10
222.204
 20
211.966
 11
221.875
 21
211.752
  0
LINE
  8
0
 10
221.875
 20
211.752
 11
221.525
 21
211.574
  0
LINE
  8
0
 10
221.525
 20
211.574
 11
221.159
 21
211.434
  0
LINE
  8
0
 10
221.159
 20
211.434
 11
220.78
 21
211.332
  0
LINE
  8
0
 10
220.78
 20
211.332
 11
220.392
 21
211.271
  0
LINE
  8
0
 10
220.392
 20
211.271
 11
220
 21
211.25
  0
LINE
  8
0
 10
220
 20
211.25
 11
219.608
 21
211.271
  0
LINE
  8
0
 10
88.4412
 20
213.328
 11
88.2011
 21
213.391
  0
LINE
  8
0
 10
88.2011
 20
213.391
 11
87.9727
 21
213.488
  0
LINE
  8
0
 10
87.9727
 20
213.488
 11
87.7608
 21
213.617
  0
LINE
  8
0
 10
87.7608
 20
213.617
 11
87.5701
 21
213.776
  0
LINE
  8
0
 10
87.5701
 20
213.776
 11
87.4044
 21
213.961
  0
LINE
  8
0
 10
87.4044
 20
213.961
 11
87.2675
 21
214.168
  0
LINE
  8
0
 10
87.2675
 20
214.168
 11
87.1622
 21
214.393
  0
LINE
  8
0
 10
87.1622
 20
214.393
 11
87.0907
 21
214.63
  0
LINE
  8
0
 10
87.0907
 20
214.63
 11
87.0545
 21
214.876
  0
LINE
  8
0
 10
87.0545
 20
214.876
 11
87.0545
 21
215.124
  0
LINE
  8
0
 10
87.0545
 20
215.124
 11
87.0907
 21
215.37
  0
LINE
  8
0
 10
87.0907
 20
215.37
 11
87.1622
 21
215.607
  0
LINE
  8
0
 10
87.1622
 20
215.607
 11
87.2675
 21
215.832
  0
LINE
  8
0
 10
87.2675
 20
215.832
 11
87.4044
 21
216.039
  0
LINE
  8
0
 10
87.4044
 20
216.039
 11
87.5701
 21
216.224
  0
LINE
  8
0
 10
87.5701
 20
216.224
 11
87.7608
 21
216.383
  0
LINE
  8
0
 10
87.7608
 20
216.383
 11
87.9727
 21
216.512
  0
LINE
  8
0
 10
87.9727
 20
216.512
 11
88.2011
 21
216.609
  0
LINE
  8
0
 10
88.2011
 20
216.609
 11
88.4412
 21
216.672
  0
LINE
  8
0
 10
88.4412
 20
216.672
 11
88.6879
 21
216.699
  0
LINE
  8
0
 10
88.6879
 20
216.699
 11
88.9359
 21
216.69
  0
LINE
  8
0
 10
88.9359
 20
216.69
 11
89.18
 21
216.645
  0
LINE
  8
0
 10
89.18
 20
216.645
 11
89.4149
 21
216.565
  0
LINE
  8
0
 10
89.4149
 20
216.565
 11
89.6356
 21
216.451
  0
LINE
  8
0
 10
89.6356
 20
216.451
 11
89.8374
 21
216.307
  0
LINE
  8
0
 10
89.8374
 20
216.307
 11
90.0161
 21
216.134
  0
LINE
  8
0
 10
90.0161
 20
216.134
 11
90.1678
 21
215.938
  0
LINE
  8
0
 10
90.1678
 20
215.938
 11
90.2893
 21
215.722
  0
LINE
  8
0
 10
90.2893
 20
215.722
 11
90.3779
 21
215.49
  0
LINE
  8
0
 10
90.3779
 20
215.49
 11
90.4319
 21
215.248
  0
LINE
  8
0
 10
90.4319
 20
215.248
 11
90.45
 21
215
  0
LINE
  8
0
 10
90.45
 20
215
 11
90.4319
 21
214.752
  0
LINE
  8
0
 10
90.4319
 20
214.752
 11
90.3779
 21
214.51
  0
LINE
  8
0
 10
90.3779
 20
214.51
 11
90.2893
 21
214.278
  0
LINE
  8
0
 10
90.2893
 20
214.278
 11
90.1678
 21
214.062
  0
LINE
  8
0
 10
90.1678
 20
214.062
 11
90.0161
 21
213.866
  0
LINE
  8
0
 10
90.0161
 20
213.866
 11
89.8374
 21
213.693
  0
LINE
  8
0
 10
89.8374
 20
213.693
 11
89.6356
 21
213.549
  0
LINE
  8
0
 10
89.6356
 20
213.549
 11
89.4149
 21
213.435
  0
LINE
  8
0
 10
89.4149
 20
213.435
 11
89.18
 21
213.355
  0
LINE
  8
0
 10
89.18
 20
213.355
 11
88.9359
 21
213.31
  0
LINE
  8
0
 10
88.9359
 20
213.31
 11
88.6879
 21
213.301
  0
LINE
  8
0
 10
88.6879
 20
213.301
 11
88.4412
 21
213.328
  0
LINE
  8
0
 10
-89.0588
 20
213.328
 11
-89.2989
 21
213.391
  0
LINE
  8
0
 10
-89.2989
 20
213.391
 11
-89.5273
 21
213.488
  0
LINE
  8
0
 10
-89.5273
 20
213.488
 11
-89.7392
 21
213.617
  0
LINE
  8
0
 10
-89.7392
 20
213.617
 11
-89.9299
 21
213.776
  0
LINE
  8
0
 10
-89.9299
 20
213.776
 11
-90.0955
 21
213.961
  0
LINE
  8
0
 10
-90.0955
 20
213.961
 11
-90.2325
 21
214.168
  0
LINE
  8
0
 10
-90.2325
 20
214.168
 11
-90.3378
 21
214.393
  0
LINE
  8
0
 10
-90.3378
 20
214.393
 11
-90.4093
 21
214.63
  0
LINE
  8
0
 10
-90.4093
 20
214.63
 11
-90.4455
 21
214.876
  0
LINE
  8
0
 10
-90.4455
 20
214.876
 11
-90.4455
 21
215.124
  0
LINE
  8
0
 10
-90.4455
 20
215.124
 11
-90.4093
 21
215.37
  0
LINE
  8
0
 10
-90.4093
 20
215.37
 11
-90.3378
 21
215.607
  0
LINE
  8
0
 10
-90.3378
 20
215.607
 11
-90.2325
 21
215.832
  0
LINE
  8
0
 10
-90.2325
 20
215.832
 11
-90.0955
 21
216.039
  0
LINE
  8
0
 10
-90.0955
 20
216.039
 11
-89.9299
 21
216.224
  0
LINE
  8
0
 10
-89.9299
 20
216.224
 11
-89.7392
 21
216.383
  0
LINE
  8
0
 10
-89.7392
 20
216.383
 11
-89.5273
 21
216.512
  0
LINE
  8
0
 10
-89.5273
 20
216.512
 11
-89.2989
 21
216.609
  0
LINE
  8
0
 10
-89.2989
 20
216.609
 11
-89.0588
 21
216.672
  0
LINE
  8
0
 10
-89.0588
 20
216.672
 11
-88.8121
 21
216.699
  0
LINE
  8
0
 10
-88.8121
 20
216.699
 11
-88.5641
 21
216.69
  0
LINE
  8
0
 10
-88.5641
 20
216.69
 11
-88.32
 21
216.645
  0
LINE
  8
0
 10
-88.32
 20
216.645
 11
-88.0851
 21
216.565
  0
LINE
  8
0
 10
-88.0851
 20
216.565
 11
-87.8644
 21
216.451
  0
LINE
  8
0
 10
-87.8644
 20
216.451
 11
-87.6626
 21
216.307
  0
LINE
  8
0
 10
-87.6626
 20
216.307
 11
-87.4839
 21
216.134
  0
LINE
  8
0
 10
-87.4839
 20
216.134
 11
-87.3322
 21
215.938
  0
LINE
  8
0
 10
-87.3322
 20
215.938
 11
-87.2107
 21
215.722
  0
LINE
  8
0
 10
-87.2107
 20
215.722
 11
-87.1221
 21
215.49
  0
LINE
  8
0
 10
-87.1221
 20
215.49
 11
-87.0681
 21
215.248
  0
LINE
  8
0
 10
-87.0681
 20
215.248
 11
-87.05
 21
215
  0
LINE
  8
0
 10
-87.05
 20
215
 11
-87.0681
 21
214.752
  0
LINE
  8
0
 10
-87.0681
 20
214.752
 11
-87.1221
 21
214.51
  0
LINE
  8
0
 10
-87.1221
 20
214.51
 11
-87.2107
 21
214.278
  0
LINE
  8
0
 10
-87.2107
 20
214.278
 11
-87.3322
 21
214.062
  0
LINE
  8
0
 10
-87.3322
 20
214.062
 11
-87.4839
 21
213.866
  0
LINE
  8
0
 10
-87.4839
 20
213.866
 11
-87.6626
 21
213.693
  0
LINE
  8
0
 10
-87.6626
 20
213.693
 11
-87.8644
 21
213.549
  0
LINE
  8
0
 10
-87.8644
 20
213.549
 11
-88.0851
 21
213.435
  0
LINE
  8
0
 10
-88.0851
 20
213.435
 11
-88.32
 21
213.355
  0
LINE
  8
0
 10
-88.32
 20
213.355
 11
-88.5641
 21
213.31
  0
LINE
  8
0
 10
-88.5641
 20
213.31
 11
-88.8121
 21
213.301
  0
LINE
  8
0
 10
-88.8121
 20
213.301
 11
-89.0588
 21
213.328
  0
LINE
  8
0
 10
-0.308777
 20
213.328
 11
-0.548889
 21
213.391
  0
LINE
  8
0
 10
-0.548889
 20
213.391
 11
-0.777298
 21
213.488
  0
LINE
  8
0
 10
-0.777298
 20
213.488
 11
-0.989151
 21
213.617
  0
LINE
  8
0
 10
-0.989151
 20
213.617
 11
-1.17992
 21
213.776
  0
LINE
  8
0
 10
-1.17992
 20
213.776
 11
-1.34554
 21
213.961
  0
LINE
  8
0
 10
-1.34554
 20
213.961
 11
-1.48248
 21
214.168
  0
LINE
  8
0
 10
-1.48248
 20
214.168
 11
-1.58781
 21
214.393
  0
LINE
  8
0
 10
-1.58781
 20
214.393
 11
-1.65932
 21
214.63
  0
LINE
  8
0
 10
-1.65932
 20
214.63
 11
-1.69545
 21
214.876
  0
LINE
  8
0
 10
-1.69545
 20
214.876
 11
-1.69545
 21
215.124
  0
LINE
  8
0
 10
-1.69545
 20
215.124
 11
-1.65932
 21
215.37
  0
LINE
  8
0
 10
-1.65932
 20
215.37
 11
-1.58781
 21
215.607
  0
LINE
  8
0
 10
-1.58781
 20
215.607
 11
-1.48248
 21
215.832
  0
LINE
  8
0
 10
-1.48248
 20
215.832
 11
-1.34554
 21
216.039
  0
LINE
  8
0
 10
-1.34554
 20
216.039
 11
-1.17992
 21
216.224
  0
LINE
  8
0
 10
-1.17992
 20
216.224
 11
-0.989151
 21
216.383
  0
LINE
  8
0
 10
-0.989151
 20
216.383
 11
-0.777298
 21
216.512
  0
LINE
  8
0
 10
-0.777298
 20
216.512
 11
-0.548889
 21
216.609
  0
LINE
  8
0
 10
-0.548889
 20
216.609
 11
-0.308777
 21
216.672
  0
LINE
  8
0
 10
-0.308777
 20
216.672
 11
-0.0620728
 21
216.699
  0
LINE
  8
0
 10
-0.0620728
 20
216.699
 11
0.185928
 21
216.69
  0
LINE
  8
0
 10
0.185928
 20
216.69
 11
0.429977
 21
216.645
  0
LINE
  8
0
 10
0.429977
 20
216.645
 11
0.664871
 21
216.565
  0
LINE
  8
0
 10
0.664871
 20
216.565
 11
0.88559
 21
216.451
  0
LINE
  8
0
 10
0.88559
 20
216.451
 11
1.08743
 21
216.307
  0
LINE
  8
0
 10
1.08743
 20
216.307
 11
1.2661
 21
216.134
  0
LINE
  8
0
 10
1.2661
 20
216.134
 11
1.41779
 21
215.938
  0
LINE
  8
0
 10
1.41779
 20
215.938
 11
1.53926
 21
215.722
  0
LINE
  8
0
 10
1.53926
 20
215.722
 11
1.62791
 21
215.49
  0
LINE
  8
0
 10
1.62791
 20
215.49
 11
1.68187
 21
215.248
  0
LINE
  8
0
 10
1.68187
 20
215.248
 11
1.7
 21
215
  0
LINE
  8
0
 10
1.7
 20
215
 11
1.68187
 21
214.752
  0
LINE
  8
0
 10
1.68187
 20
214.752
 11
1.62791
 21
214.51
  0
LINE
  8
0
 10
1.62791
 20
214.51
 11
1.53926
 21
214.278
  0
LINE
  8
0
 10
1.53926
 20
214.278
 11
1.41779
 21
214.062
  0
LINE
  8
0
 10
1.41779
 20
214.062
 11
1.2661
 21
213.866
  0
LINE
  8
0
 10
1.2661
 20
213.866
 11
1.08743
 21
213.693
  0
LINE
  8
0
 10
1.08743
 20
213.693
 11
0.88559
 21
213.549
  0
LINE
  8
0
 10
0.88559
 20
213.549
 11
0.664871
 21
213.435
  0
LINE
  8
0
 10
0.664871
 20
213.435
 11
0.429977
 21
213.355
  0
LINE
  8
0
 10
0.429977
 20
213.355
 11
0.185928
 21
213.31
  0
LINE
  8
0
 10
0.185928
 20
213.31
 11
-0.0620728
 21
213.301
  0
LINE
  8
0
 10
-0.0620728
 20
213.301
 11
-0.308777
 21
213.328
  0
LINE
  8
0
 10
177.191
 20
213.328
 11
176.951
 21
213.391
  0
LINE
  8
0
 10
176.951
 20
213.391
 11
176.723
 21
213.488
  0
LINE
  8
0
 10
176.723
 20
213.488
 11
176.511
 21
213.617
  0
LINE
  8
0
 10
176.511
 20
213.617
 11
176.32
 21
213.776
  0
LINE
  8
0
 10
176.32
 20
213.776
 11
176.154
 21
213.961
  0
LINE
  8
0
 10
176.154
 20
213.961
 11
176.018
 21
214.168
  0
LINE
  8
0
 10
176.018
 20
214.168
 11
175.912
 21
214.393
  0
LINE
  8
0
 10
175.912
 20
214.393
 11
175.841
 21
214.63
  0
LINE
  8
0
 10
175.841
 20
214.63
 11
175.805
 21
214.876
  0
LINE
  8
0
 10
175.805
 20
214.876
 11
175.805
 21
215.124
  0
LINE
  8
0
 10
175.805
 20
215.124
 11
175.841
 21
215.37
  0
LINE
  8
0
 10
175.841
 20
215.37
 11
175.912
 21
215.607
  0
LINE
  8
0
 10
175.912
 20
215.607
 11
176.018
 21
215.832
  0
LINE
  8
0
 10
176.018
 20
215.832
 11
176.154
 21
216.039
  0
LINE
  8
0
 10
176.154
 20
216.039
 11
176.32
 21
216.224
  0
LINE
  8
0
 10
176.32
 20
216.224
 11
176.511
 21
216.383
  0
LINE
  8
0
 10
176.511
 20
216.383
 11
176.723
 21
216.512
  0
LINE
  8
0
 10
176.723
 20
216.512
 11
176.951
 21
216.609
  0
LINE
  8
0
 10
176.951
 20
216.609
 11
177.191
 21
216.672
  0
LINE
  8
0
 10
177.191
 20
216.672
 11
177.438
 21
216.699
  0
LINE
  8
0
 10
177.438
 20
216.699
 11
177.686
 21
216.69
  0
LINE
  8
0
 10
177.686
 20
216.69
 11
177.93
 21
216.645
  0
LINE
  8
0
 10
177.93
 20
216.645
 11
178.165
 21
216.565
  0
LINE
  8
0
 10
178.165
 20
216.565
 11
178.386
 21
216.451
  0
LINE
  8
0
 10
178.386
 20
216.451
 11
178.587
 21
216.307
  0
LINE
  8
0
 10
178.587
 20
216.307
 11
178.766
 21
216.134
  0
LINE
  8
0
 10
178.766
 20
216.134
 11
178.918
 21
215.938
  0
LINE
  8
0
 10
178.918
 20
215.938
 11
179.039
 21
215.722
  0
LINE
  8
0
 10
179.039
 20
215.722
 11
179.128
 21
215.49
  0
LINE
  8
0
 10
179.128
 20
215.49
 11
179.182
 21
215.248
  0
LINE
  8
0
 10
179.182
 20
215.248
 11
179.2
 21
215
  0
LINE
  8
0
 10
179.2
 20
215
 11
179.182
 21
214.752
  0
LINE
  8
0
 10
179.182
 20
214.752
 11
179.128
 21
214.51
  0
LINE
  8
0
 10
179.128
 20
214.51
 11
179.039
 21
214.278
  0
LINE
  8
0
 10
179.039
 20
214.278
 11
178.918
 21
214.062
  0
LINE
  8
0
 10
178.918
 20
214.062
 11
178.766
 21
213.866
  0
LINE
  8
0
 10
178.766
 20
213.866
 11
178.587
 21
213.693
  0
LINE
  8
0
 10
178.587
 20
213.693
 11
178.386
 21
213.549
  0
LINE
  8
0
 10
178.386
 20
213.549
 11
178.165
 21
213.435
  0
LINE
  8
0
 10
178.165
 20
213.435
 11
177.93
 21
213.355
  0
LINE
  8
0
 10
177.93
 20
213.355
 11
177.686
 21
213.31
  0
LINE
  8
0
 10
177.686
 20
213.31
 11
177.438
 21
213.301
  0
LINE
  8
0
 10
177.438
 20
213.301
 11
177.191
 21
213.328
  0
LINE
  8
0
 10
-177.809
 20
213.328
 11
-178.049
 21
213.391
  0
LINE
  8
0
 10
-178.049
 20
213.391
 11
-178.277
 21
213.488
  0
LINE
  8
0
 10
-178.277
 20
213.488
 11
-178.489
 21
213.617
  0
LINE
  8
0
 10
-178.489
 20
213.617
 11
-178.68
 21
213.776
  0
LINE
  8
0
 10
-178.68
 20
213.776
 11
-178.846
 21
213.961
  0
LINE
  8
0
 10
-178.846
 20
213.961
 11
-178.982
 21
214.168
  0
LINE
  8
0
 10
-178.982
 20
214.168
 11
-179.088
 21
214.393
  0
LINE
  8
0
 10
-179.088
 20
214.393
 11
-179.159
 21
214.63
  0
LINE
  8
0
 10
-179.159
 20
214.63
 11
-179.195
 21
214.876
  0
LINE
  8
0
 10
-179.195
 20
214.876
 11
-179.195
 21
215.124
  0
LINE
  8
0
 10
-179.195
 20
215.124
 11
-179.159
 21
215.37
  0
LINE
  8
0
 10
-179.159
 20
215.37
 11
-179.088
 21
215.607
  0
LINE
  8
0
 10
-179.088
 20
215.607
 11
-178.982
 21
215.832
  0
LINE
  8
0
 10
-178.982
 20
215.832
 11
-178.846
 21
216.039
  0
LINE
  8
0
 10
-178.846
 20
216.039
 11
-178.68
 21
216.224
  0
LINE
  8
0
 10
-178.68
 20
216.224
 11
-178.489
 21
216.383
  0
LINE
  8
0
 10
-178.489
 20
216.383
 11
-178.277
 21
216.512
  0
LINE
  8
0
 10
-178.277
 20
216.512
 11
-178.049
 21
216.609
  0
LINE
  8
0
 10
-178.049
 20
216.609
 11
-177.809
 21
216.672
  0
LINE
  8
0
 10
-177.809
 20
216.672
 11
-177.562
 21
216.699
  0
LINE
  8
0
 10
-177.562
 20
216.699
 11
-177.314
 21
216.69
  0
LINE
  8
0
 10
-177.314
 20
216.69
 11
-177.07
 21
216.645
  0
LINE
  8
0
 10
-177.07
 20
216.645
 11
-176.835
 21
216.565
  0
LINE
  8
0
 10
-176.835
 20
216.565
 11
-176.614
 21
216.451
  0
LINE
  8
0
 10
-176.614
 20
216.451
 11
-176.413
 21
216.307
  0
LINE
  8
0
 10
-176.413
 20
216.307
 11
-176.234
 21
216.134
  0
LINE
  8
0
 10
-176.234
 20
216.134
 11
-176.082
 21
215.938
  0
LINE
  8
0
 10
-176.082
 20
215.938
 11
-175.961
 21
215.722
  0
LINE
  8
0
 10
-175.961
 20
215.722
 11
-175.872
 21
215.49
  0
LINE
  8
0
 10
-175.872
 20
215.49
 11
-175.818
 21
215.248
  0
LINE
  8
0
 10
-175.818
 20
215.248
 11
-175.8
 21
215
  0
LINE
  8
0
 10
-175.8
 20
215
 11
-175.818
 21
214.752
  0
LINE
  8
0
 10
-175.818
 20
214.752
 11
-175.872
 21
214.51
  0
LINE
  8
0
 10
-175.872
 20
214.51
 11
-175.961
 21
214.278
  0
LINE
  8
0
 10
-175.961
 20
214.278
 11
-176.082
 21
214.062
  0
LINE
  8
0
 10
-176.082
 20
214.062
 11
-176.234
 21
213.866
  0
LINE
  8
0
 10
-176.234
 20
213.866
 11
-176.413
 21
213.693
  0
LINE
  8
0
 10
-176.413
 20
213.693
 11
-176.614
 21
213.549
  0
LINE
  8
0
 10
-176.614
 20
213.549
 11
-176.835
 21
213.435
  0
LINE
  8
0
 10
-176.835
 20
213.435
 11
-177.07
 21
213.355
  0
LINE
  8
0
 10
-177.07
 20
213.355
 11
-177.314
 21
213.31
  0
LINE
  8
0
 10
-177.314
 20
213.31
 11
-177.562
 21
213.301
  0
LINE
  8
0
 10
-177.562
 20
213.301
 11
-177.809
 21
213.328
  0
LINE
  8
0
 10
-220.186
 20
170.81
 11
-220.43
 21
170.855
  0
LINE
  8
0
 10
-220.43
 20
170.855
 11
-220.665
 21
170.935
  0
LINE
  8
0
 10
-220.665
 20
170.935
 11
-220.886
 21
171.049
  0
LINE
  8
0
 10
-220.886
 20
171.049
 11
-221.087
 21
171.193
  0
LINE
  8
0
 10
-221.087
 20
171.193
 11
-221.266
 21
171.366
  0
LINE
  8
0
 10
-221.266
 20
171.366
 11
-221.418
 21
171.562
  0
LINE
  8
0
 10
-221.418
 20
171.562
 11
-221.539
 21
171.778
  0
LINE
  8
0
 10
-221.539
 20
171.778
 11
-221.628
 21
172.01
  0
LINE
  8
0
 10
-221.628
 20
172.01
 11
-221.682
 21
172.252
  0
LINE
  8
0
 10
-221.682
 20
172.252
 11
-221.7
 21
172.5
  0
LINE
  8
0
 10
-221.7
 20
172.5
 11
-221.682
 21
172.748
  0
LINE
  8
0
 10
-221.682
 20
172.748
 11
-221.628
 21
172.99
  0
LINE
  8
0
 10
-221.628
 20
172.99
 11
-221.539
 21
173.222
  0
LINE
  8
0
 10
-221.539
 20
173.222
 11
-221.418
 21
173.438
  0
LINE
  8
0
 10
-221.418
 20
173.438
 11
-221.266
 21
173.634
  0
LINE
  8
0
 10
-221.266
 20
173.634
 11
-221.087
 21
173.807
  0
LINE
  8
0
 10
-221.087
 20
173.807
 11
-220.886
 21
173.951
  0
LINE
  8
0
 10
-220.886
 20
173.951
 11
-220.665
 21
174.065
  0
LINE
  8
0
 10
-220.665
 20
174.065
 11
-220.43
 21
174.145
  0
LINE
  8
0
 10
-220.43
 20
174.145
 11
-220.186
 21
174.19
  0
LINE
  8
0
 10
-220.186
 20
174.19
 11
-219.938
 21
174.199
  0
LINE
  8
0
 10
-219.938
 20
174.199
 11
-219.691
 21
174.172
  0
LINE
  8
0
 10
-219.691
 20
174.172
 11
-219.451
 21
174.109
  0
LINE
  8
0
 10
-219.451
 20
174.109
 11
-219.223
 21
174.012
  0
LINE
  8
0
 10
-219.223
 20
174.012
 11
-219.011
 21
173.883
  0
LINE
  8
0
 10
-219.011
 20
173.883
 11
-218.82
 21
173.724
  0
LINE
  8
0
 10
-218.82
 20
173.724
 11
-218.654
 21
173.539
  0
LINE
  8
0
 10
-218.654
 20
173.539
 11
-218.518
 21
173.332
  0
LINE
  8
0
 10
-218.518
 20
173.332
 11
-218.412
 21
173.107
  0
LINE
  8
0
 10
-218.412
 20
173.107
 11
-218.341
 21
172.87
  0
LINE
  8
0
 10
-218.341
 20
172.87
 11
-218.305
 21
172.624
  0
LINE
  8
0
 10
-218.305
 20
172.624
 11
-218.305
 21
172.376
  0
LINE
  8
0
 10
-218.305
 20
172.376
 11
-218.341
 21
172.13
  0
LINE
  8
0
 10
-218.341
 20
172.13
 11
-218.412
 21
171.893
  0
LINE
  8
0
 10
-218.412
 20
171.893
 11
-218.518
 21
171.668
  0
LINE
  8
0
 10
-218.518
 20
171.668
 11
-218.654
 21
171.461
  0
LINE
  8
0
 10
-218.654
 20
171.461
 11
-218.82
 21
171.276
  0
LINE
  8
0
 10
-218.82
 20
171.276
 11
-219.011
 21
171.117
  0
LINE
  8
0
 10
-219.011
 20
171.117
 11
-219.223
 21
170.988
  0
LINE
  8
0
 10
-219.223
 20
170.988
 11
-219.451
 21
170.891
  0
LINE
  8
0
 10
-219.451
 20
170.891
 11
-219.691
 21
170.828
  0
LINE
  8
0
 10
-219.691
 20
170.828
 11
-219.938
 21
170.801
  0
LINE
  8
0
 10
-219.938
 20
170.801
 11
-220.186
 21
170.81
  0
LINE
  8
0
 10
219.691
 20
170.828
 11
219.451
 21
170.891
  0
LINE
  8
0
 10
219.451
 20
170.891
 11
219.223
 21
170.988
  0
LINE
  8
0
 10
219.223
 20
170.988
 11
219.011
 21
171.117
  0
LINE
  8
0
 10
219.011
 20
171.117
 11
218.82
 21
171.276
  0
LINE
  8
0
 10
218.82
 20
171.276
 11
218.654
 21
171.461
  0
LINE
  8
0
 10
218.654
 20
171.461
 11
218.518
 21
171.668
  0
LINE
  8
0
 10
218.518
 20
171.668
 11
218.412
 21
171.893
  0
LINE
  8
0
 10
218.412
 20
171.893
 11
218.341
 21
172.13
  0
LINE
  8
0
 10
218.341
 20
172.13
 11
218.305
 21
172.376
  0
LINE
  8
0
 10
218.305
 20
172.376
 11
218.305
 21
172.624
  0
LINE
  8
0
 10
218.305
 20
172.624
 11
218.341
 21
172.87
  0
LINE
  8
0
 10
218.341
 20
172.87
 11
218.412
 21
173.107
  0
LINE
  8
0
 10
218.412
 20
173.107
 11
218.518
 21
173.332
  0
LINE
  8
0
 10
218.518
 20
173.332
 11
218.654
 21
173.539
  0
LINE
  8
0
 10
218.654
 20
173.539
 11
218.82
 21
173.724
  0
LINE
  8
0
 10
218.82
 20
173.724
 11
219.011
 21
173.883
  0
LINE
  8
0
 10
219.011
 20
173.883
 11
219.223
 21
174.012
  0
LINE
  8
0
 10
219.223
 20
174.012
 11
219.451
 21
174.109
  0
LINE
  8
0
 10
219.451
 20
174.109
 11
219.691
 21
174.172
  0
LINE
  8
0
 10
219.691
 20
174.172
 11
219.938
 21
174.199
  0
LINE
  8
0
 10
219.938
 20
174.199
 11
220.186
 21
174.19
  0
LINE
  8
0
 10
220.186
 20
174.19
 11
220.43
 21
174.145
  0
LINE
  8
0
 10
220.43
 20
174.145
 11
220.665
 21
174.065
  0
LINE
  8
0
 10
220.665
 20
174.065
 11
220.886
 21
173.951
  0
LINE
  8
0
 10
220.886
 20
173.951
 11
221.087
 21
173.807
  0
LINE
  8
0
 10
221.087
 20
173.807
 11
221.266
 21
173.634
  0
LINE
  8
0
 10
221.266
 20
173.634
 11
221.418
 21
173.438
  0
LINE
  8
0
 10
221.418
 20
173.438
 11
221.539
 21
173.222
  0
LINE
  8
0
 10
221.539
 20
173.222
 11
221.628
 21
172.99
  0
LINE
  8
0
 10
221.628
 20
172.99
 11
221.682
 21
172.748
  0
LINE
  8
0
 10
221.682
 20
172.748
 11
221.7
 21
172.5
  0
LINE
  8
0
 10
221.7
 20
172.5
 11
221.682
 21
172.252
  0
LINE
  8
0
 10
221.682
 20
172.252
 11
221.628
 21
172.01
  0
LINE
  8
0
 10
221.628
 20
172.01
 11
221.539
 21
171.778
  0
LINE
  8
0
 10
221.539
 20
171.778
 11
221.418
 21
171.562
  0
LINE
  8
0
 10
221.418
 20
171.562
 11
221.266
 21
171.366
  0
LINE
  8
0
 10
221.266
 20
171.366
 11
221.087
 21
171.193
  0
LINE
  8
0
 10
221.087
 20
171.193
 11
220.886
 21
171.049
  0
LINE
  8
0
 10
220.886
 20
171.049
 11
220.665
 21
170.935
  0
LINE
  8
0
 10
220.665
 20
170.935
 11
220.43
 21
170.855
  0
LINE
  8
0
 10
220.43
 20
170.855
 11
220.186
 21
170.81
  0
LINE
  8
0
 10
220.186
 20
170.81
 11
219.938
 21
170.801
  0
LINE
  8
0
 10
219.938
 20
170.801
 11
219.691
 21
170.828
  0
LINE
  8
0
 10
-85.3589
 20
113.571
 11
-86.7029
 21
113.784
  0
LINE
  8
0
 10
-86.7029
 20
113.784
 11
-88.0172
 21
114.136
  0
LINE
  8
0
 10
-88.0172
 20
114.136
 11
-89.2876
 21
114.624
  0
LINE
  8
0
 10
-89.2876
 20
114.624
 11
-90.5
 21
115.242
  0
LINE
  8
0
 10
-90.5
 20
115.242
 11
-91.6412
 21
115.983
  0
LINE
  8
0
 10
-91.6412
 20
115.983
 11
-92.6987
 21
116.839
  0
LINE
  8
0
 10
-92.6987
 20
116.839
 11
-93.6609
 21
117.801
  0
LINE
  8
0
 10
-93.6609
 20
117.801
 11
-94.5172
 21
118.859
  0
LINE
  8
0
 10
-94.5172
 20
118.859
 11
-95.2583
 21
120
  0
LINE
  8
0
 10
-95.2583
 20
120
 11
-95.8761
 21
121.212
  0
LINE
  8
0
 10
-95.8761
 20
121.212
 11
-96.3637
 21
122.483
  0
LINE
  8
0
 10
-96.3637
 20
122.483
 11
-96.7159
 21
123.797
  0
LINE
  8
0
 10
-96.7159
 20
123.797
 11
-96.9288
 21
125.141
  0
LINE
  8
0
 10
-96.9288
 20
125.141
 11
-97
 21
126.5
  0
LINE
  8
0
 10
-97
 20
126.5
 11
-96.9288
 21
127.859
  0
LINE
  8
0
 10
-96.9288
 20
127.859
 11
-96.7159
 21
129.203
  0
LINE
  8
0
 10
-96.7159
 20
129.203
 11
-96.3637
 21
130.517
  0
LINE
  8
0
 10
-96.3637
 20
130.517
 11
-95.8761
 21
131.788
  0
LINE
  8
0
 10
-95.8761
 20
131.788
 11
-95.2583
 21
133
  0
LINE
  8
0
 10
-95.2583
 20
133
 11
-94.5172
 21
134.141
  0
LINE
  8
0
 10
-94.5172
 20
134.141
 11
-93.6609
 21
135.199
  0
LINE
  8
0
 10
-93.6609
 20
135.199
 11
-92.6987
 21
136.161
  0
LINE
  8
0
 10
-92.6987
 20
136.161
 11
-91.6412
 21
137.017
  0
LINE
  8
0
 10
-91.6412
 20
137.017
 11
-90.5
 21
137.758
  0
LINE
  8
0
 10
-90.5
 20
137.758
 11
-89.2876
 21
138.376
  0
LINE
  8
0
 10
-89.2876
 20
138.376
 11
-88.0172
 21
138.864
  0
LINE
  8
0
 10
-88.0172
 20
138.864
 11
-86.7029
 21
139.216
  0
LINE
  8
0
 10
-86.7029
 20
139.216
 11
-85.3589
 21
139.429
  0
LINE
  8
0
 10
-85.3589
 20
139.429
 11
-84
 21
139.5
  0
LINE
  8
0
 10
-84
 20
139.5
 11
-82.6411
 21
139.429
  0
LINE
  8
0
 10
-82.6411
 20
139.429
 11
-81.2971
 21
139.216
  0
LINE
  8
0
 10
-81.2971
 20
139.216
 11
-79.9828
 21
138.864
  0
LINE
  8
0
 10
-79.9828
 20
138.864
 11
-78.7124
 21
138.376
  0
LINE
  8
0
 10
-78.7124
 20
138.376
 11
-77.5
 21
137.758
  0
LINE
  8
0
 10
-77.5
 20
137.758
 11
-76.3588
 21
137.017
  0
LINE
  8
0
 10
-76.3588
 20
137.017
 11
-75.3013
 21
136.161
  0
LINE
  8
0
 10
-75.3013
 20
136.161
 11
-74.3391
 21
135.199
  0
LINE
  8
0
 10
-74.3391
 20
135.199
 11
-73.4828
 21
134.141
  0
LINE
  8
0
 10
-73.4828
 20
134.141
 11
-72.7417
 21
133
  0
LINE
  8
0
 10
-72.7417
 20
133
 11
-72.1239
 21
131.788
  0
LINE
  8
0
 10
-72.1239
 20
131.788
 11
-71.6363
 21
130.517
  0
LINE
  8
0
 10
-71.6363
 20
130.517
 11
-71.2841
 21
129.203
  0
LINE
  8
0
 10
-71.2841
 20
129.203
 11
-71.0712
 21
127.859
  0
LINE
  8
0
 10
-71.0712
 20
127.859
 11
-71
 21
126.5
  0
LINE
  8
0
 10
-71
 20
126.5
 11
-71.0712
 21
125.141
  0
LINE
  8
0
 10
-71.0712
 20
125.141
 11
-71.2841
 21
123.797
  0
LINE
  8
0
 10
-71.2841
 20
123.797
 11
-71.6363
 21
122.483
  0
LINE
  8
0
 10
-71.6363
 20
122.483
 11
-72.1239
 21
121.212
  0
LINE
  8
0
 10
-72.1239
 20
121.212
 11
-72.7417
 21
120
  0
LINE
  8
0
 10
-72.7417
 20
120
 11
-73.4828
 21
118.859
  0
LINE
  8
0
 10
-73.4828
 20
118.859
 11
-74.3391
 21
117.801
  0
LINE
  8
0
 10
-74.3391
 20
117.801
 11
-75.3013
 21
116.839
  0
LINE
  8
0
 10
-75.3013
 20
116.839
 11
-76.3588
 21
115.983
  0
LINE
  8
0
 10
-76.3588
 20
115.983
 11
-77.5
 21
115.242
  0
LINE
  8
0
 10
-77.5
 20
115.242
 11
-78.7124
 21
114.624
  0
LINE
  8
0
 10
-78.7124
 20
114.624
 11
-79.9828
 21
114.136
  0
LINE
  8
0
 10
-79.9828
 20
114.136
 11
-81.2971
 21
113.784
  0
LINE
  8
0
 10
-81.2971
 20
113.784
 11
-82.6411
 21
113.571
  0
LINE
  8
0
 10
-82.6411
 20
113.571
 11
-84
 21
113.5
  0
LINE
  8
0
 10
-84
 20
113.5
 11
-85.3589
 21
113.571
  0
LINE
  8
0
 10
159.826
 20
128.455
 11
159.582
 21
128.496
  0
LINE
  8
0
 10
159.582
 20
128.496
 11
159.347
 21
128.576
  0
LINE
  8
0
 10
159.347
 20
128.576
 11
159.13
 21
128.694
  0
LINE
  8
0
 10
159.13
 20
128.694
 11
158.934
 21
128.846
  0
LINE
  8
0
 10
158.934
 20
128.846
 11
158.766
 21
129.029
  0
LINE
  8
0
 10
158.766
 20
129.029
 11
158.631
 21
129.236
  0
LINE
  8
0
 10
158.631
 20
129.236
 11
158.531
 21
129.463
  0
LINE
  8
0
 10
158.531
 20
129.463
 11
158.47
 21
129.703
  0
LINE
  8
0
 10
158.47
 20
129.703
 11
158.45
 21
129.95
  0
LINE
  8
0
 10
158.45
 20
129.95
 11
158.47
 21
130.197
  0
LINE
  8
0
 10
158.47
 20
130.197
 11
158.531
 21
130.437
  0
LINE
  8
0
 10
158.531
 20
130.437
 11
158.631
 21
130.664
  0
LINE
  8
0
 10
158.631
 20
130.664
 11
158.766
 21
130.871
  0
LINE
  8
0
 10
158.766
 20
130.871
 11
158.934
 21
131.054
  0
LINE
  8
0
 10
158.934
 20
131.054
 11
159.13
 21
131.206
  0
LINE
  8
0
 10
159.13
 20
131.206
 11
159.347
 21
131.324
  0
LINE
  8
0
 10
159.347
 20
131.324
 11
159.582
 21
131.404
  0
LINE
  8
0
 10
159.582
 20
131.404
 11
159.826
 21
131.445
  0
LINE
  8
0
 10
159.826
 20
131.445
 11
160.074
 21
131.445
  0
LINE
  8
0
 10
160.074
 20
131.445
 11
160.318
 21
131.404
  0
LINE
  8
0
 10
160.318
 20
131.404
 11
160.553
 21
131.324
  0
LINE
  8
0
 10
160.553
 20
131.324
 11
160.77
 21
131.206
  0
LINE
  8
0
 10
160.77
 20
131.206
 11
160.966
 21
131.054
  0
LINE
  8
0
 10
160.966
 20
131.054
 11
161.134
 21
130.871
  0
LINE
  8
0
 10
161.134
 20
130.871
 11
161.269
 21
130.664
  0
LINE
  8
0
 10
161.269
 20
130.664
 11
161.369
 21
130.437
  0
LINE
  8
0
 10
161.369
 20
130.437
 11
161.43
 21
130.197
  0
LINE
  8
0
 10
161.43
 20
130.197
 11
161.45
 21
129.95
  0
LINE
  8
0
 10
161.45
 20
129.95
 11
161.43
 21
129.703
  0
LINE
  8
0
 10
161.43
 20
129.703
 11
161.369
 21
129.463
  0
LINE
  8
0
 10
161.369
 20
129.463
 11
161.269
 21
129.236
  0
LINE
  8
0
 10
161.269
 20
129.236
 11
161.134
 21
129.029
  0
LINE
  8
0
 10
161.134
 20
129.029
 11
160.966
 21
128.846
  0
LINE
  8
0
 10
160.966
 20
128.846
 11
160.77
 21
128.694
  0
LINE
  8
0
 10
160.77
 20
128.694
 11
160.553
 21
128.576
  0
LINE
  8
0
 10
160.553
 20
128.576
 11
160.318
 21
128.496
  0
LINE
  8
0
 10
160.318
 20
128.496
 11
160.074
 21
128.455
  0
LINE
  8
0
 10
160.074
 20
128.455
 11
159.826
 21
128.455
  0
LINE
  8
0
 10
-160.074
 20
128.455
 11
-160.318
 21
128.496
  0
LINE
  8
0
 10
-160.318
 20
128.496
 11
-160.553
 21
128.576
  0
LINE
  8
0
 10
-160.553
 20
128.576
 11
-160.77
 21
128.694
  0
LINE
  8
0
 10
-160.77
 20
128.694
 11
-160.966
 21
128.846
  0
LINE
  8
0
 10
-160.966
 20
128.846
 11
-161.134
 21
129.029
  0
LINE
  8
0
 10
-161.134
 20
129.029
 11
-161.269
 21
129.236
  0
LINE
  8
0
 10
-161.269
 20
129.236
 11
-161.369
 21
129.463
  0
LINE
  8
0
 10
-161.369
 20
129.463
 11
-161.43
 21
129.703
  0
LINE
  8
0
 10
-161.43
 20
129.703
 11
-161.45
 21
129.95
  0
LINE
  8
0
 10
-161.45
 20
129.95
 11
-161.43
 21
130.197
  0
LINE
  8
0
 10
-161.43
 20
130.197
 11
-161.369
 21
130.437
  0
LINE
  8
0
 10
-161.369
 20
130.437
 11
-161.269
 21
130.664
  0
LINE
  8
0
 10
-161.269
 20
130.664
 11
-161.134
 21
130.871
  0
LINE
  8
0
 10
-161.134
 20
130.871
 11
-160.966
 21
131.054
  0
LINE
  8
0
 10
-160.966
 20
131.054
 11
-160.77
 21
131.206
  0
LINE
  8
0
 10
-160.77
 20
131.206
 11
-160.553
 21
131.324
  0
LINE
  8
0
 10
-160.553
 20
131.324
 11
-160.318
 21
131.404
  0
LINE
  8
0
 10
-160.318
 20
131.404
 11
-160.074
 21
131.445
  0
LINE
  8
0
 10
-160.074
 20
131.445
 11
-159.826
 21
131.445
  0
LINE
  8
0
 10
-159.826
 20
131.445
 11
-159.582
 21
131.404
  0
LINE
  8
0
 10
-159.582
 20
131.404
 11
-159.347
 21
131.324
  0
LINE
  8
0
 10
-159.347
 20
131.324
 11
-159.13
 21
131.206
  0
LINE
  8
0
 10
-159.13
 20
131.206
 11
-158.934
 21
131.054
  0
LINE
  8
0
 10
-158.934
 20
131.054
 11
-158.766
 21
130.871
  0
LINE
  8
0
 10
-158.766
 20
130.871
 11
-158.631
 21
130.664
  0
LINE
  8
0
 10
-158.631
 20
130.664
 11
-158.531
 21
130.437
  0
LINE
  8
0
 10
-158.531
 20
130.437
 11
-158.47
 21
130.197
  0
LINE
  8
0
 10
-158.47
 20
130.197
 11
-158.45
 21
129.95
  0
LINE
  8
0
 10
-158.45
 20
129.95
 11
-158.47
 21
129.703
  0
LINE
  8
0
 10
-158.47
 20
129.703
 11
-158.531
 21
129.463
  0
LINE
  8
0
 10
-158.531
 20
129.463
 11
-158.631
 21
129.236
  0
LINE
  8
0
 10
-158.631
 20
129.236
 11
-158.766
 21
129.029
  0
LINE
  8
0
 10
-158.766
 20
129.029
 11
-158.934
 21
128.846
  0
LINE
  8
0
 10
-158.934
 20
128.846
 11
-159.13
 21
128.694
  0
LINE
  8
0
 10
-159.13
 20
128.694
 11
-159.347
 21
128.576
  0
LINE
  8
0
 10
-159.347
 20
128.576
 11
-159.582
 21
128.496
  0
LINE
  8
0
 10
-159.582
 20
128.496
 11
-159.826
 21
128.455
  0
LINE
  8
0
 10
-159.826
 20
128.455
 11
-160.074
 21
128.455
  0
LINE
  8
0
 10
44.1864
 20
113.016
 11
43.8763
 21
113.066
  0
LINE
  8
0
 10
43.8763
 20
113.066
 11
43.5729
 21
113.147
  0
LINE
  8
0
 10
43.5729
 20
113.147
 11
43.2798
 21
113.259
  0
LINE
  8
0
 10
43.2798
 20
113.259
 11
43
 21
113.402
  0
LINE
  8
0
 10
43
 20
113.402
 11
42.7366
 21
113.573
  0
LINE
  8
0
 10
42.7366
 20
113.573
 11
42.4926
 21
113.771
  0
LINE
  8
0
 10
42.4926
 20
113.771
 11
42.2706
 21
113.993
  0
LINE
  8
0
 10
42.2706
 20
113.993
 11
42.0729
 21
114.237
  0
LINE
  8
0
 10
42.0729
 20
114.237
 11
41.9019
 21
114.5
  0
LINE
  8
0
 10
41.9019
 20
114.5
 11
41.7594
 21
114.78
  0
LINE
  8
0
 10
41.7594
 20
114.78
 11
41.6468
 21
115.073
  0
LINE
  8
0
 10
41.6468
 20
115.073
 11
41.5656
 21
115.376
  0
LINE
  8
0
 10
41.5656
 20
115.376
 11
41.5164
 21
115.686
  0
LINE
  8
0
 10
41.5164
 20
115.686
 11
41.5
 21
116
  0
LINE
  8
0
 10
41.5
 20
116
 11
41.5164
 21
116.314
  0
LINE
  8
0
 10
41.5164
 20
116.314
 11
41.5656
 21
116.624
  0
LINE
  8
0
 10
41.5656
 20
116.624
 11
41.6468
 21
116.927
  0
LINE
  8
0
 10
41.6468
 20
116.927
 11
41.7594
 21
117.22
  0
LINE
  8
0
 10
41.7594
 20
117.22
 11
41.9019
 21
117.5
  0
LINE
  8
0
 10
41.9019
 20
117.5
 11
42.0729
 21
117.763
  0
LINE
  8
0
 10
42.0729
 20
117.763
 11
42.2706
 21
118.007
  0
LINE
  8
0
 10
42.2706
 20
118.007
 11
42.4926
 21
118.229
  0
LINE
  8
0
 10
42.4926
 20
118.229
 11
42.7366
 21
118.427
  0
LINE
  8
0
 10
42.7366
 20
118.427
 11
43
 21
118.598
  0
LINE
  8
0
 10
43
 20
118.598
 11
43.2798
 21
118.741
  0
LINE
  8
0
 10
43.2798
 20
118.741
 11
43.5729
 21
118.853
  0
LINE
  8
0
 10
43.5729
 20
118.853
 11
43.8763
 21
118.934
  0
LINE
  8
0
 10
43.8763
 20
118.934
 11
44.1864
 21
118.984
  0
LINE
  8
0
 10
44.1864
 20
118.984
 11
44.5
 21
119
  0
LINE
  8
0
 10
44.5
 20
119
 11
44.8136
 21
118.984
  0
LINE
  8
0
 10
44.8136
 20
118.984
 11
45.1237
 21
118.934
  0
LINE
  8
0
 10
45.1237
 20
118.934
 11
45.427
 21
118.853
  0
LINE
  8
0
 10
45.427
 20
118.853
 11
45.7202
 21
118.741
  0
LINE
  8
0
 10
45.7202
 20
118.741
 11
46
 21
118.598
  0
LINE
  8
0
 10
46
 20
118.598
 11
46.2634
 21
118.427
  0
LINE
  8
0
 10
46.2634
 20
118.427
 11
46.5074
 21
118.229
  0
LINE
  8
0
 10
46.5074
 20
118.229
 11
46.7294
 21
118.007
  0
LINE
  8
0
 10
46.7294
 20
118.007
 11
46.927
 21
117.763
  0
LINE
  8
0
 10
46.927
 20
117.763
 11
47.0981
 21
117.5
  0
LINE
  8
0
 10
47.0981
 20
117.5
 11
47.2406
 21
117.22
  0
LINE
  8
0
 10
47.2406
 20
117.22
 11
47.3532
 21
116.927
  0
LINE
  8
0
 10
47.3532
 20
116.927
 11
47.4344
 21
116.624
  0
LINE
  8
0
 10
47.4344
 20
116.624
 11
47.4836
 21
116.314
  0
LINE
  8
0
 10
47.4836
 20
116.314
 11
47.5
 21
116
  0
LINE
  8
0
 10
47.5
 20
116
 11
47.4836
 21
115.686
  0
LINE
  8
0
 10
47.4836
 20
115.686
 11
47.4344
 21
115.376
  0
LINE
  8
0
 10
47.4344
 20
115.376
 11
47.3532
 21
115.073
  0
LINE
  8
0
 10
47.3532
 20
115.073
 11
47.2406
 21
114.78
  0
LINE
  8
0
 10
47.2406
 20
114.78
 11
47.0981
 21
114.5
  0
LINE
  8
0
 10
47.0981
 20
114.5
 11
46.927
 21
114.237
  0
LINE
  8
0
 10
46.927
 20
114.237
 11
46.7294
 21
113.993
  0
LINE
  8
0
 10
46.7294
 20
113.993
 11
46.5074
 21
113.771
  0
LINE
  8
0
 10
46.5074
 20
113.771
 11
46.2634
 21
113.573
  0
LINE
  8
0
 10
46.2634
 20
113.573
 11
46
 21
113.402
  0
LINE
  8
0
 10
46
 20
113.402
 11
45.7202
 21
113.259
  0
LINE
  8
0
 10
45.7202
 20
113.259
 11
45.427
 21
113.147
  0
LINE
  8
0
 10
45.427
 20
113.147
 11
45.1237
 21
113.066
  0
LINE
  8
0
 10
45.1237
 20
113.066
 11
44.8136
 21
113.016
  0
LINE
  8
0
 10
44.8136
 20
113.016
 11
44.5
 21
113
  0
LINE
  8
0
 10
44.5
 20
113
 11
44.1864
 21
113.016
  0
LINE
  8
0
 10
129.186
 20
113.016
 11
128.876
 21
113.066
  0
LINE
  8
0
 10
128.876
 20
113.066
 11
128.573
 21
113.147
  0
LINE
  8
0
 10
128.573
 20
113.147
 11
128.28
 21
113.259
  0
LINE
  8
0
 10
128.28
 20
113.259
 11
128
 21
113.402
  0
LINE
  8
0
 10
128
 20
113.402
 11
127.737
 21
113.573
  0
LINE
  8
0
 10
127.737
 20
113.573
 11
127.493
 21
113.771
  0
LINE
  8
0
 10
127.493
 20
113.771
 11
127.271
 21
113.993
  0
LINE
  8
0
 10
127.271
 20
113.993
 11
127.073
 21
114.237
  0
LINE
  8
0
 10
127.073
 20
114.237
 11
126.902
 21
114.5
  0
LINE
  8
0
 10
126.902
 20
114.5
 11
126.759
 21
114.78
  0
LINE
  8
0
 10
126.759
 20
114.78
 11
126.647
 21
115.073
  0
LINE
  8
0
 10
126.647
 20
115.073
 11
126.566
 21
115.376
  0
LINE
  8
0
 10
126.566
 20
115.376
 11
126.516
 21
115.686
  0
LINE
  8
0
 10
126.516
 20
115.686
 11
126.5
 21
116
  0
LINE
  8
0
 10
126.5
 20
116
 11
126.516
 21
116.314
  0
LINE
  8
0
 10
126.516
 20
116.314
 11
126.566
 21
116.624
  0
LINE
  8
0
 10
126.566
 20
116.624
 11
126.647
 21
116.927
  0
LINE
  8
0
 10
126.647
 20
116.927
 11
126.759
 21
117.22
  0
LINE
  8
0
 10
126.759
 20
117.22
 11
126.902
 21
117.5
  0
LINE
  8
0
 10
126.902
 20
117.5
 11
127.073
 21
117.763
  0
LINE
  8
0
 10
127.073
 20
117.763
 11
127.271
 21
118.007
  0
LINE
  8
0
 10
127.271
 20
118.007
 11
127.493
 21
118.229
  0
LINE
  8
0
 10
127.493
 20
118.229
 11
127.737
 21
118.427
  0
LINE
  8
0
 10
127.737
 20
118.427
 11
128
 21
118.598
  0
LINE
  8
0
 10
128
 20
118.598
 11
128.28
 21
118.741
  0
LINE
  8
0
 10
128.28
 20
118.741
 11
128.573
 21
118.853
  0
LINE
  8
0
 10
128.573
 20
118.853
 11
128.876
 21
118.934
  0
LINE
  8
0
 10
128.876
 20
118.934
 11
129.186
 21
118.984
  0
LINE
  8
0
 10
129.186
 20
118.984
 11
129.5
 21
119
  0
LINE
  8
0
 10
129.5
 20
119
 11
129.814
 21
118.984
  0
LINE
  8
0
 10
129.814
 20
118.984
 11
130.124
 21
118.934
  0
LINE
  8
0
 10
130.124
 20
118.934
 11
130.427
 21
118.853
  0
LINE
  8
0
 10
130.427
 20
118.853
 11
130.72
 21
118.741
  0
LINE
  8
0
 10
130.72
 20
118.741
 11
131
 21
118.598
  0
LINE
  8
0
 10
131
 20
118.598
 11
131.263
 21
118.427
  0
LINE
  8
0
 10
131.263
 20
118.427
 11
131.507
 21
118.229
  0
LINE
  8
0
 10
131.507
 20
118.229
 11
131.729
 21
118.007
  0
LINE
  8
0
 10
131.729
 20
118.007
 11
131.927
 21
117.763
  0
LINE
  8
0
 10
131.927
 20
117.763
 11
132.098
 21
117.5
  0
LINE
  8
0
 10
132.098
 20
117.5
 11
132.241
 21
117.22
  0
LINE
  8
0
 10
132.241
 20
117.22
 11
132.353
 21
116.927
  0
LINE
  8
0
 10
132.353
 20
116.927
 11
132.434
 21
116.624
  0
LINE
  8
0
 10
132.434
 20
116.624
 11
132.484
 21
116.314
  0
LINE
  8
0
 10
132.484
 20
116.314
 11
132.5
 21
116
  0
LINE
  8
0
 10
132.5
 20
116
 11
132.484
 21
115.686
  0
LINE
  8
0
 10
132.484
 20
115.686
 11
132.434
 21
115.376
  0
LINE
  8
0
 10
132.434
 20
115.376
 11
132.353
 21
115.073
  0
LINE
  8
0
 10
132.353
 20
115.073
 11
132.241
 21
114.78
  0
LINE
  8
0
 10
132.241
 20
114.78
 11
132.098
 21
114.5
  0
LINE
  8
0
 10
132.098
 20
114.5
 11
131.927
 21
114.237
  0
LINE
  8
0
 10
131.927
 20
114.237
 11
131.729
 21
113.993
  0
LINE
  8
0
 10
131.729
 20
113.993
 11
131.507
 21
113.771
  0
LINE
  8
0
 10
131.507
 20
113.771
 11
131.263
 21
113.573
  0
LINE
  8
0
 10
131.263
 20
113.573
 11
131
 21
113.402
  0
LINE
  8
0
 10
131
 20
113.402
 11
130.72
 21
113.259
  0
LINE
  8
0
 10
130.72
 20
113.259
 11
130.427
 21
113.147
  0
LINE
  8
0
 10
130.427
 20
113.147
 11
130.124
 21
113.066
  0
LINE
  8
0
 10
130.124
 20
113.066
 11
129.814
 21
113.016
  0
LINE
  8
0
 10
129.814
 20
113.016
 11
129.5
 21
113
  0
LINE
  8
0
 10
129.5
 20
113
 11
129.186
 21
113.016
  0
LINE
  8
0
 10
-27.5663
 20
94.3138
 11
-27.8095
 21
94.3551
  0
LINE
  8
0
 10
-27.8095
 20
94.3551
 11
-28.0466
 21
94.4234
  0
LINE
  8
0
 10
-28.0466
 20
94.4234
 11
-28.2745
 21
94.5179
  0
LINE
  8
0
 10
-28.2745
 20
94.5179
 11
-28.4905
 21
94.6372
  0
LINE
  8
0
 10
-28.4905
 20
94.6372
 11
-28.6917
 21
94.78
  0
LINE
  8
0
 10
-28.6917
 20
94.78
 11
-28.8756
 21
94.9444
  0
LINE
  8
0
 10
-28.8756
 20
94.9444
 11
-29.04
 21
95.1283
  0
LINE
  8
0
 10
-29.04
 20
95.1283
 11
-29.1828
 21
95.3295
  0
LINE
  8
0
 10
-29.1828
 20
95.3295
 11
-29.3021
 21
95.5455
  0
LINE
  8
0
 10
-29.3021
 20
95.5455
 11
-29.3965
 21
95.7734
  0
LINE
  8
0
 10
-29.3965
 20
95.7734
 11
-29.4648
 21
96.0105
  0
LINE
  8
0
 10
-29.4648
 20
96.0105
 11
-29.5062
 21
96.2537
  0
LINE
  8
0
 10
-29.5062
 20
96.2537
 11
-29.52
 21
96.5
  0
LINE
  8
0
 10
-29.52
 20
96.5
 11
-29.5062
 21
96.7463
  0
LINE
  8
0
 10
-29.5062
 20
96.7463
 11
-29.4648
 21
96.9895
  0
LINE
  8
0
 10
-29.4648
 20
96.9895
 11
-29.3965
 21
97.2266
  0
LINE
  8
0
 10
-29.3965
 20
97.2266
 11
-29.3021
 21
97.4545
  0
LINE
  8
0
 10
-29.3021
 20
97.4545
 11
-29.1828
 21
97.6705
  0
LINE
  8
0
 10
-29.1828
 20
97.6705
 11
-29.04
 21
97.8717
  0
LINE
  8
0
 10
-29.04
 20
97.8717
 11
-28.8756
 21
98.0556
  0
LINE
  8
0
 10
-28.8756
 20
98.0556
 11
-28.6917
 21
98.22
  0
LINE
  8
0
 10
-28.6917
 20
98.22
 11
-28.4905
 21
98.3628
  0
LINE
  8
0
 10
-28.4905
 20
98.3628
 11
-28.2745
 21
98.4821
  0
LINE
  8
0
 10
-28.2745
 20
98.4821
 11
-28.0466
 21
98.5765
  0
LINE
  8
0
 10
-28.0466
 20
98.5765
 11
-27.8095
 21
98.6448
  0
LINE
  8
0
 10
-27.8095
 20
98.6448
 11
-27.5663
 21
98.6862
  0
LINE
  8
0
 10
-27.5663
 20
98.6862
 11
-27.32
 21
98.7
  0
LINE
  8
0
 10
-27.32
 20
98.7
 11
-27.0737
 21
98.6862
  0
LINE
  8
0
 10
-27.0737
 20
98.6862
 11
-26.8304
 21
98.6448
  0
LINE
  8
0
 10
-26.8304
 20
98.6448
 11
-26.5934
 21
98.5765
  0
LINE
  8
0
 10
-26.5934
 20
98.5765
 11
-26.3654
 21
98.4821
  0
LINE
  8
0
 10
-26.3654
 20
98.4821
 11
-26.1495
 21
98.3628
  0
LINE
  8
0
 10
-26.1495
 20
98.3628
 11
-25.9483
 21
98.22
  0
LINE
  8
0
 10
-25.9483
 20
98.22
 11
-25.7644
 21
98.0556
  0
LINE
  8
0
 10
-25.7644
 20
98.0556
 11
-25.6
 21
97.8717
  0
LINE
  8
0
 10
-25.6
 20
97.8717
 11
-25.4572
 21
97.6705
  0
LINE
  8
0
 10
-25.4572
 20
97.6705
 11
-25.3379
 21
97.4545
  0
LINE
  8
0
 10
-25.3379
 20
97.4545
 11
-25.2435
 21
97.2266
  0
LINE
  8
0
 10
-25.2435
 20
97.2266
 11
-25.1752
 21
96.9895
  0
LINE
  8
0
 10
-25.1752
 20
96.9895
 11
-25.1338
 21
96.7463
  0
LINE
  8
0
 10
-25.1338
 20
96.7463
 11
-25.12
 21
96.5
  0
LINE
  8
0
 10
-25.12
 20
96.5
 11
-25.1338
 21
96.2537
  0
LINE
  8
0
 10
-25.1338
 20
96.2537
 11
-25.1752
 21
96.0105
  0
LINE
  8
0
 10
-25.1752
 20
96.0105
 11
-25.2435
 21
95.7734
  0
LINE
  8
0
 10
-25.2435
 20
95.7734
 11
-25.3379
 21
95.5455
  0
LINE
  8
0
 10
-25.3379
 20
95.5455
 11
-25.4572
 21
95.3295
  0
LINE
  8
0
 10
-25.4572
 20
95.3295
 11
-25.6
 21
95.1283
  0
LINE
  8
0
 10
-25.6
 20
95.1283
 11
-25.7644
 21
94.9444
  0
LINE
  8
0
 10
-25.7644
 20
94.9444
 11
-25.9483
 21
94.78
  0
LINE
  8
0
 10
-25.9483
 20
94.78
 11
-26.1495
 21
94.6372
  0
LINE
  8
0
 10
-26.1495
 20
94.6372
 11
-26.3654
 21
94.5179
  0
LINE
  8
0
 10
-26.3654
 20
94.5179
 11
-26.5934
 21
94.4234
  0
LINE
  8
0
 10
-26.5934
 20
94.4234
 11
-26.8304
 21
94.3551
  0
LINE
  8
0
 10
-26.8304
 20
94.3551
 11
-27.0737
 21
94.3138
  0
LINE
  8
0
 10
-27.0737
 20
94.3138
 11
-27.32
 21
94.3
  0
LINE
  8
0
 10
-27.32
 20
94.3
 11
-27.5663
 21
94.3138
  0
LINE
  8
0
 10
-142.566
 20
94.3138
 11
-142.81
 21
94.3551
  0
LINE
  8
0
 10
-142.81
 20
94.3551
 11
-143.047
 21
94.4234
  0
LINE
  8
0
 10
-143.047
 20
94.4234
 11
-143.275
 21
94.5179
  0
LINE
  8
0
 10
-143.275
 20
94.5179
 11
-143.49
 21
94.6372
  0
LINE
  8
0
 10
-143.49
 20
94.6372
 11
-143.692
 21
94.78
  0
LINE
  8
0
 10
-143.692
 20
94.78
 11
-143.876
 21
94.9444
  0
LINE
  8
0
 10
-143.876
 20
94.9444
 11
-144.04
 21
95.1283
  0
LINE
  8
0
 10
-144.04
 20
95.1283
 11
-144.183
 21
95.3295
  0
LINE
  8
0
 10
-144.183
 20
95.3295
 11
-144.302
 21
95.5455
  0
LINE
  8
0
 10
-144.302
 20
95.5455
 11
-144.397
 21
95.7734
  0
LINE
  8
0
 10
-144.397
 20
95.7734
 11
-144.465
 21
96.0105
  0
LINE
  8
0
 10
-144.465
 20
96.0105
 11
-144.506
 21
96.2537
  0
LINE
  8
0
 10
-144.506
 20
96.2537
 11
-144.52
 21
96.5
  0
LINE
  8
0
 10
-144.52
 20
96.5
 11
-144.506
 21
96.7463
  0
LINE
  8
0
 10
-144.506
 20
96.7463
 11
-144.465
 21
96.9895
  0
LINE
  8
0
 10
-144.465
 20
96.9895
 11
-144.397
 21
97.2266
  0
LINE
  8
0
 10
-144.397
 20
97.2266
 11
-144.302
 21
97.4545
  0
LINE
  8
0
 10
-144.302
 20
97.4545
 11
-144.183
 21
97.6705
  0
LINE
  8
0
 10
-144.183
 20
97.6705
 11
-144.04
 21
97.8717
  0
LINE
  8
0
 10
-144.04
 20
97.8717
 11
-143.876
 21
98.0556
  0
LINE
  8
0
 10
-143.876
 20
98.0556
 11
-143.692
 21
98.22
  0
LINE
  8
0
 10
-143.692
 20
98.22
 11
-143.49
 21
98.3628
  0
LINE
  8
0
 10
-143.49
 20
98.3628
 11
-143.275
 21
98.4821
  0
LINE
  8
0
 10
-143.275
 20
98.4821
 11
-143.047
 21
98.5765
  0
LINE
  8
0
 10
-143.047
 20
98.5765
 11
-142.81
 21
98.6448
  0
LINE
  8
0
 10
-142.81
 20
98.6448
 11
-142.566
 21
98.6862
  0
LINE
  8
0
 10
-142.566
 20
98.6862
 11
-142.32
 21
98.7
  0
LINE
  8
0
 10
-142.32
 20
98.7
 11
-142.074
 21
98.6862
  0
LINE
  8
0
 10
-142.074
 20
98.6862
 11
-141.83
 21
98.6448
  0
LINE
  8
0
 10
-141.83
 20
98.6448
 11
-141.593
 21
98.5765
  0
LINE
  8
0
 10
-141.593
 20
98.5765
 11
-141.365
 21
98.4821
  0
LINE
  8
0
 10
-141.365
 20
98.4821
 11
-141.15
 21
98.3628
  0
LINE
  8
0
 10
-141.15
 20
98.3628
 11
-140.948
 21
98.22
  0
LINE
  8
0
 10
-140.948
 20
98.22
 11
-140.764
 21
98.0556
  0
LINE
  8
0
 10
-140.764
 20
98.0556
 11
-140.6
 21
97.8717
  0
LINE
  8
0
 10
-140.6
 20
97.8717
 11
-140.457
 21
97.6705
  0
LINE
  8
0
 10
-140.457
 20
97.6705
 11
-140.338
 21
97.4545
  0
LINE
  8
0
 10
-140.338
 20
97.4545
 11
-140.243
 21
97.2266
  0
LINE
  8
0
 10
-140.243
 20
97.2266
 11
-140.175
 21
96.9895
  0
LINE
  8
0
 10
-140.175
 20
96.9895
 11
-140.134
 21
96.7463
  0
LINE
  8
0
 10
-140.134
 20
96.7463
 11
-140.12
 21
96.5
  0
LINE
  8
0
 10
-140.12
 20
96.5
 11
-140.134
 21
96.2537
  0
LINE
  8
0
 10
-140.134
 20
96.2537
 11
-140.175
 21
96.0105
  0
LINE
  8
0
 10
-140.175
 20
96.0105
 11
-140.243
 21
95.7734
  0
LINE
  8
0
 10
-140.243
 20
95.7734
 11
-140.338
 21
95.5455
  0
LINE
  8
0
 10
-140.338
 20
95.5455
 11
-140.457
 21
95.3295
  0
LINE
  8
0
 10
-140.457
 20
95.3295
 11
-140.6
 21
95.1283
  0
LINE
  8
0
 10
-140.6
 20
95.1283
 11
-140.764
 21
94.9444
  0
LINE
  8
0
 10
-140.764
 20
94.9444
 11
-140.948
 21
94.78
  0
LINE
  8
0
 10
-140.948
 20
94.78
 11
-141.15
 21
94.6372
  0
LINE
  8
0
 10
-141.15
 20
94.6372
 11
-141.365
 21
94.5179
  0
LINE
  8
0
 10
-141.365
 20
94.5179
 11
-141.593
 21
94.4234
  0
LINE
  8
0
 10
-141.593
 20
94.4234
 11
-141.83
 21
94.3551
  0
LINE
  8
0
 10
-141.83
 20
94.3551
 11
-142.074
 21
94.3138
  0
LINE
  8
0
 10
-142.074
 20
94.3138
 11
-142.32
 21
94.3
  0
LINE
  8
0
 10
-142.32
 20
94.3
 11
-142.566
 21
94.3138
  0
LINE
  8
0
 10
219.691
 20
84.5783
 11
219.451
 21
84.6411
  0
LINE
  8
0
 10
219.451
 20
84.6411
 11
219.223
 21
84.7381
  0
LINE
  8
0
 10
219.223
 20
84.7381
 11
219.011
 21
84.8674
  0
LINE
  8
0
 10
219.011
 20
84.8674
 11
218.82
 21
85.0262
  0
LINE
  8
0
 10
218.82
 20
85.0262
 11
218.654
 21
85.211
  0
LINE
  8
0
 10
218.654
 20
85.211
 11
218.518
 21
85.418
  0
LINE
  8
0
 10
218.518
 20
85.418
 11
218.412
 21
85.6427
  0
LINE
  8
0
 10
218.412
 20
85.6427
 11
218.341
 21
85.8804
  0
LINE
  8
0
 10
218.341
 20
85.8804
 11
218.305
 21
86.1259
  0
LINE
  8
0
 10
218.305
 20
86.1259
 11
218.305
 21
86.3741
  0
LINE
  8
0
 10
218.305
 20
86.3741
 11
218.341
 21
86.6196
  0
LINE
  8
0
 10
218.341
 20
86.6196
 11
218.412
 21
86.8573
  0
LINE
  8
0
 10
218.412
 20
86.8573
 11
218.518
 21
87.082
  0
LINE
  8
0
 10
218.518
 20
87.082
 11
218.654
 21
87.289
  0
LINE
  8
0
 10
218.654
 20
87.289
 11
218.82
 21
87.4738
  0
LINE
  8
0
 10
218.82
 20
87.4738
 11
219.011
 21
87.6326
  0
LINE
  8
0
 10
219.011
 20
87.6326
 11
219.223
 21
87.7619
  0
LINE
  8
0
 10
219.223
 20
87.7619
 11
219.451
 21
87.8589
  0
LINE
  8
0
 10
219.451
 20
87.8589
 11
219.691
 21
87.9217
  0
LINE
  8
0
 10
219.691
 20
87.9217
 11
219.938
 21
87.9489
  0
LINE
  8
0
 10
219.938
 20
87.9489
 11
220.186
 21
87.9398
  0
LINE
  8
0
 10
220.186
 20
87.9398
 11
220.43
 21
87.8947
  0
LINE
  8
0
 10
220.43
 20
87.8947
 11
220.665
 21
87.8146
  0
LINE
  8
0
 10
220.665
 20
87.8146
 11
220.886
 21
87.7011
  0
LINE
  8
0
 10
220.886
 20
87.7011
 11
221.087
 21
87.5567
  0
LINE
  8
0
 10
221.087
 20
87.5567
 11
221.266
 21
87.3844
  0
LINE
  8
0
 10
221.266
 20
87.3844
 11
221.418
 21
87.188
  0
LINE
  8
0
 10
221.418
 20
87.188
 11
221.539
 21
86.9716
  0
LINE
  8
0
 10
221.539
 20
86.9716
 11
221.628
 21
86.7398
  0
LINE
  8
0
 10
221.628
 20
86.7398
 11
221.682
 21
86.4975
  0
LINE
  8
0
 10
221.682
 20
86.4975
 11
221.7
 21
86.25
  0
LINE
  8
0
 10
221.7
 20
86.25
 11
221.682
 21
86.0025
  0
LINE
  8
0
 10
221.682
 20
86.0025
 11
221.628
 21
85.7602
  0
LINE
  8
0
 10
221.628
 20
85.7602
 11
221.539
 21
85.5284
  0
LINE
  8
0
 10
221.539
 20
85.5284
 11
221.418
 21
85.312
  0
LINE
  8
0
 10
221.418
 20
85.312
 11
221.266
 21
85.1156
  0
LINE
  8
0
 10
221.266
 20
85.1156
 11
221.087
 21
84.9433
  0
LINE
  8
0
 10
221.087
 20
84.9433
 11
220.886
 21
84.7989
  0
LINE
  8
0
 10
220.886
 20
84.7989
 11
220.665
 21
84.6854
  0
LINE
  8
0
 10
220.665
 20
84.6854
 11
220.43
 21
84.6053
  0
LINE
  8
0
 10
220.43
 20
84.6053
 11
220.186
 21
84.5602
  0
LINE
  8
0
 10
220.186
 20
84.5602
 11
219.938
 21
84.5511
  0
LINE
  8
0
 10
219.938
 20
84.5511
 11
219.691
 21
84.5783
  0
LINE
  8
0
 10
-220.186
 20
84.5602
 11
-220.43
 21
84.6053
  0
LINE
  8
0
 10
-220.43
 20
84.6053
 11
-220.665
 21
84.6854
  0
LINE
  8
0
 10
-220.665
 20
84.6854
 11
-220.886
 21
84.7989
  0
LINE
  8
0
 10
-220.886
 20
84.7989
 11
-221.087
 21
84.9433
  0
LINE
  8
0
 10
-221.087
 20
84.9433
 11
-221.266
 21
85.1156
  0
LINE
  8
0
 10
-221.266
 20
85.1156
 11
-221.418
 21
85.312
  0
LINE
  8
0
 10
-221.418
 20
85.312
 11
-221.539
 21
85.5284
  0
LINE
  8
0
 10
-221.539
 20
85.5284
 11
-221.628
 21
85.7602
  0
LINE
  8
0
 10
-221.628
 20
85.7602
 11
-221.682
 21
86.0025
  0
LINE
  8
0
 10
-221.682
 20
86.0025
 11
-221.7
 21
86.25
  0
LINE
  8
0
 10
-221.7
 20
86.25
 11
-221.682
 21
86.4975
  0
LINE
  8
0
 10
-221.682
 20
86.4975
 11
-221.628
 21
86.7398
  0
LINE
  8
0
 10
-221.628
 20
86.7398
 11
-221.539
 21
86.9716
  0
LINE
  8
0
 10
-221.539
 20
86.9716
 11
-221.418
 21
87.188
  0
LINE
  8
0
 10
-221.418
 20
87.188
 11
-221.266
 21
87.3844
  0
LINE
  8
0
 10
-221.266
 20
87.3844
 11
-221.087
 21
87.5567
  0
LINE
  8
0
 10
-221.087
 20
87.5567
 11
-220.886
 21
87.7011
  0
LINE
  8
0
 10
-220.886
 20
87.7011
 11
-220.665
 21
87.8146
  0
LINE
  8
0
 10
-220.665
 20
87.8146
 11
-220.43
 21
87.8947
  0
LINE
  8
0
 10
-220.43
 20
87.8947
 11
-220.186
 21
87.9398
  0
LINE
  8
0
 10
-220.186
 20
87.9398
 11
-219.938
 21
87.9489
  0
LINE
  8
0
 10
-219.938
 20
87.9489
 11
-219.691
 21
87.9217
  0
LINE
  8
0
 10
-219.691
 20
87.9217
 11
-219.451
 21
87.8589
  0
LINE
  8
0
 10
-219.451
 20
87.8589
 11
-219.223
 21
87.7619
  0
LINE
  8
0
 10
-219.223
 20
87.7619
 11
-219.011
 21
87.6326
  0
LINE
  8
0
 10
-219.011
 20
87.6326
 11
-218.82
 21
87.4738
  0
LINE
  8
0
 10
-218.82
 20
87.4738
 11
-218.654
 21
87.289
  0
LINE
  8
0
 10
-218.654
 20
87.289
 11
-218.518
 21
87.082
  0
LINE
  8
0
 10
-218.518
 20
87.082
 11
-218.412
 21
86.8573
  0
LINE
  8
0
 10
-218.412
 20
86.8573
 11
-218.341
 21
86.6196
  0
LINE
  8
0
 10
-218.341
 20
86.6196
 11
-218.305
 21
86.3741
  0
LINE
  8
0
 10
-218.305
 20
86.3741
 11
-218.305
 21
86.1259
  0
LINE
  8
0
 10
-218.305
 20
86.1259
 11
-218.341
 21
85.8804
  0
LINE
  8
0
 10
-218.341
 20
85.8804
 11
-218.412
 21
85.6427
  0
LINE
  8
0
 10
-218.412
 20
85.6427
 11
-218.518
 21
85.418
  0
LINE
  8
0
 10
-218.518
 20
85.418
 11
-218.654
 21
85.211
  0
LINE
  8
0
 10
-218.654
 20
85.211
 11
-218.82
 21
85.0262
  0
LINE
  8
0
 10
-218.82
 20
85.0262
 11
-219.011
 21
84.8674
  0
LINE
  8
0
 10
-219.011
 20
84.8674
 11
-219.223
 21
84.7381
  0
LINE
  8
0
 10
-219.223
 20
84.7381
 11
-219.451
 21
84.6411
  0
LINE
  8
0
 10
-219.451
 20
84.6411
 11
-219.691
 21
84.5783
  0
LINE
  8
0
 10
-219.691
 20
84.5783
 11
-219.938
 21
84.5511
  0
LINE
  8
0
 10
-219.938
 20
84.5511
 11
-220.186
 21
84.5602
  0
LINE
  8
0
 10
-142.566
 20
2.31383
 11
-142.81
 21
2.35515
  0
LINE
  8
0
 10
-142.81
 20
2.35515
 11
-143.047
 21
2.42345
  0
LINE
  8
0
 10
-143.047
 20
2.42345
 11
-143.275
 21
2.51787
  0
LINE
  8
0
 10
-143.275
 20
2.51787
 11
-143.49
 21
2.63721
  0
LINE
  8
0
 10
-143.49
 20
2.63721
 11
-143.692
 21
2.77997
  0
LINE
  8
0
 10
-143.692
 20
2.77997
 11
-143.876
 21
2.94435
  0
LINE
  8
0
 10
-143.876
 20
2.94435
 11
-144.04
 21
3.12831
  0
LINE
  8
0
 10
-144.04
 20
3.12831
 11
-144.183
 21
3.32953
  0
LINE
  8
0
 10
-144.183
 20
3.32953
 11
-144.302
 21
3.54546
  0
LINE
  8
0
 10
-144.302
 20
3.54546
 11
-144.397
 21
3.77338
  0
LINE
  8
0
 10
-144.397
 20
3.77338
 11
-144.465
 21
4.01045
  0
LINE
  8
0
 10
-144.465
 20
4.01045
 11
-144.506
 21
4.25368
  0
LINE
  8
0
 10
-144.506
 20
4.25368
 11
-144.52
 21
4.5
  0
LINE
  8
0
 10
-144.52
 20
4.5
 11
-144.506
 21
4.74632
  0
LINE
  8
0
 10
-144.506
 20
4.74632
 11
-144.465
 21
4.98953
  0
LINE
  8
0
 10
-144.465
 20
4.98953
 11
-144.397
 21
5.22661
  0
LINE
  8
0
 10
-144.397
 20
5.22661
 11
-144.302
 21
5.45454
  0
LINE
  8
0
 10
-144.302
 20
5.45454
 11
-144.183
 21
5.67047
  0
LINE
  8
0
 10
-144.183
 20
5.67047
 11
-144.04
 21
5.87167
  0
LINE
  8
0
 10
-144.04
 20
5.87167
 11
-143.876
 21
6.05563
  0
LINE
  8
0
 10
-143.876
 20
6.05563
 11
-143.692
 21
6.22002
  0
LINE
  8
0
 10
-143.692
 20
6.22002
 11
-143.49
 21
6.36279
  0
LINE
  8
0
 10
-143.49
 20
6.36279
 11
-143.275
 21
6.48213
  0
LINE
  8
0
 10
-143.275
 20
6.48213
 11
-143.047
 21
6.57654
  0
LINE
  8
0
 10
-143.047
 20
6.57654
 11
-142.81
 21
6.64484
  0
LINE
  8
0
 10
-142.81
 20
6.64484
 11
-142.566
 21
6.68616
  0
LINE
  8
0
 10
-142.566
 20
6.68616
 11
-142.32
 21
6.7
  0
LINE
  8
0
 10
-142.32
 20
6.7
 11
-142.074
 21
6.68616
  0
LINE
  8
0
 10
-142.074
 20
6.68616
 11
-141.83
 21
6.64484
  0
LINE
  8
0
 10
-141.83
 20
6.64484
 11
-141.593
 21
6.57654
  0
LINE
  8
0
 10
-141.593
 20
6.57654
 11
-141.365
 21
6.48213
  0
LINE
  8
0
 10
-141.365
 20
6.48213
 11
-141.15
 21
6.36279
  0
LINE
  8
0
 10
-141.15
 20
6.36279
 11
-140.948
 21
6.22002
  0
LINE
  8
0
 10
-140.948
 20
6.22002
 11
-140.764
 21
6.05563
  0
LINE
  8
0
 10
-140.764
 20
6.05563
 11
-140.6
 21
5.87167
  0
LINE
  8
0
 10
-140.6
 20
5.87167
 11
-140.457
 21
5.67047
  0
LINE
  8
0
 10
-140.457
 20
5.67047
 11
-140.338
 21
5.45454
  0
LINE
  8
0
 10
-140.338
 20
5.45454
 11
-140.243
 21
5.22661
  0
LINE
  8
0
 10
-140.243
 20
5.22661
 11
-140.175
 21
4.98953
  0
LINE
  8
0
 10
-140.175
 20
4.98953
 11
-140.134
 21
4.74632
  0
LINE
  8
0
 10
-140.134
 20
4.74632
 11
-140.12
 21
4.5
  0
LINE
  8
0
 10
-140.12
 20
4.5
 11
-140.134
 21
4.25368
  0
LINE
  8
0
 10
-140.134
 20
4.25368
 11
-140.175
 21
4.01045
  0
LINE
  8
0
 10
-140.175
 20
4.01045
 11
-140.243
 21
3.77338
  0
LINE
  8
0
 10
-140.243
 20
3.77338
 11
-140.338
 21
3.54546
  0
LINE
  8
0
 10
-140.338
 20
3.54546
 11
-140.457
 21
3.32953
  0
LINE
  8
0
 10
-140.457
 20
3.32953
 11
-140.6
 21
3.12831
  0
LINE
  8
0
 10
-140.6
 20
3.12831
 11
-140.764
 21
2.94435
  0
LINE
  8
0
 10
-140.764
 20
2.94435
 11
-140.948
 21
2.77997
  0
LINE
  8
0
 10
-140.948
 20
2.77997
 11
-141.15
 21
2.63721
  0
LINE
  8
0
 10
-141.15
 20
2.63721
 11
-141.365
 21
2.51787
  0
LINE
  8
0
 10
-141.365
 20
2.51787
 11
-141.593
 21
2.42345
  0
LINE
  8
0
 10
-141.593
 20
2.42345
 11
-141.83
 21
2.35515
  0
LINE
  8
0
 10
-141.83
 20
2.35515
 11
-142.074
 21
2.31383
  0
LINE
  8
0
 10
-142.074
 20
2.31383
 11
-142.32
 21
2.29999
  0
LINE
  8
0
 10
-142.32
 20
2.29999
 11
-142.566
 21
2.31383
  0
LINE
  8
0
 10
-27.5663
 20
2.31383
 11
-27.8095
 21
2.35515
  0
LINE
  8
0
 10
-27.8095
 20
2.35515
 11
-28.0466
 21
2.42345
  0
LINE
  8
0
 10
-28.0466
 20
2.42345
 11
-28.2745
 21
2.51787
  0
LINE
  8
0
 10
-28.2745
 20
2.51787
 11
-28.4905
 21
2.63721
  0
LINE
  8
0
 10
-28.4905
 20
2.63721
 11
-28.6917
 21
2.77997
  0
LINE
  8
0
 10
-28.6917
 20
2.77997
 11
-28.8756
 21
2.94435
  0
LINE
  8
0
 10
-28.8756
 20
2.94435
 11
-29.04
 21
3.12831
  0
LINE
  8
0
 10
-29.04
 20
3.12831
 11
-29.1828
 21
3.32953
  0
LINE
  8
0
 10
-29.1828
 20
3.32953
 11
-29.3021
 21
3.54546
  0
LINE
  8
0
 10
-29.3021
 20
3.54546
 11
-29.3965
 21
3.77338
  0
LINE
  8
0
 10
-29.3965
 20
3.77338
 11
-29.4648
 21
4.01045
  0
LINE
  8
0
 10
-29.4648
 20
4.01045
 11
-29.5062
 21
4.25368
  0
LINE
  8
0
 10
-29.5062
 20
4.25368
 11
-29.52
 21
4.5
  0
LINE
  8
0
 10
-29.52
 20
4.5
 11
-29.5062
 21
4.74632
  0
LINE
  8
0
 10
-29.5062
 20
4.74632
 11
-29.4648
 21
4.98953
  0
LINE
  8
0
 10
-29.4648
 20
4.98953
 11
-29.3965
 21
5.22661
  0
LINE
  8
0
 10
-29.3965
 20
5.22661
 11
-29.3021
 21
5.45454
  0
LINE
  8
0
 10
-29.3021
 20
5.45454
 11
-29.1828
 21
5.67047
  0
LINE
  8
0
 10
-29.1828
 20
5.67047
 11
-29.04
 21
5.87167
  0
LINE
  8
0
 10
-29.04
 20
5.87167
 11
-28.8756
 21
6.05563
  0
LINE
  8
0
 10
-28.8756
 20
6.05563
 11
-28.6917
 21
6.22002
  0
LINE
  8
0
 10
-28.6917
 20
6.22002
 11
-28.4905
 21
6.36279
  0
LINE
  8
0
 10
-28.4905
 20
6.36279
 11
-28.2745
 21
6.48213
  0
LINE
  8
0
 10
-28.2745
 20
6.48213
 11
-28.0466
 21
6.57654
  0
LINE
  8
0
 10
-28.0466
 20
6.57654
 11
-27.8095
 21
6.64484
  0
LINE
  8
0
 10
-27.8095
 20
6.64484
 11
-27.5663
 21
6.68616
  0
LINE
  8
0
 10
-27.5663
 20
6.68616
 11
-27.32
 21
6.7
  0
LINE
  8
0
 10
-27.32
 20
6.7
 11
-27.0737
 21
6.68616
  0
LINE
  8
0
 10
-27.0737
 20
6.68616
 11
-26.8304
 21
6.64484
  0
LINE
  8
0
 10
-26.8304
 20
6.64484
 11
-26.5934
 21
6.57654
  0
LINE
  8
0
 10
-26.5934
 20
6.57654
 11
-26.3654
 21
6.48213
  0
LINE
  8
0
 10
-26.3654
 20
6.48213
 11
-26.1495
 21
6.36279
  0
LINE
  8
0
 10
-26.1495
 20
6.36279
 11
-25.9483
 21
6.22002
  0
LINE
  8
0
 10
-25.9483
 20
6.22002
 11
-25.7644
 21
6.05563
  0
LINE
  8
0
 10
-25.7644
 20
6.05563
 11
-25.6
 21
5.87167
  0
LINE
  8
0
 10
-25.6
 20
5.87167
 11
-25.4572
 21
5.67047
  0
LINE
  8
0
 10
-25.4572
 20
5.67047
 11
-25.3379
 21
5.45454
  0
LINE
  8
0
 10
-25.3379
 20
5.45454
 11
-25.2435
 21
5.22661
  0
LINE
  8
0
 10
-25.2435
 20
5.22661
 11
-25.1752
 21
4.98953
  0
LINE
  8
0
 10
-25.1752
 20
4.98953
 11
-25.1338
 21
4.74632
  0
LINE
  8
0
 10
-25.1338
 20
4.74632
 11
-25.12
 21
4.5
  0
LINE
  8
0
 10
-25.12
 20
4.5
 11
-25.1338
 21
4.25368
  0
LINE
  8
0
 10
-25.1338
 20
4.25368
 11
-25.1752
 21
4.01045
  0
LINE
  8
0
 10
-25.1752
 20
4.01045
 11
-25.2435
 21
3.77338
  0
LINE
  8
0
 10
-25.2435
 20
3.77338
 11
-25.3379
 21
3.54546
  0
LINE
  8
0
 10
-25.3379
 20
3.54546
 11
-25.4572
 21
3.32953
  0
LINE
  8
0
 10
-25.4572
 20
3.32953
 11
-25.6
 21
3.12831
  0
LINE
  8
0
 10
-25.6
 20
3.12831
 11
-25.7644
 21
2.94435
  0
LINE
  8
0
 10
-25.7644
 20
2.94435
 11
-25.9483
 21
2.77997
  0
LINE
  8
0
 10
-25.9483
 20
2.77997
 11
-26.1495
 21
2.63721
  0
LINE
  8
0
 10
-26.1495
 20
2.63721
 11
-26.3654
 21
2.51787
  0
LINE
  8
0
 10
-26.3654
 20
2.51787
 11
-26.5934
 21
2.42345
  0
LINE
  8
0
 10
-26.5934
 20
2.42345
 11
-26.8304
 21
2.35515
  0
LINE
  8
0
 10
-26.8304
 20
2.35515
 11
-27.0737
 21
2.31383
  0
LINE
  8
0
 10
-27.0737
 20
2.31383
 11
-27.32
 21
2.29999
  0
LINE
  8
0
 10
-27.32
 20
2.29999
 11
-27.5663
 21
2.31383
  0
LINE
  8
0
 10
219.691
 20
-1.67171
 11
219.451
 21
-1.60893
  0
LINE
  8
0
 10
219.451
 20
-1.60893
 11
219.223
 21
-1.51187
  0
LINE
  8
0
 10
219.223
 20
-1.51187
 11
219.011
 21
-1.38258
  0
LINE
  8
0
 10
219.011
 20
-1.38258
 11
218.82
 21
-1.22383
  0
LINE
  8
0
 10
218.82
 20
-1.22383
 11
218.654
 21
-1.03899
  0
LINE
  8
0
 10
218.654
 20
-1.03899
 11
218.518
 21
-0.832001
  0
LINE
  8
0
 10
218.518
 20
-0.832001
 11
218.412
 21
-0.607285
  0
LINE
  8
0
 10
218.412
 20
-0.607285
 11
218.341
 21
-0.369629
  0
LINE
  8
0
 10
218.341
 20
-0.369629
 11
218.305
 21
-0.124084
  0
LINE
  8
0
 10
218.305
 20
-0.124084
 11
218.305
 21
0.124084
  0
LINE
  8
0
 10
218.305
 20
0.124084
 11
218.341
 21
0.369629
  0
LINE
  8
0
 10
218.341
 20
0.369629
 11
218.412
 21
0.607285
  0
LINE
  8
0
 10
218.412
 20
0.607285
 11
218.518
 21
0.832001
  0
LINE
  8
0
 10
218.518
 20
0.832001
 11
218.654
 21
1.03899
  0
LINE
  8
0
 10
218.654
 20
1.03899
 11
218.82
 21
1.22383
  0
LINE
  8
0
 10
218.82
 20
1.22383
 11
219.011
 21
1.38258
  0
LINE
  8
0
 10
219.011
 20
1.38258
 11
219.223
 21
1.51187
  0
LINE
  8
0
 10
219.223
 20
1.51187
 11
219.451
 21
1.60893
  0
LINE
  8
0
 10
219.451
 20
1.60893
 11
219.691
 21
1.67171
  0
LINE
  8
0
 10
219.691
 20
1.67171
 11
219.938
 21
1.69885
  0
LINE
  8
0
 10
219.938
 20
1.69885
 11
220.186
 21
1.68979
  0
LINE
  8
0
 10
220.186
 20
1.68979
 11
220.43
 21
1.64471
  0
LINE
  8
0
 10
220.43
 20
1.64471
 11
220.665
 21
1.56458
  0
LINE
  8
0
 10
220.665
 20
1.56458
 11
220.886
 21
1.4511
  0
LINE
  8
0
 10
220.886
 20
1.4511
 11
221.087
 21
1.30669
  0
LINE
  8
0
 10
221.087
 20
1.30669
 11
221.266
 21
1.13443
  0
LINE
  8
0
 10
221.266
 20
1.13443
 11
221.418
 21
0.938004
  0
LINE
  8
0
 10
221.418
 20
0.938004
 11
221.539
 21
0.721573
  0
LINE
  8
0
 10
221.539
 20
0.721573
 11
221.628
 21
0.489761
  0
LINE
  8
0
 10
221.628
 20
0.489761
 11
221.682
 21
0.247513
  0
LINE
  8
0
 10
221.682
 20
0.247513
 11
221.7
 21
0
  0
LINE
  8
0
 10
221.7
 20
0
 11
221.682
 21
-0.247513
  0
LINE
  8
0
 10
221.682
 20
-0.247513
 11
221.628
 21
-0.489761
  0
LINE
  8
0
 10
221.628
 20
-0.489761
 11
221.539
 21
-0.721573
  0
LINE
  8
0
 10
221.539
 20
-0.721573
 11
221.418
 21
-0.938004
  0
LINE
  8
0
 10
221.418
 20
-0.938004
 11
221.266
 21
-1.13443
  0
LINE
  8
0
 10
221.266
 20
-1.13443
 11
221.087
 21
-1.30669
  0
LINE
  8
0
 10
221.087
 20
-1.30669
 11
220.886
 21
-1.4511
  0
LINE
  8
0
 10
220.886
 20
-1.4511
 11
220.665
 21
-1.56458
  0
LINE
  8
0
 10
220.665
 20
-1.56458
 11
220.43
 21
-1.64471
  0
LINE
  8
0
 10
220.43
 20
-1.64471
 11
220.186
 21
-1.68979
  0
LINE
  8
0
 10
220.186
 20
-1.68979
 11
219.938
 21
-1.69885
  0
LINE
  8
0
 10
219.938
 20
-1.69885
 11
219.691
 21
-1.67171
  0
LINE
  8
0
 10
-220.186
 20
-1.68979
 11
-220.43
 21
-1.64471
  0
LINE
  8
0
 10
-220.43
 20
-1.64471
 11
-220.665
 21
-1.56458
  0
LINE
  8
0
 10
-220.665
 20
-1.56458
 11
-220.886
 21
-1.4511
  0
LINE
  8
0
 10
-220.886
 20
-1.4511
 11
-221.087
 21
-1.30669
  0
LINE
  8
0
 10
-221.087
 20
-1.30669
 11
-221.266
 21
-1.13443
  0
LINE
  8
0
 10
-221.266
 20
-1.13443
 11
-221.418
 21
-0.938004
  0
LINE
  8
0
 10
-221.418
 20
-0.938004
 11
-221.539
 21
-0.721573
  0
LINE
  8
0
 10
-221.539
 20
-0.721573
 11
-221.628
 21
-0.489761
  0
LINE
  8
0
 10
-221.628
 20
-0.489761
 11
-221.682
 21
-0.247513
  0
LINE
  8
0
 10
-221.682
 20
-0.247513
 11
-221.7
 21
0
  0
LINE
  8
0
 10
-221.7
 20
0
 11
-221.682
 21
0.247513
  0
LINE
  8
0
 10
-221.682
 20
0.247513
 11
-221.628
 21
0.489761
  0
LINE
  8
0
 10
-221.628
 20
0.489761
 11
-221.539
 21
0.721573
  0
LINE
  8
0
 10
-221.539
 20
0.721573
 11
-221.418
 21
0.938004
  0
LINE
  8
0
 10
-221.418
 20
0.938004
 11
-221.266
 21
1.13443
  0
LINE
  8
0
 10
-221.266
 20
1.13443
 11
-221.087
 21
1.30669
  0
LINE
  8
0
 10
-221.087
 20
1.30669
 11
-220.886
 21
1.4511
  0
LINE
  8
0
 10
-220.886
 20
1.4511
 11
-220.665
 21
1.56458
  0
LINE
  8
0
 10
-220.665
 20
1.56458
 11
-220.43
 21
1.64471
  0
LINE
  8
0
 10
-220.43
 20
1.64471
 11
-220.186
 21
1.68979
  0
LINE
  8
0
 10
-220.186
 20
1.68979
 11
-219.938
 21
1.69885
  0
LINE
  8
0
 10
-219.938
 20
1.69885
 11
-219.691
 21
1.67171
  0
LINE
  8
0
 10
-219.691
 20
1.67171
 11
-219.451
 21
1.60893
  0
LINE
  8
0
 10
-219.451
 20
1.60893
 11
-219.223
 21
1.51187
  0
LINE
  8
0
 10
-219.223
 20
1.51187
 11
-219.011
 21
1.38258
  0
LINE
  8
0
 10
-219.011
 20
1.38258
 11
-218.82
 21
1.22383
  0
LINE
  8
0
 10
-218.82
 20
1.22383
 11
-218.654
 21
1.03899
  0
LINE
  8
0
 10
-218.654
 20
1.03899
 11
-218.518
 21
0.832001
  0
LINE
  8
0
 10
-218.518
 20
0.832001
 11
-218.412
 21
0.607285
  0
LINE
  8
0
 10
-218.412
 20
0.607285
 11
-218.341
 21
0.369629
  0
LINE
  8
0
 10
-218.341
 20
0.369629
 11
-218.305
 21
0.124084
  0
LINE
  8
0
 10
-218.305
 20
0.124084
 11
-218.305
 21
-0.124084
  0
LINE
  8
0
 10
-218.305
 20
-0.124084
 11
-218.341
 21
-0.369629
  0
LINE
  8
0
 10
-218.341
 20
-0.369629
 11
-218.412
 21
-0.607285
  0
LINE
  8
0
 10
-218.412
 20
-0.607285
 11
-218.518
 21
-0.832001
  0
LINE
  8
0
 10
-218.518
 20
-0.832001
 11
-218.654
 21
-1.03899
  0
LINE
  8
0
 10
-218.654
 20
-1.03899
 11
-218.82
 21
-1.22383
  0
LINE
  8
0
 10
-218.82
 20
-1.22383
 11
-219.011
 21
-1.38258
  0
LINE
  8
0
 10
-219.011
 20
-1.38258
 11
-219.223
 21
-1.51187
  0
LINE
  8
0
 10
-219.223
 20
-1.51187
 11
-219.451
 21
-1.60893
  0
LINE
  8
0
 10
-219.451
 20
-1.60893
 11
-219.691
 21
-1.67171
  0
LINE
  8
0
 10
-219.691
 20
-1.67171
 11
-219.938
 21
-1.69885
  0
LINE
  8
0
 10
-219.938
 20
-1.69885
 11
-220.186
 21
-1.68979
  0
LINE
  8
0
 10
44.1864
 20
-11.9836
 11
43.8763
 21
-11.9344
  0
LINE
  8
0
 10
43.8763
 20
-11.9344
 11
43.5729
 21
-11.8532
  0
LINE
  8
0
 10
43.5729
 20
-11.8532
 11
43.2798
 21
-11.7406
  0
LINE
  8
0
 10
43.2798
 20
-11.7406
 11
43
 21
-11.5981
  0
LINE
  8
0
 10
43
 20
-11.5981
 11
42.7366
 21
-11.427
  0
LINE
  8
0
 10
42.7366
 20
-11.427
 11
42.4926
 21
-11.2294
  0
LINE
  8
0
 10
42.4926
 20
-11.2294
 11
42.2706
 21
-11.0074
  0
LINE
  8
0
 10
42.2706
 20
-11.0074
 11
42.0729
 21
-10.7634
  0
LINE
  8
0
 10
42.0729
 20
-10.7634
 11
41.9019
 21
-10.5
  0
LINE
  8
0
 10
41.9019
 20
-10.5
 11
41.7594
 21
-10.2202
  0
LINE
  8
0
 10
41.7594
 20
-10.2202
 11
41.6468
 21
-9.92705
  0
LINE
  8
0
 10
41.6468
 20
-9.92705
 11
41.5656
 21
-9.62373
  0
LINE
  8
0
 10
41.5656
 20
-9.62373
 11
41.5164
 21
-9.31358
  0
LINE
  8
0
 10
41.5164
 20
-9.31358
 11
41.5
 21
-9
  0
LINE
  8
0
 10
41.5
 20
-9
 11
41.5164
 21
-8.6864
  0
LINE
  8
0
 10
41.5164
 20
-8.6864
 11
41.5656
 21
-8.37625
  0
LINE
  8
0
 10
41.5656
 20
-8.37625
 11
41.6468
 21
-8.07294
  0
LINE
  8
0
 10
41.6468
 20
-8.07294
 11
41.7594
 21
-7.77979
  0
LINE
  8
0
 10
41.7594
 20
-7.77979
 11
41.9019
 21
-7.5
  0
LINE
  8
0
 10
41.9019
 20
-7.5
 11
42.0729
 21
-7.23663
  0
LINE
  8
0
 10
42.0729
 20
-7.23663
 11
42.2706
 21
-6.9926
  0
LINE
  8
0
 10
42.2706
 20
-6.9926
 11
42.4926
 21
-6.77055
  0
LINE
  8
0
 10
42.4926
 20
-6.77055
 11
42.7366
 21
-6.57294
  0
LINE
  8
0
 10
42.7366
 20
-6.57294
 11
43
 21
-6.40192
  0
LINE
  8
0
 10
43
 20
-6.40192
 11
43.2798
 21
-6.25935
  0
LINE
  8
0
 10
43.2798
 20
-6.25935
 11
43.5729
 21
-6.14682
  0
LINE
  8
0
 10
43.5729
 20
-6.14682
 11
43.8763
 21
-6.06555
  0
LINE
  8
0
 10
43.8763
 20
-6.06555
 11
44.1864
 21
-6.01643
  0
LINE
  8
0
 10
44.1864
 20
-6.01643
 11
44.5
 21
-6
  0
LINE
  8
0
 10
44.5
 20
-6
 11
44.8136
 21
-6.01643
  0
LINE
  8
0
 10
44.8136
 20
-6.01643
 11
45.1237
 21
-6.06555
  0
LINE
  8
0
 10
45.1237
 20
-6.06555
 11
45.427
 21
-6.14682
  0
LINE
  8
0
 10
45.427
 20
-6.14682
 11
45.7202
 21
-6.25935
  0
LINE
  8
0
 10
45.7202
 20
-6.25935
 11
46
 21
-6.40192
  0
LINE
  8
0
 10
46
 20
-6.40192
 11
46.2634
 21
-6.57294
  0
LINE
  8
0
 10
46.2634
 20
-6.57294
 11
46.5074
 21
-6.77055
  0
LINE
  8
0
 10
46.5074
 20
-6.77055
 11
46.7294
 21
-6.9926
  0
LINE
  8
0
 10
46.7294
 20
-6.9926
 11
46.927
 21
-7.23663
  0
LINE
  8
0
 10
46.927
 20
-7.23663
 11
47.0981
 21
-7.5
  0
LINE
  8
0
 10
47.0981
 20
-7.5
 11
47.2406
 21
-7.77979
  0
LINE
  8
0
 10
47.2406
 20
-7.77979
 11
47.3532
 21
-8.07294
  0
LINE
  8
0
 10
47.3532
 20
-8.07294
 11
47.4344
 21
-8.37625
  0
LINE
  8
0
 10
47.4344
 20
-8.37625
 11
47.4836
 21
-8.6864
  0
LINE
  8
0
 10
47.4836
 20
-8.6864
 11
47.5
 21
-9
  0
LINE
  8
0
 10
47.5
 20
-9
 11
47.4836
 21
-9.31358
  0
LINE
  8
0
 10
47.4836
 20
-9.31358
 11
47.4344
 21
-9.62373
  0
LINE
  8
0
 10
47.4344
 20
-9.62373
 11
47.3532
 21
-9.92705
  0
LINE
  8
0
 10
47.3532
 20
-9.92705
 11
47.2406
 21
-10.2202
  0
LINE
  8
0
 10
47.2406
 20
-10.2202
 11
47.0981
 21
-10.5
  0
LINE
  8
0
 10
47.0981
 20
-10.5
 11
46.927
 21
-10.7634
  0
LINE
  8
0
 10
46.927
 20
-10.7634
 11
46.7294
 21
-11.0074
  0
LINE
  8
0
 10
46.7294
 20
-11.0074
 11
46.5074
 21
-11.2294
  0
LINE
  8
0
 10
46.5074
 20
-11.2294
 11
46.2634
 21
-11.427
  0
LINE
  8
0
 10
46.2634
 20
-11.427
 11
46
 21
-11.5981
  0
LINE
  8
0
 10
46
 20
-11.5981
 11
45.7202
 21
-11.7406
  0
LINE
  8
0
 10
45.7202
 20
-11.7406
 11
45.427
 21
-11.8532
  0
LINE
  8
0
 10
45.427
 20
-11.8532
 11
45.1237
 21
-11.9344
  0
LINE
  8
0
 10
45.1237
 20
-11.9344
 11
44.8136
 21
-11.9836
  0
LINE
  8
0
 10
44.8136
 20
-11.9836
 11
44.5
 21
-12
  0
LINE
  8
0
 10
44.5
 20
-12
 11
44.1864
 21
-11.9836
  0
LINE
  8
0
 10
129.186
 20
-11.9836
 11
128.876
 21
-11.9344
  0
LINE
  8
0
 10
128.876
 20
-11.9344
 11
128.573
 21
-11.8532
  0
LINE
  8
0
 10
128.573
 20
-11.8532
 11
128.28
 21
-11.7406
  0
LINE
  8
0
 10
128.28
 20
-11.7406
 11
128
 21
-11.5981
  0
LINE
  8
0
 10
128
 20
-11.5981
 11
127.737
 21
-11.427
  0
LINE
  8
0
 10
127.737
 20
-11.427
 11
127.493
 21
-11.2294
  0
LINE
  8
0
 10
127.493
 20
-11.2294
 11
127.271
 21
-11.0074
  0
LINE
  8
0
 10
127.271
 20
-11.0074
 11
127.073
 21
-10.7634
  0
LINE
  8
0
 10
127.073
 20
-10.7634
 11
126.902
 21
-10.5
  0
LINE
  8
0
 10
126.902
 20
-10.5
 11
126.759
 21
-10.2202
  0
LINE
  8
0
 10
126.759
 20
-10.2202
 11
126.647
 21
-9.92705
  0
LINE
  8
0
 10
126.647
 20
-9.92705
 11
126.566
 21
-9.62373
  0
LINE
  8
0
 10
126.566
 20
-9.62373
 11
126.516
 21
-9.31358
  0
LINE
  8
0
 10
126.516
 20
-9.31358
 11
126.5
 21
-9
  0
LINE
  8
0
 10
126.5
 20
-9
 11
126.516
 21
-8.6864
  0
LINE
  8
0
 10
126.516
 20
-8.6864
 11
126.566
 21
-8.37625
  0
LINE
  8
0
 10
126.566
 20
-8.37625
 11
126.647
 21
-8.07294
  0
LINE
  8
0
 10
126.647
 20
-8.07294
 11
126.759
 21
-7.77979
  0
LINE
  8
0
 10
126.759
 20
-7.77979
 11
126.902
 21
-7.5
  0
LINE
  8
0
 10
126.902
 20
-7.5
 11
127.073
 21
-7.23663
  0
LINE
  8
0
 10
127.073
 20
-7.23663
 11
127.271
 21
-6.9926
  0
LINE
  8
0
 10
127.271
 20
-6.9926
 11
127.493
 21
-6.77055
  0
LINE
  8
0
 10
127.493
 20
-6.77055
 11
127.737
 21
-6.57294
  0
LINE
  8
0
 10
127.737
 20
-6.57294
 11
128
 21
-6.40192
  0
LINE
  8
0
 10
128
 20
-6.40192
 11
128.28
 21
-6.25935
  0
LINE
  8
0
 10
128.28
 20
-6.25935
 11
128.573
 21
-6.14682
  0
LINE
  8
0
 10
128.573
 20
-6.14682
 11
128.876
 21
-6.06555
  0
LINE
  8
0
 10
128.876
 20
-6.06555
 11
129.186
 21
-6.01643
  0
LINE
  8
0
 10
129.186
 20
-6.01643
 11
129.5
 21
-6
  0
LINE
  8
0
 10
129.5
 20
-6
 11
129.814
 21
-6.01643
  0
LINE
  8
0
 10
129.814
 20
-6.01643
 11
130.124
 21
-6.06555
  0
LINE
  8
0
 10
130.124
 20
-6.06555
 11
130.427
 21
-6.14682
  0
LINE
  8
0
 10
130.427
 20
-6.14682
 11
130.72
 21
-6.25935
  0
LINE
  8
0
 10
130.72
 20
-6.25935
 11
131
 21
-6.40192
  0
LINE
  8
0
 10
131
 20
-6.40192
 11
131.263
 21
-6.57294
  0
LINE
  8
0
 10
131.263
 20
-6.57294
 11
131.507
 21
-6.77055
  0
LINE
  8
0
 10
131.507
 20
-6.77055
 11
131.729
 21
-6.9926
  0
LINE
  8
0
 10
131.729
 20
-6.9926
 11
131.927
 21
-7.23663
  0
LINE
  8
0
 10
131.927
 20
-7.23663
 11
132.098
 21
-7.5
  0
LINE
  8
0
 10
132.098
 20
-7.5
 11
132.241
 21
-7.77979
  0
LINE
  8
0
 10
132.241
 20
-7.77979
 11
132.353
 21
-8.07294
  0
LINE
  8
0
 10
132.353
 20
-8.07294
 11
132.434
 21
-8.37625
  0
LINE
  8
0
 10
132.434
 20
-8.37625
 11
132.484
 21
-8.6864
  0
LINE
  8
0
 10
132.484
 20
-8.6864
 11
132.5
 21
-9
  0
LINE
  8
0
 10
132.5
 20
-9
 11
132.484
 21
-9.31358
  0
LINE
  8
0
 10
132.484
 20
-9.31358
 11
132.434
 21
-9.62373
  0
LINE
  8
0
 10
132.434
 20
-9.62373
 11
132.353
 21
-9.92705
  0
LINE
  8
0
 10
132.353
 20
-9.92705
 11
132.241
 21
-10.2202
  0
LINE
  8
0
 10
132.241
 20
-10.2202
 11
132.098
 21
-10.5
  0
LINE
  8
0
 10
132.098
 20
-10.5
 11
131.927
 21
-10.7634
  0
LINE
  8
0
 10
131.927
 20
-10.7634
 11
131.729
 21
-11.0074
  0
LINE
  8
0
 10
131.729
 20
-11.0074
 11
131.507
 21
-11.2294
  0
LINE
  8
0
 10
131.507
 20
-11.2294
 11
131.263
 21
-11.427
  0
LINE
  8
0
 10
131.263
 20
-11.427
 11
131
 21
-11.5981
  0
LINE
  8
0
 10
131
 20
-11.5981
 11
130.72
 21
-11.7406
  0
LINE
  8
0
 10
130.72
 20
-11.7406
 11
130.427
 21
-11.8532
  0
LINE
  8
0
 10
130.427
 20
-11.8532
 11
130.124
 21
-11.9344
  0
LINE
  8
0
 10
130.124
 20
-11.9344
 11
129.814
 21
-11.9836
  0
LINE
  8
0
 10
129.814
 20
-11.9836
 11
129.5
 21
-12
  0
LINE
  8
0
 10
129.5
 20
-12
 11
129.186
 21
-11.9836
  0
LINE
  8
0
 10
-27.5663
 20
-15.6862
 11
-27.8095
 21
-15.6448
  0
LINE
  8
0
 10
-27.8095
 20
-15.6448
 11
-28.0466
 21
-15.5765
  0
LINE
  8
0
 10
-28.0466
 20
-15.5765
 11
-28.2745
 21
-15.4821
  0
LINE
  8
0
 10
-28.2745
 20
-15.4821
 11
-28.4905
 21
-15.3628
  0
LINE
  8
0
 10
-28.4905
 20
-15.3628
 11
-28.6917
 21
-15.22
  0
LINE
  8
0
 10
-28.6917
 20
-15.22
 11
-28.8756
 21
-15.0556
  0
LINE
  8
0
 10
-28.8756
 20
-15.0556
 11
-29.04
 21
-14.8717
  0
LINE
  8
0
 10
-29.04
 20
-14.8717
 11
-29.1828
 21
-14.6705
  0
LINE
  8
0
 10
-29.1828
 20
-14.6705
 11
-29.3021
 21
-14.4545
  0
LINE
  8
0
 10
-29.3021
 20
-14.4545
 11
-29.3965
 21
-14.2266
  0
LINE
  8
0
 10
-29.3965
 20
-14.2266
 11
-29.4648
 21
-13.9895
  0
LINE
  8
0
 10
-29.4648
 20
-13.9895
 11
-29.5062
 21
-13.7463
  0
LINE
  8
0
 10
-29.5062
 20
-13.7463
 11
-29.52
 21
-13.5
  0
LINE
  8
0
 10
-29.52
 20
-13.5
 11
-29.5062
 21
-13.2537
  0
LINE
  8
0
 10
-29.5062
 20
-13.2537
 11
-29.4648
 21
-13.0105
  0
LINE
  8
0
 10
-29.4648
 20
-13.0105
 11
-29.3965
 21
-12.7734
  0
LINE
  8
0
 10
-29.3965
 20
-12.7734
 11
-29.3021
 21
-12.5455
  0
LINE
  8
0
 10
-29.3021
 20
-12.5455
 11
-29.1828
 21
-12.3295
  0
LINE
  8
0
 10
-29.1828
 20
-12.3295
 11
-29.04
 21
-12.1283
  0
LINE
  8
0
 10
-29.04
 20
-12.1283
 11
-28.8756
 21
-11.9444
  0
LINE
  8
0
 10
-28.8756
 20
-11.9444
 11
-28.6917
 21
-11.78
  0
LINE
  8
0
 10
-28.6917
 20
-11.78
 11
-28.4905
 21
-11.6372
  0
LINE
  8
0
 10
-28.4905
 20
-11.6372
 11
-28.2745
 21
-11.5179
  0
LINE
  8
0
 10
-28.2745
 20
-11.5179
 11
-28.0466
 21
-11.4234
  0
LINE
  8
0
 10
-28.0466
 20
-11.4234
 11
-27.8095
 21
-11.3551
  0
LINE
  8
0
 10
-27.8095
 20
-11.3551
 11
-27.5663
 21
-11.3138
  0
LINE
  8
0
 10
-27.5663
 20
-11.3138
 11
-27.32
 21
-11.3
  0
LINE
  8
0
 10
-27.32
 20
-11.3
 11
-27.0737
 21
-11.3138
  0
LINE
  8
0
 10
-27.0737
 20
-11.3138
 11
-26.8304
 21
-11.3551
  0
LINE
  8
0
 10
-26.8304
 20
-11.3551
 11
-26.5934
 21
-11.4234
  0
LINE
  8
0
 10
-26.5934
 20
-11.4234
 11
-26.3654
 21
-11.5179
  0
LINE
  8
0
 10
-26.3654
 20
-11.5179
 11
-26.1495
 21
-11.6372
  0
LINE
  8
0
 10
-26.1495
 20
-11.6372
 11
-25.9483
 21
-11.78
  0
LINE
  8
0
 10
-25.9483
 20
-11.78
 11
-25.7644
 21
-11.9444
  0
LINE
  8
0
 10
-25.7644
 20
-11.9444
 11
-25.6
 21
-12.1283
  0
LINE
  8
0
 10
-25.6
 20
-12.1283
 11
-25.4572
 21
-12.3295
  0
LINE
  8
0
 10
-25.4572
 20
-12.3295
 11
-25.3379
 21
-12.5455
  0
LINE
  8
0
 10
-25.3379
 20
-12.5455
 11
-25.2435
 21
-12.7734
  0
LINE
  8
0
 10
-25.2435
 20
-12.7734
 11
-25.1752
 21
-13.0105
  0
LINE
  8
0
 10
-25.1752
 20
-13.0105
 11
-25.1338
 21
-13.2537
  0
LINE
  8
0
 10
-25.1338
 20
-13.2537
 11
-25.12
 21
-13.5
  0
LINE
  8
0
 10
-25.12
 20
-13.5
 11
-25.1338
 21
-13.7463
  0
LINE
  8
0
 10
-25.1338
 20
-13.7463
 11
-25.1752
 21
-13.9895
  0
LINE
  8
0
 10
-25.1752
 20
-13.9895
 11
-25.2435
 21
-14.2266
  0
LINE
  8
0
 10
-25.2435
 20
-14.2266
 11
-25.3379
 21
-14.4545
  0
LINE
  8
0
 10
-25.3379
 20
-14.4545
 11
-25.4572
 21
-14.6705
  0
LINE
  8
0
 10
-25.4572
 20
-14.6705
 11
-25.6
 21
-14.8717
  0
LINE
  8
0
 10
-25.6
 20
-14.8717
 11
-25.7644
 21
-15.0556
  0
LINE
  8
0
 10
-25.7644
 20
-15.0556
 11
-25.9483
 21
-15.22
  0
LINE
  8
0
 10
-25.9483
 20
-15.22
 11
-26.1495
 21
-15.3628
  0
LINE
  8
0
 10
-26.1495
 20
-15.3628
 11
-26.3654
 21
-15.4821
  0
LINE
  8
0
 10
-26.3654
 20
-15.4821
 11
-26.5934
 21
-15.5765
  0
LINE
  8
0
 10
-26.5934
 20
-15.5765
 11
-26.8304
 21
-15.6448
  0
LINE
  8
0
 10
-26.8304
 20
-15.6448
 11
-27.0737
 21
-15.6862
  0
LINE
  8
0
 10
-27.0737
 20
-15.6862
 11
-27.32
 21
-15.7
  0
LINE
  8
0
 10
-27.32
 20
-15.7
 11
-27.5663
 21
-15.6862
  0
LINE
  8
0
 10
-142.566
 20
-15.6862
 11
-142.81
 21
-15.6448
  0
LINE
  8
0
 10
-142.81
 20
-15.6448
 11
-143.047
 21
-15.5765
  0
LINE
  8
0
 10
-143.047
 20
-15.5765
 11
-143.275
 21
-15.4821
  0
LINE
  8
0
 10
-143.275
 20
-15.4821
 11
-143.49
 21
-15.3628
  0
LINE
  8
0
 10
-143.49
 20
-15.3628
 11
-143.692
 21
-15.22
  0
LINE
  8
0
 10
-143.692
 20
-15.22
 11
-143.876
 21
-15.0556
  0
LINE
  8
0
 10
-143.876
 20
-15.0556
 11
-144.04
 21
-14.8717
  0
LINE
  8
0
 10
-144.04
 20
-14.8717
 11
-144.183
 21
-14.6705
  0
LINE
  8
0
 10
-144.183
 20
-14.6705
 11
-144.302
 21
-14.4545
  0
LINE
  8
0
 10
-144.302
 20
-14.4545
 11
-144.397
 21
-14.2266
  0
LINE
  8
0
 10
-144.397
 20
-14.2266
 11
-144.465
 21
-13.9895
  0
LINE
  8
0
 10
-144.465
 20
-13.9895
 11
-144.506
 21
-13.7463
  0
LINE
  8
0
 10
-144.506
 20
-13.7463
 11
-144.52
 21
-13.5
  0
LINE
  8
0
 10
-144.52
 20
-13.5
 11
-144.506
 21
-13.2537
  0
LINE
  8
0
 10
-144.506
 20
-13.2537
 11
-144.465
 21
-13.0105
  0
LINE
  8
0
 10
-144.465
 20
-13.0105
 11
-144.397
 21
-12.7734
  0
LINE
  8
0
 10
-144.397
 20
-12.7734
 11
-144.302
 21
-12.5455
  0
LINE
  8
0
 10
-144.302
 20
-12.5455
 11
-144.183
 21
-12.3295
  0
LINE
  8
0
 10
-144.183
 20
-12.3295
 11
-144.04
 21
-12.1283
  0
LINE
  8
0
 10
-144.04
 20
-12.1283
 11
-143.876
 21
-11.9444
  0
LINE
  8
0
 10
-143.876
 20
-11.9444
 11
-143.692
 21
-11.78
  0
LINE
  8
0
 10
-143.692
 20
-11.78
 11
-143.49
 21
-11.6372
  0
LINE
  8
0
 10
-143.49
 20
-11.6372
 11
-143.275
 21
-11.5179
  0
LINE
  8
0
 10
-143.275
 20
-11.5179
 11
-143.047
 21
-11.4234
  0
LINE
  8
0
 10
-143.047
 20
-11.4234
 11
-142.81
 21
-11.3551
  0
LINE
  8
0
 10
-142.81
 20
-11.3551
 11
-142.566
 21
-11.3138
  0
LINE
  8
0
 10
-142.566
 20
-11.3138
 11
-142.32
 21
-11.3
  0
LINE
  8
0
 10
-142.32
 20
-11.3
 11
-142.074
 21
-11.3138
  0
LINE
  8
0
 10
-142.074
 20
-11.3138
 11
-141.83
 21
-11.3551
  0
LINE
  8
0
 10
-141.83
 20
-11.3551
 11
-141.593
 21
-11.4234
  0
LINE
  8
0
 10
-141.593
 20
-11.4234
 11
-141.365
 21
-11.5179
  0
LINE
  8
0
 10
-141.365
 20
-11.5179
 11
-141.15
 21
-11.6372
  0
LINE
  8
0
 10
-141.15
 20
-11.6372
 11
-140.948
 21
-11.78
  0
LINE
  8
0
 10
-140.948
 20
-11.78
 11
-140.764
 21
-11.9444
  0
LINE
  8
0
 10
-140.764
 20
-11.9444
 11
-140.6
 21
-12.1283
  0
LINE
  8
0
 10
-140.6
 20
-12.1283
 11
-140.457
 21
-12.3295
  0
LINE
  8
0
 10
-140.457
 20
-12.3295
 11
-140.338
 21
-12.5455
  0
LINE
  8
0
 10
-140.338
 20
-12.5455
 11
-140.243
 21
-12.7734
  0
LINE
  8
0
 10
-140.243
 20
-12.7734
 11
-140.175
 21
-13.0105
  0
LINE
  8
0
 10
-140.175
 20
-13.0105
 11
-140.134
 21
-13.2537
  0
LINE
  8
0
 10
-140.134
 20
-13.2537
 11
-140.12
 21
-13.5
  0
LINE
  8
0
 10
-140.12
 20
-13.5
 11
-140.134
 21
-13.7463
  0
LINE
  8
0
 10
-140.134
 20
-13.7463
 11
-140.175
 21
-13.9895
  0
LINE
  8
0
 10
-140.175
 20
-13.9895
 11
-140.243
 21
-14.2266
  0
LINE
  8
0
 10
-140.243
 20
-14.2266
 11
-140.338
 21
-14.4545
  0
LINE
  8
0
 10
-140.338
 20
-14.4545
 11
-140.457
 21
-14.6705
  0
LINE
  8
0
 10
-140.457
 20
-14.6705
 11
-140.6
 21
-14.8717
  0
LINE
  8
0
 10
-140.6
 20
-14.8717
 11
-140.764
 21
-15.0556
  0
LINE
  8
0
 10
-140.764
 20
-15.0556
 11
-140.948
 21
-15.22
  0
LINE
  8
0
 10
-140.948
 20
-15.22
 11
-141.15
 21
-15.3628
  0
LINE
  8
0
 10
-141.15
 20
-15.3628
 11
-141.365
 21
-15.4821
  0
LINE
  8
0
 10
-141.365
 20
-15.4821
 11
-141.593
 21
-15.5765
  0
LINE
  8
0
 10
-141.593
 20
-15.5765
 11
-141.83
 21
-15.6448
  0
LINE
  8
0
 10
-141.83
 20
-15.6448
 11
-142.074
 21
-15.6862
  0
LINE
  8
0
 10
-142.074
 20
-15.6862
 11
-142.32
 21
-15.7
  0
LINE
  8
0
 10
-142.32
 20
-15.7
 11
-142.566
 21
-15.6862
  0
LINE
  8
0
 10
-220.186
 20
-87.9398
 11
-220.43
 21
-87.8947
  0
LINE
  8
0
 10
-220.43
 20
-87.8947
 11
-220.665
 21
-87.8146
  0
LINE
  8
0
 10
-220.665
 20
-87.8146
 11
-220.886
 21
-87.7011
  0
LINE
  8
0
 10
-220.886
 20
-87.7011
 11
-221.087
 21
-87.5567
  0
LINE
  8
0
 10
-221.087
 20
-87.5567
 11
-221.266
 21
-87.3844
  0
LINE
  8
0
 10
-221.266
 20
-87.3844
 11
-221.418
 21
-87.188
  0
LINE
  8
0
 10
-221.418
 20
-87.188
 11
-221.539
 21
-86.9716
  0
LINE
  8
0
 10
-221.539
 20
-86.9716
 11
-221.628
 21
-86.7398
  0
LINE
  8
0
 10
-221.628
 20
-86.7398
 11
-221.682
 21
-86.4975
  0
LINE
  8
0
 10
-221.682
 20
-86.4975
 11
-221.7
 21
-86.25
  0
LINE
  8
0
 10
-221.7
 20
-86.25
 11
-221.682
 21
-86.0025
  0
LINE
  8
0
 10
-221.682
 20
-86.0025
 11
-221.628
 21
-85.7602
  0
LINE
  8
0
 10
-221.628
 20
-85.7602
 11
-221.539
 21
-85.5284
  0
LINE
  8
0
 10
-221.539
 20
-85.5284
 11
-221.418
 21
-85.312
  0
LINE
  8
0
 10
-221.418
 20
-85.312
 11
-221.266
 21
-85.1156
  0
LINE
  8
0
 10
-221.266
 20
-85.1156
 11
-221.087
 21
-84.9433
  0
LINE
  8
0
 10
-221.087
 20
-84.9433
 11
-220.886
 21
-84.7989
  0
LINE
  8
0
 10
-220.886
 20
-84.7989
 11
-220.665
 21
-84.6854
  0
LINE
  8
0
 10
-220.665
 20
-84.6854
 11
-220.43
 21
-84.6053
  0
LINE
  8
0
 10
-220.43
 20
-84.6053
 11
-220.186
 21
-84.5602
  0
LINE
  8
0
 10
-220.186
 20
-84.5602
 11
-219.938
 21
-84.5511
  0
LINE
  8
0
 10
-219.938
 20
-84.5511
 11
-219.691
 21
-84.5783
  0
LINE
  8
0
 10
-219.691
 20
-84.5783
 11
-219.451
 21
-84.6411
  0
LINE
  8
0
 10
-219.451
 20
-84.6411
 11
-219.223
 21
-84.7381
  0
LINE
  8
0
 10
-219.223
 20
-84.7381
 11
-219.011
 21
-84.8674
  0
LINE
  8
0
 10
-219.011
 20
-84.8674
 11
-218.82
 21
-85.0262
  0
LINE
  8
0
 10
-218.82
 20
-85.0262
 11
-218.654
 21
-85.211
  0
LINE
  8
0
 10
-218.654
 20
-85.211
 11
-218.518
 21
-85.418
  0
LINE
  8
0
 10
-218.518
 20
-85.418
 11
-218.412
 21
-85.6427
  0
LINE
  8
0
 10
-218.412
 20
-85.6427
 11
-218.341
 21
-85.8804
  0
LINE
  8
0
 10
-218.341
 20
-85.8804
 11
-218.305
 21
-86.1259
  0
LINE
  8
0
 10
-218.305
 20
-86.1259
 11
-218.305
 21
-86.3741
  0
LINE
  8
0
 10
-218.305
 20
-86.3741
 11
-218.341
 21
-86.6196
  0
LINE
  8
0
 10
-218.341
 20
-86.6196
 11
-218.412
 21
-86.8573
  0
LINE
  8
0
 10
-218.412
 20
-86.8573
 11
-218.518
 21
-87.082
  0
LINE
  8
0
 10
-218.518
 20
-87.082
 11
-218.654
 21
-87.289
  0
LINE
  8
0
 10
-218.654
 20
-87.289
 11
-218.82
 21
-87.4738
  0
LINE
  8
0
 10
-218.82
 20
-87.4738
 11
-219.011
 21
-87.6326
  0
LINE
  8
0
 10
-219.011
 20
-87.6326
 11
-219.223
 21
-87.7619
  0
LINE
  8
0
 10
-219.223
 20
-87.7619
 11
-219.451
 21
-87.8589
  0
LINE
  8
0
 10
-219.451
 20
-87.8589
 11
-219.691
 21
-87.9217
  0
LINE
  8
0
 10
-219.691
 20
-87.9217
 11
-219.938
 21
-87.9489
  0
LINE
  8
0
 10
-219.938
 20
-87.9489
 11
-220.186
 21
-87.9398
  0
LINE
  8
0
 10
219.691
 20
-87.9217
 11
219.451
 21
-87.8589
  0
LINE
  8
0
 10
219.451
 20
-87.8589
 11
219.223
 21
-87.7619
  0
LINE
  8
0
 10
219.223
 20
-87.7619
 11
219.011
 21
-87.6326
  0
LINE
  8
0
 10
219.011
 20
-87.6326
 11
218.82
 21
-87.4738
  0
LINE
  8
0
 10
218.82
 20
-87.4738
 11
218.654
 21
-87.289
  0
LINE
  8
0
 10
218.654
 20
-87.289
 11
218.518
 21
-87.082
  0
LINE
  8
0
 10
218.518
 20
-87.082
 11
218.412
 21
-86.8573
  0
LINE
  8
0
 10
218.412
 20
-86.8573
 11
218.341
 21
-86.6196
  0
LINE
  8
0
 10
218.341
 20
-86.6196
 11
218.305
 21
-86.3741
  0
LINE
  8
0
 10
218.305
 20
-86.3741
 11
218.305
 21
-86.1259
  0
LINE
  8
0
 10
218.305
 20
-86.1259
 11
218.341
 21
-85.8804
  0
LINE
  8
0
 10
218.341
 20
-85.8804
 11
218.412
 21
-85.6427
  0
LINE
  8
0
 10
218.412
 20
-85.6427
 11
218.518
 21
-85.418
  0
LINE
  8
0
 10
218.518
 20
-85.418
 11
218.654
 21
-85.211
  0
LINE
  8
0
 10
218.654
 20
-85.211
 11
218.82
 21
-85.0262
  0
LINE
  8
0
 10
218.82
 20
-85.0262
 11
219.011
 21
-84.8674
  0
LINE
  8
0
 10
219.011
 20
-84.8674
 11
219.223
 21
-84.7381
  0
LINE
  8
0
 10
219.223
 20
-84.7381
 11
219.451
 21
-84.6411
  0
LINE
  8
0
 10
219.451
 20
-84.6411
 11
219.691
 21
-84.5783
  0
LINE
  8
0
 10
219.691
 20
-84.5783
 11
219.938
 21
-84.5511
  0
LINE
  8
0
 10
219.938
 20
-84.5511
 11
220.186
 21
-84.5602
  0
LINE
  8
0
 10
220.186
 20
-84.5602
 11
220.43
 21
-84.6053
  0
LINE
  8
0
 10
220.43
 20
-84.6053
 11
220.665
 21
-84.6854
  0
LINE
  8
0
 10
220.665
 20
-84.6854
 11
220.886
 21
-84.7989
  0
LINE
  8
0
 10
220.886
 20
-84.7989
 11
221.087
 21
-84.9433
  0
LINE
  8
0
 10
221.087
 20
-84.9433
 11
221.266
 21
-85.1156
  0
LINE
  8
0
 10
221.266
 20
-85.1156
 11
221.418
 21
-85.312
  0
LINE
  8
0
 10
221.418
 20
-85.312
 11
221.539
 21
-85.5284
  0
LINE
  8
0
 10
221.539
 20
-85.5284
 11
221.628
 21
-85.7602
  0
LINE
  8
0
 10
221.628
 20
-85.7602
 11
221.682
 21
-86.0025
  0
LINE
  8
0
 10
221.682
 20
-86.0025
 11
221.7
 21
-86.25
  0
LINE
  8
0
 10
221.7
 20
-86.25
 11
221.682
 21
-86.4975
  0
LINE
  8
0
 10
221.682
 20
-86.4975
 11
221.628
 21
-86.7398
  0
LINE
  8
0
 10
221.628
 20
-86.7398
 11
221.539
 21
-86.9716
  0
LINE
  8
0
 10
221.539
 20
-86.9716
 11
221.418
 21
-87.188
  0
LINE
  8
0
 10
221.418
 20
-87.188
 11
221.266
 21
-87.3844
  0
LINE
  8
0
 10
221.266
 20
-87.3844
 11
221.087
 21
-87.5567
  0
LINE
  8
0
 10
221.087
 20
-87.5567
 11
220.886
 21
-87.7011
  0
LINE
  8
0
 10
220.886
 20
-87.7011
 11
220.665
 21
-87.8146
  0
LINE
  8
0
 10
220.665
 20
-87.8146
 11
220.43
 21
-87.8947
  0
LINE
  8
0
 10
220.43
 20
-87.8947
 11
220.186
 21
-87.9398
  0
LINE
  8
0
 10
220.186
 20
-87.9398
 11
219.938
 21
-87.9489
  0
LINE
  8
0
 10
219.938
 20
-87.9489
 11
219.691
 21
-87.9217
  0
LINE
  8
0
 10
-27.5663
 20
-107.686
 11
-27.8095
 21
-107.645
  0
LINE
  8
0
 10
-27.8095
 20
-107.645
 11
-28.0466
 21
-107.577
  0
LINE
  8
0
 10
-28.0466
 20
-107.577
 11
-28.2745
 21
-107.482
  0
LINE
  8
0
 10
-28.2745
 20
-107.482
 11
-28.4905
 21
-107.363
  0
LINE
  8
0
 10
-28.4905
 20
-107.363
 11
-28.6917
 21
-107.22
  0
LINE
  8
0
 10
-28.6917
 20
-107.22
 11
-28.8756
 21
-107.056
  0
LINE
  8
0
 10
-28.8756
 20
-107.056
 11
-29.04
 21
-106.872
  0
LINE
  8
0
 10
-29.04
 20
-106.872
 11
-29.1828
 21
-106.67
  0
LINE
  8
0
 10
-29.1828
 20
-106.67
 11
-29.3021
 21
-106.455
  0
LINE
  8
0
 10
-29.3021
 20
-106.455
 11
-29.3965
 21
-106.227
  0
LINE
  8
0
 10
-29.3965
 20
-106.227
 11
-29.4648
 21
-105.99
  0
LINE
  8
0
 10
-29.4648
 20
-105.99
 11
-29.5062
 21
-105.746
  0
LINE
  8
0
 10
-29.5062
 20
-105.746
 11
-29.52
 21
-105.5
  0
LINE
  8
0
 10
-29.52
 20
-105.5
 11
-29.5062
 21
-105.254
  0
LINE
  8
0
 10
-29.5062
 20
-105.254
 11
-29.4648
 21
-105.01
  0
LINE
  8
0
 10
-29.4648
 20
-105.01
 11
-29.3965
 21
-104.773
  0
LINE
  8
0
 10
-29.3965
 20
-104.773
 11
-29.3021
 21
-104.545
  0
LINE
  8
0
 10
-29.3021
 20
-104.545
 11
-29.1828
 21
-104.33
  0
LINE
  8
0
 10
-29.1828
 20
-104.33
 11
-29.04
 21
-104.128
  0
LINE
  8
0
 10
-29.04
 20
-104.128
 11
-28.8756
 21
-103.944
  0
LINE
  8
0
 10
-28.8756
 20
-103.944
 11
-28.6917
 21
-103.78
  0
LINE
  8
0
 10
-28.6917
 20
-103.78
 11
-28.4905
 21
-103.637
  0
LINE
  8
0
 10
-28.4905
 20
-103.637
 11
-28.2745
 21
-103.518
  0
LINE
  8
0
 10
-28.2745
 20
-103.518
 11
-28.0466
 21
-103.423
  0
LINE
  8
0
 10
-28.0466
 20
-103.423
 11
-27.8095
 21
-103.355
  0
LINE
  8
0
 10
-27.8095
 20
-103.355
 11
-27.5663
 21
-103.314
  0
LINE
  8
0
 10
-27.5663
 20
-103.314
 11
-27.32
 21
-103.3
  0
LINE
  8
0
 10
-27.32
 20
-103.3
 11
-27.0737
 21
-103.314
  0
LINE
  8
0
 10
-27.0737
 20
-103.314
 11
-26.8304
 21
-103.355
  0
LINE
  8
0
 10
-26.8304
 20
-103.355
 11
-26.5934
 21
-103.423
  0
LINE
  8
0
 10
-26.5934
 20
-103.423
 11
-26.3654
 21
-103.518
  0
LINE
  8
0
 10
-26.3654
 20
-103.518
 11
-26.1495
 21
-103.637
  0
LINE
  8
0
 10
-26.1495
 20
-103.637
 11
-25.9483
 21
-103.78
  0
LINE
  8
0
 10
-25.9483
 20
-103.78
 11
-25.7644
 21
-103.944
  0
LINE
  8
0
 10
-25.7644
 20
-103.944
 11
-25.6
 21
-104.128
  0
LINE
  8
0
 10
-25.6
 20
-104.128
 11
-25.4572
 21
-104.33
  0
LINE
  8
0
 10
-25.4572
 20
-104.33
 11
-25.3379
 21
-104.545
  0
LINE
  8
0
 10
-25.3379
 20
-104.545
 11
-25.2435
 21
-104.773
  0
LINE
  8
0
 10
-25.2435
 20
-104.773
 11
-25.1752
 21
-105.01
  0
LINE
  8
0
 10
-25.1752
 20
-105.01
 11
-25.1338
 21
-105.254
  0
LINE
  8
0
 10
-25.1338
 20
-105.254
 11
-25.12
 21
-105.5
  0
LINE
  8
0
 10
-25.12
 20
-105.5
 11
-25.1338
 21
-105.746
  0
LINE
  8
0
 10
-25.1338
 20
-105.746
 11
-25.1752
 21
-105.99
  0
LINE
  8
0
 10
-25.1752
 20
-105.99
 11
-25.2435
 21
-106.227
  0
LINE
  8
0
 10
-25.2435
 20
-106.227
 11
-25.3379
 21
-106.455
  0
LINE
  8
0
 10
-25.3379
 20
-106.455
 11
-25.4572
 21
-106.67
  0
LINE
  8
0
 10
-25.4572
 20
-106.67
 11
-25.6
 21
-106.872
  0
LINE
  8
0
 10
-25.6
 20
-106.872
 11
-25.7644
 21
-107.056
  0
LINE
  8
0
 10
-25.7644
 20
-107.056
 11
-25.9483
 21
-107.22
  0
LINE
  8
0
 10
-25.9483
 20
-107.22
 11
-26.1495
 21
-107.363
  0
LINE
  8
0
 10
-26.1495
 20
-107.363
 11
-26.3654
 21
-107.482
  0
LINE
  8
0
 10
-26.3654
 20
-107.482
 11
-26.5934
 21
-107.577
  0
LINE
  8
0
 10
-26.5934
 20
-107.577
 11
-26.8304
 21
-107.645
  0
LINE
  8
0
 10
-26.8304
 20
-107.645
 11
-27.0737
 21
-107.686
  0
LINE
  8
0
 10
-27.0737
 20
-107.686
 11
-27.32
 21
-107.7
  0
LINE
  8
0
 10
-27.32
 20
-107.7
 11
-27.5663
 21
-107.686
  0
LINE
  8
0
 10
-142.566
 20
-107.686
 11
-142.81
 21
-107.645
  0
LINE
  8
0
 10
-142.81
 20
-107.645
 11
-143.047
 21
-107.577
  0
LINE
  8
0
 10
-143.047
 20
-107.577
 11
-143.275
 21
-107.482
  0
LINE
  8
0
 10
-143.275
 20
-107.482
 11
-143.49
 21
-107.363
  0
LINE
  8
0
 10
-143.49
 20
-107.363
 11
-143.692
 21
-107.22
  0
LINE
  8
0
 10
-143.692
 20
-107.22
 11
-143.876
 21
-107.056
  0
LINE
  8
0
 10
-143.876
 20
-107.056
 11
-144.04
 21
-106.872
  0
LINE
  8
0
 10
-144.04
 20
-106.872
 11
-144.183
 21
-106.67
  0
LINE
  8
0
 10
-144.183
 20
-106.67
 11
-144.302
 21
-106.455
  0
LINE
  8
0
 10
-144.302
 20
-106.455
 11
-144.397
 21
-106.227
  0
LINE
  8
0
 10
-144.397
 20
-106.227
 11
-144.465
 21
-105.99
  0
LINE
  8
0
 10
-144.465
 20
-105.99
 11
-144.506
 21
-105.746
  0
LINE
  8
0
 10
-144.506
 20
-105.746
 11
-144.52
 21
-105.5
  0
LINE
  8
0
 10
-144.52
 20
-105.5
 11
-144.506
 21
-105.254
  0
LINE
  8
0
 10
-144.506
 20
-105.254
 11
-144.465
 21
-105.01
  0
LINE
  8
0
 10
-144.465
 20
-105.01
 11
-144.397
 21
-104.773
  0
LINE
  8
0
 10
-144.397
 20
-104.773
 11
-144.302
 21
-104.545
  0
LINE
  8
0
 10
-144.302
 20
-104.545
 11
-144.183
 21
-104.33
  0
LINE
  8
0
 10
-144.183
 20
-104.33
 11
-144.04
 21
-104.128
  0
LINE
  8
0
 10
-144.04
 20
-104.128
 11
-143.876
 21
-103.944
  0
LINE
  8
0
 10
-143.876
 20
-103.944
 11
-143.692
 21
-103.78
  0
LINE
  8
0
 10
-143.692
 20
-103.78
 11
-143.49
 21
-103.637
  0
LINE
  8
0
 10
-143.49
 20
-103.637
 11
-143.275
 21
-103.518
  0
LINE
  8
0
 10
-143.275
 20
-103.518
 11
-143.047
 21
-103.423
  0
LINE
  8
0
 10
-143.047
 20
-103.423
 11
-142.81
 21
-103.355
  0
LINE
  8
0
 10
-142.81
 20
-103.355
 11
-142.566
 21
-103.314
  0
LINE
  8
0
 10
-142.566
 20
-103.314
 11
-142.32
 21
-103.3
  0
LINE
  8
0
 10
-142.32
 20
-103.3
 11
-142.074
 21
-103.314
  0
LINE
  8
0
 10
-142.074
 20
-103.314
 11
-141.83
 21
-103.355
  0
LINE
  8
0
 10
-141.83
 20
-103.355
 11
-141.593
 21
-103.423
  0
LINE
  8
0
 10
-141.593
 20
-103.423
 11
-141.365
 21
-103.518
  0
LINE
  8
0
 10
-141.365
 20
-103.518
 11
-141.15
 21
-103.637
  0
LINE
  8
0
 10
-141.15
 20
-103.637
 11
-140.948
 21
-103.78
  0
LINE
  8
0
 10
-140.948
 20
-103.78
 11
-140.764
 21
-103.944
  0
LINE
  8
0
 10
-140.764
 20
-103.944
 11
-140.6
 21
-104.128
  0
LINE
  8
0
 10
-140.6
 20
-104.128
 11
-140.457
 21
-104.33
  0
LINE
  8
0
 10
-140.457
 20
-104.33
 11
-140.338
 21
-104.545
  0
LINE
  8
0
 10
-140.338
 20
-104.545
 11
-140.243
 21
-104.773
  0
LINE
  8
0
 10
-140.243
 20
-104.773
 11
-140.175
 21
-105.01
  0
LINE
  8
0
 10
-140.175
 20
-105.01
 11
-140.134
 21
-105.254
  0
LINE
  8
0
 10
-140.134
 20
-105.254
 11
-140.12
 21
-105.5
  0
LINE
  8
0
 10
-140.12
 20
-105.5
 11
-140.134
 21
-105.746
  0
LINE
  8
0
 10
-140.134
 20
-105.746
 11
-140.175
 21
-105.99
  0
LINE
  8
0
 10
-140.175
 20
-105.99
 11
-140.243
 21
-106.227
  0
LINE
  8
0
 10
-140.243
 20
-106.227
 11
-140.338
 21
-106.455
  0
LINE
  8
0
 10
-140.338
 20
-106.455
 11
-140.457
 21
-106.67
  0
LINE
  8
0
 10
-140.457
 20
-106.67
 11
-140.6
 21
-106.872
  0
LINE
  8
0
 10
-140.6
 20
-106.872
 11
-140.764
 21
-107.056
  0
LINE
  8
0
 10
-140.764
 20
-107.056
 11
-140.948
 21
-107.22
  0
LINE
  8
0
 10
-140.948
 20
-107.22
 11
-141.15
 21
-107.363
  0
LINE
  8
0
 10
-141.15
 20
-107.363
 11
-141.365
 21
-107.482
  0
LINE
  8
0
 10
-141.365
 20
-107.482
 11
-141.593
 21
-107.577
  0
LINE
  8
0
 10
-141.593
 20
-107.577
 11
-141.83
 21
-107.645
  0
LINE
  8
0
 10
-141.83
 20
-107.645
 11
-142.074
 21
-107.686
  0
LINE
  8
0
 10
-142.074
 20
-107.686
 11
-142.32
 21
-107.7
  0
LINE
  8
0
 10
-142.32
 20
-107.7
 11
-142.566
 21
-107.686
  0
LINE
  8
0
 10
-160.074
 20
-131.445
 11
-160.318
 21
-131.404
  0
LINE
  8
0
 10
-160.318
 20
-131.404
 11
-160.553
 21
-131.324
  0
LINE
  8
0
 10
-160.553
 20
-131.324
 11
-160.77
 21
-131.206
  0
LINE
  8
0
 10
-160.77
 20
-131.206
 11
-160.966
 21
-131.054
  0
LINE
  8
0
 10
-160.966
 20
-131.054
 11
-161.134
 21
-130.871
  0
LINE
  8
0
 10
-161.134
 20
-130.871
 11
-161.269
 21
-130.664
  0
LINE
  8
0
 10
-161.269
 20
-130.664
 11
-161.369
 21
-130.437
  0
LINE
  8
0
 10
-161.369
 20
-130.437
 11
-161.43
 21
-130.197
  0
LINE
  8
0
 10
-161.43
 20
-130.197
 11
-161.45
 21
-129.95
  0
LINE
  8
0
 10
-161.45
 20
-129.95
 11
-161.43
 21
-129.703
  0
LINE
  8
0
 10
-161.43
 20
-129.703
 11
-161.369
 21
-129.463
  0
LINE
  8
0
 10
-161.369
 20
-129.463
 11
-161.269
 21
-129.236
  0
LINE
  8
0
 10
-161.269
 20
-129.236
 11
-161.134
 21
-129.029
  0
LINE
  8
0
 10
-161.134
 20
-129.029
 11
-160.966
 21
-128.846
  0
LINE
  8
0
 10
-160.966
 20
-128.846
 11
-160.77
 21
-128.694
  0
LINE
  8
0
 10
-160.77
 20
-128.694
 11
-160.553
 21
-128.576
  0
LINE
  8
0
 10
-160.553
 20
-128.576
 11
-160.318
 21
-128.496
  0
LINE
  8
0
 10
-160.318
 20
-128.496
 11
-160.074
 21
-128.455
  0
LINE
  8
0
 10
-160.074
 20
-128.455
 11
-159.826
 21
-128.455
  0
LINE
  8
0
 10
-159.826
 20
-128.455
 11
-159.582
 21
-128.496
  0
LINE
  8
0
 10
-159.582
 20
-128.496
 11
-159.347
 21
-128.576
  0
LINE
  8
0
 10
-159.347
 20
-128.576
 11
-159.13
 21
-128.694
  0
LINE
  8
0
 10
-159.13
 20
-128.694
 11
-158.934
 21
-128.846
  0
LINE
  8
0
 10
-158.934
 20
-128.846
 11
-158.766
 21
-129.029
  0
LINE
  8
0
 10
-158.766
 20
-129.029
 11
-158.631
 21
-129.236
  0
LINE
  8
0
 10
-158.631
 20
-129.236
 11
-158.531
 21
-129.463
  0
LINE
  8
0
 10
-158.531
 20
-129.463
 11
-158.47
 21
-129.703
  0
LINE
  8
0
 10
-158.47
 20
-129.703
 11
-158.45
 21
-129.95
  0
LINE
  8
0
 10
-158.45
 20
-129.95
 11
-158.47
 21
-130.197
  0
LINE
  8
0
 10
-158.47
 20
-130.197
 11
-158.531
 21
-130.437
  0
LINE
  8
0
 10
-158.531
 20
-130.437
 11
-158.631
 21
-130.664
  0
LINE
  8
0
 10
-158.631
 20
-130.664
 11
-158.766
 21
-130.871
  0
LINE
  8
0
 10
-158.766
 20
-130.871
 11
-158.934
 21
-131.054
  0
LINE
  8
0
 10
-158.934
 20
-131.054
 11
-159.13
 21
-131.206
  0
LINE
  8
0
 10
-159.13
 20
-131.206
 11
-159.347
 21
-131.324
  0
LINE
  8
0
 10
-159.347
 20
-131.324
 11
-159.582
 21
-131.404
  0
LINE
  8
0
 10
-159.582
 20
-131.404
 11
-159.826
 21
-131.445
  0
LINE
  8
0
 10
-159.826
 20
-131.445
 11
-160.074
 21
-131.445
  0
LINE
  8
0
 10
159.826
 20
-131.445
 11
159.582
 21
-131.404
  0
LINE
  8
0
 10
159.582
 20
-131.404
 11
159.347
 21
-131.324
  0
LINE
  8
0
 10
159.347
 20
-131.324
 11
159.13
 21
-131.206
  0
LINE
  8
0
 10
159.13
 20
-131.206
 11
158.934
 21
-131.054
  0
LINE
  8
0
 10
158.934
 20
-131.054
 11
158.766
 21
-130.871
  0
LINE
  8
0
 10
158.766
 20
-130.871
 11
158.631
 21
-130.664
  0
LINE
  8
0
 10
158.631
 20
-130.664
 11
158.531
 21
-130.437
  0
LINE
  8
0
 10
158.531
 20
-130.437
 11
158.47
 21
-130.197
  0
LINE
  8
0
 10
158.47
 20
-130.197
 11
158.45
 21
-129.95
  0
LINE
  8
0
 10
158.45
 20
-129.95
 11
158.47
 21
-129.703
  0
LINE
  8
0
 10
158.47
 20
-129.703
 11
158.531
 21
-129.463
  0
LINE
  8
0
 10
158.531
 20
-129.463
 11
158.631
 21
-129.236
  0
LINE
  8
0
 10
158.631
 20
-129.236
 11
158.766
 21
-129.029
  0
LINE
  8
0
 10
158.766
 20
-129.029
 11
158.934
 21
-128.846
  0
LINE
  8
0
 10
158.934
 20
-128.846
 11
159.13
 21
-128.694
  0
LINE
  8
0
 10
159.13
 20
-128.694
 11
159.347
 21
-128.576
  0
LINE
  8
0
 10
159.347
 20
-128.576
 11
159.582
 21
-128.496
  0
LINE
  8
0
 10
159.582
 20
-128.496
 11
159.826
 21
-128.455
  0
LINE
  8
0
 10
159.826
 20
-128.455
 11
160.074
 21
-128.455
  0
LINE
  8
0
 10
160.074
 20
-128.455
 11
160.318
 21
-128.496
  0
LINE
  8
0
 10
160.318
 20
-128.496
 11
160.553
 21
-128.576
  0
LINE
  8
0
 10
160.553
 20
-128.576
 11
160.77
 21
-128.694
  0
LINE
  8
0
 10
160.77
 20
-128.694
 11
160.966
 21
-128.846
  0
LINE
  8
0
 10
160.966
 20
-128.846
 11
161.134
 21
-129.029
  0
LINE
  8
0
 10
161.134
 20
-129.029
 11
161.269
 21
-129.236
  0
LINE
  8
0
 10
161.269
 20
-129.236
 11
161.369
 21
-129.463
  0
LINE
  8
0
 10
161.369
 20
-129.463
 11
161.43
 21
-129.703
  0
LINE
  8
0
 10
161.43
 20
-129.703
 11
161.45
 21
-129.95
  0
LINE
  8
0
 10
161.45
 20
-129.95
 11
161.43
 21
-130.197
  0
LINE
  8
0
 10
161.43
 20
-130.197
 11
161.369
 21
-130.437
  0
LINE
  8
0
 10
161.369
 20
-130.437
 11
161.269
 21
-130.664
  0
LINE
  8
0
 10
161.269
 20
-130.664
 11
161.134
 21
-130.871
  0
LINE
  8
0
 10
161.134
 20
-130.871
 11
160.966
 21
-131.054
  0
LINE
  8
0
 10
160.966
 20
-131.054
 11
160.77
 21
-131.206
  0
LINE
  8
0
 10
160.77
 20
-131.206
 11
160.553
 21
-131.324
  0
LINE
  8
0
 10
160.553
 20
-131.324
 11
160.318
 21
-131.404
  0
LINE
  8
0
 10
160.318
 20
-131.404
 11
160.074
 21
-131.445
  0
LINE
  8
0
 10
160.074
 20
-131.445
 11
159.826
 21
-131.445
  0
LINE
  8
0
 10
219.691
 20
-174.172
 11
219.451
 21
-174.109
  0
LINE
  8
0
 10
219.451
 20
-174.109
 11
219.223
 21
-174.012
  0
LINE
  8
0
 10
219.223
 20
-174.012
 11
219.011
 21
-173.883
  0
LINE
  8
0
 10
219.011
 20
-173.883
 11
218.82
 21
-173.724
  0
LINE
  8
0
 10
218.82
 20
-173.724
 11
218.654
 21
-173.539
  0
LINE
  8
0
 10
218.654
 20
-173.539
 11
218.518
 21
-173.332
  0
LINE
  8
0
 10
218.518
 20
-173.332
 11
218.412
 21
-173.107
  0
LINE
  8
0
 10
218.412
 20
-173.107
 11
218.341
 21
-172.87
  0
LINE
  8
0
 10
218.341
 20
-172.87
 11
218.305
 21
-172.624
  0
LINE
  8
0
 10
218.305
 20
-172.624
 11
218.305
 21
-172.376
  0
LINE
  8
0
 10
218.305
 20
-172.376
 11
218.341
 21
-172.13
  0
LINE
  8
0
 10
218.341
 20
-172.13
 11
218.412
 21
-171.893
  0
LINE
  8
0
 10
218.412
 20
-171.893
 11
218.518
 21
-171.668
  0
LINE
  8
0
 10
218.518
 20
-171.668
 11
218.654
 21
-171.461
  0
LINE
  8
0
 10
218.654
 20
-171.461
 11
218.82
 21
-171.276
  0
LINE
  8
0
 10
218.82
 20
-171.276
 11
219.011
 21
-171.117
  0
LINE
  8
0
 10
219.011
 20
-171.117
 11
219.223
 21
-170.988
  0
LINE
  8
0
 10
219.223
 20
-170.988
 11
219.451
 21
-170.891
  0
LINE
  8
0
 10
219.451
 20
-170.891
 11
219.691
 21
-170.828
  0
LINE
  8
0
 10
219.691
 20
-170.828
 11
219.938
 21
-170.801
  0
LINE
  8
0
 10
219.938
 20
-170.801
 11
220.186
 21
-170.81
  0
LINE
  8
0
 10
220.186
 20
-170.81
 11
220.43
 21
-170.855
  0
LINE
  8
0
 10
220.43
 20
-170.855
 11
220.665
 21
-170.935
  0
LINE
  8
0
 10
220.665
 20
-170.935
 11
220.886
 21
-171.049
  0
LINE
  8
0
 10
220.886
 20
-171.049
 11
221.087
 21
-171.193
  0
LINE
  8
0
 10
221.087
 20
-171.193
 11
221.266
 21
-171.366
  0
LINE
  8
0
 10
221.266
 20
-171.366
 11
221.418
 21
-171.562
  0
LINE
  8
0
 10
221.418
 20
-171.562
 11
221.539
 21
-171.778
  0
LINE
  8
0
 10
221.539
 20
-171.778
 11
221.628
 21
-172.01
  0
LINE
  8
0
 10
221.628
 20
-172.01
 11
221.682
 21
-172.252
  0
LINE
  8
0
 10
221.682
 20
-172.252
 11
221.7
 21
-172.5
  0
LINE
  8
0
 10
221.7
 20
-172.5
 11
221.682
 21
-172.748
  0
LINE
  8
0
 10
221.682
 20
-172.748
 11
221.628
 21
-172.99
  0
LINE
  8
0
 10
221.628
 20
-172.99
 11
221.539
 21
-173.222
  0
LINE
  8
0
 10
221.539
 20
-173.222
 11
221.418
 21
-173.438
  0
LINE
  8
0
 10
221.418
 20
-173.438
 11
221.266
 21
-173.634
  0
LINE
  8
0
 10
221.266
 20
-173.634
 11
221.087
 21
-173.807
  0
LINE
  8
0
 10
221.087
 20
-173.807
 11
220.886
 21
-173.951
  0
LINE
  8
0
 10
220.886
 20
-173.951
 11
220.665
 21
-174.065
  0
LINE
  8
0
 10
220.665
 20
-174.065
 11
220.43
 21
-174.145
  0
LINE
  8
0
 10
220.43
 20
-174.145
 11
220.186
 21
-174.19
  0
LINE
  8
0
 10
220.186
 20
-174.19
 11
219.938
 21
-174.199
  0
LINE
  8
0
 10
219.938
 20
-174.199
 11
219.691
 21
-174.172
  0
LINE
  8
0
 10
-220.186
 20
-174.19
 11
-220.43
 21
-174.145
  0
LINE
  8
0
 10
-220.43
 20
-174.145
 11
-220.665
 21
-174.065
  0
LINE
  8
0
 10
-220.665
 20
-174.065
 11
-220.886
 21
-173.951
  0
LINE
  8
0
 10
-220.886
 20
-173.951
 11
-221.087
 21
-173.807
  0
LINE
  8
0
 10
-221.087
 20
-173.807
 11
-221.266
 21
-173.634
  0
LINE
  8
0
 10
-221.266
 20
-173.634
 11
-221.418
 21
-173.438
  0
LINE
  8
0
 10
-221.418
 20
-173.438
 11
-221.539
 21
-173.222
  0
LINE
  8
0
 10
-221.539
 20
-173.222
 11
-221.628
 21
-172.99
  0
LINE
  8
0
 10
-221.628
 20
-172.99
 11
-221.682
 21
-172.748
  0
LINE
  8
0
 10
-221.682
 20
-172.748
 11
-221.7
 21
-172.5
  0
LINE
  8
0
 10
-221.7
 20
-172.5
 11
-221.682
 21
-172.252
  0
LINE
  8
0
 10
-221.682
 20
-172.252
 11
-221.628
 21
-172.01
  0
LINE
  8
0
 10
-221.628
 20
-172.01
 11
-221.539
 21
-171.778
  0
LINE
  8
0
 10
-221.539
 20
-171.778
 11
-221.418
 21
-171.562
  0
LINE
  8
0
 10
-221.418
 20
-171.562
 11
-221.266
 21
-171.366
  0
LINE
  8
0
 10
-221.266
 20
-171.366
 11
-221.087
 21
-171.193
  0
LINE
  8
0
 10
-221.087
 20
-171.193
 11
-220.886
 21
-171.049
  0
LINE
  8
0
 10
-220.886
 20
-171.049
 11
-220.665
 21
-170.935
  0
LINE
  8
0
 10
-220.665
 20
-170.935
 11
-220.43
 21
-170.855
  0
LINE
  8
0
 10
-220.43
 20
-170.855
 11
-220.186
 21
-170.81
  0
LINE
  8
0
 10
-220.186
 20
-170.81
 11
-219.938
 21
-170.801
  0
LINE
  8
0
 10
-219.938
 20
-170.801
 11
-219.691
 21
-170.828
  0
LINE
  8
0
 10
-219.691
 20
-170.828
 11
-219.451
 21
-170.891
  0
LINE
  8
0
 10
-219.451
 20
-170.891
 11
-219.223
 21
-170.988
  0
LINE
  8
0
 10
-219.223
 20
-170.988
 11
-219.011
 21
-171.117
  0
LINE
  8
0
 10
-219.011
 20
-171.117
 11
-218.82
 21
-171.276
  0
LINE
  8
0
 10
-218.82
 20
-171.276
 11
-218.654
 21
-171.461
  0
LINE
  8
0
 10
-218.654
 20
-171.461
 11
-218.518
 21
-171.668
  0
LINE
  8
0
 10
-218.518
 20
-171.668
 11
-218.412
 21
-171.893
  0
LINE
  8
0
 10
-218.412
 20
-171.893
 11
-218.341
 21
-172.13
  0
LINE
  8
0
 10
-218.341
 20
-172.13
 11
-218.305
 21
-172.376
  0
LINE
  8
0
 10
-218.305
 20
-172.376
 11
-218.305
 21
-172.624
  0
LINE
  8
0
 10
-218.305
 20
-172.624
 11
-218.341
 21
-172.87
  0
LINE
  8
0
 10
-218.341
 20
-172.87
 11
-218.412
 21
-173.107
  0
LINE
  8
0
 10
-218.412
 20
-173.107
 11
-218.518
 21
-173.332
  0
LINE
  8
0
 10
-218.518
 20
-173.332
 11
-218.654
 21
-173.539
  0
LINE
  8
0
 10
-218.654
 20
-173.539
 11
-218.82
 21
-173.724
  0
LINE
  8
0
 10
-218.82
 20
-173.724
 11
-219.011
 21
-173.883
  0
LINE
  8
0
 10
-219.011
 20
-173.883
 11
-219.223
 21
-174.012
  0
LINE
  8
0
 10
-219.223
 20
-174.012
 11
-219.451
 21
-174.109
  0
LINE
  8
0
 10
-219.451
 20
-174.109
 11
-219.691
 21
-174.172
  0
LINE
  8
0
 10
-219.691
 20
-174.172
 11
-219.938
 21
-174.199
  0
LINE
  8
0
 10
-219.938
 20
-174.199
 11
-220.186
 21
-174.19
  0
LINE
  8
0
 10
-220.392
 20
-218.729
 11
-220.78
 21
-218.668
  0
LINE
  8
0
 10
-220.78
 20
-218.668
 11
-221.159
 21
-218.566
  0
LINE
  8
0
 10
-221.159
 20
-218.566
 11
-221.525
 21
-218.426
  0
LINE
  8
0
 10
-221.525
 20
-218.426
 11
-221.875
 21
-218.248
  0
LINE
  8
0
 10
-221.875
 20
-218.248
 11
-222.204
 21
-218.034
  0
LINE
  8
0
 10
-222.204
 20
-218.034
 11
-222.509
 21
-217.787
  0
LINE
  8
0
 10
-222.509
 20
-217.787
 11
-222.787
 21
-217.509
  0
LINE
  8
0
 10
-222.787
 20
-217.509
 11
-223.034
 21
-217.204
  0
LINE
  8
0
 10
-223.034
 20
-217.204
 11
-223.248
 21
-216.875
  0
LINE
  8
0
 10
-223.248
 20
-216.875
 11
-223.426
 21
-216.525
  0
LINE
  8
0
 10
-223.426
 20
-216.525
 11
-223.566
 21
-216.159
  0
LINE
  8
0
 10
-223.566
 20
-216.159
 11
-223.668
 21
-215.78
  0
LINE
  8
0
 10
-223.668
 20
-215.78
 11
-223.729
 21
-215.392
  0
LINE
  8
0
 10
-223.729
 20
-215.392
 11
-223.75
 21
-215
  0
LINE
  8
0
 10
-223.75
 20
-215
 11
-223.729
 21
-214.608
  0
LINE
  8
0
 10
-223.729
 20
-214.608
 11
-223.668
 21
-214.22
  0
LINE
  8
0
 10
-223.668
 20
-214.22
 11
-223.566
 21
-213.841
  0
LINE
  8
0
 10
-223.566
 20
-213.841
 11
-223.426
 21
-213.475
  0
LINE
  8
0
 10
-223.426
 20
-213.475
 11
-223.248
 21
-213.125
  0
LINE
  8
0
 10
-223.248
 20
-213.125
 11
-223.034
 21
-212.796
  0
LINE
  8
0
 10
-223.034
 20
-212.796
 11
-222.787
 21
-212.491
  0
LINE
  8
0
 10
-222.787
 20
-212.491
 11
-222.509
 21
-212.213
  0
LINE
  8
0
 10
-222.509
 20
-212.213
 11
-222.204
 21
-211.966
  0
LINE
  8
0
 10
-222.204
 20
-211.966
 11
-221.875
 21
-211.752
  0
LINE
  8
0
 10
-221.875
 20
-211.752
 11
-221.525
 21
-211.574
  0
LINE
  8
0
 10
-221.525
 20
-211.574
 11
-221.159
 21
-211.434
  0
LINE
  8
0
 10
-221.159
 20
-211.434
 11
-220.78
 21
-211.332
  0
LINE
  8
0
 10
-220.78
 20
-211.332
 11
-220.392
 21
-211.271
  0
LINE
  8
0
 10
-220.392
 20
-211.271
 11
-220
 21
-211.25
  0
LINE
  8
0
 10
-220
 20
-211.25
 11
-219.608
 21
-211.271
  0
LINE
  8
0
 10
-219.608
 20
-211.271
 11
-219.22
 21
-211.332
  0
LINE
  8
0
 10
-219.22
 20
-211.332
 11
-218.841
 21
-211.434
  0
LINE
  8
0
 10
-218.841
 20
-211.434
 11
-218.475
 21
-211.574
  0
LINE
  8
0
 10
-218.475
 20
-211.574
 11
-218.125
 21
-211.752
  0
LINE
  8
0
 10
-218.125
 20
-211.752
 11
-217.796
 21
-211.966
  0
LINE
  8
0
 10
-217.796
 20
-211.966
 11
-217.491
 21
-212.213
  0
LINE
  8
0
 10
-217.491
 20
-212.213
 11
-217.213
 21
-212.491
  0
LINE
  8
0
 10
-217.213
 20
-212.491
 11
-216.966
 21
-212.796
  0
LINE
  8
0
 10
-216.966
 20
-212.796
 11
-216.752
 21
-213.125
  0
LINE
  8
0
 10
-216.752
 20
-213.125
 11
-216.574
 21
-213.475
  0
LINE
  8
0
 10
-216.574
 20
-213.475
 11
-216.434
 21
-213.841
  0
LINE
  8
0
 10
-216.434
 20
-213.841
 11
-216.332
 21
-214.22
  0
LINE
  8
0
 10
-216.332
 20
-214.22
 11
-216.271
 21
-214.608
  0
LINE
  8
0
 10
-216.271
 20
-214.608
 11
-216.25
 21
-215
  0
LINE
  8
0
 10
-216.25
 20
-215
 11
-216.271
 21
-215.392
  0
LINE
  8
0
 10
-216.271
 20
-215.392
 11
-216.332
 21
-215.78
  0
LINE
  8
0
 10
-216.332
 20
-215.78
 11
-216.434
 21
-216.159
  0
LINE
  8
0
 10
-216.434
 20
-216.159
 11
-216.574
 21
-216.525
  0
LINE
  8
0
 10
-216.574
 20
-216.525
 11
-216.752
 21
-216.875
  0
LINE
  8
0
 10
-216.752
 20
-216.875
 11
-216.966
 21
-217.204
  0
LINE
  8
0
 10
-216.966
 20
-217.204
 11
-217.213
 21
-217.509
  0
LINE
  8
0
 10
-217.213
 20
-217.509
 11
-217.491
 21
-217.787
  0
LINE
  8
0
 10
-217.491
 20
-217.787
 11
-217.796
 21
-218.034
  0
LINE
  8
0
 10
-217.796
 20
-218.034
 11
-218.125
 21
-218.248
  0
LINE
  8
0
 10
-218.125
 20
-218.248
 11
-218.475
 21
-218.426
  0
LINE
  8
0
 10
-218.475
 20
-218.426
 11
-218.841
 21
-218.566
  0
LINE
  8
0
 10
-218.841
 20
-218.566
 11
-219.22
 21
-218.668
  0
LINE
  8
0
 10
-219.22
 20
-218.668
 11
-219.608
 21
-218.729
  0
LINE
  8
0
 10
-219.608
 20
-218.729
 11
-220
 21
-218.75
  0
LINE
  8
0
 10
-220
 20
-218.75
 11
-220.392
 21
-218.729
  0
LINE
  8
0
 10
219.608
 20
-218.729
 11
219.22
 21
-218.668
  0
LINE
  8
0
 10
219.22
 20
-218.668
 11
218.841
 21
-218.566
  0
LINE
  8
0
 10
218.841
 20
-218.566
 11
218.475
 21
-218.426
  0
LINE
  8
0
 10
218.475
 20
-218.426
 11
218.125
 21
-218.248
  0
LINE
  8
0
 10
218.125
 20
-218.248
 11
217.796
 21
-218.034
  0
LINE
  8
0
 10
217.796
 20
-218.034
 11
217.491
 21
-217.787
  0
LINE
  8
0
 10
217.491
 20
-217.787
 11
217.213
 21
-217.509
  0
LINE
  8
0
 10
217.213
 20
-217.509
 11
216.966
 21
-217.204
  0
LINE
  8
0
 10
216.966
 20
-217.204
 11
216.752
 21
-216.875
  0
LINE
  8
0
 10
216.752
 20
-216.875
 11
216.574
 21
-216.525
  0
LINE
  8
0
 10
216.574
 20
-216.525
 11
216.434
 21
-216.159
  0
LINE
  8
0
 10
216.434
 20
-216.159
 11
216.332
 21
-215.78
  0
LINE
  8
0
 10
216.332
 20
-215.78
 11
216.271
 21
-215.392
  0
LINE
  8
0
 10
216.271
 20
-215.392
 11
216.25
 21
-215
  0
LINE
  8
0
 10
216.25
 20
-215
 11
216.271
 21
-214.608
  0
LINE
  8
0
 10
216.271
 20
-214.608
 11
216.332
 21
-214.22
  0
LINE
  8
0
 10
216.332
 20
-214.22
 11
216.434
 21
-213.841
  0
LINE
  8
0
 10
216.434
 20
-213.841
 11
216.574
 21
-213.475
  0
LINE
  8
0
 10
216.574
 20
-213.475
 11
216.752
 21
-213.125
  0
LINE
  8
0
 10
216.752
 20
-213.125
 11
216.966
 21
-212.796
  0
LINE
  8
0
 10
216.966
 20
-212.796
 11
217.213
 21
-212.491
  0
LINE
  8
0
 10
217.213
 20
-212.491
 11
217.491
 21
-212.213
  0
LINE
  8
0
 10
217.491
 20
-212.213
 11
217.796
 21
-211.966
  0
LINE
  8
0
 10
217.796
 20
-211.966
 11
218.125
 21
-211.752
  0
LINE
  8
0
 10
218.125
 20
-211.752
 11
218.475
 21
-211.574
  0
LINE
  8
0
 10
218.475
 20
-211.574
 11
218.841
 21
-211.434
  0
LINE
  8
0
 10
218.841
 20
-211.434
 11
219.22
 21
-211.332
  0
LINE
  8
0
 10
219.22
 20
-211.332
 11
219.608
 21
-211.271
  0
LINE
  8
0
 10
219.608
 20
-211.271
 11
220
 21
-211.25
  0
LINE
  8
0
 10
220
 20
-211.25
 11
220.392
 21
-211.271
  0
LINE
  8
0
 10
220.392
 20
-211.271
 11
220.78
 21
-211.332
  0
LINE
  8
0
 10
220.78
 20
-211.332
 11
221.159
 21
-211.434
  0
LINE
  8
0
 10
221.159
 20
-211.434
 11
221.525
 21
-211.574
  0
LINE
  8
0
 10
221.525
 20
-211.574
 11
221.875
 21
-211.752
  0
LINE
  8
0
 10
221.875
 20
-211.752
 11
222.204
 21
-211.966
  0
LINE
  8
0
 10
222.204
 20
-211.966
 11
222.509
 21
-212.213
  0
LINE
  8
0
 10
222.509
 20
-212.213
 11
222.787
 21
-212.491
  0
LINE
  8
0
 10
222.787
 20
-212.491
 11
223.034
 21
-212.796
  0
LINE
  8
0
 10
223.034
 20
-212.796
 11
223.248
 21
-213.125
  0
LINE
  8
0
 10
223.248
 20
-213.125
 11
223.426
 21
-213.475
  0
LINE
  8
0
 10
223.426
 20
-213.475
 11
223.566
 21
-213.841
  0
LINE
  8
0
 10
223.566
 20
-213.841
 11
223.668
 21
-214.22
  0
LINE
  8
0
 10
223.668
 20
-214.22
 11
223.729
 21
-214.608
  0
LINE
  8
0
 10
223.729
 20
-214.608
 11
223.75
 21
-215
  0
LINE
  8
0
 10
223.75
 20
-215
 11
223.729
 21
-215.392
  0
LINE
  8
0
 10
223.729
 20
-215.392
 11
223.668
 21
-215.78
  0
LINE
  8
0
 10
223.668
 20
-215.78
 11
223.566
 21
-216.159
  0
LINE
  8
0
 10
223.566
 20
-216.159
 11
223.426
 21
-216.525
  0
LINE
  8
0
 10
223.426
 20
-216.525
 11
223.248
 21
-216.875
  0
LINE
  8
0
 10
223.248
 20
-216.875
 11
223.034
 21
-217.204
  0
LINE
  8
0
 10
223.034
 20
-217.204
 11
222.787
 21
-217.509
  0
LINE
  8
0
 10
222.787
 20
-217.509
 11
222.509
 21
-217.787
  0
LINE
  8
0
 10
222.509
 20
-217.787
 11
222.204
 21
-218.034
  0
LINE
  8
0
 10
222.204
 20
-218.034
 11
221.875
 21
-218.248
  0
LINE
  8
0
 10
221.875
 20
-218.248
 11
221.525
 21
-218.426
  0
LINE
  8
0
 10
221.525
 20
-218.426
 11
221.159
 21
-218.566
  0
LINE
  8
0
 10
221.159
 20
-218.566
 11
220.78
 21
-218.668
  0
LINE
  8
0
 10
220.78
 20
-218.668
 11
220.392
 21
-218.729
  0
LINE
  8
0
 10
220.392
 20
-218.729
 11
220
 21
-218.75
  0
LINE
  8
0
 10
220
 20
-218.75
 11
219.608
 21
-218.729
  0
LINE
  8
0
 10
177.191
 20
-216.672
 11
176.951
 21
-216.609
  0
LINE
  8
0
 10
176.951
 20
-216.609
 11
176.723
 21
-216.512
  0
LINE
  8
0
 10
176.723
 20
-216.512
 11
176.511
 21
-216.383
  0
LINE
  8
0
 10
176.511
 20
-216.383
 11
176.32
 21
-216.224
  0
LINE
  8
0
 10
176.32
 20
-216.224
 11
176.154
 21
-216.039
  0
LINE
  8
0
 10
176.154
 20
-216.039
 11
176.018
 21
-215.832
  0
LINE
  8
0
 10
176.018
 20
-215.832
 11
175.912
 21
-215.607
  0
LINE
  8
0
 10
175.912
 20
-215.607
 11
175.841
 21
-215.37
  0
LINE
  8
0
 10
175.841
 20
-215.37
 11
175.805
 21
-215.124
  0
LINE
  8
0
 10
175.805
 20
-215.124
 11
175.805
 21
-214.876
  0
LINE
  8
0
 10
175.805
 20
-214.876
 11
175.841
 21
-214.63
  0
LINE
  8
0
 10
175.841
 20
-214.63
 11
175.912
 21
-214.393
  0
LINE
  8
0
 10
175.912
 20
-214.393
 11
176.018
 21
-214.168
  0
LINE
  8
0
 10
176.018
 20
-214.168
 11
176.154
 21
-213.961
  0
LINE
  8
0
 10
176.154
 20
-213.961
 11
176.32
 21
-213.776
  0
LINE
  8
0
 10
176.32
 20
-213.776
 11
176.511
 21
-213.617
  0
LINE
  8
0
 10
176.511
 20
-213.617
 11
176.723
 21
-213.488
  0
LINE
  8
0
 10
176.723
 20
-213.488
 11
176.951
 21
-213.391
  0
LINE
  8
0
 10
176.951
 20
-213.391
 11
177.191
 21
-213.328
  0
LINE
  8
0
 10
177.191
 20
-213.328
 11
177.438
 21
-213.301
  0
LINE
  8
0
 10
177.438
 20
-213.301
 11
177.686
 21
-213.31
  0
LINE
  8
0
 10
177.686
 20
-213.31
 11
177.93
 21
-213.355
  0
LINE
  8
0
 10
177.93
 20
-213.355
 11
178.165
 21
-213.435
  0
LINE
  8
0
 10
178.165
 20
-213.435
 11
178.386
 21
-213.549
  0
LINE
  8
0
 10
178.386
 20
-213.549
 11
178.587
 21
-213.693
  0
LINE
  8
0
 10
178.587
 20
-213.693
 11
178.766
 21
-213.866
  0
LINE
  8
0
 10
178.766
 20
-213.866
 11
178.918
 21
-214.062
  0
LINE
  8
0
 10
178.918
 20
-214.062
 11
179.039
 21
-214.278
  0
LINE
  8
0
 10
179.039
 20
-214.278
 11
179.128
 21
-214.51
  0
LINE
  8
0
 10
179.128
 20
-214.51
 11
179.182
 21
-214.752
  0
LINE
  8
0
 10
179.182
 20
-214.752
 11
179.2
 21
-215
  0
LINE
  8
0
 10
179.2
 20
-215
 11
179.182
 21
-215.248
  0
LINE
  8
0
 10
179.182
 20
-215.248
 11
179.128
 21
-215.49
  0
LINE
  8
0
 10
179.128
 20
-215.49
 11
179.039
 21
-215.722
  0
LINE
  8
0
 10
179.039
 20
-215.722
 11
178.918
 21
-215.938
  0
LINE
  8
0
 10
178.918
 20
-215.938
 11
178.766
 21
-216.134
  0
LINE
  8
0
 10
178.766
 20
-216.134
 11
178.587
 21
-216.307
  0
LINE
  8
0
 10
178.587
 20
-216.307
 11
178.386
 21
-216.451
  0
LINE
  8
0
 10
178.386
 20
-216.451
 11
178.165
 21
-216.565
  0
LINE
  8
0
 10
178.165
 20
-216.565
 11
177.93
 21
-216.645
  0
LINE
  8
0
 10
177.93
 20
-216.645
 11
177.686
 21
-216.69
  0
LINE
  8
0
 10
177.686
 20
-216.69
 11
177.438
 21
-216.699
  0
LINE
  8
0
 10
177.438
 20
-216.699
 11
177.191
 21
-216.672
  0
LINE
  8
0
 10
88.4412
 20
-216.672
 11
88.2011
 21
-216.609
  0
LINE
  8
0
 10
88.2011
 20
-216.609
 11
87.9727
 21
-216.512
  0
LINE
  8
0
 10
87.9727
 20
-216.512
 11
87.7608
 21
-216.383
  0
LINE
  8
0
 10
87.7608
 20
-216.383
 11
87.5701
 21
-216.224
  0
LINE
  8
0
 10
87.5701
 20
-216.224
 11
87.4044
 21
-216.039
  0
LINE
  8
0
 10
87.4044
 20
-216.039
 11
87.2675
 21
-215.832
  0
LINE
  8
0
 10
87.2675
 20
-215.832
 11
87.1622
 21
-215.607
  0
LINE
  8
0
 10
87.1622
 20
-215.607
 11
87.0907
 21
-215.37
  0
LINE
  8
0
 10
87.0907
 20
-215.37
 11
87.0545
 21
-215.124
  0
LINE
  8
0
 10
87.0545
 20
-215.124
 11
87.0545
 21
-214.876
  0
LINE
  8
0
 10
87.0545
 20
-214.876
 11
87.0907
 21
-214.63
  0
LINE
  8
0
 10
87.0907
 20
-214.63
 11
87.1622
 21
-214.393
  0
LINE
  8
0
 10
87.1622
 20
-214.393
 11
87.2675
 21
-214.168
  0
LINE
  8
0
 10
87.2675
 20
-214.168
 11
87.4044
 21
-213.961
  0
LINE
  8
0
 10
87.4044
 20
-213.961
 11
87.5701
 21
-213.776
  0
LINE
  8
0
 10
87.5701
 20
-213.776
 11
87.7608
 21
-213.617
  0
LINE
  8
0
 10
87.7608
 20
-213.617
 11
87.9727
 21
-213.488
  0
LINE
  8
0
 10
87.9727
 20
-213.488
 11
88.2011
 21
-213.391
  0
LINE
  8
0
 10
88.2011
 20
-213.391
 11
88.4412
 21
-213.328
  0
LINE
  8
0
 10
88.4412
 20
-213.328
 11
88.6879
 21
-213.301
  0
LINE
  8
0
 10
88.6879
 20
-213.301
 11
88.9359
 21
-213.31
  0
LINE
  8
0
 10
88.9359
 20
-213.31
 11
89.18
 21
-213.355
  0
LINE
  8
0
 10
89.18
 20
-213.355
 11
89.4149
 21
-213.435
  0
LINE
  8
0
 10
89.4149
 20
-213.435
 11
89.6356
 21
-213.549
  0
LINE
  8
0
 10
89.6356
 20
-213.549
 11
89.8374
 21
-213.693
  0
LINE
  8
0
 10
89.8374
 20
-213.693
 11
90.0161
 21
-213.866
  0
LINE
  8
0
 10
90.0161
 20
-213.866
 11
90.1678
 21
-214.062
  0
LINE
  8
0
 10
90.1678
 20
-214.062
 11
90.2893
 21
-214.278
  0
LINE
  8
0
 10
90.2893
 20
-214.278
 11
90.3779
 21
-214.51
  0
LINE
  8
0
 10
90.3779
 20
-214.51
 11
90.4319
 21
-214.752
  0
LINE
  8
0
 10
90.4319
 20
-214.752
 11
90.45
 21
-215
  0
LINE
  8
0
 10
90.45
 20
-215
 11
90.4319
 21
-215.248
  0
LINE
  8
0
 10
90.4319
 20
-215.248
 11
90.3779
 21
-215.49
  0
LINE
  8
0
 10
90.3779
 20
-215.49
 11
90.2893
 21
-215.722
  0
LINE
  8
0
 10
90.2893
 20
-215.722
 11
90.1678
 21
-215.938
  0
LINE
  8
0
 10
90.1678
 20
-215.938
 11
90.0161
 21
-216.134
  0
LINE
  8
0
 10
90.0161
 20
-216.134
 11
89.8374
 21
-216.307
  0
LINE
  8
0
 10
89.8374
 20
-216.307
 11
89.6356
 21
-216.451
  0
LINE
  8
0
 10
89.6356
 20
-216.451
 11
89.4149
 21
-216.565
  0
LINE
  8
0
 10
89.4149
 20
-216.565
 11
89.18
 21
-216.645
  0
LINE
  8
0
 10
89.18
 20
-216.645
 11
88.9359
 21
-216.69
  0
LINE
  8
0
 10
88.9359
 20
-216.69
 11
88.6879
 21
-216.699
  0
LINE
  8
0
 10
88.6879
 20
-216.699
 11
88.4412
 21
-216.672
  0
LINE
  8
0
 10
-89.0588
 20
-216.672
 11
-89.2989
 21
-216.609
  0
LINE
  8
0
 10
-89.2989
 20
-216.609
 11
-89.5273
 21
-216.512
  0
LINE
  8
0
 10
-89.5273
 20
-216.512
 11
-89.7392
 21
-216.383
  0
LINE
  8
0
 10
-89.7392
 20
-216.383
 11
-89.9299
 21
-216.224
  0
LINE
  8
0
 10
-89.9299
 20
-216.224
 11
-90.0955
 21
-216.039
  0
LINE
  8
0
 10
-90.0955
 20
-216.039
 11
-90.2325
 21
-215.832
  0
LINE
  8
0
 10
-90.2325
 20
-215.832
 11
-90.3378
 21
-215.607
  0
LINE
  8
0
 10
-90.3378
 20
-215.607
 11
-90.4093
 21
-215.37
  0
LINE
  8
0
 10
-90.4093
 20
-215.37
 11
-90.4455
 21
-215.124
  0
LINE
  8
0
 10
-90.4455
 20
-215.124
 11
-90.4455
 21
-214.876
  0
LINE
  8
0
 10
-90.4455
 20
-214.876
 11
-90.4093
 21
-214.63
  0
LINE
  8
0
 10
-90.4093
 20
-214.63
 11
-90.3378
 21
-214.393
  0
LINE
  8
0
 10
-90.3378
 20
-214.393
 11
-90.2325
 21
-214.168
  0
LINE
  8
0
 10
-90.2325
 20
-214.168
 11
-90.0955
 21
-213.961
  0
LINE
  8
0
 10
-90.0955
 20
-213.961
 11
-89.9299
 21
-213.776
  0
LINE
  8
0
 10
-89.9299
 20
-213.776
 11
-89.7392
 21
-213.617
  0
LINE
  8
0
 10
-89.7392
 20
-213.617
 11
-89.5273
 21
-213.488
  0
LINE
  8
0
 10
-89.5273
 20
-213.488
 11
-89.2989
 21
-213.391
  0
LINE
  8
0
 10
-89.2989
 20
-213.391
 11
-89.0588
 21
-213.328
  0
LINE
  8
0
 10
-89.0588
 20
-213.328
 11
-88.8121
 21
-213.301
  0
LINE
  8
0
 10
-88.8121
 20
-213.301
 11
-88.5641
 21
-213.31
  0
LINE
  8
0
 10
-88.5641
 20
-213.31
 11
-88.32
 21
-213.355
  0
LINE
  8
0
 10
-88.32
 20
-213.355
 11
-88.0851
 21
-213.435
  0
LINE
  8
0
 10
-88.0851
 20
-213.435
 11
-87.8644
 21
-213.549
  0
LINE
  8
0
 10
-87.8644
 20
-213.549
 11
-87.6626
 21
-213.693
  0
LINE
  8
0
 10
-87.6626
 20
-213.693
 11
-87.4839
 21
-213.866
  0
LINE
  8
0
 10
-87.4839
 20
-213.866
 11
-87.3322
 21
-214.062
  0
LINE
  8
0
 10
-87.3322
 20
-214.062
 11
-87.2107
 21
-214.278
  0
LINE
  8
0
 10
-87.2107
 20
-214.278
 11
-87.1221
 21
-214.51
  0
LINE
  8
0
 10
-87.1221
 20
-214.51
 11
-87.0681
 21
-214.752
  0
LINE
  8
0
 10
-87.0681
 20
-214.752
 11
-87.05
 21
-215
  0
LINE
  8
0
 10
-87.05
 20
-215
 11
-87.0681
 21
-215.248
  0
LINE
  8
0
 10
-87.0681
 20
-215.248
 11
-87.1221
 21
-215.49
  0
LINE
  8
0
 10
-87.1221
 20
-215.49
 11
-87.2107
 21
-215.722
  0
LINE
  8
0
 10
-87.2107
 20
-215.722
 11
-87.3322
 21
-215.938
  0
LINE
  8
0
 10
-87.3322
 20
-215.938
 11
-87.4839
 21
-216.134
  0
LINE
  8
0
 10
-87.4839
 20
-216.134
 11
-87.6626
 21
-216.307
  0
LINE
  8
0
 10
-87.6626
 20
-216.307
 11
-87.8644
 21
-216.451
  0
LINE
  8
0
 10
-87.8644
 20
-216.451
 11
-88.0851
 21
-216.565
  0
LINE
  8
0
 10
-88.0851
 20
-216.565
 11
-88.32
 21
-216.645
  0
LINE
  8
0
 10
-88.32
 20
-216.645
 11
-88.5641
 21
-216.69
  0
LINE
  8
0
 10
-88.5641
 20
-216.69
 11
-88.8121
 21
-216.699
  0
LINE
  8
0
 10
-88.8121
 20
-216.699
 11
-89.0588
 21
-216.672
  0
LINE
  8
0
 10
-0.308777
 20
-216.672
 11
-0.548889
 21
-216.609
  0
LINE
  8
0
 10
-0.548889
 20
-216.609
 11
-0.777298
 21
-216.512
  0
LINE
  8
0
 10
-0.777298
 20
-216.512
 11
-0.989151
 21
-216.383
  0
LINE
  8
0
 10
-0.989151
 20
-216.383
 11
-1.17992
 21
-216.224
  0
LINE
  8
0
 10
-1.17992
 20
-216.224
 11
-1.34554
 21
-216.039
  0
LINE
  8
0
 10
-1.34554
 20
-216.039
 11
-1.48248
 21
-215.832
  0
LINE
  8
0
 10
-1.48248
 20
-215.832
 11
-1.58781
 21
-215.607
  0
LINE
  8
0
 10
-1.58781
 20
-215.607
 11
-1.65932
 21
-215.37
  0
LINE
  8
0
 10
-1.65932
 20
-215.37
 11
-1.69545
 21
-215.124
  0
LINE
  8
0
 10
-1.69545
 20
-215.124
 11
-1.69545
 21
-214.876
  0
LINE
  8
0
 10
-1.69545
 20
-214.876
 11
-1.65932
 21
-214.63
  0
LINE
  8
0
 10
-1.65932
 20
-214.63
 11
-1.58781
 21
-214.393
  0
LINE
  8
0
 10
-1.58781
 20
-214.393
 11
-1.48248
 21
-214.168
  0
LINE
  8
0
 10
-1.48248
 20
-214.168
 11
-1.34554
 21
-213.961
  0
LINE
  8
0
 10
-1.34554
 20
-213.961
 11
-1.17992
 21
-213.776
  0
LINE
  8
0
 10
-1.17992
 20
-213.776
 11
-0.989151
 21
-213.617
  0
LINE
  8
0
 10
-0.989151
 20
-213.617
 11
-0.777298
 21
-213.488
  0
LINE
  8
0
 10
-0.777298
 20
-213.488
 11
-0.548889
 21
-213.391
  0
LINE
  8
0
 10
-0.548889
 20
-213.391
 11
-0.308777
 21
-213.328
  0
LINE
  8
0
 10
-0.308777
 20
-213.328
 11
-0.0620728
 21
-213.301
  0
LINE
  8
0
 10
-0.0620728
 20
-213.301
 11
0.185928
 21
-213.31
  0
LINE
  8
0
 10
0.185928
 20
-213.31
 11
0.429977
 21
-213.355
  0
LINE
  8
0
 10
0.429977
 20
-213.355
 11
0.664871
 21
-213.435
  0
LINE
  8
0
 10
0.664871
 20
-213.435
 11
0.88559
 21
-213.549
  0
LINE
  8
0
 10
0.88559
 20
-213.549
 11
1.08743
 21
-213.693
  0
LINE
  8
0
 10
1.08743
 20
-213.693
 11
1.2661
 21
-213.866
  0
LINE
  8
0
 10
1.2661
 20
-213.866
 11
1.41779
 21
-214.062
  0
LINE
  8
0
 10
1.41779
 20
-214.062
 11
1.53926
 21
-214.278
  0
LINE
  8
0
 10
1.53926
 20
-214.278
 11
1.62791
 21
-214.51
  0
LINE
  8
0
 10
1.62791
 20
-214.51
 11
1.68187
 21
-214.752
  0
LINE
  8
0
 10
1.68187
 20
-214.752
 11
1.7
 21
-215
  0
LINE
  8
0
 10
1.7
 20
-215
 11
1.68187
 21
-215.248
  0
LINE
  8
0
 10
1.68187
 20
-215.248
 11
1.62791
 21
-215.49
  0
LINE
  8
0
 10
1.62791
 20
-215.49
 11
1.53926
 21
-215.722
  0
LINE
  8
0
 10
1.53926
 20
-215.722
 11
1.41779
 21
-215.938
  0
LINE
  8
0
 10
1.41779
 20
-215.938
 11
1.2661
 21
-216.134
  0
LINE
  8
0
 10
1.2661
 20
-216.134
 11
1.08743
 21
-216.307
  0
LINE
  8
0
 10
1.08743
 20
-216.307
 11
0.88559
 21
-216.451
  0
LINE
  8
0
 10
0.88559
 20
-216.451
 11
0.664871
 21
-216.565
  0
LINE
  8
0
 10
0.664871
 20
-216.565
 11
0.429977
 21
-216.645
  0
LINE
  8
0
 10
0.429977
 20
-216.645
 11
0.185928
 21
-216.69
  0
LINE
  8
0
 10
0.185928
 20
-216.69
 11
-0.0620728
 21
-216.699
  0
LINE
  8
0
 10
-0.0620728
 20
-216.699
 11
-0.308777
 21
-216.672
  0
LINE
  8
0
 10
-177.809
 20
-216.672
 11
-178.049
 21
-216.609
  0
LINE
  8
0
 10
-178.049
 20
-216.609
 11
-178.277
 21
-216.512
  0
LINE
  8
0
 10
-178.277
 20
-216.512
 11
-178.489
 21
-216.383
  0
LINE
  8
0
 10
-178.489
 20
-216.383
 11
-178.68
 21
-216.224
  0
LINE
  8
0
 10
-178.68
 20
-216.224
 11
-178.846
 21
-216.039
  0
LINE
  8
0
 10
-178.846
 20
-216.039
 11
-178.982
 21
-215.832
  0
LINE
  8
0
 10
-178.982
 20
-215.832
 11
-179.088
 21
-215.607
  0
LINE
  8
0
 10
-179.088
 20
-215.607
 11
-179.159
 21
-215.37
  0
LINE
  8
0
 10
-179.159
 20
-215.37
 11
-179.195
 21
-215.124
  0
LINE
  8
0
 10
-179.195
 20
-215.124
 11
-179.195
 21
-214.876
  0
LINE
  8
0
 10
-179.195
 20
-214.876
 11
-179.159
 21
-214.63
  0
LINE
  8
0
 10
-179.159
 20
-214.63
 11
-179.088
 21
-214.393
  0
LINE
  8
0
 10
-179.088
 20
-214.393
 11
-178.982
 21
-214.168
  0
LINE
  8
0
 10
-178.982
 20
-214.168
 11
-178.846
 21
-213.961
  0
LINE
  8
0
 10
-178.846
 20
-213.961
 11
-178.68
 21
-213.776
  0
LINE
  8
0
 10
-178.68
 20
-213.776
 11
-178.489
 21
-213.617
  0
LINE
  8
0
 10
-178.489
 20
-213.617
 11
-178.277
 21
-213.488
  0
LINE
  8
0
 10
-178.277
 20
-213.488
 11
-178.049
 21
-213.391
  0
LINE
  8
0
 10
-178.049
 20
-213.391
 11
-177.809
 21
-213.328
  0
LINE
  8
0
 10
-177.809
 20
-213.328
 11
-177.562
 21
-213.301
  0
LINE
  8
0
 10
-177.562
 20
-213.301
 11
-177.314
 21
-213.31
  0
LINE
  8
0
 10
-177.314
 20
-213.31
 11
-177.07
 21
-213.355
  0
LINE
  8
0
 10
-177.07
 20
-213.355
 11
-176.835
 21
-213.435
  0
LINE
  8
0
 10
-176.835
 20
-213.435
 11
-176.614
 21
-213.549
  0
LINE
  8
0
 10
-176.614
 20
-213.549
 11
-176.413
 21
-213.693
  0
LINE
  8
0
 10
-176.413
 20
-213.693
 11
-176.234
 21
-213.866
  0
LINE
  8
0
 10
-176.234
 20
-213.866
 11
-176.082
 21
-214.062
  0
LINE
  8
0
 10
-176.082
 20
-214.062
 11
-175.961
 21
-214.278
  0
LINE
  8
0
 10
-175.961
 20
-214.278
 11
-175.872
 21
-214.51
  0
LINE
  8
0
 10
-175.872
 20
-214.51
 11
-175.818
 21
-214.752
  0
LINE
  8
0
 10
-175.818
 20
-214.752
 11
-175.8
 21
-215
  0
LINE
  8
0
 10
-175.8
 20
-215
 11
-175.818
 21
-215.248
  0
LINE
  8
0
 10
-175.818
 20
-215.248
 11
-175.872
 21
-215.49
  0
LINE
  8
0
 10
-175.872
 20
-215.49
 11
-175.961
 21
-215.722
  0
LINE
  8
0
 10
-175.961
 20
-215.722
 11
-176.082
 21
-215.938
  0
LINE
  8
0
 10
-176.082
 20
-215.938
 11
-176.234
 21
-216.134
  0
LINE
  8
0
 10
-176.234
 20
-216.134
 11
-176.413
 21
-216.307
  0
LINE
  8
0
 10
-176.413
 20
-216.307
 11
-176.614
 21
-216.451
  0
LINE
  8
0
 10
-176.614
 20
-216.451
 11
-176.835
 21
-216.565
  0
LINE
  8
0
 10
-176.835
 20
-216.565
 11
-177.07
 21
-216.645
  0
LINE
  8
0
 10
-177.07
 20
-216.645
 11
-177.314
 21
-216.69
  0
LINE
  8
0
 10
-177.314
 20
-216.69
 11
-177.562
 21
-216.699
  0
LINE
  8
0
 10
-177.562
 20
-216.699
 11
-177.809
 21
-216.672
  0
ENDSEC
  0
SECTION
  2
OBJECTS
  0
DICTIONARY
  0
ENDSEC
  0
EOF
