  0
SECTION
  2
BLOCKS
  0
ENDSEC
  0
SECTION
  2
ENTITIES
  0
LINE
  8
0
 10
315.523
 20
-233.473
 11
316.04
 21
-233.391
  0
LINE
  8
0
 10
316.04
 20
-233.391
 11
316.545
 21
-233.255
  0
LINE
  8
0
 10
316.545
 20
-233.255
 11
317.034
 21
-233.068
  0
LINE
  8
0
 10
317.034
 20
-233.068
 11
317.5
 21
-232.83
  0
LINE
  8
0
 10
317.5
 20
-232.83
 11
317.939
 21
-232.545
  0
LINE
  8
0
 10
317.939
 20
-232.545
 11
318.346
 21
-232.216
  0
LINE
  8
0
 10
318.346
 20
-232.216
 11
318.716
 21
-231.846
  0
LINE
  8
0
 10
318.716
 20
-231.846
 11
319.045
 21
-231.439
  0
LINE
  8
0
 10
319.045
 20
-231.439
 11
319.33
 21
-231
  0
LINE
  8
0
 10
319.33
 20
-231
 11
319.568
 21
-230.534
  0
LINE
  8
0
 10
319.568
 20
-230.534
 11
319.755
 21
-230.045
  0
LINE
  8
0
 10
319.755
 20
-230.045
 11
319.891
 21
-229.54
  0
LINE
  8
0
 10
319.891
 20
-229.54
 11
319.973
 21
-229.023
  0
LINE
  8
0
 10
319.973
 20
-229.023
 11
320
 21
-228.5
  0
LINE
  8
0
 10
320
 20
-228.5
 11
320
 21
228.5
  0
LINE
  8
0
 10
320
 20
228.5
 11
319.973
 21
229.023
  0
LINE
  8
0
 10
319.973
 20
229.023
 11
319.891
 21
229.54
  0
LINE
  8
0
 10
319.891
 20
229.54
 11
319.755
 21
230.045
  0
LINE
  8
0
 10
319.755
 20
230.045
 11
319.568
 21
230.534
  0
LINE
  8
0
 10
319.568
 20
230.534
 11
319.33
 21
231
  0
LINE
  8
0
 10
319.33
 20
231
 11
319.045
 21
231.439
  0
LINE
  8
0
 10
319.045
 20
231.439
 11
318.716
 21
231.846
  0
LINE
  8
0
 10
318.716
 20
231.846
 11
318.346
 21
232.216
  0
LINE
  8
0
 10
318.346
 20
232.216
 11
317.939
 21
232.545
  0
LINE
  8
0
 10
317.939
 20
232.545
 11
317.5
 21
232.83
  0
LINE
  8
0
 10
317.5
 20
232.83
 11
317.034
 21
233.068
  0
LINE
  8
0
 10
317.034
 20
233.068
 11
316.545
 21
233.255
  0
LINE
  8
0
 10
316.545
 20
233.255
 11
316.04
 21
233.391
  0
LINE
  8
0
 10
316.04
 20
233.391
 11
315.523
 21
233.473
  0
LINE
  8
0
 10
315.523
 20
233.473
 11
315
 21
233.5
  0
LINE
  8
0
 10
315
 20
233.5
 11
-315
 21
233.5
  0
LINE
  8
0
 10
-315
 20
233.5
 11
-315.523
 21
233.473
  0
LINE
  8
0
 10
-315.523
 20
233.473
 11
-316.04
 21
233.391
  0
LINE
  8
0
 10
-316.04
 20
233.391
 11
-316.545
 21
233.255
  0
LINE
  8
0
 10
-316.545
 20
233.255
 11
-317.034
 21
233.068
  0
LINE
  8
0
 10
-317.034
 20
233.068
 11
-317.5
 21
232.83
  0
LINE
  8
0
 10
-317.5
 20
232.83
 11
-317.939
 21
232.545
  0
LINE
  8
0
 10
-317.939
 20
232.545
 11
-318.346
 21
232.216
  0
LINE
  8
0
 10
-318.346
 20
232.216
 11
-318.716
 21
231.846
  0
LINE
  8
0
 10
-318.716
 20
231.846
 11
-319.045
 21
231.439
  0
LINE
  8
0
 10
-319.045
 20
231.439
 11
-319.33
 21
231
  0
LINE
  8
0
 10
-319.33
 20
231
 11
-319.568
 21
230.534
  0
LINE
  8
0
 10
-319.568
 20
230.534
 11
-319.755
 21
230.045
  0
LINE
  8
0
 10
-319.755
 20
230.045
 11
-319.891
 21
229.54
  0
LINE
  8
0
 10
-319.891
 20
229.54
 11
-319.973
 21
229.023
  0
LINE
  8
0
 10
-319.973
 20
229.023
 11
-320
 21
228.5
  0
LINE
  8
0
 10
-320
 20
228.5
 11
-320
 21
-228.5
  0
LINE
  8
0
 10
-320
 20
-228.5
 11
-319.973
 21
-229.023
  0
LINE
  8
0
 10
-319.973
 20
-229.023
 11
-319.891
 21
-229.54
  0
LINE
  8
0
 10
-319.891
 20
-229.54
 11
-319.755
 21
-230.045
  0
LINE
  8
0
 10
-319.755
 20
-230.045
 11
-319.568
 21
-230.534
  0
LINE
  8
0
 10
-319.568
 20
-230.534
 11
-319.33
 21
-231
  0
LINE
  8
0
 10
-319.33
 20
-231
 11
-319.045
 21
-231.439
  0
LINE
  8
0
 10
-319.045
 20
-231.439
 11
-318.716
 21
-231.846
  0
LINE
  8
0
 10
-318.716
 20
-231.846
 11
-318.346
 21
-232.216
  0
LINE
  8
0
 10
-318.346
 20
-232.216
 11
-317.939
 21
-232.545
  0
LINE
  8
0
 10
-317.939
 20
-232.545
 11
-317.5
 21
-232.83
  0
LINE
  8
0
 10
-317.5
 20
-232.83
 11
-317.034
 21
-233.068
  0
LINE
  8
0
 10
-317.034
 20
-233.068
 11
-316.545
 21
-233.255
  0
LINE
  8
0
 10
-316.545
 20
-233.255
 11
-316.04
 21
-233.391
  0
LINE
  8
0
 10
-316.04
 20
-233.391
 11
-315.523
 21
-233.473
  0
LINE
  8
0
 10
-315.523
 20
-233.473
 11
-315
 21
-233.5
  0
LINE
  8
0
 10
-315
 20
-233.5
 11
315
 21
-233.5
  0
LINE
  8
0
 10
315
 20
-233.5
 11
315.523
 21
-233.473
  0
LINE
  8
0
 10
237.108
 20
216.271
 11
236.72
 21
216.332
  0
LINE
  8
0
 10
236.72
 20
216.332
 11
236.341
 21
216.434
  0
LINE
  8
0
 10
236.341
 20
216.434
 11
235.975
 21
216.574
  0
LINE
  8
0
 10
235.975
 20
216.574
 11
235.625
 21
216.752
  0
LINE
  8
0
 10
235.625
 20
216.752
 11
235.296
 21
216.966
  0
LINE
  8
0
 10
235.296
 20
216.966
 11
234.991
 21
217.213
  0
LINE
  8
0
 10
234.991
 20
217.213
 11
234.713
 21
217.491
  0
LINE
  8
0
 10
234.713
 20
217.491
 11
234.466
 21
217.796
  0
LINE
  8
0
 10
234.466
 20
217.796
 11
234.252
 21
218.125
  0
LINE
  8
0
 10
234.252
 20
218.125
 11
234.074
 21
218.475
  0
LINE
  8
0
 10
234.074
 20
218.475
 11
233.934
 21
218.841
  0
LINE
  8
0
 10
233.934
 20
218.841
 11
233.832
 21
219.22
  0
LINE
  8
0
 10
233.832
 20
219.22
 11
233.771
 21
219.608
  0
LINE
  8
0
 10
233.771
 20
219.608
 11
233.75
 21
220
  0
LINE
  8
0
 10
233.75
 20
220
 11
233.771
 21
220.392
  0
LINE
  8
0
 10
233.771
 20
220.392
 11
233.832
 21
220.78
  0
LINE
  8
0
 10
233.832
 20
220.78
 11
233.934
 21
221.159
  0
LINE
  8
0
 10
233.934
 20
221.159
 11
234.074
 21
221.525
  0
LINE
  8
0
 10
234.074
 20
221.525
 11
234.252
 21
221.875
  0
LINE
  8
0
 10
234.252
 20
221.875
 11
234.466
 21
222.204
  0
LINE
  8
0
 10
234.466
 20
222.204
 11
234.713
 21
222.509
  0
LINE
  8
0
 10
234.713
 20
222.509
 11
234.991
 21
222.787
  0
LINE
  8
0
 10
234.991
 20
222.787
 11
235.296
 21
223.034
  0
LINE
  8
0
 10
235.296
 20
223.034
 11
235.625
 21
223.248
  0
LINE
  8
0
 10
235.625
 20
223.248
 11
235.975
 21
223.426
  0
LINE
  8
0
 10
235.975
 20
223.426
 11
236.341
 21
223.566
  0
LINE
  8
0
 10
236.341
 20
223.566
 11
236.72
 21
223.668
  0
LINE
  8
0
 10
236.72
 20
223.668
 11
237.108
 21
223.729
  0
LINE
  8
0
 10
237.108
 20
223.729
 11
237.5
 21
223.75
  0
LINE
  8
0
 10
237.5
 20
223.75
 11
237.892
 21
223.729
  0
LINE
  8
0
 10
237.892
 20
223.729
 11
238.28
 21
223.668
  0
LINE
  8
0
 10
238.28
 20
223.668
 11
238.659
 21
223.566
  0
LINE
  8
0
 10
238.659
 20
223.566
 11
239.025
 21
223.426
  0
LINE
  8
0
 10
239.025
 20
223.426
 11
239.375
 21
223.248
  0
LINE
  8
0
 10
239.375
 20
223.248
 11
239.704
 21
223.034
  0
LINE
  8
0
 10
239.704
 20
223.034
 11
240.009
 21
222.787
  0
LINE
  8
0
 10
240.009
 20
222.787
 11
240.287
 21
222.509
  0
LINE
  8
0
 10
240.287
 20
222.509
 11
240.534
 21
222.204
  0
LINE
  8
0
 10
240.534
 20
222.204
 11
240.748
 21
221.875
  0
LINE
  8
0
 10
240.748
 20
221.875
 11
240.926
 21
221.525
  0
LINE
  8
0
 10
240.926
 20
221.525
 11
241.066
 21
221.159
  0
LINE
  8
0
 10
241.066
 20
221.159
 11
241.168
 21
220.78
  0
LINE
  8
0
 10
241.168
 20
220.78
 11
241.229
 21
220.392
  0
LINE
  8
0
 10
241.229
 20
220.392
 11
241.25
 21
220
  0
LINE
  8
0
 10
241.25
 20
220
 11
241.229
 21
219.608
  0
LINE
  8
0
 10
241.229
 20
219.608
 11
241.168
 21
219.22
  0
LINE
  8
0
 10
241.168
 20
219.22
 11
241.066
 21
218.841
  0
LINE
  8
0
 10
241.066
 20
218.841
 11
240.926
 21
218.475
  0
LINE
  8
0
 10
240.926
 20
218.475
 11
240.748
 21
218.125
  0
LINE
  8
0
 10
240.748
 20
218.125
 11
240.534
 21
217.796
  0
LINE
  8
0
 10
240.534
 20
217.796
 11
240.287
 21
217.491
  0
LINE
  8
0
 10
240.287
 20
217.491
 11
240.009
 21
217.213
  0
LINE
  8
0
 10
240.009
 20
217.213
 11
239.704
 21
216.966
  0
LINE
  8
0
 10
239.704
 20
216.966
 11
239.375
 21
216.752
  0
LINE
  8
0
 10
239.375
 20
216.752
 11
239.025
 21
216.574
  0
LINE
  8
0
 10
239.025
 20
216.574
 11
238.659
 21
216.434
  0
LINE
  8
0
 10
238.659
 20
216.434
 11
238.28
 21
216.332
  0
LINE
  8
0
 10
238.28
 20
216.332
 11
237.892
 21
216.271
  0
LINE
  8
0
 10
237.892
 20
216.271
 11
237.5
 21
216.25
  0
LINE
  8
0
 10
237.5
 20
216.25
 11
237.108
 21
216.271
  0
LINE
  8
0
 10
-237.892
 20
216.271
 11
-238.28
 21
216.332
  0
LINE
  8
0
 10
-238.28
 20
216.332
 11
-238.659
 21
216.434
  0
LINE
  8
0
 10
-238.659
 20
216.434
 11
-239.025
 21
216.574
  0
LINE
  8
0
 10
-239.025
 20
216.574
 11
-239.375
 21
216.752
  0
LINE
  8
0
 10
-239.375
 20
216.752
 11
-239.704
 21
216.966
  0
LINE
  8
0
 10
-239.704
 20
216.966
 11
-240.009
 21
217.213
  0
LINE
  8
0
 10
-240.009
 20
217.213
 11
-240.287
 21
217.491
  0
LINE
  8
0
 10
-240.287
 20
217.491
 11
-240.534
 21
217.796
  0
LINE
  8
0
 10
-240.534
 20
217.796
 11
-240.748
 21
218.125
  0
LINE
  8
0
 10
-240.748
 20
218.125
 11
-240.926
 21
218.475
  0
LINE
  8
0
 10
-240.926
 20
218.475
 11
-241.066
 21
218.841
  0
LINE
  8
0
 10
-241.066
 20
218.841
 11
-241.168
 21
219.22
  0
LINE
  8
0
 10
-241.168
 20
219.22
 11
-241.229
 21
219.608
  0
LINE
  8
0
 10
-241.229
 20
219.608
 11
-241.25
 21
220
  0
LINE
  8
0
 10
-241.25
 20
220
 11
-241.229
 21
220.392
  0
LINE
  8
0
 10
-241.229
 20
220.392
 11
-241.168
 21
220.78
  0
LINE
  8
0
 10
-241.168
 20
220.78
 11
-241.066
 21
221.159
  0
LINE
  8
0
 10
-241.066
 20
221.159
 11
-240.926
 21
221.525
  0
LINE
  8
0
 10
-240.926
 20
221.525
 11
-240.748
 21
221.875
  0
LINE
  8
0
 10
-240.748
 20
221.875
 11
-240.534
 21
222.204
  0
LINE
  8
0
 10
-240.534
 20
222.204
 11
-240.287
 21
222.509
  0
LINE
  8
0
 10
-240.287
 20
222.509
 11
-240.009
 21
222.787
  0
LINE
  8
0
 10
-240.009
 20
222.787
 11
-239.704
 21
223.034
  0
LINE
  8
0
 10
-239.704
 20
223.034
 11
-239.375
 21
223.248
  0
LINE
  8
0
 10
-239.375
 20
223.248
 11
-239.025
 21
223.426
  0
LINE
  8
0
 10
-239.025
 20
223.426
 11
-238.659
 21
223.566
  0
LINE
  8
0
 10
-238.659
 20
223.566
 11
-238.28
 21
223.668
  0
LINE
  8
0
 10
-238.28
 20
223.668
 11
-237.892
 21
223.729
  0
LINE
  8
0
 10
-237.892
 20
223.729
 11
-237.5
 21
223.75
  0
LINE
  8
0
 10
-237.5
 20
223.75
 11
-237.108
 21
223.729
  0
LINE
  8
0
 10
-237.108
 20
223.729
 11
-236.72
 21
223.668
  0
LINE
  8
0
 10
-236.72
 20
223.668
 11
-236.341
 21
223.566
  0
LINE
  8
0
 10
-236.341
 20
223.566
 11
-235.975
 21
223.426
  0
LINE
  8
0
 10
-235.975
 20
223.426
 11
-235.625
 21
223.248
  0
LINE
  8
0
 10
-235.625
 20
223.248
 11
-235.296
 21
223.034
  0
LINE
  8
0
 10
-235.296
 20
223.034
 11
-234.991
 21
222.787
  0
LINE
  8
0
 10
-234.991
 20
222.787
 11
-234.713
 21
222.509
  0
LINE
  8
0
 10
-234.713
 20
222.509
 11
-234.466
 21
222.204
  0
LINE
  8
0
 10
-234.466
 20
222.204
 11
-234.252
 21
221.875
  0
LINE
  8
0
 10
-234.252
 20
221.875
 11
-234.074
 21
221.525
  0
LINE
  8
0
 10
-234.074
 20
221.525
 11
-233.934
 21
221.159
  0
LINE
  8
0
 10
-233.934
 20
221.159
 11
-233.832
 21
220.78
  0
LINE
  8
0
 10
-233.832
 20
220.78
 11
-233.771
 21
220.392
  0
LINE
  8
0
 10
-233.771
 20
220.392
 11
-233.75
 21
220
  0
LINE
  8
0
 10
-233.75
 20
220
 11
-233.771
 21
219.608
  0
LINE
  8
0
 10
-233.771
 20
219.608
 11
-233.832
 21
219.22
  0
LINE
  8
0
 10
-233.832
 20
219.22
 11
-233.934
 21
218.841
  0
LINE
  8
0
 10
-233.934
 20
218.841
 11
-234.074
 21
218.475
  0
LINE
  8
0
 10
-234.074
 20
218.475
 11
-234.252
 21
218.125
  0
LINE
  8
0
 10
-234.252
 20
218.125
 11
-234.466
 21
217.796
  0
LINE
  8
0
 10
-234.466
 20
217.796
 11
-234.713
 21
217.491
  0
LINE
  8
0
 10
-234.713
 20
217.491
 11
-234.991
 21
217.213
  0
LINE
  8
0
 10
-234.991
 20
217.213
 11
-235.296
 21
216.966
  0
LINE
  8
0
 10
-235.296
 20
216.966
 11
-235.625
 21
216.752
  0
LINE
  8
0
 10
-235.625
 20
216.752
 11
-235.975
 21
216.574
  0
LINE
  8
0
 10
-235.975
 20
216.574
 11
-236.341
 21
216.434
  0
LINE
  8
0
 10
-236.341
 20
216.434
 11
-236.72
 21
216.332
  0
LINE
  8
0
 10
-236.72
 20
216.332
 11
-237.108
 21
216.271
  0
LINE
  8
0
 10
-237.108
 20
216.271
 11
-237.5
 21
216.25
  0
LINE
  8
0
 10
-237.5
 20
216.25
 11
-237.892
 21
216.271
  0
LINE
  8
0
 10
263.027
 20
219.355
 11
262.783
 21
219.391
  0
LINE
  8
0
 10
262.783
 20
219.391
 11
262.547
 21
219.464
  0
LINE
  8
0
 10
262.547
 20
219.464
 11
262.325
 21
219.571
  0
LINE
  8
0
 10
262.325
 20
219.571
 11
262.121
 21
219.71
  0
LINE
  8
0
 10
262.121
 20
219.71
 11
261.94
 21
219.878
  0
LINE
  8
0
 10
261.94
 20
219.878
 11
261.787
 21
220.071
  0
LINE
  8
0
 10
261.787
 20
220.071
 11
261.663
 21
220.284
  0
LINE
  8
0
 10
261.663
 20
220.284
 11
261.573
 21
220.514
  0
LINE
  8
0
 10
261.573
 20
220.514
 11
261.518
 21
220.754
  0
LINE
  8
0
 10
261.518
 20
220.754
 11
261.5
 21
221
  0
LINE
  8
0
 10
261.5
 20
221
 11
261.518
 21
221.246
  0
LINE
  8
0
 10
261.518
 20
221.246
 11
261.573
 21
221.486
  0
LINE
  8
0
 10
261.573
 20
221.486
 11
261.663
 21
221.716
  0
LINE
  8
0
 10
261.663
 20
221.716
 11
261.787
 21
221.929
  0
LINE
  8
0
 10
261.787
 20
221.929
 11
261.94
 21
222.122
  0
LINE
  8
0
 10
261.94
 20
222.122
 11
262.121
 21
222.29
  0
LINE
  8
0
 10
262.121
 20
222.29
 11
262.325
 21
222.429
  0
LINE
  8
0
 10
262.325
 20
222.429
 11
262.547
 21
222.536
  0
LINE
  8
0
 10
262.547
 20
222.536
 11
262.783
 21
222.609
  0
LINE
  8
0
 10
262.783
 20
222.609
 11
263.027
 21
222.645
  0
LINE
  8
0
 10
263.027
 20
222.645
 11
271.273
 21
222.645
  0
LINE
  8
0
 10
271.273
 20
222.645
 11
271.517
 21
222.609
  0
LINE
  8
0
 10
271.517
 20
222.609
 11
271.753
 21
222.536
  0
LINE
  8
0
 10
271.753
 20
222.536
 11
271.975
 21
222.429
  0
LINE
  8
0
 10
271.975
 20
222.429
 11
272.179
 21
222.29
  0
LINE
  8
0
 10
272.179
 20
222.29
 11
272.36
 21
222.122
  0
LINE
  8
0
 10
272.36
 20
222.122
 11
272.513
 21
221.929
  0
LINE
  8
0
 10
272.513
 20
221.929
 11
272.637
 21
221.716
  0
LINE
  8
0
 10
272.637
 20
221.716
 11
272.727
 21
221.486
  0
LINE
  8
0
 10
272.727
 20
221.486
 11
272.782
 21
221.246
  0
LINE
  8
0
 10
272.782
 20
221.246
 11
272.8
 21
221
  0
LINE
  8
0
 10
272.8
 20
221
 11
272.782
 21
220.754
  0
LINE
  8
0
 10
272.782
 20
220.754
 11
272.727
 21
220.514
  0
LINE
  8
0
 10
272.727
 20
220.514
 11
272.637
 21
220.284
  0
LINE
  8
0
 10
272.637
 20
220.284
 11
272.513
 21
220.071
  0
LINE
  8
0
 10
272.513
 20
220.071
 11
272.36
 21
219.878
  0
LINE
  8
0
 10
272.36
 20
219.878
 11
272.179
 21
219.71
  0
LINE
  8
0
 10
272.179
 20
219.71
 11
271.975
 21
219.571
  0
LINE
  8
0
 10
271.975
 20
219.571
 11
271.753
 21
219.464
  0
LINE
  8
0
 10
271.753
 20
219.464
 11
271.517
 21
219.391
  0
LINE
  8
0
 10
271.517
 20
219.391
 11
271.273
 21
219.355
  0
LINE
  8
0
 10
271.273
 20
219.355
 11
263.027
 21
219.355
  0
LINE
  8
0
 10
294.027
 20
219.355
 11
293.783
 21
219.391
  0
LINE
  8
0
 10
293.783
 20
219.391
 11
293.547
 21
219.464
  0
LINE
  8
0
 10
293.547
 20
219.464
 11
293.325
 21
219.571
  0
LINE
  8
0
 10
293.325
 20
219.571
 11
293.121
 21
219.71
  0
LINE
  8
0
 10
293.121
 20
219.71
 11
292.94
 21
219.878
  0
LINE
  8
0
 10
292.94
 20
219.878
 11
292.787
 21
220.071
  0
LINE
  8
0
 10
292.787
 20
220.071
 11
292.663
 21
220.284
  0
LINE
  8
0
 10
292.663
 20
220.284
 11
292.573
 21
220.514
  0
LINE
  8
0
 10
292.573
 20
220.514
 11
292.518
 21
220.754
  0
LINE
  8
0
 10
292.518
 20
220.754
 11
292.5
 21
221
  0
LINE
  8
0
 10
292.5
 20
221
 11
292.518
 21
221.246
  0
LINE
  8
0
 10
292.518
 20
221.246
 11
292.573
 21
221.486
  0
LINE
  8
0
 10
292.573
 20
221.486
 11
292.663
 21
221.716
  0
LINE
  8
0
 10
292.663
 20
221.716
 11
292.787
 21
221.929
  0
LINE
  8
0
 10
292.787
 20
221.929
 11
292.94
 21
222.122
  0
LINE
  8
0
 10
292.94
 20
222.122
 11
293.121
 21
222.29
  0
LINE
  8
0
 10
293.121
 20
222.29
 11
293.325
 21
222.429
  0
LINE
  8
0
 10
293.325
 20
222.429
 11
293.547
 21
222.536
  0
LINE
  8
0
 10
293.547
 20
222.536
 11
293.783
 21
222.609
  0
LINE
  8
0
 10
293.783
 20
222.609
 11
294.027
 21
222.645
  0
LINE
  8
0
 10
294.027
 20
222.645
 11
302.273
 21
222.645
  0
LINE
  8
0
 10
302.273
 20
222.645
 11
302.517
 21
222.609
  0
LINE
  8
0
 10
302.517
 20
222.609
 11
302.753
 21
222.536
  0
LINE
  8
0
 10
302.753
 20
222.536
 11
302.975
 21
222.429
  0
LINE
  8
0
 10
302.975
 20
222.429
 11
303.179
 21
222.29
  0
LINE
  8
0
 10
303.179
 20
222.29
 11
303.36
 21
222.122
  0
LINE
  8
0
 10
303.36
 20
222.122
 11
303.513
 21
221.929
  0
LINE
  8
0
 10
303.513
 20
221.929
 11
303.637
 21
221.716
  0
LINE
  8
0
 10
303.637
 20
221.716
 11
303.727
 21
221.486
  0
LINE
  8
0
 10
303.727
 20
221.486
 11
303.782
 21
221.246
  0
LINE
  8
0
 10
303.782
 20
221.246
 11
303.8
 21
221
  0
LINE
  8
0
 10
303.8
 20
221
 11
303.782
 21
220.754
  0
LINE
  8
0
 10
303.782
 20
220.754
 11
303.727
 21
220.514
  0
LINE
  8
0
 10
303.727
 20
220.514
 11
303.637
 21
220.284
  0
LINE
  8
0
 10
303.637
 20
220.284
 11
303.513
 21
220.071
  0
LINE
  8
0
 10
303.513
 20
220.071
 11
303.36
 21
219.878
  0
LINE
  8
0
 10
303.36
 20
219.878
 11
303.179
 21
219.71
  0
LINE
  8
0
 10
303.179
 20
219.71
 11
302.975
 21
219.571
  0
LINE
  8
0
 10
302.975
 20
219.571
 11
302.753
 21
219.464
  0
LINE
  8
0
 10
302.753
 20
219.464
 11
302.517
 21
219.391
  0
LINE
  8
0
 10
302.517
 20
219.391
 11
302.273
 21
219.355
  0
LINE
  8
0
 10
302.273
 20
219.355
 11
294.027
 21
219.355
  0
LINE
  8
0
 10
65
 20
218.25
 11
64.7509
 21
218.268
  0
LINE
  8
0
 10
64.7509
 20
218.268
 11
64.507
 21
218.321
  0
LINE
  8
0
 10
64.507
 20
218.321
 11
64.273
 21
218.408
  0
LINE
  8
0
 10
64.273
 20
218.408
 11
64.0539
 21
218.528
  0
LINE
  8
0
 10
64.0539
 20
218.528
 11
63.854
 21
218.677
  0
LINE
  8
0
 10
63.854
 20
218.677
 11
63.6774
 21
218.854
  0
LINE
  8
0
 10
63.6774
 20
218.854
 11
63.5278
 21
219.054
  0
LINE
  8
0
 10
63.5278
 20
219.054
 11
63.4081
 21
219.273
  0
LINE
  8
0
 10
63.4081
 20
219.273
 11
63.3209
 21
219.507
  0
LINE
  8
0
 10
63.3209
 20
219.507
 11
63.2678
 21
219.751
  0
LINE
  8
0
 10
63.2678
 20
219.751
 11
63.25
 21
220
  0
LINE
  8
0
 10
63.25
 20
220
 11
63.2678
 21
220.249
  0
LINE
  8
0
 10
63.2678
 20
220.249
 11
63.3209
 21
220.493
  0
LINE
  8
0
 10
63.3209
 20
220.493
 11
63.4081
 21
220.727
  0
LINE
  8
0
 10
63.4081
 20
220.727
 11
63.5278
 21
220.946
  0
LINE
  8
0
 10
63.5278
 20
220.946
 11
63.6774
 21
221.146
  0
LINE
  8
0
 10
63.6774
 20
221.146
 11
63.854
 21
221.323
  0
LINE
  8
0
 10
63.854
 20
221.323
 11
64.0539
 21
221.472
  0
LINE
  8
0
 10
64.0539
 20
221.472
 11
64.273
 21
221.592
  0
LINE
  8
0
 10
64.273
 20
221.592
 11
64.507
 21
221.679
  0
LINE
  8
0
 10
64.507
 20
221.679
 11
64.7509
 21
221.732
  0
LINE
  8
0
 10
64.7509
 20
221.732
 11
65
 21
221.75
  0
LINE
  8
0
 10
65
 20
221.75
 11
185
 21
221.75
  0
LINE
  8
0
 10
185
 20
221.75
 11
185.249
 21
221.732
  0
LINE
  8
0
 10
185.249
 20
221.732
 11
185.493
 21
221.679
  0
LINE
  8
0
 10
185.493
 20
221.679
 11
185.727
 21
221.592
  0
LINE
  8
0
 10
185.727
 20
221.592
 11
185.946
 21
221.472
  0
LINE
  8
0
 10
185.946
 20
221.472
 11
186.146
 21
221.323
  0
LINE
  8
0
 10
186.146
 20
221.323
 11
186.323
 21
221.146
  0
LINE
  8
0
 10
186.323
 20
221.146
 11
186.472
 21
220.946
  0
LINE
  8
0
 10
186.472
 20
220.946
 11
186.592
 21
220.727
  0
LINE
  8
0
 10
186.592
 20
220.727
 11
186.679
 21
220.493
  0
LINE
  8
0
 10
186.679
 20
220.493
 11
186.732
 21
220.249
  0
LINE
  8
0
 10
186.732
 20
220.249
 11
186.75
 21
220
  0
LINE
  8
0
 10
186.75
 20
220
 11
186.732
 21
219.751
  0
LINE
  8
0
 10
186.732
 20
219.751
 11
186.679
 21
219.507
  0
LINE
  8
0
 10
186.679
 20
219.507
 11
186.592
 21
219.273
  0
LINE
  8
0
 10
186.592
 20
219.273
 11
186.472
 21
219.054
  0
LINE
  8
0
 10
186.472
 20
219.054
 11
186.323
 21
218.854
  0
LINE
  8
0
 10
186.323
 20
218.854
 11
186.146
 21
218.677
  0
LINE
  8
0
 10
186.146
 20
218.677
 11
185.946
 21
218.528
  0
LINE
  8
0
 10
185.946
 20
218.528
 11
185.727
 21
218.408
  0
LINE
  8
0
 10
185.727
 20
218.408
 11
185.493
 21
218.321
  0
LINE
  8
0
 10
185.493
 20
218.321
 11
185.249
 21
218.268
  0
LINE
  8
0
 10
185.249
 20
218.268
 11
185
 21
218.25
  0
LINE
  8
0
 10
185
 20
218.25
 11
65
 21
218.25
  0
LINE
  8
0
 10
-65
 20
218.25
 11
-65.2491
 21
218.268
  0
LINE
  8
0
 10
-65.2491
 20
218.268
 11
-65.493
 21
218.321
  0
LINE
  8
0
 10
-65.493
 20
218.321
 11
-65.727
 21
218.408
  0
LINE
  8
0
 10
-65.727
 20
218.408
 11
-65.9461
 21
218.528
  0
LINE
  8
0
 10
-65.9461
 20
218.528
 11
-66.146
 21
218.677
  0
LINE
  8
0
 10
-66.146
 20
218.677
 11
-66.3226
 21
218.854
  0
LINE
  8
0
 10
-66.3226
 20
218.854
 11
-66.4722
 21
219.054
  0
LINE
  8
0
 10
-66.4722
 20
219.054
 11
-66.5919
 21
219.273
  0
LINE
  8
0
 10
-66.5919
 20
219.273
 11
-66.6791
 21
219.507
  0
LINE
  8
0
 10
-66.6791
 20
219.507
 11
-66.7322
 21
219.751
  0
LINE
  8
0
 10
-66.7322
 20
219.751
 11
-66.75
 21
220
  0
LINE
  8
0
 10
-66.75
 20
220
 11
-66.7322
 21
220.249
  0
LINE
  8
0
 10
-66.7322
 20
220.249
 11
-66.6791
 21
220.493
  0
LINE
  8
0
 10
-66.6791
 20
220.493
 11
-66.5919
 21
220.727
  0
LINE
  8
0
 10
-66.5919
 20
220.727
 11
-66.4722
 21
220.946
  0
LINE
  8
0
 10
-66.4722
 20
220.946
 11
-66.3226
 21
221.146
  0
LINE
  8
0
 10
-66.3226
 20
221.146
 11
-66.146
 21
221.323
  0
LINE
  8
0
 10
-66.146
 20
221.323
 11
-65.9461
 21
221.472
  0
LINE
  8
0
 10
-65.9461
 20
221.472
 11
-65.727
 21
221.592
  0
LINE
  8
0
 10
-65.727
 20
221.592
 11
-65.493
 21
221.679
  0
LINE
  8
0
 10
-65.493
 20
221.679
 11
-65.2491
 21
221.732
  0
LINE
  8
0
 10
-65.2491
 20
221.732
 11
-65
 21
221.75
  0
LINE
  8
0
 10
-65
 20
221.75
 11
55
 21
221.75
  0
LINE
  8
0
 10
55
 20
221.75
 11
55.249
 21
221.732
  0
LINE
  8
0
 10
55.249
 20
221.732
 11
55.493
 21
221.679
  0
LINE
  8
0
 10
55.493
 20
221.679
 11
55.727
 21
221.592
  0
LINE
  8
0
 10
55.727
 20
221.592
 11
55.9461
 21
221.472
  0
LINE
  8
0
 10
55.9461
 20
221.472
 11
56.146
 21
221.323
  0
LINE
  8
0
 10
56.146
 20
221.323
 11
56.3226
 21
221.146
  0
LINE
  8
0
 10
56.3226
 20
221.146
 11
56.4722
 21
220.946
  0
LINE
  8
0
 10
56.4722
 20
220.946
 11
56.5918
 21
220.727
  0
LINE
  8
0
 10
56.5918
 20
220.727
 11
56.6791
 21
220.493
  0
LINE
  8
0
 10
56.6791
 20
220.493
 11
56.7322
 21
220.249
  0
LINE
  8
0
 10
56.7322
 20
220.249
 11
56.75
 21
220
  0
LINE
  8
0
 10
56.75
 20
220
 11
56.7322
 21
219.751
  0
LINE
  8
0
 10
56.7322
 20
219.751
 11
56.6791
 21
219.507
  0
LINE
  8
0
 10
56.6791
 20
219.507
 11
56.5918
 21
219.273
  0
LINE
  8
0
 10
56.5918
 20
219.273
 11
56.4722
 21
219.054
  0
LINE
  8
0
 10
56.4722
 20
219.054
 11
56.3226
 21
218.854
  0
LINE
  8
0
 10
56.3226
 20
218.854
 11
56.146
 21
218.677
  0
LINE
  8
0
 10
56.146
 20
218.677
 11
55.9461
 21
218.528
  0
LINE
  8
0
 10
55.9461
 20
218.528
 11
55.727
 21
218.408
  0
LINE
  8
0
 10
55.727
 20
218.408
 11
55.493
 21
218.321
  0
LINE
  8
0
 10
55.493
 20
218.321
 11
55.249
 21
218.268
  0
LINE
  8
0
 10
55.249
 20
218.268
 11
55
 21
218.25
  0
LINE
  8
0
 10
55
 20
218.25
 11
-65
 21
218.25
  0
LINE
  8
0
 10
-195
 20
218.25
 11
-195.249
 21
218.268
  0
LINE
  8
0
 10
-195.249
 20
218.268
 11
-195.493
 21
218.321
  0
LINE
  8
0
 10
-195.493
 20
218.321
 11
-195.727
 21
218.408
  0
LINE
  8
0
 10
-195.727
 20
218.408
 11
-195.946
 21
218.528
  0
LINE
  8
0
 10
-195.946
 20
218.528
 11
-196.146
 21
218.677
  0
LINE
  8
0
 10
-196.146
 20
218.677
 11
-196.323
 21
218.854
  0
LINE
  8
0
 10
-196.323
 20
218.854
 11
-196.472
 21
219.054
  0
LINE
  8
0
 10
-196.472
 20
219.054
 11
-196.592
 21
219.273
  0
LINE
  8
0
 10
-196.592
 20
219.273
 11
-196.679
 21
219.507
  0
LINE
  8
0
 10
-196.679
 20
219.507
 11
-196.732
 21
219.751
  0
LINE
  8
0
 10
-196.732
 20
219.751
 11
-196.75
 21
220
  0
LINE
  8
0
 10
-196.75
 20
220
 11
-196.732
 21
220.249
  0
LINE
  8
0
 10
-196.732
 20
220.249
 11
-196.679
 21
220.493
  0
LINE
  8
0
 10
-196.679
 20
220.493
 11
-196.592
 21
220.727
  0
LINE
  8
0
 10
-196.592
 20
220.727
 11
-196.472
 21
220.946
  0
LINE
  8
0
 10
-196.472
 20
220.946
 11
-196.323
 21
221.146
  0
LINE
  8
0
 10
-196.323
 20
221.146
 11
-196.146
 21
221.323
  0
LINE
  8
0
 10
-196.146
 20
221.323
 11
-195.946
 21
221.472
  0
LINE
  8
0
 10
-195.946
 20
221.472
 11
-195.727
 21
221.592
  0
LINE
  8
0
 10
-195.727
 20
221.592
 11
-195.493
 21
221.679
  0
LINE
  8
0
 10
-195.493
 20
221.679
 11
-195.249
 21
221.732
  0
LINE
  8
0
 10
-195.249
 20
221.732
 11
-195
 21
221.75
  0
LINE
  8
0
 10
-195
 20
221.75
 11
-75
 21
221.75
  0
LINE
  8
0
 10
-75
 20
221.75
 11
-74.7509
 21
221.732
  0
LINE
  8
0
 10
-74.7509
 20
221.732
 11
-74.507
 21
221.679
  0
LINE
  8
0
 10
-74.507
 20
221.679
 11
-74.273
 21
221.592
  0
LINE
  8
0
 10
-74.273
 20
221.592
 11
-74.0539
 21
221.472
  0
LINE
  8
0
 10
-74.0539
 20
221.472
 11
-73.854
 21
221.323
  0
LINE
  8
0
 10
-73.854
 20
221.323
 11
-73.6774
 21
221.146
  0
LINE
  8
0
 10
-73.6774
 20
221.146
 11
-73.5278
 21
220.946
  0
LINE
  8
0
 10
-73.5278
 20
220.946
 11
-73.4081
 21
220.727
  0
LINE
  8
0
 10
-73.4081
 20
220.727
 11
-73.3209
 21
220.493
  0
LINE
  8
0
 10
-73.3209
 20
220.493
 11
-73.2678
 21
220.249
  0
LINE
  8
0
 10
-73.2678
 20
220.249
 11
-73.25
 21
220
  0
LINE
  8
0
 10
-73.25
 20
220
 11
-73.2678
 21
219.751
  0
LINE
  8
0
 10
-73.2678
 20
219.751
 11
-73.3209
 21
219.507
  0
LINE
  8
0
 10
-73.3209
 20
219.507
 11
-73.4081
 21
219.273
  0
LINE
  8
0
 10
-73.4081
 20
219.273
 11
-73.5278
 21
219.054
  0
LINE
  8
0
 10
-73.5278
 20
219.054
 11
-73.6774
 21
218.854
  0
LINE
  8
0
 10
-73.6774
 20
218.854
 11
-73.854
 21
218.677
  0
LINE
  8
0
 10
-73.854
 20
218.677
 11
-74.0539
 21
218.528
  0
LINE
  8
0
 10
-74.0539
 20
218.528
 11
-74.273
 21
218.408
  0
LINE
  8
0
 10
-74.273
 20
218.408
 11
-74.507
 21
218.321
  0
LINE
  8
0
 10
-74.507
 20
218.321
 11
-74.7509
 21
218.268
  0
LINE
  8
0
 10
-74.7509
 20
218.268
 11
-75
 21
218.25
  0
LINE
  8
0
 10
-75
 20
218.25
 11
-195
 21
218.25
  0
LINE
  8
0
 10
-215.186
 20
218.31
 11
-215.43
 21
218.355
  0
LINE
  8
0
 10
-215.43
 20
218.355
 11
-215.665
 21
218.435
  0
LINE
  8
0
 10
-215.665
 20
218.435
 11
-215.886
 21
218.549
  0
LINE
  8
0
 10
-215.886
 20
218.549
 11
-216.087
 21
218.693
  0
LINE
  8
0
 10
-216.087
 20
218.693
 11
-216.266
 21
218.866
  0
LINE
  8
0
 10
-216.266
 20
218.866
 11
-216.418
 21
219.062
  0
LINE
  8
0
 10
-216.418
 20
219.062
 11
-216.539
 21
219.278
  0
LINE
  8
0
 10
-216.539
 20
219.278
 11
-216.628
 21
219.51
  0
LINE
  8
0
 10
-216.628
 20
219.51
 11
-216.682
 21
219.752
  0
LINE
  8
0
 10
-216.682
 20
219.752
 11
-216.7
 21
220
  0
LINE
  8
0
 10
-216.7
 20
220
 11
-216.682
 21
220.248
  0
LINE
  8
0
 10
-216.682
 20
220.248
 11
-216.628
 21
220.49
  0
LINE
  8
0
 10
-216.628
 20
220.49
 11
-216.539
 21
220.722
  0
LINE
  8
0
 10
-216.539
 20
220.722
 11
-216.418
 21
220.938
  0
LINE
  8
0
 10
-216.418
 20
220.938
 11
-216.266
 21
221.134
  0
LINE
  8
0
 10
-216.266
 20
221.134
 11
-216.087
 21
221.307
  0
LINE
  8
0
 10
-216.087
 20
221.307
 11
-215.886
 21
221.451
  0
LINE
  8
0
 10
-215.886
 20
221.451
 11
-215.665
 21
221.565
  0
LINE
  8
0
 10
-215.665
 20
221.565
 11
-215.43
 21
221.645
  0
LINE
  8
0
 10
-215.43
 20
221.645
 11
-215.186
 21
221.69
  0
LINE
  8
0
 10
-215.186
 20
221.69
 11
-214.938
 21
221.699
  0
LINE
  8
0
 10
-214.938
 20
221.699
 11
-214.691
 21
221.672
  0
LINE
  8
0
 10
-214.691
 20
221.672
 11
-214.451
 21
221.609
  0
LINE
  8
0
 10
-214.451
 20
221.609
 11
-214.223
 21
221.512
  0
LINE
  8
0
 10
-214.223
 20
221.512
 11
-214.011
 21
221.383
  0
LINE
  8
0
 10
-214.011
 20
221.383
 11
-213.82
 21
221.224
  0
LINE
  8
0
 10
-213.82
 20
221.224
 11
-213.654
 21
221.039
  0
LINE
  8
0
 10
-213.654
 20
221.039
 11
-213.518
 21
220.832
  0
LINE
  8
0
 10
-213.518
 20
220.832
 11
-213.412
 21
220.607
  0
LINE
  8
0
 10
-213.412
 20
220.607
 11
-213.341
 21
220.37
  0
LINE
  8
0
 10
-213.341
 20
220.37
 11
-213.305
 21
220.124
  0
LINE
  8
0
 10
-213.305
 20
220.124
 11
-213.305
 21
219.876
  0
LINE
  8
0
 10
-213.305
 20
219.876
 11
-213.341
 21
219.63
  0
LINE
  8
0
 10
-213.341
 20
219.63
 11
-213.412
 21
219.393
  0
LINE
  8
0
 10
-213.412
 20
219.393
 11
-213.518
 21
219.168
  0
LINE
  8
0
 10
-213.518
 20
219.168
 11
-213.654
 21
218.961
  0
LINE
  8
0
 10
-213.654
 20
218.961
 11
-213.82
 21
218.776
  0
LINE
  8
0
 10
-213.82
 20
218.776
 11
-214.011
 21
218.617
  0
LINE
  8
0
 10
-214.011
 20
218.617
 11
-214.223
 21
218.488
  0
LINE
  8
0
 10
-214.223
 20
218.488
 11
-214.451
 21
218.391
  0
LINE
  8
0
 10
-214.451
 20
218.391
 11
-214.691
 21
218.328
  0
LINE
  8
0
 10
-214.691
 20
218.328
 11
-214.938
 21
218.301
  0
LINE
  8
0
 10
-214.938
 20
218.301
 11
-215.186
 21
218.31
  0
LINE
  8
0
 10
214.691
 20
218.328
 11
214.451
 21
218.391
  0
LINE
  8
0
 10
214.451
 20
218.391
 11
214.223
 21
218.488
  0
LINE
  8
0
 10
214.223
 20
218.488
 11
214.011
 21
218.617
  0
LINE
  8
0
 10
214.011
 20
218.617
 11
213.82
 21
218.776
  0
LINE
  8
0
 10
213.82
 20
218.776
 11
213.654
 21
218.961
  0
LINE
  8
0
 10
213.654
 20
218.961
 11
213.518
 21
219.168
  0
LINE
  8
0
 10
213.518
 20
219.168
 11
213.412
 21
219.393
  0
LINE
  8
0
 10
213.412
 20
219.393
 11
213.341
 21
219.63
  0
LINE
  8
0
 10
213.341
 20
219.63
 11
213.305
 21
219.876
  0
LINE
  8
0
 10
213.305
 20
219.876
 11
213.305
 21
220.124
  0
LINE
  8
0
 10
213.305
 20
220.124
 11
213.341
 21
220.37
  0
LINE
  8
0
 10
213.341
 20
220.37
 11
213.412
 21
220.607
  0
LINE
  8
0
 10
213.412
 20
220.607
 11
213.518
 21
220.832
  0
LINE
  8
0
 10
213.518
 20
220.832
 11
213.654
 21
221.039
  0
LINE
  8
0
 10
213.654
 20
221.039
 11
213.82
 21
221.224
  0
LINE
  8
0
 10
213.82
 20
221.224
 11
214.011
 21
221.383
  0
LINE
  8
0
 10
214.011
 20
221.383
 11
214.223
 21
221.512
  0
LINE
  8
0
 10
214.223
 20
221.512
 11
214.451
 21
221.609
  0
LINE
  8
0
 10
214.451
 20
221.609
 11
214.691
 21
221.672
  0
LINE
  8
0
 10
214.691
 20
221.672
 11
214.938
 21
221.699
  0
LINE
  8
0
 10
214.938
 20
221.699
 11
215.186
 21
221.69
  0
LINE
  8
0
 10
215.186
 20
221.69
 11
215.43
 21
221.645
  0
LINE
  8
0
 10
215.43
 20
221.645
 11
215.665
 21
221.565
  0
LINE
  8
0
 10
215.665
 20
221.565
 11
215.886
 21
221.451
  0
LINE
  8
0
 10
215.886
 20
221.451
 11
216.087
 21
221.307
  0
LINE
  8
0
 10
216.087
 20
221.307
 11
216.266
 21
221.134
  0
LINE
  8
0
 10
216.266
 20
221.134
 11
216.418
 21
220.938
  0
LINE
  8
0
 10
216.418
 20
220.938
 11
216.539
 21
220.722
  0
LINE
  8
0
 10
216.539
 20
220.722
 11
216.628
 21
220.49
  0
LINE
  8
0
 10
216.628
 20
220.49
 11
216.682
 21
220.248
  0
LINE
  8
0
 10
216.682
 20
220.248
 11
216.7
 21
220
  0
LINE
  8
0
 10
216.7
 20
220
 11
216.682
 21
219.752
  0
LINE
  8
0
 10
216.682
 20
219.752
 11
216.628
 21
219.51
  0
LINE
  8
0
 10
216.628
 20
219.51
 11
216.539
 21
219.278
  0
LINE
  8
0
 10
216.539
 20
219.278
 11
216.418
 21
219.062
  0
LINE
  8
0
 10
216.418
 20
219.062
 11
216.266
 21
218.866
  0
LINE
  8
0
 10
216.266
 20
218.866
 11
216.087
 21
218.693
  0
LINE
  8
0
 10
216.087
 20
218.693
 11
215.886
 21
218.549
  0
LINE
  8
0
 10
215.886
 20
218.549
 11
215.665
 21
218.435
  0
LINE
  8
0
 10
215.665
 20
218.435
 11
215.43
 21
218.355
  0
LINE
  8
0
 10
215.43
 20
218.355
 11
215.186
 21
218.31
  0
LINE
  8
0
 10
215.186
 20
218.31
 11
214.938
 21
218.301
  0
LINE
  8
0
 10
214.938
 20
218.301
 11
214.691
 21
218.328
  0
LINE
  8
0
 10
278.15
 20
193
 11
276.843
 21
193.068
  0
LINE
  8
0
 10
276.843
 20
193.068
 11
275.551
 21
193.273
  0
LINE
  8
0
 10
275.551
 20
193.273
 11
274.287
 21
193.612
  0
LINE
  8
0
 10
274.287
 20
193.612
 11
273.066
 21
194.081
  0
LINE
  8
0
 10
273.066
 20
194.081
 11
271.9
 21
194.675
  0
LINE
  8
0
 10
271.9
 20
194.675
 11
270.803
 21
195.387
  0
LINE
  8
0
 10
270.803
 20
195.387
 11
269.786
 21
196.211
  0
LINE
  8
0
 10
269.786
 20
196.211
 11
268.861
 21
197.136
  0
LINE
  8
0
 10
268.861
 20
197.136
 11
268.037
 21
198.153
  0
LINE
  8
0
 10
268.037
 20
198.153
 11
267.325
 21
199.25
  0
LINE
  8
0
 10
267.325
 20
199.25
 11
266.731
 21
200.416
  0
LINE
  8
0
 10
266.731
 20
200.416
 11
266.262
 21
201.637
  0
LINE
  8
0
 10
266.262
 20
201.637
 11
265.923
 21
202.901
  0
LINE
  8
0
 10
265.923
 20
202.901
 11
265.718
 21
204.193
  0
LINE
  8
0
 10
265.718
 20
204.193
 11
265.65
 21
205.5
  0
LINE
  8
0
 10
265.65
 20
205.5
 11
265.718
 21
206.807
  0
LINE
  8
0
 10
265.718
 20
206.807
 11
265.923
 21
208.099
  0
LINE
  8
0
 10
265.923
 20
208.099
 11
266.262
 21
209.363
  0
LINE
  8
0
 10
266.262
 20
209.363
 11
266.731
 21
210.584
  0
LINE
  8
0
 10
266.731
 20
210.584
 11
267.325
 21
211.75
  0
LINE
  8
0
 10
267.325
 20
211.75
 11
268.037
 21
212.847
  0
LINE
  8
0
 10
268.037
 20
212.847
 11
268.861
 21
213.864
  0
LINE
  8
0
 10
268.861
 20
213.864
 11
269.786
 21
214.789
  0
LINE
  8
0
 10
269.786
 20
214.789
 11
270.803
 21
215.613
  0
LINE
  8
0
 10
270.803
 20
215.613
 11
271.9
 21
216.325
  0
LINE
  8
0
 10
271.9
 20
216.325
 11
273.066
 21
216.919
  0
LINE
  8
0
 10
273.066
 20
216.919
 11
274.287
 21
217.388
  0
LINE
  8
0
 10
274.287
 20
217.388
 11
275.551
 21
217.727
  0
LINE
  8
0
 10
275.551
 20
217.727
 11
276.843
 21
217.932
  0
LINE
  8
0
 10
276.843
 20
217.932
 11
278.15
 21
218
  0
LINE
  8
0
 10
278.15
 20
218
 11
286.15
 21
218
  0
LINE
  8
0
 10
286.15
 20
218
 11
287.457
 21
217.932
  0
LINE
  8
0
 10
287.457
 20
217.932
 11
288.749
 21
217.727
  0
LINE
  8
0
 10
288.749
 20
217.727
 11
290.013
 21
217.388
  0
LINE
  8
0
 10
290.013
 20
217.388
 11
291.234
 21
216.919
  0
LINE
  8
0
 10
291.234
 20
216.919
 11
292.4
 21
216.325
  0
LINE
  8
0
 10
292.4
 20
216.325
 11
293.497
 21
215.613
  0
LINE
  8
0
 10
293.497
 20
215.613
 11
294.514
 21
214.789
  0
LINE
  8
0
 10
294.514
 20
214.789
 11
295.439
 21
213.864
  0
LINE
  8
0
 10
295.439
 20
213.864
 11
296.263
 21
212.847
  0
LINE
  8
0
 10
296.263
 20
212.847
 11
296.975
 21
211.75
  0
LINE
  8
0
 10
296.975
 20
211.75
 11
297.569
 21
210.584
  0
LINE
  8
0
 10
297.569
 20
210.584
 11
298.038
 21
209.363
  0
LINE
  8
0
 10
298.038
 20
209.363
 11
298.377
 21
208.099
  0
LINE
  8
0
 10
298.377
 20
208.099
 11
298.582
 21
206.807
  0
LINE
  8
0
 10
298.582
 20
206.807
 11
298.65
 21
205.5
  0
LINE
  8
0
 10
298.65
 20
205.5
 11
298.582
 21
204.193
  0
LINE
  8
0
 10
298.582
 20
204.193
 11
298.377
 21
202.901
  0
LINE
  8
0
 10
298.377
 20
202.901
 11
298.038
 21
201.637
  0
LINE
  8
0
 10
298.038
 20
201.637
 11
297.569
 21
200.416
  0
LINE
  8
0
 10
297.569
 20
200.416
 11
296.975
 21
199.25
  0
LINE
  8
0
 10
296.975
 20
199.25
 11
296.263
 21
198.153
  0
LINE
  8
0
 10
296.263
 20
198.153
 11
295.439
 21
197.136
  0
LINE
  8
0
 10
295.439
 20
197.136
 11
294.514
 21
196.211
  0
LINE
  8
0
 10
294.514
 20
196.211
 11
293.497
 21
195.387
  0
LINE
  8
0
 10
293.497
 20
195.387
 11
292.4
 21
194.675
  0
LINE
  8
0
 10
292.4
 20
194.675
 11
291.234
 21
194.081
  0
LINE
  8
0
 10
291.234
 20
194.081
 11
290.013
 21
193.612
  0
LINE
  8
0
 10
290.013
 20
193.612
 11
288.749
 21
193.273
  0
LINE
  8
0
 10
288.749
 20
193.273
 11
287.457
 21
193.068
  0
LINE
  8
0
 10
287.457
 20
193.068
 11
286.15
 21
193
  0
LINE
  8
0
 10
286.15
 20
193
 11
278.15
 21
193
  0
LINE
  8
0
 10
-229
 20
-212.5
 11
-229.223
 21
-212.475
  0
LINE
  8
0
 10
-229.223
 20
-212.475
 11
-229.434
 21
-212.401
  0
LINE
  8
0
 10
-229.434
 20
-212.401
 11
-229.623
 21
-212.282
  0
LINE
  8
0
 10
-229.623
 20
-212.282
 11
-229.782
 21
-212.123
  0
LINE
  8
0
 10
-229.782
 20
-212.123
 11
-229.901
 21
-211.934
  0
LINE
  8
0
 10
-229.901
 20
-211.934
 11
-229.975
 21
-211.723
  0
LINE
  8
0
 10
-229.975
 20
-211.723
 11
-230
 21
-211.5
  0
LINE
  8
0
 10
-230
 20
-211.5
 11
-230
 21
211.5
  0
LINE
  8
0
 10
-230
 20
211.5
 11
-229.975
 21
211.723
  0
LINE
  8
0
 10
-229.975
 20
211.723
 11
-229.901
 21
211.934
  0
LINE
  8
0
 10
-229.901
 20
211.934
 11
-229.782
 21
212.123
  0
LINE
  8
0
 10
-229.782
 20
212.123
 11
-229.623
 21
212.282
  0
LINE
  8
0
 10
-229.623
 20
212.282
 11
-229.434
 21
212.401
  0
LINE
  8
0
 10
-229.434
 20
212.401
 11
-229.223
 21
212.475
  0
LINE
  8
0
 10
-229.223
 20
212.475
 11
-229
 21
212.5
  0
LINE
  8
0
 10
-229
 20
212.5
 11
229
 21
212.5
  0
LINE
  8
0
 10
229
 20
212.5
 11
229.223
 21
212.475
  0
LINE
  8
0
 10
229.223
 20
212.475
 11
229.434
 21
212.401
  0
LINE
  8
0
 10
229.434
 20
212.401
 11
229.623
 21
212.282
  0
LINE
  8
0
 10
229.623
 20
212.282
 11
229.782
 21
212.123
  0
LINE
  8
0
 10
229.782
 20
212.123
 11
229.901
 21
211.934
  0
LINE
  8
0
 10
229.901
 20
211.934
 11
229.975
 21
211.723
  0
LINE
  8
0
 10
229.975
 20
211.723
 11
230
 21
211.5
  0
LINE
  8
0
 10
230
 20
211.5
 11
230
 21
-211.5
  0
LINE
  8
0
 10
230
 20
-211.5
 11
229.975
 21
-211.723
  0
LINE
  8
0
 10
229.975
 20
-211.723
 11
229.901
 21
-211.934
  0
LINE
  8
0
 10
229.901
 20
-211.934
 11
229.782
 21
-212.123
  0
LINE
  8
0
 10
229.782
 20
-212.123
 11
229.623
 21
-212.282
  0
LINE
  8
0
 10
229.623
 20
-212.282
 11
229.434
 21
-212.401
  0
LINE
  8
0
 10
229.434
 20
-212.401
 11
229.223
 21
-212.475
  0
LINE
  8
0
 10
229.223
 20
-212.475
 11
229
 21
-212.5
  0
LINE
  8
0
 10
229
 20
-212.5
 11
-229
 21
-212.5
  0
LINE
  8
0
 10
-284.894
 20
204.274
 11
-285.128
 21
204.345
  0
LINE
  8
0
 10
-285.128
 20
204.345
 11
-285.344
 21
204.461
  0
LINE
  8
0
 10
-285.344
 20
204.461
 11
-285.534
 21
204.616
  0
LINE
  8
0
 10
-285.534
 20
204.616
 11
-285.689
 21
204.806
  0
LINE
  8
0
 10
-285.689
 20
204.806
 11
-285.805
 21
205.022
  0
LINE
  8
0
 10
-285.805
 20
205.022
 11
-285.876
 21
205.256
  0
LINE
  8
0
 10
-285.876
 20
205.256
 11
-285.9
 21
205.5
  0
LINE
  8
0
 10
-285.9
 20
205.5
 11
-285.876
 21
205.744
  0
LINE
  8
0
 10
-285.876
 20
205.744
 11
-285.805
 21
205.978
  0
LINE
  8
0
 10
-285.805
 20
205.978
 11
-285.689
 21
206.194
  0
LINE
  8
0
 10
-285.689
 20
206.194
 11
-285.534
 21
206.384
  0
LINE
  8
0
 10
-285.534
 20
206.384
 11
-285.344
 21
206.539
  0
LINE
  8
0
 10
-285.344
 20
206.539
 11
-285.128
 21
206.655
  0
LINE
  8
0
 10
-285.128
 20
206.655
 11
-284.894
 21
206.726
  0
LINE
  8
0
 10
-284.894
 20
206.726
 11
-284.65
 21
206.75
  0
LINE
  8
0
 10
-284.65
 20
206.75
 11
-284.406
 21
206.726
  0
LINE
  8
0
 10
-284.406
 20
206.726
 11
-284.172
 21
206.655
  0
LINE
  8
0
 10
-284.172
 20
206.655
 11
-283.956
 21
206.539
  0
LINE
  8
0
 10
-283.956
 20
206.539
 11
-283.766
 21
206.384
  0
LINE
  8
0
 10
-283.766
 20
206.384
 11
-283.611
 21
206.194
  0
LINE
  8
0
 10
-283.611
 20
206.194
 11
-283.495
 21
205.978
  0
LINE
  8
0
 10
-283.495
 20
205.978
 11
-283.424
 21
205.744
  0
LINE
  8
0
 10
-283.424
 20
205.744
 11
-283.4
 21
205.5
  0
LINE
  8
0
 10
-283.4
 20
205.5
 11
-283.424
 21
205.256
  0
LINE
  8
0
 10
-283.424
 20
205.256
 11
-283.495
 21
205.022
  0
LINE
  8
0
 10
-283.495
 20
205.022
 11
-283.611
 21
204.806
  0
LINE
  8
0
 10
-283.611
 20
204.806
 11
-283.766
 21
204.616
  0
LINE
  8
0
 10
-283.766
 20
204.616
 11
-283.956
 21
204.461
  0
LINE
  8
0
 10
-283.956
 20
204.461
 11
-284.172
 21
204.345
  0
LINE
  8
0
 10
-284.172
 20
204.345
 11
-284.406
 21
204.274
  0
LINE
  8
0
 10
-284.406
 20
204.274
 11
-284.65
 21
204.25
  0
LINE
  8
0
 10
-284.65
 20
204.25
 11
-284.894
 21
204.274
  0
LINE
  8
0
 10
-237.686
 20
195.81
 11
-237.93
 21
195.855
  0
LINE
  8
0
 10
-237.93
 20
195.855
 11
-238.165
 21
195.935
  0
LINE
  8
0
 10
-238.165
 20
195.935
 11
-238.386
 21
196.049
  0
LINE
  8
0
 10
-238.386
 20
196.049
 11
-238.587
 21
196.193
  0
LINE
  8
0
 10
-238.587
 20
196.193
 11
-238.766
 21
196.366
  0
LINE
  8
0
 10
-238.766
 20
196.366
 11
-238.918
 21
196.562
  0
LINE
  8
0
 10
-238.918
 20
196.562
 11
-239.039
 21
196.778
  0
LINE
  8
0
 10
-239.039
 20
196.778
 11
-239.128
 21
197.01
  0
LINE
  8
0
 10
-239.128
 20
197.01
 11
-239.182
 21
197.252
  0
LINE
  8
0
 10
-239.182
 20
197.252
 11
-239.2
 21
197.5
  0
LINE
  8
0
 10
-239.2
 20
197.5
 11
-239.182
 21
197.748
  0
LINE
  8
0
 10
-239.182
 20
197.748
 11
-239.128
 21
197.99
  0
LINE
  8
0
 10
-239.128
 20
197.99
 11
-239.039
 21
198.222
  0
LINE
  8
0
 10
-239.039
 20
198.222
 11
-238.918
 21
198.438
  0
LINE
  8
0
 10
-238.918
 20
198.438
 11
-238.766
 21
198.634
  0
LINE
  8
0
 10
-238.766
 20
198.634
 11
-238.587
 21
198.807
  0
LINE
  8
0
 10
-238.587
 20
198.807
 11
-238.386
 21
198.951
  0
LINE
  8
0
 10
-238.386
 20
198.951
 11
-238.165
 21
199.065
  0
LINE
  8
0
 10
-238.165
 20
199.065
 11
-237.93
 21
199.145
  0
LINE
  8
0
 10
-237.93
 20
199.145
 11
-237.686
 21
199.19
  0
LINE
  8
0
 10
-237.686
 20
199.19
 11
-237.438
 21
199.199
  0
LINE
  8
0
 10
-237.438
 20
199.199
 11
-237.191
 21
199.172
  0
LINE
  8
0
 10
-237.191
 20
199.172
 11
-236.951
 21
199.109
  0
LINE
  8
0
 10
-236.951
 20
199.109
 11
-236.723
 21
199.012
  0
LINE
  8
0
 10
-236.723
 20
199.012
 11
-236.511
 21
198.883
  0
LINE
  8
0
 10
-236.511
 20
198.883
 11
-236.32
 21
198.724
  0
LINE
  8
0
 10
-236.32
 20
198.724
 11
-236.154
 21
198.539
  0
LINE
  8
0
 10
-236.154
 20
198.539
 11
-236.018
 21
198.332
  0
LINE
  8
0
 10
-236.018
 20
198.332
 11
-235.912
 21
198.107
  0
LINE
  8
0
 10
-235.912
 20
198.107
 11
-235.841
 21
197.87
  0
LINE
  8
0
 10
-235.841
 20
197.87
 11
-235.805
 21
197.624
  0
LINE
  8
0
 10
-235.805
 20
197.624
 11
-235.805
 21
197.376
  0
LINE
  8
0
 10
-235.805
 20
197.376
 11
-235.841
 21
197.13
  0
LINE
  8
0
 10
-235.841
 20
197.13
 11
-235.912
 21
196.893
  0
LINE
  8
0
 10
-235.912
 20
196.893
 11
-236.018
 21
196.668
  0
LINE
  8
0
 10
-236.018
 20
196.668
 11
-236.154
 21
196.461
  0
LINE
  8
0
 10
-236.154
 20
196.461
 11
-236.32
 21
196.276
  0
LINE
  8
0
 10
-236.32
 20
196.276
 11
-236.511
 21
196.117
  0
LINE
  8
0
 10
-236.511
 20
196.117
 11
-236.723
 21
195.988
  0
LINE
  8
0
 10
-236.723
 20
195.988
 11
-236.951
 21
195.891
  0
LINE
  8
0
 10
-236.951
 20
195.891
 11
-237.191
 21
195.828
  0
LINE
  8
0
 10
-237.191
 20
195.828
 11
-237.438
 21
195.801
  0
LINE
  8
0
 10
-237.438
 20
195.801
 11
-237.686
 21
195.81
  0
LINE
  8
0
 10
237.191
 20
195.828
 11
236.951
 21
195.891
  0
LINE
  8
0
 10
236.951
 20
195.891
 11
236.723
 21
195.988
  0
LINE
  8
0
 10
236.723
 20
195.988
 11
236.511
 21
196.117
  0
LINE
  8
0
 10
236.511
 20
196.117
 11
236.32
 21
196.276
  0
LINE
  8
0
 10
236.32
 20
196.276
 11
236.154
 21
196.461
  0
LINE
  8
0
 10
236.154
 20
196.461
 11
236.018
 21
196.668
  0
LINE
  8
0
 10
236.018
 20
196.668
 11
235.912
 21
196.893
  0
LINE
  8
0
 10
235.912
 20
196.893
 11
235.841
 21
197.13
  0
LINE
  8
0
 10
235.841
 20
197.13
 11
235.805
 21
197.376
  0
LINE
  8
0
 10
235.805
 20
197.376
 11
235.805
 21
197.624
  0
LINE
  8
0
 10
235.805
 20
197.624
 11
235.841
 21
197.87
  0
LINE
  8
0
 10
235.841
 20
197.87
 11
235.912
 21
198.107
  0
LINE
  8
0
 10
235.912
 20
198.107
 11
236.018
 21
198.332
  0
LINE
  8
0
 10
236.018
 20
198.332
 11
236.154
 21
198.539
  0
LINE
  8
0
 10
236.154
 20
198.539
 11
236.32
 21
198.724
  0
LINE
  8
0
 10
236.32
 20
198.724
 11
236.511
 21
198.883
  0
LINE
  8
0
 10
236.511
 20
198.883
 11
236.723
 21
199.012
  0
LINE
  8
0
 10
236.723
 20
199.012
 11
236.951
 21
199.109
  0
LINE
  8
0
 10
236.951
 20
199.109
 11
237.191
 21
199.172
  0
LINE
  8
0
 10
237.191
 20
199.172
 11
237.438
 21
199.199
  0
LINE
  8
0
 10
237.438
 20
199.199
 11
237.686
 21
199.19
  0
LINE
  8
0
 10
237.686
 20
199.19
 11
237.93
 21
199.145
  0
LINE
  8
0
 10
237.93
 20
199.145
 11
238.165
 21
199.065
  0
LINE
  8
0
 10
238.165
 20
199.065
 11
238.386
 21
198.951
  0
LINE
  8
0
 10
238.386
 20
198.951
 11
238.587
 21
198.807
  0
LINE
  8
0
 10
238.587
 20
198.807
 11
238.766
 21
198.634
  0
LINE
  8
0
 10
238.766
 20
198.634
 11
238.918
 21
198.438
  0
LINE
  8
0
 10
238.918
 20
198.438
 11
239.039
 21
198.222
  0
LINE
  8
0
 10
239.039
 20
198.222
 11
239.128
 21
197.99
  0
LINE
  8
0
 10
239.128
 20
197.99
 11
239.182
 21
197.748
  0
LINE
  8
0
 10
239.182
 20
197.748
 11
239.2
 21
197.5
  0
LINE
  8
0
 10
239.2
 20
197.5
 11
239.182
 21
197.252
  0
LINE
  8
0
 10
239.182
 20
197.252
 11
239.128
 21
197.01
  0
LINE
  8
0
 10
239.128
 20
197.01
 11
239.039
 21
196.778
  0
LINE
  8
0
 10
239.039
 20
196.778
 11
238.918
 21
196.562
  0
LINE
  8
0
 10
238.918
 20
196.562
 11
238.766
 21
196.366
  0
LINE
  8
0
 10
238.766
 20
196.366
 11
238.587
 21
196.193
  0
LINE
  8
0
 10
238.587
 20
196.193
 11
238.386
 21
196.049
  0
LINE
  8
0
 10
238.386
 20
196.049
 11
238.165
 21
195.935
  0
LINE
  8
0
 10
238.165
 20
195.935
 11
237.93
 21
195.855
  0
LINE
  8
0
 10
237.93
 20
195.855
 11
237.686
 21
195.81
  0
LINE
  8
0
 10
237.686
 20
195.81
 11
237.438
 21
195.801
  0
LINE
  8
0
 10
237.438
 20
195.801
 11
237.191
 21
195.828
  0
LINE
  8
0
 10
-264.744
 20
193.274
 11
-264.978
 21
193.345
  0
LINE
  8
0
 10
-264.978
 20
193.345
 11
-265.194
 21
193.461
  0
LINE
  8
0
 10
-265.194
 20
193.461
 11
-265.384
 21
193.616
  0
LINE
  8
0
 10
-265.384
 20
193.616
 11
-265.539
 21
193.806
  0
LINE
  8
0
 10
-265.539
 20
193.806
 11
-265.655
 21
194.022
  0
LINE
  8
0
 10
-265.655
 20
194.022
 11
-265.726
 21
194.256
  0
LINE
  8
0
 10
-265.726
 20
194.256
 11
-265.75
 21
194.5
  0
LINE
  8
0
 10
-265.75
 20
194.5
 11
-265.726
 21
194.744
  0
LINE
  8
0
 10
-265.726
 20
194.744
 11
-265.655
 21
194.978
  0
LINE
  8
0
 10
-265.655
 20
194.978
 11
-265.539
 21
195.194
  0
LINE
  8
0
 10
-265.539
 20
195.194
 11
-265.384
 21
195.384
  0
LINE
  8
0
 10
-265.384
 20
195.384
 11
-265.194
 21
195.539
  0
LINE
  8
0
 10
-265.194
 20
195.539
 11
-264.978
 21
195.655
  0
LINE
  8
0
 10
-264.978
 20
195.655
 11
-264.744
 21
195.726
  0
LINE
  8
0
 10
-264.744
 20
195.726
 11
-264.5
 21
195.75
  0
LINE
  8
0
 10
-264.5
 20
195.75
 11
-264.256
 21
195.726
  0
LINE
  8
0
 10
-264.256
 20
195.726
 11
-264.022
 21
195.655
  0
LINE
  8
0
 10
-264.022
 20
195.655
 11
-263.806
 21
195.539
  0
LINE
  8
0
 10
-263.806
 20
195.539
 11
-263.616
 21
195.384
  0
LINE
  8
0
 10
-263.616
 20
195.384
 11
-263.461
 21
195.194
  0
LINE
  8
0
 10
-263.461
 20
195.194
 11
-263.345
 21
194.978
  0
LINE
  8
0
 10
-263.345
 20
194.978
 11
-263.274
 21
194.744
  0
LINE
  8
0
 10
-263.274
 20
194.744
 11
-263.25
 21
194.5
  0
LINE
  8
0
 10
-263.25
 20
194.5
 11
-263.274
 21
194.256
  0
LINE
  8
0
 10
-263.274
 20
194.256
 11
-263.345
 21
194.022
  0
LINE
  8
0
 10
-263.345
 20
194.022
 11
-263.461
 21
193.806
  0
LINE
  8
0
 10
-263.461
 20
193.806
 11
-263.616
 21
193.616
  0
LINE
  8
0
 10
-263.616
 20
193.616
 11
-263.806
 21
193.461
  0
LINE
  8
0
 10
-263.806
 20
193.461
 11
-264.022
 21
193.345
  0
LINE
  8
0
 10
-264.022
 20
193.345
 11
-264.256
 21
193.274
  0
LINE
  8
0
 10
-264.256
 20
193.274
 11
-264.5
 21
193.25
  0
LINE
  8
0
 10
-264.5
 20
193.25
 11
-264.744
 21
193.274
  0
LINE
  8
0
 10
294.027
 20
188.355
 11
293.783
 21
188.391
  0
LINE
  8
0
 10
293.783
 20
188.391
 11
293.547
 21
188.464
  0
LINE
  8
0
 10
293.547
 20
188.464
 11
293.325
 21
188.571
  0
LINE
  8
0
 10
293.325
 20
188.571
 11
293.121
 21
188.71
  0
LINE
  8
0
 10
293.121
 20
188.71
 11
292.94
 21
188.878
  0
LINE
  8
0
 10
292.94
 20
188.878
 11
292.787
 21
189.071
  0
LINE
  8
0
 10
292.787
 20
189.071
 11
292.663
 21
189.284
  0
LINE
  8
0
 10
292.663
 20
189.284
 11
292.573
 21
189.514
  0
LINE
  8
0
 10
292.573
 20
189.514
 11
292.518
 21
189.754
  0
LINE
  8
0
 10
292.518
 20
189.754
 11
292.5
 21
190
  0
LINE
  8
0
 10
292.5
 20
190
 11
292.518
 21
190.246
  0
LINE
  8
0
 10
292.518
 20
190.246
 11
292.573
 21
190.486
  0
LINE
  8
0
 10
292.573
 20
190.486
 11
292.663
 21
190.716
  0
LINE
  8
0
 10
292.663
 20
190.716
 11
292.787
 21
190.929
  0
LINE
  8
0
 10
292.787
 20
190.929
 11
292.94
 21
191.122
  0
LINE
  8
0
 10
292.94
 20
191.122
 11
293.121
 21
191.29
  0
LINE
  8
0
 10
293.121
 20
191.29
 11
293.325
 21
191.429
  0
LINE
  8
0
 10
293.325
 20
191.429
 11
293.547
 21
191.536
  0
LINE
  8
0
 10
293.547
 20
191.536
 11
293.783
 21
191.609
  0
LINE
  8
0
 10
293.783
 20
191.609
 11
294.027
 21
191.645
  0
LINE
  8
0
 10
294.027
 20
191.645
 11
302.273
 21
191.645
  0
LINE
  8
0
 10
302.273
 20
191.645
 11
302.517
 21
191.609
  0
LINE
  8
0
 10
302.517
 20
191.609
 11
302.753
 21
191.536
  0
LINE
  8
0
 10
302.753
 20
191.536
 11
302.975
 21
191.429
  0
LINE
  8
0
 10
302.975
 20
191.429
 11
303.179
 21
191.29
  0
LINE
  8
0
 10
303.179
 20
191.29
 11
303.36
 21
191.122
  0
LINE
  8
0
 10
303.36
 20
191.122
 11
303.513
 21
190.929
  0
LINE
  8
0
 10
303.513
 20
190.929
 11
303.637
 21
190.716
  0
LINE
  8
0
 10
303.637
 20
190.716
 11
303.727
 21
190.486
  0
LINE
  8
0
 10
303.727
 20
190.486
 11
303.782
 21
190.246
  0
LINE
  8
0
 10
303.782
 20
190.246
 11
303.8
 21
190
  0
LINE
  8
0
 10
303.8
 20
190
 11
303.782
 21
189.754
  0
LINE
  8
0
 10
303.782
 20
189.754
 11
303.727
 21
189.514
  0
LINE
  8
0
 10
303.727
 20
189.514
 11
303.637
 21
189.284
  0
LINE
  8
0
 10
303.637
 20
189.284
 11
303.513
 21
189.071
  0
LINE
  8
0
 10
303.513
 20
189.071
 11
303.36
 21
188.878
  0
LINE
  8
0
 10
303.36
 20
188.878
 11
303.179
 21
188.71
  0
LINE
  8
0
 10
303.179
 20
188.71
 11
302.975
 21
188.571
  0
LINE
  8
0
 10
302.975
 20
188.571
 11
302.753
 21
188.464
  0
LINE
  8
0
 10
302.753
 20
188.464
 11
302.517
 21
188.391
  0
LINE
  8
0
 10
302.517
 20
188.391
 11
302.273
 21
188.355
  0
LINE
  8
0
 10
302.273
 20
188.355
 11
294.027
 21
188.355
  0
LINE
  8
0
 10
263.027
 20
188.355
 11
262.783
 21
188.391
  0
LINE
  8
0
 10
262.783
 20
188.391
 11
262.547
 21
188.464
  0
LINE
  8
0
 10
262.547
 20
188.464
 11
262.325
 21
188.571
  0
LINE
  8
0
 10
262.325
 20
188.571
 11
262.121
 21
188.71
  0
LINE
  8
0
 10
262.121
 20
188.71
 11
261.94
 21
188.878
  0
LINE
  8
0
 10
261.94
 20
188.878
 11
261.787
 21
189.071
  0
LINE
  8
0
 10
261.787
 20
189.071
 11
261.663
 21
189.284
  0
LINE
  8
0
 10
261.663
 20
189.284
 11
261.573
 21
189.514
  0
LINE
  8
0
 10
261.573
 20
189.514
 11
261.518
 21
189.754
  0
LINE
  8
0
 10
261.518
 20
189.754
 11
261.5
 21
190
  0
LINE
  8
0
 10
261.5
 20
190
 11
261.518
 21
190.246
  0
LINE
  8
0
 10
261.518
 20
190.246
 11
261.573
 21
190.486
  0
LINE
  8
0
 10
261.573
 20
190.486
 11
261.663
 21
190.716
  0
LINE
  8
0
 10
261.663
 20
190.716
 11
261.787
 21
190.929
  0
LINE
  8
0
 10
261.787
 20
190.929
 11
261.94
 21
191.122
  0
LINE
  8
0
 10
261.94
 20
191.122
 11
262.121
 21
191.29
  0
LINE
  8
0
 10
262.121
 20
191.29
 11
262.325
 21
191.429
  0
LINE
  8
0
 10
262.325
 20
191.429
 11
262.547
 21
191.536
  0
LINE
  8
0
 10
262.547
 20
191.536
 11
262.783
 21
191.609
  0
LINE
  8
0
 10
262.783
 20
191.609
 11
263.027
 21
191.645
  0
LINE
  8
0
 10
263.027
 20
191.645
 11
271.273
 21
191.645
  0
LINE
  8
0
 10
271.273
 20
191.645
 11
271.517
 21
191.609
  0
LINE
  8
0
 10
271.517
 20
191.609
 11
271.753
 21
191.536
  0
LINE
  8
0
 10
271.753
 20
191.536
 11
271.975
 21
191.429
  0
LINE
  8
0
 10
271.975
 20
191.429
 11
272.179
 21
191.29
  0
LINE
  8
0
 10
272.179
 20
191.29
 11
272.36
 21
191.122
  0
LINE
  8
0
 10
272.36
 20
191.122
 11
272.513
 21
190.929
  0
LINE
  8
0
 10
272.513
 20
190.929
 11
272.637
 21
190.716
  0
LINE
  8
0
 10
272.637
 20
190.716
 11
272.727
 21
190.486
  0
LINE
  8
0
 10
272.727
 20
190.486
 11
272.782
 21
190.246
  0
LINE
  8
0
 10
272.782
 20
190.246
 11
272.8
 21
190
  0
LINE
  8
0
 10
272.8
 20
190
 11
272.782
 21
189.754
  0
LINE
  8
0
 10
272.782
 20
189.754
 11
272.727
 21
189.514
  0
LINE
  8
0
 10
272.727
 20
189.514
 11
272.637
 21
189.284
  0
LINE
  8
0
 10
272.637
 20
189.284
 11
272.513
 21
189.071
  0
LINE
  8
0
 10
272.513
 20
189.071
 11
272.36
 21
188.878
  0
LINE
  8
0
 10
272.36
 20
188.878
 11
272.179
 21
188.71
  0
LINE
  8
0
 10
272.179
 20
188.71
 11
271.975
 21
188.571
  0
LINE
  8
0
 10
271.975
 20
188.571
 11
271.753
 21
188.464
  0
LINE
  8
0
 10
271.753
 20
188.464
 11
271.517
 21
188.391
  0
LINE
  8
0
 10
271.517
 20
188.391
 11
271.273
 21
188.355
  0
LINE
  8
0
 10
271.273
 20
188.355
 11
263.027
 21
188.355
  0
LINE
  8
0
 10
237.251
 20
67.4345
 11
237.007
 21
67.4875
  0
LINE
  8
0
 10
237.007
 20
67.4875
 11
236.773
 21
67.5748
  0
LINE
  8
0
 10
236.773
 20
67.5748
 11
236.554
 21
67.6945
  0
LINE
  8
0
 10
236.554
 20
67.6945
 11
236.354
 21
67.8441
  0
LINE
  8
0
 10
236.354
 20
67.8441
 11
236.177
 21
68.0207
  0
LINE
  8
0
 10
236.177
 20
68.0207
 11
236.028
 21
68.2205
  0
LINE
  8
0
 10
236.028
 20
68.2205
 11
235.908
 21
68.4397
  0
LINE
  8
0
 10
235.908
 20
68.4397
 11
235.821
 21
68.6736
  0
LINE
  8
0
 10
235.821
 20
68.6736
 11
235.768
 21
68.9176
  0
LINE
  8
0
 10
235.768
 20
68.9176
 11
235.75
 21
69.1667
  0
LINE
  8
0
 10
235.75
 20
69.1667
 11
235.75
 21
169.167
  0
LINE
  8
0
 10
235.75
 20
169.167
 11
235.768
 21
169.416
  0
LINE
  8
0
 10
235.768
 20
169.416
 11
235.821
 21
169.66
  0
LINE
  8
0
 10
235.821
 20
169.66
 11
235.908
 21
169.894
  0
LINE
  8
0
 10
235.908
 20
169.894
 11
236.028
 21
170.113
  0
LINE
  8
0
 10
236.028
 20
170.113
 11
236.177
 21
170.313
  0
LINE
  8
0
 10
236.177
 20
170.313
 11
236.354
 21
170.489
  0
LINE
  8
0
 10
236.354
 20
170.489
 11
236.554
 21
170.639
  0
LINE
  8
0
 10
236.554
 20
170.639
 11
236.773
 21
170.759
  0
LINE
  8
0
 10
236.773
 20
170.759
 11
237.007
 21
170.846
  0
LINE
  8
0
 10
237.007
 20
170.846
 11
237.251
 21
170.899
  0
LINE
  8
0
 10
237.251
 20
170.899
 11
237.5
 21
170.917
  0
LINE
  8
0
 10
237.5
 20
170.917
 11
237.749
 21
170.899
  0
LINE
  8
0
 10
237.749
 20
170.899
 11
237.993
 21
170.846
  0
LINE
  8
0
 10
237.993
 20
170.846
 11
238.227
 21
170.759
  0
LINE
  8
0
 10
238.227
 20
170.759
 11
238.446
 21
170.639
  0
LINE
  8
0
 10
238.446
 20
170.639
 11
238.646
 21
170.489
  0
LINE
  8
0
 10
238.646
 20
170.489
 11
238.823
 21
170.313
  0
LINE
  8
0
 10
238.823
 20
170.313
 11
238.972
 21
170.113
  0
LINE
  8
0
 10
238.972
 20
170.113
 11
239.092
 21
169.894
  0
LINE
  8
0
 10
239.092
 20
169.894
 11
239.179
 21
169.66
  0
LINE
  8
0
 10
239.179
 20
169.66
 11
239.232
 21
169.416
  0
LINE
  8
0
 10
239.232
 20
169.416
 11
239.25
 21
169.167
  0
LINE
  8
0
 10
239.25
 20
169.167
 11
239.25
 21
69.1667
  0
LINE
  8
0
 10
239.25
 20
69.1667
 11
239.232
 21
68.9176
  0
LINE
  8
0
 10
239.232
 20
68.9176
 11
239.179
 21
68.6736
  0
LINE
  8
0
 10
239.179
 20
68.6736
 11
239.092
 21
68.4397
  0
LINE
  8
0
 10
239.092
 20
68.4397
 11
238.972
 21
68.2205
  0
LINE
  8
0
 10
238.972
 20
68.2205
 11
238.823
 21
68.0207
  0
LINE
  8
0
 10
238.823
 20
68.0207
 11
238.646
 21
67.8441
  0
LINE
  8
0
 10
238.646
 20
67.8441
 11
238.446
 21
67.6945
  0
LINE
  8
0
 10
238.446
 20
67.6945
 11
238.227
 21
67.5748
  0
LINE
  8
0
 10
238.227
 20
67.5748
 11
237.993
 21
67.4875
  0
LINE
  8
0
 10
237.993
 20
67.4875
 11
237.749
 21
67.4345
  0
LINE
  8
0
 10
237.749
 20
67.4345
 11
237.5
 21
67.4167
  0
LINE
  8
0
 10
237.5
 20
67.4167
 11
237.251
 21
67.4345
  0
LINE
  8
0
 10
-237.749
 20
67.4345
 11
-237.993
 21
67.4875
  0
LINE
  8
0
 10
-237.993
 20
67.4875
 11
-238.227
 21
67.5748
  0
LINE
  8
0
 10
-238.227
 20
67.5748
 11
-238.446
 21
67.6945
  0
LINE
  8
0
 10
-238.446
 20
67.6945
 11
-238.646
 21
67.8441
  0
LINE
  8
0
 10
-238.646
 20
67.8441
 11
-238.823
 21
68.0207
  0
LINE
  8
0
 10
-238.823
 20
68.0207
 11
-238.972
 21
68.2205
  0
LINE
  8
0
 10
-238.972
 20
68.2205
 11
-239.092
 21
68.4397
  0
LINE
  8
0
 10
-239.092
 20
68.4397
 11
-239.179
 21
68.6736
  0
LINE
  8
0
 10
-239.179
 20
68.6736
 11
-239.232
 21
68.9176
  0
LINE
  8
0
 10
-239.232
 20
68.9176
 11
-239.25
 21
69.1667
  0
LINE
  8
0
 10
-239.25
 20
69.1667
 11
-239.25
 21
169.167
  0
LINE
  8
0
 10
-239.25
 20
169.167
 11
-239.232
 21
169.416
  0
LINE
  8
0
 10
-239.232
 20
169.416
 11
-239.179
 21
169.66
  0
LINE
  8
0
 10
-239.179
 20
169.66
 11
-239.092
 21
169.894
  0
LINE
  8
0
 10
-239.092
 20
169.894
 11
-238.972
 21
170.113
  0
LINE
  8
0
 10
-238.972
 20
170.113
 11
-238.823
 21
170.313
  0
LINE
  8
0
 10
-238.823
 20
170.313
 11
-238.646
 21
170.489
  0
LINE
  8
0
 10
-238.646
 20
170.489
 11
-238.446
 21
170.639
  0
LINE
  8
0
 10
-238.446
 20
170.639
 11
-238.227
 21
170.759
  0
LINE
  8
0
 10
-238.227
 20
170.759
 11
-237.993
 21
170.846
  0
LINE
  8
0
 10
-237.993
 20
170.846
 11
-237.749
 21
170.899
  0
LINE
  8
0
 10
-237.749
 20
170.899
 11
-237.5
 21
170.917
  0
LINE
  8
0
 10
-237.5
 20
170.917
 11
-237.251
 21
170.899
  0
LINE
  8
0
 10
-237.251
 20
170.899
 11
-237.007
 21
170.846
  0
LINE
  8
0
 10
-237.007
 20
170.846
 11
-236.773
 21
170.759
  0
LINE
  8
0
 10
-236.773
 20
170.759
 11
-236.554
 21
170.639
  0
LINE
  8
0
 10
-236.554
 20
170.639
 11
-236.354
 21
170.489
  0
LINE
  8
0
 10
-236.354
 20
170.489
 11
-236.177
 21
170.313
  0
LINE
  8
0
 10
-236.177
 20
170.313
 11
-236.028
 21
170.113
  0
LINE
  8
0
 10
-236.028
 20
170.113
 11
-235.908
 21
169.894
  0
LINE
  8
0
 10
-235.908
 20
169.894
 11
-235.821
 21
169.66
  0
LINE
  8
0
 10
-235.821
 20
169.66
 11
-235.768
 21
169.416
  0
LINE
  8
0
 10
-235.768
 20
169.416
 11
-235.75
 21
169.167
  0
LINE
  8
0
 10
-235.75
 20
169.167
 11
-235.75
 21
69.1667
  0
LINE
  8
0
 10
-235.75
 20
69.1667
 11
-235.768
 21
68.9176
  0
LINE
  8
0
 10
-235.768
 20
68.9176
 11
-235.821
 21
68.6736
  0
LINE
  8
0
 10
-235.821
 20
68.6736
 11
-235.908
 21
68.4397
  0
LINE
  8
0
 10
-235.908
 20
68.4397
 11
-236.028
 21
68.2205
  0
LINE
  8
0
 10
-236.028
 20
68.2205
 11
-236.177
 21
68.0207
  0
LINE
  8
0
 10
-236.177
 20
68.0207
 11
-236.354
 21
67.8441
  0
LINE
  8
0
 10
-236.354
 20
67.8441
 11
-236.554
 21
67.6945
  0
LINE
  8
0
 10
-236.554
 20
67.6945
 11
-236.773
 21
67.5748
  0
LINE
  8
0
 10
-236.773
 20
67.5748
 11
-237.007
 21
67.4875
  0
LINE
  8
0
 10
-237.007
 20
67.4875
 11
-237.251
 21
67.4345
  0
LINE
  8
0
 10
-237.251
 20
67.4345
 11
-237.5
 21
67.4167
  0
LINE
  8
0
 10
-237.5
 20
67.4167
 11
-237.749
 21
67.4345
  0
LINE
  8
0
 10
294.816
 20
56.0617
 11
294.575
 21
56.1136
  0
LINE
  8
0
 10
294.575
 20
56.1136
 11
294.347
 21
56.2052
  0
LINE
  8
0
 10
294.347
 20
56.2052
 11
294.138
 21
56.3342
  0
LINE
  8
0
 10
294.138
 20
56.3342
 11
293.953
 21
56.4967
  0
LINE
  8
0
 10
293.953
 20
56.4967
 11
293.799
 21
56.688
  0
LINE
  8
0
 10
293.799
 20
56.688
 11
293.679
 21
56.9027
  0
LINE
  8
0
 10
293.679
 20
56.9027
 11
293.597
 21
57.1346
  0
LINE
  8
0
 10
293.597
 20
57.1346
 11
293.555
 21
57.377
  0
LINE
  8
0
 10
293.555
 20
57.377
 11
293.555
 21
57.623
  0
LINE
  8
0
 10
293.555
 20
57.623
 11
293.597
 21
57.8654
  0
LINE
  8
0
 10
293.597
 20
57.8654
 11
293.679
 21
58.0972
  0
LINE
  8
0
 10
293.679
 20
58.0972
 11
293.799
 21
58.312
  0
LINE
  8
0
 10
293.799
 20
58.312
 11
293.953
 21
58.5033
  0
LINE
  8
0
 10
293.953
 20
58.5033
 11
294.138
 21
58.6658
  0
LINE
  8
0
 10
294.138
 20
58.6658
 11
294.347
 21
58.7947
  0
LINE
  8
0
 10
294.347
 20
58.7947
 11
294.575
 21
58.8864
  0
LINE
  8
0
 10
294.575
 20
58.8864
 11
294.816
 21
58.9382
  0
LINE
  8
0
 10
294.816
 20
58.9382
 11
295.062
 21
58.9487
  0
LINE
  8
0
 10
295.062
 20
58.9487
 11
295.305
 21
58.9174
  0
LINE
  8
0
 10
295.305
 20
58.9174
 11
295.541
 21
58.8454
  0
LINE
  8
0
 10
295.541
 20
58.8454
 11
295.76
 21
58.7347
  0
LINE
  8
0
 10
295.76
 20
58.7347
 11
295.958
 21
58.5885
  0
LINE
  8
0
 10
295.958
 20
58.5885
 11
296.128
 21
58.4109
  0
LINE
  8
0
 10
296.128
 20
58.4109
 11
296.266
 21
58.2072
  0
LINE
  8
0
 10
296.266
 20
58.2072
 11
296.367
 21
57.983
  0
LINE
  8
0
 10
296.367
 20
57.983
 11
296.429
 21
57.745
  0
LINE
  8
0
 10
296.429
 20
57.745
 11
296.45
 21
57.5
  0
LINE
  8
0
 10
296.45
 20
57.5
 11
296.429
 21
57.2549
  0
LINE
  8
0
 10
296.429
 20
57.2549
 11
296.367
 21
57.0169
  0
LINE
  8
0
 10
296.367
 20
57.0169
 11
296.266
 21
56.7928
  0
LINE
  8
0
 10
296.266
 20
56.7928
 11
296.128
 21
56.5891
  0
LINE
  8
0
 10
296.128
 20
56.5891
 11
295.958
 21
56.4115
  0
LINE
  8
0
 10
295.958
 20
56.4115
 11
295.76
 21
56.2653
  0
LINE
  8
0
 10
295.76
 20
56.2653
 11
295.541
 21
56.1546
  0
LINE
  8
0
 10
295.541
 20
56.1546
 11
295.305
 21
56.0825
  0
LINE
  8
0
 10
295.305
 20
56.0825
 11
295.062
 21
56.0513
  0
LINE
  8
0
 10
295.062
 20
56.0513
 11
294.816
 21
56.0617
  0
LINE
  8
0
 10
-295.305
 20
56.0825
 11
-295.541
 21
56.1546
  0
LINE
  8
0
 10
-295.541
 20
56.1546
 11
-295.76
 21
56.2653
  0
LINE
  8
0
 10
-295.76
 20
56.2653
 11
-295.958
 21
56.4115
  0
LINE
  8
0
 10
-295.958
 20
56.4115
 11
-296.128
 21
56.5891
  0
LINE
  8
0
 10
-296.128
 20
56.5891
 11
-296.266
 21
56.7928
  0
LINE
  8
0
 10
-296.266
 20
56.7928
 11
-296.367
 21
57.0169
  0
LINE
  8
0
 10
-296.367
 20
57.0169
 11
-296.429
 21
57.2549
  0
LINE
  8
0
 10
-296.429
 20
57.2549
 11
-296.45
 21
57.5
  0
LINE
  8
0
 10
-296.45
 20
57.5
 11
-296.429
 21
57.745
  0
LINE
  8
0
 10
-296.429
 20
57.745
 11
-296.367
 21
57.983
  0
LINE
  8
0
 10
-296.367
 20
57.983
 11
-296.266
 21
58.2072
  0
LINE
  8
0
 10
-296.266
 20
58.2072
 11
-296.128
 21
58.4109
  0
LINE
  8
0
 10
-296.128
 20
58.4109
 11
-295.958
 21
58.5885
  0
LINE
  8
0
 10
-295.958
 20
58.5885
 11
-295.76
 21
58.7347
  0
LINE
  8
0
 10
-295.76
 20
58.7347
 11
-295.541
 21
58.8454
  0
LINE
  8
0
 10
-295.541
 20
58.8454
 11
-295.305
 21
58.9174
  0
LINE
  8
0
 10
-295.305
 20
58.9174
 11
-295.062
 21
58.9487
  0
LINE
  8
0
 10
-295.062
 20
58.9487
 11
-294.816
 21
58.9382
  0
LINE
  8
0
 10
-294.816
 20
58.9382
 11
-294.575
 21
58.8864
  0
LINE
  8
0
 10
-294.575
 20
58.8864
 11
-294.347
 21
58.7947
  0
LINE
  8
0
 10
-294.347
 20
58.7947
 11
-294.138
 21
58.6658
  0
LINE
  8
0
 10
-294.138
 20
58.6658
 11
-293.953
 21
58.5033
  0
LINE
  8
0
 10
-293.953
 20
58.5033
 11
-293.799
 21
58.312
  0
LINE
  8
0
 10
-293.799
 20
58.312
 11
-293.679
 21
58.0972
  0
LINE
  8
0
 10
-293.679
 20
58.0972
 11
-293.597
 21
57.8654
  0
LINE
  8
0
 10
-293.597
 20
57.8654
 11
-293.555
 21
57.623
  0
LINE
  8
0
 10
-293.555
 20
57.623
 11
-293.555
 21
57.377
  0
LINE
  8
0
 10
-293.555
 20
57.377
 11
-293.597
 21
57.1346
  0
LINE
  8
0
 10
-293.597
 20
57.1346
 11
-293.679
 21
56.9027
  0
LINE
  8
0
 10
-293.679
 20
56.9027
 11
-293.799
 21
56.688
  0
LINE
  8
0
 10
-293.799
 20
56.688
 11
-293.953
 21
56.4967
  0
LINE
  8
0
 10
-293.953
 20
56.4967
 11
-294.138
 21
56.3342
  0
LINE
  8
0
 10
-294.138
 20
56.3342
 11
-294.347
 21
56.2052
  0
LINE
  8
0
 10
-294.347
 20
56.2052
 11
-294.575
 21
56.1136
  0
LINE
  8
0
 10
-294.575
 20
56.1136
 11
-294.816
 21
56.0617
  0
LINE
  8
0
 10
-294.816
 20
56.0617
 11
-295.062
 21
56.0513
  0
LINE
  8
0
 10
-295.062
 20
56.0513
 11
-295.305
 21
56.0825
  0
LINE
  8
0
 10
237.251
 20
-50.8988
 11
237.007
 21
-50.8458
  0
LINE
  8
0
 10
237.007
 20
-50.8458
 11
236.773
 21
-50.7585
  0
LINE
  8
0
 10
236.773
 20
-50.7585
 11
236.554
 21
-50.6389
  0
LINE
  8
0
 10
236.554
 20
-50.6389
 11
236.354
 21
-50.4892
  0
LINE
  8
0
 10
236.354
 20
-50.4892
 11
236.177
 21
-50.3127
  0
LINE
  8
0
 10
236.177
 20
-50.3127
 11
236.028
 21
-50.1128
  0
LINE
  8
0
 10
236.028
 20
-50.1128
 11
235.908
 21
-49.8936
  0
LINE
  8
0
 10
235.908
 20
-49.8936
 11
235.821
 21
-49.6597
  0
LINE
  8
0
 10
235.821
 20
-49.6597
 11
235.768
 21
-49.4157
  0
LINE
  8
0
 10
235.768
 20
-49.4157
 11
235.75
 21
-49.1667
  0
LINE
  8
0
 10
235.75
 20
-49.1667
 11
235.75
 21
50.8333
  0
LINE
  8
0
 10
235.75
 20
50.8333
 11
235.768
 21
51.0824
  0
LINE
  8
0
 10
235.768
 20
51.0824
 11
235.821
 21
51.3264
  0
LINE
  8
0
 10
235.821
 20
51.3264
 11
235.908
 21
51.5603
  0
LINE
  8
0
 10
235.908
 20
51.5603
 11
236.028
 21
51.7794
  0
LINE
  8
0
 10
236.028
 20
51.7794
 11
236.177
 21
51.9793
  0
LINE
  8
0
 10
236.177
 20
51.9793
 11
236.354
 21
52.1559
  0
LINE
  8
0
 10
236.354
 20
52.1559
 11
236.554
 21
52.3055
  0
LINE
  8
0
 10
236.554
 20
52.3055
 11
236.773
 21
52.4252
  0
LINE
  8
0
 10
236.773
 20
52.4252
 11
237.007
 21
52.5124
  0
LINE
  8
0
 10
237.007
 20
52.5124
 11
237.251
 21
52.5655
  0
LINE
  8
0
 10
237.251
 20
52.5655
 11
237.5
 21
52.5833
  0
LINE
  8
0
 10
237.5
 20
52.5833
 11
237.749
 21
52.5655
  0
LINE
  8
0
 10
237.749
 20
52.5655
 11
237.993
 21
52.5124
  0
LINE
  8
0
 10
237.993
 20
52.5124
 11
238.227
 21
52.4252
  0
LINE
  8
0
 10
238.227
 20
52.4252
 11
238.446
 21
52.3055
  0
LINE
  8
0
 10
238.446
 20
52.3055
 11
238.646
 21
52.1559
  0
LINE
  8
0
 10
238.646
 20
52.1559
 11
238.823
 21
51.9793
  0
LINE
  8
0
 10
238.823
 20
51.9793
 11
238.972
 21
51.7794
  0
LINE
  8
0
 10
238.972
 20
51.7794
 11
239.092
 21
51.5603
  0
LINE
  8
0
 10
239.092
 20
51.5603
 11
239.179
 21
51.3264
  0
LINE
  8
0
 10
239.179
 20
51.3264
 11
239.232
 21
51.0824
  0
LINE
  8
0
 10
239.232
 20
51.0824
 11
239.25
 21
50.8333
  0
LINE
  8
0
 10
239.25
 20
50.8333
 11
239.25
 21
-49.1667
  0
LINE
  8
0
 10
239.25
 20
-49.1667
 11
239.232
 21
-49.4157
  0
LINE
  8
0
 10
239.232
 20
-49.4157
 11
239.179
 21
-49.6597
  0
LINE
  8
0
 10
239.179
 20
-49.6597
 11
239.092
 21
-49.8936
  0
LINE
  8
0
 10
239.092
 20
-49.8936
 11
238.972
 21
-50.1128
  0
LINE
  8
0
 10
238.972
 20
-50.1128
 11
238.823
 21
-50.3127
  0
LINE
  8
0
 10
238.823
 20
-50.3127
 11
238.646
 21
-50.4892
  0
LINE
  8
0
 10
238.646
 20
-50.4892
 11
238.446
 21
-50.6389
  0
LINE
  8
0
 10
238.446
 20
-50.6389
 11
238.227
 21
-50.7585
  0
LINE
  8
0
 10
238.227
 20
-50.7585
 11
237.993
 21
-50.8458
  0
LINE
  8
0
 10
237.993
 20
-50.8458
 11
237.749
 21
-50.8988
  0
LINE
  8
0
 10
237.749
 20
-50.8988
 11
237.5
 21
-50.9167
  0
LINE
  8
0
 10
237.5
 20
-50.9167
 11
237.251
 21
-50.8988
  0
LINE
  8
0
 10
-237.749
 20
-50.8988
 11
-237.993
 21
-50.8458
  0
LINE
  8
0
 10
-237.993
 20
-50.8458
 11
-238.227
 21
-50.7585
  0
LINE
  8
0
 10
-238.227
 20
-50.7585
 11
-238.446
 21
-50.6389
  0
LINE
  8
0
 10
-238.446
 20
-50.6389
 11
-238.646
 21
-50.4892
  0
LINE
  8
0
 10
-238.646
 20
-50.4892
 11
-238.823
 21
-50.3127
  0
LINE
  8
0
 10
-238.823
 20
-50.3127
 11
-238.972
 21
-50.1128
  0
LINE
  8
0
 10
-238.972
 20
-50.1128
 11
-239.092
 21
-49.8936
  0
LINE
  8
0
 10
-239.092
 20
-49.8936
 11
-239.179
 21
-49.6597
  0
LINE
  8
0
 10
-239.179
 20
-49.6597
 11
-239.232
 21
-49.4157
  0
LINE
  8
0
 10
-239.232
 20
-49.4157
 11
-239.25
 21
-49.1667
  0
LINE
  8
0
 10
-239.25
 20
-49.1667
 11
-239.25
 21
50.8333
  0
LINE
  8
0
 10
-239.25
 20
50.8333
 11
-239.232
 21
51.0824
  0
LINE
  8
0
 10
-239.232
 20
51.0824
 11
-239.179
 21
51.3264
  0
LINE
  8
0
 10
-239.179
 20
51.3264
 11
-239.092
 21
51.5603
  0
LINE
  8
0
 10
-239.092
 20
51.5603
 11
-238.972
 21
51.7794
  0
LINE
  8
0
 10
-238.972
 20
51.7794
 11
-238.823
 21
51.9793
  0
LINE
  8
0
 10
-238.823
 20
51.9793
 11
-238.646
 21
52.1559
  0
LINE
  8
0
 10
-238.646
 20
52.1559
 11
-238.446
 21
52.3055
  0
LINE
  8
0
 10
-238.446
 20
52.3055
 11
-238.227
 21
52.4252
  0
LINE
  8
0
 10
-238.227
 20
52.4252
 11
-237.993
 21
52.5124
  0
LINE
  8
0
 10
-237.993
 20
52.5124
 11
-237.749
 21
52.5655
  0
LINE
  8
0
 10
-237.749
 20
52.5655
 11
-237.5
 21
52.5833
  0
LINE
  8
0
 10
-237.5
 20
52.5833
 11
-237.251
 21
52.5655
  0
LINE
  8
0
 10
-237.251
 20
52.5655
 11
-237.007
 21
52.5124
  0
LINE
  8
0
 10
-237.007
 20
52.5124
 11
-236.773
 21
52.4252
  0
LINE
  8
0
 10
-236.773
 20
52.4252
 11
-236.554
 21
52.3055
  0
LINE
  8
0
 10
-236.554
 20
52.3055
 11
-236.354
 21
52.1559
  0
LINE
  8
0
 10
-236.354
 20
52.1559
 11
-236.177
 21
51.9793
  0
LINE
  8
0
 10
-236.177
 20
51.9793
 11
-236.028
 21
51.7794
  0
LINE
  8
0
 10
-236.028
 20
51.7794
 11
-235.908
 21
51.5603
  0
LINE
  8
0
 10
-235.908
 20
51.5603
 11
-235.821
 21
51.3264
  0
LINE
  8
0
 10
-235.821
 20
51.3264
 11
-235.768
 21
51.0824
  0
LINE
  8
0
 10
-235.768
 20
51.0824
 11
-235.75
 21
50.8333
  0
LINE
  8
0
 10
-235.75
 20
50.8333
 11
-235.75
 21
-49.1667
  0
LINE
  8
0
 10
-235.75
 20
-49.1667
 11
-235.768
 21
-49.4157
  0
LINE
  8
0
 10
-235.768
 20
-49.4157
 11
-235.821
 21
-49.6597
  0
LINE
  8
0
 10
-235.821
 20
-49.6597
 11
-235.908
 21
-49.8936
  0
LINE
  8
0
 10
-235.908
 20
-49.8936
 11
-236.028
 21
-50.1128
  0
LINE
  8
0
 10
-236.028
 20
-50.1128
 11
-236.177
 21
-50.3127
  0
LINE
  8
0
 10
-236.177
 20
-50.3127
 11
-236.354
 21
-50.4892
  0
LINE
  8
0
 10
-236.354
 20
-50.4892
 11
-236.554
 21
-50.6389
  0
LINE
  8
0
 10
-236.554
 20
-50.6389
 11
-236.773
 21
-50.7585
  0
LINE
  8
0
 10
-236.773
 20
-50.7585
 11
-237.007
 21
-50.8458
  0
LINE
  8
0
 10
-237.007
 20
-50.8458
 11
-237.251
 21
-50.8988
  0
LINE
  8
0
 10
-237.251
 20
-50.8988
 11
-237.5
 21
-50.9167
  0
LINE
  8
0
 10
-237.5
 20
-50.9167
 11
-237.749
 21
-50.8988
  0
LINE
  8
0
 10
-295.251
 20
35.1131
 11
-295.499
 21
35.1524
  0
LINE
  8
0
 10
-295.499
 20
35.1524
 11
-295.742
 21
35.2175
  0
LINE
  8
0
 10
-295.742
 20
35.2175
 11
-295.976
 21
35.3075
  0
LINE
  8
0
 10
-295.976
 20
35.3075
 11
-296.2
 21
35.4215
  0
LINE
  8
0
 10
-296.2
 20
35.4215
 11
-296.411
 21
35.5583
  0
LINE
  8
0
 10
-296.411
 20
35.5583
 11
-296.606
 21
35.7164
  0
LINE
  8
0
 10
-296.606
 20
35.7164
 11
-296.784
 21
35.8941
  0
LINE
  8
0
 10
-296.784
 20
35.8941
 11
-296.942
 21
36.0893
  0
LINE
  8
0
 10
-296.942
 20
36.0893
 11
-297.078
 21
36.3
  0
LINE
  8
0
 10
-297.078
 20
36.3
 11
-297.193
 21
36.5238
  0
LINE
  8
0
 10
-297.193
 20
36.5238
 11
-297.283
 21
36.7583
  0
LINE
  8
0
 10
-297.283
 20
36.7583
 11
-297.348
 21
37.001
  0
LINE
  8
0
 10
-297.348
 20
37.001
 11
-297.387
 21
37.2491
  0
LINE
  8
0
 10
-297.387
 20
37.2491
 11
-297.4
 21
37.5
  0
LINE
  8
0
 10
-297.4
 20
37.5
 11
-297.387
 21
37.7509
  0
LINE
  8
0
 10
-297.387
 20
37.7509
 11
-297.348
 21
37.999
  0
LINE
  8
0
 10
-297.348
 20
37.999
 11
-297.283
 21
38.2416
  0
LINE
  8
0
 10
-297.283
 20
38.2416
 11
-297.193
 21
38.4762
  0
LINE
  8
0
 10
-297.193
 20
38.4762
 11
-297.078
 21
38.7
  0
LINE
  8
0
 10
-297.078
 20
38.7
 11
-296.942
 21
38.9107
  0
LINE
  8
0
 10
-296.942
 20
38.9107
 11
-296.784
 21
39.1059
  0
LINE
  8
0
 10
-296.784
 20
39.1059
 11
-296.606
 21
39.2835
  0
LINE
  8
0
 10
-296.606
 20
39.2835
 11
-296.411
 21
39.4416
  0
LINE
  8
0
 10
-296.411
 20
39.4416
 11
-296.2
 21
39.5785
  0
LINE
  8
0
 10
-296.2
 20
39.5785
 11
-295.976
 21
39.6925
  0
LINE
  8
0
 10
-295.976
 20
39.6925
 11
-295.742
 21
39.7825
  0
LINE
  8
0
 10
-295.742
 20
39.7825
 11
-295.499
 21
39.8475
  0
LINE
  8
0
 10
-295.499
 20
39.8475
 11
-295.251
 21
39.8868
  0
LINE
  8
0
 10
-295.251
 20
39.8868
 11
-295
 21
39.9
  0
LINE
  8
0
 10
-295
 20
39.9
 11
-294.749
 21
39.8868
  0
LINE
  8
0
 10
-294.749
 20
39.8868
 11
-294.501
 21
39.8475
  0
LINE
  8
0
 10
-294.501
 20
39.8475
 11
-294.258
 21
39.7825
  0
LINE
  8
0
 10
-294.258
 20
39.7825
 11
-294.024
 21
39.6925
  0
LINE
  8
0
 10
-294.024
 20
39.6925
 11
-293.8
 21
39.5785
  0
LINE
  8
0
 10
-293.8
 20
39.5785
 11
-293.589
 21
39.4416
  0
LINE
  8
0
 10
-293.589
 20
39.4416
 11
-293.394
 21
39.2835
  0
LINE
  8
0
 10
-293.394
 20
39.2835
 11
-293.216
 21
39.1059
  0
LINE
  8
0
 10
-293.216
 20
39.1059
 11
-293.058
 21
38.9107
  0
LINE
  8
0
 10
-293.058
 20
38.9107
 11
-292.922
 21
38.7
  0
LINE
  8
0
 10
-292.922
 20
38.7
 11
-292.807
 21
38.4762
  0
LINE
  8
0
 10
-292.807
 20
38.4762
 11
-292.717
 21
38.2416
  0
LINE
  8
0
 10
-292.717
 20
38.2416
 11
-292.652
 21
37.999
  0
LINE
  8
0
 10
-292.652
 20
37.999
 11
-292.613
 21
37.7509
  0
LINE
  8
0
 10
-292.613
 20
37.7509
 11
-292.6
 21
37.5
  0
LINE
  8
0
 10
-292.6
 20
37.5
 11
-292.613
 21
37.2491
  0
LINE
  8
0
 10
-292.613
 20
37.2491
 11
-292.652
 21
37.001
  0
LINE
  8
0
 10
-292.652
 20
37.001
 11
-292.717
 21
36.7583
  0
LINE
  8
0
 10
-292.717
 20
36.7583
 11
-292.807
 21
36.5238
  0
LINE
  8
0
 10
-292.807
 20
36.5238
 11
-292.922
 21
36.3
  0
LINE
  8
0
 10
-292.922
 20
36.3
 11
-293.058
 21
36.0893
  0
LINE
  8
0
 10
-293.058
 20
36.0893
 11
-293.216
 21
35.8941
  0
LINE
  8
0
 10
-293.216
 20
35.8941
 11
-293.394
 21
35.7164
  0
LINE
  8
0
 10
-293.394
 20
35.7164
 11
-293.589
 21
35.5583
  0
LINE
  8
0
 10
-293.589
 20
35.5583
 11
-293.8
 21
35.4215
  0
LINE
  8
0
 10
-293.8
 20
35.4215
 11
-294.024
 21
35.3075
  0
LINE
  8
0
 10
-294.024
 20
35.3075
 11
-294.258
 21
35.2175
  0
LINE
  8
0
 10
-294.258
 20
35.2175
 11
-294.501
 21
35.1524
  0
LINE
  8
0
 10
-294.501
 20
35.1524
 11
-294.749
 21
35.1131
  0
LINE
  8
0
 10
-294.749
 20
35.1131
 11
-295
 21
35.1
  0
LINE
  8
0
 10
-295
 20
35.1
 11
-295.251
 21
35.1131
  0
LINE
  8
0
 10
294.749
 20
35.1131
 11
294.501
 21
35.1524
  0
LINE
  8
0
 10
294.501
 20
35.1524
 11
294.258
 21
35.2175
  0
LINE
  8
0
 10
294.258
 20
35.2175
 11
294.024
 21
35.3075
  0
LINE
  8
0
 10
294.024
 20
35.3075
 11
293.8
 21
35.4215
  0
LINE
  8
0
 10
293.8
 20
35.4215
 11
293.589
 21
35.5583
  0
LINE
  8
0
 10
293.589
 20
35.5583
 11
293.394
 21
35.7164
  0
LINE
  8
0
 10
293.394
 20
35.7164
 11
293.216
 21
35.8941
  0
LINE
  8
0
 10
293.216
 20
35.8941
 11
293.058
 21
36.0893
  0
LINE
  8
0
 10
293.058
 20
36.0893
 11
292.922
 21
36.3
  0
LINE
  8
0
 10
292.922
 20
36.3
 11
292.807
 21
36.5238
  0
LINE
  8
0
 10
292.807
 20
36.5238
 11
292.717
 21
36.7583
  0
LINE
  8
0
 10
292.717
 20
36.7583
 11
292.652
 21
37.001
  0
LINE
  8
0
 10
292.652
 20
37.001
 11
292.613
 21
37.2491
  0
LINE
  8
0
 10
292.613
 20
37.2491
 11
292.6
 21
37.5
  0
LINE
  8
0
 10
292.6
 20
37.5
 11
292.613
 21
37.7509
  0
LINE
  8
0
 10
292.613
 20
37.7509
 11
292.652
 21
37.999
  0
LINE
  8
0
 10
292.652
 20
37.999
 11
292.717
 21
38.2416
  0
LINE
  8
0
 10
292.717
 20
38.2416
 11
292.807
 21
38.4762
  0
LINE
  8
0
 10
292.807
 20
38.4762
 11
292.922
 21
38.7
  0
LINE
  8
0
 10
292.922
 20
38.7
 11
293.058
 21
38.9107
  0
LINE
  8
0
 10
293.058
 20
38.9107
 11
293.216
 21
39.1059
  0
LINE
  8
0
 10
293.216
 20
39.1059
 11
293.394
 21
39.2835
  0
LINE
  8
0
 10
293.394
 20
39.2835
 11
293.589
 21
39.4416
  0
LINE
  8
0
 10
293.589
 20
39.4416
 11
293.8
 21
39.5785
  0
LINE
  8
0
 10
293.8
 20
39.5785
 11
294.024
 21
39.6925
  0
LINE
  8
0
 10
294.024
 20
39.6925
 11
294.258
 21
39.7825
  0
LINE
  8
0
 10
294.258
 20
39.7825
 11
294.501
 21
39.8475
  0
LINE
  8
0
 10
294.501
 20
39.8475
 11
294.749
 21
39.8868
  0
LINE
  8
0
 10
294.749
 20
39.8868
 11
295
 21
39.9
  0
LINE
  8
0
 10
295
 20
39.9
 11
295.251
 21
39.8868
  0
LINE
  8
0
 10
295.251
 20
39.8868
 11
295.499
 21
39.8475
  0
LINE
  8
0
 10
295.499
 20
39.8475
 11
295.742
 21
39.7825
  0
LINE
  8
0
 10
295.742
 20
39.7825
 11
295.976
 21
39.6925
  0
LINE
  8
0
 10
295.976
 20
39.6925
 11
296.2
 21
39.5785
  0
LINE
  8
0
 10
296.2
 20
39.5785
 11
296.411
 21
39.4416
  0
LINE
  8
0
 10
296.411
 20
39.4416
 11
296.606
 21
39.2835
  0
LINE
  8
0
 10
296.606
 20
39.2835
 11
296.784
 21
39.1059
  0
LINE
  8
0
 10
296.784
 20
39.1059
 11
296.942
 21
38.9107
  0
LINE
  8
0
 10
296.942
 20
38.9107
 11
297.078
 21
38.7
  0
LINE
  8
0
 10
297.078
 20
38.7
 11
297.193
 21
38.4762
  0
LINE
  8
0
 10
297.193
 20
38.4762
 11
297.283
 21
38.2416
  0
LINE
  8
0
 10
297.283
 20
38.2416
 11
297.348
 21
37.999
  0
LINE
  8
0
 10
297.348
 20
37.999
 11
297.387
 21
37.7509
  0
LINE
  8
0
 10
297.387
 20
37.7509
 11
297.4
 21
37.5
  0
LINE
  8
0
 10
297.4
 20
37.5
 11
297.387
 21
37.2491
  0
LINE
  8
0
 10
297.387
 20
37.2491
 11
297.348
 21
37.001
  0
LINE
  8
0
 10
297.348
 20
37.001
 11
297.283
 21
36.7583
  0
LINE
  8
0
 10
297.283
 20
36.7583
 11
297.193
 21
36.5238
  0
LINE
  8
0
 10
297.193
 20
36.5238
 11
297.078
 21
36.3
  0
LINE
  8
0
 10
297.078
 20
36.3
 11
296.942
 21
36.0893
  0
LINE
  8
0
 10
296.942
 20
36.0893
 11
296.784
 21
35.8941
  0
LINE
  8
0
 10
296.784
 20
35.8941
 11
296.606
 21
35.7164
  0
LINE
  8
0
 10
296.606
 20
35.7164
 11
296.411
 21
35.5583
  0
LINE
  8
0
 10
296.411
 20
35.5583
 11
296.2
 21
35.4215
  0
LINE
  8
0
 10
296.2
 20
35.4215
 11
295.976
 21
35.3075
  0
LINE
  8
0
 10
295.976
 20
35.3075
 11
295.742
 21
35.2175
  0
LINE
  8
0
 10
295.742
 20
35.2175
 11
295.499
 21
35.1524
  0
LINE
  8
0
 10
295.499
 20
35.1524
 11
295.251
 21
35.1131
  0
LINE
  8
0
 10
295.251
 20
35.1131
 11
295
 21
35.1
  0
LINE
  8
0
 10
295
 20
35.1
 11
294.749
 21
35.1131
  0
LINE
  8
0
 10
-295.397
 20
13.7208
 11
-295.79
 21
13.783
  0
LINE
  8
0
 10
-295.79
 20
13.783
 11
-296.174
 21
13.886
  0
LINE
  8
0
 10
-296.174
 20
13.886
 11
-296.546
 21
14.0285
  0
LINE
  8
0
 10
-296.546
 20
14.0285
 11
-296.9
 21
14.2091
  0
LINE
  8
0
 10
-296.9
 20
14.2091
 11
-297.234
 21
14.4257
  0
LINE
  8
0
 10
-297.234
 20
14.4257
 11
-297.543
 21
14.676
  0
LINE
  8
0
 10
-297.543
 20
14.676
 11
-297.824
 21
14.9573
  0
LINE
  8
0
 10
-297.824
 20
14.9573
 11
-298.074
 21
15.2664
  0
LINE
  8
0
 10
-298.074
 20
15.2664
 11
-298.291
 21
15.6
  0
LINE
  8
0
 10
-298.291
 20
15.6
 11
-298.471
 21
15.9544
  0
LINE
  8
0
 10
-298.471
 20
15.9544
 11
-298.614
 21
16.3257
  0
LINE
  8
0
 10
-298.614
 20
16.3257
 11
-298.717
 21
16.7099
  0
LINE
  8
0
 10
-298.717
 20
16.7099
 11
-298.779
 21
17.1028
  0
LINE
  8
0
 10
-298.779
 20
17.1028
 11
-298.8
 21
17.5
  0
LINE
  8
0
 10
-298.8
 20
17.5
 11
-298.779
 21
17.8972
  0
LINE
  8
0
 10
-298.779
 20
17.8972
 11
-298.717
 21
18.2901
  0
LINE
  8
0
 10
-298.717
 20
18.2901
 11
-298.614
 21
18.6743
  0
LINE
  8
0
 10
-298.614
 20
18.6743
 11
-298.471
 21
19.0456
  0
LINE
  8
0
 10
-298.471
 20
19.0456
 11
-298.291
 21
19.4
  0
LINE
  8
0
 10
-298.291
 20
19.4
 11
-298.074
 21
19.7336
  0
LINE
  8
0
 10
-298.074
 20
19.7336
 11
-297.824
 21
20.0427
  0
LINE
  8
0
 10
-297.824
 20
20.0427
 11
-297.543
 21
20.3239
  0
LINE
  8
0
 10
-297.543
 20
20.3239
 11
-297.234
 21
20.5743
  0
LINE
  8
0
 10
-297.234
 20
20.5743
 11
-296.9
 21
20.7909
  0
LINE
  8
0
 10
-296.9
 20
20.7909
 11
-296.546
 21
20.9715
  0
LINE
  8
0
 10
-296.546
 20
20.9715
 11
-296.174
 21
21.114
  0
LINE
  8
0
 10
-296.174
 20
21.114
 11
-295.79
 21
21.2169
  0
LINE
  8
0
 10
-295.79
 20
21.2169
 11
-295.397
 21
21.2792
  0
LINE
  8
0
 10
-295.397
 20
21.2792
 11
-295
 21
21.3
  0
LINE
  8
0
 10
-295
 20
21.3
 11
-294.603
 21
21.2792
  0
LINE
  8
0
 10
-294.603
 20
21.2792
 11
-294.21
 21
21.2169
  0
LINE
  8
0
 10
-294.21
 20
21.2169
 11
-293.826
 21
21.114
  0
LINE
  8
0
 10
-293.826
 20
21.114
 11
-293.454
 21
20.9715
  0
LINE
  8
0
 10
-293.454
 20
20.9715
 11
-293.1
 21
20.7909
  0
LINE
  8
0
 10
-293.1
 20
20.7909
 11
-292.766
 21
20.5743
  0
LINE
  8
0
 10
-292.766
 20
20.5743
 11
-292.457
 21
20.3239
  0
LINE
  8
0
 10
-292.457
 20
20.3239
 11
-292.176
 21
20.0427
  0
LINE
  8
0
 10
-292.176
 20
20.0427
 11
-291.926
 21
19.7336
  0
LINE
  8
0
 10
-291.926
 20
19.7336
 11
-291.709
 21
19.4
  0
LINE
  8
0
 10
-291.709
 20
19.4
 11
-291.529
 21
19.0456
  0
LINE
  8
0
 10
-291.529
 20
19.0456
 11
-291.386
 21
18.6743
  0
LINE
  8
0
 10
-291.386
 20
18.6743
 11
-291.283
 21
18.2901
  0
LINE
  8
0
 10
-291.283
 20
18.2901
 11
-291.221
 21
17.8972
  0
LINE
  8
0
 10
-291.221
 20
17.8972
 11
-291.2
 21
17.5
  0
LINE
  8
0
 10
-291.2
 20
17.5
 11
-291.221
 21
17.1028
  0
LINE
  8
0
 10
-291.221
 20
17.1028
 11
-291.283
 21
16.7099
  0
LINE
  8
0
 10
-291.283
 20
16.7099
 11
-291.386
 21
16.3257
  0
LINE
  8
0
 10
-291.386
 20
16.3257
 11
-291.529
 21
15.9544
  0
LINE
  8
0
 10
-291.529
 20
15.9544
 11
-291.709
 21
15.6
  0
LINE
  8
0
 10
-291.709
 20
15.6
 11
-291.926
 21
15.2664
  0
LINE
  8
0
 10
-291.926
 20
15.2664
 11
-292.176
 21
14.9573
  0
LINE
  8
0
 10
-292.176
 20
14.9573
 11
-292.457
 21
14.676
  0
LINE
  8
0
 10
-292.457
 20
14.676
 11
-292.766
 21
14.4257
  0
LINE
  8
0
 10
-292.766
 20
14.4257
 11
-293.1
 21
14.2091
  0
LINE
  8
0
 10
-293.1
 20
14.2091
 11
-293.454
 21
14.0285
  0
LINE
  8
0
 10
-293.454
 20
14.0285
 11
-293.826
 21
13.886
  0
LINE
  8
0
 10
-293.826
 20
13.886
 11
-294.21
 21
13.783
  0
LINE
  8
0
 10
-294.21
 20
13.783
 11
-294.603
 21
13.7208
  0
LINE
  8
0
 10
-294.603
 20
13.7208
 11
-295
 21
13.7
  0
LINE
  8
0
 10
-295
 20
13.7
 11
-295.397
 21
13.7208
  0
LINE
  8
0
 10
294.603
 20
13.7208
 11
294.21
 21
13.783
  0
LINE
  8
0
 10
294.21
 20
13.783
 11
293.826
 21
13.886
  0
LINE
  8
0
 10
293.826
 20
13.886
 11
293.454
 21
14.0285
  0
LINE
  8
0
 10
293.454
 20
14.0285
 11
293.1
 21
14.2091
  0
LINE
  8
0
 10
293.1
 20
14.2091
 11
292.766
 21
14.4257
  0
LINE
  8
0
 10
292.766
 20
14.4257
 11
292.457
 21
14.676
  0
LINE
  8
0
 10
292.457
 20
14.676
 11
292.176
 21
14.9573
  0
LINE
  8
0
 10
292.176
 20
14.9573
 11
291.926
 21
15.2664
  0
LINE
  8
0
 10
291.926
 20
15.2664
 11
291.709
 21
15.6
  0
LINE
  8
0
 10
291.709
 20
15.6
 11
291.529
 21
15.9544
  0
LINE
  8
0
 10
291.529
 20
15.9544
 11
291.386
 21
16.3257
  0
LINE
  8
0
 10
291.386
 20
16.3257
 11
291.283
 21
16.7099
  0
LINE
  8
0
 10
291.283
 20
16.7099
 11
291.221
 21
17.1028
  0
LINE
  8
0
 10
291.221
 20
17.1028
 11
291.2
 21
17.5
  0
LINE
  8
0
 10
291.2
 20
17.5
 11
291.221
 21
17.8972
  0
LINE
  8
0
 10
291.221
 20
17.8972
 11
291.283
 21
18.2901
  0
LINE
  8
0
 10
291.283
 20
18.2901
 11
291.386
 21
18.6743
  0
LINE
  8
0
 10
291.386
 20
18.6743
 11
291.529
 21
19.0456
  0
LINE
  8
0
 10
291.529
 20
19.0456
 11
291.709
 21
19.4
  0
LINE
  8
0
 10
291.709
 20
19.4
 11
291.926
 21
19.7336
  0
LINE
  8
0
 10
291.926
 20
19.7336
 11
292.176
 21
20.0427
  0
LINE
  8
0
 10
292.176
 20
20.0427
 11
292.457
 21
20.3239
  0
LINE
  8
0
 10
292.457
 20
20.3239
 11
292.766
 21
20.5743
  0
LINE
  8
0
 10
292.766
 20
20.5743
 11
293.1
 21
20.7909
  0
LINE
  8
0
 10
293.1
 20
20.7909
 11
293.454
 21
20.9715
  0
LINE
  8
0
 10
293.454
 20
20.9715
 11
293.826
 21
21.114
  0
LINE
  8
0
 10
293.826
 20
21.114
 11
294.21
 21
21.2169
  0
LINE
  8
0
 10
294.21
 20
21.2169
 11
294.603
 21
21.2792
  0
LINE
  8
0
 10
294.603
 20
21.2792
 11
295
 21
21.3
  0
LINE
  8
0
 10
295
 20
21.3
 11
295.397
 21
21.2792
  0
LINE
  8
0
 10
295.397
 20
21.2792
 11
295.79
 21
21.2169
  0
LINE
  8
0
 10
295.79
 20
21.2169
 11
296.174
 21
21.114
  0
LINE
  8
0
 10
296.174
 20
21.114
 11
296.546
 21
20.9715
  0
LINE
  8
0
 10
296.546
 20
20.9715
 11
296.9
 21
20.7909
  0
LINE
  8
0
 10
296.9
 20
20.7909
 11
297.234
 21
20.5743
  0
LINE
  8
0
 10
297.234
 20
20.5743
 11
297.543
 21
20.3239
  0
LINE
  8
0
 10
297.543
 20
20.3239
 11
297.824
 21
20.0427
  0
LINE
  8
0
 10
297.824
 20
20.0427
 11
298.074
 21
19.7336
  0
LINE
  8
0
 10
298.074
 20
19.7336
 11
298.291
 21
19.4
  0
LINE
  8
0
 10
298.291
 20
19.4
 11
298.471
 21
19.0456
  0
LINE
  8
0
 10
298.471
 20
19.0456
 11
298.614
 21
18.6743
  0
LINE
  8
0
 10
298.614
 20
18.6743
 11
298.717
 21
18.2901
  0
LINE
  8
0
 10
298.717
 20
18.2901
 11
298.779
 21
17.8972
  0
LINE
  8
0
 10
298.779
 20
17.8972
 11
298.8
 21
17.5
  0
LINE
  8
0
 10
298.8
 20
17.5
 11
298.779
 21
17.1028
  0
LINE
  8
0
 10
298.779
 20
17.1028
 11
298.717
 21
16.7099
  0
LINE
  8
0
 10
298.717
 20
16.7099
 11
298.614
 21
16.3257
  0
LINE
  8
0
 10
298.614
 20
16.3257
 11
298.471
 21
15.9544
  0
LINE
  8
0
 10
298.471
 20
15.9544
 11
298.291
 21
15.6
  0
LINE
  8
0
 10
298.291
 20
15.6
 11
298.074
 21
15.2664
  0
LINE
  8
0
 10
298.074
 20
15.2664
 11
297.824
 21
14.9573
  0
LINE
  8
0
 10
297.824
 20
14.9573
 11
297.543
 21
14.676
  0
LINE
  8
0
 10
297.543
 20
14.676
 11
297.234
 21
14.4257
  0
LINE
  8
0
 10
297.234
 20
14.4257
 11
296.9
 21
14.2091
  0
LINE
  8
0
 10
296.9
 20
14.2091
 11
296.546
 21
14.0285
  0
LINE
  8
0
 10
296.546
 20
14.0285
 11
296.174
 21
13.886
  0
LINE
  8
0
 10
296.174
 20
13.886
 11
295.79
 21
13.783
  0
LINE
  8
0
 10
295.79
 20
13.783
 11
295.397
 21
13.7208
  0
LINE
  8
0
 10
295.397
 20
13.7208
 11
295
 21
13.7
  0
LINE
  8
0
 10
295
 20
13.7
 11
294.603
 21
13.7208
  0
LINE
  8
0
 10
-295.397
 20
-21.2792
 11
-295.79
 21
-21.2169
  0
LINE
  8
0
 10
-295.79
 20
-21.2169
 11
-296.174
 21
-21.114
  0
LINE
  8
0
 10
-296.174
 20
-21.114
 11
-296.546
 21
-20.9715
  0
LINE
  8
0
 10
-296.546
 20
-20.9715
 11
-296.9
 21
-20.7909
  0
LINE
  8
0
 10
-296.9
 20
-20.7909
 11
-297.234
 21
-20.5743
  0
LINE
  8
0
 10
-297.234
 20
-20.5743
 11
-297.543
 21
-20.3239
  0
LINE
  8
0
 10
-297.543
 20
-20.3239
 11
-297.824
 21
-20.0427
  0
LINE
  8
0
 10
-297.824
 20
-20.0427
 11
-298.074
 21
-19.7336
  0
LINE
  8
0
 10
-298.074
 20
-19.7336
 11
-298.291
 21
-19.4
  0
LINE
  8
0
 10
-298.291
 20
-19.4
 11
-298.471
 21
-19.0456
  0
LINE
  8
0
 10
-298.471
 20
-19.0456
 11
-298.614
 21
-18.6743
  0
LINE
  8
0
 10
-298.614
 20
-18.6743
 11
-298.717
 21
-18.2901
  0
LINE
  8
0
 10
-298.717
 20
-18.2901
 11
-298.779
 21
-17.8972
  0
LINE
  8
0
 10
-298.779
 20
-17.8972
 11
-298.8
 21
-17.5
  0
LINE
  8
0
 10
-298.8
 20
-17.5
 11
-298.779
 21
-17.1028
  0
LINE
  8
0
 10
-298.779
 20
-17.1028
 11
-298.717
 21
-16.7099
  0
LINE
  8
0
 10
-298.717
 20
-16.7099
 11
-298.614
 21
-16.3257
  0
LINE
  8
0
 10
-298.614
 20
-16.3257
 11
-298.471
 21
-15.9544
  0
LINE
  8
0
 10
-298.471
 20
-15.9544
 11
-298.291
 21
-15.6
  0
LINE
  8
0
 10
-298.291
 20
-15.6
 11
-298.074
 21
-15.2664
  0
LINE
  8
0
 10
-298.074
 20
-15.2664
 11
-297.824
 21
-14.9573
  0
LINE
  8
0
 10
-297.824
 20
-14.9573
 11
-297.543
 21
-14.676
  0
LINE
  8
0
 10
-297.543
 20
-14.676
 11
-297.234
 21
-14.4257
  0
LINE
  8
0
 10
-297.234
 20
-14.4257
 11
-296.9
 21
-14.2091
  0
LINE
  8
0
 10
-296.9
 20
-14.2091
 11
-296.546
 21
-14.0285
  0
LINE
  8
0
 10
-296.546
 20
-14.0285
 11
-296.174
 21
-13.886
  0
LINE
  8
0
 10
-296.174
 20
-13.886
 11
-295.79
 21
-13.783
  0
LINE
  8
0
 10
-295.79
 20
-13.783
 11
-295.397
 21
-13.7208
  0
LINE
  8
0
 10
-295.397
 20
-13.7208
 11
-295
 21
-13.7
  0
LINE
  8
0
 10
-295
 20
-13.7
 11
-294.603
 21
-13.7208
  0
LINE
  8
0
 10
-294.603
 20
-13.7208
 11
-294.21
 21
-13.783
  0
LINE
  8
0
 10
-294.21
 20
-13.783
 11
-293.826
 21
-13.886
  0
LINE
  8
0
 10
-293.826
 20
-13.886
 11
-293.454
 21
-14.0285
  0
LINE
  8
0
 10
-293.454
 20
-14.0285
 11
-293.1
 21
-14.2091
  0
LINE
  8
0
 10
-293.1
 20
-14.2091
 11
-292.766
 21
-14.4257
  0
LINE
  8
0
 10
-292.766
 20
-14.4257
 11
-292.457
 21
-14.676
  0
LINE
  8
0
 10
-292.457
 20
-14.676
 11
-292.176
 21
-14.9573
  0
LINE
  8
0
 10
-292.176
 20
-14.9573
 11
-291.926
 21
-15.2664
  0
LINE
  8
0
 10
-291.926
 20
-15.2664
 11
-291.709
 21
-15.6
  0
LINE
  8
0
 10
-291.709
 20
-15.6
 11
-291.529
 21
-15.9544
  0
LINE
  8
0
 10
-291.529
 20
-15.9544
 11
-291.386
 21
-16.3257
  0
LINE
  8
0
 10
-291.386
 20
-16.3257
 11
-291.283
 21
-16.7099
  0
LINE
  8
0
 10
-291.283
 20
-16.7099
 11
-291.221
 21
-17.1028
  0
LINE
  8
0
 10
-291.221
 20
-17.1028
 11
-291.2
 21
-17.5
  0
LINE
  8
0
 10
-291.2
 20
-17.5
 11
-291.221
 21
-17.8972
  0
LINE
  8
0
 10
-291.221
 20
-17.8972
 11
-291.283
 21
-18.2901
  0
LINE
  8
0
 10
-291.283
 20
-18.2901
 11
-291.386
 21
-18.6743
  0
LINE
  8
0
 10
-291.386
 20
-18.6743
 11
-291.529
 21
-19.0456
  0
LINE
  8
0
 10
-291.529
 20
-19.0456
 11
-291.709
 21
-19.4
  0
LINE
  8
0
 10
-291.709
 20
-19.4
 11
-291.926
 21
-19.7336
  0
LINE
  8
0
 10
-291.926
 20
-19.7336
 11
-292.176
 21
-20.0427
  0
LINE
  8
0
 10
-292.176
 20
-20.0427
 11
-292.457
 21
-20.3239
  0
LINE
  8
0
 10
-292.457
 20
-20.3239
 11
-292.766
 21
-20.5743
  0
LINE
  8
0
 10
-292.766
 20
-20.5743
 11
-293.1
 21
-20.7909
  0
LINE
  8
0
 10
-293.1
 20
-20.7909
 11
-293.454
 21
-20.9715
  0
LINE
  8
0
 10
-293.454
 20
-20.9715
 11
-293.826
 21
-21.114
  0
LINE
  8
0
 10
-293.826
 20
-21.114
 11
-294.21
 21
-21.2169
  0
LINE
  8
0
 10
-294.21
 20
-21.2169
 11
-294.603
 21
-21.2792
  0
LINE
  8
0
 10
-294.603
 20
-21.2792
 11
-295
 21
-21.3
  0
LINE
  8
0
 10
-295
 20
-21.3
 11
-295.397
 21
-21.2792
  0
LINE
  8
0
 10
294.603
 20
-21.2792
 11
294.21
 21
-21.2169
  0
LINE
  8
0
 10
294.21
 20
-21.2169
 11
293.826
 21
-21.114
  0
LINE
  8
0
 10
293.826
 20
-21.114
 11
293.454
 21
-20.9715
  0
LINE
  8
0
 10
293.454
 20
-20.9715
 11
293.1
 21
-20.7909
  0
LINE
  8
0
 10
293.1
 20
-20.7909
 11
292.766
 21
-20.5743
  0
LINE
  8
0
 10
292.766
 20
-20.5743
 11
292.457
 21
-20.3239
  0
LINE
  8
0
 10
292.457
 20
-20.3239
 11
292.176
 21
-20.0427
  0
LINE
  8
0
 10
292.176
 20
-20.0427
 11
291.926
 21
-19.7336
  0
LINE
  8
0
 10
291.926
 20
-19.7336
 11
291.709
 21
-19.4
  0
LINE
  8
0
 10
291.709
 20
-19.4
 11
291.529
 21
-19.0456
  0
LINE
  8
0
 10
291.529
 20
-19.0456
 11
291.386
 21
-18.6743
  0
LINE
  8
0
 10
291.386
 20
-18.6743
 11
291.283
 21
-18.2901
  0
LINE
  8
0
 10
291.283
 20
-18.2901
 11
291.221
 21
-17.8972
  0
LINE
  8
0
 10
291.221
 20
-17.8972
 11
291.2
 21
-17.5
  0
LINE
  8
0
 10
291.2
 20
-17.5
 11
291.221
 21
-17.1028
  0
LINE
  8
0
 10
291.221
 20
-17.1028
 11
291.283
 21
-16.7099
  0
LINE
  8
0
 10
291.283
 20
-16.7099
 11
291.386
 21
-16.3257
  0
LINE
  8
0
 10
291.386
 20
-16.3257
 11
291.529
 21
-15.9544
  0
LINE
  8
0
 10
291.529
 20
-15.9544
 11
291.709
 21
-15.6
  0
LINE
  8
0
 10
291.709
 20
-15.6
 11
291.926
 21
-15.2664
  0
LINE
  8
0
 10
291.926
 20
-15.2664
 11
292.176
 21
-14.9573
  0
LINE
  8
0
 10
292.176
 20
-14.9573
 11
292.457
 21
-14.676
  0
LINE
  8
0
 10
292.457
 20
-14.676
 11
292.766
 21
-14.4257
  0
LINE
  8
0
 10
292.766
 20
-14.4257
 11
293.1
 21
-14.2091
  0
LINE
  8
0
 10
293.1
 20
-14.2091
 11
293.454
 21
-14.0285
  0
LINE
  8
0
 10
293.454
 20
-14.0285
 11
293.826
 21
-13.886
  0
LINE
  8
0
 10
293.826
 20
-13.886
 11
294.21
 21
-13.783
  0
LINE
  8
0
 10
294.21
 20
-13.783
 11
294.603
 21
-13.7208
  0
LINE
  8
0
 10
294.603
 20
-13.7208
 11
295
 21
-13.7
  0
LINE
  8
0
 10
295
 20
-13.7
 11
295.397
 21
-13.7208
  0
LINE
  8
0
 10
295.397
 20
-13.7208
 11
295.79
 21
-13.783
  0
LINE
  8
0
 10
295.79
 20
-13.783
 11
296.174
 21
-13.886
  0
LINE
  8
0
 10
296.174
 20
-13.886
 11
296.546
 21
-14.0285
  0
LINE
  8
0
 10
296.546
 20
-14.0285
 11
296.9
 21
-14.2091
  0
LINE
  8
0
 10
296.9
 20
-14.2091
 11
297.234
 21
-14.4257
  0
LINE
  8
0
 10
297.234
 20
-14.4257
 11
297.543
 21
-14.676
  0
LINE
  8
0
 10
297.543
 20
-14.676
 11
297.824
 21
-14.9573
  0
LINE
  8
0
 10
297.824
 20
-14.9573
 11
298.074
 21
-15.2664
  0
LINE
  8
0
 10
298.074
 20
-15.2664
 11
298.291
 21
-15.6
  0
LINE
  8
0
 10
298.291
 20
-15.6
 11
298.471
 21
-15.9544
  0
LINE
  8
0
 10
298.471
 20
-15.9544
 11
298.614
 21
-16.3257
  0
LINE
  8
0
 10
298.614
 20
-16.3257
 11
298.717
 21
-16.7099
  0
LINE
  8
0
 10
298.717
 20
-16.7099
 11
298.779
 21
-17.1028
  0
LINE
  8
0
 10
298.779
 20
-17.1028
 11
298.8
 21
-17.5
  0
LINE
  8
0
 10
298.8
 20
-17.5
 11
298.779
 21
-17.8972
  0
LINE
  8
0
 10
298.779
 20
-17.8972
 11
298.717
 21
-18.2901
  0
LINE
  8
0
 10
298.717
 20
-18.2901
 11
298.614
 21
-18.6743
  0
LINE
  8
0
 10
298.614
 20
-18.6743
 11
298.471
 21
-19.0456
  0
LINE
  8
0
 10
298.471
 20
-19.0456
 11
298.291
 21
-19.4
  0
LINE
  8
0
 10
298.291
 20
-19.4
 11
298.074
 21
-19.7336
  0
LINE
  8
0
 10
298.074
 20
-19.7336
 11
297.824
 21
-20.0427
  0
LINE
  8
0
 10
297.824
 20
-20.0427
 11
297.543
 21
-20.3239
  0
LINE
  8
0
 10
297.543
 20
-20.3239
 11
297.234
 21
-20.5743
  0
LINE
  8
0
 10
297.234
 20
-20.5743
 11
296.9
 21
-20.7909
  0
LINE
  8
0
 10
296.9
 20
-20.7909
 11
296.546
 21
-20.9715
  0
LINE
  8
0
 10
296.546
 20
-20.9715
 11
296.174
 21
-21.114
  0
LINE
  8
0
 10
296.174
 20
-21.114
 11
295.79
 21
-21.2169
  0
LINE
  8
0
 10
295.79
 20
-21.2169
 11
295.397
 21
-21.2792
  0
LINE
  8
0
 10
295.397
 20
-21.2792
 11
295
 21
-21.3
  0
LINE
  8
0
 10
295
 20
-21.3
 11
294.603
 21
-21.2792
  0
LINE
  8
0
 10
294.749
 20
-39.8868
 11
294.501
 21
-39.8475
  0
LINE
  8
0
 10
294.501
 20
-39.8475
 11
294.258
 21
-39.7825
  0
LINE
  8
0
 10
294.258
 20
-39.7825
 11
294.024
 21
-39.6925
  0
LINE
  8
0
 10
294.024
 20
-39.6925
 11
293.8
 21
-39.5785
  0
LINE
  8
0
 10
293.8
 20
-39.5785
 11
293.589
 21
-39.4416
  0
LINE
  8
0
 10
293.589
 20
-39.4416
 11
293.394
 21
-39.2835
  0
LINE
  8
0
 10
293.394
 20
-39.2835
 11
293.216
 21
-39.1059
  0
LINE
  8
0
 10
293.216
 20
-39.1059
 11
293.058
 21
-38.9107
  0
LINE
  8
0
 10
293.058
 20
-38.9107
 11
292.922
 21
-38.7
  0
LINE
  8
0
 10
292.922
 20
-38.7
 11
292.807
 21
-38.4762
  0
LINE
  8
0
 10
292.807
 20
-38.4762
 11
292.717
 21
-38.2416
  0
LINE
  8
0
 10
292.717
 20
-38.2416
 11
292.652
 21
-37.999
  0
LINE
  8
0
 10
292.652
 20
-37.999
 11
292.613
 21
-37.7509
  0
LINE
  8
0
 10
292.613
 20
-37.7509
 11
292.6
 21
-37.5
  0
LINE
  8
0
 10
292.6
 20
-37.5
 11
292.613
 21
-37.2491
  0
LINE
  8
0
 10
292.613
 20
-37.2491
 11
292.652
 21
-37.001
  0
LINE
  8
0
 10
292.652
 20
-37.001
 11
292.717
 21
-36.7583
  0
LINE
  8
0
 10
292.717
 20
-36.7583
 11
292.807
 21
-36.5238
  0
LINE
  8
0
 10
292.807
 20
-36.5238
 11
292.922
 21
-36.3
  0
LINE
  8
0
 10
292.922
 20
-36.3
 11
293.058
 21
-36.0893
  0
LINE
  8
0
 10
293.058
 20
-36.0893
 11
293.216
 21
-35.8941
  0
LINE
  8
0
 10
293.216
 20
-35.8941
 11
293.394
 21
-35.7164
  0
LINE
  8
0
 10
293.394
 20
-35.7164
 11
293.589
 21
-35.5583
  0
LINE
  8
0
 10
293.589
 20
-35.5583
 11
293.8
 21
-35.4215
  0
LINE
  8
0
 10
293.8
 20
-35.4215
 11
294.024
 21
-35.3075
  0
LINE
  8
0
 10
294.024
 20
-35.3075
 11
294.258
 21
-35.2175
  0
LINE
  8
0
 10
294.258
 20
-35.2175
 11
294.501
 21
-35.1524
  0
LINE
  8
0
 10
294.501
 20
-35.1524
 11
294.749
 21
-35.1131
  0
LINE
  8
0
 10
294.749
 20
-35.1131
 11
295
 21
-35.1
  0
LINE
  8
0
 10
295
 20
-35.1
 11
295.251
 21
-35.1131
  0
LINE
  8
0
 10
295.251
 20
-35.1131
 11
295.499
 21
-35.1524
  0
LINE
  8
0
 10
295.499
 20
-35.1524
 11
295.742
 21
-35.2175
  0
LINE
  8
0
 10
295.742
 20
-35.2175
 11
295.976
 21
-35.3075
  0
LINE
  8
0
 10
295.976
 20
-35.3075
 11
296.2
 21
-35.4215
  0
LINE
  8
0
 10
296.2
 20
-35.4215
 11
296.411
 21
-35.5583
  0
LINE
  8
0
 10
296.411
 20
-35.5583
 11
296.606
 21
-35.7164
  0
LINE
  8
0
 10
296.606
 20
-35.7164
 11
296.784
 21
-35.8941
  0
LINE
  8
0
 10
296.784
 20
-35.8941
 11
296.942
 21
-36.0893
  0
LINE
  8
0
 10
296.942
 20
-36.0893
 11
297.078
 21
-36.3
  0
LINE
  8
0
 10
297.078
 20
-36.3
 11
297.193
 21
-36.5238
  0
LINE
  8
0
 10
297.193
 20
-36.5238
 11
297.283
 21
-36.7583
  0
LINE
  8
0
 10
297.283
 20
-36.7583
 11
297.348
 21
-37.001
  0
LINE
  8
0
 10
297.348
 20
-37.001
 11
297.387
 21
-37.2491
  0
LINE
  8
0
 10
297.387
 20
-37.2491
 11
297.4
 21
-37.5
  0
LINE
  8
0
 10
297.4
 20
-37.5
 11
297.387
 21
-37.7509
  0
LINE
  8
0
 10
297.387
 20
-37.7509
 11
297.348
 21
-37.999
  0
LINE
  8
0
 10
297.348
 20
-37.999
 11
297.283
 21
-38.2416
  0
LINE
  8
0
 10
297.283
 20
-38.2416
 11
297.193
 21
-38.4762
  0
LINE
  8
0
 10
297.193
 20
-38.4762
 11
297.078
 21
-38.7
  0
LINE
  8
0
 10
297.078
 20
-38.7
 11
296.942
 21
-38.9107
  0
LINE
  8
0
 10
296.942
 20
-38.9107
 11
296.784
 21
-39.1059
  0
LINE
  8
0
 10
296.784
 20
-39.1059
 11
296.606
 21
-39.2835
  0
LINE
  8
0
 10
296.606
 20
-39.2835
 11
296.411
 21
-39.4416
  0
LINE
  8
0
 10
296.411
 20
-39.4416
 11
296.2
 21
-39.5785
  0
LINE
  8
0
 10
296.2
 20
-39.5785
 11
295.976
 21
-39.6925
  0
LINE
  8
0
 10
295.976
 20
-39.6925
 11
295.742
 21
-39.7825
  0
LINE
  8
0
 10
295.742
 20
-39.7825
 11
295.499
 21
-39.8475
  0
LINE
  8
0
 10
295.499
 20
-39.8475
 11
295.251
 21
-39.8868
  0
LINE
  8
0
 10
295.251
 20
-39.8868
 11
295
 21
-39.9
  0
LINE
  8
0
 10
295
 20
-39.9
 11
294.749
 21
-39.8868
  0
LINE
  8
0
 10
-295.251
 20
-39.8868
 11
-295.499
 21
-39.8475
  0
LINE
  8
0
 10
-295.499
 20
-39.8475
 11
-295.742
 21
-39.7825
  0
LINE
  8
0
 10
-295.742
 20
-39.7825
 11
-295.976
 21
-39.6925
  0
LINE
  8
0
 10
-295.976
 20
-39.6925
 11
-296.2
 21
-39.5785
  0
LINE
  8
0
 10
-296.2
 20
-39.5785
 11
-296.411
 21
-39.4416
  0
LINE
  8
0
 10
-296.411
 20
-39.4416
 11
-296.606
 21
-39.2835
  0
LINE
  8
0
 10
-296.606
 20
-39.2835
 11
-296.784
 21
-39.1059
  0
LINE
  8
0
 10
-296.784
 20
-39.1059
 11
-296.942
 21
-38.9107
  0
LINE
  8
0
 10
-296.942
 20
-38.9107
 11
-297.078
 21
-38.7
  0
LINE
  8
0
 10
-297.078
 20
-38.7
 11
-297.193
 21
-38.4762
  0
LINE
  8
0
 10
-297.193
 20
-38.4762
 11
-297.283
 21
-38.2416
  0
LINE
  8
0
 10
-297.283
 20
-38.2416
 11
-297.348
 21
-37.999
  0
LINE
  8
0
 10
-297.348
 20
-37.999
 11
-297.387
 21
-37.7509
  0
LINE
  8
0
 10
-297.387
 20
-37.7509
 11
-297.4
 21
-37.5
  0
LINE
  8
0
 10
-297.4
 20
-37.5
 11
-297.387
 21
-37.2491
  0
LINE
  8
0
 10
-297.387
 20
-37.2491
 11
-297.348
 21
-37.001
  0
LINE
  8
0
 10
-297.348
 20
-37.001
 11
-297.283
 21
-36.7583
  0
LINE
  8
0
 10
-297.283
 20
-36.7583
 11
-297.193
 21
-36.5238
  0
LINE
  8
0
 10
-297.193
 20
-36.5238
 11
-297.078
 21
-36.3
  0
LINE
  8
0
 10
-297.078
 20
-36.3
 11
-296.942
 21
-36.0893
  0
LINE
  8
0
 10
-296.942
 20
-36.0893
 11
-296.784
 21
-35.8941
  0
LINE
  8
0
 10
-296.784
 20
-35.8941
 11
-296.606
 21
-35.7164
  0
LINE
  8
0
 10
-296.606
 20
-35.7164
 11
-296.411
 21
-35.5583
  0
LINE
  8
0
 10
-296.411
 20
-35.5583
 11
-296.2
 21
-35.4215
  0
LINE
  8
0
 10
-296.2
 20
-35.4215
 11
-295.976
 21
-35.3075
  0
LINE
  8
0
 10
-295.976
 20
-35.3075
 11
-295.742
 21
-35.2175
  0
LINE
  8
0
 10
-295.742
 20
-35.2175
 11
-295.499
 21
-35.1524
  0
LINE
  8
0
 10
-295.499
 20
-35.1524
 11
-295.251
 21
-35.1131
  0
LINE
  8
0
 10
-295.251
 20
-35.1131
 11
-295
 21
-35.1
  0
LINE
  8
0
 10
-295
 20
-35.1
 11
-294.749
 21
-35.1131
  0
LINE
  8
0
 10
-294.749
 20
-35.1131
 11
-294.501
 21
-35.1524
  0
LINE
  8
0
 10
-294.501
 20
-35.1524
 11
-294.258
 21
-35.2175
  0
LINE
  8
0
 10
-294.258
 20
-35.2175
 11
-294.024
 21
-35.3075
  0
LINE
  8
0
 10
-294.024
 20
-35.3075
 11
-293.8
 21
-35.4215
  0
LINE
  8
0
 10
-293.8
 20
-35.4215
 11
-293.589
 21
-35.5583
  0
LINE
  8
0
 10
-293.589
 20
-35.5583
 11
-293.394
 21
-35.7164
  0
LINE
  8
0
 10
-293.394
 20
-35.7164
 11
-293.216
 21
-35.8941
  0
LINE
  8
0
 10
-293.216
 20
-35.8941
 11
-293.058
 21
-36.0893
  0
LINE
  8
0
 10
-293.058
 20
-36.0893
 11
-292.922
 21
-36.3
  0
LINE
  8
0
 10
-292.922
 20
-36.3
 11
-292.807
 21
-36.5238
  0
LINE
  8
0
 10
-292.807
 20
-36.5238
 11
-292.717
 21
-36.7583
  0
LINE
  8
0
 10
-292.717
 20
-36.7583
 11
-292.652
 21
-37.001
  0
LINE
  8
0
 10
-292.652
 20
-37.001
 11
-292.613
 21
-37.2491
  0
LINE
  8
0
 10
-292.613
 20
-37.2491
 11
-292.6
 21
-37.5
  0
LINE
  8
0
 10
-292.6
 20
-37.5
 11
-292.613
 21
-37.7509
  0
LINE
  8
0
 10
-292.613
 20
-37.7509
 11
-292.652
 21
-37.999
  0
LINE
  8
0
 10
-292.652
 20
-37.999
 11
-292.717
 21
-38.2416
  0
LINE
  8
0
 10
-292.717
 20
-38.2416
 11
-292.807
 21
-38.4762
  0
LINE
  8
0
 10
-292.807
 20
-38.4762
 11
-292.922
 21
-38.7
  0
LINE
  8
0
 10
-292.922
 20
-38.7
 11
-293.058
 21
-38.9107
  0
LINE
  8
0
 10
-293.058
 20
-38.9107
 11
-293.216
 21
-39.1059
  0
LINE
  8
0
 10
-293.216
 20
-39.1059
 11
-293.394
 21
-39.2835
  0
LINE
  8
0
 10
-293.394
 20
-39.2835
 11
-293.589
 21
-39.4416
  0
LINE
  8
0
 10
-293.589
 20
-39.4416
 11
-293.8
 21
-39.5785
  0
LINE
  8
0
 10
-293.8
 20
-39.5785
 11
-294.024
 21
-39.6925
  0
LINE
  8
0
 10
-294.024
 20
-39.6925
 11
-294.258
 21
-39.7825
  0
LINE
  8
0
 10
-294.258
 20
-39.7825
 11
-294.501
 21
-39.8475
  0
LINE
  8
0
 10
-294.501
 20
-39.8475
 11
-294.749
 21
-39.8868
  0
LINE
  8
0
 10
-294.749
 20
-39.8868
 11
-295
 21
-39.9
  0
LINE
  8
0
 10
-295
 20
-39.9
 11
-295.251
 21
-39.8868
  0
LINE
  8
0
 10
294.816
 20
-58.9382
 11
294.575
 21
-58.8864
  0
LINE
  8
0
 10
294.575
 20
-58.8864
 11
294.347
 21
-58.7947
  0
LINE
  8
0
 10
294.347
 20
-58.7947
 11
294.138
 21
-58.6658
  0
LINE
  8
0
 10
294.138
 20
-58.6658
 11
293.953
 21
-58.5033
  0
LINE
  8
0
 10
293.953
 20
-58.5033
 11
293.799
 21
-58.312
  0
LINE
  8
0
 10
293.799
 20
-58.312
 11
293.679
 21
-58.0972
  0
LINE
  8
0
 10
293.679
 20
-58.0972
 11
293.597
 21
-57.8654
  0
LINE
  8
0
 10
293.597
 20
-57.8654
 11
293.555
 21
-57.623
  0
LINE
  8
0
 10
293.555
 20
-57.623
 11
293.555
 21
-57.377
  0
LINE
  8
0
 10
293.555
 20
-57.377
 11
293.597
 21
-57.1346
  0
LINE
  8
0
 10
293.597
 20
-57.1346
 11
293.679
 21
-56.9027
  0
LINE
  8
0
 10
293.679
 20
-56.9027
 11
293.799
 21
-56.688
  0
LINE
  8
0
 10
293.799
 20
-56.688
 11
293.953
 21
-56.4967
  0
LINE
  8
0
 10
293.953
 20
-56.4967
 11
294.138
 21
-56.3342
  0
LINE
  8
0
 10
294.138
 20
-56.3342
 11
294.347
 21
-56.2052
  0
LINE
  8
0
 10
294.347
 20
-56.2052
 11
294.575
 21
-56.1136
  0
LINE
  8
0
 10
294.575
 20
-56.1136
 11
294.816
 21
-56.0617
  0
LINE
  8
0
 10
294.816
 20
-56.0617
 11
295.062
 21
-56.0513
  0
LINE
  8
0
 10
295.062
 20
-56.0513
 11
295.305
 21
-56.0825
  0
LINE
  8
0
 10
295.305
 20
-56.0825
 11
295.541
 21
-56.1546
  0
LINE
  8
0
 10
295.541
 20
-56.1546
 11
295.76
 21
-56.2653
  0
LINE
  8
0
 10
295.76
 20
-56.2653
 11
295.958
 21
-56.4115
  0
LINE
  8
0
 10
295.958
 20
-56.4115
 11
296.128
 21
-56.5891
  0
LINE
  8
0
 10
296.128
 20
-56.5891
 11
296.266
 21
-56.7928
  0
LINE
  8
0
 10
296.266
 20
-56.7928
 11
296.367
 21
-57.0169
  0
LINE
  8
0
 10
296.367
 20
-57.0169
 11
296.429
 21
-57.2549
  0
LINE
  8
0
 10
296.429
 20
-57.2549
 11
296.45
 21
-57.5
  0
LINE
  8
0
 10
296.45
 20
-57.5
 11
296.429
 21
-57.745
  0
LINE
  8
0
 10
296.429
 20
-57.745
 11
296.367
 21
-57.983
  0
LINE
  8
0
 10
296.367
 20
-57.983
 11
296.266
 21
-58.2072
  0
LINE
  8
0
 10
296.266
 20
-58.2072
 11
296.128
 21
-58.4109
  0
LINE
  8
0
 10
296.128
 20
-58.4109
 11
295.958
 21
-58.5885
  0
LINE
  8
0
 10
295.958
 20
-58.5885
 11
295.76
 21
-58.7347
  0
LINE
  8
0
 10
295.76
 20
-58.7347
 11
295.541
 21
-58.8454
  0
LINE
  8
0
 10
295.541
 20
-58.8454
 11
295.305
 21
-58.9174
  0
LINE
  8
0
 10
295.305
 20
-58.9174
 11
295.062
 21
-58.9487
  0
LINE
  8
0
 10
295.062
 20
-58.9487
 11
294.816
 21
-58.9382
  0
LINE
  8
0
 10
-295.305
 20
-58.9174
 11
-295.541
 21
-58.8454
  0
LINE
  8
0
 10
-295.541
 20
-58.8454
 11
-295.76
 21
-58.7347
  0
LINE
  8
0
 10
-295.76
 20
-58.7347
 11
-295.958
 21
-58.5885
  0
LINE
  8
0
 10
-295.958
 20
-58.5885
 11
-296.128
 21
-58.4109
  0
LINE
  8
0
 10
-296.128
 20
-58.4109
 11
-296.266
 21
-58.2072
  0
LINE
  8
0
 10
-296.266
 20
-58.2072
 11
-296.367
 21
-57.983
  0
LINE
  8
0
 10
-296.367
 20
-57.983
 11
-296.429
 21
-57.745
  0
LINE
  8
0
 10
-296.429
 20
-57.745
 11
-296.45
 21
-57.5
  0
LINE
  8
0
 10
-296.45
 20
-57.5
 11
-296.429
 21
-57.2549
  0
LINE
  8
0
 10
-296.429
 20
-57.2549
 11
-296.367
 21
-57.0169
  0
LINE
  8
0
 10
-296.367
 20
-57.0169
 11
-296.266
 21
-56.7928
  0
LINE
  8
0
 10
-296.266
 20
-56.7928
 11
-296.128
 21
-56.5891
  0
LINE
  8
0
 10
-296.128
 20
-56.5891
 11
-295.958
 21
-56.4115
  0
LINE
  8
0
 10
-295.958
 20
-56.4115
 11
-295.76
 21
-56.2653
  0
LINE
  8
0
 10
-295.76
 20
-56.2653
 11
-295.541
 21
-56.1546
  0
LINE
  8
0
 10
-295.541
 20
-56.1546
 11
-295.305
 21
-56.0825
  0
LINE
  8
0
 10
-295.305
 20
-56.0825
 11
-295.062
 21
-56.0513
  0
LINE
  8
0
 10
-295.062
 20
-56.0513
 11
-294.816
 21
-56.0617
  0
LINE
  8
0
 10
-294.816
 20
-56.0617
 11
-294.575
 21
-56.1136
  0
LINE
  8
0
 10
-294.575
 20
-56.1136
 11
-294.347
 21
-56.2052
  0
LINE
  8
0
 10
-294.347
 20
-56.2052
 11
-294.138
 21
-56.3342
  0
LINE
  8
0
 10
-294.138
 20
-56.3342
 11
-293.953
 21
-56.4967
  0
LINE
  8
0
 10
-293.953
 20
-56.4967
 11
-293.799
 21
-56.688
  0
LINE
  8
0
 10
-293.799
 20
-56.688
 11
-293.679
 21
-56.9027
  0
LINE
  8
0
 10
-293.679
 20
-56.9027
 11
-293.597
 21
-57.1346
  0
LINE
  8
0
 10
-293.597
 20
-57.1346
 11
-293.555
 21
-57.377
  0
LINE
  8
0
 10
-293.555
 20
-57.377
 11
-293.555
 21
-57.623
  0
LINE
  8
0
 10
-293.555
 20
-57.623
 11
-293.597
 21
-57.8654
  0
LINE
  8
0
 10
-293.597
 20
-57.8654
 11
-293.679
 21
-58.0972
  0
LINE
  8
0
 10
-293.679
 20
-58.0972
 11
-293.799
 21
-58.312
  0
LINE
  8
0
 10
-293.799
 20
-58.312
 11
-293.953
 21
-58.5033
  0
LINE
  8
0
 10
-293.953
 20
-58.5033
 11
-294.138
 21
-58.6658
  0
LINE
  8
0
 10
-294.138
 20
-58.6658
 11
-294.347
 21
-58.7947
  0
LINE
  8
0
 10
-294.347
 20
-58.7947
 11
-294.575
 21
-58.8864
  0
LINE
  8
0
 10
-294.575
 20
-58.8864
 11
-294.816
 21
-58.9382
  0
LINE
  8
0
 10
-294.816
 20
-58.9382
 11
-295.062
 21
-58.9487
  0
LINE
  8
0
 10
-295.062
 20
-58.9487
 11
-295.305
 21
-58.9174
  0
LINE
  8
0
 10
237.251
 20
-169.232
 11
237.007
 21
-169.179
  0
LINE
  8
0
 10
237.007
 20
-169.179
 11
236.773
 21
-169.092
  0
LINE
  8
0
 10
236.773
 20
-169.092
 11
236.554
 21
-168.972
  0
LINE
  8
0
 10
236.554
 20
-168.972
 11
236.354
 21
-168.823
  0
LINE
  8
0
 10
236.354
 20
-168.823
 11
236.177
 21
-168.646
  0
LINE
  8
0
 10
236.177
 20
-168.646
 11
236.028
 21
-168.446
  0
LINE
  8
0
 10
236.028
 20
-168.446
 11
235.908
 21
-168.227
  0
LINE
  8
0
 10
235.908
 20
-168.227
 11
235.821
 21
-167.993
  0
LINE
  8
0
 10
235.821
 20
-167.993
 11
235.768
 21
-167.749
  0
LINE
  8
0
 10
235.768
 20
-167.749
 11
235.75
 21
-167.5
  0
LINE
  8
0
 10
235.75
 20
-167.5
 11
235.75
 21
-67.5
  0
LINE
  8
0
 10
235.75
 20
-67.5
 11
235.768
 21
-67.2509
  0
LINE
  8
0
 10
235.768
 20
-67.2509
 11
235.821
 21
-67.007
  0
LINE
  8
0
 10
235.821
 20
-67.007
 11
235.908
 21
-66.773
  0
LINE
  8
0
 10
235.908
 20
-66.773
 11
236.028
 21
-66.5539
  0
LINE
  8
0
 10
236.028
 20
-66.5539
 11
236.177
 21
-66.354
  0
LINE
  8
0
 10
236.177
 20
-66.354
 11
236.354
 21
-66.1774
  0
LINE
  8
0
 10
236.354
 20
-66.1774
 11
236.554
 21
-66.0278
  0
LINE
  8
0
 10
236.554
 20
-66.0278
 11
236.773
 21
-65.9081
  0
LINE
  8
0
 10
236.773
 20
-65.9081
 11
237.007
 21
-65.8209
  0
LINE
  8
0
 10
237.007
 20
-65.8209
 11
237.251
 21
-65.7678
  0
LINE
  8
0
 10
237.251
 20
-65.7678
 11
237.5
 21
-65.75
  0
LINE
  8
0
 10
237.5
 20
-65.75
 11
237.749
 21
-65.7678
  0
LINE
  8
0
 10
237.749
 20
-65.7678
 11
237.993
 21
-65.8209
  0
LINE
  8
0
 10
237.993
 20
-65.8209
 11
238.227
 21
-65.9081
  0
LINE
  8
0
 10
238.227
 20
-65.9081
 11
238.446
 21
-66.0278
  0
LINE
  8
0
 10
238.446
 20
-66.0278
 11
238.646
 21
-66.1774
  0
LINE
  8
0
 10
238.646
 20
-66.1774
 11
238.823
 21
-66.354
  0
LINE
  8
0
 10
238.823
 20
-66.354
 11
238.972
 21
-66.5539
  0
LINE
  8
0
 10
238.972
 20
-66.5539
 11
239.092
 21
-66.773
  0
LINE
  8
0
 10
239.092
 20
-66.773
 11
239.179
 21
-67.007
  0
LINE
  8
0
 10
239.179
 20
-67.007
 11
239.232
 21
-67.2509
  0
LINE
  8
0
 10
239.232
 20
-67.2509
 11
239.25
 21
-67.5
  0
LINE
  8
0
 10
239.25
 20
-67.5
 11
239.25
 21
-167.5
  0
LINE
  8
0
 10
239.25
 20
-167.5
 11
239.232
 21
-167.749
  0
LINE
  8
0
 10
239.232
 20
-167.749
 11
239.179
 21
-167.993
  0
LINE
  8
0
 10
239.179
 20
-167.993
 11
239.092
 21
-168.227
  0
LINE
  8
0
 10
239.092
 20
-168.227
 11
238.972
 21
-168.446
  0
LINE
  8
0
 10
238.972
 20
-168.446
 11
238.823
 21
-168.646
  0
LINE
  8
0
 10
238.823
 20
-168.646
 11
238.646
 21
-168.823
  0
LINE
  8
0
 10
238.646
 20
-168.823
 11
238.446
 21
-168.972
  0
LINE
  8
0
 10
238.446
 20
-168.972
 11
238.227
 21
-169.092
  0
LINE
  8
0
 10
238.227
 20
-169.092
 11
237.993
 21
-169.179
  0
LINE
  8
0
 10
237.993
 20
-169.179
 11
237.749
 21
-169.232
  0
LINE
  8
0
 10
237.749
 20
-169.232
 11
237.5
 21
-169.25
  0
LINE
  8
0
 10
237.5
 20
-169.25
 11
237.251
 21
-169.232
  0
LINE
  8
0
 10
-237.749
 20
-169.232
 11
-237.993
 21
-169.179
  0
LINE
  8
0
 10
-237.993
 20
-169.179
 11
-238.227
 21
-169.092
  0
LINE
  8
0
 10
-238.227
 20
-169.092
 11
-238.446
 21
-168.972
  0
LINE
  8
0
 10
-238.446
 20
-168.972
 11
-238.646
 21
-168.823
  0
LINE
  8
0
 10
-238.646
 20
-168.823
 11
-238.823
 21
-168.646
  0
LINE
  8
0
 10
-238.823
 20
-168.646
 11
-238.972
 21
-168.446
  0
LINE
  8
0
 10
-238.972
 20
-168.446
 11
-239.092
 21
-168.227
  0
LINE
  8
0
 10
-239.092
 20
-168.227
 11
-239.179
 21
-167.993
  0
LINE
  8
0
 10
-239.179
 20
-167.993
 11
-239.232
 21
-167.749
  0
LINE
  8
0
 10
-239.232
 20
-167.749
 11
-239.25
 21
-167.5
  0
LINE
  8
0
 10
-239.25
 20
-167.5
 11
-239.25
 21
-67.5
  0
LINE
  8
0
 10
-239.25
 20
-67.5
 11
-239.232
 21
-67.2509
  0
LINE
  8
0
 10
-239.232
 20
-67.2509
 11
-239.179
 21
-67.007
  0
LINE
  8
0
 10
-239.179
 20
-67.007
 11
-239.092
 21
-66.773
  0
LINE
  8
0
 10
-239.092
 20
-66.773
 11
-238.972
 21
-66.5539
  0
LINE
  8
0
 10
-238.972
 20
-66.5539
 11
-238.823
 21
-66.354
  0
LINE
  8
0
 10
-238.823
 20
-66.354
 11
-238.646
 21
-66.1774
  0
LINE
  8
0
 10
-238.646
 20
-66.1774
 11
-238.446
 21
-66.0278
  0
LINE
  8
0
 10
-238.446
 20
-66.0278
 11
-238.227
 21
-65.9081
  0
LINE
  8
0
 10
-238.227
 20
-65.9081
 11
-237.993
 21
-65.8209
  0
LINE
  8
0
 10
-237.993
 20
-65.8209
 11
-237.749
 21
-65.7678
  0
LINE
  8
0
 10
-237.749
 20
-65.7678
 11
-237.5
 21
-65.75
  0
LINE
  8
0
 10
-237.5
 20
-65.75
 11
-237.251
 21
-65.7678
  0
LINE
  8
0
 10
-237.251
 20
-65.7678
 11
-237.007
 21
-65.8209
  0
LINE
  8
0
 10
-237.007
 20
-65.8209
 11
-236.773
 21
-65.9081
  0
LINE
  8
0
 10
-236.773
 20
-65.9081
 11
-236.554
 21
-66.0278
  0
LINE
  8
0
 10
-236.554
 20
-66.0278
 11
-236.354
 21
-66.1774
  0
LINE
  8
0
 10
-236.354
 20
-66.1774
 11
-236.177
 21
-66.354
  0
LINE
  8
0
 10
-236.177
 20
-66.354
 11
-236.028
 21
-66.5539
  0
LINE
  8
0
 10
-236.028
 20
-66.5539
 11
-235.908
 21
-66.773
  0
LINE
  8
0
 10
-235.908
 20
-66.773
 11
-235.821
 21
-67.007
  0
LINE
  8
0
 10
-235.821
 20
-67.007
 11
-235.768
 21
-67.2509
  0
LINE
  8
0
 10
-235.768
 20
-67.2509
 11
-235.75
 21
-67.5
  0
LINE
  8
0
 10
-235.75
 20
-67.5
 11
-235.75
 21
-167.5
  0
LINE
  8
0
 10
-235.75
 20
-167.5
 11
-235.768
 21
-167.749
  0
LINE
  8
0
 10
-235.768
 20
-167.749
 11
-235.821
 21
-167.993
  0
LINE
  8
0
 10
-235.821
 20
-167.993
 11
-235.908
 21
-168.227
  0
LINE
  8
0
 10
-235.908
 20
-168.227
 11
-236.028
 21
-168.446
  0
LINE
  8
0
 10
-236.028
 20
-168.446
 11
-236.177
 21
-168.646
  0
LINE
  8
0
 10
-236.177
 20
-168.646
 11
-236.354
 21
-168.823
  0
LINE
  8
0
 10
-236.354
 20
-168.823
 11
-236.554
 21
-168.972
  0
LINE
  8
0
 10
-236.554
 20
-168.972
 11
-236.773
 21
-169.092
  0
LINE
  8
0
 10
-236.773
 20
-169.092
 11
-237.007
 21
-169.179
  0
LINE
  8
0
 10
-237.007
 20
-169.179
 11
-237.251
 21
-169.232
  0
LINE
  8
0
 10
-237.251
 20
-169.232
 11
-237.5
 21
-169.25
  0
LINE
  8
0
 10
-237.5
 20
-169.25
 11
-237.749
 21
-169.232
  0
LINE
  8
0
 10
263.027
 20
-191.645
 11
262.783
 21
-191.609
  0
LINE
  8
0
 10
262.783
 20
-191.609
 11
262.547
 21
-191.536
  0
LINE
  8
0
 10
262.547
 20
-191.536
 11
262.325
 21
-191.429
  0
LINE
  8
0
 10
262.325
 20
-191.429
 11
262.121
 21
-191.29
  0
LINE
  8
0
 10
262.121
 20
-191.29
 11
261.94
 21
-191.122
  0
LINE
  8
0
 10
261.94
 20
-191.122
 11
261.787
 21
-190.929
  0
LINE
  8
0
 10
261.787
 20
-190.929
 11
261.663
 21
-190.716
  0
LINE
  8
0
 10
261.663
 20
-190.716
 11
261.573
 21
-190.486
  0
LINE
  8
0
 10
261.573
 20
-190.486
 11
261.518
 21
-190.246
  0
LINE
  8
0
 10
261.518
 20
-190.246
 11
261.5
 21
-190
  0
LINE
  8
0
 10
261.5
 20
-190
 11
261.518
 21
-189.754
  0
LINE
  8
0
 10
261.518
 20
-189.754
 11
261.573
 21
-189.514
  0
LINE
  8
0
 10
261.573
 20
-189.514
 11
261.663
 21
-189.284
  0
LINE
  8
0
 10
261.663
 20
-189.284
 11
261.787
 21
-189.071
  0
LINE
  8
0
 10
261.787
 20
-189.071
 11
261.94
 21
-188.878
  0
LINE
  8
0
 10
261.94
 20
-188.878
 11
262.121
 21
-188.71
  0
LINE
  8
0
 10
262.121
 20
-188.71
 11
262.325
 21
-188.571
  0
LINE
  8
0
 10
262.325
 20
-188.571
 11
262.547
 21
-188.464
  0
LINE
  8
0
 10
262.547
 20
-188.464
 11
262.783
 21
-188.391
  0
LINE
  8
0
 10
262.783
 20
-188.391
 11
263.027
 21
-188.355
  0
LINE
  8
0
 10
263.027
 20
-188.355
 11
271.273
 21
-188.355
  0
LINE
  8
0
 10
271.273
 20
-188.355
 11
271.517
 21
-188.391
  0
LINE
  8
0
 10
271.517
 20
-188.391
 11
271.753
 21
-188.464
  0
LINE
  8
0
 10
271.753
 20
-188.464
 11
271.975
 21
-188.571
  0
LINE
  8
0
 10
271.975
 20
-188.571
 11
272.179
 21
-188.71
  0
LINE
  8
0
 10
272.179
 20
-188.71
 11
272.36
 21
-188.878
  0
LINE
  8
0
 10
272.36
 20
-188.878
 11
272.513
 21
-189.071
  0
LINE
  8
0
 10
272.513
 20
-189.071
 11
272.637
 21
-189.284
  0
LINE
  8
0
 10
272.637
 20
-189.284
 11
272.727
 21
-189.514
  0
LINE
  8
0
 10
272.727
 20
-189.514
 11
272.782
 21
-189.754
  0
LINE
  8
0
 10
272.782
 20
-189.754
 11
272.8
 21
-190
  0
LINE
  8
0
 10
272.8
 20
-190
 11
272.782
 21
-190.246
  0
LINE
  8
0
 10
272.782
 20
-190.246
 11
272.727
 21
-190.486
  0
LINE
  8
0
 10
272.727
 20
-190.486
 11
272.637
 21
-190.716
  0
LINE
  8
0
 10
272.637
 20
-190.716
 11
272.513
 21
-190.929
  0
LINE
  8
0
 10
272.513
 20
-190.929
 11
272.36
 21
-191.122
  0
LINE
  8
0
 10
272.36
 20
-191.122
 11
272.179
 21
-191.29
  0
LINE
  8
0
 10
272.179
 20
-191.29
 11
271.975
 21
-191.429
  0
LINE
  8
0
 10
271.975
 20
-191.429
 11
271.753
 21
-191.536
  0
LINE
  8
0
 10
271.753
 20
-191.536
 11
271.517
 21
-191.609
  0
LINE
  8
0
 10
271.517
 20
-191.609
 11
271.273
 21
-191.645
  0
LINE
  8
0
 10
271.273
 20
-191.645
 11
263.027
 21
-191.645
  0
LINE
  8
0
 10
294.027
 20
-191.645
 11
293.783
 21
-191.609
  0
LINE
  8
0
 10
293.783
 20
-191.609
 11
293.547
 21
-191.536
  0
LINE
  8
0
 10
293.547
 20
-191.536
 11
293.325
 21
-191.429
  0
LINE
  8
0
 10
293.325
 20
-191.429
 11
293.121
 21
-191.29
  0
LINE
  8
0
 10
293.121
 20
-191.29
 11
292.94
 21
-191.122
  0
LINE
  8
0
 10
292.94
 20
-191.122
 11
292.787
 21
-190.929
  0
LINE
  8
0
 10
292.787
 20
-190.929
 11
292.663
 21
-190.716
  0
LINE
  8
0
 10
292.663
 20
-190.716
 11
292.573
 21
-190.486
  0
LINE
  8
0
 10
292.573
 20
-190.486
 11
292.518
 21
-190.246
  0
LINE
  8
0
 10
292.518
 20
-190.246
 11
292.5
 21
-190
  0
LINE
  8
0
 10
292.5
 20
-190
 11
292.518
 21
-189.754
  0
LINE
  8
0
 10
292.518
 20
-189.754
 11
292.573
 21
-189.514
  0
LINE
  8
0
 10
292.573
 20
-189.514
 11
292.663
 21
-189.284
  0
LINE
  8
0
 10
292.663
 20
-189.284
 11
292.787
 21
-189.071
  0
LINE
  8
0
 10
292.787
 20
-189.071
 11
292.94
 21
-188.878
  0
LINE
  8
0
 10
292.94
 20
-188.878
 11
293.121
 21
-188.71
  0
LINE
  8
0
 10
293.121
 20
-188.71
 11
293.325
 21
-188.571
  0
LINE
  8
0
 10
293.325
 20
-188.571
 11
293.547
 21
-188.464
  0
LINE
  8
0
 10
293.547
 20
-188.464
 11
293.783
 21
-188.391
  0
LINE
  8
0
 10
293.783
 20
-188.391
 11
294.027
 21
-188.355
  0
LINE
  8
0
 10
294.027
 20
-188.355
 11
302.273
 21
-188.355
  0
LINE
  8
0
 10
302.273
 20
-188.355
 11
302.517
 21
-188.391
  0
LINE
  8
0
 10
302.517
 20
-188.391
 11
302.753
 21
-188.464
  0
LINE
  8
0
 10
302.753
 20
-188.464
 11
302.975
 21
-188.571
  0
LINE
  8
0
 10
302.975
 20
-188.571
 11
303.179
 21
-188.71
  0
LINE
  8
0
 10
303.179
 20
-188.71
 11
303.36
 21
-188.878
  0
LINE
  8
0
 10
303.36
 20
-188.878
 11
303.513
 21
-189.071
  0
LINE
  8
0
 10
303.513
 20
-189.071
 11
303.637
 21
-189.284
  0
LINE
  8
0
 10
303.637
 20
-189.284
 11
303.727
 21
-189.514
  0
LINE
  8
0
 10
303.727
 20
-189.514
 11
303.782
 21
-189.754
  0
LINE
  8
0
 10
303.782
 20
-189.754
 11
303.8
 21
-190
  0
LINE
  8
0
 10
303.8
 20
-190
 11
303.782
 21
-190.246
  0
LINE
  8
0
 10
303.782
 20
-190.246
 11
303.727
 21
-190.486
  0
LINE
  8
0
 10
303.727
 20
-190.486
 11
303.637
 21
-190.716
  0
LINE
  8
0
 10
303.637
 20
-190.716
 11
303.513
 21
-190.929
  0
LINE
  8
0
 10
303.513
 20
-190.929
 11
303.36
 21
-191.122
  0
LINE
  8
0
 10
303.36
 20
-191.122
 11
303.179
 21
-191.29
  0
LINE
  8
0
 10
303.179
 20
-191.29
 11
302.975
 21
-191.429
  0
LINE
  8
0
 10
302.975
 20
-191.429
 11
302.753
 21
-191.536
  0
LINE
  8
0
 10
302.753
 20
-191.536
 11
302.517
 21
-191.609
  0
LINE
  8
0
 10
302.517
 20
-191.609
 11
302.273
 21
-191.645
  0
LINE
  8
0
 10
302.273
 20
-191.645
 11
294.027
 21
-191.645
  0
LINE
  8
0
 10
278.15
 20
-218
 11
276.843
 21
-217.932
  0
LINE
  8
0
 10
276.843
 20
-217.932
 11
275.551
 21
-217.727
  0
LINE
  8
0
 10
275.551
 20
-217.727
 11
274.287
 21
-217.388
  0
LINE
  8
0
 10
274.287
 20
-217.388
 11
273.066
 21
-216.919
  0
LINE
  8
0
 10
273.066
 20
-216.919
 11
271.9
 21
-216.325
  0
LINE
  8
0
 10
271.9
 20
-216.325
 11
270.803
 21
-215.613
  0
LINE
  8
0
 10
270.803
 20
-215.613
 11
269.786
 21
-214.789
  0
LINE
  8
0
 10
269.786
 20
-214.789
 11
268.861
 21
-213.864
  0
LINE
  8
0
 10
268.861
 20
-213.864
 11
268.037
 21
-212.847
  0
LINE
  8
0
 10
268.037
 20
-212.847
 11
267.325
 21
-211.75
  0
LINE
  8
0
 10
267.325
 20
-211.75
 11
266.731
 21
-210.584
  0
LINE
  8
0
 10
266.731
 20
-210.584
 11
266.262
 21
-209.363
  0
LINE
  8
0
 10
266.262
 20
-209.363
 11
265.923
 21
-208.099
  0
LINE
  8
0
 10
265.923
 20
-208.099
 11
265.718
 21
-206.807
  0
LINE
  8
0
 10
265.718
 20
-206.807
 11
265.65
 21
-205.5
  0
LINE
  8
0
 10
265.65
 20
-205.5
 11
265.718
 21
-204.193
  0
LINE
  8
0
 10
265.718
 20
-204.193
 11
265.923
 21
-202.901
  0
LINE
  8
0
 10
265.923
 20
-202.901
 11
266.262
 21
-201.637
  0
LINE
  8
0
 10
266.262
 20
-201.637
 11
266.731
 21
-200.416
  0
LINE
  8
0
 10
266.731
 20
-200.416
 11
267.325
 21
-199.25
  0
LINE
  8
0
 10
267.325
 20
-199.25
 11
268.037
 21
-198.153
  0
LINE
  8
0
 10
268.037
 20
-198.153
 11
268.861
 21
-197.136
  0
LINE
  8
0
 10
268.861
 20
-197.136
 11
269.786
 21
-196.211
  0
LINE
  8
0
 10
269.786
 20
-196.211
 11
270.803
 21
-195.387
  0
LINE
  8
0
 10
270.803
 20
-195.387
 11
271.9
 21
-194.675
  0
LINE
  8
0
 10
271.9
 20
-194.675
 11
273.066
 21
-194.081
  0
LINE
  8
0
 10
273.066
 20
-194.081
 11
274.287
 21
-193.612
  0
LINE
  8
0
 10
274.287
 20
-193.612
 11
275.551
 21
-193.273
  0
LINE
  8
0
 10
275.551
 20
-193.273
 11
276.843
 21
-193.068
  0
LINE
  8
0
 10
276.843
 20
-193.068
 11
278.15
 21
-193
  0
LINE
  8
0
 10
278.15
 20
-193
 11
286.15
 21
-193
  0
LINE
  8
0
 10
286.15
 20
-193
 11
287.457
 21
-193.068
  0
LINE
  8
0
 10
287.457
 20
-193.068
 11
288.749
 21
-193.273
  0
LINE
  8
0
 10
288.749
 20
-193.273
 11
290.013
 21
-193.612
  0
LINE
  8
0
 10
290.013
 20
-193.612
 11
291.234
 21
-194.081
  0
LINE
  8
0
 10
291.234
 20
-194.081
 11
292.4
 21
-194.675
  0
LINE
  8
0
 10
292.4
 20
-194.675
 11
293.497
 21
-195.387
  0
LINE
  8
0
 10
293.497
 20
-195.387
 11
294.514
 21
-196.211
  0
LINE
  8
0
 10
294.514
 20
-196.211
 11
295.439
 21
-197.136
  0
LINE
  8
0
 10
295.439
 20
-197.136
 11
296.263
 21
-198.153
  0
LINE
  8
0
 10
296.263
 20
-198.153
 11
296.975
 21
-199.25
  0
LINE
  8
0
 10
296.975
 20
-199.25
 11
297.569
 21
-200.416
  0
LINE
  8
0
 10
297.569
 20
-200.416
 11
298.038
 21
-201.637
  0
LINE
  8
0
 10
298.038
 20
-201.637
 11
298.377
 21
-202.901
  0
LINE
  8
0
 10
298.377
 20
-202.901
 11
298.582
 21
-204.193
  0
LINE
  8
0
 10
298.582
 20
-204.193
 11
298.65
 21
-205.5
  0
LINE
  8
0
 10
298.65
 20
-205.5
 11
298.582
 21
-206.807
  0
LINE
  8
0
 10
298.582
 20
-206.807
 11
298.377
 21
-208.099
  0
LINE
  8
0
 10
298.377
 20
-208.099
 11
298.038
 21
-209.363
  0
LINE
  8
0
 10
298.038
 20
-209.363
 11
297.569
 21
-210.584
  0
LINE
  8
0
 10
297.569
 20
-210.584
 11
296.975
 21
-211.75
  0
LINE
  8
0
 10
296.975
 20
-211.75
 11
296.263
 21
-212.847
  0
LINE
  8
0
 10
296.263
 20
-212.847
 11
295.439
 21
-213.864
  0
LINE
  8
0
 10
295.439
 20
-213.864
 11
294.514
 21
-214.789
  0
LINE
  8
0
 10
294.514
 20
-214.789
 11
293.497
 21
-215.613
  0
LINE
  8
0
 10
293.497
 20
-215.613
 11
292.4
 21
-216.325
  0
LINE
  8
0
 10
292.4
 20
-216.325
 11
291.234
 21
-216.919
  0
LINE
  8
0
 10
291.234
 20
-216.919
 11
290.013
 21
-217.388
  0
LINE
  8
0
 10
290.013
 20
-217.388
 11
288.749
 21
-217.727
  0
LINE
  8
0
 10
288.749
 20
-217.727
 11
287.457
 21
-217.932
  0
LINE
  8
0
 10
287.457
 20
-217.932
 11
286.15
 21
-218
  0
LINE
  8
0
 10
286.15
 20
-218
 11
278.15
 21
-218
  0
LINE
  8
0
 10
-264.744
 20
-195.726
 11
-264.978
 21
-195.655
  0
LINE
  8
0
 10
-264.978
 20
-195.655
 11
-265.194
 21
-195.539
  0
LINE
  8
0
 10
-265.194
 20
-195.539
 11
-265.384
 21
-195.384
  0
LINE
  8
0
 10
-265.384
 20
-195.384
 11
-265.539
 21
-195.194
  0
LINE
  8
0
 10
-265.539
 20
-195.194
 11
-265.655
 21
-194.978
  0
LINE
  8
0
 10
-265.655
 20
-194.978
 11
-265.726
 21
-194.744
  0
LINE
  8
0
 10
-265.726
 20
-194.744
 11
-265.75
 21
-194.5
  0
LINE
  8
0
 10
-265.75
 20
-194.5
 11
-265.726
 21
-194.256
  0
LINE
  8
0
 10
-265.726
 20
-194.256
 11
-265.655
 21
-194.022
  0
LINE
  8
0
 10
-265.655
 20
-194.022
 11
-265.539
 21
-193.806
  0
LINE
  8
0
 10
-265.539
 20
-193.806
 11
-265.384
 21
-193.616
  0
LINE
  8
0
 10
-265.384
 20
-193.616
 11
-265.194
 21
-193.461
  0
LINE
  8
0
 10
-265.194
 20
-193.461
 11
-264.978
 21
-193.345
  0
LINE
  8
0
 10
-264.978
 20
-193.345
 11
-264.744
 21
-193.274
  0
LINE
  8
0
 10
-264.744
 20
-193.274
 11
-264.5
 21
-193.25
  0
LINE
  8
0
 10
-264.5
 20
-193.25
 11
-264.256
 21
-193.274
  0
LINE
  8
0
 10
-264.256
 20
-193.274
 11
-264.022
 21
-193.345
  0
LINE
  8
0
 10
-264.022
 20
-193.345
 11
-263.806
 21
-193.461
  0
LINE
  8
0
 10
-263.806
 20
-193.461
 11
-263.616
 21
-193.616
  0
LINE
  8
0
 10
-263.616
 20
-193.616
 11
-263.461
 21
-193.806
  0
LINE
  8
0
 10
-263.461
 20
-193.806
 11
-263.345
 21
-194.022
  0
LINE
  8
0
 10
-263.345
 20
-194.022
 11
-263.274
 21
-194.256
  0
LINE
  8
0
 10
-263.274
 20
-194.256
 11
-263.25
 21
-194.5
  0
LINE
  8
0
 10
-263.25
 20
-194.5
 11
-263.274
 21
-194.744
  0
LINE
  8
0
 10
-263.274
 20
-194.744
 11
-263.345
 21
-194.978
  0
LINE
  8
0
 10
-263.345
 20
-194.978
 11
-263.461
 21
-195.194
  0
LINE
  8
0
 10
-263.461
 20
-195.194
 11
-263.616
 21
-195.384
  0
LINE
  8
0
 10
-263.616
 20
-195.384
 11
-263.806
 21
-195.539
  0
LINE
  8
0
 10
-263.806
 20
-195.539
 11
-264.022
 21
-195.655
  0
LINE
  8
0
 10
-264.022
 20
-195.655
 11
-264.256
 21
-195.726
  0
LINE
  8
0
 10
-264.256
 20
-195.726
 11
-264.5
 21
-195.75
  0
LINE
  8
0
 10
-264.5
 20
-195.75
 11
-264.744
 21
-195.726
  0
LINE
  8
0
 10
-237.686
 20
-199.19
 11
-237.93
 21
-199.145
  0
LINE
  8
0
 10
-237.93
 20
-199.145
 11
-238.165
 21
-199.065
  0
LINE
  8
0
 10
-238.165
 20
-199.065
 11
-238.386
 21
-198.951
  0
LINE
  8
0
 10
-238.386
 20
-198.951
 11
-238.587
 21
-198.807
  0
LINE
  8
0
 10
-238.587
 20
-198.807
 11
-238.766
 21
-198.634
  0
LINE
  8
0
 10
-238.766
 20
-198.634
 11
-238.918
 21
-198.438
  0
LINE
  8
0
 10
-238.918
 20
-198.438
 11
-239.039
 21
-198.222
  0
LINE
  8
0
 10
-239.039
 20
-198.222
 11
-239.128
 21
-197.99
  0
LINE
  8
0
 10
-239.128
 20
-197.99
 11
-239.182
 21
-197.748
  0
LINE
  8
0
 10
-239.182
 20
-197.748
 11
-239.2
 21
-197.5
  0
LINE
  8
0
 10
-239.2
 20
-197.5
 11
-239.182
 21
-197.252
  0
LINE
  8
0
 10
-239.182
 20
-197.252
 11
-239.128
 21
-197.01
  0
LINE
  8
0
 10
-239.128
 20
-197.01
 11
-239.039
 21
-196.778
  0
LINE
  8
0
 10
-239.039
 20
-196.778
 11
-238.918
 21
-196.562
  0
LINE
  8
0
 10
-238.918
 20
-196.562
 11
-238.766
 21
-196.366
  0
LINE
  8
0
 10
-238.766
 20
-196.366
 11
-238.587
 21
-196.193
  0
LINE
  8
0
 10
-238.587
 20
-196.193
 11
-238.386
 21
-196.049
  0
LINE
  8
0
 10
-238.386
 20
-196.049
 11
-238.165
 21
-195.935
  0
LINE
  8
0
 10
-238.165
 20
-195.935
 11
-237.93
 21
-195.855
  0
LINE
  8
0
 10
-237.93
 20
-195.855
 11
-237.686
 21
-195.81
  0
LINE
  8
0
 10
-237.686
 20
-195.81
 11
-237.438
 21
-195.801
  0
LINE
  8
0
 10
-237.438
 20
-195.801
 11
-237.191
 21
-195.828
  0
LINE
  8
0
 10
-237.191
 20
-195.828
 11
-236.951
 21
-195.891
  0
LINE
  8
0
 10
-236.951
 20
-195.891
 11
-236.723
 21
-195.988
  0
LINE
  8
0
 10
-236.723
 20
-195.988
 11
-236.511
 21
-196.117
  0
LINE
  8
0
 10
-236.511
 20
-196.117
 11
-236.32
 21
-196.276
  0
LINE
  8
0
 10
-236.32
 20
-196.276
 11
-236.154
 21
-196.461
  0
LINE
  8
0
 10
-236.154
 20
-196.461
 11
-236.018
 21
-196.668
  0
LINE
  8
0
 10
-236.018
 20
-196.668
 11
-235.912
 21
-196.893
  0
LINE
  8
0
 10
-235.912
 20
-196.893
 11
-235.841
 21
-197.13
  0
LINE
  8
0
 10
-235.841
 20
-197.13
 11
-235.805
 21
-197.376
  0
LINE
  8
0
 10
-235.805
 20
-197.376
 11
-235.805
 21
-197.624
  0
LINE
  8
0
 10
-235.805
 20
-197.624
 11
-235.841
 21
-197.87
  0
LINE
  8
0
 10
-235.841
 20
-197.87
 11
-235.912
 21
-198.107
  0
LINE
  8
0
 10
-235.912
 20
-198.107
 11
-236.018
 21
-198.332
  0
LINE
  8
0
 10
-236.018
 20
-198.332
 11
-236.154
 21
-198.539
  0
LINE
  8
0
 10
-236.154
 20
-198.539
 11
-236.32
 21
-198.724
  0
LINE
  8
0
 10
-236.32
 20
-198.724
 11
-236.511
 21
-198.883
  0
LINE
  8
0
 10
-236.511
 20
-198.883
 11
-236.723
 21
-199.012
  0
LINE
  8
0
 10
-236.723
 20
-199.012
 11
-236.951
 21
-199.109
  0
LINE
  8
0
 10
-236.951
 20
-199.109
 11
-237.191
 21
-199.172
  0
LINE
  8
0
 10
-237.191
 20
-199.172
 11
-237.438
 21
-199.199
  0
LINE
  8
0
 10
-237.438
 20
-199.199
 11
-237.686
 21
-199.19
  0
LINE
  8
0
 10
237.191
 20
-199.172
 11
236.951
 21
-199.109
  0
LINE
  8
0
 10
236.951
 20
-199.109
 11
236.723
 21
-199.012
  0
LINE
  8
0
 10
236.723
 20
-199.012
 11
236.511
 21
-198.883
  0
LINE
  8
0
 10
236.511
 20
-198.883
 11
236.32
 21
-198.724
  0
LINE
  8
0
 10
236.32
 20
-198.724
 11
236.154
 21
-198.539
  0
LINE
  8
0
 10
236.154
 20
-198.539
 11
236.018
 21
-198.332
  0
LINE
  8
0
 10
236.018
 20
-198.332
 11
235.912
 21
-198.107
  0
LINE
  8
0
 10
235.912
 20
-198.107
 11
235.841
 21
-197.87
  0
LINE
  8
0
 10
235.841
 20
-197.87
 11
235.805
 21
-197.624
  0
LINE
  8
0
 10
235.805
 20
-197.624
 11
235.805
 21
-197.376
  0
LINE
  8
0
 10
235.805
 20
-197.376
 11
235.841
 21
-197.13
  0
LINE
  8
0
 10
235.841
 20
-197.13
 11
235.912
 21
-196.893
  0
LINE
  8
0
 10
235.912
 20
-196.893
 11
236.018
 21
-196.668
  0
LINE
  8
0
 10
236.018
 20
-196.668
 11
236.154
 21
-196.461
  0
LINE
  8
0
 10
236.154
 20
-196.461
 11
236.32
 21
-196.276
  0
LINE
  8
0
 10
236.32
 20
-196.276
 11
236.511
 21
-196.117
  0
LINE
  8
0
 10
236.511
 20
-196.117
 11
236.723
 21
-195.988
  0
LINE
  8
0
 10
236.723
 20
-195.988
 11
236.951
 21
-195.891
  0
LINE
  8
0
 10
236.951
 20
-195.891
 11
237.191
 21
-195.828
  0
LINE
  8
0
 10
237.191
 20
-195.828
 11
237.438
 21
-195.801
  0
LINE
  8
0
 10
237.438
 20
-195.801
 11
237.686
 21
-195.81
  0
LINE
  8
0
 10
237.686
 20
-195.81
 11
237.93
 21
-195.855
  0
LINE
  8
0
 10
237.93
 20
-195.855
 11
238.165
 21
-195.935
  0
LINE
  8
0
 10
238.165
 20
-195.935
 11
238.386
 21
-196.049
  0
LINE
  8
0
 10
238.386
 20
-196.049
 11
238.587
 21
-196.193
  0
LINE
  8
0
 10
238.587
 20
-196.193
 11
238.766
 21
-196.366
  0
LINE
  8
0
 10
238.766
 20
-196.366
 11
238.918
 21
-196.562
  0
LINE
  8
0
 10
238.918
 20
-196.562
 11
239.039
 21
-196.778
  0
LINE
  8
0
 10
239.039
 20
-196.778
 11
239.128
 21
-197.01
  0
LINE
  8
0
 10
239.128
 20
-197.01
 11
239.182
 21
-197.252
  0
LINE
  8
0
 10
239.182
 20
-197.252
 11
239.2
 21
-197.5
  0
LINE
  8
0
 10
239.2
 20
-197.5
 11
239.182
 21
-197.748
  0
LINE
  8
0
 10
239.182
 20
-197.748
 11
239.128
 21
-197.99
  0
LINE
  8
0
 10
239.128
 20
-197.99
 11
239.039
 21
-198.222
  0
LINE
  8
0
 10
239.039
 20
-198.222
 11
238.918
 21
-198.438
  0
LINE
  8
0
 10
238.918
 20
-198.438
 11
238.766
 21
-198.634
  0
LINE
  8
0
 10
238.766
 20
-198.634
 11
238.587
 21
-198.807
  0
LINE
  8
0
 10
238.587
 20
-198.807
 11
238.386
 21
-198.951
  0
LINE
  8
0
 10
238.386
 20
-198.951
 11
238.165
 21
-199.065
  0
LINE
  8
0
 10
238.165
 20
-199.065
 11
237.93
 21
-199.145
  0
LINE
  8
0
 10
237.93
 20
-199.145
 11
237.686
 21
-199.19
  0
LINE
  8
0
 10
237.686
 20
-199.19
 11
237.438
 21
-199.199
  0
LINE
  8
0
 10
237.438
 20
-199.199
 11
237.191
 21
-199.172
  0
LINE
  8
0
 10
-284.894
 20
-206.726
 11
-285.128
 21
-206.655
  0
LINE
  8
0
 10
-285.128
 20
-206.655
 11
-285.344
 21
-206.539
  0
LINE
  8
0
 10
-285.344
 20
-206.539
 11
-285.534
 21
-206.384
  0
LINE
  8
0
 10
-285.534
 20
-206.384
 11
-285.689
 21
-206.194
  0
LINE
  8
0
 10
-285.689
 20
-206.194
 11
-285.805
 21
-205.978
  0
LINE
  8
0
 10
-285.805
 20
-205.978
 11
-285.876
 21
-205.744
  0
LINE
  8
0
 10
-285.876
 20
-205.744
 11
-285.9
 21
-205.5
  0
LINE
  8
0
 10
-285.9
 20
-205.5
 11
-285.876
 21
-205.256
  0
LINE
  8
0
 10
-285.876
 20
-205.256
 11
-285.805
 21
-205.022
  0
LINE
  8
0
 10
-285.805
 20
-205.022
 11
-285.689
 21
-204.806
  0
LINE
  8
0
 10
-285.689
 20
-204.806
 11
-285.534
 21
-204.616
  0
LINE
  8
0
 10
-285.534
 20
-204.616
 11
-285.344
 21
-204.461
  0
LINE
  8
0
 10
-285.344
 20
-204.461
 11
-285.128
 21
-204.345
  0
LINE
  8
0
 10
-285.128
 20
-204.345
 11
-284.894
 21
-204.274
  0
LINE
  8
0
 10
-284.894
 20
-204.274
 11
-284.65
 21
-204.25
  0
LINE
  8
0
 10
-284.65
 20
-204.25
 11
-284.406
 21
-204.274
  0
LINE
  8
0
 10
-284.406
 20
-204.274
 11
-284.172
 21
-204.345
  0
LINE
  8
0
 10
-284.172
 20
-204.345
 11
-283.956
 21
-204.461
  0
LINE
  8
0
 10
-283.956
 20
-204.461
 11
-283.766
 21
-204.616
  0
LINE
  8
0
 10
-283.766
 20
-204.616
 11
-283.611
 21
-204.806
  0
LINE
  8
0
 10
-283.611
 20
-204.806
 11
-283.495
 21
-205.022
  0
LINE
  8
0
 10
-283.495
 20
-205.022
 11
-283.424
 21
-205.256
  0
LINE
  8
0
 10
-283.424
 20
-205.256
 11
-283.4
 21
-205.5
  0
LINE
  8
0
 10
-283.4
 20
-205.5
 11
-283.424
 21
-205.744
  0
LINE
  8
0
 10
-283.424
 20
-205.744
 11
-283.495
 21
-205.978
  0
LINE
  8
0
 10
-283.495
 20
-205.978
 11
-283.611
 21
-206.194
  0
LINE
  8
0
 10
-283.611
 20
-206.194
 11
-283.766
 21
-206.384
  0
LINE
  8
0
 10
-283.766
 20
-206.384
 11
-283.956
 21
-206.539
  0
LINE
  8
0
 10
-283.956
 20
-206.539
 11
-284.172
 21
-206.655
  0
LINE
  8
0
 10
-284.172
 20
-206.655
 11
-284.406
 21
-206.726
  0
LINE
  8
0
 10
-284.406
 20
-206.726
 11
-284.65
 21
-206.75
  0
LINE
  8
0
 10
-284.65
 20
-206.75
 11
-284.894
 21
-206.726
  0
LINE
  8
0
 10
237.108
 20
-223.729
 11
236.72
 21
-223.668
  0
LINE
  8
0
 10
236.72
 20
-223.668
 11
236.341
 21
-223.566
  0
LINE
  8
0
 10
236.341
 20
-223.566
 11
235.975
 21
-223.426
  0
LINE
  8
0
 10
235.975
 20
-223.426
 11
235.625
 21
-223.248
  0
LINE
  8
0
 10
235.625
 20
-223.248
 11
235.296
 21
-223.034
  0
LINE
  8
0
 10
235.296
 20
-223.034
 11
234.991
 21
-222.787
  0
LINE
  8
0
 10
234.991
 20
-222.787
 11
234.713
 21
-222.509
  0
LINE
  8
0
 10
234.713
 20
-222.509
 11
234.466
 21
-222.204
  0
LINE
  8
0
 10
234.466
 20
-222.204
 11
234.252
 21
-221.875
  0
LINE
  8
0
 10
234.252
 20
-221.875
 11
234.074
 21
-221.525
  0
LINE
  8
0
 10
234.074
 20
-221.525
 11
233.934
 21
-221.159
  0
LINE
  8
0
 10
233.934
 20
-221.159
 11
233.832
 21
-220.78
  0
LINE
  8
0
 10
233.832
 20
-220.78
 11
233.771
 21
-220.392
  0
LINE
  8
0
 10
233.771
 20
-220.392
 11
233.75
 21
-220
  0
LINE
  8
0
 10
233.75
 20
-220
 11
233.771
 21
-219.608
  0
LINE
  8
0
 10
233.771
 20
-219.608
 11
233.832
 21
-219.22
  0
LINE
  8
0
 10
233.832
 20
-219.22
 11
233.934
 21
-218.841
  0
LINE
  8
0
 10
233.934
 20
-218.841
 11
234.074
 21
-218.475
  0
LINE
  8
0
 10
234.074
 20
-218.475
 11
234.252
 21
-218.125
  0
LINE
  8
0
 10
234.252
 20
-218.125
 11
234.466
 21
-217.796
  0
LINE
  8
0
 10
234.466
 20
-217.796
 11
234.713
 21
-217.491
  0
LINE
  8
0
 10
234.713
 20
-217.491
 11
234.991
 21
-217.213
  0
LINE
  8
0
 10
234.991
 20
-217.213
 11
235.296
 21
-216.966
  0
LINE
  8
0
 10
235.296
 20
-216.966
 11
235.625
 21
-216.752
  0
LINE
  8
0
 10
235.625
 20
-216.752
 11
235.975
 21
-216.574
  0
LINE
  8
0
 10
235.975
 20
-216.574
 11
236.341
 21
-216.434
  0
LINE
  8
0
 10
236.341
 20
-216.434
 11
236.72
 21
-216.332
  0
LINE
  8
0
 10
236.72
 20
-216.332
 11
237.108
 21
-216.271
  0
LINE
  8
0
 10
237.108
 20
-216.271
 11
237.5
 21
-216.25
  0
LINE
  8
0
 10
237.5
 20
-216.25
 11
237.892
 21
-216.271
  0
LINE
  8
0
 10
237.892
 20
-216.271
 11
238.28
 21
-216.332
  0
LINE
  8
0
 10
238.28
 20
-216.332
 11
238.659
 21
-216.434
  0
LINE
  8
0
 10
238.659
 20
-216.434
 11
239.025
 21
-216.574
  0
LINE
  8
0
 10
239.025
 20
-216.574
 11
239.375
 21
-216.752
  0
LINE
  8
0
 10
239.375
 20
-216.752
 11
239.704
 21
-216.966
  0
LINE
  8
0
 10
239.704
 20
-216.966
 11
240.009
 21
-217.213
  0
LINE
  8
0
 10
240.009
 20
-217.213
 11
240.287
 21
-217.491
  0
LINE
  8
0
 10
240.287
 20
-217.491
 11
240.534
 21
-217.796
  0
LINE
  8
0
 10
240.534
 20
-217.796
 11
240.748
 21
-218.125
  0
LINE
  8
0
 10
240.748
 20
-218.125
 11
240.926
 21
-218.475
  0
LINE
  8
0
 10
240.926
 20
-218.475
 11
241.066
 21
-218.841
  0
LINE
  8
0
 10
241.066
 20
-218.841
 11
241.168
 21
-219.22
  0
LINE
  8
0
 10
241.168
 20
-219.22
 11
241.229
 21
-219.608
  0
LINE
  8
0
 10
241.229
 20
-219.608
 11
241.25
 21
-220
  0
LINE
  8
0
 10
241.25
 20
-220
 11
241.229
 21
-220.392
  0
LINE
  8
0
 10
241.229
 20
-220.392
 11
241.168
 21
-220.78
  0
LINE
  8
0
 10
241.168
 20
-220.78
 11
241.066
 21
-221.159
  0
LINE
  8
0
 10
241.066
 20
-221.159
 11
240.926
 21
-221.525
  0
LINE
  8
0
 10
240.926
 20
-221.525
 11
240.748
 21
-221.875
  0
LINE
  8
0
 10
240.748
 20
-221.875
 11
240.534
 21
-222.204
  0
LINE
  8
0
 10
240.534
 20
-222.204
 11
240.287
 21
-222.509
  0
LINE
  8
0
 10
240.287
 20
-222.509
 11
240.009
 21
-222.787
  0
LINE
  8
0
 10
240.009
 20
-222.787
 11
239.704
 21
-223.034
  0
LINE
  8
0
 10
239.704
 20
-223.034
 11
239.375
 21
-223.248
  0
LINE
  8
0
 10
239.375
 20
-223.248
 11
239.025
 21
-223.426
  0
LINE
  8
0
 10
239.025
 20
-223.426
 11
238.659
 21
-223.566
  0
LINE
  8
0
 10
238.659
 20
-223.566
 11
238.28
 21
-223.668
  0
LINE
  8
0
 10
238.28
 20
-223.668
 11
237.892
 21
-223.729
  0
LINE
  8
0
 10
237.892
 20
-223.729
 11
237.5
 21
-223.75
  0
LINE
  8
0
 10
237.5
 20
-223.75
 11
237.108
 21
-223.729
  0
LINE
  8
0
 10
-237.892
 20
-223.729
 11
-238.28
 21
-223.668
  0
LINE
  8
0
 10
-238.28
 20
-223.668
 11
-238.659
 21
-223.566
  0
LINE
  8
0
 10
-238.659
 20
-223.566
 11
-239.025
 21
-223.426
  0
LINE
  8
0
 10
-239.025
 20
-223.426
 11
-239.375
 21
-223.248
  0
LINE
  8
0
 10
-239.375
 20
-223.248
 11
-239.704
 21
-223.034
  0
LINE
  8
0
 10
-239.704
 20
-223.034
 11
-240.009
 21
-222.787
  0
LINE
  8
0
 10
-240.009
 20
-222.787
 11
-240.287
 21
-222.509
  0
LINE
  8
0
 10
-240.287
 20
-222.509
 11
-240.534
 21
-222.204
  0
LINE
  8
0
 10
-240.534
 20
-222.204
 11
-240.748
 21
-221.875
  0
LINE
  8
0
 10
-240.748
 20
-221.875
 11
-240.926
 21
-221.525
  0
LINE
  8
0
 10
-240.926
 20
-221.525
 11
-241.066
 21
-221.159
  0
LINE
  8
0
 10
-241.066
 20
-221.159
 11
-241.168
 21
-220.78
  0
LINE
  8
0
 10
-241.168
 20
-220.78
 11
-241.229
 21
-220.392
  0
LINE
  8
0
 10
-241.229
 20
-220.392
 11
-241.25
 21
-220
  0
LINE
  8
0
 10
-241.25
 20
-220
 11
-241.229
 21
-219.608
  0
LINE
  8
0
 10
-241.229
 20
-219.608
 11
-241.168
 21
-219.22
  0
LINE
  8
0
 10
-241.168
 20
-219.22
 11
-241.066
 21
-218.841
  0
LINE
  8
0
 10
-241.066
 20
-218.841
 11
-240.926
 21
-218.475
  0
LINE
  8
0
 10
-240.926
 20
-218.475
 11
-240.748
 21
-218.125
  0
LINE
  8
0
 10
-240.748
 20
-218.125
 11
-240.534
 21
-217.796
  0
LINE
  8
0
 10
-240.534
 20
-217.796
 11
-240.287
 21
-217.491
  0
LINE
  8
0
 10
-240.287
 20
-217.491
 11
-240.009
 21
-217.213
  0
LINE
  8
0
 10
-240.009
 20
-217.213
 11
-239.704
 21
-216.966
  0
LINE
  8
0
 10
-239.704
 20
-216.966
 11
-239.375
 21
-216.752
  0
LINE
  8
0
 10
-239.375
 20
-216.752
 11
-239.025
 21
-216.574
  0
LINE
  8
0
 10
-239.025
 20
-216.574
 11
-238.659
 21
-216.434
  0
LINE
  8
0
 10
-238.659
 20
-216.434
 11
-238.28
 21
-216.332
  0
LINE
  8
0
 10
-238.28
 20
-216.332
 11
-237.892
 21
-216.271
  0
LINE
  8
0
 10
-237.892
 20
-216.271
 11
-237.5
 21
-216.25
  0
LINE
  8
0
 10
-237.5
 20
-216.25
 11
-237.108
 21
-216.271
  0
LINE
  8
0
 10
-237.108
 20
-216.271
 11
-236.72
 21
-216.332
  0
LINE
  8
0
 10
-236.72
 20
-216.332
 11
-236.341
 21
-216.434
  0
LINE
  8
0
 10
-236.341
 20
-216.434
 11
-235.975
 21
-216.574
  0
LINE
  8
0
 10
-235.975
 20
-216.574
 11
-235.625
 21
-216.752
  0
LINE
  8
0
 10
-235.625
 20
-216.752
 11
-235.296
 21
-216.966
  0
LINE
  8
0
 10
-235.296
 20
-216.966
 11
-234.991
 21
-217.213
  0
LINE
  8
0
 10
-234.991
 20
-217.213
 11
-234.713
 21
-217.491
  0
LINE
  8
0
 10
-234.713
 20
-217.491
 11
-234.466
 21
-217.796
  0
LINE
  8
0
 10
-234.466
 20
-217.796
 11
-234.252
 21
-218.125
  0
LINE
  8
0
 10
-234.252
 20
-218.125
 11
-234.074
 21
-218.475
  0
LINE
  8
0
 10
-234.074
 20
-218.475
 11
-233.934
 21
-218.841
  0
LINE
  8
0
 10
-233.934
 20
-218.841
 11
-233.832
 21
-219.22
  0
LINE
  8
0
 10
-233.832
 20
-219.22
 11
-233.771
 21
-219.608
  0
LINE
  8
0
 10
-233.771
 20
-219.608
 11
-233.75
 21
-220
  0
LINE
  8
0
 10
-233.75
 20
-220
 11
-233.771
 21
-220.392
  0
LINE
  8
0
 10
-233.771
 20
-220.392
 11
-233.832
 21
-220.78
  0
LINE
  8
0
 10
-233.832
 20
-220.78
 11
-233.934
 21
-221.159
  0
LINE
  8
0
 10
-233.934
 20
-221.159
 11
-234.074
 21
-221.525
  0
LINE
  8
0
 10
-234.074
 20
-221.525
 11
-234.252
 21
-221.875
  0
LINE
  8
0
 10
-234.252
 20
-221.875
 11
-234.466
 21
-222.204
  0
LINE
  8
0
 10
-234.466
 20
-222.204
 11
-234.713
 21
-222.509
  0
LINE
  8
0
 10
-234.713
 20
-222.509
 11
-234.991
 21
-222.787
  0
LINE
  8
0
 10
-234.991
 20
-222.787
 11
-235.296
 21
-223.034
  0
LINE
  8
0
 10
-235.296
 20
-223.034
 11
-235.625
 21
-223.248
  0
LINE
  8
0
 10
-235.625
 20
-223.248
 11
-235.975
 21
-223.426
  0
LINE
  8
0
 10
-235.975
 20
-223.426
 11
-236.341
 21
-223.566
  0
LINE
  8
0
 10
-236.341
 20
-223.566
 11
-236.72
 21
-223.668
  0
LINE
  8
0
 10
-236.72
 20
-223.668
 11
-237.108
 21
-223.729
  0
LINE
  8
0
 10
-237.108
 20
-223.729
 11
-237.5
 21
-223.75
  0
LINE
  8
0
 10
-237.5
 20
-223.75
 11
-237.892
 21
-223.729
  0
LINE
  8
0
 10
65
 20
-221.75
 11
64.7509
 21
-221.732
  0
LINE
  8
0
 10
64.7509
 20
-221.732
 11
64.507
 21
-221.679
  0
LINE
  8
0
 10
64.507
 20
-221.679
 11
64.273
 21
-221.592
  0
LINE
  8
0
 10
64.273
 20
-221.592
 11
64.0539
 21
-221.472
  0
LINE
  8
0
 10
64.0539
 20
-221.472
 11
63.854
 21
-221.323
  0
LINE
  8
0
 10
63.854
 20
-221.323
 11
63.6774
 21
-221.146
  0
LINE
  8
0
 10
63.6774
 20
-221.146
 11
63.5278
 21
-220.946
  0
LINE
  8
0
 10
63.5278
 20
-220.946
 11
63.4081
 21
-220.727
  0
LINE
  8
0
 10
63.4081
 20
-220.727
 11
63.3209
 21
-220.493
  0
LINE
  8
0
 10
63.3209
 20
-220.493
 11
63.2678
 21
-220.249
  0
LINE
  8
0
 10
63.2678
 20
-220.249
 11
63.25
 21
-220
  0
LINE
  8
0
 10
63.25
 20
-220
 11
63.2678
 21
-219.751
  0
LINE
  8
0
 10
63.2678
 20
-219.751
 11
63.3209
 21
-219.507
  0
LINE
  8
0
 10
63.3209
 20
-219.507
 11
63.4081
 21
-219.273
  0
LINE
  8
0
 10
63.4081
 20
-219.273
 11
63.5278
 21
-219.054
  0
LINE
  8
0
 10
63.5278
 20
-219.054
 11
63.6774
 21
-218.854
  0
LINE
  8
0
 10
63.6774
 20
-218.854
 11
63.854
 21
-218.677
  0
LINE
  8
0
 10
63.854
 20
-218.677
 11
64.0539
 21
-218.528
  0
LINE
  8
0
 10
64.0539
 20
-218.528
 11
64.273
 21
-218.408
  0
LINE
  8
0
 10
64.273
 20
-218.408
 11
64.507
 21
-218.321
  0
LINE
  8
0
 10
64.507
 20
-218.321
 11
64.7509
 21
-218.268
  0
LINE
  8
0
 10
64.7509
 20
-218.268
 11
65
 21
-218.25
  0
LINE
  8
0
 10
65
 20
-218.25
 11
185
 21
-218.25
  0
LINE
  8
0
 10
185
 20
-218.25
 11
185.249
 21
-218.268
  0
LINE
  8
0
 10
185.249
 20
-218.268
 11
185.493
 21
-218.321
  0
LINE
  8
0
 10
185.493
 20
-218.321
 11
185.727
 21
-218.408
  0
LINE
  8
0
 10
185.727
 20
-218.408
 11
185.946
 21
-218.528
  0
LINE
  8
0
 10
185.946
 20
-218.528
 11
186.146
 21
-218.677
  0
LINE
  8
0
 10
186.146
 20
-218.677
 11
186.323
 21
-218.854
  0
LINE
  8
0
 10
186.323
 20
-218.854
 11
186.472
 21
-219.054
  0
LINE
  8
0
 10
186.472
 20
-219.054
 11
186.592
 21
-219.273
  0
LINE
  8
0
 10
186.592
 20
-219.273
 11
186.679
 21
-219.507
  0
LINE
  8
0
 10
186.679
 20
-219.507
 11
186.732
 21
-219.751
  0
LINE
  8
0
 10
186.732
 20
-219.751
 11
186.75
 21
-220
  0
LINE
  8
0
 10
186.75
 20
-220
 11
186.732
 21
-220.249
  0
LINE
  8
0
 10
186.732
 20
-220.249
 11
186.679
 21
-220.493
  0
LINE
  8
0
 10
186.679
 20
-220.493
 11
186.592
 21
-220.727
  0
LINE
  8
0
 10
186.592
 20
-220.727
 11
186.472
 21
-220.946
  0
LINE
  8
0
 10
186.472
 20
-220.946
 11
186.323
 21
-221.146
  0
LINE
  8
0
 10
186.323
 20
-221.146
 11
186.146
 21
-221.323
  0
LINE
  8
0
 10
186.146
 20
-221.323
 11
185.946
 21
-221.472
  0
LINE
  8
0
 10
185.946
 20
-221.472
 11
185.727
 21
-221.592
  0
LINE
  8
0
 10
185.727
 20
-221.592
 11
185.493
 21
-221.679
  0
LINE
  8
0
 10
185.493
 20
-221.679
 11
185.249
 21
-221.732
  0
LINE
  8
0
 10
185.249
 20
-221.732
 11
185
 21
-221.75
  0
LINE
  8
0
 10
185
 20
-221.75
 11
65
 21
-221.75
  0
LINE
  8
0
 10
-65
 20
-221.75
 11
-65.2491
 21
-221.732
  0
LINE
  8
0
 10
-65.2491
 20
-221.732
 11
-65.493
 21
-221.679
  0
LINE
  8
0
 10
-65.493
 20
-221.679
 11
-65.727
 21
-221.592
  0
LINE
  8
0
 10
-65.727
 20
-221.592
 11
-65.9461
 21
-221.472
  0
LINE
  8
0
 10
-65.9461
 20
-221.472
 11
-66.146
 21
-221.323
  0
LINE
  8
0
 10
-66.146
 20
-221.323
 11
-66.3226
 21
-221.146
  0
LINE
  8
0
 10
-66.3226
 20
-221.146
 11
-66.4722
 21
-220.946
  0
LINE
  8
0
 10
-66.4722
 20
-220.946
 11
-66.5919
 21
-220.727
  0
LINE
  8
0
 10
-66.5919
 20
-220.727
 11
-66.6791
 21
-220.493
  0
LINE
  8
0
 10
-66.6791
 20
-220.493
 11
-66.7322
 21
-220.249
  0
LINE
  8
0
 10
-66.7322
 20
-220.249
 11
-66.75
 21
-220
  0
LINE
  8
0
 10
-66.75
 20
-220
 11
-66.7322
 21
-219.751
  0
LINE
  8
0
 10
-66.7322
 20
-219.751
 11
-66.6791
 21
-219.507
  0
LINE
  8
0
 10
-66.6791
 20
-219.507
 11
-66.5919
 21
-219.273
  0
LINE
  8
0
 10
-66.5919
 20
-219.273
 11
-66.4722
 21
-219.054
  0
LINE
  8
0
 10
-66.4722
 20
-219.054
 11
-66.3226
 21
-218.854
  0
LINE
  8
0
 10
-66.3226
 20
-218.854
 11
-66.146
 21
-218.677
  0
LINE
  8
0
 10
-66.146
 20
-218.677
 11
-65.9461
 21
-218.528
  0
LINE
  8
0
 10
-65.9461
 20
-218.528
 11
-65.727
 21
-218.408
  0
LINE
  8
0
 10
-65.727
 20
-218.408
 11
-65.493
 21
-218.321
  0
LINE
  8
0
 10
-65.493
 20
-218.321
 11
-65.2491
 21
-218.268
  0
LINE
  8
0
 10
-65.2491
 20
-218.268
 11
-65
 21
-218.25
  0
LINE
  8
0
 10
-65
 20
-218.25
 11
55
 21
-218.25
  0
LINE
  8
0
 10
55
 20
-218.25
 11
55.249
 21
-218.268
  0
LINE
  8
0
 10
55.249
 20
-218.268
 11
55.493
 21
-218.321
  0
LINE
  8
0
 10
55.493
 20
-218.321
 11
55.727
 21
-218.408
  0
LINE
  8
0
 10
55.727
 20
-218.408
 11
55.9461
 21
-218.528
  0
LINE
  8
0
 10
55.9461
 20
-218.528
 11
56.146
 21
-218.677
  0
LINE
  8
0
 10
56.146
 20
-218.677
 11
56.3226
 21
-218.854
  0
LINE
  8
0
 10
56.3226
 20
-218.854
 11
56.4722
 21
-219.054
  0
LINE
  8
0
 10
56.4722
 20
-219.054
 11
56.5918
 21
-219.273
  0
LINE
  8
0
 10
56.5918
 20
-219.273
 11
56.6791
 21
-219.507
  0
LINE
  8
0
 10
56.6791
 20
-219.507
 11
56.7322
 21
-219.751
  0
LINE
  8
0
 10
56.7322
 20
-219.751
 11
56.75
 21
-220
  0
LINE
  8
0
 10
56.75
 20
-220
 11
56.7322
 21
-220.249
  0
LINE
  8
0
 10
56.7322
 20
-220.249
 11
56.6791
 21
-220.493
  0
LINE
  8
0
 10
56.6791
 20
-220.493
 11
56.5918
 21
-220.727
  0
LINE
  8
0
 10
56.5918
 20
-220.727
 11
56.4722
 21
-220.946
  0
LINE
  8
0
 10
56.4722
 20
-220.946
 11
56.3226
 21
-221.146
  0
LINE
  8
0
 10
56.3226
 20
-221.146
 11
56.146
 21
-221.323
  0
LINE
  8
0
 10
56.146
 20
-221.323
 11
55.9461
 21
-221.472
  0
LINE
  8
0
 10
55.9461
 20
-221.472
 11
55.727
 21
-221.592
  0
LINE
  8
0
 10
55.727
 20
-221.592
 11
55.493
 21
-221.679
  0
LINE
  8
0
 10
55.493
 20
-221.679
 11
55.249
 21
-221.732
  0
LINE
  8
0
 10
55.249
 20
-221.732
 11
55
 21
-221.75
  0
LINE
  8
0
 10
55
 20
-221.75
 11
-65
 21
-221.75
  0
LINE
  8
0
 10
-195
 20
-221.75
 11
-195.249
 21
-221.732
  0
LINE
  8
0
 10
-195.249
 20
-221.732
 11
-195.493
 21
-221.679
  0
LINE
  8
0
 10
-195.493
 20
-221.679
 11
-195.727
 21
-221.592
  0
LINE
  8
0
 10
-195.727
 20
-221.592
 11
-195.946
 21
-221.472
  0
LINE
  8
0
 10
-195.946
 20
-221.472
 11
-196.146
 21
-221.323
  0
LINE
  8
0
 10
-196.146
 20
-221.323
 11
-196.323
 21
-221.146
  0
LINE
  8
0
 10
-196.323
 20
-221.146
 11
-196.472
 21
-220.946
  0
LINE
  8
0
 10
-196.472
 20
-220.946
 11
-196.592
 21
-220.727
  0
LINE
  8
0
 10
-196.592
 20
-220.727
 11
-196.679
 21
-220.493
  0
LINE
  8
0
 10
-196.679
 20
-220.493
 11
-196.732
 21
-220.249
  0
LINE
  8
0
 10
-196.732
 20
-220.249
 11
-196.75
 21
-220
  0
LINE
  8
0
 10
-196.75
 20
-220
 11
-196.732
 21
-219.751
  0
LINE
  8
0
 10
-196.732
 20
-219.751
 11
-196.679
 21
-219.507
  0
LINE
  8
0
 10
-196.679
 20
-219.507
 11
-196.592
 21
-219.273
  0
LINE
  8
0
 10
-196.592
 20
-219.273
 11
-196.472
 21
-219.054
  0
LINE
  8
0
 10
-196.472
 20
-219.054
 11
-196.323
 21
-218.854
  0
LINE
  8
0
 10
-196.323
 20
-218.854
 11
-196.146
 21
-218.677
  0
LINE
  8
0
 10
-196.146
 20
-218.677
 11
-195.946
 21
-218.528
  0
LINE
  8
0
 10
-195.946
 20
-218.528
 11
-195.727
 21
-218.408
  0
LINE
  8
0
 10
-195.727
 20
-218.408
 11
-195.493
 21
-218.321
  0
LINE
  8
0
 10
-195.493
 20
-218.321
 11
-195.249
 21
-218.268
  0
LINE
  8
0
 10
-195.249
 20
-218.268
 11
-195
 21
-218.25
  0
LINE
  8
0
 10
-195
 20
-218.25
 11
-75
 21
-218.25
  0
LINE
  8
0
 10
-75
 20
-218.25
 11
-74.7509
 21
-218.268
  0
LINE
  8
0
 10
-74.7509
 20
-218.268
 11
-74.507
 21
-218.321
  0
LINE
  8
0
 10
-74.507
 20
-218.321
 11
-74.273
 21
-218.408
  0
LINE
  8
0
 10
-74.273
 20
-218.408
 11
-74.0539
 21
-218.528
  0
LINE
  8
0
 10
-74.0539
 20
-218.528
 11
-73.854
 21
-218.677
  0
LINE
  8
0
 10
-73.854
 20
-218.677
 11
-73.6774
 21
-218.854
  0
LINE
  8
0
 10
-73.6774
 20
-218.854
 11
-73.5278
 21
-219.054
  0
LINE
  8
0
 10
-73.5278
 20
-219.054
 11
-73.4081
 21
-219.273
  0
LINE
  8
0
 10
-73.4081
 20
-219.273
 11
-73.3209
 21
-219.507
  0
LINE
  8
0
 10
-73.3209
 20
-219.507
 11
-73.2678
 21
-219.751
  0
LINE
  8
0
 10
-73.2678
 20
-219.751
 11
-73.25
 21
-220
  0
LINE
  8
0
 10
-73.25
 20
-220
 11
-73.2678
 21
-220.249
  0
LINE
  8
0
 10
-73.2678
 20
-220.249
 11
-73.3209
 21
-220.493
  0
LINE
  8
0
 10
-73.3209
 20
-220.493
 11
-73.4081
 21
-220.727
  0
LINE
  8
0
 10
-73.4081
 20
-220.727
 11
-73.5278
 21
-220.946
  0
LINE
  8
0
 10
-73.5278
 20
-220.946
 11
-73.6774
 21
-221.146
  0
LINE
  8
0
 10
-73.6774
 20
-221.146
 11
-73.854
 21
-221.323
  0
LINE
  8
0
 10
-73.854
 20
-221.323
 11
-74.0539
 21
-221.472
  0
LINE
  8
0
 10
-74.0539
 20
-221.472
 11
-74.273
 21
-221.592
  0
LINE
  8
0
 10
-74.273
 20
-221.592
 11
-74.507
 21
-221.679
  0
LINE
  8
0
 10
-74.507
 20
-221.679
 11
-74.7509
 21
-221.732
  0
LINE
  8
0
 10
-74.7509
 20
-221.732
 11
-75
 21
-221.75
  0
LINE
  8
0
 10
-75
 20
-221.75
 11
-195
 21
-221.75
  0
LINE
  8
0
 10
-215.186
 20
-221.69
 11
-215.43
 21
-221.645
  0
LINE
  8
0
 10
-215.43
 20
-221.645
 11
-215.665
 21
-221.565
  0
LINE
  8
0
 10
-215.665
 20
-221.565
 11
-215.886
 21
-221.451
  0
LINE
  8
0
 10
-215.886
 20
-221.451
 11
-216.087
 21
-221.307
  0
LINE
  8
0
 10
-216.087
 20
-221.307
 11
-216.266
 21
-221.134
  0
LINE
  8
0
 10
-216.266
 20
-221.134
 11
-216.418
 21
-220.938
  0
LINE
  8
0
 10
-216.418
 20
-220.938
 11
-216.539
 21
-220.722
  0
LINE
  8
0
 10
-216.539
 20
-220.722
 11
-216.628
 21
-220.49
  0
LINE
  8
0
 10
-216.628
 20
-220.49
 11
-216.682
 21
-220.248
  0
LINE
  8
0
 10
-216.682
 20
-220.248
 11
-216.7
 21
-220
  0
LINE
  8
0
 10
-216.7
 20
-220
 11
-216.682
 21
-219.752
  0
LINE
  8
0
 10
-216.682
 20
-219.752
 11
-216.628
 21
-219.51
  0
LINE
  8
0
 10
-216.628
 20
-219.51
 11
-216.539
 21
-219.278
  0
LINE
  8
0
 10
-216.539
 20
-219.278
 11
-216.418
 21
-219.062
  0
LINE
  8
0
 10
-216.418
 20
-219.062
 11
-216.266
 21
-218.866
  0
LINE
  8
0
 10
-216.266
 20
-218.866
 11
-216.087
 21
-218.693
  0
LINE
  8
0
 10
-216.087
 20
-218.693
 11
-215.886
 21
-218.549
  0
LINE
  8
0
 10
-215.886
 20
-218.549
 11
-215.665
 21
-218.435
  0
LINE
  8
0
 10
-215.665
 20
-218.435
 11
-215.43
 21
-218.355
  0
LINE
  8
0
 10
-215.43
 20
-218.355
 11
-215.186
 21
-218.31
  0
LINE
  8
0
 10
-215.186
 20
-218.31
 11
-214.938
 21
-218.301
  0
LINE
  8
0
 10
-214.938
 20
-218.301
 11
-214.691
 21
-218.328
  0
LINE
  8
0
 10
-214.691
 20
-218.328
 11
-214.451
 21
-218.391
  0
LINE
  8
0
 10
-214.451
 20
-218.391
 11
-214.223
 21
-218.488
  0
LINE
  8
0
 10
-214.223
 20
-218.488
 11
-214.011
 21
-218.617
  0
LINE
  8
0
 10
-214.011
 20
-218.617
 11
-213.82
 21
-218.776
  0
LINE
  8
0
 10
-213.82
 20
-218.776
 11
-213.654
 21
-218.961
  0
LINE
  8
0
 10
-213.654
 20
-218.961
 11
-213.518
 21
-219.168
  0
LINE
  8
0
 10
-213.518
 20
-219.168
 11
-213.412
 21
-219.393
  0
LINE
  8
0
 10
-213.412
 20
-219.393
 11
-213.341
 21
-219.63
  0
LINE
  8
0
 10
-213.341
 20
-219.63
 11
-213.305
 21
-219.876
  0
LINE
  8
0
 10
-213.305
 20
-219.876
 11
-213.305
 21
-220.124
  0
LINE
  8
0
 10
-213.305
 20
-220.124
 11
-213.341
 21
-220.37
  0
LINE
  8
0
 10
-213.341
 20
-220.37
 11
-213.412
 21
-220.607
  0
LINE
  8
0
 10
-213.412
 20
-220.607
 11
-213.518
 21
-220.832
  0
LINE
  8
0
 10
-213.518
 20
-220.832
 11
-213.654
 21
-221.039
  0
LINE
  8
0
 10
-213.654
 20
-221.039
 11
-213.82
 21
-221.224
  0
LINE
  8
0
 10
-213.82
 20
-221.224
 11
-214.011
 21
-221.383
  0
LINE
  8
0
 10
-214.011
 20
-221.383
 11
-214.223
 21
-221.512
  0
LINE
  8
0
 10
-214.223
 20
-221.512
 11
-214.451
 21
-221.609
  0
LINE
  8
0
 10
-214.451
 20
-221.609
 11
-214.691
 21
-221.672
  0
LINE
  8
0
 10
-214.691
 20
-221.672
 11
-214.938
 21
-221.699
  0
LINE
  8
0
 10
-214.938
 20
-221.699
 11
-215.186
 21
-221.69
  0
LINE
  8
0
 10
214.691
 20
-221.672
 11
214.451
 21
-221.609
  0
LINE
  8
0
 10
214.451
 20
-221.609
 11
214.223
 21
-221.512
  0
LINE
  8
0
 10
214.223
 20
-221.512
 11
214.011
 21
-221.383
  0
LINE
  8
0
 10
214.011
 20
-221.383
 11
213.82
 21
-221.224
  0
LINE
  8
0
 10
213.82
 20
-221.224
 11
213.654
 21
-221.039
  0
LINE
  8
0
 10
213.654
 20
-221.039
 11
213.518
 21
-220.832
  0
LINE
  8
0
 10
213.518
 20
-220.832
 11
213.412
 21
-220.607
  0
LINE
  8
0
 10
213.412
 20
-220.607
 11
213.341
 21
-220.37
  0
LINE
  8
0
 10
213.341
 20
-220.37
 11
213.305
 21
-220.124
  0
LINE
  8
0
 10
213.305
 20
-220.124
 11
213.305
 21
-219.876
  0
LINE
  8
0
 10
213.305
 20
-219.876
 11
213.341
 21
-219.63
  0
LINE
  8
0
 10
213.341
 20
-219.63
 11
213.412
 21
-219.393
  0
LINE
  8
0
 10
213.412
 20
-219.393
 11
213.518
 21
-219.168
  0
LINE
  8
0
 10
213.518
 20
-219.168
 11
213.654
 21
-218.961
  0
LINE
  8
0
 10
213.654
 20
-218.961
 11
213.82
 21
-218.776
  0
LINE
  8
0
 10
213.82
 20
-218.776
 11
214.011
 21
-218.617
  0
LINE
  8
0
 10
214.011
 20
-218.617
 11
214.223
 21
-218.488
  0
LINE
  8
0
 10
214.223
 20
-218.488
 11
214.451
 21
-218.391
  0
LINE
  8
0
 10
214.451
 20
-218.391
 11
214.691
 21
-218.328
  0
LINE
  8
0
 10
214.691
 20
-218.328
 11
214.938
 21
-218.301
  0
LINE
  8
0
 10
214.938
 20
-218.301
 11
215.186
 21
-218.31
  0
LINE
  8
0
 10
215.186
 20
-218.31
 11
215.43
 21
-218.355
  0
LINE
  8
0
 10
215.43
 20
-218.355
 11
215.665
 21
-218.435
  0
LINE
  8
0
 10
215.665
 20
-218.435
 11
215.886
 21
-218.549
  0
LINE
  8
0
 10
215.886
 20
-218.549
 11
216.087
 21
-218.693
  0
LINE
  8
0
 10
216.087
 20
-218.693
 11
216.266
 21
-218.866
  0
LINE
  8
0
 10
216.266
 20
-218.866
 11
216.418
 21
-219.062
  0
LINE
  8
0
 10
216.418
 20
-219.062
 11
216.539
 21
-219.278
  0
LINE
  8
0
 10
216.539
 20
-219.278
 11
216.628
 21
-219.51
  0
LINE
  8
0
 10
216.628
 20
-219.51
 11
216.682
 21
-219.752
  0
LINE
  8
0
 10
216.682
 20
-219.752
 11
216.7
 21
-220
  0
LINE
  8
0
 10
216.7
 20
-220
 11
216.682
 21
-220.248
  0
LINE
  8
0
 10
216.682
 20
-220.248
 11
216.628
 21
-220.49
  0
LINE
  8
0
 10
216.628
 20
-220.49
 11
216.539
 21
-220.722
  0
LINE
  8
0
 10
216.539
 20
-220.722
 11
216.418
 21
-220.938
  0
LINE
  8
0
 10
216.418
 20
-220.938
 11
216.266
 21
-221.134
  0
LINE
  8
0
 10
216.266
 20
-221.134
 11
216.087
 21
-221.307
  0
LINE
  8
0
 10
216.087
 20
-221.307
 11
215.886
 21
-221.451
  0
LINE
  8
0
 10
215.886
 20
-221.451
 11
215.665
 21
-221.565
  0
LINE
  8
0
 10
215.665
 20
-221.565
 11
215.43
 21
-221.645
  0
LINE
  8
0
 10
215.43
 20
-221.645
 11
215.186
 21
-221.69
  0
LINE
  8
0
 10
215.186
 20
-221.69
 11
214.938
 21
-221.699
  0
LINE
  8
0
 10
214.938
 20
-221.699
 11
214.691
 21
-221.672
  0
LINE
  8
0
 10
263.027
 20
-222.645
 11
262.783
 21
-222.609
  0
LINE
  8
0
 10
262.783
 20
-222.609
 11
262.547
 21
-222.536
  0
LINE
  8
0
 10
262.547
 20
-222.536
 11
262.325
 21
-222.429
  0
LINE
  8
0
 10
262.325
 20
-222.429
 11
262.121
 21
-222.29
  0
LINE
  8
0
 10
262.121
 20
-222.29
 11
261.94
 21
-222.122
  0
LINE
  8
0
 10
261.94
 20
-222.122
 11
261.787
 21
-221.929
  0
LINE
  8
0
 10
261.787
 20
-221.929
 11
261.663
 21
-221.716
  0
LINE
  8
0
 10
261.663
 20
-221.716
 11
261.573
 21
-221.486
  0
LINE
  8
0
 10
261.573
 20
-221.486
 11
261.518
 21
-221.246
  0
LINE
  8
0
 10
261.518
 20
-221.246
 11
261.5
 21
-221
  0
LINE
  8
0
 10
261.5
 20
-221
 11
261.518
 21
-220.754
  0
LINE
  8
0
 10
261.518
 20
-220.754
 11
261.573
 21
-220.514
  0
LINE
  8
0
 10
261.573
 20
-220.514
 11
261.663
 21
-220.284
  0
LINE
  8
0
 10
261.663
 20
-220.284
 11
261.787
 21
-220.071
  0
LINE
  8
0
 10
261.787
 20
-220.071
 11
261.94
 21
-219.878
  0
LINE
  8
0
 10
261.94
 20
-219.878
 11
262.121
 21
-219.71
  0
LINE
  8
0
 10
262.121
 20
-219.71
 11
262.325
 21
-219.571
  0
LINE
  8
0
 10
262.325
 20
-219.571
 11
262.547
 21
-219.464
  0
LINE
  8
0
 10
262.547
 20
-219.464
 11
262.783
 21
-219.391
  0
LINE
  8
0
 10
262.783
 20
-219.391
 11
263.027
 21
-219.355
  0
LINE
  8
0
 10
263.027
 20
-219.355
 11
271.273
 21
-219.355
  0
LINE
  8
0
 10
271.273
 20
-219.355
 11
271.517
 21
-219.391
  0
LINE
  8
0
 10
271.517
 20
-219.391
 11
271.753
 21
-219.464
  0
LINE
  8
0
 10
271.753
 20
-219.464
 11
271.975
 21
-219.571
  0
LINE
  8
0
 10
271.975
 20
-219.571
 11
272.179
 21
-219.71
  0
LINE
  8
0
 10
272.179
 20
-219.71
 11
272.36
 21
-219.878
  0
LINE
  8
0
 10
272.36
 20
-219.878
 11
272.513
 21
-220.071
  0
LINE
  8
0
 10
272.513
 20
-220.071
 11
272.637
 21
-220.284
  0
LINE
  8
0
 10
272.637
 20
-220.284
 11
272.727
 21
-220.514
  0
LINE
  8
0
 10
272.727
 20
-220.514
 11
272.782
 21
-220.754
  0
LINE
  8
0
 10
272.782
 20
-220.754
 11
272.8
 21
-221
  0
LINE
  8
0
 10
272.8
 20
-221
 11
272.782
 21
-221.246
  0
LINE
  8
0
 10
272.782
 20
-221.246
 11
272.727
 21
-221.486
  0
LINE
  8
0
 10
272.727
 20
-221.486
 11
272.637
 21
-221.716
  0
LINE
  8
0
 10
272.637
 20
-221.716
 11
272.513
 21
-221.929
  0
LINE
  8
0
 10
272.513
 20
-221.929
 11
272.36
 21
-222.122
  0
LINE
  8
0
 10
272.36
 20
-222.122
 11
272.179
 21
-222.29
  0
LINE
  8
0
 10
272.179
 20
-222.29
 11
271.975
 21
-222.429
  0
LINE
  8
0
 10
271.975
 20
-222.429
 11
271.753
 21
-222.536
  0
LINE
  8
0
 10
271.753
 20
-222.536
 11
271.517
 21
-222.609
  0
LINE
  8
0
 10
271.517
 20
-222.609
 11
271.273
 21
-222.645
  0
LINE
  8
0
 10
271.273
 20
-222.645
 11
263.027
 21
-222.645
  0
LINE
  8
0
 10
294.027
 20
-222.645
 11
293.783
 21
-222.609
  0
LINE
  8
0
 10
293.783
 20
-222.609
 11
293.547
 21
-222.536
  0
LINE
  8
0
 10
293.547
 20
-222.536
 11
293.325
 21
-222.429
  0
LINE
  8
0
 10
293.325
 20
-222.429
 11
293.121
 21
-222.29
  0
LINE
  8
0
 10
293.121
 20
-222.29
 11
292.94
 21
-222.122
  0
LINE
  8
0
 10
292.94
 20
-222.122
 11
292.787
 21
-221.929
  0
LINE
  8
0
 10
292.787
 20
-221.929
 11
292.663
 21
-221.716
  0
LINE
  8
0
 10
292.663
 20
-221.716
 11
292.573
 21
-221.486
  0
LINE
  8
0
 10
292.573
 20
-221.486
 11
292.518
 21
-221.246
  0
LINE
  8
0
 10
292.518
 20
-221.246
 11
292.5
 21
-221
  0
LINE
  8
0
 10
292.5
 20
-221
 11
292.518
 21
-220.754
  0
LINE
  8
0
 10
292.518
 20
-220.754
 11
292.573
 21
-220.514
  0
LINE
  8
0
 10
292.573
 20
-220.514
 11
292.663
 21
-220.284
  0
LINE
  8
0
 10
292.663
 20
-220.284
 11
292.787
 21
-220.071
  0
LINE
  8
0
 10
292.787
 20
-220.071
 11
292.94
 21
-219.878
  0
LINE
  8
0
 10
292.94
 20
-219.878
 11
293.121
 21
-219.71
  0
LINE
  8
0
 10
293.121
 20
-219.71
 11
293.325
 21
-219.571
  0
LINE
  8
0
 10
293.325
 20
-219.571
 11
293.547
 21
-219.464
  0
LINE
  8
0
 10
293.547
 20
-219.464
 11
293.783
 21
-219.391
  0
LINE
  8
0
 10
293.783
 20
-219.391
 11
294.027
 21
-219.355
  0
LINE
  8
0
 10
294.027
 20
-219.355
 11
302.273
 21
-219.355
  0
LINE
  8
0
 10
302.273
 20
-219.355
 11
302.517
 21
-219.391
  0
LINE
  8
0
 10
302.517
 20
-219.391
 11
302.753
 21
-219.464
  0
LINE
  8
0
 10
302.753
 20
-219.464
 11
302.975
 21
-219.571
  0
LINE
  8
0
 10
302.975
 20
-219.571
 11
303.179
 21
-219.71
  0
LINE
  8
0
 10
303.179
 20
-219.71
 11
303.36
 21
-219.878
  0
LINE
  8
0
 10
303.36
 20
-219.878
 11
303.513
 21
-220.071
  0
LINE
  8
0
 10
303.513
 20
-220.071
 11
303.637
 21
-220.284
  0
LINE
  8
0
 10
303.637
 20
-220.284
 11
303.727
 21
-220.514
  0
LINE
  8
0
 10
303.727
 20
-220.514
 11
303.782
 21
-220.754
  0
LINE
  8
0
 10
303.782
 20
-220.754
 11
303.8
 21
-221
  0
LINE
  8
0
 10
303.8
 20
-221
 11
303.782
 21
-221.246
  0
LINE
  8
0
 10
303.782
 20
-221.246
 11
303.727
 21
-221.486
  0
LINE
  8
0
 10
303.727
 20
-221.486
 11
303.637
 21
-221.716
  0
LINE
  8
0
 10
303.637
 20
-221.716
 11
303.513
 21
-221.929
  0
LINE
  8
0
 10
303.513
 20
-221.929
 11
303.36
 21
-222.122
  0
LINE
  8
0
 10
303.36
 20
-222.122
 11
303.179
 21
-222.29
  0
LINE
  8
0
 10
303.179
 20
-222.29
 11
302.975
 21
-222.429
  0
LINE
  8
0
 10
302.975
 20
-222.429
 11
302.753
 21
-222.536
  0
LINE
  8
0
 10
302.753
 20
-222.536
 11
302.517
 21
-222.609
  0
LINE
  8
0
 10
302.517
 20
-222.609
 11
302.273
 21
-222.645
  0
LINE
  8
0
 10
302.273
 20
-222.645
 11
294.027
 21
-222.645
  0
ENDSEC
  0
SECTION
  2
OBJECTS
  0
DICTIONARY
  0
ENDSEC
  0
EOF
