  0
SECTION
  2
BLOCKS
  0
ENDSEC
  0
SECTION
  2
ENTITIES
  0
LINE
  8
0
 10
315.523
 20
-233.473
 11
316.04
 21
-233.391
  0
LINE
  8
0
 10
316.04
 20
-233.391
 11
316.545
 21
-233.255
  0
LINE
  8
0
 10
316.545
 20
-233.255
 11
317.034
 21
-233.068
  0
LINE
  8
0
 10
317.034
 20
-233.068
 11
317.5
 21
-232.83
  0
LINE
  8
0
 10
317.5
 20
-232.83
 11
317.939
 21
-232.545
  0
LINE
  8
0
 10
317.939
 20
-232.545
 11
318.346
 21
-232.216
  0
LINE
  8
0
 10
318.346
 20
-232.216
 11
318.716
 21
-231.846
  0
LINE
  8
0
 10
318.716
 20
-231.846
 11
319.045
 21
-231.439
  0
LINE
  8
0
 10
319.045
 20
-231.439
 11
319.33
 21
-231
  0
LINE
  8
0
 10
319.33
 20
-231
 11
319.568
 21
-230.534
  0
LINE
  8
0
 10
319.568
 20
-230.534
 11
319.755
 21
-230.045
  0
LINE
  8
0
 10
319.755
 20
-230.045
 11
319.891
 21
-229.54
  0
LINE
  8
0
 10
319.891
 20
-229.54
 11
319.973
 21
-229.023
  0
LINE
  8
0
 10
319.973
 20
-229.023
 11
320
 21
-228.5
  0
LINE
  8
0
 10
320
 20
-228.5
 11
320
 21
228.5
  0
LINE
  8
0
 10
320
 20
228.5
 11
319.973
 21
229.023
  0
LINE
  8
0
 10
319.973
 20
229.023
 11
319.891
 21
229.54
  0
LINE
  8
0
 10
319.891
 20
229.54
 11
319.755
 21
230.045
  0
LINE
  8
0
 10
319.755
 20
230.045
 11
319.568
 21
230.534
  0
LINE
  8
0
 10
319.568
 20
230.534
 11
319.33
 21
231
  0
LINE
  8
0
 10
319.33
 20
231
 11
319.045
 21
231.439
  0
LINE
  8
0
 10
319.045
 20
231.439
 11
318.716
 21
231.846
  0
LINE
  8
0
 10
318.716
 20
231.846
 11
318.346
 21
232.216
  0
LINE
  8
0
 10
318.346
 20
232.216
 11
317.939
 21
232.545
  0
LINE
  8
0
 10
317.939
 20
232.545
 11
317.5
 21
232.83
  0
LINE
  8
0
 10
317.5
 20
232.83
 11
317.034
 21
233.068
  0
LINE
  8
0
 10
317.034
 20
233.068
 11
316.545
 21
233.255
  0
LINE
  8
0
 10
316.545
 20
233.255
 11
316.04
 21
233.391
  0
LINE
  8
0
 10
316.04
 20
233.391
 11
315.523
 21
233.473
  0
LINE
  8
0
 10
315.523
 20
233.473
 11
315
 21
233.5
  0
LINE
  8
0
 10
315
 20
233.5
 11
-315
 21
233.5
  0
LINE
  8
0
 10
-315
 20
233.5
 11
-315.523
 21
233.473
  0
LINE
  8
0
 10
-315.523
 20
233.473
 11
-316.04
 21
233.391
  0
LINE
  8
0
 10
-316.04
 20
233.391
 11
-316.545
 21
233.255
  0
LINE
  8
0
 10
-316.545
 20
233.255
 11
-317.034
 21
233.068
  0
LINE
  8
0
 10
-317.034
 20
233.068
 11
-317.5
 21
232.83
  0
LINE
  8
0
 10
-317.5
 20
232.83
 11
-317.939
 21
232.545
  0
LINE
  8
0
 10
-317.939
 20
232.545
 11
-318.346
 21
232.216
  0
LINE
  8
0
 10
-318.346
 20
232.216
 11
-318.716
 21
231.846
  0
LINE
  8
0
 10
-318.716
 20
231.846
 11
-319.045
 21
231.439
  0
LINE
  8
0
 10
-319.045
 20
231.439
 11
-319.33
 21
231
  0
LINE
  8
0
 10
-319.33
 20
231
 11
-319.568
 21
230.534
  0
LINE
  8
0
 10
-319.568
 20
230.534
 11
-319.755
 21
230.045
  0
LINE
  8
0
 10
-319.755
 20
230.045
 11
-319.891
 21
229.54
  0
LINE
  8
0
 10
-319.891
 20
229.54
 11
-319.973
 21
229.023
  0
LINE
  8
0
 10
-319.973
 20
229.023
 11
-320
 21
228.5
  0
LINE
  8
0
 10
-320
 20
228.5
 11
-320
 21
-228.5
  0
LINE
  8
0
 10
-320
 20
-228.5
 11
-319.973
 21
-229.023
  0
LINE
  8
0
 10
-319.973
 20
-229.023
 11
-319.891
 21
-229.54
  0
LINE
  8
0
 10
-319.891
 20
-229.54
 11
-319.755
 21
-230.045
  0
LINE
  8
0
 10
-319.755
 20
-230.045
 11
-319.568
 21
-230.534
  0
LINE
  8
0
 10
-319.568
 20
-230.534
 11
-319.33
 21
-231
  0
LINE
  8
0
 10
-319.33
 20
-231
 11
-319.045
 21
-231.439
  0
LINE
  8
0
 10
-319.045
 20
-231.439
 11
-318.716
 21
-231.846
  0
LINE
  8
0
 10
-318.716
 20
-231.846
 11
-318.346
 21
-232.216
  0
LINE
  8
0
 10
-318.346
 20
-232.216
 11
-317.939
 21
-232.545
  0
LINE
  8
0
 10
-317.939
 20
-232.545
 11
-317.5
 21
-232.83
  0
LINE
  8
0
 10
-317.5
 20
-232.83
 11
-317.034
 21
-233.068
  0
LINE
  8
0
 10
-317.034
 20
-233.068
 11
-316.545
 21
-233.255
  0
LINE
  8
0
 10
-316.545
 20
-233.255
 11
-316.04
 21
-233.391
  0
LINE
  8
0
 10
-316.04
 20
-233.391
 11
-315.523
 21
-233.473
  0
LINE
  8
0
 10
-315.523
 20
-233.473
 11
-315
 21
-233.5
  0
LINE
  8
0
 10
-315
 20
-233.5
 11
315
 21
-233.5
  0
LINE
  8
0
 10
315
 20
-233.5
 11
315.523
 21
-233.473
  0
LINE
  8
0
 10
-312.892
 20
222.271
 11
-313.28
 21
222.332
  0
LINE
  8
0
 10
-313.28
 20
222.332
 11
-313.659
 21
222.434
  0
LINE
  8
0
 10
-313.659
 20
222.434
 11
-314.025
 21
222.574
  0
LINE
  8
0
 10
-314.025
 20
222.574
 11
-314.375
 21
222.752
  0
LINE
  8
0
 10
-314.375
 20
222.752
 11
-314.704
 21
222.966
  0
LINE
  8
0
 10
-314.704
 20
222.966
 11
-315.009
 21
223.213
  0
LINE
  8
0
 10
-315.009
 20
223.213
 11
-315.287
 21
223.491
  0
LINE
  8
0
 10
-315.287
 20
223.491
 11
-315.534
 21
223.796
  0
LINE
  8
0
 10
-315.534
 20
223.796
 11
-315.748
 21
224.125
  0
LINE
  8
0
 10
-315.748
 20
224.125
 11
-315.926
 21
224.475
  0
LINE
  8
0
 10
-315.926
 20
224.475
 11
-316.066
 21
224.841
  0
LINE
  8
0
 10
-316.066
 20
224.841
 11
-316.168
 21
225.22
  0
LINE
  8
0
 10
-316.168
 20
225.22
 11
-316.229
 21
225.608
  0
LINE
  8
0
 10
-316.229
 20
225.608
 11
-316.25
 21
226
  0
LINE
  8
0
 10
-316.25
 20
226
 11
-316.229
 21
226.392
  0
LINE
  8
0
 10
-316.229
 20
226.392
 11
-316.168
 21
226.78
  0
LINE
  8
0
 10
-316.168
 20
226.78
 11
-316.066
 21
227.159
  0
LINE
  8
0
 10
-316.066
 20
227.159
 11
-315.926
 21
227.525
  0
LINE
  8
0
 10
-315.926
 20
227.525
 11
-315.748
 21
227.875
  0
LINE
  8
0
 10
-315.748
 20
227.875
 11
-315.534
 21
228.204
  0
LINE
  8
0
 10
-315.534
 20
228.204
 11
-315.287
 21
228.509
  0
LINE
  8
0
 10
-315.287
 20
228.509
 11
-315.009
 21
228.787
  0
LINE
  8
0
 10
-315.009
 20
228.787
 11
-314.704
 21
229.034
  0
LINE
  8
0
 10
-314.704
 20
229.034
 11
-314.375
 21
229.248
  0
LINE
  8
0
 10
-314.375
 20
229.248
 11
-314.025
 21
229.426
  0
LINE
  8
0
 10
-314.025
 20
229.426
 11
-313.659
 21
229.566
  0
LINE
  8
0
 10
-313.659
 20
229.566
 11
-313.28
 21
229.668
  0
LINE
  8
0
 10
-313.28
 20
229.668
 11
-312.892
 21
229.729
  0
LINE
  8
0
 10
-312.892
 20
229.729
 11
-312.5
 21
229.75
  0
LINE
  8
0
 10
-312.5
 20
229.75
 11
-312.108
 21
229.729
  0
LINE
  8
0
 10
-312.108
 20
229.729
 11
-311.72
 21
229.668
  0
LINE
  8
0
 10
-311.72
 20
229.668
 11
-311.341
 21
229.566
  0
LINE
  8
0
 10
-311.341
 20
229.566
 11
-310.975
 21
229.426
  0
LINE
  8
0
 10
-310.975
 20
229.426
 11
-310.625
 21
229.248
  0
LINE
  8
0
 10
-310.625
 20
229.248
 11
-310.296
 21
229.034
  0
LINE
  8
0
 10
-310.296
 20
229.034
 11
-309.991
 21
228.787
  0
LINE
  8
0
 10
-309.991
 20
228.787
 11
-309.713
 21
228.509
  0
LINE
  8
0
 10
-309.713
 20
228.509
 11
-309.466
 21
228.204
  0
LINE
  8
0
 10
-309.466
 20
228.204
 11
-309.252
 21
227.875
  0
LINE
  8
0
 10
-309.252
 20
227.875
 11
-309.074
 21
227.525
  0
LINE
  8
0
 10
-309.074
 20
227.525
 11
-308.934
 21
227.159
  0
LINE
  8
0
 10
-308.934
 20
227.159
 11
-308.832
 21
226.78
  0
LINE
  8
0
 10
-308.832
 20
226.78
 11
-308.771
 21
226.392
  0
LINE
  8
0
 10
-308.771
 20
226.392
 11
-308.75
 21
226
  0
LINE
  8
0
 10
-308.75
 20
226
 11
-308.771
 21
225.608
  0
LINE
  8
0
 10
-308.771
 20
225.608
 11
-308.832
 21
225.22
  0
LINE
  8
0
 10
-308.832
 20
225.22
 11
-308.934
 21
224.841
  0
LINE
  8
0
 10
-308.934
 20
224.841
 11
-309.074
 21
224.475
  0
LINE
  8
0
 10
-309.074
 20
224.475
 11
-309.252
 21
224.125
  0
LINE
  8
0
 10
-309.252
 20
224.125
 11
-309.466
 21
223.796
  0
LINE
  8
0
 10
-309.466
 20
223.796
 11
-309.713
 21
223.491
  0
LINE
  8
0
 10
-309.713
 20
223.491
 11
-309.991
 21
223.213
  0
LINE
  8
0
 10
-309.991
 20
223.213
 11
-310.296
 21
222.966
  0
LINE
  8
0
 10
-310.296
 20
222.966
 11
-310.625
 21
222.752
  0
LINE
  8
0
 10
-310.625
 20
222.752
 11
-310.975
 21
222.574
  0
LINE
  8
0
 10
-310.975
 20
222.574
 11
-311.341
 21
222.434
  0
LINE
  8
0
 10
-311.341
 20
222.434
 11
-311.72
 21
222.332
  0
LINE
  8
0
 10
-311.72
 20
222.332
 11
-312.108
 21
222.271
  0
LINE
  8
0
 10
-312.108
 20
222.271
 11
-312.5
 21
222.25
  0
LINE
  8
0
 10
-312.5
 20
222.25
 11
-312.892
 21
222.271
  0
LINE
  8
0
 10
312.108
 20
222.271
 11
311.72
 21
222.332
  0
LINE
  8
0
 10
311.72
 20
222.332
 11
311.341
 21
222.434
  0
LINE
  8
0
 10
311.341
 20
222.434
 11
310.975
 21
222.574
  0
LINE
  8
0
 10
310.975
 20
222.574
 11
310.625
 21
222.752
  0
LINE
  8
0
 10
310.625
 20
222.752
 11
310.296
 21
222.966
  0
LINE
  8
0
 10
310.296
 20
222.966
 11
309.991
 21
223.213
  0
LINE
  8
0
 10
309.991
 20
223.213
 11
309.713
 21
223.491
  0
LINE
  8
0
 10
309.713
 20
223.491
 11
309.466
 21
223.796
  0
LINE
  8
0
 10
309.466
 20
223.796
 11
309.252
 21
224.125
  0
LINE
  8
0
 10
309.252
 20
224.125
 11
309.074
 21
224.475
  0
LINE
  8
0
 10
309.074
 20
224.475
 11
308.934
 21
224.841
  0
LINE
  8
0
 10
308.934
 20
224.841
 11
308.832
 21
225.22
  0
LINE
  8
0
 10
308.832
 20
225.22
 11
308.771
 21
225.608
  0
LINE
  8
0
 10
308.771
 20
225.608
 11
308.75
 21
226
  0
LINE
  8
0
 10
308.75
 20
226
 11
308.771
 21
226.392
  0
LINE
  8
0
 10
308.771
 20
226.392
 11
308.832
 21
226.78
  0
LINE
  8
0
 10
308.832
 20
226.78
 11
308.934
 21
227.159
  0
LINE
  8
0
 10
308.934
 20
227.159
 11
309.074
 21
227.525
  0
LINE
  8
0
 10
309.074
 20
227.525
 11
309.252
 21
227.875
  0
LINE
  8
0
 10
309.252
 20
227.875
 11
309.466
 21
228.204
  0
LINE
  8
0
 10
309.466
 20
228.204
 11
309.713
 21
228.509
  0
LINE
  8
0
 10
309.713
 20
228.509
 11
309.991
 21
228.787
  0
LINE
  8
0
 10
309.991
 20
228.787
 11
310.296
 21
229.034
  0
LINE
  8
0
 10
310.296
 20
229.034
 11
310.625
 21
229.248
  0
LINE
  8
0
 10
310.625
 20
229.248
 11
310.975
 21
229.426
  0
LINE
  8
0
 10
310.975
 20
229.426
 11
311.341
 21
229.566
  0
LINE
  8
0
 10
311.341
 20
229.566
 11
311.72
 21
229.668
  0
LINE
  8
0
 10
311.72
 20
229.668
 11
312.108
 21
229.729
  0
LINE
  8
0
 10
312.108
 20
229.729
 11
312.5
 21
229.75
  0
LINE
  8
0
 10
312.5
 20
229.75
 11
312.892
 21
229.729
  0
LINE
  8
0
 10
312.892
 20
229.729
 11
313.28
 21
229.668
  0
LINE
  8
0
 10
313.28
 20
229.668
 11
313.659
 21
229.566
  0
LINE
  8
0
 10
313.659
 20
229.566
 11
314.025
 21
229.426
  0
LINE
  8
0
 10
314.025
 20
229.426
 11
314.375
 21
229.248
  0
LINE
  8
0
 10
314.375
 20
229.248
 11
314.704
 21
229.034
  0
LINE
  8
0
 10
314.704
 20
229.034
 11
315.009
 21
228.787
  0
LINE
  8
0
 10
315.009
 20
228.787
 11
315.287
 21
228.509
  0
LINE
  8
0
 10
315.287
 20
228.509
 11
315.534
 21
228.204
  0
LINE
  8
0
 10
315.534
 20
228.204
 11
315.748
 21
227.875
  0
LINE
  8
0
 10
315.748
 20
227.875
 11
315.926
 21
227.525
  0
LINE
  8
0
 10
315.926
 20
227.525
 11
316.066
 21
227.159
  0
LINE
  8
0
 10
316.066
 20
227.159
 11
316.168
 21
226.78
  0
LINE
  8
0
 10
316.168
 20
226.78
 11
316.229
 21
226.392
  0
LINE
  8
0
 10
316.229
 20
226.392
 11
316.25
 21
226
  0
LINE
  8
0
 10
316.25
 20
226
 11
316.229
 21
225.608
  0
LINE
  8
0
 10
316.229
 20
225.608
 11
316.168
 21
225.22
  0
LINE
  8
0
 10
316.168
 20
225.22
 11
316.066
 21
224.841
  0
LINE
  8
0
 10
316.066
 20
224.841
 11
315.926
 21
224.475
  0
LINE
  8
0
 10
315.926
 20
224.475
 11
315.748
 21
224.125
  0
LINE
  8
0
 10
315.748
 20
224.125
 11
315.534
 21
223.796
  0
LINE
  8
0
 10
315.534
 20
223.796
 11
315.287
 21
223.491
  0
LINE
  8
0
 10
315.287
 20
223.491
 11
315.009
 21
223.213
  0
LINE
  8
0
 10
315.009
 20
223.213
 11
314.704
 21
222.966
  0
LINE
  8
0
 10
314.704
 20
222.966
 11
314.375
 21
222.752
  0
LINE
  8
0
 10
314.375
 20
222.752
 11
314.025
 21
222.574
  0
LINE
  8
0
 10
314.025
 20
222.574
 11
313.659
 21
222.434
  0
LINE
  8
0
 10
313.659
 20
222.434
 11
313.28
 21
222.332
  0
LINE
  8
0
 10
313.28
 20
222.332
 11
312.892
 21
222.271
  0
LINE
  8
0
 10
312.892
 20
222.271
 11
312.5
 21
222.25
  0
LINE
  8
0
 10
312.5
 20
222.25
 11
312.108
 21
222.271
  0
LINE
  8
0
 10
-0.308777
 20
224.328
 11
-0.548889
 21
224.391
  0
LINE
  8
0
 10
-0.548889
 20
224.391
 11
-0.777298
 21
224.488
  0
LINE
  8
0
 10
-0.777298
 20
224.488
 11
-0.989151
 21
224.617
  0
LINE
  8
0
 10
-0.989151
 20
224.617
 11
-1.17992
 21
224.776
  0
LINE
  8
0
 10
-1.17992
 20
224.776
 11
-1.34554
 21
224.961
  0
LINE
  8
0
 10
-1.34554
 20
224.961
 11
-1.48248
 21
225.168
  0
LINE
  8
0
 10
-1.48248
 20
225.168
 11
-1.58781
 21
225.393
  0
LINE
  8
0
 10
-1.58781
 20
225.393
 11
-1.65932
 21
225.63
  0
LINE
  8
0
 10
-1.65932
 20
225.63
 11
-1.69545
 21
225.876
  0
LINE
  8
0
 10
-1.69545
 20
225.876
 11
-1.69545
 21
226.124
  0
LINE
  8
0
 10
-1.69545
 20
226.124
 11
-1.65932
 21
226.37
  0
LINE
  8
0
 10
-1.65932
 20
226.37
 11
-1.58781
 21
226.607
  0
LINE
  8
0
 10
-1.58781
 20
226.607
 11
-1.48248
 21
226.832
  0
LINE
  8
0
 10
-1.48248
 20
226.832
 11
-1.34554
 21
227.039
  0
LINE
  8
0
 10
-1.34554
 20
227.039
 11
-1.17992
 21
227.224
  0
LINE
  8
0
 10
-1.17992
 20
227.224
 11
-0.989151
 21
227.383
  0
LINE
  8
0
 10
-0.989151
 20
227.383
 11
-0.777298
 21
227.512
  0
LINE
  8
0
 10
-0.777298
 20
227.512
 11
-0.548889
 21
227.609
  0
LINE
  8
0
 10
-0.548889
 20
227.609
 11
-0.308777
 21
227.672
  0
LINE
  8
0
 10
-0.308777
 20
227.672
 11
-0.0620728
 21
227.699
  0
LINE
  8
0
 10
-0.0620728
 20
227.699
 11
0.185928
 21
227.69
  0
LINE
  8
0
 10
0.185928
 20
227.69
 11
0.429977
 21
227.645
  0
LINE
  8
0
 10
0.429977
 20
227.645
 11
0.664871
 21
227.565
  0
LINE
  8
0
 10
0.664871
 20
227.565
 11
0.88559
 21
227.451
  0
LINE
  8
0
 10
0.88559
 20
227.451
 11
1.08743
 21
227.307
  0
LINE
  8
0
 10
1.08743
 20
227.307
 11
1.2661
 21
227.134
  0
LINE
  8
0
 10
1.2661
 20
227.134
 11
1.41779
 21
226.938
  0
LINE
  8
0
 10
1.41779
 20
226.938
 11
1.53926
 21
226.722
  0
LINE
  8
0
 10
1.53926
 20
226.722
 11
1.62791
 21
226.49
  0
LINE
  8
0
 10
1.62791
 20
226.49
 11
1.68187
 21
226.248
  0
LINE
  8
0
 10
1.68187
 20
226.248
 11
1.7
 21
226
  0
LINE
  8
0
 10
1.7
 20
226
 11
1.68187
 21
225.752
  0
LINE
  8
0
 10
1.68187
 20
225.752
 11
1.62791
 21
225.51
  0
LINE
  8
0
 10
1.62791
 20
225.51
 11
1.53926
 21
225.278
  0
LINE
  8
0
 10
1.53926
 20
225.278
 11
1.41779
 21
225.062
  0
LINE
  8
0
 10
1.41779
 20
225.062
 11
1.2661
 21
224.866
  0
LINE
  8
0
 10
1.2661
 20
224.866
 11
1.08743
 21
224.693
  0
LINE
  8
0
 10
1.08743
 20
224.693
 11
0.88559
 21
224.549
  0
LINE
  8
0
 10
0.88559
 20
224.549
 11
0.664871
 21
224.435
  0
LINE
  8
0
 10
0.664871
 20
224.435
 11
0.429977
 21
224.355
  0
LINE
  8
0
 10
0.429977
 20
224.355
 11
0.185928
 21
224.31
  0
LINE
  8
0
 10
0.185928
 20
224.31
 11
-0.0620728
 21
224.301
  0
LINE
  8
0
 10
-0.0620728
 20
224.301
 11
-0.308777
 21
224.328
  0
LINE
  8
0
 10
-180.309
 20
224.328
 11
-180.549
 21
224.391
  0
LINE
  8
0
 10
-180.549
 20
224.391
 11
-180.777
 21
224.488
  0
LINE
  8
0
 10
-180.777
 20
224.488
 11
-180.989
 21
224.617
  0
LINE
  8
0
 10
-180.989
 20
224.617
 11
-181.18
 21
224.776
  0
LINE
  8
0
 10
-181.18
 20
224.776
 11
-181.346
 21
224.961
  0
LINE
  8
0
 10
-181.346
 20
224.961
 11
-181.482
 21
225.168
  0
LINE
  8
0
 10
-181.482
 20
225.168
 11
-181.588
 21
225.393
  0
LINE
  8
0
 10
-181.588
 20
225.393
 11
-181.659
 21
225.63
  0
LINE
  8
0
 10
-181.659
 20
225.63
 11
-181.695
 21
225.876
  0
LINE
  8
0
 10
-181.695
 20
225.876
 11
-181.695
 21
226.124
  0
LINE
  8
0
 10
-181.695
 20
226.124
 11
-181.659
 21
226.37
  0
LINE
  8
0
 10
-181.659
 20
226.37
 11
-181.588
 21
226.607
  0
LINE
  8
0
 10
-181.588
 20
226.607
 11
-181.482
 21
226.832
  0
LINE
  8
0
 10
-181.482
 20
226.832
 11
-181.346
 21
227.039
  0
LINE
  8
0
 10
-181.346
 20
227.039
 11
-181.18
 21
227.224
  0
LINE
  8
0
 10
-181.18
 20
227.224
 11
-180.989
 21
227.383
  0
LINE
  8
0
 10
-180.989
 20
227.383
 11
-180.777
 21
227.512
  0
LINE
  8
0
 10
-180.777
 20
227.512
 11
-180.549
 21
227.609
  0
LINE
  8
0
 10
-180.549
 20
227.609
 11
-180.309
 21
227.672
  0
LINE
  8
0
 10
-180.309
 20
227.672
 11
-180.062
 21
227.699
  0
LINE
  8
0
 10
-180.062
 20
227.699
 11
-179.814
 21
227.69
  0
LINE
  8
0
 10
-179.814
 20
227.69
 11
-179.57
 21
227.645
  0
LINE
  8
0
 10
-179.57
 20
227.645
 11
-179.335
 21
227.565
  0
LINE
  8
0
 10
-179.335
 20
227.565
 11
-179.114
 21
227.451
  0
LINE
  8
0
 10
-179.114
 20
227.451
 11
-178.913
 21
227.307
  0
LINE
  8
0
 10
-178.913
 20
227.307
 11
-178.734
 21
227.134
  0
LINE
  8
0
 10
-178.734
 20
227.134
 11
-178.582
 21
226.938
  0
LINE
  8
0
 10
-178.582
 20
226.938
 11
-178.461
 21
226.722
  0
LINE
  8
0
 10
-178.461
 20
226.722
 11
-178.372
 21
226.49
  0
LINE
  8
0
 10
-178.372
 20
226.49
 11
-178.318
 21
226.248
  0
LINE
  8
0
 10
-178.318
 20
226.248
 11
-178.3
 21
226
  0
LINE
  8
0
 10
-178.3
 20
226
 11
-178.318
 21
225.752
  0
LINE
  8
0
 10
-178.318
 20
225.752
 11
-178.372
 21
225.51
  0
LINE
  8
0
 10
-178.372
 20
225.51
 11
-178.461
 21
225.278
  0
LINE
  8
0
 10
-178.461
 20
225.278
 11
-178.582
 21
225.062
  0
LINE
  8
0
 10
-178.582
 20
225.062
 11
-178.734
 21
224.866
  0
LINE
  8
0
 10
-178.734
 20
224.866
 11
-178.913
 21
224.693
  0
LINE
  8
0
 10
-178.913
 20
224.693
 11
-179.114
 21
224.549
  0
LINE
  8
0
 10
-179.114
 20
224.549
 11
-179.335
 21
224.435
  0
LINE
  8
0
 10
-179.335
 20
224.435
 11
-179.57
 21
224.355
  0
LINE
  8
0
 10
-179.57
 20
224.355
 11
-179.814
 21
224.31
  0
LINE
  8
0
 10
-179.814
 20
224.31
 11
-180.062
 21
224.301
  0
LINE
  8
0
 10
-180.062
 20
224.301
 11
-180.309
 21
224.328
  0
LINE
  8
0
 10
269.691
 20
224.328
 11
269.451
 21
224.391
  0
LINE
  8
0
 10
269.451
 20
224.391
 11
269.223
 21
224.488
  0
LINE
  8
0
 10
269.223
 20
224.488
 11
269.011
 21
224.617
  0
LINE
  8
0
 10
269.011
 20
224.617
 11
268.82
 21
224.776
  0
LINE
  8
0
 10
268.82
 20
224.776
 11
268.654
 21
224.961
  0
LINE
  8
0
 10
268.654
 20
224.961
 11
268.518
 21
225.168
  0
LINE
  8
0
 10
268.518
 20
225.168
 11
268.412
 21
225.393
  0
LINE
  8
0
 10
268.412
 20
225.393
 11
268.341
 21
225.63
  0
LINE
  8
0
 10
268.341
 20
225.63
 11
268.305
 21
225.876
  0
LINE
  8
0
 10
268.305
 20
225.876
 11
268.305
 21
226.124
  0
LINE
  8
0
 10
268.305
 20
226.124
 11
268.341
 21
226.37
  0
LINE
  8
0
 10
268.341
 20
226.37
 11
268.412
 21
226.607
  0
LINE
  8
0
 10
268.412
 20
226.607
 11
268.518
 21
226.832
  0
LINE
  8
0
 10
268.518
 20
226.832
 11
268.654
 21
227.039
  0
LINE
  8
0
 10
268.654
 20
227.039
 11
268.82
 21
227.224
  0
LINE
  8
0
 10
268.82
 20
227.224
 11
269.011
 21
227.383
  0
LINE
  8
0
 10
269.011
 20
227.383
 11
269.223
 21
227.512
  0
LINE
  8
0
 10
269.223
 20
227.512
 11
269.451
 21
227.609
  0
LINE
  8
0
 10
269.451
 20
227.609
 11
269.691
 21
227.672
  0
LINE
  8
0
 10
269.691
 20
227.672
 11
269.938
 21
227.699
  0
LINE
  8
0
 10
269.938
 20
227.699
 11
270.186
 21
227.69
  0
LINE
  8
0
 10
270.186
 20
227.69
 11
270.43
 21
227.645
  0
LINE
  8
0
 10
270.43
 20
227.645
 11
270.665
 21
227.565
  0
LINE
  8
0
 10
270.665
 20
227.565
 11
270.886
 21
227.451
  0
LINE
  8
0
 10
270.886
 20
227.451
 11
271.087
 21
227.307
  0
LINE
  8
0
 10
271.087
 20
227.307
 11
271.266
 21
227.134
  0
LINE
  8
0
 10
271.266
 20
227.134
 11
271.418
 21
226.938
  0
LINE
  8
0
 10
271.418
 20
226.938
 11
271.539
 21
226.722
  0
LINE
  8
0
 10
271.539
 20
226.722
 11
271.628
 21
226.49
  0
LINE
  8
0
 10
271.628
 20
226.49
 11
271.682
 21
226.248
  0
LINE
  8
0
 10
271.682
 20
226.248
 11
271.7
 21
226
  0
LINE
  8
0
 10
271.7
 20
226
 11
271.682
 21
225.752
  0
LINE
  8
0
 10
271.682
 20
225.752
 11
271.628
 21
225.51
  0
LINE
  8
0
 10
271.628
 20
225.51
 11
271.539
 21
225.278
  0
LINE
  8
0
 10
271.539
 20
225.278
 11
271.418
 21
225.062
  0
LINE
  8
0
 10
271.418
 20
225.062
 11
271.266
 21
224.866
  0
LINE
  8
0
 10
271.266
 20
224.866
 11
271.087
 21
224.693
  0
LINE
  8
0
 10
271.087
 20
224.693
 11
270.886
 21
224.549
  0
LINE
  8
0
 10
270.886
 20
224.549
 11
270.665
 21
224.435
  0
LINE
  8
0
 10
270.665
 20
224.435
 11
270.43
 21
224.355
  0
LINE
  8
0
 10
270.43
 20
224.355
 11
270.186
 21
224.31
  0
LINE
  8
0
 10
270.186
 20
224.31
 11
269.938
 21
224.301
  0
LINE
  8
0
 10
269.938
 20
224.301
 11
269.691
 21
224.328
  0
LINE
  8
0
 10
90.43
 20
227.645
 11
90.6649
 21
227.565
  0
LINE
  8
0
 10
90.6649
 20
227.565
 11
90.8856
 21
227.451
  0
LINE
  8
0
 10
90.8856
 20
227.451
 11
91.0874
 21
227.307
  0
LINE
  8
0
 10
91.0874
 20
227.307
 11
91.2661
 21
227.134
  0
LINE
  8
0
 10
91.2661
 20
227.134
 11
91.4178
 21
226.938
  0
LINE
  8
0
 10
91.4178
 20
226.938
 11
91.5393
 21
226.722
  0
LINE
  8
0
 10
91.5393
 20
226.722
 11
91.6279
 21
226.49
  0
LINE
  8
0
 10
91.6279
 20
226.49
 11
91.6819
 21
226.248
  0
LINE
  8
0
 10
91.6819
 20
226.248
 11
91.7
 21
226
  0
LINE
  8
0
 10
91.7
 20
226
 11
91.6819
 21
225.752
  0
LINE
  8
0
 10
91.6819
 20
225.752
 11
91.6279
 21
225.51
  0
LINE
  8
0
 10
91.6279
 20
225.51
 11
91.5393
 21
225.278
  0
LINE
  8
0
 10
91.5393
 20
225.278
 11
91.4178
 21
225.062
  0
LINE
  8
0
 10
91.4178
 20
225.062
 11
91.2661
 21
224.866
  0
LINE
  8
0
 10
91.2661
 20
224.866
 11
91.0874
 21
224.693
  0
LINE
  8
0
 10
91.0874
 20
224.693
 11
90.8856
 21
224.549
  0
LINE
  8
0
 10
90.8856
 20
224.549
 11
90.6649
 21
224.435
  0
LINE
  8
0
 10
90.6649
 20
224.435
 11
90.43
 21
224.355
  0
LINE
  8
0
 10
90.43
 20
224.355
 11
90.1859
 21
224.31
  0
LINE
  8
0
 10
90.1859
 20
224.31
 11
89.9379
 21
224.301
  0
LINE
  8
0
 10
89.9379
 20
224.301
 11
89.6912
 21
224.328
  0
LINE
  8
0
 10
89.6912
 20
224.328
 11
89.4511
 21
224.391
  0
LINE
  8
0
 10
89.4511
 20
224.391
 11
89.2227
 21
224.488
  0
LINE
  8
0
 10
89.2227
 20
224.488
 11
89.0108
 21
224.617
  0
LINE
  8
0
 10
89.0108
 20
224.617
 11
88.8201
 21
224.776
  0
LINE
  8
0
 10
88.8201
 20
224.776
 11
88.6544
 21
224.961
  0
LINE
  8
0
 10
88.6544
 20
224.961
 11
88.5175
 21
225.168
  0
LINE
  8
0
 10
88.5175
 20
225.168
 11
88.4122
 21
225.393
  0
LINE
  8
0
 10
88.4122
 20
225.393
 11
88.3407
 21
225.63
  0
LINE
  8
0
 10
88.3407
 20
225.63
 11
88.3045
 21
225.876
  0
LINE
  8
0
 10
88.3045
 20
225.876
 11
88.3045
 21
226.124
  0
LINE
  8
0
 10
88.3045
 20
226.124
 11
88.3407
 21
226.37
  0
LINE
  8
0
 10
88.3407
 20
226.37
 11
88.4122
 21
226.607
  0
LINE
  8
0
 10
88.4122
 20
226.607
 11
88.5175
 21
226.832
  0
LINE
  8
0
 10
88.5175
 20
226.832
 11
88.6544
 21
227.039
  0
LINE
  8
0
 10
88.6544
 20
227.039
 11
88.8201
 21
227.224
  0
LINE
  8
0
 10
88.8201
 20
227.224
 11
89.0108
 21
227.383
  0
LINE
  8
0
 10
89.0108
 20
227.383
 11
89.2227
 21
227.512
  0
LINE
  8
0
 10
89.2227
 20
227.512
 11
89.4511
 21
227.609
  0
LINE
  8
0
 10
89.4511
 20
227.609
 11
89.6912
 21
227.672
  0
LINE
  8
0
 10
89.6912
 20
227.672
 11
89.9379
 21
227.699
  0
LINE
  8
0
 10
89.9379
 20
227.699
 11
90.1859
 21
227.69
  0
LINE
  8
0
 10
90.1859
 20
227.69
 11
90.43
 21
227.645
  0
LINE
  8
0
 10
-270.309
 20
224.328
 11
-270.549
 21
224.391
  0
LINE
  8
0
 10
-270.549
 20
224.391
 11
-270.777
 21
224.488
  0
LINE
  8
0
 10
-270.777
 20
224.488
 11
-270.989
 21
224.617
  0
LINE
  8
0
 10
-270.989
 20
224.617
 11
-271.18
 21
224.776
  0
LINE
  8
0
 10
-271.18
 20
224.776
 11
-271.346
 21
224.961
  0
LINE
  8
0
 10
-271.346
 20
224.961
 11
-271.482
 21
225.168
  0
LINE
  8
0
 10
-271.482
 20
225.168
 11
-271.588
 21
225.393
  0
LINE
  8
0
 10
-271.588
 20
225.393
 11
-271.659
 21
225.63
  0
LINE
  8
0
 10
-271.659
 20
225.63
 11
-271.695
 21
225.876
  0
LINE
  8
0
 10
-271.695
 20
225.876
 11
-271.695
 21
226.124
  0
LINE
  8
0
 10
-271.695
 20
226.124
 11
-271.659
 21
226.37
  0
LINE
  8
0
 10
-271.659
 20
226.37
 11
-271.588
 21
226.607
  0
LINE
  8
0
 10
-271.588
 20
226.607
 11
-271.482
 21
226.832
  0
LINE
  8
0
 10
-271.482
 20
226.832
 11
-271.346
 21
227.039
  0
LINE
  8
0
 10
-271.346
 20
227.039
 11
-271.18
 21
227.224
  0
LINE
  8
0
 10
-271.18
 20
227.224
 11
-270.989
 21
227.383
  0
LINE
  8
0
 10
-270.989
 20
227.383
 11
-270.777
 21
227.512
  0
LINE
  8
0
 10
-270.777
 20
227.512
 11
-270.549
 21
227.609
  0
LINE
  8
0
 10
-270.549
 20
227.609
 11
-270.309
 21
227.672
  0
LINE
  8
0
 10
-270.309
 20
227.672
 11
-270.062
 21
227.699
  0
LINE
  8
0
 10
-270.062
 20
227.699
 11
-269.814
 21
227.69
  0
LINE
  8
0
 10
-269.814
 20
227.69
 11
-269.57
 21
227.645
  0
LINE
  8
0
 10
-269.57
 20
227.645
 11
-269.335
 21
227.565
  0
LINE
  8
0
 10
-269.335
 20
227.565
 11
-269.114
 21
227.451
  0
LINE
  8
0
 10
-269.114
 20
227.451
 11
-268.913
 21
227.307
  0
LINE
  8
0
 10
-268.913
 20
227.307
 11
-268.734
 21
227.134
  0
LINE
  8
0
 10
-268.734
 20
227.134
 11
-268.582
 21
226.938
  0
LINE
  8
0
 10
-268.582
 20
226.938
 11
-268.461
 21
226.722
  0
LINE
  8
0
 10
-268.461
 20
226.722
 11
-268.372
 21
226.49
  0
LINE
  8
0
 10
-268.372
 20
226.49
 11
-268.318
 21
226.248
  0
LINE
  8
0
 10
-268.318
 20
226.248
 11
-268.3
 21
226
  0
LINE
  8
0
 10
-268.3
 20
226
 11
-268.318
 21
225.752
  0
LINE
  8
0
 10
-268.318
 20
225.752
 11
-268.372
 21
225.51
  0
LINE
  8
0
 10
-268.372
 20
225.51
 11
-268.461
 21
225.278
  0
LINE
  8
0
 10
-268.461
 20
225.278
 11
-268.582
 21
225.062
  0
LINE
  8
0
 10
-268.582
 20
225.062
 11
-268.734
 21
224.866
  0
LINE
  8
0
 10
-268.734
 20
224.866
 11
-268.913
 21
224.693
  0
LINE
  8
0
 10
-268.913
 20
224.693
 11
-269.114
 21
224.549
  0
LINE
  8
0
 10
-269.114
 20
224.549
 11
-269.335
 21
224.435
  0
LINE
  8
0
 10
-269.335
 20
224.435
 11
-269.57
 21
224.355
  0
LINE
  8
0
 10
-269.57
 20
224.355
 11
-269.814
 21
224.31
  0
LINE
  8
0
 10
-269.814
 20
224.31
 11
-270.062
 21
224.301
  0
LINE
  8
0
 10
-270.062
 20
224.301
 11
-270.309
 21
224.328
  0
LINE
  8
0
 10
-90.3088
 20
224.328
 11
-90.5489
 21
224.391
  0
LINE
  8
0
 10
-90.5489
 20
224.391
 11
-90.7773
 21
224.488
  0
LINE
  8
0
 10
-90.7773
 20
224.488
 11
-90.9892
 21
224.617
  0
LINE
  8
0
 10
-90.9892
 20
224.617
 11
-91.1799
 21
224.776
  0
LINE
  8
0
 10
-91.1799
 20
224.776
 11
-91.3455
 21
224.961
  0
LINE
  8
0
 10
-91.3455
 20
224.961
 11
-91.4825
 21
225.168
  0
LINE
  8
0
 10
-91.4825
 20
225.168
 11
-91.5878
 21
225.393
  0
LINE
  8
0
 10
-91.5878
 20
225.393
 11
-91.6593
 21
225.63
  0
LINE
  8
0
 10
-91.6593
 20
225.63
 11
-91.6955
 21
225.876
  0
LINE
  8
0
 10
-91.6955
 20
225.876
 11
-91.6955
 21
226.124
  0
LINE
  8
0
 10
-91.6955
 20
226.124
 11
-91.6593
 21
226.37
  0
LINE
  8
0
 10
-91.6593
 20
226.37
 11
-91.5878
 21
226.607
  0
LINE
  8
0
 10
-91.5878
 20
226.607
 11
-91.4825
 21
226.832
  0
LINE
  8
0
 10
-91.4825
 20
226.832
 11
-91.3455
 21
227.039
  0
LINE
  8
0
 10
-91.3455
 20
227.039
 11
-91.1799
 21
227.224
  0
LINE
  8
0
 10
-91.1799
 20
227.224
 11
-90.9892
 21
227.383
  0
LINE
  8
0
 10
-90.9892
 20
227.383
 11
-90.7773
 21
227.512
  0
LINE
  8
0
 10
-90.7773
 20
227.512
 11
-90.5489
 21
227.609
  0
LINE
  8
0
 10
-90.5489
 20
227.609
 11
-90.3088
 21
227.672
  0
LINE
  8
0
 10
-90.3088
 20
227.672
 11
-90.0621
 21
227.699
  0
LINE
  8
0
 10
-90.0621
 20
227.699
 11
-89.8141
 21
227.69
  0
LINE
  8
0
 10
-89.8141
 20
227.69
 11
-89.57
 21
227.645
  0
LINE
  8
0
 10
-89.57
 20
227.645
 11
-89.3351
 21
227.565
  0
LINE
  8
0
 10
-89.3351
 20
227.565
 11
-89.1144
 21
227.451
  0
LINE
  8
0
 10
-89.1144
 20
227.451
 11
-88.9126
 21
227.307
  0
LINE
  8
0
 10
-88.9126
 20
227.307
 11
-88.7339
 21
227.134
  0
LINE
  8
0
 10
-88.7339
 20
227.134
 11
-88.5822
 21
226.938
  0
LINE
  8
0
 10
-88.5822
 20
226.938
 11
-88.4607
 21
226.722
  0
LINE
  8
0
 10
-88.4607
 20
226.722
 11
-88.3721
 21
226.49
  0
LINE
  8
0
 10
-88.3721
 20
226.49
 11
-88.3181
 21
226.248
  0
LINE
  8
0
 10
-88.3181
 20
226.248
 11
-88.3
 21
226
  0
LINE
  8
0
 10
-88.3
 20
226
 11
-88.3181
 21
225.752
  0
LINE
  8
0
 10
-88.3181
 20
225.752
 11
-88.3721
 21
225.51
  0
LINE
  8
0
 10
-88.3721
 20
225.51
 11
-88.4607
 21
225.278
  0
LINE
  8
0
 10
-88.4607
 20
225.278
 11
-88.5822
 21
225.062
  0
LINE
  8
0
 10
-88.5822
 20
225.062
 11
-88.7339
 21
224.866
  0
LINE
  8
0
 10
-88.7339
 20
224.866
 11
-88.9126
 21
224.693
  0
LINE
  8
0
 10
-88.9126
 20
224.693
 11
-89.1144
 21
224.549
  0
LINE
  8
0
 10
-89.1144
 20
224.549
 11
-89.3351
 21
224.435
  0
LINE
  8
0
 10
-89.3351
 20
224.435
 11
-89.57
 21
224.355
  0
LINE
  8
0
 10
-89.57
 20
224.355
 11
-89.8141
 21
224.31
  0
LINE
  8
0
 10
-89.8141
 20
224.31
 11
-90.0621
 21
224.301
  0
LINE
  8
0
 10
-90.0621
 20
224.301
 11
-90.3088
 21
224.328
  0
LINE
  8
0
 10
179.691
 20
224.328
 11
179.451
 21
224.391
  0
LINE
  8
0
 10
179.451
 20
224.391
 11
179.223
 21
224.488
  0
LINE
  8
0
 10
179.223
 20
224.488
 11
179.011
 21
224.617
  0
LINE
  8
0
 10
179.011
 20
224.617
 11
178.82
 21
224.776
  0
LINE
  8
0
 10
178.82
 20
224.776
 11
178.654
 21
224.961
  0
LINE
  8
0
 10
178.654
 20
224.961
 11
178.518
 21
225.168
  0
LINE
  8
0
 10
178.518
 20
225.168
 11
178.412
 21
225.393
  0
LINE
  8
0
 10
178.412
 20
225.393
 11
178.341
 21
225.63
  0
LINE
  8
0
 10
178.341
 20
225.63
 11
178.305
 21
225.876
  0
LINE
  8
0
 10
178.305
 20
225.876
 11
178.305
 21
226.124
  0
LINE
  8
0
 10
178.305
 20
226.124
 11
178.341
 21
226.37
  0
LINE
  8
0
 10
178.341
 20
226.37
 11
178.412
 21
226.607
  0
LINE
  8
0
 10
178.412
 20
226.607
 11
178.518
 21
226.832
  0
LINE
  8
0
 10
178.518
 20
226.832
 11
178.654
 21
227.039
  0
LINE
  8
0
 10
178.654
 20
227.039
 11
178.82
 21
227.224
  0
LINE
  8
0
 10
178.82
 20
227.224
 11
179.011
 21
227.383
  0
LINE
  8
0
 10
179.011
 20
227.383
 11
179.223
 21
227.512
  0
LINE
  8
0
 10
179.223
 20
227.512
 11
179.451
 21
227.609
  0
LINE
  8
0
 10
179.451
 20
227.609
 11
179.691
 21
227.672
  0
LINE
  8
0
 10
179.691
 20
227.672
 11
179.938
 21
227.699
  0
LINE
  8
0
 10
179.938
 20
227.699
 11
180.186
 21
227.69
  0
LINE
  8
0
 10
180.186
 20
227.69
 11
180.43
 21
227.645
  0
LINE
  8
0
 10
180.43
 20
227.645
 11
180.665
 21
227.565
  0
LINE
  8
0
 10
180.665
 20
227.565
 11
180.886
 21
227.451
  0
LINE
  8
0
 10
180.886
 20
227.451
 11
181.087
 21
227.307
  0
LINE
  8
0
 10
181.087
 20
227.307
 11
181.266
 21
227.134
  0
LINE
  8
0
 10
181.266
 20
227.134
 11
181.418
 21
226.938
  0
LINE
  8
0
 10
181.418
 20
226.938
 11
181.539
 21
226.722
  0
LINE
  8
0
 10
181.539
 20
226.722
 11
181.628
 21
226.49
  0
LINE
  8
0
 10
181.628
 20
226.49
 11
181.682
 21
226.248
  0
LINE
  8
0
 10
181.682
 20
226.248
 11
181.7
 21
226
  0
LINE
  8
0
 10
181.7
 20
226
 11
181.682
 21
225.752
  0
LINE
  8
0
 10
181.682
 20
225.752
 11
181.628
 21
225.51
  0
LINE
  8
0
 10
181.628
 20
225.51
 11
181.539
 21
225.278
  0
LINE
  8
0
 10
181.539
 20
225.278
 11
181.418
 21
225.062
  0
LINE
  8
0
 10
181.418
 20
225.062
 11
181.266
 21
224.866
  0
LINE
  8
0
 10
181.266
 20
224.866
 11
181.087
 21
224.693
  0
LINE
  8
0
 10
181.087
 20
224.693
 11
180.886
 21
224.549
  0
LINE
  8
0
 10
180.886
 20
224.549
 11
180.665
 21
224.435
  0
LINE
  8
0
 10
180.665
 20
224.435
 11
180.43
 21
224.355
  0
LINE
  8
0
 10
180.43
 20
224.355
 11
180.186
 21
224.31
  0
LINE
  8
0
 10
180.186
 20
224.31
 11
179.938
 21
224.301
  0
LINE
  8
0
 10
179.938
 20
224.301
 11
179.691
 21
224.328
  0
LINE
  8
0
 10
312.191
 20
181.828
 11
311.951
 21
181.891
  0
LINE
  8
0
 10
311.951
 20
181.891
 11
311.723
 21
181.988
  0
LINE
  8
0
 10
311.723
 20
181.988
 11
311.511
 21
182.117
  0
LINE
  8
0
 10
311.511
 20
182.117
 11
311.32
 21
182.276
  0
LINE
  8
0
 10
311.32
 20
182.276
 11
311.154
 21
182.461
  0
LINE
  8
0
 10
311.154
 20
182.461
 11
311.018
 21
182.668
  0
LINE
  8
0
 10
311.018
 20
182.668
 11
310.912
 21
182.893
  0
LINE
  8
0
 10
310.912
 20
182.893
 11
310.841
 21
183.13
  0
LINE
  8
0
 10
310.841
 20
183.13
 11
310.805
 21
183.376
  0
LINE
  8
0
 10
310.805
 20
183.376
 11
310.805
 21
183.624
  0
LINE
  8
0
 10
310.805
 20
183.624
 11
310.841
 21
183.87
  0
LINE
  8
0
 10
310.841
 20
183.87
 11
310.912
 21
184.107
  0
LINE
  8
0
 10
310.912
 20
184.107
 11
311.018
 21
184.332
  0
LINE
  8
0
 10
311.018
 20
184.332
 11
311.154
 21
184.539
  0
LINE
  8
0
 10
311.154
 20
184.539
 11
311.32
 21
184.724
  0
LINE
  8
0
 10
311.32
 20
184.724
 11
311.511
 21
184.883
  0
LINE
  8
0
 10
311.511
 20
184.883
 11
311.723
 21
185.012
  0
LINE
  8
0
 10
311.723
 20
185.012
 11
311.951
 21
185.109
  0
LINE
  8
0
 10
311.951
 20
185.109
 11
312.191
 21
185.172
  0
LINE
  8
0
 10
312.191
 20
185.172
 11
312.438
 21
185.199
  0
LINE
  8
0
 10
312.438
 20
185.199
 11
312.686
 21
185.19
  0
LINE
  8
0
 10
312.686
 20
185.19
 11
312.93
 21
185.145
  0
LINE
  8
0
 10
312.93
 20
185.145
 11
313.165
 21
185.065
  0
LINE
  8
0
 10
313.165
 20
185.065
 11
313.386
 21
184.951
  0
LINE
  8
0
 10
313.386
 20
184.951
 11
313.587
 21
184.807
  0
LINE
  8
0
 10
313.587
 20
184.807
 11
313.766
 21
184.634
  0
LINE
  8
0
 10
313.766
 20
184.634
 11
313.918
 21
184.438
  0
LINE
  8
0
 10
313.918
 20
184.438
 11
314.039
 21
184.222
  0
LINE
  8
0
 10
314.039
 20
184.222
 11
314.128
 21
183.99
  0
LINE
  8
0
 10
314.128
 20
183.99
 11
314.182
 21
183.748
  0
LINE
  8
0
 10
314.182
 20
183.748
 11
314.2
 21
183.5
  0
LINE
  8
0
 10
314.2
 20
183.5
 11
314.182
 21
183.252
  0
LINE
  8
0
 10
314.182
 20
183.252
 11
314.128
 21
183.01
  0
LINE
  8
0
 10
314.128
 20
183.01
 11
314.039
 21
182.778
  0
LINE
  8
0
 10
314.039
 20
182.778
 11
313.918
 21
182.562
  0
LINE
  8
0
 10
313.918
 20
182.562
 11
313.766
 21
182.366
  0
LINE
  8
0
 10
313.766
 20
182.366
 11
313.587
 21
182.193
  0
LINE
  8
0
 10
313.587
 20
182.193
 11
313.386
 21
182.049
  0
LINE
  8
0
 10
313.386
 20
182.049
 11
313.165
 21
181.935
  0
LINE
  8
0
 10
313.165
 20
181.935
 11
312.93
 21
181.855
  0
LINE
  8
0
 10
312.93
 20
181.855
 11
312.686
 21
181.81
  0
LINE
  8
0
 10
312.686
 20
181.81
 11
312.438
 21
181.801
  0
LINE
  8
0
 10
312.438
 20
181.801
 11
312.191
 21
181.828
  0
LINE
  8
0
 10
-312.686
 20
181.81
 11
-312.93
 21
181.855
  0
LINE
  8
0
 10
-312.93
 20
181.855
 11
-313.165
 21
181.935
  0
LINE
  8
0
 10
-313.165
 20
181.935
 11
-313.386
 21
182.049
  0
LINE
  8
0
 10
-313.386
 20
182.049
 11
-313.587
 21
182.193
  0
LINE
  8
0
 10
-313.587
 20
182.193
 11
-313.766
 21
182.366
  0
LINE
  8
0
 10
-313.766
 20
182.366
 11
-313.918
 21
182.562
  0
LINE
  8
0
 10
-313.918
 20
182.562
 11
-314.039
 21
182.778
  0
LINE
  8
0
 10
-314.039
 20
182.778
 11
-314.128
 21
183.01
  0
LINE
  8
0
 10
-314.128
 20
183.01
 11
-314.182
 21
183.252
  0
LINE
  8
0
 10
-314.182
 20
183.252
 11
-314.2
 21
183.5
  0
LINE
  8
0
 10
-314.2
 20
183.5
 11
-314.182
 21
183.748
  0
LINE
  8
0
 10
-314.182
 20
183.748
 11
-314.128
 21
183.99
  0
LINE
  8
0
 10
-314.128
 20
183.99
 11
-314.039
 21
184.222
  0
LINE
  8
0
 10
-314.039
 20
184.222
 11
-313.918
 21
184.438
  0
LINE
  8
0
 10
-313.918
 20
184.438
 11
-313.766
 21
184.634
  0
LINE
  8
0
 10
-313.766
 20
184.634
 11
-313.587
 21
184.807
  0
LINE
  8
0
 10
-313.587
 20
184.807
 11
-313.386
 21
184.951
  0
LINE
  8
0
 10
-313.386
 20
184.951
 11
-313.165
 21
185.065
  0
LINE
  8
0
 10
-313.165
 20
185.065
 11
-312.93
 21
185.145
  0
LINE
  8
0
 10
-312.93
 20
185.145
 11
-312.686
 21
185.19
  0
LINE
  8
0
 10
-312.686
 20
185.19
 11
-312.438
 21
185.199
  0
LINE
  8
0
 10
-312.438
 20
185.199
 11
-312.191
 21
185.172
  0
LINE
  8
0
 10
-312.191
 20
185.172
 11
-311.951
 21
185.109
  0
LINE
  8
0
 10
-311.951
 20
185.109
 11
-311.723
 21
185.012
  0
LINE
  8
0
 10
-311.723
 20
185.012
 11
-311.511
 21
184.883
  0
LINE
  8
0
 10
-311.511
 20
184.883
 11
-311.32
 21
184.724
  0
LINE
  8
0
 10
-311.32
 20
184.724
 11
-311.154
 21
184.539
  0
LINE
  8
0
 10
-311.154
 20
184.539
 11
-311.018
 21
184.332
  0
LINE
  8
0
 10
-311.018
 20
184.332
 11
-310.912
 21
184.107
  0
LINE
  8
0
 10
-310.912
 20
184.107
 11
-310.841
 21
183.87
  0
LINE
  8
0
 10
-310.841
 20
183.87
 11
-310.805
 21
183.624
  0
LINE
  8
0
 10
-310.805
 20
183.624
 11
-310.805
 21
183.376
  0
LINE
  8
0
 10
-310.805
 20
183.376
 11
-310.841
 21
183.13
  0
LINE
  8
0
 10
-310.841
 20
183.13
 11
-310.912
 21
182.893
  0
LINE
  8
0
 10
-310.912
 20
182.893
 11
-311.018
 21
182.668
  0
LINE
  8
0
 10
-311.018
 20
182.668
 11
-311.154
 21
182.461
  0
LINE
  8
0
 10
-311.154
 20
182.461
 11
-311.32
 21
182.276
  0
LINE
  8
0
 10
-311.32
 20
182.276
 11
-311.511
 21
182.117
  0
LINE
  8
0
 10
-311.511
 20
182.117
 11
-311.723
 21
181.988
  0
LINE
  8
0
 10
-311.723
 20
181.988
 11
-311.951
 21
181.891
  0
LINE
  8
0
 10
-311.951
 20
181.891
 11
-312.191
 21
181.828
  0
LINE
  8
0
 10
-312.191
 20
181.828
 11
-312.438
 21
181.801
  0
LINE
  8
0
 10
-312.438
 20
181.801
 11
-312.686
 21
181.81
  0
LINE
  8
0
 10
-312.686
 20
90.0602
 11
-312.93
 21
90.1053
  0
LINE
  8
0
 10
-312.93
 20
90.1053
 11
-313.165
 21
90.1854
  0
LINE
  8
0
 10
-313.165
 20
90.1854
 11
-313.386
 21
90.2989
  0
LINE
  8
0
 10
-313.386
 20
90.2989
 11
-313.587
 21
90.4433
  0
LINE
  8
0
 10
-313.587
 20
90.4433
 11
-313.766
 21
90.6156
  0
LINE
  8
0
 10
-313.766
 20
90.6156
 11
-313.918
 21
90.812
  0
LINE
  8
0
 10
-313.918
 20
90.812
 11
-314.039
 21
91.0284
  0
LINE
  8
0
 10
-314.039
 20
91.0284
 11
-314.128
 21
91.2602
  0
LINE
  8
0
 10
-314.128
 20
91.2602
 11
-314.182
 21
91.5025
  0
LINE
  8
0
 10
-314.182
 20
91.5025
 11
-314.2
 21
91.75
  0
LINE
  8
0
 10
-314.2
 20
91.75
 11
-314.182
 21
91.9975
  0
LINE
  8
0
 10
-314.182
 20
91.9975
 11
-314.128
 21
92.2398
  0
LINE
  8
0
 10
-314.128
 20
92.2398
 11
-314.039
 21
92.4716
  0
LINE
  8
0
 10
-314.039
 20
92.4716
 11
-313.918
 21
92.688
  0
LINE
  8
0
 10
-313.918
 20
92.688
 11
-313.766
 21
92.8844
  0
LINE
  8
0
 10
-313.766
 20
92.8844
 11
-313.587
 21
93.0567
  0
LINE
  8
0
 10
-313.587
 20
93.0567
 11
-313.386
 21
93.2011
  0
LINE
  8
0
 10
-313.386
 20
93.2011
 11
-313.165
 21
93.3146
  0
LINE
  8
0
 10
-313.165
 20
93.3146
 11
-312.93
 21
93.3947
  0
LINE
  8
0
 10
-312.93
 20
93.3947
 11
-312.686
 21
93.4398
  0
LINE
  8
0
 10
-312.686
 20
93.4398
 11
-312.438
 21
93.4489
  0
LINE
  8
0
 10
-312.438
 20
93.4489
 11
-312.191
 21
93.4217
  0
LINE
  8
0
 10
-312.191
 20
93.4217
 11
-311.951
 21
93.3589
  0
LINE
  8
0
 10
-311.951
 20
93.3589
 11
-311.723
 21
93.2619
  0
LINE
  8
0
 10
-311.723
 20
93.2619
 11
-311.511
 21
93.1326
  0
LINE
  8
0
 10
-311.511
 20
93.1326
 11
-311.32
 21
92.9738
  0
LINE
  8
0
 10
-311.32
 20
92.9738
 11
-311.154
 21
92.789
  0
LINE
  8
0
 10
-311.154
 20
92.789
 11
-311.018
 21
92.582
  0
LINE
  8
0
 10
-311.018
 20
92.582
 11
-310.912
 21
92.3573
  0
LINE
  8
0
 10
-310.912
 20
92.3573
 11
-310.841
 21
92.1196
  0
LINE
  8
0
 10
-310.841
 20
92.1196
 11
-310.805
 21
91.8741
  0
LINE
  8
0
 10
-310.805
 20
91.8741
 11
-310.805
 21
91.6259
  0
LINE
  8
0
 10
-310.805
 20
91.6259
 11
-310.841
 21
91.3804
  0
LINE
  8
0
 10
-310.841
 20
91.3804
 11
-310.912
 21
91.1427
  0
LINE
  8
0
 10
-310.912
 20
91.1427
 11
-311.018
 21
90.918
  0
LINE
  8
0
 10
-311.018
 20
90.918
 11
-311.154
 21
90.711
  0
LINE
  8
0
 10
-311.154
 20
90.711
 11
-311.32
 21
90.5262
  0
LINE
  8
0
 10
-311.32
 20
90.5262
 11
-311.511
 21
90.3674
  0
LINE
  8
0
 10
-311.511
 20
90.3674
 11
-311.723
 21
90.2381
  0
LINE
  8
0
 10
-311.723
 20
90.2381
 11
-311.951
 21
90.1411
  0
LINE
  8
0
 10
-311.951
 20
90.1411
 11
-312.191
 21
90.0783
  0
LINE
  8
0
 10
-312.191
 20
90.0783
 11
-312.438
 21
90.0511
  0
LINE
  8
0
 10
-312.438
 20
90.0511
 11
-312.686
 21
90.0602
  0
LINE
  8
0
 10
312.191
 20
90.0783
 11
311.951
 21
90.1411
  0
LINE
  8
0
 10
311.951
 20
90.1411
 11
311.723
 21
90.2381
  0
LINE
  8
0
 10
311.723
 20
90.2381
 11
311.511
 21
90.3674
  0
LINE
  8
0
 10
311.511
 20
90.3674
 11
311.32
 21
90.5262
  0
LINE
  8
0
 10
311.32
 20
90.5262
 11
311.154
 21
90.711
  0
LINE
  8
0
 10
311.154
 20
90.711
 11
311.018
 21
90.918
  0
LINE
  8
0
 10
311.018
 20
90.918
 11
310.912
 21
91.1427
  0
LINE
  8
0
 10
310.912
 20
91.1427
 11
310.841
 21
91.3804
  0
LINE
  8
0
 10
310.841
 20
91.3804
 11
310.805
 21
91.6259
  0
LINE
  8
0
 10
310.805
 20
91.6259
 11
310.805
 21
91.8741
  0
LINE
  8
0
 10
310.805
 20
91.8741
 11
310.841
 21
92.1196
  0
LINE
  8
0
 10
310.841
 20
92.1196
 11
310.912
 21
92.3573
  0
LINE
  8
0
 10
310.912
 20
92.3573
 11
311.018
 21
92.582
  0
LINE
  8
0
 10
311.018
 20
92.582
 11
311.154
 21
92.789
  0
LINE
  8
0
 10
311.154
 20
92.789
 11
311.32
 21
92.9738
  0
LINE
  8
0
 10
311.32
 20
92.9738
 11
311.511
 21
93.1326
  0
LINE
  8
0
 10
311.511
 20
93.1326
 11
311.723
 21
93.2619
  0
LINE
  8
0
 10
311.723
 20
93.2619
 11
311.951
 21
93.3589
  0
LINE
  8
0
 10
311.951
 20
93.3589
 11
312.191
 21
93.4217
  0
LINE
  8
0
 10
312.191
 20
93.4217
 11
312.438
 21
93.4489
  0
LINE
  8
0
 10
312.438
 20
93.4489
 11
312.686
 21
93.4398
  0
LINE
  8
0
 10
312.686
 20
93.4398
 11
312.93
 21
93.3947
  0
LINE
  8
0
 10
312.93
 20
93.3947
 11
313.165
 21
93.3146
  0
LINE
  8
0
 10
313.165
 20
93.3146
 11
313.386
 21
93.2011
  0
LINE
  8
0
 10
313.386
 20
93.2011
 11
313.587
 21
93.0567
  0
LINE
  8
0
 10
313.587
 20
93.0567
 11
313.766
 21
92.8844
  0
LINE
  8
0
 10
313.766
 20
92.8844
 11
313.918
 21
92.688
  0
LINE
  8
0
 10
313.918
 20
92.688
 11
314.039
 21
92.4716
  0
LINE
  8
0
 10
314.039
 20
92.4716
 11
314.128
 21
92.2398
  0
LINE
  8
0
 10
314.128
 20
92.2398
 11
314.182
 21
91.9975
  0
LINE
  8
0
 10
314.182
 20
91.9975
 11
314.2
 21
91.75
  0
LINE
  8
0
 10
314.2
 20
91.75
 11
314.182
 21
91.5025
  0
LINE
  8
0
 10
314.182
 20
91.5025
 11
314.128
 21
91.2602
  0
LINE
  8
0
 10
314.128
 20
91.2602
 11
314.039
 21
91.0284
  0
LINE
  8
0
 10
314.039
 20
91.0284
 11
313.918
 21
90.812
  0
LINE
  8
0
 10
313.918
 20
90.812
 11
313.766
 21
90.6156
  0
LINE
  8
0
 10
313.766
 20
90.6156
 11
313.587
 21
90.4433
  0
LINE
  8
0
 10
313.587
 20
90.4433
 11
313.386
 21
90.2989
  0
LINE
  8
0
 10
313.386
 20
90.2989
 11
313.165
 21
90.1854
  0
LINE
  8
0
 10
313.165
 20
90.1854
 11
312.93
 21
90.1053
  0
LINE
  8
0
 10
312.93
 20
90.1053
 11
312.686
 21
90.0602
  0
LINE
  8
0
 10
312.686
 20
90.0602
 11
312.438
 21
90.0511
  0
LINE
  8
0
 10
312.438
 20
90.0511
 11
312.191
 21
90.0783
  0
LINE
  8
0
 10
312.191
 20
-1.67171
 11
311.951
 21
-1.60893
  0
LINE
  8
0
 10
311.951
 20
-1.60893
 11
311.723
 21
-1.51187
  0
LINE
  8
0
 10
311.723
 20
-1.51187
 11
311.511
 21
-1.38258
  0
LINE
  8
0
 10
311.511
 20
-1.38258
 11
311.32
 21
-1.22383
  0
LINE
  8
0
 10
311.32
 20
-1.22383
 11
311.154
 21
-1.03899
  0
LINE
  8
0
 10
311.154
 20
-1.03899
 11
311.018
 21
-0.832001
  0
LINE
  8
0
 10
311.018
 20
-0.832001
 11
310.912
 21
-0.607285
  0
LINE
  8
0
 10
310.912
 20
-0.607285
 11
310.841
 21
-0.369629
  0
LINE
  8
0
 10
310.841
 20
-0.369629
 11
310.805
 21
-0.124084
  0
LINE
  8
0
 10
310.805
 20
-0.124084
 11
310.805
 21
0.124084
  0
LINE
  8
0
 10
310.805
 20
0.124084
 11
310.841
 21
0.369629
  0
LINE
  8
0
 10
310.841
 20
0.369629
 11
310.912
 21
0.607285
  0
LINE
  8
0
 10
310.912
 20
0.607285
 11
311.018
 21
0.832001
  0
LINE
  8
0
 10
311.018
 20
0.832001
 11
311.154
 21
1.03899
  0
LINE
  8
0
 10
311.154
 20
1.03899
 11
311.32
 21
1.22383
  0
LINE
  8
0
 10
311.32
 20
1.22383
 11
311.511
 21
1.38258
  0
LINE
  8
0
 10
311.511
 20
1.38258
 11
311.723
 21
1.51187
  0
LINE
  8
0
 10
311.723
 20
1.51187
 11
311.951
 21
1.60893
  0
LINE
  8
0
 10
311.951
 20
1.60893
 11
312.191
 21
1.67171
  0
LINE
  8
0
 10
312.191
 20
1.67171
 11
312.438
 21
1.69885
  0
LINE
  8
0
 10
312.438
 20
1.69885
 11
312.686
 21
1.68979
  0
LINE
  8
0
 10
312.686
 20
1.68979
 11
312.93
 21
1.64471
  0
LINE
  8
0
 10
312.93
 20
1.64471
 11
313.165
 21
1.56458
  0
LINE
  8
0
 10
313.165
 20
1.56458
 11
313.386
 21
1.4511
  0
LINE
  8
0
 10
313.386
 20
1.4511
 11
313.587
 21
1.30669
  0
LINE
  8
0
 10
313.587
 20
1.30669
 11
313.766
 21
1.13443
  0
LINE
  8
0
 10
313.766
 20
1.13443
 11
313.918
 21
0.938004
  0
LINE
  8
0
 10
313.918
 20
0.938004
 11
314.039
 21
0.721573
  0
LINE
  8
0
 10
314.039
 20
0.721573
 11
314.128
 21
0.489761
  0
LINE
  8
0
 10
314.128
 20
0.489761
 11
314.182
 21
0.247513
  0
LINE
  8
0
 10
314.182
 20
0.247513
 11
314.2
 21
0
  0
LINE
  8
0
 10
314.2
 20
0
 11
314.182
 21
-0.247513
  0
LINE
  8
0
 10
314.182
 20
-0.247513
 11
314.128
 21
-0.489761
  0
LINE
  8
0
 10
314.128
 20
-0.489761
 11
314.039
 21
-0.721573
  0
LINE
  8
0
 10
314.039
 20
-0.721573
 11
313.918
 21
-0.938004
  0
LINE
  8
0
 10
313.918
 20
-0.938004
 11
313.766
 21
-1.13443
  0
LINE
  8
0
 10
313.766
 20
-1.13443
 11
313.587
 21
-1.30669
  0
LINE
  8
0
 10
313.587
 20
-1.30669
 11
313.386
 21
-1.4511
  0
LINE
  8
0
 10
313.386
 20
-1.4511
 11
313.165
 21
-1.56458
  0
LINE
  8
0
 10
313.165
 20
-1.56458
 11
312.93
 21
-1.64471
  0
LINE
  8
0
 10
312.93
 20
-1.64471
 11
312.686
 21
-1.68979
  0
LINE
  8
0
 10
312.686
 20
-1.68979
 11
312.438
 21
-1.69885
  0
LINE
  8
0
 10
312.438
 20
-1.69885
 11
312.191
 21
-1.67171
  0
LINE
  8
0
 10
-312.686
 20
-1.68979
 11
-312.93
 21
-1.64471
  0
LINE
  8
0
 10
-312.93
 20
-1.64471
 11
-313.165
 21
-1.56458
  0
LINE
  8
0
 10
-313.165
 20
-1.56458
 11
-313.386
 21
-1.4511
  0
LINE
  8
0
 10
-313.386
 20
-1.4511
 11
-313.587
 21
-1.30669
  0
LINE
  8
0
 10
-313.587
 20
-1.30669
 11
-313.766
 21
-1.13443
  0
LINE
  8
0
 10
-313.766
 20
-1.13443
 11
-313.918
 21
-0.938004
  0
LINE
  8
0
 10
-313.918
 20
-0.938004
 11
-314.039
 21
-0.721573
  0
LINE
  8
0
 10
-314.039
 20
-0.721573
 11
-314.128
 21
-0.489761
  0
LINE
  8
0
 10
-314.128
 20
-0.489761
 11
-314.182
 21
-0.247513
  0
LINE
  8
0
 10
-314.182
 20
-0.247513
 11
-314.2
 21
0
  0
LINE
  8
0
 10
-314.2
 20
0
 11
-314.182
 21
0.247513
  0
LINE
  8
0
 10
-314.182
 20
0.247513
 11
-314.128
 21
0.489761
  0
LINE
  8
0
 10
-314.128
 20
0.489761
 11
-314.039
 21
0.721573
  0
LINE
  8
0
 10
-314.039
 20
0.721573
 11
-313.918
 21
0.938004
  0
LINE
  8
0
 10
-313.918
 20
0.938004
 11
-313.766
 21
1.13443
  0
LINE
  8
0
 10
-313.766
 20
1.13443
 11
-313.587
 21
1.30669
  0
LINE
  8
0
 10
-313.587
 20
1.30669
 11
-313.386
 21
1.4511
  0
LINE
  8
0
 10
-313.386
 20
1.4511
 11
-313.165
 21
1.56458
  0
LINE
  8
0
 10
-313.165
 20
1.56458
 11
-312.93
 21
1.64471
  0
LINE
  8
0
 10
-312.93
 20
1.64471
 11
-312.686
 21
1.68979
  0
LINE
  8
0
 10
-312.686
 20
1.68979
 11
-312.438
 21
1.69885
  0
LINE
  8
0
 10
-312.438
 20
1.69885
 11
-312.191
 21
1.67171
  0
LINE
  8
0
 10
-312.191
 20
1.67171
 11
-311.951
 21
1.60893
  0
LINE
  8
0
 10
-311.951
 20
1.60893
 11
-311.723
 21
1.51187
  0
LINE
  8
0
 10
-311.723
 20
1.51187
 11
-311.511
 21
1.38258
  0
LINE
  8
0
 10
-311.511
 20
1.38258
 11
-311.32
 21
1.22383
  0
LINE
  8
0
 10
-311.32
 20
1.22383
 11
-311.154
 21
1.03899
  0
LINE
  8
0
 10
-311.154
 20
1.03899
 11
-311.018
 21
0.832001
  0
LINE
  8
0
 10
-311.018
 20
0.832001
 11
-310.912
 21
0.607285
  0
LINE
  8
0
 10
-310.912
 20
0.607285
 11
-310.841
 21
0.369629
  0
LINE
  8
0
 10
-310.841
 20
0.369629
 11
-310.805
 21
0.124084
  0
LINE
  8
0
 10
-310.805
 20
0.124084
 11
-310.805
 21
-0.124084
  0
LINE
  8
0
 10
-310.805
 20
-0.124084
 11
-310.841
 21
-0.369629
  0
LINE
  8
0
 10
-310.841
 20
-0.369629
 11
-310.912
 21
-0.607285
  0
LINE
  8
0
 10
-310.912
 20
-0.607285
 11
-311.018
 21
-0.832001
  0
LINE
  8
0
 10
-311.018
 20
-0.832001
 11
-311.154
 21
-1.03899
  0
LINE
  8
0
 10
-311.154
 20
-1.03899
 11
-311.32
 21
-1.22383
  0
LINE
  8
0
 10
-311.32
 20
-1.22383
 11
-311.511
 21
-1.38258
  0
LINE
  8
0
 10
-311.511
 20
-1.38258
 11
-311.723
 21
-1.51187
  0
LINE
  8
0
 10
-311.723
 20
-1.51187
 11
-311.951
 21
-1.60893
  0
LINE
  8
0
 10
-311.951
 20
-1.60893
 11
-312.191
 21
-1.67171
  0
LINE
  8
0
 10
-312.191
 20
-1.67171
 11
-312.438
 21
-1.69885
  0
LINE
  8
0
 10
-312.438
 20
-1.69885
 11
-312.686
 21
-1.68979
  0
LINE
  8
0
 10
-312.686
 20
-93.4398
 11
-312.93
 21
-93.3947
  0
LINE
  8
0
 10
-312.93
 20
-93.3947
 11
-313.165
 21
-93.3146
  0
LINE
  8
0
 10
-313.165
 20
-93.3146
 11
-313.386
 21
-93.2011
  0
LINE
  8
0
 10
-313.386
 20
-93.2011
 11
-313.587
 21
-93.0567
  0
LINE
  8
0
 10
-313.587
 20
-93.0567
 11
-313.766
 21
-92.8844
  0
LINE
  8
0
 10
-313.766
 20
-92.8844
 11
-313.918
 21
-92.688
  0
LINE
  8
0
 10
-313.918
 20
-92.688
 11
-314.039
 21
-92.4716
  0
LINE
  8
0
 10
-314.039
 20
-92.4716
 11
-314.128
 21
-92.2398
  0
LINE
  8
0
 10
-314.128
 20
-92.2398
 11
-314.182
 21
-91.9975
  0
LINE
  8
0
 10
-314.182
 20
-91.9975
 11
-314.2
 21
-91.75
  0
LINE
  8
0
 10
-314.2
 20
-91.75
 11
-314.182
 21
-91.5025
  0
LINE
  8
0
 10
-314.182
 20
-91.5025
 11
-314.128
 21
-91.2602
  0
LINE
  8
0
 10
-314.128
 20
-91.2602
 11
-314.039
 21
-91.0284
  0
LINE
  8
0
 10
-314.039
 20
-91.0284
 11
-313.918
 21
-90.812
  0
LINE
  8
0
 10
-313.918
 20
-90.812
 11
-313.766
 21
-90.6156
  0
LINE
  8
0
 10
-313.766
 20
-90.6156
 11
-313.587
 21
-90.4433
  0
LINE
  8
0
 10
-313.587
 20
-90.4433
 11
-313.386
 21
-90.2989
  0
LINE
  8
0
 10
-313.386
 20
-90.2989
 11
-313.165
 21
-90.1854
  0
LINE
  8
0
 10
-313.165
 20
-90.1854
 11
-312.93
 21
-90.1053
  0
LINE
  8
0
 10
-312.93
 20
-90.1053
 11
-312.686
 21
-90.0602
  0
LINE
  8
0
 10
-312.686
 20
-90.0602
 11
-312.438
 21
-90.0511
  0
LINE
  8
0
 10
-312.438
 20
-90.0511
 11
-312.191
 21
-90.0783
  0
LINE
  8
0
 10
-312.191
 20
-90.0783
 11
-311.951
 21
-90.1411
  0
LINE
  8
0
 10
-311.951
 20
-90.1411
 11
-311.723
 21
-90.2381
  0
LINE
  8
0
 10
-311.723
 20
-90.2381
 11
-311.511
 21
-90.3674
  0
LINE
  8
0
 10
-311.511
 20
-90.3674
 11
-311.32
 21
-90.5262
  0
LINE
  8
0
 10
-311.32
 20
-90.5262
 11
-311.154
 21
-90.711
  0
LINE
  8
0
 10
-311.154
 20
-90.711
 11
-311.018
 21
-90.918
  0
LINE
  8
0
 10
-311.018
 20
-90.918
 11
-310.912
 21
-91.1427
  0
LINE
  8
0
 10
-310.912
 20
-91.1427
 11
-310.841
 21
-91.3804
  0
LINE
  8
0
 10
-310.841
 20
-91.3804
 11
-310.805
 21
-91.6259
  0
LINE
  8
0
 10
-310.805
 20
-91.6259
 11
-310.805
 21
-91.8741
  0
LINE
  8
0
 10
-310.805
 20
-91.8741
 11
-310.841
 21
-92.1196
  0
LINE
  8
0
 10
-310.841
 20
-92.1196
 11
-310.912
 21
-92.3573
  0
LINE
  8
0
 10
-310.912
 20
-92.3573
 11
-311.018
 21
-92.582
  0
LINE
  8
0
 10
-311.018
 20
-92.582
 11
-311.154
 21
-92.789
  0
LINE
  8
0
 10
-311.154
 20
-92.789
 11
-311.32
 21
-92.9738
  0
LINE
  8
0
 10
-311.32
 20
-92.9738
 11
-311.511
 21
-93.1326
  0
LINE
  8
0
 10
-311.511
 20
-93.1326
 11
-311.723
 21
-93.2619
  0
LINE
  8
0
 10
-311.723
 20
-93.2619
 11
-311.951
 21
-93.3589
  0
LINE
  8
0
 10
-311.951
 20
-93.3589
 11
-312.191
 21
-93.4217
  0
LINE
  8
0
 10
-312.191
 20
-93.4217
 11
-312.438
 21
-93.4489
  0
LINE
  8
0
 10
-312.438
 20
-93.4489
 11
-312.686
 21
-93.4398
  0
LINE
  8
0
 10
312.191
 20
-93.4217
 11
311.951
 21
-93.3589
  0
LINE
  8
0
 10
311.951
 20
-93.3589
 11
311.723
 21
-93.2619
  0
LINE
  8
0
 10
311.723
 20
-93.2619
 11
311.511
 21
-93.1326
  0
LINE
  8
0
 10
311.511
 20
-93.1326
 11
311.32
 21
-92.9738
  0
LINE
  8
0
 10
311.32
 20
-92.9738
 11
311.154
 21
-92.789
  0
LINE
  8
0
 10
311.154
 20
-92.789
 11
311.018
 21
-92.582
  0
LINE
  8
0
 10
311.018
 20
-92.582
 11
310.912
 21
-92.3573
  0
LINE
  8
0
 10
310.912
 20
-92.3573
 11
310.841
 21
-92.1196
  0
LINE
  8
0
 10
310.841
 20
-92.1196
 11
310.805
 21
-91.8741
  0
LINE
  8
0
 10
310.805
 20
-91.8741
 11
310.805
 21
-91.6259
  0
LINE
  8
0
 10
310.805
 20
-91.6259
 11
310.841
 21
-91.3804
  0
LINE
  8
0
 10
310.841
 20
-91.3804
 11
310.912
 21
-91.1427
  0
LINE
  8
0
 10
310.912
 20
-91.1427
 11
311.018
 21
-90.918
  0
LINE
  8
0
 10
311.018
 20
-90.918
 11
311.154
 21
-90.711
  0
LINE
  8
0
 10
311.154
 20
-90.711
 11
311.32
 21
-90.5262
  0
LINE
  8
0
 10
311.32
 20
-90.5262
 11
311.511
 21
-90.3674
  0
LINE
  8
0
 10
311.511
 20
-90.3674
 11
311.723
 21
-90.2381
  0
LINE
  8
0
 10
311.723
 20
-90.2381
 11
311.951
 21
-90.1411
  0
LINE
  8
0
 10
311.951
 20
-90.1411
 11
312.191
 21
-90.0783
  0
LINE
  8
0
 10
312.191
 20
-90.0783
 11
312.438
 21
-90.0511
  0
LINE
  8
0
 10
312.438
 20
-90.0511
 11
312.686
 21
-90.0602
  0
LINE
  8
0
 10
312.686
 20
-90.0602
 11
312.93
 21
-90.1053
  0
LINE
  8
0
 10
312.93
 20
-90.1053
 11
313.165
 21
-90.1854
  0
LINE
  8
0
 10
313.165
 20
-90.1854
 11
313.386
 21
-90.2989
  0
LINE
  8
0
 10
313.386
 20
-90.2989
 11
313.587
 21
-90.4433
  0
LINE
  8
0
 10
313.587
 20
-90.4433
 11
313.766
 21
-90.6156
  0
LINE
  8
0
 10
313.766
 20
-90.6156
 11
313.918
 21
-90.812
  0
LINE
  8
0
 10
313.918
 20
-90.812
 11
314.039
 21
-91.0284
  0
LINE
  8
0
 10
314.039
 20
-91.0284
 11
314.128
 21
-91.2602
  0
LINE
  8
0
 10
314.128
 20
-91.2602
 11
314.182
 21
-91.5025
  0
LINE
  8
0
 10
314.182
 20
-91.5025
 11
314.2
 21
-91.75
  0
LINE
  8
0
 10
314.2
 20
-91.75
 11
314.182
 21
-91.9975
  0
LINE
  8
0
 10
314.182
 20
-91.9975
 11
314.128
 21
-92.2398
  0
LINE
  8
0
 10
314.128
 20
-92.2398
 11
314.039
 21
-92.4716
  0
LINE
  8
0
 10
314.039
 20
-92.4716
 11
313.918
 21
-92.688
  0
LINE
  8
0
 10
313.918
 20
-92.688
 11
313.766
 21
-92.8844
  0
LINE
  8
0
 10
313.766
 20
-92.8844
 11
313.587
 21
-93.0567
  0
LINE
  8
0
 10
313.587
 20
-93.0567
 11
313.386
 21
-93.2011
  0
LINE
  8
0
 10
313.386
 20
-93.2011
 11
313.165
 21
-93.3146
  0
LINE
  8
0
 10
313.165
 20
-93.3146
 11
312.93
 21
-93.3947
  0
LINE
  8
0
 10
312.93
 20
-93.3947
 11
312.686
 21
-93.4398
  0
LINE
  8
0
 10
312.686
 20
-93.4398
 11
312.438
 21
-93.4489
  0
LINE
  8
0
 10
312.438
 20
-93.4489
 11
312.191
 21
-93.4217
  0
LINE
  8
0
 10
-312.686
 20
-185.19
 11
-312.93
 21
-185.145
  0
LINE
  8
0
 10
-312.93
 20
-185.145
 11
-313.165
 21
-185.065
  0
LINE
  8
0
 10
-313.165
 20
-185.065
 11
-313.386
 21
-184.951
  0
LINE
  8
0
 10
-313.386
 20
-184.951
 11
-313.587
 21
-184.807
  0
LINE
  8
0
 10
-313.587
 20
-184.807
 11
-313.766
 21
-184.634
  0
LINE
  8
0
 10
-313.766
 20
-184.634
 11
-313.918
 21
-184.438
  0
LINE
  8
0
 10
-313.918
 20
-184.438
 11
-314.039
 21
-184.222
  0
LINE
  8
0
 10
-314.039
 20
-184.222
 11
-314.128
 21
-183.99
  0
LINE
  8
0
 10
-314.128
 20
-183.99
 11
-314.182
 21
-183.748
  0
LINE
  8
0
 10
-314.182
 20
-183.748
 11
-314.2
 21
-183.5
  0
LINE
  8
0
 10
-314.2
 20
-183.5
 11
-314.182
 21
-183.252
  0
LINE
  8
0
 10
-314.182
 20
-183.252
 11
-314.128
 21
-183.01
  0
LINE
  8
0
 10
-314.128
 20
-183.01
 11
-314.039
 21
-182.778
  0
LINE
  8
0
 10
-314.039
 20
-182.778
 11
-313.918
 21
-182.562
  0
LINE
  8
0
 10
-313.918
 20
-182.562
 11
-313.766
 21
-182.366
  0
LINE
  8
0
 10
-313.766
 20
-182.366
 11
-313.587
 21
-182.193
  0
LINE
  8
0
 10
-313.587
 20
-182.193
 11
-313.386
 21
-182.049
  0
LINE
  8
0
 10
-313.386
 20
-182.049
 11
-313.165
 21
-181.935
  0
LINE
  8
0
 10
-313.165
 20
-181.935
 11
-312.93
 21
-181.855
  0
LINE
  8
0
 10
-312.93
 20
-181.855
 11
-312.686
 21
-181.81
  0
LINE
  8
0
 10
-312.686
 20
-181.81
 11
-312.438
 21
-181.801
  0
LINE
  8
0
 10
-312.438
 20
-181.801
 11
-312.191
 21
-181.828
  0
LINE
  8
0
 10
-312.191
 20
-181.828
 11
-311.951
 21
-181.891
  0
LINE
  8
0
 10
-311.951
 20
-181.891
 11
-311.723
 21
-181.988
  0
LINE
  8
0
 10
-311.723
 20
-181.988
 11
-311.511
 21
-182.117
  0
LINE
  8
0
 10
-311.511
 20
-182.117
 11
-311.32
 21
-182.276
  0
LINE
  8
0
 10
-311.32
 20
-182.276
 11
-311.154
 21
-182.461
  0
LINE
  8
0
 10
-311.154
 20
-182.461
 11
-311.018
 21
-182.668
  0
LINE
  8
0
 10
-311.018
 20
-182.668
 11
-310.912
 21
-182.893
  0
LINE
  8
0
 10
-310.912
 20
-182.893
 11
-310.841
 21
-183.13
  0
LINE
  8
0
 10
-310.841
 20
-183.13
 11
-310.805
 21
-183.376
  0
LINE
  8
0
 10
-310.805
 20
-183.376
 11
-310.805
 21
-183.624
  0
LINE
  8
0
 10
-310.805
 20
-183.624
 11
-310.841
 21
-183.87
  0
LINE
  8
0
 10
-310.841
 20
-183.87
 11
-310.912
 21
-184.107
  0
LINE
  8
0
 10
-310.912
 20
-184.107
 11
-311.018
 21
-184.332
  0
LINE
  8
0
 10
-311.018
 20
-184.332
 11
-311.154
 21
-184.539
  0
LINE
  8
0
 10
-311.154
 20
-184.539
 11
-311.32
 21
-184.724
  0
LINE
  8
0
 10
-311.32
 20
-184.724
 11
-311.511
 21
-184.883
  0
LINE
  8
0
 10
-311.511
 20
-184.883
 11
-311.723
 21
-185.012
  0
LINE
  8
0
 10
-311.723
 20
-185.012
 11
-311.951
 21
-185.109
  0
LINE
  8
0
 10
-311.951
 20
-185.109
 11
-312.191
 21
-185.172
  0
LINE
  8
0
 10
-312.191
 20
-185.172
 11
-312.438
 21
-185.199
  0
LINE
  8
0
 10
-312.438
 20
-185.199
 11
-312.686
 21
-185.19
  0
LINE
  8
0
 10
312.191
 20
-185.172
 11
311.951
 21
-185.109
  0
LINE
  8
0
 10
311.951
 20
-185.109
 11
311.723
 21
-185.012
  0
LINE
  8
0
 10
311.723
 20
-185.012
 11
311.511
 21
-184.883
  0
LINE
  8
0
 10
311.511
 20
-184.883
 11
311.32
 21
-184.724
  0
LINE
  8
0
 10
311.32
 20
-184.724
 11
311.154
 21
-184.539
  0
LINE
  8
0
 10
311.154
 20
-184.539
 11
311.018
 21
-184.332
  0
LINE
  8
0
 10
311.018
 20
-184.332
 11
310.912
 21
-184.107
  0
LINE
  8
0
 10
310.912
 20
-184.107
 11
310.841
 21
-183.87
  0
LINE
  8
0
 10
310.841
 20
-183.87
 11
310.805
 21
-183.624
  0
LINE
  8
0
 10
310.805
 20
-183.624
 11
310.805
 21
-183.376
  0
LINE
  8
0
 10
310.805
 20
-183.376
 11
310.841
 21
-183.13
  0
LINE
  8
0
 10
310.841
 20
-183.13
 11
310.912
 21
-182.893
  0
LINE
  8
0
 10
310.912
 20
-182.893
 11
311.018
 21
-182.668
  0
LINE
  8
0
 10
311.018
 20
-182.668
 11
311.154
 21
-182.461
  0
LINE
  8
0
 10
311.154
 20
-182.461
 11
311.32
 21
-182.276
  0
LINE
  8
0
 10
311.32
 20
-182.276
 11
311.511
 21
-182.117
  0
LINE
  8
0
 10
311.511
 20
-182.117
 11
311.723
 21
-181.988
  0
LINE
  8
0
 10
311.723
 20
-181.988
 11
311.951
 21
-181.891
  0
LINE
  8
0
 10
311.951
 20
-181.891
 11
312.191
 21
-181.828
  0
LINE
  8
0
 10
312.191
 20
-181.828
 11
312.438
 21
-181.801
  0
LINE
  8
0
 10
312.438
 20
-181.801
 11
312.686
 21
-181.81
  0
LINE
  8
0
 10
312.686
 20
-181.81
 11
312.93
 21
-181.855
  0
LINE
  8
0
 10
312.93
 20
-181.855
 11
313.165
 21
-181.935
  0
LINE
  8
0
 10
313.165
 20
-181.935
 11
313.386
 21
-182.049
  0
LINE
  8
0
 10
313.386
 20
-182.049
 11
313.587
 21
-182.193
  0
LINE
  8
0
 10
313.587
 20
-182.193
 11
313.766
 21
-182.366
  0
LINE
  8
0
 10
313.766
 20
-182.366
 11
313.918
 21
-182.562
  0
LINE
  8
0
 10
313.918
 20
-182.562
 11
314.039
 21
-182.778
  0
LINE
  8
0
 10
314.039
 20
-182.778
 11
314.128
 21
-183.01
  0
LINE
  8
0
 10
314.128
 20
-183.01
 11
314.182
 21
-183.252
  0
LINE
  8
0
 10
314.182
 20
-183.252
 11
314.2
 21
-183.5
  0
LINE
  8
0
 10
314.2
 20
-183.5
 11
314.182
 21
-183.748
  0
LINE
  8
0
 10
314.182
 20
-183.748
 11
314.128
 21
-183.99
  0
LINE
  8
0
 10
314.128
 20
-183.99
 11
314.039
 21
-184.222
  0
LINE
  8
0
 10
314.039
 20
-184.222
 11
313.918
 21
-184.438
  0
LINE
  8
0
 10
313.918
 20
-184.438
 11
313.766
 21
-184.634
  0
LINE
  8
0
 10
313.766
 20
-184.634
 11
313.587
 21
-184.807
  0
LINE
  8
0
 10
313.587
 20
-184.807
 11
313.386
 21
-184.951
  0
LINE
  8
0
 10
313.386
 20
-184.951
 11
313.165
 21
-185.065
  0
LINE
  8
0
 10
313.165
 20
-185.065
 11
312.93
 21
-185.145
  0
LINE
  8
0
 10
312.93
 20
-185.145
 11
312.686
 21
-185.19
  0
LINE
  8
0
 10
312.686
 20
-185.19
 11
312.438
 21
-185.199
  0
LINE
  8
0
 10
312.438
 20
-185.199
 11
312.191
 21
-185.172
  0
LINE
  8
0
 10
312.108
 20
-229.729
 11
311.72
 21
-229.668
  0
LINE
  8
0
 10
311.72
 20
-229.668
 11
311.341
 21
-229.566
  0
LINE
  8
0
 10
311.341
 20
-229.566
 11
310.975
 21
-229.426
  0
LINE
  8
0
 10
310.975
 20
-229.426
 11
310.625
 21
-229.248
  0
LINE
  8
0
 10
310.625
 20
-229.248
 11
310.296
 21
-229.034
  0
LINE
  8
0
 10
310.296
 20
-229.034
 11
309.991
 21
-228.787
  0
LINE
  8
0
 10
309.991
 20
-228.787
 11
309.713
 21
-228.509
  0
LINE
  8
0
 10
309.713
 20
-228.509
 11
309.466
 21
-228.204
  0
LINE
  8
0
 10
309.466
 20
-228.204
 11
309.252
 21
-227.875
  0
LINE
  8
0
 10
309.252
 20
-227.875
 11
309.074
 21
-227.525
  0
LINE
  8
0
 10
309.074
 20
-227.525
 11
308.934
 21
-227.159
  0
LINE
  8
0
 10
308.934
 20
-227.159
 11
308.832
 21
-226.78
  0
LINE
  8
0
 10
308.832
 20
-226.78
 11
308.771
 21
-226.392
  0
LINE
  8
0
 10
308.771
 20
-226.392
 11
308.75
 21
-226
  0
LINE
  8
0
 10
308.75
 20
-226
 11
308.771
 21
-225.608
  0
LINE
  8
0
 10
308.771
 20
-225.608
 11
308.832
 21
-225.22
  0
LINE
  8
0
 10
308.832
 20
-225.22
 11
308.934
 21
-224.841
  0
LINE
  8
0
 10
308.934
 20
-224.841
 11
309.074
 21
-224.475
  0
LINE
  8
0
 10
309.074
 20
-224.475
 11
309.252
 21
-224.125
  0
LINE
  8
0
 10
309.252
 20
-224.125
 11
309.466
 21
-223.796
  0
LINE
  8
0
 10
309.466
 20
-223.796
 11
309.713
 21
-223.491
  0
LINE
  8
0
 10
309.713
 20
-223.491
 11
309.991
 21
-223.213
  0
LINE
  8
0
 10
309.991
 20
-223.213
 11
310.296
 21
-222.966
  0
LINE
  8
0
 10
310.296
 20
-222.966
 11
310.625
 21
-222.752
  0
LINE
  8
0
 10
310.625
 20
-222.752
 11
310.975
 21
-222.574
  0
LINE
  8
0
 10
310.975
 20
-222.574
 11
311.341
 21
-222.434
  0
LINE
  8
0
 10
311.341
 20
-222.434
 11
311.72
 21
-222.332
  0
LINE
  8
0
 10
311.72
 20
-222.332
 11
312.108
 21
-222.271
  0
LINE
  8
0
 10
312.108
 20
-222.271
 11
312.5
 21
-222.25
  0
LINE
  8
0
 10
312.5
 20
-222.25
 11
312.892
 21
-222.271
  0
LINE
  8
0
 10
312.892
 20
-222.271
 11
313.28
 21
-222.332
  0
LINE
  8
0
 10
313.28
 20
-222.332
 11
313.659
 21
-222.434
  0
LINE
  8
0
 10
313.659
 20
-222.434
 11
314.025
 21
-222.574
  0
LINE
  8
0
 10
314.025
 20
-222.574
 11
314.375
 21
-222.752
  0
LINE
  8
0
 10
314.375
 20
-222.752
 11
314.704
 21
-222.966
  0
LINE
  8
0
 10
314.704
 20
-222.966
 11
315.009
 21
-223.213
  0
LINE
  8
0
 10
315.009
 20
-223.213
 11
315.287
 21
-223.491
  0
LINE
  8
0
 10
315.287
 20
-223.491
 11
315.534
 21
-223.796
  0
LINE
  8
0
 10
315.534
 20
-223.796
 11
315.748
 21
-224.125
  0
LINE
  8
0
 10
315.748
 20
-224.125
 11
315.926
 21
-224.475
  0
LINE
  8
0
 10
315.926
 20
-224.475
 11
316.066
 21
-224.841
  0
LINE
  8
0
 10
316.066
 20
-224.841
 11
316.168
 21
-225.22
  0
LINE
  8
0
 10
316.168
 20
-225.22
 11
316.229
 21
-225.608
  0
LINE
  8
0
 10
316.229
 20
-225.608
 11
316.25
 21
-226
  0
LINE
  8
0
 10
316.25
 20
-226
 11
316.229
 21
-226.392
  0
LINE
  8
0
 10
316.229
 20
-226.392
 11
316.168
 21
-226.78
  0
LINE
  8
0
 10
316.168
 20
-226.78
 11
316.066
 21
-227.159
  0
LINE
  8
0
 10
316.066
 20
-227.159
 11
315.926
 21
-227.525
  0
LINE
  8
0
 10
315.926
 20
-227.525
 11
315.748
 21
-227.875
  0
LINE
  8
0
 10
315.748
 20
-227.875
 11
315.534
 21
-228.204
  0
LINE
  8
0
 10
315.534
 20
-228.204
 11
315.287
 21
-228.509
  0
LINE
  8
0
 10
315.287
 20
-228.509
 11
315.009
 21
-228.787
  0
LINE
  8
0
 10
315.009
 20
-228.787
 11
314.704
 21
-229.034
  0
LINE
  8
0
 10
314.704
 20
-229.034
 11
314.375
 21
-229.248
  0
LINE
  8
0
 10
314.375
 20
-229.248
 11
314.025
 21
-229.426
  0
LINE
  8
0
 10
314.025
 20
-229.426
 11
313.659
 21
-229.566
  0
LINE
  8
0
 10
313.659
 20
-229.566
 11
313.28
 21
-229.668
  0
LINE
  8
0
 10
313.28
 20
-229.668
 11
312.892
 21
-229.729
  0
LINE
  8
0
 10
312.892
 20
-229.729
 11
312.5
 21
-229.75
  0
LINE
  8
0
 10
312.5
 20
-229.75
 11
312.108
 21
-229.729
  0
LINE
  8
0
 10
-312.892
 20
-229.729
 11
-313.28
 21
-229.668
  0
LINE
  8
0
 10
-313.28
 20
-229.668
 11
-313.659
 21
-229.566
  0
LINE
  8
0
 10
-313.659
 20
-229.566
 11
-314.025
 21
-229.426
  0
LINE
  8
0
 10
-314.025
 20
-229.426
 11
-314.375
 21
-229.248
  0
LINE
  8
0
 10
-314.375
 20
-229.248
 11
-314.704
 21
-229.034
  0
LINE
  8
0
 10
-314.704
 20
-229.034
 11
-315.009
 21
-228.787
  0
LINE
  8
0
 10
-315.009
 20
-228.787
 11
-315.287
 21
-228.509
  0
LINE
  8
0
 10
-315.287
 20
-228.509
 11
-315.534
 21
-228.204
  0
LINE
  8
0
 10
-315.534
 20
-228.204
 11
-315.748
 21
-227.875
  0
LINE
  8
0
 10
-315.748
 20
-227.875
 11
-315.926
 21
-227.525
  0
LINE
  8
0
 10
-315.926
 20
-227.525
 11
-316.066
 21
-227.159
  0
LINE
  8
0
 10
-316.066
 20
-227.159
 11
-316.168
 21
-226.78
  0
LINE
  8
0
 10
-316.168
 20
-226.78
 11
-316.229
 21
-226.392
  0
LINE
  8
0
 10
-316.229
 20
-226.392
 11
-316.25
 21
-226
  0
LINE
  8
0
 10
-316.25
 20
-226
 11
-316.229
 21
-225.608
  0
LINE
  8
0
 10
-316.229
 20
-225.608
 11
-316.168
 21
-225.22
  0
LINE
  8
0
 10
-316.168
 20
-225.22
 11
-316.066
 21
-224.841
  0
LINE
  8
0
 10
-316.066
 20
-224.841
 11
-315.926
 21
-224.475
  0
LINE
  8
0
 10
-315.926
 20
-224.475
 11
-315.748
 21
-224.125
  0
LINE
  8
0
 10
-315.748
 20
-224.125
 11
-315.534
 21
-223.796
  0
LINE
  8
0
 10
-315.534
 20
-223.796
 11
-315.287
 21
-223.491
  0
LINE
  8
0
 10
-315.287
 20
-223.491
 11
-315.009
 21
-223.213
  0
LINE
  8
0
 10
-315.009
 20
-223.213
 11
-314.704
 21
-222.966
  0
LINE
  8
0
 10
-314.704
 20
-222.966
 11
-314.375
 21
-222.752
  0
LINE
  8
0
 10
-314.375
 20
-222.752
 11
-314.025
 21
-222.574
  0
LINE
  8
0
 10
-314.025
 20
-222.574
 11
-313.659
 21
-222.434
  0
LINE
  8
0
 10
-313.659
 20
-222.434
 11
-313.28
 21
-222.332
  0
LINE
  8
0
 10
-313.28
 20
-222.332
 11
-312.892
 21
-222.271
  0
LINE
  8
0
 10
-312.892
 20
-222.271
 11
-312.5
 21
-222.25
  0
LINE
  8
0
 10
-312.5
 20
-222.25
 11
-312.108
 21
-222.271
  0
LINE
  8
0
 10
-312.108
 20
-222.271
 11
-311.72
 21
-222.332
  0
LINE
  8
0
 10
-311.72
 20
-222.332
 11
-311.341
 21
-222.434
  0
LINE
  8
0
 10
-311.341
 20
-222.434
 11
-310.975
 21
-222.574
  0
LINE
  8
0
 10
-310.975
 20
-222.574
 11
-310.625
 21
-222.752
  0
LINE
  8
0
 10
-310.625
 20
-222.752
 11
-310.296
 21
-222.966
  0
LINE
  8
0
 10
-310.296
 20
-222.966
 11
-309.991
 21
-223.213
  0
LINE
  8
0
 10
-309.991
 20
-223.213
 11
-309.713
 21
-223.491
  0
LINE
  8
0
 10
-309.713
 20
-223.491
 11
-309.466
 21
-223.796
  0
LINE
  8
0
 10
-309.466
 20
-223.796
 11
-309.252
 21
-224.125
  0
LINE
  8
0
 10
-309.252
 20
-224.125
 11
-309.074
 21
-224.475
  0
LINE
  8
0
 10
-309.074
 20
-224.475
 11
-308.934
 21
-224.841
  0
LINE
  8
0
 10
-308.934
 20
-224.841
 11
-308.832
 21
-225.22
  0
LINE
  8
0
 10
-308.832
 20
-225.22
 11
-308.771
 21
-225.608
  0
LINE
  8
0
 10
-308.771
 20
-225.608
 11
-308.75
 21
-226
  0
LINE
  8
0
 10
-308.75
 20
-226
 11
-308.771
 21
-226.392
  0
LINE
  8
0
 10
-308.771
 20
-226.392
 11
-308.832
 21
-226.78
  0
LINE
  8
0
 10
-308.832
 20
-226.78
 11
-308.934
 21
-227.159
  0
LINE
  8
0
 10
-308.934
 20
-227.159
 11
-309.074
 21
-227.525
  0
LINE
  8
0
 10
-309.074
 20
-227.525
 11
-309.252
 21
-227.875
  0
LINE
  8
0
 10
-309.252
 20
-227.875
 11
-309.466
 21
-228.204
  0
LINE
  8
0
 10
-309.466
 20
-228.204
 11
-309.713
 21
-228.509
  0
LINE
  8
0
 10
-309.713
 20
-228.509
 11
-309.991
 21
-228.787
  0
LINE
  8
0
 10
-309.991
 20
-228.787
 11
-310.296
 21
-229.034
  0
LINE
  8
0
 10
-310.296
 20
-229.034
 11
-310.625
 21
-229.248
  0
LINE
  8
0
 10
-310.625
 20
-229.248
 11
-310.975
 21
-229.426
  0
LINE
  8
0
 10
-310.975
 20
-229.426
 11
-311.341
 21
-229.566
  0
LINE
  8
0
 10
-311.341
 20
-229.566
 11
-311.72
 21
-229.668
  0
LINE
  8
0
 10
-311.72
 20
-229.668
 11
-312.108
 21
-229.729
  0
LINE
  8
0
 10
-312.108
 20
-229.729
 11
-312.5
 21
-229.75
  0
LINE
  8
0
 10
-312.5
 20
-229.75
 11
-312.892
 21
-229.729
  0
LINE
  8
0
 10
-270.309
 20
-227.672
 11
-270.549
 21
-227.609
  0
LINE
  8
0
 10
-270.549
 20
-227.609
 11
-270.777
 21
-227.512
  0
LINE
  8
0
 10
-270.777
 20
-227.512
 11
-270.989
 21
-227.383
  0
LINE
  8
0
 10
-270.989
 20
-227.383
 11
-271.18
 21
-227.224
  0
LINE
  8
0
 10
-271.18
 20
-227.224
 11
-271.346
 21
-227.039
  0
LINE
  8
0
 10
-271.346
 20
-227.039
 11
-271.482
 21
-226.832
  0
LINE
  8
0
 10
-271.482
 20
-226.832
 11
-271.588
 21
-226.607
  0
LINE
  8
0
 10
-271.588
 20
-226.607
 11
-271.659
 21
-226.37
  0
LINE
  8
0
 10
-271.659
 20
-226.37
 11
-271.695
 21
-226.124
  0
LINE
  8
0
 10
-271.695
 20
-226.124
 11
-271.695
 21
-225.876
  0
LINE
  8
0
 10
-271.695
 20
-225.876
 11
-271.659
 21
-225.63
  0
LINE
  8
0
 10
-271.659
 20
-225.63
 11
-271.588
 21
-225.393
  0
LINE
  8
0
 10
-271.588
 20
-225.393
 11
-271.482
 21
-225.168
  0
LINE
  8
0
 10
-271.482
 20
-225.168
 11
-271.346
 21
-224.961
  0
LINE
  8
0
 10
-271.346
 20
-224.961
 11
-271.18
 21
-224.776
  0
LINE
  8
0
 10
-271.18
 20
-224.776
 11
-270.989
 21
-224.617
  0
LINE
  8
0
 10
-270.989
 20
-224.617
 11
-270.777
 21
-224.488
  0
LINE
  8
0
 10
-270.777
 20
-224.488
 11
-270.549
 21
-224.391
  0
LINE
  8
0
 10
-270.549
 20
-224.391
 11
-270.309
 21
-224.328
  0
LINE
  8
0
 10
-270.309
 20
-224.328
 11
-270.062
 21
-224.301
  0
LINE
  8
0
 10
-270.062
 20
-224.301
 11
-269.814
 21
-224.31
  0
LINE
  8
0
 10
-269.814
 20
-224.31
 11
-269.57
 21
-224.355
  0
LINE
  8
0
 10
-269.57
 20
-224.355
 11
-269.335
 21
-224.435
  0
LINE
  8
0
 10
-269.335
 20
-224.435
 11
-269.114
 21
-224.549
  0
LINE
  8
0
 10
-269.114
 20
-224.549
 11
-268.913
 21
-224.693
  0
LINE
  8
0
 10
-268.913
 20
-224.693
 11
-268.734
 21
-224.866
  0
LINE
  8
0
 10
-268.734
 20
-224.866
 11
-268.582
 21
-225.062
  0
LINE
  8
0
 10
-268.582
 20
-225.062
 11
-268.461
 21
-225.278
  0
LINE
  8
0
 10
-268.461
 20
-225.278
 11
-268.372
 21
-225.51
  0
LINE
  8
0
 10
-268.372
 20
-225.51
 11
-268.318
 21
-225.752
  0
LINE
  8
0
 10
-268.318
 20
-225.752
 11
-268.3
 21
-226
  0
LINE
  8
0
 10
-268.3
 20
-226
 11
-268.318
 21
-226.248
  0
LINE
  8
0
 10
-268.318
 20
-226.248
 11
-268.372
 21
-226.49
  0
LINE
  8
0
 10
-268.372
 20
-226.49
 11
-268.461
 21
-226.722
  0
LINE
  8
0
 10
-268.461
 20
-226.722
 11
-268.582
 21
-226.938
  0
LINE
  8
0
 10
-268.582
 20
-226.938
 11
-268.734
 21
-227.134
  0
LINE
  8
0
 10
-268.734
 20
-227.134
 11
-268.913
 21
-227.307
  0
LINE
  8
0
 10
-268.913
 20
-227.307
 11
-269.114
 21
-227.451
  0
LINE
  8
0
 10
-269.114
 20
-227.451
 11
-269.335
 21
-227.565
  0
LINE
  8
0
 10
-269.335
 20
-227.565
 11
-269.57
 21
-227.645
  0
LINE
  8
0
 10
-269.57
 20
-227.645
 11
-269.814
 21
-227.69
  0
LINE
  8
0
 10
-269.814
 20
-227.69
 11
-270.062
 21
-227.699
  0
LINE
  8
0
 10
-270.062
 20
-227.699
 11
-270.309
 21
-227.672
  0
LINE
  8
0
 10
269.691
 20
-227.672
 11
269.451
 21
-227.609
  0
LINE
  8
0
 10
269.451
 20
-227.609
 11
269.223
 21
-227.512
  0
LINE
  8
0
 10
269.223
 20
-227.512
 11
269.011
 21
-227.383
  0
LINE
  8
0
 10
269.011
 20
-227.383
 11
268.82
 21
-227.224
  0
LINE
  8
0
 10
268.82
 20
-227.224
 11
268.654
 21
-227.039
  0
LINE
  8
0
 10
268.654
 20
-227.039
 11
268.518
 21
-226.832
  0
LINE
  8
0
 10
268.518
 20
-226.832
 11
268.412
 21
-226.607
  0
LINE
  8
0
 10
268.412
 20
-226.607
 11
268.341
 21
-226.37
  0
LINE
  8
0
 10
268.341
 20
-226.37
 11
268.305
 21
-226.124
  0
LINE
  8
0
 10
268.305
 20
-226.124
 11
268.305
 21
-225.876
  0
LINE
  8
0
 10
268.305
 20
-225.876
 11
268.341
 21
-225.63
  0
LINE
  8
0
 10
268.341
 20
-225.63
 11
268.412
 21
-225.393
  0
LINE
  8
0
 10
268.412
 20
-225.393
 11
268.518
 21
-225.168
  0
LINE
  8
0
 10
268.518
 20
-225.168
 11
268.654
 21
-224.961
  0
LINE
  8
0
 10
268.654
 20
-224.961
 11
268.82
 21
-224.776
  0
LINE
  8
0
 10
268.82
 20
-224.776
 11
269.011
 21
-224.617
  0
LINE
  8
0
 10
269.011
 20
-224.617
 11
269.223
 21
-224.488
  0
LINE
  8
0
 10
269.223
 20
-224.488
 11
269.451
 21
-224.391
  0
LINE
  8
0
 10
269.451
 20
-224.391
 11
269.691
 21
-224.328
  0
LINE
  8
0
 10
269.691
 20
-224.328
 11
269.938
 21
-224.301
  0
LINE
  8
0
 10
269.938
 20
-224.301
 11
270.186
 21
-224.31
  0
LINE
  8
0
 10
270.186
 20
-224.31
 11
270.43
 21
-224.355
  0
LINE
  8
0
 10
270.43
 20
-224.355
 11
270.665
 21
-224.435
  0
LINE
  8
0
 10
270.665
 20
-224.435
 11
270.886
 21
-224.549
  0
LINE
  8
0
 10
270.886
 20
-224.549
 11
271.087
 21
-224.693
  0
LINE
  8
0
 10
271.087
 20
-224.693
 11
271.266
 21
-224.866
  0
LINE
  8
0
 10
271.266
 20
-224.866
 11
271.418
 21
-225.062
  0
LINE
  8
0
 10
271.418
 20
-225.062
 11
271.539
 21
-225.278
  0
LINE
  8
0
 10
271.539
 20
-225.278
 11
271.628
 21
-225.51
  0
LINE
  8
0
 10
271.628
 20
-225.51
 11
271.682
 21
-225.752
  0
LINE
  8
0
 10
271.682
 20
-225.752
 11
271.7
 21
-226
  0
LINE
  8
0
 10
271.7
 20
-226
 11
271.682
 21
-226.248
  0
LINE
  8
0
 10
271.682
 20
-226.248
 11
271.628
 21
-226.49
  0
LINE
  8
0
 10
271.628
 20
-226.49
 11
271.539
 21
-226.722
  0
LINE
  8
0
 10
271.539
 20
-226.722
 11
271.418
 21
-226.938
  0
LINE
  8
0
 10
271.418
 20
-226.938
 11
271.266
 21
-227.134
  0
LINE
  8
0
 10
271.266
 20
-227.134
 11
271.087
 21
-227.307
  0
LINE
  8
0
 10
271.087
 20
-227.307
 11
270.886
 21
-227.451
  0
LINE
  8
0
 10
270.886
 20
-227.451
 11
270.665
 21
-227.565
  0
LINE
  8
0
 10
270.665
 20
-227.565
 11
270.43
 21
-227.645
  0
LINE
  8
0
 10
270.43
 20
-227.645
 11
270.186
 21
-227.69
  0
LINE
  8
0
 10
270.186
 20
-227.69
 11
269.938
 21
-227.699
  0
LINE
  8
0
 10
269.938
 20
-227.699
 11
269.691
 21
-227.672
  0
LINE
  8
0
 10
179.691
 20
-227.672
 11
179.451
 21
-227.609
  0
LINE
  8
0
 10
179.451
 20
-227.609
 11
179.223
 21
-227.512
  0
LINE
  8
0
 10
179.223
 20
-227.512
 11
179.011
 21
-227.383
  0
LINE
  8
0
 10
179.011
 20
-227.383
 11
178.82
 21
-227.224
  0
LINE
  8
0
 10
178.82
 20
-227.224
 11
178.654
 21
-227.039
  0
LINE
  8
0
 10
178.654
 20
-227.039
 11
178.518
 21
-226.832
  0
LINE
  8
0
 10
178.518
 20
-226.832
 11
178.412
 21
-226.607
  0
LINE
  8
0
 10
178.412
 20
-226.607
 11
178.341
 21
-226.37
  0
LINE
  8
0
 10
178.341
 20
-226.37
 11
178.305
 21
-226.124
  0
LINE
  8
0
 10
178.305
 20
-226.124
 11
178.305
 21
-225.876
  0
LINE
  8
0
 10
178.305
 20
-225.876
 11
178.341
 21
-225.63
  0
LINE
  8
0
 10
178.341
 20
-225.63
 11
178.412
 21
-225.393
  0
LINE
  8
0
 10
178.412
 20
-225.393
 11
178.518
 21
-225.168
  0
LINE
  8
0
 10
178.518
 20
-225.168
 11
178.654
 21
-224.961
  0
LINE
  8
0
 10
178.654
 20
-224.961
 11
178.82
 21
-224.776
  0
LINE
  8
0
 10
178.82
 20
-224.776
 11
179.011
 21
-224.617
  0
LINE
  8
0
 10
179.011
 20
-224.617
 11
179.223
 21
-224.488
  0
LINE
  8
0
 10
179.223
 20
-224.488
 11
179.451
 21
-224.391
  0
LINE
  8
0
 10
179.451
 20
-224.391
 11
179.691
 21
-224.328
  0
LINE
  8
0
 10
179.691
 20
-224.328
 11
179.938
 21
-224.301
  0
LINE
  8
0
 10
179.938
 20
-224.301
 11
180.186
 21
-224.31
  0
LINE
  8
0
 10
180.186
 20
-224.31
 11
180.43
 21
-224.355
  0
LINE
  8
0
 10
180.43
 20
-224.355
 11
180.665
 21
-224.435
  0
LINE
  8
0
 10
180.665
 20
-224.435
 11
180.886
 21
-224.549
  0
LINE
  8
0
 10
180.886
 20
-224.549
 11
181.087
 21
-224.693
  0
LINE
  8
0
 10
181.087
 20
-224.693
 11
181.266
 21
-224.866
  0
LINE
  8
0
 10
181.266
 20
-224.866
 11
181.418
 21
-225.062
  0
LINE
  8
0
 10
181.418
 20
-225.062
 11
181.539
 21
-225.278
  0
LINE
  8
0
 10
181.539
 20
-225.278
 11
181.628
 21
-225.51
  0
LINE
  8
0
 10
181.628
 20
-225.51
 11
181.682
 21
-225.752
  0
LINE
  8
0
 10
181.682
 20
-225.752
 11
181.7
 21
-226
  0
LINE
  8
0
 10
181.7
 20
-226
 11
181.682
 21
-226.248
  0
LINE
  8
0
 10
181.682
 20
-226.248
 11
181.628
 21
-226.49
  0
LINE
  8
0
 10
181.628
 20
-226.49
 11
181.539
 21
-226.722
  0
LINE
  8
0
 10
181.539
 20
-226.722
 11
181.418
 21
-226.938
  0
LINE
  8
0
 10
181.418
 20
-226.938
 11
181.266
 21
-227.134
  0
LINE
  8
0
 10
181.266
 20
-227.134
 11
181.087
 21
-227.307
  0
LINE
  8
0
 10
181.087
 20
-227.307
 11
180.886
 21
-227.451
  0
LINE
  8
0
 10
180.886
 20
-227.451
 11
180.665
 21
-227.565
  0
LINE
  8
0
 10
180.665
 20
-227.565
 11
180.43
 21
-227.645
  0
LINE
  8
0
 10
180.43
 20
-227.645
 11
180.186
 21
-227.69
  0
LINE
  8
0
 10
180.186
 20
-227.69
 11
179.938
 21
-227.699
  0
LINE
  8
0
 10
179.938
 20
-227.699
 11
179.691
 21
-227.672
  0
LINE
  8
0
 10
-90.3088
 20
-227.672
 11
-90.5489
 21
-227.609
  0
LINE
  8
0
 10
-90.5489
 20
-227.609
 11
-90.7773
 21
-227.512
  0
LINE
  8
0
 10
-90.7773
 20
-227.512
 11
-90.9892
 21
-227.383
  0
LINE
  8
0
 10
-90.9892
 20
-227.383
 11
-91.1799
 21
-227.224
  0
LINE
  8
0
 10
-91.1799
 20
-227.224
 11
-91.3455
 21
-227.039
  0
LINE
  8
0
 10
-91.3455
 20
-227.039
 11
-91.4825
 21
-226.832
  0
LINE
  8
0
 10
-91.4825
 20
-226.832
 11
-91.5878
 21
-226.607
  0
LINE
  8
0
 10
-91.5878
 20
-226.607
 11
-91.6593
 21
-226.37
  0
LINE
  8
0
 10
-91.6593
 20
-226.37
 11
-91.6955
 21
-226.124
  0
LINE
  8
0
 10
-91.6955
 20
-226.124
 11
-91.6955
 21
-225.876
  0
LINE
  8
0
 10
-91.6955
 20
-225.876
 11
-91.6593
 21
-225.63
  0
LINE
  8
0
 10
-91.6593
 20
-225.63
 11
-91.5878
 21
-225.393
  0
LINE
  8
0
 10
-91.5878
 20
-225.393
 11
-91.4825
 21
-225.168
  0
LINE
  8
0
 10
-91.4825
 20
-225.168
 11
-91.3455
 21
-224.961
  0
LINE
  8
0
 10
-91.3455
 20
-224.961
 11
-91.1799
 21
-224.776
  0
LINE
  8
0
 10
-91.1799
 20
-224.776
 11
-90.9892
 21
-224.617
  0
LINE
  8
0
 10
-90.9892
 20
-224.617
 11
-90.7773
 21
-224.488
  0
LINE
  8
0
 10
-90.7773
 20
-224.488
 11
-90.5489
 21
-224.391
  0
LINE
  8
0
 10
-90.5489
 20
-224.391
 11
-90.3088
 21
-224.328
  0
LINE
  8
0
 10
-90.3088
 20
-224.328
 11
-90.0621
 21
-224.301
  0
LINE
  8
0
 10
-90.0621
 20
-224.301
 11
-89.8141
 21
-224.31
  0
LINE
  8
0
 10
-89.8141
 20
-224.31
 11
-89.57
 21
-224.355
  0
LINE
  8
0
 10
-89.57
 20
-224.355
 11
-89.3351
 21
-224.435
  0
LINE
  8
0
 10
-89.3351
 20
-224.435
 11
-89.1144
 21
-224.549
  0
LINE
  8
0
 10
-89.1144
 20
-224.549
 11
-88.9126
 21
-224.693
  0
LINE
  8
0
 10
-88.9126
 20
-224.693
 11
-88.7339
 21
-224.866
  0
LINE
  8
0
 10
-88.7339
 20
-224.866
 11
-88.5822
 21
-225.062
  0
LINE
  8
0
 10
-88.5822
 20
-225.062
 11
-88.4607
 21
-225.278
  0
LINE
  8
0
 10
-88.4607
 20
-225.278
 11
-88.3721
 21
-225.51
  0
LINE
  8
0
 10
-88.3721
 20
-225.51
 11
-88.3181
 21
-225.752
  0
LINE
  8
0
 10
-88.3181
 20
-225.752
 11
-88.3
 21
-226
  0
LINE
  8
0
 10
-88.3
 20
-226
 11
-88.3181
 21
-226.248
  0
LINE
  8
0
 10
-88.3181
 20
-226.248
 11
-88.3721
 21
-226.49
  0
LINE
  8
0
 10
-88.3721
 20
-226.49
 11
-88.4607
 21
-226.722
  0
LINE
  8
0
 10
-88.4607
 20
-226.722
 11
-88.5822
 21
-226.938
  0
LINE
  8
0
 10
-88.5822
 20
-226.938
 11
-88.7339
 21
-227.134
  0
LINE
  8
0
 10
-88.7339
 20
-227.134
 11
-88.9126
 21
-227.307
  0
LINE
  8
0
 10
-88.9126
 20
-227.307
 11
-89.1144
 21
-227.451
  0
LINE
  8
0
 10
-89.1144
 20
-227.451
 11
-89.3351
 21
-227.565
  0
LINE
  8
0
 10
-89.3351
 20
-227.565
 11
-89.57
 21
-227.645
  0
LINE
  8
0
 10
-89.57
 20
-227.645
 11
-89.8141
 21
-227.69
  0
LINE
  8
0
 10
-89.8141
 20
-227.69
 11
-90.0621
 21
-227.699
  0
LINE
  8
0
 10
-90.0621
 20
-227.699
 11
-90.3088
 21
-227.672
  0
LINE
  8
0
 10
89.6912
 20
-227.672
 11
89.4511
 21
-227.609
  0
LINE
  8
0
 10
89.4511
 20
-227.609
 11
89.2227
 21
-227.512
  0
LINE
  8
0
 10
89.2227
 20
-227.512
 11
89.0108
 21
-227.383
  0
LINE
  8
0
 10
89.0108
 20
-227.383
 11
88.8201
 21
-227.224
  0
LINE
  8
0
 10
88.8201
 20
-227.224
 11
88.6544
 21
-227.039
  0
LINE
  8
0
 10
88.6544
 20
-227.039
 11
88.5175
 21
-226.832
  0
LINE
  8
0
 10
88.5175
 20
-226.832
 11
88.4122
 21
-226.607
  0
LINE
  8
0
 10
88.4122
 20
-226.607
 11
88.3407
 21
-226.37
  0
LINE
  8
0
 10
88.3407
 20
-226.37
 11
88.3045
 21
-226.124
  0
LINE
  8
0
 10
88.3045
 20
-226.124
 11
88.3045
 21
-225.876
  0
LINE
  8
0
 10
88.3045
 20
-225.876
 11
88.3407
 21
-225.63
  0
LINE
  8
0
 10
88.3407
 20
-225.63
 11
88.4122
 21
-225.393
  0
LINE
  8
0
 10
88.4122
 20
-225.393
 11
88.5175
 21
-225.168
  0
LINE
  8
0
 10
88.5175
 20
-225.168
 11
88.6544
 21
-224.961
  0
LINE
  8
0
 10
88.6544
 20
-224.961
 11
88.8201
 21
-224.776
  0
LINE
  8
0
 10
88.8201
 20
-224.776
 11
89.0108
 21
-224.617
  0
LINE
  8
0
 10
89.0108
 20
-224.617
 11
89.2227
 21
-224.488
  0
LINE
  8
0
 10
89.2227
 20
-224.488
 11
89.4511
 21
-224.391
  0
LINE
  8
0
 10
89.4511
 20
-224.391
 11
89.6912
 21
-224.328
  0
LINE
  8
0
 10
89.6912
 20
-224.328
 11
89.9379
 21
-224.301
  0
LINE
  8
0
 10
89.9379
 20
-224.301
 11
90.1859
 21
-224.31
  0
LINE
  8
0
 10
90.1859
 20
-224.31
 11
90.43
 21
-224.355
  0
LINE
  8
0
 10
90.43
 20
-224.355
 11
90.6649
 21
-224.435
  0
LINE
  8
0
 10
90.6649
 20
-224.435
 11
90.8856
 21
-224.549
  0
LINE
  8
0
 10
90.8856
 20
-224.549
 11
91.0874
 21
-224.693
  0
LINE
  8
0
 10
91.0874
 20
-224.693
 11
91.2661
 21
-224.866
  0
LINE
  8
0
 10
91.2661
 20
-224.866
 11
91.4178
 21
-225.062
  0
LINE
  8
0
 10
91.4178
 20
-225.062
 11
91.5393
 21
-225.278
  0
LINE
  8
0
 10
91.5393
 20
-225.278
 11
91.6279
 21
-225.51
  0
LINE
  8
0
 10
91.6279
 20
-225.51
 11
91.6819
 21
-225.752
  0
LINE
  8
0
 10
91.6819
 20
-225.752
 11
91.7
 21
-226
  0
LINE
  8
0
 10
91.7
 20
-226
 11
91.6819
 21
-226.248
  0
LINE
  8
0
 10
91.6819
 20
-226.248
 11
91.6279
 21
-226.49
  0
LINE
  8
0
 10
91.6279
 20
-226.49
 11
91.5393
 21
-226.722
  0
LINE
  8
0
 10
91.5393
 20
-226.722
 11
91.4178
 21
-226.938
  0
LINE
  8
0
 10
91.4178
 20
-226.938
 11
91.2661
 21
-227.134
  0
LINE
  8
0
 10
91.2661
 20
-227.134
 11
91.0874
 21
-227.307
  0
LINE
  8
0
 10
91.0874
 20
-227.307
 11
90.8856
 21
-227.451
  0
LINE
  8
0
 10
90.8856
 20
-227.451
 11
90.6649
 21
-227.565
  0
LINE
  8
0
 10
90.6649
 20
-227.565
 11
90.43
 21
-227.645
  0
LINE
  8
0
 10
90.43
 20
-227.645
 11
90.1859
 21
-227.69
  0
LINE
  8
0
 10
90.1859
 20
-227.69
 11
89.9379
 21
-227.699
  0
LINE
  8
0
 10
89.9379
 20
-227.699
 11
89.6912
 21
-227.672
  0
LINE
  8
0
 10
-0.308777
 20
-227.672
 11
-0.548889
 21
-227.609
  0
LINE
  8
0
 10
-0.548889
 20
-227.609
 11
-0.777298
 21
-227.512
  0
LINE
  8
0
 10
-0.777298
 20
-227.512
 11
-0.989151
 21
-227.383
  0
LINE
  8
0
 10
-0.989151
 20
-227.383
 11
-1.17992
 21
-227.224
  0
LINE
  8
0
 10
-1.17992
 20
-227.224
 11
-1.34554
 21
-227.039
  0
LINE
  8
0
 10
-1.34554
 20
-227.039
 11
-1.48248
 21
-226.832
  0
LINE
  8
0
 10
-1.48248
 20
-226.832
 11
-1.58781
 21
-226.607
  0
LINE
  8
0
 10
-1.58781
 20
-226.607
 11
-1.65932
 21
-226.37
  0
LINE
  8
0
 10
-1.65932
 20
-226.37
 11
-1.69545
 21
-226.124
  0
LINE
  8
0
 10
-1.69545
 20
-226.124
 11
-1.69545
 21
-225.876
  0
LINE
  8
0
 10
-1.69545
 20
-225.876
 11
-1.65932
 21
-225.63
  0
LINE
  8
0
 10
-1.65932
 20
-225.63
 11
-1.58781
 21
-225.393
  0
LINE
  8
0
 10
-1.58781
 20
-225.393
 11
-1.48248
 21
-225.168
  0
LINE
  8
0
 10
-1.48248
 20
-225.168
 11
-1.34554
 21
-224.961
  0
LINE
  8
0
 10
-1.34554
 20
-224.961
 11
-1.17992
 21
-224.776
  0
LINE
  8
0
 10
-1.17992
 20
-224.776
 11
-0.989151
 21
-224.617
  0
LINE
  8
0
 10
-0.989151
 20
-224.617
 11
-0.777298
 21
-224.488
  0
LINE
  8
0
 10
-0.777298
 20
-224.488
 11
-0.548889
 21
-224.391
  0
LINE
  8
0
 10
-0.548889
 20
-224.391
 11
-0.308777
 21
-224.328
  0
LINE
  8
0
 10
-0.308777
 20
-224.328
 11
-0.0620728
 21
-224.301
  0
LINE
  8
0
 10
-0.0620728
 20
-224.301
 11
0.185928
 21
-224.31
  0
LINE
  8
0
 10
0.185928
 20
-224.31
 11
0.429977
 21
-224.355
  0
LINE
  8
0
 10
0.429977
 20
-224.355
 11
0.664871
 21
-224.435
  0
LINE
  8
0
 10
0.664871
 20
-224.435
 11
0.88559
 21
-224.549
  0
LINE
  8
0
 10
0.88559
 20
-224.549
 11
1.08743
 21
-224.693
  0
LINE
  8
0
 10
1.08743
 20
-224.693
 11
1.2661
 21
-224.866
  0
LINE
  8
0
 10
1.2661
 20
-224.866
 11
1.41779
 21
-225.062
  0
LINE
  8
0
 10
1.41779
 20
-225.062
 11
1.53926
 21
-225.278
  0
LINE
  8
0
 10
1.53926
 20
-225.278
 11
1.62791
 21
-225.51
  0
LINE
  8
0
 10
1.62791
 20
-225.51
 11
1.68187
 21
-225.752
  0
LINE
  8
0
 10
1.68187
 20
-225.752
 11
1.7
 21
-226
  0
LINE
  8
0
 10
1.7
 20
-226
 11
1.68187
 21
-226.248
  0
LINE
  8
0
 10
1.68187
 20
-226.248
 11
1.62791
 21
-226.49
  0
LINE
  8
0
 10
1.62791
 20
-226.49
 11
1.53926
 21
-226.722
  0
LINE
  8
0
 10
1.53926
 20
-226.722
 11
1.41779
 21
-226.938
  0
LINE
  8
0
 10
1.41779
 20
-226.938
 11
1.2661
 21
-227.134
  0
LINE
  8
0
 10
1.2661
 20
-227.134
 11
1.08743
 21
-227.307
  0
LINE
  8
0
 10
1.08743
 20
-227.307
 11
0.88559
 21
-227.451
  0
LINE
  8
0
 10
0.88559
 20
-227.451
 11
0.664871
 21
-227.565
  0
LINE
  8
0
 10
0.664871
 20
-227.565
 11
0.429977
 21
-227.645
  0
LINE
  8
0
 10
0.429977
 20
-227.645
 11
0.185928
 21
-227.69
  0
LINE
  8
0
 10
0.185928
 20
-227.69
 11
-0.0620728
 21
-227.699
  0
LINE
  8
0
 10
-0.0620728
 20
-227.699
 11
-0.308777
 21
-227.672
  0
LINE
  8
0
 10
-180.309
 20
-227.672
 11
-180.549
 21
-227.609
  0
LINE
  8
0
 10
-180.549
 20
-227.609
 11
-180.777
 21
-227.512
  0
LINE
  8
0
 10
-180.777
 20
-227.512
 11
-180.989
 21
-227.383
  0
LINE
  8
0
 10
-180.989
 20
-227.383
 11
-181.18
 21
-227.224
  0
LINE
  8
0
 10
-181.18
 20
-227.224
 11
-181.346
 21
-227.039
  0
LINE
  8
0
 10
-181.346
 20
-227.039
 11
-181.482
 21
-226.832
  0
LINE
  8
0
 10
-181.482
 20
-226.832
 11
-181.588
 21
-226.607
  0
LINE
  8
0
 10
-181.588
 20
-226.607
 11
-181.659
 21
-226.37
  0
LINE
  8
0
 10
-181.659
 20
-226.37
 11
-181.695
 21
-226.124
  0
LINE
  8
0
 10
-181.695
 20
-226.124
 11
-181.695
 21
-225.876
  0
LINE
  8
0
 10
-181.695
 20
-225.876
 11
-181.659
 21
-225.63
  0
LINE
  8
0
 10
-181.659
 20
-225.63
 11
-181.588
 21
-225.393
  0
LINE
  8
0
 10
-181.588
 20
-225.393
 11
-181.482
 21
-225.168
  0
LINE
  8
0
 10
-181.482
 20
-225.168
 11
-181.346
 21
-224.961
  0
LINE
  8
0
 10
-181.346
 20
-224.961
 11
-181.18
 21
-224.776
  0
LINE
  8
0
 10
-181.18
 20
-224.776
 11
-180.989
 21
-224.617
  0
LINE
  8
0
 10
-180.989
 20
-224.617
 11
-180.777
 21
-224.488
  0
LINE
  8
0
 10
-180.777
 20
-224.488
 11
-180.549
 21
-224.391
  0
LINE
  8
0
 10
-180.549
 20
-224.391
 11
-180.309
 21
-224.328
  0
LINE
  8
0
 10
-180.309
 20
-224.328
 11
-180.062
 21
-224.301
  0
LINE
  8
0
 10
-180.062
 20
-224.301
 11
-179.814
 21
-224.31
  0
LINE
  8
0
 10
-179.814
 20
-224.31
 11
-179.57
 21
-224.355
  0
LINE
  8
0
 10
-179.57
 20
-224.355
 11
-179.335
 21
-224.435
  0
LINE
  8
0
 10
-179.335
 20
-224.435
 11
-179.114
 21
-224.549
  0
LINE
  8
0
 10
-179.114
 20
-224.549
 11
-178.913
 21
-224.693
  0
LINE
  8
0
 10
-178.913
 20
-224.693
 11
-178.734
 21
-224.866
  0
LINE
  8
0
 10
-178.734
 20
-224.866
 11
-178.582
 21
-225.062
  0
LINE
  8
0
 10
-178.582
 20
-225.062
 11
-178.461
 21
-225.278
  0
LINE
  8
0
 10
-178.461
 20
-225.278
 11
-178.372
 21
-225.51
  0
LINE
  8
0
 10
-178.372
 20
-225.51
 11
-178.318
 21
-225.752
  0
LINE
  8
0
 10
-178.318
 20
-225.752
 11
-178.3
 21
-226
  0
LINE
  8
0
 10
-178.3
 20
-226
 11
-178.318
 21
-226.248
  0
LINE
  8
0
 10
-178.318
 20
-226.248
 11
-178.372
 21
-226.49
  0
LINE
  8
0
 10
-178.372
 20
-226.49
 11
-178.461
 21
-226.722
  0
LINE
  8
0
 10
-178.461
 20
-226.722
 11
-178.582
 21
-226.938
  0
LINE
  8
0
 10
-178.582
 20
-226.938
 11
-178.734
 21
-227.134
  0
LINE
  8
0
 10
-178.734
 20
-227.134
 11
-178.913
 21
-227.307
  0
LINE
  8
0
 10
-178.913
 20
-227.307
 11
-179.114
 21
-227.451
  0
LINE
  8
0
 10
-179.114
 20
-227.451
 11
-179.335
 21
-227.565
  0
LINE
  8
0
 10
-179.335
 20
-227.565
 11
-179.57
 21
-227.645
  0
LINE
  8
0
 10
-179.57
 20
-227.645
 11
-179.814
 21
-227.69
  0
LINE
  8
0
 10
-179.814
 20
-227.69
 11
-180.062
 21
-227.699
  0
LINE
  8
0
 10
-180.062
 20
-227.699
 11
-180.309
 21
-227.672
  0
ENDSEC
  0
SECTION
  2
OBJECTS
  0
DICTIONARY
  0
ENDSEC
  0
EOF
