  0
SECTION
  2
BLOCKS
  0
ENDSEC
  0
SECTION
  2
ENTITIES
  0
LINE
  8
0
 10
226.023
 20
-96.2226
 11
226.54
 21
-96.1407
  0
LINE
  8
0
 10
226.54
 20
-96.1407
 11
227.045
 21
-96.0053
  0
LINE
  8
0
 10
227.045
 20
-96.0053
 11
227.534
 21
-95.8177
  0
LINE
  8
0
 10
227.534
 20
-95.8177
 11
228
 21
-95.5801
  0
LINE
  8
0
 10
228
 20
-95.5801
 11
228.439
 21
-95.2951
  0
LINE
  8
0
 10
228.439
 20
-95.2951
 11
228.846
 21
-94.9657
  0
LINE
  8
0
 10
228.846
 20
-94.9657
 11
229.216
 21
-94.5957
  0
LINE
  8
0
 10
229.216
 20
-94.5957
 11
229.545
 21
-94.1889
  0
LINE
  8
0
 10
229.545
 20
-94.1889
 11
229.83
 21
-93.75
  0
LINE
  8
0
 10
229.83
 20
-93.75
 11
230.068
 21
-93.2837
  0
LINE
  8
0
 10
230.068
 20
-93.2837
 11
230.255
 21
-92.7951
  0
LINE
  8
0
 10
230.255
 20
-92.7951
 11
230.391
 21
-92.2896
  0
LINE
  8
0
 10
230.391
 20
-92.2896
 11
230.473
 21
-91.7726
  0
LINE
  8
0
 10
230.473
 20
-91.7726
 11
230.5
 21
-91.25
  0
LINE
  8
0
 10
230.5
 20
-91.25
 11
230.5
 21
91.25
  0
LINE
  8
0
 10
230.5
 20
91.25
 11
230.473
 21
91.7726
  0
LINE
  8
0
 10
230.473
 20
91.7726
 11
230.391
 21
92.2896
  0
LINE
  8
0
 10
230.391
 20
92.2896
 11
230.255
 21
92.7951
  0
LINE
  8
0
 10
230.255
 20
92.7951
 11
230.068
 21
93.2837
  0
LINE
  8
0
 10
230.068
 20
93.2837
 11
229.83
 21
93.75
  0
LINE
  8
0
 10
229.83
 20
93.75
 11
229.545
 21
94.1889
  0
LINE
  8
0
 10
229.545
 20
94.1889
 11
229.216
 21
94.5957
  0
LINE
  8
0
 10
229.216
 20
94.5957
 11
228.846
 21
94.9657
  0
LINE
  8
0
 10
228.846
 20
94.9657
 11
228.439
 21
95.2951
  0
LINE
  8
0
 10
228.439
 20
95.2951
 11
228
 21
95.5801
  0
LINE
  8
0
 10
228
 20
95.5801
 11
227.534
 21
95.8177
  0
LINE
  8
0
 10
227.534
 20
95.8177
 11
227.045
 21
96.0053
  0
LINE
  8
0
 10
227.045
 20
96.0053
 11
226.54
 21
96.1407
  0
LINE
  8
0
 10
226.54
 20
96.1407
 11
226.023
 21
96.2226
  0
LINE
  8
0
 10
226.023
 20
96.2226
 11
225.5
 21
96.25
  0
LINE
  8
0
 10
225.5
 20
96.25
 11
-225.5
 21
96.25
  0
LINE
  8
0
 10
-225.5
 20
96.25
 11
-226.023
 21
96.2226
  0
LINE
  8
0
 10
-226.023
 20
96.2226
 11
-226.54
 21
96.1407
  0
LINE
  8
0
 10
-226.54
 20
96.1407
 11
-227.045
 21
96.0053
  0
LINE
  8
0
 10
-227.045
 20
96.0053
 11
-227.534
 21
95.8177
  0
LINE
  8
0
 10
-227.534
 20
95.8177
 11
-228
 21
95.5801
  0
LINE
  8
0
 10
-228
 20
95.5801
 11
-228.439
 21
95.2951
  0
LINE
  8
0
 10
-228.439
 20
95.2951
 11
-228.846
 21
94.9657
  0
LINE
  8
0
 10
-228.846
 20
94.9657
 11
-229.216
 21
94.5957
  0
LINE
  8
0
 10
-229.216
 20
94.5957
 11
-229.545
 21
94.1889
  0
LINE
  8
0
 10
-229.545
 20
94.1889
 11
-229.83
 21
93.75
  0
LINE
  8
0
 10
-229.83
 20
93.75
 11
-230.068
 21
93.2837
  0
LINE
  8
0
 10
-230.068
 20
93.2837
 11
-230.255
 21
92.7951
  0
LINE
  8
0
 10
-230.255
 20
92.7951
 11
-230.391
 21
92.2896
  0
LINE
  8
0
 10
-230.391
 20
92.2896
 11
-230.473
 21
91.7726
  0
LINE
  8
0
 10
-230.473
 20
91.7726
 11
-230.5
 21
91.25
  0
LINE
  8
0
 10
-230.5
 20
91.25
 11
-230.5
 21
-91.25
  0
LINE
  8
0
 10
-230.5
 20
-91.25
 11
-230.473
 21
-91.7726
  0
LINE
  8
0
 10
-230.473
 20
-91.7726
 11
-230.391
 21
-92.2896
  0
LINE
  8
0
 10
-230.391
 20
-92.2896
 11
-230.255
 21
-92.7951
  0
LINE
  8
0
 10
-230.255
 20
-92.7951
 11
-230.068
 21
-93.2837
  0
LINE
  8
0
 10
-230.068
 20
-93.2837
 11
-229.83
 21
-93.75
  0
LINE
  8
0
 10
-229.83
 20
-93.75
 11
-229.545
 21
-94.1889
  0
LINE
  8
0
 10
-229.545
 20
-94.1889
 11
-229.216
 21
-94.5957
  0
LINE
  8
0
 10
-229.216
 20
-94.5957
 11
-228.846
 21
-94.9657
  0
LINE
  8
0
 10
-228.846
 20
-94.9657
 11
-228.439
 21
-95.2951
  0
LINE
  8
0
 10
-228.439
 20
-95.2951
 11
-228
 21
-95.5801
  0
LINE
  8
0
 10
-228
 20
-95.5801
 11
-227.534
 21
-95.8177
  0
LINE
  8
0
 10
-227.534
 20
-95.8177
 11
-227.045
 21
-96.0053
  0
LINE
  8
0
 10
-227.045
 20
-96.0053
 11
-226.54
 21
-96.1407
  0
LINE
  8
0
 10
-226.54
 20
-96.1407
 11
-226.023
 21
-96.2226
  0
LINE
  8
0
 10
-226.023
 20
-96.2226
 11
-225.5
 21
-96.25
  0
LINE
  8
0
 10
-225.5
 20
-96.25
 11
225.5
 21
-96.25
  0
LINE
  8
0
 10
225.5
 20
-96.25
 11
226.023
 21
-96.2226
  0
LINE
  8
0
 10
-223.392
 20
85.0205
 11
-223.78
 21
85.0819
  0
LINE
  8
0
 10
-223.78
 20
85.0819
 11
-224.159
 21
85.1835
  0
LINE
  8
0
 10
-224.159
 20
85.1835
 11
-224.525
 21
85.3242
  0
LINE
  8
0
 10
-224.525
 20
85.3242
 11
-224.875
 21
85.5024
  0
LINE
  8
0
 10
-224.875
 20
85.5024
 11
-225.204
 21
85.7162
  0
LINE
  8
0
 10
-225.204
 20
85.7162
 11
-225.509
 21
85.9632
  0
LINE
  8
0
 10
-225.509
 20
85.9632
 11
-225.787
 21
86.2408
  0
LINE
  8
0
 10
-225.787
 20
86.2408
 11
-226.034
 21
86.5458
  0
LINE
  8
0
 10
-226.034
 20
86.5458
 11
-226.248
 21
86.875
  0
LINE
  8
0
 10
-226.248
 20
86.875
 11
-226.426
 21
87.2247
  0
LINE
  8
0
 10
-226.426
 20
87.2247
 11
-226.566
 21
87.5912
  0
LINE
  8
0
 10
-226.566
 20
87.5912
 11
-226.668
 21
87.9703
  0
LINE
  8
0
 10
-226.668
 20
87.9703
 11
-226.729
 21
88.358
  0
LINE
  8
0
 10
-226.729
 20
88.358
 11
-226.75
 21
88.75
  0
LINE
  8
0
 10
-226.75
 20
88.75
 11
-226.729
 21
89.142
  0
LINE
  8
0
 10
-226.729
 20
89.142
 11
-226.668
 21
89.5297
  0
LINE
  8
0
 10
-226.668
 20
89.5297
 11
-226.566
 21
89.9088
  0
LINE
  8
0
 10
-226.566
 20
89.9088
 11
-226.426
 21
90.2753
  0
LINE
  8
0
 10
-226.426
 20
90.2753
 11
-226.248
 21
90.625
  0
LINE
  8
0
 10
-226.248
 20
90.625
 11
-226.034
 21
90.9542
  0
LINE
  8
0
 10
-226.034
 20
90.9542
 11
-225.787
 21
91.2592
  0
LINE
  8
0
 10
-225.787
 20
91.2592
 11
-225.509
 21
91.5368
  0
LINE
  8
0
 10
-225.509
 20
91.5368
 11
-225.204
 21
91.7838
  0
LINE
  8
0
 10
-225.204
 20
91.7838
 11
-224.875
 21
91.9976
  0
LINE
  8
0
 10
-224.875
 20
91.9976
 11
-224.525
 21
92.1758
  0
LINE
  8
0
 10
-224.525
 20
92.1758
 11
-224.159
 21
92.3165
  0
LINE
  8
0
 10
-224.159
 20
92.3165
 11
-223.78
 21
92.418
  0
LINE
  8
0
 10
-223.78
 20
92.418
 11
-223.392
 21
92.4794
  0
LINE
  8
0
 10
-223.392
 20
92.4794
 11
-223
 21
92.5
  0
LINE
  8
0
 10
-223
 20
92.5
 11
-222.608
 21
92.4794
  0
LINE
  8
0
 10
-222.608
 20
92.4794
 11
-222.22
 21
92.418
  0
LINE
  8
0
 10
-222.22
 20
92.418
 11
-221.841
 21
92.3165
  0
LINE
  8
0
 10
-221.841
 20
92.3165
 11
-221.475
 21
92.1758
  0
LINE
  8
0
 10
-221.475
 20
92.1758
 11
-221.125
 21
91.9976
  0
LINE
  8
0
 10
-221.125
 20
91.9976
 11
-220.796
 21
91.7838
  0
LINE
  8
0
 10
-220.796
 20
91.7838
 11
-220.491
 21
91.5368
  0
LINE
  8
0
 10
-220.491
 20
91.5368
 11
-220.213
 21
91.2592
  0
LINE
  8
0
 10
-220.213
 20
91.2592
 11
-219.966
 21
90.9542
  0
LINE
  8
0
 10
-219.966
 20
90.9542
 11
-219.752
 21
90.625
  0
LINE
  8
0
 10
-219.752
 20
90.625
 11
-219.574
 21
90.2753
  0
LINE
  8
0
 10
-219.574
 20
90.2753
 11
-219.434
 21
89.9088
  0
LINE
  8
0
 10
-219.434
 20
89.9088
 11
-219.332
 21
89.5297
  0
LINE
  8
0
 10
-219.332
 20
89.5297
 11
-219.271
 21
89.142
  0
LINE
  8
0
 10
-219.271
 20
89.142
 11
-219.25
 21
88.75
  0
LINE
  8
0
 10
-219.25
 20
88.75
 11
-219.271
 21
88.358
  0
LINE
  8
0
 10
-219.271
 20
88.358
 11
-219.332
 21
87.9703
  0
LINE
  8
0
 10
-219.332
 20
87.9703
 11
-219.434
 21
87.5912
  0
LINE
  8
0
 10
-219.434
 20
87.5912
 11
-219.574
 21
87.2247
  0
LINE
  8
0
 10
-219.574
 20
87.2247
 11
-219.752
 21
86.875
  0
LINE
  8
0
 10
-219.752
 20
86.875
 11
-219.966
 21
86.5458
  0
LINE
  8
0
 10
-219.966
 20
86.5458
 11
-220.213
 21
86.2408
  0
LINE
  8
0
 10
-220.213
 20
86.2408
 11
-220.491
 21
85.9632
  0
LINE
  8
0
 10
-220.491
 20
85.9632
 11
-220.796
 21
85.7162
  0
LINE
  8
0
 10
-220.796
 20
85.7162
 11
-221.125
 21
85.5024
  0
LINE
  8
0
 10
-221.125
 20
85.5024
 11
-221.475
 21
85.3242
  0
LINE
  8
0
 10
-221.475
 20
85.3242
 11
-221.841
 21
85.1835
  0
LINE
  8
0
 10
-221.841
 20
85.1835
 11
-222.22
 21
85.0819
  0
LINE
  8
0
 10
-222.22
 20
85.0819
 11
-222.608
 21
85.0205
  0
LINE
  8
0
 10
-222.608
 20
85.0205
 11
-223
 21
85
  0
LINE
  8
0
 10
-223
 20
85
 11
-223.392
 21
85.0205
  0
LINE
  8
0
 10
222.608
 20
85.0205
 11
222.22
 21
85.0819
  0
LINE
  8
0
 10
222.22
 20
85.0819
 11
221.841
 21
85.1835
  0
LINE
  8
0
 10
221.841
 20
85.1835
 11
221.475
 21
85.3242
  0
LINE
  8
0
 10
221.475
 20
85.3242
 11
221.125
 21
85.5024
  0
LINE
  8
0
 10
221.125
 20
85.5024
 11
220.796
 21
85.7162
  0
LINE
  8
0
 10
220.796
 20
85.7162
 11
220.491
 21
85.9632
  0
LINE
  8
0
 10
220.491
 20
85.9632
 11
220.213
 21
86.2408
  0
LINE
  8
0
 10
220.213
 20
86.2408
 11
219.966
 21
86.5458
  0
LINE
  8
0
 10
219.966
 20
86.5458
 11
219.752
 21
86.875
  0
LINE
  8
0
 10
219.752
 20
86.875
 11
219.574
 21
87.2247
  0
LINE
  8
0
 10
219.574
 20
87.2247
 11
219.434
 21
87.5912
  0
LINE
  8
0
 10
219.434
 20
87.5912
 11
219.332
 21
87.9703
  0
LINE
  8
0
 10
219.332
 20
87.9703
 11
219.271
 21
88.358
  0
LINE
  8
0
 10
219.271
 20
88.358
 11
219.25
 21
88.75
  0
LINE
  8
0
 10
219.25
 20
88.75
 11
219.271
 21
89.142
  0
LINE
  8
0
 10
219.271
 20
89.142
 11
219.332
 21
89.5297
  0
LINE
  8
0
 10
219.332
 20
89.5297
 11
219.434
 21
89.9088
  0
LINE
  8
0
 10
219.434
 20
89.9088
 11
219.574
 21
90.2753
  0
LINE
  8
0
 10
219.574
 20
90.2753
 11
219.752
 21
90.625
  0
LINE
  8
0
 10
219.752
 20
90.625
 11
219.966
 21
90.9542
  0
LINE
  8
0
 10
219.966
 20
90.9542
 11
220.213
 21
91.2592
  0
LINE
  8
0
 10
220.213
 20
91.2592
 11
220.491
 21
91.5368
  0
LINE
  8
0
 10
220.491
 20
91.5368
 11
220.796
 21
91.7838
  0
LINE
  8
0
 10
220.796
 20
91.7838
 11
221.125
 21
91.9976
  0
LINE
  8
0
 10
221.125
 20
91.9976
 11
221.475
 21
92.1758
  0
LINE
  8
0
 10
221.475
 20
92.1758
 11
221.841
 21
92.3165
  0
LINE
  8
0
 10
221.841
 20
92.3165
 11
222.22
 21
92.418
  0
LINE
  8
0
 10
222.22
 20
92.418
 11
222.608
 21
92.4794
  0
LINE
  8
0
 10
222.608
 20
92.4794
 11
223
 21
92.5
  0
LINE
  8
0
 10
223
 20
92.5
 11
223.392
 21
92.4794
  0
LINE
  8
0
 10
223.392
 20
92.4794
 11
223.78
 21
92.418
  0
LINE
  8
0
 10
223.78
 20
92.418
 11
224.159
 21
92.3165
  0
LINE
  8
0
 10
224.159
 20
92.3165
 11
224.525
 21
92.1758
  0
LINE
  8
0
 10
224.525
 20
92.1758
 11
224.875
 21
91.9976
  0
LINE
  8
0
 10
224.875
 20
91.9976
 11
225.204
 21
91.7838
  0
LINE
  8
0
 10
225.204
 20
91.7838
 11
225.509
 21
91.5368
  0
LINE
  8
0
 10
225.509
 20
91.5368
 11
225.787
 21
91.2592
  0
LINE
  8
0
 10
225.787
 20
91.2592
 11
226.034
 21
90.9542
  0
LINE
  8
0
 10
226.034
 20
90.9542
 11
226.248
 21
90.625
  0
LINE
  8
0
 10
226.248
 20
90.625
 11
226.426
 21
90.2753
  0
LINE
  8
0
 10
226.426
 20
90.2753
 11
226.566
 21
89.9088
  0
LINE
  8
0
 10
226.566
 20
89.9088
 11
226.668
 21
89.5297
  0
LINE
  8
0
 10
226.668
 20
89.5297
 11
226.729
 21
89.142
  0
LINE
  8
0
 10
226.729
 20
89.142
 11
226.75
 21
88.75
  0
LINE
  8
0
 10
226.75
 20
88.75
 11
226.729
 21
88.358
  0
LINE
  8
0
 10
226.729
 20
88.358
 11
226.668
 21
87.9703
  0
LINE
  8
0
 10
226.668
 20
87.9703
 11
226.566
 21
87.5912
  0
LINE
  8
0
 10
226.566
 20
87.5912
 11
226.426
 21
87.2247
  0
LINE
  8
0
 10
226.426
 20
87.2247
 11
226.248
 21
86.875
  0
LINE
  8
0
 10
226.248
 20
86.875
 11
226.034
 21
86.5458
  0
LINE
  8
0
 10
226.034
 20
86.5458
 11
225.787
 21
86.2408
  0
LINE
  8
0
 10
225.787
 20
86.2408
 11
225.509
 21
85.9632
  0
LINE
  8
0
 10
225.509
 20
85.9632
 11
225.204
 21
85.7162
  0
LINE
  8
0
 10
225.204
 20
85.7162
 11
224.875
 21
85.5024
  0
LINE
  8
0
 10
224.875
 20
85.5024
 11
224.525
 21
85.3242
  0
LINE
  8
0
 10
224.525
 20
85.3242
 11
224.159
 21
85.1835
  0
LINE
  8
0
 10
224.159
 20
85.1835
 11
223.78
 21
85.0819
  0
LINE
  8
0
 10
223.78
 20
85.0819
 11
223.392
 21
85.0205
  0
LINE
  8
0
 10
223.392
 20
85.0205
 11
223
 21
85
  0
LINE
  8
0
 10
223
 20
85
 11
222.608
 21
85.0205
  0
LINE
  8
0
 10
-0.308777
 20
87.0783
 11
-0.548889
 21
87.1411
  0
LINE
  8
0
 10
-0.548889
 20
87.1411
 11
-0.777298
 21
87.2381
  0
LINE
  8
0
 10
-0.777298
 20
87.2381
 11
-0.989151
 21
87.3674
  0
LINE
  8
0
 10
-0.989151
 20
87.3674
 11
-1.17992
 21
87.5262
  0
LINE
  8
0
 10
-1.17992
 20
87.5262
 11
-1.34554
 21
87.711
  0
LINE
  8
0
 10
-1.34554
 20
87.711
 11
-1.48248
 21
87.918
  0
LINE
  8
0
 10
-1.48248
 20
87.918
 11
-1.58781
 21
88.1427
  0
LINE
  8
0
 10
-1.58781
 20
88.1427
 11
-1.65932
 21
88.3804
  0
LINE
  8
0
 10
-1.65932
 20
88.3804
 11
-1.69545
 21
88.6259
  0
LINE
  8
0
 10
-1.69545
 20
88.6259
 11
-1.69545
 21
88.8741
  0
LINE
  8
0
 10
-1.69545
 20
88.8741
 11
-1.65932
 21
89.1196
  0
LINE
  8
0
 10
-1.65932
 20
89.1196
 11
-1.58781
 21
89.3573
  0
LINE
  8
0
 10
-1.58781
 20
89.3573
 11
-1.48248
 21
89.582
  0
LINE
  8
0
 10
-1.48248
 20
89.582
 11
-1.34554
 21
89.789
  0
LINE
  8
0
 10
-1.34554
 20
89.789
 11
-1.17992
 21
89.9738
  0
LINE
  8
0
 10
-1.17992
 20
89.9738
 11
-0.989151
 21
90.1326
  0
LINE
  8
0
 10
-0.989151
 20
90.1326
 11
-0.777298
 21
90.2619
  0
LINE
  8
0
 10
-0.777298
 20
90.2619
 11
-0.548889
 21
90.3589
  0
LINE
  8
0
 10
-0.548889
 20
90.3589
 11
-0.308777
 21
90.4217
  0
LINE
  8
0
 10
-0.308777
 20
90.4217
 11
-0.0620728
 21
90.4489
  0
LINE
  8
0
 10
-0.0620728
 20
90.4489
 11
0.185928
 21
90.4398
  0
LINE
  8
0
 10
0.185928
 20
90.4398
 11
0.429977
 21
90.3947
  0
LINE
  8
0
 10
0.429977
 20
90.3947
 11
0.664871
 21
90.3146
  0
LINE
  8
0
 10
0.664871
 20
90.3146
 11
0.88559
 21
90.2011
  0
LINE
  8
0
 10
0.88559
 20
90.2011
 11
1.08743
 21
90.0567
  0
LINE
  8
0
 10
1.08743
 20
90.0567
 11
1.2661
 21
89.8844
  0
LINE
  8
0
 10
1.2661
 20
89.8844
 11
1.41779
 21
89.688
  0
LINE
  8
0
 10
1.41779
 20
89.688
 11
1.53926
 21
89.4716
  0
LINE
  8
0
 10
1.53926
 20
89.4716
 11
1.62791
 21
89.2398
  0
LINE
  8
0
 10
1.62791
 20
89.2398
 11
1.68187
 21
88.9975
  0
LINE
  8
0
 10
1.68187
 20
88.9975
 11
1.7
 21
88.75
  0
LINE
  8
0
 10
1.7
 20
88.75
 11
1.68187
 21
88.5025
  0
LINE
  8
0
 10
1.68187
 20
88.5025
 11
1.62791
 21
88.2602
  0
LINE
  8
0
 10
1.62791
 20
88.2602
 11
1.53926
 21
88.0284
  0
LINE
  8
0
 10
1.53926
 20
88.0284
 11
1.41779
 21
87.812
  0
LINE
  8
0
 10
1.41779
 20
87.812
 11
1.2661
 21
87.6156
  0
LINE
  8
0
 10
1.2661
 20
87.6156
 11
1.08743
 21
87.4433
  0
LINE
  8
0
 10
1.08743
 20
87.4433
 11
0.88559
 21
87.2989
  0
LINE
  8
0
 10
0.88559
 20
87.2989
 11
0.664871
 21
87.1854
  0
LINE
  8
0
 10
0.664871
 20
87.1854
 11
0.429977
 21
87.1053
  0
LINE
  8
0
 10
0.429977
 20
87.1053
 11
0.185928
 21
87.0602
  0
LINE
  8
0
 10
0.185928
 20
87.0602
 11
-0.0620728
 21
87.0511
  0
LINE
  8
0
 10
-0.0620728
 20
87.0511
 11
-0.308777
 21
87.0783
  0
LINE
  8
0
 10
89.9412
 20
87.0783
 11
89.7011
 21
87.1411
  0
LINE
  8
0
 10
89.7011
 20
87.1411
 11
89.4727
 21
87.2381
  0
LINE
  8
0
 10
89.4727
 20
87.2381
 11
89.2608
 21
87.3674
  0
LINE
  8
0
 10
89.2608
 20
87.3674
 11
89.0701
 21
87.5262
  0
LINE
  8
0
 10
89.0701
 20
87.5262
 11
88.9044
 21
87.711
  0
LINE
  8
0
 10
88.9044
 20
87.711
 11
88.7675
 21
87.918
  0
LINE
  8
0
 10
88.7675
 20
87.918
 11
88.6622
 21
88.1427
  0
LINE
  8
0
 10
88.6622
 20
88.1427
 11
88.5907
 21
88.3804
  0
LINE
  8
0
 10
88.5907
 20
88.3804
 11
88.5545
 21
88.6259
  0
LINE
  8
0
 10
88.5545
 20
88.6259
 11
88.5545
 21
88.8741
  0
LINE
  8
0
 10
88.5545
 20
88.8741
 11
88.5907
 21
89.1196
  0
LINE
  8
0
 10
88.5907
 20
89.1196
 11
88.6622
 21
89.3573
  0
LINE
  8
0
 10
88.6622
 20
89.3573
 11
88.7675
 21
89.582
  0
LINE
  8
0
 10
88.7675
 20
89.582
 11
88.9044
 21
89.789
  0
LINE
  8
0
 10
88.9044
 20
89.789
 11
89.0701
 21
89.9738
  0
LINE
  8
0
 10
89.0701
 20
89.9738
 11
89.2608
 21
90.1326
  0
LINE
  8
0
 10
89.2608
 20
90.1326
 11
89.4727
 21
90.2619
  0
LINE
  8
0
 10
89.4727
 20
90.2619
 11
89.7011
 21
90.3589
  0
LINE
  8
0
 10
89.7011
 20
90.3589
 11
89.9412
 21
90.4217
  0
LINE
  8
0
 10
89.9412
 20
90.4217
 11
90.1879
 21
90.4489
  0
LINE
  8
0
 10
90.1879
 20
90.4489
 11
90.4359
 21
90.4398
  0
LINE
  8
0
 10
90.4359
 20
90.4398
 11
90.68
 21
90.3947
  0
LINE
  8
0
 10
90.68
 20
90.3947
 11
90.9149
 21
90.3146
  0
LINE
  8
0
 10
90.9149
 20
90.3146
 11
91.1356
 21
90.2011
  0
LINE
  8
0
 10
91.1356
 20
90.2011
 11
91.3374
 21
90.0567
  0
LINE
  8
0
 10
91.3374
 20
90.0567
 11
91.5161
 21
89.8844
  0
LINE
  8
0
 10
91.5161
 20
89.8844
 11
91.6678
 21
89.688
  0
LINE
  8
0
 10
91.6678
 20
89.688
 11
91.7893
 21
89.4716
  0
LINE
  8
0
 10
91.7893
 20
89.4716
 11
91.8779
 21
89.2398
  0
LINE
  8
0
 10
91.8779
 20
89.2398
 11
91.9319
 21
88.9975
  0
LINE
  8
0
 10
91.9319
 20
88.9975
 11
91.95
 21
88.75
  0
LINE
  8
0
 10
91.95
 20
88.75
 11
91.9319
 21
88.5025
  0
LINE
  8
0
 10
91.9319
 20
88.5025
 11
91.8779
 21
88.2602
  0
LINE
  8
0
 10
91.8779
 20
88.2602
 11
91.7893
 21
88.0284
  0
LINE
  8
0
 10
91.7893
 20
88.0284
 11
91.6678
 21
87.812
  0
LINE
  8
0
 10
91.6678
 20
87.812
 11
91.5161
 21
87.6156
  0
LINE
  8
0
 10
91.5161
 20
87.6156
 11
91.3374
 21
87.4433
  0
LINE
  8
0
 10
91.3374
 20
87.4433
 11
91.1356
 21
87.2989
  0
LINE
  8
0
 10
91.1356
 20
87.2989
 11
90.9149
 21
87.1854
  0
LINE
  8
0
 10
90.9149
 20
87.1854
 11
90.68
 21
87.1053
  0
LINE
  8
0
 10
90.68
 20
87.1053
 11
90.4359
 21
87.0602
  0
LINE
  8
0
 10
90.4359
 20
87.0602
 11
90.1879
 21
87.0511
  0
LINE
  8
0
 10
90.1879
 20
87.0511
 11
89.9412
 21
87.0783
  0
LINE
  8
0
 10
-180.809
 20
87.0783
 11
-181.049
 21
87.1411
  0
LINE
  8
0
 10
-181.049
 20
87.1411
 11
-181.277
 21
87.2381
  0
LINE
  8
0
 10
-181.277
 20
87.2381
 11
-181.489
 21
87.3674
  0
LINE
  8
0
 10
-181.489
 20
87.3674
 11
-181.68
 21
87.5262
  0
LINE
  8
0
 10
-181.68
 20
87.5262
 11
-181.846
 21
87.711
  0
LINE
  8
0
 10
-181.846
 20
87.711
 11
-181.982
 21
87.918
  0
LINE
  8
0
 10
-181.982
 20
87.918
 11
-182.088
 21
88.1427
  0
LINE
  8
0
 10
-182.088
 20
88.1427
 11
-182.159
 21
88.3804
  0
LINE
  8
0
 10
-182.159
 20
88.3804
 11
-182.195
 21
88.6259
  0
LINE
  8
0
 10
-182.195
 20
88.6259
 11
-182.195
 21
88.8741
  0
LINE
  8
0
 10
-182.195
 20
88.8741
 11
-182.159
 21
89.1196
  0
LINE
  8
0
 10
-182.159
 20
89.1196
 11
-182.088
 21
89.3573
  0
LINE
  8
0
 10
-182.088
 20
89.3573
 11
-181.982
 21
89.582
  0
LINE
  8
0
 10
-181.982
 20
89.582
 11
-181.846
 21
89.789
  0
LINE
  8
0
 10
-181.846
 20
89.789
 11
-181.68
 21
89.9738
  0
LINE
  8
0
 10
-181.68
 20
89.9738
 11
-181.489
 21
90.1326
  0
LINE
  8
0
 10
-181.489
 20
90.1326
 11
-181.277
 21
90.2619
  0
LINE
  8
0
 10
-181.277
 20
90.2619
 11
-181.049
 21
90.3589
  0
LINE
  8
0
 10
-181.049
 20
90.3589
 11
-180.809
 21
90.4217
  0
LINE
  8
0
 10
-180.809
 20
90.4217
 11
-180.562
 21
90.4489
  0
LINE
  8
0
 10
-180.562
 20
90.4489
 11
-180.314
 21
90.4398
  0
LINE
  8
0
 10
-180.314
 20
90.4398
 11
-180.07
 21
90.3947
  0
LINE
  8
0
 10
-180.07
 20
90.3947
 11
-179.835
 21
90.3146
  0
LINE
  8
0
 10
-179.835
 20
90.3146
 11
-179.614
 21
90.2011
  0
LINE
  8
0
 10
-179.614
 20
90.2011
 11
-179.413
 21
90.0567
  0
LINE
  8
0
 10
-179.413
 20
90.0567
 11
-179.234
 21
89.8844
  0
LINE
  8
0
 10
-179.234
 20
89.8844
 11
-179.082
 21
89.688
  0
LINE
  8
0
 10
-179.082
 20
89.688
 11
-178.961
 21
89.4716
  0
LINE
  8
0
 10
-178.961
 20
89.4716
 11
-178.872
 21
89.2398
  0
LINE
  8
0
 10
-178.872
 20
89.2398
 11
-178.818
 21
88.9975
  0
LINE
  8
0
 10
-178.818
 20
88.9975
 11
-178.8
 21
88.75
  0
LINE
  8
0
 10
-178.8
 20
88.75
 11
-178.818
 21
88.5025
  0
LINE
  8
0
 10
-178.818
 20
88.5025
 11
-178.872
 21
88.2602
  0
LINE
  8
0
 10
-178.872
 20
88.2602
 11
-178.961
 21
88.0284
  0
LINE
  8
0
 10
-178.961
 20
88.0284
 11
-179.082
 21
87.812
  0
LINE
  8
0
 10
-179.082
 20
87.812
 11
-179.234
 21
87.6156
  0
LINE
  8
0
 10
-179.234
 20
87.6156
 11
-179.413
 21
87.4433
  0
LINE
  8
0
 10
-179.413
 20
87.4433
 11
-179.614
 21
87.2989
  0
LINE
  8
0
 10
-179.614
 20
87.2989
 11
-179.835
 21
87.1854
  0
LINE
  8
0
 10
-179.835
 20
87.1854
 11
-180.07
 21
87.1053
  0
LINE
  8
0
 10
-180.07
 20
87.1053
 11
-180.314
 21
87.0602
  0
LINE
  8
0
 10
-180.314
 20
87.0602
 11
-180.562
 21
87.0511
  0
LINE
  8
0
 10
-180.562
 20
87.0511
 11
-180.809
 21
87.0783
  0
LINE
  8
0
 10
180.191
 20
87.0783
 11
179.951
 21
87.1411
  0
LINE
  8
0
 10
179.951
 20
87.1411
 11
179.723
 21
87.2381
  0
LINE
  8
0
 10
179.723
 20
87.2381
 11
179.511
 21
87.3674
  0
LINE
  8
0
 10
179.511
 20
87.3674
 11
179.32
 21
87.5262
  0
LINE
  8
0
 10
179.32
 20
87.5262
 11
179.154
 21
87.711
  0
LINE
  8
0
 10
179.154
 20
87.711
 11
179.018
 21
87.918
  0
LINE
  8
0
 10
179.018
 20
87.918
 11
178.912
 21
88.1427
  0
LINE
  8
0
 10
178.912
 20
88.1427
 11
178.841
 21
88.3804
  0
LINE
  8
0
 10
178.841
 20
88.3804
 11
178.805
 21
88.6259
  0
LINE
  8
0
 10
178.805
 20
88.6259
 11
178.805
 21
88.8741
  0
LINE
  8
0
 10
178.805
 20
88.8741
 11
178.841
 21
89.1196
  0
LINE
  8
0
 10
178.841
 20
89.1196
 11
178.912
 21
89.3573
  0
LINE
  8
0
 10
178.912
 20
89.3573
 11
179.018
 21
89.582
  0
LINE
  8
0
 10
179.018
 20
89.582
 11
179.154
 21
89.789
  0
LINE
  8
0
 10
179.154
 20
89.789
 11
179.32
 21
89.9738
  0
LINE
  8
0
 10
179.32
 20
89.9738
 11
179.511
 21
90.1326
  0
LINE
  8
0
 10
179.511
 20
90.1326
 11
179.723
 21
90.2619
  0
LINE
  8
0
 10
179.723
 20
90.2619
 11
179.951
 21
90.3589
  0
LINE
  8
0
 10
179.951
 20
90.3589
 11
180.191
 21
90.4217
  0
LINE
  8
0
 10
180.191
 20
90.4217
 11
180.438
 21
90.4489
  0
LINE
  8
0
 10
180.438
 20
90.4489
 11
180.686
 21
90.4398
  0
LINE
  8
0
 10
180.686
 20
90.4398
 11
180.93
 21
90.3947
  0
LINE
  8
0
 10
180.93
 20
90.3947
 11
181.165
 21
90.3146
  0
LINE
  8
0
 10
181.165
 20
90.3146
 11
181.386
 21
90.2011
  0
LINE
  8
0
 10
181.386
 20
90.2011
 11
181.587
 21
90.0567
  0
LINE
  8
0
 10
181.587
 20
90.0567
 11
181.766
 21
89.8844
  0
LINE
  8
0
 10
181.766
 20
89.8844
 11
181.918
 21
89.688
  0
LINE
  8
0
 10
181.918
 20
89.688
 11
182.039
 21
89.4716
  0
LINE
  8
0
 10
182.039
 20
89.4716
 11
182.128
 21
89.2398
  0
LINE
  8
0
 10
182.128
 20
89.2398
 11
182.182
 21
88.9975
  0
LINE
  8
0
 10
182.182
 20
88.9975
 11
182.2
 21
88.75
  0
LINE
  8
0
 10
182.2
 20
88.75
 11
182.182
 21
88.5025
  0
LINE
  8
0
 10
182.182
 20
88.5025
 11
182.128
 21
88.2602
  0
LINE
  8
0
 10
182.128
 20
88.2602
 11
182.039
 21
88.0284
  0
LINE
  8
0
 10
182.039
 20
88.0284
 11
181.918
 21
87.812
  0
LINE
  8
0
 10
181.918
 20
87.812
 11
181.766
 21
87.6156
  0
LINE
  8
0
 10
181.766
 20
87.6156
 11
181.587
 21
87.4433
  0
LINE
  8
0
 10
181.587
 20
87.4433
 11
181.386
 21
87.2989
  0
LINE
  8
0
 10
181.386
 20
87.2989
 11
181.165
 21
87.1854
  0
LINE
  8
0
 10
181.165
 20
87.1854
 11
180.93
 21
87.1053
  0
LINE
  8
0
 10
180.93
 20
87.1053
 11
180.686
 21
87.0602
  0
LINE
  8
0
 10
180.686
 20
87.0602
 11
180.438
 21
87.0511
  0
LINE
  8
0
 10
180.438
 20
87.0511
 11
180.191
 21
87.0783
  0
LINE
  8
0
 10
-90.5588
 20
87.0783
 11
-90.7989
 21
87.1411
  0
LINE
  8
0
 10
-90.7989
 20
87.1411
 11
-91.0273
 21
87.2381
  0
LINE
  8
0
 10
-91.0273
 20
87.2381
 11
-91.2392
 21
87.3674
  0
LINE
  8
0
 10
-91.2392
 20
87.3674
 11
-91.4299
 21
87.5262
  0
LINE
  8
0
 10
-91.4299
 20
87.5262
 11
-91.5955
 21
87.711
  0
LINE
  8
0
 10
-91.5955
 20
87.711
 11
-91.7325
 21
87.918
  0
LINE
  8
0
 10
-91.7325
 20
87.918
 11
-91.8378
 21
88.1427
  0
LINE
  8
0
 10
-91.8378
 20
88.1427
 11
-91.9093
 21
88.3804
  0
LINE
  8
0
 10
-91.9093
 20
88.3804
 11
-91.9455
 21
88.6259
  0
LINE
  8
0
 10
-91.9455
 20
88.6259
 11
-91.9455
 21
88.8741
  0
LINE
  8
0
 10
-91.9455
 20
88.8741
 11
-91.9093
 21
89.1196
  0
LINE
  8
0
 10
-91.9093
 20
89.1196
 11
-91.8378
 21
89.3573
  0
LINE
  8
0
 10
-91.8378
 20
89.3573
 11
-91.7325
 21
89.582
  0
LINE
  8
0
 10
-91.7325
 20
89.582
 11
-91.5955
 21
89.789
  0
LINE
  8
0
 10
-91.5955
 20
89.789
 11
-91.4299
 21
89.9738
  0
LINE
  8
0
 10
-91.4299
 20
89.9738
 11
-91.2392
 21
90.1326
  0
LINE
  8
0
 10
-91.2392
 20
90.1326
 11
-91.0273
 21
90.2619
  0
LINE
  8
0
 10
-91.0273
 20
90.2619
 11
-90.7989
 21
90.3589
  0
LINE
  8
0
 10
-90.7989
 20
90.3589
 11
-90.5588
 21
90.4217
  0
LINE
  8
0
 10
-90.5588
 20
90.4217
 11
-90.3121
 21
90.4489
  0
LINE
  8
0
 10
-90.3121
 20
90.4489
 11
-90.0641
 21
90.4398
  0
LINE
  8
0
 10
-90.0641
 20
90.4398
 11
-89.82
 21
90.3947
  0
LINE
  8
0
 10
-89.82
 20
90.3947
 11
-89.5851
 21
90.3146
  0
LINE
  8
0
 10
-89.5851
 20
90.3146
 11
-89.3644
 21
90.2011
  0
LINE
  8
0
 10
-89.3644
 20
90.2011
 11
-89.1626
 21
90.0567
  0
LINE
  8
0
 10
-89.1626
 20
90.0567
 11
-88.9839
 21
89.8844
  0
LINE
  8
0
 10
-88.9839
 20
89.8844
 11
-88.8322
 21
89.688
  0
LINE
  8
0
 10
-88.8322
 20
89.688
 11
-88.7107
 21
89.4716
  0
LINE
  8
0
 10
-88.7107
 20
89.4716
 11
-88.6221
 21
89.2398
  0
LINE
  8
0
 10
-88.6221
 20
89.2398
 11
-88.5681
 21
88.9975
  0
LINE
  8
0
 10
-88.5681
 20
88.9975
 11
-88.55
 21
88.75
  0
LINE
  8
0
 10
-88.55
 20
88.75
 11
-88.5681
 21
88.5025
  0
LINE
  8
0
 10
-88.5681
 20
88.5025
 11
-88.6221
 21
88.2602
  0
LINE
  8
0
 10
-88.6221
 20
88.2602
 11
-88.7107
 21
88.0284
  0
LINE
  8
0
 10
-88.7107
 20
88.0284
 11
-88.8322
 21
87.812
  0
LINE
  8
0
 10
-88.8322
 20
87.812
 11
-88.9839
 21
87.6156
  0
LINE
  8
0
 10
-88.9839
 20
87.6156
 11
-89.1626
 21
87.4433
  0
LINE
  8
0
 10
-89.1626
 20
87.4433
 11
-89.3644
 21
87.2989
  0
LINE
  8
0
 10
-89.3644
 20
87.2989
 11
-89.5851
 21
87.1854
  0
LINE
  8
0
 10
-89.5851
 20
87.1854
 11
-89.82
 21
87.1053
  0
LINE
  8
0
 10
-89.82
 20
87.1053
 11
-90.0641
 21
87.0602
  0
LINE
  8
0
 10
-90.0641
 20
87.0602
 11
-90.3121
 21
87.0511
  0
LINE
  8
0
 10
-90.3121
 20
87.0511
 11
-90.5588
 21
87.0783
  0
LINE
  8
0
 10
222.691
 20
44.5783
 11
222.451
 21
44.6411
  0
LINE
  8
0
 10
222.451
 20
44.6411
 11
222.223
 21
44.7381
  0
LINE
  8
0
 10
222.223
 20
44.7381
 11
222.011
 21
44.8674
  0
LINE
  8
0
 10
222.011
 20
44.8674
 11
221.82
 21
45.0262
  0
LINE
  8
0
 10
221.82
 20
45.0262
 11
221.654
 21
45.211
  0
LINE
  8
0
 10
221.654
 20
45.211
 11
221.518
 21
45.418
  0
LINE
  8
0
 10
221.518
 20
45.418
 11
221.412
 21
45.6427
  0
LINE
  8
0
 10
221.412
 20
45.6427
 11
221.341
 21
45.8804
  0
LINE
  8
0
 10
221.341
 20
45.8804
 11
221.305
 21
46.1259
  0
LINE
  8
0
 10
221.305
 20
46.1259
 11
221.305
 21
46.3741
  0
LINE
  8
0
 10
221.305
 20
46.3741
 11
221.341
 21
46.6196
  0
LINE
  8
0
 10
221.341
 20
46.6196
 11
221.412
 21
46.8573
  0
LINE
  8
0
 10
221.412
 20
46.8573
 11
221.518
 21
47.082
  0
LINE
  8
0
 10
221.518
 20
47.082
 11
221.654
 21
47.289
  0
LINE
  8
0
 10
221.654
 20
47.289
 11
221.82
 21
47.4738
  0
LINE
  8
0
 10
221.82
 20
47.4738
 11
222.011
 21
47.6326
  0
LINE
  8
0
 10
222.011
 20
47.6326
 11
222.223
 21
47.7619
  0
LINE
  8
0
 10
222.223
 20
47.7619
 11
222.451
 21
47.8589
  0
LINE
  8
0
 10
222.451
 20
47.8589
 11
222.691
 21
47.9217
  0
LINE
  8
0
 10
222.691
 20
47.9217
 11
222.938
 21
47.9489
  0
LINE
  8
0
 10
222.938
 20
47.9489
 11
223.186
 21
47.9398
  0
LINE
  8
0
 10
223.186
 20
47.9398
 11
223.43
 21
47.8947
  0
LINE
  8
0
 10
223.43
 20
47.8947
 11
223.665
 21
47.8146
  0
LINE
  8
0
 10
223.665
 20
47.8146
 11
223.886
 21
47.7011
  0
LINE
  8
0
 10
223.886
 20
47.7011
 11
224.087
 21
47.5567
  0
LINE
  8
0
 10
224.087
 20
47.5567
 11
224.266
 21
47.3844
  0
LINE
  8
0
 10
224.266
 20
47.3844
 11
224.418
 21
47.188
  0
LINE
  8
0
 10
224.418
 20
47.188
 11
224.539
 21
46.9716
  0
LINE
  8
0
 10
224.539
 20
46.9716
 11
224.628
 21
46.7398
  0
LINE
  8
0
 10
224.628
 20
46.7398
 11
224.682
 21
46.4975
  0
LINE
  8
0
 10
224.682
 20
46.4975
 11
224.7
 21
46.25
  0
LINE
  8
0
 10
224.7
 20
46.25
 11
224.682
 21
46.0025
  0
LINE
  8
0
 10
224.682
 20
46.0025
 11
224.628
 21
45.7602
  0
LINE
  8
0
 10
224.628
 20
45.7602
 11
224.539
 21
45.5284
  0
LINE
  8
0
 10
224.539
 20
45.5284
 11
224.418
 21
45.312
  0
LINE
  8
0
 10
224.418
 20
45.312
 11
224.266
 21
45.1156
  0
LINE
  8
0
 10
224.266
 20
45.1156
 11
224.087
 21
44.9433
  0
LINE
  8
0
 10
224.087
 20
44.9433
 11
223.886
 21
44.7989
  0
LINE
  8
0
 10
223.886
 20
44.7989
 11
223.665
 21
44.6854
  0
LINE
  8
0
 10
223.665
 20
44.6854
 11
223.43
 21
44.6053
  0
LINE
  8
0
 10
223.43
 20
44.6053
 11
223.186
 21
44.5602
  0
LINE
  8
0
 10
223.186
 20
44.5602
 11
222.938
 21
44.5511
  0
LINE
  8
0
 10
222.938
 20
44.5511
 11
222.691
 21
44.5783
  0
LINE
  8
0
 10
-223.186
 20
44.5602
 11
-223.43
 21
44.6053
  0
LINE
  8
0
 10
-223.43
 20
44.6053
 11
-223.665
 21
44.6854
  0
LINE
  8
0
 10
-223.665
 20
44.6854
 11
-223.886
 21
44.7989
  0
LINE
  8
0
 10
-223.886
 20
44.7989
 11
-224.087
 21
44.9433
  0
LINE
  8
0
 10
-224.087
 20
44.9433
 11
-224.266
 21
45.1156
  0
LINE
  8
0
 10
-224.266
 20
45.1156
 11
-224.418
 21
45.312
  0
LINE
  8
0
 10
-224.418
 20
45.312
 11
-224.539
 21
45.5284
  0
LINE
  8
0
 10
-224.539
 20
45.5284
 11
-224.628
 21
45.7602
  0
LINE
  8
0
 10
-224.628
 20
45.7602
 11
-224.682
 21
46.0025
  0
LINE
  8
0
 10
-224.682
 20
46.0025
 11
-224.7
 21
46.25
  0
LINE
  8
0
 10
-224.7
 20
46.25
 11
-224.682
 21
46.4975
  0
LINE
  8
0
 10
-224.682
 20
46.4975
 11
-224.628
 21
46.7398
  0
LINE
  8
0
 10
-224.628
 20
46.7398
 11
-224.539
 21
46.9716
  0
LINE
  8
0
 10
-224.539
 20
46.9716
 11
-224.418
 21
47.188
  0
LINE
  8
0
 10
-224.418
 20
47.188
 11
-224.266
 21
47.3844
  0
LINE
  8
0
 10
-224.266
 20
47.3844
 11
-224.087
 21
47.5567
  0
LINE
  8
0
 10
-224.087
 20
47.5567
 11
-223.886
 21
47.7011
  0
LINE
  8
0
 10
-223.886
 20
47.7011
 11
-223.665
 21
47.8146
  0
LINE
  8
0
 10
-223.665
 20
47.8146
 11
-223.43
 21
47.8947
  0
LINE
  8
0
 10
-223.43
 20
47.8947
 11
-223.186
 21
47.9398
  0
LINE
  8
0
 10
-223.186
 20
47.9398
 11
-222.938
 21
47.9489
  0
LINE
  8
0
 10
-222.938
 20
47.9489
 11
-222.691
 21
47.9217
  0
LINE
  8
0
 10
-222.691
 20
47.9217
 11
-222.451
 21
47.8589
  0
LINE
  8
0
 10
-222.451
 20
47.8589
 11
-222.223
 21
47.7619
  0
LINE
  8
0
 10
-222.223
 20
47.7619
 11
-222.011
 21
47.6326
  0
LINE
  8
0
 10
-222.011
 20
47.6326
 11
-221.82
 21
47.4738
  0
LINE
  8
0
 10
-221.82
 20
47.4738
 11
-221.654
 21
47.289
  0
LINE
  8
0
 10
-221.654
 20
47.289
 11
-221.518
 21
47.082
  0
LINE
  8
0
 10
-221.518
 20
47.082
 11
-221.412
 21
46.8573
  0
LINE
  8
0
 10
-221.412
 20
46.8573
 11
-221.341
 21
46.6196
  0
LINE
  8
0
 10
-221.341
 20
46.6196
 11
-221.305
 21
46.3741
  0
LINE
  8
0
 10
-221.305
 20
46.3741
 11
-221.305
 21
46.1259
  0
LINE
  8
0
 10
-221.305
 20
46.1259
 11
-221.341
 21
45.8804
  0
LINE
  8
0
 10
-221.341
 20
45.8804
 11
-221.412
 21
45.6427
  0
LINE
  8
0
 10
-221.412
 20
45.6427
 11
-221.518
 21
45.418
  0
LINE
  8
0
 10
-221.518
 20
45.418
 11
-221.654
 21
45.211
  0
LINE
  8
0
 10
-221.654
 20
45.211
 11
-221.82
 21
45.0262
  0
LINE
  8
0
 10
-221.82
 20
45.0262
 11
-222.011
 21
44.8674
  0
LINE
  8
0
 10
-222.011
 20
44.8674
 11
-222.223
 21
44.7381
  0
LINE
  8
0
 10
-222.223
 20
44.7381
 11
-222.451
 21
44.6411
  0
LINE
  8
0
 10
-222.451
 20
44.6411
 11
-222.691
 21
44.5783
  0
LINE
  8
0
 10
-222.691
 20
44.5783
 11
-222.938
 21
44.5511
  0
LINE
  8
0
 10
-222.938
 20
44.5511
 11
-223.186
 21
44.5602
  0
LINE
  8
0
 10
-223.186
 20
-47.9398
 11
-223.43
 21
-47.8947
  0
LINE
  8
0
 10
-223.43
 20
-47.8947
 11
-223.665
 21
-47.8146
  0
LINE
  8
0
 10
-223.665
 20
-47.8146
 11
-223.886
 21
-47.7011
  0
LINE
  8
0
 10
-223.886
 20
-47.7011
 11
-224.087
 21
-47.5567
  0
LINE
  8
0
 10
-224.087
 20
-47.5567
 11
-224.266
 21
-47.3844
  0
LINE
  8
0
 10
-224.266
 20
-47.3844
 11
-224.418
 21
-47.188
  0
LINE
  8
0
 10
-224.418
 20
-47.188
 11
-224.539
 21
-46.9716
  0
LINE
  8
0
 10
-224.539
 20
-46.9716
 11
-224.628
 21
-46.7398
  0
LINE
  8
0
 10
-224.628
 20
-46.7398
 11
-224.682
 21
-46.4975
  0
LINE
  8
0
 10
-224.682
 20
-46.4975
 11
-224.7
 21
-46.25
  0
LINE
  8
0
 10
-224.7
 20
-46.25
 11
-224.682
 21
-46.0025
  0
LINE
  8
0
 10
-224.682
 20
-46.0025
 11
-224.628
 21
-45.7602
  0
LINE
  8
0
 10
-224.628
 20
-45.7602
 11
-224.539
 21
-45.5284
  0
LINE
  8
0
 10
-224.539
 20
-45.5284
 11
-224.418
 21
-45.312
  0
LINE
  8
0
 10
-224.418
 20
-45.312
 11
-224.266
 21
-45.1156
  0
LINE
  8
0
 10
-224.266
 20
-45.1156
 11
-224.087
 21
-44.9433
  0
LINE
  8
0
 10
-224.087
 20
-44.9433
 11
-223.886
 21
-44.7989
  0
LINE
  8
0
 10
-223.886
 20
-44.7989
 11
-223.665
 21
-44.6854
  0
LINE
  8
0
 10
-223.665
 20
-44.6854
 11
-223.43
 21
-44.6053
  0
LINE
  8
0
 10
-223.43
 20
-44.6053
 11
-223.186
 21
-44.5602
  0
LINE
  8
0
 10
-223.186
 20
-44.5602
 11
-222.938
 21
-44.5511
  0
LINE
  8
0
 10
-222.938
 20
-44.5511
 11
-222.691
 21
-44.5783
  0
LINE
  8
0
 10
-222.691
 20
-44.5783
 11
-222.451
 21
-44.6411
  0
LINE
  8
0
 10
-222.451
 20
-44.6411
 11
-222.223
 21
-44.7381
  0
LINE
  8
0
 10
-222.223
 20
-44.7381
 11
-222.011
 21
-44.8674
  0
LINE
  8
0
 10
-222.011
 20
-44.8674
 11
-221.82
 21
-45.0262
  0
LINE
  8
0
 10
-221.82
 20
-45.0262
 11
-221.654
 21
-45.211
  0
LINE
  8
0
 10
-221.654
 20
-45.211
 11
-221.518
 21
-45.418
  0
LINE
  8
0
 10
-221.518
 20
-45.418
 11
-221.412
 21
-45.6427
  0
LINE
  8
0
 10
-221.412
 20
-45.6427
 11
-221.341
 21
-45.8804
  0
LINE
  8
0
 10
-221.341
 20
-45.8804
 11
-221.305
 21
-46.1259
  0
LINE
  8
0
 10
-221.305
 20
-46.1259
 11
-221.305
 21
-46.3741
  0
LINE
  8
0
 10
-221.305
 20
-46.3741
 11
-221.341
 21
-46.6196
  0
LINE
  8
0
 10
-221.341
 20
-46.6196
 11
-221.412
 21
-46.8573
  0
LINE
  8
0
 10
-221.412
 20
-46.8573
 11
-221.518
 21
-47.082
  0
LINE
  8
0
 10
-221.518
 20
-47.082
 11
-221.654
 21
-47.289
  0
LINE
  8
0
 10
-221.654
 20
-47.289
 11
-221.82
 21
-47.4738
  0
LINE
  8
0
 10
-221.82
 20
-47.4738
 11
-222.011
 21
-47.6326
  0
LINE
  8
0
 10
-222.011
 20
-47.6326
 11
-222.223
 21
-47.7619
  0
LINE
  8
0
 10
-222.223
 20
-47.7619
 11
-222.451
 21
-47.8589
  0
LINE
  8
0
 10
-222.451
 20
-47.8589
 11
-222.691
 21
-47.9217
  0
LINE
  8
0
 10
-222.691
 20
-47.9217
 11
-222.938
 21
-47.9489
  0
LINE
  8
0
 10
-222.938
 20
-47.9489
 11
-223.186
 21
-47.9398
  0
LINE
  8
0
 10
222.691
 20
-47.9217
 11
222.451
 21
-47.8589
  0
LINE
  8
0
 10
222.451
 20
-47.8589
 11
222.223
 21
-47.7619
  0
LINE
  8
0
 10
222.223
 20
-47.7619
 11
222.011
 21
-47.6326
  0
LINE
  8
0
 10
222.011
 20
-47.6326
 11
221.82
 21
-47.4738
  0
LINE
  8
0
 10
221.82
 20
-47.4738
 11
221.654
 21
-47.289
  0
LINE
  8
0
 10
221.654
 20
-47.289
 11
221.518
 21
-47.082
  0
LINE
  8
0
 10
221.518
 20
-47.082
 11
221.412
 21
-46.8573
  0
LINE
  8
0
 10
221.412
 20
-46.8573
 11
221.341
 21
-46.6196
  0
LINE
  8
0
 10
221.341
 20
-46.6196
 11
221.305
 21
-46.3741
  0
LINE
  8
0
 10
221.305
 20
-46.3741
 11
221.305
 21
-46.1259
  0
LINE
  8
0
 10
221.305
 20
-46.1259
 11
221.341
 21
-45.8804
  0
LINE
  8
0
 10
221.341
 20
-45.8804
 11
221.412
 21
-45.6427
  0
LINE
  8
0
 10
221.412
 20
-45.6427
 11
221.518
 21
-45.418
  0
LINE
  8
0
 10
221.518
 20
-45.418
 11
221.654
 21
-45.211
  0
LINE
  8
0
 10
221.654
 20
-45.211
 11
221.82
 21
-45.0262
  0
LINE
  8
0
 10
221.82
 20
-45.0262
 11
222.011
 21
-44.8674
  0
LINE
  8
0
 10
222.011
 20
-44.8674
 11
222.223
 21
-44.7381
  0
LINE
  8
0
 10
222.223
 20
-44.7381
 11
222.451
 21
-44.6411
  0
LINE
  8
0
 10
222.451
 20
-44.6411
 11
222.691
 21
-44.5783
  0
LINE
  8
0
 10
222.691
 20
-44.5783
 11
222.938
 21
-44.5511
  0
LINE
  8
0
 10
222.938
 20
-44.5511
 11
223.186
 21
-44.5602
  0
LINE
  8
0
 10
223.186
 20
-44.5602
 11
223.43
 21
-44.6053
  0
LINE
  8
0
 10
223.43
 20
-44.6053
 11
223.665
 21
-44.6854
  0
LINE
  8
0
 10
223.665
 20
-44.6854
 11
223.886
 21
-44.7989
  0
LINE
  8
0
 10
223.886
 20
-44.7989
 11
224.087
 21
-44.9433
  0
LINE
  8
0
 10
224.087
 20
-44.9433
 11
224.266
 21
-45.1156
  0
LINE
  8
0
 10
224.266
 20
-45.1156
 11
224.418
 21
-45.312
  0
LINE
  8
0
 10
224.418
 20
-45.312
 11
224.539
 21
-45.5284
  0
LINE
  8
0
 10
224.539
 20
-45.5284
 11
224.628
 21
-45.7602
  0
LINE
  8
0
 10
224.628
 20
-45.7602
 11
224.682
 21
-46.0025
  0
LINE
  8
0
 10
224.682
 20
-46.0025
 11
224.7
 21
-46.25
  0
LINE
  8
0
 10
224.7
 20
-46.25
 11
224.682
 21
-46.4975
  0
LINE
  8
0
 10
224.682
 20
-46.4975
 11
224.628
 21
-46.7398
  0
LINE
  8
0
 10
224.628
 20
-46.7398
 11
224.539
 21
-46.9716
  0
LINE
  8
0
 10
224.539
 20
-46.9716
 11
224.418
 21
-47.188
  0
LINE
  8
0
 10
224.418
 20
-47.188
 11
224.266
 21
-47.3844
  0
LINE
  8
0
 10
224.266
 20
-47.3844
 11
224.087
 21
-47.5567
  0
LINE
  8
0
 10
224.087
 20
-47.5567
 11
223.886
 21
-47.7011
  0
LINE
  8
0
 10
223.886
 20
-47.7011
 11
223.665
 21
-47.8146
  0
LINE
  8
0
 10
223.665
 20
-47.8146
 11
223.43
 21
-47.8947
  0
LINE
  8
0
 10
223.43
 20
-47.8947
 11
223.186
 21
-47.9398
  0
LINE
  8
0
 10
223.186
 20
-47.9398
 11
222.938
 21
-47.9489
  0
LINE
  8
0
 10
222.938
 20
-47.9489
 11
222.691
 21
-47.9217
  0
LINE
  8
0
 10
-223.392
 20
-92.4794
 11
-223.78
 21
-92.418
  0
LINE
  8
0
 10
-223.78
 20
-92.418
 11
-224.159
 21
-92.3165
  0
LINE
  8
0
 10
-224.159
 20
-92.3165
 11
-224.525
 21
-92.1758
  0
LINE
  8
0
 10
-224.525
 20
-92.1758
 11
-224.875
 21
-91.9976
  0
LINE
  8
0
 10
-224.875
 20
-91.9976
 11
-225.204
 21
-91.7838
  0
LINE
  8
0
 10
-225.204
 20
-91.7838
 11
-225.509
 21
-91.5368
  0
LINE
  8
0
 10
-225.509
 20
-91.5368
 11
-225.787
 21
-91.2592
  0
LINE
  8
0
 10
-225.787
 20
-91.2592
 11
-226.034
 21
-90.9542
  0
LINE
  8
0
 10
-226.034
 20
-90.9542
 11
-226.248
 21
-90.625
  0
LINE
  8
0
 10
-226.248
 20
-90.625
 11
-226.426
 21
-90.2753
  0
LINE
  8
0
 10
-226.426
 20
-90.2753
 11
-226.566
 21
-89.9088
  0
LINE
  8
0
 10
-226.566
 20
-89.9088
 11
-226.668
 21
-89.5297
  0
LINE
  8
0
 10
-226.668
 20
-89.5297
 11
-226.729
 21
-89.142
  0
LINE
  8
0
 10
-226.729
 20
-89.142
 11
-226.75
 21
-88.75
  0
LINE
  8
0
 10
-226.75
 20
-88.75
 11
-226.729
 21
-88.358
  0
LINE
  8
0
 10
-226.729
 20
-88.358
 11
-226.668
 21
-87.9703
  0
LINE
  8
0
 10
-226.668
 20
-87.9703
 11
-226.566
 21
-87.5912
  0
LINE
  8
0
 10
-226.566
 20
-87.5912
 11
-226.426
 21
-87.2247
  0
LINE
  8
0
 10
-226.426
 20
-87.2247
 11
-226.248
 21
-86.875
  0
LINE
  8
0
 10
-226.248
 20
-86.875
 11
-226.034
 21
-86.5458
  0
LINE
  8
0
 10
-226.034
 20
-86.5458
 11
-225.787
 21
-86.2408
  0
LINE
  8
0
 10
-225.787
 20
-86.2408
 11
-225.509
 21
-85.9632
  0
LINE
  8
0
 10
-225.509
 20
-85.9632
 11
-225.204
 21
-85.7162
  0
LINE
  8
0
 10
-225.204
 20
-85.7162
 11
-224.875
 21
-85.5024
  0
LINE
  8
0
 10
-224.875
 20
-85.5024
 11
-224.525
 21
-85.3242
  0
LINE
  8
0
 10
-224.525
 20
-85.3242
 11
-224.159
 21
-85.1835
  0
LINE
  8
0
 10
-224.159
 20
-85.1835
 11
-223.78
 21
-85.0819
  0
LINE
  8
0
 10
-223.78
 20
-85.0819
 11
-223.392
 21
-85.0205
  0
LINE
  8
0
 10
-223.392
 20
-85.0205
 11
-223
 21
-85
  0
LINE
  8
0
 10
-223
 20
-85
 11
-222.608
 21
-85.0205
  0
LINE
  8
0
 10
-222.608
 20
-85.0205
 11
-222.22
 21
-85.0819
  0
LINE
  8
0
 10
-222.22
 20
-85.0819
 11
-221.841
 21
-85.1835
  0
LINE
  8
0
 10
-221.841
 20
-85.1835
 11
-221.475
 21
-85.3242
  0
LINE
  8
0
 10
-221.475
 20
-85.3242
 11
-221.125
 21
-85.5024
  0
LINE
  8
0
 10
-221.125
 20
-85.5024
 11
-220.796
 21
-85.7162
  0
LINE
  8
0
 10
-220.796
 20
-85.7162
 11
-220.491
 21
-85.9632
  0
LINE
  8
0
 10
-220.491
 20
-85.9632
 11
-220.213
 21
-86.2408
  0
LINE
  8
0
 10
-220.213
 20
-86.2408
 11
-219.966
 21
-86.5458
  0
LINE
  8
0
 10
-219.966
 20
-86.5458
 11
-219.752
 21
-86.875
  0
LINE
  8
0
 10
-219.752
 20
-86.875
 11
-219.574
 21
-87.2247
  0
LINE
  8
0
 10
-219.574
 20
-87.2247
 11
-219.434
 21
-87.5912
  0
LINE
  8
0
 10
-219.434
 20
-87.5912
 11
-219.332
 21
-87.9703
  0
LINE
  8
0
 10
-219.332
 20
-87.9703
 11
-219.271
 21
-88.358
  0
LINE
  8
0
 10
-219.271
 20
-88.358
 11
-219.25
 21
-88.75
  0
LINE
  8
0
 10
-219.25
 20
-88.75
 11
-219.271
 21
-89.142
  0
LINE
  8
0
 10
-219.271
 20
-89.142
 11
-219.332
 21
-89.5297
  0
LINE
  8
0
 10
-219.332
 20
-89.5297
 11
-219.434
 21
-89.9088
  0
LINE
  8
0
 10
-219.434
 20
-89.9088
 11
-219.574
 21
-90.2753
  0
LINE
  8
0
 10
-219.574
 20
-90.2753
 11
-219.752
 21
-90.625
  0
LINE
  8
0
 10
-219.752
 20
-90.625
 11
-219.966
 21
-90.9542
  0
LINE
  8
0
 10
-219.966
 20
-90.9542
 11
-220.213
 21
-91.2592
  0
LINE
  8
0
 10
-220.213
 20
-91.2592
 11
-220.491
 21
-91.5368
  0
LINE
  8
0
 10
-220.491
 20
-91.5368
 11
-220.796
 21
-91.7838
  0
LINE
  8
0
 10
-220.796
 20
-91.7838
 11
-221.125
 21
-91.9976
  0
LINE
  8
0
 10
-221.125
 20
-91.9976
 11
-221.475
 21
-92.1758
  0
LINE
  8
0
 10
-221.475
 20
-92.1758
 11
-221.841
 21
-92.3165
  0
LINE
  8
0
 10
-221.841
 20
-92.3165
 11
-222.22
 21
-92.418
  0
LINE
  8
0
 10
-222.22
 20
-92.418
 11
-222.608
 21
-92.4794
  0
LINE
  8
0
 10
-222.608
 20
-92.4794
 11
-223
 21
-92.5
  0
LINE
  8
0
 10
-223
 20
-92.5
 11
-223.392
 21
-92.4794
  0
LINE
  8
0
 10
222.608
 20
-92.4794
 11
222.22
 21
-92.418
  0
LINE
  8
0
 10
222.22
 20
-92.418
 11
221.841
 21
-92.3165
  0
LINE
  8
0
 10
221.841
 20
-92.3165
 11
221.475
 21
-92.1758
  0
LINE
  8
0
 10
221.475
 20
-92.1758
 11
221.125
 21
-91.9976
  0
LINE
  8
0
 10
221.125
 20
-91.9976
 11
220.796
 21
-91.7838
  0
LINE
  8
0
 10
220.796
 20
-91.7838
 11
220.491
 21
-91.5368
  0
LINE
  8
0
 10
220.491
 20
-91.5368
 11
220.213
 21
-91.2592
  0
LINE
  8
0
 10
220.213
 20
-91.2592
 11
219.966
 21
-90.9542
  0
LINE
  8
0
 10
219.966
 20
-90.9542
 11
219.752
 21
-90.625
  0
LINE
  8
0
 10
219.752
 20
-90.625
 11
219.574
 21
-90.2753
  0
LINE
  8
0
 10
219.574
 20
-90.2753
 11
219.434
 21
-89.9088
  0
LINE
  8
0
 10
219.434
 20
-89.9088
 11
219.332
 21
-89.5297
  0
LINE
  8
0
 10
219.332
 20
-89.5297
 11
219.271
 21
-89.142
  0
LINE
  8
0
 10
219.271
 20
-89.142
 11
219.25
 21
-88.75
  0
LINE
  8
0
 10
219.25
 20
-88.75
 11
219.271
 21
-88.358
  0
LINE
  8
0
 10
219.271
 20
-88.358
 11
219.332
 21
-87.9703
  0
LINE
  8
0
 10
219.332
 20
-87.9703
 11
219.434
 21
-87.5912
  0
LINE
  8
0
 10
219.434
 20
-87.5912
 11
219.574
 21
-87.2247
  0
LINE
  8
0
 10
219.574
 20
-87.2247
 11
219.752
 21
-86.875
  0
LINE
  8
0
 10
219.752
 20
-86.875
 11
219.966
 21
-86.5458
  0
LINE
  8
0
 10
219.966
 20
-86.5458
 11
220.213
 21
-86.2408
  0
LINE
  8
0
 10
220.213
 20
-86.2408
 11
220.491
 21
-85.9632
  0
LINE
  8
0
 10
220.491
 20
-85.9632
 11
220.796
 21
-85.7162
  0
LINE
  8
0
 10
220.796
 20
-85.7162
 11
221.125
 21
-85.5024
  0
LINE
  8
0
 10
221.125
 20
-85.5024
 11
221.475
 21
-85.3242
  0
LINE
  8
0
 10
221.475
 20
-85.3242
 11
221.841
 21
-85.1835
  0
LINE
  8
0
 10
221.841
 20
-85.1835
 11
222.22
 21
-85.0819
  0
LINE
  8
0
 10
222.22
 20
-85.0819
 11
222.608
 21
-85.0205
  0
LINE
  8
0
 10
222.608
 20
-85.0205
 11
223
 21
-85
  0
LINE
  8
0
 10
223
 20
-85
 11
223.392
 21
-85.0205
  0
LINE
  8
0
 10
223.392
 20
-85.0205
 11
223.78
 21
-85.0819
  0
LINE
  8
0
 10
223.78
 20
-85.0819
 11
224.159
 21
-85.1835
  0
LINE
  8
0
 10
224.159
 20
-85.1835
 11
224.525
 21
-85.3242
  0
LINE
  8
0
 10
224.525
 20
-85.3242
 11
224.875
 21
-85.5024
  0
LINE
  8
0
 10
224.875
 20
-85.5024
 11
225.204
 21
-85.7162
  0
LINE
  8
0
 10
225.204
 20
-85.7162
 11
225.509
 21
-85.9632
  0
LINE
  8
0
 10
225.509
 20
-85.9632
 11
225.787
 21
-86.2408
  0
LINE
  8
0
 10
225.787
 20
-86.2408
 11
226.034
 21
-86.5458
  0
LINE
  8
0
 10
226.034
 20
-86.5458
 11
226.248
 21
-86.875
  0
LINE
  8
0
 10
226.248
 20
-86.875
 11
226.426
 21
-87.2247
  0
LINE
  8
0
 10
226.426
 20
-87.2247
 11
226.566
 21
-87.5912
  0
LINE
  8
0
 10
226.566
 20
-87.5912
 11
226.668
 21
-87.9703
  0
LINE
  8
0
 10
226.668
 20
-87.9703
 11
226.729
 21
-88.358
  0
LINE
  8
0
 10
226.729
 20
-88.358
 11
226.75
 21
-88.75
  0
LINE
  8
0
 10
226.75
 20
-88.75
 11
226.729
 21
-89.142
  0
LINE
  8
0
 10
226.729
 20
-89.142
 11
226.668
 21
-89.5297
  0
LINE
  8
0
 10
226.668
 20
-89.5297
 11
226.566
 21
-89.9088
  0
LINE
  8
0
 10
226.566
 20
-89.9088
 11
226.426
 21
-90.2753
  0
LINE
  8
0
 10
226.426
 20
-90.2753
 11
226.248
 21
-90.625
  0
LINE
  8
0
 10
226.248
 20
-90.625
 11
226.034
 21
-90.9542
  0
LINE
  8
0
 10
226.034
 20
-90.9542
 11
225.787
 21
-91.2592
  0
LINE
  8
0
 10
225.787
 20
-91.2592
 11
225.509
 21
-91.5368
  0
LINE
  8
0
 10
225.509
 20
-91.5368
 11
225.204
 21
-91.7838
  0
LINE
  8
0
 10
225.204
 20
-91.7838
 11
224.875
 21
-91.9976
  0
LINE
  8
0
 10
224.875
 20
-91.9976
 11
224.525
 21
-92.1758
  0
LINE
  8
0
 10
224.525
 20
-92.1758
 11
224.159
 21
-92.3165
  0
LINE
  8
0
 10
224.159
 20
-92.3165
 11
223.78
 21
-92.418
  0
LINE
  8
0
 10
223.78
 20
-92.418
 11
223.392
 21
-92.4794
  0
LINE
  8
0
 10
223.392
 20
-92.4794
 11
223
 21
-92.5
  0
LINE
  8
0
 10
223
 20
-92.5
 11
222.608
 21
-92.4794
  0
LINE
  8
0
 10
-180.809
 20
-90.4217
 11
-181.049
 21
-90.3589
  0
LINE
  8
0
 10
-181.049
 20
-90.3589
 11
-181.277
 21
-90.2619
  0
LINE
  8
0
 10
-181.277
 20
-90.2619
 11
-181.489
 21
-90.1326
  0
LINE
  8
0
 10
-181.489
 20
-90.1326
 11
-181.68
 21
-89.9738
  0
LINE
  8
0
 10
-181.68
 20
-89.9738
 11
-181.846
 21
-89.789
  0
LINE
  8
0
 10
-181.846
 20
-89.789
 11
-181.982
 21
-89.582
  0
LINE
  8
0
 10
-181.982
 20
-89.582
 11
-182.088
 21
-89.3573
  0
LINE
  8
0
 10
-182.088
 20
-89.3573
 11
-182.159
 21
-89.1196
  0
LINE
  8
0
 10
-182.159
 20
-89.1196
 11
-182.195
 21
-88.8741
  0
LINE
  8
0
 10
-182.195
 20
-88.8741
 11
-182.195
 21
-88.6259
  0
LINE
  8
0
 10
-182.195
 20
-88.6259
 11
-182.159
 21
-88.3804
  0
LINE
  8
0
 10
-182.159
 20
-88.3804
 11
-182.088
 21
-88.1427
  0
LINE
  8
0
 10
-182.088
 20
-88.1427
 11
-181.982
 21
-87.918
  0
LINE
  8
0
 10
-181.982
 20
-87.918
 11
-181.846
 21
-87.711
  0
LINE
  8
0
 10
-181.846
 20
-87.711
 11
-181.68
 21
-87.5262
  0
LINE
  8
0
 10
-181.68
 20
-87.5262
 11
-181.489
 21
-87.3674
  0
LINE
  8
0
 10
-181.489
 20
-87.3674
 11
-181.277
 21
-87.2381
  0
LINE
  8
0
 10
-181.277
 20
-87.2381
 11
-181.049
 21
-87.1411
  0
LINE
  8
0
 10
-181.049
 20
-87.1411
 11
-180.809
 21
-87.0783
  0
LINE
  8
0
 10
-180.809
 20
-87.0783
 11
-180.562
 21
-87.0511
  0
LINE
  8
0
 10
-180.562
 20
-87.0511
 11
-180.314
 21
-87.0602
  0
LINE
  8
0
 10
-180.314
 20
-87.0602
 11
-180.07
 21
-87.1053
  0
LINE
  8
0
 10
-180.07
 20
-87.1053
 11
-179.835
 21
-87.1854
  0
LINE
  8
0
 10
-179.835
 20
-87.1854
 11
-179.614
 21
-87.2989
  0
LINE
  8
0
 10
-179.614
 20
-87.2989
 11
-179.413
 21
-87.4433
  0
LINE
  8
0
 10
-179.413
 20
-87.4433
 11
-179.234
 21
-87.6156
  0
LINE
  8
0
 10
-179.234
 20
-87.6156
 11
-179.082
 21
-87.812
  0
LINE
  8
0
 10
-179.082
 20
-87.812
 11
-178.961
 21
-88.0284
  0
LINE
  8
0
 10
-178.961
 20
-88.0284
 11
-178.872
 21
-88.2602
  0
LINE
  8
0
 10
-178.872
 20
-88.2602
 11
-178.818
 21
-88.5025
  0
LINE
  8
0
 10
-178.818
 20
-88.5025
 11
-178.8
 21
-88.75
  0
LINE
  8
0
 10
-178.8
 20
-88.75
 11
-178.818
 21
-88.9975
  0
LINE
  8
0
 10
-178.818
 20
-88.9975
 11
-178.872
 21
-89.2398
  0
LINE
  8
0
 10
-178.872
 20
-89.2398
 11
-178.961
 21
-89.4716
  0
LINE
  8
0
 10
-178.961
 20
-89.4716
 11
-179.082
 21
-89.688
  0
LINE
  8
0
 10
-179.082
 20
-89.688
 11
-179.234
 21
-89.8844
  0
LINE
  8
0
 10
-179.234
 20
-89.8844
 11
-179.413
 21
-90.0567
  0
LINE
  8
0
 10
-179.413
 20
-90.0567
 11
-179.614
 21
-90.2011
  0
LINE
  8
0
 10
-179.614
 20
-90.2011
 11
-179.835
 21
-90.3146
  0
LINE
  8
0
 10
-179.835
 20
-90.3146
 11
-180.07
 21
-90.3947
  0
LINE
  8
0
 10
-180.07
 20
-90.3947
 11
-180.314
 21
-90.4398
  0
LINE
  8
0
 10
-180.314
 20
-90.4398
 11
-180.562
 21
-90.4489
  0
LINE
  8
0
 10
-180.562
 20
-90.4489
 11
-180.809
 21
-90.4217
  0
LINE
  8
0
 10
180.191
 20
-90.4217
 11
179.951
 21
-90.3589
  0
LINE
  8
0
 10
179.951
 20
-90.3589
 11
179.723
 21
-90.2619
  0
LINE
  8
0
 10
179.723
 20
-90.2619
 11
179.511
 21
-90.1326
  0
LINE
  8
0
 10
179.511
 20
-90.1326
 11
179.32
 21
-89.9738
  0
LINE
  8
0
 10
179.32
 20
-89.9738
 11
179.154
 21
-89.789
  0
LINE
  8
0
 10
179.154
 20
-89.789
 11
179.018
 21
-89.582
  0
LINE
  8
0
 10
179.018
 20
-89.582
 11
178.912
 21
-89.3573
  0
LINE
  8
0
 10
178.912
 20
-89.3573
 11
178.841
 21
-89.1196
  0
LINE
  8
0
 10
178.841
 20
-89.1196
 11
178.805
 21
-88.8741
  0
LINE
  8
0
 10
178.805
 20
-88.8741
 11
178.805
 21
-88.6259
  0
LINE
  8
0
 10
178.805
 20
-88.6259
 11
178.841
 21
-88.3804
  0
LINE
  8
0
 10
178.841
 20
-88.3804
 11
178.912
 21
-88.1427
  0
LINE
  8
0
 10
178.912
 20
-88.1427
 11
179.018
 21
-87.918
  0
LINE
  8
0
 10
179.018
 20
-87.918
 11
179.154
 21
-87.711
  0
LINE
  8
0
 10
179.154
 20
-87.711
 11
179.32
 21
-87.5262
  0
LINE
  8
0
 10
179.32
 20
-87.5262
 11
179.511
 21
-87.3674
  0
LINE
  8
0
 10
179.511
 20
-87.3674
 11
179.723
 21
-87.2381
  0
LINE
  8
0
 10
179.723
 20
-87.2381
 11
179.951
 21
-87.1411
  0
LINE
  8
0
 10
179.951
 20
-87.1411
 11
180.191
 21
-87.0783
  0
LINE
  8
0
 10
180.191
 20
-87.0783
 11
180.438
 21
-87.0511
  0
LINE
  8
0
 10
180.438
 20
-87.0511
 11
180.686
 21
-87.0602
  0
LINE
  8
0
 10
180.686
 20
-87.0602
 11
180.93
 21
-87.1053
  0
LINE
  8
0
 10
180.93
 20
-87.1053
 11
181.165
 21
-87.1854
  0
LINE
  8
0
 10
181.165
 20
-87.1854
 11
181.386
 21
-87.2989
  0
LINE
  8
0
 10
181.386
 20
-87.2989
 11
181.587
 21
-87.4433
  0
LINE
  8
0
 10
181.587
 20
-87.4433
 11
181.766
 21
-87.6156
  0
LINE
  8
0
 10
181.766
 20
-87.6156
 11
181.918
 21
-87.812
  0
LINE
  8
0
 10
181.918
 20
-87.812
 11
182.039
 21
-88.0284
  0
LINE
  8
0
 10
182.039
 20
-88.0284
 11
182.128
 21
-88.2602
  0
LINE
  8
0
 10
182.128
 20
-88.2602
 11
182.182
 21
-88.5025
  0
LINE
  8
0
 10
182.182
 20
-88.5025
 11
182.2
 21
-88.75
  0
LINE
  8
0
 10
182.2
 20
-88.75
 11
182.182
 21
-88.9975
  0
LINE
  8
0
 10
182.182
 20
-88.9975
 11
182.128
 21
-89.2398
  0
LINE
  8
0
 10
182.128
 20
-89.2398
 11
182.039
 21
-89.4716
  0
LINE
  8
0
 10
182.039
 20
-89.4716
 11
181.918
 21
-89.688
  0
LINE
  8
0
 10
181.918
 20
-89.688
 11
181.766
 21
-89.8844
  0
LINE
  8
0
 10
181.766
 20
-89.8844
 11
181.587
 21
-90.0567
  0
LINE
  8
0
 10
181.587
 20
-90.0567
 11
181.386
 21
-90.2011
  0
LINE
  8
0
 10
181.386
 20
-90.2011
 11
181.165
 21
-90.3146
  0
LINE
  8
0
 10
181.165
 20
-90.3146
 11
180.93
 21
-90.3947
  0
LINE
  8
0
 10
180.93
 20
-90.3947
 11
180.686
 21
-90.4398
  0
LINE
  8
0
 10
180.686
 20
-90.4398
 11
180.438
 21
-90.4489
  0
LINE
  8
0
 10
180.438
 20
-90.4489
 11
180.191
 21
-90.4217
  0
LINE
  8
0
 10
89.9412
 20
-90.4217
 11
89.7011
 21
-90.3589
  0
LINE
  8
0
 10
89.7011
 20
-90.3589
 11
89.4727
 21
-90.2619
  0
LINE
  8
0
 10
89.4727
 20
-90.2619
 11
89.2608
 21
-90.1326
  0
LINE
  8
0
 10
89.2608
 20
-90.1326
 11
89.0701
 21
-89.9738
  0
LINE
  8
0
 10
89.0701
 20
-89.9738
 11
88.9044
 21
-89.789
  0
LINE
  8
0
 10
88.9044
 20
-89.789
 11
88.7675
 21
-89.582
  0
LINE
  8
0
 10
88.7675
 20
-89.582
 11
88.6622
 21
-89.3573
  0
LINE
  8
0
 10
88.6622
 20
-89.3573
 11
88.5907
 21
-89.1196
  0
LINE
  8
0
 10
88.5907
 20
-89.1196
 11
88.5545
 21
-88.8741
  0
LINE
  8
0
 10
88.5545
 20
-88.8741
 11
88.5545
 21
-88.6259
  0
LINE
  8
0
 10
88.5545
 20
-88.6259
 11
88.5907
 21
-88.3804
  0
LINE
  8
0
 10
88.5907
 20
-88.3804
 11
88.6622
 21
-88.1427
  0
LINE
  8
0
 10
88.6622
 20
-88.1427
 11
88.7675
 21
-87.918
  0
LINE
  8
0
 10
88.7675
 20
-87.918
 11
88.9044
 21
-87.711
  0
LINE
  8
0
 10
88.9044
 20
-87.711
 11
89.0701
 21
-87.5262
  0
LINE
  8
0
 10
89.0701
 20
-87.5262
 11
89.2608
 21
-87.3674
  0
LINE
  8
0
 10
89.2608
 20
-87.3674
 11
89.4727
 21
-87.2381
  0
LINE
  8
0
 10
89.4727
 20
-87.2381
 11
89.7011
 21
-87.1411
  0
LINE
  8
0
 10
89.7011
 20
-87.1411
 11
89.9412
 21
-87.0783
  0
LINE
  8
0
 10
89.9412
 20
-87.0783
 11
90.1879
 21
-87.0511
  0
LINE
  8
0
 10
90.1879
 20
-87.0511
 11
90.4359
 21
-87.0602
  0
LINE
  8
0
 10
90.4359
 20
-87.0602
 11
90.68
 21
-87.1053
  0
LINE
  8
0
 10
90.68
 20
-87.1053
 11
90.9149
 21
-87.1854
  0
LINE
  8
0
 10
90.9149
 20
-87.1854
 11
91.1356
 21
-87.2989
  0
LINE
  8
0
 10
91.1356
 20
-87.2989
 11
91.3374
 21
-87.4433
  0
LINE
  8
0
 10
91.3374
 20
-87.4433
 11
91.5161
 21
-87.6156
  0
LINE
  8
0
 10
91.5161
 20
-87.6156
 11
91.6678
 21
-87.812
  0
LINE
  8
0
 10
91.6678
 20
-87.812
 11
91.7893
 21
-88.0284
  0
LINE
  8
0
 10
91.7893
 20
-88.0284
 11
91.8779
 21
-88.2602
  0
LINE
  8
0
 10
91.8779
 20
-88.2602
 11
91.9319
 21
-88.5025
  0
LINE
  8
0
 10
91.9319
 20
-88.5025
 11
91.95
 21
-88.75
  0
LINE
  8
0
 10
91.95
 20
-88.75
 11
91.9319
 21
-88.9975
  0
LINE
  8
0
 10
91.9319
 20
-88.9975
 11
91.8779
 21
-89.2398
  0
LINE
  8
0
 10
91.8779
 20
-89.2398
 11
91.7893
 21
-89.4716
  0
LINE
  8
0
 10
91.7893
 20
-89.4716
 11
91.6678
 21
-89.688
  0
LINE
  8
0
 10
91.6678
 20
-89.688
 11
91.5161
 21
-89.8844
  0
LINE
  8
0
 10
91.5161
 20
-89.8844
 11
91.3374
 21
-90.0567
  0
LINE
  8
0
 10
91.3374
 20
-90.0567
 11
91.1356
 21
-90.2011
  0
LINE
  8
0
 10
91.1356
 20
-90.2011
 11
90.9149
 21
-90.3146
  0
LINE
  8
0
 10
90.9149
 20
-90.3146
 11
90.68
 21
-90.3947
  0
LINE
  8
0
 10
90.68
 20
-90.3947
 11
90.4359
 21
-90.4398
  0
LINE
  8
0
 10
90.4359
 20
-90.4398
 11
90.1879
 21
-90.4489
  0
LINE
  8
0
 10
90.1879
 20
-90.4489
 11
89.9412
 21
-90.4217
  0
LINE
  8
0
 10
-0.308777
 20
-90.4217
 11
-0.548889
 21
-90.3589
  0
LINE
  8
0
 10
-0.548889
 20
-90.3589
 11
-0.777298
 21
-90.2619
  0
LINE
  8
0
 10
-0.777298
 20
-90.2619
 11
-0.989151
 21
-90.1326
  0
LINE
  8
0
 10
-0.989151
 20
-90.1326
 11
-1.17992
 21
-89.9738
  0
LINE
  8
0
 10
-1.17992
 20
-89.9738
 11
-1.34554
 21
-89.789
  0
LINE
  8
0
 10
-1.34554
 20
-89.789
 11
-1.48248
 21
-89.582
  0
LINE
  8
0
 10
-1.48248
 20
-89.582
 11
-1.58781
 21
-89.3573
  0
LINE
  8
0
 10
-1.58781
 20
-89.3573
 11
-1.65932
 21
-89.1196
  0
LINE
  8
0
 10
-1.65932
 20
-89.1196
 11
-1.69545
 21
-88.8741
  0
LINE
  8
0
 10
-1.69545
 20
-88.8741
 11
-1.69545
 21
-88.6259
  0
LINE
  8
0
 10
-1.69545
 20
-88.6259
 11
-1.65932
 21
-88.3804
  0
LINE
  8
0
 10
-1.65932
 20
-88.3804
 11
-1.58781
 21
-88.1427
  0
LINE
  8
0
 10
-1.58781
 20
-88.1427
 11
-1.48248
 21
-87.918
  0
LINE
  8
0
 10
-1.48248
 20
-87.918
 11
-1.34554
 21
-87.711
  0
LINE
  8
0
 10
-1.34554
 20
-87.711
 11
-1.17992
 21
-87.5262
  0
LINE
  8
0
 10
-1.17992
 20
-87.5262
 11
-0.989151
 21
-87.3674
  0
LINE
  8
0
 10
-0.989151
 20
-87.3674
 11
-0.777298
 21
-87.2381
  0
LINE
  8
0
 10
-0.777298
 20
-87.2381
 11
-0.548889
 21
-87.1411
  0
LINE
  8
0
 10
-0.548889
 20
-87.1411
 11
-0.308777
 21
-87.0783
  0
LINE
  8
0
 10
-0.308777
 20
-87.0783
 11
-0.0620728
 21
-87.0511
  0
LINE
  8
0
 10
-0.0620728
 20
-87.0511
 11
0.185928
 21
-87.0602
  0
LINE
  8
0
 10
0.185928
 20
-87.0602
 11
0.429977
 21
-87.1053
  0
LINE
  8
0
 10
0.429977
 20
-87.1053
 11
0.664871
 21
-87.1854
  0
LINE
  8
0
 10
0.664871
 20
-87.1854
 11
0.88559
 21
-87.2989
  0
LINE
  8
0
 10
0.88559
 20
-87.2989
 11
1.08743
 21
-87.4433
  0
LINE
  8
0
 10
1.08743
 20
-87.4433
 11
1.2661
 21
-87.6156
  0
LINE
  8
0
 10
1.2661
 20
-87.6156
 11
1.41779
 21
-87.812
  0
LINE
  8
0
 10
1.41779
 20
-87.812
 11
1.53926
 21
-88.0284
  0
LINE
  8
0
 10
1.53926
 20
-88.0284
 11
1.62791
 21
-88.2602
  0
LINE
  8
0
 10
1.62791
 20
-88.2602
 11
1.68187
 21
-88.5025
  0
LINE
  8
0
 10
1.68187
 20
-88.5025
 11
1.7
 21
-88.75
  0
LINE
  8
0
 10
1.7
 20
-88.75
 11
1.68187
 21
-88.9975
  0
LINE
  8
0
 10
1.68187
 20
-88.9975
 11
1.62791
 21
-89.2398
  0
LINE
  8
0
 10
1.62791
 20
-89.2398
 11
1.53926
 21
-89.4716
  0
LINE
  8
0
 10
1.53926
 20
-89.4716
 11
1.41779
 21
-89.688
  0
LINE
  8
0
 10
1.41779
 20
-89.688
 11
1.2661
 21
-89.8844
  0
LINE
  8
0
 10
1.2661
 20
-89.8844
 11
1.08743
 21
-90.0567
  0
LINE
  8
0
 10
1.08743
 20
-90.0567
 11
0.88559
 21
-90.2011
  0
LINE
  8
0
 10
0.88559
 20
-90.2011
 11
0.664871
 21
-90.3146
  0
LINE
  8
0
 10
0.664871
 20
-90.3146
 11
0.429977
 21
-90.3947
  0
LINE
  8
0
 10
0.429977
 20
-90.3947
 11
0.185928
 21
-90.4398
  0
LINE
  8
0
 10
0.185928
 20
-90.4398
 11
-0.0620728
 21
-90.4489
  0
LINE
  8
0
 10
-0.0620728
 20
-90.4489
 11
-0.308777
 21
-90.4217
  0
LINE
  8
0
 10
-90.5588
 20
-90.4217
 11
-90.7989
 21
-90.3589
  0
LINE
  8
0
 10
-90.7989
 20
-90.3589
 11
-91.0273
 21
-90.2619
  0
LINE
  8
0
 10
-91.0273
 20
-90.2619
 11
-91.2392
 21
-90.1326
  0
LINE
  8
0
 10
-91.2392
 20
-90.1326
 11
-91.4299
 21
-89.9738
  0
LINE
  8
0
 10
-91.4299
 20
-89.9738
 11
-91.5955
 21
-89.789
  0
LINE
  8
0
 10
-91.5955
 20
-89.789
 11
-91.7325
 21
-89.582
  0
LINE
  8
0
 10
-91.7325
 20
-89.582
 11
-91.8378
 21
-89.3573
  0
LINE
  8
0
 10
-91.8378
 20
-89.3573
 11
-91.9093
 21
-89.1196
  0
LINE
  8
0
 10
-91.9093
 20
-89.1196
 11
-91.9455
 21
-88.8741
  0
LINE
  8
0
 10
-91.9455
 20
-88.8741
 11
-91.9455
 21
-88.6259
  0
LINE
  8
0
 10
-91.9455
 20
-88.6259
 11
-91.9093
 21
-88.3804
  0
LINE
  8
0
 10
-91.9093
 20
-88.3804
 11
-91.8378
 21
-88.1427
  0
LINE
  8
0
 10
-91.8378
 20
-88.1427
 11
-91.7325
 21
-87.918
  0
LINE
  8
0
 10
-91.7325
 20
-87.918
 11
-91.5955
 21
-87.711
  0
LINE
  8
0
 10
-91.5955
 20
-87.711
 11
-91.4299
 21
-87.5262
  0
LINE
  8
0
 10
-91.4299
 20
-87.5262
 11
-91.2392
 21
-87.3674
  0
LINE
  8
0
 10
-91.2392
 20
-87.3674
 11
-91.0273
 21
-87.2381
  0
LINE
  8
0
 10
-91.0273
 20
-87.2381
 11
-90.7989
 21
-87.1411
  0
LINE
  8
0
 10
-90.7989
 20
-87.1411
 11
-90.5588
 21
-87.0783
  0
LINE
  8
0
 10
-90.5588
 20
-87.0783
 11
-90.3121
 21
-87.0511
  0
LINE
  8
0
 10
-90.3121
 20
-87.0511
 11
-90.0641
 21
-87.0602
  0
LINE
  8
0
 10
-90.0641
 20
-87.0602
 11
-89.82
 21
-87.1053
  0
LINE
  8
0
 10
-89.82
 20
-87.1053
 11
-89.5851
 21
-87.1854
  0
LINE
  8
0
 10
-89.5851
 20
-87.1854
 11
-89.3644
 21
-87.2989
  0
LINE
  8
0
 10
-89.3644
 20
-87.2989
 11
-89.1626
 21
-87.4433
  0
LINE
  8
0
 10
-89.1626
 20
-87.4433
 11
-88.9839
 21
-87.6156
  0
LINE
  8
0
 10
-88.9839
 20
-87.6156
 11
-88.8322
 21
-87.812
  0
LINE
  8
0
 10
-88.8322
 20
-87.812
 11
-88.7107
 21
-88.0284
  0
LINE
  8
0
 10
-88.7107
 20
-88.0284
 11
-88.6221
 21
-88.2602
  0
LINE
  8
0
 10
-88.6221
 20
-88.2602
 11
-88.5681
 21
-88.5025
  0
LINE
  8
0
 10
-88.5681
 20
-88.5025
 11
-88.55
 21
-88.75
  0
LINE
  8
0
 10
-88.55
 20
-88.75
 11
-88.5681
 21
-88.9975
  0
LINE
  8
0
 10
-88.5681
 20
-88.9975
 11
-88.6221
 21
-89.2398
  0
LINE
  8
0
 10
-88.6221
 20
-89.2398
 11
-88.7107
 21
-89.4716
  0
LINE
  8
0
 10
-88.7107
 20
-89.4716
 11
-88.8322
 21
-89.688
  0
LINE
  8
0
 10
-88.8322
 20
-89.688
 11
-88.9839
 21
-89.8844
  0
LINE
  8
0
 10
-88.9839
 20
-89.8844
 11
-89.1626
 21
-90.0567
  0
LINE
  8
0
 10
-89.1626
 20
-90.0567
 11
-89.3644
 21
-90.2011
  0
LINE
  8
0
 10
-89.3644
 20
-90.2011
 11
-89.5851
 21
-90.3146
  0
LINE
  8
0
 10
-89.5851
 20
-90.3146
 11
-89.82
 21
-90.3947
  0
LINE
  8
0
 10
-89.82
 20
-90.3947
 11
-90.0641
 21
-90.4398
  0
LINE
  8
0
 10
-90.0641
 20
-90.4398
 11
-90.3121
 21
-90.4489
  0
LINE
  8
0
 10
-90.3121
 20
-90.4489
 11
-90.5588
 21
-90.4217
  0
ENDSEC
  0
SECTION
  2
OBJECTS
  0
DICTIONARY
  0
ENDSEC
  0
EOF
