  0
SECTION
  2
BLOCKS
  0
ENDSEC
  0
SECTION
  2
ENTITIES
  0
LINE
  8
0
 10
315.523
 20
-96.2226
 11
316.04
 21
-96.1407
  0
LINE
  8
0
 10
316.04
 20
-96.1407
 11
316.545
 21
-96.0053
  0
LINE
  8
0
 10
316.545
 20
-96.0053
 11
317.034
 21
-95.8177
  0
LINE
  8
0
 10
317.034
 20
-95.8177
 11
317.5
 21
-95.5801
  0
LINE
  8
0
 10
317.5
 20
-95.5801
 11
317.939
 21
-95.2951
  0
LINE
  8
0
 10
317.939
 20
-95.2951
 11
318.346
 21
-94.9657
  0
LINE
  8
0
 10
318.346
 20
-94.9657
 11
318.716
 21
-94.5957
  0
LINE
  8
0
 10
318.716
 20
-94.5957
 11
319.045
 21
-94.1889
  0
LINE
  8
0
 10
319.045
 20
-94.1889
 11
319.33
 21
-93.75
  0
LINE
  8
0
 10
319.33
 20
-93.75
 11
319.568
 21
-93.2837
  0
LINE
  8
0
 10
319.568
 20
-93.2837
 11
319.755
 21
-92.7951
  0
LINE
  8
0
 10
319.755
 20
-92.7951
 11
319.891
 21
-92.2896
  0
LINE
  8
0
 10
319.891
 20
-92.2896
 11
319.973
 21
-91.7726
  0
LINE
  8
0
 10
319.973
 20
-91.7726
 11
320
 21
-91.25
  0
LINE
  8
0
 10
320
 20
-91.25
 11
320
 21
91.25
  0
LINE
  8
0
 10
320
 20
91.25
 11
319.973
 21
91.7726
  0
LINE
  8
0
 10
319.973
 20
91.7726
 11
319.891
 21
92.2896
  0
LINE
  8
0
 10
319.891
 20
92.2896
 11
319.755
 21
92.7951
  0
LINE
  8
0
 10
319.755
 20
92.7951
 11
319.568
 21
93.2837
  0
LINE
  8
0
 10
319.568
 20
93.2837
 11
319.33
 21
93.75
  0
LINE
  8
0
 10
319.33
 20
93.75
 11
319.045
 21
94.1889
  0
LINE
  8
0
 10
319.045
 20
94.1889
 11
318.716
 21
94.5957
  0
LINE
  8
0
 10
318.716
 20
94.5957
 11
318.346
 21
94.9657
  0
LINE
  8
0
 10
318.346
 20
94.9657
 11
317.939
 21
95.2951
  0
LINE
  8
0
 10
317.939
 20
95.2951
 11
317.5
 21
95.5801
  0
LINE
  8
0
 10
317.5
 20
95.5801
 11
317.034
 21
95.8177
  0
LINE
  8
0
 10
317.034
 20
95.8177
 11
316.545
 21
96.0053
  0
LINE
  8
0
 10
316.545
 20
96.0053
 11
316.04
 21
96.1407
  0
LINE
  8
0
 10
316.04
 20
96.1407
 11
315.523
 21
96.2226
  0
LINE
  8
0
 10
315.523
 20
96.2226
 11
315
 21
96.25
  0
LINE
  8
0
 10
315
 20
96.25
 11
-315
 21
96.25
  0
LINE
  8
0
 10
-315
 20
96.25
 11
-315.523
 21
96.2226
  0
LINE
  8
0
 10
-315.523
 20
96.2226
 11
-316.04
 21
96.1407
  0
LINE
  8
0
 10
-316.04
 20
96.1407
 11
-316.545
 21
96.0053
  0
LINE
  8
0
 10
-316.545
 20
96.0053
 11
-317.034
 21
95.8177
  0
LINE
  8
0
 10
-317.034
 20
95.8177
 11
-317.5
 21
95.5801
  0
LINE
  8
0
 10
-317.5
 20
95.5801
 11
-317.939
 21
95.2951
  0
LINE
  8
0
 10
-317.939
 20
95.2951
 11
-318.346
 21
94.9657
  0
LINE
  8
0
 10
-318.346
 20
94.9657
 11
-318.716
 21
94.5957
  0
LINE
  8
0
 10
-318.716
 20
94.5957
 11
-319.045
 21
94.1889
  0
LINE
  8
0
 10
-319.045
 20
94.1889
 11
-319.33
 21
93.75
  0
LINE
  8
0
 10
-319.33
 20
93.75
 11
-319.568
 21
93.2837
  0
LINE
  8
0
 10
-319.568
 20
93.2837
 11
-319.755
 21
92.7951
  0
LINE
  8
0
 10
-319.755
 20
92.7951
 11
-319.891
 21
92.2896
  0
LINE
  8
0
 10
-319.891
 20
92.2896
 11
-319.973
 21
91.7726
  0
LINE
  8
0
 10
-319.973
 20
91.7726
 11
-320
 21
91.25
  0
LINE
  8
0
 10
-320
 20
91.25
 11
-320
 21
-91.25
  0
LINE
  8
0
 10
-320
 20
-91.25
 11
-319.973
 21
-91.7726
  0
LINE
  8
0
 10
-319.973
 20
-91.7726
 11
-319.891
 21
-92.2896
  0
LINE
  8
0
 10
-319.891
 20
-92.2896
 11
-319.755
 21
-92.7951
  0
LINE
  8
0
 10
-319.755
 20
-92.7951
 11
-319.568
 21
-93.2837
  0
LINE
  8
0
 10
-319.568
 20
-93.2837
 11
-319.33
 21
-93.75
  0
LINE
  8
0
 10
-319.33
 20
-93.75
 11
-319.045
 21
-94.1889
  0
LINE
  8
0
 10
-319.045
 20
-94.1889
 11
-318.716
 21
-94.5957
  0
LINE
  8
0
 10
-318.716
 20
-94.5957
 11
-318.346
 21
-94.9657
  0
LINE
  8
0
 10
-318.346
 20
-94.9657
 11
-317.939
 21
-95.2951
  0
LINE
  8
0
 10
-317.939
 20
-95.2951
 11
-317.5
 21
-95.5801
  0
LINE
  8
0
 10
-317.5
 20
-95.5801
 11
-317.034
 21
-95.8177
  0
LINE
  8
0
 10
-317.034
 20
-95.8177
 11
-316.545
 21
-96.0053
  0
LINE
  8
0
 10
-316.545
 20
-96.0053
 11
-316.04
 21
-96.1407
  0
LINE
  8
0
 10
-316.04
 20
-96.1407
 11
-315.523
 21
-96.2226
  0
LINE
  8
0
 10
-315.523
 20
-96.2226
 11
-315
 21
-96.25
  0
LINE
  8
0
 10
-315
 20
-96.25
 11
315
 21
-96.25
  0
LINE
  8
0
 10
315
 20
-96.25
 11
315.523
 21
-96.2226
  0
LINE
  8
0
 10
-312.892
 20
85.0205
 11
-313.28
 21
85.0819
  0
LINE
  8
0
 10
-313.28
 20
85.0819
 11
-313.659
 21
85.1835
  0
LINE
  8
0
 10
-313.659
 20
85.1835
 11
-314.025
 21
85.3242
  0
LINE
  8
0
 10
-314.025
 20
85.3242
 11
-314.375
 21
85.5024
  0
LINE
  8
0
 10
-314.375
 20
85.5024
 11
-314.704
 21
85.7162
  0
LINE
  8
0
 10
-314.704
 20
85.7162
 11
-315.009
 21
85.9632
  0
LINE
  8
0
 10
-315.009
 20
85.9632
 11
-315.287
 21
86.2408
  0
LINE
  8
0
 10
-315.287
 20
86.2408
 11
-315.534
 21
86.5458
  0
LINE
  8
0
 10
-315.534
 20
86.5458
 11
-315.748
 21
86.875
  0
LINE
  8
0
 10
-315.748
 20
86.875
 11
-315.926
 21
87.2247
  0
LINE
  8
0
 10
-315.926
 20
87.2247
 11
-316.066
 21
87.5912
  0
LINE
  8
0
 10
-316.066
 20
87.5912
 11
-316.168
 21
87.9703
  0
LINE
  8
0
 10
-316.168
 20
87.9703
 11
-316.229
 21
88.358
  0
LINE
  8
0
 10
-316.229
 20
88.358
 11
-316.25
 21
88.75
  0
LINE
  8
0
 10
-316.25
 20
88.75
 11
-316.229
 21
89.142
  0
LINE
  8
0
 10
-316.229
 20
89.142
 11
-316.168
 21
89.5297
  0
LINE
  8
0
 10
-316.168
 20
89.5297
 11
-316.066
 21
89.9088
  0
LINE
  8
0
 10
-316.066
 20
89.9088
 11
-315.926
 21
90.2753
  0
LINE
  8
0
 10
-315.926
 20
90.2753
 11
-315.748
 21
90.625
  0
LINE
  8
0
 10
-315.748
 20
90.625
 11
-315.534
 21
90.9542
  0
LINE
  8
0
 10
-315.534
 20
90.9542
 11
-315.287
 21
91.2592
  0
LINE
  8
0
 10
-315.287
 20
91.2592
 11
-315.009
 21
91.5368
  0
LINE
  8
0
 10
-315.009
 20
91.5368
 11
-314.704
 21
91.7838
  0
LINE
  8
0
 10
-314.704
 20
91.7838
 11
-314.375
 21
91.9976
  0
LINE
  8
0
 10
-314.375
 20
91.9976
 11
-314.025
 21
92.1758
  0
LINE
  8
0
 10
-314.025
 20
92.1758
 11
-313.659
 21
92.3165
  0
LINE
  8
0
 10
-313.659
 20
92.3165
 11
-313.28
 21
92.418
  0
LINE
  8
0
 10
-313.28
 20
92.418
 11
-312.892
 21
92.4794
  0
LINE
  8
0
 10
-312.892
 20
92.4794
 11
-312.5
 21
92.5
  0
LINE
  8
0
 10
-312.5
 20
92.5
 11
-312.108
 21
92.4794
  0
LINE
  8
0
 10
-312.108
 20
92.4794
 11
-311.72
 21
92.418
  0
LINE
  8
0
 10
-311.72
 20
92.418
 11
-311.341
 21
92.3165
  0
LINE
  8
0
 10
-311.341
 20
92.3165
 11
-310.975
 21
92.1758
  0
LINE
  8
0
 10
-310.975
 20
92.1758
 11
-310.625
 21
91.9976
  0
LINE
  8
0
 10
-310.625
 20
91.9976
 11
-310.296
 21
91.7838
  0
LINE
  8
0
 10
-310.296
 20
91.7838
 11
-309.991
 21
91.5368
  0
LINE
  8
0
 10
-309.991
 20
91.5368
 11
-309.713
 21
91.2592
  0
LINE
  8
0
 10
-309.713
 20
91.2592
 11
-309.466
 21
90.9542
  0
LINE
  8
0
 10
-309.466
 20
90.9542
 11
-309.252
 21
90.625
  0
LINE
  8
0
 10
-309.252
 20
90.625
 11
-309.074
 21
90.2753
  0
LINE
  8
0
 10
-309.074
 20
90.2753
 11
-308.934
 21
89.9088
  0
LINE
  8
0
 10
-308.934
 20
89.9088
 11
-308.832
 21
89.5297
  0
LINE
  8
0
 10
-308.832
 20
89.5297
 11
-308.771
 21
89.142
  0
LINE
  8
0
 10
-308.771
 20
89.142
 11
-308.75
 21
88.75
  0
LINE
  8
0
 10
-308.75
 20
88.75
 11
-308.771
 21
88.358
  0
LINE
  8
0
 10
-308.771
 20
88.358
 11
-308.832
 21
87.9703
  0
LINE
  8
0
 10
-308.832
 20
87.9703
 11
-308.934
 21
87.5912
  0
LINE
  8
0
 10
-308.934
 20
87.5912
 11
-309.074
 21
87.2247
  0
LINE
  8
0
 10
-309.074
 20
87.2247
 11
-309.252
 21
86.875
  0
LINE
  8
0
 10
-309.252
 20
86.875
 11
-309.466
 21
86.5458
  0
LINE
  8
0
 10
-309.466
 20
86.5458
 11
-309.713
 21
86.2408
  0
LINE
  8
0
 10
-309.713
 20
86.2408
 11
-309.991
 21
85.9632
  0
LINE
  8
0
 10
-309.991
 20
85.9632
 11
-310.296
 21
85.7162
  0
LINE
  8
0
 10
-310.296
 20
85.7162
 11
-310.625
 21
85.5024
  0
LINE
  8
0
 10
-310.625
 20
85.5024
 11
-310.975
 21
85.3242
  0
LINE
  8
0
 10
-310.975
 20
85.3242
 11
-311.341
 21
85.1835
  0
LINE
  8
0
 10
-311.341
 20
85.1835
 11
-311.72
 21
85.0819
  0
LINE
  8
0
 10
-311.72
 20
85.0819
 11
-312.108
 21
85.0205
  0
LINE
  8
0
 10
-312.108
 20
85.0205
 11
-312.5
 21
85
  0
LINE
  8
0
 10
-312.5
 20
85
 11
-312.892
 21
85.0205
  0
LINE
  8
0
 10
312.108
 20
85.0205
 11
311.72
 21
85.0819
  0
LINE
  8
0
 10
311.72
 20
85.0819
 11
311.341
 21
85.1835
  0
LINE
  8
0
 10
311.341
 20
85.1835
 11
310.975
 21
85.3242
  0
LINE
  8
0
 10
310.975
 20
85.3242
 11
310.625
 21
85.5024
  0
LINE
  8
0
 10
310.625
 20
85.5024
 11
310.296
 21
85.7162
  0
LINE
  8
0
 10
310.296
 20
85.7162
 11
309.991
 21
85.9632
  0
LINE
  8
0
 10
309.991
 20
85.9632
 11
309.713
 21
86.2408
  0
LINE
  8
0
 10
309.713
 20
86.2408
 11
309.466
 21
86.5458
  0
LINE
  8
0
 10
309.466
 20
86.5458
 11
309.252
 21
86.875
  0
LINE
  8
0
 10
309.252
 20
86.875
 11
309.074
 21
87.2247
  0
LINE
  8
0
 10
309.074
 20
87.2247
 11
308.934
 21
87.5912
  0
LINE
  8
0
 10
308.934
 20
87.5912
 11
308.832
 21
87.9703
  0
LINE
  8
0
 10
308.832
 20
87.9703
 11
308.771
 21
88.358
  0
LINE
  8
0
 10
308.771
 20
88.358
 11
308.75
 21
88.75
  0
LINE
  8
0
 10
308.75
 20
88.75
 11
308.771
 21
89.142
  0
LINE
  8
0
 10
308.771
 20
89.142
 11
308.832
 21
89.5297
  0
LINE
  8
0
 10
308.832
 20
89.5297
 11
308.934
 21
89.9088
  0
LINE
  8
0
 10
308.934
 20
89.9088
 11
309.074
 21
90.2753
  0
LINE
  8
0
 10
309.074
 20
90.2753
 11
309.252
 21
90.625
  0
LINE
  8
0
 10
309.252
 20
90.625
 11
309.466
 21
90.9542
  0
LINE
  8
0
 10
309.466
 20
90.9542
 11
309.713
 21
91.2592
  0
LINE
  8
0
 10
309.713
 20
91.2592
 11
309.991
 21
91.5368
  0
LINE
  8
0
 10
309.991
 20
91.5368
 11
310.296
 21
91.7838
  0
LINE
  8
0
 10
310.296
 20
91.7838
 11
310.625
 21
91.9976
  0
LINE
  8
0
 10
310.625
 20
91.9976
 11
310.975
 21
92.1758
  0
LINE
  8
0
 10
310.975
 20
92.1758
 11
311.341
 21
92.3165
  0
LINE
  8
0
 10
311.341
 20
92.3165
 11
311.72
 21
92.418
  0
LINE
  8
0
 10
311.72
 20
92.418
 11
312.108
 21
92.4794
  0
LINE
  8
0
 10
312.108
 20
92.4794
 11
312.5
 21
92.5
  0
LINE
  8
0
 10
312.5
 20
92.5
 11
312.892
 21
92.4794
  0
LINE
  8
0
 10
312.892
 20
92.4794
 11
313.28
 21
92.418
  0
LINE
  8
0
 10
313.28
 20
92.418
 11
313.659
 21
92.3165
  0
LINE
  8
0
 10
313.659
 20
92.3165
 11
314.025
 21
92.1758
  0
LINE
  8
0
 10
314.025
 20
92.1758
 11
314.375
 21
91.9976
  0
LINE
  8
0
 10
314.375
 20
91.9976
 11
314.704
 21
91.7838
  0
LINE
  8
0
 10
314.704
 20
91.7838
 11
315.009
 21
91.5368
  0
LINE
  8
0
 10
315.009
 20
91.5368
 11
315.287
 21
91.2592
  0
LINE
  8
0
 10
315.287
 20
91.2592
 11
315.534
 21
90.9542
  0
LINE
  8
0
 10
315.534
 20
90.9542
 11
315.748
 21
90.625
  0
LINE
  8
0
 10
315.748
 20
90.625
 11
315.926
 21
90.2753
  0
LINE
  8
0
 10
315.926
 20
90.2753
 11
316.066
 21
89.9088
  0
LINE
  8
0
 10
316.066
 20
89.9088
 11
316.168
 21
89.5297
  0
LINE
  8
0
 10
316.168
 20
89.5297
 11
316.229
 21
89.142
  0
LINE
  8
0
 10
316.229
 20
89.142
 11
316.25
 21
88.75
  0
LINE
  8
0
 10
316.25
 20
88.75
 11
316.229
 21
88.358
  0
LINE
  8
0
 10
316.229
 20
88.358
 11
316.168
 21
87.9703
  0
LINE
  8
0
 10
316.168
 20
87.9703
 11
316.066
 21
87.5912
  0
LINE
  8
0
 10
316.066
 20
87.5912
 11
315.926
 21
87.2247
  0
LINE
  8
0
 10
315.926
 20
87.2247
 11
315.748
 21
86.875
  0
LINE
  8
0
 10
315.748
 20
86.875
 11
315.534
 21
86.5458
  0
LINE
  8
0
 10
315.534
 20
86.5458
 11
315.287
 21
86.2408
  0
LINE
  8
0
 10
315.287
 20
86.2408
 11
315.009
 21
85.9632
  0
LINE
  8
0
 10
315.009
 20
85.9632
 11
314.704
 21
85.7162
  0
LINE
  8
0
 10
314.704
 20
85.7162
 11
314.375
 21
85.5024
  0
LINE
  8
0
 10
314.375
 20
85.5024
 11
314.025
 21
85.3242
  0
LINE
  8
0
 10
314.025
 20
85.3242
 11
313.659
 21
85.1835
  0
LINE
  8
0
 10
313.659
 20
85.1835
 11
313.28
 21
85.0819
  0
LINE
  8
0
 10
313.28
 20
85.0819
 11
312.892
 21
85.0205
  0
LINE
  8
0
 10
312.892
 20
85.0205
 11
312.5
 21
85
  0
LINE
  8
0
 10
312.5
 20
85
 11
312.108
 21
85.0205
  0
LINE
  8
0
 10
-270.309
 20
87.0783
 11
-270.549
 21
87.1411
  0
LINE
  8
0
 10
-270.549
 20
87.1411
 11
-270.777
 21
87.2381
  0
LINE
  8
0
 10
-270.777
 20
87.2381
 11
-270.989
 21
87.3674
  0
LINE
  8
0
 10
-270.989
 20
87.3674
 11
-271.18
 21
87.5262
  0
LINE
  8
0
 10
-271.18
 20
87.5262
 11
-271.346
 21
87.711
  0
LINE
  8
0
 10
-271.346
 20
87.711
 11
-271.482
 21
87.918
  0
LINE
  8
0
 10
-271.482
 20
87.918
 11
-271.588
 21
88.1427
  0
LINE
  8
0
 10
-271.588
 20
88.1427
 11
-271.659
 21
88.3804
  0
LINE
  8
0
 10
-271.659
 20
88.3804
 11
-271.695
 21
88.6259
  0
LINE
  8
0
 10
-271.695
 20
88.6259
 11
-271.695
 21
88.8741
  0
LINE
  8
0
 10
-271.695
 20
88.8741
 11
-271.659
 21
89.1196
  0
LINE
  8
0
 10
-271.659
 20
89.1196
 11
-271.588
 21
89.3573
  0
LINE
  8
0
 10
-271.588
 20
89.3573
 11
-271.482
 21
89.582
  0
LINE
  8
0
 10
-271.482
 20
89.582
 11
-271.346
 21
89.789
  0
LINE
  8
0
 10
-271.346
 20
89.789
 11
-271.18
 21
89.9738
  0
LINE
  8
0
 10
-271.18
 20
89.9738
 11
-270.989
 21
90.1326
  0
LINE
  8
0
 10
-270.989
 20
90.1326
 11
-270.777
 21
90.2619
  0
LINE
  8
0
 10
-270.777
 20
90.2619
 11
-270.549
 21
90.3589
  0
LINE
  8
0
 10
-270.549
 20
90.3589
 11
-270.309
 21
90.4217
  0
LINE
  8
0
 10
-270.309
 20
90.4217
 11
-270.062
 21
90.4489
  0
LINE
  8
0
 10
-270.062
 20
90.4489
 11
-269.814
 21
90.4398
  0
LINE
  8
0
 10
-269.814
 20
90.4398
 11
-269.57
 21
90.3947
  0
LINE
  8
0
 10
-269.57
 20
90.3947
 11
-269.335
 21
90.3146
  0
LINE
  8
0
 10
-269.335
 20
90.3146
 11
-269.114
 21
90.2011
  0
LINE
  8
0
 10
-269.114
 20
90.2011
 11
-268.913
 21
90.0567
  0
LINE
  8
0
 10
-268.913
 20
90.0567
 11
-268.734
 21
89.8844
  0
LINE
  8
0
 10
-268.734
 20
89.8844
 11
-268.582
 21
89.688
  0
LINE
  8
0
 10
-268.582
 20
89.688
 11
-268.461
 21
89.4716
  0
LINE
  8
0
 10
-268.461
 20
89.4716
 11
-268.372
 21
89.2398
  0
LINE
  8
0
 10
-268.372
 20
89.2398
 11
-268.318
 21
88.9975
  0
LINE
  8
0
 10
-268.318
 20
88.9975
 11
-268.3
 21
88.75
  0
LINE
  8
0
 10
-268.3
 20
88.75
 11
-268.318
 21
88.5025
  0
LINE
  8
0
 10
-268.318
 20
88.5025
 11
-268.372
 21
88.2602
  0
LINE
  8
0
 10
-268.372
 20
88.2602
 11
-268.461
 21
88.0284
  0
LINE
  8
0
 10
-268.461
 20
88.0284
 11
-268.582
 21
87.812
  0
LINE
  8
0
 10
-268.582
 20
87.812
 11
-268.734
 21
87.6156
  0
LINE
  8
0
 10
-268.734
 20
87.6156
 11
-268.913
 21
87.4433
  0
LINE
  8
0
 10
-268.913
 20
87.4433
 11
-269.114
 21
87.2989
  0
LINE
  8
0
 10
-269.114
 20
87.2989
 11
-269.335
 21
87.1854
  0
LINE
  8
0
 10
-269.335
 20
87.1854
 11
-269.57
 21
87.1053
  0
LINE
  8
0
 10
-269.57
 20
87.1053
 11
-269.814
 21
87.0602
  0
LINE
  8
0
 10
-269.814
 20
87.0602
 11
-270.062
 21
87.0511
  0
LINE
  8
0
 10
-270.062
 20
87.0511
 11
-270.309
 21
87.0783
  0
LINE
  8
0
 10
-90.3088
 20
87.0783
 11
-90.5489
 21
87.1411
  0
LINE
  8
0
 10
-90.5489
 20
87.1411
 11
-90.7773
 21
87.2381
  0
LINE
  8
0
 10
-90.7773
 20
87.2381
 11
-90.9892
 21
87.3674
  0
LINE
  8
0
 10
-90.9892
 20
87.3674
 11
-91.1799
 21
87.5262
  0
LINE
  8
0
 10
-91.1799
 20
87.5262
 11
-91.3455
 21
87.711
  0
LINE
  8
0
 10
-91.3455
 20
87.711
 11
-91.4825
 21
87.918
  0
LINE
  8
0
 10
-91.4825
 20
87.918
 11
-91.5878
 21
88.1427
  0
LINE
  8
0
 10
-91.5878
 20
88.1427
 11
-91.6593
 21
88.3804
  0
LINE
  8
0
 10
-91.6593
 20
88.3804
 11
-91.6955
 21
88.6259
  0
LINE
  8
0
 10
-91.6955
 20
88.6259
 11
-91.6955
 21
88.8741
  0
LINE
  8
0
 10
-91.6955
 20
88.8741
 11
-91.6593
 21
89.1196
  0
LINE
  8
0
 10
-91.6593
 20
89.1196
 11
-91.5878
 21
89.3573
  0
LINE
  8
0
 10
-91.5878
 20
89.3573
 11
-91.4825
 21
89.582
  0
LINE
  8
0
 10
-91.4825
 20
89.582
 11
-91.3455
 21
89.789
  0
LINE
  8
0
 10
-91.3455
 20
89.789
 11
-91.1799
 21
89.9738
  0
LINE
  8
0
 10
-91.1799
 20
89.9738
 11
-90.9892
 21
90.1326
  0
LINE
  8
0
 10
-90.9892
 20
90.1326
 11
-90.7773
 21
90.2619
  0
LINE
  8
0
 10
-90.7773
 20
90.2619
 11
-90.5489
 21
90.3589
  0
LINE
  8
0
 10
-90.5489
 20
90.3589
 11
-90.3088
 21
90.4217
  0
LINE
  8
0
 10
-90.3088
 20
90.4217
 11
-90.0621
 21
90.4489
  0
LINE
  8
0
 10
-90.0621
 20
90.4489
 11
-89.8141
 21
90.4398
  0
LINE
  8
0
 10
-89.8141
 20
90.4398
 11
-89.57
 21
90.3947
  0
LINE
  8
0
 10
-89.57
 20
90.3947
 11
-89.3351
 21
90.3146
  0
LINE
  8
0
 10
-89.3351
 20
90.3146
 11
-89.1144
 21
90.2011
  0
LINE
  8
0
 10
-89.1144
 20
90.2011
 11
-88.9126
 21
90.0567
  0
LINE
  8
0
 10
-88.9126
 20
90.0567
 11
-88.7339
 21
89.8844
  0
LINE
  8
0
 10
-88.7339
 20
89.8844
 11
-88.5822
 21
89.688
  0
LINE
  8
0
 10
-88.5822
 20
89.688
 11
-88.4607
 21
89.4716
  0
LINE
  8
0
 10
-88.4607
 20
89.4716
 11
-88.3721
 21
89.2398
  0
LINE
  8
0
 10
-88.3721
 20
89.2398
 11
-88.3181
 21
88.9975
  0
LINE
  8
0
 10
-88.3181
 20
88.9975
 11
-88.3
 21
88.75
  0
LINE
  8
0
 10
-88.3
 20
88.75
 11
-88.3181
 21
88.5025
  0
LINE
  8
0
 10
-88.3181
 20
88.5025
 11
-88.3721
 21
88.2602
  0
LINE
  8
0
 10
-88.3721
 20
88.2602
 11
-88.4607
 21
88.0284
  0
LINE
  8
0
 10
-88.4607
 20
88.0284
 11
-88.5822
 21
87.812
  0
LINE
  8
0
 10
-88.5822
 20
87.812
 11
-88.7339
 21
87.6156
  0
LINE
  8
0
 10
-88.7339
 20
87.6156
 11
-88.9126
 21
87.4433
  0
LINE
  8
0
 10
-88.9126
 20
87.4433
 11
-89.1144
 21
87.2989
  0
LINE
  8
0
 10
-89.1144
 20
87.2989
 11
-89.3351
 21
87.1854
  0
LINE
  8
0
 10
-89.3351
 20
87.1854
 11
-89.57
 21
87.1053
  0
LINE
  8
0
 10
-89.57
 20
87.1053
 11
-89.8141
 21
87.0602
  0
LINE
  8
0
 10
-89.8141
 20
87.0602
 11
-90.0621
 21
87.0511
  0
LINE
  8
0
 10
-90.0621
 20
87.0511
 11
-90.3088
 21
87.0783
  0
LINE
  8
0
 10
-0.308777
 20
87.0783
 11
-0.548889
 21
87.1411
  0
LINE
  8
0
 10
-0.548889
 20
87.1411
 11
-0.777298
 21
87.2381
  0
LINE
  8
0
 10
-0.777298
 20
87.2381
 11
-0.989151
 21
87.3674
  0
LINE
  8
0
 10
-0.989151
 20
87.3674
 11
-1.17992
 21
87.5262
  0
LINE
  8
0
 10
-1.17992
 20
87.5262
 11
-1.34554
 21
87.711
  0
LINE
  8
0
 10
-1.34554
 20
87.711
 11
-1.48248
 21
87.918
  0
LINE
  8
0
 10
-1.48248
 20
87.918
 11
-1.58781
 21
88.1427
  0
LINE
  8
0
 10
-1.58781
 20
88.1427
 11
-1.65932
 21
88.3804
  0
LINE
  8
0
 10
-1.65932
 20
88.3804
 11
-1.69545
 21
88.6259
  0
LINE
  8
0
 10
-1.69545
 20
88.6259
 11
-1.69545
 21
88.8741
  0
LINE
  8
0
 10
-1.69545
 20
88.8741
 11
-1.65932
 21
89.1196
  0
LINE
  8
0
 10
-1.65932
 20
89.1196
 11
-1.58781
 21
89.3573
  0
LINE
  8
0
 10
-1.58781
 20
89.3573
 11
-1.48248
 21
89.582
  0
LINE
  8
0
 10
-1.48248
 20
89.582
 11
-1.34554
 21
89.789
  0
LINE
  8
0
 10
-1.34554
 20
89.789
 11
-1.17992
 21
89.9738
  0
LINE
  8
0
 10
-1.17992
 20
89.9738
 11
-0.989151
 21
90.1326
  0
LINE
  8
0
 10
-0.989151
 20
90.1326
 11
-0.777298
 21
90.2619
  0
LINE
  8
0
 10
-0.777298
 20
90.2619
 11
-0.548889
 21
90.3589
  0
LINE
  8
0
 10
-0.548889
 20
90.3589
 11
-0.308777
 21
90.4217
  0
LINE
  8
0
 10
-0.308777
 20
90.4217
 11
-0.0620728
 21
90.4489
  0
LINE
  8
0
 10
-0.0620728
 20
90.4489
 11
0.185928
 21
90.4398
  0
LINE
  8
0
 10
0.185928
 20
90.4398
 11
0.429977
 21
90.3947
  0
LINE
  8
0
 10
0.429977
 20
90.3947
 11
0.664871
 21
90.3146
  0
LINE
  8
0
 10
0.664871
 20
90.3146
 11
0.88559
 21
90.2011
  0
LINE
  8
0
 10
0.88559
 20
90.2011
 11
1.08743
 21
90.0567
  0
LINE
  8
0
 10
1.08743
 20
90.0567
 11
1.2661
 21
89.8844
  0
LINE
  8
0
 10
1.2661
 20
89.8844
 11
1.41779
 21
89.688
  0
LINE
  8
0
 10
1.41779
 20
89.688
 11
1.53926
 21
89.4716
  0
LINE
  8
0
 10
1.53926
 20
89.4716
 11
1.62791
 21
89.2398
  0
LINE
  8
0
 10
1.62791
 20
89.2398
 11
1.68187
 21
88.9975
  0
LINE
  8
0
 10
1.68187
 20
88.9975
 11
1.7
 21
88.75
  0
LINE
  8
0
 10
1.7
 20
88.75
 11
1.68187
 21
88.5025
  0
LINE
  8
0
 10
1.68187
 20
88.5025
 11
1.62791
 21
88.2602
  0
LINE
  8
0
 10
1.62791
 20
88.2602
 11
1.53926
 21
88.0284
  0
LINE
  8
0
 10
1.53926
 20
88.0284
 11
1.41779
 21
87.812
  0
LINE
  8
0
 10
1.41779
 20
87.812
 11
1.2661
 21
87.6156
  0
LINE
  8
0
 10
1.2661
 20
87.6156
 11
1.08743
 21
87.4433
  0
LINE
  8
0
 10
1.08743
 20
87.4433
 11
0.88559
 21
87.2989
  0
LINE
  8
0
 10
0.88559
 20
87.2989
 11
0.664871
 21
87.1854
  0
LINE
  8
0
 10
0.664871
 20
87.1854
 11
0.429977
 21
87.1053
  0
LINE
  8
0
 10
0.429977
 20
87.1053
 11
0.185928
 21
87.0602
  0
LINE
  8
0
 10
0.185928
 20
87.0602
 11
-0.0620728
 21
87.0511
  0
LINE
  8
0
 10
-0.0620728
 20
87.0511
 11
-0.308777
 21
87.0783
  0
LINE
  8
0
 10
89.6912
 20
87.0783
 11
89.4511
 21
87.1411
  0
LINE
  8
0
 10
89.4511
 20
87.1411
 11
89.2227
 21
87.2381
  0
LINE
  8
0
 10
89.2227
 20
87.2381
 11
89.0108
 21
87.3674
  0
LINE
  8
0
 10
89.0108
 20
87.3674
 11
88.8201
 21
87.5262
  0
LINE
  8
0
 10
88.8201
 20
87.5262
 11
88.6544
 21
87.711
  0
LINE
  8
0
 10
88.6544
 20
87.711
 11
88.5175
 21
87.918
  0
LINE
  8
0
 10
88.5175
 20
87.918
 11
88.4122
 21
88.1427
  0
LINE
  8
0
 10
88.4122
 20
88.1427
 11
88.3407
 21
88.3804
  0
LINE
  8
0
 10
88.3407
 20
88.3804
 11
88.3045
 21
88.6259
  0
LINE
  8
0
 10
88.3045
 20
88.6259
 11
88.3045
 21
88.8741
  0
LINE
  8
0
 10
88.3045
 20
88.8741
 11
88.3407
 21
89.1196
  0
LINE
  8
0
 10
88.3407
 20
89.1196
 11
88.4122
 21
89.3573
  0
LINE
  8
0
 10
88.4122
 20
89.3573
 11
88.5175
 21
89.582
  0
LINE
  8
0
 10
88.5175
 20
89.582
 11
88.6544
 21
89.789
  0
LINE
  8
0
 10
88.6544
 20
89.789
 11
88.8201
 21
89.9738
  0
LINE
  8
0
 10
88.8201
 20
89.9738
 11
89.0108
 21
90.1326
  0
LINE
  8
0
 10
89.0108
 20
90.1326
 11
89.2227
 21
90.2619
  0
LINE
  8
0
 10
89.2227
 20
90.2619
 11
89.4511
 21
90.3589
  0
LINE
  8
0
 10
89.4511
 20
90.3589
 11
89.6912
 21
90.4217
  0
LINE
  8
0
 10
89.6912
 20
90.4217
 11
89.9379
 21
90.4489
  0
LINE
  8
0
 10
89.9379
 20
90.4489
 11
90.1859
 21
90.4398
  0
LINE
  8
0
 10
90.1859
 20
90.4398
 11
90.43
 21
90.3947
  0
LINE
  8
0
 10
90.43
 20
90.3947
 11
90.6649
 21
90.3146
  0
LINE
  8
0
 10
90.6649
 20
90.3146
 11
90.8856
 21
90.2011
  0
LINE
  8
0
 10
90.8856
 20
90.2011
 11
91.0874
 21
90.0567
  0
LINE
  8
0
 10
91.0874
 20
90.0567
 11
91.2661
 21
89.8844
  0
LINE
  8
0
 10
91.2661
 20
89.8844
 11
91.4178
 21
89.688
  0
LINE
  8
0
 10
91.4178
 20
89.688
 11
91.5393
 21
89.4716
  0
LINE
  8
0
 10
91.5393
 20
89.4716
 11
91.6279
 21
89.2398
  0
LINE
  8
0
 10
91.6279
 20
89.2398
 11
91.6819
 21
88.9975
  0
LINE
  8
0
 10
91.6819
 20
88.9975
 11
91.7
 21
88.75
  0
LINE
  8
0
 10
91.7
 20
88.75
 11
91.6819
 21
88.5025
  0
LINE
  8
0
 10
91.6819
 20
88.5025
 11
91.6279
 21
88.2602
  0
LINE
  8
0
 10
91.6279
 20
88.2602
 11
91.5393
 21
88.0284
  0
LINE
  8
0
 10
91.5393
 20
88.0284
 11
91.4178
 21
87.812
  0
LINE
  8
0
 10
91.4178
 20
87.812
 11
91.2661
 21
87.6156
  0
LINE
  8
0
 10
91.2661
 20
87.6156
 11
91.0874
 21
87.4433
  0
LINE
  8
0
 10
91.0874
 20
87.4433
 11
90.8856
 21
87.2989
  0
LINE
  8
0
 10
90.8856
 20
87.2989
 11
90.6649
 21
87.1854
  0
LINE
  8
0
 10
90.6649
 20
87.1854
 11
90.43
 21
87.1053
  0
LINE
  8
0
 10
90.43
 20
87.1053
 11
90.1859
 21
87.0602
  0
LINE
  8
0
 10
90.1859
 20
87.0602
 11
89.9379
 21
87.0511
  0
LINE
  8
0
 10
89.9379
 20
87.0511
 11
89.6912
 21
87.0783
  0
LINE
  8
0
 10
179.691
 20
87.0783
 11
179.451
 21
87.1411
  0
LINE
  8
0
 10
179.451
 20
87.1411
 11
179.223
 21
87.2381
  0
LINE
  8
0
 10
179.223
 20
87.2381
 11
179.011
 21
87.3674
  0
LINE
  8
0
 10
179.011
 20
87.3674
 11
178.82
 21
87.5262
  0
LINE
  8
0
 10
178.82
 20
87.5262
 11
178.654
 21
87.711
  0
LINE
  8
0
 10
178.654
 20
87.711
 11
178.518
 21
87.918
  0
LINE
  8
0
 10
178.518
 20
87.918
 11
178.412
 21
88.1427
  0
LINE
  8
0
 10
178.412
 20
88.1427
 11
178.341
 21
88.3804
  0
LINE
  8
0
 10
178.341
 20
88.3804
 11
178.305
 21
88.6259
  0
LINE
  8
0
 10
178.305
 20
88.6259
 11
178.305
 21
88.8741
  0
LINE
  8
0
 10
178.305
 20
88.8741
 11
178.341
 21
89.1196
  0
LINE
  8
0
 10
178.341
 20
89.1196
 11
178.412
 21
89.3573
  0
LINE
  8
0
 10
178.412
 20
89.3573
 11
178.518
 21
89.582
  0
LINE
  8
0
 10
178.518
 20
89.582
 11
178.654
 21
89.789
  0
LINE
  8
0
 10
178.654
 20
89.789
 11
178.82
 21
89.9738
  0
LINE
  8
0
 10
178.82
 20
89.9738
 11
179.011
 21
90.1326
  0
LINE
  8
0
 10
179.011
 20
90.1326
 11
179.223
 21
90.2619
  0
LINE
  8
0
 10
179.223
 20
90.2619
 11
179.451
 21
90.3589
  0
LINE
  8
0
 10
179.451
 20
90.3589
 11
179.691
 21
90.4217
  0
LINE
  8
0
 10
179.691
 20
90.4217
 11
179.938
 21
90.4489
  0
LINE
  8
0
 10
179.938
 20
90.4489
 11
180.186
 21
90.4398
  0
LINE
  8
0
 10
180.186
 20
90.4398
 11
180.43
 21
90.3947
  0
LINE
  8
0
 10
180.43
 20
90.3947
 11
180.665
 21
90.3146
  0
LINE
  8
0
 10
180.665
 20
90.3146
 11
180.886
 21
90.2011
  0
LINE
  8
0
 10
180.886
 20
90.2011
 11
181.087
 21
90.0567
  0
LINE
  8
0
 10
181.087
 20
90.0567
 11
181.266
 21
89.8844
  0
LINE
  8
0
 10
181.266
 20
89.8844
 11
181.418
 21
89.688
  0
LINE
  8
0
 10
181.418
 20
89.688
 11
181.539
 21
89.4716
  0
LINE
  8
0
 10
181.539
 20
89.4716
 11
181.628
 21
89.2398
  0
LINE
  8
0
 10
181.628
 20
89.2398
 11
181.682
 21
88.9975
  0
LINE
  8
0
 10
181.682
 20
88.9975
 11
181.7
 21
88.75
  0
LINE
  8
0
 10
181.7
 20
88.75
 11
181.682
 21
88.5025
  0
LINE
  8
0
 10
181.682
 20
88.5025
 11
181.628
 21
88.2602
  0
LINE
  8
0
 10
181.628
 20
88.2602
 11
181.539
 21
88.0284
  0
LINE
  8
0
 10
181.539
 20
88.0284
 11
181.418
 21
87.812
  0
LINE
  8
0
 10
181.418
 20
87.812
 11
181.266
 21
87.6156
  0
LINE
  8
0
 10
181.266
 20
87.6156
 11
181.087
 21
87.4433
  0
LINE
  8
0
 10
181.087
 20
87.4433
 11
180.886
 21
87.2989
  0
LINE
  8
0
 10
180.886
 20
87.2989
 11
180.665
 21
87.1854
  0
LINE
  8
0
 10
180.665
 20
87.1854
 11
180.43
 21
87.1053
  0
LINE
  8
0
 10
180.43
 20
87.1053
 11
180.186
 21
87.0602
  0
LINE
  8
0
 10
180.186
 20
87.0602
 11
179.938
 21
87.0511
  0
LINE
  8
0
 10
179.938
 20
87.0511
 11
179.691
 21
87.0783
  0
LINE
  8
0
 10
269.691
 20
87.0783
 11
269.451
 21
87.1411
  0
LINE
  8
0
 10
269.451
 20
87.1411
 11
269.223
 21
87.2381
  0
LINE
  8
0
 10
269.223
 20
87.2381
 11
269.011
 21
87.3674
  0
LINE
  8
0
 10
269.011
 20
87.3674
 11
268.82
 21
87.5262
  0
LINE
  8
0
 10
268.82
 20
87.5262
 11
268.654
 21
87.711
  0
LINE
  8
0
 10
268.654
 20
87.711
 11
268.518
 21
87.918
  0
LINE
  8
0
 10
268.518
 20
87.918
 11
268.412
 21
88.1427
  0
LINE
  8
0
 10
268.412
 20
88.1427
 11
268.341
 21
88.3804
  0
LINE
  8
0
 10
268.341
 20
88.3804
 11
268.305
 21
88.6259
  0
LINE
  8
0
 10
268.305
 20
88.6259
 11
268.305
 21
88.8741
  0
LINE
  8
0
 10
268.305
 20
88.8741
 11
268.341
 21
89.1196
  0
LINE
  8
0
 10
268.341
 20
89.1196
 11
268.412
 21
89.3573
  0
LINE
  8
0
 10
268.412
 20
89.3573
 11
268.518
 21
89.582
  0
LINE
  8
0
 10
268.518
 20
89.582
 11
268.654
 21
89.789
  0
LINE
  8
0
 10
268.654
 20
89.789
 11
268.82
 21
89.9738
  0
LINE
  8
0
 10
268.82
 20
89.9738
 11
269.011
 21
90.1326
  0
LINE
  8
0
 10
269.011
 20
90.1326
 11
269.223
 21
90.2619
  0
LINE
  8
0
 10
269.223
 20
90.2619
 11
269.451
 21
90.3589
  0
LINE
  8
0
 10
269.451
 20
90.3589
 11
269.691
 21
90.4217
  0
LINE
  8
0
 10
269.691
 20
90.4217
 11
269.938
 21
90.4489
  0
LINE
  8
0
 10
269.938
 20
90.4489
 11
270.186
 21
90.4398
  0
LINE
  8
0
 10
270.186
 20
90.4398
 11
270.43
 21
90.3947
  0
LINE
  8
0
 10
270.43
 20
90.3947
 11
270.665
 21
90.3146
  0
LINE
  8
0
 10
270.665
 20
90.3146
 11
270.886
 21
90.2011
  0
LINE
  8
0
 10
270.886
 20
90.2011
 11
271.087
 21
90.0567
  0
LINE
  8
0
 10
271.087
 20
90.0567
 11
271.266
 21
89.8844
  0
LINE
  8
0
 10
271.266
 20
89.8844
 11
271.418
 21
89.688
  0
LINE
  8
0
 10
271.418
 20
89.688
 11
271.539
 21
89.4716
  0
LINE
  8
0
 10
271.539
 20
89.4716
 11
271.628
 21
89.2398
  0
LINE
  8
0
 10
271.628
 20
89.2398
 11
271.682
 21
88.9975
  0
LINE
  8
0
 10
271.682
 20
88.9975
 11
271.7
 21
88.75
  0
LINE
  8
0
 10
271.7
 20
88.75
 11
271.682
 21
88.5025
  0
LINE
  8
0
 10
271.682
 20
88.5025
 11
271.628
 21
88.2602
  0
LINE
  8
0
 10
271.628
 20
88.2602
 11
271.539
 21
88.0284
  0
LINE
  8
0
 10
271.539
 20
88.0284
 11
271.418
 21
87.812
  0
LINE
  8
0
 10
271.418
 20
87.812
 11
271.266
 21
87.6156
  0
LINE
  8
0
 10
271.266
 20
87.6156
 11
271.087
 21
87.4433
  0
LINE
  8
0
 10
271.087
 20
87.4433
 11
270.886
 21
87.2989
  0
LINE
  8
0
 10
270.886
 20
87.2989
 11
270.665
 21
87.1854
  0
LINE
  8
0
 10
270.665
 20
87.1854
 11
270.43
 21
87.1053
  0
LINE
  8
0
 10
270.43
 20
87.1053
 11
270.186
 21
87.0602
  0
LINE
  8
0
 10
270.186
 20
87.0602
 11
269.938
 21
87.0511
  0
LINE
  8
0
 10
269.938
 20
87.0511
 11
269.691
 21
87.0783
  0
LINE
  8
0
 10
-180.309
 20
87.0783
 11
-180.549
 21
87.1411
  0
LINE
  8
0
 10
-180.549
 20
87.1411
 11
-180.777
 21
87.2381
  0
LINE
  8
0
 10
-180.777
 20
87.2381
 11
-180.989
 21
87.3674
  0
LINE
  8
0
 10
-180.989
 20
87.3674
 11
-181.18
 21
87.5262
  0
LINE
  8
0
 10
-181.18
 20
87.5262
 11
-181.346
 21
87.711
  0
LINE
  8
0
 10
-181.346
 20
87.711
 11
-181.482
 21
87.918
  0
LINE
  8
0
 10
-181.482
 20
87.918
 11
-181.588
 21
88.1427
  0
LINE
  8
0
 10
-181.588
 20
88.1427
 11
-181.659
 21
88.3804
  0
LINE
  8
0
 10
-181.659
 20
88.3804
 11
-181.695
 21
88.6259
  0
LINE
  8
0
 10
-181.695
 20
88.6259
 11
-181.695
 21
88.8741
  0
LINE
  8
0
 10
-181.695
 20
88.8741
 11
-181.659
 21
89.1196
  0
LINE
  8
0
 10
-181.659
 20
89.1196
 11
-181.588
 21
89.3573
  0
LINE
  8
0
 10
-181.588
 20
89.3573
 11
-181.482
 21
89.582
  0
LINE
  8
0
 10
-181.482
 20
89.582
 11
-181.346
 21
89.789
  0
LINE
  8
0
 10
-181.346
 20
89.789
 11
-181.18
 21
89.9738
  0
LINE
  8
0
 10
-181.18
 20
89.9738
 11
-180.989
 21
90.1326
  0
LINE
  8
0
 10
-180.989
 20
90.1326
 11
-180.777
 21
90.2619
  0
LINE
  8
0
 10
-180.777
 20
90.2619
 11
-180.549
 21
90.3589
  0
LINE
  8
0
 10
-180.549
 20
90.3589
 11
-180.309
 21
90.4217
  0
LINE
  8
0
 10
-180.309
 20
90.4217
 11
-180.062
 21
90.4489
  0
LINE
  8
0
 10
-180.062
 20
90.4489
 11
-179.814
 21
90.4398
  0
LINE
  8
0
 10
-179.814
 20
90.4398
 11
-179.57
 21
90.3947
  0
LINE
  8
0
 10
-179.57
 20
90.3947
 11
-179.335
 21
90.3146
  0
LINE
  8
0
 10
-179.335
 20
90.3146
 11
-179.114
 21
90.2011
  0
LINE
  8
0
 10
-179.114
 20
90.2011
 11
-178.913
 21
90.0567
  0
LINE
  8
0
 10
-178.913
 20
90.0567
 11
-178.734
 21
89.8844
  0
LINE
  8
0
 10
-178.734
 20
89.8844
 11
-178.582
 21
89.688
  0
LINE
  8
0
 10
-178.582
 20
89.688
 11
-178.461
 21
89.4716
  0
LINE
  8
0
 10
-178.461
 20
89.4716
 11
-178.372
 21
89.2398
  0
LINE
  8
0
 10
-178.372
 20
89.2398
 11
-178.318
 21
88.9975
  0
LINE
  8
0
 10
-178.318
 20
88.9975
 11
-178.3
 21
88.75
  0
LINE
  8
0
 10
-178.3
 20
88.75
 11
-178.318
 21
88.5025
  0
LINE
  8
0
 10
-178.318
 20
88.5025
 11
-178.372
 21
88.2602
  0
LINE
  8
0
 10
-178.372
 20
88.2602
 11
-178.461
 21
88.0284
  0
LINE
  8
0
 10
-178.461
 20
88.0284
 11
-178.582
 21
87.812
  0
LINE
  8
0
 10
-178.582
 20
87.812
 11
-178.734
 21
87.6156
  0
LINE
  8
0
 10
-178.734
 20
87.6156
 11
-178.913
 21
87.4433
  0
LINE
  8
0
 10
-178.913
 20
87.4433
 11
-179.114
 21
87.2989
  0
LINE
  8
0
 10
-179.114
 20
87.2989
 11
-179.335
 21
87.1854
  0
LINE
  8
0
 10
-179.335
 20
87.1854
 11
-179.57
 21
87.1053
  0
LINE
  8
0
 10
-179.57
 20
87.1053
 11
-179.814
 21
87.0602
  0
LINE
  8
0
 10
-179.814
 20
87.0602
 11
-180.062
 21
87.0511
  0
LINE
  8
0
 10
-180.062
 20
87.0511
 11
-180.309
 21
87.0783
  0
LINE
  8
0
 10
312.191
 20
44.5783
 11
311.951
 21
44.6411
  0
LINE
  8
0
 10
311.951
 20
44.6411
 11
311.723
 21
44.7381
  0
LINE
  8
0
 10
311.723
 20
44.7381
 11
311.511
 21
44.8674
  0
LINE
  8
0
 10
311.511
 20
44.8674
 11
311.32
 21
45.0262
  0
LINE
  8
0
 10
311.32
 20
45.0262
 11
311.154
 21
45.211
  0
LINE
  8
0
 10
311.154
 20
45.211
 11
311.018
 21
45.418
  0
LINE
  8
0
 10
311.018
 20
45.418
 11
310.912
 21
45.6427
  0
LINE
  8
0
 10
310.912
 20
45.6427
 11
310.841
 21
45.8804
  0
LINE
  8
0
 10
310.841
 20
45.8804
 11
310.805
 21
46.1259
  0
LINE
  8
0
 10
310.805
 20
46.1259
 11
310.805
 21
46.3741
  0
LINE
  8
0
 10
310.805
 20
46.3741
 11
310.841
 21
46.6196
  0
LINE
  8
0
 10
310.841
 20
46.6196
 11
310.912
 21
46.8573
  0
LINE
  8
0
 10
310.912
 20
46.8573
 11
311.018
 21
47.082
  0
LINE
  8
0
 10
311.018
 20
47.082
 11
311.154
 21
47.289
  0
LINE
  8
0
 10
311.154
 20
47.289
 11
311.32
 21
47.4738
  0
LINE
  8
0
 10
311.32
 20
47.4738
 11
311.511
 21
47.6326
  0
LINE
  8
0
 10
311.511
 20
47.6326
 11
311.723
 21
47.7619
  0
LINE
  8
0
 10
311.723
 20
47.7619
 11
311.951
 21
47.8589
  0
LINE
  8
0
 10
311.951
 20
47.8589
 11
312.191
 21
47.9217
  0
LINE
  8
0
 10
312.191
 20
47.9217
 11
312.438
 21
47.9489
  0
LINE
  8
0
 10
312.438
 20
47.9489
 11
312.686
 21
47.9398
  0
LINE
  8
0
 10
312.686
 20
47.9398
 11
312.93
 21
47.8947
  0
LINE
  8
0
 10
312.93
 20
47.8947
 11
313.165
 21
47.8146
  0
LINE
  8
0
 10
313.165
 20
47.8146
 11
313.386
 21
47.7011
  0
LINE
  8
0
 10
313.386
 20
47.7011
 11
313.587
 21
47.5567
  0
LINE
  8
0
 10
313.587
 20
47.5567
 11
313.766
 21
47.3844
  0
LINE
  8
0
 10
313.766
 20
47.3844
 11
313.918
 21
47.188
  0
LINE
  8
0
 10
313.918
 20
47.188
 11
314.039
 21
46.9716
  0
LINE
  8
0
 10
314.039
 20
46.9716
 11
314.128
 21
46.7398
  0
LINE
  8
0
 10
314.128
 20
46.7398
 11
314.182
 21
46.4975
  0
LINE
  8
0
 10
314.182
 20
46.4975
 11
314.2
 21
46.25
  0
LINE
  8
0
 10
314.2
 20
46.25
 11
314.182
 21
46.0025
  0
LINE
  8
0
 10
314.182
 20
46.0025
 11
314.128
 21
45.7602
  0
LINE
  8
0
 10
314.128
 20
45.7602
 11
314.039
 21
45.5284
  0
LINE
  8
0
 10
314.039
 20
45.5284
 11
313.918
 21
45.312
  0
LINE
  8
0
 10
313.918
 20
45.312
 11
313.766
 21
45.1156
  0
LINE
  8
0
 10
313.766
 20
45.1156
 11
313.587
 21
44.9433
  0
LINE
  8
0
 10
313.587
 20
44.9433
 11
313.386
 21
44.7989
  0
LINE
  8
0
 10
313.386
 20
44.7989
 11
313.165
 21
44.6854
  0
LINE
  8
0
 10
313.165
 20
44.6854
 11
312.93
 21
44.6053
  0
LINE
  8
0
 10
312.93
 20
44.6053
 11
312.686
 21
44.5602
  0
LINE
  8
0
 10
312.686
 20
44.5602
 11
312.438
 21
44.5511
  0
LINE
  8
0
 10
312.438
 20
44.5511
 11
312.191
 21
44.5783
  0
LINE
  8
0
 10
-312.686
 20
44.5602
 11
-312.93
 21
44.6053
  0
LINE
  8
0
 10
-312.93
 20
44.6053
 11
-313.165
 21
44.6854
  0
LINE
  8
0
 10
-313.165
 20
44.6854
 11
-313.386
 21
44.7989
  0
LINE
  8
0
 10
-313.386
 20
44.7989
 11
-313.587
 21
44.9433
  0
LINE
  8
0
 10
-313.587
 20
44.9433
 11
-313.766
 21
45.1156
  0
LINE
  8
0
 10
-313.766
 20
45.1156
 11
-313.918
 21
45.312
  0
LINE
  8
0
 10
-313.918
 20
45.312
 11
-314.039
 21
45.5284
  0
LINE
  8
0
 10
-314.039
 20
45.5284
 11
-314.128
 21
45.7602
  0
LINE
  8
0
 10
-314.128
 20
45.7602
 11
-314.182
 21
46.0025
  0
LINE
  8
0
 10
-314.182
 20
46.0025
 11
-314.2
 21
46.25
  0
LINE
  8
0
 10
-314.2
 20
46.25
 11
-314.182
 21
46.4975
  0
LINE
  8
0
 10
-314.182
 20
46.4975
 11
-314.128
 21
46.7398
  0
LINE
  8
0
 10
-314.128
 20
46.7398
 11
-314.039
 21
46.9716
  0
LINE
  8
0
 10
-314.039
 20
46.9716
 11
-313.918
 21
47.188
  0
LINE
  8
0
 10
-313.918
 20
47.188
 11
-313.766
 21
47.3844
  0
LINE
  8
0
 10
-313.766
 20
47.3844
 11
-313.587
 21
47.5567
  0
LINE
  8
0
 10
-313.587
 20
47.5567
 11
-313.386
 21
47.7011
  0
LINE
  8
0
 10
-313.386
 20
47.7011
 11
-313.165
 21
47.8146
  0
LINE
  8
0
 10
-313.165
 20
47.8146
 11
-312.93
 21
47.8947
  0
LINE
  8
0
 10
-312.93
 20
47.8947
 11
-312.686
 21
47.9398
  0
LINE
  8
0
 10
-312.686
 20
47.9398
 11
-312.438
 21
47.9489
  0
LINE
  8
0
 10
-312.438
 20
47.9489
 11
-312.191
 21
47.9217
  0
LINE
  8
0
 10
-312.191
 20
47.9217
 11
-311.951
 21
47.8589
  0
LINE
  8
0
 10
-311.951
 20
47.8589
 11
-311.723
 21
47.7619
  0
LINE
  8
0
 10
-311.723
 20
47.7619
 11
-311.511
 21
47.6326
  0
LINE
  8
0
 10
-311.511
 20
47.6326
 11
-311.32
 21
47.4738
  0
LINE
  8
0
 10
-311.32
 20
47.4738
 11
-311.154
 21
47.289
  0
LINE
  8
0
 10
-311.154
 20
47.289
 11
-311.018
 21
47.082
  0
LINE
  8
0
 10
-311.018
 20
47.082
 11
-310.912
 21
46.8573
  0
LINE
  8
0
 10
-310.912
 20
46.8573
 11
-310.841
 21
46.6196
  0
LINE
  8
0
 10
-310.841
 20
46.6196
 11
-310.805
 21
46.3741
  0
LINE
  8
0
 10
-310.805
 20
46.3741
 11
-310.805
 21
46.1259
  0
LINE
  8
0
 10
-310.805
 20
46.1259
 11
-310.841
 21
45.8804
  0
LINE
  8
0
 10
-310.841
 20
45.8804
 11
-310.912
 21
45.6427
  0
LINE
  8
0
 10
-310.912
 20
45.6427
 11
-311.018
 21
45.418
  0
LINE
  8
0
 10
-311.018
 20
45.418
 11
-311.154
 21
45.211
  0
LINE
  8
0
 10
-311.154
 20
45.211
 11
-311.32
 21
45.0262
  0
LINE
  8
0
 10
-311.32
 20
45.0262
 11
-311.511
 21
44.8674
  0
LINE
  8
0
 10
-311.511
 20
44.8674
 11
-311.723
 21
44.7381
  0
LINE
  8
0
 10
-311.723
 20
44.7381
 11
-311.951
 21
44.6411
  0
LINE
  8
0
 10
-311.951
 20
44.6411
 11
-312.191
 21
44.5783
  0
LINE
  8
0
 10
-312.191
 20
44.5783
 11
-312.438
 21
44.5511
  0
LINE
  8
0
 10
-312.438
 20
44.5511
 11
-312.686
 21
44.5602
  0
LINE
  8
0
 10
312.191
 20
-47.9217
 11
311.951
 21
-47.8589
  0
LINE
  8
0
 10
311.951
 20
-47.8589
 11
311.723
 21
-47.7619
  0
LINE
  8
0
 10
311.723
 20
-47.7619
 11
311.511
 21
-47.6326
  0
LINE
  8
0
 10
311.511
 20
-47.6326
 11
311.32
 21
-47.4738
  0
LINE
  8
0
 10
311.32
 20
-47.4738
 11
311.154
 21
-47.289
  0
LINE
  8
0
 10
311.154
 20
-47.289
 11
311.018
 21
-47.082
  0
LINE
  8
0
 10
311.018
 20
-47.082
 11
310.912
 21
-46.8573
  0
LINE
  8
0
 10
310.912
 20
-46.8573
 11
310.841
 21
-46.6196
  0
LINE
  8
0
 10
310.841
 20
-46.6196
 11
310.805
 21
-46.3741
  0
LINE
  8
0
 10
310.805
 20
-46.3741
 11
310.805
 21
-46.1259
  0
LINE
  8
0
 10
310.805
 20
-46.1259
 11
310.841
 21
-45.8804
  0
LINE
  8
0
 10
310.841
 20
-45.8804
 11
310.912
 21
-45.6427
  0
LINE
  8
0
 10
310.912
 20
-45.6427
 11
311.018
 21
-45.418
  0
LINE
  8
0
 10
311.018
 20
-45.418
 11
311.154
 21
-45.211
  0
LINE
  8
0
 10
311.154
 20
-45.211
 11
311.32
 21
-45.0262
  0
LINE
  8
0
 10
311.32
 20
-45.0262
 11
311.511
 21
-44.8674
  0
LINE
  8
0
 10
311.511
 20
-44.8674
 11
311.723
 21
-44.7381
  0
LINE
  8
0
 10
311.723
 20
-44.7381
 11
311.951
 21
-44.6411
  0
LINE
  8
0
 10
311.951
 20
-44.6411
 11
312.191
 21
-44.5783
  0
LINE
  8
0
 10
312.191
 20
-44.5783
 11
312.438
 21
-44.5511
  0
LINE
  8
0
 10
312.438
 20
-44.5511
 11
312.686
 21
-44.5602
  0
LINE
  8
0
 10
312.686
 20
-44.5602
 11
312.93
 21
-44.6053
  0
LINE
  8
0
 10
312.93
 20
-44.6053
 11
313.165
 21
-44.6854
  0
LINE
  8
0
 10
313.165
 20
-44.6854
 11
313.386
 21
-44.7989
  0
LINE
  8
0
 10
313.386
 20
-44.7989
 11
313.587
 21
-44.9433
  0
LINE
  8
0
 10
313.587
 20
-44.9433
 11
313.766
 21
-45.1156
  0
LINE
  8
0
 10
313.766
 20
-45.1156
 11
313.918
 21
-45.312
  0
LINE
  8
0
 10
313.918
 20
-45.312
 11
314.039
 21
-45.5284
  0
LINE
  8
0
 10
314.039
 20
-45.5284
 11
314.128
 21
-45.7602
  0
LINE
  8
0
 10
314.128
 20
-45.7602
 11
314.182
 21
-46.0025
  0
LINE
  8
0
 10
314.182
 20
-46.0025
 11
314.2
 21
-46.25
  0
LINE
  8
0
 10
314.2
 20
-46.25
 11
314.182
 21
-46.4975
  0
LINE
  8
0
 10
314.182
 20
-46.4975
 11
314.128
 21
-46.7398
  0
LINE
  8
0
 10
314.128
 20
-46.7398
 11
314.039
 21
-46.9716
  0
LINE
  8
0
 10
314.039
 20
-46.9716
 11
313.918
 21
-47.188
  0
LINE
  8
0
 10
313.918
 20
-47.188
 11
313.766
 21
-47.3844
  0
LINE
  8
0
 10
313.766
 20
-47.3844
 11
313.587
 21
-47.5567
  0
LINE
  8
0
 10
313.587
 20
-47.5567
 11
313.386
 21
-47.7011
  0
LINE
  8
0
 10
313.386
 20
-47.7011
 11
313.165
 21
-47.8146
  0
LINE
  8
0
 10
313.165
 20
-47.8146
 11
312.93
 21
-47.8947
  0
LINE
  8
0
 10
312.93
 20
-47.8947
 11
312.686
 21
-47.9398
  0
LINE
  8
0
 10
312.686
 20
-47.9398
 11
312.438
 21
-47.9489
  0
LINE
  8
0
 10
312.438
 20
-47.9489
 11
312.191
 21
-47.9217
  0
LINE
  8
0
 10
-312.686
 20
-47.9398
 11
-312.93
 21
-47.8947
  0
LINE
  8
0
 10
-312.93
 20
-47.8947
 11
-313.165
 21
-47.8146
  0
LINE
  8
0
 10
-313.165
 20
-47.8146
 11
-313.386
 21
-47.7011
  0
LINE
  8
0
 10
-313.386
 20
-47.7011
 11
-313.587
 21
-47.5567
  0
LINE
  8
0
 10
-313.587
 20
-47.5567
 11
-313.766
 21
-47.3844
  0
LINE
  8
0
 10
-313.766
 20
-47.3844
 11
-313.918
 21
-47.188
  0
LINE
  8
0
 10
-313.918
 20
-47.188
 11
-314.039
 21
-46.9716
  0
LINE
  8
0
 10
-314.039
 20
-46.9716
 11
-314.128
 21
-46.7398
  0
LINE
  8
0
 10
-314.128
 20
-46.7398
 11
-314.182
 21
-46.4975
  0
LINE
  8
0
 10
-314.182
 20
-46.4975
 11
-314.2
 21
-46.25
  0
LINE
  8
0
 10
-314.2
 20
-46.25
 11
-314.182
 21
-46.0025
  0
LINE
  8
0
 10
-314.182
 20
-46.0025
 11
-314.128
 21
-45.7602
  0
LINE
  8
0
 10
-314.128
 20
-45.7602
 11
-314.039
 21
-45.5284
  0
LINE
  8
0
 10
-314.039
 20
-45.5284
 11
-313.918
 21
-45.312
  0
LINE
  8
0
 10
-313.918
 20
-45.312
 11
-313.766
 21
-45.1156
  0
LINE
  8
0
 10
-313.766
 20
-45.1156
 11
-313.587
 21
-44.9433
  0
LINE
  8
0
 10
-313.587
 20
-44.9433
 11
-313.386
 21
-44.7989
  0
LINE
  8
0
 10
-313.386
 20
-44.7989
 11
-313.165
 21
-44.6854
  0
LINE
  8
0
 10
-313.165
 20
-44.6854
 11
-312.93
 21
-44.6053
  0
LINE
  8
0
 10
-312.93
 20
-44.6053
 11
-312.686
 21
-44.5602
  0
LINE
  8
0
 10
-312.686
 20
-44.5602
 11
-312.438
 21
-44.5511
  0
LINE
  8
0
 10
-312.438
 20
-44.5511
 11
-312.191
 21
-44.5783
  0
LINE
  8
0
 10
-312.191
 20
-44.5783
 11
-311.951
 21
-44.6411
  0
LINE
  8
0
 10
-311.951
 20
-44.6411
 11
-311.723
 21
-44.7381
  0
LINE
  8
0
 10
-311.723
 20
-44.7381
 11
-311.511
 21
-44.8674
  0
LINE
  8
0
 10
-311.511
 20
-44.8674
 11
-311.32
 21
-45.0262
  0
LINE
  8
0
 10
-311.32
 20
-45.0262
 11
-311.154
 21
-45.211
  0
LINE
  8
0
 10
-311.154
 20
-45.211
 11
-311.018
 21
-45.418
  0
LINE
  8
0
 10
-311.018
 20
-45.418
 11
-310.912
 21
-45.6427
  0
LINE
  8
0
 10
-310.912
 20
-45.6427
 11
-310.841
 21
-45.8804
  0
LINE
  8
0
 10
-310.841
 20
-45.8804
 11
-310.805
 21
-46.1259
  0
LINE
  8
0
 10
-310.805
 20
-46.1259
 11
-310.805
 21
-46.3741
  0
LINE
  8
0
 10
-310.805
 20
-46.3741
 11
-310.841
 21
-46.6196
  0
LINE
  8
0
 10
-310.841
 20
-46.6196
 11
-310.912
 21
-46.8573
  0
LINE
  8
0
 10
-310.912
 20
-46.8573
 11
-311.018
 21
-47.082
  0
LINE
  8
0
 10
-311.018
 20
-47.082
 11
-311.154
 21
-47.289
  0
LINE
  8
0
 10
-311.154
 20
-47.289
 11
-311.32
 21
-47.4738
  0
LINE
  8
0
 10
-311.32
 20
-47.4738
 11
-311.511
 21
-47.6326
  0
LINE
  8
0
 10
-311.511
 20
-47.6326
 11
-311.723
 21
-47.7619
  0
LINE
  8
0
 10
-311.723
 20
-47.7619
 11
-311.951
 21
-47.8589
  0
LINE
  8
0
 10
-311.951
 20
-47.8589
 11
-312.191
 21
-47.9217
  0
LINE
  8
0
 10
-312.191
 20
-47.9217
 11
-312.438
 21
-47.9489
  0
LINE
  8
0
 10
-312.438
 20
-47.9489
 11
-312.686
 21
-47.9398
  0
LINE
  8
0
 10
-312.892
 20
-92.4794
 11
-313.28
 21
-92.418
  0
LINE
  8
0
 10
-313.28
 20
-92.418
 11
-313.659
 21
-92.3165
  0
LINE
  8
0
 10
-313.659
 20
-92.3165
 11
-314.025
 21
-92.1758
  0
LINE
  8
0
 10
-314.025
 20
-92.1758
 11
-314.375
 21
-91.9976
  0
LINE
  8
0
 10
-314.375
 20
-91.9976
 11
-314.704
 21
-91.7838
  0
LINE
  8
0
 10
-314.704
 20
-91.7838
 11
-315.009
 21
-91.5368
  0
LINE
  8
0
 10
-315.009
 20
-91.5368
 11
-315.287
 21
-91.2592
  0
LINE
  8
0
 10
-315.287
 20
-91.2592
 11
-315.534
 21
-90.9542
  0
LINE
  8
0
 10
-315.534
 20
-90.9542
 11
-315.748
 21
-90.625
  0
LINE
  8
0
 10
-315.748
 20
-90.625
 11
-315.926
 21
-90.2753
  0
LINE
  8
0
 10
-315.926
 20
-90.2753
 11
-316.066
 21
-89.9088
  0
LINE
  8
0
 10
-316.066
 20
-89.9088
 11
-316.168
 21
-89.5297
  0
LINE
  8
0
 10
-316.168
 20
-89.5297
 11
-316.229
 21
-89.142
  0
LINE
  8
0
 10
-316.229
 20
-89.142
 11
-316.25
 21
-88.75
  0
LINE
  8
0
 10
-316.25
 20
-88.75
 11
-316.229
 21
-88.358
  0
LINE
  8
0
 10
-316.229
 20
-88.358
 11
-316.168
 21
-87.9703
  0
LINE
  8
0
 10
-316.168
 20
-87.9703
 11
-316.066
 21
-87.5912
  0
LINE
  8
0
 10
-316.066
 20
-87.5912
 11
-315.926
 21
-87.2247
  0
LINE
  8
0
 10
-315.926
 20
-87.2247
 11
-315.748
 21
-86.875
  0
LINE
  8
0
 10
-315.748
 20
-86.875
 11
-315.534
 21
-86.5458
  0
LINE
  8
0
 10
-315.534
 20
-86.5458
 11
-315.287
 21
-86.2408
  0
LINE
  8
0
 10
-315.287
 20
-86.2408
 11
-315.009
 21
-85.9632
  0
LINE
  8
0
 10
-315.009
 20
-85.9632
 11
-314.704
 21
-85.7162
  0
LINE
  8
0
 10
-314.704
 20
-85.7162
 11
-314.375
 21
-85.5024
  0
LINE
  8
0
 10
-314.375
 20
-85.5024
 11
-314.025
 21
-85.3242
  0
LINE
  8
0
 10
-314.025
 20
-85.3242
 11
-313.659
 21
-85.1835
  0
LINE
  8
0
 10
-313.659
 20
-85.1835
 11
-313.28
 21
-85.0819
  0
LINE
  8
0
 10
-313.28
 20
-85.0819
 11
-312.892
 21
-85.0205
  0
LINE
  8
0
 10
-312.892
 20
-85.0205
 11
-312.5
 21
-85
  0
LINE
  8
0
 10
-312.5
 20
-85
 11
-312.108
 21
-85.0205
  0
LINE
  8
0
 10
-312.108
 20
-85.0205
 11
-311.72
 21
-85.0819
  0
LINE
  8
0
 10
-311.72
 20
-85.0819
 11
-311.341
 21
-85.1835
  0
LINE
  8
0
 10
-311.341
 20
-85.1835
 11
-310.975
 21
-85.3242
  0
LINE
  8
0
 10
-310.975
 20
-85.3242
 11
-310.625
 21
-85.5024
  0
LINE
  8
0
 10
-310.625
 20
-85.5024
 11
-310.296
 21
-85.7162
  0
LINE
  8
0
 10
-310.296
 20
-85.7162
 11
-309.991
 21
-85.9632
  0
LINE
  8
0
 10
-309.991
 20
-85.9632
 11
-309.713
 21
-86.2408
  0
LINE
  8
0
 10
-309.713
 20
-86.2408
 11
-309.466
 21
-86.5458
  0
LINE
  8
0
 10
-309.466
 20
-86.5458
 11
-309.252
 21
-86.875
  0
LINE
  8
0
 10
-309.252
 20
-86.875
 11
-309.074
 21
-87.2247
  0
LINE
  8
0
 10
-309.074
 20
-87.2247
 11
-308.934
 21
-87.5912
  0
LINE
  8
0
 10
-308.934
 20
-87.5912
 11
-308.832
 21
-87.9703
  0
LINE
  8
0
 10
-308.832
 20
-87.9703
 11
-308.771
 21
-88.358
  0
LINE
  8
0
 10
-308.771
 20
-88.358
 11
-308.75
 21
-88.75
  0
LINE
  8
0
 10
-308.75
 20
-88.75
 11
-308.771
 21
-89.142
  0
LINE
  8
0
 10
-308.771
 20
-89.142
 11
-308.832
 21
-89.5297
  0
LINE
  8
0
 10
-308.832
 20
-89.5297
 11
-308.934
 21
-89.9088
  0
LINE
  8
0
 10
-308.934
 20
-89.9088
 11
-309.074
 21
-90.2753
  0
LINE
  8
0
 10
-309.074
 20
-90.2753
 11
-309.252
 21
-90.625
  0
LINE
  8
0
 10
-309.252
 20
-90.625
 11
-309.466
 21
-90.9542
  0
LINE
  8
0
 10
-309.466
 20
-90.9542
 11
-309.713
 21
-91.2592
  0
LINE
  8
0
 10
-309.713
 20
-91.2592
 11
-309.991
 21
-91.5368
  0
LINE
  8
0
 10
-309.991
 20
-91.5368
 11
-310.296
 21
-91.7838
  0
LINE
  8
0
 10
-310.296
 20
-91.7838
 11
-310.625
 21
-91.9976
  0
LINE
  8
0
 10
-310.625
 20
-91.9976
 11
-310.975
 21
-92.1758
  0
LINE
  8
0
 10
-310.975
 20
-92.1758
 11
-311.341
 21
-92.3165
  0
LINE
  8
0
 10
-311.341
 20
-92.3165
 11
-311.72
 21
-92.418
  0
LINE
  8
0
 10
-311.72
 20
-92.418
 11
-312.108
 21
-92.4794
  0
LINE
  8
0
 10
-312.108
 20
-92.4794
 11
-312.5
 21
-92.5
  0
LINE
  8
0
 10
-312.5
 20
-92.5
 11
-312.892
 21
-92.4794
  0
LINE
  8
0
 10
312.108
 20
-92.4794
 11
311.72
 21
-92.418
  0
LINE
  8
0
 10
311.72
 20
-92.418
 11
311.341
 21
-92.3165
  0
LINE
  8
0
 10
311.341
 20
-92.3165
 11
310.975
 21
-92.1758
  0
LINE
  8
0
 10
310.975
 20
-92.1758
 11
310.625
 21
-91.9976
  0
LINE
  8
0
 10
310.625
 20
-91.9976
 11
310.296
 21
-91.7838
  0
LINE
  8
0
 10
310.296
 20
-91.7838
 11
309.991
 21
-91.5368
  0
LINE
  8
0
 10
309.991
 20
-91.5368
 11
309.713
 21
-91.2592
  0
LINE
  8
0
 10
309.713
 20
-91.2592
 11
309.466
 21
-90.9542
  0
LINE
  8
0
 10
309.466
 20
-90.9542
 11
309.252
 21
-90.625
  0
LINE
  8
0
 10
309.252
 20
-90.625
 11
309.074
 21
-90.2753
  0
LINE
  8
0
 10
309.074
 20
-90.2753
 11
308.934
 21
-89.9088
  0
LINE
  8
0
 10
308.934
 20
-89.9088
 11
308.832
 21
-89.5297
  0
LINE
  8
0
 10
308.832
 20
-89.5297
 11
308.771
 21
-89.142
  0
LINE
  8
0
 10
308.771
 20
-89.142
 11
308.75
 21
-88.75
  0
LINE
  8
0
 10
308.75
 20
-88.75
 11
308.771
 21
-88.358
  0
LINE
  8
0
 10
308.771
 20
-88.358
 11
308.832
 21
-87.9703
  0
LINE
  8
0
 10
308.832
 20
-87.9703
 11
308.934
 21
-87.5912
  0
LINE
  8
0
 10
308.934
 20
-87.5912
 11
309.074
 21
-87.2247
  0
LINE
  8
0
 10
309.074
 20
-87.2247
 11
309.252
 21
-86.875
  0
LINE
  8
0
 10
309.252
 20
-86.875
 11
309.466
 21
-86.5458
  0
LINE
  8
0
 10
309.466
 20
-86.5458
 11
309.713
 21
-86.2408
  0
LINE
  8
0
 10
309.713
 20
-86.2408
 11
309.991
 21
-85.9632
  0
LINE
  8
0
 10
309.991
 20
-85.9632
 11
310.296
 21
-85.7162
  0
LINE
  8
0
 10
310.296
 20
-85.7162
 11
310.625
 21
-85.5024
  0
LINE
  8
0
 10
310.625
 20
-85.5024
 11
310.975
 21
-85.3242
  0
LINE
  8
0
 10
310.975
 20
-85.3242
 11
311.341
 21
-85.1835
  0
LINE
  8
0
 10
311.341
 20
-85.1835
 11
311.72
 21
-85.0819
  0
LINE
  8
0
 10
311.72
 20
-85.0819
 11
312.108
 21
-85.0205
  0
LINE
  8
0
 10
312.108
 20
-85.0205
 11
312.5
 21
-85
  0
LINE
  8
0
 10
312.5
 20
-85
 11
312.892
 21
-85.0205
  0
LINE
  8
0
 10
312.892
 20
-85.0205
 11
313.28
 21
-85.0819
  0
LINE
  8
0
 10
313.28
 20
-85.0819
 11
313.659
 21
-85.1835
  0
LINE
  8
0
 10
313.659
 20
-85.1835
 11
314.025
 21
-85.3242
  0
LINE
  8
0
 10
314.025
 20
-85.3242
 11
314.375
 21
-85.5024
  0
LINE
  8
0
 10
314.375
 20
-85.5024
 11
314.704
 21
-85.7162
  0
LINE
  8
0
 10
314.704
 20
-85.7162
 11
315.009
 21
-85.9632
  0
LINE
  8
0
 10
315.009
 20
-85.9632
 11
315.287
 21
-86.2408
  0
LINE
  8
0
 10
315.287
 20
-86.2408
 11
315.534
 21
-86.5458
  0
LINE
  8
0
 10
315.534
 20
-86.5458
 11
315.748
 21
-86.875
  0
LINE
  8
0
 10
315.748
 20
-86.875
 11
315.926
 21
-87.2247
  0
LINE
  8
0
 10
315.926
 20
-87.2247
 11
316.066
 21
-87.5912
  0
LINE
  8
0
 10
316.066
 20
-87.5912
 11
316.168
 21
-87.9703
  0
LINE
  8
0
 10
316.168
 20
-87.9703
 11
316.229
 21
-88.358
  0
LINE
  8
0
 10
316.229
 20
-88.358
 11
316.25
 21
-88.75
  0
LINE
  8
0
 10
316.25
 20
-88.75
 11
316.229
 21
-89.142
  0
LINE
  8
0
 10
316.229
 20
-89.142
 11
316.168
 21
-89.5297
  0
LINE
  8
0
 10
316.168
 20
-89.5297
 11
316.066
 21
-89.9088
  0
LINE
  8
0
 10
316.066
 20
-89.9088
 11
315.926
 21
-90.2753
  0
LINE
  8
0
 10
315.926
 20
-90.2753
 11
315.748
 21
-90.625
  0
LINE
  8
0
 10
315.748
 20
-90.625
 11
315.534
 21
-90.9542
  0
LINE
  8
0
 10
315.534
 20
-90.9542
 11
315.287
 21
-91.2592
  0
LINE
  8
0
 10
315.287
 20
-91.2592
 11
315.009
 21
-91.5368
  0
LINE
  8
0
 10
315.009
 20
-91.5368
 11
314.704
 21
-91.7838
  0
LINE
  8
0
 10
314.704
 20
-91.7838
 11
314.375
 21
-91.9976
  0
LINE
  8
0
 10
314.375
 20
-91.9976
 11
314.025
 21
-92.1758
  0
LINE
  8
0
 10
314.025
 20
-92.1758
 11
313.659
 21
-92.3165
  0
LINE
  8
0
 10
313.659
 20
-92.3165
 11
313.28
 21
-92.418
  0
LINE
  8
0
 10
313.28
 20
-92.418
 11
312.892
 21
-92.4794
  0
LINE
  8
0
 10
312.892
 20
-92.4794
 11
312.5
 21
-92.5
  0
LINE
  8
0
 10
312.5
 20
-92.5
 11
312.108
 21
-92.4794
  0
LINE
  8
0
 10
-270.309
 20
-90.4217
 11
-270.549
 21
-90.3589
  0
LINE
  8
0
 10
-270.549
 20
-90.3589
 11
-270.777
 21
-90.2619
  0
LINE
  8
0
 10
-270.777
 20
-90.2619
 11
-270.989
 21
-90.1326
  0
LINE
  8
0
 10
-270.989
 20
-90.1326
 11
-271.18
 21
-89.9738
  0
LINE
  8
0
 10
-271.18
 20
-89.9738
 11
-271.346
 21
-89.789
  0
LINE
  8
0
 10
-271.346
 20
-89.789
 11
-271.482
 21
-89.582
  0
LINE
  8
0
 10
-271.482
 20
-89.582
 11
-271.588
 21
-89.3573
  0
LINE
  8
0
 10
-271.588
 20
-89.3573
 11
-271.659
 21
-89.1196
  0
LINE
  8
0
 10
-271.659
 20
-89.1196
 11
-271.695
 21
-88.8741
  0
LINE
  8
0
 10
-271.695
 20
-88.8741
 11
-271.695
 21
-88.6259
  0
LINE
  8
0
 10
-271.695
 20
-88.6259
 11
-271.659
 21
-88.3804
  0
LINE
  8
0
 10
-271.659
 20
-88.3804
 11
-271.588
 21
-88.1427
  0
LINE
  8
0
 10
-271.588
 20
-88.1427
 11
-271.482
 21
-87.918
  0
LINE
  8
0
 10
-271.482
 20
-87.918
 11
-271.346
 21
-87.711
  0
LINE
  8
0
 10
-271.346
 20
-87.711
 11
-271.18
 21
-87.5262
  0
LINE
  8
0
 10
-271.18
 20
-87.5262
 11
-270.989
 21
-87.3674
  0
LINE
  8
0
 10
-270.989
 20
-87.3674
 11
-270.777
 21
-87.2381
  0
LINE
  8
0
 10
-270.777
 20
-87.2381
 11
-270.549
 21
-87.1411
  0
LINE
  8
0
 10
-270.549
 20
-87.1411
 11
-270.309
 21
-87.0783
  0
LINE
  8
0
 10
-270.309
 20
-87.0783
 11
-270.062
 21
-87.0511
  0
LINE
  8
0
 10
-270.062
 20
-87.0511
 11
-269.814
 21
-87.0602
  0
LINE
  8
0
 10
-269.814
 20
-87.0602
 11
-269.57
 21
-87.1053
  0
LINE
  8
0
 10
-269.57
 20
-87.1053
 11
-269.335
 21
-87.1854
  0
LINE
  8
0
 10
-269.335
 20
-87.1854
 11
-269.114
 21
-87.2989
  0
LINE
  8
0
 10
-269.114
 20
-87.2989
 11
-268.913
 21
-87.4433
  0
LINE
  8
0
 10
-268.913
 20
-87.4433
 11
-268.734
 21
-87.6156
  0
LINE
  8
0
 10
-268.734
 20
-87.6156
 11
-268.582
 21
-87.812
  0
LINE
  8
0
 10
-268.582
 20
-87.812
 11
-268.461
 21
-88.0284
  0
LINE
  8
0
 10
-268.461
 20
-88.0284
 11
-268.372
 21
-88.2602
  0
LINE
  8
0
 10
-268.372
 20
-88.2602
 11
-268.318
 21
-88.5025
  0
LINE
  8
0
 10
-268.318
 20
-88.5025
 11
-268.3
 21
-88.75
  0
LINE
  8
0
 10
-268.3
 20
-88.75
 11
-268.318
 21
-88.9975
  0
LINE
  8
0
 10
-268.318
 20
-88.9975
 11
-268.372
 21
-89.2398
  0
LINE
  8
0
 10
-268.372
 20
-89.2398
 11
-268.461
 21
-89.4716
  0
LINE
  8
0
 10
-268.461
 20
-89.4716
 11
-268.582
 21
-89.688
  0
LINE
  8
0
 10
-268.582
 20
-89.688
 11
-268.734
 21
-89.8844
  0
LINE
  8
0
 10
-268.734
 20
-89.8844
 11
-268.913
 21
-90.0567
  0
LINE
  8
0
 10
-268.913
 20
-90.0567
 11
-269.114
 21
-90.2011
  0
LINE
  8
0
 10
-269.114
 20
-90.2011
 11
-269.335
 21
-90.3146
  0
LINE
  8
0
 10
-269.335
 20
-90.3146
 11
-269.57
 21
-90.3947
  0
LINE
  8
0
 10
-269.57
 20
-90.3947
 11
-269.814
 21
-90.4398
  0
LINE
  8
0
 10
-269.814
 20
-90.4398
 11
-270.062
 21
-90.4489
  0
LINE
  8
0
 10
-270.062
 20
-90.4489
 11
-270.309
 21
-90.4217
  0
LINE
  8
0
 10
269.691
 20
-90.4217
 11
269.451
 21
-90.3589
  0
LINE
  8
0
 10
269.451
 20
-90.3589
 11
269.223
 21
-90.2619
  0
LINE
  8
0
 10
269.223
 20
-90.2619
 11
269.011
 21
-90.1326
  0
LINE
  8
0
 10
269.011
 20
-90.1326
 11
268.82
 21
-89.9738
  0
LINE
  8
0
 10
268.82
 20
-89.9738
 11
268.654
 21
-89.789
  0
LINE
  8
0
 10
268.654
 20
-89.789
 11
268.518
 21
-89.582
  0
LINE
  8
0
 10
268.518
 20
-89.582
 11
268.412
 21
-89.3573
  0
LINE
  8
0
 10
268.412
 20
-89.3573
 11
268.341
 21
-89.1196
  0
LINE
  8
0
 10
268.341
 20
-89.1196
 11
268.305
 21
-88.8741
  0
LINE
  8
0
 10
268.305
 20
-88.8741
 11
268.305
 21
-88.6259
  0
LINE
  8
0
 10
268.305
 20
-88.6259
 11
268.341
 21
-88.3804
  0
LINE
  8
0
 10
268.341
 20
-88.3804
 11
268.412
 21
-88.1427
  0
LINE
  8
0
 10
268.412
 20
-88.1427
 11
268.518
 21
-87.918
  0
LINE
  8
0
 10
268.518
 20
-87.918
 11
268.654
 21
-87.711
  0
LINE
  8
0
 10
268.654
 20
-87.711
 11
268.82
 21
-87.5262
  0
LINE
  8
0
 10
268.82
 20
-87.5262
 11
269.011
 21
-87.3674
  0
LINE
  8
0
 10
269.011
 20
-87.3674
 11
269.223
 21
-87.2381
  0
LINE
  8
0
 10
269.223
 20
-87.2381
 11
269.451
 21
-87.1411
  0
LINE
  8
0
 10
269.451
 20
-87.1411
 11
269.691
 21
-87.0783
  0
LINE
  8
0
 10
269.691
 20
-87.0783
 11
269.938
 21
-87.0511
  0
LINE
  8
0
 10
269.938
 20
-87.0511
 11
270.186
 21
-87.0602
  0
LINE
  8
0
 10
270.186
 20
-87.0602
 11
270.43
 21
-87.1053
  0
LINE
  8
0
 10
270.43
 20
-87.1053
 11
270.665
 21
-87.1854
  0
LINE
  8
0
 10
270.665
 20
-87.1854
 11
270.886
 21
-87.2989
  0
LINE
  8
0
 10
270.886
 20
-87.2989
 11
271.087
 21
-87.4433
  0
LINE
  8
0
 10
271.087
 20
-87.4433
 11
271.266
 21
-87.6156
  0
LINE
  8
0
 10
271.266
 20
-87.6156
 11
271.418
 21
-87.812
  0
LINE
  8
0
 10
271.418
 20
-87.812
 11
271.539
 21
-88.0284
  0
LINE
  8
0
 10
271.539
 20
-88.0284
 11
271.628
 21
-88.2602
  0
LINE
  8
0
 10
271.628
 20
-88.2602
 11
271.682
 21
-88.5025
  0
LINE
  8
0
 10
271.682
 20
-88.5025
 11
271.7
 21
-88.75
  0
LINE
  8
0
 10
271.7
 20
-88.75
 11
271.682
 21
-88.9975
  0
LINE
  8
0
 10
271.682
 20
-88.9975
 11
271.628
 21
-89.2398
  0
LINE
  8
0
 10
271.628
 20
-89.2398
 11
271.539
 21
-89.4716
  0
LINE
  8
0
 10
271.539
 20
-89.4716
 11
271.418
 21
-89.688
  0
LINE
  8
0
 10
271.418
 20
-89.688
 11
271.266
 21
-89.8844
  0
LINE
  8
0
 10
271.266
 20
-89.8844
 11
271.087
 21
-90.0567
  0
LINE
  8
0
 10
271.087
 20
-90.0567
 11
270.886
 21
-90.2011
  0
LINE
  8
0
 10
270.886
 20
-90.2011
 11
270.665
 21
-90.3146
  0
LINE
  8
0
 10
270.665
 20
-90.3146
 11
270.43
 21
-90.3947
  0
LINE
  8
0
 10
270.43
 20
-90.3947
 11
270.186
 21
-90.4398
  0
LINE
  8
0
 10
270.186
 20
-90.4398
 11
269.938
 21
-90.4489
  0
LINE
  8
0
 10
269.938
 20
-90.4489
 11
269.691
 21
-90.4217
  0
LINE
  8
0
 10
179.691
 20
-90.4217
 11
179.451
 21
-90.3589
  0
LINE
  8
0
 10
179.451
 20
-90.3589
 11
179.223
 21
-90.2619
  0
LINE
  8
0
 10
179.223
 20
-90.2619
 11
179.011
 21
-90.1326
  0
LINE
  8
0
 10
179.011
 20
-90.1326
 11
178.82
 21
-89.9738
  0
LINE
  8
0
 10
178.82
 20
-89.9738
 11
178.654
 21
-89.789
  0
LINE
  8
0
 10
178.654
 20
-89.789
 11
178.518
 21
-89.582
  0
LINE
  8
0
 10
178.518
 20
-89.582
 11
178.412
 21
-89.3573
  0
LINE
  8
0
 10
178.412
 20
-89.3573
 11
178.341
 21
-89.1196
  0
LINE
  8
0
 10
178.341
 20
-89.1196
 11
178.305
 21
-88.8741
  0
LINE
  8
0
 10
178.305
 20
-88.8741
 11
178.305
 21
-88.6259
  0
LINE
  8
0
 10
178.305
 20
-88.6259
 11
178.341
 21
-88.3804
  0
LINE
  8
0
 10
178.341
 20
-88.3804
 11
178.412
 21
-88.1427
  0
LINE
  8
0
 10
178.412
 20
-88.1427
 11
178.518
 21
-87.918
  0
LINE
  8
0
 10
178.518
 20
-87.918
 11
178.654
 21
-87.711
  0
LINE
  8
0
 10
178.654
 20
-87.711
 11
178.82
 21
-87.5262
  0
LINE
  8
0
 10
178.82
 20
-87.5262
 11
179.011
 21
-87.3674
  0
LINE
  8
0
 10
179.011
 20
-87.3674
 11
179.223
 21
-87.2381
  0
LINE
  8
0
 10
179.223
 20
-87.2381
 11
179.451
 21
-87.1411
  0
LINE
  8
0
 10
179.451
 20
-87.1411
 11
179.691
 21
-87.0783
  0
LINE
  8
0
 10
179.691
 20
-87.0783
 11
179.938
 21
-87.0511
  0
LINE
  8
0
 10
179.938
 20
-87.0511
 11
180.186
 21
-87.0602
  0
LINE
  8
0
 10
180.186
 20
-87.0602
 11
180.43
 21
-87.1053
  0
LINE
  8
0
 10
180.43
 20
-87.1053
 11
180.665
 21
-87.1854
  0
LINE
  8
0
 10
180.665
 20
-87.1854
 11
180.886
 21
-87.2989
  0
LINE
  8
0
 10
180.886
 20
-87.2989
 11
181.087
 21
-87.4433
  0
LINE
  8
0
 10
181.087
 20
-87.4433
 11
181.266
 21
-87.6156
  0
LINE
  8
0
 10
181.266
 20
-87.6156
 11
181.418
 21
-87.812
  0
LINE
  8
0
 10
181.418
 20
-87.812
 11
181.539
 21
-88.0284
  0
LINE
  8
0
 10
181.539
 20
-88.0284
 11
181.628
 21
-88.2602
  0
LINE
  8
0
 10
181.628
 20
-88.2602
 11
181.682
 21
-88.5025
  0
LINE
  8
0
 10
181.682
 20
-88.5025
 11
181.7
 21
-88.75
  0
LINE
  8
0
 10
181.7
 20
-88.75
 11
181.682
 21
-88.9975
  0
LINE
  8
0
 10
181.682
 20
-88.9975
 11
181.628
 21
-89.2398
  0
LINE
  8
0
 10
181.628
 20
-89.2398
 11
181.539
 21
-89.4716
  0
LINE
  8
0
 10
181.539
 20
-89.4716
 11
181.418
 21
-89.688
  0
LINE
  8
0
 10
181.418
 20
-89.688
 11
181.266
 21
-89.8844
  0
LINE
  8
0
 10
181.266
 20
-89.8844
 11
181.087
 21
-90.0567
  0
LINE
  8
0
 10
181.087
 20
-90.0567
 11
180.886
 21
-90.2011
  0
LINE
  8
0
 10
180.886
 20
-90.2011
 11
180.665
 21
-90.3146
  0
LINE
  8
0
 10
180.665
 20
-90.3146
 11
180.43
 21
-90.3947
  0
LINE
  8
0
 10
180.43
 20
-90.3947
 11
180.186
 21
-90.4398
  0
LINE
  8
0
 10
180.186
 20
-90.4398
 11
179.938
 21
-90.4489
  0
LINE
  8
0
 10
179.938
 20
-90.4489
 11
179.691
 21
-90.4217
  0
LINE
  8
0
 10
-90.3088
 20
-90.4217
 11
-90.5489
 21
-90.3589
  0
LINE
  8
0
 10
-90.5489
 20
-90.3589
 11
-90.7773
 21
-90.2619
  0
LINE
  8
0
 10
-90.7773
 20
-90.2619
 11
-90.9892
 21
-90.1326
  0
LINE
  8
0
 10
-90.9892
 20
-90.1326
 11
-91.1799
 21
-89.9738
  0
LINE
  8
0
 10
-91.1799
 20
-89.9738
 11
-91.3455
 21
-89.789
  0
LINE
  8
0
 10
-91.3455
 20
-89.789
 11
-91.4825
 21
-89.582
  0
LINE
  8
0
 10
-91.4825
 20
-89.582
 11
-91.5878
 21
-89.3573
  0
LINE
  8
0
 10
-91.5878
 20
-89.3573
 11
-91.6593
 21
-89.1196
  0
LINE
  8
0
 10
-91.6593
 20
-89.1196
 11
-91.6955
 21
-88.8741
  0
LINE
  8
0
 10
-91.6955
 20
-88.8741
 11
-91.6955
 21
-88.6259
  0
LINE
  8
0
 10
-91.6955
 20
-88.6259
 11
-91.6593
 21
-88.3804
  0
LINE
  8
0
 10
-91.6593
 20
-88.3804
 11
-91.5878
 21
-88.1427
  0
LINE
  8
0
 10
-91.5878
 20
-88.1427
 11
-91.4825
 21
-87.918
  0
LINE
  8
0
 10
-91.4825
 20
-87.918
 11
-91.3455
 21
-87.711
  0
LINE
  8
0
 10
-91.3455
 20
-87.711
 11
-91.1799
 21
-87.5262
  0
LINE
  8
0
 10
-91.1799
 20
-87.5262
 11
-90.9892
 21
-87.3674
  0
LINE
  8
0
 10
-90.9892
 20
-87.3674
 11
-90.7773
 21
-87.2381
  0
LINE
  8
0
 10
-90.7773
 20
-87.2381
 11
-90.5489
 21
-87.1411
  0
LINE
  8
0
 10
-90.5489
 20
-87.1411
 11
-90.3088
 21
-87.0783
  0
LINE
  8
0
 10
-90.3088
 20
-87.0783
 11
-90.0621
 21
-87.0511
  0
LINE
  8
0
 10
-90.0621
 20
-87.0511
 11
-89.8141
 21
-87.0602
  0
LINE
  8
0
 10
-89.8141
 20
-87.0602
 11
-89.57
 21
-87.1053
  0
LINE
  8
0
 10
-89.57
 20
-87.1053
 11
-89.3351
 21
-87.1854
  0
LINE
  8
0
 10
-89.3351
 20
-87.1854
 11
-89.1144
 21
-87.2989
  0
LINE
  8
0
 10
-89.1144
 20
-87.2989
 11
-88.9126
 21
-87.4433
  0
LINE
  8
0
 10
-88.9126
 20
-87.4433
 11
-88.7339
 21
-87.6156
  0
LINE
  8
0
 10
-88.7339
 20
-87.6156
 11
-88.5822
 21
-87.812
  0
LINE
  8
0
 10
-88.5822
 20
-87.812
 11
-88.4607
 21
-88.0284
  0
LINE
  8
0
 10
-88.4607
 20
-88.0284
 11
-88.3721
 21
-88.2602
  0
LINE
  8
0
 10
-88.3721
 20
-88.2602
 11
-88.3181
 21
-88.5025
  0
LINE
  8
0
 10
-88.3181
 20
-88.5025
 11
-88.3
 21
-88.75
  0
LINE
  8
0
 10
-88.3
 20
-88.75
 11
-88.3181
 21
-88.9975
  0
LINE
  8
0
 10
-88.3181
 20
-88.9975
 11
-88.3721
 21
-89.2398
  0
LINE
  8
0
 10
-88.3721
 20
-89.2398
 11
-88.4607
 21
-89.4716
  0
LINE
  8
0
 10
-88.4607
 20
-89.4716
 11
-88.5822
 21
-89.688
  0
LINE
  8
0
 10
-88.5822
 20
-89.688
 11
-88.7339
 21
-89.8844
  0
LINE
  8
0
 10
-88.7339
 20
-89.8844
 11
-88.9126
 21
-90.0567
  0
LINE
  8
0
 10
-88.9126
 20
-90.0567
 11
-89.1144
 21
-90.2011
  0
LINE
  8
0
 10
-89.1144
 20
-90.2011
 11
-89.3351
 21
-90.3146
  0
LINE
  8
0
 10
-89.3351
 20
-90.3146
 11
-89.57
 21
-90.3947
  0
LINE
  8
0
 10
-89.57
 20
-90.3947
 11
-89.8141
 21
-90.4398
  0
LINE
  8
0
 10
-89.8141
 20
-90.4398
 11
-90.0621
 21
-90.4489
  0
LINE
  8
0
 10
-90.0621
 20
-90.4489
 11
-90.3088
 21
-90.4217
  0
LINE
  8
0
 10
-180.309
 20
-90.4217
 11
-180.549
 21
-90.3589
  0
LINE
  8
0
 10
-180.549
 20
-90.3589
 11
-180.777
 21
-90.2619
  0
LINE
  8
0
 10
-180.777
 20
-90.2619
 11
-180.989
 21
-90.1326
  0
LINE
  8
0
 10
-180.989
 20
-90.1326
 11
-181.18
 21
-89.9738
  0
LINE
  8
0
 10
-181.18
 20
-89.9738
 11
-181.346
 21
-89.789
  0
LINE
  8
0
 10
-181.346
 20
-89.789
 11
-181.482
 21
-89.582
  0
LINE
  8
0
 10
-181.482
 20
-89.582
 11
-181.588
 21
-89.3573
  0
LINE
  8
0
 10
-181.588
 20
-89.3573
 11
-181.659
 21
-89.1196
  0
LINE
  8
0
 10
-181.659
 20
-89.1196
 11
-181.695
 21
-88.8741
  0
LINE
  8
0
 10
-181.695
 20
-88.8741
 11
-181.695
 21
-88.6259
  0
LINE
  8
0
 10
-181.695
 20
-88.6259
 11
-181.659
 21
-88.3804
  0
LINE
  8
0
 10
-181.659
 20
-88.3804
 11
-181.588
 21
-88.1427
  0
LINE
  8
0
 10
-181.588
 20
-88.1427
 11
-181.482
 21
-87.918
  0
LINE
  8
0
 10
-181.482
 20
-87.918
 11
-181.346
 21
-87.711
  0
LINE
  8
0
 10
-181.346
 20
-87.711
 11
-181.18
 21
-87.5262
  0
LINE
  8
0
 10
-181.18
 20
-87.5262
 11
-180.989
 21
-87.3674
  0
LINE
  8
0
 10
-180.989
 20
-87.3674
 11
-180.777
 21
-87.2381
  0
LINE
  8
0
 10
-180.777
 20
-87.2381
 11
-180.549
 21
-87.1411
  0
LINE
  8
0
 10
-180.549
 20
-87.1411
 11
-180.309
 21
-87.0783
  0
LINE
  8
0
 10
-180.309
 20
-87.0783
 11
-180.062
 21
-87.0511
  0
LINE
  8
0
 10
-180.062
 20
-87.0511
 11
-179.814
 21
-87.0602
  0
LINE
  8
0
 10
-179.814
 20
-87.0602
 11
-179.57
 21
-87.1053
  0
LINE
  8
0
 10
-179.57
 20
-87.1053
 11
-179.335
 21
-87.1854
  0
LINE
  8
0
 10
-179.335
 20
-87.1854
 11
-179.114
 21
-87.2989
  0
LINE
  8
0
 10
-179.114
 20
-87.2989
 11
-178.913
 21
-87.4433
  0
LINE
  8
0
 10
-178.913
 20
-87.4433
 11
-178.734
 21
-87.6156
  0
LINE
  8
0
 10
-178.734
 20
-87.6156
 11
-178.582
 21
-87.812
  0
LINE
  8
0
 10
-178.582
 20
-87.812
 11
-178.461
 21
-88.0284
  0
LINE
  8
0
 10
-178.461
 20
-88.0284
 11
-178.372
 21
-88.2602
  0
LINE
  8
0
 10
-178.372
 20
-88.2602
 11
-178.318
 21
-88.5025
  0
LINE
  8
0
 10
-178.318
 20
-88.5025
 11
-178.3
 21
-88.75
  0
LINE
  8
0
 10
-178.3
 20
-88.75
 11
-178.318
 21
-88.9975
  0
LINE
  8
0
 10
-178.318
 20
-88.9975
 11
-178.372
 21
-89.2398
  0
LINE
  8
0
 10
-178.372
 20
-89.2398
 11
-178.461
 21
-89.4716
  0
LINE
  8
0
 10
-178.461
 20
-89.4716
 11
-178.582
 21
-89.688
  0
LINE
  8
0
 10
-178.582
 20
-89.688
 11
-178.734
 21
-89.8844
  0
LINE
  8
0
 10
-178.734
 20
-89.8844
 11
-178.913
 21
-90.0567
  0
LINE
  8
0
 10
-178.913
 20
-90.0567
 11
-179.114
 21
-90.2011
  0
LINE
  8
0
 10
-179.114
 20
-90.2011
 11
-179.335
 21
-90.3146
  0
LINE
  8
0
 10
-179.335
 20
-90.3146
 11
-179.57
 21
-90.3947
  0
LINE
  8
0
 10
-179.57
 20
-90.3947
 11
-179.814
 21
-90.4398
  0
LINE
  8
0
 10
-179.814
 20
-90.4398
 11
-180.062
 21
-90.4489
  0
LINE
  8
0
 10
-180.062
 20
-90.4489
 11
-180.309
 21
-90.4217
  0
LINE
  8
0
 10
-0.308777
 20
-90.4217
 11
-0.548889
 21
-90.3589
  0
LINE
  8
0
 10
-0.548889
 20
-90.3589
 11
-0.777298
 21
-90.2619
  0
LINE
  8
0
 10
-0.777298
 20
-90.2619
 11
-0.989151
 21
-90.1326
  0
LINE
  8
0
 10
-0.989151
 20
-90.1326
 11
-1.17992
 21
-89.9738
  0
LINE
  8
0
 10
-1.17992
 20
-89.9738
 11
-1.34554
 21
-89.789
  0
LINE
  8
0
 10
-1.34554
 20
-89.789
 11
-1.48248
 21
-89.582
  0
LINE
  8
0
 10
-1.48248
 20
-89.582
 11
-1.58781
 21
-89.3573
  0
LINE
  8
0
 10
-1.58781
 20
-89.3573
 11
-1.65932
 21
-89.1196
  0
LINE
  8
0
 10
-1.65932
 20
-89.1196
 11
-1.69545
 21
-88.8741
  0
LINE
  8
0
 10
-1.69545
 20
-88.8741
 11
-1.69545
 21
-88.6259
  0
LINE
  8
0
 10
-1.69545
 20
-88.6259
 11
-1.65932
 21
-88.3804
  0
LINE
  8
0
 10
-1.65932
 20
-88.3804
 11
-1.58781
 21
-88.1427
  0
LINE
  8
0
 10
-1.58781
 20
-88.1427
 11
-1.48248
 21
-87.918
  0
LINE
  8
0
 10
-1.48248
 20
-87.918
 11
-1.34554
 21
-87.711
  0
LINE
  8
0
 10
-1.34554
 20
-87.711
 11
-1.17992
 21
-87.5262
  0
LINE
  8
0
 10
-1.17992
 20
-87.5262
 11
-0.989151
 21
-87.3674
  0
LINE
  8
0
 10
-0.989151
 20
-87.3674
 11
-0.777298
 21
-87.2381
  0
LINE
  8
0
 10
-0.777298
 20
-87.2381
 11
-0.548889
 21
-87.1411
  0
LINE
  8
0
 10
-0.548889
 20
-87.1411
 11
-0.308777
 21
-87.0783
  0
LINE
  8
0
 10
-0.308777
 20
-87.0783
 11
-0.0620728
 21
-87.0511
  0
LINE
  8
0
 10
-0.0620728
 20
-87.0511
 11
0.185928
 21
-87.0602
  0
LINE
  8
0
 10
0.185928
 20
-87.0602
 11
0.429977
 21
-87.1053
  0
LINE
  8
0
 10
0.429977
 20
-87.1053
 11
0.664871
 21
-87.1854
  0
LINE
  8
0
 10
0.664871
 20
-87.1854
 11
0.88559
 21
-87.2989
  0
LINE
  8
0
 10
0.88559
 20
-87.2989
 11
1.08743
 21
-87.4433
  0
LINE
  8
0
 10
1.08743
 20
-87.4433
 11
1.2661
 21
-87.6156
  0
LINE
  8
0
 10
1.2661
 20
-87.6156
 11
1.41779
 21
-87.812
  0
LINE
  8
0
 10
1.41779
 20
-87.812
 11
1.53926
 21
-88.0284
  0
LINE
  8
0
 10
1.53926
 20
-88.0284
 11
1.62791
 21
-88.2602
  0
LINE
  8
0
 10
1.62791
 20
-88.2602
 11
1.68187
 21
-88.5025
  0
LINE
  8
0
 10
1.68187
 20
-88.5025
 11
1.7
 21
-88.75
  0
LINE
  8
0
 10
1.7
 20
-88.75
 11
1.68187
 21
-88.9975
  0
LINE
  8
0
 10
1.68187
 20
-88.9975
 11
1.62791
 21
-89.2398
  0
LINE
  8
0
 10
1.62791
 20
-89.2398
 11
1.53926
 21
-89.4716
  0
LINE
  8
0
 10
1.53926
 20
-89.4716
 11
1.41779
 21
-89.688
  0
LINE
  8
0
 10
1.41779
 20
-89.688
 11
1.2661
 21
-89.8844
  0
LINE
  8
0
 10
1.2661
 20
-89.8844
 11
1.08743
 21
-90.0567
  0
LINE
  8
0
 10
1.08743
 20
-90.0567
 11
0.88559
 21
-90.2011
  0
LINE
  8
0
 10
0.88559
 20
-90.2011
 11
0.664871
 21
-90.3146
  0
LINE
  8
0
 10
0.664871
 20
-90.3146
 11
0.429977
 21
-90.3947
  0
LINE
  8
0
 10
0.429977
 20
-90.3947
 11
0.185928
 21
-90.4398
  0
LINE
  8
0
 10
0.185928
 20
-90.4398
 11
-0.0620728
 21
-90.4489
  0
LINE
  8
0
 10
-0.0620728
 20
-90.4489
 11
-0.308777
 21
-90.4217
  0
LINE
  8
0
 10
89.6912
 20
-90.4217
 11
89.4511
 21
-90.3589
  0
LINE
  8
0
 10
89.4511
 20
-90.3589
 11
89.2227
 21
-90.2619
  0
LINE
  8
0
 10
89.2227
 20
-90.2619
 11
89.0108
 21
-90.1326
  0
LINE
  8
0
 10
89.0108
 20
-90.1326
 11
88.8201
 21
-89.9738
  0
LINE
  8
0
 10
88.8201
 20
-89.9738
 11
88.6544
 21
-89.789
  0
LINE
  8
0
 10
88.6544
 20
-89.789
 11
88.5175
 21
-89.582
  0
LINE
  8
0
 10
88.5175
 20
-89.582
 11
88.4122
 21
-89.3573
  0
LINE
  8
0
 10
88.4122
 20
-89.3573
 11
88.3407
 21
-89.1196
  0
LINE
  8
0
 10
88.3407
 20
-89.1196
 11
88.3045
 21
-88.8741
  0
LINE
  8
0
 10
88.3045
 20
-88.8741
 11
88.3045
 21
-88.6259
  0
LINE
  8
0
 10
88.3045
 20
-88.6259
 11
88.3407
 21
-88.3804
  0
LINE
  8
0
 10
88.3407
 20
-88.3804
 11
88.4122
 21
-88.1427
  0
LINE
  8
0
 10
88.4122
 20
-88.1427
 11
88.5175
 21
-87.918
  0
LINE
  8
0
 10
88.5175
 20
-87.918
 11
88.6544
 21
-87.711
  0
LINE
  8
0
 10
88.6544
 20
-87.711
 11
88.8201
 21
-87.5262
  0
LINE
  8
0
 10
88.8201
 20
-87.5262
 11
89.0108
 21
-87.3674
  0
LINE
  8
0
 10
89.0108
 20
-87.3674
 11
89.2227
 21
-87.2381
  0
LINE
  8
0
 10
89.2227
 20
-87.2381
 11
89.4511
 21
-87.1411
  0
LINE
  8
0
 10
89.4511
 20
-87.1411
 11
89.6912
 21
-87.0783
  0
LINE
  8
0
 10
89.6912
 20
-87.0783
 11
89.9379
 21
-87.0511
  0
LINE
  8
0
 10
89.9379
 20
-87.0511
 11
90.1859
 21
-87.0602
  0
LINE
  8
0
 10
90.1859
 20
-87.0602
 11
90.43
 21
-87.1053
  0
LINE
  8
0
 10
90.43
 20
-87.1053
 11
90.6649
 21
-87.1854
  0
LINE
  8
0
 10
90.6649
 20
-87.1854
 11
90.8856
 21
-87.2989
  0
LINE
  8
0
 10
90.8856
 20
-87.2989
 11
91.0874
 21
-87.4433
  0
LINE
  8
0
 10
91.0874
 20
-87.4433
 11
91.2661
 21
-87.6156
  0
LINE
  8
0
 10
91.2661
 20
-87.6156
 11
91.4178
 21
-87.812
  0
LINE
  8
0
 10
91.4178
 20
-87.812
 11
91.5393
 21
-88.0284
  0
LINE
  8
0
 10
91.5393
 20
-88.0284
 11
91.6279
 21
-88.2602
  0
LINE
  8
0
 10
91.6279
 20
-88.2602
 11
91.6819
 21
-88.5025
  0
LINE
  8
0
 10
91.6819
 20
-88.5025
 11
91.7
 21
-88.75
  0
LINE
  8
0
 10
91.7
 20
-88.75
 11
91.6819
 21
-88.9975
  0
LINE
  8
0
 10
91.6819
 20
-88.9975
 11
91.6279
 21
-89.2398
  0
LINE
  8
0
 10
91.6279
 20
-89.2398
 11
91.5393
 21
-89.4716
  0
LINE
  8
0
 10
91.5393
 20
-89.4716
 11
91.4178
 21
-89.688
  0
LINE
  8
0
 10
91.4178
 20
-89.688
 11
91.2661
 21
-89.8844
  0
LINE
  8
0
 10
91.2661
 20
-89.8844
 11
91.0874
 21
-90.0567
  0
LINE
  8
0
 10
91.0874
 20
-90.0567
 11
90.8856
 21
-90.2011
  0
LINE
  8
0
 10
90.8856
 20
-90.2011
 11
90.6649
 21
-90.3146
  0
LINE
  8
0
 10
90.6649
 20
-90.3146
 11
90.43
 21
-90.3947
  0
LINE
  8
0
 10
90.43
 20
-90.3947
 11
90.1859
 21
-90.4398
  0
LINE
  8
0
 10
90.1859
 20
-90.4398
 11
89.9379
 21
-90.4489
  0
LINE
  8
0
 10
89.9379
 20
-90.4489
 11
89.6912
 21
-90.4217
  0
ENDSEC
  0
SECTION
  2
OBJECTS
  0
DICTIONARY
  0
ENDSEC
  0
EOF
