  0
SECTION
  2
BLOCKS
  0
ENDSEC
  0
SECTION
  2
ENTITIES
  0
LINE
  8
0
 10
225.023
 20
-118.723
 11
225.54
 21
-118.641
  0
LINE
  8
0
 10
225.54
 20
-118.641
 11
226.045
 21
-118.505
  0
LINE
  8
0
 10
226.045
 20
-118.505
 11
226.534
 21
-118.318
  0
LINE
  8
0
 10
226.534
 20
-118.318
 11
227
 21
-118.08
  0
LINE
  8
0
 10
227
 20
-118.08
 11
227.439
 21
-117.795
  0
LINE
  8
0
 10
227.439
 20
-117.795
 11
227.846
 21
-117.466
  0
LINE
  8
0
 10
227.846
 20
-117.466
 11
228.216
 21
-117.096
  0
LINE
  8
0
 10
228.216
 20
-117.096
 11
228.545
 21
-116.689
  0
LINE
  8
0
 10
228.545
 20
-116.689
 11
228.83
 21
-116.25
  0
LINE
  8
0
 10
228.83
 20
-116.25
 11
229.068
 21
-115.784
  0
LINE
  8
0
 10
229.068
 20
-115.784
 11
229.255
 21
-115.295
  0
LINE
  8
0
 10
229.255
 20
-115.295
 11
229.391
 21
-114.79
  0
LINE
  8
0
 10
229.391
 20
-114.79
 11
229.473
 21
-114.273
  0
LINE
  8
0
 10
229.473
 20
-114.273
 11
229.5
 21
-113.75
  0
LINE
  8
0
 10
229.5
 20
-113.75
 11
229.5
 21
113.75
  0
LINE
  8
0
 10
229.5
 20
113.75
 11
229.473
 21
114.273
  0
LINE
  8
0
 10
229.473
 20
114.273
 11
229.391
 21
114.79
  0
LINE
  8
0
 10
229.391
 20
114.79
 11
229.255
 21
115.295
  0
LINE
  8
0
 10
229.255
 20
115.295
 11
229.068
 21
115.784
  0
LINE
  8
0
 10
229.068
 20
115.784
 11
228.83
 21
116.25
  0
LINE
  8
0
 10
228.83
 20
116.25
 11
228.545
 21
116.689
  0
LINE
  8
0
 10
228.545
 20
116.689
 11
228.216
 21
117.096
  0
LINE
  8
0
 10
228.216
 20
117.096
 11
227.846
 21
117.466
  0
LINE
  8
0
 10
227.846
 20
117.466
 11
227.439
 21
117.795
  0
LINE
  8
0
 10
227.439
 20
117.795
 11
227
 21
118.08
  0
LINE
  8
0
 10
227
 20
118.08
 11
226.534
 21
118.318
  0
LINE
  8
0
 10
226.534
 20
118.318
 11
226.045
 21
118.505
  0
LINE
  8
0
 10
226.045
 20
118.505
 11
225.54
 21
118.641
  0
LINE
  8
0
 10
225.54
 20
118.641
 11
225.023
 21
118.723
  0
LINE
  8
0
 10
225.023
 20
118.723
 11
224.5
 21
118.75
  0
LINE
  8
0
 10
224.5
 20
118.75
 11
-224.5
 21
118.75
  0
LINE
  8
0
 10
-224.5
 20
118.75
 11
-225.023
 21
118.723
  0
LINE
  8
0
 10
-225.023
 20
118.723
 11
-225.54
 21
118.641
  0
LINE
  8
0
 10
-225.54
 20
118.641
 11
-226.045
 21
118.505
  0
LINE
  8
0
 10
-226.045
 20
118.505
 11
-226.534
 21
118.318
  0
LINE
  8
0
 10
-226.534
 20
118.318
 11
-227
 21
118.08
  0
LINE
  8
0
 10
-227
 20
118.08
 11
-227.439
 21
117.795
  0
LINE
  8
0
 10
-227.439
 20
117.795
 11
-227.846
 21
117.466
  0
LINE
  8
0
 10
-227.846
 20
117.466
 11
-228.216
 21
117.096
  0
LINE
  8
0
 10
-228.216
 20
117.096
 11
-228.545
 21
116.689
  0
LINE
  8
0
 10
-228.545
 20
116.689
 11
-228.83
 21
116.25
  0
LINE
  8
0
 10
-228.83
 20
116.25
 11
-229.068
 21
115.784
  0
LINE
  8
0
 10
-229.068
 20
115.784
 11
-229.255
 21
115.295
  0
LINE
  8
0
 10
-229.255
 20
115.295
 11
-229.391
 21
114.79
  0
LINE
  8
0
 10
-229.391
 20
114.79
 11
-229.473
 21
114.273
  0
LINE
  8
0
 10
-229.473
 20
114.273
 11
-229.5
 21
113.75
  0
LINE
  8
0
 10
-229.5
 20
113.75
 11
-229.5
 21
-113.75
  0
LINE
  8
0
 10
-229.5
 20
-113.75
 11
-229.473
 21
-114.273
  0
LINE
  8
0
 10
-229.473
 20
-114.273
 11
-229.391
 21
-114.79
  0
LINE
  8
0
 10
-229.391
 20
-114.79
 11
-229.255
 21
-115.295
  0
LINE
  8
0
 10
-229.255
 20
-115.295
 11
-229.068
 21
-115.784
  0
LINE
  8
0
 10
-229.068
 20
-115.784
 11
-228.83
 21
-116.25
  0
LINE
  8
0
 10
-228.83
 20
-116.25
 11
-228.545
 21
-116.689
  0
LINE
  8
0
 10
-228.545
 20
-116.689
 11
-228.216
 21
-117.096
  0
LINE
  8
0
 10
-228.216
 20
-117.096
 11
-227.846
 21
-117.466
  0
LINE
  8
0
 10
-227.846
 20
-117.466
 11
-227.439
 21
-117.795
  0
LINE
  8
0
 10
-227.439
 20
-117.795
 11
-227
 21
-118.08
  0
LINE
  8
0
 10
-227
 20
-118.08
 11
-226.534
 21
-118.318
  0
LINE
  8
0
 10
-226.534
 20
-118.318
 11
-226.045
 21
-118.505
  0
LINE
  8
0
 10
-226.045
 20
-118.505
 11
-225.54
 21
-118.641
  0
LINE
  8
0
 10
-225.54
 20
-118.641
 11
-225.023
 21
-118.723
  0
LINE
  8
0
 10
-225.023
 20
-118.723
 11
-224.5
 21
-118.75
  0
LINE
  8
0
 10
-224.5
 20
-118.75
 11
224.5
 21
-118.75
  0
LINE
  8
0
 10
224.5
 20
-118.75
 11
225.023
 21
-118.723
  0
LINE
  8
0
 10
-222.392
 20
107.521
 11
-222.78
 21
107.582
  0
LINE
  8
0
 10
-222.78
 20
107.582
 11
-223.159
 21
107.684
  0
LINE
  8
0
 10
-223.159
 20
107.684
 11
-223.525
 21
107.824
  0
LINE
  8
0
 10
-223.525
 20
107.824
 11
-223.875
 21
108.002
  0
LINE
  8
0
 10
-223.875
 20
108.002
 11
-224.204
 21
108.216
  0
LINE
  8
0
 10
-224.204
 20
108.216
 11
-224.509
 21
108.463
  0
LINE
  8
0
 10
-224.509
 20
108.463
 11
-224.787
 21
108.741
  0
LINE
  8
0
 10
-224.787
 20
108.741
 11
-225.034
 21
109.046
  0
LINE
  8
0
 10
-225.034
 20
109.046
 11
-225.248
 21
109.375
  0
LINE
  8
0
 10
-225.248
 20
109.375
 11
-225.426
 21
109.725
  0
LINE
  8
0
 10
-225.426
 20
109.725
 11
-225.566
 21
110.091
  0
LINE
  8
0
 10
-225.566
 20
110.091
 11
-225.668
 21
110.47
  0
LINE
  8
0
 10
-225.668
 20
110.47
 11
-225.729
 21
110.858
  0
LINE
  8
0
 10
-225.729
 20
110.858
 11
-225.75
 21
111.25
  0
LINE
  8
0
 10
-225.75
 20
111.25
 11
-225.729
 21
111.642
  0
LINE
  8
0
 10
-225.729
 20
111.642
 11
-225.668
 21
112.03
  0
LINE
  8
0
 10
-225.668
 20
112.03
 11
-225.566
 21
112.409
  0
LINE
  8
0
 10
-225.566
 20
112.409
 11
-225.426
 21
112.775
  0
LINE
  8
0
 10
-225.426
 20
112.775
 11
-225.248
 21
113.125
  0
LINE
  8
0
 10
-225.248
 20
113.125
 11
-225.034
 21
113.454
  0
LINE
  8
0
 10
-225.034
 20
113.454
 11
-224.787
 21
113.759
  0
LINE
  8
0
 10
-224.787
 20
113.759
 11
-224.509
 21
114.037
  0
LINE
  8
0
 10
-224.509
 20
114.037
 11
-224.204
 21
114.284
  0
LINE
  8
0
 10
-224.204
 20
114.284
 11
-223.875
 21
114.498
  0
LINE
  8
0
 10
-223.875
 20
114.498
 11
-223.525
 21
114.676
  0
LINE
  8
0
 10
-223.525
 20
114.676
 11
-223.159
 21
114.816
  0
LINE
  8
0
 10
-223.159
 20
114.816
 11
-222.78
 21
114.918
  0
LINE
  8
0
 10
-222.78
 20
114.918
 11
-222.392
 21
114.979
  0
LINE
  8
0
 10
-222.392
 20
114.979
 11
-222
 21
115
  0
LINE
  8
0
 10
-222
 20
115
 11
-221.608
 21
114.979
  0
LINE
  8
0
 10
-221.608
 20
114.979
 11
-221.22
 21
114.918
  0
LINE
  8
0
 10
-221.22
 20
114.918
 11
-220.841
 21
114.816
  0
LINE
  8
0
 10
-220.841
 20
114.816
 11
-220.475
 21
114.676
  0
LINE
  8
0
 10
-220.475
 20
114.676
 11
-220.125
 21
114.498
  0
LINE
  8
0
 10
-220.125
 20
114.498
 11
-219.796
 21
114.284
  0
LINE
  8
0
 10
-219.796
 20
114.284
 11
-219.491
 21
114.037
  0
LINE
  8
0
 10
-219.491
 20
114.037
 11
-219.213
 21
113.759
  0
LINE
  8
0
 10
-219.213
 20
113.759
 11
-218.966
 21
113.454
  0
LINE
  8
0
 10
-218.966
 20
113.454
 11
-218.752
 21
113.125
  0
LINE
  8
0
 10
-218.752
 20
113.125
 11
-218.574
 21
112.775
  0
LINE
  8
0
 10
-218.574
 20
112.775
 11
-218.434
 21
112.409
  0
LINE
  8
0
 10
-218.434
 20
112.409
 11
-218.332
 21
112.03
  0
LINE
  8
0
 10
-218.332
 20
112.03
 11
-218.271
 21
111.642
  0
LINE
  8
0
 10
-218.271
 20
111.642
 11
-218.25
 21
111.25
  0
LINE
  8
0
 10
-218.25
 20
111.25
 11
-218.271
 21
110.858
  0
LINE
  8
0
 10
-218.271
 20
110.858
 11
-218.332
 21
110.47
  0
LINE
  8
0
 10
-218.332
 20
110.47
 11
-218.434
 21
110.091
  0
LINE
  8
0
 10
-218.434
 20
110.091
 11
-218.574
 21
109.725
  0
LINE
  8
0
 10
-218.574
 20
109.725
 11
-218.752
 21
109.375
  0
LINE
  8
0
 10
-218.752
 20
109.375
 11
-218.966
 21
109.046
  0
LINE
  8
0
 10
-218.966
 20
109.046
 11
-219.213
 21
108.741
  0
LINE
  8
0
 10
-219.213
 20
108.741
 11
-219.491
 21
108.463
  0
LINE
  8
0
 10
-219.491
 20
108.463
 11
-219.796
 21
108.216
  0
LINE
  8
0
 10
-219.796
 20
108.216
 11
-220.125
 21
108.002
  0
LINE
  8
0
 10
-220.125
 20
108.002
 11
-220.475
 21
107.824
  0
LINE
  8
0
 10
-220.475
 20
107.824
 11
-220.841
 21
107.684
  0
LINE
  8
0
 10
-220.841
 20
107.684
 11
-221.22
 21
107.582
  0
LINE
  8
0
 10
-221.22
 20
107.582
 11
-221.608
 21
107.521
  0
LINE
  8
0
 10
-221.608
 20
107.521
 11
-222
 21
107.5
  0
LINE
  8
0
 10
-222
 20
107.5
 11
-222.392
 21
107.521
  0
LINE
  8
0
 10
221.608
 20
107.521
 11
221.22
 21
107.582
  0
LINE
  8
0
 10
221.22
 20
107.582
 11
220.841
 21
107.684
  0
LINE
  8
0
 10
220.841
 20
107.684
 11
220.475
 21
107.824
  0
LINE
  8
0
 10
220.475
 20
107.824
 11
220.125
 21
108.002
  0
LINE
  8
0
 10
220.125
 20
108.002
 11
219.796
 21
108.216
  0
LINE
  8
0
 10
219.796
 20
108.216
 11
219.491
 21
108.463
  0
LINE
  8
0
 10
219.491
 20
108.463
 11
219.213
 21
108.741
  0
LINE
  8
0
 10
219.213
 20
108.741
 11
218.966
 21
109.046
  0
LINE
  8
0
 10
218.966
 20
109.046
 11
218.752
 21
109.375
  0
LINE
  8
0
 10
218.752
 20
109.375
 11
218.574
 21
109.725
  0
LINE
  8
0
 10
218.574
 20
109.725
 11
218.434
 21
110.091
  0
LINE
  8
0
 10
218.434
 20
110.091
 11
218.332
 21
110.47
  0
LINE
  8
0
 10
218.332
 20
110.47
 11
218.271
 21
110.858
  0
LINE
  8
0
 10
218.271
 20
110.858
 11
218.25
 21
111.25
  0
LINE
  8
0
 10
218.25
 20
111.25
 11
218.271
 21
111.642
  0
LINE
  8
0
 10
218.271
 20
111.642
 11
218.332
 21
112.03
  0
LINE
  8
0
 10
218.332
 20
112.03
 11
218.434
 21
112.409
  0
LINE
  8
0
 10
218.434
 20
112.409
 11
218.574
 21
112.775
  0
LINE
  8
0
 10
218.574
 20
112.775
 11
218.752
 21
113.125
  0
LINE
  8
0
 10
218.752
 20
113.125
 11
218.966
 21
113.454
  0
LINE
  8
0
 10
218.966
 20
113.454
 11
219.213
 21
113.759
  0
LINE
  8
0
 10
219.213
 20
113.759
 11
219.491
 21
114.037
  0
LINE
  8
0
 10
219.491
 20
114.037
 11
219.796
 21
114.284
  0
LINE
  8
0
 10
219.796
 20
114.284
 11
220.125
 21
114.498
  0
LINE
  8
0
 10
220.125
 20
114.498
 11
220.475
 21
114.676
  0
LINE
  8
0
 10
220.475
 20
114.676
 11
220.841
 21
114.816
  0
LINE
  8
0
 10
220.841
 20
114.816
 11
221.22
 21
114.918
  0
LINE
  8
0
 10
221.22
 20
114.918
 11
221.608
 21
114.979
  0
LINE
  8
0
 10
221.608
 20
114.979
 11
222
 21
115
  0
LINE
  8
0
 10
222
 20
115
 11
222.392
 21
114.979
  0
LINE
  8
0
 10
222.392
 20
114.979
 11
222.78
 21
114.918
  0
LINE
  8
0
 10
222.78
 20
114.918
 11
223.159
 21
114.816
  0
LINE
  8
0
 10
223.159
 20
114.816
 11
223.525
 21
114.676
  0
LINE
  8
0
 10
223.525
 20
114.676
 11
223.875
 21
114.498
  0
LINE
  8
0
 10
223.875
 20
114.498
 11
224.204
 21
114.284
  0
LINE
  8
0
 10
224.204
 20
114.284
 11
224.509
 21
114.037
  0
LINE
  8
0
 10
224.509
 20
114.037
 11
224.787
 21
113.759
  0
LINE
  8
0
 10
224.787
 20
113.759
 11
225.034
 21
113.454
  0
LINE
  8
0
 10
225.034
 20
113.454
 11
225.248
 21
113.125
  0
LINE
  8
0
 10
225.248
 20
113.125
 11
225.426
 21
112.775
  0
LINE
  8
0
 10
225.426
 20
112.775
 11
225.566
 21
112.409
  0
LINE
  8
0
 10
225.566
 20
112.409
 11
225.668
 21
112.03
  0
LINE
  8
0
 10
225.668
 20
112.03
 11
225.729
 21
111.642
  0
LINE
  8
0
 10
225.729
 20
111.642
 11
225.75
 21
111.25
  0
LINE
  8
0
 10
225.75
 20
111.25
 11
225.729
 21
110.858
  0
LINE
  8
0
 10
225.729
 20
110.858
 11
225.668
 21
110.47
  0
LINE
  8
0
 10
225.668
 20
110.47
 11
225.566
 21
110.091
  0
LINE
  8
0
 10
225.566
 20
110.091
 11
225.426
 21
109.725
  0
LINE
  8
0
 10
225.426
 20
109.725
 11
225.248
 21
109.375
  0
LINE
  8
0
 10
225.248
 20
109.375
 11
225.034
 21
109.046
  0
LINE
  8
0
 10
225.034
 20
109.046
 11
224.787
 21
108.741
  0
LINE
  8
0
 10
224.787
 20
108.741
 11
224.509
 21
108.463
  0
LINE
  8
0
 10
224.509
 20
108.463
 11
224.204
 21
108.216
  0
LINE
  8
0
 10
224.204
 20
108.216
 11
223.875
 21
108.002
  0
LINE
  8
0
 10
223.875
 20
108.002
 11
223.525
 21
107.824
  0
LINE
  8
0
 10
223.525
 20
107.824
 11
223.159
 21
107.684
  0
LINE
  8
0
 10
223.159
 20
107.684
 11
222.78
 21
107.582
  0
LINE
  8
0
 10
222.78
 20
107.582
 11
222.392
 21
107.521
  0
LINE
  8
0
 10
222.392
 20
107.521
 11
222
 21
107.5
  0
LINE
  8
0
 10
222
 20
107.5
 11
221.608
 21
107.521
  0
LINE
  8
0
 10
-90.0588
 20
109.578
 11
-90.2989
 21
109.641
  0
LINE
  8
0
 10
-90.2989
 20
109.641
 11
-90.5273
 21
109.738
  0
LINE
  8
0
 10
-90.5273
 20
109.738
 11
-90.7392
 21
109.867
  0
LINE
  8
0
 10
-90.7392
 20
109.867
 11
-90.9299
 21
110.026
  0
LINE
  8
0
 10
-90.9299
 20
110.026
 11
-91.0955
 21
110.211
  0
LINE
  8
0
 10
-91.0955
 20
110.211
 11
-91.2325
 21
110.418
  0
LINE
  8
0
 10
-91.2325
 20
110.418
 11
-91.3378
 21
110.643
  0
LINE
  8
0
 10
-91.3378
 20
110.643
 11
-91.4093
 21
110.88
  0
LINE
  8
0
 10
-91.4093
 20
110.88
 11
-91.4455
 21
111.126
  0
LINE
  8
0
 10
-91.4455
 20
111.126
 11
-91.4455
 21
111.374
  0
LINE
  8
0
 10
-91.4455
 20
111.374
 11
-91.4093
 21
111.62
  0
LINE
  8
0
 10
-91.4093
 20
111.62
 11
-91.3378
 21
111.857
  0
LINE
  8
0
 10
-91.3378
 20
111.857
 11
-91.2325
 21
112.082
  0
LINE
  8
0
 10
-91.2325
 20
112.082
 11
-91.0955
 21
112.289
  0
LINE
  8
0
 10
-91.0955
 20
112.289
 11
-90.9299
 21
112.474
  0
LINE
  8
0
 10
-90.9299
 20
112.474
 11
-90.7392
 21
112.633
  0
LINE
  8
0
 10
-90.7392
 20
112.633
 11
-90.5273
 21
112.762
  0
LINE
  8
0
 10
-90.5273
 20
112.762
 11
-90.2989
 21
112.859
  0
LINE
  8
0
 10
-90.2989
 20
112.859
 11
-90.0588
 21
112.922
  0
LINE
  8
0
 10
-90.0588
 20
112.922
 11
-89.8121
 21
112.949
  0
LINE
  8
0
 10
-89.8121
 20
112.949
 11
-89.5641
 21
112.94
  0
LINE
  8
0
 10
-89.5641
 20
112.94
 11
-89.32
 21
112.895
  0
LINE
  8
0
 10
-89.32
 20
112.895
 11
-89.0851
 21
112.815
  0
LINE
  8
0
 10
-89.0851
 20
112.815
 11
-88.8644
 21
112.701
  0
LINE
  8
0
 10
-88.8644
 20
112.701
 11
-88.6626
 21
112.557
  0
LINE
  8
0
 10
-88.6626
 20
112.557
 11
-88.4839
 21
112.384
  0
LINE
  8
0
 10
-88.4839
 20
112.384
 11
-88.3322
 21
112.188
  0
LINE
  8
0
 10
-88.3322
 20
112.188
 11
-88.2107
 21
111.972
  0
LINE
  8
0
 10
-88.2107
 20
111.972
 11
-88.1221
 21
111.74
  0
LINE
  8
0
 10
-88.1221
 20
111.74
 11
-88.0681
 21
111.498
  0
LINE
  8
0
 10
-88.0681
 20
111.498
 11
-88.05
 21
111.25
  0
LINE
  8
0
 10
-88.05
 20
111.25
 11
-88.0681
 21
111.002
  0
LINE
  8
0
 10
-88.0681
 20
111.002
 11
-88.1221
 21
110.76
  0
LINE
  8
0
 10
-88.1221
 20
110.76
 11
-88.2107
 21
110.528
  0
LINE
  8
0
 10
-88.2107
 20
110.528
 11
-88.3322
 21
110.312
  0
LINE
  8
0
 10
-88.3322
 20
110.312
 11
-88.4839
 21
110.116
  0
LINE
  8
0
 10
-88.4839
 20
110.116
 11
-88.6626
 21
109.943
  0
LINE
  8
0
 10
-88.6626
 20
109.943
 11
-88.8644
 21
109.799
  0
LINE
  8
0
 10
-88.8644
 20
109.799
 11
-89.0851
 21
109.685
  0
LINE
  8
0
 10
-89.0851
 20
109.685
 11
-89.32
 21
109.605
  0
LINE
  8
0
 10
-89.32
 20
109.605
 11
-89.5641
 21
109.56
  0
LINE
  8
0
 10
-89.5641
 20
109.56
 11
-89.8121
 21
109.551
  0
LINE
  8
0
 10
-89.8121
 20
109.551
 11
-90.0588
 21
109.578
  0
LINE
  8
0
 10
0.429977
 20
112.895
 11
0.664871
 21
112.815
  0
LINE
  8
0
 10
0.664871
 20
112.815
 11
0.88559
 21
112.701
  0
LINE
  8
0
 10
0.88559
 20
112.701
 11
1.08743
 21
112.557
  0
LINE
  8
0
 10
1.08743
 20
112.557
 11
1.2661
 21
112.384
  0
LINE
  8
0
 10
1.2661
 20
112.384
 11
1.41779
 21
112.188
  0
LINE
  8
0
 10
1.41779
 20
112.188
 11
1.53926
 21
111.972
  0
LINE
  8
0
 10
1.53926
 20
111.972
 11
1.62791
 21
111.74
  0
LINE
  8
0
 10
1.62791
 20
111.74
 11
1.68187
 21
111.498
  0
LINE
  8
0
 10
1.68187
 20
111.498
 11
1.7
 21
111.25
  0
LINE
  8
0
 10
1.7
 20
111.25
 11
1.68187
 21
111.002
  0
LINE
  8
0
 10
1.68187
 20
111.002
 11
1.62791
 21
110.76
  0
LINE
  8
0
 10
1.62791
 20
110.76
 11
1.53926
 21
110.528
  0
LINE
  8
0
 10
1.53926
 20
110.528
 11
1.41779
 21
110.312
  0
LINE
  8
0
 10
1.41779
 20
110.312
 11
1.2661
 21
110.116
  0
LINE
  8
0
 10
1.2661
 20
110.116
 11
1.08743
 21
109.943
  0
LINE
  8
0
 10
1.08743
 20
109.943
 11
0.88559
 21
109.799
  0
LINE
  8
0
 10
0.88559
 20
109.799
 11
0.664871
 21
109.685
  0
LINE
  8
0
 10
0.664871
 20
109.685
 11
0.429977
 21
109.605
  0
LINE
  8
0
 10
0.429977
 20
109.605
 11
0.185928
 21
109.56
  0
LINE
  8
0
 10
0.185928
 20
109.56
 11
-0.0620728
 21
109.551
  0
LINE
  8
0
 10
-0.0620728
 20
109.551
 11
-0.308777
 21
109.578
  0
LINE
  8
0
 10
-0.308777
 20
109.578
 11
-0.548889
 21
109.641
  0
LINE
  8
0
 10
-0.548889
 20
109.641
 11
-0.777298
 21
109.738
  0
LINE
  8
0
 10
-0.777298
 20
109.738
 11
-0.989151
 21
109.867
  0
LINE
  8
0
 10
-0.989151
 20
109.867
 11
-1.17992
 21
110.026
  0
LINE
  8
0
 10
-1.17992
 20
110.026
 11
-1.34554
 21
110.211
  0
LINE
  8
0
 10
-1.34554
 20
110.211
 11
-1.48248
 21
110.418
  0
LINE
  8
0
 10
-1.48248
 20
110.418
 11
-1.58781
 21
110.643
  0
LINE
  8
0
 10
-1.58781
 20
110.643
 11
-1.65932
 21
110.88
  0
LINE
  8
0
 10
-1.65932
 20
110.88
 11
-1.69545
 21
111.126
  0
LINE
  8
0
 10
-1.69545
 20
111.126
 11
-1.69545
 21
111.374
  0
LINE
  8
0
 10
-1.69545
 20
111.374
 11
-1.65932
 21
111.62
  0
LINE
  8
0
 10
-1.65932
 20
111.62
 11
-1.58781
 21
111.857
  0
LINE
  8
0
 10
-1.58781
 20
111.857
 11
-1.48248
 21
112.082
  0
LINE
  8
0
 10
-1.48248
 20
112.082
 11
-1.34554
 21
112.289
  0
LINE
  8
0
 10
-1.34554
 20
112.289
 11
-1.17992
 21
112.474
  0
LINE
  8
0
 10
-1.17992
 20
112.474
 11
-0.989151
 21
112.633
  0
LINE
  8
0
 10
-0.989151
 20
112.633
 11
-0.777298
 21
112.762
  0
LINE
  8
0
 10
-0.777298
 20
112.762
 11
-0.548889
 21
112.859
  0
LINE
  8
0
 10
-0.548889
 20
112.859
 11
-0.308777
 21
112.922
  0
LINE
  8
0
 10
-0.308777
 20
112.922
 11
-0.0620728
 21
112.949
  0
LINE
  8
0
 10
-0.0620728
 20
112.949
 11
0.185928
 21
112.94
  0
LINE
  8
0
 10
0.185928
 20
112.94
 11
0.429977
 21
112.895
  0
LINE
  8
0
 10
-179.809
 20
109.578
 11
-180.049
 21
109.641
  0
LINE
  8
0
 10
-180.049
 20
109.641
 11
-180.277
 21
109.738
  0
LINE
  8
0
 10
-180.277
 20
109.738
 11
-180.489
 21
109.867
  0
LINE
  8
0
 10
-180.489
 20
109.867
 11
-180.68
 21
110.026
  0
LINE
  8
0
 10
-180.68
 20
110.026
 11
-180.846
 21
110.211
  0
LINE
  8
0
 10
-180.846
 20
110.211
 11
-180.982
 21
110.418
  0
LINE
  8
0
 10
-180.982
 20
110.418
 11
-181.088
 21
110.643
  0
LINE
  8
0
 10
-181.088
 20
110.643
 11
-181.159
 21
110.88
  0
LINE
  8
0
 10
-181.159
 20
110.88
 11
-181.195
 21
111.126
  0
LINE
  8
0
 10
-181.195
 20
111.126
 11
-181.195
 21
111.374
  0
LINE
  8
0
 10
-181.195
 20
111.374
 11
-181.159
 21
111.62
  0
LINE
  8
0
 10
-181.159
 20
111.62
 11
-181.088
 21
111.857
  0
LINE
  8
0
 10
-181.088
 20
111.857
 11
-180.982
 21
112.082
  0
LINE
  8
0
 10
-180.982
 20
112.082
 11
-180.846
 21
112.289
  0
LINE
  8
0
 10
-180.846
 20
112.289
 11
-180.68
 21
112.474
  0
LINE
  8
0
 10
-180.68
 20
112.474
 11
-180.489
 21
112.633
  0
LINE
  8
0
 10
-180.489
 20
112.633
 11
-180.277
 21
112.762
  0
LINE
  8
0
 10
-180.277
 20
112.762
 11
-180.049
 21
112.859
  0
LINE
  8
0
 10
-180.049
 20
112.859
 11
-179.809
 21
112.922
  0
LINE
  8
0
 10
-179.809
 20
112.922
 11
-179.562
 21
112.949
  0
LINE
  8
0
 10
-179.562
 20
112.949
 11
-179.314
 21
112.94
  0
LINE
  8
0
 10
-179.314
 20
112.94
 11
-179.07
 21
112.895
  0
LINE
  8
0
 10
-179.07
 20
112.895
 11
-178.835
 21
112.815
  0
LINE
  8
0
 10
-178.835
 20
112.815
 11
-178.614
 21
112.701
  0
LINE
  8
0
 10
-178.614
 20
112.701
 11
-178.413
 21
112.557
  0
LINE
  8
0
 10
-178.413
 20
112.557
 11
-178.234
 21
112.384
  0
LINE
  8
0
 10
-178.234
 20
112.384
 11
-178.082
 21
112.188
  0
LINE
  8
0
 10
-178.082
 20
112.188
 11
-177.961
 21
111.972
  0
LINE
  8
0
 10
-177.961
 20
111.972
 11
-177.872
 21
111.74
  0
LINE
  8
0
 10
-177.872
 20
111.74
 11
-177.818
 21
111.498
  0
LINE
  8
0
 10
-177.818
 20
111.498
 11
-177.8
 21
111.25
  0
LINE
  8
0
 10
-177.8
 20
111.25
 11
-177.818
 21
111.002
  0
LINE
  8
0
 10
-177.818
 20
111.002
 11
-177.872
 21
110.76
  0
LINE
  8
0
 10
-177.872
 20
110.76
 11
-177.961
 21
110.528
  0
LINE
  8
0
 10
-177.961
 20
110.528
 11
-178.082
 21
110.312
  0
LINE
  8
0
 10
-178.082
 20
110.312
 11
-178.234
 21
110.116
  0
LINE
  8
0
 10
-178.234
 20
110.116
 11
-178.413
 21
109.943
  0
LINE
  8
0
 10
-178.413
 20
109.943
 11
-178.614
 21
109.799
  0
LINE
  8
0
 10
-178.614
 20
109.799
 11
-178.835
 21
109.685
  0
LINE
  8
0
 10
-178.835
 20
109.685
 11
-179.07
 21
109.605
  0
LINE
  8
0
 10
-179.07
 20
109.605
 11
-179.314
 21
109.56
  0
LINE
  8
0
 10
-179.314
 20
109.56
 11
-179.562
 21
109.551
  0
LINE
  8
0
 10
-179.562
 20
109.551
 11
-179.809
 21
109.578
  0
LINE
  8
0
 10
179.191
 20
109.578
 11
178.951
 21
109.641
  0
LINE
  8
0
 10
178.951
 20
109.641
 11
178.723
 21
109.738
  0
LINE
  8
0
 10
178.723
 20
109.738
 11
178.511
 21
109.867
  0
LINE
  8
0
 10
178.511
 20
109.867
 11
178.32
 21
110.026
  0
LINE
  8
0
 10
178.32
 20
110.026
 11
178.154
 21
110.211
  0
LINE
  8
0
 10
178.154
 20
110.211
 11
178.018
 21
110.418
  0
LINE
  8
0
 10
178.018
 20
110.418
 11
177.912
 21
110.643
  0
LINE
  8
0
 10
177.912
 20
110.643
 11
177.841
 21
110.88
  0
LINE
  8
0
 10
177.841
 20
110.88
 11
177.805
 21
111.126
  0
LINE
  8
0
 10
177.805
 20
111.126
 11
177.805
 21
111.374
  0
LINE
  8
0
 10
177.805
 20
111.374
 11
177.841
 21
111.62
  0
LINE
  8
0
 10
177.841
 20
111.62
 11
177.912
 21
111.857
  0
LINE
  8
0
 10
177.912
 20
111.857
 11
178.018
 21
112.082
  0
LINE
  8
0
 10
178.018
 20
112.082
 11
178.154
 21
112.289
  0
LINE
  8
0
 10
178.154
 20
112.289
 11
178.32
 21
112.474
  0
LINE
  8
0
 10
178.32
 20
112.474
 11
178.511
 21
112.633
  0
LINE
  8
0
 10
178.511
 20
112.633
 11
178.723
 21
112.762
  0
LINE
  8
0
 10
178.723
 20
112.762
 11
178.951
 21
112.859
  0
LINE
  8
0
 10
178.951
 20
112.859
 11
179.191
 21
112.922
  0
LINE
  8
0
 10
179.191
 20
112.922
 11
179.438
 21
112.949
  0
LINE
  8
0
 10
179.438
 20
112.949
 11
179.686
 21
112.94
  0
LINE
  8
0
 10
179.686
 20
112.94
 11
179.93
 21
112.895
  0
LINE
  8
0
 10
179.93
 20
112.895
 11
180.165
 21
112.815
  0
LINE
  8
0
 10
180.165
 20
112.815
 11
180.386
 21
112.701
  0
LINE
  8
0
 10
180.386
 20
112.701
 11
180.587
 21
112.557
  0
LINE
  8
0
 10
180.587
 20
112.557
 11
180.766
 21
112.384
  0
LINE
  8
0
 10
180.766
 20
112.384
 11
180.918
 21
112.188
  0
LINE
  8
0
 10
180.918
 20
112.188
 11
181.039
 21
111.972
  0
LINE
  8
0
 10
181.039
 20
111.972
 11
181.128
 21
111.74
  0
LINE
  8
0
 10
181.128
 20
111.74
 11
181.182
 21
111.498
  0
LINE
  8
0
 10
181.182
 20
111.498
 11
181.2
 21
111.25
  0
LINE
  8
0
 10
181.2
 20
111.25
 11
181.182
 21
111.002
  0
LINE
  8
0
 10
181.182
 20
111.002
 11
181.128
 21
110.76
  0
LINE
  8
0
 10
181.128
 20
110.76
 11
181.039
 21
110.528
  0
LINE
  8
0
 10
181.039
 20
110.528
 11
180.918
 21
110.312
  0
LINE
  8
0
 10
180.918
 20
110.312
 11
180.766
 21
110.116
  0
LINE
  8
0
 10
180.766
 20
110.116
 11
180.587
 21
109.943
  0
LINE
  8
0
 10
180.587
 20
109.943
 11
180.386
 21
109.799
  0
LINE
  8
0
 10
180.386
 20
109.799
 11
180.165
 21
109.685
  0
LINE
  8
0
 10
180.165
 20
109.685
 11
179.93
 21
109.605
  0
LINE
  8
0
 10
179.93
 20
109.605
 11
179.686
 21
109.56
  0
LINE
  8
0
 10
179.686
 20
109.56
 11
179.438
 21
109.551
  0
LINE
  8
0
 10
179.438
 20
109.551
 11
179.191
 21
109.578
  0
LINE
  8
0
 10
89.4412
 20
109.578
 11
89.2011
 21
109.641
  0
LINE
  8
0
 10
89.2011
 20
109.641
 11
88.9727
 21
109.738
  0
LINE
  8
0
 10
88.9727
 20
109.738
 11
88.7608
 21
109.867
  0
LINE
  8
0
 10
88.7608
 20
109.867
 11
88.5701
 21
110.026
  0
LINE
  8
0
 10
88.5701
 20
110.026
 11
88.4044
 21
110.211
  0
LINE
  8
0
 10
88.4044
 20
110.211
 11
88.2675
 21
110.418
  0
LINE
  8
0
 10
88.2675
 20
110.418
 11
88.1622
 21
110.643
  0
LINE
  8
0
 10
88.1622
 20
110.643
 11
88.0907
 21
110.88
  0
LINE
  8
0
 10
88.0907
 20
110.88
 11
88.0545
 21
111.126
  0
LINE
  8
0
 10
88.0545
 20
111.126
 11
88.0545
 21
111.374
  0
LINE
  8
0
 10
88.0545
 20
111.374
 11
88.0907
 21
111.62
  0
LINE
  8
0
 10
88.0907
 20
111.62
 11
88.1622
 21
111.857
  0
LINE
  8
0
 10
88.1622
 20
111.857
 11
88.2675
 21
112.082
  0
LINE
  8
0
 10
88.2675
 20
112.082
 11
88.4044
 21
112.289
  0
LINE
  8
0
 10
88.4044
 20
112.289
 11
88.5701
 21
112.474
  0
LINE
  8
0
 10
88.5701
 20
112.474
 11
88.7608
 21
112.633
  0
LINE
  8
0
 10
88.7608
 20
112.633
 11
88.9727
 21
112.762
  0
LINE
  8
0
 10
88.9727
 20
112.762
 11
89.2011
 21
112.859
  0
LINE
  8
0
 10
89.2011
 20
112.859
 11
89.4412
 21
112.922
  0
LINE
  8
0
 10
89.4412
 20
112.922
 11
89.6879
 21
112.949
  0
LINE
  8
0
 10
89.6879
 20
112.949
 11
89.9359
 21
112.94
  0
LINE
  8
0
 10
89.9359
 20
112.94
 11
90.18
 21
112.895
  0
LINE
  8
0
 10
90.18
 20
112.895
 11
90.4149
 21
112.815
  0
LINE
  8
0
 10
90.4149
 20
112.815
 11
90.6356
 21
112.701
  0
LINE
  8
0
 10
90.6356
 20
112.701
 11
90.8374
 21
112.557
  0
LINE
  8
0
 10
90.8374
 20
112.557
 11
91.0161
 21
112.384
  0
LINE
  8
0
 10
91.0161
 20
112.384
 11
91.1678
 21
112.188
  0
LINE
  8
0
 10
91.1678
 20
112.188
 11
91.2893
 21
111.972
  0
LINE
  8
0
 10
91.2893
 20
111.972
 11
91.3779
 21
111.74
  0
LINE
  8
0
 10
91.3779
 20
111.74
 11
91.4319
 21
111.498
  0
LINE
  8
0
 10
91.4319
 20
111.498
 11
91.45
 21
111.25
  0
LINE
  8
0
 10
91.45
 20
111.25
 11
91.4319
 21
111.002
  0
LINE
  8
0
 10
91.4319
 20
111.002
 11
91.3779
 21
110.76
  0
LINE
  8
0
 10
91.3779
 20
110.76
 11
91.2893
 21
110.528
  0
LINE
  8
0
 10
91.2893
 20
110.528
 11
91.1678
 21
110.312
  0
LINE
  8
0
 10
91.1678
 20
110.312
 11
91.0161
 21
110.116
  0
LINE
  8
0
 10
91.0161
 20
110.116
 11
90.8374
 21
109.943
  0
LINE
  8
0
 10
90.8374
 20
109.943
 11
90.6356
 21
109.799
  0
LINE
  8
0
 10
90.6356
 20
109.799
 11
90.4149
 21
109.685
  0
LINE
  8
0
 10
90.4149
 20
109.685
 11
90.18
 21
109.605
  0
LINE
  8
0
 10
90.18
 20
109.605
 11
89.9359
 21
109.56
  0
LINE
  8
0
 10
89.9359
 20
109.56
 11
89.6879
 21
109.551
  0
LINE
  8
0
 10
89.6879
 20
109.551
 11
89.4412
 21
109.578
  0
LINE
  8
0
 10
221.691
 20
67.0783
 11
221.451
 21
67.1411
  0
LINE
  8
0
 10
221.451
 20
67.1411
 11
221.223
 21
67.2381
  0
LINE
  8
0
 10
221.223
 20
67.2381
 11
221.011
 21
67.3674
  0
LINE
  8
0
 10
221.011
 20
67.3674
 11
220.82
 21
67.5262
  0
LINE
  8
0
 10
220.82
 20
67.5262
 11
220.654
 21
67.711
  0
LINE
  8
0
 10
220.654
 20
67.711
 11
220.518
 21
67.918
  0
LINE
  8
0
 10
220.518
 20
67.918
 11
220.412
 21
68.1427
  0
LINE
  8
0
 10
220.412
 20
68.1427
 11
220.341
 21
68.3804
  0
LINE
  8
0
 10
220.341
 20
68.3804
 11
220.305
 21
68.6259
  0
LINE
  8
0
 10
220.305
 20
68.6259
 11
220.305
 21
68.8741
  0
LINE
  8
0
 10
220.305
 20
68.8741
 11
220.341
 21
69.1196
  0
LINE
  8
0
 10
220.341
 20
69.1196
 11
220.412
 21
69.3573
  0
LINE
  8
0
 10
220.412
 20
69.3573
 11
220.518
 21
69.582
  0
LINE
  8
0
 10
220.518
 20
69.582
 11
220.654
 21
69.789
  0
LINE
  8
0
 10
220.654
 20
69.789
 11
220.82
 21
69.9738
  0
LINE
  8
0
 10
220.82
 20
69.9738
 11
221.011
 21
70.1326
  0
LINE
  8
0
 10
221.011
 20
70.1326
 11
221.223
 21
70.2619
  0
LINE
  8
0
 10
221.223
 20
70.2619
 11
221.451
 21
70.3589
  0
LINE
  8
0
 10
221.451
 20
70.3589
 11
221.691
 21
70.4217
  0
LINE
  8
0
 10
221.691
 20
70.4217
 11
221.938
 21
70.4489
  0
LINE
  8
0
 10
221.938
 20
70.4489
 11
222.186
 21
70.4398
  0
LINE
  8
0
 10
222.186
 20
70.4398
 11
222.43
 21
70.3947
  0
LINE
  8
0
 10
222.43
 20
70.3947
 11
222.665
 21
70.3146
  0
LINE
  8
0
 10
222.665
 20
70.3146
 11
222.886
 21
70.2011
  0
LINE
  8
0
 10
222.886
 20
70.2011
 11
223.087
 21
70.0567
  0
LINE
  8
0
 10
223.087
 20
70.0567
 11
223.266
 21
69.8844
  0
LINE
  8
0
 10
223.266
 20
69.8844
 11
223.418
 21
69.688
  0
LINE
  8
0
 10
223.418
 20
69.688
 11
223.539
 21
69.4716
  0
LINE
  8
0
 10
223.539
 20
69.4716
 11
223.628
 21
69.2398
  0
LINE
  8
0
 10
223.628
 20
69.2398
 11
223.682
 21
68.9975
  0
LINE
  8
0
 10
223.682
 20
68.9975
 11
223.7
 21
68.75
  0
LINE
  8
0
 10
223.7
 20
68.75
 11
223.682
 21
68.5025
  0
LINE
  8
0
 10
223.682
 20
68.5025
 11
223.628
 21
68.2602
  0
LINE
  8
0
 10
223.628
 20
68.2602
 11
223.539
 21
68.0284
  0
LINE
  8
0
 10
223.539
 20
68.0284
 11
223.418
 21
67.812
  0
LINE
  8
0
 10
223.418
 20
67.812
 11
223.266
 21
67.6156
  0
LINE
  8
0
 10
223.266
 20
67.6156
 11
223.087
 21
67.4433
  0
LINE
  8
0
 10
223.087
 20
67.4433
 11
222.886
 21
67.2989
  0
LINE
  8
0
 10
222.886
 20
67.2989
 11
222.665
 21
67.1854
  0
LINE
  8
0
 10
222.665
 20
67.1854
 11
222.43
 21
67.1053
  0
LINE
  8
0
 10
222.43
 20
67.1053
 11
222.186
 21
67.0602
  0
LINE
  8
0
 10
222.186
 20
67.0602
 11
221.938
 21
67.0511
  0
LINE
  8
0
 10
221.938
 20
67.0511
 11
221.691
 21
67.0783
  0
LINE
  8
0
 10
-222.186
 20
67.0602
 11
-222.43
 21
67.1053
  0
LINE
  8
0
 10
-222.43
 20
67.1053
 11
-222.665
 21
67.1854
  0
LINE
  8
0
 10
-222.665
 20
67.1854
 11
-222.886
 21
67.2989
  0
LINE
  8
0
 10
-222.886
 20
67.2989
 11
-223.087
 21
67.4433
  0
LINE
  8
0
 10
-223.087
 20
67.4433
 11
-223.266
 21
67.6156
  0
LINE
  8
0
 10
-223.266
 20
67.6156
 11
-223.418
 21
67.812
  0
LINE
  8
0
 10
-223.418
 20
67.812
 11
-223.539
 21
68.0284
  0
LINE
  8
0
 10
-223.539
 20
68.0284
 11
-223.628
 21
68.2602
  0
LINE
  8
0
 10
-223.628
 20
68.2602
 11
-223.682
 21
68.5025
  0
LINE
  8
0
 10
-223.682
 20
68.5025
 11
-223.7
 21
68.75
  0
LINE
  8
0
 10
-223.7
 20
68.75
 11
-223.682
 21
68.9975
  0
LINE
  8
0
 10
-223.682
 20
68.9975
 11
-223.628
 21
69.2398
  0
LINE
  8
0
 10
-223.628
 20
69.2398
 11
-223.539
 21
69.4716
  0
LINE
  8
0
 10
-223.539
 20
69.4716
 11
-223.418
 21
69.688
  0
LINE
  8
0
 10
-223.418
 20
69.688
 11
-223.266
 21
69.8844
  0
LINE
  8
0
 10
-223.266
 20
69.8844
 11
-223.087
 21
70.0567
  0
LINE
  8
0
 10
-223.087
 20
70.0567
 11
-222.886
 21
70.2011
  0
LINE
  8
0
 10
-222.886
 20
70.2011
 11
-222.665
 21
70.3146
  0
LINE
  8
0
 10
-222.665
 20
70.3146
 11
-222.43
 21
70.3947
  0
LINE
  8
0
 10
-222.43
 20
70.3947
 11
-222.186
 21
70.4398
  0
LINE
  8
0
 10
-222.186
 20
70.4398
 11
-221.938
 21
70.4489
  0
LINE
  8
0
 10
-221.938
 20
70.4489
 11
-221.691
 21
70.4217
  0
LINE
  8
0
 10
-221.691
 20
70.4217
 11
-221.451
 21
70.3589
  0
LINE
  8
0
 10
-221.451
 20
70.3589
 11
-221.223
 21
70.2619
  0
LINE
  8
0
 10
-221.223
 20
70.2619
 11
-221.011
 21
70.1326
  0
LINE
  8
0
 10
-221.011
 20
70.1326
 11
-220.82
 21
69.9738
  0
LINE
  8
0
 10
-220.82
 20
69.9738
 11
-220.654
 21
69.789
  0
LINE
  8
0
 10
-220.654
 20
69.789
 11
-220.518
 21
69.582
  0
LINE
  8
0
 10
-220.518
 20
69.582
 11
-220.412
 21
69.3573
  0
LINE
  8
0
 10
-220.412
 20
69.3573
 11
-220.341
 21
69.1196
  0
LINE
  8
0
 10
-220.341
 20
69.1196
 11
-220.305
 21
68.8741
  0
LINE
  8
0
 10
-220.305
 20
68.8741
 11
-220.305
 21
68.6259
  0
LINE
  8
0
 10
-220.305
 20
68.6259
 11
-220.341
 21
68.3804
  0
LINE
  8
0
 10
-220.341
 20
68.3804
 11
-220.412
 21
68.1427
  0
LINE
  8
0
 10
-220.412
 20
68.1427
 11
-220.518
 21
67.918
  0
LINE
  8
0
 10
-220.518
 20
67.918
 11
-220.654
 21
67.711
  0
LINE
  8
0
 10
-220.654
 20
67.711
 11
-220.82
 21
67.5262
  0
LINE
  8
0
 10
-220.82
 20
67.5262
 11
-221.011
 21
67.3674
  0
LINE
  8
0
 10
-221.011
 20
67.3674
 11
-221.223
 21
67.2381
  0
LINE
  8
0
 10
-221.223
 20
67.2381
 11
-221.451
 21
67.1411
  0
LINE
  8
0
 10
-221.451
 20
67.1411
 11
-221.691
 21
67.0783
  0
LINE
  8
0
 10
-221.691
 20
67.0783
 11
-221.938
 21
67.0511
  0
LINE
  8
0
 10
-221.938
 20
67.0511
 11
-222.186
 21
67.0602
  0
LINE
  8
0
 10
-222.186
 20
-1.68979
 11
-222.43
 21
-1.64471
  0
LINE
  8
0
 10
-222.43
 20
-1.64471
 11
-222.665
 21
-1.56458
  0
LINE
  8
0
 10
-222.665
 20
-1.56458
 11
-222.886
 21
-1.4511
  0
LINE
  8
0
 10
-222.886
 20
-1.4511
 11
-223.087
 21
-1.30669
  0
LINE
  8
0
 10
-223.087
 20
-1.30669
 11
-223.266
 21
-1.13443
  0
LINE
  8
0
 10
-223.266
 20
-1.13443
 11
-223.418
 21
-0.938004
  0
LINE
  8
0
 10
-223.418
 20
-0.938004
 11
-223.539
 21
-0.721573
  0
LINE
  8
0
 10
-223.539
 20
-0.721573
 11
-223.628
 21
-0.489761
  0
LINE
  8
0
 10
-223.628
 20
-0.489761
 11
-223.682
 21
-0.247513
  0
LINE
  8
0
 10
-223.682
 20
-0.247513
 11
-223.7
 21
0
  0
LINE
  8
0
 10
-223.7
 20
0
 11
-223.682
 21
0.247513
  0
LINE
  8
0
 10
-223.682
 20
0.247513
 11
-223.628
 21
0.489761
  0
LINE
  8
0
 10
-223.628
 20
0.489761
 11
-223.539
 21
0.721573
  0
LINE
  8
0
 10
-223.539
 20
0.721573
 11
-223.418
 21
0.938004
  0
LINE
  8
0
 10
-223.418
 20
0.938004
 11
-223.266
 21
1.13443
  0
LINE
  8
0
 10
-223.266
 20
1.13443
 11
-223.087
 21
1.30669
  0
LINE
  8
0
 10
-223.087
 20
1.30669
 11
-222.886
 21
1.4511
  0
LINE
  8
0
 10
-222.886
 20
1.4511
 11
-222.665
 21
1.56458
  0
LINE
  8
0
 10
-222.665
 20
1.56458
 11
-222.43
 21
1.64471
  0
LINE
  8
0
 10
-222.43
 20
1.64471
 11
-222.186
 21
1.68979
  0
LINE
  8
0
 10
-222.186
 20
1.68979
 11
-221.938
 21
1.69885
  0
LINE
  8
0
 10
-221.938
 20
1.69885
 11
-221.691
 21
1.67171
  0
LINE
  8
0
 10
-221.691
 20
1.67171
 11
-221.451
 21
1.60893
  0
LINE
  8
0
 10
-221.451
 20
1.60893
 11
-221.223
 21
1.51187
  0
LINE
  8
0
 10
-221.223
 20
1.51187
 11
-221.011
 21
1.38258
  0
LINE
  8
0
 10
-221.011
 20
1.38258
 11
-220.82
 21
1.22383
  0
LINE
  8
0
 10
-220.82
 20
1.22383
 11
-220.654
 21
1.03899
  0
LINE
  8
0
 10
-220.654
 20
1.03899
 11
-220.518
 21
0.832001
  0
LINE
  8
0
 10
-220.518
 20
0.832001
 11
-220.412
 21
0.607285
  0
LINE
  8
0
 10
-220.412
 20
0.607285
 11
-220.341
 21
0.369629
  0
LINE
  8
0
 10
-220.341
 20
0.369629
 11
-220.305
 21
0.124084
  0
LINE
  8
0
 10
-220.305
 20
0.124084
 11
-220.305
 21
-0.124084
  0
LINE
  8
0
 10
-220.305
 20
-0.124084
 11
-220.341
 21
-0.369629
  0
LINE
  8
0
 10
-220.341
 20
-0.369629
 11
-220.412
 21
-0.607285
  0
LINE
  8
0
 10
-220.412
 20
-0.607285
 11
-220.518
 21
-0.832001
  0
LINE
  8
0
 10
-220.518
 20
-0.832001
 11
-220.654
 21
-1.03899
  0
LINE
  8
0
 10
-220.654
 20
-1.03899
 11
-220.82
 21
-1.22383
  0
LINE
  8
0
 10
-220.82
 20
-1.22383
 11
-221.011
 21
-1.38258
  0
LINE
  8
0
 10
-221.011
 20
-1.38258
 11
-221.223
 21
-1.51187
  0
LINE
  8
0
 10
-221.223
 20
-1.51187
 11
-221.451
 21
-1.60893
  0
LINE
  8
0
 10
-221.451
 20
-1.60893
 11
-221.691
 21
-1.67171
  0
LINE
  8
0
 10
-221.691
 20
-1.67171
 11
-221.938
 21
-1.69885
  0
LINE
  8
0
 10
-221.938
 20
-1.69885
 11
-222.186
 21
-1.68979
  0
LINE
  8
0
 10
221.691
 20
-1.67171
 11
221.451
 21
-1.60893
  0
LINE
  8
0
 10
221.451
 20
-1.60893
 11
221.223
 21
-1.51187
  0
LINE
  8
0
 10
221.223
 20
-1.51187
 11
221.011
 21
-1.38258
  0
LINE
  8
0
 10
221.011
 20
-1.38258
 11
220.82
 21
-1.22383
  0
LINE
  8
0
 10
220.82
 20
-1.22383
 11
220.654
 21
-1.03899
  0
LINE
  8
0
 10
220.654
 20
-1.03899
 11
220.518
 21
-0.832001
  0
LINE
  8
0
 10
220.518
 20
-0.832001
 11
220.412
 21
-0.607285
  0
LINE
  8
0
 10
220.412
 20
-0.607285
 11
220.341
 21
-0.369629
  0
LINE
  8
0
 10
220.341
 20
-0.369629
 11
220.305
 21
-0.124084
  0
LINE
  8
0
 10
220.305
 20
-0.124084
 11
220.305
 21
0.124084
  0
LINE
  8
0
 10
220.305
 20
0.124084
 11
220.341
 21
0.369629
  0
LINE
  8
0
 10
220.341
 20
0.369629
 11
220.412
 21
0.607285
  0
LINE
  8
0
 10
220.412
 20
0.607285
 11
220.518
 21
0.832001
  0
LINE
  8
0
 10
220.518
 20
0.832001
 11
220.654
 21
1.03899
  0
LINE
  8
0
 10
220.654
 20
1.03899
 11
220.82
 21
1.22383
  0
LINE
  8
0
 10
220.82
 20
1.22383
 11
221.011
 21
1.38258
  0
LINE
  8
0
 10
221.011
 20
1.38258
 11
221.223
 21
1.51187
  0
LINE
  8
0
 10
221.223
 20
1.51187
 11
221.451
 21
1.60893
  0
LINE
  8
0
 10
221.451
 20
1.60893
 11
221.691
 21
1.67171
  0
LINE
  8
0
 10
221.691
 20
1.67171
 11
221.938
 21
1.69885
  0
LINE
  8
0
 10
221.938
 20
1.69885
 11
222.186
 21
1.68979
  0
LINE
  8
0
 10
222.186
 20
1.68979
 11
222.43
 21
1.64471
  0
LINE
  8
0
 10
222.43
 20
1.64471
 11
222.665
 21
1.56458
  0
LINE
  8
0
 10
222.665
 20
1.56458
 11
222.886
 21
1.4511
  0
LINE
  8
0
 10
222.886
 20
1.4511
 11
223.087
 21
1.30669
  0
LINE
  8
0
 10
223.087
 20
1.30669
 11
223.266
 21
1.13443
  0
LINE
  8
0
 10
223.266
 20
1.13443
 11
223.418
 21
0.938004
  0
LINE
  8
0
 10
223.418
 20
0.938004
 11
223.539
 21
0.721573
  0
LINE
  8
0
 10
223.539
 20
0.721573
 11
223.628
 21
0.489761
  0
LINE
  8
0
 10
223.628
 20
0.489761
 11
223.682
 21
0.247513
  0
LINE
  8
0
 10
223.682
 20
0.247513
 11
223.7
 21
0
  0
LINE
  8
0
 10
223.7
 20
0
 11
223.682
 21
-0.247513
  0
LINE
  8
0
 10
223.682
 20
-0.247513
 11
223.628
 21
-0.489761
  0
LINE
  8
0
 10
223.628
 20
-0.489761
 11
223.539
 21
-0.721573
  0
LINE
  8
0
 10
223.539
 20
-0.721573
 11
223.418
 21
-0.938004
  0
LINE
  8
0
 10
223.418
 20
-0.938004
 11
223.266
 21
-1.13443
  0
LINE
  8
0
 10
223.266
 20
-1.13443
 11
223.087
 21
-1.30669
  0
LINE
  8
0
 10
223.087
 20
-1.30669
 11
222.886
 21
-1.4511
  0
LINE
  8
0
 10
222.886
 20
-1.4511
 11
222.665
 21
-1.56458
  0
LINE
  8
0
 10
222.665
 20
-1.56458
 11
222.43
 21
-1.64471
  0
LINE
  8
0
 10
222.43
 20
-1.64471
 11
222.186
 21
-1.68979
  0
LINE
  8
0
 10
222.186
 20
-1.68979
 11
221.938
 21
-1.69885
  0
LINE
  8
0
 10
221.938
 20
-1.69885
 11
221.691
 21
-1.67171
  0
LINE
  8
0
 10
-222.186
 20
-70.4398
 11
-222.43
 21
-70.3947
  0
LINE
  8
0
 10
-222.43
 20
-70.3947
 11
-222.665
 21
-70.3146
  0
LINE
  8
0
 10
-222.665
 20
-70.3146
 11
-222.886
 21
-70.2011
  0
LINE
  8
0
 10
-222.886
 20
-70.2011
 11
-223.087
 21
-70.0567
  0
LINE
  8
0
 10
-223.087
 20
-70.0567
 11
-223.266
 21
-69.8844
  0
LINE
  8
0
 10
-223.266
 20
-69.8844
 11
-223.418
 21
-69.688
  0
LINE
  8
0
 10
-223.418
 20
-69.688
 11
-223.539
 21
-69.4716
  0
LINE
  8
0
 10
-223.539
 20
-69.4716
 11
-223.628
 21
-69.2398
  0
LINE
  8
0
 10
-223.628
 20
-69.2398
 11
-223.682
 21
-68.9975
  0
LINE
  8
0
 10
-223.682
 20
-68.9975
 11
-223.7
 21
-68.75
  0
LINE
  8
0
 10
-223.7
 20
-68.75
 11
-223.682
 21
-68.5025
  0
LINE
  8
0
 10
-223.682
 20
-68.5025
 11
-223.628
 21
-68.2602
  0
LINE
  8
0
 10
-223.628
 20
-68.2602
 11
-223.539
 21
-68.0284
  0
LINE
  8
0
 10
-223.539
 20
-68.0284
 11
-223.418
 21
-67.812
  0
LINE
  8
0
 10
-223.418
 20
-67.812
 11
-223.266
 21
-67.6156
  0
LINE
  8
0
 10
-223.266
 20
-67.6156
 11
-223.087
 21
-67.4433
  0
LINE
  8
0
 10
-223.087
 20
-67.4433
 11
-222.886
 21
-67.2989
  0
LINE
  8
0
 10
-222.886
 20
-67.2989
 11
-222.665
 21
-67.1854
  0
LINE
  8
0
 10
-222.665
 20
-67.1854
 11
-222.43
 21
-67.1053
  0
LINE
  8
0
 10
-222.43
 20
-67.1053
 11
-222.186
 21
-67.0602
  0
LINE
  8
0
 10
-222.186
 20
-67.0602
 11
-221.938
 21
-67.0511
  0
LINE
  8
0
 10
-221.938
 20
-67.0511
 11
-221.691
 21
-67.0783
  0
LINE
  8
0
 10
-221.691
 20
-67.0783
 11
-221.451
 21
-67.1411
  0
LINE
  8
0
 10
-221.451
 20
-67.1411
 11
-221.223
 21
-67.2381
  0
LINE
  8
0
 10
-221.223
 20
-67.2381
 11
-221.011
 21
-67.3674
  0
LINE
  8
0
 10
-221.011
 20
-67.3674
 11
-220.82
 21
-67.5262
  0
LINE
  8
0
 10
-220.82
 20
-67.5262
 11
-220.654
 21
-67.711
  0
LINE
  8
0
 10
-220.654
 20
-67.711
 11
-220.518
 21
-67.918
  0
LINE
  8
0
 10
-220.518
 20
-67.918
 11
-220.412
 21
-68.1427
  0
LINE
  8
0
 10
-220.412
 20
-68.1427
 11
-220.341
 21
-68.3804
  0
LINE
  8
0
 10
-220.341
 20
-68.3804
 11
-220.305
 21
-68.6259
  0
LINE
  8
0
 10
-220.305
 20
-68.6259
 11
-220.305
 21
-68.8741
  0
LINE
  8
0
 10
-220.305
 20
-68.8741
 11
-220.341
 21
-69.1196
  0
LINE
  8
0
 10
-220.341
 20
-69.1196
 11
-220.412
 21
-69.3573
  0
LINE
  8
0
 10
-220.412
 20
-69.3573
 11
-220.518
 21
-69.582
  0
LINE
  8
0
 10
-220.518
 20
-69.582
 11
-220.654
 21
-69.789
  0
LINE
  8
0
 10
-220.654
 20
-69.789
 11
-220.82
 21
-69.9738
  0
LINE
  8
0
 10
-220.82
 20
-69.9738
 11
-221.011
 21
-70.1326
  0
LINE
  8
0
 10
-221.011
 20
-70.1326
 11
-221.223
 21
-70.2619
  0
LINE
  8
0
 10
-221.223
 20
-70.2619
 11
-221.451
 21
-70.3589
  0
LINE
  8
0
 10
-221.451
 20
-70.3589
 11
-221.691
 21
-70.4217
  0
LINE
  8
0
 10
-221.691
 20
-70.4217
 11
-221.938
 21
-70.4489
  0
LINE
  8
0
 10
-221.938
 20
-70.4489
 11
-222.186
 21
-70.4398
  0
LINE
  8
0
 10
221.691
 20
-70.4217
 11
221.451
 21
-70.3589
  0
LINE
  8
0
 10
221.451
 20
-70.3589
 11
221.223
 21
-70.2619
  0
LINE
  8
0
 10
221.223
 20
-70.2619
 11
221.011
 21
-70.1326
  0
LINE
  8
0
 10
221.011
 20
-70.1326
 11
220.82
 21
-69.9738
  0
LINE
  8
0
 10
220.82
 20
-69.9738
 11
220.654
 21
-69.789
  0
LINE
  8
0
 10
220.654
 20
-69.789
 11
220.518
 21
-69.582
  0
LINE
  8
0
 10
220.518
 20
-69.582
 11
220.412
 21
-69.3573
  0
LINE
  8
0
 10
220.412
 20
-69.3573
 11
220.341
 21
-69.1196
  0
LINE
  8
0
 10
220.341
 20
-69.1196
 11
220.305
 21
-68.8741
  0
LINE
  8
0
 10
220.305
 20
-68.8741
 11
220.305
 21
-68.6259
  0
LINE
  8
0
 10
220.305
 20
-68.6259
 11
220.341
 21
-68.3804
  0
LINE
  8
0
 10
220.341
 20
-68.3804
 11
220.412
 21
-68.1427
  0
LINE
  8
0
 10
220.412
 20
-68.1427
 11
220.518
 21
-67.918
  0
LINE
  8
0
 10
220.518
 20
-67.918
 11
220.654
 21
-67.711
  0
LINE
  8
0
 10
220.654
 20
-67.711
 11
220.82
 21
-67.5262
  0
LINE
  8
0
 10
220.82
 20
-67.5262
 11
221.011
 21
-67.3674
  0
LINE
  8
0
 10
221.011
 20
-67.3674
 11
221.223
 21
-67.2381
  0
LINE
  8
0
 10
221.223
 20
-67.2381
 11
221.451
 21
-67.1411
  0
LINE
  8
0
 10
221.451
 20
-67.1411
 11
221.691
 21
-67.0783
  0
LINE
  8
0
 10
221.691
 20
-67.0783
 11
221.938
 21
-67.0511
  0
LINE
  8
0
 10
221.938
 20
-67.0511
 11
222.186
 21
-67.0602
  0
LINE
  8
0
 10
222.186
 20
-67.0602
 11
222.43
 21
-67.1053
  0
LINE
  8
0
 10
222.43
 20
-67.1053
 11
222.665
 21
-67.1854
  0
LINE
  8
0
 10
222.665
 20
-67.1854
 11
222.886
 21
-67.2989
  0
LINE
  8
0
 10
222.886
 20
-67.2989
 11
223.087
 21
-67.4433
  0
LINE
  8
0
 10
223.087
 20
-67.4433
 11
223.266
 21
-67.6156
  0
LINE
  8
0
 10
223.266
 20
-67.6156
 11
223.418
 21
-67.812
  0
LINE
  8
0
 10
223.418
 20
-67.812
 11
223.539
 21
-68.0284
  0
LINE
  8
0
 10
223.539
 20
-68.0284
 11
223.628
 21
-68.2602
  0
LINE
  8
0
 10
223.628
 20
-68.2602
 11
223.682
 21
-68.5025
  0
LINE
  8
0
 10
223.682
 20
-68.5025
 11
223.7
 21
-68.75
  0
LINE
  8
0
 10
223.7
 20
-68.75
 11
223.682
 21
-68.9975
  0
LINE
  8
0
 10
223.682
 20
-68.9975
 11
223.628
 21
-69.2398
  0
LINE
  8
0
 10
223.628
 20
-69.2398
 11
223.539
 21
-69.4716
  0
LINE
  8
0
 10
223.539
 20
-69.4716
 11
223.418
 21
-69.688
  0
LINE
  8
0
 10
223.418
 20
-69.688
 11
223.266
 21
-69.8844
  0
LINE
  8
0
 10
223.266
 20
-69.8844
 11
223.087
 21
-70.0567
  0
LINE
  8
0
 10
223.087
 20
-70.0567
 11
222.886
 21
-70.2011
  0
LINE
  8
0
 10
222.886
 20
-70.2011
 11
222.665
 21
-70.3146
  0
LINE
  8
0
 10
222.665
 20
-70.3146
 11
222.43
 21
-70.3947
  0
LINE
  8
0
 10
222.43
 20
-70.3947
 11
222.186
 21
-70.4398
  0
LINE
  8
0
 10
222.186
 20
-70.4398
 11
221.938
 21
-70.4489
  0
LINE
  8
0
 10
221.938
 20
-70.4489
 11
221.691
 21
-70.4217
  0
LINE
  8
0
 10
-222.392
 20
-114.979
 11
-222.78
 21
-114.918
  0
LINE
  8
0
 10
-222.78
 20
-114.918
 11
-223.159
 21
-114.816
  0
LINE
  8
0
 10
-223.159
 20
-114.816
 11
-223.525
 21
-114.676
  0
LINE
  8
0
 10
-223.525
 20
-114.676
 11
-223.875
 21
-114.498
  0
LINE
  8
0
 10
-223.875
 20
-114.498
 11
-224.204
 21
-114.284
  0
LINE
  8
0
 10
-224.204
 20
-114.284
 11
-224.509
 21
-114.037
  0
LINE
  8
0
 10
-224.509
 20
-114.037
 11
-224.787
 21
-113.759
  0
LINE
  8
0
 10
-224.787
 20
-113.759
 11
-225.034
 21
-113.454
  0
LINE
  8
0
 10
-225.034
 20
-113.454
 11
-225.248
 21
-113.125
  0
LINE
  8
0
 10
-225.248
 20
-113.125
 11
-225.426
 21
-112.775
  0
LINE
  8
0
 10
-225.426
 20
-112.775
 11
-225.566
 21
-112.409
  0
LINE
  8
0
 10
-225.566
 20
-112.409
 11
-225.668
 21
-112.03
  0
LINE
  8
0
 10
-225.668
 20
-112.03
 11
-225.729
 21
-111.642
  0
LINE
  8
0
 10
-225.729
 20
-111.642
 11
-225.75
 21
-111.25
  0
LINE
  8
0
 10
-225.75
 20
-111.25
 11
-225.729
 21
-110.858
  0
LINE
  8
0
 10
-225.729
 20
-110.858
 11
-225.668
 21
-110.47
  0
LINE
  8
0
 10
-225.668
 20
-110.47
 11
-225.566
 21
-110.091
  0
LINE
  8
0
 10
-225.566
 20
-110.091
 11
-225.426
 21
-109.725
  0
LINE
  8
0
 10
-225.426
 20
-109.725
 11
-225.248
 21
-109.375
  0
LINE
  8
0
 10
-225.248
 20
-109.375
 11
-225.034
 21
-109.046
  0
LINE
  8
0
 10
-225.034
 20
-109.046
 11
-224.787
 21
-108.741
  0
LINE
  8
0
 10
-224.787
 20
-108.741
 11
-224.509
 21
-108.463
  0
LINE
  8
0
 10
-224.509
 20
-108.463
 11
-224.204
 21
-108.216
  0
LINE
  8
0
 10
-224.204
 20
-108.216
 11
-223.875
 21
-108.002
  0
LINE
  8
0
 10
-223.875
 20
-108.002
 11
-223.525
 21
-107.824
  0
LINE
  8
0
 10
-223.525
 20
-107.824
 11
-223.159
 21
-107.684
  0
LINE
  8
0
 10
-223.159
 20
-107.684
 11
-222.78
 21
-107.582
  0
LINE
  8
0
 10
-222.78
 20
-107.582
 11
-222.392
 21
-107.521
  0
LINE
  8
0
 10
-222.392
 20
-107.521
 11
-222
 21
-107.5
  0
LINE
  8
0
 10
-222
 20
-107.5
 11
-221.608
 21
-107.521
  0
LINE
  8
0
 10
-221.608
 20
-107.521
 11
-221.22
 21
-107.582
  0
LINE
  8
0
 10
-221.22
 20
-107.582
 11
-220.841
 21
-107.684
  0
LINE
  8
0
 10
-220.841
 20
-107.684
 11
-220.475
 21
-107.824
  0
LINE
  8
0
 10
-220.475
 20
-107.824
 11
-220.125
 21
-108.002
  0
LINE
  8
0
 10
-220.125
 20
-108.002
 11
-219.796
 21
-108.216
  0
LINE
  8
0
 10
-219.796
 20
-108.216
 11
-219.491
 21
-108.463
  0
LINE
  8
0
 10
-219.491
 20
-108.463
 11
-219.213
 21
-108.741
  0
LINE
  8
0
 10
-219.213
 20
-108.741
 11
-218.966
 21
-109.046
  0
LINE
  8
0
 10
-218.966
 20
-109.046
 11
-218.752
 21
-109.375
  0
LINE
  8
0
 10
-218.752
 20
-109.375
 11
-218.574
 21
-109.725
  0
LINE
  8
0
 10
-218.574
 20
-109.725
 11
-218.434
 21
-110.091
  0
LINE
  8
0
 10
-218.434
 20
-110.091
 11
-218.332
 21
-110.47
  0
LINE
  8
0
 10
-218.332
 20
-110.47
 11
-218.271
 21
-110.858
  0
LINE
  8
0
 10
-218.271
 20
-110.858
 11
-218.25
 21
-111.25
  0
LINE
  8
0
 10
-218.25
 20
-111.25
 11
-218.271
 21
-111.642
  0
LINE
  8
0
 10
-218.271
 20
-111.642
 11
-218.332
 21
-112.03
  0
LINE
  8
0
 10
-218.332
 20
-112.03
 11
-218.434
 21
-112.409
  0
LINE
  8
0
 10
-218.434
 20
-112.409
 11
-218.574
 21
-112.775
  0
LINE
  8
0
 10
-218.574
 20
-112.775
 11
-218.752
 21
-113.125
  0
LINE
  8
0
 10
-218.752
 20
-113.125
 11
-218.966
 21
-113.454
  0
LINE
  8
0
 10
-218.966
 20
-113.454
 11
-219.213
 21
-113.759
  0
LINE
  8
0
 10
-219.213
 20
-113.759
 11
-219.491
 21
-114.037
  0
LINE
  8
0
 10
-219.491
 20
-114.037
 11
-219.796
 21
-114.284
  0
LINE
  8
0
 10
-219.796
 20
-114.284
 11
-220.125
 21
-114.498
  0
LINE
  8
0
 10
-220.125
 20
-114.498
 11
-220.475
 21
-114.676
  0
LINE
  8
0
 10
-220.475
 20
-114.676
 11
-220.841
 21
-114.816
  0
LINE
  8
0
 10
-220.841
 20
-114.816
 11
-221.22
 21
-114.918
  0
LINE
  8
0
 10
-221.22
 20
-114.918
 11
-221.608
 21
-114.979
  0
LINE
  8
0
 10
-221.608
 20
-114.979
 11
-222
 21
-115
  0
LINE
  8
0
 10
-222
 20
-115
 11
-222.392
 21
-114.979
  0
LINE
  8
0
 10
221.608
 20
-114.979
 11
221.22
 21
-114.918
  0
LINE
  8
0
 10
221.22
 20
-114.918
 11
220.841
 21
-114.816
  0
LINE
  8
0
 10
220.841
 20
-114.816
 11
220.475
 21
-114.676
  0
LINE
  8
0
 10
220.475
 20
-114.676
 11
220.125
 21
-114.498
  0
LINE
  8
0
 10
220.125
 20
-114.498
 11
219.796
 21
-114.284
  0
LINE
  8
0
 10
219.796
 20
-114.284
 11
219.491
 21
-114.037
  0
LINE
  8
0
 10
219.491
 20
-114.037
 11
219.213
 21
-113.759
  0
LINE
  8
0
 10
219.213
 20
-113.759
 11
218.966
 21
-113.454
  0
LINE
  8
0
 10
218.966
 20
-113.454
 11
218.752
 21
-113.125
  0
LINE
  8
0
 10
218.752
 20
-113.125
 11
218.574
 21
-112.775
  0
LINE
  8
0
 10
218.574
 20
-112.775
 11
218.434
 21
-112.409
  0
LINE
  8
0
 10
218.434
 20
-112.409
 11
218.332
 21
-112.03
  0
LINE
  8
0
 10
218.332
 20
-112.03
 11
218.271
 21
-111.642
  0
LINE
  8
0
 10
218.271
 20
-111.642
 11
218.25
 21
-111.25
  0
LINE
  8
0
 10
218.25
 20
-111.25
 11
218.271
 21
-110.858
  0
LINE
  8
0
 10
218.271
 20
-110.858
 11
218.332
 21
-110.47
  0
LINE
  8
0
 10
218.332
 20
-110.47
 11
218.434
 21
-110.091
  0
LINE
  8
0
 10
218.434
 20
-110.091
 11
218.574
 21
-109.725
  0
LINE
  8
0
 10
218.574
 20
-109.725
 11
218.752
 21
-109.375
  0
LINE
  8
0
 10
218.752
 20
-109.375
 11
218.966
 21
-109.046
  0
LINE
  8
0
 10
218.966
 20
-109.046
 11
219.213
 21
-108.741
  0
LINE
  8
0
 10
219.213
 20
-108.741
 11
219.491
 21
-108.463
  0
LINE
  8
0
 10
219.491
 20
-108.463
 11
219.796
 21
-108.216
  0
LINE
  8
0
 10
219.796
 20
-108.216
 11
220.125
 21
-108.002
  0
LINE
  8
0
 10
220.125
 20
-108.002
 11
220.475
 21
-107.824
  0
LINE
  8
0
 10
220.475
 20
-107.824
 11
220.841
 21
-107.684
  0
LINE
  8
0
 10
220.841
 20
-107.684
 11
221.22
 21
-107.582
  0
LINE
  8
0
 10
221.22
 20
-107.582
 11
221.608
 21
-107.521
  0
LINE
  8
0
 10
221.608
 20
-107.521
 11
222
 21
-107.5
  0
LINE
  8
0
 10
222
 20
-107.5
 11
222.392
 21
-107.521
  0
LINE
  8
0
 10
222.392
 20
-107.521
 11
222.78
 21
-107.582
  0
LINE
  8
0
 10
222.78
 20
-107.582
 11
223.159
 21
-107.684
  0
LINE
  8
0
 10
223.159
 20
-107.684
 11
223.525
 21
-107.824
  0
LINE
  8
0
 10
223.525
 20
-107.824
 11
223.875
 21
-108.002
  0
LINE
  8
0
 10
223.875
 20
-108.002
 11
224.204
 21
-108.216
  0
LINE
  8
0
 10
224.204
 20
-108.216
 11
224.509
 21
-108.463
  0
LINE
  8
0
 10
224.509
 20
-108.463
 11
224.787
 21
-108.741
  0
LINE
  8
0
 10
224.787
 20
-108.741
 11
225.034
 21
-109.046
  0
LINE
  8
0
 10
225.034
 20
-109.046
 11
225.248
 21
-109.375
  0
LINE
  8
0
 10
225.248
 20
-109.375
 11
225.426
 21
-109.725
  0
LINE
  8
0
 10
225.426
 20
-109.725
 11
225.566
 21
-110.091
  0
LINE
  8
0
 10
225.566
 20
-110.091
 11
225.668
 21
-110.47
  0
LINE
  8
0
 10
225.668
 20
-110.47
 11
225.729
 21
-110.858
  0
LINE
  8
0
 10
225.729
 20
-110.858
 11
225.75
 21
-111.25
  0
LINE
  8
0
 10
225.75
 20
-111.25
 11
225.729
 21
-111.642
  0
LINE
  8
0
 10
225.729
 20
-111.642
 11
225.668
 21
-112.03
  0
LINE
  8
0
 10
225.668
 20
-112.03
 11
225.566
 21
-112.409
  0
LINE
  8
0
 10
225.566
 20
-112.409
 11
225.426
 21
-112.775
  0
LINE
  8
0
 10
225.426
 20
-112.775
 11
225.248
 21
-113.125
  0
LINE
  8
0
 10
225.248
 20
-113.125
 11
225.034
 21
-113.454
  0
LINE
  8
0
 10
225.034
 20
-113.454
 11
224.787
 21
-113.759
  0
LINE
  8
0
 10
224.787
 20
-113.759
 11
224.509
 21
-114.037
  0
LINE
  8
0
 10
224.509
 20
-114.037
 11
224.204
 21
-114.284
  0
LINE
  8
0
 10
224.204
 20
-114.284
 11
223.875
 21
-114.498
  0
LINE
  8
0
 10
223.875
 20
-114.498
 11
223.525
 21
-114.676
  0
LINE
  8
0
 10
223.525
 20
-114.676
 11
223.159
 21
-114.816
  0
LINE
  8
0
 10
223.159
 20
-114.816
 11
222.78
 21
-114.918
  0
LINE
  8
0
 10
222.78
 20
-114.918
 11
222.392
 21
-114.979
  0
LINE
  8
0
 10
222.392
 20
-114.979
 11
222
 21
-115
  0
LINE
  8
0
 10
222
 20
-115
 11
221.608
 21
-114.979
  0
LINE
  8
0
 10
-179.809
 20
-112.922
 11
-180.049
 21
-112.859
  0
LINE
  8
0
 10
-180.049
 20
-112.859
 11
-180.277
 21
-112.762
  0
LINE
  8
0
 10
-180.277
 20
-112.762
 11
-180.489
 21
-112.633
  0
LINE
  8
0
 10
-180.489
 20
-112.633
 11
-180.68
 21
-112.474
  0
LINE
  8
0
 10
-180.68
 20
-112.474
 11
-180.846
 21
-112.289
  0
LINE
  8
0
 10
-180.846
 20
-112.289
 11
-180.982
 21
-112.082
  0
LINE
  8
0
 10
-180.982
 20
-112.082
 11
-181.088
 21
-111.857
  0
LINE
  8
0
 10
-181.088
 20
-111.857
 11
-181.159
 21
-111.62
  0
LINE
  8
0
 10
-181.159
 20
-111.62
 11
-181.195
 21
-111.374
  0
LINE
  8
0
 10
-181.195
 20
-111.374
 11
-181.195
 21
-111.126
  0
LINE
  8
0
 10
-181.195
 20
-111.126
 11
-181.159
 21
-110.88
  0
LINE
  8
0
 10
-181.159
 20
-110.88
 11
-181.088
 21
-110.643
  0
LINE
  8
0
 10
-181.088
 20
-110.643
 11
-180.982
 21
-110.418
  0
LINE
  8
0
 10
-180.982
 20
-110.418
 11
-180.846
 21
-110.211
  0
LINE
  8
0
 10
-180.846
 20
-110.211
 11
-180.68
 21
-110.026
  0
LINE
  8
0
 10
-180.68
 20
-110.026
 11
-180.489
 21
-109.867
  0
LINE
  8
0
 10
-180.489
 20
-109.867
 11
-180.277
 21
-109.738
  0
LINE
  8
0
 10
-180.277
 20
-109.738
 11
-180.049
 21
-109.641
  0
LINE
  8
0
 10
-180.049
 20
-109.641
 11
-179.809
 21
-109.578
  0
LINE
  8
0
 10
-179.809
 20
-109.578
 11
-179.562
 21
-109.551
  0
LINE
  8
0
 10
-179.562
 20
-109.551
 11
-179.314
 21
-109.56
  0
LINE
  8
0
 10
-179.314
 20
-109.56
 11
-179.07
 21
-109.605
  0
LINE
  8
0
 10
-179.07
 20
-109.605
 11
-178.835
 21
-109.685
  0
LINE
  8
0
 10
-178.835
 20
-109.685
 11
-178.614
 21
-109.799
  0
LINE
  8
0
 10
-178.614
 20
-109.799
 11
-178.413
 21
-109.943
  0
LINE
  8
0
 10
-178.413
 20
-109.943
 11
-178.234
 21
-110.116
  0
LINE
  8
0
 10
-178.234
 20
-110.116
 11
-178.082
 21
-110.312
  0
LINE
  8
0
 10
-178.082
 20
-110.312
 11
-177.961
 21
-110.528
  0
LINE
  8
0
 10
-177.961
 20
-110.528
 11
-177.872
 21
-110.76
  0
LINE
  8
0
 10
-177.872
 20
-110.76
 11
-177.818
 21
-111.002
  0
LINE
  8
0
 10
-177.818
 20
-111.002
 11
-177.8
 21
-111.25
  0
LINE
  8
0
 10
-177.8
 20
-111.25
 11
-177.818
 21
-111.498
  0
LINE
  8
0
 10
-177.818
 20
-111.498
 11
-177.872
 21
-111.74
  0
LINE
  8
0
 10
-177.872
 20
-111.74
 11
-177.961
 21
-111.972
  0
LINE
  8
0
 10
-177.961
 20
-111.972
 11
-178.082
 21
-112.188
  0
LINE
  8
0
 10
-178.082
 20
-112.188
 11
-178.234
 21
-112.384
  0
LINE
  8
0
 10
-178.234
 20
-112.384
 11
-178.413
 21
-112.557
  0
LINE
  8
0
 10
-178.413
 20
-112.557
 11
-178.614
 21
-112.701
  0
LINE
  8
0
 10
-178.614
 20
-112.701
 11
-178.835
 21
-112.815
  0
LINE
  8
0
 10
-178.835
 20
-112.815
 11
-179.07
 21
-112.895
  0
LINE
  8
0
 10
-179.07
 20
-112.895
 11
-179.314
 21
-112.94
  0
LINE
  8
0
 10
-179.314
 20
-112.94
 11
-179.562
 21
-112.949
  0
LINE
  8
0
 10
-179.562
 20
-112.949
 11
-179.809
 21
-112.922
  0
LINE
  8
0
 10
179.191
 20
-112.922
 11
178.951
 21
-112.859
  0
LINE
  8
0
 10
178.951
 20
-112.859
 11
178.723
 21
-112.762
  0
LINE
  8
0
 10
178.723
 20
-112.762
 11
178.511
 21
-112.633
  0
LINE
  8
0
 10
178.511
 20
-112.633
 11
178.32
 21
-112.474
  0
LINE
  8
0
 10
178.32
 20
-112.474
 11
178.154
 21
-112.289
  0
LINE
  8
0
 10
178.154
 20
-112.289
 11
178.018
 21
-112.082
  0
LINE
  8
0
 10
178.018
 20
-112.082
 11
177.912
 21
-111.857
  0
LINE
  8
0
 10
177.912
 20
-111.857
 11
177.841
 21
-111.62
  0
LINE
  8
0
 10
177.841
 20
-111.62
 11
177.805
 21
-111.374
  0
LINE
  8
0
 10
177.805
 20
-111.374
 11
177.805
 21
-111.126
  0
LINE
  8
0
 10
177.805
 20
-111.126
 11
177.841
 21
-110.88
  0
LINE
  8
0
 10
177.841
 20
-110.88
 11
177.912
 21
-110.643
  0
LINE
  8
0
 10
177.912
 20
-110.643
 11
178.018
 21
-110.418
  0
LINE
  8
0
 10
178.018
 20
-110.418
 11
178.154
 21
-110.211
  0
LINE
  8
0
 10
178.154
 20
-110.211
 11
178.32
 21
-110.026
  0
LINE
  8
0
 10
178.32
 20
-110.026
 11
178.511
 21
-109.867
  0
LINE
  8
0
 10
178.511
 20
-109.867
 11
178.723
 21
-109.738
  0
LINE
  8
0
 10
178.723
 20
-109.738
 11
178.951
 21
-109.641
  0
LINE
  8
0
 10
178.951
 20
-109.641
 11
179.191
 21
-109.578
  0
LINE
  8
0
 10
179.191
 20
-109.578
 11
179.438
 21
-109.551
  0
LINE
  8
0
 10
179.438
 20
-109.551
 11
179.686
 21
-109.56
  0
LINE
  8
0
 10
179.686
 20
-109.56
 11
179.93
 21
-109.605
  0
LINE
  8
0
 10
179.93
 20
-109.605
 11
180.165
 21
-109.685
  0
LINE
  8
0
 10
180.165
 20
-109.685
 11
180.386
 21
-109.799
  0
LINE
  8
0
 10
180.386
 20
-109.799
 11
180.587
 21
-109.943
  0
LINE
  8
0
 10
180.587
 20
-109.943
 11
180.766
 21
-110.116
  0
LINE
  8
0
 10
180.766
 20
-110.116
 11
180.918
 21
-110.312
  0
LINE
  8
0
 10
180.918
 20
-110.312
 11
181.039
 21
-110.528
  0
LINE
  8
0
 10
181.039
 20
-110.528
 11
181.128
 21
-110.76
  0
LINE
  8
0
 10
181.128
 20
-110.76
 11
181.182
 21
-111.002
  0
LINE
  8
0
 10
181.182
 20
-111.002
 11
181.2
 21
-111.25
  0
LINE
  8
0
 10
181.2
 20
-111.25
 11
181.182
 21
-111.498
  0
LINE
  8
0
 10
181.182
 20
-111.498
 11
181.128
 21
-111.74
  0
LINE
  8
0
 10
181.128
 20
-111.74
 11
181.039
 21
-111.972
  0
LINE
  8
0
 10
181.039
 20
-111.972
 11
180.918
 21
-112.188
  0
LINE
  8
0
 10
180.918
 20
-112.188
 11
180.766
 21
-112.384
  0
LINE
  8
0
 10
180.766
 20
-112.384
 11
180.587
 21
-112.557
  0
LINE
  8
0
 10
180.587
 20
-112.557
 11
180.386
 21
-112.701
  0
LINE
  8
0
 10
180.386
 20
-112.701
 11
180.165
 21
-112.815
  0
LINE
  8
0
 10
180.165
 20
-112.815
 11
179.93
 21
-112.895
  0
LINE
  8
0
 10
179.93
 20
-112.895
 11
179.686
 21
-112.94
  0
LINE
  8
0
 10
179.686
 20
-112.94
 11
179.438
 21
-112.949
  0
LINE
  8
0
 10
179.438
 20
-112.949
 11
179.191
 21
-112.922
  0
LINE
  8
0
 10
89.4412
 20
-112.922
 11
89.2011
 21
-112.859
  0
LINE
  8
0
 10
89.2011
 20
-112.859
 11
88.9727
 21
-112.762
  0
LINE
  8
0
 10
88.9727
 20
-112.762
 11
88.7608
 21
-112.633
  0
LINE
  8
0
 10
88.7608
 20
-112.633
 11
88.5701
 21
-112.474
  0
LINE
  8
0
 10
88.5701
 20
-112.474
 11
88.4044
 21
-112.289
  0
LINE
  8
0
 10
88.4044
 20
-112.289
 11
88.2675
 21
-112.082
  0
LINE
  8
0
 10
88.2675
 20
-112.082
 11
88.1622
 21
-111.857
  0
LINE
  8
0
 10
88.1622
 20
-111.857
 11
88.0907
 21
-111.62
  0
LINE
  8
0
 10
88.0907
 20
-111.62
 11
88.0545
 21
-111.374
  0
LINE
  8
0
 10
88.0545
 20
-111.374
 11
88.0545
 21
-111.126
  0
LINE
  8
0
 10
88.0545
 20
-111.126
 11
88.0907
 21
-110.88
  0
LINE
  8
0
 10
88.0907
 20
-110.88
 11
88.1622
 21
-110.643
  0
LINE
  8
0
 10
88.1622
 20
-110.643
 11
88.2675
 21
-110.418
  0
LINE
  8
0
 10
88.2675
 20
-110.418
 11
88.4044
 21
-110.211
  0
LINE
  8
0
 10
88.4044
 20
-110.211
 11
88.5701
 21
-110.026
  0
LINE
  8
0
 10
88.5701
 20
-110.026
 11
88.7608
 21
-109.867
  0
LINE
  8
0
 10
88.7608
 20
-109.867
 11
88.9727
 21
-109.738
  0
LINE
  8
0
 10
88.9727
 20
-109.738
 11
89.2011
 21
-109.641
  0
LINE
  8
0
 10
89.2011
 20
-109.641
 11
89.4412
 21
-109.578
  0
LINE
  8
0
 10
89.4412
 20
-109.578
 11
89.6879
 21
-109.551
  0
LINE
  8
0
 10
89.6879
 20
-109.551
 11
89.9359
 21
-109.56
  0
LINE
  8
0
 10
89.9359
 20
-109.56
 11
90.18
 21
-109.605
  0
LINE
  8
0
 10
90.18
 20
-109.605
 11
90.4149
 21
-109.685
  0
LINE
  8
0
 10
90.4149
 20
-109.685
 11
90.6356
 21
-109.799
  0
LINE
  8
0
 10
90.6356
 20
-109.799
 11
90.8374
 21
-109.943
  0
LINE
  8
0
 10
90.8374
 20
-109.943
 11
91.0161
 21
-110.116
  0
LINE
  8
0
 10
91.0161
 20
-110.116
 11
91.1678
 21
-110.312
  0
LINE
  8
0
 10
91.1678
 20
-110.312
 11
91.2893
 21
-110.528
  0
LINE
  8
0
 10
91.2893
 20
-110.528
 11
91.3779
 21
-110.76
  0
LINE
  8
0
 10
91.3779
 20
-110.76
 11
91.4319
 21
-111.002
  0
LINE
  8
0
 10
91.4319
 20
-111.002
 11
91.45
 21
-111.25
  0
LINE
  8
0
 10
91.45
 20
-111.25
 11
91.4319
 21
-111.498
  0
LINE
  8
0
 10
91.4319
 20
-111.498
 11
91.3779
 21
-111.74
  0
LINE
  8
0
 10
91.3779
 20
-111.74
 11
91.2893
 21
-111.972
  0
LINE
  8
0
 10
91.2893
 20
-111.972
 11
91.1678
 21
-112.188
  0
LINE
  8
0
 10
91.1678
 20
-112.188
 11
91.0161
 21
-112.384
  0
LINE
  8
0
 10
91.0161
 20
-112.384
 11
90.8374
 21
-112.557
  0
LINE
  8
0
 10
90.8374
 20
-112.557
 11
90.6356
 21
-112.701
  0
LINE
  8
0
 10
90.6356
 20
-112.701
 11
90.4149
 21
-112.815
  0
LINE
  8
0
 10
90.4149
 20
-112.815
 11
90.18
 21
-112.895
  0
LINE
  8
0
 10
90.18
 20
-112.895
 11
89.9359
 21
-112.94
  0
LINE
  8
0
 10
89.9359
 20
-112.94
 11
89.6879
 21
-112.949
  0
LINE
  8
0
 10
89.6879
 20
-112.949
 11
89.4412
 21
-112.922
  0
LINE
  8
0
 10
-0.308777
 20
-112.922
 11
-0.548889
 21
-112.859
  0
LINE
  8
0
 10
-0.548889
 20
-112.859
 11
-0.777298
 21
-112.762
  0
LINE
  8
0
 10
-0.777298
 20
-112.762
 11
-0.989151
 21
-112.633
  0
LINE
  8
0
 10
-0.989151
 20
-112.633
 11
-1.17992
 21
-112.474
  0
LINE
  8
0
 10
-1.17992
 20
-112.474
 11
-1.34554
 21
-112.289
  0
LINE
  8
0
 10
-1.34554
 20
-112.289
 11
-1.48248
 21
-112.082
  0
LINE
  8
0
 10
-1.48248
 20
-112.082
 11
-1.58781
 21
-111.857
  0
LINE
  8
0
 10
-1.58781
 20
-111.857
 11
-1.65932
 21
-111.62
  0
LINE
  8
0
 10
-1.65932
 20
-111.62
 11
-1.69545
 21
-111.374
  0
LINE
  8
0
 10
-1.69545
 20
-111.374
 11
-1.69545
 21
-111.126
  0
LINE
  8
0
 10
-1.69545
 20
-111.126
 11
-1.65932
 21
-110.88
  0
LINE
  8
0
 10
-1.65932
 20
-110.88
 11
-1.58781
 21
-110.643
  0
LINE
  8
0
 10
-1.58781
 20
-110.643
 11
-1.48248
 21
-110.418
  0
LINE
  8
0
 10
-1.48248
 20
-110.418
 11
-1.34554
 21
-110.211
  0
LINE
  8
0
 10
-1.34554
 20
-110.211
 11
-1.17992
 21
-110.026
  0
LINE
  8
0
 10
-1.17992
 20
-110.026
 11
-0.989151
 21
-109.867
  0
LINE
  8
0
 10
-0.989151
 20
-109.867
 11
-0.777298
 21
-109.738
  0
LINE
  8
0
 10
-0.777298
 20
-109.738
 11
-0.548889
 21
-109.641
  0
LINE
  8
0
 10
-0.548889
 20
-109.641
 11
-0.308777
 21
-109.578
  0
LINE
  8
0
 10
-0.308777
 20
-109.578
 11
-0.0620728
 21
-109.551
  0
LINE
  8
0
 10
-0.0620728
 20
-109.551
 11
0.185928
 21
-109.56
  0
LINE
  8
0
 10
0.185928
 20
-109.56
 11
0.429977
 21
-109.605
  0
LINE
  8
0
 10
0.429977
 20
-109.605
 11
0.664871
 21
-109.685
  0
LINE
  8
0
 10
0.664871
 20
-109.685
 11
0.88559
 21
-109.799
  0
LINE
  8
0
 10
0.88559
 20
-109.799
 11
1.08743
 21
-109.943
  0
LINE
  8
0
 10
1.08743
 20
-109.943
 11
1.2661
 21
-110.116
  0
LINE
  8
0
 10
1.2661
 20
-110.116
 11
1.41779
 21
-110.312
  0
LINE
  8
0
 10
1.41779
 20
-110.312
 11
1.53926
 21
-110.528
  0
LINE
  8
0
 10
1.53926
 20
-110.528
 11
1.62791
 21
-110.76
  0
LINE
  8
0
 10
1.62791
 20
-110.76
 11
1.68187
 21
-111.002
  0
LINE
  8
0
 10
1.68187
 20
-111.002
 11
1.7
 21
-111.25
  0
LINE
  8
0
 10
1.7
 20
-111.25
 11
1.68187
 21
-111.498
  0
LINE
  8
0
 10
1.68187
 20
-111.498
 11
1.62791
 21
-111.74
  0
LINE
  8
0
 10
1.62791
 20
-111.74
 11
1.53926
 21
-111.972
  0
LINE
  8
0
 10
1.53926
 20
-111.972
 11
1.41779
 21
-112.188
  0
LINE
  8
0
 10
1.41779
 20
-112.188
 11
1.2661
 21
-112.384
  0
LINE
  8
0
 10
1.2661
 20
-112.384
 11
1.08743
 21
-112.557
  0
LINE
  8
0
 10
1.08743
 20
-112.557
 11
0.88559
 21
-112.701
  0
LINE
  8
0
 10
0.88559
 20
-112.701
 11
0.664871
 21
-112.815
  0
LINE
  8
0
 10
0.664871
 20
-112.815
 11
0.429977
 21
-112.895
  0
LINE
  8
0
 10
0.429977
 20
-112.895
 11
0.185928
 21
-112.94
  0
LINE
  8
0
 10
0.185928
 20
-112.94
 11
-0.0620728
 21
-112.949
  0
LINE
  8
0
 10
-0.0620728
 20
-112.949
 11
-0.308777
 21
-112.922
  0
LINE
  8
0
 10
-90.0588
 20
-112.922
 11
-90.2989
 21
-112.859
  0
LINE
  8
0
 10
-90.2989
 20
-112.859
 11
-90.5273
 21
-112.762
  0
LINE
  8
0
 10
-90.5273
 20
-112.762
 11
-90.7392
 21
-112.633
  0
LINE
  8
0
 10
-90.7392
 20
-112.633
 11
-90.9299
 21
-112.474
  0
LINE
  8
0
 10
-90.9299
 20
-112.474
 11
-91.0955
 21
-112.289
  0
LINE
  8
0
 10
-91.0955
 20
-112.289
 11
-91.2325
 21
-112.082
  0
LINE
  8
0
 10
-91.2325
 20
-112.082
 11
-91.3378
 21
-111.857
  0
LINE
  8
0
 10
-91.3378
 20
-111.857
 11
-91.4093
 21
-111.62
  0
LINE
  8
0
 10
-91.4093
 20
-111.62
 11
-91.4455
 21
-111.374
  0
LINE
  8
0
 10
-91.4455
 20
-111.374
 11
-91.4455
 21
-111.126
  0
LINE
  8
0
 10
-91.4455
 20
-111.126
 11
-91.4093
 21
-110.88
  0
LINE
  8
0
 10
-91.4093
 20
-110.88
 11
-91.3378
 21
-110.643
  0
LINE
  8
0
 10
-91.3378
 20
-110.643
 11
-91.2325
 21
-110.418
  0
LINE
  8
0
 10
-91.2325
 20
-110.418
 11
-91.0955
 21
-110.211
  0
LINE
  8
0
 10
-91.0955
 20
-110.211
 11
-90.9299
 21
-110.026
  0
LINE
  8
0
 10
-90.9299
 20
-110.026
 11
-90.7392
 21
-109.867
  0
LINE
  8
0
 10
-90.7392
 20
-109.867
 11
-90.5273
 21
-109.738
  0
LINE
  8
0
 10
-90.5273
 20
-109.738
 11
-90.2989
 21
-109.641
  0
LINE
  8
0
 10
-90.2989
 20
-109.641
 11
-90.0588
 21
-109.578
  0
LINE
  8
0
 10
-90.0588
 20
-109.578
 11
-89.8121
 21
-109.551
  0
LINE
  8
0
 10
-89.8121
 20
-109.551
 11
-89.5641
 21
-109.56
  0
LINE
  8
0
 10
-89.5641
 20
-109.56
 11
-89.32
 21
-109.605
  0
LINE
  8
0
 10
-89.32
 20
-109.605
 11
-89.0851
 21
-109.685
  0
LINE
  8
0
 10
-89.0851
 20
-109.685
 11
-88.8644
 21
-109.799
  0
LINE
  8
0
 10
-88.8644
 20
-109.799
 11
-88.6626
 21
-109.943
  0
LINE
  8
0
 10
-88.6626
 20
-109.943
 11
-88.4839
 21
-110.116
  0
LINE
  8
0
 10
-88.4839
 20
-110.116
 11
-88.3322
 21
-110.312
  0
LINE
  8
0
 10
-88.3322
 20
-110.312
 11
-88.2107
 21
-110.528
  0
LINE
  8
0
 10
-88.2107
 20
-110.528
 11
-88.1221
 21
-110.76
  0
LINE
  8
0
 10
-88.1221
 20
-110.76
 11
-88.0681
 21
-111.002
  0
LINE
  8
0
 10
-88.0681
 20
-111.002
 11
-88.05
 21
-111.25
  0
LINE
  8
0
 10
-88.05
 20
-111.25
 11
-88.0681
 21
-111.498
  0
LINE
  8
0
 10
-88.0681
 20
-111.498
 11
-88.1221
 21
-111.74
  0
LINE
  8
0
 10
-88.1221
 20
-111.74
 11
-88.2107
 21
-111.972
  0
LINE
  8
0
 10
-88.2107
 20
-111.972
 11
-88.3322
 21
-112.188
  0
LINE
  8
0
 10
-88.3322
 20
-112.188
 11
-88.4839
 21
-112.384
  0
LINE
  8
0
 10
-88.4839
 20
-112.384
 11
-88.6626
 21
-112.557
  0
LINE
  8
0
 10
-88.6626
 20
-112.557
 11
-88.8644
 21
-112.701
  0
LINE
  8
0
 10
-88.8644
 20
-112.701
 11
-89.0851
 21
-112.815
  0
LINE
  8
0
 10
-89.0851
 20
-112.815
 11
-89.32
 21
-112.895
  0
LINE
  8
0
 10
-89.32
 20
-112.895
 11
-89.5641
 21
-112.94
  0
LINE
  8
0
 10
-89.5641
 20
-112.94
 11
-89.8121
 21
-112.949
  0
LINE
  8
0
 10
-89.8121
 20
-112.949
 11
-90.0588
 21
-112.922
  0
ENDSEC
  0
SECTION
  2
OBJECTS
  0
DICTIONARY
  0
ENDSEC
  0
EOF
